<?xml version="1.0" encoding="utf-8" standalone="no"?>
<!DOCTYPE svg PUBLIC "-//W3C//DTD SVG 1.1//EN"
  "http://www.w3.org/Graphics/SVG/1.1/DTD/svg11.dtd">
<svg xmlns:xlink="http://www.w3.org/1999/xlink" width="1188pt" height="252pt" viewBox="0 0 1188 252" xmlns="http://www.w3.org/2000/svg" version="1.1">
 <metadata>
  <rdf:RDF xmlns:dc="http://purl.org/dc/elements/1.1/" xmlns:cc="http://creativecommons.org/ns#" xmlns:rdf="http://www.w3.org/1999/02/22-rdf-syntax-ns#">
   <cc:Work>
    <dc:type rdf:resource="http://purl.org/dc/dcmitype/StillImage"/>
    <dc:date>2024-07-23T21:53:10.599565</dc:date>
    <dc:format>image/svg+xml</dc:format>
    <dc:creator>
     <cc:Agent>
      <dc:title>Matplotlib v3.8.4, https://matplotlib.org/</dc:title>
     </cc:Agent>
    </dc:creator>
   </cc:Work>
  </rdf:RDF>
 </metadata>
 <defs>
  <style type="text/css">*{stroke-linejoin: round; stroke-linecap: butt}</style>
 </defs>
 <g id="figure_1">
  <g id="patch_1">
   <path d="M 0 252 
L 1188 252 
L 1188 0 
L 0 0 
z
" style="fill: #ffffff"/>
  </g>
  <g id="axes_1">
   <g id="patch_2">
    <path d="M 3.00024 198.907885 
L 1184.99976 198.907885 
L 1184.99976 3.00024 
L 3.00024 3.00024 
z
" style="fill: #ffffff"/>
   </g>
   <g id="matplotlib.axis_1">
    <g id="xtick_1">
     <g id="line2d_1">
      <defs>
       <path id="m29a24ca776" d="M 0 0 
L 0 8 
" style="stroke: #000000; stroke-width: 2"/>
      </defs>
      <g>
       <use xlink:href="#m29a24ca776" x="1131.272509" y="198.907885" style="stroke: #000000; stroke-width: 2"/>
      </g>
     </g>
     <g id="text_1">
      <!-- 0 -->
      <g transform="translate(1126.267665 224.791947) scale(0.18 -0.18)">
       <defs>
        <path id="Arial-BoldMT-30" d="M 1756 4600 
Q 2422 4600 2797 4125 
Q 3244 3563 3244 2259 
Q 3244 959 2794 391 
Q 2422 -78 1756 -78 
Q 1088 -78 678 436 
Q 269 950 269 2269 
Q 269 3563 719 4131 
Q 1091 4600 1756 4600 
z
M 1756 3872 
Q 1597 3872 1472 3770 
Q 1347 3669 1278 3406 
Q 1188 3066 1188 2259 
Q 1188 1453 1269 1151 
Q 1350 850 1473 750 
Q 1597 650 1756 650 
Q 1916 650 2041 751 
Q 2166 853 2234 1116 
Q 2325 1453 2325 2259 
Q 2325 3066 2244 3367 
Q 2163 3669 2039 3770 
Q 1916 3872 1756 3872 
z
" transform="scale(0.015625)"/>
       </defs>
       <use xlink:href="#Arial-BoldMT-30"/>
      </g>
     </g>
    </g>
    <g id="xtick_2">
     <g id="line2d_2">
      <g>
       <use xlink:href="#m29a24ca776" x="1023.818007" y="198.907885" style="stroke: #000000; stroke-width: 2"/>
      </g>
     </g>
     <g id="text_2">
      <!-- 1 -->
      <g transform="translate(1018.813164 224.791947) scale(0.18 -0.18)">
       <defs>
        <path id="Arial-BoldMT-31" d="M 2519 0 
L 1641 0 
L 1641 3309 
Q 1159 2859 506 2644 
L 506 3441 
Q 850 3553 1253 3867 
Q 1656 4181 1806 4600 
L 2519 4600 
L 2519 0 
z
" transform="scale(0.015625)"/>
       </defs>
       <use xlink:href="#Arial-BoldMT-31"/>
      </g>
     </g>
    </g>
    <g id="xtick_3">
     <g id="line2d_3">
      <g>
       <use xlink:href="#m29a24ca776" x="916.363505" y="198.907885" style="stroke: #000000; stroke-width: 2"/>
      </g>
     </g>
     <g id="text_3">
      <!-- 2 -->
      <g transform="translate(911.358662 224.791947) scale(0.18 -0.18)">
       <defs>
        <path id="Arial-BoldMT-32" d="M 3238 816 
L 3238 0 
L 159 0 
Q 209 463 459 877 
Q 709 1291 1447 1975 
Q 2041 2528 2175 2725 
Q 2356 2997 2356 3263 
Q 2356 3556 2198 3714 
Q 2041 3872 1763 3872 
Q 1488 3872 1325 3706 
Q 1163 3541 1138 3156 
L 263 3244 
Q 341 3969 753 4284 
Q 1166 4600 1784 4600 
Q 2463 4600 2850 4234 
Q 3238 3869 3238 3325 
Q 3238 3016 3127 2736 
Q 3016 2456 2775 2150 
Q 2616 1947 2200 1565 
Q 1784 1184 1673 1059 
Q 1563 934 1494 816 
L 3238 816 
z
" transform="scale(0.015625)"/>
       </defs>
       <use xlink:href="#Arial-BoldMT-32"/>
      </g>
     </g>
    </g>
    <g id="xtick_4">
     <g id="line2d_4">
      <g>
       <use xlink:href="#m29a24ca776" x="808.909004" y="198.907885" style="stroke: #000000; stroke-width: 2"/>
      </g>
     </g>
     <g id="text_4">
      <!-- 3 -->
      <g transform="translate(803.90416 224.791947) scale(0.18 -0.18)">
       <defs>
        <path id="Arial-BoldMT-33" d="M 241 1216 
L 1091 1319 
Q 1131 994 1309 822 
Q 1488 650 1741 650 
Q 2013 650 2198 856 
Q 2384 1063 2384 1413 
Q 2384 1744 2206 1937 
Q 2028 2131 1772 2131 
Q 1603 2131 1369 2066 
L 1466 2781 
Q 1822 2772 2009 2936 
Q 2197 3100 2197 3372 
Q 2197 3603 2059 3740 
Q 1922 3878 1694 3878 
Q 1469 3878 1309 3722 
Q 1150 3566 1116 3266 
L 306 3403 
Q 391 3819 561 4067 
Q 731 4316 1036 4458 
Q 1341 4600 1719 4600 
Q 2366 4600 2756 4188 
Q 3078 3850 3078 3425 
Q 3078 2822 2419 2463 
Q 2813 2378 3048 2084 
Q 3284 1791 3284 1375 
Q 3284 772 2843 347 
Q 2403 -78 1747 -78 
Q 1125 -78 715 280 
Q 306 638 241 1216 
z
" transform="scale(0.015625)"/>
       </defs>
       <use xlink:href="#Arial-BoldMT-33"/>
      </g>
     </g>
    </g>
    <g id="xtick_5">
     <g id="line2d_5">
      <g>
       <use xlink:href="#m29a24ca776" x="701.454502" y="198.907885" style="stroke: #000000; stroke-width: 2"/>
      </g>
     </g>
     <g id="text_5">
      <!-- 4 -->
      <g transform="translate(696.449658 224.791947) scale(0.18 -0.18)">
       <defs>
        <path id="Arial-BoldMT-34" d="M 1994 0 
L 1994 922 
L 119 922 
L 119 1691 
L 2106 4600 
L 2844 4600 
L 2844 1694 
L 3413 1694 
L 3413 922 
L 2844 922 
L 2844 0 
L 1994 0 
z
M 1994 1694 
L 1994 3259 
L 941 1694 
L 1994 1694 
z
" transform="scale(0.015625)"/>
       </defs>
       <use xlink:href="#Arial-BoldMT-34"/>
      </g>
     </g>
    </g>
    <g id="xtick_6">
     <g id="line2d_6">
      <g>
       <use xlink:href="#m29a24ca776" x="594" y="198.907885" style="stroke: #000000; stroke-width: 2"/>
      </g>
     </g>
     <g id="text_6">
      <!-- 5 -->
      <g transform="translate(588.995156 224.791947) scale(0.18 -0.18)">
       <defs>
        <path id="Arial-BoldMT-35" d="M 284 1178 
L 1159 1269 
Q 1197 972 1381 798 
Q 1566 625 1806 625 
Q 2081 625 2272 848 
Q 2463 1072 2463 1522 
Q 2463 1944 2273 2155 
Q 2084 2366 1781 2366 
Q 1403 2366 1103 2031 
L 391 2134 
L 841 4519 
L 3163 4519 
L 3163 3697 
L 1506 3697 
L 1369 2919 
Q 1663 3066 1969 3066 
Q 2553 3066 2959 2641 
Q 3366 2216 3366 1538 
Q 3366 972 3038 528 
Q 2591 -78 1797 -78 
Q 1163 -78 763 262 
Q 363 603 284 1178 
z
" transform="scale(0.015625)"/>
       </defs>
       <use xlink:href="#Arial-BoldMT-35"/>
      </g>
     </g>
    </g>
    <g id="xtick_7">
     <g id="line2d_7">
      <g>
       <use xlink:href="#m29a24ca776" x="486.545498" y="198.907885" style="stroke: #000000; stroke-width: 2"/>
      </g>
     </g>
     <g id="text_7">
      <!-- 6 -->
      <g transform="translate(481.540654 224.791947) scale(0.18 -0.18)">
       <defs>
        <path id="Arial-BoldMT-36" d="M 3247 3459 
L 2397 3366 
Q 2366 3628 2234 3753 
Q 2103 3878 1894 3878 
Q 1616 3878 1423 3628 
Q 1231 3378 1181 2588 
Q 1509 2975 1997 2975 
Q 2547 2975 2939 2556 
Q 3331 2138 3331 1475 
Q 3331 772 2918 347 
Q 2506 -78 1859 -78 
Q 1166 -78 719 461 
Q 272 1000 272 2228 
Q 272 3488 737 4044 
Q 1203 4600 1947 4600 
Q 2469 4600 2811 4308 
Q 3153 4016 3247 3459 
z
M 1256 1544 
Q 1256 1116 1453 883 
Q 1650 650 1903 650 
Q 2147 650 2309 840 
Q 2472 1031 2472 1466 
Q 2472 1913 2297 2120 
Q 2122 2328 1859 2328 
Q 1606 2328 1431 2129 
Q 1256 1931 1256 1544 
z
" transform="scale(0.015625)"/>
       </defs>
       <use xlink:href="#Arial-BoldMT-36"/>
      </g>
     </g>
    </g>
    <g id="xtick_8">
     <g id="line2d_8">
      <g>
       <use xlink:href="#m29a24ca776" x="379.090996" y="198.907885" style="stroke: #000000; stroke-width: 2"/>
      </g>
     </g>
     <g id="text_8">
      <!-- 7 -->
      <g transform="translate(374.086153 224.791947) scale(0.18 -0.18)">
       <defs>
        <path id="Arial-BoldMT-37" d="M 272 3703 
L 272 4519 
L 3275 4519 
L 3275 3881 
Q 2903 3516 2518 2831 
Q 2134 2147 1932 1376 
Q 1731 606 1734 0 
L 888 0 
Q 909 950 1279 1937 
Q 1650 2925 2269 3703 
L 272 3703 
z
" transform="scale(0.015625)"/>
       </defs>
       <use xlink:href="#Arial-BoldMT-37"/>
      </g>
     </g>
    </g>
    <g id="xtick_9">
     <g id="line2d_9">
      <g>
       <use xlink:href="#m29a24ca776" x="271.636495" y="198.907885" style="stroke: #000000; stroke-width: 2"/>
      </g>
     </g>
     <g id="text_9">
      <!-- 8 -->
      <g transform="translate(266.631651 224.791947) scale(0.18 -0.18)">
       <defs>
        <path id="Arial-BoldMT-38" d="M 1025 2472 
Q 684 2616 529 2867 
Q 375 3119 375 3419 
Q 375 3931 733 4265 
Q 1091 4600 1750 4600 
Q 2403 4600 2764 4265 
Q 3125 3931 3125 3419 
Q 3125 3100 2959 2851 
Q 2794 2603 2494 2472 
Q 2875 2319 3073 2025 
Q 3272 1731 3272 1347 
Q 3272 713 2867 316 
Q 2463 -81 1791 -81 
Q 1166 -81 750 247 
Q 259 634 259 1309 
Q 259 1681 443 1992 
Q 628 2303 1025 2472 
z
M 1206 3356 
Q 1206 3094 1354 2947 
Q 1503 2800 1750 2800 
Q 2000 2800 2150 2948 
Q 2300 3097 2300 3359 
Q 2300 3606 2151 3754 
Q 2003 3903 1759 3903 
Q 1506 3903 1356 3753 
Q 1206 3603 1206 3356 
z
M 1125 1394 
Q 1125 1031 1311 828 
Q 1497 625 1775 625 
Q 2047 625 2225 820 
Q 2403 1016 2403 1384 
Q 2403 1706 2222 1901 
Q 2041 2097 1763 2097 
Q 1441 2097 1283 1875 
Q 1125 1653 1125 1394 
z
" transform="scale(0.015625)"/>
       </defs>
       <use xlink:href="#Arial-BoldMT-38"/>
      </g>
     </g>
    </g>
    <g id="xtick_10">
     <g id="line2d_10">
      <g>
       <use xlink:href="#m29a24ca776" x="164.181993" y="198.907885" style="stroke: #000000; stroke-width: 2"/>
      </g>
     </g>
     <g id="text_10">
      <!-- 9 -->
      <g transform="translate(159.177149 224.791947) scale(0.18 -0.18)">
       <defs>
        <path id="Arial-BoldMT-39" d="M 291 1059 
L 1141 1153 
Q 1172 894 1303 769 
Q 1434 644 1650 644 
Q 1922 644 2112 894 
Q 2303 1144 2356 1931 
Q 2025 1547 1528 1547 
Q 988 1547 595 1964 
Q 203 2381 203 3050 
Q 203 3747 617 4173 
Q 1031 4600 1672 4600 
Q 2369 4600 2816 4061 
Q 3263 3522 3263 2288 
Q 3263 1031 2797 475 
Q 2331 -81 1584 -81 
Q 1047 -81 715 205 
Q 384 491 291 1059 
z
M 2278 2978 
Q 2278 3403 2083 3637 
Q 1888 3872 1631 3872 
Q 1388 3872 1227 3680 
Q 1066 3488 1066 3050 
Q 1066 2606 1241 2398 
Q 1416 2191 1678 2191 
Q 1931 2191 2104 2391 
Q 2278 2591 2278 2978 
z
" transform="scale(0.015625)"/>
       </defs>
       <use xlink:href="#Arial-BoldMT-39"/>
      </g>
     </g>
    </g>
    <g id="xtick_11">
     <g id="line2d_11">
      <g>
       <use xlink:href="#m29a24ca776" x="56.727491" y="198.907885" style="stroke: #000000; stroke-width: 2"/>
      </g>
     </g>
     <g id="text_11">
      <!-- 10 -->
      <g transform="translate(46.717803 224.791947) scale(0.18 -0.18)">
       <use xlink:href="#Arial-BoldMT-31"/>
       <use xlink:href="#Arial-BoldMT-30" x="55.615234"/>
      </g>
     </g>
    </g>
    <g id="text_12">
     <!-- Chemical Shift / ppm -->
     <g transform="translate(504.992813 245.447573) scale(0.18 -0.18)">
      <defs>
       <path id="Arial-BoldMT-43" d="M 3397 1684 
L 4294 1400 
Q 4088 650 3608 286 
Q 3128 -78 2391 -78 
Q 1478 -78 890 545 
Q 303 1169 303 2250 
Q 303 3394 893 4026 
Q 1484 4659 2447 4659 
Q 3288 4659 3813 4163 
Q 4125 3869 4281 3319 
L 3366 3100 
Q 3284 3456 3026 3662 
Q 2769 3869 2400 3869 
Q 1891 3869 1573 3503 
Q 1256 3138 1256 2319 
Q 1256 1450 1568 1081 
Q 1881 713 2381 713 
Q 2750 713 3015 947 
Q 3281 1181 3397 1684 
z
" transform="scale(0.015625)"/>
       <path id="Arial-BoldMT-68" d="M 1334 4581 
L 1334 2897 
Q 1759 3394 2350 3394 
Q 2653 3394 2897 3281 
Q 3141 3169 3264 2994 
Q 3388 2819 3433 2606 
Q 3478 2394 3478 1947 
L 3478 0 
L 2600 0 
L 2600 1753 
Q 2600 2275 2550 2415 
Q 2500 2556 2373 2639 
Q 2247 2722 2056 2722 
Q 1838 2722 1666 2615 
Q 1494 2509 1414 2295 
Q 1334 2081 1334 1663 
L 1334 0 
L 456 0 
L 456 4581 
L 1334 4581 
z
" transform="scale(0.015625)"/>
       <path id="Arial-BoldMT-65" d="M 2381 1056 
L 3256 909 
Q 3088 428 2723 176 
Q 2359 -75 1813 -75 
Q 947 -75 531 491 
Q 203 944 203 1634 
Q 203 2459 634 2926 
Q 1066 3394 1725 3394 
Q 2466 3394 2894 2905 
Q 3322 2416 3303 1406 
L 1103 1406 
Q 1113 1016 1316 798 
Q 1519 581 1822 581 
Q 2028 581 2168 693 
Q 2309 806 2381 1056 
z
M 2431 1944 
Q 2422 2325 2234 2523 
Q 2047 2722 1778 2722 
Q 1491 2722 1303 2513 
Q 1116 2303 1119 1944 
L 2431 1944 
z
" transform="scale(0.015625)"/>
       <path id="Arial-BoldMT-6d" d="M 394 3319 
L 1203 3319 
L 1203 2866 
Q 1638 3394 2238 3394 
Q 2556 3394 2790 3262 
Q 3025 3131 3175 2866 
Q 3394 3131 3647 3262 
Q 3900 3394 4188 3394 
Q 4553 3394 4806 3245 
Q 5059 3097 5184 2809 
Q 5275 2597 5275 2122 
L 5275 0 
L 4397 0 
L 4397 1897 
Q 4397 2391 4306 2534 
Q 4184 2722 3931 2722 
Q 3747 2722 3584 2609 
Q 3422 2497 3350 2280 
Q 3278 2063 3278 1594 
L 3278 0 
L 2400 0 
L 2400 1819 
Q 2400 2303 2353 2443 
Q 2306 2584 2207 2653 
Q 2109 2722 1941 2722 
Q 1738 2722 1575 2612 
Q 1413 2503 1342 2297 
Q 1272 2091 1272 1613 
L 1272 0 
L 394 0 
L 394 3319 
z
" transform="scale(0.015625)"/>
       <path id="Arial-BoldMT-69" d="M 459 3769 
L 459 4581 
L 1338 4581 
L 1338 3769 
L 459 3769 
z
M 459 0 
L 459 3319 
L 1338 3319 
L 1338 0 
L 459 0 
z
" transform="scale(0.015625)"/>
       <path id="Arial-BoldMT-63" d="M 3353 2338 
L 2488 2181 
Q 2444 2441 2289 2572 
Q 2134 2703 1888 2703 
Q 1559 2703 1364 2476 
Q 1169 2250 1169 1719 
Q 1169 1128 1367 884 
Q 1566 641 1900 641 
Q 2150 641 2309 783 
Q 2469 925 2534 1272 
L 3397 1125 
Q 3263 531 2881 228 
Q 2500 -75 1859 -75 
Q 1131 -75 698 384 
Q 266 844 266 1656 
Q 266 2478 700 2936 
Q 1134 3394 1875 3394 
Q 2481 3394 2839 3133 
Q 3197 2872 3353 2338 
z
" transform="scale(0.015625)"/>
       <path id="Arial-BoldMT-61" d="M 1116 2306 
L 319 2450 
Q 453 2931 781 3162 
Q 1109 3394 1756 3394 
Q 2344 3394 2631 3255 
Q 2919 3116 3036 2902 
Q 3153 2688 3153 2116 
L 3144 1091 
Q 3144 653 3186 445 
Q 3228 238 3344 0 
L 2475 0 
Q 2441 88 2391 259 
Q 2369 338 2359 363 
Q 2134 144 1878 34 
Q 1622 -75 1331 -75 
Q 819 -75 523 203 
Q 228 481 228 906 
Q 228 1188 362 1408 
Q 497 1628 739 1745 
Q 981 1863 1438 1950 
Q 2053 2066 2291 2166 
L 2291 2253 
Q 2291 2506 2166 2614 
Q 2041 2722 1694 2722 
Q 1459 2722 1328 2630 
Q 1197 2538 1116 2306 
z
M 2291 1594 
Q 2122 1538 1756 1459 
Q 1391 1381 1278 1306 
Q 1106 1184 1106 997 
Q 1106 813 1243 678 
Q 1381 544 1594 544 
Q 1831 544 2047 700 
Q 2206 819 2256 991 
Q 2291 1103 2291 1419 
L 2291 1594 
z
" transform="scale(0.015625)"/>
       <path id="Arial-BoldMT-6c" d="M 459 0 
L 459 4581 
L 1338 4581 
L 1338 0 
L 459 0 
z
" transform="scale(0.015625)"/>
       <path id="Arial-BoldMT-20" transform="scale(0.015625)"/>
       <path id="Arial-BoldMT-53" d="M 231 1491 
L 1131 1578 
Q 1213 1125 1461 912 
Q 1709 700 2131 700 
Q 2578 700 2804 889 
Q 3031 1078 3031 1331 
Q 3031 1494 2936 1608 
Q 2841 1722 2603 1806 
Q 2441 1863 1863 2006 
Q 1119 2191 819 2459 
Q 397 2838 397 3381 
Q 397 3731 595 4036 
Q 794 4341 1167 4500 
Q 1541 4659 2069 4659 
Q 2931 4659 3367 4281 
Q 3803 3903 3825 3272 
L 2900 3231 
Q 2841 3584 2645 3739 
Q 2450 3894 2059 3894 
Q 1656 3894 1428 3728 
Q 1281 3622 1281 3444 
Q 1281 3281 1419 3166 
Q 1594 3019 2269 2859 
Q 2944 2700 3267 2529 
Q 3591 2359 3773 2064 
Q 3956 1769 3956 1334 
Q 3956 941 3737 597 
Q 3519 253 3119 86 
Q 2719 -81 2122 -81 
Q 1253 -81 787 320 
Q 322 722 231 1491 
z
" transform="scale(0.015625)"/>
       <path id="Arial-BoldMT-66" d="M 75 3319 
L 563 3319 
L 563 3569 
Q 563 3988 652 4194 
Q 741 4400 980 4529 
Q 1219 4659 1584 4659 
Q 1959 4659 2319 4547 
L 2200 3934 
Q 1991 3984 1797 3984 
Q 1606 3984 1523 3895 
Q 1441 3806 1441 3553 
L 1441 3319 
L 2097 3319 
L 2097 2628 
L 1441 2628 
L 1441 0 
L 563 0 
L 563 2628 
L 75 2628 
L 75 3319 
z
" transform="scale(0.015625)"/>
       <path id="Arial-BoldMT-74" d="M 1981 3319 
L 1981 2619 
L 1381 2619 
L 1381 1281 
Q 1381 875 1398 808 
Q 1416 741 1477 697 
Q 1538 653 1625 653 
Q 1747 653 1978 738 
L 2053 56 
Q 1747 -75 1359 -75 
Q 1122 -75 931 4 
Q 741 84 652 211 
Q 563 338 528 553 
Q 500 706 500 1172 
L 500 2619 
L 97 2619 
L 97 3319 
L 500 3319 
L 500 3978 
L 1381 4491 
L 1381 3319 
L 1981 3319 
z
" transform="scale(0.015625)"/>
       <path id="Arial-BoldMT-2f" d="M -9 -78 
L 1125 4659 
L 1784 4659 
L 638 -78 
L -9 -78 
z
" transform="scale(0.015625)"/>
       <path id="Arial-BoldMT-70" d="M 434 3319 
L 1253 3319 
L 1253 2831 
Q 1413 3081 1684 3237 
Q 1956 3394 2288 3394 
Q 2866 3394 3269 2941 
Q 3672 2488 3672 1678 
Q 3672 847 3265 386 
Q 2859 -75 2281 -75 
Q 2006 -75 1782 34 
Q 1559 144 1313 409 
L 1313 -1263 
L 434 -1263 
L 434 3319 
z
M 1303 1716 
Q 1303 1156 1525 889 
Q 1747 622 2066 622 
Q 2372 622 2575 867 
Q 2778 1113 2778 1672 
Q 2778 2194 2568 2447 
Q 2359 2700 2050 2700 
Q 1728 2700 1515 2451 
Q 1303 2203 1303 1716 
z
" transform="scale(0.015625)"/>
      </defs>
      <use xlink:href="#Arial-BoldMT-43"/>
      <use xlink:href="#Arial-BoldMT-68" x="72.216797"/>
      <use xlink:href="#Arial-BoldMT-65" x="133.300781"/>
      <use xlink:href="#Arial-BoldMT-6d" x="188.916016"/>
      <use xlink:href="#Arial-BoldMT-69" x="277.832031"/>
      <use xlink:href="#Arial-BoldMT-63" x="305.615234"/>
      <use xlink:href="#Arial-BoldMT-61" x="361.230469"/>
      <use xlink:href="#Arial-BoldMT-6c" x="416.845703"/>
      <use xlink:href="#Arial-BoldMT-20" x="444.628906"/>
      <use xlink:href="#Arial-BoldMT-53" x="472.412109"/>
      <use xlink:href="#Arial-BoldMT-68" x="539.111328"/>
      <use xlink:href="#Arial-BoldMT-69" x="600.195312"/>
      <use xlink:href="#Arial-BoldMT-66" x="627.978516"/>
      <use xlink:href="#Arial-BoldMT-74" x="661.279297"/>
      <use xlink:href="#Arial-BoldMT-20" x="694.580078"/>
      <use xlink:href="#Arial-BoldMT-2f" x="722.363281"/>
      <use xlink:href="#Arial-BoldMT-20" x="750.146484"/>
      <use xlink:href="#Arial-BoldMT-70" x="777.929688"/>
      <use xlink:href="#Arial-BoldMT-70" x="839.013672"/>
      <use xlink:href="#Arial-BoldMT-6d" x="900.097656"/>
     </g>
    </g>
   </g>
   <g id="matplotlib.axis_2"/>
   <g id="line2d_12">
    <path d="M 3.007027 189.768264 
L 3.262801 189.84156 
L 3.518576 189.896615 
L 3.723196 189.926561 
L 4.439365 189.645146 
L 5.155534 189.707147 
L 5.411308 190.064114 
L 5.615928 189.903966 
L 6.280942 189.402384 
L 6.485562 189.586337 
L 6.639027 189.635894 
L 6.945956 189.551019 
L 7.201731 189.513247 
L 7.81559 189.320899 
L 8.173675 189.635944 
L 8.685224 189.69595 
L 9.196773 189.696201 
L 9.503703 189.35907 
L 10.577956 189.671793 
L 11.498745 189.376219 
L 11.95914 189.565531 
L 12.163759 189.587236 
L 12.470689 189.754313 
L 13.033393 189.506591 
L 13.851872 189.748122 
L 14.261111 189.498135 
L 15.028435 189.557616 
L 15.38652 189.525494 
L 15.59114 189.507317 
L 16.000379 189.892066 
L 16.307309 190.181008 
L 16.358464 190.116752 
L 16.767703 189.555372 
L 17.125788 189.332576 
L 17.586182 189.661701 
L 17.944267 190.028162 
L 18.200041 189.863881 
L 18.506971 189.663147 
L 18.8139 189.695638 
L 19.01852 189.746945 
L 19.22314 189.745139 
L 19.376605 189.768443 
L 19.683534 190.015597 
L 20.041619 189.709051 
L 20.348548 189.619168 
L 20.604323 189.548074 
L 21.064717 189.878706 
L 21.371647 189.825563 
L 21.678577 189.47333 
L 22.087816 189.710608 
L 22.445901 189.938818 
L 23.417844 189.534567 
L 23.673619 189.712042 
L 24.134013 189.902602 
L 24.696718 190.040481 
L 25.259422 189.554451 
L 25.873281 189.936722 
L 26.38483 189.621033 
L 26.845225 189.381447 
L 27.049844 189.285179 
L 27.663704 189.648604 
L 27.868323 189.789742 
L 28.072943 189.581299 
L 28.328718 189.393417 
L 29.044887 189.475822 
L 29.709901 189.501208 
L 30.170295 189.771931 
L 30.681845 189.443152 
L 31.091084 189.776477 
L 31.500323 189.702311 
L 31.960718 190.137926 
L 32.267647 189.817528 
L 32.523422 189.689272 
L 33.137281 189.669948 
L 33.546521 189.648288 
L 33.85345 189.450303 
L 34.671929 189.886554 
L 34.978859 189.702978 
L 35.388098 189.437026 
L 35.643873 189.496379 
L 35.797338 189.456149 
L 36.104267 189.241391 
L 36.513507 189.445868 
L 36.769281 189.463847 
L 37.076211 189.286159 
L 37.434296 189.478789 
L 37.638915 189.518843 
L 38.048155 189.783337 
L 38.252774 189.772029 
L 38.662014 189.281417 
L 38.866634 189.320927 
L 39.071253 189.260508 
L 39.327028 189.381268 
L 39.685113 189.23102 
L 39.940887 189.499221 
L 40.401282 190.040123 
L 40.554746 189.957891 
L 41.015141 189.569438 
L 41.270915 189.517272 
L 41.629 189.728023 
L 41.83362 189.672903 
L 42.140549 189.999338 
L 42.191704 189.945346 
L 42.549789 189.51526 
L 42.907873 189.664358 
L 43.112493 189.876521 
L 43.265958 189.654219 
L 43.521732 189.262766 
L 43.726352 189.375787 
L 43.982127 189.525287 
L 44.442521 189.487812 
L 45.261 189.488487 
L 45.516775 189.510833 
L 45.823704 189.747478 
L 46.181789 189.498969 
L 46.488718 189.624468 
L 46.846803 189.530495 
L 47.102578 189.321971 
L 47.511817 189.50269 
L 47.767592 189.335493 
L 48.279141 189.479132 
L 48.739535 189.179984 
L 49.046465 189.312968 
L 49.506859 189.216217 
L 49.813789 189.292466 
L 50.171874 189.496993 
L 51.041507 189.40384 
L 51.399592 188.907173 
L 51.706522 188.930808 
L 51.962296 188.848182 
L 53.03655 188.311728 
L 53.496944 188.446624 
L 53.701564 188.232314 
L 54.059648 187.816693 
L 54.315423 187.819339 
L 54.571198 187.814346 
L 54.826972 187.520768 
L 55.185057 186.755774 
L 55.440832 185.722208 
L 56.003536 182.157807 
L 56.46393 176.469936 
L 57.026634 168.26214 
L 57.128944 168.138969 
L 57.333564 168.545319 
L 57.640494 169.449186 
L 57.845113 171.396136 
L 58.868212 184.798805 
L 59.277451 186.64961 
L 59.737846 187.758107 
L 60.19824 188.573013 
L 61.221339 188.628986 
L 61.374804 188.630351 
L 61.732888 188.906229 
L 61.937508 189.002254 
L 62.449057 189.35238 
L 62.858297 189.466182 
L 63.165226 189.201641 
L 63.523311 189.313797 
L 64.290635 188.958256 
L 64.955649 189.575076 
L 65.160269 189.425249 
L 65.416043 189.307397 
L 65.978747 189.481273 
L 66.643762 189.28113 
L 66.950691 189.270628 
L 67.257621 189.063491 
L 67.615705 189.348166 
L 67.922635 189.605354 
L 68.485339 189.391859 
L 69.150353 189.485836 
L 69.406128 189.533375 
L 69.661903 189.545755 
L 70.224607 189.874598 
L 70.787311 189.834879 
L 70.940776 189.832356 
L 71.29886 189.593995 
L 71.656945 189.72852 
L 71.861565 189.761496 
L 72.270804 190.009187 
L 72.884663 189.782419 
L 73.140438 189.734115 
L 73.396213 189.555163 
L 73.805452 189.833165 
L 74.419311 189.173847 
L 74.470466 189.243813 
L 74.777396 189.635484 
L 75.084325 189.457327 
L 75.493565 189.232373 
L 76.516663 189.708718 
L 76.977058 189.492149 
L 77.232832 189.635799 
L 77.488607 189.712835 
L 77.744382 189.769205 
L 78.358241 189.628565 
L 78.614016 189.76652 
L 78.818635 189.554636 
L 79.07441 189.281238 
L 79.483649 189.418506 
L 80.046354 189.684343 
L 80.711368 189.433044 
L 80.967142 189.252038 
L 81.222917 189.177564 
L 81.683311 188.895052 
L 82.041396 189.265919 
L 82.297171 189.275383 
L 82.655255 189.504872 
L 83.576044 189.518974 
L 83.780664 189.450844 
L 84.343368 189.723864 
L 84.547988 190.012751 
L 84.701452 189.878243 
L 84.906072 189.780187 
L 85.161847 189.911658 
L 85.366467 189.633614 
L 85.673396 189.281797 
L 86.2361 189.446097 
L 86.798805 189.146301 
L 87.310354 189.272631 
L 87.668438 189.289784 
L 87.873058 189.237721 
L 88.333453 189.467366 
L 88.845002 189.614857 
L 88.998467 189.64922 
L 89.305396 189.326076 
L 89.510016 189.184569 
L 90.07272 189.586878 
L 90.27734 189.535195 
L 90.48196 189.485199 
L 90.686579 189.467606 
L 90.942354 189.334449 
L 91.249284 189.6092 
L 91.556213 189.880185 
L 92.016608 189.611097 
L 92.272382 189.420418 
L 92.732777 189.419327 
L 92.886242 189.430543 
L 93.193171 189.31539 
L 93.500101 189.446158 
L 93.80703 189.649184 
L 94.062805 189.794409 
L 94.369735 189.997083 
L 94.932439 189.828915 
L 95.392833 189.409818 
L 95.648608 189.456353 
L 96.313622 189.895929 
L 96.569397 189.852204 
L 96.876326 190.073418 
L 97.234411 189.798595 
L 98.973678 189.389055 
L 99.638693 189.340025 
L 99.945622 189.386551 
L 100.150242 189.42828 
L 100.764101 189.698261 
L 101.429115 189.203145 
L 102.094129 189.752532 
L 102.247594 189.674991 
L 102.452214 189.609283 
L 103.014918 190.015477 
L 103.168383 189.904178 
L 103.424157 189.628523 
L 103.935707 189.602485 
L 104.191481 189.544471 
L 104.549566 189.797802 
L 105.061115 189.454771 
L 105.21458 189.460631 
L 105.62382 189.749816 
L 106.084214 189.473885 
L 106.339989 189.543715 
L 106.902693 189.257271 
L 107.056158 189.439879 
L 107.311932 189.739398 
L 107.670017 189.697781 
L 107.874637 189.652251 
L 108.335031 189.182607 
L 108.386186 189.235789 
L 108.693115 189.608761 
L 109.0512 189.544533 
L 109.306975 189.84753 
L 109.869679 189.657744 
L 110.023144 189.80534 
L 110.278918 190.138412 
L 110.483538 189.888377 
L 110.943932 189.415914 
L 111.302017 189.425573 
L 111.762411 189.101971 
L 112.836665 189.973199 
L 112.99013 189.812703 
L 113.245904 189.505896 
L 113.808609 189.591288 
L 114.371313 189.755284 
L 114.627087 189.590917 
L 114.934017 189.832465 
L 115.292102 189.714858 
L 115.650186 189.805946 
L 116.3152 189.171519 
L 116.468665 189.245309 
L 116.877904 189.768805 
L 116.929059 189.731054 
L 117.235989 189.597528 
L 117.594074 189.51131 
L 118.003313 189.315541 
L 118.361398 189.476428 
L 118.872947 189.666496 
L 119.077567 189.727732 
L 119.384496 189.697561 
L 119.793736 189.706101 
L 119.998355 189.501269 
L 120.305285 189.214604 
L 120.509905 189.400129 
L 120.765679 189.614363 
L 121.277229 189.453185 
L 121.635313 189.624393 
L 121.942243 189.721378 
L 122.709567 190.094255 
L 123.272271 189.64727 
L 123.528046 189.627134 
L 123.937285 189.656217 
L 124.09075 189.526688 
L 124.346525 189.331725 
L 124.909229 189.889926 
L 125.062694 189.630519 
L 125.318468 189.288285 
L 125.625398 189.327458 
L 125.932327 189.237489 
L 126.239257 189.474717 
L 126.546187 189.594335 
L 126.801961 189.727573 
L 127.211201 190.030844 
L 127.41582 189.965111 
L 127.72275 189.765242 
L 127.978525 189.718944 
L 128.285454 189.701847 
L 128.797004 189.653186 
L 129.052778 189.456091 
L 129.410863 189.454693 
L 129.615482 189.542359 
L 130.024722 189.829889 
L 130.433961 189.703773 
L 130.740891 189.708266 
L 131.15013 189.482685 
L 131.405905 189.186076 
L 131.55937 189.374121 
L 131.76399 189.543299 
L 132.019764 189.495606 
L 132.429004 189.710605 
L 132.787088 189.614226 
L 133.247483 190.027196 
L 133.452102 190.160242 
L 134.219426 189.738564 
L 135.19137 189.536601 
L 135.39599 189.413101 
L 135.805229 189.583582 
L 136.367933 190.002695 
L 136.572553 189.958946 
L 136.777173 189.952834 
L 137.288722 190.166552 
L 137.953736 189.731255 
L 138.362976 189.906885 
L 138.772215 189.813414 
L 139.1303 189.996329 
L 139.641849 189.575782 
L 140.102243 189.497379 
L 141.227652 189.283786 
L 141.483427 189.368807 
L 141.688046 189.461039 
L 142.046131 189.813367 
L 142.404215 189.526127 
L 142.65999 189.35557 
L 142.915765 189.595273 
L 143.120384 189.653058 
L 143.683089 189.401711 
L 143.990018 189.574049 
L 144.296948 189.661361 
L 144.961962 189.466858 
L 145.473511 189.751318 
L 145.831596 189.560008 
L 146.036216 189.38611 
L 146.240835 189.533076 
L 146.49661 189.725179 
L 146.650075 189.567822 
L 146.854694 189.433446 
L 147.263934 189.819724 
L 147.519709 189.74133 
L 147.724328 189.723594 
L 148.287033 189.358707 
L 148.900892 189.245181 
L 149.310131 189.363225 
L 149.770526 189.231653 
L 150.384385 189.697399 
L 150.53785 189.695342 
L 150.895934 190.169697 
L 150.947089 190.127644 
L 151.560948 189.511456 
L 152.174807 189.604673 
L 152.379427 189.531753 
L 152.788667 189.672831 
L 153.249061 189.379778 
L 153.555991 189.598153 
L 153.86292 189.642533 
L 154.374469 189.965298 
L 155.090638 189.442123 
L 155.295258 189.509488 
L 155.755653 189.805564 
L 155.960272 189.758546 
L 156.420667 189.436329 
L 157.546075 190.063123 
L 157.750695 189.649282 
L 157.955315 189.4759 
L 158.364554 189.684145 
L 159.438808 189.673169 
L 159.796892 190.024517 
L 160.052667 189.514171 
L 160.308441 189.269034 
L 160.666526 189.2796 
L 160.973456 189.451974 
L 161.33154 189.28723 
L 161.63847 189.456222 
L 162.303484 189.486843 
L 163.121963 189.720669 
L 163.531202 189.544957 
L 163.786977 189.48787 
L 164.145061 189.496779 
L 164.400836 189.499502 
L 164.96354 189.796976 
L 165.47509 189.673213 
L 165.730864 189.701931 
L 166.395878 189.513535 
L 166.958583 189.807777 
L 167.265512 189.850803 
L 167.777062 189.825714 
L 168.135146 189.422866 
L 168.390921 189.555707 
L 168.646695 189.623168 
L 168.851315 189.657699 
L 169.158245 190.006703 
L 169.874414 189.507917 
L 170.232498 189.535982 
L 170.590583 189.437356 
L 170.744048 189.412149 
L 171.357907 189.78684 
L 171.511372 189.573586 
L 171.767146 189.237807 
L 172.176386 189.468837 
L 172.53447 189.09246 
L 172.73909 189.182043 
L 173.250639 189.748901 
L 173.404104 189.763631 
L 173.711034 190.034726 
L 174.120273 189.874235 
L 174.427203 189.83475 
L 174.631822 189.828549 
L 174.887597 189.772436 
L 175.245682 189.956267 
L 175.603766 189.841005 
L 175.859541 189.992992 
L 176.16647 189.723119 
L 176.422245 189.73925 
L 176.882639 189.491652 
L 177.087259 189.621739 
L 177.291879 189.645218 
L 177.496499 189.662661 
L 178.059203 190.147328 
L 178.212668 190.000775 
L 178.673062 189.469892 
L 178.826527 189.497646 
L 179.133456 189.660099 
L 179.645006 189.562126 
L 180.00309 189.388728 
L 180.41233 189.162415 
L 180.923879 189.193212 
L 182.049287 189.288263 
L 182.407372 189.136377 
L 182.663147 189.275584 
L 183.123541 189.634429 
L 183.328161 189.639977 
L 183.686245 189.855696 
L 183.993175 189.681103 
L 184.351259 189.811249 
L 184.658189 189.636586 
L 184.965119 189.830586 
L 185.630133 189.540561 
L 185.834752 189.664905 
L 186.243992 189.360518 
L 186.653231 188.935932 
L 187.318245 189.030503 
L 187.67633 188.991674 
L 188.136724 189.137641 
L 188.801738 189.250715 
L 189.159823 189.525415 
L 189.364443 189.274192 
L 189.671372 188.998545 
L 190.029457 188.827033 
L 190.438696 188.557398 
L 190.745626 188.705877 
L 191.10371 188.122514 
L 191.154865 188.178582 
L 191.51295 188.633259 
L 191.666415 188.582189 
L 193.201063 186.583299 
L 193.661457 185.666876 
L 194.224161 184.248371 
L 194.531091 183.339618 
L 195.093795 180.491726 
L 195.605344 175.990583 
L 195.912274 171.356548 
L 196.526133 157.316038 
L 197.242302 139.552511 
L 197.498077 137.455039 
L 197.549232 137.426001 
L 197.651542 137.780779 
L 197.805006 139.380424 
L 198.060781 144.809849 
L 198.98157 167.76298 
L 199.339654 171.674509 
L 199.800049 174.243405 
L 200.260443 176.093794 
L 200.669683 176.63058 
L 202.204331 179.041768 
L 202.51126 180.004204 
L 202.869345 180.492611 
L 203.841288 182.822462 
L 204.199373 183.547081 
L 205.427091 186.851321 
L 205.836331 187.202181 
L 206.45019 187.969274 
L 206.705965 187.956648 
L 207.115204 188.288531 
L 207.575598 188.375541 
L 208.189458 188.175029 
L 208.547542 187.970335 
L 209.672951 188.440369 
L 210.08219 188.26063 
L 210.235655 188.212382 
L 211.872613 185.601947 
L 212.639937 183.088729 
L 212.946866 181.459333 
L 214.890754 168.338785 
L 215.197683 167.197883 
L 215.606923 165.816843 
L 216.220782 163.864571 
L 216.578866 163.01147 
L 216.783486 162.911432 
L 217.192726 163.185069 
L 217.397345 163.854027 
L 218.266979 168.357107 
L 220.262021 182.397117 
L 220.97819 184.860776 
L 221.898979 186.915514 
L 222.205909 187.345715 
L 223.996331 188.777058 
L 224.661346 189.126851 
L 224.865965 189.268082 
L 225.12174 188.913351 
L 225.32636 188.857529 
L 225.940219 189.007417 
L 226.144839 188.96287 
L 226.963317 189.339263 
L 227.167937 189.297462 
L 227.832951 189.756665 
L 227.986416 189.676012 
L 228.344501 189.265685 
L 228.702585 189.103068 
L 229.06067 188.819342 
L 229.418754 188.948346 
L 229.572219 189.034173 
L 230.032613 189.531963 
L 230.390698 189.448782 
L 230.646473 189.347613 
L 230.902247 189.312962 
L 231.158022 189.192517 
L 231.567261 189.264915 
L 231.823036 189.180316 
L 232.539205 189.432436 
L 233.101909 188.993893 
L 233.306529 189.363281 
L 233.562304 189.721517 
L 233.766923 189.719977 
L 234.022698 189.691664 
L 234.278473 189.786974 
L 234.790022 189.393171 
L 235.096952 189.540667 
L 235.301571 189.429318 
L 235.659656 189.126338 
L 236.22236 189.205037 
L 236.478135 189.193687 
L 236.887374 189.489654 
L 237.398924 189.30824 
L 237.910473 189.252978 
L 238.166248 189.300537 
L 238.524332 189.306822 
L 238.780107 189.479947 
L 239.138191 189.766975 
L 239.85436 189.96376 
L 240.05898 189.730688 
L 240.519374 189.150998 
L 240.672839 189.218997 
L 240.928614 189.408948 
L 241.133234 189.469188 
L 241.389008 189.62926 
L 242.258642 189.403888 
L 242.565572 189.581152 
L 242.872501 189.534229 
L 243.179431 189.562168 
L 243.48636 189.412724 
L 243.742135 189.313294 
L 244.202529 189.382884 
L 244.509459 189.746448 
L 244.969853 189.811826 
L 245.123318 189.769062 
L 245.379093 189.601257 
L 245.788332 189.860683 
L 246.555656 189.252836 
L 246.760276 189.388792 
L 247.118361 189.694675 
L 247.62991 189.761025 
L 247.783375 189.681753 
L 248.039149 189.542141 
L 248.448389 189.843525 
L 248.755318 189.69009 
L 249.011093 189.829808 
L 249.369178 189.627488 
L 249.676107 189.847714 
L 250.085347 189.66843 
L 251.56884 189.126159 
L 252.029234 189.29274 
L 252.847713 189.485467 
L 253.154643 189.626545 
L 253.359262 189.496957 
L 253.563882 189.354889 
L 253.768502 189.781077 
L 253.921967 189.947026 
L 254.177741 189.689308 
L 254.586981 189.427574 
L 255.30315 189.279977 
L 255.610079 189.330101 
L 256.121629 189.164266 
L 256.479713 189.448229 
L 257.042417 189.359128 
L 257.298192 189.591508 
L 257.605122 189.763874 
L 258.270136 189.544608 
L 258.52591 189.444712 
L 259.395544 189.748117 
L 259.651319 189.693346 
L 259.907094 189.679948 
L 260.879037 189.258192 
L 261.185967 189.252652 
L 261.492896 189.225385 
L 261.748671 189.220278 
L 262.36253 188.956685 
L 262.720615 189.309415 
L 262.925234 189.167503 
L 263.283319 188.881014 
L 263.641404 189.23743 
L 263.897178 189.380607 
L 264.152953 189.198889 
L 264.511037 188.863515 
L 265.022587 189.406534 
L 265.380671 189.44116 
L 265.636446 189.470907 
L 265.841066 189.485598 
L 266.30146 189.239331 
L 266.915319 189.401725 
L 267.222249 189.417976 
L 267.682643 189.559908 
L 268.245347 188.784252 
L 268.398812 188.814996 
L 268.654587 188.904493 
L 269.677685 188.037335 
L 269.882305 188.212047 
L 270.13808 188.37551 
L 270.547319 188.196126 
L 270.700784 188.155541 
L 271.416953 187.281653 
L 271.775038 186.55596 
L 272.081967 186.210618 
L 272.388897 185.725657 
L 272.542362 185.838408 
L 272.849291 186.05263 
L 273.156221 186.290603 
L 273.411995 186.432538 
L 273.616615 186.463982 
L 273.9747 186.720288 
L 274.281629 186.669263 
L 274.997798 186.550755 
L 275.202418 186.619734 
L 275.765122 186.401693 
L 275.969742 186.461345 
L 276.276672 186.565215 
L 276.430136 186.355097 
L 277.40208 183.816881 
L 278.783263 179.114528 
L 279.294813 178.43429 
L 279.601742 178.38346 
L 280.113292 178.508387 
L 280.369066 177.872243 
L 280.675996 176.448416 
L 281.2387 172.251983 
L 282.773348 159.248355 
L 283.336052 157.022868 
L 283.591827 156.570396 
L 284.256841 155.78857 
L 284.461461 155.039866 
L 284.76839 152.585546 
L 285.893799 140.534412 
L 287.121517 121.391103 
L 287.223827 121.459197 
L 287.633066 122.45668 
L 287.684221 122.383501 
L 287.837686 121.795879 
L 288.144616 119.209485 
L 288.451545 117.119364 
L 288.5027 117.089717 
L 288.60501 117.463501 
L 288.80963 119.811873 
L 289.730419 132.461322 
L 290.088503 136.057647 
L 290.446588 142.932399 
L 290.958137 152.783503 
L 291.367377 156.842473 
L 291.776616 159.036608 
L 292.390475 160.011346 
L 292.74856 159.687024 
L 292.902024 160.252115 
L 293.157799 162.715305 
L 293.976278 171.611517 
L 294.283208 172.897683 
L 295.101687 174.802186 
L 296.17594 179.051324 
L 296.636334 180.138073 
L 297.045574 180.501874 
L 297.403658 181.38798 
L 297.608278 181.434319 
L 297.812898 181.942105 
L 298.324447 183.388977 
L 298.784842 183.823905 
L 299.756785 186.284249 
L 300.01256 186.456734 
L 300.677574 186.421307 
L 301.444898 187.338433 
L 301.905292 187.50299 
L 302.365687 187.192143 
L 302.672616 187.203613 
L 304.0538 187.975353 
L 304.565349 187.964078 
L 305.025743 188.423052 
L 305.486138 188.539046 
L 305.690757 188.482408 
L 306.662701 189.025323 
L 307.020786 188.82103 
L 307.327715 188.947665 
L 308.146194 189.167534 
L 308.504279 189.179526 
L 308.708898 189.254974 
L 308.913518 189.344496 
L 309.425067 189.05223 
L 309.834307 189.228743 
L 310.141236 189.031003 
L 310.448166 188.988682 
L 310.806251 188.927401 
L 311.266645 189.115035 
L 311.675884 189.528848 
L 311.880504 189.435846 
L 312.443208 188.76924 
L 313.210532 188.74813 
L 313.670927 188.599378 
L 313.875546 188.722508 
L 314.233631 189.239959 
L 314.540561 189.029507 
L 315.25673 189.310621 
L 315.717124 188.76816 
L 315.921744 188.89146 
L 316.075209 188.918813 
L 316.433293 188.784389 
L 316.740223 188.85581 
L 317.251772 188.868623 
L 317.558702 189.334103 
L 317.609856 189.29152 
L 318.37718 188.244022 
L 318.5818 188.4373 
L 318.88873 188.752403 
L 319.042195 188.512332 
L 319.297969 188.202698 
L 319.553744 188.16033 
L 320.525688 187.057794 
L 320.781462 186.734362 
L 321.293012 185.914899 
L 321.344166 185.948554 
L 322.52073 187.118565 
L 323.083434 187.158636 
L 323.288054 187.222926 
L 323.543829 186.92767 
L 323.901913 186.295719 
L 324.208843 185.253426 
L 324.925012 182.738742 
L 325.129631 182.508076 
L 325.283096 182.580568 
L 325.538871 183.188432 
L 326.15273 184.653095 
L 327.226984 185.212021 
L 327.380448 185.024543 
L 328.403547 182.862374 
L 328.966251 181.059904 
L 329.273181 180.701375 
L 329.426646 180.668231 
L 330.142815 181.766709 
L 330.347434 181.875879 
L 330.552054 181.623979 
L 330.910139 181.145374 
L 331.063604 180.97761 
L 331.268223 180.299811 
L 331.575153 178.399415 
L 332.495942 172.118257 
L 333.160956 168.67822 
L 333.31442 168.604346 
L 333.467885 168.748259 
L 333.672505 169.360437 
L 334.388674 172.436311 
L 334.542139 172.543122 
L 334.900223 172.378543 
L 335.411773 172.845167 
L 335.565237 172.689039 
L 335.769857 171.983381 
L 336.076787 169.669256 
L 336.434871 165.499333 
L 337.048731 158.246493 
L 337.35566 156.857619 
L 337.611435 156.03906 
L 337.867209 153.988757 
L 338.839153 145.073464 
L 339.094928 142.930898 
L 339.555322 136.411926 
L 340.936505 115.700446 
L 341.08997 115.307085 
L 341.19228 115.735977 
L 341.448055 118.751473 
L 342.113069 126.782653 
L 342.726928 135.694457 
L 343.238477 142.479517 
L 343.443097 142.933982 
L 343.647717 142.653515 
L 343.954646 142.008026 
L 344.61966 139.764579 
L 344.72197 139.808448 
L 344.875435 140.24427 
L 345.13121 142.168335 
L 345.438139 146.316126 
L 346.461238 164.02241 
L 347.177407 170.594498 
L 347.637801 172.627459 
L 348.200506 174.811806 
L 348.96783 176.369039 
L 349.581689 178.936562 
L 349.837463 179.81996 
L 350.604787 180.759826 
L 350.655942 180.705285 
L 350.809407 180.62677 
L 350.962872 180.952437 
L 351.474421 182.319303 
L 351.781351 182.657766 
L 351.934816 182.56545 
L 352.2929 182.231078 
L 353.264844 182.04672 
L 353.520619 181.542272 
L 353.827548 180.889051 
L 354.032168 180.908394 
L 354.543717 179.928469 
L 354.850647 178.791764 
L 355.311041 176.949343 
L 355.771436 175.042244 
L 356.589914 168.90434 
L 356.999154 163.605265 
L 357.459548 154.586931 
L 357.868788 142.304944 
L 358.278027 123.012391 
L 358.738422 88.921529 
L 359.76152 4.83277 
L 359.914985 3.00024 
L 360.017295 4.341751 
L 360.221915 13.224115 
L 360.579999 44.745553 
L 361.449633 126.924587 
L 361.910027 148.766933 
L 362.370422 160.861405 
L 362.830816 167.815571 
L 363.49583 175.602476 
L 364.109689 179.463519 
L 364.467774 180.924193 
L 364.774703 181.894058 
L 365.286253 183.482811 
L 365.542027 183.833299 
L 365.746647 184.078986 
L 366.360506 184.963454 
L 366.616281 185.054187 
L 366.923211 185.332226 
L 367.74169 186.106508 
L 368.048619 186.514357 
L 368.457859 186.299727 
L 369.071718 187.076523 
L 369.583267 186.770881 
L 369.941352 186.973951 
L 370.504056 186.529743 
L 371.015605 185.833317 
L 371.220225 185.829231 
L 371.424845 185.748218 
L 371.885239 185.915597 
L 372.141014 185.918611 
L 372.959493 186.281095 
L 373.368732 186.82905 
L 373.726817 187.614973 
L 374.084901 188.176185 
L 374.289521 188.136075 
L 374.69876 187.722393 
L 374.749915 187.779622 
L 375.363774 188.79584 
L 375.568394 188.731522 
L 375.926479 188.284593 
L 376.438028 188.816799 
L 377.103042 188.83595 
L 377.358817 188.494646 
L 377.409972 188.526057 
L 377.665746 188.677034 
L 377.870366 188.594162 
L 378.177296 188.77739 
L 378.43307 188.686489 
L 378.688845 188.739906 
L 378.893465 188.71183 
L 379.302704 188.855051 
L 380.121183 188.702358 
L 380.428113 188.83868 
L 381.246591 188.712031 
L 381.604676 188.229253 
L 382.16738 188.029777 
L 382.730085 187.735409 
L 382.934704 187.797885 
L 383.190479 187.994001 
L 383.395099 187.672414 
L 384.367042 185.449115 
L 385.390141 182.017163 
L 385.543606 182.087207 
L 386.31093 183.446066 
L 386.720169 184.471977 
L 386.873634 184.470021 
L 387.282873 183.658634 
L 387.436338 183.175572 
L 388.408282 178.786562 
L 388.510592 178.828506 
L 388.664057 179.258938 
L 389.329071 182.464762 
L 389.994085 185.195789 
L 390.198705 185.325299 
L 390.403324 185.437706 
L 390.659099 185.603407 
L 391.221803 185.45994 
L 391.375268 185.489875 
L 391.886817 186.157078 
L 392.193747 186.599182 
L 392.756451 186.433584 
L 394.342254 184.796237 
L 395.058423 184.634949 
L 395.416508 184.0499 
L 395.825747 182.305315 
L 396.183832 179.761972 
L 397.00231 173.772745 
L 397.155775 173.639635 
L 397.258085 173.821945 
L 397.41155 174.694825 
L 398.178874 180.417939 
L 398.383494 180.565606 
L 398.588113 180.415156 
L 398.792733 179.851687 
L 399.048508 178.194782 
L 400.020451 170.90983 
L 400.122761 170.937033 
L 400.276226 171.415783 
L 400.532001 173.362189 
L 401.555099 183.444693 
L 402.168959 185.759092 
L 402.629353 186.311914 
L 402.885128 186.376355 
L 403.089747 186.465439 
L 403.345522 186.363779 
L 403.498987 186.63632 
L 403.959381 187.569323 
L 404.47093 187.791151 
L 404.829015 188.520531 
L 405.08479 188.504051 
L 405.442874 188.797194 
L 405.698649 188.84758 
L 406.261353 189.28492 
L 406.824057 189.2623 
L 407.130987 189.34334 
L 407.540226 189.022694 
L 407.796001 188.98967 
L 408.358705 189.350432 
L 409.484114 189.110422 
L 409.944508 189.243771 
L 410.251438 189.281065 
L 410.865297 189.304696 
L 411.172227 189.188499 
L 411.428001 189.147945 
L 411.990705 188.886297 
L 412.502255 189.022181 
L 412.758029 188.963291 
L 413.116114 189.161704 
L 413.371889 189.055227 
L 413.934593 189.297732 
L 414.394987 189.568163 
L 414.753072 189.242848 
L 415.111156 189.149937 
L 415.469241 189.309019 
L 415.827325 189.175675 
L 416.18541 188.97676 
L 416.748114 188.992598 
L 418.794311 188.801709 
L 419.152396 188.983441 
L 420.226649 188.039143 
L 420.584734 187.341266 
L 420.789354 187.306679 
L 421.045128 187.366504 
L 421.607833 186.733316 
L 422.682086 184.594378 
L 422.989016 184.414868 
L 423.398255 184.396186 
L 423.75634 183.653387 
L 424.063269 182.433485 
L 424.421354 180.294656 
L 424.881748 174.816699 
L 425.853692 161.671078 
L 426.007157 161.411152 
L 426.109467 161.696427 
L 426.314086 163.266819 
L 426.672171 168.594034 
L 427.28603 176.471192 
L 427.797579 179.76845 
L 428.104509 180.424709 
L 428.462593 180.815434 
L 429.229917 181.646529 
L 429.536847 182.827514 
L 430.201861 185.552929 
L 430.559946 186.404663 
L 431.378425 187.210632 
L 431.531889 187.294706 
L 431.787664 187.637663 
L 432.503833 187.228451 
L 432.810763 187.024669 
L 433.117692 186.998904 
L 433.475777 186.434982 
L 434.95927 183.071375 
L 435.112735 183.097844 
L 435.266199 183.117034 
L 435.726594 182.650632 
L 436.135833 182.009521 
L 436.442763 179.924539 
L 437.210087 175.134046 
L 437.517016 174.110837 
L 437.619326 174.24108 
L 437.875101 175.489726 
L 438.38665 179.170661 
L 439.102819 184.85057 
L 439.614369 186.545003 
L 440.177073 187.166927 
L 440.586312 187.374137 
L 440.944397 187.345371 
L 441.251326 187.443989 
L 441.455946 187.480063 
L 441.865186 188.042841 
L 442.32558 188.410284 
L 442.888284 188.816314 
L 443.246369 189.198124 
L 444.627552 189.569935 
L 444.883327 189.709893 
L 445.087946 189.482219 
L 445.343721 189.2535 
L 445.701805 189.349726 
L 446.417974 189.045883 
L 446.724904 189.102152 
L 446.980679 189.023504 
L 447.338763 188.876741 
L 447.696848 189.206765 
L 447.748003 189.148863 
L 447.952622 188.968856 
L 448.208397 189.211947 
L 448.566482 189.484541 
L 449.180341 189.080498 
L 449.58958 189.557549 
L 449.640735 189.493217 
L 449.947665 189.179311 
L 450.408059 189.517771 
L 450.714989 189.850834 
L 451.431158 189.590158 
L 451.891552 189.637342 
L 452.096172 189.4065 
L 452.300792 189.242127 
L 453.016961 189.406126 
L 453.32389 189.674662 
L 453.52851 189.741991 
L 453.83544 189.683252 
L 454.091214 189.771995 
L 454.756228 189.281442 
L 454.960848 189.358673 
L 455.318933 189.251231 
L 455.574707 189.344616 
L 455.830482 189.349028 
L 456.086257 189.346678 
L 456.495496 189.122721 
L 456.751271 188.974002 
L 457.211665 189.307562 
L 457.518595 189.161879 
L 457.774369 189.329743 
L 458.030144 189.544304 
L 458.285919 189.306323 
L 458.644003 189.068537 
L 458.899778 189.218458 
L 459.667102 189.606171 
L 459.820567 189.561671 
L 460.127496 189.393238 
L 460.434426 189.530433 
L 460.79251 189.961017 
L 461.252905 189.558381 
L 461.559834 189.580144 
L 461.764454 189.545099 
L 462.173693 189.742295 
L 462.838708 189.29073 
L 463.247947 188.995815 
L 463.606032 189.146368 
L 463.810651 189.168896 
L 464.117581 189.258309 
L 464.322201 189.36104 
L 464.52682 189.460514 
L 464.782595 189.171904 
L 464.987215 189.143842 
L 465.754539 189.598137 
L 465.959158 189.450196 
L 466.214933 189.503602 
L 466.521863 189.387453 
L 466.777637 189.328608 
L 466.982257 189.378198 
L 467.238032 189.476246 
L 467.596116 189.312697 
L 467.800736 189.221218 
L 468.005356 189.479277 
L 468.312285 189.845445 
L 468.46575 189.748256 
L 468.874989 189.366549 
L 469.488849 189.198294 
L 469.693468 189.358648 
L 470.102708 189.74412 
L 470.563102 190.023828 
L 471.99544 189.693533 
L 472.251215 189.772311 
L 473.120849 189.429265 
L 473.478933 189.752934 
L 473.785863 189.685097 
L 473.990483 189.622836 
L 474.348567 189.875617 
L 474.706652 189.527612 
L 475.269356 189.484725 
L 475.576286 189.400455 
L 476.292455 189.500055 
L 476.599384 189.491147 
L 477.366708 189.676716 
L 477.929412 189.103023 
L 478.082877 189.142179 
L 478.492117 189.528287 
L 478.747891 189.485007 
L 479.054821 189.600263 
L 479.77099 189.159959 
L 480.180229 189.41631 
L 480.333694 189.457045 
L 480.742934 189.770681 
L 481.356793 189.401488 
L 481.612567 189.269696 
L 482.124117 189.271688 
L 482.431046 189.44258 
L 483.147215 189.313289 
L 483.30068 189.336383 
L 483.658765 189.682655 
L 484.477244 189.748242 
L 484.681863 189.670933 
L 485.500342 190.11309 
L 486.574596 189.405646 
L 486.881525 189.725879 
L 487.086145 189.847156 
L 487.34192 189.612978 
L 487.54654 189.59172 
L 487.751159 189.596163 
L 488.313864 189.214146 
L 488.518483 189.295569 
L 488.774258 189.761281 
L 488.978878 189.973578 
L 490.053131 189.481049 
L 490.513526 189.466115 
L 490.7693 189.374771 
L 491.229695 189.630488 
L 491.587779 189.349971 
L 492.150483 188.948684 
L 492.559723 189.380671 
L 493.480512 189.329048 
L 494.043216 189.815538 
L 494.4013 189.62288 
L 495.526709 189.647311 
L 495.731329 189.445957 
L 495.884793 189.387799 
L 496.140568 189.474575 
L 496.447498 189.351646 
L 496.652117 189.342503 
L 497.214822 189.139653 
L 497.828681 189.340566 
L 498.391385 189.240634 
L 498.64716 189.159524 
L 498.954089 189.023506 
L 500.232963 189.773991 
L 500.386427 189.663228 
L 500.846822 189.031385 
L 501.204906 189.223607 
L 502.07454 189.181002 
L 502.228005 189.116497 
L 502.586089 189.312409 
L 502.841864 189.229398 
L 503.046484 189.215595 
L 503.251104 189.156661 
L 503.506878 189.490767 
L 503.864963 189.798252 
L 504.069583 189.632972 
L 504.274202 189.535449 
L 505.70654 189.694217 
L 506.064625 189.360348 
L 506.473864 189.762587 
L 506.985414 189.308396 
L 507.190033 189.262289 
L 507.496963 189.383931 
L 507.752738 189.470785 
L 508.008512 189.457202 
L 508.264287 189.533721 
L 508.775836 189.81069 
L 508.929301 189.835024 
L 509.133921 189.940512 
L 509.594315 189.589237 
L 509.9524 189.590607 
L 510.259329 189.585246 
L 510.566259 189.796999 
L 510.822033 189.737604 
L 511.180118 189.922952 
L 511.487048 189.660643 
L 511.793977 189.710541 
L 512.152062 189.474189 
L 512.356681 189.439114 
L 512.817076 189.037715 
L 513.328625 189.213678 
L 513.78902 189.428648 
L 513.993639 189.381262 
L 514.249414 189.401491 
L 514.914428 189.075053 
L 515.119048 189.05242 
L 515.477132 189.352854 
L 515.732907 189.253369 
L 516.244456 189.525544 
L 516.602541 189.474298 
L 516.90947 189.850985 
L 517.369865 189.534207 
L 518.392963 189.573078 
L 518.853358 189.93931 
L 519.211442 189.675485 
L 519.876456 189.352081 
L 520.592625 189.605588 
L 520.899555 189.836204 
L 521.820344 190.107534 
L 522.024964 190.151191 
L 522.741133 189.583381 
L 523.099217 189.437867 
L 523.406147 189.232318 
L 523.559611 189.343946 
L 523.917696 189.765914 
L 524.224626 189.708746 
L 524.58271 189.997915 
L 524.838485 189.725461 
L 525.145414 189.324276 
L 525.605809 189.544935 
L 525.963893 189.910809 
L 526.321978 189.69998 
L 527.191612 189.508221 
L 527.396231 189.577172 
L 527.907781 189.445832 
L 528.31702 189.670414 
L 528.879724 189.510253 
L 529.237809 189.423513 
L 529.493584 189.651953 
L 530.056288 189.29138 
L 530.260908 189.597369 
L 530.516682 189.919682 
L 530.823612 189.903355 
L 531.437471 189.458136 
L 531.795555 189.602038 
L 532.102485 189.612133 
L 532.614034 189.364791 
L 532.767499 189.440789 
L 533.023274 189.620025 
L 533.330203 189.400606 
L 533.534823 189.425894 
L 533.841753 189.326821 
L 534.199837 189.714429 
L 534.557922 189.42116 
L 534.813696 189.61779 
L 535.632175 189.327932 
L 535.939105 189.378918 
L 536.808739 189.812884 
L 537.422598 189.339495 
L 537.985302 189.552621 
L 538.343387 189.35171 
L 538.650316 189.84729 
L 538.701471 189.776201 
L 539.059556 189.172406 
L 539.366485 189.075461 
L 539.72457 189.018726 
L 539.878035 189.188507 
L 540.133809 189.503351 
L 540.798823 189.292954 
L 541.463838 189.851406 
L 541.668457 189.44435 
L 541.873077 189.195632 
L 542.077697 189.407284 
L 542.333471 189.574855 
L 542.845021 189.357948 
L 543.15195 189.351691 
L 543.45888 189.497007 
L 543.919274 189.548683 
L 544.175049 189.574702 
L 544.788908 189.189911 
L 545.095838 189.452147 
L 545.300457 189.572932 
L 545.505077 189.677413 
L 546.579331 189.113288 
L 546.835105 189.205085 
L 547.142035 189.130307 
L 547.551274 189.1675 
L 547.960514 189.163942 
L 548.318598 189.488685 
L 548.727838 189.313791 
L 549.034767 189.179356 
L 549.392852 189.314748 
L 549.853246 189.579332 
L 550.109021 189.55636 
L 550.313641 189.524109 
L 550.62057 189.613056 
L 550.876345 189.589343 
L 551.080965 189.566039 
L 551.387894 189.330357 
L 551.694824 189.32707 
L 551.950599 189.233571 
L 552.615613 189.729845 
L 552.871387 189.989288 
L 553.127162 189.732672 
L 553.485247 189.472498 
L 554.047951 189.594034 
L 554.35488 189.686305 
L 554.76412 189.720342 
L 555.326824 189.313389 
L 555.480289 189.492132 
L 555.736064 189.753202 
L 556.401078 189.114717 
L 557.270711 189.482163 
L 557.577641 189.157802 
L 558.08919 189.380858 
L 558.447275 189.182289 
L 558.754204 188.931952 
L 558.958824 189.238209 
L 559.214599 189.481722 
L 559.572683 189.35699 
L 559.981923 189.669412 
L 560.646937 189.106813 
L 561.005021 189.422843 
L 561.874655 189.478119 
L 562.33505 189.585388 
L 562.539669 189.512229 
L 562.846599 189.673635 
L 563.255838 189.398359 
L 563.613923 189.384324 
L 563.767388 189.415289 
L 564.125472 189.641947 
L 564.483557 189.295902 
L 565.250881 189.701512 
L 565.76243 189.411133 
L 566.427444 189.391508 
L 566.734374 189.283934 
L 566.990148 189.294478 
L 567.245923 189.619369 
L 567.501698 189.907806 
L 567.655163 189.777103 
L 567.910937 189.521017 
L 568.371332 189.591891 
L 568.575951 189.757293 
L 568.934036 189.547988 
L 569.29212 189.188446 
L 570.212909 189.995127 
L 570.673304 189.459632 
L 571.287163 189.860811 
L 571.747557 189.84453 
L 572.105642 189.364294 
L 572.463726 189.467193 
L 572.770656 189.367001 
L 574.049529 189.404159 
L 574.305304 189.477217 
L 575.481867 189.284057 
L 575.891107 189.728986 
L 576.300346 189.348769 
L 576.453811 189.637354 
L 576.76074 190.244553 
L 576.96536 189.870906 
L 577.3746 189.135257 
L 577.681529 189.196171 
L 577.886149 189.146507 
L 578.346543 189.408191 
L 578.806938 189.335646 
L 579.011557 189.326629 
L 579.369642 189.147127 
L 579.625417 189.158628 
L 579.881191 189.734442 
L 580.085811 189.905091 
L 580.443896 189.857356 
L 580.648515 189.740397 
L 581.364684 189.226217 
L 581.569304 189.1988 
L 581.825079 189.427091 
L 582.132008 189.674525 
L 582.797022 189.52253 
L 583.820121 189.324033 
L 584.33167 189.997605 
L 584.894375 189.665586 
L 585.712853 189.412341 
L 585.968628 189.253595 
L 586.224403 189.304816 
L 586.429023 189.286594 
L 586.684797 189.362262 
L 586.991727 189.167006 
L 587.247501 189.144353 
L 587.452121 189.139318 
L 588.06598 189.568738 
L 588.321755 189.47729 
L 588.628685 189.591863 
L 588.935614 189.580046 
L 589.242544 189.545046 
L 589.907558 189.078592 
L 590.419107 189.71521 
L 591.442206 189.515371 
L 592.20953 189.848973 
L 592.618769 189.528658 
L 593.590713 189.63221 
L 593.999952 189.752122 
L 594.511502 189.305181 
L 594.818431 189.254125 
L 595.176516 189.516859 
L 595.381136 189.655187 
L 595.585755 189.774903 
L 595.84153 189.611976 
L 596.199614 189.39969 
L 596.660009 189.619113 
L 597.222713 189.675739 
L 597.478488 189.767259 
L 597.836572 189.830031 
L 598.245812 190.119029 
L 598.603896 189.94555 
L 599.166601 189.830031 
L 599.67815 189.468038 
L 600.240854 189.541131 
L 600.854713 189.749155 
L 601.263953 189.610718 
L 601.519727 189.810222 
L 601.775502 189.61966 
L 602.491671 188.966179 
L 602.798601 189.08428 
L 603.054375 189.436452 
L 603.31015 189.639025 
L 603.565925 189.678304 
L 603.872854 189.91468 
L 604.179784 189.734553 
L 604.384404 189.71627 
L 604.691333 189.561429 
L 605.151728 189.611667 
L 605.509812 189.459828 
L 605.765587 189.400475 
L 606.021361 189.388739 
L 606.430601 189.508419 
L 606.635221 189.526546 
L 606.890995 189.646789 
L 607.095615 189.655899 
L 607.453699 189.852416 
L 607.760629 189.674637 
L 608.067559 189.427147 
L 608.834883 189.401722 
L 609.192967 189.439203 
L 609.448742 189.459657 
L 609.857981 189.541114 
L 610.522995 189.301112 
L 610.727615 189.197845 
L 611.239164 189.454104 
L 611.597249 189.628674 
L 611.853024 189.557753 
L 612.211108 189.776991 
L 612.620348 189.381458 
L 612.876122 189.420583 
L 613.336517 189.677787 
L 613.899221 189.880146 
L 614.20615 189.784412 
L 614.359615 189.7707 
L 614.61539 189.571286 
L 615.126939 189.895267 
L 615.280404 189.827611 
L 615.536179 189.552548 
L 615.791953 189.556617 
L 616.405813 189.221712 
L 616.712742 189.535633 
L 617.019672 189.527634 
L 617.275446 189.645701 
L 617.684686 189.450227 
L 618.24739 189.813481 
L 619.423953 189.65553 
L 619.782038 189.165566 
L 619.833193 189.211205 
L 620.088968 189.415397 
L 620.447052 189.50056 
L 621.163221 189.771786 
L 621.623616 189.720457 
L 621.87939 189.598622 
L 622.544404 189.365522 
L 622.749024 189.477318 
L 623.004799 189.57545 
L 623.465193 189.391795 
L 623.720968 189.453434 
L 624.130207 189.75961 
L 624.539447 189.516331 
L 624.795221 189.672831 
L 625.050996 189.766746 
L 625.306771 189.576379 
L 625.6137 189.200318 
L 626.176404 189.838867 
L 626.381024 189.928732 
L 626.585644 189.970101 
L 626.739109 190.005296 
L 627.608743 189.126486 
L 628.427221 189.399409 
L 628.734151 189.146873 
L 628.989926 189.369923 
L 629.34801 189.594146 
L 629.603785 189.693846 
L 629.910714 189.887266 
L 630.319954 189.824064 
L 630.575729 189.951977 
L 631.189588 189.872072 
L 631.445362 189.933337 
L 631.905757 189.690687 
L 632.161531 189.486625 
L 632.366151 189.640008 
L 632.673081 189.875028 
L 633.645024 189.580939 
L 633.951954 189.801098 
L 634.156574 189.866334 
L 634.361194 189.915255 
L 635.742377 189.125981 
L 635.946996 189.23061 
L 636.202771 189.397243 
L 636.71432 189.380676 
L 637.635109 189.680048 
L 637.890884 189.523601 
L 638.248968 189.28077 
L 638.555898 189.415657 
L 639.118602 189.234665 
L 639.937081 189.438522 
L 640.141701 189.519884 
L 640.397475 189.567864 
L 640.96018 189.620653 
L 641.215954 189.678873 
L 641.471729 189.744229 
L 641.676349 189.713775 
L 642.034433 189.448642 
L 642.341363 189.446373 
L 642.597138 189.343918 
L 643.210997 189.496354 
L 643.415616 189.360792 
L 643.824856 189.504163 
L 644.18294 189.410296 
L 644.38756 189.321114 
L 644.59218 189.531139 
L 644.847955 189.809365 
L 645.206039 189.460983 
L 645.257194 189.519898 
L 645.512969 189.721696 
L 646.229138 189.456724 
L 646.536067 189.207864 
L 646.945307 189.543386 
L 647.149926 189.586828 
L 647.405701 189.647401 
L 647.968405 189.290934 
L 648.275335 188.982799 
L 648.684574 188.905596 
L 648.889194 188.85262 
L 649.349589 189.027533 
L 649.656518 188.923348 
L 650.168067 189.304001 
L 651.446941 189.393749 
L 651.805025 189.624131 
L 652.623504 189.244798 
L 653.032744 189.776547 
L 653.493138 189.777295 
L 653.646603 189.874551 
L 653.851223 189.630418 
L 654.158152 189.374768 
L 654.465082 189.342927 
L 654.976631 189.313752 
L 655.38587 189.122487 
L 656.153194 189.247497 
L 657.073983 189.652338 
L 657.278603 189.661028 
L 657.534378 189.481231 
L 657.841307 189.130334 
L 658.659786 189.573092 
L 658.966716 189.720521 
L 659.22249 189.589616 
L 659.52942 189.706689 
L 659.785195 189.547469 
L 660.040969 189.497016 
L 660.296744 189.389247 
L 660.859448 189.611714 
L 661.422152 189.515067 
L 662.036012 189.629015 
L 662.342941 189.780293 
L 663.519505 189.361445 
L 663.672969 189.488894 
L 663.928744 189.770862 
L 664.389138 189.484906 
L 664.849533 189.25686 
L 665.054153 189.179847 
L 665.309927 189.332897 
L 665.514547 189.325063 
L 665.770322 189.53654 
L 665.923786 189.472624 
L 666.230716 189.890269 
L 666.281871 189.834139 
L 666.537646 189.562821 
L 666.742265 189.435447 
L 667.049195 189.173897 
L 667.560744 189.092055 
L 667.765364 189.316691 
L 668.072294 189.684497 
L 668.430378 189.633636 
L 668.941927 190.13283 
L 669.146547 190.072294 
L 669.504632 189.791065 
L 669.709251 189.721448 
L 669.965026 189.60695 
L 670.42542 189.594444 
L 670.73235 189.642871 
L 670.93697 189.674436 
L 671.448519 189.348501 
L 671.704294 189.386582 
L 672.011223 189.295282 
L 672.471618 189.624326 
L 672.932012 189.726499 
L 673.443561 189.687363 
L 673.852801 189.479509 
L 674.15973 189.549392 
L 674.517815 189.922344 
L 675.643223 189.204186 
L 676.001308 189.45481 
L 676.615167 189.314397 
L 676.922097 189.424412 
L 677.331336 189.219876 
L 677.791731 188.811502 
L 677.99635 188.941461 
L 678.354435 189.134462 
L 678.610209 189.129969 
L 678.763674 189.10983 
L 679.172914 189.377919 
L 679.326379 189.3376 
L 679.735618 189.539805 
L 680.502942 189.330522 
L 680.861026 189.318739 
L 681.577195 188.911931 
L 681.73066 188.88731 
L 681.93528 188.784724 
L 682.600294 189.441818 
L 682.907224 189.441919 
L 683.316463 189.243163 
L 683.674548 189.317374 
L 683.879167 189.090919 
L 684.134942 188.807469 
L 684.441872 188.858902 
L 684.799956 189.076136 
L 685.158041 188.876336 
L 685.56728 188.842634 
L 686.436914 188.233732 
L 686.641534 188.09374 
L 686.999618 187.767847 
L 687.511168 188.043547 
L 688.380801 188.988551 
L 688.636576 189.034474 
L 688.994661 188.764167 
L 689.250435 188.925927 
L 689.966604 188.566457 
L 690.273534 188.75379 
L 690.785083 189.36135 
L 691.552407 188.908456 
L 691.910492 189.127276 
L 692.319731 188.987546 
L 692.780126 189.053003 
L 693.0359 188.920714 
L 693.54745 188.969891 
L 694.007844 188.733791 
L 694.263619 188.714007 
L 694.468238 188.731455 
L 694.826323 188.863903 
L 695.440182 188.834828 
L 696.002886 188.217872 
L 696.412126 188.177586 
L 697.025985 187.850574 
L 697.486379 188.499896 
L 697.844464 189.141146 
L 698.304858 189.16244 
L 698.560633 189.287763 
L 698.816407 189.28363 
L 699.021027 189.350985 
L 699.430267 189.042892 
L 699.737196 189.242007 
L 700.197591 188.864495 
L 700.50452 189.02095 
L 700.964915 188.905685 
L 701.425309 189.070471 
L 701.834548 189.179063 
L 702.141478 188.828027 
L 702.346098 189.060069 
L 702.653027 189.394901 
L 703.011112 189.280722 
L 703.420351 189.016404 
L 703.676126 189.027966 
L 704.34114 189.59853 
L 704.596915 189.602521 
L 705.057309 189.979261 
L 705.466549 189.700173 
L 706.336182 188.457737 
L 706.643112 188.601904 
L 707.001197 188.921077 
L 707.205816 188.881025 
L 707.717366 189.26818 
L 708.38238 189.36603 
L 708.791619 189.528449 
L 709.047394 189.480954 
L 709.303168 189.558889 
L 709.661253 189.126318 
L 709.712408 189.176492 
L 710.070492 189.538993 
L 710.326267 189.563156 
L 710.530887 189.573672 
L 711.093591 189.223373 
L 711.656295 189.13907 
L 711.91207 188.958756 
L 712.372464 189.146876 
L 712.730549 189.024316 
L 713.088633 189.054139 
L 713.293253 189.148721 
L 713.702493 189.463724 
L 714.469817 189.233518 
L 714.776746 189.052076 
L 715.54407 189.548211 
L 715.74869 189.318507 
L 715.95331 189.202408 
L 716.618324 189.43327 
L 716.822943 189.359899 
L 717.078718 189.295751 
L 717.999507 189.308681 
L 718.255282 189.386855 
L 718.817986 189.601988 
L 719.022605 189.538505 
L 719.329535 189.495698 
L 720.352634 189.457888 
L 720.659563 189.761292 
L 721.017648 189.772916 
L 722.091901 189.283731 
L 722.398831 189.622777 
L 722.91038 189.530481 
L 723.268465 189.651919 
L 723.780014 189.455374 
L 724.393873 189.579784 
L 724.598493 189.540469 
L 724.854268 189.571219 
L 725.161197 189.547257 
L 725.723902 189.530838 
L 726.388916 188.97794 
L 726.64469 189.230155 
L 727.15624 189.583914 
L 727.360859 189.539303 
L 727.821254 189.231288 
L 728.179338 189.395683 
L 728.435113 189.394259 
L 729.304747 189.810213 
L 730.532465 189.544025 
L 730.839395 189.700257 
L 731.453254 189.686118 
L 731.709029 189.661112 
L 731.862493 189.648559 
L 732.169423 189.41597 
L 732.527507 189.651459 
L 732.834437 189.33832 
L 733.090212 189.234481 
L 733.704071 189.356159 
L 733.959846 189.665723 
L 734.829479 189.174087 
L 735.341029 189.418866 
L 735.596803 189.651174 
L 735.852578 189.803052 
L 736.057198 189.885728 
L 736.722212 189.202936 
L 737.182606 189.460788 
L 737.438381 189.318033 
L 737.643001 189.276232 
L 738.001085 189.463972 
L 738.308015 189.286069 
L 738.666099 189.106978 
L 738.870719 189.184795 
L 739.126494 189.389331 
L 739.535733 189.112897 
L 739.689198 189.178686 
L 740.098437 188.942374 
L 740.405367 189.095457 
L 740.916916 188.964591 
L 741.633085 189.658637 
L 741.940015 189.533872 
L 742.246944 189.313076 
L 742.605029 189.431981 
L 742.911959 189.272202 
L 743.474663 189.520138 
L 744.293142 189.314614 
L 744.600071 189.532764 
L 744.804691 189.462066 
L 745.162776 189.187737 
L 745.367395 189.346776 
L 745.62317 189.602192 
L 746.646269 188.703943 
L 746.799733 188.744801 
L 747.208973 189.115875 
L 747.669367 189.269263 
L 747.925142 189.406221 
L 748.180917 189.520261 
L 748.590156 189.370794 
L 748.794776 189.424314 
L 749.306325 188.959124 
L 749.920184 189.202785 
L 750.124804 189.255778 
L 750.329424 189.309641 
L 750.636353 189.128894 
L 751.199058 189.39765 
L 751.403677 189.527718 
L 751.659452 189.20811 
L 751.864072 189.115345 
L 752.222156 189.223459 
L 752.682551 188.939038 
L 752.88717 188.833611 
L 753.09179 188.759782 
L 753.347565 189.105803 
L 753.654494 189.420226 
L 754.012579 189.450037 
L 754.472973 189.632394 
L 755.086832 189.26463 
L 755.496072 188.822682 
L 755.905311 188.611158 
L 756.212241 188.911744 
L 756.51917 189.119319 
L 756.8261 189.123103 
L 757.03072 189.087372 
L 757.235339 189.03659 
L 757.746889 189.439161 
L 758.411903 188.940696 
L 758.718832 189.10482 
L 758.923452 189.105962 
L 759.230382 189.326006 
L 759.435002 189.314907 
L 759.793086 189.508408 
L 760.35579 189.762333 
L 760.509255 189.890235 
L 760.713875 189.550862 
L 760.86734 189.463749 
L 761.430044 189.812239 
L 761.736973 189.575977 
L 762.095058 189.325861 
L 762.401988 189.537779 
L 762.811227 189.727105 
L 763.067002 189.644911 
L 763.271621 189.607701 
L 763.629706 189.86262 
L 763.936636 189.701214 
L 764.19241 189.651246 
L 764.857424 189.22277 
L 765.215509 189.499575 
L 765.471283 189.4469 
L 765.931678 189.57104 
L 766.392072 189.370445 
L 767.005931 189.492288 
L 767.261706 189.478222 
L 767.875565 189.632302 
L 768.33596 189.549464 
L 768.642889 189.543302 
L 768.898664 189.591282 
L 769.410213 189.793661 
L 769.819453 189.786028 
L 770.126382 189.722022 
L 770.331002 189.738522 
L 770.996016 189.333999 
L 771.200636 189.449582 
L 771.45641 189.719659 
L 771.86565 189.558825 
L 772.223734 189.849257 
L 772.479509 189.848961 
L 773.144523 189.485836 
L 773.349143 189.51632 
L 773.604918 189.500931 
L 774.065312 189.67824 
L 774.832636 189.472208 
L 775.088411 189.566276 
L 775.39534 189.626483 
L 775.548805 189.594224 
L 776.009199 189.245652 
L 776.367284 189.470299 
L 776.623059 189.54072 
L 776.827678 189.562793 
L 777.390383 189.36375 
L 777.646157 189.498453 
L 778.004242 189.697862 
L 778.260016 189.642673 
L 778.925031 189.215799 
L 779.53889 189.538178 
L 779.896974 189.862829 
L 780.408524 189.676624 
L 780.817763 189.923511 
L 781.073538 189.800336 
L 781.329312 189.980603 
L 781.738552 189.679688 
L 782.812805 189.717069 
L 783.324355 189.769308 
L 783.528974 189.595806 
L 783.733594 189.394173 
L 784.091679 189.523241 
L 784.296298 189.466609 
L 784.500918 189.497236 
L 784.705538 189.423097 
L 785.165932 189.751731 
L 785.575172 189.634111 
L 785.779791 189.517741 
L 786.035566 189.358743 
L 786.342496 189.472336 
L 786.751735 189.283795 
L 787.160975 189.397731 
L 787.365594 189.386314 
L 787.877144 189.602499 
L 788.286383 189.53676 
L 788.593313 189.409447 
L 788.900242 189.344786 
L 789.156017 189.587417 
L 789.360637 189.740473 
L 789.565256 189.518343 
L 789.769876 189.397184 
L 790.127961 189.431774 
L 790.281425 189.478426 
L 790.63951 189.782947 
L 791.355679 189.59145 
L 791.560299 189.728676 
L 792.071848 189.438411 
L 792.634552 189.807967 
L 793.453031 189.711674 
L 793.657651 189.639885 
L 794.015735 189.623461 
L 794.37382 189.428389 
L 794.834214 189.571682 
L 795.141144 189.325727 
L 795.499228 189.409302 
L 796.010778 189.065548 
L 796.624637 189.62626 
L 797.033876 189.38769 
L 797.391961 189.427638 
L 797.596581 189.433714 
L 797.90351 189.309912 
L 798.363905 189.603838 
L 798.619679 189.536118 
L 798.977764 189.617798 
L 799.284693 189.529172 
L 799.540468 189.586973 
L 799.898553 189.428659 
L 800.461257 189.619713 
L 800.819341 189.312532 
L 801.228581 189.514707 
L 801.484355 189.355059 
L 801.995905 189.54547 
L 802.763229 189.350948 
L 803.121313 189.435469 
L 803.377088 189.124677 
L 803.581708 188.987362 
L 803.786327 189.113612 
L 804.246722 189.527941 
L 804.553651 189.337251 
L 804.758271 189.193703 
L 805.16751 189.395116 
L 805.320975 189.450174 
L 805.832525 189.964366 
L 806.702158 189.884327 
L 806.957933 189.814478 
L 807.162553 189.752649 
L 807.469482 189.566287 
L 807.725257 189.422762 
L 807.929877 189.414295 
L 808.543736 189.724713 
L 808.748356 189.584316 
L 809.00413 189.384405 
L 809.51568 189.43229 
L 809.771454 189.375117 
L 809.976074 189.599797 
L 810.334159 190.063505 
L 810.589933 190.08046 
L 810.794553 190.125141 
L 811.203792 189.778576 
L 811.561877 189.911987 
L 811.766497 189.811318 
L 812.175736 189.415422 
L 812.380356 189.762666 
L 812.636131 190.069059 
L 812.789595 189.992908 
L 813.24999 189.53645 
L 813.403454 189.430239 
L 813.659229 189.13953 
L 814.580018 189.504576 
L 815.142722 189.465541 
L 815.449652 189.321692 
L 815.603117 189.449641 
L 816.012356 189.94814 
L 816.370441 189.840287 
L 817.035455 189.225243 
L 817.700469 189.176286 
L 817.956243 189.092948 
L 818.416638 189.327103 
L 818.877032 189.175722 
L 819.132807 189.062291 
L 819.439736 189.197117 
L 819.746666 189.508235 
L 820.20706 189.45685 
L 820.41168 189.491155 
L 820.769765 189.377593 
L 821.332469 189.584341 
L 822.662497 189.603308 
L 822.918272 189.704722 
L 823.378666 189.532326 
L 823.634441 189.608237 
L 823.94137 189.670216 
L 824.811004 189.593275 
L 825.117934 189.855525 
L 825.680638 189.608055 
L 826.038723 189.189964 
L 826.243342 189.522267 
L 826.499117 189.823643 
L 826.652582 189.731056 
L 826.908356 189.562813 
L 827.266441 189.772537 
L 827.931455 189.555593 
L 828.136075 189.50387 
L 828.494159 189.450085 
L 828.698779 189.527506 
L 829.056864 189.757801 
L 829.312638 189.711303 
L 829.517258 189.646318 
L 829.773033 189.742354 
L 830.131117 189.428459 
L 830.796131 189.814045 
L 830.949596 189.837689 
L 831.205371 189.984965 
L 831.870385 189.547365 
L 832.075005 189.648082 
L 832.586554 190.0595 
L 833.251568 189.982342 
L 833.660807 189.580978 
L 834.018892 189.731768 
L 834.479286 189.785059 
L 834.683906 189.61208 
L 834.990836 189.642849 
L 835.1443 189.624412 
L 835.45123 189.732639 
L 835.65585 189.789706 
L 835.860469 189.887023 
L 836.320864 189.719765 
L 836.576639 189.760444 
L 837.037033 189.950057 
L 837.343963 189.692858 
L 837.702047 189.408644 
L 838.213596 189.598469 
L 838.469371 189.537614 
L 838.827456 189.712277 
L 839.032075 189.386453 
L 839.28785 189.042772 
L 839.697089 189.109037 
L 840.004019 189.283466 
L 840.157484 189.3477 
L 840.413258 189.512519 
L 840.771343 189.269148 
L 841.282892 189.614979 
L 841.999061 189.391254 
L 842.305991 189.241717 
L 842.510611 189.17297 
L 842.71523 189.139915 
L 843.22678 189.74181 
L 843.431399 189.523453 
L 843.738329 189.142034 
L 844.147568 189.26355 
L 844.352188 189.233085 
L 844.812583 189.387282 
L 845.221822 189.140909 
L 845.784526 189.485063 
L 846.193766 189.371723 
L 846.705315 189.318488 
L 846.909935 189.294473 
L 847.165709 189.45649 
L 847.779569 189.154286 
L 848.291118 189.658388 
L 848.444583 189.629763 
L 848.904977 189.168731 
L 849.211907 189.13562 
L 849.621146 189.327388 
L 849.928076 189.3685 
L 850.235005 189.21987 
L 851.053484 189.651824 
L 851.513879 189.564152 
L 851.974273 189.162745 
L 852.434667 189.67083 
L 852.485822 189.6146 
L 852.792752 189.385092 
L 852.997372 189.464843 
L 853.406611 189.856 
L 853.867005 189.592507 
L 854.480865 189.687505 
L 854.787794 189.854406 
L 855.094724 189.749775 
L 855.708583 189.597832 
L 855.964358 189.566081 
L 856.424752 189.16671 
L 856.680527 189.221511 
L 857.447851 189.498992 
L 857.65247 189.287476 
L 857.9594 189.008397 
L 858.215175 189.101795 
L 858.522104 189.234721 
L 859.033654 189.115309 
L 859.289428 189.203834 
L 859.698668 189.102752 
L 859.903287 189.051317 
L 860.210217 188.93507 
L 860.465992 189.170475 
L 860.772921 189.477209 
L 861.028696 189.153917 
L 861.48909 188.807467 
L 862.00064 188.897117 
L 862.358724 188.695088 
L 862.819119 188.986681 
L 863.381823 188.884759 
L 863.842217 188.355212 
L 864.097992 188.384134 
L 864.302612 188.338894 
L 864.507231 188.313662 
L 864.763006 188.385711 
L 865.018781 188.126458 
L 865.479175 187.592049 
L 865.63264 187.534666 
L 865.837259 187.063141 
L 866.553429 185.199708 
L 866.758048 184.409548 
L 868.497316 175.331337 
L 868.701936 175.288779 
L 868.8554 175.408255 
L 869.36695 176.553874 
L 869.929654 178.171489 
L 870.236584 178.665732 
L 870.645823 178.985904 
L 871.259682 180.976086 
L 872.027006 183.930583 
L 872.58971 185.298227 
L 872.99895 185.328787 
L 873.152415 185.316036 
L 873.868584 185.873494 
L 874.073203 185.955099 
L 874.993992 187.310215 
L 876.017091 188.759668 
L 876.682105 188.67134 
L 877.193654 188.859516 
L 877.449429 188.882356 
L 878.012133 188.463785 
L 878.574837 188.733928 
L 878.779457 188.657846 
L 879.086387 188.742222 
L 879.393316 188.547242 
L 879.649091 188.597265 
L 879.802556 188.628891 
L 880.26295 189.074174 
L 880.723345 188.776363 
L 881.030274 188.64111 
L 881.286049 188.922416 
L 881.644133 189.294328 
L 881.951063 189.256344 
L 882.206838 189.239744 
L 883.588021 188.976095 
L 884.253035 188.703424 
L 885.122669 189.157124 
L 885.327288 189.220401 
L 885.531908 189.324109 
L 886.503852 188.904686 
L 886.861936 189.128414 
L 887.475796 188.873328 
L 887.93619 188.950612 
L 888.14081 188.883861 
L 888.447739 189.02421 
L 888.652359 189.143968 
L 888.908134 189.226873 
L 889.061598 189.322646 
L 889.317373 189.486698 
L 889.573148 189.18851 
L 889.880077 188.84084 
L 890.493937 188.818563 
L 890.698556 188.830756 
L 890.954331 188.857948 
L 891.312415 188.683614 
L 891.56819 188.4172 
L 892.130894 188.582047 
L 892.386669 188.609757 
L 892.898218 188.248861 
L 893.102838 188.108381 
L 893.409768 188.34543 
L 894.074782 187.61094 
L 894.279401 187.323466 
L 894.637486 186.20445 
L 895.40481 182.6201 
L 896.530218 173.517179 
L 896.581373 173.600698 
L 896.734838 174.490027 
L 898.013712 185.332371 
L 898.422951 186.288823 
L 898.678726 186.726392 
L 898.883345 186.861008 
L 899.24143 186.721293 
L 899.957599 186.830767 
L 900.213374 186.707576 
L 900.469148 186.830488 
L 901.134162 186.05426 
L 901.338782 186.030295 
L 901.952641 185.330866 
L 902.157261 184.887116 
L 902.617655 183.695451 
L 902.87343 183.555596 
L 903.026895 183.35379 
L 904.203458 180.887591 
L 904.766162 180.04365 
L 905.533486 178.135225 
L 905.993881 176.698702 
L 907.323909 172.454228 
L 907.579684 171.612921 
L 908.244698 168.961583 
L 908.858557 166.921631 
L 909.932811 163.439368 
L 910.086275 162.996246 
L 911.262839 156.98218 
L 911.518613 154.045724 
L 911.979008 145.786903 
L 912.541712 132.827635 
L 913.309036 113.908573 
L 913.615966 111.005049 
L 914.17867 108.705827 
L 914.587909 105.214527 
L 914.639064 105.298677 
L 914.741374 106.259935 
L 914.894839 110.679845 
L 915.201769 128.065294 
L 915.559853 163.526954 
L 915.917938 224.006977 
L 916.04741 253 
M 920.658327 253 
L 921.44267 209.940897 
L 922.107684 183.770307 
L 922.516924 174.573462 
L 922.977318 169.723884 
L 923.386558 167.53199 
L 923.642332 167.286434 
L 923.744642 167.294637 
L 924.153882 167.901404 
L 924.614276 169.681404 
L 925.125825 171.90546 
L 926.353544 174.935631 
L 926.762783 175.891876 
L 927.018558 176.298972 
L 927.223178 176.667258 
L 927.632417 178.027523 
L 927.990501 178.887778 
L 928.195121 179.150486 
L 928.297431 179.192371 
L 928.450896 179.639108 
L 928.706671 180.300866 
L 928.91129 180.721329 
L 929.525149 182.029255 
L 929.832079 182.341113 
L 930.036699 182.286242 
L 930.957488 183.67618 
L 931.213262 184.053408 
L 931.417882 184.281658 
L 931.622502 184.462946 
L 932.134051 184.426849 
L 932.54329 184.873806 
L 932.901375 185.154342 
L 933.15715 185.410048 
L 933.464079 185.3025 
L 934.333713 186.323482 
L 934.538333 186.267774 
L 934.691798 186.328933 
L 935.510276 187.090293 
L 935.868361 187.106296 
L 936.124136 187.335598 
L 936.328755 187.348285 
L 936.737995 187.608802 
L 937.044924 187.700337 
L 937.403009 187.530474 
L 937.556474 187.666844 
L 937.863403 188.00673 
L 938.477262 188.109545 
L 938.937657 188.298787 
L 939.193432 188.583987 
L 939.449206 188.537072 
L 940.063065 188.089088 
L 940.62577 188.429909 
L 940.932699 188.865631 
L 941.290784 188.764239 
L 941.546558 189.017093 
L 941.955798 188.763801 
L 942.211572 188.545163 
L 942.365037 188.684915 
L 942.620812 188.982051 
L 942.927742 188.971108 
L 943.132361 189.147024 
L 943.490446 188.873666 
L 943.84853 188.821457 
L 944.05315 189.018307 
L 944.25777 189.054621 
L 944.462389 189.242231 
L 944.922784 188.856823 
L 945.178559 188.878946 
L 945.843573 189.339257 
L 946.099347 189.25297 
L 946.406277 189.513312 
L 946.662052 189.585927 
L 946.968981 189.500446 
L 947.224756 189.329043 
L 947.78746 189.537584 
L 948.299009 189.122844 
L 948.759404 189.118875 
L 949.117488 189.089016 
L 949.322108 189.221291 
L 949.526728 189.272093 
L 949.731347 189.28564 
L 949.987122 189.366237 
L 950.191742 189.357708 
L 950.396362 189.453152 
L 950.805601 189.270332 
L 951.163686 189.51097 
L 951.675235 189.442522 
L 952.033319 189.550648 
L 952.596024 189.102702 
L 953.261038 189.485922 
L 953.619122 189.538719 
L 953.926052 189.382901 
L 954.130672 189.278043 
L 954.386446 189.153655 
L 954.539911 189.295592 
L 954.94915 189.805031 
L 955.204925 189.74858 
L 955.409545 189.710965 
L 955.818784 189.360571 
L 956.023404 189.61064 
L 956.228024 189.799929 
L 956.688418 189.7557 
L 957.097658 189.898083 
L 957.302277 189.736317 
L 957.660362 189.357554 
L 957.864982 189.547723 
L 958.171911 189.7688 
L 958.427686 189.745982 
L 958.836925 189.552668 
L 959.501939 189.638944 
L 959.860024 189.555252 
L 960.218108 189.494775 
L 960.780813 189.287334 
L 961.496982 189.584967 
L 961.803911 189.429706 
L 962.059686 189.480003 
L 962.417771 189.17664 
L 962.673545 189.265548 
L 962.980475 189.138847 
L 963.338559 189.404781 
L 964.003573 189.557814 
L 964.208193 189.462278 
L 964.463968 189.033578 
L 964.668588 188.708068 
L 964.822052 188.907064 
L 965.180137 189.47307 
L 965.435911 189.49643 
L 965.947461 189.266226 
L 966.25439 189.420703 
L 966.56132 189.675186 
L 967.124024 189.280945 
L 967.430954 189.505874 
L 968.044813 189.530958 
L 968.249433 189.736172 
L 968.607517 189.662572 
L 968.863292 189.810545 
L 969.221376 189.774309 
L 969.630616 189.718704 
L 970.142165 189.68863 
L 970.551405 189.730105 
L 970.858334 189.570086 
L 971.114109 189.600713 
L 971.318729 189.617622 
L 971.523348 189.660227 
L 972.086053 189.41089 
L 972.648757 189.670766 
L 972.853377 189.645324 
L 973.057996 189.665402 
L 973.262616 189.670277 
L 973.569546 189.498573 
L 974.439179 189.577702 
L 974.899574 189.10184 
L 975.411123 189.093155 
L 975.871518 189.614566 
L 976.383067 189.576655 
L 976.536532 189.61489 
L 976.945771 189.336196 
L 977.201546 189.461664 
L 977.610785 189.460093 
L 977.815405 189.486207 
L 978.224644 189.347783 
L 978.889659 189.121019 
L 979.094278 189.044329 
L 979.401208 189.30709 
L 979.861602 189.537851 
L 980.628926 189.278448 
L 980.833546 189.153242 
L 981.345095 189.497473 
L 981.49856 189.371882 
L 981.80549 188.971859 
L 982.163574 189.252495 
L 983.135518 189.206234 
L 983.800532 189.069098 
L 984.516701 189.467698 
L 985.33518 189.516956 
L 985.64211 189.806504 
L 986.000194 189.817584 
L 986.255969 189.84969 
L 986.665208 189.716636 
L 986.818673 189.639327 
L 987.023293 189.92197 
L 987.227912 190.069489 
L 987.432532 189.834876 
L 987.790617 189.474887 
L 988.046391 189.552369 
L 988.251011 189.571272 
L 988.96718 189.012318 
L 989.37642 189.147998 
L 989.683349 189.3858 
L 990.041434 189.290973 
L 990.348363 189.115554 
L 991.064532 189.377009 
L 991.729546 188.929438 
L 992.036476 189.194518 
L 992.292251 189.080855 
L 992.650335 189.327807 
L 993.264194 189.165887 
L 993.571124 189.207767 
L 993.775744 189.02316 
L 993.980363 188.918766 
L 994.287293 189.324285 
L 994.543068 189.465582 
L 994.798842 189.340653 
L 995.310392 188.983449 
L 995.566166 188.952635 
L 995.770786 188.948441 
L 996.128871 189.182347 
L 996.384645 189.189392 
L 996.64042 189.152332 
L 997.151969 189.00771 
L 997.407744 189.1425 
L 997.714673 189.062185 
L 998.072758 189.104435 
L 998.533152 189.036347 
L 998.686617 189.011073 
L 999.095857 188.60971 
L 999.863181 189.238756 
L 1000.37473 189.326006 
L 1000.57935 189.311608 
L 1000.937434 189.55065 
L 1001.193209 189.458 
L 1001.704758 188.973478 
L 1001.909378 189.06089 
L 1003.188251 190.287719 
L 1003.392871 190.155109 
L 1003.90442 189.697407 
L 1005.183293 189.689492 
L 1005.541378 189.798461 
L 1006.104082 189.74145 
L 1006.411012 189.752239 
L 1006.871406 189.709949 
L 1007.076026 189.66426 
L 1007.587575 189.88843 
L 1008.099125 189.471653 
L 1009.071068 189.703728 
L 1009.275688 189.534731 
L 1009.531463 189.29258 
L 1009.787237 189.470014 
L 1009.991857 189.540559 
L 1010.196477 189.298634 
L 1010.503406 188.907739 
L 1010.656871 189.016878 
L 1011.014956 189.527757 
L 1011.986899 189.087902 
L 1012.242674 189.134152 
L 1012.549604 188.948296 
L 1012.805378 189.063189 
L 1013.009998 189.025971 
L 1013.265773 189.217387 
L 1013.675012 189.055632 
L 1014.391181 189.257064 
L 1014.595801 189.103526 
L 1015.567745 189.528692 
L 1015.772364 189.446976 
L 1016.181604 189.139974 
L 1016.437378 189.283474 
L 1016.897773 189.471633 
L 1017.307012 189.505665 
L 1017.511632 189.613757 
L 1017.869716 189.485462 
L 1018.125491 189.513674 
L 1018.330111 189.519262 
L 1018.63704 189.667107 
L 1018.892815 189.563304 
L 1019.2509 189.685934 
L 1019.864759 189.285168 
L 1020.273998 189.553726 
L 1020.632083 189.426536 
L 1021.194787 189.639028 
L 1021.604026 189.309789 
L 1022.013266 189.343966 
L 1022.269041 189.399864 
L 1022.627125 189.286441 
L 1022.934055 189.421629 
L 1023.343294 189.329685 
L 1024.417548 189.479096 
L 1024.622167 189.484432 
L 1025.031407 189.725447 
L 1025.287182 189.502508 
L 1025.491801 189.321829 
L 1026.156815 189.595664 
L 1026.5149 189.414663 
L 1026.770675 189.742429 
L 1028.458787 189.212299 
L 1028.714562 189.434367 
L 1029.021492 189.633031 
L 1029.226111 189.472758 
L 1029.584196 189.192526 
L 1029.788816 189.39748 
L 1030.300365 190.020395 
L 1030.55614 189.536911 
L 1030.811914 189.358975 
L 1031.016534 189.363976 
L 1031.169999 189.396981 
L 1031.476928 188.976846 
L 1031.528083 189.030531 
L 1031.783858 189.343734 
L 1032.397717 189.304299 
L 1032.653492 189.371037 
L 1032.960421 189.124295 
L 1033.369661 189.402124 
L 1033.625435 189.594539 
L 1034.546224 188.800107 
L 1034.955464 189.127016 
L 1035.620478 189.247235 
L 1036.285492 189.723633 
L 1036.490112 189.619439 
L 1036.797041 189.424214 
L 1037.052816 189.304788 
L 1037.257436 189.282366 
L 1037.564365 189.438146 
L 1038.689774 188.965632 
L 1039.099013 189.068548 
L 1039.303633 189.154685 
L 1039.815182 189.520668 
L 1040.991746 189.868676 
L 1041.24752 189.695696 
L 1041.45214 189.644724 
L 1041.810225 189.776916 
L 1042.065999 189.680587 
L 1042.475239 189.186791 
L 1042.935633 189.389102 
L 1043.293718 189.277401 
L 1043.549492 189.107625 
L 1043.702957 189.127686 
L 1044.112196 189.599136 
L 1044.163351 189.553285 
L 1044.470281 189.33976 
L 1044.87952 189.646201 
L 1045.18645 189.466972 
L 1045.442225 189.29505 
L 1045.697999 189.267309 
L 1046.158394 188.9107 
L 1046.311859 189.041203 
L 1046.618788 189.485102 
L 1046.823408 189.578899 
L 1047.028028 189.690408 
L 1047.488422 189.371227 
L 1048.306901 189.708439 
L 1048.664985 189.523442 
L 1048.92076 189.625939 
L 1049.12538 189.676774 
L 1049.432309 189.631551 
L 1049.790394 189.677547 
L 1049.943859 189.557669 
L 1050.301943 189.086962 
L 1050.660028 189.297757 
L 1051.069267 189.53738 
L 1051.836591 189.282511 
L 1052.34814 189.317341 
L 1052.706225 189.359726 
L 1052.962 189.711973 
L 1053.166619 189.458083 
L 1053.422394 189.257823 
L 1053.729324 189.349458 
L 1054.087408 189.488911 
L 1054.240873 189.549662 
L 1054.650112 189.347962 
L 1054.905887 189.471284 
L 1055.417436 189.394354 
L 1056.133605 189.561116 
L 1056.338225 189.61525 
L 1056.747465 189.45076 
L 1057.565943 189.846896 
L 1057.924028 189.322917 
L 1057.975183 189.371375 
L 1058.384422 189.839883 
L 1058.589042 189.474703 
L 1058.895972 189.058157 
L 1059.151746 189.229429 
L 1059.714451 189.528061 
L 1060.43062 189.486662 
L 1060.737549 189.528329 
L 1061.044479 189.34336 
L 1061.453718 189.422681 
L 1062.067577 189.341295 
L 1062.425662 189.185995 
L 1063.039521 189.512516 
L 1063.295296 189.645846 
L 1063.806845 189.54803 
L 1064.06262 189.700003 
L 1064.420704 189.427231 
L 1064.778789 189.118727 
L 1065.136873 189.169253 
L 1065.392648 189.272207 
L 1065.904197 189.150149 
L 1066.108817 189.340739 
L 1066.313437 189.401929 
L 1066.824986 189.263003 
L 1067.49 189.374271 
L 1067.745775 189.186732 
L 1068.00155 189.286798 
L 1068.410789 189.629751 
L 1068.871183 189.489927 
L 1069.280423 188.837027 
L 1069.485043 188.679143 
L 1069.689662 188.993086 
L 1069.945437 189.36082 
L 1070.303521 189.464324 
L 1070.661606 189.818508 
L 1070.815071 189.719924 
L 1071.173155 189.429879 
L 1071.480085 189.355648 
L 1071.787014 189.526253 
L 1072.042789 189.502157 
L 1072.452029 189.676813 
L 1072.963578 189.175513 
L 1073.168198 189.393336 
L 1073.372817 189.543361 
L 1073.628592 189.268236 
L 1073.935522 189.015608 
L 1074.907465 189.527193 
L 1075.06093 189.523786 
L 1075.26555 189.460657 
L 1075.623634 189.693366 
L 1075.828254 189.73342 
L 1076.135184 189.911761 
L 1076.339803 189.780828 
L 1076.544423 189.696252 
L 1077.209437 190.045789 
L 1077.567522 189.475758 
L 1078.181381 189.661913 
L 1078.437156 189.71144 
L 1078.99986 189.508349 
L 1079.306789 189.321136 
L 1079.664874 189.15934 
L 1079.869494 189.079008 
L 1080.432198 189.445346 
L 1081.199522 189.934269 
L 1081.608761 189.884938 
L 1081.864536 189.872854 
L 1082.018001 189.842883 
L 1082.887635 189.065737 
L 1083.194564 189.246554 
L 1083.399184 189.269531 
L 1083.603804 189.301623 
L 1083.859578 189.221818 
L 1084.422283 189.759624 
L 1085.087297 189.57137 
L 1085.394226 189.338551 
L 1085.598846 189.553505 
L 1085.803466 189.634027 
L 1086.26386 189.115228 
L 1086.775409 189.450007 
L 1086.928874 189.593646 
L 1087.184649 189.890168 
L 1087.338114 189.778054 
L 1087.593888 189.580652 
L 1088.054283 189.762166 
L 1088.616987 189.337965 
L 1088.872762 189.17889 
L 1089.128536 188.976095 
L 1089.691241 189.544857 
L 1089.89586 189.638891 
L 1090.10048 189.378433 
L 1090.356255 189.117192 
L 1091.123579 189.482205 
L 1091.430508 189.195428 
L 1092.555917 189.841845 
L 1092.709382 189.728768 
L 1093.220931 189.078464 
L 1093.374396 189.107569 
L 1093.63017 189.535823 
L 1093.885945 189.819909 
L 1094.090565 189.746822 
L 1094.499804 189.376298 
L 1094.806734 189.387718 
L 1095.164818 189.504911 
L 1095.829832 189.226222 
L 1096.034452 189.233574 
L 1096.392537 189.536813 
L 1096.904086 189.157922 
L 1098.131804 189.599747 
L 1098.592199 189.152432 
L 1098.796818 189.301271 
L 1099.103748 189.542493 
L 1099.461833 189.590858 
L 1099.768762 189.013269 
L 1099.973382 188.867026 
L 1100.945326 189.660682 
L 1101.149945 189.762283 
L 1102.275354 189.036715 
L 1102.735748 189.633036 
L 1102.940368 189.647864 
L 1103.247297 189.768186 
L 1104.116931 189.097949 
L 1104.526171 189.485336 
L 1104.8331 189.438732 
L 1105.34465 189.844664 
L 1105.907354 189.632637 
L 1106.163129 189.641752 
L 1106.418903 189.479796 
L 1106.674678 189.577613 
L 1107.237382 188.700666 
L 1107.390847 188.830954 
L 1107.697777 189.115074 
L 1108.055861 189.097148 
L 1108.362791 188.866786 
L 1108.618565 188.800844 
L 1108.97665 188.653094 
L 1109.743974 188.411543 
L 1110.613608 187.808398 
L 1110.869382 187.442766 
L 1111.278622 186.784341 
L 1111.739016 186.445071 
L 1112.148256 185.66444 
L 1112.455185 185.629903 
L 1112.81327 185.663977 
L 1113.017889 185.189063 
L 1113.375974 184.491214 
L 1113.529439 184.543001 
L 1113.682904 184.614143 
L 1113.836368 184.335309 
L 1114.092143 183.883797 
L 1114.347918 184.01113 
L 1114.603692 184.119049 
L 1114.859467 184.088955 
L 1115.422171 184.617799 
L 1115.473326 184.561421 
L 1116.34296 182.661176 
L 1116.64989 181.638308 
L 1116.956819 179.548238 
L 1117.417214 175.082711 
L 1117.775298 168.90528 
L 1118.286847 154.098794 
L 1118.951862 135.406743 
L 1119.156481 133.50762 
L 1119.207636 133.564687 
L 1119.309946 134.370046 
L 1119.514566 138.631896 
L 1120.026115 157.336096 
L 1120.537664 172.041989 
L 1120.946904 178.332703 
L 1121.356143 181.057147 
L 1121.867693 182.736911 
L 1122.072312 182.938093 
L 1122.276932 182.822501 
L 1122.686172 182.4635 
L 1122.890791 182.894067 
L 1123.351186 184.483445 
L 1123.760425 185.885062 
L 1124.630059 187.263005 
L 1124.834679 187.507416 
L 1125.192763 188.204707 
L 1125.448538 188.44894 
L 1125.908932 188.872485 
L 1126.625101 189.301997 
L 1127.6482 189.457866 
L 1128.006284 189.220685 
L 1128.722453 189.518134 
L 1128.978228 189.400944 
L 1129.438623 188.922843 
L 1130.052482 189.394193 
L 1130.359411 189.239111 
L 1130.922116 189.557357 
L 1131.842904 189.133229 
L 1132.047524 189.096211 
L 1132.763693 189.590906 
L 1133.377552 189.441587 
L 1133.991411 189.566494 
L 1134.196031 189.686224 
L 1134.400651 189.700178 
L 1134.70758 189.890827 
L 1134.963355 189.782154 
L 1135.21913 189.87147 
L 1135.679524 189.589602 
L 1136.498003 189.922908 
L 1136.804933 190.115267 
L 1137.214172 190.099234 
L 1137.572257 189.873797 
L 1138.083806 189.787016 
L 1138.44189 189.479299 
L 1138.595355 189.446546 
L 1139.106905 189.734048 
L 1139.669609 189.416438 
L 1140.078848 189.565713 
L 1141.306567 189.33933 
L 1141.613496 189.591525 
L 1142.58544 189.626045 
L 1142.89237 189.526448 
L 1143.506229 189.647443 
L 1143.762003 189.569073 
L 1144.017778 189.549244 
L 1144.427017 189.383961 
L 1144.580482 189.440931 
L 1144.887412 189.686383 
L 1145.143187 189.661986 
L 1145.347806 189.682314 
L 1145.705891 189.475786 
L 1146.831299 189.513993 
L 1147.087074 189.626704 
L 1147.240539 189.689551 
L 1147.496313 189.846087 
L 1147.854398 189.606847 
L 1148.007863 189.516867 
L 1148.365947 189.130128 
L 1149.082116 189.595901 
L 1149.74713 189.607746 
L 1150.002905 189.756615 
L 1151.077159 189.465725 
L 1151.639863 189.695914 
L 1151.997947 190.025477 
L 1152.202567 190.031491 
L 1152.918736 189.40266 
L 1153.174511 189.622727 
L 1153.58375 189.483497 
L 1153.78837 189.583002 
L 1154.197609 189.313263 
L 1154.658004 189.469174 
L 1154.913778 189.418378 
L 1155.527638 189.37819 
L 1155.732257 189.400958 
L 1155.988032 189.396464 
L 1156.346117 189.513228 
L 1156.601891 189.418744 
L 1156.959976 189.540182 
L 1157.42037 189.392217 
L 1157.82961 189.396107 
L 1158.034229 189.327625 
L 1158.801553 189.668924 
L 1159.517722 189.443049 
L 1159.875807 189.069712 
L 1160.080427 189.27775 
L 1160.387356 189.587029 
L 1160.591976 189.453643 
L 1160.745441 189.405375 
L 1161.001215 189.760985 
L 1161.15468 189.817196 
L 1161.870849 189.507401 
L 1162.382399 189.724674 
L 1162.689328 189.974226 
L 1163.098568 190.090822 
L 1163.303187 190.062032 
L 1164.223976 189.57077 
L 1165.09361 189.437146 
L 1165.29823 189.411379 
L 1165.451694 189.386213 
L 1165.758624 189.178644 
L 1166.014399 189.419787 
L 1166.372483 189.803585 
L 1166.781723 189.649165 
L 1167.088652 189.726982 
L 1167.497892 189.598441 
L 1167.753666 189.758993 
L 1167.958286 189.876214 
L 1169.083695 189.302044 
L 1169.390624 189.412944 
L 1169.646399 189.432611 
L 1169.953328 189.538655 
L 1170.925272 189.380824 
L 1171.692596 190.017356 
L 1171.897216 189.866159 
L 1172.15299 189.7018 
L 1172.35761 189.691527 
L 1172.613385 189.305 
L 1172.818005 189.138738 
L 1173.073779 189.328061 
L 1173.329554 189.385066 
L 1173.738793 189.284303 
L 1174.096878 189.247212 
L 1174.352653 189.253676 
L 1174.608427 189.615239 
L 1174.915357 189.890126 
L 1175.324596 189.923326 
L 1175.529216 190.053162 
L 1176.245385 189.522906 
L 1176.552315 189.592658 
L 1176.961554 189.413047 
L 1177.728878 189.586761 
L 1177.984653 189.78389 
L 1178.649667 189.466542 
L 1178.803132 189.471111 
L 1179.212371 189.744734 
L 1179.82623 189.307048 
L 1180.13316 189.374606 
L 1180.388934 189.276003 
L 1180.644709 189.265116 
L 1180.798174 189.251134 
L 1181.207413 189.47362 
L 1181.463188 189.436016 
L 1181.718963 189.174435 
L 1181.770118 189.21708 
L 1182.077047 189.582818 
L 1182.742061 189.300738 
L 1183.100146 189.599429 
L 1183.509385 189.666814 
L 1183.918625 189.460712 
L 1184.123244 189.534874 
L 1184.379019 189.698501 
L 1184.788259 189.295221 
L 1184.839414 189.352467 
L 1184.941723 189.485944 
L 1184.941723 189.485944 
" clip-path="url(#p05ffe55ee7)" style="fill: none; stroke: #000000; stroke-width: 2; stroke-linecap: square"/>
   </g>
   <g id="patch_3">
    <path d="M 3.00024 198.907885 
L 1184.99976 198.907885 
" style="fill: none; stroke: #000000; stroke-width: 2; stroke-linejoin: miter; stroke-linecap: square"/>
   </g>
  </g>
 </g>
 <defs>
  <clipPath id="p05ffe55ee7">
   <rect x="3.00024" y="3.00024" width="1181.99952" height="195.907645"/>
  </clipPath>
 </defs>
</svg>
