<?xml version="1.0" standalone="no" ?>
<!DOCTYPE svg PUBLIC "-//W3C//DTD SVG 1.1//EN" "http://www.w3.org/Graphics/SVG/1.1/DTD/svg11.dtd">
<svg width="624px" height="96px" viewBox="0 0 624 96" style="background-color: #ffffff00" xmlns="http://www.w3.org/2000/svg" xmlns:xlink="http://www.w3.org/1999/xlink" version="1.1" >
<path stroke="none" fill="#000000" transform="matrix(0.0833333 0 0 0.0833333 -116.517 -355.917)" d="M 4535.8,5099.79 L 4535.8,5086.86 L 4821.31,4922.03 L 4826.8,4925.2 L 4826.8,4931.54 L 4535.8,5099.79 Z " />
<path stroke="none" fill="#000000" transform="matrix(0.0833333 0 0 0.0833333 -116.517 -355.917)" d="M 4535.8,5086.86 L 4535.8,5099.79 L 4244.8,4931.54 L 4244.8,4925.2 L 4250.29,4922.03 L 4535.8,5086.86 Z " />
<path stroke="none" fill="#000000" transform="matrix(0.0833333 0 0 0.0833333 -116.517 -355.917)" d="M 4250.29,4922.03 L 4244.8,4925.2 L 4239.31,4922.03 L 4239.31,4592.37 L 4250.51,4585.9 L 4250.29,4922.03 Z " />
<path stroke="none" fill="#000000" transform="matrix(0.0833333 0 0 0.0833333 -116.517 -355.917)" d="M 4210.08,4901.92 L 4198.88,4901.92 L 4198.88,4612.48 L 4210.08,4612.48 L 4210.08,4901.92 Z " />
<path stroke="none" fill="#000000" transform="matrix(0.0833333 0 0 0.0833333 -116.517 -355.917)" d="M 4250.51,4585.9 L 4239.31,4592.37 L 3953.8,4427.54 L 3953.8,4414.61 L 4250.51,4585.9 Z " />
<path stroke="none" fill="#000000" transform="matrix(0.0833333 0 0 0.0833333 -116.517 -355.917)" d="M 3953.8,4414.61 L 3953.8,4427.54 L 3668.29,4592.37 L 3662.8,4589.2 L 3662.77,4582.87 L 3953.8,4414.61 Z " />
<path stroke="none" fill="#000000" transform="matrix(0.0833333 0 0 0.0833333 -116.517 -355.917)" d="M 3951,4462.91 L 3956.6,4472.61 L 3705.92,4617.33 L 3700.32,4607.63 L 3951,4462.91 Z " />
<path stroke="none" fill="#000000" transform="matrix(0.0833333 0 0 0.0833333 -116.517 -355.917)" d="M 3657.3,4592.34 L 3662.8,4589.2 L 3668.29,4592.37 L 3668.29,4922.03 L 3657.09,4928.5 L 3657.3,4592.34 Z " />
<path stroke="none" fill="#000000" transform="matrix(0.0833333 0 0 0.0833333 -116.517 -355.917)" d="M 3657.09,4928.5 L 3668.29,4922.03 L 3953.8,5086.86 L 3953.8,5099.79 L 3657.09,4928.5 Z " />
<path stroke="none" fill="#000000" transform="matrix(0.0833333 0 0 0.0833333 -116.517 -355.917)" d="M 3700.32,4906.77 L 3705.92,4897.07 L 3956.6,5041.79 L 3951,5051.49 L 3700.32,4906.77 Z " />
<path stroke="none" fill="#000000" transform="matrix(0.0833333 0 0 0.0833333 -116.517 -355.917)" d="M 3953.8,5099.79 L 3953.8,5086.86 L 4239.31,4922.03 L 4244.8,4925.2 L 4244.8,4931.54 L 3953.8,5099.79 Z " />
<path stroke="none" fill="#000000" transform="matrix(0.0833333 0 0 0.0833333 -116.517 -355.917)" d="M 4826.8,4931.54 L 4826.8,4925.2 L 4832.29,4922.03 L 5117.8,5086.86 L 5117.8,5099.79 L 4826.8,4931.54 Z " />
<path stroke="none" fill="#000000" transform="matrix(0.0833333 0 0 0.0833333 -116.517 -355.917)" d="M 4864.32,4906.77 L 4869.92,4897.07 L 5120.59,5041.79 L 5114.99,5051.49 L 4864.32,4906.77 Z " />
<path stroke="none" fill="#000000" transform="matrix(0.0833333 0 0 0.0833333 -116.517 -355.917)" d="M 5117.8,5099.79 L 5117.8,5086.86 L 5403.11,4922.03 L 5414.31,4928.5 L 5117.8,5099.79 Z " />
<path stroke="none" fill="#000000" transform="matrix(0.0833333 0 0 0.0833333 -116.517 -355.917)" d="M 5414.31,4928.5 L 5403.11,4922.03 L 5403.11,4592.37 L 5408.6,4589.2 L 5414.1,4592.34 L 5414.31,4928.5 Z " />
<path stroke="none" fill="#000000" transform="matrix(0.0833333 0 0 0.0833333 -116.517 -355.917)" d="M 5373.88,4901.93 L 5362.68,4901.93 L 5362.68,4612.47 L 5373.88,4612.47 L 5373.88,4901.93 Z " />
<path stroke="none" fill="#000000" transform="matrix(0.0833333 0 0 0.0833333 -116.517 -355.917)" d="M 5408.63,4582.87 L 5408.6,4589.2 L 5403.11,4592.37 L 5117.8,4427.54 L 5117.8,4414.61 L 5408.63,4582.87 Z " />
<path stroke="none" fill="#000000" transform="matrix(0.0833333 0 0 0.0833333 -116.517 -355.917)" d="M 5117.8,4414.61 L 5117.8,4427.54 L 4832.29,4592.37 L 4821.09,4585.9 L 5117.8,4414.61 Z " />
<path stroke="none" fill="#000000" transform="matrix(0.0833333 0 0 0.0833333 -116.517 -355.917)" d="M 5114.99,4462.91 L 5120.59,4472.61 L 4869.92,4617.33 L 4864.32,4607.63 L 5114.99,4462.91 Z " />
<path stroke="none" fill="#000000" transform="matrix(0.0833333 0 0 0.0833333 -116.517 -355.917)" d="M 4821.09,4585.9 L 4832.29,4592.37 L 4832.29,4922.03 L 4826.8,4925.2 L 4821.31,4922.03 L 4821.09,4585.9 Z " />
<text x="0" y="0" stroke="none" fill="#000000" transform="matrix(0.0833333 0 0 0.0833333 355.08 16.1417)" font-style="normal" font-weight="normal" font-size="112px" font-family="Arial" >
NH</text>
<text x="0" y="0" stroke="none" fill="#000000" transform="matrix(0.0833333 0 0 0.0833333 368.56 18.225)" font-style="normal" font-weight="normal" font-size="84px" font-family="Arial" >
2</text>
<path stroke="none" fill="#000000" transform="matrix(0.0833333 0 0 0.0833333 -116.517 -355.917)" d="M 5414.1,4592.34 L 5408.6,4589.2 L 5408.63,4582.87 L 5634.69,4452.2 L 5640.29,4461.9 L 5414.1,4592.34 Z " />
<text x="0" y="0" stroke="none" fill="#000000" transform="matrix(0.0833333 0 0 0.0833333 150.463 16.1417)" font-style="normal" font-weight="normal" font-size="112px" font-family="Arial" >
H</text>
<text x="0" y="0" stroke="none" fill="#000000" transform="matrix(0.0833333 0 0 0.0833333 157.203 18.225)" font-style="normal" font-weight="normal" font-size="84px" font-family="Arial" >
2</text>
<text x="0" y="0" stroke="none" fill="#000000" transform="matrix(0.0833333 0 0 0.0833333 161.097 16.1417)" font-style="normal" font-weight="normal" font-size="112px" font-family="Arial" >
N</text>
<path stroke="none" fill="#000000" transform="matrix(0.0833333 0 0 0.0833333 -116.517 -355.917)" d="M 3662.77,4582.87 L 3662.8,4589.2 L 3657.3,4592.34 L 3430.74,4461.7 L 3436.34,4452 L 3662.77,4582.87 Z " />
<text x="0" y="0" stroke="none" fill="#000000" transform="matrix(0.0833333 0 0 0.0833333 3.70833 42.2333)" font-style="normal" font-weight="normal" font-size="134px" font-family="Times New Roman" >
2Ag</text>
<text x="0" y="0" stroke="none" fill="#000000" transform="matrix(0.0833333 0 0 0.0833333 22.9392 37.9833)" font-style="normal" font-weight="normal" font-size="100.5px" font-family="Times New Roman" >
+</text>
<text x="0" y="0" stroke="none" fill="#000000" transform="matrix(0.0833333 0 0 0.0833333 566.247 64.2583)" font-style="normal" font-weight="normal" font-size="112px" font-family="Arial" >
N</text>
<path stroke="none" fill="#000000" transform="matrix(0.0833333 0 0 0.0833333 -116.517 -355.917)" d="M 7936.89,4491.3 L 7948.09,4497.77 L 7948.1,4827.46 L 7942.6,4830.6 L 7937.1,4827.46 L 7936.89,4491.3 Z " />
<path stroke="none" fill="#000000" transform="matrix(0.0833333 0 0 0.0833333 -116.517 -355.917)" d="M 7977.32,4517.88 L 7988.52,4517.88 L 7988.52,4807.32 L 7977.32,4807.32 L 7977.32,4517.88 Z " />
<path stroke="none" fill="#000000" transform="matrix(0.0833333 0 0 0.0833333 -116.517 -355.917)" d="M 7942.6,4836.92 L 7942.6,4830.6 L 7948.1,4827.46 L 8178.34,4960.23 L 8172.74,4969.93 L 7942.6,4836.92 Z " />
<path stroke="none" fill="#000000" transform="matrix(0.0833333 0 0 0.0833333 -116.517 -355.917)" d="M 8293.8,4970.31 L 8288.2,4960.61 L 8519.1,4827.46 L 8524.6,4830.6 L 8524.57,4836.93 L 8293.8,4970.31 Z " />
<path stroke="none" fill="#000000" transform="matrix(0.0833333 0 0 0.0833333 -116.517 -355.917)" d="M 8273.64,4935.39 L 8268.04,4925.69 L 8481.48,4802.47 L 8487.08,4812.17 L 8273.64,4935.39 Z " />
<path stroke="none" fill="#000000" transform="matrix(0.0833333 0 0 0.0833333 -116.517 -355.917)" d="M 8530.09,4827.43 L 8524.6,4830.6 L 8519.1,4827.46 L 8519.11,4497.77 L 8530.31,4491.3 L 8530.09,4827.43 Z " />
<path stroke="none" fill="#000000" transform="matrix(0.0833333 0 0 0.0833333 -116.517 -355.917)" d="M 8530.31,4491.3 L 8519.11,4497.77 L 8233.6,4332.94 L 8233.6,4320.01 L 8530.31,4491.3 Z " />
<path stroke="none" fill="#000000" transform="matrix(0.0833333 0 0 0.0833333 -116.517 -355.917)" d="M 8487.08,4513.03 L 8481.48,4522.73 L 8230.8,4378.01 L 8236.4,4368.31 L 8487.08,4513.03 Z " />
<path stroke="none" fill="#000000" transform="matrix(0.0833333 0 0 0.0833333 -116.517 -355.917)" d="M 8233.6,4320.01 L 8233.6,4332.94 L 7948.09,4497.77 L 7936.89,4491.3 L 8233.6,4320.01 Z " />
<text x="0" y="0" stroke="none" fill="#000000" transform="matrix(0.0833333 0 0 0.0833333 517.503 64.2583)" font-style="normal" font-weight="normal" font-size="112px" font-family="Arial" >
O</text>
<path stroke="none" fill="#000000" transform="matrix(0.0833333 0 0 0.0833333 -116.517 -355.917)" d="M 7937.1,4827.46 L 7942.6,4830.6 L 7942.6,4836.92 L 7706.55,4973.44 L 7700.95,4963.74 L 7937.1,4827.46 Z " />
<path stroke="none" fill="#000000" transform="matrix(0.0833333 0 0 0.0833333 -116.517 -355.917)" d="M 8524.57,4836.93 L 8524.6,4830.6 L 8530.09,4827.43 L 8821.33,4995.32 L 8810.13,5001.79 L 8524.57,4836.93 Z " />
<text x="0" y="0" stroke="none" fill="#000000" transform="matrix(0.0833333 0 0 0.0833333 612.807 92.2583)" font-style="normal" font-weight="normal" font-size="112px" font-family="Arial" >
O</text>
<path stroke="none" fill="#000000" transform="matrix(0.0833333 0 0 0.0833333 -116.517 -355.917)" d="M 8810.13,5001.79 L 8821.33,4995.32 L 8821.2,5276.2 L 8810,5276.2 L 8810.13,5001.79 Z " />
<path stroke="none" fill="#000000" transform="matrix(0.0833333 0 0 0.0833333 -116.517 -355.917)" d="M 8769.68,5021.88 L 8780.88,5021.88 L 8780.88,5276.2 L 8769.68,5276.2 L 8769.68,5021.88 Z " />
<path stroke="none" fill="#000000" transform="matrix(0.0833333 0 0 0.0833333 -116.517 -355.917)" d="M 7602.99,4963.95 L 7597.39,4973.65 L 7358,4835.45 L 7363.6,4825.75 L 7602.99,4963.95 Z " />
<text x="0" y="0" stroke="none" fill="#000000" transform="matrix(0.0833333 0 0 0.0833333 471.583 52.0833)" font-style="normal" font-weight="normal" font-size="134px" font-family="Times New Roman" >
2</text>
<path stroke="none" fill="#000000" transform="matrix(0.0833333 0 0 0.0833333 -116.517 -355.917)" d="M 2400.93,4699.5 L 2449.47,4699.5 L 2449.47,4708.5 L 2400.93,4708.5 Z " />
<path stroke="none" fill="#000000" transform="matrix(0.0833333 0 0 0.0833333 -116.517 -355.917)" d="M 2429.7,4679.73 L 2429.7,4728.27 L 2420.7,4728.27 L 2420.7,4679.73 Z " />
<path stroke="none" fill="#000000" transform="matrix(0.0833333 0 0 0.0833333 -116.517 -355.917)" d="M 6420.93,4699.5 L 6469.47,4699.5 L 6469.47,4708.5 L 6420.93,4708.5 Z " />
<path stroke="none" fill="#000000" transform="matrix(0.0833333 0 0 0.0833333 -116.517 -355.917)" d="M 6449.7,4679.73 L 6449.7,4728.27 L 6440.7,4728.27 L 6440.7,4679.73 Z " />
</svg>
