<?xml version="1.0" standalone="no" ?>
<!DOCTYPE svg PUBLIC "-//W3C//DTD SVG 1.1//EN" "http://www.w3.org/Graphics/SVG/1.1/DTD/svg11.dtd">
<svg width="752px" height="259px" viewBox="0 0 752 259" style="background-color: #ffffff00" xmlns="http://www.w3.org/2000/svg" xmlns:xlink="http://www.w3.org/1999/xlink" version="1.1" >
<path stroke="none" fill="#000000" transform="matrix(0.0833333 0 0 0.0833333 -50.175 -413.083)" d="M 9160.94,5911.34 L 9151.15,5893.9 L 9575.42,5655.79 L 9585.21,5673.24 L 9160.94,5911.34 Z " />
<path stroke="none" fill="#000000" transform="matrix(0.0833333 0 0 0.0833333 -50.175 -413.083)" d="M 8814.6,5977.75 L 8814.09,5967.77 L 8834.44,5959.65 L 8954.58,5950.56 L 8955.6,5970.53 L 8814.6,5977.75 Z " />
<text x="0" y="0" stroke="none" fill="#000000" transform="matrix(0.0833333 0 0 0.0833333 698.563 89.6699)" font-style="normal" font-weight="normal" font-size="200px" font-family="Arial" >
O</text>
<path stroke="none" fill="#000000" transform="matrix(0.0833333 0 0 0.0833333 -50.175 -413.083)" d="M 1180.75,5890.98 L 1171.01,5908.45 L 742.969,5669.89 L 752.706,5652.42 L 1180.75,5890.98 Z " />
<path stroke="none" fill="#000000" transform="matrix(0.0833333 0 0 0.0833333 -50.175 -413.083)" d="M 1521.62,5959.05 L 1541.57,5967.77 L 1540.98,5977.75 L 1376.42,5968.03 L 1377.6,5948.07 L 1521.62,5959.05 Z " />
<text x="0" y="0" stroke="none" fill="#000000" transform="matrix(0.0833333 0 0 0.0833333 49.1013 89.3896)" font-style="normal" font-weight="normal" font-size="200px" font-family="Arial" >
O</text>
<path stroke="none" fill="#000000" transform="matrix(0.0833333 0 0 0.0833333 -50.175 -413.083)" d="M 8310.73,5985.21 L 8323.02,6001.26 L 8068.4,6262.7 L 8047.87,6271.02 L 8041.84,6262.99 L 8310.73,5985.21 Z " />
<path stroke="none" fill="#000000" transform="matrix(0.0833333 0 0 0.0833333 -50.175 -413.083)" d="M 8831.96,5692.65 L 8837.77,5712.34 L 8323.02,6001.26 L 8310.73,5985.21 L 8831.96,5692.65 Z " />
<path stroke="none" fill="#000000" transform="matrix(0.0833333 0 0 0.0833333 -50.175 -413.083)" d="M 8834.13,5709.09 L 8843.92,5726.54 L 8331.33,6014.21 L 8321.54,5996.77 L 8834.13,5709.09 Z " />
<path stroke="none" fill="#000000" transform="matrix(0.0833333 0 0 0.0833333 -50.175 -413.083)" d="M 9112.88,5676 L 9061.79,5699.32 L 8837.77,5712.34 L 8831.96,5692.65 L 9112.88,5676 Z " />
<path stroke="none" fill="#000000" transform="matrix(0.0833333 0 0 0.0833333 -50.175 -413.083)" d="M 8834.44,5959.65 L 8814.09,5967.77 L 8808.02,5959.77 L 9061.79,5699.32 L 9112.88,5676 L 8834.44,5959.65 L 8834.44,5959.65 Z " />
<path stroke="none" fill="#000000" transform="matrix(0.0833333 0 0 0.0833333 -50.175 -413.083)" d="M 8806.78,5955.9 L 8792.41,5941.99 L 9017.59,5709.55 L 9031.96,5723.46 L 8806.78,5955.9 L 8806.78,5955.9 Z " />
<path stroke="none" fill="#000000" transform="matrix(0.0833333 0 0 0.0833333 -50.175 -413.083)" d="M 8405.37,6208.62 L 8395.58,6191.18 L 8808.02,5959.77 L 8814.09,5967.77 L 8817.66,5977.16 L 8405.37,6208.62 Z " />
<path stroke="none" fill="#000000" transform="matrix(0.0833333 0 0 0.0833333 -50.175 -413.083)" d="M 8048.38,6281.01 L 8047.87,6271.02 L 8068.4,6262.7 L 8199.89,6253.22 L 8200.92,6273.2 L 8048.38,6281.01 Z " />
<path stroke="none" fill="#000000" transform="matrix(0.0833333 0 0 0.0833333 -50.175 -413.083)" d="M 8135.93,6241.26 L 8134.91,6221.28 L 8198.09,6218.05 L 8199.11,6238.02 L 8135.93,6241.26 Z " />
<text x="0" y="0" stroke="none" fill="#000000" transform="matrix(0.0833333 0 0 0.0833333 635.175 114.941)" font-style="normal" font-weight="normal" font-size="200px" font-family="Arial" >
N</text>
<path stroke="none" fill="#000000" transform="matrix(0.0833333 0 0 0.0833333 -50.175 -413.083)" d="M 2157.76,6273.92 L 2158.94,6253.95 L 2315.23,6265.5 L 2335.31,6274.38 L 2334.72,6284.37 L 2157.76,6273.92 Z " />
<path stroke="none" fill="#000000" transform="matrix(0.0833333 0 0 0.0833333 -50.175 -413.083)" d="M 1538.17,5977.24 L 1541.57,5967.77 L 1547.76,5959.84 L 1963.22,6191.32 L 1953.48,6208.79 L 1538.17,5977.24 Z " />
<path stroke="none" fill="#000000" transform="matrix(0.0833333 0 0 0.0833333 -50.175 -413.083)" d="M 1547.11,5963.41 L 1556.84,5945.94 L 1971.25,6176.91 L 1961.52,6194.38 L 1547.11,5963.41 Z " />
<path stroke="none" fill="#000000" transform="matrix(0.0833333 0 0 0.0833333 -50.175 -413.083)" d="M 1264.66,5679.53 L 1313.52,5703.01 L 1547.76,5959.84 L 1541.57,5967.77 L 1521.62,5959.05 L 1264.66,5679.53 Z " />
<path stroke="none" fill="#000000" transform="matrix(0.0833333 0 0 0.0833333 -50.175 -413.083)" d="M 1568.01,5699.41 L 1562.18,5719.08 L 1313.52,5703.01 L 1264.66,5679.53 L 1568.01,5699.41 Z " />
<path stroke="none" fill="#000000" transform="matrix(0.0833333 0 0 0.0833333 -50.175 -413.083)" d="M 1555.54,5734.82 L 1554.36,5754.79 L 1377.91,5744.37 L 1379.09,5724.4 L 1555.54,5734.82 Z " />
<path stroke="none" fill="#000000" transform="matrix(0.0833333 0 0 0.0833333 -50.175 -413.083)" d="M 2092.94,5992.01 L 2080.38,6007.91 L 1562.18,5719.08 L 1568.01,5699.41 L 2092.94,5992.01 Z " />
<path stroke="none" fill="#000000" transform="matrix(0.0833333 0 0 0.0833333 -50.175 -413.083)" d="M 2341.46,6266.42 L 2335.31,6274.38 L 2315.23,6265.5 L 2080.38,6007.91 L 2092.94,5992.01 L 2341.46,6266.42 Z " />
<path stroke="none" fill="#000000" transform="matrix(0.0833333 0 0 0.0833333 -50.175 -413.083)" d="M 2279.56,6237.42 L 2264.74,6250.85 L 2062.43,6027.67 L 2077.24,6014.24 L 2279.56,6237.42 Z " />
<text x="0" y="0" stroke="none" fill="#000000" transform="matrix(0.0833333 0 0 0.0833333 115.71 114.941)" font-style="normal" font-weight="normal" font-size="200px" font-family="Arial" >
N</text>
<path stroke="none" fill="#000000" transform="matrix(0.0833333 0 0 0.0833333 -50.175 -413.083)" d="M 2863.07,6557.01 L 2850.62,6572.99 L 2331.93,6283.88 L 2335.31,6274.38 L 2341.46,6266.42 L 2863.07,6557.01 Z " />
<path stroke="none" fill="#000000" transform="matrix(0.0833333 0 0 0.0833333 -50.175 -413.083)" d="M 7536.04,6569.69 L 7523.86,6553.57 L 8041.84,6262.99 L 8047.87,6271.02 L 8051.38,6280.46 L 7536.04,6569.69 Z " />
<path stroke="none" fill="#000000" transform="matrix(0.0833333 0 0 0.0833333 -50.175 -413.083)" d="M 7354.42,6757.37 L 7340.05,6743.45 L 7523.02,6554.59 L 7537.38,6568.5 L 7354.42,6757.37 Z " />
<path stroke="none" fill="#000000" transform="matrix(0.0833333 0 0 0.0833333 -50.175 -413.083)" d="M 7302.71,6707.27 L 7288.34,6693.35 L 7471.3,6504.49 L 7485.67,6518.41 L 7302.71,6707.27 Z " />
<path stroke="none" fill="#000000" transform="matrix(0.0833333 0 0 0.0833333 -50.175 -413.083)" d="M 3029.36,6740.62 L 3014.54,6754.05 L 2849.16,6571.62 L 2863.98,6558.19 L 3029.36,6740.62 Z " />
<path stroke="none" fill="#000000" transform="matrix(0.0833333 0 0 0.0833333 -50.175 -413.083)" d="M 2976.01,6788.98 L 2961.2,6802.41 L 2803.77,6628.75 L 2818.59,6615.32 L 2976.01,6788.98 Z " />
<path stroke="none" fill="#000000" transform="matrix(0.0833333 0 0 0.0833333 -50.175 -413.083)" d="M 6749.48,7137.86 L 6743.41,7129.87 L 6740.35,7120.22 L 7145.55,6892.71 L 7155.34,6910.15 L 6749.48,7137.86 Z " />
<text x="0" y="0" stroke="none" fill="#000000" transform="matrix(0.0833333 0 0 0.0833333 548.897 163.362)" font-style="normal" font-weight="normal" font-size="200px" font-family="Arial" >
N</text>
<path stroke="none" fill="#000000" transform="matrix(0.0833333 0 0 0.0833333 -50.175 -413.083)" d="M 3629.65,7120.21 L 3626.62,7129.87 L 3620.43,7137.79 L 3210.87,6909.6 L 3220.61,6892.13 L 3629.65,7120.21 Z " />
<text x="0" y="0" stroke="none" fill="#000000" transform="matrix(0.0833333 0 0 0.0833333 202.587 163.362)" font-style="normal" font-weight="normal" font-size="200px" font-family="Arial" >
N</text>
<path stroke="none" fill="#000000" transform="matrix(0.0833333 0 0 0.0833333 -50.175 -413.083)" d="M 5970.93,7425.11 L 5983.22,7441.15 L 5729.49,7701.57 L 5708.07,7710.92 L 5702.04,7702.88 L 5970.93,7425.11 Z " />
<path stroke="none" fill="#000000" transform="matrix(0.0833333 0 0 0.0833333 -50.175 -413.083)" d="M 6492.16,7132.54 L 6497.97,7152.24 L 5983.22,7441.15 L 5970.93,7425.11 L 6492.16,7132.54 Z " />
<path stroke="none" fill="#000000" transform="matrix(0.0833333 0 0 0.0833333 -50.175 -413.083)" d="M 6494.33,7148.99 L 6504.12,7166.43 L 5991.53,7454.1 L 5981.74,7436.66 L 6494.33,7148.99 Z " />
<path stroke="none" fill="#000000" transform="matrix(0.0833333 0 0 0.0833333 -50.175 -413.083)" d="M 6740.35,7120.22 L 6743.41,7129.87 L 6721.99,7139.22 L 6497.97,7152.24 L 6492.16,7132.54 L 6740.35,7120.22 Z " />
<path stroke="none" fill="#000000" transform="matrix(0.0833333 0 0 0.0833333 -50.175 -413.083)" d="M 6480.55,7415.67 L 6468.26,7399.63 L 6721.99,7139.22 L 6743.41,7129.87 L 6749.48,7137.86 L 6480.55,7415.67 L 6480.55,7415.67 Z " />
<path stroke="none" fill="#000000" transform="matrix(0.0833333 0 0 0.0833333 -50.175 -413.083)" d="M 6466.98,7395.8 L 6452.61,7381.88 L 6677.79,7149.44 L 6692.16,7163.36 L 6466.98,7395.8 L 6466.98,7395.8 Z " />
<path stroke="none" fill="#000000" transform="matrix(0.0833333 0 0 0.0833333 -50.175 -413.083)" d="M 5959.32,7708.24 L 5953.51,7688.54 L 6468.26,7399.63 L 6480.55,7415.67 L 5959.32,7708.24 Z " />
<path stroke="none" fill="#000000" transform="matrix(0.0833333 0 0 0.0833333 -50.175 -413.083)" d="M 5711.18,7720.56 L 5708.07,7710.92 L 5729.49,7701.57 L 5953.51,7688.54 L 5959.32,7708.24 L 5711.18,7720.56 Z " />
<path stroke="none" fill="#000000" transform="matrix(0.0833333 0 0 0.0833333 -50.175 -413.083)" d="M 5799.39,7679.67 L 5798.37,7659.69 L 5945.69,7652.15 L 5946.72,7672.12 L 5799.39,7679.67 Z " />
<path stroke="none" fill="#000000" transform="matrix(0.0833333 0 0 0.0833333 -50.175 -413.083)" d="M 4393.92,7704.84 L 4399.75,7685.17 L 4648.4,7701.23 L 4669.14,7710.92 L 4666.05,7720.57 L 4393.92,7704.84 Z " />
<path stroke="none" fill="#000000" transform="matrix(0.0833333 0 0 0.0833333 -50.175 -413.083)" d="M 3868.99,7412.24 L 3881.55,7396.34 L 4399.75,7685.17 L 4393.92,7704.84 L 3868.99,7412.24 Z " />
<path stroke="none" fill="#000000" transform="matrix(0.0833333 0 0 0.0833333 -50.175 -413.083)" d="M 3880.89,7400 L 3890.63,7382.53 L 4406.25,7669.91 L 4396.51,7687.38 L 3880.89,7400 Z " />
<path stroke="none" fill="#000000" transform="matrix(0.0833333 0 0 0.0833333 -50.175 -413.083)" d="M 3620.43,7137.79 L 3626.62,7129.87 L 3647.35,7139.55 L 3881.55,7396.34 L 3868.99,7412.24 L 3620.43,7137.79 Z " />
<path stroke="none" fill="#000000" transform="matrix(0.0833333 0 0 0.0833333 -50.175 -413.083)" d="M 3901.84,7135.94 L 3896,7155.61 L 3647.35,7139.55 L 3626.62,7129.87 L 3629.65,7120.21 L 3901.84,7135.94 Z " />
<path stroke="none" fill="#000000" transform="matrix(0.0833333 0 0 0.0833333 -50.175 -413.083)" d="M 3889.36,7171.36 L 3888.19,7191.32 L 3711.74,7180.9 L 3712.92,7160.94 L 3889.36,7171.36 Z " />
<path stroke="none" fill="#000000" transform="matrix(0.0833333 0 0 0.0833333 -50.175 -413.083)" d="M 4426.77,7428.54 L 4414.2,7444.45 L 3896,7155.61 L 3901.84,7135.94 L 4426.77,7428.54 Z " />
<path stroke="none" fill="#000000" transform="matrix(0.0833333 0 0 0.0833333 -50.175 -413.083)" d="M 4675.29,7702.95 L 4669.14,7710.92 L 4648.4,7701.23 L 4414.2,7444.45 L 4426.77,7428.54 L 4675.29,7702.95 Z " />
<path stroke="none" fill="#000000" transform="matrix(0.0833333 0 0 0.0833333 -50.175 -413.083)" d="M 4613.39,7673.95 L 4598.57,7687.38 L 4396.25,7464.2 L 4411.07,7450.77 L 4613.39,7673.95 Z " />
<path stroke="none" fill="#000000" transform="matrix(0.0833333 0 0 0.0833333 -50.175 -413.083)" d="M 5190.42,8013.12 L 5190.38,7990.19 L 5702.04,7702.88 L 5708.07,7710.92 L 5711.18,7720.56 L 5190.42,8013.12 Z " />
<path stroke="none" fill="#000000" transform="matrix(0.0833333 0 0 0.0833333 -50.175 -413.083)" d="M 4666.05,7720.57 L 4669.14,7710.92 L 4675.29,7702.95 L 5190.38,7990.19 L 5190.42,8013.12 L 4666.05,7720.57 Z " />
<path stroke="none" fill="#808080" transform="matrix(0.0833333 0 0 0.0833333 -50.175 -413.083)" d="M 2159.2,6507 A 360,360 0 1 0 2879.2,6507A 360,360 0 1 0 2159.2,6507Z " />
<path stroke="none" fill="#878787" transform="matrix(0.0833333 0 0 0.0833333 -50.175 -413.083)" d="M 2163.42,6501.37 A 350.156,350.156 0 1 0 2863.73,6501.37A 350.156,350.156 0 1 0 2163.42,6501.37Z " />
<path stroke="none" fill="#8f8f8f" transform="matrix(0.0833333 0 0 0.0833333 -50.175 -413.083)" d="M 2167.64,6495.75 A 340.312,340.312 0 1 0 2848.26,6495.75A 340.312,340.312 0 1 0 2167.64,6495.75Z " />
<path stroke="none" fill="#969696" transform="matrix(0.0833333 0 0 0.0833333 -50.175 -413.083)" d="M 2171.86,6490.12 A 330.469,330.469 0 1 0 2832.79,6490.12A 330.469,330.469 0 1 0 2171.86,6490.12Z " />
<path stroke="none" fill="#9d9d9d" transform="matrix(0.0833333 0 0 0.0833333 -50.175 -413.083)" d="M 2176.08,6484.5 A 320.625,320.625 0 1 0 2817.33,6484.5A 320.625,320.625 0 1 0 2176.08,6484.5Z " />
<path stroke="none" fill="#a4a4a4" transform="matrix(0.0833333 0 0 0.0833333 -50.175 -413.083)" d="M 2180.29,6478.87 A 310.781,310.781 0 1 0 2801.86,6478.87A 310.781,310.781 0 1 0 2180.29,6478.87Z " />
<path stroke="none" fill="#ababab" transform="matrix(0.0833333 0 0 0.0833333 -50.175 -413.083)" d="M 2184.51,6473.25 A 300.938,300.938 0 1 0 2786.39,6473.25A 300.938,300.938 0 1 0 2184.51,6473.25Z " />
<path stroke="none" fill="#b1b1b1" transform="matrix(0.0833333 0 0 0.0833333 -50.175 -413.083)" d="M 2188.73,6467.62 A 291.094,291.094 0 1 0 2770.92,6467.62A 291.094,291.094 0 1 0 2188.73,6467.62Z " />
<path stroke="none" fill="#b7b7b7" transform="matrix(0.0833333 0 0 0.0833333 -50.175 -413.083)" d="M 2192.95,6462 A 281.25,281.25 0 1 0 2755.45,6462A 281.25,281.25 0 1 0 2192.95,6462Z " />
<path stroke="none" fill="#bdbdbd" transform="matrix(0.0833333 0 0 0.0833333 -50.175 -413.083)" d="M 2197.17,6456.37 A 271.406,271.406 0 1 0 2739.98,6456.37A 271.406,271.406 0 1 0 2197.17,6456.37Z " />
<path stroke="none" fill="#c2c2c2" transform="matrix(0.0833333 0 0 0.0833333 -50.175 -413.083)" d="M 2201.39,6450.75 A 261.562,261.562 0 1 0 2724.51,6450.75A 261.562,261.562 0 1 0 2201.39,6450.75Z " />
<path stroke="none" fill="#c8c8c8" transform="matrix(0.0833333 0 0 0.0833333 -50.175 -413.083)" d="M 2205.61,6445.12 A 251.719,251.719 0 1 0 2709.04,6445.12A 251.719,251.719 0 1 0 2205.61,6445.12Z " />
<path stroke="none" fill="#cdcdcd" transform="matrix(0.0833333 0 0 0.0833333 -50.175 -413.083)" d="M 2209.83,6439.5 A 241.875,241.875 0 1 0 2693.58,6439.5A 241.875,241.875 0 1 0 2209.83,6439.5Z " />
<path stroke="none" fill="#d2d2d2" transform="matrix(0.0833333 0 0 0.0833333 -50.175 -413.083)" d="M 2214.04,6433.87 A 232.031,232.031 0 1 0 2678.11,6433.87A 232.031,232.031 0 1 0 2214.04,6433.87Z " />
<path stroke="none" fill="#d6d6d6" transform="matrix(0.0833333 0 0 0.0833333 -50.175 -413.083)" d="M 2218.26,6428.25 A 222.188,222.188 0 1 0 2662.64,6428.25A 222.188,222.188 0 1 0 2218.26,6428.25Z " />
<path stroke="none" fill="#dbdbdb" transform="matrix(0.0833333 0 0 0.0833333 -50.175 -413.083)" d="M 2222.48,6422.62 A 212.344,212.344 0 1 0 2647.17,6422.62A 212.344,212.344 0 1 0 2222.48,6422.62Z " />
<path stroke="none" fill="#dfdfdf" transform="matrix(0.0833333 0 0 0.0833333 -50.175 -413.083)" d="M 2226.7,6417 A 202.5,202.5 0 1 0 2631.7,6417A 202.5,202.5 0 1 0 2226.7,6417Z " />
<path stroke="none" fill="#e3e3e3" transform="matrix(0.0833333 0 0 0.0833333 -50.175 -413.083)" d="M 2230.92,6411.37 A 192.656,192.656 0 1 0 2616.23,6411.37A 192.656,192.656 0 1 0 2230.92,6411.37Z " />
<path stroke="none" fill="#e6e6e6" transform="matrix(0.0833333 0 0 0.0833333 -50.175 -413.083)" d="M 2235.14,6405.75 A 182.812,182.812 0 1 0 2600.76,6405.75A 182.812,182.812 0 1 0 2235.14,6405.75Z " />
<path stroke="none" fill="#eaeaea" transform="matrix(0.0833333 0 0 0.0833333 -50.175 -413.083)" d="M 2239.36,6400.12 A 172.969,172.969 0 1 0 2585.29,6400.12A 172.969,172.969 0 1 0 2239.36,6400.12Z " />
<path stroke="none" fill="#ededed" transform="matrix(0.0833333 0 0 0.0833333 -50.175 -413.083)" d="M 2243.58,6394.5 A 163.125,163.125 0 1 0 2569.83,6394.5A 163.125,163.125 0 1 0 2243.58,6394.5Z " />
<path stroke="none" fill="#efefef" transform="matrix(0.0833333 0 0 0.0833333 -50.175 -413.083)" d="M 2247.79,6388.87 A 153.281,153.281 0 1 0 2554.36,6388.87A 153.281,153.281 0 1 0 2247.79,6388.87Z " />
<path stroke="none" fill="#f2f2f2" transform="matrix(0.0833333 0 0 0.0833333 -50.175 -413.083)" d="M 2252.01,6383.25 A 143.438,143.438 0 1 0 2538.89,6383.25A 143.438,143.438 0 1 0 2252.01,6383.25Z " />
<path stroke="none" fill="#f4f4f4" transform="matrix(0.0833333 0 0 0.0833333 -50.175 -413.083)" d="M 2256.23,6377.62 A 133.594,133.594 0 1 0 2523.42,6377.62A 133.594,133.594 0 1 0 2256.23,6377.62Z " />
<path stroke="none" fill="#f7f7f7" transform="matrix(0.0833333 0 0 0.0833333 -50.175 -413.083)" d="M 2260.45,6372 A 123.75,123.75 0 1 0 2507.95,6372A 123.75,123.75 0 1 0 2260.45,6372Z " />
<path stroke="none" fill="#f8f8f8" transform="matrix(0.0833333 0 0 0.0833333 -50.175 -413.083)" d="M 2264.67,6366.37 A 113.906,113.906 0 1 0 2492.48,6366.37A 113.906,113.906 0 1 0 2264.67,6366.37Z " />
<path stroke="none" fill="#fafafa" transform="matrix(0.0833333 0 0 0.0833333 -50.175 -413.083)" d="M 2268.89,6360.75 A 104.062,104.062 0 1 0 2477.01,6360.75A 104.062,104.062 0 1 0 2268.89,6360.75Z " />
<path stroke="none" fill="#fbfbfb" transform="matrix(0.0833333 0 0 0.0833333 -50.175 -413.083)" d="M 2273.11,6355.12 A 94.2188,94.2188 0 1 0 2461.54,6355.12A 94.2188,94.2188 0 1 0 2273.11,6355.12Z " />
<path stroke="none" fill="#fdfdfd" transform="matrix(0.0833333 0 0 0.0833333 -50.175 -413.083)" d="M 2277.33,6349.5 A 84.375,84.375 0 1 0 2446.08,6349.5A 84.375,84.375 0 1 0 2277.33,6349.5Z " />
<path stroke="none" fill="#fdfdfd" transform="matrix(0.0833333 0 0 0.0833333 -50.175 -413.083)" d="M 2281.54,6343.87 A 74.5312,74.5312 0 1 0 2430.61,6343.87A 74.5312,74.5312 0 1 0 2281.54,6343.87Z " />
<path stroke="none" fill="#fefefe" transform="matrix(0.0833333 0 0 0.0833333 -50.175 -413.083)" d="M 2285.76,6338.25 A 64.6875,64.6875 0 1 0 2415.14,6338.25A 64.6875,64.6875 0 1 0 2285.76,6338.25Z " />
<path stroke="none" fill="#fefefe" transform="matrix(0.0833333 0 0 0.0833333 -50.175 -413.083)" d="M 2289.98,6332.62 A 54.8438,54.8438 0 1 0 2399.67,6332.62A 54.8438,54.8438 0 1 0 2289.98,6332.62Z " />
<path stroke="#808080" stroke-width="20" fill="none" transform="matrix(0.0833333 0 0 0.0833333 -50.175 -413.083)" d="M 2159.2,6507 A 360,360 0 1 0 2879.2,6507A 360,360 0 1 0 2159.2,6507Z " />
<text x="0" y="0" stroke="none" fill="#000000" transform="matrix(0.0833333 0 0 0.0833333 143.537 135.917)" font-style="normal" font-weight="normal" font-size="240px" font-family="Times New Roman" >
Ag</text>
<text x="0" y="0" stroke="none" fill="#000000" transform="matrix(0.0833333 0 0 0.0833333 167.98 128.167)" font-style="normal" font-weight="normal" font-size="180px" font-family="Times New Roman" >
+</text>
<path stroke="none" fill="#808080" transform="matrix(0.0833333 0 0 0.0833333 -50.175 -413.083)" d="M 7371.8,6483 A 360,360 0 1 0 8091.8,6483A 360,360 0 1 0 7371.8,6483Z " />
<path stroke="none" fill="#878787" transform="matrix(0.0833333 0 0 0.0833333 -50.175 -413.083)" d="M 7376.02,6477.37 A 350.156,350.156 0 1 0 8076.33,6477.37A 350.156,350.156 0 1 0 7376.02,6477.37Z " />
<path stroke="none" fill="#8f8f8f" transform="matrix(0.0833333 0 0 0.0833333 -50.175 -413.083)" d="M 7380.24,6471.75 A 340.312,340.312 0 1 0 8060.86,6471.75A 340.312,340.312 0 1 0 7380.24,6471.75Z " />
<path stroke="none" fill="#969696" transform="matrix(0.0833333 0 0 0.0833333 -50.175 -413.083)" d="M 7384.46,6466.12 A 330.469,330.469 0 1 0 8045.39,6466.12A 330.469,330.469 0 1 0 7384.46,6466.12Z " />
<path stroke="none" fill="#9d9d9d" transform="matrix(0.0833333 0 0 0.0833333 -50.175 -413.083)" d="M 7388.67,6460.5 A 320.625,320.625 0 1 0 8029.92,6460.5A 320.625,320.625 0 1 0 7388.67,6460.5Z " />
<path stroke="none" fill="#a4a4a4" transform="matrix(0.0833333 0 0 0.0833333 -50.175 -413.083)" d="M 7392.89,6454.87 A 310.781,310.781 0 1 0 8014.46,6454.87A 310.781,310.781 0 1 0 7392.89,6454.87Z " />
<path stroke="none" fill="#ababab" transform="matrix(0.0833333 0 0 0.0833333 -50.175 -413.083)" d="M 7397.11,6449.25 A 300.938,300.938 0 1 0 7998.99,6449.25A 300.938,300.938 0 1 0 7397.11,6449.25Z " />
<path stroke="none" fill="#b1b1b1" transform="matrix(0.0833333 0 0 0.0833333 -50.175 -413.083)" d="M 7401.33,6443.62 A 291.094,291.094 0 1 0 7983.52,6443.62A 291.094,291.094 0 1 0 7401.33,6443.62Z " />
<path stroke="none" fill="#b7b7b7" transform="matrix(0.0833333 0 0 0.0833333 -50.175 -413.083)" d="M 7405.55,6438 A 281.25,281.25 0 1 0 7968.05,6438A 281.25,281.25 0 1 0 7405.55,6438Z " />
<path stroke="none" fill="#bdbdbd" transform="matrix(0.0833333 0 0 0.0833333 -50.175 -413.083)" d="M 7409.77,6432.37 A 271.406,271.406 0 1 0 7952.58,6432.37A 271.406,271.406 0 1 0 7409.77,6432.37Z " />
<path stroke="none" fill="#c2c2c2" transform="matrix(0.0833333 0 0 0.0833333 -50.175 -413.083)" d="M 7413.99,6426.75 A 261.562,261.562 0 1 0 7937.11,6426.75A 261.562,261.562 0 1 0 7413.99,6426.75Z " />
<path stroke="none" fill="#c8c8c8" transform="matrix(0.0833333 0 0 0.0833333 -50.175 -413.083)" d="M 7418.21,6421.12 A 251.719,251.719 0 1 0 7921.64,6421.12A 251.719,251.719 0 1 0 7418.21,6421.12Z " />
<path stroke="none" fill="#cdcdcd" transform="matrix(0.0833333 0 0 0.0833333 -50.175 -413.083)" d="M 7422.42,6415.5 A 241.875,241.875 0 1 0 7906.17,6415.5A 241.875,241.875 0 1 0 7422.42,6415.5Z " />
<path stroke="none" fill="#d2d2d2" transform="matrix(0.0833333 0 0 0.0833333 -50.175 -413.083)" d="M 7426.64,6409.87 A 232.031,232.031 0 1 0 7890.71,6409.87A 232.031,232.031 0 1 0 7426.64,6409.87Z " />
<path stroke="none" fill="#d6d6d6" transform="matrix(0.0833333 0 0 0.0833333 -50.175 -413.083)" d="M 7430.86,6404.25 A 222.188,222.188 0 1 0 7875.24,6404.25A 222.188,222.188 0 1 0 7430.86,6404.25Z " />
<path stroke="none" fill="#dbdbdb" transform="matrix(0.0833333 0 0 0.0833333 -50.175 -413.083)" d="M 7435.08,6398.62 A 212.344,212.344 0 1 0 7859.77,6398.62A 212.344,212.344 0 1 0 7435.08,6398.62Z " />
<path stroke="none" fill="#dfdfdf" transform="matrix(0.0833333 0 0 0.0833333 -50.175 -413.083)" d="M 7439.3,6393 A 202.5,202.5 0 1 0 7844.3,6393A 202.5,202.5 0 1 0 7439.3,6393Z " />
<path stroke="none" fill="#e3e3e3" transform="matrix(0.0833333 0 0 0.0833333 -50.175 -413.083)" d="M 7443.52,6387.37 A 192.656,192.656 0 1 0 7828.83,6387.37A 192.656,192.656 0 1 0 7443.52,6387.37Z " />
<path stroke="none" fill="#e6e6e6" transform="matrix(0.0833333 0 0 0.0833333 -50.175 -413.083)" d="M 7447.74,6381.75 A 182.812,182.812 0 1 0 7813.36,6381.75A 182.812,182.812 0 1 0 7447.74,6381.75Z " />
<path stroke="none" fill="#eaeaea" transform="matrix(0.0833333 0 0 0.0833333 -50.175 -413.083)" d="M 7451.96,6376.12 A 172.969,172.969 0 1 0 7797.89,6376.12A 172.969,172.969 0 1 0 7451.96,6376.12Z " />
<path stroke="none" fill="#ededed" transform="matrix(0.0833333 0 0 0.0833333 -50.175 -413.083)" d="M 7456.17,6370.5 A 163.125,163.125 0 1 0 7782.42,6370.5A 163.125,163.125 0 1 0 7456.17,6370.5Z " />
<path stroke="none" fill="#efefef" transform="matrix(0.0833333 0 0 0.0833333 -50.175 -413.083)" d="M 7460.39,6364.87 A 153.281,153.281 0 1 0 7766.96,6364.87A 153.281,153.281 0 1 0 7460.39,6364.87Z " />
<path stroke="none" fill="#f2f2f2" transform="matrix(0.0833333 0 0 0.0833333 -50.175 -413.083)" d="M 7464.61,6359.25 A 143.438,143.438 0 1 0 7751.49,6359.25A 143.438,143.438 0 1 0 7464.61,6359.25Z " />
<path stroke="none" fill="#f4f4f4" transform="matrix(0.0833333 0 0 0.0833333 -50.175 -413.083)" d="M 7468.83,6353.62 A 133.594,133.594 0 1 0 7736.02,6353.62A 133.594,133.594 0 1 0 7468.83,6353.62Z " />
<path stroke="none" fill="#f7f7f7" transform="matrix(0.0833333 0 0 0.0833333 -50.175 -413.083)" d="M 7473.05,6348 A 123.75,123.75 0 1 0 7720.55,6348A 123.75,123.75 0 1 0 7473.05,6348Z " />
<path stroke="none" fill="#f8f8f8" transform="matrix(0.0833333 0 0 0.0833333 -50.175 -413.083)" d="M 7477.27,6342.37 A 113.906,113.906 0 1 0 7705.08,6342.37A 113.906,113.906 0 1 0 7477.27,6342.37Z " />
<path stroke="none" fill="#fafafa" transform="matrix(0.0833333 0 0 0.0833333 -50.175 -413.083)" d="M 7481.49,6336.75 A 104.062,104.062 0 1 0 7689.61,6336.75A 104.062,104.062 0 1 0 7481.49,6336.75Z " />
<path stroke="none" fill="#fbfbfb" transform="matrix(0.0833333 0 0 0.0833333 -50.175 -413.083)" d="M 7485.71,6331.12 A 94.2188,94.2188 0 1 0 7674.14,6331.12A 94.2188,94.2188 0 1 0 7485.71,6331.12Z " />
<path stroke="none" fill="#fdfdfd" transform="matrix(0.0833333 0 0 0.0833333 -50.175 -413.083)" d="M 7489.92,6325.5 A 84.375,84.375 0 1 0 7658.67,6325.5A 84.375,84.375 0 1 0 7489.92,6325.5Z " />
<path stroke="none" fill="#fdfdfd" transform="matrix(0.0833333 0 0 0.0833333 -50.175 -413.083)" d="M 7494.14,6319.87 A 74.5312,74.5312 0 1 0 7643.21,6319.87A 74.5312,74.5312 0 1 0 7494.14,6319.87Z " />
<path stroke="none" fill="#fefefe" transform="matrix(0.0833333 0 0 0.0833333 -50.175 -413.083)" d="M 7498.36,6314.25 A 64.6875,64.6875 0 1 0 7627.74,6314.25A 64.6875,64.6875 0 1 0 7498.36,6314.25Z " />
<path stroke="none" fill="#fefefe" transform="matrix(0.0833333 0 0 0.0833333 -50.175 -413.083)" d="M 7502.58,6308.62 A 54.8438,54.8438 0 1 0 7612.27,6308.62A 54.8438,54.8438 0 1 0 7502.58,6308.62Z " />
<path stroke="#808080" stroke-width="20" fill="none" transform="matrix(0.0833333 0 0 0.0833333 -50.175 -413.083)" d="M 7371.8,6483 A 360,360 0 1 0 8091.8,6483A 360,360 0 1 0 7371.8,6483Z " />
<text x="0" y="0" stroke="none" fill="#000000" transform="matrix(0.0833333 0 0 0.0833333 578.92 131.917)" font-style="normal" font-weight="normal" font-size="240px" font-family="Times New Roman" >
Ag</text>
<text x="0" y="0" stroke="none" fill="#000000" transform="matrix(0.0833333 0 0 0.0833333 603.363 124.167)" font-style="normal" font-weight="normal" font-size="180px" font-family="Times New Roman" >
+</text>
<path stroke="none" fill="#000000" transform="matrix(0.0833333 0 0 0.0833333 -50.175 -413.083)" d="M 4542.54,5305.72 L 4536.18,5297.86 L 4534.11,5287.72 L 5054.52,5004.25 L 5054.54,5027.02 L 4542.54,5305.72 Z " />
<path stroke="none" fill="#000000" transform="matrix(0.0833333 0 0 0.0833333 -50.175 -413.083)" d="M 5054.54,5027.02 L 5054.52,5004.25 L 5577.5,5287.77 L 5575.33,5297.86 L 5568.96,5305.71 L 5054.54,5027.02 Z " />
<path stroke="none" fill="#000000" transform="matrix(0.0833333 0 0 0.0833333 -50.175 -413.083)" d="M 4519.02,5304.15 L 4536.18,5297.86 L 4542.54,5305.72 L 4278.89,5625.84 L 4265.95,5610.11 L 4519.02,5304.15 Z " />
<path stroke="none" fill="#000000" transform="matrix(0.0833333 0 0 0.0833333 -50.175 -413.083)" d="M 4470.52,5313.74 L 4485.95,5326.46 L 4260.21,5600.3 L 4244.78,5587.58 L 4470.52,5313.74 Z " />
<path stroke="none" fill="#000000" transform="matrix(0.0833333 0 0 0.0833333 -50.175 -413.083)" d="M 4265.95,5610.11 L 4278.89,5625.84 L 3755.63,5910.59 L 3751.89,5889.83 L 4265.95,5610.11 Z " />
<path stroke="none" fill="#000000" transform="matrix(0.0833333 0 0 0.0833333 -50.175 -413.083)" d="M 3751.89,5889.83 L 3755.63,5910.59 L 3501.49,5872.03 L 3499.48,5861.9 L 3516.63,5855.61 L 3751.89,5889.83 Z " />
<path stroke="none" fill="#000000" transform="matrix(0.0833333 0 0 0.0833333 -50.175 -413.083)" d="M 3746.4,5838.91 L 3743.44,5858.69 L 3591.41,5835.94 L 3594.37,5816.16 L 3746.4,5838.91 Z " />
<path stroke="none" fill="#000000" transform="matrix(0.0833333 0 0 0.0833333 -50.175 -413.083)" d="M 3516.63,5855.61 L 3499.48,5861.9 L 3493.08,5854.08 L 3756.76,5533.92 L 3769.7,5549.65 L 3516.63,5855.61 Z " />
<path stroke="none" fill="#000000" transform="matrix(0.0833333 0 0 0.0833333 -50.175 -413.083)" d="M 3769.7,5549.65 L 3756.76,5533.92 L 4280.02,5249.17 L 4283.76,5269.92 L 3769.7,5549.65 Z " />
<path stroke="none" fill="#000000" transform="matrix(0.0833333 0 0 0.0833333 -50.175 -413.083)" d="M 3782.05,5567.47 L 3772.49,5549.9 L 4280.86,5273.31 L 4290.42,5290.88 L 3782.05,5567.47 Z " />
<path stroke="none" fill="#000000" transform="matrix(0.0833333 0 0 0.0833333 -50.175 -413.083)" d="M 4283.76,5269.92 L 4280.02,5249.17 L 4534.11,5287.72 L 4536.18,5297.86 L 4519.02,5304.15 L 4283.76,5269.92 Z " />
<path stroke="none" fill="#000000" transform="matrix(0.0833333 0 0 0.0833333 -50.175 -413.083)" d="M 5592.66,5304.55 L 5575.33,5297.86 L 5577.5,5287.77 L 5841.31,5254.56 L 5837.35,5275.18 L 5592.66,5304.55 Z " />
<path stroke="none" fill="#000000" transform="matrix(0.0833333 0 0 0.0833333 -50.175 -413.083)" d="M 5667.97,5344.48 L 5665.51,5324.63 L 5829.01,5304.35 L 5831.47,5324.2 L 5667.97,5344.48 Z " />
<path stroke="none" fill="#000000" transform="matrix(0.0833333 0 0 0.0833333 -50.175 -413.083)" d="M 5837.35,5275.18 L 5841.31,5254.56 L 6366.92,5539.24 L 6353.95,5554.96 L 5837.35,5275.18 Z " />
<path stroke="none" fill="#000000" transform="matrix(0.0833333 0 0 0.0833333 -50.175 -413.083)" d="M 6353.95,5554.96 L 6366.92,5539.24 L 6623.35,5854.09 L 6616.94,5861.9 L 6599.61,5855.21 L 6353.95,5554.96 Z " />
<path stroke="none" fill="#000000" transform="matrix(0.0833333 0 0 0.0833333 -50.175 -413.083)" d="M 6332.26,5577.96 L 6347.76,5565.32 L 6564.78,5831.53 L 6549.28,5844.17 L 6332.26,5577.96 Z " />
<path stroke="none" fill="#000000" transform="matrix(0.0833333 0 0 0.0833333 -50.175 -413.083)" d="M 6599.61,5855.21 L 6616.94,5861.9 L 6614.83,5871.98 L 6350.97,5905.2 L 6354.93,5884.58 L 6599.61,5855.21 Z " />
<path stroke="none" fill="#000000" transform="matrix(0.0833333 0 0 0.0833333 -50.175 -413.083)" d="M 6354.93,5884.58 L 6350.97,5905.2 L 5825.35,5620.52 L 5838.33,5604.8 L 6354.93,5884.58 Z " />
<path stroke="none" fill="#000000" transform="matrix(0.0833333 0 0 0.0833333 -50.175 -413.083)" d="M 6361.69,5863.77 L 6352.17,5881.35 L 5841.12,5604.62 L 5850.65,5587.03 L 6361.69,5863.77 Z " />
<path stroke="none" fill="#000000" transform="matrix(0.0833333 0 0 0.0833333 -50.175 -413.083)" d="M 5838.33,5604.8 L 5825.35,5620.52 L 5568.96,5305.71 L 5575.33,5297.86 L 5592.66,5304.55 L 5838.33,5604.8 Z " />
<text x="0" y="0" stroke="none" fill="#000000" transform="matrix(0.0833333 0 0 0.0833333 192.234 105.409)" font-style="normal" font-weight="normal" font-size="200px" font-family="Arial" >
N</text>
<path stroke="none" fill="#000000" transform="matrix(0.0833333 0 0 0.0833333 -50.175 -413.083)" d="M 3493.08,5854.08 L 3499.48,5861.9 L 3501.49,5872.03 L 3090.39,6095.85 L 3080.83,6078.28 L 3493.08,5854.08 Z " />
<text x="0" y="0" stroke="none" fill="#000000" transform="matrix(0.0833333 0 0 0.0833333 538.619 105.409)" font-style="normal" font-weight="normal" font-size="200px" font-family="Arial" >
N</text>
<path stroke="none" fill="#000000" transform="matrix(0.0833333 0 0 0.0833333 -50.175 -413.083)" d="M 6614.83,5871.98 L 6616.94,5861.9 L 6623.35,5854.09 L 7037.63,6078.32 L 7028.1,6095.91 L 6614.83,5871.98 Z " />
<path stroke="none" fill="#000000" transform="matrix(0.0833333 0 0 0.0833333 -50.175 -413.083)" d="M 2887.27,6242.05 L 2902.7,6254.78 L 2723.93,6471.85 L 2711.05,6456.07 L 2887.27,6242.05 Z " />
<path stroke="none" fill="#000000" transform="matrix(0.0833333 0 0 0.0833333 -50.175 -413.083)" d="M 2942.82,6287.85 L 2958.26,6300.57 L 2780.53,6516.17 L 2765.1,6503.45 L 2942.82,6287.85 Z " />
<path stroke="none" fill="#000000" transform="matrix(0.0833333 0 0 0.0833333 -50.175 -413.083)" d="M 7215.42,6255.01 L 7230.92,6242.37 L 7400.59,6450.76 L 7387.68,6466.53 L 7215.42,6255.01 Z " />
<path stroke="none" fill="#000000" transform="matrix(0.0833333 0 0 0.0833333 -50.175 -413.083)" d="M 7271.22,6209.52 L 7286.73,6196.88 L 7448.93,6395.85 L 7433.43,6408.49 L 7271.22,6209.52 Z " />
<path stroke="none" fill="#000000" transform="matrix(0.0833333 0 0 0.0833333 -50.175 -413.083)" d="M 7387.68,6466.53 L 7400.59,6450.76 L 7917.62,6730.77 L 7915.18,6740.72 L 7908.81,6748.57 L 7387.68,6466.53 Z " />
<path stroke="none" fill="#000000" transform="matrix(0.0833333 0 0 0.0833333 -50.175 -413.083)" d="M 2711.05,6456.07 L 2723.93,6471.85 L 2205.27,6753.88 L 2198.91,6746.03 L 2196.54,6736.04 L 2711.05,6456.07 Z " />
<text x="0" y="0" stroke="none" fill="#000000" transform="matrix(0.0833333 0 0 0.0833333 105.842 152.412)" font-style="normal" font-weight="normal" font-size="200px" font-family="Arial" >
N</text>
<path stroke="none" fill="#000000" transform="matrix(0.0833333 0 0 0.0833333 -50.175 -413.083)" d="M 2182.22,6751.69 L 2198.91,6746.03 L 2205.27,6753.88 L 1941.62,7074.01 L 1928.68,7058.27 L 2182.22,6751.69 Z " />
<path stroke="none" fill="#000000" transform="matrix(0.0833333 0 0 0.0833333 -50.175 -413.083)" d="M 2133.25,6761.9 L 2148.68,6774.62 L 1922.95,7048.47 L 1907.51,7035.75 L 2133.25,6761.9 Z " />
<path stroke="none" fill="#000000" transform="matrix(0.0833333 0 0 0.0833333 -50.175 -413.083)" d="M 1928.68,7058.27 L 1941.62,7074.01 L 1418.36,7358.76 L 1414.63,7338 L 1928.68,7058.27 Z " />
<path stroke="none" fill="#000000" transform="matrix(0.0833333 0 0 0.0833333 -50.175 -413.083)" d="M 1414.63,7338 L 1418.36,7358.76 L 1141,7318.55 L 1179.36,7303.78 L 1414.63,7338 Z " />
<path stroke="none" fill="#000000" transform="matrix(0.0833333 0 0 0.0833333 -50.175 -413.083)" d="M 1409.13,7287.07 L 1406.17,7306.85 L 1254.14,7284.1 L 1257.1,7264.32 L 1409.13,7287.07 Z " />
<path stroke="none" fill="#000000" transform="matrix(0.0833333 0 0 0.0833333 -50.175 -413.083)" d="M 1179.36,7303.78 L 1141,7318.55 L 1409.49,6995.49 L 1426.08,6989.96 L 1432.48,6997.77 L 1179.36,7303.78 Z " />
<path stroke="none" fill="#000000" transform="matrix(0.0833333 0 0 0.0833333 -50.175 -413.083)" d="M 1432.48,6997.77 L 1426.08,6989.96 L 1423.68,6980.01 L 1828.67,6759.54 L 1838.23,6777.11 L 1432.48,6997.77 Z " />
<path stroke="none" fill="#000000" transform="matrix(0.0833333 0 0 0.0833333 -50.175 -413.083)" d="M 1444.88,7015.74 L 1435.32,6998.17 L 1839.01,6778.54 L 1848.56,6796.11 L 1444.88,7015.74 Z " />
<path stroke="none" fill="#000000" transform="matrix(0.0833333 0 0 0.0833333 -50.175 -413.083)" d="M 2037.07,6731.92 L 2040.03,6712.14 L 2196.54,6736.04 L 2198.91,6746.03 L 2182.22,6751.69 L 2037.07,6731.92 Z " />
<text x="0" y="0" stroke="none" fill="#000000" transform="matrix(0.0833333 0 0 0.0833333 625.42 152.412)" font-style="normal" font-weight="normal" font-size="200px" font-family="Arial" >
N</text>
<path stroke="none" fill="#000000" transform="matrix(0.0833333 0 0 0.0833333 -50.175 -413.083)" d="M 7932.07,6746.8 L 7915.18,6740.72 L 7917.62,6730.77 L 8083.07,6709.81 L 8085.53,6729.66 L 7932.07,6746.8 Z " />
<path stroke="none" fill="#000000" transform="matrix(0.0833333 0 0 0.0833333 -50.175 -413.083)" d="M 8005.07,6786.23 L 8002.61,6766.38 L 8088.76,6755.7 L 8091.22,6775.54 L 8005.07,6786.23 Z " />
<path stroke="none" fill="#000000" transform="matrix(0.0833333 0 0 0.0833333 -50.175 -413.083)" d="M 8285.29,6776.68 L 8294.81,6759.09 L 8702.62,6980.05 L 8700.17,6989.96 L 8693.76,6997.77 L 8285.29,6776.68 Z " />
<path stroke="none" fill="#000000" transform="matrix(0.0833333 0 0 0.0833333 -50.175 -413.083)" d="M 8693.76,6997.77 L 8700.17,6989.96 L 8716.97,6995.94 L 8978.28,7313.69 L 8939.46,7298.06 L 8693.76,6997.77 Z " />
<path stroke="none" fill="#000000" transform="matrix(0.0833333 0 0 0.0833333 -50.175 -413.083)" d="M 8672.1,7020.81 L 8687.61,7008.18 L 8904.63,7274.38 L 8889.13,7287.02 L 8672.1,7020.81 Z " />
<path stroke="none" fill="#000000" transform="matrix(0.0833333 0 0 0.0833333 -50.175 -413.083)" d="M 8939.46,7298.06 L 8978.28,7313.69 L 8690.81,7348.05 L 8694.77,7327.43 L 8939.46,7298.06 Z " />
<path stroke="none" fill="#000000" transform="matrix(0.0833333 0 0 0.0833333 -50.175 -413.083)" d="M 8694.77,7327.43 L 8690.81,7348.05 L 8165.2,7063.38 L 8178.17,7047.65 L 8694.77,7327.43 Z " />
<path stroke="none" fill="#000000" transform="matrix(0.0833333 0 0 0.0833333 -50.175 -413.083)" d="M 8701.54,7306.62 L 8692.02,7324.21 L 8180.97,7047.47 L 8190.49,7029.89 L 8701.54,7306.62 Z " />
<path stroke="none" fill="#000000" transform="matrix(0.0833333 0 0 0.0833333 -50.175 -413.083)" d="M 8178.17,7047.65 L 8165.2,7063.38 L 7908.81,6748.57 L 7915.18,6740.72 L 7932.07,6746.8 L 8178.17,7047.65 Z " />
<text x="0" y="0" stroke="none" fill="#000000" transform="matrix(0.0833333 0 0 0.0833333 40.9757 172.74)" font-style="normal" font-weight="normal" font-size="200px" font-family="Arial" >
O</text>
<path stroke="none" fill="#000000" transform="matrix(0.0833333 0 0 0.0833333 -50.175 -413.083)" d="M 1423.68,6980.01 L 1426.08,6989.96 L 1409.49,6995.49 L 1276.39,6977.68 L 1279.35,6957.9 L 1423.68,6980.01 Z " />
<path stroke="none" fill="#000000" transform="matrix(0.0833333 0 0 0.0833333 -50.175 -413.083)" d="M 1066.24,6997.82 L 1075.8,7015.39 L 658.021,7242.68 L 648.463,7225.12 L 1066.24,6997.82 Z " />
<text x="0" y="0" stroke="none" fill="#000000" transform="matrix(0.0833333 0 0 0.0833333 690.372 173.183)" font-style="normal" font-weight="normal" font-size="200px" font-family="Arial" >
O</text>
<path stroke="none" fill="#000000" transform="matrix(0.0833333 0 0 0.0833333 -50.175 -413.083)" d="M 8716.97,6995.94 L 8700.17,6989.96 L 8702.62,6980.05 L 8856.66,6960.48 L 8859.13,6980.32 L 8716.97,6995.94 Z " />
<path stroke="none" fill="#000000" transform="matrix(0.0833333 0 0 0.0833333 -50.175 -413.083)" d="M 9061,7020.9 L 9070.52,7003.32 L 9489.91,7230.42 L 9480.39,7248.01 L 9061,7020.9 Z " />
</svg>
