<?xml version="1.0" standalone="no" ?>
<!DOCTYPE svg PUBLIC "-//W3C//DTD SVG 1.1//EN" "http://www.w3.org/Graphics/SVG/1.1/DTD/svg11.dtd">
<svg width="692px" height="118px" viewBox="0 0 692 118" style="background-color: #ffffff00" xmlns="http://www.w3.org/2000/svg" xmlns:xlink="http://www.w3.org/1999/xlink" version="1.1" >
<path stroke="none" fill="#bebebe" transform="matrix(0.0833333 0 0 0.0833333 -127.517 -400.083)" d="M 9058.6,5280.2 A 113.6,113.6 0 1 0 9285.8,5280.2A 113.6,113.6 0 1 0 9058.6,5280.2Z " />
<path stroke="none" fill="#c1c1c1" transform="matrix(0.0833333 0 0 0.0833333 -127.517 -400.083)" d="M 9059.91,5278.42 A 110.51,110.51 0 1 0 9280.94,5278.42A 110.51,110.51 0 1 0 9059.91,5278.42Z " />
<path stroke="none" fill="#c5c5c5" transform="matrix(0.0833333 0 0 0.0833333 -127.517 -400.083)" d="M 9061.23,5276.65 A 107.42,107.42 0 1 0 9276.07,5276.65A 107.42,107.42 0 1 0 9061.23,5276.65Z " />
<path stroke="none" fill="#c9c9c9" transform="matrix(0.0833333 0 0 0.0833333 -127.517 -400.083)" d="M 9062.54,5274.87 A 104.331,104.331 0 1 0 9271.21,5274.87A 104.331,104.331 0 1 0 9062.54,5274.87Z " />
<path stroke="none" fill="#cdcdcd" transform="matrix(0.0833333 0 0 0.0833333 -127.517 -400.083)" d="M 9063.86,5273.1 A 101.241,101.241 0 1 0 9266.34,5273.1A 101.241,101.241 0 1 0 9063.86,5273.1Z " />
<path stroke="none" fill="#d0d0d0" transform="matrix(0.0833333 0 0 0.0833333 -127.517 -400.083)" d="M 9065.17,5271.32 A 98.1509,98.1509 0 1 0 9261.48,5271.32A 98.1509,98.1509 0 1 0 9065.17,5271.32Z " />
<path stroke="none" fill="#d4d4d4" transform="matrix(0.0833333 0 0 0.0833333 -127.517 -400.083)" d="M 9066.49,5269.55 A 95.0611,95.0611 0 1 0 9256.61,5269.55A 95.0611,95.0611 0 1 0 9066.49,5269.55Z " />
<path stroke="none" fill="#d7d7d7" transform="matrix(0.0833333 0 0 0.0833333 -127.517 -400.083)" d="M 9067.8,5267.77 A 91.9713,91.9713 0 1 0 9251.75,5267.77A 91.9713,91.9713 0 1 0 9067.8,5267.77Z " />
<path stroke="none" fill="#dadada" transform="matrix(0.0833333 0 0 0.0833333 -127.517 -400.083)" d="M 9069.12,5266 A 88.8814,88.8814 0 1 0 9246.88,5266A 88.8814,88.8814 0 1 0 9069.12,5266Z " />
<path stroke="none" fill="#dddddd" transform="matrix(0.0833333 0 0 0.0833333 -127.517 -400.083)" d="M 9070.43,5264.22 A 85.7916,85.7916 0 1 0 9242.02,5264.22A 85.7916,85.7916 0 1 0 9070.43,5264.22Z " />
<path stroke="none" fill="#e0e0e0" transform="matrix(0.0833333 0 0 0.0833333 -127.517 -400.083)" d="M 9071.75,5262.45 A 82.7017,82.7017 0 1 0 9237.15,5262.45A 82.7017,82.7017 0 1 0 9071.75,5262.45Z " />
<path stroke="none" fill="#e3e3e3" transform="matrix(0.0833333 0 0 0.0833333 -127.517 -400.083)" d="M 9073.06,5260.67 A 79.6119,79.6119 0 1 0 9232.29,5260.67A 79.6119,79.6119 0 1 0 9073.06,5260.67Z " />
<path stroke="none" fill="#e5e5e5" transform="matrix(0.0833333 0 0 0.0833333 -127.517 -400.083)" d="M 9074.38,5258.9 A 76.522,76.522 0 1 0 9227.42,5258.9A 76.522,76.522 0 1 0 9074.38,5258.9Z " />
<path stroke="none" fill="#e8e8e8" transform="matrix(0.0833333 0 0 0.0833333 -127.517 -400.083)" d="M 9075.69,5257.12 A 73.4322,73.4322 0 1 0 9222.56,5257.12A 73.4322,73.4322 0 1 0 9075.69,5257.12Z " />
<path stroke="none" fill="#eaeaea" transform="matrix(0.0833333 0 0 0.0833333 -127.517 -400.083)" d="M 9077.01,5255.35 A 70.3423,70.3423 0 1 0 9217.69,5255.35A 70.3423,70.3423 0 1 0 9077.01,5255.35Z " />
<path stroke="none" fill="#ececec" transform="matrix(0.0833333 0 0 0.0833333 -127.517 -400.083)" d="M 9078.32,5253.57 A 67.2525,67.2525 0 1 0 9212.83,5253.57A 67.2525,67.2525 0 1 0 9078.32,5253.57Z " />
<path stroke="none" fill="#eeeeee" transform="matrix(0.0833333 0 0 0.0833333 -127.517 -400.083)" d="M 9079.64,5251.8 A 64.1627,64.1627 0 1 0 9207.96,5251.8A 64.1627,64.1627 0 1 0 9079.64,5251.8Z " />
<path stroke="none" fill="#f0f0f0" transform="matrix(0.0833333 0 0 0.0833333 -127.517 -400.083)" d="M 9080.95,5250.02 A 61.0728,61.0728 0 1 0 9203.1,5250.02A 61.0728,61.0728 0 1 0 9080.95,5250.02Z " />
<path stroke="none" fill="#f2f2f2" transform="matrix(0.0833333 0 0 0.0833333 -127.517 -400.083)" d="M 9082.27,5248.25 A 57.983,57.983 0 1 0 9198.23,5248.25A 57.983,57.983 0 1 0 9082.27,5248.25Z " />
<path stroke="none" fill="#f4f4f4" transform="matrix(0.0833333 0 0 0.0833333 -127.517 -400.083)" d="M 9083.58,5246.47 A 54.8931,54.8931 0 1 0 9193.37,5246.47A 54.8931,54.8931 0 1 0 9083.58,5246.47Z " />
<path stroke="none" fill="#f5f5f5" transform="matrix(0.0833333 0 0 0.0833333 -127.517 -400.083)" d="M 9084.9,5244.7 A 51.8033,51.8033 0 1 0 9188.5,5244.7A 51.8033,51.8033 0 1 0 9084.9,5244.7Z " />
<path stroke="none" fill="#f7f7f7" transform="matrix(0.0833333 0 0 0.0833333 -127.517 -400.083)" d="M 9086.21,5242.92 A 48.7134,48.7134 0 1 0 9183.64,5242.92A 48.7134,48.7134 0 1 0 9086.21,5242.92Z " />
<path stroke="none" fill="#f8f8f8" transform="matrix(0.0833333 0 0 0.0833333 -127.517 -400.083)" d="M 9087.53,5241.15 A 45.6236,45.6236 0 1 0 9178.77,5241.15A 45.6236,45.6236 0 1 0 9087.53,5241.15Z " />
<path stroke="none" fill="#f9f9f9" transform="matrix(0.0833333 0 0 0.0833333 -127.517 -400.083)" d="M 9088.84,5239.37 A 42.5338,42.5338 0 1 0 9173.91,5239.37A 42.5338,42.5338 0 1 0 9088.84,5239.37Z " />
<path stroke="none" fill="#fafafa" transform="matrix(0.0833333 0 0 0.0833333 -127.517 -400.083)" d="M 9090.16,5237.6 A 39.4439,39.4439 0 1 0 9169.04,5237.6A 39.4439,39.4439 0 1 0 9090.16,5237.6Z " />
<path stroke="none" fill="#fbfbfb" transform="matrix(0.0833333 0 0 0.0833333 -127.517 -400.083)" d="M 9091.47,5235.82 A 36.3541,36.3541 0 1 0 9164.18,5235.82A 36.3541,36.3541 0 1 0 9091.47,5235.82Z " />
<path stroke="none" fill="#fcfcfc" transform="matrix(0.0833333 0 0 0.0833333 -127.517 -400.083)" d="M 9092.79,5234.05 A 33.2642,33.2642 0 1 0 9159.31,5234.05A 33.2642,33.2642 0 1 0 9092.79,5234.05Z " />
<path stroke="none" fill="#fdfdfd" transform="matrix(0.0833333 0 0 0.0833333 -127.517 -400.083)" d="M 9094.1,5232.27 A 30.1744,30.1744 0 1 0 9154.45,5232.27A 30.1744,30.1744 0 1 0 9094.1,5232.27Z " />
<path stroke="none" fill="#fdfdfd" transform="matrix(0.0833333 0 0 0.0833333 -127.517 -400.083)" d="M 9095.42,5230.5 A 27.0845,27.0845 0 1 0 9149.58,5230.5A 27.0845,27.0845 0 1 0 9095.42,5230.5Z " />
<path stroke="none" fill="#fefefe" transform="matrix(0.0833333 0 0 0.0833333 -127.517 -400.083)" d="M 9096.73,5228.72 A 23.9947,23.9947 0 1 0 9144.72,5228.72A 23.9947,23.9947 0 1 0 9096.73,5228.72Z " />
<path stroke="none" fill="#fefefe" transform="matrix(0.0833333 0 0 0.0833333 -127.517 -400.083)" d="M 9098.04,5226.95 A 20.9048,20.9048 0 1 0 9139.85,5226.95A 20.9048,20.9048 0 1 0 9098.04,5226.95Z " />
<path stroke="none" fill="#fefefe" transform="matrix(0.0833333 0 0 0.0833333 -127.517 -400.083)" d="M 9099.36,5225.17 A 17.815,17.815 0 1 0 9134.99,5225.17A 17.815,17.815 0 1 0 9099.36,5225.17Z " />
<path stroke="#bebebe" stroke-width="6" fill="none" transform="matrix(0.0833333 0 0 0.0833333 -127.517 -400.083)" d="M 9058.6,5280.2 A 113.6,113.6 0 1 0 9285.8,5280.2A 113.6,113.6 0 1 0 9058.6,5280.2Z " />
<text x="0" y="0" stroke="none" fill="#000000" transform="matrix(0.0833333 0 0 0.0833333 631.906 42.0333)" font-style="normal" font-weight="normal" font-size="76px" font-family="Times New Roman" >
Fe</text>
<text x="0" y="0" stroke="none" fill="#000000" transform="matrix(0.0833333 0 0 0.0833333 638.239 39.6167)" font-style="normal" font-weight="normal" font-size="57px" font-family="Times New Roman" >
2+</text>
<path stroke="none" fill="#000000" transform="matrix(0.0833333 0 0 0.0833333 -127.517 -400.083)" d="M 5019.8,5537.77 L 5019.8,5530.38 L 5180.86,5437.39 L 5184,5439.2 L 5184,5442.82 L 5019.8,5537.77 Z " />
<path stroke="none" fill="#000000" transform="matrix(0.0833333 0 0 0.0833333 -127.517 -400.083)" d="M 5019.8,5530.38 L 5019.8,5537.77 L 4855.8,5442.82 L 4855.8,5439.2 L 4858.94,5437.39 L 5019.8,5530.38 Z " />
<path stroke="none" fill="#000000" transform="matrix(0.0833333 0 0 0.0833333 -127.517 -400.083)" d="M 4858.94,5437.39 L 4855.8,5439.2 L 4852.66,5437.39 L 4852.66,5251.61 L 4859.06,5247.92 L 4858.94,5437.39 Z " />
<path stroke="none" fill="#000000" transform="matrix(0.0833333 0 0 0.0833333 -127.517 -400.083)" d="M 4836.27,5426.08 L 4829.87,5426.08 L 4829.87,5262.92 L 4836.27,5262.92 L 4836.27,5426.08 Z " />
<path stroke="none" fill="#000000" transform="matrix(0.0833333 0 0 0.0833333 -127.517 -400.083)" d="M 4859.06,5247.92 L 4852.66,5251.61 L 4691.6,5158.62 L 4691.6,5151.23 L 4859.06,5247.92 Z " />
<path stroke="none" fill="#000000" transform="matrix(0.0833333 0 0 0.0833333 -127.517 -400.083)" d="M 4691.6,5151.23 L 4691.6,5158.62 L 4530.74,5251.61 L 4527.6,5249.8 L 4527.58,5246.18 L 4691.6,5151.23 Z " />
<path stroke="none" fill="#000000" transform="matrix(0.0833333 0 0 0.0833333 -127.517 -400.083)" d="M 4690.01,5178.48 L 4693.21,5184.02 L 4551.93,5265.69 L 4548.73,5260.15 L 4690.01,5178.48 Z " />
<path stroke="none" fill="#000000" transform="matrix(0.0833333 0 0 0.0833333 -127.517 -400.083)" d="M 4524.46,5251.59 L 4527.6,5249.8 L 4530.74,5251.61 L 4530.74,5437.39 L 4524.34,5441.08 L 4524.46,5251.59 Z " />
<path stroke="none" fill="#000000" transform="matrix(0.0833333 0 0 0.0833333 -127.517 -400.083)" d="M 4524.34,5441.08 L 4530.74,5437.39 L 4691.6,5530.38 L 4691.6,5537.77 L 4524.34,5441.08 Z " />
<path stroke="none" fill="#000000" transform="matrix(0.0833333 0 0 0.0833333 -127.517 -400.083)" d="M 4548.73,5428.85 L 4551.93,5423.31 L 4693.21,5504.98 L 4690.01,5510.52 L 4548.73,5428.85 Z " />
<path stroke="none" fill="#000000" transform="matrix(0.0833333 0 0 0.0833333 -127.517 -400.083)" d="M 4691.6,5537.77 L 4691.6,5530.38 L 4852.66,5437.39 L 4855.8,5439.2 L 4855.8,5442.82 L 4691.6,5537.77 Z " />
<path stroke="none" fill="#000000" transform="matrix(0.0833333 0 0 0.0833333 -127.517 -400.083)" d="M 5184,5442.82 L 5184,5439.2 L 5187.14,5437.39 L 5348,5530.38 L 5348,5537.77 L 5184,5442.82 Z " />
<path stroke="none" fill="#000000" transform="matrix(0.0833333 0 0 0.0833333 -127.517 -400.083)" d="M 5205.13,5428.85 L 5208.33,5423.31 L 5349.61,5504.98 L 5346.41,5510.52 L 5205.13,5428.85 Z " />
<path stroke="none" fill="#000000" transform="matrix(0.0833333 0 0 0.0833333 -127.517 -400.083)" d="M 5348,5537.77 L 5348,5530.38 L 5509.06,5437.39 L 5515.46,5441.08 L 5348,5537.77 Z " />
<path stroke="none" fill="#000000" transform="matrix(0.0833333 0 0 0.0833333 -127.517 -400.083)" d="M 5515.46,5441.08 L 5509.06,5437.39 L 5509.06,5251.61 L 5512.2,5249.8 L 5515.34,5251.59 L 5515.46,5441.08 Z " />
<path stroke="none" fill="#000000" transform="matrix(0.0833333 0 0 0.0833333 -127.517 -400.083)" d="M 5492.67,5426.08 L 5486.27,5426.08 L 5486.27,5262.92 L 5492.67,5262.92 L 5492.67,5426.08 Z " />
<path stroke="none" fill="#000000" transform="matrix(0.0833333 0 0 0.0833333 -127.517 -400.083)" d="M 5512.22,5246.18 L 5512.2,5249.8 L 5509.06,5251.61 L 5348,5158.62 L 5348,5151.23 L 5512.22,5246.18 Z " />
<path stroke="none" fill="#000000" transform="matrix(0.0833333 0 0 0.0833333 -127.517 -400.083)" d="M 5348,5151.23 L 5348,5158.62 L 5187.14,5251.61 L 5180.74,5247.92 L 5348,5151.23 Z " />
<path stroke="none" fill="#000000" transform="matrix(0.0833333 0 0 0.0833333 -127.517 -400.083)" d="M 5346.41,5178.48 L 5349.61,5184.02 L 5208.33,5265.69 L 5205.13,5260.15 L 5346.41,5178.48 Z " />
<path stroke="none" fill="#000000" transform="matrix(0.0833333 0 0 0.0833333 -127.517 -400.083)" d="M 5180.74,5247.92 L 5187.14,5251.61 L 5187.14,5437.39 L 5184,5439.2 L 5180.86,5437.39 L 5180.74,5247.92 Z " />
<text x="0" y="0" stroke="none" fill="#000000" transform="matrix(0.0833333 0 0 0.0833333 343.604 31.5417)" font-style="normal" font-weight="normal" font-size="63px" font-family="Arial" >
NH</text>
<text x="0" y="0" stroke="none" fill="#000000" transform="matrix(0.0833333 0 0 0.0833333 351.187 32.7083)" font-style="normal" font-weight="normal" font-size="47.25px" font-family="Arial" >
2</text>
<path stroke="none" fill="#000000" transform="matrix(0.0833333 0 0 0.0833333 -127.517 -400.083)" d="M 5515.34,5251.59 L 5512.2,5249.8 L 5512.22,5246.18 L 5639.24,5172.67 L 5642.44,5178.21 L 5515.34,5251.59 Z " />
<text x="0" y="0" stroke="none" fill="#000000" transform="matrix(0.0833333 0 0 0.0833333 228.223 31.5417)" font-style="normal" font-weight="normal" font-size="63px" font-family="Arial" >
H</text>
<text x="0" y="0" stroke="none" fill="#000000" transform="matrix(0.0833333 0 0 0.0833333 232.014 32.7083)" font-style="normal" font-weight="normal" font-size="47.25px" font-family="Arial" >
2</text>
<text x="0" y="0" stroke="none" fill="#000000" transform="matrix(0.0833333 0 0 0.0833333 234.204 31.5417)" font-style="normal" font-weight="normal" font-size="63px" font-family="Arial" >
N</text>
<path stroke="none" fill="#000000" transform="matrix(0.0833333 0 0 0.0833333 -127.517 -400.083)" d="M 4527.58,5246.18 L 4527.6,5249.8 L 4524.46,5251.59 L 4396.21,5177.64 L 4399.41,5172.1 L 4527.58,5246.18 Z " />
<text x="0" y="0" stroke="none" fill="#000000" transform="matrix(0.0833333 0 0 0.0833333 283.85 46.8667)" font-style="normal" font-weight="bold" font-size="138px" font-family="Arial" >
17</text>
<path stroke="none" fill="#bebebe" transform="matrix(0.0833333 0 0 0.0833333 -127.517 -400.083)" d="M 1690.8,5384.6 A 113.6,113.6 0 1 0 1918,5384.6A 113.6,113.6 0 1 0 1690.8,5384.6Z " />
<path stroke="none" fill="#c1c1c1" transform="matrix(0.0833333 0 0 0.0833333 -127.517 -400.083)" d="M 1692.11,5382.82 A 110.51,110.51 0 1 0 1913.14,5382.82A 110.51,110.51 0 1 0 1692.11,5382.82Z " />
<path stroke="none" fill="#c5c5c5" transform="matrix(0.0833333 0 0 0.0833333 -127.517 -400.083)" d="M 1693.43,5381.05 A 107.42,107.42 0 1 0 1908.27,5381.05A 107.42,107.42 0 1 0 1693.43,5381.05Z " />
<path stroke="none" fill="#c9c9c9" transform="matrix(0.0833333 0 0 0.0833333 -127.517 -400.083)" d="M 1694.74,5379.27 A 104.331,104.331 0 1 0 1903.41,5379.27A 104.331,104.331 0 1 0 1694.74,5379.27Z " />
<path stroke="none" fill="#cdcdcd" transform="matrix(0.0833333 0 0 0.0833333 -127.517 -400.083)" d="M 1696.06,5377.5 A 101.241,101.241 0 1 0 1898.54,5377.5A 101.241,101.241 0 1 0 1696.06,5377.5Z " />
<path stroke="none" fill="#d0d0d0" transform="matrix(0.0833333 0 0 0.0833333 -127.517 -400.083)" d="M 1697.37,5375.72 A 98.1509,98.1509 0 1 0 1893.68,5375.72A 98.1509,98.1509 0 1 0 1697.37,5375.72Z " />
<path stroke="none" fill="#d4d4d4" transform="matrix(0.0833333 0 0 0.0833333 -127.517 -400.083)" d="M 1698.69,5373.95 A 95.0611,95.0611 0 1 0 1888.81,5373.95A 95.0611,95.0611 0 1 0 1698.69,5373.95Z " />
<path stroke="none" fill="#d7d7d7" transform="matrix(0.0833333 0 0 0.0833333 -127.517 -400.083)" d="M 1700,5372.17 A 91.9713,91.9713 0 1 0 1883.95,5372.17A 91.9713,91.9713 0 1 0 1700,5372.17Z " />
<path stroke="none" fill="#dadada" transform="matrix(0.0833333 0 0 0.0833333 -127.517 -400.083)" d="M 1701.32,5370.4 A 88.8814,88.8814 0 1 0 1879.08,5370.4A 88.8814,88.8814 0 1 0 1701.32,5370.4Z " />
<path stroke="none" fill="#dddddd" transform="matrix(0.0833333 0 0 0.0833333 -127.517 -400.083)" d="M 1702.63,5368.62 A 85.7916,85.7916 0 1 0 1874.22,5368.62A 85.7916,85.7916 0 1 0 1702.63,5368.62Z " />
<path stroke="none" fill="#e0e0e0" transform="matrix(0.0833333 0 0 0.0833333 -127.517 -400.083)" d="M 1703.95,5366.85 A 82.7017,82.7017 0 1 0 1869.35,5366.85A 82.7017,82.7017 0 1 0 1703.95,5366.85Z " />
<path stroke="none" fill="#e3e3e3" transform="matrix(0.0833333 0 0 0.0833333 -127.517 -400.083)" d="M 1705.26,5365.07 A 79.6119,79.6119 0 1 0 1864.49,5365.07A 79.6119,79.6119 0 1 0 1705.26,5365.07Z " />
<path stroke="none" fill="#e5e5e5" transform="matrix(0.0833333 0 0 0.0833333 -127.517 -400.083)" d="M 1706.58,5363.3 A 76.522,76.522 0 1 0 1859.62,5363.3A 76.522,76.522 0 1 0 1706.58,5363.3Z " />
<path stroke="none" fill="#e8e8e8" transform="matrix(0.0833333 0 0 0.0833333 -127.517 -400.083)" d="M 1707.89,5361.52 A 73.4322,73.4322 0 1 0 1854.76,5361.52A 73.4322,73.4322 0 1 0 1707.89,5361.52Z " />
<path stroke="none" fill="#eaeaea" transform="matrix(0.0833333 0 0 0.0833333 -127.517 -400.083)" d="M 1709.21,5359.75 A 70.3423,70.3423 0 1 0 1849.89,5359.75A 70.3423,70.3423 0 1 0 1709.21,5359.75Z " />
<path stroke="none" fill="#ececec" transform="matrix(0.0833333 0 0 0.0833333 -127.517 -400.083)" d="M 1710.52,5357.97 A 67.2525,67.2525 0 1 0 1845.03,5357.97A 67.2525,67.2525 0 1 0 1710.52,5357.97Z " />
<path stroke="none" fill="#eeeeee" transform="matrix(0.0833333 0 0 0.0833333 -127.517 -400.083)" d="M 1711.84,5356.2 A 64.1627,64.1627 0 1 0 1840.16,5356.2A 64.1627,64.1627 0 1 0 1711.84,5356.2Z " />
<path stroke="none" fill="#f0f0f0" transform="matrix(0.0833333 0 0 0.0833333 -127.517 -400.083)" d="M 1713.15,5354.42 A 61.0728,61.0728 0 1 0 1835.3,5354.42A 61.0728,61.0728 0 1 0 1713.15,5354.42Z " />
<path stroke="none" fill="#f2f2f2" transform="matrix(0.0833333 0 0 0.0833333 -127.517 -400.083)" d="M 1714.47,5352.65 A 57.983,57.983 0 1 0 1830.43,5352.65A 57.983,57.983 0 1 0 1714.47,5352.65Z " />
<path stroke="none" fill="#f4f4f4" transform="matrix(0.0833333 0 0 0.0833333 -127.517 -400.083)" d="M 1715.78,5350.87 A 54.8931,54.8931 0 1 0 1825.57,5350.87A 54.8931,54.8931 0 1 0 1715.78,5350.87Z " />
<path stroke="none" fill="#f5f5f5" transform="matrix(0.0833333 0 0 0.0833333 -127.517 -400.083)" d="M 1717.1,5349.1 A 51.8033,51.8033 0 1 0 1820.7,5349.1A 51.8033,51.8033 0 1 0 1717.1,5349.1Z " />
<path stroke="none" fill="#f7f7f7" transform="matrix(0.0833333 0 0 0.0833333 -127.517 -400.083)" d="M 1718.41,5347.32 A 48.7134,48.7134 0 1 0 1815.84,5347.32A 48.7134,48.7134 0 1 0 1718.41,5347.32Z " />
<path stroke="none" fill="#f8f8f8" transform="matrix(0.0833333 0 0 0.0833333 -127.517 -400.083)" d="M 1719.73,5345.55 A 45.6236,45.6236 0 1 0 1810.97,5345.55A 45.6236,45.6236 0 1 0 1719.73,5345.55Z " />
<path stroke="none" fill="#f9f9f9" transform="matrix(0.0833333 0 0 0.0833333 -127.517 -400.083)" d="M 1721.04,5343.77 A 42.5338,42.5338 0 1 0 1806.11,5343.77A 42.5338,42.5338 0 1 0 1721.04,5343.77Z " />
<path stroke="none" fill="#fafafa" transform="matrix(0.0833333 0 0 0.0833333 -127.517 -400.083)" d="M 1722.36,5342 A 39.4439,39.4439 0 1 0 1801.24,5342A 39.4439,39.4439 0 1 0 1722.36,5342Z " />
<path stroke="none" fill="#fbfbfb" transform="matrix(0.0833333 0 0 0.0833333 -127.517 -400.083)" d="M 1723.67,5340.22 A 36.3541,36.3541 0 1 0 1796.38,5340.22A 36.3541,36.3541 0 1 0 1723.67,5340.22Z " />
<path stroke="none" fill="#fcfcfc" transform="matrix(0.0833333 0 0 0.0833333 -127.517 -400.083)" d="M 1724.99,5338.45 A 33.2642,33.2642 0 1 0 1791.51,5338.45A 33.2642,33.2642 0 1 0 1724.99,5338.45Z " />
<path stroke="none" fill="#fdfdfd" transform="matrix(0.0833333 0 0 0.0833333 -127.517 -400.083)" d="M 1726.3,5336.67 A 30.1744,30.1744 0 1 0 1786.65,5336.67A 30.1744,30.1744 0 1 0 1726.3,5336.67Z " />
<path stroke="none" fill="#fdfdfd" transform="matrix(0.0833333 0 0 0.0833333 -127.517 -400.083)" d="M 1727.62,5334.9 A 27.0845,27.0845 0 1 0 1781.78,5334.9A 27.0845,27.0845 0 1 0 1727.62,5334.9Z " />
<path stroke="none" fill="#fefefe" transform="matrix(0.0833333 0 0 0.0833333 -127.517 -400.083)" d="M 1728.93,5333.12 A 23.9947,23.9947 0 1 0 1776.92,5333.12A 23.9947,23.9947 0 1 0 1728.93,5333.12Z " />
<path stroke="none" fill="#fefefe" transform="matrix(0.0833333 0 0 0.0833333 -127.517 -400.083)" d="M 1730.24,5331.35 A 20.9048,20.9048 0 1 0 1772.05,5331.35A 20.9048,20.9048 0 1 0 1730.24,5331.35Z " />
<path stroke="none" fill="#fefefe" transform="matrix(0.0833333 0 0 0.0833333 -127.517 -400.083)" d="M 1731.56,5329.57 A 17.815,17.815 0 1 0 1767.19,5329.57A 17.815,17.815 0 1 0 1731.56,5329.57Z " />
<path stroke="#bebebe" stroke-width="6" fill="none" transform="matrix(0.0833333 0 0 0.0833333 -127.517 -400.083)" d="M 1690.8,5384.6 A 113.6,113.6 0 1 0 1918,5384.6A 113.6,113.6 0 1 0 1690.8,5384.6Z " />
<text x="0" y="0" stroke="none" fill="#000000" transform="matrix(0.0833333 0 0 0.0833333 17.9453 50.6917)" font-style="normal" font-weight="normal" font-size="75px" font-family="Times New Roman" >
Fe</text>
<text x="0" y="0" stroke="none" fill="#000000" transform="matrix(0.0833333 0 0 0.0833333 24.1953 48.3167)" font-style="normal" font-weight="normal" font-size="56.25px" font-family="Times New Roman" >
2+</text>
<text x="0" y="0" stroke="none" fill="#000000" transform="matrix(0.0833333 0 0 0.0833333 130.538 35.775)" font-style="normal" font-weight="normal" font-size="63px" font-family="Arial" >
N</text>
<path stroke="none" fill="#000000" transform="matrix(0.0833333 0 0 0.0833333 -127.517 -400.083)" d="M 3088.05,5202.6 L 3088.05,5209 L 2931.82,5208.93 L 2928.12,5202.52 L 3088.05,5202.6 Z " />
<path stroke="none" fill="#000000" transform="matrix(0.0833333 0 0 0.0833333 -127.517 -400.083)" d="M 3088.05,5225.33 L 3088.05,5231.73 L 2943.12,5231.73 L 2943.12,5225.33 L 3088.05,5225.33 Z " />
<path stroke="none" fill="#000000" transform="matrix(0.0833333 0 0 0.0833333 -127.517 -400.083)" d="M 2928.12,5202.52 L 2931.82,5208.93 L 2838.82,5370 L 2835.2,5370 L 2833.39,5366.86 L 2928.12,5202.52 Z " />
<path stroke="none" fill="#000000" transform="matrix(0.0833333 0 0 0.0833333 -127.517 -400.083)" d="M 2833.39,5373.14 L 2835.2,5370 L 2838.82,5370 L 2931.81,5530.86 L 2928.12,5537.26 L 2833.39,5373.14 Z " />
<path stroke="none" fill="#000000" transform="matrix(0.0833333 0 0 0.0833333 -127.517 -400.083)" d="M 2858.68,5371.59 L 2864.22,5368.39 L 2945.89,5509.67 L 2940.35,5512.87 L 2858.68,5371.59 Z " />
<path stroke="none" fill="#000000" transform="matrix(0.0833333 0 0 0.0833333 -127.517 -400.083)" d="M 2928.12,5537.26 L 2931.81,5530.86 L 3117.59,5530.86 L 3121.28,5537.26 L 2928.12,5537.26 Z " />
<path stroke="none" fill="#000000" transform="matrix(0.0833333 0 0 0.0833333 -127.517 -400.083)" d="M 3121.28,5537.26 L 3117.59,5530.86 L 3210.58,5369.98 L 3214.2,5370 L 3216.01,5373.14 L 3121.28,5537.26 Z " />
<path stroke="none" fill="#000000" transform="matrix(0.0833333 0 0 0.0833333 -127.517 -400.083)" d="M 3109.05,5512.87 L 3103.51,5509.67 L 3185.18,5368.39 L 3190.72,5371.59 L 3109.05,5512.87 Z " />
<path stroke="none" fill="#000000" transform="matrix(0.0833333 0 0 0.0833333 -127.517 -400.083)" d="M 3215.99,5366.86 L 3214.2,5370 L 3210.58,5369.98 L 3137.63,5243.78 L 3143.18,5240.58 L 3215.99,5366.86 Z " />
<path stroke="none" fill="#000000" transform="matrix(0.0833333 0 0 0.0833333 -127.517 -400.083)" d="M 2833.39,5366.86 L 2835.2,5370 L 2833.39,5373.14 L 2645.8,5373.2 L 2645.8,5366.8 L 2833.39,5366.86 Z " />
<path stroke="none" fill="#000000" transform="matrix(0.0833333 0 0 0.0833333 -127.517 -400.083)" d="M 3216.01,5373.14 L 3214.2,5370 L 3215.99,5366.86 L 3405.7,5366.74 L 3402,5373.14 L 3216.01,5373.14 Z " />
<text x="0" y="0" stroke="none" fill="#000000" transform="matrix(0.0833333 0 0 0.0833333 161.155 63.598)" font-style="normal" font-weight="normal" font-size="63px" font-family="Arial" >
O</text>
<path stroke="none" fill="#000000" transform="matrix(0.0833333 0 0 0.0833333 -127.517 -400.083)" d="M 3402,5373.14 L 3405.7,5366.74 L 3483.71,5502.13 L 3478.17,5505.33 L 3402,5373.14 Z " />
<path stroke="none" fill="#000000" transform="matrix(0.0833333 0 0 0.0833333 -127.517 -400.083)" d="M 3387.9,5394.32 L 3393.45,5391.12 L 3464.03,5513.48 L 3458.49,5516.68 L 3387.9,5394.32 Z " />
<text x="0" y="0" stroke="none" fill="#000000" transform="matrix(0.0833333 0 0 0.0833333 144.45 39.8333)" font-style="normal" font-weight="bold" font-size="138px" font-family="Arial" >
3</text>
<path stroke="none" fill="#000000" transform="matrix(0.0833333 0 0 0.0833333 -127.517 -400.083)" d="M 8352.38,4843.41 L 8352.42,4850.84 L 8190.48,4947.54 L 8188.2,4945.2 L 8187.58,4941.89 L 8352.38,4843.41 Z " />
<path stroke="none" fill="#000000" transform="matrix(0.0833333 0 0 0.0833333 -127.517 -400.083)" d="M 8352.42,4850.84 L 8352.38,4843.41 L 8516.34,4939.35 L 8516,4942.8 L 8513.18,4944.8 L 8352.42,4850.84 Z " />
<path stroke="none" fill="#000000" transform="matrix(0.0833333 0 0 0.0833333 -127.517 -400.083)" d="M 8513.18,4944.8 L 8516,4942.8 L 8519.51,4944.83 L 8545.21,5083.38 L 8539.46,5087.47 L 8513.18,4944.8 Z " />
<path stroke="none" fill="#000000" transform="matrix(0.0833333 0 0 0.0833333 -127.517 -400.083)" d="M 8535.58,4956.5 L 8541.87,4955.33 L 8563.48,5072.06 L 8557.19,5073.23 L 8535.58,4956.5 Z " />
<path stroke="none" fill="#000000" transform="matrix(0.0833333 0 0 0.0833333 -127.517 -400.083)" d="M 8539.46,5087.47 L 8545.21,5083.38 L 8707.52,5175.76 L 8706.9,5182.77 L 8539.46,5087.47 Z " />
<path stroke="none" fill="#000000" transform="matrix(0.0833333 0 0 0.0833333 -127.517 -400.083)" d="M 8706.9,5182.77 L 8707.52,5175.76 L 8841.88,5128.17 L 8845.4,5130.2 L 8845.07,5133.64 L 8706.9,5182.77 Z " />
<path stroke="none" fill="#000000" transform="matrix(0.0833333 0 0 0.0833333 -127.517 -400.083)" d="M 8710.21,5160.35 L 8708.07,5154.32 L 8821.58,5114.07 L 8823.72,5120.1 L 8710.21,5160.35 Z " />
<path stroke="none" fill="#000000" transform="matrix(0.0833333 0 0 0.0833333 -127.517 -400.083)" d="M 8848.22,5128.21 L 8845.4,5130.2 L 8841.88,5128.17 L 8815.99,4989.62 L 8821.74,4985.53 L 8848.22,5128.21 Z " />
<path stroke="none" fill="#000000" transform="matrix(0.0833333 0 0 0.0833333 -127.517 -400.083)" d="M 8821.74,4985.53 L 8815.99,4989.62 L 8653.88,4897.24 L 8654.5,4890.23 L 8821.74,4985.53 Z " />
<path stroke="none" fill="#000000" transform="matrix(0.0833333 0 0 0.0833333 -127.517 -400.083)" d="M 8806.59,4994.64 L 8803.42,5000.2 L 8651.12,4913.41 L 8654.29,4907.85 L 8806.59,4994.64 Z " />
<path stroke="none" fill="#000000" transform="matrix(0.0833333 0 0 0.0833333 -127.517 -400.083)" d="M 8654.5,4890.23 L 8653.88,4897.24 L 8519.51,4944.83 L 8516,4942.8 L 8516.34,4939.35 L 8654.5,4890.23 Z " />
<path stroke="none" fill="#000000" transform="matrix(0.0833333 0 0 0.0833333 -127.517 -400.083)" d="M 8187.58,4941.89 L 8188.2,4945.2 L 8183.49,4947.2 L 8092.36,4928.31 L 8091.32,4921.55 L 8187.58,4941.89 Z " />
<path stroke="none" fill="#000000" transform="matrix(0.0833333 0 0 0.0833333 -127.517 -400.083)" d="M 8162.62,4953.49 L 8161.31,4959.75 L 8093.81,4945.61 L 8095.12,4939.35 L 8162.62,4953.49 Z " />
<path stroke="none" fill="#000000" transform="matrix(0.0833333 0 0 0.0833333 -127.517 -400.083)" d="M 8091.32,4921.55 L 8092.36,4928.31 L 7930.06,5018.97 L 7925.46,5014.21 L 8091.32,4921.55 Z " />
<path stroke="none" fill="#000000" transform="matrix(0.0833333 0 0 0.0833333 -127.517 -400.083)" d="M 7925.46,5014.21 L 7930.06,5018.97 L 7864.91,5126.59 L 7860.2,5128.6 L 7857.91,5126.28 L 7925.46,5014.21 Z " />
<path stroke="none" fill="#000000" transform="matrix(0.0833333 0 0 0.0833333 -127.517 -400.083)" d="M 7934.77,5024.99 L 7940.25,5028.3 L 7884.34,5120.93 L 7878.86,5117.62 L 7934.77,5024.99 Z " />
<path stroke="none" fill="#000000" transform="matrix(0.0833333 0 0 0.0833333 -127.517 -400.083)" d="M 7860.8,5131.91 L 7860.2,5128.6 L 7864.91,5126.59 L 7956.23,5145.49 L 7957.28,5152.25 L 7860.8,5131.91 Z " />
<path stroke="none" fill="#000000" transform="matrix(0.0833333 0 0 0.0833333 -127.517 -400.083)" d="M 7957.28,5152.25 L 7956.23,5145.49 L 8118.34,5054.83 L 8122.94,5059.59 L 7957.28,5152.25 Z " />
<path stroke="none" fill="#000000" transform="matrix(0.0833333 0 0 0.0833333 -127.517 -400.083)" d="M 7956.91,5142.13 L 7953.79,5136.55 L 8112.59,5047.74 L 8115.71,5053.33 L 7956.91,5142.13 Z " />
<path stroke="none" fill="#000000" transform="matrix(0.0833333 0 0 0.0833333 -127.517 -400.083)" d="M 8122.94,5059.59 L 8118.34,5054.83 L 8183.49,4947.2 L 8188.2,4945.2 L 8190.48,4947.54 L 8122.94,5059.59 Z " />
<text x="0" y="0" stroke="none" fill="#000000" transform="matrix(0.0833333 0 0 0.0833333 511.921 37.5083)" font-style="normal" font-weight="normal" font-size="63px" font-family="Arial" >
N</text>
<path stroke="none" fill="#000000" transform="matrix(0.0833333 0 0 0.0833333 -127.517 -400.083)" d="M 7857.91,5126.28 L 7860.2,5128.6 L 7860.8,5131.91 L 7729.98,5210.05 L 7726.7,5204.55 L 7857.91,5126.28 Z " />
<text x="0" y="0" stroke="none" fill="#000000" transform="matrix(0.0833333 0 0 0.0833333 621.338 37.4417)" font-style="normal" font-weight="normal" font-size="63px" font-family="Arial" >
N</text>
<path stroke="none" fill="#000000" transform="matrix(0.0833333 0 0 0.0833333 -127.517 -400.083)" d="M 8845.07,5133.64 L 8845.4,5130.2 L 8848.22,5128.21 L 8977.05,5203.42 L 8973.82,5208.95 L 8845.07,5133.64 Z " />
<path stroke="none" fill="#000000" transform="matrix(0.0833333 0 0 0.0833333 -127.517 -400.083)" d="M 9038.95,5227.56 L 9038.64,5221.17 L 9051.51,5220.54 L 9047.2,5227.16 L 9038.95,5227.56 L 9038.95,5227.56 Z " />
<path stroke="none" fill="#000000" transform="matrix(0.0833333 0 0 0.0833333 -127.517 -400.083)" d="M 9122.14,5217.09 L 9120.54,5223.57 L 9106.27,5224.27 L 9110.58,5217.66 L 9122.14,5217.09 L 9122.14,5217.09 Z " />
<path stroke="none" fill="#000000" transform="matrix(0.0833333 0 0 0.0833333 -127.517 -400.083)" d="M 9037.86,5204.86 L 9037.55,5198.47 L 9066.8,5197.06 L 9062.49,5203.67 L 9037.86,5204.86 L 9037.86,5204.86 Z " />
<path stroke="none" fill="#000000" transform="matrix(0.0833333 0 0 0.0833333 -127.517 -400.083)" d="M 7662.29,5215.8 L 7660.9,5222.05 L 7619.1,5212.72 L 7620.5,5206.48 L 7662.29,5215.8 Z " />
<path stroke="none" fill="#000000" transform="matrix(0.0833333 0 0 0.0833333 -127.517 -400.083)" d="M 7657.34,5237.99 L 7655.95,5244.23 L 7621.82,5236.62 L 7623.21,5230.37 L 7657.34,5237.99 Z " />
<path stroke="none" fill="#000000" transform="matrix(0.0833333 0 0 0.0833333 -127.517 -400.083)" d="M 9120.54,5223.57 L 9122.14,5217.09 L 9286.42,5312.01 L 9285.6,5315.2 L 9283.31,5317.54 L 9120.54,5223.57 L 9120.54,5223.57 Z " />
<path stroke="none" fill="#000000" transform="matrix(0.0833333 0 0 0.0833333 -127.517 -400.083)" d="M 7619.56,5206.12 L 7620.42,5212.82 L 7454.24,5292.25 L 7452.4,5289.6 L 7451.93,5286.32 L 7619.56,5206.12 Z " />
<text x="0" y="0" stroke="none" fill="#000000" transform="matrix(0.0833333 0 0 0.0833333 648.704 53.225)" font-style="normal" font-weight="normal" font-size="63px" font-family="Arial" >
N</text>
<path stroke="none" fill="#000000" transform="matrix(0.0833333 0 0 0.0833333 -127.517 -400.083)" d="M 9283.31,5317.54 L 9285.6,5315.2 L 9290.18,5317.93 L 9309.99,5355.66 L 9309.53,5361.86 L 9306.62,5362.68 L 9283.31,5317.54 L 9283.31,5317.54 Z " />
<path stroke="none" fill="#000000" transform="matrix(0.0833333 0 0 0.0833333 -127.517 -400.083)" d="M 9304.62,5329.26 L 9310.3,5326.32 L 9311.92,5329.44 L 9311.03,5341.62 L 9304.62,5329.26 L 9304.62,5329.26 Z " />
<path stroke="none" fill="#000000" transform="matrix(0.0833333 0 0 0.0833333 -127.517 -400.083)" d="M 9502.2,5506.61 L 9500.62,5513.09 L 9487.87,5505.73 L 9496.47,5503.31 L 9502.2,5506.61 L 9502.2,5506.61 Z " />
<path stroke="none" fill="#000000" transform="matrix(0.0833333 0 0 0.0833333 -127.517 -400.083)" d="M 9500.62,5513.09 L 9502.2,5506.61 L 9609.28,5501.68 L 9614,5504.4 L 9613.18,5507.59 L 9500.62,5513.09 L 9500.62,5513.09 Z " />
<path stroke="none" fill="#000000" transform="matrix(0.0833333 0 0 0.0833333 -127.517 -400.083)" d="M 9591.06,5488.08 L 9591.37,5494.48 L 9514.76,5498.15 L 9542.13,5490.43 L 9591.06,5488.08 L 9591.06,5488.08 Z " />
<path stroke="none" fill="#000000" transform="matrix(0.0833333 0 0 0.0833333 -127.517 -400.083)" d="M 9616.35,5502.09 L 9614,5504.4 L 9609.28,5501.68 L 9595.58,5475.36 L 9601.65,5473.65 L 9616.35,5502.09 L 9616.35,5502.09 Z " />
<path stroke="none" fill="#000000" transform="matrix(0.0833333 0 0 0.0833333 -127.517 -400.083)" d="M 9559.85,5406.71 L 9564.67,5402.09 L 9580.8,5433.31 L 9574.61,5435.06 L 9559.85,5406.71 L 9559.85,5406.71 Z " />
<path stroke="none" fill="#000000" transform="matrix(0.0833333 0 0 0.0833333 -127.517 -400.083)" d="M 9564.67,5402.09 L 9559.85,5406.71 L 9397.18,5312.99 L 9398.76,5306.51 L 9564.67,5402.09 Z " />
<path stroke="none" fill="#000000" transform="matrix(0.0833333 0 0 0.0833333 -127.517 -400.083)" d="M 9557.45,5407.69 L 9554.26,5413.24 L 9394.34,5321.11 L 9397.53,5315.56 L 9557.45,5407.69 Z " />
<path stroke="none" fill="#000000" transform="matrix(0.0833333 0 0 0.0833333 -127.517 -400.083)" d="M 9398.76,5306.51 L 9397.18,5312.99 L 9358.57,5314.77 L 9359.03,5308.45 L 9398.76,5306.51 L 9398.76,5306.51 Z " />
<path stroke="none" fill="#000000" transform="matrix(0.0833333 0 0 0.0833333 -127.517 -400.083)" d="M 9290.18,5317.93 L 9285.6,5315.2 L 9286.42,5312.01 L 9313.31,5310.69 L 9312.85,5316.88 L 9290.18,5317.93 L 9290.18,5317.93 Z " />
<path stroke="none" fill="#000000" transform="matrix(0.0833333 0 0 0.0833333 -127.517 -400.083)" d="M 7451.93,5286.32 L 7452.4,5289.6 L 7446.93,5291.24 L 7376.67,5275.88 L 7375.88,5269.16 L 7451.93,5286.32 Z " />
<path stroke="none" fill="#000000" transform="matrix(0.0833333 0 0 0.0833333 -127.517 -400.083)" d="M 7422.45,5295.92 L 7421.06,5302.17 L 7377.41,5292.43 L 7378.8,5286.18 L 7422.45,5295.92 Z " />
<path stroke="none" fill="#000000" transform="matrix(0.0833333 0 0 0.0833333 -127.517 -400.083)" d="M 7375.88,5269.16 L 7376.67,5275.88 L 7210.68,5355.42 L 7206.85,5350.16 L 7375.88,5269.16 Z " />
<path stroke="none" fill="#000000" transform="matrix(0.0833333 0 0 0.0833333 -127.517 -400.083)" d="M 7206.85,5350.16 L 7210.68,5355.42 L 7122.98,5448.39 L 7117.4,5450 L 7115.52,5447.38 L 7206.85,5350.16 Z " />
<path stroke="none" fill="#000000" transform="matrix(0.0833333 0 0 0.0833333 -127.517 -400.083)" d="M 7212.05,5358.24 L 7216.71,5362.63 L 7137.69,5446.67 L 7133.02,5442.29 L 7212.05,5358.24 Z " />
<path stroke="none" fill="#000000" transform="matrix(0.0833333 0 0 0.0833333 -127.517 -400.083)" d="M 7117.87,5453.28 L 7117.4,5450 L 7122.98,5448.39 L 7193.15,5463.72 L 7193.94,5470.44 L 7117.87,5453.28 Z " />
<path stroke="none" fill="#000000" transform="matrix(0.0833333 0 0 0.0833333 -127.517 -400.083)" d="M 7390.21,5360.56 L 7385.54,5356.18 L 7446.93,5291.24 L 7452.4,5289.6 L 7454.24,5292.25 L 7390.21,5360.56 Z " />
<path stroke="none" fill="#000000" transform="matrix(0.0833333 0 0 0.0833333 -127.517 -400.083)" d="M 9613.18,5507.59 L 9614,5504.4 L 9616.35,5502.09 L 9779.8,5596.43 L 9776.6,5601.97 L 9613.18,5507.59 Z " />
<path stroke="none" fill="#000000" transform="matrix(0.0833333 0 0 0.0833333 -127.517 -400.083)" d="M 7115.52,5447.38 L 7117.4,5450 L 7117.87,5453.28 L 6951.38,5533.09 L 6948.62,5527.31 L 7115.52,5447.38 Z " />
<path stroke="none" fill="#000000" transform="matrix(0.0833333 0 0 0.0833333 -127.517 -400.083)" d="M 8371.64,5581.95 L 8371.98,5588.51 L 8199.83,5557.55 L 8200.97,5551.25 L 8371.64,5581.95 Z " />
<path stroke="none" fill="#000000" transform="matrix(0.0833333 0 0 0.0833333 -127.517 -400.083)" d="M 8371.98,5588.51 L 8371.64,5581.95 L 8517.67,5539.28 L 8520.2,5541.8 L 8520.06,5545.13 L 8371.98,5588.51 Z " />
<path stroke="none" fill="#000000" transform="matrix(0.0833333 0 0 0.0833333 -127.517 -400.083)" d="M 8520.06,5545.13 L 8520.2,5541.8 L 8523.91,5539.95 L 8655.9,5591.59 L 8656.07,5598.53 L 8520.06,5545.13 Z " />
<path stroke="none" fill="#000000" transform="matrix(0.0833333 0 0 0.0833333 -127.517 -400.083)" d="M 8544.05,5532.34 L 8546.38,5526.38 L 8656.62,5569.57 L 8654.28,5575.53 L 8544.05,5532.34 Z " />
<path stroke="none" fill="#000000" transform="matrix(0.0833333 0 0 0.0833333 -127.517 -400.083)" d="M 8656.07,5598.53 L 8655.9,5591.59 L 8825.99,5515.12 L 8831.34,5519.73 L 8656.07,5598.53 Z " />
<path stroke="none" fill="#000000" transform="matrix(0.0833333 0 0 0.0833333 -127.517 -400.083)" d="M 8831.34,5519.73 L 8825.99,5515.12 L 8861.69,5388.65 L 8865.4,5386.8 L 8867.94,5389.29 L 8831.34,5519.73 Z " />
<path stroke="none" fill="#000000" transform="matrix(0.0833333 0 0 0.0833333 -127.517 -400.083)" d="M 8817.53,5506.07 L 8811.37,5504.34 L 8841.87,5396.1 L 8848.03,5397.83 L 8817.53,5506.07 Z " />
<path stroke="none" fill="#000000" transform="matrix(0.0833333 0 0 0.0833333 -127.517 -400.083)" d="M 8865.57,5383.48 L 8865.4,5386.8 L 8861.69,5388.65 L 8729.7,5337.01 L 8729.53,5330.07 L 8865.57,5383.48 Z " />
<path stroke="none" fill="#000000" transform="matrix(0.0833333 0 0 0.0833333 -127.517 -400.083)" d="M 8729.53,5330.07 L 8729.7,5337.01 L 8559.61,5413.48 L 8554.26,5408.87 L 8729.53,5330.07 Z " />
<path stroke="none" fill="#000000" transform="matrix(0.0833333 0 0 0.0833333 -127.517 -400.083)" d="M 8728.67,5346.33 L 8731.3,5352.16 L 8570.37,5424.52 L 8567.75,5418.68 L 8728.67,5346.33 Z " />
<path stroke="none" fill="#000000" transform="matrix(0.0833333 0 0 0.0833333 -127.517 -400.083)" d="M 8554.26,5408.87 L 8559.61,5413.48 L 8523.91,5539.95 L 8520.2,5541.8 L 8517.67,5539.28 L 8554.26,5408.87 Z " />
<path stroke="none" fill="#000000" transform="matrix(0.0833333 0 0 0.0833333 -127.517 -400.083)" d="M 8197.95,5551.39 L 8193.75,5556.23 L 8102.84,5477.33 L 8107.03,5472.5 L 8197.95,5551.39 Z " />
<path stroke="none" fill="#000000" transform="matrix(0.0833333 0 0 0.0833333 -127.517 -400.083)" d="M 8207.38,5552.86 L 8203.18,5557.69 L 8106.16,5473.5 L 8110.36,5468.67 L 8207.38,5552.86 Z " />
<path stroke="none" fill="#000000" transform="matrix(0.0833333 0 0 0.0833333 -127.517 -400.083)" d="M 8108.15,5470.2 L 8105.05,5475.8 L 7942.07,5385.81 L 7944.16,5379.65 L 8108.15,5470.2 Z " />
<path stroke="none" fill="#000000" transform="matrix(0.0833333 0 0 0.0833333 -127.517 -400.083)" d="M 7943.61,5379.63 L 7942.79,5385.97 L 7882.06,5377.3 L 7873.8,5373.8 L 7874.21,5370.63 L 7943.61,5379.63 Z " />
<path stroke="none" fill="#000000" transform="matrix(0.0833333 0 0 0.0833333 -127.517 -400.083)" d="M 7941.26,5386.81 L 7940.43,5393.16 L 7896.92,5387.52 L 7897.74,5381.17 L 7941.26,5386.81 Z " />
<path stroke="none" fill="#000000" transform="matrix(0.0833333 0 0 0.0833333 -127.517 -400.083)" d="M 7872.4,5376.76 L 7873.8,5373.8 L 7882.06,5377.3 L 7929.07,5417.69 L 7937.36,5433.04 L 7872.4,5376.76 L 7872.4,5376.76 Z " />
<path stroke="none" fill="#000000" transform="matrix(0.0833333 0 0 0.0833333 -127.517 -400.083)" d="M 8132.13,5542.39 L 8130.04,5548.55 L 8069.68,5515.15 L 8109.94,5530.11 L 8132.13,5542.39 L 8132.13,5542.39 Z " />
<path stroke="none" fill="#000000" transform="matrix(0.0833333 0 0 0.0833333 -127.517 -400.083)" d="M 8133.68,5539.15 L 8130.58,5544.75 L 8092.19,5523.52 L 8132.43,5538.46 L 8133.68,5539.15 L 8133.68,5539.15 Z " />
<path stroke="none" fill="#000000" transform="matrix(0.0833333 0 0 0.0833333 -127.517 -400.083)" d="M 8130.59,5548.57 L 8131.41,5542.23 L 8200.81,5551.23 L 8199.99,5557.57 L 8130.59,5548.57 Z " />
<text x="0" y="0" stroke="none" fill="#000000" transform="matrix(0.0833333 0 0 0.0833333 512.454 47.1917)" font-style="normal" font-weight="normal" font-size="63px" font-family="Arial" >
N</text>
<path stroke="none" fill="#000000" transform="matrix(0.0833333 0 0 0.0833333 -127.517 -400.083)" d="M 7874.37,5370.65 L 7873.8,5373.8 L 7872.4,5376.76 L 7734.26,5351.81 L 7735.4,5345.52 L 7874.37,5370.65 Z " />
<text x="0" y="0" stroke="none" fill="#000000" transform="matrix(0.0833333 0 0 0.0833333 621.738 47.225)" font-style="normal" font-weight="normal" font-size="63px" font-family="Arial" >
N</text>
<path stroke="none" fill="#000000" transform="matrix(0.0833333 0 0 0.0833333 -127.517 -400.083)" d="M 8867.94,5389.29 L 8865.4,5386.8 L 8865.57,5383.48 L 8977.87,5350.42 L 8979.67,5356.56 L 8867.94,5389.29 L 8867.94,5389.29 Z " />
<path stroke="none" fill="#000000" transform="matrix(0.0833333 0 0 0.0833333 -127.517 -400.083)" d="M 9037.64,5312.45 L 9032.27,5308.96 L 9106.45,5194.95 L 9110.66,5200.2 L 9037.64,5312.45 L 9037.64,5312.45 Z " />
<path stroke="none" fill="#000000" transform="matrix(0.0833333 0 0 0.0833333 -127.517 -400.083)" d="M 9018.59,5300.05 L 9013.23,5296.56 L 9086.87,5183.45 L 9092.24,5186.94 L 9018.59,5300.05 L 9018.59,5300.05 Z " />
<path stroke="none" fill="#000000" transform="matrix(0.0833333 0 0 0.0833333 -127.517 -400.083)" d="M 7679.85,5379.03 L 7685.53,5382 L 7632.7,5483.36 L 7629.09,5476.43 L 7679.85,5379.03 Z " />
<path stroke="none" fill="#000000" transform="matrix(0.0833333 0 0 0.0833333 -127.517 -400.083)" d="M 7700.01,5389.56 L 7705.68,5392.53 L 7653.79,5491.81 L 7648.12,5488.85 L 7700.01,5389.56 Z " />
<path stroke="none" fill="#000000" transform="matrix(0.0833333 0 0 0.0833333 -127.517 -400.083)" d="M 9110.66,5200.2 L 9106.45,5194.95 L 9267.12,5134.61 L 9269.2,5137.2 L 9268.28,5140.88 L 9110.66,5200.2 Z " />
<path stroke="none" fill="#000000" transform="matrix(0.0833333 0 0 0.0833333 -127.517 -400.083)" d="M 7629.09,5476.43 L 7632.7,5483.36 L 7462.15,5461.37 L 7460.4,5458 L 7462.27,5455.07 L 7629.09,5476.43 Z " />
<text x="0" y="0" stroke="none" fill="#000000" transform="matrix(0.0833333 0 0 0.0833333 648.488 37.1583)" font-style="normal" font-weight="normal" font-size="63px" font-family="Arial" >
N</text>
<path stroke="none" fill="#000000" transform="matrix(0.0833333 0 0 0.0833333 -127.517 -400.083)" d="M 9268.28,5140.88 L 9269.2,5137.2 L 9272.95,5137.17 L 9313,5188.85 L 9307.93,5192.75 L 9268.28,5140.88 L 9268.28,5140.88 Z " />
<path stroke="none" fill="#000000" transform="matrix(0.0833333 0 0 0.0833333 -127.517 -400.083)" d="M 9294.53,5138.05 L 9299.61,5134.15 L 9331.03,5174.96 L 9325.96,5178.87 L 9294.53,5138.05 L 9294.53,5138.05 Z " />
<path stroke="none" fill="#000000" transform="matrix(0.0833333 0 0 0.0833333 -127.517 -400.083)" d="M 9586.41,5016.3 L 9590.2,5016.2 L 9592.28,5018.79 L 9501.4,5158.22 L 9499.32,5156.4 L 9498.01,5151.71 L 9586.41,5016.3 L 9586.41,5016.3 Z " />
<path stroke="none" fill="#000000" transform="matrix(0.0833333 0 0 0.0833333 -127.517 -400.083)" d="M 9570.3,5015.12 L 9575.66,5018.62 L 9492.73,5145.72 L 9483.38,5148.34 L 9570.3,5015.12 L 9570.3,5015.12 Z " />
<path stroke="none" fill="#000000" transform="matrix(0.0833333 0 0 0.0833333 -127.517 -400.083)" d="M 9591.21,5012.49 L 9590.2,5016.2 L 9586.41,5016.3 L 9523.59,4934.71 L 9525.77,4927.04 L 9591.21,5012.49 Z " />
<path stroke="none" fill="#000000" transform="matrix(0.0833333 0 0 0.0833333 -127.517 -400.083)" d="M 9525.77,4927.04 L 9523.59,4934.71 L 9366.09,4994.19 L 9361.86,4988.94 L 9525.77,4927.04 Z " />
<path stroke="none" fill="#000000" transform="matrix(0.0833333 0 0 0.0833333 -127.517 -400.083)" d="M 9518.62,4945.08 L 9520.88,4951.07 L 9374.53,5006.29 L 9372.27,5000.3 L 9518.62,4945.08 Z " />
<path stroke="none" fill="#000000" transform="matrix(0.0833333 0 0 0.0833333 -127.517 -400.083)" d="M 9361.86,4988.94 L 9366.09,4994.19 L 9272.95,5137.17 L 9269.2,5137.2 L 9267.12,5134.61 L 9361.86,4988.94 Z " />
<text x="0" y="0" stroke="none" fill="#000000" transform="matrix(0.0833333 0 0 0.0833333 484.054 43.5417)" font-style="normal" font-weight="normal" font-size="63px" font-family="Arial" >
N</text>
<path stroke="none" fill="#000000" transform="matrix(0.0833333 0 0 0.0833333 -127.517 -400.083)" d="M 7456.81,5458.13 L 7460.4,5458 L 7462.15,5461.37 L 7390.66,5598.55 L 7387.05,5591.63 L 7456.81,5458.13 Z " />
<path stroke="none" fill="#000000" transform="matrix(0.0833333 0 0 0.0833333 -127.517 -400.083)" d="M 7431.86,5457.47 L 7437.54,5460.44 L 7379.05,5572.34 L 7373.38,5569.37 L 7431.86,5457.47 Z " />
<path stroke="none" fill="#000000" transform="matrix(0.0833333 0 0 0.0833333 -127.517 -400.083)" d="M 7387.05,5591.63 L 7390.66,5598.55 L 7216.46,5576.03 L 7220.29,5570.07 L 7387.05,5591.63 Z " />
<path stroke="none" fill="#000000" transform="matrix(0.0833333 0 0 0.0833333 -127.517 -400.083)" d="M 7220.29,5570.07 L 7216.46,5576.03 L 7153.25,5474.19 L 7161.9,5476.12 L 7220.29,5570.07 L 7220.29,5570.07 Z " />
<path stroke="none" fill="#000000" transform="matrix(0.0833333 0 0 0.0833333 -127.517 -400.083)" d="M 7117.71,5416.93 L 7119.6,5414 L 7123.2,5413.85 L 7123.87,5414.92 L 7119.41,5419.66 L 7117.71,5416.93 L 7117.71,5416.93 Z " />
<path stroke="none" fill="#000000" transform="matrix(0.0833333 0 0 0.0833333 -127.517 -400.083)" d="M 7232.17,5554.13 L 7226.73,5557.51 L 7178.45,5479.81 L 7187.2,5481.76 L 7190.45,5486.99 L 7192.19,5490.64 L 7192.6,5490.45 L 7232.17,5554.13 L 7232.17,5554.13 Z " />
<path stroke="none" fill="#000000" transform="matrix(0.0833333 0 0 0.0833333 -127.517 -400.083)" d="M 7163.18,5443.1 L 7163.84,5444.17 L 7162.46,5443.86 L 7163.18,5443.1 L 7163.18,5443.1 Z " />
<path stroke="none" fill="#000000" transform="matrix(0.0833333 0 0 0.0833333 -127.517 -400.083)" d="M 7123.2,5413.85 L 7119.6,5414 L 7117.85,5410.63 L 7189.35,5273.43 L 7192.96,5280.35 L 7123.2,5413.85 L 7123.2,5413.85 Z " />
<path stroke="none" fill="#000000" transform="matrix(0.0833333 0 0 0.0833333 -127.517 -400.083)" d="M 7192.96,5280.35 L 7189.35,5273.43 L 7306.22,5288.61 L 7295.62,5293.68 L 7192.96,5280.35 L 7192.96,5280.35 Z " />
<path stroke="none" fill="#000000" transform="matrix(0.0833333 0 0 0.0833333 -127.517 -400.083)" d="M 7201.89,5301.47 L 7202.71,5295.12 L 7273.54,5304.26 L 7262.93,5309.35 L 7201.89,5301.47 L 7201.89,5301.47 Z " />
<path stroke="none" fill="#000000" transform="matrix(0.0833333 0 0 0.0833333 -127.517 -400.083)" d="M 7327.73,5317.71 L 7320.54,5316.79 L 7328.33,5313.05 L 7327.73,5317.71 L 7327.73,5317.71 Z " />
<path stroke="none" fill="#000000" transform="matrix(0.0833333 0 0 0.0833333 -127.517 -400.083)" d="M 7381.1,5336.44 L 7386.53,5333.06 L 7387.9,5335.26 L 7383.37,5340.09 L 7381.1,5336.44 L 7381.1,5336.44 Z " />
<path stroke="none" fill="#000000" transform="matrix(0.0833333 0 0 0.0833333 -127.517 -400.083)" d="M 7462.27,5455.07 L 7460.4,5458 L 7456.81,5458.13 L 7400.64,5367.85 L 7405.15,5363.05 L 7462.27,5455.07 L 7462.27,5455.07 Z " />
<path stroke="none" fill="#000000" transform="matrix(0.0833333 0 0 0.0833333 -127.517 -400.083)" d="M 9592.28,5018.79 L 9590.2,5016.2 L 9591.21,5012.49 L 9749.47,4952.61 L 9751.73,4958.59 L 9592.28,5018.79 Z " />
<path stroke="none" fill="#000000" transform="matrix(0.0833333 0 0 0.0833333 -127.517 -400.083)" d="M 7117.85,5410.63 L 7119.6,5414 L 7117.71,5416.93 L 6948.79,5395.17 L 6949.61,5388.83 L 7117.85,5410.63 L 7117.85,5410.63 Z " />
<path stroke="none" fill="#bebebe" transform="matrix(0.0833333 0 0 0.0833333 -127.517 -400.083)" d="M 7414.6,5292.2 A 113.6,113.6 0 1 0 7641.8,5292.2A 113.6,113.6 0 1 0 7414.6,5292.2Z " />
<path stroke="none" fill="#c1c1c1" transform="matrix(0.0833333 0 0 0.0833333 -127.517 -400.083)" d="M 7415.91,5290.42 A 110.51,110.51 0 1 0 7636.94,5290.42A 110.51,110.51 0 1 0 7415.91,5290.42Z " />
<path stroke="none" fill="#c5c5c5" transform="matrix(0.0833333 0 0 0.0833333 -127.517 -400.083)" d="M 7417.23,5288.65 A 107.42,107.42 0 1 0 7632.07,5288.65A 107.42,107.42 0 1 0 7417.23,5288.65Z " />
<path stroke="none" fill="#c9c9c9" transform="matrix(0.0833333 0 0 0.0833333 -127.517 -400.083)" d="M 7418.54,5286.87 A 104.331,104.331 0 1 0 7627.21,5286.87A 104.331,104.331 0 1 0 7418.54,5286.87Z " />
<path stroke="none" fill="#cdcdcd" transform="matrix(0.0833333 0 0 0.0833333 -127.517 -400.083)" d="M 7419.86,5285.1 A 101.241,101.241 0 1 0 7622.34,5285.1A 101.241,101.241 0 1 0 7419.86,5285.1Z " />
<path stroke="none" fill="#d0d0d0" transform="matrix(0.0833333 0 0 0.0833333 -127.517 -400.083)" d="M 7421.17,5283.32 A 98.1509,98.1509 0 1 0 7617.48,5283.32A 98.1509,98.1509 0 1 0 7421.17,5283.32Z " />
<path stroke="none" fill="#d4d4d4" transform="matrix(0.0833333 0 0 0.0833333 -127.517 -400.083)" d="M 7422.49,5281.55 A 95.0611,95.0611 0 1 0 7612.61,5281.55A 95.0611,95.0611 0 1 0 7422.49,5281.55Z " />
<path stroke="none" fill="#d7d7d7" transform="matrix(0.0833333 0 0 0.0833333 -127.517 -400.083)" d="M 7423.8,5279.77 A 91.9713,91.9713 0 1 0 7607.75,5279.77A 91.9713,91.9713 0 1 0 7423.8,5279.77Z " />
<path stroke="none" fill="#dadada" transform="matrix(0.0833333 0 0 0.0833333 -127.517 -400.083)" d="M 7425.12,5278 A 88.8814,88.8814 0 1 0 7602.88,5278A 88.8814,88.8814 0 1 0 7425.12,5278Z " />
<path stroke="none" fill="#dddddd" transform="matrix(0.0833333 0 0 0.0833333 -127.517 -400.083)" d="M 7426.43,5276.22 A 85.7916,85.7916 0 1 0 7598.02,5276.22A 85.7916,85.7916 0 1 0 7426.43,5276.22Z " />
<path stroke="none" fill="#e0e0e0" transform="matrix(0.0833333 0 0 0.0833333 -127.517 -400.083)" d="M 7427.75,5274.45 A 82.7017,82.7017 0 1 0 7593.15,5274.45A 82.7017,82.7017 0 1 0 7427.75,5274.45Z " />
<path stroke="none" fill="#e3e3e3" transform="matrix(0.0833333 0 0 0.0833333 -127.517 -400.083)" d="M 7429.06,5272.67 A 79.6119,79.6119 0 1 0 7588.29,5272.67A 79.6119,79.6119 0 1 0 7429.06,5272.67Z " />
<path stroke="none" fill="#e5e5e5" transform="matrix(0.0833333 0 0 0.0833333 -127.517 -400.083)" d="M 7430.38,5270.9 A 76.522,76.522 0 1 0 7583.42,5270.9A 76.522,76.522 0 1 0 7430.38,5270.9Z " />
<path stroke="none" fill="#e8e8e8" transform="matrix(0.0833333 0 0 0.0833333 -127.517 -400.083)" d="M 7431.69,5269.12 A 73.4322,73.4322 0 1 0 7578.56,5269.12A 73.4322,73.4322 0 1 0 7431.69,5269.12Z " />
<path stroke="none" fill="#eaeaea" transform="matrix(0.0833333 0 0 0.0833333 -127.517 -400.083)" d="M 7433.01,5267.35 A 70.3423,70.3423 0 1 0 7573.69,5267.35A 70.3423,70.3423 0 1 0 7433.01,5267.35Z " />
<path stroke="none" fill="#ececec" transform="matrix(0.0833333 0 0 0.0833333 -127.517 -400.083)" d="M 7434.32,5265.57 A 67.2525,67.2525 0 1 0 7568.83,5265.57A 67.2525,67.2525 0 1 0 7434.32,5265.57Z " />
<path stroke="none" fill="#eeeeee" transform="matrix(0.0833333 0 0 0.0833333 -127.517 -400.083)" d="M 7435.64,5263.8 A 64.1627,64.1627 0 1 0 7563.96,5263.8A 64.1627,64.1627 0 1 0 7435.64,5263.8Z " />
<path stroke="none" fill="#f0f0f0" transform="matrix(0.0833333 0 0 0.0833333 -127.517 -400.083)" d="M 7436.95,5262.02 A 61.0728,61.0728 0 1 0 7559.1,5262.02A 61.0728,61.0728 0 1 0 7436.95,5262.02Z " />
<path stroke="none" fill="#f2f2f2" transform="matrix(0.0833333 0 0 0.0833333 -127.517 -400.083)" d="M 7438.27,5260.25 A 57.983,57.983 0 1 0 7554.23,5260.25A 57.983,57.983 0 1 0 7438.27,5260.25Z " />
<path stroke="none" fill="#f4f4f4" transform="matrix(0.0833333 0 0 0.0833333 -127.517 -400.083)" d="M 7439.58,5258.47 A 54.8931,54.8931 0 1 0 7549.37,5258.47A 54.8931,54.8931 0 1 0 7439.58,5258.47Z " />
<path stroke="none" fill="#f5f5f5" transform="matrix(0.0833333 0 0 0.0833333 -127.517 -400.083)" d="M 7440.9,5256.7 A 51.8033,51.8033 0 1 0 7544.5,5256.7A 51.8033,51.8033 0 1 0 7440.9,5256.7Z " />
<path stroke="none" fill="#f7f7f7" transform="matrix(0.0833333 0 0 0.0833333 -127.517 -400.083)" d="M 7442.21,5254.92 A 48.7134,48.7134 0 1 0 7539.64,5254.92A 48.7134,48.7134 0 1 0 7442.21,5254.92Z " />
<path stroke="none" fill="#f8f8f8" transform="matrix(0.0833333 0 0 0.0833333 -127.517 -400.083)" d="M 7443.53,5253.15 A 45.6236,45.6236 0 1 0 7534.77,5253.15A 45.6236,45.6236 0 1 0 7443.53,5253.15Z " />
<path stroke="none" fill="#f9f9f9" transform="matrix(0.0833333 0 0 0.0833333 -127.517 -400.083)" d="M 7444.84,5251.37 A 42.5338,42.5338 0 1 0 7529.91,5251.37A 42.5338,42.5338 0 1 0 7444.84,5251.37Z " />
<path stroke="none" fill="#fafafa" transform="matrix(0.0833333 0 0 0.0833333 -127.517 -400.083)" d="M 7446.16,5249.6 A 39.4439,39.4439 0 1 0 7525.04,5249.6A 39.4439,39.4439 0 1 0 7446.16,5249.6Z " />
<path stroke="none" fill="#fbfbfb" transform="matrix(0.0833333 0 0 0.0833333 -127.517 -400.083)" d="M 7447.47,5247.82 A 36.3541,36.3541 0 1 0 7520.18,5247.82A 36.3541,36.3541 0 1 0 7447.47,5247.82Z " />
<path stroke="none" fill="#fcfcfc" transform="matrix(0.0833333 0 0 0.0833333 -127.517 -400.083)" d="M 7448.79,5246.05 A 33.2642,33.2642 0 1 0 7515.31,5246.05A 33.2642,33.2642 0 1 0 7448.79,5246.05Z " />
<path stroke="none" fill="#fdfdfd" transform="matrix(0.0833333 0 0 0.0833333 -127.517 -400.083)" d="M 7450.1,5244.27 A 30.1744,30.1744 0 1 0 7510.45,5244.27A 30.1744,30.1744 0 1 0 7450.1,5244.27Z " />
<path stroke="none" fill="#fdfdfd" transform="matrix(0.0833333 0 0 0.0833333 -127.517 -400.083)" d="M 7451.42,5242.5 A 27.0845,27.0845 0 1 0 7505.58,5242.5A 27.0845,27.0845 0 1 0 7451.42,5242.5Z " />
<path stroke="none" fill="#fefefe" transform="matrix(0.0833333 0 0 0.0833333 -127.517 -400.083)" d="M 7452.73,5240.72 A 23.9947,23.9947 0 1 0 7500.72,5240.72A 23.9947,23.9947 0 1 0 7452.73,5240.72Z " />
<path stroke="none" fill="#fefefe" transform="matrix(0.0833333 0 0 0.0833333 -127.517 -400.083)" d="M 7454.04,5238.95 A 20.9048,20.9048 0 1 0 7495.85,5238.95A 20.9048,20.9048 0 1 0 7454.04,5238.95Z " />
<path stroke="none" fill="#fefefe" transform="matrix(0.0833333 0 0 0.0833333 -127.517 -400.083)" d="M 7455.36,5237.17 A 17.815,17.815 0 1 0 7490.99,5237.17A 17.815,17.815 0 1 0 7455.36,5237.17Z " />
<path stroke="#bebebe" stroke-width="6" fill="none" transform="matrix(0.0833333 0 0 0.0833333 -127.517 -400.083)" d="M 7414.6,5292.2 A 113.6,113.6 0 1 0 7641.8,5292.2A 113.6,113.6 0 1 0 7414.6,5292.2Z " />
<text x="0" y="0" stroke="none" fill="#000000" transform="matrix(0.0833333 0 0 0.0833333 494.906 43.0333)" font-style="normal" font-weight="normal" font-size="76px" font-family="Times New Roman" >
Fe</text>
<text x="0" y="0" stroke="none" fill="#000000" transform="matrix(0.0833333 0 0 0.0833333 501.239 40.6167)" font-style="normal" font-weight="normal" font-size="57px" font-family="Times New Roman" >
2+</text>
<path stroke="none" fill="#000000" transform="matrix(0.0833333 0 0 0.0833333 -127.517 -400.083)" d="M 8406.18,5464.56 L 8406.63,5471.09 L 8233.04,5446.92 L 8232,5443.6 L 8234.01,5440.71 L 8406.18,5464.56 Z " />
<path stroke="none" fill="#000000" transform="matrix(0.0833333 0 0 0.0833333 -127.517 -400.083)" d="M 8406.63,5471.09 L 8406.18,5464.56 L 8535.87,5427.94 L 8533.87,5435.03 L 8406.63,5471.09 L 8406.63,5471.09 Z " />
<path stroke="none" fill="#000000" transform="matrix(0.0833333 0 0 0.0833333 -127.517 -400.083)" d="M 8581.93,5485.25 L 8577.57,5493.16 L 8563.83,5445.23 L 8564.76,5441.91 L 8568.63,5440.17 L 8581.93,5485.25 L 8581.93,5485.25 Z " />
<path stroke="none" fill="#000000" transform="matrix(0.0833333 0 0 0.0833333 -127.517 -400.083)" d="M 8593.92,5468.4 L 8587.78,5470.22 L 8577.68,5436.1 L 8583.57,5433.45 L 8593.92,5468.4 L 8593.92,5468.4 Z " />
<path stroke="none" fill="#000000" transform="matrix(0.0833333 0 0 0.0833333 -127.517 -400.083)" d="M 8577.57,5493.16 L 8581.93,5485.25 L 8732.91,5442.52 L 8735.9,5448.33 L 8577.57,5493.16 Z " />
<path stroke="none" fill="#000000" transform="matrix(0.0833333 0 0 0.0833333 -127.517 -400.083)" d="M 8735.9,5448.33 L 8732.91,5442.52 L 8809.14,5381.73 L 8815.97,5384.4 L 8735.9,5448.33 L 8735.9,5448.33 Z " />
<path stroke="none" fill="#000000" transform="matrix(0.0833333 0 0 0.0833333 -127.517 -400.083)" d="M 8866.52,5335.98 L 8870,5337.2 L 8871.5,5340.07 L 8844.48,5361.64 L 8837.68,5358.97 L 8866.52,5335.98 L 8866.52,5335.98 Z " />
<path stroke="none" fill="#000000" transform="matrix(0.0833333 0 0 0.0833333 -127.517 -400.083)" d="M 8726.7,5429.01 L 8722.7,5424.01 L 8786.7,5372.94 L 8793.59,5375.64 L 8726.7,5429.01 L 8726.7,5429.01 Z " />
<path stroke="none" fill="#000000" transform="matrix(0.0833333 0 0 0.0833333 -127.517 -400.083)" d="M 8844.09,5327.15 L 8848.08,5332.15 L 8822.11,5352.87 L 8815.23,5350.18 L 8844.09,5327.15 L 8844.09,5327.15 Z " />
<path stroke="none" fill="#000000" transform="matrix(0.0833333 0 0 0.0833333 -127.517 -400.083)" d="M 8871.94,5333.48 L 8870,5337.2 L 8866.52,5335.98 L 8849.07,5276.35 L 8853.44,5268.45 L 8871.94,5333.48 Z " />
<path stroke="none" fill="#000000" transform="matrix(0.0833333 0 0 0.0833333 -127.517 -400.083)" d="M 8853.44,5268.45 L 8849.07,5276.35 L 8697.88,5318.88 L 8694.9,5313.07 L 8853.44,5268.45 L 8853.44,5268.45 Z " />
<path stroke="none" fill="#000000" transform="matrix(0.0833333 0 0 0.0833333 -127.517 -400.083)" d="M 8837.02,5293.21 L 8838.75,5299.38 L 8749.51,5324.43 L 8739.62,5320.56 L 8837.02,5293.21 L 8837.02,5293.21 Z " />
<path stroke="none" fill="#000000" transform="matrix(0.0833333 0 0 0.0833333 -127.517 -400.083)" d="M 8694.9,5313.07 L 8697.88,5318.88 L 8667.4,5343.19 L 8644,5353.71 L 8694.9,5313.07 L 8694.9,5313.07 Z " />
<path stroke="none" fill="#000000" transform="matrix(0.0833333 0 0 0.0833333 -127.517 -400.083)" d="M 8234.01,5440.71 L 8232,5443.6 L 8228.15,5443.02 L 8149.79,5297.95 L 8154.28,5292.79 L 8234.01,5440.71 Z " />
<path stroke="none" fill="#000000" transform="matrix(0.0833333 0 0 0.0833333 -127.517 -400.083)" d="M 8209.7,5438.1 L 8204.07,5441.14 L 8135.01,5313.22 L 8140.65,5310.18 L 8209.7,5438.1 Z " />
<path stroke="none" fill="#000000" transform="matrix(0.0833333 0 0 0.0833333 -127.517 -400.083)" d="M 8154.28,5292.79 L 8149.79,5297.95 L 7983.11,5236 L 7981.59,5228.61 L 8154.28,5292.79 Z " />
<path stroke="none" fill="#000000" transform="matrix(0.0833333 0 0 0.0833333 -127.517 -400.083)" d="M 7981.59,5228.61 L 7983.11,5236 L 7896.85,5318.18 L 7893,5317.6 L 7891.95,5314.29 L 7981.59,5228.61 Z " />
<path stroke="none" fill="#000000" transform="matrix(0.0833333 0 0 0.0833333 -127.517 -400.083)" d="M 7983.99,5248.56 L 7988.41,5253.2 L 7915.09,5323.07 L 7910.68,5318.44 L 7983.99,5248.56 Z " />
<path stroke="none" fill="#000000" transform="matrix(0.0833333 0 0 0.0833333 -127.517 -400.083)" d="M 7890.99,5320.48 L 7893,5317.6 L 7896.85,5318.18 L 7919.03,5359.25 L 7911.34,5358.25 L 7890.99,5320.48 L 7890.99,5320.48 Z " />
<path stroke="none" fill="#000000" transform="matrix(0.0833333 0 0 0.0833333 -127.517 -400.083)" d="M 7975.21,5463.25 L 7970.72,5468.41 L 7939.35,5410.21 L 7947.1,5411.22 L 7975.21,5463.25 L 7975.21,5463.25 Z " />
<path stroke="none" fill="#000000" transform="matrix(0.0833333 0 0 0.0833333 -127.517 -400.083)" d="M 7970.72,5468.41 L 7975.21,5463.25 L 8121.39,5517.58 L 8135.16,5529.53 L 7970.72,5468.41 L 7970.72,5468.41 Z " />
<path stroke="none" fill="#000000" transform="matrix(0.0833333 0 0 0.0833333 -127.517 -400.083)" d="M 7987.11,5451.29 L 7989.34,5445.29 L 8083.58,5480.3 L 8081.37,5482.85 L 8088.34,5488.9 L 7987.11,5451.29 L 7987.11,5451.29 Z " />
<path stroke="none" fill="#000000" transform="matrix(0.0833333 0 0 0.0833333 -127.517 -400.083)" d="M 8228.15,5443.02 L 8232,5443.6 L 8233.04,5446.92 L 8175.98,5501.46 L 8171.18,5497.3 L 8228.15,5443.02 L 8228.15,5443.02 Z " />
<text x="0" y="0" stroke="none" fill="#000000" transform="matrix(0.0833333 0 0 0.0833333 513.804 43.075)" font-style="normal" font-weight="normal" font-size="63px" font-family="Arial" >
N</text>
<path stroke="none" fill="#000000" transform="matrix(0.0833333 0 0 0.0833333 -127.517 -400.083)" d="M 7891.95,5314.29 L 7893,5317.6 L 7890.99,5320.48 L 7747.57,5300.65 L 7748.45,5294.31 L 7891.95,5314.29 Z " />
<text x="0" y="0" stroke="none" fill="#000000" transform="matrix(0.0833333 0 0 0.0833333 622.638 43.1083)" font-style="normal" font-weight="normal" font-size="63px" font-family="Arial" >
N</text>
<path stroke="none" fill="#000000" transform="matrix(0.0833333 0 0 0.0833333 -127.517 -400.083)" d="M 8871.5,5340.07 L 8870,5337.2 L 8871.94,5333.48 L 8988.76,5300.54 L 8990.49,5306.7 L 8871.5,5340.07 Z " />
<path stroke="none" fill="#000000" transform="matrix(0.0833333 0 0 0.0833333 -127.517 -400.083)" d="M 9053.61,5323.51 L 9057.83,5318.7 L 9167.38,5414.93 L 9165.77,5422.03 L 9053.61,5323.51 Z " />
<path stroke="none" fill="#000000" transform="matrix(0.0833333 0 0 0.0833333 -127.517 -400.083)" d="M 9068.56,5306.47 L 9072.78,5301.66 L 9174.42,5390.85 L 9170.2,5395.66 L 9068.56,5306.47 Z " />
<path stroke="none" fill="#000000" transform="matrix(0.0833333 0 0 0.0833333 -127.517 -400.083)" d="M 7691.26,5264.13 L 7686.94,5268.85 L 7667.35,5250.97 L 7668.96,5243.77 L 7691.26,5264.13 L 7691.26,5264.13 Z " />
<path stroke="none" fill="#000000" transform="matrix(0.0833333 0 0 0.0833333 -127.517 -400.083)" d="M 7600.91,5190.3 L 7603.99,5184.46 L 7614.91,5194.43 L 7608.68,5197.4 L 7600.91,5190.3 L 7600.91,5190.3 Z " />
<path stroke="none" fill="#000000" transform="matrix(0.0833333 0 0 0.0833333 -127.517 -400.083)" d="M 7678.54,5278.07 L 7674.22,5282.8 L 7638.16,5249.9 L 7650.73,5252.7 L 7678.54,5278.07 L 7678.54,5278.07 Z " />
<path stroke="none" fill="#000000" transform="matrix(0.0833333 0 0 0.0833333 -127.517 -400.083)" d="M 7595.44,5202.27 L 7596.49,5203.23 L 7593.08,5204.86 L 7595.44,5202.27 L 7595.44,5202.27 Z " />
<path stroke="none" fill="#000000" transform="matrix(0.0833333 0 0 0.0833333 -127.517 -400.083)" d="M 9165.77,5422.03 L 9167.38,5414.93 L 9318.28,5372.59 L 9321.2,5375 L 9320.4,5378.48 L 9165.77,5422.03 Z " />
<path stroke="none" fill="#000000" transform="matrix(0.0833333 0 0 0.0833333 -127.517 -400.083)" d="M 7603.99,5184.46 L 7600.91,5190.3 L 7429.27,5149.44 L 7428.4,5146 L 7429.92,5143.1 L 7603.99,5184.46 Z " />
<text x="0" y="0" stroke="none" fill="#000000" transform="matrix(0.0833333 0 0 0.0833333 648.388 35.8583)" font-style="normal" font-weight="normal" font-size="63px" font-family="Arial" >
N</text>
<path stroke="none" fill="#000000" transform="matrix(0.0833333 0 0 0.0833333 -127.517 -400.083)" d="M 9324.43,5373.65 L 9321.2,5375 L 9318.28,5372.59 L 9327.72,5243 L 9334.11,5243.47 L 9324.43,5373.65 Z " />
<path stroke="none" fill="#000000" transform="matrix(0.0833333 0 0 0.0833333 -127.517 -400.083)" d="M 9345.32,5366.67 L 9338.93,5366.2 L 9347.91,5244.49 L 9354.29,5244.96 L 9345.32,5366.67 Z " />
<path stroke="none" fill="#000000" transform="matrix(0.0833333 0 0 0.0833333 -127.517 -400.083)" d="M 9367.79,5200.53 L 9366.06,5194.36 L 9489,5159.76 L 9487.38,5166.86 L 9367.79,5200.53 Z " />
<path stroke="none" fill="#000000" transform="matrix(0.0833333 0 0 0.0833333 -127.517 -400.083)" d="M 9487.38,5166.86 L 9489,5159.76 L 9631,5284.52 L 9630.2,5288 L 9626.95,5289.34 L 9487.38,5166.86 Z " />
<path stroke="none" fill="#000000" transform="matrix(0.0833333 0 0 0.0833333 -127.517 -400.083)" d="M 9480.38,5190.95 L 9484.6,5186.14 L 9608.87,5295.19 L 9604.65,5300 L 9480.38,5190.95 Z " />
<path stroke="none" fill="#000000" transform="matrix(0.0833333 0 0 0.0833333 -127.517 -400.083)" d="M 9626.95,5289.34 L 9630.2,5288 L 9633.15,5290.41 L 9620.91,5458.54 L 9614.85,5453.6 L 9626.95,5289.34 Z " />
<path stroke="none" fill="#000000" transform="matrix(0.0833333 0 0 0.0833333 -127.517 -400.083)" d="M 9614.85,5453.6 L 9620.91,5458.54 L 9462.39,5503.23 L 9464,5496.12 L 9614.85,5453.6 Z " />
<path stroke="none" fill="#000000" transform="matrix(0.0833333 0 0 0.0833333 -127.517 -400.083)" d="M 9598.7,5438.03 L 9600.44,5444.19 L 9468.91,5481.29 L 9467.18,5475.13 L 9598.7,5438.03 Z " />
<path stroke="none" fill="#000000" transform="matrix(0.0833333 0 0 0.0833333 -127.517 -400.083)" d="M 9464,5496.12 L 9462.39,5503.23 L 9320.4,5378.48 L 9321.2,5375 L 9324.43,5373.65 L 9464,5496.12 Z " />
<text x="0" y="0" stroke="none" fill="#000000" transform="matrix(0.0833333 0 0 0.0833333 484.838 36.175)" font-style="normal" font-weight="normal" font-size="63px" font-family="Arial" >
N</text>
<path stroke="none" fill="#000000" transform="matrix(0.0833333 0 0 0.0833333 -127.517 -400.083)" d="M 7429.92,5143.1 L 7428.4,5146 L 7424.29,5146.43 L 7310.68,5042.9 L 7313.77,5037.05 L 7429.92,5143.1 Z " />
<path stroke="none" fill="#000000" transform="matrix(0.0833333 0 0 0.0833333 -127.517 -400.083)" d="M 7404.07,5145.02 L 7399.76,5149.75 L 7300.93,5059.59 L 7305.24,5054.87 L 7404.07,5145.02 Z " />
<path stroke="none" fill="#000000" transform="matrix(0.0833333 0 0 0.0833333 -127.517 -400.083)" d="M 7313.77,5037.05 L 7310.68,5042.9 L 7139.41,5002.06 L 7137.18,4994.95 L 7313.77,5037.05 Z " />
<path stroke="none" fill="#000000" transform="matrix(0.0833333 0 0 0.0833333 -127.517 -400.083)" d="M 7137.18,4994.95 L 7139.41,5002.06 L 7085.05,5062.9 L 7080.8,5063.2 L 7079.79,5059.74 L 7137.18,4994.95 Z " />
<path stroke="none" fill="#000000" transform="matrix(0.0833333 0 0 0.0833333 -127.517 -400.083)" d="M 7141.6,5014.25 L 7146.37,5018.51 L 7105.67,5064.16 L 7100.89,5059.9 L 7141.6,5014.25 Z " />
<path stroke="none" fill="#000000" transform="matrix(0.0833333 0 0 0.0833333 -127.517 -400.083)" d="M 7079.28,5066.1 L 7080.8,5063.2 L 7085.05,5062.9 L 7198.73,5166.31 L 7195.64,5172.16 L 7079.28,5066.1 Z " />
<path stroke="none" fill="#000000" transform="matrix(0.0833333 0 0 0.0833333 -127.517 -400.083)" d="M 7195.64,5172.16 L 7198.73,5166.31 L 7337.23,5199.27 L 7335.75,5205.49 L 7195.64,5172.16 Z " />
<path stroke="none" fill="#000000" transform="matrix(0.0833333 0 0 0.0833333 -127.517 -400.083)" d="M 7206.81,5152.74 L 7208.29,5146.51 L 7342.2,5178.41 L 7340.72,5184.64 L 7206.81,5152.74 Z " />
<path stroke="none" fill="#000000" transform="matrix(0.0833333 0 0 0.0833333 -127.517 -400.083)" d="M 7399.3,5183.56 L 7394.52,5179.31 L 7424.29,5146.43 L 7428.4,5146 L 7429.27,5149.44 L 7399.3,5183.56 Z " />
<path stroke="none" fill="#000000" transform="matrix(0.0833333 0 0 0.0833333 -127.517 -400.083)" d="M 9633.15,5290.41 L 9630.2,5288 L 9631,5284.52 L 9783.93,5241.52 L 9785.66,5247.68 L 9633.15,5290.41 Z " />
<path stroke="none" fill="#000000" transform="matrix(0.0833333 0 0 0.0833333 -127.517 -400.083)" d="M 7079.79,5059.74 L 7080.8,5063.2 L 7079.28,5066.1 L 6906.26,5024.91 L 6907.74,5018.69 L 7079.79,5059.74 Z " />
<text x="0" y="0" stroke="none" fill="#000000" transform="matrix(0.0833333 0 0 0.0833333 558.45 111.333)" font-style="normal" font-weight="normal" font-size="138px" font-family="Arial" >
Fe</text>
<text x="0" y="0" stroke="none" fill="#000000" transform="matrix(0.0833333 0 0 0.0833333 571.87 113.917)" font-style="normal" font-weight="normal" font-size="103.5px" font-family="Arial" >
2</text>
<text x="0" y="0" stroke="none" fill="#000000" transform="matrix(0.0833333 0 0 0.0833333 576.667 111.333)" font-style="normal" font-weight="normal" font-size="138px" font-family="Arial" >
[(</text>
<text x="0" y="0" stroke="none" fill="#000000" transform="matrix(0.0833333 0 0 0.0833333 583.692 111.333)" font-style="normal" font-weight="bold" font-size="138px" font-family="Arial" >
3</text>
<text x="0" y="0" stroke="none" fill="#000000" transform="matrix(0.0833333 0 0 0.0833333 590.088 113.917)" font-style="normal" font-weight="normal" font-size="103.5px" font-family="Arial" >
2</text>
<text x="0" y="0" stroke="none" fill="#000000" transform="matrix(0.0833333 0 0 0.0833333 594.884 111.333)" font-style="normal" font-weight="bold" font-size="138px" font-family="Arial" >
17</text>
<text x="0" y="0" stroke="none" fill="#000000" transform="matrix(0.0833333 0 0 0.0833333 607.676 111.333)" font-style="normal" font-weight="normal" font-size="138px" font-family="Arial" >
)</text>
<text x="0" y="0" stroke="none" fill="#000000" transform="matrix(0.0833333 0 0 0.0833333 611.506 113.917)" font-style="normal" font-weight="normal" font-size="103.5px" font-family="Arial" >
3</text>
<text x="0" y="0" stroke="none" fill="#000000" transform="matrix(0.0833333 0 0 0.0833333 616.302 111.333)" font-style="normal" font-weight="normal" font-size="138px" font-family="Arial" >
]</text>
<text x="0" y="0" stroke="none" fill="#000000" transform="matrix(0.0833333 0 0 0.0833333 619.497 106.875)" font-style="normal" font-weight="normal" font-size="103.5px" font-family="Arial" >
4+</text>
<path stroke="none" fill="#000000" transform="matrix(0.0833333 0 0 0.0833333 -127.517 -400.083)" d="M 7193.94,5470.44 L 7193.15,5463.72 L 7323.85,5401.12 L 7326.62,5406.9 L 7193.94,5470.44 Z " />
<path stroke="none" fill="#000000" transform="matrix(0.0833333 0 0 0.0833333 -127.517 -400.083)" d="M 7194.2,5463.02 L 7191.44,5457.25 L 7321.04,5395.24 L 7323.8,5401.01 L 7194.2,5463.02 Z " />
<text x="0" y="0" stroke="none" fill="#000000" transform="matrix(0.0833333 0 0 0.0833333 484.021 50.8583)" font-style="normal" font-weight="normal" font-size="63px" font-family="Arial" >
N</text>
<path stroke="none" fill="#000000" transform="matrix(0.0833333 0 0 0.0833333 -127.517 -400.083)" d="M 2141.47,5373.5 L 2168.93,5373.5 L 2168.93,5378.5 L 2141.47,5378.5 Z " />
<path stroke="none" fill="#000000" transform="matrix(0.0833333 0 0 0.0833333 -127.517 -400.083)" d="M 2157.7,5362.27 L 2157.7,5389.73 L 2152.7,5389.73 L 2152.7,5362.27 Z " />
<path stroke="none" fill="#000000" transform="matrix(0.0833333 0 0 0.0833333 -127.517 -400.083)" d="M 3791.47,5355.5 L 3818.93,5355.5 L 3818.93,5360.5 L 3791.47,5360.5 Z " />
<path stroke="none" fill="#000000" transform="matrix(0.0833333 0 0 0.0833333 -127.517 -400.083)" d="M 3807.7,5344.27 L 3807.7,5371.73 L 3802.7,5371.73 L 3802.7,5344.27 Z " />
<path stroke="none" fill="#000000" transform="matrix(0.0833333 0 0 0.0833333 -127.517 -400.083)" d="M 6465.8,5291.4 L 6127.2,5291.4 L 6127.2,5285.4 L 6465.8,5285.4 Z " />
<path stroke="none" fill="#000000" transform="matrix(0.0833333 0 0 0.0833333 -127.517 -400.083)" d="M 6172.6,5304.6 L 6511.2,5304.6 L 6511.2,5310.6 L 6172.6,5310.6 Z " />
<path stroke="none" fill="#000000" transform="matrix(0.0833333 0 0 0.0833333 -127.517 -400.083)" d="M 6520.8,5291.4 C 6520.8,5291.4 6464.8,5291.4 6464.8,5291.4 C 6464.8,5280.53 6456.8,5270.4 6456.8,5270.4 C 6456.8,5270.4 6520.8,5291.4 6520.8,5291.4 C 6520.8,5291.4 6520.8,5291.4 6520.8,5291.4 " />
<path stroke="#000000" stroke-width="1" fill="none" transform="matrix(0.0833333 0 0 0.0833333 -127.517 -400.083)" d="M 6520.8,5291.4 C 6520.8,5291.4 6464.8,5291.4 6464.8,5291.4 C 6464.8,5280.53 6456.8,5270.4 6456.8,5270.4 C 6456.8,5270.4 6520.8,5291.4 6520.8,5291.4 C 6520.8,5291.4 6520.8,5291.4 6520.8,5291.4 " />
<path stroke="none" fill="#000000" transform="matrix(0.0833333 0 0 0.0833333 -127.517 -400.083)" d="M 6117.6,5304.6 C 6117.6,5304.6 6181.6,5325.6 6181.6,5325.6 C 6181.6,5325.6 6173.6,5309.47 6173.6,5304.6 C 6173.6,5304.6 6117.6,5304.6 6117.6,5304.6 C 6117.6,5304.6 6117.6,5304.6 6117.6,5304.6 " />
<path stroke="#000000" stroke-width="1" fill="none" transform="matrix(0.0833333 0 0 0.0833333 -127.517 -400.083)" d="M 6117.6,5304.6 C 6117.6,5304.6 6181.6,5325.6 6181.6,5325.6 C 6181.6,5325.6 6173.6,5309.47 6173.6,5304.6 C 6173.6,5304.6 6117.6,5304.6 6117.6,5304.6 C 6117.6,5304.6 6117.6,5304.6 6117.6,5304.6 " />
<text x="0" y="0" stroke="none" fill="#000000" transform="matrix(0.0833333 0 0 0.0833333 394.093 35.9083)" font-style="normal" font-weight="normal" font-size="75px" font-family="Times New Roman" >
H</text>
<text x="0" y="0" stroke="none" fill="#000000" transform="matrix(0.0833333 0 0 0.0833333 398.607 37.4083)" font-style="normal" font-weight="normal" font-size="56.25px" font-family="Times New Roman" >
2</text>
<text x="0" y="0" stroke="none" fill="#000000" transform="matrix(0.0833333 0 0 0.0833333 400.951 35.9083)" font-style="normal" font-weight="normal" font-size="75px" font-family="Times New Roman" >
O</text>
<text x="0" y="0" stroke="none" fill="#000000" transform="matrix(0.0833333 0 0 0.0833333 3.58331 50.9167)" font-style="normal" font-weight="normal" font-size="75px" font-family="Times New Roman" >
2</text>
<text x="0" y="0" stroke="none" fill="#000000" transform="matrix(0.0833333 0 0 0.0833333 81.0833 50.9167)" font-style="normal" font-weight="normal" font-size="75px" font-family="Times New Roman" >
6</text>
<text x="0" y="0" stroke="none" fill="#000000" transform="matrix(0.0833333 0 0 0.0833333 210.583 46.9167)" font-style="normal" font-weight="normal" font-size="75px" font-family="Times New Roman" >
3</text>
</svg>
