<?xml version="1.0" encoding="utf-8" standalone="no"?>
<!DOCTYPE svg PUBLIC "-//W3C//DTD SVG 1.1//EN"
  "http://www.w3.org/Graphics/SVG/1.1/DTD/svg11.dtd">
<svg xmlns:xlink="http://www.w3.org/1999/xlink" width="1188pt" height="252pt" viewBox="0 0 1188 252" xmlns="http://www.w3.org/2000/svg" version="1.1">
 <metadata>
  <rdf:RDF xmlns:dc="http://purl.org/dc/elements/1.1/" xmlns:cc="http://creativecommons.org/ns#" xmlns:rdf="http://www.w3.org/1999/02/22-rdf-syntax-ns#">
   <cc:Work>
    <dc:type rdf:resource="http://purl.org/dc/dcmitype/StillImage"/>
    <dc:date>2024-06-17T22:43:53.455480</dc:date>
    <dc:format>image/svg+xml</dc:format>
    <dc:creator>
     <cc:Agent>
      <dc:title>Matplotlib v3.8.4, https://matplotlib.org/</dc:title>
     </cc:Agent>
    </dc:creator>
   </cc:Work>
  </rdf:RDF>
 </metadata>
 <defs>
  <style type="text/css">*{stroke-linejoin: round; stroke-linecap: butt}</style>
 </defs>
 <g id="figure_1">
  <g id="patch_1">
   <path d="M 0 252 
L 1188 252 
L 1188 0 
L 0 0 
z
" style="fill: #ffffff"/>
  </g>
  <g id="axes_1">
   <g id="patch_2">
    <path d="M 3.00024 198.907885 
L 1184.99976 198.907885 
L 1184.99976 3.00024 
L 3.00024 3.00024 
z
" style="fill: #ffffff"/>
   </g>
   <g id="matplotlib.axis_1">
    <g id="xtick_1">
     <g id="line2d_1">
      <defs>
       <path id="m4ef8b9f1bd" d="M 0 0 
L 0 8 
" style="stroke: #000000; stroke-width: 2"/>
      </defs>
      <g>
       <use xlink:href="#m4ef8b9f1bd" x="1131.272509" y="198.907885" style="stroke: #000000; stroke-width: 2"/>
      </g>
     </g>
     <g id="text_1">
      <!-- 0 -->
      <g transform="translate(1126.267665 224.791947) scale(0.18 -0.18)">
       <defs>
        <path id="Arial-BoldMT-30" d="M 1756 4600 
Q 2422 4600 2797 4125 
Q 3244 3563 3244 2259 
Q 3244 959 2794 391 
Q 2422 -78 1756 -78 
Q 1088 -78 678 436 
Q 269 950 269 2269 
Q 269 3563 719 4131 
Q 1091 4600 1756 4600 
z
M 1756 3872 
Q 1597 3872 1472 3770 
Q 1347 3669 1278 3406 
Q 1188 3066 1188 2259 
Q 1188 1453 1269 1151 
Q 1350 850 1473 750 
Q 1597 650 1756 650 
Q 1916 650 2041 751 
Q 2166 853 2234 1116 
Q 2325 1453 2325 2259 
Q 2325 3066 2244 3367 
Q 2163 3669 2039 3770 
Q 1916 3872 1756 3872 
z
" transform="scale(0.015625)"/>
       </defs>
       <use xlink:href="#Arial-BoldMT-30"/>
      </g>
     </g>
    </g>
    <g id="xtick_2">
     <g id="line2d_2">
      <g>
       <use xlink:href="#m4ef8b9f1bd" x="1023.818007" y="198.907885" style="stroke: #000000; stroke-width: 2"/>
      </g>
     </g>
     <g id="text_2">
      <!-- 1 -->
      <g transform="translate(1018.813164 224.791947) scale(0.18 -0.18)">
       <defs>
        <path id="Arial-BoldMT-31" d="M 2519 0 
L 1641 0 
L 1641 3309 
Q 1159 2859 506 2644 
L 506 3441 
Q 850 3553 1253 3867 
Q 1656 4181 1806 4600 
L 2519 4600 
L 2519 0 
z
" transform="scale(0.015625)"/>
       </defs>
       <use xlink:href="#Arial-BoldMT-31"/>
      </g>
     </g>
    </g>
    <g id="xtick_3">
     <g id="line2d_3">
      <g>
       <use xlink:href="#m4ef8b9f1bd" x="916.363505" y="198.907885" style="stroke: #000000; stroke-width: 2"/>
      </g>
     </g>
     <g id="text_3">
      <!-- 2 -->
      <g transform="translate(911.358662 224.791947) scale(0.18 -0.18)">
       <defs>
        <path id="Arial-BoldMT-32" d="M 3238 816 
L 3238 0 
L 159 0 
Q 209 463 459 877 
Q 709 1291 1447 1975 
Q 2041 2528 2175 2725 
Q 2356 2997 2356 3263 
Q 2356 3556 2198 3714 
Q 2041 3872 1763 3872 
Q 1488 3872 1325 3706 
Q 1163 3541 1138 3156 
L 263 3244 
Q 341 3969 753 4284 
Q 1166 4600 1784 4600 
Q 2463 4600 2850 4234 
Q 3238 3869 3238 3325 
Q 3238 3016 3127 2736 
Q 3016 2456 2775 2150 
Q 2616 1947 2200 1565 
Q 1784 1184 1673 1059 
Q 1563 934 1494 816 
L 3238 816 
z
" transform="scale(0.015625)"/>
       </defs>
       <use xlink:href="#Arial-BoldMT-32"/>
      </g>
     </g>
    </g>
    <g id="xtick_4">
     <g id="line2d_4">
      <g>
       <use xlink:href="#m4ef8b9f1bd" x="808.909004" y="198.907885" style="stroke: #000000; stroke-width: 2"/>
      </g>
     </g>
     <g id="text_4">
      <!-- 3 -->
      <g transform="translate(803.90416 224.791947) scale(0.18 -0.18)">
       <defs>
        <path id="Arial-BoldMT-33" d="M 241 1216 
L 1091 1319 
Q 1131 994 1309 822 
Q 1488 650 1741 650 
Q 2013 650 2198 856 
Q 2384 1063 2384 1413 
Q 2384 1744 2206 1937 
Q 2028 2131 1772 2131 
Q 1603 2131 1369 2066 
L 1466 2781 
Q 1822 2772 2009 2936 
Q 2197 3100 2197 3372 
Q 2197 3603 2059 3740 
Q 1922 3878 1694 3878 
Q 1469 3878 1309 3722 
Q 1150 3566 1116 3266 
L 306 3403 
Q 391 3819 561 4067 
Q 731 4316 1036 4458 
Q 1341 4600 1719 4600 
Q 2366 4600 2756 4188 
Q 3078 3850 3078 3425 
Q 3078 2822 2419 2463 
Q 2813 2378 3048 2084 
Q 3284 1791 3284 1375 
Q 3284 772 2843 347 
Q 2403 -78 1747 -78 
Q 1125 -78 715 280 
Q 306 638 241 1216 
z
" transform="scale(0.015625)"/>
       </defs>
       <use xlink:href="#Arial-BoldMT-33"/>
      </g>
     </g>
    </g>
    <g id="xtick_5">
     <g id="line2d_5">
      <g>
       <use xlink:href="#m4ef8b9f1bd" x="701.454502" y="198.907885" style="stroke: #000000; stroke-width: 2"/>
      </g>
     </g>
     <g id="text_5">
      <!-- 4 -->
      <g transform="translate(696.449658 224.791947) scale(0.18 -0.18)">
       <defs>
        <path id="Arial-BoldMT-34" d="M 1994 0 
L 1994 922 
L 119 922 
L 119 1691 
L 2106 4600 
L 2844 4600 
L 2844 1694 
L 3413 1694 
L 3413 922 
L 2844 922 
L 2844 0 
L 1994 0 
z
M 1994 1694 
L 1994 3259 
L 941 1694 
L 1994 1694 
z
" transform="scale(0.015625)"/>
       </defs>
       <use xlink:href="#Arial-BoldMT-34"/>
      </g>
     </g>
    </g>
    <g id="xtick_6">
     <g id="line2d_6">
      <g>
       <use xlink:href="#m4ef8b9f1bd" x="594" y="198.907885" style="stroke: #000000; stroke-width: 2"/>
      </g>
     </g>
     <g id="text_6">
      <!-- 5 -->
      <g transform="translate(588.995156 224.791947) scale(0.18 -0.18)">
       <defs>
        <path id="Arial-BoldMT-35" d="M 284 1178 
L 1159 1269 
Q 1197 972 1381 798 
Q 1566 625 1806 625 
Q 2081 625 2272 848 
Q 2463 1072 2463 1522 
Q 2463 1944 2273 2155 
Q 2084 2366 1781 2366 
Q 1403 2366 1103 2031 
L 391 2134 
L 841 4519 
L 3163 4519 
L 3163 3697 
L 1506 3697 
L 1369 2919 
Q 1663 3066 1969 3066 
Q 2553 3066 2959 2641 
Q 3366 2216 3366 1538 
Q 3366 972 3038 528 
Q 2591 -78 1797 -78 
Q 1163 -78 763 262 
Q 363 603 284 1178 
z
" transform="scale(0.015625)"/>
       </defs>
       <use xlink:href="#Arial-BoldMT-35"/>
      </g>
     </g>
    </g>
    <g id="xtick_7">
     <g id="line2d_7">
      <g>
       <use xlink:href="#m4ef8b9f1bd" x="486.545498" y="198.907885" style="stroke: #000000; stroke-width: 2"/>
      </g>
     </g>
     <g id="text_7">
      <!-- 6 -->
      <g transform="translate(481.540654 224.791947) scale(0.18 -0.18)">
       <defs>
        <path id="Arial-BoldMT-36" d="M 3247 3459 
L 2397 3366 
Q 2366 3628 2234 3753 
Q 2103 3878 1894 3878 
Q 1616 3878 1423 3628 
Q 1231 3378 1181 2588 
Q 1509 2975 1997 2975 
Q 2547 2975 2939 2556 
Q 3331 2138 3331 1475 
Q 3331 772 2918 347 
Q 2506 -78 1859 -78 
Q 1166 -78 719 461 
Q 272 1000 272 2228 
Q 272 3488 737 4044 
Q 1203 4600 1947 4600 
Q 2469 4600 2811 4308 
Q 3153 4016 3247 3459 
z
M 1256 1544 
Q 1256 1116 1453 883 
Q 1650 650 1903 650 
Q 2147 650 2309 840 
Q 2472 1031 2472 1466 
Q 2472 1913 2297 2120 
Q 2122 2328 1859 2328 
Q 1606 2328 1431 2129 
Q 1256 1931 1256 1544 
z
" transform="scale(0.015625)"/>
       </defs>
       <use xlink:href="#Arial-BoldMT-36"/>
      </g>
     </g>
    </g>
    <g id="xtick_8">
     <g id="line2d_8">
      <g>
       <use xlink:href="#m4ef8b9f1bd" x="379.090996" y="198.907885" style="stroke: #000000; stroke-width: 2"/>
      </g>
     </g>
     <g id="text_8">
      <!-- 7 -->
      <g transform="translate(374.086153 224.791947) scale(0.18 -0.18)">
       <defs>
        <path id="Arial-BoldMT-37" d="M 272 3703 
L 272 4519 
L 3275 4519 
L 3275 3881 
Q 2903 3516 2518 2831 
Q 2134 2147 1932 1376 
Q 1731 606 1734 0 
L 888 0 
Q 909 950 1279 1937 
Q 1650 2925 2269 3703 
L 272 3703 
z
" transform="scale(0.015625)"/>
       </defs>
       <use xlink:href="#Arial-BoldMT-37"/>
      </g>
     </g>
    </g>
    <g id="xtick_9">
     <g id="line2d_9">
      <g>
       <use xlink:href="#m4ef8b9f1bd" x="271.636495" y="198.907885" style="stroke: #000000; stroke-width: 2"/>
      </g>
     </g>
     <g id="text_9">
      <!-- 8 -->
      <g transform="translate(266.631651 224.791947) scale(0.18 -0.18)">
       <defs>
        <path id="Arial-BoldMT-38" d="M 1025 2472 
Q 684 2616 529 2867 
Q 375 3119 375 3419 
Q 375 3931 733 4265 
Q 1091 4600 1750 4600 
Q 2403 4600 2764 4265 
Q 3125 3931 3125 3419 
Q 3125 3100 2959 2851 
Q 2794 2603 2494 2472 
Q 2875 2319 3073 2025 
Q 3272 1731 3272 1347 
Q 3272 713 2867 316 
Q 2463 -81 1791 -81 
Q 1166 -81 750 247 
Q 259 634 259 1309 
Q 259 1681 443 1992 
Q 628 2303 1025 2472 
z
M 1206 3356 
Q 1206 3094 1354 2947 
Q 1503 2800 1750 2800 
Q 2000 2800 2150 2948 
Q 2300 3097 2300 3359 
Q 2300 3606 2151 3754 
Q 2003 3903 1759 3903 
Q 1506 3903 1356 3753 
Q 1206 3603 1206 3356 
z
M 1125 1394 
Q 1125 1031 1311 828 
Q 1497 625 1775 625 
Q 2047 625 2225 820 
Q 2403 1016 2403 1384 
Q 2403 1706 2222 1901 
Q 2041 2097 1763 2097 
Q 1441 2097 1283 1875 
Q 1125 1653 1125 1394 
z
" transform="scale(0.015625)"/>
       </defs>
       <use xlink:href="#Arial-BoldMT-38"/>
      </g>
     </g>
    </g>
    <g id="xtick_10">
     <g id="line2d_10">
      <g>
       <use xlink:href="#m4ef8b9f1bd" x="164.181993" y="198.907885" style="stroke: #000000; stroke-width: 2"/>
      </g>
     </g>
     <g id="text_10">
      <!-- 9 -->
      <g transform="translate(159.177149 224.791947) scale(0.18 -0.18)">
       <defs>
        <path id="Arial-BoldMT-39" d="M 291 1059 
L 1141 1153 
Q 1172 894 1303 769 
Q 1434 644 1650 644 
Q 1922 644 2112 894 
Q 2303 1144 2356 1931 
Q 2025 1547 1528 1547 
Q 988 1547 595 1964 
Q 203 2381 203 3050 
Q 203 3747 617 4173 
Q 1031 4600 1672 4600 
Q 2369 4600 2816 4061 
Q 3263 3522 3263 2288 
Q 3263 1031 2797 475 
Q 2331 -81 1584 -81 
Q 1047 -81 715 205 
Q 384 491 291 1059 
z
M 2278 2978 
Q 2278 3403 2083 3637 
Q 1888 3872 1631 3872 
Q 1388 3872 1227 3680 
Q 1066 3488 1066 3050 
Q 1066 2606 1241 2398 
Q 1416 2191 1678 2191 
Q 1931 2191 2104 2391 
Q 2278 2591 2278 2978 
z
" transform="scale(0.015625)"/>
       </defs>
       <use xlink:href="#Arial-BoldMT-39"/>
      </g>
     </g>
    </g>
    <g id="xtick_11">
     <g id="line2d_11">
      <g>
       <use xlink:href="#m4ef8b9f1bd" x="56.727491" y="198.907885" style="stroke: #000000; stroke-width: 2"/>
      </g>
     </g>
     <g id="text_11">
      <!-- 10 -->
      <g transform="translate(46.717803 224.791947) scale(0.18 -0.18)">
       <use xlink:href="#Arial-BoldMT-31"/>
       <use xlink:href="#Arial-BoldMT-30" x="55.615234"/>
      </g>
     </g>
    </g>
    <g id="text_12">
     <!-- Chemical Shift / ppm -->
     <g transform="translate(504.992813 245.447573) scale(0.18 -0.18)">
      <defs>
       <path id="Arial-BoldMT-43" d="M 3397 1684 
L 4294 1400 
Q 4088 650 3608 286 
Q 3128 -78 2391 -78 
Q 1478 -78 890 545 
Q 303 1169 303 2250 
Q 303 3394 893 4026 
Q 1484 4659 2447 4659 
Q 3288 4659 3813 4163 
Q 4125 3869 4281 3319 
L 3366 3100 
Q 3284 3456 3026 3662 
Q 2769 3869 2400 3869 
Q 1891 3869 1573 3503 
Q 1256 3138 1256 2319 
Q 1256 1450 1568 1081 
Q 1881 713 2381 713 
Q 2750 713 3015 947 
Q 3281 1181 3397 1684 
z
" transform="scale(0.015625)"/>
       <path id="Arial-BoldMT-68" d="M 1334 4581 
L 1334 2897 
Q 1759 3394 2350 3394 
Q 2653 3394 2897 3281 
Q 3141 3169 3264 2994 
Q 3388 2819 3433 2606 
Q 3478 2394 3478 1947 
L 3478 0 
L 2600 0 
L 2600 1753 
Q 2600 2275 2550 2415 
Q 2500 2556 2373 2639 
Q 2247 2722 2056 2722 
Q 1838 2722 1666 2615 
Q 1494 2509 1414 2295 
Q 1334 2081 1334 1663 
L 1334 0 
L 456 0 
L 456 4581 
L 1334 4581 
z
" transform="scale(0.015625)"/>
       <path id="Arial-BoldMT-65" d="M 2381 1056 
L 3256 909 
Q 3088 428 2723 176 
Q 2359 -75 1813 -75 
Q 947 -75 531 491 
Q 203 944 203 1634 
Q 203 2459 634 2926 
Q 1066 3394 1725 3394 
Q 2466 3394 2894 2905 
Q 3322 2416 3303 1406 
L 1103 1406 
Q 1113 1016 1316 798 
Q 1519 581 1822 581 
Q 2028 581 2168 693 
Q 2309 806 2381 1056 
z
M 2431 1944 
Q 2422 2325 2234 2523 
Q 2047 2722 1778 2722 
Q 1491 2722 1303 2513 
Q 1116 2303 1119 1944 
L 2431 1944 
z
" transform="scale(0.015625)"/>
       <path id="Arial-BoldMT-6d" d="M 394 3319 
L 1203 3319 
L 1203 2866 
Q 1638 3394 2238 3394 
Q 2556 3394 2790 3262 
Q 3025 3131 3175 2866 
Q 3394 3131 3647 3262 
Q 3900 3394 4188 3394 
Q 4553 3394 4806 3245 
Q 5059 3097 5184 2809 
Q 5275 2597 5275 2122 
L 5275 0 
L 4397 0 
L 4397 1897 
Q 4397 2391 4306 2534 
Q 4184 2722 3931 2722 
Q 3747 2722 3584 2609 
Q 3422 2497 3350 2280 
Q 3278 2063 3278 1594 
L 3278 0 
L 2400 0 
L 2400 1819 
Q 2400 2303 2353 2443 
Q 2306 2584 2207 2653 
Q 2109 2722 1941 2722 
Q 1738 2722 1575 2612 
Q 1413 2503 1342 2297 
Q 1272 2091 1272 1613 
L 1272 0 
L 394 0 
L 394 3319 
z
" transform="scale(0.015625)"/>
       <path id="Arial-BoldMT-69" d="M 459 3769 
L 459 4581 
L 1338 4581 
L 1338 3769 
L 459 3769 
z
M 459 0 
L 459 3319 
L 1338 3319 
L 1338 0 
L 459 0 
z
" transform="scale(0.015625)"/>
       <path id="Arial-BoldMT-63" d="M 3353 2338 
L 2488 2181 
Q 2444 2441 2289 2572 
Q 2134 2703 1888 2703 
Q 1559 2703 1364 2476 
Q 1169 2250 1169 1719 
Q 1169 1128 1367 884 
Q 1566 641 1900 641 
Q 2150 641 2309 783 
Q 2469 925 2534 1272 
L 3397 1125 
Q 3263 531 2881 228 
Q 2500 -75 1859 -75 
Q 1131 -75 698 384 
Q 266 844 266 1656 
Q 266 2478 700 2936 
Q 1134 3394 1875 3394 
Q 2481 3394 2839 3133 
Q 3197 2872 3353 2338 
z
" transform="scale(0.015625)"/>
       <path id="Arial-BoldMT-61" d="M 1116 2306 
L 319 2450 
Q 453 2931 781 3162 
Q 1109 3394 1756 3394 
Q 2344 3394 2631 3255 
Q 2919 3116 3036 2902 
Q 3153 2688 3153 2116 
L 3144 1091 
Q 3144 653 3186 445 
Q 3228 238 3344 0 
L 2475 0 
Q 2441 88 2391 259 
Q 2369 338 2359 363 
Q 2134 144 1878 34 
Q 1622 -75 1331 -75 
Q 819 -75 523 203 
Q 228 481 228 906 
Q 228 1188 362 1408 
Q 497 1628 739 1745 
Q 981 1863 1438 1950 
Q 2053 2066 2291 2166 
L 2291 2253 
Q 2291 2506 2166 2614 
Q 2041 2722 1694 2722 
Q 1459 2722 1328 2630 
Q 1197 2538 1116 2306 
z
M 2291 1594 
Q 2122 1538 1756 1459 
Q 1391 1381 1278 1306 
Q 1106 1184 1106 997 
Q 1106 813 1243 678 
Q 1381 544 1594 544 
Q 1831 544 2047 700 
Q 2206 819 2256 991 
Q 2291 1103 2291 1419 
L 2291 1594 
z
" transform="scale(0.015625)"/>
       <path id="Arial-BoldMT-6c" d="M 459 0 
L 459 4581 
L 1338 4581 
L 1338 0 
L 459 0 
z
" transform="scale(0.015625)"/>
       <path id="Arial-BoldMT-20" transform="scale(0.015625)"/>
       <path id="Arial-BoldMT-53" d="M 231 1491 
L 1131 1578 
Q 1213 1125 1461 912 
Q 1709 700 2131 700 
Q 2578 700 2804 889 
Q 3031 1078 3031 1331 
Q 3031 1494 2936 1608 
Q 2841 1722 2603 1806 
Q 2441 1863 1863 2006 
Q 1119 2191 819 2459 
Q 397 2838 397 3381 
Q 397 3731 595 4036 
Q 794 4341 1167 4500 
Q 1541 4659 2069 4659 
Q 2931 4659 3367 4281 
Q 3803 3903 3825 3272 
L 2900 3231 
Q 2841 3584 2645 3739 
Q 2450 3894 2059 3894 
Q 1656 3894 1428 3728 
Q 1281 3622 1281 3444 
Q 1281 3281 1419 3166 
Q 1594 3019 2269 2859 
Q 2944 2700 3267 2529 
Q 3591 2359 3773 2064 
Q 3956 1769 3956 1334 
Q 3956 941 3737 597 
Q 3519 253 3119 86 
Q 2719 -81 2122 -81 
Q 1253 -81 787 320 
Q 322 722 231 1491 
z
" transform="scale(0.015625)"/>
       <path id="Arial-BoldMT-66" d="M 75 3319 
L 563 3319 
L 563 3569 
Q 563 3988 652 4194 
Q 741 4400 980 4529 
Q 1219 4659 1584 4659 
Q 1959 4659 2319 4547 
L 2200 3934 
Q 1991 3984 1797 3984 
Q 1606 3984 1523 3895 
Q 1441 3806 1441 3553 
L 1441 3319 
L 2097 3319 
L 2097 2628 
L 1441 2628 
L 1441 0 
L 563 0 
L 563 2628 
L 75 2628 
L 75 3319 
z
" transform="scale(0.015625)"/>
       <path id="Arial-BoldMT-74" d="M 1981 3319 
L 1981 2619 
L 1381 2619 
L 1381 1281 
Q 1381 875 1398 808 
Q 1416 741 1477 697 
Q 1538 653 1625 653 
Q 1747 653 1978 738 
L 2053 56 
Q 1747 -75 1359 -75 
Q 1122 -75 931 4 
Q 741 84 652 211 
Q 563 338 528 553 
Q 500 706 500 1172 
L 500 2619 
L 97 2619 
L 97 3319 
L 500 3319 
L 500 3978 
L 1381 4491 
L 1381 3319 
L 1981 3319 
z
" transform="scale(0.015625)"/>
       <path id="Arial-BoldMT-2f" d="M -9 -78 
L 1125 4659 
L 1784 4659 
L 638 -78 
L -9 -78 
z
" transform="scale(0.015625)"/>
       <path id="Arial-BoldMT-70" d="M 434 3319 
L 1253 3319 
L 1253 2831 
Q 1413 3081 1684 3237 
Q 1956 3394 2288 3394 
Q 2866 3394 3269 2941 
Q 3672 2488 3672 1678 
Q 3672 847 3265 386 
Q 2859 -75 2281 -75 
Q 2006 -75 1782 34 
Q 1559 144 1313 409 
L 1313 -1263 
L 434 -1263 
L 434 3319 
z
M 1303 1716 
Q 1303 1156 1525 889 
Q 1747 622 2066 622 
Q 2372 622 2575 867 
Q 2778 1113 2778 1672 
Q 2778 2194 2568 2447 
Q 2359 2700 2050 2700 
Q 1728 2700 1515 2451 
Q 1303 2203 1303 1716 
z
" transform="scale(0.015625)"/>
      </defs>
      <use xlink:href="#Arial-BoldMT-43"/>
      <use xlink:href="#Arial-BoldMT-68" x="72.216797"/>
      <use xlink:href="#Arial-BoldMT-65" x="133.300781"/>
      <use xlink:href="#Arial-BoldMT-6d" x="188.916016"/>
      <use xlink:href="#Arial-BoldMT-69" x="277.832031"/>
      <use xlink:href="#Arial-BoldMT-63" x="305.615234"/>
      <use xlink:href="#Arial-BoldMT-61" x="361.230469"/>
      <use xlink:href="#Arial-BoldMT-6c" x="416.845703"/>
      <use xlink:href="#Arial-BoldMT-20" x="444.628906"/>
      <use xlink:href="#Arial-BoldMT-53" x="472.412109"/>
      <use xlink:href="#Arial-BoldMT-68" x="539.111328"/>
      <use xlink:href="#Arial-BoldMT-69" x="600.195312"/>
      <use xlink:href="#Arial-BoldMT-66" x="627.978516"/>
      <use xlink:href="#Arial-BoldMT-74" x="661.279297"/>
      <use xlink:href="#Arial-BoldMT-20" x="694.580078"/>
      <use xlink:href="#Arial-BoldMT-2f" x="722.363281"/>
      <use xlink:href="#Arial-BoldMT-20" x="750.146484"/>
      <use xlink:href="#Arial-BoldMT-70" x="777.929688"/>
      <use xlink:href="#Arial-BoldMT-70" x="839.013672"/>
      <use xlink:href="#Arial-BoldMT-6d" x="900.097656"/>
     </g>
    </g>
   </g>
   <g id="matplotlib.axis_2"/>
   <g id="line2d_12">
    <path d="M 2.982981 188.292639 
L 4.006079 187.6765 
L 4.210699 187.790578 
L 4.824558 188.404417 
L 5.029178 188.264704 
L 5.438417 187.792618 
L 5.643037 187.850067 
L 6.052276 188.411357 
L 6.461516 189.512727 
L 7.075375 191.39783 
L 7.484615 192.234514 
L 7.689234 192.452759 
L 7.893854 192.486468 
L 8.303093 192.275625 
L 8.712333 192.034193 
L 8.916953 192.089013 
L 9.326192 192.614159 
L 9.735432 193.295276 
L 9.940051 193.429932 
L 10.144671 193.340506 
L 10.75853 192.559242 
L 10.96315 192.562881 
L 11.372389 193.049492 
L 11.781629 193.685942 
L 12.395488 195.072995 
L 12.600108 195.091808 
L 13.009347 194.154906 
L 14.237066 190.670616 
L 14.441685 190.650101 
L 14.850925 191.806973 
L 16.078643 196.149857 
L 16.897122 197.711721 
L 17.101742 198.218584 
L 17.306361 198.369504 
L 17.510981 198.064679 
L 17.920221 196.645814 
L 18.7387 193.534396 
L 19.352559 192.472399 
L 19.966418 191.603005 
L 20.171038 191.530669 
L 20.580277 191.597802 
L 21.603376 191.078289 
L 22.217235 190.644393 
L 22.626474 190.227787 
L 23.240333 189.348696 
L 23.444953 189.363482 
L 23.649573 189.579514 
L 24.058812 190.536893 
L 24.468052 191.607159 
L 24.877291 191.999807 
L 25.286531 192.343486 
L 25.69577 193.093549 
L 26.514249 195.363439 
L 26.718869 195.30972 
L 26.923489 194.822638 
L 27.946587 191.061541 
L 28.151207 190.888905 
L 28.765066 190.804976 
L 28.969686 190.600443 
L 29.378925 189.605765 
L 29.788165 188.374714 
L 29.992784 188.2963 
L 30.402024 189.378224 
L 30.606644 189.910676 
L 30.811263 190.104518 
L 31.220503 189.868584 
L 31.629742 189.66581 
L 32.243601 189.777485 
L 32.857461 189.431059 
L 33.06208 189.451507 
L 33.2667 189.627402 
L 33.67594 190.698769 
L 34.085179 191.675968 
L 34.289799 191.727185 
L 34.494418 191.472317 
L 35.108278 190.150494 
L 35.312897 190.107112 
L 35.517517 190.300856 
L 35.926757 191.186277 
L 36.335996 192.23977 
L 36.540616 192.535763 
L 36.745235 192.564549 
L 36.949855 192.304162 
L 37.359095 191.125827 
L 37.768334 189.907445 
L 37.972954 189.589098 
L 38.177574 189.568041 
L 38.996052 190.460167 
L 39.200672 190.367901 
L 39.609912 189.526577 
L 40.019151 187.994858 
L 41.04225 183.07679 
L 41.451489 182.517884 
L 41.656109 182.394718 
L 41.860729 182.455206 
L 42.269968 182.799878 
L 42.679208 182.792939 
L 42.883827 183.076677 
L 43.293067 184.804506 
L 43.906926 187.945784 
L 44.111546 188.490587 
L 44.316165 188.633354 
L 44.725405 187.977393 
L 45.134644 187.517852 
L 45.748503 187.310493 
L 46.157743 186.730233 
L 46.362363 186.733397 
L 46.566982 187.202804 
L 47.180842 189.580476 
L 47.385461 189.654612 
L 47.794701 188.495791 
L 48.20394 187.354161 
L 48.61318 186.890465 
L 49.636278 186.324801 
L 50.045518 185.851269 
L 50.250137 185.930431 
L 50.454757 186.421434 
L 51.477856 190.345163 
L 51.682476 190.102451 
L 52.705574 186.713646 
L 52.910194 186.639068 
L 53.319433 187.06729 
L 53.728673 187.610804 
L 54.547152 188.170254 
L 55.365631 189.865823 
L 55.97949 190.870255 
L 56.18411 190.954362 
L 56.593349 190.664705 
L 57.411828 189.428976 
L 57.616448 189.48169 
L 58.230307 190.277902 
L 58.434927 190.06361 
L 58.844166 188.513368 
L 59.458025 186.355627 
L 59.867265 185.355807 
L 60.481124 184.675136 
L 60.685744 184.173611 
L 61.094983 182.146378 
L 61.913462 177.107083 
L 62.118082 177.004719 
L 62.322701 177.727615 
L 62.731941 181.227831 
L 63.14118 184.88333 
L 63.55042 186.913241 
L 64.368899 189.526063 
L 64.573518 189.828635 
L 64.778138 189.817553 
L 65.187377 189.3056 
L 65.801237 188.33525 
L 66.415096 188.005745 
L 66.619716 188.038882 
L 67.438194 188.716834 
L 67.847434 188.534183 
L 68.052054 188.607959 
L 68.256673 188.964718 
L 68.870533 190.785489 
L 69.075152 191.012182 
L 69.279772 190.874065 
L 70.098251 189.350583 
L 70.71211 189.515179 
L 70.91673 189.225275 
L 72.349068 185.497659 
L 72.553688 185.312524 
L 72.758307 185.550414 
L 73.167547 186.887871 
L 74.190645 191.061495 
L 74.395265 191.17725 
L 74.599885 190.976879 
L 75.418364 189.703427 
L 75.622984 189.927175 
L 76.032223 191.496772 
L 76.850702 195.298423 
L 77.055322 195.472633 
L 77.259941 195.096262 
L 77.873801 193.389374 
L 78.28304 193.058199 
L 78.692279 192.980624 
L 79.101519 193.046316 
L 79.306139 193.209427 
L 79.919998 194.058812 
L 80.329237 194.008955 
L 80.738477 194.470536 
L 80.943096 194.4182 
L 81.352336 193.192417 
L 81.761575 192.058596 
L 82.170815 191.676801 
L 82.580054 191.563596 
L 82.989294 191.762526 
L 83.193913 191.86449 
L 83.398533 191.800784 
L 83.807773 191.117461 
L 84.217012 190.328965 
L 84.421632 190.188153 
L 84.626252 190.255867 
L 85.035491 190.859023 
L 85.44473 191.844079 
L 86.05859 193.92431 
L 86.263209 194.102879 
L 86.672449 193.659392 
L 87.490928 192.500846 
L 87.695547 192.388427 
L 88.514026 192.558151 
L 89.127886 192.064147 
L 89.537125 191.525725 
L 90.560224 189.550277 
L 91.174083 187.633696 
L 91.378703 187.271515 
L 91.787942 187.13706 
L 92.401801 186.903468 
L 92.606421 187.118101 
L 93.4249 189.154721 
L 94.038759 190.94359 
L 94.652618 192.7549 
L 95.266477 193.864239 
L 95.880337 195.155535 
L 96.494196 195.85389 
L 96.698815 195.659297 
L 97.108055 194.344294 
L 97.517294 193.012832 
L 98.540393 190.853533 
L 99.358872 188.722663 
L 99.563492 188.818309 
L 99.972731 189.76731 
L 100.58659 191.172019 
L 100.79121 191.277749 
L 101.200449 191.301079 
L 101.814309 192.586917 
L 102.018928 192.496271 
L 102.223548 191.85782 
L 103.246647 187.263902 
L 103.451266 187.194093 
L 103.860506 187.750685 
L 104.474365 188.843854 
L 105.088224 189.133136 
L 105.906703 190.693173 
L 106.315943 190.540827 
L 106.725182 190.196292 
L 107.134421 189.484909 
L 107.9529 187.379628 
L 108.36214 186.883635 
L 108.771379 185.946427 
L 110.203717 181.862038 
L 110.408337 181.747915 
L 110.612957 182.078925 
L 111.022196 184.092356 
L 111.636055 187.009091 
L 112.045295 188.065309 
L 112.659154 188.648683 
L 113.068394 190.19873 
L 113.477633 191.853222 
L 113.682253 192.091456 
L 113.886872 191.86784 
L 114.909971 189.298398 
L 115.319211 189.260986 
L 115.52383 189.237815 
L 115.72845 189.028506 
L 115.93307 188.576552 
L 116.342309 186.764627 
L 116.751549 184.837383 
L 117.160788 183.833964 
L 117.365408 183.741523 
L 117.570028 183.929689 
L 117.979267 184.954363 
L 119.002366 188.359007 
L 119.206985 188.274676 
L 119.820845 186.846108 
L 120.025464 186.842981 
L 120.230084 187.27079 
L 121.867042 193.177162 
L 122.071662 193.340999 
L 122.276281 193.160526 
L 122.480901 192.600731 
L 123.504 187.806938 
L 123.708619 187.688423 
L 123.913239 187.947933 
L 124.731718 189.628062 
L 125.140957 190.3452 
L 125.959436 192.59137 
L 126.368676 193.053337 
L 126.573296 193.074739 
L 126.777915 192.980451 
L 126.982535 192.756571 
L 127.391774 191.814438 
L 128.005634 190.36357 
L 128.210253 190.231596 
L 128.414873 190.411768 
L 128.824113 191.704187 
L 129.233352 192.938985 
L 129.437972 192.948676 
L 129.847211 191.833399 
L 130.256451 190.583478 
L 130.66569 190.001531 
L 131.07493 189.718184 
L 131.279549 189.797791 
L 131.484169 190.231074 
L 132.302648 193.448912 
L 132.507268 193.623102 
L 132.711887 193.553839 
L 132.916507 193.303429 
L 133.325747 192.140753 
L 133.734986 190.848437 
L 134.348845 189.83092 
L 134.758085 189.515489 
L 134.962704 189.517597 
L 135.167324 189.766926 
L 135.576564 191.381949 
L 135.985803 193.232119 
L 136.190423 193.406408 
L 136.395042 192.920584 
L 137.213521 189.919355 
L 138.44124 187.253009 
L 138.850479 187.824486 
L 139.259719 188.337622 
L 139.873578 188.629384 
L 140.282817 189.597052 
L 141.101296 191.974522 
L 141.510536 192.611236 
L 141.715155 192.761709 
L 141.919775 192.746207 
L 142.124395 192.442383 
L 142.329014 191.676742 
L 143.352113 185.631392 
L 144.170592 184.153082 
L 144.375212 184.060331 
L 144.579831 184.298334 
L 144.989071 185.644257 
L 146.01217 190.331057 
L 146.626029 190.805059 
L 147.239888 192.135573 
L 148.058367 194.422726 
L 148.262987 194.282733 
L 148.876846 193.133626 
L 149.286085 193.157112 
L 149.695325 193.199026 
L 149.899944 193.097993 
L 150.309184 192.295393 
L 151.946142 188.117494 
L 153.37848 184.76316 
L 153.787719 184.662042 
L 154.401578 184.959268 
L 154.606198 185.282855 
L 155.015438 186.735836 
L 155.629297 189.248749 
L 156.038536 189.99137 
L 156.447776 190.71319 
L 157.266255 192.732985 
L 157.470874 192.83747 
L 158.084733 192.627036 
L 158.493973 192.452224 
L 159.721691 191.283782 
L 160.130931 189.963526 
L 160.74479 187.404496 
L 161.154029 186.59674 
L 161.563269 186.336876 
L 161.767889 186.389933 
L 161.972508 186.60891 
L 162.790987 188.161013 
L 162.995607 188.174858 
L 163.404846 187.926253 
L 163.609466 187.991967 
L 164.018706 188.658845 
L 164.632565 189.701161 
L 165.041804 189.797085 
L 165.451044 189.628092 
L 165.860283 188.822427 
L 166.064903 188.409126 
L 166.269523 188.251215 
L 166.474142 188.427595 
L 166.883382 189.685897 
L 167.292621 190.764378 
L 167.497241 190.597773 
L 167.90648 188.900221 
L 168.31572 187.499044 
L 168.52034 187.316674 
L 168.724959 187.393859 
L 169.338818 188.165951 
L 169.748058 188.980985 
L 170.157297 190.002772 
L 170.361917 190.241919 
L 170.771157 190.145321 
L 171.385016 189.935541 
L 171.794255 189.179825 
L 172.817354 186.167822 
L 173.431213 183.489076 
L 173.635833 183.094597 
L 173.840452 183.094377 
L 174.045072 183.471529 
L 174.863551 185.921541 
L 175.068171 185.992532 
L 175.68203 185.839745 
L 175.88665 185.959563 
L 176.091269 186.357052 
L 177.114368 189.960125 
L 177.318988 190.217842 
L 177.932847 190.543916 
L 178.751326 191.911487 
L 179.160565 191.97815 
L 179.569805 191.87041 
L 179.979044 191.699116 
L 180.388284 191.764552 
L 181.206763 192.061408 
L 181.616002 191.498187 
L 181.820622 191.517051 
L 182.025241 192.049126 
L 182.84372 196.108483 
L 183.04834 196.165042 
L 183.25296 195.519862 
L 184.071439 191.514819 
L 185.094537 189.897672 
L 186.322256 187.229987 
L 186.526875 187.469873 
L 186.936115 188.815913 
L 187.345354 190.092252 
L 187.549974 190.308669 
L 187.754594 190.275913 
L 188.368453 189.767881 
L 188.777692 189.138378 
L 189.186932 187.712375 
L 189.800791 185.19578 
L 190.005411 185.079444 
L 190.210031 185.373369 
L 191.437749 188.783268 
L 191.642369 188.869341 
L 192.051608 188.668453 
L 192.256228 188.790573 
L 192.665467 189.665027 
L 193.893186 193.0368 
L 194.097805 193.106201 
L 194.302425 192.945435 
L 194.711665 191.919965 
L 195.939383 187.341566 
L 196.144003 187.160773 
L 196.348622 187.185637 
L 196.757862 187.767128 
L 197.98558 190.595824 
L 198.39482 191.763069 
L 199.417918 193.412281 
L 199.827158 193.684797 
L 200.031777 193.475108 
L 200.441017 191.948773 
L 200.850256 190.183825 
L 201.054876 189.801198 
L 201.259496 189.732596 
L 201.668735 189.853052 
L 201.873355 189.711405 
L 202.077975 189.224401 
L 202.896454 186.129279 
L 203.101073 186.207165 
L 203.510313 187.164029 
L 203.919552 187.896434 
L 204.124172 187.748962 
L 204.942651 186.397946 
L 205.35189 185.968602 
L 206.784228 183.080785 
L 206.988848 183.12764 
L 207.807327 183.746678 
L 208.011947 183.706661 
L 208.216567 183.408505 
L 208.625806 181.767975 
L 209.239665 178.126824 
L 209.648905 177.285933 
L 210.058144 176.694474 
L 210.672003 174.871301 
L 211.285862 172.026495 
L 211.695102 169.469673 
L 212.92282 158.340523 
L 213.945919 148.913728 
L 215.787496 133.014072 
L 216.605975 122.986663 
L 217.219834 113.72542 
L 219.266032 76.660023 
L 219.879891 70.061127 
L 220.084511 69.222347 
L 220.28913 69.142576 
L 220.49375 69.538221 
L 220.90299 71.316834 
L 221.312229 74.497395 
L 221.926088 81.441274 
L 222.949187 96.02806 
L 224.176905 107.599954 
L 224.995384 116.669462 
L 225.404624 119.074568 
L 226.018483 121.74179 
L 226.427722 125.156735 
L 228.06468 141.199251 
L 229.087779 149.386426 
L 229.497018 150.755287 
L 230.110877 152.086974 
L 230.724736 154.328606 
L 231.133976 155.620809 
L 231.747835 156.680075 
L 232.157075 156.895309 
L 232.566314 156.836201 
L 232.770934 156.580201 
L 232.975553 155.948331 
L 233.384793 153.422819 
L 233.794032 149.416092 
L 234.203272 143.03767 
L 236.249469 103.465777 
L 236.658709 99.366174 
L 236.863328 98.893257 
L 237.067948 99.250108 
L 237.477187 101.0133 
L 237.886427 103.905789 
L 238.295666 108.894802 
L 239.728004 129.983534 
L 240.751103 141.065062 
L 241.364962 146.106446 
L 241.774202 148.049206 
L 241.978821 148.341227 
L 242.592681 147.98939 
L 243.20654 148.551433 
L 243.41116 148.260788 
L 243.615779 147.492156 
L 244.025019 144.487056 
L 244.638878 136.893659 
L 246.071216 117.754084 
L 246.480455 113.361485 
L 246.889695 111.33944 
L 247.094315 111.29719 
L 247.298934 111.692004 
L 247.708174 113.370098 
L 248.117413 116.520754 
L 248.526653 121.767696 
L 249.958991 144.204392 
L 250.982089 157.495469 
L 251.800568 165.520573 
L 252.209808 167.893593 
L 252.619047 169.319239 
L 253.028287 170.004727 
L 253.232906 170.071019 
L 253.437526 169.969534 
L 253.846766 169.392897 
L 254.665244 167.960523 
L 254.869864 167.846212 
L 255.279104 168.127106 
L 255.688343 168.514283 
L 255.892963 168.527434 
L 256.097583 168.29788 
L 256.506822 167.159466 
L 257.120681 164.906465 
L 257.529921 161.706373 
L 258.14378 153.880734 
L 258.962259 140.413989 
L 259.780738 123.051832 
L 260.394597 104.734919 
L 261.622315 64.403625 
L 262.236174 51.148668 
L 262.645414 46.332 
L 263.054653 44.227502 
L 263.259273 44.180428 
L 263.463893 44.940427 
L 263.668512 46.752093 
L 264.077752 54.401619 
L 264.691611 72.903819 
L 265.71471 103.560585 
L 266.737808 126.545006 
L 267.147048 133.393191 
L 267.556287 137.472634 
L 268.579386 143.691449 
L 268.784006 143.558085 
L 268.988625 142.538385 
L 269.397865 138.667541 
L 270.420963 126.147314 
L 271.648682 105.688484 
L 271.853302 104.548523 
L 272.057921 104.142523 
L 272.262541 104.264446 
L 272.67178 105.283853 
L 273.08102 107.09015 
L 273.490259 110.452171 
L 274.104119 118.919827 
L 274.922597 132.653172 
L 275.536457 143.152055 
L 276.559555 155.617367 
L 277.173414 161.95857 
L 277.582654 164.861824 
L 277.991893 166.585386 
L 278.401133 167.285127 
L 278.810372 167.388918 
L 279.014992 167.334569 
L 279.219612 167.068741 
L 279.628851 165.628475 
L 280.24271 163.515681 
L 280.65195 162.095247 
L 281.265809 159.894035 
L 281.470429 159.742642 
L 281.879668 159.99582 
L 282.084288 159.829522 
L 282.288908 159.106152 
L 282.698147 156.16566 
L 283.312006 149.647368 
L 284.539725 134.857465 
L 284.948964 127.629039 
L 285.767443 106.998297 
L 286.585922 88.260472 
L 287.199781 79.491636 
L 287.81364 74.097714 
L 288.22288 71.965678 
L 288.427499 71.323871 
L 288.632119 71.129095 
L 288.836739 71.604146 
L 289.041359 72.86066 
L 289.450598 77.458432 
L 290.064457 87.342086 
L 290.678316 100.579612 
L 291.496795 119.529449 
L 291.906035 125.301095 
L 292.519894 130.529834 
L 292.929133 132.714299 
L 293.338373 133.664762 
L 293.542993 133.700668 
L 293.747612 133.402993 
L 294.156852 131.891166 
L 294.566091 129.338612 
L 294.975331 125.667682 
L 295.58919 117.456518 
L 296.612288 102.647109 
L 297.226148 97.596707 
L 297.840007 93.816776 
L 298.249246 92.67773 
L 298.453866 92.812372 
L 298.658486 93.613246 
L 299.067725 97.268552 
L 299.681584 105.780304 
L 301.523162 135.236842 
L 302.75088 150.503384 
L 303.364739 156.266225 
L 303.978599 160.199632 
L 305.206317 167.160227 
L 306.024796 173.248937 
L 306.434035 174.89291 
L 307.457134 177.569732 
L 308.275613 180.452269 
L 308.889472 181.463406 
L 309.094092 181.609835 
L 309.298712 181.366004 
L 309.912571 179.853974 
L 310.11719 179.79705 
L 310.32181 180.032144 
L 310.52643 180.642823 
L 311.344909 184.455879 
L 311.549529 184.85274 
L 311.754148 184.964089 
L 311.958768 184.879445 
L 312.163388 184.66381 
L 312.572627 183.573396 
L 312.777247 182.960861 
L 312.981867 182.805286 
L 313.186486 183.298319 
L 313.595726 185.818789 
L 314.004965 188.318089 
L 314.209585 188.961016 
L 314.414205 189.149578 
L 314.823444 188.692682 
L 315.028064 188.492934 
L 315.232684 188.49897 
L 315.846543 189.061443 
L 316.051163 188.911651 
L 316.665022 187.930115 
L 316.869641 188.010649 
L 317.278881 188.81786 
L 318.30198 191.550699 
L 318.506599 191.842006 
L 318.711219 191.892732 
L 318.915839 191.557432 
L 319.938937 188.379822 
L 320.552797 186.73879 
L 321.575895 183.602168 
L 321.780515 183.496469 
L 322.189754 183.646107 
L 322.598994 183.446843 
L 323.008233 183.276467 
L 323.212853 183.430756 
L 323.622092 184.318947 
L 324.031332 185.618207 
L 324.645191 188.070041 
L 324.849811 188.324722 
L 325.872909 187.75287 
L 326.077529 187.365127 
L 326.691388 185.520727 
L 326.896008 185.404227 
L 327.100628 185.651603 
L 327.509867 187.029302 
L 328.328346 190.63555 
L 328.737586 191.536211 
L 329.351445 191.492241 
L 329.760684 192.045082 
L 330.374543 192.762426 
L 330.579163 192.976475 
L 330.783783 193.007184 
L 330.988403 192.712846 
L 331.806882 190.701424 
L 332.216121 190.282074 
L 332.62536 189.970805 
L 333.0346 188.67671 
L 333.648459 186.231427 
L 334.057698 185.592569 
L 334.262318 185.619991 
L 334.466938 185.822133 
L 334.671558 186.187024 
L 334.876177 186.829885 
L 335.285417 189.256888 
L 335.694656 191.752941 
L 336.103896 192.843077 
L 336.513135 193.063421 
L 336.922375 193.017086 
L 337.331614 192.910226 
L 337.945473 193.486913 
L 338.150093 193.211795 
L 338.968572 190.631584 
L 339.173192 190.381172 
L 339.377811 190.379011 
L 339.787051 190.993621 
L 340.810149 193.306126 
L 341.014769 193.335953 
L 341.219389 193.02312 
L 341.833248 190.805084 
L 342.242488 189.314763 
L 342.447107 188.879884 
L 342.651727 188.809225 
L 343.265586 189.492011 
L 343.879445 189.088045 
L 344.902544 189.305976 
L 345.311783 189.684904 
L 345.925643 190.828492 
L 346.334882 191.57703 
L 347.357981 192.123441 
L 347.5626 191.88473 
L 347.97184 190.04183 
L 348.585699 187.308336 
L 348.994939 186.093297 
L 349.404178 185.585388 
L 349.608798 185.718071 
L 349.813417 186.21012 
L 350.222657 188.387083 
L 350.631896 190.885898 
L 350.836516 191.495003 
L 351.041136 191.525298 
L 351.450375 190.418138 
L 351.859615 189.176514 
L 352.064234 188.886269 
L 352.473474 188.885129 
L 353.087333 188.785829 
L 353.701192 188.643202 
L 354.315051 188.930392 
L 354.724291 188.65978 
L 355.13353 188.343717 
L 355.33815 188.503531 
L 355.952009 189.730494 
L 356.156629 189.63558 
L 356.565868 188.481585 
L 357.588967 184.622591 
L 357.998207 183.98215 
L 358.202826 183.809592 
L 358.407446 183.843205 
L 358.612066 184.147771 
L 359.635164 186.666033 
L 359.839784 186.559615 
L 360.249024 185.481339 
L 361.067502 182.94464 
L 361.681362 181.149423 
L 362.090601 179.911269 
L 362.295221 179.656918 
L 362.90908 179.687269 
L 363.1137 179.152852 
L 363.932179 176.186942 
L 365.773756 173.635246 
L 366.182996 173.740415 
L 366.387615 173.510503 
L 366.796855 172.17893 
L 367.819953 168.321131 
L 368.433813 164.678448 
L 369.252292 157.977621 
L 370.68463 145.851346 
L 371.707728 129.476705 
L 373.140066 104.274966 
L 373.958545 84.161384 
L 376.004742 31.483339 
L 376.618602 19.340902 
L 377.027841 15.57361 
L 377.232461 15.585796 
L 377.437081 16.616614 
L 377.84632 20.626923 
L 378.460179 30.253081 
L 379.483278 46.240305 
L 380.710996 63.752312 
L 381.120236 66.971274 
L 381.734095 69.445248 
L 382.143334 70.598017 
L 382.347954 70.713413 
L 382.552574 70.25009 
L 382.757193 69.011274 
L 383.166433 64.235714 
L 384.394151 45.483314 
L 386.031109 14.654423 
L 386.644968 6.644856 
L 387.054208 3.333655 
L 387.258827 3.00024 
L 387.463447 3.74022 
L 387.872687 7.983529 
L 388.281926 15.032995 
L 388.895785 29.954164 
L 391.146602 91.124006 
L 393.1928 131.766531 
L 394.625138 148.702173 
L 395.238997 155.061154 
L 395.852856 158.252139 
L 396.262095 161.049031 
L 396.875955 165.521865 
L 397.285194 166.629823 
L 397.694434 167.341409 
L 398.308293 168.880079 
L 400.35449 174.953851 
L 400.763729 175.137773 
L 400.968349 175.012932 
L 401.786828 174.085915 
L 401.991448 174.329634 
L 402.400687 175.663229 
L 403.423786 179.81278 
L 404.651504 185.24286 
L 405.060744 185.976011 
L 405.469983 186.198529 
L 406.493082 186.681147 
L 406.902321 187.349862 
L 407.311561 187.918169 
L 407.51618 187.857457 
L 408.13004 187.245243 
L 408.539279 186.92494 
L 409.153138 185.82554 
L 409.357758 185.856594 
L 409.971617 186.659524 
L 410.176237 186.649432 
L 410.380857 186.267321 
L 410.790096 184.332557 
L 411.199335 182.508224 
L 411.608575 181.92713 
L 411.813195 181.914754 
L 412.017814 182.138769 
L 412.631674 183.619464 
L 413.245533 184.155518 
L 414.064012 185.608378 
L 414.677871 185.289788 
L 415.08711 185.019236 
L 415.29173 185.128008 
L 416.110209 186.564368 
L 416.314829 186.399076 
L 416.724068 185.556953 
L 417.542547 183.455731 
L 417.747167 183.537637 
L 418.770265 185.113854 
L 419.588744 186.711305 
L 419.793364 186.709897 
L 419.997984 186.443506 
L 420.407223 185.205765 
L 420.816463 183.827515 
L 421.021082 183.476413 
L 421.225702 183.393534 
L 421.430322 183.545657 
L 421.839561 184.503466 
L 422.044181 184.991614 
L 422.248801 185.110514 
L 422.45342 184.773766 
L 423.06728 182.874253 
L 423.271899 182.758337 
L 423.681139 183.248476 
L 424.499618 184.845982 
L 425.113477 186.198192 
L 425.318097 186.397232 
L 425.522716 186.297796 
L 425.727336 185.873149 
L 426.545815 182.831187 
L 426.750435 182.934761 
L 427.159674 184.643331 
L 427.568914 186.324981 
L 427.978153 187.208868 
L 428.387393 187.541935 
L 428.796632 187.626034 
L 429.615111 188.130414 
L 430.02435 187.080518 
L 430.63821 185.355957 
L 430.842829 185.11296 
L 431.047449 185.111551 
L 431.456688 185.700933 
L 431.865928 186.760604 
L 432.479787 188.557081 
L 432.889027 188.90618 
L 433.502886 189.028681 
L 433.707505 189.262436 
L 434.525984 190.884795 
L 434.730604 190.86408 
L 434.935224 190.641658 
L 435.344463 189.58938 
L 436.367562 185.959426 
L 436.572182 185.747472 
L 436.776801 185.743854 
L 436.981421 185.945538 
L 437.390661 186.825975 
L 437.7999 188.119012 
L 438.618379 191.282469 
L 439.027618 191.640242 
L 439.641478 191.756492 
L 440.050717 191.477378 
L 440.869196 190.582624 
L 441.073816 190.422697 
L 441.278435 190.015936 
L 441.892295 187.939895 
L 442.096914 187.713244 
L 442.301534 187.964887 
L 442.710773 189.539614 
L 443.120013 191.102381 
L 443.529252 191.775057 
L 443.733872 191.850041 
L 443.938492 191.76521 
L 444.347731 191.209222 
L 444.756971 190.189381 
L 445.57545 187.165579 
L 445.780069 187.322795 
L 446.189309 188.047148 
L 446.803168 188.612673 
L 447.212407 189.535955 
L 448.235506 192.339559 
L 448.440126 192.509325 
L 448.644745 192.376463 
L 449.053985 191.493137 
L 450.281703 188.018166 
L 450.690943 187.59168 
L 450.895562 187.513149 
L 451.100182 187.602005 
L 451.509422 188.129435 
L 451.918661 188.911507 
L 452.73714 190.632961 
L 453.146379 191.30845 
L 453.555619 191.645955 
L 454.169478 192.636962 
L 454.374098 192.562366 
L 455.192577 191.6505 
L 455.806436 190.619819 
L 456.215675 189.963738 
L 456.420295 190.268694 
L 456.829535 192.360267 
L 457.238774 193.953941 
L 457.443394 193.85192 
L 458.057253 192.379072 
L 458.875732 190.204895 
L 459.489591 189.311021 
L 460.30807 187.037048 
L 460.51269 186.979494 
L 460.717309 187.206062 
L 460.921929 187.802056 
L 461.331169 190.295339 
L 461.740408 192.881649 
L 461.945028 193.493405 
L 462.149647 193.578942 
L 462.354267 193.286727 
L 462.763507 192.156427 
L 463.377366 190.245679 
L 463.786605 189.66775 
L 464.195845 189.408831 
L 464.400464 189.446376 
L 464.605084 189.670815 
L 465.218943 191.238562 
L 465.628183 191.942025 
L 466.037422 192.176417 
L 466.242042 192.184783 
L 466.446662 191.995444 
L 466.855901 191.058843 
L 467.46976 189.58559 
L 468.08362 188.441609 
L 468.288239 188.331901 
L 468.902098 188.676395 
L 469.106718 188.896635 
L 469.925197 190.324084 
L 470.539056 190.615248 
L 470.948296 190.718287 
L 471.357535 190.473164 
L 471.562155 190.47104 
L 471.971394 190.755918 
L 472.380634 191.281508 
L 473.403732 193.382201 
L 473.608352 193.178821 
L 474.222211 191.894079 
L 474.426831 191.847189 
L 475.24531 192.544305 
L 475.44993 192.314665 
L 475.859169 191.152785 
L 476.268409 189.971338 
L 476.473028 189.776067 
L 476.882268 189.868865 
L 477.086888 190.089473 
L 477.700747 191.291178 
L 477.905366 191.304045 
L 478.314606 190.642546 
L 478.928465 189.186385 
L 479.133085 188.94734 
L 479.337705 188.941519 
L 479.746944 189.491092 
L 480.156183 189.981069 
L 480.360803 190.052032 
L 480.565423 189.945423 
L 481.179282 189.105122 
L 481.588522 189.127069 
L 481.997761 189.286643 
L 482.202381 189.174289 
L 482.61162 188.492403 
L 483.634719 186.582802 
L 484.043958 186.329182 
L 484.248578 186.414642 
L 484.657817 187.086368 
L 485.271677 188.469179 
L 485.476296 188.604745 
L 485.680916 188.438678 
L 485.885536 187.8785 
L 486.908634 183.299211 
L 487.727113 182.558364 
L 488.340972 182.811798 
L 488.545592 182.687355 
L 488.954832 182.012591 
L 490.591789 178.269561 
L 491.205649 176.65527 
L 491.614888 176.366851 
L 491.819508 176.336328 
L 492.024128 176.17783 
L 492.433367 175.245477 
L 494.274945 170.197883 
L 495.093423 169.685755 
L 495.298043 169.170711 
L 495.707283 166.830693 
L 496.321142 162.469681 
L 498.367339 151.172161 
L 499.390438 143.406843 
L 501.027396 134.851608 
L 502.664353 122.594492 
L 504.096691 112.547895 
L 504.91517 106.30763 
L 505.11979 105.862118 
L 505.32441 105.897982 
L 505.52903 106.32423 
L 506.142889 108.380233 
L 506.347508 108.44574 
L 506.552128 107.902735 
L 507.370607 104.451888 
L 507.575227 104.483756 
L 507.779847 105.105305 
L 509.007565 111.452196 
L 509.621424 112.930514 
L 510.235283 114.040205 
L 510.439903 113.924597 
L 511.258382 112.548513 
L 511.667621 112.307807 
L 512.4861 112.035368 
L 514.327678 109.077438 
L 514.532298 109.225523 
L 514.941537 110.788808 
L 515.964636 116.199138 
L 519.033932 136.246189 
L 519.85241 138.733763 
L 521.080129 143.202424 
L 522.307847 149.987162 
L 522.921706 153.104011 
L 523.535566 156.213343 
L 523.944805 157.834072 
L 524.558664 161.815091 
L 525.377143 166.603935 
L 525.991002 169.312918 
L 528.037199 176.149326 
L 528.855678 177.643299 
L 529.264918 179.436496 
L 529.878777 182.899465 
L 530.083397 183.421834 
L 530.288016 183.355695 
L 531.106495 181.724548 
L 531.515735 181.746444 
L 531.924974 182.105607 
L 532.334214 182.765946 
L 532.743453 183.430689 
L 533.357312 183.698119 
L 533.766552 184.085594 
L 533.971172 184.102221 
L 534.175791 183.783164 
L 534.585031 181.936024 
L 534.99427 179.820949 
L 535.19889 179.311839 
L 535.40351 179.311173 
L 535.608129 179.759075 
L 536.017369 181.609615 
L 536.835848 185.7246 
L 537.245087 186.677207 
L 537.449707 186.762403 
L 537.858946 186.408497 
L 538.268186 185.79859 
L 538.677425 184.717744 
L 539.291284 183.047037 
L 539.700524 182.705187 
L 540.109763 182.521698 
L 540.314383 182.566855 
L 540.519003 182.879649 
L 541.337482 185.149368 
L 542.36058 186.051165 
L 542.97444 185.990785 
L 543.588299 186.174427 
L 543.997538 186.183187 
L 544.406778 185.850516 
L 544.816017 185.317879 
L 545.020637 185.286556 
L 545.839116 186.182679 
L 546.452975 186.166419 
L 546.862214 186.224066 
L 547.066834 186.043273 
L 547.885313 184.804636 
L 548.089933 184.974237 
L 548.499172 186.00286 
L 548.908412 186.929358 
L 549.113031 186.987918 
L 549.522271 186.76778 
L 549.726891 186.871365 
L 549.93151 187.277415 
L 550.749989 189.789705 
L 551.568468 190.69247 
L 551.773088 190.669442 
L 551.977708 190.36127 
L 553.000806 187.530626 
L 553.410046 187.364791 
L 553.819285 186.750814 
L 554.023905 186.435768 
L 554.228525 186.393458 
L 554.433144 186.707244 
L 555.251623 188.9607 
L 555.660863 190.955175 
L 556.479342 195.298775 
L 556.683961 195.984607 
L 556.888581 196.260689 
L 557.093201 196.098612 
L 557.70706 194.441269 
L 558.116299 193.095327 
L 558.934778 189.797157 
L 559.344018 188.685984 
L 559.753257 188.112059 
L 559.957877 187.951276 
L 560.162497 188.010101 
L 560.776356 188.80643 
L 560.980976 188.593829 
L 561.390215 187.872707 
L 561.594835 187.908151 
L 562.413314 189.43931 
L 562.822553 188.838462 
L 563.845652 187.231369 
L 564.254891 186.918726 
L 564.459511 187.019966 
L 564.86875 187.869972 
L 565.687229 190.138085 
L 565.891849 190.228724 
L 566.301088 189.61287 
L 567.324187 188.154772 
L 567.733426 187.868303 
L 568.142666 187.982762 
L 569.370384 188.983391 
L 569.779624 188.863556 
L 569.984243 188.776667 
L 570.188863 188.93312 
L 570.393483 189.510076 
L 570.802722 192.007474 
L 571.211962 194.849198 
L 571.621201 196.171608 
L 571.825821 196.172322 
L 572.030441 195.744511 
L 572.6443 192.822632 
L 573.053539 191.164483 
L 573.462779 190.362957 
L 573.667399 190.541531 
L 574.076638 191.849185 
L 574.690497 193.942625 
L 575.304356 195.356739 
L 575.508976 195.501308 
L 575.713596 195.327528 
L 576.122835 194.295838 
L 576.736694 191.749095 
L 577.145934 189.885815 
L 577.555173 189.092797 
L 577.759793 188.981039 
L 577.964413 189.113265 
L 578.373652 190.103568 
L 578.782892 191.1305 
L 579.396751 191.565348 
L 580.624469 194.185133 
L 581.033709 194.707118 
L 581.442948 195.447936 
L 581.647568 195.594269 
L 581.852188 195.460073 
L 582.261427 194.518171 
L 582.670667 193.003367 
L 583.284526 189.38117 
L 583.693765 187.582671 
L 583.898385 187.436222 
L 584.103005 187.738766 
L 584.716864 189.587423 
L 585.330723 191.331421 
L 585.739962 191.677092 
L 586.353822 192.001517 
L 586.967681 192.789746 
L 587.172301 192.649498 
L 587.58154 191.709756 
L 587.990779 190.862076 
L 588.195399 190.823469 
L 588.809258 191.525046 
L 589.013878 191.492126 
L 590.241596 190.111947 
L 590.650836 189.707284 
L 591.060075 189.178924 
L 591.264695 189.076714 
L 591.673935 189.276619 
L 591.878554 189.503254 
L 592.287794 190.484907 
L 592.697033 191.372007 
L 592.901653 191.361298 
L 593.310892 190.996518 
L 593.515512 191.029343 
L 594.129371 191.654929 
L 594.333991 191.534579 
L 594.74323 190.513154 
L 595.35709 188.571295 
L 596.175569 187.012266 
L 596.584808 186.131587 
L 596.789428 186.352166 
L 597.607907 189.024559 
L 597.812526 188.832258 
L 598.631005 186.53608 
L 598.835625 186.444311 
L 599.040245 186.806811 
L 599.449484 188.804626 
L 600.063343 191.83998 
L 600.267963 192.236148 
L 600.472583 192.272306 
L 600.677203 191.970356 
L 601.086442 190.407351 
L 601.904921 186.489939 
L 602.51878 184.973638 
L 602.928019 184.549256 
L 603.132639 184.712098 
L 603.337259 185.159623 
L 603.951118 187.332264 
L 604.155738 187.40678 
L 604.360358 186.877673 
L 604.974217 184.606032 
L 605.178836 184.682578 
L 605.792696 186.351581 
L 605.997315 186.404852 
L 606.815794 185.739764 
L 607.020414 185.787484 
L 607.429653 186.503153 
L 607.838893 187.254529 
L 608.248132 187.45806 
L 608.657372 187.60593 
L 608.861992 187.832598 
L 609.271231 188.782758 
L 609.68047 189.90882 
L 609.88509 190.134936 
L 610.08971 189.917733 
L 610.498949 188.318485 
L 611.317428 183.823064 
L 611.522048 183.575398 
L 611.726668 183.815206 
L 612.135907 185.261321 
L 612.749766 187.890219 
L 613.159006 188.41883 
L 613.977485 189.262191 
L 614.386724 189.353846 
L 614.795964 189.779619 
L 615.000583 190.037716 
L 615.205203 190.098268 
L 615.409823 189.857063 
L 616.023682 188.673622 
L 616.228302 188.700385 
L 616.637541 189.45819 
L 617.45602 191.540022 
L 617.86526 192.646719 
L 618.069879 192.782591 
L 618.274499 192.644097 
L 618.683738 192.197006 
L 618.888358 192.386648 
L 619.297598 193.935315 
L 619.706837 195.120045 
L 619.911457 195.096245 
L 620.729936 194.152291 
L 620.934555 194.282959 
L 621.343795 195.229392 
L 621.753034 196.357301 
L 622.162274 196.850681 
L 622.366894 196.853907 
L 622.571513 196.64935 
L 622.980753 195.402404 
L 624.003851 191.050291 
L 624.208471 191.052066 
L 624.617711 191.605033 
L 625.02695 192.206766 
L 625.23157 192.230865 
L 625.436189 191.90942 
L 626.459288 188.755478 
L 627.073147 187.929277 
L 627.891626 186.247038 
L 628.505485 185.740568 
L 628.914725 185.841069 
L 629.119345 186.051426 
L 629.528584 186.982673 
L 629.937823 187.96189 
L 630.142443 188.121043 
L 630.347063 188.05614 
L 631.984021 186.202451 
L 632.39326 184.78638 
L 632.8025 183.377607 
L 633.007119 183.39783 
L 633.620979 184.974582 
L 633.825598 185.035924 
L 634.030218 184.745775 
L 634.439457 183.82989 
L 634.644077 183.744781 
L 634.848697 184.089366 
L 635.462556 185.601444 
L 635.871796 186.413396 
L 636.281035 187.731941 
L 637.099514 191.121302 
L 637.304134 191.280664 
L 637.508753 191.103202 
L 638.122613 190.175622 
L 638.531852 189.964537 
L 638.736472 190.003793 
L 639.145711 190.692106 
L 639.350331 191.023391 
L 639.554951 191.040334 
L 639.96419 190.158101 
L 640.37343 189.489208 
L 640.578049 189.5766 
L 640.987289 189.967271 
L 641.191908 190.008659 
L 641.396528 189.845343 
L 642.215007 188.275806 
L 642.419627 188.593522 
L 643.033486 190.441941 
L 643.238106 190.523105 
L 643.647345 190.219167 
L 643.851965 190.296831 
L 644.465824 191.144934 
L 644.670444 190.879863 
L 645.488923 188.748588 
L 645.693542 188.492339 
L 645.898162 188.432907 
L 646.716641 188.72545 
L 647.12588 188.53983 
L 647.3305 188.733513 
L 647.944359 189.654504 
L 648.558219 189.650209 
L 648.967458 189.480668 
L 649.172078 189.579631 
L 649.376697 190.019111 
L 650.195176 192.98996 
L 650.399796 193.098212 
L 650.604416 192.86945 
L 651.013655 191.750057 
L 651.422895 190.482534 
L 651.627514 190.238502 
L 652.036754 190.458664 
L 652.445993 190.592855 
L 652.855233 190.24832 
L 653.673712 189.234967 
L 653.878331 189.173136 
L 654.287571 189.489348 
L 654.90143 190.155035 
L 655.924529 190.667227 
L 656.129148 190.686437 
L 656.743008 190.191349 
L 656.947627 190.547705 
L 657.356867 191.720883 
L 657.561487 191.829727 
L 658.379965 190.789045 
L 658.584585 190.828098 
L 659.198444 191.485313 
L 659.403064 191.478773 
L 659.607684 191.266175 
L 660.835402 188.874244 
L 661.244642 188.552699 
L 661.653881 188.324081 
L 662.063121 187.954534 
L 662.26774 187.949878 
L 662.881599 188.279278 
L 663.700078 188.021776 
L 663.904698 188.284293 
L 664.313938 189.325097 
L 665.132416 192.593116 
L 665.541656 193.948865 
L 665.746276 194.027072 
L 665.950895 193.537897 
L 666.769374 190.13884 
L 667.178614 189.473052 
L 667.587853 189.366362 
L 667.997093 189.698301 
L 668.406332 190.022956 
L 669.020191 189.865113 
L 669.224811 190.006454 
L 670.04329 191.232288 
L 670.452529 191.354109 
L 671.475628 192.213889 
L 671.680248 192.09399 
L 672.089487 191.481111 
L 672.703346 190.599945 
L 673.112586 190.424423 
L 673.521825 190.385908 
L 673.931065 189.775532 
L 674.340304 189.234445 
L 675.158783 188.743774 
L 675.568023 187.764373 
L 676.181882 186.233781 
L 676.386501 186.252036 
L 676.591121 186.673047 
L 677.000361 188.651361 
L 677.4096 190.585956 
L 677.61422 190.943802 
L 677.81884 190.957601 
L 678.637318 190.401055 
L 679.046558 189.182489 
L 680.069656 185.218223 
L 680.274276 185.507922 
L 680.888135 187.811031 
L 681.092755 187.862336 
L 681.297375 187.346312 
L 682.115854 183.730666 
L 682.320473 183.871855 
L 682.729713 185.643631 
L 683.138952 187.531502 
L 683.548192 188.488999 
L 684.366671 189.194247 
L 684.57129 189.112834 
L 684.77591 188.643606 
L 685.594389 185.514518 
L 686.617488 183.970492 
L 687.026727 183.562657 
L 687.231347 183.069024 
L 687.845206 180.553542 
L 688.049826 180.291958 
L 688.254446 180.578713 
L 688.663685 182.140203 
L 689.072924 183.737389 
L 689.277544 184.137186 
L 689.482164 184.213433 
L 689.686784 184.023224 
L 689.891403 183.54642 
L 690.709882 180.046627 
L 691.323741 179.40141 
L 691.732981 177.812387 
L 693.369939 168.34295 
L 694.188418 161.592716 
L 694.802277 156.246608 
L 695.620756 146.465295 
L 696.439235 132.863824 
L 697.053094 119.087439 
L 698.690052 73.783585 
L 699.099291 68.060059 
L 699.508531 65.149649 
L 699.71315 64.466947 
L 699.91777 64.486253 
L 700.12239 65.31448 
L 700.531629 69.032566 
L 700.940869 75.195718 
L 701.554728 89.403885 
L 702.373207 109.130682 
L 703.805545 134.534641 
L 704.624024 144.955406 
L 705.647122 156.53746 
L 706.260982 160.911532 
L 706.874841 164.046396 
L 707.28408 165.242963 
L 707.897939 166.145537 
L 708.921038 169.153057 
L 709.125658 169.263209 
L 709.534897 169.07766 
L 709.739517 169.192711 
L 710.148756 170.342766 
L 710.557996 171.585988 
L 710.762616 171.864595 
L 710.967235 171.86972 
L 711.376475 171.535077 
L 711.581094 171.560514 
L 711.785714 171.888802 
L 712.194954 173.588711 
L 712.604193 175.501333 
L 713.627292 178.434092 
L 714.036531 179.723819 
L 714.241151 179.770287 
L 714.65039 178.832009 
L 714.85501 178.327678 
L 715.05963 178.149208 
L 715.26425 178.363831 
L 715.673489 179.745941 
L 716.287348 182.680295 
L 716.491968 183.209725 
L 716.696588 183.348702 
L 717.105827 182.845098 
L 717.515067 182.341106 
L 718.128926 181.9315 
L 718.742785 180.56244 
L 718.947405 180.571941 
L 719.356644 181.368926 
L 719.561264 181.783426 
L 719.765883 181.896968 
L 719.970503 181.583714 
L 720.379743 180.116091 
L 721.607461 174.50519 
L 721.812081 174.460784 
L 722.0167 174.919709 
L 722.42594 177.198267 
L 723.039799 181.084638 
L 723.449039 182.489914 
L 723.653658 182.635722 
L 723.858278 182.375504 
L 724.676757 180.5922 
L 724.881377 180.632555 
L 725.085996 181.097034 
L 726.313715 185.209025 
L 726.722954 186.262823 
L 726.927574 186.444348 
L 727.541433 186.31786 
L 727.746053 186.54429 
L 728.564532 188.451161 
L 728.769151 188.320649 
L 729.58763 187.047807 
L 730.20149 186.279339 
L 731.019968 184.528898 
L 731.224588 184.803873 
L 732.043067 187.028129 
L 732.656926 187.348125 
L 733.475405 189.125673 
L 733.884645 189.347603 
L 734.089264 189.269729 
L 734.293884 188.958675 
L 735.112363 186.715643 
L 735.316983 186.778031 
L 735.726222 187.572689 
L 736.135462 188.366349 
L 736.340081 188.375176 
L 736.544701 187.983485 
L 736.953941 185.846055 
L 737.36318 183.768921 
L 737.5678 183.581808 
L 737.772419 183.942902 
L 738.590898 186.333232 
L 739.204758 186.973038 
L 739.613997 188.268568 
L 740.023236 189.767141 
L 740.227856 190.110952 
L 740.432476 190.120448 
L 741.046335 189.503463 
L 741.660194 188.751496 
L 741.864814 188.684662 
L 742.069434 188.824121 
L 742.478673 189.813147 
L 743.501772 193.215674 
L 743.911011 193.754364 
L 744.115631 193.823466 
L 744.320251 193.739878 
L 744.52487 193.468441 
L 745.343349 191.700192 
L 745.547969 191.631801 
L 745.752589 191.80334 
L 746.366448 192.982653 
L 746.571068 193.039927 
L 747.184927 192.413878 
L 747.389547 192.545439 
L 748.003406 193.336086 
L 748.617265 193.714543 
L 748.821885 193.708507 
L 749.026504 193.444556 
L 749.844983 191.382548 
L 750.049603 191.722879 
L 751.072702 195.404584 
L 751.277321 195.266894 
L 751.686561 194.069697 
L 752.50504 191.026728 
L 753.528138 189.103417 
L 753.732758 189.075913 
L 754.141998 189.322135 
L 754.755857 189.118122 
L 755.165096 190.029871 
L 755.369716 190.46404 
L 755.574336 190.581662 
L 755.983575 190.087595 
L 756.392815 189.560253 
L 756.597434 189.487949 
L 756.802054 189.598091 
L 757.620533 190.621418 
L 757.825153 190.467212 
L 758.234392 189.90619 
L 759.257491 189.343693 
L 759.46211 189.481625 
L 760.280589 190.854956 
L 760.689829 190.687667 
L 761.099068 190.430592 
L 761.303688 190.460567 
L 761.712927 190.790422 
L 761.917547 190.730728 
L 762.326787 189.663355 
L 762.736026 188.848371 
L 762.940646 188.89709 
L 763.554505 189.279067 
L 763.963744 189.315319 
L 764.577604 189.530505 
L 764.986843 189.218425 
L 766.009942 189.240714 
L 766.214561 189.547847 
L 766.623801 190.935646 
L 767.03304 192.26231 
L 767.23766 192.430779 
L 767.44228 192.330974 
L 768.056139 191.432904 
L 768.874618 190.017034 
L 769.079238 189.943586 
L 769.693097 190.070864 
L 769.897717 189.853094 
L 770.306956 188.610991 
L 770.716195 187.126665 
L 770.920815 186.737161 
L 771.125435 186.73898 
L 771.330055 187.128297 
L 771.943914 189.171485 
L 772.148534 189.40447 
L 772.353153 189.272477 
L 772.762393 188.715241 
L 772.967012 188.702366 
L 773.171632 189.024493 
L 773.580872 190.119554 
L 773.990111 190.472859 
L 774.60397 191.06734 
L 774.80859 190.865419 
L 775.422449 188.853833 
L 775.627069 188.824684 
L 776.036308 190.117207 
L 776.445548 191.673526 
L 776.854787 192.351483 
L 777.264027 192.259743 
L 777.877886 191.997825 
L 778.491745 191.432575 
L 778.696365 191.060981 
L 779.105604 189.392726 
L 779.514844 187.389453 
L 779.924083 186.573083 
L 780.333323 186.528827 
L 780.537942 186.672577 
L 781.356421 188.040844 
L 781.561041 187.948585 
L 782.1749 186.867618 
L 782.37952 186.867072 
L 782.993379 187.503153 
L 783.402619 187.606945 
L 783.607238 187.966344 
L 784.425717 190.440862 
L 784.630337 190.425806 
L 784.834957 189.984209 
L 786.471914 184.166739 
L 786.676534 184.326888 
L 787.290393 186.240333 
L 787.495013 186.26719 
L 788.313492 184.94248 
L 788.518112 185.221548 
L 789.54121 188.554466 
L 789.74583 188.67659 
L 790.15507 188.646971 
L 790.359689 188.79539 
L 791.382788 190.430983 
L 791.587408 190.498051 
L 791.792027 190.410731 
L 792.201267 189.711996 
L 792.815126 188.632909 
L 793.224365 188.332281 
L 793.428985 188.31625 
L 793.633605 188.511946 
L 794.042844 189.168462 
L 794.247464 189.251215 
L 795.475182 188.382667 
L 795.679802 188.395619 
L 795.884422 188.788489 
L 796.498281 191.096961 
L 796.702901 191.382355 
L 796.90752 191.423836 
L 797.11214 191.332061 
L 797.52138 190.663709 
L 797.725999 190.292795 
L 797.930619 190.165405 
L 798.339859 190.497116 
L 799.158337 191.353475 
L 799.362957 191.466029 
L 799.567577 191.423299 
L 799.976816 191.032353 
L 800.181436 191.073855 
L 800.386056 191.441797 
L 800.999915 193.001067 
L 801.204535 192.860795 
L 801.613774 191.37677 
L 802.227633 189.061967 
L 802.432253 188.784702 
L 802.636873 188.782016 
L 802.841493 189.018767 
L 803.455352 190.226792 
L 803.659971 190.198321 
L 803.864591 189.762957 
L 804.68307 187.267049 
L 804.88769 187.079688 
L 805.910788 187.035515 
L 806.115408 187.43146 
L 806.933887 190.918218 
L 807.138507 190.91092 
L 807.547746 189.750287 
L 807.956986 188.513578 
L 808.161605 188.295631 
L 808.775465 188.475281 
L 809.389324 187.525188 
L 809.593944 187.606537 
L 809.798563 188.193351 
L 811.026282 194.195934 
L 811.844761 195.098506 
L 812.04938 195.174617 
L 812.254 194.96063 
L 812.663239 193.610733 
L 813.277099 190.940327 
L 813.890958 189.137527 
L 814.095578 188.772171 
L 814.300197 188.687793 
L 814.504817 188.885283 
L 815.118676 190.105058 
L 815.527916 190.926392 
L 815.732535 191.084413 
L 815.937155 190.904043 
L 816.346395 189.510974 
L 816.755634 187.946898 
L 816.960254 187.570464 
L 817.164873 187.477472 
L 817.574113 187.495952 
L 817.778733 187.290549 
L 818.801831 185.340631 
L 819.006451 185.353332 
L 819.211071 185.599995 
L 819.62031 186.796938 
L 820.438789 189.818003 
L 820.643409 190.115374 
L 820.848029 190.057885 
L 821.052648 189.63349 
L 821.871127 186.611926 
L 822.075747 186.408552 
L 822.484986 186.365994 
L 823.303465 185.328403 
L 823.712705 185.06768 
L 824.121944 184.634065 
L 824.940423 184.157215 
L 825.758902 182.58284 
L 825.963522 182.557151 
L 826.372761 183.017073 
L 826.782001 183.646029 
L 826.98662 183.71601 
L 827.19124 183.409874 
L 828.009719 180.803333 
L 828.214339 180.698078 
L 828.418958 180.945908 
L 829.032818 182.344869 
L 829.646677 183.306926 
L 830.055916 183.927665 
L 830.260536 184.063044 
L 830.465156 184.059869 
L 831.692874 183.331236 
L 831.897494 183.366395 
L 832.306733 183.961377 
L 832.715973 184.596718 
L 832.920592 184.613226 
L 833.329832 184.085411 
L 834.55755 181.862251 
L 834.76217 181.861586 
L 835.171409 182.281731 
L 835.580649 183.005846 
L 836.603747 185.802505 
L 836.808367 185.862295 
L 837.012987 185.489884 
L 837.422226 183.533188 
L 838.036086 180.372409 
L 838.445325 179.661996 
L 838.649945 179.744065 
L 839.059184 180.701147 
L 839.673043 183.341717 
L 840.082283 184.911374 
L 840.286903 185.250523 
L 840.491522 185.255471 
L 840.900762 184.730732 
L 841.719241 182.899945 
L 842.3331 181.574748 
L 842.53772 181.4423 
L 842.742339 181.585085 
L 843.356198 182.31609 
L 843.560818 182.329172 
L 844.583917 181.680731 
L 844.993156 181.794693 
L 845.197776 181.727131 
L 845.607015 181.14294 
L 846.016255 180.529694 
L 846.220875 180.67921 
L 847.243973 182.97011 
L 848.062452 182.398459 
L 848.471692 181.263082 
L 848.880931 180.324466 
L 849.085551 180.240297 
L 849.69941 180.33919 
L 850.722509 179.310284 
L 851.131748 177.734558 
L 851.745607 174.802288 
L 852.154847 173.930512 
L 852.564086 173.48241 
L 852.768706 173.410672 
L 852.973326 173.707167 
L 853.791805 176.687511 
L 853.996424 176.8932 
L 854.201044 176.896431 
L 854.405664 176.715746 
L 854.814903 175.710961 
L 855.428762 173.668145 
L 855.633382 173.312642 
L 856.247241 173.009882 
L 856.451861 172.609682 
L 857.27034 169.904507 
L 857.47496 169.880528 
L 857.679579 170.262257 
L 858.498058 172.845614 
L 858.702678 172.903663 
L 859.316537 172.61041 
L 859.725777 172.561821 
L 859.930396 172.352602 
L 860.339636 171.260043 
L 860.953495 168.835621 
L 861.158115 168.765041 
L 861.567354 169.787601 
L 862.795073 173.272358 
L 863.408932 175.769908 
L 863.818171 176.42555 
L 864.022791 176.416041 
L 864.84127 175.782908 
L 865.250509 175.048723 
L 865.659749 173.865041 
L 866.273608 171.401574 
L 866.478228 171.119788 
L 866.682847 171.170605 
L 867.092087 171.824377 
L 867.705946 172.987483 
L 867.910566 173.017249 
L 868.319805 172.32327 
L 869.342904 170.167208 
L 869.547524 170.144999 
L 869.956763 170.743715 
L 870.366002 171.918078 
L 870.979862 174.187666 
L 871.184481 174.38618 
L 871.389101 174.241891 
L 871.798341 173.416699 
L 872.20758 171.875899 
L 872.616819 170.356937 
L 872.821439 170.073154 
L 873.026059 170.200166 
L 873.844538 172.207755 
L 874.049157 171.943321 
L 874.458397 170.223203 
L 875.276876 166.900224 
L 875.686115 165.924815 
L 875.890735 165.868669 
L 876.504594 166.153842 
L 876.709214 166.387791 
L 877.323073 167.664338 
L 877.527693 167.721745 
L 877.732313 167.448756 
L 878.141552 166.315238 
L 879.36927 162.186047 
L 879.57389 161.972367 
L 879.98313 162.030094 
L 880.392369 162.224169 
L 881.006228 162.73615 
L 881.210848 162.37057 
L 881.620087 160.378165 
L 882.438566 155.821243 
L 883.052425 153.30675 
L 883.461665 152.231951 
L 883.666285 151.890319 
L 883.870904 151.820413 
L 884.075524 152.145178 
L 884.689383 153.726396 
L 885.917102 154.572938 
L 886.121721 154.271349 
L 886.530961 152.901866 
L 887.14482 150.180012 
L 887.34944 149.737002 
L 887.554059 149.734994 
L 887.963299 150.66417 
L 888.372538 151.698016 
L 888.577158 151.903256 
L 888.781778 151.740034 
L 889.600257 149.695811 
L 889.804876 149.528492 
L 890.009496 149.213526 
L 890.214116 148.518309 
L 890.623355 145.874225 
L 891.032595 143.022156 
L 891.441834 141.531995 
L 891.851074 141.126958 
L 892.260313 140.789105 
L 892.669553 139.865745 
L 893.078792 138.794209 
L 893.283412 138.512746 
L 893.692651 138.502463 
L 894.101891 138.494965 
L 894.30651 138.286422 
L 894.71575 137.239019 
L 895.738849 133.20126 
L 896.761947 127.888384 
L 897.171187 127.522739 
L 897.375806 127.325341 
L 897.580426 126.850873 
L 900.240483 116.235216 
L 901.468201 109.390284 
L 901.672821 108.962735 
L 901.87744 108.844814 
L 902.4913 109.038522 
L 902.695919 108.798098 
L 903.309778 107.299497 
L 903.514398 107.132639 
L 903.719018 107.235262 
L 904.332877 108.011358 
L 904.742117 107.883993 
L 905.151356 107.745233 
L 905.355976 107.77695 
L 905.560595 108.028212 
L 906.379074 110.091944 
L 906.583694 109.813398 
L 908.016032 105.253328 
L 908.425272 104.251714 
L 908.629891 103.962711 
L 908.834511 103.883978 
L 909.039131 104.120946 
L 909.85761 106.616593 
L 910.062229 106.569446 
L 910.676089 105.946802 
L 911.085328 105.277319 
L 911.494567 104.03133 
L 912.108427 101.79365 
L 912.313046 101.560268 
L 912.926906 101.658499 
L 913.131525 101.81493 
L 913.336145 102.218775 
L 914.154624 104.667998 
L 914.359244 104.704431 
L 914.563863 104.458939 
L 914.973103 103.482808 
L 915.382342 101.941447 
L 915.996201 99.545103 
L 916.200821 99.299042 
L 916.405441 99.717262 
L 916.610061 101.060473 
L 917.42854 108.792099 
L 917.633159 108.73596 
L 917.837779 107.513549 
L 918.860878 96.511496 
L 919.270117 91.233061 
L 919.679357 82.384597 
L 920.088596 66.781878 
L 920.497835 50.32274 
L 920.702455 48.093912 
L 920.907075 51.780858 
L 922.134793 94.689478 
L 922.748652 106.134147 
L 923.157892 111.229996 
L 923.567131 113.753116 
L 923.976371 114.466374 
L 924.59023 114.73745 
L 924.79485 114.45745 
L 925.613329 111.831616 
L 925.817948 111.847278 
L 926.431808 112.397542 
L 926.636427 112.315032 
L 927.659526 111.277398 
L 928.273385 111.338145 
L 929.091864 110.634597 
L 929.296484 110.952622 
L 930.114963 112.825795 
L 930.319582 112.709435 
L 930.728822 111.581075 
L 931.75192 107.832681 
L 931.95654 107.597021 
L 932.16116 107.787583 
L 932.570399 109.373161 
L 933.388878 113.337039 
L 934.002737 114.968709 
L 934.821216 116.763368 
L 935.025836 116.905578 
L 935.435076 116.871042 
L 935.639695 117.009098 
L 936.048935 117.904054 
L 936.867414 120.705777 
L 938.299752 125.892737 
L 940.345949 130.24592 
L 940.550569 130.142524 
L 941.369048 129.152329 
L 941.573667 129.395853 
L 941.778287 130.011422 
L 942.187527 132.608906 
L 943.824484 146.379487 
L 944.029104 146.863831 
L 944.233724 146.993266 
L 944.847583 146.956402 
L 945.256822 147.441304 
L 945.666062 147.98694 
L 945.870682 147.995026 
L 946.689161 147.383285 
L 946.89378 147.535569 
L 947.30302 148.337811 
L 947.916879 150.545414 
L 948.939978 154.476566 
L 949.144597 154.565918 
L 949.963076 154.249877 
L 950.576935 155.202838 
L 950.781555 155.240327 
L 950.986175 155.420386 
L 951.190794 156.070046 
L 952.009273 160.129903 
L 952.213893 160.511516 
L 952.827752 160.98139 
L 954.055471 164.093392 
L 954.66933 166.457936 
L 954.87395 166.581695 
L 955.078569 166.315367 
L 955.487809 165.013553 
L 956.101668 162.756985 
L 956.306288 162.718709 
L 956.510907 163.147267 
L 957.329386 165.71512 
L 958.352485 167.865083 
L 958.761724 168.368822 
L 959.170964 169.056071 
L 959.580203 170.267582 
L 959.989443 171.274923 
L 960.603302 171.44073 
L 961.217161 172.284929 
L 961.421781 172.377897 
L 962.03564 172.293909 
L 962.444879 172.854651 
L 963.058739 173.770416 
L 963.263358 173.815529 
L 963.672598 173.655426 
L 963.877218 173.879937 
L 964.286457 175.316603 
L 964.900316 178.037907 
L 965.104936 178.54866 
L 965.309556 178.643943 
L 965.514175 178.344896 
L 966.128035 176.839476 
L 966.332654 176.770757 
L 966.537274 176.996613 
L 967.560373 178.873366 
L 967.969612 179.387086 
L 968.378852 180.199646 
L 968.788091 181.120856 
L 968.992711 181.195536 
L 969.19733 180.833311 
L 970.425049 177.175066 
L 970.629669 177.034389 
L 970.834288 177.295514 
L 971.243528 178.822067 
L 971.857387 180.970263 
L 973.289725 183.880599 
L 973.494345 183.973374 
L 973.698964 183.895316 
L 974.108204 183.220663 
L 974.312824 182.860009 
L 974.517443 182.76492 
L 974.722063 183.041931 
L 975.131303 184.194614 
L 975.335922 184.416026 
L 975.540542 184.168778 
L 976.359021 182.397122 
L 977.38212 181.40442 
L 977.791359 181.658818 
L 979.632937 183.485409 
L 980.451415 184.876421 
L 981.065275 184.868964 
L 981.679134 185.607535 
L 981.883754 185.529157 
L 982.292993 184.223597 
L 982.497613 183.62734 
L 982.702232 183.482908 
L 983.520711 184.330662 
L 984.134571 184.378581 
L 984.33919 184.015071 
L 984.74843 181.961295 
L 985.362289 178.029097 
L 985.566909 177.609407 
L 985.771528 177.839017 
L 986.999247 181.837894 
L 987.817726 182.499733 
L 988.226965 183.035744 
L 988.636204 183.689012 
L 988.840824 183.719541 
L 989.045444 183.26829 
L 989.659303 180.39764 
L 989.863923 180.064471 
L 990.068543 180.115193 
L 990.682402 180.673328 
L 990.887021 180.591415 
L 991.500881 179.709538 
L 991.7055 179.743862 
L 992.11474 180.65144 
L 992.728599 182.734607 
L 993.547078 185.900196 
L 993.751698 186.216836 
L 994.570177 186.489905 
L 995.184036 187.268989 
L 995.388655 187.290542 
L 995.593275 187.154452 
L 996.002515 186.306264 
L 996.820994 183.857127 
L 997.025613 183.723177 
L 997.230233 183.959563 
L 997.639472 185.317878 
L 998.048712 186.920376 
L 998.253332 187.395008 
L 998.457951 187.486935 
L 998.662571 187.220267 
L 999.48105 185.160667 
L 999.68567 185.17413 
L 1000.094909 185.766329 
L 1000.299529 185.85338 
L 1000.504149 185.607217 
L 1001.731867 182.361653 
L 1001.936487 182.149046 
L 1002.141106 182.110974 
L 1002.345726 182.233343 
L 1002.754966 182.85713 
L 1003.368825 184.396205 
L 1003.982684 186.586613 
L 1004.187304 186.716307 
L 1005.005783 185.667197 
L 1005.619642 185.369846 
L 1006.028881 185.862358 
L 1006.438121 186.77943 
L 1007.2566 189.911754 
L 1007.461219 190.122492 
L 1007.665839 189.974213 
L 1008.688938 188.087055 
L 1009.302797 188.098718 
L 1009.712036 188.310797 
L 1010.121276 188.838411 
L 1011.144374 190.578592 
L 1011.348994 190.574526 
L 1011.758234 189.701328 
L 1012.781332 187.140627 
L 1013.599811 185.959671 
L 1014.009051 185.161999 
L 1014.21367 185.071545 
L 1014.41829 185.232228 
L 1014.82753 186.020935 
L 1015.646008 187.981777 
L 1016.259868 188.733823 
L 1016.464487 188.744063 
L 1016.669107 188.492288 
L 1017.078347 187.400359 
L 1017.896825 184.118923 
L 1018.101445 183.800002 
L 1018.510685 183.72869 
L 1018.715304 183.765216 
L 1018.919924 183.977618 
L 1019.943023 186.01626 
L 1020.147642 186.266743 
L 1020.352262 186.312167 
L 1020.556882 186.022248 
L 1021.579981 183.346096 
L 1021.7846 183.383307 
L 1021.98922 183.585928 
L 1022.19384 183.981537 
L 1022.603079 185.652621 
L 1023.216938 189.073825 
L 1023.626178 190.122092 
L 1024.035417 190.490181 
L 1024.240037 190.384128 
L 1025.058516 189.22173 
L 1025.467755 188.542643 
L 1026.081615 187.338569 
L 1026.286234 187.369251 
L 1026.490854 187.815939 
L 1027.104713 190.410795 
L 1027.718572 192.633728 
L 1028.741671 194.566034 
L 1029.76477 194.81371 
L 1030.174009 194.201754 
L 1030.583248 193.151502 
L 1030.992488 191.425287 
L 1031.606347 188.46188 
L 1032.220206 186.736508 
L 1032.424826 186.610691 
L 1032.629446 186.814384 
L 1033.038685 187.492738 
L 1033.652544 187.865982 
L 1034.266404 188.676063 
L 1034.471023 188.764752 
L 1034.675643 188.626468 
L 1035.084882 187.506984 
L 1035.494122 186.394138 
L 1035.698742 186.156097 
L 1035.903361 186.170957 
L 1036.72184 187.183665 
L 1036.92646 187.459495 
L 1037.335699 188.831149 
L 1038.154178 192.727522 
L 1038.358798 192.956993 
L 1038.563418 192.738255 
L 1039.995756 189.451839 
L 1040.609615 188.856976 
L 1041.018855 188.0575 
L 1041.428094 187.030629 
L 1041.632714 186.798377 
L 1041.837333 186.801285 
L 1042.041953 186.98989 
L 1042.860432 188.329239 
L 1043.065052 188.26038 
L 1043.678911 187.475529 
L 1043.883531 187.498385 
L 1044.29277 188.38322 
L 1044.906629 189.577064 
L 1045.111249 189.742214 
L 1045.315869 189.617757 
L 1045.929728 188.632123 
L 1046.338967 188.429901 
L 1046.543587 188.505303 
L 1046.952827 189.135054 
L 1047.362066 189.732281 
L 1047.566686 189.709431 
L 1047.975925 189.107264 
L 1050.022123 185.70366 
L 1050.226742 185.821881 
L 1050.635982 186.518592 
L 1051.045221 188.034478 
L 1052.06832 192.686184 
L 1052.27294 193.187662 
L 1052.477559 193.190241 
L 1052.682179 192.694031 
L 1053.500658 189.432302 
L 1053.705278 189.111254 
L 1053.909897 189.00764 
L 1054.114517 189.139055 
L 1054.319137 189.615998 
L 1055.137616 192.77782 
L 1055.342235 192.823443 
L 1055.956095 192.288777 
L 1056.160714 192.278264 
L 1056.365334 192.107444 
L 1056.979193 190.920612 
L 1058.002292 190.332656 
L 1058.206912 190.428264 
L 1058.616151 191.051878 
L 1059.025391 191.926942 
L 1059.43463 192.958051 
L 1059.63925 193.160494 
L 1059.843869 193.045825 
L 1060.866968 191.466936 
L 1061.276208 191.159843 
L 1061.890067 190.452228 
L 1062.708546 190.082133 
L 1063.527025 189.318987 
L 1064.140884 189.628979 
L 1064.550123 189.67384 
L 1065.573222 189.22656 
L 1065.982461 189.263263 
L 1066.59632 189.702585 
L 1066.80094 189.590498 
L 1067.21018 188.879706 
L 1067.619419 188.024483 
L 1068.028658 187.752069 
L 1068.437898 187.740932 
L 1068.642518 187.601299 
L 1069.256377 186.59059 
L 1069.870236 185.116386 
L 1070.279475 184.354749 
L 1070.484095 184.476578 
L 1070.893335 185.689025 
L 1071.302574 187.022504 
L 1071.711814 187.564181 
L 1071.916433 187.757412 
L 1072.121053 188.117409 
L 1072.530292 189.521015 
L 1073.553391 194.464393 
L 1073.758011 194.348974 
L 1074.37187 192.691091 
L 1074.57649 192.549914 
L 1074.985729 192.561012 
L 1075.394969 192.308394 
L 1075.804208 191.743955 
L 1076.213448 190.525635 
L 1077.031926 187.093253 
L 1077.236546 186.964905 
L 1077.441166 187.253407 
L 1077.850405 188.165216 
L 1078.055025 188.370004 
L 1078.464265 188.350252 
L 1078.668884 188.600076 
L 1079.691983 191.271825 
L 1080.510462 192.17824 
L 1080.715082 192.137419 
L 1081.124321 191.442599 
L 1081.73818 190.124306 
L 1082.14742 189.071881 
L 1082.556659 188.68864 
L 1083.170518 188.373912 
L 1083.784377 187.942639 
L 1084.193617 187.979646 
L 1085.421335 188.542585 
L 1085.625955 188.548004 
L 1085.830575 188.362848 
L 1086.239814 187.192818 
L 1086.853673 185.139919 
L 1087.058293 184.982576 
L 1087.262913 185.217318 
L 1087.672152 186.511161 
L 1088.695251 190.539781 
L 1089.10449 190.983223 
L 1089.71835 191.31763 
L 1090.127589 191.545539 
L 1090.741448 191.009347 
L 1091.150688 190.936237 
L 1091.355307 190.633021 
L 1092.378406 187.842952 
L 1092.992265 187.345166 
L 1093.401505 187.378447 
L 1093.810744 187.402232 
L 1094.424603 187.054958 
L 1094.629223 187.135738 
L 1095.038462 187.776683 
L 1096.061561 190.220524 
L 1096.266181 190.419948 
L 1096.470801 190.341117 
L 1096.88004 189.570463 
L 1099.130857 184.843331 
L 1099.540096 184.574201 
L 1099.744716 184.707738 
L 1099.949336 185.081305 
L 1100.358575 186.504642 
L 1100.972435 188.952334 
L 1101.177054 189.179744 
L 1101.586294 189.235661 
L 1101.995533 189.825612 
L 1102.609392 190.679316 
L 1103.223252 191.266518 
L 1103.427871 191.419207 
L 1103.632491 191.760967 
L 1104.04173 193.321848 
L 1104.45097 194.766609 
L 1104.65559 194.63595 
L 1105.064829 192.73547 
L 1105.474068 190.845317 
L 1105.678688 190.603327 
L 1106.087928 191.091071 
L 1106.497167 191.458629 
L 1106.701787 191.248269 
L 1107.111026 189.495924 
L 1107.520266 187.643275 
L 1107.929505 186.993981 
L 1108.134125 186.999913 
L 1108.338745 187.319564 
L 1109.361843 190.19472 
L 1109.566463 190.383127 
L 1109.975702 190.307265 
L 1110.180322 190.233469 
L 1110.384942 190.301148 
L 1111.203421 191.374901 
L 1111.408041 191.160153 
L 1111.81728 190.440948 
L 1112.0219 190.268194 
L 1112.226519 190.27225 
L 1112.431139 190.42396 
L 1112.840379 191.164357 
L 1113.454238 192.281772 
L 1113.863477 192.582602 
L 1114.068097 192.544208 
L 1114.681956 192.195872 
L 1115.091196 192.409833 
L 1115.500435 192.743444 
L 1115.705055 192.743821 
L 1115.909675 192.567703 
L 1117.342013 190.315395 
L 1117.955872 189.921389 
L 1118.160492 189.366696 
L 1118.774351 186.778969 
L 1119.18359 186.201769 
L 1119.797449 185.83935 
L 1120.206689 186.059514 
L 1120.411309 186.180899 
L 1120.615928 186.117503 
L 1121.229787 185.382752 
L 1121.434407 185.510422 
L 1121.843647 186.060054 
L 1122.048266 186.174316 
L 1122.457506 186.038353 
L 1123.071365 185.554693 
L 1123.275985 185.62104 
L 1123.685224 186.508217 
L 1124.094464 187.530646 
L 1124.299083 187.771164 
L 1124.708323 187.787165 
L 1124.912943 187.761818 
L 1125.731421 188.120446 
L 1126.345281 187.881669 
L 1126.5499 187.940863 
L 1126.95914 188.401604 
L 1127.572999 189.141886 
L 1128.391478 189.938628 
L 1129.209957 191.593957 
L 1129.823816 192.108594 
L 1130.233055 192.753272 
L 1130.437675 192.806188 
L 1130.846915 192.165598 
L 1131.256154 191.416063 
L 1131.665394 191.054039 
L 1131.870013 191.095806 
L 1132.688492 192.039033 
L 1132.893112 191.763299 
L 1133.506971 190.278788 
L 1134.32545 189.239549 
L 1134.734689 189.102735 
L 1135.143929 189.305568 
L 1135.553168 189.787362 
L 1136.167028 190.997374 
L 1136.371647 191.023076 
L 1137.394746 189.884107 
L 1137.599366 189.934492 
L 1138.008605 190.532321 
L 1139.440943 192.883629 
L 1139.645563 192.826502 
L 1140.054802 191.990102 
L 1140.668662 190.18422 
L 1140.873281 190.025179 
L 1141.077901 190.1693 
L 1141.48714 191.007509 
L 1142.510239 193.922466 
L 1142.714859 193.970303 
L 1142.919478 193.76353 
L 1143.737957 192.13409 
L 1143.942577 192.054344 
L 1144.147197 192.192016 
L 1145.579535 194.14955 
L 1145.784155 194.334193 
L 1145.988774 194.277131 
L 1146.602634 193.65438 
L 1147.216493 193.759303 
L 1147.830352 193.860904 
L 1148.239591 193.853785 
L 1148.853451 193.499454 
L 1149.26269 193.493228 
L 1149.46731 193.188642 
L 1150.285789 191.095802 
L 1150.490408 191.033197 
L 1150.695028 191.11807 
L 1151.104268 191.629707 
L 1151.513507 192.322595 
L 1151.718127 192.447558 
L 1151.922746 192.228802 
L 1152.741225 190.322274 
L 1152.945845 190.209371 
L 1153.355085 190.421904 
L 1153.559704 190.305715 
L 1153.968944 189.559173 
L 1154.173563 189.534317 
L 1154.582803 190.408279 
L 1155.196662 191.602996 
L 1155.605902 191.893294 
L 1155.810521 191.756974 
L 1156.219761 191.031819 
L 1156.83362 189.410207 
L 1157.856719 185.860164 
L 1158.061338 185.863119 
L 1158.470578 186.392622 
L 1159.084437 187.232503 
L 1159.289057 187.488496 
L 1159.698296 188.650027 
L 1160.312155 190.967315 
L 1160.516775 191.13796 
L 1160.926014 190.535226 
L 1161.335254 190.064855 
L 1161.949113 189.439375 
L 1162.358353 188.749729 
L 1163.790691 184.568258 
L 1163.99531 184.474192 
L 1164.40455 184.932899 
L 1165.223029 186.345813 
L 1165.427648 186.294122 
L 1165.836888 186.05767 
L 1166.246127 186.532606 
L 1166.655367 186.952466 
L 1167.064606 187.401651 
L 1168.292325 189.710428 
L 1168.496944 189.868894 
L 1168.701564 189.623791 
L 1169.315423 188.083058 
L 1169.520043 188.104007 
L 1170.747761 190.092192 
L 1170.952381 190.240517 
L 1171.157001 190.14784 
L 1171.56624 189.140237 
L 1171.97548 187.908081 
L 1172.180099 187.608988 
L 1172.384719 187.590206 
L 1172.793959 188.126482 
L 1173.407818 189.095636 
L 1173.612438 189.322383 
L 1173.817057 189.72223 
L 1174.226297 191.295414 
L 1175.249395 195.713408 
L 1175.454015 195.734736 
L 1175.658635 195.280143 
L 1176.067874 193.40387 
L 1176.477114 191.420866 
L 1176.886353 190.359459 
L 1177.295593 189.863284 
L 1177.704832 189.889691 
L 1178.114072 190.319954 
L 1179.13717 192.023759 
L 1179.34179 191.811021 
L 1180.160269 189.812292 
L 1180.364889 189.772093 
L 1180.774128 190.233879 
L 1181.183367 190.679023 
L 1181.592607 190.736203 
L 1182.001846 190.405573 
L 1182.411086 190.052624 
L 1182.820325 189.829373 
L 1183.229565 189.115595 
L 1183.843424 187.278459 
L 1184.661903 184.715043 
L 1184.866522 184.480989 
L 1184.866522 184.480989 
" clip-path="url(#p4292a670aa)" style="fill: none; stroke: #000000; stroke-width: 2; stroke-linecap: square"/>
   </g>
   <g id="patch_3">
    <path d="M 3.00024 198.907885 
L 1184.99976 198.907885 
" style="fill: none; stroke: #000000; stroke-width: 2; stroke-linejoin: miter; stroke-linecap: square"/>
   </g>
  </g>
 </g>
 <defs>
  <clipPath id="p4292a670aa">
   <rect x="3.00024" y="3.00024" width="1181.99952" height="195.907645"/>
  </clipPath>
 </defs>
</svg>
