<?xml version="1.0" encoding="utf-8" standalone="no"?>
<!DOCTYPE svg PUBLIC "-//W3C//DTD SVG 1.1//EN"
  "http://www.w3.org/Graphics/SVG/1.1/DTD/svg11.dtd">
<svg xmlns:xlink="http://www.w3.org/1999/xlink" width="1188pt" height="252pt" viewBox="0 0 1188 252" xmlns="http://www.w3.org/2000/svg" version="1.1">
 <metadata>
  <rdf:RDF xmlns:dc="http://purl.org/dc/elements/1.1/" xmlns:cc="http://creativecommons.org/ns#" xmlns:rdf="http://www.w3.org/1999/02/22-rdf-syntax-ns#">
   <cc:Work>
    <dc:type rdf:resource="http://purl.org/dc/dcmitype/StillImage"/>
    <dc:date>2024-06-17T22:42:38.796830</dc:date>
    <dc:format>image/svg+xml</dc:format>
    <dc:creator>
     <cc:Agent>
      <dc:title>Matplotlib v3.8.4, https://matplotlib.org/</dc:title>
     </cc:Agent>
    </dc:creator>
   </cc:Work>
  </rdf:RDF>
 </metadata>
 <defs>
  <style type="text/css">*{stroke-linejoin: round; stroke-linecap: butt}</style>
 </defs>
 <g id="figure_1">
  <g id="patch_1">
   <path d="M 0 252 
L 1188 252 
L 1188 0 
L 0 0 
z
" style="fill: #ffffff"/>
  </g>
  <g id="axes_1">
   <g id="patch_2">
    <path d="M 3.00024 198.907885 
L 1184.99976 198.907885 
L 1184.99976 3.00024 
L 3.00024 3.00024 
z
" style="fill: #ffffff"/>
   </g>
   <g id="matplotlib.axis_1">
    <g id="xtick_1">
     <g id="line2d_1">
      <defs>
       <path id="mf1aa6e6e08" d="M 0 0 
L 0 8 
" style="stroke: #000000; stroke-width: 2"/>
      </defs>
      <g>
       <use xlink:href="#mf1aa6e6e08" x="1131.272509" y="198.907885" style="stroke: #000000; stroke-width: 2"/>
      </g>
     </g>
     <g id="text_1">
      <!-- 0 -->
      <g transform="translate(1126.267665 224.791947) scale(0.18 -0.18)">
       <defs>
        <path id="Arial-BoldMT-30" d="M 1756 4600 
Q 2422 4600 2797 4125 
Q 3244 3563 3244 2259 
Q 3244 959 2794 391 
Q 2422 -78 1756 -78 
Q 1088 -78 678 436 
Q 269 950 269 2269 
Q 269 3563 719 4131 
Q 1091 4600 1756 4600 
z
M 1756 3872 
Q 1597 3872 1472 3770 
Q 1347 3669 1278 3406 
Q 1188 3066 1188 2259 
Q 1188 1453 1269 1151 
Q 1350 850 1473 750 
Q 1597 650 1756 650 
Q 1916 650 2041 751 
Q 2166 853 2234 1116 
Q 2325 1453 2325 2259 
Q 2325 3066 2244 3367 
Q 2163 3669 2039 3770 
Q 1916 3872 1756 3872 
z
" transform="scale(0.015625)"/>
       </defs>
       <use xlink:href="#Arial-BoldMT-30"/>
      </g>
     </g>
    </g>
    <g id="xtick_2">
     <g id="line2d_2">
      <g>
       <use xlink:href="#mf1aa6e6e08" x="1023.818007" y="198.907885" style="stroke: #000000; stroke-width: 2"/>
      </g>
     </g>
     <g id="text_2">
      <!-- 1 -->
      <g transform="translate(1018.813164 224.791947) scale(0.18 -0.18)">
       <defs>
        <path id="Arial-BoldMT-31" d="M 2519 0 
L 1641 0 
L 1641 3309 
Q 1159 2859 506 2644 
L 506 3441 
Q 850 3553 1253 3867 
Q 1656 4181 1806 4600 
L 2519 4600 
L 2519 0 
z
" transform="scale(0.015625)"/>
       </defs>
       <use xlink:href="#Arial-BoldMT-31"/>
      </g>
     </g>
    </g>
    <g id="xtick_3">
     <g id="line2d_3">
      <g>
       <use xlink:href="#mf1aa6e6e08" x="916.363505" y="198.907885" style="stroke: #000000; stroke-width: 2"/>
      </g>
     </g>
     <g id="text_3">
      <!-- 2 -->
      <g transform="translate(911.358662 224.791947) scale(0.18 -0.18)">
       <defs>
        <path id="Arial-BoldMT-32" d="M 3238 816 
L 3238 0 
L 159 0 
Q 209 463 459 877 
Q 709 1291 1447 1975 
Q 2041 2528 2175 2725 
Q 2356 2997 2356 3263 
Q 2356 3556 2198 3714 
Q 2041 3872 1763 3872 
Q 1488 3872 1325 3706 
Q 1163 3541 1138 3156 
L 263 3244 
Q 341 3969 753 4284 
Q 1166 4600 1784 4600 
Q 2463 4600 2850 4234 
Q 3238 3869 3238 3325 
Q 3238 3016 3127 2736 
Q 3016 2456 2775 2150 
Q 2616 1947 2200 1565 
Q 1784 1184 1673 1059 
Q 1563 934 1494 816 
L 3238 816 
z
" transform="scale(0.015625)"/>
       </defs>
       <use xlink:href="#Arial-BoldMT-32"/>
      </g>
     </g>
    </g>
    <g id="xtick_4">
     <g id="line2d_4">
      <g>
       <use xlink:href="#mf1aa6e6e08" x="808.909004" y="198.907885" style="stroke: #000000; stroke-width: 2"/>
      </g>
     </g>
     <g id="text_4">
      <!-- 3 -->
      <g transform="translate(803.90416 224.791947) scale(0.18 -0.18)">
       <defs>
        <path id="Arial-BoldMT-33" d="M 241 1216 
L 1091 1319 
Q 1131 994 1309 822 
Q 1488 650 1741 650 
Q 2013 650 2198 856 
Q 2384 1063 2384 1413 
Q 2384 1744 2206 1937 
Q 2028 2131 1772 2131 
Q 1603 2131 1369 2066 
L 1466 2781 
Q 1822 2772 2009 2936 
Q 2197 3100 2197 3372 
Q 2197 3603 2059 3740 
Q 1922 3878 1694 3878 
Q 1469 3878 1309 3722 
Q 1150 3566 1116 3266 
L 306 3403 
Q 391 3819 561 4067 
Q 731 4316 1036 4458 
Q 1341 4600 1719 4600 
Q 2366 4600 2756 4188 
Q 3078 3850 3078 3425 
Q 3078 2822 2419 2463 
Q 2813 2378 3048 2084 
Q 3284 1791 3284 1375 
Q 3284 772 2843 347 
Q 2403 -78 1747 -78 
Q 1125 -78 715 280 
Q 306 638 241 1216 
z
" transform="scale(0.015625)"/>
       </defs>
       <use xlink:href="#Arial-BoldMT-33"/>
      </g>
     </g>
    </g>
    <g id="xtick_5">
     <g id="line2d_5">
      <g>
       <use xlink:href="#mf1aa6e6e08" x="701.454502" y="198.907885" style="stroke: #000000; stroke-width: 2"/>
      </g>
     </g>
     <g id="text_5">
      <!-- 4 -->
      <g transform="translate(696.449658 224.791947) scale(0.18 -0.18)">
       <defs>
        <path id="Arial-BoldMT-34" d="M 1994 0 
L 1994 922 
L 119 922 
L 119 1691 
L 2106 4600 
L 2844 4600 
L 2844 1694 
L 3413 1694 
L 3413 922 
L 2844 922 
L 2844 0 
L 1994 0 
z
M 1994 1694 
L 1994 3259 
L 941 1694 
L 1994 1694 
z
" transform="scale(0.015625)"/>
       </defs>
       <use xlink:href="#Arial-BoldMT-34"/>
      </g>
     </g>
    </g>
    <g id="xtick_6">
     <g id="line2d_6">
      <g>
       <use xlink:href="#mf1aa6e6e08" x="594" y="198.907885" style="stroke: #000000; stroke-width: 2"/>
      </g>
     </g>
     <g id="text_6">
      <!-- 5 -->
      <g transform="translate(588.995156 224.791947) scale(0.18 -0.18)">
       <defs>
        <path id="Arial-BoldMT-35" d="M 284 1178 
L 1159 1269 
Q 1197 972 1381 798 
Q 1566 625 1806 625 
Q 2081 625 2272 848 
Q 2463 1072 2463 1522 
Q 2463 1944 2273 2155 
Q 2084 2366 1781 2366 
Q 1403 2366 1103 2031 
L 391 2134 
L 841 4519 
L 3163 4519 
L 3163 3697 
L 1506 3697 
L 1369 2919 
Q 1663 3066 1969 3066 
Q 2553 3066 2959 2641 
Q 3366 2216 3366 1538 
Q 3366 972 3038 528 
Q 2591 -78 1797 -78 
Q 1163 -78 763 262 
Q 363 603 284 1178 
z
" transform="scale(0.015625)"/>
       </defs>
       <use xlink:href="#Arial-BoldMT-35"/>
      </g>
     </g>
    </g>
    <g id="xtick_7">
     <g id="line2d_7">
      <g>
       <use xlink:href="#mf1aa6e6e08" x="486.545498" y="198.907885" style="stroke: #000000; stroke-width: 2"/>
      </g>
     </g>
     <g id="text_7">
      <!-- 6 -->
      <g transform="translate(481.540654 224.791947) scale(0.18 -0.18)">
       <defs>
        <path id="Arial-BoldMT-36" d="M 3247 3459 
L 2397 3366 
Q 2366 3628 2234 3753 
Q 2103 3878 1894 3878 
Q 1616 3878 1423 3628 
Q 1231 3378 1181 2588 
Q 1509 2975 1997 2975 
Q 2547 2975 2939 2556 
Q 3331 2138 3331 1475 
Q 3331 772 2918 347 
Q 2506 -78 1859 -78 
Q 1166 -78 719 461 
Q 272 1000 272 2228 
Q 272 3488 737 4044 
Q 1203 4600 1947 4600 
Q 2469 4600 2811 4308 
Q 3153 4016 3247 3459 
z
M 1256 1544 
Q 1256 1116 1453 883 
Q 1650 650 1903 650 
Q 2147 650 2309 840 
Q 2472 1031 2472 1466 
Q 2472 1913 2297 2120 
Q 2122 2328 1859 2328 
Q 1606 2328 1431 2129 
Q 1256 1931 1256 1544 
z
" transform="scale(0.015625)"/>
       </defs>
       <use xlink:href="#Arial-BoldMT-36"/>
      </g>
     </g>
    </g>
    <g id="xtick_8">
     <g id="line2d_8">
      <g>
       <use xlink:href="#mf1aa6e6e08" x="379.090996" y="198.907885" style="stroke: #000000; stroke-width: 2"/>
      </g>
     </g>
     <g id="text_8">
      <!-- 7 -->
      <g transform="translate(374.086153 224.791947) scale(0.18 -0.18)">
       <defs>
        <path id="Arial-BoldMT-37" d="M 272 3703 
L 272 4519 
L 3275 4519 
L 3275 3881 
Q 2903 3516 2518 2831 
Q 2134 2147 1932 1376 
Q 1731 606 1734 0 
L 888 0 
Q 909 950 1279 1937 
Q 1650 2925 2269 3703 
L 272 3703 
z
" transform="scale(0.015625)"/>
       </defs>
       <use xlink:href="#Arial-BoldMT-37"/>
      </g>
     </g>
    </g>
    <g id="xtick_9">
     <g id="line2d_9">
      <g>
       <use xlink:href="#mf1aa6e6e08" x="271.636495" y="198.907885" style="stroke: #000000; stroke-width: 2"/>
      </g>
     </g>
     <g id="text_9">
      <!-- 8 -->
      <g transform="translate(266.631651 224.791947) scale(0.18 -0.18)">
       <defs>
        <path id="Arial-BoldMT-38" d="M 1025 2472 
Q 684 2616 529 2867 
Q 375 3119 375 3419 
Q 375 3931 733 4265 
Q 1091 4600 1750 4600 
Q 2403 4600 2764 4265 
Q 3125 3931 3125 3419 
Q 3125 3100 2959 2851 
Q 2794 2603 2494 2472 
Q 2875 2319 3073 2025 
Q 3272 1731 3272 1347 
Q 3272 713 2867 316 
Q 2463 -81 1791 -81 
Q 1166 -81 750 247 
Q 259 634 259 1309 
Q 259 1681 443 1992 
Q 628 2303 1025 2472 
z
M 1206 3356 
Q 1206 3094 1354 2947 
Q 1503 2800 1750 2800 
Q 2000 2800 2150 2948 
Q 2300 3097 2300 3359 
Q 2300 3606 2151 3754 
Q 2003 3903 1759 3903 
Q 1506 3903 1356 3753 
Q 1206 3603 1206 3356 
z
M 1125 1394 
Q 1125 1031 1311 828 
Q 1497 625 1775 625 
Q 2047 625 2225 820 
Q 2403 1016 2403 1384 
Q 2403 1706 2222 1901 
Q 2041 2097 1763 2097 
Q 1441 2097 1283 1875 
Q 1125 1653 1125 1394 
z
" transform="scale(0.015625)"/>
       </defs>
       <use xlink:href="#Arial-BoldMT-38"/>
      </g>
     </g>
    </g>
    <g id="xtick_10">
     <g id="line2d_10">
      <g>
       <use xlink:href="#mf1aa6e6e08" x="164.181993" y="198.907885" style="stroke: #000000; stroke-width: 2"/>
      </g>
     </g>
     <g id="text_10">
      <!-- 9 -->
      <g transform="translate(159.177149 224.791947) scale(0.18 -0.18)">
       <defs>
        <path id="Arial-BoldMT-39" d="M 291 1059 
L 1141 1153 
Q 1172 894 1303 769 
Q 1434 644 1650 644 
Q 1922 644 2112 894 
Q 2303 1144 2356 1931 
Q 2025 1547 1528 1547 
Q 988 1547 595 1964 
Q 203 2381 203 3050 
Q 203 3747 617 4173 
Q 1031 4600 1672 4600 
Q 2369 4600 2816 4061 
Q 3263 3522 3263 2288 
Q 3263 1031 2797 475 
Q 2331 -81 1584 -81 
Q 1047 -81 715 205 
Q 384 491 291 1059 
z
M 2278 2978 
Q 2278 3403 2083 3637 
Q 1888 3872 1631 3872 
Q 1388 3872 1227 3680 
Q 1066 3488 1066 3050 
Q 1066 2606 1241 2398 
Q 1416 2191 1678 2191 
Q 1931 2191 2104 2391 
Q 2278 2591 2278 2978 
z
" transform="scale(0.015625)"/>
       </defs>
       <use xlink:href="#Arial-BoldMT-39"/>
      </g>
     </g>
    </g>
    <g id="xtick_11">
     <g id="line2d_11">
      <g>
       <use xlink:href="#mf1aa6e6e08" x="56.727491" y="198.907885" style="stroke: #000000; stroke-width: 2"/>
      </g>
     </g>
     <g id="text_11">
      <!-- 10 -->
      <g transform="translate(46.717803 224.791947) scale(0.18 -0.18)">
       <use xlink:href="#Arial-BoldMT-31"/>
       <use xlink:href="#Arial-BoldMT-30" x="55.615234"/>
      </g>
     </g>
    </g>
    <g id="text_12">
     <!-- Chemical Shift / ppm -->
     <g transform="translate(504.992813 245.447573) scale(0.18 -0.18)">
      <defs>
       <path id="Arial-BoldMT-43" d="M 3397 1684 
L 4294 1400 
Q 4088 650 3608 286 
Q 3128 -78 2391 -78 
Q 1478 -78 890 545 
Q 303 1169 303 2250 
Q 303 3394 893 4026 
Q 1484 4659 2447 4659 
Q 3288 4659 3813 4163 
Q 4125 3869 4281 3319 
L 3366 3100 
Q 3284 3456 3026 3662 
Q 2769 3869 2400 3869 
Q 1891 3869 1573 3503 
Q 1256 3138 1256 2319 
Q 1256 1450 1568 1081 
Q 1881 713 2381 713 
Q 2750 713 3015 947 
Q 3281 1181 3397 1684 
z
" transform="scale(0.015625)"/>
       <path id="Arial-BoldMT-68" d="M 1334 4581 
L 1334 2897 
Q 1759 3394 2350 3394 
Q 2653 3394 2897 3281 
Q 3141 3169 3264 2994 
Q 3388 2819 3433 2606 
Q 3478 2394 3478 1947 
L 3478 0 
L 2600 0 
L 2600 1753 
Q 2600 2275 2550 2415 
Q 2500 2556 2373 2639 
Q 2247 2722 2056 2722 
Q 1838 2722 1666 2615 
Q 1494 2509 1414 2295 
Q 1334 2081 1334 1663 
L 1334 0 
L 456 0 
L 456 4581 
L 1334 4581 
z
" transform="scale(0.015625)"/>
       <path id="Arial-BoldMT-65" d="M 2381 1056 
L 3256 909 
Q 3088 428 2723 176 
Q 2359 -75 1813 -75 
Q 947 -75 531 491 
Q 203 944 203 1634 
Q 203 2459 634 2926 
Q 1066 3394 1725 3394 
Q 2466 3394 2894 2905 
Q 3322 2416 3303 1406 
L 1103 1406 
Q 1113 1016 1316 798 
Q 1519 581 1822 581 
Q 2028 581 2168 693 
Q 2309 806 2381 1056 
z
M 2431 1944 
Q 2422 2325 2234 2523 
Q 2047 2722 1778 2722 
Q 1491 2722 1303 2513 
Q 1116 2303 1119 1944 
L 2431 1944 
z
" transform="scale(0.015625)"/>
       <path id="Arial-BoldMT-6d" d="M 394 3319 
L 1203 3319 
L 1203 2866 
Q 1638 3394 2238 3394 
Q 2556 3394 2790 3262 
Q 3025 3131 3175 2866 
Q 3394 3131 3647 3262 
Q 3900 3394 4188 3394 
Q 4553 3394 4806 3245 
Q 5059 3097 5184 2809 
Q 5275 2597 5275 2122 
L 5275 0 
L 4397 0 
L 4397 1897 
Q 4397 2391 4306 2534 
Q 4184 2722 3931 2722 
Q 3747 2722 3584 2609 
Q 3422 2497 3350 2280 
Q 3278 2063 3278 1594 
L 3278 0 
L 2400 0 
L 2400 1819 
Q 2400 2303 2353 2443 
Q 2306 2584 2207 2653 
Q 2109 2722 1941 2722 
Q 1738 2722 1575 2612 
Q 1413 2503 1342 2297 
Q 1272 2091 1272 1613 
L 1272 0 
L 394 0 
L 394 3319 
z
" transform="scale(0.015625)"/>
       <path id="Arial-BoldMT-69" d="M 459 3769 
L 459 4581 
L 1338 4581 
L 1338 3769 
L 459 3769 
z
M 459 0 
L 459 3319 
L 1338 3319 
L 1338 0 
L 459 0 
z
" transform="scale(0.015625)"/>
       <path id="Arial-BoldMT-63" d="M 3353 2338 
L 2488 2181 
Q 2444 2441 2289 2572 
Q 2134 2703 1888 2703 
Q 1559 2703 1364 2476 
Q 1169 2250 1169 1719 
Q 1169 1128 1367 884 
Q 1566 641 1900 641 
Q 2150 641 2309 783 
Q 2469 925 2534 1272 
L 3397 1125 
Q 3263 531 2881 228 
Q 2500 -75 1859 -75 
Q 1131 -75 698 384 
Q 266 844 266 1656 
Q 266 2478 700 2936 
Q 1134 3394 1875 3394 
Q 2481 3394 2839 3133 
Q 3197 2872 3353 2338 
z
" transform="scale(0.015625)"/>
       <path id="Arial-BoldMT-61" d="M 1116 2306 
L 319 2450 
Q 453 2931 781 3162 
Q 1109 3394 1756 3394 
Q 2344 3394 2631 3255 
Q 2919 3116 3036 2902 
Q 3153 2688 3153 2116 
L 3144 1091 
Q 3144 653 3186 445 
Q 3228 238 3344 0 
L 2475 0 
Q 2441 88 2391 259 
Q 2369 338 2359 363 
Q 2134 144 1878 34 
Q 1622 -75 1331 -75 
Q 819 -75 523 203 
Q 228 481 228 906 
Q 228 1188 362 1408 
Q 497 1628 739 1745 
Q 981 1863 1438 1950 
Q 2053 2066 2291 2166 
L 2291 2253 
Q 2291 2506 2166 2614 
Q 2041 2722 1694 2722 
Q 1459 2722 1328 2630 
Q 1197 2538 1116 2306 
z
M 2291 1594 
Q 2122 1538 1756 1459 
Q 1391 1381 1278 1306 
Q 1106 1184 1106 997 
Q 1106 813 1243 678 
Q 1381 544 1594 544 
Q 1831 544 2047 700 
Q 2206 819 2256 991 
Q 2291 1103 2291 1419 
L 2291 1594 
z
" transform="scale(0.015625)"/>
       <path id="Arial-BoldMT-6c" d="M 459 0 
L 459 4581 
L 1338 4581 
L 1338 0 
L 459 0 
z
" transform="scale(0.015625)"/>
       <path id="Arial-BoldMT-20" transform="scale(0.015625)"/>
       <path id="Arial-BoldMT-53" d="M 231 1491 
L 1131 1578 
Q 1213 1125 1461 912 
Q 1709 700 2131 700 
Q 2578 700 2804 889 
Q 3031 1078 3031 1331 
Q 3031 1494 2936 1608 
Q 2841 1722 2603 1806 
Q 2441 1863 1863 2006 
Q 1119 2191 819 2459 
Q 397 2838 397 3381 
Q 397 3731 595 4036 
Q 794 4341 1167 4500 
Q 1541 4659 2069 4659 
Q 2931 4659 3367 4281 
Q 3803 3903 3825 3272 
L 2900 3231 
Q 2841 3584 2645 3739 
Q 2450 3894 2059 3894 
Q 1656 3894 1428 3728 
Q 1281 3622 1281 3444 
Q 1281 3281 1419 3166 
Q 1594 3019 2269 2859 
Q 2944 2700 3267 2529 
Q 3591 2359 3773 2064 
Q 3956 1769 3956 1334 
Q 3956 941 3737 597 
Q 3519 253 3119 86 
Q 2719 -81 2122 -81 
Q 1253 -81 787 320 
Q 322 722 231 1491 
z
" transform="scale(0.015625)"/>
       <path id="Arial-BoldMT-66" d="M 75 3319 
L 563 3319 
L 563 3569 
Q 563 3988 652 4194 
Q 741 4400 980 4529 
Q 1219 4659 1584 4659 
Q 1959 4659 2319 4547 
L 2200 3934 
Q 1991 3984 1797 3984 
Q 1606 3984 1523 3895 
Q 1441 3806 1441 3553 
L 1441 3319 
L 2097 3319 
L 2097 2628 
L 1441 2628 
L 1441 0 
L 563 0 
L 563 2628 
L 75 2628 
L 75 3319 
z
" transform="scale(0.015625)"/>
       <path id="Arial-BoldMT-74" d="M 1981 3319 
L 1981 2619 
L 1381 2619 
L 1381 1281 
Q 1381 875 1398 808 
Q 1416 741 1477 697 
Q 1538 653 1625 653 
Q 1747 653 1978 738 
L 2053 56 
Q 1747 -75 1359 -75 
Q 1122 -75 931 4 
Q 741 84 652 211 
Q 563 338 528 553 
Q 500 706 500 1172 
L 500 2619 
L 97 2619 
L 97 3319 
L 500 3319 
L 500 3978 
L 1381 4491 
L 1381 3319 
L 1981 3319 
z
" transform="scale(0.015625)"/>
       <path id="Arial-BoldMT-2f" d="M -9 -78 
L 1125 4659 
L 1784 4659 
L 638 -78 
L -9 -78 
z
" transform="scale(0.015625)"/>
       <path id="Arial-BoldMT-70" d="M 434 3319 
L 1253 3319 
L 1253 2831 
Q 1413 3081 1684 3237 
Q 1956 3394 2288 3394 
Q 2866 3394 3269 2941 
Q 3672 2488 3672 1678 
Q 3672 847 3265 386 
Q 2859 -75 2281 -75 
Q 2006 -75 1782 34 
Q 1559 144 1313 409 
L 1313 -1263 
L 434 -1263 
L 434 3319 
z
M 1303 1716 
Q 1303 1156 1525 889 
Q 1747 622 2066 622 
Q 2372 622 2575 867 
Q 2778 1113 2778 1672 
Q 2778 2194 2568 2447 
Q 2359 2700 2050 2700 
Q 1728 2700 1515 2451 
Q 1303 2203 1303 1716 
z
" transform="scale(0.015625)"/>
      </defs>
      <use xlink:href="#Arial-BoldMT-43"/>
      <use xlink:href="#Arial-BoldMT-68" x="72.216797"/>
      <use xlink:href="#Arial-BoldMT-65" x="133.300781"/>
      <use xlink:href="#Arial-BoldMT-6d" x="188.916016"/>
      <use xlink:href="#Arial-BoldMT-69" x="277.832031"/>
      <use xlink:href="#Arial-BoldMT-63" x="305.615234"/>
      <use xlink:href="#Arial-BoldMT-61" x="361.230469"/>
      <use xlink:href="#Arial-BoldMT-6c" x="416.845703"/>
      <use xlink:href="#Arial-BoldMT-20" x="444.628906"/>
      <use xlink:href="#Arial-BoldMT-53" x="472.412109"/>
      <use xlink:href="#Arial-BoldMT-68" x="539.111328"/>
      <use xlink:href="#Arial-BoldMT-69" x="600.195312"/>
      <use xlink:href="#Arial-BoldMT-66" x="627.978516"/>
      <use xlink:href="#Arial-BoldMT-74" x="661.279297"/>
      <use xlink:href="#Arial-BoldMT-20" x="694.580078"/>
      <use xlink:href="#Arial-BoldMT-2f" x="722.363281"/>
      <use xlink:href="#Arial-BoldMT-20" x="750.146484"/>
      <use xlink:href="#Arial-BoldMT-70" x="777.929688"/>
      <use xlink:href="#Arial-BoldMT-70" x="839.013672"/>
      <use xlink:href="#Arial-BoldMT-6d" x="900.097656"/>
     </g>
    </g>
   </g>
   <g id="matplotlib.axis_2"/>
   <g id="line2d_12">
    <path d="M 2.955871 190.386811 
L 3.569731 189.349477 
L 3.97897 188.792964 
L 4.388209 188.569476 
L 4.797449 188.708361 
L 5.206688 188.939026 
L 5.615928 188.822946 
L 6.639026 188.089445 
L 7.048266 188.276223 
L 7.662125 189.019907 
L 7.866745 189.079453 
L 8.071365 188.92614 
L 8.685224 188.010469 
L 9.708322 187.80281 
L 9.912942 187.960692 
L 10.322182 188.734601 
L 10.936041 190.09173 
L 11.5499 190.912714 
L 11.959139 191.021841 
L 12.368379 190.73354 
L 13.596097 189.469895 
L 14.209956 189.441417 
L 14.823816 189.701575 
L 15.233055 189.596072 
L 15.437675 189.730505 
L 16.256154 190.808668 
L 17.074633 191.30367 
L 17.893111 192.439024 
L 18.097731 192.505133 
L 18.302351 192.389336 
L 18.71159 191.653295 
L 19.12083 190.778539 
L 19.530069 190.428491 
L 20.143928 190.495695 
L 20.757788 190.558883 
L 21.371647 190.609144 
L 21.780886 190.765059 
L 21.985506 190.718845 
L 22.803985 189.907926 
L 23.213224 189.441367 
L 24.031703 187.838858 
L 24.236323 187.810719 
L 25.054802 188.352198 
L 26.0779 189.208939 
L 26.48714 189.076714 
L 26.896379 189.278799 
L 27.510239 190.086353 
L 27.919478 190.721601 
L 28.124098 190.875887 
L 28.328717 190.839332 
L 28.737957 190.208757 
L 29.147196 189.418298 
L 29.351816 189.248147 
L 29.556436 189.273577 
L 30.374915 189.916593 
L 30.579534 189.797594 
L 30.988774 189.161651 
L 31.807253 187.763229 
L 32.011873 187.649022 
L 32.216492 187.666436 
L 32.625732 188.111362 
L 33.239591 188.99014 
L 33.64883 189.21335 
L 35.081168 190.83474 
L 35.490408 190.766297 
L 36.104267 190.44139 
L 36.718126 189.600684 
L 37.331985 188.88192 
L 37.741225 188.261267 
L 38.559704 186.598235 
L 38.968943 186.349926 
L 39.582802 186.516619 
L 39.992042 186.844166 
L 41.015141 188.595215 
L 41.42438 188.443718 
L 42.652098 187.371574 
L 43.061338 187.277679 
L 43.470577 187.34036 
L 44.084436 187.157674 
L 44.493676 187.453631 
L 46.539873 190.086244 
L 47.562972 190.476995 
L 48.58607 191.31265 
L 48.79069 191.293643 
L 48.99531 191.095293 
L 50.018409 189.255056 
L 50.632268 189.105704 
L 51.246127 188.909089 
L 51.655366 188.45129 
L 52.269226 187.555364 
L 52.473845 187.450993 
L 52.678465 187.58335 
L 53.701564 189.358137 
L 54.315423 189.646152 
L 54.724662 189.852134 
L 55.952381 189.662751 
L 56.77086 188.926769 
L 57.180099 189.47907 
L 57.589338 190.035779 
L 57.793958 190.10694 
L 58.203198 189.839394 
L 58.612437 189.560165 
L 58.817057 189.588437 
L 59.226296 189.96832 
L 59.635536 190.293063 
L 60.044775 190.089647 
L 60.863254 189.703023 
L 61.067874 189.781588 
L 61.681733 190.445641 
L 62.090972 190.320772 
L 62.704832 189.916131 
L 63.318691 189.118216 
L 63.72793 188.317043 
L 64.13717 187.436519 
L 64.341789 187.306245 
L 64.546409 187.408446 
L 65.774127 188.790511 
L 66.592606 189.269989 
L 67.001846 188.875835 
L 67.411085 188.578039 
L 68.024944 188.648684 
L 68.434184 188.360136 
L 69.048043 187.811587 
L 69.457283 187.633171 
L 69.661902 187.638502 
L 69.866522 187.768163 
L 70.071142 188.074884 
L 70.480381 189.334553 
L 71.09424 191.547471 
L 71.29886 191.793548 
L 71.50348 191.718501 
L 71.912719 190.903659 
L 72.321959 190.078682 
L 72.731198 189.867256 
L 72.935818 189.780128 
L 73.345057 189.132109 
L 73.754297 188.283744 
L 74.163536 187.940639 
L 74.572776 188.096906 
L 75.186635 189.010612 
L 76.005114 190.506967 
L 76.414353 191.230823 
L 76.823593 191.369447 
L 77.846691 191.102408 
L 78.255931 190.331333 
L 78.86979 188.691874 
L 79.07441 188.446537 
L 79.279029 188.448279 
L 79.688269 188.905245 
L 81.120607 190.850609 
L 81.325227 190.887587 
L 82.143706 190.312278 
L 82.552945 190.48547 
L 83.985283 191.535502 
L 84.189903 191.546098 
L 84.599142 191.064281 
L 85.826861 188.851569 
L 86.2361 188.204056 
L 86.849959 187.89264 
L 87.259199 187.855552 
L 88.486917 188.565394 
L 88.896157 189.250352 
L 89.305396 190.075988 
L 89.510016 190.285848 
L 89.714636 190.301317 
L 90.123875 189.858793 
L 90.533114 189.334043 
L 90.737734 189.207623 
L 90.942354 189.2499 
L 91.351593 189.837365 
L 91.760833 190.287717 
L 92.170072 190.240883 
L 93.397791 189.776592 
L 93.60241 189.81303 
L 94.01165 190.233554 
L 94.420889 190.549591 
L 94.625509 190.361163 
L 95.239368 189.296459 
L 95.443988 189.286711 
L 96.057847 189.845282 
L 96.467086 189.704413 
L 96.876326 189.358737 
L 97.694805 188.136307 
L 97.899425 188.155309 
L 98.922523 189.053505 
L 99.127143 189.199969 
L 99.536382 190.04821 
L 99.945622 191.115207 
L 100.354861 191.508668 
L 101.991819 191.683991 
L 102.401059 191.07668 
L 102.810298 190.386812 
L 103.219537 190.232009 
L 103.628777 190.43337 
L 104.242636 191.113277 
L 104.447256 191.112071 
L 104.856495 190.644237 
L 105.674974 189.675477 
L 106.084214 189.492335 
L 106.493453 189.685511 
L 107.311932 190.805354 
L 108.130411 191.949728 
L 108.335031 191.960382 
L 108.74427 191.579797 
L 109.562749 190.279314 
L 109.971988 189.66817 
L 110.176608 189.680409 
L 111.608946 191.424799 
L 112.222805 192.399792 
L 112.427425 192.438568 
L 112.632045 192.250155 
L 113.450524 190.74008 
L 113.655144 190.746859 
L 114.064383 191.000294 
L 114.269003 190.995209 
L 114.678242 190.631344 
L 115.905961 189.119466 
L 116.11058 189.141906 
L 117.747538 190.451873 
L 118.156778 190.500636 
L 118.566017 190.140203 
L 119.384496 189.184411 
L 120.407595 187.04135 
L 120.816834 187.209606 
L 121.635313 187.845811 
L 122.249172 188.949571 
L 123.47689 191.473159 
L 123.88613 191.88391 
L 124.09075 191.810994 
L 124.909229 191.086985 
L 125.318468 190.853917 
L 127.364665 188.42127 
L 127.773905 188.252387 
L 128.183144 188.372867 
L 128.592384 188.918303 
L 129.410863 190.426767 
L 129.615482 190.437187 
L 130.024722 190.118293 
L 130.843201 189.083049 
L 131.04782 189.216166 
L 131.66168 190.497485 
L 132.480158 191.95526 
L 133.094018 192.824704 
L 133.503257 192.964808 
L 133.912497 192.638535 
L 134.730975 191.51641 
L 135.140215 191.476674 
L 136.163313 191.671347 
L 136.981792 191.425876 
L 137.391032 190.787135 
L 138.209511 188.788391 
L 138.41413 188.622034 
L 139.232609 188.639837 
L 139.641849 188.650499 
L 140.460328 188.366654 
L 141.074187 188.56599 
L 141.688046 188.461941 
L 142.097286 187.916778 
L 142.506525 187.319105 
L 142.711145 187.227891 
L 143.120384 187.538582 
L 143.529624 187.854357 
L 143.938863 188.141786 
L 144.552722 188.762395 
L 144.961962 188.982886 
L 145.371201 189.703136 
L 145.780441 190.453724 
L 146.3943 190.974002 
L 146.803539 191.886257 
L 147.008159 192.38521 
L 147.212779 192.582198 
L 147.417398 192.3732 
L 148.031258 191.090143 
L 148.645117 190.703718 
L 149.054356 189.874911 
L 149.668215 188.301286 
L 149.872835 188.081709 
L 150.077455 188.075177 
L 150.691314 188.404746 
L 151.509793 188.139695 
L 151.919032 188.473632 
L 152.328272 188.813426 
L 153.146751 188.854633 
L 153.55599 189.462248 
L 153.96523 190.069145 
L 154.374469 190.157547 
L 154.783709 190.05307 
L 155.397568 190.242792 
L 155.602188 190.05403 
L 156.216047 188.610699 
L 156.625286 187.736747 
L 157.034526 187.386056 
L 157.648385 187.132811 
L 158.057624 187.402089 
L 159.694582 188.938941 
L 160.308441 189.107387 
L 160.9223 189.200849 
L 161.33154 189.384292 
L 161.53616 189.307291 
L 161.740779 188.984457 
L 162.559258 186.991373 
L 162.763878 186.921862 
L 163.173117 187.204487 
L 163.582357 187.549074 
L 163.991596 187.638053 
L 164.810075 187.441735 
L 165.219315 187.335746 
L 165.628554 187.554661 
L 166.651653 188.499763 
L 167.470132 188.763534 
L 167.879371 188.998416 
L 168.49323 189.032602 
L 169.311709 189.753499 
L 169.925568 189.556714 
L 170.334808 189.806714 
L 170.948667 190.374631 
L 171.153287 190.317193 
L 171.562526 189.851015 
L 171.971766 189.091991 
L 172.790245 187.038245 
L 172.994864 186.913773 
L 173.199484 187.039391 
L 173.608723 187.775745 
L 174.017963 188.518201 
L 174.222583 188.556354 
L 174.427202 188.304229 
L 175.450301 186.248784 
L 175.654921 186.204279 
L 176.06416 186.554412 
L 177.087259 187.952967 
L 177.701118 188.17963 
L 177.905738 188.015857 
L 178.519597 187.01974 
L 178.724217 186.9166 
L 179.133456 187.184385 
L 179.338076 187.312702 
L 179.542696 187.258573 
L 180.156555 186.773296 
L 180.565794 186.526247 
L 182.407372 184.676983 
L 182.611991 184.762855 
L 183.225851 185.633733 
L 183.43047 185.651026 
L 183.63509 185.379023 
L 184.248949 183.553868 
L 184.658189 182.593797 
L 185.067428 182.187962 
L 185.681287 181.979132 
L 185.885907 181.92357 
L 186.090527 181.708301 
L 186.909006 180.163477 
L 187.727485 179.517359 
L 188.136724 179.483604 
L 188.545964 179.58034 
L 188.955203 180.013952 
L 189.364442 180.646445 
L 189.569062 180.700452 
L 189.978302 180.312831 
L 190.592161 179.420956 
L 191.0014 178.190862 
L 193.866076 166.474445 
L 194.479936 162.725605 
L 195.093795 157.09704 
L 195.912274 145.5463 
L 196.526133 134.722406 
L 197.139992 120.159373 
L 197.753851 98.147356 
L 198.36771 66.297132 
L 199.390809 8.604815 
L 199.595429 3.545233 
L 199.800049 3.00024 
L 200.004668 7.26735 
L 200.413908 28.123991 
L 201.641626 109.488782 
L 202.255485 133.527481 
L 202.869344 149.670899 
L 203.483204 160.910353 
L 204.301683 171.202293 
L 204.915542 176.971721 
L 205.324781 179.198007 
L 205.93864 181.367153 
L 206.5525 182.513508 
L 206.961739 182.808749 
L 207.370978 183.085389 
L 207.780218 183.84902 
L 208.189457 184.681676 
L 208.394077 184.830714 
L 208.598697 184.76125 
L 209.621795 183.928176 
L 210.235655 183.539301 
L 210.440274 183.511793 
L 210.644894 183.600763 
L 211.463373 184.430538 
L 211.667993 184.229518 
L 212.077232 183.226482 
L 212.486472 181.45281 
L 213.91881 173.572581 
L 214.328049 172.765159 
L 214.737289 172.489404 
L 215.146528 172.685985 
L 215.965007 173.521886 
L 216.169627 173.539308 
L 216.783486 173.277053 
L 217.192725 173.63586 
L 217.601965 174.08233 
L 217.806584 173.979306 
L 218.011204 173.525934 
L 218.829683 170.21077 
L 219.443542 168.335216 
L 219.852782 167.271124 
L 220.671261 164.284434 
L 221.694359 159.906215 
L 222.308218 158.985148 
L 222.717458 158.194612 
L 223.126697 156.960016 
L 223.535937 155.13112 
L 225.172895 145.488529 
L 225.377514 145.160511 
L 225.582134 145.222479 
L 225.786754 145.647976 
L 226.195993 147.389796 
L 227.014472 151.399968 
L 227.423712 152.643726 
L 227.832951 153.366263 
L 228.037571 153.484826 
L 228.242191 153.359848 
L 228.44681 152.924852 
L 228.85605 151.057605 
L 229.469909 146.559284 
L 230.083768 139.889916 
L 230.697627 132.404307 
L 231.106867 129.905765 
L 231.311486 129.961901 
L 231.516106 130.91365 
L 231.925346 134.91718 
L 232.948444 147.136814 
L 233.357684 149.560793 
L 233.766923 150.974298 
L 233.971543 151.328913 
L 234.176163 151.315357 
L 234.380782 150.866099 
L 234.790022 148.507922 
L 235.403881 141.855369 
L 236.836219 123.777594 
L 237.245459 120.752747 
L 237.654698 118.948598 
L 238.473177 116.512252 
L 239.087036 112.319392 
L 239.700895 106.74992 
L 241.542473 86.162011 
L 241.951712 83.487863 
L 242.156332 82.876767 
L 242.360952 82.984794 
L 242.565571 84.022862 
L 242.974811 88.955698 
L 243.58867 101.223862 
L 245.839487 152.61264 
L 246.453346 161.462389 
L 246.862586 165.452425 
L 247.271825 167.291027 
L 247.681065 167.67877 
L 248.294924 167.839169 
L 248.499544 167.623321 
L 248.908783 166.519035 
L 250.136501 161.620445 
L 251.978079 152.85213 
L 252.182699 152.650188 
L 252.387318 152.756237 
L 252.591938 153.220654 
L 253.001177 155.188716 
L 253.615037 159.822795 
L 255.661234 179.130967 
L 256.888952 185.954042 
L 257.298192 187.199671 
L 257.707431 187.416725 
L 258.73053 187.856796 
L 259.139769 187.991355 
L 259.549009 188.67975 
L 260.367488 190.651149 
L 260.776727 191.181873 
L 261.185967 191.353756 
L 263.027544 190.446084 
L 263.846023 189.471522 
L 264.664502 189.077092 
L 264.869122 189.196315 
L 265.687601 190.097801 
L 266.30146 190.633878 
L 266.710699 191.027991 
L 266.915319 191.070145 
L 267.119939 190.971715 
L 267.324558 190.673187 
L 267.733798 189.20973 
L 268.347657 186.412847 
L 268.552277 186.06672 
L 268.961516 185.971712 
L 269.370756 185.962183 
L 269.575375 186.073765 
L 270.393854 187.07369 
L 270.598474 187.076726 
L 271.007713 186.670185 
L 271.826192 185.771459 
L 272.030812 185.746568 
L 272.440052 186.076605 
L 273.46315 187.628854 
L 273.66777 187.512276 
L 274.077009 186.395668 
L 274.690869 184.513336 
L 277.760164 177.57293 
L 278.169404 176.030697 
L 278.578643 173.717335 
L 279.601742 167.059742 
L 280.215601 165.333377 
L 280.624841 164.252581 
L 281.852559 159.301919 
L 282.466418 155.333675 
L 282.875658 151.639363 
L 283.489517 143.642145 
L 284.307996 131.158575 
L 284.921855 116.929266 
L 285.944954 86.185551 
L 287.172672 50.262579 
L 287.786531 37.104957 
L 288.195771 32.980292 
L 288.40039 32.883018 
L 288.60501 34.173109 
L 289.014249 40.378308 
L 290.651207 74.47141 
L 290.855827 75.893704 
L 291.060447 76.227406 
L 291.265066 75.606581 
L 291.674306 71.958568 
L 292.083545 65.361292 
L 292.902024 50.482056 
L 293.106644 48.507514 
L 293.311264 47.767791 
L 293.515883 48.232298 
L 293.720503 49.787565 
L 294.129743 55.801294 
L 294.743602 70.334115 
L 295.7667 102.731951 
L 296.585179 128.641671 
L 297.199038 142.602999 
L 297.812898 152.264826 
L 298.835996 164.187733 
L 299.449855 169.42817 
L 300.063715 172.582638 
L 300.677574 174.277406 
L 302.109912 177.431985 
L 303.33763 181.881913 
L 303.74687 182.485763 
L 304.156109 182.720684 
L 304.565349 182.602343 
L 305.179208 181.918121 
L 305.383828 181.939631 
L 305.588447 182.263128 
L 305.997687 183.594278 
L 306.816166 186.677011 
L 307.225405 187.340743 
L 307.430025 187.425452 
L 307.634645 187.362449 
L 308.043884 186.741362 
L 309.066983 184.627123 
L 309.476222 184.278603 
L 310.090081 184.082286 
L 310.499321 183.914934 
L 311.3178 183.135494 
L 311.522419 183.164016 
L 311.931659 183.565736 
L 312.340898 183.91924 
L 312.545518 183.844107 
L 313.363997 183.044063 
L 313.773236 183.121408 
L 315.205574 184.420222 
L 315.614814 184.532638 
L 316.637913 184.520674 
L 317.047152 185.214099 
L 317.456391 186.017809 
L 317.661011 186.221124 
L 317.865631 186.257754 
L 318.27487 186.029594 
L 318.68411 185.479849 
L 319.093349 184.54773 
L 319.911828 182.306729 
L 320.321068 181.913122 
L 320.730307 181.971726 
L 321.139547 182.28785 
L 321.548786 182.591679 
L 321.753406 182.529688 
L 322.162645 181.852121 
L 322.776504 179.952936 
L 324.413462 172.946557 
L 325.641181 166.269127 
L 326.05042 163.118415 
L 326.664279 156.074563 
L 327.278138 146.965487 
L 327.891997 133.992262 
L 328.710476 109.394714 
L 329.324336 83.733028 
L 330.552054 25.640568 
L 330.756674 22.411165 
L 330.961293 23.119841 
L 331.165913 27.858443 
L 331.575153 46.890882 
L 332.802871 114.237622 
L 333.41673 135.80262 
L 334.030589 149.475207 
L 334.849068 161.732118 
L 335.462927 167.925309 
L 336.076787 171.740469 
L 336.486026 173.366931 
L 336.895265 174.316465 
L 337.304505 175.098531 
L 337.713744 176.326336 
L 338.532223 179.386517 
L 338.736843 179.699694 
L 338.941463 179.708005 
L 339.759942 178.9051 
L 340.373801 178.090776 
L 340.98766 176.70669 
L 341.396899 175.31634 
L 342.829238 167.902108 
L 343.238477 165.07486 
L 343.852336 158.782158 
L 344.875435 145.579955 
L 345.693914 133.026419 
L 346.307773 119.643712 
L 347.330872 89.49736 
L 347.944731 73.556702 
L 348.35397 69.085076 
L 348.55859 69.105745 
L 348.76321 70.533877 
L 349.172449 76.989294 
L 350.809407 111.551739 
L 352.037125 130.931125 
L 352.650984 137.687914 
L 353.060224 140.514116 
L 353.469463 141.728828 
L 353.674083 141.683073 
L 353.878703 141.199023 
L 354.287942 139.054795 
L 354.901801 133.962293 
L 355.515661 126.774298 
L 356.33414 113.112988 
L 357.152618 96.29051 
L 357.971097 73.384406 
L 358.789576 50.00554 
L 359.198816 43.784311 
L 359.403435 43.108011 
L 359.608055 44.420126 
L 359.812675 47.824863 
L 360.221914 60.255165 
L 361.654252 114.738445 
L 362.472731 134.137104 
L 363.29121 149.952247 
L 363.905069 158.134134 
L 364.518929 163.499516 
L 365.132788 167.202994 
L 366.360506 174.073733 
L 367.383605 180.042555 
L 367.792844 181.510056 
L 368.202084 182.090948 
L 369.225182 182.8341 
L 369.839041 182.811333 
L 370.248281 183.260067 
L 371.680619 185.237045 
L 372.499098 185.188695 
L 372.908337 185.542155 
L 373.317577 186.031068 
L 373.726816 186.160535 
L 373.931436 186.204784 
L 374.136056 186.402925 
L 374.545295 187.31312 
L 374.954535 188.241145 
L 375.363774 188.709962 
L 376.386873 189.46799 
L 376.591492 189.399465 
L 378.023831 187.832458 
L 378.842309 186.400068 
L 379.046929 186.471139 
L 379.456169 187.175759 
L 380.070028 189.122765 
L 380.479267 190.237794 
L 380.683887 190.417078 
L 380.888507 190.2861 
L 381.297746 189.299063 
L 381.706986 188.228623 
L 381.911605 187.978452 
L 382.116225 187.978114 
L 382.320845 188.188286 
L 382.730084 189.056004 
L 383.548563 191.027854 
L 383.753183 190.95544 
L 385.185521 188.69151 
L 385.390141 188.573522 
L 385.59476 188.626145 
L 386.20862 189.262553 
L 386.413239 189.189358 
L 387.027099 188.377389 
L 387.231718 188.319263 
L 387.436338 188.454737 
L 388.254817 189.58233 
L 388.459437 189.645576 
L 388.664056 189.527895 
L 389.073296 188.803041 
L 389.482535 188.020556 
L 389.891775 187.691062 
L 390.301014 187.657641 
L 390.710254 187.729023 
L 391.324113 187.666655 
L 391.733352 188.261414 
L 392.756451 190.402887 
L 392.961071 190.27192 
L 393.77955 189.12478 
L 394.188789 189.074796 
L 394.598028 189.430141 
L 395.825747 190.815104 
L 396.234986 191.227684 
L 396.848845 191.975119 
L 397.053465 192.02887 
L 397.258085 191.905638 
L 397.667324 191.132432 
L 398.076564 190.35463 
L 399.099662 189.281456 
L 399.508902 189.169512 
L 399.918141 189.394132 
L 400.532001 189.966538 
L 400.94124 190.130005 
L 401.350479 190.634922 
L 401.759719 191.133462 
L 401.964339 191.180999 
L 402.373578 190.824052 
L 403.192057 189.834476 
L 404.419775 188.487098 
L 404.624395 188.548136 
L 405.852113 189.934722 
L 406.465973 190.449897 
L 407.079832 191.112897 
L 407.489071 190.992205 
L 408.30755 190.497595 
L 408.71679 190.518612 
L 409.126029 190.765142 
L 409.739888 191.485911 
L 409.944508 191.403353 
L 411.376846 189.378927 
L 411.786085 189.302484 
L 412.195325 189.619233 
L 413.832283 191.330929 
L 414.036902 191.249878 
L 414.446142 190.652333 
L 414.855381 190.113827 
L 415.87848 189.375658 
L 416.287719 189.21004 
L 416.901579 188.548304 
L 417.515438 187.712977 
L 417.720058 187.666691 
L 417.924677 187.768167 
L 418.333917 188.311311 
L 418.947776 189.245067 
L 419.152396 189.343404 
L 419.357015 189.252085 
L 419.970875 188.620679 
L 420.380114 188.676237 
L 420.789353 188.974369 
L 421.607832 190.039571 
L 422.017072 190.019014 
L 422.426311 189.549725 
L 423.04017 188.369668 
L 423.24479 188.18392 
L 423.44941 188.148325 
L 424.267889 188.540618 
L 424.677128 188.304119 
L 425.086368 187.745489 
L 425.495607 187.040188 
L 425.700227 186.902405 
L 426.109466 187.14802 
L 426.314086 187.297926 
L 426.518706 187.305744 
L 426.927945 186.843902 
L 427.541804 185.79844 
L 427.951044 185.147305 
L 428.155664 185.098357 
L 428.564903 185.408102 
L 429.383382 186.134603 
L 429.588002 186.219733 
L 429.792621 186.177555 
L 429.997241 185.946995 
L 430.406481 184.907776 
L 431.634199 181.111083 
L 432.657298 178.787977 
L 433.271157 176.127324 
L 434.089636 171.570919 
L 434.703495 166.786551 
L 435.317354 160.221452 
L 436.135833 147.791183 
L 437.158932 129.338864 
L 437.772791 113.135103 
L 438.59127 83.901167 
L 439.409749 53.730449 
L 439.818988 45.103525 
L 440.023608 43.63553 
L 440.228228 44.080134 
L 440.432847 46.282997 
L 440.842087 54.940357 
L 443.092904 116.607487 
L 443.911383 131.111724 
L 444.525242 138.162686 
L 444.934481 141.116679 
L 445.343721 142.734423 
L 445.75296 143.47906 
L 445.95758 143.526107 
L 446.1622 143.308472 
L 446.366819 142.803337 
L 446.776059 140.761356 
L 447.185298 137.174582 
L 447.799157 129.432028 
L 448.413017 119.517157 
L 449.231495 102.067936 
L 450.459214 73.106797 
L 450.868453 67.63054 
L 451.073073 67.245758 
L 451.277693 68.698435 
L 451.686932 76.593161 
L 452.300791 96.697367 
L 453.11927 122.905985 
L 453.937749 140.923991 
L 454.756228 153.860661 
L 455.370087 159.967538 
L 456.802425 169.663062 
L 457.416285 172.988538 
L 458.030144 175.301786 
L 459.667102 180.490148 
L 460.280961 182.883547 
L 460.6902 183.644618 
L 461.09944 183.687344 
L 461.917919 183.789663 
L 462.122538 183.956567 
L 462.531778 184.709231 
L 464.168736 188.518997 
L 464.373355 188.50958 
L 464.782595 187.976453 
L 465.396454 186.973339 
L 466.214933 186.240969 
L 466.624172 186.102296 
L 467.238031 186.206975 
L 468.26113 185.483127 
L 469.284229 185.929723 
L 469.898088 186.442253 
L 470.511947 187.103875 
L 471.125806 187.39327 
L 471.535046 187.53503 
L 471.944285 187.995833 
L 472.558144 188.841516 
L 472.762764 188.791373 
L 473.376623 188.103633 
L 473.581243 188.065666 
L 473.990482 188.435489 
L 474.399722 188.812846 
L 475.013581 189.010537 
L 475.218201 188.857133 
L 476.241299 187.164211 
L 476.855159 186.959056 
L 477.469018 186.497985 
L 477.673638 186.595765 
L 478.082877 187.175664 
L 479.310595 189.792008 
L 479.719835 189.942031 
L 480.129074 190.040207 
L 480.947553 190.744543 
L 481.152173 190.643903 
L 481.970652 189.206826 
L 482.379891 188.343096 
L 482.789131 187.321536 
L 482.99375 187.044022 
L 483.19837 187.055674 
L 484.016849 188.068705 
L 485.244567 188.488178 
L 485.858427 188.858185 
L 486.267666 188.782932 
L 486.676905 188.647334 
L 486.881525 188.693732 
L 487.290765 189.207398 
L 487.904624 190.321991 
L 488.313863 190.543919 
L 488.723103 190.583555 
L 489.132342 191.029329 
L 489.746201 191.79947 
L 490.155441 191.842011 
L 490.56468 191.73797 
L 490.97392 191.899082 
L 491.383159 192.126375 
L 491.587779 192.035891 
L 492.201638 191.195495 
L 493.020117 190.070826 
L 493.429356 189.848554 
L 494.452455 188.536279 
L 494.861695 187.935908 
L 495.066314 187.820972 
L 495.475554 188.035843 
L 495.884793 188.288667 
L 496.089413 188.26385 
L 496.498652 187.893348 
L 496.907892 187.372985 
L 497.112512 187.258932 
L 497.317131 187.353661 
L 497.521751 187.702838 
L 497.93099 189.126746 
L 498.34023 190.788512 
L 498.749469 191.61752 
L 499.158709 191.922659 
L 499.363329 191.890554 
L 499.772568 191.444846 
L 501.614146 187.929717 
L 502.228005 186.22512 
L 502.432624 186.078181 
L 502.637244 186.153182 
L 503.046484 186.670768 
L 503.660343 187.675943 
L 504.069582 187.961446 
L 504.478822 187.978831 
L 504.683441 187.843255 
L 505.092681 187.020876 
L 505.50192 186.296978 
L 505.70654 186.364728 
L 506.11578 187.189168 
L 506.729639 188.729103 
L 506.934258 188.940382 
L 507.138878 188.93481 
L 507.548118 188.458719 
L 507.957357 187.936949 
L 508.366597 187.93189 
L 509.185075 188.040492 
L 509.594315 188.818507 
L 510.208174 190.316309 
L 510.412794 190.501963 
L 510.822033 190.442931 
L 511.026653 190.372142 
L 511.231273 190.450686 
L 511.845132 191.208079 
L 512.049752 191.26027 
L 512.254371 191.160981 
L 512.663611 190.558527 
L 513.07285 189.910784 
L 513.48209 189.718868 
L 513.891329 189.803449 
L 514.300569 189.574297 
L 514.505188 189.460357 
L 514.709808 189.533199 
L 515.323667 190.155904 
L 516.142146 190.485904 
L 516.551386 190.881298 
L 517.369865 192.069058 
L 517.574484 191.961551 
L 517.983724 191.02998 
L 518.392963 190.063767 
L 518.597583 189.852164 
L 519.006822 189.824017 
L 519.825301 189.909113 
L 520.8484 191.448002 
L 521.257639 191.786244 
L 522.076118 192.745903 
L 522.280738 192.655866 
L 522.689977 191.795605 
L 523.099217 191.019353 
L 523.508456 190.646338 
L 523.713076 190.670383 
L 524.736175 191.580966 
L 524.940794 191.522113 
L 525.350034 190.986269 
L 526.168513 189.811672 
L 526.373132 189.806817 
L 526.577752 190.001037 
L 527.191611 191.302511 
L 527.396231 191.665991 
L 527.600851 191.801008 
L 527.805471 191.696536 
L 528.41933 191.159743 
L 529.237809 191.388005 
L 529.442428 191.589996 
L 530.260907 193.035336 
L 530.670147 193.05211 
L 531.079386 192.912439 
L 531.488626 192.369942 
L 532.716344 190.593382 
L 533.125583 190.389037 
L 533.330203 190.102034 
L 534.353302 187.612673 
L 534.762541 187.980427 
L 535.171781 188.245354 
L 535.78564 188.190334 
L 536.194879 188.279972 
L 536.604119 188.22866 
L 536.808739 188.362835 
L 538.036457 189.917317 
L 538.445696 189.801286 
L 538.854936 189.661025 
L 539.264175 189.868302 
L 539.673415 190.290629 
L 539.878034 190.369287 
L 541.105753 190.028636 
L 541.514992 189.880948 
L 542.742711 190.163232 
L 542.94733 190.050331 
L 543.35657 189.411142 
L 543.970429 188.24059 
L 544.175049 188.106545 
L 544.379668 188.225983 
L 544.788908 189.181048 
L 545.198147 190.281988 
L 545.402767 190.578924 
L 545.607387 190.596524 
L 545.812007 190.323182 
L 546.425866 188.892599 
L 546.630485 188.695294 
L 547.653584 188.668753 
L 548.062824 188.928144 
L 549.085922 189.819493 
L 549.290542 189.740084 
L 550.9275 188.017744 
L 551.336739 188.188981 
L 551.745979 188.721216 
L 552.359838 189.668452 
L 552.564458 189.739821 
L 552.769077 189.684078 
L 552.973697 189.495699 
L 553.382936 188.669381 
L 553.792176 187.986749 
L 553.996796 188.141397 
L 554.406035 189.410925 
L 554.815275 190.733438 
L 555.019894 191.0808 
L 555.224514 191.164027 
L 555.429134 190.995959 
L 556.656852 189.037471 
L 556.861472 189.053456 
L 557.270711 189.66336 
L 557.679951 190.230598 
L 558.08919 190.23436 
L 558.703049 190.27565 
L 559.112289 190.458839 
L 559.726148 191.19019 
L 560.340007 192.066042 
L 560.544627 192.13344 
L 560.749247 191.996345 
L 561.567725 191.080699 
L 562.181585 190.645825 
L 562.795444 189.871264 
L 563.409303 188.99782 
L 563.818542 188.996901 
L 564.023162 189.026823 
L 564.227782 188.935412 
L 564.637021 188.231495 
L 565.046261 187.388471 
L 566.069359 186.313921 
L 566.478599 186.231994 
L 567.501698 186.407169 
L 568.320176 186.283614 
L 568.934036 187.179627 
L 569.752515 188.44049 
L 569.957134 188.483761 
L 571.184853 188.00508 
L 572.003332 188.00868 
L 573.02643 187.350903 
L 573.43567 187.748316 
L 573.844909 188.153338 
L 574.049529 188.146116 
L 574.663388 187.791307 
L 575.481867 187.769753 
L 575.891106 187.56088 
L 576.300346 187.712262 
L 576.709585 187.937013 
L 577.528064 188.090145 
L 578.551163 188.894649 
L 579.165022 189.201502 
L 579.574261 189.174245 
L 580.39274 188.797942 
L 580.80198 188.056233 
L 581.211219 187.327804 
L 581.415839 187.387516 
L 582.438938 188.524704 
L 583.052797 188.958844 
L 583.462036 189.174704 
L 583.871276 189.645831 
L 584.485135 190.399141 
L 584.894374 190.461148 
L 585.508234 190.358454 
L 586.122093 189.898059 
L 586.735952 189.273041 
L 587.349811 188.250624 
L 587.554431 188.324756 
L 588.16829 189.169293 
L 588.986769 190.5092 
L 589.191389 190.398175 
L 589.600628 189.19562 
L 590.214487 187.221388 
L 590.623727 186.684774 
L 591.442206 186.441885 
L 591.646825 186.474509 
L 591.851445 186.63272 
L 592.260685 187.487283 
L 593.283783 191.026423 
L 593.488403 191.206067 
L 593.693023 191.108664 
L 594.102262 190.474414 
L 594.716121 189.445614 
L 594.920741 189.263494 
L 595.125361 189.257094 
L 595.94384 190.016462 
L 596.557699 189.926531 
L 596.966938 190.367025 
L 597.580797 191.36853 
L 597.990037 191.231885 
L 598.603896 190.863508 
L 599.013135 190.515085 
L 599.422375 190.602101 
L 601.263952 191.717288 
L 601.877812 192.779688 
L 602.082431 192.802748 
L 602.491671 192.123897 
L 603.10553 191.036202 
L 603.514769 190.700402 
L 603.924009 190.67764 
L 604.537868 191.019242 
L 604.947108 190.867575 
L 605.560967 190.563789 
L 606.174826 190.4166 
L 607.197925 189.345378 
L 607.811784 189.259049 
L 608.425643 189.018408 
L 608.834882 188.817948 
L 610.26722 188.60989 
L 611.290319 188.04431 
L 611.699559 188.439035 
L 612.313418 189.248796 
L 612.518037 189.329894 
L 612.927277 189.092318 
L 613.336516 188.709107 
L 613.745756 188.649671 
L 614.359615 189.113495 
L 614.768854 189.477215 
L 614.973474 189.471516 
L 615.791953 188.765349 
L 616.405812 189.441592 
L 616.610432 189.404607 
L 617.019671 188.890368 
L 617.83815 187.339127 
L 618.04277 187.314791 
L 618.45201 187.734112 
L 619.884348 190.201162 
L 620.498207 190.712494 
L 621.112066 191.709492 
L 621.316686 191.642368 
L 622.749024 189.897655 
L 622.953644 189.920615 
L 623.567503 190.416917 
L 624.181362 190.046823 
L 624.385982 190.146209 
L 625.204461 191.004853 
L 625.81832 191.247315 
L 626.227559 191.428805 
L 626.841418 191.565135 
L 627.250658 191.875598 
L 627.864517 192.460897 
L 628.478376 192.417011 
L 629.092235 193.102824 
L 629.296855 193.049189 
L 629.706095 192.404788 
L 630.115334 191.766327 
L 630.319954 191.752657 
L 630.729193 191.989889 
L 630.933813 191.91438 
L 631.343052 191.18489 
L 631.752292 190.254254 
L 631.956912 190.025886 
L 632.161531 189.98869 
L 632.77539 190.345298 
L 633.18463 190.766933 
L 633.593869 191.671219 
L 634.412348 193.853563 
L 634.616968 193.944149 
L 634.821588 193.761181 
L 635.230827 192.667977 
L 635.844686 190.528705 
L 636.253926 189.735553 
L 636.458545 189.557542 
L 636.663165 189.553849 
L 637.072405 190.026806 
L 637.686264 190.969424 
L 638.095503 191.118247 
L 638.504743 190.776908 
L 639.118602 190.117356 
L 639.937081 189.734478 
L 640.75556 189.547715 
L 640.960179 189.465957 
L 641.164799 189.534963 
L 641.574039 190.356587 
L 642.187898 191.784167 
L 642.597137 192.239421 
L 642.801757 192.22244 
L 643.824856 191.475602 
L 644.438715 191.353027 
L 644.643335 191.538523 
L 645.257194 192.394492 
L 645.461813 192.250777 
L 645.871053 191.030555 
L 646.484912 188.608638 
L 646.894152 187.80506 
L 647.098771 187.760307 
L 647.508011 188.142997 
L 648.12187 188.718404 
L 648.531109 188.92392 
L 649.349588 188.851861 
L 651.395786 190.500413 
L 651.805025 190.509934 
L 652.009645 190.723319 
L 652.623504 192.161411 
L 653.237363 193.495483 
L 653.441983 193.703811 
L 653.646603 193.648563 
L 654.055842 192.76084 
L 654.874321 190.646309 
L 655.28356 190.084065 
L 655.6928 189.973639 
L 656.102039 190.052159 
L 657.738997 190.853764 
L 657.943617 190.831733 
L 658.148237 190.630408 
L 658.557476 189.683294 
L 659.989814 185.744784 
L 660.194434 185.912942 
L 661.422152 188.12692 
L 661.626772 188.179484 
L 662.85449 187.770523 
L 663.26373 188.195685 
L 664.082209 189.429815 
L 664.491448 189.372825 
L 664.900688 189.329176 
L 665.105307 189.338845 
L 665.309927 189.224386 
L 665.719166 188.489263 
L 666.128406 187.741914 
L 666.333026 187.698567 
L 666.946885 188.008594 
L 667.765364 187.956823 
L 668.379223 188.14074 
L 669.197702 187.937381 
L 670.016181 188.064307 
L 670.83466 187.760121 
L 671.857758 186.93691 
L 672.062378 186.987124 
L 673.290096 188.132207 
L 673.699336 187.987743 
L 674.313195 187.621498 
L 674.722434 187.807505 
L 675.131674 188.284524 
L 676.154772 190.121026 
L 676.359392 190.129617 
L 676.768632 189.934507 
L 677.177871 190.034834 
L 677.79173 190.402893 
L 678.20097 190.360904 
L 678.610209 189.981467 
L 679.633308 188.790138 
L 680.451787 189.110417 
L 681.065646 188.72012 
L 681.270266 188.766254 
L 681.474885 188.989729 
L 682.497984 191.045859 
L 682.702604 191.078361 
L 682.907223 190.910624 
L 683.316463 189.911409 
L 683.930322 188.33304 
L 684.134942 188.160307 
L 684.339562 188.173561 
L 684.748801 188.583821 
L 685.7719 189.965441 
L 686.181139 190.053727 
L 686.999618 189.566719 
L 687.613477 189.983798 
L 687.818097 189.779932 
L 688.431956 188.618056 
L 688.636576 188.489239 
L 688.841196 188.599665 
L 689.455055 189.4712 
L 689.659674 189.53411 
L 690.887393 188.886529 
L 691.296632 188.206106 
L 691.705872 187.478181 
L 691.910491 187.352771 
L 692.72897 187.294131 
L 693.752069 186.42752 
L 694.365928 186.620312 
L 694.775168 186.990504 
L 695.184407 187.745642 
L 696.412125 190.756616 
L 697.639844 191.986164 
L 697.844464 191.89351 
L 698.253703 191.048972 
L 699.481421 188.023021 
L 699.890661 187.742018 
L 700.2999 187.593336 
L 700.70914 186.9048 
L 701.118379 186.166848 
L 701.322999 186.045871 
L 701.527619 186.147145 
L 701.936858 186.890021 
L 703.778436 190.840061 
L 704.392295 191.103253 
L 704.801534 191.22114 
L 705.620013 190.980624 
L 706.029253 191.152901 
L 706.847732 191.213258 
L 707.256971 191.485277 
L 707.66621 191.460345 
L 708.28007 191.297615 
L 708.689309 191.513915 
L 709.098549 191.816525 
L 709.303168 191.780361 
L 709.712408 191.177779 
L 710.735506 189.188484 
L 710.940126 188.972914 
L 711.144746 189.006124 
L 711.553985 189.717865 
L 711.963225 190.36521 
L 712.372464 190.49202 
L 712.986323 190.297492 
L 713.190943 190.086601 
L 713.600182 189.175724 
L 714.214042 187.620257 
L 714.418661 187.609988 
L 714.827901 188.304066 
L 715.23714 188.90949 
L 717.078718 190.077436 
L 717.487957 189.854538 
L 719.124915 188.405439 
L 719.534155 188.229614 
L 719.943394 187.738217 
L 720.557253 186.83754 
L 720.966493 186.595861 
L 721.375732 186.798569 
L 722.194211 187.374266 
L 722.60345 187.537577 
L 723.01269 188.074856 
L 723.831169 189.426146 
L 724.854267 190.580319 
L 725.468127 191.028309 
L 726.081986 191.479942 
L 726.286606 191.45875 
L 726.695845 190.990831 
L 727.514324 189.760174 
L 727.718944 189.674262 
L 727.923563 189.800322 
L 729.355901 191.85676 
L 729.969761 192.350557 
L 730.17438 192.315842 
L 730.58362 191.840128 
L 731.811338 190.203727 
L 732.220578 189.905235 
L 732.629817 189.754841 
L 733.039057 189.092394 
L 733.448296 188.418487 
L 733.652916 188.342743 
L 734.062155 188.614545 
L 736.108352 191.237212 
L 737.336071 192.128873 
L 738.15455 193.028515 
L 738.359169 192.893325 
L 738.768409 191.767105 
L 739.586888 188.688764 
L 739.791508 188.307281 
L 739.996127 188.230555 
L 740.405367 188.515128 
L 740.609986 188.475373 
L 740.814606 188.181543 
L 742.042325 185.412234 
L 742.451564 185.279627 
L 742.860803 185.6339 
L 743.270043 186.181223 
L 743.883902 186.569611 
L 744.293142 187.372403 
L 744.702381 188.334091 
L 745.11162 188.84858 
L 745.72548 189.467198 
L 746.339339 190.172033 
L 746.953198 190.772433 
L 747.362437 191.04493 
L 748.180916 191.031421 
L 748.590156 191.1658 
L 748.794776 191.110309 
L 749.204015 190.648561 
L 749.817874 189.743717 
L 750.022494 189.732602 
L 750.431733 190.204204 
L 751.045593 191.043446 
L 751.454832 191.100576 
L 751.864071 190.659125 
L 752.477931 189.747757 
L 752.68255 189.626694 
L 753.09179 189.756125 
L 753.501029 190.14487 
L 753.910269 190.88453 
L 754.319508 191.812352 
L 754.524128 192.060827 
L 754.728748 192.068393 
L 755.137987 191.541862 
L 755.547226 190.900055 
L 755.956466 190.730939 
L 756.774945 190.908933 
L 757.184184 190.60673 
L 757.593424 190.247973 
L 758.002663 190.175657 
L 758.616522 190.113443 
L 759.025762 189.905669 
L 759.639621 189.118958 
L 760.04886 188.52832 
L 760.25348 188.396005 
L 760.4581 188.467622 
L 761.071959 189.304236 
L 761.890438 190.703693 
L 762.299677 190.801432 
L 762.708917 190.611177 
L 763.322776 190.060214 
L 764.141255 188.807018 
L 764.345875 188.875237 
L 764.755114 189.726282 
L 765.164354 190.452774 
L 765.573593 190.570613 
L 765.982833 190.585321 
L 766.596692 190.998019 
L 767.61979 191.006974 
L 768.642889 191.534519 
L 769.052128 191.442391 
L 769.461368 190.812639 
L 770.279847 189.132181 
L 771.507565 187.952972 
L 771.712185 188.0083 
L 772.735284 189.217602 
L 772.939903 189.054589 
L 773.758382 187.972973 
L 774.167622 187.562607 
L 774.576861 186.987829 
L 774.781481 186.885743 
L 774.986101 187.012817 
L 775.59996 187.763737 
L 776.009199 187.798536 
L 776.418439 187.834495 
L 777.032298 188.167683 
L 777.441537 187.995709 
L 777.850777 187.905138 
L 779.283115 188.396945 
L 779.692354 188.640109 
L 780.101594 188.529403 
L 780.510833 188.307112 
L 781.329312 188.309763 
L 781.943171 188.00099 
L 782.55703 188.293806 
L 782.76165 188.528745 
L 783.17089 189.580649 
L 783.784749 191.540228 
L 784.193988 192.104846 
L 784.398608 191.98484 
L 784.807847 191.129883 
L 785.830946 188.919603 
L 786.240186 188.338669 
L 786.649425 188.120151 
L 787.058664 188.188028 
L 787.467904 188.723186 
L 788.286383 190.306465 
L 788.491003 190.383971 
L 789.514101 190.147314 
L 789.718721 190.285424 
L 790.12796 190.990695 
L 790.5372 191.61591 
L 790.741819 191.633129 
L 791.969538 190.972304 
L 792.378777 190.199851 
L 792.992636 189.027771 
L 794.220355 188.124392 
L 795.448073 187.012841 
L 795.857313 186.883339 
L 796.061932 186.977952 
L 796.471172 187.646256 
L 797.289651 189.427388 
L 797.49427 189.354967 
L 797.90351 188.479825 
L 798.312749 187.536106 
L 798.517369 187.27346 
L 798.721989 187.251249 
L 798.926609 187.483096 
L 800.358947 190.269153 
L 800.563566 190.423801 
L 800.972806 190.342752 
L 801.586665 190.137255 
L 801.995904 189.975294 
L 802.609764 189.52971 
L 803.019003 189.572717 
L 803.632862 190.073502 
L 804.246721 190.739369 
L 804.655961 190.759325 
L 805.883679 190.338933 
L 806.702158 190.492104 
L 807.929877 189.395753 
L 808.543736 189.122086 
L 808.952975 188.644033 
L 809.976074 187.289319 
L 810.180694 187.503107 
L 811.408412 189.966662 
L 811.817651 190.046943 
L 812.226891 190.028862 
L 812.63613 190.349798 
L 814.273088 192.295075 
L 814.477708 192.319067 
L 814.682328 192.133129 
L 815.705426 190.051686 
L 816.114666 189.235068 
L 816.319285 189.095536 
L 816.523905 189.174933 
L 817.137764 189.975496 
L 817.547004 190.470593 
L 818.365483 190.908181 
L 819.388581 192.159272 
L 819.797821 192.410818 
L 820.20706 192.186519 
L 820.6163 191.780296 
L 821.025539 190.978071 
L 822.048638 188.369253 
L 823.276356 186.367125 
L 823.685596 186.013549 
L 824.094835 186.205238 
L 824.504074 186.44332 
L 824.913314 186.4808 
L 825.117934 186.679663 
L 826.141032 188.81422 
L 826.345652 188.928164 
L 826.550272 188.901378 
L 826.959511 188.450644 
L 827.368751 188.081717 
L 827.57337 188.226477 
L 827.98261 188.849147 
L 828.18723 188.955045 
L 828.596469 188.718911 
L 829.005708 188.298276 
L 830.233427 186.600449 
L 830.642666 186.314154 
L 831.051906 186.391813 
L 831.665765 186.661727 
L 832.075004 186.427505 
L 832.688863 185.832907 
L 832.893483 186.037332 
L 833.302723 187.139834 
L 834.325821 190.51334 
L 834.93968 191.709019 
L 835.34892 192.171833 
L 835.55354 192.239183 
L 835.962779 191.991765 
L 836.576638 191.626966 
L 836.781258 191.503457 
L 836.985878 191.23607 
L 837.395117 190.208206 
L 838.008976 188.618719 
L 838.213596 188.419342 
L 838.418216 188.480144 
L 838.827455 189.18929 
L 839.441314 190.736879 
L 839.645934 190.988672 
L 839.850554 191.036104 
L 840.259793 190.793445 
L 841.078272 189.926627 
L 841.896751 188.371955 
L 842.51061 187.947761 
L 842.91985 187.965646 
L 843.12447 188.141759 
L 843.533709 188.982134 
L 844.761427 192.606754 
L 844.966047 192.635867 
L 845.170667 192.474176 
L 845.579906 191.667805 
L 846.193765 190.256538 
L 846.603005 189.749354 
L 846.807625 189.682712 
L 847.216864 190.022445 
L 847.626104 190.317413 
L 848.444582 190.21692 
L 848.853822 190.377921 
L 849.058442 190.354693 
L 849.467681 189.910583 
L 850.28616 188.650123 
L 850.49078 188.533995 
L 850.695399 188.627849 
L 851.104639 189.296675 
L 851.718498 190.722467 
L 851.923118 190.876789 
L 852.127738 190.793062 
L 852.536977 190.148419 
L 853.150836 188.541973 
L 853.969315 186.287541 
L 854.173935 186.028385 
L 854.378555 185.963604 
L 854.787794 186.266908 
L 855.197033 186.959958 
L 855.606273 187.7268 
L 855.810893 187.801156 
L 856.220132 187.402671 
L 856.629372 187.113486 
L 856.833991 187.237562 
L 857.243231 187.93983 
L 857.85709 189.318956 
L 858.266329 189.711966 
L 858.470949 189.62795 
L 860.517146 186.653806 
L 861.131006 186.330503 
L 861.540245 186.159308 
L 861.744865 186.227915 
L 862.563344 187.040195 
L 862.767963 187.098164 
L 862.972583 187.27334 
L 863.791062 188.943049 
L 863.995682 188.811198 
L 865.2234 186.698302 
L 865.63264 186.713116 
L 866.041879 187.098983 
L 866.655738 188.021366 
L 867.474217 188.63517 
L 868.088076 189.287805 
L 868.292696 189.248561 
L 868.906555 188.819678 
L 869.111175 188.895467 
L 869.520414 189.462837 
L 870.543513 191.233811 
L 870.748133 191.462088 
L 870.952752 191.505775 
L 871.157372 191.315618 
L 871.771231 190.023299 
L 872.79433 187.892367 
L 873.203569 187.765482 
L 874.022048 187.838823 
L 874.840527 188.790277 
L 875.249767 188.620185 
L 876.477485 187.581034 
L 876.886724 186.848807 
L 877.295964 186.070659 
L 877.705203 185.790957 
L 878.114443 185.642306 
L 878.728302 185.274547 
L 879.137541 185.302687 
L 879.546781 185.678983 
L 880.16064 186.331771 
L 880.56988 186.516277 
L 880.979119 186.431704 
L 881.388358 186.363942 
L 882.206837 186.679049 
L 882.616077 186.430214 
L 883.229936 185.879993 
L 883.639175 185.896079 
L 884.662274 186.396422 
L 885.685373 185.833892 
L 886.094612 185.823422 
L 886.299232 185.97443 
L 887.52695 187.656371 
L 887.73157 187.808437 
L 887.93619 187.791493 
L 888.345429 187.317739 
L 888.959288 185.998861 
L 889.573148 184.211683 
L 890.187007 182.415551 
L 890.596246 181.789101 
L 891.005486 181.631364 
L 891.210105 181.580185 
L 892.028584 181.001771 
L 892.847063 181.522466 
L 893.256303 181.385787 
L 894.484021 179.929031 
L 895.711739 176.965737 
L 896.325599 175.280874 
L 896.734838 174.863365 
L 897.144077 174.402487 
L 897.962556 172.887845 
L 898.371796 172.614141 
L 898.576416 172.635209 
L 898.985655 173.065796 
L 899.394894 173.536593 
L 899.599514 173.433121 
L 900.008754 172.426118 
L 900.622613 170.644934 
L 900.827233 170.497051 
L 901.236472 170.865722 
L 901.645711 171.283341 
L 902.054951 171.481288 
L 902.46419 171.422064 
L 903.691909 170.533209 
L 904.101148 169.510757 
L 904.715007 167.61216 
L 906.761205 163.380038 
L 907.170444 163.066346 
L 907.375064 162.596589 
L 907.784303 160.668681 
L 908.193543 157.393968 
L 909.012022 147.988324 
L 909.625881 141.691413 
L 909.8305 141.372019 
L 910.03512 142.205279 
L 910.853599 147.591707 
L 911.262839 148.632399 
L 911.876698 148.94547 
L 912.490557 149.738169 
L 913.104416 149.888024 
L 913.513656 150.008988 
L 913.922895 150.377051 
L 914.332134 150.801668 
L 914.536754 150.770944 
L 915.969092 149.101575 
L 916.582951 148.488768 
L 917.196811 148.333656 
L 917.60605 148.254002 
L 918.424529 147.694046 
L 919.243008 147.772853 
L 919.652247 147.150308 
L 920.266107 146.041807 
L 921.084585 145.412437 
L 921.698445 143.681012 
L 922.107684 142.794132 
L 922.312304 142.726039 
L 922.516924 142.924394 
L 923.744642 145.142676 
L 923.949262 145.037764 
L 924.153881 144.519546 
L 924.767741 141.776524 
L 924.97236 141.521478 
L 925.17698 141.869881 
L 925.995459 144.731436 
L 926.200079 144.781112 
L 926.404698 144.132211 
L 926.609318 142.627047 
L 927.018558 136.863935 
L 927.427797 127.307742 
L 928.246276 102.553832 
L 928.450896 100.811222 
L 928.655515 103.110501 
L 929.269375 122.608929 
L 929.678614 133.28665 
L 930.087853 139.641676 
L 930.906332 147.403847 
L 931.520192 151.234573 
L 932.134051 153.554266 
L 932.33867 153.808181 
L 932.54329 153.730528 
L 933.157149 153.09523 
L 933.566389 152.880436 
L 933.975628 152.187434 
L 935.612586 148.760988 
L 936.021826 148.740913 
L 936.635685 148.89265 
L 937.044924 149.506574 
L 937.454164 150.111866 
L 937.658783 150.160072 
L 938.068023 149.924906 
L 939.295741 148.803606 
L 939.704981 148.487832 
L 940.31884 148.379107 
L 940.728079 148.583171 
L 941.546558 149.499519 
L 941.751178 149.513204 
L 942.569657 149.063425 
L 942.978896 149.286035 
L 943.388136 149.787816 
L 944.615854 152.435251 
L 945.434333 154.356482 
L 945.843572 154.8663 
L 946.048192 154.902201 
L 946.457432 154.624177 
L 947.071291 153.603909 
L 947.48053 153.131346 
L 947.68515 153.123324 
L 947.88977 153.288207 
L 948.299009 154.226402 
L 948.912868 156.957176 
L 949.322108 158.596049 
L 949.731347 159.512263 
L 951.777544 162.003697 
L 952.186784 162.302037 
L 952.596023 163.065231 
L 953.619122 165.366101 
L 954.028361 165.717746 
L 954.437601 165.639029 
L 954.84684 165.43985 
L 955.05146 165.507017 
L 955.25608 165.806578 
L 956.279178 168.177323 
L 956.483798 168.188439 
L 957.711517 167.294897 
L 957.916136 167.421276 
L 958.325376 168.137453 
L 958.734615 168.90828 
L 959.143855 169.18237 
L 959.348474 169.117547 
L 959.757714 168.585849 
L 960.166953 167.848571 
L 960.371573 167.739291 
L 960.576193 167.901543 
L 961.599291 169.933061 
L 962.213151 171.167216 
L 962.41777 171.198217 
L 963.236249 170.827854 
L 963.440869 171.0742 
L 963.850108 172.239168 
L 964.463968 173.935236 
L 965.487066 176.163906 
L 965.896306 177.038609 
L 966.919404 180.261095 
L 967.328644 180.464683 
L 967.737883 180.673669 
L 968.351742 181.107488 
L 968.556362 181.003725 
L 969.170221 180.396162 
L 969.78408 180.48628 
L 970.807179 180.828154 
L 971.011799 180.632156 
L 971.625658 179.565316 
L 971.830278 179.508518 
L 972.034897 179.683047 
L 972.648757 180.891037 
L 973.262616 182.718685 
L 973.876475 184.935152 
L 974.081095 185.346298 
L 974.285714 185.496793 
L 974.490334 185.451351 
L 974.899574 185.040767 
L 975.718053 183.743328 
L 976.127292 182.608634 
L 976.536531 181.342585 
L 976.741151 181.023403 
L 976.945771 180.985211 
L 977.76425 181.565284 
L 978.173489 182.234325 
L 978.787348 183.451661 
L 979.401208 184.116047 
L 979.810447 184.207326 
L 980.219687 183.928198 
L 980.628926 183.677774 
L 981.038165 183.593734 
L 981.652025 183.346926 
L 982.061264 183.633998 
L 982.470504 183.792554 
L 983.084363 183.436853 
L 983.288982 183.486152 
L 983.493602 183.74483 
L 984.72132 186.307839 
L 984.92594 186.376735 
L 985.13056 186.2322 
L 985.539799 185.513685 
L 986.358278 183.835539 
L 986.562898 183.754611 
L 986.767518 183.902932 
L 987.790616 185.398402 
L 988.609095 185.820391 
L 989.018335 185.879579 
L 989.427574 186.070551 
L 989.632194 185.975506 
L 990.041433 185.178286 
L 990.450673 184.407551 
L 990.655293 184.468302 
L 991.064532 185.628674 
L 991.473771 186.729502 
L 991.883011 187.133363 
L 992.29225 187.060091 
L 993.110729 186.468209 
L 993.929208 186.21993 
L 994.747687 186.668886 
L 995.156927 186.420788 
L 995.361546 186.490259 
L 995.770786 187.194081 
L 996.180025 187.756615 
L 996.589265 187.743993 
L 996.998504 187.628068 
L 997.407744 187.752202 
L 997.816983 188.041428 
L 998.021603 188.056125 
L 998.226222 187.872778 
L 998.840082 186.64826 
L 999.658561 184.959718 
L 1000.27242 184.353517 
L 1000.477039 184.300523 
L 1000.681659 184.436662 
L 1001.090899 185.469178 
L 1001.704758 187.278548 
L 1002.318617 188.769636 
L 1002.932476 190.51234 
L 1003.137096 190.764174 
L 1003.341716 190.701839 
L 1003.546335 190.295419 
L 1004.569434 187.128863 
L 1005.387913 186.522812 
L 1005.797152 186.546546 
L 1006.206392 187.031881 
L 1007.024871 188.310546 
L 1007.22949 188.383875 
L 1007.63873 188.140446 
L 1008.457209 187.271377 
L 1008.866448 186.492421 
L 1009.275688 185.592117 
L 1009.480307 185.345989 
L 1009.684927 185.29915 
L 1010.094167 185.688246 
L 1010.503406 186.209377 
L 1010.912646 186.44096 
L 1011.117265 186.4338 
L 1011.321885 186.238076 
L 1011.731124 185.240301 
L 1012.140364 184.331344 
L 1012.344984 184.271851 
L 1012.754223 184.747807 
L 1013.572702 185.985137 
L 1015.41428 190.60582 
L 1015.618899 190.757825 
L 1016.028139 190.665905 
L 1016.232758 190.619125 
L 1016.641998 190.865004 
L 1017.255857 191.389129 
L 1017.869716 191.731028 
L 1018.074336 191.687236 
L 1018.278956 191.485921 
L 1018.688195 190.644012 
L 1019.302054 189.308375 
L 1019.506674 189.194897 
L 1020.325153 189.267319 
L 1020.734392 189.157018 
L 1021.348252 189.3509 
L 1021.552871 189.216942 
L 1022.78059 187.3919 
L 1023.189829 187.237008 
L 1023.599069 187.271557 
L 1023.803688 187.482704 
L 1024.826787 189.379316 
L 1025.236026 189.516928 
L 1026.259125 190.341046 
L 1026.668364 190.479314 
L 1027.077604 190.840399 
L 1027.486843 191.247413 
L 1027.691463 191.307961 
L 1027.896083 191.217041 
L 1028.305322 190.609633 
L 1028.919181 189.571417 
L 1029.533041 189.375717 
L 1029.94228 189.270179 
L 1030.760759 189.342445 
L 1031.374618 188.490992 
L 1031.579238 188.462098 
L 1032.193097 188.7365 
L 1032.602337 188.842463 
L 1033.011576 189.282668 
L 1034.239294 191.111958 
L 1034.443914 191.248209 
L 1034.648534 191.184115 
L 1035.057773 190.562856 
L 1035.467013 189.764513 
L 1035.876252 188.419834 
L 1036.490111 186.096964 
L 1036.899351 185.482609 
L 1037.30859 185.182766 
L 1037.51321 185.225444 
L 1037.922449 185.870534 
L 1038.945548 188.53994 
L 1040.377886 189.252934 
L 1041.400985 189.008483 
L 1041.810224 188.597596 
L 1042.424083 187.726413 
L 1043.447182 187.540904 
L 1043.651802 187.58196 
L 1044.061041 188.032624 
L 1045.08414 189.21233 
L 1045.493379 189.292797 
L 1046.516478 188.925126 
L 1047.334957 189.117026 
L 1047.744196 189.209572 
L 1048.153436 189.624462 
L 1048.562675 190.323007 
L 1048.767295 190.437852 
L 1048.971915 190.276821 
L 1049.585774 189.429073 
L 1049.995013 189.498429 
L 1050.813492 189.934819 
L 1051.222732 189.96159 
L 1052.041211 190.544541 
L 1052.85969 189.658881 
L 1053.064309 189.639575 
L 1053.268929 189.497976 
L 1053.882788 188.772527 
L 1054.087408 188.813522 
L 1054.496647 189.532075 
L 1054.905887 190.175798 
L 1055.519746 190.308073 
L 1056.338225 191.156741 
L 1057.156704 191.159674 
L 1057.565943 191.974509 
L 1058.179802 193.405785 
L 1058.384422 193.596316 
L 1058.589042 193.535253 
L 1059.202901 192.622956 
L 1059.81676 191.396303 
L 1060.430619 189.962359 
L 1060.635239 189.711882 
L 1060.839859 189.667134 
L 1061.249098 190.019959 
L 1061.658338 190.310071 
L 1061.862957 190.253428 
L 1062.272197 189.726366 
L 1062.681436 189.218232 
L 1063.909155 189.349498 
L 1064.318394 189.602796 
L 1064.727634 189.566167 
L 1065.750732 189.258824 
L 1065.955352 189.277268 
L 1066.159972 189.429496 
L 1067.18307 190.863443 
L 1067.79693 190.918014 
L 1068.410789 191.344669 
L 1068.615408 191.504579 
L 1068.820028 191.515647 
L 1069.024648 191.238213 
L 1069.638507 189.539266 
L 1069.843127 189.342916 
L 1070.456986 189.447841 
L 1070.866225 189.173851 
L 1071.070845 189.250817 
L 1071.889324 190.224402 
L 1072.707803 189.552048 
L 1073.321662 189.813981 
L 1074.549381 190.60156 
L 1075.16324 190.269325 
L 1075.777099 190.029523 
L 1075.981719 190.078886 
L 1076.186338 190.279844 
L 1076.595578 191.189357 
L 1077.209437 192.640996 
L 1077.414057 192.8295 
L 1077.618676 192.857282 
L 1077.823296 192.70813 
L 1078.437155 191.650063 
L 1079.664874 189.286057 
L 1080.074113 189.505566 
L 1080.483353 189.717828 
L 1081.097212 189.738333 
L 1081.506451 190.164551 
L 1081.915691 191.161574 
L 1082.32493 192.366074 
L 1082.52955 192.704392 
L 1082.73417 192.777079 
L 1083.143409 192.438267 
L 1084.371127 190.736561 
L 1084.780367 190.488572 
L 1085.394226 189.790698 
L 1085.598846 189.731884 
L 1086.008085 189.97319 
L 1086.417325 190.314505 
L 1086.621944 190.289241 
L 1087.235804 189.646156 
L 1087.645043 189.361666 
L 1087.849663 189.408186 
L 1088.258902 189.968736 
L 1088.872761 190.994204 
L 1089.282001 191.053345 
L 1089.69124 190.764486 
L 1090.509719 190.059529 
L 1091.123578 189.763826 
L 1091.532818 189.839231 
L 1091.942057 189.908809 
L 1092.351297 189.448351 
L 1092.760536 188.955035 
L 1092.965156 188.9204 
L 1093.374395 189.275296 
L 1093.783635 189.753204 
L 1094.192874 189.858674 
L 1095.215973 189.764831 
L 1095.420593 189.908211 
L 1096.239072 191.137833 
L 1096.852931 190.833218 
L 1097.46679 190.353013 
L 1098.080649 189.754539 
L 1098.899128 189.442743 
L 1099.308367 189.160779 
L 1099.717607 189.226877 
L 1100.331466 189.584961 
L 1100.945325 190.353988 
L 1101.763804 191.360343 
L 1101.968424 191.387073 
L 1102.173044 191.257509 
L 1102.582283 190.501797 
L 1103.605382 187.596417 
L 1103.810001 187.296875 
L 1104.014621 187.29066 
L 1104.219241 187.589412 
L 1105.03772 189.430566 
L 1105.446959 189.719205 
L 1105.651579 189.647711 
L 1106.060818 189.070261 
L 1106.674678 188.069244 
L 1106.879297 187.969017 
L 1107.288537 188.212203 
L 1107.697776 188.56818 
L 1108.516255 188.724369 
L 1108.925495 189.487456 
L 1109.334734 190.525286 
L 1109.539354 190.751766 
L 1109.743974 190.687625 
L 1110.562452 189.532564 
L 1111.585551 189.05918 
L 1111.994791 189.563366 
L 1112.60865 190.34295 
L 1112.813269 190.373713 
L 1113.017889 190.191755 
L 1113.427129 189.180469 
L 1113.836368 188.030482 
L 1114.040988 187.803948 
L 1114.245608 187.832228 
L 1115.268706 188.735379 
L 1115.882565 188.67356 
L 1116.291805 188.950045 
L 1116.701044 189.251495 
L 1117.724143 189.554272 
L 1118.133382 189.80338 
L 1118.542622 189.810257 
L 1118.951861 189.508454 
L 1119.361101 188.74474 
L 1119.97496 187.475172 
L 1120.17958 187.398335 
L 1121.202678 187.672088 
L 1121.611918 187.472455 
L 1122.021157 187.592019 
L 1123.248876 188.546243 
L 1123.658115 188.468015 
L 1124.067354 188.392744 
L 1124.885833 189.075196 
L 1125.090453 189.026039 
L 1125.908932 188.358795 
L 1126.113552 188.55245 
L 1126.727411 189.581156 
L 1126.932031 189.604282 
L 1127.54589 189.018136 
L 1128.159749 189.102212 
L 1128.568988 188.602397 
L 1129.592087 186.715342 
L 1130.001327 186.449461 
L 1130.205946 186.45619 
L 1131.024425 186.984653 
L 1131.433665 186.948647 
L 1131.638284 187.160612 
L 1132.661383 189.0421 
L 1132.866003 189.136694 
L 1133.275242 188.898774 
L 1133.684482 188.495936 
L 1133.889101 188.440331 
L 1134.70758 188.693571 
L 1134.9122 188.430722 
L 1135.526059 187.21493 
L 1135.730679 187.141965 
L 1137.367637 187.763309 
L 1137.572256 187.539445 
L 1137.981496 186.40436 
L 1138.390735 185.388742 
L 1138.595355 185.334674 
L 1138.799975 185.63332 
L 1139.823073 187.94117 
L 1140.232313 188.326881 
L 1141.255411 188.778481 
L 1142.07389 189.833887 
L 1142.68775 190.962594 
L 1142.892369 190.956047 
L 1143.301609 190.548163 
L 1143.915468 189.653553 
L 1144.324707 189.447781 
L 1144.733947 189.426356 
L 1145.143186 189.625948 
L 1145.757045 190.015264 
L 1146.370905 190.030784 
L 1146.575524 189.903239 
L 1147.189384 188.943854 
L 1147.598623 188.465865 
L 1148.007862 188.233725 
L 1148.212482 188.228566 
L 1148.417102 188.342303 
L 1148.826341 189.069719 
L 1149.440201 190.488811 
L 1149.64482 190.5663 
L 1149.84944 190.388741 
L 1151.077158 188.57643 
L 1151.486398 188.492503 
L 1152.100257 188.597238 
L 1152.918736 187.753201 
L 1153.123356 187.881639 
L 1153.532595 188.563068 
L 1154.555694 190.677159 
L 1154.760313 190.738396 
L 1154.964933 190.604958 
L 1157.01113 187.922495 
L 1157.42037 187.962897 
L 1158.238849 188.357478 
L 1159.671187 190.496681 
L 1160.489666 192.037626 
L 1160.898905 191.791176 
L 1161.308145 191.536034 
L 1161.717384 191.683949 
L 1162.126624 191.986082 
L 1162.331243 192.01054 
L 1162.535863 191.913476 
L 1162.945103 191.357027 
L 1163.354342 190.625041 
L 1163.558962 190.553727 
L 1163.763581 190.815845 
L 1164.172821 191.696409 
L 1164.377441 191.915966 
L 1164.78668 191.875717 
L 1164.9913 191.853642 
L 1165.400539 192.128531 
L 1165.809779 192.416648 
L 1166.423638 192.536249 
L 1167.446737 191.913662 
L 1167.855976 190.933846 
L 1168.265215 189.854038 
L 1168.674455 189.339618 
L 1169.492934 188.573698 
L 1169.902173 188.616141 
L 1170.311413 188.597442 
L 1170.720652 188.061751 
L 1171.129892 187.578099 
L 1171.334511 187.637842 
L 1171.743751 188.381464 
L 1172.15299 189.117194 
L 1172.56223 189.34284 
L 1173.176089 189.368136 
L 1173.585328 189.226996 
L 1173.789948 189.328387 
L 1174.199188 190.055855 
L 1174.608427 190.736395 
L 1174.813047 190.799296 
L 1175.426906 190.382827 
L 1175.631526 190.532487 
L 1176.040765 191.165402 
L 1176.245385 191.214803 
L 1176.654624 190.907137 
L 1176.859244 190.913549 
L 1177.268483 191.305373 
L 1177.677723 192.047626 
L 1178.700821 194.187404 
L 1178.905441 194.552906 
L 1179.110061 194.686459 
L 1179.314681 194.464463 
L 1180.951638 190.569917 
L 1181.974737 188.909636 
L 1182.588596 187.894585 
L 1182.793216 187.873205 
L 1183.202455 188.308258 
L 1183.611695 188.627028 
L 1183.816315 188.525748 
L 1184.634794 187.513256 
L 1184.839413 187.562393 
L 1184.839413 187.562393 
" clip-path="url(#p1b8113ab54)" style="fill: none; stroke: #000000; stroke-width: 2; stroke-linecap: square"/>
   </g>
   <g id="patch_3">
    <path d="M 3.00024 198.907885 
L 1184.99976 198.907885 
" style="fill: none; stroke: #000000; stroke-width: 2; stroke-linejoin: miter; stroke-linecap: square"/>
   </g>
  </g>
 </g>
 <defs>
  <clipPath id="p1b8113ab54">
   <rect x="3.00024" y="3.00024" width="1181.99952" height="195.907645"/>
  </clipPath>
 </defs>
</svg>
