<?xml version="1.0" encoding="utf-8" standalone="no"?>
<!DOCTYPE svg PUBLIC "-//W3C//DTD SVG 1.1//EN"
  "http://www.w3.org/Graphics/SVG/1.1/DTD/svg11.dtd">
<svg xmlns:xlink="http://www.w3.org/1999/xlink" width="1188pt" height="252pt" viewBox="0 0 1188 252" xmlns="http://www.w3.org/2000/svg" version="1.1">
 <metadata>
  <rdf:RDF xmlns:dc="http://purl.org/dc/elements/1.1/" xmlns:cc="http://creativecommons.org/ns#" xmlns:rdf="http://www.w3.org/1999/02/22-rdf-syntax-ns#">
   <cc:Work>
    <dc:type rdf:resource="http://purl.org/dc/dcmitype/StillImage"/>
    <dc:date>2024-06-17T22:43:00.831763</dc:date>
    <dc:format>image/svg+xml</dc:format>
    <dc:creator>
     <cc:Agent>
      <dc:title>Matplotlib v3.8.4, https://matplotlib.org/</dc:title>
     </cc:Agent>
    </dc:creator>
   </cc:Work>
  </rdf:RDF>
 </metadata>
 <defs>
  <style type="text/css">*{stroke-linejoin: round; stroke-linecap: butt}</style>
 </defs>
 <g id="figure_1">
  <g id="patch_1">
   <path d="M 0 252 
L 1188 252 
L 1188 0 
L 0 0 
z
" style="fill: #ffffff"/>
  </g>
  <g id="axes_1">
   <g id="patch_2">
    <path d="M 3.00024 198.907885 
L 1184.99976 198.907885 
L 1184.99976 3.00024 
L 3.00024 3.00024 
z
" style="fill: #ffffff"/>
   </g>
   <g id="matplotlib.axis_1">
    <g id="xtick_1">
     <g id="line2d_1">
      <defs>
       <path id="m916dc41af5" d="M 0 0 
L 0 8 
" style="stroke: #000000; stroke-width: 2"/>
      </defs>
      <g>
       <use xlink:href="#m916dc41af5" x="1131.272509" y="198.907885" style="stroke: #000000; stroke-width: 2"/>
      </g>
     </g>
     <g id="text_1">
      <!-- 0 -->
      <g transform="translate(1126.267665 224.791947) scale(0.18 -0.18)">
       <defs>
        <path id="Arial-BoldMT-30" d="M 1756 4600 
Q 2422 4600 2797 4125 
Q 3244 3563 3244 2259 
Q 3244 959 2794 391 
Q 2422 -78 1756 -78 
Q 1088 -78 678 436 
Q 269 950 269 2269 
Q 269 3563 719 4131 
Q 1091 4600 1756 4600 
z
M 1756 3872 
Q 1597 3872 1472 3770 
Q 1347 3669 1278 3406 
Q 1188 3066 1188 2259 
Q 1188 1453 1269 1151 
Q 1350 850 1473 750 
Q 1597 650 1756 650 
Q 1916 650 2041 751 
Q 2166 853 2234 1116 
Q 2325 1453 2325 2259 
Q 2325 3066 2244 3367 
Q 2163 3669 2039 3770 
Q 1916 3872 1756 3872 
z
" transform="scale(0.015625)"/>
       </defs>
       <use xlink:href="#Arial-BoldMT-30"/>
      </g>
     </g>
    </g>
    <g id="xtick_2">
     <g id="line2d_2">
      <g>
       <use xlink:href="#m916dc41af5" x="1023.818007" y="198.907885" style="stroke: #000000; stroke-width: 2"/>
      </g>
     </g>
     <g id="text_2">
      <!-- 1 -->
      <g transform="translate(1018.813164 224.791947) scale(0.18 -0.18)">
       <defs>
        <path id="Arial-BoldMT-31" d="M 2519 0 
L 1641 0 
L 1641 3309 
Q 1159 2859 506 2644 
L 506 3441 
Q 850 3553 1253 3867 
Q 1656 4181 1806 4600 
L 2519 4600 
L 2519 0 
z
" transform="scale(0.015625)"/>
       </defs>
       <use xlink:href="#Arial-BoldMT-31"/>
      </g>
     </g>
    </g>
    <g id="xtick_3">
     <g id="line2d_3">
      <g>
       <use xlink:href="#m916dc41af5" x="916.363505" y="198.907885" style="stroke: #000000; stroke-width: 2"/>
      </g>
     </g>
     <g id="text_3">
      <!-- 2 -->
      <g transform="translate(911.358662 224.791947) scale(0.18 -0.18)">
       <defs>
        <path id="Arial-BoldMT-32" d="M 3238 816 
L 3238 0 
L 159 0 
Q 209 463 459 877 
Q 709 1291 1447 1975 
Q 2041 2528 2175 2725 
Q 2356 2997 2356 3263 
Q 2356 3556 2198 3714 
Q 2041 3872 1763 3872 
Q 1488 3872 1325 3706 
Q 1163 3541 1138 3156 
L 263 3244 
Q 341 3969 753 4284 
Q 1166 4600 1784 4600 
Q 2463 4600 2850 4234 
Q 3238 3869 3238 3325 
Q 3238 3016 3127 2736 
Q 3016 2456 2775 2150 
Q 2616 1947 2200 1565 
Q 1784 1184 1673 1059 
Q 1563 934 1494 816 
L 3238 816 
z
" transform="scale(0.015625)"/>
       </defs>
       <use xlink:href="#Arial-BoldMT-32"/>
      </g>
     </g>
    </g>
    <g id="xtick_4">
     <g id="line2d_4">
      <g>
       <use xlink:href="#m916dc41af5" x="808.909004" y="198.907885" style="stroke: #000000; stroke-width: 2"/>
      </g>
     </g>
     <g id="text_4">
      <!-- 3 -->
      <g transform="translate(803.90416 224.791947) scale(0.18 -0.18)">
       <defs>
        <path id="Arial-BoldMT-33" d="M 241 1216 
L 1091 1319 
Q 1131 994 1309 822 
Q 1488 650 1741 650 
Q 2013 650 2198 856 
Q 2384 1063 2384 1413 
Q 2384 1744 2206 1937 
Q 2028 2131 1772 2131 
Q 1603 2131 1369 2066 
L 1466 2781 
Q 1822 2772 2009 2936 
Q 2197 3100 2197 3372 
Q 2197 3603 2059 3740 
Q 1922 3878 1694 3878 
Q 1469 3878 1309 3722 
Q 1150 3566 1116 3266 
L 306 3403 
Q 391 3819 561 4067 
Q 731 4316 1036 4458 
Q 1341 4600 1719 4600 
Q 2366 4600 2756 4188 
Q 3078 3850 3078 3425 
Q 3078 2822 2419 2463 
Q 2813 2378 3048 2084 
Q 3284 1791 3284 1375 
Q 3284 772 2843 347 
Q 2403 -78 1747 -78 
Q 1125 -78 715 280 
Q 306 638 241 1216 
z
" transform="scale(0.015625)"/>
       </defs>
       <use xlink:href="#Arial-BoldMT-33"/>
      </g>
     </g>
    </g>
    <g id="xtick_5">
     <g id="line2d_5">
      <g>
       <use xlink:href="#m916dc41af5" x="701.454502" y="198.907885" style="stroke: #000000; stroke-width: 2"/>
      </g>
     </g>
     <g id="text_5">
      <!-- 4 -->
      <g transform="translate(696.449658 224.791947) scale(0.18 -0.18)">
       <defs>
        <path id="Arial-BoldMT-34" d="M 1994 0 
L 1994 922 
L 119 922 
L 119 1691 
L 2106 4600 
L 2844 4600 
L 2844 1694 
L 3413 1694 
L 3413 922 
L 2844 922 
L 2844 0 
L 1994 0 
z
M 1994 1694 
L 1994 3259 
L 941 1694 
L 1994 1694 
z
" transform="scale(0.015625)"/>
       </defs>
       <use xlink:href="#Arial-BoldMT-34"/>
      </g>
     </g>
    </g>
    <g id="xtick_6">
     <g id="line2d_6">
      <g>
       <use xlink:href="#m916dc41af5" x="594" y="198.907885" style="stroke: #000000; stroke-width: 2"/>
      </g>
     </g>
     <g id="text_6">
      <!-- 5 -->
      <g transform="translate(588.995156 224.791947) scale(0.18 -0.18)">
       <defs>
        <path id="Arial-BoldMT-35" d="M 284 1178 
L 1159 1269 
Q 1197 972 1381 798 
Q 1566 625 1806 625 
Q 2081 625 2272 848 
Q 2463 1072 2463 1522 
Q 2463 1944 2273 2155 
Q 2084 2366 1781 2366 
Q 1403 2366 1103 2031 
L 391 2134 
L 841 4519 
L 3163 4519 
L 3163 3697 
L 1506 3697 
L 1369 2919 
Q 1663 3066 1969 3066 
Q 2553 3066 2959 2641 
Q 3366 2216 3366 1538 
Q 3366 972 3038 528 
Q 2591 -78 1797 -78 
Q 1163 -78 763 262 
Q 363 603 284 1178 
z
" transform="scale(0.015625)"/>
       </defs>
       <use xlink:href="#Arial-BoldMT-35"/>
      </g>
     </g>
    </g>
    <g id="xtick_7">
     <g id="line2d_7">
      <g>
       <use xlink:href="#m916dc41af5" x="486.545498" y="198.907885" style="stroke: #000000; stroke-width: 2"/>
      </g>
     </g>
     <g id="text_7">
      <!-- 6 -->
      <g transform="translate(481.540654 224.791947) scale(0.18 -0.18)">
       <defs>
        <path id="Arial-BoldMT-36" d="M 3247 3459 
L 2397 3366 
Q 2366 3628 2234 3753 
Q 2103 3878 1894 3878 
Q 1616 3878 1423 3628 
Q 1231 3378 1181 2588 
Q 1509 2975 1997 2975 
Q 2547 2975 2939 2556 
Q 3331 2138 3331 1475 
Q 3331 772 2918 347 
Q 2506 -78 1859 -78 
Q 1166 -78 719 461 
Q 272 1000 272 2228 
Q 272 3488 737 4044 
Q 1203 4600 1947 4600 
Q 2469 4600 2811 4308 
Q 3153 4016 3247 3459 
z
M 1256 1544 
Q 1256 1116 1453 883 
Q 1650 650 1903 650 
Q 2147 650 2309 840 
Q 2472 1031 2472 1466 
Q 2472 1913 2297 2120 
Q 2122 2328 1859 2328 
Q 1606 2328 1431 2129 
Q 1256 1931 1256 1544 
z
" transform="scale(0.015625)"/>
       </defs>
       <use xlink:href="#Arial-BoldMT-36"/>
      </g>
     </g>
    </g>
    <g id="xtick_8">
     <g id="line2d_8">
      <g>
       <use xlink:href="#m916dc41af5" x="379.090996" y="198.907885" style="stroke: #000000; stroke-width: 2"/>
      </g>
     </g>
     <g id="text_8">
      <!-- 7 -->
      <g transform="translate(374.086153 224.791947) scale(0.18 -0.18)">
       <defs>
        <path id="Arial-BoldMT-37" d="M 272 3703 
L 272 4519 
L 3275 4519 
L 3275 3881 
Q 2903 3516 2518 2831 
Q 2134 2147 1932 1376 
Q 1731 606 1734 0 
L 888 0 
Q 909 950 1279 1937 
Q 1650 2925 2269 3703 
L 272 3703 
z
" transform="scale(0.015625)"/>
       </defs>
       <use xlink:href="#Arial-BoldMT-37"/>
      </g>
     </g>
    </g>
    <g id="xtick_9">
     <g id="line2d_9">
      <g>
       <use xlink:href="#m916dc41af5" x="271.636495" y="198.907885" style="stroke: #000000; stroke-width: 2"/>
      </g>
     </g>
     <g id="text_9">
      <!-- 8 -->
      <g transform="translate(266.631651 224.791947) scale(0.18 -0.18)">
       <defs>
        <path id="Arial-BoldMT-38" d="M 1025 2472 
Q 684 2616 529 2867 
Q 375 3119 375 3419 
Q 375 3931 733 4265 
Q 1091 4600 1750 4600 
Q 2403 4600 2764 4265 
Q 3125 3931 3125 3419 
Q 3125 3100 2959 2851 
Q 2794 2603 2494 2472 
Q 2875 2319 3073 2025 
Q 3272 1731 3272 1347 
Q 3272 713 2867 316 
Q 2463 -81 1791 -81 
Q 1166 -81 750 247 
Q 259 634 259 1309 
Q 259 1681 443 1992 
Q 628 2303 1025 2472 
z
M 1206 3356 
Q 1206 3094 1354 2947 
Q 1503 2800 1750 2800 
Q 2000 2800 2150 2948 
Q 2300 3097 2300 3359 
Q 2300 3606 2151 3754 
Q 2003 3903 1759 3903 
Q 1506 3903 1356 3753 
Q 1206 3603 1206 3356 
z
M 1125 1394 
Q 1125 1031 1311 828 
Q 1497 625 1775 625 
Q 2047 625 2225 820 
Q 2403 1016 2403 1384 
Q 2403 1706 2222 1901 
Q 2041 2097 1763 2097 
Q 1441 2097 1283 1875 
Q 1125 1653 1125 1394 
z
" transform="scale(0.015625)"/>
       </defs>
       <use xlink:href="#Arial-BoldMT-38"/>
      </g>
     </g>
    </g>
    <g id="xtick_10">
     <g id="line2d_10">
      <g>
       <use xlink:href="#m916dc41af5" x="164.181993" y="198.907885" style="stroke: #000000; stroke-width: 2"/>
      </g>
     </g>
     <g id="text_10">
      <!-- 9 -->
      <g transform="translate(159.177149 224.791947) scale(0.18 -0.18)">
       <defs>
        <path id="Arial-BoldMT-39" d="M 291 1059 
L 1141 1153 
Q 1172 894 1303 769 
Q 1434 644 1650 644 
Q 1922 644 2112 894 
Q 2303 1144 2356 1931 
Q 2025 1547 1528 1547 
Q 988 1547 595 1964 
Q 203 2381 203 3050 
Q 203 3747 617 4173 
Q 1031 4600 1672 4600 
Q 2369 4600 2816 4061 
Q 3263 3522 3263 2288 
Q 3263 1031 2797 475 
Q 2331 -81 1584 -81 
Q 1047 -81 715 205 
Q 384 491 291 1059 
z
M 2278 2978 
Q 2278 3403 2083 3637 
Q 1888 3872 1631 3872 
Q 1388 3872 1227 3680 
Q 1066 3488 1066 3050 
Q 1066 2606 1241 2398 
Q 1416 2191 1678 2191 
Q 1931 2191 2104 2391 
Q 2278 2591 2278 2978 
z
" transform="scale(0.015625)"/>
       </defs>
       <use xlink:href="#Arial-BoldMT-39"/>
      </g>
     </g>
    </g>
    <g id="xtick_11">
     <g id="line2d_11">
      <g>
       <use xlink:href="#m916dc41af5" x="56.727491" y="198.907885" style="stroke: #000000; stroke-width: 2"/>
      </g>
     </g>
     <g id="text_11">
      <!-- 10 -->
      <g transform="translate(46.717803 224.791947) scale(0.18 -0.18)">
       <use xlink:href="#Arial-BoldMT-31"/>
       <use xlink:href="#Arial-BoldMT-30" x="55.615234"/>
      </g>
     </g>
    </g>
    <g id="text_12">
     <!-- Chemical Shift / ppm -->
     <g transform="translate(504.992813 245.447573) scale(0.18 -0.18)">
      <defs>
       <path id="Arial-BoldMT-43" d="M 3397 1684 
L 4294 1400 
Q 4088 650 3608 286 
Q 3128 -78 2391 -78 
Q 1478 -78 890 545 
Q 303 1169 303 2250 
Q 303 3394 893 4026 
Q 1484 4659 2447 4659 
Q 3288 4659 3813 4163 
Q 4125 3869 4281 3319 
L 3366 3100 
Q 3284 3456 3026 3662 
Q 2769 3869 2400 3869 
Q 1891 3869 1573 3503 
Q 1256 3138 1256 2319 
Q 1256 1450 1568 1081 
Q 1881 713 2381 713 
Q 2750 713 3015 947 
Q 3281 1181 3397 1684 
z
" transform="scale(0.015625)"/>
       <path id="Arial-BoldMT-68" d="M 1334 4581 
L 1334 2897 
Q 1759 3394 2350 3394 
Q 2653 3394 2897 3281 
Q 3141 3169 3264 2994 
Q 3388 2819 3433 2606 
Q 3478 2394 3478 1947 
L 3478 0 
L 2600 0 
L 2600 1753 
Q 2600 2275 2550 2415 
Q 2500 2556 2373 2639 
Q 2247 2722 2056 2722 
Q 1838 2722 1666 2615 
Q 1494 2509 1414 2295 
Q 1334 2081 1334 1663 
L 1334 0 
L 456 0 
L 456 4581 
L 1334 4581 
z
" transform="scale(0.015625)"/>
       <path id="Arial-BoldMT-65" d="M 2381 1056 
L 3256 909 
Q 3088 428 2723 176 
Q 2359 -75 1813 -75 
Q 947 -75 531 491 
Q 203 944 203 1634 
Q 203 2459 634 2926 
Q 1066 3394 1725 3394 
Q 2466 3394 2894 2905 
Q 3322 2416 3303 1406 
L 1103 1406 
Q 1113 1016 1316 798 
Q 1519 581 1822 581 
Q 2028 581 2168 693 
Q 2309 806 2381 1056 
z
M 2431 1944 
Q 2422 2325 2234 2523 
Q 2047 2722 1778 2722 
Q 1491 2722 1303 2513 
Q 1116 2303 1119 1944 
L 2431 1944 
z
" transform="scale(0.015625)"/>
       <path id="Arial-BoldMT-6d" d="M 394 3319 
L 1203 3319 
L 1203 2866 
Q 1638 3394 2238 3394 
Q 2556 3394 2790 3262 
Q 3025 3131 3175 2866 
Q 3394 3131 3647 3262 
Q 3900 3394 4188 3394 
Q 4553 3394 4806 3245 
Q 5059 3097 5184 2809 
Q 5275 2597 5275 2122 
L 5275 0 
L 4397 0 
L 4397 1897 
Q 4397 2391 4306 2534 
Q 4184 2722 3931 2722 
Q 3747 2722 3584 2609 
Q 3422 2497 3350 2280 
Q 3278 2063 3278 1594 
L 3278 0 
L 2400 0 
L 2400 1819 
Q 2400 2303 2353 2443 
Q 2306 2584 2207 2653 
Q 2109 2722 1941 2722 
Q 1738 2722 1575 2612 
Q 1413 2503 1342 2297 
Q 1272 2091 1272 1613 
L 1272 0 
L 394 0 
L 394 3319 
z
" transform="scale(0.015625)"/>
       <path id="Arial-BoldMT-69" d="M 459 3769 
L 459 4581 
L 1338 4581 
L 1338 3769 
L 459 3769 
z
M 459 0 
L 459 3319 
L 1338 3319 
L 1338 0 
L 459 0 
z
" transform="scale(0.015625)"/>
       <path id="Arial-BoldMT-63" d="M 3353 2338 
L 2488 2181 
Q 2444 2441 2289 2572 
Q 2134 2703 1888 2703 
Q 1559 2703 1364 2476 
Q 1169 2250 1169 1719 
Q 1169 1128 1367 884 
Q 1566 641 1900 641 
Q 2150 641 2309 783 
Q 2469 925 2534 1272 
L 3397 1125 
Q 3263 531 2881 228 
Q 2500 -75 1859 -75 
Q 1131 -75 698 384 
Q 266 844 266 1656 
Q 266 2478 700 2936 
Q 1134 3394 1875 3394 
Q 2481 3394 2839 3133 
Q 3197 2872 3353 2338 
z
" transform="scale(0.015625)"/>
       <path id="Arial-BoldMT-61" d="M 1116 2306 
L 319 2450 
Q 453 2931 781 3162 
Q 1109 3394 1756 3394 
Q 2344 3394 2631 3255 
Q 2919 3116 3036 2902 
Q 3153 2688 3153 2116 
L 3144 1091 
Q 3144 653 3186 445 
Q 3228 238 3344 0 
L 2475 0 
Q 2441 88 2391 259 
Q 2369 338 2359 363 
Q 2134 144 1878 34 
Q 1622 -75 1331 -75 
Q 819 -75 523 203 
Q 228 481 228 906 
Q 228 1188 362 1408 
Q 497 1628 739 1745 
Q 981 1863 1438 1950 
Q 2053 2066 2291 2166 
L 2291 2253 
Q 2291 2506 2166 2614 
Q 2041 2722 1694 2722 
Q 1459 2722 1328 2630 
Q 1197 2538 1116 2306 
z
M 2291 1594 
Q 2122 1538 1756 1459 
Q 1391 1381 1278 1306 
Q 1106 1184 1106 997 
Q 1106 813 1243 678 
Q 1381 544 1594 544 
Q 1831 544 2047 700 
Q 2206 819 2256 991 
Q 2291 1103 2291 1419 
L 2291 1594 
z
" transform="scale(0.015625)"/>
       <path id="Arial-BoldMT-6c" d="M 459 0 
L 459 4581 
L 1338 4581 
L 1338 0 
L 459 0 
z
" transform="scale(0.015625)"/>
       <path id="Arial-BoldMT-20" transform="scale(0.015625)"/>
       <path id="Arial-BoldMT-53" d="M 231 1491 
L 1131 1578 
Q 1213 1125 1461 912 
Q 1709 700 2131 700 
Q 2578 700 2804 889 
Q 3031 1078 3031 1331 
Q 3031 1494 2936 1608 
Q 2841 1722 2603 1806 
Q 2441 1863 1863 2006 
Q 1119 2191 819 2459 
Q 397 2838 397 3381 
Q 397 3731 595 4036 
Q 794 4341 1167 4500 
Q 1541 4659 2069 4659 
Q 2931 4659 3367 4281 
Q 3803 3903 3825 3272 
L 2900 3231 
Q 2841 3584 2645 3739 
Q 2450 3894 2059 3894 
Q 1656 3894 1428 3728 
Q 1281 3622 1281 3444 
Q 1281 3281 1419 3166 
Q 1594 3019 2269 2859 
Q 2944 2700 3267 2529 
Q 3591 2359 3773 2064 
Q 3956 1769 3956 1334 
Q 3956 941 3737 597 
Q 3519 253 3119 86 
Q 2719 -81 2122 -81 
Q 1253 -81 787 320 
Q 322 722 231 1491 
z
" transform="scale(0.015625)"/>
       <path id="Arial-BoldMT-66" d="M 75 3319 
L 563 3319 
L 563 3569 
Q 563 3988 652 4194 
Q 741 4400 980 4529 
Q 1219 4659 1584 4659 
Q 1959 4659 2319 4547 
L 2200 3934 
Q 1991 3984 1797 3984 
Q 1606 3984 1523 3895 
Q 1441 3806 1441 3553 
L 1441 3319 
L 2097 3319 
L 2097 2628 
L 1441 2628 
L 1441 0 
L 563 0 
L 563 2628 
L 75 2628 
L 75 3319 
z
" transform="scale(0.015625)"/>
       <path id="Arial-BoldMT-74" d="M 1981 3319 
L 1981 2619 
L 1381 2619 
L 1381 1281 
Q 1381 875 1398 808 
Q 1416 741 1477 697 
Q 1538 653 1625 653 
Q 1747 653 1978 738 
L 2053 56 
Q 1747 -75 1359 -75 
Q 1122 -75 931 4 
Q 741 84 652 211 
Q 563 338 528 553 
Q 500 706 500 1172 
L 500 2619 
L 97 2619 
L 97 3319 
L 500 3319 
L 500 3978 
L 1381 4491 
L 1381 3319 
L 1981 3319 
z
" transform="scale(0.015625)"/>
       <path id="Arial-BoldMT-2f" d="M -9 -78 
L 1125 4659 
L 1784 4659 
L 638 -78 
L -9 -78 
z
" transform="scale(0.015625)"/>
       <path id="Arial-BoldMT-70" d="M 434 3319 
L 1253 3319 
L 1253 2831 
Q 1413 3081 1684 3237 
Q 1956 3394 2288 3394 
Q 2866 3394 3269 2941 
Q 3672 2488 3672 1678 
Q 3672 847 3265 386 
Q 2859 -75 2281 -75 
Q 2006 -75 1782 34 
Q 1559 144 1313 409 
L 1313 -1263 
L 434 -1263 
L 434 3319 
z
M 1303 1716 
Q 1303 1156 1525 889 
Q 1747 622 2066 622 
Q 2372 622 2575 867 
Q 2778 1113 2778 1672 
Q 2778 2194 2568 2447 
Q 2359 2700 2050 2700 
Q 1728 2700 1515 2451 
Q 1303 2203 1303 1716 
z
" transform="scale(0.015625)"/>
      </defs>
      <use xlink:href="#Arial-BoldMT-43"/>
      <use xlink:href="#Arial-BoldMT-68" x="72.216797"/>
      <use xlink:href="#Arial-BoldMT-65" x="133.300781"/>
      <use xlink:href="#Arial-BoldMT-6d" x="188.916016"/>
      <use xlink:href="#Arial-BoldMT-69" x="277.832031"/>
      <use xlink:href="#Arial-BoldMT-63" x="305.615234"/>
      <use xlink:href="#Arial-BoldMT-61" x="361.230469"/>
      <use xlink:href="#Arial-BoldMT-6c" x="416.845703"/>
      <use xlink:href="#Arial-BoldMT-20" x="444.628906"/>
      <use xlink:href="#Arial-BoldMT-53" x="472.412109"/>
      <use xlink:href="#Arial-BoldMT-68" x="539.111328"/>
      <use xlink:href="#Arial-BoldMT-69" x="600.195312"/>
      <use xlink:href="#Arial-BoldMT-66" x="627.978516"/>
      <use xlink:href="#Arial-BoldMT-74" x="661.279297"/>
      <use xlink:href="#Arial-BoldMT-20" x="694.580078"/>
      <use xlink:href="#Arial-BoldMT-2f" x="722.363281"/>
      <use xlink:href="#Arial-BoldMT-20" x="750.146484"/>
      <use xlink:href="#Arial-BoldMT-70" x="777.929688"/>
      <use xlink:href="#Arial-BoldMT-70" x="839.013672"/>
      <use xlink:href="#Arial-BoldMT-6d" x="900.097656"/>
     </g>
    </g>
   </g>
   <g id="matplotlib.axis_2"/>
   <g id="line2d_12">
    <path d="M 3.098946 192.465287 
L 3.917425 194.178507 
L 4.122045 194.273334 
L 4.326665 194.108572 
L 4.940524 193.167355 
L 5.349763 192.970983 
L 5.963622 192.229654 
L 6.168242 192.387131 
L 6.577482 192.962463 
L 6.782101 193.076072 
L 6.986721 192.978219 
L 7.395961 192.262303 
L 7.8052 191.568588 
L 8.00982 191.565073 
L 8.828299 192.592938 
L 9.032918 192.325828 
L 9.851397 190.448622 
L 10.056017 190.592753 
L 10.465256 192.005002 
L 10.874496 193.328346 
L 11.692975 195.158637 
L 11.897595 195.039498 
L 12.511454 193.872878 
L 12.716073 193.808808 
L 12.920693 194.035232 
L 13.534552 195.236631 
L 13.739172 195.340851 
L 14.148412 195.104507 
L 14.762271 194.297499 
L 14.96689 194.273171 
L 15.58075 194.726702 
L 15.785369 194.691768 
L 15.989989 194.40821 
L 16.399229 192.859624 
L 17.422327 187.385681 
L 17.626947 186.817178 
L 17.831567 186.655853 
L 18.036186 186.961817 
L 18.650046 188.518498 
L 19.263905 188.327709 
L 20.287003 189.821889 
L 20.491623 189.772634 
L 21.514722 188.445147 
L 21.923961 188.837869 
L 22.333201 189.408671 
L 22.74244 189.520368 
L 22.94706 189.531602 
L 23.356299 189.885823 
L 23.970158 190.540613 
L 24.788637 192.424878 
L 25.197877 192.696063 
L 25.607116 193.655814 
L 26.016356 194.564749 
L 26.425595 194.889122 
L 26.834835 194.967665 
L 27.039454 194.770363 
L 27.244074 194.14985 
L 27.653313 191.436291 
L 28.267173 187.386397 
L 28.676412 186.335992 
L 29.085652 186.107527 
L 29.290271 186.199182 
L 29.699511 187.05508 
L 30.10875 187.799679 
L 30.31337 187.659221 
L 30.722609 186.499403 
L 31.131849 185.414784 
L 31.336469 185.161756 
L 31.541088 185.166329 
L 31.745708 185.516912 
L 32.564187 187.782915 
L 32.973426 188.134096 
L 33.178046 188.187553 
L 33.996525 188.884452 
L 34.405764 188.919473 
L 34.815004 189.078414 
L 35.633483 188.745264 
L 35.838103 188.887064 
L 36.247342 189.812741 
L 37.065821 192.20889 
L 37.47506 192.619208 
L 38.08892 192.732083 
L 38.293539 192.520672 
L 38.907398 191.198797 
L 39.112018 191.130026 
L 39.930497 191.52894 
L 40.339737 191.634416 
L 40.544356 191.827666 
L 40.953596 192.828294 
L 41.362835 194.025569 
L 41.567455 194.335516 
L 41.772075 194.422239 
L 41.976694 194.279225 
L 42.385934 193.237718 
L 42.795173 192.095507 
L 43.204413 191.600995 
L 43.613652 191.428713 
L 44.432131 191.733504 
L 44.841371 191.235223 
L 46.478328 188.445684 
L 46.682948 188.408763 
L 46.887568 188.592553 
L 47.296807 189.545329 
L 48.115286 192.043182 
L 48.524526 192.218344 
L 48.729145 192.092541 
L 49.547624 191.017355 
L 49.752244 190.986436 
L 49.956864 190.779605 
L 50.366103 189.531031 
L 50.979962 187.031015 
L 51.389202 186.171123 
L 52.003061 185.93577 
L 52.207681 185.359768 
L 52.61692 182.918162 
L 53.230779 179.185612 
L 54.049258 176.495461 
L 54.458498 173.435064 
L 54.867737 167.100629 
L 55.686216 149.550305 
L 55.890836 147.281646 
L 56.095456 146.718569 
L 56.300075 147.983374 
L 56.709315 155.184265 
L 57.527794 173.747425 
L 58.141653 181.504198 
L 58.755512 186.853977 
L 59.164751 188.91799 
L 59.573991 189.871893 
L 59.778611 189.941719 
L 60.18785 189.700302 
L 60.39247 189.738097 
L 61.006329 190.247914 
L 61.210949 190.062495 
L 61.620188 188.802857 
L 62.029428 187.462568 
L 62.234047 187.199034 
L 62.438667 187.21388 
L 63.461766 188.131571 
L 63.871005 189.090329 
L 65.303343 193.518162 
L 65.507963 193.619162 
L 65.712583 193.338903 
L 66.326442 192.063085 
L 67.55416 191.38914 
L 67.9634 191.787905 
L 68.168019 192.01328 
L 68.372639 192.044868 
L 68.577259 191.813334 
L 69.191118 190.708477 
L 69.804977 190.376321 
L 70.009597 190.357944 
L 70.214217 190.57722 
L 70.418836 191.218037 
L 70.828076 193.898784 
L 71.237315 196.914001 
L 71.441935 197.799433 
L 71.646555 198.188305 
L 71.851174 198.231886 
L 72.260414 197.787607 
L 72.874273 197.101372 
L 73.283513 196.837478 
L 73.692752 196.718265 
L 74.511231 196.22543 
L 74.92047 196.075275 
L 75.738949 196.217341 
L 75.943569 195.892636 
L 76.762048 193.330363 
L 76.966668 193.323259 
L 77.375907 194.15499 
L 77.989766 195.585426 
L 78.194386 195.711029 
L 78.399006 195.592159 
L 78.808245 194.706522 
L 79.422104 193.201619 
L 79.831344 192.399516 
L 80.445203 190.364766 
L 81.263682 186.817717 
L 81.468302 186.55381 
L 81.672921 186.708331 
L 81.877541 187.347947 
L 82.286781 190.030048 
L 82.90064 194.387028 
L 83.105259 194.926136 
L 83.309879 194.942618 
L 83.719119 194.084825 
L 84.332978 192.605729 
L 84.742217 191.914103 
L 84.946837 191.886893 
L 85.151457 192.177859 
L 86.788415 196.280403 
L 87.197654 196.920851 
L 87.402274 197.014381 
L 87.606893 196.747094 
L 87.811513 196.025983 
L 88.220753 193.423944 
L 88.629992 190.593713 
L 88.834612 189.902899 
L 89.039232 189.83236 
L 89.448471 190.089557 
L 89.85771 189.387484 
L 90.26695 188.841132 
L 90.47157 188.887172 
L 90.880809 189.301741 
L 91.085429 189.303808 
L 91.699288 188.619687 
L 91.903908 188.957272 
L 92.722387 191.889202 
L 92.927006 192.119071 
L 93.131626 192.070712 
L 93.540866 191.293407 
L 93.950105 189.944809 
L 94.359344 188.369873 
L 94.563964 188.079617 
L 94.768584 188.413786 
L 95.587063 190.975387 
L 95.791683 191.350556 
L 95.996302 191.442842 
L 96.405542 190.84276 
L 96.814781 190.202668 
L 97.224021 188.826883 
L 97.63326 187.628526 
L 97.83788 187.555617 
L 98.247119 187.760023 
L 99.270218 187.259892 
L 100.088697 187.159135 
L 100.497936 187.715084 
L 100.907176 188.187943 
L 101.111795 188.091711 
L 101.521035 187.580009 
L 101.725655 187.572185 
L 101.930274 188.109502 
L 102.748753 192.525383 
L 103.157993 193.018409 
L 103.362612 193.268619 
L 104.181091 195.110981 
L 104.385711 194.972015 
L 104.99957 193.768775 
L 105.20419 193.727419 
L 105.818049 194.424686 
L 106.227289 194.281608 
L 106.636528 194.115025 
L 106.841148 194.261939 
L 107.864246 195.927252 
L 108.068866 195.694552 
L 108.887345 194.114744 
L 109.910444 192.634946 
L 110.728923 189.078196 
L 110.933542 188.911161 
L 111.138162 189.142746 
L 112.36588 192.374238 
L 112.5705 192.632229 
L 112.77512 192.611159 
L 112.97974 192.217257 
L 114.002838 189.063336 
L 114.207458 189.148315 
L 114.616697 190.267329 
L 115.025937 191.113874 
L 115.230557 191.063743 
L 115.639796 190.22923 
L 116.253655 188.761024 
L 116.662895 188.266865 
L 116.867514 188.279145 
L 117.481374 188.852093 
L 117.685993 188.600099 
L 118.095233 186.670539 
L 118.504472 184.927218 
L 118.709092 184.532613 
L 118.913712 184.429085 
L 119.118331 184.60714 
L 119.732191 185.491265 
L 120.14143 185.366198 
L 120.550669 185.011595 
L 120.959909 184.247198 
L 121.369148 183.399319 
L 121.573768 183.387449 
L 121.778388 183.749696 
L 122.187627 185.093164 
L 122.596867 187.093083 
L 123.210726 190.993905 
L 123.415346 191.385567 
L 123.619965 191.298154 
L 124.643064 190.01919 
L 125.052303 189.254429 
L 125.870782 188.472997 
L 126.484642 187.453245 
L 126.689261 187.383715 
L 126.893881 187.467343 
L 127.30312 188.117868 
L 127.71236 188.696558 
L 127.91698 188.513049 
L 128.326219 187.927122 
L 128.530839 187.967956 
L 128.940078 188.381629 
L 129.144698 188.302029 
L 129.553937 187.415734 
L 129.963177 186.59569 
L 130.167797 186.547617 
L 130.986276 187.142017 
L 131.190895 187.184201 
L 131.600135 187.495348 
L 131.804754 187.505029 
L 132.009374 187.33212 
L 132.827853 186.159424 
L 133.237093 186.650355 
L 133.850952 187.203939 
L 134.055571 187.773133 
L 134.669431 190.449881 
L 134.87405 190.709344 
L 135.07867 190.374399 
L 135.48791 188.684945 
L 136.101769 185.877598 
L 136.306388 185.503395 
L 136.511008 185.479228 
L 136.920248 185.772565 
L 137.329487 186.410353 
L 137.943346 188.17043 
L 138.352586 189.113634 
L 138.557205 189.081656 
L 138.966445 188.540365 
L 139.784924 188.266601 
L 140.194163 188.68402 
L 141.421882 190.268336 
L 141.831121 190.69614 
L 142.44498 191.726804 
L 142.6496 191.56974 
L 143.672699 189.041723 
L 144.081938 188.461392 
L 144.286558 188.368282 
L 144.491177 188.521982 
L 144.900417 189.108639 
L 145.105037 189.155048 
L 145.514276 188.56215 
L 145.718896 188.269379 
L 145.923516 188.198161 
L 146.128135 188.385561 
L 146.537375 189.340236 
L 147.151234 191.037904 
L 147.355854 191.184568 
L 147.560473 191.087702 
L 147.765093 190.797862 
L 148.174333 189.635165 
L 148.583572 188.49512 
L 148.788192 188.248381 
L 148.992811 188.306944 
L 149.197431 188.651409 
L 149.606671 190.003333 
L 150.01591 191.603039 
L 150.22053 192.017442 
L 150.42515 192.136027 
L 150.834389 192.102947 
L 151.448248 192.331959 
L 151.652868 192.043222 
L 152.266727 190.461375 
L 153.085206 190.639139 
L 153.494445 190.341839 
L 153.699065 189.98087 
L 154.517544 187.715246 
L 154.722164 187.841948 
L 155.336023 188.49884 
L 155.540643 188.697152 
L 155.745262 189.050267 
L 156.154502 190.430942 
L 156.563741 191.866535 
L 156.972981 192.606293 
L 157.38222 192.940075 
L 157.79146 192.985493 
L 157.996079 192.941607 
L 158.200699 192.771951 
L 160.042277 189.518153 
L 160.451516 188.662065 
L 160.656136 188.537534 
L 161.269995 189.492693 
L 161.474615 189.245263 
L 162.088474 187.551384 
L 162.293094 187.65268 
L 163.111573 189.239758 
L 163.520812 189.825423 
L 163.930052 190.352594 
L 164.134671 190.155341 
L 165.36239 187.574668 
L 165.976249 186.642494 
L 166.180869 186.509618 
L 166.385488 186.597212 
L 167.203967 187.761559 
L 167.613207 187.940139 
L 168.022446 188.263694 
L 168.431686 188.20725 
L 168.636305 188.187753 
L 168.840925 188.405154 
L 169.045545 189.009291 
L 169.864024 192.713546 
L 170.068643 193.007549 
L 170.273263 193.016828 
L 170.682503 192.592376 
L 171.091742 191.723373 
L 171.705601 190.08066 
L 171.910221 189.966472 
L 172.114841 190.26715 
L 172.52408 191.240007 
L 172.7287 191.385858 
L 172.93332 191.229212 
L 173.342559 190.295445 
L 173.751798 189.370559 
L 173.956418 189.222043 
L 174.161038 189.36176 
L 174.570277 189.870716 
L 174.979517 189.953003 
L 175.184137 189.8881 
L 175.388756 189.60595 
L 176.002615 188.072865 
L 176.207235 187.98075 
L 176.411855 188.128249 
L 176.821094 188.840008 
L 177.434954 189.979239 
L 177.639573 189.969864 
L 177.844193 189.621184 
L 178.253432 188.185465 
L 178.867292 185.906839 
L 179.071911 185.695008 
L 179.276531 185.927379 
L 179.685771 186.78859 
L 179.89039 186.811051 
L 180.09501 186.387462 
L 180.504249 184.429711 
L 180.913489 182.233954 
L 181.322728 181.036722 
L 181.731968 180.543647 
L 181.936587 180.569261 
L 182.345827 181.276292 
L 182.550447 181.600418 
L 182.755066 181.60589 
L 183.573545 180.601995 
L 184.187404 180.719181 
L 184.801264 181.046486 
L 185.210503 181.634377 
L 185.824362 182.597616 
L 186.028982 182.736205 
L 186.233602 182.656338 
L 186.642841 182.097124 
L 186.847461 182.056519 
L 187.66594 182.878316 
L 187.87056 182.534997 
L 188.279799 180.766553 
L 189.916757 170.925864 
L 190.939855 168.216373 
L 191.758334 166.400401 
L 192.167574 165.636401 
L 193.190672 165.011049 
L 193.395292 165.077891 
L 193.599912 165.496981 
L 194.009151 167.652922 
L 194.623011 171.822527 
L 194.82763 172.37403 
L 195.03225 172.473875 
L 195.441489 172.222135 
L 195.646109 172.298268 
L 195.850729 172.644482 
L 196.259968 174.183134 
L 196.873828 177.551203 
L 197.283067 178.446456 
L 197.692306 178.777168 
L 198.306166 179.840038 
L 198.510785 179.599995 
L 198.920025 178.924282 
L 199.124645 179.017002 
L 199.533884 180.002118 
L 199.943123 180.90175 
L 200.147743 180.970914 
L 200.352363 180.666204 
L 200.556983 179.893426 
L 200.966222 176.728851 
L 201.580081 169.017063 
L 201.989321 161.587111 
L 202.39856 150.754176 
L 203.012419 128.230718 
L 203.626279 95.732554 
L 204.853997 22.700941 
L 205.263236 11.438426 
L 205.672476 6.33901 
L 206.081715 3.774897 
L 206.286335 3.04425 
L 206.490955 3.00024 
L 206.695574 3.933668 
L 206.900194 6.145298 
L 207.104814 10.091771 
L 207.514053 24.927129 
L 208.332532 72.983823 
L 208.946391 105.901214 
L 209.76487 136.216851 
L 210.37873 151.876883 
L 211.197208 166.109508 
L 211.811068 174.016971 
L 212.424927 178.720596 
L 212.629547 179.589865 
L 212.834166 179.934414 
L 213.448025 179.811406 
L 213.857265 180.621644 
L 214.266504 181.519767 
L 214.880364 182.313728 
L 215.494223 183.412529 
L 215.698842 183.468131 
L 215.903462 183.357834 
L 216.312702 182.66201 
L 216.926561 181.449547 
L 217.131181 181.343736 
L 217.3358 181.488389 
L 217.74504 182.483822 
L 218.563519 184.9581 
L 218.972758 185.740143 
L 219.791237 188.457368 
L 220.609716 191.485474 
L 220.814336 191.732513 
L 221.018955 191.633995 
L 221.428195 190.993716 
L 222.246674 189.069408 
L 222.451293 189.086465 
L 222.860533 189.452659 
L 223.269772 189.429565 
L 223.679012 189.236596 
L 224.292871 188.582564 
L 224.497491 188.515442 
L 224.70211 188.584698 
L 224.90673 188.85539 
L 225.31597 190.153793 
L 226.134448 193.759105 
L 226.543688 194.517564 
L 226.952927 195.003834 
L 227.362167 195.746737 
L 227.566787 195.876569 
L 227.771406 195.68225 
L 228.180646 194.692616 
L 229.817604 189.711127 
L 230.022223 189.663547 
L 230.431463 190.480808 
L 230.840702 191.084732 
L 231.249942 191.016053 
L 231.659181 190.887719 
L 232.068421 190.832311 
L 232.27304 190.616891 
L 232.68228 189.519484 
L 233.091519 188.398219 
L 233.909998 186.751566 
L 234.114618 185.935961 
L 234.523857 182.570888 
L 234.933097 176.443085 
L 235.546956 166.873836 
L 235.751576 165.66005 
L 235.956195 165.51536 
L 236.365435 166.366336 
L 236.570055 166.217678 
L 236.774674 165.365557 
L 237.183914 162.048347 
L 237.593153 158.619052 
L 237.797773 158.102415 
L 238.002393 158.872968 
L 238.411632 164.29843 
L 239.230111 179.036473 
L 239.63935 182.944522 
L 239.84397 183.990085 
L 240.04859 184.404127 
L 240.25321 184.26385 
L 240.867069 182.591414 
L 241.480928 181.070132 
L 242.094787 179.638949 
L 243.117886 176.438247 
L 243.322506 175.216006 
L 243.731745 170.066752 
L 244.140984 160.95741 
L 244.754844 141.769248 
L 245.777942 103.963987 
L 245.982562 101.73848 
L 246.187182 102.217138 
L 246.801041 108.398537 
L 247.005661 108.628937 
L 247.21028 107.181347 
L 247.82414 98.377096 
L 248.028759 97.985963 
L 248.233379 100.686768 
L 248.642618 114.198428 
L 249.461097 146.079492 
L 250.074957 159.542189 
L 250.688816 168.000323 
L 251.098055 171.236338 
L 251.507295 173.112496 
L 251.916534 173.858848 
L 252.121154 173.825133 
L 252.325774 173.527653 
L 253.348872 170.685532 
L 253.758112 168.376023 
L 254.167351 164.203723 
L 254.576591 157.740458 
L 254.98583 148.052595 
L 256.008929 120.532925 
L 256.213548 120.034502 
L 256.622788 123.989079 
L 256.827408 125.874176 
L 257.032027 126.285366 
L 257.236647 124.826034 
L 258.055126 113.075554 
L 258.259746 114.562375 
L 258.668985 125.712557 
L 259.487464 152.698092 
L 259.896703 160.866682 
L 260.305943 165.279831 
L 261.533661 175.264943 
L 262.76138 186.439486 
L 262.965999 186.98656 
L 263.170619 187.053962 
L 263.375239 186.791198 
L 263.989098 185.479896 
L 264.398337 185.186831 
L 264.602957 184.795551 
L 265.012197 183.3432 
L 266.239915 177.472249 
L 267.467633 168.3061 
L 268.081492 161.385914 
L 268.695352 150.242599 
L 269.309211 133.996848 
L 269.92307 110.104008 
L 270.536929 86.056828 
L 271.969267 45.728947 
L 272.173887 43.933754 
L 272.378507 43.912732 
L 272.583126 45.329878 
L 272.992366 50.615872 
L 273.401605 58.959076 
L 273.810845 72.492427 
L 275.038563 119.934337 
L 275.652422 135.786681 
L 276.061662 141.90096 
L 276.470901 144.767555 
L 277.69862 150.001623 
L 277.903239 149.679377 
L 278.107859 148.39929 
L 278.517099 142.866838 
L 279.130958 129.074188 
L 279.949437 109.487979 
L 280.767916 95.009081 
L 281.177155 91.281585 
L 281.381775 90.837473 
L 281.586394 91.640643 
L 281.995634 96.940255 
L 282.609493 110.147746 
L 283.427972 128.66743 
L 284.246451 145.475132 
L 285.06493 163.32688 
L 285.678789 171.584115 
L 286.292648 176.54163 
L 286.906507 179.976168 
L 287.929606 183.887114 
L 288.338845 184.609085 
L 288.748085 184.674738 
L 289.157324 184.773388 
L 289.566564 184.96214 
L 290.794282 186.167476 
L 291.817381 187.799083 
L 292.43124 187.869618 
L 292.840479 188.306432 
L 293.249719 189.256819 
L 293.863578 191.086855 
L 294.068198 191.278437 
L 294.272818 191.006965 
L 294.682057 190.18028 
L 294.886677 190.27414 
L 295.295916 191.578032 
L 295.705156 193.076996 
L 295.909775 193.431729 
L 296.114395 193.462919 
L 297.137494 192.745334 
L 297.955973 192.215175 
L 298.365212 191.860137 
L 300.20679 189.315685 
L 300.616029 189.073529 
L 301.025268 188.93251 
L 301.229888 188.693627 
L 301.434508 188.234561 
L 303.480705 181.195407 
L 304.094564 180.506709 
L 304.503804 178.791014 
L 305.526902 173.052952 
L 305.936142 170.712214 
L 306.345381 166.781492 
L 306.754621 160.242201 
L 307.5731 145.07961 
L 307.777719 143.886329 
L 307.982339 144.117422 
L 308.391579 146.017814 
L 308.596198 146.348093 
L 308.800818 145.953137 
L 309.210058 143.578517 
L 309.414677 142.320404 
L 309.619297 141.781178 
L 309.823917 142.438855 
L 310.233156 147.022279 
L 310.847015 154.366334 
L 311.256255 156.370224 
L 312.074734 157.395146 
L 312.279353 157.198218 
L 312.483973 156.139004 
L 312.893213 151.265384 
L 313.507072 140.318693 
L 314.325551 123.807266 
L 314.53017 122.702019 
L 314.73479 123.063746 
L 314.93941 123.855283 
L 315.14403 123.998641 
L 315.348649 122.924269 
L 315.757889 117.577538 
L 316.371748 109.304069 
L 316.576368 108.655586 
L 316.780987 109.413623 
L 317.394847 115.321316 
L 317.804086 120.528583 
L 319.031804 141.294869 
L 320.054903 149.316265 
L 320.873382 162.162288 
L 321.282621 165.610457 
L 321.691861 167.279665 
L 322.1011 167.883744 
L 322.30572 167.747798 
L 322.51034 167.087365 
L 322.71496 165.696408 
L 323.124199 160.396255 
L 324.351917 138.845899 
L 324.556537 137.993234 
L 324.761157 138.474961 
L 325.375016 141.57668 
L 325.579636 141.414027 
L 326.193495 139.428672 
L 326.398115 140.310071 
L 326.807354 146.168856 
L 327.830453 166.204825 
L 328.444312 173.169295 
L 328.853551 175.487164 
L 329.262791 177.302251 
L 330.490509 183.933623 
L 332.332087 193.217778 
L 332.741326 194.18712 
L 333.355185 195.151047 
L 333.559805 195.191883 
L 334.173664 194.912617 
L 334.582904 195.250096 
L 335.196763 195.834548 
L 335.401383 195.904962 
L 335.606002 195.808962 
L 336.629101 194.37539 
L 337.03834 194.059951 
L 337.44758 193.153106 
L 338.061439 191.7392 
L 338.266059 191.550941 
L 338.470678 191.649797 
L 339.084538 192.715196 
L 339.289157 192.590878 
L 340.312256 190.246667 
L 340.721495 186.849555 
L 341.539974 174.848856 
L 341.949214 166.541005 
L 342.563073 146.622963 
L 343.790791 104.670358 
L 344.200031 97.553235 
L 344.60927 94.266278 
L 345.01851 92.637054 
L 345.223129 92.651623 
L 345.427749 93.279602 
L 345.836989 96.279447 
L 346.246228 102.343484 
L 347.064707 120.369279 
L 347.883186 138.430413 
L 348.292425 142.713625 
L 348.497045 143.220396 
L 348.701665 142.899582 
L 349.110904 140.630657 
L 349.724763 134.727166 
L 350.543242 126.712135 
L 350.747862 125.876377 
L 350.952482 125.723466 
L 351.157102 126.038958 
L 351.361721 126.665852 
L 351.770961 129.134464 
L 353.203299 142.230823 
L 353.817158 152.380242 
L 354.635637 166.530522 
L 355.249496 172.77669 
L 356.886454 184.807831 
L 357.091074 185.621682 
L 357.295693 185.953743 
L 357.704933 185.886207 
L 357.909553 186.082836 
L 358.114172 186.754946 
L 359.137271 192.609353 
L 359.341891 192.800323 
L 359.54651 192.540924 
L 360.16037 190.95449 
L 360.364989 190.769513 
L 360.569609 190.887927 
L 361.797327 192.549114 
L 362.001947 192.721559 
L 362.206567 192.73794 
L 362.615806 192.377435 
L 363.025046 191.852362 
L 363.229665 191.799037 
L 363.434285 191.982907 
L 364.048144 192.919802 
L 364.252764 193.036329 
L 364.457384 192.96886 
L 364.662004 192.638576 
L 366.298961 188.3406 
L 366.503581 188.143836 
L 366.708201 188.223712 
L 366.912821 188.556071 
L 367.32206 190.042064 
L 367.731299 191.859927 
L 367.935919 192.272512 
L 368.140539 192.306738 
L 368.959018 191.64109 
L 369.163638 191.437767 
L 369.368257 191.40545 
L 369.777497 191.477475 
L 369.982116 191.166176 
L 370.595976 189.531588 
L 370.800595 189.369879 
L 372.028314 189.622686 
L 372.232933 189.839294 
L 372.437553 189.802666 
L 372.642173 189.22042 
L 373.665272 183.73873 
L 373.869891 183.337169 
L 374.074511 183.200622 
L 374.279131 183.376762 
L 374.48375 183.972834 
L 375.302229 187.624193 
L 375.506849 187.666217 
L 375.916088 187.248625 
L 376.120708 187.267765 
L 376.325328 187.556833 
L 377.143807 189.437505 
L 377.348427 189.534069 
L 377.757666 189.150779 
L 378.576145 188.415269 
L 378.780765 188.324908 
L 378.985384 188.47222 
L 379.803863 190.187351 
L 381.645441 194.32174 
L 382.05468 194.337896 
L 382.873159 194.841562 
L 383.077779 194.582113 
L 383.487018 193.327591 
L 383.896258 192.030546 
L 384.100878 192.028183 
L 384.510117 193.155191 
L 384.919356 194.117654 
L 385.123976 193.833629 
L 385.737835 191.755224 
L 386.965554 189.326995 
L 387.374793 188.172218 
L 387.988652 186.330395 
L 389.83023 182.934955 
L 390.03485 182.901291 
L 390.239469 183.251442 
L 391.467188 186.736208 
L 392.490286 188.543261 
L 392.694906 188.708398 
L 393.308765 188.837172 
L 393.513385 188.913303 
L 393.718005 188.782399 
L 394.127244 187.776123 
L 394.331864 187.25137 
L 394.536484 187.057866 
L 394.741103 187.266684 
L 395.150343 187.9207 
L 395.764202 187.941387 
L 395.968822 188.560595 
L 396.582681 191.527472 
L 396.787301 191.897057 
L 396.99192 191.88182 
L 397.40116 191.625222 
L 397.60578 191.740893 
L 398.015019 192.725476 
L 398.833498 195.378305 
L 399.038118 195.56929 
L 399.242737 195.389578 
L 400.675075 192.292089 
L 401.084315 192.376217 
L 401.493554 192.402553 
L 402.107414 192.246429 
L 402.516653 191.868516 
L 402.925892 191.048763 
L 403.335132 189.778192 
L 403.948991 187.561081 
L 404.153611 187.290996 
L 404.97209 187.252281 
L 405.585949 187.141899 
L 405.995188 186.727094 
L 406.199808 186.668985 
L 406.609048 186.938799 
L 407.018287 187.799705 
L 408.041386 190.591431 
L 408.450625 190.950798 
L 408.655245 191.07206 
L 408.859865 191.415434 
L 409.269104 192.960002 
L 410.087583 196.509505 
L 410.292203 196.635146 
L 410.496822 196.195174 
L 411.92916 191.327347 
L 412.3384 191.131161 
L 412.54302 190.777618 
L 413.361498 188.446017 
L 414.384597 187.598579 
L 414.998456 186.306871 
L 415.407696 185.140901 
L 415.612315 184.916179 
L 415.816935 185.133088 
L 416.430794 186.889195 
L 417.249273 189.686462 
L 417.453893 189.798248 
L 417.863132 189.524999 
L 418.067752 189.585896 
L 418.476992 190.085473 
L 418.681611 190.086413 
L 418.886231 189.729691 
L 419.50009 187.815268 
L 419.70471 187.541841 
L 419.90933 187.494718 
L 420.113949 187.62778 
L 420.318569 187.966049 
L 420.727809 189.40892 
L 421.341668 192.041439 
L 421.750907 192.766199 
L 421.955527 192.932178 
L 422.160147 192.81525 
L 422.364766 192.242119 
L 422.774006 189.818977 
L 423.183245 187.297693 
L 423.387865 186.63854 
L 423.592485 186.444542 
L 423.797105 186.584817 
L 424.001724 186.97402 
L 424.410964 188.537644 
L 424.820203 190.114736 
L 425.024823 190.31666 
L 425.229443 190.075832 
L 425.638682 188.428494 
L 426.047922 186.13867 
L 426.252541 185.575335 
L 426.457161 185.731602 
L 427.27564 188.282495 
L 427.48026 188.013927 
L 428.094119 186.65283 
L 428.503358 186.26952 
L 428.707978 186.332829 
L 429.117217 187.134133 
L 429.935696 188.969857 
L 430.344936 189.567294 
L 430.549556 189.639117 
L 430.754175 189.488578 
L 431.368034 188.12361 
L 431.777274 187.424203 
L 432.391133 187.016459 
L 432.800373 186.55831 
L 433.004992 186.735617 
L 433.823471 188.420432 
L 434.028091 188.36544 
L 434.232711 187.969701 
L 435.255809 184.410979 
L 435.460429 184.211262 
L 435.665049 184.392476 
L 436.074288 185.960973 
L 436.688147 188.569182 
L 437.097387 189.301183 
L 437.302007 189.437462 
L 437.506626 189.434244 
L 437.915866 188.988199 
L 438.325105 188.524207 
L 438.529725 188.54306 
L 438.734345 188.866864 
L 439.552824 191.314177 
L 440.166683 192.076115 
L 440.575922 192.080751 
L 440.780542 191.941982 
L 440.985162 191.535822 
L 441.599021 188.982318 
L 442.00826 187.558869 
L 442.21288 187.324239 
L 442.4175 187.564799 
L 442.826739 189.016864 
L 443.645218 193.080185 
L 443.849838 193.471361 
L 444.054458 193.558089 
L 445.691415 192.799421 
L 445.896035 192.757409 
L 446.100655 192.878576 
L 446.509894 193.365222 
L 447.123753 193.488827 
L 448.351472 194.885038 
L 448.760711 194.832892 
L 449.169951 194.412406 
L 449.57919 193.344581 
L 450.193049 191.672093 
L 451.011528 189.946434 
L 451.216148 189.922427 
L 451.625387 190.405364 
L 452.648486 192.329552 
L 452.853106 192.30595 
L 453.262345 191.83834 
L 453.671585 191.058078 
L 454.490064 188.755098 
L 454.694683 188.839407 
L 455.308542 189.970644 
L 455.922402 191.218279 
L 456.127021 191.15187 
L 456.331641 190.636219 
L 457.35474 186.516625 
L 457.559359 186.556569 
L 457.968599 187.129056 
L 458.787078 188.983911 
L 458.991698 188.920431 
L 459.400937 188.356418 
L 459.605557 188.307817 
L 460.014796 188.87467 
L 461.242515 191.615317 
L 461.856374 193.128819 
L 462.060993 193.376777 
L 462.265613 193.401795 
L 462.470233 193.020466 
L 462.879472 190.913978 
L 463.288712 188.899525 
L 463.697951 188.071175 
L 464.72105 186.699414 
L 464.92567 186.570536 
L 465.334909 185.763601 
L 465.744149 185.086474 
L 466.562627 185.115779 
L 466.971867 185.241576 
L 467.381106 185.799963 
L 467.790346 186.495263 
L 468.404205 186.915692 
L 468.813444 187.743938 
L 469.222684 188.832374 
L 469.427304 189.134932 
L 469.631923 189.197213 
L 470.041163 189.046811 
L 470.245783 189.166316 
L 470.655022 190.009335 
L 471.268881 191.424684 
L 471.473501 191.485595 
L 471.678121 191.112062 
L 472.08736 189.113234 
L 472.4966 186.883208 
L 472.701219 186.31063 
L 472.905839 186.185008 
L 473.724318 186.612041 
L 474.133557 187.529589 
L 474.747417 189.14544 
L 474.952036 189.272823 
L 475.361276 188.859604 
L 475.770515 188.271488 
L 476.179755 187.060159 
L 476.588994 186.083931 
L 476.793614 186.064196 
L 477.202853 186.484711 
L 477.407473 186.505914 
L 479.044431 185.237753 
L 479.86291 184.178013 
L 480.067529 184.515089 
L 480.476769 185.790227 
L 481.090628 188.911124 
L 481.499868 190.628297 
L 481.909107 191.557666 
L 482.113727 191.761825 
L 482.318346 191.735013 
L 482.727586 191.226448 
L 483.136825 190.587028 
L 483.341445 190.436681 
L 483.546065 190.541125 
L 484.364544 191.926343 
L 485.183023 191.489993 
L 485.592262 191.383752 
L 486.206121 191.036826 
L 486.410741 190.615718 
L 487.22922 187.632364 
L 487.43384 187.735357 
L 487.843079 188.94829 
L 488.661558 192.175237 
L 488.866178 192.462319 
L 489.070797 192.54406 
L 489.684657 192.370049 
L 490.093896 192.450969 
L 490.503135 192.09316 
L 491.116995 191.364903 
L 491.321614 191.483683 
L 491.730854 192.615198 
L 492.344713 194.37332 
L 492.753952 194.898529 
L 492.958572 195.015304 
L 493.163192 194.972981 
L 493.572431 194.379251 
L 493.981671 193.57833 
L 494.186291 193.384332 
L 494.39091 193.408848 
L 495.209389 194.17889 
L 495.414009 194.085831 
L 496.027868 193.475555 
L 496.232488 193.55362 
L 497.050967 194.371738 
L 497.255586 194.220076 
L 497.664826 192.97277 
L 498.278685 190.483424 
L 498.483305 190.248945 
L 498.687925 190.393371 
L 499.097164 190.95528 
L 499.301784 190.954627 
L 499.711023 190.786928 
L 500.529502 191.161417 
L 500.938742 190.948276 
L 502.37108 191.447869 
L 502.575699 191.56899 
L 502.780319 191.491779 
L 502.984939 191.075841 
L 504.008037 187.3838 
L 504.826516 185.679303 
L 505.031136 185.753333 
L 505.235756 186.276034 
L 506.668094 192.682793 
L 507.077333 193.14989 
L 507.486573 193.563133 
L 507.691193 193.579288 
L 507.895812 193.331348 
L 508.305052 192.325031 
L 509.32815 188.862861 
L 509.73739 187.537284 
L 509.94201 187.310404 
L 510.351249 187.307166 
L 510.965108 187.482148 
L 511.169728 187.440022 
L 512.397446 186.513789 
L 513.420545 186.811318 
L 513.625165 187.104009 
L 514.648263 189.511154 
L 515.057503 189.43168 
L 515.262122 189.360746 
L 515.466742 189.409139 
L 515.875982 189.951889 
L 516.489841 191.032713 
L 516.694461 191.155027 
L 516.89908 191.059705 
L 517.717559 189.848722 
L 517.922179 189.819378 
L 518.740658 190.213926 
L 519.354517 189.969991 
L 519.559137 190.259556 
L 520.582235 193.301063 
L 520.991475 193.604943 
L 521.400714 194.189427 
L 521.605334 194.222559 
L 522.014573 193.733236 
L 523.037672 192.164508 
L 523.446912 192.550957 
L 523.856151 192.959157 
L 524.060771 192.971716 
L 524.47001 192.46886 
L 524.67463 192.223163 
L 524.87925 192.210703 
L 525.288489 192.443938 
L 525.493109 192.070136 
L 525.902348 189.732958 
L 526.311588 186.912784 
L 526.516207 186.138466 
L 526.720827 185.9243 
L 526.925447 186.155956 
L 527.539306 187.416143 
L 527.743926 187.412246 
L 528.153165 187.168075 
L 528.767024 187.480453 
L 528.971644 187.281491 
L 529.380884 186.297672 
L 529.790123 184.60591 
L 530.199362 182.505815 
L 530.403982 182.060181 
L 530.608602 182.184009 
L 530.813222 182.759604 
L 531.631701 186.1262 
L 532.24556 187.156304 
L 533.268658 189.508421 
L 533.473278 189.354306 
L 534.087137 188.309583 
L 534.700996 188.15305 
L 535.110236 188.271595 
L 535.519475 188.845406 
L 535.928715 189.897093 
L 536.747194 192.565593 
L 536.951813 192.858413 
L 537.156433 192.839993 
L 537.361053 192.466767 
L 537.974912 190.600909 
L 538.384152 190.201499 
L 538.793391 189.860533 
L 539.40725 189.18386 
L 539.81649 188.244402 
L 540.225729 187.311887 
L 541.044208 186.286934 
L 541.453447 184.94089 
L 542.067307 182.809876 
L 542.681166 181.434833 
L 542.885786 181.273774 
L 543.090405 181.467264 
L 543.704264 183.209865 
L 544.318124 184.892735 
L 545.136603 185.649557 
L 545.545842 185.823981 
L 545.750462 185.769558 
L 546.364321 185.343388 
L 546.568941 185.63048 
L 546.97818 187.35196 
L 547.592039 190.116966 
L 548.001279 190.746625 
L 548.410518 191.005398 
L 548.615138 190.759595 
L 549.024377 189.494924 
L 549.638237 187.345106 
L 550.047476 186.660869 
L 550.252096 186.789139 
L 550.661335 187.773869 
L 551.070575 189.202066 
L 552.093673 193.598481 
L 552.298293 193.583555 
L 552.502913 193.134602 
L 553.730631 189.161386 
L 554.139871 187.760591 
L 554.75373 185.39981 
L 555.162969 184.773195 
L 555.572209 184.412243 
L 555.776828 184.59738 
L 555.981448 185.427784 
L 556.595307 189.36152 
L 556.799927 189.789444 
L 557.004547 189.743285 
L 557.413786 189.377887 
L 557.618406 189.301381 
L 557.823026 189.37411 
L 558.232265 190.228814 
L 558.641505 190.944492 
L 559.664603 191.50599 
L 560.278462 192.485017 
L 560.687702 193.806491 
L 561.096941 195.346137 
L 561.301561 195.762985 
L 561.7108 195.925012 
L 562.12004 195.740785 
L 562.32466 195.396088 
L 562.733899 193.867304 
L 563.347758 190.527266 
L 563.552378 190.006879 
L 563.756998 189.814642 
L 564.575477 189.889274 
L 564.984716 189.404528 
L 566.007815 187.744163 
L 566.212434 187.789922 
L 566.621674 188.572096 
L 567.440153 190.604786 
L 568.054012 191.596395 
L 568.258632 191.437557 
L 568.667871 190.23925 
L 569.077111 189.068796 
L 569.48635 188.549657 
L 569.895589 188.296185 
L 570.100209 188.025294 
L 570.509449 186.662052 
L 570.918688 185.088604 
L 571.123308 184.616242 
L 571.327928 184.513006 
L 571.532547 184.850693 
L 571.941787 186.612004 
L 572.555646 189.647481 
L 572.964885 190.5731 
L 573.578745 190.878295 
L 574.192604 191.660871 
L 574.397223 191.758661 
L 574.601843 191.717008 
L 575.011083 191.213322 
L 575.420322 190.73591 
L 575.624942 190.780616 
L 576.238801 191.148075 
L 576.443421 190.98232 
L 577.05728 190.190806 
L 577.466519 190.282356 
L 578.489618 190.789227 
L 579.103477 191.322904 
L 579.308097 191.27689 
L 579.717336 190.623026 
L 580.740435 188.76165 
L 581.354294 186.945085 
L 581.558914 186.813308 
L 581.763534 186.854583 
L 582.172773 187.292846 
L 583.195872 188.718748 
L 583.605111 188.991456 
L 584.014351 188.884184 
L 584.21897 188.994054 
L 585.651308 191.030923 
L 585.855928 190.895897 
L 586.265168 190.320582 
L 586.469787 190.288478 
L 586.674407 190.597549 
L 587.083647 192.073115 
L 587.492886 193.476769 
L 587.697506 193.754411 
L 587.902125 193.757043 
L 588.311365 193.509935 
L 588.515985 193.532854 
L 589.334464 194.106709 
L 589.539083 193.701755 
L 589.948323 192.445882 
L 590.152942 192.159864 
L 590.357562 192.21094 
L 590.562182 192.488028 
L 590.971421 193.662132 
L 591.585281 196.331478 
L 591.7899 196.488347 
L 591.99452 196.073026 
L 593.222238 191.170371 
L 594.040717 189.730991 
L 594.245337 189.675426 
L 594.654576 189.9491 
L 595.268436 190.520462 
L 595.473055 190.521241 
L 595.677675 190.280184 
L 596.291534 189.056836 
L 596.496154 189.366742 
L 597.519253 192.832266 
L 597.723872 192.811414 
L 598.133112 192.094951 
L 598.542351 191.025102 
L 598.746971 190.802721 
L 598.951591 190.868103 
L 599.56545 191.453459 
L 600.179309 191.621479 
L 600.588549 191.831229 
L 600.793168 191.721353 
L 601.407027 190.93795 
L 601.611647 191.107284 
L 602.225506 192.55656 
L 602.430126 192.504062 
L 602.839366 191.704747 
L 603.453225 190.082632 
L 603.862464 188.501145 
L 604.476323 185.55006 
L 604.680943 185.126462 
L 604.885563 185.155893 
L 605.294802 185.650386 
L 605.908661 185.827135 
L 606.317901 186.7082 
L 606.72714 188.572536 
L 607.340999 192.408399 
L 607.750239 193.409894 
L 608.159478 193.522197 
L 608.568718 193.327291 
L 609.182577 192.627698 
L 609.591816 192.736381 
L 609.796436 192.796925 
L 610.001056 192.707736 
L 610.410295 192.049359 
L 611.024155 190.19291 
L 611.842633 186.856428 
L 612.047253 186.604798 
L 613.070352 186.932958 
L 613.684211 187.814562 
L 613.888831 187.744265 
L 614.09345 187.298393 
L 614.70731 185.110148 
L 614.911929 184.752075 
L 615.116549 184.621999 
L 615.321169 184.689982 
L 615.525789 185.04655 
L 616.344267 187.85503 
L 616.753507 187.898075 
L 617.162746 187.920217 
L 617.571986 188.435855 
L 618.595084 190.561713 
L 618.799704 190.6021 
L 619.618183 190.397428 
L 620.027423 191.128592 
L 620.436662 192.008415 
L 620.845901 192.388838 
L 621.050521 192.279255 
L 621.459761 191.424331 
L 622.27824 189.255162 
L 622.482859 189.149746 
L 622.892099 189.378066 
L 623.096718 189.294073 
L 623.505958 188.726441 
L 624.119817 187.62641 
L 624.324437 187.625471 
L 624.733676 187.784215 
L 624.938296 187.419967 
L 625.347535 185.417887 
L 625.756775 183.714915 
L 625.961395 183.547465 
L 626.370634 183.95359 
L 626.779874 184.621184 
L 627.189113 185.759446 
L 628.212212 189.664913 
L 628.416831 189.729868 
L 629.23531 188.986466 
L 629.849169 189.350894 
L 630.053789 189.079023 
L 630.667648 187.748607 
L 630.872268 187.940158 
L 631.690747 190.374903 
L 631.895367 190.485056 
L 632.304606 190.20015 
L 632.713846 189.572509 
L 634.146184 186.20573 
L 634.555423 184.95919 
L 634.760043 184.768397 
L 634.964663 184.992924 
L 635.373902 186.274658 
L 635.987761 188.675187 
L 636.397001 189.468771 
L 636.60162 189.625366 
L 636.80624 189.592996 
L 637.01086 189.307627 
L 637.624719 187.459182 
L 639.057057 183.548325 
L 639.261677 183.447052 
L 639.466297 183.600921 
L 639.875536 184.604774 
L 641.307874 189.733436 
L 641.921733 191.159471 
L 642.535593 191.678596 
L 642.944832 191.842854 
L 643.354071 191.477129 
L 643.967931 190.547877 
L 644.991029 187.827572 
L 645.195649 187.704028 
L 645.400269 187.844495 
L 645.809508 188.736758 
L 646.218748 189.815942 
L 646.423367 189.948585 
L 646.627987 189.614572 
L 647.446466 186.963776 
L 648.264945 185.753076 
L 648.469565 185.960842 
L 648.674184 186.532791 
L 649.083424 188.59749 
L 649.492663 190.738494 
L 649.697283 191.22576 
L 649.901903 191.246576 
L 650.515762 190.43815 
L 651.129621 190.636912 
L 651.334241 190.34803 
L 651.74348 189.1642 
L 652.357339 187.162675 
L 652.561959 186.997304 
L 652.971199 187.289571 
L 653.994297 188.125794 
L 654.198917 187.996125 
L 654.608156 187.29988 
L 655.017396 186.552319 
L 655.222016 186.577511 
L 655.426635 186.992037 
L 656.449734 190.555182 
L 656.858973 190.909277 
L 657.677452 191.102578 
L 657.882072 190.983122 
L 658.291311 190.475562 
L 658.495931 190.448513 
L 658.905171 191.213611 
L 659.10979 191.568395 
L 659.31441 191.66947 
L 659.928269 191.554332 
L 660.337509 191.891516 
L 660.746748 192.390706 
L 661.155988 192.463384 
L 661.360607 192.358909 
L 661.565227 192.114117 
L 662.997565 189.345405 
L 663.406805 188.96077 
L 663.611424 188.551903 
L 664.429903 185.646051 
L 664.634523 185.620637 
L 664.839143 186.128698 
L 665.453002 188.571867 
L 665.657622 188.889463 
L 665.862241 188.757584 
L 666.68072 186.720436 
L 666.88534 186.939269 
L 667.08996 187.615365 
L 668.113058 192.837792 
L 669.136157 194.145436 
L 669.340777 194.215846 
L 669.545396 194.108643 
L 669.954636 193.374342 
L 670.568495 191.143421 
L 670.977735 189.946489 
L 671.182354 189.764001 
L 671.386974 189.923224 
L 672.614692 192.492673 
L 672.819312 192.484782 
L 673.023932 192.059111 
L 673.842411 189.427725 
L 674.04703 189.353219 
L 674.66089 189.573546 
L 675.479369 188.78134 
L 675.683988 189.282794 
L 676.502467 192.379752 
L 676.707087 192.555779 
L 676.911707 192.442949 
L 678.344045 190.460481 
L 678.548664 190.600213 
L 678.957904 191.74959 
L 679.367143 192.75337 
L 679.571763 192.847184 
L 679.981003 192.535831 
L 680.390242 191.712301 
L 681.004101 190.380063 
L 681.413341 190.238589 
L 681.82258 190.255802 
L 682.0272 190.029021 
L 682.436439 188.852589 
L 683.050298 186.544341 
L 683.254918 186.129606 
L 683.459538 186.093475 
L 683.664158 186.374258 
L 684.073397 187.465737 
L 685.301115 191.729766 
L 685.710355 192.281854 
L 685.914975 192.369644 
L 686.119594 192.204573 
L 686.528834 191.211084 
L 687.347313 189.000057 
L 687.551932 188.936819 
L 687.961172 189.086916 
L 688.370411 189.058174 
L 688.575031 189.426666 
L 689.39351 192.014012 
L 689.802749 192.568687 
L 690.825848 193.299897 
L 691.439707 194.21312 
L 692.258186 196.10824 
L 692.462806 195.911408 
L 692.872045 194.367079 
L 693.690524 190.834121 
L 694.099764 189.974032 
L 694.304383 189.961409 
L 694.713623 190.645776 
L 695.532102 192.340568 
L 696.145961 194.216213 
L 696.350581 194.379574 
L 696.75982 193.917703 
L 697.987538 192.168353 
L 698.806017 190.740756 
L 699.215257 190.24452 
L 700.033736 188.736094 
L 700.238355 188.790464 
L 700.852215 189.374963 
L 701.261454 188.990949 
L 701.670694 188.624146 
L 702.079933 188.523944 
L 702.284553 188.655737 
L 702.693792 189.484173 
L 703.103032 190.820429 
L 703.921511 194.513649 
L 704.12613 194.91931 
L 704.739989 195.378729 
L 705.353849 196.835018 
L 705.558468 196.849357 
L 705.967708 195.996715 
L 706.376947 194.944483 
L 706.786187 194.473999 
L 707.195426 194.165019 
L 707.604666 193.312763 
L 708.013905 191.678643 
L 709.037004 186.686912 
L 709.241623 186.586126 
L 709.855483 187.120573 
L 710.264722 186.746606 
L 711.49244 184.844285 
L 711.69706 184.657508 
L 711.90168 184.645524 
L 712.310919 185.056126 
L 712.720159 185.389862 
L 712.924779 185.137268 
L 713.334018 183.459486 
L 713.743257 181.962544 
L 713.947877 181.717416 
L 715.175596 181.254398 
L 715.789455 180.682843 
L 715.994074 180.728344 
L 716.403314 181.396486 
L 717.017173 182.452409 
L 717.426413 183.154421 
L 717.835652 184.538455 
L 718.449511 187.182605 
L 718.858751 187.932786 
L 719.67723 188.890847 
L 720.086469 189.844501 
L 720.904948 191.884097 
L 721.928046 194.171443 
L 722.951145 194.491707 
L 723.360385 194.142258 
L 723.769624 193.592282 
L 724.383483 193.360044 
L 724.792723 191.995796 
L 725.406582 189.668424 
L 725.815821 188.63052 
L 726.225061 187.893249 
L 726.42968 187.250407 
L 726.83892 184.847389 
L 727.657399 179.882255 
L 728.271258 176.588882 
L 728.680497 175.671317 
L 728.885117 175.654925 
L 729.089737 175.873739 
L 729.498976 176.988012 
L 730.522075 181.19768 
L 730.726695 181.436445 
L 730.931314 181.447299 
L 731.135934 181.23041 
L 731.545174 180.227702 
L 732.159033 178.668778 
L 733.386751 175.978614 
L 733.795991 175.795477 
L 734.61447 175.725617 
L 734.819089 175.734253 
L 735.023709 176.064447 
L 735.228329 176.903185 
L 735.637568 180.038078 
L 736.456047 186.888929 
L 737.069906 190.058676 
L 737.274526 190.659315 
L 737.479146 190.857897 
L 737.888385 190.779823 
L 738.093005 191.208668 
L 738.706864 193.46048 
L 738.911484 193.666703 
L 739.320723 193.824962 
L 739.729963 194.318182 
L 739.934582 194.390936 
L 740.548442 194.033681 
L 741.77616 192.712508 
L 742.185399 191.352048 
L 743.003878 187.691393 
L 743.413118 184.225016 
L 744.026977 176.222771 
L 745.663935 153.576711 
L 746.277794 146.802074 
L 746.687033 144.854509 
L 746.891653 144.777786 
L 747.300893 145.511908 
L 747.710132 146.490797 
L 747.914752 146.738836 
L 748.528611 146.983749 
L 748.93785 147.794509 
L 749.34709 148.542881 
L 749.55171 148.575054 
L 749.756329 148.279413 
L 750.165569 146.823598 
L 750.574808 144.312395 
L 751.597907 135.631228 
L 751.802527 135.01669 
L 752.007146 134.882302 
L 752.211766 135.110384 
L 752.416386 135.654779 
L 752.825625 137.642036 
L 754.053344 144.965394 
L 754.462583 149.773869 
L 755.690301 165.851164 
L 757.12264 178.087229 
L 757.736499 183.184309 
L 758.350358 187.216681 
L 758.554978 188.070354 
L 758.759597 188.419219 
L 758.964217 188.305461 
L 759.578076 187.114356 
L 759.987316 185.537927 
L 760.601175 182.231266 
L 760.805795 181.749697 
L 761.010414 181.758403 
L 761.624273 182.854297 
L 762.033513 182.730429 
L 762.238133 182.706761 
L 762.442752 182.902777 
L 763.056612 184.087517 
L 763.465851 185.713315 
L 763.87509 187.550911 
L 764.28433 188.577103 
L 764.48895 188.887785 
L 764.693569 188.90144 
L 764.898189 188.523117 
L 765.512048 186.588658 
L 765.716668 186.452973 
L 765.921288 186.800283 
L 767.762865 192.333601 
L 767.967485 192.292405 
L 768.376724 190.842295 
L 768.785964 189.192951 
L 768.990584 188.668653 
L 769.195203 188.525156 
L 769.399823 188.892042 
L 769.809063 190.825027 
L 770.422922 194.006062 
L 770.627541 194.454694 
L 770.832161 194.49225 
L 771.036781 194.142751 
L 771.65064 191.759177 
L 772.264499 189.899261 
L 772.878358 188.829675 
L 773.082978 188.76493 
L 773.492218 188.870533 
L 774.106077 188.825625 
L 774.515316 189.449843 
L 774.719936 189.800537 
L 774.924556 189.899212 
L 775.129175 189.624531 
L 775.743035 188.006477 
L 776.152274 187.694433 
L 776.356894 187.528546 
L 777.175373 186.24894 
L 777.993852 186.093983 
L 778.198471 186.088998 
L 778.403091 186.20435 
L 778.812331 187.055584 
L 779.22157 187.892299 
L 779.835429 188.661601 
L 780.244669 189.74768 
L 781.677007 194.996709 
L 782.086246 195.085128 
L 782.495486 195.766074 
L 783.313965 197.242909 
L 783.518584 197.488426 
L 783.723204 197.440355 
L 784.132443 196.347453 
L 784.541683 195.433832 
L 784.746303 195.560548 
L 785.564782 197.17034 
L 785.769401 197.294752 
L 785.974021 197.267405 
L 786.58788 196.841413 
L 786.7925 197.01943 
L 787.406359 198.156219 
L 787.610979 197.993416 
L 788.020218 196.688173 
L 788.634077 193.910244 
L 789.043317 191.341163 
L 790.680275 178.231821 
L 791.294134 176.523277 
L 791.703373 175.608574 
L 791.907993 175.801231 
L 792.112613 176.705219 
L 792.931092 182.035484 
L 794.36343 186.593372 
L 794.56805 186.806617 
L 794.772669 186.696187 
L 795.181909 185.36816 
L 795.591148 183.86911 
L 796.205007 182.533959 
L 796.614247 181.739376 
L 797.023486 180.548992 
L 797.228106 180.278069 
L 797.432726 180.469165 
L 797.841965 181.743513 
L 798.660444 185.431793 
L 799.888162 191.996821 
L 800.706641 195.037631 
L 801.115881 195.667044 
L 801.52512 196.067146 
L 802.138979 197.441311 
L 802.343599 197.391551 
L 802.752839 196.005164 
L 803.162078 194.540057 
L 803.366698 194.27809 
L 803.571317 194.442897 
L 804.389796 196.318962 
L 804.594416 196.326997 
L 805.003656 195.805104 
L 805.412895 194.883273 
L 806.435994 191.787572 
L 807.663712 184.895474 
L 807.868332 184.42824 
L 808.072951 184.44341 
L 808.482191 185.508002 
L 809.30067 187.979183 
L 809.50529 188.20452 
L 809.914529 188.334656 
L 810.119149 188.748919 
L 811.142247 192.523171 
L 811.346867 192.454636 
L 811.960726 191.724909 
L 812.574585 191.858008 
L 812.779205 191.597079 
L 813.188445 190.536291 
L 814.006924 188.342265 
L 814.416163 187.772021 
L 815.234642 187.10229 
L 815.848501 186.074524 
L 816.053121 186.129476 
L 816.257741 186.527514 
L 816.66698 188.134894 
L 817.894698 193.788793 
L 818.917797 196.230127 
L 819.122417 195.95533 
L 820.145515 192.728264 
L 820.350135 192.871682 
L 820.963994 193.702118 
L 821.168614 193.716869 
L 821.373234 193.587259 
L 821.782473 192.894782 
L 822.191713 191.530546 
L 823.419431 186.180118 
L 824.03329 184.474131 
L 824.44253 184.081612 
L 824.647149 183.944531 
L 825.056389 183.135514 
L 825.261009 182.698643 
L 825.465628 182.648628 
L 825.874868 183.673691 
L 826.284107 184.47602 
L 826.488727 184.600543 
L 827.102586 184.341417 
L 827.511826 185.104084 
L 828.125685 186.415918 
L 828.330304 186.660231 
L 828.534924 186.665628 
L 828.944164 185.949943 
L 829.762643 184.583312 
L 829.967262 184.268551 
L 830.171882 184.282812 
L 830.376502 184.80777 
L 831.3996 189.213569 
L 831.80884 190.790651 
L 832.627319 194.813548 
L 833.036558 195.27582 
L 833.241178 195.304555 
L 833.650417 194.977944 
L 835.082755 192.836073 
L 835.696615 191.523935 
L 835.901234 191.319191 
L 836.310474 191.307103 
L 836.515094 191.358322 
L 837.333572 192.061311 
L 837.742812 191.608964 
L 838.152051 190.928193 
L 838.356671 190.803912 
L 838.76591 191.152934 
L 838.97053 191.276429 
L 839.17515 191.139963 
L 839.584389 190.493762 
L 839.789009 190.393304 
L 840.402868 190.771495 
L 840.607488 190.67857 
L 841.221347 189.673162 
L 841.630587 188.863666 
L 842.244446 187.234614 
L 842.449066 187.357203 
L 843.062925 188.39371 
L 843.267544 188.278174 
L 844.290643 186.542063 
L 844.495263 186.491511 
L 844.699883 186.68971 
L 845.109122 187.842919 
L 845.518361 189.181892 
L 845.927601 189.801754 
L 846.54146 190.03577 
L 846.9507 189.905929 
L 848.178418 189.295386 
L 848.383038 189.458875 
L 848.792277 190.643833 
L 848.996897 191.226633 
L 849.201517 191.429409 
L 849.406136 191.189581 
L 850.633855 188.056764 
L 850.838474 188.218043 
L 851.247714 189.2996 
L 852.270812 192.36906 
L 852.475432 192.334804 
L 853.293911 191.122094 
L 853.703151 189.862446 
L 854.31701 187.411577 
L 854.726249 186.982478 
L 854.930869 187.016436 
L 855.135489 187.26113 
L 855.544728 188.600334 
L 856.158587 191.121567 
L 856.363207 191.493352 
L 856.567827 191.52208 
L 856.772446 191.104073 
L 857.386306 188.997911 
L 857.590925 188.863728 
L 858.409404 189.233626 
L 859.023263 190.184175 
L 859.227883 190.107787 
L 859.637123 189.423853 
L 859.841742 189.337331 
L 860.046362 189.512767 
L 860.660221 190.509215 
L 860.864841 190.468777 
L 861.27408 189.483429 
L 861.88794 187.511808 
L 862.092559 187.129518 
L 862.297179 187.005349 
L 862.501799 187.185185 
L 863.320278 188.916857 
L 863.524897 189.013604 
L 863.934137 188.686599 
L 864.343376 188.120662 
L 864.752616 187.031418 
L 865.161855 185.257794 
L 865.775714 182.165852 
L 865.980334 181.828968 
L 866.184954 181.9816 
L 867.003433 183.719453 
L 867.412672 183.980631 
L 867.821912 183.835266 
L 868.231151 183.231236 
L 869.25425 180.749205 
L 869.868109 180.910976 
L 870.072729 180.792462 
L 870.481968 180.030635 
L 870.891208 179.250457 
L 871.505067 179.280813 
L 871.914306 178.763345 
L 872.118926 178.760068 
L 872.528165 179.736328 
L 872.937405 180.611287 
L 873.142025 180.635418 
L 873.551264 179.932779 
L 873.960504 179.251082 
L 874.165123 179.305091 
L 874.369743 179.684341 
L 874.983602 181.352362 
L 875.188222 181.333376 
L 875.597461 180.688127 
L 876.21132 179.474381 
L 876.82518 178.085138 
L 877.234419 178.190425 
L 877.643659 178.394987 
L 878.257518 179.125166 
L 878.666757 178.934496 
L 878.871377 178.655894 
L 879.280616 177.527204 
L 880.099095 174.152372 
L 880.917574 170.698725 
L 881.326814 170.000632 
L 881.531433 169.909762 
L 881.736053 170.023534 
L 882.145293 170.745676 
L 882.963771 172.766643 
L 883.168391 172.831813 
L 883.577631 172.493979 
L 884.19149 171.795354 
L 884.600729 170.73828 
L 885.419208 167.088907 
L 886.237687 162.811284 
L 886.646927 161.690326 
L 887.056166 161.025099 
L 887.874645 158.707933 
L 888.079265 158.800632 
L 888.488504 159.239917 
L 888.693124 159.196881 
L 889.102363 158.339882 
L 890.534701 154.351666 
L 890.943941 152.162349 
L 891.967039 144.882353 
L 892.376279 143.367427 
L 892.785518 142.944368 
L 892.990138 142.861614 
L 893.194758 142.975529 
L 893.603997 143.552216 
L 893.808617 143.631806 
L 894.013237 143.251993 
L 894.422476 140.816213 
L 895.036335 136.591535 
L 896.673293 130.73227 
L 897.901012 125.082963 
L 898.514871 124.796994 
L 898.71949 124.132655 
L 899.33335 120.396231 
L 900.561068 112.056702 
L 900.970307 106.274419 
L 901.993406 88.114207 
L 902.198026 88.253926 
L 902.607265 92.356924 
L 903.221124 99.111103 
L 903.834984 102.47261 
L 904.244223 104.358164 
L 904.448843 104.906572 
L 904.653463 105.077214 
L 904.858082 104.884934 
L 905.267322 103.53012 
L 905.881181 100.628434 
L 906.29042 99.843032 
L 906.69966 99.657358 
L 907.108899 99.104736 
L 907.313519 98.491666 
L 908.131998 94.492193 
L 908.336618 94.138659 
L 909.768956 93.406206 
L 910.178195 93.373962 
L 910.382815 93.189307 
L 910.792054 92.404875 
L 911.610533 90.652867 
L 912.224392 89.799442 
L 912.429012 89.892897 
L 912.633632 90.432619 
L 913.247491 93.592872 
L 913.86135 96.778753 
L 914.06597 97.297581 
L 914.27059 97.349538 
L 914.475209 96.746036 
L 914.884449 93.591731 
L 915.293688 90.013034 
L 915.498308 89.012912 
L 915.702928 88.679309 
L 915.907547 88.961175 
L 916.112167 89.911232 
L 916.521407 93.887226 
L 917.135266 101.584925 
L 917.339886 102.840361 
L 917.544505 102.859159 
L 917.749125 101.642764 
L 918.158364 96.724142 
L 919.386083 79.121799 
L 919.795322 68.061017 
L 920.204562 48.647133 
L 920.613801 26.668093 
L 920.818421 21.235341 
L 921.023041 22.134162 
L 921.43228 37.509737 
L 922.046139 65.520872 
L 922.455379 77.342984 
L 923.069238 87.197135 
L 923.683097 93.398726 
L 924.092337 95.910207 
L 924.501576 97.156624 
L 924.706196 97.50761 
L 924.910815 97.589375 
L 925.115435 97.302171 
L 925.524675 95.755323 
L 925.933914 94.54727 
L 926.138534 94.729646 
L 926.343154 95.531797 
L 927.161632 100.834044 
L 927.366252 101.285236 
L 927.570872 101.357046 
L 927.775492 101.178076 
L 928.389351 100.20656 
L 928.79859 99.981132 
L 929.00321 100.002453 
L 929.20783 100.161926 
L 929.617069 101.091825 
L 931.049407 104.985976 
L 931.254027 104.897922 
L 932.072506 103.271021 
L 932.277126 103.302076 
L 932.481745 103.602872 
L 933.095605 105.44902 
L 933.709464 107.925845 
L 934.323323 110.863229 
L 934.732562 111.863079 
L 935.141802 112.214794 
L 935.346422 112.221136 
L 935.551041 112.102373 
L 935.960281 111.415944 
L 936.36952 110.732664 
L 936.57414 110.848486 
L 936.983379 112.122224 
L 937.597239 114.294238 
L 937.801858 114.519607 
L 938.006478 114.366365 
L 938.415717 113.822764 
L 938.620337 113.874507 
L 938.824957 114.214064 
L 939.848056 116.852529 
L 940.461915 116.89003 
L 940.666534 117.178141 
L 941.075774 118.69855 
L 941.689633 121.426534 
L 941.894253 121.682275 
L 942.508112 121.866652 
L 942.712732 122.224463 
L 943.121971 123.819991 
L 943.73583 126.143918 
L 944.34969 127.94828 
L 945.577408 132.722293 
L 946.395887 133.418994 
L 947.009746 133.470189 
L 947.214366 134.189339 
L 948.032845 138.535497 
L 948.646704 139.668677 
L 949.055943 141.746269 
L 949.874422 146.199093 
L 950.079042 146.763071 
L 950.283662 146.982317 
L 951.102141 147.019504 
L 951.30676 146.770132 
L 951.920619 145.525996 
L 952.125239 145.385121 
L 952.534479 145.559399 
L 952.739098 145.848563 
L 953.148338 147.137313 
L 954.376056 152.505091 
L 954.785296 153.53147 
L 954.989915 153.763967 
L 955.194535 153.708341 
L 956.013014 152.449591 
L 956.217634 152.656107 
L 956.422253 153.30597 
L 957.854591 160.276321 
L 958.263831 160.939193 
L 958.67307 161.282949 
L 959.08231 162.452668 
L 959.900789 165.151273 
L 960.310028 166.404395 
L 960.514648 166.738253 
L 960.719268 166.80491 
L 960.923887 166.683584 
L 961.333127 166.012357 
L 961.742366 165.120567 
L 962.151606 164.822785 
L 962.970085 164.890023 
L 963.174704 165.135837 
L 964.197803 167.192615 
L 964.402423 167.143961 
L 964.811662 166.864288 
L 965.016282 167.064561 
L 965.834761 168.940664 
L 966.039381 168.908357 
L 966.857859 167.813171 
L 967.062479 167.894058 
L 967.267099 168.192897 
L 967.676338 169.643912 
L 968.699437 174.938683 
L 968.904057 174.855377 
L 969.722536 172.101534 
L 970.131775 171.968031 
L 970.336395 172.096695 
L 970.541015 172.543922 
L 970.950254 174.583307 
L 971.359493 176.475383 
L 971.564113 176.837937 
L 972.587212 177.477443 
L 973.405691 178.528364 
L 973.81493 178.307716 
L 974.01955 178.16333 
L 974.22417 178.193651 
L 975.042649 179.218936 
L 975.247268 179.143246 
L 975.451888 178.883772 
L 976.065747 177.51522 
L 976.270367 177.359349 
L 976.474987 177.495505 
L 977.293466 179.056331 
L 977.702705 179.339127 
L 977.907325 179.300454 
L 978.316564 178.754544 
L 979.135043 177.347636 
L 979.339663 177.312179 
L 979.544283 177.602818 
L 980.158142 179.78133 
L 980.567381 180.807812 
L 980.772001 180.953541 
L 980.976621 180.845903 
L 981.999719 179.474982 
L 982.204339 179.722396 
L 983.022818 181.717166 
L 984.045917 181.146253 
L 984.455156 180.14205 
L 984.659776 179.558372 
L 984.864395 179.333574 
L 985.069015 179.707447 
L 985.682874 181.874383 
L 985.887494 182.008131 
L 986.092114 181.881555 
L 986.296734 181.51417 
L 987.115212 178.81389 
L 987.319832 178.838986 
L 987.729072 179.780949 
L 988.138311 180.839685 
L 988.342931 180.987318 
L 989.16141 180.522965 
L 989.775269 180.421164 
L 991.412227 182.127172 
L 991.821466 182.831324 
L 992.026086 182.996631 
L 992.230706 183.013139 
L 992.435325 182.869274 
L 992.844565 182.172888 
L 993.253804 181.377706 
L 994.276903 180.298162 
L 994.481523 180.431399 
L 995.300001 182.003649 
L 995.913861 182.642548 
L 996.3231 183.638869 
L 996.936959 185.452673 
L 997.346199 186.088028 
L 997.550818 185.976851 
L 998.369297 184.007693 
L 999.187776 183.911944 
L 999.392396 184.352155 
L 1000.006255 187.005852 
L 1000.415495 188.517932 
L 1000.620114 188.751671 
L 1000.824734 188.45124 
L 1001.233974 186.502411 
L 1001.847833 182.988393 
L 1002.461692 181.136308 
L 1002.870931 180.47223 
L 1003.280171 180.114694 
L 1004.09865 178.318572 
L 1004.303269 178.427343 
L 1004.507889 178.947261 
L 1005.940227 184.842753 
L 1006.144847 185.203704 
L 1006.349467 185.260253 
L 1006.758706 184.721447 
L 1007.167946 184.232872 
L 1007.781805 183.905309 
L 1008.395664 183.227681 
L 1008.600284 183.325545 
L 1009.009523 183.931749 
L 1009.214143 183.912901 
L 1009.828002 183.017527 
L 1010.032622 183.18532 
L 1010.646481 184.697212 
L 1011.46496 186.83525 
L 1012.078819 187.669041 
L 1012.488059 188.436424 
L 1012.692678 188.561801 
L 1012.897298 188.285474 
L 1014.125016 184.441312 
L 1014.329636 183.974682 
L 1014.534256 183.862111 
L 1014.738876 184.265577 
L 1015.557354 187.502462 
L 1015.966594 188.086223 
L 1016.375833 188.414771 
L 1018.012791 191.271251 
L 1018.217411 191.38922 
L 1018.422031 191.333964 
L 1018.62665 191.062958 
L 1019.03589 189.870297 
L 1019.445129 188.816092 
L 1019.649749 188.873077 
L 1020.058988 190.119593 
L 1020.468228 191.342762 
L 1020.672848 191.492326 
L 1020.877467 191.378424 
L 1021.491327 190.473626 
L 1022.309805 189.115577 
L 1022.514425 188.984249 
L 1022.719045 189.12161 
L 1023.128284 190.395269 
L 1023.537524 191.426357 
L 1023.946763 191.802672 
L 1024.151383 191.874953 
L 1024.356003 191.77704 
L 1024.560622 191.358674 
L 1025.174482 189.43261 
L 1025.379101 189.497156 
L 1025.992961 190.539263 
L 1026.19758 190.436461 
L 1026.811439 189.654051 
L 1027.425299 189.969593 
L 1027.834538 189.404273 
L 1028.039158 189.096152 
L 1028.243778 189.00065 
L 1028.448397 189.185922 
L 1028.857637 189.788516 
L 1029.062256 189.878492 
L 1029.471496 189.667718 
L 1029.676116 189.550355 
L 1029.880735 189.640846 
L 1030.699214 190.893197 
L 1031.108454 190.873934 
L 1031.517693 190.630436 
L 1032.336172 189.782242 
L 1033.359271 188.19375 
L 1033.97313 186.276616 
L 1034.382369 186.053305 
L 1034.791609 185.942647 
L 1035.200848 186.210215 
L 1035.405468 186.105846 
L 1035.814707 184.910864 
L 1036.223947 183.910636 
L 1037.042426 182.915272 
L 1037.247045 182.943886 
L 1037.656285 183.413605 
L 1038.065524 184.096295 
L 1038.474764 185.467647 
L 1039.497862 189.947422 
L 1039.702482 190.184118 
L 1039.907102 190.122532 
L 1040.725581 189.269971 
L 1041.54406 187.038084 
L 1041.748679 187.058178 
L 1042.362539 187.761744 
L 1042.976398 187.792736 
L 1043.385637 187.346515 
L 1043.999496 186.474899 
L 1044.204116 186.535129 
L 1044.613356 187.659101 
L 1045.227215 189.436832 
L 1045.841074 190.859819 
L 1046.250313 191.478382 
L 1046.659553 191.641351 
L 1046.864173 191.616159 
L 1047.068792 191.754565 
L 1047.273412 192.256996 
L 1047.887271 194.690647 
L 1048.091891 194.876644 
L 1048.296511 194.587754 
L 1048.91037 192.95753 
L 1049.11499 192.725502 
L 1049.319609 192.686168 
L 1049.728849 193.050935 
L 1049.933469 193.230041 
L 1050.138088 193.221285 
L 1050.342708 192.948153 
L 1050.751947 191.972259 
L 1050.956567 191.797096 
L 1051.161187 191.964332 
L 1051.570426 192.52944 
L 1051.979666 192.587886 
L 1052.388905 192.47627 
L 1054.025863 190.969179 
L 1054.435103 190.285878 
L 1054.639722 190.337882 
L 1055.253581 191.013066 
L 1055.458201 191.029401 
L 1055.662821 191.185937 
L 1055.867441 191.678567 
L 1057.095159 196.36371 
L 1057.299779 196.580968 
L 1057.504398 196.523769 
L 1057.709018 196.157302 
L 1058.118258 194.576286 
L 1058.732117 191.956295 
L 1059.141356 191.191164 
L 1059.550596 190.700566 
L 1060.369075 189.181511 
L 1061.392173 187.964363 
L 1061.801413 188.054806 
L 1062.210652 188.157424 
L 1062.415272 188.082739 
L 1062.619892 188.143048 
L 1063.029131 188.967535 
L 1063.438371 189.597914 
L 1063.84761 189.632123 
L 1064.05223 189.483178 
L 1064.461469 188.749347 
L 1064.870709 187.91281 
L 1065.075328 187.873793 
L 1065.279948 188.210412 
L 1065.689188 189.753125 
L 1066.303047 192.315856 
L 1066.507666 192.614864 
L 1066.712286 192.555586 
L 1066.916906 192.16246 
L 1067.735385 189.760267 
L 1068.144624 189.322506 
L 1069.167723 189.168406 
L 1069.372343 189.400947 
L 1070.190821 190.901504 
L 1070.395441 190.828078 
L 1070.600061 190.494819 
L 1071.0093 188.794003 
L 1071.41854 187.108363 
L 1071.62316 187.061015 
L 1072.441638 188.611332 
L 1072.850878 189.04108 
L 1073.669357 190.359762 
L 1073.873977 190.213931 
L 1074.283216 188.920567 
L 1074.692455 187.721674 
L 1074.897075 187.523187 
L 1075.101695 187.52663 
L 1075.306315 187.725291 
L 1076.329413 189.490777 
L 1076.534033 189.390943 
L 1076.943272 188.497021 
L 1077.352512 187.626187 
L 1077.761751 187.086586 
L 1078.170991 186.086927 
L 1078.78485 184.152099 
L 1078.98947 184.288169 
L 1079.398709 186.033179 
L 1079.807949 187.884482 
L 1080.012568 188.340218 
L 1080.217188 188.450051 
L 1080.626428 188.057941 
L 1081.649526 186.74178 
L 1081.854146 186.943391 
L 1082.468005 187.936512 
L 1082.877245 188.189321 
L 1083.081864 188.116393 
L 1083.286484 187.785944 
L 1084.309583 185.025126 
L 1084.514202 185.20492 
L 1084.923442 186.343165 
L 1085.332681 187.574315 
L 1086.15116 188.677659 
L 1086.765019 189.970339 
L 1087.174259 190.400732 
L 1087.378879 190.382934 
L 1087.788118 189.933283 
L 1088.197357 188.743142 
L 1088.606597 187.465531 
L 1088.811217 187.348018 
L 1089.015836 187.668436 
L 1089.425076 189.175896 
L 1090.243555 192.671283 
L 1090.652794 193.31842 
L 1090.857414 193.359757 
L 1091.062034 193.23352 
L 1091.471273 192.203488 
L 1092.085132 190.406899 
L 1092.289752 190.108508 
L 1092.698991 189.997133 
L 1092.903611 189.711227 
L 1093.72209 187.52365 
L 1094.13133 188.067288 
L 1094.335949 188.282686 
L 1094.745189 188.39237 
L 1094.949808 188.701986 
L 1095.563668 190.214851 
L 1095.768287 190.104085 
L 1096.382147 188.959859 
L 1096.586766 188.901019 
L 1096.791386 189.088384 
L 1097.405245 190.276492 
L 1097.814485 190.481651 
L 1098.019104 190.799249 
L 1099.042203 193.424453 
L 1099.246823 193.054555 
L 1100.065302 190.372693 
L 1100.269921 190.428075 
L 1101.29302 191.955494 
L 1101.906879 194.08464 
L 1102.316119 195.035724 
L 1102.520738 194.919989 
L 1103.748457 192.766594 
L 1104.566936 192.290914 
L 1104.976175 191.519766 
L 1106.203893 188.510873 
L 1106.817753 188.064949 
L 1107.226992 187.762495 
L 1107.431612 188.078905 
L 1108.250091 190.841254 
L 1108.45471 190.779789 
L 1108.86395 190.101402 
L 1109.477809 188.483442 
L 1109.887048 187.31983 
L 1110.091668 187.068331 
L 1110.296288 187.114412 
L 1110.500908 187.399324 
L 1110.910147 188.621264 
L 1111.524006 190.754018 
L 1111.933246 191.178212 
L 1112.137865 191.068577 
L 1112.547105 190.037592 
L 1112.956344 188.873621 
L 1113.160964 188.614098 
L 1113.570204 188.571126 
L 1113.979443 188.722649 
L 1114.388682 189.103526 
L 1114.593302 189.132548 
L 1114.797922 189.018446 
L 1115.002542 188.726336 
L 1115.411781 187.21512 
L 1116.02564 184.408315 
L 1116.23026 184.509008 
L 1116.43488 185.2886 
L 1117.867218 193.636683 
L 1118.481077 195.66733 
L 1118.685697 196.102987 
L 1118.890316 196.242987 
L 1119.094936 196.044035 
L 1119.708795 194.730901 
L 1120.118035 193.143432 
L 1120.527274 191.447025 
L 1120.731894 191.081009 
L 1120.936514 190.959919 
L 1121.141133 190.995388 
L 1121.550373 191.305171 
L 1121.754993 191.11613 
L 1122.164232 189.525267 
L 1122.573472 187.599309 
L 1122.982711 186.710242 
L 1123.187331 186.720333 
L 1123.39195 187.043192 
L 1124.415049 189.529891 
L 1124.824289 189.743398 
L 1125.028908 189.582786 
L 1126.052007 187.536276 
L 1126.461246 186.521431 
L 1126.870486 185.383875 
L 1127.075106 185.110239 
L 1127.279725 185.183022 
L 1127.688965 186.218731 
L 1128.507444 188.529394 
L 1128.916683 189.446807 
L 1129.121303 189.623791 
L 1129.325923 189.494808 
L 1129.735162 188.932866 
L 1129.939782 188.972465 
L 1130.144401 189.36616 
L 1130.758261 190.957578 
L 1130.96288 190.95133 
L 1131.37212 190.72669 
L 1131.781359 190.721527 
L 1131.985979 190.502123 
L 1132.395218 189.430073 
L 1132.804458 187.821582 
L 1133.622937 183.800518 
L 1133.827557 183.528612 
L 1134.032176 183.636047 
L 1134.441416 184.10044 
L 1134.646035 184.129575 
L 1136.282993 183.15659 
L 1136.692233 182.51902 
L 1137.101472 181.939965 
L 1137.306092 182.131664 
L 1137.715331 183.788627 
L 1138.329191 186.901399 
L 1138.73843 187.866726 
L 1138.94305 187.762644 
L 1139.556909 186.187596 
L 1139.761529 186.516108 
L 1140.784627 190.101403 
L 1141.193867 191.456686 
L 1141.807726 193.90656 
L 1142.216965 194.444605 
L 1142.421585 194.701138 
L 1143.240064 196.457057 
L 1143.444684 196.398337 
L 1143.853923 195.541583 
L 1144.263163 194.741626 
L 1144.672402 194.071278 
L 1145.081642 192.583511 
L 1145.695501 190.014914 
L 1146.10474 189.33437 
L 1146.923219 188.759178 
L 1147.127839 188.741882 
L 1147.537078 189.219693 
L 1147.946318 189.536766 
L 1148.355557 189.181357 
L 1148.969416 188.506609 
L 1149.583275 188.404108 
L 1149.992515 188.705643 
L 1150.197135 189.075305 
L 1150.606374 190.564593 
L 1151.015614 192.226256 
L 1151.220233 192.5447 
L 1151.424853 192.284257 
L 1151.834092 190.264997 
L 1152.447952 187.103704 
L 1152.652571 186.762958 
L 1153.061811 186.733758 
L 1153.266431 186.770295 
L 1153.47105 186.976762 
L 1153.88029 188.086503 
L 1154.698769 191.048042 
L 1155.108008 191.401327 
L 1155.517248 191.353895 
L 1155.926487 190.806405 
L 1156.540346 189.636186 
L 1156.744966 189.43493 
L 1156.949586 189.052108 
L 1157.563445 187.310099 
L 1157.768065 187.515223 
L 1158.791163 190.631517 
L 1158.995783 190.744848 
L 1159.405022 190.28928 
L 1159.814262 189.662084 
L 1160.632741 187.690513 
L 1160.83736 187.713109 
L 1161.04198 187.956071 
L 1161.45122 189.031086 
L 1162.269699 191.335767 
L 1162.678938 191.979928 
L 1163.088177 192.142453 
L 1163.702037 191.907305 
L 1163.906656 192.064884 
L 1164.111276 192.443047 
L 1165.134375 195.508148 
L 1165.338994 195.410799 
L 1165.952854 194.312379 
L 1166.157473 194.333782 
L 1166.566713 194.984439 
L 1166.975952 195.564509 
L 1167.180572 195.492285 
L 1167.589811 195.123151 
L 1167.999051 195.138915 
L 1168.203671 194.969801 
L 1168.61291 193.903811 
L 1170.454488 186.233314 
L 1170.863727 185.127738 
L 1171.272967 184.496429 
L 1171.477586 184.506898 
L 1171.682206 184.820455 
L 1172.909924 188.000168 
L 1173.319164 188.47541 
L 1173.728403 188.875382 
L 1174.342262 189.749047 
L 1175.97922 191.01351 
L 1176.18384 191.341915 
L 1176.593079 192.870562 
L 1177.002319 194.463942 
L 1177.206939 194.850043 
L 1177.411558 194.931493 
L 1177.616178 194.814276 
L 1178.434657 193.973282 
L 1178.639277 193.819341 
L 1179.048516 192.930051 
L 1179.457756 192.056832 
L 1180.071615 191.524161 
L 1180.480854 190.436826 
L 1181.299333 187.767419 
L 1182.527052 186.041025 
L 1182.936291 186.228485 
L 1183.140911 186.323272 
L 1183.34553 186.279849 
L 1183.75477 185.875625 
L 1183.95939 185.474682 
L 1184.368629 183.748053 
L 1184.777869 181.683159 
L 1184.777869 181.683159 
" clip-path="url(#p4c9ed31162)" style="fill: none; stroke: #000000; stroke-width: 2; stroke-linecap: square"/>
   </g>
   <g id="patch_3">
    <path d="M 3.00024 198.907885 
L 1184.99976 198.907885 
" style="fill: none; stroke: #000000; stroke-width: 2; stroke-linejoin: miter; stroke-linecap: square"/>
   </g>
  </g>
 </g>
 <defs>
  <clipPath id="p4c9ed31162">
   <rect x="3.00024" y="3.00024" width="1181.99952" height="195.907645"/>
  </clipPath>
 </defs>
</svg>
