<?xml version="1.0" encoding="utf-8" standalone="no"?>
<!DOCTYPE svg PUBLIC "-//W3C//DTD SVG 1.1//EN"
  "http://www.w3.org/Graphics/SVG/1.1/DTD/svg11.dtd">
<svg xmlns:xlink="http://www.w3.org/1999/xlink" width="1188pt" height="252pt" viewBox="0 0 1188 252" xmlns="http://www.w3.org/2000/svg" version="1.1">
 <metadata>
  <rdf:RDF xmlns:dc="http://purl.org/dc/elements/1.1/" xmlns:cc="http://creativecommons.org/ns#" xmlns:rdf="http://www.w3.org/1999/02/22-rdf-syntax-ns#">
   <cc:Work>
    <dc:type rdf:resource="http://purl.org/dc/dcmitype/StillImage"/>
    <dc:date>2024-06-17T22:44:42.415570</dc:date>
    <dc:format>image/svg+xml</dc:format>
    <dc:creator>
     <cc:Agent>
      <dc:title>Matplotlib v3.8.4, https://matplotlib.org/</dc:title>
     </cc:Agent>
    </dc:creator>
   </cc:Work>
  </rdf:RDF>
 </metadata>
 <defs>
  <style type="text/css">*{stroke-linejoin: round; stroke-linecap: butt}</style>
 </defs>
 <g id="figure_1">
  <g id="patch_1">
   <path d="M 0 252 
L 1188 252 
L 1188 0 
L 0 0 
z
" style="fill: #ffffff"/>
  </g>
  <g id="axes_1">
   <g id="patch_2">
    <path d="M 3.00024 198.907885 
L 1184.99976 198.907885 
L 1184.99976 3.00024 
L 3.00024 3.00024 
z
" style="fill: #ffffff"/>
   </g>
   <g id="matplotlib.axis_1">
    <g id="xtick_1">
     <g id="line2d_1">
      <defs>
       <path id="ma07177e539" d="M 0 0 
L 0 8 
" style="stroke: #000000; stroke-width: 2"/>
      </defs>
      <g>
       <use xlink:href="#ma07177e539" x="1131.272509" y="198.907885" style="stroke: #000000; stroke-width: 2"/>
      </g>
     </g>
     <g id="text_1">
      <!-- 0 -->
      <g transform="translate(1126.267665 224.791947) scale(0.18 -0.18)">
       <defs>
        <path id="Arial-BoldMT-30" d="M 1756 4600 
Q 2422 4600 2797 4125 
Q 3244 3563 3244 2259 
Q 3244 959 2794 391 
Q 2422 -78 1756 -78 
Q 1088 -78 678 436 
Q 269 950 269 2269 
Q 269 3563 719 4131 
Q 1091 4600 1756 4600 
z
M 1756 3872 
Q 1597 3872 1472 3770 
Q 1347 3669 1278 3406 
Q 1188 3066 1188 2259 
Q 1188 1453 1269 1151 
Q 1350 850 1473 750 
Q 1597 650 1756 650 
Q 1916 650 2041 751 
Q 2166 853 2234 1116 
Q 2325 1453 2325 2259 
Q 2325 3066 2244 3367 
Q 2163 3669 2039 3770 
Q 1916 3872 1756 3872 
z
" transform="scale(0.015625)"/>
       </defs>
       <use xlink:href="#Arial-BoldMT-30"/>
      </g>
     </g>
    </g>
    <g id="xtick_2">
     <g id="line2d_2">
      <g>
       <use xlink:href="#ma07177e539" x="1023.818007" y="198.907885" style="stroke: #000000; stroke-width: 2"/>
      </g>
     </g>
     <g id="text_2">
      <!-- 1 -->
      <g transform="translate(1018.813164 224.791947) scale(0.18 -0.18)">
       <defs>
        <path id="Arial-BoldMT-31" d="M 2519 0 
L 1641 0 
L 1641 3309 
Q 1159 2859 506 2644 
L 506 3441 
Q 850 3553 1253 3867 
Q 1656 4181 1806 4600 
L 2519 4600 
L 2519 0 
z
" transform="scale(0.015625)"/>
       </defs>
       <use xlink:href="#Arial-BoldMT-31"/>
      </g>
     </g>
    </g>
    <g id="xtick_3">
     <g id="line2d_3">
      <g>
       <use xlink:href="#ma07177e539" x="916.363505" y="198.907885" style="stroke: #000000; stroke-width: 2"/>
      </g>
     </g>
     <g id="text_3">
      <!-- 2 -->
      <g transform="translate(911.358662 224.791947) scale(0.18 -0.18)">
       <defs>
        <path id="Arial-BoldMT-32" d="M 3238 816 
L 3238 0 
L 159 0 
Q 209 463 459 877 
Q 709 1291 1447 1975 
Q 2041 2528 2175 2725 
Q 2356 2997 2356 3263 
Q 2356 3556 2198 3714 
Q 2041 3872 1763 3872 
Q 1488 3872 1325 3706 
Q 1163 3541 1138 3156 
L 263 3244 
Q 341 3969 753 4284 
Q 1166 4600 1784 4600 
Q 2463 4600 2850 4234 
Q 3238 3869 3238 3325 
Q 3238 3016 3127 2736 
Q 3016 2456 2775 2150 
Q 2616 1947 2200 1565 
Q 1784 1184 1673 1059 
Q 1563 934 1494 816 
L 3238 816 
z
" transform="scale(0.015625)"/>
       </defs>
       <use xlink:href="#Arial-BoldMT-32"/>
      </g>
     </g>
    </g>
    <g id="xtick_4">
     <g id="line2d_4">
      <g>
       <use xlink:href="#ma07177e539" x="808.909004" y="198.907885" style="stroke: #000000; stroke-width: 2"/>
      </g>
     </g>
     <g id="text_4">
      <!-- 3 -->
      <g transform="translate(803.90416 224.791947) scale(0.18 -0.18)">
       <defs>
        <path id="Arial-BoldMT-33" d="M 241 1216 
L 1091 1319 
Q 1131 994 1309 822 
Q 1488 650 1741 650 
Q 2013 650 2198 856 
Q 2384 1063 2384 1413 
Q 2384 1744 2206 1937 
Q 2028 2131 1772 2131 
Q 1603 2131 1369 2066 
L 1466 2781 
Q 1822 2772 2009 2936 
Q 2197 3100 2197 3372 
Q 2197 3603 2059 3740 
Q 1922 3878 1694 3878 
Q 1469 3878 1309 3722 
Q 1150 3566 1116 3266 
L 306 3403 
Q 391 3819 561 4067 
Q 731 4316 1036 4458 
Q 1341 4600 1719 4600 
Q 2366 4600 2756 4188 
Q 3078 3850 3078 3425 
Q 3078 2822 2419 2463 
Q 2813 2378 3048 2084 
Q 3284 1791 3284 1375 
Q 3284 772 2843 347 
Q 2403 -78 1747 -78 
Q 1125 -78 715 280 
Q 306 638 241 1216 
z
" transform="scale(0.015625)"/>
       </defs>
       <use xlink:href="#Arial-BoldMT-33"/>
      </g>
     </g>
    </g>
    <g id="xtick_5">
     <g id="line2d_5">
      <g>
       <use xlink:href="#ma07177e539" x="701.454502" y="198.907885" style="stroke: #000000; stroke-width: 2"/>
      </g>
     </g>
     <g id="text_5">
      <!-- 4 -->
      <g transform="translate(696.449658 224.791947) scale(0.18 -0.18)">
       <defs>
        <path id="Arial-BoldMT-34" d="M 1994 0 
L 1994 922 
L 119 922 
L 119 1691 
L 2106 4600 
L 2844 4600 
L 2844 1694 
L 3413 1694 
L 3413 922 
L 2844 922 
L 2844 0 
L 1994 0 
z
M 1994 1694 
L 1994 3259 
L 941 1694 
L 1994 1694 
z
" transform="scale(0.015625)"/>
       </defs>
       <use xlink:href="#Arial-BoldMT-34"/>
      </g>
     </g>
    </g>
    <g id="xtick_6">
     <g id="line2d_6">
      <g>
       <use xlink:href="#ma07177e539" x="594" y="198.907885" style="stroke: #000000; stroke-width: 2"/>
      </g>
     </g>
     <g id="text_6">
      <!-- 5 -->
      <g transform="translate(588.995156 224.791947) scale(0.18 -0.18)">
       <defs>
        <path id="Arial-BoldMT-35" d="M 284 1178 
L 1159 1269 
Q 1197 972 1381 798 
Q 1566 625 1806 625 
Q 2081 625 2272 848 
Q 2463 1072 2463 1522 
Q 2463 1944 2273 2155 
Q 2084 2366 1781 2366 
Q 1403 2366 1103 2031 
L 391 2134 
L 841 4519 
L 3163 4519 
L 3163 3697 
L 1506 3697 
L 1369 2919 
Q 1663 3066 1969 3066 
Q 2553 3066 2959 2641 
Q 3366 2216 3366 1538 
Q 3366 972 3038 528 
Q 2591 -78 1797 -78 
Q 1163 -78 763 262 
Q 363 603 284 1178 
z
" transform="scale(0.015625)"/>
       </defs>
       <use xlink:href="#Arial-BoldMT-35"/>
      </g>
     </g>
    </g>
    <g id="xtick_7">
     <g id="line2d_7">
      <g>
       <use xlink:href="#ma07177e539" x="486.545498" y="198.907885" style="stroke: #000000; stroke-width: 2"/>
      </g>
     </g>
     <g id="text_7">
      <!-- 6 -->
      <g transform="translate(481.540654 224.791947) scale(0.18 -0.18)">
       <defs>
        <path id="Arial-BoldMT-36" d="M 3247 3459 
L 2397 3366 
Q 2366 3628 2234 3753 
Q 2103 3878 1894 3878 
Q 1616 3878 1423 3628 
Q 1231 3378 1181 2588 
Q 1509 2975 1997 2975 
Q 2547 2975 2939 2556 
Q 3331 2138 3331 1475 
Q 3331 772 2918 347 
Q 2506 -78 1859 -78 
Q 1166 -78 719 461 
Q 272 1000 272 2228 
Q 272 3488 737 4044 
Q 1203 4600 1947 4600 
Q 2469 4600 2811 4308 
Q 3153 4016 3247 3459 
z
M 1256 1544 
Q 1256 1116 1453 883 
Q 1650 650 1903 650 
Q 2147 650 2309 840 
Q 2472 1031 2472 1466 
Q 2472 1913 2297 2120 
Q 2122 2328 1859 2328 
Q 1606 2328 1431 2129 
Q 1256 1931 1256 1544 
z
" transform="scale(0.015625)"/>
       </defs>
       <use xlink:href="#Arial-BoldMT-36"/>
      </g>
     </g>
    </g>
    <g id="xtick_8">
     <g id="line2d_8">
      <g>
       <use xlink:href="#ma07177e539" x="379.090996" y="198.907885" style="stroke: #000000; stroke-width: 2"/>
      </g>
     </g>
     <g id="text_8">
      <!-- 7 -->
      <g transform="translate(374.086153 224.791947) scale(0.18 -0.18)">
       <defs>
        <path id="Arial-BoldMT-37" d="M 272 3703 
L 272 4519 
L 3275 4519 
L 3275 3881 
Q 2903 3516 2518 2831 
Q 2134 2147 1932 1376 
Q 1731 606 1734 0 
L 888 0 
Q 909 950 1279 1937 
Q 1650 2925 2269 3703 
L 272 3703 
z
" transform="scale(0.015625)"/>
       </defs>
       <use xlink:href="#Arial-BoldMT-37"/>
      </g>
     </g>
    </g>
    <g id="xtick_9">
     <g id="line2d_9">
      <g>
       <use xlink:href="#ma07177e539" x="271.636495" y="198.907885" style="stroke: #000000; stroke-width: 2"/>
      </g>
     </g>
     <g id="text_9">
      <!-- 8 -->
      <g transform="translate(266.631651 224.791947) scale(0.18 -0.18)">
       <defs>
        <path id="Arial-BoldMT-38" d="M 1025 2472 
Q 684 2616 529 2867 
Q 375 3119 375 3419 
Q 375 3931 733 4265 
Q 1091 4600 1750 4600 
Q 2403 4600 2764 4265 
Q 3125 3931 3125 3419 
Q 3125 3100 2959 2851 
Q 2794 2603 2494 2472 
Q 2875 2319 3073 2025 
Q 3272 1731 3272 1347 
Q 3272 713 2867 316 
Q 2463 -81 1791 -81 
Q 1166 -81 750 247 
Q 259 634 259 1309 
Q 259 1681 443 1992 
Q 628 2303 1025 2472 
z
M 1206 3356 
Q 1206 3094 1354 2947 
Q 1503 2800 1750 2800 
Q 2000 2800 2150 2948 
Q 2300 3097 2300 3359 
Q 2300 3606 2151 3754 
Q 2003 3903 1759 3903 
Q 1506 3903 1356 3753 
Q 1206 3603 1206 3356 
z
M 1125 1394 
Q 1125 1031 1311 828 
Q 1497 625 1775 625 
Q 2047 625 2225 820 
Q 2403 1016 2403 1384 
Q 2403 1706 2222 1901 
Q 2041 2097 1763 2097 
Q 1441 2097 1283 1875 
Q 1125 1653 1125 1394 
z
" transform="scale(0.015625)"/>
       </defs>
       <use xlink:href="#Arial-BoldMT-38"/>
      </g>
     </g>
    </g>
    <g id="xtick_10">
     <g id="line2d_10">
      <g>
       <use xlink:href="#ma07177e539" x="164.181993" y="198.907885" style="stroke: #000000; stroke-width: 2"/>
      </g>
     </g>
     <g id="text_10">
      <!-- 9 -->
      <g transform="translate(159.177149 224.791947) scale(0.18 -0.18)">
       <defs>
        <path id="Arial-BoldMT-39" d="M 291 1059 
L 1141 1153 
Q 1172 894 1303 769 
Q 1434 644 1650 644 
Q 1922 644 2112 894 
Q 2303 1144 2356 1931 
Q 2025 1547 1528 1547 
Q 988 1547 595 1964 
Q 203 2381 203 3050 
Q 203 3747 617 4173 
Q 1031 4600 1672 4600 
Q 2369 4600 2816 4061 
Q 3263 3522 3263 2288 
Q 3263 1031 2797 475 
Q 2331 -81 1584 -81 
Q 1047 -81 715 205 
Q 384 491 291 1059 
z
M 2278 2978 
Q 2278 3403 2083 3637 
Q 1888 3872 1631 3872 
Q 1388 3872 1227 3680 
Q 1066 3488 1066 3050 
Q 1066 2606 1241 2398 
Q 1416 2191 1678 2191 
Q 1931 2191 2104 2391 
Q 2278 2591 2278 2978 
z
" transform="scale(0.015625)"/>
       </defs>
       <use xlink:href="#Arial-BoldMT-39"/>
      </g>
     </g>
    </g>
    <g id="xtick_11">
     <g id="line2d_11">
      <g>
       <use xlink:href="#ma07177e539" x="56.727491" y="198.907885" style="stroke: #000000; stroke-width: 2"/>
      </g>
     </g>
     <g id="text_11">
      <!-- 10 -->
      <g transform="translate(46.717803 224.791947) scale(0.18 -0.18)">
       <use xlink:href="#Arial-BoldMT-31"/>
       <use xlink:href="#Arial-BoldMT-30" x="55.615234"/>
      </g>
     </g>
    </g>
    <g id="text_12">
     <!-- Chemical Shift / ppm -->
     <g transform="translate(504.992813 245.447573) scale(0.18 -0.18)">
      <defs>
       <path id="Arial-BoldMT-43" d="M 3397 1684 
L 4294 1400 
Q 4088 650 3608 286 
Q 3128 -78 2391 -78 
Q 1478 -78 890 545 
Q 303 1169 303 2250 
Q 303 3394 893 4026 
Q 1484 4659 2447 4659 
Q 3288 4659 3813 4163 
Q 4125 3869 4281 3319 
L 3366 3100 
Q 3284 3456 3026 3662 
Q 2769 3869 2400 3869 
Q 1891 3869 1573 3503 
Q 1256 3138 1256 2319 
Q 1256 1450 1568 1081 
Q 1881 713 2381 713 
Q 2750 713 3015 947 
Q 3281 1181 3397 1684 
z
" transform="scale(0.015625)"/>
       <path id="Arial-BoldMT-68" d="M 1334 4581 
L 1334 2897 
Q 1759 3394 2350 3394 
Q 2653 3394 2897 3281 
Q 3141 3169 3264 2994 
Q 3388 2819 3433 2606 
Q 3478 2394 3478 1947 
L 3478 0 
L 2600 0 
L 2600 1753 
Q 2600 2275 2550 2415 
Q 2500 2556 2373 2639 
Q 2247 2722 2056 2722 
Q 1838 2722 1666 2615 
Q 1494 2509 1414 2295 
Q 1334 2081 1334 1663 
L 1334 0 
L 456 0 
L 456 4581 
L 1334 4581 
z
" transform="scale(0.015625)"/>
       <path id="Arial-BoldMT-65" d="M 2381 1056 
L 3256 909 
Q 3088 428 2723 176 
Q 2359 -75 1813 -75 
Q 947 -75 531 491 
Q 203 944 203 1634 
Q 203 2459 634 2926 
Q 1066 3394 1725 3394 
Q 2466 3394 2894 2905 
Q 3322 2416 3303 1406 
L 1103 1406 
Q 1113 1016 1316 798 
Q 1519 581 1822 581 
Q 2028 581 2168 693 
Q 2309 806 2381 1056 
z
M 2431 1944 
Q 2422 2325 2234 2523 
Q 2047 2722 1778 2722 
Q 1491 2722 1303 2513 
Q 1116 2303 1119 1944 
L 2431 1944 
z
" transform="scale(0.015625)"/>
       <path id="Arial-BoldMT-6d" d="M 394 3319 
L 1203 3319 
L 1203 2866 
Q 1638 3394 2238 3394 
Q 2556 3394 2790 3262 
Q 3025 3131 3175 2866 
Q 3394 3131 3647 3262 
Q 3900 3394 4188 3394 
Q 4553 3394 4806 3245 
Q 5059 3097 5184 2809 
Q 5275 2597 5275 2122 
L 5275 0 
L 4397 0 
L 4397 1897 
Q 4397 2391 4306 2534 
Q 4184 2722 3931 2722 
Q 3747 2722 3584 2609 
Q 3422 2497 3350 2280 
Q 3278 2063 3278 1594 
L 3278 0 
L 2400 0 
L 2400 1819 
Q 2400 2303 2353 2443 
Q 2306 2584 2207 2653 
Q 2109 2722 1941 2722 
Q 1738 2722 1575 2612 
Q 1413 2503 1342 2297 
Q 1272 2091 1272 1613 
L 1272 0 
L 394 0 
L 394 3319 
z
" transform="scale(0.015625)"/>
       <path id="Arial-BoldMT-69" d="M 459 3769 
L 459 4581 
L 1338 4581 
L 1338 3769 
L 459 3769 
z
M 459 0 
L 459 3319 
L 1338 3319 
L 1338 0 
L 459 0 
z
" transform="scale(0.015625)"/>
       <path id="Arial-BoldMT-63" d="M 3353 2338 
L 2488 2181 
Q 2444 2441 2289 2572 
Q 2134 2703 1888 2703 
Q 1559 2703 1364 2476 
Q 1169 2250 1169 1719 
Q 1169 1128 1367 884 
Q 1566 641 1900 641 
Q 2150 641 2309 783 
Q 2469 925 2534 1272 
L 3397 1125 
Q 3263 531 2881 228 
Q 2500 -75 1859 -75 
Q 1131 -75 698 384 
Q 266 844 266 1656 
Q 266 2478 700 2936 
Q 1134 3394 1875 3394 
Q 2481 3394 2839 3133 
Q 3197 2872 3353 2338 
z
" transform="scale(0.015625)"/>
       <path id="Arial-BoldMT-61" d="M 1116 2306 
L 319 2450 
Q 453 2931 781 3162 
Q 1109 3394 1756 3394 
Q 2344 3394 2631 3255 
Q 2919 3116 3036 2902 
Q 3153 2688 3153 2116 
L 3144 1091 
Q 3144 653 3186 445 
Q 3228 238 3344 0 
L 2475 0 
Q 2441 88 2391 259 
Q 2369 338 2359 363 
Q 2134 144 1878 34 
Q 1622 -75 1331 -75 
Q 819 -75 523 203 
Q 228 481 228 906 
Q 228 1188 362 1408 
Q 497 1628 739 1745 
Q 981 1863 1438 1950 
Q 2053 2066 2291 2166 
L 2291 2253 
Q 2291 2506 2166 2614 
Q 2041 2722 1694 2722 
Q 1459 2722 1328 2630 
Q 1197 2538 1116 2306 
z
M 2291 1594 
Q 2122 1538 1756 1459 
Q 1391 1381 1278 1306 
Q 1106 1184 1106 997 
Q 1106 813 1243 678 
Q 1381 544 1594 544 
Q 1831 544 2047 700 
Q 2206 819 2256 991 
Q 2291 1103 2291 1419 
L 2291 1594 
z
" transform="scale(0.015625)"/>
       <path id="Arial-BoldMT-6c" d="M 459 0 
L 459 4581 
L 1338 4581 
L 1338 0 
L 459 0 
z
" transform="scale(0.015625)"/>
       <path id="Arial-BoldMT-20" transform="scale(0.015625)"/>
       <path id="Arial-BoldMT-53" d="M 231 1491 
L 1131 1578 
Q 1213 1125 1461 912 
Q 1709 700 2131 700 
Q 2578 700 2804 889 
Q 3031 1078 3031 1331 
Q 3031 1494 2936 1608 
Q 2841 1722 2603 1806 
Q 2441 1863 1863 2006 
Q 1119 2191 819 2459 
Q 397 2838 397 3381 
Q 397 3731 595 4036 
Q 794 4341 1167 4500 
Q 1541 4659 2069 4659 
Q 2931 4659 3367 4281 
Q 3803 3903 3825 3272 
L 2900 3231 
Q 2841 3584 2645 3739 
Q 2450 3894 2059 3894 
Q 1656 3894 1428 3728 
Q 1281 3622 1281 3444 
Q 1281 3281 1419 3166 
Q 1594 3019 2269 2859 
Q 2944 2700 3267 2529 
Q 3591 2359 3773 2064 
Q 3956 1769 3956 1334 
Q 3956 941 3737 597 
Q 3519 253 3119 86 
Q 2719 -81 2122 -81 
Q 1253 -81 787 320 
Q 322 722 231 1491 
z
" transform="scale(0.015625)"/>
       <path id="Arial-BoldMT-66" d="M 75 3319 
L 563 3319 
L 563 3569 
Q 563 3988 652 4194 
Q 741 4400 980 4529 
Q 1219 4659 1584 4659 
Q 1959 4659 2319 4547 
L 2200 3934 
Q 1991 3984 1797 3984 
Q 1606 3984 1523 3895 
Q 1441 3806 1441 3553 
L 1441 3319 
L 2097 3319 
L 2097 2628 
L 1441 2628 
L 1441 0 
L 563 0 
L 563 2628 
L 75 2628 
L 75 3319 
z
" transform="scale(0.015625)"/>
       <path id="Arial-BoldMT-74" d="M 1981 3319 
L 1981 2619 
L 1381 2619 
L 1381 1281 
Q 1381 875 1398 808 
Q 1416 741 1477 697 
Q 1538 653 1625 653 
Q 1747 653 1978 738 
L 2053 56 
Q 1747 -75 1359 -75 
Q 1122 -75 931 4 
Q 741 84 652 211 
Q 563 338 528 553 
Q 500 706 500 1172 
L 500 2619 
L 97 2619 
L 97 3319 
L 500 3319 
L 500 3978 
L 1381 4491 
L 1381 3319 
L 1981 3319 
z
" transform="scale(0.015625)"/>
       <path id="Arial-BoldMT-2f" d="M -9 -78 
L 1125 4659 
L 1784 4659 
L 638 -78 
L -9 -78 
z
" transform="scale(0.015625)"/>
       <path id="Arial-BoldMT-70" d="M 434 3319 
L 1253 3319 
L 1253 2831 
Q 1413 3081 1684 3237 
Q 1956 3394 2288 3394 
Q 2866 3394 3269 2941 
Q 3672 2488 3672 1678 
Q 3672 847 3265 386 
Q 2859 -75 2281 -75 
Q 2006 -75 1782 34 
Q 1559 144 1313 409 
L 1313 -1263 
L 434 -1263 
L 434 3319 
z
M 1303 1716 
Q 1303 1156 1525 889 
Q 1747 622 2066 622 
Q 2372 622 2575 867 
Q 2778 1113 2778 1672 
Q 2778 2194 2568 2447 
Q 2359 2700 2050 2700 
Q 1728 2700 1515 2451 
Q 1303 2203 1303 1716 
z
" transform="scale(0.015625)"/>
      </defs>
      <use xlink:href="#Arial-BoldMT-43"/>
      <use xlink:href="#Arial-BoldMT-68" x="72.216797"/>
      <use xlink:href="#Arial-BoldMT-65" x="133.300781"/>
      <use xlink:href="#Arial-BoldMT-6d" x="188.916016"/>
      <use xlink:href="#Arial-BoldMT-69" x="277.832031"/>
      <use xlink:href="#Arial-BoldMT-63" x="305.615234"/>
      <use xlink:href="#Arial-BoldMT-61" x="361.230469"/>
      <use xlink:href="#Arial-BoldMT-6c" x="416.845703"/>
      <use xlink:href="#Arial-BoldMT-20" x="444.628906"/>
      <use xlink:href="#Arial-BoldMT-53" x="472.412109"/>
      <use xlink:href="#Arial-BoldMT-68" x="539.111328"/>
      <use xlink:href="#Arial-BoldMT-69" x="600.195312"/>
      <use xlink:href="#Arial-BoldMT-66" x="627.978516"/>
      <use xlink:href="#Arial-BoldMT-74" x="661.279297"/>
      <use xlink:href="#Arial-BoldMT-20" x="694.580078"/>
      <use xlink:href="#Arial-BoldMT-2f" x="722.363281"/>
      <use xlink:href="#Arial-BoldMT-20" x="750.146484"/>
      <use xlink:href="#Arial-BoldMT-70" x="777.929688"/>
      <use xlink:href="#Arial-BoldMT-70" x="839.013672"/>
      <use xlink:href="#Arial-BoldMT-6d" x="900.097656"/>
     </g>
    </g>
   </g>
   <g id="matplotlib.axis_2"/>
   <g id="line2d_12">
    <path d="M 3.080825 189.581186 
L 3.490064 189.127677 
L 3.694684 189.14531 
L 4.513163 189.592598 
L 5.127022 189.388495 
L 5.945501 188.802438 
L 6.35474 189.077545 
L 6.76398 189.296493 
L 6.9686 189.198039 
L 7.991698 188.117884 
L 8.400938 188.337087 
L 9.219417 189.277145 
L 9.833276 190.135621 
L 10.037895 190.218708 
L 10.447135 190.012374 
L 11.470234 189.03542 
L 11.879473 188.716687 
L 12.902572 187.078349 
L 13.107191 187.116149 
L 13.92567 187.822273 
L 14.33491 187.573175 
L 14.948769 186.982656 
L 15.153389 187.062267 
L 15.562628 187.801703 
L 16.381107 189.382467 
L 17.404206 191.014274 
L 17.608825 190.934869 
L 18.631924 189.739355 
L 19.041163 189.235586 
L 19.450403 188.603459 
L 19.655023 188.484902 
L 19.859642 188.566399 
L 21.29198 190.205752 
L 22.315079 192.58241 
L 22.519699 192.758349 
L 22.724319 192.756768 
L 23.133558 192.27789 
L 23.747417 191.324195 
L 23.952037 191.26722 
L 24.361276 191.51754 
L 24.975136 191.903691 
L 25.998234 192.286789 
L 26.612093 191.478286 
L 27.225953 190.833325 
L 27.635192 190.669097 
L 28.249051 190.779822 
L 28.658291 190.753688 
L 29.06753 190.286317 
L 30.090629 189.061986 
L 30.295248 188.99646 
L 30.499868 189.092417 
L 32.136826 190.845347 
L 32.341446 190.918386 
L 32.546065 190.848114 
L 32.750685 190.577261 
L 33.159925 189.466292 
L 33.569164 188.288753 
L 33.773784 187.99624 
L 33.978404 187.959643 
L 34.796882 188.647935 
L 35.206122 189.374946 
L 35.615361 190.179905 
L 35.819981 190.308952 
L 36.024601 190.214481 
L 37.252319 188.714703 
L 37.866178 188.307411 
L 38.275418 188.349429 
L 38.684657 188.800192 
L 39.707756 190.537199 
L 41.344714 191.096051 
L 41.753953 191.41335 
L 41.958573 191.442253 
L 42.367812 191.138609 
L 42.981671 190.622294 
L 43.595531 190.190433 
L 44.823249 188.754501 
L 45.232488 188.198161 
L 45.641728 188.04786 
L 46.050967 188.108672 
L 46.460207 188.543599 
L 46.869446 189.145607 
L 47.074066 189.259461 
L 47.278686 189.18928 
L 47.892545 188.701559 
L 48.097165 188.806472 
L 49.120263 189.921643 
L 50.347982 190.144593 
L 51.78032 190.669561 
L 51.984939 190.553822 
L 52.394179 189.88113 
L 53.826517 186.405991 
L 55.668095 179.107422 
L 55.872714 178.861662 
L 56.077334 178.959395 
L 56.486573 180.046337 
L 57.918912 185.276234 
L 58.328151 185.462737 
L 58.532771 185.762713 
L 59.965109 189.017592 
L 60.578968 189.936057 
L 60.783588 190.080497 
L 61.192827 189.990803 
L 61.602067 189.9371 
L 62.420546 190.421316 
L 63.239024 190.169475 
L 64.057503 189.967505 
L 64.671363 190.007146 
L 65.285222 189.812711 
L 65.694461 190.041836 
L 66.103701 190.366401 
L 66.51294 190.387092 
L 67.331419 190.147406 
L 67.740658 190.316945 
L 68.354518 190.698347 
L 68.763757 190.391606 
L 69.172997 190.138559 
L 69.582236 190.446725 
L 70.196095 191.017688 
L 70.400715 190.929484 
L 71.219194 190.017943 
L 71.628433 189.913377 
L 72.242292 189.861432 
L 73.265391 189.114126 
L 73.87925 189.30785 
L 74.493109 189.233832 
L 74.902349 189.572496 
L 75.925447 190.658003 
L 76.743926 192.122689 
L 77.153166 192.349591 
L 77.357786 192.320326 
L 77.767025 191.877504 
L 78.380884 190.980536 
L 79.608603 190.30954 
L 80.017842 190.575233 
L 80.631701 191.006477 
L 81.040941 190.841289 
L 82.064039 189.725112 
L 82.677898 190.085855 
L 83.087138 189.8627 
L 84.314856 188.66997 
L 84.519476 188.802209 
L 84.928715 189.642581 
L 85.542575 190.992895 
L 85.951814 191.390386 
L 86.156434 191.401575 
L 86.565673 191.04886 
L 86.974913 190.661146 
L 87.793392 190.333968 
L 88.407251 189.71836 
L 89.22573 189.460036 
L 89.634969 189.229596 
L 90.044209 189.294665 
L 90.453448 189.360133 
L 91.271927 189.211951 
L 91.681166 189.412878 
L 92.295026 189.734929 
L 92.908885 189.788043 
L 93.931983 190.460285 
L 94.750462 190.324807 
L 95.568941 189.918364 
L 96.59204 189.503934 
L 97.410519 189.634539 
L 98.842857 189.555295 
L 100.070575 190.448309 
L 100.684434 190.441044 
L 101.093674 190.182196 
L 101.502913 189.934477 
L 101.912153 190.041243 
L 102.321392 190.138889 
L 103.549111 189.510025 
L 104.16297 189.393501 
L 106.004547 189.82995 
L 106.413787 189.862922 
L 107.846125 190.268976 
L 108.664604 190.384263 
L 109.278463 190.426514 
L 110.096942 190.83689 
L 110.506181 190.671749 
L 111.52928 189.497323 
L 112.143139 188.870602 
L 112.961618 188.454552 
L 113.370857 188.456811 
L 113.984717 188.676952 
L 114.393956 189.142238 
L 114.803196 189.63391 
L 115.826294 190.042251 
L 116.235534 190.026465 
L 116.644773 189.798974 
L 117.258632 189.373971 
L 117.463252 189.302924 
L 117.667872 189.35421 
L 118.486351 190.126438 
L 118.89559 189.893353 
L 119.509449 189.284201 
L 120.123308 188.916086 
L 120.941787 188.172523 
L 121.964886 188.51235 
L 122.374125 187.994386 
L 122.987985 186.860703 
L 123.192604 186.764684 
L 124.420323 187.178573 
L 125.238802 187.941751 
L 125.648041 187.724399 
L 126.2619 187.220902 
L 126.46652 187.226809 
L 126.875759 187.577911 
L 127.489619 188.182225 
L 127.898858 188.178297 
L 128.512717 187.952692 
L 129.126576 187.365351 
L 129.535816 187.276846 
L 130.149675 187.474456 
L 130.968154 187.844496 
L 131.377393 187.558611 
L 131.786633 187.228035 
L 132.195872 187.129691 
L 133.218971 187.122358 
L 133.62821 187.013292 
L 134.03745 186.689666 
L 135.060549 185.434062 
L 136.083647 183.307968 
L 136.492887 182.812372 
L 136.902126 182.618457 
L 137.311366 182.516721 
L 137.720605 182.068064 
L 138.129844 180.891926 
L 138.743704 178.101845 
L 139.766802 172.520112 
L 140.380661 168.26031 
L 140.994521 161.928075 
L 141.60838 152.623756 
L 142.222239 138.50153 
L 142.631478 124.237035 
L 143.245338 94.213703 
L 143.859197 63.27719 
L 144.268436 52.497482 
L 144.473056 51.953779 
L 144.677676 54.803226 
L 145.086915 69.692515 
L 146.519253 139.237643 
L 147.133112 154.376777 
L 147.746972 164.469531 
L 148.360831 171.22319 
L 148.97469 176.103531 
L 149.588549 179.056105 
L 150.816267 183.607715 
L 152.043986 186.003731 
L 152.453225 186.2891 
L 152.862465 186.335403 
L 153.271704 186.82823 
L 153.885563 187.840442 
L 154.294803 188.076995 
L 154.908662 188.000449 
L 156.13638 187.323384 
L 156.341 187.410423 
L 156.75024 188.088108 
L 157.568718 189.694564 
L 158.387197 190.883848 
L 158.591817 190.851907 
L 158.796437 190.587892 
L 159.205676 189.543217 
L 159.819535 187.811216 
L 160.228775 187.25562 
L 160.842634 187.139334 
L 161.251874 186.951639 
L 161.661113 186.699201 
L 161.865733 186.750019 
L 162.274972 187.261861 
L 163.298071 189.078923 
L 163.502691 189.089181 
L 163.91193 188.51181 
L 164.321169 187.824171 
L 164.525789 187.684836 
L 164.935029 187.789045 
L 165.344268 187.923522 
L 165.753508 187.719038 
L 166.571986 186.861409 
L 166.776606 186.778439 
L 166.981226 186.837672 
L 168.618184 188.235843 
L 169.027423 188.362149 
L 169.845902 188.741765 
L 170.255142 188.618487 
L 172.096719 187.659439 
L 172.710578 187.928103 
L 173.119818 188.027107 
L 173.324437 187.895903 
L 173.733677 187.183623 
L 174.347536 186.002045 
L 174.756776 185.632216 
L 175.166015 185.56608 
L 175.779874 185.733762 
L 175.984494 185.674348 
L 176.393733 185.165823 
L 176.802973 184.48307 
L 177.007593 184.347201 
L 177.416832 184.488103 
L 178.030691 184.860687 
L 178.235311 184.844239 
L 179.05379 184.346388 
L 179.872269 184.614992 
L 180.281508 184.163648 
L 180.895367 183.342145 
L 181.304607 183.16234 
L 181.713846 183.314197 
L 182.532325 184.01937 
L 183.555424 184.344161 
L 184.169283 184.986983 
L 184.373903 184.904803 
L 184.783142 184.508652 
L 185.192382 184.467756 
L 185.806241 184.76044 
L 186.21548 185.13241 
L 186.62472 185.600212 
L 186.829339 185.59021 
L 187.852438 184.365389 
L 188.466297 184.132888 
L 189.694016 183.15358 
L 190.103255 182.682992 
L 190.307875 182.616028 
L 190.717114 182.812612 
L 191.126354 183.018791 
L 191.535593 182.787734 
L 191.944833 182.543009 
L 192.149452 182.62806 
L 192.558692 183.286417 
L 193.58179 185.673393 
L 193.99103 186.148771 
L 194.400269 186.23457 
L 195.218748 186.246589 
L 196.037227 185.437942 
L 196.241847 185.565854 
L 196.651086 186.402906 
L 197.264945 187.678021 
L 197.878805 188.430894 
L 198.083424 188.478926 
L 198.288044 188.378871 
L 198.697284 187.757098 
L 199.925002 185.171249 
L 200.743481 184.181598 
L 201.15272 183.946796 
L 201.766579 184.009232 
L 202.175819 183.97377 
L 202.585058 183.651743 
L 204.426636 181.710711 
L 204.835875 180.556742 
L 205.654354 177.210773 
L 206.472833 172.727411 
L 207.086692 167.606808 
L 207.700552 160.630192 
L 209.13289 141.423155 
L 209.542129 138.670998 
L 209.951369 137.035329 
L 210.155988 136.662885 
L 210.360608 136.638719 
L 210.565228 136.941311 
L 210.974467 138.372251 
L 211.383707 140.859016 
L 211.997566 146.342725 
L 212.611425 151.826893 
L 213.020664 153.632363 
L 213.225284 153.715309 
L 213.429904 153.187868 
L 213.839143 150.47856 
L 214.657622 142.047467 
L 215.476101 134.055335 
L 215.885341 131.247947 
L 216.29458 129.742615 
L 216.4992 129.418397 
L 216.70382 129.373259 
L 216.908439 129.658499 
L 217.113059 130.360707 
L 217.522298 133.386647 
L 218.136158 141.627863 
L 219.977735 169.249955 
L 220.591594 175.161136 
L 221.000834 177.567742 
L 221.614693 179.760917 
L 222.637792 182.784456 
L 223.456271 184.186471 
L 224.274749 185.144012 
L 224.888609 186.758731 
L 225.297848 187.738162 
L 225.707088 188.079606 
L 226.116327 188.055536 
L 226.525566 187.782751 
L 227.344045 186.778446 
L 227.548665 186.842694 
L 227.957904 187.354461 
L 228.571764 188.980406 
L 228.981003 189.829344 
L 229.185623 189.945979 
L 229.390243 189.855693 
L 230.208721 188.856496 
L 230.617961 189.072313 
L 231.0272 189.350866 
L 231.43644 189.329727 
L 231.845679 188.93605 
L 232.254919 188.541576 
L 232.459538 188.529314 
L 233.278017 189.062363 
L 233.687257 188.674609 
L 234.096496 188.376478 
L 234.301116 188.503415 
L 235.324215 189.811075 
L 235.733454 189.976311 
L 236.142694 189.873838 
L 236.551933 189.531636 
L 237.165792 188.570631 
L 237.779651 187.730274 
L 238.188891 187.191152 
L 238.59813 186.325126 
L 239.211989 184.266191 
L 240.848947 178.462361 
L 241.053567 178.577927 
L 241.872046 180.18784 
L 242.076666 180.067221 
L 242.895145 178.956901 
L 243.099764 179.071243 
L 243.509004 179.9698 
L 244.941342 184.786749 
L 245.350581 185.271078 
L 245.555201 185.322965 
L 245.96444 185.06126 
L 246.37368 184.335766 
L 246.782919 182.941085 
L 248.010638 178.056862 
L 248.624497 176.224087 
L 249.033736 173.561811 
L 249.647596 166.027367 
L 251.079934 146.44238 
L 251.284553 145.336707 
L 251.489173 145.08503 
L 251.693793 145.47155 
L 252.103032 146.671024 
L 252.307652 146.831699 
L 252.512272 146.539269 
L 252.921511 145.394224 
L 253.126131 145.36408 
L 253.330751 146.250026 
L 253.73999 150.89495 
L 254.558469 161.728674 
L 254.967708 164.745518 
L 255.376948 166.589614 
L 255.786187 167.464218 
L 255.990807 167.54805 
L 256.195427 167.354613 
L 256.604666 166.124948 
L 257.013906 164.169278 
L 257.423145 161.421017 
L 257.832385 157.458094 
L 258.241624 150.965206 
L 258.855483 135.587554 
L 259.469342 113.990142 
L 260.492441 74.566265 
L 260.901681 68.538912 
L 261.924779 61.472343 
L 262.129399 61.076675 
L 262.334019 61.60586 
L 262.743258 65.239508 
L 263.357117 73.496342 
L 263.970976 85.322404 
L 264.789455 105.586886 
L 266.221793 146.285922 
L 266.835653 156.261475 
L 267.449512 162.699824 
L 267.858751 165.524935 
L 268.267991 166.867373 
L 268.67723 167.37092 
L 269.08647 167.582568 
L 269.291089 167.492398 
L 269.495709 167.186615 
L 269.904948 165.890772 
L 270.518808 162.685666 
L 270.928047 160.69018 
L 271.132667 160.170495 
L 271.337287 160.030127 
L 271.541906 160.180163 
L 271.951146 160.940112 
L 272.360385 162.336298 
L 272.974244 165.719453 
L 273.588104 168.755376 
L 274.406582 170.922829 
L 277.680498 179.252031 
L 278.089738 179.882389 
L 278.294357 179.971052 
L 278.498977 179.856565 
L 278.703597 179.504319 
L 279.112836 178.182024 
L 279.522076 176.806196 
L 279.726695 176.473638 
L 279.931315 176.464419 
L 280.749794 177.315257 
L 281.363653 177.165048 
L 281.568273 177.473975 
L 281.977512 178.997518 
L 283.000611 183.868774 
L 283.40985 185.071271 
L 283.61447 185.366509 
L 283.81909 185.431134 
L 284.228329 185.155619 
L 285.046808 184.372867 
L 285.251428 184.341518 
L 285.660667 184.630879 
L 286.888386 185.715916 
L 287.297625 185.632354 
L 287.706865 185.536506 
L 289.548442 186.228525 
L 290.162301 185.381766 
L 291.59464 182.745874 
L 292.003879 181.558952 
L 292.413118 179.614396 
L 292.822358 176.788141 
L 293.231597 172.588805 
L 294.050076 160.254337 
L 294.459316 155.320555 
L 294.663935 154.201955 
L 294.868555 154.167287 
L 295.073175 155.112163 
L 296.096274 162.67906 
L 296.300893 162.756725 
L 296.505513 162.318234 
L 297.323992 159.642344 
L 297.528612 159.766297 
L 297.733231 160.457534 
L 298.75633 166.061774 
L 298.96095 166.391554 
L 299.165569 166.404838 
L 299.370189 166.135115 
L 299.779429 164.718523 
L 300.188668 161.906778 
L 301.211767 152.698436 
L 301.416386 152.173276 
L 301.621006 152.292377 
L 302.030246 153.18647 
L 302.234865 153.261837 
L 302.439485 152.865452 
L 302.848725 150.605765 
L 303.871823 141.8484 
L 304.076443 141.751059 
L 304.281063 142.601324 
L 304.690302 146.500498 
L 305.304161 153.255258 
L 305.713401 155.688785 
L 306.12264 156.586152 
L 306.32726 156.89814 
L 306.53188 157.474461 
L 306.941119 160.011885 
L 307.964218 168.609867 
L 308.373457 170.810909 
L 308.782697 171.927247 
L 308.987316 171.900982 
L 309.191936 171.415878 
L 309.601175 169.199319 
L 310.010415 166.64663 
L 310.215035 165.903048 
L 310.419654 165.803761 
L 310.624274 166.38247 
L 311.442753 170.556804 
L 311.647373 170.906849 
L 311.851992 170.941963 
L 312.056612 170.72924 
L 312.465852 169.724219 
L 312.875091 168.429151 
L 313.079711 168.077459 
L 313.284331 168.165087 
L 313.48895 168.807073 
L 313.89819 171.475022 
L 314.921288 178.714781 
L 315.535148 181.56846 
L 315.944387 182.421479 
L 316.149007 182.414174 
L 316.762866 181.887532 
L 317.172105 181.977624 
L 318.195204 182.510528 
L 318.604443 182.547341 
L 319.218303 182.523588 
L 319.422922 182.654054 
L 319.832162 183.328833 
L 320.241401 184.126485 
L 320.446021 184.25723 
L 321.2645 183.905794 
L 321.878359 184.128278 
L 322.696838 184.122305 
L 323.515317 184.723791 
L 324.743035 184.779836 
L 325.356894 185.109477 
L 325.766134 185.219363 
L 326.175373 184.954829 
L 326.584613 184.703451 
L 326.993852 184.595347 
L 327.198472 184.31961 
L 327.607711 183.084584 
L 328.016951 181.099445 
L 328.63081 176.651885 
L 330.881627 157.294528 
L 331.495486 148.697992 
L 332.927824 123.571575 
L 333.132444 122.692641 
L 333.337064 123.083251 
L 333.541684 124.529139 
L 333.950923 129.582392 
L 334.769402 140.788086 
L 335.178641 143.739591 
L 335.792501 146.546113 
L 336.20174 149.880375 
L 337.224839 159.497027 
L 337.634078 161.566072 
L 338.043318 162.473016 
L 338.247937 162.521309 
L 338.452557 162.251475 
L 338.861796 160.75461 
L 339.271036 158.433836 
L 339.680275 154.960683 
L 340.294135 146.689303 
L 340.907994 135.213596 
L 342.340332 103.364221 
L 342.954191 81.265825 
L 343.56805 47.354355 
L 344.181909 11.998578 
L 344.386529 5.260687 
L 344.591149 3.00024 
L 344.795768 5.655935 
L 345.205008 23.3395 
L 346.228107 81.717422 
L 346.841966 104.204606 
L 347.865064 131.964038 
L 348.478924 144.54213 
L 349.092783 153.101 
L 349.706642 158.166064 
L 350.115881 159.8852 
L 350.320501 160.257967 
L 350.525121 160.332811 
L 350.729741 160.139662 
L 350.93436 159.670633 
L 351.3436 157.655897 
L 351.752839 153.79097 
L 352.366698 144.730633 
L 353.185177 128.290725 
L 354.003656 107.337132 
L 354.617515 82.542803 
L 355.845234 19.850402 
L 356.049853 15.507917 
L 356.254473 14.992736 
L 356.459093 18.394649 
L 356.868332 34.818177 
L 358.096051 96.894513 
L 358.70991 114.29857 
L 359.733009 133.562392 
L 360.960727 153.316793 
L 361.574586 159.662049 
L 362.188445 163.949876 
L 362.597685 165.176912 
L 362.802304 165.238112 
L 363.006924 164.98399 
L 363.416164 163.766875 
L 363.825403 161.880653 
L 364.439262 157.596777 
L 365.257741 151.71686 
L 365.8716 147.403945 
L 366.48546 140.849776 
L 367.303938 130.751063 
L 367.508558 129.48161 
L 367.713178 129.239473 
L 367.917798 130.198001 
L 368.327037 135.728808 
L 369.554755 158.479537 
L 370.168615 165.629494 
L 370.987094 172.591566 
L 371.600953 176.394329 
L 372.214812 178.644148 
L 373.033291 180.873324 
L 373.64715 181.797809 
L 375.693347 184.925747 
L 376.102587 185.573709 
L 376.511826 185.882941 
L 376.921066 185.988549 
L 377.330305 185.875976 
L 377.739545 185.425085 
L 378.353404 183.984343 
L 379.376502 181.302631 
L 379.581122 181.102468 
L 379.785742 181.087074 
L 380.194981 181.418763 
L 381.4227 183.326299 
L 382.036559 183.783104 
L 383.059657 184.283678 
L 383.468897 184.31997 
L 383.878136 184.01168 
L 384.696615 183.065146 
L 385.719714 181.734987 
L 385.924334 181.56057 
L 386.128953 181.549835 
L 386.333573 181.746899 
L 386.947432 182.736263 
L 387.356672 182.806173 
L 387.765911 182.757005 
L 388.78901 182.856317 
L 388.993629 182.641083 
L 389.402869 181.686415 
L 390.630587 177.891164 
L 390.835207 177.736483 
L 391.039827 177.906424 
L 391.449066 178.968629 
L 392.676785 182.905255 
L 392.881404 182.950987 
L 393.699883 182.694357 
L 394.313742 182.76306 
L 394.927602 182.418941 
L 395.336841 181.689575 
L 395.74608 180.738648 
L 395.9507 180.473995 
L 396.35994 180.435553 
L 396.769179 180.634663 
L 397.178419 181.230683 
L 398.201517 183.772295 
L 399.633855 185.414666 
L 400.247714 186.256207 
L 401.475433 187.195952 
L 401.884672 187.912181 
L 402.293912 188.740471 
L 402.498531 188.936617 
L 402.703151 188.936202 
L 403.52163 188.510495 
L 404.135489 188.608451 
L 404.749348 188.903008 
L 405.158588 188.923779 
L 405.567827 189.174785 
L 405.977067 189.467073 
L 406.386306 189.465766 
L 406.795546 189.35359 
L 407.000165 189.491453 
L 407.614025 190.319909 
L 407.818644 190.371261 
L 408.227884 190.060186 
L 408.637123 189.80977 
L 410.274081 190.129328 
L 410.88794 190.303435 
L 411.09256 190.503432 
L 411.911039 191.928651 
L 412.115659 191.982796 
L 412.524898 191.737866 
L 413.752616 190.216405 
L 414.366476 189.891878 
L 415.594194 188.198008 
L 416.412673 187.395316 
L 416.821912 187.180991 
L 417.231152 186.425077 
L 418.049631 184.34995 
L 418.45887 183.876779 
L 419.277349 183.114696 
L 419.891208 182.073164 
L 420.709687 180.10171 
L 420.914307 180.006102 
L 421.118927 180.137818 
L 422.551265 181.949449 
L 422.755884 181.794224 
L 423.165124 180.784633 
L 423.778983 178.878102 
L 423.983603 178.716586 
L 424.188222 178.930251 
L 424.802082 180.68032 
L 425.82518 183.418719 
L 426.23442 183.835923 
L 426.643659 184.202484 
L 427.052899 185.163788 
L 427.462138 186.270567 
L 427.666758 186.547406 
L 427.871378 186.579852 
L 428.075997 186.394035 
L 428.894476 185.010469 
L 429.712955 184.624381 
L 431.145293 182.839254 
L 432.168392 182.182829 
L 432.577631 182.193517 
L 432.986871 182.390555 
L 433.39611 183.0277 
L 434.214589 184.733824 
L 434.419209 184.91256 
L 434.623829 184.934763 
L 435.033068 184.623718 
L 435.851547 183.657826 
L 436.056167 183.78711 
L 436.465406 184.551255 
L 437.079265 185.695314 
L 438.306984 187.337236 
L 439.125463 187.253507 
L 439.534702 187.827158 
L 440.148561 188.801346 
L 440.557801 188.951769 
L 442.399378 188.752647 
L 442.808618 188.789242 
L 443.217857 188.937635 
L 443.627097 188.759696 
L 444.036336 188.362539 
L 444.240956 188.303821 
L 444.650195 188.595017 
L 445.264054 189.489647 
L 445.877914 190.500346 
L 446.082533 190.591576 
L 446.491773 190.41817 
L 447.924111 189.59729 
L 448.33335 189.481894 
L 448.74259 189.05019 
L 449.970308 187.532303 
L 450.379548 187.20181 
L 450.584167 187.256344 
L 450.788787 187.485256 
L 451.198026 188.466788 
L 451.607266 189.677892 
L 451.811886 189.943566 
L 452.016505 189.928214 
L 452.425745 189.719436 
L 452.834984 189.837784 
L 453.244224 190.061049 
L 453.448843 190.065004 
L 453.858083 189.738449 
L 454.267322 189.269885 
L 454.471942 189.221494 
L 455.495041 189.728941 
L 456.518139 189.723856 
L 456.722759 189.725585 
L 457.131999 189.401701 
L 457.950477 188.445186 
L 458.768956 187.873048 
L 458.973576 187.845952 
L 459.792055 188.100922 
L 460.405914 188.013135 
L 460.815154 188.404807 
L 461.429013 189.103426 
L 461.633632 189.091274 
L 462.452111 188.534597 
L 462.861351 188.618811 
L 463.884449 189.084583 
L 464.498309 188.90767 
L 464.907548 189.228821 
L 465.930647 190.429829 
L 466.339886 190.471238 
L 467.158365 190.275302 
L 467.567605 190.836305 
L 467.976844 191.501634 
L 468.386083 191.752221 
L 469.409182 191.475999 
L 469.818422 191.013053 
L 470.227661 190.503077 
L 470.432281 190.434579 
L 471.04614 190.558796 
L 471.455379 190.459277 
L 471.864619 190.537331 
L 472.069239 190.44362 
L 472.478478 189.807094 
L 472.887717 189.14418 
L 473.296957 188.925561 
L 474.115436 188.822348 
L 474.524675 189.422782 
L 474.933915 190.149146 
L 475.138534 190.319304 
L 475.343154 190.310051 
L 475.957013 189.849148 
L 476.161633 189.999891 
L 476.775492 190.862235 
L 477.184732 190.982361 
L 478.20783 190.452224 
L 479.435549 190.476702 
L 480.458647 191.090129 
L 480.663267 190.824696 
L 481.686366 188.650436 
L 482.095605 188.412506 
L 482.709464 188.281917 
L 483.118704 188.370083 
L 483.527943 188.69534 
L 483.937183 189.617181 
L 484.551042 191.426844 
L 484.755662 191.606138 
L 485.164901 191.398552 
L 486.597239 190.498738 
L 487.006479 189.922142 
L 487.824958 188.338883 
L 488.029577 188.31932 
L 488.438817 188.732072 
L 489.461915 190.183688 
L 489.666535 190.194116 
L 490.075775 189.882887 
L 490.485014 189.597735 
L 490.894253 189.823913 
L 491.303493 190.090159 
L 491.508113 190.019977 
L 492.326592 189.058821 
L 492.531211 189.166231 
L 492.940451 189.934724 
L 493.34969 190.770199 
L 493.55431 190.857203 
L 493.963549 190.423302 
L 494.782028 189.031613 
L 494.986648 188.926277 
L 495.191268 189.007108 
L 495.600507 189.434774 
L 495.805127 189.478388 
L 496.623606 188.796244 
L 497.032845 189.012398 
L 497.442085 189.251118 
L 497.851324 189.084183 
L 498.260564 188.691118 
L 498.874423 187.89507 
L 499.079042 187.982306 
L 499.488282 188.851281 
L 500.102141 190.123433 
L 500.511381 190.524375 
L 500.716 190.537797 
L 501.534479 190.117785 
L 502.148338 190.308992 
L 502.557578 190.087127 
L 503.580676 188.876135 
L 504.194536 188.501494 
L 504.399155 188.548906 
L 504.808395 189.232241 
L 505.217634 189.989305 
L 505.626874 190.21929 
L 506.240733 190.276886 
L 506.649972 190.152287 
L 507.468451 190.242569 
L 507.877691 190.178661 
L 508.28693 190.565947 
L 508.900789 191.316593 
L 509.105409 191.375232 
L 509.514649 191.164812 
L 510.333127 190.506466 
L 510.946987 190.057315 
L 511.356226 189.794641 
L 512.583944 189.711118 
L 512.993184 190.135656 
L 513.811663 191.233902 
L 514.220902 191.458213 
L 514.630142 191.316998 
L 515.039381 190.990529 
L 515.448621 190.354342 
L 516.2671 188.789188 
L 516.880959 187.909195 
L 517.085578 187.839859 
L 517.290198 187.996976 
L 518.108677 189.268526 
L 518.722536 189.771289 
L 519.131776 190.108914 
L 519.745635 190.244822 
L 520.154874 190.246881 
L 520.564114 189.960423 
L 521.791832 188.757181 
L 522.201072 188.817858 
L 523.42879 188.473566 
L 523.838029 189.170791 
L 524.247269 189.994135 
L 524.656508 190.233886 
L 525.679607 190.036992 
L 525.884227 190.308206 
L 526.907325 192.497045 
L 527.111945 192.590328 
L 527.521185 192.340859 
L 528.339663 191.296898 
L 528.748903 190.457229 
L 529.362762 188.822203 
L 529.772002 188.451372 
L 530.99972 188.414726 
L 531.408959 188.278222 
L 531.613579 188.333315 
L 532.022819 188.827064 
L 532.841297 190.50736 
L 533.250537 190.675946 
L 534.273636 190.631098 
L 534.887495 190.105539 
L 535.501354 189.860319 
L 535.705974 189.923096 
L 536.319833 190.441677 
L 536.524452 190.429609 
L 537.138312 190.022678 
L 537.547551 190.148433 
L 537.956791 190.285222 
L 538.36603 190.000087 
L 539.389129 188.789679 
L 540.207608 188.108365 
L 540.821467 187.436601 
L 541.026086 187.433974 
L 541.844565 188.222101 
L 542.867664 188.149355 
L 543.890763 188.761936 
L 544.300002 188.780078 
L 544.504622 188.964522 
L 545.323101 190.221953 
L 545.52772 190.080522 
L 545.93696 189.109456 
L 546.550819 187.708422 
L 546.960059 187.444265 
L 547.573918 187.536888 
L 548.597016 187.766002 
L 549.006256 187.773325 
L 549.620115 188.041041 
L 550.438594 187.871778 
L 551.052453 188.438184 
L 551.461693 188.730158 
L 551.666312 188.671312 
L 552.280171 188.242542 
L 552.689411 188.605322 
L 552.894031 188.78192 
L 553.09865 188.800781 
L 553.50789 188.464154 
L 554.121749 187.898111 
L 554.326369 187.847095 
L 554.530988 187.953896 
L 555.963327 189.609129 
L 556.372566 189.898263 
L 556.986425 189.952041 
L 557.600284 190.373378 
L 557.804904 190.31262 
L 558.214144 189.837541 
L 558.828003 189.020046 
L 559.237242 188.936454 
L 560.055721 189.147667 
L 560.464961 189.17486 
L 561.07882 188.942282 
L 562.101918 188.526133 
L 562.511158 188.800829 
L 563.125017 189.717043 
L 563.943496 191.093021 
L 564.148116 191.183503 
L 564.557355 191.047917 
L 565.171214 190.635025 
L 565.580454 190.098055 
L 566.603552 187.998813 
L 566.808172 187.94054 
L 567.012792 188.08559 
L 567.422031 188.758133 
L 567.831271 189.540694 
L 568.03589 189.727723 
L 568.24051 189.625608 
L 569.058989 188.324729 
L 569.263609 188.316674 
L 569.672848 188.691688 
L 570.491327 189.796697 
L 571.105186 190.260865 
L 571.923665 190.764493 
L 573.356003 191.906328 
L 573.560623 191.84916 
L 575.197581 190.0938 
L 575.81144 190.147071 
L 576.220679 189.749405 
L 576.629919 189.385961 
L 576.834539 189.455023 
L 577.243778 190.080984 
L 578.266877 191.832756 
L 578.471496 191.942158 
L 578.676116 191.89708 
L 579.085356 191.50776 
L 579.494595 191.109395 
L 580.313074 190.77703 
L 580.722313 190.493331 
L 581.131553 190.535598 
L 581.540792 190.692245 
L 581.745412 190.651933 
L 581.950032 190.463917 
L 582.359271 189.639003 
L 582.97313 188.402794 
L 583.38237 188.24116 
L 584.814708 188.780846 
L 585.633187 188.867398 
L 586.247046 189.234541 
L 586.656286 189.134046 
L 587.270145 188.671831 
L 587.884004 188.204675 
L 588.702483 187.957166 
L 588.907103 188.041213 
L 589.316342 188.587429 
L 589.930201 189.610389 
L 590.339441 189.822398 
L 590.9533 189.476677 
L 591.362539 189.294124 
L 591.771779 189.363409 
L 592.181018 189.828625 
L 592.794877 190.66921 
L 593.204117 190.843015 
L 593.613356 190.55783 
L 594.636455 189.297736 
L 595.659554 188.897849 
L 596.273413 188.804427 
L 596.682652 189.197285 
L 597.501131 190.285466 
L 597.910371 190.45598 
L 598.728849 190.240277 
L 599.342709 190.446834 
L 599.751948 190.477863 
L 600.570427 191.06548 
L 601.184286 190.92587 
L 601.798145 190.593394 
L 602.412005 189.904448 
L 602.616624 189.85266 
L 603.025864 190.160125 
L 603.435103 190.469428 
L 604.048962 190.718665 
L 604.867441 191.404786 
L 605.276681 191.271189 
L 605.89054 191.096373 
L 606.913639 190.801195 
L 607.732117 191.074395 
L 607.936737 191.001177 
L 609.369075 189.591675 
L 609.778315 189.115778 
L 610.392174 188.891969 
L 611.210653 187.940345 
L 611.619892 188.070917 
L 612.029132 188.207582 
L 614.484568 187.855448 
L 614.893808 188.077555 
L 615.916906 189.037089 
L 616.735385 189.429845 
L 617.144625 189.899877 
L 617.553864 190.406703 
L 617.963104 190.570433 
L 618.372343 190.330976 
L 619.190822 189.643198 
L 619.600062 189.487066 
L 619.804681 189.561162 
L 620.82778 190.549897 
L 621.237019 190.451637 
L 621.646259 190.054515 
L 622.464738 188.866186 
L 622.873977 187.953764 
L 623.487836 186.441748 
L 623.897076 185.922017 
L 624.101696 185.874837 
L 624.306315 186.036713 
L 625.124794 187.188948 
L 625.738653 187.578411 
L 626.352513 188.489911 
L 626.966372 189.372082 
L 627.580231 189.801485 
L 628.60333 190.528701 
L 629.012569 190.390008 
L 629.421808 190.116268 
L 629.831048 189.564845 
L 630.240287 188.893264 
L 630.444907 188.706032 
L 630.649527 188.678168 
L 631.058766 189.075777 
L 631.672625 189.998006 
L 631.877245 190.117964 
L 632.081865 190.078665 
L 632.695724 189.633771 
L 633.104964 189.772029 
L 633.923442 190.247833 
L 634.128062 190.179413 
L 634.741921 189.636203 
L 634.946541 189.661625 
L 635.76502 190.24432 
L 636.378879 190.317431 
L 636.788119 190.023882 
L 637.401978 189.495627 
L 637.811217 189.400922 
L 638.425076 189.6004 
L 638.834316 189.734867 
L 639.243555 189.570559 
L 639.652795 189.317374 
L 639.857415 189.311115 
L 640.266654 189.613703 
L 640.880513 190.186729 
L 641.289753 190.342809 
L 641.903612 190.432967 
L 642.722091 190.587698 
L 643.745189 190.530942 
L 644.768288 190.162662 
L 645.382147 190.084609 
L 646.405246 189.543355 
L 648.451443 189.82934 
L 649.269922 189.217008 
L 649.883781 189.426356 
L 650.49764 189.268291 
L 651.316119 189.376284 
L 652.134598 188.846937 
L 652.543838 188.392733 
L 653.362316 187.230271 
L 653.771556 187.032763 
L 653.976176 187.081959 
L 654.385415 187.594664 
L 654.794655 188.190445 
L 655.203894 188.33949 
L 656.022373 188.235371 
L 656.636232 188.250838 
L 657.045472 188.556297 
L 657.659331 189.169419 
L 658.06857 189.267546 
L 658.47781 189.033759 
L 659.296289 188.311201 
L 660.319387 187.634687 
L 660.524007 187.708344 
L 660.933246 188.209838 
L 661.342486 188.740134 
L 662.570204 189.857724 
L 663.184063 190.459126 
L 663.593303 190.52646 
L 664.002542 190.454883 
L 664.411782 190.182714 
L 665.025641 189.606397 
L 665.230261 189.549153 
L 665.6395 189.769385 
L 666.253359 190.097633 
L 666.867218 190.223482 
L 667.276458 190.217943 
L 667.685697 190.491041 
L 668.094937 190.849249 
L 668.504176 190.947607 
L 668.913416 190.755155 
L 669.731895 189.976433 
L 670.141134 190.123898 
L 670.754993 190.57589 
L 671.368852 191.227807 
L 671.778092 191.372621 
L 672.187331 191.3124 
L 672.596571 191.001542 
L 673.41505 190.103206 
L 673.824289 190.003966 
L 675.665867 190.326721 
L 676.279726 190.600825 
L 676.688965 190.788171 
L 677.098205 190.681218 
L 677.916684 190.175455 
L 678.939782 189.836952 
L 679.758261 189.133693 
L 679.962881 189.113975 
L 680.167501 189.223878 
L 680.57674 189.981884 
L 681.190599 191.410084 
L 681.599839 191.67145 
L 682.009078 191.468938 
L 682.827557 190.611156 
L 683.032177 190.654561 
L 683.646036 191.115535 
L 684.055276 190.853502 
L 685.692233 189.534738 
L 686.101473 189.405111 
L 686.715332 189.338886 
L 687.329191 189.138482 
L 687.533811 189.192907 
L 687.94305 189.724565 
L 688.35229 190.2846 
L 688.761529 190.545642 
L 689.170769 190.599768 
L 690.807726 189.834881 
L 691.216966 189.514698 
L 691.421586 189.464582 
L 691.626205 189.588668 
L 692.649304 191.237452 
L 693.263163 191.375879 
L 693.672403 191.2462 
L 694.081642 190.883159 
L 694.900121 189.630044 
L 695.30936 189.062319 
L 695.92322 188.505121 
L 696.946318 186.720423 
L 697.150938 186.671056 
L 697.355558 186.793448 
L 697.764797 187.544719 
L 698.583276 189.34783 
L 698.992516 189.926912 
L 699.401755 190.151482 
L 699.810994 190.316138 
L 700.424854 190.847442 
L 700.834093 190.901443 
L 701.243333 190.803486 
L 701.857192 190.239213 
L 702.471051 189.702579 
L 703.49415 189.371863 
L 704.312628 188.724245 
L 704.517248 188.571513 
L 704.721868 188.6345 
L 705.131107 189.398985 
L 705.744967 190.485367 
L 705.949586 190.614251 
L 706.154206 190.587984 
L 706.358826 190.396402 
L 706.768065 189.527361 
L 707.381924 187.904746 
L 707.791164 187.487055 
L 708.200403 187.441824 
L 709.428122 187.568259 
L 709.632741 187.358967 
L 710.86046 185.137658 
L 711.269699 184.608892 
L 711.883558 182.769676 
L 712.497418 180.412976 
L 713.520516 175.868423 
L 713.929756 172.550735 
L 714.543615 165.085246 
L 715.362094 151.096842 
L 716.794432 122.283857 
L 717.203671 118.30126 
L 717.408291 117.897062 
L 717.612911 118.587972 
L 718.02215 122.947523 
L 718.636009 134.764536 
L 719.659108 154.618961 
L 720.477587 164.95452 
L 721.091446 169.856883 
L 722.933024 180.344112 
L 723.342263 181.94395 
L 723.956122 183.411004 
L 724.365362 184.014105 
L 724.774601 184.270765 
L 725.183841 184.09749 
L 725.7977 183.836851 
L 726.206939 183.930879 
L 726.616179 184.259362 
L 727.230038 185.231655 
L 727.843897 186.185222 
L 728.866996 187.226264 
L 729.276235 187.647322 
L 730.503953 188.020373 
L 731.731672 187.520776 
L 732.140911 187.882379 
L 732.95939 188.848139 
L 733.16401 188.87744 
L 733.36863 188.716655 
L 734.596348 187.019231 
L 735.005587 187.227645 
L 735.824066 187.898752 
L 736.437926 188.055258 
L 737.051785 187.926459 
L 737.461024 187.665596 
L 737.870264 186.905592 
L 738.279503 186.151319 
L 738.484123 186.025208 
L 738.893362 186.176941 
L 739.507221 186.390785 
L 739.916461 186.198861 
L 740.53032 185.772669 
L 741.144179 185.799273 
L 741.553419 186.019837 
L 741.962658 186.695328 
L 743.190377 189.329724 
L 743.599616 189.523127 
L 744.213475 189.616886 
L 745.031954 188.942615 
L 745.850433 188.921886 
L 746.668912 188.461816 
L 747.078151 188.555373 
L 747.89663 189.106983 
L 748.715109 188.838906 
L 749.124349 189.141832 
L 749.738208 189.733659 
L 750.147447 189.868862 
L 750.556687 189.801561 
L 751.170546 189.551319 
L 751.989025 189.619384 
L 752.807504 189.279224 
L 753.625983 188.356009 
L 753.830602 188.326374 
L 754.239842 188.626851 
L 755.058321 189.440711 
L 756.081419 190.237666 
L 756.695279 190.20861 
L 757.309138 189.893411 
L 757.718377 189.353087 
L 758.127617 188.852722 
L 758.332236 188.874707 
L 759.559955 189.860265 
L 760.173814 190.43229 
L 760.787673 190.935813 
L 761.401532 190.949191 
L 762.220011 190.777934 
L 762.629251 190.724392 
L 763.03849 190.276627 
L 763.44773 189.870209 
L 763.856969 189.938195 
L 765.289307 190.832386 
L 765.493927 190.6736 
L 766.517025 189.072577 
L 766.926265 189.07142 
L 767.540124 189.469011 
L 767.949363 189.970826 
L 768.358603 190.489813 
L 768.563223 190.487148 
L 768.972462 190.068802 
L 769.586321 189.427505 
L 770.81404 188.552924 
L 771.018659 188.670555 
L 772.041758 189.815147 
L 772.655617 189.638499 
L 773.269476 190.001048 
L 773.678716 189.74275 
L 774.701814 188.755234 
L 775.315674 188.491375 
L 775.929533 188.513712 
L 776.338772 188.686771 
L 777.566491 189.678617 
L 777.77111 189.690111 
L 778.18035 189.391783 
L 778.794209 188.821861 
L 779.408068 188.721854 
L 779.817308 188.782081 
L 780.431167 189.061954 
L 781.045026 188.964906 
L 782.477364 189.374157 
L 783.500463 189.038001 
L 783.909702 189.312305 
L 784.728181 190.391119 
L 785.137421 190.3666 
L 785.54666 190.268251 
L 786.365139 190.48193 
L 787.388238 191.004785 
L 787.797477 190.848189 
L 788.206716 190.631459 
L 788.411336 190.710834 
L 789.025195 191.399417 
L 789.229815 191.431939 
L 789.434435 191.273937 
L 790.048294 190.107987 
L 790.457533 189.464327 
L 790.866773 189.234014 
L 791.276012 189.525527 
L 791.685252 189.764267 
L 792.094491 189.686848 
L 792.70835 189.449216 
L 793.936069 189.507547 
L 794.549928 190.085052 
L 795.163787 190.833462 
L 795.368407 190.846771 
L 795.777646 190.378341 
L 796.800745 188.298053 
L 797.414604 187.743455 
L 797.823844 187.290646 
L 798.028463 187.285621 
L 798.437703 187.787074 
L 798.846942 188.358145 
L 799.051562 188.415894 
L 799.665421 188.324136 
L 800.074661 188.774417 
L 800.68852 189.525946 
L 801.302379 190.015503 
L 802.120858 190.177445 
L 803.143957 190.669167 
L 803.757816 191.500642 
L 804.167055 191.660818 
L 804.371675 191.647011 
L 804.576295 191.506682 
L 805.804013 189.845104 
L 806.622492 189.698836 
L 807.236351 189.040816 
L 807.440971 189.026588 
L 807.85021 189.342304 
L 808.25945 189.615292 
L 808.873309 189.812017 
L 809.691788 190.3717 
L 809.896407 190.279702 
L 810.919506 189.169103 
L 811.328746 189.209346 
L 811.533365 189.110336 
L 811.942605 188.467598 
L 812.351844 187.738533 
L 812.556464 187.651768 
L 812.965703 187.925287 
L 813.374943 188.181797 
L 814.602661 188.3999 
L 815.21652 188.764865 
L 815.62576 188.698847 
L 816.444239 188.055516 
L 816.853478 188.263437 
L 817.262718 188.559678 
L 817.671957 188.59644 
L 818.285816 188.583661 
L 818.695056 188.945384 
L 819.104295 189.328091 
L 819.922774 189.684872 
L 820.945873 190.577065 
L 821.355112 190.637203 
L 821.764352 190.3972 
L 822.378211 189.819921 
L 822.582831 189.830899 
L 823.19669 190.232016 
L 823.401309 190.19669 
L 824.219788 189.634482 
L 824.424408 189.901181 
L 825.242887 191.749642 
L 825.447507 191.80761 
L 825.856746 191.371694 
L 826.675225 190.302462 
L 827.084465 189.880497 
L 827.289084 189.810426 
L 828.312183 190.089493 
L 828.721422 189.572078 
L 829.130662 188.860719 
L 829.539901 188.612752 
L 829.949141 188.823 
L 830.35838 189.566939 
L 830.972239 191.028666 
L 831.381479 191.353949 
L 831.586099 191.263861 
L 831.995338 190.61986 
L 832.813817 189.124924 
L 833.018437 188.996574 
L 833.223056 189.08404 
L 833.836916 189.847743 
L 834.041535 189.867647 
L 834.450775 189.508865 
L 835.678493 188.191699 
L 836.087733 188.006952 
L 837.520071 187.987162 
L 838.13393 187.485816 
L 838.33855 187.691401 
L 839.770888 190.658068 
L 839.975507 190.697627 
L 840.384747 190.333843 
L 840.998606 189.623873 
L 841.203226 189.728041 
L 842.021705 191.138647 
L 842.226324 191.181821 
L 842.635564 190.906462 
L 843.249423 190.466662 
L 843.863282 190.24503 
L 844.272522 189.708183 
L 845.091 188.015236 
L 845.50024 187.840682 
L 845.909479 187.778364 
L 846.318719 187.547961 
L 846.523339 187.572069 
L 847.341817 188.125719 
L 847.751057 188.315119 
L 849.183395 189.5684 
L 850.001874 189.829692 
L 850.411113 189.445382 
L 851.843451 187.305455 
L 852.86655 187.041558 
L 853.480409 186.347441 
L 853.889649 186.227165 
L 854.298888 186.30854 
L 854.708128 186.922589 
L 855.935846 189.726468 
L 856.345085 189.863732 
L 856.754325 189.740627 
L 857.163564 189.17848 
L 857.777424 188.103236 
L 858.186663 187.888511 
L 858.595902 188.196462 
L 858.800522 188.345662 
L 859.209762 188.269509 
L 859.414381 188.242658 
L 859.619001 188.377494 
L 860.6421 189.713357 
L 861.869818 189.483805 
L 862.483677 189.459917 
L 862.892917 189.404775 
L 863.302156 189.073397 
L 864.529875 187.593292 
L 865.143734 186.580346 
L 865.348353 186.447536 
L 865.552973 186.478698 
L 865.962213 186.925432 
L 866.780692 188.496085 
L 866.985311 188.560632 
L 868.417649 187.954808 
L 868.826889 187.903849 
L 869.236128 187.832565 
L 869.645368 187.301305 
L 870.463847 185.65987 
L 870.668466 185.646819 
L 870.873086 185.905719 
L 871.691565 187.73345 
L 871.896185 187.841059 
L 872.100804 187.660147 
L 872.919283 186.257666 
L 873.533143 185.814409 
L 874.556241 185.38365 
L 875.1701 185.596363 
L 875.37472 185.489639 
L 875.78396 184.6979 
L 876.193199 183.786576 
L 876.602438 183.457333 
L 877.625537 183.074032 
L 878.239396 182.451462 
L 879.262495 182.014714 
L 879.467115 181.889224 
L 879.671734 181.909167 
L 880.080974 182.403877 
L 880.490213 182.93409 
L 880.899453 183.099019 
L 882.127171 183.176731 
L 882.536411 183.300869 
L 882.74103 183.277678 
L 882.94565 183.142552 
L 883.354889 182.347168 
L 883.968749 180.801335 
L 884.787227 179.581076 
L 885.401087 178.957656 
L 886.219566 178.38701 
L 886.424185 178.421233 
L 887.447284 179.267881 
L 888.061143 179.197725 
L 888.675002 179.395601 
L 889.084242 178.888775 
L 889.493481 178.407589 
L 889.698101 178.47448 
L 890.31196 179.175835 
L 890.51658 179.129202 
L 890.925819 178.644461 
L 891.948918 176.880149 
L 893.381256 173.985812 
L 895.222834 170.01848 
L 895.632073 169.549366 
L 895.836693 169.609153 
L 896.450552 170.126418 
L 896.859791 170.134697 
L 897.269031 169.856818 
L 897.67827 169.228696 
L 898.292129 167.793706 
L 898.905989 165.761603 
L 900.133707 159.983095 
L 900.542946 157.103293 
L 901.156806 150.541477 
L 901.566045 146.150918 
L 901.770665 145.320015 
L 901.975285 145.764926 
L 902.384524 149.073954 
L 902.998383 153.986572 
L 903.407623 155.488321 
L 903.816862 156.042571 
L 904.226102 156.070226 
L 904.839961 155.955511 
L 905.04458 156.072901 
L 905.45382 156.752171 
L 905.863059 157.407551 
L 906.067679 157.41072 
L 906.476919 156.970719 
L 906.886158 156.527655 
L 907.090778 156.490891 
L 907.909257 156.811763 
L 908.727736 156.375625 
L 909.341595 156.645022 
L 909.750834 156.048435 
L 910.160074 155.45979 
L 910.978553 154.984268 
L 912.001651 153.590683 
L 912.410891 153.686241 
L 912.82013 154.206175 
L 914.047848 156.850759 
L 914.252468 156.94346 
L 914.457088 156.843859 
L 914.866327 156.07194 
L 915.684806 153.563744 
L 916.094046 153.109836 
L 916.298665 153.233507 
L 916.503285 153.765324 
L 916.912525 155.995527 
L 917.526384 159.380232 
L 917.731004 159.836802 
L 917.935623 159.877256 
L 918.140243 159.578692 
L 918.549482 158.44133 
L 918.958722 156.802153 
L 919.367961 153.88178 
L 919.777201 148.779388 
L 920.39106 136.67782 
L 920.800299 129.816033 
L 921.004919 129.227709 
L 921.209539 130.895138 
L 921.823398 142.643864 
L 922.437257 152.499099 
L 922.846497 156.290375 
L 923.255736 158.522292 
L 923.664976 159.794299 
L 924.278835 160.865177 
L 924.688074 161.381247 
L 925.097314 161.476184 
L 925.506553 161.065526 
L 925.915793 160.546166 
L 926.120412 160.54819 
L 926.938891 161.296336 
L 927.348131 161.265966 
L 927.75737 160.923133 
L 928.575849 159.602267 
L 928.780469 159.622364 
L 929.189708 160.031888 
L 929.803567 161.098604 
L 930.212807 161.850278 
L 930.417427 162.046272 
L 930.622046 162.070955 
L 931.031286 161.706491 
L 931.849765 160.557697 
L 932.259004 160.40138 
L 932.668244 160.684675 
L 933.282103 161.365896 
L 934.714441 164.186963 
L 934.919061 164.160821 
L 935.12368 163.93119 
L 935.53292 163.014739 
L 936.146779 161.647119 
L 936.760638 160.936808 
L 936.965258 160.878233 
L 937.169878 160.966313 
L 937.374497 161.266786 
L 937.783737 162.582404 
L 938.397596 164.748479 
L 939.625314 167.290609 
L 940.034554 167.63666 
L 940.443793 167.472466 
L 941.057652 167.078802 
L 941.262272 167.072671 
L 941.671512 167.46095 
L 942.080751 167.961738 
L 942.48999 168.100018 
L 943.10385 167.976901 
L 943.717709 168.249524 
L 944.331568 168.712724 
L 944.945427 169.651933 
L 945.968526 171.633664 
L 946.787005 173.38331 
L 947.196244 174.237346 
L 947.605484 174.602496 
L 948.014723 174.472895 
L 948.219343 174.412433 
L 948.423963 174.520024 
L 948.628582 174.84901 
L 949.037822 176.108281 
L 949.651681 178.425328 
L 949.856301 178.880886 
L 950.06092 179.005959 
L 950.26554 178.822524 
L 950.879399 177.862803 
L 951.697878 177.337858 
L 952.516357 176.473763 
L 952.925597 176.471478 
L 953.334836 176.914242 
L 954.562554 179.080055 
L 956.199512 181.100523 
L 956.404132 181.175839 
L 956.813371 180.973653 
L 957.222611 180.765579 
L 957.63185 180.818159 
L 958.04109 181.190287 
L 958.450329 181.665492 
L 958.859569 181.867081 
L 959.268808 181.772936 
L 959.678048 181.21442 
L 960.087287 180.636845 
L 960.291907 180.619874 
L 960.496526 180.908179 
L 960.905766 182.232649 
L 961.519625 184.135766 
L 961.928864 184.599942 
L 963.565822 185.924857 
L 963.975062 186.012044 
L 964.588921 185.691835 
L 965.816639 185.180761 
L 966.430498 185.194543 
L 966.635118 185.293915 
L 967.044358 185.886795 
L 967.658217 187.093402 
L 967.862837 187.191393 
L 968.067456 187.058107 
L 968.476696 186.333407 
L 969.090555 185.079976 
L 969.295175 184.867919 
L 969.499794 184.85048 
L 969.909034 185.144307 
L 970.727513 185.989358 
L 971.136752 185.861817 
L 971.955231 185.248147 
L 972.56909 185.109196 
L 973.182949 184.643699 
L 973.387569 184.703755 
L 973.796809 185.254346 
L 974.206048 185.82941 
L 974.615288 186.022604 
L 975.024527 185.698056 
L 975.433766 185.24015 
L 975.638386 185.132265 
L 975.843006 185.154133 
L 976.047626 185.337075 
L 976.456865 186.121265 
L 977.070724 187.276421 
L 977.479964 187.587341 
L 978.912302 188.094287 
L 980.34464 188.764194 
L 981.367739 189.860089 
L 982.390837 189.859215 
L 983.004696 189.145072 
L 983.413936 188.440454 
L 984.232415 186.879908 
L 984.641654 186.351513 
L 984.846274 186.300363 
L 985.255513 186.650149 
L 986.073992 187.387716 
L 986.687851 187.679187 
L 987.91557 188.00325 
L 988.324809 187.979177 
L 988.734049 187.814715 
L 989.143288 187.93696 
L 989.552528 188.234345 
L 989.961767 188.974923 
L 990.575626 190.347172 
L 990.780246 190.48698 
L 990.984866 190.461332 
L 991.598725 189.843759 
L 992.007964 189.564235 
L 992.417204 189.624505 
L 992.826443 189.615839 
L 993.644922 189.182203 
L 994.054162 189.223212 
L 994.463401 189.414443 
L 994.872641 189.272237 
L 995.895739 188.467218 
L 996.918838 188.857325 
L 997.328077 188.624174 
L 997.737317 188.39871 
L 998.146556 188.492328 
L 998.555796 188.935773 
L 999.169655 189.584419 
L 999.578894 189.73093 
L 999.988134 189.580777 
L 1000.601993 188.930373 
L 1001.011232 188.494811 
L 1001.215852 188.41203 
L 1001.625091 188.636858 
L 1002.238951 188.982819 
L 1002.64819 188.970799 
L 1003.262049 188.61627 
L 1003.671289 188.621116 
L 1003.875908 188.498878 
L 1004.694387 187.424417 
L 1006.535965 188.831024 
L 1007.149824 188.717976 
L 1007.354444 188.891369 
L 1008.172923 190.025174 
L 1008.991402 190.501697 
L 1009.605261 191.011402 
L 1009.809881 191.012827 
L 1010.0145 190.86348 
L 1010.42374 190.131734 
L 1011.242219 188.072578 
L 1011.446838 187.920253 
L 1011.651458 188.011656 
L 1012.060698 188.678962 
L 1012.674557 189.653251 
L 1013.288416 190.103268 
L 1013.697655 190.155259 
L 1014.925374 190.067813 
L 1015.539233 190.260114 
L 1016.971571 189.817955 
L 1017.38081 189.633585 
L 1017.99467 188.958698 
L 1018.403909 188.897838 
L 1020.040867 189.219924 
L 1020.859346 190.116484 
L 1021.063966 190.09467 
L 1021.473205 189.621893 
L 1022.087064 188.747883 
L 1022.496304 188.491895 
L 1023.110163 188.335363 
L 1023.519402 188.15282 
L 1023.724022 188.200658 
L 1024.133261 188.730621 
L 1024.747121 189.68014 
L 1025.15636 189.998586 
L 1025.36098 189.942691 
L 1025.770219 189.379845 
L 1026.384078 188.36095 
L 1026.588698 188.207318 
L 1026.997938 188.295786 
L 1027.407177 188.348555 
L 1027.816417 188.378216 
L 1028.225656 188.956185 
L 1028.839515 190.345145 
L 1029.044135 190.499785 
L 1029.248755 190.402564 
L 1029.862614 189.858059 
L 1030.271853 189.95745 
L 1030.681093 189.699288 
L 1031.090332 189.481127 
L 1032.113431 189.766211 
L 1032.72729 189.602577 
L 1033.341149 189.276377 
L 1033.750389 189.081097 
L 1034.159628 189.347723 
L 1034.568868 189.599984 
L 1035.182727 189.177346 
L 1035.387346 189.257921 
L 1036.819685 190.717579 
L 1037.024304 190.777879 
L 1037.228924 190.701697 
L 1037.638163 190.003022 
L 1038.661262 187.405901 
L 1038.865882 187.135138 
L 1039.070501 187.153944 
L 1039.479741 188.019753 
L 1040.29822 190.151441 
L 1040.707459 190.78989 
L 1041.935178 191.666432 
L 1042.344417 191.533838 
L 1043.367516 190.937515 
L 1043.776755 190.330018 
L 1044.390614 189.273565 
L 1044.595234 189.146692 
L 1044.799854 189.169616 
L 1045.209093 189.61915 
L 1045.618333 190.267666 
L 1045.822952 190.394408 
L 1046.027572 190.284794 
L 1046.846051 188.946611 
L 1047.050671 188.992208 
L 1047.66453 189.420802 
L 1048.483009 189.490931 
L 1048.892248 189.604157 
L 1049.506108 190.154954 
L 1049.710727 190.103794 
L 1050.324586 189.605523 
L 1051.143065 189.355269 
L 1051.756925 188.808164 
L 1051.961544 188.844498 
L 1052.370784 189.268381 
L 1052.780023 189.754991 
L 1053.189263 189.975301 
L 1053.598502 189.9285 
L 1054.007742 189.528796 
L 1054.416981 188.989806 
L 1054.621601 188.914872 
L 1055.44008 189.242544 
L 1056.667798 188.472856 
L 1057.077037 188.536827 
L 1057.486277 188.833994 
L 1057.690897 188.826562 
L 1058.100136 188.340856 
L 1058.713995 187.514728 
L 1058.918615 187.463068 
L 1059.327854 187.719428 
L 1059.737094 188.011162 
L 1060.760193 188.445777 
L 1061.578671 189.995374 
L 1061.783291 190.171909 
L 1061.987911 190.187436 
L 1062.60177 189.679766 
L 1063.215629 189.089066 
L 1063.829488 188.513716 
L 1064.238728 188.54893 
L 1064.647967 188.801074 
L 1065.261827 189.551522 
L 1066.284925 191.001379 
L 1066.694165 190.925471 
L 1067.512644 190.435284 
L 1067.921883 190.665625 
L 1068.331122 190.865558 
L 1068.535742 190.735705 
L 1068.944982 189.9379 
L 1069.558841 188.721016 
L 1069.763461 188.581748 
L 1069.96808 188.627218 
L 1070.37732 189.214878 
L 1070.786559 189.860734 
L 1071.195799 190.027308 
L 1071.605038 190.034841 
L 1072.218897 190.48992 
L 1073.037376 191.087593 
L 1073.446616 190.742121 
L 1074.878954 188.81422 
L 1075.083573 188.851394 
L 1075.492813 189.225221 
L 1076.311292 190.185352 
L 1076.925151 190.162647 
L 1077.53901 190.207167 
L 1077.94825 190.519574 
L 1078.766728 191.236036 
L 1078.971348 191.284325 
L 1079.994447 191.006859 
L 1080.403686 190.903726 
L 1080.812926 190.460225 
L 1081.836024 188.798592 
L 1082.245264 188.715544 
L 1082.654503 188.836579 
L 1083.268362 189.348622 
L 1083.882222 190.012733 
L 1085.10994 191.843324 
L 1085.519179 192.033898 
L 1085.928419 191.879078 
L 1086.746898 191.082825 
L 1087.360757 191.033754 
L 1087.565377 191.002972 
L 1087.974616 190.593919 
L 1088.588475 189.891686 
L 1089.816194 189.0247 
L 1090.430053 188.618754 
L 1091.043912 188.629301 
L 1091.657771 188.641106 
L 1091.862391 188.427639 
L 1092.47625 187.314551 
L 1092.68087 187.19363 
L 1093.294729 187.263586 
L 1093.703969 187.16452 
L 1094.113208 187.405744 
L 1094.931687 188.330865 
L 1095.136307 188.311378 
L 1095.750166 187.576123 
L 1096.773264 186.365882 
L 1097.182504 186.26587 
L 1097.387124 186.358078 
L 1097.796363 186.934698 
L 1098.819462 189.489634 
L 1099.228701 189.702064 
L 1100.04718 189.814738 
L 1100.661039 190.478634 
L 1101.070279 190.481153 
L 1101.684138 190.205397 
L 1102.093377 190.201454 
L 1102.502617 189.83758 
L 1103.525715 188.337558 
L 1103.934955 188.394565 
L 1104.548814 188.454114 
L 1104.958054 188.44922 
L 1105.367293 188.833849 
L 1106.185772 189.820354 
L 1106.799631 190.500433 
L 1107.004251 190.54648 
L 1107.41349 190.30096 
L 1108.436589 189.273389 
L 1109.255068 189.247363 
L 1109.664307 189.425041 
L 1110.278166 189.889587 
L 1111.505885 190.35378 
L 1113.347462 190.33506 
L 1113.961322 190.657805 
L 1114.7798 190.925908 
L 1115.39366 191.269513 
L 1116.212138 191.081897 
L 1116.621378 191.140995 
L 1117.030617 190.872708 
L 1118.872195 189.0136 
L 1120.304533 189.806584 
L 1121.327632 191.79397 
L 1121.532251 191.990305 
L 1121.736871 192.028771 
L 1121.941491 191.870294 
L 1122.35073 191.052607 
L 1122.75997 190.143696 
L 1122.964589 189.912703 
L 1123.373829 189.888353 
L 1123.987688 190.181305 
L 1124.396928 190.326226 
L 1124.601547 190.118147 
L 1125.215406 188.88297 
L 1125.420026 188.759823 
L 1125.624646 188.870905 
L 1127.056984 190.64293 
L 1127.466223 190.820329 
L 1127.875463 190.724347 
L 1128.489322 190.329753 
L 1129.103181 190.368047 
L 1129.512421 189.984444 
L 1130.535519 188.302405 
L 1130.740139 188.286197 
L 1131.149379 188.6043 
L 1131.558618 188.906218 
L 1131.967857 188.791687 
L 1132.786336 188.166256 
L 1133.400196 188.114335 
L 1134.423294 187.614924 
L 1134.832534 187.958809 
L 1135.446393 188.91965 
L 1136.264872 190.496637 
L 1137.28797 191.608645 
L 1137.90183 192.141636 
L 1138.106449 192.184626 
L 1138.311069 192.059406 
L 1138.720308 191.322027 
L 1139.538787 189.615451 
L 1139.948027 189.092476 
L 1140.152647 189.01858 
L 1140.561886 189.22616 
L 1141.175745 189.634407 
L 1141.584985 189.656669 
L 1141.994224 189.287231 
L 1142.812703 188.097261 
L 1143.221942 187.869512 
L 1143.631182 187.920175 
L 1145.881999 188.820146 
L 1146.700478 188.77367 
L 1147.109717 189.055734 
L 1148.951295 190.82425 
L 1149.769774 190.878735 
L 1150.588253 191.255943 
L 1150.997492 190.803507 
L 1151.611351 190.132456 
L 1152.020591 190.087539 
L 1152.83907 190.395805 
L 1153.248309 190.202 
L 1153.657548 189.913272 
L 1154.680647 189.716598 
L 1155.089887 189.022152 
L 1155.703746 187.84606 
L 1156.112985 187.533885 
L 1156.522225 187.397232 
L 1156.726844 187.428745 
L 1156.931464 187.638291 
L 1157.545323 188.702726 
L 1157.954563 188.852203 
L 1158.568422 188.629979 
L 1158.977661 188.56665 
L 1159.591521 188.908851 
L 1160.409999 189.526447 
L 1160.614619 189.491144 
L 1161.023859 189.05228 
L 1161.433098 188.535669 
L 1162.456197 187.775495 
L 1162.865436 187.946786 
L 1163.479295 188.32763 
L 1163.888535 188.260045 
L 1164.502394 188.005193 
L 1164.707014 188.072989 
L 1165.116253 188.637084 
L 1166.139352 190.508992 
L 1166.548591 190.577665 
L 1167.16245 190.602972 
L 1167.77631 190.697086 
L 1169.413267 190.24634 
L 1170.027127 190.322391 
L 1170.436366 190.662064 
L 1171.254845 191.632175 
L 1171.664084 191.836375 
L 1172.073324 191.622917 
L 1172.482563 191.4652 
L 1173.096423 191.534991 
L 1173.505662 191.196062 
L 1173.914901 190.726573 
L 1174.324141 190.632083 
L 1174.938 190.629787 
L 1175.34724 190.187877 
L 1175.961099 189.007931 
L 1176.165718 188.855002 
L 1176.779578 188.810139 
L 1177.188817 188.429255 
L 1177.598057 188.013564 
L 1178.007296 187.963849 
L 1178.416535 188.245991 
L 1178.825775 188.595643 
L 1179.030395 188.609279 
L 1179.439634 188.276152 
L 1180.667352 186.924127 
L 1180.871972 186.990429 
L 1181.485831 187.682614 
L 1181.895071 187.680883 
L 1182.30431 187.671733 
L 1183.532029 188.228676 
L 1183.941268 188.732492 
L 1184.350508 189.324335 
L 1184.759747 189.56478 
L 1184.759747 189.56478 
" clip-path="url(#p12df65fceb)" style="fill: none; stroke: #000000; stroke-width: 2; stroke-linecap: square"/>
   </g>
   <g id="patch_3">
    <path d="M 3.00024 198.907885 
L 1184.99976 198.907885 
" style="fill: none; stroke: #000000; stroke-width: 2; stroke-linejoin: miter; stroke-linecap: square"/>
   </g>
  </g>
 </g>
 <defs>
  <clipPath id="p12df65fceb">
   <rect x="3.00024" y="3.00024" width="1181.99952" height="195.907645"/>
  </clipPath>
 </defs>
</svg>
