<?xml version="1.0" encoding="utf-8" standalone="no"?>
<!DOCTYPE svg PUBLIC "-//W3C//DTD SVG 1.1//EN"
  "http://www.w3.org/Graphics/SVG/1.1/DTD/svg11.dtd">
<svg xmlns:xlink="http://www.w3.org/1999/xlink" width="1188pt" height="252pt" viewBox="0 0 1188 252" xmlns="http://www.w3.org/2000/svg" version="1.1">
 <metadata>
  <rdf:RDF xmlns:dc="http://purl.org/dc/elements/1.1/" xmlns:cc="http://creativecommons.org/ns#" xmlns:rdf="http://www.w3.org/1999/02/22-rdf-syntax-ns#">
   <cc:Work>
    <dc:type rdf:resource="http://purl.org/dc/dcmitype/StillImage"/>
    <dc:date>2024-06-17T22:44:12.463151</dc:date>
    <dc:format>image/svg+xml</dc:format>
    <dc:creator>
     <cc:Agent>
      <dc:title>Matplotlib v3.8.4, https://matplotlib.org/</dc:title>
     </cc:Agent>
    </dc:creator>
   </cc:Work>
  </rdf:RDF>
 </metadata>
 <defs>
  <style type="text/css">*{stroke-linejoin: round; stroke-linecap: butt}</style>
 </defs>
 <g id="figure_1">
  <g id="patch_1">
   <path d="M 0 252 
L 1188 252 
L 1188 0 
L 0 0 
z
" style="fill: #ffffff"/>
  </g>
  <g id="axes_1">
   <g id="patch_2">
    <path d="M 3.00024 198.907885 
L 1184.99976 198.907885 
L 1184.99976 3.00024 
L 3.00024 3.00024 
z
" style="fill: #ffffff"/>
   </g>
   <g id="matplotlib.axis_1">
    <g id="xtick_1">
     <g id="line2d_1">
      <defs>
       <path id="mb021103bce" d="M 0 0 
L 0 8 
" style="stroke: #000000; stroke-width: 2"/>
      </defs>
      <g>
       <use xlink:href="#mb021103bce" x="1131.272509" y="198.907885" style="stroke: #000000; stroke-width: 2"/>
      </g>
     </g>
     <g id="text_1">
      <!-- 0 -->
      <g transform="translate(1126.267665 224.791947) scale(0.18 -0.18)">
       <defs>
        <path id="Arial-BoldMT-30" d="M 1756 4600 
Q 2422 4600 2797 4125 
Q 3244 3563 3244 2259 
Q 3244 959 2794 391 
Q 2422 -78 1756 -78 
Q 1088 -78 678 436 
Q 269 950 269 2269 
Q 269 3563 719 4131 
Q 1091 4600 1756 4600 
z
M 1756 3872 
Q 1597 3872 1472 3770 
Q 1347 3669 1278 3406 
Q 1188 3066 1188 2259 
Q 1188 1453 1269 1151 
Q 1350 850 1473 750 
Q 1597 650 1756 650 
Q 1916 650 2041 751 
Q 2166 853 2234 1116 
Q 2325 1453 2325 2259 
Q 2325 3066 2244 3367 
Q 2163 3669 2039 3770 
Q 1916 3872 1756 3872 
z
" transform="scale(0.015625)"/>
       </defs>
       <use xlink:href="#Arial-BoldMT-30"/>
      </g>
     </g>
    </g>
    <g id="xtick_2">
     <g id="line2d_2">
      <g>
       <use xlink:href="#mb021103bce" x="1023.818007" y="198.907885" style="stroke: #000000; stroke-width: 2"/>
      </g>
     </g>
     <g id="text_2">
      <!-- 1 -->
      <g transform="translate(1018.813164 224.791947) scale(0.18 -0.18)">
       <defs>
        <path id="Arial-BoldMT-31" d="M 2519 0 
L 1641 0 
L 1641 3309 
Q 1159 2859 506 2644 
L 506 3441 
Q 850 3553 1253 3867 
Q 1656 4181 1806 4600 
L 2519 4600 
L 2519 0 
z
" transform="scale(0.015625)"/>
       </defs>
       <use xlink:href="#Arial-BoldMT-31"/>
      </g>
     </g>
    </g>
    <g id="xtick_3">
     <g id="line2d_3">
      <g>
       <use xlink:href="#mb021103bce" x="916.363505" y="198.907885" style="stroke: #000000; stroke-width: 2"/>
      </g>
     </g>
     <g id="text_3">
      <!-- 2 -->
      <g transform="translate(911.358662 224.791947) scale(0.18 -0.18)">
       <defs>
        <path id="Arial-BoldMT-32" d="M 3238 816 
L 3238 0 
L 159 0 
Q 209 463 459 877 
Q 709 1291 1447 1975 
Q 2041 2528 2175 2725 
Q 2356 2997 2356 3263 
Q 2356 3556 2198 3714 
Q 2041 3872 1763 3872 
Q 1488 3872 1325 3706 
Q 1163 3541 1138 3156 
L 263 3244 
Q 341 3969 753 4284 
Q 1166 4600 1784 4600 
Q 2463 4600 2850 4234 
Q 3238 3869 3238 3325 
Q 3238 3016 3127 2736 
Q 3016 2456 2775 2150 
Q 2616 1947 2200 1565 
Q 1784 1184 1673 1059 
Q 1563 934 1494 816 
L 3238 816 
z
" transform="scale(0.015625)"/>
       </defs>
       <use xlink:href="#Arial-BoldMT-32"/>
      </g>
     </g>
    </g>
    <g id="xtick_4">
     <g id="line2d_4">
      <g>
       <use xlink:href="#mb021103bce" x="808.909004" y="198.907885" style="stroke: #000000; stroke-width: 2"/>
      </g>
     </g>
     <g id="text_4">
      <!-- 3 -->
      <g transform="translate(803.90416 224.791947) scale(0.18 -0.18)">
       <defs>
        <path id="Arial-BoldMT-33" d="M 241 1216 
L 1091 1319 
Q 1131 994 1309 822 
Q 1488 650 1741 650 
Q 2013 650 2198 856 
Q 2384 1063 2384 1413 
Q 2384 1744 2206 1937 
Q 2028 2131 1772 2131 
Q 1603 2131 1369 2066 
L 1466 2781 
Q 1822 2772 2009 2936 
Q 2197 3100 2197 3372 
Q 2197 3603 2059 3740 
Q 1922 3878 1694 3878 
Q 1469 3878 1309 3722 
Q 1150 3566 1116 3266 
L 306 3403 
Q 391 3819 561 4067 
Q 731 4316 1036 4458 
Q 1341 4600 1719 4600 
Q 2366 4600 2756 4188 
Q 3078 3850 3078 3425 
Q 3078 2822 2419 2463 
Q 2813 2378 3048 2084 
Q 3284 1791 3284 1375 
Q 3284 772 2843 347 
Q 2403 -78 1747 -78 
Q 1125 -78 715 280 
Q 306 638 241 1216 
z
" transform="scale(0.015625)"/>
       </defs>
       <use xlink:href="#Arial-BoldMT-33"/>
      </g>
     </g>
    </g>
    <g id="xtick_5">
     <g id="line2d_5">
      <g>
       <use xlink:href="#mb021103bce" x="701.454502" y="198.907885" style="stroke: #000000; stroke-width: 2"/>
      </g>
     </g>
     <g id="text_5">
      <!-- 4 -->
      <g transform="translate(696.449658 224.791947) scale(0.18 -0.18)">
       <defs>
        <path id="Arial-BoldMT-34" d="M 1994 0 
L 1994 922 
L 119 922 
L 119 1691 
L 2106 4600 
L 2844 4600 
L 2844 1694 
L 3413 1694 
L 3413 922 
L 2844 922 
L 2844 0 
L 1994 0 
z
M 1994 1694 
L 1994 3259 
L 941 1694 
L 1994 1694 
z
" transform="scale(0.015625)"/>
       </defs>
       <use xlink:href="#Arial-BoldMT-34"/>
      </g>
     </g>
    </g>
    <g id="xtick_6">
     <g id="line2d_6">
      <g>
       <use xlink:href="#mb021103bce" x="594" y="198.907885" style="stroke: #000000; stroke-width: 2"/>
      </g>
     </g>
     <g id="text_6">
      <!-- 5 -->
      <g transform="translate(588.995156 224.791947) scale(0.18 -0.18)">
       <defs>
        <path id="Arial-BoldMT-35" d="M 284 1178 
L 1159 1269 
Q 1197 972 1381 798 
Q 1566 625 1806 625 
Q 2081 625 2272 848 
Q 2463 1072 2463 1522 
Q 2463 1944 2273 2155 
Q 2084 2366 1781 2366 
Q 1403 2366 1103 2031 
L 391 2134 
L 841 4519 
L 3163 4519 
L 3163 3697 
L 1506 3697 
L 1369 2919 
Q 1663 3066 1969 3066 
Q 2553 3066 2959 2641 
Q 3366 2216 3366 1538 
Q 3366 972 3038 528 
Q 2591 -78 1797 -78 
Q 1163 -78 763 262 
Q 363 603 284 1178 
z
" transform="scale(0.015625)"/>
       </defs>
       <use xlink:href="#Arial-BoldMT-35"/>
      </g>
     </g>
    </g>
    <g id="xtick_7">
     <g id="line2d_7">
      <g>
       <use xlink:href="#mb021103bce" x="486.545498" y="198.907885" style="stroke: #000000; stroke-width: 2"/>
      </g>
     </g>
     <g id="text_7">
      <!-- 6 -->
      <g transform="translate(481.540654 224.791947) scale(0.18 -0.18)">
       <defs>
        <path id="Arial-BoldMT-36" d="M 3247 3459 
L 2397 3366 
Q 2366 3628 2234 3753 
Q 2103 3878 1894 3878 
Q 1616 3878 1423 3628 
Q 1231 3378 1181 2588 
Q 1509 2975 1997 2975 
Q 2547 2975 2939 2556 
Q 3331 2138 3331 1475 
Q 3331 772 2918 347 
Q 2506 -78 1859 -78 
Q 1166 -78 719 461 
Q 272 1000 272 2228 
Q 272 3488 737 4044 
Q 1203 4600 1947 4600 
Q 2469 4600 2811 4308 
Q 3153 4016 3247 3459 
z
M 1256 1544 
Q 1256 1116 1453 883 
Q 1650 650 1903 650 
Q 2147 650 2309 840 
Q 2472 1031 2472 1466 
Q 2472 1913 2297 2120 
Q 2122 2328 1859 2328 
Q 1606 2328 1431 2129 
Q 1256 1931 1256 1544 
z
" transform="scale(0.015625)"/>
       </defs>
       <use xlink:href="#Arial-BoldMT-36"/>
      </g>
     </g>
    </g>
    <g id="xtick_8">
     <g id="line2d_8">
      <g>
       <use xlink:href="#mb021103bce" x="379.090996" y="198.907885" style="stroke: #000000; stroke-width: 2"/>
      </g>
     </g>
     <g id="text_8">
      <!-- 7 -->
      <g transform="translate(374.086153 224.791947) scale(0.18 -0.18)">
       <defs>
        <path id="Arial-BoldMT-37" d="M 272 3703 
L 272 4519 
L 3275 4519 
L 3275 3881 
Q 2903 3516 2518 2831 
Q 2134 2147 1932 1376 
Q 1731 606 1734 0 
L 888 0 
Q 909 950 1279 1937 
Q 1650 2925 2269 3703 
L 272 3703 
z
" transform="scale(0.015625)"/>
       </defs>
       <use xlink:href="#Arial-BoldMT-37"/>
      </g>
     </g>
    </g>
    <g id="xtick_9">
     <g id="line2d_9">
      <g>
       <use xlink:href="#mb021103bce" x="271.636495" y="198.907885" style="stroke: #000000; stroke-width: 2"/>
      </g>
     </g>
     <g id="text_9">
      <!-- 8 -->
      <g transform="translate(266.631651 224.791947) scale(0.18 -0.18)">
       <defs>
        <path id="Arial-BoldMT-38" d="M 1025 2472 
Q 684 2616 529 2867 
Q 375 3119 375 3419 
Q 375 3931 733 4265 
Q 1091 4600 1750 4600 
Q 2403 4600 2764 4265 
Q 3125 3931 3125 3419 
Q 3125 3100 2959 2851 
Q 2794 2603 2494 2472 
Q 2875 2319 3073 2025 
Q 3272 1731 3272 1347 
Q 3272 713 2867 316 
Q 2463 -81 1791 -81 
Q 1166 -81 750 247 
Q 259 634 259 1309 
Q 259 1681 443 1992 
Q 628 2303 1025 2472 
z
M 1206 3356 
Q 1206 3094 1354 2947 
Q 1503 2800 1750 2800 
Q 2000 2800 2150 2948 
Q 2300 3097 2300 3359 
Q 2300 3606 2151 3754 
Q 2003 3903 1759 3903 
Q 1506 3903 1356 3753 
Q 1206 3603 1206 3356 
z
M 1125 1394 
Q 1125 1031 1311 828 
Q 1497 625 1775 625 
Q 2047 625 2225 820 
Q 2403 1016 2403 1384 
Q 2403 1706 2222 1901 
Q 2041 2097 1763 2097 
Q 1441 2097 1283 1875 
Q 1125 1653 1125 1394 
z
" transform="scale(0.015625)"/>
       </defs>
       <use xlink:href="#Arial-BoldMT-38"/>
      </g>
     </g>
    </g>
    <g id="xtick_10">
     <g id="line2d_10">
      <g>
       <use xlink:href="#mb021103bce" x="164.181993" y="198.907885" style="stroke: #000000; stroke-width: 2"/>
      </g>
     </g>
     <g id="text_10">
      <!-- 9 -->
      <g transform="translate(159.177149 224.791947) scale(0.18 -0.18)">
       <defs>
        <path id="Arial-BoldMT-39" d="M 291 1059 
L 1141 1153 
Q 1172 894 1303 769 
Q 1434 644 1650 644 
Q 1922 644 2112 894 
Q 2303 1144 2356 1931 
Q 2025 1547 1528 1547 
Q 988 1547 595 1964 
Q 203 2381 203 3050 
Q 203 3747 617 4173 
Q 1031 4600 1672 4600 
Q 2369 4600 2816 4061 
Q 3263 3522 3263 2288 
Q 3263 1031 2797 475 
Q 2331 -81 1584 -81 
Q 1047 -81 715 205 
Q 384 491 291 1059 
z
M 2278 2978 
Q 2278 3403 2083 3637 
Q 1888 3872 1631 3872 
Q 1388 3872 1227 3680 
Q 1066 3488 1066 3050 
Q 1066 2606 1241 2398 
Q 1416 2191 1678 2191 
Q 1931 2191 2104 2391 
Q 2278 2591 2278 2978 
z
" transform="scale(0.015625)"/>
       </defs>
       <use xlink:href="#Arial-BoldMT-39"/>
      </g>
     </g>
    </g>
    <g id="xtick_11">
     <g id="line2d_11">
      <g>
       <use xlink:href="#mb021103bce" x="56.727491" y="198.907885" style="stroke: #000000; stroke-width: 2"/>
      </g>
     </g>
     <g id="text_11">
      <!-- 10 -->
      <g transform="translate(46.717803 224.791947) scale(0.18 -0.18)">
       <use xlink:href="#Arial-BoldMT-31"/>
       <use xlink:href="#Arial-BoldMT-30" x="55.615234"/>
      </g>
     </g>
    </g>
    <g id="text_12">
     <!-- Chemical Shift / ppm -->
     <g transform="translate(504.992813 245.447573) scale(0.18 -0.18)">
      <defs>
       <path id="Arial-BoldMT-43" d="M 3397 1684 
L 4294 1400 
Q 4088 650 3608 286 
Q 3128 -78 2391 -78 
Q 1478 -78 890 545 
Q 303 1169 303 2250 
Q 303 3394 893 4026 
Q 1484 4659 2447 4659 
Q 3288 4659 3813 4163 
Q 4125 3869 4281 3319 
L 3366 3100 
Q 3284 3456 3026 3662 
Q 2769 3869 2400 3869 
Q 1891 3869 1573 3503 
Q 1256 3138 1256 2319 
Q 1256 1450 1568 1081 
Q 1881 713 2381 713 
Q 2750 713 3015 947 
Q 3281 1181 3397 1684 
z
" transform="scale(0.015625)"/>
       <path id="Arial-BoldMT-68" d="M 1334 4581 
L 1334 2897 
Q 1759 3394 2350 3394 
Q 2653 3394 2897 3281 
Q 3141 3169 3264 2994 
Q 3388 2819 3433 2606 
Q 3478 2394 3478 1947 
L 3478 0 
L 2600 0 
L 2600 1753 
Q 2600 2275 2550 2415 
Q 2500 2556 2373 2639 
Q 2247 2722 2056 2722 
Q 1838 2722 1666 2615 
Q 1494 2509 1414 2295 
Q 1334 2081 1334 1663 
L 1334 0 
L 456 0 
L 456 4581 
L 1334 4581 
z
" transform="scale(0.015625)"/>
       <path id="Arial-BoldMT-65" d="M 2381 1056 
L 3256 909 
Q 3088 428 2723 176 
Q 2359 -75 1813 -75 
Q 947 -75 531 491 
Q 203 944 203 1634 
Q 203 2459 634 2926 
Q 1066 3394 1725 3394 
Q 2466 3394 2894 2905 
Q 3322 2416 3303 1406 
L 1103 1406 
Q 1113 1016 1316 798 
Q 1519 581 1822 581 
Q 2028 581 2168 693 
Q 2309 806 2381 1056 
z
M 2431 1944 
Q 2422 2325 2234 2523 
Q 2047 2722 1778 2722 
Q 1491 2722 1303 2513 
Q 1116 2303 1119 1944 
L 2431 1944 
z
" transform="scale(0.015625)"/>
       <path id="Arial-BoldMT-6d" d="M 394 3319 
L 1203 3319 
L 1203 2866 
Q 1638 3394 2238 3394 
Q 2556 3394 2790 3262 
Q 3025 3131 3175 2866 
Q 3394 3131 3647 3262 
Q 3900 3394 4188 3394 
Q 4553 3394 4806 3245 
Q 5059 3097 5184 2809 
Q 5275 2597 5275 2122 
L 5275 0 
L 4397 0 
L 4397 1897 
Q 4397 2391 4306 2534 
Q 4184 2722 3931 2722 
Q 3747 2722 3584 2609 
Q 3422 2497 3350 2280 
Q 3278 2063 3278 1594 
L 3278 0 
L 2400 0 
L 2400 1819 
Q 2400 2303 2353 2443 
Q 2306 2584 2207 2653 
Q 2109 2722 1941 2722 
Q 1738 2722 1575 2612 
Q 1413 2503 1342 2297 
Q 1272 2091 1272 1613 
L 1272 0 
L 394 0 
L 394 3319 
z
" transform="scale(0.015625)"/>
       <path id="Arial-BoldMT-69" d="M 459 3769 
L 459 4581 
L 1338 4581 
L 1338 3769 
L 459 3769 
z
M 459 0 
L 459 3319 
L 1338 3319 
L 1338 0 
L 459 0 
z
" transform="scale(0.015625)"/>
       <path id="Arial-BoldMT-63" d="M 3353 2338 
L 2488 2181 
Q 2444 2441 2289 2572 
Q 2134 2703 1888 2703 
Q 1559 2703 1364 2476 
Q 1169 2250 1169 1719 
Q 1169 1128 1367 884 
Q 1566 641 1900 641 
Q 2150 641 2309 783 
Q 2469 925 2534 1272 
L 3397 1125 
Q 3263 531 2881 228 
Q 2500 -75 1859 -75 
Q 1131 -75 698 384 
Q 266 844 266 1656 
Q 266 2478 700 2936 
Q 1134 3394 1875 3394 
Q 2481 3394 2839 3133 
Q 3197 2872 3353 2338 
z
" transform="scale(0.015625)"/>
       <path id="Arial-BoldMT-61" d="M 1116 2306 
L 319 2450 
Q 453 2931 781 3162 
Q 1109 3394 1756 3394 
Q 2344 3394 2631 3255 
Q 2919 3116 3036 2902 
Q 3153 2688 3153 2116 
L 3144 1091 
Q 3144 653 3186 445 
Q 3228 238 3344 0 
L 2475 0 
Q 2441 88 2391 259 
Q 2369 338 2359 363 
Q 2134 144 1878 34 
Q 1622 -75 1331 -75 
Q 819 -75 523 203 
Q 228 481 228 906 
Q 228 1188 362 1408 
Q 497 1628 739 1745 
Q 981 1863 1438 1950 
Q 2053 2066 2291 2166 
L 2291 2253 
Q 2291 2506 2166 2614 
Q 2041 2722 1694 2722 
Q 1459 2722 1328 2630 
Q 1197 2538 1116 2306 
z
M 2291 1594 
Q 2122 1538 1756 1459 
Q 1391 1381 1278 1306 
Q 1106 1184 1106 997 
Q 1106 813 1243 678 
Q 1381 544 1594 544 
Q 1831 544 2047 700 
Q 2206 819 2256 991 
Q 2291 1103 2291 1419 
L 2291 1594 
z
" transform="scale(0.015625)"/>
       <path id="Arial-BoldMT-6c" d="M 459 0 
L 459 4581 
L 1338 4581 
L 1338 0 
L 459 0 
z
" transform="scale(0.015625)"/>
       <path id="Arial-BoldMT-20" transform="scale(0.015625)"/>
       <path id="Arial-BoldMT-53" d="M 231 1491 
L 1131 1578 
Q 1213 1125 1461 912 
Q 1709 700 2131 700 
Q 2578 700 2804 889 
Q 3031 1078 3031 1331 
Q 3031 1494 2936 1608 
Q 2841 1722 2603 1806 
Q 2441 1863 1863 2006 
Q 1119 2191 819 2459 
Q 397 2838 397 3381 
Q 397 3731 595 4036 
Q 794 4341 1167 4500 
Q 1541 4659 2069 4659 
Q 2931 4659 3367 4281 
Q 3803 3903 3825 3272 
L 2900 3231 
Q 2841 3584 2645 3739 
Q 2450 3894 2059 3894 
Q 1656 3894 1428 3728 
Q 1281 3622 1281 3444 
Q 1281 3281 1419 3166 
Q 1594 3019 2269 2859 
Q 2944 2700 3267 2529 
Q 3591 2359 3773 2064 
Q 3956 1769 3956 1334 
Q 3956 941 3737 597 
Q 3519 253 3119 86 
Q 2719 -81 2122 -81 
Q 1253 -81 787 320 
Q 322 722 231 1491 
z
" transform="scale(0.015625)"/>
       <path id="Arial-BoldMT-66" d="M 75 3319 
L 563 3319 
L 563 3569 
Q 563 3988 652 4194 
Q 741 4400 980 4529 
Q 1219 4659 1584 4659 
Q 1959 4659 2319 4547 
L 2200 3934 
Q 1991 3984 1797 3984 
Q 1606 3984 1523 3895 
Q 1441 3806 1441 3553 
L 1441 3319 
L 2097 3319 
L 2097 2628 
L 1441 2628 
L 1441 0 
L 563 0 
L 563 2628 
L 75 2628 
L 75 3319 
z
" transform="scale(0.015625)"/>
       <path id="Arial-BoldMT-74" d="M 1981 3319 
L 1981 2619 
L 1381 2619 
L 1381 1281 
Q 1381 875 1398 808 
Q 1416 741 1477 697 
Q 1538 653 1625 653 
Q 1747 653 1978 738 
L 2053 56 
Q 1747 -75 1359 -75 
Q 1122 -75 931 4 
Q 741 84 652 211 
Q 563 338 528 553 
Q 500 706 500 1172 
L 500 2619 
L 97 2619 
L 97 3319 
L 500 3319 
L 500 3978 
L 1381 4491 
L 1381 3319 
L 1981 3319 
z
" transform="scale(0.015625)"/>
       <path id="Arial-BoldMT-2f" d="M -9 -78 
L 1125 4659 
L 1784 4659 
L 638 -78 
L -9 -78 
z
" transform="scale(0.015625)"/>
       <path id="Arial-BoldMT-70" d="M 434 3319 
L 1253 3319 
L 1253 2831 
Q 1413 3081 1684 3237 
Q 1956 3394 2288 3394 
Q 2866 3394 3269 2941 
Q 3672 2488 3672 1678 
Q 3672 847 3265 386 
Q 2859 -75 2281 -75 
Q 2006 -75 1782 34 
Q 1559 144 1313 409 
L 1313 -1263 
L 434 -1263 
L 434 3319 
z
M 1303 1716 
Q 1303 1156 1525 889 
Q 1747 622 2066 622 
Q 2372 622 2575 867 
Q 2778 1113 2778 1672 
Q 2778 2194 2568 2447 
Q 2359 2700 2050 2700 
Q 1728 2700 1515 2451 
Q 1303 2203 1303 1716 
z
" transform="scale(0.015625)"/>
      </defs>
      <use xlink:href="#Arial-BoldMT-43"/>
      <use xlink:href="#Arial-BoldMT-68" x="72.216797"/>
      <use xlink:href="#Arial-BoldMT-65" x="133.300781"/>
      <use xlink:href="#Arial-BoldMT-6d" x="188.916016"/>
      <use xlink:href="#Arial-BoldMT-69" x="277.832031"/>
      <use xlink:href="#Arial-BoldMT-63" x="305.615234"/>
      <use xlink:href="#Arial-BoldMT-61" x="361.230469"/>
      <use xlink:href="#Arial-BoldMT-6c" x="416.845703"/>
      <use xlink:href="#Arial-BoldMT-20" x="444.628906"/>
      <use xlink:href="#Arial-BoldMT-53" x="472.412109"/>
      <use xlink:href="#Arial-BoldMT-68" x="539.111328"/>
      <use xlink:href="#Arial-BoldMT-69" x="600.195312"/>
      <use xlink:href="#Arial-BoldMT-66" x="627.978516"/>
      <use xlink:href="#Arial-BoldMT-74" x="661.279297"/>
      <use xlink:href="#Arial-BoldMT-20" x="694.580078"/>
      <use xlink:href="#Arial-BoldMT-2f" x="722.363281"/>
      <use xlink:href="#Arial-BoldMT-20" x="750.146484"/>
      <use xlink:href="#Arial-BoldMT-70" x="777.929688"/>
      <use xlink:href="#Arial-BoldMT-70" x="839.013672"/>
      <use xlink:href="#Arial-BoldMT-6d" x="900.097656"/>
     </g>
    </g>
   </g>
   <g id="matplotlib.axis_2"/>
   <g id="line2d_12">
    <path d="M 3.060584 190.128939 
L 3.265203 190.326872 
L 3.469823 190.303862 
L 3.879063 189.667498 
L 4.697542 188.112704 
L 4.902161 187.972446 
L 5.106781 188.013025 
L 5.51602 188.404852 
L 6.12988 189.050562 
L 7.357598 189.645287 
L 8.176077 190.879519 
L 8.585316 190.884434 
L 9.199176 191.242491 
L 9.608415 191.046861 
L 10.017654 190.506904 
L 10.631514 189.385608 
L 10.836133 189.287326 
L 11.040753 189.40099 
L 12.063852 190.663071 
L 12.677711 190.345886 
L 13.08695 190.315414 
L 13.49619 189.724386 
L 14.110049 188.095231 
L 14.519288 187.11805 
L 14.928528 186.553778 
L 15.337767 186.247483 
L 15.542387 186.242922 
L 16.565486 186.807175 
L 17.179345 186.710734 
L 17.383965 186.977397 
L 17.793204 188.313664 
L 18.202443 189.877905 
L 18.611683 190.551641 
L 18.816303 190.540372 
L 19.430162 190.247647 
L 21.680979 191.568494 
L 22.090218 191.188044 
L 22.499458 190.830922 
L 23.317937 190.788509 
L 23.931796 190.420495 
L 24.750275 190.137275 
L 24.954894 190.044208 
L 25.159514 190.1364 
L 25.977993 191.383044 
L 26.182613 191.243082 
L 27.205711 189.949571 
L 27.614951 190.127628 
L 28.02419 190.479084 
L 28.43343 190.490101 
L 29.456528 189.784385 
L 29.865768 189.050464 
L 30.479627 187.742454 
L 31.093486 186.439382 
L 31.502726 185.726398 
L 31.707345 185.662462 
L 32.116585 185.991998 
L 32.730444 187.039889 
L 33.139684 187.608818 
L 33.344303 187.672491 
L 33.548923 187.559971 
L 34.572022 186.251562 
L 35.390501 186.534298 
L 36.208979 187.139939 
L 36.618219 186.919146 
L 37.641318 185.8623 
L 37.845937 185.875204 
L 39.482895 187.330276 
L 39.892135 188.028026 
L 40.505994 189.340853 
L 40.710613 189.550981 
L 40.915233 189.583377 
L 42.552191 188.88949 
L 43.16605 189.23342 
L 43.57529 188.989627 
L 44.189149 188.402641 
L 44.393769 188.441588 
L 44.803008 188.943888 
L 45.212247 189.504222 
L 45.416867 189.62408 
L 45.621487 189.599322 
L 46.030726 189.070748 
L 46.439966 188.675552 
L 46.849205 188.669035 
L 47.053825 188.440027 
L 47.872304 186.644025 
L 48.076924 186.648794 
L 48.281543 186.870191 
L 49.100022 188.822798 
L 49.304642 188.712271 
L 50.327741 186.674911 
L 50.73698 186.587622 
L 50.9416 186.669971 
L 51.350839 187.203739 
L 51.760079 187.817493 
L 52.169318 188.082848 
L 52.783177 188.189098 
L 53.192417 188.674175 
L 53.601656 189.16438 
L 53.806276 189.194417 
L 54.010896 189.046417 
L 54.420135 188.270073 
L 56.057093 184.0101 
L 57.080192 182.110336 
L 57.284811 181.963741 
L 57.489431 181.976398 
L 57.89867 182.267031 
L 58.10329 182.25546 
L 58.30791 181.94979 
L 58.717149 180.312942 
L 59.535628 174.974687 
L 59.944868 171.21188 
L 60.558727 162.334677 
L 61.377206 148.380754 
L 61.581826 146.663905 
L 61.786445 146.308437 
L 61.991065 147.111513 
L 62.195685 148.877287 
L 62.604924 155.347858 
L 63.423403 170.317297 
L 64.037262 176.339651 
L 65.264981 186.790592 
L 65.4696 187.534714 
L 65.67422 187.831009 
L 66.492699 188.075169 
L 66.901938 187.87112 
L 67.311178 187.60841 
L 68.538896 187.141224 
L 68.743516 187.051761 
L 68.948136 187.205701 
L 69.766615 188.733087 
L 69.971234 188.648338 
L 70.994333 187.237886 
L 71.608192 187.05094 
L 72.017432 186.977627 
L 72.222051 187.225786 
L 73.04053 189.300062 
L 73.24515 189.26371 
L 73.654389 188.907394 
L 73.859009 188.89968 
L 74.063629 189.090506 
L 74.882108 190.354489 
L 75.495967 191.114705 
L 75.905206 191.607205 
L 76.109826 191.660229 
L 76.519066 191.371889 
L 77.542164 189.955288 
L 78.360643 188.453575 
L 79.383742 187.159889 
L 79.588362 186.954739 
L 79.792981 186.926646 
L 79.997601 187.13177 
L 80.40684 188.015059 
L 81.225319 190.311736 
L 81.429939 190.46165 
L 82.248418 190.162766 
L 82.453038 190.275976 
L 82.862277 190.873351 
L 83.271517 191.506873 
L 83.680756 191.649655 
L 84.089996 191.450902 
L 84.499235 190.91882 
L 85.113094 189.488348 
L 85.931573 187.318045 
L 86.545432 186.401733 
L 86.750052 186.385487 
L 87.97777 187.393505 
L 88.796249 189.155238 
L 89.205489 189.192092 
L 90.023968 189.0548 
L 90.228587 188.890604 
L 90.637827 188.088329 
L 90.842447 187.67083 
L 91.047066 187.528824 
L 91.251686 187.739264 
L 91.660925 188.541666 
L 91.865545 188.724911 
L 92.070165 188.668575 
L 93.707123 186.834601 
L 93.911742 186.884162 
L 94.934841 188.28381 
L 95.34408 187.972681 
L 95.75332 187.339621 
L 96.162559 186.468957 
L 96.367179 186.251885 
L 96.571799 186.30034 
L 96.776419 186.631381 
L 97.185658 188.139276 
L 97.799517 190.790053 
L 98.004137 191.059074 
L 98.208757 191.011893 
L 98.617996 190.354576 
L 99.231855 189.191933 
L 99.845714 188.498969 
L 100.254954 188.458515 
L 101.073433 188.605795 
L 101.278053 188.903407 
L 102.096531 191.247937 
L 102.301151 191.228831 
L 102.710391 190.733124 
L 102.91501 190.734359 
L 103.32425 191.351817 
L 103.938109 192.300486 
L 104.142729 192.334096 
L 104.551968 191.801665 
L 104.961208 191.255472 
L 105.165827 191.136781 
L 105.370447 191.156906 
L 105.984306 191.728306 
L 106.188926 191.615422 
L 106.598165 190.502381 
L 107.007405 189.214938 
L 107.212025 188.992734 
L 108.235123 189.15197 
L 108.644363 189.312338 
L 109.258222 189.617794 
L 110.076701 189.936387 
L 110.69056 189.978432 
L 111.099799 189.899172 
L 111.713659 190.211501 
L 111.918278 190.114173 
L 113.555236 187.878491 
L 113.964476 186.542139 
L 114.373715 185.097279 
L 114.782955 184.426768 
L 114.987574 184.273007 
L 115.192194 184.265745 
L 115.396814 184.460164 
L 115.806053 185.391134 
L 116.215293 186.339704 
L 116.624532 186.674907 
L 117.033772 186.714352 
L 117.443011 186.628952 
L 117.647631 186.735592 
L 118.05687 187.181923 
L 118.26149 187.173753 
L 118.875349 186.623503 
L 119.284589 186.980741 
L 119.693828 187.381385 
L 119.898448 187.455257 
L 120.103067 187.385272 
L 120.512307 186.707616 
L 121.330786 185.175936 
L 121.740025 184.925606 
L 122.558504 184.789574 
L 122.763124 184.602484 
L 122.967744 184.251096 
L 123.376983 182.844499 
L 123.786223 181.203956 
L 123.990842 180.886828 
L 124.195462 181.079247 
L 125.013941 183.120301 
L 126.03704 183.35648 
L 126.855518 182.946917 
L 127.060138 183.040006 
L 127.264758 183.259604 
L 127.673997 184.1609 
L 128.287857 185.574159 
L 128.492476 185.727489 
L 128.697096 185.624911 
L 130.129434 183.773688 
L 131.152533 182.457622 
L 131.561772 182.04326 
L 132.380251 180.856425 
L 133.40335 179.8591 
L 133.607969 179.788695 
L 133.812589 179.893304 
L 134.426448 180.525555 
L 134.631068 180.45511 
L 135.040307 179.880404 
L 135.449547 179.328464 
L 136.063406 178.912084 
L 136.268026 178.994622 
L 136.881885 179.629041 
L 137.086505 179.605356 
L 137.291124 179.41441 
L 137.700364 178.455691 
L 138.109603 176.62766 
L 139.337322 170.280353 
L 139.746561 168.530476 
L 140.155801 167.834037 
L 140.56504 167.290913 
L 140.97428 166.34356 
L 141.588139 164.62885 
L 141.997378 164.208504 
L 142.406618 164.212547 
L 143.225097 164.947224 
L 143.838956 165.742992 
L 144.043575 165.725537 
L 144.452815 165.450971 
L 145.271294 165.417949 
L 145.475914 165.171724 
L 145.680533 164.631678 
L 146.089773 162.63339 
L 147.112871 157.09132 
L 148.34059 151.76193 
L 149.772928 143.870815 
L 149.977548 143.935352 
L 150.386787 145.161 
L 152.228365 153.125836 
L 152.842224 155.774115 
L 153.660703 157.701198 
L 154.069942 159.643447 
L 154.888421 163.844537 
L 155.50228 166.05925 
L 156.116139 168.422513 
L 156.525379 169.627587 
L 156.934618 171.562111 
L 157.957717 176.816077 
L 158.571576 178.596582 
L 159.185435 180.143029 
L 160.003914 182.697242 
L 160.413154 183.283842 
L 161.027013 183.728455 
L 161.845492 184.71553 
L 162.254731 184.601003 
L 162.663971 184.846613 
L 162.86859 184.982629 
L 163.07321 184.961593 
L 163.48245 184.498704 
L 164.505548 183.004635 
L 164.710168 183.081924 
L 165.119407 183.607273 
L 165.937886 184.862133 
L 166.551745 185.487857 
L 166.960985 186.511302 
L 167.370224 187.659668 
L 167.779464 188.278523 
L 168.597943 189.082761 
L 169.007182 190.261991 
L 169.621041 192.098726 
L 169.825661 192.368133 
L 170.030281 192.388387 
L 170.234901 192.187071 
L 171.053379 190.971484 
L 171.462619 190.894579 
L 172.076478 190.942281 
L 172.690337 190.427653 
L 173.099577 189.913012 
L 174.122675 188.423822 
L 174.327295 188.541105 
L 174.736534 189.341045 
L 175.759633 191.83652 
L 175.964253 192.057899 
L 176.168873 192.108814 
L 176.373492 192.010236 
L 176.782732 191.273811 
L 177.396591 189.920028 
L 177.80583 189.625949 
L 178.21507 189.704518 
L 178.624309 190.010659 
L 179.033549 190.772041 
L 179.442788 191.737438 
L 179.852028 192.153998 
L 180.261267 192.259594 
L 180.670507 191.806847 
L 181.898225 189.570595 
L 182.102845 189.575087 
L 182.307464 189.711275 
L 182.716704 190.426353 
L 183.330563 191.99321 
L 183.739802 192.356804 
L 184.149042 192.380227 
L 184.353662 192.158877 
L 184.762901 191.055238 
L 185.172141 190.038103 
L 185.37676 189.876106 
L 185.990619 189.934844 
L 186.399859 189.539689 
L 187.013718 188.758679 
L 188.650676 187.47916 
L 189.469155 185.764787 
L 189.878394 185.629251 
L 190.083014 185.787134 
L 191.310732 187.879142 
L 191.924592 188.384462 
L 192.333831 188.461841 
L 192.538451 188.491595 
L 192.74307 188.684329 
L 193.766169 190.483706 
L 193.970789 190.573647 
L 194.175409 190.541108 
L 194.380028 190.332591 
L 194.993887 189.202062 
L 195.198507 189.081399 
L 196.016986 189.252907 
L 196.426226 188.665074 
L 197.040085 187.723166 
L 197.653944 186.813084 
L 198.677043 185.01915 
L 198.881662 184.898488 
L 199.086282 184.991597 
L 199.495521 185.758341 
L 199.904761 186.640205 
L 200.109381 186.883958 
L 200.314 186.887576 
L 201.132479 186.010006 
L 201.541719 186.618669 
L 201.746338 186.900547 
L 201.950958 186.963304 
L 202.360198 186.565411 
L 203.383296 185.359349 
L 203.587916 185.344353 
L 203.997155 185.631475 
L 204.611015 186.11713 
L 205.020254 186.148867 
L 205.634113 185.806637 
L 206.247972 185.328551 
L 207.066451 184.224854 
L 207.271071 184.293818 
L 207.680311 185.061724 
L 208.29417 186.341637 
L 208.908029 186.918283 
L 209.317268 187.082617 
L 209.521888 186.99275 
L 209.931128 186.176272 
L 210.340367 185.320366 
L 210.544987 185.204912 
L 210.954226 185.415045 
L 211.568085 185.958232 
L 212.591184 185.948118 
L 213.000423 186.142735 
L 213.409663 186.262425 
L 214.228142 186.898627 
L 214.432761 186.736724 
L 215.25124 185.377087 
L 215.45586 185.461797 
L 216.478959 187.075829 
L 216.888198 186.941356 
L 217.297438 186.658911 
L 217.706677 186.613069 
L 218.115917 186.741615 
L 218.729776 187.052037 
L 219.139015 186.695612 
L 219.752874 186.055753 
L 219.957494 185.992077 
L 220.366734 186.248148 
L 220.775973 186.543539 
L 220.980593 186.474075 
L 221.799072 185.529021 
L 222.412931 185.326349 
L 223.02679 184.829301 
L 223.436029 185.027212 
L 224.254508 185.946981 
L 224.868368 186.94349 
L 225.482227 188.015217 
L 226.096086 188.576414 
L 226.505325 188.661096 
L 226.709945 188.494892 
L 227.528424 187.360666 
L 228.346903 187.362567 
L 228.756142 186.820202 
L 229.165382 186.300905 
L 229.983861 185.944212 
L 230.59772 185.310255 
L 231.620819 184.836967 
L 232.030058 185.269776 
L 232.643917 186.154029 
L 232.848537 186.185338 
L 233.257776 185.88504 
L 233.667016 185.261991 
L 234.076255 184.586053 
L 234.485495 184.399756 
L 235.099354 184.557439 
L 235.303974 184.370061 
L 235.713213 183.424392 
L 236.327072 180.817044 
L 236.736312 179.27437 
L 236.940931 178.848583 
L 237.145551 178.691522 
L 237.554791 178.879387 
L 238.16865 179.227279 
L 238.577889 179.844065 
L 238.987129 180.604169 
L 239.191748 180.748809 
L 240.010227 180.709006 
L 240.419467 180.919371 
L 240.828706 181.2425 
L 241.033326 181.167073 
L 241.442565 180.29937 
L 243.079523 175.043158 
L 243.284143 175.078566 
L 243.898002 175.840258 
L 244.307242 175.59104 
L 244.511861 175.504292 
L 244.921101 175.831764 
L 246.148819 176.981596 
L 246.353439 176.821719 
L 246.762678 175.941404 
L 247.171918 174.200818 
L 247.785777 171.310524 
L 247.990397 170.894584 
L 248.195016 170.819292 
L 248.604256 170.921581 
L 249.013495 170.540101 
L 249.422735 170.184667 
L 249.627354 170.129622 
L 249.831974 169.91294 
L 250.241214 168.651737 
L 250.855073 166.48259 
L 251.059693 166.136079 
L 251.264312 166.019989 
L 251.673552 166.296414 
L 252.287411 166.695162 
L 252.69665 166.766926 
L 253.10589 166.577409 
L 253.924369 165.67059 
L 254.538228 164.280039 
L 255.356707 161.972444 
L 255.765946 161.116704 
L 256.175186 159.748552 
L 257.812144 152.365316 
L 258.426003 147.664931 
L 259.244482 141.287273 
L 260.4722 133.203975 
L 260.881439 132.258591 
L 261.086059 132.236292 
L 261.290679 132.604936 
L 261.495299 133.489125 
L 261.904538 136.662029 
L 262.723017 143.502694 
L 263.132256 145.314587 
L 263.541496 146.045815 
L 263.950735 146.576751 
L 264.769214 148.113137 
L 264.973834 148.114121 
L 265.178454 147.826047 
L 265.587693 146.315141 
L 266.201552 142.174056 
L 266.815412 138.163432 
L 267.224651 136.813052 
L 267.63389 136.317209 
L 267.83851 135.859189 
L 268.24775 133.978751 
L 268.861609 129.598467 
L 269.475468 123.343425 
L 270.498567 112.051477 
L 270.907806 110.435411 
L 271.112426 110.400865 
L 271.317046 110.912258 
L 271.726285 113.414173 
L 272.954003 123.21079 
L 273.363243 124.562292 
L 273.567863 124.834193 
L 273.772482 124.84919 
L 274.181722 124.221914 
L 275.000201 122.383029 
L 275.40944 120.171532 
L 276.637158 112.052351 
L 277.046398 110.703175 
L 277.251018 110.382709 
L 277.455637 110.366994 
L 277.660257 110.794349 
L 277.864877 111.826756 
L 278.274116 115.602754 
L 280.115694 135.849869 
L 280.524933 138.332192 
L 280.729553 138.935745 
L 281.138792 139.313183 
L 281.548032 139.769493 
L 281.957271 140.161616 
L 282.161891 140.065222 
L 282.98037 138.920653 
L 283.389609 138.001496 
L 283.798849 136.562448 
L 284.208088 134.21436 
L 285.026567 127.571977 
L 285.435807 122.582447 
L 286.868145 101.801951 
L 287.277384 98.504354 
L 287.482004 97.722744 
L 287.686624 97.39786 
L 288.300483 97.171337 
L 288.505103 96.732527 
L 288.709722 95.753078 
L 289.323581 90.353814 
L 290.5513 79.713902 
L 290.960539 77.865468 
L 291.165159 77.445321 
L 291.369779 77.307805 
L 291.779018 77.345023 
L 291.983638 77.155535 
L 292.188258 76.639065 
L 292.802117 73.763425 
L 293.825215 68.566874 
L 294.234455 64.424029 
L 294.848314 55.582797 
L 295.871413 38.23704 
L 296.280652 34.811567 
L 296.485272 34.403657 
L 296.689892 34.746019 
L 297.303751 37.341377 
L 297.508371 37.471509 
L 297.71299 36.97212 
L 298.326849 34.837959 
L 298.531469 34.764923 
L 298.736089 35.213572 
L 299.145328 37.90743 
L 299.554568 41.309085 
L 299.759188 42.215912 
L 299.963807 42.323301 
L 300.168427 41.661428 
L 300.577666 38.385846 
L 300.986906 32.894078 
L 301.805385 17.428384 
L 302.419244 6.817013 
L 302.828483 3.42165 
L 303.033103 3.00024 
L 303.237723 3.453919 
L 303.646962 6.578519 
L 304.260822 14.201234 
L 304.874681 24.099129 
L 307.125498 68.259343 
L 307.534737 72.210182 
L 307.739357 73.163124 
L 307.943977 73.380718 
L 308.148596 72.951461 
L 308.557836 70.752105 
L 309.171695 65.598989 
L 309.785554 58.176346 
L 310.808653 42.204066 
L 311.831751 25.752536 
L 312.240991 21.866293 
L 312.445611 21.027967 
L 312.65023 21.068159 
L 312.85485 21.927488 
L 313.26409 25.333812 
L 313.673329 30.477058 
L 314.287188 42.188105 
L 316.333385 87.266273 
L 317.356484 103.139715 
L 317.970343 110.712412 
L 318.584202 115.80163 
L 319.607301 122.5946 
L 320.22116 124.677307 
L 320.6304 125.537025 
L 321.039639 125.921863 
L 321.244259 125.798502 
L 321.653498 124.537167 
L 322.676597 121.064362 
L 322.881217 120.689483 
L 323.085836 120.819803 
L 323.290456 121.49278 
L 324.518175 127.699248 
L 324.722794 127.84972 
L 325.132034 127.615295 
L 325.336653 127.766249 
L 325.541273 128.331262 
L 325.950513 130.747222 
L 326.768991 138.588058 
L 327.382851 143.729757 
L 327.79209 145.471446 
L 327.99671 145.717294 
L 328.20133 145.641149 
L 329.019808 144.664124 
L 329.224428 144.63215 
L 329.429048 144.812869 
L 329.838287 145.915399 
L 330.247527 148.028701 
L 332.089104 159.93918 
L 333.112203 165.611845 
L 333.521442 166.375082 
L 333.930682 166.516865 
L 334.135302 166.724585 
L 334.339921 167.197219 
L 334.749161 168.90153 
L 335.36302 171.512027 
L 335.772259 172.250442 
L 336.181499 172.731195 
L 336.590738 174.068879 
L 337.818457 179.654102 
L 338.432316 181.613644 
L 338.636936 181.878979 
L 339.046175 181.919842 
L 339.660034 181.796425 
L 340.069274 181.286762 
L 340.478513 180.866154 
L 340.887753 180.957248 
L 341.296992 181.401915 
L 341.706232 182.360857 
L 342.115471 183.421972 
L 342.52471 183.892569 
L 344.161668 184.512771 
L 344.366288 184.353814 
L 344.775527 183.529639 
L 345.389387 182.266791 
L 345.594006 182.171038 
L 345.798626 182.324391 
L 346.412485 183.352933 
L 347.640204 183.932472 
L 348.049443 183.806449 
L 348.254063 183.9285 
L 349.072542 185.067391 
L 349.277161 185.025507 
L 349.686401 184.351559 
L 350.09564 183.647603 
L 350.50488 183.486857 
L 351.118739 183.495991 
L 351.323359 183.581326 
L 351.527978 183.806592 
L 351.937218 184.869316 
L 352.346457 186.092693 
L 352.551077 186.437725 
L 352.755697 186.461955 
L 353.574176 185.270672 
L 353.983415 185.39048 
L 354.188035 185.137446 
L 355.006514 182.58876 
L 355.415753 182.300501 
L 355.824993 182.220633 
L 356.234232 182.395788 
L 356.643472 183.018644 
L 357.052711 183.76156 
L 357.66657 184.463658 
L 358.07581 185.925141 
L 358.485049 187.355763 
L 359.098908 188.324023 
L 359.508148 188.834608 
L 359.712768 188.886457 
L 359.917387 188.775285 
L 360.326627 188.142363 
L 360.940486 186.3117 
L 361.349725 185.346269 
L 361.758965 185.072478 
L 362.782063 185.044464 
L 363.805162 184.991265 
L 364.214402 185.066588 
L 366.055979 184.473814 
L 366.874458 183.683642 
L 367.079078 183.692148 
L 367.283697 183.856261 
L 367.692937 184.612879 
L 368.306796 185.928019 
L 368.716035 186.254244 
L 370.557613 186.596445 
L 370.966852 187.046055 
L 371.376092 187.509491 
L 371.785331 187.763676 
L 372.399191 188.459259 
L 372.60381 188.453404 
L 373.626909 187.777673 
L 374.036148 187.748712 
L 374.854627 187.181676 
L 375.263867 186.672479 
L 376.286965 184.996396 
L 376.696205 184.622768 
L 377.105444 184.484267 
L 377.514684 184.678019 
L 378.128543 185.000921 
L 378.742402 184.941401 
L 378.947022 184.827739 
L 379.356261 184.10732 
L 380.17474 181.983509 
L 380.37936 181.959801 
L 380.58398 182.310836 
L 381.197839 183.910023 
L 381.402459 184.054614 
L 381.811698 184.093436 
L 382.016318 184.318994 
L 382.425557 185.453626 
L 383.039416 187.625854 
L 383.244036 187.919918 
L 383.448656 187.864486 
L 383.857895 187.036599 
L 384.471754 185.598511 
L 384.676374 185.53061 
L 385.290233 185.72379 
L 385.699473 185.51757 
L 387.131811 184.291602 
L 387.336431 184.42658 
L 387.54105 184.875945 
L 388.564149 188.228677 
L 388.973388 189.047862 
L 389.178008 189.260932 
L 389.382628 189.2156 
L 389.791867 188.422543 
L 390.814966 185.893294 
L 391.019586 185.53643 
L 391.224205 185.410133 
L 391.428825 185.562166 
L 392.042684 186.422284 
L 392.451924 186.556949 
L 392.861163 186.508234 
L 393.065783 186.330569 
L 393.475022 185.455935 
L 394.088882 184.093411 
L 394.293501 183.935395 
L 394.498121 184.002718 
L 395.3166 184.949702 
L 395.725839 184.464214 
L 396.135079 183.972408 
L 396.339699 183.917797 
L 396.748938 184.200177 
L 396.953558 184.340132 
L 397.158178 184.325208 
L 397.567417 183.890305 
L 398.590516 182.52533 
L 398.795135 182.593722 
L 399.204375 183.245652 
L 399.408995 183.596181 
L 399.613614 183.69279 
L 399.818234 183.397057 
L 400.227473 181.732501 
L 401.045952 176.161001 
L 401.864431 170.270658 
L 402.88753 160.973556 
L 403.296769 159.232004 
L 403.501389 159.00076 
L 403.706009 159.313498 
L 403.910628 160.230313 
L 405.547586 171.403202 
L 406.775305 176.204602 
L 407.593784 178.604855 
L 408.821502 181.516839 
L 409.026122 181.373474 
L 409.435361 180.337501 
L 410.04922 178.264865 
L 410.867699 176.510517 
L 411.276939 176.077294 
L 412.095418 175.754797 
L 412.709277 175.06349 
L 413.118516 174.162771 
L 414.550854 169.264272 
L 414.755474 169.179173 
L 414.960094 169.502449 
L 415.369333 171.293103 
L 416.392432 177.866123 
L 416.801671 179.167213 
L 418.02939 185.192893 
L 418.643249 186.623529 
L 419.052488 187.093356 
L 419.461728 187.392077 
L 419.870967 188.087276 
L 420.689446 190.58268 
L 420.894066 190.810477 
L 421.098686 190.843418 
L 422.121784 190.339316 
L 422.326404 190.015528 
L 422.940263 188.587919 
L 423.144883 188.581298 
L 423.758742 189.144801 
L 423.963362 189.110237 
L 424.372601 188.847962 
L 424.577221 188.904312 
L 425.3957 189.542927 
L 425.804939 189.420197 
L 426.418798 189.197061 
L 426.828038 189.145535 
L 427.237277 188.73799 
L 427.851137 188.00495 
L 428.260376 187.861851 
L 428.669615 187.881104 
L 429.078855 188.232581 
L 429.897334 189.653845 
L 430.511193 190.642031 
L 430.920432 190.715099 
L 431.329672 190.471199 
L 431.943531 190.041424 
L 432.352771 190.087292 
L 432.76201 190.199413 
L 433.989728 189.87037 
L 434.398968 189.492409 
L 435.217447 188.234416 
L 435.626686 188.184404 
L 435.831306 188.167794 
L 436.035926 188.033124 
L 436.854405 186.781928 
L 437.059024 186.857111 
L 437.468264 187.507768 
L 438.082123 188.57366 
L 438.695982 188.825089 
L 439.105222 188.754569 
L 439.514461 188.428912 
L 439.9237 188.462625 
L 440.33294 188.901463 
L 441.151419 190.258879 
L 441.765278 190.403784 
L 442.583757 191.841721 
L 442.992996 191.339058 
L 443.402236 190.951609 
L 444.629954 190.800836 
L 445.243813 189.972146 
L 447.085391 186.855786 
L 447.49463 187.427567 
L 448.313109 188.940961 
L 448.517729 188.997838 
L 448.926968 188.7246 
L 449.336208 188.190073 
L 449.950067 187.341297 
L 450.154687 187.385947 
L 450.973166 188.203949 
L 451.177785 187.993531 
L 451.996264 186.38052 
L 452.200884 186.338298 
L 452.405504 186.598892 
L 452.814743 187.805061 
L 453.428602 189.538936 
L 454.656321 190.821609 
L 454.86094 190.682423 
L 455.4748 189.298206 
L 455.884039 188.658273 
L 456.088659 188.616974 
L 456.497898 188.926116 
L 456.907138 189.159915 
L 457.520997 188.65648 
L 457.725617 188.753537 
L 459.157955 190.634287 
L 459.771814 190.878429 
L 459.976434 190.898288 
L 460.181053 190.781826 
L 460.999532 189.412212 
L 461.408772 188.77889 
L 461.613391 188.700276 
L 462.022631 189.121517 
L 462.63649 189.776264 
L 463.04573 189.915396 
L 464.068828 189.931767 
L 464.273448 189.552366 
L 465.091927 186.549551 
L 465.296547 186.485193 
L 465.501166 186.801762 
L 465.910406 188.182606 
L 466.319645 189.582686 
L 466.524265 189.799697 
L 466.933504 189.647867 
L 467.138124 189.809081 
L 468.570462 192.974194 
L 468.775082 193.165451 
L 468.979702 193.182507 
L 469.184321 193.077044 
L 469.593561 192.454131 
L 470.20742 190.650844 
L 471.230519 187.311892 
L 471.435138 187.018518 
L 471.639758 186.990428 
L 473.072096 188.011215 
L 473.276716 188.068708 
L 473.890575 187.847553 
L 474.095195 188.02923 
L 474.709054 189.454183 
L 475.118293 190.210819 
L 475.527533 190.579854 
L 475.732153 190.605435 
L 477.164491 189.878453 
L 477.57373 189.535856 
L 477.77835 189.544909 
L 477.98297 189.838962 
L 478.596829 191.118473 
L 478.801449 191.020565 
L 479.210688 189.97057 
L 479.824547 188.017308 
L 480.029167 187.873181 
L 480.233787 188.089338 
L 481.052265 189.794465 
L 481.256885 189.771004 
L 481.666125 189.498618 
L 481.870744 189.498609 
L 482.689223 189.962839 
L 482.893843 189.948222 
L 483.098463 190.048167 
L 483.507702 190.848837 
L 484.121561 192.257719 
L 485.14466 193.291024 
L 485.34928 193.061468 
L 485.963139 191.589288 
L 486.781618 188.849017 
L 487.600097 186.165952 
L 487.804716 186.133835 
L 488.213956 186.483039 
L 488.623195 186.394514 
L 489.032435 186.327092 
L 489.850914 186.38112 
L 490.055533 186.575043 
L 490.260153 187.071887 
L 491.283252 191.101116 
L 491.692491 191.743225 
L 491.897111 191.75723 
L 492.30635 191.392419 
L 492.71559 190.411707 
L 493.738689 186.823095 
L 493.943308 186.677987 
L 494.147928 186.711547 
L 494.557167 187.161456 
L 495.580266 188.289375 
L 496.194125 188.763447 
L 496.807984 188.963671 
L 497.217224 189.282256 
L 497.421844 189.256777 
L 497.831083 188.994582 
L 498.035703 189.085761 
L 498.444942 189.868735 
L 498.854182 190.549613 
L 499.263421 190.634032 
L 499.672661 190.605835 
L 500.28652 190.738727 
L 500.695759 190.654026 
L 501.104999 190.988362 
L 501.514238 191.685436 
L 502.332717 193.382564 
L 502.741957 193.572637 
L 503.560435 193.646993 
L 504.378914 193.238979 
L 504.992774 193.895692 
L 505.197393 193.782395 
L 505.811252 192.634947 
L 506.220492 192.491654 
L 506.425112 192.434015 
L 506.629731 192.235833 
L 507.038971 191.308432 
L 507.65283 189.693817 
L 508.266689 188.687675 
L 508.675929 188.219818 
L 508.880548 188.238241 
L 509.085168 188.551594 
L 510.108267 191.264658 
L 510.926746 191.973502 
L 511.745225 192.045247 
L 511.949844 191.897776 
L 512.563703 191.101028 
L 512.972943 191.190464 
L 513.791422 191.424097 
L 514.200661 191.250629 
L 514.609901 190.975919 
L 515.01914 191.227029 
L 515.22376 191.349906 
L 515.632999 191.237261 
L 516.246859 190.84503 
L 516.656098 190.86752 
L 517.679197 191.0536 
L 518.088436 190.821553 
L 518.702295 190.385039 
L 519.111535 190.548303 
L 519.316154 190.636877 
L 519.520774 190.557622 
L 519.930014 189.781239 
L 520.543873 188.167323 
L 520.953112 187.67507 
L 521.362352 187.233733 
L 522.79469 184.680368 
L 522.999309 184.708908 
L 523.203929 185.173369 
L 524.227028 189.109553 
L 524.636267 189.426051 
L 524.840887 189.33053 
L 525.659366 188.398516 
L 526.068605 188.860364 
L 526.682465 189.459576 
L 528.933282 192.041461 
L 529.547141 193.277766 
L 529.95638 193.431061 
L 530.36562 193.171742 
L 531.388718 192.173648 
L 532.002577 191.056693 
L 532.616437 189.868541 
L 533.434916 189.372453 
L 534.048775 188.094139 
L 534.253394 187.992367 
L 535.481113 189.005315 
L 535.685733 188.937488 
L 536.299592 188.120871 
L 536.708831 187.677048 
L 536.913451 187.658222 
L 537.32269 188.138898 
L 537.73193 188.572496 
L 538.141169 188.739899 
L 538.550409 189.289398 
L 538.755028 189.565666 
L 538.959648 189.586823 
L 539.573507 188.690177 
L 539.778127 188.721681 
L 540.187367 189.457497 
L 540.596606 190.421387 
L 541.005845 190.854308 
L 542.028944 191.432921 
L 542.847423 189.966873 
L 543.052043 190.006493 
L 543.870522 191.133463 
L 544.279761 191.021786 
L 544.484381 190.855317 
L 544.689001 190.521911 
L 545.09824 189.05571 
L 546.121339 184.200392 
L 546.325958 183.90699 
L 546.530578 183.839857 
L 546.735198 184.016342 
L 546.939818 184.491283 
L 547.962916 188.043327 
L 548.372156 188.455627 
L 548.986015 188.64224 
L 549.599874 189.445517 
L 550.009113 190.205484 
L 550.827592 192.345122 
L 551.032212 192.525982 
L 551.236832 192.492919 
L 551.646071 191.968307 
L 552.46455 190.731674 
L 552.66917 190.580019 
L 553.487649 190.648991 
L 554.101508 189.821185 
L 554.306128 189.777838 
L 555.533846 190.544978 
L 556.352325 192.046358 
L 556.761564 192.246844 
L 557.170804 192.219134 
L 557.375424 192.405208 
L 557.989283 193.387815 
L 558.193902 193.520226 
L 558.398522 193.505863 
L 558.603142 193.332732 
L 559.421621 191.950405 
L 559.626241 191.959565 
L 560.2401 192.612168 
L 560.444719 192.481073 
L 560.853959 191.656509 
L 561.877058 189.055539 
L 562.081677 189.221506 
L 562.490917 189.803882 
L 562.900156 190.172156 
L 563.309396 191.089535 
L 563.718635 192.164643 
L 564.127875 192.578072 
L 564.332494 192.532723 
L 564.537114 192.258571 
L 565.355593 190.111402 
L 565.560213 190.142174 
L 566.378692 191.498761 
L 566.992551 191.653836 
L 567.19717 191.579321 
L 568.015649 190.688739 
L 568.629509 190.969847 
L 569.243368 191.279719 
L 570.061847 192.092242 
L 570.471086 192.055671 
L 572.108044 191.36301 
L 572.721903 191.665159 
L 572.926523 191.582404 
L 573.745002 190.709782 
L 574.563481 190.938532 
L 575.586579 191.853201 
L 575.995819 191.786645 
L 576.200438 191.586016 
L 576.609678 190.690019 
L 577.018917 189.940139 
L 577.223537 190.021773 
L 577.632777 190.51312 
L 577.837396 190.566731 
L 578.655875 190.14501 
L 579.269734 190.003607 
L 579.474354 190.160038 
L 579.883594 191.022149 
L 580.702072 192.878463 
L 581.111312 193.566172 
L 581.315932 193.633491 
L 581.725171 193.49712 
L 582.54365 193.739595 
L 583.566749 192.723121 
L 583.771368 192.762865 
L 584.180608 193.355787 
L 584.589847 194.072006 
L 584.794467 194.200506 
L 584.999087 194.14989 
L 585.612946 193.526539 
L 586.022185 192.525218 
L 586.636045 190.710433 
L 586.840664 190.442573 
L 587.249904 190.356248 
L 587.454523 190.313692 
L 587.863763 189.896463 
L 589.70534 187.372762 
L 590.11458 187.136435 
L 590.3192 187.166893 
L 590.728439 187.709501 
L 591.546918 189.015898 
L 592.365397 189.461987 
L 592.979256 190.54916 
L 593.593115 191.552509 
L 594.206974 191.976528 
L 594.616214 192.152259 
L 595.025453 192.058842 
L 595.230073 191.976917 
L 595.843932 192.24909 
L 596.048552 191.997866 
L 596.457791 190.578971 
L 596.867031 189.131369 
L 597.071651 188.768032 
L 597.27627 188.689578 
L 598.094749 189.144655 
L 598.503989 188.941108 
L 598.913228 188.638354 
L 599.527087 188.614899 
L 600.140946 187.980534 
L 600.345566 188.000447 
L 600.754806 188.440316 
L 601.164045 189.22581 
L 601.777904 191.192178 
L 602.187144 192.282951 
L 602.391763 192.548779 
L 602.596383 192.60867 
L 604.233341 191.725542 
L 604.64258 191.507104 
L 605.05182 190.892764 
L 605.461059 190.168091 
L 605.665679 190.007948 
L 605.870299 190.099924 
L 606.279538 190.890371 
L 606.688778 191.824055 
L 606.893397 192.053068 
L 608.121116 192.246178 
L 608.939595 191.599254 
L 609.348834 191.873231 
L 609.758074 192.249421 
L 610.576553 192.570744 
L 610.985792 192.963509 
L 611.395031 192.999138 
L 611.804271 192.595716 
L 612.21351 192.073095 
L 612.62275 192.074607 
L 612.82737 192.076081 
L 614.055088 191.471568 
L 614.873567 191.333775 
L 615.282806 191.192725 
L 615.487426 191.409213 
L 616.715144 194.000675 
L 616.919764 193.878507 
L 617.738243 192.871803 
L 618.147482 192.973935 
L 618.352102 193.033226 
L 618.556722 192.966893 
L 618.965961 192.44627 
L 619.98906 190.874579 
L 620.398299 190.212476 
L 620.807539 190.196359 
L 621.216778 190.412282 
L 622.444497 191.560626 
L 622.853736 191.677775 
L 623.058356 191.629072 
L 623.467595 191.131681 
L 623.876835 190.567524 
L 624.490694 190.308724 
L 624.899933 189.675009 
L 625.309173 188.858935 
L 625.513793 188.681922 
L 626.332272 188.709063 
L 626.741511 188.751852 
L 627.969229 189.55574 
L 628.583089 189.392811 
L 628.992328 189.395982 
L 629.196948 189.54612 
L 629.606187 190.260056 
L 630.015427 190.968462 
L 630.220046 190.900899 
L 630.629286 189.975314 
L 631.243145 188.462733 
L 631.447765 188.309806 
L 631.652384 188.392779 
L 632.061624 189.012074 
L 632.470863 189.63951 
L 632.675483 189.697883 
L 632.880103 189.491756 
L 633.493962 188.350809 
L 633.698582 188.255301 
L 633.903201 188.385173 
L 634.72168 189.460832 
L 635.13092 189.369788 
L 635.540159 188.924235 
L 636.358638 187.647761 
L 636.767878 187.376783 
L 637.177117 187.163981 
L 637.995596 186.166557 
L 638.200216 186.13521 
L 638.404835 186.228844 
L 638.814075 186.884925 
L 639.837173 189.3671 
L 640.041793 189.254563 
L 640.451033 188.458965 
L 641.474131 185.453363 
L 641.678751 185.320751 
L 641.883371 185.408577 
L 642.08799 185.771513 
L 642.49723 187.498457 
L 642.906469 189.793702 
L 643.111089 190.468243 
L 643.315709 190.693251 
L 644.338807 190.602224 
L 644.543427 190.295833 
L 645.361906 188.239274 
L 645.566526 188.152402 
L 645.771146 188.212321 
L 645.975765 188.477181 
L 646.385005 189.637586 
L 646.794244 190.893592 
L 646.998864 191.205541 
L 647.203484 191.221005 
L 647.612723 190.590888 
L 649.045061 187.654248 
L 649.249681 187.440022 
L 649.454301 187.436415 
L 650.06816 187.949341 
L 650.682019 188.437527 
L 650.886639 188.476281 
L 651.091258 188.318933 
L 652.114357 186.696835 
L 652.523597 187.769489 
L 652.932836 188.996359 
L 653.342075 189.663029 
L 653.751315 189.918301 
L 654.160554 189.809049 
L 654.569794 189.357164 
L 655.388273 188.198023 
L 655.592892 188.096269 
L 656.206752 188.440697 
L 656.411371 188.263301 
L 657.22985 186.839296 
L 657.43447 186.882751 
L 658.662188 187.921255 
L 659.071428 188.302244 
L 659.480667 189.312614 
L 659.889907 190.519937 
L 660.094526 190.700903 
L 660.299146 190.507176 
L 661.526865 187.908506 
L 661.731484 187.897722 
L 662.140724 188.151696 
L 662.345343 188.119315 
L 662.754583 187.42967 
L 663.368442 186.307773 
L 663.982301 185.279863 
L 664.391541 185.100287 
L 665.0054 185.039677 
L 665.21002 184.766396 
L 665.619259 183.677159 
L 666.028499 182.496603 
L 666.437738 181.969406 
L 666.846977 182.042333 
L 667.051597 182.248014 
L 667.870076 183.53227 
L 668.074696 183.238945 
L 669.507034 179.333766 
L 669.711654 179.168422 
L 670.120893 179.362286 
L 670.325513 179.464114 
L 670.530133 179.432359 
L 671.143992 178.950923 
L 671.553231 179.064819 
L 672.16709 179.514022 
L 672.37171 179.797836 
L 672.78095 180.94317 
L 674.008668 185.826861 
L 674.417907 186.395545 
L 674.827147 186.605858 
L 675.645626 186.678896 
L 676.054865 186.621022 
L 676.464105 186.238206 
L 676.873344 185.792003 
L 677.487203 185.635646 
L 677.896443 185.335023 
L 678.305682 185.358986 
L 678.510302 185.513365 
L 678.714922 185.837508 
L 679.124161 187.120028 
L 679.5334 188.436184 
L 679.73802 188.701023 
L 680.14726 188.607472 
L 680.965739 188.279442 
L 681.374978 187.700456 
L 681.579598 187.6424 
L 681.988837 188.11268 
L 682.398077 188.566798 
L 682.602696 188.563304 
L 683.011936 188.109001 
L 683.830415 186.63764 
L 684.035034 186.64487 
L 684.648894 187.508928 
L 685.058133 188.339444 
L 685.671992 189.915622 
L 687.30895 191.908005 
L 687.51357 191.862769 
L 687.922809 191.432115 
L 688.536668 190.622084 
L 688.945908 190.448611 
L 689.150528 190.417203 
L 689.355147 190.229505 
L 689.764387 189.231882 
L 690.378246 187.687208 
L 690.582866 187.514829 
L 690.787485 187.578054 
L 691.401345 188.243605 
L 691.605964 188.173855 
L 692.219824 187.634899 
L 692.424443 187.730112 
L 692.629063 188.115743 
L 693.652162 191.010546 
L 693.856781 191.130237 
L 694.061401 191.091772 
L 694.266021 190.877585 
L 694.67526 189.721545 
L 695.289119 187.304447 
L 695.493739 186.873889 
L 695.698359 186.716681 
L 695.902979 186.80867 
L 696.516838 187.538733 
L 696.721458 187.521346 
L 697.539936 186.805484 
L 697.949176 187.572095 
L 698.358415 188.441331 
L 698.563035 188.614986 
L 698.767655 188.571287 
L 699.381514 188.086033 
L 699.586134 188.180847 
L 699.995373 188.962381 
L 700.404613 189.702767 
L 700.609232 189.75009 
L 701.223092 189.294193 
L 701.632331 189.220261 
L 702.45081 188.429724 
L 703.064669 188.176327 
L 703.473909 188.058491 
L 703.678528 188.086562 
L 703.883148 188.275969 
L 704.292387 189.437756 
L 704.701627 190.923985 
L 704.906247 191.287267 
L 705.110866 191.333588 
L 705.520106 191.015978 
L 705.929345 190.517008 
L 707.157064 188.367802 
L 707.361683 188.353455 
L 707.770923 188.718319 
L 708.384782 189.28698 
L 708.794021 189.486102 
L 709.203261 189.356788 
L 709.81712 188.727352 
L 710.02174 188.725023 
L 710.430979 189.032084 
L 711.249458 189.851169 
L 711.658698 189.849639 
L 712.272557 189.66189 
L 712.681796 189.821542 
L 714.114134 190.979326 
L 714.523374 190.822256 
L 715.137233 190.34429 
L 715.341853 190.311895 
L 716.160332 190.693222 
L 716.774191 190.623596 
L 717.18343 190.691683 
L 717.59267 191.087732 
L 718.001909 191.691807 
L 718.411149 191.840398 
L 718.820388 191.91804 
L 719.229627 192.009785 
L 719.638867 191.893832 
L 719.843487 191.617315 
L 720.866585 189.306547 
L 722.094304 189.054742 
L 722.503543 189.234409 
L 723.322022 190.109807 
L 723.526642 189.986462 
L 724.345121 188.763826 
L 724.54974 188.813444 
L 724.95898 189.238011 
L 725.368219 189.727129 
L 725.777459 189.850354 
L 726.391318 189.794631 
L 727.209797 189.340297 
L 727.619036 189.572546 
L 728.028276 190.168691 
L 729.255994 192.642887 
L 729.460614 192.680194 
L 729.869853 192.173001 
L 730.279093 191.749294 
L 730.688332 191.56069 
L 731.302191 190.928143 
L 731.506811 191.070077 
L 731.916051 192.06807 
L 732.52991 193.726577 
L 732.734529 193.911966 
L 733.143769 193.831729 
L 733.553008 193.418853 
L 733.962248 192.68527 
L 734.576107 191.268853 
L 735.189966 190.531867 
L 735.599206 190.256725 
L 736.417685 190.219183 
L 736.622304 189.958635 
L 737.031544 188.910635 
L 737.645403 187.19017 
L 738.054642 186.796975 
L 738.259262 186.688077 
L 738.463882 186.717034 
L 738.668502 186.975931 
L 739.077741 187.965993 
L 739.89622 190.215799 
L 740.10084 190.242415 
L 740.714699 189.651391 
L 740.919319 189.746895 
L 741.328558 190.446049 
L 741.942417 191.730554 
L 742.351657 192.147185 
L 742.965516 192.369779 
L 743.374755 192.333215 
L 743.783995 191.929865 
L 744.193234 190.8647 
L 744.602474 189.661083 
L 745.011713 189.169995 
L 745.420953 189.203523 
L 745.625572 189.343846 
L 745.830192 189.666835 
L 746.648671 191.79707 
L 746.853291 191.8038 
L 747.05791 191.576759 
L 747.46715 190.452648 
L 748.081009 188.382407 
L 748.285629 188.27948 
L 748.490248 188.432656 
L 748.899488 189.367023 
L 749.717967 192.160581 
L 749.922587 192.120094 
L 750.945685 190.078519 
L 751.354925 189.921561 
L 751.764164 190.28135 
L 752.787263 191.755088 
L 753.196502 191.98441 
L 753.810361 192.735579 
L 754.219601 193.374014 
L 754.42422 193.527829 
L 754.62884 193.44099 
L 755.03808 192.644382 
L 755.447319 191.748141 
L 755.856559 191.317912 
L 756.675037 191.040786 
L 757.084277 191.370885 
L 757.288897 191.547922 
L 757.493516 191.569725 
L 757.698136 191.365183 
L 758.107376 190.356729 
L 758.516615 189.371608 
L 759.130474 188.760965 
L 759.335094 188.651908 
L 759.539714 188.693224 
L 759.948953 189.264955 
L 760.767432 190.428951 
L 760.972052 190.53542 
L 761.585911 190.491744 
L 761.99515 191.01732 
L 762.40439 191.550099 
L 762.60901 191.515549 
L 763.222869 190.713921 
L 764.450587 189.131038 
L 764.655207 189.097824 
L 765.269066 189.653752 
L 765.678305 190.121506 
L 766.292165 191.239899 
L 766.496784 191.349942 
L 766.906024 191.01396 
L 767.315263 190.612446 
L 767.929122 190.414755 
L 768.542982 190.255153 
L 768.747601 190.053646 
L 769.156841 188.984928 
L 769.56608 187.595412 
L 769.7707 187.253344 
L 769.97532 187.285381 
L 770.384559 188.244836 
L 770.793799 189.144299 
L 771.203038 189.168147 
L 771.407658 189.37943 
L 772.226137 191.368494 
L 772.430756 191.384008 
L 773.249235 190.783834 
L 773.658475 190.87573 
L 774.272334 191.185271 
L 775.295433 190.866266 
L 775.909292 190.240261 
L 776.318531 189.456249 
L 777.13701 187.702044 
L 777.34163 187.526982 
L 777.54625 187.708033 
L 777.955489 189.135473 
L 778.773968 192.585469 
L 779.183207 193.289145 
L 779.387827 193.298431 
L 779.592447 193.087399 
L 780.001686 192.201948 
L 780.820165 190.054848 
L 781.229405 189.505181 
L 781.638644 189.281446 
L 781.843264 189.435417 
L 782.457123 190.518178 
L 783.070982 192.052085 
L 783.480222 192.835519 
L 783.889461 193.0409 
L 784.298701 193.083869 
L 784.91256 193.604142 
L 785.321799 193.908184 
L 785.731039 193.946603 
L 786.140278 193.613618 
L 786.754137 192.950494 
L 787.163377 192.613518 
L 787.572616 191.877787 
L 787.981856 191.071356 
L 788.186475 191.088507 
L 788.595715 192.083794 
L 789.004954 193.177144 
L 789.209574 193.368632 
L 789.414194 193.306505 
L 789.823433 192.620059 
L 790.641912 190.516907 
L 791.051152 190.422173 
L 791.460391 190.313706 
L 792.27887 189.68997 
L 792.892729 190.034225 
L 793.301969 190.608184 
L 794.120447 192.109825 
L 794.734307 192.320758 
L 795.143546 192.17761 
L 795.552786 191.974455 
L 795.757405 192.030183 
L 796.575884 192.635311 
L 797.189743 192.391516 
L 797.598983 192.501781 
L 797.803603 192.355217 
L 798.212842 191.291541 
L 798.622081 190.25338 
L 798.826701 190.070406 
L 799.235941 190.158454 
L 799.64518 190.259922 
L 799.8498 190.137133 
L 800.668279 189.023945 
L 800.872898 189.045092 
L 801.282138 189.385268 
L 801.691377 189.761305 
L 802.714476 190.027356 
L 803.532955 190.545155 
L 803.737575 190.443645 
L 804.760673 189.277797 
L 805.169913 189.433177 
L 805.988392 190.067849 
L 806.602251 190.549657 
L 807.21611 190.806124 
L 807.625349 190.574147 
L 808.034589 190.339138 
L 808.443828 190.51066 
L 808.853068 190.719789 
L 809.057688 190.597375 
L 809.466927 189.691646 
L 809.876166 188.592175 
L 810.285406 188.086136 
L 810.694645 187.85264 
L 811.103885 187.356368 
L 811.513124 186.855272 
L 811.717744 186.866178 
L 811.922364 187.083738 
L 813.150082 189.327092 
L 813.763941 189.751657 
L 814.173181 189.721507 
L 814.78704 189.283197 
L 814.99166 189.410686 
L 816.423998 192.111257 
L 817.037857 193.90298 
L 817.242477 194.259952 
L 817.447096 194.325898 
L 817.651716 194.101478 
L 818.060956 193.108255 
L 819.288674 189.918471 
L 819.697913 189.601759 
L 820.107153 189.294668 
L 820.925632 188.211962 
L 821.334871 187.971407 
L 821.94873 188.1116 
L 822.767209 187.687207 
L 822.971829 187.93782 
L 824.199547 190.315295 
L 824.813407 190.561088 
L 825.222646 190.300527 
L 825.836505 189.907794 
L 826.041125 189.916779 
L 826.450364 190.31721 
L 826.859604 190.83185 
L 827.678083 191.061752 
L 827.882702 191.010617 
L 828.087322 190.670352 
L 829.31504 187.125241 
L 829.72428 186.947549 
L 829.9289 187.069722 
L 830.338139 187.71671 
L 830.951998 188.736099 
L 832.179717 189.979588 
L 832.588956 190.296505 
L 832.998196 190.2657 
L 833.407435 189.988858 
L 834.430534 188.660394 
L 834.839773 188.497024 
L 835.044393 188.611204 
L 835.658252 189.35779 
L 836.067491 189.319854 
L 836.272111 189.50072 
L 836.681351 190.469036 
L 837.09059 191.356976 
L 837.29521 191.421915 
L 837.704449 190.935778 
L 838.522928 189.593547 
L 839.136787 187.796352 
L 839.546027 186.865564 
L 840.159886 186.123063 
L 840.364506 186.051272 
L 840.569125 186.206689 
L 840.978365 187.186214 
L 841.592224 188.987168 
L 842.410703 190.331802 
L 842.819942 190.66858 
L 843.229182 190.685112 
L 843.638421 190.404498 
L 844.66152 189.03798 
L 844.86614 189.034136 
L 845.070759 189.273172 
L 845.889238 190.77478 
L 846.093858 190.825664 
L 846.298478 190.699653 
L 847.116957 189.84139 
L 847.321576 189.969539 
L 847.935436 190.62275 
L 848.344675 190.508367 
L 848.753915 190.10638 
L 849.163154 189.521163 
L 849.367774 189.047814 
L 849.777013 187.217732 
L 850.186253 185.559926 
L 850.595492 184.865349 
L 850.800112 184.211915 
L 851.209351 181.697465 
L 851.618591 179.169745 
L 851.82321 178.606362 
L 852.02783 178.632049 
L 852.43707 179.842706 
L 853.664788 184.482439 
L 854.278647 186.256113 
L 854.687887 187.011775 
L 855.097126 187.259383 
L 855.710985 187.40673 
L 855.915605 187.619255 
L 856.324844 188.519967 
L 856.938704 189.924133 
L 857.143323 190.014567 
L 857.757183 189.711956 
L 858.371042 189.854711 
L 858.780281 189.257443 
L 859.189521 188.558098 
L 859.80338 188.089132 
L 860.212619 187.924139 
L 860.621859 188.149658 
L 860.826478 188.065025 
L 861.644957 186.644667 
L 861.849577 186.80535 
L 862.463436 187.851784 
L 862.668056 187.838967 
L 863.281915 187.458716 
L 863.486535 187.649522 
L 864.100394 189.028976 
L 864.305014 189.167709 
L 864.509634 189.06137 
L 864.714253 188.737307 
L 865.123493 187.443647 
L 865.737352 185.428344 
L 865.941972 185.140323 
L 866.146591 185.136208 
L 866.555831 185.837081 
L 866.96507 186.627725 
L 867.16969 186.779904 
L 867.37431 186.7742 
L 867.783549 186.405592 
L 868.192789 185.549812 
L 868.806648 184.278844 
L 869.625127 183.635734 
L 870.034366 183.49528 
L 871.057465 183.492298 
L 871.262084 183.234256 
L 872.489803 180.330746 
L 872.694423 180.414384 
L 872.899042 180.814066 
L 873.512901 183.206994 
L 873.922141 184.422307 
L 874.126761 184.583835 
L 874.33138 184.510079 
L 874.94524 183.700049 
L 875.763718 182.66889 
L 876.377578 182.112299 
L 877.605296 180.240411 
L 877.809916 180.1942 
L 878.014535 180.352104 
L 878.423775 181.304291 
L 878.833014 182.417915 
L 879.037634 182.662112 
L 879.856113 182.823194 
L 880.060733 182.84674 
L 880.265352 182.699042 
L 880.674592 181.75417 
L 881.083831 180.872261 
L 881.697691 180.364839 
L 882.10693 180.294405 
L 882.925409 180.511728 
L 883.334648 180.300035 
L 883.743888 179.687682 
L 884.562367 178.282459 
L 884.971606 177.933433 
L 885.176226 177.998984 
L 885.380846 178.31117 
L 885.994705 179.914933 
L 886.199325 180.121605 
L 886.403944 180.052668 
L 886.813184 179.319832 
L 887.427043 178.19421 
L 887.836282 177.657968 
L 888.245522 176.454112 
L 889.064001 173.413388 
L 889.47324 172.563819 
L 890.087099 171.842903 
L 890.291719 171.7867 
L 890.700959 172.145956 
L 891.314818 172.938534 
L 891.928677 173.250745 
L 892.133297 173.201336 
L 892.337916 172.965017 
L 892.747156 171.946418 
L 893.156395 170.922366 
L 893.770254 170.210872 
L 894.384114 169.503376 
L 894.793353 168.66232 
L 895.202593 167.110533 
L 896.225691 162.705134 
L 897.04417 160.506725 
L 898.476508 157.248862 
L 899.090367 155.654495 
L 899.499607 154.893443 
L 899.704227 154.091308 
L 900.113466 151.067124 
L 900.522705 146.610669 
L 901.136565 136.745786 
L 901.750424 127.739681 
L 901.955044 126.989553 
L 902.159663 127.592804 
L 903.387382 136.39389 
L 903.796621 137.745203 
L 904.205861 138.41293 
L 904.41048 138.507901 
L 904.6151 138.438071 
L 905.024339 137.900938 
L 905.638199 137.062838 
L 905.842818 137.089934 
L 906.047438 137.346635 
L 906.456677 138.421556 
L 906.865917 139.818093 
L 907.070537 140.184343 
L 907.275156 140.208924 
L 907.684396 139.609165 
L 908.298255 137.863795 
L 908.707494 136.819045 
L 909.116734 136.362031 
L 909.321354 136.457156 
L 909.730593 137.452255 
L 910.344452 138.963628 
L 911.367551 140.706731 
L 911.572171 140.583905 
L 911.98141 139.824107 
L 912.595269 138.635064 
L 913.618368 137.335651 
L 914.641467 137.743934 
L 914.846086 138.050767 
L 915.664565 140.15201 
L 915.869185 140.267953 
L 916.073805 140.183018 
L 916.278424 139.867726 
L 916.687664 138.338391 
L 917.096903 136.384107 
L 917.301523 136.052971 
L 917.506143 136.396688 
L 918.120002 138.321724 
L 918.324622 138.163124 
L 918.529241 137.395482 
L 918.938481 134.121593 
L 919.34772 127.90705 
L 919.75696 117.022358 
L 920.780058 81.154389 
L 920.984678 81.92312 
L 921.393918 94.231239 
L 922.212396 122.562905 
L 922.621636 130.71699 
L 923.030875 135.572719 
L 923.440115 138.484377 
L 923.849354 139.895306 
L 924.463213 140.948237 
L 925.077073 141.572325 
L 925.690932 142.941386 
L 925.895552 143.10198 
L 926.100171 142.967124 
L 926.509411 141.822849 
L 926.91865 140.364949 
L 928.146369 137.76791 
L 928.350988 137.558247 
L 928.555608 137.647434 
L 928.964847 138.466871 
L 929.374087 139.33149 
L 929.987946 139.95981 
L 930.397186 140.539435 
L 930.806425 141.232366 
L 931.420284 141.975268 
L 932.034143 143.262892 
L 932.238763 143.377727 
L 932.443383 143.134141 
L 933.466481 140.558309 
L 933.875721 140.166579 
L 934.28496 140.110372 
L 934.89882 140.200323 
L 935.103439 140.462066 
L 935.512679 141.837118 
L 936.331158 144.724914 
L 936.740397 145.606546 
L 937.763496 146.609639 
L 938.581975 146.64701 
L 939.605073 148.370713 
L 939.809693 148.478385 
L 940.014313 148.379188 
L 940.423552 148.028749 
L 940.628172 148.254997 
L 941.446651 150.552454 
L 942.674369 151.873011 
L 943.492848 152.013218 
L 943.902087 152.921618 
L 944.720566 155.834327 
L 945.129806 157.120837 
L 945.539045 157.533009 
L 946.357524 158.07373 
L 947.176003 157.448525 
L 947.380623 157.538796 
L 947.585243 157.87022 
L 947.994482 159.308401 
L 949.017581 164.041918 
L 949.63144 165.151859 
L 950.654538 166.557976 
L 951.268398 167.039708 
L 951.677637 167.564335 
L 952.905355 169.66029 
L 953.314595 169.751562 
L 953.928454 169.560219 
L 954.133074 169.790826 
L 955.770032 172.960813 
L 956.179271 173.346837 
L 956.588511 173.36078 
L 957.406989 172.878244 
L 957.611609 173.037573 
L 958.634708 174.805967 
L 959.248567 176.841295 
L 959.657806 177.87979 
L 960.067046 178.120481 
L 960.680905 177.97683 
L 961.090145 177.958871 
L 961.499384 178.13271 
L 961.704004 178.072558 
L 962.113243 177.46861 
L 962.727102 176.451486 
L 962.931722 176.335446 
L 963.136342 176.448164 
L 963.545581 177.372084 
L 964.36406 179.664474 
L 964.56868 179.731599 
L 964.977919 179.159413 
L 965.591779 178.174188 
L 965.796398 178.004445 
L 966.001018 178.020546 
L 966.410257 178.471088 
L 966.819497 179.209533 
L 967.228736 180.472881 
L 967.842596 182.478063 
L 968.047215 182.649708 
L 968.661074 182.319604 
L 969.070314 182.69955 
L 970.093413 183.857024 
L 970.502652 184.170562 
L 970.911891 184.41445 
L 971.321131 184.684915 
L 971.525751 184.671777 
L 971.93499 184.332204 
L 972.548849 183.665779 
L 972.958089 183.574316 
L 973.367328 184.065507 
L 973.776568 184.552543 
L 973.981187 184.469973 
L 974.595047 183.570312 
L 974.799666 183.634814 
L 975.413525 184.351587 
L 975.822765 184.332735 
L 976.641244 183.69737 
L 977.459723 183.050777 
L 978.278202 181.646929 
L 978.892061 181.25217 
L 979.3013 180.552078 
L 979.915159 179.222428 
L 980.119779 179.360875 
L 980.529019 180.838131 
L 981.142878 183.275785 
L 981.552117 183.879979 
L 981.961357 184.075137 
L 982.370596 183.788622 
L 983.393695 182.886247 
L 983.598314 183.02978 
L 983.802934 183.478466 
L 984.212174 185.46392 
L 984.621413 187.669919 
L 985.030653 188.91786 
L 985.849131 190.484638 
L 986.258371 190.802893 
L 986.462991 190.661758 
L 986.87223 190.126232 
L 987.07685 190.08319 
L 987.486089 190.552622 
L 987.895329 190.896253 
L 988.099948 190.876815 
L 988.509188 190.465725 
L 989.736906 188.487776 
L 990.146146 188.306681 
L 990.760005 188.246296 
L 991.987723 188.89427 
L 992.396963 188.997058 
L 992.601582 189.081443 
L 992.806202 189.019127 
L 993.420061 188.427373 
L 993.624681 188.599212 
L 994.033921 189.577822 
L 994.64778 190.950677 
L 995.261639 191.732513 
L 995.466259 191.685609 
L 995.670878 191.369836 
L 996.489357 189.497837 
L 996.898597 189.10602 
L 997.307836 189.056651 
L 997.717076 189.41432 
L 998.944794 191.217482 
L 999.558653 191.00695 
L 999.763273 190.820078 
L 999.967893 190.426859 
L 1000.581752 188.099402 
L 1001.195611 186.176344 
L 1001.60485 185.491131 
L 1001.80947 185.473224 
L 1002.21871 185.937712 
L 1003.241808 187.589364 
L 1003.855667 188.188182 
L 1004.264907 188.499737 
L 1005.083386 189.306153 
L 1005.492625 189.197073 
L 1005.697245 189.301069 
L 1006.515724 190.656489 
L 1006.720344 190.574859 
L 1006.924963 190.122628 
L 1007.948062 186.63235 
L 1008.152682 186.383608 
L 1008.357301 186.371544 
L 1008.766541 186.707462 
L 1009.17578 187.304137 
L 1010.403499 189.707391 
L 1010.608118 189.631412 
L 1011.631217 188.704302 
L 1012.858935 188.411544 
L 1013.063555 188.633156 
L 1013.472795 189.622482 
L 1014.086654 191.111199 
L 1014.495893 191.40233 
L 1014.905133 191.152284 
L 1015.928231 189.988606 
L 1016.337471 190.172325 
L 1016.74671 190.433714 
L 1017.360569 190.585105 
L 1017.565189 190.705548 
L 1017.769809 190.684427 
L 1018.179048 190.029138 
L 1018.588288 189.540695 
L 1018.997527 189.421008 
L 1019.406767 188.871537 
L 1020.429865 186.774336 
L 1021.043724 186.622804 
L 1021.657584 185.956693 
L 1021.862203 186.029355 
L 1022.885302 187.405251 
L 1023.499161 188.457984 
L 1023.703781 188.524931 
L 1024.31764 188.082708 
L 1024.72688 188.191054 
L 1025.136119 188.258425 
L 1025.545358 187.948902 
L 1026.159218 187.126334 
L 1026.363837 187.14142 
L 1027.182316 188.158716 
L 1027.591556 187.689627 
L 1027.796175 187.630969 
L 1028.000795 187.771934 
L 1028.410035 188.515032 
L 1029.023894 189.677879 
L 1029.228514 189.769891 
L 1029.637753 189.404839 
L 1030.046992 189.150757 
L 1030.456232 189.376436 
L 1030.660852 189.517395 
L 1030.865471 189.486568 
L 1031.070091 189.149223 
L 1031.68395 187.598761 
L 1031.88857 187.57451 
L 1032.297809 187.811465 
L 1033.116288 187.70651 
L 1033.525528 187.885355 
L 1033.934767 187.985287 
L 1035.367105 189.179744 
L 1035.571725 189.157644 
L 1035.776345 188.934899 
L 1036.594824 187.274375 
L 1036.799443 187.23342 
L 1037.004063 187.417046 
L 1037.413303 188.44062 
L 1038.231782 191.063031 
L 1038.845641 191.924555 
L 1039.4595 192.581296 
L 1039.66412 192.536131 
L 1039.868739 192.265154 
L 1040.687218 190.170488 
L 1041.505697 188.125392 
L 1041.710317 188.004203 
L 1041.914937 188.15265 
L 1042.528796 189.222301 
L 1042.733416 189.184276 
L 1043.961134 187.813367 
L 1044.165754 187.836854 
L 1044.574993 188.383809 
L 1045.188852 189.361282 
L 1045.802711 190.251013 
L 1046.007331 190.325048 
L 1046.416571 189.94652 
L 1046.82581 189.533558 
L 1047.23505 189.603224 
L 1047.644289 189.636069 
L 1048.053528 189.446613 
L 1049.281247 189.558931 
L 1049.895106 190.510974 
L 1050.099726 190.340193 
L 1050.508965 188.859123 
L 1050.918205 187.395927 
L 1051.122824 187.134252 
L 1051.327444 187.176946 
L 1051.736684 187.665126 
L 1052.145923 188.546921 
L 1052.555162 189.352147 
L 1052.964402 189.276833 
L 1053.578261 189.134333 
L 1054.19212 189.138725 
L 1054.805979 188.595817 
L 1055.829078 187.241397 
L 1056.033698 187.435191 
L 1056.442937 188.290637 
L 1057.261416 190.30563 
L 1057.466036 190.364712 
L 1057.875275 189.953143 
L 1058.489135 189.125415 
L 1058.693754 189.103437 
L 1059.512233 189.914999 
L 1059.921473 189.673659 
L 1060.330712 189.370205 
L 1060.535332 189.462633 
L 1060.944571 190.2933 
L 1061.353811 191.186875 
L 1061.55843 191.188346 
L 1061.76305 190.77443 
L 1062.376909 188.761089 
L 1062.581529 188.51255 
L 1062.786149 188.564881 
L 1063.195388 189.176446 
L 1063.604628 190.280607 
L 1064.218487 192.304264 
L 1064.423107 192.657945 
L 1064.627726 192.771876 
L 1065.241585 192.534804 
L 1065.650825 192.171005 
L 1066.060064 191.247274 
L 1066.673924 189.704103 
L 1067.083163 189.131927 
L 1067.492402 188.960379 
L 1067.901642 189.052443 
L 1068.720121 189.794623 
L 1069.33398 189.783571 
L 1069.743219 189.55763 
L 1070.357079 188.932611 
L 1070.766318 188.69765 
L 1070.970938 188.324007 
L 1071.380177 186.784377 
L 1071.789417 185.244437 
L 1071.994036 184.889221 
L 1072.198656 184.822047 
L 1072.607896 185.189352 
L 1073.835614 187.041692 
L 1074.449473 188.735287 
L 1075.267952 191.104882 
L 1075.677192 191.86325 
L 1076.086431 191.956794 
L 1076.70029 192.037574 
L 1077.10953 192.209673 
L 1077.314149 192.14945 
L 1077.518769 191.857124 
L 1078.951107 188.661201 
L 1079.564966 187.574713 
L 1079.769586 187.521941 
L 1080.178826 187.979429 
L 1081.201924 189.547154 
L 1081.815783 189.470268 
L 1082.020403 189.730605 
L 1082.838882 191.519014 
L 1083.248121 191.692615 
L 1083.861981 191.616327 
L 1084.68046 191.367609 
L 1085.294319 191.636596 
L 1085.498938 191.523172 
L 1085.908178 190.670578 
L 1087.135896 187.166937 
L 1087.340516 187.065797 
L 1087.545136 187.189544 
L 1087.954375 187.927847 
L 1088.568234 189.758513 
L 1089.386713 192.573604 
L 1089.591333 192.811104 
L 1089.795953 192.793371 
L 1090.819051 191.90178 
L 1091.228291 191.935127 
L 1091.63753 192.245573 
L 1091.84215 192.14255 
L 1092.251389 191.220907 
L 1093.479108 188.223867 
L 1093.888347 187.644769 
L 1094.297587 187.641125 
L 1094.706826 187.670092 
L 1094.911446 187.604979 
L 1095.116066 187.66676 
L 1095.320685 188.003432 
L 1096.139164 190.110273 
L 1096.957643 190.271091 
L 1097.571502 191.073895 
L 1097.776122 191.182421 
L 1097.980742 191.108915 
L 1098.389981 190.520617 
L 1098.799221 189.866997 
L 1099.41308 189.427502 
L 1100.026939 189.343978 
L 1100.231559 189.302218 
L 1100.640798 188.855541 
L 1101.254657 187.506639 
L 1101.868517 186.163822 
L 1102.277756 185.662433 
L 1102.482376 185.62513 
L 1102.686995 185.834508 
L 1103.096235 187.024035 
L 1103.505474 187.989873 
L 1103.710094 188.029219 
L 1104.528573 187.478489 
L 1104.733193 187.642718 
L 1105.756291 189.30172 
L 1106.165531 189.0407 
L 1107.393249 188.030095 
L 1107.597869 188.00739 
L 1108.211728 188.353605 
L 1108.416348 188.586847 
L 1108.825587 189.608177 
L 1109.234827 190.534767 
L 1109.439446 190.530304 
L 1110.053306 189.687488 
L 1110.667165 188.797702 
L 1110.871785 188.683252 
L 1111.076404 188.790863 
L 1111.485644 189.630772 
L 1111.894883 190.414125 
L 1112.099503 190.461214 
L 1112.508742 190.31319 
L 1112.713362 190.361356 
L 1113.122602 190.955606 
L 1113.531841 191.585171 
L 1113.94108 191.77699 
L 1114.35032 191.773177 
L 1115.373419 191.317943 
L 1115.782658 191.076262 
L 1116.601137 190.028553 
L 1116.805757 190.082443 
L 1117.828855 191.038501 
L 1118.238095 190.826455 
L 1118.851954 189.917336 
L 1119.465813 188.848152 
L 1119.875053 188.869887 
L 1120.079672 188.862176 
L 1120.488912 188.381455 
L 1120.898151 188.026812 
L 1121.307391 187.911765 
L 1121.92125 187.286243 
L 1122.12587 187.276687 
L 1122.330489 187.476996 
L 1122.739729 188.512881 
L 1123.353588 190.406067 
L 1123.762827 190.866739 
L 1124.990546 190.942243 
L 1125.195165 190.832134 
L 1125.604405 190.060798 
L 1126.218264 188.86252 
L 1126.422884 188.663774 
L 1126.627504 188.700311 
L 1126.832123 189.110329 
L 1127.855222 192.945304 
L 1128.059842 192.816244 
L 1128.469081 191.374976 
L 1129.08294 188.388101 
L 1129.28756 187.907612 
L 1129.49218 187.899158 
L 1130.106039 188.764154 
L 1130.515278 188.649138 
L 1130.924518 188.387677 
L 1131.538377 187.690635 
L 1131.742997 187.65394 
L 1132.152236 187.786927 
L 1132.766095 187.555919 
L 1133.789194 187.905481 
L 1134.198433 187.660875 
L 1134.403053 187.513069 
L 1134.607673 187.534708 
L 1134.812293 187.839352 
L 1135.426152 189.895697 
L 1136.040011 191.401953 
L 1136.44925 191.94447 
L 1137.06311 192.355562 
L 1137.267729 192.215941 
L 1137.676969 191.294855 
L 1138.495448 189.133484 
L 1138.700067 188.940342 
L 1138.904687 188.947374 
L 1139.313927 189.160985 
L 1139.518546 188.944915 
L 1139.927786 187.53097 
L 1140.337025 185.803708 
L 1140.541645 185.363468 
L 1140.746265 185.37802 
L 1141.564744 186.97979 
L 1142.587842 189.49152 
L 1143.201701 189.630849 
L 1143.610941 189.889396 
L 1144.02018 189.822149 
L 1144.838659 189.189877 
L 1145.247899 189.673706 
L 1145.452518 189.9215 
L 1145.657138 189.953425 
L 1146.884856 188.776623 
L 1147.498716 187.530628 
L 1147.703335 187.440657 
L 1147.907955 187.655185 
L 1148.521814 188.886283 
L 1148.726434 189.059494 
L 1148.931054 189.050267 
L 1149.544913 188.548092 
L 1149.749533 188.652323 
L 1150.772631 189.912537 
L 1151.38649 190.304967 
L 1152.204969 189.711457 
L 1152.614209 189.725662 
L 1152.818829 189.600539 
L 1153.228068 188.919638 
L 1153.841927 187.558711 
L 1154.046547 187.307875 
L 1154.251167 187.253771 
L 1154.455786 187.442165 
L 1154.865026 188.408691 
L 1155.478885 189.945527 
L 1155.888124 190.709717 
L 1156.092744 190.906074 
L 1156.297364 190.882607 
L 1156.706603 190.221534 
L 1158.138941 186.887801 
L 1158.95742 186.008564 
L 1159.36666 186.04424 
L 1159.775899 186.376096 
L 1160.798998 187.800378 
L 1161.208237 187.671573 
L 1161.412857 187.847825 
L 1162.435956 189.599939 
L 1162.845195 189.747708 
L 1163.049815 189.95768 
L 1163.459054 190.952782 
L 1163.868294 191.936509 
L 1164.072914 192.085221 
L 1164.277533 191.950354 
L 1165.300632 190.302837 
L 1165.505252 190.069613 
L 1165.914491 189.087735 
L 1167.346829 185.042055 
L 1167.551449 184.777979 
L 1167.756069 184.715959 
L 1167.960688 184.929769 
L 1168.369928 186.186743 
L 1169.393026 189.982978 
L 1169.597646 190.186441 
L 1169.802266 190.072052 
L 1170.416125 189.158959 
L 1170.620745 189.143084 
L 1170.825365 189.436196 
L 1171.848463 192.209939 
L 1172.053083 192.324036 
L 1172.257703 192.081033 
L 1172.666942 190.238225 
L 1173.280801 187.165749 
L 1173.485421 186.926783 
L 1173.690041 187.200803 
L 1174.917759 190.759611 
L 1175.326998 191.257292 
L 1175.531618 191.280058 
L 1176.145477 190.94939 
L 1176.554717 190.945104 
L 1176.759337 190.741728 
L 1177.168576 189.788431 
L 1177.987055 187.356779 
L 1178.600914 186.87078 
L 1178.805534 186.76928 
L 1179.010154 186.888492 
L 1179.624013 188.126962 
L 1179.828632 188.192781 
L 1180.033252 187.997116 
L 1181.056351 186.399123 
L 1181.260971 186.445748 
L 1181.46559 186.653681 
L 1181.87483 187.73291 
L 1182.284069 188.58223 
L 1182.488689 188.451457 
L 1183.102548 187.396907 
L 1183.307168 187.315544 
L 1183.511788 187.443673 
L 1184.739506 189.29024 
L 1184.739506 189.29024 
" clip-path="url(#pcee7d337eb)" style="fill: none; stroke: #000000; stroke-width: 2; stroke-linecap: square"/>
   </g>
   <g id="patch_3">
    <path d="M 3.00024 198.907885 
L 1184.99976 198.907885 
" style="fill: none; stroke: #000000; stroke-width: 2; stroke-linejoin: miter; stroke-linecap: square"/>
   </g>
  </g>
 </g>
 <defs>
  <clipPath id="pcee7d337eb">
   <rect x="3.00024" y="3.00024" width="1181.99952" height="195.907645"/>
  </clipPath>
 </defs>
</svg>
