<?xml version="1.0" encoding="utf-8" standalone="no"?>
<!DOCTYPE svg PUBLIC "-//W3C//DTD SVG 1.1//EN"
  "http://www.w3.org/Graphics/SVG/1.1/DTD/svg11.dtd">
<svg xmlns:xlink="http://www.w3.org/1999/xlink" width="1188pt" height="252pt" viewBox="0 0 1188 252" xmlns="http://www.w3.org/2000/svg" version="1.1">
 <metadata>
  <rdf:RDF xmlns:dc="http://purl.org/dc/elements/1.1/" xmlns:cc="http://creativecommons.org/ns#" xmlns:rdf="http://www.w3.org/1999/02/22-rdf-syntax-ns#">
   <cc:Work>
    <dc:type rdf:resource="http://purl.org/dc/dcmitype/StillImage"/>
    <dc:date>2024-06-17T22:43:59.710464</dc:date>
    <dc:format>image/svg+xml</dc:format>
    <dc:creator>
     <cc:Agent>
      <dc:title>Matplotlib v3.8.4, https://matplotlib.org/</dc:title>
     </cc:Agent>
    </dc:creator>
   </cc:Work>
  </rdf:RDF>
 </metadata>
 <defs>
  <style type="text/css">*{stroke-linejoin: round; stroke-linecap: butt}</style>
 </defs>
 <g id="figure_1">
  <g id="patch_1">
   <path d="M 0 252 
L 1188 252 
L 1188 0 
L 0 0 
z
" style="fill: #ffffff"/>
  </g>
  <g id="axes_1">
   <g id="patch_2">
    <path d="M 3.00024 198.907885 
L 1184.99976 198.907885 
L 1184.99976 3.00024 
L 3.00024 3.00024 
z
" style="fill: #ffffff"/>
   </g>
   <g id="matplotlib.axis_1">
    <g id="xtick_1">
     <g id="line2d_1">
      <defs>
       <path id="m8b5c5a2324" d="M 0 0 
L 0 8 
" style="stroke: #000000; stroke-width: 2"/>
      </defs>
      <g>
       <use xlink:href="#m8b5c5a2324" x="1131.272509" y="198.907885" style="stroke: #000000; stroke-width: 2"/>
      </g>
     </g>
     <g id="text_1">
      <!-- 0 -->
      <g transform="translate(1126.267665 224.791947) scale(0.18 -0.18)">
       <defs>
        <path id="Arial-BoldMT-30" d="M 1756 4600 
Q 2422 4600 2797 4125 
Q 3244 3563 3244 2259 
Q 3244 959 2794 391 
Q 2422 -78 1756 -78 
Q 1088 -78 678 436 
Q 269 950 269 2269 
Q 269 3563 719 4131 
Q 1091 4600 1756 4600 
z
M 1756 3872 
Q 1597 3872 1472 3770 
Q 1347 3669 1278 3406 
Q 1188 3066 1188 2259 
Q 1188 1453 1269 1151 
Q 1350 850 1473 750 
Q 1597 650 1756 650 
Q 1916 650 2041 751 
Q 2166 853 2234 1116 
Q 2325 1453 2325 2259 
Q 2325 3066 2244 3367 
Q 2163 3669 2039 3770 
Q 1916 3872 1756 3872 
z
" transform="scale(0.015625)"/>
       </defs>
       <use xlink:href="#Arial-BoldMT-30"/>
      </g>
     </g>
    </g>
    <g id="xtick_2">
     <g id="line2d_2">
      <g>
       <use xlink:href="#m8b5c5a2324" x="1023.818007" y="198.907885" style="stroke: #000000; stroke-width: 2"/>
      </g>
     </g>
     <g id="text_2">
      <!-- 1 -->
      <g transform="translate(1018.813164 224.791947) scale(0.18 -0.18)">
       <defs>
        <path id="Arial-BoldMT-31" d="M 2519 0 
L 1641 0 
L 1641 3309 
Q 1159 2859 506 2644 
L 506 3441 
Q 850 3553 1253 3867 
Q 1656 4181 1806 4600 
L 2519 4600 
L 2519 0 
z
" transform="scale(0.015625)"/>
       </defs>
       <use xlink:href="#Arial-BoldMT-31"/>
      </g>
     </g>
    </g>
    <g id="xtick_3">
     <g id="line2d_3">
      <g>
       <use xlink:href="#m8b5c5a2324" x="916.363505" y="198.907885" style="stroke: #000000; stroke-width: 2"/>
      </g>
     </g>
     <g id="text_3">
      <!-- 2 -->
      <g transform="translate(911.358662 224.791947) scale(0.18 -0.18)">
       <defs>
        <path id="Arial-BoldMT-32" d="M 3238 816 
L 3238 0 
L 159 0 
Q 209 463 459 877 
Q 709 1291 1447 1975 
Q 2041 2528 2175 2725 
Q 2356 2997 2356 3263 
Q 2356 3556 2198 3714 
Q 2041 3872 1763 3872 
Q 1488 3872 1325 3706 
Q 1163 3541 1138 3156 
L 263 3244 
Q 341 3969 753 4284 
Q 1166 4600 1784 4600 
Q 2463 4600 2850 4234 
Q 3238 3869 3238 3325 
Q 3238 3016 3127 2736 
Q 3016 2456 2775 2150 
Q 2616 1947 2200 1565 
Q 1784 1184 1673 1059 
Q 1563 934 1494 816 
L 3238 816 
z
" transform="scale(0.015625)"/>
       </defs>
       <use xlink:href="#Arial-BoldMT-32"/>
      </g>
     </g>
    </g>
    <g id="xtick_4">
     <g id="line2d_4">
      <g>
       <use xlink:href="#m8b5c5a2324" x="808.909004" y="198.907885" style="stroke: #000000; stroke-width: 2"/>
      </g>
     </g>
     <g id="text_4">
      <!-- 3 -->
      <g transform="translate(803.90416 224.791947) scale(0.18 -0.18)">
       <defs>
        <path id="Arial-BoldMT-33" d="M 241 1216 
L 1091 1319 
Q 1131 994 1309 822 
Q 1488 650 1741 650 
Q 2013 650 2198 856 
Q 2384 1063 2384 1413 
Q 2384 1744 2206 1937 
Q 2028 2131 1772 2131 
Q 1603 2131 1369 2066 
L 1466 2781 
Q 1822 2772 2009 2936 
Q 2197 3100 2197 3372 
Q 2197 3603 2059 3740 
Q 1922 3878 1694 3878 
Q 1469 3878 1309 3722 
Q 1150 3566 1116 3266 
L 306 3403 
Q 391 3819 561 4067 
Q 731 4316 1036 4458 
Q 1341 4600 1719 4600 
Q 2366 4600 2756 4188 
Q 3078 3850 3078 3425 
Q 3078 2822 2419 2463 
Q 2813 2378 3048 2084 
Q 3284 1791 3284 1375 
Q 3284 772 2843 347 
Q 2403 -78 1747 -78 
Q 1125 -78 715 280 
Q 306 638 241 1216 
z
" transform="scale(0.015625)"/>
       </defs>
       <use xlink:href="#Arial-BoldMT-33"/>
      </g>
     </g>
    </g>
    <g id="xtick_5">
     <g id="line2d_5">
      <g>
       <use xlink:href="#m8b5c5a2324" x="701.454502" y="198.907885" style="stroke: #000000; stroke-width: 2"/>
      </g>
     </g>
     <g id="text_5">
      <!-- 4 -->
      <g transform="translate(696.449658 224.791947) scale(0.18 -0.18)">
       <defs>
        <path id="Arial-BoldMT-34" d="M 1994 0 
L 1994 922 
L 119 922 
L 119 1691 
L 2106 4600 
L 2844 4600 
L 2844 1694 
L 3413 1694 
L 3413 922 
L 2844 922 
L 2844 0 
L 1994 0 
z
M 1994 1694 
L 1994 3259 
L 941 1694 
L 1994 1694 
z
" transform="scale(0.015625)"/>
       </defs>
       <use xlink:href="#Arial-BoldMT-34"/>
      </g>
     </g>
    </g>
    <g id="xtick_6">
     <g id="line2d_6">
      <g>
       <use xlink:href="#m8b5c5a2324" x="594" y="198.907885" style="stroke: #000000; stroke-width: 2"/>
      </g>
     </g>
     <g id="text_6">
      <!-- 5 -->
      <g transform="translate(588.995156 224.791947) scale(0.18 -0.18)">
       <defs>
        <path id="Arial-BoldMT-35" d="M 284 1178 
L 1159 1269 
Q 1197 972 1381 798 
Q 1566 625 1806 625 
Q 2081 625 2272 848 
Q 2463 1072 2463 1522 
Q 2463 1944 2273 2155 
Q 2084 2366 1781 2366 
Q 1403 2366 1103 2031 
L 391 2134 
L 841 4519 
L 3163 4519 
L 3163 3697 
L 1506 3697 
L 1369 2919 
Q 1663 3066 1969 3066 
Q 2553 3066 2959 2641 
Q 3366 2216 3366 1538 
Q 3366 972 3038 528 
Q 2591 -78 1797 -78 
Q 1163 -78 763 262 
Q 363 603 284 1178 
z
" transform="scale(0.015625)"/>
       </defs>
       <use xlink:href="#Arial-BoldMT-35"/>
      </g>
     </g>
    </g>
    <g id="xtick_7">
     <g id="line2d_7">
      <g>
       <use xlink:href="#m8b5c5a2324" x="486.545498" y="198.907885" style="stroke: #000000; stroke-width: 2"/>
      </g>
     </g>
     <g id="text_7">
      <!-- 6 -->
      <g transform="translate(481.540654 224.791947) scale(0.18 -0.18)">
       <defs>
        <path id="Arial-BoldMT-36" d="M 3247 3459 
L 2397 3366 
Q 2366 3628 2234 3753 
Q 2103 3878 1894 3878 
Q 1616 3878 1423 3628 
Q 1231 3378 1181 2588 
Q 1509 2975 1997 2975 
Q 2547 2975 2939 2556 
Q 3331 2138 3331 1475 
Q 3331 772 2918 347 
Q 2506 -78 1859 -78 
Q 1166 -78 719 461 
Q 272 1000 272 2228 
Q 272 3488 737 4044 
Q 1203 4600 1947 4600 
Q 2469 4600 2811 4308 
Q 3153 4016 3247 3459 
z
M 1256 1544 
Q 1256 1116 1453 883 
Q 1650 650 1903 650 
Q 2147 650 2309 840 
Q 2472 1031 2472 1466 
Q 2472 1913 2297 2120 
Q 2122 2328 1859 2328 
Q 1606 2328 1431 2129 
Q 1256 1931 1256 1544 
z
" transform="scale(0.015625)"/>
       </defs>
       <use xlink:href="#Arial-BoldMT-36"/>
      </g>
     </g>
    </g>
    <g id="xtick_8">
     <g id="line2d_8">
      <g>
       <use xlink:href="#m8b5c5a2324" x="379.090996" y="198.907885" style="stroke: #000000; stroke-width: 2"/>
      </g>
     </g>
     <g id="text_8">
      <!-- 7 -->
      <g transform="translate(374.086153 224.791947) scale(0.18 -0.18)">
       <defs>
        <path id="Arial-BoldMT-37" d="M 272 3703 
L 272 4519 
L 3275 4519 
L 3275 3881 
Q 2903 3516 2518 2831 
Q 2134 2147 1932 1376 
Q 1731 606 1734 0 
L 888 0 
Q 909 950 1279 1937 
Q 1650 2925 2269 3703 
L 272 3703 
z
" transform="scale(0.015625)"/>
       </defs>
       <use xlink:href="#Arial-BoldMT-37"/>
      </g>
     </g>
    </g>
    <g id="xtick_9">
     <g id="line2d_9">
      <g>
       <use xlink:href="#m8b5c5a2324" x="271.636495" y="198.907885" style="stroke: #000000; stroke-width: 2"/>
      </g>
     </g>
     <g id="text_9">
      <!-- 8 -->
      <g transform="translate(266.631651 224.791947) scale(0.18 -0.18)">
       <defs>
        <path id="Arial-BoldMT-38" d="M 1025 2472 
Q 684 2616 529 2867 
Q 375 3119 375 3419 
Q 375 3931 733 4265 
Q 1091 4600 1750 4600 
Q 2403 4600 2764 4265 
Q 3125 3931 3125 3419 
Q 3125 3100 2959 2851 
Q 2794 2603 2494 2472 
Q 2875 2319 3073 2025 
Q 3272 1731 3272 1347 
Q 3272 713 2867 316 
Q 2463 -81 1791 -81 
Q 1166 -81 750 247 
Q 259 634 259 1309 
Q 259 1681 443 1992 
Q 628 2303 1025 2472 
z
M 1206 3356 
Q 1206 3094 1354 2947 
Q 1503 2800 1750 2800 
Q 2000 2800 2150 2948 
Q 2300 3097 2300 3359 
Q 2300 3606 2151 3754 
Q 2003 3903 1759 3903 
Q 1506 3903 1356 3753 
Q 1206 3603 1206 3356 
z
M 1125 1394 
Q 1125 1031 1311 828 
Q 1497 625 1775 625 
Q 2047 625 2225 820 
Q 2403 1016 2403 1384 
Q 2403 1706 2222 1901 
Q 2041 2097 1763 2097 
Q 1441 2097 1283 1875 
Q 1125 1653 1125 1394 
z
" transform="scale(0.015625)"/>
       </defs>
       <use xlink:href="#Arial-BoldMT-38"/>
      </g>
     </g>
    </g>
    <g id="xtick_10">
     <g id="line2d_10">
      <g>
       <use xlink:href="#m8b5c5a2324" x="164.181993" y="198.907885" style="stroke: #000000; stroke-width: 2"/>
      </g>
     </g>
     <g id="text_10">
      <!-- 9 -->
      <g transform="translate(159.177149 224.791947) scale(0.18 -0.18)">
       <defs>
        <path id="Arial-BoldMT-39" d="M 291 1059 
L 1141 1153 
Q 1172 894 1303 769 
Q 1434 644 1650 644 
Q 1922 644 2112 894 
Q 2303 1144 2356 1931 
Q 2025 1547 1528 1547 
Q 988 1547 595 1964 
Q 203 2381 203 3050 
Q 203 3747 617 4173 
Q 1031 4600 1672 4600 
Q 2369 4600 2816 4061 
Q 3263 3522 3263 2288 
Q 3263 1031 2797 475 
Q 2331 -81 1584 -81 
Q 1047 -81 715 205 
Q 384 491 291 1059 
z
M 2278 2978 
Q 2278 3403 2083 3637 
Q 1888 3872 1631 3872 
Q 1388 3872 1227 3680 
Q 1066 3488 1066 3050 
Q 1066 2606 1241 2398 
Q 1416 2191 1678 2191 
Q 1931 2191 2104 2391 
Q 2278 2591 2278 2978 
z
" transform="scale(0.015625)"/>
       </defs>
       <use xlink:href="#Arial-BoldMT-39"/>
      </g>
     </g>
    </g>
    <g id="xtick_11">
     <g id="line2d_11">
      <g>
       <use xlink:href="#m8b5c5a2324" x="56.727491" y="198.907885" style="stroke: #000000; stroke-width: 2"/>
      </g>
     </g>
     <g id="text_11">
      <!-- 10 -->
      <g transform="translate(46.717803 224.791947) scale(0.18 -0.18)">
       <use xlink:href="#Arial-BoldMT-31"/>
       <use xlink:href="#Arial-BoldMT-30" x="55.615234"/>
      </g>
     </g>
    </g>
    <g id="text_12">
     <!-- Chemical Shift / ppm -->
     <g transform="translate(504.992813 245.447573) scale(0.18 -0.18)">
      <defs>
       <path id="Arial-BoldMT-43" d="M 3397 1684 
L 4294 1400 
Q 4088 650 3608 286 
Q 3128 -78 2391 -78 
Q 1478 -78 890 545 
Q 303 1169 303 2250 
Q 303 3394 893 4026 
Q 1484 4659 2447 4659 
Q 3288 4659 3813 4163 
Q 4125 3869 4281 3319 
L 3366 3100 
Q 3284 3456 3026 3662 
Q 2769 3869 2400 3869 
Q 1891 3869 1573 3503 
Q 1256 3138 1256 2319 
Q 1256 1450 1568 1081 
Q 1881 713 2381 713 
Q 2750 713 3015 947 
Q 3281 1181 3397 1684 
z
" transform="scale(0.015625)"/>
       <path id="Arial-BoldMT-68" d="M 1334 4581 
L 1334 2897 
Q 1759 3394 2350 3394 
Q 2653 3394 2897 3281 
Q 3141 3169 3264 2994 
Q 3388 2819 3433 2606 
Q 3478 2394 3478 1947 
L 3478 0 
L 2600 0 
L 2600 1753 
Q 2600 2275 2550 2415 
Q 2500 2556 2373 2639 
Q 2247 2722 2056 2722 
Q 1838 2722 1666 2615 
Q 1494 2509 1414 2295 
Q 1334 2081 1334 1663 
L 1334 0 
L 456 0 
L 456 4581 
L 1334 4581 
z
" transform="scale(0.015625)"/>
       <path id="Arial-BoldMT-65" d="M 2381 1056 
L 3256 909 
Q 3088 428 2723 176 
Q 2359 -75 1813 -75 
Q 947 -75 531 491 
Q 203 944 203 1634 
Q 203 2459 634 2926 
Q 1066 3394 1725 3394 
Q 2466 3394 2894 2905 
Q 3322 2416 3303 1406 
L 1103 1406 
Q 1113 1016 1316 798 
Q 1519 581 1822 581 
Q 2028 581 2168 693 
Q 2309 806 2381 1056 
z
M 2431 1944 
Q 2422 2325 2234 2523 
Q 2047 2722 1778 2722 
Q 1491 2722 1303 2513 
Q 1116 2303 1119 1944 
L 2431 1944 
z
" transform="scale(0.015625)"/>
       <path id="Arial-BoldMT-6d" d="M 394 3319 
L 1203 3319 
L 1203 2866 
Q 1638 3394 2238 3394 
Q 2556 3394 2790 3262 
Q 3025 3131 3175 2866 
Q 3394 3131 3647 3262 
Q 3900 3394 4188 3394 
Q 4553 3394 4806 3245 
Q 5059 3097 5184 2809 
Q 5275 2597 5275 2122 
L 5275 0 
L 4397 0 
L 4397 1897 
Q 4397 2391 4306 2534 
Q 4184 2722 3931 2722 
Q 3747 2722 3584 2609 
Q 3422 2497 3350 2280 
Q 3278 2063 3278 1594 
L 3278 0 
L 2400 0 
L 2400 1819 
Q 2400 2303 2353 2443 
Q 2306 2584 2207 2653 
Q 2109 2722 1941 2722 
Q 1738 2722 1575 2612 
Q 1413 2503 1342 2297 
Q 1272 2091 1272 1613 
L 1272 0 
L 394 0 
L 394 3319 
z
" transform="scale(0.015625)"/>
       <path id="Arial-BoldMT-69" d="M 459 3769 
L 459 4581 
L 1338 4581 
L 1338 3769 
L 459 3769 
z
M 459 0 
L 459 3319 
L 1338 3319 
L 1338 0 
L 459 0 
z
" transform="scale(0.015625)"/>
       <path id="Arial-BoldMT-63" d="M 3353 2338 
L 2488 2181 
Q 2444 2441 2289 2572 
Q 2134 2703 1888 2703 
Q 1559 2703 1364 2476 
Q 1169 2250 1169 1719 
Q 1169 1128 1367 884 
Q 1566 641 1900 641 
Q 2150 641 2309 783 
Q 2469 925 2534 1272 
L 3397 1125 
Q 3263 531 2881 228 
Q 2500 -75 1859 -75 
Q 1131 -75 698 384 
Q 266 844 266 1656 
Q 266 2478 700 2936 
Q 1134 3394 1875 3394 
Q 2481 3394 2839 3133 
Q 3197 2872 3353 2338 
z
" transform="scale(0.015625)"/>
       <path id="Arial-BoldMT-61" d="M 1116 2306 
L 319 2450 
Q 453 2931 781 3162 
Q 1109 3394 1756 3394 
Q 2344 3394 2631 3255 
Q 2919 3116 3036 2902 
Q 3153 2688 3153 2116 
L 3144 1091 
Q 3144 653 3186 445 
Q 3228 238 3344 0 
L 2475 0 
Q 2441 88 2391 259 
Q 2369 338 2359 363 
Q 2134 144 1878 34 
Q 1622 -75 1331 -75 
Q 819 -75 523 203 
Q 228 481 228 906 
Q 228 1188 362 1408 
Q 497 1628 739 1745 
Q 981 1863 1438 1950 
Q 2053 2066 2291 2166 
L 2291 2253 
Q 2291 2506 2166 2614 
Q 2041 2722 1694 2722 
Q 1459 2722 1328 2630 
Q 1197 2538 1116 2306 
z
M 2291 1594 
Q 2122 1538 1756 1459 
Q 1391 1381 1278 1306 
Q 1106 1184 1106 997 
Q 1106 813 1243 678 
Q 1381 544 1594 544 
Q 1831 544 2047 700 
Q 2206 819 2256 991 
Q 2291 1103 2291 1419 
L 2291 1594 
z
" transform="scale(0.015625)"/>
       <path id="Arial-BoldMT-6c" d="M 459 0 
L 459 4581 
L 1338 4581 
L 1338 0 
L 459 0 
z
" transform="scale(0.015625)"/>
       <path id="Arial-BoldMT-20" transform="scale(0.015625)"/>
       <path id="Arial-BoldMT-53" d="M 231 1491 
L 1131 1578 
Q 1213 1125 1461 912 
Q 1709 700 2131 700 
Q 2578 700 2804 889 
Q 3031 1078 3031 1331 
Q 3031 1494 2936 1608 
Q 2841 1722 2603 1806 
Q 2441 1863 1863 2006 
Q 1119 2191 819 2459 
Q 397 2838 397 3381 
Q 397 3731 595 4036 
Q 794 4341 1167 4500 
Q 1541 4659 2069 4659 
Q 2931 4659 3367 4281 
Q 3803 3903 3825 3272 
L 2900 3231 
Q 2841 3584 2645 3739 
Q 2450 3894 2059 3894 
Q 1656 3894 1428 3728 
Q 1281 3622 1281 3444 
Q 1281 3281 1419 3166 
Q 1594 3019 2269 2859 
Q 2944 2700 3267 2529 
Q 3591 2359 3773 2064 
Q 3956 1769 3956 1334 
Q 3956 941 3737 597 
Q 3519 253 3119 86 
Q 2719 -81 2122 -81 
Q 1253 -81 787 320 
Q 322 722 231 1491 
z
" transform="scale(0.015625)"/>
       <path id="Arial-BoldMT-66" d="M 75 3319 
L 563 3319 
L 563 3569 
Q 563 3988 652 4194 
Q 741 4400 980 4529 
Q 1219 4659 1584 4659 
Q 1959 4659 2319 4547 
L 2200 3934 
Q 1991 3984 1797 3984 
Q 1606 3984 1523 3895 
Q 1441 3806 1441 3553 
L 1441 3319 
L 2097 3319 
L 2097 2628 
L 1441 2628 
L 1441 0 
L 563 0 
L 563 2628 
L 75 2628 
L 75 3319 
z
" transform="scale(0.015625)"/>
       <path id="Arial-BoldMT-74" d="M 1981 3319 
L 1981 2619 
L 1381 2619 
L 1381 1281 
Q 1381 875 1398 808 
Q 1416 741 1477 697 
Q 1538 653 1625 653 
Q 1747 653 1978 738 
L 2053 56 
Q 1747 -75 1359 -75 
Q 1122 -75 931 4 
Q 741 84 652 211 
Q 563 338 528 553 
Q 500 706 500 1172 
L 500 2619 
L 97 2619 
L 97 3319 
L 500 3319 
L 500 3978 
L 1381 4491 
L 1381 3319 
L 1981 3319 
z
" transform="scale(0.015625)"/>
       <path id="Arial-BoldMT-2f" d="M -9 -78 
L 1125 4659 
L 1784 4659 
L 638 -78 
L -9 -78 
z
" transform="scale(0.015625)"/>
       <path id="Arial-BoldMT-70" d="M 434 3319 
L 1253 3319 
L 1253 2831 
Q 1413 3081 1684 3237 
Q 1956 3394 2288 3394 
Q 2866 3394 3269 2941 
Q 3672 2488 3672 1678 
Q 3672 847 3265 386 
Q 2859 -75 2281 -75 
Q 2006 -75 1782 34 
Q 1559 144 1313 409 
L 1313 -1263 
L 434 -1263 
L 434 3319 
z
M 1303 1716 
Q 1303 1156 1525 889 
Q 1747 622 2066 622 
Q 2372 622 2575 867 
Q 2778 1113 2778 1672 
Q 2778 2194 2568 2447 
Q 2359 2700 2050 2700 
Q 1728 2700 1515 2451 
Q 1303 2203 1303 1716 
z
" transform="scale(0.015625)"/>
      </defs>
      <use xlink:href="#Arial-BoldMT-43"/>
      <use xlink:href="#Arial-BoldMT-68" x="72.216797"/>
      <use xlink:href="#Arial-BoldMT-65" x="133.300781"/>
      <use xlink:href="#Arial-BoldMT-6d" x="188.916016"/>
      <use xlink:href="#Arial-BoldMT-69" x="277.832031"/>
      <use xlink:href="#Arial-BoldMT-63" x="305.615234"/>
      <use xlink:href="#Arial-BoldMT-61" x="361.230469"/>
      <use xlink:href="#Arial-BoldMT-6c" x="416.845703"/>
      <use xlink:href="#Arial-BoldMT-20" x="444.628906"/>
      <use xlink:href="#Arial-BoldMT-53" x="472.412109"/>
      <use xlink:href="#Arial-BoldMT-68" x="539.111328"/>
      <use xlink:href="#Arial-BoldMT-69" x="600.195312"/>
      <use xlink:href="#Arial-BoldMT-66" x="627.978516"/>
      <use xlink:href="#Arial-BoldMT-74" x="661.279297"/>
      <use xlink:href="#Arial-BoldMT-20" x="694.580078"/>
      <use xlink:href="#Arial-BoldMT-2f" x="722.363281"/>
      <use xlink:href="#Arial-BoldMT-20" x="750.146484"/>
      <use xlink:href="#Arial-BoldMT-70" x="777.929688"/>
      <use xlink:href="#Arial-BoldMT-70" x="839.013672"/>
      <use xlink:href="#Arial-BoldMT-6d" x="900.097656"/>
     </g>
    </g>
   </g>
   <g id="matplotlib.axis_2"/>
   <g id="line2d_12">
    <path d="M 3.001 188.243621 
L 3.205619 187.926905 
L 3.410239 188.086044 
L 3.614859 188.694872 
L 4.024098 190.910663 
L 4.842577 196.050238 
L 5.047197 196.529797 
L 5.251817 196.571974 
L 5.661056 195.860901 
L 6.888774 192.632692 
L 7.502634 190.778459 
L 7.911873 190.497101 
L 8.116493 190.098169 
L 8.934972 186.916128 
L 9.139591 186.855605 
L 9.344211 187.119066 
L 10.16269 189.200646 
L 10.36731 189.186367 
L 10.981169 188.554401 
L 11.390408 188.477288 
L 11.799648 187.976852 
L 12.208887 187.49354 
L 12.413507 187.456854 
L 12.618127 187.672321 
L 13.231986 188.974238 
L 13.436606 189.094194 
L 13.845845 188.939074 
L 14.255085 188.415631 
L 14.664324 187.650885 
L 14.868944 187.444104 
L 15.073563 187.407862 
L 15.278183 187.55399 
L 15.892042 188.635919 
L 16.301282 189.230762 
L 16.505902 189.367944 
L 17.119761 189.440325 
L 17.529 190.198136 
L 17.93824 190.760588 
L 18.142859 190.674333 
L 18.756719 190.081855 
L 19.779817 189.55327 
L 19.984437 189.593663 
L 20.189057 189.800564 
L 21.212155 191.60173 
L 21.416775 191.530921 
L 21.621395 191.206664 
L 22.030634 190.130119 
L 22.235254 189.954713 
L 22.439874 190.204467 
L 23.053733 191.509434 
L 24.076831 192.462973 
L 24.486071 193.010081 
L 24.690691 192.971345 
L 25.09993 191.967476 
L 25.30455 191.447613 
L 25.50917 191.269486 
L 25.713789 191.472451 
L 26.941508 194.239369 
L 27.146127 194.089228 
L 28.169226 191.819823 
L 28.783085 192.069111 
L 28.987705 191.738528 
L 29.601564 190.224579 
L 30.010804 189.524272 
L 30.420043 188.080379 
L 31.443142 183.290226 
L 31.647761 183.090397 
L 31.852381 183.556651 
L 32.26162 186.193129 
L 32.67086 189.074318 
L 32.87548 189.840716 
L 33.080099 190.162344 
L 33.284719 190.114624 
L 33.693959 189.119483 
L 34.103198 188.109198 
L 34.512437 187.675533 
L 34.717057 187.644472 
L 34.921677 187.773859 
L 35.535536 188.586556 
L 35.740156 188.576199 
L 35.944776 188.298166 
L 37.172494 185.531363 
L 37.377114 185.473526 
L 37.581733 185.586301 
L 37.786353 185.92273 
L 38.809452 188.597751 
L 39.014071 188.637817 
L 39.627931 188.092923 
L 39.83255 188.276832 
L 40.44641 189.472521 
L 41.264888 190.267418 
L 41.674128 191.002771 
L 41.878748 191.143653 
L 42.083367 190.970403 
L 43.311086 188.540563 
L 43.924945 188.305422 
L 44.129565 188.519803 
L 44.538804 189.675366 
L 44.948044 190.924499 
L 45.152663 191.230517 
L 45.357283 191.236927 
L 46.175762 190.469713 
L 46.380382 190.786529 
L 46.994241 192.505736 
L 47.198861 192.674737 
L 47.40348 192.501484 
L 48.426579 190.988678 
L 48.631199 190.93697 
L 49.040438 191.052374 
L 49.245058 190.791066 
L 49.654297 189.438651 
L 50.063537 187.511921 
L 51.291255 180.678133 
L 51.905114 178.424059 
L 53.542072 170.510197 
L 53.951312 166.147998 
L 54.360551 159.27748 
L 54.97441 144.505328 
L 55.588269 128.427149 
L 55.792889 125.316657 
L 55.997509 124.486314 
L 56.202129 126.319727 
L 56.611368 137.636985 
L 57.429847 168.240133 
L 57.839086 177.202368 
L 58.248326 181.612848 
L 58.657565 183.691536 
L 59.476044 186.346762 
L 60.294523 188.172337 
L 60.908382 190.533688 
L 61.522241 192.033448 
L 61.931481 192.512732 
L 62.95458 193.249141 
L 63.159199 193.125824 
L 63.568439 192.337566 
L 64.796157 189.035069 
L 65.410016 188.650583 
L 65.614636 188.614883 
L 66.023875 188.914342 
L 66.433115 189.186366 
L 66.637735 189.145581 
L 67.046974 188.685719 
L 67.456214 188.023625 
L 67.660833 187.949276 
L 67.865453 188.190072 
L 68.479312 189.486211 
L 69.502411 190.668847 
L 69.70703 191.028673 
L 69.91165 191.06698 
L 70.11627 190.670272 
L 70.525509 188.931041 
L 71.139369 186.232715 
L 71.548608 185.707168 
L 71.753228 185.893282 
L 72.162467 187.354711 
L 72.571707 188.855901 
L 72.980946 189.556495 
L 73.390186 189.631147 
L 74.208664 189.417151 
L 74.413284 189.663075 
L 75.027143 191.317919 
L 75.231763 191.467474 
L 75.845622 190.945148 
L 77.073341 191.784152 
L 77.27796 191.825508 
L 77.48258 191.589892 
L 78.096439 189.85676 
L 78.301059 189.811437 
L 78.505679 190.160865 
L 79.324158 192.861616 
L 79.528777 192.665058 
L 80.142637 191.314033 
L 80.551876 189.700944 
L 81.165735 187.004787 
L 81.574975 186.056217 
L 81.984214 185.767999 
L 82.188834 185.908304 
L 83.007313 186.956749 
L 83.211932 186.660901 
L 83.825792 185.291041 
L 84.030411 185.331638 
L 84.439651 186.324687 
L 85.25813 189.035701 
L 85.462749 189.207904 
L 85.871989 188.992655 
L 86.076609 189.160525 
L 86.485848 190.212812 
L 87.713566 194.689069 
L 88.122806 195.149517 
L 88.327426 195.066608 
L 89.350524 193.834944 
L 90.169003 191.507262 
L 90.782862 189.857836 
L 90.987482 189.592197 
L 91.192102 189.591857 
L 91.601341 190.184712 
L 92.62444 192.297532 
L 93.033679 192.850654 
L 93.238299 192.951663 
L 93.442919 192.828723 
L 93.852158 192.256412 
L 94.056778 192.14746 
L 94.261398 192.225166 
L 94.670637 192.985523 
L 95.079877 193.805215 
L 95.284496 193.868158 
L 96.716834 193.231539 
L 97.330694 193.72375 
L 97.535313 193.491225 
L 98.149173 192.420132 
L 98.558412 192.487062 
L 98.763032 192.501358 
L 98.967651 192.363046 
L 99.376891 191.669501 
L 100.19537 189.691403 
L 100.809229 188.182361 
L 101.013849 188.087822 
L 101.423088 188.472699 
L 101.832328 188.777715 
L 102.241567 188.612806 
L 102.650807 188.517128 
L 102.855426 188.749374 
L 103.673905 190.623586 
L 103.878525 190.547206 
L 104.287764 190.048973 
L 105.515483 187.977067 
L 105.924722 187.600199 
L 106.333962 187.684073 
L 107.35706 187.941113 
L 107.970919 187.788696 
L 108.994018 188.201536 
L 109.403257 188.180817 
L 110.017117 188.046072 
L 110.426356 188.315241 
L 110.835596 189.06575 
L 111.244835 189.696123 
L 111.449455 189.576781 
L 112.472553 188.014176 
L 112.881793 187.62062 
L 113.086413 187.552281 
L 113.700272 187.88963 
L 114.109511 187.251069 
L 114.518751 186.658623 
L 115.13261 186.080891 
L 115.541849 185.75902 
L 115.746469 185.762462 
L 116.155708 186.161884 
L 116.564948 186.570832 
L 117.178807 186.612154 
L 117.792666 187.018779 
L 118.406525 186.990454 
L 118.815765 186.676272 
L 119.225004 185.849814 
L 120.248103 182.897086 
L 120.861962 183.039103 
L 121.271202 182.789652 
L 121.475821 182.810634 
L 121.680441 182.992519 
L 121.885061 183.416809 
L 122.2943 185.214732 
L 122.908159 188.161831 
L 123.112779 188.40775 
L 123.726638 188.162173 
L 124.340498 188.685632 
L 124.545117 188.394061 
L 124.954357 186.912955 
L 125.977455 183.0065 
L 126.386695 182.351969 
L 127.000554 182.154959 
L 127.409793 182.324243 
L 128.228272 183.175504 
L 128.432892 183.523949 
L 128.842132 185.017621 
L 130.06985 190.717114 
L 130.27447 190.805909 
L 130.479089 190.276548 
L 130.888329 187.846037 
L 131.297568 185.331118 
L 131.502188 184.794599 
L 131.706808 184.891383 
L 132.525287 187.11492 
L 132.729906 186.897212 
L 133.753005 184.526048 
L 134.366864 181.936205 
L 134.571484 181.58557 
L 134.776104 181.615363 
L 135.389963 182.701209 
L 136.003822 183.793777 
L 136.617681 184.486954 
L 137.026921 185.092186 
L 137.23154 185.118059 
L 137.43616 184.832862 
L 138.459259 182.337785 
L 139.073118 181.554651 
L 139.277738 181.474576 
L 139.482357 181.53603 
L 139.891597 182.233164 
L 140.505456 183.530474 
L 140.710076 183.541662 
L 140.914695 183.202853 
L 141.323935 181.626278 
L 141.937794 179.170771 
L 142.142414 178.936592 
L 142.347034 179.130767 
L 142.756273 179.707362 
L 142.960893 179.678559 
L 143.574752 179.091548 
L 143.983991 178.687997 
L 144.393231 177.711103 
L 144.80247 176.130458 
L 145.416329 171.921609 
L 145.825569 169.335729 
L 146.234808 167.966992 
L 147.053287 165.507835 
L 147.871766 162.09802 
L 148.076386 161.733435 
L 148.281006 161.630295 
L 148.894865 161.767326 
L 149.099484 161.446324 
L 149.508724 159.881676 
L 150.327203 155.663909 
L 150.736442 155.244936 
L 151.350301 155.014025 
L 151.759541 155.450128 
L 151.964161 155.652484 
L 152.16878 155.571248 
L 152.3734 155.045946 
L 152.78264 152.76991 
L 153.601118 147.620459 
L 154.010358 146.040074 
L 154.214978 145.751051 
L 154.419597 145.822384 
L 154.828837 146.163076 
L 155.033457 146.003318 
L 155.442696 145.110863 
L 156.261175 142.901096 
L 156.465795 143.152263 
L 156.875034 145.221825 
L 157.488893 148.619326 
L 157.693513 149.203871 
L 157.898133 149.412459 
L 158.511992 149.116686 
L 159.125851 148.808489 
L 159.330471 148.631214 
L 159.535091 148.647016 
L 159.73971 149.10368 
L 160.14895 151.185629 
L 160.967429 156.445079 
L 161.581288 161.032372 
L 161.990527 162.267249 
L 163.013626 163.551862 
L 163.832105 165.046965 
L 164.241344 165.776888 
L 165.264443 168.327362 
L 165.469063 168.392122 
L 165.878302 168.136449 
L 166.082922 168.177175 
L 166.287542 168.576092 
L 166.696781 170.793916 
L 167.51526 176.462347 
L 167.924499 177.479162 
L 168.129119 177.561022 
L 168.333739 177.420874 
L 168.742978 176.65179 
L 169.561457 174.537749 
L 169.766077 174.347878 
L 169.970697 174.488926 
L 170.379936 175.656084 
L 170.789176 176.88943 
L 170.993795 177.079937 
L 171.198415 176.889806 
L 171.607654 176.055289 
L 171.812274 175.928087 
L 172.016894 176.110888 
L 172.426133 177.099933 
L 172.835373 177.908595 
L 173.039993 177.738214 
L 173.858471 175.66411 
L 174.063091 175.590659 
L 174.267711 175.738426 
L 174.472331 176.103079 
L 174.88157 177.512253 
L 175.29081 179.271309 
L 175.495429 179.705287 
L 175.700049 179.619512 
L 176.109288 178.257864 
L 176.723148 176.076254 
L 177.950866 172.474597 
L 178.769345 168.585574 
L 179.383204 167.110464 
L 179.587824 166.870282 
L 179.792444 166.896458 
L 180.201683 167.268282 
L 180.406303 167.185933 
L 180.610922 166.751699 
L 181.224782 164.230066 
L 182.4525 159.561857 
L 182.861739 159.101045 
L 183.270979 159.056146 
L 183.680218 159.091385 
L 184.089458 158.845284 
L 184.294078 158.875513 
L 185.521796 159.765291 
L 186.135655 160.695112 
L 186.340275 160.664571 
L 186.749514 160.244704 
L 187.158754 159.08551 
L 187.977233 155.663867 
L 188.181852 155.397009 
L 188.591092 155.294505 
L 188.795711 155.071668 
L 189.204951 154.094602 
L 189.81881 152.531172 
L 190.22805 152.04961 
L 190.432669 152.050292 
L 190.637289 152.286294 
L 191.046528 153.303605 
L 191.455768 154.495011 
L 191.660388 154.823468 
L 192.069627 154.965493 
L 192.683486 155.024067 
L 192.888106 155.234708 
L 193.297345 156.246102 
L 193.911205 158.045578 
L 194.934303 158.886933 
L 195.138923 158.882908 
L 195.548162 158.511034 
L 195.957402 157.453084 
L 197.59436 150.711962 
L 198.208219 148.203017 
L 198.617458 147.576055 
L 199.026698 147.33851 
L 199.640557 147.670523 
L 199.845177 147.495612 
L 200.663656 145.745666 
L 201.072895 145.818597 
L 201.891374 144.985325 
L 202.300613 143.629198 
L 202.709853 142.236864 
L 202.914473 142.267843 
L 203.323712 143.527411 
L 204.96067 149.016266 
L 205.16529 149.243798 
L 205.574529 149.210295 
L 205.983769 149.104363 
L 206.188388 149.289131 
L 206.597628 150.279322 
L 207.620726 153.682196 
L 208.029966 154.414437 
L 208.848445 154.833939 
L 209.257684 155.459278 
L 209.666924 156.803004 
L 210.076163 158.787405 
L 211.099262 165.231714 
L 211.713121 167.011283 
L 212.12236 167.774836 
L 212.32698 167.802597 
L 212.940839 167.271787 
L 213.145459 167.278584 
L 213.350079 167.443713 
L 213.759318 168.280622 
L 214.168558 169.032916 
L 214.373177 169.124154 
L 214.987037 168.802131 
L 215.191656 169.028422 
L 215.600896 170.154802 
L 217.033234 174.603461 
L 217.442473 175.177618 
L 217.647093 175.026492 
L 218.056332 173.712072 
L 218.465572 172.395573 
L 218.670192 172.16711 
L 218.874811 172.270906 
L 219.284051 173.189756 
L 220.307149 176.108474 
L 220.716389 176.563649 
L 221.330248 176.872587 
L 221.739488 177.441033 
L 222.148727 178.011465 
L 222.353347 178.039353 
L 222.762586 177.676303 
L 223.171826 177.306742 
L 223.376445 177.575523 
L 224.194924 179.724721 
L 225.422643 181.311556 
L 225.627262 181.082476 
L 226.036502 179.774539 
L 226.650361 177.669991 
L 227.0596 176.858096 
L 227.26422 176.661019 
L 227.46884 176.666842 
L 227.67346 177.022461 
L 228.082699 178.76955 
L 228.901178 182.649538 
L 229.310417 183.93286 
L 229.515037 184.141622 
L 229.719657 184.028185 
L 231.151995 182.430457 
L 231.356615 182.337509 
L 231.561234 182.063641 
L 232.175094 180.091962 
L 233.198192 176.87115 
L 234.016671 173.813606 
L 234.221291 173.471037 
L 234.425911 173.63668 
L 235.03977 175.436759 
L 235.244389 175.56892 
L 235.449009 175.350311 
L 235.858249 174.281031 
L 236.472108 171.985348 
L 237.085967 169.395105 
L 237.290587 169.085253 
L 237.495206 169.278173 
L 237.904446 170.708214 
L 238.313685 171.861767 
L 238.518305 171.751012 
L 239.336784 169.684672 
L 239.746023 169.646741 
L 239.950643 169.460233 
L 240.359883 168.579726 
L 240.973742 166.41368 
L 241.792221 163.24327 
L 242.20146 162.161272 
L 242.815319 160.100719 
L 243.224559 159.619672 
L 243.633798 159.132795 
L 244.043038 158.644287 
L 244.656897 158.720154 
L 244.861517 158.52261 
L 245.066136 158.025529 
L 245.475376 155.852863 
L 246.293855 150.172183 
L 246.907714 148.592199 
L 247.316953 147.713047 
L 247.726193 147.111759 
L 247.930813 146.55645 
L 249.77239 138.485848 
L 252.432447 120.950569 
L 252.841686 118.924544 
L 253.250925 117.74701 
L 253.660165 117.215658 
L 254.069404 116.883811 
L 254.274024 116.373376 
L 256.115602 108.435011 
L 256.729461 103.664261 
L 257.957179 93.246563 
L 258.980278 86.413528 
L 259.594137 83.898476 
L 260.207996 81.917512 
L 260.412616 81.513499 
L 260.617236 81.419236 
L 260.821855 81.742747 
L 261.231095 83.607592 
L 261.844954 88.258561 
L 263.072672 98.046788 
L 263.481912 101.578524 
L 265.11887 118.991889 
L 265.937348 125.844872 
L 267.778926 140.535659 
L 267.983546 141.030454 
L 268.392785 141.300855 
L 268.802025 141.339286 
L 269.006644 141.10774 
L 269.825123 139.607128 
L 270.234363 139.724122 
L 270.438982 139.783125 
L 270.643602 139.646251 
L 270.848222 139.228064 
L 271.257461 137.514624 
L 272.07594 132.980852 
L 272.48518 132.167407 
L 272.689799 132.147071 
L 273.099039 132.577231 
L 273.303659 132.795489 
L 273.508278 132.789998 
L 273.712898 132.405813 
L 274.122138 130.594413 
L 274.940616 127.047829 
L 275.349856 125.776509 
L 275.759095 125.183506 
L 275.963715 125.115786 
L 276.782194 125.33911 
L 277.396053 125.048165 
L 277.600673 124.853365 
L 277.805293 124.386721 
L 278.009912 123.368109 
L 278.419152 119.316917 
L 279.237631 106.560193 
L 279.85149 98.094501 
L 280.05611 96.992238 
L 280.260729 96.943288 
L 280.874589 98.479892 
L 281.079208 98.708344 
L 281.283828 99.149927 
L 281.488448 100.200147 
L 281.897687 104.916083 
L 283.125406 123.475382 
L 283.739265 128.466103 
L 283.943884 129.029931 
L 284.148504 128.793474 
L 284.557744 126.54711 
L 285.580842 119.954831 
L 287.01318 112.992165 
L 287.62704 107.365383 
L 288.240899 101.478963 
L 288.854758 96.38137 
L 289.468617 88.456065 
L 291.310195 61.006349 
L 292.742533 45.033456 
L 293.151772 42.911316 
L 293.765631 41.046545 
L 294.174871 38.028531 
L 295.607209 23.015843 
L 296.221068 18.754831 
L 297.039547 13.978465 
L 298.062646 6.255586 
L 298.471885 4.566977 
L 298.881125 3.612015 
L 299.290364 3.067274 
L 299.494984 3.00024 
L 299.699603 3.131964 
L 300.313463 3.911862 
L 300.518082 3.859895 
L 301.131942 3.306179 
L 301.541181 3.650922 
L 301.95042 4.405641 
L 302.35966 6.326311 
L 303.178139 11.816544 
L 303.382758 12.212658 
L 303.587378 12.213791 
L 304.405857 11.585309 
L 304.815097 10.866981 
L 305.019716 10.919301 
L 305.224336 11.494681 
L 305.428956 12.700174 
L 305.838195 17.2885 
L 306.861294 34.902101 
L 307.475153 43.980066 
L 308.089012 50.153877 
L 308.702871 54.437509 
L 308.907491 55.246953 
L 309.112111 55.511964 
L 309.316731 55.276053 
L 309.72597 54.10478 
L 310.135209 52.055943 
L 310.544449 49.836788 
L 311.362928 46.798282 
L 312.795266 38.551758 
L 312.999886 38.036504 
L 313.204505 37.830229 
L 313.409125 37.89927 
L 314.022984 38.550282 
L 314.841463 38.653098 
L 315.455322 39.433582 
L 315.659942 39.21146 
L 316.478421 36.552636 
L 317.2969 33.275918 
L 317.50152 33.084308 
L 317.706139 33.477417 
L 318.115379 36.122532 
L 318.729238 42.740345 
L 319.138477 49.795567 
L 320.366196 74.543724 
L 321.184675 85.528383 
L 321.798534 91.703578 
L 322.617013 98.145226 
L 323.026252 99.913037 
L 323.435492 100.873474 
L 323.844731 101.714153 
L 324.45859 103.815607 
L 325.277069 106.599762 
L 325.481689 106.929466 
L 325.686309 106.980858 
L 326.095548 106.378258 
L 326.300168 106.067818 
L 326.504788 105.978211 
L 326.709407 106.136508 
L 327.323267 106.908203 
L 327.527886 106.828362 
L 327.937126 106.11534 
L 328.346365 104.594504 
L 328.960224 101.496669 
L 329.164844 101.147166 
L 329.369464 101.514248 
L 329.778703 104.281696 
L 330.392562 111.664931 
L 332.43876 139.523776 
L 333.257239 147.537588 
L 333.871098 154.130082 
L 334.280337 156.928962 
L 335.508056 162.474654 
L 337.349633 167.634195 
L 338.781971 169.663001 
L 339.39583 171.144068 
L 339.80507 171.560766 
L 340.418929 171.633938 
L 340.623549 171.88011 
L 341.032788 173.170473 
L 341.442028 174.631383 
L 341.646647 175.056481 
L 341.851267 175.188455 
L 342.260507 174.782762 
L 342.669746 174.56104 
L 343.078985 174.610984 
L 343.283605 174.808953 
L 343.692845 175.840702 
L 344.511324 178.427538 
L 345.125183 179.574689 
L 345.329802 179.613748 
L 345.534422 179.444467 
L 346.557521 178.00459 
L 346.762141 177.870024 
L 347.376 177.080905 
L 347.580619 177.137493 
L 347.785239 177.385287 
L 347.989859 177.885909 
L 348.399098 179.763448 
L 349.012958 182.782681 
L 349.422197 183.727658 
L 350.240676 184.039956 
L 350.445296 183.981449 
L 350.649915 183.557638 
L 351.059155 181.662509 
L 351.673014 178.823725 
L 352.082253 177.564421 
L 352.286873 177.277633 
L 352.491493 177.460871 
L 352.900732 178.952577 
L 353.923831 183.43874 
L 354.33307 184.433489 
L 354.53769 184.517672 
L 354.74231 184.399408 
L 355.560789 183.338954 
L 355.970028 183.980456 
L 356.379268 184.494608 
L 356.788507 184.178835 
L 356.993127 184.051478 
L 357.197747 184.12917 
L 358.220845 185.413898 
L 358.630085 186.282414 
L 359.039324 187.180721 
L 359.243944 187.34466 
L 359.448564 187.311807 
L 359.653183 187.083927 
L 360.062423 185.994978 
L 360.471662 184.961992 
L 360.676282 184.972415 
L 361.085521 185.731447 
L 362.10862 188.155696 
L 362.927099 188.959056 
L 363.745578 191.244493 
L 364.154817 191.445225 
L 364.359437 191.380699 
L 364.564057 191.052019 
L 364.973296 189.727408 
L 366.201015 184.890277 
L 366.405634 184.960682 
L 366.814874 185.898653 
L 367.837972 188.542355 
L 368.042592 188.506308 
L 368.247212 187.966322 
L 369.065691 184.953436 
L 370.293409 182.863093 
L 370.498029 182.901321 
L 370.907268 183.721303 
L 371.316508 184.528707 
L 371.725747 185.005508 
L 372.544226 185.465675 
L 373.158085 185.419183 
L 374.181184 185.645385 
L 374.590423 185.474656 
L 374.999663 185.229515 
L 375.204283 185.303577 
L 375.613522 185.92916 
L 376.022762 186.696368 
L 376.227381 186.670227 
L 377.04586 185.41284 
L 377.864339 185.868634 
L 378.068959 185.738952 
L 378.478198 184.80931 
L 378.887438 183.851423 
L 379.092057 183.868377 
L 379.296677 184.262456 
L 379.705917 185.792183 
L 380.524395 189.845987 
L 380.729015 190.127127 
L 380.933635 190.08726 
L 381.547494 189.626475 
L 381.956734 189.673703 
L 382.161353 189.507616 
L 382.570593 188.657357 
L 383.593691 185.88015 
L 383.798311 185.753343 
L 384.002931 185.873653 
L 384.41217 186.669062 
L 385.230649 189.07243 
L 385.435269 188.859674 
L 387.072227 184.595977 
L 387.890706 182.167428 
L 388.095325 182.226226 
L 388.709185 182.94562 
L 389.118424 183.243739 
L 389.527663 183.840322 
L 390.141523 185.210398 
L 390.550762 186.307803 
L 390.755382 186.624707 
L 390.960002 186.70206 
L 391.164621 186.508552 
L 391.77848 185.40456 
L 391.9831 185.286297 
L 392.18772 185.411552 
L 393.006199 187.042603 
L 393.210819 186.781955 
L 393.824678 185.15324 
L 394.029297 185.022614 
L 394.438537 185.027158 
L 394.643157 184.814437 
L 395.052396 183.903309 
L 396.075495 181.130179 
L 396.689354 182.261152 
L 396.893974 181.970812 
L 398.121692 177.871232 
L 399.34941 174.229144 
L 399.75865 173.194922 
L 400.167889 170.833982 
L 401.804847 157.842837 
L 403.032565 144.863698 
L 403.441805 142.944761 
L 403.646425 142.864655 
L 403.851044 143.225874 
L 404.260284 144.879428 
L 406.101861 154.84851 
L 406.715721 159.755886 
L 407.12496 162.313655 
L 407.534199 163.295967 
L 407.943439 164.061084 
L 408.352678 165.384061 
L 409.375777 169.258749 
L 409.580397 169.463761 
L 409.785016 169.301993 
L 410.808115 166.657772 
L 411.421974 164.879004 
L 412.445073 160.639339 
L 413.468172 159.392088 
L 413.672791 158.767019 
L 414.082031 156.49125 
L 414.49127 154.058059 
L 414.69589 153.47884 
L 414.90051 153.584146 
L 415.105129 154.398337 
L 415.514369 157.608531 
L 416.332848 164.512709 
L 417.151327 169.419917 
L 418.379045 175.550396 
L 419.197524 179.038691 
L 419.606763 180.466191 
L 420.016003 180.999202 
L 420.425242 181.62833 
L 421.039101 183.520132 
L 421.85758 186.423893 
L 422.26682 187.027943 
L 422.471439 187.214118 
L 422.676059 187.240845 
L 422.880679 187.032784 
L 423.289918 186.081619 
L 424.313017 183.522499 
L 424.722256 182.677662 
L 424.926876 182.565765 
L 425.540735 182.846923 
L 425.745355 182.651362 
L 426.359214 181.526587 
L 426.563834 181.523212 
L 426.973073 181.993587 
L 427.382313 182.446315 
L 427.791552 182.860315 
L 429.019271 185.494873 
L 429.63313 187.056381 
L 430.451609 190.058181 
L 430.860848 190.359853 
L 431.065468 190.320409 
L 431.474707 189.814385 
L 432.293186 188.300083 
L 432.702426 187.930926 
L 432.907046 187.951407 
L 433.520905 188.466356 
L 434.134764 188.653333 
L 434.748623 188.976346 
L 434.953243 188.845102 
L 435.771722 187.760588 
L 436.180961 187.657065 
L 436.590201 187.971516 
L 437.40868 189.60228 
L 438.431778 191.664357 
L 438.636398 191.684429 
L 439.454877 191.169364 
L 439.864116 190.67296 
L 440.273356 189.983486 
L 440.477975 189.859639 
L 440.682595 189.910099 
L 441.296454 190.441261 
L 441.501074 190.398011 
L 442.114933 189.798756 
L 442.319553 189.884737 
L 442.728792 190.239185 
L 442.933412 190.163261 
L 443.138032 189.7705 
L 443.956511 187.011562 
L 444.161131 186.997736 
L 444.36575 187.26325 
L 444.77499 188.379359 
L 445.593469 191.680115 
L 445.798088 191.734636 
L 446.002708 191.315827 
L 446.411948 190.029238 
L 446.616567 189.702366 
L 446.821187 189.709252 
L 447.435046 190.32513 
L 447.639666 190.111522 
L 448.048905 188.680277 
L 448.662765 186.413535 
L 449.072004 185.91809 
L 449.481243 185.617032 
L 450.299722 184.520684 
L 450.504342 184.622606 
L 450.708962 185.004877 
L 451.118201 186.690122 
L 451.73206 189.496204 
L 452.1413 190.627283 
L 452.550539 191.065611 
L 452.959779 190.993747 
L 453.164399 191.15433 
L 453.573638 192.297102 
L 453.982877 193.392886 
L 454.187497 193.507688 
L 454.392117 193.333745 
L 454.801356 192.527606 
L 455.210596 191.227099 
L 455.824455 188.538359 
L 456.029075 188.108196 
L 456.233694 187.965986 
L 456.438314 188.058998 
L 456.847554 188.731494 
L 457.461413 189.816626 
L 457.870652 190.312533 
L 458.075272 190.285793 
L 458.279892 189.947584 
L 459.098371 187.928085 
L 459.30299 188.011721 
L 459.916849 188.557508 
L 460.326089 188.778138 
L 460.735328 188.915914 
L 461.144568 189.075504 
L 462.372286 188.034834 
L 462.986145 186.345132 
L 463.395385 185.951888 
L 463.600005 185.983194 
L 464.009244 186.494959 
L 465.236962 188.354592 
L 465.850822 189.402307 
L 466.464681 190.933405 
L 467.07854 192.473739 
L 467.28316 192.371675 
L 467.692399 190.955745 
L 468.101639 189.8718 
L 468.306258 189.85622 
L 468.510878 190.170563 
L 469.124737 191.741352 
L 469.329357 191.857812 
L 469.533977 191.652426 
L 469.943216 190.674998 
L 470.557075 188.986209 
L 470.761695 188.91446 
L 471.375554 189.71954 
L 471.580174 189.443626 
L 472.194033 188.000222 
L 472.398653 187.801623 
L 472.603273 187.812215 
L 473.012512 188.354608 
L 473.830991 189.708916 
L 474.035611 189.702996 
L 474.64947 188.652131 
L 474.85409 188.685339 
L 475.263329 189.385897 
L 476.081808 191.397509 
L 476.286428 191.493786 
L 476.900287 191.338162 
L 477.104907 191.158107 
L 477.514146 190.19076 
L 477.923385 189.159452 
L 478.128005 188.945612 
L 478.332625 189.045276 
L 478.741864 190.042838 
L 479.151104 191.131398 
L 479.355724 191.387898 
L 479.560343 191.341557 
L 480.174202 190.537062 
L 480.378822 190.679757 
L 481.197301 192.289169 
L 481.401921 192.262107 
L 481.81116 191.497039 
L 482.425019 190.245618 
L 482.834259 189.750893 
L 483.243498 189.753686 
L 484.061977 189.891829 
L 484.471217 190.672872 
L 484.880456 191.410581 
L 485.085076 191.470718 
L 485.289696 191.29106 
L 485.903555 189.999747 
L 486.517414 188.719459 
L 486.722034 188.683568 
L 486.926653 189.083285 
L 487.745132 192.01524 
L 487.949752 192.04013 
L 488.358992 191.254274 
L 488.768231 190.601037 
L 489.17747 190.449312 
L 489.58671 190.633171 
L 490.405189 191.720502 
L 491.019048 190.858106 
L 491.223668 190.986381 
L 491.837527 192.295883 
L 492.042147 192.263346 
L 492.656006 191.204902 
L 493.065245 191.187975 
L 493.883724 190.642352 
L 494.497583 190.998004 
L 494.906823 191.355054 
L 495.111442 191.316474 
L 495.520682 190.994629 
L 495.725302 191.107298 
L 496.134541 191.741578 
L 496.339161 191.778244 
L 496.543781 191.548133 
L 496.95302 190.579174 
L 497.771499 187.687511 
L 497.976119 187.507831 
L 498.180738 187.647299 
L 498.589978 188.655677 
L 499.408457 191.331741 
L 499.613076 191.339177 
L 500.022316 190.28597 
L 500.431555 189.272542 
L 500.636175 189.17523 
L 500.840795 189.400553 
L 501.659274 191.243489 
L 502.068513 191.466175 
L 502.477753 191.521738 
L 502.886992 191.254245 
L 503.296232 190.962993 
L 504.11471 190.660226 
L 504.31933 190.648726 
L 504.52395 190.439497 
L 505.342429 189.070679 
L 505.751668 188.922211 
L 505.956288 189.071056 
L 506.365527 190.029406 
L 506.979387 191.830433 
L 507.184006 191.918925 
L 507.388626 191.611787 
L 507.797866 189.935386 
L 508.207105 188.180047 
L 508.616344 187.392693 
L 509.025584 187.025053 
L 509.230204 187.159835 
L 509.639443 188.232867 
L 510.253302 190.248551 
L 510.662542 191.085699 
L 511.89026 192.676288 
L 512.2995 193.505981 
L 512.504119 193.575173 
L 512.913359 193.038898 
L 513.322598 192.609798 
L 513.731838 192.51412 
L 513.936457 192.301091 
L 514.345697 191.45596 
L 515.573415 188.64651 
L 516.391894 187.635526 
L 516.801134 186.918178 
L 517.005753 186.866137 
L 517.210373 187.123804 
L 518.028852 188.953791 
L 518.233472 188.9134 
L 518.847331 188.401864 
L 519.66581 188.328442 
L 519.870429 188.651098 
L 520.688908 190.72113 
L 521.098148 191.014367 
L 521.302768 191.033839 
L 521.507387 190.849575 
L 521.712007 190.275994 
L 522.325866 187.847119 
L 522.530486 187.805517 
L 523.144345 188.588663 
L 523.758204 188.565582 
L 524.576683 189.62907 
L 525.395162 189.515046 
L 525.804402 189.896876 
L 526.213641 189.874355 
L 526.418261 189.874302 
L 526.8275 190.274199 
L 527.03212 190.487756 
L 527.23674 190.478372 
L 527.645979 189.633951 
L 528.055219 188.805427 
L 528.259838 188.81 
L 528.669078 189.482978 
L 529.078317 190.550727 
L 529.896796 193.692489 
L 530.101416 193.863698 
L 530.306036 193.528416 
L 530.715275 191.625547 
L 531.533754 186.589847 
L 531.738374 186.17316 
L 532.147613 186.123507 
L 532.556853 185.956513 
L 532.966092 185.827894 
L 533.170712 186.026092 
L 533.579951 187.010674 
L 534.39843 189.249446 
L 535.012289 190.479827 
L 535.216909 190.891097 
L 535.421529 190.990625 
L 535.830768 190.255572 
L 536.035388 189.942437 
L 536.240008 189.90024 
L 536.444627 190.129799 
L 536.853867 191.405446 
L 537.467726 193.668446 
L 537.876965 194.344131 
L 538.081585 194.48701 
L 538.286205 194.431566 
L 539.104684 193.27807 
L 539.513923 193.382643 
L 539.718543 193.298439 
L 540.127782 192.767458 
L 540.537022 191.663655 
L 541.150881 189.633375 
L 541.96936 188.321299 
L 542.992459 185.586554 
L 543.810937 183.535428 
L 544.015557 183.404038 
L 544.424797 183.594687 
L 544.834036 184.02296 
L 545.038656 183.976316 
L 545.243276 183.472217 
L 545.652515 180.871518 
L 546.061754 177.622859 
L 546.266374 176.664305 
L 546.470994 176.513775 
L 546.675614 177.262704 
L 547.494093 183.654723 
L 548.312571 189.766327 
L 548.517191 190.268997 
L 548.721811 190.096202 
L 549.54029 187.680546 
L 549.74491 187.917016 
L 550.768008 190.713966 
L 550.972628 190.592647 
L 551.381867 189.742261 
L 551.586487 189.60934 
L 551.791107 189.765144 
L 552.404966 190.577886 
L 552.609586 190.510698 
L 553.632684 188.979492 
L 554.041924 188.58928 
L 554.246544 188.175201 
L 555.474262 184.482454 
L 555.883501 184.031149 
L 556.088121 184.141968 
L 556.497361 185.135122 
L 556.9066 186.708797 
L 557.520459 189.601563 
L 557.929699 190.426201 
L 558.134318 190.465386 
L 558.543558 190.167818 
L 558.952797 189.627835 
L 559.771276 189.135956 
L 560.180516 188.019179 
L 560.998995 185.60149 
L 561.408234 185.068379 
L 561.612854 185.130016 
L 561.817473 185.4542 
L 562.635952 187.69286 
L 562.840572 187.544021 
L 563.249812 186.457047 
L 563.863671 184.741809 
L 564.06829 184.519863 
L 564.27291 184.620916 
L 564.47753 185.083515 
L 564.886769 187.118067 
L 565.500629 191.088286 
L 565.909868 192.646801 
L 566.319107 193.454309 
L 566.523727 193.372044 
L 566.932967 192.250808 
L 568.160685 188.584528 
L 568.365305 188.652296 
L 568.569924 189.042974 
L 569.183784 191.013056 
L 569.388403 191.175336 
L 569.797643 190.930099 
L 570.002263 191.019763 
L 570.411502 191.583858 
L 570.616122 191.553896 
L 570.820741 191.079154 
L 571.63922 187.971428 
L 571.84384 187.90546 
L 572.04846 188.155011 
L 572.457699 188.983489 
L 572.662319 189.085202 
L 572.866939 188.75056 
L 573.685418 185.726908 
L 573.890037 185.738568 
L 574.094657 186.18224 
L 575.117756 189.514705 
L 575.322375 189.668522 
L 575.731615 189.597691 
L 576.345474 189.290234 
L 577.163953 188.769723 
L 577.368573 188.874396 
L 577.777812 189.755355 
L 578.187052 190.931162 
L 578.596291 191.390281 
L 579.41477 191.557019 
L 580.028629 192.829385 
L 580.233249 192.880218 
L 580.437869 192.402347 
L 581.460967 187.991272 
L 581.870207 187.943651 
L 582.484066 188.101145 
L 582.893305 187.695463 
L 583.097925 187.471625 
L 583.302545 187.47503 
L 583.507164 187.867345 
L 584.121024 189.977645 
L 584.325643 190.033292 
L 584.530263 189.582836 
L 585.553362 186.197654 
L 586.167221 184.636625 
L 586.371841 184.403458 
L 586.57646 184.524011 
L 586.78108 185.067818 
L 587.394939 188.210323 
L 588.008798 191.074817 
L 588.213418 191.288118 
L 588.418038 191.098648 
L 589.441137 189.160568 
L 589.850376 189.071526 
L 590.054996 189.16621 
L 590.259615 189.471002 
L 590.668855 190.971767 
L 591.282714 194.270794 
L 591.487334 194.727614 
L 591.691954 194.722777 
L 592.101193 194.455831 
L 592.510432 194.500045 
L 592.715052 194.231778 
L 593.533531 192.368061 
L 593.738151 192.225468 
L 593.942771 192.252575 
L 594.55663 192.721674 
L 594.761249 192.578204 
L 595.170489 191.508096 
L 595.579728 190.219903 
L 595.784348 189.923451 
L 595.988968 189.88483 
L 596.602827 190.350925 
L 597.216686 190.918276 
L 597.421306 190.83927 
L 598.239785 189.914794 
L 598.649024 190.127721 
L 599.672123 191.08243 
L 600.081362 191.159617 
L 600.490602 191.171844 
L 600.695222 191.467327 
L 601.309081 192.899455 
L 602.12756 193.827974 
L 602.332179 193.798419 
L 602.536799 193.410624 
L 602.946039 191.647306 
L 603.559898 189.113917 
L 603.969137 188.30669 
L 604.378377 187.785103 
L 604.787616 187.032274 
L 604.992236 186.915086 
L 605.196856 187.110417 
L 606.015334 188.663538 
L 606.219954 188.522304 
L 607.038433 187.175698 
L 607.243053 187.25101 
L 608.061532 188.79101 
L 608.880011 189.164706 
L 609.28925 190.067331 
L 609.69849 191.009999 
L 609.903109 191.263016 
L 610.107729 191.269098 
L 610.516968 190.598393 
L 610.721588 190.253959 
L 610.926208 190.201653 
L 611.130828 190.539267 
L 612.358546 193.924856 
L 612.767785 194.361017 
L 613.381645 195.492395 
L 613.586264 195.407511 
L 613.790884 194.898438 
L 614.200123 192.947485 
L 614.813983 189.772861 
L 615.632462 187.129103 
L 615.837081 186.83576 
L 616.041701 186.906721 
L 616.246321 187.37175 
L 617.269419 191.83876 
L 618.087898 195.042073 
L 618.292518 195.067056 
L 618.497138 194.495503 
L 619.110997 191.807817 
L 619.315617 191.530229 
L 619.520236 191.547564 
L 619.929476 191.90941 
L 620.338715 192.404645 
L 620.543335 192.458533 
L 620.747955 192.242028 
L 621.361814 190.919916 
L 621.566434 190.962272 
L 621.771053 191.295891 
L 622.180293 192.757909 
L 622.794152 195.868643 
L 622.998772 196.231714 
L 623.203391 196.093251 
L 623.408011 195.52691 
L 623.817251 193.378323 
L 624.22649 191.179437 
L 624.63573 190.227313 
L 624.840349 190.317203 
L 625.863448 191.930308 
L 626.068068 191.758912 
L 626.477307 190.898903 
L 626.886547 189.972899 
L 627.091166 189.976415 
L 627.500406 190.740801 
L 628.114265 191.747466 
L 628.523504 192.24823 
L 628.728124 192.277135 
L 629.751223 191.753198 
L 630.160462 191.839465 
L 630.569702 191.945162 
L 630.774321 191.718436 
L 631.388181 190.672318 
L 631.5928 190.675811 
L 632.00204 191.247079 
L 632.206659 191.575907 
L 632.411279 191.654157 
L 632.615899 191.348221 
L 633.025138 189.838285 
L 633.843617 186.262566 
L 634.048237 185.888504 
L 634.252857 185.863012 
L 634.662096 186.512997 
L 635.480575 187.881742 
L 635.889815 188.435968 
L 636.299054 189.547418 
L 636.708293 190.744144 
L 637.936012 192.532693 
L 638.140632 192.324828 
L 638.754491 191.317527 
L 639.16373 190.697865 
L 639.777589 189.090918 
L 639.982209 188.897591 
L 640.186829 189.000483 
L 640.596068 189.483948 
L 640.800688 189.559805 
L 641.209927 189.403908 
L 641.414547 189.482367 
L 641.619167 189.871747 
L 642.233026 191.653962 
L 643.256125 193.162566 
L 643.460744 192.993593 
L 643.869984 191.970188 
L 644.483843 189.992734 
L 644.688463 189.720564 
L 644.893083 189.692417 
L 645.506942 190.352893 
L 645.711561 190.29297 
L 646.120801 189.753088 
L 646.73466 188.665726 
L 646.93928 188.554355 
L 647.1439 188.697473 
L 647.553139 189.668323 
L 647.962378 190.563534 
L 648.166998 190.468585 
L 648.780857 189.570175 
L 648.985477 189.669778 
L 649.394716 190.490962 
L 651.031674 195.011035 
L 651.236294 195.03605 
L 651.440914 194.619715 
L 652.054773 191.660579 
L 652.668632 189.178142 
L 652.873252 188.907359 
L 653.691731 188.594591 
L 654.10097 187.7753 
L 654.51021 186.573006 
L 654.714829 186.274217 
L 654.919449 186.337136 
L 655.328689 187.376763 
L 655.737928 188.713073 
L 655.942548 189.081134 
L 656.147167 189.116736 
L 656.556407 188.502347 
L 657.170266 187.379534 
L 657.374886 187.520059 
L 657.784125 188.802912 
L 658.397984 191.023727 
L 659.011844 192.726427 
L 659.216463 192.960033 
L 659.421083 192.905234 
L 660.239562 191.926759 
L 660.648801 190.720228 
L 661.46728 187.282553 
L 661.87652 186.512167 
L 662.08114 186.50006 
L 662.285759 186.804174 
L 663.104238 189.213433 
L 663.513478 190.471483 
L 663.718097 190.771668 
L 663.922717 190.686302 
L 664.127337 190.247579 
L 664.536576 188.408104 
L 665.355055 183.93051 
L 665.764295 182.92399 
L 666.173534 182.415243 
L 666.378154 182.417839 
L 666.787393 183.005422 
L 667.196633 183.544825 
L 667.401252 183.484382 
L 668.015112 182.692866 
L 668.219731 182.788057 
L 669.03821 184.194933 
L 669.24283 184.134108 
L 670.061309 182.812833 
L 670.265929 182.856776 
L 670.470548 183.236105 
L 671.493647 186.476153 
L 671.698267 186.218764 
L 672.107506 185.390758 
L 672.312126 185.354095 
L 673.539844 187.292059 
L 673.949084 188.220362 
L 674.153703 188.221565 
L 674.562943 187.225535 
L 674.972182 185.81851 
L 675.995281 181.54474 
L 676.60914 179.722736 
L 676.81376 179.534716 
L 677.01838 179.763027 
L 677.427619 181.484324 
L 678.041478 184.138938 
L 679.064577 187.225509 
L 679.269197 187.34653 
L 679.883056 186.764412 
L 680.087676 186.864178 
L 680.496915 187.408325 
L 680.701535 187.470715 
L 681.110774 186.94093 
L 681.315394 186.646538 
L 681.520014 186.582923 
L 682.133873 187.258675 
L 682.338493 187.094838 
L 683.156971 185.434422 
L 683.361591 185.755166 
L 683.770831 186.841889 
L 684.58931 188.117799 
L 685.407788 190.153778 
L 686.226267 191.003443 
L 686.430887 191.202596 
L 686.635507 191.585973 
L 687.044746 193.046488 
L 687.453986 194.476067 
L 687.658605 194.731443 
L 687.863225 194.606674 
L 688.272465 193.505561 
L 689.090943 191.302078 
L 689.295563 190.86815 
L 689.500183 190.791919 
L 689.704803 191.26697 
L 690.523282 195.094531 
L 691.54638 196.976895 
L 691.751 196.930926 
L 691.95562 196.711161 
L 692.364859 195.665491 
L 693.183338 192.686398 
L 694.001817 192.032448 
L 694.411056 191.096785 
L 695.024916 189.007584 
L 695.229535 188.693484 
L 695.434155 188.671162 
L 695.843394 188.908775 
L 696.252634 189.545368 
L 696.661873 190.107953 
L 696.866493 190.080444 
L 697.684972 189.490461 
L 697.889592 189.701943 
L 698.298831 190.653837 
L 698.91269 192.604165 
L 699.11731 192.882382 
L 699.32193 192.901963 
L 699.52655 192.715076 
L 699.935789 191.919348 
L 700.345028 191.019612 
L 700.549648 190.775925 
L 700.754268 190.79079 
L 701.163507 191.484561 
L 701.777367 192.963493 
L 702.186606 193.359517 
L 702.595845 193.676693 
L 703.005085 194.077287 
L 703.209705 194.095123 
L 703.618944 193.751247 
L 705.460522 191.675488 
L 705.869761 192.017456 
L 706.48362 192.558452 
L 706.68824 192.622465 
L 707.506719 192.258985 
L 707.711339 192.083736 
L 708.120578 191.016901 
L 708.529818 189.789989 
L 708.939057 189.081398 
L 710.166775 187.73341 
L 710.576015 187.006851 
L 711.394494 184.905703 
L 711.599113 184.790003 
L 711.803733 184.999052 
L 712.622212 186.699565 
L 712.826832 186.716743 
L 713.031452 186.471786 
L 713.645311 185.389456 
L 713.84993 185.513167 
L 714.25917 186.733285 
L 714.668409 187.858474 
L 714.873029 187.988665 
L 715.077649 187.858154 
L 715.486888 187.106738 
L 715.896128 186.28925 
L 716.509987 185.739085 
L 716.714607 185.722041 
L 717.123846 186.198634 
L 717.533086 186.974309 
L 718.146945 188.385273 
L 718.351564 188.512893 
L 718.556184 188.289043 
L 719.170043 186.931584 
L 719.374663 186.77559 
L 719.579283 186.877273 
L 719.988522 187.250642 
L 720.602381 186.96004 
L 720.807001 187.301713 
L 721.42086 188.835566 
L 722.239339 189.810925 
L 722.648579 190.924908 
L 723.057818 192.32463 
L 723.262438 192.625029 
L 723.467058 192.506116 
L 724.285537 190.542672 
L 724.490156 190.65305 
L 725.104015 191.384713 
L 725.308635 191.162865 
L 725.922494 190.026938 
L 726.331734 189.854132 
L 726.536353 189.509503 
L 727.354832 187.043516 
L 727.559452 186.960054 
L 727.764072 187.198395 
L 728.377931 188.328147 
L 729.19641 188.968161 
L 729.40103 189.102713 
L 729.605649 189.437945 
L 730.014889 191.071011 
L 730.424128 192.857585 
L 731.242607 194.759743 
L 731.651847 195.426071 
L 731.856466 195.6306 
L 732.061086 195.602277 
L 732.265706 195.165608 
L 732.674945 193.143056 
L 733.084185 191.132077 
L 733.288804 190.778975 
L 733.493424 191.017284 
L 734.107283 192.870489 
L 734.311903 193.015376 
L 734.721143 192.975728 
L 735.335002 193.438025 
L 735.539621 193.367817 
L 735.744241 193.035146 
L 736.97196 189.76113 
L 737.176579 189.905455 
L 738.404298 191.884866 
L 738.608917 191.731947 
L 739.222777 190.693158 
L 739.427396 190.610643 
L 739.632016 190.831937 
L 740.041255 192.287957 
L 740.450495 194.00758 
L 740.655115 194.391291 
L 740.859734 194.353273 
L 741.678213 193.144982 
L 742.087453 191.051284 
L 742.701312 187.490653 
L 743.110551 185.579063 
L 743.315171 185.080382 
L 743.519791 185.125609 
L 743.92903 186.455732 
L 744.542889 188.430646 
L 745.770608 191.184452 
L 746.589087 194.449728 
L 746.793706 194.777407 
L 746.998326 194.679775 
L 747.202946 194.124484 
L 748.021425 190.820596 
L 748.226045 190.822305 
L 748.430664 190.95359 
L 748.635284 190.916523 
L 748.839904 190.588057 
L 749.863002 188.009469 
L 750.476862 188.380624 
L 750.886101 189.094153 
L 751.29534 190.425508 
L 752.113819 193.619369 
L 752.318439 193.901839 
L 752.523059 193.786212 
L 752.727679 193.226991 
L 753.750777 188.309912 
L 754.773876 182.62983 
L 754.978496 182.020775 
L 755.183115 181.854791 
L 755.387735 182.198325 
L 755.796974 184.180336 
L 756.615453 189.241781 
L 756.820073 189.555494 
L 757.024693 189.483358 
L 758.047791 188.319119 
L 758.661651 188.436256 
L 758.86627 188.30404 
L 759.27551 187.588759 
L 759.889369 186.36871 
L 760.298608 185.98174 
L 760.503228 186.061793 
L 761.321707 187.219919 
L 761.730947 187.618803 
L 762.140186 188.590652 
L 762.958665 190.826201 
L 763.163285 190.946082 
L 763.777144 190.722012 
L 764.800242 190.266234 
L 765.209482 190.355941 
L 765.823341 190.03708 
L 766.23258 190.454991 
L 766.4372 190.714237 
L 766.64182 190.788868 
L 766.84644 190.602756 
L 767.255679 189.615447 
L 767.869538 187.403349 
L 768.074158 187.217717 
L 768.483397 187.262381 
L 768.892637 187.212102 
L 769.301876 187.580125 
L 769.915736 188.781366 
L 770.324975 189.511398 
L 770.529595 189.522094 
L 770.938834 188.692429 
L 771.348074 187.86659 
L 771.757313 187.577638 
L 771.961933 187.709184 
L 772.371172 188.677041 
L 772.780412 189.643858 
L 772.985031 189.827534 
L 773.189651 189.794849 
L 773.394271 189.525594 
L 774.00813 188.380627 
L 774.21275 188.513789 
L 774.621989 189.650655 
L 775.031229 190.559953 
L 775.235848 190.341656 
L 775.645088 188.655408 
L 776.054327 187.173853 
L 776.258947 186.995862 
L 777.486665 187.67139 
L 778.100525 188.631149 
L 779.328243 189.089823 
L 779.532863 188.972551 
L 779.737482 189.005098 
L 779.942102 189.380109 
L 780.555961 191.573772 
L 780.760581 191.618286 
L 781.169821 190.490841 
L 781.78368 188.563808 
L 781.988299 188.2908 
L 782.397539 188.221993 
L 782.806778 188.452989 
L 783.420638 189.234042 
L 784.443736 191.002307 
L 784.648356 190.763437 
L 785.057595 189.308098 
L 786.080694 184.128662 
L 786.285314 183.620975 
L 786.489933 183.433525 
L 786.694553 183.553533 
L 787.308412 184.735567 
L 788.126891 186.43394 
L 788.94537 188.957473 
L 789.763849 191.459126 
L 790.173089 192.348544 
L 790.582328 192.504413 
L 790.786948 192.593571 
L 791.196187 193.195952 
L 792.219286 195.118909 
L 792.423906 195.325923 
L 792.628525 195.21537 
L 793.037765 194.22002 
L 793.651624 191.474696 
L 794.060863 190.077236 
L 794.265483 189.916432 
L 794.470103 190.195086 
L 795.288582 192.465183 
L 795.493201 192.470221 
L 796.31168 191.775481 
L 796.72092 191.025373 
L 796.92554 190.890988 
L 797.130159 191.065783 
L 797.539399 191.678178 
L 797.744018 191.614027 
L 798.153258 190.714529 
L 798.562497 189.731278 
L 798.767117 189.45419 
L 798.971737 189.450538 
L 799.176357 189.771448 
L 800.404075 193.00744 
L 800.608695 192.933847 
L 801.017934 192.417143 
L 801.631793 191.495679 
L 802.245652 190.946858 
L 802.654892 189.891604 
L 803.064131 188.807919 
L 803.268751 188.653007 
L 803.473371 188.755585 
L 804.08723 189.386955 
L 804.29185 189.252163 
L 804.905709 188.323042 
L 805.110329 188.429694 
L 805.314948 188.968472 
L 805.928807 191.593669 
L 806.338047 192.164129 
L 806.747286 192.617594 
L 807.156526 193.095872 
L 807.361146 192.912845 
L 808.384244 191.092649 
L 808.793484 190.664019 
L 808.998103 190.740825 
L 809.407343 191.559454 
L 809.816582 192.291604 
L 810.021202 192.287673 
L 810.430441 191.810202 
L 810.839681 190.822629 
L 811.86278 187.276934 
L 812.067399 187.118066 
L 812.272019 187.218267 
L 813.090498 188.386472 
L 813.704357 189.500647 
L 814.113597 189.734222 
L 814.522836 189.566302 
L 814.932075 188.93565 
L 815.341315 188.204481 
L 815.955174 187.58362 
L 816.364414 186.483795 
L 816.773653 185.288767 
L 816.978273 185.061774 
L 817.182892 185.121699 
L 817.592132 185.975834 
L 818.001371 186.87965 
L 818.410611 187.171763 
L 818.615231 187.114549 
L 818.81985 186.777006 
L 819.638329 184.584267 
L 819.842949 184.585659 
L 820.661428 185.724296 
L 821.070667 186.531404 
L 822.093766 189.929279 
L 822.298386 189.842195 
L 823.116865 187.952274 
L 823.321484 188.110713 
L 824.139963 189.302529 
L 824.344583 189.106135 
L 824.753822 188.428928 
L 824.958442 188.338538 
L 825.572301 188.573088 
L 825.776921 188.703744 
L 825.981541 189.005371 
L 826.39078 190.334279 
L 826.80002 191.509708 
L 827.004639 191.62523 
L 827.413879 191.540576 
L 827.618499 191.756899 
L 828.232358 192.741808 
L 829.050837 193.014759 
L 829.460076 193.93389 
L 829.869316 194.770451 
L 830.278555 195.266062 
L 830.892414 196.266654 
L 831.097034 196.149721 
L 831.710893 195.126951 
L 832.324752 193.920958 
L 832.529372 193.788871 
L 833.347851 193.783954 
L 833.552471 193.380028 
L 833.96171 191.516119 
L 834.37095 189.615946 
L 835.189428 187.327428 
L 835.803288 184.856827 
L 836.007907 184.49096 
L 836.212527 184.657944 
L 837.031006 187.40196 
L 837.235626 187.409711 
L 838.054105 186.415376 
L 838.258724 186.389392 
L 838.872584 186.587162 
L 839.281823 186.55839 
L 839.895682 186.747122 
L 840.304922 186.394637 
L 840.714161 185.847388 
L 840.918781 185.864201 
L 841.123401 186.231461 
L 842.146499 189.439972 
L 842.760358 190.254493 
L 842.964978 190.390034 
L 843.169598 190.384427 
L 843.374217 190.178055 
L 843.988077 189.056296 
L 844.192696 189.016371 
L 844.806556 189.463924 
L 845.011175 189.220462 
L 846.443513 186.113107 
L 846.648133 186.141494 
L 846.852753 186.383079 
L 848.080471 188.804088 
L 848.489711 189.405688 
L 848.69433 189.517484 
L 849.10357 189.363939 
L 849.922049 188.779934 
L 850.331288 187.422777 
L 850.740528 186.081601 
L 850.945147 185.912724 
L 851.149767 186.069982 
L 851.559007 186.83119 
L 852.991345 190.423865 
L 853.400584 191.313289 
L 853.809824 192.301529 
L 854.014443 192.519795 
L 854.219063 192.434044 
L 854.423683 191.961572 
L 855.242162 188.649873 
L 855.446781 188.47781 
L 855.651401 188.652708 
L 856.060641 189.787791 
L 856.879119 192.953355 
L 857.083739 193.219144 
L 857.288359 193.229179 
L 857.902218 192.851995 
L 858.311458 192.745616 
L 858.720697 192.158597 
L 859.539176 190.75586 
L 860.153035 189.028219 
L 860.357655 188.639627 
L 860.562275 188.504499 
L 860.766894 188.71338 
L 861.176134 189.811168 
L 862.199232 193.109853 
L 862.403852 193.107706 
L 862.608472 192.678577 
L 863.83619 188.150232 
L 864.24543 186.989639 
L 864.450049 187.017379 
L 864.859289 187.621924 
L 865.473148 188.973725 
L 866.087007 190.373074 
L 866.496247 190.837706 
L 866.700866 190.801459 
L 866.905486 190.481974 
L 868.133204 186.929567 
L 868.337824 186.799228 
L 868.542444 186.949762 
L 869.156303 188.107683 
L 869.974782 188.379971 
L 870.384021 189.114638 
L 870.588641 189.215932 
L 870.793261 189.038113 
L 871.40712 188.11024 
L 871.81636 187.950322 
L 872.430219 188.086736 
L 873.044078 187.419236 
L 873.453317 187.332696 
L 873.657937 187.068135 
L 874.271796 185.736749 
L 874.476416 185.721072 
L 874.681036 185.856877 
L 874.885655 185.807164 
L 875.294895 184.793094 
L 876.113374 182.676084 
L 876.317994 182.626193 
L 876.522613 182.968807 
L 877.341092 185.827838 
L 877.545712 185.873732 
L 877.750332 185.441477 
L 878.159571 183.606796 
L 879.18267 178.573848 
L 879.796529 176.866486 
L 880.615008 174.736343 
L 880.819627 174.725879 
L 881.228867 175.624438 
L 881.638106 176.495072 
L 882.047346 176.871962 
L 882.251966 176.747919 
L 883.070444 175.727274 
L 884.093543 174.583709 
L 884.298163 174.484261 
L 885.116642 173.395698 
L 885.525881 172.399162 
L 886.54898 168.677064 
L 886.7536 168.427119 
L 886.958219 168.515089 
L 887.981318 170.080985 
L 888.390557 170.122695 
L 889.413656 169.148453 
L 890.232135 167.680854 
L 890.436755 167.635041 
L 890.845994 167.976048 
L 891.664473 169.074089 
L 891.869093 168.820123 
L 892.278332 167.395646 
L 894.11991 158.232348 
L 894.529149 157.746076 
L 894.938389 157.279463 
L 895.961487 155.474177 
L 896.370727 154.48281 
L 896.779966 153.308598 
L 897.189206 152.69062 
L 897.393825 152.112958 
L 897.803065 149.516154 
L 899.030783 138.991938 
L 899.644642 134.735124 
L 900.463121 127.237796 
L 900.872361 122.049157 
L 901.2816 114.128386 
L 901.895459 101.469646 
L 902.100079 100.31831 
L 902.304699 101.259084 
L 903.327797 113.01695 
L 903.737037 114.462858 
L 904.146276 115.153214 
L 904.555516 116.50295 
L 905.169375 118.873852 
L 905.373995 119.097986 
L 905.578614 118.947622 
L 905.987854 117.783554 
L 906.397093 116.712691 
L 906.806333 116.459893 
L 907.420192 116.229789 
L 907.829431 116.228047 
L 908.034051 115.885947 
L 908.64791 113.60445 
L 909.05715 112.307653 
L 909.26177 112.025007 
L 909.466389 112.056335 
L 909.875629 112.806954 
L 910.284868 114.333782 
L 910.898727 116.720028 
L 911.103347 116.87661 
L 911.307967 116.522332 
L 911.921826 114.301774 
L 912.126446 114.268075 
L 912.740305 115.370675 
L 912.944925 115.448811 
L 913.354164 115.391845 
L 913.558784 115.623796 
L 913.763404 116.262124 
L 914.377263 119.355613 
L 914.581882 119.650024 
L 914.786502 119.166464 
L 915.195742 116.415804 
L 916.21884 108.100784 
L 916.42346 107.895974 
L 916.62808 108.765274 
L 917.037319 113.242503 
L 917.651178 120.485482 
L 917.855798 120.973103 
L 918.060418 120.460149 
L 918.878897 115.94834 
L 919.288136 111.552387 
L 919.697376 102.298194 
L 920.106615 85.24296 
L 920.925094 41.918353 
L 921.129714 42.134366 
L 921.538953 55.767726 
L 922.152812 79.903882 
L 922.766671 95.090138 
L 923.380531 105.423953 
L 923.99439 111.592976 
L 924.812869 117.295964 
L 925.017488 117.83866 
L 925.222108 117.631706 
L 926.040587 114.591741 
L 926.859066 114.617949 
L 927.063686 114.862874 
L 927.677545 116.346164 
L 927.882165 116.476649 
L 928.086784 116.318187 
L 928.700644 115.421433 
L 928.905263 115.294556 
L 929.109883 115.330069 
L 929.314503 115.520848 
L 929.723742 116.471227 
L 930.542221 118.992495 
L 931.15608 119.840638 
L 931.769939 120.250929 
L 932.179179 120.694936 
L 933.202278 122.755308 
L 934.225376 127.26581 
L 934.429996 127.035004 
L 934.839235 125.149022 
L 935.248475 123.310213 
L 935.453095 122.883989 
L 936.066954 122.333203 
L 936.476193 120.780871 
L 936.885433 119.165768 
L 937.090052 118.837269 
L 937.499292 118.664251 
L 937.703912 118.651719 
L 937.908531 118.884153 
L 938.113151 119.517216 
L 938.52239 121.830277 
L 939.545489 128.199228 
L 939.750109 128.562797 
L 939.954729 128.58675 
L 940.773207 127.84308 
L 940.977827 128.049221 
L 941.387067 129.356856 
L 942.205546 132.651392 
L 943.024024 134.325285 
L 944.047123 138.023512 
L 944.251743 138.271466 
L 944.456363 138.320268 
L 944.865602 137.987072 
L 945.070222 137.804085 
L 945.274841 137.777134 
L 945.479461 137.958237 
L 945.888701 139.024944 
L 947.321039 144.333135 
L 948.753377 147.328274 
L 949.367236 147.602012 
L 949.571856 147.868417 
L 949.981095 149.160011 
L 950.594954 151.554437 
L 951.004194 152.48145 
L 951.413433 152.690659 
L 951.822673 152.598026 
L 952.027292 152.697434 
L 952.231912 153.111141 
L 953.255011 156.807975 
L 953.459631 156.955275 
L 953.86887 156.642393 
L 954.07349 156.519337 
L 954.278109 156.644081 
L 954.687349 157.615783 
L 955.096588 159.5323 
L 955.505828 161.664089 
L 955.710448 162.155474 
L 955.915067 162.110584 
L 956.528926 161.224871 
L 956.938166 161.504129 
L 958.165884 162.511951 
L 958.575124 163.345745 
L 960.007462 168.231468 
L 960.825941 169.849056 
L 961.23518 170.055683 
L 961.64442 170.068897 
L 962.462898 169.162968 
L 962.872138 169.307158 
L 963.690617 169.978742 
L 964.099856 170.679764 
L 964.713715 172.835206 
L 965.122955 174.071683 
L 965.327575 174.211815 
L 965.532194 174.018528 
L 966.350673 172.511197 
L 966.555293 172.456196 
L 966.964532 172.79697 
L 967.373772 173.577043 
L 967.783011 174.34875 
L 967.987631 174.419788 
L 968.192251 174.231948 
L 968.60149 173.080944 
L 969.215349 170.802112 
L 969.419969 170.454013 
L 969.624589 170.453904 
L 970.443068 171.159432 
L 970.852307 171.628823 
L 971.056927 171.442454 
L 971.875406 169.702529 
L 972.080026 169.629098 
L 972.284645 169.900239 
L 972.693885 171.276065 
L 973.103124 172.72294 
L 973.512364 173.225614 
L 973.716983 173.154286 
L 973.921603 172.830863 
L 974.740082 170.892796 
L 974.944702 171.134815 
L 975.763181 173.02625 
L 976.37704 173.889671 
L 976.786279 175.239148 
L 977.400139 177.636995 
L 977.809378 178.321009 
L 978.627857 178.527449 
L 979.241716 179.225913 
L 980.060195 180.536526 
L 980.264815 180.394025 
L 981.083294 178.798227 
L 981.287913 178.824673 
L 981.901773 179.23979 
L 982.106392 178.993731 
L 982.515632 177.789262 
L 983.129491 175.987455 
L 983.334111 175.857914 
L 983.53873 176.102625 
L 983.94797 177.652971 
L 984.357209 179.182564 
L 984.561829 179.261129 
L 984.766449 178.910098 
L 985.380308 176.692132 
L 985.789547 175.469245 
L 985.994167 175.149942 
L 986.198787 175.051076 
L 986.403407 175.283501 
L 986.812646 176.961846 
L 987.426505 180.576153 
L 987.631125 181.198793 
L 988.040364 181.580906 
L 988.449604 181.706592 
L 988.654224 181.635035 
L 988.858843 181.398998 
L 989.268083 180.241511 
L 989.677322 178.892572 
L 989.881942 178.614921 
L 990.291181 178.45046 
L 990.700421 177.611539 
L 991.10966 176.92205 
L 991.31428 176.854034 
L 991.5189 176.927211 
L 991.928139 177.458204 
L 992.746618 179.262829 
L 993.360477 181.273132 
L 993.565097 181.510395 
L 994.178956 181.44699 
L 994.792815 181.213996 
L 994.997435 181.505498 
L 995.406675 183.207506 
L 995.815914 184.861093 
L 996.429773 186.042895 
L 996.634393 186.108896 
L 997.043632 185.512612 
L 997.657491 184.701534 
L 998.066731 183.432564 
L 998.47597 182.0477 
L 998.68059 181.64711 
L 998.88521 181.57985 
L 999.08983 181.829127 
L 999.499069 182.979704 
L 999.908308 184.092908 
L 1000.112928 184.23955 
L 1000.317548 184.103991 
L 1001.136027 182.843249 
L 1001.340647 182.873853 
L 1001.749886 183.152557 
L 1002.159125 183.070476 
L 1002.977604 182.490383 
L 1003.796083 181.341874 
L 1004.000703 181.421241 
L 1004.205323 181.732905 
L 1004.819182 183.562407 
L 1005.228421 184.520149 
L 1005.842281 185.192748 
L 1006.25152 185.776725 
L 1007.274619 186.300687 
L 1007.479238 186.257769 
L 1007.683858 185.915809 
L 1008.502337 183.606279 
L 1008.706957 183.593756 
L 1009.525436 184.478629 
L 1009.730055 184.495992 
L 1009.934675 184.238813 
L 1010.548534 182.944881 
L 1010.753154 183.119622 
L 1011.367013 184.815598 
L 1011.776253 185.714737 
L 1011.980872 185.790009 
L 1012.185492 185.54892 
L 1012.594732 184.326805 
L 1013.003971 183.160126 
L 1013.208591 183.061912 
L 1013.82245 183.456398 
L 1014.02707 183.193719 
L 1014.640929 181.496045 
L 1015.664027 178.230632 
L 1015.868647 178.109409 
L 1016.073267 178.291179 
L 1016.482506 179.378589 
L 1017.096366 181.532602 
L 1017.300985 181.781168 
L 1017.505605 181.560126 
L 1018.324084 179.652451 
L 1018.528704 179.48404 
L 1018.733323 179.54647 
L 1019.142563 179.859372 
L 1019.961042 179.732467 
L 1020.165661 179.810306 
L 1020.574901 179.618371 
L 1020.98414 179.492257 
L 1021.39338 179.899704 
L 1022.007239 181.143556 
L 1022.621098 182.621267 
L 1023.030338 183.041756 
L 1023.234957 182.943748 
L 1023.848817 182.151283 
L 1024.053436 182.285718 
L 1024.258056 182.864953 
L 1025.076535 186.540395 
L 1025.281155 186.780102 
L 1025.895014 186.739774 
L 1026.304253 187.16352 
L 1026.918112 188.231316 
L 1027.122732 188.193147 
L 1027.327352 187.726234 
L 1028.350451 183.786808 
L 1028.96431 183.151705 
L 1029.168929 183.161328 
L 1029.782789 183.694017 
L 1030.396648 183.762877 
L 1030.805887 184.299577 
L 1031.215127 184.697939 
L 1031.624366 184.406422 
L 1032.647465 183.493502 
L 1032.852085 183.558979 
L 1033.465944 184.313863 
L 1034.079803 184.280454 
L 1034.489042 184.58838 
L 1034.693662 184.586587 
L 1034.898282 184.344257 
L 1035.307521 183.267317 
L 1036.126 180.754788 
L 1036.33062 180.488514 
L 1036.53524 180.456118 
L 1036.739859 180.711623 
L 1037.967578 183.226769 
L 1038.376817 183.76125 
L 1038.581437 183.792708 
L 1038.990676 183.391404 
L 1039.399916 183.026623 
L 1039.809155 182.712908 
L 1040.423014 182.115636 
L 1040.627634 182.071732 
L 1040.832254 182.165656 
L 1041.446113 182.978642 
L 1041.855352 183.951308 
L 1042.878451 187.783148 
L 1043.49231 187.919261 
L 1043.90155 188.769293 
L 1044.106169 189.204609 
L 1044.310789 189.282172 
L 1044.515409 188.933854 
L 1045.333888 186.123024 
L 1045.538508 186.114792 
L 1045.947747 186.846406 
L 1046.152367 186.959617 
L 1046.356986 186.772179 
L 1046.970846 185.605868 
L 1047.175465 185.503532 
L 1047.789325 185.904019 
L 1047.993944 185.810251 
L 1048.403184 185.206154 
L 1049.221663 183.75366 
L 1049.426282 183.794945 
L 1049.835522 184.614375 
L 1050.449381 186.181603 
L 1050.85862 188.024699 
L 1051.47248 191.337556 
L 1051.677099 191.776733 
L 1051.881719 191.887342 
L 1052.290959 191.738272 
L 1052.700198 191.140557 
L 1053.314057 190.158923 
L 1054.132536 189.205128 
L 1054.337156 189.195263 
L 1054.951015 189.719918 
L 1055.360254 190.199365 
L 1055.974114 191.148291 
L 1056.383353 191.36874 
L 1056.792593 191.232485 
L 1056.997212 191.154791 
L 1057.406452 191.362906 
L 1057.611071 191.481137 
L 1057.815691 191.440862 
L 1058.63417 190.86896 
L 1059.657269 190.320384 
L 1060.680367 188.810871 
L 1061.089607 188.398593 
L 1061.498846 187.930651 
L 1061.908086 187.886684 
L 1062.112705 188.008755 
L 1062.317325 188.287243 
L 1062.726565 189.701631 
L 1063.340424 192.269525 
L 1063.545044 192.62787 
L 1063.749663 192.694902 
L 1064.568142 192.378844 
L 1065.182001 192.403089 
L 1065.795861 191.949859 
L 1066.00048 192.083086 
L 1066.40972 192.845579 
L 1067.023579 194.059373 
L 1067.228199 194.15458 
L 1067.637438 193.921218 
L 1068.046678 193.317082 
L 1068.455917 192.277823 
L 1069.069776 190.557493 
L 1069.479016 189.646468 
L 1070.297495 186.935949 
L 1070.502114 186.861911 
L 1070.911354 187.447325 
L 1071.729833 188.689556 
L 1072.139072 189.810284 
L 1072.343692 190.093903 
L 1072.752931 190.192105 
L 1073.57141 190.864008 
L 1074.185269 190.282023 
L 1074.389889 190.470206 
L 1074.799128 191.220229 
L 1075.003748 191.355012 
L 1075.208368 191.237282 
L 1075.412988 190.873359 
L 1076.845326 186.627385 
L 1077.049945 186.459974 
L 1077.254565 186.60786 
L 1077.663805 187.801125 
L 1078.277664 190.224692 
L 1078.686903 190.858092 
L 1078.891523 190.965142 
L 1079.096143 190.942731 
L 1079.300762 190.702139 
L 1080.119241 189.121053 
L 1080.323861 189.150069 
L 1080.733101 189.901097 
L 1081.14234 190.704915 
L 1081.34696 190.865629 
L 1081.551579 190.843169 
L 1081.960819 190.373153 
L 1082.370058 189.845779 
L 1082.983918 189.434058 
L 1083.597777 189.369767 
L 1083.802396 189.136319 
L 1084.620875 187.534706 
L 1084.825495 187.688445 
L 1085.234735 188.487774 
L 1085.439354 188.619807 
L 1085.848594 188.258594 
L 1086.257833 187.883964 
L 1087.485552 187.168126 
L 1087.690171 187.299289 
L 1089.327129 190.379613 
L 1089.531749 190.397734 
L 1089.736369 190.527855 
L 1090.145608 191.446347 
L 1090.554847 192.233406 
L 1090.759467 192.339149 
L 1090.964087 192.234802 
L 1091.373326 191.468554 
L 1092.396425 188.936154 
L 1092.601045 188.764417 
L 1092.805664 188.861583 
L 1093.419524 189.665706 
L 1094.033383 190.832861 
L 1094.238003 190.861585 
L 1094.442622 190.487635 
L 1094.851862 188.633299 
L 1095.261101 186.654876 
L 1095.465721 186.198635 
L 1095.670341 186.174485 
L 1096.07958 187.017445 
L 1096.48882 187.808869 
L 1096.693439 187.938556 
L 1097.102679 187.693502 
L 1097.511918 187.510249 
L 1098.330397 187.607711 
L 1098.535017 187.550145 
L 1098.944256 186.945128 
L 1099.353496 186.253951 
L 1099.558115 186.21417 
L 1099.762735 186.464531 
L 1100.171975 187.334238 
L 1100.376594 187.517017 
L 1100.581214 187.31041 
L 1101.604313 184.965683 
L 1101.808932 185.010492 
L 1102.013552 185.300708 
L 1102.422792 186.509642 
L 1103.036651 189.057483 
L 1103.65051 191.969903 
L 1104.264369 193.566067 
L 1104.878228 194.869671 
L 1105.696707 197.455545 
L 1106.310566 199.454224 
L 1106.515186 199.588537 
L 1106.719806 199.374621 
L 1106.924426 198.83231 
L 1107.333665 196.849047 
L 1108.356764 190.877299 
L 1108.561383 190.243469 
L 1108.766003 190.117266 
L 1109.175243 190.60634 
L 1109.379862 190.594419 
L 1110.402961 189.276787 
L 1110.607581 189.6695 
L 1111.22144 191.403 
L 1111.42606 191.457265 
L 1111.835299 191.004317 
L 1112.244538 190.557015 
L 1112.449158 190.594182 
L 1112.858398 190.99159 
L 1113.063017 190.975938 
L 1113.472257 190.404665 
L 1114.495355 188.634495 
L 1114.699975 188.510907 
L 1114.904595 188.533352 
L 1115.313834 188.881202 
L 1115.723074 189.522179 
L 1116.336933 190.70019 
L 1116.541553 190.802574 
L 1116.950792 190.483641 
L 1117.155412 190.329826 
L 1117.973891 190.34665 
L 1118.79237 189.332104 
L 1119.406229 188.79198 
L 1119.815468 187.764732 
L 1121.043187 184.017943 
L 1121.247806 183.932679 
L 1121.452426 183.994954 
L 1122.270905 184.826864 
L 1122.475525 184.689239 
L 1122.884764 183.947204 
L 1123.498623 182.931499 
L 1123.703243 182.82536 
L 1123.907863 182.844694 
L 1124.112483 182.995699 
L 1124.317102 183.359952 
L 1124.726342 185.107038 
L 1125.340201 188.233702 
L 1125.544821 188.730345 
L 1125.74944 188.907991 
L 1126.3633 188.956166 
L 1128.000257 190.350282 
L 1128.409497 190.482517 
L 1128.818736 190.881721 
L 1129.637215 191.218791 
L 1130.251074 191.990634 
L 1131.274173 193.91571 
L 1131.478793 193.908368 
L 1132.092652 193.576921 
L 1132.297272 193.540038 
L 1132.501891 193.268659 
L 1132.706511 192.448044 
L 1133.115751 188.958748 
L 1133.52499 185.362023 
L 1133.72961 184.534228 
L 1133.93423 184.517533 
L 1134.752708 186.603031 
L 1134.957328 186.556375 
L 1135.161948 186.638618 
L 1135.571187 187.601353 
L 1135.775807 188.050742 
L 1135.980427 188.178168 
L 1136.594286 187.802562 
L 1137.003525 187.953642 
L 1137.412765 188.497677 
L 1138.026624 189.705526 
L 1138.231244 189.766959 
L 1138.435864 189.554073 
L 1138.845103 188.714242 
L 1139.254342 187.268251 
L 1140.072821 183.718091 
L 1140.482061 182.745224 
L 1140.686681 182.705936 
L 1140.8913 182.999348 
L 1141.30054 184.417158 
L 1142.732878 190.450202 
L 1142.937498 190.629074 
L 1143.755976 190.473451 
L 1144.165216 190.650505 
L 1144.369836 190.536783 
L 1144.983695 189.73844 
L 1145.188315 189.823022 
L 1145.802174 190.523434 
L 1146.006793 190.282742 
L 1146.416033 188.777769 
L 1146.825272 187.365979 
L 1147.029892 187.180834 
L 1147.234512 187.320407 
L 1147.848371 188.35817 
L 1148.25761 189.287109 
L 1148.66685 191.171519 
L 1149.280709 194.438542 
L 1149.485329 194.97479 
L 1149.689949 195.115908 
L 1149.894568 194.853489 
L 1150.303808 193.447845 
L 1150.713047 191.960614 
L 1152.350005 188.92576 
L 1152.554625 188.947248 
L 1152.963864 189.343972 
L 1153.577723 190.002502 
L 1154.396202 190.285507 
L 1155.214681 191.184773 
L 1155.419301 191.118752 
L 1156.23778 190.31734 
L 1156.442399 190.356583 
L 1156.647019 190.616674 
L 1157.260878 192.079415 
L 1157.465498 192.227957 
L 1157.670118 192.062569 
L 1158.079357 191.507355 
L 1158.693216 191.255003 
L 1159.716315 189.280601 
L 1160.330174 187.723458 
L 1160.944033 186.014975 
L 1161.148653 185.880461 
L 1161.353273 185.977344 
L 1161.762512 186.338861 
L 1161.967132 186.181587 
L 1162.785611 184.361141 
L 1162.990231 184.336488 
L 1163.19485 184.529211 
L 1163.60409 185.627253 
L 1164.217949 187.730059 
L 1164.422569 188.021596 
L 1164.627189 188.06047 
L 1164.831808 187.892326 
L 1165.650287 186.419378 
L 1166.059527 187.109057 
L 1166.264146 187.42845 
L 1166.673386 187.525097 
L 1166.878006 187.780741 
L 1167.287245 188.743738 
L 1167.491865 188.946224 
L 1167.696484 188.773119 
L 1168.310344 187.651738 
L 1168.514963 187.64717 
L 1168.719583 187.864416 
L 1168.924203 188.353956 
L 1169.333442 190.316863 
L 1170.151921 195.388209 
L 1170.561161 196.432913 
L 1170.76578 196.453299 
L 1170.9704 196.202098 
L 1171.37964 195.08817 
L 1171.993499 193.206666 
L 1172.402738 192.208136 
L 1172.607358 191.946572 
L 1172.811978 191.981425 
L 1173.425837 192.958028 
L 1173.630457 192.849793 
L 1173.835076 192.250119 
L 1174.448935 189.533602 
L 1174.653555 189.171427 
L 1174.858175 189.216661 
L 1175.062795 189.628503 
L 1175.881274 192.147431 
L 1176.085893 191.952992 
L 1176.699752 190.374563 
L 1177.722851 187.02652 
L 1178.33671 186.563506 
L 1178.74595 185.41134 
L 1179.155189 184.521812 
L 1179.359809 184.547934 
L 1179.769048 185.064946 
L 1180.178288 186.317526 
L 1181.201386 190.315783 
L 1181.610626 191.101828 
L 1181.815246 191.262369 
L 1182.224485 191.20315 
L 1182.633725 191.117394 
L 1183.452203 191.462405 
L 1184.066063 191.314721 
L 1184.475302 191.438117 
L 1184.679922 191.272399 
L 1184.884542 190.852879 
L 1184.884542 190.852879 
" clip-path="url(#pc5853decac)" style="fill: none; stroke: #000000; stroke-width: 2; stroke-linecap: square"/>
   </g>
   <g id="patch_3">
    <path d="M 3.00024 198.907885 
L 1184.99976 198.907885 
" style="fill: none; stroke: #000000; stroke-width: 2; stroke-linejoin: miter; stroke-linecap: square"/>
   </g>
  </g>
 </g>
 <defs>
  <clipPath id="pc5853decac">
   <rect x="3.00024" y="3.00024" width="1181.99952" height="195.907645"/>
  </clipPath>
 </defs>
</svg>
