<?xml version="1.0" encoding="utf-8" standalone="no"?>
<!DOCTYPE svg PUBLIC "-//W3C//DTD SVG 1.1//EN"
  "http://www.w3.org/Graphics/SVG/1.1/DTD/svg11.dtd">
<svg xmlns:xlink="http://www.w3.org/1999/xlink" width="1188pt" height="252pt" viewBox="0 0 1188 252" xmlns="http://www.w3.org/2000/svg" version="1.1">
 <metadata>
  <rdf:RDF xmlns:dc="http://purl.org/dc/elements/1.1/" xmlns:cc="http://creativecommons.org/ns#" xmlns:rdf="http://www.w3.org/1999/02/22-rdf-syntax-ns#">
   <cc:Work>
    <dc:type rdf:resource="http://purl.org/dc/dcmitype/StillImage"/>
    <dc:date>2024-06-17T22:44:19.253697</dc:date>
    <dc:format>image/svg+xml</dc:format>
    <dc:creator>
     <cc:Agent>
      <dc:title>Matplotlib v3.8.4, https://matplotlib.org/</dc:title>
     </cc:Agent>
    </dc:creator>
   </cc:Work>
  </rdf:RDF>
 </metadata>
 <defs>
  <style type="text/css">*{stroke-linejoin: round; stroke-linecap: butt}</style>
 </defs>
 <g id="figure_1">
  <g id="patch_1">
   <path d="M 0 252 
L 1188 252 
L 1188 0 
L 0 0 
z
" style="fill: #ffffff"/>
  </g>
  <g id="axes_1">
   <g id="patch_2">
    <path d="M 3.00024 198.907885 
L 1184.99976 198.907885 
L 1184.99976 3.00024 
L 3.00024 3.00024 
z
" style="fill: #ffffff"/>
   </g>
   <g id="matplotlib.axis_1">
    <g id="xtick_1">
     <g id="line2d_1">
      <defs>
       <path id="mf4beaf5be3" d="M 0 0 
L 0 8 
" style="stroke: #000000; stroke-width: 2"/>
      </defs>
      <g>
       <use xlink:href="#mf4beaf5be3" x="1131.272509" y="198.907885" style="stroke: #000000; stroke-width: 2"/>
      </g>
     </g>
     <g id="text_1">
      <!-- 0 -->
      <g transform="translate(1126.267665 224.791947) scale(0.18 -0.18)">
       <defs>
        <path id="Arial-BoldMT-30" d="M 1756 4600 
Q 2422 4600 2797 4125 
Q 3244 3563 3244 2259 
Q 3244 959 2794 391 
Q 2422 -78 1756 -78 
Q 1088 -78 678 436 
Q 269 950 269 2269 
Q 269 3563 719 4131 
Q 1091 4600 1756 4600 
z
M 1756 3872 
Q 1597 3872 1472 3770 
Q 1347 3669 1278 3406 
Q 1188 3066 1188 2259 
Q 1188 1453 1269 1151 
Q 1350 850 1473 750 
Q 1597 650 1756 650 
Q 1916 650 2041 751 
Q 2166 853 2234 1116 
Q 2325 1453 2325 2259 
Q 2325 3066 2244 3367 
Q 2163 3669 2039 3770 
Q 1916 3872 1756 3872 
z
" transform="scale(0.015625)"/>
       </defs>
       <use xlink:href="#Arial-BoldMT-30"/>
      </g>
     </g>
    </g>
    <g id="xtick_2">
     <g id="line2d_2">
      <g>
       <use xlink:href="#mf4beaf5be3" x="1023.818007" y="198.907885" style="stroke: #000000; stroke-width: 2"/>
      </g>
     </g>
     <g id="text_2">
      <!-- 1 -->
      <g transform="translate(1018.813164 224.791947) scale(0.18 -0.18)">
       <defs>
        <path id="Arial-BoldMT-31" d="M 2519 0 
L 1641 0 
L 1641 3309 
Q 1159 2859 506 2644 
L 506 3441 
Q 850 3553 1253 3867 
Q 1656 4181 1806 4600 
L 2519 4600 
L 2519 0 
z
" transform="scale(0.015625)"/>
       </defs>
       <use xlink:href="#Arial-BoldMT-31"/>
      </g>
     </g>
    </g>
    <g id="xtick_3">
     <g id="line2d_3">
      <g>
       <use xlink:href="#mf4beaf5be3" x="916.363505" y="198.907885" style="stroke: #000000; stroke-width: 2"/>
      </g>
     </g>
     <g id="text_3">
      <!-- 2 -->
      <g transform="translate(911.358662 224.791947) scale(0.18 -0.18)">
       <defs>
        <path id="Arial-BoldMT-32" d="M 3238 816 
L 3238 0 
L 159 0 
Q 209 463 459 877 
Q 709 1291 1447 1975 
Q 2041 2528 2175 2725 
Q 2356 2997 2356 3263 
Q 2356 3556 2198 3714 
Q 2041 3872 1763 3872 
Q 1488 3872 1325 3706 
Q 1163 3541 1138 3156 
L 263 3244 
Q 341 3969 753 4284 
Q 1166 4600 1784 4600 
Q 2463 4600 2850 4234 
Q 3238 3869 3238 3325 
Q 3238 3016 3127 2736 
Q 3016 2456 2775 2150 
Q 2616 1947 2200 1565 
Q 1784 1184 1673 1059 
Q 1563 934 1494 816 
L 3238 816 
z
" transform="scale(0.015625)"/>
       </defs>
       <use xlink:href="#Arial-BoldMT-32"/>
      </g>
     </g>
    </g>
    <g id="xtick_4">
     <g id="line2d_4">
      <g>
       <use xlink:href="#mf4beaf5be3" x="808.909004" y="198.907885" style="stroke: #000000; stroke-width: 2"/>
      </g>
     </g>
     <g id="text_4">
      <!-- 3 -->
      <g transform="translate(803.90416 224.791947) scale(0.18 -0.18)">
       <defs>
        <path id="Arial-BoldMT-33" d="M 241 1216 
L 1091 1319 
Q 1131 994 1309 822 
Q 1488 650 1741 650 
Q 2013 650 2198 856 
Q 2384 1063 2384 1413 
Q 2384 1744 2206 1937 
Q 2028 2131 1772 2131 
Q 1603 2131 1369 2066 
L 1466 2781 
Q 1822 2772 2009 2936 
Q 2197 3100 2197 3372 
Q 2197 3603 2059 3740 
Q 1922 3878 1694 3878 
Q 1469 3878 1309 3722 
Q 1150 3566 1116 3266 
L 306 3403 
Q 391 3819 561 4067 
Q 731 4316 1036 4458 
Q 1341 4600 1719 4600 
Q 2366 4600 2756 4188 
Q 3078 3850 3078 3425 
Q 3078 2822 2419 2463 
Q 2813 2378 3048 2084 
Q 3284 1791 3284 1375 
Q 3284 772 2843 347 
Q 2403 -78 1747 -78 
Q 1125 -78 715 280 
Q 306 638 241 1216 
z
" transform="scale(0.015625)"/>
       </defs>
       <use xlink:href="#Arial-BoldMT-33"/>
      </g>
     </g>
    </g>
    <g id="xtick_5">
     <g id="line2d_5">
      <g>
       <use xlink:href="#mf4beaf5be3" x="701.454502" y="198.907885" style="stroke: #000000; stroke-width: 2"/>
      </g>
     </g>
     <g id="text_5">
      <!-- 4 -->
      <g transform="translate(696.449658 224.791947) scale(0.18 -0.18)">
       <defs>
        <path id="Arial-BoldMT-34" d="M 1994 0 
L 1994 922 
L 119 922 
L 119 1691 
L 2106 4600 
L 2844 4600 
L 2844 1694 
L 3413 1694 
L 3413 922 
L 2844 922 
L 2844 0 
L 1994 0 
z
M 1994 1694 
L 1994 3259 
L 941 1694 
L 1994 1694 
z
" transform="scale(0.015625)"/>
       </defs>
       <use xlink:href="#Arial-BoldMT-34"/>
      </g>
     </g>
    </g>
    <g id="xtick_6">
     <g id="line2d_6">
      <g>
       <use xlink:href="#mf4beaf5be3" x="594" y="198.907885" style="stroke: #000000; stroke-width: 2"/>
      </g>
     </g>
     <g id="text_6">
      <!-- 5 -->
      <g transform="translate(588.995156 224.791947) scale(0.18 -0.18)">
       <defs>
        <path id="Arial-BoldMT-35" d="M 284 1178 
L 1159 1269 
Q 1197 972 1381 798 
Q 1566 625 1806 625 
Q 2081 625 2272 848 
Q 2463 1072 2463 1522 
Q 2463 1944 2273 2155 
Q 2084 2366 1781 2366 
Q 1403 2366 1103 2031 
L 391 2134 
L 841 4519 
L 3163 4519 
L 3163 3697 
L 1506 3697 
L 1369 2919 
Q 1663 3066 1969 3066 
Q 2553 3066 2959 2641 
Q 3366 2216 3366 1538 
Q 3366 972 3038 528 
Q 2591 -78 1797 -78 
Q 1163 -78 763 262 
Q 363 603 284 1178 
z
" transform="scale(0.015625)"/>
       </defs>
       <use xlink:href="#Arial-BoldMT-35"/>
      </g>
     </g>
    </g>
    <g id="xtick_7">
     <g id="line2d_7">
      <g>
       <use xlink:href="#mf4beaf5be3" x="486.545498" y="198.907885" style="stroke: #000000; stroke-width: 2"/>
      </g>
     </g>
     <g id="text_7">
      <!-- 6 -->
      <g transform="translate(481.540654 224.791947) scale(0.18 -0.18)">
       <defs>
        <path id="Arial-BoldMT-36" d="M 3247 3459 
L 2397 3366 
Q 2366 3628 2234 3753 
Q 2103 3878 1894 3878 
Q 1616 3878 1423 3628 
Q 1231 3378 1181 2588 
Q 1509 2975 1997 2975 
Q 2547 2975 2939 2556 
Q 3331 2138 3331 1475 
Q 3331 772 2918 347 
Q 2506 -78 1859 -78 
Q 1166 -78 719 461 
Q 272 1000 272 2228 
Q 272 3488 737 4044 
Q 1203 4600 1947 4600 
Q 2469 4600 2811 4308 
Q 3153 4016 3247 3459 
z
M 1256 1544 
Q 1256 1116 1453 883 
Q 1650 650 1903 650 
Q 2147 650 2309 840 
Q 2472 1031 2472 1466 
Q 2472 1913 2297 2120 
Q 2122 2328 1859 2328 
Q 1606 2328 1431 2129 
Q 1256 1931 1256 1544 
z
" transform="scale(0.015625)"/>
       </defs>
       <use xlink:href="#Arial-BoldMT-36"/>
      </g>
     </g>
    </g>
    <g id="xtick_8">
     <g id="line2d_8">
      <g>
       <use xlink:href="#mf4beaf5be3" x="379.090996" y="198.907885" style="stroke: #000000; stroke-width: 2"/>
      </g>
     </g>
     <g id="text_8">
      <!-- 7 -->
      <g transform="translate(374.086153 224.791947) scale(0.18 -0.18)">
       <defs>
        <path id="Arial-BoldMT-37" d="M 272 3703 
L 272 4519 
L 3275 4519 
L 3275 3881 
Q 2903 3516 2518 2831 
Q 2134 2147 1932 1376 
Q 1731 606 1734 0 
L 888 0 
Q 909 950 1279 1937 
Q 1650 2925 2269 3703 
L 272 3703 
z
" transform="scale(0.015625)"/>
       </defs>
       <use xlink:href="#Arial-BoldMT-37"/>
      </g>
     </g>
    </g>
    <g id="xtick_9">
     <g id="line2d_9">
      <g>
       <use xlink:href="#mf4beaf5be3" x="271.636495" y="198.907885" style="stroke: #000000; stroke-width: 2"/>
      </g>
     </g>
     <g id="text_9">
      <!-- 8 -->
      <g transform="translate(266.631651 224.791947) scale(0.18 -0.18)">
       <defs>
        <path id="Arial-BoldMT-38" d="M 1025 2472 
Q 684 2616 529 2867 
Q 375 3119 375 3419 
Q 375 3931 733 4265 
Q 1091 4600 1750 4600 
Q 2403 4600 2764 4265 
Q 3125 3931 3125 3419 
Q 3125 3100 2959 2851 
Q 2794 2603 2494 2472 
Q 2875 2319 3073 2025 
Q 3272 1731 3272 1347 
Q 3272 713 2867 316 
Q 2463 -81 1791 -81 
Q 1166 -81 750 247 
Q 259 634 259 1309 
Q 259 1681 443 1992 
Q 628 2303 1025 2472 
z
M 1206 3356 
Q 1206 3094 1354 2947 
Q 1503 2800 1750 2800 
Q 2000 2800 2150 2948 
Q 2300 3097 2300 3359 
Q 2300 3606 2151 3754 
Q 2003 3903 1759 3903 
Q 1506 3903 1356 3753 
Q 1206 3603 1206 3356 
z
M 1125 1394 
Q 1125 1031 1311 828 
Q 1497 625 1775 625 
Q 2047 625 2225 820 
Q 2403 1016 2403 1384 
Q 2403 1706 2222 1901 
Q 2041 2097 1763 2097 
Q 1441 2097 1283 1875 
Q 1125 1653 1125 1394 
z
" transform="scale(0.015625)"/>
       </defs>
       <use xlink:href="#Arial-BoldMT-38"/>
      </g>
     </g>
    </g>
    <g id="xtick_10">
     <g id="line2d_10">
      <g>
       <use xlink:href="#mf4beaf5be3" x="164.181993" y="198.907885" style="stroke: #000000; stroke-width: 2"/>
      </g>
     </g>
     <g id="text_10">
      <!-- 9 -->
      <g transform="translate(159.177149 224.791947) scale(0.18 -0.18)">
       <defs>
        <path id="Arial-BoldMT-39" d="M 291 1059 
L 1141 1153 
Q 1172 894 1303 769 
Q 1434 644 1650 644 
Q 1922 644 2112 894 
Q 2303 1144 2356 1931 
Q 2025 1547 1528 1547 
Q 988 1547 595 1964 
Q 203 2381 203 3050 
Q 203 3747 617 4173 
Q 1031 4600 1672 4600 
Q 2369 4600 2816 4061 
Q 3263 3522 3263 2288 
Q 3263 1031 2797 475 
Q 2331 -81 1584 -81 
Q 1047 -81 715 205 
Q 384 491 291 1059 
z
M 2278 2978 
Q 2278 3403 2083 3637 
Q 1888 3872 1631 3872 
Q 1388 3872 1227 3680 
Q 1066 3488 1066 3050 
Q 1066 2606 1241 2398 
Q 1416 2191 1678 2191 
Q 1931 2191 2104 2391 
Q 2278 2591 2278 2978 
z
" transform="scale(0.015625)"/>
       </defs>
       <use xlink:href="#Arial-BoldMT-39"/>
      </g>
     </g>
    </g>
    <g id="xtick_11">
     <g id="line2d_11">
      <g>
       <use xlink:href="#mf4beaf5be3" x="56.727491" y="198.907885" style="stroke: #000000; stroke-width: 2"/>
      </g>
     </g>
     <g id="text_11">
      <!-- 10 -->
      <g transform="translate(46.717803 224.791947) scale(0.18 -0.18)">
       <use xlink:href="#Arial-BoldMT-31"/>
       <use xlink:href="#Arial-BoldMT-30" x="55.615234"/>
      </g>
     </g>
    </g>
    <g id="text_12">
     <!-- Chemical Shift / ppm -->
     <g transform="translate(504.992813 245.447573) scale(0.18 -0.18)">
      <defs>
       <path id="Arial-BoldMT-43" d="M 3397 1684 
L 4294 1400 
Q 4088 650 3608 286 
Q 3128 -78 2391 -78 
Q 1478 -78 890 545 
Q 303 1169 303 2250 
Q 303 3394 893 4026 
Q 1484 4659 2447 4659 
Q 3288 4659 3813 4163 
Q 4125 3869 4281 3319 
L 3366 3100 
Q 3284 3456 3026 3662 
Q 2769 3869 2400 3869 
Q 1891 3869 1573 3503 
Q 1256 3138 1256 2319 
Q 1256 1450 1568 1081 
Q 1881 713 2381 713 
Q 2750 713 3015 947 
Q 3281 1181 3397 1684 
z
" transform="scale(0.015625)"/>
       <path id="Arial-BoldMT-68" d="M 1334 4581 
L 1334 2897 
Q 1759 3394 2350 3394 
Q 2653 3394 2897 3281 
Q 3141 3169 3264 2994 
Q 3388 2819 3433 2606 
Q 3478 2394 3478 1947 
L 3478 0 
L 2600 0 
L 2600 1753 
Q 2600 2275 2550 2415 
Q 2500 2556 2373 2639 
Q 2247 2722 2056 2722 
Q 1838 2722 1666 2615 
Q 1494 2509 1414 2295 
Q 1334 2081 1334 1663 
L 1334 0 
L 456 0 
L 456 4581 
L 1334 4581 
z
" transform="scale(0.015625)"/>
       <path id="Arial-BoldMT-65" d="M 2381 1056 
L 3256 909 
Q 3088 428 2723 176 
Q 2359 -75 1813 -75 
Q 947 -75 531 491 
Q 203 944 203 1634 
Q 203 2459 634 2926 
Q 1066 3394 1725 3394 
Q 2466 3394 2894 2905 
Q 3322 2416 3303 1406 
L 1103 1406 
Q 1113 1016 1316 798 
Q 1519 581 1822 581 
Q 2028 581 2168 693 
Q 2309 806 2381 1056 
z
M 2431 1944 
Q 2422 2325 2234 2523 
Q 2047 2722 1778 2722 
Q 1491 2722 1303 2513 
Q 1116 2303 1119 1944 
L 2431 1944 
z
" transform="scale(0.015625)"/>
       <path id="Arial-BoldMT-6d" d="M 394 3319 
L 1203 3319 
L 1203 2866 
Q 1638 3394 2238 3394 
Q 2556 3394 2790 3262 
Q 3025 3131 3175 2866 
Q 3394 3131 3647 3262 
Q 3900 3394 4188 3394 
Q 4553 3394 4806 3245 
Q 5059 3097 5184 2809 
Q 5275 2597 5275 2122 
L 5275 0 
L 4397 0 
L 4397 1897 
Q 4397 2391 4306 2534 
Q 4184 2722 3931 2722 
Q 3747 2722 3584 2609 
Q 3422 2497 3350 2280 
Q 3278 2063 3278 1594 
L 3278 0 
L 2400 0 
L 2400 1819 
Q 2400 2303 2353 2443 
Q 2306 2584 2207 2653 
Q 2109 2722 1941 2722 
Q 1738 2722 1575 2612 
Q 1413 2503 1342 2297 
Q 1272 2091 1272 1613 
L 1272 0 
L 394 0 
L 394 3319 
z
" transform="scale(0.015625)"/>
       <path id="Arial-BoldMT-69" d="M 459 3769 
L 459 4581 
L 1338 4581 
L 1338 3769 
L 459 3769 
z
M 459 0 
L 459 3319 
L 1338 3319 
L 1338 0 
L 459 0 
z
" transform="scale(0.015625)"/>
       <path id="Arial-BoldMT-63" d="M 3353 2338 
L 2488 2181 
Q 2444 2441 2289 2572 
Q 2134 2703 1888 2703 
Q 1559 2703 1364 2476 
Q 1169 2250 1169 1719 
Q 1169 1128 1367 884 
Q 1566 641 1900 641 
Q 2150 641 2309 783 
Q 2469 925 2534 1272 
L 3397 1125 
Q 3263 531 2881 228 
Q 2500 -75 1859 -75 
Q 1131 -75 698 384 
Q 266 844 266 1656 
Q 266 2478 700 2936 
Q 1134 3394 1875 3394 
Q 2481 3394 2839 3133 
Q 3197 2872 3353 2338 
z
" transform="scale(0.015625)"/>
       <path id="Arial-BoldMT-61" d="M 1116 2306 
L 319 2450 
Q 453 2931 781 3162 
Q 1109 3394 1756 3394 
Q 2344 3394 2631 3255 
Q 2919 3116 3036 2902 
Q 3153 2688 3153 2116 
L 3144 1091 
Q 3144 653 3186 445 
Q 3228 238 3344 0 
L 2475 0 
Q 2441 88 2391 259 
Q 2369 338 2359 363 
Q 2134 144 1878 34 
Q 1622 -75 1331 -75 
Q 819 -75 523 203 
Q 228 481 228 906 
Q 228 1188 362 1408 
Q 497 1628 739 1745 
Q 981 1863 1438 1950 
Q 2053 2066 2291 2166 
L 2291 2253 
Q 2291 2506 2166 2614 
Q 2041 2722 1694 2722 
Q 1459 2722 1328 2630 
Q 1197 2538 1116 2306 
z
M 2291 1594 
Q 2122 1538 1756 1459 
Q 1391 1381 1278 1306 
Q 1106 1184 1106 997 
Q 1106 813 1243 678 
Q 1381 544 1594 544 
Q 1831 544 2047 700 
Q 2206 819 2256 991 
Q 2291 1103 2291 1419 
L 2291 1594 
z
" transform="scale(0.015625)"/>
       <path id="Arial-BoldMT-6c" d="M 459 0 
L 459 4581 
L 1338 4581 
L 1338 0 
L 459 0 
z
" transform="scale(0.015625)"/>
       <path id="Arial-BoldMT-20" transform="scale(0.015625)"/>
       <path id="Arial-BoldMT-53" d="M 231 1491 
L 1131 1578 
Q 1213 1125 1461 912 
Q 1709 700 2131 700 
Q 2578 700 2804 889 
Q 3031 1078 3031 1331 
Q 3031 1494 2936 1608 
Q 2841 1722 2603 1806 
Q 2441 1863 1863 2006 
Q 1119 2191 819 2459 
Q 397 2838 397 3381 
Q 397 3731 595 4036 
Q 794 4341 1167 4500 
Q 1541 4659 2069 4659 
Q 2931 4659 3367 4281 
Q 3803 3903 3825 3272 
L 2900 3231 
Q 2841 3584 2645 3739 
Q 2450 3894 2059 3894 
Q 1656 3894 1428 3728 
Q 1281 3622 1281 3444 
Q 1281 3281 1419 3166 
Q 1594 3019 2269 2859 
Q 2944 2700 3267 2529 
Q 3591 2359 3773 2064 
Q 3956 1769 3956 1334 
Q 3956 941 3737 597 
Q 3519 253 3119 86 
Q 2719 -81 2122 -81 
Q 1253 -81 787 320 
Q 322 722 231 1491 
z
" transform="scale(0.015625)"/>
       <path id="Arial-BoldMT-66" d="M 75 3319 
L 563 3319 
L 563 3569 
Q 563 3988 652 4194 
Q 741 4400 980 4529 
Q 1219 4659 1584 4659 
Q 1959 4659 2319 4547 
L 2200 3934 
Q 1991 3984 1797 3984 
Q 1606 3984 1523 3895 
Q 1441 3806 1441 3553 
L 1441 3319 
L 2097 3319 
L 2097 2628 
L 1441 2628 
L 1441 0 
L 563 0 
L 563 2628 
L 75 2628 
L 75 3319 
z
" transform="scale(0.015625)"/>
       <path id="Arial-BoldMT-74" d="M 1981 3319 
L 1981 2619 
L 1381 2619 
L 1381 1281 
Q 1381 875 1398 808 
Q 1416 741 1477 697 
Q 1538 653 1625 653 
Q 1747 653 1978 738 
L 2053 56 
Q 1747 -75 1359 -75 
Q 1122 -75 931 4 
Q 741 84 652 211 
Q 563 338 528 553 
Q 500 706 500 1172 
L 500 2619 
L 97 2619 
L 97 3319 
L 500 3319 
L 500 3978 
L 1381 4491 
L 1381 3319 
L 1981 3319 
z
" transform="scale(0.015625)"/>
       <path id="Arial-BoldMT-2f" d="M -9 -78 
L 1125 4659 
L 1784 4659 
L 638 -78 
L -9 -78 
z
" transform="scale(0.015625)"/>
       <path id="Arial-BoldMT-70" d="M 434 3319 
L 1253 3319 
L 1253 2831 
Q 1413 3081 1684 3237 
Q 1956 3394 2288 3394 
Q 2866 3394 3269 2941 
Q 3672 2488 3672 1678 
Q 3672 847 3265 386 
Q 2859 -75 2281 -75 
Q 2006 -75 1782 34 
Q 1559 144 1313 409 
L 1313 -1263 
L 434 -1263 
L 434 3319 
z
M 1303 1716 
Q 1303 1156 1525 889 
Q 1747 622 2066 622 
Q 2372 622 2575 867 
Q 2778 1113 2778 1672 
Q 2778 2194 2568 2447 
Q 2359 2700 2050 2700 
Q 1728 2700 1515 2451 
Q 1303 2203 1303 1716 
z
" transform="scale(0.015625)"/>
      </defs>
      <use xlink:href="#Arial-BoldMT-43"/>
      <use xlink:href="#Arial-BoldMT-68" x="72.216797"/>
      <use xlink:href="#Arial-BoldMT-65" x="133.300781"/>
      <use xlink:href="#Arial-BoldMT-6d" x="188.916016"/>
      <use xlink:href="#Arial-BoldMT-69" x="277.832031"/>
      <use xlink:href="#Arial-BoldMT-63" x="305.615234"/>
      <use xlink:href="#Arial-BoldMT-61" x="361.230469"/>
      <use xlink:href="#Arial-BoldMT-6c" x="416.845703"/>
      <use xlink:href="#Arial-BoldMT-20" x="444.628906"/>
      <use xlink:href="#Arial-BoldMT-53" x="472.412109"/>
      <use xlink:href="#Arial-BoldMT-68" x="539.111328"/>
      <use xlink:href="#Arial-BoldMT-69" x="600.195312"/>
      <use xlink:href="#Arial-BoldMT-66" x="627.978516"/>
      <use xlink:href="#Arial-BoldMT-74" x="661.279297"/>
      <use xlink:href="#Arial-BoldMT-20" x="694.580078"/>
      <use xlink:href="#Arial-BoldMT-2f" x="722.363281"/>
      <use xlink:href="#Arial-BoldMT-20" x="750.146484"/>
      <use xlink:href="#Arial-BoldMT-70" x="777.929688"/>
      <use xlink:href="#Arial-BoldMT-70" x="839.013672"/>
      <use xlink:href="#Arial-BoldMT-6d" x="900.097656"/>
     </g>
    </g>
   </g>
   <g id="matplotlib.axis_2"/>
   <g id="line2d_12">
    <path d="M 3.074217 247.941885 
L 3.432759 253 
M 4.864488 253 
L 5.120414 249.941804 
L 5.325034 249.434534 
L 5.734273 252.308732 
L 5.938893 252.164836 
L 6.757372 241.639985 
L 6.961992 240.738784 
L 7.98509 228.626193 
L 9.008189 195.825563 
L 9.417429 184.98516 
L 9.826668 166.867208 
L 10.440527 137.765289 
L 10.645147 132.888373 
L 10.849767 132.068046 
L 11.463626 139.959066 
L 11.668246 140.154496 
L 11.872865 141.049427 
L 12.282105 145.548721 
L 12.486724 148.827014 
L 12.691344 153.893237 
L 13.100584 172.915833 
L 13.714443 202.858636 
L 13.919063 207.715615 
L 14.123682 209.030995 
L 14.328302 206.769685 
L 14.737541 199.939368 
L 14.942161 199.27076 
L 15.146781 199.670133 
L 15.351401 199.568127 
L 15.96526 196.862886 
L 16.169879 200.731719 
L 16.579119 224.872173 
L 16.992039 253 
M 17.615631 253 
L 18.011457 239.645082 
L 18.216077 237.753168 
L 18.420696 237.509669 
L 18.625316 235.222266 
L 18.829936 229.246702 
L 19.648415 191.290905 
L 19.853035 190.540801 
L 20.057654 191.85236 
L 20.262274 191.656332 
L 20.671513 185.292302 
L 21.489992 168.854042 
L 21.694612 170.577485 
L 22.103852 184.368814 
L 22.92233 214.824051 
L 23.53619 248.092867 
L 23.740809 252.451141 
L 23.945429 250.095018 
L 24.354669 228.917142 
L 24.968528 194.898052 
L 25.787007 158.20107 
L 26.196246 147.601492 
L 26.400866 144.749231 
L 26.605486 145.375972 
L 26.810105 150.275694 
L 27.628584 183.345661 
L 28.447063 225.132145 
L 28.651683 227.542468 
L 28.856303 224.346027 
L 29.470162 208.496981 
L 29.674781 209.144009 
L 30.084021 220.346312 
L 30.915967 253 
M 33.012923 253 
L 33.357937 234.683345 
L 33.562556 229.436404 
L 33.767176 228.419088 
L 34.381035 231.863231 
L 34.585655 230.678065 
L 34.790275 225.009922 
L 35.608754 182.516032 
L 35.813373 180.775822 
L 36.017993 183.982278 
L 36.427232 200.1599 
L 36.836472 218.481143 
L 37.041092 224.188014 
L 37.245711 226.508524 
L 37.450331 224.625037 
L 37.654951 217.033214 
L 38.06419 185.556732 
L 38.47343 154.92818 
L 38.678049 148.361867 
L 38.882669 148.676179 
L 39.087289 154.600822 
L 39.496528 177.705743 
L 40.110388 212.501812 
L 40.315007 215.145045 
L 40.519627 211.673082 
L 41.133486 192.087418 
L 41.542726 185.103957 
L 42.565824 172.755208 
L 42.770444 173.963884 
L 43.179683 182.649441 
L 43.384303 188.730739 
L 43.793543 213.530825 
L 44.202782 243.684842 
L 44.407402 248.464008 
L 44.612022 245.095849 
L 46.453599 184.743343 
L 47.272078 167.563366 
L 47.476698 166.405534 
L 47.681317 166.791209 
L 48.909036 178.711718 
L 49.318275 184.376915 
L 49.522895 183.837141 
L 49.932134 172.755518 
L 50.341374 160.69312 
L 50.545994 157.509206 
L 50.750613 157.654661 
L 50.955233 162.394479 
L 51.978332 206.691873 
L 52.387571 215.806755 
L 53.00143 222.849618 
L 53.20605 230.486394 
L 53.53968 253 
M 56.261984 253 
L 56.684585 214.991366 
L 57.093825 197.887884 
L 57.503064 187.639068 
L 58.321543 158.000508 
L 58.526163 157.134848 
L 58.730783 158.141583 
L 58.935402 162.04781 
L 59.344642 181.104878 
L 59.958501 214.485452 
L 60.163121 215.858041 
L 60.36774 211.388482 
L 61.186219 176.935678 
L 61.390839 176.049577 
L 61.595459 179.211128 
L 62.004698 194.762504 
L 62.618557 221.409093 
L 62.823177 222.880013 
L 63.027797 219.783307 
L 63.437036 203.803062 
L 63.846276 188.616044 
L 64.050896 186.663519 
L 64.255515 188.988099 
L 64.664755 198.838519 
L 64.869374 199.22704 
L 65.073994 194.106197 
L 65.483234 178.85611 
L 65.687853 176.630777 
L 65.892473 179.306979 
L 66.301713 187.406436 
L 67.120191 197.295646 
L 67.324811 197.484077 
L 67.529431 195.329347 
L 68.34791 179.355458 
L 68.55253 184.104764 
L 69.575628 231.310853 
L 69.984868 238.479598 
L 70.189487 238.829491 
L 70.598727 236.73207 
L 70.803347 236.564491 
L 71.007966 236.876897 
L 71.212586 235.489029 
L 71.621825 224.084837 
L 72.440304 195.817959 
L 72.644924 193.329893 
L 72.849544 195.198729 
L 73.258783 200.982854 
L 73.463403 198.801093 
L 74.281882 177.823066 
L 74.691121 174.214376 
L 75.100361 171.321914 
L 75.304981 171.172289 
L 75.71422 174.370195 
L 75.91884 174.327971 
L 76.123459 174.054604 
L 76.328079 175.777303 
L 76.737319 182.604434 
L 76.941938 183.840738 
L 77.146558 182.686518 
L 77.555798 174.671291 
L 77.965037 164.667548 
L 78.169657 162.699566 
L 78.374276 162.166118 
L 78.578896 160.400342 
L 78.988136 150.202967 
L 80.215854 114.356629 
L 80.420474 113.771996 
L 80.625093 117.866461 
L 81.238953 137.398334 
L 81.443572 139.529972 
L 81.852812 139.932477 
L 82.262051 141.137789 
L 82.466671 142.046836 
L 82.671291 144.086072 
L 83.08053 152.667002 
L 84.308249 182.421026 
L 84.512868 182.672355 
L 85.535967 177.631674 
L 85.945206 170.764474 
L 86.149826 167.331029 
L 86.354446 166.799418 
L 86.763685 170.681011 
L 86.968305 168.381988 
L 87.582164 146.23912 
L 87.786784 145.156976 
L 87.991404 149.812555 
L 88.400643 169.890342 
L 89.832981 249.697467 
L 89.964841 253 
M 92.940638 253 
L 93.925376 156.462348 
L 94.129995 148.222629 
L 94.334615 145.513458 
L 94.539235 146.889768 
L 95.357714 159.887374 
L 95.562333 165.72884 
L 96.380812 199.419385 
L 96.585432 196.556326 
L 96.994672 172.590381 
L 97.403911 144.616768 
L 97.608531 136.911583 
L 97.81315 135.631713 
L 98.01777 140.749145 
L 98.836249 178.950745 
L 99.245489 182.629821 
L 99.450108 184.212282 
L 99.654728 184.850473 
L 99.859348 183.087162 
L 100.268587 178.049721 
L 100.473207 178.455125 
L 101.700925 188.967154 
L 101.905545 189.643041 
L 102.110165 188.201648 
L 102.724024 175.834007 
L 103.133263 164.42249 
L 103.337883 157.984221 
L 103.542503 155.254229 
L 103.747123 157.988756 
L 104.156362 166.973152 
L 104.360982 166.043881 
L 104.770221 158.835137 
L 104.974841 157.748682 
L 105.179461 160.575742 
L 105.5887 177.094939 
L 105.99794 193.410264 
L 106.202559 196.895886 
L 106.407179 197.865691 
L 106.611799 197.510201 
L 106.816418 196.360802 
L 107.021038 194.331054 
L 107.225658 190.917198 
L 107.634897 177.321439 
L 108.657996 136.570705 
L 108.862616 131.951149 
L 109.067235 131.195898 
L 109.476475 133.366621 
L 109.885714 131.881429 
L 110.090334 134.480981 
L 110.499574 152.633856 
L 110.704193 161.625329 
L 110.908813 165.039642 
L 111.113433 162.100414 
L 111.522672 151.625795 
L 111.727292 152.554702 
L 112.750391 174.548766 
L 112.95501 175.704513 
L 113.36425 174.453101 
L 113.568869 175.311109 
L 114.182729 183.743678 
L 114.387348 187.91966 
L 114.796588 204.150831 
L 115.611896 253 
M 116.665948 253 
L 117.047405 239.180462 
L 117.252025 236.466617 
L 117.456644 238.45797 
L 118.081574 253 
M 120.258036 253 
L 120.73056 241.34527 
L 120.93518 236.653521 
L 121.139799 227.784092 
L 121.753659 175.455417 
L 122.162898 150.406398 
L 122.572137 141.721524 
L 122.981377 135.49553 
L 123.185997 134.669187 
L 123.390616 136.906397 
L 123.799856 144.200264 
L 124.004476 146.200245 
L 124.209095 146.195997 
L 124.618335 143.470308 
L 124.822954 145.906118 
L 126.050673 180.849146 
L 126.255293 182.846918 
L 126.459912 183.696632 
L 126.869152 184.02927 
L 127.073771 183.376234 
L 127.278391 181.330618 
L 127.89225 170.169539 
L 128.30149 156.806559 
L 128.915349 127.724927 
L 129.119969 123.879536 
L 129.324588 125.378587 
L 129.733828 140.237278 
L 130.756927 181.762146 
L 130.961546 188.538277 
L 131.166166 190.648598 
L 131.370786 187.818484 
L 132.189265 164.465993 
L 132.393884 163.253789 
L 132.598504 163.209007 
L 132.803124 162.809239 
L 133.212363 160.248895 
L 133.416983 161.129756 
L 133.621603 165.387264 
L 133.826222 173.84391 
L 134.235462 203.57774 
L 134.644701 235.188213 
L 134.849321 244.155322 
L 135.053941 246.829811 
L 135.25856 244.477526 
L 135.6678 236.25321 
L 135.87242 235.842101 
L 136.077039 239.667407 
L 136.588062 253 
M 136.757642 253 
L 136.895518 250.980096 
L 137.713997 222.565615 
L 138.123237 221.846504 
L 138.532476 216.301297 
L 138.941716 211.290577 
L 139.146335 209.160574 
L 139.760194 200.421376 
L 139.964814 200.16745 
L 140.374054 203.281373 
L 140.783293 206.72174 
L 141.192533 208.97764 
L 141.397152 211.707848 
L 142.011011 226.318256 
L 142.215631 227.143521 
L 143.03411 220.174067 
L 143.44335 215.798778 
L 143.647969 215.920652 
L 144.057209 223.42026 
L 144.261828 227.053476 
L 144.466448 228.274603 
L 144.671068 227.092375 
L 145.489547 217.271854 
L 145.694167 218.669357 
L 146.308026 226.225545 
L 146.512645 226.847573 
L 146.717265 225.050069 
L 146.921885 218.984475 
L 147.740364 176.901012 
L 147.944984 173.534504 
L 148.149603 173.440312 
L 148.354223 174.555812 
L 148.558843 174.913721 
L 148.763462 173.795639 
L 149.172702 169.689911 
L 149.377322 169.716058 
L 149.786561 174.374606 
L 149.991181 173.669804 
L 150.60504 163.376415 
L 150.80966 163.784912 
L 151.628139 170.218088 
L 151.832758 167.362548 
L 152.241998 149.776734 
L 152.855857 122.717424 
L 153.060477 119.497859 
L 153.265096 120.853588 
L 154.083575 137.577362 
L 154.492815 140.577373 
L 154.697435 140.640976 
L 154.902054 140.024382 
L 155.106674 140.428274 
L 155.311294 143.415797 
L 155.720533 158.629784 
L 157.152871 231.283163 
L 157.562111 240.969896 
L 157.97135 243.144246 
L 158.17597 243.280291 
L 159.608308 238.800337 
L 159.812928 236.001873 
L 160.836026 208.197149 
L 162.063745 163.322672 
L 162.268364 158.212194 
L 162.472984 156.38714 
L 162.677604 157.844797 
L 163.496083 169.584913 
L 163.905322 187.750524 
L 164.314562 208.626599 
L 164.723801 219.432855 
L 164.928421 221.378388 
L 165.133041 220.675679 
L 165.7469 211.31077 
L 165.95152 212.686444 
L 166.360759 222.084624 
L 167.179238 243.593239 
L 167.757058 253 
M 169.987588 253 
L 170.248534 236.007423 
L 170.862393 196.501241 
L 171.067013 189.817527 
L 171.271632 186.824237 
L 171.476252 186.734324 
L 171.885492 189.398844 
L 172.294731 194.408386 
L 172.499351 197.071674 
L 172.70397 198.27587 
L 172.90859 197.86273 
L 173.11321 196.08845 
L 173.31783 192.355251 
L 174.136309 166.756171 
L 174.340928 171.713156 
L 174.750168 187.488226 
L 174.954787 188.607532 
L 175.159407 183.732771 
L 175.568647 164.112581 
L 176.591745 100.848838 
L 176.796365 100.952131 
L 177.205604 118.891435 
L 177.614844 137.105091 
L 177.819464 140.988575 
L 178.024083 140.621605 
L 178.228703 136.658099 
L 178.842562 119.596284 
L 179.047182 118.28419 
L 179.865661 119.651678 
L 180.070281 121.087847 
L 180.2749 123.957728 
L 180.68414 135.944824 
L 181.297999 170.981106 
L 181.911858 200.15028 
L 182.116478 205.535466 
L 182.321098 207.936456 
L 182.525717 206.933481 
L 182.934957 201.018908 
L 183.139577 200.419918 
L 183.548816 203.616468 
L 184.571915 212.731583 
L 184.776534 212.736435 
L 184.981154 210.019598 
L 185.390394 202.068363 
L 185.799633 198.348613 
L 186.208872 195.517832 
L 186.413492 196.030777 
L 186.618112 199.659606 
L 187.231971 217.507315 
L 187.436591 218.404695 
L 187.641211 217.055664 
L 188.05045 211.303352 
L 188.25507 204.996289 
L 188.868929 175.241754 
L 189.073549 171.811557 
L 189.278168 173.8447 
L 189.687408 187.467373 
L 190.096647 199.157149 
L 190.301267 198.46558 
L 190.505887 192.162735 
L 191.528985 138.53616 
L 191.938225 133.613748 
L 192.142845 131.680084 
L 192.347464 131.00456 
L 192.552084 132.977286 
L 192.961323 145.3816 
L 193.575183 169.030837 
L 193.984422 175.451122 
L 194.598281 182.799523 
L 194.802901 179.895201 
L 195.21214 160.195036 
L 195.62138 141.297663 
L 195.826 137.031759 
L 196.030619 136.795554 
L 196.235239 140.406755 
L 196.644479 150.169921 
L 196.849098 149.792431 
L 197.258338 141.660253 
L 197.462957 142.212686 
L 197.872197 158.615954 
L 198.281436 172.305735 
L 198.895296 179.983347 
L 199.509155 183.838366 
L 199.713774 187.010358 
L 200.123014 199.247683 
L 200.736873 223.729138 
L 201.146113 231.894106 
L 201.964591 242.148395 
L 202.169211 241.596963 
L 202.578451 236.80396 
L 202.78307 235.943688 
L 202.98769 237.33299 
L 203.39693 243.398513 
L 203.601549 244.716677 
L 203.806169 243.592805 
L 204.215408 239.163586 
L 204.624648 237.04253 
L 204.829268 236.443044 
L 205.033887 234.973255 
L 205.647747 226.420518 
L 205.852366 226.479757 
L 206.261606 234.421365 
L 206.466225 237.801896 
L 206.670845 237.800563 
L 207.284704 230.534331 
L 207.693944 232.129598 
L 207.898564 230.603609 
L 208.103183 225.531301 
L 208.717042 196.952521 
L 208.921662 194.991531 
L 209.126282 200.165279 
L 209.535521 215.281492 
L 209.740141 217.713776 
L 209.944761 215.554348 
L 210.55862 203.792953 
L 210.76324 201.048326 
L 211.172479 190.981445 
L 211.581719 181.604621 
L 211.990958 174.313855 
L 212.400197 161.857054 
L 212.809437 149.254611 
L 213.014057 146.2174 
L 213.218676 146.853513 
L 213.423296 151.493829 
L 214.037155 171.101748 
L 214.241775 172.529886 
L 214.446395 171.971089 
L 214.651014 171.78231 
L 214.855634 172.440794 
L 215.060254 172.469026 
L 215.264874 170.780342 
L 215.674113 162.376735 
L 216.901831 127.100821 
L 217.106451 128.21305 
L 217.311071 136.901041 
L 217.92493 177.549226 
L 218.33417 189.483664 
L 218.538789 191.056971 
L 218.743409 191.323245 
L 218.948029 190.934957 
L 219.357268 190.023655 
L 219.561888 190.288077 
L 219.971127 191.996784 
L 220.175747 192.015086 
L 220.380367 189.999043 
L 220.994226 180.679715 
L 221.198846 179.383094 
L 221.403465 180.51109 
L 221.812705 189.185026 
L 222.631184 206.131231 
L 223.040423 210.468924 
L 223.245043 209.327928 
L 223.858902 198.936789 
L 224.063522 202.098773 
L 224.882001 224.978419 
L 225.086621 224.095574 
L 225.29124 219.858623 
L 226.109719 192.737151 
L 226.314339 190.550871 
L 226.518959 189.79755 
L 226.723578 188.285677 
L 227.337438 176.886478 
L 227.542057 179.268708 
L 227.951297 197.82656 
L 228.565156 234.452 
L 228.769776 241.650295 
L 228.974395 243.968411 
L 229.179015 243.023411 
L 229.383635 240.675917 
L 229.588255 236.604948 
L 229.997494 220.281438 
L 230.406733 205.665355 
L 230.611353 204.810246 
L 230.815973 208.610778 
L 231.634452 230.27584 
L 231.839072 230.861628 
L 232.043691 226.528198 
L 232.452931 202.110858 
L 232.86217 176.982174 
L 233.06679 173.6191 
L 233.27141 179.53206 
L 234.089889 238.780515 
L 234.294508 237.861709 
L 235.112987 206.289058 
L 235.317607 204.800975 
L 235.522227 206.292616 
L 235.726846 208.659443 
L 235.931466 209.699077 
L 236.340706 208.366704 
L 236.545325 211.388203 
L 236.954565 224.032141 
L 237.159184 226.307381 
L 237.363804 226.2568 
L 237.773044 227.119708 
L 237.977663 224.912877 
L 238.386903 213.727659 
L 238.591523 211.888962 
L 238.796142 214.52925 
L 239.205382 226.257335 
L 239.875642 253 
M 240.453557 253 
L 240.84234 249.822287 
L 241.046959 249.604058 
L 241.456199 250.152591 
L 241.660818 250.163149 
L 241.865438 250.417028 
L 242.070058 250.988848 
L 242.274678 250.859238 
L 242.479297 247.656502 
L 242.888537 228.343253 
L 243.297776 208.986298 
L 243.911635 192.348925 
L 244.525495 179.97968 
L 244.730114 182.461444 
L 245.139354 202.644919 
L 245.548593 223.043793 
L 245.753213 228.258014 
L 245.957833 229.655238 
L 246.162452 227.511592 
L 246.571692 220.630114 
L 247.185551 214.897111 
L 247.59479 207.403015 
L 248.00403 200.761618 
L 248.20865 199.477314 
L 248.413269 199.140692 
L 248.617889 200.30792 
L 249.027129 207.86231 
L 250.661379 253 
M 251.925984 253 
L 252.710284 212.430107 
L 253.528763 168.066753 
L 254.142622 144.497832 
L 254.551861 135.01322 
L 254.756481 132.562448 
L 254.961101 132.245857 
L 255.16572 134.828782 
L 255.37034 140.951847 
L 255.77958 162.711698 
L 256.188819 185.879122 
L 256.393439 191.844135 
L 256.598058 192.762786 
L 256.802678 191.416538 
L 257.007298 191.706642 
L 257.211918 195.583831 
L 257.825777 217.802348 
L 258.030397 219.755284 
L 258.235016 216.044875 
L 258.644256 195.725774 
L 259.258115 162.741752 
L 259.462735 159.436909 
L 259.667354 160.684748 
L 260.076594 172.524491 
L 260.690453 190.926771 
L 261.508932 216.153369 
L 261.713552 218.098529 
L 262.122791 227.633156 
L 262.327411 232.405601 
L 262.532031 234.342901 
L 262.73665 234.544146 
L 262.94127 235.303567 
L 263.555129 240.259141 
L 263.964369 242.773323 
L 264.168988 242.567698 
L 264.373608 238.88763 
L 264.987467 217.793372 
L 265.396707 213.503135 
L 265.601326 213.940446 
L 265.805946 217.31393 
L 266.419805 236.785797 
L 266.624425 238.478164 
L 266.829045 234.792901 
L 267.852143 195.241914 
L 268.261383 196.879506 
L 268.466003 195.088793 
L 269.079862 177.374655 
L 269.284482 177.062296 
L 269.489101 182.822329 
L 270.10296 208.484904 
L 271.126059 221.880069 
L 271.739918 235.671863 
L 271.944538 234.171176 
L 272.353777 218.200225 
L 273.376876 169.703973 
L 273.581496 165.885837 
L 273.786116 164.263144 
L 273.990735 164.472412 
L 275.013834 171.553189 
L 275.218454 169.645563 
L 275.627693 160.920969 
L 275.832313 158.839183 
L 276.036933 158.800354 
L 276.241552 160.144463 
L 276.446172 163.215968 
L 277.469271 186.216736 
L 277.67389 185.490725 
L 278.28775 174.976014 
L 278.696989 164.291694 
L 279.106228 144.602404 
L 279.720088 88.741496 
L 280.333947 38.20224 
L 281.357045 6.388779 
L 281.561665 3.00024 
L 281.766285 5.288557 
L 282.175524 26.761305 
L 282.994003 85.949621 
L 284.221722 198.915502 
L 284.835581 228.202348 
L 285.24482 238.130984 
L 285.44944 239.04689 
L 285.65406 238.105775 
L 285.858679 235.936618 
L 286.267919 227.958104 
L 286.677158 220.164835 
L 286.881778 218.461438 
L 287.086398 217.716885 
L 287.291017 216.332567 
L 287.904877 208.153096 
L 288.109496 207.925999 
L 288.314116 208.466206 
L 288.518736 208.59429 
L 288.723356 208.262574 
L 288.927975 208.673691 
L 289.132595 210.859305 
L 289.746454 222.809805 
L 289.951074 222.361743 
L 290.155694 217.905424 
L 290.974173 190.989383 
L 291.178792 189.239079 
L 291.383412 184.594872 
L 291.792651 160.587665 
L 292.406511 120.724303 
L 292.61113 112.560118 
L 292.81575 110.743738 
L 293.02037 116.50267 
L 293.634229 149.035894 
L 293.838849 152.922742 
L 294.043468 154.190046 
L 294.248088 156.294351 
L 294.452708 160.944783 
L 294.861947 179.519184 
L 295.680426 230.919914 
L 296.089666 244.044146 
L 296.294285 247.790438 
L 296.498905 247.818887 
L 296.908145 236.319038 
L 297.522004 220.431807 
L 298.135863 208.665792 
L 299.568201 172.150939 
L 300.38668 185.99374 
L 300.5913 182.503296 
L 301.205159 167.862005 
L 301.409779 168.319416 
L 301.614398 172.082281 
L 302.432877 196.830941 
L 302.637497 198.47944 
L 303.455976 200.89898 
L 303.660596 202.451038 
L 304.069835 208.76831 
L 304.479075 217.910866 
L 304.683694 220.020318 
L 304.888314 217.854146 
L 305.297553 201.23661 
L 305.706793 185.763263 
L 305.911413 183.703423 
L 306.320652 186.208178 
L 306.525272 183.677524 
L 306.934511 164.808987 
L 307.343751 144.43002 
L 307.54837 140.769773 
L 307.75299 143.033982 
L 308.16223 159.608309 
L 308.776089 198.014634 
L 309.389948 236.953531 
L 309.799187 246.379819 
L 310.003807 247.031955 
L 310.208427 245.190397 
L 311.231526 227.623684 
L 311.845385 217.605336 
L 312.254624 202.253212 
L 313.073103 159.704067 
L 313.277723 156.44403 
L 313.482343 155.476853 
L 313.686962 155.725717 
L 313.891582 156.253452 
L 314.096202 156.067975 
L 314.505441 154.97042 
L 314.710061 155.711578 
L 315.1193 160.149695 
L 315.52854 168.449894 
L 316.142399 185.497051 
L 316.347019 185.55805 
L 316.551638 180.59946 
L 317.370117 140.145078 
L 317.574737 138.596399 
L 317.779357 143.282427 
L 318.597836 180.949919 
L 318.802455 181.052902 
L 319.211695 174.561905 
L 319.416315 171.251691 
L 319.620934 170.027828 
L 319.825554 171.943539 
L 320.234794 183.499542 
L 320.644033 201.350073 
L 321.462512 246.983149 
L 321.667132 249.352892 
L 321.871751 247.512908 
L 322.076371 242.070807 
L 322.280991 232.850493 
L 322.69023 197.797832 
L 323.304089 137.232763 
L 323.508709 128.101471 
L 323.713329 124.417185 
L 323.917949 123.404497 
L 324.122568 123.11558 
L 324.327188 123.933356 
L 324.531808 127.765399 
L 325.964146 181.215287 
L 326.168766 183.009055 
L 326.373385 179.383303 
L 326.987244 161.283257 
L 327.191864 160.477775 
L 327.396484 161.87748 
L 327.805723 168.697766 
L 328.214963 177.681666 
L 328.419583 177.388942 
L 329.033442 164.969768 
L 329.238061 165.191268 
L 329.442681 165.071091 
L 329.851921 161.78597 
L 330.05654 162.070662 
L 330.26116 162.564119 
L 330.46578 160.00269 
L 330.875019 144.122172 
L 331.693498 105.780831 
L 331.898118 101.836038 
L 332.102738 105.684305 
L 332.511977 136.098806 
L 333.125836 186.680061 
L 333.739695 209.931406 
L 334.353555 227.310131 
L 334.558174 229.525209 
L 334.762794 228.851453 
L 335.172034 222.058826 
L 335.990512 202.378807 
L 336.399752 193.919728 
L 336.604372 194.112197 
L 337.013611 199.449516 
L 337.218231 199.774108 
L 337.422851 199.094352 
L 337.62747 199.007594 
L 337.83209 200.003724 
L 338.03671 202.159082 
L 338.241329 206.288492 
L 338.650569 223.246046 
L 339.248467 253 
M 339.77252 253 
L 339.878287 248.062301 
L 340.492146 199.960942 
L 340.696766 193.396589 
L 340.901386 192.946659 
L 341.106006 196.122876 
L 341.719865 208.382751 
L 341.924485 209.579552 
L 342.129104 210.090008 
L 342.333724 209.447538 
L 342.742963 205.474258 
L 342.947583 205.407554 
L 343.152203 206.245028 
L 343.356823 205.597124 
L 343.766062 197.175036 
L 343.970682 192.995178 
L 344.175302 191.202162 
L 344.379921 190.980654 
L 344.584541 189.943238 
L 344.789161 185.947903 
L 345.1984 166.452013 
L 345.60764 146.805801 
L 345.812259 144.898306 
L 346.426119 151.470666 
L 346.630738 152.585624 
L 346.835358 154.663193 
L 347.449217 163.531459 
L 347.653837 163.177868 
L 347.858457 161.954277 
L 348.063076 163.033305 
L 348.267696 168.566404 
L 350.109274 251.07349 
L 350.165707 253 
M 351.599189 253 
L 351.950851 241.913593 
L 352.155471 239.194244 
L 352.56471 236.958647 
L 352.76933 234.363312 
L 353.17857 220.244275 
L 354.815527 145.264098 
L 355.020147 146.096193 
L 355.634006 161.529098 
L 355.838626 162.515252 
L 356.247865 158.167326 
L 356.452485 157.926617 
L 357.066344 163.331075 
L 357.680204 170.374628 
L 357.884823 170.661212 
L 358.294063 169.272577 
L 358.498682 169.904063 
L 359.112542 178.464148 
L 359.317161 177.097125 
L 359.726401 171.550313 
L 359.931021 174.755638 
L 361.158739 227.33034 
L 361.363359 227.406524 
L 361.977218 222.368991 
L 362.181838 219.361787 
L 362.591077 209.581412 
L 362.795697 207.365342 
L 363.000316 208.369735 
L 363.409556 211.909488 
L 363.614176 213.172583 
L 364.023415 217.863301 
L 364.228035 217.067586 
L 364.637274 204.92829 
L 364.841894 198.541168 
L 365.046514 195.735107 
L 365.251133 197.504891 
L 365.660373 211.017217 
L 366.069612 222.884354 
L 366.274232 223.541909 
L 366.478852 220.859862 
L 366.888091 208.330713 
L 367.91119 168.325152 
L 368.11581 163.546094 
L 368.320429 162.577754 
L 368.525049 166.005998 
L 368.934288 181.160862 
L 369.343528 197.131308 
L 369.752767 204.940221 
L 369.957387 206.918845 
L 370.162007 207.417984 
L 370.366627 206.361568 
L 370.775866 201.778352 
L 371.185105 192.746259 
L 371.594345 182.940188 
L 371.798965 182.010669 
L 372.003584 181.859121 
L 372.208204 180.436587 
L 372.617444 175.321272 
L 372.822063 174.210446 
L 373.026683 175.984896 
L 373.435922 188.940271 
L 374.049782 216.414016 
L 374.254401 219.434522 
L 374.459021 217.298233 
L 375.2775 191.29147 
L 375.891359 162.967763 
L 376.095979 159.263168 
L 376.505218 157.024113 
L 377.119078 151.0652 
L 377.323697 151.616888 
L 377.937556 154.889197 
L 378.142176 159.179348 
L 378.551416 180.090756 
L 378.960655 205.741059 
L 380.188373 246.444027 
L 380.392993 245.088678 
L 380.597613 242.47477 
L 380.802233 243.198369 
L 381.211472 250.753635 
L 381.416092 250.07629 
L 381.825331 245.503314 
L 382.029951 246.720782 
L 382.234571 248.699632 
L 382.43919 248.808986 
L 383.05305 242.737796 
L 383.257669 239.484705 
L 383.666909 223.937646 
L 384.076148 210.083876 
L 384.280768 208.90037 
L 384.485388 210.558109 
L 384.690007 211.288848 
L 384.894627 208.845518 
L 385.508486 195.972979 
L 385.917726 193.090308 
L 386.122346 190.098631 
L 386.531585 175.213096 
L 386.940824 159.349701 
L 387.145444 156.599361 
L 387.350064 158.148784 
L 387.963923 174.49255 
L 388.168543 175.532369 
L 388.577782 170.775226 
L 388.782402 170.721886 
L 388.987022 173.539504 
L 389.600881 185.309038 
L 389.805501 184.572129 
L 390.21474 176.686946 
L 391.442458 152.223963 
L 391.647078 152.403131 
L 391.851698 154.868654 
L 392.260937 164.921249 
L 392.670177 183.761863 
L 393.875812 253 
M 395.91305 253 
L 396.148712 243.831498 
L 396.762571 213.360735 
L 397.376431 176.154258 
L 397.58105 170.887961 
L 397.78567 171.660087 
L 398.604149 192.23716 
L 399.422628 208.638793 
L 400.036487 219.349399 
L 400.241107 217.769357 
L 400.650346 201.011986 
L 401.059586 183.819343 
L 401.264205 180.78255 
L 401.468825 181.052453 
L 402.287304 189.247606 
L 402.491924 189.583647 
L 402.696543 189.17784 
L 402.901163 187.220277 
L 403.105783 182.591101 
L 403.924262 156.263855 
L 404.128881 157.991888 
L 404.538121 174.387575 
L 405.15198 201.116209 
L 405.3566 203.353976 
L 405.56122 202.15592 
L 405.765839 200.294145 
L 405.970459 199.645211 
L 406.175079 199.947376 
L 406.379698 199.838045 
L 406.584318 197.908659 
L 406.788938 193.537029 
L 407.198177 177.646333 
L 408.016656 137.360381 
L 408.221276 135.138272 
L 408.425896 134.477865 
L 408.630515 134.247885 
L 408.835135 135.928453 
L 409.653614 154.105799 
L 409.858234 154.644581 
L 410.062854 153.851594 
L 410.676713 144.047375 
L 410.881332 146.750701 
L 411.085952 155.11096 
L 412.109051 219.341989 
L 412.313671 220.48393 
L 412.51829 218.141707 
L 412.92753 205.818702 
L 413.746009 167.524352 
L 413.950628 166.953943 
L 414.155248 172.548699 
L 414.564488 194.284706 
L 415.178347 228.966777 
L 415.587586 237.765726 
L 415.792206 239.969952 
L 416.406065 251.122807 
L 416.610685 249.106035 
L 417.019924 233.167224 
L 417.429164 220.076914 
L 417.633783 219.917165 
L 418.452262 233.852949 
L 418.656882 232.497212 
L 419.066122 224.357003 
L 419.679981 208.716954 
L 420.08922 195.799308 
L 420.29384 192.203106 
L 420.49846 191.412236 
L 420.703079 192.169014 
L 420.907699 192.364413 
L 421.112319 191.015064 
L 421.521558 184.795636 
L 422.135417 170.123772 
L 422.340037 169.373467 
L 422.749277 172.260247 
L 423.158516 176.259721 
L 423.567756 185.047826 
L 423.976995 193.123175 
L 424.181615 192.190207 
L 424.795474 181.385145 
L 425.000094 180.79 
L 425.204713 183.964573 
L 425.818573 197.833273 
L 426.023192 198.642647 
L 426.227812 197.823064 
L 426.637051 194.741698 
L 427.046291 194.10812 
L 427.250911 191.241115 
L 428.274009 162.848719 
L 428.683249 160.738166 
L 428.887868 157.634762 
L 429.501728 136.83653 
L 429.910967 124.666538 
L 430.115587 121.056375 
L 430.320207 120.946136 
L 430.524826 126.190767 
L 431.957164 192.990441 
L 432.730965 253 
M 433.134705 253 
L 433.184883 251.413004 
L 433.594122 220.451784 
L 434.207981 175.003743 
L 434.821841 155.951233 
L 435.02646 152.604941 
L 435.23108 151.965324 
L 435.4357 154.411678 
L 435.844939 167.69831 
L 436.254179 182.242967 
L 436.663418 189.404325 
L 436.868038 187.961644 
L 437.072658 182.377314 
L 437.686517 156.115424 
L 437.891136 152.699327 
L 438.095756 153.401726 
L 438.300376 155.364902 
L 438.504996 155.852211 
L 438.709615 153.931624 
L 439.118855 148.895625 
L 439.323475 150.597557 
L 440.141953 172.207705 
L 440.346573 171.73231 
L 440.755813 165.894457 
L 441.369672 155.827227 
L 441.574291 154.55504 
L 441.778911 155.140285 
L 441.983531 157.312845 
L 442.39277 165.57216 
L 443.00663 185.51757 
L 443.211249 187.125232 
L 443.415869 185.463997 
L 443.825108 179.297777 
L 444.438968 166.224095 
L 444.643587 165.271321 
L 444.848207 165.126726 
L 445.257447 159.710284 
L 445.462066 160.334436 
L 445.666686 168.245611 
L 446.280545 218.9275 
L 446.780215 253 
M 447.637953 253 
L 447.917503 239.244492 
L 448.735982 193.801838 
L 449.759081 151.070223 
L 450.37294 130.587382 
L 450.986799 121.818571 
L 451.396038 111.855285 
L 451.600658 110.990199 
L 451.805278 113.903753 
L 452.419137 133.499223 
L 452.828376 149.293611 
L 453.442236 174.789025 
L 453.646855 178.904559 
L 453.851475 179.448511 
L 454.056095 175.613034 
L 455.079193 139.21104 
L 455.283813 138.049556 
L 455.488433 138.219886 
L 455.693053 140.100288 
L 456.102292 151.129269 
L 456.920771 179.53813 
L 457.125391 179.259731 
L 457.33001 174.995626 
L 457.94387 156.079277 
L 458.148489 154.8475 
L 458.966968 161.213142 
L 459.171588 164.457397 
L 459.580827 179.178299 
L 460.194687 209.172256 
L 460.399306 212.897952 
L 460.603926 212.140546 
L 461.013166 207.469007 
L 461.217785 207.293366 
L 461.422405 206.518922 
L 461.831644 199.375494 
L 462.036264 196.137449 
L 462.240884 196.796515 
L 462.445504 203.364612 
L 463.263983 248.402257 
L 463.468602 249.670623 
L 464.082461 243.941892 
L 464.287081 244.182763 
L 464.491701 244.90517 
L 464.696321 244.340916 
L 465.31018 237.141892 
L 465.5148 236.614157 
L 465.719419 237.084428 
L 466.128659 238.721563 
L 466.333278 237.495948 
L 466.537898 232.108847 
L 467.151757 198.762931 
L 468.174856 137.628307 
L 468.379476 135.49046 
L 468.584095 140.333478 
L 469.402574 176.831246 
L 469.811814 185.672389 
L 470.221053 189.302993 
L 470.425673 189.400798 
L 470.834912 188.368327 
L 471.039532 188.346374 
L 471.448772 189.51816 
L 471.653391 188.711848 
L 471.858011 185.282442 
L 472.88111 160.399769 
L 473.085729 160.121649 
L 473.290349 162.289496 
L 473.699589 171.813828 
L 474.108828 189.01313 
L 474.518068 207.367148 
L 474.927307 215.490559 
L 475.336546 223.385144 
L 476.359645 247.553519 
L 476.564265 249.80452 
L 476.768885 250.699946 
L 476.973504 248.732298 
L 477.791983 228.329222 
L 477.996603 226.13205 
L 478.815082 212.10395 
L 479.224321 208.511477 
L 479.83818 196.67837 
L 480.0428 196.123155 
L 480.24742 200.543366 
L 480.656659 222.518159 
L 481.144408 253 
M 482.532987 253 
L 483.112096 217.857999 
L 483.316716 211.053999 
L 483.521335 211.648818 
L 483.725955 220.255322 
L 484.297439 253 
M 484.696527 253 
L 484.953674 248.84759 
L 485.158293 247.959024 
L 485.649302 253 
M 485.812391 253 
L 485.976772 250.590863 
L 486.386012 234.103595 
L 487.204491 194.959361 
L 487.61373 182.065055 
L 487.81835 181.462384 
L 488.022969 186.731122 
L 488.841448 220.019954 
L 489.250688 228.399244 
L 489.961097 253 
M 490.81849 253 
L 491.092265 241.258442 
L 491.501505 225.400311 
L 491.910744 217.579313 
L 492.115364 215.987147 
L 492.319984 217.004331 
L 492.524603 221.087106 
L 492.933843 236.564437 
L 493.333111 253 
M 493.958936 253 
L 494.570801 231.839363 
L 495.18466 200.092575 
L 496.207759 135.451096 
L 496.412378 138.650158 
L 496.821618 162.916307 
L 497.640097 226.209615 
L 497.844716 234.668035 
L 498.049336 237.133071 
L 498.253956 231.697443 
L 499.072435 182.218464 
L 499.277054 179.904775 
L 499.481674 183.105999 
L 500.095533 201.436761 
L 500.300153 203.747768 
L 500.504773 201.913893 
L 501.323252 178.827816 
L 501.732491 176.365208 
L 502.141731 172.035607 
L 502.34635 171.794922 
L 502.55097 174.146618 
L 503.164829 185.315472 
L 503.369449 184.637073 
L 503.778688 173.575984 
L 504.187928 165.578261 
L 504.392548 165.114734 
L 504.597167 165.80297 
L 505.211027 170.879434 
L 505.415646 169.05369 
L 505.824886 157.817898 
L 506.234125 147.748009 
L 506.438745 147.507308 
L 506.847984 152.44306 
L 507.052604 150.939815 
L 507.871083 130.983631 
L 508.075703 134.240482 
L 508.689562 149.485731 
L 508.894182 151.072526 
L 509.098801 151.029899 
L 509.303421 150.208951 
L 509.712661 146.263647 
L 510.1219 141.902404 
L 510.32652 138.103314 
L 510.940379 121.604319 
L 511.144999 120.522074 
L 511.349618 122.597209 
L 511.758858 136.633735 
L 512.168097 152.081927 
L 512.577337 161.778303 
L 513.395816 189.257622 
L 513.600435 189.790659 
L 514.418914 185.251024 
L 514.623534 185.218451 
L 514.828154 186.812129 
L 515.442013 195.440322 
L 515.646633 193.837551 
L 516.260492 183.239919 
L 516.465112 183.21716 
L 516.669731 186.370881 
L 517.69283 211.475666 
L 517.89745 214.066754 
L 518.102069 215.225098 
L 518.306689 214.362431 
L 518.715928 207.698568 
L 519.534407 189.785589 
L 520.557506 159.576783 
L 521.171365 134.634738 
L 521.375985 131.825802 
L 521.580605 131.63324 
L 521.785224 132.697539 
L 521.989844 133.044797 
L 522.194464 130.872601 
L 522.603703 122.023164 
L 522.808323 121.273805 
L 523.217562 127.677253 
L 523.626802 141.203835 
L 524.445281 176.381874 
L 525.05914 200.030816 
L 525.672999 227.035864 
L 525.877619 228.384438 
L 526.286858 223.549839 
L 526.491478 223.119993 
L 526.696098 225.431256 
L 527.105337 232.130203 
L 527.309957 231.797953 
L 527.514577 227.973298 
L 527.923816 210.558558 
L 528.537675 179.28584 
L 528.742295 177.041134 
L 528.946915 179.39328 
L 530.379253 210.043955 
L 530.583873 209.35754 
L 531.197732 196.121442 
L 531.402352 196.605247 
L 531.811591 202.507975 
L 532.016211 202.575455 
L 532.63007 196.272555 
L 533.243929 202.544262 
L 533.448549 200.790881 
L 533.857788 191.485777 
L 535.290126 149.445406 
L 535.699366 144.253798 
L 535.903986 145.280835 
L 536.108605 151.35956 
L 536.927084 193.92248 
L 538.154803 215.85177 
L 538.359422 215.972891 
L 538.564042 212.956067 
L 538.973281 198.462603 
L 539.79176 156.407969 
L 539.99638 152.334264 
L 540.40562 149.356788 
L 540.610239 146.067612 
L 541.428718 124.616639 
L 541.633338 126.080009 
L 542.247197 137.486077 
L 543.065676 147.948804 
L 543.474915 154.107133 
L 544.293394 170.281591 
L 544.498014 171.237776 
L 544.702634 167.198776 
L 545.521113 133.011433 
L 545.725732 133.12964 
L 545.930352 136.393367 
L 546.339592 150.530155 
L 547.36269 201.457792 
L 547.77193 211.244182 
L 548.181169 213.967841 
L 548.590409 220.489984 
L 548.795028 221.259824 
L 548.999648 218.916267 
L 549.408888 212.634251 
L 550.022747 210.021032 
L 550.431986 203.41151 
L 551.250465 184.627035 
L 551.455085 184.215135 
L 551.659705 188.818203 
L 552.273564 212.974827 
L 552.478183 213.597839 
L 552.682803 209.937468 
L 553.296662 195.262999 
L 553.705902 191.942366 
L 553.910522 191.967381 
L 554.524381 198.450061 
L 554.729 197.773049 
L 554.93362 194.165871 
L 555.547479 177.05201 
L 555.752099 174.941046 
L 555.956719 176.079259 
L 556.365958 181.188737 
L 556.570578 180.229707 
L 556.979817 175.977842 
L 557.184437 177.17362 
L 557.389057 180.452006 
L 557.593677 185.90309 
L 558.412155 215.134983 
L 559.026015 218.922973 
L 559.639874 225.944356 
L 559.844494 228.310431 
L 560.049113 229.23978 
L 560.253733 228.243595 
L 560.458353 225.28708 
L 561.072212 210.330492 
L 561.276832 209.589583 
L 561.890691 216.553486 
L 562.095311 216.450534 
L 562.29993 217.467377 
L 562.50455 222.098631 
L 563.118409 246.920732 
L 563.323029 249.261079 
L 563.527649 246.503972 
L 564.346128 224.687013 
L 565.573846 203.004866 
L 565.778466 202.875217 
L 566.187705 206.614564 
L 566.392325 206.031744 
L 567.210804 194.377697 
L 568.438522 158.192745 
L 568.643142 158.149823 
L 569.461621 161.651453 
L 570.484719 173.599898 
L 570.689339 179.67891 
L 571.507818 220.350669 
L 571.712438 220.735515 
L 572.326297 211.058736 
L 572.530917 210.927529 
L 572.735536 213.936151 
L 573.554015 233.754384 
L 573.963255 244.551594 
L 574.250229 253 
M 574.492724 253 
L 574.577114 251.520723 
L 574.986353 223.732983 
L 575.395593 195.389098 
L 575.600213 187.92721 
L 575.804832 184.610748 
L 576.009452 184.195895 
L 576.214072 184.45827 
L 576.418691 183.312453 
L 577.44179 169.95045 
L 577.64641 167.981189 
L 577.85103 169.035062 
L 578.464889 182.113985 
L 578.669508 181.323735 
L 579.078748 175.203817 
L 579.283368 176.15001 
L 580.101847 197.28484 
L 580.306466 197.415629 
L 580.511086 195.770425 
L 580.920325 190.056127 
L 581.124945 188.872202 
L 581.329565 189.455293 
L 582.352664 196.650526 
L 583.171142 204.020709 
L 583.375762 203.10088 
L 583.580382 203.032145 
L 583.785002 205.240975 
L 584.603481 222.180351 
L 584.8081 223.002647 
L 585.01272 221.378768 
L 586.035819 202.778808 
L 586.854298 177.209395 
L 587.263537 174.135571 
L 587.468157 170.961076 
L 588.082016 156.283211 
L 588.286636 154.13345 
L 588.491255 154.048374 
L 588.695875 154.906545 
L 588.900495 154.163946 
L 589.514354 142.735444 
L 589.718974 143.175088 
L 590.128213 148.89761 
L 591.151312 175.146864 
L 591.560551 188.340684 
L 591.969791 204.100561 
L 592.17441 207.365024 
L 592.37903 205.845771 
L 592.992889 193.868783 
L 593.402129 190.099809 
L 593.606749 186.279495 
L 594.629847 157.042291 
L 594.834467 157.548949 
L 595.243706 163.109327 
L 595.652946 169.185881 
L 595.857565 168.124868 
L 596.266805 162.068965 
L 596.471425 160.848575 
L 596.676044 163.134288 
L 597.289904 179.222096 
L 597.494523 178.307407 
L 597.903763 169.233493 
L 598.517622 153.939352 
L 599.336101 142.559796 
L 599.540721 141.254555 
L 599.74534 144.248596 
L 600.15458 167.182861 
L 600.563819 194.047353 
L 600.768439 199.891765 
L 600.973059 198.573477 
L 601.791538 171.330325 
L 601.996157 170.120904 
L 602.200777 170.938223 
L 602.814636 175.447386 
L 603.019256 175.281513 
L 603.223876 171.480214 
L 603.633115 151.20619 
L 604.246974 110.816031 
L 604.451594 105.744987 
L 604.656214 108.188076 
L 605.065453 129.083539 
L 605.474693 147.959866 
L 606.088552 163.358555 
L 606.907031 192.504643 
L 607.11165 195.031856 
L 607.31627 195.45836 
L 607.72551 194.62684 
L 607.930129 194.571732 
L 608.134749 195.931143 
L 608.543989 206.264934 
L 608.953228 213.855657 
L 609.157848 214.152597 
L 609.362467 212.64098 
L 609.567087 208.849316 
L 610.385566 186.487406 
L 610.590186 186.415523 
L 610.999425 195.88674 
L 611.408665 203.807286 
L 611.613284 204.689876 
L 611.817904 203.147678 
L 612.227144 198.77545 
L 612.636383 196.73716 
L 613.045623 192.177037 
L 614.068721 177.871127 
L 614.273341 177.165078 
L 614.477961 177.661007 
L 614.68258 177.646224 
L 615.09182 175.044323 
L 615.29644 175.000037 
L 615.705679 176.407703 
L 615.910299 177.715463 
L 616.524158 185.273101 
L 616.933397 185.710807 
L 617.138017 186.326246 
L 617.342637 185.698985 
L 617.547257 182.320547 
L 618.161116 160.851947 
L 618.570355 149.918786 
L 618.774975 149.395896 
L 618.979595 154.273401 
L 619.593454 187.950613 
L 620.207313 215.162975 
L 620.616552 223.614272 
L 620.821172 225.424814 
L 621.025792 226.133306 
L 621.230412 225.073867 
L 621.435031 221.077215 
L 622.25351 192.814057 
L 622.45813 193.398977 
L 623.071989 208.145685 
L 624.095088 216.269189 
L 624.299708 213.093065 
L 624.913567 194.883781 
L 625.118186 193.487379 
L 625.322806 194.390929 
L 625.527426 196.566085 
L 625.732046 200.355695 
L 626.345905 219.539233 
L 626.550525 221.338481 
L 626.755144 219.210588 
L 627.778243 198.903797 
L 627.982863 197.979278 
L 628.187482 199.003679 
L 628.596722 202.55544 
L 628.801342 202.872419 
L 629.005961 202.167974 
L 629.210581 200.423461 
L 629.61982 192.930969 
L 629.82444 189.060493 
L 630.02906 187.431568 
L 630.23368 189.148786 
L 631.256778 208.82872 
L 631.461398 211.213477 
L 631.666018 210.208587 
L 632.075257 204.331541 
L 632.279877 205.022832 
L 632.689116 209.1258 
L 632.893736 207.363985 
L 633.712215 186.529924 
L 634.121454 183.975829 
L 634.326074 183.537991 
L 634.530694 184.774342 
L 634.939933 188.793529 
L 635.144553 187.013932 
L 635.553792 175.014269 
L 635.963032 162.74593 
L 636.167652 161.780497 
L 636.372271 167.455903 
L 636.986131 198.594384 
L 637.19075 203.343721 
L 637.39537 205.285625 
L 637.59999 205.083513 
L 637.804609 204.175598 
L 638.009229 204.875834 
L 638.623088 212.850821 
L 638.827708 212.269257 
L 639.236948 208.847339 
L 639.441567 210.451149 
L 640.055426 221.556524 
L 640.260046 223.740688 
L 641.283145 239.105052 
L 641.487765 238.238261 
L 641.897004 231.452967 
L 642.101624 228.246355 
L 642.306243 227.427772 
L 642.510863 227.987011 
L 642.715483 227.458508 
L 642.920103 224.223192 
L 644.55706 177.691433 
L 644.76168 177.352175 
L 645.375539 190.082546 
L 645.580159 188.415597 
L 646.194018 174.836304 
L 646.398638 174.038914 
L 646.807877 175.835441 
L 647.012497 175.0042 
L 647.830976 167.131862 
L 648.035596 167.612978 
L 648.240216 170.633616 
L 648.649455 183.733879 
L 649.467934 218.953964 
L 649.672554 219.671774 
L 650.286413 213.796875 
L 650.491033 213.402401 
L 650.695652 213.713767 
L 650.900272 214.70382 
L 651.104892 216.70822 
L 651.514131 223.624938 
L 651.718751 224.19851 
L 651.923371 220.65078 
L 652.74185 194.620785 
L 653.151089 180.096252 
L 653.355709 175.918238 
L 653.560328 176.117158 
L 653.764948 181.063677 
L 654.378807 202.561246 
L 654.788047 208.734132 
L 654.992667 207.192593 
L 655.401906 199.650683 
L 655.606526 200.227968 
L 655.811145 205.026824 
L 656.629624 238.014629 
L 656.834244 238.797011 
L 657.038864 234.778165 
L 657.857343 206.227113 
L 658.061962 204.290046 
L 658.266582 206.446016 
L 659.289681 227.48212 
L 659.494301 225.703779 
L 659.90354 218.853245 
L 660.10816 218.213985 
L 660.312779 221.218026 
L 660.722019 231.271861 
L 660.926639 231.070927 
L 661.745118 210.199029 
L 661.949737 206.448396 
L 662.972836 178.489838 
L 663.995935 159.515334 
L 664.200554 159.536504 
L 664.405174 159.704052 
L 664.609794 157.353666 
L 665.223653 139.111716 
L 665.428273 138.981811 
L 665.837512 148.219575 
L 666.451371 163.267843 
L 666.860611 171.316736 
L 667.06523 173.264416 
L 667.26985 171.565484 
L 667.67909 158.123172 
L 668.088329 140.314315 
L 668.292949 136.164418 
L 668.497569 137.653834 
L 668.906808 152.351558 
L 669.316047 166.125143 
L 669.520667 167.467678 
L 669.725287 164.81898 
L 670.134526 155.806375 
L 670.339146 153.755526 
L 670.543766 154.887049 
L 670.953005 161.078385 
L 671.157625 161.648724 
L 671.362245 160.355048 
L 671.566864 159.783686 
L 671.771484 161.859682 
L 672.385343 173.300237 
L 672.589963 172.734014 
L 673.203822 162.912237 
L 673.408442 162.422804 
L 673.817681 163.549683 
L 674.226921 165.230159 
L 674.431541 167.205001 
L 674.63616 172.26096 
L 675.0454 192.777926 
L 675.454639 212.27842 
L 675.659259 216.546595 
L 676.068498 219.375701 
L 676.273118 219.719137 
L 676.477738 218.525057 
L 677.091597 211.213237 
L 677.296217 211.191671 
L 677.705456 212.836914 
L 677.910076 211.259856 
L 678.319315 205.839841 
L 678.523935 205.372919 
L 678.728555 205.341865 
L 678.933175 203.942005 
L 679.956273 189.368643 
L 680.160893 191.996296 
L 680.570132 209.407307 
L 681.289015 253 
M 682.559734 253 
L 683.025569 228.352291 
L 684.457907 156.411535 
L 684.867147 143.98388 
L 685.071766 144.524297 
L 685.890245 165.846334 
L 686.094865 164.173471 
L 686.504104 152.211359 
L 686.913344 142.35111 
L 687.117964 140.681022 
L 687.322583 141.311701 
L 687.731823 147.317249 
L 688.141062 159.259207 
L 688.550302 175.871867 
L 688.754921 178.852421 
L 688.959541 176.653358 
L 689.98264 149.843911 
L 690.18726 146.557061 
L 690.391879 145.511962 
L 690.596499 147.157562 
L 691.210358 157.664971 
L 691.414978 158.104862 
L 691.619598 155.746973 
L 692.028837 149.135505 
L 692.233457 148.740736 
L 692.438077 151.431241 
L 692.847316 161.022045 
L 693.051936 163.320742 
L 693.256555 162.425152 
L 694.279654 148.00471 
L 694.484274 147.491076 
L 694.688894 147.470975 
L 694.893513 148.121297 
L 695.098133 150.410405 
L 696.121232 169.144215 
L 696.939711 182.908692 
L 697.14433 181.939228 
L 697.34895 176.868176 
L 697.758189 155.14789 
L 698.167429 131.948715 
L 698.372049 127.206719 
L 698.576668 127.628037 
L 698.985908 135.428864 
L 699.395147 150.629347 
L 700.009006 176.960546 
L 700.622866 197.419443 
L 701.236725 239.196446 
L 701.441345 243.33129 
L 701.645964 238.954644 
L 702.259823 207.033115 
L 702.873683 173.362406 
L 703.078302 170.464456 
L 703.282922 174.198392 
L 704.51064 218.787355 
L 704.91988 223.287161 
L 705.1245 223.145047 
L 705.329119 219.677502 
L 706.352218 185.195598 
L 706.556838 185.445664 
L 706.761457 189.393588 
L 707.784556 221.577919 
L 707.989176 220.343576 
L 708.398415 212.182406 
L 708.603035 210.883886 
L 708.807655 214.395368 
L 709.216894 232.44881 
L 709.626134 250.21783 
L 709.793183 253 
M 709.958529 253 
L 710.035373 252.623688 
L 710.239993 248.049108 
L 711.467711 208.494136 
L 712.28619 195.630838 
L 712.49081 196.020963 
L 712.900049 199.831742 
L 713.309289 203.389658 
L 713.513908 201.066946 
L 713.923148 185.936966 
L 714.332387 172.561521 
L 714.946246 159.72902 
L 715.560106 144.222845 
L 715.764725 144.431547 
L 716.173965 152.459114 
L 716.787824 167.352463 
L 716.992444 169.495512 
L 717.197063 168.796043 
L 717.401683 165.412706 
L 718.220162 142.654856 
L 718.424782 142.772792 
L 718.834021 147.997579 
L 719.038641 151.411233 
L 719.44788 164.281028 
L 720.675599 219.918366 
L 720.880219 222.915609 
L 721.084838 223.809323 
L 721.289458 224.110666 
L 721.698697 225.90345 
L 721.903317 225.908853 
L 722.107937 223.730595 
L 723.131036 205.825291 
L 723.335655 204.962926 
L 723.540275 206.122185 
L 723.744895 206.552193 
L 723.949514 204.251039 
L 724.563374 190.257302 
L 724.972613 177.915894 
L 725.177233 175.554175 
L 725.381853 179.443023 
L 726.200331 214.530684 
L 726.404951 215.305678 
L 726.609571 210.402894 
L 727.01881 194.000563 
L 727.22343 190.280341 
L 727.42805 191.6872 
L 727.837289 199.790069 
L 728.041909 200.55173 
L 728.246529 200.031251 
L 728.451148 201.332647 
L 728.860388 212.806729 
L 729.269627 221.799318 
L 729.474247 219.933544 
L 729.678867 212.882929 
L 730.701965 157.762938 
L 730.906585 158.020678 
L 731.111205 164.637952 
L 731.929684 202.123936 
L 732.134304 207.48465 
L 732.338923 209.41781 
L 732.543543 208.912625 
L 732.952782 205.863143 
L 733.566642 198.325109 
L 733.771261 199.722853 
L 734.180501 212.279133 
L 734.58974 225.33349 
L 734.79436 228.669022 
L 734.99898 229.035977 
L 735.203599 226.062834 
L 735.612839 211.062394 
L 736.022078 194.104368 
L 736.431318 184.878976 
L 736.635938 182.720501 
L 736.840557 183.447442 
L 737.045177 187.884731 
L 737.454416 204.248744 
L 738.068276 233.870127 
L 738.272895 238.828662 
L 738.477515 238.04321 
L 738.682135 231.99626 
L 739.705233 189.112539 
L 739.909853 191.313865 
L 740.728332 215.222897 
L 740.932952 215.553666 
L 741.546811 209.607187 
L 741.751431 209.468088 
L 741.95605 208.656312 
L 742.16067 205.279292 
L 742.56991 188.196183 
L 742.979149 174.730453 
L 743.183769 173.686796 
L 743.388389 174.080363 
L 743.593008 173.698525 
L 744.002248 169.393653 
L 744.206867 168.80995 
L 744.411487 168.970567 
L 744.820727 167.092096 
L 745.025346 168.195356 
L 745.229966 172.878267 
L 745.639206 193.03251 
L 746.457684 240.312 
L 746.795488 253 
M 748.264019 253 
L 748.503882 241.481841 
L 748.913121 221.68653 
L 749.117741 216.400295 
L 749.322361 215.15582 
L 749.52698 217.745427 
L 750.949644 253 
M 751.583639 253 
L 751.777797 251.222883 
L 751.982417 248.039798 
L 752.187037 241.165048 
L 753.210135 184.322823 
L 753.619375 178.670207 
L 754.028614 173.334918 
L 754.642473 160.808351 
L 755.051713 156.655934 
L 755.256333 157.230916 
L 755.460952 159.045629 
L 755.665572 159.594178 
L 756.074812 156.554137 
L 756.279431 160.050178 
L 756.688671 184.332745 
L 757.09791 207.896612 
L 757.30253 213.765394 
L 757.50715 216.214763 
L 757.711769 214.203643 
L 757.916389 206.859645 
L 758.939488 148.667187 
L 759.144107 145.484738 
L 759.348727 145.515342 
L 759.553347 147.596361 
L 760.167206 158.781192 
L 760.576446 168.913646 
L 761.394924 203.926246 
L 761.599544 206.613944 
L 761.804164 206.358173 
L 762.008784 205.355175 
L 762.213403 205.622224 
L 762.418023 208.479826 
L 762.827263 220.896357 
L 763.441122 241.057639 
L 763.645741 240.307543 
L 764.054981 227.527243 
L 764.46422 216.841094 
L 764.87346 212.089586 
L 765.07808 210.434483 
L 765.282699 210.145705 
L 765.691939 212.172468 
L 765.896558 209.041933 
L 766.510418 189.296016 
L 766.715037 187.831429 
L 766.919657 190.167125 
L 767.738136 211.031124 
L 767.942756 212.243583 
L 768.147375 212.17191 
L 768.351995 211.513495 
L 768.556615 210.061683 
L 768.761235 207.1905 
L 769.375094 194.850952 
L 769.579714 195.796734 
L 769.784333 201.015668 
L 770.807432 241.819145 
L 771.012052 244.735072 
L 771.216671 244.586958 
L 771.421291 242.985381 
L 771.625911 242.457537 
L 771.830531 243.404684 
L 772.03515 242.768268 
L 772.23977 237.186853 
L 773.058249 201.715074 
L 773.467488 195.100118 
L 774.081348 187.139495 
L 774.490587 173.245013 
L 775.513686 124.211576 
L 775.718305 124.935479 
L 775.922925 130.567715 
L 776.332165 152.632305 
L 776.741404 175.397829 
L 776.946024 179.885945 
L 777.150643 178.614301 
L 778.173742 158.673876 
L 778.378362 156.434302 
L 778.582982 156.286599 
L 778.787601 158.652411 
L 780.01532 183.559557 
L 780.219939 183.885869 
L 780.424559 180.976911 
L 781.038418 168.744579 
L 781.652277 163.376733 
L 782.470756 145.343988 
L 783.084616 142.113842 
L 783.289235 142.498092 
L 784.107714 152.959424 
L 784.312334 150.737059 
L 784.721573 144.465756 
L 784.926193 145.498715 
L 785.335433 150.611976 
L 785.540052 152.350209 
L 785.744672 155.829878 
L 786.563151 183.716849 
L 787.38163 195.17728 
L 787.790869 197.329344 
L 787.995489 200.018142 
L 788.813968 220.522185 
L 789.427827 224.591968 
L 789.837066 233.387848 
L 790.246306 244.986463 
L 790.450926 247.533124 
L 790.655545 245.882897 
L 791.064785 238.184076 
L 791.269405 236.685505 
L 791.474024 237.028088 
L 791.678644 239.682856 
L 792.087883 250.514151 
L 792.292503 252.476916 
L 792.497123 248.036193 
L 793.315602 209.147776 
L 794.3387 184.541509 
L 794.74794 173.384204 
L 795.157179 164.8778 
L 795.566419 150.43811 
L 795.975658 136.479195 
L 796.180278 136.853755 
L 797.203377 165.639663 
L 797.407996 168.439646 
L 797.612616 173.549775 
L 798.431095 204.076228 
L 798.635715 203.951974 
L 799.044954 196.386197 
L 800.068053 172.795153 
L 800.272673 170.873558 
L 800.477292 170.5323 
L 800.886532 172.32713 
L 801.091151 173.134193 
L 801.295771 173.432963 
L 801.500391 174.050108 
L 801.90963 178.856568 
L 802.11425 181.131412 
L 802.31887 181.108436 
L 802.52349 177.603845 
L 803.341968 153.813533 
L 803.751208 149.403547 
L 803.955828 150.176123 
L 804.365067 157.267226 
L 804.569687 163.311726 
L 804.978926 186.852229 
L 805.592785 224.79088 
L 805.797405 230.224794 
L 806.002025 232.45219 
L 806.206645 231.952439 
L 807.638983 213.429563 
L 807.843602 213.038578 
L 808.048222 213.149413 
L 808.252842 211.422946 
L 808.662081 199.841742 
L 809.68518 162.856843 
L 810.094419 160.747298 
L 810.299039 157.927323 
L 810.708279 148.057973 
L 810.912898 147.439123 
L 811.117518 152.911781 
L 811.935997 186.248511 
L 812.549856 213.633536 
L 813.236927 253 
M 814.257433 253 
L 814.800673 236.976608 
L 815.823772 216.309079 
L 816.233011 210.450335 
L 816.437631 209.18738 
L 816.84687 209.110932 
L 817.05149 208.069593 
L 817.46073 202.40838 
L 817.869969 197.036558 
L 818.074589 195.94791 
L 818.279209 196.448304 
L 818.893068 200.892468 
L 819.097687 200.563102 
L 819.506927 197.80787 
L 819.916166 193.304893 
L 820.325406 185.006485 
L 820.939265 165.980696 
L 821.553124 143.803868 
L 821.757744 140.531994 
L 821.962364 140.601481 
L 822.371603 144.947274 
L 822.576223 149.783858 
L 823.190082 173.709114 
L 823.394702 176.430106 
L 823.599321 174.041837 
L 824.4178 147.354349 
L 824.62242 149.597226 
L 825.440899 176.659358 
L 825.850138 190.598777 
L 826.054758 193.136826 
L 826.259378 190.112212 
L 826.668617 172.549738 
L 827.077857 152.477486 
L 827.282476 147.366946 
L 827.487096 147.420596 
L 827.896336 152.873262 
L 828.100955 153.793022 
L 828.305575 153.440718 
L 828.714815 150.426669 
L 829.124054 147.148795 
L 829.328674 146.540247 
L 829.533293 147.685739 
L 829.737913 151.471565 
L 830.351772 167.188722 
L 831.579491 174.776731 
L 831.78411 174.685554 
L 832.19335 169.619021 
L 832.39797 170.224863 
L 832.807209 180.255435 
L 833.216449 190.748937 
L 833.421068 193.574672 
L 833.625688 193.832683 
L 833.830308 190.822967 
L 834.239547 173.790725 
L 834.648787 152.6827 
L 834.853406 148.180917 
L 835.058026 148.841029 
L 835.467266 153.224039 
L 835.671885 151.259856 
L 836.285744 136.251021 
L 836.899604 118.062767 
L 837.104223 117.037242 
L 837.308843 121.749611 
L 837.718083 145.020831 
L 838.127322 168.777392 
L 838.536561 181.098064 
L 838.945801 187.852692 
L 839.150421 189.664444 
L 839.35504 188.351257 
L 839.55966 182.450568 
L 840.378139 144.877516 
L 840.582759 143.455378 
L 840.991998 148.065399 
L 841.196618 146.523333 
L 841.605857 131.229122 
L 842.015097 119.748196 
L 842.219717 119.490216 
L 842.628956 120.571933 
L 842.833576 122.101977 
L 843.038195 126.721138 
L 844.675153 189.934672 
L 844.879773 193.066564 
L 845.084393 191.93077 
L 845.289012 185.593344 
L 846.107491 146.50379 
L 846.516731 138.351279 
L 846.721351 135.966529 
L 846.92597 135.132854 
L 847.13059 136.131372 
L 847.539829 139.501407 
L 847.744449 139.771022 
L 847.949069 138.970152 
L 848.358308 134.794379 
L 848.767548 128.846644 
L 848.972168 127.8357 
L 849.176787 130.221279 
L 849.586027 137.336165 
L 849.790646 135.386679 
L 850.199886 119.295901 
L 850.609125 102.904904 
L 850.813745 99.174402 
L 851.018365 98.840167 
L 851.222985 101.789698 
L 851.836844 122.574542 
L 852.041463 121.990483 
L 853.064562 94.150356 
L 853.269182 94.932273 
L 853.678421 107.21131 
L 854.087661 117.595434 
L 854.29228 117.701138 
L 854.70152 115.039005 
L 854.90614 114.632733 
L 855.110759 114.841753 
L 855.315379 116.515344 
L 855.724619 126.809454 
L 856.133858 140.398081 
L 856.338478 143.692428 
L 856.543097 142.288413 
L 857.361576 119.763102 
L 858.589295 139.546902 
L 859.407774 167.316061 
L 859.612393 166.079415 
L 860.430872 147.14219 
L 860.840112 133.010572 
L 861.658591 101.54378 
L 861.86321 98.646512 
L 862.27245 96.724018 
L 862.47707 95.678369 
L 862.886309 90.951528 
L 863.295548 86.168121 
L 863.909408 83.465059 
L 864.114027 83.160398 
L 864.318647 84.629931 
L 864.727886 89.849019 
L 864.932506 89.709936 
L 865.137126 87.245692 
L 865.750985 74.656994 
L 865.955605 73.954571 
L 866.364844 76.235625 
L 866.569464 75.231162 
L 866.978703 68.143501 
L 868.206422 38.503832 
L 868.820281 16.397901 
L 869.024901 14.528267 
L 869.22952 16.91428 
L 869.63876 24.217403 
L 869.84338 25.526155 
L 870.047999 24.075397 
L 870.661859 12.335436 
L 870.866478 11.367476 
L 871.071098 11.679944 
L 871.684957 15.617721 
L 871.889577 12.362606 
L 872.195597 -1 
M 873.864265 -1 
L 874.345014 21.977395 
L 874.549633 25.293477 
L 874.754253 24.237867 
L 875.163493 18.2769 
L 875.368112 12.188036 
L 875.610912 -1 
M 878.460047 -1 
L 878.846648 17.298025 
L 879.051267 17.881039 
L 879.255887 10.631985 
L 879.437796 -1 
M 959.083338 -1 
L 959.876059 55.763341 
L 960.080679 62.258749 
L 960.285299 62.844041 
L 960.489919 57.007405 
L 961.308398 22.8019 
L 961.513017 17.347211 
L 961.717637 14.890578 
L 961.922257 16.87111 
L 962.536116 34.773648 
L 962.740736 34.721571 
L 962.945355 29.504591 
L 963.354595 14.353037 
L 963.559215 13.288459 
L 963.763834 18.643777 
L 964.173074 41.760528 
L 964.582313 66.975908 
L 964.991553 80.172209 
L 965.400792 87.866395 
L 965.605412 86.877815 
L 966.014651 72.305809 
L 966.423891 57.146325 
L 966.62851 54.754374 
L 966.83313 56.351758 
L 967.24237 67.85563 
L 968.060849 104.358507 
L 968.470088 118.518883 
L 968.674708 118.227423 
L 969.697806 96.075494 
L 969.902426 96.154562 
L 970.311666 105.396729 
L 970.925525 121.580629 
L 971.334764 127.70733 
L 971.539384 128.717538 
L 971.744004 128.221492 
L 971.948623 125.306433 
L 973.380961 89.462228 
L 973.585581 87.684212 
L 973.790201 89.535118 
L 974.19944 97.402975 
L 974.40406 97.551089 
L 974.8133 92.304326 
L 975.017919 92.978283 
L 975.427159 104.067922 
L 976.654877 137.120951 
L 976.859497 139.892384 
L 977.064117 140.237782 
L 977.268736 138.289792 
L 977.882595 126.496607 
L 978.291835 118.222695 
L 978.496455 117.76278 
L 978.701074 120.295667 
L 979.314934 132.964302 
L 979.724173 147.799086 
L 980.133412 164.7134 
L 980.338032 168.897398 
L 980.542652 169.561224 
L 980.951891 167.595699 
L 981.156511 169.213044 
L 981.361131 173.98138 
L 982.17961 203.528973 
L 982.384229 201.612782 
L 982.588849 193.921441 
L 983.407328 143.351255 
L 983.611948 141.150913 
L 983.816567 141.730818 
L 984.021187 141.176502 
L 984.225807 139.199598 
L 984.430427 138.303861 
L 984.839666 140.990009 
L 985.044286 140.787075 
L 986.067384 129.209157 
L 986.272004 128.79987 
L 986.681244 129.75359 
L 986.885863 130.309324 
L 987.090483 131.519838 
L 987.499723 137.267639 
L 987.704342 141.701446 
L 988.113582 160.121758 
L 989.3413 235.210235 
L 989.54592 236.198149 
L 989.75054 228.92756 
L 990.159779 207.170399 
L 990.364399 203.233599 
L 990.569018 207.326141 
L 991.182878 240.165034 
L 991.387497 243.649571 
L 991.592117 242.231161 
L 992.001357 237.579249 
L 992.615216 234.779367 
L 993.229075 229.104131 
L 993.638314 223.373423 
L 994.047554 212.616135 
L 994.456793 201.636944 
L 994.661413 199.312255 
L 994.866033 199.72714 
L 995.275272 207.57747 
L 995.479892 211.688771 
L 995.684512 213.423858 
L 995.889131 213.37768 
L 996.093751 214.081374 
L 996.70761 223.72403 
L 996.91223 222.902028 
L 997.11685 217.690575 
L 997.730709 193.488363 
L 997.935329 191.106714 
L 998.139948 194.903982 
L 998.549188 221.193926 
L 999.030753 253 
M 999.791634 253 
L 1000.186146 229.287694 
L 1000.800005 190.296077 
L 1001.209244 179.523797 
L 1001.618484 175.457913 
L 1002.027723 171.934307 
L 1002.641582 165.420171 
L 1003.460061 160.274895 
L 1003.664681 162.018842 
L 1004.27854 176.114189 
L 1004.48316 175.143763 
L 1005.097019 162.184955 
L 1005.301639 161.584803 
L 1005.710878 164.660548 
L 1005.915498 165.003914 
L 1006.529357 161.557873 
L 1006.733977 162.61525 
L 1006.938597 166.024928 
L 1007.347836 180.347116 
L 1008.780174 246.807618 
L 1008.984794 249.467169 
L 1009.189414 249.676119 
L 1009.394033 248.414815 
L 1009.803273 241.880656 
L 1010.212512 230.592563 
L 1010.621752 211.145525 
L 1011.030991 187.775616 
L 1011.235611 180.834976 
L 1011.440231 178.142472 
L 1011.64485 178.102542 
L 1012.05409 179.878667 
L 1012.25871 180.367271 
L 1012.463329 181.168939 
L 1013.077188 185.196839 
L 1013.486428 188.381133 
L 1013.895667 190.380021 
L 1014.100287 193.431085 
L 1015.123386 218.260077 
L 1015.328005 217.596716 
L 1015.941865 211.695818 
L 1016.146484 211.316708 
L 1016.351104 210.425522 
L 1016.555724 207.419961 
L 1017.783442 181.748851 
L 1017.988062 179.116579 
L 1018.192682 178.540186 
L 1018.397301 181.607668 
L 1018.806541 191.811617 
L 1019.01116 191.241495 
L 1019.62502 170.281568 
L 1019.829639 170.203321 
L 1020.238879 175.801442 
L 1020.852738 179.549331 
L 1021.261977 187.233277 
L 1021.875837 198.51037 
L 1022.080456 200.848252 
L 1022.285076 201.464017 
L 1022.489696 199.189552 
L 1022.898935 192.054225 
L 1023.103555 193.308467 
L 1024.331273 222.549631 
L 1024.535893 222.506051 
L 1024.740513 218.807192 
L 1025.149752 204.816083 
L 1025.558992 189.513672 
L 1025.763611 186.368532 
L 1025.968231 187.69854 
L 1026.377471 192.787925 
L 1026.58209 190.86854 
L 1026.99133 177.51994 
L 1027.400569 165.032511 
L 1027.605189 162.48019 
L 1027.809809 161.655367 
L 1028.219048 161.879247 
L 1028.423668 160.661284 
L 1028.832907 156.731049 
L 1029.037527 157.840425 
L 1029.242147 162.711806 
L 1029.651386 184.911006 
L 1030.488526 253 
M 1031.740813 253 
L 1032.516062 216.774095 
L 1032.720682 212.6927 
L 1032.925302 213.312821 
L 1033.334541 224.465761 
L 1033.948401 246.001817 
L 1034.15302 249.788597 
L 1034.35764 249.727877 
L 1034.766879 240.654041 
L 1035.176119 233.390305 
L 1035.380739 233.305454 
L 1035.789978 236.837897 
L 1036.199218 241.878051 
L 1036.752987 253 
M 1037.30439 253 
L 1037.426936 249.873193 
L 1037.836175 226.918486 
L 1038.245415 205.691549 
L 1038.450035 203.649064 
L 1038.654654 207.828256 
L 1039.473133 237.534645 
L 1039.677753 237.443732 
L 1040.905471 210.856871 
L 1041.51933 202.673236 
L 1041.92857 189.226049 
L 1042.337809 176.016857 
L 1042.542429 174.838234 
L 1042.747049 177.190131 
L 1043.156288 183.869241 
L 1043.360908 182.82798 
L 1043.770147 174.292576 
L 1043.974767 172.774572 
L 1044.384007 173.870669 
L 1044.588626 171.600088 
L 1045.407105 149.973157 
L 1045.611725 151.83973 
L 1045.816345 159.377662 
L 1046.634824 200.561048 
L 1047.862542 237.4215 
L 1048.067162 237.345943 
L 1048.271781 234.875869 
L 1048.681021 225.303305 
L 1049.09026 211.881264 
L 1049.4995 190.884152 
L 1050.113359 153.394114 
L 1050.317979 150.656207 
L 1050.522598 153.486135 
L 1051.136458 168.256176 
L 1051.750317 177.010855 
L 1051.954937 177.63569 
L 1052.364176 173.701269 
L 1052.568796 173.651231 
L 1052.773415 177.207712 
L 1052.978035 184.715645 
L 1053.387275 212.662654 
L 1053.796514 240.703901 
L 1054.001134 245.16384 
L 1054.205754 243.394482 
L 1054.819613 229.470194 
L 1055.228852 223.518467 
L 1055.433472 216.452302 
L 1056.456571 160.035783 
L 1056.66119 156.562191 
L 1057.479669 136.403886 
L 1057.684289 138.878883 
L 1057.888909 146.905574 
L 1058.912007 210.657851 
L 1059.525866 202.504712 
L 1059.730486 205.091691 
L 1060.548965 224.571938 
L 1060.958204 231.170103 
L 1061.162824 233.218277 
L 1061.367444 232.135598 
L 1061.572064 224.964481 
L 1061.981303 192.119131 
L 1062.390543 159.83315 
L 1062.799782 146.999456 
L 1063.004402 145.92049 
L 1063.209021 146.048457 
L 1063.413641 146.441179 
L 1063.618261 147.566601 
L 1063.822881 151.110587 
L 1064.0275 158.613264 
L 1065.597046 253 
M 1066.666916 253 
L 1067.506036 232.455554 
L 1067.710655 232.008973 
L 1067.915275 232.526731 
L 1068.324515 233.936513 
L 1068.733754 233.160271 
L 1068.938374 234.238113 
L 1069.142994 237.97387 
L 1069.552233 248.913093 
L 1069.756853 250.779356 
L 1069.961472 249.365721 
L 1070.370712 241.412974 
L 1071.393811 211.093061 
L 1072.621529 181.141381 
L 1073.030768 173.911009 
L 1073.235388 172.005003 
L 1073.440008 172.067529 
L 1073.644628 174.009225 
L 1074.463106 189.998291 
L 1074.667726 188.858318 
L 1074.872346 183.857125 
L 1075.281585 162.37637 
L 1075.895445 124.629802 
L 1076.100064 121.984343 
L 1076.304684 124.698948 
L 1077.327783 150.067334 
L 1077.532402 152.369945 
L 1077.737022 152.566167 
L 1078.555501 149.14345 
L 1078.760121 147.515874 
L 1079.37398 137.121075 
L 1079.783219 126.168411 
L 1080.192459 116.675559 
L 1080.397079 117.581675 
L 1080.601698 122.346291 
L 1081.010938 144.184474 
L 1081.420177 173.089628 
L 1081.624797 181.859028 
L 1081.829417 185.780914 
L 1082.238656 187.213727 
L 1082.443276 190.224155 
L 1083.057135 212.45182 
L 1083.261755 211.8218 
L 1083.466374 202.600137 
L 1083.875614 163.80116 
L 1084.284853 123.754336 
L 1084.489473 114.124781 
L 1084.694093 113.21968 
L 1084.898713 120.165398 
L 1085.512572 153.169211 
L 1085.717191 157.674862 
L 1085.921811 157.601522 
L 1086.126431 153.725852 
L 1086.53567 137.797544 
L 1087.14953 112.250681 
L 1087.763389 99.867933 
L 1088.377248 84.957406 
L 1088.581868 85.107116 
L 1088.991107 93.426927 
L 1089.400347 104.921435 
L 1090.423445 146.792964 
L 1090.832685 176.870517 
L 1091.446544 228.577489 
L 1091.651164 237.61052 
L 1091.855783 241.345316 
L 1092.265023 242.842197 
L 1092.674262 246.867244 
L 1092.878882 246.742456 
L 1093.083502 242.149225 
L 1093.697361 207.593601 
L 1094.720459 152.581492 
L 1094.925079 149.885151 
L 1095.129699 150.060574 
L 1095.334319 149.719309 
L 1095.948178 141.042814 
L 1096.152797 142.294049 
L 1096.357417 148.271597 
L 1096.766657 171.001501 
L 1097.585136 223.364315 
L 1097.789755 228.259905 
L 1097.994375 229.483435 
L 1098.198995 227.472562 
L 1098.608234 217.036858 
L 1099.835953 178.837219 
L 1100.040572 177.60838 
L 1100.654431 183.204865 
L 1100.859051 182.438778 
L 1101.268291 179.158919 
L 1101.47291 180.935121 
L 1101.88215 194.504268 
L 1102.496009 213.246729 
L 1102.700629 215.667315 
L 1102.905248 213.911423 
L 1103.314488 200.36971 
L 1103.723727 189.399674 
L 1103.928347 190.371742 
L 1104.337587 198.815388 
L 1104.542206 199.859564 
L 1104.746826 197.305871 
L 1105.156065 183.020543 
L 1105.565305 167.464174 
L 1105.974544 160.393815 
L 1106.179164 160.692136 
L 1106.588404 163.68079 
L 1106.793023 162.326619 
L 1106.997643 159.413972 
L 1107.202263 158.19231 
L 1107.406882 162.2921 
L 1108.429981 212.833201 
L 1108.839221 217.519865 
L 1109.04384 217.414456 
L 1109.24846 214.730905 
L 1109.657699 204.958833 
L 1109.862319 202.974456 
L 1110.066939 204.497383 
L 1110.476178 211.485728 
L 1110.680798 212.180003 
L 1110.885418 210.361678 
L 1111.908516 195.105669 
L 1112.113136 196.388608 
L 1112.931615 214.57452 
L 1113.136235 211.781041 
L 1113.750094 192.2454 
L 1114.159333 188.539471 
L 1114.363953 187.034466 
L 1114.568573 187.202184 
L 1114.773193 190.061306 
L 1115.387052 202.693864 
L 1115.796291 207.006108 
L 1116.000911 207.944432 
L 1116.205531 207.797109 
L 1116.41015 207.288134 
L 1116.61477 207.115369 
L 1116.81939 207.160469 
L 1117.02401 206.606037 
L 1117.228629 205.632123 
L 1117.433249 205.933498 
L 1118.047108 211.87659 
L 1118.251728 213.408587 
L 1118.660967 217.803581 
L 1118.865587 216.855419 
L 1119.274827 210.871413 
L 1119.479446 212.534152 
L 1120.297925 239.676694 
L 1120.502545 239.504162 
L 1121.116404 231.010966 
L 1121.525644 236.594894 
L 1121.730263 235.56347 
L 1122.548742 212.591143 
L 1123.367221 219.052676 
L 1123.571841 218.080584 
L 1123.776461 215.378762 
L 1124.39032 203.356845 
L 1124.59494 202.931426 
L 1125.004179 205.605201 
L 1125.208799 204.530119 
L 1125.618038 195.367517 
L 1126.027278 187.522248 
L 1126.231897 186.270177 
L 1126.436517 185.943035 
L 1126.641137 186.204 
L 1126.845757 187.873661 
L 1127.459616 202.244228 
L 1127.664235 201.704416 
L 1127.868855 195.968685 
L 1128.687334 159.905661 
L 1128.891954 157.520237 
L 1129.096574 157.296442 
L 1129.301193 156.238274 
L 1129.915052 145.159829 
L 1130.324292 139.15687 
L 1130.528912 139.867842 
L 1130.938151 148.279977 
L 1131.347391 158.17266 
L 1131.96125 165.434884 
L 1132.370489 180.902711 
L 1132.779729 196.956528 
L 1132.984348 200.291432 
L 1133.188968 199.004772 
L 1133.802827 187.517202 
L 1134.007447 187.546605 
L 1134.212067 189.716707 
L 1134.621306 199.554274 
L 1135.030546 209.805819 
L 1135.439785 214.362787 
L 1135.644405 215.22323 
L 1135.849024 214.559334 
L 1136.053644 213.372316 
L 1136.258264 213.985678 
L 1136.667503 220.85328 
L 1136.872123 221.227034 
L 1137.076743 216.244708 
L 1137.690602 189.021812 
L 1137.895222 184.978749 
L 1138.099841 185.203211 
L 1138.304461 189.664979 
L 1138.91832 208.689172 
L 1139.12294 210.04135 
L 1139.53218 208.505671 
L 1139.736799 209.361044 
L 1139.941419 212.057928 
L 1140.759898 229.088279 
L 1140.964518 227.405858 
L 1141.169137 223.813555 
L 1141.373757 218.137133 
L 1142.192236 181.278131 
L 1142.396856 178.945791 
L 1142.601475 178.480373 
L 1142.806095 178.785011 
L 1143.010715 179.486185 
L 1143.215335 181.203729 
L 1143.419954 185.645583 
L 1143.829194 205.693045 
L 1144.238433 223.235891 
L 1144.852292 233.999008 
L 1145.056912 236.683125 
L 1145.261532 236.25645 
L 1146.284631 219.855065 
L 1146.48925 219.819376 
L 1146.69387 223.141551 
L 1147.103109 235.871147 
L 1147.307729 237.128505 
L 1147.512349 232.486995 
L 1148.126208 213.121847 
L 1148.330828 211.356227 
L 1148.535448 213.097065 
L 1148.944687 220.738174 
L 1149.149307 221.756087 
L 1149.558546 219.345973 
L 1149.763166 222.072771 
L 1150.377025 245.142584 
L 1150.629245 253 
M 1151.090227 253 
L 1151.195504 249.961749 
L 1151.604743 221.719707 
L 1152.218603 177.719262 
L 1152.832462 157.846805 
L 1153.037082 153.569832 
L 1153.241701 153.393959 
L 1153.85556 165.167291 
L 1154.06018 162.305232 
L 1154.46942 154.676859 
L 1154.674039 155.178796 
L 1155.083279 164.183921 
L 1155.697138 180.416487 
L 1155.901758 181.906213 
L 1156.106377 179.511487 
L 1156.924856 161.734451 
L 1157.129476 160.010085 
L 1157.334096 159.856228 
L 1157.538716 161.657763 
L 1157.743335 166.446556 
L 1158.152575 187.927474 
L 1159.027565 253 
M 1160.828223 253 
L 1161.42649 225.589021 
L 1162.244969 197.456303 
L 1162.858828 178.713818 
L 1163.881927 126.029909 
L 1164.086547 126.605163 
L 1164.291167 133.164112 
L 1165.314265 184.817403 
L 1165.518885 182.452056 
L 1165.928124 163.60631 
L 1166.337364 140.933359 
L 1166.541984 134.998624 
L 1166.746603 134.410192 
L 1166.951223 137.56644 
L 1167.769702 157.27969 
L 1167.974322 159.180014 
L 1168.178941 158.562103 
L 1168.588181 155.004613 
L 1168.792801 155.73343 
L 1168.99742 159.562907 
L 1170.020519 190.002004 
L 1170.225139 192.99686 
L 1170.429758 192.775716 
L 1170.838998 183.508085 
L 1171.862096 158.237038 
L 1172.066716 154.802865 
L 1172.271336 155.18985 
L 1172.475956 160.358413 
L 1174.112913 233.4808 
L 1174.598478 253 
M 1176.995935 253 
L 1177.386829 224.715214 
L 1177.591449 215.442451 
L 1177.796068 211.754181 
L 1178.000688 213.070182 
L 1178.614547 223.706138 
L 1178.819167 222.331325 
L 1179.023787 217.766651 
L 1179.842266 191.925405 
L 1180.046885 195.465267 
L 1180.456125 207.194949 
L 1180.660745 208.620669 
L 1180.865364 206.666323 
L 1181.274604 197.580184 
L 1182.502322 161.458975 
L 1182.706942 162.049035 
L 1183.116181 172.915871 
L 1183.525421 183.254058 
L 1183.730041 184.22284 
L 1184.3439 182.251796 
L 1184.548519 180.076965 
L 1184.753139 174.978402 
L 1184.753139 174.978402 
" clip-path="url(#p6b44c5413a)" style="fill: none; stroke: #000000; stroke-width: 2; stroke-linecap: square"/>
   </g>
   <g id="patch_3">
    <path d="M 3.00024 198.907885 
L 1184.99976 198.907885 
" style="fill: none; stroke: #000000; stroke-width: 2; stroke-linejoin: miter; stroke-linecap: square"/>
   </g>
  </g>
 </g>
 <defs>
  <clipPath id="p6b44c5413a">
   <rect x="3.00024" y="3.00024" width="1181.99952" height="195.907645"/>
  </clipPath>
 </defs>
</svg>
