<?xml version="1.0" standalone="no" ?>
<!DOCTYPE svg PUBLIC "-//W3C//DTD SVG 1.1//EN" "http://www.w3.org/Graphics/SVG/1.1/DTD/svg11.dtd">
<svg width="746px" height="95px" viewBox="0 0 746 95" style="background-color: #ffffff00" xmlns="http://www.w3.org/2000/svg" xmlns:xlink="http://www.w3.org/1999/xlink" version="1.1" >
<path stroke="none" fill="#000000" transform="matrix(0.0833333 0 0 0.0833333 -66.3458 -335.917)" d="M 2768.21,4790.83 L 2768.21,4782.8 L 2945.51,4680.44 L 2948.92,4682.41 L 2948.92,4686.35 L 2768.21,4790.83 Z " />
<path stroke="none" fill="#000000" transform="matrix(0.0833333 0 0 0.0833333 -66.3458 -335.917)" d="M 2768.21,4782.8 L 2768.21,4790.83 L 2587.5,4686.35 L 2587.5,4682.41 L 2590.91,4680.44 L 2768.21,4782.8 Z " />
<path stroke="none" fill="#000000" transform="matrix(0.0833333 0 0 0.0833333 -66.3458 -335.917)" d="M 2590.91,4680.44 L 2587.5,4682.41 L 2584.09,4680.44 L 2584.09,4475.72 L 2591.05,4471.71 L 2590.91,4680.44 Z " />
<path stroke="none" fill="#000000" transform="matrix(0.0833333 0 0 0.0833333 -66.3458 -335.917)" d="M 2565.94,4667.95 L 2558.98,4667.95 L 2558.98,4488.21 L 2565.94,4488.21 L 2565.94,4667.95 Z " />
<path stroke="none" fill="#000000" transform="matrix(0.0833333 0 0 0.0833333 -66.3458 -335.917)" d="M 2591.05,4471.71 L 2584.09,4475.72 L 2406.79,4373.37 L 2406.79,4365.33 L 2591.05,4471.71 Z " />
<path stroke="none" fill="#000000" transform="matrix(0.0833333 0 0 0.0833333 -66.3458 -335.917)" d="M 2406.79,4365.33 L 2406.79,4373.37 L 2229.49,4475.72 L 2226.08,4473.75 L 2226.06,4469.82 L 2406.79,4365.33 Z " />
<path stroke="none" fill="#000000" transform="matrix(0.0833333 0 0 0.0833333 -66.3458 -335.917)" d="M 2405.05,4395.33 L 2408.53,4401.35 L 2252.86,4491.22 L 2249.38,4485.2 L 2405.05,4395.33 Z " />
<path stroke="none" fill="#000000" transform="matrix(0.0833333 0 0 0.0833333 -66.3458 -335.917)" d="M 2222.67,4475.7 L 2226.08,4473.75 L 2229.49,4475.72 L 2229.49,4680.44 L 2222.53,4684.46 L 2222.67,4475.7 Z " />
<path stroke="none" fill="#000000" transform="matrix(0.0833333 0 0 0.0833333 -66.3458 -335.917)" d="M 2222.53,4684.46 L 2229.49,4680.44 L 2406.79,4782.8 L 2406.79,4790.83 L 2222.53,4684.46 Z " />
<path stroke="none" fill="#000000" transform="matrix(0.0833333 0 0 0.0833333 -66.3458 -335.917)" d="M 2249.38,4670.96 L 2252.86,4664.94 L 2408.53,4754.81 L 2405.05,4760.84 L 2249.38,4670.96 Z " />
<path stroke="none" fill="#000000" transform="matrix(0.0833333 0 0 0.0833333 -66.3458 -335.917)" d="M 2406.79,4790.83 L 2406.79,4782.8 L 2584.09,4680.44 L 2587.5,4682.41 L 2587.5,4686.35 L 2406.79,4790.83 Z " />
<path stroke="none" fill="#000000" transform="matrix(0.0833333 0 0 0.0833333 -66.3458 -335.917)" d="M 2948.92,4686.35 L 2948.92,4682.41 L 2952.33,4680.44 L 3129.63,4782.8 L 3129.63,4790.83 L 2948.92,4686.35 Z " />
<path stroke="none" fill="#000000" transform="matrix(0.0833333 0 0 0.0833333 -66.3458 -335.917)" d="M 2972.22,4670.96 L 2975.7,4664.94 L 3131.37,4754.81 L 3127.89,4760.83 L 2972.22,4670.96 Z " />
<path stroke="none" fill="#000000" transform="matrix(0.0833333 0 0 0.0833333 -66.3458 -335.917)" d="M 3129.63,4790.83 L 3129.63,4782.8 L 3306.81,4680.44 L 3313.77,4684.46 L 3129.63,4790.83 Z " />
<path stroke="none" fill="#000000" transform="matrix(0.0833333 0 0 0.0833333 -66.3458 -335.917)" d="M 3313.77,4684.46 L 3306.81,4680.44 L 3306.81,4475.72 L 3310.22,4473.75 L 3313.63,4475.7 L 3313.77,4684.46 Z " />
<path stroke="none" fill="#000000" transform="matrix(0.0833333 0 0 0.0833333 -66.3458 -335.917)" d="M 3288.66,4667.96 L 3281.7,4667.96 L 3281.7,4488.21 L 3288.66,4488.21 L 3288.66,4667.96 Z " />
<path stroke="none" fill="#000000" transform="matrix(0.0833333 0 0 0.0833333 -66.3458 -335.917)" d="M 3310.24,4469.82 L 3310.22,4473.75 L 3306.81,4475.72 L 3129.63,4373.37 L 3129.63,4365.33 L 3310.24,4469.82 Z " />
<path stroke="none" fill="#000000" transform="matrix(0.0833333 0 0 0.0833333 -66.3458 -335.917)" d="M 3129.63,4365.33 L 3129.63,4373.37 L 2952.33,4475.72 L 2945.38,4471.71 L 3129.63,4365.33 Z " />
<path stroke="none" fill="#000000" transform="matrix(0.0833333 0 0 0.0833333 -66.3458 -335.917)" d="M 3127.89,4395.33 L 3131.37,4401.35 L 2975.7,4491.22 L 2972.22,4485.2 L 3127.89,4395.33 Z " />
<path stroke="none" fill="#000000" transform="matrix(0.0833333 0 0 0.0833333 -66.3458 -335.917)" d="M 2945.38,4471.71 L 2952.33,4475.72 L 2952.33,4680.44 L 2948.92,4682.41 L 2945.51,4680.44 L 2945.38,4471.71 Z " />
<text x="0" y="0" stroke="none" fill="#000000" transform="matrix(0.0833333 0 0 0.0833333 222.472 30.4522)" font-style="normal" font-weight="normal" font-size="69.552px" font-family="Arial" >
NH</text>
<text x="0" y="0" stroke="none" fill="#000000" transform="matrix(0.0833333 0 0 0.0833333 230.844 31.7022)" font-style="normal" font-weight="normal" font-size="52.164px" font-family="Arial" >
2</text>
<path stroke="none" fill="#000000" transform="matrix(0.0833333 0 0 0.0833333 -66.3458 -335.917)" d="M 3313.63,4475.7 L 3310.22,4473.75 L 3310.24,4469.82 L 3450.44,4388.79 L 3453.92,4394.81 L 3313.63,4475.7 Z " />
<text x="0" y="0" stroke="none" fill="#000000" transform="matrix(0.0833333 0 0 0.0833333 95.4053 30.4522)" font-style="normal" font-weight="normal" font-size="69.552px" font-family="Arial" >
H</text>
<text x="0" y="0" stroke="none" fill="#000000" transform="matrix(0.0833333 0 0 0.0833333 99.591 31.7022)" font-style="normal" font-weight="normal" font-size="52.164px" font-family="Arial" >
2</text>
<text x="0" y="0" stroke="none" fill="#000000" transform="matrix(0.0833333 0 0 0.0833333 102.009 30.4522)" font-style="normal" font-weight="normal" font-size="69.552px" font-family="Arial" >
N</text>
<path stroke="none" fill="#000000" transform="matrix(0.0833333 0 0 0.0833333 -66.3458 -335.917)" d="M 2226.06,4469.82 L 2226.08,4473.75 L 2222.67,4475.7 L 2082.03,4394.61 L 2085.51,4388.58 L 2226.06,4469.82 Z " />
<text x="0" y="0" stroke="none" fill="#000000" transform="matrix(0.0833333 0 0 0.0833333 4.27054 46.642)" font-style="normal" font-weight="normal" font-size="83.214px" font-family="Times New Roman" >
2Ag</text>
<text x="0" y="0" stroke="none" fill="#000000" transform="matrix(0.0833333 0 0 0.0833333 16.2129 44.017)" font-style="normal" font-weight="normal" font-size="62.4105px" font-family="Times New Roman" >
+</text>
<text x="0" y="0" stroke="none" fill="#000000" transform="matrix(0.0833333 0 0 0.0833333 353.607 60.3326)" font-style="normal" font-weight="normal" font-size="69.552px" font-family="Arial" >
N</text>
<path stroke="none" fill="#000000" transform="matrix(0.0833333 0 0 0.0833333 -66.3458 -335.917)" d="M 4880.29,4412.96 L 4887.25,4416.98 L 4887.25,4621.71 L 4883.83,4623.66 L 4880.42,4621.71 L 4880.29,4412.96 Z " />
<path stroke="none" fill="#000000" transform="matrix(0.0833333 0 0 0.0833333 -66.3458 -335.917)" d="M 4905.4,4429.46 L 4912.35,4429.46 L 4912.35,4609.21 L 4905.4,4609.21 L 4905.4,4429.46 Z " />
<path stroke="none" fill="#000000" transform="matrix(0.0833333 0 0 0.0833333 -66.3458 -335.917)" d="M 4883.84,4627.59 L 4883.83,4623.66 L 4887.25,4621.71 L 5029.55,4703.77 L 5026.08,4709.8 L 4883.84,4627.59 Z " />
<path stroke="none" fill="#000000" transform="matrix(0.0833333 0 0 0.0833333 -66.3458 -335.917)" d="M 5102.84,4709.9 L 5099.37,4703.87 L 5241.84,4621.71 L 5245.26,4623.66 L 5245.24,4627.59 L 5102.84,4709.9 Z " />
<path stroke="none" fill="#000000" transform="matrix(0.0833333 0 0 0.0833333 -66.3458 -335.917)" d="M 5090.32,4688.21 L 5086.85,4682.19 L 5218.48,4606.19 L 5221.96,4612.22 L 5090.32,4688.21 Z " />
<path stroke="none" fill="#000000" transform="matrix(0.0833333 0 0 0.0833333 -66.3458 -335.917)" d="M 5248.67,4621.69 L 5245.26,4623.66 L 5241.84,4621.71 L 5241.84,4416.98 L 5248.8,4412.96 L 5248.67,4621.69 Z " />
<path stroke="none" fill="#000000" transform="matrix(0.0833333 0 0 0.0833333 -66.3458 -335.917)" d="M 5248.8,4412.96 L 5241.84,4416.98 L 5064.55,4314.62 L 5064.55,4306.59 L 5248.8,4412.96 Z " />
<path stroke="none" fill="#000000" transform="matrix(0.0833333 0 0 0.0833333 -66.3458 -335.917)" d="M 5221.96,4426.45 L 5218.48,4432.48 L 5062.81,4342.6 L 5066.28,4336.58 L 5221.96,4426.45 Z " />
<path stroke="none" fill="#000000" transform="matrix(0.0833333 0 0 0.0833333 -66.3458 -335.917)" d="M 5064.55,4306.59 L 5064.55,4314.62 L 4887.25,4416.98 L 4880.29,4412.96 L 5064.55,4306.59 Z " />
<text x="0" y="0" stroke="none" fill="#000000" transform="matrix(0.0833333 0 0 0.0833333 323.337 60.3326)" font-style="normal" font-weight="normal" font-size="69.552px" font-family="Arial" >
O</text>
<path stroke="none" fill="#000000" transform="matrix(0.0833333 0 0 0.0833333 -66.3458 -335.917)" d="M 4880.42,4621.71 L 4883.83,4623.66 L 4883.84,4627.59 L 4738.08,4711.88 L 4734.6,4705.86 L 4880.42,4621.71 Z " />
<path stroke="none" fill="#000000" transform="matrix(0.0833333 0 0 0.0833333 -66.3458 -335.917)" d="M 5245.24,4627.59 L 5245.26,4623.66 L 5248.67,4621.69 L 5429.53,4725.95 L 5422.57,4729.97 L 5245.24,4627.59 Z " />
<text x="0" y="0" stroke="none" fill="#000000" transform="matrix(0.0833333 0 0 0.0833333 382.521 77.7206)" font-style="normal" font-weight="normal" font-size="69.552px" font-family="Arial" >
O</text>
<path stroke="none" fill="#000000" transform="matrix(0.0833333 0 0 0.0833333 -66.3458 -335.917)" d="M 5422.57,4729.97 L 5429.53,4725.95 L 5429.44,4899.4 L 5422.49,4899.4 L 5422.57,4729.97 Z " />
<path stroke="none" fill="#000000" transform="matrix(0.0833333 0 0 0.0833333 -66.3458 -335.917)" d="M 5397.45,4742.45 L 5404.41,4742.45 L 5404.41,4899.4 L 5397.45,4899.4 L 5397.45,4742.45 Z " />
<path stroke="none" fill="#000000" transform="matrix(0.0833333 0 0 0.0833333 -66.3458 -335.917)" d="M 4671.7,4705.76 L 4668.22,4711.78 L 4520.8,4626.68 L 4524.28,4620.65 L 4671.7,4705.76 Z " />
<text x="0" y="0" stroke="none" fill="#000000" transform="matrix(0.0833333 0 0 0.0833333 294.821 52.7731)" font-style="normal" font-weight="normal" font-size="83.214px" font-family="Times New Roman" >
4</text>
<path stroke="none" fill="#000000" transform="matrix(0.0833333 0 0 0.0833333 -66.3458 -335.917)" d="M 1442.46,4542.05 L 1472.6,4542.05 L 1472.6,4548.05 L 1442.46,4548.05 Z " />
<path stroke="none" fill="#000000" transform="matrix(0.0833333 0 0 0.0833333 -66.3458 -335.917)" d="M 1460.53,4529.98 L 1460.53,4560.11 L 1454.53,4560.11 L 1454.53,4529.98 Z " />
<path stroke="none" fill="#000000" transform="matrix(0.0833333 0 0 0.0833333 -66.3458 -335.917)" d="M 3938.88,4542.05 L 3969.02,4542.05 L 3969.02,4548.05 L 3938.88,4548.05 Z " />
<path stroke="none" fill="#000000" transform="matrix(0.0833333 0 0 0.0833333 -66.3458 -335.917)" d="M 3956.95,4529.98 L 3956.95,4560.11 L 3950.95,4560.11 L 3950.95,4529.98 Z " />
<path stroke="none" fill="#000000" transform="matrix(0.0833333 0 0 0.0833333 -66.3458 -335.917)" d="M 9559.46,4391.35 L 9556.06,4385.29 L 9702.8,4302.99 L 9706.2,4309.06 L 9559.46,4391.35 Z " />
<path stroke="none" fill="#000000" transform="matrix(0.0833333 0 0 0.0833333 -66.3458 -335.917)" d="M 9438.15,4414.94 L 9437.98,4411.46 L 9445.05,4408.65 L 9486.37,4405.49 L 9486.73,4412.44 L 9438.15,4414.94 Z " />
<text x="0" y="0" stroke="none" fill="#000000" transform="matrix(0.0833333 0 0 0.0833333 725.102 33.5844)" font-style="normal" font-weight="normal" font-size="69.552px" font-family="Arial" >
O</text>
<path stroke="none" fill="#000000" transform="matrix(0.0833333 0 0 0.0833333 -66.3458 -335.917)" d="M 6782.28,4384.1 L 6778.89,4390.18 L 6631.18,4307.88 L 6634.57,4301.8 L 6782.28,4384.1 Z " />
<path stroke="none" fill="#000000" transform="matrix(0.0833333 0 0 0.0833333 -66.3458 -335.917)" d="M 6901.99,4408.43 L 6908.93,4411.46 L 6908.72,4414.94 L 6851.67,4411.54 L 6852.09,4404.6 L 6901.99,4408.43 Z " />
<text x="0" y="0" stroke="none" fill="#000000" transform="matrix(0.0833333 0 0 0.0833333 499.244 33.4858)" font-style="normal" font-weight="normal" font-size="69.552px" font-family="Arial" >
O</text>
<path stroke="none" fill="#000000" transform="matrix(0.0833333 0 0 0.0833333 -66.3458 -335.917)" d="M 9262.96,4417.51 L 9267.23,4423.09 L 9178.66,4514.02 L 9171.52,4516.9 L 9169.43,4514.11 L 9262.96,4417.51 Z " />
<path stroke="none" fill="#000000" transform="matrix(0.0833333 0 0 0.0833333 -66.3458 -335.917)" d="M 9444.2,4315.81 L 9446.22,4322.66 L 9267.23,4423.09 L 9262.96,4417.51 L 9444.2,4315.81 Z " />
<path stroke="none" fill="#000000" transform="matrix(0.0833333 0 0 0.0833333 -66.3458 -335.917)" d="M 9444.96,4321.53 L 9448.36,4327.59 L 9270.12,4427.59 L 9266.72,4421.53 L 9444.96,4321.53 Z " />
<path stroke="none" fill="#000000" transform="matrix(0.0833333 0 0 0.0833333 -66.3458 -335.917)" d="M 9541.92,4309.99 L 9524.14,4318.11 L 9446.22,4322.66 L 9444.2,4315.81 L 9541.92,4309.99 Z " />
<path stroke="none" fill="#000000" transform="matrix(0.0833333 0 0 0.0833333 -66.3458 -335.917)" d="M 9445.05,4408.65 L 9437.98,4411.46 L 9435.87,4408.68 L 9524.14,4318.11 L 9541.92,4309.99 L 9445.05,4408.65 L 9445.05,4408.65 Z " />
<path stroke="none" fill="#000000" transform="matrix(0.0833333 0 0 0.0833333 -66.3458 -335.917)" d="M 9435.43,4407.34 L 9430.44,4402.5 L 9508.76,4321.67 L 9513.76,4326.51 L 9435.43,4407.34 L 9435.43,4407.34 Z " />
<path stroke="none" fill="#000000" transform="matrix(0.0833333 0 0 0.0833333 -66.3458 -335.917)" d="M 9296.39,4494.89 L 9292.99,4488.82 L 9435.87,4408.68 L 9437.98,4411.46 L 9439.22,4414.73 L 9296.39,4494.89 Z " />
<path stroke="none" fill="#000000" transform="matrix(0.0833333 0 0 0.0833333 -66.3458 -335.917)" d="M 9171.7,4520.38 L 9171.52,4516.9 L 9178.66,4514.02 L 9223.84,4510.73 L 9224.2,4517.67 L 9171.7,4520.38 Z " />
<path stroke="none" fill="#000000" transform="matrix(0.0833333 0 0 0.0833333 -66.3458 -335.917)" d="M 9202.13,4506.56 L 9201.77,4499.61 L 9223.21,4498.51 L 9223.57,4505.46 L 9202.13,4506.56 Z " />
<text x="0" y="0" stroke="none" fill="#000000" transform="matrix(0.0833333 0 0 0.0833333 703.059 42.3711)" font-style="normal" font-weight="normal" font-size="69.552px" font-family="Arial" >
N</text>
<path stroke="none" fill="#000000" transform="matrix(0.0833333 0 0 0.0833333 -66.3458 -335.917)" d="M 7123.68,4517.93 L 7124.09,4510.98 L 7178,4515 L 7184.98,4518.09 L 7184.77,4521.56 L 7123.68,4517.93 Z " />
<path stroke="none" fill="#000000" transform="matrix(0.0833333 0 0 0.0833333 -66.3458 -335.917)" d="M 6907.74,4414.76 L 6908.93,4411.46 L 6911.08,4408.71 L 7054.95,4488.84 L 7051.56,4494.92 L 6907.74,4414.76 Z " />
<path stroke="none" fill="#000000" transform="matrix(0.0833333 0 0 0.0833333 -66.3458 -335.917)" d="M 6910.85,4409.95 L 6914.24,4403.87 L 7057.74,4483.83 L 7054.35,4489.91 L 6910.85,4409.95 Z " />
<path stroke="none" fill="#000000" transform="matrix(0.0833333 0 0 0.0833333 -66.3458 -335.917)" d="M 6812.63,4311.24 L 6829.62,4319.4 L 6911.08,4408.71 L 6908.93,4411.46 L 6901.99,4408.43 L 6812.63,4311.24 Z " />
<path stroke="none" fill="#000000" transform="matrix(0.0833333 0 0 0.0833333 -66.3458 -335.917)" d="M 6918.09,4318.12 L 6916.06,4324.96 L 6829.62,4319.4 L 6812.63,4311.24 L 6918.09,4318.12 Z " />
<path stroke="none" fill="#000000" transform="matrix(0.0833333 0 0 0.0833333 -66.3458 -335.917)" d="M 6913.75,4330.44 L 6913.34,4337.38 L 6852.02,4333.78 L 6852.42,4326.84 L 6913.75,4330.44 Z " />
<path stroke="none" fill="#000000" transform="matrix(0.0833333 0 0 0.0833333 -66.3458 -335.917)" d="M 7100.69,4419.9 L 7096.32,4425.43 L 6916.06,4324.96 L 6918.09,4318.12 L 7100.69,4419.9 Z " />
<path stroke="none" fill="#000000" transform="matrix(0.0833333 0 0 0.0833333 -66.3458 -335.917)" d="M 7187.12,4515.32 L 7184.98,4518.09 L 7178,4515 L 7096.32,4425.43 L 7100.69,4419.9 L 7187.12,4515.32 Z " />
<path stroke="none" fill="#000000" transform="matrix(0.0833333 0 0 0.0833333 -66.3458 -335.917)" d="M 7165.59,4505.23 L 7160.44,4509.9 L 7090.08,4432.3 L 7095.23,4427.63 L 7165.59,4505.23 Z " />
<text x="0" y="0" stroke="none" fill="#000000" transform="matrix(0.0833333 0 0 0.0833333 522.41 42.3711)" font-style="normal" font-weight="normal" font-size="69.552px" font-family="Arial" >
N</text>
<path stroke="none" fill="#000000" transform="matrix(0.0833333 0 0 0.0833333 -66.3458 -335.917)" d="M 7368.49,4616.4 L 7364.16,4621.96 L 7183.8,4521.39 L 7184.98,4518.09 L 7187.12,4515.32 L 7368.49,4616.4 Z " />
<path stroke="none" fill="#000000" transform="matrix(0.0833333 0 0 0.0833333 -66.3458 -335.917)" d="M 8993.55,4620.8 L 8989.32,4615.19 L 9169.43,4514.11 L 9171.52,4516.9 L 9172.75,4520.18 L 8993.55,4620.8 Z " />
<path stroke="none" fill="#000000" transform="matrix(0.0833333 0 0 0.0833333 -66.3458 -335.917)" d="M 8930.79,4685.63 L 8925.8,4680.79 L 8989.02,4615.54 L 8994.02,4620.38 L 8930.79,4685.63 Z " />
<path stroke="none" fill="#000000" transform="matrix(0.0833333 0 0 0.0833333 -66.3458 -335.917)" d="M 8912.81,4668.21 L 8907.82,4663.37 L 8971.04,4598.12 L 8976.04,4602.96 L 8912.81,4668.21 Z " />
<path stroke="none" fill="#000000" transform="matrix(0.0833333 0 0 0.0833333 -66.3458 -335.917)" d="M 7425.88,4679.76 L 7420.73,4684.43 L 7363.66,4621.48 L 7368.81,4616.81 L 7425.88,4679.76 Z " />
<path stroke="none" fill="#000000" transform="matrix(0.0833333 0 0 0.0833333 -66.3458 -335.917)" d="M 7407.33,4696.57 L 7402.18,4701.25 L 7347.87,4641.35 L 7353.02,4636.68 L 7407.33,4696.57 Z " />
<path stroke="none" fill="#000000" transform="matrix(0.0833333 0 0 0.0833333 -66.3458 -335.917)" d="M 8720.02,4818.34 L 8717.9,4815.56 L 8716.84,4812.2 L 8857.32,4733.35 L 8860.73,4739.42 L 8720.02,4818.34 Z " />
<text x="0" y="0" stroke="none" fill="#000000" transform="matrix(0.0833333 0 0 0.0833333 673.053 59.2142)" font-style="normal" font-weight="normal" font-size="69.552px" font-family="Arial" >
N</text>
<path stroke="none" fill="#000000" transform="matrix(0.0833333 0 0 0.0833333 -66.3458 -335.917)" d="M 7635.06,4812.2 L 7634.01,4815.56 L 7631.85,4818.32 L 7489.8,4739.19 L 7493.18,4733.12 L 7635.06,4812.2 Z " />
<text x="0" y="0" stroke="none" fill="#000000" transform="matrix(0.0833333 0 0 0.0833333 552.624 59.2142)" font-style="normal" font-weight="normal" font-size="69.552px" font-family="Arial" >
N</text>
<path stroke="none" fill="#000000" transform="matrix(0.0833333 0 0 0.0833333 -66.3458 -335.917)" d="M 8449.27,4918.28 L 8453.55,4923.86 L 8365.29,5014.42 L 8357.83,5017.68 L 8355.74,5014.88 L 8449.27,4918.28 Z " />
<path stroke="none" fill="#000000" transform="matrix(0.0833333 0 0 0.0833333 -66.3458 -335.917)" d="M 8630.51,4816.52 L 8632.53,4823.37 L 8453.55,4923.86 L 8449.27,4918.28 L 8630.51,4816.52 Z " />
<path stroke="none" fill="#000000" transform="matrix(0.0833333 0 0 0.0833333 -66.3458 -335.917)" d="M 8631.27,4822.23 L 8634.67,4828.3 L 8456.44,4928.37 L 8453.03,4922.3 L 8631.27,4822.23 Z " />
<path stroke="none" fill="#000000" transform="matrix(0.0833333 0 0 0.0833333 -66.3458 -335.917)" d="M 8716.84,4812.2 L 8717.9,4815.56 L 8710.45,4818.81 L 8632.53,4823.37 L 8630.51,4816.52 L 8716.84,4812.2 Z " />
<path stroke="none" fill="#000000" transform="matrix(0.0833333 0 0 0.0833333 -66.3458 -335.917)" d="M 8626.46,4914.95 L 8622.19,4909.37 L 8710.45,4818.81 L 8717.9,4815.56 L 8720.02,4818.34 L 8626.46,4914.95 L 8626.46,4914.95 Z " />
<path stroke="none" fill="#000000" transform="matrix(0.0833333 0 0 0.0833333 -66.3458 -335.917)" d="M 8621.75,4908.05 L 8616.75,4903.21 L 8695.08,4822.37 L 8700.08,4827.21 L 8621.75,4908.05 L 8621.75,4908.05 Z " />
<path stroke="none" fill="#000000" transform="matrix(0.0833333 0 0 0.0833333 -66.3458 -335.917)" d="M 8445.23,5016.72 L 8443.2,5009.87 L 8622.19,4909.37 L 8626.46,4914.95 L 8445.23,5016.72 Z " />
<path stroke="none" fill="#000000" transform="matrix(0.0833333 0 0 0.0833333 -66.3458 -335.917)" d="M 8358.92,5021.03 L 8357.83,5017.68 L 8365.29,5014.42 L 8443.2,5009.87 L 8445.23,5016.72 L 8358.92,5021.03 Z " />
<path stroke="none" fill="#000000" transform="matrix(0.0833333 0 0 0.0833333 -66.3458 -335.917)" d="M 8389.6,5006.81 L 8389.24,4999.86 L 8440.48,4997.22 L 8440.84,5004.17 L 8389.6,5006.81 Z " />
<path stroke="none" fill="#000000" transform="matrix(0.0833333 0 0 0.0833333 -66.3458 -335.917)" d="M 7900.83,5015.53 L 7902.86,5008.69 L 7989.37,5014.31 L 7996.58,5017.68 L 7995.51,5021.03 L 7900.83,5015.53 Z " />
<path stroke="none" fill="#000000" transform="matrix(0.0833333 0 0 0.0833333 -66.3458 -335.917)" d="M 7718.3,4913.75 L 7722.67,4908.22 L 7902.86,5008.69 L 7900.83,5015.53 L 7718.3,4913.75 Z " />
<path stroke="none" fill="#000000" transform="matrix(0.0833333 0 0 0.0833333 -66.3458 -335.917)" d="M 7722.44,4909.49 L 7725.83,4903.42 L 7905.12,5003.38 L 7901.73,5009.46 L 7722.44,4909.49 Z " />
<path stroke="none" fill="#000000" transform="matrix(0.0833333 0 0 0.0833333 -66.3458 -335.917)" d="M 7631.85,4818.32 L 7634.01,4815.56 L 7641.22,4818.93 L 7722.67,4908.22 L 7718.3,4913.75 L 7631.85,4818.32 Z " />
<path stroke="none" fill="#000000" transform="matrix(0.0833333 0 0 0.0833333 -66.3458 -335.917)" d="M 7729.69,4817.71 L 7727.66,4824.55 L 7641.22,4818.93 L 7634.01,4815.56 L 7635.06,4812.2 L 7729.69,4817.71 Z " />
<path stroke="none" fill="#000000" transform="matrix(0.0833333 0 0 0.0833333 -66.3458 -335.917)" d="M 7725.36,4830.01 L 7724.95,4836.96 L 7663.6,4833.31 L 7664.01,4826.37 L 7725.36,4830.01 Z " />
<path stroke="none" fill="#000000" transform="matrix(0.0833333 0 0 0.0833333 -66.3458 -335.917)" d="M 7912.29,4919.42 L 7907.92,4924.95 L 7727.66,4824.55 L 7729.69,4817.71 L 7912.29,4919.42 Z " />
<path stroke="none" fill="#000000" transform="matrix(0.0833333 0 0 0.0833333 -66.3458 -335.917)" d="M 7998.72,5014.91 L 7996.58,5017.68 L 7989.37,5014.31 L 7907.92,4924.95 L 7912.29,4919.42 L 7998.72,5014.91 Z " />
<path stroke="none" fill="#000000" transform="matrix(0.0833333 0 0 0.0833333 -66.3458 -335.917)" d="M 7977.17,5004.81 L 7972.02,5009.48 L 7901.67,4931.83 L 7906.83,4927.16 L 7977.17,5004.81 Z " />
<path stroke="none" fill="#000000" transform="matrix(0.0833333 0 0 0.0833333 -66.3458 -335.917)" d="M 8177.84,5122.73 L 8177.83,5114.76 L 8355.74,5014.88 L 8357.83,5017.68 L 8358.92,5021.03 L 8177.84,5122.73 Z " />
<path stroke="none" fill="#000000" transform="matrix(0.0833333 0 0 0.0833333 -66.3458 -335.917)" d="M 7995.51,5021.03 L 7996.58,5017.68 L 7998.72,5014.91 L 8177.83,5114.76 L 8177.84,5122.73 L 7995.51,5021.03 Z " />
<path stroke="none" fill="#808080" transform="matrix(0.0833333 0 0 0.0833333 -66.3458 -335.917)" d="M 7123.7,4598.98 A 125.194,125.194 0 1 0 7374.09,4598.98A 125.194,125.194 0 1 0 7123.7,4598.98Z " />
<path stroke="none" fill="#878787" transform="matrix(0.0833333 0 0 0.0833333 -66.3458 -335.917)" d="M 7125.17,4597.02 A 121.776,121.776 0 1 0 7368.72,4597.02A 121.776,121.776 0 1 0 7125.17,4597.02Z " />
<path stroke="none" fill="#8f8f8f" transform="matrix(0.0833333 0 0 0.0833333 -66.3458 -335.917)" d="M 7126.63,4595.06 A 118.358,118.358 0 1 0 7363.34,4595.06A 118.358,118.358 0 1 0 7126.63,4595.06Z " />
<path stroke="none" fill="#969696" transform="matrix(0.0833333 0 0 0.0833333 -66.3458 -335.917)" d="M 7128.09,4593.11 A 114.94,114.94 0 1 0 7357.97,4593.11A 114.94,114.94 0 1 0 7128.09,4593.11Z " />
<path stroke="none" fill="#9d9d9d" transform="matrix(0.0833333 0 0 0.0833333 -66.3458 -335.917)" d="M 7129.55,4591.15 A 111.522,111.522 0 1 0 7352.59,4591.15A 111.522,111.522 0 1 0 7129.55,4591.15Z " />
<path stroke="none" fill="#a4a4a4" transform="matrix(0.0833333 0 0 0.0833333 -66.3458 -335.917)" d="M 7131.01,4589.19 A 108.104,108.104 0 1 0 7347.22,4589.19A 108.104,108.104 0 1 0 7131.01,4589.19Z " />
<path stroke="none" fill="#ababab" transform="matrix(0.0833333 0 0 0.0833333 -66.3458 -335.917)" d="M 7132.48,4587.24 A 104.686,104.686 0 1 0 7341.85,4587.24A 104.686,104.686 0 1 0 7132.48,4587.24Z " />
<path stroke="none" fill="#b1b1b1" transform="matrix(0.0833333 0 0 0.0833333 -66.3458 -335.917)" d="M 7133.94,4585.28 A 101.268,101.268 0 1 0 7336.47,4585.28A 101.268,101.268 0 1 0 7133.94,4585.28Z " />
<path stroke="none" fill="#b7b7b7" transform="matrix(0.0833333 0 0 0.0833333 -66.3458 -335.917)" d="M 7135.4,4583.33 A 97.8498,97.8498 0 1 0 7331.1,4583.33A 97.8498,97.8498 0 1 0 7135.4,4583.33Z " />
<path stroke="none" fill="#bdbdbd" transform="matrix(0.0833333 0 0 0.0833333 -66.3458 -335.917)" d="M 7136.86,4581.37 A 94.4318,94.4318 0 1 0 7325.72,4581.37A 94.4318,94.4318 0 1 0 7136.86,4581.37Z " />
<path stroke="none" fill="#c2c2c2" transform="matrix(0.0833333 0 0 0.0833333 -66.3458 -335.917)" d="M 7138.32,4579.41 A 91.0138,91.0138 0 1 0 7320.35,4579.41A 91.0138,91.0138 0 1 0 7138.32,4579.41Z " />
<path stroke="none" fill="#c8c8c8" transform="matrix(0.0833333 0 0 0.0833333 -66.3458 -335.917)" d="M 7139.78,4577.46 A 87.5959,87.5959 0 1 0 7314.98,4577.46A 87.5959,87.5959 0 1 0 7139.78,4577.46Z " />
<path stroke="none" fill="#cdcdcd" transform="matrix(0.0833333 0 0 0.0833333 -66.3458 -335.917)" d="M 7141.25,4575.5 A 84.1779,84.1779 0 1 0 7309.6,4575.5A 84.1779,84.1779 0 1 0 7141.25,4575.5Z " />
<path stroke="none" fill="#d2d2d2" transform="matrix(0.0833333 0 0 0.0833333 -66.3458 -335.917)" d="M 7142.71,4573.55 A 80.7599,80.7599 0 1 0 7304.23,4573.55A 80.7599,80.7599 0 1 0 7142.71,4573.55Z " />
<path stroke="none" fill="#d6d6d6" transform="matrix(0.0833333 0 0 0.0833333 -66.3458 -335.917)" d="M 7144.17,4571.59 A 77.3419,77.3419 0 1 0 7298.85,4571.59A 77.3419,77.3419 0 1 0 7144.17,4571.59Z " />
<path stroke="none" fill="#dbdbdb" transform="matrix(0.0833333 0 0 0.0833333 -66.3458 -335.917)" d="M 7145.63,4569.63 A 73.924,73.924 0 1 0 7293.48,4569.63A 73.924,73.924 0 1 0 7145.63,4569.63Z " />
<path stroke="none" fill="#dfdfdf" transform="matrix(0.0833333 0 0 0.0833333 -66.3458 -335.917)" d="M 7147.09,4567.68 A 70.506,70.506 0 1 0 7288.11,4567.68A 70.506,70.506 0 1 0 7147.09,4567.68Z " />
<path stroke="none" fill="#e3e3e3" transform="matrix(0.0833333 0 0 0.0833333 -66.3458 -335.917)" d="M 7148.56,4565.72 A 67.088,67.088 0 1 0 7282.73,4565.72A 67.088,67.088 0 1 0 7148.56,4565.72Z " />
<path stroke="none" fill="#e6e6e6" transform="matrix(0.0833333 0 0 0.0833333 -66.3458 -335.917)" d="M 7150.02,4563.76 A 63.6701,63.6701 0 1 0 7277.36,4563.76A 63.6701,63.6701 0 1 0 7150.02,4563.76Z " />
<path stroke="none" fill="#eaeaea" transform="matrix(0.0833333 0 0 0.0833333 -66.3458 -335.917)" d="M 7151.48,4561.81 A 60.2521,60.2521 0 1 0 7271.98,4561.81A 60.2521,60.2521 0 1 0 7151.48,4561.81Z " />
<path stroke="none" fill="#ededed" transform="matrix(0.0833333 0 0 0.0833333 -66.3458 -335.917)" d="M 7152.94,4559.85 A 56.8341,56.8341 0 1 0 7266.61,4559.85A 56.8341,56.8341 0 1 0 7152.94,4559.85Z " />
<path stroke="none" fill="#efefef" transform="matrix(0.0833333 0 0 0.0833333 -66.3458 -335.917)" d="M 7154.4,4557.9 A 53.4162,53.4162 0 1 0 7261.23,4557.9A 53.4162,53.4162 0 1 0 7154.4,4557.9Z " />
<path stroke="none" fill="#f2f2f2" transform="matrix(0.0833333 0 0 0.0833333 -66.3458 -335.917)" d="M 7155.86,4555.94 A 49.9982,49.9982 0 1 0 7255.86,4555.94A 49.9982,49.9982 0 1 0 7155.86,4555.94Z " />
<path stroke="none" fill="#f4f4f4" transform="matrix(0.0833333 0 0 0.0833333 -66.3458 -335.917)" d="M 7157.33,4553.98 A 46.5802,46.5802 0 1 0 7250.49,4553.98A 46.5802,46.5802 0 1 0 7157.33,4553.98Z " />
<path stroke="none" fill="#f7f7f7" transform="matrix(0.0833333 0 0 0.0833333 -66.3458 -335.917)" d="M 7158.79,4552.03 A 43.1623,43.1623 0 1 0 7245.11,4552.03A 43.1623,43.1623 0 1 0 7158.79,4552.03Z " />
<path stroke="none" fill="#f8f8f8" transform="matrix(0.0833333 0 0 0.0833333 -66.3458 -335.917)" d="M 7160.25,4550.07 A 39.7443,39.7443 0 1 0 7239.74,4550.07A 39.7443,39.7443 0 1 0 7160.25,4550.07Z " />
<path stroke="none" fill="#fafafa" transform="matrix(0.0833333 0 0 0.0833333 -66.3458 -335.917)" d="M 7161.71,4548.12 A 36.3263,36.3263 0 1 0 7234.36,4548.12A 36.3263,36.3263 0 1 0 7161.71,4548.12Z " />
<path stroke="none" fill="#fbfbfb" transform="matrix(0.0833333 0 0 0.0833333 -66.3458 -335.917)" d="M 7163.17,4546.16 A 32.9084,32.9084 0 1 0 7228.99,4546.16A 32.9084,32.9084 0 1 0 7163.17,4546.16Z " />
<path stroke="none" fill="#fdfdfd" transform="matrix(0.0833333 0 0 0.0833333 -66.3458 -335.917)" d="M 7164.64,4544.2 A 29.4904,29.4904 0 1 0 7223.62,4544.2A 29.4904,29.4904 0 1 0 7164.64,4544.2Z " />
<path stroke="none" fill="#fdfdfd" transform="matrix(0.0833333 0 0 0.0833333 -66.3458 -335.917)" d="M 7166.1,4542.25 A 26.0724,26.0724 0 1 0 7218.24,4542.25A 26.0724,26.0724 0 1 0 7166.1,4542.25Z " />
<path stroke="none" fill="#fefefe" transform="matrix(0.0833333 0 0 0.0833333 -66.3458 -335.917)" d="M 7167.56,4540.29 A 22.6544,22.6544 0 1 0 7212.87,4540.29A 22.6544,22.6544 0 1 0 7167.56,4540.29Z " />
<path stroke="none" fill="#fefefe" transform="matrix(0.0833333 0 0 0.0833333 -66.3458 -335.917)" d="M 7169.02,4538.34 A 19.2365,19.2365 0 1 0 7207.49,4538.34A 19.2365,19.2365 0 1 0 7169.02,4538.34Z " />
<path stroke="#808080" stroke-width="7" fill="none" transform="matrix(0.0833333 0 0 0.0833333 -66.3458 -335.917)" d="M 7123.7,4598.98 A 125.194,125.194 0 1 0 7374.09,4598.98A 125.194,125.194 0 1 0 7123.7,4598.98Z " />
<text x="0" y="0" stroke="none" fill="#000000" transform="matrix(0.0833333 0 0 0.0833333 532.088 49.6085)" font-style="normal" font-weight="normal" font-size="83.4624px" font-family="Times New Roman" >
Ag</text>
<text x="0" y="0" stroke="none" fill="#000000" transform="matrix(0.0833333 0 0 0.0833333 540.588 46.9835)" font-style="normal" font-weight="normal" font-size="62.5968px" font-family="Times New Roman" >
+</text>
<path stroke="none" fill="#808080" transform="matrix(0.0833333 0 0 0.0833333 -66.3458 -335.917)" d="M 8936.44,4590.63 A 125.194,125.194 0 1 0 9186.82,4590.63A 125.194,125.194 0 1 0 8936.44,4590.63Z " />
<path stroke="none" fill="#878787" transform="matrix(0.0833333 0 0 0.0833333 -66.3458 -335.917)" d="M 8937.9,4588.67 A 121.776,121.776 0 1 0 9181.45,4588.67A 121.776,121.776 0 1 0 8937.9,4588.67Z " />
<path stroke="none" fill="#8f8f8f" transform="matrix(0.0833333 0 0 0.0833333 -66.3458 -335.917)" d="M 8939.36,4586.72 A 118.358,118.358 0 1 0 9176.08,4586.72A 118.358,118.358 0 1 0 8939.36,4586.72Z " />
<path stroke="none" fill="#969696" transform="matrix(0.0833333 0 0 0.0833333 -66.3458 -335.917)" d="M 8940.82,4584.76 A 114.94,114.94 0 1 0 9170.7,4584.76A 114.94,114.94 0 1 0 8940.82,4584.76Z " />
<path stroke="none" fill="#9d9d9d" transform="matrix(0.0833333 0 0 0.0833333 -66.3458 -335.917)" d="M 8942.28,4582.8 A 111.522,111.522 0 1 0 9165.33,4582.8A 111.522,111.522 0 1 0 8942.28,4582.8Z " />
<path stroke="none" fill="#a4a4a4" transform="matrix(0.0833333 0 0 0.0833333 -66.3458 -335.917)" d="M 8943.75,4580.85 A 108.104,108.104 0 1 0 9159.95,4580.85A 108.104,108.104 0 1 0 8943.75,4580.85Z " />
<path stroke="none" fill="#ababab" transform="matrix(0.0833333 0 0 0.0833333 -66.3458 -335.917)" d="M 8945.21,4578.89 A 104.686,104.686 0 1 0 9154.58,4578.89A 104.686,104.686 0 1 0 8945.21,4578.89Z " />
<path stroke="none" fill="#b1b1b1" transform="matrix(0.0833333 0 0 0.0833333 -66.3458 -335.917)" d="M 8946.67,4576.94 A 101.268,101.268 0 1 0 9149.2,4576.94A 101.268,101.268 0 1 0 8946.67,4576.94Z " />
<path stroke="none" fill="#b7b7b7" transform="matrix(0.0833333 0 0 0.0833333 -66.3458 -335.917)" d="M 8948.13,4574.98 A 97.8498,97.8498 0 1 0 9143.83,4574.98A 97.8498,97.8498 0 1 0 8948.13,4574.98Z " />
<path stroke="none" fill="#bdbdbd" transform="matrix(0.0833333 0 0 0.0833333 -66.3458 -335.917)" d="M 8949.59,4573.02 A 94.4318,94.4318 0 1 0 9138.46,4573.02A 94.4318,94.4318 0 1 0 8949.59,4573.02Z " />
<path stroke="none" fill="#c2c2c2" transform="matrix(0.0833333 0 0 0.0833333 -66.3458 -335.917)" d="M 8951.05,4571.07 A 91.0138,91.0138 0 1 0 9133.08,4571.07A 91.0138,91.0138 0 1 0 8951.05,4571.07Z " />
<path stroke="none" fill="#c8c8c8" transform="matrix(0.0833333 0 0 0.0833333 -66.3458 -335.917)" d="M 8952.52,4569.11 A 87.5959,87.5959 0 1 0 9127.71,4569.11A 87.5959,87.5959 0 1 0 8952.52,4569.11Z " />
<path stroke="none" fill="#cdcdcd" transform="matrix(0.0833333 0 0 0.0833333 -66.3458 -335.917)" d="M 8953.98,4567.16 A 84.1779,84.1779 0 1 0 9122.33,4567.16A 84.1779,84.1779 0 1 0 8953.98,4567.16Z " />
<path stroke="none" fill="#d2d2d2" transform="matrix(0.0833333 0 0 0.0833333 -66.3458 -335.917)" d="M 8955.44,4565.2 A 80.7599,80.7599 0 1 0 9116.96,4565.2A 80.7599,80.7599 0 1 0 8955.44,4565.2Z " />
<path stroke="none" fill="#d6d6d6" transform="matrix(0.0833333 0 0 0.0833333 -66.3458 -335.917)" d="M 8956.9,4563.24 A 77.3419,77.3419 0 1 0 9111.59,4563.24A 77.3419,77.3419 0 1 0 8956.9,4563.24Z " />
<path stroke="none" fill="#dbdbdb" transform="matrix(0.0833333 0 0 0.0833333 -66.3458 -335.917)" d="M 8958.36,4561.29 A 73.924,73.924 0 1 0 9106.21,4561.29A 73.924,73.924 0 1 0 8958.36,4561.29Z " />
<path stroke="none" fill="#dfdfdf" transform="matrix(0.0833333 0 0 0.0833333 -66.3458 -335.917)" d="M 8959.83,4559.33 A 70.506,70.506 0 1 0 9100.84,4559.33A 70.506,70.506 0 1 0 8959.83,4559.33Z " />
<path stroke="none" fill="#e3e3e3" transform="matrix(0.0833333 0 0 0.0833333 -66.3458 -335.917)" d="M 8961.29,4557.37 A 67.088,67.088 0 1 0 9095.46,4557.37A 67.088,67.088 0 1 0 8961.29,4557.37Z " />
<path stroke="none" fill="#e6e6e6" transform="matrix(0.0833333 0 0 0.0833333 -66.3458 -335.917)" d="M 8962.75,4555.42 A 63.6701,63.6701 0 1 0 9090.09,4555.42A 63.6701,63.6701 0 1 0 8962.75,4555.42Z " />
<path stroke="none" fill="#eaeaea" transform="matrix(0.0833333 0 0 0.0833333 -66.3458 -335.917)" d="M 8964.21,4553.46 A 60.2521,60.2521 0 1 0 9084.72,4553.46A 60.2521,60.2521 0 1 0 8964.21,4553.46Z " />
<path stroke="none" fill="#ededed" transform="matrix(0.0833333 0 0 0.0833333 -66.3458 -335.917)" d="M 8965.67,4551.51 A 56.8341,56.8341 0 1 0 9079.34,4551.51A 56.8341,56.8341 0 1 0 8965.67,4551.51Z " />
<path stroke="none" fill="#efefef" transform="matrix(0.0833333 0 0 0.0833333 -66.3458 -335.917)" d="M 8967.14,4549.55 A 53.4162,53.4162 0 1 0 9073.97,4549.55A 53.4162,53.4162 0 1 0 8967.14,4549.55Z " />
<path stroke="none" fill="#f2f2f2" transform="matrix(0.0833333 0 0 0.0833333 -66.3458 -335.917)" d="M 8968.6,4547.59 A 49.9982,49.9982 0 1 0 9068.59,4547.59A 49.9982,49.9982 0 1 0 8968.6,4547.59Z " />
<path stroke="none" fill="#f4f4f4" transform="matrix(0.0833333 0 0 0.0833333 -66.3458 -335.917)" d="M 8970.06,4545.64 A 46.5802,46.5802 0 1 0 9063.22,4545.64A 46.5802,46.5802 0 1 0 8970.06,4545.64Z " />
<path stroke="none" fill="#f7f7f7" transform="matrix(0.0833333 0 0 0.0833333 -66.3458 -335.917)" d="M 8971.52,4543.68 A 43.1623,43.1623 0 1 0 9057.84,4543.68A 43.1623,43.1623 0 1 0 8971.52,4543.68Z " />
<path stroke="none" fill="#f8f8f8" transform="matrix(0.0833333 0 0 0.0833333 -66.3458 -335.917)" d="M 8972.98,4541.73 A 39.7443,39.7443 0 1 0 9052.47,4541.73A 39.7443,39.7443 0 1 0 8972.98,4541.73Z " />
<path stroke="none" fill="#fafafa" transform="matrix(0.0833333 0 0 0.0833333 -66.3458 -335.917)" d="M 8974.44,4539.77 A 36.3263,36.3263 0 1 0 9047.1,4539.77A 36.3263,36.3263 0 1 0 8974.44,4539.77Z " />
<path stroke="none" fill="#fbfbfb" transform="matrix(0.0833333 0 0 0.0833333 -66.3458 -335.917)" d="M 8975.91,4537.81 A 32.9084,32.9084 0 1 0 9041.72,4537.81A 32.9084,32.9084 0 1 0 8975.91,4537.81Z " />
<path stroke="none" fill="#fdfdfd" transform="matrix(0.0833333 0 0 0.0833333 -66.3458 -335.917)" d="M 8977.37,4535.86 A 29.4904,29.4904 0 1 0 9036.35,4535.86A 29.4904,29.4904 0 1 0 8977.37,4535.86Z " />
<path stroke="none" fill="#fdfdfd" transform="matrix(0.0833333 0 0 0.0833333 -66.3458 -335.917)" d="M 8978.83,4533.9 A 26.0724,26.0724 0 1 0 9030.97,4533.9A 26.0724,26.0724 0 1 0 8978.83,4533.9Z " />
<path stroke="none" fill="#fefefe" transform="matrix(0.0833333 0 0 0.0833333 -66.3458 -335.917)" d="M 8980.29,4531.94 A 22.6544,22.6544 0 1 0 9025.6,4531.94A 22.6544,22.6544 0 1 0 8980.29,4531.94Z " />
<path stroke="none" fill="#fefefe" transform="matrix(0.0833333 0 0 0.0833333 -66.3458 -335.917)" d="M 8981.75,4529.99 A 19.2365,19.2365 0 1 0 9020.23,4529.99A 19.2365,19.2365 0 1 0 8981.75,4529.99Z " />
<path stroke="#808080" stroke-width="7" fill="none" transform="matrix(0.0833333 0 0 0.0833333 -66.3458 -335.917)" d="M 8936.44,4590.63 A 125.194,125.194 0 1 0 9186.82,4590.63A 125.194,125.194 0 1 0 8936.44,4590.63Z " />
<text x="0" y="0" stroke="none" fill="#000000" transform="matrix(0.0833333 0 0 0.0833333 683.497 48.2175)" font-style="normal" font-weight="normal" font-size="83.4624px" font-family="Times New Roman" >
Ag</text>
<text x="0" y="0" stroke="none" fill="#000000" transform="matrix(0.0833333 0 0 0.0833333 691.997 45.5925)" font-style="normal" font-weight="normal" font-size="62.5968px" font-family="Times New Roman" >
+</text>
<path stroke="none" fill="#000000" transform="matrix(0.0833333 0 0 0.0833333 -66.3458 -335.917)" d="M 7952.54,4181.2 L 7950.33,4178.46 L 7949.61,4174.94 L 8130.6,4076.37 L 8130.61,4084.28 L 7952.54,4181.2 Z " />
<path stroke="none" fill="#000000" transform="matrix(0.0833333 0 0 0.0833333 -66.3458 -335.917)" d="M 8130.61,4084.28 L 8130.6,4076.37 L 8312.47,4174.96 L 8311.72,4178.46 L 8309.51,4181.19 L 8130.61,4084.28 Z " />
<path stroke="none" fill="#000000" transform="matrix(0.0833333 0 0 0.0833333 -66.3458 -335.917)" d="M 7944.36,4180.65 L 7950.33,4178.46 L 7952.54,4181.2 L 7860.88,4292.56 L 7856.38,4287.09 L 7944.36,4180.65 Z " />
<path stroke="none" fill="#000000" transform="matrix(0.0833333 0 0 0.0833333 -66.3458 -335.917)" d="M 7927.49,4184 L 7932.85,4188.42 L 7854.38,4283.67 L 7849.01,4279.25 L 7927.49,4184 Z " />
<path stroke="none" fill="#000000" transform="matrix(0.0833333 0 0 0.0833333 -66.3458 -335.917)" d="M 7856.38,4287.09 L 7860.88,4292.56 L 7678.89,4391.58 L 7677.59,4384.36 L 7856.38,4287.09 Z " />
<path stroke="none" fill="#000000" transform="matrix(0.0833333 0 0 0.0833333 -66.3458 -335.917)" d="M 7677.59,4384.36 L 7678.89,4391.58 L 7590.47,4378.13 L 7589.77,4374.6 L 7595.74,4372.42 L 7677.59,4384.36 Z " />
<path stroke="none" fill="#000000" transform="matrix(0.0833333 0 0 0.0833333 -66.3458 -335.917)" d="M 7675.69,4366.64 L 7674.65,4373.52 L 7621.76,4365.58 L 7622.79,4358.7 L 7675.69,4366.64 Z " />
<path stroke="none" fill="#000000" transform="matrix(0.0833333 0 0 0.0833333 -66.3458 -335.917)" d="M 7595.74,4372.42 L 7589.77,4374.6 L 7587.55,4371.88 L 7679.29,4260.58 L 7683.79,4266.05 L 7595.74,4372.42 Z " />
<path stroke="none" fill="#000000" transform="matrix(0.0833333 0 0 0.0833333 -66.3458 -335.917)" d="M 7683.79,4266.05 L 7679.29,4260.58 L 7861.21,4161.56 L 7862.51,4168.78 L 7683.79,4266.05 Z " />
<path stroke="none" fill="#000000" transform="matrix(0.0833333 0 0 0.0833333 -66.3458 -335.917)" d="M 7688.08,4272.24 L 7684.76,4266.13 L 7861.5,4169.95 L 7864.82,4176.06 L 7688.08,4272.24 Z " />
<path stroke="none" fill="#000000" transform="matrix(0.0833333 0 0 0.0833333 -66.3458 -335.917)" d="M 7862.51,4168.78 L 7861.21,4161.56 L 7949.61,4174.94 L 7950.33,4178.46 L 7944.36,4180.65 L 7862.51,4168.78 Z " />
<path stroke="none" fill="#000000" transform="matrix(0.0833333 0 0 0.0833333 -66.3458 -335.917)" d="M 8317.75,4180.79 L 8311.72,4178.46 L 8312.47,4174.96 L 8404.22,4163.4 L 8402.85,4170.57 L 8317.75,4180.79 Z " />
<path stroke="none" fill="#000000" transform="matrix(0.0833333 0 0 0.0833333 -66.3458 -335.917)" d="M 8343.94,4194.68 L 8343.09,4187.77 L 8399.94,4180.72 L 8400.8,4187.62 L 8343.94,4194.68 Z " />
<path stroke="none" fill="#000000" transform="matrix(0.0833333 0 0 0.0833333 -66.3458 -335.917)" d="M 8402.85,4170.57 L 8404.22,4163.4 L 8587.01,4262.46 L 8582.5,4267.93 L 8402.85,4170.57 Z " />
<path stroke="none" fill="#000000" transform="matrix(0.0833333 0 0 0.0833333 -66.3458 -335.917)" d="M 8582.5,4267.93 L 8587.01,4262.46 L 8676.18,4371.89 L 8673.95,4374.6 L 8667.92,4372.28 L 8582.5,4267.93 Z " />
<path stroke="none" fill="#000000" transform="matrix(0.0833333 0 0 0.0833333 -66.3458 -335.917)" d="M 8574.96,4275.92 L 8580.35,4271.52 L 8655.82,4364.05 L 8650.43,4368.45 L 8574.96,4275.92 Z " />
<path stroke="none" fill="#000000" transform="matrix(0.0833333 0 0 0.0833333 -66.3458 -335.917)" d="M 8667.92,4372.28 L 8673.95,4374.6 L 8673.21,4378.11 L 8581.45,4389.67 L 8582.82,4382.5 L 8667.92,4372.28 Z " />
<path stroke="none" fill="#000000" transform="matrix(0.0833333 0 0 0.0833333 -66.3458 -335.917)" d="M 8582.82,4382.5 L 8581.45,4389.67 L 8398.66,4290.68 L 8403.17,4285.21 L 8582.82,4382.5 Z " />
<path stroke="none" fill="#000000" transform="matrix(0.0833333 0 0 0.0833333 -66.3458 -335.917)" d="M 8585.18,4375.26 L 8581.86,4381.38 L 8404.14,4285.15 L 8407.46,4279.03 L 8585.18,4375.26 Z " />
<path stroke="none" fill="#000000" transform="matrix(0.0833333 0 0 0.0833333 -66.3458 -335.917)" d="M 8403.17,4285.21 L 8398.66,4290.68 L 8309.51,4181.19 L 8311.72,4178.46 L 8317.75,4180.79 L 8403.17,4285.21 Z " />
<text x="0" y="0" stroke="none" fill="#000000" transform="matrix(0.0833333 0 0 0.0833333 549.025 39.0616)" font-style="normal" font-weight="normal" font-size="69.552px" font-family="Arial" >
N</text>
<path stroke="none" fill="#000000" transform="matrix(0.0833333 0 0 0.0833333 -66.3458 -335.917)" d="M 7587.55,4371.88 L 7589.77,4374.6 L 7590.47,4378.13 L 7448.09,4455.72 L 7444.76,4449.61 L 7587.55,4371.88 Z " />
<text x="0" y="0" stroke="none" fill="#000000" transform="matrix(0.0833333 0 0 0.0833333 669.483 39.0616)" font-style="normal" font-weight="normal" font-size="69.552px" font-family="Arial" >
N</text>
<path stroke="none" fill="#000000" transform="matrix(0.0833333 0 0 0.0833333 -66.3458 -335.917)" d="M 8673.21,4378.11 L 8673.95,4374.6 L 8676.18,4371.89 L 8819.65,4449.6 L 8816.34,4455.71 L 8673.21,4378.11 Z " />
<path stroke="none" fill="#000000" transform="matrix(0.0833333 0 0 0.0833333 -66.3458 -335.917)" d="M 7376.71,4507.1 L 7382.07,4511.52 L 7327.55,4577.67 L 7321.39,4574.23 L 7376.71,4507.1 L 7376.71,4507.1 Z " />
<path stroke="none" fill="#000000" transform="matrix(0.0833333 0 0 0.0833333 -66.3458 -335.917)" d="M 7396.02,4523.03 L 7401.39,4527.45 L 7349.75,4590.05 L 7343.57,4586.6 L 7396.02,4523.03 L 7396.02,4523.03 Z " />
<path stroke="none" fill="#000000" transform="matrix(0.0833333 0 0 0.0833333 -66.3458 -335.917)" d="M 8882.25,4511.57 L 8887.64,4507.17 L 8946.46,4579.38 L 8941.97,4584.87 L 8882.25,4511.57 L 8882.25,4511.57 Z " />
<path stroke="none" fill="#000000" transform="matrix(0.0833333 0 0 0.0833333 -66.3458 -335.917)" d="M 8901.64,4495.75 L 8907.03,4491.35 L 8963.26,4560.29 L 8957.87,4564.69 L 8901.64,4495.75 L 8901.64,4495.75 Z " />
<path stroke="none" fill="#000000" transform="matrix(0.0833333 0 0 0.0833333 -66.3458 -335.917)" d="M 8941.97,4584.87 L 8946.46,4579.38 L 8964.96,4589.41 L 8959.93,4594.6 L 8941.97,4584.87 L 8941.97,4584.87 Z " />
<path stroke="none" fill="#000000" transform="matrix(0.0833333 0 0 0.0833333 -66.3458 -335.917)" d="M 9126.26,4676.82 L 9125.41,4680.28 L 9123.19,4683.01 L 9015.28,4624.57 L 9022.43,4620.55 L 9126.26,4676.82 L 9126.26,4676.82 Z " />
<path stroke="none" fill="#000000" transform="matrix(0.0833333 0 0 0.0833333 -66.3458 -335.917)" d="M 7139.76,4684.82 L 7137.55,4682.09 L 7136.72,4678.62 L 7288.77,4595.86 L 7295.95,4599.87 L 7139.76,4684.82 L 7139.76,4684.82 Z " />
<text x="0" y="0" stroke="none" fill="#000000" transform="matrix(0.0833333 0 0 0.0833333 518.978 55.4063)" font-style="normal" font-weight="normal" font-size="69.552px" font-family="Arial" >
N</text>
<path stroke="none" fill="#000000" transform="matrix(0.0833333 0 0 0.0833333 -66.3458 -335.917)" d="M 7131.74,4684.06 L 7137.55,4682.09 L 7139.76,4684.82 L 7048.03,4796.18 L 7043.52,4790.71 L 7131.74,4684.06 Z " />
<path stroke="none" fill="#000000" transform="matrix(0.0833333 0 0 0.0833333 -66.3458 -335.917)" d="M 7114.7,4687.62 L 7120.07,4692.04 L 7041.53,4787.3 L 7036.16,4782.88 L 7114.7,4687.62 Z " />
<path stroke="none" fill="#000000" transform="matrix(0.0833333 0 0 0.0833333 -66.3458 -335.917)" d="M 7043.52,4790.71 L 7048.03,4796.18 L 6866.04,4895.2 L 6864.74,4887.98 L 7043.52,4790.71 Z " />
<path stroke="none" fill="#000000" transform="matrix(0.0833333 0 0 0.0833333 -66.3458 -335.917)" d="M 6864.74,4887.98 L 6866.04,4895.2 L 6769.62,4881.18 L 6782.95,4876.04 L 6864.74,4887.98 Z " />
<path stroke="none" fill="#000000" transform="matrix(0.0833333 0 0 0.0833333 -66.3458 -335.917)" d="M 6862.83,4870.27 L 6861.8,4877.14 L 6808.96,4869.21 L 6809.99,4862.33 L 6862.83,4870.27 Z " />
<path stroke="none" fill="#000000" transform="matrix(0.0833333 0 0 0.0833333 -66.3458 -335.917)" d="M 6782.95,4876.04 L 6769.62,4881.18 L 6862.96,4768.86 L 6868.73,4766.94 L 6870.95,4769.66 L 6782.95,4876.04 Z " />
<path stroke="none" fill="#000000" transform="matrix(0.0833333 0 0 0.0833333 -66.3458 -335.917)" d="M 6870.95,4769.66 L 6868.73,4766.94 L 6867.89,4763.48 L 7008.34,4687.04 L 7011.66,4693.15 L 6870.95,4769.66 Z " />
<path stroke="none" fill="#000000" transform="matrix(0.0833333 0 0 0.0833333 -66.3458 -335.917)" d="M 6875.27,4775.91 L 6871.94,4769.8 L 7011.93,4693.65 L 7015.26,4699.76 L 6875.27,4775.91 Z " />
<path stroke="none" fill="#000000" transform="matrix(0.0833333 0 0 0.0833333 -66.3458 -335.917)" d="M 7081.7,4677.27 L 7082.73,4670.39 L 7136.72,4678.62 L 7137.55,4682.09 L 7131.74,4684.06 L 7081.7,4677.27 Z " />
<text x="0" y="0" stroke="none" fill="#000000" transform="matrix(0.0833333 0 0 0.0833333 699.669 55.4063)" font-style="normal" font-weight="normal" font-size="69.552px" font-family="Arial" >
N</text>
<path stroke="none" fill="#000000" transform="matrix(0.0833333 0 0 0.0833333 -66.3458 -335.917)" d="M 9131.28,4682.39 L 9125.41,4680.28 L 9126.26,4676.82 L 9183.25,4669.6 L 9184.1,4676.5 L 9131.28,4682.39 Z " />
<path stroke="none" fill="#000000" transform="matrix(0.0833333 0 0 0.0833333 -66.3458 -335.917)" d="M 9156.66,4696.1 L 9155.8,4689.2 L 9185.23,4685.55 L 9186.08,4692.45 L 9156.66,4696.1 Z " />
<path stroke="none" fill="#000000" transform="matrix(0.0833333 0 0 0.0833333 -66.3458 -335.917)" d="M 9254.48,4692.97 L 9257.79,4686.85 L 9399.26,4763.5 L 9398.4,4766.94 L 9396.17,4769.66 L 9254.48,4692.97 Z " />
<path stroke="none" fill="#000000" transform="matrix(0.0833333 0 0 0.0833333 -66.3458 -335.917)" d="M 9396.17,4769.66 L 9398.4,4766.94 L 9404.24,4769.01 L 9495.11,4879.53 L 9481.61,4874.09 L 9396.17,4769.66 Z " />
<path stroke="none" fill="#000000" transform="matrix(0.0833333 0 0 0.0833333 -66.3458 -335.917)" d="M 9388.64,4777.67 L 9394.03,4773.28 L 9469.5,4865.86 L 9464.1,4870.25 L 9388.64,4777.67 Z " />
<path stroke="none" fill="#000000" transform="matrix(0.0833333 0 0 0.0833333 -66.3458 -335.917)" d="M 9481.61,4874.09 L 9495.11,4879.53 L 9395.13,4891.49 L 9396.51,4884.32 L 9481.61,4874.09 Z " />
<path stroke="none" fill="#000000" transform="matrix(0.0833333 0 0 0.0833333 -66.3458 -335.917)" d="M 9396.51,4884.32 L 9395.13,4891.49 L 9212.35,4792.5 L 9216.86,4787.03 L 9396.51,4884.32 Z " />
<path stroke="none" fill="#000000" transform="matrix(0.0833333 0 0 0.0833333 -66.3458 -335.917)" d="M 9398.86,4877.08 L 9395.55,4883.19 L 9217.83,4786.96 L 9221.14,4780.85 L 9398.86,4877.08 Z " />
<path stroke="none" fill="#000000" transform="matrix(0.0833333 0 0 0.0833333 -66.3458 -335.917)" d="M 9216.86,4787.03 L 9212.35,4792.5 L 9123.19,4683.01 L 9125.41,4680.28 L 9131.28,4682.39 L 9216.86,4787.03 Z " />
<text x="0" y="0" stroke="none" fill="#000000" transform="matrix(0.0833333 0 0 0.0833333 496.421 62.4716)" font-style="normal" font-weight="normal" font-size="69.552px" font-family="Arial" >
O</text>
<path stroke="none" fill="#000000" transform="matrix(0.0833333 0 0 0.0833333 -66.3458 -335.917)" d="M 6867.89,4763.48 L 6868.73,4766.94 L 6862.96,4768.86 L 6816.92,4762.68 L 6817.95,4755.8 L 6867.89,4763.48 Z " />
<path stroke="none" fill="#000000" transform="matrix(0.0833333 0 0 0.0833333 -66.3458 -335.917)" d="M 6743.07,4769.94 L 6746.4,4776.05 L 6601.64,4854.85 L 6598.32,4848.74 L 6743.07,4769.94 Z " />
<text x="0" y="0" stroke="none" fill="#000000" transform="matrix(0.0833333 0 0 0.0833333 722.257 62.6281)" font-style="normal" font-weight="normal" font-size="69.552px" font-family="Arial" >
O</text>
<path stroke="none" fill="#000000" transform="matrix(0.0833333 0 0 0.0833333 -66.3458 -335.917)" d="M 9404.24,4769.01 L 9398.4,4766.94 L 9399.26,4763.5 L 9452.36,4756.74 L 9453.22,4763.64 L 9404.24,4769.01 Z " />
<path stroke="none" fill="#000000" transform="matrix(0.0833333 0 0 0.0833333 -66.3458 -335.917)" d="M 9524.03,4777.77 L 9527.35,4771.65 L 9673.05,4850.55 L 9669.74,4856.66 L 9524.03,4777.77 Z " />
<path stroke="none" fill="#000000" transform="matrix(0.0833333 0 0 0.0833333 -66.3458 -335.917)" d="M 6093.66,4569.05 L 5725.77,4569.05 L 5725.77,4562.05 L 6093.66,4562.05 Z " />
<path stroke="none" fill="#000000" transform="matrix(0.0833333 0 0 0.0833333 -66.3458 -335.917)" d="M 5775.2,4582.92 L 6143.08,4582.92 L 6143.08,4589.92 L 5775.2,4589.92 Z " />
<path stroke="none" fill="#000000" transform="matrix(0.0833333 0 0 0.0833333 -66.3458 -335.917)" d="M 6153.52,4569.05 C 6153.52,4569.05 6092.66,4569.05 6092.66,4569.05 C 6092.66,4557.07 6083.96,4546.16 6083.96,4546.16 C 6083.96,4546.16 6153.52,4569.05 6153.52,4569.05 C 6153.52,4569.05 6153.52,4569.05 6153.52,4569.05 " />
<path stroke="#000000" stroke-width="1" fill="none" transform="matrix(0.0833333 0 0 0.0833333 -66.3458 -335.917)" d="M 6153.52,4569.05 C 6153.52,4569.05 6092.66,4569.05 6092.66,4569.05 C 6092.66,4557.07 6083.96,4546.16 6083.96,4546.16 C 6083.96,4546.16 6153.52,4569.05 6153.52,4569.05 C 6153.52,4569.05 6153.52,4569.05 6153.52,4569.05 " />
<path stroke="none" fill="#000000" transform="matrix(0.0833333 0 0 0.0833333 -66.3458 -335.917)" d="M 5715.34,4582.92 C 5715.34,4582.92 5784.89,4605.8 5784.89,4605.8 C 5784.89,4605.8 5776.2,4587.9 5776.2,4582.92 C 5776.2,4582.92 5715.34,4582.92 5715.34,4582.92 C 5715.34,4582.92 5715.34,4582.92 5715.34,4582.92 " />
<path stroke="#000000" stroke-width="1" fill="none" transform="matrix(0.0833333 0 0 0.0833333 -66.3458 -335.917)" d="M 5715.34,4582.92 C 5715.34,4582.92 5784.89,4605.8 5784.89,4605.8 C 5784.89,4605.8 5776.2,4587.9 5776.2,4582.92 C 5776.2,4582.92 5715.34,4582.92 5715.34,4582.92 C 5715.34,4582.92 5715.34,4582.92 5715.34,4582.92 " />
<text x="0" y="0" stroke="none" fill="#000000" transform="matrix(0.0833333 0 0 0.0833333 421.928 41.8675)" font-style="normal" font-weight="normal" font-size="83.4624px" font-family="Times New Roman" >
H</text>
<text x="0" y="0" stroke="none" fill="#000000" transform="matrix(0.0833333 0 0 0.0833333 426.951 43.5342)" font-style="normal" font-weight="normal" font-size="62.5968px" font-family="Times New Roman" >
2</text>
<text x="0" y="0" stroke="none" fill="#000000" transform="matrix(0.0833333 0 0 0.0833333 429.559 41.8675)" font-style="normal" font-weight="normal" font-size="83.4624px" font-family="Times New Roman" >
O</text>
<text x="0" y="0" stroke="none" fill="#000000" transform="matrix(0.0833333 0 0 0.0833333 81.0875 44.75)" font-style="normal" font-weight="normal" font-size="83.214px" font-family="Times New Roman" >
2</text>
</svg>
