<?xml version="1.0" encoding="utf-8" standalone="no"?>
<!DOCTYPE svg PUBLIC "-//W3C//DTD SVG 1.1//EN"
  "http://www.w3.org/Graphics/SVG/1.1/DTD/svg11.dtd">
<svg xmlns:xlink="http://www.w3.org/1999/xlink" width="1188pt" height="252pt" viewBox="0 0 1188 252" xmlns="http://www.w3.org/2000/svg" version="1.1">
 <metadata>
  <rdf:RDF xmlns:dc="http://purl.org/dc/elements/1.1/" xmlns:cc="http://creativecommons.org/ns#" xmlns:rdf="http://www.w3.org/1999/02/22-rdf-syntax-ns#">
   <cc:Work>
    <dc:type rdf:resource="http://purl.org/dc/dcmitype/StillImage"/>
    <dc:date>2024-07-23T21:42:22.926768</dc:date>
    <dc:format>image/svg+xml</dc:format>
    <dc:creator>
     <cc:Agent>
      <dc:title>Matplotlib v3.8.4, https://matplotlib.org/</dc:title>
     </cc:Agent>
    </dc:creator>
   </cc:Work>
  </rdf:RDF>
 </metadata>
 <defs>
  <style type="text/css">*{stroke-linejoin: round; stroke-linecap: butt}</style>
 </defs>
 <g id="figure_1">
  <g id="patch_1">
   <path d="M 0 252 
L 1188 252 
L 1188 0 
L 0 0 
z
" style="fill: #ffffff"/>
  </g>
  <g id="axes_1">
   <g id="patch_2">
    <path d="M 3.00024 198.907885 
L 1184.99976 198.907885 
L 1184.99976 3.00024 
L 3.00024 3.00024 
z
" style="fill: #ffffff"/>
   </g>
   <g id="matplotlib.axis_1">
    <g id="xtick_1">
     <g id="line2d_1">
      <defs>
       <path id="m33ef4220d5" d="M 0 0 
L 0 8 
" style="stroke: #000000; stroke-width: 2"/>
      </defs>
      <g>
       <use xlink:href="#m33ef4220d5" x="1131.272509" y="198.907885" style="stroke: #000000; stroke-width: 2"/>
      </g>
     </g>
     <g id="text_1">
      <!-- 0 -->
      <g transform="translate(1126.267665 224.791947) scale(0.18 -0.18)">
       <defs>
        <path id="Arial-BoldMT-30" d="M 1756 4600 
Q 2422 4600 2797 4125 
Q 3244 3563 3244 2259 
Q 3244 959 2794 391 
Q 2422 -78 1756 -78 
Q 1088 -78 678 436 
Q 269 950 269 2269 
Q 269 3563 719 4131 
Q 1091 4600 1756 4600 
z
M 1756 3872 
Q 1597 3872 1472 3770 
Q 1347 3669 1278 3406 
Q 1188 3066 1188 2259 
Q 1188 1453 1269 1151 
Q 1350 850 1473 750 
Q 1597 650 1756 650 
Q 1916 650 2041 751 
Q 2166 853 2234 1116 
Q 2325 1453 2325 2259 
Q 2325 3066 2244 3367 
Q 2163 3669 2039 3770 
Q 1916 3872 1756 3872 
z
" transform="scale(0.015625)"/>
       </defs>
       <use xlink:href="#Arial-BoldMT-30"/>
      </g>
     </g>
    </g>
    <g id="xtick_2">
     <g id="line2d_2">
      <g>
       <use xlink:href="#m33ef4220d5" x="1023.818007" y="198.907885" style="stroke: #000000; stroke-width: 2"/>
      </g>
     </g>
     <g id="text_2">
      <!-- 1 -->
      <g transform="translate(1018.813164 224.791947) scale(0.18 -0.18)">
       <defs>
        <path id="Arial-BoldMT-31" d="M 2519 0 
L 1641 0 
L 1641 3309 
Q 1159 2859 506 2644 
L 506 3441 
Q 850 3553 1253 3867 
Q 1656 4181 1806 4600 
L 2519 4600 
L 2519 0 
z
" transform="scale(0.015625)"/>
       </defs>
       <use xlink:href="#Arial-BoldMT-31"/>
      </g>
     </g>
    </g>
    <g id="xtick_3">
     <g id="line2d_3">
      <g>
       <use xlink:href="#m33ef4220d5" x="916.363505" y="198.907885" style="stroke: #000000; stroke-width: 2"/>
      </g>
     </g>
     <g id="text_3">
      <!-- 2 -->
      <g transform="translate(911.358662 224.791947) scale(0.18 -0.18)">
       <defs>
        <path id="Arial-BoldMT-32" d="M 3238 816 
L 3238 0 
L 159 0 
Q 209 463 459 877 
Q 709 1291 1447 1975 
Q 2041 2528 2175 2725 
Q 2356 2997 2356 3263 
Q 2356 3556 2198 3714 
Q 2041 3872 1763 3872 
Q 1488 3872 1325 3706 
Q 1163 3541 1138 3156 
L 263 3244 
Q 341 3969 753 4284 
Q 1166 4600 1784 4600 
Q 2463 4600 2850 4234 
Q 3238 3869 3238 3325 
Q 3238 3016 3127 2736 
Q 3016 2456 2775 2150 
Q 2616 1947 2200 1565 
Q 1784 1184 1673 1059 
Q 1563 934 1494 816 
L 3238 816 
z
" transform="scale(0.015625)"/>
       </defs>
       <use xlink:href="#Arial-BoldMT-32"/>
      </g>
     </g>
    </g>
    <g id="xtick_4">
     <g id="line2d_4">
      <g>
       <use xlink:href="#m33ef4220d5" x="808.909004" y="198.907885" style="stroke: #000000; stroke-width: 2"/>
      </g>
     </g>
     <g id="text_4">
      <!-- 3 -->
      <g transform="translate(803.90416 224.791947) scale(0.18 -0.18)">
       <defs>
        <path id="Arial-BoldMT-33" d="M 241 1216 
L 1091 1319 
Q 1131 994 1309 822 
Q 1488 650 1741 650 
Q 2013 650 2198 856 
Q 2384 1063 2384 1413 
Q 2384 1744 2206 1937 
Q 2028 2131 1772 2131 
Q 1603 2131 1369 2066 
L 1466 2781 
Q 1822 2772 2009 2936 
Q 2197 3100 2197 3372 
Q 2197 3603 2059 3740 
Q 1922 3878 1694 3878 
Q 1469 3878 1309 3722 
Q 1150 3566 1116 3266 
L 306 3403 
Q 391 3819 561 4067 
Q 731 4316 1036 4458 
Q 1341 4600 1719 4600 
Q 2366 4600 2756 4188 
Q 3078 3850 3078 3425 
Q 3078 2822 2419 2463 
Q 2813 2378 3048 2084 
Q 3284 1791 3284 1375 
Q 3284 772 2843 347 
Q 2403 -78 1747 -78 
Q 1125 -78 715 280 
Q 306 638 241 1216 
z
" transform="scale(0.015625)"/>
       </defs>
       <use xlink:href="#Arial-BoldMT-33"/>
      </g>
     </g>
    </g>
    <g id="xtick_5">
     <g id="line2d_5">
      <g>
       <use xlink:href="#m33ef4220d5" x="701.454502" y="198.907885" style="stroke: #000000; stroke-width: 2"/>
      </g>
     </g>
     <g id="text_5">
      <!-- 4 -->
      <g transform="translate(696.449658 224.791947) scale(0.18 -0.18)">
       <defs>
        <path id="Arial-BoldMT-34" d="M 1994 0 
L 1994 922 
L 119 922 
L 119 1691 
L 2106 4600 
L 2844 4600 
L 2844 1694 
L 3413 1694 
L 3413 922 
L 2844 922 
L 2844 0 
L 1994 0 
z
M 1994 1694 
L 1994 3259 
L 941 1694 
L 1994 1694 
z
" transform="scale(0.015625)"/>
       </defs>
       <use xlink:href="#Arial-BoldMT-34"/>
      </g>
     </g>
    </g>
    <g id="xtick_6">
     <g id="line2d_6">
      <g>
       <use xlink:href="#m33ef4220d5" x="594" y="198.907885" style="stroke: #000000; stroke-width: 2"/>
      </g>
     </g>
     <g id="text_6">
      <!-- 5 -->
      <g transform="translate(588.995156 224.791947) scale(0.18 -0.18)">
       <defs>
        <path id="Arial-BoldMT-35" d="M 284 1178 
L 1159 1269 
Q 1197 972 1381 798 
Q 1566 625 1806 625 
Q 2081 625 2272 848 
Q 2463 1072 2463 1522 
Q 2463 1944 2273 2155 
Q 2084 2366 1781 2366 
Q 1403 2366 1103 2031 
L 391 2134 
L 841 4519 
L 3163 4519 
L 3163 3697 
L 1506 3697 
L 1369 2919 
Q 1663 3066 1969 3066 
Q 2553 3066 2959 2641 
Q 3366 2216 3366 1538 
Q 3366 972 3038 528 
Q 2591 -78 1797 -78 
Q 1163 -78 763 262 
Q 363 603 284 1178 
z
" transform="scale(0.015625)"/>
       </defs>
       <use xlink:href="#Arial-BoldMT-35"/>
      </g>
     </g>
    </g>
    <g id="xtick_7">
     <g id="line2d_7">
      <g>
       <use xlink:href="#m33ef4220d5" x="486.545498" y="198.907885" style="stroke: #000000; stroke-width: 2"/>
      </g>
     </g>
     <g id="text_7">
      <!-- 6 -->
      <g transform="translate(481.540654 224.791947) scale(0.18 -0.18)">
       <defs>
        <path id="Arial-BoldMT-36" d="M 3247 3459 
L 2397 3366 
Q 2366 3628 2234 3753 
Q 2103 3878 1894 3878 
Q 1616 3878 1423 3628 
Q 1231 3378 1181 2588 
Q 1509 2975 1997 2975 
Q 2547 2975 2939 2556 
Q 3331 2138 3331 1475 
Q 3331 772 2918 347 
Q 2506 -78 1859 -78 
Q 1166 -78 719 461 
Q 272 1000 272 2228 
Q 272 3488 737 4044 
Q 1203 4600 1947 4600 
Q 2469 4600 2811 4308 
Q 3153 4016 3247 3459 
z
M 1256 1544 
Q 1256 1116 1453 883 
Q 1650 650 1903 650 
Q 2147 650 2309 840 
Q 2472 1031 2472 1466 
Q 2472 1913 2297 2120 
Q 2122 2328 1859 2328 
Q 1606 2328 1431 2129 
Q 1256 1931 1256 1544 
z
" transform="scale(0.015625)"/>
       </defs>
       <use xlink:href="#Arial-BoldMT-36"/>
      </g>
     </g>
    </g>
    <g id="xtick_8">
     <g id="line2d_8">
      <g>
       <use xlink:href="#m33ef4220d5" x="379.090996" y="198.907885" style="stroke: #000000; stroke-width: 2"/>
      </g>
     </g>
     <g id="text_8">
      <!-- 7 -->
      <g transform="translate(374.086153 224.791947) scale(0.18 -0.18)">
       <defs>
        <path id="Arial-BoldMT-37" d="M 272 3703 
L 272 4519 
L 3275 4519 
L 3275 3881 
Q 2903 3516 2518 2831 
Q 2134 2147 1932 1376 
Q 1731 606 1734 0 
L 888 0 
Q 909 950 1279 1937 
Q 1650 2925 2269 3703 
L 272 3703 
z
" transform="scale(0.015625)"/>
       </defs>
       <use xlink:href="#Arial-BoldMT-37"/>
      </g>
     </g>
    </g>
    <g id="xtick_9">
     <g id="line2d_9">
      <g>
       <use xlink:href="#m33ef4220d5" x="271.636495" y="198.907885" style="stroke: #000000; stroke-width: 2"/>
      </g>
     </g>
     <g id="text_9">
      <!-- 8 -->
      <g transform="translate(266.631651 224.791947) scale(0.18 -0.18)">
       <defs>
        <path id="Arial-BoldMT-38" d="M 1025 2472 
Q 684 2616 529 2867 
Q 375 3119 375 3419 
Q 375 3931 733 4265 
Q 1091 4600 1750 4600 
Q 2403 4600 2764 4265 
Q 3125 3931 3125 3419 
Q 3125 3100 2959 2851 
Q 2794 2603 2494 2472 
Q 2875 2319 3073 2025 
Q 3272 1731 3272 1347 
Q 3272 713 2867 316 
Q 2463 -81 1791 -81 
Q 1166 -81 750 247 
Q 259 634 259 1309 
Q 259 1681 443 1992 
Q 628 2303 1025 2472 
z
M 1206 3356 
Q 1206 3094 1354 2947 
Q 1503 2800 1750 2800 
Q 2000 2800 2150 2948 
Q 2300 3097 2300 3359 
Q 2300 3606 2151 3754 
Q 2003 3903 1759 3903 
Q 1506 3903 1356 3753 
Q 1206 3603 1206 3356 
z
M 1125 1394 
Q 1125 1031 1311 828 
Q 1497 625 1775 625 
Q 2047 625 2225 820 
Q 2403 1016 2403 1384 
Q 2403 1706 2222 1901 
Q 2041 2097 1763 2097 
Q 1441 2097 1283 1875 
Q 1125 1653 1125 1394 
z
" transform="scale(0.015625)"/>
       </defs>
       <use xlink:href="#Arial-BoldMT-38"/>
      </g>
     </g>
    </g>
    <g id="xtick_10">
     <g id="line2d_10">
      <g>
       <use xlink:href="#m33ef4220d5" x="164.181993" y="198.907885" style="stroke: #000000; stroke-width: 2"/>
      </g>
     </g>
     <g id="text_10">
      <!-- 9 -->
      <g transform="translate(159.177149 224.791947) scale(0.18 -0.18)">
       <defs>
        <path id="Arial-BoldMT-39" d="M 291 1059 
L 1141 1153 
Q 1172 894 1303 769 
Q 1434 644 1650 644 
Q 1922 644 2112 894 
Q 2303 1144 2356 1931 
Q 2025 1547 1528 1547 
Q 988 1547 595 1964 
Q 203 2381 203 3050 
Q 203 3747 617 4173 
Q 1031 4600 1672 4600 
Q 2369 4600 2816 4061 
Q 3263 3522 3263 2288 
Q 3263 1031 2797 475 
Q 2331 -81 1584 -81 
Q 1047 -81 715 205 
Q 384 491 291 1059 
z
M 2278 2978 
Q 2278 3403 2083 3637 
Q 1888 3872 1631 3872 
Q 1388 3872 1227 3680 
Q 1066 3488 1066 3050 
Q 1066 2606 1241 2398 
Q 1416 2191 1678 2191 
Q 1931 2191 2104 2391 
Q 2278 2591 2278 2978 
z
" transform="scale(0.015625)"/>
       </defs>
       <use xlink:href="#Arial-BoldMT-39"/>
      </g>
     </g>
    </g>
    <g id="xtick_11">
     <g id="line2d_11">
      <g>
       <use xlink:href="#m33ef4220d5" x="56.727491" y="198.907885" style="stroke: #000000; stroke-width: 2"/>
      </g>
     </g>
     <g id="text_11">
      <!-- 10 -->
      <g transform="translate(46.717803 224.791947) scale(0.18 -0.18)">
       <use xlink:href="#Arial-BoldMT-31"/>
       <use xlink:href="#Arial-BoldMT-30" x="55.615234"/>
      </g>
     </g>
    </g>
    <g id="text_12">
     <!-- Chemical Shift / ppm -->
     <g transform="translate(504.992813 245.447573) scale(0.18 -0.18)">
      <defs>
       <path id="Arial-BoldMT-43" d="M 3397 1684 
L 4294 1400 
Q 4088 650 3608 286 
Q 3128 -78 2391 -78 
Q 1478 -78 890 545 
Q 303 1169 303 2250 
Q 303 3394 893 4026 
Q 1484 4659 2447 4659 
Q 3288 4659 3813 4163 
Q 4125 3869 4281 3319 
L 3366 3100 
Q 3284 3456 3026 3662 
Q 2769 3869 2400 3869 
Q 1891 3869 1573 3503 
Q 1256 3138 1256 2319 
Q 1256 1450 1568 1081 
Q 1881 713 2381 713 
Q 2750 713 3015 947 
Q 3281 1181 3397 1684 
z
" transform="scale(0.015625)"/>
       <path id="Arial-BoldMT-68" d="M 1334 4581 
L 1334 2897 
Q 1759 3394 2350 3394 
Q 2653 3394 2897 3281 
Q 3141 3169 3264 2994 
Q 3388 2819 3433 2606 
Q 3478 2394 3478 1947 
L 3478 0 
L 2600 0 
L 2600 1753 
Q 2600 2275 2550 2415 
Q 2500 2556 2373 2639 
Q 2247 2722 2056 2722 
Q 1838 2722 1666 2615 
Q 1494 2509 1414 2295 
Q 1334 2081 1334 1663 
L 1334 0 
L 456 0 
L 456 4581 
L 1334 4581 
z
" transform="scale(0.015625)"/>
       <path id="Arial-BoldMT-65" d="M 2381 1056 
L 3256 909 
Q 3088 428 2723 176 
Q 2359 -75 1813 -75 
Q 947 -75 531 491 
Q 203 944 203 1634 
Q 203 2459 634 2926 
Q 1066 3394 1725 3394 
Q 2466 3394 2894 2905 
Q 3322 2416 3303 1406 
L 1103 1406 
Q 1113 1016 1316 798 
Q 1519 581 1822 581 
Q 2028 581 2168 693 
Q 2309 806 2381 1056 
z
M 2431 1944 
Q 2422 2325 2234 2523 
Q 2047 2722 1778 2722 
Q 1491 2722 1303 2513 
Q 1116 2303 1119 1944 
L 2431 1944 
z
" transform="scale(0.015625)"/>
       <path id="Arial-BoldMT-6d" d="M 394 3319 
L 1203 3319 
L 1203 2866 
Q 1638 3394 2238 3394 
Q 2556 3394 2790 3262 
Q 3025 3131 3175 2866 
Q 3394 3131 3647 3262 
Q 3900 3394 4188 3394 
Q 4553 3394 4806 3245 
Q 5059 3097 5184 2809 
Q 5275 2597 5275 2122 
L 5275 0 
L 4397 0 
L 4397 1897 
Q 4397 2391 4306 2534 
Q 4184 2722 3931 2722 
Q 3747 2722 3584 2609 
Q 3422 2497 3350 2280 
Q 3278 2063 3278 1594 
L 3278 0 
L 2400 0 
L 2400 1819 
Q 2400 2303 2353 2443 
Q 2306 2584 2207 2653 
Q 2109 2722 1941 2722 
Q 1738 2722 1575 2612 
Q 1413 2503 1342 2297 
Q 1272 2091 1272 1613 
L 1272 0 
L 394 0 
L 394 3319 
z
" transform="scale(0.015625)"/>
       <path id="Arial-BoldMT-69" d="M 459 3769 
L 459 4581 
L 1338 4581 
L 1338 3769 
L 459 3769 
z
M 459 0 
L 459 3319 
L 1338 3319 
L 1338 0 
L 459 0 
z
" transform="scale(0.015625)"/>
       <path id="Arial-BoldMT-63" d="M 3353 2338 
L 2488 2181 
Q 2444 2441 2289 2572 
Q 2134 2703 1888 2703 
Q 1559 2703 1364 2476 
Q 1169 2250 1169 1719 
Q 1169 1128 1367 884 
Q 1566 641 1900 641 
Q 2150 641 2309 783 
Q 2469 925 2534 1272 
L 3397 1125 
Q 3263 531 2881 228 
Q 2500 -75 1859 -75 
Q 1131 -75 698 384 
Q 266 844 266 1656 
Q 266 2478 700 2936 
Q 1134 3394 1875 3394 
Q 2481 3394 2839 3133 
Q 3197 2872 3353 2338 
z
" transform="scale(0.015625)"/>
       <path id="Arial-BoldMT-61" d="M 1116 2306 
L 319 2450 
Q 453 2931 781 3162 
Q 1109 3394 1756 3394 
Q 2344 3394 2631 3255 
Q 2919 3116 3036 2902 
Q 3153 2688 3153 2116 
L 3144 1091 
Q 3144 653 3186 445 
Q 3228 238 3344 0 
L 2475 0 
Q 2441 88 2391 259 
Q 2369 338 2359 363 
Q 2134 144 1878 34 
Q 1622 -75 1331 -75 
Q 819 -75 523 203 
Q 228 481 228 906 
Q 228 1188 362 1408 
Q 497 1628 739 1745 
Q 981 1863 1438 1950 
Q 2053 2066 2291 2166 
L 2291 2253 
Q 2291 2506 2166 2614 
Q 2041 2722 1694 2722 
Q 1459 2722 1328 2630 
Q 1197 2538 1116 2306 
z
M 2291 1594 
Q 2122 1538 1756 1459 
Q 1391 1381 1278 1306 
Q 1106 1184 1106 997 
Q 1106 813 1243 678 
Q 1381 544 1594 544 
Q 1831 544 2047 700 
Q 2206 819 2256 991 
Q 2291 1103 2291 1419 
L 2291 1594 
z
" transform="scale(0.015625)"/>
       <path id="Arial-BoldMT-6c" d="M 459 0 
L 459 4581 
L 1338 4581 
L 1338 0 
L 459 0 
z
" transform="scale(0.015625)"/>
       <path id="Arial-BoldMT-20" transform="scale(0.015625)"/>
       <path id="Arial-BoldMT-53" d="M 231 1491 
L 1131 1578 
Q 1213 1125 1461 912 
Q 1709 700 2131 700 
Q 2578 700 2804 889 
Q 3031 1078 3031 1331 
Q 3031 1494 2936 1608 
Q 2841 1722 2603 1806 
Q 2441 1863 1863 2006 
Q 1119 2191 819 2459 
Q 397 2838 397 3381 
Q 397 3731 595 4036 
Q 794 4341 1167 4500 
Q 1541 4659 2069 4659 
Q 2931 4659 3367 4281 
Q 3803 3903 3825 3272 
L 2900 3231 
Q 2841 3584 2645 3739 
Q 2450 3894 2059 3894 
Q 1656 3894 1428 3728 
Q 1281 3622 1281 3444 
Q 1281 3281 1419 3166 
Q 1594 3019 2269 2859 
Q 2944 2700 3267 2529 
Q 3591 2359 3773 2064 
Q 3956 1769 3956 1334 
Q 3956 941 3737 597 
Q 3519 253 3119 86 
Q 2719 -81 2122 -81 
Q 1253 -81 787 320 
Q 322 722 231 1491 
z
" transform="scale(0.015625)"/>
       <path id="Arial-BoldMT-66" d="M 75 3319 
L 563 3319 
L 563 3569 
Q 563 3988 652 4194 
Q 741 4400 980 4529 
Q 1219 4659 1584 4659 
Q 1959 4659 2319 4547 
L 2200 3934 
Q 1991 3984 1797 3984 
Q 1606 3984 1523 3895 
Q 1441 3806 1441 3553 
L 1441 3319 
L 2097 3319 
L 2097 2628 
L 1441 2628 
L 1441 0 
L 563 0 
L 563 2628 
L 75 2628 
L 75 3319 
z
" transform="scale(0.015625)"/>
       <path id="Arial-BoldMT-74" d="M 1981 3319 
L 1981 2619 
L 1381 2619 
L 1381 1281 
Q 1381 875 1398 808 
Q 1416 741 1477 697 
Q 1538 653 1625 653 
Q 1747 653 1978 738 
L 2053 56 
Q 1747 -75 1359 -75 
Q 1122 -75 931 4 
Q 741 84 652 211 
Q 563 338 528 553 
Q 500 706 500 1172 
L 500 2619 
L 97 2619 
L 97 3319 
L 500 3319 
L 500 3978 
L 1381 4491 
L 1381 3319 
L 1981 3319 
z
" transform="scale(0.015625)"/>
       <path id="Arial-BoldMT-2f" d="M -9 -78 
L 1125 4659 
L 1784 4659 
L 638 -78 
L -9 -78 
z
" transform="scale(0.015625)"/>
       <path id="Arial-BoldMT-70" d="M 434 3319 
L 1253 3319 
L 1253 2831 
Q 1413 3081 1684 3237 
Q 1956 3394 2288 3394 
Q 2866 3394 3269 2941 
Q 3672 2488 3672 1678 
Q 3672 847 3265 386 
Q 2859 -75 2281 -75 
Q 2006 -75 1782 34 
Q 1559 144 1313 409 
L 1313 -1263 
L 434 -1263 
L 434 3319 
z
M 1303 1716 
Q 1303 1156 1525 889 
Q 1747 622 2066 622 
Q 2372 622 2575 867 
Q 2778 1113 2778 1672 
Q 2778 2194 2568 2447 
Q 2359 2700 2050 2700 
Q 1728 2700 1515 2451 
Q 1303 2203 1303 1716 
z
" transform="scale(0.015625)"/>
      </defs>
      <use xlink:href="#Arial-BoldMT-43"/>
      <use xlink:href="#Arial-BoldMT-68" x="72.216797"/>
      <use xlink:href="#Arial-BoldMT-65" x="133.300781"/>
      <use xlink:href="#Arial-BoldMT-6d" x="188.916016"/>
      <use xlink:href="#Arial-BoldMT-69" x="277.832031"/>
      <use xlink:href="#Arial-BoldMT-63" x="305.615234"/>
      <use xlink:href="#Arial-BoldMT-61" x="361.230469"/>
      <use xlink:href="#Arial-BoldMT-6c" x="416.845703"/>
      <use xlink:href="#Arial-BoldMT-20" x="444.628906"/>
      <use xlink:href="#Arial-BoldMT-53" x="472.412109"/>
      <use xlink:href="#Arial-BoldMT-68" x="539.111328"/>
      <use xlink:href="#Arial-BoldMT-69" x="600.195312"/>
      <use xlink:href="#Arial-BoldMT-66" x="627.978516"/>
      <use xlink:href="#Arial-BoldMT-74" x="661.279297"/>
      <use xlink:href="#Arial-BoldMT-20" x="694.580078"/>
      <use xlink:href="#Arial-BoldMT-2f" x="722.363281"/>
      <use xlink:href="#Arial-BoldMT-20" x="750.146484"/>
      <use xlink:href="#Arial-BoldMT-70" x="777.929688"/>
      <use xlink:href="#Arial-BoldMT-70" x="839.013672"/>
      <use xlink:href="#Arial-BoldMT-6d" x="900.097656"/>
     </g>
    </g>
   </g>
   <g id="matplotlib.axis_2"/>
   <g id="line2d_12">
    <path d="M 3.009152 181.921763 
L 3.213771 181.293092 
L 3.418391 182.020457 
L 4.23687 188.83364 
L 4.44149 189.264511 
L 4.646109 188.76145 
L 5.259969 185.138134 
L 5.464588 184.843496 
L 6.078447 186.208504 
L 6.896926 185.532807 
L 7.306166 184.342704 
L 7.510785 184.356111 
L 7.715405 185.63016 
L 8.533884 194.294396 
L 8.943124 196.473914 
L 9.352363 197.633697 
L 9.556983 197.647619 
L 9.761602 197.04772 
L 10.375462 193.70708 
L 10.580081 194.007287 
L 10.989321 197.572335 
L 11.60318 203.494798 
L 11.8078 204.347154 
L 12.012419 204.452242 
L 12.217039 204.006315 
L 13.035518 201.303214 
L 13.240138 201.01332 
L 13.444758 200.453539 
L 14.263236 196.70389 
L 14.467856 197.515099 
L 15.081715 201.950861 
L 15.900194 205.592843 
L 16.104814 205.35307 
L 16.309434 203.670322 
L 16.923293 196.404405 
L 17.127913 195.497081 
L 17.332532 195.555245 
L 17.741772 197.587392 
L 18.151011 199.594272 
L 18.355631 199.601388 
L 18.560251 198.654462 
L 18.96949 193.835578 
L 19.583349 185.903966 
L 19.992589 184.115203 
L 20.401828 182.8493 
L 20.811068 181.75882 
L 21.015687 182.05057 
L 21.424927 184.007433 
L 22.243406 189.439932 
L 22.857265 195.168307 
L 23.061885 195.426541 
L 23.675744 193.837743 
L 23.880364 193.965107 
L 25.312702 197.071131 
L 25.721941 199.427307 
L 26.3358 204.484109 
L 26.74504 206.252144 
L 26.94966 206.32619 
L 27.154279 205.535916 
L 27.972758 199.641608 
L 28.177378 199.926552 
L 28.586617 201.319405 
L 29.200477 201.774408 
L 29.405096 202.364509 
L 29.814336 203.902258 
L 30.018955 203.108169 
L 30.223575 200.388877 
L 31.246674 180.772293 
L 31.655913 177.955648 
L 31.860533 177.519002 
L 32.065153 177.478163 
L 32.474392 177.950182 
L 32.883632 178.800476 
L 33.088251 179.709348 
L 33.292871 181.305158 
L 34.31597 192.708486 
L 34.725209 193.358299 
L 34.929829 193.210413 
L 35.134449 192.459947 
L 35.748308 189.120337 
L 35.952928 189.646705 
L 36.362167 193.827018 
L 36.771406 197.318742 
L 36.976026 197.786945 
L 37.180646 197.816028 
L 37.385266 197.483438 
L 37.589885 196.572401 
L 38.817604 187.775232 
L 39.022223 187.676745 
L 39.226843 188.567053 
L 39.636083 191.293976 
L 39.840702 191.748154 
L 40.045322 191.137737 
L 40.454562 189.182421 
L 40.659181 189.371249 
L 41.068421 191.78559 
L 41.68228 195.5241 
L 42.091519 196.909425 
L 42.909998 202.616865 
L 43.114618 202.642956 
L 43.319238 201.425009 
L 44.137717 192.917115 
L 44.342336 193.108728 
L 44.546956 194.37463 
L 44.956196 199.646146 
L 45.365435 204.789782 
L 45.570055 205.381533 
L 45.774674 204.626736 
L 46.183914 200.799844 
L 47.207012 189.675787 
L 47.411632 189.57699 
L 47.616252 190.267332 
L 48.025491 193.263627 
L 48.434731 196.803512 
L 48.639351 197.74456 
L 48.84397 198.000628 
L 49.25321 197.602655 
L 49.457829 197.24944 
L 49.662449 196.546619 
L 50.071689 193.25878 
L 50.685548 186.75457 
L 50.890168 186.379285 
L 51.094787 187.367256 
L 51.708646 191.875105 
L 51.913266 191.47837 
L 52.322506 189.527076 
L 52.731745 188.63749 
L 53.140985 188.34708 
L 53.345604 188.335633 
L 53.550224 188.13051 
L 53.959463 187.280009 
L 54.164083 187.144292 
L 54.368703 187.174096 
L 54.573323 187.342712 
L 55.187182 188.352442 
L 55.801041 187.237108 
L 56.005661 187.409745 
L 56.21028 187.001666 
L 56.82414 183.013275 
L 57.028759 183.120528 
L 57.437999 183.718674 
L 57.642619 183.868313 
L 57.847238 184.412006 
L 58.461097 187.040648 
L 58.870337 188.308716 
L 59.279576 190.440897 
L 59.484196 190.407381 
L 60.507295 184.890832 
L 60.711914 184.644355 
L 60.916534 184.794819 
L 61.325774 185.563436 
L 61.530393 185.317165 
L 61.735013 184.01558 
L 62.144253 178.457677 
L 62.553492 173.129647 
L 63.371971 166.236643 
L 63.78121 159.373339 
L 64.19045 149.865305 
L 64.804309 127.815405 
L 66.236647 78.129958 
L 66.645887 72.028155 
L 66.850506 70.888173 
L 67.055126 71.631832 
L 67.259746 74.732493 
L 67.668985 87.350779 
L 69.101323 141.573672 
L 69.715182 155.391136 
L 70.329042 168.052529 
L 71.35214 194.357305 
L 71.55676 195.337644 
L 72.375239 195.931561 
L 72.579859 195.327744 
L 72.784478 193.693363 
L 73.807577 180.94658 
L 74.012197 180.753214 
L 74.216816 181.890102 
L 75.035295 190.421097 
L 75.649155 192.990955 
L 76.263014 197.953498 
L 77.695352 210.717607 
L 77.899972 211.093098 
L 78.104591 210.277042 
L 78.513831 205.271289 
L 79.12769 197.201794 
L 79.33231 196.406055 
L 79.536929 196.944076 
L 80.355408 201.163578 
L 80.764648 202.622021 
L 80.969267 202.917381 
L 81.378507 202.92955 
L 81.583127 202.626559 
L 81.787746 201.67097 
L 82.401606 197.728678 
L 82.606225 197.622971 
L 82.810845 198.140986 
L 83.015465 199.363161 
L 83.424704 204.590228 
L 83.833944 210.057482 
L 84.038563 211.082269 
L 84.243183 210.935518 
L 84.652422 209.641049 
L 84.857042 209.526886 
L 85.061662 209.622692 
L 85.266282 209.404575 
L 85.675521 207.310139 
L 86.084761 205.711441 
L 86.28938 205.783012 
L 86.69862 206.800065 
L 86.903239 206.816875 
L 87.517099 205.137841 
L 87.926338 205.783115 
L 88.130958 205.408759 
L 88.540197 201.843401 
L 88.949437 198.464603 
L 89.358676 196.550332 
L 89.972535 194.695669 
L 90.791014 188.088227 
L 90.995634 188.174958 
L 91.200254 188.512395 
L 91.404873 188.497751 
L 91.609493 187.857426 
L 92.223352 184.878766 
L 92.427972 184.62641 
L 92.632592 185.022424 
L 93.041831 187.266087 
L 93.65569 190.621578 
L 94.678789 194.652046 
L 94.883409 194.128359 
L 95.292648 192.065068 
L 95.497268 191.728456 
L 95.701888 192.27545 
L 96.111127 194.824167 
L 96.315747 195.080029 
L 96.520367 193.671913 
L 97.338846 184.587325 
L 97.748085 182.428124 
L 98.157324 181.648679 
L 98.361944 181.598868 
L 98.975803 182.721318 
L 99.385043 182.372125 
L 99.589663 182.533727 
L 99.794282 183.362365 
L 100.203522 186.981968 
L 100.612761 191.440316 
L 100.817381 192.594633 
L 101.022001 192.704155 
L 101.22662 192.40962 
L 101.43124 192.472013 
L 101.84048 193.766069 
L 102.045099 194.855312 
L 102.454339 199.236623 
L 103.068198 206.959296 
L 104.091297 214.473546 
L 104.295916 215.41841 
L 104.500536 215.7016 
L 104.909775 215.611363 
L 105.114395 215.167498 
L 105.319015 213.906443 
L 106.137494 205.958846 
L 106.546733 204.233919 
L 107.160592 202.030889 
L 107.774452 199.773922 
L 107.979071 199.537242 
L 108.183691 200.063713 
L 108.592931 203.395485 
L 109.00217 206.76428 
L 109.20679 207.226708 
L 109.411409 206.779646 
L 110.434508 201.700259 
L 110.639128 201.610021 
L 111.252987 202.177537 
L 111.457607 201.970971 
L 111.662226 201.16265 
L 112.276086 196.036752 
L 113.094565 189.124978 
L 113.299184 189.067535 
L 113.503804 190.2333 
L 113.913043 195.015471 
L 114.526903 202.674926 
L 114.731522 204.077783 
L 114.936142 204.333026 
L 115.345382 202.462069 
L 115.959241 198.757178 
L 116.5731 194.207871 
L 116.77772 193.641077 
L 116.982339 193.529905 
L 117.800818 193.898589 
L 118.210058 193.792057 
L 118.414677 193.861772 
L 118.619297 193.734924 
L 118.823917 193.207216 
L 119.028537 192.108794 
L 119.642396 186.492727 
L 119.847016 186.159209 
L 120.051635 187.411086 
L 121.074734 199.66079 
L 121.279354 199.998226 
L 121.483973 199.067904 
L 122.302452 191.313674 
L 122.507072 191.172285 
L 122.711692 192.24843 
L 123.120931 198.520395 
L 123.73479 211.114549 
L 123.93941 212.921153 
L 124.14403 213.242399 
L 124.348649 212.377151 
L 124.757889 207.752148 
L 125.371748 198.941881 
L 125.780988 195.749023 
L 127.213326 188.463615 
L 127.417945 187.975611 
L 127.622565 188.243333 
L 127.827185 189.37063 
L 128.236424 194.068545 
L 129.054903 204.736568 
L 129.464143 207.654382 
L 129.668762 207.762151 
L 129.873382 206.978478 
L 130.691861 201.978087 
L 131.1011 201.116448 
L 131.30572 201.160278 
L 131.51034 201.515865 
L 131.919579 202.584586 
L 132.124199 202.529824 
L 132.738058 200.80201 
L 133.147298 200.764162 
L 133.351917 200.102902 
L 133.761157 196.500727 
L 134.375016 189.299265 
L 134.579636 188.118753 
L 134.784256 188.159386 
L 135.398115 191.398858 
L 135.602734 191.255716 
L 135.807354 190.128418 
L 136.421213 184.989423 
L 136.625833 185.056456 
L 137.035073 189.378674 
L 137.444312 192.908143 
L 137.648932 192.756441 
L 138.058171 190.153788 
L 138.67203 185.805994 
L 138.87665 185.153809 
L 139.08127 185.057281 
L 139.490509 185.277976 
L 139.695129 185.686159 
L 139.899749 186.800462 
L 140.308988 192.10271 
L 140.718228 196.657689 
L 140.922847 196.438747 
L 141.332087 193.738431 
L 141.945946 188.128138 
L 142.150566 187.458112 
L 142.355185 187.583207 
L 143.173664 189.544092 
L 143.378284 189.538729 
L 143.582904 188.696995 
L 143.992143 184.552261 
L 145.219862 167.407357 
L 145.424481 167.477484 
L 145.629101 168.957584 
L 146.24296 177.762076 
L 146.856819 185.81806 
L 147.061439 187.014454 
L 147.266059 187.225351 
L 147.470679 186.3567 
L 148.084538 182.471644 
L 148.289158 182.43658 
L 148.698397 183.048132 
L 148.903017 182.790414 
L 149.312256 180.968649 
L 149.926115 177.915324 
L 150.130735 177.427527 
L 150.335355 177.247052 
L 150.539975 177.332855 
L 150.744594 177.888305 
L 151.153834 181.015882 
L 151.767693 188.826834 
L 152.381552 196.748957 
L 152.586172 197.930397 
L 152.790792 198.361062 
L 152.995411 197.99444 
L 154.01851 192.759741 
L 154.632369 186.847489 
L 155.041609 185.068625 
L 155.860087 182.942219 
L 156.064707 183.121147 
L 156.269327 183.028125 
L 156.473947 182.06408 
L 156.883186 179.156682 
L 157.087806 178.882566 
L 157.292426 179.797625 
L 158.110904 186.708781 
L 158.315524 186.996509 
L 158.724764 186.806856 
L 158.929383 186.906478 
L 159.134003 186.588017 
L 159.543243 183.887907 
L 160.157102 180.189101 
L 160.770961 177.164137 
L 161.38482 174.46413 
L 161.58944 174.774959 
L 161.794059 176.69614 
L 162.612538 188.473928 
L 162.817158 189.167054 
L 163.635637 189.978572 
L 163.840257 189.992804 
L 164.044876 190.183282 
L 164.658736 191.43815 
L 165.067975 193.227326 
L 165.477215 195.152116 
L 165.681834 195.433347 
L 165.886454 194.944518 
L 166.295693 193.575488 
L 166.500313 193.80072 
L 166.909553 196.079138 
L 167.523412 200.528307 
L 167.728032 201.148109 
L 167.932651 201.01167 
L 168.137271 200.167048 
L 169.16037 193.792161 
L 169.569609 193.075005 
L 169.774229 192.801921 
L 170.183468 192.040008 
L 170.388088 192.384869 
L 170.797327 193.672944 
L 171.001947 193.300547 
L 171.411187 190.706556 
L 171.820426 188.679566 
L 172.229666 188.304694 
L 172.638905 186.311736 
L 173.048144 184.643942 
L 173.457384 182.974189 
L 173.866623 179.831039 
L 174.275863 174.590462 
L 174.685102 168.940878 
L 174.889722 167.388175 
L 175.094342 166.924613 
L 175.708201 167.948679 
L 175.912821 167.939397 
L 176.11744 168.150913 
L 176.32206 168.999351 
L 176.7313 172.461787 
L 177.345159 177.471563 
L 177.754398 179.189167 
L 178.163638 180.428462 
L 178.572877 182.880755 
L 178.982117 185.603656 
L 179.186736 186.364332 
L 179.391356 186.335868 
L 179.595976 185.408124 
L 180.414455 179.844343 
L 180.619074 179.725539 
L 181.846793 181.581748 
L 182.051412 182.234036 
L 182.460652 184.996642 
L 182.869891 187.479666 
L 183.279131 187.677982 
L 183.483751 188.273034 
L 184.711469 194.499519 
L 185.120708 197.257896 
L 185.325328 197.318433 
L 185.529948 196.351809 
L 185.939187 191.526943 
L 186.553046 181.672811 
L 186.757666 180.879959 
L 186.962286 181.662601 
L 187.780765 187.939619 
L 188.190004 190.299611 
L 189.417723 201.208645 
L 189.622342 201.835254 
L 189.826962 201.658389 
L 190.236202 199.190937 
L 191.05468 193.78556 
L 191.66854 188.139998 
L 192.282399 185.906235 
L 192.691638 180.997629 
L 193.100878 175.537697 
L 193.305497 174.32965 
L 193.510117 174.693797 
L 193.714737 176.780911 
L 194.942455 196.857552 
L 195.147075 196.916954 
L 195.556314 194.514163 
L 196.170174 189.093214 
L 196.579413 185.381105 
L 196.988653 183.578728 
L 197.602512 182.375631 
L 198.216371 180.358129 
L 198.420991 180.301718 
L 198.83023 181.464182 
L 199.03485 182.040773 
L 199.23947 182.206913 
L 199.648709 181.923516 
L 199.853329 181.959508 
L 200.057948 182.237852 
L 200.467188 183.563465 
L 200.876427 186.053296 
L 201.899526 193.546199 
L 202.104146 194.238088 
L 202.308765 194.352148 
L 202.513385 193.761531 
L 202.922625 190.534332 
L 203.536484 185.40008 
L 203.741103 184.571649 
L 203.945723 184.231428 
L 204.150343 184.587531 
L 204.559582 187.883105 
L 204.968822 191.331102 
L 205.173442 191.848086 
L 205.582681 192.036089 
L 205.787301 192.16634 
L 205.99192 192.012679 
L 206.19654 191.590264 
L 206.40116 190.899716 
L 206.810399 187.939619 
L 207.424259 182.236408 
L 207.833498 180.453316 
L 208.038118 180.285217 
L 208.242737 180.353385 
L 208.447357 180.624303 
L 208.651977 181.246168 
L 209.061216 184.022078 
L 209.879695 193.13946 
L 210.084315 193.720177 
L 210.288935 193.046748 
L 210.698174 191.248393 
L 211.107414 190.74657 
L 211.312033 190.938905 
L 211.925893 192.869986 
L 212.130512 192.024126 
L 212.744371 186.059381 
L 212.948991 185.360479 
L 213.153611 185.53425 
L 213.56285 187.152543 
L 213.97209 190.24516 
L 214.381329 193.733996 
L 214.790569 195.553595 
L 214.995188 196.07986 
L 215.199808 196.059646 
L 215.404428 195.298249 
L 215.813667 191.979987 
L 216.222907 188.383072 
L 216.427527 187.775851 
L 216.632146 188.186406 
L 217.041386 191.100198 
L 217.655245 196.363876 
L 218.064484 197.425996 
L 218.269104 197.421871 
L 218.473724 196.733591 
L 219.087583 192.152727 
L 219.496822 187.832469 
L 220.110682 181.231936 
L 220.519921 180.230971 
L 221.13378 179.196696 
L 221.3384 179.560842 
L 221.54302 180.754658 
L 222.361499 188.357393 
L 222.566118 188.704007 
L 222.770738 187.980355 
L 223.179978 185.341916 
L 223.384597 184.729539 
L 223.589217 184.966322 
L 223.998456 187.586507 
L 224.816935 194.946684 
L 225.021555 195.593815 
L 225.226175 195.650639 
L 225.430795 195.441288 
L 225.635414 194.944415 
L 226.453893 191.273969 
L 226.658513 191.078438 
L 226.863133 191.285726 
L 227.476992 192.767476 
L 227.681612 193.571156 
L 228.090851 196.664701 
L 228.50009 200.00792 
L 228.70471 200.477464 
L 228.90933 200.196439 
L 229.11395 199.67265 
L 229.318569 199.491762 
L 229.523189 200.129509 
L 230.137048 204.915186 
L 230.341668 205.241072 
L 230.750907 203.351758 
L 231.569386 199.834974 
L 232.387865 193.80763 
L 232.592485 194.457236 
L 233.001724 199.125759 
L 233.615584 207.681505 
L 233.820203 207.773701 
L 234.843302 201.576814 
L 235.252541 199.552608 
L 235.661781 195.284223 
L 236.07102 190.875687 
L 236.27564 189.952172 
L 236.48026 190.232681 
L 237.094119 194.331419 
L 237.298739 194.527054 
L 237.503358 193.786592 
L 237.912598 190.17926 
L 238.321837 185.87509 
L 238.526457 184.687462 
L 238.731077 184.689216 
L 239.549556 188.097715 
L 239.754175 188.226729 
L 239.958795 188.076574 
L 240.368035 187.005585 
L 241.391133 183.557484 
L 241.800373 182.405332 
L 242.004992 182.365525 
L 242.209612 182.994299 
L 242.618852 186.16189 
L 243.232711 192.490885 
L 243.43733 193.193293 
L 243.64195 193.178237 
L 243.84657 192.941247 
L 244.05119 192.516358 
L 244.665049 190.460801 
L 244.869669 190.637254 
L 245.483528 192.483357 
L 245.688147 192.410651 
L 246.097387 190.380773 
L 246.711246 185.825382 
L 247.325105 180.021105 
L 247.529725 179.722032 
L 247.734345 180.519937 
L 248.143584 184.820601 
L 248.552824 189.948459 
L 248.757443 191.158156 
L 248.962063 191.142893 
L 249.575922 188.822296 
L 249.780542 189.320819 
L 250.189781 190.898788 
L 250.394401 191.161044 
L 250.803641 191.197654 
L 251.00826 191.610374 
L 251.4175 193.892505 
L 251.826739 196.395227 
L 252.031359 196.588902 
L 252.235979 196.031492 
L 252.645218 193.601373 
L 253.463697 187.77812 
L 253.668317 187.056427 
L 253.872937 186.837691 
L 254.077556 187.410261 
L 254.486796 191.150731 
L 254.896035 194.387624 
L 255.100655 194.711448 
L 255.305275 194.124647 
L 255.919134 191.160115 
L 256.123754 191.011095 
L 256.328373 191.458672 
L 257.146852 195.192542 
L 257.556092 195.425097 
L 257.760711 195.93383 
L 257.965331 197.12022 
L 258.374571 201.827829 
L 258.78381 206.68353 
L 259.193049 208.717224 
L 259.397669 209.029394 
L 259.602289 208.749194 
L 260.011528 206.254722 
L 260.830007 200.557286 
L 261.443866 196.676974 
L 262.057726 190.56063 
L 262.262345 189.932371 
L 262.466965 190.618381 
L 263.080824 196.043352 
L 263.285444 196.197014 
L 263.490064 194.92018 
L 264.717782 183.152498 
L 264.922402 182.964186 
L 265.536261 184.879178 
L 265.740881 185.053259 
L 266.15012 185.873646 
L 266.35474 185.808675 
L 266.968599 184.125619 
L 267.173219 183.963501 
L 267.377839 183.582441 
L 267.787078 181.547613 
L 268.196317 179.45658 
L 268.400937 179.330247 
L 268.810177 181.074975 
L 269.014796 181.801309 
L 269.219416 181.518943 
L 269.424036 179.65108 
L 270.037895 169.55212 
L 270.242515 168.679138 
L 270.447134 169.558102 
L 270.856374 173.751099 
L 271.470233 180.284804 
L 271.674853 180.879959 
L 271.879473 180.748573 
L 272.288712 180.030593 
L 272.493332 180.030902 
L 272.697951 180.375867 
L 272.902571 181.266072 
L 273.311811 185.384405 
L 273.92567 192.701267 
L 274.13029 193.282912 
L 274.334909 192.35754 
L 274.744149 185.945527 
L 276.585726 149.68019 
L 278.222684 134.506277 
L 278.427304 134.055915 
L 278.631923 134.624463 
L 278.836543 136.330001 
L 279.859642 149.314909 
L 280.473501 151.677067 
L 281.29198 160.272001 
L 281.4966 160.572104 
L 281.701219 160.663992 
L 281.905839 161.013391 
L 282.519698 162.98098 
L 282.724318 162.93354 
L 283.133557 161.328552 
L 283.747417 159.223906 
L 284.565896 156.908465 
L 284.975135 152.977001 
L 285.384374 147.476334 
L 285.793614 139.067444 
L 286.407473 126.389963 
L 287.839811 110.632756 
L 288.044431 109.963658 
L 288.249051 110.675863 
L 288.65829 114.939401 
L 289.886008 131.395304 
L 290.295248 136.737462 
L 290.499868 137.607248 
L 290.704487 137.016837 
L 291.522966 129.794234 
L 291.727586 131.033013 
L 292.136825 137.486691 
L 292.955304 152.391025 
L 293.159924 154.010658 
L 293.364544 154.691409 
L 293.773783 155.444556 
L 294.183023 156.496776 
L 294.387642 155.901003 
L 294.796882 151.723681 
L 295.206121 147.858941 
L 295.410741 147.353302 
L 295.615361 147.666091 
L 296.22922 149.220546 
L 296.43384 149.228075 
L 296.638459 148.722745 
L 296.843079 147.204384 
L 297.252319 139.865865 
L 297.661558 130.804068 
L 297.866178 128.059922 
L 298.070798 126.935306 
L 298.275417 127.259542 
L 298.480037 129.003032 
L 299.093896 139.410449 
L 299.707755 148.554852 
L 300.526234 157.89788 
L 301.753953 168.739055 
L 302.163192 170.696228 
L 302.572432 171.650579 
L 302.981671 172.100941 
L 303.186291 172.548724 
L 303.59553 174.482899 
L 304.209389 178.426326 
L 304.414009 179.000958 
L 304.618629 178.392809 
L 305.437108 171.622631 
L 305.641727 171.514965 
L 306.255587 174.298609 
L 306.460206 173.918168 
L 306.869446 172.511701 
L 307.074066 172.317923 
L 307.278685 172.639271 
L 307.687925 174.31284 
L 308.097164 175.827076 
L 308.301784 175.84172 
L 308.506404 175.18407 
L 308.915643 171.44989 
L 309.529502 164.752005 
L 310.143361 161.314526 
L 310.552601 157.428026 
L 311.16646 148.599403 
L 311.780319 140.860848 
L 312.189559 136.384763 
L 313.621897 113.942252 
L 314.235756 101.915408 
L 314.849615 85.374322 
L 315.258855 74.565322 
L 315.463474 71.698453 
L 315.668094 70.721105 
L 315.872714 70.976554 
L 316.077334 71.80777 
L 316.281953 73.137302 
L 316.486573 75.560306 
L 316.895812 86.172433 
L 317.918911 121.89057 
L 318.73739 141.910077 
L 319.146629 146.803524 
L 319.555869 151.033854 
L 320.783587 169.155591 
L 320.988207 169.748889 
L 321.192827 169.606366 
L 321.602066 168.241667 
L 321.806686 167.291131 
L 322.215925 163.44547 
L 322.625165 158.886676 
L 322.829784 157.744218 
L 323.034404 157.612626 
L 323.443644 158.363195 
L 323.648263 157.985642 
L 323.852883 156.774398 
L 324.262123 152.43207 
L 325.694461 133.496753 
L 325.89908 133.337625 
L 326.1037 134.846498 
L 326.30832 138.296868 
L 326.922179 156.783577 
L 327.536038 173.459246 
L 327.945278 181.242352 
L 328.354517 185.148756 
L 328.559137 184.887635 
L 328.968376 180.452079 
L 329.377616 175.277195 
L 329.582235 174.405553 
L 329.786855 175.093007 
L 330.605334 181.162737 
L 330.809954 180.9835 
L 331.219193 179.997076 
L 331.423813 180.404124 
L 332.651531 187.576298 
L 332.856151 187.986027 
L 333.060771 187.865882 
L 333.47001 187.470281 
L 333.87925 187.897027 
L 334.083869 187.84206 
L 334.697729 186.446628 
L 334.902348 187.305998 
L 335.311588 191.593771 
L 335.925447 198.514826 
L 336.130067 200.061238 
L 336.334686 200.517478 
L 336.539306 199.555908 
L 336.948546 193.551768 
L 337.767025 177.079365 
L 338.380884 169.835208 
L 338.585503 168.645208 
L 338.790123 168.715233 
L 338.994743 169.925858 
L 340.017842 178.536467 
L 340.427081 182.751844 
L 341.24556 192.673835 
L 342.268659 202.48321 
L 342.473278 202.37936 
L 342.677898 201.294654 
L 343.291757 195.113546 
L 343.700997 190.206589 
L 343.905616 189.091977 
L 344.110236 189.929277 
L 344.928715 199.696369 
L 345.133335 200.274714 
L 345.337954 200.341954 
L 345.542574 200.12889 
L 345.747194 199.498981 
L 346.156433 197.01967 
L 346.565673 194.135063 
L 346.770293 193.39656 
L 346.974912 193.324163 
L 347.588771 194.080405 
L 347.793391 194.052044 
L 348.202631 193.515982 
L 348.40725 193.072117 
L 348.61187 192.24843 
L 349.430349 187.041473 
L 349.634969 187.065296 
L 350.248828 188.812086 
L 350.453448 187.986543 
L 350.862687 185.243531 
L 351.067307 184.64652 
L 351.271927 184.634454 
L 351.476546 184.768521 
L 351.681166 184.518229 
L 351.885786 183.592032 
L 352.090405 181.841323 
L 352.908884 170.762127 
L 353.318124 169.466317 
L 353.727363 167.846478 
L 354.341222 163.572628 
L 354.955082 158.148069 
L 355.568941 154.971403 
L 356.592039 147.280803 
L 356.796659 147.366193 
L 357.410518 150.68858 
L 357.615138 150.45355 
L 358.024377 147.445705 
L 359.047476 137.549702 
L 359.252096 136.847603 
L 359.456716 136.94341 
L 359.661335 137.257952 
L 359.865955 137.12966 
L 360.275194 134.903838 
L 360.684434 133.158285 
L 360.889054 133.037934 
L 361.093673 133.161173 
L 361.298293 133.510056 
L 362.321392 137.492775 
L 362.730631 140.813719 
L 363.139871 144.109395 
L 363.34449 144.935867 
L 363.54911 145.236177 
L 363.75373 144.939477 
L 363.95835 143.966975 
L 364.367589 139.811103 
L 364.776828 131.811427 
L 365.390688 118.28262 
L 366.209167 105.818924 
L 366.823026 86.960334 
L 369.278462 9.64553 
L 369.687702 4.76745 
L 369.892322 3.516398 
L 370.096941 3.00024 
L 370.301561 3.442042 
L 370.710801 7.302142 
L 371.12004 10.609369 
L 371.32466 10.577193 
L 371.529279 9.415657 
L 371.938519 5.965493 
L 372.143139 5.236065 
L 372.347758 5.723554 
L 372.756998 9.788775 
L 373.166237 17.390479 
L 373.780096 37.938417 
L 374.189336 48.299735 
L 374.393956 49.758694 
L 374.598575 49.600289 
L 374.803195 49.171996 
L 375.007815 49.386091 
L 375.621674 52.775924 
L 375.826294 52.711778 
L 376.030913 51.224975 
L 377.258632 37.095857 
L 377.667871 33.339711 
L 378.48635 30.229769 
L 378.69097 29.892229 
L 378.89559 30.119628 
L 379.100209 31.334378 
L 379.509449 37.479907 
L 380.941787 67.630757 
L 382.169505 103.485333 
L 383.192604 124.553554 
L 383.601843 128.028056 
L 384.011083 129.100179 
L 384.215703 129.194232 
L 384.420322 129.122764 
L 384.624942 129.216096 
L 384.829562 129.846933 
L 385.034181 131.299497 
L 386.875759 151.592811 
L 387.080379 152.66875 
L 387.284998 153.028153 
L 387.489618 153.161704 
L 387.694238 153.615676 
L 388.308097 155.848201 
L 388.512717 156.000625 
L 388.717337 155.728056 
L 389.126576 154.842905 
L 389.331196 154.888281 
L 389.535815 155.56037 
L 389.945055 158.543877 
L 391.172773 168.730496 
L 391.582013 170.104476 
L 391.786632 169.956693 
L 392.195872 168.973776 
L 392.400492 169.278623 
L 392.809731 172.070518 
L 393.42359 176.205454 
L 393.83283 177.966064 
L 394.242069 178.835127 
L 394.446689 178.82533 
L 394.651309 178.335057 
L 395.060548 176.847016 
L 395.265168 177.004184 
L 395.674407 178.163864 
L 395.879027 177.965032 
L 396.492886 175.40033 
L 396.697506 175.368773 
L 397.106745 176.927663 
L 398.129844 181.470885 
L 399.152943 189.967228 
L 399.357562 190.453995 
L 399.562182 190.259907 
L 399.971421 187.475541 
L 400.176041 186.182825 
L 400.380661 185.920363 
L 400.585281 186.697746 
L 401.19914 190.520822 
L 401.40376 190.655714 
L 401.608379 189.982079 
L 402.017619 186.817478 
L 402.631478 180.417118 
L 403.245337 177.643478 
L 403.859196 173.178324 
L 404.063816 172.612148 
L 404.268436 172.84625 
L 404.473055 173.851237 
L 404.882295 178.048051 
L 405.291534 181.974771 
L 405.496154 182.31592 
L 405.905394 181.529565 
L 406.519253 181.164387 
L 406.928492 179.579302 
L 407.542351 176.582492 
L 407.746971 176.274035 
L 408.156211 176.317349 
L 408.36083 175.70724 
L 408.974689 172.455496 
L 409.179309 172.192519 
L 409.383929 172.647006 
L 410.407028 178.062076 
L 410.816267 178.84214 
L 411.020887 180.066997 
L 411.839366 187.940032 
L 412.043985 188.384825 
L 412.248605 188.120197 
L 412.657845 186.042983 
L 413.067084 182.362328 
L 413.476323 177.860976 
L 413.680943 177.07524 
L 413.885563 177.589748 
L 414.294802 180.820454 
L 414.908662 186.367838 
L 415.317901 188.343573 
L 415.522521 188.93945 
L 415.72714 189.161485 
L 416.13638 189.113943 
L 416.341 189.237801 
L 417.364098 190.964584 
L 417.773338 191.857573 
L 418.182577 193.151217 
L 418.387197 194.440736 
L 419.410296 204.11264 
L 419.819535 204.808139 
L 420.024155 204.916836 
L 420.228774 204.48184 
L 420.433394 203.133848 
L 420.842634 197.654632 
L 421.661113 184.194508 
L 421.865732 183.105781 
L 422.070352 183.19344 
L 422.684211 184.918264 
L 422.888831 185.238169 
L 423.093451 185.790422 
L 423.50269 188.771969 
L 423.91193 192.459019 
L 424.116549 193.476897 
L 424.935028 195.244931 
L 425.548887 197.533765 
L 425.753507 197.945041 
L 425.958127 197.837272 
L 426.162747 197.053496 
L 426.981225 192.042276 
L 427.185845 192.146333 
L 427.799704 195.681268 
L 428.004324 195.204814 
L 428.822803 189.719307 
L 429.027423 190.575996 
L 429.436662 195.215127 
L 430.050521 202.209714 
L 430.255141 203.356399 
L 430.459761 203.727249 
L 430.664381 203.217279 
L 431.27824 200.307509 
L 431.482859 200.451682 
L 431.892099 201.398917 
L 432.096719 201.035389 
L 432.505958 198.433767 
L 433.119817 193.32406 
L 433.938296 188.727211 
L 434.142916 189.042166 
L 434.552155 192.77222 
L 434.961395 196.133693 
L 435.984493 200.8017 
L 436.189113 201.587024 
L 436.802972 205.257985 
L 437.007592 205.234678 
L 438.23531 199.315516 
L 439.258409 197.459616 
L 439.463029 197.43074 
L 439.667648 197.866045 
L 440.281508 199.708538 
L 440.486127 199.828374 
L 440.690747 199.747108 
L 440.895367 199.408641 
L 441.304606 197.701968 
L 442.327705 191.566442 
L 442.736944 187.531849 
L 443.350804 180.83087 
L 443.964663 176.633128 
L 444.169282 176.317967 
L 444.373902 177.130414 
L 444.987761 183.697635 
L 446.01086 195.114577 
L 446.624719 201.310227 
L 447.033959 204.17132 
L 447.238578 204.517213 
L 447.443198 203.565544 
L 448.057057 196.168035 
L 448.466297 191.962146 
L 448.875536 189.594625 
L 449.489395 187.184616 
L 449.694015 186.925144 
L 449.898635 187.369731 
L 450.103255 188.548283 
L 450.512494 193.150598 
L 450.921733 197.961439 
L 451.330973 200.293689 
L 451.535593 200.740442 
L 451.740212 200.705585 
L 451.944832 200.241197 
L 452.149452 199.197227 
L 452.763311 194.67855 
L 452.967931 194.730114 
L 453.37717 195.87979 
L 453.58179 195.914442 
L 453.991029 195.433863 
L 454.195649 195.488933 
L 454.400269 195.957756 
L 454.809508 197.335036 
L 455.014128 197.080103 
L 455.218748 195.840498 
L 456.241846 186.783755 
L 457.060325 185.026446 
L 457.264945 185.818988 
L 457.674184 190.458223 
L 458.083424 194.917499 
L 458.288044 195.65002 
L 458.492663 194.991957 
L 458.901903 190.221131 
L 459.720382 178.607832 
L 460.129621 174.616244 
L 460.334241 173.290734 
L 460.538861 172.746628 
L 460.74348 173.258661 
L 461.561959 178.475931 
L 461.971199 179.814642 
L 462.175818 179.940252 
L 462.585058 179.518972 
L 462.789678 180.390408 
L 463.198917 186.016685 
L 463.608157 191.094526 
L 463.812776 191.573661 
L 464.222016 190.825979 
L 464.426635 190.811129 
L 464.631255 191.047602 
L 464.835875 191.033371 
L 465.654354 189.11219 
L 465.858974 188.905211 
L 466.063593 188.297681 
L 466.472833 185.65883 
L 467.086692 181.769855 
L 467.495931 179.6781 
L 467.700551 179.288377 
L 467.905171 180.043278 
L 469.337509 191.612746 
L 469.746748 193.169368 
L 469.951368 193.00034 
L 470.155988 191.915428 
L 470.769847 186.764883 
L 470.974467 186.263472 
L 471.179086 186.696508 
L 471.997565 190.975103 
L 472.202185 190.64932 
L 472.611424 189.312362 
L 472.816044 189.064235 
L 473.020664 189.539039 
L 473.634523 192.828012 
L 473.839143 193.134304 
L 474.043763 193.053657 
L 474.248382 193.097178 
L 475.066861 194.735992 
L 475.271481 193.857338 
L 475.88534 189.457155 
L 476.08996 189.609063 
L 476.703819 191.70845 
L 476.908439 191.833957 
L 477.113058 191.160528 
L 477.522298 187.441818 
L 477.931537 184.437582 
L 478.136157 184.489353 
L 478.954636 187.579391 
L 479.159256 187.901565 
L 479.568495 189.369599 
L 479.773115 189.47974 
L 479.977735 188.441649 
L 480.591594 183.058445 
L 480.796214 182.576732 
L 481.000833 183.500557 
L 481.410073 187.273306 
L 481.614692 188.059764 
L 481.819312 187.697783 
L 482.433171 185.158244 
L 482.637791 185.194648 
L 483.047031 185.779284 
L 483.25165 185.621807 
L 483.45627 184.736345 
L 485.502467 168.939021 
L 486.730186 154.601068 
L 486.934805 154.260126 
L 487.139425 155.40413 
L 487.548665 161.714768 
L 487.957904 168.693266 
L 488.162524 170.404168 
L 488.367143 170.729641 
L 488.571763 169.730223 
L 488.981003 164.146847 
L 489.390242 157.767835 
L 489.594862 155.956899 
L 489.799482 155.430015 
L 490.61796 157.026032 
L 490.82258 158.199221 
L 491.641059 165.624781 
L 491.845679 166.148365 
L 492.050299 165.450288 
L 492.459538 160.7137 
L 493.073397 152.652559 
L 493.278017 151.663454 
L 493.687256 151.040867 
L 493.891876 150.866683 
L 494.096496 150.248015 
L 494.710355 146.474647 
L 494.914975 146.041817 
L 495.119594 146.211876 
L 495.528834 148.222056 
L 496.551933 155.171575 
L 497.165792 162.087887 
L 497.370411 163.055748 
L 497.575031 162.94901 
L 497.984271 160.706481 
L 498.39351 157.465256 
L 499.416609 145.573304 
L 499.621228 146.050789 
L 500.439707 151.530934 
L 500.644327 150.887927 
L 501.053567 145.893209 
L 502.485905 122.368983 
L 503.099764 118.545907 
L 503.713623 110.184353 
L 504.327482 96.424642 
L 504.736722 88.035758 
L 505.555201 77.579768 
L 506.16906 73.5295 
L 506.578299 65.688847 
L 507.396778 45.590963 
L 508.215257 31.861365 
L 509.033736 20.612316 
L 509.647595 9.718132 
L 510.028867 -1 
M 525.929019 -1 
L 526.426413 14.567027 
L 527.449511 51.558698 
L 527.858751 60.366077 
L 528.67723 71.577174 
L 529.904948 94.852138 
L 530.928047 103.274126 
L 531.951145 118.390389 
L 532.769624 129.857864 
L 532.974244 130.952882 
L 533.383483 131.556081 
L 533.588103 132.767531 
L 535.225061 150.913813 
L 536.04354 155.549025 
L 536.24816 155.400211 
L 536.452779 154.379652 
L 537.680498 145.123458 
L 537.885117 144.673611 
L 538.089737 144.539647 
L 538.294357 144.668042 
L 538.498977 145.352197 
L 538.908216 148.908892 
L 539.522075 157.172165 
L 539.931315 162.520098 
L 540.545174 167.784189 
L 540.954413 175.50944 
L 541.568272 186.815931 
L 542.386751 196.762158 
L 542.591371 195.725201 
L 542.795991 191.888099 
L 543.819089 165.422856 
L 544.023709 164.444579 
L 544.228329 164.641451 
L 544.432949 165.110273 
L 544.637568 165.049427 
L 544.842188 164.022371 
L 545.251428 158.894101 
L 545.865287 144.681346 
L 546.274526 135.077403 
L 546.479146 132.555293 
L 546.683766 132.899742 
L 546.888385 136.0893 
L 547.911484 159.164916 
L 548.320723 163.493631 
L 548.525343 163.943993 
L 548.729963 163.76094 
L 549.343822 162.61807 
L 549.548442 162.699439 
L 549.753061 162.984383 
L 549.957681 163.491053 
L 550.162301 164.485418 
L 550.57154 168.585703 
L 551.390019 178.658881 
L 551.594639 179.890132 
L 551.799259 180.428153 
L 552.003878 180.434134 
L 552.413118 180.005017 
L 552.617738 180.212408 
L 552.822357 181.109832 
L 553.640836 186.815416 
L 553.845456 185.727926 
L 554.459315 179.092433 
L 554.663935 178.516976 
L 554.868555 179.737192 
L 555.482414 187.233602 
L 555.891653 189.349489 
L 556.300893 190.561351 
L 556.505512 190.386033 
L 556.710132 189.879157 
L 556.914752 189.679603 
L 557.323991 190.384899 
L 557.528611 190.317865 
L 557.733231 190.086651 
L 557.937851 190.132543 
L 558.34709 190.510406 
L 558.55171 190.165854 
L 558.960949 188.831268 
L 559.165569 188.734843 
L 559.574808 189.794797 
L 559.779428 189.872866 
L 559.984048 189.39765 
L 560.393287 187.116757 
L 561.007146 182.450812 
L 561.211766 181.707462 
L 561.416386 181.748404 
L 561.825625 183.499113 
L 562.234865 185.139475 
L 562.439485 185.334284 
L 562.848724 184.897638 
L 563.257963 184.238854 
L 563.462583 184.317953 
L 563.871823 186.258006 
L 564.281062 187.930131 
L 564.690302 188.381112 
L 564.894921 188.998542 
L 565.304161 192.046505 
L 565.7134 194.733208 
L 565.91802 195.163151 
L 566.327259 195.426644 
L 566.531879 195.834517 
L 566.941119 197.466938 
L 567.350358 199.529404 
L 567.554978 200.056288 
L 567.759597 199.702351 
L 567.964217 198.13552 
L 568.782696 187.632296 
L 568.987316 186.893381 
L 569.191936 187.128411 
L 569.601175 189.33206 
L 570.010414 191.556026 
L 570.419654 192.254618 
L 571.033513 193.149464 
L 571.238133 192.68848 
L 571.647372 190.733576 
L 571.851992 190.379948 
L 572.056612 191.219724 
L 572.875091 198.11541 
L 573.07971 198.266493 
L 573.28433 197.945351 
L 573.48895 197.383301 
L 574.512048 193.10285 
L 574.716668 193.280128 
L 575.330527 194.540358 
L 575.535147 193.955929 
L 576.149006 188.996583 
L 576.353626 189.259767 
L 577.172105 195.35796 
L 577.581344 196.046755 
L 577.990584 197.800868 
L 578.195204 198.671272 
L 578.399823 199.017474 
L 579.218302 198.87526 
L 579.422922 198.436139 
L 579.832161 196.368723 
L 580.241401 194.43496 
L 580.446021 194.452492 
L 580.65064 195.212549 
L 581.05988 197.741672 
L 581.264499 198.261852 
L 581.469119 198.096537 
L 581.673739 197.732184 
L 581.878359 197.598736 
L 582.082978 197.952673 
L 582.287598 198.942603 
L 582.901457 203.273278 
L 583.106077 203.64619 
L 583.310697 203.459424 
L 583.515316 202.705968 
L 583.924556 198.827099 
L 585.152274 183.939575 
L 585.356894 182.82259 
L 585.561514 182.416367 
L 586.175373 182.447821 
L 586.379993 182.100175 
L 586.993852 180.346063 
L 587.198471 180.702887 
L 587.812331 183.95556 
L 588.01695 184.223487 
L 588.835429 183.942978 
L 589.244669 183.18684 
L 589.449288 183.342461 
L 589.653908 184.415822 
L 590.063148 187.59352 
L 590.267767 188.114113 
L 590.472387 187.59187 
L 590.881627 185.634182 
L 591.290866 184.837721 
L 591.495486 184.806266 
L 591.700105 185.199908 
L 592.109345 187.906412 
L 592.518584 191.044096 
L 592.927824 192.478922 
L 593.541683 193.659434 
L 593.746303 193.237742 
L 593.950922 191.954927 
L 594.769401 184.37653 
L 595.58788 181.415505 
L 596.201739 177.801883 
L 596.406359 177.870154 
L 596.610979 179.06531 
L 597.429458 186.517271 
L 597.634078 186.778289 
L 597.838697 186.010292 
L 598.247937 183.497979 
L 598.657176 182.533315 
L 598.861796 182.100485 
L 599.271035 180.392367 
L 600.294134 174.940996 
L 600.498754 174.870353 
L 600.703373 174.663787 
L 600.907993 173.316207 
L 601.317233 166.33348 
L 601.726472 159.054466 
L 602.135712 155.744351 
L 602.340331 155.563773 
L 602.749571 156.46821 
L 602.95419 156.372506 
L 603.15881 155.615337 
L 603.977289 150.801712 
L 604.181909 151.086759 
L 604.795768 153.178308 
L 605.409627 154.102133 
L 606.432726 156.662813 
L 606.637346 156.183884 
L 607.251205 152.877482 
L 607.455824 152.748468 
L 607.660444 153.45727 
L 608.683543 160.484961 
L 608.888163 160.688124 
L 609.706641 160.509402 
L 609.911261 160.143502 
L 610.320501 158.606372 
L 610.93436 155.028949 
L 611.13898 153.900517 
L 611.343599 153.503472 
L 611.548219 154.315403 
L 611.957458 160.307786 
L 612.366698 166.489926 
L 612.571318 167.262255 
L 612.775937 166.586867 
L 613.185177 164.06455 
L 613.389797 163.457124 
L 613.594416 163.372971 
L 613.799036 163.663896 
L 614.208275 164.577202 
L 614.412895 164.478921 
L 614.617515 163.695351 
L 615.435994 158.618851 
L 615.640614 159.068697 
L 615.845233 160.528069 
L 616.868332 171.086981 
L 617.072952 171.383269 
L 617.277571 170.737582 
L 617.686811 167.435099 
L 620.142248 143.83002 
L 620.346867 143.074398 
L 620.551487 143.207949 
L 620.756107 144.093617 
L 621.779205 151.606114 
L 622.188445 154.674496 
L 622.393065 155.019151 
L 622.597684 153.721279 
L 623.006924 146.359762 
L 623.620783 133.714251 
L 623.825403 131.939719 
L 624.030022 131.376225 
L 624.848501 131.340233 
L 625.053121 131.690045 
L 625.257741 132.528892 
L 625.66698 135.622953 
L 626.07622 139.504399 
L 626.280839 140.504539 
L 626.485459 140.637884 
L 626.690079 140.494742 
L 626.894698 140.617465 
L 627.099318 140.872192 
L 627.303938 140.751738 
L 627.508558 139.935683 
L 628.531656 133.028034 
L 628.736276 132.69596 
L 629.350135 132.79352 
L 629.759375 131.524833 
L 630.782473 127.309869 
L 630.987093 127.850468 
L 631.396332 131.968904 
L 632.214811 142.809461 
L 632.624051 145.743879 
L 633.23791 148.393353 
L 633.44253 148.580428 
L 633.647149 148.273002 
L 634.056389 146.84261 
L 634.465628 145.143877 
L 634.670248 145.040646 
L 634.874868 145.704071 
L 635.284107 147.587713 
L 635.488727 147.885342 
L 635.693347 147.568531 
L 636.102586 146.086884 
L 636.307206 146.236523 
L 636.716445 148.944574 
L 637.125685 151.511236 
L 637.330305 151.14317 
L 637.739544 146.775473 
L 638.148783 142.648065 
L 638.353403 142.151295 
L 638.558023 142.960235 
L 639.171882 147.816658 
L 639.376502 148.270423 
L 639.581122 147.733433 
L 640.3996 142.28825 
L 640.60422 141.907499 
L 640.80884 142.063017 
L 641.831939 144.695784 
L 642.241178 147.73498 
L 642.650417 150.945886 
L 642.855037 151.71708 
L 643.059657 151.905084 
L 643.264277 151.478544 
L 643.673516 149.099989 
L 644.287375 144.884818 
L 644.696615 142.676116 
L 645.105854 137.363349 
L 645.515094 131.680351 
L 645.719713 130.642981 
L 645.924333 130.624006 
L 646.128953 131.467597 
L 646.947432 137.929937 
L 647.152051 137.697691 
L 648.17515 133.453542 
L 648.37977 133.685065 
L 648.58439 134.591462 
L 649.607488 143.465771 
L 650.425967 151.201129 
L 650.630587 150.777477 
L 651.039826 148.733367 
L 651.449066 147.434258 
L 651.653685 145.626725 
L 652.062925 138.189924 
L 652.472164 130.368453 
L 652.881404 126.281368 
L 653.086024 125.705602 
L 653.290643 125.656204 
L 653.495263 125.848538 
L 653.699883 126.289825 
L 654.109122 128.271129 
L 654.927601 135.133402 
L 655.132221 135.13928 
L 655.336841 133.74323 
L 655.74608 127.588006 
L 656.155319 121.181149 
L 656.564559 118.113799 
L 656.973798 116.150336 
L 657.792277 114.356622 
L 657.996897 114.437681 
L 658.201517 115.254768 
L 659.224615 121.196309 
L 659.429235 121.181871 
L 659.633855 120.825872 
L 659.838475 120.849076 
L 660.043094 121.941103 
L 660.452334 127.043797 
L 661.066193 136.40776 
L 661.270813 137.161423 
L 661.475432 136.051451 
L 662.089292 127.275114 
L 662.703151 119.304727 
L 663.11239 116.303482 
L 663.52163 114.881546 
L 663.726249 114.318568 
L 663.930869 113.210246 
L 664.340108 108.80501 
L 665.158587 99.764457 
L 665.363207 99.958339 
L 665.772447 103.705925 
L 666.386306 109.329212 
L 667.409404 116.18509 
L 667.818644 117.089011 
L 668.023264 117.131706 
L 668.227883 116.902349 
L 668.432503 116.383509 
L 668.637123 115.479794 
L 668.841742 113.899866 
L 669.250982 108.087442 
L 669.864841 98.203195 
L 670.069461 96.966685 
L 670.274081 97.058469 
L 670.68332 99.621006 
L 671.706419 108.887822 
L 671.911038 108.632888 
L 672.320278 106.973138 
L 672.524898 106.677469 
L 672.729517 106.631886 
L 672.934137 106.765747 
L 673.547996 108.160972 
L 673.752616 108.130652 
L 673.957236 107.944609 
L 674.161855 107.928521 
L 674.571095 108.408377 
L 674.775715 108.141378 
L 674.980334 106.823499 
L 675.389574 100.643525 
L 675.798813 94.33598 
L 676.003433 92.748008 
L 677.026532 89.141296 
L 677.435771 86.264423 
L 677.84501 82.303774 
L 678.25425 76.158967 
L 679.277349 56.918698 
L 679.891208 52.050209 
L 680.300447 46.051637 
L 680.914306 36.730679 
L 681.118926 34.956663 
L 681.323546 34.278799 
L 681.528166 34.892723 
L 681.732785 36.873306 
L 682.346644 47.716028 
L 682.755884 53.487304 
L 683.369743 56.110274 
L 683.983602 60.58966 
L 684.188222 60.779003 
L 684.392842 60.22871 
L 685.62056 54.376787 
L 686.0298 49.985783 
L 686.439039 41.335572 
L 687.666757 5.372298 
L 687.873034 -1 
M 799.234153 -1 
L 799.798368 6.653463 
L 801.639945 21.081241 
L 801.844565 21.04494 
L 802.049185 20.248376 
L 802.663044 15.745889 
L 803.072283 12.913259 
L 803.276903 12.515802 
L 803.481523 12.818381 
L 803.686142 13.432614 
L 803.890762 14.438736 
L 804.300002 19.035481 
L 804.913861 28.632927 
L 805.118481 30.520282 
L 805.3231 31.264044 
L 805.52772 30.912067 
L 805.936959 28.933959 
L 806.141579 28.95572 
L 806.346199 30.222962 
L 807.164678 38.226558 
L 808.801636 48.439784 
L 809.620115 58.096632 
L 809.824734 58.550191 
L 810.029354 58.420868 
L 810.233974 58.542559 
L 810.438593 59.546309 
L 810.643213 61.691072 
L 811.052453 69.506973 
L 811.666312 83.379507 
L 812.280171 88.723831 
L 812.68941 91.549139 
L 812.89403 91.885029 
L 813.09865 91.841921 
L 813.30327 92.06571 
L 813.917129 93.70504 
L 814.121749 93.630685 
L 814.735608 92.606103 
L 814.940227 92.843299 
L 815.758706 95.35159 
L 815.963326 94.969292 
L 816.372566 92.767396 
L 816.781805 89.705924 
L 816.986425 88.93772 
L 817.191044 88.904513 
L 817.395664 89.577323 
L 819.032622 100.564631 
L 819.851101 110.854894 
L 820.46496 114.93641 
L 820.874199 118.557458 
L 821.078819 119.556257 
L 821.283439 119.517481 
L 821.488059 118.460001 
L 822.101918 112.407494 
L 822.511157 108.53141 
L 822.715777 107.570355 
L 822.920397 107.734639 
L 823.329636 110.668438 
L 823.943495 115.619121 
L 824.557355 118.432466 
L 824.761974 118.81466 
L 824.966594 118.251682 
L 825.785073 112.195771 
L 825.989693 112.645308 
L 826.398932 114.110454 
L 826.603552 113.746617 
L 827.217411 111.405807 
L 827.422031 111.165827 
L 827.62665 110.729387 
L 828.03589 109.292807 
L 828.24051 109.229899 
L 828.649749 110.921206 
L 829.263608 113.075869 
L 829.468228 113.530666 
L 829.672848 113.681234 
L 829.877467 113.415162 
L 830.082087 112.527226 
L 830.286707 110.735678 
L 830.695946 104.206614 
L 831.105186 97.739014 
L 831.514425 94.800162 
L 832.128284 91.827174 
L 832.537524 89.235349 
L 832.946763 84.771432 
L 833.356003 77.00823 
L 834.174482 59.668413 
L 834.583721 54.636052 
L 834.992961 51.745877 
L 835.4022 49.312973 
L 835.60682 47.315064 
L 836.016059 39.983248 
L 837.039158 13.276271 
L 837.476643 -1 
M 966.855288 -1 
L 967.177304 2.558334 
L 969.018882 25.798854 
L 969.837361 34.916649 
L 970.04198 35.238822 
L 970.2466 34.40111 
L 970.860459 29.15187 
L 971.065079 29.37504 
L 971.269699 31.39378 
L 971.883558 40.066679 
L 972.497417 46.912657 
L 973.111276 55.525845 
L 973.520516 58.094672 
L 973.725135 58.089928 
L 974.134375 57.313577 
L 974.338995 57.857374 
L 975.157473 63.392795 
L 975.362093 62.869212 
L 975.771333 61.389008 
L 976.589812 60.642255 
L 976.794431 61.140881 
L 977.203671 62.426997 
L 977.40829 62.285917 
L 977.81753 61.554633 
L 978.02215 61.444595 
L 978.226769 61.091689 
L 978.636009 59.88488 
L 978.840629 60.218294 
L 979.045248 61.890213 
L 979.454488 68.482907 
L 980.068347 79.594589 
L 980.477586 83.474179 
L 981.500685 88.482201 
L 982.114544 94.871114 
L 982.728403 100.65755 
L 982.933023 100.688695 
L 983.137643 98.775455 
L 984.160741 81.414291 
L 984.365361 80.930721 
L 984.569981 81.561249 
L 985.18384 85.409385 
L 985.38846 86.088796 
L 985.59308 86.245242 
L 986.002319 85.897699 
L 986.206939 86.400244 
L 986.616178 89.414174 
L 987.639277 100.225339 
L 987.843897 100.326405 
L 988.048516 100.751913 
L 988.253136 101.568896 
L 988.457756 101.797945 
L 988.662375 100.456553 
L 989.071615 92.901566 
L 989.685474 79.936975 
L 990.094714 76.771962 
L 990.299333 76.814039 
L 991.117812 80.168808 
L 991.322432 80.008547 
L 991.731671 79.032539 
L 991.936291 79.0939 
L 992.345531 79.830959 
L 992.55015 80.001637 
L 992.75477 80.626596 
L 993.573249 85.224785 
L 993.777869 85.690513 
L 993.982488 87.057481 
L 995.414826 103.584233 
L 995.619446 103.612594 
L 995.824066 102.305028 
L 996.233305 96.068023 
L 996.642545 90.386572 
L 996.847165 89.872683 
L 997.051784 91.317822 
L 997.665643 99.145996 
L 997.870263 99.365247 
L 998.074883 98.146062 
L 998.484122 92.506172 
L 998.893362 86.447373 
L 999.097982 85.009865 
L 999.302601 84.618905 
L 999.507221 84.59467 
L 999.711841 84.408111 
L 1000.12108 83.449222 
L 1000.53032 81.759049 
L 1000.939559 78.185751 
L 1001.348799 70.494325 
L 1002.371897 41.670843 
L 1002.576517 41.368057 
L 1002.781137 43.877586 
L 1003.190376 55.96146 
L 1004.622714 111.333926 
L 1005.236573 118.910982 
L 1006.259672 139.35806 
L 1006.464292 140.263116 
L 1006.668911 139.804503 
L 1007.078151 137.581156 
L 1007.282771 137.197621 
L 1007.48739 137.769056 
L 1007.89663 139.481814 
L 1008.10125 139.217186 
L 1008.715109 137.083974 
L 1009.124348 135.754545 
L 1010.147447 129.846211 
L 1011.579785 112.899726 
L 1011.989024 111.883292 
L 1012.193644 111.696423 
L 1012.398264 111.767891 
L 1012.602883 112.453902 
L 1012.807503 114.228536 
L 1013.625982 124.697006 
L 1014.035222 126.520523 
L 1014.8537 129.14504 
L 1015.26294 132.614901 
L 1016.490658 147.693729 
L 1017.309137 153.696219 
L 1018.127616 159.486265 
L 1018.536856 161.910712 
L 1018.741475 161.355572 
L 1019.355334 154.598078 
L 1019.559954 154.274048 
L 1020.173813 157.795886 
L 1020.378433 157.72648 
L 1020.583053 156.943941 
L 1021.401532 152.638843 
L 1021.606151 152.608007 
L 1021.810771 152.958232 
L 1022.015391 153.767068 
L 1022.42463 157.650578 
L 1022.83387 161.24409 
L 1023.03849 161.292147 
L 1023.243109 160.19352 
L 1023.652349 155.746723 
L 1024.061588 151.15998 
L 1024.266208 149.945746 
L 1024.470828 149.457948 
L 1024.675447 149.538182 
L 1025.084687 150.250078 
L 1025.289307 149.694628 
L 1025.903166 146.098641 
L 1026.107785 146.577157 
L 1027.130884 152.534064 
L 1027.335504 152.689479 
L 1027.540124 152.444446 
L 1028.153983 151.167096 
L 1028.972462 148.275477 
L 1030.814039 153.673531 
L 1031.018659 153.3033 
L 1031.427898 149.962452 
L 1031.837138 146.51002 
L 1032.041758 145.700255 
L 1032.246377 145.809159 
L 1032.450997 147.115591 
L 1032.860236 152.829734 
L 1033.269476 159.114899 
L 1033.474096 161.029995 
L 1033.678715 161.798096 
L 1033.883335 161.511399 
L 1034.292575 159.182036 
L 1035.111053 153.044653 
L 1035.315673 152.976692 
L 1035.724913 155.191892 
L 1036.338772 160.194242 
L 1036.952631 169.253048 
L 1037.56649 176.943957 
L 1037.97573 179.218353 
L 1038.180349 179.657886 
L 1038.384969 179.592709 
L 1038.589589 178.933718 
L 1039.612687 172.780867 
L 1040.431166 173.045494 
L 1040.635786 172.782723 
L 1040.840406 172.109191 
L 1041.658885 167.694157 
L 1041.863504 168.311278 
L 1042.681983 175.10167 
L 1043.295843 180.777449 
L 1043.705082 184.610219 
L 1043.909702 185.280761 
L 1044.114321 184.653224 
L 1044.318941 182.67821 
L 1044.9328 171.716787 
L 1045.34204 166.512614 
L 1045.54666 166.211582 
L 1045.751279 167.229151 
L 1046.160519 172.104653 
L 1046.774378 179.994498 
L 1046.978998 180.533138 
L 1047.183617 179.714298 
L 1047.592857 175.824807 
L 1048.206716 169.232731 
L 1048.411336 168.717295 
L 1048.615955 169.254079 
L 1049.229815 172.069486 
L 1049.639054 173.111909 
L 1049.843674 173.22071 
L 1050.457533 172.421155 
L 1050.662153 173.300531 
L 1051.071392 177.761869 
L 1051.685251 185.31108 
L 1052.094491 187.203694 
L 1052.29911 187.905793 
L 1052.70835 190.651279 
L 1053.117589 193.576622 
L 1053.322209 194.27738 
L 1053.526829 193.885904 
L 1053.936068 190.043956 
L 1054.754547 181.104882 
L 1054.959167 180.451666 
L 1055.163787 180.18147 
L 1055.368406 179.574559 
L 1056.391505 174.317997 
L 1057.005364 173.067461 
L 1057.209984 173.174302 
L 1057.414604 173.78276 
L 1057.619223 175.162413 
L 1058.642322 185.688428 
L 1058.846942 185.528578 
L 1059.256181 184.068692 
L 1059.87004 180.431041 
L 1060.07466 180.051631 
L 1060.27928 180.048434 
L 1060.893139 180.57212 
L 1061.097759 180.312133 
L 1061.302378 180.350807 
L 1061.506998 181.339603 
L 1061.916238 184.798326 
L 1062.120857 185.495165 
L 1062.325477 184.905785 
L 1063.143956 178.203053 
L 1063.348576 177.944613 
L 1063.757815 178.535745 
L 1063.962435 178.090746 
L 1064.576294 174.582831 
L 1064.780914 174.871178 
L 1065.394773 177.396382 
L 1065.599393 177.178781 
L 1066.008632 176.452447 
L 1066.213252 176.812365 
L 1066.827111 179.370158 
L 1067.031731 179.405015 
L 1067.44097 178.57514 
L 1067.85021 177.615633 
L 1068.054829 177.971426 
L 1068.259449 179.303537 
L 1069.077928 188.435048 
L 1069.487168 189.97981 
L 1069.896407 191.165787 
L 1070.305646 193.729252 
L 1070.714886 196.41183 
L 1070.919506 196.445553 
L 1071.124125 195.554008 
L 1071.942604 190.235156 
L 1072.147224 189.827902 
L 1072.351844 190.156985 
L 1072.965703 193.205978 
L 1073.170323 193.12791 
L 1074.193421 189.050725 
L 1074.398041 188.35894 
L 1075.21652 184.554324 
L 1075.42114 184.527716 
L 1075.625759 184.964775 
L 1076.239619 188.157117 
L 1076.444238 188.122775 
L 1077.058097 186.082172 
L 1077.467337 185.990285 
L 1078.285816 184.700766 
L 1078.490436 184.662505 
L 1078.695055 185.008089 
L 1079.104295 186.695477 
L 1079.513534 188.672656 
L 1079.718154 188.901292 
L 1079.922774 188.201462 
L 1080.332013 184.425619 
L 1081.150492 175.480255 
L 1081.355112 174.922742 
L 1081.559731 175.3532 
L 1082.58283 180.645445 
L 1082.99207 179.792263 
L 1083.196689 179.875487 
L 1083.401309 181.086422 
L 1084.015168 188.270146 
L 1084.219788 188.921712 
L 1084.424408 187.66045 
L 1085.038267 179.995117 
L 1085.242887 179.924164 
L 1086.061365 185.734113 
L 1086.265985 184.721495 
L 1086.675225 178.901542 
L 1087.084464 173.661171 
L 1087.493704 171.717096 
L 1088.312182 169.484158 
L 1088.721422 169.863981 
L 1088.926042 169.650917 
L 1089.539901 167.936097 
L 1089.74452 168.31365 
L 1090.15376 169.487974 
L 1090.35838 169.863568 
L 1090.562999 170.478111 
L 1090.972239 173.15182 
L 1091.381478 175.614115 
L 1091.790718 177.55489 
L 1092.609197 183.498907 
L 1092.813816 183.195915 
L 1093.632295 178.432823 
L 1093.836915 178.860497 
L 1094.246154 180.262941 
L 1094.450774 180.096286 
L 1095.064633 177.137839 
L 1095.269253 177.584385 
L 1096.292352 184.53607 
L 1096.496971 184.910323 
L 1097.110831 183.212725 
L 1097.52007 183.797464 
L 1097.72469 183.747034 
L 1098.338549 182.711418 
L 1098.952408 181.255862 
L 1099.157028 181.658476 
L 1099.361648 183.229226 
L 1100.589366 196.855695 
L 1100.793986 197.016988 
L 1100.998605 195.590721 
L 1101.817084 185.597778 
L 1102.021704 185.464948 
L 1102.430944 187.052302 
L 1102.840183 188.662344 
L 1103.044803 188.652959 
L 1103.249422 187.698402 
L 1104.272521 180.145272 
L 1104.477141 179.467924 
L 1104.681761 179.458642 
L 1104.88638 179.683462 
L 1105.091 179.488962 
L 1105.500239 177.389885 
L 1106.318718 171.894787 
L 1106.727958 169.046481 
L 1106.932578 168.3911 
L 1107.137197 168.184327 
L 1107.341817 168.42771 
L 1107.751056 170.54071 
L 1107.955676 171.490317 
L 1108.160296 171.51744 
L 1108.364916 170.615272 
L 1109.183395 165.37222 
L 1110.001873 164.187273 
L 1110.411113 164.046297 
L 1110.615733 163.63502 
L 1110.820352 162.380772 
L 1111.229592 157.201041 
L 1111.638831 149.585724 
L 1112.66193 126.851566 
L 1113.275789 114.456863 
L 1113.889648 98.249913 
L 1115.526606 47.752639 
L 1116.345085 11.17771 
L 1116.601857 -1 
M 1128.227217 -1 
L 1129.236128 58.587008 
L 1129.849987 80.115388 
L 1130.463846 94.234089 
L 1132.305424 127.360711 
L 1132.919283 136.78552 
L 1133.737762 150.181497 
L 1134.147001 152.423923 
L 1134.556241 156.828747 
L 1134.96548 161.217276 
L 1135.1701 162.078812 
L 1135.37472 161.948457 
L 1135.783959 159.753161 
L 1136.193198 157.554359 
L 1136.397818 157.366562 
L 1136.807058 158.222425 
L 1137.216297 159.756874 
L 1137.625537 161.629584 
L 1137.830156 162.126148 
L 1138.034776 162.069324 
L 1138.853255 159.478324 
L 1139.057875 159.490493 
L 1139.262494 160.093176 
L 1140.694832 169.764771 
L 1141.717931 176.799062 
L 1141.922551 177.245711 
L 1142.127171 177.058017 
L 1142.53641 175.977231 
L 1142.74103 175.913188 
L 1142.945649 176.888268 
L 1143.764128 184.764499 
L 1144.991847 189.577093 
L 1145.605706 192.426327 
L 1146.424185 194.511585 
L 1146.628805 194.400206 
L 1146.833424 193.464521 
L 1147.242664 189.460558 
L 1147.651903 184.579074 
L 1147.856523 183.407226 
L 1148.061143 183.383918 
L 1148.470382 184.567112 
L 1148.675002 184.546589 
L 1149.084241 182.509698 
L 1149.288861 181.529359 
L 1149.493481 181.125302 
L 1150.10734 181.011551 
L 1150.721199 180.44125 
L 1150.925819 180.854589 
L 1151.130439 182.294572 
L 1152.153537 194.236644 
L 1152.358157 194.78271 
L 1152.562777 194.036163 
L 1152.972016 189.122812 
L 1153.585875 180.589446 
L 1153.995115 178.729214 
L 1154.199734 178.451902 
L 1154.404354 178.959088 
L 1154.608974 180.610072 
L 1155.427453 190.566405 
L 1155.632073 191.34585 
L 1155.836692 191.548291 
L 1156.041312 191.572423 
L 1156.245932 191.86077 
L 1156.450551 192.784183 
L 1157.47365 199.941093 
L 1157.67827 198.841125 
L 1158.087509 192.57906 
L 1158.496749 186.008023 
L 1158.701368 184.277011 
L 1158.905988 183.558206 
L 1159.110608 183.790142 
L 1159.315228 185.098223 
L 1160.133707 193.484219 
L 1160.747566 196.185463 
L 1160.952185 196.232593 
L 1161.156805 194.876763 
L 1161.770664 187.213595 
L 1161.975284 186.449928 
L 1162.179904 186.939789 
L 1163.203002 193.410791 
L 1163.816862 196.69234 
L 1164.226101 198.362505 
L 1164.635341 201.622294 
L 1165.04458 204.54083 
L 1165.2492 204.888373 
L 1165.453819 204.447911 
L 1165.863059 201.972621 
L 1166.272298 198.652812 
L 1166.681538 193.271877 
L 1167.295397 183.6569 
L 1167.500017 182.524755 
L 1167.704636 182.559922 
L 1168.113876 183.946484 
L 1168.523115 186.387329 
L 1169.136974 190.604459 
L 1169.546214 192.245646 
L 1169.750834 192.264725 
L 1169.955453 191.398961 
L 1170.364693 186.623493 
L 1170.773932 179.930146 
L 1170.978552 178.158914 
L 1171.183172 178.506457 
L 1171.592411 183.686497 
L 1172.20627 191.076994 
L 1172.61551 195.122002 
L 1172.82013 196.221455 
L 1173.024749 196.443697 
L 1173.229369 195.786769 
L 1174.047848 189.814907 
L 1174.252468 189.65248 
L 1174.457087 189.829036 
L 1174.661707 189.556055 
L 1175.070947 186.765192 
L 1175.480186 184.605578 
L 1175.684806 184.497706 
L 1176.094045 184.626926 
L 1176.298665 184.546073 
L 1176.503285 184.632392 
L 1176.707904 185.30479 
L 1177.117144 189.157876 
L 1177.526383 193.201234 
L 1177.731003 194.25067 
L 1177.935623 194.602957 
L 1178.140242 194.209212 
L 1178.344862 193.019831 
L 1179.572581 182.717708 
L 1179.7772 181.578242 
L 1179.98182 181.588555 
L 1180.18644 183.172505 
L 1181.004919 194.382674 
L 1181.414158 196.082747 
L 1181.618778 196.148956 
L 1182.028017 195.583605 
L 1182.232637 195.077554 
L 1182.437257 194.186111 
L 1182.846496 190.753067 
L 1183.255736 187.015279 
L 1183.460355 186.155496 
L 1183.664975 186.055359 
L 1183.869595 186.202936 
L 1184.074215 185.838995 
L 1184.892693 181.062187 
L 1184.892693 181.062187 
" clip-path="url(#p41ce12cf67)" style="fill: none; stroke: #000000; stroke-width: 2; stroke-linecap: square"/>
   </g>
   <g id="patch_3">
    <path d="M 3.00024 198.907885 
L 1184.99976 198.907885 
" style="fill: none; stroke: #000000; stroke-width: 2; stroke-linejoin: miter; stroke-linecap: square"/>
   </g>
  </g>
 </g>
 <defs>
  <clipPath id="p41ce12cf67">
   <rect x="3.00024" y="3.00024" width="1181.99952" height="195.907645"/>
  </clipPath>
 </defs>
</svg>
