<?xml version="1.0" encoding="utf-8" standalone="no"?>
<!DOCTYPE svg PUBLIC "-//W3C//DTD SVG 1.1//EN"
  "http://www.w3.org/Graphics/SVG/1.1/DTD/svg11.dtd">
<svg xmlns:xlink="http://www.w3.org/1999/xlink" width="1188pt" height="252pt" viewBox="0 0 1188 252" xmlns="http://www.w3.org/2000/svg" version="1.1">
 <metadata>
  <rdf:RDF xmlns:dc="http://purl.org/dc/elements/1.1/" xmlns:cc="http://creativecommons.org/ns#" xmlns:rdf="http://www.w3.org/1999/02/22-rdf-syntax-ns#">
   <cc:Work>
    <dc:type rdf:resource="http://purl.org/dc/dcmitype/StillImage"/>
    <dc:date>2024-07-23T21:42:48.203823</dc:date>
    <dc:format>image/svg+xml</dc:format>
    <dc:creator>
     <cc:Agent>
      <dc:title>Matplotlib v3.8.4, https://matplotlib.org/</dc:title>
     </cc:Agent>
    </dc:creator>
   </cc:Work>
  </rdf:RDF>
 </metadata>
 <defs>
  <style type="text/css">*{stroke-linejoin: round; stroke-linecap: butt}</style>
 </defs>
 <g id="figure_1">
  <g id="patch_1">
   <path d="M 0 252 
L 1188 252 
L 1188 0 
L 0 0 
z
" style="fill: #ffffff"/>
  </g>
  <g id="axes_1">
   <g id="patch_2">
    <path d="M 3.00024 198.907885 
L 1184.99976 198.907885 
L 1184.99976 3.00024 
L 3.00024 3.00024 
z
" style="fill: #ffffff"/>
   </g>
   <g id="matplotlib.axis_1">
    <g id="xtick_1">
     <g id="line2d_1">
      <defs>
       <path id="m9d7e4e26ca" d="M 0 0 
L 0 8 
" style="stroke: #000000; stroke-width: 2"/>
      </defs>
      <g>
       <use xlink:href="#m9d7e4e26ca" x="1131.272509" y="198.907885" style="stroke: #000000; stroke-width: 2"/>
      </g>
     </g>
     <g id="text_1">
      <!-- 0 -->
      <g transform="translate(1126.267665 224.791947) scale(0.18 -0.18)">
       <defs>
        <path id="Arial-BoldMT-30" d="M 1756 4600 
Q 2422 4600 2797 4125 
Q 3244 3563 3244 2259 
Q 3244 959 2794 391 
Q 2422 -78 1756 -78 
Q 1088 -78 678 436 
Q 269 950 269 2269 
Q 269 3563 719 4131 
Q 1091 4600 1756 4600 
z
M 1756 3872 
Q 1597 3872 1472 3770 
Q 1347 3669 1278 3406 
Q 1188 3066 1188 2259 
Q 1188 1453 1269 1151 
Q 1350 850 1473 750 
Q 1597 650 1756 650 
Q 1916 650 2041 751 
Q 2166 853 2234 1116 
Q 2325 1453 2325 2259 
Q 2325 3066 2244 3367 
Q 2163 3669 2039 3770 
Q 1916 3872 1756 3872 
z
" transform="scale(0.015625)"/>
       </defs>
       <use xlink:href="#Arial-BoldMT-30"/>
      </g>
     </g>
    </g>
    <g id="xtick_2">
     <g id="line2d_2">
      <g>
       <use xlink:href="#m9d7e4e26ca" x="1023.818007" y="198.907885" style="stroke: #000000; stroke-width: 2"/>
      </g>
     </g>
     <g id="text_2">
      <!-- 1 -->
      <g transform="translate(1018.813164 224.791947) scale(0.18 -0.18)">
       <defs>
        <path id="Arial-BoldMT-31" d="M 2519 0 
L 1641 0 
L 1641 3309 
Q 1159 2859 506 2644 
L 506 3441 
Q 850 3553 1253 3867 
Q 1656 4181 1806 4600 
L 2519 4600 
L 2519 0 
z
" transform="scale(0.015625)"/>
       </defs>
       <use xlink:href="#Arial-BoldMT-31"/>
      </g>
     </g>
    </g>
    <g id="xtick_3">
     <g id="line2d_3">
      <g>
       <use xlink:href="#m9d7e4e26ca" x="916.363505" y="198.907885" style="stroke: #000000; stroke-width: 2"/>
      </g>
     </g>
     <g id="text_3">
      <!-- 2 -->
      <g transform="translate(911.358662 224.791947) scale(0.18 -0.18)">
       <defs>
        <path id="Arial-BoldMT-32" d="M 3238 816 
L 3238 0 
L 159 0 
Q 209 463 459 877 
Q 709 1291 1447 1975 
Q 2041 2528 2175 2725 
Q 2356 2997 2356 3263 
Q 2356 3556 2198 3714 
Q 2041 3872 1763 3872 
Q 1488 3872 1325 3706 
Q 1163 3541 1138 3156 
L 263 3244 
Q 341 3969 753 4284 
Q 1166 4600 1784 4600 
Q 2463 4600 2850 4234 
Q 3238 3869 3238 3325 
Q 3238 3016 3127 2736 
Q 3016 2456 2775 2150 
Q 2616 1947 2200 1565 
Q 1784 1184 1673 1059 
Q 1563 934 1494 816 
L 3238 816 
z
" transform="scale(0.015625)"/>
       </defs>
       <use xlink:href="#Arial-BoldMT-32"/>
      </g>
     </g>
    </g>
    <g id="xtick_4">
     <g id="line2d_4">
      <g>
       <use xlink:href="#m9d7e4e26ca" x="808.909004" y="198.907885" style="stroke: #000000; stroke-width: 2"/>
      </g>
     </g>
     <g id="text_4">
      <!-- 3 -->
      <g transform="translate(803.90416 224.791947) scale(0.18 -0.18)">
       <defs>
        <path id="Arial-BoldMT-33" d="M 241 1216 
L 1091 1319 
Q 1131 994 1309 822 
Q 1488 650 1741 650 
Q 2013 650 2198 856 
Q 2384 1063 2384 1413 
Q 2384 1744 2206 1937 
Q 2028 2131 1772 2131 
Q 1603 2131 1369 2066 
L 1466 2781 
Q 1822 2772 2009 2936 
Q 2197 3100 2197 3372 
Q 2197 3603 2059 3740 
Q 1922 3878 1694 3878 
Q 1469 3878 1309 3722 
Q 1150 3566 1116 3266 
L 306 3403 
Q 391 3819 561 4067 
Q 731 4316 1036 4458 
Q 1341 4600 1719 4600 
Q 2366 4600 2756 4188 
Q 3078 3850 3078 3425 
Q 3078 2822 2419 2463 
Q 2813 2378 3048 2084 
Q 3284 1791 3284 1375 
Q 3284 772 2843 347 
Q 2403 -78 1747 -78 
Q 1125 -78 715 280 
Q 306 638 241 1216 
z
" transform="scale(0.015625)"/>
       </defs>
       <use xlink:href="#Arial-BoldMT-33"/>
      </g>
     </g>
    </g>
    <g id="xtick_5">
     <g id="line2d_5">
      <g>
       <use xlink:href="#m9d7e4e26ca" x="701.454502" y="198.907885" style="stroke: #000000; stroke-width: 2"/>
      </g>
     </g>
     <g id="text_5">
      <!-- 4 -->
      <g transform="translate(696.449658 224.791947) scale(0.18 -0.18)">
       <defs>
        <path id="Arial-BoldMT-34" d="M 1994 0 
L 1994 922 
L 119 922 
L 119 1691 
L 2106 4600 
L 2844 4600 
L 2844 1694 
L 3413 1694 
L 3413 922 
L 2844 922 
L 2844 0 
L 1994 0 
z
M 1994 1694 
L 1994 3259 
L 941 1694 
L 1994 1694 
z
" transform="scale(0.015625)"/>
       </defs>
       <use xlink:href="#Arial-BoldMT-34"/>
      </g>
     </g>
    </g>
    <g id="xtick_6">
     <g id="line2d_6">
      <g>
       <use xlink:href="#m9d7e4e26ca" x="594" y="198.907885" style="stroke: #000000; stroke-width: 2"/>
      </g>
     </g>
     <g id="text_6">
      <!-- 5 -->
      <g transform="translate(588.995156 224.791947) scale(0.18 -0.18)">
       <defs>
        <path id="Arial-BoldMT-35" d="M 284 1178 
L 1159 1269 
Q 1197 972 1381 798 
Q 1566 625 1806 625 
Q 2081 625 2272 848 
Q 2463 1072 2463 1522 
Q 2463 1944 2273 2155 
Q 2084 2366 1781 2366 
Q 1403 2366 1103 2031 
L 391 2134 
L 841 4519 
L 3163 4519 
L 3163 3697 
L 1506 3697 
L 1369 2919 
Q 1663 3066 1969 3066 
Q 2553 3066 2959 2641 
Q 3366 2216 3366 1538 
Q 3366 972 3038 528 
Q 2591 -78 1797 -78 
Q 1163 -78 763 262 
Q 363 603 284 1178 
z
" transform="scale(0.015625)"/>
       </defs>
       <use xlink:href="#Arial-BoldMT-35"/>
      </g>
     </g>
    </g>
    <g id="xtick_7">
     <g id="line2d_7">
      <g>
       <use xlink:href="#m9d7e4e26ca" x="486.545498" y="198.907885" style="stroke: #000000; stroke-width: 2"/>
      </g>
     </g>
     <g id="text_7">
      <!-- 6 -->
      <g transform="translate(481.540654 224.791947) scale(0.18 -0.18)">
       <defs>
        <path id="Arial-BoldMT-36" d="M 3247 3459 
L 2397 3366 
Q 2366 3628 2234 3753 
Q 2103 3878 1894 3878 
Q 1616 3878 1423 3628 
Q 1231 3378 1181 2588 
Q 1509 2975 1997 2975 
Q 2547 2975 2939 2556 
Q 3331 2138 3331 1475 
Q 3331 772 2918 347 
Q 2506 -78 1859 -78 
Q 1166 -78 719 461 
Q 272 1000 272 2228 
Q 272 3488 737 4044 
Q 1203 4600 1947 4600 
Q 2469 4600 2811 4308 
Q 3153 4016 3247 3459 
z
M 1256 1544 
Q 1256 1116 1453 883 
Q 1650 650 1903 650 
Q 2147 650 2309 840 
Q 2472 1031 2472 1466 
Q 2472 1913 2297 2120 
Q 2122 2328 1859 2328 
Q 1606 2328 1431 2129 
Q 1256 1931 1256 1544 
z
" transform="scale(0.015625)"/>
       </defs>
       <use xlink:href="#Arial-BoldMT-36"/>
      </g>
     </g>
    </g>
    <g id="xtick_8">
     <g id="line2d_8">
      <g>
       <use xlink:href="#m9d7e4e26ca" x="379.090996" y="198.907885" style="stroke: #000000; stroke-width: 2"/>
      </g>
     </g>
     <g id="text_8">
      <!-- 7 -->
      <g transform="translate(374.086153 224.791947) scale(0.18 -0.18)">
       <defs>
        <path id="Arial-BoldMT-37" d="M 272 3703 
L 272 4519 
L 3275 4519 
L 3275 3881 
Q 2903 3516 2518 2831 
Q 2134 2147 1932 1376 
Q 1731 606 1734 0 
L 888 0 
Q 909 950 1279 1937 
Q 1650 2925 2269 3703 
L 272 3703 
z
" transform="scale(0.015625)"/>
       </defs>
       <use xlink:href="#Arial-BoldMT-37"/>
      </g>
     </g>
    </g>
    <g id="xtick_9">
     <g id="line2d_9">
      <g>
       <use xlink:href="#m9d7e4e26ca" x="271.636495" y="198.907885" style="stroke: #000000; stroke-width: 2"/>
      </g>
     </g>
     <g id="text_9">
      <!-- 8 -->
      <g transform="translate(266.631651 224.791947) scale(0.18 -0.18)">
       <defs>
        <path id="Arial-BoldMT-38" d="M 1025 2472 
Q 684 2616 529 2867 
Q 375 3119 375 3419 
Q 375 3931 733 4265 
Q 1091 4600 1750 4600 
Q 2403 4600 2764 4265 
Q 3125 3931 3125 3419 
Q 3125 3100 2959 2851 
Q 2794 2603 2494 2472 
Q 2875 2319 3073 2025 
Q 3272 1731 3272 1347 
Q 3272 713 2867 316 
Q 2463 -81 1791 -81 
Q 1166 -81 750 247 
Q 259 634 259 1309 
Q 259 1681 443 1992 
Q 628 2303 1025 2472 
z
M 1206 3356 
Q 1206 3094 1354 2947 
Q 1503 2800 1750 2800 
Q 2000 2800 2150 2948 
Q 2300 3097 2300 3359 
Q 2300 3606 2151 3754 
Q 2003 3903 1759 3903 
Q 1506 3903 1356 3753 
Q 1206 3603 1206 3356 
z
M 1125 1394 
Q 1125 1031 1311 828 
Q 1497 625 1775 625 
Q 2047 625 2225 820 
Q 2403 1016 2403 1384 
Q 2403 1706 2222 1901 
Q 2041 2097 1763 2097 
Q 1441 2097 1283 1875 
Q 1125 1653 1125 1394 
z
" transform="scale(0.015625)"/>
       </defs>
       <use xlink:href="#Arial-BoldMT-38"/>
      </g>
     </g>
    </g>
    <g id="xtick_10">
     <g id="line2d_10">
      <g>
       <use xlink:href="#m9d7e4e26ca" x="164.181993" y="198.907885" style="stroke: #000000; stroke-width: 2"/>
      </g>
     </g>
     <g id="text_10">
      <!-- 9 -->
      <g transform="translate(159.177149 224.791947) scale(0.18 -0.18)">
       <defs>
        <path id="Arial-BoldMT-39" d="M 291 1059 
L 1141 1153 
Q 1172 894 1303 769 
Q 1434 644 1650 644 
Q 1922 644 2112 894 
Q 2303 1144 2356 1931 
Q 2025 1547 1528 1547 
Q 988 1547 595 1964 
Q 203 2381 203 3050 
Q 203 3747 617 4173 
Q 1031 4600 1672 4600 
Q 2369 4600 2816 4061 
Q 3263 3522 3263 2288 
Q 3263 1031 2797 475 
Q 2331 -81 1584 -81 
Q 1047 -81 715 205 
Q 384 491 291 1059 
z
M 2278 2978 
Q 2278 3403 2083 3637 
Q 1888 3872 1631 3872 
Q 1388 3872 1227 3680 
Q 1066 3488 1066 3050 
Q 1066 2606 1241 2398 
Q 1416 2191 1678 2191 
Q 1931 2191 2104 2391 
Q 2278 2591 2278 2978 
z
" transform="scale(0.015625)"/>
       </defs>
       <use xlink:href="#Arial-BoldMT-39"/>
      </g>
     </g>
    </g>
    <g id="xtick_11">
     <g id="line2d_11">
      <g>
       <use xlink:href="#m9d7e4e26ca" x="56.727491" y="198.907885" style="stroke: #000000; stroke-width: 2"/>
      </g>
     </g>
     <g id="text_11">
      <!-- 10 -->
      <g transform="translate(46.717803 224.791947) scale(0.18 -0.18)">
       <use xlink:href="#Arial-BoldMT-31"/>
       <use xlink:href="#Arial-BoldMT-30" x="55.615234"/>
      </g>
     </g>
    </g>
    <g id="text_12">
     <!-- Chemical Shift / ppm -->
     <g transform="translate(504.992813 245.447573) scale(0.18 -0.18)">
      <defs>
       <path id="Arial-BoldMT-43" d="M 3397 1684 
L 4294 1400 
Q 4088 650 3608 286 
Q 3128 -78 2391 -78 
Q 1478 -78 890 545 
Q 303 1169 303 2250 
Q 303 3394 893 4026 
Q 1484 4659 2447 4659 
Q 3288 4659 3813 4163 
Q 4125 3869 4281 3319 
L 3366 3100 
Q 3284 3456 3026 3662 
Q 2769 3869 2400 3869 
Q 1891 3869 1573 3503 
Q 1256 3138 1256 2319 
Q 1256 1450 1568 1081 
Q 1881 713 2381 713 
Q 2750 713 3015 947 
Q 3281 1181 3397 1684 
z
" transform="scale(0.015625)"/>
       <path id="Arial-BoldMT-68" d="M 1334 4581 
L 1334 2897 
Q 1759 3394 2350 3394 
Q 2653 3394 2897 3281 
Q 3141 3169 3264 2994 
Q 3388 2819 3433 2606 
Q 3478 2394 3478 1947 
L 3478 0 
L 2600 0 
L 2600 1753 
Q 2600 2275 2550 2415 
Q 2500 2556 2373 2639 
Q 2247 2722 2056 2722 
Q 1838 2722 1666 2615 
Q 1494 2509 1414 2295 
Q 1334 2081 1334 1663 
L 1334 0 
L 456 0 
L 456 4581 
L 1334 4581 
z
" transform="scale(0.015625)"/>
       <path id="Arial-BoldMT-65" d="M 2381 1056 
L 3256 909 
Q 3088 428 2723 176 
Q 2359 -75 1813 -75 
Q 947 -75 531 491 
Q 203 944 203 1634 
Q 203 2459 634 2926 
Q 1066 3394 1725 3394 
Q 2466 3394 2894 2905 
Q 3322 2416 3303 1406 
L 1103 1406 
Q 1113 1016 1316 798 
Q 1519 581 1822 581 
Q 2028 581 2168 693 
Q 2309 806 2381 1056 
z
M 2431 1944 
Q 2422 2325 2234 2523 
Q 2047 2722 1778 2722 
Q 1491 2722 1303 2513 
Q 1116 2303 1119 1944 
L 2431 1944 
z
" transform="scale(0.015625)"/>
       <path id="Arial-BoldMT-6d" d="M 394 3319 
L 1203 3319 
L 1203 2866 
Q 1638 3394 2238 3394 
Q 2556 3394 2790 3262 
Q 3025 3131 3175 2866 
Q 3394 3131 3647 3262 
Q 3900 3394 4188 3394 
Q 4553 3394 4806 3245 
Q 5059 3097 5184 2809 
Q 5275 2597 5275 2122 
L 5275 0 
L 4397 0 
L 4397 1897 
Q 4397 2391 4306 2534 
Q 4184 2722 3931 2722 
Q 3747 2722 3584 2609 
Q 3422 2497 3350 2280 
Q 3278 2063 3278 1594 
L 3278 0 
L 2400 0 
L 2400 1819 
Q 2400 2303 2353 2443 
Q 2306 2584 2207 2653 
Q 2109 2722 1941 2722 
Q 1738 2722 1575 2612 
Q 1413 2503 1342 2297 
Q 1272 2091 1272 1613 
L 1272 0 
L 394 0 
L 394 3319 
z
" transform="scale(0.015625)"/>
       <path id="Arial-BoldMT-69" d="M 459 3769 
L 459 4581 
L 1338 4581 
L 1338 3769 
L 459 3769 
z
M 459 0 
L 459 3319 
L 1338 3319 
L 1338 0 
L 459 0 
z
" transform="scale(0.015625)"/>
       <path id="Arial-BoldMT-63" d="M 3353 2338 
L 2488 2181 
Q 2444 2441 2289 2572 
Q 2134 2703 1888 2703 
Q 1559 2703 1364 2476 
Q 1169 2250 1169 1719 
Q 1169 1128 1367 884 
Q 1566 641 1900 641 
Q 2150 641 2309 783 
Q 2469 925 2534 1272 
L 3397 1125 
Q 3263 531 2881 228 
Q 2500 -75 1859 -75 
Q 1131 -75 698 384 
Q 266 844 266 1656 
Q 266 2478 700 2936 
Q 1134 3394 1875 3394 
Q 2481 3394 2839 3133 
Q 3197 2872 3353 2338 
z
" transform="scale(0.015625)"/>
       <path id="Arial-BoldMT-61" d="M 1116 2306 
L 319 2450 
Q 453 2931 781 3162 
Q 1109 3394 1756 3394 
Q 2344 3394 2631 3255 
Q 2919 3116 3036 2902 
Q 3153 2688 3153 2116 
L 3144 1091 
Q 3144 653 3186 445 
Q 3228 238 3344 0 
L 2475 0 
Q 2441 88 2391 259 
Q 2369 338 2359 363 
Q 2134 144 1878 34 
Q 1622 -75 1331 -75 
Q 819 -75 523 203 
Q 228 481 228 906 
Q 228 1188 362 1408 
Q 497 1628 739 1745 
Q 981 1863 1438 1950 
Q 2053 2066 2291 2166 
L 2291 2253 
Q 2291 2506 2166 2614 
Q 2041 2722 1694 2722 
Q 1459 2722 1328 2630 
Q 1197 2538 1116 2306 
z
M 2291 1594 
Q 2122 1538 1756 1459 
Q 1391 1381 1278 1306 
Q 1106 1184 1106 997 
Q 1106 813 1243 678 
Q 1381 544 1594 544 
Q 1831 544 2047 700 
Q 2206 819 2256 991 
Q 2291 1103 2291 1419 
L 2291 1594 
z
" transform="scale(0.015625)"/>
       <path id="Arial-BoldMT-6c" d="M 459 0 
L 459 4581 
L 1338 4581 
L 1338 0 
L 459 0 
z
" transform="scale(0.015625)"/>
       <path id="Arial-BoldMT-20" transform="scale(0.015625)"/>
       <path id="Arial-BoldMT-53" d="M 231 1491 
L 1131 1578 
Q 1213 1125 1461 912 
Q 1709 700 2131 700 
Q 2578 700 2804 889 
Q 3031 1078 3031 1331 
Q 3031 1494 2936 1608 
Q 2841 1722 2603 1806 
Q 2441 1863 1863 2006 
Q 1119 2191 819 2459 
Q 397 2838 397 3381 
Q 397 3731 595 4036 
Q 794 4341 1167 4500 
Q 1541 4659 2069 4659 
Q 2931 4659 3367 4281 
Q 3803 3903 3825 3272 
L 2900 3231 
Q 2841 3584 2645 3739 
Q 2450 3894 2059 3894 
Q 1656 3894 1428 3728 
Q 1281 3622 1281 3444 
Q 1281 3281 1419 3166 
Q 1594 3019 2269 2859 
Q 2944 2700 3267 2529 
Q 3591 2359 3773 2064 
Q 3956 1769 3956 1334 
Q 3956 941 3737 597 
Q 3519 253 3119 86 
Q 2719 -81 2122 -81 
Q 1253 -81 787 320 
Q 322 722 231 1491 
z
" transform="scale(0.015625)"/>
       <path id="Arial-BoldMT-66" d="M 75 3319 
L 563 3319 
L 563 3569 
Q 563 3988 652 4194 
Q 741 4400 980 4529 
Q 1219 4659 1584 4659 
Q 1959 4659 2319 4547 
L 2200 3934 
Q 1991 3984 1797 3984 
Q 1606 3984 1523 3895 
Q 1441 3806 1441 3553 
L 1441 3319 
L 2097 3319 
L 2097 2628 
L 1441 2628 
L 1441 0 
L 563 0 
L 563 2628 
L 75 2628 
L 75 3319 
z
" transform="scale(0.015625)"/>
       <path id="Arial-BoldMT-74" d="M 1981 3319 
L 1981 2619 
L 1381 2619 
L 1381 1281 
Q 1381 875 1398 808 
Q 1416 741 1477 697 
Q 1538 653 1625 653 
Q 1747 653 1978 738 
L 2053 56 
Q 1747 -75 1359 -75 
Q 1122 -75 931 4 
Q 741 84 652 211 
Q 563 338 528 553 
Q 500 706 500 1172 
L 500 2619 
L 97 2619 
L 97 3319 
L 500 3319 
L 500 3978 
L 1381 4491 
L 1381 3319 
L 1981 3319 
z
" transform="scale(0.015625)"/>
       <path id="Arial-BoldMT-2f" d="M -9 -78 
L 1125 4659 
L 1784 4659 
L 638 -78 
L -9 -78 
z
" transform="scale(0.015625)"/>
       <path id="Arial-BoldMT-70" d="M 434 3319 
L 1253 3319 
L 1253 2831 
Q 1413 3081 1684 3237 
Q 1956 3394 2288 3394 
Q 2866 3394 3269 2941 
Q 3672 2488 3672 1678 
Q 3672 847 3265 386 
Q 2859 -75 2281 -75 
Q 2006 -75 1782 34 
Q 1559 144 1313 409 
L 1313 -1263 
L 434 -1263 
L 434 3319 
z
M 1303 1716 
Q 1303 1156 1525 889 
Q 1747 622 2066 622 
Q 2372 622 2575 867 
Q 2778 1113 2778 1672 
Q 2778 2194 2568 2447 
Q 2359 2700 2050 2700 
Q 1728 2700 1515 2451 
Q 1303 2203 1303 1716 
z
" transform="scale(0.015625)"/>
      </defs>
      <use xlink:href="#Arial-BoldMT-43"/>
      <use xlink:href="#Arial-BoldMT-68" x="72.216797"/>
      <use xlink:href="#Arial-BoldMT-65" x="133.300781"/>
      <use xlink:href="#Arial-BoldMT-6d" x="188.916016"/>
      <use xlink:href="#Arial-BoldMT-69" x="277.832031"/>
      <use xlink:href="#Arial-BoldMT-63" x="305.615234"/>
      <use xlink:href="#Arial-BoldMT-61" x="361.230469"/>
      <use xlink:href="#Arial-BoldMT-6c" x="416.845703"/>
      <use xlink:href="#Arial-BoldMT-20" x="444.628906"/>
      <use xlink:href="#Arial-BoldMT-53" x="472.412109"/>
      <use xlink:href="#Arial-BoldMT-68" x="539.111328"/>
      <use xlink:href="#Arial-BoldMT-69" x="600.195312"/>
      <use xlink:href="#Arial-BoldMT-66" x="627.978516"/>
      <use xlink:href="#Arial-BoldMT-74" x="661.279297"/>
      <use xlink:href="#Arial-BoldMT-20" x="694.580078"/>
      <use xlink:href="#Arial-BoldMT-2f" x="722.363281"/>
      <use xlink:href="#Arial-BoldMT-20" x="750.146484"/>
      <use xlink:href="#Arial-BoldMT-70" x="777.929688"/>
      <use xlink:href="#Arial-BoldMT-70" x="839.013672"/>
      <use xlink:href="#Arial-BoldMT-6d" x="900.097656"/>
     </g>
    </g>
   </g>
   <g id="matplotlib.axis_2"/>
   <g id="line2d_12">
    <path d="M 3.075344 196.629786 
L 3.484583 196.847897 
L 3.689203 196.784772 
L 4.098442 196.243792 
L 4.507682 195.802818 
L 4.916921 195.990837 
L 5.326161 196.189264 
L 5.53078 196.111432 
L 5.94002 195.602128 
L 6.758499 194.226714 
L 6.963119 194.173091 
L 7.372358 194.436228 
L 7.781597 194.725384 
L 8.190837 194.780138 
L 8.600076 194.552297 
L 9.009316 194.113359 
L 9.213936 194.041183 
L 9.418555 194.164493 
L 10.032414 195.158665 
L 10.441654 195.692857 
L 10.646274 195.765712 
L 11.055513 195.525653 
L 11.464753 195.327679 
L 11.669372 195.463885 
L 12.487851 196.796537 
L 12.692471 196.84835 
L 12.897091 196.752869 
L 13.30633 196.206912 
L 13.71557 195.599639 
L 14.124809 195.351662 
L 14.534048 195.488547 
L 15.352527 196.191527 
L 15.557147 196.151027 
L 15.966387 195.637424 
L 16.375626 195.143506 
L 16.989485 194.753439 
L 17.398725 194.716786 
L 17.807964 194.974266 
L 18.217204 195.261838 
L 18.831063 195.577692 
L 19.649542 196.352848 
L 20.058781 195.996267 
L 20.87726 195.055492 
L 21.900359 194.35749 
L 22.104978 194.468808 
L 24.151176 196.854006 
L 24.355795 196.823914 
L 24.969655 196.291985 
L 25.378894 196.469822 
L 25.788133 196.64223 
L 26.811232 196.848124 
L 27.629711 197.666946 
L 28.03895 197.590245 
L 28.44819 197.490014 
L 28.857429 197.770798 
L 29.266669 198.157923 
L 29.675908 198.25544 
L 30.289767 198.195708 
L 30.903627 197.664231 
L 31.312866 197.208777 
L 31.722105 196.384071 
L 32.335965 194.99938 
L 33.359063 193.454726 
L 33.563683 193.487986 
L 33.972922 193.948644 
L 34.791401 194.922227 
L 35.405261 195.636067 
L 36.01912 196.32004 
L 37.246838 197.11307 
L 37.451458 197.096101 
L 37.656078 196.882741 
L 38.474556 195.303469 
L 38.679176 195.301207 
L 38.883796 195.582218 
L 39.702275 197.50472 
L 40.111514 197.69274 
L 40.929993 197.575086 
L 41.339233 197.099268 
L 42.157712 195.639008 
L 42.566951 195.552578 
L 42.97619 195.503706 
L 43.999289 195.005942 
L 44.613148 194.167435 
L 45.022388 193.689581 
L 45.227007 193.579394 
L 45.431627 193.596363 
L 45.636247 193.776463 
L 46.045486 194.606599 
L 46.454726 195.487868 
L 46.863965 195.879519 
L 47.273205 195.946264 
L 47.887064 195.834494 
L 48.296303 195.951016 
L 48.705543 195.709826 
L 49.524022 194.924942 
L 50.54712 194.16834 
L 51.365599 194.060415 
L 51.979458 194.33939 
L 53.207177 194.840774 
L 53.821036 195.276092 
L 54.230275 195.544433 
L 54.639515 195.923639 
L 55.048754 196.000566 
L 56.071853 195.905991 
L 56.685712 195.320439 
L 57.708811 194.466546 
L 57.913431 194.481931 
L 58.32267 194.995308 
L 58.731909 195.692178 
L 58.936529 195.877935 
L 59.141149 195.897393 
L 59.550388 195.527916 
L 59.959628 194.644384 
L 60.573487 193.260145 
L 61.187346 192.429783 
L 61.596586 192.215066 
L 62.210445 192.241764 
L 63.028924 191.746488 
L 63.438163 191.411855 
L 64.665882 189.728731 
L 65.075121 188.863526 
L 65.48436 187.203481 
L 65.8936 184.297893 
L 67.121318 174.063173 
L 67.530558 173.021035 
L 67.735177 173.088912 
L 67.939797 173.610433 
L 68.349037 176.254242 
L 69.372135 184.869643 
L 70.599854 192.61735 
L 71.009093 194.131686 
L 71.418332 194.845073 
L 71.827572 195.117939 
L 72.032192 195.052551 
L 72.646051 194.478538 
L 72.850671 194.464057 
L 73.25991 194.819959 
L 73.873769 195.613215 
L 74.078389 195.675888 
L 74.283009 195.561402 
L 74.896868 194.856386 
L 75.101488 194.795523 
L 76.124586 194.983316 
L 76.943065 194.543926 
L 77.147685 194.580579 
L 77.556924 195.028115 
L 78.375403 196.282934 
L 78.784643 196.391764 
L 79.807741 196.351264 
L 80.83084 196.500367 
L 81.240079 196.102382 
L 81.853939 195.393519 
L 82.263178 195.396235 
L 82.877037 195.82567 
L 83.695516 196.728886 
L 84.104756 196.58544 
L 84.718615 196.327054 
L 85.332474 196.311443 
L 85.946333 196.413484 
L 87.787911 195.755983 
L 88.19715 196.407602 
L 88.60639 197.183436 
L 89.015629 197.498385 
L 89.424868 197.412408 
L 91.471066 195.400533 
L 91.880305 194.924942 
L 92.289545 194.812492 
L 94.744981 195.551673 
L 95.154221 195.89513 
L 95.56346 195.796256 
L 96.791179 194.840774 
L 97.405038 194.33939 
L 97.814277 194.213365 
L 98.837376 194.237122 
L 99.041996 194.313596 
L 99.860475 195.21093 
L 100.269714 194.949378 
L 100.678953 194.700043 
L 100.883573 194.800953 
L 101.292813 195.470447 
L 101.906672 196.4343 
L 102.315911 196.737937 
L 102.725151 196.710786 
L 103.952869 196.226144 
L 104.566728 195.582218 
L 104.975968 194.544378 
L 105.385207 193.485723 
L 105.589827 193.268064 
L 105.794447 193.336394 
L 106.203686 194.023762 
L 106.612925 194.748688 
L 107.022165 194.980149 
L 107.226785 195.046668 
L 107.636024 195.569321 
L 108.249883 196.641777 
L 108.454503 196.830476 
L 108.659123 196.85559 
L 109.068362 196.527065 
L 109.682221 195.40257 
L 110.296081 194.400931 
L 110.70532 194.033717 
L 110.90994 194.079873 
L 111.523799 194.493244 
L 111.933038 194.258164 
L 112.546898 193.902488 
L 113.160757 193.675779 
L 113.569996 193.424634 
L 113.774616 193.485271 
L 114.183855 194.016521 
L 114.797715 194.87064 
L 116.025433 195.655072 
L 116.639292 195.364106 
L 117.253151 195.568868 
L 117.662391 195.911873 
L 118.685489 196.930028 
L 119.708588 197.473949 
L 120.117827 197.2805 
L 121.345546 195.851463 
L 121.754785 195.875446 
L 122.164025 195.888117 
L 122.573264 195.756435 
L 122.777884 195.852142 
L 123.187123 196.578878 
L 123.596363 197.463994 
L 124.005602 197.923974 
L 124.414842 198.157018 
L 124.824081 198.087105 
L 125.233321 197.709935 
L 126.0518 196.851517 
L 126.256419 196.794048 
L 126.665659 197.053338 
L 127.279518 197.576217 
L 127.484138 197.511961 
L 128.097997 196.970076 
L 128.302617 197.041347 
L 128.916476 197.475533 
L 129.325715 197.332087 
L 130.144194 196.605576 
L 130.758053 196.650375 
L 131.167293 196.087449 
L 131.781152 194.982864 
L 131.985772 194.879917 
L 132.190391 194.964311 
L 133.21349 196.046044 
L 133.622729 195.985407 
L 133.827349 195.833136 
L 134.236589 195.036713 
L 134.645828 194.020594 
L 134.850448 193.750444 
L 135.259687 193.686413 
L 136.078166 193.761304 
L 136.487406 194.195038 
L 137.101265 194.908651 
L 137.305885 194.8858 
L 137.715124 194.460211 
L 138.942842 192.616671 
L 139.352082 192.865328 
L 139.965941 193.342277 
L 140.5798 193.870133 
L 140.98904 194.568135 
L 141.398279 195.399855 
L 141.602899 195.572262 
L 141.807519 195.516377 
L 142.421378 194.980149 
L 142.625997 194.992593 
L 143.649096 195.67996 
L 144.058336 195.468637 
L 144.672195 194.898922 
L 145.081434 194.900506 
L 145.490674 195.25867 
L 146.718392 197.315344 
L 147.127631 197.586852 
L 147.332251 197.555628 
L 147.741491 197.001073 
L 148.35535 196.020929 
L 149.378448 195.005942 
L 149.583068 195.068615 
L 149.992308 195.70236 
L 150.606167 197.009218 
L 150.810786 197.151081 
L 151.015406 197.10764 
L 151.424646 196.704677 
L 151.833885 195.99672 
L 152.447744 194.581484 
L 152.856984 194.249113 
L 153.266223 194.303867 
L 153.675463 194.481253 
L 154.084702 194.95164 
L 154.698561 196.037898 
L 154.903181 196.206912 
L 155.107801 196.171842 
L 155.31242 195.881329 
L 156.949378 191.811198 
L 157.358618 191.286509 
L 157.767857 191.091475 
L 158.381716 191.115006 
L 158.790956 191.514349 
L 159.200195 192.441549 
L 159.814054 194.026703 
L 160.223294 194.534197 
L 161.655632 195.149389 
L 162.064871 195.072688 
L 162.474111 195.479723 
L 162.88335 195.958482 
L 163.08797 195.970021 
L 163.29259 195.769106 
L 164.111069 194.412018 
L 164.724928 194.103404 
L 165.543407 193.954753 
L 165.952646 193.617857 
L 166.361886 193.067375 
L 166.771125 192.916009 
L 167.180365 193.043392 
L 167.589604 193.661298 
L 168.203463 194.823805 
L 168.408083 194.961143 
L 168.612703 194.884216 
L 169.021942 194.230108 
L 169.431182 193.64184 
L 169.635801 193.604734 
L 170.045041 193.80565 
L 170.86352 194.523336 
L 171.886618 195.731321 
L 172.295858 195.711636 
L 173.318956 195.144863 
L 173.728196 194.818828 
L 174.751295 194.724705 
L 176.388252 195.136266 
L 177.002112 195.502349 
L 177.206731 195.452572 
L 178.22983 194.36292 
L 178.639069 194.400026 
L 179.048309 194.92992 
L 179.457548 195.596245 
L 180.276027 196.234063 
L 180.889886 197.021662 
L 181.299126 197.128456 
L 181.708365 196.949034 
L 182.322224 196.55761 
L 182.731464 196.611233 
L 183.345323 196.878216 
L 184.163802 196.835679 
L 184.368422 196.76011 
L 184.777661 196.144465 
L 185.186901 195.451441 
L 185.59614 195.252788 
L 186.414619 195.086489 
L 186.823858 195.405285 
L 188.051577 196.977542 
L 188.256196 196.975959 
L 188.665436 196.30918 
L 189.074675 195.623849 
L 189.483915 195.399402 
L 190.916253 195.51072 
L 191.325492 195.411167 
L 192.348591 194.615649 
L 193.16707 194.72018 
L 193.576309 194.249792 
L 194.394788 193.285486 
L 194.599408 193.262182 
L 194.804028 193.415584 
L 195.213267 194.09639 
L 195.622507 194.832403 
L 196.031746 195.12993 
L 197.464084 195.505743 
L 197.668704 195.299849 
L 198.282563 194.241873 
L 199.510281 193.367844 
L 199.919521 193.407212 
L 200.738 193.829633 
L 202.579577 195.612762 
L 203.398056 195.103006 
L 204.216535 194.395049 
L 204.625775 194.384415 
L 205.444254 194.660448 
L 205.853493 194.115848 
L 206.467352 193.057646 
L 206.876592 192.734099 
L 207.081211 192.765096 
L 207.490451 193.354947 
L 207.89969 193.760851 
L 208.30893 193.668991 
L 208.718169 193.395899 
L 209.332028 192.825054 
L 209.741268 192.931847 
L 210.150507 193.143171 
L 211.582845 193.348838 
L 212.810564 194.228071 
L 213.629043 193.773069 
L 214.242902 193.702025 
L 214.652141 193.561293 
L 215.47062 193.470112 
L 215.87986 193.394542 
L 216.493719 193.554732 
L 216.902958 193.362413 
L 217.721437 192.882297 
L 218.130677 192.706948 
L 218.539916 191.838349 
L 219.358395 189.371698 
L 219.767634 188.864205 
L 220.790733 188.144482 
L 221.199973 187.283123 
L 221.813832 185.275095 
L 222.427691 182.49146 
L 224.473888 171.777075 
L 224.883128 170.762088 
L 225.087747 170.56434 
L 225.292367 170.537189 
L 225.496987 170.722267 
L 225.906226 171.882737 
L 226.724705 176.051969 
L 227.952423 181.518782 
L 228.566283 182.881752 
L 228.975522 183.482916 
L 229.384762 183.623648 
L 230.40786 183.151677 
L 231.226339 181.943013 
L 231.635579 181.048847 
L 232.454057 178.409789 
L 232.863297 176.169622 
L 233.681776 170.244413 
L 234.909494 160.376455 
L 235.114114 159.835701 
L 235.318734 160.088656 
L 235.727973 162.527703 
L 236.546452 169.069688 
L 236.955691 171.076132 
L 237.364931 172.227326 
L 237.77417 172.583454 
L 238.18341 172.562412 
L 238.592649 171.932287 
L 239.411128 169.561344 
L 241.048086 164.843893 
L 241.457325 162.936096 
L 241.866565 159.992271 
L 242.275804 155.651763 
L 242.889664 146.247405 
L 243.503523 132.98605 
L 244.526621 103.650063 
L 246.163579 54.117503 
L 246.982058 21.337211 
L 247.186678 16.458439 
L 247.391298 14.925324 
L 247.595917 17.480214 
L 248.005157 34.349911 
L 249.437495 117.046042 
L 250.051354 137.603496 
L 250.665213 150.785887 
L 251.279072 159.012353 
L 251.688312 162.372944 
L 252.097551 164.41853 
L 252.506791 165.374917 
L 252.71141 165.535107 
L 252.91603 165.546193 
L 253.32527 165.243236 
L 253.734509 164.479393 
L 254.143749 162.858038 
L 254.552988 159.890455 
L 255.166847 153.210906 
L 255.985326 144.575821 
L 256.189946 143.690252 
L 256.394566 143.816051 
L 256.599185 144.999826 
L 257.008425 149.821581 
L 258.645383 173.373769 
L 259.259242 178.65573 
L 259.873101 181.762687 
L 260.28234 182.922479 
L 261.305439 184.685244 
L 262.123918 185.845941 
L 263.147016 188.423909 
L 263.351636 188.462825 
L 263.760876 188.20987 
L 264.170115 187.971848 
L 264.579355 188.111449 
L 264.988594 188.273449 
L 266.011693 188.183172 
L 266.420932 188.442689 
L 267.239411 189.180512 
L 267.64865 189.190467 
L 268.26251 188.966473 
L 268.671749 188.581836 
L 269.490228 187.577709 
L 270.104087 187.191263 
L 270.513327 187.376341 
L 270.922566 187.613684 
L 271.536425 187.818446 
L 272.150284 188.319831 
L 272.354904 188.110996 
L 272.764144 186.938534 
L 273.787242 183.543101 
L 275.21958 178.816599 
L 276.038059 175.329079 
L 277.675017 167.820525 
L 278.288876 164.913127 
L 278.902735 160.414692 
L 280.539693 146.362343 
L 280.948933 144.307254 
L 281.153552 143.799308 
L 281.358172 143.629163 
L 281.972031 143.722607 
L 282.176651 143.403811 
L 282.585891 142.162567 
L 283.19975 139.262409 
L 284.018229 134.602653 
L 284.222848 134.003752 
L 284.427468 133.803967 
L 284.632088 133.947188 
L 285.041327 134.587494 
L 285.245947 134.686368 
L 285.450567 134.47052 
L 285.859806 133.087413 
L 286.473665 129.468211 
L 287.087525 126.087484 
L 287.496764 124.964346 
L 287.701384 124.808455 
L 288.315243 125.084488 
L 288.519863 124.898505 
L 288.724482 124.399157 
L 289.133722 122.494302 
L 289.542961 119.379653 
L 290.36144 112.699877 
L 290.77068 111.424468 
L 290.975299 111.372429 
L 291.179919 111.65887 
L 291.589159 113.115058 
L 292.612257 119.181452 
L 293.226116 124.237609 
L 294.249215 133.831344 
L 295.067694 138.584092 
L 296.090793 144.223992 
L 296.704652 145.974087 
L 297.113891 146.532941 
L 297.318511 146.552851 
L 297.93237 146.08812 
L 298.13699 146.131788 
L 298.546229 146.528642 
L 298.955469 147.118493 
L 300.183187 149.70076 
L 301.206286 152.148858 
L 301.410905 152.257461 
L 301.615525 152.056545 
L 302.024765 151.009655 
L 303.047863 147.665129 
L 303.252483 147.339546 
L 303.457103 147.253568 
L 303.661722 147.469643 
L 304.070962 148.883069 
L 305.70792 156.955907 
L 305.912539 157.290314 
L 306.117159 157.31656 
L 306.321779 157.028309 
L 306.526399 156.40746 
L 306.935638 154.028598 
L 307.344877 150.066617 
L 307.958737 140.975625 
L 308.777216 124.081719 
L 309.595694 108.000074 
L 310.004934 103.408195 
L 310.209554 102.414023 
L 310.414173 102.466741 
L 310.618793 103.638751 
L 311.028033 108.996282 
L 312.66499 137.303479 
L 313.07423 139.910182 
L 313.27885 140.445958 
L 313.483469 140.573114 
L 313.688089 140.401385 
L 314.097328 139.479616 
L 314.506568 137.604853 
L 315.120427 132.885365 
L 315.529667 129.85511 
L 315.938906 128.107956 
L 316.552765 125.946074 
L 317.371244 121.799015 
L 317.780484 118.516031 
L 318.189723 113.487703 
L 319.826681 87.83246 
L 320.23592 85.111724 
L 320.44054 84.578437 
L 320.64516 84.529565 
L 320.849779 84.858995 
L 321.259019 86.279208 
L 321.872878 89.75089 
L 322.691357 94.480107 
L 322.895977 95.027196 
L 323.100596 95.186028 
L 323.305216 94.990768 
L 323.509836 94.479655 
L 323.919075 92.394473 
L 324.328315 88.262348 
L 324.737554 81.548181 
L 325.351413 67.418 
L 326.783752 31.938241 
L 327.397611 22.097434 
L 327.80685 19.350451 
L 328.01147 19.600918 
L 328.21609 21.081994 
L 328.625329 26.828913 
L 329.239188 36.270377 
L 329.648428 39.947048 
L 329.853047 40.828091 
L 330.057667 41.104803 
L 330.262287 40.936921 
L 330.671526 40.463365 
L 330.876146 40.814742 
L 331.080766 41.813213 
L 331.490005 45.433319 
L 332.103864 51.122091 
L 332.513104 53.017669 
L 332.717724 53.069482 
L 332.922343 52.333242 
L 333.126963 50.643784 
L 333.536203 44.139131 
L 334.150062 28.559324 
L 334.968541 7.362016 
L 335.37778 3.077394 
L 335.5824 3.00024 
L 335.78702 3.840783 
L 338.037836 19.174424 
L 338.651696 28.48398 
L 340.902513 69.297741 
L 341.311752 72.947713 
L 341.720992 74.603912 
L 341.925611 74.785144 
L 342.53947 74.515446 
L 342.74409 75.030179 
L 343.15333 77.925586 
L 344.176428 88.210535 
L 344.994907 93.311265 
L 345.608766 96.0992 
L 345.813386 96.360074 
L 346.018006 96.05508 
L 346.222626 95.095073 
L 346.631865 90.95978 
L 347.041104 83.926365 
L 347.859583 64.376206 
L 348.678062 46.024528 
L 349.087302 39.574856 
L 349.291921 37.721587 
L 349.496541 36.91996 
L 349.701161 37.056619 
L 349.905781 37.951464 
L 350.31502 41.597364 
L 350.928879 50.596723 
L 352.975077 84.98683 
L 353.793555 92.50466 
L 354.202795 94.727406 
L 354.612034 95.726329 
L 354.816654 95.776784 
L 355.839753 95.068601 
L 356.453612 95.095525 
L 356.862851 94.793473 
L 357.272091 93.875776 
L 357.68133 91.612983 
L 358.09057 87.332433 
L 358.909049 74.801208 
L 359.522908 67.265277 
L 359.727528 66.05684 
L 359.932147 65.528305 
L 360.136767 65.592562 
L 360.546006 66.887428 
L 361.364485 70.667046 
L 361.978345 74.594635 
L 362.387584 78.247549 
L 362.796823 83.855094 
L 363.615302 100.109825 
L 364.843021 124.667045 
L 366.070739 143.163753 
L 366.889218 152.671058 
L 367.298457 155.711721 
L 367.707697 157.593498 
L 368.116936 158.708943 
L 368.526176 159.381604 
L 369.140035 160.163095 
L 369.549274 161.257046 
L 369.958514 163.058049 
L 370.572373 167.022292 
L 371.390852 172.437066 
L 372.004711 175.183596 
L 372.413951 176.418052 
L 373.437049 178.760487 
L 373.846289 179.623204 
L 374.255528 180.078885 
L 375.483247 181.121023 
L 375.892486 181.4319 
L 376.097106 181.34547 
L 376.710965 180.782769 
L 377.529444 180.41646 
L 378.143303 179.727734 
L 378.552542 178.961403 
L 379.575641 176.775538 
L 379.98488 176.660373 
L 380.39412 176.631638 
L 380.803359 176.137268 
L 381.212599 175.735888 
L 381.417219 175.900829 
L 381.826458 176.866945 
L 382.440317 178.571563 
L 382.644937 178.710485 
L 382.849557 178.477893 
L 383.258796 177.191171 
L 384.486514 172.66468 
L 384.895754 171.639738 
L 385.304993 171.32773 
L 385.918853 171.34764 
L 386.328092 171.091744 
L 386.737331 170.470217 
L 387.146571 168.9638 
L 387.96505 165.097526 
L 388.16967 164.747281 
L 388.374289 164.796152 
L 388.783529 165.789193 
L 389.192768 167.557389 
L 390.011247 171.687704 
L 390.215867 172.061706 
L 390.420487 172.147231 
L 390.625106 172.034103 
L 391.034346 171.422757 
L 391.852825 169.905933 
L 392.057444 169.897561 
L 393.080543 170.844445 
L 393.489782 170.842635 
L 393.899022 170.4942 
L 394.308261 169.840318 
L 394.717501 168.666499 
L 395.740599 164.185486 
L 396.354459 161.908439 
L 396.559078 161.574936 
L 396.763698 161.474478 
L 396.968318 161.600956 
L 397.172938 161.999168 
L 398.196036 165.10635 
L 398.400656 165.041867 
L 398.605276 164.603155 
L 399.014515 162.484714 
L 399.628374 158.616857 
L 399.832994 157.981528 
L 400.037614 157.966369 
L 400.242233 158.686996 
L 400.651473 162.146234 
L 402.083811 177.803195 
L 402.49305 180.272787 
L 402.90229 181.684855 
L 403.925389 184.255809 
L 405.153107 187.96755 
L 405.562346 188.662158 
L 406.380825 189.28459 
L 407.608544 191.438327 
L 408.427023 191.994239 
L 409.040882 192.207373 
L 409.654741 193.099503 
L 410.2686 193.789133 
L 410.47322 193.861536 
L 410.67784 193.78212 
L 411.087079 193.128012 
L 412.314797 190.148664 
L 413.747135 188.699716 
L 414.360995 188.714197 
L 414.974854 188.442915 
L 415.179473 188.476175 
L 415.588713 188.880721 
L 415.997952 189.264453 
L 416.202572 189.173724 
L 417.225671 187.94153 
L 417.63491 187.240361 
L 417.83953 187.084696 
L 418.248769 187.190584 
L 419.271868 187.714595 
L 419.681107 187.270679 
L 420.090347 186.389409 
L 421.318065 182.869082 
L 422.545784 181.621955 
L 422.955023 180.673487 
L 423.364263 178.944208 
L 425.20584 169.561118 
L 425.41046 169.42559 
L 425.61508 169.639402 
L 426.638178 171.732729 
L 426.842798 171.793592 
L 427.047418 171.690193 
L 427.456657 170.87861 
L 427.865897 169.348436 
L 428.479756 165.86793 
L 428.888995 163.486579 
L 429.093615 162.834733 
L 429.298235 162.810524 
L 429.502854 163.453093 
L 429.912094 166.342617 
L 431.139812 177.089129 
L 431.549052 178.761166 
L 433.186009 183.180637 
L 433.595249 183.650572 
L 434.413728 183.819586 
L 435.232207 184.535462 
L 435.641446 184.349706 
L 436.459925 183.600796 
L 436.869165 183.349877 
L 437.483024 183.510293 
L 437.892263 183.734061 
L 438.710742 184.696105 
L 438.915362 184.729364 
L 439.119982 184.575962 
L 439.529221 183.682701 
L 440.3477 181.523081 
L 440.55232 181.366511 
L 440.756939 181.49231 
L 440.961559 181.940298 
L 441.370799 183.749447 
L 442.803137 191.711645 
L 443.212376 192.608074 
L 443.621616 193.018277 
L 444.235475 193.400425 
L 444.644714 194.038921 
L 445.258573 195.053003 
L 445.872433 195.320891 
L 446.690911 195.789695 
L 447.50939 196.711012 
L 447.91863 196.90695 
L 448.327869 196.867582 
L 448.737109 196.532722 
L 450.169447 194.422426 
L 450.578686 194.3412 
L 451.192545 194.439621 
L 452.215644 194.917702 
L 452.624884 195.465922 
L 453.034123 196.060072 
L 453.443362 196.229764 
L 454.671081 195.871374 
L 455.898799 196.168901 
L 456.308039 196.660104 
L 457.126517 197.940038 
L 457.740377 198.246616 
L 458.149616 198.399565 
L 458.354236 198.310194 
L 459.377334 197.207193 
L 459.786574 197.446346 
L 460.400433 197.906778 
L 460.809673 197.930083 
L 461.628151 197.732335 
L 462.037391 198.026468 
L 462.85587 199.257078 
L 463.06049 199.198478 
L 463.469729 198.382596 
L 464.083588 196.930255 
L 464.288208 196.688386 
L 464.492828 196.621188 
L 466.539025 197.044288 
L 467.152884 196.85559 
L 468.175983 197.325978 
L 468.585222 197.385031 
L 469.403701 197.888225 
L 469.812941 197.886189 
L 470.836039 197.643642 
L 471.245279 197.769667 
L 472.063758 197.716723 
L 473.086856 197.977144 
L 473.905335 197.83596 
L 474.314575 197.737538 
L 474.723814 197.370324 
L 475.337673 196.740199 
L 475.951532 196.294247 
L 476.770011 195.371346 
L 477.58849 195.229031 
L 477.79311 195.233782 
L 477.99773 195.352341 
L 478.406969 195.988801 
L 479.020828 196.987498 
L 479.839307 197.634818 
L 480.043927 197.664231 
L 480.453166 197.369871 
L 481.476265 196.059619 
L 481.680885 196.085412 
L 482.703983 196.878216 
L 483.113223 196.7764 
L 483.522462 196.262798 
L 483.931702 195.7096 
L 484.545561 195.389447 
L 486.182519 194.483515 
L 486.591758 194.784889 
L 487.410237 195.790147 
L 487.614857 195.856214 
L 488.024096 195.640139 
L 488.433336 195.472936 
L 488.842575 195.434246 
L 489.661054 195.012503 
L 489.865674 195.193509 
L 490.684153 196.60354 
L 490.888772 196.682051 
L 491.093392 196.577068 
L 491.502632 195.936762 
L 492.32111 194.156122 
L 492.93497 192.814872 
L 493.139589 192.667353 
L 493.548829 192.804464 
L 493.958068 193.012394 
L 494.776547 192.89361 
L 495.799646 193.419204 
L 496.208885 192.930942 
L 496.822744 192.121396 
L 497.845843 191.396469 
L 498.255083 190.580588 
L 499.073561 188.669398 
L 500.09666 187.362766 
L 500.710519 185.370123 
L 501.938238 181.214014 
L 502.756717 176.727571 
L 503.575195 171.13247 
L 504.598294 161.783545 
L 505.212153 153.898953 
L 506.030632 139.780537 
L 507.053731 117.725717 
L 508.076829 96.331113 
L 508.281449 94.435761 
L 508.486069 94.015376 
L 508.690689 95.013847 
L 509.099928 99.999865 
L 510.327646 121.139477 
L 511.350745 138.512821 
L 512.169224 149.1048 
L 512.578463 152.843013 
L 512.987703 155.157619 
L 513.601562 157.266783 
L 514.010802 158.094883 
L 514.215421 158.266385 
L 514.420041 158.290142 
L 514.624661 158.160044 
L 514.82928 157.826995 
L 515.23852 156.409949 
L 515.852379 152.633047 
L 516.466238 146.974141 
L 517.489337 133.746498 
L 519.330914 110.862673 
L 519.535534 109.95561 
L 519.740154 109.778225 
L 519.944774 110.433238 
L 520.149393 111.993957 
L 520.558633 117.8083 
L 521.581731 139.810855 
L 522.60483 159.887967 
L 523.423309 171.111202 
L 524.037168 176.516021 
L 524.651027 179.285629 
L 525.469506 182.187823 
L 526.697225 187.658709 
L 527.311084 189.761312 
L 528.334182 192.03044 
L 529.357281 193.683698 
L 529.766521 193.954301 
L 530.17576 193.999778 
L 530.789619 193.96946 
L 531.608098 194.096616 
L 532.017337 194.676738 
L 533.245056 197.20855 
L 533.858915 197.73324 
L 534.677394 198.181002 
L 535.905112 198.436898 
L 536.314352 197.998186 
L 537.33745 196.48566 
L 537.74669 196.317325 
L 538.155929 196.72142 
L 539.383648 198.572878 
L 539.792887 199.16024 
L 539.997507 199.103676 
L 540.406746 198.514051 
L 541.225225 197.215791 
L 541.634465 196.764409 
L 541.839084 196.69721 
L 542.248324 196.948355 
L 542.862183 197.609251 
L 543.680662 198.109957 
L 544.294521 198.646638 
L 544.499141 198.505227 
L 545.522239 196.650601 
L 545.931479 196.059619 
L 546.340718 195.361617 
L 546.545338 195.27021 
L 546.749958 195.401891 
L 547.159197 196.087222 
L 547.773056 197.106056 
L 548.796155 197.79184 
L 549.614634 198.834657 
L 550.023873 198.986928 
L 551.251592 198.383501 
L 551.865451 198.305895 
L 552.88855 197.651561 
L 553.297789 197.827362 
L 553.707029 197.673055 
L 554.116268 197.373492 
L 554.320888 197.366704 
L 554.730127 197.826231 
L 555.548606 199.192143 
L 555.753226 199.188522 
L 556.162465 198.581023 
L 556.776324 197.623505 
L 557.185564 197.487072 
L 558.208663 197.415349 
L 558.822522 197.501553 
L 559.231761 197.683463 
L 559.84562 198.291189 
L 560.25486 198.607722 
L 560.664099 198.857283 
L 561.277958 199.329254 
L 561.482578 199.328802 
L 561.891818 198.972447 
L 562.301057 198.606817 
L 562.710297 198.606138 
L 563.119536 199.02607 
L 563.528775 199.481525 
L 564.551874 200.025446 
L 565.779592 200.198306 
L 566.188832 200.318448 
L 567.007311 199.94241 
L 568.030409 198.949595 
L 568.439649 199.058651 
L 568.644269 198.985118 
L 569.258128 198.254535 
L 569.871987 197.578933 
L 570.281226 197.449287 
L 571.918184 197.73505 
L 572.327424 197.518975 
L 572.532043 197.555628 
L 572.941283 198.023074 
L 573.555142 198.983986 
L 573.964381 199.296899 
L 575.1921 199.745114 
L 576.010579 200.698107 
L 576.215198 200.668241 
L 576.624438 200.224778 
L 577.238297 199.295542 
L 578.056776 198.750263 
L 578.466015 198.686006 
L 579.693734 198.861808 
L 580.307593 199.480846 
L 580.716832 199.420436 
L 581.535311 198.973805 
L 581.944551 199.07019 
L 582.76303 200.023183 
L 583.581509 201.423486 
L 583.786128 201.497019 
L 584.195368 201.197908 
L 585.832326 199.030822 
L 586.855424 197.786862 
L 587.469283 197.150176 
L 587.673903 197.14452 
L 587.878523 197.31738 
L 588.901622 198.887601 
L 589.310861 198.92154 
L 590.33396 198.299786 
L 591.357058 198.344133 
L 591.970917 198.668132 
L 592.584777 198.504096 
L 592.994016 198.912263 
L 594.221734 200.470266 
L 594.426354 200.482484 
L 594.835594 200.071376 
L 595.244833 199.656874 
L 596.063312 199.295768 
L 596.881791 198.577403 
L 597.29103 198.35273 
L 597.70027 198.418571 
L 598.109509 198.744607 
L 599.337228 200.130429 
L 599.746467 200.013002 
L 600.155707 199.582662 
L 600.564946 199.148023 
L 600.769566 199.130827 
L 601.588045 199.529717 
L 602.201904 199.132637 
L 602.815763 198.594825 
L 603.225002 198.626048 
L 603.838862 198.830811 
L 604.452721 198.769269 
L 605.2712 199.105939 
L 605.475819 198.810674 
L 605.885059 197.505173 
L 606.498918 195.365916 
L 606.703538 195.088752 
L 606.908158 195.069972 
L 607.317397 195.489452 
L 607.931256 196.270717 
L 609.363594 197.31738 
L 610.182073 197.174159 
L 610.591313 197.576896 
L 611.000552 198.045474 
L 611.409791 198.133035 
L 611.819031 197.894334 
L 612.43289 197.434581 
L 613.455989 196.911475 
L 613.865228 196.454211 
L 614.479087 195.645343 
L 614.888327 195.447369 
L 615.092947 195.590815 
L 615.911425 196.994964 
L 616.116045 197.024151 
L 616.729904 196.59268 
L 617.139144 196.322303 
L 617.343764 196.283387 
L 617.548383 196.372532 
L 617.957623 196.957632 
L 618.571482 197.895466 
L 618.776102 197.969678 
L 619.185341 197.793424 
L 620.00382 196.923241 
L 620.617679 196.079982 
L 621.640778 194.584878 
L 621.845398 194.500484 
L 622.254637 194.707962 
L 623.482355 196.122745 
L 623.686975 196.150574 
L 623.891595 195.963686 
L 624.710074 194.590761 
L 625.119313 194.610219 
L 625.937792 194.991009 
L 626.551651 194.76249 
L 626.960891 194.207256 
L 628.597849 191.331081 
L 628.802468 191.414796 
L 629.211708 192.012566 
L 630.234806 193.836647 
L 630.644046 194.096843 
L 631.053285 193.889365 
L 631.667144 193.283676 
L 631.871764 193.242724 
L 632.076384 193.381419 
L 632.894863 194.410661 
L 633.508722 194.711356 
L 633.917961 194.608861 
L 634.531821 194.037111 
L 635.3503 192.990447 
L 635.759539 192.442454 
L 635.964159 192.318013 
L 636.168778 192.339281 
L 638.010356 193.501335 
L 638.828835 193.517173 
L 639.442694 193.704966 
L 639.851934 193.592969 
L 640.465793 193.034568 
L 641.079652 192.49585 
L 641.488891 192.547889 
L 642.102751 192.962392 
L 642.921229 193.017372 
L 643.330469 193.814474 
L 643.944328 195.14328 
L 644.148948 195.261612 
L 644.353568 195.160249 
L 645.376666 193.902488 
L 645.785906 194.15137 
L 647.013624 195.661407 
L 647.218244 195.490131 
L 648.241342 193.888008 
L 649.059821 194.313823 
L 649.469061 194.001362 
L 650.08292 193.298383 
L 650.901399 193.355399 
L 651.310638 193.119866 
L 651.515258 193.201092 
L 652.129117 193.723972 
L 652.947596 193.897058 
L 653.561455 194.395954 
L 653.970695 194.767241 
L 654.175314 194.831498 
L 654.379934 194.712261 
L 655.403033 193.345218 
L 656.016892 192.397429 
L 657.44923 191.235601 
L 657.65385 191.270671 
L 658.063089 191.814592 
L 659.290808 193.863798 
L 659.495427 193.760173 
L 660.313906 192.363943 
L 660.518526 192.338602 
L 660.927765 192.76306 
L 661.337005 193.199509 
L 661.746244 193.095657 
L 662.155484 193.060587 
L 662.769343 193.353137 
L 662.973963 193.321687 
L 663.178582 193.159687 
L 663.587822 192.342448 
L 664.201681 190.84033 
L 664.61092 190.348901 
L 665.02016 190.357499 
L 665.429399 190.669507 
L 666.247878 191.775675 
L 666.657118 192.316655 
L 666.861737 192.359644 
L 667.270977 192.007362 
L 667.884836 191.064777 
L 668.703315 189.595014 
L 669.112554 189.178701 
L 669.521794 189.129378 
L 669.931033 189.326447 
L 670.340273 189.2235 
L 671.363371 188.486356 
L 671.772611 187.876821 
L 671.977231 187.7741 
L 672.38647 187.955332 
L 673.000329 188.582289 
L 673.614188 189.514014 
L 674.228048 190.634211 
L 674.637287 190.92676 
L 675.046527 190.974953 
L 675.251146 190.919973 
L 675.455766 190.745303 
L 675.865005 189.952273 
L 676.478865 188.584551 
L 676.888104 188.398116 
L 677.092724 188.349018 
L 677.501963 187.840846 
L 678.525062 186.0636 
L 679.138921 184.879372 
L 679.9574 182.896912 
L 680.366639 181.664265 
L 680.775879 181.089573 
L 681.185118 180.990925 
L 681.798978 181.128037 
L 682.208217 181.055635 
L 682.412837 181.168989 
L 683.026696 181.726033 
L 683.231316 181.599556 
L 684.049795 180.532303 
L 684.459034 180.077754 
L 685.072893 179.200783 
L 685.482133 178.889227 
L 685.891372 178.754152 
L 686.095992 178.563644 
L 687.52833 175.826391 
L 687.937569 174.169061 
L 688.756048 169.600486 
L 689.369907 164.512427 
L 690.188386 156.87649 
L 690.597626 155.025032 
L 690.802245 154.968468 
L 691.006865 155.489537 
L 691.416105 157.905732 
L 692.029964 161.506381 
L 692.643823 163.299465 
L 693.462302 164.94435 
L 693.871541 165.320389 
L 694.076161 165.296858 
L 694.485401 164.84163 
L 695.508499 162.543541 
L 696.122358 160.753851 
L 697.963936 153.395984 
L 698.577795 148.805915 
L 699.396274 140.338939 
L 700.010133 134.17978 
L 700.623992 130.32957 
L 701.033232 127.86111 
L 701.442471 123.645948 
L 701.851711 116.428135 
L 702.26095 105.229561 
L 703.079429 79.155743 
L 703.284049 77.68417 
L 703.488669 80.052625 
L 703.897908 92.869386 
L 704.716387 119.77085 
L 705.125626 127.39751 
L 705.534866 131.128709 
L 705.739486 131.792772 
L 705.944105 131.827163 
L 706.148725 131.301116 
L 706.353345 130.214179 
L 706.762584 126.134772 
L 708.194922 106.48076 
L 708.399542 106.279392 
L 708.604162 107.329449 
L 709.013401 112.86776 
L 711.264218 155.38116 
L 711.878077 161.731506 
L 712.491937 166.286052 
L 713.310415 170.722493 
L 713.719655 172.339323 
L 714.333514 173.727182 
L 714.742754 174.151865 
L 715.356613 174.651666 
L 715.765852 175.274098 
L 716.993571 177.532592 
L 717.60743 178.22177 
L 718.221289 178.854836 
L 719.039768 179.981594 
L 719.244388 180.069156 
L 719.449007 180.008972 
L 719.858247 179.451023 
L 720.676726 177.996871 
L 721.085965 177.742559 
L 721.495205 177.786 
L 722.313683 178.236477 
L 722.927543 178.89873 
L 723.336782 178.879046 
L 723.950641 178.788091 
L 724.359881 178.939683 
L 724.97374 179.626824 
L 725.792219 180.663306 
L 725.996838 180.669641 
L 726.406078 180.329577 
L 727.633796 178.911174 
L 728.861515 177.872204 
L 729.066134 177.926053 
L 729.475374 178.497125 
L 730.089233 179.881815 
L 730.293853 180.075038 
L 730.498472 180.012365 
L 730.907712 179.362556 
L 731.726191 177.900712 
L 732.34005 177.257012 
L 732.749289 176.873733 
L 733.567768 175.642218 
L 733.772388 175.627738 
L 733.977008 175.828201 
L 735.613966 178.575183 
L 735.818585 178.617719 
L 736.227825 178.356393 
L 737.250923 176.979847 
L 737.864783 175.835441 
L 738.683262 174.097111 
L 739.70636 172.748395 
L 741.138698 169.347531 
L 742.161797 167.899262 
L 742.775656 166.586295 
L 742.980276 166.405063 
L 743.184896 166.414566 
L 743.389515 166.634035 
L 743.798755 167.725045 
L 744.617234 170.429491 
L 745.026473 171.198763 
L 745.640332 172.022111 
L 746.049572 172.755635 
L 746.254191 172.939808 
L 746.458811 172.891842 
L 746.868051 172.116008 
L 748.095769 168.540926 
L 749.323487 163.298786 
L 749.937347 160.668326 
L 750.346586 159.756511 
L 750.755825 159.299926 
L 751.574304 158.705776 
L 752.188164 158.037187 
L 752.392783 158.043975 
L 752.597403 158.273625 
L 753.006642 159.425045 
L 754.029741 163.05375 
L 754.84822 164.7733 
L 755.05284 164.957021 
L 755.257459 164.902493 
L 755.462079 164.573516 
L 755.871319 163.155792 
L 757.917516 153.716816 
L 759.759093 141.990612 
L 760.168333 140.828558 
L 760.986812 139.125298 
L 761.600671 136.548234 
L 762.21453 132.88265 
L 762.828389 127.824456 
L 763.442248 120.69262 
L 764.056108 110.462425 
L 764.669967 96.082457 
L 765.283826 76.95042 
L 765.897685 50.950588 
L 766.511544 15.849356 
L 766.749236 -1 
M 770.552975 -1 
L 771.013178 35.201314 
L 771.627038 71.161869 
L 772.240897 96.978433 
L 772.854756 115.095257 
L 773.468615 127.207681 
L 774.491714 141.260256 
L 775.105573 147.444076 
L 775.924052 152.486885 
L 776.94715 158.428837 
L 777.56101 160.68801 
L 778.174869 162.954649 
L 778.788728 165.386003 
L 779.811827 168.059678 
L 780.834925 169.989422 
L 781.653404 171.263699 
L 783.290362 175.050104 
L 783.494982 175.243327 
L 783.904221 175.218439 
L 784.313461 175.049425 
L 784.51808 175.063227 
L 784.7227 175.237671 
L 785.13194 176.101293 
L 785.745799 177.405436 
L 786.564278 178.579029 
L 787.791996 179.54967 
L 788.201235 179.985441 
L 788.610475 180.879381 
L 789.224334 182.680384 
L 789.633574 183.121132 
L 790.042813 183.262316 
L 790.452052 183.774109 
L 791.065912 184.781856 
L 791.475151 185.135721 
L 791.884391 185.027118 
L 792.29363 184.958788 
L 792.907489 185.155858 
L 793.112109 185.386866 
L 793.521348 186.318365 
L 794.339827 188.24675 
L 795.362926 190.143234 
L 795.567546 190.204097 
L 795.772165 190.138935 
L 796.181405 189.599765 
L 796.795264 188.344719 
L 796.999884 188.251049 
L 797.409123 188.580479 
L 797.818363 188.885699 
L 798.227602 189.186168 
L 800.273799 191.974781 
L 800.683039 192.094697 
L 801.092278 192.488384 
L 802.524616 194.220379 
L 803.138475 194.622211 
L 803.547715 194.665199 
L 803.752335 194.833082 
L 804.161574 195.624075 
L 804.775433 196.858305 
L 805.389292 197.618075 
L 805.798532 197.668983 
L 806.207771 197.594771 
L 806.617011 197.853834 
L 807.02625 198.653199 
L 807.43549 199.508902 
L 808.458588 200.715529 
L 809.481687 202.238462 
L 809.890926 202.459515 
L 810.914025 202.216289 
L 811.118645 202.411775 
L 811.527884 203.296438 
L 812.960222 207.532189 
L 813.369462 207.755505 
L 813.778701 207.955289 
L 815.211039 209.002405 
L 815.620279 208.904889 
L 815.824899 209.021637 
L 816.234138 209.840912 
L 816.847997 211.553223 
L 817.052617 211.780611 
L 817.257237 211.769524 
L 817.666476 211.540326 
L 817.871096 211.571323 
L 818.280335 212.065694 
L 819.712673 214.707241 
L 820.121913 215.13826 
L 820.531152 215.193014 
L 820.940392 215.071288 
L 821.145011 215.22469 
L 821.554251 216.138993 
L 822.16811 217.689756 
L 822.37273 217.822569 
L 823.191209 217.541332 
L 823.600448 217.981627 
L 824.009688 218.722391 
L 824.623547 220.105725 
L 825.032786 220.486967 
L 825.646645 220.763905 
L 826.465124 220.689467 
L 826.874364 221.372083 
L 827.488223 222.491827 
L 828.511322 223.709541 
L 829.73904 226.423037 
L 829.94366 226.55947 
L 830.148279 226.502227 
L 830.557519 226.054012 
L 831.375998 225.05803 
L 831.989857 224.669774 
L 832.399096 224.685159 
L 833.626815 224.977257 
L 835.468392 226.889352 
L 835.877632 226.500417 
L 836.286871 225.730239 
L 836.696111 224.324054 
L 837.51459 221.285427 
L 837.923829 220.692408 
L 838.128449 220.714129 
L 838.537688 221.188589 
L 839.151547 222.087054 
L 839.356167 222.140903 
L 839.560787 222.073705 
L 839.970026 221.568021 
L 840.788505 219.605471 
L 841.402364 217.671655 
L 842.016224 215.477192 
L 842.834702 213.17503 
L 843.653181 210.49683 
L 843.857801 210.318993 
L 844.267041 210.314468 
L 844.47166 210.140024 
L 844.8809 209.225268 
L 846.722477 203.720217 
L 847.540956 200.726615 
L 848.154815 198.917014 
L 849.177914 196.733638 
L 849.996393 194.058153 
L 851.224111 188.979822 
L 852.24721 184.36577 
L 853.065689 178.80687 
L 854.088787 171.599464 
L 854.498027 170.299846 
L 855.111886 169.180554 
L 855.521126 168.83144 
L 856.134985 168.740937 
L 856.544224 168.349287 
L 857.362703 167.120035 
L 857.771943 166.495566 
L 857.976562 166.367957 
L 858.385802 166.494661 
L 860.227379 167.333621 
L 861.250478 167.735453 
L 861.659717 168.565136 
L 863.501295 174.2211 
L 864.115154 175.310299 
L 864.729013 176.370764 
L 865.138253 176.924188 
L 865.547492 178.05434 
L 865.956732 180.228667 
L 867.18445 188.874613 
L 868.002929 195.408226 
L 868.821408 204.506912 
L 871.072225 231.175784 
L 872.504563 247.016918 
L 872.937779 253 
M 952.733922 253 
L 953.533975 249.55235 
L 956.398651 237.854881 
L 957.01251 235.835314 
L 957.830989 232.790352 
L 958.854088 231.011974 
L 959.467947 228.449165 
L 960.081806 226.125509 
L 960.491045 225.425019 
L 960.900285 225.237226 
L 961.309524 225.013684 
L 961.718764 224.384917 
L 962.537243 222.683467 
L 963.151102 220.956223 
L 964.78806 215.498686 
L 965.401919 213.709222 
L 965.811158 213.088374 
L 966.629637 212.494903 
L 967.038877 212.467978 
L 967.857356 212.968232 
L 968.266595 212.883838 
L 968.675834 212.604411 
L 969.085074 212.026099 
L 969.698933 210.686433 
L 970.926651 207.859356 
L 971.131271 208.027013 
L 971.540511 208.892897 
L 972.15437 210.185954 
L 972.563609 210.461082 
L 972.768229 210.368543 
L 974.405187 208.644693 
L 974.814426 208.390381 
L 975.223666 207.767496 
L 977.679102 202.498884 
L 978.088342 202.040261 
L 978.497581 201.99139 
L 979.111441 202.137778 
L 979.929919 202.744598 
L 980.748398 202.478294 
L 981.157638 202.668124 
L 981.976117 203.241006 
L 982.999215 202.196605 
L 983.613075 202.33168 
L 984.226934 202.655906 
L 984.636173 202.621289 
L 985.045413 202.508613 
L 985.454652 202.854559 
L 985.863892 203.320648 
L 986.068511 203.406399 
L 986.273131 203.35798 
L 986.68237 202.966556 
L 987.09161 202.244797 
L 987.500849 200.665752 
L 988.319328 196.978447 
L 988.728568 195.899656 
L 989.547047 194.149787 
L 990.160906 192.945196 
L 990.570145 192.518024 
L 991.593244 191.929304 
L 992.002483 191.235601 
L 993.025582 188.726414 
L 993.434821 188.208965 
L 993.639441 188.106471 
L 993.844061 188.156474 
L 994.2533 188.736596 
L 994.867159 189.798645 
L 995.685638 190.729012 
L 996.299498 191.612997 
L 996.708737 191.657569 
L 997.117976 191.618653 
L 997.527216 191.960075 
L 997.936455 192.307379 
L 998.754934 192.413719 
L 999.164174 192.175471 
L 999.778033 191.346014 
L 1000.596512 190.086669 
L 1001.005751 188.922126 
L 1002.02885 185.422841 
L 1002.438089 184.888423 
L 1002.642709 185.003135 
L 1003.051949 186.013145 
L 1003.665808 187.863019 
L 1004.075047 188.402189 
L 1004.688906 188.939096 
L 1005.712005 190.482166 
L 1005.916625 190.379672 
L 1006.530484 189.319433 
L 1007.144343 188.400605 
L 1007.553583 188.372323 
L 1008.576681 188.559437 
L 1009.8044 188.598353 
L 1010.009019 188.414633 
L 1010.418259 187.637215 
L 1011.032118 186.357281 
L 1011.441357 185.837117 
L 1011.850597 185.689824 
L 1012.464456 186.035318 
L 1012.873695 186.318817 
L 1013.487555 187.170447 
L 1015.533752 190.013815 
L 1015.738372 189.902949 
L 1016.352231 189.202006 
L 1016.76147 189.102679 
L 1017.375329 189.243863 
L 1018.398428 189.874441 
L 1019.012287 189.964265 
L 1019.216907 189.851136 
L 1021.058485 187.677941 
L 1021.263104 187.626355 
L 1021.467724 187.697852 
L 1021.876963 188.333859 
L 1022.490823 189.541843 
L 1022.695442 189.685064 
L 1022.900062 189.676014 
L 1023.309302 189.362422 
L 1023.923161 188.751076 
L 1024.12778 188.691118 
L 1024.3324 188.804247 
L 1024.946259 189.58438 
L 1025.150879 189.626011 
L 1025.355499 189.46288 
L 1026.583217 187.640609 
L 1026.787837 187.662556 
L 1027.197076 188.139505 
L 1027.810936 189.099738 
L 1028.220175 189.208567 
L 1028.629414 189.107657 
L 1029.038654 189.306084 
L 1029.447893 189.584832 
L 1029.652513 189.626916 
L 1029.857133 189.533019 
L 1030.470992 188.663289 
L 1031.90333 186.704585 
L 1032.10795 186.552314 
L 1032.517189 186.662275 
L 1032.721809 186.718613 
L 1033.131048 186.418596 
L 1033.540288 186.171977 
L 1034.154147 185.974681 
L 1034.563386 185.480763 
L 1034.972626 184.92123 
L 1035.177246 184.823034 
L 1035.381865 184.861951 
L 1035.791105 185.290028 
L 1036.609584 186.377418 
L 1037.018823 186.571093 
L 1037.632682 186.610462 
L 1038.451161 187.139676 
L 1039.06502 187.24647 
L 1039.47426 187.580424 
L 1040.088119 188.218242 
L 1040.701978 188.672113 
L 1041.520457 190.009742 
L 1041.725077 190.097077 
L 1041.929697 190.030105 
L 1042.338936 189.466726 
L 1042.952795 187.64898 
L 1043.362035 186.809342 
L 1043.566654 186.829705 
L 1043.975894 187.528838 
L 1044.385133 188.318926 
L 1045.408232 189.13164 
L 1045.817471 189.28459 
L 1046.226711 189.385274 
L 1046.84057 189.704748 
L 1047.04519 189.656556 
L 1047.454429 189.166484 
L 1047.863669 188.688403 
L 1048.272908 188.576406 
L 1048.682148 188.741347 
L 1049.091387 189.302238 
L 1049.705246 190.281703 
L 1049.909866 190.33261 
L 1050.114486 190.178756 
L 1050.932965 188.996791 
L 1051.137584 189.022358 
L 1051.546824 189.458355 
L 1052.365303 190.711364 
L 1052.774542 191.016584 
L 1053.183782 190.82585 
L 1053.593021 190.540088 
L 1053.797641 190.574253 
L 1054.4115 190.92495 
L 1054.820739 190.639867 
L 1055.229979 190.315641 
L 1056.457697 189.779639 
L 1056.866937 189.895935 
L 1057.276176 190.116988 
L 1058.094655 190.297541 
L 1058.503895 190.398451 
L 1058.913134 189.965622 
L 1059.731613 188.700621 
L 1060.140852 188.577538 
L 1060.754712 188.460789 
L 1061.163951 188.126834 
L 1062.391669 186.879481 
L 1062.596289 186.984238 
L 1063.005529 187.728623 
L 1063.619388 189.06942 
L 1063.824007 189.221238 
L 1064.233247 189.083221 
L 1064.642486 188.882758 
L 1065.051726 188.903121 
L 1066.074824 189.343643 
L 1066.688684 189.265584 
L 1066.893303 189.426453 
L 1068.325641 191.625894 
L 1068.530261 191.441042 
L 1068.939501 190.201608 
L 1070.167219 185.244777 
L 1070.371839 185.063772 
L 1070.576458 185.230749 
L 1071.394937 186.937177 
L 1071.804177 187.726586 
L 1072.213416 188.124572 
L 1072.622656 188.191091 
L 1073.236515 188.029996 
L 1073.645754 187.710975 
L 1074.259613 187.101213 
L 1074.668853 187.013199 
L 1075.078092 187.301676 
L 1076.71505 189.134581 
L 1077.12429 189.361743 
L 1077.942769 190.329669 
L 1078.556628 190.520403 
L 1078.965867 190.854358 
L 1079.375107 190.848702 
L 1079.988966 190.635342 
L 1080.398205 190.846892 
L 1080.807445 191.245104 
L 1081.012064 191.299858 
L 1081.216684 191.117269 
L 1082.035163 189.595919 
L 1082.444403 189.672394 
L 1082.853642 189.764027 
L 1083.467501 189.599313 
L 1083.876741 189.328031 
L 1084.899839 188.134753 
L 1085.513698 188.124798 
L 1086.332177 187.260271 
L 1086.536797 187.28878 
L 1086.946037 187.698757 
L 1087.355276 188.177742 
L 1087.764515 188.244261 
L 1088.173755 188.281141 
L 1088.992234 188.702657 
L 1089.401473 188.123893 
L 1090.219952 186.82699 
L 1090.629192 186.548694 
L 1090.833811 186.643496 
L 1091.243051 187.234252 
L 1092.06153 188.739764 
L 1092.470769 188.83366 
L 1092.880009 188.635912 
L 1093.493868 188.038142 
L 1093.698488 188.012122 
L 1093.903107 188.170954 
L 1094.926206 189.728505 
L 1096.358544 189.695698 
L 1097.381643 188.817596 
L 1098.404741 187.482003 
L 1099.63246 186.859118 
L 1100.041699 186.866811 
L 1100.246319 186.717255 
L 1100.655558 185.933502 
L 1101.064798 185.204729 
L 1101.269417 185.120109 
L 1102.087896 185.367861 
L 1102.497136 184.819188 
L 1103.110995 183.925474 
L 1103.520234 183.725916 
L 1103.724854 183.853298 
L 1104.134094 184.688412 
L 1104.543333 185.508366 
L 1104.952573 185.782815 
L 1105.361812 185.850919 
L 1105.975671 185.702494 
L 1107.612629 184.675063 
L 1108.226488 184.751764 
L 1108.635728 184.237256 
L 1109.863446 181.776262 
L 1110.068066 181.752279 
L 1111.091164 182.221762 
L 1111.295784 182.090533 
L 1111.705023 181.264243 
L 1112.523502 178.425854 
L 1113.751221 173.815874 
L 1114.978939 166.804859 
L 1116.820517 155.852227 
L 1117.434376 152.864507 
L 1118.252855 149.508669 
L 1118.662094 146.564391 
L 1119.071334 141.905992 
L 1119.685193 131.198622 
L 1120.299052 114.021442 
L 1120.912911 87.79558 
L 1121.52677 49.7555 
L 1122.266728 -1 
M 1123.272153 -1 
L 1123.572968 18.547693 
L 1124.596066 90.79597 
L 1125.209925 116.055264 
L 1125.619165 125.739049 
L 1126.642264 141.498504 
L 1127.665362 157.130803 
L 1128.688461 168.925789 
L 1129.0977 171.902874 
L 1129.711559 174.492834 
L 1131.143898 178.994889 
L 1132.576236 184.163723 
L 1132.985475 184.655378 
L 1133.394715 185.034132 
L 1134.213193 185.972418 
L 1134.417813 185.895265 
L 1135.031672 185.332338 
L 1135.440912 185.318989 
L 1135.850151 185.623983 
L 1137.282489 187.511642 
L 1137.896349 188.708314 
L 1138.100968 188.851761 
L 1138.305588 188.837733 
L 1139.328687 188.22684 
L 1139.737926 188.457169 
L 1140.147166 189.101548 
L 1140.761025 190.253873 
L 1141.170264 190.633079 
L 1141.579504 190.756615 
L 1141.784123 190.677652 
L 1142.807222 189.583701 
L 1143.216461 189.312193 
L 1143.625701 188.615322 
L 1144.853419 186.251619 
L 1145.058039 186.156818 
L 1145.262659 186.281937 
L 1146.285757 187.850575 
L 1146.899617 188.090633 
L 1147.308856 188.187245 
L 1147.718095 188.481378 
L 1148.536574 189.403827 
L 1148.741194 189.318754 
L 1149.764293 188.217789 
L 1150.173532 188.324809 
L 1150.582772 188.649487 
L 1151.40125 189.469441 
L 1151.81049 189.541843 
L 1152.219729 189.379617 
L 1152.833589 188.947241 
L 1154.265927 188.712839 
L 1154.879786 188.46554 
L 1155.493645 188.704468 
L 1155.902884 188.851082 
L 1156.312124 188.699942 
L 1156.721363 188.537264 
L 1156.925983 188.674149 
L 1157.949082 189.935304 
L 1158.153701 189.871499 
L 1159.1768 189.049961 
L 1159.38142 189.163542 
L 1159.995279 190.095493 
L 1160.404518 190.593711 
L 1160.813758 190.762724 
L 1161.018378 190.695526 
L 1161.632237 190.008385 
L 1162.246096 189.17938 
L 1163.064575 187.597846 
L 1163.473814 187.302581 
L 1166.54311 188.377527 
L 1167.770829 187.959631 
L 1167.975448 188.082262 
L 1168.384688 188.762163 
L 1169.203167 190.280571 
L 1169.612406 190.769965 
L 1169.817026 190.805713 
L 1170.226265 190.474247 
L 1170.635505 190.149116 
L 1171.249364 190.017887 
L 1171.658603 189.226442 
L 1172.067843 188.413049 
L 1172.272463 188.298563 
L 1172.477082 188.373454 
L 1172.886322 188.95154 
L 1173.500181 189.960192 
L 1174.31866 190.726071 
L 1174.727899 191.054369 
L 1175.137139 191.101883 
L 1175.546378 190.783314 
L 1175.955618 190.359309 
L 1176.160237 190.310211 
L 1176.774097 190.523119 
L 1177.183336 190.474926 
L 1177.592576 190.689643 
L 1178.001815 190.900288 
L 1178.615674 191.029481 
L 1179.024914 191.143967 
L 1179.229533 190.961378 
L 1179.843393 189.979198 
L 1180.048012 189.870142 
L 1180.252632 189.956346 
L 1180.661871 190.590317 
L 1181.48035 191.954418 
L 1181.68497 192.060985 
L 1181.88959 191.986773 
L 1182.708069 191.128808 
L 1183.117308 191.342394 
L 1183.526548 191.500774 
L 1184.140407 191.501226 
L 1184.549646 191.75305 
L 1184.754266 191.9646 
L 1184.754266 191.9646 
" clip-path="url(#p4d2f57eb03)" style="fill: none; stroke: #000000; stroke-width: 2; stroke-linecap: square"/>
   </g>
   <g id="patch_3">
    <path d="M 3.00024 198.907885 
L 1184.99976 198.907885 
" style="fill: none; stroke: #000000; stroke-width: 2; stroke-linejoin: miter; stroke-linecap: square"/>
   </g>
  </g>
 </g>
 <defs>
  <clipPath id="p4d2f57eb03">
   <rect x="3.00024" y="3.00024" width="1181.99952" height="195.907645"/>
  </clipPath>
 </defs>
</svg>
