<?xml version="1.0" encoding="utf-8" standalone="no"?>
<!DOCTYPE svg PUBLIC "-//W3C//DTD SVG 1.1//EN"
  "http://www.w3.org/Graphics/SVG/1.1/DTD/svg11.dtd">
<svg xmlns:xlink="http://www.w3.org/1999/xlink" width="1188pt" height="252pt" viewBox="0 0 1188 252" xmlns="http://www.w3.org/2000/svg" version="1.1">
 <metadata>
  <rdf:RDF xmlns:dc="http://purl.org/dc/elements/1.1/" xmlns:cc="http://creativecommons.org/ns#" xmlns:rdf="http://www.w3.org/1999/02/22-rdf-syntax-ns#">
   <cc:Work>
    <dc:type rdf:resource="http://purl.org/dc/dcmitype/StillImage"/>
    <dc:date>2024-07-23T21:42:29.775625</dc:date>
    <dc:format>image/svg+xml</dc:format>
    <dc:creator>
     <cc:Agent>
      <dc:title>Matplotlib v3.8.4, https://matplotlib.org/</dc:title>
     </cc:Agent>
    </dc:creator>
   </cc:Work>
  </rdf:RDF>
 </metadata>
 <defs>
  <style type="text/css">*{stroke-linejoin: round; stroke-linecap: butt}</style>
 </defs>
 <g id="figure_1">
  <g id="patch_1">
   <path d="M 0 252 
L 1188 252 
L 1188 0 
L 0 0 
z
" style="fill: #ffffff"/>
  </g>
  <g id="axes_1">
   <g id="patch_2">
    <path d="M 3.00024 198.907885 
L 1184.99976 198.907885 
L 1184.99976 3.00024 
L 3.00024 3.00024 
z
" style="fill: #ffffff"/>
   </g>
   <g id="matplotlib.axis_1">
    <g id="xtick_1">
     <g id="line2d_1">
      <defs>
       <path id="m68da6c5eb4" d="M 0 0 
L 0 8 
" style="stroke: #000000; stroke-width: 2"/>
      </defs>
      <g>
       <use xlink:href="#m68da6c5eb4" x="1131.272509" y="198.907885" style="stroke: #000000; stroke-width: 2"/>
      </g>
     </g>
     <g id="text_1">
      <!-- 0 -->
      <g transform="translate(1126.267665 224.791947) scale(0.18 -0.18)">
       <defs>
        <path id="Arial-BoldMT-30" d="M 1756 4600 
Q 2422 4600 2797 4125 
Q 3244 3563 3244 2259 
Q 3244 959 2794 391 
Q 2422 -78 1756 -78 
Q 1088 -78 678 436 
Q 269 950 269 2269 
Q 269 3563 719 4131 
Q 1091 4600 1756 4600 
z
M 1756 3872 
Q 1597 3872 1472 3770 
Q 1347 3669 1278 3406 
Q 1188 3066 1188 2259 
Q 1188 1453 1269 1151 
Q 1350 850 1473 750 
Q 1597 650 1756 650 
Q 1916 650 2041 751 
Q 2166 853 2234 1116 
Q 2325 1453 2325 2259 
Q 2325 3066 2244 3367 
Q 2163 3669 2039 3770 
Q 1916 3872 1756 3872 
z
" transform="scale(0.015625)"/>
       </defs>
       <use xlink:href="#Arial-BoldMT-30"/>
      </g>
     </g>
    </g>
    <g id="xtick_2">
     <g id="line2d_2">
      <g>
       <use xlink:href="#m68da6c5eb4" x="1023.818007" y="198.907885" style="stroke: #000000; stroke-width: 2"/>
      </g>
     </g>
     <g id="text_2">
      <!-- 1 -->
      <g transform="translate(1018.813164 224.791947) scale(0.18 -0.18)">
       <defs>
        <path id="Arial-BoldMT-31" d="M 2519 0 
L 1641 0 
L 1641 3309 
Q 1159 2859 506 2644 
L 506 3441 
Q 850 3553 1253 3867 
Q 1656 4181 1806 4600 
L 2519 4600 
L 2519 0 
z
" transform="scale(0.015625)"/>
       </defs>
       <use xlink:href="#Arial-BoldMT-31"/>
      </g>
     </g>
    </g>
    <g id="xtick_3">
     <g id="line2d_3">
      <g>
       <use xlink:href="#m68da6c5eb4" x="916.363505" y="198.907885" style="stroke: #000000; stroke-width: 2"/>
      </g>
     </g>
     <g id="text_3">
      <!-- 2 -->
      <g transform="translate(911.358662 224.791947) scale(0.18 -0.18)">
       <defs>
        <path id="Arial-BoldMT-32" d="M 3238 816 
L 3238 0 
L 159 0 
Q 209 463 459 877 
Q 709 1291 1447 1975 
Q 2041 2528 2175 2725 
Q 2356 2997 2356 3263 
Q 2356 3556 2198 3714 
Q 2041 3872 1763 3872 
Q 1488 3872 1325 3706 
Q 1163 3541 1138 3156 
L 263 3244 
Q 341 3969 753 4284 
Q 1166 4600 1784 4600 
Q 2463 4600 2850 4234 
Q 3238 3869 3238 3325 
Q 3238 3016 3127 2736 
Q 3016 2456 2775 2150 
Q 2616 1947 2200 1565 
Q 1784 1184 1673 1059 
Q 1563 934 1494 816 
L 3238 816 
z
" transform="scale(0.015625)"/>
       </defs>
       <use xlink:href="#Arial-BoldMT-32"/>
      </g>
     </g>
    </g>
    <g id="xtick_4">
     <g id="line2d_4">
      <g>
       <use xlink:href="#m68da6c5eb4" x="808.909004" y="198.907885" style="stroke: #000000; stroke-width: 2"/>
      </g>
     </g>
     <g id="text_4">
      <!-- 3 -->
      <g transform="translate(803.90416 224.791947) scale(0.18 -0.18)">
       <defs>
        <path id="Arial-BoldMT-33" d="M 241 1216 
L 1091 1319 
Q 1131 994 1309 822 
Q 1488 650 1741 650 
Q 2013 650 2198 856 
Q 2384 1063 2384 1413 
Q 2384 1744 2206 1937 
Q 2028 2131 1772 2131 
Q 1603 2131 1369 2066 
L 1466 2781 
Q 1822 2772 2009 2936 
Q 2197 3100 2197 3372 
Q 2197 3603 2059 3740 
Q 1922 3878 1694 3878 
Q 1469 3878 1309 3722 
Q 1150 3566 1116 3266 
L 306 3403 
Q 391 3819 561 4067 
Q 731 4316 1036 4458 
Q 1341 4600 1719 4600 
Q 2366 4600 2756 4188 
Q 3078 3850 3078 3425 
Q 3078 2822 2419 2463 
Q 2813 2378 3048 2084 
Q 3284 1791 3284 1375 
Q 3284 772 2843 347 
Q 2403 -78 1747 -78 
Q 1125 -78 715 280 
Q 306 638 241 1216 
z
" transform="scale(0.015625)"/>
       </defs>
       <use xlink:href="#Arial-BoldMT-33"/>
      </g>
     </g>
    </g>
    <g id="xtick_5">
     <g id="line2d_5">
      <g>
       <use xlink:href="#m68da6c5eb4" x="701.454502" y="198.907885" style="stroke: #000000; stroke-width: 2"/>
      </g>
     </g>
     <g id="text_5">
      <!-- 4 -->
      <g transform="translate(696.449658 224.791947) scale(0.18 -0.18)">
       <defs>
        <path id="Arial-BoldMT-34" d="M 1994 0 
L 1994 922 
L 119 922 
L 119 1691 
L 2106 4600 
L 2844 4600 
L 2844 1694 
L 3413 1694 
L 3413 922 
L 2844 922 
L 2844 0 
L 1994 0 
z
M 1994 1694 
L 1994 3259 
L 941 1694 
L 1994 1694 
z
" transform="scale(0.015625)"/>
       </defs>
       <use xlink:href="#Arial-BoldMT-34"/>
      </g>
     </g>
    </g>
    <g id="xtick_6">
     <g id="line2d_6">
      <g>
       <use xlink:href="#m68da6c5eb4" x="594" y="198.907885" style="stroke: #000000; stroke-width: 2"/>
      </g>
     </g>
     <g id="text_6">
      <!-- 5 -->
      <g transform="translate(588.995156 224.791947) scale(0.18 -0.18)">
       <defs>
        <path id="Arial-BoldMT-35" d="M 284 1178 
L 1159 1269 
Q 1197 972 1381 798 
Q 1566 625 1806 625 
Q 2081 625 2272 848 
Q 2463 1072 2463 1522 
Q 2463 1944 2273 2155 
Q 2084 2366 1781 2366 
Q 1403 2366 1103 2031 
L 391 2134 
L 841 4519 
L 3163 4519 
L 3163 3697 
L 1506 3697 
L 1369 2919 
Q 1663 3066 1969 3066 
Q 2553 3066 2959 2641 
Q 3366 2216 3366 1538 
Q 3366 972 3038 528 
Q 2591 -78 1797 -78 
Q 1163 -78 763 262 
Q 363 603 284 1178 
z
" transform="scale(0.015625)"/>
       </defs>
       <use xlink:href="#Arial-BoldMT-35"/>
      </g>
     </g>
    </g>
    <g id="xtick_7">
     <g id="line2d_7">
      <g>
       <use xlink:href="#m68da6c5eb4" x="486.545498" y="198.907885" style="stroke: #000000; stroke-width: 2"/>
      </g>
     </g>
     <g id="text_7">
      <!-- 6 -->
      <g transform="translate(481.540654 224.791947) scale(0.18 -0.18)">
       <defs>
        <path id="Arial-BoldMT-36" d="M 3247 3459 
L 2397 3366 
Q 2366 3628 2234 3753 
Q 2103 3878 1894 3878 
Q 1616 3878 1423 3628 
Q 1231 3378 1181 2588 
Q 1509 2975 1997 2975 
Q 2547 2975 2939 2556 
Q 3331 2138 3331 1475 
Q 3331 772 2918 347 
Q 2506 -78 1859 -78 
Q 1166 -78 719 461 
Q 272 1000 272 2228 
Q 272 3488 737 4044 
Q 1203 4600 1947 4600 
Q 2469 4600 2811 4308 
Q 3153 4016 3247 3459 
z
M 1256 1544 
Q 1256 1116 1453 883 
Q 1650 650 1903 650 
Q 2147 650 2309 840 
Q 2472 1031 2472 1466 
Q 2472 1913 2297 2120 
Q 2122 2328 1859 2328 
Q 1606 2328 1431 2129 
Q 1256 1931 1256 1544 
z
" transform="scale(0.015625)"/>
       </defs>
       <use xlink:href="#Arial-BoldMT-36"/>
      </g>
     </g>
    </g>
    <g id="xtick_8">
     <g id="line2d_8">
      <g>
       <use xlink:href="#m68da6c5eb4" x="379.090996" y="198.907885" style="stroke: #000000; stroke-width: 2"/>
      </g>
     </g>
     <g id="text_8">
      <!-- 7 -->
      <g transform="translate(374.086153 224.791947) scale(0.18 -0.18)">
       <defs>
        <path id="Arial-BoldMT-37" d="M 272 3703 
L 272 4519 
L 3275 4519 
L 3275 3881 
Q 2903 3516 2518 2831 
Q 2134 2147 1932 1376 
Q 1731 606 1734 0 
L 888 0 
Q 909 950 1279 1937 
Q 1650 2925 2269 3703 
L 272 3703 
z
" transform="scale(0.015625)"/>
       </defs>
       <use xlink:href="#Arial-BoldMT-37"/>
      </g>
     </g>
    </g>
    <g id="xtick_9">
     <g id="line2d_9">
      <g>
       <use xlink:href="#m68da6c5eb4" x="271.636495" y="198.907885" style="stroke: #000000; stroke-width: 2"/>
      </g>
     </g>
     <g id="text_9">
      <!-- 8 -->
      <g transform="translate(266.631651 224.791947) scale(0.18 -0.18)">
       <defs>
        <path id="Arial-BoldMT-38" d="M 1025 2472 
Q 684 2616 529 2867 
Q 375 3119 375 3419 
Q 375 3931 733 4265 
Q 1091 4600 1750 4600 
Q 2403 4600 2764 4265 
Q 3125 3931 3125 3419 
Q 3125 3100 2959 2851 
Q 2794 2603 2494 2472 
Q 2875 2319 3073 2025 
Q 3272 1731 3272 1347 
Q 3272 713 2867 316 
Q 2463 -81 1791 -81 
Q 1166 -81 750 247 
Q 259 634 259 1309 
Q 259 1681 443 1992 
Q 628 2303 1025 2472 
z
M 1206 3356 
Q 1206 3094 1354 2947 
Q 1503 2800 1750 2800 
Q 2000 2800 2150 2948 
Q 2300 3097 2300 3359 
Q 2300 3606 2151 3754 
Q 2003 3903 1759 3903 
Q 1506 3903 1356 3753 
Q 1206 3603 1206 3356 
z
M 1125 1394 
Q 1125 1031 1311 828 
Q 1497 625 1775 625 
Q 2047 625 2225 820 
Q 2403 1016 2403 1384 
Q 2403 1706 2222 1901 
Q 2041 2097 1763 2097 
Q 1441 2097 1283 1875 
Q 1125 1653 1125 1394 
z
" transform="scale(0.015625)"/>
       </defs>
       <use xlink:href="#Arial-BoldMT-38"/>
      </g>
     </g>
    </g>
    <g id="xtick_10">
     <g id="line2d_10">
      <g>
       <use xlink:href="#m68da6c5eb4" x="164.181993" y="198.907885" style="stroke: #000000; stroke-width: 2"/>
      </g>
     </g>
     <g id="text_10">
      <!-- 9 -->
      <g transform="translate(159.177149 224.791947) scale(0.18 -0.18)">
       <defs>
        <path id="Arial-BoldMT-39" d="M 291 1059 
L 1141 1153 
Q 1172 894 1303 769 
Q 1434 644 1650 644 
Q 1922 644 2112 894 
Q 2303 1144 2356 1931 
Q 2025 1547 1528 1547 
Q 988 1547 595 1964 
Q 203 2381 203 3050 
Q 203 3747 617 4173 
Q 1031 4600 1672 4600 
Q 2369 4600 2816 4061 
Q 3263 3522 3263 2288 
Q 3263 1031 2797 475 
Q 2331 -81 1584 -81 
Q 1047 -81 715 205 
Q 384 491 291 1059 
z
M 2278 2978 
Q 2278 3403 2083 3637 
Q 1888 3872 1631 3872 
Q 1388 3872 1227 3680 
Q 1066 3488 1066 3050 
Q 1066 2606 1241 2398 
Q 1416 2191 1678 2191 
Q 1931 2191 2104 2391 
Q 2278 2591 2278 2978 
z
" transform="scale(0.015625)"/>
       </defs>
       <use xlink:href="#Arial-BoldMT-39"/>
      </g>
     </g>
    </g>
    <g id="xtick_11">
     <g id="line2d_11">
      <g>
       <use xlink:href="#m68da6c5eb4" x="56.727491" y="198.907885" style="stroke: #000000; stroke-width: 2"/>
      </g>
     </g>
     <g id="text_11">
      <!-- 10 -->
      <g transform="translate(46.717803 224.791947) scale(0.18 -0.18)">
       <use xlink:href="#Arial-BoldMT-31"/>
       <use xlink:href="#Arial-BoldMT-30" x="55.615234"/>
      </g>
     </g>
    </g>
    <g id="text_12">
     <!-- Chemical Shift / ppm -->
     <g transform="translate(504.992813 245.447573) scale(0.18 -0.18)">
      <defs>
       <path id="Arial-BoldMT-43" d="M 3397 1684 
L 4294 1400 
Q 4088 650 3608 286 
Q 3128 -78 2391 -78 
Q 1478 -78 890 545 
Q 303 1169 303 2250 
Q 303 3394 893 4026 
Q 1484 4659 2447 4659 
Q 3288 4659 3813 4163 
Q 4125 3869 4281 3319 
L 3366 3100 
Q 3284 3456 3026 3662 
Q 2769 3869 2400 3869 
Q 1891 3869 1573 3503 
Q 1256 3138 1256 2319 
Q 1256 1450 1568 1081 
Q 1881 713 2381 713 
Q 2750 713 3015 947 
Q 3281 1181 3397 1684 
z
" transform="scale(0.015625)"/>
       <path id="Arial-BoldMT-68" d="M 1334 4581 
L 1334 2897 
Q 1759 3394 2350 3394 
Q 2653 3394 2897 3281 
Q 3141 3169 3264 2994 
Q 3388 2819 3433 2606 
Q 3478 2394 3478 1947 
L 3478 0 
L 2600 0 
L 2600 1753 
Q 2600 2275 2550 2415 
Q 2500 2556 2373 2639 
Q 2247 2722 2056 2722 
Q 1838 2722 1666 2615 
Q 1494 2509 1414 2295 
Q 1334 2081 1334 1663 
L 1334 0 
L 456 0 
L 456 4581 
L 1334 4581 
z
" transform="scale(0.015625)"/>
       <path id="Arial-BoldMT-65" d="M 2381 1056 
L 3256 909 
Q 3088 428 2723 176 
Q 2359 -75 1813 -75 
Q 947 -75 531 491 
Q 203 944 203 1634 
Q 203 2459 634 2926 
Q 1066 3394 1725 3394 
Q 2466 3394 2894 2905 
Q 3322 2416 3303 1406 
L 1103 1406 
Q 1113 1016 1316 798 
Q 1519 581 1822 581 
Q 2028 581 2168 693 
Q 2309 806 2381 1056 
z
M 2431 1944 
Q 2422 2325 2234 2523 
Q 2047 2722 1778 2722 
Q 1491 2722 1303 2513 
Q 1116 2303 1119 1944 
L 2431 1944 
z
" transform="scale(0.015625)"/>
       <path id="Arial-BoldMT-6d" d="M 394 3319 
L 1203 3319 
L 1203 2866 
Q 1638 3394 2238 3394 
Q 2556 3394 2790 3262 
Q 3025 3131 3175 2866 
Q 3394 3131 3647 3262 
Q 3900 3394 4188 3394 
Q 4553 3394 4806 3245 
Q 5059 3097 5184 2809 
Q 5275 2597 5275 2122 
L 5275 0 
L 4397 0 
L 4397 1897 
Q 4397 2391 4306 2534 
Q 4184 2722 3931 2722 
Q 3747 2722 3584 2609 
Q 3422 2497 3350 2280 
Q 3278 2063 3278 1594 
L 3278 0 
L 2400 0 
L 2400 1819 
Q 2400 2303 2353 2443 
Q 2306 2584 2207 2653 
Q 2109 2722 1941 2722 
Q 1738 2722 1575 2612 
Q 1413 2503 1342 2297 
Q 1272 2091 1272 1613 
L 1272 0 
L 394 0 
L 394 3319 
z
" transform="scale(0.015625)"/>
       <path id="Arial-BoldMT-69" d="M 459 3769 
L 459 4581 
L 1338 4581 
L 1338 3769 
L 459 3769 
z
M 459 0 
L 459 3319 
L 1338 3319 
L 1338 0 
L 459 0 
z
" transform="scale(0.015625)"/>
       <path id="Arial-BoldMT-63" d="M 3353 2338 
L 2488 2181 
Q 2444 2441 2289 2572 
Q 2134 2703 1888 2703 
Q 1559 2703 1364 2476 
Q 1169 2250 1169 1719 
Q 1169 1128 1367 884 
Q 1566 641 1900 641 
Q 2150 641 2309 783 
Q 2469 925 2534 1272 
L 3397 1125 
Q 3263 531 2881 228 
Q 2500 -75 1859 -75 
Q 1131 -75 698 384 
Q 266 844 266 1656 
Q 266 2478 700 2936 
Q 1134 3394 1875 3394 
Q 2481 3394 2839 3133 
Q 3197 2872 3353 2338 
z
" transform="scale(0.015625)"/>
       <path id="Arial-BoldMT-61" d="M 1116 2306 
L 319 2450 
Q 453 2931 781 3162 
Q 1109 3394 1756 3394 
Q 2344 3394 2631 3255 
Q 2919 3116 3036 2902 
Q 3153 2688 3153 2116 
L 3144 1091 
Q 3144 653 3186 445 
Q 3228 238 3344 0 
L 2475 0 
Q 2441 88 2391 259 
Q 2369 338 2359 363 
Q 2134 144 1878 34 
Q 1622 -75 1331 -75 
Q 819 -75 523 203 
Q 228 481 228 906 
Q 228 1188 362 1408 
Q 497 1628 739 1745 
Q 981 1863 1438 1950 
Q 2053 2066 2291 2166 
L 2291 2253 
Q 2291 2506 2166 2614 
Q 2041 2722 1694 2722 
Q 1459 2722 1328 2630 
Q 1197 2538 1116 2306 
z
M 2291 1594 
Q 2122 1538 1756 1459 
Q 1391 1381 1278 1306 
Q 1106 1184 1106 997 
Q 1106 813 1243 678 
Q 1381 544 1594 544 
Q 1831 544 2047 700 
Q 2206 819 2256 991 
Q 2291 1103 2291 1419 
L 2291 1594 
z
" transform="scale(0.015625)"/>
       <path id="Arial-BoldMT-6c" d="M 459 0 
L 459 4581 
L 1338 4581 
L 1338 0 
L 459 0 
z
" transform="scale(0.015625)"/>
       <path id="Arial-BoldMT-20" transform="scale(0.015625)"/>
       <path id="Arial-BoldMT-53" d="M 231 1491 
L 1131 1578 
Q 1213 1125 1461 912 
Q 1709 700 2131 700 
Q 2578 700 2804 889 
Q 3031 1078 3031 1331 
Q 3031 1494 2936 1608 
Q 2841 1722 2603 1806 
Q 2441 1863 1863 2006 
Q 1119 2191 819 2459 
Q 397 2838 397 3381 
Q 397 3731 595 4036 
Q 794 4341 1167 4500 
Q 1541 4659 2069 4659 
Q 2931 4659 3367 4281 
Q 3803 3903 3825 3272 
L 2900 3231 
Q 2841 3584 2645 3739 
Q 2450 3894 2059 3894 
Q 1656 3894 1428 3728 
Q 1281 3622 1281 3444 
Q 1281 3281 1419 3166 
Q 1594 3019 2269 2859 
Q 2944 2700 3267 2529 
Q 3591 2359 3773 2064 
Q 3956 1769 3956 1334 
Q 3956 941 3737 597 
Q 3519 253 3119 86 
Q 2719 -81 2122 -81 
Q 1253 -81 787 320 
Q 322 722 231 1491 
z
" transform="scale(0.015625)"/>
       <path id="Arial-BoldMT-66" d="M 75 3319 
L 563 3319 
L 563 3569 
Q 563 3988 652 4194 
Q 741 4400 980 4529 
Q 1219 4659 1584 4659 
Q 1959 4659 2319 4547 
L 2200 3934 
Q 1991 3984 1797 3984 
Q 1606 3984 1523 3895 
Q 1441 3806 1441 3553 
L 1441 3319 
L 2097 3319 
L 2097 2628 
L 1441 2628 
L 1441 0 
L 563 0 
L 563 2628 
L 75 2628 
L 75 3319 
z
" transform="scale(0.015625)"/>
       <path id="Arial-BoldMT-74" d="M 1981 3319 
L 1981 2619 
L 1381 2619 
L 1381 1281 
Q 1381 875 1398 808 
Q 1416 741 1477 697 
Q 1538 653 1625 653 
Q 1747 653 1978 738 
L 2053 56 
Q 1747 -75 1359 -75 
Q 1122 -75 931 4 
Q 741 84 652 211 
Q 563 338 528 553 
Q 500 706 500 1172 
L 500 2619 
L 97 2619 
L 97 3319 
L 500 3319 
L 500 3978 
L 1381 4491 
L 1381 3319 
L 1981 3319 
z
" transform="scale(0.015625)"/>
       <path id="Arial-BoldMT-2f" d="M -9 -78 
L 1125 4659 
L 1784 4659 
L 638 -78 
L -9 -78 
z
" transform="scale(0.015625)"/>
       <path id="Arial-BoldMT-70" d="M 434 3319 
L 1253 3319 
L 1253 2831 
Q 1413 3081 1684 3237 
Q 1956 3394 2288 3394 
Q 2866 3394 3269 2941 
Q 3672 2488 3672 1678 
Q 3672 847 3265 386 
Q 2859 -75 2281 -75 
Q 2006 -75 1782 34 
Q 1559 144 1313 409 
L 1313 -1263 
L 434 -1263 
L 434 3319 
z
M 1303 1716 
Q 1303 1156 1525 889 
Q 1747 622 2066 622 
Q 2372 622 2575 867 
Q 2778 1113 2778 1672 
Q 2778 2194 2568 2447 
Q 2359 2700 2050 2700 
Q 1728 2700 1515 2451 
Q 1303 2203 1303 1716 
z
" transform="scale(0.015625)"/>
      </defs>
      <use xlink:href="#Arial-BoldMT-43"/>
      <use xlink:href="#Arial-BoldMT-68" x="72.216797"/>
      <use xlink:href="#Arial-BoldMT-65" x="133.300781"/>
      <use xlink:href="#Arial-BoldMT-6d" x="188.916016"/>
      <use xlink:href="#Arial-BoldMT-69" x="277.832031"/>
      <use xlink:href="#Arial-BoldMT-63" x="305.615234"/>
      <use xlink:href="#Arial-BoldMT-61" x="361.230469"/>
      <use xlink:href="#Arial-BoldMT-6c" x="416.845703"/>
      <use xlink:href="#Arial-BoldMT-20" x="444.628906"/>
      <use xlink:href="#Arial-BoldMT-53" x="472.412109"/>
      <use xlink:href="#Arial-BoldMT-68" x="539.111328"/>
      <use xlink:href="#Arial-BoldMT-69" x="600.195312"/>
      <use xlink:href="#Arial-BoldMT-66" x="627.978516"/>
      <use xlink:href="#Arial-BoldMT-74" x="661.279297"/>
      <use xlink:href="#Arial-BoldMT-20" x="694.580078"/>
      <use xlink:href="#Arial-BoldMT-2f" x="722.363281"/>
      <use xlink:href="#Arial-BoldMT-20" x="750.146484"/>
      <use xlink:href="#Arial-BoldMT-70" x="777.929688"/>
      <use xlink:href="#Arial-BoldMT-70" x="839.013672"/>
      <use xlink:href="#Arial-BoldMT-6d" x="900.097656"/>
     </g>
    </g>
   </g>
   <g id="matplotlib.axis_2"/>
   <g id="line2d_12">
    <path d="M 2.912029 186.716553 
L 3.321268 185.455304 
L 3.935127 183.114647 
L 4.139747 182.749652 
L 4.344367 182.649113 
L 4.548986 182.740208 
L 4.958226 183.267653 
L 5.367465 184.078827 
L 6.185944 186.409384 
L 6.390564 186.540224 
L 6.595184 186.301135 
L 7.209043 185.020649 
L 7.618282 184.542472 
L 8.027522 183.799338 
L 8.436761 183.532069 
L 9.05062 182.503162 
L 9.25524 182.68724 
L 9.869099 184.031642 
L 10.278339 184.261016 
L 10.482958 184.120577 
L 11.096818 183.371815 
L 11.506057 183.244946 
L 11.915297 183.391592 
L 12.119916 183.481529 
L 12.324536 183.378099 
L 13.143015 182.117775 
L 13.347635 182.348691 
L 14.166114 184.557545 
L 14.984592 184.985337 
L 15.189212 184.707891 
L 16.212311 181.808448 
L 16.62155 179.322803 
L 17.03079 176.850111 
L 17.644649 174.955249 
L 18.463128 172.994235 
L 18.667748 173.034559 
L 18.872367 173.683591 
L 19.690846 178.227204 
L 19.895466 178.642005 
L 20.509325 178.974925 
L 21.123184 180.277963 
L 21.532424 181.105984 
L 21.737043 180.986286 
L 22.146283 179.287915 
L 22.350903 178.39509 
L 22.555522 178.001878 
L 22.760142 178.194513 
L 23.169382 179.034524 
L 23.578621 179.072843 
L 23.783241 179.328354 
L 24.19248 180.875685 
L 25.010959 185.226893 
L 25.215579 185.248212 
L 25.420199 184.631099 
L 25.829438 182.115076 
L 26.443297 178.17439 
L 26.852537 177.045253 
L 27.261776 176.037625 
L 28.080255 172.962624 
L 28.284875 172.722494 
L 28.489494 172.719526 
L 29.103354 172.961429 
L 29.512593 172.876773 
L 29.717213 173.132708 
L 31.354171 176.958823 
L 31.55879 176.885115 
L 31.96803 176.3675 
L 33.400368 173.373994 
L 34.423466 170.192517 
L 34.628086 170.193365 
L 35.446565 171.858082 
L 35.855805 171.708892 
L 36.469664 170.919228 
L 36.878903 170.276942 
L 37.083523 170.293017 
L 37.288143 170.748836 
L 38.106622 174.290064 
L 38.311241 174.338406 
L 38.515861 174.019865 
L 38.9251 172.682595 
L 39.33434 170.060752 
L 40.152819 163.297222 
L 40.357439 162.416078 
L 40.562058 162.22961 
L 40.766678 162.600657 
L 41.585157 164.8816 
L 41.994396 165.728087 
L 42.199016 165.878664 
L 42.403636 165.701564 
L 42.812875 164.659666 
L 43.222115 163.499958 
L 43.835974 162.725637 
L 44.654453 159.831321 
L 45.063692 159.396589 
L 45.677551 158.128362 
L 45.882171 158.128941 
L 46.49603 158.689384 
L 46.70065 158.585684 
L 46.90527 158.652145 
L 47.723749 160.384594 
L 47.928368 160.274379 
L 48.132988 159.912238 
L 48.951467 157.396447 
L 49.156087 157.317534 
L 49.565326 157.846174 
L 49.974566 158.342278 
L 50.383805 158.485608 
L 50.588425 158.74428 
L 51.406904 160.60356 
L 52.020763 160.209615 
L 52.225383 160.529312 
L 53.043862 163.219003 
L 53.248481 163.167654 
L 53.657721 162.544181 
L 53.862341 162.631998 
L 54.06696 163.251347 
L 54.885439 166.768212 
L 55.090059 166.833708 
L 55.499298 166.003374 
L 55.908538 165.296015 
L 56.317777 165.659544 
L 57.136256 166.473418 
L 57.340876 166.804179 
L 57.750115 168.349544 
L 58.159355 170.291244 
L 58.363975 170.817841 
L 58.568594 170.927401 
L 58.977834 170.210366 
L 59.182453 169.89514 
L 59.387073 169.880375 
L 59.796313 170.147452 
L 60.000932 169.857322 
L 60.614792 167.927765 
L 60.819411 167.947118 
L 61.228651 169.345336 
L 61.84251 171.40234 
L 62.251749 172.484986 
L 62.865609 174.492877 
L 63.070228 174.650664 
L 63.479468 174.665737 
L 63.888707 175.017045 
L 64.297947 176.124171 
L 64.707186 177.339661 
L 64.911806 177.491164 
L 65.116426 177.324549 
L 65.525665 176.681454 
L 65.730285 176.616149 
L 65.934904 176.85759 
L 66.344144 178.152262 
L 67.367243 182.2655 
L 67.571862 182.530957 
L 67.776482 182.39765 
L 68.185721 181.619358 
L 68.799581 180.28282 
L 69.20882 179.569062 
L 69.822679 178.113673 
L 70.027299 177.978516 
L 70.231919 178.120073 
L 70.641158 179.029821 
L 72.278116 184.941081 
L 72.482736 185.374772 
L 73.301215 185.906997 
L 74.119693 187.404598 
L 74.528933 187.836207 
L 75.961271 190.270079 
L 76.165891 190.489044 
L 76.37051 190.504657 
L 76.57513 190.249185 
L 76.98437 188.779378 
L 77.802849 184.792894 
L 78.007468 184.381678 
L 78.212088 184.509126 
L 78.621327 186.254644 
L 79.235187 189.39838 
L 79.644426 190.488351 
L 79.849046 190.600994 
L 80.053666 190.544017 
L 80.258285 190.293016 
L 80.872144 188.922824 
L 81.281384 188.720204 
L 81.486004 188.666195 
L 81.690623 188.377106 
L 82.099863 187.29261 
L 82.304483 187.080005 
L 83.122961 187.533703 
L 83.532201 186.96898 
L 83.94144 186.431011 
L 84.35068 186.489993 
L 84.5553 186.692343 
L 85.373778 188.220785 
L 85.783018 187.267591 
L 86.192257 186.321875 
L 86.396877 186.163125 
L 86.601497 186.293348 
L 87.419976 187.728074 
L 88.647694 186.754911 
L 89.261553 185.363708 
L 89.875412 183.948065 
L 90.080032 183.750688 
L 90.284652 183.912791 
L 90.898511 185.345667 
L 91.103131 185.384602 
L 91.307751 185.013248 
L 91.92161 183.481337 
L 92.126229 183.577365 
L 92.740089 184.863711 
L 92.944708 184.535571 
L 93.353948 183.609709 
L 93.558568 183.778405 
L 93.967807 185.565827 
L 94.786286 190.074398 
L 96.014004 195.152934 
L 96.218624 195.079881 
L 96.423244 194.575104 
L 98.060202 187.464004 
L 98.264821 187.194885 
L 98.469441 187.19315 
L 99.0833 187.861766 
L 99.28792 187.84704 
L 99.49254 187.456603 
L 99.901779 185.418064 
L 100.311019 183.50998 
L 100.720258 182.385005 
L 101.129497 181.878648 
L 101.334117 181.862032 
L 101.538737 182.069587 
L 101.743357 182.588859 
L 102.766455 186.428004 
L 102.971075 186.646314 
L 103.175695 186.476115 
L 103.584934 185.069647 
L 104.198793 182.672822 
L 104.608033 181.84268 
L 104.812653 181.665272 
L 105.017272 181.674061 
L 105.631131 182.389863 
L 106.44961 183.650264 
L 106.85885 184.919609 
L 107.677329 188.550852 
L 107.881948 188.601237 
L 108.086568 188.097038 
L 108.495808 185.689921 
L 108.905047 183.156319 
L 109.109667 182.632151 
L 109.314286 182.680725 
L 109.928146 183.993323 
L 110.132765 183.912599 
L 110.542005 182.505282 
L 110.951244 181.0859 
L 111.155864 180.891645 
L 111.360484 181.162306 
L 111.769723 182.647302 
L 112.383582 186.117135 
L 112.792822 188.389905 
L 113.202061 189.543599 
L 113.406681 189.548919 
L 113.81592 188.944682 
L 114.02054 188.904243 
L 114.634399 189.552273 
L 114.839019 189.112067 
L 115.248259 186.940877 
L 115.862118 183.809862 
L 116.271357 182.985118 
L 116.475977 183.031262 
L 116.680597 183.371661 
L 117.499076 185.760545 
L 117.703695 185.696937 
L 118.112935 185.14189 
L 118.317554 185.231404 
L 118.931414 186.563817 
L 119.340653 187.755868 
L 119.954512 189.968307 
L 120.159132 190.058014 
L 121.38685 189.180725 
L 122.00071 187.926685 
L 122.819188 185.77743 
L 123.228428 184.719379 
L 123.433048 184.433182 
L 123.637667 184.407006 
L 124.456146 185.194665 
L 124.865386 186.571912 
L 125.274625 188.175874 
L 125.683865 189.026293 
L 125.888484 189.115151 
L 126.093104 188.793141 
L 126.502344 186.831279 
L 126.911583 184.881637 
L 127.116203 184.582949 
L 127.320822 184.71961 
L 127.730062 185.698325 
L 128.139301 186.700747 
L 128.343921 186.852404 
L 128.95778 186.820677 
L 129.1624 186.652637 
L 129.980879 184.933564 
L 130.185499 184.914443 
L 130.594738 185.124311 
L 131.003978 184.935646 
L 131.413217 184.596211 
L 131.617837 184.226128 
L 132.231696 182.527333 
L 132.436316 182.309524 
L 133.050175 182.085007 
L 133.459414 180.764699 
L 133.868654 179.416673 
L 134.687133 178.3225 
L 135.300992 176.911714 
L 135.505612 177.185229 
L 135.914851 179.325578 
L 136.32409 181.385512 
L 136.73333 182.151237 
L 137.142569 182.336124 
L 137.551809 182.469662 
L 137.961048 183.017962 
L 138.574907 184.73742 
L 139.188767 187.162079 
L 139.598006 188.640405 
L 139.802626 188.924212 
L 140.007246 188.837898 
L 140.621105 187.783046 
L 141.030344 187.681428 
L 141.234964 187.378037 
L 141.848823 186.138607 
L 142.053443 186.232092 
L 142.462682 187.147776 
L 142.871922 188.092836 
L 143.076541 188.225681 
L 143.690401 187.945844 
L 144.30426 188.547845 
L 144.50888 188.196575 
L 145.122739 186.106957 
L 145.327358 186.118985 
L 145.736598 187.160691 
L 146.350457 188.871282 
L 146.555077 189.244719 
L 146.759696 189.308404 
L 146.964316 189.022862 
L 147.987415 186.28267 
L 148.396654 186.060157 
L 148.805894 186.163357 
L 149.419753 185.764824 
L 149.624373 185.529513 
L 150.442852 183.899299 
L 150.647471 184.362288 
L 151.26133 186.399477 
L 151.46595 186.637486 
L 151.67057 186.562429 
L 152.079809 185.514401 
L 152.284429 184.924389 
L 152.489049 184.717991 
L 152.693669 185.091967 
L 153.512147 188.541716 
L 153.716767 188.367391 
L 153.921387 187.544497 
L 154.535246 182.685698 
L 155.149105 178.304035 
L 155.967584 174.930924 
L 156.172204 174.405715 
L 156.376824 174.205832 
L 156.581443 174.329578 
L 157.809162 176.768037 
L 158.83226 180.030894 
L 159.03688 180.136599 
L 159.2415 179.794465 
L 159.855359 177.849488 
L 160.059979 177.896134 
L 160.469218 178.497094 
L 160.673838 178.324775 
L 160.878458 177.647022 
L 161.492317 173.793267 
L 162.106176 170.850069 
L 162.515415 169.274558 
L 162.720035 168.843296 
L 162.924655 168.808061 
L 163.129275 169.194682 
L 163.538514 171.46059 
L 163.947754 174.397658 
L 164.356993 175.725214 
L 164.970852 176.826325 
L 165.380092 177.54363 
L 165.584711 177.615874 
L 165.789331 177.361326 
L 166.60781 175.660796 
L 166.81243 175.590172 
L 167.017049 175.81122 
L 167.426289 177.080603 
L 168.244768 179.625345 
L 168.449388 179.819138 
L 168.654007 179.69543 
L 169.063247 179.045087 
L 169.472486 177.729867 
L 170.086345 174.771249 
L 170.290965 174.334436 
L 170.495585 174.246271 
L 170.700205 174.446578 
L 171.927923 177.378211 
L 172.132543 177.858586 
L 172.337162 177.988154 
L 172.541782 177.638002 
L 173.360261 175.035434 
L 173.564881 174.871672 
L 173.7695 174.903939 
L 173.97412 175.113498 
L 174.38336 176.105011 
L 174.792599 177.187233 
L 174.997219 177.410015 
L 175.201839 177.349029 
L 175.815698 176.631338 
L 176.020317 176.673435 
L 176.429557 177.276978 
L 176.838796 177.838386 
L 177.861895 177.462829 
L 178.066515 176.747105 
L 178.884994 171.840541 
L 179.089613 171.491199 
L 179.294233 171.468223 
L 179.703473 171.955807 
L 180.112712 173.092847 
L 180.521951 174.264004 
L 181.34043 175.276103 
L 182.363529 177.585535 
L 182.568149 177.344441 
L 183.182008 176.002043 
L 184.205107 175.6155 
L 184.409726 175.513843 
L 184.614346 175.622709 
L 184.818966 176.020625 
L 185.432825 178.404227 
L 185.842064 179.749053 
L 186.046684 179.977579 
L 186.251304 179.844349 
L 186.660543 178.824232 
L 187.069783 177.741663 
L 187.274402 177.650299 
L 187.888262 178.308082 
L 188.092881 178.24035 
L 188.502121 177.42663 
L 189.729839 174.199047 
L 190.343698 172.633559 
L 190.548318 172.600868 
L 190.957557 173.630855 
L 191.366797 174.400357 
L 191.776036 174.650317 
L 192.185276 175.556325 
L 192.594515 176.42841 
L 192.799135 176.516189 
L 193.003755 176.256514 
L 193.412994 174.805751 
L 193.822234 173.43818 
L 194.026853 173.315166 
L 194.231473 173.605334 
L 195.049952 175.392448 
L 195.459191 176.211063 
L 195.868431 177.914715 
L 196.68691 182.109872 
L 196.89153 182.331421 
L 197.096149 182.106904 
L 197.505389 180.912616 
L 198.119248 179.139419 
L 198.323868 179.076621 
L 198.733107 179.488877 
L 198.937727 179.452332 
L 199.142347 179.105225 
L 199.551586 177.654809 
L 200.165445 174.79569 
L 200.574685 173.864739 
L 200.983924 173.522374 
L 201.393164 173.751825 
L 201.597783 173.654987 
L 201.802403 173.202715 
L 202.416262 170.8769 
L 202.620882 170.64953 
L 202.825502 170.922389 
L 203.439361 172.24848 
L 203.643981 172.339613 
L 203.8486 172.121843 
L 204.25784 170.928326 
L 204.667079 169.163764 
L 205.485558 164.847984 
L 205.690178 164.707198 
L 205.894798 165.276432 
L 207.531755 172.703605 
L 207.736375 173.268328 
L 208.145615 173.532821 
L 208.554854 173.776305 
L 208.759474 173.679929 
L 209.168713 172.824884 
L 210.191812 169.858016 
L 210.805671 168.011651 
L 211.62415 166.792922 
L 211.82877 166.869714 
L 212.647249 168.349814 
L 212.851868 168.352859 
L 213.056488 167.983817 
L 213.465727 165.637378 
L 213.874967 162.925559 
L 214.079587 162.404976 
L 214.284206 162.564227 
L 214.898066 164.45319 
L 215.102685 164.473468 
L 215.511925 163.978521 
L 215.716544 164.062483 
L 216.535023 165.250372 
L 216.944263 164.884182 
L 217.353502 164.878747 
L 217.558122 164.651609 
L 217.967361 163.330298 
L 218.376601 162.160413 
L 219.3997 160.812155 
L 219.808939 160.575842 
L 220.627418 160.31185 
L 221.036657 159.826425 
L 221.445897 158.969568 
L 223.287474 154.008957 
L 224.310573 146.02107 
L 224.515193 145.538922 
L 224.719812 145.372346 
L 224.924432 145.531751 
L 225.333672 146.80206 
L 225.947531 150.208594 
L 227.379869 160.546274 
L 227.789108 162.456672 
L 228.198348 163.339319 
L 228.812207 163.488662 
L 229.426066 164.126631 
L 229.630686 164.046485 
L 230.039925 163.267692 
L 230.449165 161.893645 
L 232.086123 154.815737 
L 232.495362 154.160884 
L 232.699982 153.942727 
L 232.904601 153.455259 
L 233.313841 151.58665 
L 234.33694 145.956652 
L 234.950799 144.12856 
L 235.155418 143.753196 
L 235.360038 143.697413 
L 235.564658 144.156509 
L 235.973897 146.918173 
L 236.383137 150.309056 
L 236.792376 151.791352 
L 237.201616 152.058274 
L 237.610855 152.053147 
L 237.815475 151.925276 
L 238.224714 151.254038 
L 239.043193 149.323286 
L 239.657052 146.339958 
L 240.066292 144.952996 
L 240.270912 145.006041 
L 240.475531 145.612591 
L 241.29401 149.160142 
L 241.49863 148.994992 
L 241.907869 148.259993 
L 242.112489 148.046733 
L 242.317109 147.630544 
L 242.521729 146.716247 
L 244.772546 129.80347 
L 245.181785 126.636449 
L 245.386405 125.808081 
L 245.591025 125.660395 
L 246.614123 127.687407 
L 247.023363 128.997653 
L 247.432602 131.740159 
L 248.046461 135.737128 
L 248.455701 137.10628 
L 248.66032 137.407936 
L 248.86494 137.227328 
L 249.06956 136.455551 
L 249.478799 133.50634 
L 250.706518 123.063648 
L 251.320377 118.609356 
L 252.752715 103.274789 
L 253.980433 88.452324 
L 254.594293 81.316976 
L 255.208152 74.0223 
L 255.617391 71.392863 
L 255.822011 70.751193 
L 256.026631 70.558365 
L 256.23125 70.809366 
L 256.43587 71.469347 
L 256.84511 73.963549 
L 258.277448 86.193856 
L 258.891307 88.847001 
L 259.300546 89.664961 
L 259.505166 89.680613 
L 259.709786 89.429072 
L 259.914405 88.837017 
L 260.323645 86.35993 
L 260.937504 80.214631 
L 261.755983 67.771604 
L 264.21142 23.509951 
L 265.029899 8.255992 
L 265.439138 3.926256 
L 265.643758 3.00024 
L 265.848377 3.094341 
L 266.052997 4.137627 
L 266.462237 7.945508 
L 266.871476 13.30203 
L 267.485335 25.048222 
L 269.940772 74.347741 
L 270.759251 87.233017 
L 271.16849 93.062358 
L 272.191589 109.892291 
L 273.010068 119.470608 
L 273.419307 122.142489 
L 273.828547 123.041366 
L 274.237786 123.709558 
L 275.056265 125.650449 
L 275.260885 125.433912 
L 275.670124 123.669735 
L 276.079364 122.053785 
L 276.283984 121.752283 
L 276.488603 121.832584 
L 276.897843 122.29989 
L 277.102462 122.057602 
L 277.920941 119.377201 
L 278.125561 119.203069 
L 278.94404 119.334796 
L 279.14866 119.645665 
L 279.353279 120.634634 
L 280.376378 128.937399 
L 281.604096 134.130314 
L 282.831815 143.471277 
L 283.241054 144.499683 
L 283.854913 145.764132 
L 284.468773 146.851982 
L 284.673392 146.678583 
L 284.878012 145.983406 
L 285.287252 143.348765 
L 285.696491 140.693923 
L 286.10573 139.71702 
L 286.51497 139.301024 
L 286.71959 138.762785 
L 287.128829 136.556437 
L 289.788886 116.855936 
L 290.198125 116.204667 
L 290.607364 114.949856 
L 291.016604 112.862821 
L 291.835083 107.778078 
L 292.653562 105.103653 
L 293.062801 104.435461 
L 293.267421 104.50728 
L 293.67666 105.082681 
L 294.0859 106.129283 
L 294.495139 107.171104 
L 294.699759 107.310772 
L 295.108998 106.969987 
L 295.313618 106.815169 
L 295.518238 106.802987 
L 295.722858 106.962239 
L 296.132097 107.9344 
L 296.541337 109.526372 
L 296.950576 112.399639 
L 297.564435 116.943021 
L 298.178294 120.103372 
L 300.224492 128.890137 
L 300.838351 131.776126 
L 301.45221 133.271067 
L 301.861449 134.428539 
L 302.270689 137.098107 
L 303.089168 144.068306 
L 303.293787 144.710939 
L 303.498407 144.891701 
L 303.703027 144.722735 
L 304.112266 143.91102 
L 304.316886 143.856086 
L 304.726126 144.477093 
L 304.930745 144.535766 
L 305.544604 143.769541 
L 305.749224 144.048337 
L 306.363083 145.415676 
L 306.976943 146.403334 
L 307.386182 147.869633 
L 307.795421 150.573279 
L 310.046238 169.986813 
L 310.660098 172.818562 
L 311.069337 174.626878 
L 312.706295 183.313836 
L 313.320154 184.022351 
L 313.934013 185.598017 
L 314.138633 185.646783 
L 314.343253 185.400716 
L 314.752492 184.197331 
L 315.980211 178.395437 
L 316.18483 178.317373 
L 316.38945 178.691542 
L 316.798689 180.235558 
L 317.821788 184.623119 
L 318.026408 184.869532 
L 318.231028 184.706118 
L 319.254126 182.330187 
L 319.458746 182.371744 
L 319.663366 182.616731 
L 320.072605 183.660518 
L 321.709563 189.674747 
L 322.118802 190.421196 
L 322.732662 192.636757 
L 323.141901 193.939063 
L 323.55114 194.526106 
L 323.75576 194.529961 
L 324.778859 193.762503 
L 325.188098 193.351981 
L 325.392718 193.422605 
L 325.597338 193.733898 
L 326.006577 195.286164 
L 326.415817 196.629641 
L 326.620436 196.557436 
L 327.438915 195.413881 
L 327.848155 193.776149 
L 328.257394 192.079937 
L 328.462014 191.742314 
L 328.666634 191.897402 
L 329.280493 193.424494 
L 329.689732 193.873065 
L 330.508211 195.389594 
L 330.917451 195.623363 
L 331.32669 195.138979 
L 331.73593 194.294651 
L 332.349789 191.897132 
L 332.963648 189.877791 
L 333.168268 189.704662 
L 333.372887 190.023935 
L 334.395986 193.782587 
L 335.214465 195.278685 
L 335.419085 195.045571 
L 336.032944 193.535056 
L 336.237564 193.658532 
L 336.851423 194.713769 
L 337.056042 194.77915 
L 337.260662 194.615119 
L 337.465282 194.161151 
L 337.874521 192.342156 
L 338.283761 190.764563 
L 338.488381 190.721117 
L 338.89762 191.226357 
L 339.10224 191.154731 
L 339.511479 190.292669 
L 339.920719 189.584231 
L 340.125338 189.800267 
L 340.943817 192.356227 
L 341.557676 193.150054 
L 341.762296 192.992037 
L 341.966916 192.220646 
L 343.194634 184.376628 
L 343.399254 184.22474 
L 343.603874 184.547676 
L 344.831592 188.84819 
L 345.854691 190.477903 
L 346.05931 190.427441 
L 346.46855 189.79248 
L 346.877789 189.092985 
L 347.082409 189.098073 
L 347.491648 189.627099 
L 348.105508 191.147059 
L 348.719367 192.511855 
L 349.128606 192.929315 
L 349.333226 192.874381 
L 349.742465 192.340614 
L 350.151705 190.850299 
L 350.970184 187.037831 
L 351.174804 186.74562 
L 351.379423 186.883321 
L 351.584043 187.477111 
L 351.993282 189.916033 
L 352.402522 192.353143 
L 352.811761 193.37592 
L 353.425621 194.234165 
L 353.63024 194.39384 
L 353.83486 194.267935 
L 354.244099 192.906686 
L 354.653339 191.685684 
L 354.857959 191.615445 
L 355.267198 191.89185 
L 355.471818 191.456348 
L 356.290297 187.640989 
L 356.494916 187.531159 
L 357.313395 188.535972 
L 357.518015 188.423482 
L 358.745733 186.630779 
L 358.950353 186.840184 
L 359.359593 188.352126 
L 360.178072 192.063322 
L 360.382691 192.227739 
L 360.791931 191.782483 
L 360.99655 191.796516 
L 361.61041 192.526311 
L 362.019649 192.382441 
L 362.633508 192.056961 
L 363.042748 192.052297 
L 363.861227 192.336297 
L 364.065846 192.039459 
L 364.475086 190.575397 
L 365.088945 187.797387 
L 365.293565 187.765969 
L 365.702804 188.570667 
L 366.112044 189.810136 
L 366.930523 193.187911 
L 367.135142 193.495812 
L 367.339762 193.519058 
L 367.544382 193.286831 
L 368.56748 191.190313 
L 368.7721 191.069188 
L 368.97672 191.314753 
L 369.385959 192.231748 
L 369.590579 192.333868 
L 369.795199 192.077393 
L 370.409058 190.925549 
L 370.613678 190.880021 
L 370.818297 191.044978 
L 371.432157 191.871881 
L 372.046016 191.839923 
L 372.455255 192.406034 
L 373.069114 193.324764 
L 373.273734 193.34562 
L 373.478354 193.070487 
L 373.887593 191.528938 
L 374.706072 186.912735 
L 374.910692 186.532321 
L 375.115312 186.675574 
L 375.729171 188.252203 
L 375.933791 188.329265 
L 376.54765 188.083199 
L 376.752269 188.189906 
L 377.161509 188.992214 
L 377.570748 189.697646 
L 377.775368 189.7478 
L 377.979988 189.557631 
L 378.593847 188.365849 
L 378.798467 188.371593 
L 379.207706 188.62988 
L 379.412326 188.41955 
L 380.026185 187.155332 
L 380.230805 187.246272 
L 380.640044 188.527992 
L 381.049284 189.816535 
L 381.253903 189.976634 
L 381.458523 189.710984 
L 382.072382 188.236128 
L 382.277002 188.322557 
L 382.686241 189.414494 
L 383.095481 190.246679 
L 383.300101 190.187427 
L 383.70934 189.862333 
L 383.91396 189.877791 
L 384.527819 190.360749 
L 384.732439 190.252114 
L 385.141678 189.104935 
L 385.550918 187.961843 
L 385.755537 187.886862 
L 386.164777 188.527105 
L 386.574016 188.984697 
L 386.983256 188.786317 
L 387.392495 188.490791 
L 387.597115 188.471246 
L 388.006354 188.766425 
L 388.415594 189.095182 
L 388.620214 189.130263 
L 389.234073 188.84075 
L 389.643312 189.486198 
L 389.847932 189.761678 
L 390.052552 189.699342 
L 390.666411 188.451354 
L 390.871031 188.455363 
L 391.48489 189.281418 
L 391.689509 189.123709 
L 391.894129 188.655478 
L 392.507988 186.456608 
L 392.712608 186.250981 
L 392.917228 186.581164 
L 393.326467 188.840712 
L 393.735707 191.23214 
L 393.940326 191.728127 
L 394.349566 191.869299 
L 394.758805 192.08464 
L 394.963425 192.234331 
L 395.168045 192.204185 
L 395.577284 191.770263 
L 395.781904 191.752221 
L 396.191143 192.327777 
L 396.805003 193.266245 
L 397.009622 193.336753 
L 397.214242 193.179237 
L 397.623482 192.581014 
L 397.828101 192.658693 
L 398.237341 193.913196 
L 398.8512 195.701119 
L 399.465059 196.77698 
L 400.078918 197.502342 
L 400.283538 197.733798 
L 400.488158 197.678401 
L 400.897397 196.609171 
L 401.102017 196.004394 
L 401.306637 195.785004 
L 401.511256 196.031687 
L 402.125116 197.562596 
L 402.329735 197.65743 
L 402.534355 197.327247 
L 402.943594 195.577411 
L 403.762073 191.747827 
L 403.966693 191.504767 
L 404.171313 191.755151 
L 404.785172 193.227078 
L 404.989792 193.107341 
L 405.194411 192.460775 
L 405.603651 189.627639 
L 406.01289 186.966205 
L 406.21751 186.596276 
L 406.42213 186.921255 
L 407.035989 188.799617 
L 407.445228 189.909133 
L 408.263707 193.595271 
L 408.468327 193.928269 
L 408.672947 193.998315 
L 408.877567 193.886673 
L 409.286806 193.190031 
L 409.696045 192.251255 
L 410.105285 191.819646 
L 410.309905 191.831673 
L 411.128384 192.60823 
L 411.537623 193.25653 
L 411.946862 193.385519 
L 412.765341 193.509728 
L 412.969961 193.533668 
L 413.174581 193.711578 
L 413.58382 194.706406 
L 414.402299 197.138312 
L 414.606919 197.102383 
L 414.811539 196.633804 
L 415.834637 192.748091 
L 416.039257 192.736526 
L 416.448496 193.566821 
L 416.857736 194.533894 
L 417.062356 194.583238 
L 417.266975 194.16358 
L 417.880834 192.314323 
L 418.085454 192.206151 
L 418.494694 192.578277 
L 418.699313 192.793426 
L 418.903933 192.753835 
L 419.517792 191.671921 
L 419.722412 191.647287 
L 420.336271 192.04555 
L 421.15475 191.658544 
L 421.56399 191.3486 
L 421.973229 190.543979 
L 422.177849 190.038893 
L 422.382468 189.831762 
L 422.587088 190.075053 
L 423.610187 193.022684 
L 424.019426 194.216663 
L 424.224046 194.410648 
L 424.428666 194.211228 
L 425.451764 191.683872 
L 425.656384 191.630634 
L 426.474863 192.123538 
L 427.293342 191.768451 
L 427.702581 190.939273 
L 428.111821 190.082763 
L 428.316441 190.144058 
L 428.52106 190.658319 
L 429.544159 195.225331 
L 429.748779 195.499848 
L 429.953398 195.514882 
L 430.362638 195.281114 
L 430.567258 195.297073 
L 431.385736 195.911565 
L 432.204215 195.802352 
L 432.818075 196.594329 
L 433.022694 196.337545 
L 433.636553 194.269284 
L 434.045793 194.02742 
L 434.250413 193.683205 
L 435.068892 191.517334 
L 435.273511 191.318993 
L 435.478131 191.393434 
L 435.682751 191.763671 
L 436.50123 194.426068 
L 436.705849 194.558103 
L 437.115089 194.500509 
L 437.728948 194.887245 
L 437.933568 194.835087 
L 438.138187 194.626222 
L 438.342807 194.175569 
L 438.956666 192.102798 
L 439.161286 192.046514 
L 439.570526 192.435525 
L 439.775145 192.202489 
L 439.979765 191.792776 
L 440.184385 191.637457 
L 440.389004 191.969722 
L 441.207483 194.349315 
L 441.412103 194.247195 
L 441.821343 193.418172 
L 442.025962 193.279044 
L 442.230582 193.461618 
L 442.639821 194.138445 
L 442.844441 194.210303 
L 443.253681 193.845193 
L 443.66292 193.240532 
L 444.07216 191.492932 
L 444.890638 186.978733 
L 445.299878 186.313818 
L 445.504498 186.37122 
L 445.709117 186.76289 
L 446.322977 188.529495 
L 446.527596 188.576989 
L 446.936836 188.286513 
L 447.141455 188.52113 
L 447.550695 190.141398 
L 447.959934 191.986954 
L 448.369174 192.823765 
L 448.983033 193.641108 
L 449.392272 193.810729 
L 449.801512 193.754214 
L 450.006132 193.875301 
L 450.210751 194.229925 
L 450.824611 195.949884 
L 451.02923 195.984001 
L 451.43847 194.898001 
L 451.643089 194.412576 
L 451.847709 194.299431 
L 452.461568 194.716506 
L 452.666188 194.48906 
L 453.075428 193.35545 
L 453.689287 190.863483 
L 454.303146 187.218439 
L 454.507766 186.636099 
L 454.712385 186.598782 
L 454.917005 186.971216 
L 455.326244 188.3512 
L 455.940104 190.676399 
L 456.349343 191.291854 
L 456.963202 191.557157 
L 457.781681 192.527198 
L 458.60016 194.350202 
L 458.80478 194.240025 
L 459.418639 193.012584 
L 459.623259 193.072568 
L 460.441738 194.131352 
L 460.646357 194.078461 
L 461.464836 193.05896 
L 461.669456 192.958999 
L 461.874076 193.078852 
L 462.283315 193.622025 
L 462.487935 193.692727 
L 462.692555 193.484208 
L 463.101794 192.078742 
L 463.715653 189.27367 
L 464.124893 188.633658 
L 464.329512 188.603743 
L 464.534132 188.780034 
L 465.352611 190.434881 
L 465.557231 190.4833 
L 465.761851 190.346447 
L 466.37571 189.550499 
L 466.580329 189.693752 
L 466.989569 190.865642 
L 467.398808 191.869684 
L 467.808048 192.218795 
L 468.012668 192.939377 
L 468.831146 197.567993 
L 469.035766 197.771076 
L 469.240386 197.511825 
L 469.649625 195.902621 
L 470.058865 194.455058 
L 470.263485 194.241605 
L 470.672724 194.299045 
L 471.286583 193.645541 
L 471.491203 193.907683 
L 472.105062 195.969429 
L 472.514302 197.063447 
L 472.718921 196.971042 
L 474.765119 192.316713 
L 475.174358 191.528476 
L 475.583597 191.003768 
L 475.788217 190.312137 
L 476.197457 187.613888 
L 476.811316 182.895642 
L 477.220555 181.171713 
L 477.629795 180.173029 
L 477.834414 179.994272 
L 478.039034 180.115743 
L 478.243654 180.507376 
L 478.652893 182.084236 
L 479.471372 186.576924 
L 480.085231 188.670011 
L 480.494471 189.224865 
L 480.90371 189.453006 
L 481.10833 189.812179 
L 481.51757 191.441082 
L 482.336048 196.442942 
L 482.745288 197.460245 
L 482.949908 197.417416 
L 483.563767 196.8961 
L 484.382246 196.740588 
L 485.405344 197.194325 
L 485.814584 197.622734 
L 486.019204 197.58484 
L 486.428443 196.971813 
L 487.042302 195.772013 
L 487.451542 195.07113 
L 488.270021 192.718561 
L 488.88388 193.738216 
L 489.088499 193.57218 
L 489.497739 193.057148 
L 489.702359 193.308303 
L 490.316218 195.113536 
L 490.520838 194.775295 
L 491.134697 192.299096 
L 491.339316 192.012397 
L 491.748556 191.994317 
L 492.771655 192.482402 
L 493.180894 192.351216 
L 493.385514 192.070068 
L 494.408612 189.76349 
L 494.817852 189.409367 
L 495.022471 189.416961 
L 495.227091 189.913951 
L 495.636331 192.580898 
L 496.04557 195.244953 
L 496.25019 195.941711 
L 496.45481 196.12949 
L 496.659429 195.934888 
L 497.068669 195.242756 
L 497.273288 195.113227 
L 497.477908 195.334776 
L 498.091767 197.234957 
L 498.296387 197.288311 
L 498.910246 195.818504 
L 499.114866 195.976137 
L 499.319486 196.386003 
L 499.524105 196.534653 
L 499.728725 196.218733 
L 500.956444 192.87469 
L 501.365683 192.781822 
L 501.979542 192.887912 
L 502.798021 192.155689 
L 503.207261 193.100479 
L 503.6165 193.960767 
L 503.82112 193.934977 
L 504.230359 193.165821 
L 504.434979 192.740265 
L 504.639599 192.647127 
L 504.844218 193.05418 
L 505.458078 195.244645 
L 505.867317 195.80879 
L 506.276556 195.954548 
L 506.481176 195.837163 
L 506.890416 195.169973 
L 507.299655 194.04816 
L 507.913514 191.99212 
L 508.118134 191.764519 
L 508.322754 191.988573 
L 508.731993 193.688139 
L 509.141233 195.497728 
L 509.345852 195.788859 
L 509.550472 195.586779 
L 510.368951 193.406915 
L 510.573571 193.372181 
L 511.39205 194.006564 
L 512.005909 195.325986 
L 512.210529 195.280882 
L 512.415148 194.687439 
L 513.029007 192.110353 
L 513.233627 191.784102 
L 513.438247 191.741196 
L 513.847486 191.899136 
L 514.461346 191.463788 
L 514.665965 191.638498 
L 515.075205 192.177893 
L 515.279824 192.114748 
L 515.689064 191.876662 
L 515.893684 192.135951 
L 516.302923 193.130317 
L 516.507543 193.260347 
L 516.916782 192.574383 
L 517.735261 191.268261 
L 517.939881 191.033837 
L 518.144501 191.004307 
L 518.34912 191.16433 
L 518.75836 192.044972 
L 519.167599 193.204179 
L 519.372219 193.340416 
L 519.576839 193.094542 
L 519.986078 191.877702 
L 520.395318 190.677671 
L 520.599937 190.586422 
L 521.009177 191.166141 
L 521.418416 191.762823 
L 521.623036 191.829862 
L 521.827656 191.694203 
L 522.236895 190.992048 
L 522.646135 190.276093 
L 522.850754 190.290511 
L 523.464614 191.351723 
L 523.669233 191.069573 
L 524.283092 189.292405 
L 524.487712 189.420045 
L 525.101571 190.853075 
L 525.306191 190.915642 
L 525.510811 190.603616 
L 526.12467 188.822053 
L 526.738529 186.852674 
L 527.147769 186.128584 
L 527.352388 186.041229 
L 527.557008 186.269871 
L 527.966248 187.156527 
L 528.170867 187.270636 
L 528.375487 187.078386 
L 528.989346 186.064282 
L 529.193966 185.932864 
L 529.398586 186.001869 
L 529.603205 186.364743 
L 530.421684 189.225135 
L 531.240163 190.065069 
L 531.649403 190.405853 
L 531.854022 190.386693 
L 532.467881 189.630761 
L 532.877121 189.671355 
L 533.081741 189.729951 
L 533.28636 189.641015 
L 533.6956 189.243639 
L 533.90022 189.30663 
L 534.309459 190.161367 
L 534.718698 191.337151 
L 534.923318 191.630981 
L 535.127938 191.598791 
L 535.537177 191.264098 
L 536.355656 191.423657 
L 536.764896 190.999103 
L 537.583375 189.739473 
L 537.787994 189.62972 
L 537.992614 189.697415 
L 538.606473 190.577787 
L 539.015713 190.927091 
L 539.220332 190.795712 
L 539.629572 189.997567 
L 540.448051 187.988828 
L 541.06191 187.128617 
L 541.471149 185.386607 
L 542.698868 177.095908 
L 543.721966 170.821233 
L 544.131206 169.144027 
L 544.540445 165.725118 
L 544.949685 159.832207 
L 546.177403 137.98168 
L 546.382023 136.960406 
L 546.586643 138.132218 
L 546.995882 146.35372 
L 547.814361 166.748165 
L 548.63284 182.208792 
L 549.042079 186.831163 
L 549.451319 189.52016 
L 549.860558 190.701765 
L 550.474417 191.872807 
L 551.497516 194.792682 
L 552.520615 196.775785 
L 552.725234 196.695485 
L 553.339094 195.954895 
L 553.543713 195.934271 
L 554.362192 196.422163 
L 554.566812 196.273128 
L 554.976051 195.169086 
L 555.385291 194.060535 
L 555.589911 193.926187 
L 555.79453 194.2428 
L 556.20377 195.820355 
L 556.817629 198.423501 
L 557.226868 199.070914 
L 557.840728 199.8935 
L 558.454587 200.838753 
L 559.068446 202.072207 
L 559.477685 202.663684 
L 559.886925 202.894986 
L 560.091545 202.646067 
L 560.500784 200.807797 
L 560.910024 198.682135 
L 561.114643 198.21425 
L 561.319263 198.220534 
L 561.523883 198.62481 
L 562.342362 201.772595 
L 562.546981 201.683351 
L 563.57008 199.405338 
L 564.183939 198.393354 
L 564.388559 198.423925 
L 564.593179 198.791001 
L 565.207038 200.258494 
L 565.820897 200.594228 
L 566.230136 201.612071 
L 567.048615 204.123159 
L 567.457855 204.788961 
L 567.662475 204.831405 
L 567.867094 204.689578 
L 568.276334 203.920693 
L 569.504052 200.67769 
L 569.708672 200.552324 
L 569.913292 200.646387 
L 570.117911 200.936593 
L 570.527151 202.180611 
L 571.550249 206.147396 
L 571.959489 208.33709 
L 572.164108 208.839361 
L 572.368728 208.655284 
L 573.391827 205.295165 
L 573.596447 205.05596 
L 573.801066 204.571614 
L 574.824165 200.606025 
L 575.028785 200.705215 
L 575.642644 201.488865 
L 575.847264 201.890211 
L 576.256503 203.462099 
L 576.665742 204.982715 
L 577.074982 205.502719 
L 577.279602 205.472149 
L 577.484221 205.269143 
L 577.893461 204.315641 
L 579.325799 199.667595 
L 579.530419 199.542962 
L 579.735038 199.652175 
L 580.144278 200.443651 
L 581.576616 205.007387 
L 581.781236 204.963208 
L 582.190475 204.007701 
L 583.418193 200.325687 
L 583.622813 200.150399 
L 583.827433 200.314507 
L 584.236672 201.74877 
L 584.850532 204.029945 
L 585.055151 204.313482 
L 585.259771 204.365448 
L 585.87363 204.010322 
L 586.28287 203.724781 
L 587.101349 202.800692 
L 587.510588 203.369386 
L 587.919827 203.910323 
L 588.124447 203.819383 
L 588.942926 202.239708 
L 589.147546 202.33886 
L 589.761405 203.170389 
L 589.966025 203.108439 
L 590.579884 202.41862 
L 590.784504 202.675018 
L 591.807602 205.392041 
L 592.216842 205.22296 
L 592.421461 205.397708 
L 592.830701 206.467825 
L 593.23994 207.554095 
L 593.44456 207.581234 
L 593.64918 207.189487 
L 594.058419 205.545587 
L 595.286138 198.329245 
L 595.490757 197.934529 
L 595.695377 197.842008 
L 595.899997 198.110241 
L 596.309236 199.776808 
L 596.923095 202.781802 
L 597.332335 203.829522 
L 597.536955 203.808358 
L 597.946194 203.385577 
L 598.150814 203.500225 
L 598.764673 204.271847 
L 598.969293 204.134531 
L 599.378532 203.035463 
L 600.401631 199.794117 
L 600.606251 199.336911 
L 600.81087 199.178354 
L 601.424729 199.601829 
L 602.038589 198.747863 
L 602.243208 199.165902 
L 603.061687 202.749574 
L 603.470927 203.099611 
L 603.675546 203.201615 
L 603.880166 203.135154 
L 604.084786 202.69013 
L 604.494025 200.615045 
L 604.903265 198.526623 
L 605.107885 198.202376 
L 605.517124 198.41926 
L 606.130983 198.785257 
L 606.335603 199.289687 
L 607.358702 203.457357 
L 607.563321 203.4525 
L 607.767941 203.136272 
L 608.995659 199.51139 
L 609.814138 196.455856 
L 610.018758 196.423551 
L 610.223378 196.805122 
L 610.632617 198.288151 
L 611.041857 200.118942 
L 611.246476 200.557837 
L 611.451096 200.540836 
L 611.655716 200.388871 
L 611.860335 200.456527 
L 612.678814 201.950697 
L 613.292674 201.740713 
L 613.497293 201.918623 
L 613.906533 203.100574 
L 614.315772 204.077438 
L 614.520392 204.204462 
L 614.725012 204.183298 
L 614.929631 203.945789 
L 615.134251 203.341321 
L 615.95273 199.62014 
L 616.15735 199.282362 
L 616.361969 199.231977 
L 616.566589 199.50792 
L 616.975829 200.481777 
L 617.180448 200.690835 
L 617.794308 200.540759 
L 618.408167 201.196962 
L 618.612786 200.855252 
L 619.226646 199.10372 
L 619.431265 199.246125 
L 619.840505 200.582702 
L 620.454364 203.180605 
L 620.658984 203.619114 
L 620.863603 203.75404 
L 621.068223 203.606547 
L 621.682082 202.652505 
L 622.091322 202.380841 
L 622.295942 201.920897 
L 623.31904 198.021845 
L 623.52366 198.079093 
L 623.72828 198.615443 
L 624.751378 202.786313 
L 624.955998 202.89302 
L 625.160618 202.608711 
L 625.569857 201.520244 
L 626.388336 198.847053 
L 626.592956 198.697169 
L 626.797576 198.89952 
L 627.411435 200.393497 
L 627.616054 200.286057 
L 628.025294 198.984561 
L 628.434533 197.864637 
L 628.639153 197.693975 
L 629.457632 197.691161 
L 629.662252 197.461517 
L 630.276111 195.77448 
L 630.68535 194.952318 
L 630.88997 194.853668 
L 631.09459 195.00066 
L 631.708449 196.034347 
L 631.913069 196.030647 
L 632.731548 195.130228 
L 632.936167 195.097344 
L 633.140787 195.184391 
L 633.550027 195.939437 
L 633.959266 196.533651 
L 634.163886 196.450999 
L 634.982365 195.594759 
L 635.186984 195.61758 
L 635.800844 196.17043 
L 636.210083 196.916532 
L 636.619322 197.69413 
L 636.823942 197.699951 
L 637.437801 197.048605 
L 637.642421 197.160285 
L 638.051661 197.892895 
L 638.25628 198.265715 
L 638.4609 198.325467 
L 638.870139 197.56541 
L 639.279379 196.737582 
L 639.893238 196.114147 
L 640.097858 196.113337 
L 640.302478 196.449688 
L 641.120956 198.858386 
L 641.530196 199.208269 
L 641.939435 199.519832 
L 642.348675 199.924224 
L 642.553295 199.867903 
L 642.757914 199.52068 
L 643.167154 197.688308 
L 643.985633 192.258348 
L 644.190252 191.940501 
L 644.394872 192.181864 
L 645.008731 193.638795 
L 645.213351 193.753212 
L 645.82721 193.517901 
L 646.03183 193.310462 
L 646.23645 192.805492 
L 646.850309 189.907629 
L 647.259548 188.240869 
L 647.464168 187.778266 
L 647.668788 187.599431 
L 648.487267 187.611845 
L 648.691886 187.54681 
L 649.101126 187.785552 
L 649.510365 188.314231 
L 650.124224 189.101466 
L 650.328844 189.078875 
L 650.533464 188.679186 
L 650.942703 186.742729 
L 651.965802 180.773642 
L 652.170422 180.605717 
L 652.375041 180.869787 
L 652.579661 181.5273 
L 652.988901 184.211248 
L 653.60276 189.15135 
L 653.807379 189.917768 
L 654.011999 190.163487 
L 654.216619 189.913373 
L 654.625858 188.446574 
L 655.444337 185.301796 
L 655.648957 185.221496 
L 656.262816 186.172377 
L 656.467436 186.154529 
L 657.081295 185.186685 
L 657.285915 185.297286 
L 657.490535 185.816443 
L 658.104394 188.174948 
L 658.513633 188.946802 
L 658.718253 189.10455 
L 658.922873 188.984196 
L 659.945971 187.109342 
L 660.150591 187.165317 
L 660.55983 187.767549 
L 661.17369 189.174017 
L 661.378309 189.35185 
L 661.582929 189.222552 
L 661.992169 188.576527 
L 662.196788 188.473058 
L 662.606028 188.614961 
L 662.810647 188.801737 
L 663.219887 189.68531 
L 663.629126 190.733954 
L 664.038366 191.09413 
L 664.242986 191.279479 
L 664.652225 191.924695 
L 664.856845 191.924271 
L 665.266084 191.117491 
L 666.289183 188.155519 
L 666.698422 188.015774 
L 666.903042 187.780232 
L 667.312281 186.288259 
L 668.33538 181.491371 
L 668.54 181.140371 
L 668.74462 181.176917 
L 669.153859 182.071669 
L 669.767718 183.640549 
L 670.176958 184.327978 
L 671.200056 187.123644 
L 671.404676 186.741534 
L 671.813915 184.81853 
L 672.427775 181.401241 
L 672.632394 181.243917 
L 672.837014 181.68235 
L 673.655493 184.419342 
L 674.064732 185.258929 
L 674.473972 186.853908 
L 675.087831 189.45104 
L 675.292451 189.765379 
L 675.497071 189.77413 
L 675.90631 189.350886 
L 676.520169 188.332465 
L 677.543268 186.265553 
L 677.952507 183.960016 
L 678.566366 179.348477 
L 678.975606 178.11483 
L 679.384845 177.21977 
L 679.794085 175.019975 
L 680.612564 169.154281 
L 681.021803 167.329658 
L 681.431043 166.447126 
L 681.635662 166.471721 
L 681.840282 166.804564 
L 682.454141 168.538479 
L 682.863381 168.872594 
L 683.068 169.041174 
L 683.886479 170.545175 
L 684.091099 170.502962 
L 684.500339 170.162987 
L 684.909578 170.230836 
L 685.114198 170.024091 
L 685.318817 169.255899 
L 687.160395 158.490079 
L 687.569634 156.773282 
L 687.978874 153.855565 
L 688.592733 147.635748 
L 689.206592 139.031943 
L 690.229691 122.035358 
L 690.434311 120.535906 
L 690.63893 120.156032 
L 690.84355 120.973452 
L 691.04817 123.028953 
L 691.457409 130.434769 
L 692.480508 152.368411 
L 692.889747 157.24213 
L 693.094367 158.304229 
L 693.298987 158.693278 
L 693.912846 158.793509 
L 694.117466 158.772036 
L 694.526705 158.332525 
L 694.935945 157.560478 
L 695.345184 156.128991 
L 696.368283 151.26757 
L 697.596001 144.253463 
L 698.20986 138.742816 
L 698.823719 130.328602 
L 699.437579 121.759569 
L 699.846818 117.841242 
L 700.051438 116.790362 
L 700.256057 116.759329 
L 700.460677 117.938466 
L 700.869917 123.899148 
L 701.893015 143.323823 
L 702.711494 153.564973 
L 703.120734 155.490829 
L 703.529973 155.658523 
L 703.734593 155.792254 
L 703.939213 156.175714 
L 704.962311 159.056036 
L 705.166931 159.093777 
L 705.57617 158.842313 
L 705.98541 158.11857 
L 707.008508 155.463998 
L 707.622368 155.199235 
L 707.826987 154.593186 
L 708.236227 152.146477 
L 709.463945 144.134535 
L 709.873185 143.026716 
L 710.077804 142.801968 
L 710.282424 142.850001 
L 710.487044 143.142791 
L 710.896283 144.387849 
L 711.305523 146.866593 
L 711.919382 150.415454 
L 712.533241 152.833752 
L 713.35172 157.530717 
L 713.55634 157.937808 
L 713.760959 157.967877 
L 714.170199 157.508936 
L 714.374819 157.548528 
L 714.784058 158.680055 
L 714.988678 159.235333 
L 715.193298 159.454068 
L 715.397917 159.313436 
L 716.011776 157.84814 
L 716.625636 156.705703 
L 716.830255 156.793251 
L 717.648734 158.778281 
L 717.853354 158.503919 
L 718.262593 157.298683 
L 719.694932 152.396977 
L 720.104171 151.203191 
L 720.51341 149.922705 
L 720.71803 149.938742 
L 721.12727 151.422233 
L 722.354988 156.079415 
L 722.764227 157.09695 
L 723.173467 157.508127 
L 723.582706 157.526592 
L 723.787326 157.912095 
L 724.605805 160.773528 
L 725.015044 161.304905 
L 725.219664 161.417819 
L 725.424284 161.203633 
L 725.833523 159.554568 
L 727.061242 154.168748 
L 728.49358 148.67915 
L 729.312059 143.809286 
L 729.721298 142.996993 
L 729.925918 142.756632 
L 730.130538 142.257214 
L 730.744397 140.031668 
L 730.949016 139.741076 
L 731.153636 139.742463 
L 731.767495 140.563199 
L 731.972115 140.483515 
L 732.176735 139.964513 
L 732.585974 137.811095 
L 733.199833 134.071371 
L 733.404453 133.543733 
L 733.609073 133.648629 
L 734.018312 135.298041 
L 734.632172 138.296982 
L 734.836791 138.809778 
L 735.041411 138.973463 
L 735.246031 138.785029 
L 735.65527 137.598798 
L 736.269129 135.719048 
L 736.882989 134.655061 
L 737.292228 133.338299 
L 737.701467 131.927629 
L 738.315327 130.442672 
L 738.929186 127.312814 
L 740.566144 117.577867 
L 741.384623 111.436538 
L 741.589242 110.940242 
L 741.793862 110.937967 
L 741.998482 111.465489 
L 742.407721 114.10175 
L 743.02158 119.005191 
L 743.2262 119.971762 
L 743.43082 120.388953 
L 743.63544 120.231706 
L 744.249299 118.846248 
L 744.453918 119.03846 
L 745.067778 120.4095 
L 745.272397 120.198013 
L 745.681637 118.554576 
L 746.090876 116.874478 
L 746.295496 116.498999 
L 746.909355 116.445452 
L 747.523214 115.573214 
L 748.341693 114.921059 
L 748.750933 114.423413 
L 749.160172 113.473804 
L 749.774031 111.366107 
L 750.387891 108.429154 
L 751.00175 105.598214 
L 751.206369 105.229674 
L 751.410989 105.336419 
L 751.820229 106.725656 
L 752.229468 108.143843 
L 752.434088 108.21173 
L 752.638708 107.664162 
L 753.661806 102.686782 
L 753.866426 102.626605 
L 754.889525 103.390401 
L 755.094144 103.364419 
L 755.708003 103.043256 
L 755.912623 103.187049 
L 756.321863 103.952349 
L 756.731102 104.683378 
L 757.344961 104.949799 
L 758.16344 105.058279 
L 759.186539 106.218411 
L 759.391159 105.994858 
L 761.232736 102.324795 
L 761.437356 102.226684 
L 761.641976 102.625294 
L 762.051215 104.440395 
L 763.074314 109.619895 
L 763.278933 110.100193 
L 763.483553 110.21858 
L 764.711271 109.176258 
L 765.325131 107.486137 
L 765.93899 105.904458 
L 766.143609 105.591391 
L 766.348229 105.625623 
L 766.962088 106.573613 
L 767.166708 106.396282 
L 767.985187 105.080368 
L 768.189807 105.074894 
L 768.599046 105.191702 
L 768.803666 104.855196 
L 769.417525 102.641138 
L 769.622145 102.5209 
L 769.826765 102.832001 
L 770.440624 104.235886 
L 770.645243 104.20335 
L 770.849863 103.749227 
L 771.463722 100.696007 
L 772.077582 98.394131 
L 773.50992 93.738684 
L 774.328399 91.773854 
L 774.942258 89.340638 
L 775.351497 88.515855 
L 775.760737 88.106219 
L 776.579216 87.965511 
L 776.783835 87.500286 
L 777.193075 85.525857 
L 777.806934 82.037789 
L 778.011554 81.791915 
L 778.420793 82.009724 
L 778.830033 82.635126 
L 779.239272 83.788743 
L 779.648511 85.195596 
L 779.853131 85.542009 
L 780.057751 85.606619 
L 780.46699 85.469303 
L 780.67161 85.567028 
L 781.08085 86.222923 
L 781.694709 87.642575 
L 782.717807 90.955277 
L 782.922427 91.141861 
L 783.127047 91.042825 
L 783.740906 90.225636 
L 784.354765 88.950278 
L 784.559385 88.831928 
L 784.764005 89.10791 
L 786.400962 94.42804 
L 786.605582 94.63679 
L 786.810202 94.463622 
L 787.219441 93.794621 
L 787.424061 93.793541 
L 787.833301 94.688949 
L 788.24254 95.635821 
L 788.856399 96.717156 
L 789.879498 99.765018 
L 790.084118 99.954377 
L 790.288737 99.737184 
L 791.107216 97.13161 
L 791.311836 97.544175 
L 791.721075 99.519221 
L 792.539554 103.806436 
L 793.153413 105.345286 
L 794.176512 107.783938 
L 794.585752 110.479142 
L 795.199611 114.808762 
L 795.60885 116.048693 
L 796.01809 116.622822 
L 796.222709 116.608366 
L 796.631949 115.986666 
L 797.245808 114.843727 
L 797.450428 114.722062 
L 797.655047 114.841607 
L 798.064287 115.995802 
L 798.473526 117.30601 
L 798.882766 117.911365 
L 799.087386 118.149105 
L 799.292005 118.601569 
L 799.701245 120.432707 
L 800.519724 124.631796 
L 800.724343 125.189002 
L 800.928963 125.319456 
L 801.133583 124.925819 
L 801.542822 123.030071 
L 801.952062 120.97804 
L 802.156681 120.358691 
L 802.361301 120.13402 
L 802.565921 120.245584 
L 802.770541 120.672259 
L 803.793639 124.347796 
L 804.202879 126.974034 
L 804.816738 130.967303 
L 805.225977 131.948793 
L 805.635217 132.735604 
L 806.249076 134.178502 
L 806.453696 134.265741 
L 807.067555 133.402716 
L 807.272175 133.734557 
L 807.681414 135.665348 
L 808.704513 142.27992 
L 809.113752 143.610174 
L 809.318372 143.981683 
L 809.522992 144.035731 
L 809.932231 143.339011 
L 810.34147 142.778837 
L 810.54609 143.032305 
L 810.95533 144.924777 
L 811.773809 149.374443 
L 812.592287 153.458228 
L 812.796907 153.837639 
L 813.001527 153.744348 
L 813.615386 152.432559 
L 813.820006 152.515172 
L 814.433865 153.956027 
L 814.843104 154.788636 
L 815.047724 154.936399 
L 815.252344 154.82549 
L 815.866203 154.011077 
L 816.070823 154.040183 
L 816.275443 154.46331 
L 816.684682 156.34414 
L 817.503161 161.007837 
L 817.707781 161.278652 
L 818.32164 161.126379 
L 818.52626 160.962964 
L 818.935499 160.089453 
L 819.549358 158.172811 
L 819.753978 158.036189 
L 819.958598 158.160552 
L 820.367837 158.664866 
L 820.572457 158.706655 
L 820.981696 158.172849 
L 821.390936 157.820461 
L 821.595555 157.956389 
L 821.800175 158.403765 
L 822.004795 159.304647 
L 822.414034 162.613995 
L 822.823274 166.191075 
L 823.027894 167.233205 
L 823.232513 167.677458 
L 823.437133 167.629193 
L 823.846372 166.601135 
L 825.278711 161.309068 
L 826.097189 159.53749 
L 826.301809 159.557691 
L 826.506429 160.002098 
L 826.915668 162.134931 
L 827.529528 166.011817 
L 827.734147 166.803832 
L 827.938767 166.994116 
L 828.143387 166.54381 
L 828.552626 164.074126 
L 829.166485 159.191502 
L 829.575725 157.585729 
L 830.394204 155.523096 
L 831.212683 152.637454 
L 831.826542 149.815573 
L 832.235781 147.171372 
L 832.84964 141.001862 
L 833.4635 135.415503 
L 834.691218 126.729741 
L 835.305077 126.000215 
L 835.714317 124.63222 
L 836.123556 122.222751 
L 836.942035 113.662122 
L 837.555894 105.949292 
L 838.578993 90.499999 
L 841.034429 42.892644 
L 842.262148 13.029904 
L 842.718194 -1 
M 1014.674311 -1 
L 1015.370437 8.540107 
L 1015.779676 11.84163 
L 1016.188916 12.913058 
L 1016.393535 12.966373 
L 1017.212014 12.436769 
L 1017.416634 12.7609 
L 1017.825873 14.491807 
L 1018.439733 18.053275 
L 1018.848972 18.97212 
L 1019.462831 19.278672 
L 1019.667451 19.404423 
L 1019.872071 19.725277 
L 1020.28131 21.320295 
L 1021.304409 27.448979 
L 1021.713648 31.515301 
L 1022.736747 42.569053 
L 1023.350606 46.779552 
L 1023.964465 50.120898 
L 1024.987564 58.067497 
L 1025.192184 58.740778 
L 1025.396803 58.904771 
L 1025.601423 58.578366 
L 1026.010663 57.398766 
L 1026.215282 57.178798 
L 1026.419902 57.557015 
L 1026.829141 59.990963 
L 1027.238381 62.258568 
L 1027.443001 62.712112 
L 1027.64762 62.798387 
L 1027.85224 62.608835 
L 1028.26148 61.52006 
L 1028.875339 59.505037 
L 1029.079958 59.165872 
L 1029.284578 59.09598 
L 1029.693818 59.366834 
L 1029.898437 59.292856 
L 1030.307677 58.789351 
L 1030.512297 58.872658 
L 1030.716916 59.395901 
L 1031.126156 61.381202 
L 1031.535395 64.126367 
L 1032.558494 72.864867 
L 1032.967733 74.397741 
L 1033.172353 74.518558 
L 1033.581592 74.451403 
L 1033.786212 74.79477 
L 1034.809311 78.152577 
L 1035.01393 78.414873 
L 1035.21855 78.431835 
L 1035.62779 77.796295 
L 1035.832409 77.804699 
L 1036.037029 78.468689 
L 1036.446269 81.614237 
L 1036.855508 84.891358 
L 1037.060128 85.759317 
L 1037.264747 85.978283 
L 1037.469367 85.666488 
L 1038.697086 82.25209 
L 1038.901705 82.483083 
L 1039.515564 83.781958 
L 1039.924804 84.305046 
L 1040.334043 85.413405 
L 1040.947903 87.623416 
L 1041.152522 87.720909 
L 1041.357142 87.306301 
L 1041.971001 85.068072 
L 1042.175621 84.813525 
L 1042.380241 85.056623 
L 1043.19872 87.843692 
L 1043.607959 88.171254 
L 1043.812579 88.696578 
L 1044.426438 91.406277 
L 1044.631058 91.767532 
L 1044.835677 91.739814 
L 1045.244917 91.376786 
L 1045.449537 91.309786 
L 1045.858776 91.585536 
L 1046.677255 92.384722 
L 1047.291114 93.659078 
L 1047.495734 93.711005 
L 1047.700354 93.634367 
L 1047.904973 93.678777 
L 1049.132692 95.625142 
L 1049.746551 97.389164 
L 1050.769649 100.617788 
L 1051.383509 102.127533 
L 1051.588128 102.417971 
L 1051.792748 102.461494 
L 1052.406607 102.060108 
L 1053.225086 102.540483 
L 1053.429706 102.423792 
L 1053.634326 102.440291 
L 1054.248185 103.033773 
L 1055.271283 104.274629 
L 1055.475903 104.252347 
L 1055.885143 103.820314 
L 1056.499002 102.886781 
L 1057.72672 102.171018 
L 1057.93134 102.271248 
L 1058.13596 102.776565 
L 1058.545199 105.086845 
L 1059.159058 108.68054 
L 1059.568298 109.684659 
L 1061.205256 112.470418 
L 1061.409875 112.418375 
L 1062.023734 111.476977 
L 1062.228354 111.574818 
L 1063.456073 113.748282 
L 1063.660692 113.542154 
L 1064.274551 111.918879 
L 1064.479171 112.062479 
L 1064.888411 113.096166 
L 1065.09303 113.261624 
L 1065.29765 113.013283 
L 1065.70689 112.212979 
L 1065.911509 112.252994 
L 1066.116129 112.771997 
L 1066.525368 115.036633 
L 1066.934608 117.738005 
L 1067.139228 118.439157 
L 1067.343847 118.543782 
L 1067.753087 118.039198 
L 1067.957707 118.109436 
L 1068.366946 119.576313 
L 1068.776185 120.94373 
L 1069.185425 121.434513 
L 1069.594664 121.610534 
L 1069.799284 121.452825 
L 1070.208524 120.263587 
L 1070.617763 118.840195 
L 1070.822383 118.438386 
L 1071.027002 118.296251 
L 1071.231622 118.396983 
L 1071.845481 119.007889 
L 1073.482439 119.98032 
L 1073.891679 120.211506 
L 1074.300918 120.954177 
L 1074.505538 121.314005 
L 1074.710157 121.298084 
L 1075.119397 120.099402 
L 1075.324017 119.488997 
L 1075.528636 119.254919 
L 1075.733256 119.43919 
L 1076.347115 120.668712 
L 1077.370214 121.577496 
L 1077.574834 121.634165 
L 1077.779453 121.860532 
L 1077.984073 122.562417 
L 1078.802552 127.334864 
L 1080.23489 130.448686 
L 1080.43951 130.31056 
L 1080.64413 129.525908 
L 1081.462608 125.094284 
L 1081.871848 124.395059 
L 1082.076468 124.425514 
L 1082.894947 125.334375 
L 1083.508806 125.30739 
L 1084.327285 126.655223 
L 1084.531904 127.120795 
L 1084.941144 129.118431 
L 1085.350383 131.250108 
L 1085.759623 132.157273 
L 1086.168862 132.303725 
L 1086.578102 132.865865 
L 1086.782721 133.154722 
L 1086.987341 133.190883 
L 1087.191961 132.926158 
L 1087.80582 131.712981 
L 1088.215059 131.427632 
L 1088.419679 131.433453 
L 1088.624299 131.707005 
L 1089.033538 133.37974 
L 1089.442778 135.24542 
L 1089.852017 136.015885 
L 1090.056637 136.122169 
L 1090.670496 136.0054 
L 1091.079736 136.973821 
L 1091.488975 138.007431 
L 1091.693595 137.956892 
L 1092.102834 136.634193 
L 1093.535172 130.76954 
L 1093.739792 130.59803 
L 1094.353651 130.884458 
L 1094.558271 130.639086 
L 1094.96751 129.797957 
L 1095.17213 129.720394 
L 1095.37675 130.085118 
L 1095.785989 131.903072 
L 1096.604468 136.568928 
L 1096.809088 137.083844 
L 1097.627567 137.769306 
L 1097.832187 137.818959 
L 1098.036806 137.393441 
L 1098.855285 133.950015 
L 1099.059905 133.744349 
L 1099.264525 133.788335 
L 1099.673764 134.321485 
L 1100.083004 135.321556 
L 1100.492243 137.388275 
L 1100.901483 139.399906 
L 1101.310722 140.12893 
L 1103.1523 142.663842 
L 1103.766159 142.484583 
L 1104.175398 143.29676 
L 1104.789257 144.739466 
L 1104.993877 144.860745 
L 1105.198497 144.601764 
L 1105.607736 142.807634 
L 1106.016976 140.585751 
L 1106.221595 139.991267 
L 1107.040074 138.988536 
L 1107.449314 138.305695 
L 1107.858553 136.922549 
L 1108.267793 135.497847 
L 1108.472412 135.322019 
L 1108.677032 135.615734 
L 1109.086272 136.547764 
L 1109.290891 136.466885 
L 1109.904751 135.10421 
L 1110.10937 135.036786 
L 1110.51861 135.468086 
L 1110.927849 135.80012 
L 1111.132469 135.739441 
L 1111.337089 135.491949 
L 1112.155567 133.528776 
L 1112.360187 132.890345 
L 1112.769427 130.303197 
L 1113.383286 123.080687 
L 1116.861821 72.71267 
L 1117.6803 59.993276 
L 1118.498779 51.670118 
L 1118.908018 43.113537 
L 1119.317258 30.44237 
L 1119.931117 2.937442 
L 1120.000799 -1 
M 1127.447997 -1 
L 1128.320526 29.658334 
L 1129.343625 60.034602 
L 1129.957484 74.782203 
L 1130.571343 84.135618 
L 1131.594442 96.036127 
L 1132.208301 101.250938 
L 1133.02678 105.795091 
L 1133.845259 109.376218 
L 1134.663737 114.233013 
L 1135.072977 114.995654 
L 1135.686836 115.62464 
L 1136.096076 116.457827 
L 1136.914554 118.72601 
L 1137.119174 118.763673 
L 1137.528414 118.441393 
L 1137.733033 118.550991 
L 1137.937653 119.053764 
L 1138.551512 121.924873 
L 1139.165371 124.574318 
L 1139.574611 125.119804 
L 1139.98385 125.571652 
L 1140.39309 126.877504 
L 1141.006949 130.538855 
L 1141.620808 133.928311 
L 1141.825428 134.478655 
L 1142.030048 134.597004 
L 1142.643907 134.0004 
L 1142.848527 134.007532 
L 1143.462386 133.565668 
L 1143.667005 133.789221 
L 1144.280865 134.886902 
L 1144.485484 134.956138 
L 1144.690104 134.754829 
L 1145.099344 133.432631 
L 1145.508583 132.085993 
L 1145.713203 131.849294 
L 1145.917822 131.918107 
L 1146.122442 132.285645 
L 1146.531682 133.802251 
L 1147.350161 137.615568 
L 1147.55478 137.750455 
L 1147.7594 137.525476 
L 1148.373259 136.58215 
L 1148.577879 136.650346 
L 1149.191738 137.470387 
L 1149.600977 138.003268 
L 1149.805597 137.765567 
L 1150.214837 136.019586 
L 1150.624076 134.623796 
L 1150.828696 134.683164 
L 1151.033316 135.314116 
L 1152.056414 140.58895 
L 1152.465654 141.514003 
L 1153.079513 142.402047 
L 1153.284133 142.569008 
L 1153.488752 142.522941 
L 1153.693372 142.208602 
L 1154.307231 140.552906 
L 1154.511851 140.378697 
L 1154.716471 140.494387 
L 1155.53495 141.889791 
L 1155.944189 142.010299 
L 1156.558048 142.955552 
L 1156.967288 144.173008 
L 1157.785767 148.191605 
L 1157.990386 148.511688 
L 1158.195006 148.371095 
L 1159.218105 145.788843 
L 1159.831964 145.495745 
L 1160.036584 145.362631 
L 1160.241203 145.490387 
L 1160.445823 146.101139 
L 1160.855062 148.72676 
L 1161.468922 152.850058 
L 1161.673541 153.542113 
L 1161.878161 153.7903 
L 1162.082781 153.708804 
L 1162.90126 152.776119 
L 1163.105879 152.833598 
L 1163.310499 153.098129 
L 1164.128978 154.882082 
L 1164.538218 154.532277 
L 1164.742837 154.634358 
L 1165.561316 156.293986 
L 1165.765936 156.203007 
L 1166.175175 155.877759 
L 1166.379795 156.181149 
L 1166.993654 158.132179 
L 1167.198274 158.375662 
L 1167.402894 158.282178 
L 1167.607513 157.856313 
L 1168.221373 155.439519 
L 1169.039852 152.285721 
L 1169.653711 150.959052 
L 1170.26757 149.699846 
L 1170.47219 149.724788 
L 1170.676809 150.210868 
L 1171.086049 152.450331 
L 1171.699908 156.336969 
L 1172.109147 157.525821 
L 1172.518387 157.892435 
L 1172.723007 157.752844 
L 1172.927626 157.282184 
L 1173.950725 153.912851 
L 1174.155345 154.133127 
L 1175.587683 157.309092 
L 1175.792303 157.506276 
L 1175.996922 157.54687 
L 1176.201542 157.339893 
L 1176.610781 156.701925 
L 1176.815401 156.875632 
L 1177.63388 159.273537 
L 1178.04312 159.795238 
L 1178.656979 161.405637 
L 1178.861598 161.352823 
L 1179.066218 160.681817 
L 1179.884697 156.680375 
L 1180.293937 156.48134 
L 1180.498556 156.349537 
L 1180.907796 155.609757 
L 1181.521655 154.299086 
L 1181.726275 154.278269 
L 1181.930894 154.817048 
L 1182.953993 160.36929 
L 1183.158613 160.565549 
L 1183.363232 160.168905 
L 1184.386331 156.30293 
L 1184.590951 156.124712 
L 1184.795571 156.350231 
L 1184.795571 156.350231 
" clip-path="url(#p1da904d8e5)" style="fill: none; stroke: #000000; stroke-width: 2; stroke-linecap: square"/>
   </g>
   <g id="patch_3">
    <path d="M 3.00024 198.907885 
L 1184.99976 198.907885 
" style="fill: none; stroke: #000000; stroke-width: 2; stroke-linejoin: miter; stroke-linecap: square"/>
   </g>
  </g>
 </g>
 <defs>
  <clipPath id="p1da904d8e5">
   <rect x="3.00024" y="3.00024" width="1181.99952" height="195.907645"/>
  </clipPath>
 </defs>
</svg>
