<?xml version="1.0" encoding="utf-8" standalone="no"?>
<!DOCTYPE svg PUBLIC "-//W3C//DTD SVG 1.1//EN"
  "http://www.w3.org/Graphics/SVG/1.1/DTD/svg11.dtd">
<svg xmlns:xlink="http://www.w3.org/1999/xlink" width="1188pt" height="252pt" viewBox="0 0 1188 252" xmlns="http://www.w3.org/2000/svg" version="1.1">
 <metadata>
  <rdf:RDF xmlns:dc="http://purl.org/dc/elements/1.1/" xmlns:cc="http://creativecommons.org/ns#" xmlns:rdf="http://www.w3.org/1999/02/22-rdf-syntax-ns#">
   <cc:Work>
    <dc:type rdf:resource="http://purl.org/dc/dcmitype/StillImage"/>
    <dc:date>2024-07-23T21:41:57.289521</dc:date>
    <dc:format>image/svg+xml</dc:format>
    <dc:creator>
     <cc:Agent>
      <dc:title>Matplotlib v3.8.4, https://matplotlib.org/</dc:title>
     </cc:Agent>
    </dc:creator>
   </cc:Work>
  </rdf:RDF>
 </metadata>
 <defs>
  <style type="text/css">*{stroke-linejoin: round; stroke-linecap: butt}</style>
 </defs>
 <g id="figure_1">
  <g id="patch_1">
   <path d="M 0 252 
L 1188 252 
L 1188 0 
L 0 0 
z
" style="fill: #ffffff"/>
  </g>
  <g id="axes_1">
   <g id="patch_2">
    <path d="M 3.00024 198.907885 
L 1184.99976 198.907885 
L 1184.99976 3.00024 
L 3.00024 3.00024 
z
" style="fill: #ffffff"/>
   </g>
   <g id="matplotlib.axis_1">
    <g id="xtick_1">
     <g id="line2d_1">
      <defs>
       <path id="m7aba808bc2" d="M 0 0 
L 0 8 
" style="stroke: #000000; stroke-width: 2"/>
      </defs>
      <g>
       <use xlink:href="#m7aba808bc2" x="1131.272509" y="198.907885" style="stroke: #000000; stroke-width: 2"/>
      </g>
     </g>
     <g id="text_1">
      <!-- 0 -->
      <g transform="translate(1126.267665 224.791947) scale(0.18 -0.18)">
       <defs>
        <path id="Arial-BoldMT-30" d="M 1756 4600 
Q 2422 4600 2797 4125 
Q 3244 3563 3244 2259 
Q 3244 959 2794 391 
Q 2422 -78 1756 -78 
Q 1088 -78 678 436 
Q 269 950 269 2269 
Q 269 3563 719 4131 
Q 1091 4600 1756 4600 
z
M 1756 3872 
Q 1597 3872 1472 3770 
Q 1347 3669 1278 3406 
Q 1188 3066 1188 2259 
Q 1188 1453 1269 1151 
Q 1350 850 1473 750 
Q 1597 650 1756 650 
Q 1916 650 2041 751 
Q 2166 853 2234 1116 
Q 2325 1453 2325 2259 
Q 2325 3066 2244 3367 
Q 2163 3669 2039 3770 
Q 1916 3872 1756 3872 
z
" transform="scale(0.015625)"/>
       </defs>
       <use xlink:href="#Arial-BoldMT-30"/>
      </g>
     </g>
    </g>
    <g id="xtick_2">
     <g id="line2d_2">
      <g>
       <use xlink:href="#m7aba808bc2" x="1023.818007" y="198.907885" style="stroke: #000000; stroke-width: 2"/>
      </g>
     </g>
     <g id="text_2">
      <!-- 1 -->
      <g transform="translate(1018.813164 224.791947) scale(0.18 -0.18)">
       <defs>
        <path id="Arial-BoldMT-31" d="M 2519 0 
L 1641 0 
L 1641 3309 
Q 1159 2859 506 2644 
L 506 3441 
Q 850 3553 1253 3867 
Q 1656 4181 1806 4600 
L 2519 4600 
L 2519 0 
z
" transform="scale(0.015625)"/>
       </defs>
       <use xlink:href="#Arial-BoldMT-31"/>
      </g>
     </g>
    </g>
    <g id="xtick_3">
     <g id="line2d_3">
      <g>
       <use xlink:href="#m7aba808bc2" x="916.363505" y="198.907885" style="stroke: #000000; stroke-width: 2"/>
      </g>
     </g>
     <g id="text_3">
      <!-- 2 -->
      <g transform="translate(911.358662 224.791947) scale(0.18 -0.18)">
       <defs>
        <path id="Arial-BoldMT-32" d="M 3238 816 
L 3238 0 
L 159 0 
Q 209 463 459 877 
Q 709 1291 1447 1975 
Q 2041 2528 2175 2725 
Q 2356 2997 2356 3263 
Q 2356 3556 2198 3714 
Q 2041 3872 1763 3872 
Q 1488 3872 1325 3706 
Q 1163 3541 1138 3156 
L 263 3244 
Q 341 3969 753 4284 
Q 1166 4600 1784 4600 
Q 2463 4600 2850 4234 
Q 3238 3869 3238 3325 
Q 3238 3016 3127 2736 
Q 3016 2456 2775 2150 
Q 2616 1947 2200 1565 
Q 1784 1184 1673 1059 
Q 1563 934 1494 816 
L 3238 816 
z
" transform="scale(0.015625)"/>
       </defs>
       <use xlink:href="#Arial-BoldMT-32"/>
      </g>
     </g>
    </g>
    <g id="xtick_4">
     <g id="line2d_4">
      <g>
       <use xlink:href="#m7aba808bc2" x="808.909004" y="198.907885" style="stroke: #000000; stroke-width: 2"/>
      </g>
     </g>
     <g id="text_4">
      <!-- 3 -->
      <g transform="translate(803.90416 224.791947) scale(0.18 -0.18)">
       <defs>
        <path id="Arial-BoldMT-33" d="M 241 1216 
L 1091 1319 
Q 1131 994 1309 822 
Q 1488 650 1741 650 
Q 2013 650 2198 856 
Q 2384 1063 2384 1413 
Q 2384 1744 2206 1937 
Q 2028 2131 1772 2131 
Q 1603 2131 1369 2066 
L 1466 2781 
Q 1822 2772 2009 2936 
Q 2197 3100 2197 3372 
Q 2197 3603 2059 3740 
Q 1922 3878 1694 3878 
Q 1469 3878 1309 3722 
Q 1150 3566 1116 3266 
L 306 3403 
Q 391 3819 561 4067 
Q 731 4316 1036 4458 
Q 1341 4600 1719 4600 
Q 2366 4600 2756 4188 
Q 3078 3850 3078 3425 
Q 3078 2822 2419 2463 
Q 2813 2378 3048 2084 
Q 3284 1791 3284 1375 
Q 3284 772 2843 347 
Q 2403 -78 1747 -78 
Q 1125 -78 715 280 
Q 306 638 241 1216 
z
" transform="scale(0.015625)"/>
       </defs>
       <use xlink:href="#Arial-BoldMT-33"/>
      </g>
     </g>
    </g>
    <g id="xtick_5">
     <g id="line2d_5">
      <g>
       <use xlink:href="#m7aba808bc2" x="701.454502" y="198.907885" style="stroke: #000000; stroke-width: 2"/>
      </g>
     </g>
     <g id="text_5">
      <!-- 4 -->
      <g transform="translate(696.449658 224.791947) scale(0.18 -0.18)">
       <defs>
        <path id="Arial-BoldMT-34" d="M 1994 0 
L 1994 922 
L 119 922 
L 119 1691 
L 2106 4600 
L 2844 4600 
L 2844 1694 
L 3413 1694 
L 3413 922 
L 2844 922 
L 2844 0 
L 1994 0 
z
M 1994 1694 
L 1994 3259 
L 941 1694 
L 1994 1694 
z
" transform="scale(0.015625)"/>
       </defs>
       <use xlink:href="#Arial-BoldMT-34"/>
      </g>
     </g>
    </g>
    <g id="xtick_6">
     <g id="line2d_6">
      <g>
       <use xlink:href="#m7aba808bc2" x="594" y="198.907885" style="stroke: #000000; stroke-width: 2"/>
      </g>
     </g>
     <g id="text_6">
      <!-- 5 -->
      <g transform="translate(588.995156 224.791947) scale(0.18 -0.18)">
       <defs>
        <path id="Arial-BoldMT-35" d="M 284 1178 
L 1159 1269 
Q 1197 972 1381 798 
Q 1566 625 1806 625 
Q 2081 625 2272 848 
Q 2463 1072 2463 1522 
Q 2463 1944 2273 2155 
Q 2084 2366 1781 2366 
Q 1403 2366 1103 2031 
L 391 2134 
L 841 4519 
L 3163 4519 
L 3163 3697 
L 1506 3697 
L 1369 2919 
Q 1663 3066 1969 3066 
Q 2553 3066 2959 2641 
Q 3366 2216 3366 1538 
Q 3366 972 3038 528 
Q 2591 -78 1797 -78 
Q 1163 -78 763 262 
Q 363 603 284 1178 
z
" transform="scale(0.015625)"/>
       </defs>
       <use xlink:href="#Arial-BoldMT-35"/>
      </g>
     </g>
    </g>
    <g id="xtick_7">
     <g id="line2d_7">
      <g>
       <use xlink:href="#m7aba808bc2" x="486.545498" y="198.907885" style="stroke: #000000; stroke-width: 2"/>
      </g>
     </g>
     <g id="text_7">
      <!-- 6 -->
      <g transform="translate(481.540654 224.791947) scale(0.18 -0.18)">
       <defs>
        <path id="Arial-BoldMT-36" d="M 3247 3459 
L 2397 3366 
Q 2366 3628 2234 3753 
Q 2103 3878 1894 3878 
Q 1616 3878 1423 3628 
Q 1231 3378 1181 2588 
Q 1509 2975 1997 2975 
Q 2547 2975 2939 2556 
Q 3331 2138 3331 1475 
Q 3331 772 2918 347 
Q 2506 -78 1859 -78 
Q 1166 -78 719 461 
Q 272 1000 272 2228 
Q 272 3488 737 4044 
Q 1203 4600 1947 4600 
Q 2469 4600 2811 4308 
Q 3153 4016 3247 3459 
z
M 1256 1544 
Q 1256 1116 1453 883 
Q 1650 650 1903 650 
Q 2147 650 2309 840 
Q 2472 1031 2472 1466 
Q 2472 1913 2297 2120 
Q 2122 2328 1859 2328 
Q 1606 2328 1431 2129 
Q 1256 1931 1256 1544 
z
" transform="scale(0.015625)"/>
       </defs>
       <use xlink:href="#Arial-BoldMT-36"/>
      </g>
     </g>
    </g>
    <g id="xtick_8">
     <g id="line2d_8">
      <g>
       <use xlink:href="#m7aba808bc2" x="379.090996" y="198.907885" style="stroke: #000000; stroke-width: 2"/>
      </g>
     </g>
     <g id="text_8">
      <!-- 7 -->
      <g transform="translate(374.086153 224.791947) scale(0.18 -0.18)">
       <defs>
        <path id="Arial-BoldMT-37" d="M 272 3703 
L 272 4519 
L 3275 4519 
L 3275 3881 
Q 2903 3516 2518 2831 
Q 2134 2147 1932 1376 
Q 1731 606 1734 0 
L 888 0 
Q 909 950 1279 1937 
Q 1650 2925 2269 3703 
L 272 3703 
z
" transform="scale(0.015625)"/>
       </defs>
       <use xlink:href="#Arial-BoldMT-37"/>
      </g>
     </g>
    </g>
    <g id="xtick_9">
     <g id="line2d_9">
      <g>
       <use xlink:href="#m7aba808bc2" x="271.636495" y="198.907885" style="stroke: #000000; stroke-width: 2"/>
      </g>
     </g>
     <g id="text_9">
      <!-- 8 -->
      <g transform="translate(266.631651 224.791947) scale(0.18 -0.18)">
       <defs>
        <path id="Arial-BoldMT-38" d="M 1025 2472 
Q 684 2616 529 2867 
Q 375 3119 375 3419 
Q 375 3931 733 4265 
Q 1091 4600 1750 4600 
Q 2403 4600 2764 4265 
Q 3125 3931 3125 3419 
Q 3125 3100 2959 2851 
Q 2794 2603 2494 2472 
Q 2875 2319 3073 2025 
Q 3272 1731 3272 1347 
Q 3272 713 2867 316 
Q 2463 -81 1791 -81 
Q 1166 -81 750 247 
Q 259 634 259 1309 
Q 259 1681 443 1992 
Q 628 2303 1025 2472 
z
M 1206 3356 
Q 1206 3094 1354 2947 
Q 1503 2800 1750 2800 
Q 2000 2800 2150 2948 
Q 2300 3097 2300 3359 
Q 2300 3606 2151 3754 
Q 2003 3903 1759 3903 
Q 1506 3903 1356 3753 
Q 1206 3603 1206 3356 
z
M 1125 1394 
Q 1125 1031 1311 828 
Q 1497 625 1775 625 
Q 2047 625 2225 820 
Q 2403 1016 2403 1384 
Q 2403 1706 2222 1901 
Q 2041 2097 1763 2097 
Q 1441 2097 1283 1875 
Q 1125 1653 1125 1394 
z
" transform="scale(0.015625)"/>
       </defs>
       <use xlink:href="#Arial-BoldMT-38"/>
      </g>
     </g>
    </g>
    <g id="xtick_10">
     <g id="line2d_10">
      <g>
       <use xlink:href="#m7aba808bc2" x="164.181993" y="198.907885" style="stroke: #000000; stroke-width: 2"/>
      </g>
     </g>
     <g id="text_10">
      <!-- 9 -->
      <g transform="translate(159.177149 224.791947) scale(0.18 -0.18)">
       <defs>
        <path id="Arial-BoldMT-39" d="M 291 1059 
L 1141 1153 
Q 1172 894 1303 769 
Q 1434 644 1650 644 
Q 1922 644 2112 894 
Q 2303 1144 2356 1931 
Q 2025 1547 1528 1547 
Q 988 1547 595 1964 
Q 203 2381 203 3050 
Q 203 3747 617 4173 
Q 1031 4600 1672 4600 
Q 2369 4600 2816 4061 
Q 3263 3522 3263 2288 
Q 3263 1031 2797 475 
Q 2331 -81 1584 -81 
Q 1047 -81 715 205 
Q 384 491 291 1059 
z
M 2278 2978 
Q 2278 3403 2083 3637 
Q 1888 3872 1631 3872 
Q 1388 3872 1227 3680 
Q 1066 3488 1066 3050 
Q 1066 2606 1241 2398 
Q 1416 2191 1678 2191 
Q 1931 2191 2104 2391 
Q 2278 2591 2278 2978 
z
" transform="scale(0.015625)"/>
       </defs>
       <use xlink:href="#Arial-BoldMT-39"/>
      </g>
     </g>
    </g>
    <g id="xtick_11">
     <g id="line2d_11">
      <g>
       <use xlink:href="#m7aba808bc2" x="56.727491" y="198.907885" style="stroke: #000000; stroke-width: 2"/>
      </g>
     </g>
     <g id="text_11">
      <!-- 10 -->
      <g transform="translate(46.717803 224.791947) scale(0.18 -0.18)">
       <use xlink:href="#Arial-BoldMT-31"/>
       <use xlink:href="#Arial-BoldMT-30" x="55.615234"/>
      </g>
     </g>
    </g>
    <g id="text_12">
     <!-- Chemical Shift / ppm -->
     <g transform="translate(504.992813 245.447573) scale(0.18 -0.18)">
      <defs>
       <path id="Arial-BoldMT-43" d="M 3397 1684 
L 4294 1400 
Q 4088 650 3608 286 
Q 3128 -78 2391 -78 
Q 1478 -78 890 545 
Q 303 1169 303 2250 
Q 303 3394 893 4026 
Q 1484 4659 2447 4659 
Q 3288 4659 3813 4163 
Q 4125 3869 4281 3319 
L 3366 3100 
Q 3284 3456 3026 3662 
Q 2769 3869 2400 3869 
Q 1891 3869 1573 3503 
Q 1256 3138 1256 2319 
Q 1256 1450 1568 1081 
Q 1881 713 2381 713 
Q 2750 713 3015 947 
Q 3281 1181 3397 1684 
z
" transform="scale(0.015625)"/>
       <path id="Arial-BoldMT-68" d="M 1334 4581 
L 1334 2897 
Q 1759 3394 2350 3394 
Q 2653 3394 2897 3281 
Q 3141 3169 3264 2994 
Q 3388 2819 3433 2606 
Q 3478 2394 3478 1947 
L 3478 0 
L 2600 0 
L 2600 1753 
Q 2600 2275 2550 2415 
Q 2500 2556 2373 2639 
Q 2247 2722 2056 2722 
Q 1838 2722 1666 2615 
Q 1494 2509 1414 2295 
Q 1334 2081 1334 1663 
L 1334 0 
L 456 0 
L 456 4581 
L 1334 4581 
z
" transform="scale(0.015625)"/>
       <path id="Arial-BoldMT-65" d="M 2381 1056 
L 3256 909 
Q 3088 428 2723 176 
Q 2359 -75 1813 -75 
Q 947 -75 531 491 
Q 203 944 203 1634 
Q 203 2459 634 2926 
Q 1066 3394 1725 3394 
Q 2466 3394 2894 2905 
Q 3322 2416 3303 1406 
L 1103 1406 
Q 1113 1016 1316 798 
Q 1519 581 1822 581 
Q 2028 581 2168 693 
Q 2309 806 2381 1056 
z
M 2431 1944 
Q 2422 2325 2234 2523 
Q 2047 2722 1778 2722 
Q 1491 2722 1303 2513 
Q 1116 2303 1119 1944 
L 2431 1944 
z
" transform="scale(0.015625)"/>
       <path id="Arial-BoldMT-6d" d="M 394 3319 
L 1203 3319 
L 1203 2866 
Q 1638 3394 2238 3394 
Q 2556 3394 2790 3262 
Q 3025 3131 3175 2866 
Q 3394 3131 3647 3262 
Q 3900 3394 4188 3394 
Q 4553 3394 4806 3245 
Q 5059 3097 5184 2809 
Q 5275 2597 5275 2122 
L 5275 0 
L 4397 0 
L 4397 1897 
Q 4397 2391 4306 2534 
Q 4184 2722 3931 2722 
Q 3747 2722 3584 2609 
Q 3422 2497 3350 2280 
Q 3278 2063 3278 1594 
L 3278 0 
L 2400 0 
L 2400 1819 
Q 2400 2303 2353 2443 
Q 2306 2584 2207 2653 
Q 2109 2722 1941 2722 
Q 1738 2722 1575 2612 
Q 1413 2503 1342 2297 
Q 1272 2091 1272 1613 
L 1272 0 
L 394 0 
L 394 3319 
z
" transform="scale(0.015625)"/>
       <path id="Arial-BoldMT-69" d="M 459 3769 
L 459 4581 
L 1338 4581 
L 1338 3769 
L 459 3769 
z
M 459 0 
L 459 3319 
L 1338 3319 
L 1338 0 
L 459 0 
z
" transform="scale(0.015625)"/>
       <path id="Arial-BoldMT-63" d="M 3353 2338 
L 2488 2181 
Q 2444 2441 2289 2572 
Q 2134 2703 1888 2703 
Q 1559 2703 1364 2476 
Q 1169 2250 1169 1719 
Q 1169 1128 1367 884 
Q 1566 641 1900 641 
Q 2150 641 2309 783 
Q 2469 925 2534 1272 
L 3397 1125 
Q 3263 531 2881 228 
Q 2500 -75 1859 -75 
Q 1131 -75 698 384 
Q 266 844 266 1656 
Q 266 2478 700 2936 
Q 1134 3394 1875 3394 
Q 2481 3394 2839 3133 
Q 3197 2872 3353 2338 
z
" transform="scale(0.015625)"/>
       <path id="Arial-BoldMT-61" d="M 1116 2306 
L 319 2450 
Q 453 2931 781 3162 
Q 1109 3394 1756 3394 
Q 2344 3394 2631 3255 
Q 2919 3116 3036 2902 
Q 3153 2688 3153 2116 
L 3144 1091 
Q 3144 653 3186 445 
Q 3228 238 3344 0 
L 2475 0 
Q 2441 88 2391 259 
Q 2369 338 2359 363 
Q 2134 144 1878 34 
Q 1622 -75 1331 -75 
Q 819 -75 523 203 
Q 228 481 228 906 
Q 228 1188 362 1408 
Q 497 1628 739 1745 
Q 981 1863 1438 1950 
Q 2053 2066 2291 2166 
L 2291 2253 
Q 2291 2506 2166 2614 
Q 2041 2722 1694 2722 
Q 1459 2722 1328 2630 
Q 1197 2538 1116 2306 
z
M 2291 1594 
Q 2122 1538 1756 1459 
Q 1391 1381 1278 1306 
Q 1106 1184 1106 997 
Q 1106 813 1243 678 
Q 1381 544 1594 544 
Q 1831 544 2047 700 
Q 2206 819 2256 991 
Q 2291 1103 2291 1419 
L 2291 1594 
z
" transform="scale(0.015625)"/>
       <path id="Arial-BoldMT-6c" d="M 459 0 
L 459 4581 
L 1338 4581 
L 1338 0 
L 459 0 
z
" transform="scale(0.015625)"/>
       <path id="Arial-BoldMT-20" transform="scale(0.015625)"/>
       <path id="Arial-BoldMT-53" d="M 231 1491 
L 1131 1578 
Q 1213 1125 1461 912 
Q 1709 700 2131 700 
Q 2578 700 2804 889 
Q 3031 1078 3031 1331 
Q 3031 1494 2936 1608 
Q 2841 1722 2603 1806 
Q 2441 1863 1863 2006 
Q 1119 2191 819 2459 
Q 397 2838 397 3381 
Q 397 3731 595 4036 
Q 794 4341 1167 4500 
Q 1541 4659 2069 4659 
Q 2931 4659 3367 4281 
Q 3803 3903 3825 3272 
L 2900 3231 
Q 2841 3584 2645 3739 
Q 2450 3894 2059 3894 
Q 1656 3894 1428 3728 
Q 1281 3622 1281 3444 
Q 1281 3281 1419 3166 
Q 1594 3019 2269 2859 
Q 2944 2700 3267 2529 
Q 3591 2359 3773 2064 
Q 3956 1769 3956 1334 
Q 3956 941 3737 597 
Q 3519 253 3119 86 
Q 2719 -81 2122 -81 
Q 1253 -81 787 320 
Q 322 722 231 1491 
z
" transform="scale(0.015625)"/>
       <path id="Arial-BoldMT-66" d="M 75 3319 
L 563 3319 
L 563 3569 
Q 563 3988 652 4194 
Q 741 4400 980 4529 
Q 1219 4659 1584 4659 
Q 1959 4659 2319 4547 
L 2200 3934 
Q 1991 3984 1797 3984 
Q 1606 3984 1523 3895 
Q 1441 3806 1441 3553 
L 1441 3319 
L 2097 3319 
L 2097 2628 
L 1441 2628 
L 1441 0 
L 563 0 
L 563 2628 
L 75 2628 
L 75 3319 
z
" transform="scale(0.015625)"/>
       <path id="Arial-BoldMT-74" d="M 1981 3319 
L 1981 2619 
L 1381 2619 
L 1381 1281 
Q 1381 875 1398 808 
Q 1416 741 1477 697 
Q 1538 653 1625 653 
Q 1747 653 1978 738 
L 2053 56 
Q 1747 -75 1359 -75 
Q 1122 -75 931 4 
Q 741 84 652 211 
Q 563 338 528 553 
Q 500 706 500 1172 
L 500 2619 
L 97 2619 
L 97 3319 
L 500 3319 
L 500 3978 
L 1381 4491 
L 1381 3319 
L 1981 3319 
z
" transform="scale(0.015625)"/>
       <path id="Arial-BoldMT-2f" d="M -9 -78 
L 1125 4659 
L 1784 4659 
L 638 -78 
L -9 -78 
z
" transform="scale(0.015625)"/>
       <path id="Arial-BoldMT-70" d="M 434 3319 
L 1253 3319 
L 1253 2831 
Q 1413 3081 1684 3237 
Q 1956 3394 2288 3394 
Q 2866 3394 3269 2941 
Q 3672 2488 3672 1678 
Q 3672 847 3265 386 
Q 2859 -75 2281 -75 
Q 2006 -75 1782 34 
Q 1559 144 1313 409 
L 1313 -1263 
L 434 -1263 
L 434 3319 
z
M 1303 1716 
Q 1303 1156 1525 889 
Q 1747 622 2066 622 
Q 2372 622 2575 867 
Q 2778 1113 2778 1672 
Q 2778 2194 2568 2447 
Q 2359 2700 2050 2700 
Q 1728 2700 1515 2451 
Q 1303 2203 1303 1716 
z
" transform="scale(0.015625)"/>
      </defs>
      <use xlink:href="#Arial-BoldMT-43"/>
      <use xlink:href="#Arial-BoldMT-68" x="72.216797"/>
      <use xlink:href="#Arial-BoldMT-65" x="133.300781"/>
      <use xlink:href="#Arial-BoldMT-6d" x="188.916016"/>
      <use xlink:href="#Arial-BoldMT-69" x="277.832031"/>
      <use xlink:href="#Arial-BoldMT-63" x="305.615234"/>
      <use xlink:href="#Arial-BoldMT-61" x="361.230469"/>
      <use xlink:href="#Arial-BoldMT-6c" x="416.845703"/>
      <use xlink:href="#Arial-BoldMT-20" x="444.628906"/>
      <use xlink:href="#Arial-BoldMT-53" x="472.412109"/>
      <use xlink:href="#Arial-BoldMT-68" x="539.111328"/>
      <use xlink:href="#Arial-BoldMT-69" x="600.195312"/>
      <use xlink:href="#Arial-BoldMT-66" x="627.978516"/>
      <use xlink:href="#Arial-BoldMT-74" x="661.279297"/>
      <use xlink:href="#Arial-BoldMT-20" x="694.580078"/>
      <use xlink:href="#Arial-BoldMT-2f" x="722.363281"/>
      <use xlink:href="#Arial-BoldMT-20" x="750.146484"/>
      <use xlink:href="#Arial-BoldMT-70" x="777.929688"/>
      <use xlink:href="#Arial-BoldMT-70" x="839.013672"/>
      <use xlink:href="#Arial-BoldMT-6d" x="900.097656"/>
     </g>
    </g>
   </g>
   <g id="matplotlib.axis_2"/>
   <g id="line2d_12">
    <path d="M 2.93511 173.972647 
L 3.13973 174.435596 
L 3.34435 174.516047 
L 3.54897 174.191813 
L 3.958209 172.541414 
L 4.367449 170.707195 
L 4.572068 170.444185 
L 4.776688 170.706952 
L 5.185927 172.150177 
L 5.799787 174.534983 
L 6.004406 174.960595 
L 6.209026 175.103291 
L 6.413646 174.961032 
L 7.027505 174.175839 
L 7.232125 174.228325 
L 7.641364 175.104844 
L 7.845984 175.58367 
L 8.050604 175.770209 
L 8.255223 175.636058 
L 8.664463 175.128829 
L 9.278322 174.886066 
L 9.482942 174.376847 
L 9.892181 171.806571 
L 10.096801 170.470258 
L 10.301421 170.028575 
L 10.50604 170.912329 
L 11.529139 180.912266 
L 11.733759 180.850605 
L 12.347618 179.572992 
L 12.756857 179.366401 
L 12.961477 178.866018 
L 13.779956 175.995493 
L 13.984576 176.273699 
L 14.598435 178.988273 
L 14.803055 178.938507 
L 15.007674 177.996684 
L 16.030773 170.933304 
L 16.440012 169.599759 
L 16.644632 169.374281 
L 16.849252 169.463618 
L 17.258491 170.28906 
L 18.07697 172.132019 
L 18.895449 174.708024 
L 19.100069 174.788767 
L 19.304689 174.549937 
L 19.713928 173.390016 
L 21.146266 167.328955 
L 21.350886 167.11377 
L 21.555506 167.177131 
L 21.964745 167.72024 
L 22.987844 169.55009 
L 23.192463 169.666907 
L 23.601703 169.269019 
L 23.806323 169.440312 
L 24.215562 170.42122 
L 24.420182 170.446225 
L 25.034041 169.560674 
L 25.238661 169.830044 
L 25.6479 171.011911 
L 26.261759 173.362632 
L 26.466379 173.237658 
L 26.875618 170.627666 
L 27.489478 166.367614 
L 27.898717 164.986391 
L 28.103337 164.815194 
L 28.307957 165.031253 
L 28.717196 165.832613 
L 28.921816 166.005703 
L 29.331055 165.940643 
L 29.740295 165.702444 
L 30.354154 166.012549 
L 30.558774 165.79984 
L 30.968013 165.086409 
L 31.172633 165.090244 
L 31.581872 166.140728 
L 32.400351 168.376914 
L 32.809591 171.577645 
L 33.628069 178.724584 
L 33.832689 179.60829 
L 34.037309 179.949372 
L 34.241929 180.003751 
L 34.446548 179.839109 
L 34.651168 179.363488 
L 35.060408 177.314569 
L 35.469647 175.36897 
L 35.674267 175.049737 
L 36.083506 174.777794 
L 36.492746 174.185744 
L 36.697365 174.095096 
L 36.901985 174.154525 
L 37.106605 174.067324 
L 37.925084 172.388036 
L 38.129703 172.598512 
L 38.743563 174.081016 
L 38.948182 174.015616 
L 39.152802 173.581653 
L 39.971281 171.056968 
L 40.175901 171.085225 
L 40.38052 171.482337 
L 40.78976 173.063743 
L 41.198999 175.057845 
L 41.403619 175.5122 
L 41.608239 175.507248 
L 42.017478 174.782261 
L 42.426718 173.959586 
L 42.631337 174.023676 
L 43.040577 174.438315 
L 43.859056 174.627378 
L 44.063676 174.494296 
L 44.268295 174.073733 
L 44.677535 172.110607 
L 45.086774 170.001532 
L 45.291394 169.371513 
L 45.496014 169.109232 
L 46.109873 169.173128 
L 46.314493 169.03854 
L 46.519112 169.08112 
L 46.723732 169.627385 
L 47.132971 172.430957 
L 47.746831 176.755972 
L 47.95145 177.675557 
L 48.15607 177.907833 
L 48.36069 177.13104 
L 48.769929 173.109188 
L 49.179169 168.647012 
L 49.383788 167.52972 
L 49.588408 167.554919 
L 50.202267 170.544155 
L 50.406887 170.42389 
L 50.611507 169.260085 
L 51.225366 164.524267 
L 51.429986 164.040586 
L 51.634605 164.134196 
L 52.043845 165.64287 
L 52.453084 166.924464 
L 52.862324 167.148534 
L 53.066943 167.103865 
L 53.476183 166.111596 
L 53.680803 165.693413 
L 54.499282 165.472887 
L 54.703901 165.608446 
L 55.727 167.965237 
L 55.93162 168.193822 
L 56.136239 168.640846 
L 56.545479 170.625918 
L 57.363958 174.723804 
L 57.773197 175.755983 
L 57.977817 175.836532 
L 58.182437 175.542886 
L 58.591676 174.673115 
L 58.796296 174.757305 
L 59.000916 175.028665 
L 59.205535 174.983366 
L 59.410155 174.432245 
L 59.819394 172.446445 
L 61.047113 165.037322 
L 61.251733 164.641619 
L 61.456352 164.851609 
L 61.865592 165.911705 
L 62.070211 166.087077 
L 62.274831 165.953995 
L 62.479451 165.533238 
L 62.88869 163.827926 
L 63.29793 161.872908 
L 63.50255 161.494392 
L 63.707169 161.855963 
L 64.116409 164.406381 
L 65.139507 171.069931 
L 65.548747 172.333075 
L 66.367226 173.304806 
L 66.776465 174.53809 
L 67.390324 177.1173 
L 67.594944 177.430221 
L 67.799564 177.465907 
L 68.004184 177.378076 
L 68.208803 177.056269 
L 68.618043 175.352365 
L 69.027282 173.901177 
L 69.641141 173.174928 
L 69.845761 172.683819 
L 70.66424 169.073449 
L 70.86886 169.258823 
L 71.073479 170.156366 
L 71.687339 174.268623 
L 71.891958 174.731038 
L 72.096578 174.679864 
L 72.710437 173.854324 
L 73.324296 173.664386 
L 73.733536 172.621234 
L 74.142775 171.542639 
L 74.347395 171.604106 
L 74.552015 172.178581 
L 75.165874 174.78129 
L 76.188973 176.32735 
L 76.393592 176.088859 
L 76.598212 175.26332 
L 77.007452 172.139836 
L 77.621311 167.630855 
L 78.43979 164.298643 
L 78.644409 164.113998 
L 78.849029 164.535968 
L 79.258269 166.777592 
L 80.281367 176.089393 
L 80.485987 176.746116 
L 80.690607 176.958727 
L 81.099846 176.91202 
L 81.304466 176.655468 
L 82.327564 174.244978 
L 83.146043 171.020019 
L 83.350663 170.84052 
L 83.555283 171.204567 
L 84.169142 173.241736 
L 84.578381 174.18419 
L 84.987621 175.984714 
L 85.192241 176.328078 
L 85.39686 175.942619 
L 85.8061 173.831504 
L 86.215339 171.594639 
L 86.419959 171.011765 
L 86.624579 170.822701 
L 87.033818 170.823235 
L 87.852297 170.31188 
L 88.670776 170.286875 
L 89.080015 170.445011 
L 89.489255 170.786675 
L 89.693875 170.542941 
L 90.103114 169.032811 
L 90.512353 167.76622 
L 90.716973 167.742526 
L 90.921593 168.192317 
L 91.330832 170.331543 
L 91.740072 172.458389 
L 91.944692 172.997323 
L 92.149311 172.949353 
L 92.353931 172.197904 
L 92.96779 169.202502 
L 93.581649 168.028501 
L 93.990889 166.307263 
L 94.400128 164.812232 
L 94.604748 165.139914 
L 96.855565 176.536077 
L 97.060185 176.784278 
L 97.264804 176.601623 
L 98.492523 174.042757 
L 99.924861 172.107888 
L 100.129481 171.51477 
L 100.74334 168.409201 
L 100.94796 168.168284 
L 101.152579 168.744748 
L 101.561819 170.462198 
L 101.766438 170.571393 
L 101.971058 170.03916 
L 102.584917 167.395909 
L 102.994157 166.732827 
L 103.198777 166.576293 
L 103.403396 166.713114 
L 103.608016 167.319487 
L 104.426495 170.768662 
L 104.631115 170.747299 
L 104.835734 170.188459 
L 105.244974 167.810645 
L 105.654213 165.415255 
L 106.063453 164.437212 
L 106.268072 164.561895 
L 106.472692 165.144041 
L 107.291171 168.493197 
L 107.495791 168.604674 
L 107.700411 168.379924 
L 108.31427 167.291084 
L 108.518889 167.267488 
L 108.723509 167.563027 
L 109.337368 168.909244 
L 109.746608 169.129285 
L 110.155847 169.06034 
L 110.360467 168.896669 
L 110.565087 168.541361 
L 110.974326 166.888875 
L 111.383566 165.041692 
L 111.588185 164.969106 
L 112.406664 166.670728 
L 112.611284 166.653152 
L 113.020523 165.81159 
L 114.043622 163.919545 
L 114.452862 163.465481 
L 114.657481 162.745883 
L 115.27134 158.824292 
L 115.68058 156.236974 
L 115.8852 155.564472 
L 116.089819 155.568211 
L 116.499059 157.419909 
L 116.703679 158.338135 
L 116.908298 158.663049 
L 117.112918 158.622604 
L 117.317538 158.852647 
L 117.522157 159.844381 
L 118.340636 166.490452 
L 118.749876 167.475487 
L 118.954496 167.538557 
L 119.159115 167.423147 
L 119.363735 167.137415 
L 119.772974 165.832759 
L 120.182214 164.501302 
L 120.386834 164.163473 
L 120.591453 164.154054 
L 121.205313 165.235125 
L 121.409932 165.280036 
L 121.614552 165.46944 
L 122.433031 167.059051 
L 122.637651 167.214517 
L 122.84227 167.545742 
L 123.25151 168.902107 
L 124.479228 173.233288 
L 125.093087 174.057031 
L 125.297707 174.16744 
L 125.502327 174.085629 
L 126.320806 173.191824 
L 126.730045 172.889245 
L 127.548524 171.677955 
L 128.162383 172.586811 
L 128.367003 171.896587 
L 128.980862 166.892225 
L 129.594721 162.917371 
L 130.003961 161.386654 
L 130.20858 161.09092 
L 130.4132 161.001049 
L 131.231679 161.102573 
L 132.254778 159.174065 
L 132.459397 159.023115 
L 133.277876 159.106237 
L 133.482496 158.999567 
L 133.687116 159.206838 
L 133.891736 160.063014 
L 134.710214 166.303768 
L 134.914834 166.543132 
L 135.119454 165.989729 
L 135.528693 163.298994 
L 135.937933 160.491345 
L 136.142553 160.236492 
L 136.347172 160.88564 
L 136.961031 163.653865 
L 137.165651 163.986547 
L 137.370271 164.019903 
L 137.574891 163.82778 
L 137.98413 162.905427 
L 138.39337 161.833338 
L 138.802609 161.477205 
L 139.416468 161.280858 
L 139.621088 161.662384 
L 139.825708 162.700729 
L 141.053426 172.126532 
L 141.667285 175.047067 
L 141.871905 175.241568 
L 142.076525 174.805323 
L 142.485764 172.274812 
L 142.895004 169.736774 
L 143.099623 169.25994 
L 143.304243 169.210707 
L 143.508863 169.397343 
L 143.918102 170.365385 
L 144.531961 172.270976 
L 144.736581 172.099925 
L 145.145821 170.107036 
L 145.75968 166.629118 
L 146.578159 163.925565 
L 147.601257 158.987963 
L 148.010497 157.867029 
L 148.215116 157.823575 
L 148.828976 158.87969 
L 149.442835 158.843859 
L 149.852074 159.534519 
L 150.261314 160.262031 
L 151.284412 161.653887 
L 151.693652 163.977371 
L 152.102891 166.271771 
L 152.307511 166.814249 
L 152.512131 167.041233 
L 152.92137 166.967238 
L 153.535229 166.824057 
L 153.944469 167.02288 
L 154.353708 167.303319 
L 154.558328 167.190483 
L 154.967567 166.457436 
L 155.376807 165.044556 
L 155.990666 163.046569 
L 157.218384 159.638324 
L 158.036863 155.241549 
L 158.241483 155.287091 
L 158.446103 156.373358 
L 159.059962 160.959197 
L 159.264582 161.580087 
L 159.469201 161.644517 
L 159.673821 161.173994 
L 160.083061 159.214655 
L 161.106159 153.540898 
L 161.515399 152.590918 
L 161.924638 152.095342 
L 162.333878 151.388902 
L 162.743117 151.09579 
L 163.152357 151.224503 
L 163.561596 151.506011 
L 163.970835 152.714484 
L 164.380075 153.96248 
L 165.607793 155.781453 
L 166.017033 156.557615 
L 166.221652 156.704341 
L 166.835512 156.655594 
L 167.040131 156.782073 
L 167.244751 157.103977 
L 168.26785 159.927892 
L 168.677089 160.002663 
L 168.881709 159.956295 
L 169.086329 159.762619 
L 169.495568 158.785353 
L 170.109427 156.38637 
L 170.314047 156.222117 
L 170.518667 156.523725 
L 171.337146 158.323084 
L 171.541765 158.215103 
L 171.951005 157.362714 
L 172.564864 155.618948 
L 172.769484 155.580397 
L 172.974103 155.861322 
L 173.383343 157.252354 
L 173.792582 159.891769 
L 174.406441 164.027963 
L 174.815681 165.1974 
L 175.22492 165.70628 
L 175.42954 165.485705 
L 175.83878 164.083798 
L 176.248019 162.669899 
L 176.452639 162.625376 
L 177.271118 164.267861 
L 177.475737 163.957901 
L 177.884977 162.647613 
L 178.294216 161.331061 
L 178.498836 161.062711 
L 178.703456 161.093833 
L 179.317315 162.155484 
L 179.521935 161.89296 
L 180.135794 160.063985 
L 180.340414 160.133269 
L 180.545033 160.439636 
L 180.749653 160.514941 
L 180.954273 160.034659 
L 181.772752 156.444439 
L 181.977371 155.976538 
L 182.181991 155.795922 
L 182.386611 155.970566 
L 182.79585 156.854368 
L 183.00047 156.891802 
L 183.20509 156.417589 
L 183.818949 153.587897 
L 184.432808 150.65202 
L 184.637428 150.529958 
L 184.842048 150.960474 
L 185.251287 152.27989 
L 185.455907 152.466526 
L 186.069766 151.652737 
L 186.274386 151.680752 
L 186.479005 151.945169 
L 186.888245 153.052362 
L 187.297484 154.804818 
L 187.911343 157.830275 
L 188.115963 158.057258 
L 188.320583 157.895772 
L 188.729822 157.319405 
L 188.934442 157.286875 
L 189.343682 157.739045 
L 189.548301 158.109792 
L 189.752921 158.742335 
L 190.16216 161.215118 
L 190.980639 167.735632 
L 191.185259 168.128033 
L 191.594499 167.948486 
L 191.799118 167.706791 
L 192.208358 166.408107 
L 192.822217 162.97408 
L 193.640696 157.118494 
L 194.049935 155.654683 
L 194.254555 155.370213 
L 194.663794 155.130072 
L 195.073034 154.141396 
L 195.482273 153.262449 
L 195.686893 153.508465 
L 196.096133 155.346714 
L 196.505372 157.260656 
L 196.914611 158.211947 
L 197.323851 159.154886 
L 198.960809 163.794182 
L 199.165428 163.623714 
L 199.574668 162.300074 
L 199.983907 160.170218 
L 200.597767 155.361279 
L 201.007006 152.549454 
L 201.620865 149.082023 
L 202.030105 146.610115 
L 202.234724 146.058363 
L 202.439344 145.992477 
L 203.053203 146.511553 
L 203.257823 146.552774 
L 203.462443 146.452999 
L 203.667062 145.984806 
L 204.280922 143.608934 
L 204.485541 143.644135 
L 204.690161 144.29037 
L 205.50864 148.14996 
L 206.122499 149.182333 
L 206.940978 152.161859 
L 207.145598 152.201721 
L 207.350217 151.560535 
L 207.759457 148.436371 
L 208.168696 145.174658 
L 208.577936 143.501925 
L 208.987175 143.012612 
L 209.191795 142.952261 
L 209.396415 142.750234 
L 209.601034 142.163184 
L 210.214894 139.091554 
L 210.419513 138.91997 
L 210.624133 139.480558 
L 211.647232 144.031827 
L 211.851851 144.197732 
L 212.261091 144.143256 
L 212.465711 144.455012 
L 213.07957 146.079144 
L 213.28419 146.205623 
L 214.102668 145.938293 
L 214.307288 145.941497 
L 214.511908 145.805744 
L 214.921147 145.056141 
L 215.535007 143.178273 
L 216.762725 137.886819 
L 216.967345 137.781072 
L 217.376584 138.089915 
L 217.785824 138.978912 
L 218.399683 140.392035 
L 218.604302 140.517398 
L 218.808922 140.210303 
L 219.218162 139.085485 
L 219.422781 138.973037 
L 219.832021 139.510272 
L 220.036641 139.43118 
L 220.24126 138.842674 
L 220.855119 136.056533 
L 221.059739 135.714092 
L 221.264359 135.908642 
L 221.673598 137.633812 
L 222.082838 139.80081 
L 222.287458 140.342463 
L 222.492077 140.38684 
L 222.696697 140.054303 
L 223.105936 138.460565 
L 224.333655 131.786334 
L 224.947514 129.27199 
L 225.152134 128.921198 
L 225.356753 128.852545 
L 225.970613 129.471444 
L 226.175232 129.147064 
L 227.198331 125.75489 
L 227.60757 125.518439 
L 228.01681 125.387444 
L 228.22143 125.547085 
L 228.630669 126.849265 
L 228.835289 127.581729 
L 229.039909 127.849157 
L 229.244528 127.454959 
L 229.858387 125.313839 
L 230.267627 124.689647 
L 230.472247 124.097791 
L 230.881486 121.491828 
L 233.132303 101.954564 
L 233.541543 99.913705 
L 233.746162 100.303436 
L 233.950782 101.981947 
L 234.973881 114.339063 
L 235.1785 114.887367 
L 235.38312 114.846972 
L 235.58774 114.612414 
L 235.79236 114.564104 
L 235.996979 114.863916 
L 236.610838 116.353558 
L 236.815458 116.32899 
L 237.020078 115.937899 
L 237.429317 114.175926 
L 238.043177 111.010347 
L 238.657036 109.514151 
L 239.884754 107.031949 
L 240.293994 105.037215 
L 240.703233 101.292841 
L 242.135571 82.010671 
L 243.567909 59.21378 
L 243.772529 59.029135 
L 243.977149 60.125258 
L 244.386388 65.78843 
L 245.614106 89.913185 
L 246.432585 97.763991 
L 247.251064 104.139041 
L 247.660304 105.669758 
L 247.864923 105.592268 
L 248.683402 103.940704 
L 249.092642 103.657545 
L 249.706501 102.789765 
L 250.11574 102.926926 
L 250.52498 102.982179 
L 250.934219 102.916147 
L 251.138839 102.646729 
L 251.343459 101.994765 
L 251.752698 99.167452 
L 252.571177 92.026096 
L 252.980417 88.55114 
L 253.594276 79.06217 
L 254.003515 73.237609 
L 254.208135 71.769962 
L 254.412755 71.637413 
L 254.617374 72.844867 
L 255.026614 78.857861 
L 255.845093 98.947363 
L 256.254332 107.208098 
L 256.663572 111.866912 
L 257.89129 118.823525 
L 258.09591 119.39931 
L 258.300529 119.556183 
L 258.709769 119.433928 
L 259.119008 119.336385 
L 259.528248 119.448153 
L 259.937487 119.589004 
L 260.142107 119.336531 
L 260.551346 117.750658 
L 260.960586 115.941784 
L 261.369825 115.112457 
L 261.779065 114.892077 
L 261.983685 114.76686 
L 262.392924 113.833922 
L 262.802163 112.939632 
L 263.211403 112.49591 
L 263.416023 112.516545 
L 263.620642 112.98566 
L 263.825262 114.140435 
L 264.234502 118.41612 
L 264.848361 124.721643 
L 265.2576 126.589606 
L 265.46222 127.036096 
L 265.66684 127.19661 
L 265.871459 127.079453 
L 266.280699 126.23391 
L 266.689938 124.799036 
L 267.508417 120.855498 
L 268.326896 115.021033 
L 268.531516 114.359649 
L 268.736136 114.130141 
L 269.145375 113.925055 
L 269.554614 113.385782 
L 269.759234 113.2795 
L 270.168474 113.456329 
L 270.577713 113.920394 
L 270.986953 114.62965 
L 271.191572 114.546674 
L 271.396192 114.026724 
L 272.419291 109.631503 
L 272.62391 109.484631 
L 273.03315 110.151355 
L 273.23777 110.163153 
L 273.647009 109.331642 
L 273.851629 109.345674 
L 274.670108 111.184554 
L 275.079347 111.258548 
L 275.693206 112.02228 
L 275.897826 111.606427 
L 276.307065 108.808342 
L 276.716305 106.299339 
L 277.125544 105.315713 
L 277.739404 104.450069 
L 277.944023 104.319025 
L 278.148643 104.030235 
L 278.557882 102.541419 
L 279.171742 99.97692 
L 279.580981 99.235182 
L 280.19484 98.659009 
L 280.39946 98.600357 
L 280.60408 98.379152 
L 281.013319 97.31721 
L 281.422559 96.321008 
L 281.627178 96.346984 
L 281.831798 96.982537 
L 282.854897 103.154735 
L 283.059516 103.104871 
L 283.264136 102.258211 
L 284.901094 91.538822 
L 285.105714 91.173804 
L 285.310333 91.15079 
L 285.514953 91.42317 
L 285.719573 92.053917 
L 286.538052 96.245266 
L 286.742671 96.208803 
L 286.947291 95.397635 
L 287.356531 92.92563 
L 287.56115 92.424421 
L 287.76577 92.807356 
L 288.17501 94.702265 
L 288.379629 95.138753 
L 288.584249 95.034219 
L 288.993488 94.490819 
L 289.198108 94.424059 
L 289.402728 94.5552 
L 289.607348 94.963867 
L 290.221207 97.320754 
L 290.835066 99.667203 
L 291.244305 100.713948 
L 291.448925 101.04464 
L 291.653545 101.127762 
L 291.858165 100.878104 
L 292.062784 100.256292 
L 292.472024 97.824147 
L 293.085883 93.291425 
L 293.290503 92.38087 
L 293.495122 91.9874 
L 293.699742 91.836013 
L 293.904362 91.395544 
L 294.108982 90.281214 
L 294.722841 84.106346 
L 295.13208 80.674358 
L 295.3367 79.768125 
L 295.54132 79.542209 
L 295.745939 79.983407 
L 296.155179 81.470135 
L 296.359799 81.578165 
L 297.178278 79.864841 
L 297.382897 80.245251 
L 297.792137 82.377146 
L 298.201376 84.879934 
L 298.405996 85.196448 
L 298.610616 84.656835 
L 299.429095 79.995108 
L 299.633714 79.956266 
L 300.042954 80.870948 
L 300.247573 80.947175 
L 300.656813 80.460727 
L 301.066052 79.606347 
L 301.475292 77.466004 
L 303.726109 60.343696 
L 304.339968 50.202519 
L 305.158447 35.211281 
L 307.000024 8.255813 
L 307.409264 5.445105 
L 307.818503 3.557089 
L 308.023123 3.002425 
L 308.227743 3.00024 
L 308.432363 3.855251 
L 308.841602 8.045581 
L 309.864701 23.372949 
L 311.297039 44.792743 
L 311.910898 49.980731 
L 312.729377 56.41754 
L 312.933997 56.903115 
L 313.343236 56.9053 
L 313.547856 57.168746 
L 313.957095 58.003559 
L 314.161715 57.864844 
L 314.366335 57.131991 
L 314.775574 54.149795 
L 315.184814 49.43704 
L 315.798673 39.08699 
L 316.412532 28.990773 
L 316.821771 25.037574 
L 317.435631 21.693758 
L 318.04949 19.832301 
L 318.663349 17.715749 
L 318.867969 17.375007 
L 319.072588 17.402293 
L 319.277208 17.926467 
L 319.891067 21.306649 
L 320.300307 24.098664 
L 320.709546 29.548205 
L 322.755743 62.949561 
L 323.164983 67.379498 
L 323.574222 68.981053 
L 323.778842 69.191432 
L 323.983462 69.214494 
L 324.188081 69.040433 
L 324.801941 67.936736 
L 325.00656 67.901293 
L 325.825039 68.861614 
L 326.029659 69.439632 
L 326.438898 71.69456 
L 326.848138 74.051156 
L 327.052758 74.410057 
L 327.257377 74.003137 
L 327.666617 71.45539 
L 328.280476 66.815026 
L 328.485096 66.10174 
L 328.689715 65.904277 
L 328.894335 65.900926 
L 329.098955 65.750365 
L 330.531293 62.907417 
L 330.735913 63.046084 
L 330.940532 63.639202 
L 331.349772 66.039835 
L 332.57749 74.945009 
L 332.78211 75.425776 
L 332.98673 75.220059 
L 333.395969 73.639818 
L 334.009828 71.299342 
L 334.419068 70.570859 
L 334.828307 70.099802 
L 335.032927 70.128351 
L 335.237547 70.51143 
L 335.646786 72.219753 
L 336.056026 74.040911 
L 336.260645 74.103447 
L 336.465265 73.197165 
L 337.283744 67.636244 
L 337.897603 64.856318 
L 338.306843 62.982043 
L 338.511462 62.625084 
L 338.716082 62.782152 
L 339.534561 64.931477 
L 340.14842 65.27421 
L 340.35304 65.741091 
L 340.762279 67.703732 
L 341.376139 71.638384 
L 341.580758 72.371674 
L 341.785378 72.682313 
L 341.989998 72.695908 
L 342.603857 72.128183 
L 342.808477 72.382744 
L 344.445434 77.808494 
L 345.263913 83.417482 
L 345.877773 84.736946 
L 346.082392 85.045013 
L 346.287012 84.860561 
L 346.696251 83.087518 
L 347.105491 81.451831 
L 347.310111 81.070839 
L 347.51473 81.025879 
L 347.71935 81.118954 
L 347.92397 80.978055 
L 348.12859 80.402658 
L 348.742449 77.860251 
L 348.947068 77.864281 
L 349.356308 79.577507 
L 349.765547 81.042047 
L 349.970167 81.156048 
L 350.584026 80.554676 
L 350.788646 81.01544 
L 351.197885 83.673548 
L 351.811745 89.318465 
L 352.220984 90.716148 
L 352.630224 91.264889 
L 352.834843 91.252848 
L 353.039463 90.841559 
L 353.448702 89.078809 
L 354.267181 84.557739 
L 354.471801 84.349691 
L 354.881041 84.514381 
L 355.4949 84.131059 
L 355.699519 84.319977 
L 356.313379 85.273404 
L 356.517998 85.182902 
L 357.336477 84.058813 
L 357.541097 84.362315 
L 357.745717 85.072251 
L 358.768815 90.449691 
L 359.178055 90.063601 
L 359.382674 90.184788 
L 359.791914 91.512604 
L 360.201153 92.772689 
L 360.405773 92.927183 
L 360.610393 92.647715 
L 361.019632 91.695502 
L 361.224252 91.452107 
L 361.428872 91.398651 
L 361.633491 91.59626 
L 361.838111 92.168841 
L 362.247351 94.441538 
L 363.06583 100.097573 
L 363.475069 101.453501 
L 364.702787 104.039508 
L 364.907407 104.000035 
L 365.316647 103.097977 
L 365.725886 102.454558 
L 366.339745 102.824383 
L 366.544365 102.689164 
L 366.953604 102.130518 
L 367.158224 102.062108 
L 367.362844 102.306036 
L 367.567464 102.955718 
L 368.181323 106.731749 
L 368.590562 108.822665 
L 369.204421 110.656787 
L 370.0229 115.146881 
L 370.22752 115.222332 
L 370.43214 114.64509 
L 371.045999 112.237999 
L 371.250619 112.128367 
L 372.069098 112.932495 
L 372.273717 113.429722 
L 372.682957 115.799233 
L 373.501436 121.327624 
L 373.706055 121.641904 
L 373.910675 121.195512 
L 374.729154 117.386902 
L 375.343013 115.98082 
L 375.547633 115.867644 
L 375.956872 116.287381 
L 377.38921 118.564739 
L 377.59383 119.046138 
L 378.00307 120.85409 
L 378.412309 122.795465 
L 378.821549 123.465928 
L 379.230788 124.046422 
L 379.640027 124.756212 
L 379.844647 124.721303 
L 380.458506 123.386447 
L 380.663126 123.376445 
L 381.276985 124.231747 
L 381.481605 124.779275 
L 381.890844 126.834117 
L 382.300084 129.184644 
L 382.504704 129.691242 
L 382.709323 129.614334 
L 383.323183 128.606189 
L 383.527802 128.677755 
L 383.937042 129.384535 
L 384.141661 129.449984 
L 384.346281 128.962856 
L 385.36938 124.377988 
L 385.574 124.387941 
L 385.778619 125.041847 
L 386.187859 127.545266 
L 387.415577 136.646058 
L 388.029436 136.937471 
L 388.234056 136.969127 
L 388.438676 136.724859 
L 388.643295 136.04488 
L 389.461774 131.504438 
L 389.871014 130.781684 
L 390.075634 130.697397 
L 390.484873 130.879809 
L 390.894112 130.723081 
L 391.098732 130.853639 
L 391.507972 132.113967 
L 392.121831 134.114867 
L 393.144929 136.762293 
L 393.349549 136.566626 
L 393.554169 135.916847 
L 394.577268 131.061541 
L 394.781887 131.049597 
L 394.986507 131.524975 
L 395.804986 134.956526 
L 396.214225 136.892268 
L 397.441944 144.159084 
L 397.646563 144.626694 
L 397.851183 144.802794 
L 398.055803 144.545222 
L 398.669662 142.256551 
L 399.283521 139.736138 
L 399.488141 139.460748 
L 399.692761 139.64015 
L 400.102 140.2406 
L 400.30662 140.083386 
L 400.715859 139.139816 
L 400.920479 138.978427 
L 401.125099 139.144282 
L 401.738958 140.371303 
L 402.352817 141.579631 
L 402.762057 142.031219 
L 402.966676 142.0201 
L 403.375916 141.325021 
L 403.785155 140.62334 
L 403.989775 140.622563 
L 404.194395 141.015353 
L 404.399014 141.945086 
L 405.422113 148.717345 
L 405.626733 149.099114 
L 405.831352 149.149172 
L 406.240592 148.874607 
L 406.854451 149.023615 
L 407.263691 148.949087 
L 407.67293 148.924616 
L 408.082169 148.785124 
L 408.286789 148.865625 
L 408.491409 148.810129 
L 409.105268 147.853255 
L 409.309888 148.131267 
L 409.719127 149.993598 
L 410.332986 153.663007 
L 410.537606 154.320506 
L 410.742226 154.442956 
L 411.151465 153.654754 
L 411.560705 152.984145 
L 411.765325 153.099943 
L 412.174564 153.775164 
L 412.379184 153.668688 
L 412.583803 152.904519 
L 414.016142 144.294885 
L 414.220761 144.099752 
L 414.630001 144.453021 
L 414.83462 144.846491 
L 415.24386 146.630992 
L 416.266959 152.647142 
L 416.676198 153.977483 
L 416.880818 154.064003 
L 417.290057 153.686458 
L 417.494677 154.035406 
L 418.313156 157.612517 
L 418.517776 157.522257 
L 418.927015 156.038005 
L 419.336254 154.285597 
L 419.540874 153.836195 
L 419.745494 153.914073 
L 419.950114 154.535012 
L 420.973212 159.586422 
L 421.177832 159.63779 
L 421.382452 159.317635 
L 422.40555 155.991443 
L 423.01941 154.22209 
L 423.224029 154.064586 
L 423.428649 154.239278 
L 424.042508 155.488099 
L 424.247128 155.045202 
L 424.656367 152.138845 
L 425.065607 148.899709 
L 425.270227 148.104709 
L 425.474846 147.9289 
L 425.679466 148.251095 
L 426.088705 149.28138 
L 426.293325 149.359841 
L 426.702565 149.106154 
L 426.907184 149.204716 
L 427.111804 149.500692 
L 427.316424 150.097015 
L 427.725663 152.607717 
L 428.134903 155.558257 
L 428.544142 156.911612 
L 428.748762 156.998521 
L 429.158001 156.589126 
L 429.362621 156.648748 
L 429.567241 157.119174 
L 430.38572 159.843896 
L 430.794959 160.406815 
L 431.204199 161.197105 
L 431.408818 161.347278 
L 431.613438 161.041688 
L 432.227297 158.490007 
L 432.431917 158.298953 
L 432.636537 158.506758 
L 433.455016 160.284996 
L 433.659635 159.963627 
L 433.864255 158.830846 
L 434.682734 152.000179 
L 434.887354 151.953908 
L 435.091973 152.786536 
L 435.705833 157.649368 
L 436.728931 164.74188 
L 437.138171 166.146651 
L 437.34279 166.100721 
L 437.54741 165.550523 
L 437.95665 163.172758 
L 438.570509 159.382744 
L 438.979748 158.256906 
L 439.388988 157.54969 
L 439.798227 156.735657 
L 440.002847 156.724733 
L 440.207467 157.029886 
L 440.616706 158.394019 
L 441.844424 163.576958 
L 442.049044 163.951978 
L 442.253664 163.911242 
L 442.662903 162.93752 
L 443.276762 161.132141 
L 443.686002 160.608648 
L 444.095241 160.128026 
L 444.504481 159.505921 
L 444.709101 159.422071 
L 445.11834 159.603852 
L 445.527579 160.03228 
L 445.732199 160.495472 
L 446.141439 162.359162 
L 446.550678 164.160268 
L 446.755298 164.537473 
L 446.959918 164.541115 
L 447.369157 164.247663 
L 447.573777 164.405507 
L 447.983016 164.970028 
L 448.187636 164.925311 
L 448.392256 164.472316 
L 449.006115 162.465881 
L 449.619974 161.578 
L 450.029213 160.375935 
L 450.643073 157.443165 
L 451.052312 156.013341 
L 451.256932 155.985034 
L 451.461552 156.473473 
L 452.075411 158.710242 
L 452.28003 158.90654 
L 452.89389 158.65931 
L 453.303129 159.007141 
L 453.507749 158.974174 
L 453.916988 158.504379 
L 454.121608 158.580752 
L 454.530847 159.755773 
L 455.144707 162.278953 
L 455.553946 163.98344 
L 455.758566 164.446583 
L 455.963186 164.498777 
L 456.372425 163.752524 
L 456.986284 162.397907 
L 457.190904 162.237635 
L 457.804763 162.509432 
L 458.009383 162.223263 
L 458.827862 159.983436 
L 459.032481 159.950712 
L 459.237101 160.26776 
L 459.646341 161.708946 
L 460.2602 163.822391 
L 460.669439 164.55403 
L 460.874059 164.421918 
L 461.283298 163.087208 
L 462.511017 157.922719 
L 462.715637 157.733364 
L 462.920256 158.146255 
L 463.534115 160.239599 
L 463.738735 160.344667 
L 463.943355 160.244163 
L 464.147975 159.904392 
L 465.580313 156.147491 
L 465.989552 155.374971 
L 466.194172 155.293257 
L 466.398792 155.339334 
L 466.603411 155.539807 
L 466.808031 156.054853 
L 467.217271 158.168444 
L 467.83113 161.673066 
L 468.035749 162.434856 
L 468.240369 162.745883 
L 468.444989 162.557111 
L 468.854228 161.673648 
L 469.058848 161.514153 
L 469.263468 161.695934 
L 469.672707 163.0405 
L 470.081947 164.297235 
L 470.286566 164.451632 
L 471.105045 163.922506 
L 471.309665 164.112833 
L 471.514285 164.719788 
L 472.332764 169.433321 
L 472.537383 169.3837 
L 473.355862 167.073035 
L 473.765102 167.118286 
L 474.174341 167.132026 
L 474.378961 166.954178 
L 474.583581 166.476226 
L 476.015919 161.193706 
L 476.220538 160.712744 
L 476.425158 160.588984 
L 476.629778 160.963081 
L 477.243637 162.846824 
L 477.652877 162.890279 
L 478.675975 162.978742 
L 478.880595 163.269766 
L 479.289834 164.525092 
L 480.312933 168.17343 
L 480.926792 170.712536 
L 481.336032 172.439065 
L 481.540651 172.750384 
L 481.949891 172.689111 
L 482.154511 172.894731 
L 482.76837 174.126898 
L 482.972989 174.196523 
L 483.177609 174.021491 
L 483.586849 173.248631 
L 484.814567 170.061154 
L 485.019187 169.986577 
L 485.428426 170.462198 
L 485.837666 170.857174 
L 486.042285 170.584648 
L 486.451525 168.75475 
L 486.860764 167.079055 
L 487.065384 166.966899 
L 487.270004 167.271566 
L 487.679243 168.585253 
L 488.293102 170.696319 
L 488.702342 171.207092 
L 488.906962 171.074204 
L 489.316201 170.089994 
L 489.93006 168.416144 
L 490.13468 168.369971 
L 490.543919 168.823209 
L 490.953159 169.875295 
L 491.771638 172.686732 
L 492.180877 173.725029 
L 492.590117 175.113778 
L 492.999356 175.751856 
L 493.408596 176.168194 
L 493.613215 176.146297 
L 494.022455 175.460006 
L 494.431694 174.83931 
L 495.045553 174.521873 
L 495.250173 174.694769 
L 495.659413 175.829054 
L 496.068652 177.156336 
L 496.273272 177.313452 
L 496.477891 177.011698 
L 496.887131 175.979276 
L 497.29637 175.607412 
L 497.50099 175.410677 
L 497.91023 174.147582 
L 498.114849 173.507902 
L 498.319469 173.271062 
L 498.524089 173.461971 
L 498.933328 174.097621 
L 499.137948 174.11442 
L 499.342568 173.825872 
L 499.751807 172.241553 
L 500.365666 169.190704 
L 500.979525 167.573806 
L 501.388765 167.100467 
L 502.002624 166.455203 
L 502.207244 166.684226 
L 502.616483 168.723628 
L 503.230342 172.37852 
L 503.434962 173.089573 
L 503.639582 173.384141 
L 503.844202 173.308836 
L 504.253441 172.89041 
L 504.458061 172.922552 
L 505.07192 173.326218 
L 505.27654 173.30704 
L 505.481159 173.107343 
L 506.095019 172.041031 
L 506.299638 172.206353 
L 507.118117 174.20803 
L 507.322737 174.193949 
L 507.527357 173.81723 
L 507.936596 172.390318 
L 508.550455 170.247402 
L 508.959695 169.650011 
L 509.164315 169.753962 
L 509.778174 170.675393 
L 509.982793 170.471229 
L 510.392033 169.554168 
L 510.596653 169.361851 
L 511.210512 169.467113 
L 511.619751 168.844524 
L 511.824371 168.745379 
L 512.028991 169.037229 
L 512.43823 171.008755 
L 512.84747 173.167597 
L 514.075188 177.007523 
L 514.893667 177.831605 
L 515.098287 178.095974 
L 515.712146 178.265763 
L 516.121385 178.88408 
L 516.530625 179.50968 
L 516.735244 179.301632 
L 516.939864 178.355002 
L 517.349104 174.367573 
L 517.758343 170.042073 
L 517.962963 168.831269 
L 518.167582 168.478437 
L 518.372202 168.802817 
L 519.190681 171.216366 
L 519.599921 171.708203 
L 519.80454 171.682276 
L 520.418399 170.708117 
L 520.623019 171.283223 
L 521.236878 173.98663 
L 521.850738 174.950059 
L 522.464597 176.681443 
L 522.873836 177.491689 
L 523.692315 179.712338 
L 524.306174 179.567409 
L 524.510794 179.359458 
L 524.920033 178.081894 
L 525.124653 177.471442 
L 525.329273 177.264997 
L 525.533893 177.455032 
L 525.738512 177.820875 
L 525.943132 177.927982 
L 526.147752 177.372007 
L 527.37547 170.369366 
L 527.58009 170.050715 
L 527.989329 169.917002 
L 528.193949 169.921857 
L 528.398569 170.17501 
L 528.603189 170.889898 
L 529.217048 174.86951 
L 530.035527 180.969947 
L 530.240146 181.321176 
L 530.444766 180.803703 
L 531.467865 175.831676 
L 531.877104 174.952341 
L 532.490963 174.12918 
L 533.104823 172.441299 
L 533.309442 171.950772 
L 533.514062 171.765107 
L 533.718682 171.921155 
L 534.537161 173.472749 
L 534.9464 174.433508 
L 535.15102 174.562998 
L 535.969499 173.902197 
L 536.174118 174.103836 
L 536.378738 174.891456 
L 537.401837 181.796991 
L 537.811076 182.45114 
L 538.629555 182.582184 
L 538.834175 182.47027 
L 539.038795 181.989745 
L 539.448034 180.107702 
L 540.471133 174.459095 
L 540.880372 173.117636 
L 541.084992 172.986107 
L 541.494231 173.237804 
L 541.698851 173.112441 
L 542.51733 171.460585 
L 542.72195 171.578131 
L 543.335809 172.42615 
L 543.540429 172.439648 
L 543.745048 172.223977 
L 544.154288 171.201751 
L 544.972767 168.483438 
L 546.200485 162.371494 
L 546.609725 162.033326 
L 546.814344 162.029976 
L 547.018964 162.244627 
L 547.428203 163.604244 
L 547.837443 165.953995 
L 548.451302 171.410527 
L 548.860542 175.315125 
L 549.065161 176.433728 
L 549.269781 176.807923 
L 549.67902 176.476649 
L 549.88364 176.610217 
L 550.29288 177.835393 
L 550.702119 178.878787 
L 550.906739 178.899714 
L 551.315978 178.676323 
L 551.929837 179.303914 
L 552.134457 179.196127 
L 552.748316 178.112094 
L 553.362175 176.983246 
L 554.180654 176.111339 
L 554.385274 176.307929 
L 556.022232 180.427372 
L 556.226852 180.68504 
L 556.431471 180.745537 
L 556.636091 180.436403 
L 557.863809 176.776752 
L 558.273049 176.671247 
L 558.886908 176.337837 
L 559.091528 176.426834 
L 559.296148 176.827635 
L 559.705387 178.686471 
L 560.319246 181.861858 
L 560.728486 183.244246 
L 561.137725 183.930634 
L 561.546965 183.988023 
L 561.751584 183.747057 
L 561.956204 183.01838 
L 562.570063 179.706075 
L 562.979303 179.087855 
L 563.388542 178.824797 
L 564.002401 177.986488 
L 564.411641 178.184437 
L 564.61626 177.834713 
L 565.434739 174.143358 
L 566.048599 174.155933 
L 566.457838 173.223675 
L 566.662458 172.688625 
L 566.867077 172.48587 
L 567.071697 172.751841 
L 567.480937 174.207544 
L 568.299416 177.454546 
L 568.913275 179.269781 
L 569.527134 181.466785 
L 569.731754 181.123033 
L 570.140993 178.308974 
L 570.754852 173.922249 
L 570.959472 173.462068 
L 571.164092 173.482314 
L 571.573331 173.693955 
L 571.982571 173.599617 
L 572.18719 173.783874 
L 572.39181 174.274547 
L 573.005669 177.008931 
L 573.414909 178.560185 
L 573.824148 179.013715 
L 574.028768 179.014298 
L 574.233388 178.830769 
L 575.051867 177.333942 
L 575.256486 177.28636 
L 575.665726 177.639386 
L 575.870345 177.55471 
L 576.279585 177.066514 
L 577.302684 176.907213 
L 577.711923 176.941734 
L 577.916543 176.627356 
L 578.325782 174.892184 
L 578.735022 172.923668 
L 578.939641 172.470236 
L 579.144261 172.379297 
L 579.553501 172.582538 
L 579.75812 172.869387 
L 579.96274 173.537664 
L 580.371979 175.980441 
L 581.190458 181.418621 
L 581.395078 181.618706 
L 581.599698 180.882406 
L 582.418177 174.557123 
L 582.622796 174.093446 
L 582.827416 174.080288 
L 583.645895 174.742593 
L 584.259754 174.103981 
L 584.464374 174.436275 
L 585.282853 176.856281 
L 585.487473 176.821809 
L 585.692092 176.522191 
L 585.896712 175.830899 
L 586.305952 173.208041 
L 586.919811 168.493489 
L 587.12443 167.584439 
L 587.32905 167.287491 
L 587.53367 167.503162 
L 587.942909 168.167264 
L 588.352149 168.427797 
L 588.761388 168.87016 
L 588.966008 168.806507 
L 589.784487 167.621339 
L 589.989107 167.768793 
L 590.398346 168.324963 
L 590.602966 168.347928 
L 591.012205 168.002234 
L 591.421445 167.272294 
L 592.035304 165.691325 
L 592.239924 165.650978 
L 592.444543 165.854316 
L 593.058402 166.846051 
L 593.263022 166.752636 
L 593.467642 166.305127 
L 594.286121 163.501556 
L 594.69536 163.174408 
L 594.89998 163.112018 
L 595.1046 163.393041 
L 595.513839 165.625245 
L 595.923079 167.611725 
L 596.127698 167.436062 
L 596.536938 164.922495 
L 596.741558 163.652214 
L 596.946177 163.129497 
L 597.150797 163.463345 
L 597.764656 166.666795 
L 598.787755 172.981543 
L 598.992375 173.16915 
L 599.196994 172.541754 
L 600.220093 166.268518 
L 600.424713 166.10878 
L 600.629332 166.511767 
L 600.833952 167.557201 
L 601.447811 172.44426 
L 601.652431 172.885894 
L 601.857051 172.348952 
L 602.880149 166.623001 
L 603.289389 163.109105 
L 604.107868 154.816131 
L 604.517107 152.879515 
L 605.130966 152.295087 
L 605.540206 149.920915 
L 605.949445 146.029329 
L 606.563304 137.640366 
L 608.814121 100.502987 
L 609.018741 100.139911 
L 609.223361 101.519824 
L 609.6326 108.833687 
L 610.860319 137.617207 
L 611.883417 152.387191 
L 612.497277 156.367337 
L 613.111136 159.357739 
L 614.543474 163.535057 
L 615.157333 166.004247 
L 615.361953 166.252156 
L 615.566572 166.0075 
L 615.975812 164.989692 
L 616.180432 164.925263 
L 616.589671 165.794937 
L 616.998911 166.756666 
L 617.40815 167.259088 
L 617.61277 167.22379 
L 618.022009 166.437627 
L 618.431249 165.739781 
L 618.635868 165.831497 
L 618.840488 166.383782 
L 619.249728 168.854234 
L 619.658967 171.160336 
L 620.477446 173.453037 
L 622.114404 180.900517 
L 622.319023 181.467174 
L 622.523643 181.57263 
L 622.728263 181.183384 
L 623.342122 178.529694 
L 624.160601 174.633399 
L 624.365221 174.297755 
L 624.56984 174.257602 
L 625.1837 174.59446 
L 625.388319 174.513862 
L 625.592939 174.204582 
L 626.206798 172.704939 
L 626.411418 172.642792 
L 626.616038 172.858754 
L 627.434517 174.427827 
L 627.639136 174.344511 
L 628.457615 173.390938 
L 628.662235 173.059858 
L 628.866855 172.376432 
L 629.276094 169.536641 
L 629.685334 166.584013 
L 629.889953 165.762552 
L 630.094573 165.562661 
L 630.913052 166.394706 
L 631.731531 168.075985 
L 632.14077 168.387595 
L 633.573108 170.189721 
L 633.777728 170.072564 
L 635.005446 166.005897 
L 635.619306 162.595225 
L 635.823925 162.192967 
L 636.028545 162.045707 
L 636.233165 162.164806 
L 636.437785 162.645574 
L 636.847024 164.680024 
L 637.256263 166.502542 
L 637.460883 166.751714 
L 637.870123 166.520895 
L 638.074742 166.426897 
L 638.279362 166.514971 
L 638.483982 166.916744 
L 639.302461 169.780278 
L 639.50708 169.871508 
L 639.91632 169.605585 
L 640.12094 169.628162 
L 640.734799 170.231282 
L 640.939419 169.841357 
L 641.757897 166.792012 
L 642.167137 166.529925 
L 642.576376 165.830186 
L 642.985616 165.197934 
L 643.190236 165.410691 
L 643.394855 165.797267 
L 643.599475 165.825622 
L 644.008714 164.409246 
L 644.213334 163.747669 
L 644.417954 163.490971 
L 644.622574 163.578609 
L 645.236433 164.269269 
L 646.054912 164.600349 
L 646.259531 164.330348 
L 646.464151 163.643718 
L 646.873391 160.836845 
L 647.48725 155.738679 
L 647.69187 155.111234 
L 647.896489 155.40755 
L 649.328827 162.196123 
L 649.942687 164.164007 
L 650.147306 164.451632 
L 650.761165 164.522374 
L 650.965785 164.469208 
L 651.170405 164.023059 
L 651.784264 161.567561 
L 651.988884 161.298288 
L 652.193504 161.245657 
L 652.398123 161.331547 
L 652.602743 161.779639 
L 652.807363 162.883627 
L 654.035081 172.583606 
L 654.444321 174.282752 
L 654.64894 174.207301 
L 654.85356 173.359719 
L 655.262799 170.0747 
L 656.490518 158.673002 
L 656.899757 157.07805 
L 657.104377 157.030274 
L 657.308997 157.384514 
L 658.332095 160.14531 
L 658.536715 160.120451 
L 658.945955 159.678235 
L 659.764433 158.551718 
L 659.969053 159.03399 
L 660.992152 162.576775 
L 661.810631 164.914678 
L 662.01525 164.399633 
L 662.42449 161.502209 
L 663.038349 156.492069 
L 663.447589 154.765734 
L 663.856828 153.888874 
L 664.675307 153.090184 
L 664.879927 153.40665 
L 665.289166 155.874869 
L 666.107645 161.751138 
L 666.312265 162.666597 
L 666.516884 162.977819 
L 666.721504 162.569783 
L 667.335363 160.011888 
L 667.539983 159.754656 
L 668.153842 159.903955 
L 668.358462 159.602347 
L 668.767701 158.015115 
L 669.176941 156.10394 
L 669.58618 155.171924 
L 669.7908 154.912217 
L 669.99542 154.865266 
L 670.609279 155.28277 
L 670.813899 155.316951 
L 671.018518 155.521794 
L 671.427758 156.263289 
L 671.632378 156.324951 
L 671.836997 155.880306 
L 672.246237 153.355475 
L 673.064716 146.230385 
L 673.269335 145.334493 
L 673.473955 145.079009 
L 673.678575 145.435822 
L 674.087814 147.393948 
L 674.497054 149.646204 
L 674.701673 150.303364 
L 674.906293 150.329485 
L 675.929392 147.690264 
L 676.95249 143.858592 
L 677.15711 143.765759 
L 677.36173 143.94453 
L 677.975589 145.107704 
L 678.794068 146.718581 
L 678.998688 146.563164 
L 679.203307 145.852306 
L 679.612547 142.632736 
L 681.044885 126.515661 
L 681.249505 126.076308 
L 681.454124 126.664086 
L 681.863364 130.786782 
L 682.477223 138.284611 
L 682.886463 140.581147 
L 683.295702 140.785214 
L 683.704941 141.797195 
L 684.114181 142.480427 
L 684.72804 142.640748 
L 685.341899 143.21294 
L 685.546519 142.914001 
L 685.955758 141.498354 
L 687.388097 134.512367 
L 687.797336 131.0579 
L 688.820435 117.397827 
L 689.229674 109.765508 
L 690.662012 78.525713 
L 690.866632 78.298292 
L 691.071252 80.187327 
L 691.480491 88.013177 
L 692.29897 104.82504 
L 692.708209 109.619704 
L 693.117449 112.47882 
L 694.140548 116.845735 
L 696.391365 122.501625 
L 696.595984 122.005563 
L 697.005224 119.569049 
L 697.619083 113.867132 
L 698.437562 104.299167 
L 698.846801 97.341535 
L 699.46066 80.212429 
L 699.8699 68.597148 
L 700.07452 64.864426 
L 700.279139 63.281709 
L 700.483759 64.128078 
L 700.688379 67.261564 
L 702.529956 109.126847 
L 703.143816 116.989985 
L 703.757675 122.582853 
L 704.166914 123.884936 
L 704.985393 124.71703 
L 705.599252 125.641569 
L 705.803872 125.367635 
L 706.008492 124.529132 
L 706.417731 121.476874 
L 707.03159 116.867487 
L 707.23621 116.259609 
L 707.645449 116.097346 
L 707.850069 115.671928 
L 708.259309 113.275956 
L 709.077788 106.865705 
L 709.487027 103.285924 
L 709.691647 102.481068 
L 709.896266 102.494954 
L 710.100886 103.132692 
L 710.510126 105.780312 
L 711.123985 112.162645 
L 711.737844 118.60062 
L 712.147083 120.927065 
L 713.374802 125.145604 
L 713.579422 125.269704 
L 713.988661 124.409595 
L 714.193281 124.056812 
L 714.3979 124.081283 
L 715.01176 124.818651 
L 715.216379 124.883906 
L 715.420999 124.751503 
L 715.830239 123.92606 
L 716.239478 122.42865 
L 717.262577 116.439205 
L 717.467196 116.129585 
L 718.081056 115.878083 
L 718.694915 114.756712 
L 718.899534 114.716365 
L 719.104154 115.052689 
L 719.513394 116.850591 
L 719.922633 119.17286 
L 720.331873 120.174937 
L 720.741112 120.338365 
L 721.354971 119.782729 
L 721.96883 119.035651 
L 722.17345 119.230784 
L 722.58269 120.491257 
L 723.196549 123.211658 
L 723.605788 124.983584 
L 724.015028 125.605203 
L 724.424267 125.737606 
L 724.628887 125.602969 
L 724.833507 125.209936 
L 725.242746 123.361394 
L 725.856605 119.872697 
L 726.470464 117.463227 
L 726.675084 117.227504 
L 726.879704 117.601796 
L 727.288943 118.856735 
L 727.493563 119.099255 
L 727.698183 119.040021 
L 728.516662 118.110384 
L 729.335141 117.324512 
L 729.74438 117.406032 
L 729.949 117.141761 
L 730.767479 114.711316 
L 730.972098 114.640429 
L 731.176718 114.222294 
L 731.995197 110.715827 
L 732.199817 110.72646 
L 732.404436 110.876536 
L 732.609056 110.79657 
L 732.813676 110.344157 
L 733.632155 107.545393 
L 734.859873 105.051829 
L 735.269113 104.209976 
L 735.882972 102.631823 
L 736.701451 101.057021 
L 737.51993 97.573276 
L 737.724549 97.395671 
L 737.929169 97.451361 
L 738.543028 97.896831 
L 739.361507 97.840558 
L 739.566127 97.959852 
L 740.179986 98.797093 
L 740.384606 98.447563 
L 740.793845 96.587076 
L 741.407704 92.09572 
L 742.226183 85.230726 
L 742.635423 83.436611 
L 743.044662 82.70337 
L 743.249282 82.667199 
L 743.453902 82.770422 
L 743.863141 83.403353 
L 744.067761 83.357179 
L 744.272381 82.727161 
L 744.68162 80.18053 
L 745.500099 72.317732 
L 746.523198 61.747496 
L 746.727817 61.329799 
L 746.932437 61.995017 
L 747.341676 65.270617 
L 748.160155 73.94939 
L 748.774015 80.387413 
L 750.001733 89.302831 
L 750.206353 89.933771 
L 750.410972 89.914108 
L 751.229451 88.566628 
L 751.434071 87.828483 
L 751.84331 84.935963 
L 752.45717 79.410341 
L 752.866409 77.863504 
L 753.071029 77.701193 
L 753.480268 77.711098 
L 753.684888 77.390311 
L 753.889508 76.642747 
L 754.298747 73.662444 
L 755.117226 64.96357 
L 756.140325 52.097138 
L 756.344944 51.213627 
L 756.549564 51.272424 
L 756.754184 52.087622 
L 757.163423 55.724112 
L 758.186522 69.84223 
L 758.595761 72.052441 
L 758.800381 72.519031 
L 759.005001 72.483879 
L 759.41424 71.547008 
L 759.61886 71.473208 
L 759.82348 72.007918 
L 760.232719 73.768628 
L 760.437339 74.063051 
L 760.641959 73.753334 
L 761.665057 70.284787 
L 762.074297 67.376245 
L 762.483536 63.866088 
L 762.688156 63.393283 
L 762.892776 63.830984 
L 763.302015 64.967309 
L 763.506635 64.7915 
L 763.915874 62.671306 
L 764.529734 59.331035 
L 764.938973 57.548767 
L 765.143593 57.022166 
L 765.348212 56.886558 
L 765.757452 57.255218 
L 766.166691 57.814932 
L 766.780551 59.74344 
L 767.39441 62.413104 
L 767.803649 63.750144 
L 768.212889 64.022476 
L 768.417508 64.387154 
L 768.826748 65.983223 
L 769.235987 67.528603 
L 769.440607 67.631146 
L 769.849846 66.996904 
L 770.259086 66.094554 
L 770.668325 64.390456 
L 771.486804 60.020724 
L 771.896044 59.251554 
L 772.509903 58.792975 
L 772.714523 58.961938 
L 773.123762 60.343696 
L 773.533002 61.804837 
L 773.737621 61.889513 
L 774.146861 61.077908 
L 774.5561 60.348114 
L 774.76072 60.348648 
L 775.579199 60.972403 
L 775.988438 61.163555 
L 776.193058 61.048631 
L 776.397678 60.585585 
L 777.011537 58.216947 
L 777.216157 58.132369 
L 778.034636 59.02292 
L 778.239255 58.903432 
L 778.648495 58.031088 
L 779.057734 57.205889 
L 779.262354 57.059405 
L 779.466974 57.245265 
L 779.876213 58.526373 
L 780.285453 59.808015 
L 780.899312 60.726533 
L 781.103931 60.86214 
L 781.308551 60.756296 
L 781.92241 59.851421 
L 782.33165 59.691004 
L 782.740889 58.558903 
L 783.150129 57.432241 
L 783.354748 57.548136 
L 783.763988 58.489424 
L 783.968608 58.39499 
L 784.377847 57.719866 
L 784.582467 57.868 
L 785.810185 60.964149 
L 786.628664 63.837199 
L 786.833284 64.082972 
L 787.037903 64.058356 
L 787.242523 63.763108 
L 787.651763 62.533611 
L 788.265622 60.234647 
L 788.879481 58.457817 
L 789.28872 55.561461 
L 789.90258 50.385223 
L 790.107199 49.707235 
L 790.311819 49.839006 
L 790.516439 50.799765 
L 790.925678 54.837688 
L 791.539537 60.965412 
L 791.948777 62.315804 
L 792.358016 63.250927 
L 793.176495 65.691762 
L 793.790354 67.955234 
L 794.608833 71.691938 
L 795.018073 73.509115 
L 795.222693 73.879134 
L 795.427312 73.83699 
L 795.836552 73.284317 
L 796.041171 73.196922 
L 796.245791 73.347046 
L 796.85965 74.081987 
L 797.26889 74.403648 
L 797.47351 74.309601 
L 797.882749 72.936049 
L 798.291988 71.792005 
L 798.496608 71.65732 
L 798.701228 71.731848 
L 799.519707 72.637742 
L 799.928946 73.63676 
L 800.747425 76.043559 
L 800.952045 76.172661 
L 801.156665 75.999085 
L 801.565904 75.304735 
L 801.770524 75.315756 
L 801.975144 75.908583 
L 802.384383 79.082125 
L 802.998242 84.517974 
L 803.202862 85.219219 
L 803.407482 85.490143 
L 803.816721 85.561418 
L 804.225961 85.516895 
L 804.43058 85.316761 
L 805.658299 83.084605 
L 805.862918 83.087907 
L 806.067538 83.364754 
L 806.681397 84.92033 
L 806.886017 85.94173 
L 807.295256 90.015728 
L 808.113735 99.00548 
L 808.727595 102.650516 
L 809.955313 107.311369 
L 810.364552 107.999165 
L 810.569172 108.102242 
L 810.773792 107.888951 
L 811.183031 106.512291 
L 811.592271 104.980069 
L 811.79689 104.579898 
L 812.00151 104.427395 
L 812.20613 104.435503 
L 812.41075 104.584414 
L 812.615369 104.934963 
L 814.047707 108.744398 
L 814.456947 109.076352 
L 814.866186 109.934568 
L 815.275426 110.871972 
L 815.480046 111.208393 
L 815.684665 111.797481 
L 816.912384 117.51581 
L 817.117003 118.061638 
L 817.526243 120.255486 
L 819.36782 132.164267 
L 819.98168 137.388427 
L 820.186299 138.224502 
L 820.390919 138.525091 
L 821.004778 138.276988 
L 821.209398 138.834371 
L 821.618637 141.472378 
L 822.232496 145.790305 
L 822.641736 147.333694 
L 823.664835 149.876586 
L 823.869454 149.846629 
L 824.483313 148.471669 
L 824.687933 148.595187 
L 824.892553 149.347509 
L 825.301792 152.099323 
L 826.529511 161.170741 
L 827.14337 164.474306 
L 827.552609 166.101643 
L 827.961849 169.251589 
L 828.575708 174.803333 
L 828.984947 176.247578 
L 830.008046 178.459342 
L 830.621905 178.57849 
L 830.826525 178.848928 
L 831.031145 179.624458 
L 831.440384 183.157386 
L 832.258863 191.717399 
L 832.872722 195.848058 
L 833.077342 196.317901 
L 833.281962 196.218174 
L 833.691201 195.201483 
L 834.100441 194.238443 
L 834.30506 194.073898 
L 834.91892 194.073219 
L 835.328159 193.522244 
L 835.532779 193.056236 
L 835.737398 192.271627 
L 837.169737 183.907766 
L 837.578976 182.711236 
L 837.988215 182.253386 
L 838.192835 181.616376 
L 838.397455 180.440772 
L 838.806694 176.229662 
L 839.420554 169.091462 
L 839.829793 166.254487 
L 840.034413 165.711135 
L 840.239032 165.875631 
L 841.057511 168.472077 
L 841.262131 168.739213 
L 841.87599 170.184089 
L 842.899089 170.830907 
L 843.103709 170.587318 
L 843.512948 168.780095 
L 843.922188 167.15572 
L 844.126807 167.075559 
L 844.536047 167.416447 
L 844.740666 167.170334 
L 845.149906 165.785712 
L 845.559145 164.630403 
L 845.763765 164.946238 
L 846.582244 168.149299 
L 846.786864 167.774376 
L 847.196103 165.534792 
L 847.809962 162.295218 
L 848.628441 159.849625 
L 849.85616 157.444136 
L 850.060779 157.431124 
L 850.470019 157.796677 
L 850.674639 157.766477 
L 850.879258 157.408256 
L 851.288498 155.944833 
L 851.902357 153.186464 
L 852.106977 152.866794 
L 852.311596 153.135678 
L 852.925456 155.285246 
L 853.130075 155.514511 
L 853.334695 155.393567 
L 854.153174 153.998409 
L 854.357794 153.940437 
L 854.767033 154.258942 
L 854.971653 154.637652 
L 855.380892 156.24013 
L 855.790132 157.989188 
L 856.608611 160.589032 
L 857.01785 163.121875 
L 857.42709 165.90316 
L 857.631709 166.629118 
L 857.836329 166.920094 
L 858.040949 166.953013 
L 858.245568 166.837263 
L 858.450188 166.591879 
L 858.654808 166.102371 
L 858.859428 165.163316 
L 859.677907 159.824475 
L 859.882526 160.242707 
L 860.701005 164.249314 
L 861.110245 164.785092 
L 861.314864 165.556058 
L 861.724104 169.041162 
L 862.542583 176.754467 
L 863.156442 181.123907 
L 864.17954 190.063747 
L 865.611879 199.042089 
L 867.044217 213.339997 
L 867.453456 215.542779 
L 867.862696 219.675186 
L 869.704273 245.819436 
L 870.07336 253 
M 911.194354 253 
L 911.815693 -1 
M 918.185287 -1 
L 918.271213 253 
M 921.228774 253 
L 921.256289 -1 
M 961.208431 -1 
L 961.57853 1.560996 
L 962.397009 9.483125 
L 963.215488 16.859815 
L 963.624728 19.388579 
L 964.443207 22.629561 
L 965.261686 25.480811 
L 965.466305 25.805482 
L 965.875545 25.929631 
L 966.080164 26.201137 
L 966.489404 27.776716 
L 966.898643 30.564799 
L 968.126362 40.614454 
L 968.535601 41.921635 
L 969.14946 43.128069 
L 969.35408 43.815719 
L 969.76332 46.726107 
L 971.195658 61.339461 
L 971.604897 62.973303 
L 972.014137 64.234165 
L 972.627996 68.26466 
L 973.037235 70.493515 
L 973.241855 70.958939 
L 973.446475 70.847803 
L 973.855714 69.923701 
L 974.060334 69.905688 
L 974.264954 70.350964 
L 974.878813 72.549085 
L 975.083432 72.808598 
L 975.288052 72.686149 
L 975.697292 72.142409 
L 975.901911 72.297194 
L 977.334249 75.62926 
L 977.538869 75.763994 
L 977.743489 75.37669 
L 978.152728 74.068149 
L 978.357348 73.84272 
L 978.561968 73.939048 
L 978.971207 74.359708 
L 979.175827 74.425253 
L 979.380447 74.284014 
L 979.585066 73.887437 
L 979.994306 72.375072 
L 980.403545 70.526773 
L 980.608165 70.023234 
L 980.812785 69.966088 
L 981.017404 70.308335 
L 981.426644 71.736558 
L 981.835883 74.24391 
L 983.472841 86.719202 
L 983.677461 87.264448 
L 983.882081 87.324605 
L 984.29132 87.233714 
L 984.70056 87.580768 
L 985.723658 89.11566 
L 986.337517 89.075993 
L 986.542137 88.850661 
L 986.951377 88.080277 
L 987.155996 87.913984 
L 987.360616 88.109603 
L 987.769855 89.570501 
L 989.406813 95.986869 
L 989.611433 96.247645 
L 990.020672 96.260803 
L 990.429912 96.805029 
L 990.634532 96.748951 
L 990.839151 96.066301 
L 991.248391 92.999041 
L 992.271489 84.262782 
L 992.680729 82.597866 
L 992.885349 82.550236 
L 993.089968 83.071593 
L 993.499208 85.513496 
L 993.908447 88.166506 
L 994.522306 90.78383 
L 994.931546 94.427506 
L 995.545405 101.284247 
L 995.750025 102.647797 
L 995.954645 103.217999 
L 996.159264 103.016894 
L 996.568504 101.055953 
L 996.977743 99.179784 
L 997.182363 98.780002 
L 997.386983 98.658669 
L 997.591602 98.776458 
L 997.796222 99.19367 
L 998.410081 100.958702 
L 998.614701 101.080374 
L 998.819321 100.921462 
L 999.02394 100.379324 
L 1000.251659 95.105058 
L 1000.660898 94.331032 
L 1000.865518 93.97757 
L 1001.070138 93.124113 
L 1001.479377 88.864838 
L 1002.093236 81.136093 
L 1002.502476 78.985069 
L 1002.707096 78.957297 
L 1002.911715 79.785603 
L 1003.320955 83.835228 
L 1004.344053 95.755031 
L 1004.957913 101.36664 
L 1005.776391 108.017178 
L 1006.59487 114.015654 
L 1007.00411 115.876578 
L 1007.20873 116.224797 
L 1007.413349 116.272378 
L 1007.822589 115.905855 
L 1008.027208 115.723588 
L 1008.436448 115.746796 
L 1008.641068 115.471843 
L 1009.459547 112.871027 
L 1009.664166 112.695413 
L 1009.868786 112.730905 
L 1010.482645 113.095972 
L 1010.687265 112.744645 
L 1011.505744 109.766624 
L 1012.324223 108.351851 
L 1012.528842 108.410357 
L 1012.733462 108.964099 
L 1013.551941 112.574663 
L 1013.961181 113.369614 
L 1014.779659 114.574737 
L 1014.984279 114.617027 
L 1015.393519 114.469475 
L 1015.598138 114.594061 
L 1015.802758 115.125906 
L 1016.211997 117.743473 
L 1016.825857 122.486185 
L 1018.667434 131.530073 
L 1018.872054 131.233854 
L 1019.281293 128.783163 
L 1019.690533 126.383403 
L 1020.099772 125.32588 
L 1021.73673 123.161794 
L 1021.94135 123.466316 
L 1022.964448 127.605035 
L 1023.373688 128.224226 
L 1023.578308 128.406443 
L 1023.782927 128.436206 
L 1024.396787 128.206455 
L 1024.806026 128.474029 
L 1025.010646 128.404938 
L 1025.215265 127.994815 
L 1025.624505 126.316012 
L 1026.852223 120.102497 
L 1027.056843 120.123568 
L 1027.670702 120.671921 
L 1028.079942 120.665415 
L 1028.284561 120.546461 
L 1028.489181 120.564668 
L 1028.693801 120.885164 
L 1030.330759 125.617972 
L 1030.535378 125.608213 
L 1030.944618 125.124047 
L 1031.353857 124.30278 
L 1031.558477 123.783461 
L 1031.763097 123.623481 
L 1031.967716 124.081526 
L 1032.376956 126.262799 
L 1033.604674 133.383325 
L 1034.218533 134.779649 
L 1034.423153 134.992309 
L 1034.627773 134.924481 
L 1035.037012 134.413708 
L 1035.241632 134.403609 
L 1035.855491 134.991629 
L 1036.060111 134.599033 
L 1036.46935 132.237533 
L 1036.87859 129.787958 
L 1037.492449 126.991524 
L 1038.106308 122.911554 
L 1038.310928 122.242937 
L 1038.515548 122.262115 
L 1038.924787 123.593815 
L 1039.334027 125.104431 
L 1039.743266 125.866901 
L 1040.152506 126.165257 
L 1040.357125 126.062277 
L 1040.766365 125.546357 
L 1040.970984 125.612194 
L 1041.175604 126.261828 
L 1042.198703 132.311818 
L 1042.403323 132.41339 
L 1043.017182 132.259284 
L 1043.221801 132.346776 
L 1043.426421 132.621292 
L 1043.835661 133.794128 
L 1044.2449 135.229246 
L 1044.65414 135.825617 
L 1044.858759 135.698069 
L 1045.267999 134.865684 
L 1045.472618 134.858595 
L 1045.677238 135.532408 
L 1046.495717 140.747149 
L 1046.700337 140.689517 
L 1046.904957 139.703705 
L 1047.928055 132.401932 
L 1048.132675 131.567847 
L 1048.337295 131.311975 
L 1048.541914 131.71972 
L 1048.951154 133.025687 
L 1049.565013 133.835301 
L 1049.974252 135.608344 
L 1050.383492 137.629102 
L 1050.588112 138.074912 
L 1050.997351 138.30408 
L 1051.201971 138.333017 
L 1051.406591 138.151237 
L 1051.81583 137.107502 
L 1052.429689 135.252114 
L 1052.634309 135.054262 
L 1052.838929 135.287217 
L 1053.248168 136.135139 
L 1053.862027 136.149171 
L 1054.271267 137.036324 
L 1054.475886 137.216065 
L 1054.680506 137.12299 
L 1055.908224 135.591011 
L 1056.317464 135.13015 
L 1056.522084 134.524019 
L 1057.135943 131.666749 
L 1057.545182 130.732063 
L 1057.954422 130.214396 
L 1058.363661 130.255471 
L 1058.568281 129.970856 
L 1058.97752 127.998068 
L 1059.38676 125.906811 
L 1059.59138 125.539802 
L 1059.795999 125.721292 
L 1060.205239 127.335714 
L 1060.819098 129.865934 
L 1061.023718 129.998919 
L 1061.432957 129.479698 
L 1061.637577 129.628075 
L 1061.842197 130.395108 
L 1062.660675 136.225156 
L 1062.865295 136.300412 
L 1063.274535 135.597517 
L 1063.479154 135.759682 
L 1063.683774 136.581775 
L 1064.706873 144.027555 
L 1065.525352 146.56467 
L 1065.729971 146.397357 
L 1066.139211 144.350575 
L 1066.54845 142.754166 
L 1066.75307 142.901523 
L 1067.162309 144.562847 
L 1067.776169 147.479934 
L 1067.980788 147.503385 
L 1068.799267 145.971843 
L 1069.208507 146.080697 
L 1069.413126 145.981942 
L 1069.617746 145.652415 
L 1070.436225 143.399964 
L 1070.640845 143.406859 
L 1070.845465 143.743911 
L 1071.663943 146.12221 
L 1072.073183 145.936448 
L 1072.277803 146.26845 
L 1072.687042 148.380487 
L 1073.096282 150.268163 
L 1073.300901 150.266949 
L 1074.11938 147.768968 
L 1074.324 147.737603 
L 1074.733239 148.000272 
L 1074.937859 147.51397 
L 1075.756338 142.655945 
L 1075.960958 142.496595 
L 1076.165577 142.886521 
L 1076.574817 144.163356 
L 1076.779437 144.386018 
L 1076.984056 144.095965 
L 1077.597916 142.168282 
L 1077.802535 142.245772 
L 1078.007155 142.46994 
L 1078.211775 142.393372 
L 1078.621014 140.94869 
L 1079.030254 139.725602 
L 1079.234873 139.675982 
L 1079.848733 140.030513 
L 1080.053352 139.641267 
L 1080.667211 137.528356 
L 1080.871831 137.35881 
L 1081.281071 137.570791 
L 1081.69031 137.855988 
L 1081.89493 138.172017 
L 1082.09955 138.860007 
L 1082.713409 142.962894 
L 1083.122648 145.084593 
L 1083.327268 145.636539 
L 1083.531888 145.830069 
L 1083.736507 145.657368 
L 1084.554986 143.718906 
L 1084.759606 143.687832 
L 1084.964226 144.015174 
L 1085.373465 145.725001 
L 1086.191944 150.093082 
L 1086.396564 150.179409 
L 1087.419662 148.684475 
L 1087.828902 147.530769 
L 1088.033522 147.32175 
L 1088.238141 147.574369 
L 1088.647381 148.971372 
L 1089.05662 150.783209 
L 1089.26124 150.967514 
L 1090.488958 148.416805 
L 1090.898198 147.483673 
L 1091.102818 147.59612 
L 1091.512057 148.534982 
L 1091.921296 149.85702 
L 1092.535156 152.317227 
L 1092.739775 152.671321 
L 1092.944395 152.469488 
L 1093.558254 149.962185 
L 1094.376733 147.018199 
L 1094.785973 146.265537 
L 1095.195212 145.819436 
L 1095.399832 145.697375 
L 1095.604451 145.748841 
L 1095.809071 146.12187 
L 1096.62755 148.497742 
L 1097.03679 149.177769 
L 1097.855268 151.461779 
L 1098.264508 151.830002 
L 1098.469128 151.78077 
L 1098.673747 151.359625 
L 1099.082987 149.204279 
L 1099.696846 146.004082 
L 1100.924564 142.153862 
L 1101.129184 141.927559 
L 1101.333804 141.983054 
L 1101.743043 142.587971 
L 1102.356902 144.090527 
L 1102.766142 146.052974 
L 1103.175381 148.105534 
L 1103.584621 149.246422 
L 1103.789241 149.487583 
L 1103.99386 149.470784 
L 1104.4031 149.103484 
L 1104.812339 148.275468 
L 1105.630818 145.727041 
L 1105.835438 145.738984 
L 1106.244677 146.747276 
L 1106.449297 147.258146 
L 1106.653917 147.466679 
L 1106.858536 147.282082 
L 1107.267776 145.829778 
L 1107.677015 144.416558 
L 1107.881635 144.34203 
L 1108.086255 144.840082 
L 1108.495494 146.370702 
L 1108.904734 146.904246 
L 1109.313973 147.208914 
L 1109.518593 146.990379 
L 1110.132452 145.004044 
L 1110.337072 144.952773 
L 1110.541692 144.781188 
L 1110.746311 143.947686 
L 1111.56479 138.51072 
L 1112.792509 133.670077 
L 1113.201748 130.241682 
L 1113.815607 121.991871 
L 1116.066424 88.368339 
L 1118.317241 50.351867 
L 1118.9311 39.593005 
L 1119.34034 27.913683 
L 1119.749579 10.485056 
L 1119.964613 -1 
M 1127.124021 -1 
L 1127.934368 32.899547 
L 1128.548228 48.677483 
L 1130.389805 82.738377 
L 1131.412904 100.390831 
L 1132.231383 107.082444 
L 1133.049861 114.031143 
L 1133.254481 114.938687 
L 1133.459101 115.327059 
L 1133.86834 115.455724 
L 1134.27758 116.37162 
L 1134.686819 117.349711 
L 1134.891439 117.244206 
L 1135.096059 116.486252 
L 1135.709918 113.399716 
L 1135.914538 113.289259 
L 1136.119157 113.623932 
L 1136.528397 115.426495 
L 1137.142256 118.922329 
L 1137.551495 120.805489 
L 1138.165355 124.30142 
L 1138.574594 125.033448 
L 1138.779214 125.799461 
L 1139.802312 132.25341 
L 1140.006932 132.022251 
L 1140.416172 130.907192 
L 1140.620791 131.136555 
L 1141.030031 132.548512 
L 1141.234651 132.803219 
L 1141.43927 132.601095 
L 1142.053129 131.56741 
L 1142.257749 131.516382 
L 1142.462369 131.77303 
L 1143.076228 133.29797 
L 1143.280848 133.362836 
L 1143.690087 132.924843 
L 1144.099327 131.904365 
L 1144.508566 131.05921 
L 1144.713186 131.22293 
L 1145.122425 132.781856 
L 1145.531665 134.618308 
L 1145.736285 135.190015 
L 1145.940904 135.400005 
L 1146.145524 135.10767 
L 1146.554763 133.015734 
L 1146.964003 130.655302 
L 1147.168623 130.197402 
L 1147.373242 130.413655 
L 1147.577862 131.332416 
L 1148.191721 136.80599 
L 1148.600961 139.560621 
L 1148.80558 140.150874 
L 1149.0102 140.306631 
L 1149.21482 140.031678 
L 1149.624059 138.275046 
L 1150.033299 136.724082 
L 1150.237919 136.444759 
L 1150.442538 136.472774 
L 1150.851778 137.248304 
L 1151.056397 137.613711 
L 1151.261017 137.655515 
L 1151.874876 136.962621 
L 1152.079496 137.154792 
L 1152.693355 138.404681 
L 1152.897975 138.523683 
L 1153.102595 138.408468 
L 1153.307214 138.022718 
L 1153.921074 136.340031 
L 1154.125693 136.327408 
L 1155.353412 137.382455 
L 1155.558031 137.047928 
L 1156.171891 135.634125 
L 1156.37651 135.571298 
L 1156.58113 135.642962 
L 1156.78575 135.907039 
L 1156.99037 136.600662 
L 1157.808848 141.267098 
L 1158.422708 142.871712 
L 1158.627327 143.100103 
L 1159.036567 142.825102 
L 1159.241187 143.099472 
L 1159.650426 145.297884 
L 1160.059665 147.505279 
L 1160.264285 147.700897 
L 1160.673525 147.035193 
L 1161.696623 145.046625 
L 1161.901243 144.95554 
L 1162.310482 145.671691 
L 1162.719722 146.30268 
L 1162.924342 146.301903 
L 1163.333581 146.014472 
L 1163.538201 146.311468 
L 1164.561299 149.77885 
L 1164.765919 149.741319 
L 1164.970539 149.452674 
L 1165.379778 148.018528 
L 1165.993638 145.007977 
L 1166.198257 144.795948 
L 1166.402877 144.990644 
L 1166.812116 146.095992 
L 1167.221356 147.743186 
L 1167.425976 148.131898 
L 1167.630595 148.051932 
L 1168.039835 147.06413 
L 1168.449074 145.875951 
L 1168.653694 145.537588 
L 1168.858314 145.428491 
L 1169.472173 145.472431 
L 1170.290652 144.806144 
L 1170.699891 144.918737 
L 1170.904511 144.750988 
L 1171.51837 143.350004 
L 1171.72299 143.585435 
L 1172.336849 144.953355 
L 1172.541469 144.943159 
L 1173.155328 144.383639 
L 1173.564567 143.529357 
L 1173.973807 142.80301 
L 1174.587666 142.873703 
L 1175.406145 141.858031 
L 1175.610765 142.37735 
L 1176.429244 145.919503 
L 1176.838483 146.812579 
L 1177.861582 150.014087 
L 1178.270821 150.566421 
L 1179.0893 150.428386 
L 1179.703159 148.884851 
L 1179.907779 149.221127 
L 1180.317018 151.549514 
L 1180.726258 153.82896 
L 1180.930878 154.085755 
L 1181.135497 153.579497 
L 1181.749356 149.710634 
L 1182.363216 146.07458 
L 1182.772455 144.63689 
L 1182.977075 144.522111 
L 1183.181695 144.819253 
L 1183.795554 146.849916 
L 1184.818652 150.814962 
L 1184.818652 150.814962 
" clip-path="url(#pe60e149ffb)" style="fill: none; stroke: #000000; stroke-width: 2; stroke-linecap: square"/>
   </g>
   <g id="patch_3">
    <path d="M 3.00024 198.907885 
L 1184.99976 198.907885 
" style="fill: none; stroke: #000000; stroke-width: 2; stroke-linejoin: miter; stroke-linecap: square"/>
   </g>
  </g>
 </g>
 <defs>
  <clipPath id="pe60e149ffb">
   <rect x="3.00024" y="3.00024" width="1181.99952" height="195.907645"/>
  </clipPath>
 </defs>
</svg>
