<?xml version="1.0" encoding="utf-8" standalone="no"?>
<!DOCTYPE svg PUBLIC "-//W3C//DTD SVG 1.1//EN"
  "http://www.w3.org/Graphics/SVG/1.1/DTD/svg11.dtd">
<svg xmlns:xlink="http://www.w3.org/1999/xlink" width="1188pt" height="252pt" viewBox="0 0 1188 252" xmlns="http://www.w3.org/2000/svg" version="1.1">
 <metadata>
  <rdf:RDF xmlns:dc="http://purl.org/dc/elements/1.1/" xmlns:cc="http://creativecommons.org/ns#" xmlns:rdf="http://www.w3.org/1999/02/22-rdf-syntax-ns#">
   <cc:Work>
    <dc:type rdf:resource="http://purl.org/dc/dcmitype/StillImage"/>
    <dc:date>2024-07-23T21:42:35.948367</dc:date>
    <dc:format>image/svg+xml</dc:format>
    <dc:creator>
     <cc:Agent>
      <dc:title>Matplotlib v3.8.4, https://matplotlib.org/</dc:title>
     </cc:Agent>
    </dc:creator>
   </cc:Work>
  </rdf:RDF>
 </metadata>
 <defs>
  <style type="text/css">*{stroke-linejoin: round; stroke-linecap: butt}</style>
 </defs>
 <g id="figure_1">
  <g id="patch_1">
   <path d="M 0 252 
L 1188 252 
L 1188 0 
L 0 0 
z
" style="fill: #ffffff"/>
  </g>
  <g id="axes_1">
   <g id="patch_2">
    <path d="M 3.00024 198.907885 
L 1184.99976 198.907885 
L 1184.99976 3.00024 
L 3.00024 3.00024 
z
" style="fill: #ffffff"/>
   </g>
   <g id="matplotlib.axis_1">
    <g id="xtick_1">
     <g id="line2d_1">
      <defs>
       <path id="m9912a4ba6f" d="M 0 0 
L 0 8 
" style="stroke: #000000; stroke-width: 2"/>
      </defs>
      <g>
       <use xlink:href="#m9912a4ba6f" x="1131.272509" y="198.907885" style="stroke: #000000; stroke-width: 2"/>
      </g>
     </g>
     <g id="text_1">
      <!-- 0 -->
      <g transform="translate(1126.267665 224.791947) scale(0.18 -0.18)">
       <defs>
        <path id="Arial-BoldMT-30" d="M 1756 4600 
Q 2422 4600 2797 4125 
Q 3244 3563 3244 2259 
Q 3244 959 2794 391 
Q 2422 -78 1756 -78 
Q 1088 -78 678 436 
Q 269 950 269 2269 
Q 269 3563 719 4131 
Q 1091 4600 1756 4600 
z
M 1756 3872 
Q 1597 3872 1472 3770 
Q 1347 3669 1278 3406 
Q 1188 3066 1188 2259 
Q 1188 1453 1269 1151 
Q 1350 850 1473 750 
Q 1597 650 1756 650 
Q 1916 650 2041 751 
Q 2166 853 2234 1116 
Q 2325 1453 2325 2259 
Q 2325 3066 2244 3367 
Q 2163 3669 2039 3770 
Q 1916 3872 1756 3872 
z
" transform="scale(0.015625)"/>
       </defs>
       <use xlink:href="#Arial-BoldMT-30"/>
      </g>
     </g>
    </g>
    <g id="xtick_2">
     <g id="line2d_2">
      <g>
       <use xlink:href="#m9912a4ba6f" x="1023.818007" y="198.907885" style="stroke: #000000; stroke-width: 2"/>
      </g>
     </g>
     <g id="text_2">
      <!-- 1 -->
      <g transform="translate(1018.813164 224.791947) scale(0.18 -0.18)">
       <defs>
        <path id="Arial-BoldMT-31" d="M 2519 0 
L 1641 0 
L 1641 3309 
Q 1159 2859 506 2644 
L 506 3441 
Q 850 3553 1253 3867 
Q 1656 4181 1806 4600 
L 2519 4600 
L 2519 0 
z
" transform="scale(0.015625)"/>
       </defs>
       <use xlink:href="#Arial-BoldMT-31"/>
      </g>
     </g>
    </g>
    <g id="xtick_3">
     <g id="line2d_3">
      <g>
       <use xlink:href="#m9912a4ba6f" x="916.363505" y="198.907885" style="stroke: #000000; stroke-width: 2"/>
      </g>
     </g>
     <g id="text_3">
      <!-- 2 -->
      <g transform="translate(911.358662 224.791947) scale(0.18 -0.18)">
       <defs>
        <path id="Arial-BoldMT-32" d="M 3238 816 
L 3238 0 
L 159 0 
Q 209 463 459 877 
Q 709 1291 1447 1975 
Q 2041 2528 2175 2725 
Q 2356 2997 2356 3263 
Q 2356 3556 2198 3714 
Q 2041 3872 1763 3872 
Q 1488 3872 1325 3706 
Q 1163 3541 1138 3156 
L 263 3244 
Q 341 3969 753 4284 
Q 1166 4600 1784 4600 
Q 2463 4600 2850 4234 
Q 3238 3869 3238 3325 
Q 3238 3016 3127 2736 
Q 3016 2456 2775 2150 
Q 2616 1947 2200 1565 
Q 1784 1184 1673 1059 
Q 1563 934 1494 816 
L 3238 816 
z
" transform="scale(0.015625)"/>
       </defs>
       <use xlink:href="#Arial-BoldMT-32"/>
      </g>
     </g>
    </g>
    <g id="xtick_4">
     <g id="line2d_4">
      <g>
       <use xlink:href="#m9912a4ba6f" x="808.909004" y="198.907885" style="stroke: #000000; stroke-width: 2"/>
      </g>
     </g>
     <g id="text_4">
      <!-- 3 -->
      <g transform="translate(803.90416 224.791947) scale(0.18 -0.18)">
       <defs>
        <path id="Arial-BoldMT-33" d="M 241 1216 
L 1091 1319 
Q 1131 994 1309 822 
Q 1488 650 1741 650 
Q 2013 650 2198 856 
Q 2384 1063 2384 1413 
Q 2384 1744 2206 1937 
Q 2028 2131 1772 2131 
Q 1603 2131 1369 2066 
L 1466 2781 
Q 1822 2772 2009 2936 
Q 2197 3100 2197 3372 
Q 2197 3603 2059 3740 
Q 1922 3878 1694 3878 
Q 1469 3878 1309 3722 
Q 1150 3566 1116 3266 
L 306 3403 
Q 391 3819 561 4067 
Q 731 4316 1036 4458 
Q 1341 4600 1719 4600 
Q 2366 4600 2756 4188 
Q 3078 3850 3078 3425 
Q 3078 2822 2419 2463 
Q 2813 2378 3048 2084 
Q 3284 1791 3284 1375 
Q 3284 772 2843 347 
Q 2403 -78 1747 -78 
Q 1125 -78 715 280 
Q 306 638 241 1216 
z
" transform="scale(0.015625)"/>
       </defs>
       <use xlink:href="#Arial-BoldMT-33"/>
      </g>
     </g>
    </g>
    <g id="xtick_5">
     <g id="line2d_5">
      <g>
       <use xlink:href="#m9912a4ba6f" x="701.454502" y="198.907885" style="stroke: #000000; stroke-width: 2"/>
      </g>
     </g>
     <g id="text_5">
      <!-- 4 -->
      <g transform="translate(696.449658 224.791947) scale(0.18 -0.18)">
       <defs>
        <path id="Arial-BoldMT-34" d="M 1994 0 
L 1994 922 
L 119 922 
L 119 1691 
L 2106 4600 
L 2844 4600 
L 2844 1694 
L 3413 1694 
L 3413 922 
L 2844 922 
L 2844 0 
L 1994 0 
z
M 1994 1694 
L 1994 3259 
L 941 1694 
L 1994 1694 
z
" transform="scale(0.015625)"/>
       </defs>
       <use xlink:href="#Arial-BoldMT-34"/>
      </g>
     </g>
    </g>
    <g id="xtick_6">
     <g id="line2d_6">
      <g>
       <use xlink:href="#m9912a4ba6f" x="594" y="198.907885" style="stroke: #000000; stroke-width: 2"/>
      </g>
     </g>
     <g id="text_6">
      <!-- 5 -->
      <g transform="translate(588.995156 224.791947) scale(0.18 -0.18)">
       <defs>
        <path id="Arial-BoldMT-35" d="M 284 1178 
L 1159 1269 
Q 1197 972 1381 798 
Q 1566 625 1806 625 
Q 2081 625 2272 848 
Q 2463 1072 2463 1522 
Q 2463 1944 2273 2155 
Q 2084 2366 1781 2366 
Q 1403 2366 1103 2031 
L 391 2134 
L 841 4519 
L 3163 4519 
L 3163 3697 
L 1506 3697 
L 1369 2919 
Q 1663 3066 1969 3066 
Q 2553 3066 2959 2641 
Q 3366 2216 3366 1538 
Q 3366 972 3038 528 
Q 2591 -78 1797 -78 
Q 1163 -78 763 262 
Q 363 603 284 1178 
z
" transform="scale(0.015625)"/>
       </defs>
       <use xlink:href="#Arial-BoldMT-35"/>
      </g>
     </g>
    </g>
    <g id="xtick_7">
     <g id="line2d_7">
      <g>
       <use xlink:href="#m9912a4ba6f" x="486.545498" y="198.907885" style="stroke: #000000; stroke-width: 2"/>
      </g>
     </g>
     <g id="text_7">
      <!-- 6 -->
      <g transform="translate(481.540654 224.791947) scale(0.18 -0.18)">
       <defs>
        <path id="Arial-BoldMT-36" d="M 3247 3459 
L 2397 3366 
Q 2366 3628 2234 3753 
Q 2103 3878 1894 3878 
Q 1616 3878 1423 3628 
Q 1231 3378 1181 2588 
Q 1509 2975 1997 2975 
Q 2547 2975 2939 2556 
Q 3331 2138 3331 1475 
Q 3331 772 2918 347 
Q 2506 -78 1859 -78 
Q 1166 -78 719 461 
Q 272 1000 272 2228 
Q 272 3488 737 4044 
Q 1203 4600 1947 4600 
Q 2469 4600 2811 4308 
Q 3153 4016 3247 3459 
z
M 1256 1544 
Q 1256 1116 1453 883 
Q 1650 650 1903 650 
Q 2147 650 2309 840 
Q 2472 1031 2472 1466 
Q 2472 1913 2297 2120 
Q 2122 2328 1859 2328 
Q 1606 2328 1431 2129 
Q 1256 1931 1256 1544 
z
" transform="scale(0.015625)"/>
       </defs>
       <use xlink:href="#Arial-BoldMT-36"/>
      </g>
     </g>
    </g>
    <g id="xtick_8">
     <g id="line2d_8">
      <g>
       <use xlink:href="#m9912a4ba6f" x="379.090996" y="198.907885" style="stroke: #000000; stroke-width: 2"/>
      </g>
     </g>
     <g id="text_8">
      <!-- 7 -->
      <g transform="translate(374.086153 224.791947) scale(0.18 -0.18)">
       <defs>
        <path id="Arial-BoldMT-37" d="M 272 3703 
L 272 4519 
L 3275 4519 
L 3275 3881 
Q 2903 3516 2518 2831 
Q 2134 2147 1932 1376 
Q 1731 606 1734 0 
L 888 0 
Q 909 950 1279 1937 
Q 1650 2925 2269 3703 
L 272 3703 
z
" transform="scale(0.015625)"/>
       </defs>
       <use xlink:href="#Arial-BoldMT-37"/>
      </g>
     </g>
    </g>
    <g id="xtick_9">
     <g id="line2d_9">
      <g>
       <use xlink:href="#m9912a4ba6f" x="271.636495" y="198.907885" style="stroke: #000000; stroke-width: 2"/>
      </g>
     </g>
     <g id="text_9">
      <!-- 8 -->
      <g transform="translate(266.631651 224.791947) scale(0.18 -0.18)">
       <defs>
        <path id="Arial-BoldMT-38" d="M 1025 2472 
Q 684 2616 529 2867 
Q 375 3119 375 3419 
Q 375 3931 733 4265 
Q 1091 4600 1750 4600 
Q 2403 4600 2764 4265 
Q 3125 3931 3125 3419 
Q 3125 3100 2959 2851 
Q 2794 2603 2494 2472 
Q 2875 2319 3073 2025 
Q 3272 1731 3272 1347 
Q 3272 713 2867 316 
Q 2463 -81 1791 -81 
Q 1166 -81 750 247 
Q 259 634 259 1309 
Q 259 1681 443 1992 
Q 628 2303 1025 2472 
z
M 1206 3356 
Q 1206 3094 1354 2947 
Q 1503 2800 1750 2800 
Q 2000 2800 2150 2948 
Q 2300 3097 2300 3359 
Q 2300 3606 2151 3754 
Q 2003 3903 1759 3903 
Q 1506 3903 1356 3753 
Q 1206 3603 1206 3356 
z
M 1125 1394 
Q 1125 1031 1311 828 
Q 1497 625 1775 625 
Q 2047 625 2225 820 
Q 2403 1016 2403 1384 
Q 2403 1706 2222 1901 
Q 2041 2097 1763 2097 
Q 1441 2097 1283 1875 
Q 1125 1653 1125 1394 
z
" transform="scale(0.015625)"/>
       </defs>
       <use xlink:href="#Arial-BoldMT-38"/>
      </g>
     </g>
    </g>
    <g id="xtick_10">
     <g id="line2d_10">
      <g>
       <use xlink:href="#m9912a4ba6f" x="164.181993" y="198.907885" style="stroke: #000000; stroke-width: 2"/>
      </g>
     </g>
     <g id="text_10">
      <!-- 9 -->
      <g transform="translate(159.177149 224.791947) scale(0.18 -0.18)">
       <defs>
        <path id="Arial-BoldMT-39" d="M 291 1059 
L 1141 1153 
Q 1172 894 1303 769 
Q 1434 644 1650 644 
Q 1922 644 2112 894 
Q 2303 1144 2356 1931 
Q 2025 1547 1528 1547 
Q 988 1547 595 1964 
Q 203 2381 203 3050 
Q 203 3747 617 4173 
Q 1031 4600 1672 4600 
Q 2369 4600 2816 4061 
Q 3263 3522 3263 2288 
Q 3263 1031 2797 475 
Q 2331 -81 1584 -81 
Q 1047 -81 715 205 
Q 384 491 291 1059 
z
M 2278 2978 
Q 2278 3403 2083 3637 
Q 1888 3872 1631 3872 
Q 1388 3872 1227 3680 
Q 1066 3488 1066 3050 
Q 1066 2606 1241 2398 
Q 1416 2191 1678 2191 
Q 1931 2191 2104 2391 
Q 2278 2591 2278 2978 
z
" transform="scale(0.015625)"/>
       </defs>
       <use xlink:href="#Arial-BoldMT-39"/>
      </g>
     </g>
    </g>
    <g id="xtick_11">
     <g id="line2d_11">
      <g>
       <use xlink:href="#m9912a4ba6f" x="56.727491" y="198.907885" style="stroke: #000000; stroke-width: 2"/>
      </g>
     </g>
     <g id="text_11">
      <!-- 10 -->
      <g transform="translate(46.717803 224.791947) scale(0.18 -0.18)">
       <use xlink:href="#Arial-BoldMT-31"/>
       <use xlink:href="#Arial-BoldMT-30" x="55.615234"/>
      </g>
     </g>
    </g>
    <g id="text_12">
     <!-- Chemical Shift / ppm -->
     <g transform="translate(504.992813 245.447573) scale(0.18 -0.18)">
      <defs>
       <path id="Arial-BoldMT-43" d="M 3397 1684 
L 4294 1400 
Q 4088 650 3608 286 
Q 3128 -78 2391 -78 
Q 1478 -78 890 545 
Q 303 1169 303 2250 
Q 303 3394 893 4026 
Q 1484 4659 2447 4659 
Q 3288 4659 3813 4163 
Q 4125 3869 4281 3319 
L 3366 3100 
Q 3284 3456 3026 3662 
Q 2769 3869 2400 3869 
Q 1891 3869 1573 3503 
Q 1256 3138 1256 2319 
Q 1256 1450 1568 1081 
Q 1881 713 2381 713 
Q 2750 713 3015 947 
Q 3281 1181 3397 1684 
z
" transform="scale(0.015625)"/>
       <path id="Arial-BoldMT-68" d="M 1334 4581 
L 1334 2897 
Q 1759 3394 2350 3394 
Q 2653 3394 2897 3281 
Q 3141 3169 3264 2994 
Q 3388 2819 3433 2606 
Q 3478 2394 3478 1947 
L 3478 0 
L 2600 0 
L 2600 1753 
Q 2600 2275 2550 2415 
Q 2500 2556 2373 2639 
Q 2247 2722 2056 2722 
Q 1838 2722 1666 2615 
Q 1494 2509 1414 2295 
Q 1334 2081 1334 1663 
L 1334 0 
L 456 0 
L 456 4581 
L 1334 4581 
z
" transform="scale(0.015625)"/>
       <path id="Arial-BoldMT-65" d="M 2381 1056 
L 3256 909 
Q 3088 428 2723 176 
Q 2359 -75 1813 -75 
Q 947 -75 531 491 
Q 203 944 203 1634 
Q 203 2459 634 2926 
Q 1066 3394 1725 3394 
Q 2466 3394 2894 2905 
Q 3322 2416 3303 1406 
L 1103 1406 
Q 1113 1016 1316 798 
Q 1519 581 1822 581 
Q 2028 581 2168 693 
Q 2309 806 2381 1056 
z
M 2431 1944 
Q 2422 2325 2234 2523 
Q 2047 2722 1778 2722 
Q 1491 2722 1303 2513 
Q 1116 2303 1119 1944 
L 2431 1944 
z
" transform="scale(0.015625)"/>
       <path id="Arial-BoldMT-6d" d="M 394 3319 
L 1203 3319 
L 1203 2866 
Q 1638 3394 2238 3394 
Q 2556 3394 2790 3262 
Q 3025 3131 3175 2866 
Q 3394 3131 3647 3262 
Q 3900 3394 4188 3394 
Q 4553 3394 4806 3245 
Q 5059 3097 5184 2809 
Q 5275 2597 5275 2122 
L 5275 0 
L 4397 0 
L 4397 1897 
Q 4397 2391 4306 2534 
Q 4184 2722 3931 2722 
Q 3747 2722 3584 2609 
Q 3422 2497 3350 2280 
Q 3278 2063 3278 1594 
L 3278 0 
L 2400 0 
L 2400 1819 
Q 2400 2303 2353 2443 
Q 2306 2584 2207 2653 
Q 2109 2722 1941 2722 
Q 1738 2722 1575 2612 
Q 1413 2503 1342 2297 
Q 1272 2091 1272 1613 
L 1272 0 
L 394 0 
L 394 3319 
z
" transform="scale(0.015625)"/>
       <path id="Arial-BoldMT-69" d="M 459 3769 
L 459 4581 
L 1338 4581 
L 1338 3769 
L 459 3769 
z
M 459 0 
L 459 3319 
L 1338 3319 
L 1338 0 
L 459 0 
z
" transform="scale(0.015625)"/>
       <path id="Arial-BoldMT-63" d="M 3353 2338 
L 2488 2181 
Q 2444 2441 2289 2572 
Q 2134 2703 1888 2703 
Q 1559 2703 1364 2476 
Q 1169 2250 1169 1719 
Q 1169 1128 1367 884 
Q 1566 641 1900 641 
Q 2150 641 2309 783 
Q 2469 925 2534 1272 
L 3397 1125 
Q 3263 531 2881 228 
Q 2500 -75 1859 -75 
Q 1131 -75 698 384 
Q 266 844 266 1656 
Q 266 2478 700 2936 
Q 1134 3394 1875 3394 
Q 2481 3394 2839 3133 
Q 3197 2872 3353 2338 
z
" transform="scale(0.015625)"/>
       <path id="Arial-BoldMT-61" d="M 1116 2306 
L 319 2450 
Q 453 2931 781 3162 
Q 1109 3394 1756 3394 
Q 2344 3394 2631 3255 
Q 2919 3116 3036 2902 
Q 3153 2688 3153 2116 
L 3144 1091 
Q 3144 653 3186 445 
Q 3228 238 3344 0 
L 2475 0 
Q 2441 88 2391 259 
Q 2369 338 2359 363 
Q 2134 144 1878 34 
Q 1622 -75 1331 -75 
Q 819 -75 523 203 
Q 228 481 228 906 
Q 228 1188 362 1408 
Q 497 1628 739 1745 
Q 981 1863 1438 1950 
Q 2053 2066 2291 2166 
L 2291 2253 
Q 2291 2506 2166 2614 
Q 2041 2722 1694 2722 
Q 1459 2722 1328 2630 
Q 1197 2538 1116 2306 
z
M 2291 1594 
Q 2122 1538 1756 1459 
Q 1391 1381 1278 1306 
Q 1106 1184 1106 997 
Q 1106 813 1243 678 
Q 1381 544 1594 544 
Q 1831 544 2047 700 
Q 2206 819 2256 991 
Q 2291 1103 2291 1419 
L 2291 1594 
z
" transform="scale(0.015625)"/>
       <path id="Arial-BoldMT-6c" d="M 459 0 
L 459 4581 
L 1338 4581 
L 1338 0 
L 459 0 
z
" transform="scale(0.015625)"/>
       <path id="Arial-BoldMT-20" transform="scale(0.015625)"/>
       <path id="Arial-BoldMT-53" d="M 231 1491 
L 1131 1578 
Q 1213 1125 1461 912 
Q 1709 700 2131 700 
Q 2578 700 2804 889 
Q 3031 1078 3031 1331 
Q 3031 1494 2936 1608 
Q 2841 1722 2603 1806 
Q 2441 1863 1863 2006 
Q 1119 2191 819 2459 
Q 397 2838 397 3381 
Q 397 3731 595 4036 
Q 794 4341 1167 4500 
Q 1541 4659 2069 4659 
Q 2931 4659 3367 4281 
Q 3803 3903 3825 3272 
L 2900 3231 
Q 2841 3584 2645 3739 
Q 2450 3894 2059 3894 
Q 1656 3894 1428 3728 
Q 1281 3622 1281 3444 
Q 1281 3281 1419 3166 
Q 1594 3019 2269 2859 
Q 2944 2700 3267 2529 
Q 3591 2359 3773 2064 
Q 3956 1769 3956 1334 
Q 3956 941 3737 597 
Q 3519 253 3119 86 
Q 2719 -81 2122 -81 
Q 1253 -81 787 320 
Q 322 722 231 1491 
z
" transform="scale(0.015625)"/>
       <path id="Arial-BoldMT-66" d="M 75 3319 
L 563 3319 
L 563 3569 
Q 563 3988 652 4194 
Q 741 4400 980 4529 
Q 1219 4659 1584 4659 
Q 1959 4659 2319 4547 
L 2200 3934 
Q 1991 3984 1797 3984 
Q 1606 3984 1523 3895 
Q 1441 3806 1441 3553 
L 1441 3319 
L 2097 3319 
L 2097 2628 
L 1441 2628 
L 1441 0 
L 563 0 
L 563 2628 
L 75 2628 
L 75 3319 
z
" transform="scale(0.015625)"/>
       <path id="Arial-BoldMT-74" d="M 1981 3319 
L 1981 2619 
L 1381 2619 
L 1381 1281 
Q 1381 875 1398 808 
Q 1416 741 1477 697 
Q 1538 653 1625 653 
Q 1747 653 1978 738 
L 2053 56 
Q 1747 -75 1359 -75 
Q 1122 -75 931 4 
Q 741 84 652 211 
Q 563 338 528 553 
Q 500 706 500 1172 
L 500 2619 
L 97 2619 
L 97 3319 
L 500 3319 
L 500 3978 
L 1381 4491 
L 1381 3319 
L 1981 3319 
z
" transform="scale(0.015625)"/>
       <path id="Arial-BoldMT-2f" d="M -9 -78 
L 1125 4659 
L 1784 4659 
L 638 -78 
L -9 -78 
z
" transform="scale(0.015625)"/>
       <path id="Arial-BoldMT-70" d="M 434 3319 
L 1253 3319 
L 1253 2831 
Q 1413 3081 1684 3237 
Q 1956 3394 2288 3394 
Q 2866 3394 3269 2941 
Q 3672 2488 3672 1678 
Q 3672 847 3265 386 
Q 2859 -75 2281 -75 
Q 2006 -75 1782 34 
Q 1559 144 1313 409 
L 1313 -1263 
L 434 -1263 
L 434 3319 
z
M 1303 1716 
Q 1303 1156 1525 889 
Q 1747 622 2066 622 
Q 2372 622 2575 867 
Q 2778 1113 2778 1672 
Q 2778 2194 2568 2447 
Q 2359 2700 2050 2700 
Q 1728 2700 1515 2451 
Q 1303 2203 1303 1716 
z
" transform="scale(0.015625)"/>
      </defs>
      <use xlink:href="#Arial-BoldMT-43"/>
      <use xlink:href="#Arial-BoldMT-68" x="72.216797"/>
      <use xlink:href="#Arial-BoldMT-65" x="133.300781"/>
      <use xlink:href="#Arial-BoldMT-6d" x="188.916016"/>
      <use xlink:href="#Arial-BoldMT-69" x="277.832031"/>
      <use xlink:href="#Arial-BoldMT-63" x="305.615234"/>
      <use xlink:href="#Arial-BoldMT-61" x="361.230469"/>
      <use xlink:href="#Arial-BoldMT-6c" x="416.845703"/>
      <use xlink:href="#Arial-BoldMT-20" x="444.628906"/>
      <use xlink:href="#Arial-BoldMT-53" x="472.412109"/>
      <use xlink:href="#Arial-BoldMT-68" x="539.111328"/>
      <use xlink:href="#Arial-BoldMT-69" x="600.195312"/>
      <use xlink:href="#Arial-BoldMT-66" x="627.978516"/>
      <use xlink:href="#Arial-BoldMT-74" x="661.279297"/>
      <use xlink:href="#Arial-BoldMT-20" x="694.580078"/>
      <use xlink:href="#Arial-BoldMT-2f" x="722.363281"/>
      <use xlink:href="#Arial-BoldMT-20" x="750.146484"/>
      <use xlink:href="#Arial-BoldMT-70" x="777.929688"/>
      <use xlink:href="#Arial-BoldMT-70" x="839.013672"/>
      <use xlink:href="#Arial-BoldMT-6d" x="900.097656"/>
     </g>
    </g>
   </g>
   <g id="matplotlib.axis_2"/>
   <g id="line2d_12">
    <path d="M 3.073121 183.810512 
L 3.8916 185.534026 
L 5.528558 192.206017 
L 5.733178 192.773543 
L 5.937798 192.928653 
L 6.142417 192.640511 
L 6.551657 191.035984 
L 7.370136 186.456754 
L 7.983995 185.3813 
L 8.597854 184.455307 
L 8.802474 184.358448 
L 9.007094 184.654312 
L 9.416333 186.521897 
L 10.030192 189.298788 
L 10.439432 190.618748 
L 10.848671 191.201821 
L 11.053291 191.267845 
L 11.46253 191.1998 
L 11.87177 191.605635 
L 12.076389 191.511574 
L 12.281009 190.89041 
L 13.304108 185.97821 
L 13.508728 185.774594 
L 13.713347 185.821494 
L 13.917967 186.126842 
L 14.327206 187.760545 
L 14.736446 189.818999 
L 15.145685 190.548838 
L 15.964164 191.43845 
L 16.782643 190.552673 
L 17.191883 190.820085 
L 17.396502 191.113358 
L 17.601122 191.74955 
L 19.23808 199.623135 
L 19.4427 200.190972 
L 19.647319 200.275342 
L 20.056559 199.750778 
L 20.261179 199.715693 
L 20.465798 200.06618 
L 20.875038 201.055036 
L 21.079657 200.851004 
L 21.693517 198.52576 
L 21.898136 198.500833 
L 22.102756 199.198903 
L 22.716615 202.404224 
L 22.921235 202.293373 
L 23.330474 199.83437 
L 23.739714 197.609769 
L 23.944334 197.383971 
L 24.148953 197.513531 
L 24.353573 197.497362 
L 24.558193 196.911957 
L 24.967432 193.854179 
L 25.581291 188.890881 
L 25.785911 188.1286 
L 25.990531 188.014432 
L 26.195151 188.494634 
L 26.80901 191.615533 
L 27.218249 193.623769 
L 27.422869 194.185076 
L 27.627489 194.392891 
L 27.832108 194.41502 
L 28.036728 194.321685 
L 28.445968 193.698552 
L 29.059827 192.642894 
L 29.264446 192.412433 
L 29.469066 192.490428 
L 29.673686 193.078372 
L 30.082925 195.719536 
L 30.696785 199.933562 
L 30.901404 200.712219 
L 31.106024 200.878834 
L 31.310644 200.275342 
L 31.924503 197.055406 
L 32.129123 196.653199 
L 32.538362 196.269753 
L 32.742982 195.604176 
L 33.356841 191.71716 
L 33.9707 188.076724 
L 34.584559 185.829527 
L 34.789179 185.6526 
L 35.198419 186.131092 
L 35.812278 187.087039 
L 36.221517 187.859322 
L 36.630757 188.360876 
L 37.244616 189.837604 
L 37.653855 191.284481 
L 38.267714 193.792768 
L 38.472334 193.919374 
L 38.676954 193.611591 
L 39.495433 191.488875 
L 39.700053 191.459128 
L 40.313912 192.143103 
L 40.723151 192.889733 
L 41.33701 194.099877 
L 41.54163 194.330132 
L 41.74625 194.236693 
L 41.95087 193.614596 
L 42.769348 189.735044 
L 42.973968 189.567704 
L 43.178588 189.709132 
L 43.997067 190.70856 
L 44.201687 190.574698 
L 44.610926 189.877923 
L 45.429405 187.828124 
L 45.838644 187.696283 
L 46.452504 187.666588 
L 46.657123 187.47914 
L 47.066363 186.357718 
L 47.475602 185.525579 
L 47.884842 185.669753 
L 48.089461 185.428098 
L 48.294081 184.670792 
L 48.90794 181.134367 
L 49.11256 180.563731 
L 49.31718 180.523464 
L 49.521799 180.948888 
L 50.135659 182.771801 
L 50.340278 182.866536 
L 50.749518 182.513821 
L 51.363377 181.896803 
L 51.772616 181.710132 
L 51.977236 181.316425 
L 52.386476 179.502011 
L 53.818814 170.997882 
L 54.432673 168.597389 
L 55.046532 167.104026 
L 55.455772 166.670776 
L 55.865011 166.449746 
L 56.069631 165.967575 
L 56.47887 163.768419 
L 57.092729 160.189135 
L 57.911208 155.79813 
L 58.320448 151.22714 
L 58.934307 143.057691 
L 59.548166 138.194672 
L 59.957406 136.865177 
L 60.162025 137.002355 
L 60.571265 138.573351 
L 61.185124 141.957051 
L 61.594363 146.558565 
L 62.617462 161.21888 
L 63.640561 171.418797 
L 64.25442 175.400962 
L 65.072899 179.241025 
L 65.891378 186.144203 
L 66.095997 186.919129 
L 66.300617 187.043662 
L 66.505237 186.599478 
L 67.323716 183.531076 
L 67.528335 183.700282 
L 67.732955 184.265268 
L 68.142195 186.348908 
L 68.551434 188.460171 
L 68.960673 189.450478 
L 69.779152 190.497739 
L 70.393012 192.531058 
L 71.21149 193.685388 
L 71.41611 193.507321 
L 71.82535 192.385743 
L 72.234589 191.090711 
L 72.439209 190.825993 
L 72.643829 191.034067 
L 73.053068 192.128592 
L 73.257688 192.082002 
L 73.871547 189.536972 
L 74.076167 189.543813 
L 74.280786 190.421402 
L 75.099265 195.936006 
L 75.508505 196.896825 
L 75.713124 196.844223 
L 75.917744 196.304941 
L 76.326984 193.486176 
L 76.736223 190.029197 
L 77.145463 188.161819 
L 77.759322 186.16996 
L 77.963941 186.183952 
L 78.168561 186.672239 
L 78.577801 188.912388 
L 79.19166 193.372267 
L 79.600899 194.610293 
L 79.805519 195.105628 
L 80.214758 197.116403 
L 80.623998 199.463154 
L 80.828618 199.925633 
L 81.033237 199.70678 
L 81.442477 197.803798 
L 81.851716 195.743894 
L 82.260956 194.851172 
L 82.670195 194.457256 
L 82.874815 193.962544 
L 83.284054 192.089258 
L 84.102533 187.249922 
L 84.511773 184.477592 
L 84.921012 183.033772 
L 85.739491 181.171784 
L 85.944111 181.250504 
L 86.35335 182.445361 
L 86.76259 183.692715 
L 86.967209 183.913953 
L 87.171829 183.904261 
L 87.376449 183.696136 
L 87.990308 182.362287 
L 88.194928 182.398719 
L 88.399548 182.984073 
L 89.013407 186.490025 
L 89.422646 188.437627 
L 89.627266 188.86927 
L 89.831886 188.988362 
L 90.241125 188.787181 
L 90.650365 188.29309 
L 90.854984 188.224319 
L 91.059604 188.571903 
L 91.264224 189.598954 
L 92.082703 195.696423 
L 92.287322 195.569506 
L 92.696562 193.537793 
L 93.105801 191.706951 
L 93.310421 191.418135 
L 93.71966 191.29526 
L 94.1289 190.829258 
L 94.742759 189.722399 
L 95.356618 188.558066 
L 95.561238 188.674982 
L 95.765858 189.255878 
L 96.175097 191.485973 
L 96.993576 196.193416 
L 97.198196 196.038566 
L 97.402816 194.966636 
L 97.812055 191.042514 
L 98.425914 184.557712 
L 98.630534 183.455257 
L 98.835154 183.118453 
L 99.244393 183.553257 
L 99.858252 184.510344 
L 100.881351 186.276925 
L 101.49521 187.370932 
L 101.69983 187.336624 
L 102.109069 186.113005 
L 102.518309 185.078959 
L 102.722928 185.220957 
L 102.927548 185.848339 
L 103.336788 188.449702 
L 103.950647 192.946221 
L 104.564506 194.722855 
L 104.973745 197.908379 
L 105.382985 200.639303 
L 105.587605 200.842764 
L 105.792224 200.339759 
L 106.406083 197.697973 
L 106.610703 197.551985 
L 107.429182 198.188385 
L 107.633802 198.107488 
L 108.043041 197.101685 
L 109.679999 192.432696 
L 110.089239 191.298111 
L 110.293858 191.287487 
L 110.907717 192.506753 
L 111.112337 192.169015 
L 111.521577 189.774015 
L 112.135436 184.985572 
L 112.340056 184.005111 
L 112.544675 183.677583 
L 112.749295 184.100986 
L 113.158534 186.56828 
L 114.386253 195.8847 
L 114.590873 196.328521 
L 114.795492 195.84464 
L 115.409351 192.683576 
L 115.818591 191.563243 
L 116.22783 189.628804 
L 116.63707 187.732975 
L 117.250929 186.818901 
L 117.660168 184.955306 
L 118.069408 183.235938 
L 118.274028 182.964276 
L 118.478647 183.137627 
L 118.683267 183.712564 
L 119.092507 185.903895 
L 120.115605 194.399939 
L 120.729464 196.182377 
L 121.547943 197.807737 
L 121.752563 197.741039 
L 122.366422 196.350909 
L 122.980281 196.658641 
L 123.184901 196.254931 
L 123.79876 193.955755 
L 124.208 192.296865 
L 124.412619 191.841279 
L 124.617239 191.927877 
L 124.821859 192.5976 
L 125.844958 197.999797 
L 126.254197 198.246843 
L 126.458817 198.283223 
L 126.868056 198.026072 
L 127.277296 197.854793 
L 127.686535 198.017728 
L 127.891155 197.898792 
L 128.095775 197.274726 
L 129.118873 192.004681 
L 129.528113 191.666528 
L 129.732732 191.173629 
L 130.755831 187.037236 
L 130.960451 187.467998 
L 132.188169 193.454045 
L 133.006648 195.672532 
L 133.415887 197.279494 
L 133.620507 197.564008 
L 133.825127 197.382416 
L 134.848226 195.336763 
L 135.257465 193.474568 
L 135.666704 190.476077 
L 136.280564 185.207327 
L 136.485183 184.723082 
L 136.689803 185.050403 
L 138.326761 192.040128 
L 138.736 192.963012 
L 138.94062 193.082052 
L 139.14524 192.973999 
L 139.554479 192.444045 
L 139.759099 192.482706 
L 140.168338 193.368743 
L 140.782198 194.673259 
L 141.191437 195.340754 
L 141.396057 195.462489 
L 141.805296 195.490111 
L 142.009916 195.903771 
L 142.419155 197.800119 
L 143.033015 200.898579 
L 143.442254 201.733102 
L 144.056113 202.165419 
L 144.260733 201.985071 
L 144.874592 200.917909 
L 145.079212 201.014561 
L 145.488451 201.501345 
L 145.897691 201.668892 
L 146.10231 201.634066 
L 146.30693 201.363596 
L 147.125409 199.386558 
L 147.330029 199.431283 
L 147.534649 199.926462 
L 148.148508 202.765179 
L 148.762367 205.954435 
L 148.966987 206.312384 
L 149.171606 206.049169 
L 149.580846 203.994914 
L 150.603944 198.546127 
L 151.013184 197.142108 
L 151.422423 196.73192 
L 152.036283 195.224201 
L 152.240902 195.249077 
L 152.854761 196.836346 
L 153.059381 196.835724 
L 153.468621 196.017784 
L 154.491719 193.628537 
L 154.900959 193.518566 
L 155.105578 193.541576 
L 155.310198 193.752967 
L 155.514818 194.373146 
L 156.128677 198.285089 
L 156.742536 201.6052 
L 156.947156 201.831672 
L 157.356395 201.14692 
L 157.765635 200.655783 
L 157.970255 200.551253 
L 158.584114 200.56877 
L 158.788734 199.828411 
L 159.402593 196.601479 
L 159.607212 196.406258 
L 159.811832 196.492907 
L 160.016452 196.446421 
L 160.630311 195.170719 
L 160.834931 195.189583 
L 161.24417 195.608944 
L 161.65341 195.600341 
L 161.858029 195.878947 
L 162.471889 197.908846 
L 162.676508 197.822403 
L 163.494987 195.648848 
L 164.313466 196.094691 
L 164.518086 196.422997 
L 164.927325 198.105933 
L 165.745804 202.555395 
L 165.950424 202.904534 
L 166.768903 202.588718 
L 167.178142 202.444284 
L 168.201241 201.816746 
L 168.405861 201.799593 
L 168.8151 202.381525 
L 169.01972 202.623803 
L 169.22434 202.415418 
L 169.428959 201.557678 
L 170.247438 195.982336 
L 170.452058 195.574999 
L 170.656678 195.660975 
L 171.065917 196.76488 
L 171.475157 197.793744 
L 171.679776 197.898896 
L 171.884396 197.721398 
L 172.293636 196.615834 
L 172.702875 195.762084 
L 173.112114 195.655378 
L 173.521354 195.835778 
L 173.930593 196.096194 
L 174.339833 196.043126 
L 174.544453 196.218447 
L 174.953692 197.694242 
L 175.362931 199.000572 
L 175.772171 199.19455 
L 175.976791 199.540372 
L 176.38603 201.149304 
L 176.999889 203.880382 
L 177.204509 204.049329 
L 177.409129 203.622506 
L 178.432227 199.844632 
L 178.636847 199.470617 
L 179.046086 199.460097 
L 179.250706 199.194706 
L 180.069185 196.406309 
L 180.273805 196.397655 
L 180.683044 196.711139 
L 181.092284 197.586396 
L 181.501523 198.512597 
L 182.115382 199.555453 
L 182.320002 199.90993 
L 182.524622 199.881893 
L 182.729242 199.259952 
L 183.138481 196.104175 
L 183.75234 190.521112 
L 184.16158 188.294748 
L 184.570819 187.326622 
L 184.775439 187.449445 
L 185.389298 188.607247 
L 186.617016 189.981519 
L 187.026256 190.84522 
L 187.435495 192.828166 
L 187.844735 194.602986 
L 188.049354 194.371643 
L 188.458594 191.807749 
L 188.867833 189.275208 
L 189.072453 188.676277 
L 189.277073 188.743441 
L 189.481693 189.510231 
L 190.095552 192.916474 
L 190.504791 193.618742 
L 190.709411 193.909735 
L 191.32327 195.442536 
L 191.52789 195.506539 
L 191.937129 195.103192 
L 192.346369 194.259081 
L 192.960228 192.667615 
L 193.574087 191.775722 
L 193.983327 191.634864 
L 195.006425 191.865377 
L 195.211045 191.879784 
L 195.415665 192.154193 
L 196.029524 193.899059 
L 196.234144 194.060128 
L 196.438763 194.001515 
L 196.643383 193.780278 
L 196.848003 193.322775 
L 197.257242 191.533548 
L 197.871101 188.48033 
L 198.075721 188.793762 
L 198.484961 191.854702 
L 198.8942 195.121279 
L 199.09882 195.948754 
L 199.303439 196.164861 
L 199.508059 195.876615 
L 200.326538 193.628485 
L 200.531158 193.785098 
L 200.735778 194.106304 
L 200.940397 194.20451 
L 201.554256 193.600241 
L 201.758876 193.789296 
L 201.963496 193.786912 
L 202.168116 193.284529 
L 202.577355 191.715761 
L 202.781975 191.513388 
L 202.986595 191.822519 
L 203.600454 193.752967 
L 203.805073 193.781522 
L 204.009693 193.072413 
L 204.828172 188.165965 
L 205.442031 186.682707 
L 205.851271 185.493137 
L 206.05589 185.311338 
L 206.26051 185.539416 
L 206.66975 186.908039 
L 207.283609 189.291688 
L 207.488229 189.627664 
L 207.692848 189.625695 
L 208.306707 188.825582 
L 208.511327 188.989347 
L 208.920567 190.368438 
L 209.739046 194.011932 
L 209.943665 194.322047 
L 210.148285 194.091948 
L 210.557524 192.697258 
L 211.171384 189.580556 
L 212.194482 183.522836 
L 212.399102 183.420017 
L 212.603722 183.953909 
L 213.012961 186.612849 
L 213.62682 191.291374 
L 214.24068 194.517943 
L 214.445299 195.041884 
L 214.649919 195.155327 
L 214.854539 194.906468 
L 215.059158 194.210781 
L 215.468398 191.212238 
L 216.286877 184.325125 
L 216.696116 182.430332 
L 217.514595 180.231591 
L 217.719215 179.860323 
L 217.923835 179.930026 
L 218.537694 181.667792 
L 218.742313 181.374364 
L 219.151553 179.200498 
L 219.560792 176.72144 
L 219.765412 175.984553 
L 220.174652 175.579029 
L 220.99313 175.014613 
L 221.19775 174.079136 
L 221.60699 170.016178 
L 222.220849 163.130568 
L 222.630088 161.334137 
L 223.039328 160.461315 
L 223.243947 159.512105 
L 223.448567 157.711217 
L 223.857807 150.987039 
L 226.108624 104.395922 
L 226.722483 95.503993 
L 227.131722 92.167868 
L 227.336342 91.48068 
L 227.540962 91.428753 
L 227.745581 92.005451 
L 227.950201 93.302505 
L 228.359441 98.478801 
L 228.76868 106.799058 
L 230.201018 141.227005 
L 230.814877 150.007045 
L 231.428737 156.646698 
L 231.837976 159.087924 
L 232.042596 159.426232 
L 232.247215 159.103679 
L 232.451835 158.146643 
L 232.861075 154.219101 
L 234.498032 129.977234 
L 235.111892 113.435135 
L 236.33961 80.278018 
L 236.748849 72.761242 
L 236.953469 70.740568 
L 237.158089 69.854894 
L 237.362709 70.12666 
L 237.567328 71.653606 
L 237.976568 77.959045 
L 238.590427 93.236222 
L 240.227385 144.957304 
L 240.841244 155.412507 
L 241.250483 159.663846 
L 242.682822 169.732959 
L 243.296681 171.984147 
L 244.319779 178.990351 
L 244.524399 179.257246 
L 244.729019 179.197803 
L 245.342878 178.104315 
L 245.547498 178.309331 
L 245.752117 179.095865 
L 246.161357 182.275119 
L 246.570596 185.996245 
L 246.775216 186.951571 
L 246.979836 187.163635 
L 247.184456 187.178198 
L 247.389075 187.549155 
L 248.002934 189.889842 
L 248.207554 190.139531 
L 248.412174 189.886215 
L 248.821413 188.086778 
L 249.435273 185.00143 
L 249.639892 184.747854 
L 249.844512 185.041231 
L 250.253751 185.933745 
L 250.458371 186.103107 
L 250.662991 186.019566 
L 251.07223 185.442246 
L 251.27685 185.36311 
L 251.68609 185.864405 
L 252.299949 186.82056 
L 252.504568 186.526769 
L 253.323047 183.598914 
L 253.732287 183.314244 
L 253.936907 183.190592 
L 254.550766 182.485887 
L 254.960005 182.568754 
L 255.573864 182.847983 
L 255.778484 183.185668 
L 256.187723 184.488008 
L 257.006202 187.358442 
L 257.210822 187.317345 
L 258.029301 185.607202 
L 259.0524 181.676706 
L 259.461639 181.331402 
L 259.870879 180.235011 
L 260.689357 177.400129 
L 260.893977 176.990148 
L 261.098597 176.958224 
L 261.507836 177.716411 
L 261.917076 178.481439 
L 262.121696 178.420183 
L 262.326315 178.041659 
L 263.554034 174.475124 
L 263.963273 174.145523 
L 264.167893 173.800011 
L 264.986372 171.420922 
L 265.190991 171.318932 
L 265.600231 171.499954 
L 266.00947 171.717719 
L 266.41871 171.400659 
L 267.032569 170.759543 
L 267.441808 170.089613 
L 267.646428 169.979797 
L 267.851048 170.156207 
L 268.260287 171.199322 
L 269.078766 173.606189 
L 269.283386 173.449473 
L 269.488006 172.800376 
L 270.920344 165.74385 
L 271.329583 164.868645 
L 271.534203 164.11165 
L 272.352682 159.777341 
L 272.557302 159.988679 
L 273.375781 163.076152 
L 273.5804 163.232298 
L 273.78502 163.038113 
L 274.194259 161.917624 
L 274.808119 159.524128 
L 275.217358 157.352128 
L 276.649696 147.833542 
L 277.058936 146.56551 
L 277.263555 146.507156 
L 277.672795 147.22067 
L 278.082034 147.988237 
L 278.286654 148.07924 
L 278.695893 147.851421 
L 279.105133 147.899307 
L 279.309753 147.554003 
L 279.514372 146.627077 
L 280.537471 139.333974 
L 280.742091 139.306092 
L 281.15133 140.4541 
L 281.35595 140.421554 
L 281.56057 139.677205 
L 282.379049 135.172083 
L 282.583668 134.873317 
L 282.992908 134.805479 
L 283.197527 134.262207 
L 283.606767 131.182197 
L 284.834485 116.737522 
L 285.448344 106.785946 
L 286.062204 97.808974 
L 286.471443 95.731656 
L 286.676063 95.488394 
L 286.880683 96.058148 
L 287.085302 97.83727 
L 287.494542 104.906078 
L 288.108401 115.697101 
L 288.72226 122.308614 
L 288.92688 123.819028 
L 289.1315 124.459574 
L 289.336119 124.440036 
L 289.745359 124.020727 
L 289.949978 123.483363 
L 290.359218 121.148117 
L 290.768457 118.246796 
L 291.177697 113.683683 
L 291.791556 103.205677 
L 293.223894 77.030357 
L 294.451612 57.249561 
L 295.270091 40.134546 
L 295.679331 34.870305 
L 295.88395 33.712088 
L 296.08857 33.895234 
L 296.29319 35.542411 
L 296.702429 42.20098 
L 297.520908 60.842112 
L 299.362486 116.143411 
L 299.976345 126.304097 
L 300.590204 133.054498 
L 301.817923 142.142218 
L 302.636401 146.812348 
L 302.841021 147.1718 
L 303.045641 146.929885 
L 303.250261 146.049601 
L 304.477979 137.578225 
L 304.887218 136.584342 
L 305.091838 136.523345 
L 305.296458 137.140674 
L 305.705697 140.195549 
L 306.114937 143.274057 
L 306.319557 144.088525 
L 306.524176 144.419422 
L 306.728796 144.479848 
L 306.933416 144.325102 
L 307.138035 143.755347 
L 307.751895 140.07511 
L 309.184233 131.0786 
L 309.593472 126.588041 
L 310.207331 115.738457 
L 311.02581 100.324827 
L 311.43505 96.021612 
L 311.639669 94.975646 
L 311.844289 94.570174 
L 312.253529 94.494667 
L 312.458148 94.498968 
L 312.662768 94.751092 
L 312.867388 95.663922 
L 313.276627 100.474029 
L 314.095106 114.497322 
L 314.299726 116.155278 
L 314.504346 116.89854 
L 314.708965 116.939999 
L 314.913585 116.42295 
L 315.732064 112.906477 
L 316.141303 111.635698 
L 316.550543 109.250493 
L 317.573642 101.933551 
L 317.982881 97.231291 
L 318.39212 90.451194 
L 319.00598 74.793317 
L 320.233698 33.031482 
L 320.847557 13.887501 
L 321.256797 5.788066 
L 321.461416 3.633842 
L 321.666036 3.00024 
L 321.870656 3.828182 
L 322.279895 9.169641 
L 322.893754 23.692985 
L 323.712233 43.579501 
L 324.121473 49.770772 
L 324.939952 58.860514 
L 326.37229 80.412502 
L 326.781529 82.774593 
L 326.986149 83.191984 
L 327.190769 83.106008 
L 327.395388 82.578905 
L 327.804628 80.668461 
L 328.213867 77.365607 
L 328.827727 69.000108 
L 329.850825 51.566633 
L 331.283163 22.950812 
L 331.692403 20.073122 
L 331.897022 19.992173 
L 332.101642 20.864425 
L 332.510882 25.275175 
L 333.32936 35.932077 
L 334.557079 47.798398 
L 335.170938 56.204321 
L 335.375558 57.291124 
L 335.580177 57.454992 
L 335.784797 57.250079 
L 335.989417 57.45494 
L 336.194037 58.575999 
L 336.807896 64.017064 
L 337.217135 65.331116 
L 337.626375 65.649627 
L 337.830994 65.513278 
L 338.035614 65.14626 
L 338.444854 63.658027 
L 339.263333 60.070296 
L 339.672572 58.506348 
L 339.877192 58.143942 
L 340.081811 58.18509 
L 340.695671 59.162752 
L 340.90029 58.932083 
L 341.718769 56.09663 
L 341.923389 56.592898 
L 342.741868 60.942495 
L 342.946488 60.926378 
L 343.560347 60.165704 
L 343.764967 60.259868 
L 343.969586 60.905337 
L 344.788065 65.622782 
L 344.992685 65.653099 
L 345.811164 64.586196 
L 346.220403 62.129112 
L 346.629643 59.77666 
L 346.834262 59.594447 
L 347.038882 59.978204 
L 347.448122 62.072727 
L 348.061981 66.154809 
L 348.266601 66.936523 
L 348.47122 67.10972 
L 348.67584 66.636462 
L 349.289699 64.422795 
L 349.494319 64.295411 
L 349.698939 64.527117 
L 350.108178 65.698705 
L 350.517418 68.167242 
L 351.335896 73.75611 
L 351.745136 75.646757 
L 352.358995 77.697229 
L 353.177474 81.189449 
L 353.382094 81.375912 
L 353.586713 81.038174 
L 354.200573 79.040769 
L 354.405192 79.032737 
L 354.609812 79.493816 
L 355.019052 81.713598 
L 356.45139 92.799137 
L 356.656009 93.478966 
L 356.860629 93.758972 
L 357.065249 93.509439 
L 357.474488 91.4031 
L 358.088347 87.736648 
L 358.497587 86.624761 
L 358.702207 86.721413 
L 358.906826 87.354393 
L 359.520686 90.355527 
L 359.725305 90.496281 
L 359.929925 90.227107 
L 360.748404 88.342368 
L 361.157643 88.054848 
L 361.362263 88.089362 
L 361.566883 88.37367 
L 362.180742 90.384393 
L 362.794601 92.835777 
L 363.8177 97.622822 
L 364.02232 98.088306 
L 364.226939 98.178117 
L 364.840798 97.713877 
L 365.045418 98.034668 
L 365.454658 99.792697 
L 366.886996 107.188049 
L 368.523954 110.234219 
L 369.137813 110.497848 
L 369.342432 110.677211 
L 369.751672 111.519871 
L 370.160911 112.435137 
L 370.365531 112.418864 
L 371.38863 110.813249 
L 371.593249 110.797132 
L 371.797869 111.202759 
L 372.616348 113.946794 
L 373.025587 114.681401 
L 373.230207 114.700265 
L 373.434827 114.391652 
L 373.844066 112.943479 
L 374.867165 108.384979 
L 375.481024 104.741122 
L 376.094883 99.75782 
L 376.708743 94.011873 
L 377.527221 87.840399 
L 378.95956 74.767405 
L 379.164179 74.960968 
L 379.573419 78.038699 
L 380.596517 87.280388 
L 381.005757 89.452907 
L 381.414996 90.793596 
L 381.824236 93.276127 
L 382.642715 99.671532 
L 383.665813 105.976194 
L 383.870433 105.971427 
L 384.075053 105.20018 
L 384.688912 101.015746 
L 385.302771 95.390965 
L 385.91663 87.549303 
L 386.735109 73.754814 
L 387.758208 55.078079 
L 388.167447 51.35716 
L 388.372067 50.757503 
L 388.576687 50.775901 
L 388.781306 51.200962 
L 389.190546 53.086686 
L 389.804405 57.05294 
L 390.213645 63.351902 
L 391.032123 80.357465 
L 393.078321 107.501741 
L 393.48756 110.34222 
L 394.101419 113.977059 
L 394.715279 118.004933 
L 394.919898 118.196578 
L 395.124518 117.547689 
L 395.533757 113.832055 
L 396.147617 106.938205 
L 396.556856 104.953497 
L 396.761476 104.621253 
L 396.966096 104.809115 
L 397.375335 106.583936 
L 399.012293 115.228145 
L 399.626152 115.278725 
L 399.830772 115.633669 
L 400.035391 116.441503 
L 400.444631 119.374696 
L 402.081589 135.200431 
L 402.900068 145.11884 
L 403.309307 148.179779 
L 403.718547 149.356601 
L 403.923166 149.319443 
L 404.127786 148.939002 
L 404.537025 147.734299 
L 404.741645 147.49171 
L 404.946265 147.682164 
L 405.355504 148.880285 
L 405.764744 150.107895 
L 405.969364 150.280054 
L 406.173983 150.046224 
L 406.787842 148.707659 
L 407.197082 148.421642 
L 407.401702 148.437293 
L 407.606321 148.680244 
L 408.015561 149.8637 
L 409.038659 153.696559 
L 409.243279 153.428576 
L 409.652519 152.476723 
L 409.857138 152.402459 
L 410.061758 152.761341 
L 410.470997 154.707492 
L 411.084857 158.050665 
L 411.698716 160.084761 
L 411.903336 160.251324 
L 412.312575 160.35492 
L 412.721814 160.518477 
L 413.131054 160.450536 
L 413.335674 160.801644 
L 413.540293 161.682913 
L 414.563392 168.280692 
L 414.768012 168.522711 
L 415.177251 168.339409 
L 415.586491 168.613662 
L 415.79111 168.439533 
L 416.814209 165.780801 
L 417.018829 165.899167 
L 417.223448 166.402016 
L 417.632688 168.581997 
L 418.041927 170.728345 
L 418.246547 170.914341 
L 418.860406 169.689427 
L 419.065026 169.872314 
L 420.292744 172.631948 
L 420.906604 172.6945 
L 421.520463 172.460203 
L 421.725082 172.811104 
L 422.952801 176.343487 
L 423.36204 176.440087 
L 423.975899 176.236211 
L 424.180519 176.49642 
L 424.794378 178.130693 
L 425.612857 180.750298 
L 426.022097 182.603891 
L 426.635956 186.389849 
L 426.840576 186.848855 
L 427.045195 186.715978 
L 427.659055 185.57051 
L 428.886773 184.686857 
L 429.091393 184.248114 
L 429.500632 182.057458 
L 430.319111 176.447601 
L 430.93297 173.541305 
L 431.13759 172.64138 
L 431.34221 172.27602 
L 431.546829 172.42403 
L 431.956069 173.111114 
L 432.160689 173.086497 
L 432.365308 172.818618 
L 432.569928 172.85417 
L 432.774548 173.717715 
L 433.593027 179.575497 
L 433.797646 179.999211 
L 434.002266 179.982368 
L 434.206886 179.532224 
L 434.616125 178.183865 
L 434.820745 178.066276 
L 435.025365 178.686092 
L 436.048463 185.035841 
L 436.457703 186.471524 
L 437.276182 191.4711 
L 437.480801 191.700214 
L 437.685421 191.517275 
L 438.094661 190.70032 
L 438.5039 189.040912 
L 439.117759 185.902288 
L 439.526999 184.57813 
L 439.936238 181.888977 
L 440.550097 177.242842 
L 441.163957 174.507203 
L 441.573196 173.483003 
L 441.777816 173.376505 
L 441.982435 173.660294 
L 442.391675 175.141686 
L 443.005534 177.541971 
L 443.824013 179.4605 
L 444.028633 179.578503 
L 444.233252 179.220813 
L 445.051731 175.811512 
L 445.256351 176.333485 
L 445.665591 179.335189 
L 446.07483 182.170641 
L 446.484069 183.154781 
L 446.893309 183.437741 
L 447.097929 183.29709 
L 447.507168 182.549527 
L 448.530267 179.889655 
L 448.734886 179.748849 
L 448.939506 179.768387 
L 449.553365 180.157897 
L 450.985703 179.168885 
L 451.190323 179.295025 
L 451.394943 179.756208 
L 452.418041 183.275998 
L 452.622661 183.044914 
L 453.44114 180.624936 
L 453.64576 180.872914 
L 454.464239 183.167012 
L 454.668858 182.854046 
L 455.078098 181.599851 
L 455.282718 181.474695 
L 455.487337 182.007085 
L 455.896577 183.803308 
L 456.101197 184.269829 
L 456.305816 184.255163 
L 456.919675 183.154626 
L 457.328915 182.269366 
L 457.942774 180.506103 
L 458.147394 180.301657 
L 458.352014 180.494494 
L 458.965873 181.808132 
L 459.170492 181.775897 
L 459.579732 181.525224 
L 459.784352 181.846222 
L 460.193591 183.935045 
L 460.602831 186.081392 
L 461.01207 187.169128 
L 461.21669 187.386064 
L 461.421309 187.36606 
L 462.035169 186.739092 
L 462.444408 186.048795 
L 463.467507 183.143276 
L 463.672126 183.157269 
L 464.081366 183.392395 
L 464.490605 183.137731 
L 464.899845 183.266307 
L 465.104465 183.042375 
L 466.127563 180.191012 
L 466.536803 179.41277 
L 466.946042 177.59934 
L 467.764521 172.885782 
L 467.969141 172.680766 
L 468.37838 173.365985 
L 468.78762 174.523217 
L 469.196859 177.229057 
L 469.810718 181.067721 
L 470.219958 182.588758 
L 470.629197 183.315799 
L 471.038437 183.77154 
L 471.652296 184.866946 
L 471.856916 184.636277 
L 473.493873 179.617734 
L 473.698493 179.806011 
L 474.107733 181.471741 
L 474.721592 184.417683 
L 474.926211 184.530556 
L 475.335451 184.149908 
L 475.74469 184.188983 
L 475.94931 183.931936 
L 476.35855 182.927377 
L 476.563169 182.877315 
L 476.767789 183.350054 
L 477.177028 184.736557 
L 477.381648 184.855908 
L 477.995507 183.786154 
L 478.200127 184.038382 
L 478.609367 185.746609 
L 479.223226 188.371655 
L 479.632465 189.385438 
L 479.837085 189.336568 
L 480.041705 188.883315 
L 480.450944 187.001996 
L 480.860184 185.131249 
L 481.474043 183.973809 
L 481.883282 182.39846 
L 482.087902 182.139651 
L 482.292522 182.469874 
L 483.52024 186.488056 
L 483.72486 186.199396 
L 484.134099 183.757807 
L 484.543339 181.823627 
L 484.747958 181.820155 
L 484.952578 182.413178 
L 485.566437 185.03978 
L 485.771057 184.949606 
L 486.180296 183.987387 
L 486.384916 183.965466 
L 486.794156 184.977487 
L 487.817254 188.61642 
L 488.226494 190.501626 
L 488.431113 190.910881 
L 488.635733 190.70006 
L 489.658832 187.483545 
L 490.068071 187.792106 
L 490.272691 187.680425 
L 491.09117 185.644567 
L 491.29579 185.93074 
L 491.705029 187.625958 
L 492.318888 191.080657 
L 492.728128 191.883516 
L 492.932747 191.971513 
L 493.137367 191.884449 
L 493.341987 191.53049 
L 493.955846 189.940785 
L 494.160466 190.415339 
L 494.978945 194.943729 
L 495.183564 194.882888 
L 495.797424 193.585782 
L 496.002043 193.460938 
L 496.206663 193.511415 
L 496.615902 193.890404 
L 496.820522 193.850137 
L 497.639001 192.75499 
L 498.048241 192.720734 
L 498.45748 192.141289 
L 498.866719 191.002869 
L 499.275959 189.680421 
L 499.685198 189.276245 
L 500.094438 189.03915 
L 500.708297 187.914566 
L 500.912917 188.225148 
L 502.549875 195.122885 
L 502.754494 195.169112 
L 502.959114 194.615113 
L 503.777593 190.68954 
L 503.982213 190.410208 
L 504.186832 190.551222 
L 507.051509 197.378478 
L 507.665368 199.676048 
L 507.869987 199.55706 
L 508.279227 198.792395 
L 508.688466 198.893659 
L 508.893086 198.715903 
L 509.097706 198.225957 
L 509.506945 196.210932 
L 509.916185 193.773386 
L 510.325424 192.74789 
L 510.530044 192.603767 
L 510.734664 192.674818 
L 511.143903 193.596147 
L 511.553143 194.496125 
L 511.962382 194.724202 
L 512.167002 194.627188 
L 512.576241 193.895276 
L 512.985481 193.094438 
L 513.1901 193.231616 
L 513.39472 193.941555 
L 514.213199 197.928228 
L 514.417819 198.005601 
L 514.827058 197.215698 
L 515.031678 196.83619 
L 515.236298 196.696732 
L 515.440917 196.808983 
L 515.850157 197.235288 
L 516.054777 197.238138 
L 516.464016 196.775712 
L 517.077875 195.414448 
L 517.896354 193.546344 
L 518.100974 193.770587 
L 518.714833 194.93637 
L 518.919453 195.234981 
L 519.328692 196.58588 
L 519.737932 197.777575 
L 520.351791 198.454605 
L 520.556411 198.579346 
L 520.76103 198.462483 
L 521.17027 197.287423 
L 521.988749 193.74851 
L 522.602608 190.839675 
L 523.011847 190.123725 
L 523.625706 189.907463 
L 524.034946 189.035056 
L 524.444185 187.515676 
L 524.853425 185.81854 
L 525.058045 185.635187 
L 525.467284 186.344296 
L 525.876523 187.13622 
L 526.285763 188.996084 
L 526.695002 191.055729 
L 526.899622 191.373515 
L 527.104242 191.19296 
L 527.513481 189.848798 
L 528.12734 187.054545 
L 528.33196 186.599011 
L 528.53658 186.680997 
L 529.150439 188.068743 
L 529.355059 187.630519 
L 529.764298 186.137466 
L 529.968918 186.223494 
L 530.173538 187.173793 
L 531.401256 196.14325 
L 531.605876 196.187974 
L 532.015115 195.191449 
L 532.219735 195.181861 
L 532.424355 195.721454 
L 533.038214 198.941856 
L 533.447453 201.055346 
L 533.652073 201.701593 
L 533.856693 201.902567 
L 534.061312 201.576386 
L 534.470552 199.329656 
L 535.084411 195.279757 
L 535.493651 193.683574 
L 535.90289 192.705861 
L 536.10751 192.534945 
L 536.312129 192.76608 
L 536.721369 194.323188 
L 537.335228 196.696887 
L 537.539848 196.594949 
L 537.744468 195.656155 
L 538.358327 191.642637 
L 538.562946 191.379008 
L 538.767566 191.80521 
L 539.176806 194.35366 
L 539.586045 197.087693 
L 539.995285 198.469583 
L 540.199904 198.728755 
L 540.404524 198.668898 
L 540.609144 198.130031 
L 541.018383 195.441241 
L 542.041482 186.963594 
L 542.450721 184.877933 
L 542.655341 184.409236 
L 542.859961 184.564552 
L 543.67844 186.893528 
L 543.883059 186.748576 
L 544.701538 185.418199 
L 545.110778 185.122232 
L 545.315397 184.763402 
L 546.133876 182.219874 
L 546.543116 181.616849 
L 546.747736 181.547197 
L 546.952355 181.938729 
L 547.566214 184.960074 
L 547.770834 185.17986 
L 548.384693 184.472876 
L 548.589313 184.736401 
L 549.817031 188.737067 
L 550.226271 189.619631 
L 550.63551 190.193065 
L 551.04475 191.457781 
L 551.658609 193.736383 
L 551.863229 193.989388 
L 552.067848 193.968555 
L 552.272468 193.656781 
L 552.681708 191.874602 
L 553.295567 187.908348 
L 553.500187 187.286769 
L 553.704806 187.236863 
L 553.909426 187.666951 
L 554.318665 189.81734 
L 554.727905 191.948918 
L 554.932525 192.43311 
L 555.137144 192.616827 
L 555.546384 192.552669 
L 556.160243 192.178395 
L 556.364863 192.218092 
L 556.569482 192.462495 
L 556.978722 193.834901 
L 557.387961 195.069714 
L 557.592581 194.944144 
L 558.001821 193.219023 
L 558.61568 190.020232 
L 558.820299 189.298944 
L 559.024919 189.059672 
L 559.229539 189.345637 
L 559.638778 190.797749 
L 560.048018 192.621128 
L 560.252638 192.956793 
L 560.457257 192.6942 
L 560.866497 191.680676 
L 561.071116 191.655179 
L 561.275736 192.078945 
L 562.094215 194.553287 
L 562.298835 194.399006 
L 562.708074 192.708089 
L 563.731173 186.54045 
L 563.935793 186.248991 
L 564.140412 186.449499 
L 564.345032 187.240024 
L 565.163511 193.31127 
L 565.368131 193.638176 
L 565.57275 193.747059 
L 565.77737 194.105993 
L 566.391229 196.091115 
L 566.595849 196.229175 
L 567.414328 195.886565 
L 567.618948 196.029341 
L 568.232807 197.23762 
L 568.437427 196.881122 
L 568.846666 194.126878 
L 569.255905 191.99131 
L 569.460525 192.072052 
L 569.869765 193.48799 
L 570.279004 195.341531 
L 571.097483 199.745181 
L 571.302103 200.292392 
L 571.506722 200.372046 
L 571.915962 200.126762 
L 572.120582 200.431281 
L 572.734441 202.640646 
L 573.55292 205.787561 
L 573.757539 205.476668 
L 574.985258 200.444496 
L 575.394497 198.424858 
L 576.622216 190.340142 
L 576.826835 190.087499 
L 577.031455 190.451149 
L 577.440695 192.704099 
L 578.259173 198.055715 
L 578.463793 198.542033 
L 578.668413 198.178383 
L 579.282272 195.15284 
L 579.486892 195.01535 
L 579.896131 195.60599 
L 580.100751 195.16336 
L 580.91923 191.508879 
L 581.12385 191.187777 
L 581.328469 191.106258 
L 581.737709 191.39129 
L 581.942329 191.72737 
L 582.146948 192.556763 
L 582.556188 196.39895 
L 582.965427 201.071256 
L 583.170047 202.412724 
L 583.374667 202.796637 
L 583.579286 202.336024 
L 584.397765 198.74736 
L 584.807005 197.910141 
L 585.216244 197.434292 
L 585.625484 196.63843 
L 585.830103 196.504879 
L 586.239343 196.841684 
L 586.443963 196.640762 
L 587.262441 194.518979 
L 587.876301 194.621176 
L 588.899399 193.930309 
L 589.104019 193.891855 
L 589.513258 193.267271 
L 589.717878 192.970475 
L 589.922498 193.040541 
L 590.536357 194.479541 
L 591.150216 196.811781 
L 591.764075 199.132154 
L 591.968695 199.338258 
L 592.173315 199.159206 
L 592.991794 197.730208 
L 593.196414 197.704451 
L 593.401033 198.081835 
L 594.014892 199.934598 
L 594.219512 199.799182 
L 594.424132 198.98772 
L 595.447231 192.781161 
L 595.65185 192.740427 
L 595.85647 193.013281 
L 596.06109 193.716742 
L 596.470329 196.739746 
L 596.879569 200.18921 
L 597.288808 201.985693 
L 597.698048 202.847113 
L 597.902667 202.911945 
L 598.107287 202.5129 
L 598.311907 201.456361 
L 598.721146 197.37086 
L 599.130386 192.898491 
L 599.335005 191.735247 
L 599.539625 191.400567 
L 600.358104 191.810962 
L 600.767343 192.614184 
L 601.585822 195.266853 
L 601.790442 195.142268 
L 602.404301 193.449899 
L 602.813541 193.186167 
L 603.01816 193.329978 
L 603.4274 194.484101 
L 604.041259 197.326084 
L 604.245879 197.215906 
L 604.450498 195.948599 
L 604.859738 192.068632 
L 605.064358 191.062466 
L 605.268977 191.134554 
L 605.882837 193.105684 
L 606.701315 194.179116 
L 606.905935 193.932226 
L 607.519794 192.122529 
L 607.724414 192.080603 
L 608.133654 192.415128 
L 608.338273 192.058837 
L 608.952132 189.963692 
L 609.156752 190.230482 
L 609.565992 192.471305 
L 610.58909 199.171903 
L 610.79371 199.480205 
L 610.99833 198.815819 
L 612.021428 192.476384 
L 612.226048 192.791578 
L 612.635288 193.68202 
L 612.839907 193.370298 
L 613.453766 191.411191 
L 614.067626 190.845323 
L 614.476865 190.534016 
L 614.681485 190.539509 
L 614.886105 190.401761 
L 615.090724 189.932494 
L 615.499964 188.011685 
L 616.113823 184.58124 
L 616.318443 184.040248 
L 616.523062 183.902603 
L 616.727682 184.153225 
L 617.136922 185.68188 
L 617.750781 188.563663 
L 618.56926 191.745923 
L 620.206217 200.873237 
L 620.820077 202.293632 
L 621.638556 205.364055 
L 621.843175 205.531239 
L 622.252415 205.362759 
L 622.457034 205.126856 
L 622.661654 204.616388 
L 623.070894 202.259687 
L 623.480133 199.955846 
L 623.889373 198.765395 
L 624.707851 197.074374 
L 625.117091 195.882627 
L 625.321711 195.775144 
L 625.52633 196.294058 
L 625.93557 197.811883 
L 626.344809 198.250626 
L 626.549429 198.49736 
L 626.754049 199.086549 
L 627.367908 202.12624 
L 627.572528 202.429255 
L 627.777147 201.973618 
L 628.186387 199.072763 
L 628.800246 193.836766 
L 629.004866 193.269603 
L 629.209485 193.53002 
L 629.618725 195.506902 
L 630.232584 198.97834 
L 631.051063 202.218953 
L 631.255683 202.229214 
L 631.460302 201.620903 
L 632.074162 198.963518 
L 632.483401 198.359871 
L 632.688021 198.256482 
L 633.30188 198.359767 
L 633.5065 198.009903 
L 634.120359 196.434657 
L 634.324979 196.491767 
L 634.734218 197.124695 
L 635.143458 197.788147 
L 635.348077 197.442325 
L 636.166556 193.39367 
L 636.371176 193.804169 
L 636.780415 195.175694 
L 636.985035 195.299709 
L 637.394275 194.682691 
L 637.598894 194.648073 
L 637.803514 195.00768 
L 638.417373 196.612414 
L 638.621993 196.786025 
L 638.826613 196.690616 
L 639.235852 196.254102 
L 639.645092 196.046443 
L 639.849711 195.649988 
L 640.258951 193.660772 
L 640.66819 191.30122 
L 640.87281 190.653471 
L 641.07743 190.464313 
L 641.486669 190.786451 
L 642.100528 191.682075 
L 642.509768 191.690575 
L 642.714387 191.581951 
L 643.123627 191.004113 
L 643.532866 190.030182 
L 644.146725 187.250803 
L 644.351345 187.390469 
L 644.760585 189.539252 
L 645.579064 194.815724 
L 645.783683 195.328886 
L 645.988303 195.23125 
L 646.806782 193.056969 
L 647.011402 193.149631 
L 647.625261 194.179324 
L 647.829881 193.980267 
L 648.23912 192.939639 
L 649.057599 190.375901 
L 649.262219 190.319568 
L 649.671458 190.756756 
L 650.080698 191.187829 
L 650.489937 191.326666 
L 650.694557 191.263699 
L 650.899176 190.845997 
L 651.308416 189.371135 
L 651.513036 189.186952 
L 651.922275 190.24831 
L 652.126895 190.730689 
L 652.331515 190.831746 
L 652.740754 190.153005 
L 653.354613 189.041741 
L 654.582332 184.897211 
L 655.40081 183.908718 
L 656.01467 183.048542 
L 656.219289 183.38799 
L 656.833149 185.943903 
L 657.242388 187.594967 
L 657.651627 188.315167 
L 658.060867 188.979241 
L 658.470106 190.397045 
L 659.083966 192.851694 
L 659.493205 193.631025 
L 659.697825 193.803962 
L 659.902444 193.704356 
L 660.720923 192.564122 
L 661.334783 192.098223 
L 661.539402 191.768155 
L 661.948642 190.473485 
L 662.562501 187.834809 
L 662.767121 187.510908 
L 662.97174 187.639899 
L 663.38098 188.536611 
L 663.790219 190.082732 
L 664.199459 191.389425 
L 664.404078 191.087964 
L 664.813318 188.379843 
L 665.222557 185.313514 
L 665.631797 183.715 
L 666.041036 182.46153 
L 666.450276 180.511182 
L 666.654895 180.205264 
L 666.859515 180.410228 
L 667.268755 181.527763 
L 668.291853 186.017752 
L 668.496473 186.201313 
L 668.701093 185.688669 
L 669.519572 181.145301 
L 669.724191 180.995167 
L 669.928811 181.452307 
L 670.54267 183.782216 
L 670.74729 184.080101 
L 670.95191 183.952872 
L 671.565769 183.01382 
L 671.975008 182.97319 
L 672.179628 182.812483 
L 672.384248 182.390065 
L 673.202727 179.271756 
L 673.611966 176.650337 
L 674.021206 173.96134 
L 674.225825 173.450717 
L 674.430445 173.451028 
L 674.635065 173.810946 
L 675.044304 175.644276 
L 675.453544 177.44563 
L 675.658163 177.49336 
L 676.476642 175.550371 
L 676.681262 175.868726 
L 677.295121 178.201796 
L 677.499741 178.391213 
L 677.704361 178.052231 
L 678.31822 175.962217 
L 678.727459 173.945223 
L 679.136699 170.613347 
L 681.387516 146.498087 
L 681.592135 145.939785 
L 681.796755 146.740261 
L 682.615234 155.083735 
L 683.638333 166.400462 
L 684.252192 169.640868 
L 684.456812 170.298516 
L 684.661431 170.488036 
L 684.866051 170.170717 
L 685.070671 169.378379 
L 685.47991 166.545673 
L 685.88915 163.466802 
L 686.093769 162.558326 
L 686.298389 162.270598 
L 686.503009 162.685606 
L 687.526108 167.881335 
L 687.730727 167.850863 
L 687.935347 167.140873 
L 688.139967 165.660621 
L 688.549206 160.350308 
L 689.163065 147.756065 
L 689.776925 128.298548 
L 690.390784 107.481892 
L 690.595403 103.29497 
L 690.800023 101.58607 
L 691.004643 102.535125 
L 691.413882 110.796925 
L 692.436981 136.839679 
L 693.05084 146.610752 
L 693.46008 150.695373 
L 693.869319 152.737346 
L 694.483178 154.519526 
L 694.687798 154.842027 
L 694.892418 154.810984 
L 695.301657 153.961535 
L 695.915516 152.508025 
L 696.324756 152.202573 
L 696.529376 152.156087 
L 696.733995 152.237969 
L 696.938615 152.624214 
L 697.347854 153.888671 
L 697.552474 153.881726 
L 697.757094 152.950033 
L 698.166333 148.301773 
L 698.575573 140.398959 
L 699.394052 118.072978 
L 700.007911 101.748487 
L 700.212531 98.81716 
L 700.41715 98.632252 
L 700.62177 101.482578 
L 701.235629 120.129721 
L 701.849488 136.467686 
L 702.463348 146.346242 
L 703.486446 159.832792 
L 704.100305 165.369784 
L 704.304925 166.097602 
L 704.509545 166.275669 
L 704.918784 166.182697 
L 705.123404 166.314071 
L 705.328024 166.822724 
L 705.737263 169.238453 
L 706.146503 171.739537 
L 706.351122 172.252336 
L 706.555742 172.199579 
L 706.760362 171.657085 
L 707.578841 167.659684 
L 707.98808 165.251936 
L 708.601939 159.534752 
L 709.420418 152.582807 
L 709.829658 150.143705 
L 710.034278 149.457036 
L 710.238897 149.235591 
L 710.443517 149.66682 
L 710.852756 152.307776 
L 711.875855 160.07165 
L 712.489714 164.34263 
L 712.694334 165.027434 
L 713.512813 165.999395 
L 714.535912 168.994673 
L 714.740531 169.341013 
L 715.149771 169.509494 
L 715.76363 170.796131 
L 715.96825 170.672686 
L 716.377489 169.78214 
L 716.582109 169.719485 
L 716.786729 170.165431 
L 717.195968 171.551933 
L 717.400588 171.799705 
L 717.605207 171.651539 
L 718.628306 169.860446 
L 719.446785 166.356411 
L 719.651405 165.997529 
L 719.856024 166.078271 
L 720.060644 166.724621 
L 720.469884 169.715287 
L 720.879123 172.758243 
L 721.083743 173.09199 
L 721.288362 172.562763 
L 721.902222 169.654808 
L 722.106841 169.702538 
L 722.516081 171.271461 
L 723.12994 173.450769 
L 723.33456 173.751815 
L 723.539179 173.743471 
L 723.743799 173.248447 
L 724.357658 170.179631 
L 724.562278 169.785871 
L 724.766898 169.820283 
L 725.585377 170.916 
L 726.199236 172.708699 
L 726.403856 172.363188 
L 726.813095 169.675486 
L 727.426954 165.504423 
L 727.631574 165.132792 
L 727.836194 165.443115 
L 728.245433 167.348428 
L 728.654673 169.339148 
L 728.859292 169.746641 
L 729.063912 169.656 
L 729.677771 168.488973 
L 729.882391 168.538206 
L 730.29163 169.084588 
L 731.314729 170.917658 
L 731.519349 170.928541 
L 731.928588 171.330126 
L 732.133208 171.304992 
L 732.337828 170.943207 
L 732.747067 169.473631 
L 733.156307 166.763023 
L 733.770166 162.313353 
L 733.974786 161.310557 
L 734.179405 160.885081 
L 734.384025 161.069834 
L 734.588645 161.416589 
L 734.793264 161.223907 
L 734.997884 160.027392 
L 735.407124 155.041083 
L 736.020983 147.793482 
L 736.225603 146.998241 
L 736.430222 147.137907 
L 736.634842 148.060946 
L 737.044081 151.677958 
L 737.657941 157.346997 
L 738.06718 159.193957 
L 738.47642 160.014902 
L 738.681039 160.160787 
L 738.885659 160.081963 
L 739.090279 159.708933 
L 739.908758 157.200283 
L 740.522617 156.689246 
L 741.545715 154.464126 
L 742.568814 150.919305 
L 742.773434 150.390129 
L 742.978054 149.480201 
L 743.387293 145.923461 
L 744.001152 137.635698 
L 744.615011 127.281396 
L 745.43349 112.451979 
L 745.84273 108.955148 
L 746.047349 108.611502 
L 746.251969 109.228053 
L 746.661209 112.957575 
L 747.275068 122.222223 
L 747.888927 131.548801 
L 748.298166 135.123058 
L 749.525885 141.061116 
L 749.730505 140.992086 
L 750.139744 140.507427 
L 750.344364 140.674145 
L 750.753603 142.011777 
L 751.162843 143.558934 
L 751.367462 143.92134 
L 751.572082 143.700207 
L 751.776702 142.709951 
L 752.185941 138.583353 
L 752.7998 131.848707 
L 753.822899 124.259636 
L 754.232139 117.666936 
L 755.050617 101.675156 
L 755.255237 100.085296 
L 755.459857 100.356233 
L 755.869096 104.792946 
L 757.096815 120.537784 
L 757.506054 123.385571 
L 757.915294 124.412103 
L 758.119913 124.476935 
L 758.529153 124.248546 
L 758.733772 124.324157 
L 758.938392 124.888729 
L 759.347632 127.978638 
L 759.961491 133.514489 
L 760.37073 135.107303 
L 760.57535 135.040605 
L 761.189209 133.538017 
L 761.393829 133.624563 
L 761.598449 133.88954 
L 761.803068 133.972251 
L 762.007688 133.568542 
L 763.849266 125.637017 
L 764.258505 124.301614 
L 764.463125 124.029589 
L 764.667745 124.463927 
L 765.076984 127.597575 
L 765.895463 135.477794 
L 766.100083 136.207373 
L 766.304702 136.382746 
L 766.509322 136.12461 
L 766.918562 134.461419 
L 767.327801 132.857204 
L 767.532421 132.737231 
L 767.94166 133.232514 
L 768.14628 133.247232 
L 768.3509 132.850881 
L 768.760139 131.533823 
L 768.964759 131.295277 
L 769.169379 131.482621 
L 769.578618 132.127728 
L 769.783238 132.151411 
L 769.987857 131.915093 
L 771.010956 129.862755 
L 771.215576 129.914009 
L 771.420196 130.424425 
L 772.238674 134.132025 
L 772.443294 134.269981 
L 773.261773 133.383426 
L 773.671013 133.103006 
L 774.898731 131.674215 
L 775.51259 130.950439 
L 775.92183 129.58617 
L 776.331069 128.265432 
L 776.535689 127.900642 
L 776.740308 127.783365 
L 777.149548 127.806996 
L 777.558787 127.506624 
L 777.968027 126.983148 
L 778.581886 125.595662 
L 779.195745 125.602865 
L 779.400365 125.649144 
L 779.604985 126.057829 
L 780.218844 128.0486 
L 780.628083 128.986928 
L 781.037323 130.657581 
L 781.651182 133.380005 
L 781.855802 133.5773 
L 782.060421 133.18836 
L 782.469661 131.853993 
L 782.674281 131.528071 
L 782.8789 131.496406 
L 783.28814 131.886642 
L 783.492759 132.331396 
L 783.901999 133.963545 
L 784.925098 138.4412 
L 785.948196 141.085732 
L 786.152816 140.980477 
L 786.562055 139.347707 
L 786.766675 138.537126 
L 786.971295 138.340765 
L 787.175915 138.79749 
L 787.789774 141.150098 
L 787.994393 141.467209 
L 788.199013 141.517427 
L 788.608253 141.241515 
L 788.812872 140.871077 
L 789.222112 139.258155 
L 789.631351 137.482661 
L 789.835971 137.222038 
L 790.040591 137.418866 
L 790.44983 138.663318 
L 790.85907 141.026083 
L 791.882168 147.712584 
L 792.291408 149.178585 
L 792.496027 149.397334 
L 792.700647 149.169982 
L 793.109887 147.616399 
L 793.519126 145.963832 
L 793.723746 145.735961 
L 793.928366 146.017418 
L 794.337605 147.58178 
L 794.951464 150.426561 
L 795.156084 150.831722 
L 795.769943 151.114734 
L 795.974563 151.787618 
L 796.383802 155.235787 
L 796.997661 161.401871 
L 797.406901 163.568637 
L 798.02076 165.630563 
L 798.634619 167.03966 
L 799.043859 167.56241 
L 799.248478 167.675646 
L 799.453098 167.53769 
L 799.862338 166.430882 
L 800.271577 164.771785 
L 800.476197 164.455399 
L 800.680816 164.749812 
L 801.090056 165.682231 
L 801.294676 165.611388 
L 801.703915 165.185031 
L 801.908535 165.2978 
L 802.727014 166.532458 
L 803.545493 165.246701 
L 803.750112 165.55604 
L 804.159352 167.153777 
L 804.977831 171.459168 
L 805.18245 171.897911 
L 805.38707 171.899155 
L 805.79631 171.014984 
L 807.024028 167.995608 
L 807.228648 168.064948 
L 807.637887 169.231768 
L 808.251746 171.69388 
L 808.865606 173.745492 
L 809.479465 175.848307 
L 809.888704 176.639454 
L 810.093324 176.868206 
L 810.297944 176.881369 
L 810.502563 176.525804 
L 810.911803 175.283995 
L 811.116423 175.050527 
L 811.321042 175.286534 
L 811.730282 176.625669 
L 812.958 181.126437 
L 813.16262 181.399084 
L 813.36724 181.235475 
L 813.571859 180.616436 
L 813.981099 178.330786 
L 814.390338 176.196721 
L 814.594958 176.003728 
L 815.208817 176.808764 
L 815.618057 176.837267 
L 815.822676 177.16179 
L 816.436535 179.304302 
L 816.641155 179.392351 
L 816.845775 179.089284 
L 817.255014 177.648729 
L 817.868874 174.86282 
L 818.278113 174.114325 
L 818.687352 172.44875 
L 819.915071 165.674665 
L 820.119691 165.558838 
L 820.73355 165.96488 
L 820.938169 165.421919 
L 821.347409 162.249869 
L 821.961268 155.593684 
L 822.779747 148.711546 
L 823.393606 143.424865 
L 824.416705 138.186691 
L 824.825944 134.970746 
L 825.644423 126.522899 
L 826.053663 124.739165 
L 826.462902 123.802858 
L 826.872142 121.839968 
L 827.486001 116.897918 
L 828.09986 109.288273 
L 828.918339 95.866866 
L 829.736818 79.487752 
L 831.987635 34.691408 
L 832.806114 22.663395 
L 833.972208 -1 
M 988.480077 -1 
L 988.726345 -0.406521 
L 988.930965 -0.287378 
L 989.340205 -0.312772 
L 989.544824 -0.075573 
L 990.363303 1.760711 
L 990.772543 1.069066 
L 990.977162 0.779681 
L 991.181782 0.890947 
L 991.591022 2.152346 
L 992.61412 5.794596 
L 993.227979 6.495413 
L 993.432599 7.334757 
L 993.841839 10.419276 
L 994.660317 17.169729 
L 995.478796 19.970096 
L 996.501895 25.477548 
L 996.706515 25.872344 
L 997.115754 26.180024 
L 997.524994 26.939817 
L 997.729613 27.332229 
L 997.934233 27.423698 
L 998.138853 27.141983 
L 998.752712 25.889135 
L 998.957332 25.953086 
L 999.161951 26.152971 
L 999.366571 26.188626 
L 999.571191 25.887943 
L 999.98043 24.402871 
L 1000.38967 21.709728 
L 1001.208149 14.118999 
L 1001.412768 13.464771 
L 1001.822008 13.002759 
L 1002.026628 12.424661 
L 1002.845107 8.460687 
L 1003.049726 9.485094 
L 1003.458966 15.042142 
L 1004.277445 29.08207 
L 1004.891304 35.440422 
L 1006.528262 50.445626 
L 1006.732881 51.079279 
L 1006.937501 51.115919 
L 1007.142121 50.696247 
L 1007.9606 47.585194 
L 1008.165219 47.591309 
L 1008.779079 49.168628 
L 1008.983698 49.14966 
L 1010.006797 47.62484 
L 1010.416036 47.525285 
L 1011.029896 47.462267 
L 1011.439135 46.896089 
L 1011.848375 46.224967 
L 1012.052994 46.171951 
L 1012.257614 46.529382 
L 1012.462234 47.538604 
L 1012.871473 51.449666 
L 1013.485332 57.089995 
L 1013.689952 57.898243 
L 1013.894572 58.06123 
L 1014.303811 57.80553 
L 1014.508431 58.113365 
L 1014.91767 59.126941 
L 1015.736149 60.261578 
L 1015.940769 61.126678 
L 1016.350009 64.809818 
L 1016.963868 71.449004 
L 1017.168487 72.368675 
L 1017.373107 72.38531 
L 1017.782347 70.561205 
L 1017.986966 69.716472 
L 1018.191586 69.527418 
L 1018.396206 70.015705 
L 1018.805445 72.184803 
L 1019.623924 76.767401 
L 1020.033164 78.505116 
L 1020.237783 78.718009 
L 1020.442403 78.353789 
L 1020.851643 77.272272 
L 1021.056262 77.52678 
L 1021.260882 78.706608 
L 1022.283981 87.941923 
L 1022.4886 88.5166 
L 1022.89784 88.737941 
L 1023.511699 88.887039 
L 1023.716319 89.221512 
L 1024.534798 91.541833 
L 1024.739417 91.32329 
L 1024.944037 90.459331 
L 1025.557896 86.355742 
L 1025.762516 85.958459 
L 1025.967136 86.119165 
L 1026.376375 86.886732 
L 1026.580995 87.012095 
L 1026.990234 86.946174 
L 1027.194854 87.06309 
L 1027.399474 87.50971 
L 1027.808713 89.82547 
L 1028.217953 92.50913 
L 1028.627192 93.838574 
L 1029.650291 96.335511 
L 1029.85491 95.921384 
L 1030.26415 93.988293 
L 1031.082629 89.499807 
L 1031.287249 88.95638 
L 1031.491868 89.120921 
L 1031.696488 90.062151 
L 1032.719587 97.465898 
L 1034.356544 105.117624 
L 1034.561164 105.151621 
L 1034.765784 104.592387 
L 1035.379643 102.279529 
L 1035.584263 102.180493 
L 1035.788883 102.243356 
L 1035.993502 102.549222 
L 1036.198122 103.416446 
L 1037.016601 108.843 
L 1037.42584 109.665915 
L 1038.0397 110.069988 
L 1038.653559 111.493078 
L 1038.858178 111.449027 
L 1039.267418 110.130467 
L 1039.676657 109.015264 
L 1039.881277 109.170373 
L 1040.290517 111.11186 
L 1040.699756 113.314229 
L 1040.904376 113.8319 
L 1041.108995 113.891757 
L 1041.518235 113.413006 
L 1041.722855 113.446432 
L 1042.132094 114.432438 
L 1042.745953 116.248976 
L 1043.155193 116.475448 
L 1043.769052 116.669892 
L 1044.178291 115.820754 
L 1044.382911 115.395485 
L 1044.587531 115.320547 
L 1044.792151 115.612473 
L 1045.20139 117.015973 
L 1046.633728 123.451906 
L 1047.042968 123.754714 
L 1047.247587 123.72761 
L 1047.452207 123.453357 
L 1049.703024 117.773797 
L 1049.907644 117.881125 
L 1050.316883 118.525713 
L 1050.726123 120.028612 
L 1052.158461 126.839233 
L 1052.77232 128.066117 
L 1052.97694 128.156498 
L 1053.590799 127.736826 
L 1053.795419 128.052902 
L 1054.409278 129.584615 
L 1055.023137 130.203654 
L 1055.636996 131.269572 
L 1055.841616 131.239618 
L 1056.455475 130.157012 
L 1056.660095 130.195051 
L 1056.864714 130.515946 
L 1057.683193 132.545793 
L 1057.887813 132.614874 
L 1058.092433 132.339688 
L 1058.501672 131.462721 
L 1059.115531 131.087255 
L 1059.729391 129.971482 
L 1059.93401 130.021492 
L 1060.54787 130.645869 
L 1060.752489 130.59249 
L 1060.957109 130.346481 
L 1061.366348 129.295126 
L 1062.389447 125.266475 
L 1063.617165 123.263784 
L 1064.231025 123.244091 
L 1064.435644 123.045864 
L 1064.640264 123.116915 
L 1064.844884 123.795499 
L 1065.254123 126.804407 
L 1065.663363 129.893953 
L 1065.867982 130.749051 
L 1066.686461 132.268171 
L 1067.095701 133.655865 
L 1067.70956 134.519307 
L 1068.118799 136.204989 
L 1068.528039 137.770026 
L 1068.937278 139.102683 
L 1069.346518 140.830291 
L 1069.551137 141.200523 
L 1069.755757 141.008825 
L 1070.164997 139.40518 
L 1071.188095 133.337199 
L 1071.801954 131.69992 
L 1072.620433 127.467134 
L 1072.825053 127.506261 
L 1073.643532 129.837465 
L 1074.257391 129.433237 
L 1074.462011 129.899136 
L 1075.689729 135.282158 
L 1076.303588 136.413581 
L 1076.508208 136.464265 
L 1076.917448 136.350512 
L 1077.326687 136.768007 
L 1077.735927 137.573923 
L 1078.145166 138.43695 
L 1078.759025 139.386731 
L 1079.168265 140.193632 
L 1080.191363 141.097444 
L 1080.805222 141.011054 
L 1081.009842 141.261001 
L 1081.419082 142.848633 
L 1081.828321 144.662891 
L 1082.032941 144.803283 
L 1082.6468 143.079717 
L 1082.85142 143.192693 
L 1083.465279 144.693882 
L 1083.669899 144.599562 
L 1084.079138 144.194816 
L 1084.283758 144.357906 
L 1084.692997 145.520321 
L 1086.329955 152.284715 
L 1086.534575 152.346852 
L 1086.739195 151.93713 
L 1087.353054 150.040679 
L 1087.966913 148.666925 
L 1088.376152 147.938227 
L 1088.580772 147.900654 
L 1088.785392 148.073695 
L 1088.990012 148.499689 
L 1089.399251 150.312082 
L 1090.21773 155.856588 
L 1090.42235 156.293931 
L 1090.626969 156.184375 
L 1091.036209 155.388771 
L 1091.240829 155.431423 
L 1091.650068 156.505477 
L 1091.854688 157.042479 
L 1092.059307 157.163592 
L 1092.263927 156.696605 
L 1092.877786 154.324926 
L 1093.287026 153.494652 
L 1093.491646 153.400643 
L 1093.900885 153.793159 
L 1094.514744 154.611462 
L 1094.719364 154.571091 
L 1095.128603 153.936453 
L 1095.537843 152.559538 
L 1095.947082 150.681536 
L 1096.151702 150.173452 
L 1096.560941 149.916767 
L 1097.174801 149.855045 
L 1097.37942 150.049593 
L 1098.197899 151.996054 
L 1098.607139 152.56187 
L 1099.016378 153.426348 
L 1099.220998 153.160438 
L 1099.630237 150.760775 
L 1100.244097 147.092094 
L 1100.448716 146.447817 
L 1100.653336 146.261613 
L 1100.857956 146.325823 
L 1101.062575 146.263064 
L 1101.881054 145.00265 
L 1102.085674 145.306961 
L 1102.494914 146.607643 
L 1103.108773 148.656664 
L 1103.518012 149.822344 
L 1104.336491 153.060211 
L 1104.541111 152.941482 
L 1104.74573 152.287306 
L 1105.15497 149.078927 
L 1105.564209 145.559085 
L 1105.973449 143.808778 
L 1106.382688 143.125581 
L 1107.201167 142.334123 
L 1107.405787 142.609879 
L 1108.428886 145.401022 
L 1108.633505 145.117751 
L 1109.042745 143.844744 
L 1109.656604 141.013127 
L 1110.270463 137.629582 
L 1110.679703 136.737327 
L 1111.088942 135.835898 
L 1112.112041 132.619383 
L 1112.52128 128.964488 
L 1113.339759 120.620755 
L 1113.953618 115.185597 
L 1114.362858 108.826572 
L 1115.795196 79.905818 
L 1116.613675 69.055352 
L 1118.864492 26.423286 
L 1119.478351 5.999457 
L 1119.644783 -1 
M 1127.797034 -1 
L 1128.686239 38.973737 
L 1129.504717 65.167197 
L 1130.118577 79.710855 
L 1130.937056 92.988917 
L 1132.369394 113.040183 
L 1132.778633 116.692124 
L 1133.187873 119.608941 
L 1133.597112 124.676095 
L 1134.210971 132.455101 
L 1135.43869 139.740741 
L 1135.847929 140.922797 
L 1136.257168 141.618225 
L 1136.666408 142.473063 
L 1136.871028 142.675281 
L 1137.280267 142.573291 
L 1137.689507 142.546757 
L 1137.894126 142.672275 
L 1138.098746 142.982754 
L 1139.326464 145.997051 
L 1139.531084 146.180871 
L 1139.735704 146.133504 
L 1139.940324 145.942532 
L 1140.554183 144.63558 
L 1140.758802 144.685124 
L 1140.963422 145.308516 
L 1141.986521 150.752328 
L 1142.60038 152.091825 
L 1142.805 152.138415 
L 1143.009619 151.979522 
L 1143.828098 150.837164 
L 1144.441957 151.948376 
L 1144.851197 151.625564 
L 1145.055817 151.960918 
L 1145.465056 153.97133 
L 1145.874296 157.171417 
L 1146.488155 163.180371 
L 1146.897394 164.8475 
L 1147.102014 165.006238 
L 1147.306634 164.818168 
L 1147.511253 164.240744 
L 1147.920493 161.962971 
L 1148.534352 158.028743 
L 1148.943591 157.078756 
L 1149.352831 156.775792 
L 1149.557451 156.837152 
L 1150.37593 158.077562 
L 1150.580549 157.948312 
L 1150.785169 157.612855 
L 1151.194408 156.113324 
L 1151.399028 155.322333 
L 1151.603648 155.018955 
L 1151.808268 155.42821 
L 1152.217507 158.22951 
L 1152.626747 160.871969 
L 1152.831366 160.987744 
L 1153.240606 160.18359 
L 1153.445225 160.140265 
L 1154.263704 161.150265 
L 1154.468324 160.975151 
L 1154.877564 160.360569 
L 1155.082183 160.474375 
L 1155.491423 160.90892 
L 1155.696042 160.570405 
L 1156.309902 158.006563 
L 1156.514521 158.143586 
L 1156.719141 159.284079 
L 1157.74224 168.783075 
L 1157.946859 169.264158 
L 1158.765338 169.52219 
L 1158.969958 169.300539 
L 1159.583817 167.801215 
L 1159.788437 167.810699 
L 1160.811536 169.94124 
L 1161.220775 171.344585 
L 1161.425395 172.066029 
L 1161.630015 172.313489 
L 1161.834634 172.049186 
L 1162.653113 169.831373 
L 1162.857733 169.738297 
L 1163.266972 170.018614 
L 1163.471592 170.198029 
L 1163.676212 170.224977 
L 1164.085451 169.940255 
L 1164.494691 169.355835 
L 1164.90393 168.593762 
L 1165.10855 168.500685 
L 1165.31317 168.749286 
L 1166.131649 170.913875 
L 1166.745508 171.080904 
L 1167.154747 171.527006 
L 1167.359367 171.311573 
L 1167.768606 170.578055 
L 1168.382466 170.319763 
L 1168.587085 170.414964 
L 1168.996325 171.362983 
L 1169.610184 173.248914 
L 1169.814804 173.355464 
L 1170.019423 172.849039 
L 1170.428663 170.9231 
L 1170.633283 170.575308 
L 1170.837902 171.011667 
L 1171.451761 173.568461 
L 1171.656381 174.045658 
L 1171.861001 174.185997 
L 1172.065621 173.941284 
L 1172.67948 172.461861 
L 1172.8841 172.531098 
L 1173.293339 173.894487 
L 1173.702578 175.481237 
L 1173.907198 175.972996 
L 1174.111818 176.072602 
L 1174.316438 175.614892 
L 1174.725677 173.121271 
L 1175.339536 168.920409 
L 1175.748776 167.373356 
L 1175.953395 167.033856 
L 1176.158015 167.021055 
L 1176.567255 167.730735 
L 1176.976494 168.799503 
L 1178.613452 174.718438 
L 1179.022691 176.518963 
L 1179.227311 176.817522 
L 1179.431931 176.594782 
L 1180.25041 174.475176 
L 1180.455029 174.713411 
L 1180.864269 176.064725 
L 1181.478128 178.929043 
L 1182.091987 180.326273 
L 1182.705846 181.367212 
L 1183.115086 182.568081 
L 1183.319706 182.576424 
L 1183.728945 181.155874 
L 1184.342804 178.077314 
L 1184.752044 174.634535 
L 1184.752044 174.634535 
" clip-path="url(#pdc2902ab8e)" style="fill: none; stroke: #000000; stroke-width: 2; stroke-linecap: square"/>
   </g>
   <g id="patch_3">
    <path d="M 3.00024 198.907885 
L 1184.99976 198.907885 
" style="fill: none; stroke: #000000; stroke-width: 2; stroke-linejoin: miter; stroke-linecap: square"/>
   </g>
  </g>
 </g>
 <defs>
  <clipPath id="pdc2902ab8e">
   <rect x="3.00024" y="3.00024" width="1181.99952" height="195.907645"/>
  </clipPath>
 </defs>
</svg>
