<?xml version="1.0" encoding="utf-8" standalone="no"?>
<!DOCTYPE svg PUBLIC "-//W3C//DTD SVG 1.1//EN"
  "http://www.w3.org/Graphics/SVG/1.1/DTD/svg11.dtd">
<svg xmlns:xlink="http://www.w3.org/1999/xlink" width="1188pt" height="252pt" viewBox="0 0 1188 252" xmlns="http://www.w3.org/2000/svg" version="1.1">
 <metadata>
  <rdf:RDF xmlns:dc="http://purl.org/dc/elements/1.1/" xmlns:cc="http://creativecommons.org/ns#" xmlns:rdf="http://www.w3.org/1999/02/22-rdf-syntax-ns#">
   <cc:Work>
    <dc:type rdf:resource="http://purl.org/dc/dcmitype/StillImage"/>
    <dc:date>2024-07-23T21:42:54.562142</dc:date>
    <dc:format>image/svg+xml</dc:format>
    <dc:creator>
     <cc:Agent>
      <dc:title>Matplotlib v3.8.4, https://matplotlib.org/</dc:title>
     </cc:Agent>
    </dc:creator>
   </cc:Work>
  </rdf:RDF>
 </metadata>
 <defs>
  <style type="text/css">*{stroke-linejoin: round; stroke-linecap: butt}</style>
 </defs>
 <g id="figure_1">
  <g id="patch_1">
   <path d="M 0 252 
L 1188 252 
L 1188 0 
L 0 0 
z
" style="fill: #ffffff"/>
  </g>
  <g id="axes_1">
   <g id="patch_2">
    <path d="M 3.00024 198.907885 
L 1184.99976 198.907885 
L 1184.99976 3.00024 
L 3.00024 3.00024 
z
" style="fill: #ffffff"/>
   </g>
   <g id="matplotlib.axis_1">
    <g id="xtick_1">
     <g id="line2d_1">
      <defs>
       <path id="m416dd0c326" d="M 0 0 
L 0 8 
" style="stroke: #000000; stroke-width: 2"/>
      </defs>
      <g>
       <use xlink:href="#m416dd0c326" x="1131.272509" y="198.907885" style="stroke: #000000; stroke-width: 2"/>
      </g>
     </g>
     <g id="text_1">
      <!-- 0 -->
      <g transform="translate(1126.267665 224.791947) scale(0.18 -0.18)">
       <defs>
        <path id="Arial-BoldMT-30" d="M 1756 4600 
Q 2422 4600 2797 4125 
Q 3244 3563 3244 2259 
Q 3244 959 2794 391 
Q 2422 -78 1756 -78 
Q 1088 -78 678 436 
Q 269 950 269 2269 
Q 269 3563 719 4131 
Q 1091 4600 1756 4600 
z
M 1756 3872 
Q 1597 3872 1472 3770 
Q 1347 3669 1278 3406 
Q 1188 3066 1188 2259 
Q 1188 1453 1269 1151 
Q 1350 850 1473 750 
Q 1597 650 1756 650 
Q 1916 650 2041 751 
Q 2166 853 2234 1116 
Q 2325 1453 2325 2259 
Q 2325 3066 2244 3367 
Q 2163 3669 2039 3770 
Q 1916 3872 1756 3872 
z
" transform="scale(0.015625)"/>
       </defs>
       <use xlink:href="#Arial-BoldMT-30"/>
      </g>
     </g>
    </g>
    <g id="xtick_2">
     <g id="line2d_2">
      <g>
       <use xlink:href="#m416dd0c326" x="1023.818007" y="198.907885" style="stroke: #000000; stroke-width: 2"/>
      </g>
     </g>
     <g id="text_2">
      <!-- 1 -->
      <g transform="translate(1018.813164 224.791947) scale(0.18 -0.18)">
       <defs>
        <path id="Arial-BoldMT-31" d="M 2519 0 
L 1641 0 
L 1641 3309 
Q 1159 2859 506 2644 
L 506 3441 
Q 850 3553 1253 3867 
Q 1656 4181 1806 4600 
L 2519 4600 
L 2519 0 
z
" transform="scale(0.015625)"/>
       </defs>
       <use xlink:href="#Arial-BoldMT-31"/>
      </g>
     </g>
    </g>
    <g id="xtick_3">
     <g id="line2d_3">
      <g>
       <use xlink:href="#m416dd0c326" x="916.363505" y="198.907885" style="stroke: #000000; stroke-width: 2"/>
      </g>
     </g>
     <g id="text_3">
      <!-- 2 -->
      <g transform="translate(911.358662 224.791947) scale(0.18 -0.18)">
       <defs>
        <path id="Arial-BoldMT-32" d="M 3238 816 
L 3238 0 
L 159 0 
Q 209 463 459 877 
Q 709 1291 1447 1975 
Q 2041 2528 2175 2725 
Q 2356 2997 2356 3263 
Q 2356 3556 2198 3714 
Q 2041 3872 1763 3872 
Q 1488 3872 1325 3706 
Q 1163 3541 1138 3156 
L 263 3244 
Q 341 3969 753 4284 
Q 1166 4600 1784 4600 
Q 2463 4600 2850 4234 
Q 3238 3869 3238 3325 
Q 3238 3016 3127 2736 
Q 3016 2456 2775 2150 
Q 2616 1947 2200 1565 
Q 1784 1184 1673 1059 
Q 1563 934 1494 816 
L 3238 816 
z
" transform="scale(0.015625)"/>
       </defs>
       <use xlink:href="#Arial-BoldMT-32"/>
      </g>
     </g>
    </g>
    <g id="xtick_4">
     <g id="line2d_4">
      <g>
       <use xlink:href="#m416dd0c326" x="808.909004" y="198.907885" style="stroke: #000000; stroke-width: 2"/>
      </g>
     </g>
     <g id="text_4">
      <!-- 3 -->
      <g transform="translate(803.90416 224.791947) scale(0.18 -0.18)">
       <defs>
        <path id="Arial-BoldMT-33" d="M 241 1216 
L 1091 1319 
Q 1131 994 1309 822 
Q 1488 650 1741 650 
Q 2013 650 2198 856 
Q 2384 1063 2384 1413 
Q 2384 1744 2206 1937 
Q 2028 2131 1772 2131 
Q 1603 2131 1369 2066 
L 1466 2781 
Q 1822 2772 2009 2936 
Q 2197 3100 2197 3372 
Q 2197 3603 2059 3740 
Q 1922 3878 1694 3878 
Q 1469 3878 1309 3722 
Q 1150 3566 1116 3266 
L 306 3403 
Q 391 3819 561 4067 
Q 731 4316 1036 4458 
Q 1341 4600 1719 4600 
Q 2366 4600 2756 4188 
Q 3078 3850 3078 3425 
Q 3078 2822 2419 2463 
Q 2813 2378 3048 2084 
Q 3284 1791 3284 1375 
Q 3284 772 2843 347 
Q 2403 -78 1747 -78 
Q 1125 -78 715 280 
Q 306 638 241 1216 
z
" transform="scale(0.015625)"/>
       </defs>
       <use xlink:href="#Arial-BoldMT-33"/>
      </g>
     </g>
    </g>
    <g id="xtick_5">
     <g id="line2d_5">
      <g>
       <use xlink:href="#m416dd0c326" x="701.454502" y="198.907885" style="stroke: #000000; stroke-width: 2"/>
      </g>
     </g>
     <g id="text_5">
      <!-- 4 -->
      <g transform="translate(696.449658 224.791947) scale(0.18 -0.18)">
       <defs>
        <path id="Arial-BoldMT-34" d="M 1994 0 
L 1994 922 
L 119 922 
L 119 1691 
L 2106 4600 
L 2844 4600 
L 2844 1694 
L 3413 1694 
L 3413 922 
L 2844 922 
L 2844 0 
L 1994 0 
z
M 1994 1694 
L 1994 3259 
L 941 1694 
L 1994 1694 
z
" transform="scale(0.015625)"/>
       </defs>
       <use xlink:href="#Arial-BoldMT-34"/>
      </g>
     </g>
    </g>
    <g id="xtick_6">
     <g id="line2d_6">
      <g>
       <use xlink:href="#m416dd0c326" x="594" y="198.907885" style="stroke: #000000; stroke-width: 2"/>
      </g>
     </g>
     <g id="text_6">
      <!-- 5 -->
      <g transform="translate(588.995156 224.791947) scale(0.18 -0.18)">
       <defs>
        <path id="Arial-BoldMT-35" d="M 284 1178 
L 1159 1269 
Q 1197 972 1381 798 
Q 1566 625 1806 625 
Q 2081 625 2272 848 
Q 2463 1072 2463 1522 
Q 2463 1944 2273 2155 
Q 2084 2366 1781 2366 
Q 1403 2366 1103 2031 
L 391 2134 
L 841 4519 
L 3163 4519 
L 3163 3697 
L 1506 3697 
L 1369 2919 
Q 1663 3066 1969 3066 
Q 2553 3066 2959 2641 
Q 3366 2216 3366 1538 
Q 3366 972 3038 528 
Q 2591 -78 1797 -78 
Q 1163 -78 763 262 
Q 363 603 284 1178 
z
" transform="scale(0.015625)"/>
       </defs>
       <use xlink:href="#Arial-BoldMT-35"/>
      </g>
     </g>
    </g>
    <g id="xtick_7">
     <g id="line2d_7">
      <g>
       <use xlink:href="#m416dd0c326" x="486.545498" y="198.907885" style="stroke: #000000; stroke-width: 2"/>
      </g>
     </g>
     <g id="text_7">
      <!-- 6 -->
      <g transform="translate(481.540654 224.791947) scale(0.18 -0.18)">
       <defs>
        <path id="Arial-BoldMT-36" d="M 3247 3459 
L 2397 3366 
Q 2366 3628 2234 3753 
Q 2103 3878 1894 3878 
Q 1616 3878 1423 3628 
Q 1231 3378 1181 2588 
Q 1509 2975 1997 2975 
Q 2547 2975 2939 2556 
Q 3331 2138 3331 1475 
Q 3331 772 2918 347 
Q 2506 -78 1859 -78 
Q 1166 -78 719 461 
Q 272 1000 272 2228 
Q 272 3488 737 4044 
Q 1203 4600 1947 4600 
Q 2469 4600 2811 4308 
Q 3153 4016 3247 3459 
z
M 1256 1544 
Q 1256 1116 1453 883 
Q 1650 650 1903 650 
Q 2147 650 2309 840 
Q 2472 1031 2472 1466 
Q 2472 1913 2297 2120 
Q 2122 2328 1859 2328 
Q 1606 2328 1431 2129 
Q 1256 1931 1256 1544 
z
" transform="scale(0.015625)"/>
       </defs>
       <use xlink:href="#Arial-BoldMT-36"/>
      </g>
     </g>
    </g>
    <g id="xtick_8">
     <g id="line2d_8">
      <g>
       <use xlink:href="#m416dd0c326" x="379.090996" y="198.907885" style="stroke: #000000; stroke-width: 2"/>
      </g>
     </g>
     <g id="text_8">
      <!-- 7 -->
      <g transform="translate(374.086153 224.791947) scale(0.18 -0.18)">
       <defs>
        <path id="Arial-BoldMT-37" d="M 272 3703 
L 272 4519 
L 3275 4519 
L 3275 3881 
Q 2903 3516 2518 2831 
Q 2134 2147 1932 1376 
Q 1731 606 1734 0 
L 888 0 
Q 909 950 1279 1937 
Q 1650 2925 2269 3703 
L 272 3703 
z
" transform="scale(0.015625)"/>
       </defs>
       <use xlink:href="#Arial-BoldMT-37"/>
      </g>
     </g>
    </g>
    <g id="xtick_9">
     <g id="line2d_9">
      <g>
       <use xlink:href="#m416dd0c326" x="271.636495" y="198.907885" style="stroke: #000000; stroke-width: 2"/>
      </g>
     </g>
     <g id="text_9">
      <!-- 8 -->
      <g transform="translate(266.631651 224.791947) scale(0.18 -0.18)">
       <defs>
        <path id="Arial-BoldMT-38" d="M 1025 2472 
Q 684 2616 529 2867 
Q 375 3119 375 3419 
Q 375 3931 733 4265 
Q 1091 4600 1750 4600 
Q 2403 4600 2764 4265 
Q 3125 3931 3125 3419 
Q 3125 3100 2959 2851 
Q 2794 2603 2494 2472 
Q 2875 2319 3073 2025 
Q 3272 1731 3272 1347 
Q 3272 713 2867 316 
Q 2463 -81 1791 -81 
Q 1166 -81 750 247 
Q 259 634 259 1309 
Q 259 1681 443 1992 
Q 628 2303 1025 2472 
z
M 1206 3356 
Q 1206 3094 1354 2947 
Q 1503 2800 1750 2800 
Q 2000 2800 2150 2948 
Q 2300 3097 2300 3359 
Q 2300 3606 2151 3754 
Q 2003 3903 1759 3903 
Q 1506 3903 1356 3753 
Q 1206 3603 1206 3356 
z
M 1125 1394 
Q 1125 1031 1311 828 
Q 1497 625 1775 625 
Q 2047 625 2225 820 
Q 2403 1016 2403 1384 
Q 2403 1706 2222 1901 
Q 2041 2097 1763 2097 
Q 1441 2097 1283 1875 
Q 1125 1653 1125 1394 
z
" transform="scale(0.015625)"/>
       </defs>
       <use xlink:href="#Arial-BoldMT-38"/>
      </g>
     </g>
    </g>
    <g id="xtick_10">
     <g id="line2d_10">
      <g>
       <use xlink:href="#m416dd0c326" x="164.181993" y="198.907885" style="stroke: #000000; stroke-width: 2"/>
      </g>
     </g>
     <g id="text_10">
      <!-- 9 -->
      <g transform="translate(159.177149 224.791947) scale(0.18 -0.18)">
       <defs>
        <path id="Arial-BoldMT-39" d="M 291 1059 
L 1141 1153 
Q 1172 894 1303 769 
Q 1434 644 1650 644 
Q 1922 644 2112 894 
Q 2303 1144 2356 1931 
Q 2025 1547 1528 1547 
Q 988 1547 595 1964 
Q 203 2381 203 3050 
Q 203 3747 617 4173 
Q 1031 4600 1672 4600 
Q 2369 4600 2816 4061 
Q 3263 3522 3263 2288 
Q 3263 1031 2797 475 
Q 2331 -81 1584 -81 
Q 1047 -81 715 205 
Q 384 491 291 1059 
z
M 2278 2978 
Q 2278 3403 2083 3637 
Q 1888 3872 1631 3872 
Q 1388 3872 1227 3680 
Q 1066 3488 1066 3050 
Q 1066 2606 1241 2398 
Q 1416 2191 1678 2191 
Q 1931 2191 2104 2391 
Q 2278 2591 2278 2978 
z
" transform="scale(0.015625)"/>
       </defs>
       <use xlink:href="#Arial-BoldMT-39"/>
      </g>
     </g>
    </g>
    <g id="xtick_11">
     <g id="line2d_11">
      <g>
       <use xlink:href="#m416dd0c326" x="56.727491" y="198.907885" style="stroke: #000000; stroke-width: 2"/>
      </g>
     </g>
     <g id="text_11">
      <!-- 10 -->
      <g transform="translate(46.717803 224.791947) scale(0.18 -0.18)">
       <use xlink:href="#Arial-BoldMT-31"/>
       <use xlink:href="#Arial-BoldMT-30" x="55.615234"/>
      </g>
     </g>
    </g>
    <g id="text_12">
     <!-- Chemical Shift / ppm -->
     <g transform="translate(504.992813 245.447573) scale(0.18 -0.18)">
      <defs>
       <path id="Arial-BoldMT-43" d="M 3397 1684 
L 4294 1400 
Q 4088 650 3608 286 
Q 3128 -78 2391 -78 
Q 1478 -78 890 545 
Q 303 1169 303 2250 
Q 303 3394 893 4026 
Q 1484 4659 2447 4659 
Q 3288 4659 3813 4163 
Q 4125 3869 4281 3319 
L 3366 3100 
Q 3284 3456 3026 3662 
Q 2769 3869 2400 3869 
Q 1891 3869 1573 3503 
Q 1256 3138 1256 2319 
Q 1256 1450 1568 1081 
Q 1881 713 2381 713 
Q 2750 713 3015 947 
Q 3281 1181 3397 1684 
z
" transform="scale(0.015625)"/>
       <path id="Arial-BoldMT-68" d="M 1334 4581 
L 1334 2897 
Q 1759 3394 2350 3394 
Q 2653 3394 2897 3281 
Q 3141 3169 3264 2994 
Q 3388 2819 3433 2606 
Q 3478 2394 3478 1947 
L 3478 0 
L 2600 0 
L 2600 1753 
Q 2600 2275 2550 2415 
Q 2500 2556 2373 2639 
Q 2247 2722 2056 2722 
Q 1838 2722 1666 2615 
Q 1494 2509 1414 2295 
Q 1334 2081 1334 1663 
L 1334 0 
L 456 0 
L 456 4581 
L 1334 4581 
z
" transform="scale(0.015625)"/>
       <path id="Arial-BoldMT-65" d="M 2381 1056 
L 3256 909 
Q 3088 428 2723 176 
Q 2359 -75 1813 -75 
Q 947 -75 531 491 
Q 203 944 203 1634 
Q 203 2459 634 2926 
Q 1066 3394 1725 3394 
Q 2466 3394 2894 2905 
Q 3322 2416 3303 1406 
L 1103 1406 
Q 1113 1016 1316 798 
Q 1519 581 1822 581 
Q 2028 581 2168 693 
Q 2309 806 2381 1056 
z
M 2431 1944 
Q 2422 2325 2234 2523 
Q 2047 2722 1778 2722 
Q 1491 2722 1303 2513 
Q 1116 2303 1119 1944 
L 2431 1944 
z
" transform="scale(0.015625)"/>
       <path id="Arial-BoldMT-6d" d="M 394 3319 
L 1203 3319 
L 1203 2866 
Q 1638 3394 2238 3394 
Q 2556 3394 2790 3262 
Q 3025 3131 3175 2866 
Q 3394 3131 3647 3262 
Q 3900 3394 4188 3394 
Q 4553 3394 4806 3245 
Q 5059 3097 5184 2809 
Q 5275 2597 5275 2122 
L 5275 0 
L 4397 0 
L 4397 1897 
Q 4397 2391 4306 2534 
Q 4184 2722 3931 2722 
Q 3747 2722 3584 2609 
Q 3422 2497 3350 2280 
Q 3278 2063 3278 1594 
L 3278 0 
L 2400 0 
L 2400 1819 
Q 2400 2303 2353 2443 
Q 2306 2584 2207 2653 
Q 2109 2722 1941 2722 
Q 1738 2722 1575 2612 
Q 1413 2503 1342 2297 
Q 1272 2091 1272 1613 
L 1272 0 
L 394 0 
L 394 3319 
z
" transform="scale(0.015625)"/>
       <path id="Arial-BoldMT-69" d="M 459 3769 
L 459 4581 
L 1338 4581 
L 1338 3769 
L 459 3769 
z
M 459 0 
L 459 3319 
L 1338 3319 
L 1338 0 
L 459 0 
z
" transform="scale(0.015625)"/>
       <path id="Arial-BoldMT-63" d="M 3353 2338 
L 2488 2181 
Q 2444 2441 2289 2572 
Q 2134 2703 1888 2703 
Q 1559 2703 1364 2476 
Q 1169 2250 1169 1719 
Q 1169 1128 1367 884 
Q 1566 641 1900 641 
Q 2150 641 2309 783 
Q 2469 925 2534 1272 
L 3397 1125 
Q 3263 531 2881 228 
Q 2500 -75 1859 -75 
Q 1131 -75 698 384 
Q 266 844 266 1656 
Q 266 2478 700 2936 
Q 1134 3394 1875 3394 
Q 2481 3394 2839 3133 
Q 3197 2872 3353 2338 
z
" transform="scale(0.015625)"/>
       <path id="Arial-BoldMT-61" d="M 1116 2306 
L 319 2450 
Q 453 2931 781 3162 
Q 1109 3394 1756 3394 
Q 2344 3394 2631 3255 
Q 2919 3116 3036 2902 
Q 3153 2688 3153 2116 
L 3144 1091 
Q 3144 653 3186 445 
Q 3228 238 3344 0 
L 2475 0 
Q 2441 88 2391 259 
Q 2369 338 2359 363 
Q 2134 144 1878 34 
Q 1622 -75 1331 -75 
Q 819 -75 523 203 
Q 228 481 228 906 
Q 228 1188 362 1408 
Q 497 1628 739 1745 
Q 981 1863 1438 1950 
Q 2053 2066 2291 2166 
L 2291 2253 
Q 2291 2506 2166 2614 
Q 2041 2722 1694 2722 
Q 1459 2722 1328 2630 
Q 1197 2538 1116 2306 
z
M 2291 1594 
Q 2122 1538 1756 1459 
Q 1391 1381 1278 1306 
Q 1106 1184 1106 997 
Q 1106 813 1243 678 
Q 1381 544 1594 544 
Q 1831 544 2047 700 
Q 2206 819 2256 991 
Q 2291 1103 2291 1419 
L 2291 1594 
z
" transform="scale(0.015625)"/>
       <path id="Arial-BoldMT-6c" d="M 459 0 
L 459 4581 
L 1338 4581 
L 1338 0 
L 459 0 
z
" transform="scale(0.015625)"/>
       <path id="Arial-BoldMT-20" transform="scale(0.015625)"/>
       <path id="Arial-BoldMT-53" d="M 231 1491 
L 1131 1578 
Q 1213 1125 1461 912 
Q 1709 700 2131 700 
Q 2578 700 2804 889 
Q 3031 1078 3031 1331 
Q 3031 1494 2936 1608 
Q 2841 1722 2603 1806 
Q 2441 1863 1863 2006 
Q 1119 2191 819 2459 
Q 397 2838 397 3381 
Q 397 3731 595 4036 
Q 794 4341 1167 4500 
Q 1541 4659 2069 4659 
Q 2931 4659 3367 4281 
Q 3803 3903 3825 3272 
L 2900 3231 
Q 2841 3584 2645 3739 
Q 2450 3894 2059 3894 
Q 1656 3894 1428 3728 
Q 1281 3622 1281 3444 
Q 1281 3281 1419 3166 
Q 1594 3019 2269 2859 
Q 2944 2700 3267 2529 
Q 3591 2359 3773 2064 
Q 3956 1769 3956 1334 
Q 3956 941 3737 597 
Q 3519 253 3119 86 
Q 2719 -81 2122 -81 
Q 1253 -81 787 320 
Q 322 722 231 1491 
z
" transform="scale(0.015625)"/>
       <path id="Arial-BoldMT-66" d="M 75 3319 
L 563 3319 
L 563 3569 
Q 563 3988 652 4194 
Q 741 4400 980 4529 
Q 1219 4659 1584 4659 
Q 1959 4659 2319 4547 
L 2200 3934 
Q 1991 3984 1797 3984 
Q 1606 3984 1523 3895 
Q 1441 3806 1441 3553 
L 1441 3319 
L 2097 3319 
L 2097 2628 
L 1441 2628 
L 1441 0 
L 563 0 
L 563 2628 
L 75 2628 
L 75 3319 
z
" transform="scale(0.015625)"/>
       <path id="Arial-BoldMT-74" d="M 1981 3319 
L 1981 2619 
L 1381 2619 
L 1381 1281 
Q 1381 875 1398 808 
Q 1416 741 1477 697 
Q 1538 653 1625 653 
Q 1747 653 1978 738 
L 2053 56 
Q 1747 -75 1359 -75 
Q 1122 -75 931 4 
Q 741 84 652 211 
Q 563 338 528 553 
Q 500 706 500 1172 
L 500 2619 
L 97 2619 
L 97 3319 
L 500 3319 
L 500 3978 
L 1381 4491 
L 1381 3319 
L 1981 3319 
z
" transform="scale(0.015625)"/>
       <path id="Arial-BoldMT-2f" d="M -9 -78 
L 1125 4659 
L 1784 4659 
L 638 -78 
L -9 -78 
z
" transform="scale(0.015625)"/>
       <path id="Arial-BoldMT-70" d="M 434 3319 
L 1253 3319 
L 1253 2831 
Q 1413 3081 1684 3237 
Q 1956 3394 2288 3394 
Q 2866 3394 3269 2941 
Q 3672 2488 3672 1678 
Q 3672 847 3265 386 
Q 2859 -75 2281 -75 
Q 2006 -75 1782 34 
Q 1559 144 1313 409 
L 1313 -1263 
L 434 -1263 
L 434 3319 
z
M 1303 1716 
Q 1303 1156 1525 889 
Q 1747 622 2066 622 
Q 2372 622 2575 867 
Q 2778 1113 2778 1672 
Q 2778 2194 2568 2447 
Q 2359 2700 2050 2700 
Q 1728 2700 1515 2451 
Q 1303 2203 1303 1716 
z
" transform="scale(0.015625)"/>
      </defs>
      <use xlink:href="#Arial-BoldMT-43"/>
      <use xlink:href="#Arial-BoldMT-68" x="72.216797"/>
      <use xlink:href="#Arial-BoldMT-65" x="133.300781"/>
      <use xlink:href="#Arial-BoldMT-6d" x="188.916016"/>
      <use xlink:href="#Arial-BoldMT-69" x="277.832031"/>
      <use xlink:href="#Arial-BoldMT-63" x="305.615234"/>
      <use xlink:href="#Arial-BoldMT-61" x="361.230469"/>
      <use xlink:href="#Arial-BoldMT-6c" x="416.845703"/>
      <use xlink:href="#Arial-BoldMT-20" x="444.628906"/>
      <use xlink:href="#Arial-BoldMT-53" x="472.412109"/>
      <use xlink:href="#Arial-BoldMT-68" x="539.111328"/>
      <use xlink:href="#Arial-BoldMT-69" x="600.195312"/>
      <use xlink:href="#Arial-BoldMT-66" x="627.978516"/>
      <use xlink:href="#Arial-BoldMT-74" x="661.279297"/>
      <use xlink:href="#Arial-BoldMT-20" x="694.580078"/>
      <use xlink:href="#Arial-BoldMT-2f" x="722.363281"/>
      <use xlink:href="#Arial-BoldMT-20" x="750.146484"/>
      <use xlink:href="#Arial-BoldMT-70" x="777.929688"/>
      <use xlink:href="#Arial-BoldMT-70" x="839.013672"/>
      <use xlink:href="#Arial-BoldMT-6d" x="900.097656"/>
     </g>
    </g>
   </g>
   <g id="matplotlib.axis_2"/>
   <g id="line2d_12">
    <path d="M 2.965884 190.024159 
L 3.375124 188.340166 
L 3.579743 188.459735 
L 4.398222 191.614973 
L 4.602842 191.432279 
L 5.625941 189.248585 
L 6.2398 188.525792 
L 6.444419 188.583866 
L 6.853659 189.756431 
L 7.262898 190.995459 
L 7.467518 191.198189 
L 7.876758 191.072267 
L 8.081377 190.906596 
L 8.285997 190.561734 
L 8.490617 189.841139 
L 8.899856 187.023597 
L 9.513715 182.468955 
L 9.718335 181.764651 
L 9.922955 181.596944 
L 10.127574 182.035719 
L 11.150673 186.344379 
L 11.355293 186.122263 
L 11.764532 185.353124 
L 11.969152 185.316634 
L 12.173772 185.485563 
L 12.378391 185.804768 
L 12.787631 187.060575 
L 13.19687 188.437825 
L 13.60611 188.945833 
L 14.219969 189.217227 
L 14.424589 189.085032 
L 14.629208 188.564318 
L 15.652307 183.679964 
L 16.061547 183.206328 
L 16.470786 183.217324 
L 16.675406 183.298693 
L 16.880025 183.558847 
L 17.698504 185.434901 
L 18.107744 185.422846 
L 18.312364 185.30572 
L 18.516983 184.992786 
L 18.926223 183.476663 
L 19.335462 181.343306 
L 19.540082 180.739024 
L 19.744702 180.623608 
L 20.153941 181.193926 
L 20.358561 181.150757 
L 20.97242 179.554568 
L 21.17704 179.748339 
L 21.586279 180.353192 
L 21.995519 179.936734 
L 22.200138 180.019488 
L 23.018617 182.144618 
L 23.837096 182.735462 
L 24.041716 182.74491 
L 24.246336 182.510088 
L 24.655575 180.960488 
L 25.269434 178.289231 
L 25.474054 177.826754 
L 25.678674 177.714922 
L 26.087913 177.992506 
L 26.292533 177.832048 
L 26.701772 176.568911 
L 27.315632 174.365425 
L 27.520251 173.9699 
L 27.724871 173.893092 
L 27.929491 174.204234 
L 28.74797 176.116778 
L 29.157209 176.629999 
L 29.566449 176.849508 
L 29.771068 177.223204 
L 30.384927 178.852055 
L 30.589547 178.715218 
L 31.817266 174.936069 
L 32.431125 172.867628 
L 32.840364 172.244612 
L 33.044984 172.103621 
L 33.249604 172.244612 
L 33.863463 173.762038 
L 34.068083 173.843 
L 34.272702 173.549045 
L 35.295801 170.776219 
L 36.11428 170.082829 
L 36.3189 169.582884 
L 36.932759 167.047243 
L 37.137378 166.812665 
L 37.341998 167.010671 
L 37.955857 168.874182 
L 38.160477 168.75054 
L 38.569717 166.656931 
L 38.978956 165.054796 
L 39.388195 164.757012 
L 39.592815 164.66538 
L 39.797435 164.41948 
L 40.206674 163.190959 
L 40.615914 162.144806 
L 41.434393 161.346915 
L 42.048252 160.225747 
L 42.457491 160.108865 
L 42.866731 160.135988 
L 43.27597 159.82452 
L 44.299069 159.011317 
L 44.503689 159.225206 
L 45.117548 160.897145 
L 45.322168 160.909607 
L 45.526787 160.288789 
L 45.936027 157.365524 
L 46.959125 148.621954 
L 47.163745 148.191161 
L 47.368365 148.423622 
L 47.982224 149.718932 
L 48.800703 151.025727 
L 49.005323 150.692512 
L 50.028421 147.363867 
L 50.233041 147.235093 
L 50.437661 147.489871 
L 50.8469 148.448871 
L 51.05152 148.640443 
L 51.665379 148.658525 
L 52.074618 148.758547 
L 53.097717 148.309591 
L 53.302337 148.313256 
L 53.506957 148.493425 
L 54.530055 150.477157 
L 54.939295 150.816969 
L 55.348534 151.420844 
L 55.553154 151.440393 
L 55.757774 151.153116 
L 56.576252 149.303696 
L 56.780872 149.707203 
L 57.190112 152.097618 
L 57.599351 154.597015 
L 57.803971 155.251308 
L 58.008591 155.496067 
L 58.21321 155.447686 
L 58.41783 155.182726 
L 58.827069 154.114256 
L 59.236309 152.904388 
L 59.440929 152.665248 
L 59.645548 152.755903 
L 59.850168 153.115834 
L 60.259408 154.516541 
L 60.668647 155.952273 
L 60.873267 156.145881 
L 61.282506 155.832947 
L 61.691746 155.362488 
L 61.896365 155.344243 
L 62.305605 155.920588 
L 62.714844 156.615363 
L 62.919464 156.760508 
L 63.124084 156.647617 
L 63.533323 155.55683 
L 63.942563 154.610617 
L 64.147182 154.758287 
L 64.351802 155.260838 
L 64.761042 157.202215 
L 65.57952 163.198534 
L 65.78414 163.774391 
L 65.98876 163.590638 
L 66.807239 160.651815 
L 67.011859 160.517503 
L 67.216478 160.655643 
L 67.421098 161.046362 
L 67.830337 162.773443 
L 68.444197 166.364197 
L 68.648816 166.612703 
L 69.058056 165.768141 
L 69.262676 165.380354 
L 69.467295 165.283916 
L 69.876535 165.7389 
L 70.081154 165.968265 
L 70.285774 165.991153 
L 70.490394 165.695487 
L 70.899633 164.232225 
L 71.308873 162.856767 
L 71.513493 162.792258 
L 71.718112 163.377563 
L 72.331971 167.236697 
L 73.55969 174.832056 
L 73.968929 176.039318 
L 74.992028 177.054683 
L 75.401267 178.099777 
L 76.015127 179.790123 
L 76.219746 180.001651 
L 76.424366 179.854876 
L 77.038225 178.702105 
L 77.242845 178.727436 
L 77.447465 179.033039 
L 78.061324 180.932795 
L 78.879803 183.332495 
L 79.084422 183.364668 
L 79.493662 182.229409 
L 79.698282 181.675137 
L 79.902901 181.594582 
L 80.107521 182.134356 
L 80.926 185.628509 
L 81.13062 185.933623 
L 81.335239 185.816905 
L 81.539859 185.133615 
L 82.153718 181.56021 
L 82.358338 181.097407 
L 82.562958 181.065478 
L 82.767578 181.18293 
L 82.972197 181.433798 
L 83.790676 183.248764 
L 84.199916 183.281263 
L 84.404535 183.076414 
L 84.813775 181.734188 
L 85.632254 178.700313 
L 86.246113 176.73507 
L 86.450733 176.561987 
L 86.655352 176.726518 
L 87.883071 178.940266 
L 88.08769 179.030269 
L 88.29231 178.984331 
L 89.110789 178.401307 
L 89.724648 178.84391 
L 89.929268 179.141124 
L 90.338507 180.713611 
L 91.156986 185.645532 
L 92.180085 192.520216 
L 92.384705 193.022522 
L 92.589324 192.832416 
L 92.793944 191.825523 
L 93.817043 183.380063 
L 94.021662 183.045463 
L 94.226282 183.016304 
L 94.840141 183.201848 
L 95.454001 182.807953 
L 95.65862 182.911803 
L 96.06786 183.860703 
L 98.318677 191.487258 
L 99.341775 192.562326 
L 99.546395 192.626183 
L 99.955635 192.321476 
L 100.569494 191.530264 
L 101.387973 189.623259 
L 101.592592 189.572189 
L 101.797212 189.702673 
L 102.206452 190.448843 
L 102.820311 191.926359 
L 103.63879 194.268962 
L 103.843409 193.964011 
L 104.866508 190.383275 
L 105.071128 190.24823 
L 105.275747 190.397366 
L 105.684987 191.270518 
L 106.094226 192.250044 
L 106.298846 192.349251 
L 106.503466 192.150755 
L 106.912705 191.285505 
L 107.731184 189.147668 
L 108.140424 188.602356 
L 108.549663 188.441491 
L 108.958903 188.567413 
L 109.368142 188.331369 
L 109.572762 188.196242 
L 109.777381 188.209193 
L 110.59586 188.882627 
L 111.0051 189.064914 
L 111.414339 189.107757 
L 112.437438 189.878688 
L 112.642058 189.844723 
L 112.846677 189.428592 
L 113.255917 187.225432 
L 113.665156 184.957355 
L 113.869776 184.412532 
L 114.074396 184.347208 
L 114.688255 185.564652 
L 114.892875 185.474975 
L 115.302114 183.890025 
L 115.711354 182.393532 
L 115.915973 182.482802 
L 116.120593 183.204373 
L 116.529832 185.986485 
L 117.757551 196.558786 
L 117.962171 197.069807 
L 118.16679 196.681532 
L 119.394509 190.580956 
L 119.803748 189.400328 
L 120.212988 187.957673 
L 120.622227 187.357219 
L 120.826847 187.324557 
L 121.236086 187.616721 
L 121.645326 188.267186 
L 123.077664 193.098353 
L 123.691523 195.559793 
L 123.896143 195.675453 
L 124.510002 194.905499 
L 124.714621 194.98809 
L 125.5331 196.067882 
L 125.73772 196.243653 
L 126.14696 197.340387 
L 126.556199 198.568012 
L 126.760819 198.836229 
L 126.965438 198.789476 
L 127.374678 198.109933 
L 127.579298 197.344785 
L 127.988537 194.434144 
L 128.602396 190.084188 
L 129.011636 188.267349 
L 129.420875 187.464815 
L 129.830115 186.849862 
L 130.239354 186.079176 
L 130.443974 185.895097 
L 130.648594 185.922709 
L 131.057833 186.426074 
L 131.467072 186.943205 
L 132.080932 187.25565 
L 132.490171 187.55213 
L 132.899411 188.19836 
L 133.30865 189.588479 
L 133.922509 191.653662 
L 134.536368 192.872001 
L 134.945608 193.44745 
L 135.764087 195.136331 
L 135.968706 194.430072 
L 136.991805 187.624784 
L 137.401045 186.7891 
L 137.605664 186.680282 
L 137.810284 186.823635 
L 138.424143 187.805116 
L 138.833383 187.935519 
L 139.038002 187.936903 
L 139.242622 188.064374 
L 139.651862 188.835468 
L 140.67496 192.059775 
L 140.87958 191.708234 
L 141.493439 189.83161 
L 141.698059 189.944826 
L 142.107298 191.229548 
L 142.721157 193.775534 
L 142.925777 194.259595 
L 143.130397 194.264564 
L 143.335017 193.728211 
L 144.358115 189.166157 
L 144.767355 188.651552 
L 145.176594 188.879532 
L 145.381214 188.768922 
L 145.790453 187.391347 
L 146.199693 185.913179 
L 147.018172 184.135111 
L 147.222791 183.772329 
L 147.427411 183.741378 
L 147.632031 184.276346 
L 148.04127 186.997695 
L 148.65513 191.129608 
L 149.882848 195.464903 
L 150.087468 195.599297 
L 150.292087 195.095117 
L 151.110566 191.210326 
L 151.519806 190.165802 
L 151.724425 189.897829 
L 151.929045 190.137213 
L 152.747524 192.717734 
L 152.952144 192.797718 
L 153.156764 192.591974 
L 153.770623 191.5424 
L 154.793721 190.710951 
L 155.6122 189.630019 
L 156.02144 189.730774 
L 156.226059 189.581637 
L 157.044538 188.147616 
L 157.453778 188.627035 
L 157.658398 188.586554 
L 158.681496 187.055933 
L 158.886116 187.165565 
L 159.090736 187.634314 
L 159.499975 189.538143 
L 160.318454 193.561563 
L 161.341553 196.308895 
L 161.546172 196.452981 
L 161.750792 196.30971 
L 161.955412 195.812779 
L 162.364651 193.668182 
L 162.97851 190.321943 
L 164.410848 186.607872 
L 164.615468 186.609746 
L 164.820088 187.057887 
L 165.229327 189.113214 
L 165.638567 191.421527 
L 165.843187 192.049919 
L 166.047806 192.049023 
L 166.252426 191.445066 
L 166.661665 189.132192 
L 167.275525 185.460151 
L 167.480144 184.918829 
L 167.684764 184.917852 
L 167.889384 185.451517 
L 168.503243 187.928351 
L 168.707863 188.302291 
L 168.912482 188.379425 
L 169.526342 188.065514 
L 169.935581 188.57678 
L 171.572539 191.172614 
L 171.777159 191.23639 
L 171.981778 191.012237 
L 172.595638 189.886019 
L 172.800257 189.942464 
L 173.004877 190.292539 
L 173.414116 191.804671 
L 173.823356 193.159278 
L 174.027976 193.259136 
L 174.232595 192.965018 
L 174.846455 191.302609 
L 175.051074 191.202425 
L 175.255694 191.421853 
L 175.664933 192.482586 
L 176.074173 193.432545 
L 176.278793 193.311509 
L 177.506511 190.740436 
L 178.12037 189.661866 
L 178.32499 189.578216 
L 178.52961 189.927966 
L 179.348089 192.981064 
L 179.552708 193.05779 
L 180.371187 192.67318 
L 180.780427 192.11899 
L 180.985046 191.693817 
L 181.394286 189.877141 
L 181.803525 187.884531 
L 182.008145 187.432642 
L 182.212765 187.304846 
L 182.826624 187.414397 
L 183.031244 187.145284 
L 183.849723 184.913128 
L 184.258962 186.002124 
L 184.668201 186.933757 
L 185.077441 187.363572 
L 185.282061 187.772454 
L 185.89592 189.744376 
L 186.10054 189.721244 
L 186.305159 189.161352 
L 187.123638 185.458766 
L 187.328258 185.180693 
L 187.532878 185.322906 
L 189.169835 188.167002 
L 189.988314 188.231185 
L 190.192934 188.022264 
L 190.397554 187.974452 
L 190.602174 188.451835 
L 191.625272 193.503977 
L 191.829892 193.736193 
L 192.034512 193.658489 
L 192.443751 193.013807 
L 193.671469 189.635721 
L 193.876089 189.42175 
L 194.080709 189.446185 
L 195.103808 190.497062 
L 196.536146 193.558631 
L 196.740765 193.620126 
L 197.150005 193.234375 
L 197.354625 193.358343 
L 198.377723 195.709011 
L 198.582343 195.456839 
L 198.991582 194.163728 
L 199.605442 191.679237 
L 200.014681 191.176768 
L 200.219301 190.877029 
L 200.42392 190.157168 
L 200.83316 187.23488 
L 201.447019 182.687813 
L 201.856258 181.543675 
L 202.060878 181.566644 
L 202.470118 182.244884 
L 203.083977 183.680941 
L 204.107075 187.186661 
L 204.720935 187.490146 
L 204.925554 188.038065 
L 205.334794 190.46326 
L 205.744033 192.773283 
L 205.948653 193.268585 
L 206.153273 193.386444 
L 206.562512 193.422282 
L 206.971752 193.599763 
L 207.585611 192.90002 
L 207.99485 192.958583 
L 208.19947 192.706412 
L 208.813329 191.560808 
L 209.017949 191.548427 
L 209.427188 191.927825 
L 209.631808 191.920657 
L 209.836428 191.592655 
L 210.450287 189.843909 
L 210.859526 189.534315 
L 211.268766 189.527636 
L 211.678005 189.949795 
L 212.291865 191.083262 
L 212.496484 191.044818 
L 212.905724 190.276249 
L 213.110343 190.166209 
L 213.519583 190.740436 
L 213.928822 191.265712 
L 214.133442 191.149808 
L 214.542682 190.205224 
L 214.951921 189.358951 
L 215.156541 189.54474 
L 215.56578 190.346785 
L 215.7704 190.162707 
L 216.588879 187.811795 
L 217.202738 186.048876 
L 217.407358 186.131141 
L 217.611977 186.754239 
L 218.635076 191.881235 
L 219.453555 192.873956 
L 219.862794 193.167993 
L 220.681273 193.189985 
L 220.885893 193.228511 
L 221.090513 192.961271 
L 221.704372 191.690233 
L 222.318231 191.042374 
L 222.522851 190.98992 
L 223.13671 191.143292 
L 223.750569 190.772365 
L 224.159809 190.429213 
L 224.364428 190.518565 
L 225.182907 191.886122 
L 225.387527 191.615706 
L 226.001386 190.179811 
L 226.206006 190.075229 
L 226.410626 190.258493 
L 226.819865 191.331931 
L 227.433724 193.197723 
L 227.638344 193.463659 
L 227.842964 193.420327 
L 228.661443 192.669108 
L 229.070682 191.628819 
L 229.684541 189.91754 
L 229.889161 189.681333 
L 230.093781 189.742014 
L 230.50302 190.822376 
L 230.91226 191.714343 
L 231.321499 191.971157 
L 231.526119 191.931572 
L 231.730739 191.610086 
L 232.549218 188.757193 
L 232.753837 188.921317 
L 233.367696 190.30549 
L 233.981556 190.943249 
L 234.186175 191.230688 
L 234.390795 191.318899 
L 234.595415 191.047913 
L 235.209274 189.858325 
L 236.232373 188.525303 
L 237.050852 186.079094 
L 237.255471 185.884427 
L 237.460091 186.089113 
L 238.27857 188.709952 
L 238.892429 189.243047 
L 239.506288 190.594966 
L 239.710908 190.726427 
L 239.915528 190.467495 
L 240.734007 188.346519 
L 241.143246 188.106484 
L 241.347866 188.189319 
L 241.552485 188.582319 
L 242.575584 192.076798 
L 243.394063 192.355034 
L 243.598683 192.170059 
L 244.007922 191.022174 
L 244.212542 190.437114 
L 244.417162 190.32178 
L 244.621781 190.90065 
L 245.44026 194.920568 
L 245.64488 194.816881 
L 245.8495 194.055887 
L 246.463359 190.582666 
L 246.872598 189.651196 
L 247.281838 189.624399 
L 248.100317 189.797237 
L 248.509556 188.91195 
L 248.918796 187.893979 
L 249.328035 187.543334 
L 249.532655 187.460987 
L 249.737275 187.201404 
L 250.555753 185.271837 
L 250.964993 184.99523 
L 251.783472 183.941095 
L 251.988092 184.087788 
L 252.397331 185.007448 
L 253.01119 187.101871 
L 253.625049 189.034859 
L 254.034289 189.430709 
L 254.443528 189.721325 
L 255.057387 190.312169 
L 255.671247 190.628116 
L 256.080486 190.7485 
L 256.694345 191.787811 
L 256.898965 191.403038 
L 257.308204 190.227297 
L 257.717444 189.988402 
L 257.922064 189.885611 
L 258.126683 189.640119 
L 258.331303 189.1607 
L 258.740543 187.156117 
L 259.149782 185.213925 
L 259.354402 185.004515 
L 259.559021 185.256035 
L 259.968261 185.966204 
L 260.172881 185.928166 
L 260.58212 185.689027 
L 261.400599 186.048713 
L 261.809838 186.279952 
L 262.219078 186.480321 
L 262.832937 186.363846 
L 263.242177 186.140997 
L 263.856036 185.689353 
L 264.060655 186.062886 
L 264.674515 188.382031 
L 265.083754 189.581149 
L 265.288374 189.43299 
L 265.697613 187.79355 
L 266.925332 180.915364 
L 267.129951 180.905672 
L 267.743811 181.901977 
L 267.94843 181.848789 
L 268.15305 181.670738 
L 268.35767 181.648584 
L 268.562289 182.030017 
L 268.971529 184.083308 
L 269.790008 188.704984 
L 269.994628 189.223906 
L 270.199247 189.23482 
L 270.403867 188.701074 
L 271.017726 185.254976 
L 271.426966 183.486193 
L 273.268543 179.172482 
L 273.882402 176.964598 
L 275.51936 167.821513 
L 276.747079 152.999685 
L 277.974797 136.492153 
L 278.384036 133.682837 
L 278.997895 132.024664 
L 279.202515 131.776402 
L 279.407135 132.021324 
L 279.611755 132.891055 
L 280.020994 136.296427 
L 280.839473 144.212783 
L 281.248712 146.381001 
L 282.067191 149.509278 
L 282.271811 149.924839 
L 282.476431 149.902115 
L 282.681051 149.4319 
L 283.09029 147.311738 
L 284.318008 137.604199 
L 284.727248 131.82348 
L 285.545727 115.173166 
L 286.159586 100.838413 
L 286.773445 79.82063 
L 288.001163 34.806738 
L 288.410403 24.328187 
L 288.615023 21.292601 
L 288.819642 19.986865 
L 289.024262 20.331646 
L 289.228882 22.206233 
L 289.638121 29.651805 
L 290.25198 46.290961 
L 291.684319 88.950276 
L 292.298178 100.956598 
L 293.116657 112.544263 
L 293.525896 115.849125 
L 293.730516 116.597087 
L 293.935136 116.895115 
L 294.139755 116.724639 
L 294.344375 116.004451 
L 294.753614 113.102363 
L 295.367474 106.91944 
L 295.776713 100.606441 
L 296.390572 86.881754 
L 297.209051 61.251011 
L 298.23215 29.396538 
L 298.641389 20.298251 
L 298.846009 17.663484 
L 299.050629 16.597457 
L 299.255248 17.308359 
L 299.459868 19.808732 
L 299.869108 28.536582 
L 300.892206 57.433905 
L 301.710685 79.160879 
L 302.324544 89.352724 
L 303.756882 103.300179 
L 303.961502 103.932725 
L 304.166122 103.87465 
L 304.370742 103.304333 
L 304.779981 100.954887 
L 305.39384 95.10298 
L 306.007699 86.097954 
L 306.826178 70.281205 
L 309.281615 17.198644 
L 309.895474 8.38576 
L 310.304714 5.357016 
L 310.918573 3.137322 
L 311.123193 3.00024 
L 311.327812 3.684507 
L 311.532432 5.49646 
L 311.941672 12.485337 
L 313.987869 55.020928 
L 315.010967 70.377969 
L 315.624827 75.976483 
L 316.034066 78.439226 
L 316.443306 79.693241 
L 316.647925 80.016926 
L 316.852545 80.094874 
L 317.057165 79.800104 
L 317.466404 78.277221 
L 318.080263 75.304433 
L 318.694122 71.817936 
L 318.898742 71.391949 
L 319.103362 71.608363 
L 319.512601 73.288284 
L 319.921841 74.847495 
L 320.33108 75.95783 
L 320.74032 78.077992 
L 321.354179 83.375464 
L 321.968038 91.078746 
L 322.786517 104.788446 
L 323.809616 121.830131 
L 324.628095 131.406697 
L 325.037334 135.10293 
L 325.446573 136.780733 
L 325.855813 137.954763 
L 326.265052 140.710159 
L 327.288151 148.689884 
L 327.69739 151.026705 
L 328.10663 152.22403 
L 328.720489 153.26668 
L 329.129729 154.875087 
L 330.152827 159.49717 
L 330.562067 160.436215 
L 330.766686 160.658901 
L 330.971306 160.689527 
L 331.175926 160.508299 
L 331.585165 159.701611 
L 331.994405 158.760937 
L 332.199024 158.700338 
L 332.403644 159.038195 
L 334.654461 165.681477 
L 335.063701 166.895744 
L 335.26832 167.059379 
L 335.67756 167.039505 
L 336.291419 166.572548 
L 336.496039 166.714924 
L 336.700658 167.242236 
L 337.314518 169.857618 
L 337.519137 170.064502 
L 337.723757 169.632814 
L 338.746856 165.113522 
L 338.951475 164.955018 
L 339.156095 165.16736 
L 339.565335 166.354179 
L 340.179194 168.92688 
L 340.793053 172.891412 
L 341.202292 175.496287 
L 341.406912 176.0293 
L 341.611532 175.967723 
L 342.225391 174.858365 
L 342.634631 174.826843 
L 343.24849 174.906909 
L 343.862349 175.584335 
L 344.066969 175.440656 
L 344.271588 174.909271 
L 344.680828 172.823237 
L 345.499307 167.603469 
L 345.703926 167.215927 
L 345.908546 167.159726 
L 346.522405 167.318555 
L 346.727025 167.116557 
L 347.545504 165.699885 
L 347.750124 165.959143 
L 348.159363 166.782609 
L 348.363983 166.749377 
L 348.568603 166.229885 
L 348.977842 164.134647 
L 350.81942 152.418778 
L 351.024039 152.053146 
L 351.637899 151.982773 
L 351.842518 151.753245 
L 352.047138 151.713171 
L 352.251758 152.161964 
L 353.070237 155.718428 
L 353.274856 155.597555 
L 353.479476 154.618192 
L 353.888716 150.626456 
L 357.98111 103.403051 
L 358.594969 96.952726 
L 359.618068 82.15069 
L 360.231927 74.373126 
L 361.664265 61.032397 
L 361.868885 60.082519 
L 362.073505 59.922468 
L 362.278124 60.583034 
L 362.891983 64.929732 
L 363.301223 69.013995 
L 364.324322 80.827768 
L 365.34742 90.329073 
L 365.75666 91.991401 
L 365.961279 92.002722 
L 366.370519 91.073859 
L 366.984378 89.556351 
L 367.393617 88.983834 
L 368.212096 87.322484 
L 368.825956 88.92804 
L 369.030575 88.868499 
L 369.439815 87.809722 
L 369.849054 86.842983 
L 370.462913 85.881214 
L 371.486012 83.647591 
L 371.895251 83.870684 
L 372.099871 84.071623 
L 372.304491 84.437093 
L 372.71373 86.080279 
L 373.12297 89.096887 
L 373.736829 95.984847 
L 375.578407 117.717197 
L 375.987646 120.85704 
L 377.419984 128.990299 
L 379.875421 148.82835 
L 380.898519 154.073857 
L 382.126238 164.09441 
L 382.535477 165.368136 
L 382.944717 165.734502 
L 383.558576 165.91353 
L 383.967815 165.792739 
L 384.377055 166.291869 
L 384.581675 166.528402 
L 384.786294 166.56538 
L 384.990914 166.405411 
L 385.400153 165.570216 
L 385.809393 164.34479 
L 386.014013 164.105651 
L 386.218632 164.17187 
L 386.627872 164.937425 
L 387.241731 166.964081 
L 387.85559 169.418272 
L 388.26483 172.109159 
L 388.674069 175.100273 
L 389.083309 176.496583 
L 389.492548 177.817794 
L 390.106407 180.389111 
L 390.720266 181.66691 
L 391.334126 183.791063 
L 392.152604 185.197798 
L 392.357224 184.906856 
L 392.766464 183.068025 
L 393.584943 179.18022 
L 394.812661 174.628348 
L 395.017281 174.57793 
L 395.2219 175.054498 
L 395.63114 177.373807 
L 396.244999 181.656647 
L 396.449619 182.080354 
L 396.654238 181.929751 
L 397.472717 179.731886 
L 397.677337 179.608244 
L 397.881957 179.693034 
L 398.086576 180.002221 
L 398.495816 181.552716 
L 399.109675 184.332466 
L 399.314295 184.609805 
L 399.518915 184.503186 
L 399.928154 183.891329 
L 400.132774 184.114422 
L 400.951253 186.499706 
L 401.360492 186.711152 
L 401.565112 186.569753 
L 401.974351 185.773491 
L 402.79283 183.495804 
L 403.20207 182.273066 
L 403.406689 181.95777 
L 403.611309 181.859785 
L 403.815929 181.943354 
L 404.225168 182.615322 
L 404.429788 183.004493 
L 404.634408 183.138806 
L 404.839027 182.909929 
L 405.248267 181.947671 
L 405.452887 181.757402 
L 405.657506 181.952476 
L 406.271366 183.475604 
L 406.475985 183.417693 
L 407.089844 182.153985 
L 407.703704 180.269379 
L 407.908323 180.185485 
L 408.112943 180.391066 
L 408.522183 181.295821 
L 409.545281 185.242433 
L 409.749901 184.929581 
L 410.36376 183.218872 
L 410.56838 183.312784 
L 411.182239 184.44951 
L 411.386859 184.412857 
L 411.796098 183.328341 
L 412.000718 182.792803 
L 412.205338 182.612471 
L 413.023817 183.146218 
L 413.228436 183.341211 
L 413.433056 183.895075 
L 414.046915 186.134644 
L 414.251535 186.013608 
L 414.456155 185.291955 
L 415.274634 181.03974 
L 415.683873 180.441729 
L 415.888493 180.26384 
L 416.093112 179.865302 
L 416.502352 178.111913 
L 417.116211 174.856899 
L 417.525451 173.837217 
L 417.73007 173.962081 
L 418.13931 175.134971 
L 418.343929 175.767762 
L 418.548549 176.035409 
L 418.753169 175.694212 
L 418.957789 174.649444 
L 419.367028 170.796907 
L 421.208606 148.835192 
L 422.027085 135.614848 
L 422.231704 134.7711 
L 422.436324 135.404868 
L 422.845563 139.349769 
L 423.664042 147.548108 
L 424.277902 153.879923 
L 425.301 165.014396 
L 426.937958 176.336532 
L 427.347197 176.804629 
L 427.551817 177.053461 
L 427.961057 178.290046 
L 428.779536 181.459048 
L 429.188775 182.425623 
L 429.393395 182.601394 
L 429.598014 182.630309 
L 429.802634 182.382617 
L 430.416493 180.943546 
L 430.621113 181.238805 
L 431.030353 183.23508 
L 431.848831 188.304002 
L 432.258071 189.910943 
L 432.462691 190.282928 
L 432.87193 190.46774 
L 433.281169 190.451205 
L 433.690409 189.762784 
L 434.099648 189.234902 
L 434.304268 189.365549 
L 434.918127 190.128905 
L 435.122747 189.987913 
L 435.327367 189.531871 
L 435.736606 187.546592 
L 436.350465 183.825842 
L 436.759705 182.816994 
L 436.964325 182.884354 
L 437.373564 183.773062 
L 437.782803 185.10527 
L 439.010522 190.262077 
L 439.419761 190.672751 
L 439.624381 190.649945 
L 439.829001 190.384904 
L 440.23824 189.090164 
L 440.852099 186.639068 
L 441.261339 185.938836 
L 441.670578 185.63079 
L 442.284437 184.75943 
L 442.693677 184.54383 
L 442.898297 184.659327 
L 443.512156 185.40623 
L 443.716776 185.266542 
L 443.921395 184.735239 
L 444.944494 180.632975 
L 445.149114 180.535397 
L 445.353733 180.861526 
L 445.762973 182.240893 
L 446.786071 186.853202 
L 447.195311 189.361476 
L 447.399931 190.079627 
L 447.60455 190.250185 
L 447.80917 189.95908 
L 449.036888 186.79863 
L 449.241508 186.694699 
L 450.059987 187.111971 
L 450.469227 187.807967 
L 450.878466 188.606591 
L 451.083086 188.626139 
L 451.287705 188.202677 
L 452.515424 183.94305 
L 452.720044 184.190986 
L 453.743142 187.872639 
L 453.947762 187.929084 
L 454.357001 187.616965 
L 454.561621 187.682533 
L 454.766241 188.025115 
L 455.17548 189.525436 
L 455.789339 192.562081 
L 456.198579 193.397684 
L 456.607818 193.55016 
L 457.017058 193.531671 
L 457.221678 193.625828 
L 457.426297 193.880035 
L 457.835537 195.145372 
L 458.244776 196.400038 
L 458.449396 196.419994 
L 458.654016 195.988224 
L 459.472495 193.132399 
L 460.290973 192.034444 
L 460.495593 191.956577 
L 461.109452 192.338988 
L 461.314072 191.89557 
L 461.723312 189.656816 
L 462.337171 186.288504 
L 462.54179 185.839222 
L 462.74641 185.755491 
L 463.564889 186.120308 
L 463.769509 186.303165 
L 464.178748 186.273599 
L 464.383368 186.267408 
L 464.587988 186.423387 
L 464.792607 186.870144 
L 465.406467 188.980205 
L 466.224946 190.49584 
L 466.838805 191.951771 
L 467.043424 191.954215 
L 467.452664 191.402223 
L 467.657284 191.509738 
L 468.066523 192.659904 
L 468.475763 193.83369 
L 468.680382 194.098079 
L 468.885002 193.997406 
L 469.089622 193.391168 
L 469.908101 189.167135 
L 470.31734 188.758985 
L 471.135819 188.274191 
L 471.749678 188.13043 
L 472.158918 188.441002 
L 472.568157 189.318715 
L 472.977396 190.32064 
L 473.182016 190.464074 
L 473.386636 190.425222 
L 473.591256 190.255886 
L 474.205115 189.240115 
L 474.409735 189.287682 
L 475.228213 190.268755 
L 475.432833 190.267371 
L 475.637453 189.889684 
L 476.046692 188.673951 
L 476.251312 188.462749 
L 476.455932 188.702377 
L 477.274411 190.810566 
L 477.68365 191.380313 
L 478.09289 192.581059 
L 478.706749 195.312509 
L 478.911369 195.653787 
L 479.115988 195.63432 
L 479.320608 195.307703 
L 479.729847 193.857718 
L 480.139087 192.590019 
L 480.343707 192.519401 
L 480.752946 193.069438 
L 481.366805 194.34406 
L 481.571425 194.465014 
L 481.776045 194.212924 
L 482.185284 192.669841 
L 483.003763 189.021012 
L 484.231481 184.002998 
L 484.436101 183.941339 
L 485.25458 185.008018 
L 485.4592 184.979591 
L 485.66382 185.099568 
L 486.073059 185.98005 
L 486.891538 188.676883 
L 487.096158 188.275901 
L 487.505397 187.031497 
L 487.710017 186.968943 
L 488.119256 187.923383 
L 488.528496 188.798407 
L 488.733115 188.839947 
L 488.937735 188.446459 
L 489.346975 186.67906 
L 490.370073 180.973765 
L 490.983932 174.802245 
L 491.802411 162.580079 
L 492.62089 147.3343 
L 493.03013 140.542859 
L 493.234749 138.719993 
L 493.439369 138.40543 
L 493.643989 139.588501 
L 494.053228 145.153132 
L 495.076327 162.262258 
L 496.508665 179.965405 
L 496.917905 183.176192 
L 497.122524 184.103345 
L 497.327144 184.339552 
L 497.531764 183.926352 
L 497.941003 182.821718 
L 498.145623 182.841429 
L 498.964102 184.134622 
L 499.168722 184.145455 
L 499.577961 183.778845 
L 500.39644 183.751885 
L 500.805679 183.396353 
L 501.010299 183.611464 
L 501.624158 185.566851 
L 501.828778 185.657261 
L 502.442637 185.019339 
L 503.056496 185.062182 
L 503.261116 184.899118 
L 504.284215 182.858127 
L 504.898074 180.423565 
L 505.102694 180.414687 
L 505.307313 181.208668 
L 505.716553 183.633456 
L 505.921173 184.286935 
L 506.125792 184.442017 
L 506.535032 184.319922 
L 506.739651 184.387445 
L 507.353511 184.917852 
L 507.55813 184.627317 
L 507.96737 183.659601 
L 508.17199 183.478618 
L 508.376609 183.76117 
L 508.785849 185.710693 
L 509.399708 189.034533 
L 509.604328 189.363268 
L 510.013567 189.464919 
L 510.218187 189.767752 
L 510.832046 191.399373 
L 511.036666 191.423645 
L 511.445905 190.592196 
L 512.469004 187.484282 
L 512.673623 187.431013 
L 512.878243 187.820103 
L 513.287483 189.48577 
L 513.901342 192.517772 
L 514.105962 192.828995 
L 514.310581 192.630174 
L 514.719821 191.140115 
L 515.12906 189.468095 
L 515.33368 189.049683 
L 515.947539 188.609035 
L 516.970638 186.889692 
L 517.175257 186.816223 
L 517.379877 187.062775 
L 517.584497 187.724399 
L 517.993736 190.326748 
L 518.607596 194.700814 
L 519.016835 196.245445 
L 519.221455 196.243897 
L 519.426074 195.702902 
L 520.244553 192.676194 
L 520.449173 192.430294 
L 520.858413 192.552307 
L 521.676891 192.595965 
L 521.881511 192.487065 
L 522.290751 191.748633 
L 523.10923 189.388029 
L 523.313849 189.662274 
L 523.723089 191.437166 
L 524.132328 193.202121 
L 524.336948 193.441016 
L 524.541568 193.145513 
L 525.155427 190.968336 
L 525.360047 190.818711 
L 525.564666 191.031867 
L 526.178525 191.971482 
L 526.587765 192.109053 
L 526.792385 192.000234 
L 527.201624 191.325497 
L 528.633962 187.916785 
L 529.043202 187.593344 
L 529.452441 187.642296 
L 530.47554 188.412005 
L 530.680159 188.605532 
L 530.884779 189.075095 
L 531.907878 193.240403 
L 532.317117 193.684553 
L 532.521737 193.531752 
L 532.726357 192.905803 
L 533.135596 190.191133 
L 533.749455 185.660845 
L 534.158695 184.47924 
L 534.363315 184.394938 
L 534.567934 184.608176 
L 535.591033 186.917304 
L 536.000272 188.167653 
L 536.818751 190.892505 
L 537.023371 191.006617 
L 537.227991 190.696942 
L 538.251089 187.555551 
L 538.660329 188.082782 
L 539.069568 189.059131 
L 539.478808 191.205276 
L 540.092667 195.244009 
L 540.297287 195.915162 
L 540.501906 196.184113 
L 540.706526 196.126364 
L 540.911146 195.787611 
L 541.729625 193.555047 
L 541.934244 193.645864 
L 542.343484 194.070711 
L 542.548104 193.967839 
L 542.957343 193.212628 
L 543.571202 191.649426 
L 543.980442 189.457995 
L 544.798921 184.120205 
L 545.6174 180.584919 
L 546.026639 178.984005 
L 546.845118 174.322663 
L 547.049738 174.025613 
L 547.254357 174.331623 
L 547.663597 176.315925 
L 548.277456 179.525327 
L 549.300555 181.9673 
L 549.914414 183.388289 
L 550.119033 183.653167 
L 550.323653 183.610324 
L 550.528273 183.192889 
L 551.142132 181.2621 
L 551.346752 181.317161 
L 551.551372 181.97064 
L 552.57447 187.443882 
L 552.77909 187.187883 
L 553.802189 183.322151 
L 554.006808 183.279878 
L 554.211428 183.52138 
L 554.825287 185.154385 
L 555.234527 185.955941 
L 555.439146 185.797031 
L 555.848386 184.112386 
L 556.257625 182.033194 
L 556.462245 181.501647 
L 556.666865 181.442595 
L 557.076104 181.795276 
L 557.280724 181.745103 
L 557.894583 181.072157 
L 558.099203 181.041532 
L 558.303823 181.133164 
L 558.508442 181.37385 
L 558.713062 181.888456 
L 559.122301 184.118332 
L 559.531541 186.921458 
L 559.736161 187.710796 
L 559.94078 187.766671 
L 560.1454 187.046892 
L 560.55464 183.973838 
L 561.577738 175.07706 
L 562.805457 166.062667 
L 563.214696 161.378355 
L 563.828555 150.42739 
L 564.442414 139.450035 
L 564.647034 137.317574 
L 564.851654 136.46389 
L 565.056274 136.984523 
L 565.465513 141.301084 
L 567.102471 164.300073 
L 567.71633 168.699389 
L 568.330189 171.952285 
L 569.148668 175.458656 
L 570.581006 183.285498 
L 571.194865 184.579343 
L 571.604105 184.884701 
L 571.808725 185.390755 
L 572.217964 187.997421 
L 572.627203 190.59912 
L 572.831823 190.960028 
L 573.036443 190.520764 
L 573.854922 187.036222 
L 574.059542 187.138116 
L 574.87802 188.597713 
L 575.28726 188.623777 
L 575.49188 188.849884 
L 575.901119 190.039146 
L 576.514978 192.063603 
L 576.719598 192.294271 
L 576.924218 192.274723 
L 577.128837 191.979302 
L 577.333457 191.261314 
L 577.947316 187.897644 
L 578.151936 187.376848 
L 578.561176 187.018465 
L 578.765795 186.628072 
L 579.379654 184.719927 
L 579.584274 184.461809 
L 579.788894 184.509214 
L 580.198133 185.275665 
L 581.221232 187.246446 
L 582.039711 188.625569 
L 582.44895 189.430383 
L 582.65357 189.451561 
L 582.85819 189.129097 
L 583.472049 187.596032 
L 584.085908 186.673522 
L 584.290528 186.38877 
L 584.495148 186.555662 
L 584.904387 188.520009 
L 585.927486 194.389346 
L 586.132105 195.044129 
L 586.336725 195.187075 
L 586.541345 194.886277 
L 587.973683 191.348059 
L 588.178303 191.451664 
L 588.587542 191.821287 
L 589.201401 191.602592 
L 589.81526 192.140981 
L 590.01988 192.084454 
L 590.42912 191.466407 
L 590.633739 191.131563 
L 590.838359 191.068764 
L 591.247599 191.757267 
L 591.656838 192.3947 
L 592.066077 192.681651 
L 592.475317 193.395078 
L 592.884556 193.952038 
L 593.089176 193.888669 
L 593.703035 193.304423 
L 593.907655 193.284142 
L 594.112275 193.575084 
L 594.726134 195.101633 
L 594.930754 194.849543 
L 595.544613 192.80961 
L 595.749233 192.654854 
L 596.363092 192.925352 
L 596.567711 192.593277 
L 598.00005 187.875164 
L 598.204669 188.027232 
L 598.818528 190.336197 
L 599.023148 190.041997 
L 599.432388 187.435819 
L 599.841627 185.099487 
L 600.046247 184.671708 
L 600.250867 184.762933 
L 600.455486 185.372591 
L 601.069345 187.923708 
L 601.273965 187.936903 
L 601.887824 187.113518 
L 602.297064 187.118976 
L 602.501684 186.876823 
L 602.910923 185.771618 
L 603.524782 182.778549 
L 604.343261 179.354932 
L 604.547881 178.941733 
L 604.752501 178.886183 
L 604.95712 179.328053 
L 605.16174 180.471051 
L 605.980219 187.30843 
L 606.389458 188.350836 
L 606.798698 188.755483 
L 607.207937 189.767508 
L 607.617177 191.297804 
L 608.026416 193.758837 
L 608.640275 197.526502 
L 608.844895 197.909401 
L 609.049515 197.787307 
L 609.458754 196.62639 
L 610.277233 193.301491 
L 610.686473 192.591567 
L 610.891092 192.394374 
L 611.095712 192.034444 
L 611.504952 190.139656 
L 611.914191 188.085388 
L 612.118811 187.845108 
L 612.32343 187.926396 
L 612.52805 187.870684 
L 612.73267 187.455937 
L 613.551149 184.922657 
L 613.960388 183.80548 
L 614.574247 181.55687 
L 614.778867 181.493909 
L 615.188107 182.192674 
L 615.801966 183.584748 
L 616.825064 187.014393 
L 617.029684 187.287334 
L 617.234304 187.237242 
L 617.643543 186.085692 
L 618.052783 185.091912 
L 618.666642 184.478914 
L 618.871262 184.434768 
L 619.075881 184.660549 
L 619.89436 186.148653 
L 620.09898 186.245743 
L 620.3036 186.024604 
L 620.712839 184.285306 
L 621.735938 177.916676 
L 622.145177 175.013773 
L 622.349797 174.129951 
L 622.554417 173.787695 
L 622.759037 174.039622 
L 623.577515 176.688806 
L 624.395994 177.771775 
L 624.600614 177.727547 
L 625.214473 176.847228 
L 625.419093 177.077652 
L 626.442192 179.254748 
L 626.646811 179.395739 
L 626.851431 179.31274 
L 627.056051 179.015771 
L 627.46529 177.846384 
L 628.693009 173.37979 
L 628.897628 173.169566 
L 629.102248 173.1861 
L 629.306868 173.502781 
L 630.125347 175.662039 
L 630.943826 176.768384 
L 631.353065 177.114549 
L 631.557685 177.057778 
L 631.966924 176.358687 
L 632.376164 175.015157 
L 633.603882 169.666616 
L 634.013121 169.128389 
L 634.217741 169.074388 
L 634.422361 169.199985 
L 634.626981 169.529371 
L 635.03622 170.941319 
L 635.44546 173.649066 
L 636.263938 180.055001 
L 636.673178 181.496922 
L 637.082417 181.93358 
L 637.491657 182.068055 
L 637.696277 181.982939 
L 638.105516 181.272119 
L 638.923995 179.092824 
L 639.128615 178.90679 
L 639.333234 178.894736 
L 639.742474 179.308098 
L 640.151713 180.140442 
L 640.970192 183.051083 
L 641.174812 183.168861 
L 641.379432 183.072179 
L 641.584051 183.101908 
L 642.197911 183.908189 
L 642.81177 183.397004 
L 643.016389 183.65952 
L 643.630249 185.275257 
L 643.834868 185.340255 
L 644.039488 184.863361 
L 645.267206 179.194148 
L 645.471826 178.858164 
L 645.676446 178.895957 
L 646.290305 179.97974 
L 646.494925 179.991795 
L 646.699545 179.554731 
L 647.518023 176.154978 
L 647.722643 176.279516 
L 647.927263 176.972336 
L 648.336502 179.788983 
L 648.745742 182.656292 
L 649.154981 184.238879 
L 649.359601 184.568673 
L 649.564221 184.616077 
L 649.76884 184.400966 
L 650.996559 182.097784 
L 651.405798 180.197458 
L 652.019657 176.788665 
L 652.224277 176.123294 
L 652.428897 175.874706 
L 652.633517 176.177459 
L 653.042756 178.187743 
L 653.451996 180.166262 
L 653.656615 180.563416 
L 653.861235 180.453783 
L 654.065855 179.834188 
L 654.884334 175.654219 
L 655.088953 175.564542 
L 655.498193 176.904325 
L 655.907432 178.34983 
L 656.316672 179.109277 
L 656.521291 179.091765 
L 656.930531 178.909397 
L 657.33977 179.091113 
L 657.74901 178.850508 
L 657.95363 178.606807 
L 658.158249 178.145471 
L 658.772108 176.18316 
L 658.976728 176.213704 
L 659.385968 176.831101 
L 659.590587 176.796728 
L 659.795207 176.321464 
L 660.409066 173.33263 
L 661.022925 170.539767 
L 661.432165 170.035832 
L 662.250644 169.160074 
L 662.455264 169.394326 
L 663.069123 170.965673 
L 663.478362 171.832716 
L 663.682982 172.025509 
L 664.092221 172.001481 
L 664.296841 171.855033 
L 664.70608 171.090863 
L 665.11532 170.346648 
L 665.31994 170.353571 
L 665.729179 170.646875 
L 665.933799 170.483729 
L 666.138419 169.932552 
L 666.956897 166.559679 
L 667.161517 166.59063 
L 667.775376 167.871768 
L 667.979996 167.626439 
L 668.389236 166.669963 
L 668.593855 166.631844 
L 669.207714 167.480072 
L 669.412334 167.523078 
L 669.616954 167.363516 
L 670.026193 166.451675 
L 670.435433 164.697553 
L 671.663151 158.154618 
L 671.867771 158.077566 
L 672.072391 158.4467 
L 672.48163 160.169138 
L 672.89087 162.005852 
L 673.095489 162.481198 
L 673.300109 162.447885 
L 673.504729 161.922772 
L 674.118588 159.081527 
L 674.527827 156.928459 
L 674.732447 156.535948 
L 674.937067 156.861262 
L 675.550926 158.619457 
L 676.164785 159.288575 
L 676.778644 159.420281 
L 676.983264 159.366767 
L 677.392504 158.799626 
L 677.801743 157.594074 
L 679.029461 151.743959 
L 680.25718 143.843893 
L 680.666419 142.517143 
L 681.689518 138.112941 
L 682.303377 136.615958 
L 682.507997 136.499239 
L 682.712616 136.634122 
L 683.326476 137.623992 
L 683.531095 137.945722 
L 683.735715 137.994267 
L 683.940335 137.566488 
L 684.758814 133.482305 
L 685.168053 130.734485 
L 685.986532 123.966502 
L 686.600391 120.914055 
L 687.62349 114.314349 
L 688.646589 108.495837 
L 689.260448 103.49452 
L 689.669687 98.25162 
L 690.283546 84.876438 
L 691.102025 65.812576 
L 691.511265 61.114581 
L 691.715884 60.806453 
L 691.920504 61.868977 
L 692.329744 67.187219 
L 692.943603 76.193142 
L 693.557462 81.433598 
L 693.966701 83.652152 
L 694.171321 84.064048 
L 694.375941 83.853824 
L 694.580561 83.067988 
L 694.9898 80.154089 
L 695.39904 75.491199 
L 696.012899 64.673651 
L 697.035997 43.286733 
L 698.059096 14.288574 
L 698.508506 -1 
M 713.040275 -1 
L 713.814815 20.77824 
L 714.428674 32.47228 
L 715.042533 41.006521 
L 715.861012 48.148037 
L 716.474871 54.643078 
L 717.29335 64.025629 
L 717.70259 67.023829 
L 718.111829 68.689089 
L 718.521069 69.32025 
L 718.725688 69.630089 
L 718.930308 70.448016 
L 719.339548 74.036571 
L 719.748787 77.646548 
L 720.158026 79.380878 
L 720.567266 80.140894 
L 720.771886 80.154089 
L 721.385745 79.786339 
L 721.590365 80.015379 
L 721.999604 81.254488 
L 722.408843 82.316116 
L 722.613463 82.113793 
L 723.227322 80.498626 
L 723.431942 80.566718 
L 723.841182 81.444187 
L 725.478139 86.508384 
L 725.682759 86.80462 
L 725.887379 86.892831 
L 726.091999 86.764383 
L 726.705858 85.919658 
L 726.910477 85.985226 
L 728.138196 87.303261 
L 729.161294 91.012119 
L 729.365914 91.036391 
L 729.775154 90.581733 
L 730.184393 89.937051 
L 730.389013 89.909684 
L 730.798252 90.653736 
L 731.412111 91.914185 
L 731.821351 92.272406 
L 732.23059 92.160166 
L 732.43521 91.893008 
L 733.049069 90.415411 
L 733.253689 90.515188 
L 733.662928 91.689952 
L 734.481407 94.58756 
L 734.686027 94.682532 
L 735.095267 94.678378 
L 735.504506 95.00361 
L 735.709126 94.956776 
L 737.346084 92.07334 
L 737.550703 92.263772 
L 737.959943 93.067935 
L 738.369182 93.920235 
L 738.573802 93.954525 
L 739.392281 92.84981 
L 739.80152 92.904382 
L 740.00614 93.00872 
L 740.21076 92.968402 
L 740.415379 92.561393 
L 740.824619 90.439602 
L 741.233858 88.040879 
L 741.643098 86.954408 
L 741.847717 86.837852 
L 742.052337 86.982916 
L 742.256957 87.451909 
L 743.075436 90.123736 
L 743.280056 90.140108 
L 743.893915 89.312976 
L 744.098534 89.521408 
L 744.712394 91.489094 
L 744.917013 91.422875 
L 745.735492 89.243335 
L 746.349351 87.250726 
L 746.553971 86.967684 
L 746.758591 86.988047 
L 747.37245 87.597298 
L 747.78169 87.646495 
L 748.190929 87.992741 
L 748.395549 88.169978 
L 748.600168 88.173562 
L 748.804788 87.969121 
L 749.214028 86.90904 
L 749.623267 84.85298 
L 750.032507 81.507963 
L 750.646366 76.291778 
L 750.850985 75.622254 
L 751.055605 75.423758 
L 751.260225 75.506105 
L 752.078704 76.391067 
L 752.692563 77.58546 
L 753.101802 78.937379 
L 753.511042 80.379708 
L 753.715662 80.667228 
L 753.920281 80.579099 
L 754.329521 79.677928 
L 754.73876 78.19129 
L 755.148 75.838831 
L 755.761859 71.258614 
L 755.966479 70.447121 
L 756.171098 70.358013 
L 756.375718 70.969382 
L 756.989577 73.902178 
L 757.194197 74.125027 
L 757.603436 73.907635 
L 757.808056 74.165101 
L 758.217296 75.56027 
L 758.626535 77.015957 
L 759.035775 77.68711 
L 759.240394 77.52763 
L 760.058873 75.813337 
L 760.468113 75.731886 
L 760.672732 75.441922 
L 761.695831 72.419368 
L 762.51431 68.510223 
L 762.71893 68.128708 
L 762.923549 68.06143 
L 763.128169 68.327692 
L 763.742028 70.248462 
L 764.151268 71.454747 
L 764.355887 71.772486 
L 764.560507 71.808488 
L 764.969747 71.368735 
L 765.583606 70.615723 
L 765.788226 70.543965 
L 765.992845 70.701247 
L 766.402085 71.570977 
L 766.606704 71.604698 
L 766.811324 70.916765 
L 768.039043 63.666757 
L 769.062141 60.637361 
L 769.266761 60.501827 
L 769.676 60.894664 
L 769.88062 60.786905 
L 770.08524 60.242 
L 771.312958 55.375972 
L 771.517578 55.531787 
L 772.131437 56.598058 
L 772.336057 56.581605 
L 772.540677 56.369752 
L 772.949916 55.259416 
L 773.563775 52.619273 
L 774.586874 47.148881 
L 774.791494 47.060751 
L 774.996113 47.765626 
L 775.609972 51.330316 
L 775.814592 51.907312 
L 776.019212 52.122912 
L 776.428451 52.052865 
L 777.042311 51.537852 
L 777.45155 51.107059 
L 778.065409 50.008452 
L 778.474649 48.531507 
L 779.293128 43.841657 
L 779.906987 42.646938 
L 780.111606 42.744353 
L 780.316226 43.484903 
L 781.134705 48.359727 
L 781.339325 48.559444 
L 781.543944 48.499741 
L 781.953184 47.996457 
L 782.362423 46.964721 
L 783.180902 44.702509 
L 783.385522 44.559238 
L 783.590142 44.756593 
L 783.999381 46.365081 
L 784.61324 49.290301 
L 785.840959 51.877257 
L 786.659438 54.254396 
L 787.068677 54.934265 
L 787.273297 55.507922 
L 787.682536 57.825927 
L 788.296395 61.698745 
L 788.705635 62.720707 
L 788.910255 62.821543 
L 789.319494 62.648623 
L 789.728734 62.395637 
L 789.933353 62.37951 
L 790.342593 62.804439 
L 790.751832 63.274653 
L 790.956452 63.314157 
L 791.570311 63.025333 
L 791.774931 63.117698 
L 791.979551 63.372557 
L 792.18417 63.843505 
L 792.59341 65.753768 
L 793.002649 67.872138 
L 793.207269 68.426654 
L 793.411889 68.637042 
L 793.616508 68.556324 
L 794.230368 67.793294 
L 794.639607 68.136038 
L 795.048846 68.935477 
L 795.662706 71.19215 
L 796.685804 75.764874 
L 798.322762 81.785221 
L 799.141241 86.25043 
L 799.55048 86.830277 
L 799.7551 87.615706 
L 800.16434 91.164513 
L 800.778199 96.83788 
L 801.187438 98.439119 
L 801.596678 99.139514 
L 802.210537 100.396135 
L 802.415157 100.271923 
L 802.824396 99.672202 
L 803.029016 99.670654 
L 803.642875 100.293752 
L 803.847495 100.596667 
L 804.052114 101.10777 
L 804.461354 103.068288 
L 805.075213 107.477215 
L 806.302931 118.576583 
L 806.507551 119.189174 
L 806.712171 119.217274 
L 807.32603 117.982482 
L 807.53065 117.956825 
L 807.939889 118.62863 
L 808.553748 119.621758 
L 808.962988 119.900483 
L 809.167608 119.880527 
L 809.372227 119.589015 
L 809.781467 118.615028 
L 809.986087 118.457665 
L 810.190706 118.63987 
L 810.395326 119.076039 
L 810.599946 119.782705 
L 811.009185 122.445573 
L 811.827664 129.356176 
L 812.646143 134.000983 
L 813.464622 136.337152 
L 813.873861 137.403912 
L 814.078481 137.588235 
L 814.283101 137.571864 
L 814.487721 137.667487 
L 814.69234 138.126624 
L 815.10158 140.412538 
L 815.715439 144.421786 
L 815.920059 144.91611 
L 816.329298 145.055717 
L 817.147777 145.448228 
L 817.352397 145.813453 
L 817.557016 146.726596 
L 818.375495 152.126452 
L 818.580115 152.490699 
L 819.398594 152.610025 
L 819.603214 152.244067 
L 820.421693 149.003225 
L 821.444791 148.273345 
L 822.05865 148.067926 
L 822.26327 148.159803 
L 823.286369 149.599118 
L 823.695608 150.974983 
L 824.104848 152.507152 
L 824.718707 153.685988 
L 825.537186 156.634911 
L 825.946425 157.418548 
L 826.151045 157.654104 
L 826.355665 157.653371 
L 826.560284 157.267783 
L 827.378763 154.125578 
L 827.788003 153.640783 
L 828.197242 153.312863 
L 828.401862 152.858857 
L 828.811101 150.607967 
L 829.220341 148.055464 
L 830.652679 142.560556 
L 830.857299 142.607064 
L 831.266538 143.41196 
L 831.471158 143.493166 
L 831.675778 143.03688 
L 832.085017 141.060478 
L 833.721975 131.189875 
L 834.335834 124.070759 
L 834.745073 119.602536 
L 835.154313 117.321428 
L 835.563552 116.363812 
L 835.972792 115.875515 
L 836.177412 115.666594 
L 836.382031 115.245983 
L 836.791271 113.38516 
L 837.20051 109.563004 
L 837.814369 99.927794 
L 839.451327 72.31617 
L 841.702144 36.196939 
L 842.316003 21.776011 
L 843.134482 2.557555 
L 843.319373 -1 
M 949.296252 -1 
L 949.94598 7.723485 
L 951.173698 21.836366 
L 952.401416 41.412634 
L 953.424515 52.736073 
L 954.447614 63.951427 
L 955.266093 71.043095 
L 955.675332 74.424765 
L 956.084571 76.031869 
L 956.493811 76.803615 
L 956.90305 78.694085 
L 957.51691 82.26464 
L 957.926149 84.122449 
L 958.540008 88.991164 
L 959.767727 98.070636 
L 960.176966 99.416365 
L 960.586205 100.394751 
L 961.813924 104.569262 
L 962.837022 111.616295 
L 963.655501 118.825985 
L 964.269361 121.580485 
L 964.6786 122.835151 
L 965.087839 123.38812 
L 965.701699 123.689325 
L 966.110938 124.385158 
L 966.520178 125.202353 
L 966.929417 125.691872 
L 967.952516 128.468119 
L 968.566375 130.563194 
L 969.180234 132.169483 
L 969.794093 134.069646 
L 969.998713 134.296079 
L 970.817192 133.727228 
L 971.021812 133.428304 
L 971.635671 131.965612 
L 971.84029 131.929041 
L 972.24953 132.568347 
L 972.45415 132.470688 
L 972.863389 130.577692 
L 973.272629 128.993069 
L 973.477248 129.099688 
L 973.886488 130.453643 
L 974.295727 131.993387 
L 974.500347 132.382069 
L 974.704967 132.259079 
L 974.909586 131.543046 
L 975.523445 127.992936 
L 975.728065 127.734085 
L 976.341924 128.80728 
L 977.160403 128.339671 
L 977.569643 128.631753 
L 977.978882 129.570391 
L 978.592741 131.948426 
L 979.206601 134.723695 
L 979.82046 136.254398 
L 980.229699 137.328652 
L 981.662037 142.277841 
L 981.866657 142.568945 
L 982.071277 142.524962 
L 982.480516 141.638453 
L 983.708235 138.074985 
L 984.322094 136.893298 
L 984.731333 135.197168 
L 985.140573 133.527348 
L 985.345192 133.261085 
L 985.959052 133.63755 
L 986.572911 132.637499 
L 986.77753 132.901643 
L 987.18677 134.27588 
L 987.39139 134.432591 
L 987.596009 133.980865 
L 988.414488 130.844362 
L 989.028347 130.029203 
L 989.232967 129.24076 
L 989.642207 126.14881 
L 990.460686 119.695227 
L 990.869925 117.055817 
L 991.279164 112.327604 
L 991.893024 101.013124 
L 992.506883 86.664281 
L 993.529981 59.394831 
L 993.734601 57.345694 
L 993.939221 57.192078 
L 994.143841 58.678228 
L 995.780798 77.778254 
L 995.985418 78.527193 
L 996.190038 78.809175 
L 996.599277 78.758513 
L 997.008517 78.613042 
L 997.213137 78.813411 
L 997.417756 79.506475 
L 998.440855 85.140419 
L 998.645475 85.746738 
L 998.850094 85.883576 
L 999.054714 85.437552 
L 999.463954 83.070513 
L 1000.077813 77.299568 
L 1000.487052 72.206048 
L 1001.100911 61.174854 
L 1001.510151 49.847424 
L 1001.91939 32.037007 
L 1002.482086 -1 
M 1004.245957 -1 
L 1005.193306 32.702378 
L 1006.011785 54.864706 
L 1006.830264 71.492214 
L 1008.057982 89.223543 
L 1008.467222 93.481297 
L 1008.876461 95.181662 
L 1009.2857 96.119485 
L 1009.69494 96.59703 
L 1009.89956 96.679784 
L 1010.104179 96.398535 
L 1010.308799 95.489219 
L 1010.718039 91.555232 
L 1011.945757 73.960659 
L 1012.354996 68.970501 
L 1012.559616 68.351964 
L 1012.764236 69.470527 
L 1013.173475 76.298213 
L 1014.401194 103.057781 
L 1015.424292 120.595013 
L 1016.85663 139.471864 
L 1017.470489 145.710662 
L 1017.879729 147.908039 
L 1019.516687 153.099136 
L 1020.539785 158.508766 
L 1020.744405 158.806712 
L 1020.949025 158.641856 
L 1021.153645 158.322162 
L 1021.358264 158.252522 
L 1021.562884 158.605448 
L 1022.176743 160.033523 
L 1022.585983 160.472868 
L 1023.199842 160.819278 
L 1023.404462 161.170819 
L 1023.813701 162.79462 
L 1024.42756 165.616643 
L 1024.63218 165.856678 
L 1024.8368 165.554496 
L 1025.246039 164.686068 
L 1025.450659 164.707327 
L 1025.859898 165.204828 
L 1026.064518 165.201977 
L 1026.269138 164.89051 
L 1027.292236 162.449106 
L 1027.496856 162.498628 
L 1027.701476 162.808955 
L 1027.906096 163.524663 
L 1028.315335 166.386677 
L 1028.929194 170.718877 
L 1029.133814 171.054536 
L 1029.338434 170.689474 
L 1029.747673 168.538279 
L 1030.566152 164.009539 
L 1031.180011 162.485515 
L 1031.79387 160.733673 
L 1031.99849 160.5162 
L 1032.20311 160.537051 
L 1032.40773 160.813332 
L 1032.816969 162.394371 
L 1033.840068 167.954522 
L 1034.453927 168.418872 
L 1035.272406 170.186515 
L 1035.477025 170.168841 
L 1036.090885 169.362234 
L 1036.295504 169.484085 
L 1037.113983 170.696641 
L 1037.523223 170.826636 
L 1038.137082 170.968279 
L 1038.546321 171.719499 
L 1039.56942 174.341316 
L 1039.978659 174.88508 
L 1040.387899 175.267899 
L 1041.206378 176.542602 
L 1041.410998 176.399738 
L 1041.615617 175.853122 
L 1042.434096 172.366788 
L 1042.638716 172.277762 
L 1043.866434 173.040304 
L 1044.071054 173.416606 
L 1044.480293 175.072743 
L 1045.094153 177.980126 
L 1045.503392 178.807583 
L 1045.708012 178.983761 
L 1045.912632 178.828923 
L 1046.321871 177.215466 
L 1046.526491 176.345247 
L 1046.73111 175.976113 
L 1046.93573 176.18259 
L 1047.754209 178.084708 
L 1048.163449 178.575204 
L 1048.572688 178.646555 
L 1048.981927 178.586689 
L 1049.186547 178.693389 
L 1049.800406 179.368208 
L 1050.005026 179.155866 
L 1050.823505 176.776529 
L 1051.028125 176.823607 
L 1051.437364 177.305307 
L 1051.641984 177.220353 
L 1052.051223 176.658507 
L 1052.255843 176.720165 
L 1052.460463 177.24601 
L 1053.278942 180.364025 
L 1054.30204 184.099191 
L 1054.50666 183.886767 
L 1054.71128 182.969958 
L 1055.529759 177.428786 
L 1055.734378 177.421618 
L 1056.143618 178.591495 
L 1056.962097 180.991521 
L 1057.166716 181.021902 
L 1057.575956 179.89438 
L 1057.780576 179.310053 
L 1057.985195 179.07466 
L 1058.189815 179.207588 
L 1059.008294 180.693411 
L 1059.622153 181.699083 
L 1060.031393 181.824354 
L 1060.645252 182.345557 
L 1060.849872 182.144781 
L 1061.054491 181.615189 
L 1061.463731 179.457234 
L 1062.07759 174.966938 
L 1062.28221 174.171735 
L 1062.486829 174.125553 
L 1062.691449 174.792715 
L 1063.305308 178.62774 
L 1063.919167 182.440447 
L 1064.123787 182.988936 
L 1064.328407 183.144344 
L 1065.556125 182.775943 
L 1065.965365 182.544378 
L 1066.374604 182.841348 
L 1066.783844 183.521787 
L 1067.397703 185.645858 
L 1067.602323 185.785383 
L 1067.806942 185.469843 
L 1068.216182 183.958363 
L 1069.034661 180.12236 
L 1069.23928 179.70574 
L 1069.4439 179.789227 
L 1069.64852 180.441321 
L 1070.671618 185.718431 
L 1070.876238 186.076977 
L 1071.080858 185.809085 
L 1071.490097 183.544186 
L 1071.899337 180.962117 
L 1072.308576 179.498937 
L 1072.717816 178.848064 
L 1072.922435 178.923895 
L 1073.127055 179.314858 
L 1074.559393 183.686562 
L 1074.764013 183.497677 
L 1075.173252 182.054452 
L 1075.991731 178.205174 
L 1076.196351 178.02248 
L 1076.400971 178.399923 
L 1076.81021 179.797617 
L 1077.21945 182.138428 
L 1077.628689 184.90034 
L 1077.833309 185.60163 
L 1078.037929 185.774632 
L 1078.447168 185.449399 
L 1078.856408 185.093052 
L 1079.061027 185.039621 
L 1079.265647 185.25351 
L 1080.084126 187.07768 
L 1080.288746 187.072467 
L 1080.493365 187.206861 
L 1081.107225 188.81649 
L 1081.311844 188.758497 
L 1081.721084 186.989062 
L 1082.130323 185.554796 
L 1082.539563 185.286335 
L 1083.153422 185.003864 
L 1083.562661 184.340855 
L 1083.971901 183.626695 
L 1084.17652 183.61236 
L 1084.58576 184.227313 
L 1084.994999 185.392139 
L 1085.404239 186.658372 
L 1085.608859 186.987596 
L 1085.813478 187.100731 
L 1086.018098 186.906145 
L 1086.222718 186.270341 
L 1087.041197 182.317294 
L 1087.245816 182.348978 
L 1087.450436 183.03235 
L 1088.268915 187.787767 
L 1089.087394 192.362201 
L 1089.292014 192.993118 
L 1089.496633 193.178337 
L 1089.701253 192.948728 
L 1090.110492 191.712876 
L 1091.542831 185.640808 
L 1092.15669 184.263721 
L 1093.384408 180.669302 
L 1093.589028 180.29805 
L 1093.998267 178.840164 
L 1094.407507 177.338294 
L 1094.612126 177.080991 
L 1095.021366 177.157229 
L 1095.430605 177.500788 
L 1095.839845 178.505727 
L 1096.249084 179.415043 
L 1096.453704 179.294414 
L 1096.862943 177.997719 
L 1097.886042 173.25175 
L 1098.090662 173.238473 
L 1098.295282 173.584883 
L 1098.704521 175.092128 
L 1099.31838 177.715248 
L 1099.932239 178.704874 
L 1100.136859 178.734766 
L 1100.341479 178.419715 
L 1101.159958 176.294992 
L 1101.569197 175.925776 
L 1101.978437 175.875765 
L 1102.183056 175.871367 
L 1103.001535 175.413533 
L 1104.024634 175.903051 
L 1104.638493 176.73955 
L 1104.843113 176.529489 
L 1105.252352 175.202901 
L 1105.866211 173.260954 
L 1106.480071 171.945851 
L 1107.29855 168.5035 
L 1107.503169 168.613621 
L 1107.912409 169.463722 
L 1108.117028 169.567246 
L 1108.321648 169.262702 
L 1108.730888 167.502471 
L 1110.163226 159.08845 
L 1110.367845 158.742855 
L 1110.572465 158.786838 
L 1111.186324 159.552719 
L 1111.390944 159.118343 
L 1111.595564 158.047429 
L 1112.004803 154.153353 
L 1114.46024 123.864607 
L 1116.915677 84.858437 
L 1117.938775 66.669681 
L 1118.757254 56.898041 
L 1119.166494 51.483361 
L 1119.575733 42.328954 
L 1119.984973 26.83304 
L 1120.475415 -1 
M 1125.978626 -1 
L 1126.532804 42.390368 
L 1127.146663 71.152321 
L 1128.169762 107.539769 
L 1128.783621 122.856899 
L 1130.011339 147.505591 
L 1130.829818 157.060817 
L 1131.443677 163.67893 
L 1131.852917 166.068531 
L 1132.466776 169.200229 
L 1133.489875 175.334851 
L 1134.103734 178.236125 
L 1134.308353 178.63108 
L 1134.512973 178.535131 
L 1135.536072 176.541462 
L 1135.740692 176.469867 
L 1136.149931 176.713812 
L 1136.354551 176.84006 
L 1136.55917 176.784511 
L 1136.96841 176.044694 
L 1137.377649 174.753863 
L 1138.196128 171.21646 
L 1138.400748 170.992552 
L 1138.605368 171.183065 
L 1138.809987 171.708829 
L 1139.219227 173.649473 
L 1139.833086 176.642379 
L 1140.651565 180.40589 
L 1141.060804 182.619313 
L 1141.265424 183.293806 
L 1141.470044 183.551435 
L 1141.674664 183.47707 
L 1142.083903 182.742304 
L 1142.493143 181.080546 
L 1142.902382 179.357131 
L 1143.107002 179.194963 
L 1143.311621 179.65125 
L 1143.720861 181.915009 
L 1144.1301 184.211186 
L 1144.33472 184.684414 
L 1144.53934 184.597099 
L 1144.74396 183.959666 
L 1145.562438 180.174896 
L 1146.176298 178.507275 
L 1146.585537 177.0691 
L 1146.790157 176.693367 
L 1146.994777 176.592369 
L 1147.199396 176.732545 
L 1147.404016 177.286247 
L 1147.813255 180.058503 
L 1148.222495 182.525726 
L 1148.427115 182.849085 
L 1148.631734 182.716321 
L 1149.450213 181.349822 
L 1149.654833 181.401218 
L 1150.268692 181.976667 
L 1150.473312 181.733292 
L 1150.882551 180.949004 
L 1151.087171 180.872929 
L 1151.291791 181.137236 
L 1151.70103 182.683659 
L 1152.314889 185.346934 
L 1152.519509 185.687154 
L 1152.724129 185.622482 
L 1153.542608 184.336538 
L 1153.951847 184.238064 
L 1154.156467 184.296709 
L 1154.361087 184.571605 
L 1154.565706 185.236731 
L 1155.588805 190.600911 
L 1155.793425 190.519216 
L 1155.998045 189.86981 
L 1156.611904 186.84017 
L 1157.021143 185.966122 
L 1157.225763 185.782451 
L 1157.430383 185.772351 
L 1158.453481 186.613492 
L 1158.862721 187.55099 
L 1160.499679 192.811891 
L 1160.704298 193.023255 
L 1160.908918 192.872164 
L 1161.318157 192.012289 
L 1161.727397 190.662162 
L 1162.136636 189.12364 
L 1162.341256 188.923108 
L 1162.545876 189.328977 
L 1163.364355 192.566724 
L 1163.568974 192.311132 
L 1163.978214 190.981693 
L 1164.182834 190.686923 
L 1164.387453 190.773505 
L 1165.001313 191.324112 
L 1165.819791 191.831061 
L 1166.024411 191.5806 
L 1167.661369 187.523785 
L 1168.479848 184.091046 
L 1168.684468 183.933439 
L 1168.889087 184.320574 
L 1169.502946 186.452057 
L 1169.707566 186.661956 
L 1170.321425 186.791299 
L 1170.730665 187.382143 
L 1171.139904 188.022508 
L 1171.344524 187.932831 
L 1171.549144 187.378477 
L 1172.163003 184.746887 
L 1172.367623 184.613796 
L 1172.572242 185.009077 
L 1173.595341 189.065321 
L 1173.799961 189.24769 
L 1174.00458 189.096191 
L 1174.61844 188.321351 
L 1175.027679 188.179219 
L 1175.436919 188.2983 
L 1175.846158 188.378611 
L 1176.050778 188.161952 
L 1176.460017 187.054385 
L 1177.278496 184.20304 
L 1177.483116 184.152215 
L 1177.687736 184.654033 
L 1178.096975 187.206779 
L 1178.710834 192.024995 
L 1179.120074 193.75175 
L 1179.324693 194.074621 
L 1179.529313 194.056539 
L 1179.733933 193.617112 
L 1180.552412 190.466925 
L 1180.757031 190.743287 
L 1181.370891 192.360328 
L 1181.78013 192.621459 
L 1182.18937 192.589042 
L 1182.598609 192.447806 
L 1183.007848 192.661207 
L 1183.212468 192.57438 
L 1183.417088 192.092681 
L 1183.826327 189.760503 
L 1184.440187 184.534871 
L 1184.644806 183.725495 
L 1184.849426 183.713196 
L 1184.849426 183.713196 
" clip-path="url(#p48018e6874)" style="fill: none; stroke: #000000; stroke-width: 2; stroke-linecap: square"/>
   </g>
   <g id="patch_3">
    <path d="M 3.00024 198.907885 
L 1184.99976 198.907885 
" style="fill: none; stroke: #000000; stroke-width: 2; stroke-linejoin: miter; stroke-linecap: square"/>
   </g>
  </g>
 </g>
 <defs>
  <clipPath id="p48018e6874">
   <rect x="3.00024" y="3.00024" width="1181.99952" height="195.907645"/>
  </clipPath>
 </defs>
</svg>
