<?xml version="1.0" encoding="utf-8" standalone="no"?>
<!DOCTYPE svg PUBLIC "-//W3C//DTD SVG 1.1//EN"
  "http://www.w3.org/Graphics/SVG/1.1/DTD/svg11.dtd">
<svg xmlns:xlink="http://www.w3.org/1999/xlink" width="1188pt" height="252pt" viewBox="0 0 1188 252" xmlns="http://www.w3.org/2000/svg" version="1.1">
 <metadata>
  <rdf:RDF xmlns:dc="http://purl.org/dc/elements/1.1/" xmlns:cc="http://creativecommons.org/ns#" xmlns:rdf="http://www.w3.org/1999/02/22-rdf-syntax-ns#">
   <cc:Work>
    <dc:type rdf:resource="http://purl.org/dc/dcmitype/StillImage"/>
    <dc:date>2024-07-23T21:43:37.120889</dc:date>
    <dc:format>image/svg+xml</dc:format>
    <dc:creator>
     <cc:Agent>
      <dc:title>Matplotlib v3.8.4, https://matplotlib.org/</dc:title>
     </cc:Agent>
    </dc:creator>
   </cc:Work>
  </rdf:RDF>
 </metadata>
 <defs>
  <style type="text/css">*{stroke-linejoin: round; stroke-linecap: butt}</style>
 </defs>
 <g id="figure_1">
  <g id="patch_1">
   <path d="M 0 252 
L 1188 252 
L 1188 0 
L 0 0 
z
" style="fill: #ffffff"/>
  </g>
  <g id="axes_1">
   <g id="patch_2">
    <path d="M 3.00024 198.907885 
L 1184.99976 198.907885 
L 1184.99976 3.00024 
L 3.00024 3.00024 
z
" style="fill: #ffffff"/>
   </g>
   <g id="matplotlib.axis_1">
    <g id="xtick_1">
     <g id="line2d_1">
      <defs>
       <path id="mb094b6034b" d="M 0 0 
L 0 8 
" style="stroke: #000000; stroke-width: 2"/>
      </defs>
      <g>
       <use xlink:href="#mb094b6034b" x="1131.272509" y="198.907885" style="stroke: #000000; stroke-width: 2"/>
      </g>
     </g>
     <g id="text_1">
      <!-- 0 -->
      <g transform="translate(1126.267665 224.791947) scale(0.18 -0.18)">
       <defs>
        <path id="Arial-BoldMT-30" d="M 1756 4600 
Q 2422 4600 2797 4125 
Q 3244 3563 3244 2259 
Q 3244 959 2794 391 
Q 2422 -78 1756 -78 
Q 1088 -78 678 436 
Q 269 950 269 2269 
Q 269 3563 719 4131 
Q 1091 4600 1756 4600 
z
M 1756 3872 
Q 1597 3872 1472 3770 
Q 1347 3669 1278 3406 
Q 1188 3066 1188 2259 
Q 1188 1453 1269 1151 
Q 1350 850 1473 750 
Q 1597 650 1756 650 
Q 1916 650 2041 751 
Q 2166 853 2234 1116 
Q 2325 1453 2325 2259 
Q 2325 3066 2244 3367 
Q 2163 3669 2039 3770 
Q 1916 3872 1756 3872 
z
" transform="scale(0.015625)"/>
       </defs>
       <use xlink:href="#Arial-BoldMT-30"/>
      </g>
     </g>
    </g>
    <g id="xtick_2">
     <g id="line2d_2">
      <g>
       <use xlink:href="#mb094b6034b" x="1023.818007" y="198.907885" style="stroke: #000000; stroke-width: 2"/>
      </g>
     </g>
     <g id="text_2">
      <!-- 1 -->
      <g transform="translate(1018.813164 224.791947) scale(0.18 -0.18)">
       <defs>
        <path id="Arial-BoldMT-31" d="M 2519 0 
L 1641 0 
L 1641 3309 
Q 1159 2859 506 2644 
L 506 3441 
Q 850 3553 1253 3867 
Q 1656 4181 1806 4600 
L 2519 4600 
L 2519 0 
z
" transform="scale(0.015625)"/>
       </defs>
       <use xlink:href="#Arial-BoldMT-31"/>
      </g>
     </g>
    </g>
    <g id="xtick_3">
     <g id="line2d_3">
      <g>
       <use xlink:href="#mb094b6034b" x="916.363505" y="198.907885" style="stroke: #000000; stroke-width: 2"/>
      </g>
     </g>
     <g id="text_3">
      <!-- 2 -->
      <g transform="translate(911.358662 224.791947) scale(0.18 -0.18)">
       <defs>
        <path id="Arial-BoldMT-32" d="M 3238 816 
L 3238 0 
L 159 0 
Q 209 463 459 877 
Q 709 1291 1447 1975 
Q 2041 2528 2175 2725 
Q 2356 2997 2356 3263 
Q 2356 3556 2198 3714 
Q 2041 3872 1763 3872 
Q 1488 3872 1325 3706 
Q 1163 3541 1138 3156 
L 263 3244 
Q 341 3969 753 4284 
Q 1166 4600 1784 4600 
Q 2463 4600 2850 4234 
Q 3238 3869 3238 3325 
Q 3238 3016 3127 2736 
Q 3016 2456 2775 2150 
Q 2616 1947 2200 1565 
Q 1784 1184 1673 1059 
Q 1563 934 1494 816 
L 3238 816 
z
" transform="scale(0.015625)"/>
       </defs>
       <use xlink:href="#Arial-BoldMT-32"/>
      </g>
     </g>
    </g>
    <g id="xtick_4">
     <g id="line2d_4">
      <g>
       <use xlink:href="#mb094b6034b" x="808.909004" y="198.907885" style="stroke: #000000; stroke-width: 2"/>
      </g>
     </g>
     <g id="text_4">
      <!-- 3 -->
      <g transform="translate(803.90416 224.791947) scale(0.18 -0.18)">
       <defs>
        <path id="Arial-BoldMT-33" d="M 241 1216 
L 1091 1319 
Q 1131 994 1309 822 
Q 1488 650 1741 650 
Q 2013 650 2198 856 
Q 2384 1063 2384 1413 
Q 2384 1744 2206 1937 
Q 2028 2131 1772 2131 
Q 1603 2131 1369 2066 
L 1466 2781 
Q 1822 2772 2009 2936 
Q 2197 3100 2197 3372 
Q 2197 3603 2059 3740 
Q 1922 3878 1694 3878 
Q 1469 3878 1309 3722 
Q 1150 3566 1116 3266 
L 306 3403 
Q 391 3819 561 4067 
Q 731 4316 1036 4458 
Q 1341 4600 1719 4600 
Q 2366 4600 2756 4188 
Q 3078 3850 3078 3425 
Q 3078 2822 2419 2463 
Q 2813 2378 3048 2084 
Q 3284 1791 3284 1375 
Q 3284 772 2843 347 
Q 2403 -78 1747 -78 
Q 1125 -78 715 280 
Q 306 638 241 1216 
z
" transform="scale(0.015625)"/>
       </defs>
       <use xlink:href="#Arial-BoldMT-33"/>
      </g>
     </g>
    </g>
    <g id="xtick_5">
     <g id="line2d_5">
      <g>
       <use xlink:href="#mb094b6034b" x="701.454502" y="198.907885" style="stroke: #000000; stroke-width: 2"/>
      </g>
     </g>
     <g id="text_5">
      <!-- 4 -->
      <g transform="translate(696.449658 224.791947) scale(0.18 -0.18)">
       <defs>
        <path id="Arial-BoldMT-34" d="M 1994 0 
L 1994 922 
L 119 922 
L 119 1691 
L 2106 4600 
L 2844 4600 
L 2844 1694 
L 3413 1694 
L 3413 922 
L 2844 922 
L 2844 0 
L 1994 0 
z
M 1994 1694 
L 1994 3259 
L 941 1694 
L 1994 1694 
z
" transform="scale(0.015625)"/>
       </defs>
       <use xlink:href="#Arial-BoldMT-34"/>
      </g>
     </g>
    </g>
    <g id="xtick_6">
     <g id="line2d_6">
      <g>
       <use xlink:href="#mb094b6034b" x="594" y="198.907885" style="stroke: #000000; stroke-width: 2"/>
      </g>
     </g>
     <g id="text_6">
      <!-- 5 -->
      <g transform="translate(588.995156 224.791947) scale(0.18 -0.18)">
       <defs>
        <path id="Arial-BoldMT-35" d="M 284 1178 
L 1159 1269 
Q 1197 972 1381 798 
Q 1566 625 1806 625 
Q 2081 625 2272 848 
Q 2463 1072 2463 1522 
Q 2463 1944 2273 2155 
Q 2084 2366 1781 2366 
Q 1403 2366 1103 2031 
L 391 2134 
L 841 4519 
L 3163 4519 
L 3163 3697 
L 1506 3697 
L 1369 2919 
Q 1663 3066 1969 3066 
Q 2553 3066 2959 2641 
Q 3366 2216 3366 1538 
Q 3366 972 3038 528 
Q 2591 -78 1797 -78 
Q 1163 -78 763 262 
Q 363 603 284 1178 
z
" transform="scale(0.015625)"/>
       </defs>
       <use xlink:href="#Arial-BoldMT-35"/>
      </g>
     </g>
    </g>
    <g id="xtick_7">
     <g id="line2d_7">
      <g>
       <use xlink:href="#mb094b6034b" x="486.545498" y="198.907885" style="stroke: #000000; stroke-width: 2"/>
      </g>
     </g>
     <g id="text_7">
      <!-- 6 -->
      <g transform="translate(481.540654 224.791947) scale(0.18 -0.18)">
       <defs>
        <path id="Arial-BoldMT-36" d="M 3247 3459 
L 2397 3366 
Q 2366 3628 2234 3753 
Q 2103 3878 1894 3878 
Q 1616 3878 1423 3628 
Q 1231 3378 1181 2588 
Q 1509 2975 1997 2975 
Q 2547 2975 2939 2556 
Q 3331 2138 3331 1475 
Q 3331 772 2918 347 
Q 2506 -78 1859 -78 
Q 1166 -78 719 461 
Q 272 1000 272 2228 
Q 272 3488 737 4044 
Q 1203 4600 1947 4600 
Q 2469 4600 2811 4308 
Q 3153 4016 3247 3459 
z
M 1256 1544 
Q 1256 1116 1453 883 
Q 1650 650 1903 650 
Q 2147 650 2309 840 
Q 2472 1031 2472 1466 
Q 2472 1913 2297 2120 
Q 2122 2328 1859 2328 
Q 1606 2328 1431 2129 
Q 1256 1931 1256 1544 
z
" transform="scale(0.015625)"/>
       </defs>
       <use xlink:href="#Arial-BoldMT-36"/>
      </g>
     </g>
    </g>
    <g id="xtick_8">
     <g id="line2d_8">
      <g>
       <use xlink:href="#mb094b6034b" x="379.090996" y="198.907885" style="stroke: #000000; stroke-width: 2"/>
      </g>
     </g>
     <g id="text_8">
      <!-- 7 -->
      <g transform="translate(374.086153 224.791947) scale(0.18 -0.18)">
       <defs>
        <path id="Arial-BoldMT-37" d="M 272 3703 
L 272 4519 
L 3275 4519 
L 3275 3881 
Q 2903 3516 2518 2831 
Q 2134 2147 1932 1376 
Q 1731 606 1734 0 
L 888 0 
Q 909 950 1279 1937 
Q 1650 2925 2269 3703 
L 272 3703 
z
" transform="scale(0.015625)"/>
       </defs>
       <use xlink:href="#Arial-BoldMT-37"/>
      </g>
     </g>
    </g>
    <g id="xtick_9">
     <g id="line2d_9">
      <g>
       <use xlink:href="#mb094b6034b" x="271.636495" y="198.907885" style="stroke: #000000; stroke-width: 2"/>
      </g>
     </g>
     <g id="text_9">
      <!-- 8 -->
      <g transform="translate(266.631651 224.791947) scale(0.18 -0.18)">
       <defs>
        <path id="Arial-BoldMT-38" d="M 1025 2472 
Q 684 2616 529 2867 
Q 375 3119 375 3419 
Q 375 3931 733 4265 
Q 1091 4600 1750 4600 
Q 2403 4600 2764 4265 
Q 3125 3931 3125 3419 
Q 3125 3100 2959 2851 
Q 2794 2603 2494 2472 
Q 2875 2319 3073 2025 
Q 3272 1731 3272 1347 
Q 3272 713 2867 316 
Q 2463 -81 1791 -81 
Q 1166 -81 750 247 
Q 259 634 259 1309 
Q 259 1681 443 1992 
Q 628 2303 1025 2472 
z
M 1206 3356 
Q 1206 3094 1354 2947 
Q 1503 2800 1750 2800 
Q 2000 2800 2150 2948 
Q 2300 3097 2300 3359 
Q 2300 3606 2151 3754 
Q 2003 3903 1759 3903 
Q 1506 3903 1356 3753 
Q 1206 3603 1206 3356 
z
M 1125 1394 
Q 1125 1031 1311 828 
Q 1497 625 1775 625 
Q 2047 625 2225 820 
Q 2403 1016 2403 1384 
Q 2403 1706 2222 1901 
Q 2041 2097 1763 2097 
Q 1441 2097 1283 1875 
Q 1125 1653 1125 1394 
z
" transform="scale(0.015625)"/>
       </defs>
       <use xlink:href="#Arial-BoldMT-38"/>
      </g>
     </g>
    </g>
    <g id="xtick_10">
     <g id="line2d_10">
      <g>
       <use xlink:href="#mb094b6034b" x="164.181993" y="198.907885" style="stroke: #000000; stroke-width: 2"/>
      </g>
     </g>
     <g id="text_10">
      <!-- 9 -->
      <g transform="translate(159.177149 224.791947) scale(0.18 -0.18)">
       <defs>
        <path id="Arial-BoldMT-39" d="M 291 1059 
L 1141 1153 
Q 1172 894 1303 769 
Q 1434 644 1650 644 
Q 1922 644 2112 894 
Q 2303 1144 2356 1931 
Q 2025 1547 1528 1547 
Q 988 1547 595 1964 
Q 203 2381 203 3050 
Q 203 3747 617 4173 
Q 1031 4600 1672 4600 
Q 2369 4600 2816 4061 
Q 3263 3522 3263 2288 
Q 3263 1031 2797 475 
Q 2331 -81 1584 -81 
Q 1047 -81 715 205 
Q 384 491 291 1059 
z
M 2278 2978 
Q 2278 3403 2083 3637 
Q 1888 3872 1631 3872 
Q 1388 3872 1227 3680 
Q 1066 3488 1066 3050 
Q 1066 2606 1241 2398 
Q 1416 2191 1678 2191 
Q 1931 2191 2104 2391 
Q 2278 2591 2278 2978 
z
" transform="scale(0.015625)"/>
       </defs>
       <use xlink:href="#Arial-BoldMT-39"/>
      </g>
     </g>
    </g>
    <g id="xtick_11">
     <g id="line2d_11">
      <g>
       <use xlink:href="#mb094b6034b" x="56.727491" y="198.907885" style="stroke: #000000; stroke-width: 2"/>
      </g>
     </g>
     <g id="text_11">
      <!-- 10 -->
      <g transform="translate(46.717803 224.791947) scale(0.18 -0.18)">
       <use xlink:href="#Arial-BoldMT-31"/>
       <use xlink:href="#Arial-BoldMT-30" x="55.615234"/>
      </g>
     </g>
    </g>
    <g id="text_12">
     <!-- Chemical Shift / ppm -->
     <g transform="translate(504.992813 245.447573) scale(0.18 -0.18)">
      <defs>
       <path id="Arial-BoldMT-43" d="M 3397 1684 
L 4294 1400 
Q 4088 650 3608 286 
Q 3128 -78 2391 -78 
Q 1478 -78 890 545 
Q 303 1169 303 2250 
Q 303 3394 893 4026 
Q 1484 4659 2447 4659 
Q 3288 4659 3813 4163 
Q 4125 3869 4281 3319 
L 3366 3100 
Q 3284 3456 3026 3662 
Q 2769 3869 2400 3869 
Q 1891 3869 1573 3503 
Q 1256 3138 1256 2319 
Q 1256 1450 1568 1081 
Q 1881 713 2381 713 
Q 2750 713 3015 947 
Q 3281 1181 3397 1684 
z
" transform="scale(0.015625)"/>
       <path id="Arial-BoldMT-68" d="M 1334 4581 
L 1334 2897 
Q 1759 3394 2350 3394 
Q 2653 3394 2897 3281 
Q 3141 3169 3264 2994 
Q 3388 2819 3433 2606 
Q 3478 2394 3478 1947 
L 3478 0 
L 2600 0 
L 2600 1753 
Q 2600 2275 2550 2415 
Q 2500 2556 2373 2639 
Q 2247 2722 2056 2722 
Q 1838 2722 1666 2615 
Q 1494 2509 1414 2295 
Q 1334 2081 1334 1663 
L 1334 0 
L 456 0 
L 456 4581 
L 1334 4581 
z
" transform="scale(0.015625)"/>
       <path id="Arial-BoldMT-65" d="M 2381 1056 
L 3256 909 
Q 3088 428 2723 176 
Q 2359 -75 1813 -75 
Q 947 -75 531 491 
Q 203 944 203 1634 
Q 203 2459 634 2926 
Q 1066 3394 1725 3394 
Q 2466 3394 2894 2905 
Q 3322 2416 3303 1406 
L 1103 1406 
Q 1113 1016 1316 798 
Q 1519 581 1822 581 
Q 2028 581 2168 693 
Q 2309 806 2381 1056 
z
M 2431 1944 
Q 2422 2325 2234 2523 
Q 2047 2722 1778 2722 
Q 1491 2722 1303 2513 
Q 1116 2303 1119 1944 
L 2431 1944 
z
" transform="scale(0.015625)"/>
       <path id="Arial-BoldMT-6d" d="M 394 3319 
L 1203 3319 
L 1203 2866 
Q 1638 3394 2238 3394 
Q 2556 3394 2790 3262 
Q 3025 3131 3175 2866 
Q 3394 3131 3647 3262 
Q 3900 3394 4188 3394 
Q 4553 3394 4806 3245 
Q 5059 3097 5184 2809 
Q 5275 2597 5275 2122 
L 5275 0 
L 4397 0 
L 4397 1897 
Q 4397 2391 4306 2534 
Q 4184 2722 3931 2722 
Q 3747 2722 3584 2609 
Q 3422 2497 3350 2280 
Q 3278 2063 3278 1594 
L 3278 0 
L 2400 0 
L 2400 1819 
Q 2400 2303 2353 2443 
Q 2306 2584 2207 2653 
Q 2109 2722 1941 2722 
Q 1738 2722 1575 2612 
Q 1413 2503 1342 2297 
Q 1272 2091 1272 1613 
L 1272 0 
L 394 0 
L 394 3319 
z
" transform="scale(0.015625)"/>
       <path id="Arial-BoldMT-69" d="M 459 3769 
L 459 4581 
L 1338 4581 
L 1338 3769 
L 459 3769 
z
M 459 0 
L 459 3319 
L 1338 3319 
L 1338 0 
L 459 0 
z
" transform="scale(0.015625)"/>
       <path id="Arial-BoldMT-63" d="M 3353 2338 
L 2488 2181 
Q 2444 2441 2289 2572 
Q 2134 2703 1888 2703 
Q 1559 2703 1364 2476 
Q 1169 2250 1169 1719 
Q 1169 1128 1367 884 
Q 1566 641 1900 641 
Q 2150 641 2309 783 
Q 2469 925 2534 1272 
L 3397 1125 
Q 3263 531 2881 228 
Q 2500 -75 1859 -75 
Q 1131 -75 698 384 
Q 266 844 266 1656 
Q 266 2478 700 2936 
Q 1134 3394 1875 3394 
Q 2481 3394 2839 3133 
Q 3197 2872 3353 2338 
z
" transform="scale(0.015625)"/>
       <path id="Arial-BoldMT-61" d="M 1116 2306 
L 319 2450 
Q 453 2931 781 3162 
Q 1109 3394 1756 3394 
Q 2344 3394 2631 3255 
Q 2919 3116 3036 2902 
Q 3153 2688 3153 2116 
L 3144 1091 
Q 3144 653 3186 445 
Q 3228 238 3344 0 
L 2475 0 
Q 2441 88 2391 259 
Q 2369 338 2359 363 
Q 2134 144 1878 34 
Q 1622 -75 1331 -75 
Q 819 -75 523 203 
Q 228 481 228 906 
Q 228 1188 362 1408 
Q 497 1628 739 1745 
Q 981 1863 1438 1950 
Q 2053 2066 2291 2166 
L 2291 2253 
Q 2291 2506 2166 2614 
Q 2041 2722 1694 2722 
Q 1459 2722 1328 2630 
Q 1197 2538 1116 2306 
z
M 2291 1594 
Q 2122 1538 1756 1459 
Q 1391 1381 1278 1306 
Q 1106 1184 1106 997 
Q 1106 813 1243 678 
Q 1381 544 1594 544 
Q 1831 544 2047 700 
Q 2206 819 2256 991 
Q 2291 1103 2291 1419 
L 2291 1594 
z
" transform="scale(0.015625)"/>
       <path id="Arial-BoldMT-6c" d="M 459 0 
L 459 4581 
L 1338 4581 
L 1338 0 
L 459 0 
z
" transform="scale(0.015625)"/>
       <path id="Arial-BoldMT-20" transform="scale(0.015625)"/>
       <path id="Arial-BoldMT-53" d="M 231 1491 
L 1131 1578 
Q 1213 1125 1461 912 
Q 1709 700 2131 700 
Q 2578 700 2804 889 
Q 3031 1078 3031 1331 
Q 3031 1494 2936 1608 
Q 2841 1722 2603 1806 
Q 2441 1863 1863 2006 
Q 1119 2191 819 2459 
Q 397 2838 397 3381 
Q 397 3731 595 4036 
Q 794 4341 1167 4500 
Q 1541 4659 2069 4659 
Q 2931 4659 3367 4281 
Q 3803 3903 3825 3272 
L 2900 3231 
Q 2841 3584 2645 3739 
Q 2450 3894 2059 3894 
Q 1656 3894 1428 3728 
Q 1281 3622 1281 3444 
Q 1281 3281 1419 3166 
Q 1594 3019 2269 2859 
Q 2944 2700 3267 2529 
Q 3591 2359 3773 2064 
Q 3956 1769 3956 1334 
Q 3956 941 3737 597 
Q 3519 253 3119 86 
Q 2719 -81 2122 -81 
Q 1253 -81 787 320 
Q 322 722 231 1491 
z
" transform="scale(0.015625)"/>
       <path id="Arial-BoldMT-66" d="M 75 3319 
L 563 3319 
L 563 3569 
Q 563 3988 652 4194 
Q 741 4400 980 4529 
Q 1219 4659 1584 4659 
Q 1959 4659 2319 4547 
L 2200 3934 
Q 1991 3984 1797 3984 
Q 1606 3984 1523 3895 
Q 1441 3806 1441 3553 
L 1441 3319 
L 2097 3319 
L 2097 2628 
L 1441 2628 
L 1441 0 
L 563 0 
L 563 2628 
L 75 2628 
L 75 3319 
z
" transform="scale(0.015625)"/>
       <path id="Arial-BoldMT-74" d="M 1981 3319 
L 1981 2619 
L 1381 2619 
L 1381 1281 
Q 1381 875 1398 808 
Q 1416 741 1477 697 
Q 1538 653 1625 653 
Q 1747 653 1978 738 
L 2053 56 
Q 1747 -75 1359 -75 
Q 1122 -75 931 4 
Q 741 84 652 211 
Q 563 338 528 553 
Q 500 706 500 1172 
L 500 2619 
L 97 2619 
L 97 3319 
L 500 3319 
L 500 3978 
L 1381 4491 
L 1381 3319 
L 1981 3319 
z
" transform="scale(0.015625)"/>
       <path id="Arial-BoldMT-2f" d="M -9 -78 
L 1125 4659 
L 1784 4659 
L 638 -78 
L -9 -78 
z
" transform="scale(0.015625)"/>
       <path id="Arial-BoldMT-70" d="M 434 3319 
L 1253 3319 
L 1253 2831 
Q 1413 3081 1684 3237 
Q 1956 3394 2288 3394 
Q 2866 3394 3269 2941 
Q 3672 2488 3672 1678 
Q 3672 847 3265 386 
Q 2859 -75 2281 -75 
Q 2006 -75 1782 34 
Q 1559 144 1313 409 
L 1313 -1263 
L 434 -1263 
L 434 3319 
z
M 1303 1716 
Q 1303 1156 1525 889 
Q 1747 622 2066 622 
Q 2372 622 2575 867 
Q 2778 1113 2778 1672 
Q 2778 2194 2568 2447 
Q 2359 2700 2050 2700 
Q 1728 2700 1515 2451 
Q 1303 2203 1303 1716 
z
" transform="scale(0.015625)"/>
      </defs>
      <use xlink:href="#Arial-BoldMT-43"/>
      <use xlink:href="#Arial-BoldMT-68" x="72.216797"/>
      <use xlink:href="#Arial-BoldMT-65" x="133.300781"/>
      <use xlink:href="#Arial-BoldMT-6d" x="188.916016"/>
      <use xlink:href="#Arial-BoldMT-69" x="277.832031"/>
      <use xlink:href="#Arial-BoldMT-63" x="305.615234"/>
      <use xlink:href="#Arial-BoldMT-61" x="361.230469"/>
      <use xlink:href="#Arial-BoldMT-6c" x="416.845703"/>
      <use xlink:href="#Arial-BoldMT-20" x="444.628906"/>
      <use xlink:href="#Arial-BoldMT-53" x="472.412109"/>
      <use xlink:href="#Arial-BoldMT-68" x="539.111328"/>
      <use xlink:href="#Arial-BoldMT-69" x="600.195312"/>
      <use xlink:href="#Arial-BoldMT-66" x="627.978516"/>
      <use xlink:href="#Arial-BoldMT-74" x="661.279297"/>
      <use xlink:href="#Arial-BoldMT-20" x="694.580078"/>
      <use xlink:href="#Arial-BoldMT-2f" x="722.363281"/>
      <use xlink:href="#Arial-BoldMT-20" x="750.146484"/>
      <use xlink:href="#Arial-BoldMT-70" x="777.929688"/>
      <use xlink:href="#Arial-BoldMT-70" x="839.013672"/>
      <use xlink:href="#Arial-BoldMT-6d" x="900.097656"/>
     </g>
    </g>
   </g>
   <g id="matplotlib.axis_2"/>
   <g id="line2d_12">
    <path d="M 2.960821 189.419465 
L 3.983919 190.699449 
L 4.597779 191.657757 
L 5.007018 191.924467 
L 5.620877 192.189678 
L 6.030117 192.040539 
L 6.643976 191.536754 
L 7.257835 191.063812 
L 7.667074 190.771481 
L 8.690173 189.465875 
L 9.099413 189.397421 
L 10.122511 189.491255 
L 10.73637 189.622845 
L 11.35023 190.050538 
L 11.759469 190.340404 
L 11.964089 190.363609 
L 12.168708 190.254305 
L 12.577948 189.671865 
L 13.191807 188.767508 
L 13.601047 188.671208 
L 14.214906 188.859215 
L 14.624145 189.131194 
L 15.238004 190.037582 
L 15.647244 190.617846 
L 15.851864 190.740638 
L 16.261103 190.589323 
L 16.874962 190.332524 
L 17.488821 190.145001 
L 18.51192 189.70382 
L 19.125779 190.033183 
L 19.535019 190.278621 
L 19.944258 190.194262 
L 20.558117 189.939155 
L 21.990455 189.761929 
L 22.399695 189.883947 
L 22.808934 189.733551 
L 24.036653 189.083963 
L 24.650512 188.942366 
L 25.059751 189.155559 
L 25.67361 189.769229 
L 26.08285 189.745009 
L 27.105949 189.217197 
L 27.924427 189.554053 
L 29.561385 189.394617 
L 29.970625 189.028417 
L 30.584484 188.27315 
L 30.789104 188.185891 
L 31.198343 188.375638 
L 31.607583 188.692141 
L 32.426061 188.91336 
L 32.835301 189.438802 
L 33.24454 189.944038 
L 33.44916 189.938672 
L 33.8584 189.504308 
L 34.267639 189.022229 
L 34.881498 188.688177 
L 36.109217 188.28746 
L 36.723076 188.259227 
L 37.132315 188.354609 
L 37.950794 188.871591 
L 38.564653 189.553666 
L 39.587752 190.659179 
L 41.02009 190.642743 
L 41.633949 190.280265 
L 44.294006 189.693136 
L 44.703245 189.748683 
L 45.112484 189.990882 
L 45.521724 190.378837 
L 45.930963 190.410985 
L 46.340203 190.158295 
L 47.158682 189.453354 
L 47.772541 189.261141 
L 48.59102 188.771424 
L 49.000259 188.878601 
L 49.409499 189.007822 
L 49.818738 188.693011 
L 50.227978 188.315934 
L 50.432597 188.291521 
L 50.841837 188.679088 
L 52.274175 190.661306 
L 52.888034 191.203041 
L 53.297274 191.324189 
L 53.501893 191.164753 
L 54.115752 190.074516 
L 54.729612 188.691706 
L 55.343471 187.177547 
L 55.75271 186.675406 
L 56.16195 186.572918 
L 56.980429 187.031938 
L 57.185048 186.914947 
L 57.389668 186.636925 
L 57.798908 185.521356 
L 58.412767 182.93828 
L 59.026626 179.298663 
L 59.640485 174.327044 
L 60.663584 164.770455 
L 60.868203 164.198603 
L 61.072823 164.286201 
L 61.277443 164.999747 
L 61.686682 168.111456 
L 62.709781 178.148335 
L 63.11902 180.444252 
L 63.937499 183.146398 
L 65.165218 186.433497 
L 65.574457 187.065101 
L 65.983697 187.405534 
L 66.597556 187.564148 
L 67.211415 187.661512 
L 67.620654 188.005232 
L 68.439133 189.076325 
L 68.848373 189.136706 
L 70.076091 188.890348 
L 70.68995 189.344968 
L 71.30381 189.780638 
L 71.713049 189.767972 
L 72.122288 189.461427 
L 72.940767 188.642058 
L 73.759246 188.301624 
L 74.986965 188.37675 
L 75.396204 188.249704 
L 75.600824 188.278661 
L 76.010063 188.716796 
L 76.623922 189.670512 
L 77.442401 190.173716 
L 77.851641 190.376275 
L 78.4655 190.364237 
L 78.874739 190.353505 
L 79.283979 190.658841 
L 79.693218 190.88064 
L 79.897838 190.72599 
L 80.716317 189.46892 
L 81.944035 188.769442 
L 82.557894 188.761949 
L 82.967134 188.99767 
L 83.376373 189.356377 
L 83.785613 189.343808 
L 84.399472 188.810147 
L 85.013331 188.244676 
L 85.217951 188.169454 
L 85.422571 188.21422 
L 85.83181 188.674786 
L 86.24105 189.152514 
L 86.650289 189.228413 
L 87.059528 189.330369 
L 87.468768 190.007851 
L 88.082627 191.166397 
L 88.287247 191.245293 
L 88.696486 191.067583 
L 89.719585 190.385073 
L 90.947303 190.189573 
L 93.40274 190.758186 
L 93.811979 190.631914 
L 94.221219 190.38488 
L 94.630458 190.44265 
L 95.244318 190.515116 
L 95.653557 190.503949 
L 96.062796 190.221866 
L 96.676656 189.479894 
L 97.085895 188.93874 
L 97.495135 188.73681 
L 97.904374 188.814401 
L 98.518233 189.096146 
L 98.927473 188.897697 
L 99.336712 188.724386 
L 99.541332 188.849305 
L 99.950571 189.586781 
L 100.359811 190.267696 
L 100.76905 190.499937 
L 101.382909 190.559641 
L 101.587529 190.439411 
L 102.610628 189.29619 
L 103.224487 189.720499 
L 104.042966 190.343256 
L 104.452205 190.048266 
L 104.861445 189.730506 
L 105.270684 189.841743 
L 105.679924 190.063736 
L 106.089163 189.962601 
L 106.703022 189.544819 
L 107.316881 189.536891 
L 107.726121 189.732343 
L 108.33998 190.046864 
L 109.772318 189.574599 
L 110.181558 189.90517 
L 111.000037 190.906987 
L 111.409276 191.261343 
L 111.613896 191.203041 
L 112.023135 190.741508 
L 113.046234 189.152852 
L 113.250854 189.180069 
L 113.660093 189.654172 
L 114.478572 190.617024 
L 115.70629 191.362138 
L 115.91091 191.269851 
L 116.320149 190.669863 
L 117.138628 189.360776 
L 117.343248 189.271051 
L 118.366347 189.378035 
L 118.980206 189.328822 
L 119.798685 189.523403 
L 121.435643 190.694808 
L 121.844882 190.7257 
L 122.254121 190.969881 
L 122.867981 191.664815 
L 123.27722 192.184118 
L 123.48184 192.296178 
L 123.68646 192.256488 
L 124.095699 191.78403 
L 125.323417 189.828884 
L 125.732657 189.706624 
L 126.551136 189.804036 
L 126.960375 190.092306 
L 127.574234 190.819582 
L 127.778854 190.877691 
L 127.983474 190.774236 
L 129.211192 189.500585 
L 129.825051 189.173398 
L 130.438911 188.64839 
L 131.05277 187.874125 
L 131.257389 187.828296 
L 131.666629 188.104336 
L 132.689728 189.290727 
L 132.894347 189.386495 
L 133.098967 189.314319 
L 134.122066 188.175497 
L 134.531305 188.529176 
L 134.940545 188.871301 
L 135.963643 188.953871 
L 136.372883 188.901612 
L 137.395981 189.405736 
L 138.41908 190.614462 
L 138.828319 190.392276 
L 139.851418 189.205353 
L 140.669897 188.672707 
L 141.283756 188.288427 
L 141.692996 188.252943 
L 142.102235 188.714282 
L 142.716094 189.704013 
L 142.920714 189.863208 
L 143.125334 189.86461 
L 143.534573 189.521179 
L 143.943813 189.104751 
L 144.353052 188.989452 
L 144.762291 188.947683 
L 145.171531 188.581193 
L 145.58077 188.215525 
L 146.19463 188.05343 
L 146.603869 188.302495 
L 147.626968 189.247992 
L 148.036207 189.413906 
L 148.445447 189.120269 
L 149.059306 188.50046 
L 149.468545 188.400921 
L 149.877785 188.759532 
L 150.696264 189.855038 
L 151.105503 190.023852 
L 151.514742 189.843484 
L 152.128602 189.248668 
L 152.742461 188.492193 
L 153.1517 188.386515 
L 153.765559 188.490695 
L 154.379419 188.049611 
L 154.993278 187.46867 
L 155.402517 187.482303 
L 158.267193 188.390528 
L 159.085672 189.353477 
L 159.494912 189.500537 
L 160.51801 189.652431 
L 161.336489 190.357759 
L 161.745729 190.316861 
L 162.154968 190.038259 
L 162.768827 189.349416 
L 163.791926 187.80277 
L 163.996546 187.79112 
L 164.610405 187.999237 
L 165.838123 187.552159 
L 166.451982 186.93936 
L 166.656602 186.955555 
L 167.065842 187.286078 
L 167.884321 188.128604 
L 168.29356 188.118404 
L 169.316659 187.609349 
L 169.725898 187.61109 
L 170.339757 187.509955 
L 170.748997 187.708936 
L 171.158236 188.494369 
L 171.772095 190.086312 
L 172.181335 190.584102 
L 172.590574 190.676293 
L 173.204433 190.526864 
L 173.613673 190.28099 
L 174.432152 189.70382 
L 175.45525 188.990129 
L 176.06911 188.151325 
L 176.478349 187.998947 
L 176.887589 188.176947 
L 177.296828 188.826825 
L 177.910687 190.03091 
L 178.319927 190.226991 
L 179.343025 190.027962 
L 179.752265 190.356937 
L 180.366124 191.053128 
L 181.593842 190.963645 
L 182.207701 190.609966 
L 183.844659 188.888801 
L 184.458518 187.970183 
L 184.663138 187.886598 
L 185.686237 188.110234 
L 186.300096 188.082243 
L 187.118575 188.326908 
L 188.346293 186.786402 
L 188.755533 186.589645 
L 188.960152 186.594576 
L 189.164772 186.757735 
L 189.574012 187.633472 
L 189.983251 188.58743 
L 190.187871 188.772101 
L 190.392491 188.682763 
L 191.210969 187.707099 
L 191.415589 187.824332 
L 193.052547 189.744525 
L 193.461786 189.899417 
L 193.666406 189.783828 
L 194.894124 188.346003 
L 195.712603 188.285623 
L 196.735702 187.111704 
L 197.144941 187.283854 
L 197.554181 187.470894 
L 197.96342 187.326783 
L 198.37266 186.999016 
L 199.600378 185.205482 
L 200.009618 184.327423 
L 201.032716 181.430309 
L 201.646575 180.292068 
L 202.055815 178.85347 
L 202.669674 176.257196 
L 203.078914 175.326057 
L 203.692773 174.248389 
L 204.306632 173.057453 
L 204.715871 172.657655 
L 205.125111 172.595292 
L 205.53435 172.885835 
L 206.352829 173.782167 
L 207.171308 175.690758 
L 208.399026 178.389036 
L 209.831365 182.535098 
L 210.035984 182.739203 
L 210.240604 182.778071 
L 210.649843 182.403024 
L 212.90066 178.915252 
L 213.3099 177.453208 
L 214.742238 170.13989 
L 216.583816 161.581203 
L 216.993055 160.345743 
L 217.402294 159.919259 
L 217.606914 159.970745 
L 217.811534 160.224353 
L 218.220773 161.513764 
L 218.834633 165.026916 
L 220.266971 173.872714 
L 221.08545 176.910942 
L 221.903928 178.778151 
L 223.336267 181.54788 
L 223.745506 181.725348 
L 225.382464 184.072558 
L 225.791703 184.356429 
L 226.200943 184.308666 
L 226.814802 184.040361 
L 227.224041 183.947349 
L 227.633281 183.511148 
L 228.04252 182.724651 
L 228.860999 180.4414 
L 229.474858 178.989846 
L 229.884098 178.520143 
L 230.293337 178.2763 
L 230.497957 178.012781 
L 230.907196 176.812225 
L 231.930295 172.891588 
L 232.953394 169.39555 
L 234.181112 162.881346 
L 234.590351 158.588805 
L 235.204211 148.229718 
L 235.81807 134.079216 
L 236.431929 115.040246 
L 237.455028 79.506465 
L 237.864267 72.754945 
L 238.068887 72.464982 
L 238.273507 74.429796 
L 238.682746 84.544121 
L 240.319704 140.635382 
L 240.933563 152.868059 
L 241.547422 161.050346 
L 242.161281 166.397834 
L 242.775141 169.566733 
L 243.798239 173.634913 
L 244.207479 174.457474 
L 244.412098 174.60318 
L 244.821338 174.476618 
L 245.435197 174.128885 
L 246.049056 173.993475 
L 246.253676 173.782989 
L 246.458296 173.28399 
L 246.867535 171.399377 
L 247.890634 166.25203 
L 249.118352 160.633047 
L 249.527592 159.809085 
L 249.732211 159.75934 
L 250.141451 160.219181 
L 250.75531 161.118655 
L 251.369169 161.875323 
L 253.006127 165.334814 
L 253.824606 167.732687 
L 254.233845 168.153177 
L 254.438465 168.120303 
L 254.847704 167.731188 
L 255.461564 166.696788 
L 255.870803 165.510058 
L 256.484662 162.529842 
L 257.098521 158.119102 
L 257.712381 151.43241 
L 258.53086 139.368547 
L 259.553958 125.142195 
L 260.372437 118.167135 
L 260.986296 114.336949 
L 261.395536 113.072966 
L 261.600155 112.84759 
L 261.804775 112.824965 
L 262.009395 113.014809 
L 262.214015 113.512648 
L 262.623254 115.868317 
L 263.237113 122.603111 
L 264.669451 140.769921 
L 265.283311 144.961957 
L 265.69255 146.540557 
L 265.89717 146.974244 
L 266.101789 147.06919 
L 266.306409 146.761824 
L 266.715649 144.923862 
L 267.124888 141.53094 
L 267.738747 133.944194 
L 268.352606 123.203292 
L 269.580325 97.921614 
L 269.989564 94.009196 
L 270.194184 93.683121 
L 270.398804 94.560212 
L 270.808043 99.673477 
L 271.831142 120.626211 
L 272.649621 135.053284 
L 273.05886 139.867643 
L 273.4681 142.877106 
L 273.877339 144.710959 
L 274.695818 147.261645 
L 275.718917 151.958142 
L 276.128156 152.658394 
L 276.332776 152.783168 
L 276.537395 152.746862 
L 276.742015 152.530816 
L 277.151255 151.550996 
L 277.560494 149.753401 
L 278.174353 145.253853 
L 278.788212 138.369534 
L 279.606691 125.776458 
L 280.220551 116.536808 
L 280.62979 113.130108 
L 280.83441 112.43411 
L 281.039029 112.362224 
L 281.243649 112.848799 
L 281.652889 114.992048 
L 282.471368 119.53931 
L 282.880607 120.451498 
L 283.085227 120.471126 
L 283.494466 119.981989 
L 284.108325 119.156915 
L 284.312945 119.138593 
L 284.517565 119.413521 
L 284.926804 120.735032 
L 285.336044 122.162898 
L 285.540663 122.444932 
L 285.745283 122.265289 
L 286.154523 120.699983 
L 286.768382 116.534294 
L 288.20072 106.135228 
L 288.609959 100.669106 
L 289.019199 92.705185 
L 289.633058 75.96977 
L 291.883875 9.452467 
L 292.293114 4.063115 
L 292.497734 3.042009 
L 292.702354 3.00024 
L 292.906974 3.83769 
L 293.316213 7.953053 
L 293.725453 15.323996 
L 294.339312 31.537255 
L 296.794748 102.155225 
L 297.817847 122.944704 
L 298.431706 131.743948 
L 299.045565 137.857192 
L 299.659425 142.188699 
L 300.682523 148.343615 
L 302.114861 157.748793 
L 302.728721 160.426041 
L 303.547199 162.891015 
L 304.365678 165.71484 
L 304.979538 167.119646 
L 306.616495 169.812317 
L 307.025735 169.850411 
L 307.639594 169.467774 
L 308.048833 169.298476 
L 308.662693 169.417304 
L 309.071932 169.529219 
L 309.276552 169.482132 
L 309.481171 169.262171 
L 309.890411 168.162942 
L 312.345848 159.570463 
L 312.755087 158.664752 
L 313.164327 158.278489 
L 313.573566 158.241604 
L 314.392045 158.59069 
L 314.801284 158.311943 
L 315.210524 157.690201 
L 315.824383 156.618238 
L 316.438242 156.040439 
L 316.847482 154.964995 
L 317.256721 153.109437 
L 318.0752 147.955129 
L 318.893679 140.739997 
L 320.939876 121.370648 
L 321.349116 119.812111 
L 321.758355 119.343665 
L 321.962975 119.192834 
L 322.167595 118.84307 
L 322.372214 118.079102 
L 322.781454 114.919291 
L 323.395313 106.557651 
L 324.623031 86.768103 
L 325.23689 81.191227 
L 326.464609 74.097098 
L 326.873848 71.893516 
L 327.078468 71.308031 
L 327.283088 71.174556 
L 327.487707 71.389441 
L 328.306186 73.166104 
L 328.510806 73.172727 
L 328.715426 72.775345 
L 329.124665 70.961894 
L 329.533905 68.80332 
L 329.738524 68.197482 
L 329.943144 68.233836 
L 330.147764 68.986541 
L 330.557003 72.240863 
L 331.375482 80.148657 
L 331.784722 82.039893 
L 331.989341 82.19986 
L 332.193961 81.77531 
L 332.603201 79.145679 
L 333.42168 69.763997 
L 333.830919 65.888416 
L 334.035539 64.946206 
L 334.240158 64.926579 
L 334.444778 65.866371 
L 334.854018 69.916036 
L 335.877116 81.479159 
L 336.286356 84.197065 
L 336.695595 85.791667 
L 337.104835 86.766556 
L 337.514074 87.325211 
L 337.718694 87.462989 
L 337.923314 87.425765 
L 338.127933 87.131596 
L 338.537173 85.874624 
L 339.151032 83.861128 
L 339.764891 82.699294 
L 340.174131 81.922854 
L 340.78799 79.697179 
L 341.197229 78.552653 
L 341.401849 78.332885 
L 341.606469 78.342988 
L 342.015708 78.89033 
L 342.834187 80.096929 
L 343.038807 80.305869 
L 343.243426 80.350393 
L 343.448046 80.156633 
L 344.675765 77.981719 
L 345.085004 77.603578 
L 345.494243 77.44274 
L 345.698863 77.215576 
L 345.903483 76.729146 
L 346.312722 74.565157 
L 346.721962 70.305296 
L 347.335821 59.744473 
L 347.94968 48.780178 
L 348.1543 46.913693 
L 348.35892 46.493591 
L 348.563539 47.575126 
L 348.972779 53.598113 
L 349.791258 73.018319 
L 350.814356 95.069121 
L 351.837455 111.025775 
L 352.451314 118.159062 
L 352.860554 120.906505 
L 353.269793 122.290524 
L 353.474413 122.583532 
L 353.679032 122.680895 
L 353.883652 122.615294 
L 354.088272 122.375559 
L 354.497511 121.221945 
L 354.906751 118.882132 
L 355.52061 113.074948 
L 356.134469 105.164785 
L 357.771427 78.989337 
L 358.794526 58.239741 
L 359.408385 47.201191 
L 359.613005 45.168599 
L 359.817624 44.403906 
L 360.022244 45.147521 
L 360.226864 47.532825 
L 360.636103 56.764112 
L 362.88692 123.580321 
L 363.705399 137.716127 
L 364.523878 149.41756 
L 365.137737 155.81487 
L 365.751596 160.41149 
L 366.979315 166.940583 
L 367.388554 168.112472 
L 368.002413 169.370943 
L 369.025512 172.392782 
L 369.843991 173.452901 
L 371.276329 174.817196 
L 371.685568 174.896624 
L 372.094808 175.215786 
L 372.708667 176.001847 
L 373.322526 177.615883 
L 373.731766 178.61185 
L 374.141005 179.030164 
L 375.164104 179.379009 
L 376.391822 180.89573 
L 376.596442 180.963459 
L 376.801062 180.889397 
L 377.82416 179.946027 
L 378.847259 180.316433 
L 379.461118 180.008438 
L 379.870358 179.577265 
L 380.484217 178.595945 
L 382.121175 175.185378 
L 382.735034 174.503255 
L 383.144273 173.556549 
L 383.962752 171.433556 
L 385.39509 168.865563 
L 386.008949 168.329629 
L 386.418189 167.176933 
L 387.032048 164.089299 
L 388.259766 157.342081 
L 388.464386 157.000488 
L 388.669006 157.112837 
L 388.873625 157.682272 
L 389.487485 160.948632 
L 390.305964 165.519147 
L 390.715203 166.763212 
L 391.124442 167.117326 
L 391.533682 167.371708 
L 391.942921 168.126008 
L 392.96602 170.577445 
L 393.17064 170.731998 
L 393.579879 170.598523 
L 394.193738 170.048473 
L 394.602978 169.138219 
L 395.012217 167.298758 
L 395.626076 162.924372 
L 396.649175 155.585336 
L 397.058415 154.013165 
L 398.490753 149.905392 
L 399.104612 146.669585 
L 399.718471 143.556232 
L 399.923091 143.19854 
L 400.12771 143.435857 
L 400.33233 144.34442 
L 400.74157 147.982394 
L 402.173908 164.266428 
L 402.787767 168.453775 
L 403.401626 170.956408 
L 404.833964 176.276485 
L 407.084781 182.180355 
L 407.69864 182.655811 
L 408.3125 182.925711 
L 408.721739 182.692697 
L 410.358697 181.223497 
L 410.767936 180.872428 
L 412.200274 179.279519 
L 412.609514 179.261245 
L 413.018753 179.65268 
L 413.427993 180.368644 
L 414.041852 181.688172 
L 414.451091 181.972286 
L 415.67881 181.922105 
L 416.088049 181.557307 
L 417.315768 179.638854 
L 417.725007 179.864665 
L 418.134246 180.166956 
L 419.361965 180.535138 
L 419.975824 180.324748 
L 420.589683 179.921469 
L 420.998923 179.25293 
L 421.612782 177.644309 
L 422.226641 176.056571 
L 423.24974 174.165916 
L 423.658979 172.378521 
L 424.477458 167.068741 
L 425.295937 161.272048 
L 425.705176 160.05346 
L 426.114416 159.900937 
L 426.319035 159.842732 
L 426.523655 159.6146 
L 426.932895 158.64904 
L 427.342134 157.214793 
L 427.751374 154.919021 
L 428.365233 149.425827 
L 428.979092 143.615114 
L 429.183712 142.457632 
L 429.388331 142.021721 
L 429.592951 142.368197 
L 430.002191 145.09229 
L 431.434529 158.371163 
L 431.843768 160.154739 
L 432.662247 163.092799 
L 433.685346 167.416232 
L 434.094585 168.293275 
L 434.503825 168.564916 
L 435.731543 168.873781 
L 436.140782 168.683405 
L 436.959261 167.929492 
L 438.800839 166.662658 
L 439.210078 165.81931 
L 440.437797 162.602212 
L 440.642416 162.525153 
L 440.847036 162.851518 
L 441.256276 164.77147 
L 443.097853 176.841859 
L 443.916332 180.264029 
L 444.530191 181.98413 
L 445.34867 184.012274 
L 445.962529 185.430229 
L 447.394867 187.628251 
L 447.804107 187.880845 
L 449.031825 187.727645 
L 449.441065 188.065081 
L 450.259544 189.252246 
L 450.668783 189.67699 
L 451.078022 189.841888 
L 451.487262 189.748876 
L 452.101121 189.352945 
L 453.12422 189.063272 
L 453.533459 188.797239 
L 456.193516 186.243072 
L 456.398135 186.369393 
L 456.807375 187.070467 
L 457.216614 187.825685 
L 459.058192 189.707494 
L 459.467431 189.668578 
L 460.28591 189.074923 
L 460.69515 189.217584 
L 461.309009 189.991124 
L 461.718248 190.383574 
L 462.127488 190.471607 
L 462.536727 190.446324 
L 462.741347 190.58154 
L 463.150586 191.272413 
L 463.559826 192.023861 
L 463.969065 192.217282 
L 464.582924 192.015691 
L 464.992164 191.348602 
L 465.810643 189.523403 
L 466.219882 188.97113 
L 466.833741 188.665891 
L 467.242981 188.371142 
L 468.06146 187.50546 
L 468.470699 187.503139 
L 469.698418 188.252121 
L 470.107657 188.075185 
L 470.721516 187.655082 
L 471.130756 187.641449 
L 471.539995 188.11763 
L 471.949235 188.558762 
L 472.153854 188.585448 
L 473.176953 188.177382 
L 473.995432 188.264303 
L 474.404671 188.017995 
L 475.63239 186.907744 
L 476.041629 186.973104 
L 476.655488 187.244599 
L 477.064728 187.130268 
L 477.473967 186.987172 
L 477.883207 187.249192 
L 478.906305 188.474935 
L 479.315545 188.341072 
L 481.361742 186.667043 
L 481.566362 186.662257 
L 481.975601 186.988429 
L 482.384841 187.354387 
L 482.9987 187.543506 
L 483.407939 187.351196 
L 484.021798 186.962178 
L 484.635658 186.747389 
L 485.044897 186.681546 
L 485.454137 186.364704 
L 486.477235 185.153706 
L 486.886475 185.463296 
L 487.704954 186.392356 
L 488.114193 186.626144 
L 488.523432 186.389069 
L 488.932672 186.168866 
L 489.341911 186.041868 
L 489.955771 185.462329 
L 490.36501 185.150854 
L 490.774249 185.137849 
L 491.388109 185.365691 
L 491.797348 185.055569 
L 492.411207 184.223002 
L 492.615827 184.23852 
L 493.434306 185.091246 
L 493.843545 184.957046 
L 494.252785 184.299239 
L 495.480503 181.196812 
L 496.094362 180.815142 
L 496.503602 180.384258 
L 497.117461 178.994294 
L 498.14056 176.230607 
L 498.754419 173.436513 
L 499.572898 168.762882 
L 500.391377 161.923376 
L 501.209855 153.365221 
L 502.028334 142.852983 
L 502.642194 131.972466 
L 504.483771 93.605675 
L 504.688391 92.657519 
L 504.893011 92.931238 
L 505.09763 94.391784 
L 505.50687 100.304936 
L 507.348447 134.465527 
L 508.166926 145.579107 
L 508.780785 150.740521 
L 509.394645 153.765019 
L 510.008504 155.611828 
L 510.417743 156.168259 
L 510.622363 156.099224 
L 511.031602 155.314614 
L 511.440842 153.800262 
L 511.850081 151.202538 
L 512.46394 145.111289 
L 513.691659 129.81046 
L 515.328617 108.758139 
L 515.533236 107.244995 
L 515.737856 106.565724 
L 515.942476 106.917953 
L 516.147096 108.418527 
L 516.556335 114.742403 
L 518.397913 153.308466 
L 519.011772 160.407236 
L 520.03487 168.866626 
L 521.057969 175.33413 
L 521.671828 177.723978 
L 522.490307 180.119192 
L 523.104166 182.281779 
L 523.718025 183.50815 
L 524.331885 184.394765 
L 524.741124 184.522585 
L 525.559603 184.365953 
L 525.968842 184.711414 
L 527.81042 187.347764 
L 529.242758 188.744932 
L 529.651998 189.43334 
L 529.856617 189.591954 
L 530.061237 189.595193 
L 530.470476 189.289567 
L 532.516674 187.453104 
L 532.721293 187.581939 
L 533.949012 189.00995 
L 535.790589 189.279802 
L 536.609068 189.750955 
L 537.018308 189.679648 
L 537.427547 189.35981 
L 538.041406 188.830838 
L 539.064505 188.256278 
L 539.882984 187.375755 
L 540.496843 187.115716 
L 540.701463 187.138051 
L 541.110702 187.60582 
L 541.929181 189.210526 
L 542.133801 189.280092 
L 542.54304 189.01024 
L 543.156899 188.608604 
L 543.770759 188.3213 
L 544.589238 187.659336 
L 545.407716 186.583796 
L 546.021576 184.967729 
L 546.430815 183.83147 
L 546.635435 183.551514 
L 546.840055 183.58724 
L 547.044674 183.93623 
L 548.272393 187.535819 
L 549.090872 188.414167 
L 549.704731 188.850175 
L 550.11397 189.081836 
L 551.341689 190.45957 
L 551.750928 190.573612 
L 552.569407 190.653861 
L 553.183266 191.019336 
L 553.592506 190.988542 
L 554.410984 190.673054 
L 555.229463 190.04406 
L 555.843323 189.579143 
L 556.252562 189.361067 
L 557.071041 189.402787 
L 557.6849 189.316784 
L 558.298759 189.578563 
L 559.117238 189.997457 
L 559.526478 190.182708 
L 559.935717 190.108405 
L 560.344957 190.062189 
L 560.754196 190.311205 
L 561.163435 190.633847 
L 561.368055 190.681369 
L 561.572675 190.573177 
L 562.186534 189.855328 
L 562.391154 189.789001 
L 562.800393 189.967339 
L 563.209633 190.089841 
L 564.232731 189.805148 
L 564.437351 189.924652 
L 564.846591 190.643999 
L 565.25583 191.503591 
L 565.46045 191.710355 
L 565.665069 191.712095 
L 566.074309 191.305335 
L 566.688168 190.710713 
L 567.097408 190.656327 
L 568.120506 190.836937 
L 568.529746 190.746487 
L 569.348225 190.312993 
L 570.371323 189.958927 
L 570.780563 190.360756 
L 571.189802 190.772496 
L 571.599042 190.82606 
L 573.440619 190.739187 
L 574.054478 190.886731 
L 574.463718 190.67315 
L 575.486816 189.778027 
L 575.896056 189.768697 
L 577.328394 189.959217 
L 578.146873 189.5089 
L 578.965352 188.629295 
L 579.169971 188.589267 
L 579.374591 188.679427 
L 579.783831 189.27898 
L 580.19307 189.865673 
L 580.39769 189.892842 
L 580.806929 189.484777 
L 581.625408 188.486151 
L 582.034648 188.146153 
L 582.443887 188.052173 
L 583.876225 187.997642 
L 584.285465 187.873932 
L 584.694704 188.10013 
L 585.308563 188.606332 
L 586.127042 189.111325 
L 586.536282 189.40298 
L 586.945521 189.413809 
L 587.55938 189.000619 
L 587.96862 188.782156 
L 589.196338 188.58245 
L 589.605577 188.746044 
L 590.014817 189.120511 
L 590.628676 189.838601 
L 591.037916 189.961586 
L 592.265634 190.234677 
L 592.879493 190.292206 
L 594.107211 190.20978 
L 594.516451 189.939929 
L 594.92569 190.088681 
L 595.33493 190.158488 
L 595.948789 189.864223 
L 596.153409 189.947808 
L 596.767268 190.670395 
L 596.971888 190.691086 
L 597.176507 190.495586 
L 598.199606 188.870286 
L 598.404226 188.879568 
L 598.813465 189.233295 
L 599.427324 190.023756 
L 600.041184 190.944453 
L 600.450423 191.021754 
L 601.268902 190.775106 
L 601.882761 190.211037 
L 603.315099 188.697991 
L 604.133578 188.164765 
L 604.747437 187.677368 
L 605.156677 187.649377 
L 605.770536 188.008229 
L 606.179775 188.402227 
L 606.793635 189.224062 
L 607.202874 189.326163 
L 609.86293 189.160974 
L 610.47679 188.484168 
L 611.090649 187.830229 
L 611.499888 187.812778 
L 612.113747 188.323089 
L 612.932226 189.208109 
L 613.341466 189.614288 
L 613.750705 189.645518 
L 614.159945 189.460605 
L 614.569184 189.035862 
L 615.387663 187.835934 
L 616.001522 187.548292 
L 616.410762 187.522331 
L 617.63848 188.045647 
L 617.8431 188.029597 
L 618.047719 187.898732 
L 618.456959 187.250932 
L 618.866198 186.626579 
L 619.070818 186.57432 
L 619.480058 186.830104 
L 620.707776 188.044438 
L 621.117015 188.026165 
L 621.526255 187.84976 
L 621.935494 187.95452 
L 622.344734 188.093168 
L 622.753973 187.914395 
L 623.981692 186.785435 
L 624.390931 186.789254 
L 625.00479 187.155986 
L 625.618649 187.346169 
L 626.846368 188.259662 
L 627.460227 188.788973 
L 628.074086 189.142217 
L 628.278706 189.106588 
L 628.687945 188.534929 
L 629.097185 188.022781 
L 629.915664 187.959789 
L 630.529523 187.592236 
L 631.552621 187.737362 
L 632.166481 187.433476 
L 632.78034 186.913545 
L 633.189579 186.585923 
L 634.008058 186.593658 
L 634.826537 186.438331 
L 635.235777 186.242734 
L 635.440396 186.322259 
L 635.849636 186.940665 
L 636.258875 187.559121 
L 636.463495 187.670358 
L 636.872734 187.483608 
L 637.486594 187.082069 
L 637.895833 187.207569 
L 638.509692 187.414864 
L 638.918932 187.496419 
L 639.532791 187.805574 
L 639.94203 187.446287 
L 640.555889 186.817922 
L 641.578988 186.524237 
L 641.988228 186.446404 
L 642.602087 186.242637 
L 643.011326 186.223445 
L 643.420566 185.770227 
L 644.034425 185.065044 
L 644.443664 184.837928 
L 644.648284 184.934179 
L 645.057523 185.649079 
L 645.466763 186.302535 
L 645.671383 186.315926 
L 646.285242 185.650819 
L 646.694481 185.295255 
L 646.899101 185.285538 
L 647.30834 185.674653 
L 647.9222 186.320857 
L 648.331439 186.350056 
L 648.740679 185.842984 
L 649.149918 185.143651 
L 649.559157 184.853688 
L 650.991496 184.518959 
L 651.400735 184.694977 
L 651.809974 184.866112 
L 653.651552 184.337479 
L 654.265411 184.020927 
L 654.674651 183.957162 
L 655.902369 184.279273 
L 656.311608 184.4273 
L 656.720848 184.185052 
L 657.539327 183.390676 
L 657.948566 183.392417 
L 658.357806 183.495629 
L 659.585524 183.134554 
L 659.994763 183.228968 
L 660.404003 183.58927 
L 661.017862 184.100452 
L 661.427102 184.163491 
L 662.040961 184.032191 
L 663.064059 183.485236 
L 663.473299 183.615521 
L 663.882538 183.860041 
L 664.291778 183.809957 
L 664.905637 183.617406 
L 665.519496 183.46382 
L 665.928736 183.365199 
L 666.337975 183.409288 
L 666.747214 183.674983 
L 667.156454 184.046501 
L 667.361074 184.064484 
L 668.179553 183.653277 
L 668.588792 183.843266 
L 669.202651 184.154886 
L 669.611891 184.094892 
L 670.02113 183.689292 
L 670.839609 182.787884 
L 671.862708 181.987465 
L 672.271947 181.572729 
L 672.681187 181.503211 
L 673.499665 181.899142 
L 673.908905 182.277718 
L 674.522764 182.892499 
L 676.159722 183.241682 
L 676.568961 182.634395 
L 677.38744 181.178973 
L 677.79668 180.839603 
L 678.205919 180.843713 
L 678.819778 180.969937 
L 679.229018 180.810694 
L 679.638257 180.258663 
L 680.047497 179.031566 
L 680.661356 176.704903 
L 681.070595 175.966073 
L 681.275215 175.937164 
L 681.479835 176.104818 
L 681.889074 176.876908 
L 682.707553 178.627078 
L 683.730652 180.120643 
L 683.935272 180.154725 
L 684.139891 180.009066 
L 684.549131 179.134005 
L 685.16299 177.756513 
L 685.572229 177.403317 
L 686.186089 177.149032 
L 687.004567 177.225608 
L 687.413807 177.011495 
L 687.823046 176.233556 
L 688.232286 174.753673 
L 690.687723 163.953454 
L 690.892342 164.105977 
L 691.096962 164.714232 
L 691.710821 168.064032 
L 692.32468 171.155775 
L 692.93854 173.346063 
L 693.552399 174.927515 
L 694.166258 175.973228 
L 694.575497 176.309503 
L 695.393976 176.573747 
L 695.598596 176.540487 
L 696.007835 176.14475 
L 696.826314 175.05867 
L 698.054033 172.360682 
L 698.667892 170.271239 
L 699.281751 167.206423 
L 700.10023 162.944966 
L 700.30485 162.728872 
L 700.509469 163.087047 
L 700.918709 165.24243 
L 701.941807 171.760066 
L 702.351047 173.625245 
L 702.760286 174.532116 
L 703.988005 175.673016 
L 704.397244 175.626993 
L 705.011103 175.334033 
L 705.624963 175.318418 
L 706.034202 174.948448 
L 706.648061 174.196662 
L 707.057301 174.162338 
L 707.67116 174.362189 
L 708.080399 174.116364 
L 708.489639 173.383335 
L 709.308118 171.676577 
L 709.717357 171.294617 
L 709.921977 171.387049 
L 710.331216 172.084401 
L 710.945075 173.175556 
L 711.354315 173.443523 
L 711.968174 173.659955 
L 712.582033 174.346381 
L 713.605132 175.621772 
L 714.218991 176.040038 
L 714.83285 176.406867 
L 715.24209 176.655206 
L 715.651329 176.493208 
L 716.265188 176.013788 
L 716.674428 176.047338 
L 717.288287 176.28422 
L 717.697526 176.179267 
L 718.311386 175.830373 
L 719.743724 175.335 
L 721.380682 173.634817 
L 721.994541 172.904737 
L 724.245358 172.296482 
L 724.859217 172.518813 
L 725.268456 172.812933 
L 725.882316 173.389523 
L 726.086935 173.393681 
L 726.496175 173.017474 
L 726.905414 172.527805 
L 727.110034 172.449392 
L 727.519273 172.65137 
L 727.928513 172.863694 
L 728.337752 172.711558 
L 729.156231 172.104076 
L 729.565471 172.146473 
L 730.17933 172.537087 
L 730.38395 172.516638 
L 730.997809 171.92888 
L 732.020907 171.032162 
L 732.430147 171.083357 
L 732.839386 171.162785 
L 733.248626 170.897429 
L 733.657865 170.53732 
L 733.862485 170.516339 
L 734.271724 170.914204 
L 734.680964 171.366213 
L 734.885583 171.332663 
L 735.294823 170.803692 
L 736.317922 169.393277 
L 736.727161 169.289581 
L 737.34102 169.381095 
L 737.75026 169.138122 
L 738.364119 168.288006 
L 739.387217 166.608513 
L 739.796457 165.873599 
L 740.205696 165.478877 
L 740.819556 164.986259 
L 742.251894 162.961354 
L 743.479612 162.516306 
L 743.888851 163.129444 
L 744.70733 164.730233 
L 745.32119 166.459036 
L 745.525809 166.630413 
L 745.730429 166.603824 
L 746.139668 166.249323 
L 746.548908 165.647353 
L 747.367387 164.299737 
L 748.185866 163.850628 
L 748.595105 163.174983 
L 749.208964 161.140748 
L 749.822824 159.28195 
L 750.232063 158.643578 
L 751.459781 157.574709 
L 751.664401 157.571373 
L 752.073641 157.85887 
L 752.6875 158.569322 
L 753.301359 159.605221 
L 753.915218 160.13371 
L 754.324458 161.022307 
L 754.938317 162.598538 
L 755.142936 162.837644 
L 755.347556 162.826863 
L 755.756796 162.195791 
L 756.370655 161.024676 
L 756.779894 160.715134 
L 757.189134 160.748346 
L 757.598373 160.927071 
L 758.007613 160.78731 
L 758.621472 160.237551 
L 759.030711 159.491083 
L 759.84919 157.77891 
L 760.05381 157.66482 
L 760.25843 157.765084 
L 760.667669 158.430577 
L 761.281528 159.702633 
L 761.690768 160.111375 
L 762.509247 160.736647 
L 764.146204 162.47681 
L 764.760064 162.887437 
L 765.169303 163.222601 
L 765.578543 163.279308 
L 765.987782 162.930511 
L 766.397021 162.488122 
L 766.806261 162.383991 
L 767.42012 162.520947 
L 768.647838 162.081749 
L 769.261698 161.426118 
L 769.670937 161.438784 
L 770.284796 161.860724 
L 771.512515 162.942307 
L 772.330993 163.233382 
L 772.740233 163.78667 
L 773.354092 164.651144 
L 773.558712 164.755179 
L 773.763332 164.669224 
L 774.172571 163.938178 
L 774.78643 162.586259 
L 775.19567 162.278119 
L 775.604909 162.489379 
L 776.832627 163.413509 
L 777.855726 163.574347 
L 778.674205 163.636516 
L 779.083444 164.148423 
L 779.901923 165.255483 
L 780.311163 165.584507 
L 780.720402 165.623713 
L 781.743501 165.064043 
L 782.7666 165.283135 
L 783.380459 165.450741 
L 784.403557 165.946936 
L 784.608177 165.852232 
L 785.426656 164.910554 
L 785.631276 164.99878 
L 787.472853 167.154309 
L 788.291332 168.586719 
L 788.700572 168.676154 
L 789.519051 168.435356 
L 790.337529 168.66779 
L 791.156008 168.088397 
L 791.565248 167.807136 
L 791.769868 167.777791 
L 794.020685 168.883353 
L 795.043783 169.824499 
L 795.453023 169.870812 
L 796.271502 170.226522 
L 796.680741 170.468673 
L 797.70384 171.557411 
L 798.317699 172.131584 
L 798.726938 172.349563 
L 798.931558 172.195493 
L 799.750037 171.057252 
L 800.159276 171.203829 
L 801.182375 171.980028 
L 801.796234 173.074615 
L 802.205474 173.794204 
L 802.410093 173.979649 
L 802.614713 174.002129 
L 803.637812 173.662711 
L 804.047051 173.711296 
L 804.66091 174.038483 
L 805.07015 174.591143 
L 806.297868 176.82958 
L 806.707108 177.046109 
L 807.320967 177.108085 
L 807.730206 177.410424 
L 808.548685 178.380238 
L 809.571784 179.954052 
L 809.981023 180.016125 
L 810.390263 180.053591 
L 811.004122 180.264899 
L 811.208742 180.175996 
L 811.617981 179.641271 
L 812.02722 179.05071 
L 812.23184 179.005944 
L 812.43646 179.173792 
L 814.073418 181.528059 
L 814.687277 181.900399 
L 815.710376 182.975504 
L 816.528854 183.287657 
L 817.142714 184.041473 
L 817.756573 184.808825 
L 818.165812 185.207028 
L 818.984291 186.505866 
L 819.59815 188.037235 
L 820.00739 189.002311 
L 820.416629 189.544481 
L 821.030488 189.928616 
L 821.644348 190.140843 
L 822.667446 191.107756 
L 823.281305 191.474971 
L 824.304404 192.509517 
L 824.713644 192.80209 
L 825.327503 193.845289 
L 825.941362 194.700433 
L 826.350601 194.834633 
L 827.16908 194.794992 
L 827.57832 194.804709 
L 827.987559 195.094478 
L 828.601418 196.112055 
L 829.215278 197.136545 
L 831.056855 199.30561 
L 831.670714 200.139434 
L 832.079954 200.354078 
L 832.489193 200.23322 
L 833.512292 199.436136 
L 834.126151 199.116781 
L 834.53539 199.251562 
L 834.94463 199.704393 
L 835.558489 200.693496 
L 836.581588 201.516588 
L 836.990827 201.481394 
L 837.604686 201.364307 
L 838.627785 201.698358 
L 839.037024 201.326647 
L 839.650884 200.620788 
L 840.264743 200.009681 
L 841.287841 198.829961 
L 841.697081 198.586456 
L 842.10632 197.959782 
L 842.72018 196.928814 
L 843.334039 196.343909 
L 844.152518 196.045438 
L 844.561757 195.97418 
L 844.766377 196.082276 
L 845.584856 196.974789 
L 845.789475 196.964588 
L 846.403335 196.59776 
L 846.812574 196.835318 
L 847.221814 197.078485 
L 847.426433 197.014382 
L 847.835673 196.535542 
L 848.654152 195.293411 
L 849.063391 194.777733 
L 850.08649 192.904674 
L 850.904969 191.05134 
L 852.132687 189.364499 
L 852.337307 189.2419 
L 852.541926 189.30407 
L 852.951166 189.876744 
L 853.565025 190.989074 
L 853.769645 191.025041 
L 854.178884 190.508977 
L 855.611222 187.948429 
L 856.429701 187.082214 
L 857.04356 185.912115 
L 859.294377 180.423513 
L 859.908237 180.267268 
L 860.317476 179.861185 
L 860.931335 179.170553 
L 861.135955 179.193081 
L 861.545194 179.750575 
L 862.159054 180.721066 
L 862.772913 181.232779 
L 863.182152 182.039918 
L 864.61449 185.381306 
L 865.842209 189.536214 
L 866.660688 191.525007 
L 867.479166 194.185819 
L 869.116124 199.604999 
L 870.548462 202.769258 
L 871.571561 206.405491 
L 871.9808 208.383165 
L 872.59466 213.070526 
L 874.436237 229.313226 
L 876.277815 244.86283 
L 876.950297 253 
M 925.228254 253 
L 925.705379 -1 
M 937.549112 -1 
L 938.686831 53.519942 
L 939.70993 93.064569 
L 940.528409 116.796314 
L 941.346888 134.136793 
L 942.165367 147.387096 
L 943.188465 160.209077 
L 944.211564 170.187895 
L 944.825423 174.456265 
L 945.234663 176.148907 
L 945.848522 177.577208 
L 947.48548 180.08105 
L 948.099339 181.419481 
L 948.303959 181.535746 
L 949.122437 181.4233 
L 949.736297 181.925393 
L 950.350156 182.70836 
L 950.759395 183.227808 
L 951.782494 183.992405 
L 952.191733 184.299481 
L 952.396353 184.209514 
L 953.010212 183.674934 
L 953.828691 183.586273 
L 954.237931 183.346974 
L 954.64717 183.412092 
L 955.670269 184.118532 
L 956.079508 184.422514 
L 957.511846 184.617966 
L 958.534945 183.485187 
L 959.558044 182.009075 
L 960.171903 181.259029 
L 960.581142 181.093502 
L 961.604241 181.004986 
L 962.01348 181.275514 
L 963.036579 182.423666 
L 963.445818 182.239044 
L 963.855058 182.024351 
L 964.264297 182.264037 
L 965.082776 183.012294 
L 965.492016 183.119664 
L 965.901255 183.037335 
L 966.719734 182.443342 
L 967.128973 181.794576 
L 967.538213 181.119414 
L 968.356692 180.549786 
L 968.561311 180.484667 
L 968.765931 180.579517 
L 970.198269 182.141584 
L 970.607509 182.227103 
L 971.016748 181.932161 
L 972.449086 180.055186 
L 972.653706 180.01569 
L 973.062945 180.398375 
L 973.472185 180.898969 
L 973.881424 181.082673 
L 974.699903 181.003052 
L 975.313762 181.406235 
L 976.132241 182.152703 
L 976.541481 182.147385 
L 976.95072 181.576789 
L 977.564579 180.510193 
L 978.178439 180.086367 
L 978.792298 179.807669 
L 978.996918 179.859879 
L 979.406157 180.295887 
L 979.815396 180.776902 
L 980.020016 180.857007 
L 980.838495 180.717682 
L 981.247735 181.21465 
L 982.066213 182.415496 
L 982.475453 182.373921 
L 983.703171 181.508722 
L 984.31703 180.77666 
L 985.135509 179.428126 
L 985.544749 178.7169 
L 987.181707 177.514168 
L 987.590946 177.71895 
L 988.000186 178.317295 
L 988.614045 179.295279 
L 989.841763 180.226514 
L 990.251003 180.68418 
L 990.660242 180.83912 
L 991.274101 181.06 
L 991.478721 181.141507 
L 991.683341 181.102059 
L 991.88796 180.857877 
L 992.2972 179.779049 
L 992.706439 178.598556 
L 993.115679 178.077319 
L 993.320298 178.083555 
L 993.729538 178.471413 
L 994.548017 179.61096 
L 995.980355 180.636078 
L 996.594214 181.471981 
L 996.798834 181.602653 
L 997.003454 181.565042 
L 997.412693 181.021857 
L 997.821932 180.531415 
L 998.435792 180.10846 
L 999.66351 178.822482 
L 1000.686609 177.873359 
L 1001.095848 176.664536 
L 1001.914327 173.917673 
L 1002.323566 173.363611 
L 1002.528186 173.418046 
L 1002.732806 173.752629 
L 1003.142045 175.119099 
L 1004.574383 181.220935 
L 1004.983623 181.638717 
L 1005.597482 181.942458 
L 1007.02982 181.63398 
L 1007.43906 181.36756 
L 1007.848299 180.901773 
L 1008.052919 180.832884 
L 1008.462158 181.130968 
L 1008.871398 181.389556 
L 1009.280637 181.325743 
L 1009.689877 180.954564 
L 1010.508355 180.033722 
L 1010.917595 179.540475 
L 1011.940694 177.787308 
L 1012.145313 177.698211 
L 1012.349933 177.800554 
L 1012.759172 178.520723 
L 1013.782271 180.609635 
L 1014.191511 181.0527 
L 1014.60075 181.098626 
L 1015.214609 181.085332 
L 1015.623849 181.286343 
L 1016.237708 181.652737 
L 1016.646947 181.693683 
L 1017.260806 181.695617 
L 1018.079285 182.274141 
L 1019.102384 182.105084 
L 1019.511623 182.228601 
L 1019.920863 181.859694 
L 1020.330102 181.52395 
L 1020.943962 181.324196 
L 1021.96706 180.407802 
L 1022.17168 180.453051 
L 1022.3763 180.618385 
L 1022.785539 181.42707 
L 1023.808638 183.924434 
L 1024.217877 184.28841 
L 1024.831736 184.339171 
L 1025.650215 184.396264 
L 1026.264074 184.360055 
L 1027.082553 184.482025 
L 1027.696413 184.216911 
L 1028.310272 183.884744 
L 1029.33337 183.806863 
L 1029.74261 183.152586 
L 1030.151849 182.518661 
L 1031.584187 181.688946 
L 1031.993427 181.908666 
L 1032.607286 182.531327 
L 1032.811906 182.589387 
L 1033.016525 182.48192 
L 1033.425765 181.7749 
L 1034.039624 180.529288 
L 1034.244244 180.463348 
L 1034.448864 180.652322 
L 1035.471962 182.407665 
L 1035.881202 182.54027 
L 1036.699681 182.323064 
L 1037.518159 182.328672 
L 1037.927399 182.416608 
L 1038.950498 183.306221 
L 1039.359737 183.198899 
L 1039.973596 182.933204 
L 1040.382836 183.002287 
L 1040.792075 183.101342 
L 1041.201314 182.798472 
L 1041.815174 182.114656 
L 1042.019793 182.124712 
L 1042.429033 182.535968 
L 1043.042892 183.17492 
L 1043.656751 183.506603 
L 1043.861371 183.513178 
L 1044.27061 183.151909 
L 1044.88447 182.240397 
L 1045.293709 181.986885 
L 1045.702948 182.062446 
L 1046.726047 182.568841 
L 1047.135287 182.410759 
L 1047.749146 182.059738 
L 1048.772244 182.27211 
L 1049.386104 182.118234 
L 1049.795343 182.328865 
L 1050.204582 182.739976 
L 1051.023061 183.985153 
L 1052.04616 183.96393 
L 1052.660019 184.356623 
L 1053.069259 184.255924 
L 1053.887738 183.548904 
L 1054.910836 182.270805 
L 1055.115456 182.369184 
L 1055.933935 183.458115 
L 1056.138555 183.473198 
L 1056.547794 183.108303 
L 1057.366273 181.658054 
L 1057.570893 181.621942 
L 1058.184752 181.981084 
L 1058.389372 181.920413 
L 1059.41247 180.856233 
L 1060.230949 180.55317 
L 1060.640189 180.815722 
L 1061.254048 181.601493 
L 1062.072527 182.915704 
L 1063.709484 183.668215 
L 1064.527963 183.97181 
L 1065.346442 183.531935 
L 1065.755682 183.730384 
L 1066.164921 183.981721 
L 1066.9834 184.088366 
L 1067.597259 184.473033 
L 1067.801879 184.46641 
L 1068.211118 184.122883 
L 1068.620358 183.736475 
L 1069.029597 183.806235 
L 1069.438837 183.967943 
L 1069.643457 183.871595 
L 1070.461935 182.968156 
L 1071.485034 182.59398 
L 1072.303513 181.699678 
L 1072.712752 181.536906 
L 1072.917372 181.567894 
L 1073.121992 181.734775 
L 1074.145091 183.288479 
L 1074.75895 183.365103 
L 1075.168189 183.349584 
L 1076.191288 182.943985 
L 1076.600527 183.03487 
L 1077.009767 182.843092 
L 1078.237485 181.724188 
L 1078.646725 181.796364 
L 1079.874443 182.592288 
L 1081.511401 182.648704 
L 1082.534499 183.146591 
L 1083.762218 183.253962 
L 1084.171457 183.414364 
L 1084.376077 183.268658 
L 1085.399175 181.756626 
L 1085.603795 181.859211 
L 1086.013035 182.550809 
L 1086.831514 184.071011 
L 1087.445373 184.776484 
L 1088.059232 185.097193 
L 1088.263852 185.113774 
L 1088.673091 184.804668 
L 1089.49157 183.768914 
L 1090.923908 183.502833 
L 1091.537767 183.880345 
L 1091.947007 183.702345 
L 1092.356246 183.482287 
L 1092.970105 183.320772 
L 1093.379345 183.145044 
L 1093.993204 183.11396 
L 1094.607063 182.801082 
L 1094.811683 182.845896 
L 1095.220922 183.281469 
L 1095.630162 183.6628 
L 1096.85788 183.797001 
L 1097.26712 183.444579 
L 1097.676359 183.230612 
L 1098.699458 183.48132 
L 1099.108697 183.464448 
L 1099.722556 183.251979 
L 1100.131796 183.53324 
L 1100.336416 183.731158 
L 1100.541035 183.762774 
L 1100.745655 183.539863 
L 1101.768754 181.675651 
L 1101.973373 181.598592 
L 1102.177993 181.642198 
L 1102.587233 182.079027 
L 1103.405711 183.395414 
L 1103.610331 183.488475 
L 1103.814951 183.422728 
L 1104.22419 182.846815 
L 1105.247289 181.086347 
L 1105.656528 180.518991 
L 1106.065768 180.309713 
L 1106.475007 180.516864 
L 1106.884247 180.740451 
L 1107.293486 180.554862 
L 1108.521205 179.418119 
L 1109.544303 178.918008 
L 1109.953543 178.490509 
L 1110.567402 177.485936 
L 1112.818219 172.708657 
L 1113.432078 171.017514 
L 1113.841318 169.39874 
L 1116.296754 156.77545 
L 1117.319853 150.738056 
L 1118.342951 144.401079 
L 1118.956811 139.347228 
L 1119.57067 132.280074 
L 1119.979909 125.260781 
L 1120.389149 115.343503 
L 1121.003008 93.62216 
L 1121.616867 61.589493 
L 1122.672756 -1 
M 1123.233466 -1 
L 1123.253825 -0.519003 
L 1123.663064 21.393635 
L 1124.890783 103.17667 
L 1125.504642 125.645061 
L 1125.913881 134.540701 
L 1126.527741 142.662366 
L 1128.778558 166.755428 
L 1129.597036 172.404191 
L 1130.210896 175.719136 
L 1130.824755 177.844256 
L 1131.847853 180.677992 
L 1132.052473 180.893893 
L 1132.461713 180.856669 
L 1133.075572 180.591844 
L 1133.689431 180.662087 
L 1134.09867 180.873154 
L 1134.917149 181.761267 
L 1135.940248 182.907582 
L 1136.349487 182.969607 
L 1136.758727 182.673553 
L 1137.167966 182.32611 
L 1137.372586 182.293865 
L 1137.781826 182.610513 
L 1138.191065 182.901733 
L 1138.804924 183.249176 
L 1139.418783 183.725405 
L 1139.828023 183.792892 
L 1140.441882 183.79705 
L 1140.851121 183.83234 
L 1141.87422 183.421616 
L 1142.28346 183.555382 
L 1143.306558 184.223969 
L 1143.920417 184.489083 
L 1145.148136 185.715164 
L 1145.352755 185.626358 
L 1145.761995 184.975029 
L 1146.171234 184.316594 
L 1146.580474 184.041328 
L 1147.194333 183.882424 
L 1148.012812 183.294328 
L 1148.422051 183.330972 
L 1148.831291 183.82562 
L 1149.64977 185.137849 
L 1150.059009 185.059968 
L 1150.468249 185.006307 
L 1151.286728 185.605667 
L 1151.491347 185.514975 
L 1152.309826 184.630777 
L 1152.719066 184.883854 
L 1153.332925 185.439898 
L 1153.742164 185.394214 
L 1154.765263 184.806263 
L 1155.583742 183.922307 
L 1155.992981 184.026535 
L 1156.81146 184.659348 
L 1157.629939 184.848418 
L 1158.039178 184.580017 
L 1158.857657 183.610155 
L 1159.266897 183.589319 
L 1159.676136 183.746628 
L 1160.085376 184.227014 
L 1160.699235 185.214135 
L 1161.517714 186.120667 
L 1161.926953 186.68754 
L 1162.336193 186.904263 
L 1162.745432 186.736415 
L 1163.154672 186.176117 
L 1163.768531 184.983731 
L 1164.17777 184.747816 
L 1164.58701 184.558117 
L 1165.200869 184.059747 
L 1165.814728 183.981286 
L 1166.223968 183.569981 
L 1166.837827 182.949351 
L 1167.247066 182.956699 
L 1167.656306 183.142917 
L 1168.270165 183.898764 
L 1169.088644 184.817092 
L 1169.497883 184.902659 
L 1169.907123 184.963137 
L 1170.316362 185.415146 
L 1170.930221 186.068505 
L 1171.7487 186.972669 
L 1172.15794 187.281824 
L 1172.362559 187.11035 
L 1173.385658 185.497088 
L 1173.794897 185.300766 
L 1174.613376 185.427087 
L 1175.227236 185.45967 
L 1176.045714 185.48447 
L 1176.864193 185.649563 
L 1177.273433 185.321699 
L 1178.296531 184.273424 
L 1178.705771 184.386209 
L 1179.11501 184.651033 
L 1179.31963 184.622994 
L 1180.138109 183.931589 
L 1180.751968 184.052495 
L 1181.365827 184.437936 
L 1181.979687 185.250779 
L 1183.002785 186.668251 
L 1183.412025 186.914802 
L 1183.821264 186.86757 
L 1184.844363 186.405941 
L 1184.844363 186.405941 
" clip-path="url(#pf78e602b5b)" style="fill: none; stroke: #000000; stroke-width: 2; stroke-linecap: square"/>
   </g>
   <g id="patch_3">
    <path d="M 3.00024 198.907885 
L 1184.99976 198.907885 
" style="fill: none; stroke: #000000; stroke-width: 2; stroke-linejoin: miter; stroke-linecap: square"/>
   </g>
  </g>
 </g>
 <defs>
  <clipPath id="pf78e602b5b">
   <rect x="3.00024" y="3.00024" width="1181.99952" height="195.907645"/>
  </clipPath>
 </defs>
</svg>
