<?xml version="1.0" encoding="utf-8" standalone="no"?>
<!DOCTYPE svg PUBLIC "-//W3C//DTD SVG 1.1//EN"
  "http://www.w3.org/Graphics/SVG/1.1/DTD/svg11.dtd">
<svg xmlns:xlink="http://www.w3.org/1999/xlink" width="1188pt" height="252pt" viewBox="0 0 1188 252" xmlns="http://www.w3.org/2000/svg" version="1.1">
 <metadata>
  <rdf:RDF xmlns:dc="http://purl.org/dc/elements/1.1/" xmlns:cc="http://creativecommons.org/ns#" xmlns:rdf="http://www.w3.org/1999/02/22-rdf-syntax-ns#">
   <cc:Work>
    <dc:type rdf:resource="http://purl.org/dc/dcmitype/StillImage"/>
    <dc:date>2024-07-23T21:41:12.372946</dc:date>
    <dc:format>image/svg+xml</dc:format>
    <dc:creator>
     <cc:Agent>
      <dc:title>Matplotlib v3.8.4, https://matplotlib.org/</dc:title>
     </cc:Agent>
    </dc:creator>
   </cc:Work>
  </rdf:RDF>
 </metadata>
 <defs>
  <style type="text/css">*{stroke-linejoin: round; stroke-linecap: butt}</style>
 </defs>
 <g id="figure_1">
  <g id="patch_1">
   <path d="M 0 252 
L 1188 252 
L 1188 0 
L 0 0 
z
" style="fill: #ffffff"/>
  </g>
  <g id="axes_1">
   <g id="patch_2">
    <path d="M 3.00024 198.907885 
L 1184.99976 198.907885 
L 1184.99976 3.00024 
L 3.00024 3.00024 
z
" style="fill: #ffffff"/>
   </g>
   <g id="matplotlib.axis_1">
    <g id="xtick_1">
     <g id="line2d_1">
      <defs>
       <path id="maaf87b0c23" d="M 0 0 
L 0 8 
" style="stroke: #000000; stroke-width: 2"/>
      </defs>
      <g>
       <use xlink:href="#maaf87b0c23" x="1131.272509" y="198.907885" style="stroke: #000000; stroke-width: 2"/>
      </g>
     </g>
     <g id="text_1">
      <!-- 0 -->
      <g transform="translate(1126.267665 224.791947) scale(0.18 -0.18)">
       <defs>
        <path id="Arial-BoldMT-30" d="M 1756 4600 
Q 2422 4600 2797 4125 
Q 3244 3563 3244 2259 
Q 3244 959 2794 391 
Q 2422 -78 1756 -78 
Q 1088 -78 678 436 
Q 269 950 269 2269 
Q 269 3563 719 4131 
Q 1091 4600 1756 4600 
z
M 1756 3872 
Q 1597 3872 1472 3770 
Q 1347 3669 1278 3406 
Q 1188 3066 1188 2259 
Q 1188 1453 1269 1151 
Q 1350 850 1473 750 
Q 1597 650 1756 650 
Q 1916 650 2041 751 
Q 2166 853 2234 1116 
Q 2325 1453 2325 2259 
Q 2325 3066 2244 3367 
Q 2163 3669 2039 3770 
Q 1916 3872 1756 3872 
z
" transform="scale(0.015625)"/>
       </defs>
       <use xlink:href="#Arial-BoldMT-30"/>
      </g>
     </g>
    </g>
    <g id="xtick_2">
     <g id="line2d_2">
      <g>
       <use xlink:href="#maaf87b0c23" x="1023.818007" y="198.907885" style="stroke: #000000; stroke-width: 2"/>
      </g>
     </g>
     <g id="text_2">
      <!-- 1 -->
      <g transform="translate(1018.813164 224.791947) scale(0.18 -0.18)">
       <defs>
        <path id="Arial-BoldMT-31" d="M 2519 0 
L 1641 0 
L 1641 3309 
Q 1159 2859 506 2644 
L 506 3441 
Q 850 3553 1253 3867 
Q 1656 4181 1806 4600 
L 2519 4600 
L 2519 0 
z
" transform="scale(0.015625)"/>
       </defs>
       <use xlink:href="#Arial-BoldMT-31"/>
      </g>
     </g>
    </g>
    <g id="xtick_3">
     <g id="line2d_3">
      <g>
       <use xlink:href="#maaf87b0c23" x="916.363505" y="198.907885" style="stroke: #000000; stroke-width: 2"/>
      </g>
     </g>
     <g id="text_3">
      <!-- 2 -->
      <g transform="translate(911.358662 224.791947) scale(0.18 -0.18)">
       <defs>
        <path id="Arial-BoldMT-32" d="M 3238 816 
L 3238 0 
L 159 0 
Q 209 463 459 877 
Q 709 1291 1447 1975 
Q 2041 2528 2175 2725 
Q 2356 2997 2356 3263 
Q 2356 3556 2198 3714 
Q 2041 3872 1763 3872 
Q 1488 3872 1325 3706 
Q 1163 3541 1138 3156 
L 263 3244 
Q 341 3969 753 4284 
Q 1166 4600 1784 4600 
Q 2463 4600 2850 4234 
Q 3238 3869 3238 3325 
Q 3238 3016 3127 2736 
Q 3016 2456 2775 2150 
Q 2616 1947 2200 1565 
Q 1784 1184 1673 1059 
Q 1563 934 1494 816 
L 3238 816 
z
" transform="scale(0.015625)"/>
       </defs>
       <use xlink:href="#Arial-BoldMT-32"/>
      </g>
     </g>
    </g>
    <g id="xtick_4">
     <g id="line2d_4">
      <g>
       <use xlink:href="#maaf87b0c23" x="808.909004" y="198.907885" style="stroke: #000000; stroke-width: 2"/>
      </g>
     </g>
     <g id="text_4">
      <!-- 3 -->
      <g transform="translate(803.90416 224.791947) scale(0.18 -0.18)">
       <defs>
        <path id="Arial-BoldMT-33" d="M 241 1216 
L 1091 1319 
Q 1131 994 1309 822 
Q 1488 650 1741 650 
Q 2013 650 2198 856 
Q 2384 1063 2384 1413 
Q 2384 1744 2206 1937 
Q 2028 2131 1772 2131 
Q 1603 2131 1369 2066 
L 1466 2781 
Q 1822 2772 2009 2936 
Q 2197 3100 2197 3372 
Q 2197 3603 2059 3740 
Q 1922 3878 1694 3878 
Q 1469 3878 1309 3722 
Q 1150 3566 1116 3266 
L 306 3403 
Q 391 3819 561 4067 
Q 731 4316 1036 4458 
Q 1341 4600 1719 4600 
Q 2366 4600 2756 4188 
Q 3078 3850 3078 3425 
Q 3078 2822 2419 2463 
Q 2813 2378 3048 2084 
Q 3284 1791 3284 1375 
Q 3284 772 2843 347 
Q 2403 -78 1747 -78 
Q 1125 -78 715 280 
Q 306 638 241 1216 
z
" transform="scale(0.015625)"/>
       </defs>
       <use xlink:href="#Arial-BoldMT-33"/>
      </g>
     </g>
    </g>
    <g id="xtick_5">
     <g id="line2d_5">
      <g>
       <use xlink:href="#maaf87b0c23" x="701.454502" y="198.907885" style="stroke: #000000; stroke-width: 2"/>
      </g>
     </g>
     <g id="text_5">
      <!-- 4 -->
      <g transform="translate(696.449658 224.791947) scale(0.18 -0.18)">
       <defs>
        <path id="Arial-BoldMT-34" d="M 1994 0 
L 1994 922 
L 119 922 
L 119 1691 
L 2106 4600 
L 2844 4600 
L 2844 1694 
L 3413 1694 
L 3413 922 
L 2844 922 
L 2844 0 
L 1994 0 
z
M 1994 1694 
L 1994 3259 
L 941 1694 
L 1994 1694 
z
" transform="scale(0.015625)"/>
       </defs>
       <use xlink:href="#Arial-BoldMT-34"/>
      </g>
     </g>
    </g>
    <g id="xtick_6">
     <g id="line2d_6">
      <g>
       <use xlink:href="#maaf87b0c23" x="594" y="198.907885" style="stroke: #000000; stroke-width: 2"/>
      </g>
     </g>
     <g id="text_6">
      <!-- 5 -->
      <g transform="translate(588.995156 224.791947) scale(0.18 -0.18)">
       <defs>
        <path id="Arial-BoldMT-35" d="M 284 1178 
L 1159 1269 
Q 1197 972 1381 798 
Q 1566 625 1806 625 
Q 2081 625 2272 848 
Q 2463 1072 2463 1522 
Q 2463 1944 2273 2155 
Q 2084 2366 1781 2366 
Q 1403 2366 1103 2031 
L 391 2134 
L 841 4519 
L 3163 4519 
L 3163 3697 
L 1506 3697 
L 1369 2919 
Q 1663 3066 1969 3066 
Q 2553 3066 2959 2641 
Q 3366 2216 3366 1538 
Q 3366 972 3038 528 
Q 2591 -78 1797 -78 
Q 1163 -78 763 262 
Q 363 603 284 1178 
z
" transform="scale(0.015625)"/>
       </defs>
       <use xlink:href="#Arial-BoldMT-35"/>
      </g>
     </g>
    </g>
    <g id="xtick_7">
     <g id="line2d_7">
      <g>
       <use xlink:href="#maaf87b0c23" x="486.545498" y="198.907885" style="stroke: #000000; stroke-width: 2"/>
      </g>
     </g>
     <g id="text_7">
      <!-- 6 -->
      <g transform="translate(481.540654 224.791947) scale(0.18 -0.18)">
       <defs>
        <path id="Arial-BoldMT-36" d="M 3247 3459 
L 2397 3366 
Q 2366 3628 2234 3753 
Q 2103 3878 1894 3878 
Q 1616 3878 1423 3628 
Q 1231 3378 1181 2588 
Q 1509 2975 1997 2975 
Q 2547 2975 2939 2556 
Q 3331 2138 3331 1475 
Q 3331 772 2918 347 
Q 2506 -78 1859 -78 
Q 1166 -78 719 461 
Q 272 1000 272 2228 
Q 272 3488 737 4044 
Q 1203 4600 1947 4600 
Q 2469 4600 2811 4308 
Q 3153 4016 3247 3459 
z
M 1256 1544 
Q 1256 1116 1453 883 
Q 1650 650 1903 650 
Q 2147 650 2309 840 
Q 2472 1031 2472 1466 
Q 2472 1913 2297 2120 
Q 2122 2328 1859 2328 
Q 1606 2328 1431 2129 
Q 1256 1931 1256 1544 
z
" transform="scale(0.015625)"/>
       </defs>
       <use xlink:href="#Arial-BoldMT-36"/>
      </g>
     </g>
    </g>
    <g id="xtick_8">
     <g id="line2d_8">
      <g>
       <use xlink:href="#maaf87b0c23" x="379.090996" y="198.907885" style="stroke: #000000; stroke-width: 2"/>
      </g>
     </g>
     <g id="text_8">
      <!-- 7 -->
      <g transform="translate(374.086153 224.791947) scale(0.18 -0.18)">
       <defs>
        <path id="Arial-BoldMT-37" d="M 272 3703 
L 272 4519 
L 3275 4519 
L 3275 3881 
Q 2903 3516 2518 2831 
Q 2134 2147 1932 1376 
Q 1731 606 1734 0 
L 888 0 
Q 909 950 1279 1937 
Q 1650 2925 2269 3703 
L 272 3703 
z
" transform="scale(0.015625)"/>
       </defs>
       <use xlink:href="#Arial-BoldMT-37"/>
      </g>
     </g>
    </g>
    <g id="xtick_9">
     <g id="line2d_9">
      <g>
       <use xlink:href="#maaf87b0c23" x="271.636495" y="198.907885" style="stroke: #000000; stroke-width: 2"/>
      </g>
     </g>
     <g id="text_9">
      <!-- 8 -->
      <g transform="translate(266.631651 224.791947) scale(0.18 -0.18)">
       <defs>
        <path id="Arial-BoldMT-38" d="M 1025 2472 
Q 684 2616 529 2867 
Q 375 3119 375 3419 
Q 375 3931 733 4265 
Q 1091 4600 1750 4600 
Q 2403 4600 2764 4265 
Q 3125 3931 3125 3419 
Q 3125 3100 2959 2851 
Q 2794 2603 2494 2472 
Q 2875 2319 3073 2025 
Q 3272 1731 3272 1347 
Q 3272 713 2867 316 
Q 2463 -81 1791 -81 
Q 1166 -81 750 247 
Q 259 634 259 1309 
Q 259 1681 443 1992 
Q 628 2303 1025 2472 
z
M 1206 3356 
Q 1206 3094 1354 2947 
Q 1503 2800 1750 2800 
Q 2000 2800 2150 2948 
Q 2300 3097 2300 3359 
Q 2300 3606 2151 3754 
Q 2003 3903 1759 3903 
Q 1506 3903 1356 3753 
Q 1206 3603 1206 3356 
z
M 1125 1394 
Q 1125 1031 1311 828 
Q 1497 625 1775 625 
Q 2047 625 2225 820 
Q 2403 1016 2403 1384 
Q 2403 1706 2222 1901 
Q 2041 2097 1763 2097 
Q 1441 2097 1283 1875 
Q 1125 1653 1125 1394 
z
" transform="scale(0.015625)"/>
       </defs>
       <use xlink:href="#Arial-BoldMT-38"/>
      </g>
     </g>
    </g>
    <g id="xtick_10">
     <g id="line2d_10">
      <g>
       <use xlink:href="#maaf87b0c23" x="164.181993" y="198.907885" style="stroke: #000000; stroke-width: 2"/>
      </g>
     </g>
     <g id="text_10">
      <!-- 9 -->
      <g transform="translate(159.177149 224.791947) scale(0.18 -0.18)">
       <defs>
        <path id="Arial-BoldMT-39" d="M 291 1059 
L 1141 1153 
Q 1172 894 1303 769 
Q 1434 644 1650 644 
Q 1922 644 2112 894 
Q 2303 1144 2356 1931 
Q 2025 1547 1528 1547 
Q 988 1547 595 1964 
Q 203 2381 203 3050 
Q 203 3747 617 4173 
Q 1031 4600 1672 4600 
Q 2369 4600 2816 4061 
Q 3263 3522 3263 2288 
Q 3263 1031 2797 475 
Q 2331 -81 1584 -81 
Q 1047 -81 715 205 
Q 384 491 291 1059 
z
M 2278 2978 
Q 2278 3403 2083 3637 
Q 1888 3872 1631 3872 
Q 1388 3872 1227 3680 
Q 1066 3488 1066 3050 
Q 1066 2606 1241 2398 
Q 1416 2191 1678 2191 
Q 1931 2191 2104 2391 
Q 2278 2591 2278 2978 
z
" transform="scale(0.015625)"/>
       </defs>
       <use xlink:href="#Arial-BoldMT-39"/>
      </g>
     </g>
    </g>
    <g id="xtick_11">
     <g id="line2d_11">
      <g>
       <use xlink:href="#maaf87b0c23" x="56.727491" y="198.907885" style="stroke: #000000; stroke-width: 2"/>
      </g>
     </g>
     <g id="text_11">
      <!-- 10 -->
      <g transform="translate(46.717803 224.791947) scale(0.18 -0.18)">
       <use xlink:href="#Arial-BoldMT-31"/>
       <use xlink:href="#Arial-BoldMT-30" x="55.615234"/>
      </g>
     </g>
    </g>
    <g id="text_12">
     <!-- Chemical Shift / ppm -->
     <g transform="translate(504.992813 245.447573) scale(0.18 -0.18)">
      <defs>
       <path id="Arial-BoldMT-43" d="M 3397 1684 
L 4294 1400 
Q 4088 650 3608 286 
Q 3128 -78 2391 -78 
Q 1478 -78 890 545 
Q 303 1169 303 2250 
Q 303 3394 893 4026 
Q 1484 4659 2447 4659 
Q 3288 4659 3813 4163 
Q 4125 3869 4281 3319 
L 3366 3100 
Q 3284 3456 3026 3662 
Q 2769 3869 2400 3869 
Q 1891 3869 1573 3503 
Q 1256 3138 1256 2319 
Q 1256 1450 1568 1081 
Q 1881 713 2381 713 
Q 2750 713 3015 947 
Q 3281 1181 3397 1684 
z
" transform="scale(0.015625)"/>
       <path id="Arial-BoldMT-68" d="M 1334 4581 
L 1334 2897 
Q 1759 3394 2350 3394 
Q 2653 3394 2897 3281 
Q 3141 3169 3264 2994 
Q 3388 2819 3433 2606 
Q 3478 2394 3478 1947 
L 3478 0 
L 2600 0 
L 2600 1753 
Q 2600 2275 2550 2415 
Q 2500 2556 2373 2639 
Q 2247 2722 2056 2722 
Q 1838 2722 1666 2615 
Q 1494 2509 1414 2295 
Q 1334 2081 1334 1663 
L 1334 0 
L 456 0 
L 456 4581 
L 1334 4581 
z
" transform="scale(0.015625)"/>
       <path id="Arial-BoldMT-65" d="M 2381 1056 
L 3256 909 
Q 3088 428 2723 176 
Q 2359 -75 1813 -75 
Q 947 -75 531 491 
Q 203 944 203 1634 
Q 203 2459 634 2926 
Q 1066 3394 1725 3394 
Q 2466 3394 2894 2905 
Q 3322 2416 3303 1406 
L 1103 1406 
Q 1113 1016 1316 798 
Q 1519 581 1822 581 
Q 2028 581 2168 693 
Q 2309 806 2381 1056 
z
M 2431 1944 
Q 2422 2325 2234 2523 
Q 2047 2722 1778 2722 
Q 1491 2722 1303 2513 
Q 1116 2303 1119 1944 
L 2431 1944 
z
" transform="scale(0.015625)"/>
       <path id="Arial-BoldMT-6d" d="M 394 3319 
L 1203 3319 
L 1203 2866 
Q 1638 3394 2238 3394 
Q 2556 3394 2790 3262 
Q 3025 3131 3175 2866 
Q 3394 3131 3647 3262 
Q 3900 3394 4188 3394 
Q 4553 3394 4806 3245 
Q 5059 3097 5184 2809 
Q 5275 2597 5275 2122 
L 5275 0 
L 4397 0 
L 4397 1897 
Q 4397 2391 4306 2534 
Q 4184 2722 3931 2722 
Q 3747 2722 3584 2609 
Q 3422 2497 3350 2280 
Q 3278 2063 3278 1594 
L 3278 0 
L 2400 0 
L 2400 1819 
Q 2400 2303 2353 2443 
Q 2306 2584 2207 2653 
Q 2109 2722 1941 2722 
Q 1738 2722 1575 2612 
Q 1413 2503 1342 2297 
Q 1272 2091 1272 1613 
L 1272 0 
L 394 0 
L 394 3319 
z
" transform="scale(0.015625)"/>
       <path id="Arial-BoldMT-69" d="M 459 3769 
L 459 4581 
L 1338 4581 
L 1338 3769 
L 459 3769 
z
M 459 0 
L 459 3319 
L 1338 3319 
L 1338 0 
L 459 0 
z
" transform="scale(0.015625)"/>
       <path id="Arial-BoldMT-63" d="M 3353 2338 
L 2488 2181 
Q 2444 2441 2289 2572 
Q 2134 2703 1888 2703 
Q 1559 2703 1364 2476 
Q 1169 2250 1169 1719 
Q 1169 1128 1367 884 
Q 1566 641 1900 641 
Q 2150 641 2309 783 
Q 2469 925 2534 1272 
L 3397 1125 
Q 3263 531 2881 228 
Q 2500 -75 1859 -75 
Q 1131 -75 698 384 
Q 266 844 266 1656 
Q 266 2478 700 2936 
Q 1134 3394 1875 3394 
Q 2481 3394 2839 3133 
Q 3197 2872 3353 2338 
z
" transform="scale(0.015625)"/>
       <path id="Arial-BoldMT-61" d="M 1116 2306 
L 319 2450 
Q 453 2931 781 3162 
Q 1109 3394 1756 3394 
Q 2344 3394 2631 3255 
Q 2919 3116 3036 2902 
Q 3153 2688 3153 2116 
L 3144 1091 
Q 3144 653 3186 445 
Q 3228 238 3344 0 
L 2475 0 
Q 2441 88 2391 259 
Q 2369 338 2359 363 
Q 2134 144 1878 34 
Q 1622 -75 1331 -75 
Q 819 -75 523 203 
Q 228 481 228 906 
Q 228 1188 362 1408 
Q 497 1628 739 1745 
Q 981 1863 1438 1950 
Q 2053 2066 2291 2166 
L 2291 2253 
Q 2291 2506 2166 2614 
Q 2041 2722 1694 2722 
Q 1459 2722 1328 2630 
Q 1197 2538 1116 2306 
z
M 2291 1594 
Q 2122 1538 1756 1459 
Q 1391 1381 1278 1306 
Q 1106 1184 1106 997 
Q 1106 813 1243 678 
Q 1381 544 1594 544 
Q 1831 544 2047 700 
Q 2206 819 2256 991 
Q 2291 1103 2291 1419 
L 2291 1594 
z
" transform="scale(0.015625)"/>
       <path id="Arial-BoldMT-6c" d="M 459 0 
L 459 4581 
L 1338 4581 
L 1338 0 
L 459 0 
z
" transform="scale(0.015625)"/>
       <path id="Arial-BoldMT-20" transform="scale(0.015625)"/>
       <path id="Arial-BoldMT-53" d="M 231 1491 
L 1131 1578 
Q 1213 1125 1461 912 
Q 1709 700 2131 700 
Q 2578 700 2804 889 
Q 3031 1078 3031 1331 
Q 3031 1494 2936 1608 
Q 2841 1722 2603 1806 
Q 2441 1863 1863 2006 
Q 1119 2191 819 2459 
Q 397 2838 397 3381 
Q 397 3731 595 4036 
Q 794 4341 1167 4500 
Q 1541 4659 2069 4659 
Q 2931 4659 3367 4281 
Q 3803 3903 3825 3272 
L 2900 3231 
Q 2841 3584 2645 3739 
Q 2450 3894 2059 3894 
Q 1656 3894 1428 3728 
Q 1281 3622 1281 3444 
Q 1281 3281 1419 3166 
Q 1594 3019 2269 2859 
Q 2944 2700 3267 2529 
Q 3591 2359 3773 2064 
Q 3956 1769 3956 1334 
Q 3956 941 3737 597 
Q 3519 253 3119 86 
Q 2719 -81 2122 -81 
Q 1253 -81 787 320 
Q 322 722 231 1491 
z
" transform="scale(0.015625)"/>
       <path id="Arial-BoldMT-66" d="M 75 3319 
L 563 3319 
L 563 3569 
Q 563 3988 652 4194 
Q 741 4400 980 4529 
Q 1219 4659 1584 4659 
Q 1959 4659 2319 4547 
L 2200 3934 
Q 1991 3984 1797 3984 
Q 1606 3984 1523 3895 
Q 1441 3806 1441 3553 
L 1441 3319 
L 2097 3319 
L 2097 2628 
L 1441 2628 
L 1441 0 
L 563 0 
L 563 2628 
L 75 2628 
L 75 3319 
z
" transform="scale(0.015625)"/>
       <path id="Arial-BoldMT-74" d="M 1981 3319 
L 1981 2619 
L 1381 2619 
L 1381 1281 
Q 1381 875 1398 808 
Q 1416 741 1477 697 
Q 1538 653 1625 653 
Q 1747 653 1978 738 
L 2053 56 
Q 1747 -75 1359 -75 
Q 1122 -75 931 4 
Q 741 84 652 211 
Q 563 338 528 553 
Q 500 706 500 1172 
L 500 2619 
L 97 2619 
L 97 3319 
L 500 3319 
L 500 3978 
L 1381 4491 
L 1381 3319 
L 1981 3319 
z
" transform="scale(0.015625)"/>
       <path id="Arial-BoldMT-2f" d="M -9 -78 
L 1125 4659 
L 1784 4659 
L 638 -78 
L -9 -78 
z
" transform="scale(0.015625)"/>
       <path id="Arial-BoldMT-70" d="M 434 3319 
L 1253 3319 
L 1253 2831 
Q 1413 3081 1684 3237 
Q 1956 3394 2288 3394 
Q 2866 3394 3269 2941 
Q 3672 2488 3672 1678 
Q 3672 847 3265 386 
Q 2859 -75 2281 -75 
Q 2006 -75 1782 34 
Q 1559 144 1313 409 
L 1313 -1263 
L 434 -1263 
L 434 3319 
z
M 1303 1716 
Q 1303 1156 1525 889 
Q 1747 622 2066 622 
Q 2372 622 2575 867 
Q 2778 1113 2778 1672 
Q 2778 2194 2568 2447 
Q 2359 2700 2050 2700 
Q 1728 2700 1515 2451 
Q 1303 2203 1303 1716 
z
" transform="scale(0.015625)"/>
      </defs>
      <use xlink:href="#Arial-BoldMT-43"/>
      <use xlink:href="#Arial-BoldMT-68" x="72.216797"/>
      <use xlink:href="#Arial-BoldMT-65" x="133.300781"/>
      <use xlink:href="#Arial-BoldMT-6d" x="188.916016"/>
      <use xlink:href="#Arial-BoldMT-69" x="277.832031"/>
      <use xlink:href="#Arial-BoldMT-63" x="305.615234"/>
      <use xlink:href="#Arial-BoldMT-61" x="361.230469"/>
      <use xlink:href="#Arial-BoldMT-6c" x="416.845703"/>
      <use xlink:href="#Arial-BoldMT-20" x="444.628906"/>
      <use xlink:href="#Arial-BoldMT-53" x="472.412109"/>
      <use xlink:href="#Arial-BoldMT-68" x="539.111328"/>
      <use xlink:href="#Arial-BoldMT-69" x="600.195312"/>
      <use xlink:href="#Arial-BoldMT-66" x="627.978516"/>
      <use xlink:href="#Arial-BoldMT-74" x="661.279297"/>
      <use xlink:href="#Arial-BoldMT-20" x="694.580078"/>
      <use xlink:href="#Arial-BoldMT-2f" x="722.363281"/>
      <use xlink:href="#Arial-BoldMT-20" x="750.146484"/>
      <use xlink:href="#Arial-BoldMT-70" x="777.929688"/>
      <use xlink:href="#Arial-BoldMT-70" x="839.013672"/>
      <use xlink:href="#Arial-BoldMT-6d" x="900.097656"/>
     </g>
    </g>
   </g>
   <g id="matplotlib.axis_2"/>
   <g id="line2d_12">
    <path d="M 2.955871 183.3398 
L 3.160491 183.021043 
L 3.365111 182.971867 
L 4.18359 183.960637 
L 4.388209 183.785169 
L 4.797449 182.673213 
L 5.615928 179.490033 
L 5.820548 179.406902 
L 6.639026 180.377281 
L 7.252886 180.755234 
L 7.457505 180.547461 
L 7.866745 179.290202 
L 8.480604 176.747811 
L 8.685224 176.48172 
L 8.889843 176.802168 
L 9.299083 178.793473 
L 9.708322 180.773174 
L 9.912942 181.255538 
L 10.117562 181.344513 
L 10.322182 181.017214 
L 10.731421 179.861263 
L 10.936041 179.896288 
L 11.14066 180.716163 
L 11.75452 184.64099 
L 12.163759 185.611733 
L 12.368379 185.714945 
L 12.572999 185.558981 
L 12.982238 184.515619 
L 13.596097 182.073679 
L 14.005337 180.455038 
L 14.209956 180.214702 
L 14.414576 180.317443 
L 15.233055 181.505915 
L 15.846914 181.693179 
L 16.051534 181.615614 
L 16.256154 181.308183 
L 17.074633 179.484167 
L 17.279252 179.696414 
L 17.688492 181.036525 
L 18.097731 182.486528 
L 18.506971 183.212011 
L 18.91621 183.402528 
L 19.12083 183.148405 
L 19.530069 182.257346 
L 19.734689 182.308256 
L 20.553168 184.134049 
L 20.757788 183.97421 
L 21.167027 183.114857 
L 21.780886 180.606571 
L 22.394745 178.139111 
L 23.008605 176.400473 
L 23.417844 175.161777 
L 23.827083 174.580418 
L 24.236323 174.019891 
L 24.850182 172.707226 
L 25.054802 172.83538 
L 26.0779 175.053405 
L 26.48714 175.510185 
L 26.69176 176.100792 
L 28.942577 186.066757 
L 29.147196 186.484894 
L 29.351816 186.588856 
L 29.556436 186.323172 
L 29.761056 185.489467 
L 30.579534 180.303399 
L 30.784154 180.171692 
L 30.988774 180.668656 
L 31.602633 183.273197 
L 31.807253 183.663139 
L 32.011873 183.666928 
L 32.216492 183.331194 
L 32.830351 181.694185 
L 33.034971 181.467422 
L 33.239591 181.518546 
L 33.64883 181.759696 
L 33.85345 181.521522 
L 34.26269 180.054714 
L 34.671929 178.507793 
L 34.876549 178.330142 
L 35.081168 178.766327 
L 35.899647 182.504083 
L 36.513507 183.659585 
L 37.127366 185.967549 
L 37.536605 187.393038 
L 37.741225 187.564116 
L 37.945845 187.27454 
L 39.173563 184.157449 
L 39.582802 183.946507 
L 40.401281 183.618565 
L 40.810521 184.026576 
L 41.629 185.434703 
L 41.833619 185.093145 
L 42.242859 183.255342 
L 43.265958 177.279373 
L 43.470577 176.788167 
L 43.675197 176.63428 
L 43.879817 176.783307 
L 44.493676 177.891924 
L 45.516775 180.473664 
L 45.721394 180.572316 
L 45.926014 180.217999 
L 46.539873 178.222413 
L 46.744493 178.174542 
L 46.949113 178.502334 
L 47.358352 179.907592 
L 47.972211 182.434097 
L 48.176831 182.601172 
L 48.381451 182.430372 
L 48.79069 181.680505 
L 49.609169 180.009626 
L 49.813789 179.791684 
L 50.018409 179.84724 
L 50.223028 180.339216 
L 50.632268 182.551054 
L 51.246127 186.228394 
L 51.450747 186.860749 
L 51.655366 187.013844 
L 52.064606 186.461965 
L 52.473845 185.687542 
L 52.678465 184.924829 
L 53.087704 181.975455 
L 54.110803 172.852229 
L 54.929282 169.034703 
L 55.338521 165.341713 
L 56.157 157.379919 
L 56.77086 151.607334 
L 57.384719 145.943998 
L 57.589338 144.898174 
L 57.793958 144.461175 
L 57.998578 144.985008 
L 58.203198 146.686458 
L 58.817057 156.184489 
L 59.430916 164.915269 
L 61.067874 179.804465 
L 61.681733 182.604555 
L 61.886353 183.052151 
L 62.090972 183.022521 
L 62.500212 181.662371 
L 63.318691 178.661209 
L 63.52331 178.341489 
L 63.72793 178.398865 
L 64.341789 179.361451 
L 64.546409 179.336146 
L 64.751029 178.907583 
L 65.364888 176.653013 
L 65.569508 176.446224 
L 65.774127 176.629463 
L 66.592606 178.024231 
L 66.797226 178.041465 
L 67.001846 177.761865 
L 67.411085 176.826853 
L 67.615705 176.656181 
L 67.820325 176.801548 
L 68.843423 178.25808 
L 69.048043 178.083555 
L 69.661902 177.062822 
L 70.275761 176.34496 
L 70.480381 176.110383 
L 70.685001 176.092913 
L 71.29886 176.716148 
L 71.50348 176.779775 
L 71.7081 177.004718 
L 71.912719 177.578712 
L 72.935818 182.393677 
L 73.140438 182.57895 
L 73.549677 182.637396 
L 74.163536 182.987303 
L 74.368156 183.04941 
L 74.572776 183.385894 
L 75.186635 185.319908 
L 75.595874 185.646287 
L 75.800494 185.587412 
L 76.005114 185.319887 
L 76.618973 184.045651 
L 77.028212 183.916577 
L 77.437452 183.856183 
L 77.846691 183.776649 
L 78.051311 184.069351 
L 78.66517 185.34273 
L 79.07441 185.443309 
L 79.279029 185.460608 
L 79.483649 185.325068 
L 79.688269 184.828596 
L 80.097508 182.740972 
L 80.711368 179.195447 
L 80.915987 178.75391 
L 81.529846 178.343394 
L 82.143706 177.292967 
L 83.371424 177.756427 
L 83.780663 179.11512 
L 84.189903 180.435342 
L 84.394523 180.705929 
L 84.599142 180.72691 
L 84.803762 180.505906 
L 85.213002 179.194654 
L 85.622241 177.87409 
L 86.03148 176.942761 
L 86.64534 175.006477 
L 86.849959 174.930325 
L 87.259199 175.312816 
L 87.463819 175.286805 
L 87.668438 174.906497 
L 88.282297 173.331253 
L 88.486917 173.349921 
L 88.691537 173.666815 
L 89.100776 175.190743 
L 89.510016 176.819574 
L 90.328495 178.771444 
L 90.737734 181.02475 
L 91.351593 184.56 
L 91.760833 185.648984 
L 91.965453 185.635475 
L 92.170072 185.092589 
L 93.397791 179.553296 
L 93.80703 178.04018 
L 94.830129 171.957466 
L 95.443988 170.476527 
L 95.648608 170.320135 
L 96.057847 170.426259 
L 96.262467 170.274706 
L 96.671706 169.483968 
L 96.876326 169.433165 
L 97.080946 169.778576 
L 97.694805 171.723424 
L 98.308664 173.69302 
L 98.513284 173.839649 
L 98.717903 173.677713 
L 99.127143 172.690506 
L 99.945622 170.292711 
L 100.150242 170.390185 
L 100.559481 172.310434 
L 100.96872 174.33899 
L 101.37796 175.130049 
L 101.991819 175.480705 
L 102.401059 175.927894 
L 102.605678 175.886082 
L 103.219537 175.214335 
L 103.424157 175.225126 
L 103.628777 175.528168 
L 104.038016 176.969886 
L 104.651876 179.971626 
L 104.856495 180.366363 
L 105.061115 180.074196 
L 105.470354 178.01982 
L 106.084214 174.462413 
L 106.288833 173.975382 
L 106.493453 174.081527 
L 106.698073 174.700437 
L 107.107312 177.024478 
L 107.516552 179.815512 
L 107.721171 180.594432 
L 107.925791 180.760286 
L 108.335031 180.155571 
L 108.74427 179.68723 
L 108.94889 179.792712 
L 109.358129 180.141848 
L 109.562749 179.899028 
L 109.971988 178.612825 
L 110.790467 175.287297 
L 110.995087 174.924716 
L 111.199707 174.917523 
L 111.404327 175.243901 
L 112.018186 177.295022 
L 112.632045 179.226639 
L 113.041284 179.881858 
L 113.245904 180.057218 
L 113.450524 180.081796 
L 113.859763 179.644798 
L 114.678242 177.896205 
L 115.087482 176.195805 
L 115.701341 173.343755 
L 115.905961 173.41312 
L 116.724439 176.292872 
L 116.929059 176.343033 
L 117.338299 176.242433 
L 117.747538 176.432951 
L 118.156778 176.859887 
L 118.361397 177.252804 
L 119.384496 180.618281 
L 119.589116 180.630506 
L 119.998355 179.777768 
L 120.407595 178.713918 
L 120.612214 178.597753 
L 121.021454 179.323322 
L 121.226073 179.664836 
L 121.430693 179.76351 
L 121.635313 179.664965 
L 122.044552 179.065837 
L 122.453792 178.281244 
L 122.658412 178.2207 
L 123.067651 178.566646 
L 123.272271 178.461229 
L 124.09075 176.745777 
L 124.295369 176.871212 
L 125.523088 178.718178 
L 125.727707 178.513959 
L 126.136947 177.924529 
L 126.341567 178.066727 
L 126.750806 178.719398 
L 126.955426 178.67125 
L 127.364665 178.209203 
L 127.773905 178.185889 
L 128.183144 178.25155 
L 128.387764 178.120378 
L 128.797003 177.279265 
L 129.410863 175.86553 
L 130.024722 174.919321 
L 130.229341 175.059207 
L 131.45706 177.733177 
L 132.480158 181.605338 
L 132.684778 181.617734 
L 132.889398 180.991524 
L 134.321736 173.110291 
L 134.730975 171.36414 
L 134.935595 170.835062 
L 135.140215 170.670171 
L 135.344835 170.944376 
L 135.754074 172.567298 
L 136.367933 174.941094 
L 136.572553 175.207399 
L 136.777173 175.225939 
L 137.186412 175.086631 
L 137.391032 175.19997 
L 137.800271 175.688243 
L 138.004891 175.685674 
L 138.209511 175.238142 
L 139.02799 171.809273 
L 139.232609 171.515051 
L 139.437229 171.442475 
L 139.641849 171.585208 
L 140.255708 172.453445 
L 140.664947 172.596564 
L 141.074187 172.483653 
L 141.892666 171.682019 
L 142.097286 171.803771 
L 142.506525 172.830113 
L 142.915764 173.8316 
L 143.120384 173.996769 
L 143.325004 173.79681 
L 143.734243 172.217862 
L 144.961962 166.252361 
L 145.371201 166.009049 
L 145.98506 165.85392 
L 146.3943 165.660919 
L 146.59892 165.821015 
L 146.803539 166.303143 
L 147.826638 170.125336 
L 148.235877 170.515363 
L 148.645117 170.860196 
L 148.849737 170.886272 
L 149.463596 170.326751 
L 149.668215 170.602519 
L 150.282075 171.850807 
L 150.486694 172.032226 
L 150.691314 172.039633 
L 151.100554 171.671272 
L 151.509793 170.79796 
L 152.328272 168.574112 
L 152.942131 167.59776 
L 153.351371 167.294888 
L 153.96523 167.349524 
L 154.374469 167.108802 
L 154.579089 167.373202 
L 155.397568 169.948499 
L 155.602188 169.787803 
L 156.011427 168.912437 
L 156.829906 166.362232 
L 157.034526 166.336412 
L 157.443765 166.910149 
L 157.853005 168.008083 
L 158.262244 169.843766 
L 158.671483 172.035972 
L 158.876103 172.506047 
L 159.080723 172.395149 
L 159.694582 171.229927 
L 159.899202 171.448041 
L 160.513061 173.220761 
L 160.717681 173.338831 
L 161.12692 172.642143 
L 161.53616 172.135181 
L 161.740779 172.230322 
L 162.150019 172.884749 
L 162.763878 174.971023 
L 162.968498 175.130991 
L 163.173117 174.758754 
L 163.582357 172.71594 
L 164.196216 168.85185 
L 164.605456 167.607608 
L 164.810075 167.25616 
L 165.628554 166.741897 
L 165.833174 166.818947 
L 166.447033 168.155119 
L 166.651653 168.056295 
L 167.674751 165.877085 
L 167.879371 165.670382 
L 168.083991 165.624353 
L 168.288611 165.830756 
L 168.69785 167.06136 
L 169.10709 168.282844 
L 169.311709 168.474283 
L 169.516329 168.424999 
L 169.720949 168.032061 
L 170.130188 165.884085 
L 170.744047 162.145195 
L 171.153287 161.323479 
L 171.562526 161.107185 
L 172.381005 160.955674 
L 172.585625 161.187939 
L 173.813343 163.706545 
L 174.017963 163.737566 
L 174.427202 163.173934 
L 174.631822 163.142099 
L 175.041062 163.622065 
L 175.450301 164.110723 
L 175.654921 163.898219 
L 176.26878 162.660314 
L 176.678019 162.775751 
L 176.882639 162.612037 
L 177.087259 162.001862 
L 177.496498 159.512009 
L 178.314977 152.603468 
L 178.519597 151.938829 
L 178.724217 151.967474 
L 178.928836 152.720424 
L 179.951935 159.493083 
L 180.156555 159.37876 
L 180.565794 157.973309 
L 181.384273 154.898714 
L 181.588893 154.462979 
L 181.793513 154.373276 
L 182.407372 155.218799 
L 182.611991 155.041169 
L 183.021231 154.064282 
L 183.225851 153.976569 
L 183.63509 154.307594 
L 183.83971 154.041909 
L 184.248949 153.014047 
L 184.453569 152.835176 
L 184.658189 152.976132 
L 185.067428 153.920799 
L 185.476668 154.989659 
L 185.681287 155.096147 
L 185.885907 154.79426 
L 186.295147 153.190435 
L 187.113625 149.454905 
L 187.727485 147.199929 
L 189.159823 140.4645 
L 190.592161 130.274876 
L 191.615259 120.817393 
L 192.229119 115.259881 
L 193.252217 108.958646 
L 196.116893 80.451129 
L 196.526133 78.363441 
L 197.549232 75.226804 
L 197.753851 75.397625 
L 197.958471 76.124864 
L 198.36771 79.09479 
L 198.98157 84.156729 
L 199.800049 89.783049 
L 200.413908 95.748678 
L 201.437006 108.597907 
L 202.050866 114.969941 
L 202.664725 121.481304 
L 203.278584 126.600576 
L 203.892443 132.511741 
L 204.301683 134.248644 
L 204.710922 135.721875 
L 205.120161 137.191424 
L 205.529401 137.90374 
L 205.734021 138.645601 
L 206.14326 141.526445 
L 206.961739 147.989403 
L 207.370978 149.56666 
L 207.575598 149.735126 
L 207.780218 149.595476 
L 208.803317 148.012353 
L 209.007936 147.877199 
L 209.212556 147.564158 
L 209.826415 146.119037 
L 210.031035 146.154918 
L 210.235655 146.609664 
L 211.258753 150.492701 
L 211.463373 150.653139 
L 212.895711 150.022541 
L 213.100331 150.415329 
L 213.91881 153.888001 
L 214.123429 153.443231 
L 214.941908 149.946539 
L 215.146528 149.664563 
L 215.351148 149.7174 
L 215.760387 150.61227 
L 216.374246 152.106396 
L 216.988106 153.455541 
L 217.397345 154.344074 
L 217.601965 154.166102 
L 217.806584 153.276135 
L 218.829683 145.757912 
L 219.238923 144.582585 
L 219.648162 143.741109 
L 220.057401 142.154047 
L 220.87588 138.238639 
L 221.0805 138.17696 
L 221.48974 138.719376 
L 221.694359 138.653394 
L 221.898979 138.272615 
L 222.308218 136.657272 
L 222.922078 133.774758 
L 223.126697 133.543927 
L 223.331317 133.830228 
L 223.740557 135.461971 
L 224.559035 139.567125 
L 225.377514 142.494277 
L 225.991374 145.716229 
L 226.195993 146.176798 
L 226.400613 146.078189 
L 226.809852 144.709904 
L 227.423712 142.673876 
L 227.832951 142.065521 
L 228.242191 141.968988 
L 228.65143 142.100246 
L 228.85605 142.03026 
L 229.060669 141.774831 
L 229.265289 141.283283 
L 229.674529 139.307585 
L 230.083768 137.134712 
L 230.288388 136.737256 
L 230.697627 136.708118 
L 230.902247 136.34299 
L 231.516106 133.5037 
L 232.743825 128.91903 
L 232.948444 128.58199 
L 233.562303 128.685287 
L 234.176163 127.737687 
L 234.994642 126.675528 
L 235.199261 126.585654 
L 235.608501 126.888076 
L 236.22236 127.619189 
L 237.040839 129.429246 
L 237.245459 129.003252 
L 237.654698 126.969815 
L 238.063937 125.076884 
L 238.268557 124.899747 
L 238.677797 125.399494 
L 238.882416 125.36554 
L 239.496276 124.303423 
L 239.700895 124.571227 
L 240.110135 125.482197 
L 240.314754 125.456977 
L 240.928614 124.274586 
L 241.133233 124.472083 
L 241.542473 126.18717 
L 241.951712 127.998726 
L 242.156332 128.286183 
L 242.360952 128.122983 
L 242.770191 127.45768 
L 242.974811 127.339418 
L 243.179431 127.403088 
L 243.58867 128.103844 
L 243.99791 128.698904 
L 244.407149 128.759084 
L 244.816388 129.434534 
L 245.225628 130.113838 
L 245.430248 130.193544 
L 245.634867 129.978341 
L 246.044107 128.554543 
L 246.453346 127.175768 
L 246.862586 125.851265 
L 247.885684 120.359885 
L 248.294924 119.473043 
L 248.499544 118.659805 
L 248.908783 115.385808 
L 250.136501 102.91115 
L 250.341121 102.355717 
L 250.545741 102.256166 
L 250.75036 102.544736 
L 251.1596 104.109169 
L 252.182699 109.074426 
L 252.591938 110.386533 
L 252.796558 110.56487 
L 253.001177 110.356133 
L 253.615037 108.891551 
L 253.819656 108.846143 
L 254.024276 109.360191 
L 254.842755 113.124238 
L 255.456614 113.84424 
L 256.275093 115.457871 
L 256.479713 115.358512 
L 256.684333 114.797107 
L 257.093572 112.396036 
L 258.52591 103.050907 
L 258.73053 102.584065 
L 259.139769 102.432061 
L 259.344389 102.428186 
L 259.549009 102.283312 
L 259.753628 101.781638 
L 260.776727 97.067422 
L 260.981347 97.053999 
L 261.390586 97.565714 
L 261.595206 97.634865 
L 262.209065 97.327498 
L 262.413685 97.606605 
L 263.436784 100.25178 
L 264.255262 103.014533 
L 266.30146 106.648627 
L 266.710699 107.213223 
L 266.915319 107.516886 
L 267.119939 107.574712 
L 267.324558 107.214186 
L 268.143037 104.134154 
L 268.552277 104.064703 
L 268.756896 103.686986 
L 269.370756 100.958531 
L 269.575375 100.766257 
L 269.984615 101.719167 
L 270.189235 102.180957 
L 270.393854 102.331654 
L 270.598474 102.066141 
L 270.803094 101.302293 
L 271.212333 97.885627 
L 271.826192 91.275762 
L 272.440052 87.714843 
L 273.053911 83.341286 
L 273.46315 79.500574 
L 274.281629 68.364121 
L 275.304728 52.496431 
L 276.123207 39.982016 
L 278.169404 11.884843 
L 278.578643 8.398448 
L 278.987883 6.182585 
L 279.192503 5.546078 
L 279.397122 5.364017 
L 279.601742 5.70247 
L 280.010981 7.882537 
L 280.420221 10.611292 
L 281.03408 13.071045 
L 281.44332 17.170568 
L 282.057179 24.216447 
L 282.466418 25.642343 
L 282.875658 26.82253 
L 283.284897 29.223751 
L 285.331094 44.577541 
L 285.535714 44.496208 
L 285.740334 43.806692 
L 286.149573 41.296886 
L 286.968052 34.503546 
L 287.581911 30.32239 
L 288.60501 25.535235 
L 290.241968 10.351452 
L 290.855827 4.990796 
L 291.265066 3.314672 
L 291.469686 3.00024 
L 291.674306 3.075407 
L 292.083545 3.870618 
L 292.492785 5.523235 
L 293.515883 10.648115 
L 293.925123 12.246096 
L 294.334362 15.390933 
L 294.948221 22.531975 
L 295.562081 29.231929 
L 295.97132 31.065 
L 296.38056 31.957708 
L 296.994419 32.581563 
L 297.403658 33.869929 
L 297.812898 35.236522 
L 298.426757 36.689608 
L 299.040616 39.521061 
L 300.677574 48.730951 
L 301.291433 52.774105 
L 301.905292 55.341737 
L 302.314532 56.591074 
L 302.723771 58.842711 
L 303.33763 63.798311 
L 304.565349 74.968505 
L 304.974588 76.190974 
L 305.383828 76.884194 
L 305.588447 77.518989 
L 305.997687 79.857332 
L 306.611546 83.899886 
L 306.816166 84.49227 
L 307.430025 85.032224 
L 307.634645 85.787529 
L 308.657743 92.265002 
L 308.862363 92.632486 
L 309.066983 92.634712 
L 309.271602 92.294033 
L 309.885462 90.497506 
L 310.090081 90.318399 
L 310.294701 90.793334 
L 311.3178 95.908902 
L 311.522419 95.812519 
L 311.727039 95.588368 
L 311.931659 95.661008 
L 312.136279 96.224212 
L 312.750138 98.866711 
L 312.954757 99.205314 
L 313.568617 99.407457 
L 313.977856 100.37304 
L 315.205574 104.12833 
L 315.614814 106.639058 
L 316.228673 110.441512 
L 316.637913 111.544348 
L 317.047152 111.784983 
L 317.456391 113.034406 
L 317.661011 113.668816 
L 317.865631 113.855544 
L 318.070251 113.494183 
L 318.47949 111.585774 
L 318.88873 109.540989 
L 319.093349 108.958218 
L 319.297969 108.809555 
L 319.502589 109.080163 
L 319.911828 110.568959 
L 320.525687 113.418096 
L 320.730307 113.525633 
L 321.139547 112.361974 
L 321.753406 110.713126 
L 322.162645 109.742404 
L 322.367265 109.557517 
L 322.571885 109.739964 
L 323.390364 111.605192 
L 323.594983 111.636898 
L 324.004223 111.361216 
L 325.027321 109.936262 
L 325.641181 108.549116 
L 326.05042 108.348536 
L 326.459659 107.95868 
L 326.664279 108.02903 
L 327.482758 109.326537 
L 327.687378 109.350258 
L 328.096617 109.132251 
L 328.301237 109.429792 
L 328.710476 111.527884 
L 329.324336 114.969919 
L 329.938195 116.567579 
L 330.552054 117.645345 
L 330.756674 117.742306 
L 330.961293 117.590496 
L 331.575153 116.335892 
L 331.779772 116.477383 
L 332.189012 118.032653 
L 332.598251 120.587825 
L 333.82597 130.57141 
L 334.030589 131.042749 
L 334.235209 130.970429 
L 334.849068 129.453267 
L 335.462927 129.262107 
L 336.486026 127.343507 
L 336.895265 125.190265 
L 337.509125 121.213693 
L 337.713744 120.623064 
L 337.918364 120.618547 
L 338.327604 121.552874 
L 339.146082 123.624077 
L 339.350702 123.801214 
L 339.555322 123.669378 
L 340.373801 122.301628 
L 340.78304 122.011067 
L 341.396899 121.444652 
L 341.806139 121.317076 
L 342.010759 121.639751 
L 342.419998 123.691707 
L 343.033857 126.810062 
L 343.238477 127.251855 
L 343.443097 127.234771 
L 344.056956 126.05679 
L 344.261576 126.167538 
L 344.670815 127.399042 
L 345.080055 128.861483 
L 345.284674 129.135688 
L 346.103153 129.177756 
L 346.512393 128.561566 
L 346.921632 127.775196 
L 347.330872 126.248357 
L 347.944731 123.003198 
L 348.14935 122.487008 
L 348.35397 122.353352 
L 348.76321 122.645412 
L 349.377069 123.313134 
L 349.581689 123.082046 
L 350.195548 121.274109 
L 350.400167 121.180381 
L 350.604787 121.591239 
L 351.014027 123.582715 
L 351.832506 128.206285 
L 353.060224 131.666068 
L 353.469463 132.456463 
L 353.878703 134.147786 
L 354.287942 135.888672 
L 356.12952 140.670989 
L 356.33414 140.893063 
L 356.538759 140.772317 
L 356.947999 139.621311 
L 357.561858 137.492219 
L 357.766478 137.376461 
L 357.971097 137.784107 
L 358.380337 139.059435 
L 358.789576 139.538887 
L 359.608055 139.872737 
L 360.017295 141.209037 
L 361.654252 148.052966 
L 362.268112 152.105347 
L 362.472731 152.839543 
L 362.677351 153.144256 
L 362.881971 153.16817 
L 363.086591 153.030318 
L 363.49583 152.227977 
L 363.905069 151.271706 
L 364.314309 150.899577 
L 364.518929 150.892212 
L 364.723548 151.100521 
L 365.132788 151.885371 
L 365.337408 151.860815 
L 365.542027 151.268195 
L 366.360506 147.500531 
L 366.565126 147.605756 
L 366.769746 148.328734 
L 367.383605 152.270602 
L 367.997464 156.08025 
L 368.406703 157.24607 
L 368.815943 157.864209 
L 369.020563 157.984656 
L 369.225182 157.832824 
L 369.634422 156.884175 
L 370.043661 155.837387 
L 370.248281 155.552735 
L 370.452901 155.504629 
L 370.65752 155.763976 
L 370.86214 156.459037 
L 371.475999 160.635269 
L 372.089858 164.089635 
L 372.499098 165.192985 
L 372.703718 165.191979 
L 373.112957 164.569537 
L 373.726816 163.687812 
L 373.931436 163.372159 
L 374.340675 161.971247 
L 374.954535 159.283982 
L 375.159154 158.917762 
L 375.363774 158.86683 
L 375.773014 159.223031 
L 375.977633 159.660244 
L 377.000732 163.127884 
L 377.409971 163.436686 
L 377.614591 163.358757 
L 378.023831 162.915807 
L 378.22845 162.967082 
L 378.63769 163.714766 
L 379.046929 164.478742 
L 379.251549 164.471463 
L 379.865408 163.912413 
L 380.479267 163.825557 
L 381.297746 164.959864 
L 381.706986 166.459428 
L 381.911605 167.205549 
L 382.116225 167.367786 
L 382.730084 166.083338 
L 382.934704 166.012774 
L 383.343943 166.112668 
L 383.548563 165.991836 
L 383.957803 165.470808 
L 384.162422 165.504763 
L 384.367042 165.917483 
L 385.185521 168.576745 
L 385.59476 168.892612 
L 386.20862 168.82329 
L 386.413239 168.877776 
L 386.617859 168.767927 
L 387.027099 167.717928 
L 387.436338 166.446925 
L 387.640958 166.184966 
L 387.845577 166.328363 
L 388.254817 167.415549 
L 389.073296 170.291447 
L 389.277916 170.452571 
L 389.482535 170.237904 
L 389.891775 169.225692 
L 390.505634 167.720818 
L 390.710254 167.680527 
L 391.324113 168.208234 
L 391.733352 167.746316 
L 392.142592 167.38639 
L 393.16569 167.572026 
L 393.984169 168.512412 
L 394.393409 168.510828 
L 394.598028 168.678566 
L 394.802648 169.081053 
L 395.211888 170.969381 
L 395.825747 174.454406 
L 396.030367 174.715594 
L 396.234986 174.378126 
L 397.258085 171.032067 
L 397.462705 170.96966 
L 397.667324 171.09032 
L 398.076564 171.71152 
L 398.485803 172.749231 
L 399.099662 174.648841 
L 399.304282 174.908638 
L 399.713522 175.121892 
L 400.532001 176.141426 
L 400.73662 176.014086 
L 401.555099 174.623022 
L 401.759719 174.791531 
L 402.168958 175.806741 
L 402.578198 177.185323 
L 402.782818 177.371666 
L 402.987437 177.114374 
L 403.396677 176.313468 
L 403.805916 176.104624 
L 404.010536 176.02023 
L 404.215156 175.716438 
L 405.238254 172.876485 
L 405.852113 173.057775 
L 406.056733 172.964925 
L 406.261353 172.994255 
L 406.465973 173.185116 
L 406.875212 173.99769 
L 407.284451 174.828633 
L 407.489071 174.889177 
L 407.693691 174.637537 
L 407.898311 174.029825 
L 408.30755 171.422757 
L 408.921409 167.173607 
L 409.126029 166.468912 
L 409.330649 166.175482 
L 410.353747 166.29702 
L 410.558367 166.58482 
L 410.967607 168.191835 
L 411.376846 170.188449 
L 411.581466 170.487082 
L 412.195325 169.704202 
L 412.399945 169.658772 
L 412.604564 169.414625 
L 413.013804 168.018102 
L 413.627663 165.884064 
L 414.036902 165.056204 
L 414.446142 164.781035 
L 414.650762 164.82229 
L 414.855381 165.059693 
L 415.060001 165.579309 
L 415.87848 168.586165 
L 416.0831 168.432835 
L 416.696959 167.122183 
L 417.106198 166.722265 
L 417.720058 165.49986 
L 417.924677 165.542186 
L 418.947776 166.72584 
L 419.152396 166.739563 
L 419.766255 166.229347 
L 420.175494 165.421932 
L 420.993973 163.21885 
L 421.607832 162.020873 
L 422.017072 160.119357 
L 422.426311 158.057532 
L 422.630931 157.975707 
L 422.835551 158.692562 
L 423.24479 161.371906 
L 424.063269 167.411567 
L 424.267889 167.916988 
L 424.472509 167.917866 
L 424.677128 167.453207 
L 425.086368 165.258668 
L 425.904847 159.906403 
L 426.109466 159.335942 
L 426.314086 159.483899 
L 426.723326 161.506353 
L 427.132565 163.336406 
L 427.746424 164.203359 
L 428.155664 164.706061 
L 428.564903 165.985328 
L 428.974143 167.0805 
L 429.178762 167.092489 
L 429.588002 166.514299 
L 430.406481 166.146987 
L 430.6111 165.953279 
L 430.81572 165.919924 
L 431.429579 166.145873 
L 431.838819 165.724803 
L 432.043438 165.827009 
L 432.452678 166.93843 
L 433.271157 169.488379 
L 433.475777 169.620514 
L 433.680396 169.357399 
L 434.089636 168.510164 
L 434.294255 168.617701 
L 434.703495 170.073141 
L 435.317354 172.594765 
L 435.521974 172.87884 
L 435.726594 172.668819 
L 436.135833 171.037247 
L 436.749692 168.379227 
L 436.954312 167.996779 
L 437.772791 167.528031 
L 438.18203 166.365636 
L 439.000509 163.098447 
L 439.205129 162.778063 
L 439.409749 162.811867 
L 439.818988 163.826542 
L 440.228228 164.838904 
L 440.432847 164.725437 
L 441.251326 162.461532 
L 441.455946 162.420256 
L 441.865185 162.906323 
L 442.274425 163.551866 
L 442.479045 163.635767 
L 442.888284 163.250493 
L 443.297523 162.978728 
L 443.911383 162.842054 
L 444.116002 162.487394 
L 444.525242 160.730688 
L 445.139101 157.052984 
L 445.343721 156.569164 
L 445.54834 156.764199 
L 445.95758 158.400095 
L 446.571439 161.702245 
L 446.776059 162.258041 
L 446.980678 162.413641 
L 447.594538 162.324002 
L 448.003777 162.903497 
L 448.208397 163.194615 
L 448.413017 163.196585 
L 449.231495 162.057696 
L 449.640735 162.651258 
L 449.845355 162.921138 
L 450.049974 162.853486 
L 450.459214 162.162215 
L 450.663834 162.192958 
L 451.073073 162.750146 
L 451.277693 162.726253 
L 451.686932 161.61571 
L 452.096172 160.756721 
L 452.300791 160.533405 
L 452.505411 160.035306 
L 452.914651 157.584952 
L 453.733129 151.278857 
L 453.937749 150.937321 
L 454.142369 151.316751 
L 454.551608 153.517756 
L 454.960848 156.045182 
L 455.165468 156.671563 
L 455.370087 156.729774 
L 455.779327 155.889047 
L 456.188566 154.539966 
L 458.030144 147.296997 
L 458.439383 147.856068 
L 459.462482 149.33219 
L 460.280961 151.697957 
L 460.48558 151.710803 
L 460.6902 151.279371 
L 461.09944 149.641398 
L 461.713299 146.517049 
L 461.917919 146.526063 
L 462.941017 148.840899 
L 463.145637 148.466821 
L 463.964116 145.722544 
L 464.373355 145.466408 
L 464.577975 145.481223 
L 465.191834 146.100069 
L 465.396454 146.067227 
L 466.214933 145.112862 
L 466.828792 143.70921 
L 468.67037 139.052477 
L 468.874989 139.078553 
L 469.079609 139.582475 
L 469.898088 143.190772 
L 470.307327 143.813021 
L 470.716567 144.006515 
L 470.921187 143.861384 
L 471.330426 142.969875 
L 471.944285 141.096897 
L 472.148905 141.156136 
L 472.558144 142.764071 
L 472.967384 144.028266 
L 473.172004 143.969585 
L 473.581243 142.611041 
L 473.990482 141.604202 
L 474.195102 141.628351 
L 474.399722 141.783095 
L 474.604342 141.786627 
L 474.808961 141.478018 
L 475.218201 140.478202 
L 475.422821 140.356556 
L 475.62744 140.664031 
L 476.241299 142.245827 
L 476.650539 142.660602 
L 476.855159 142.680898 
L 477.059778 142.546086 
L 477.469018 141.62651 
L 478.082877 140.105987 
L 478.696736 138.938988 
L 479.105976 137.542744 
L 481.766032 125.729833 
L 481.970652 125.846961 
L 482.379891 127.290755 
L 482.789131 128.744954 
L 482.99375 128.981479 
L 483.19837 128.806333 
L 483.812229 127.707094 
L 484.016849 127.450872 
L 484.221469 126.995398 
L 484.630708 125.199257 
L 486.676905 112.333757 
L 487.086145 110.870246 
L 487.495384 110.575681 
L 487.904624 110.539222 
L 488.313863 111.061063 
L 488.927722 111.875779 
L 489.132342 111.900249 
L 489.541582 111.428204 
L 489.746201 111.419705 
L 489.950821 111.72384 
L 490.56468 113.265536 
L 490.7693 113.229355 
L 491.383159 112.341251 
L 491.587779 111.801982 
L 491.997018 109.691708 
L 492.815497 105.027932 
L 493.429356 102.388216 
L 494.043216 99.748993 
L 494.452455 98.511174 
L 495.270934 94.756247 
L 496.294033 90.572801 
L 496.498652 90.543942 
L 497.112512 90.961073 
L 497.317131 90.926776 
L 497.521751 90.76075 
L 497.93099 89.863032 
L 498.34023 88.392606 
L 498.749469 86.690171 
L 498.954089 86.397212 
L 499.158709 86.753712 
L 499.977188 90.108913 
L 500.181807 90.416794 
L 500.386427 90.070441 
L 500.591047 88.823352 
L 501.204906 81.465889 
L 501.818765 75.68611 
L 502.432624 72.136923 
L 502.637244 71.403968 
L 502.841864 71.103773 
L 503.046484 71.245971 
L 503.455723 71.72857 
L 503.660343 71.556849 
L 504.069582 70.566902 
L 504.478822 68.986969 
L 505.70654 61.661405 
L 506.729639 59.051105 
L 507.343498 57.827351 
L 507.752737 57.206087 
L 507.957357 57.105893 
L 508.161977 57.221608 
L 508.571216 57.728314 
L 508.775836 57.819837 
L 508.980456 57.639445 
L 509.389695 56.217018 
L 510.003554 54.009205 
L 510.412794 52.915039 
L 510.617414 52.723173 
L 510.822033 52.904528 
L 511.435892 53.992634 
L 511.640512 54.183152 
L 511.845132 54.203555 
L 512.049752 53.824039 
L 512.458991 51.757932 
L 512.868231 49.90358 
L 513.48209 48.964885 
L 513.686709 48.069823 
L 514.095949 44.49259 
L 514.505188 40.232907 
L 514.914428 38.177204 
L 515.323667 37.218707 
L 515.732907 34.915003 
L 516.346766 31.510113 
L 517.369865 28.127444 
L 518.392963 25.975915 
L 519.006822 23.859604 
L 519.416062 23.347375 
L 519.620682 23.4128 
L 519.825301 23.84496 
L 520.8484 27.408384 
L 521.257639 27.465417 
L 521.871498 27.431741 
L 522.076118 27.262354 
L 522.280738 26.756697 
L 522.689977 24.435011 
L 523.099217 21.802124 
L 523.508456 20.537202 
L 523.917696 19.248536 
L 524.326935 17.987424 
L 525.350034 16.402139 
L 525.554654 16.425239 
L 526.373132 17.710393 
L 526.577752 17.217946 
L 527.396231 13.810444 
L 527.600851 13.813612 
L 528.01009 14.33038 
L 528.21471 14.298802 
L 528.41933 13.991306 
L 529.442428 11.446624 
L 529.647048 11.264049 
L 529.851668 11.353324 
L 530.670147 12.552736 
L 531.079386 12.795213 
L 531.284006 13.056315 
L 531.488626 13.121784 
L 531.693245 12.712125 
L 532.102485 10.560403 
L 532.511724 8.446147 
L 532.716344 8.014972 
L 532.920964 8.063656 
L 533.125583 8.277295 
L 533.330203 8.279629 
L 533.739443 7.486601 
L 534.353302 6.008296 
L 535.3764 2.774762 
L 535.58102 3.091014 
L 536.194879 4.66401 
L 536.399499 4.861657 
L 536.604119 4.568998 
L 536.808739 3.673079 
L 537.217978 0.234918 
L 537.321433 -1 
M 540.629812 -1 
L 540.901133 6.277705 
L 541.719612 36.447238 
L 542.538091 74.378883 
L 543.765809 144.923928 
L 543.970429 147.974802 
L 544.175049 148.488572 
L 544.584288 146.271233 
L 544.993528 144.58631 
L 545.198147 144.322424 
L 545.402767 144.322039 
L 545.607387 144.53799 
L 546.221246 145.979943 
L 547.244345 148.311136 
L 548.676683 153.569993 
L 549.085922 157.286255 
L 550.51826 173.497343 
L 551.132119 178.238662 
L 552.359838 184.906481 
L 552.769077 188.601034 
L 553.792176 198.935854 
L 554.201415 200.39549 
L 554.406035 200.578429 
L 554.610655 200.477122 
L 554.815275 200.101075 
L 555.838373 197.118068 
L 556.042993 197.18086 
L 556.452232 198.453233 
L 556.861472 199.680754 
L 557.270711 200.220879 
L 557.679951 200.370956 
L 558.907669 199.93066 
L 559.316908 200.075727 
L 559.521528 199.906169 
L 559.930768 198.962465 
L 560.953866 196.113627 
L 561.363106 195.60431 
L 561.772345 195.479453 
L 562.181585 195.573374 
L 562.386204 195.42835 
L 563.000064 194.609417 
L 563.204683 194.747333 
L 564.227782 196.153533 
L 564.637021 196.538379 
L 565.046261 196.442232 
L 565.4555 195.875068 
L 565.86474 195.216166 
L 566.273979 194.708027 
L 566.887838 192.5851 
L 567.501698 190.523338 
L 567.706317 190.156497 
L 567.910937 190.222287 
L 568.934036 192.138896 
L 569.138655 191.978693 
L 569.343275 191.39012 
L 570.161754 187.676363 
L 570.570993 187.203783 
L 570.980233 186.56263 
L 571.184853 186.208291 
L 571.389472 186.130192 
L 571.594092 186.393585 
L 572.412571 187.963028 
L 573.02643 188.595768 
L 573.640289 189.66116 
L 573.844909 189.719542 
L 574.049529 189.493293 
L 574.458768 188.52863 
L 575.072627 186.562138 
L 575.277247 186.492666 
L 575.481867 187.007186 
L 576.300346 190.046841 
L 576.709585 190.488271 
L 577.118825 191.576527 
L 577.528064 192.492528 
L 577.732684 192.61884 
L 577.937304 192.552194 
L 578.141923 192.228214 
L 578.960402 190.287434 
L 579.369642 189.795907 
L 579.574261 189.683061 
L 579.778881 189.846475 
L 580.188121 191.109706 
L 580.59736 192.532306 
L 580.80198 192.873777 
L 581.0066 192.686086 
L 581.825078 190.035858 
L 582.029698 190.086961 
L 582.234318 190.003145 
L 582.438938 189.511704 
L 583.666656 184.260853 
L 584.485135 181.563227 
L 584.689755 181.409468 
L 584.894374 181.630236 
L 585.303614 182.490146 
L 585.508234 182.652018 
L 586.531332 182.544332 
L 587.145191 182.903658 
L 587.349811 182.881136 
L 587.554431 182.56679 
L 588.16829 181.162902 
L 588.577529 181.083111 
L 588.986769 181.032757 
L 589.600628 180.647911 
L 589.805248 180.817448 
L 590.419107 181.841649 
L 591.032966 181.810927 
L 591.237586 182.06625 
L 591.646825 183.344596 
L 592.260685 185.660909 
L 592.465304 185.578121 
L 592.874544 184.140086 
L 594.306882 178.352022 
L 594.716121 177.401425 
L 594.920741 177.218678 
L 595.5346 177.408275 
L 595.73922 177.011248 
L 596.557699 174.158364 
L 597.376178 173.062228 
L 597.580797 172.673786 
L 597.785417 172.601659 
L 597.990037 172.937329 
L 598.399276 174.524541 
L 599.422375 179.619364 
L 600.240854 182.204444 
L 600.650093 182.856067 
L 600.854713 182.903102 
L 601.059333 182.61284 
L 602.491671 178.677951 
L 603.31015 175.321144 
L 603.924009 173.535793 
L 604.333248 172.216021 
L 604.742488 171.605311 
L 604.947108 171.663372 
L 605.151727 172.025439 
L 605.560967 173.619652 
L 606.174826 176.772539 
L 606.584065 177.726861 
L 606.788685 177.858633 
L 607.197925 177.90873 
L 607.607164 178.764978 
L 608.221023 180.156855 
L 608.425643 180.182396 
L 608.630263 179.777426 
L 610.062601 174.906176 
L 610.67646 173.640654 
L 611.494939 170.627075 
L 611.699559 170.609905 
L 611.904178 171.030568 
L 612.313418 173.026326 
L 612.722657 175.106242 
L 613.131897 175.695736 
L 614.154995 177.076245 
L 614.359615 176.994613 
L 614.564235 176.528242 
L 615.178094 173.602225 
L 615.996573 169.943682 
L 616.815052 165.058644 
L 617.224291 164.066428 
L 618.04277 162.590735 
L 618.24739 162.566372 
L 618.45201 162.794226 
L 619.065869 164.221643 
L 619.270488 164.149752 
L 619.475108 163.543109 
L 620.088967 160.500243 
L 620.293587 160.099404 
L 620.498207 160.268277 
L 621.112066 161.692375 
L 621.316686 161.580706 
L 621.930545 160.343829 
L 622.135165 160.232931 
L 622.749024 160.655992 
L 622.953644 160.460893 
L 623.362883 158.933647 
L 623.772122 157.27403 
L 624.181362 156.550132 
L 624.385982 156.602626 
L 624.999841 157.320852 
L 625.40908 158.003731 
L 626.636799 160.556634 
L 627.659897 162.253502 
L 627.864517 162.228775 
L 628.069137 161.965403 
L 628.478376 160.936727 
L 629.092235 158.92046 
L 629.296855 158.827524 
L 629.501475 159.234143 
L 630.319954 161.773044 
L 630.524573 161.90899 
L 630.729193 161.832796 
L 630.933813 161.505625 
L 631.138433 160.790269 
L 632.366151 154.284322 
L 632.570771 153.998706 
L 632.77539 154.296911 
L 633.38925 156.832536 
L 633.593869 157.071117 
L 633.798489 156.956258 
L 634.412348 156.268327 
L 634.616968 156.178217 
L 634.821588 156.323669 
L 635.230827 157.703985 
L 635.435447 158.370722 
L 635.640067 158.397933 
L 635.844686 157.630745 
L 636.663165 152.304514 
L 636.867785 151.762184 
L 637.072405 151.858909 
L 637.481644 152.602911 
L 637.686264 152.504901 
L 638.709362 150.366132 
L 639.118602 149.913933 
L 639.527841 149.419795 
L 639.732461 149.448932 
L 640.55094 150.088951 
L 640.75556 150.08514 
L 641.164799 149.742619 
L 641.369419 149.376849 
L 641.778658 147.933226 
L 642.801757 143.097108 
L 643.210996 142.181771 
L 643.620236 141.041213 
L 643.824856 140.87812 
L 644.438715 141.385553 
L 645.052574 140.613998 
L 645.257194 140.835109 
L 645.871053 142.182371 
L 646.280292 142.250943 
L 646.484912 142.501042 
L 646.689532 143.113636 
L 647.71263 148.010234 
L 648.12187 148.741604 
L 648.32649 148.706943 
L 648.735729 148.049862 
L 649.963447 144.709155 
L 650.781926 143.385871 
L 651.600405 144.071726 
L 651.805025 144.057596 
L 652.009645 144.179713 
L 652.214264 144.673594 
L 653.032743 148.174247 
L 653.237363 148.54293 
L 653.441983 148.667444 
L 653.646603 148.514434 
L 653.851222 147.942624 
L 654.260462 144.961929 
L 654.874321 138.856286 
L 655.48818 135.431485 
L 655.89742 134.33642 
L 656.102039 134.235178 
L 656.715898 134.236612 
L 656.920518 134.212634 
L 657.534377 134.462347 
L 657.738997 134.179579 
L 658.148237 132.616002 
L 658.762096 129.492638 
L 658.966715 129.236716 
L 659.785194 129.767657 
L 660.194434 130.704017 
L 660.603673 131.556819 
L 661.012913 131.855772 
L 661.626772 132.133831 
L 662.036011 132.983293 
L 662.445251 133.923807 
L 662.649871 134.210193 
L 662.85449 134.155558 
L 663.05911 133.617702 
L 663.672969 130.364087 
L 664.696068 124.72261 
L 664.900688 124.442988 
L 665.105307 124.515671 
L 665.514547 124.888336 
L 665.719166 124.635882 
L 666.333026 123.026983 
L 666.946885 122.031106 
L 667.151505 122.044465 
L 667.560744 123.176567 
L 667.969983 124.187687 
L 668.174603 124.389723 
L 668.379223 124.38831 
L 668.583843 124.132516 
L 668.993082 122.704886 
L 670.2208 117.015688 
L 671.243899 113.696968 
L 671.448519 113.762843 
L 672.062378 115.139563 
L 672.266998 114.935001 
L 672.676237 113.487375 
L 673.494716 109.522364 
L 673.903956 108.871234 
L 674.108575 108.215094 
L 674.517815 105.421042 
L 675.131674 100.974544 
L 676.973251 91.700257 
L 677.177871 91.231852 
L 677.382491 91.389422 
L 677.587111 92.275022 
L 678.814829 100.495478 
L 679.224068 101.771255 
L 679.428688 101.800307 
L 679.837928 100.951316 
L 680.247167 99.118843 
L 680.656406 95.985974 
L 681.884125 84.65562 
L 683.316463 77.570263 
L 683.930322 72.447438 
L 684.544181 64.97428 
L 685.15804 53.357668 
L 685.976519 37.844831 
L 686.385759 34.2351 
L 686.590379 33.81707 
L 686.794998 34.397593 
L 686.999618 36.018439 
L 687.408857 42.287454 
L 688.227336 57.077912 
L 688.636576 61.979712 
L 689.045815 64.919109 
L 689.250435 65.701005 
L 689.455055 65.910469 
L 690.273534 65.079291 
L 690.682773 65.417573 
L 690.887393 65.389591 
L 691.092013 64.906136 
L 691.501252 62.168731 
L 692.93359 48.175775 
L 693.547449 41.72714 
L 694.161308 37.013096 
L 694.570548 32.132169 
L 696.002886 9.775618 
L 696.207506 9.36568 
L 696.412125 10.471728 
L 696.821365 16.235043 
L 698.253703 42.437594 
L 698.662942 44.756712 
L 699.072182 45.310239 
L 700.095281 45.614823 
L 700.50452 45.074698 
L 700.70914 45.061232 
L 700.913759 45.246954 
L 701.118379 45.273009 
L 701.322999 44.831215 
L 701.527619 43.848868 
L 701.936858 39.948747 
L 702.550717 29.402622 
L 703.164576 18.773602 
L 704.187675 3.657771 
L 704.482622 -1 
M 767.817793 -1 
L 769.870607 32.465334 
L 771.507565 49.410383 
L 772.121424 54.187498 
L 772.326044 54.489577 
L 772.735284 54.045621 
L 772.939903 54.367354 
L 773.144523 55.381985 
L 774.576861 67.06079 
L 775.19072 72.354587 
L 777.032298 83.069093 
L 778.055396 89.334211 
L 778.464636 90.543942 
L 778.873875 90.893014 
L 779.078495 91.462512 
L 779.692354 94.922166 
L 780.101594 96.458918 
L 780.306213 96.433741 
L 780.920073 95.086608 
L 781.124692 95.324354 
L 781.329312 96.190236 
L 782.55703 104.245715 
L 783.17089 105.84695 
L 783.580129 106.551474 
L 783.989369 106.847002 
L 784.807847 106.837732 
L 785.012467 107.373725 
L 786.444805 113.571619 
L 786.854045 114.230435 
L 787.058664 114.298601 
L 787.263284 114.163425 
L 787.672524 113.333317 
L 788.081763 112.65609 
L 788.286383 112.841683 
L 788.491003 113.449139 
L 788.900242 115.777548 
L 790.12796 124.69694 
L 790.33258 124.758983 
L 790.946439 123.17449 
L 791.151059 123.398577 
L 791.560298 125.45824 
L 794.015735 143.076384 
L 794.220355 143.343118 
L 794.424975 142.97193 
L 795.038834 141.120147 
L 795.243453 141.083303 
L 795.857313 142.17203 
L 796.266552 142.233302 
L 796.471172 142.532363 
L 796.880411 144.141284 
L 798.517369 154.081901 
L 799.745087 164.199013 
L 800.154327 165.677019 
L 800.563566 166.241678 
L 801.177426 166.788418 
L 801.586665 167.604546 
L 802.200524 169.136995 
L 802.609764 169.556566 
L 802.814383 170.029446 
L 803.428243 172.192471 
L 803.837482 172.71215 
L 804.042102 173.321704 
L 804.451341 176.118775 
L 805.0652 180.292267 
L 805.26982 180.94558 
L 805.47444 181.193945 
L 805.883679 181.227 
L 806.088299 181.476092 
L 808.134496 186.055668 
L 808.543736 186.651991 
L 808.952975 186.867 
L 809.362215 187.858189 
L 809.976074 190.231214 
L 810.385313 192.847487 
L 810.999172 197.250953 
L 811.203792 197.960615 
L 811.408412 198.11523 
L 812.022271 197.064546 
L 812.226891 197.077391 
L 812.431511 197.437767 
L 812.84075 199.214019 
L 815.296187 211.696664 
L 816.114666 214.298036 
L 817.137764 219.667128 
L 817.547004 220.349815 
L 817.956243 220.997155 
L 818.365483 222.565592 
L 818.979342 225.347505 
L 819.593201 226.95482 
L 820.00244 227.589851 
L 820.20706 227.690751 
L 820.6163 227.469212 
L 820.820919 227.585698 
L 821.639398 229.18203 
L 822.048638 231.747564 
L 822.457877 235.024879 
L 823.685596 241.474392 
L 824.094835 243.769468 
L 824.504074 244.681786 
L 824.913314 244.872689 
L 825.117934 244.794504 
L 825.731793 243.937249 
L 825.936413 244.046391 
L 826.345652 244.703602 
L 826.550272 244.759222 
L 826.754891 244.491311 
L 827.368751 242.976311 
L 827.57337 242.917501 
L 827.77799 243.46377 
L 828.18723 246.307834 
L 828.596469 249.011862 
L 828.801089 249.298377 
L 829.005708 248.656217 
L 829.824187 244.197239 
L 830.233427 242.875946 
L 830.642666 242.381722 
L 831.051906 242.340724 
L 831.256525 242.607543 
L 831.665765 243.99045 
L 832.075004 245.508447 
L 832.279624 245.928832 
L 832.484244 246.037525 
L 833.098103 245.629857 
L 833.302723 245.402045 
L 833.507342 244.866909 
L 833.916582 242.84743 
L 835.1443 235.104777 
L 836.781258 227.448959 
L 838.008976 221.238626 
L 838.827455 215.825753 
L 839.645934 212.206345 
L 840.259793 206.879814 
L 840.873653 201.796145 
L 841.282892 200.041922 
L 841.896751 199.455233 
L 842.305991 198.074017 
L 842.71523 195.612381 
L 843.12447 191.575157 
L 843.942948 182.368693 
L 844.761427 174.707737 
L 845.579906 164.099184 
L 846.193765 153.464447 
L 847.216864 132.782263 
L 847.626104 128.434825 
L 847.830723 128.19982 
L 848.035343 129.246457 
L 848.444582 134.02552 
L 849.672301 151.747283 
L 850.08154 154.302927 
L 850.28616 154.599161 
L 850.49078 154.430416 
L 850.900019 153.468537 
L 851.309259 151.325957 
L 851.923118 146.847817 
L 852.127738 146.210581 
L 852.332357 146.153762 
L 852.536977 146.555564 
L 852.946216 148.352412 
L 853.355456 151.36552 
L 853.764695 156.011013 
L 855.606273 180.298796 
L 856.424752 190.464742 
L 857.038611 202.607242 
L 857.85709 219.840626 
L 859.494048 246.309504 
L 859.859759 253 
M 912.38886 253 
L 912.60484 -1 
M 936.501963 -1 
L 937.454164 73.883032 
L 938.272643 122.374483 
L 939.091121 158.613156 
L 939.9096 184.558737 
L 940.52346 195.15817 
L 941.137319 201.205538 
L 941.751178 205.243618 
L 942.978896 211.253757 
L 943.592755 214.848416 
L 944.001995 216.147957 
L 944.206615 216.103683 
L 945.025093 214.47603 
L 945.843572 211.948646 
L 946.252812 211.758321 
L 947.071291 210.859962 
L 947.48053 210.994688 
L 947.68515 210.947759 
L 947.88977 211.036285 
L 948.094389 211.432928 
L 948.708249 213.469405 
L 948.912868 213.686106 
L 949.117488 213.402845 
L 949.526727 211.742136 
L 950.549826 207.216383 
L 950.959066 206.100959 
L 951.163685 205.905988 
L 951.368305 206.080599 
L 952.186784 207.913885 
L 952.596023 207.563293 
L 952.800643 207.246719 
L 953.005263 206.659024 
L 953.414502 204.394156 
L 953.823742 201.990174 
L 954.028361 201.328982 
L 954.232981 201.198409 
L 954.437601 201.535513 
L 955.4607 204.562088 
L 955.665319 204.166002 
L 956.074559 202.895684 
L 956.688418 201.855747 
L 957.097657 200.201547 
L 957.711517 197.503685 
L 958.120756 197.220274 
L 958.529995 196.89139 
L 958.734615 196.902951 
L 959.143855 197.106957 
L 959.553094 196.852127 
L 959.757714 196.98529 
L 960.985432 199.450737 
L 961.190052 199.603554 
L 961.394672 199.550695 
L 961.599291 199.18471 
L 962.213151 197.438088 
L 962.41777 197.229565 
L 962.62239 197.364463 
L 963.031629 198.408831 
L 963.645489 200.074442 
L 963.850108 200.076648 
L 964.259348 198.825405 
L 964.463968 198.292559 
L 964.668587 198.321804 
L 965.282446 199.625669 
L 965.487066 199.392698 
L 966.100925 197.926767 
L 966.305545 197.95173 
L 966.714785 198.377039 
L 966.919404 198.413049 
L 967.124024 198.177936 
L 967.533263 197.341448 
L 967.737883 197.190408 
L 967.942503 197.324428 
L 968.351742 198.123793 
L 968.760982 198.955785 
L 968.965602 198.836559 
L 969.374841 197.555537 
L 969.9887 195.655263 
L 970.807179 194.259789 
L 971.011799 194.150261 
L 971.216419 194.212839 
L 971.830278 194.835688 
L 972.034897 194.621299 
L 972.648757 193.402513 
L 972.853376 193.618378 
L 973.262616 195.116979 
L 973.876475 198.19061 
L 974.081095 198.509988 
L 974.285714 198.241007 
L 975.308813 195.224794 
L 975.513433 195.085701 
L 975.922672 195.044446 
L 976.127292 194.729649 
L 976.536531 193.170804 
L 977.150391 190.604949 
L 977.76425 189.377727 
L 978.378109 188.413129 
L 978.991968 187.607148 
L 980.015067 187.175352 
L 980.219687 187.45187 
L 980.628926 189.05897 
L 981.038165 190.507688 
L 981.242785 190.376045 
L 981.652025 188.378617 
L 982.061264 186.202425 
L 982.265884 185.636075 
L 982.470504 185.458809 
L 983.084363 185.682275 
L 983.493602 185.340161 
L 984.107461 184.332359 
L 984.312081 184.322725 
L 984.516701 184.625404 
L 985.13056 186.286327 
L 985.33518 186.499474 
L 985.539799 186.351025 
L 985.949039 185.577157 
L 986.153659 185.646158 
L 986.562898 187.184515 
L 986.972137 188.371638 
L 987.176757 188.166562 
L 987.381377 187.311042 
L 988.813715 177.769443 
L 989.018335 177.502303 
L 989.222954 177.785821 
L 989.632194 179.630218 
L 990.041433 181.176004 
L 990.246053 181.268769 
L 990.859912 180.443991 
L 991.064532 180.784114 
L 992.29225 186.029377 
L 992.49687 186.300778 
L 992.70149 186.142716 
L 993.315349 184.375541 
L 993.724588 183.35438 
L 993.929208 183.206444 
L 994.338448 183.542393 
L 994.747687 184.277981 
L 995.770786 186.8825 
L 995.975405 186.74118 
L 996.180025 186.20857 
L 996.589265 184.011333 
L 997.203124 180.14735 
L 997.612363 179.328353 
L 997.816983 178.902873 
L 998.226222 176.926276 
L 998.635462 175.000375 
L 998.840082 174.767296 
L 999.044701 175.120522 
L 999.453941 177.09699 
L 999.86318 179.322936 
L 1000.27242 180.425644 
L 1000.681659 181.638672 
L 1002.727856 190.643185 
L 1002.932476 190.731304 
L 1003.137096 190.382339 
L 1003.750955 188.624284 
L 1003.955575 188.400219 
L 1004.569434 188.327664 
L 1004.774054 187.980412 
L 1005.183293 186.414266 
L 1005.592533 185.124445 
L 1005.797152 185.249773 
L 1006.206392 186.083114 
L 1006.411012 186.282088 
L 1006.615631 186.249225 
L 1006.820251 186.014777 
L 1007.024871 185.597817 
L 1007.22949 184.896612 
L 1007.63873 181.82647 
L 1008.047969 178.381823 
L 1008.252589 178.075976 
L 1008.457209 178.868276 
L 1009.480307 186.042051 
L 1010.094167 188.335521 
L 1010.298786 188.800886 
L 1010.503406 188.789047 
L 1011.321885 186.773144 
L 1011.526505 187.096332 
L 1011.935744 188.771171 
L 1012.549603 191.77214 
L 1012.754223 192.062466 
L 1012.958843 191.786506 
L 1013.368082 190.681743 
L 1013.572702 190.569046 
L 1013.777322 190.912894 
L 1014.595801 193.465476 
L 1014.80042 193.465712 
L 1015.00504 193.075106 
L 1015.41428 191.232251 
L 1016.437378 184.168817 
L 1016.641998 184.128247 
L 1017.255857 185.381994 
L 1017.460477 185.417704 
L 1017.665097 185.172679 
L 1018.483575 183.486259 
L 1018.688195 183.657829 
L 1019.302054 184.996035 
L 1019.506674 185.014939 
L 1020.120533 184.09076 
L 1020.325153 184.165049 
L 1020.734392 184.874454 
L 1021.348252 186.041067 
L 1021.552871 186.004693 
L 1021.962111 185.798012 
L 1022.16673 185.878316 
L 1022.37135 185.784781 
L 1022.985209 184.646941 
L 1023.189829 184.950519 
L 1024.212928 188.49977 
L 1024.417547 188.654043 
L 1024.622167 188.302659 
L 1025.236026 185.620361 
L 1025.849886 183.456821 
L 1026.054505 183.183837 
L 1026.259125 183.181353 
L 1026.872984 183.61073 
L 1027.077604 183.466776 
L 1027.486843 182.426326 
L 1027.896083 181.378447 
L 1028.100703 181.230918 
L 1028.509942 181.429828 
L 1028.714562 181.705403 
L 1029.123801 182.804728 
L 1029.73766 184.666359 
L 1030.1469 185.113334 
L 1030.556139 185.139067 
L 1030.760759 185.017208 
L 1030.965379 184.617012 
L 1031.374618 182.887923 
L 1031.988477 180.267047 
L 1032.397717 179.622661 
L 1032.806956 179.608788 
L 1033.011576 179.76503 
L 1033.420815 180.622242 
L 1034.034675 182.177876 
L 1034.443914 184.078171 
L 1035.467013 189.914748 
L 1035.671632 190.204774 
L 1035.876252 189.898713 
L 1037.103971 185.59345 
L 1037.51321 184.784044 
L 1037.71783 184.695325 
L 1037.922449 184.949642 
L 1038.536309 186.260144 
L 1039.150168 187.033818 
L 1039.559407 187.231272 
L 1040.377886 188.731307 
L 1040.582506 188.783481 
L 1040.787126 188.693499 
L 1041.400985 188.068745 
L 1041.810224 187.924364 
L 1042.424083 187.520035 
L 1042.833323 187.516717 
L 1043.037943 187.076272 
L 1044.061041 183.096938 
L 1045.08414 181.661151 
L 1046.107239 178.948623 
L 1046.311858 179.29594 
L 1047.744196 185.271674 
L 1047.948816 185.474866 
L 1048.358056 185.312672 
L 1048.971915 185.844918 
L 1049.176534 185.570478 
L 1049.790394 183.536013 
L 1050.608873 180.493189 
L 1050.813492 180.484476 
L 1051.222732 181.699987 
L 1051.427351 182.264047 
L 1051.631971 182.450946 
L 1052.041211 182.109175 
L 1052.45045 181.803948 
L 1053.064309 182.111915 
L 1053.473549 181.382728 
L 1054.905887 178.201111 
L 1055.315126 177.760002 
L 1055.724366 177.481644 
L 1055.928985 177.530135 
L 1056.338225 178.368978 
L 1056.747464 179.196046 
L 1056.952084 179.151152 
L 1057.565943 178.178353 
L 1058.384422 177.975932 
L 1058.589042 178.19396 
L 1058.998281 179.019102 
L 1059.202901 179.211225 
L 1059.407521 179.207457 
L 1059.81676 178.810108 
L 1060.226 177.906161 
L 1060.635239 177.067275 
L 1060.839859 177.22508 
L 1061.249098 178.780007 
L 1061.658338 180.417166 
L 1061.862957 180.595095 
L 1062.067577 180.127911 
L 1062.476817 177.329619 
L 1063.090676 171.616358 
L 1063.295296 170.543666 
L 1063.499915 170.11187 
L 1063.704535 170.187593 
L 1064.113774 171.287389 
L 1064.523014 173.154972 
L 1064.932253 175.411511 
L 1065.136873 176.033632 
L 1065.955352 176.871919 
L 1066.159972 176.926982 
L 1066.364591 176.841903 
L 1066.569211 176.496364 
L 1066.773831 175.61284 
L 1067.18307 171.929977 
L 1067.59231 168.217119 
L 1067.79693 167.655435 
L 1068.001549 168.15559 
L 1069.024648 174.212143 
L 1069.843127 176.278207 
L 1070.047747 176.530896 
L 1070.252366 176.531025 
L 1070.866225 175.521018 
L 1071.070845 175.730547 
L 1071.480085 177.31838 
L 1072.093944 179.927609 
L 1072.503183 181.296515 
L 1072.912423 182.886232 
L 1073.117042 183.124662 
L 1073.321662 182.815861 
L 1073.730902 180.954122 
L 1074.549381 176.2547 
L 1074.95862 174.989628 
L 1075.16324 175.055824 
L 1075.367859 175.774863 
L 1075.981719 178.88429 
L 1076.186338 179.291744 
L 1076.595578 179.497933 
L 1077.414057 179.33105 
L 1077.618676 179.12484 
L 1077.823296 178.648128 
L 1078.437155 176.355986 
L 1079.051015 174.974856 
L 1079.664874 173.109157 
L 1080.074113 172.720778 
L 1080.278733 172.860985 
L 1080.483353 173.412735 
L 1080.892592 176.112995 
L 1081.301832 179.110732 
L 1081.506451 179.735058 
L 1081.915691 179.930735 
L 1082.12031 180.022493 
L 1082.32493 179.956725 
L 1082.73417 178.903215 
L 1083.143409 177.992074 
L 1083.757268 177.183932 
L 1084.166508 176.799342 
L 1084.371127 176.652392 
L 1084.780367 175.731703 
L 1085.189606 174.915296 
L 1085.598846 174.064528 
L 1086.621944 170.165478 
L 1086.826564 169.953936 
L 1087.031184 170.120091 
L 1087.440423 171.410147 
L 1088.054283 173.454632 
L 1088.463522 174.425718 
L 1088.872761 174.816794 
L 1089.077381 174.919557 
L 1089.282001 174.890847 
L 1089.486621 174.561429 
L 1090.10048 172.342183 
L 1090.918959 169.074331 
L 1091.123578 169.153137 
L 1091.532818 170.739814 
L 1092.351297 174.461064 
L 1092.760536 175.88788 
L 1092.965156 176.207515 
L 1093.169776 176.135303 
L 1093.374395 175.629754 
L 1093.783635 173.444998 
L 1094.602114 167.477399 
L 1095.011353 166.796789 
L 1095.625212 166.034183 
L 1095.829832 166.184581 
L 1096.648311 167.998706 
L 1096.852931 167.537815 
L 1097.26217 165.120045 
L 1098.080649 159.361397 
L 1098.694508 156.638058 
L 1098.899128 156.125444 
L 1099.103748 155.941327 
L 1099.512987 155.832206 
L 1099.922227 154.975594 
L 1100.331466 154.144073 
L 1100.740706 153.676374 
L 1101.149945 152.597537 
L 1101.559184 150.820086 
L 1102.173044 146.536467 
L 1102.786903 142.34981 
L 1103.605382 138.226929 
L 1103.810001 137.745871 
L 1104.014621 137.735167 
L 1104.62848 139.169733 
L 1104.8331 138.920427 
L 1105.03772 137.849019 
L 1105.446959 133.726395 
L 1106.470058 121.665163 
L 1107.083917 117.752218 
L 1107.697776 114.192713 
L 1108.107016 110.623252 
L 1108.925495 100.461202 
L 1109.743974 88.00352 
L 1110.562452 71.442633 
L 1112.60865 22.020281 
L 1113.362284 -1 
M 1121.481711 -1 
L 1122.021157 53.728127 
L 1122.635016 91.305927 
L 1123.248876 114.241182 
L 1124.476594 150.124554 
L 1125.295073 170.130196 
L 1125.908932 181.394161 
L 1126.522791 188.249479 
L 1127.34127 193.343981 
L 1127.75051 194.726802 
L 1128.364369 195.486368 
L 1128.568988 196.193568 
L 1128.978228 198.98291 
L 1130.205946 209.377246 
L 1130.410566 209.941435 
L 1130.615186 210.014567 
L 1131.433665 209.278444 
L 1131.842904 209.178743 
L 1132.047524 209.256393 
L 1132.456763 209.87952 
L 1132.661383 210.210694 
L 1132.866003 210.202987 
L 1133.275242 209.190389 
L 1133.684482 208.391238 
L 1134.093721 208.39719 
L 1135.321439 208.862084 
L 1135.526059 208.711901 
L 1135.935299 207.448605 
L 1136.344538 206.140586 
L 1136.549158 205.941634 
L 1136.753778 206.098197 
L 1137.163017 207.307499 
L 1137.776876 209.849419 
L 1137.981496 210.117244 
L 1138.186116 209.91994 
L 1138.595355 209.157398 
L 1138.799975 209.291482 
L 1139.618454 211.572535 
L 1140.641552 210.590295 
L 1141.050792 210.145997 
L 1141.460031 209.155407 
L 1141.869271 207.645439 
L 1142.07389 207.280481 
L 1142.27851 207.420816 
L 1143.096989 209.761728 
L 1143.301609 209.892323 
L 1143.506228 209.82953 
L 1144.120088 209.257785 
L 1144.324707 209.612872 
L 1144.733947 211.472898 
L 1145.347806 214.091483 
L 1145.552426 214.407992 
L 1145.757045 214.251772 
L 1145.961665 213.561849 
L 1146.984764 207.973037 
L 1147.189384 207.797484 
L 1147.394003 208.055333 
L 1148.007862 209.689559 
L 1148.212482 209.610967 
L 1148.826341 208.913744 
L 1149.235581 208.623675 
L 1150.258679 207.264253 
L 1150.872539 205.625553 
L 1152.100257 202.975753 
L 1152.918736 203.383507 
L 1153.123356 203.242679 
L 1153.532595 202.32259 
L 1153.941835 200.445523 
L 1154.555694 196.306157 
L 1154.760313 195.646614 
L 1154.964933 195.555176 
L 1155.169553 195.930581 
L 1156.192652 198.879869 
L 1156.601891 199.545386 
L 1157.01113 199.802614 
L 1157.21575 199.513123 
L 1157.62499 197.71878 
L 1158.238849 194.554461 
L 1158.443469 194.177536 
L 1158.648088 194.19781 
L 1159.057328 194.845065 
L 1159.466567 195.517026 
L 1160.080426 196.311359 
L 1160.489666 197.247142 
L 1161.103525 199.105797 
L 1161.308145 199.254054 
L 1161.512764 199.037032 
L 1162.331243 197.152215 
L 1162.535863 197.709895 
L 1162.945103 200.557877 
L 1163.763581 206.845281 
L 1163.968201 207.14811 
L 1164.377441 206.604346 
L 1165.809779 204.596042 
L 1166.219018 203.499522 
L 1166.628258 201.391624 
L 1167.037497 198.986036 
L 1167.242117 198.605172 
L 1167.446737 199.063322 
L 1168.265215 203.149679 
L 1168.469835 203.066056 
L 1168.879075 201.797323 
L 1169.288314 200.548992 
L 1169.492934 200.239205 
L 1169.902173 200.119893 
L 1170.311413 199.9811 
L 1170.516032 199.804776 
L 1170.720652 199.454184 
L 1171.334511 197.744941 
L 1171.539131 197.678017 
L 1171.743751 197.870034 
L 1171.948371 198.24972 
L 1172.15299 198.95039 
L 1173.380709 205.047085 
L 1173.585328 205.023471 
L 1173.994568 204.403319 
L 1174.199188 204.300107 
L 1174.608427 204.47003 
L 1174.813047 204.243395 
L 1175.017666 203.560494 
L 1175.426906 201.106094 
L 1176.040765 197.060157 
L 1176.450004 195.612873 
L 1176.654624 195.495338 
L 1176.859244 195.869651 
L 1178.905441 203.649769 
L 1179.110061 203.940502 
L 1179.314681 203.699331 
L 1179.5193 202.898917 
L 1180.13316 199.179166 
L 1180.337779 198.862614 
L 1180.542399 199.165228 
L 1181.156258 200.920607 
L 1181.360878 201.130457 
L 1181.565498 201.140883 
L 1181.770117 200.968413 
L 1181.974737 200.532528 
L 1182.997836 197.268529 
L 1183.202455 197.565835 
L 1183.816315 199.272701 
L 1184.020934 199.304686 
L 1184.225554 199.117144 
L 1184.430174 199.099525 
L 1184.634794 199.452643 
L 1184.839413 200.09872 
L 1184.839413 200.09872 
" clip-path="url(#pff77b974ab)" style="fill: none; stroke: #000000; stroke-width: 2; stroke-linecap: square"/>
   </g>
   <g id="patch_3">
    <path d="M 3.00024 198.907885 
L 1184.99976 198.907885 
" style="fill: none; stroke: #000000; stroke-width: 2; stroke-linejoin: miter; stroke-linecap: square"/>
   </g>
  </g>
 </g>
 <defs>
  <clipPath id="pff77b974ab">
   <rect x="3.00024" y="3.00024" width="1181.99952" height="195.907645"/>
  </clipPath>
 </defs>
</svg>
