<?xml version="1.0" encoding="utf-8" standalone="no"?>
<!DOCTYPE svg PUBLIC "-//W3C//DTD SVG 1.1//EN"
  "http://www.w3.org/Graphics/SVG/1.1/DTD/svg11.dtd">
<svg xmlns:xlink="http://www.w3.org/1999/xlink" width="1188pt" height="252pt" viewBox="0 0 1188 252" xmlns="http://www.w3.org/2000/svg" version="1.1">
 <metadata>
  <rdf:RDF xmlns:dc="http://purl.org/dc/elements/1.1/" xmlns:cc="http://creativecommons.org/ns#" xmlns:rdf="http://www.w3.org/1999/02/22-rdf-syntax-ns#">
   <cc:Work>
    <dc:type rdf:resource="http://purl.org/dc/dcmitype/StillImage"/>
    <dc:date>2024-07-23T21:43:12.890309</dc:date>
    <dc:format>image/svg+xml</dc:format>
    <dc:creator>
     <cc:Agent>
      <dc:title>Matplotlib v3.8.4, https://matplotlib.org/</dc:title>
     </cc:Agent>
    </dc:creator>
   </cc:Work>
  </rdf:RDF>
 </metadata>
 <defs>
  <style type="text/css">*{stroke-linejoin: round; stroke-linecap: butt}</style>
 </defs>
 <g id="figure_1">
  <g id="patch_1">
   <path d="M 0 252 
L 1188 252 
L 1188 0 
L 0 0 
z
" style="fill: #ffffff"/>
  </g>
  <g id="axes_1">
   <g id="patch_2">
    <path d="M 3.00024 198.907885 
L 1184.99976 198.907885 
L 1184.99976 3.00024 
L 3.00024 3.00024 
z
" style="fill: #ffffff"/>
   </g>
   <g id="matplotlib.axis_1">
    <g id="xtick_1">
     <g id="line2d_1">
      <defs>
       <path id="m128233eb39" d="M 0 0 
L 0 8 
" style="stroke: #000000; stroke-width: 2"/>
      </defs>
      <g>
       <use xlink:href="#m128233eb39" x="1131.272509" y="198.907885" style="stroke: #000000; stroke-width: 2"/>
      </g>
     </g>
     <g id="text_1">
      <!-- 0 -->
      <g transform="translate(1126.267665 224.791947) scale(0.18 -0.18)">
       <defs>
        <path id="Arial-BoldMT-30" d="M 1756 4600 
Q 2422 4600 2797 4125 
Q 3244 3563 3244 2259 
Q 3244 959 2794 391 
Q 2422 -78 1756 -78 
Q 1088 -78 678 436 
Q 269 950 269 2269 
Q 269 3563 719 4131 
Q 1091 4600 1756 4600 
z
M 1756 3872 
Q 1597 3872 1472 3770 
Q 1347 3669 1278 3406 
Q 1188 3066 1188 2259 
Q 1188 1453 1269 1151 
Q 1350 850 1473 750 
Q 1597 650 1756 650 
Q 1916 650 2041 751 
Q 2166 853 2234 1116 
Q 2325 1453 2325 2259 
Q 2325 3066 2244 3367 
Q 2163 3669 2039 3770 
Q 1916 3872 1756 3872 
z
" transform="scale(0.015625)"/>
       </defs>
       <use xlink:href="#Arial-BoldMT-30"/>
      </g>
     </g>
    </g>
    <g id="xtick_2">
     <g id="line2d_2">
      <g>
       <use xlink:href="#m128233eb39" x="1023.818007" y="198.907885" style="stroke: #000000; stroke-width: 2"/>
      </g>
     </g>
     <g id="text_2">
      <!-- 1 -->
      <g transform="translate(1018.813164 224.791947) scale(0.18 -0.18)">
       <defs>
        <path id="Arial-BoldMT-31" d="M 2519 0 
L 1641 0 
L 1641 3309 
Q 1159 2859 506 2644 
L 506 3441 
Q 850 3553 1253 3867 
Q 1656 4181 1806 4600 
L 2519 4600 
L 2519 0 
z
" transform="scale(0.015625)"/>
       </defs>
       <use xlink:href="#Arial-BoldMT-31"/>
      </g>
     </g>
    </g>
    <g id="xtick_3">
     <g id="line2d_3">
      <g>
       <use xlink:href="#m128233eb39" x="916.363505" y="198.907885" style="stroke: #000000; stroke-width: 2"/>
      </g>
     </g>
     <g id="text_3">
      <!-- 2 -->
      <g transform="translate(911.358662 224.791947) scale(0.18 -0.18)">
       <defs>
        <path id="Arial-BoldMT-32" d="M 3238 816 
L 3238 0 
L 159 0 
Q 209 463 459 877 
Q 709 1291 1447 1975 
Q 2041 2528 2175 2725 
Q 2356 2997 2356 3263 
Q 2356 3556 2198 3714 
Q 2041 3872 1763 3872 
Q 1488 3872 1325 3706 
Q 1163 3541 1138 3156 
L 263 3244 
Q 341 3969 753 4284 
Q 1166 4600 1784 4600 
Q 2463 4600 2850 4234 
Q 3238 3869 3238 3325 
Q 3238 3016 3127 2736 
Q 3016 2456 2775 2150 
Q 2616 1947 2200 1565 
Q 1784 1184 1673 1059 
Q 1563 934 1494 816 
L 3238 816 
z
" transform="scale(0.015625)"/>
       </defs>
       <use xlink:href="#Arial-BoldMT-32"/>
      </g>
     </g>
    </g>
    <g id="xtick_4">
     <g id="line2d_4">
      <g>
       <use xlink:href="#m128233eb39" x="808.909004" y="198.907885" style="stroke: #000000; stroke-width: 2"/>
      </g>
     </g>
     <g id="text_4">
      <!-- 3 -->
      <g transform="translate(803.90416 224.791947) scale(0.18 -0.18)">
       <defs>
        <path id="Arial-BoldMT-33" d="M 241 1216 
L 1091 1319 
Q 1131 994 1309 822 
Q 1488 650 1741 650 
Q 2013 650 2198 856 
Q 2384 1063 2384 1413 
Q 2384 1744 2206 1937 
Q 2028 2131 1772 2131 
Q 1603 2131 1369 2066 
L 1466 2781 
Q 1822 2772 2009 2936 
Q 2197 3100 2197 3372 
Q 2197 3603 2059 3740 
Q 1922 3878 1694 3878 
Q 1469 3878 1309 3722 
Q 1150 3566 1116 3266 
L 306 3403 
Q 391 3819 561 4067 
Q 731 4316 1036 4458 
Q 1341 4600 1719 4600 
Q 2366 4600 2756 4188 
Q 3078 3850 3078 3425 
Q 3078 2822 2419 2463 
Q 2813 2378 3048 2084 
Q 3284 1791 3284 1375 
Q 3284 772 2843 347 
Q 2403 -78 1747 -78 
Q 1125 -78 715 280 
Q 306 638 241 1216 
z
" transform="scale(0.015625)"/>
       </defs>
       <use xlink:href="#Arial-BoldMT-33"/>
      </g>
     </g>
    </g>
    <g id="xtick_5">
     <g id="line2d_5">
      <g>
       <use xlink:href="#m128233eb39" x="701.454502" y="198.907885" style="stroke: #000000; stroke-width: 2"/>
      </g>
     </g>
     <g id="text_5">
      <!-- 4 -->
      <g transform="translate(696.449658 224.791947) scale(0.18 -0.18)">
       <defs>
        <path id="Arial-BoldMT-34" d="M 1994 0 
L 1994 922 
L 119 922 
L 119 1691 
L 2106 4600 
L 2844 4600 
L 2844 1694 
L 3413 1694 
L 3413 922 
L 2844 922 
L 2844 0 
L 1994 0 
z
M 1994 1694 
L 1994 3259 
L 941 1694 
L 1994 1694 
z
" transform="scale(0.015625)"/>
       </defs>
       <use xlink:href="#Arial-BoldMT-34"/>
      </g>
     </g>
    </g>
    <g id="xtick_6">
     <g id="line2d_6">
      <g>
       <use xlink:href="#m128233eb39" x="594" y="198.907885" style="stroke: #000000; stroke-width: 2"/>
      </g>
     </g>
     <g id="text_6">
      <!-- 5 -->
      <g transform="translate(588.995156 224.791947) scale(0.18 -0.18)">
       <defs>
        <path id="Arial-BoldMT-35" d="M 284 1178 
L 1159 1269 
Q 1197 972 1381 798 
Q 1566 625 1806 625 
Q 2081 625 2272 848 
Q 2463 1072 2463 1522 
Q 2463 1944 2273 2155 
Q 2084 2366 1781 2366 
Q 1403 2366 1103 2031 
L 391 2134 
L 841 4519 
L 3163 4519 
L 3163 3697 
L 1506 3697 
L 1369 2919 
Q 1663 3066 1969 3066 
Q 2553 3066 2959 2641 
Q 3366 2216 3366 1538 
Q 3366 972 3038 528 
Q 2591 -78 1797 -78 
Q 1163 -78 763 262 
Q 363 603 284 1178 
z
" transform="scale(0.015625)"/>
       </defs>
       <use xlink:href="#Arial-BoldMT-35"/>
      </g>
     </g>
    </g>
    <g id="xtick_7">
     <g id="line2d_7">
      <g>
       <use xlink:href="#m128233eb39" x="486.545498" y="198.907885" style="stroke: #000000; stroke-width: 2"/>
      </g>
     </g>
     <g id="text_7">
      <!-- 6 -->
      <g transform="translate(481.540654 224.791947) scale(0.18 -0.18)">
       <defs>
        <path id="Arial-BoldMT-36" d="M 3247 3459 
L 2397 3366 
Q 2366 3628 2234 3753 
Q 2103 3878 1894 3878 
Q 1616 3878 1423 3628 
Q 1231 3378 1181 2588 
Q 1509 2975 1997 2975 
Q 2547 2975 2939 2556 
Q 3331 2138 3331 1475 
Q 3331 772 2918 347 
Q 2506 -78 1859 -78 
Q 1166 -78 719 461 
Q 272 1000 272 2228 
Q 272 3488 737 4044 
Q 1203 4600 1947 4600 
Q 2469 4600 2811 4308 
Q 3153 4016 3247 3459 
z
M 1256 1544 
Q 1256 1116 1453 883 
Q 1650 650 1903 650 
Q 2147 650 2309 840 
Q 2472 1031 2472 1466 
Q 2472 1913 2297 2120 
Q 2122 2328 1859 2328 
Q 1606 2328 1431 2129 
Q 1256 1931 1256 1544 
z
" transform="scale(0.015625)"/>
       </defs>
       <use xlink:href="#Arial-BoldMT-36"/>
      </g>
     </g>
    </g>
    <g id="xtick_8">
     <g id="line2d_8">
      <g>
       <use xlink:href="#m128233eb39" x="379.090996" y="198.907885" style="stroke: #000000; stroke-width: 2"/>
      </g>
     </g>
     <g id="text_8">
      <!-- 7 -->
      <g transform="translate(374.086153 224.791947) scale(0.18 -0.18)">
       <defs>
        <path id="Arial-BoldMT-37" d="M 272 3703 
L 272 4519 
L 3275 4519 
L 3275 3881 
Q 2903 3516 2518 2831 
Q 2134 2147 1932 1376 
Q 1731 606 1734 0 
L 888 0 
Q 909 950 1279 1937 
Q 1650 2925 2269 3703 
L 272 3703 
z
" transform="scale(0.015625)"/>
       </defs>
       <use xlink:href="#Arial-BoldMT-37"/>
      </g>
     </g>
    </g>
    <g id="xtick_9">
     <g id="line2d_9">
      <g>
       <use xlink:href="#m128233eb39" x="271.636495" y="198.907885" style="stroke: #000000; stroke-width: 2"/>
      </g>
     </g>
     <g id="text_9">
      <!-- 8 -->
      <g transform="translate(266.631651 224.791947) scale(0.18 -0.18)">
       <defs>
        <path id="Arial-BoldMT-38" d="M 1025 2472 
Q 684 2616 529 2867 
Q 375 3119 375 3419 
Q 375 3931 733 4265 
Q 1091 4600 1750 4600 
Q 2403 4600 2764 4265 
Q 3125 3931 3125 3419 
Q 3125 3100 2959 2851 
Q 2794 2603 2494 2472 
Q 2875 2319 3073 2025 
Q 3272 1731 3272 1347 
Q 3272 713 2867 316 
Q 2463 -81 1791 -81 
Q 1166 -81 750 247 
Q 259 634 259 1309 
Q 259 1681 443 1992 
Q 628 2303 1025 2472 
z
M 1206 3356 
Q 1206 3094 1354 2947 
Q 1503 2800 1750 2800 
Q 2000 2800 2150 2948 
Q 2300 3097 2300 3359 
Q 2300 3606 2151 3754 
Q 2003 3903 1759 3903 
Q 1506 3903 1356 3753 
Q 1206 3603 1206 3356 
z
M 1125 1394 
Q 1125 1031 1311 828 
Q 1497 625 1775 625 
Q 2047 625 2225 820 
Q 2403 1016 2403 1384 
Q 2403 1706 2222 1901 
Q 2041 2097 1763 2097 
Q 1441 2097 1283 1875 
Q 1125 1653 1125 1394 
z
" transform="scale(0.015625)"/>
       </defs>
       <use xlink:href="#Arial-BoldMT-38"/>
      </g>
     </g>
    </g>
    <g id="xtick_10">
     <g id="line2d_10">
      <g>
       <use xlink:href="#m128233eb39" x="164.181993" y="198.907885" style="stroke: #000000; stroke-width: 2"/>
      </g>
     </g>
     <g id="text_10">
      <!-- 9 -->
      <g transform="translate(159.177149 224.791947) scale(0.18 -0.18)">
       <defs>
        <path id="Arial-BoldMT-39" d="M 291 1059 
L 1141 1153 
Q 1172 894 1303 769 
Q 1434 644 1650 644 
Q 1922 644 2112 894 
Q 2303 1144 2356 1931 
Q 2025 1547 1528 1547 
Q 988 1547 595 1964 
Q 203 2381 203 3050 
Q 203 3747 617 4173 
Q 1031 4600 1672 4600 
Q 2369 4600 2816 4061 
Q 3263 3522 3263 2288 
Q 3263 1031 2797 475 
Q 2331 -81 1584 -81 
Q 1047 -81 715 205 
Q 384 491 291 1059 
z
M 2278 2978 
Q 2278 3403 2083 3637 
Q 1888 3872 1631 3872 
Q 1388 3872 1227 3680 
Q 1066 3488 1066 3050 
Q 1066 2606 1241 2398 
Q 1416 2191 1678 2191 
Q 1931 2191 2104 2391 
Q 2278 2591 2278 2978 
z
" transform="scale(0.015625)"/>
       </defs>
       <use xlink:href="#Arial-BoldMT-39"/>
      </g>
     </g>
    </g>
    <g id="xtick_11">
     <g id="line2d_11">
      <g>
       <use xlink:href="#m128233eb39" x="56.727491" y="198.907885" style="stroke: #000000; stroke-width: 2"/>
      </g>
     </g>
     <g id="text_11">
      <!-- 10 -->
      <g transform="translate(46.717803 224.791947) scale(0.18 -0.18)">
       <use xlink:href="#Arial-BoldMT-31"/>
       <use xlink:href="#Arial-BoldMT-30" x="55.615234"/>
      </g>
     </g>
    </g>
    <g id="text_12">
     <!-- Chemical Shift / ppm -->
     <g transform="translate(504.992813 245.447573) scale(0.18 -0.18)">
      <defs>
       <path id="Arial-BoldMT-43" d="M 3397 1684 
L 4294 1400 
Q 4088 650 3608 286 
Q 3128 -78 2391 -78 
Q 1478 -78 890 545 
Q 303 1169 303 2250 
Q 303 3394 893 4026 
Q 1484 4659 2447 4659 
Q 3288 4659 3813 4163 
Q 4125 3869 4281 3319 
L 3366 3100 
Q 3284 3456 3026 3662 
Q 2769 3869 2400 3869 
Q 1891 3869 1573 3503 
Q 1256 3138 1256 2319 
Q 1256 1450 1568 1081 
Q 1881 713 2381 713 
Q 2750 713 3015 947 
Q 3281 1181 3397 1684 
z
" transform="scale(0.015625)"/>
       <path id="Arial-BoldMT-68" d="M 1334 4581 
L 1334 2897 
Q 1759 3394 2350 3394 
Q 2653 3394 2897 3281 
Q 3141 3169 3264 2994 
Q 3388 2819 3433 2606 
Q 3478 2394 3478 1947 
L 3478 0 
L 2600 0 
L 2600 1753 
Q 2600 2275 2550 2415 
Q 2500 2556 2373 2639 
Q 2247 2722 2056 2722 
Q 1838 2722 1666 2615 
Q 1494 2509 1414 2295 
Q 1334 2081 1334 1663 
L 1334 0 
L 456 0 
L 456 4581 
L 1334 4581 
z
" transform="scale(0.015625)"/>
       <path id="Arial-BoldMT-65" d="M 2381 1056 
L 3256 909 
Q 3088 428 2723 176 
Q 2359 -75 1813 -75 
Q 947 -75 531 491 
Q 203 944 203 1634 
Q 203 2459 634 2926 
Q 1066 3394 1725 3394 
Q 2466 3394 2894 2905 
Q 3322 2416 3303 1406 
L 1103 1406 
Q 1113 1016 1316 798 
Q 1519 581 1822 581 
Q 2028 581 2168 693 
Q 2309 806 2381 1056 
z
M 2431 1944 
Q 2422 2325 2234 2523 
Q 2047 2722 1778 2722 
Q 1491 2722 1303 2513 
Q 1116 2303 1119 1944 
L 2431 1944 
z
" transform="scale(0.015625)"/>
       <path id="Arial-BoldMT-6d" d="M 394 3319 
L 1203 3319 
L 1203 2866 
Q 1638 3394 2238 3394 
Q 2556 3394 2790 3262 
Q 3025 3131 3175 2866 
Q 3394 3131 3647 3262 
Q 3900 3394 4188 3394 
Q 4553 3394 4806 3245 
Q 5059 3097 5184 2809 
Q 5275 2597 5275 2122 
L 5275 0 
L 4397 0 
L 4397 1897 
Q 4397 2391 4306 2534 
Q 4184 2722 3931 2722 
Q 3747 2722 3584 2609 
Q 3422 2497 3350 2280 
Q 3278 2063 3278 1594 
L 3278 0 
L 2400 0 
L 2400 1819 
Q 2400 2303 2353 2443 
Q 2306 2584 2207 2653 
Q 2109 2722 1941 2722 
Q 1738 2722 1575 2612 
Q 1413 2503 1342 2297 
Q 1272 2091 1272 1613 
L 1272 0 
L 394 0 
L 394 3319 
z
" transform="scale(0.015625)"/>
       <path id="Arial-BoldMT-69" d="M 459 3769 
L 459 4581 
L 1338 4581 
L 1338 3769 
L 459 3769 
z
M 459 0 
L 459 3319 
L 1338 3319 
L 1338 0 
L 459 0 
z
" transform="scale(0.015625)"/>
       <path id="Arial-BoldMT-63" d="M 3353 2338 
L 2488 2181 
Q 2444 2441 2289 2572 
Q 2134 2703 1888 2703 
Q 1559 2703 1364 2476 
Q 1169 2250 1169 1719 
Q 1169 1128 1367 884 
Q 1566 641 1900 641 
Q 2150 641 2309 783 
Q 2469 925 2534 1272 
L 3397 1125 
Q 3263 531 2881 228 
Q 2500 -75 1859 -75 
Q 1131 -75 698 384 
Q 266 844 266 1656 
Q 266 2478 700 2936 
Q 1134 3394 1875 3394 
Q 2481 3394 2839 3133 
Q 3197 2872 3353 2338 
z
" transform="scale(0.015625)"/>
       <path id="Arial-BoldMT-61" d="M 1116 2306 
L 319 2450 
Q 453 2931 781 3162 
Q 1109 3394 1756 3394 
Q 2344 3394 2631 3255 
Q 2919 3116 3036 2902 
Q 3153 2688 3153 2116 
L 3144 1091 
Q 3144 653 3186 445 
Q 3228 238 3344 0 
L 2475 0 
Q 2441 88 2391 259 
Q 2369 338 2359 363 
Q 2134 144 1878 34 
Q 1622 -75 1331 -75 
Q 819 -75 523 203 
Q 228 481 228 906 
Q 228 1188 362 1408 
Q 497 1628 739 1745 
Q 981 1863 1438 1950 
Q 2053 2066 2291 2166 
L 2291 2253 
Q 2291 2506 2166 2614 
Q 2041 2722 1694 2722 
Q 1459 2722 1328 2630 
Q 1197 2538 1116 2306 
z
M 2291 1594 
Q 2122 1538 1756 1459 
Q 1391 1381 1278 1306 
Q 1106 1184 1106 997 
Q 1106 813 1243 678 
Q 1381 544 1594 544 
Q 1831 544 2047 700 
Q 2206 819 2256 991 
Q 2291 1103 2291 1419 
L 2291 1594 
z
" transform="scale(0.015625)"/>
       <path id="Arial-BoldMT-6c" d="M 459 0 
L 459 4581 
L 1338 4581 
L 1338 0 
L 459 0 
z
" transform="scale(0.015625)"/>
       <path id="Arial-BoldMT-20" transform="scale(0.015625)"/>
       <path id="Arial-BoldMT-53" d="M 231 1491 
L 1131 1578 
Q 1213 1125 1461 912 
Q 1709 700 2131 700 
Q 2578 700 2804 889 
Q 3031 1078 3031 1331 
Q 3031 1494 2936 1608 
Q 2841 1722 2603 1806 
Q 2441 1863 1863 2006 
Q 1119 2191 819 2459 
Q 397 2838 397 3381 
Q 397 3731 595 4036 
Q 794 4341 1167 4500 
Q 1541 4659 2069 4659 
Q 2931 4659 3367 4281 
Q 3803 3903 3825 3272 
L 2900 3231 
Q 2841 3584 2645 3739 
Q 2450 3894 2059 3894 
Q 1656 3894 1428 3728 
Q 1281 3622 1281 3444 
Q 1281 3281 1419 3166 
Q 1594 3019 2269 2859 
Q 2944 2700 3267 2529 
Q 3591 2359 3773 2064 
Q 3956 1769 3956 1334 
Q 3956 941 3737 597 
Q 3519 253 3119 86 
Q 2719 -81 2122 -81 
Q 1253 -81 787 320 
Q 322 722 231 1491 
z
" transform="scale(0.015625)"/>
       <path id="Arial-BoldMT-66" d="M 75 3319 
L 563 3319 
L 563 3569 
Q 563 3988 652 4194 
Q 741 4400 980 4529 
Q 1219 4659 1584 4659 
Q 1959 4659 2319 4547 
L 2200 3934 
Q 1991 3984 1797 3984 
Q 1606 3984 1523 3895 
Q 1441 3806 1441 3553 
L 1441 3319 
L 2097 3319 
L 2097 2628 
L 1441 2628 
L 1441 0 
L 563 0 
L 563 2628 
L 75 2628 
L 75 3319 
z
" transform="scale(0.015625)"/>
       <path id="Arial-BoldMT-74" d="M 1981 3319 
L 1981 2619 
L 1381 2619 
L 1381 1281 
Q 1381 875 1398 808 
Q 1416 741 1477 697 
Q 1538 653 1625 653 
Q 1747 653 1978 738 
L 2053 56 
Q 1747 -75 1359 -75 
Q 1122 -75 931 4 
Q 741 84 652 211 
Q 563 338 528 553 
Q 500 706 500 1172 
L 500 2619 
L 97 2619 
L 97 3319 
L 500 3319 
L 500 3978 
L 1381 4491 
L 1381 3319 
L 1981 3319 
z
" transform="scale(0.015625)"/>
       <path id="Arial-BoldMT-2f" d="M -9 -78 
L 1125 4659 
L 1784 4659 
L 638 -78 
L -9 -78 
z
" transform="scale(0.015625)"/>
       <path id="Arial-BoldMT-70" d="M 434 3319 
L 1253 3319 
L 1253 2831 
Q 1413 3081 1684 3237 
Q 1956 3394 2288 3394 
Q 2866 3394 3269 2941 
Q 3672 2488 3672 1678 
Q 3672 847 3265 386 
Q 2859 -75 2281 -75 
Q 2006 -75 1782 34 
Q 1559 144 1313 409 
L 1313 -1263 
L 434 -1263 
L 434 3319 
z
M 1303 1716 
Q 1303 1156 1525 889 
Q 1747 622 2066 622 
Q 2372 622 2575 867 
Q 2778 1113 2778 1672 
Q 2778 2194 2568 2447 
Q 2359 2700 2050 2700 
Q 1728 2700 1515 2451 
Q 1303 2203 1303 1716 
z
" transform="scale(0.015625)"/>
      </defs>
      <use xlink:href="#Arial-BoldMT-43"/>
      <use xlink:href="#Arial-BoldMT-68" x="72.216797"/>
      <use xlink:href="#Arial-BoldMT-65" x="133.300781"/>
      <use xlink:href="#Arial-BoldMT-6d" x="188.916016"/>
      <use xlink:href="#Arial-BoldMT-69" x="277.832031"/>
      <use xlink:href="#Arial-BoldMT-63" x="305.615234"/>
      <use xlink:href="#Arial-BoldMT-61" x="361.230469"/>
      <use xlink:href="#Arial-BoldMT-6c" x="416.845703"/>
      <use xlink:href="#Arial-BoldMT-20" x="444.628906"/>
      <use xlink:href="#Arial-BoldMT-53" x="472.412109"/>
      <use xlink:href="#Arial-BoldMT-68" x="539.111328"/>
      <use xlink:href="#Arial-BoldMT-69" x="600.195312"/>
      <use xlink:href="#Arial-BoldMT-66" x="627.978516"/>
      <use xlink:href="#Arial-BoldMT-74" x="661.279297"/>
      <use xlink:href="#Arial-BoldMT-20" x="694.580078"/>
      <use xlink:href="#Arial-BoldMT-2f" x="722.363281"/>
      <use xlink:href="#Arial-BoldMT-20" x="750.146484"/>
      <use xlink:href="#Arial-BoldMT-70" x="777.929688"/>
      <use xlink:href="#Arial-BoldMT-70" x="839.013672"/>
      <use xlink:href="#Arial-BoldMT-6d" x="900.097656"/>
     </g>
    </g>
   </g>
   <g id="matplotlib.axis_2"/>
   <g id="line2d_12">
    <path d="M 2.915851 189.545413 
L 4.143569 188.695483 
L 4.348189 188.797697 
L 5.166668 189.663428 
L 5.575907 189.783944 
L 6.189767 189.728191 
L 6.803626 189.817952 
L 7.417485 189.41169 
L 8.235964 188.824112 
L 8.645203 188.918496 
L 9.463682 189.387115 
L 10.077541 189.522206 
L 10.486781 189.318909 
L 10.89602 189.102217 
L 12.942217 188.813452 
L 13.351457 188.900902 
L 15.193034 189.845546 
L 15.602274 190.018088 
L 16.011513 189.904837 
L 16.625373 189.342211 
L 16.829992 189.346833 
L 17.648471 189.872762 
L 18.057711 190.009928 
L 19.285429 191.32159 
L 20.922387 191.899263 
L 21.331626 191.65743 
L 22.150105 190.964572 
L 22.763964 190.999618 
L 23.173204 190.956648 
L 23.991683 190.664722 
L 25.014781 190.530197 
L 25.424021 190.351947 
L 25.83326 189.868611 
L 26.651739 188.536431 
L 27.060979 188.386341 
L 27.470218 188.537233 
L 29.107176 190.072474 
L 29.516415 190.49633 
L 29.925655 190.497368 
L 30.744134 190.162141 
L 31.562613 189.330324 
L 31.971852 189.374851 
L 32.790331 189.62376 
L 33.60881 189.574233 
L 34.631909 189.929789 
L 35.041148 189.660645 
L 35.450387 189.364946 
L 36.473486 188.990051 
L 37.291965 189.857197 
L 37.701204 189.816019 
L 38.110444 189.636542 
L 38.724303 189.281363 
L 38.928923 189.352163 
L 39.338162 189.839273 
L 39.747402 190.28676 
L 40.7705 190.631091 
L 41.38436 191.076173 
L 42.202838 191.16801 
L 43.225937 191.702523 
L 44.249036 191.83601 
L 44.658275 191.494463 
L 45.272134 190.91429 
L 45.681374 190.937214 
L 46.909092 191.8062 
L 47.318332 191.50385 
L 48.75067 189.764652 
L 49.159909 189.484235 
L 49.364529 189.462113 
L 49.569149 189.581968 
L 49.978388 190.203602 
L 50.592247 191.180745 
L 51.001487 191.297016 
L 52.229205 190.871178 
L 52.843064 189.913374 
L 53.252304 189.888941 
L 53.866163 189.776963 
L 54.275402 189.575129 
L 54.889261 188.928118 
L 55.298501 188.517375 
L 55.503121 188.484451 
L 55.91236 188.822885 
L 56.3216 189.242544 
L 56.935459 189.428246 
L 57.344698 189.547347 
L 57.549318 189.485839 
L 58.163177 188.810291 
L 58.777036 187.939796 
L 59.595515 186.047537 
L 60.004755 184.955963 
L 61.437093 180.073267 
L 61.846332 179.786199 
L 62.255572 180.019117 
L 62.869431 180.912536 
L 63.48329 182.071702 
L 64.506389 184.646915 
L 65.120248 185.190343 
L 65.938727 186.606437 
L 66.347966 186.546816 
L 66.757206 186.51276 
L 67.371065 186.834213 
L 67.984924 187.186232 
L 68.394163 187.118404 
L 70.64498 186.300266 
L 71.05422 186.323756 
L 71.463459 186.570164 
L 72.895797 188.122716 
L 73.714276 188.911326 
L 74.328136 189.746822 
L 74.532755 189.859649 
L 74.737375 189.801962 
L 75.555854 188.861658 
L 76.169713 187.832771 
L 76.578953 187.340001 
L 76.783572 187.325238 
L 77.192812 187.589429 
L 78.011291 188.311343 
L 78.42053 188.288466 
L 78.82977 188.287711 
L 79.239009 188.654635 
L 80.875967 190.833302 
L 81.080587 190.886084 
L 81.489826 190.583403 
L 82.103685 189.782906 
L 83.945263 188.770104 
L 84.354502 189.137122 
L 84.968361 189.878281 
L 85.99146 190.60661 
L 86.605319 191.159001 
L 87.014559 191.241734 
L 87.833037 190.979241 
L 88.651516 190.501943 
L 91.720812 190.67024 
L 92.539291 190.116199 
L 92.948531 190.572366 
L 93.35777 191.175274 
L 93.76701 191.370033 
L 94.176249 191.115653 
L 94.790108 190.556564 
L 95.199348 190.511424 
L 95.608587 190.546565 
L 96.222446 190.369022 
L 96.631686 190.701702 
L 97.245545 191.30994 
L 97.654784 191.332392 
L 98.473263 191.096078 
L 100.314841 189.794604 
L 100.9287 190.326382 
L 101.337939 190.613638 
L 102.156418 190.853679 
L 102.770278 191.484133 
L 102.974897 191.500406 
L 103.588756 191.099049 
L 103.997996 190.890895 
L 104.611855 190.902781 
L 105.430334 191.031032 
L 106.044193 191.161642 
L 106.453433 191.129662 
L 106.862672 190.826934 
L 107.271912 190.506377 
L 107.681151 190.587695 
L 108.29501 190.952921 
L 109.113489 190.872357 
L 110.136588 190.487604 
L 110.545827 190.725805 
L 110.955067 191.028721 
L 111.364306 190.955563 
L 111.773546 190.780049 
L 112.796644 190.761276 
L 113.819743 191.216122 
L 114.638222 191.274233 
L 115.047461 191.035325 
L 115.86594 190.353457 
L 116.889039 189.932478 
L 117.912137 189.775925 
L 118.321377 189.872479 
L 119.139856 189.760831 
L 120.162954 189.774369 
L 120.776814 190.115303 
L 121.186053 189.925685 
L 121.799912 189.522347 
L 122.209152 189.538715 
L 122.618391 189.781019 
L 123.64149 190.561706 
L 124.255349 190.925894 
L 125.483067 192.017326 
L 125.892307 192.065438 
L 126.301546 191.628563 
L 127.529264 189.42301 
L 128.143124 188.98373 
L 128.552363 188.968212 
L 129.166222 189.078869 
L 129.780081 188.818263 
L 130.189321 188.719209 
L 130.59856 189.024578 
L 131.417039 189.985542 
L 132.235518 190.550385 
L 132.849377 190.548876 
L 133.258617 190.313646 
L 133.872476 189.700927 
L 134.077096 189.684324 
L 134.486335 189.943845 
L 135.509434 190.682127 
L 135.918673 190.532603 
L 136.327913 189.907903 
L 136.941772 188.957033 
L 137.964871 188.33521 
L 138.57873 187.913948 
L 138.987969 187.638295 
L 139.192589 187.711689 
L 139.601828 188.341436 
L 140.215688 189.507489 
L 141.034166 190.489113 
L 141.238786 190.567979 
L 141.648026 190.35973 
L 142.057265 190.027758 
L 142.466505 189.947383 
L 143.284983 189.973892 
L 143.898843 189.821066 
L 144.308082 189.980118 
L 145.126561 190.518877 
L 145.94504 190.581281 
L 147.581998 189.951675 
L 147.991237 189.398624 
L 148.605096 188.401906 
L 149.014336 188.254693 
L 149.423575 188.440584 
L 150.037434 189.056794 
L 150.446674 189.526734 
L 150.651294 189.629892 
L 151.060533 189.459943 
L 151.469773 189.19212 
L 151.879012 189.217261 
L 152.492871 189.516546 
L 153.10673 189.522819 
L 153.72059 189.399662 
L 154.334449 189.035144 
L 154.948308 189.074765 
L 155.971407 189.320466 
L 156.380646 189.33089 
L 157.608364 189.910544 
L 158.426843 189.577393 
L 159.245322 189.896677 
L 160.063801 189.643429 
L 160.88228 190.025966 
L 161.496139 190.343315 
L 162.109998 190.416049 
L 163.337717 190.702881 
L 164.770055 189.895497 
L 165.383914 189.912006 
L 166.407013 190.315297 
L 167.225491 190.203791 
L 167.839351 190.552885 
L 168.24859 190.44968 
L 169.067069 189.704701 
L 169.680928 189.024861 
L 169.885548 188.963966 
L 170.294787 189.182215 
L 170.704027 189.414756 
L 171.113266 189.341456 
L 171.522506 189.163725 
L 171.931745 189.097831 
L 172.340985 188.770858 
L 172.750224 188.432377 
L 173.159464 188.4145 
L 173.568703 188.464405 
L 173.977942 188.255873 
L 174.591802 187.747396 
L 175.001041 187.775273 
L 175.6149 188.120688 
L 176.433379 188.279079 
L 176.842619 188.345917 
L 177.251858 188.166347 
L 177.661098 187.967013 
L 178.070337 188.110546 
L 178.888816 188.436292 
L 179.298055 188.386765 
L 179.911915 188.082575 
L 180.321154 188.184459 
L 181.753492 188.663031 
L 182.367351 188.79548 
L 182.98121 189.097972 
L 183.18583 189.060332 
L 183.59507 188.641805 
L 184.618168 186.930815 
L 185.027408 186.901098 
L 186.459746 187.809234 
L 187.687464 187.812536 
L 188.915183 188.476291 
L 189.733661 188.276202 
L 190.75676 189.376738 
L 190.96138 189.36504 
L 191.166 189.196649 
L 191.779859 188.031162 
L 192.189098 187.425942 
L 192.598338 187.216656 
L 193.621436 187.410801 
L 194.030676 187.255098 
L 194.439915 187.446131 
L 195.053774 187.865883 
L 195.463014 187.922344 
L 195.872253 187.643814 
L 196.895352 186.900485 
L 198.12307 186.124327 
L 198.53231 185.623964 
L 198.941549 184.656726 
L 200.373887 180.25029 
L 200.987746 179.270317 
L 202.010845 178.002804 
L 202.420085 177.102923 
L 203.238563 174.380073 
L 204.261662 169.920856 
L 205.284761 165.877618 
L 205.89862 163.929463 
L 206.512479 160.875255 
L 207.330958 155.7653 
L 207.944817 150.806521 
L 208.763296 141.744788 
L 210.195634 124.113809 
L 210.809493 112.44993 
L 211.627972 90.093184 
L 213.06031 49.062657 
L 213.46955 42.303361 
L 213.674169 40.713924 
L 213.878789 40.408979 
L 214.083409 41.30287 
L 214.492648 45.846283 
L 215.515747 63.212647 
L 216.334226 75.515612 
L 217.152705 84.334993 
L 217.971184 91.099902 
L 219.608142 102.117572 
L 221.449719 110.872851 
L 223.495916 118.550282 
L 224.723635 124.404367 
L 226.565212 136.046501 
L 227.179071 138.34691 
L 227.588311 139.704089 
L 230.043748 150.091116 
L 233.113044 158.924035 
L 233.522283 159.401993 
L 233.931522 159.269827 
L 234.340762 159.0029 
L 234.750001 159.050635 
L 235.159241 159.573498 
L 235.7731 160.518331 
L 235.97772 160.486397 
L 236.182339 160.187208 
L 236.591579 158.904695 
L 237.410058 155.85077 
L 238.023917 154.436186 
L 238.433156 153.860636 
L 239.047016 153.448147 
L 239.865495 153.051129 
L 241.502452 153.174805 
L 241.911692 153.343008 
L 242.730171 153.842193 
L 243.13941 153.698942 
L 243.54865 153.290415 
L 243.957889 152.638641 
L 244.367128 151.523766 
L 244.980988 148.870961 
L 245.390227 146.273815 
L 246.004086 140.393221 
L 247.027185 127.592251 
L 248.050284 111.222039 
L 249.073382 95.739869 
L 249.891861 86.29626 
L 250.50572 81.465732 
L 251.119579 78.0729 
L 251.528819 76.667562 
L 252.347298 74.667003 
L 252.756537 72.699604 
L 253.165777 69.460353 
L 253.779636 61.879948 
L 255.007354 44.632967 
L 255.416594 42.349304 
L 255.621213 42.07832 
L 255.825833 42.394066 
L 256.030453 43.287438 
L 256.439692 46.551358 
L 257.258171 55.886669 
L 258.28127 67.678232 
L 259.918228 82.482591 
L 260.532087 86.43036 
L 261.145946 88.936471 
L 262.373664 93.230127 
L 263.192143 95.749161 
L 263.806003 97.121152 
L 264.215242 97.634251 
L 264.829101 97.834906 
L 265.238341 97.954573 
L 265.64758 98.437343 
L 266.05682 99.421042 
L 266.466059 100.86138 
L 267.079918 104.042755 
L 267.898397 108.5465 
L 269.944594 117.708749 
L 270.763073 119.797889 
L 271.786172 122.510975 
L 272.400031 125.242457 
L 275.673947 141.061458 
L 276.492426 143.687848 
L 277.720144 149.497359 
L 278.743243 154.415526 
L 280.175581 159.133934 
L 280.58482 159.457605 
L 280.99406 159.286006 
L 281.403299 159.19148 
L 281.812538 159.494726 
L 282.221778 160.093625 
L 283.244877 161.971121 
L 283.858736 162.364601 
L 284.267975 162.742279 
L 284.881834 164.057809 
L 285.495694 165.074055 
L 287.132651 167.18645 
L 287.337271 167.321635 
L 287.746511 167.213006 
L 288.769609 166.826648 
L 289.383468 166.234542 
L 289.792708 165.709981 
L 290.201947 165.57923 
L 290.406567 165.53324 
L 290.611187 165.332868 
L 291.020426 164.367423 
L 292.248145 160.164708 
L 293.066623 157.584213 
L 293.475863 156.903099 
L 294.498962 155.970766 
L 295.112821 154.979662 
L 296.340539 152.805664 
L 298.182117 150.851992 
L 298.795976 149.545235 
L 299.409835 147.582789 
L 300.637553 142.834098 
L 301.251413 139.454709 
L 301.865272 134.84743 
L 302.479131 129.063909 
L 303.09299 120.80956 
L 305.753047 78.257093 
L 306.571525 70.944794 
L 306.980765 68.648489 
L 307.185385 68.181049 
L 307.390004 68.216519 
L 307.594624 68.718911 
L 308.003864 70.895078 
L 308.617723 76.060786 
L 309.640821 87.652779 
L 310.4593 96.174244 
L 311.277779 102.690952 
L 312.914737 113.701406 
L 314.347075 121.118702 
L 315.574793 127.551781 
L 316.393272 131.056166 
L 317.416371 134.807242 
L 320.076427 145.645908 
L 321.099526 150.881896 
L 322.327244 155.835676 
L 322.941104 157.134319 
L 323.554963 158.231837 
L 324.782681 161.473116 
L 325.60116 162.862889 
L 326.828878 164.937832 
L 327.238118 166.086103 
L 328.056597 168.822112 
L 328.465836 169.589167 
L 328.670456 169.744163 
L 329.488935 169.836943 
L 329.898174 170.497019 
L 330.307414 171.300535 
L 330.512033 171.516001 
L 330.716653 171.561566 
L 332.76285 170.946771 
L 332.96747 170.923045 
L 333.17209 170.777342 
L 333.990569 169.559121 
L 334.399808 169.587327 
L 335.013667 169.614874 
L 336.241386 169.619874 
L 336.650625 169.288137 
L 337.059865 168.887677 
L 337.264484 168.884516 
L 337.673724 169.313703 
L 338.082963 169.736569 
L 338.492203 169.763313 
L 338.901442 169.370022 
L 340.5384 166.994285 
L 340.94764 166.215769 
L 341.970738 163.816448 
L 342.789217 162.836758 
L 343.198457 162.685441 
L 343.812316 162.612754 
L 344.016935 162.426439 
L 344.426175 161.581603 
L 345.449274 158.832952 
L 345.858513 158.231412 
L 346.063133 158.166838 
L 346.676992 158.264572 
L 347.290851 157.923119 
L 347.700091 158.218912 
L 348.723189 159.504773 
L 349.132429 160.056551 
L 349.541668 160.281592 
L 350.564767 160.479417 
L 350.974006 160.113719 
L 351.587865 159.112803 
L 352.201725 157.645862 
L 352.815584 156.186185 
L 353.634063 155.142582 
L 353.838682 155.172534 
L 354.247922 155.746999 
L 354.657161 156.632446 
L 355.27102 158.743285 
L 355.88488 160.852001 
L 357.931077 164.882409 
L 358.135697 164.930002 
L 358.749556 164.556616 
L 359.568035 164.686094 
L 359.977274 164.607511 
L 360.386514 165.041603 
L 360.795753 165.400602 
L 361.614232 165.447488 
L 362.228091 165.980304 
L 362.432711 165.914786 
L 362.84195 165.229711 
L 363.455809 163.993707 
L 364.478908 162.451438 
L 364.888148 161.800465 
L 365.297387 161.62613 
L 365.706626 161.721977 
L 366.729725 162.450212 
L 367.138965 162.666998 
L 367.548204 163.200285 
L 368.366683 164.58737 
L 369.389782 165.682859 
L 369.799021 166.333124 
L 370.20826 166.536986 
L 371.026739 166.718868 
L 372.254458 166.647078 
L 372.663697 166.143648 
L 373.277556 165.09929 
L 373.482176 164.997123 
L 373.686796 165.125327 
L 374.096035 165.59555 
L 374.300655 165.592861 
L 374.709894 165.069621 
L 375.732993 163.595275 
L 376.960711 162.531341 
L 377.574571 162.437618 
L 378.18843 162.213331 
L 378.597669 161.685704 
L 379.416148 160.07872 
L 380.030007 159.591186 
L 380.439247 158.909884 
L 380.848486 157.85397 
L 382.076205 153.96035 
L 382.485444 153.327584 
L 383.713162 152.088137 
L 385.145501 150.378042 
L 385.55474 149.915744 
L 386.987078 147.126622 
L 387.396318 146.074811 
L 387.805557 144.320755 
L 388.828656 137.944609 
L 389.442515 133.59737 
L 390.056374 127.254242 
L 390.670233 118.033268 
L 391.488712 101.668009 
L 392.511811 81.694216 
L 392.92105 76.448841 
L 393.33029 73.618636 
L 393.534909 73.029218 
L 393.739529 72.876297 
L 393.944149 73.091197 
L 394.353388 74.479697 
L 395.171867 79.147352 
L 396.808825 88.563509 
L 397.218064 89.709563 
L 397.627304 90.198983 
L 398.036543 90.394025 
L 398.241163 90.359686 
L 398.445783 90.133938 
L 398.650402 89.639659 
L 399.059642 87.788955 
L 399.468881 84.840781 
L 400.082741 78.26898 
L 401.105839 63.627872 
L 402.538177 38.625019 
L 404.175135 6.817069 
L 404.584375 3.284289 
L 404.788994 3.00024 
L 404.993614 3.726541 
L 405.402853 7.766383 
L 406.016713 17.680593 
L 407.039811 34.454661 
L 407.85829 44.425001 
L 408.472149 49.412459 
L 409.086009 52.839394 
L 410.109107 57.084041 
L 410.722966 59.35813 
L 411.336826 62.671105 
L 413.178403 74.205978 
L 414.201502 78.014411 
L 414.815361 80.661414 
L 416.656938 90.543408 
L 417.270798 95.002059 
L 417.884657 99.204916 
L 420.135474 109.42374 
L 421.567812 117.194234 
L 422.590911 123.351377 
L 423.409389 127.454095 
L 424.637108 134.536684 
L 427.092545 144.818336 
L 428.320263 148.223715 
L 428.729502 149.48967 
L 430.16184 154.922352 
L 431.594179 157.497517 
L 432.003418 158.019484 
L 432.617277 159.304024 
L 433.231136 160.539698 
L 434.254235 161.963055 
L 434.868094 163.796543 
L 435.686573 166.232278 
L 436.505052 168.196186 
L 437.118911 169.702654 
L 438.14201 172.609933 
L 438.551249 173.039921 
L 438.960489 173.187842 
L 439.369728 173.057327 
L 439.778968 172.875539 
L 440.802066 173.033271 
L 441.211306 172.865209 
L 441.620545 172.487672 
L 442.439024 171.48336 
L 442.848263 171.577273 
L 443.257503 171.992733 
L 444.280602 173.393072 
L 444.485221 173.409534 
L 444.894461 173.086052 
L 445.50832 172.405835 
L 446.736038 171.463691 
L 448.372996 167.897279 
L 448.986855 165.586729 
L 450.009954 160.631346 
L 450.419193 158.050191 
L 452.056151 144.023688 
L 452.67001 138.21946 
L 453.28387 129.918603 
L 453.897729 117.588563 
L 455.739306 73.318502 
L 456.148546 69.089326 
L 456.353165 68.423589 
L 456.557785 68.575 
L 456.762405 69.387808 
L 457.376264 73.908156 
L 458.194743 79.334139 
L 458.808602 83.610437 
L 460.036321 93.528703 
L 460.854799 97.848208 
L 461.468659 99.86985 
L 461.673278 100.183898 
L 461.877898 100.254085 
L 462.082518 100.090552 
L 462.491757 99.132937 
L 462.900997 97.435908 
L 464.128715 90.676753 
L 465.151814 82.796403 
L 465.765673 76.441955 
L 466.993391 61.52642 
L 467.402631 59.574115 
L 467.60725 59.358224 
L 467.81187 59.688498 
L 468.01649 60.657434 
L 468.425729 64.499687 
L 469.244208 76.11385 
L 470.471927 93.156119 
L 471.290406 101.522022 
L 472.722744 114.110545 
L 473.336603 117.600497 
L 476.201279 130.473022 
L 477.019758 133.776186 
L 480.498293 149.83084 
L 481.112152 152.08125 
L 482.54449 159.214498 
L 484.999927 164.625812 
L 485.409167 165.435035 
L 485.818406 166.948815 
L 486.841505 171.122521 
L 487.250744 172.153483 
L 487.659984 172.542765 
L 488.069223 172.59399 
L 488.683082 172.460456 
L 489.092322 172.357251 
L 489.501561 172.590877 
L 490.11542 173.575709 
L 491.138519 175.528014 
L 491.752378 176.683407 
L 492.161618 176.955522 
L 492.570857 177.261834 
L 493.593956 178.899336 
L 494.003195 179.098293 
L 494.412435 179.077775 
L 494.821674 178.969853 
L 495.230914 179.169518 
L 496.458632 180.352693 
L 496.867871 180.544857 
L 497.68635 181.132907 
L 498.09559 180.880744 
L 498.504829 180.742918 
L 499.527928 181.214084 
L 500.551026 181.250451 
L 500.960266 181.06923 
L 501.369505 181.191349 
L 502.597224 182.292734 
L 503.620322 183.704535 
L 504.029562 183.719252 
L 504.848041 183.503314 
L 505.4619 183.565624 
L 506.075759 183.801561 
L 507.098858 184.818608 
L 507.712717 185.523589 
L 508.326576 185.748536 
L 508.940435 186.043103 
L 509.554294 186.316256 
L 510.168154 186.622191 
L 510.782013 186.878599 
L 511.191252 186.717047 
L 512.009731 185.807308 
L 512.214351 185.795657 
L 512.62359 186.079045 
L 513.03283 186.338519 
L 513.646689 186.419225 
L 514.260548 186.148383 
L 514.874407 185.769997 
L 515.488266 185.20605 
L 515.692886 185.14393 
L 515.897506 185.229682 
L 516.511365 186.10112 
L 516.920605 186.532005 
L 517.329844 186.511769 
L 517.739083 186.449271 
L 518.352943 186.884589 
L 518.762182 187.06383 
L 519.580661 187.02685 
L 520.60376 187.694662 
L 521.422239 188.177856 
L 521.626858 188.115924 
L 522.240717 187.621503 
L 522.445337 187.654946 
L 523.263816 188.226251 
L 523.673056 188.084934 
L 524.286915 187.692303 
L 524.696154 187.55759 
L 525.310013 187.136422 
L 525.514633 187.146092 
L 526.537732 187.805885 
L 527.151591 187.744754 
L 528.17469 188.438368 
L 528.583929 188.10182 
L 529.197788 187.392453 
L 529.402408 187.290522 
L 529.607028 187.316747 
L 530.630126 188.002955 
L 531.039366 187.797159 
L 531.448605 187.48179 
L 531.653225 187.446602 
L 532.062464 187.722114 
L 532.676324 188.60874 
L 533.494802 190.158651 
L 533.699422 190.23096 
L 534.108662 189.889554 
L 534.517901 189.588949 
L 534.927141 189.3907 
L 535.541 188.771802 
L 535.950239 188.760812 
L 536.564098 188.74468 
L 537.177958 188.427283 
L 537.587197 188.238515 
L 537.996436 188.308796 
L 538.405676 188.540535 
L 538.610296 188.538412 
L 539.019535 188.200638 
L 539.428775 187.911307 
L 540.042634 187.928853 
L 540.656493 188.170356 
L 541.270352 188.439169 
L 541.679592 188.384501 
L 542.49807 188.003144 
L 543.11193 188.104839 
L 543.725789 188.391671 
L 544.135028 189.033681 
L 544.544268 189.703569 
L 544.748887 189.83531 
L 544.953507 189.812056 
L 545.362747 189.313108 
L 545.976606 188.220591 
L 546.385845 187.852346 
L 546.795085 187.683058 
L 547.204324 187.771122 
L 547.613564 187.918146 
L 548.227423 187.820979 
L 548.432043 187.806215 
L 548.841282 188.114131 
L 549.250521 188.434924 
L 549.455141 188.374737 
L 550.069 187.765603 
L 550.27362 187.740887 
L 550.68286 188.025643 
L 551.296719 188.470914 
L 551.501338 188.461952 
L 551.910578 188.098377 
L 552.524437 187.331936 
L 552.729057 187.333303 
L 553.138296 187.694473 
L 554.161395 188.954957 
L 555.389113 188.503224 
L 555.798353 188.291626 
L 556.207592 188.381152 
L 557.026071 188.787698 
L 557.43531 188.786377 
L 557.84455 188.554261 
L 558.867649 187.563722 
L 559.481508 186.810582 
L 559.686127 186.76997 
L 560.095367 187.058971 
L 560.913846 187.853148 
L 561.732325 188.876091 
L 562.141564 189.016088 
L 562.550804 188.905949 
L 564.187761 187.483535 
L 564.597001 187.084631 
L 565.21086 186.934258 
L 566.233959 187.106046 
L 566.847818 186.994445 
L 567.461677 187.299106 
L 568.075536 187.547732 
L 568.689395 187.726925 
L 569.098635 187.560184 
L 569.507874 187.433442 
L 569.712494 187.561269 
L 570.530973 188.686191 
L 570.735593 188.700106 
L 571.144832 188.322758 
L 571.554072 187.951494 
L 572.78179 187.477686 
L 574.009508 186.757565 
L 574.827987 185.862825 
L 575.237227 185.82693 
L 575.646466 186.095649 
L 576.669565 187.135573 
L 577.078804 187.039727 
L 577.488044 186.901051 
L 577.692663 187.004539 
L 578.101903 187.627163 
L 578.715762 188.770009 
L 579.329621 189.385087 
L 579.534241 189.455085 
L 579.738861 189.379332 
L 580.35272 188.600816 
L 580.761959 188.191629 
L 581.375819 188.006162 
L 581.989678 188.285306 
L 582.603537 188.598741 
L 583.422016 189.731021 
L 583.626636 189.65791 
L 584.035875 188.932505 
L 584.649734 187.740179 
L 585.263593 186.923645 
L 585.672833 186.727943 
L 586.286692 186.871382 
L 586.695931 187.28406 
L 587.309791 188.076915 
L 587.51441 188.056303 
L 588.12827 187.469338 
L 589.355988 186.053197 
L 589.969847 186.024943 
L 590.583706 186.318992 
L 592.016044 187.193213 
L 592.220664 187.136564 
L 594.062242 185.335717 
L 594.471481 184.956953 
L 594.676101 185.019122 
L 595.08534 185.603209 
L 595.49458 186.267672 
L 595.903819 186.48894 
L 596.313059 186.374745 
L 597.950016 185.309114 
L 599.586974 185.58821 
L 599.996214 185.840278 
L 601.019312 186.952512 
L 601.837791 187.148167 
L 602.247031 187.466272 
L 602.45165 187.497073 
L 602.86089 187.138922 
L 603.474749 186.559127 
L 604.088608 185.951124 
L 604.702467 185.308548 
L 605.111707 185.171099 
L 605.520946 185.407083 
L 606.339425 186.30102 
L 606.544045 186.348236 
L 606.748665 186.248333 
L 607.976383 184.820825 
L 608.999482 184.429515 
L 609.613341 184.381733 
L 610.43182 184.463099 
L 610.841059 184.32598 
L 611.454918 183.794155 
L 611.659538 183.857267 
L 612.478017 184.898795 
L 612.887256 184.564842 
L 613.296496 184.189097 
L 614.114975 183.955094 
L 614.524214 183.757222 
L 615.138073 183.152758 
L 615.342693 183.08691 
L 615.547313 183.170587 
L 615.956552 183.821796 
L 616.570412 185.026904 
L 616.979651 185.253643 
L 617.38889 185.325575 
L 618.411989 185.903484 
L 619.435088 185.949096 
L 619.844327 186.153006 
L 620.048947 186.140317 
L 620.662806 185.626228 
L 621.072046 185.336141 
L 621.481285 185.366612 
L 621.890524 185.610898 
L 622.095144 185.592927 
L 622.299764 185.391659 
L 622.913623 184.029668 
L 623.527482 182.96248 
L 624.345961 182.341648 
L 624.755201 182.339808 
L 625.982919 183.028469 
L 626.596778 182.906208 
L 627.210637 182.442541 
L 627.824497 181.912792 
L 628.847595 181.576339 
L 629.052215 181.6661 
L 630.075313 182.674092 
L 630.689173 182.535558 
L 631.098412 182.953329 
L 631.712271 183.756986 
L 632.121511 183.941415 
L 632.53075 183.869766 
L 632.93999 183.447089 
L 633.758469 182.282546 
L 634.167708 182.216698 
L 634.576947 182.321979 
L 635.190807 182.775315 
L 635.804666 183.198888 
L 636.213905 183.160493 
L 636.827764 182.803946 
L 637.646243 181.959111 
L 638.669342 181.037155 
L 639.283201 180.655892 
L 639.89706 180.3101 
L 640.3063 180.029305 
L 640.51092 180.067229 
L 641.534018 180.958195 
L 641.943258 180.68292 
L 642.557117 179.952987 
L 642.966356 179.856056 
L 643.580215 179.962892 
L 644.398694 179.970203 
L 645.012554 180.224206 
L 645.831032 180.203121 
L 646.854131 180.03822 
L 647.46799 180.128265 
L 647.87723 179.752851 
L 648.695709 178.699908 
L 649.309568 178.446566 
L 649.923427 178.243505 
L 650.332666 178.470292 
L 651.355765 179.528612 
L 652.583483 180.513726 
L 652.788103 180.326892 
L 654.015822 178.135442 
L 654.425061 177.905307 
L 654.8343 177.947664 
L 655.857399 178.710285 
L 656.675878 178.941222 
L 657.085117 179.023107 
L 657.494357 178.771415 
L 658.108216 178.269495 
L 658.517456 178.260109 
L 659.335934 178.523781 
L 659.745174 178.226902 
L 660.154413 177.808706 
L 660.563653 177.744557 
L 661.177512 177.863091 
L 661.995991 177.717907 
L 662.40523 177.403811 
L 663.223709 176.403037 
L 663.632949 176.406575 
L 664.246808 176.824723 
L 664.656047 177.430556 
L 665.269907 178.46515 
L 665.679146 178.779764 
L 665.883766 178.710379 
L 666.293005 178.101151 
L 666.702245 177.454093 
L 667.111484 177.186836 
L 667.520723 176.94722 
L 668.748442 175.542636 
L 669.157681 175.507967 
L 670.18078 176.111818 
L 670.590019 176.128422 
L 671.817738 176.606758 
L 672.431597 176.106677 
L 672.840836 176.332473 
L 673.250076 176.536712 
L 673.659315 176.209929 
L 674.273174 175.766969 
L 675.705513 174.951379 
L 676.114752 175.074017 
L 676.728611 175.473959 
L 677.137851 175.38764 
L 678.365569 174.376347 
L 678.979428 174.233898 
L 679.388668 174.201163 
L 679.593287 174.051356 
L 680.002527 173.363828 
L 681.434865 170.334477 
L 681.844104 170.193632 
L 682.253344 170.429427 
L 683.071823 171.234546 
L 683.685682 171.298177 
L 684.094921 171.156718 
L 684.504161 170.983987 
L 684.9134 171.027146 
L 685.11802 170.938753 
L 685.731879 170.179339 
L 686.345738 169.234648 
L 686.959598 168.246232 
L 687.368837 167.904166 
L 688.187316 167.724737 
L 690.233513 164.5369 
L 690.642753 164.358791 
L 691.256612 164.440817 
L 691.665851 164.065686 
L 692.075091 163.798194 
L 692.48433 164.020687 
L 693.507429 164.975661 
L 693.712049 165.006745 
L 693.916668 164.921182 
L 694.325908 164.419356 
L 695.144387 163.346178 
L 695.553626 163.166135 
L 696.781344 163.174814 
L 697.395204 163.654896 
L 697.804443 163.65716 
L 698.213683 163.309952 
L 698.622922 162.511531 
L 699.441401 160.735494 
L 700.4645 158.693381 
L 700.669119 158.684088 
L 701.282978 159.069172 
L 701.692218 158.925072 
L 702.715317 158.246176 
L 703.533795 157.858686 
L 703.943035 157.910855 
L 705.784612 158.75352 
L 706.603091 158.754888 
L 707.012331 158.877149 
L 707.42157 158.662768 
L 708.035429 158.147311 
L 708.853908 157.655532 
L 709.263148 157.199837 
L 710.081627 156.135668 
L 710.490866 155.806243 
L 710.695486 155.7828 
L 710.900106 155.955531 
L 711.718584 157.241439 
L 711.923204 157.231722 
L 712.332444 156.731217 
L 712.741683 156.314766 
L 712.946303 156.326983 
L 713.969401 156.902722 
L 715.40174 155.846855 
L 716.220218 155.746197 
L 716.834078 155.361632 
L 717.038697 155.374085 
L 717.447937 155.795488 
L 717.857176 156.232033 
L 718.266416 156.275475 
L 718.880275 156.252834 
L 720.517233 156.83513 
L 721.131092 156.483252 
L 721.744951 156.191562 
L 722.972669 156.264862 
L 723.586529 155.979351 
L 723.995768 155.974964 
L 724.405008 155.663699 
L 725.223486 154.58538 
L 725.632726 154.465855 
L 726.041965 154.635473 
L 726.451205 155.252862 
L 726.860444 156.003879 
L 727.065064 156.133262 
L 727.269684 155.997228 
L 728.497402 154.085394 
L 729.111261 153.665782 
L 729.92974 153.269473 
L 730.33898 153.421261 
L 731.362078 154.14426 
L 731.771318 153.819646 
L 732.385177 152.958773 
L 733.408276 151.086608 
L 733.817515 150.746759 
L 734.226754 150.799635 
L 734.840614 151.112739 
L 735.249853 151.229104 
L 736.068332 151.763052 
L 736.477571 151.647158 
L 737.29605 151.142974 
L 737.70529 150.532283 
L 738.728388 148.390833 
L 740.160727 146.672248 
L 740.569966 146.429283 
L 740.979205 146.441075 
L 741.797684 146.606023 
L 742.616163 146.684747 
L 743.639262 146.294616 
L 744.253121 146.150422 
L 744.66236 145.755858 
L 745.27622 144.988897 
L 746.094699 144.336793 
L 746.503938 143.600917 
L 747.527037 141.184332 
L 747.936276 141.033723 
L 749.163994 141.361969 
L 749.573234 140.955093 
L 751.210192 138.125076 
L 752.23329 137.776406 
L 752.64253 137.897063 
L 753.051769 138.025692 
L 753.256389 137.942251 
L 753.665628 137.325475 
L 754.279488 136.178526 
L 755.507206 134.582201 
L 756.325685 134.214145 
L 756.939544 133.414639 
L 757.348784 132.893191 
L 757.758023 132.718149 
L 758.371882 132.874843 
L 758.781122 132.491645 
L 759.599601 131.52837 
L 760.418079 131.293801 
L 761.645798 129.507388 
L 762.259657 128.396663 
L 763.078136 126.829725 
L 763.282756 126.700248 
L 763.487375 126.770623 
L 764.510474 127.983561 
L 764.715094 127.85432 
L 765.124333 127.11151 
L 765.533573 126.254835 
L 765.942812 125.876874 
L 766.352052 125.656738 
L 767.17053 124.961097 
L 767.78439 124.973974 
L 768.193629 125.140054 
L 768.602869 125.436697 
L 768.807488 125.43948 
L 769.421347 124.888127 
L 770.035207 124.477667 
L 771.876784 123.702594 
L 772.695263 123.723018 
L 772.899883 123.493684 
L 773.309122 122.504136 
L 775.1507 117.182301 
L 775.764559 116.289306 
L 776.378418 115.670927 
L 776.787658 115.27523 
L 777.810756 113.568956 
L 778.629235 113.139581 
L 779.038475 112.684028 
L 779.652334 111.410855 
L 780.470813 109.55817 
L 780.880052 109.135823 
L 781.698531 108.684279 
L 782.51701 107.770294 
L 783.130869 106.635939 
L 783.744728 105.562761 
L 784.153968 105.444368 
L 784.358587 105.415642 
L 784.767827 104.982305 
L 785.381686 103.655596 
L 785.995545 101.539144 
L 786.609404 99.444532 
L 787.018644 98.933744 
L 787.632503 98.563896 
L 788.246362 97.787313 
L 790.29256 94.570326 
L 790.906419 94.049019 
L 791.315658 93.529411 
L 791.724898 92.651463 
L 792.952616 89.053449 
L 794.384954 86.967562 
L 796.021912 83.385302 
L 797.045011 79.783797 
L 797.65887 77.639327 
L 798.477349 75.429105 
L 799.091208 73.922967 
L 800.114306 70.634849 
L 801.137405 68.395335 
L 802.160504 67.076315 
L 802.569743 65.790312 
L 803.388222 62.889779 
L 804.82056 59.471004 
L 805.434419 58.323819 
L 805.843659 56.925178 
L 806.866757 52.78614 
L 807.889856 49.877211 
L 808.708335 48.363243 
L 809.526814 47.109315 
L 809.936053 46.556735 
L 810.345293 45.61912 
L 811.163772 42.632739 
L 812.39149 38.542049 
L 813.823828 34.754512 
L 814.437687 32.129867 
L 815.460786 27.488107 
L 816.483885 22.7755 
L 818.120842 15.81404 
L 818.939321 13.411842 
L 820.371659 7.507145 
L 821.599378 1.95857 
L 822.556208 -1 
M 998.337524 -1 
L 998.800061 2.430397 
L 1000.437019 12.05353 
L 1000.846258 13.671787 
L 1001.460118 15.071607 
L 1001.869357 16.14804 
L 1002.687836 19.089752 
L 1003.097075 21.735104 
L 1004.120174 31.427433 
L 1005.552512 44.004871 
L 1006.370991 50.085177 
L 1008.007949 59.74977 
L 1008.826428 63.315286 
L 1010.258766 68.699572 
L 1010.668005 69.371677 
L 1011.077245 69.434128 
L 1011.486484 69.429505 
L 1011.895724 69.635726 
L 1012.304963 70.135193 
L 1012.714203 71.274077 
L 1013.737301 75.903384 
L 1014.55578 80.396941 
L 1015.374259 84.235798 
L 1015.988118 86.225177 
L 1016.806597 88.241914 
L 1017.420456 90.743119 
L 1018.852794 97.325769 
L 1019.466654 99.179681 
L 1019.875893 99.923057 
L 1020.694372 100.952274 
L 1021.717471 103.463337 
L 1022.945189 107.221064 
L 1023.354428 108.756588 
L 1024.786766 115.553477 
L 1025.809865 117.903602 
L 1027.037583 120.99097 
L 1027.651443 122.201644 
L 1028.060682 123.151241 
L 1028.879161 125.537874 
L 1033.176175 133.500769 
L 1033.994654 135.928202 
L 1034.403894 137.038549 
L 1036.245471 140.083183 
L 1037.06395 140.83519 
L 1037.677809 141.546492 
L 1038.291668 141.960867 
L 1039.314767 142.141758 
L 1039.724007 142.591605 
L 1040.747105 144.344575 
L 1041.156345 144.913569 
L 1041.565584 144.9797 
L 1041.974824 144.983662 
L 1042.588683 145.266956 
L 1042.997922 145.997643 
L 1043.816401 148.235554 
L 1044.021021 148.38555 
L 1044.63488 148.397955 
L 1045.248739 148.949544 
L 1046.885697 150.688553 
L 1047.908796 151.22401 
L 1048.522655 151.086702 
L 1048.727275 151.227689 
L 1049.750373 152.654489 
L 1050.159613 152.720006 
L 1050.773472 152.751987 
L 1051.182711 153.017451 
L 1051.591951 153.467061 
L 1053.024289 155.731198 
L 1053.842768 158.03887 
L 1054.047387 158.216507 
L 1055.070486 158.287118 
L 1055.888965 158.697956 
L 1056.502824 158.521593 
L 1056.912064 158.812528 
L 1057.730542 159.642977 
L 1059.3675 160.394655 
L 1059.77674 160.446163 
L 1060.390599 160.427484 
L 1060.799838 160.882519 
L 1061.618317 162.299225 
L 1062.232176 163.616406 
L 1062.641416 163.990358 
L 1063.050655 164.05696 
L 1064.073754 163.935407 
L 1064.482993 164.309453 
L 1065.710712 165.973275 
L 1068.166149 168.244015 
L 1068.780008 169.159792 
L 1069.189247 169.288751 
L 1070.416966 169.109463 
L 1071.030825 168.958241 
L 1071.440064 169.126161 
L 1072.258543 169.696711 
L 1072.872402 170.35042 
L 1073.281642 170.473624 
L 1074.50936 169.903073 
L 1076.146318 170.149482 
L 1076.964797 170.499755 
L 1077.374036 170.564706 
L 1077.783276 170.947337 
L 1078.192515 171.384071 
L 1078.601755 171.476238 
L 1079.010994 171.564019 
L 1080.034093 172.251311 
L 1080.647952 173.074496 
L 1081.057191 173.23751 
L 1081.87567 173.219869 
L 1082.694149 173.674008 
L 1083.103389 173.457976 
L 1083.512628 173.317037 
L 1083.921868 173.52222 
L 1084.331107 173.93551 
L 1084.740346 174.631199 
L 1085.763445 176.663596 
L 1086.172685 176.735056 
L 1086.991163 176.472846 
L 1087.400403 176.082668 
L 1088.423502 174.81525 
L 1088.832741 174.568512 
L 1089.24198 174.60285 
L 1090.469699 174.934209 
L 1091.083558 174.977133 
L 1092.925135 176.223561 
L 1093.743614 177.085896 
L 1094.562093 177.415981 
L 1095.175952 177.838422 
L 1095.994431 177.933891 
L 1096.608291 177.596023 
L 1097.631389 176.93472 
L 1098.040629 176.98604 
L 1098.654488 177.310842 
L 1099.063727 177.177214 
L 1100.700685 176.083423 
L 1101.109925 176.302332 
L 1102.951502 177.653191 
L 1103.974601 177.536732 
L 1104.38384 177.418151 
L 1105.202319 177.626824 
L 1106.225418 177.103301 
L 1107.043897 176.977172 
L 1107.453136 176.846845 
L 1108.066995 176.773027 
L 1108.476235 176.287474 
L 1109.090094 174.797939 
L 1109.499333 173.926312 
L 1110.727052 172.255792 
L 1111.340911 172.513521 
L 1111.75015 172.628612 
L 1112.36401 172.399892 
L 1112.773249 172.031128 
L 1113.387108 170.810643 
L 1114.614827 167.970391 
L 1115.433305 166.814384 
L 1116.047165 165.413102 
L 1117.274883 162.02744 
L 1117.684122 161.172605 
L 1118.093362 159.739059 
L 1118.707221 156.432169 
L 1119.73032 149.486369 
L 1120.344179 144.310237 
L 1120.958038 136.80714 
L 1121.776517 122.121175 
L 1122.594996 108.097833 
L 1123.004235 104.30454 
L 1123.208855 103.596871 
L 1123.413475 103.715736 
L 1123.618095 104.629531 
L 1124.027334 108.467209 
L 1125.459672 125.736312 
L 1126.073531 130.045345 
L 1127.710489 138.338372 
L 1128.733588 142.314301 
L 1130.984405 149.359344 
L 1132.007503 151.768995 
L 1132.621362 153.122165 
L 1133.235222 154.053555 
L 1134.66756 157.693172 
L 1135.281419 159.655713 
L 1136.304518 163.089439 
L 1137.327616 166.534062 
L 1137.941475 168.792208 
L 1138.555335 169.993495 
L 1139.783053 171.938584 
L 1140.396912 172.897095 
L 1140.806152 173.146003 
L 1141.62463 173.092514 
L 1142.03387 173.979518 
L 1142.852349 176.024557 
L 1143.466208 177.075613 
L 1143.875447 177.285749 
L 1144.693926 177.45098 
L 1145.921645 178.053982 
L 1146.330884 178.465009 
L 1146.944743 179.309372 
L 1147.763222 179.994495 
L 1148.377081 180.889706 
L 1148.990941 181.87751 
L 1149.40018 181.985148 
L 1150.218659 181.796238 
L 1151.446377 182.26731 
L 1151.855617 182.231132 
L 1152.060237 182.33594 
L 1152.469476 182.895925 
L 1153.492575 184.611633 
L 1154.311054 185.091761 
L 1154.515673 185.102751 
L 1154.924913 184.802241 
L 1155.538772 184.236313 
L 1155.948011 184.24353 
L 1156.357251 184.314471 
L 1156.97111 184.214427 
L 1157.789589 184.683376 
L 1159.017307 184.429987 
L 1159.426547 183.932359 
L 1159.631166 183.881606 
L 1159.835786 184.038913 
L 1160.654265 185.343735 
L 1161.063505 185.411611 
L 1161.881983 185.326802 
L 1162.086603 185.435148 
L 1162.905082 186.56257 
L 1163.109702 186.542004 
L 1163.518941 186.051452 
L 1164.74666 184.008866 
L 1165.155899 184.151032 
L 1166.588237 185.468307 
L 1166.997477 185.956171 
L 1167.202096 185.923201 
L 1167.815956 185.180202 
L 1168.020575 185.272181 
L 1169.043674 186.935013 
L 1169.862153 186.900108 
L 1170.476012 187.312361 
L 1170.885251 187.064726 
L 1171.294491 186.773791 
L 1172.317589 186.671057 
L 1172.522209 186.79379 
L 1173.340688 187.984701 
L 1173.545308 187.918335 
L 1173.954547 187.451602 
L 1174.977646 186.025179 
L 1175.386885 185.865514 
L 1176.409984 186.309039 
L 1176.819223 186.2314 
L 1177.228463 186.394508 
L 1177.842322 186.844449 
L 1178.251562 186.878882 
L 1178.660801 186.861477 
L 1179.07004 187.094253 
L 1180.093139 187.857723 
L 1181.525477 188.108424 
L 1181.934717 187.613768 
L 1182.548576 186.532901 
L 1182.957815 186.198806 
L 1183.367055 186.312718 
L 1184.799393 187.334341 
L 1184.799393 187.334341 
" clip-path="url(#pa31af6ff1c)" style="fill: none; stroke: #000000; stroke-width: 2; stroke-linecap: square"/>
   </g>
   <g id="patch_3">
    <path d="M 3.00024 198.907885 
L 1184.99976 198.907885 
" style="fill: none; stroke: #000000; stroke-width: 2; stroke-linejoin: miter; stroke-linecap: square"/>
   </g>
  </g>
 </g>
 <defs>
  <clipPath id="pa31af6ff1c">
   <rect x="3.00024" y="3.00024" width="1181.99952" height="195.907645"/>
  </clipPath>
 </defs>
</svg>
