<?xml version="1.0" encoding="utf-8" standalone="no"?>
<!DOCTYPE svg PUBLIC "-//W3C//DTD SVG 1.1//EN"
  "http://www.w3.org/Graphics/SVG/1.1/DTD/svg11.dtd">
<svg xmlns:xlink="http://www.w3.org/1999/xlink" width="1188pt" height="252pt" viewBox="0 0 1188 252" xmlns="http://www.w3.org/2000/svg" version="1.1">
 <metadata>
  <rdf:RDF xmlns:dc="http://purl.org/dc/elements/1.1/" xmlns:cc="http://creativecommons.org/ns#" xmlns:rdf="http://www.w3.org/1999/02/22-rdf-syntax-ns#">
   <cc:Work>
    <dc:type rdf:resource="http://purl.org/dc/dcmitype/StillImage"/>
    <dc:date>2024-07-23T21:43:25.086452</dc:date>
    <dc:format>image/svg+xml</dc:format>
    <dc:creator>
     <cc:Agent>
      <dc:title>Matplotlib v3.8.4, https://matplotlib.org/</dc:title>
     </cc:Agent>
    </dc:creator>
   </cc:Work>
  </rdf:RDF>
 </metadata>
 <defs>
  <style type="text/css">*{stroke-linejoin: round; stroke-linecap: butt}</style>
 </defs>
 <g id="figure_1">
  <g id="patch_1">
   <path d="M 0 252 
L 1188 252 
L 1188 0 
L 0 0 
z
" style="fill: #ffffff"/>
  </g>
  <g id="axes_1">
   <g id="patch_2">
    <path d="M 3.00024 198.907885 
L 1184.99976 198.907885 
L 1184.99976 3.00024 
L 3.00024 3.00024 
z
" style="fill: #ffffff"/>
   </g>
   <g id="matplotlib.axis_1">
    <g id="xtick_1">
     <g id="line2d_1">
      <defs>
       <path id="mfdac1ca05c" d="M 0 0 
L 0 8 
" style="stroke: #000000; stroke-width: 2"/>
      </defs>
      <g>
       <use xlink:href="#mfdac1ca05c" x="1131.272509" y="198.907885" style="stroke: #000000; stroke-width: 2"/>
      </g>
     </g>
     <g id="text_1">
      <!-- 0 -->
      <g transform="translate(1126.267665 224.791947) scale(0.18 -0.18)">
       <defs>
        <path id="Arial-BoldMT-30" d="M 1756 4600 
Q 2422 4600 2797 4125 
Q 3244 3563 3244 2259 
Q 3244 959 2794 391 
Q 2422 -78 1756 -78 
Q 1088 -78 678 436 
Q 269 950 269 2269 
Q 269 3563 719 4131 
Q 1091 4600 1756 4600 
z
M 1756 3872 
Q 1597 3872 1472 3770 
Q 1347 3669 1278 3406 
Q 1188 3066 1188 2259 
Q 1188 1453 1269 1151 
Q 1350 850 1473 750 
Q 1597 650 1756 650 
Q 1916 650 2041 751 
Q 2166 853 2234 1116 
Q 2325 1453 2325 2259 
Q 2325 3066 2244 3367 
Q 2163 3669 2039 3770 
Q 1916 3872 1756 3872 
z
" transform="scale(0.015625)"/>
       </defs>
       <use xlink:href="#Arial-BoldMT-30"/>
      </g>
     </g>
    </g>
    <g id="xtick_2">
     <g id="line2d_2">
      <g>
       <use xlink:href="#mfdac1ca05c" x="1023.818007" y="198.907885" style="stroke: #000000; stroke-width: 2"/>
      </g>
     </g>
     <g id="text_2">
      <!-- 1 -->
      <g transform="translate(1018.813164 224.791947) scale(0.18 -0.18)">
       <defs>
        <path id="Arial-BoldMT-31" d="M 2519 0 
L 1641 0 
L 1641 3309 
Q 1159 2859 506 2644 
L 506 3441 
Q 850 3553 1253 3867 
Q 1656 4181 1806 4600 
L 2519 4600 
L 2519 0 
z
" transform="scale(0.015625)"/>
       </defs>
       <use xlink:href="#Arial-BoldMT-31"/>
      </g>
     </g>
    </g>
    <g id="xtick_3">
     <g id="line2d_3">
      <g>
       <use xlink:href="#mfdac1ca05c" x="916.363505" y="198.907885" style="stroke: #000000; stroke-width: 2"/>
      </g>
     </g>
     <g id="text_3">
      <!-- 2 -->
      <g transform="translate(911.358662 224.791947) scale(0.18 -0.18)">
       <defs>
        <path id="Arial-BoldMT-32" d="M 3238 816 
L 3238 0 
L 159 0 
Q 209 463 459 877 
Q 709 1291 1447 1975 
Q 2041 2528 2175 2725 
Q 2356 2997 2356 3263 
Q 2356 3556 2198 3714 
Q 2041 3872 1763 3872 
Q 1488 3872 1325 3706 
Q 1163 3541 1138 3156 
L 263 3244 
Q 341 3969 753 4284 
Q 1166 4600 1784 4600 
Q 2463 4600 2850 4234 
Q 3238 3869 3238 3325 
Q 3238 3016 3127 2736 
Q 3016 2456 2775 2150 
Q 2616 1947 2200 1565 
Q 1784 1184 1673 1059 
Q 1563 934 1494 816 
L 3238 816 
z
" transform="scale(0.015625)"/>
       </defs>
       <use xlink:href="#Arial-BoldMT-32"/>
      </g>
     </g>
    </g>
    <g id="xtick_4">
     <g id="line2d_4">
      <g>
       <use xlink:href="#mfdac1ca05c" x="808.909004" y="198.907885" style="stroke: #000000; stroke-width: 2"/>
      </g>
     </g>
     <g id="text_4">
      <!-- 3 -->
      <g transform="translate(803.90416 224.791947) scale(0.18 -0.18)">
       <defs>
        <path id="Arial-BoldMT-33" d="M 241 1216 
L 1091 1319 
Q 1131 994 1309 822 
Q 1488 650 1741 650 
Q 2013 650 2198 856 
Q 2384 1063 2384 1413 
Q 2384 1744 2206 1937 
Q 2028 2131 1772 2131 
Q 1603 2131 1369 2066 
L 1466 2781 
Q 1822 2772 2009 2936 
Q 2197 3100 2197 3372 
Q 2197 3603 2059 3740 
Q 1922 3878 1694 3878 
Q 1469 3878 1309 3722 
Q 1150 3566 1116 3266 
L 306 3403 
Q 391 3819 561 4067 
Q 731 4316 1036 4458 
Q 1341 4600 1719 4600 
Q 2366 4600 2756 4188 
Q 3078 3850 3078 3425 
Q 3078 2822 2419 2463 
Q 2813 2378 3048 2084 
Q 3284 1791 3284 1375 
Q 3284 772 2843 347 
Q 2403 -78 1747 -78 
Q 1125 -78 715 280 
Q 306 638 241 1216 
z
" transform="scale(0.015625)"/>
       </defs>
       <use xlink:href="#Arial-BoldMT-33"/>
      </g>
     </g>
    </g>
    <g id="xtick_5">
     <g id="line2d_5">
      <g>
       <use xlink:href="#mfdac1ca05c" x="701.454502" y="198.907885" style="stroke: #000000; stroke-width: 2"/>
      </g>
     </g>
     <g id="text_5">
      <!-- 4 -->
      <g transform="translate(696.449658 224.791947) scale(0.18 -0.18)">
       <defs>
        <path id="Arial-BoldMT-34" d="M 1994 0 
L 1994 922 
L 119 922 
L 119 1691 
L 2106 4600 
L 2844 4600 
L 2844 1694 
L 3413 1694 
L 3413 922 
L 2844 922 
L 2844 0 
L 1994 0 
z
M 1994 1694 
L 1994 3259 
L 941 1694 
L 1994 1694 
z
" transform="scale(0.015625)"/>
       </defs>
       <use xlink:href="#Arial-BoldMT-34"/>
      </g>
     </g>
    </g>
    <g id="xtick_6">
     <g id="line2d_6">
      <g>
       <use xlink:href="#mfdac1ca05c" x="594" y="198.907885" style="stroke: #000000; stroke-width: 2"/>
      </g>
     </g>
     <g id="text_6">
      <!-- 5 -->
      <g transform="translate(588.995156 224.791947) scale(0.18 -0.18)">
       <defs>
        <path id="Arial-BoldMT-35" d="M 284 1178 
L 1159 1269 
Q 1197 972 1381 798 
Q 1566 625 1806 625 
Q 2081 625 2272 848 
Q 2463 1072 2463 1522 
Q 2463 1944 2273 2155 
Q 2084 2366 1781 2366 
Q 1403 2366 1103 2031 
L 391 2134 
L 841 4519 
L 3163 4519 
L 3163 3697 
L 1506 3697 
L 1369 2919 
Q 1663 3066 1969 3066 
Q 2553 3066 2959 2641 
Q 3366 2216 3366 1538 
Q 3366 972 3038 528 
Q 2591 -78 1797 -78 
Q 1163 -78 763 262 
Q 363 603 284 1178 
z
" transform="scale(0.015625)"/>
       </defs>
       <use xlink:href="#Arial-BoldMT-35"/>
      </g>
     </g>
    </g>
    <g id="xtick_7">
     <g id="line2d_7">
      <g>
       <use xlink:href="#mfdac1ca05c" x="486.545498" y="198.907885" style="stroke: #000000; stroke-width: 2"/>
      </g>
     </g>
     <g id="text_7">
      <!-- 6 -->
      <g transform="translate(481.540654 224.791947) scale(0.18 -0.18)">
       <defs>
        <path id="Arial-BoldMT-36" d="M 3247 3459 
L 2397 3366 
Q 2366 3628 2234 3753 
Q 2103 3878 1894 3878 
Q 1616 3878 1423 3628 
Q 1231 3378 1181 2588 
Q 1509 2975 1997 2975 
Q 2547 2975 2939 2556 
Q 3331 2138 3331 1475 
Q 3331 772 2918 347 
Q 2506 -78 1859 -78 
Q 1166 -78 719 461 
Q 272 1000 272 2228 
Q 272 3488 737 4044 
Q 1203 4600 1947 4600 
Q 2469 4600 2811 4308 
Q 3153 4016 3247 3459 
z
M 1256 1544 
Q 1256 1116 1453 883 
Q 1650 650 1903 650 
Q 2147 650 2309 840 
Q 2472 1031 2472 1466 
Q 2472 1913 2297 2120 
Q 2122 2328 1859 2328 
Q 1606 2328 1431 2129 
Q 1256 1931 1256 1544 
z
" transform="scale(0.015625)"/>
       </defs>
       <use xlink:href="#Arial-BoldMT-36"/>
      </g>
     </g>
    </g>
    <g id="xtick_8">
     <g id="line2d_8">
      <g>
       <use xlink:href="#mfdac1ca05c" x="379.090996" y="198.907885" style="stroke: #000000; stroke-width: 2"/>
      </g>
     </g>
     <g id="text_8">
      <!-- 7 -->
      <g transform="translate(374.086153 224.791947) scale(0.18 -0.18)">
       <defs>
        <path id="Arial-BoldMT-37" d="M 272 3703 
L 272 4519 
L 3275 4519 
L 3275 3881 
Q 2903 3516 2518 2831 
Q 2134 2147 1932 1376 
Q 1731 606 1734 0 
L 888 0 
Q 909 950 1279 1937 
Q 1650 2925 2269 3703 
L 272 3703 
z
" transform="scale(0.015625)"/>
       </defs>
       <use xlink:href="#Arial-BoldMT-37"/>
      </g>
     </g>
    </g>
    <g id="xtick_9">
     <g id="line2d_9">
      <g>
       <use xlink:href="#mfdac1ca05c" x="271.636495" y="198.907885" style="stroke: #000000; stroke-width: 2"/>
      </g>
     </g>
     <g id="text_9">
      <!-- 8 -->
      <g transform="translate(266.631651 224.791947) scale(0.18 -0.18)">
       <defs>
        <path id="Arial-BoldMT-38" d="M 1025 2472 
Q 684 2616 529 2867 
Q 375 3119 375 3419 
Q 375 3931 733 4265 
Q 1091 4600 1750 4600 
Q 2403 4600 2764 4265 
Q 3125 3931 3125 3419 
Q 3125 3100 2959 2851 
Q 2794 2603 2494 2472 
Q 2875 2319 3073 2025 
Q 3272 1731 3272 1347 
Q 3272 713 2867 316 
Q 2463 -81 1791 -81 
Q 1166 -81 750 247 
Q 259 634 259 1309 
Q 259 1681 443 1992 
Q 628 2303 1025 2472 
z
M 1206 3356 
Q 1206 3094 1354 2947 
Q 1503 2800 1750 2800 
Q 2000 2800 2150 2948 
Q 2300 3097 2300 3359 
Q 2300 3606 2151 3754 
Q 2003 3903 1759 3903 
Q 1506 3903 1356 3753 
Q 1206 3603 1206 3356 
z
M 1125 1394 
Q 1125 1031 1311 828 
Q 1497 625 1775 625 
Q 2047 625 2225 820 
Q 2403 1016 2403 1384 
Q 2403 1706 2222 1901 
Q 2041 2097 1763 2097 
Q 1441 2097 1283 1875 
Q 1125 1653 1125 1394 
z
" transform="scale(0.015625)"/>
       </defs>
       <use xlink:href="#Arial-BoldMT-38"/>
      </g>
     </g>
    </g>
    <g id="xtick_10">
     <g id="line2d_10">
      <g>
       <use xlink:href="#mfdac1ca05c" x="164.181993" y="198.907885" style="stroke: #000000; stroke-width: 2"/>
      </g>
     </g>
     <g id="text_10">
      <!-- 9 -->
      <g transform="translate(159.177149 224.791947) scale(0.18 -0.18)">
       <defs>
        <path id="Arial-BoldMT-39" d="M 291 1059 
L 1141 1153 
Q 1172 894 1303 769 
Q 1434 644 1650 644 
Q 1922 644 2112 894 
Q 2303 1144 2356 1931 
Q 2025 1547 1528 1547 
Q 988 1547 595 1964 
Q 203 2381 203 3050 
Q 203 3747 617 4173 
Q 1031 4600 1672 4600 
Q 2369 4600 2816 4061 
Q 3263 3522 3263 2288 
Q 3263 1031 2797 475 
Q 2331 -81 1584 -81 
Q 1047 -81 715 205 
Q 384 491 291 1059 
z
M 2278 2978 
Q 2278 3403 2083 3637 
Q 1888 3872 1631 3872 
Q 1388 3872 1227 3680 
Q 1066 3488 1066 3050 
Q 1066 2606 1241 2398 
Q 1416 2191 1678 2191 
Q 1931 2191 2104 2391 
Q 2278 2591 2278 2978 
z
" transform="scale(0.015625)"/>
       </defs>
       <use xlink:href="#Arial-BoldMT-39"/>
      </g>
     </g>
    </g>
    <g id="xtick_11">
     <g id="line2d_11">
      <g>
       <use xlink:href="#mfdac1ca05c" x="56.727491" y="198.907885" style="stroke: #000000; stroke-width: 2"/>
      </g>
     </g>
     <g id="text_11">
      <!-- 10 -->
      <g transform="translate(46.717803 224.791947) scale(0.18 -0.18)">
       <use xlink:href="#Arial-BoldMT-31"/>
       <use xlink:href="#Arial-BoldMT-30" x="55.615234"/>
      </g>
     </g>
    </g>
    <g id="text_12">
     <!-- Chemical Shift / ppm -->
     <g transform="translate(504.992813 245.447573) scale(0.18 -0.18)">
      <defs>
       <path id="Arial-BoldMT-43" d="M 3397 1684 
L 4294 1400 
Q 4088 650 3608 286 
Q 3128 -78 2391 -78 
Q 1478 -78 890 545 
Q 303 1169 303 2250 
Q 303 3394 893 4026 
Q 1484 4659 2447 4659 
Q 3288 4659 3813 4163 
Q 4125 3869 4281 3319 
L 3366 3100 
Q 3284 3456 3026 3662 
Q 2769 3869 2400 3869 
Q 1891 3869 1573 3503 
Q 1256 3138 1256 2319 
Q 1256 1450 1568 1081 
Q 1881 713 2381 713 
Q 2750 713 3015 947 
Q 3281 1181 3397 1684 
z
" transform="scale(0.015625)"/>
       <path id="Arial-BoldMT-68" d="M 1334 4581 
L 1334 2897 
Q 1759 3394 2350 3394 
Q 2653 3394 2897 3281 
Q 3141 3169 3264 2994 
Q 3388 2819 3433 2606 
Q 3478 2394 3478 1947 
L 3478 0 
L 2600 0 
L 2600 1753 
Q 2600 2275 2550 2415 
Q 2500 2556 2373 2639 
Q 2247 2722 2056 2722 
Q 1838 2722 1666 2615 
Q 1494 2509 1414 2295 
Q 1334 2081 1334 1663 
L 1334 0 
L 456 0 
L 456 4581 
L 1334 4581 
z
" transform="scale(0.015625)"/>
       <path id="Arial-BoldMT-65" d="M 2381 1056 
L 3256 909 
Q 3088 428 2723 176 
Q 2359 -75 1813 -75 
Q 947 -75 531 491 
Q 203 944 203 1634 
Q 203 2459 634 2926 
Q 1066 3394 1725 3394 
Q 2466 3394 2894 2905 
Q 3322 2416 3303 1406 
L 1103 1406 
Q 1113 1016 1316 798 
Q 1519 581 1822 581 
Q 2028 581 2168 693 
Q 2309 806 2381 1056 
z
M 2431 1944 
Q 2422 2325 2234 2523 
Q 2047 2722 1778 2722 
Q 1491 2722 1303 2513 
Q 1116 2303 1119 1944 
L 2431 1944 
z
" transform="scale(0.015625)"/>
       <path id="Arial-BoldMT-6d" d="M 394 3319 
L 1203 3319 
L 1203 2866 
Q 1638 3394 2238 3394 
Q 2556 3394 2790 3262 
Q 3025 3131 3175 2866 
Q 3394 3131 3647 3262 
Q 3900 3394 4188 3394 
Q 4553 3394 4806 3245 
Q 5059 3097 5184 2809 
Q 5275 2597 5275 2122 
L 5275 0 
L 4397 0 
L 4397 1897 
Q 4397 2391 4306 2534 
Q 4184 2722 3931 2722 
Q 3747 2722 3584 2609 
Q 3422 2497 3350 2280 
Q 3278 2063 3278 1594 
L 3278 0 
L 2400 0 
L 2400 1819 
Q 2400 2303 2353 2443 
Q 2306 2584 2207 2653 
Q 2109 2722 1941 2722 
Q 1738 2722 1575 2612 
Q 1413 2503 1342 2297 
Q 1272 2091 1272 1613 
L 1272 0 
L 394 0 
L 394 3319 
z
" transform="scale(0.015625)"/>
       <path id="Arial-BoldMT-69" d="M 459 3769 
L 459 4581 
L 1338 4581 
L 1338 3769 
L 459 3769 
z
M 459 0 
L 459 3319 
L 1338 3319 
L 1338 0 
L 459 0 
z
" transform="scale(0.015625)"/>
       <path id="Arial-BoldMT-63" d="M 3353 2338 
L 2488 2181 
Q 2444 2441 2289 2572 
Q 2134 2703 1888 2703 
Q 1559 2703 1364 2476 
Q 1169 2250 1169 1719 
Q 1169 1128 1367 884 
Q 1566 641 1900 641 
Q 2150 641 2309 783 
Q 2469 925 2534 1272 
L 3397 1125 
Q 3263 531 2881 228 
Q 2500 -75 1859 -75 
Q 1131 -75 698 384 
Q 266 844 266 1656 
Q 266 2478 700 2936 
Q 1134 3394 1875 3394 
Q 2481 3394 2839 3133 
Q 3197 2872 3353 2338 
z
" transform="scale(0.015625)"/>
       <path id="Arial-BoldMT-61" d="M 1116 2306 
L 319 2450 
Q 453 2931 781 3162 
Q 1109 3394 1756 3394 
Q 2344 3394 2631 3255 
Q 2919 3116 3036 2902 
Q 3153 2688 3153 2116 
L 3144 1091 
Q 3144 653 3186 445 
Q 3228 238 3344 0 
L 2475 0 
Q 2441 88 2391 259 
Q 2369 338 2359 363 
Q 2134 144 1878 34 
Q 1622 -75 1331 -75 
Q 819 -75 523 203 
Q 228 481 228 906 
Q 228 1188 362 1408 
Q 497 1628 739 1745 
Q 981 1863 1438 1950 
Q 2053 2066 2291 2166 
L 2291 2253 
Q 2291 2506 2166 2614 
Q 2041 2722 1694 2722 
Q 1459 2722 1328 2630 
Q 1197 2538 1116 2306 
z
M 2291 1594 
Q 2122 1538 1756 1459 
Q 1391 1381 1278 1306 
Q 1106 1184 1106 997 
Q 1106 813 1243 678 
Q 1381 544 1594 544 
Q 1831 544 2047 700 
Q 2206 819 2256 991 
Q 2291 1103 2291 1419 
L 2291 1594 
z
" transform="scale(0.015625)"/>
       <path id="Arial-BoldMT-6c" d="M 459 0 
L 459 4581 
L 1338 4581 
L 1338 0 
L 459 0 
z
" transform="scale(0.015625)"/>
       <path id="Arial-BoldMT-20" transform="scale(0.015625)"/>
       <path id="Arial-BoldMT-53" d="M 231 1491 
L 1131 1578 
Q 1213 1125 1461 912 
Q 1709 700 2131 700 
Q 2578 700 2804 889 
Q 3031 1078 3031 1331 
Q 3031 1494 2936 1608 
Q 2841 1722 2603 1806 
Q 2441 1863 1863 2006 
Q 1119 2191 819 2459 
Q 397 2838 397 3381 
Q 397 3731 595 4036 
Q 794 4341 1167 4500 
Q 1541 4659 2069 4659 
Q 2931 4659 3367 4281 
Q 3803 3903 3825 3272 
L 2900 3231 
Q 2841 3584 2645 3739 
Q 2450 3894 2059 3894 
Q 1656 3894 1428 3728 
Q 1281 3622 1281 3444 
Q 1281 3281 1419 3166 
Q 1594 3019 2269 2859 
Q 2944 2700 3267 2529 
Q 3591 2359 3773 2064 
Q 3956 1769 3956 1334 
Q 3956 941 3737 597 
Q 3519 253 3119 86 
Q 2719 -81 2122 -81 
Q 1253 -81 787 320 
Q 322 722 231 1491 
z
" transform="scale(0.015625)"/>
       <path id="Arial-BoldMT-66" d="M 75 3319 
L 563 3319 
L 563 3569 
Q 563 3988 652 4194 
Q 741 4400 980 4529 
Q 1219 4659 1584 4659 
Q 1959 4659 2319 4547 
L 2200 3934 
Q 1991 3984 1797 3984 
Q 1606 3984 1523 3895 
Q 1441 3806 1441 3553 
L 1441 3319 
L 2097 3319 
L 2097 2628 
L 1441 2628 
L 1441 0 
L 563 0 
L 563 2628 
L 75 2628 
L 75 3319 
z
" transform="scale(0.015625)"/>
       <path id="Arial-BoldMT-74" d="M 1981 3319 
L 1981 2619 
L 1381 2619 
L 1381 1281 
Q 1381 875 1398 808 
Q 1416 741 1477 697 
Q 1538 653 1625 653 
Q 1747 653 1978 738 
L 2053 56 
Q 1747 -75 1359 -75 
Q 1122 -75 931 4 
Q 741 84 652 211 
Q 563 338 528 553 
Q 500 706 500 1172 
L 500 2619 
L 97 2619 
L 97 3319 
L 500 3319 
L 500 3978 
L 1381 4491 
L 1381 3319 
L 1981 3319 
z
" transform="scale(0.015625)"/>
       <path id="Arial-BoldMT-2f" d="M -9 -78 
L 1125 4659 
L 1784 4659 
L 638 -78 
L -9 -78 
z
" transform="scale(0.015625)"/>
       <path id="Arial-BoldMT-70" d="M 434 3319 
L 1253 3319 
L 1253 2831 
Q 1413 3081 1684 3237 
Q 1956 3394 2288 3394 
Q 2866 3394 3269 2941 
Q 3672 2488 3672 1678 
Q 3672 847 3265 386 
Q 2859 -75 2281 -75 
Q 2006 -75 1782 34 
Q 1559 144 1313 409 
L 1313 -1263 
L 434 -1263 
L 434 3319 
z
M 1303 1716 
Q 1303 1156 1525 889 
Q 1747 622 2066 622 
Q 2372 622 2575 867 
Q 2778 1113 2778 1672 
Q 2778 2194 2568 2447 
Q 2359 2700 2050 2700 
Q 1728 2700 1515 2451 
Q 1303 2203 1303 1716 
z
" transform="scale(0.015625)"/>
      </defs>
      <use xlink:href="#Arial-BoldMT-43"/>
      <use xlink:href="#Arial-BoldMT-68" x="72.216797"/>
      <use xlink:href="#Arial-BoldMT-65" x="133.300781"/>
      <use xlink:href="#Arial-BoldMT-6d" x="188.916016"/>
      <use xlink:href="#Arial-BoldMT-69" x="277.832031"/>
      <use xlink:href="#Arial-BoldMT-63" x="305.615234"/>
      <use xlink:href="#Arial-BoldMT-61" x="361.230469"/>
      <use xlink:href="#Arial-BoldMT-6c" x="416.845703"/>
      <use xlink:href="#Arial-BoldMT-20" x="444.628906"/>
      <use xlink:href="#Arial-BoldMT-53" x="472.412109"/>
      <use xlink:href="#Arial-BoldMT-68" x="539.111328"/>
      <use xlink:href="#Arial-BoldMT-69" x="600.195312"/>
      <use xlink:href="#Arial-BoldMT-66" x="627.978516"/>
      <use xlink:href="#Arial-BoldMT-74" x="661.279297"/>
      <use xlink:href="#Arial-BoldMT-20" x="694.580078"/>
      <use xlink:href="#Arial-BoldMT-2f" x="722.363281"/>
      <use xlink:href="#Arial-BoldMT-20" x="750.146484"/>
      <use xlink:href="#Arial-BoldMT-70" x="777.929688"/>
      <use xlink:href="#Arial-BoldMT-70" x="839.013672"/>
      <use xlink:href="#Arial-BoldMT-6d" x="900.097656"/>
     </g>
    </g>
   </g>
   <g id="matplotlib.axis_2"/>
   <g id="line2d_12">
    <path d="M 2.955871 189.985474 
L 3.365111 189.3734 
L 3.569731 189.256407 
L 3.97897 189.466111 
L 4.388209 189.796148 
L 4.592829 189.835449 
L 5.206688 189.616988 
L 5.411308 189.803242 
L 6.229787 191.032115 
L 6.843646 191.595525 
L 7.662125 192.80868 
L 8.071365 192.936427 
L 8.275984 192.86388 
L 8.480604 192.533977 
L 9.094463 190.911063 
L 9.299083 190.726264 
L 9.503703 190.779536 
L 9.912942 191.258671 
L 10.526801 192.087608 
L 10.731421 192.044285 
L 11.75452 191.016786 
L 12.163759 190.101854 
L 12.572999 189.041797 
L 12.777618 188.780979 
L 12.982238 188.838058 
L 13.391477 189.812898 
L 14.005337 191.581256 
L 14.414576 192.019093 
L 15.028435 192.149992 
L 15.437675 192.014789 
L 16.051534 191.136554 
L 16.665393 190.20133 
L 17.074633 189.907745 
L 17.483872 189.804094 
L 17.688492 189.880348 
L 18.097731 190.428813 
L 18.91621 191.964591 
L 19.12083 192.070511 
L 19.530069 191.739313 
L 19.939309 191.449238 
L 20.143928 191.657068 
L 20.757788 192.917769 
L 20.962407 192.891347 
L 21.371647 191.927713 
L 21.985506 190.229856 
L 22.599365 189.007652 
L 22.803985 188.852188 
L 23.008605 188.961783 
L 23.622464 189.93485 
L 24.850182 192.511831 
L 25.054802 192.645904 
L 25.259422 192.525796 
L 25.668661 191.678681 
L 26.28252 189.879938 
L 26.69176 189.44715 
L 26.896379 189.515436 
L 27.305619 190.13682 
L 27.919478 191.361022 
L 28.328717 192.108635 
L 28.737957 192.872855 
L 28.942577 192.795126 
L 29.761056 191.025622 
L 29.965675 191.078654 
L 30.374915 191.776132 
L 31.398013 193.720598 
L 31.602633 193.650224 
L 32.216492 192.854693 
L 32.421112 192.807812 
L 33.239591 192.967254 
L 33.64883 192.513333 
L 34.467309 191.404931 
L 35.081168 191.463358 
L 35.490408 191.678697 
L 35.899647 192.372905 
L 36.308887 193.121892 
L 36.513507 193.261515 
L 37.331985 193.255156 
L 37.536605 193.091629 
L 37.945845 192.254831 
L 38.559704 190.987738 
L 38.764324 190.92865 
L 38.968943 191.139734 
L 40.196662 193.833037 
L 40.605901 194.06314 
L 40.810521 193.940805 
L 41.015141 193.573129 
L 42.038239 190.476577 
L 42.242859 190.332826 
L 42.447479 190.328757 
L 42.856718 190.67132 
L 44.084436 192.107857 
L 45.312155 192.633654 
L 45.721394 192.555366 
L 45.926014 192.314478 
L 46.335253 190.969666 
L 46.744493 189.099964 
L 46.949113 188.569581 
L 47.153732 188.444396 
L 49.19993 189.990454 
L 49.813789 190.532096 
L 50.427648 190.6335 
L 51.859986 190.316693 
L 52.269226 189.6932 
L 53.087704 187.861658 
L 53.292324 187.728724 
L 53.701564 188.043927 
L 53.906183 188.176782 
L 54.110803 188.052455 
L 54.520043 186.961879 
L 56.157 180.804449 
L 57.589338 174.515076 
L 57.793958 174.482155 
L 57.998578 174.869761 
L 58.407817 176.327763 
L 59.021676 179.502939 
L 59.840155 183.669843 
L 60.658634 186.754044 
L 61.272493 187.898989 
L 61.886353 188.704597 
L 62.090972 188.71068 
L 62.500212 188.234756 
L 63.318691 187.173958 
L 63.52331 187.083324 
L 64.751029 187.302014 
L 66.183367 189.129087 
L 67.206466 191.594049 
L 67.615705 191.768676 
L 67.820325 192.095607 
L 68.434184 193.530014 
L 68.638804 193.509195 
L 69.457283 192.344863 
L 69.661902 192.397868 
L 70.071142 193.024398 
L 70.480381 193.87531 
L 70.685001 194.078484 
L 70.889621 194.089914 
L 71.09424 193.949886 
L 71.50348 193.205538 
L 71.912719 192.411903 
L 72.117339 192.307969 
L 72.526578 192.591307 
L 72.935818 192.894052 
L 73.140438 192.62599 
L 73.958917 190.054495 
L 74.163536 189.94555 
L 74.368156 190.22028 
L 75.186635 192.040594 
L 76.005114 193.197517 
L 76.414353 193.077099 
L 76.823593 192.708129 
L 77.437452 192.075496 
L 78.86979 190.977688 
L 80.097508 190.954977 
L 80.506748 190.987567 
L 80.915987 191.282393 
L 81.734466 192.213085 
L 82.143706 192.25327 
L 83.166804 191.729076 
L 83.780663 191.88356 
L 84.599142 192.284945 
L 85.008382 192.091602 
L 86.64534 190.226437 
L 87.054579 190.038549 
L 87.463819 189.539968 
L 88.282297 188.054606 
L 88.486917 187.996371 
L 89.305396 188.648551 
L 89.919255 188.290659 
L 91.146974 187.199476 
L 91.760833 187.121209 
L 92.170072 186.329422 
L 92.783931 184.95659 
L 93.193171 184.428172 
L 93.397791 184.331376 
L 93.80703 184.555301 
L 94.420889 185.369394 
L 95.034748 186.339046 
L 95.239368 186.310631 
L 95.443988 185.983343 
L 97.285565 180.675957 
L 98.308664 176.322788 
L 98.922523 173.693175 
L 99.331763 172.372256 
L 99.741002 170.195999 
L 100.150242 167.125604 
L 100.559481 162.747727 
L 101.17334 153.471115 
L 102.196439 134.33088 
L 102.810298 117.554072 
L 103.424157 93.105743 
L 105.265735 5.222642 
L 105.470354 3.00024 
L 105.674974 3.412282 
L 105.879594 6.090981 
L 106.288833 16.705455 
L 107.107312 49.045889 
L 108.130411 89.265024 
L 109.15351 121.628398 
L 109.971988 141.593628 
L 110.790467 155.464309 
L 111.404327 162.68962 
L 112.018186 167.188175 
L 113.245904 172.956512 
L 114.064383 176.072281 
L 114.678242 177.538282 
L 115.905961 179.655377 
L 116.724439 181.648666 
L 117.133679 182.010047 
L 117.747538 182.379566 
L 118.361397 182.265832 
L 118.566017 182.550384 
L 119.384496 184.590996 
L 120.202975 185.767711 
L 121.021454 187.6425 
L 121.635313 189.364106 
L 121.839933 189.449898 
L 122.044552 189.240455 
L 123.067651 187.340553 
L 123.272271 187.395716 
L 123.47689 187.740186 
L 124.09075 189.435672 
L 124.295369 189.662132 
L 124.704609 189.570156 
L 125.113848 189.537891 
L 125.523088 189.678808 
L 125.727707 189.578342 
L 126.136947 189.008648 
L 126.750806 187.938748 
L 127.978524 187.065487 
L 128.387764 187.182874 
L 128.592384 187.475964 
L 129.820102 190.399551 
L 130.433961 190.758695 
L 132.275539 190.689242 
L 132.684778 191.080881 
L 132.889398 191.129124 
L 133.094018 191.027822 
L 133.503257 190.305759 
L 134.117116 188.606682 
L 134.526356 188.19709 
L 135.140215 187.935866 
L 135.754074 188.149608 
L 136.163313 187.606155 
L 137.186412 185.67811 
L 137.595652 185.884251 
L 138.004891 186.346438 
L 138.41413 187.06945 
L 139.232609 188.779083 
L 139.641849 189.160777 
L 140.255708 189.336495 
L 140.869567 189.740879 
L 141.074187 189.631113 
L 141.688046 189.050963 
L 141.892666 189.113412 
L 142.301905 189.706057 
L 142.711145 190.758961 
L 143.120384 191.967435 
L 143.325004 192.314478 
L 143.529624 192.38973 
L 143.938863 191.988377 
L 144.348103 191.67034 
L 144.757342 191.932395 
L 144.961962 192.074884 
L 145.166581 192.044898 
L 145.371201 191.755648 
L 146.18968 190.026064 
L 146.3943 190.171339 
L 146.803539 191.411343 
L 147.212779 192.552256 
L 147.622018 192.772948 
L 148.031258 192.938648 
L 148.440497 193.2068 
L 148.645117 193.146429 
L 148.849737 192.770546 
L 149.668215 189.965395 
L 149.872835 189.925374 
L 150.282075 190.164638 
L 150.895934 190.090116 
L 151.100554 190.237627 
L 151.919032 191.463827 
L 152.532892 191.491309 
L 152.942131 192.141918 
L 153.351371 192.800404 
L 153.55599 192.721327 
L 153.96523 191.743771 
L 154.374469 190.968963 
L 154.579089 191.087096 
L 155.192948 192.442309 
L 155.397568 192.527005 
L 156.011427 192.213804 
L 156.829906 192.327005 
L 157.853005 191.675858 
L 158.262244 190.975568 
L 158.671483 190.271038 
L 159.080723 190.019028 
L 159.285343 190.126418 
L 159.899202 191.03505 
L 161.12692 192.582268 
L 162.354639 192.737817 
L 162.559258 192.681749 
L 162.968498 192.064583 
L 163.377737 191.339095 
L 164.400836 190.455576 
L 165.219315 190.634043 
L 165.833174 190.177117 
L 166.447033 190.213111 
L 166.856273 189.587674 
L 167.265512 188.8973 
L 167.674751 188.768824 
L 168.083991 188.798075 
L 168.288611 188.945869 
L 168.69785 189.806928 
L 169.10709 190.676279 
L 169.925568 191.410848 
L 170.130188 191.554711 
L 170.539428 191.467155 
L 171.153287 191.217489 
L 171.562526 191.285498 
L 171.971766 191.764442 
L 172.994864 193.901493 
L 173.813343 193.730435 
L 174.836442 194.733461 
L 175.245681 194.605059 
L 175.85954 194.310665 
L 176.26878 194.015322 
L 176.678019 193.674916 
L 177.291879 193.673947 
L 177.701118 193.25367 
L 178.314977 191.952847 
L 178.724217 191.181048 
L 178.928836 191.109625 
L 179.338076 191.544501 
L 179.951935 192.288108 
L 180.361174 192.508923 
L 181.588893 192.324438 
L 181.998132 191.815024 
L 182.816611 190.554594 
L 183.021231 190.567882 
L 183.43047 190.945678 
L 183.83971 191.625468 
L 184.248949 192.319538 
L 184.453569 192.404073 
L 184.658189 192.243438 
L 185.067428 191.3787 
L 185.885907 189.250511 
L 186.090527 189.293104 
L 186.499766 189.651443 
L 186.704386 189.620152 
L 186.909006 189.333885 
L 187.318245 187.931984 
L 188.136724 184.406868 
L 189.569062 180.308574 
L 190.182921 178.477661 
L 190.796781 175.96626 
L 191.20602 173.621587 
L 191.615259 170.046741 
L 192.638358 157.364179 
L 193.252217 147.02777 
L 194.070696 128.125537 
L 195.707654 83.314971 
L 195.912274 81.294982 
L 196.116893 80.923801 
L 196.321513 82.321713 
L 196.730753 89.594251 
L 197.958471 117.816589 
L 198.57233 127.86418 
L 199.186189 134.94517 
L 199.595429 138.48186 
L 200.004668 140.402464 
L 200.413908 141.148032 
L 200.823147 141.161597 
L 201.232387 141.003625 
L 201.437006 140.773086 
L 201.641626 140.235252 
L 202.050866 137.920271 
L 202.664725 132.127961 
L 203.278584 124.046838 
L 203.892443 113.119574 
L 204.506302 98.600234 
L 205.120161 78.149483 
L 206.14326 41.812557 
L 206.5525 35.809088 
L 206.757119 36.021552 
L 206.961739 38.506024 
L 207.370978 49.715352 
L 209.417176 126.597689 
L 210.235655 143.358786 
L 211.054134 155.296558 
L 211.667993 161.194442 
L 212.486472 167.403983 
L 212.895711 169.473329 
L 214.123429 173.332955 
L 214.532669 174.362872 
L 215.760387 178.820315 
L 216.374246 179.689299 
L 216.783486 180.203661 
L 217.397345 180.528531 
L 217.806584 180.744371 
L 218.215824 181.226313 
L 219.443542 183.414127 
L 220.057401 183.858696 
L 220.87588 184.825861 
L 221.48974 185.460507 
L 221.898979 185.787273 
L 222.512838 185.925613 
L 223.331317 185.951003 
L 223.535937 185.76917 
L 224.354416 184.535152 
L 225.582134 184.900836 
L 225.991374 184.617669 
L 226.195993 184.471244 
L 226.400613 184.461801 
L 226.809852 184.864443 
L 227.219092 185.336702 
L 227.423712 185.380147 
L 227.832951 185.053002 
L 228.44681 184.135487 
L 229.060669 183.144089 
L 229.674529 182.739412 
L 229.879148 182.791432 
L 230.083768 183.119184 
L 230.493008 184.422638 
L 231.106867 186.440923 
L 231.516106 186.935589 
L 231.925346 187.191923 
L 232.334585 188.045589 
L 232.948444 189.394028 
L 233.357684 190.076726 
L 233.562303 190.172212 
L 233.971543 189.732197 
L 234.994642 188.395663 
L 236.01774 185.848912 
L 236.22236 185.946401 
L 236.836219 186.987311 
L 237.245459 186.98541 
L 238.677797 186.468251 
L 239.087036 185.88408 
L 240.314754 183.056448 
L 240.928614 181.381456 
L 241.337853 180.857667 
L 241.542473 180.360322 
L 241.951712 178.495727 
L 242.565571 175.748071 
L 242.974811 175.071604 
L 243.38405 174.71775 
L 243.58867 174.36071 
L 243.79329 173.695113 
L 244.202529 171.25342 
L 244.611769 167.540384 
L 245.225628 159.742896 
L 245.839487 149.850209 
L 246.657966 131.544536 
L 248.908783 78.843558 
L 249.318022 75.397369 
L 249.522642 74.453133 
L 249.727262 74.040036 
L 249.931882 74.244009 
L 250.136501 75.188155 
L 250.545741 79.509207 
L 251.1596 90.570838 
L 253.001177 130.740658 
L 253.819656 140.486217 
L 254.433516 145.080514 
L 254.842755 146.292029 
L 255.047375 146.217453 
L 255.251994 145.568687 
L 255.661234 142.82583 
L 256.479713 135.330103 
L 257.298192 124.546239 
L 259.139769 98.804735 
L 259.549009 95.941189 
L 259.958248 94.547835 
L 260.162868 94.372484 
L 260.367488 94.534568 
L 260.572107 95.127287 
L 260.981347 98.152299 
L 261.595206 106.342586 
L 262.413685 120.822885 
L 263.232164 136.190437 
L 263.846023 143.585448 
L 264.459882 148.623046 
L 266.09684 159.133565 
L 267.119939 168.060929 
L 267.733798 171.618231 
L 269.166136 176.026514 
L 270.189235 178.314624 
L 270.803094 179.307748 
L 271.826192 181.925288 
L 272.030812 181.981824 
L 272.235432 181.696931 
L 272.644671 180.322012 
L 273.25853 178.189807 
L 273.66777 177.473187 
L 273.87239 177.416219 
L 274.077009 177.523886 
L 274.486249 178.229598 
L 275.100108 179.777872 
L 275.509347 180.095104 
L 275.918587 180.094055 
L 276.327826 180.473811 
L 276.737066 180.902002 
L 276.941686 180.899514 
L 277.760164 180.327151 
L 277.964784 180.317447 
L 278.169404 180.432533 
L 278.783263 181.111658 
L 278.987883 180.99916 
L 279.806362 179.781094 
L 280.215601 178.772135 
L 280.82946 177.043382 
L 281.03408 176.78913 
L 281.2387 176.726746 
L 281.44332 176.857011 
L 281.852559 177.59231 
L 282.466418 178.69079 
L 282.875658 178.910736 
L 283.080277 178.968359 
L 283.284897 179.166436 
L 283.898756 180.188268 
L 284.307996 180.435436 
L 284.717235 180.681587 
L 285.331094 181.194777 
L 285.535714 181.169094 
L 285.740334 180.964216 
L 286.149573 179.950788 
L 286.558813 178.056282 
L 287.377292 172.141972 
L 288.60501 162.842617 
L 289.628109 157.388034 
L 289.832728 157.35138 
L 290.037348 157.823527 
L 290.651207 160.685199 
L 291.674306 165.837904 
L 292.492785 169.011179 
L 293.106644 171.913264 
L 293.515883 173.949647 
L 293.720503 174.565194 
L 293.925123 174.772177 
L 294.129743 174.586222 
L 294.948221 172.836063 
L 295.357461 172.927752 
L 295.7667 173.304823 
L 296.17594 174.141887 
L 296.789799 175.396421 
L 297.199038 175.665634 
L 297.608278 175.794983 
L 298.017517 176.165322 
L 298.426757 176.988752 
L 299.449855 179.393871 
L 299.654475 179.569664 
L 299.859095 179.52934 
L 300.268334 179.053651 
L 301.086813 177.986451 
L 301.700672 177.560481 
L 301.905292 177.586659 
L 302.109912 177.76233 
L 302.928391 179.069667 
L 303.33763 179.061598 
L 303.54225 178.935465 
L 303.74687 178.672724 
L 304.156109 177.467248 
L 304.769968 175.336284 
L 305.588447 173.341631 
L 306.202306 170.529748 
L 306.816166 167.258628 
L 308.657743 154.177568 
L 309.271602 148.862805 
L 309.885462 141.050852 
L 310.499321 130.147593 
L 311.3178 110.787374 
L 313.363997 58.167976 
L 313.977856 49.67195 
L 314.387096 46.278538 
L 314.591715 45.443124 
L 314.796335 45.195008 
L 315.000955 45.452248 
L 315.205574 46.196415 
L 315.614814 49.346643 
L 316.024053 54.576955 
L 316.637913 66.055752 
L 317.456391 88.163833 
L 318.47949 115.087362 
L 319.297969 130.621785 
L 320.116448 143.132741 
L 320.730307 148.474645 
L 321.958025 157.108718 
L 323.390364 165.625596 
L 323.799603 167.130642 
L 324.208842 167.919484 
L 324.618082 168.263758 
L 325.231941 168.469078 
L 325.641181 168.578775 
L 326.05042 169.131815 
L 326.664279 169.906899 
L 327.482758 170.563878 
L 327.891997 170.997826 
L 328.301237 171.076999 
L 328.710476 170.797411 
L 329.119716 170.075108 
L 329.733575 168.895714 
L 330.142814 168.842331 
L 330.552054 168.930936 
L 330.756674 169.107506 
L 331.165913 170.137823 
L 331.575153 171.396772 
L 331.984392 172.02075 
L 332.393631 172.283124 
L 333.62135 172.270278 
L 334.235209 171.901036 
L 334.439829 172.109185 
L 335.258308 173.545227 
L 335.872167 173.583798 
L 336.281406 174.062108 
L 336.895265 175.034785 
L 337.099885 175.202983 
L 337.304505 175.225603 
L 337.509125 175.063189 
L 339.146082 172.361663 
L 340.169181 169.99805 
L 341.806139 163.484358 
L 342.419998 162.075921 
L 342.624618 161.96296 
L 342.829238 162.204695 
L 343.238477 163.915606 
L 343.852336 167.321114 
L 344.261576 168.569044 
L 344.670815 169.21733 
L 345.284674 169.982849 
L 345.693914 171.127943 
L 347.126252 176.493735 
L 347.535491 177.380784 
L 347.740111 177.523364 
L 347.944731 177.437017 
L 348.14935 177.114805 
L 348.76321 175.254518 
L 349.786308 172.566781 
L 350.195548 171.76489 
L 350.604787 171.6798 
L 351.014027 171.595744 
L 351.627886 171.28282 
L 352.037125 170.61398 
L 353.060224 168.484359 
L 353.469463 167.755105 
L 354.697182 166.654687 
L 354.901801 166.744868 
L 356.12952 168.248264 
L 357.561858 172.061111 
L 358.380337 172.91703 
L 358.584957 172.880237 
L 359.198816 172.267087 
L 359.608055 172.297185 
L 360.017295 172.59151 
L 360.631154 173.145946 
L 361.449633 173.566004 
L 362.268112 174.924418 
L 362.472731 174.650433 
L 362.881971 173.036425 
L 363.905069 167.786668 
L 365.337408 162.8389 
L 365.746647 161.825749 
L 365.951267 161.553048 
L 366.155886 161.517097 
L 366.360506 161.724974 
L 367.997464 164.772777 
L 368.202084 164.86242 
L 368.611323 164.53266 
L 369.020563 164.173985 
L 369.429802 164.163845 
L 369.634422 164.166976 
L 369.839041 164.046772 
L 370.65752 163.099649 
L 370.86214 163.183807 
L 371.475999 164.111074 
L 371.680619 164.050425 
L 371.885239 163.633755 
L 372.908337 160.336143 
L 373.522197 159.168978 
L 374.340675 158.011474 
L 375.568394 155.015516 
L 377.000732 150.420415 
L 377.614591 148.609156 
L 378.22845 147.308615 
L 378.842309 145.172037 
L 379.865408 140.858836 
L 380.888507 135.9909 
L 382.320845 131.228581 
L 383.343943 127.315587 
L 383.957803 124.058406 
L 384.776282 117.460854 
L 386.004 107.803149 
L 386.822479 100.218849 
L 387.640958 96.014284 
L 389.073296 88.047698 
L 389.891775 83.227223 
L 391.119493 77.860968 
L 391.528733 76.948556 
L 391.937972 76.445107 
L 392.142592 76.541477 
L 392.347211 77.036074 
L 393.37031 81.201418 
L 393.57493 81.45298 
L 393.77955 81.466972 
L 394.188789 81.321671 
L 394.393409 81.444048 
L 394.802648 82.307977 
L 396.234986 86.807299 
L 396.644226 87.417233 
L 396.848845 87.381825 
L 397.258085 86.841775 
L 397.667324 85.884506 
L 398.485803 82.787517 
L 399.099662 80.840996 
L 399.508902 80.464362 
L 399.713522 80.533713 
L 400.327381 81.110001 
L 400.532001 81.04106 
L 400.73662 80.657534 
L 401.759719 77.257267 
L 401.964339 77.222881 
L 402.168958 77.524967 
L 402.578198 78.843579 
L 403.396677 82.508404 
L 405.238254 95.428755 
L 406.261353 103.584465 
L 408.71679 120.47817 
L 409.739888 127.745004 
L 410.353747 131.156684 
L 410.967607 133.280761 
L 411.376846 134.010463 
L 411.786085 134.69878 
L 412.195325 136.492453 
L 413.013804 141.010059 
L 413.832283 144.370999 
L 414.650762 148.896477 
L 415.060001 150.00686 
L 416.492339 152.625156 
L 416.696959 152.958489 
L 417.106198 154.521042 
L 418.129297 159.174837 
L 418.538536 159.952824 
L 418.947776 160.144494 
L 419.357015 160.745442 
L 419.970875 161.96794 
L 420.789353 163.243666 
L 422.017072 165.683421 
L 422.426311 166.123745 
L 422.630931 166.218576 
L 423.24479 166.096534 
L 423.858649 166.375344 
L 424.472509 167.082159 
L 424.881748 167.196222 
L 425.290987 167.697189 
L 425.904847 168.535223 
L 426.314086 168.538776 
L 426.518706 168.503251 
L 426.723326 168.614454 
L 427.132565 169.360458 
L 427.951044 171.016676 
L 428.360283 171.866512 
L 428.974143 173.710154 
L 429.383382 174.254444 
L 429.792621 174.465932 
L 429.997241 174.373178 
L 430.406481 173.940076 
L 430.6111 173.966808 
L 431.02034 174.686746 
L 431.429579 175.294315 
L 431.634199 175.245533 
L 432.043438 174.482033 
L 432.452678 173.695705 
L 432.861917 173.404463 
L 433.271157 173.109393 
L 433.885016 172.385076 
L 434.089636 172.362456 
L 434.294255 172.530074 
L 434.703495 173.52544 
L 435.317354 175.400549 
L 435.726594 175.777951 
L 436.545072 176.106022 
L 436.749692 176.42783 
L 438.18203 179.884175 
L 438.59127 180.794905 
L 439.000509 181.880879 
L 439.205129 182.160967 
L 439.409749 182.132302 
L 439.614368 181.783012 
L 440.228228 180.081097 
L 440.432847 179.91962 
L 440.637467 180.045449 
L 441.046706 180.783789 
L 441.455946 181.53815 
L 441.660566 181.613621 
L 442.069805 181.095381 
L 443.092904 179.130443 
L 443.502143 178.035265 
L 443.706763 177.78627 
L 443.911383 177.758063 
L 444.320622 178.111556 
L 444.934481 179.232064 
L 445.75296 181.006883 
L 445.95758 181.074647 
L 446.366819 180.544711 
L 446.776059 180.063909 
L 446.980678 180.119279 
L 448.003777 181.085155 
L 448.617636 181.16951 
L 449.640735 182.075931 
L 449.845355 181.898359 
L 450.459214 180.752349 
L 450.663834 180.654168 
L 450.868453 180.762043 
L 451.482312 181.453039 
L 451.686932 181.374841 
L 452.505411 180.13587 
L 452.710031 180.249481 
L 453.11927 181.123295 
L 453.733129 182.802761 
L 454.756228 184.706945 
L 455.165468 185.902652 
L 455.370087 186.205936 
L 455.574707 186.310359 
L 455.983946 186.164973 
L 456.393186 185.660145 
L 456.802425 185.120436 
L 457.007045 185.06971 
L 457.416285 185.410532 
L 458.030144 186.132079 
L 458.234763 186.208322 
L 458.439383 186.052742 
L 459.053242 185.25893 
L 459.667102 184.698061 
L 459.871721 184.49674 
L 460.076341 184.469481 
L 461.09944 185.15782 
L 461.508679 185.08588 
L 461.917919 184.814612 
L 462.122538 184.780829 
L 462.327158 184.883974 
L 462.736397 185.606186 
L 463.145637 186.47721 
L 463.350257 186.552313 
L 463.759496 185.942412 
L 464.168736 185.314215 
L 464.577975 184.988216 
L 465.396454 184.921315 
L 466.419553 184.196556 
L 466.828792 183.586293 
L 467.442651 182.547854 
L 467.647271 182.492964 
L 468.46575 183.198974 
L 468.874989 183.811299 
L 469.284229 184.616758 
L 469.693468 184.828843 
L 470.307327 184.90458 
L 470.511947 185.020284 
L 470.921187 185.653232 
L 471.330426 186.366406 
L 471.535046 186.465018 
L 471.739665 186.312628 
L 472.353525 185.452923 
L 472.558144 185.577532 
L 472.967384 186.573916 
L 473.376623 187.750039 
L 473.581243 188.035262 
L 473.785863 188.06781 
L 475.218201 187.097518 
L 475.83206 186.690754 
L 476.03668 186.745879 
L 476.445919 187.170598 
L 477.264398 188.110908 
L 477.673638 188.293833 
L 478.492116 188.302637 
L 478.901356 187.931835 
L 479.105976 187.751419 
L 479.310595 187.74858 
L 479.924455 188.127142 
L 481.356793 188.152665 
L 481.766032 188.029398 
L 482.175271 188.194901 
L 482.584511 188.529837 
L 483.40299 189.466159 
L 483.60761 189.262473 
L 484.630708 187.489881 
L 485.449187 186.693529 
L 485.653807 186.49837 
L 485.858427 186.520937 
L 486.063046 186.823033 
L 486.881525 188.966689 
L 487.086145 189.083548 
L 487.495384 189.08268 
L 487.904624 189.442847 
L 489.950821 192.625591 
L 490.360061 192.66331 
L 490.97392 192.42575 
L 491.383159 192.101051 
L 491.997018 191.46159 
L 492.406258 191.070585 
L 493.224737 189.522365 
L 493.429356 189.440982 
L 493.838596 189.636184 
L 494.247835 189.997303 
L 494.657075 190.712438 
L 495.066314 191.369065 
L 495.270934 191.316986 
L 495.680173 190.389858 
L 496.294033 188.611332 
L 497.521751 186.446564 
L 497.726371 186.379849 
L 498.13561 186.673524 
L 498.54485 186.976419 
L 498.954089 186.990565 
L 499.363329 186.85541 
L 499.567948 186.991114 
L 500.181807 187.79497 
L 500.386427 187.654036 
L 501.000286 186.649573 
L 501.204906 186.720309 
L 502.023385 187.801729 
L 502.637244 187.850265 
L 504.069582 187.080512 
L 504.478822 186.031389 
L 505.297301 183.09438 
L 505.91116 182.180279 
L 506.525019 181.387102 
L 507.343498 179.769781 
L 508.161977 178.809759 
L 508.571216 177.402568 
L 509.594315 171.91891 
L 510.208174 168.955659 
L 511.026653 165.417953 
L 511.845132 160.276 
L 512.663611 153.225449 
L 513.891329 140.38459 
L 515.323667 119.467582 
L 516.960625 95.064269 
L 517.574484 87.137 
L 518.188343 82.210883 
L 518.597583 80.664175 
L 518.802203 80.446658 
L 519.006822 80.628405 
L 519.620682 82.188167 
L 520.029921 83.553862 
L 520.43916 85.540334 
L 521.05302 89.845893 
L 521.871498 97.390476 
L 522.485358 102.577375 
L 523.099217 105.390196 
L 523.508456 106.641114 
L 523.917696 107.181573 
L 524.122315 107.180743 
L 524.531555 106.82048 
L 524.940794 105.966612 
L 525.554654 103.667616 
L 526.577752 98.616085 
L 527.191611 94.338158 
L 528.21471 85.682557 
L 528.623949 83.446099 
L 528.828569 82.746996 
L 529.033189 82.470279 
L 529.237809 82.629269 
L 530.465527 85.517741 
L 530.874766 87.297491 
L 531.284006 89.918104 
L 531.897865 95.995195 
L 534.762541 129.494166 
L 535.78564 136.745064 
L 536.808739 145.160799 
L 537.831837 150.656292 
L 538.854936 155.97964 
L 539.264175 156.957782 
L 539.673415 157.256197 
L 540.082654 157.576849 
L 540.491894 158.365596 
L 541.310373 160.819896 
L 541.719612 161.250073 
L 542.128851 161.371039 
L 542.333471 161.216189 
L 542.94733 160.261178 
L 543.15195 160.353479 
L 543.35657 160.868523 
L 543.970429 163.887916 
L 544.788908 167.913333 
L 545.402767 169.829357 
L 546.425866 172.4365 
L 546.835105 172.645554 
L 547.244345 172.686293 
L 547.653584 173.056254 
L 548.472063 174.230481 
L 549.085922 174.866891 
L 549.495162 175.82172 
L 549.904401 177.150585 
L 550.109021 177.460857 
L 550.313641 177.41329 
L 550.72288 176.741696 
L 551.745979 174.853991 
L 552.155218 174.629874 
L 552.359838 174.749956 
L 552.564458 175.143246 
L 553.178317 177.40153 
L 553.792176 179.296356 
L 553.996796 179.594201 
L 554.201415 179.678721 
L 554.406035 179.499706 
L 554.815275 178.399202 
L 555.224514 177.251323 
L 555.429134 176.989093 
L 555.633753 176.973386 
L 555.838373 177.199596 
L 556.861472 179.31415 
L 557.475331 180.909176 
L 557.679951 181.161899 
L 557.88457 181.156509 
L 558.08919 180.915865 
L 558.49843 179.875909 
L 558.907669 178.801034 
L 559.112289 178.549478 
L 559.316908 178.496132 
L 559.930768 178.817753 
L 560.340007 178.983011 
L 560.749247 179.026541 
L 560.953866 179.180742 
L 561.976965 180.77213 
L 562.386204 181.163374 
L 563.409303 182.791965 
L 564.023162 183.226942 
L 564.227782 183.244566 
L 564.432402 183.069417 
L 565.046261 182.142709 
L 565.4555 182.085896 
L 566.069359 182.194548 
L 566.478599 182.571502 
L 566.887838 183.014803 
L 567.706317 183.421866 
L 568.115557 183.690477 
L 568.320176 183.664246 
L 568.524796 183.39564 
L 569.547895 181.138054 
L 569.752515 181.162964 
L 570.570993 182.268703 
L 571.594092 183.80087 
L 571.798712 183.645088 
L 572.207951 183.105272 
L 572.412571 183.116084 
L 573.23105 183.603704 
L 573.640289 183.751167 
L 574.458768 183.888815 
L 575.277247 183.938417 
L 575.686487 183.578368 
L 575.891106 183.565814 
L 576.095726 183.83328 
L 576.504966 185.073274 
L 576.914205 186.229999 
L 577.118825 186.429893 
L 577.528064 186.324964 
L 578.141923 186.021781 
L 579.574261 185.543264 
L 580.39274 184.933634 
L 580.80198 185.358811 
L 581.620459 186.605894 
L 582.029698 186.873109 
L 582.643557 187.683431 
L 582.848177 187.675133 
L 583.257417 187.146747 
L 583.666656 186.589851 
L 583.871276 186.470169 
L 584.075895 186.51821 
L 584.280515 186.832455 
L 585.098994 188.957038 
L 585.508234 188.958604 
L 586.326712 188.787194 
L 587.349811 187.618341 
L 588.16829 185.777649 
L 588.37291 185.746694 
L 588.577529 186.019411 
L 589.396008 187.817649 
L 589.805248 188.327148 
L 590.009868 188.452955 
L 590.214487 188.350678 
L 590.623727 187.383039 
L 591.237586 185.627879 
L 591.442206 185.304421 
L 591.646825 185.213653 
L 592.056065 185.536771 
L 592.669924 186.094115 
L 592.874544 186.150353 
L 593.079163 186.012375 
L 593.693023 185.142981 
L 593.897642 185.042233 
L 594.102262 185.096384 
L 595.5346 186.301145 
L 595.94384 186.174091 
L 596.353079 186.117741 
L 596.762319 186.067602 
L 597.171558 185.587577 
L 597.785417 184.849556 
L 598.399276 184.684458 
L 599.013135 184.091355 
L 599.422375 184.272789 
L 599.831614 184.685614 
L 600.650093 186.153447 
L 601.673192 188.180723 
L 602.287051 189.370928 
L 602.696291 189.752713 
L 603.31015 189.683991 
L 603.719389 189.968984 
L 604.128629 190.382987 
L 604.333248 190.432008 
L 604.537868 190.204195 
L 605.765586 187.294238 
L 606.174826 187.129017 
L 606.379446 187.186422 
L 606.788685 187.627901 
L 607.197925 188.135126 
L 607.402544 188.26749 
L 607.607164 188.252817 
L 608.016403 187.834218 
L 608.834882 186.620535 
L 609.039502 186.530418 
L 609.244122 186.599241 
L 609.653361 187.147994 
L 610.062601 187.61318 
L 610.26722 187.518232 
L 611.290319 186.345 
L 611.494939 186.4412 
L 612.313418 187.370385 
L 612.518037 187.272507 
L 614.154995 185.184456 
L 614.564235 185.098935 
L 614.973474 184.527189 
L 615.382714 183.972062 
L 615.791953 183.910503 
L 616.201193 184.026755 
L 616.610432 184.613014 
L 617.428911 186.105241 
L 618.24739 186.873945 
L 618.861249 187.797282 
L 619.475108 188.240822 
L 619.884348 188.241462 
L 620.293587 188.184568 
L 620.907446 188.444929 
L 621.112066 188.399694 
L 621.930545 187.755706 
L 622.544404 187.78411 
L 623.158263 187.875309 
L 623.567503 187.562183 
L 623.976742 187.160116 
L 624.385982 187.155498 
L 624.590601 187.214 
L 624.795221 187.14753 
L 625.6137 186.132159 
L 625.81832 186.208029 
L 626.636799 186.92907 
L 627.046038 187.051778 
L 627.250658 187.334503 
L 628.069137 189.161006 
L 628.478376 189.332937 
L 628.887616 189.155121 
L 629.296855 188.801138 
L 629.501475 188.495798 
L 629.910714 187.30767 
L 630.319954 186.063165 
L 630.524573 185.757463 
L 630.729193 185.744004 
L 630.933813 186.023624 
L 631.343052 187.160515 
L 631.956912 188.828397 
L 632.570771 189.369592 
L 632.77539 189.43261 
L 632.98001 189.362503 
L 633.18463 189.086643 
L 633.593869 187.809153 
L 634.207729 185.602687 
L 634.616968 185.078035 
L 634.821588 185.012034 
L 635.026207 185.07436 
L 635.435447 185.667841 
L 635.844686 186.29256 
L 636.458545 186.849653 
L 636.867785 187.278233 
L 637.072405 187.220327 
L 637.277024 186.884816 
L 637.890884 185.320724 
L 638.095503 185.379769 
L 638.504743 186.445706 
L 639.118602 187.951355 
L 639.937081 189.373501 
L 640.141701 189.432881 
L 640.55094 189.15952 
L 641.574039 187.8238 
L 641.983278 187.554705 
L 642.392518 186.833169 
L 643.210996 184.765564 
L 644.029475 183.37791 
L 644.234095 183.404987 
L 644.643335 184.175268 
L 645.052574 184.86031 
L 645.257194 184.917991 
L 645.871053 184.613222 
L 646.280292 184.143525 
L 646.689532 183.670008 
L 646.894152 183.686173 
L 647.91725 184.332377 
L 648.32649 184.272272 
L 648.735729 184.061497 
L 649.554208 184.04692 
L 650.781926 182.102934 
L 651.191166 181.391784 
L 651.395786 181.45543 
L 652.418884 183.274072 
L 653.032743 184.437999 
L 653.237363 184.593601 
L 653.441983 184.525224 
L 654.260462 183.487047 
L 655.078941 183.744627 
L 655.28356 183.800151 
L 655.48818 184.071569 
L 656.306659 185.951855 
L 656.511279 186.018948 
L 658.557476 185.41686 
L 658.966715 184.862414 
L 659.580575 183.777803 
L 660.808293 182.405046 
L 661.012913 182.531716 
L 661.422152 183.380285 
L 662.240631 185.650995 
L 662.445251 185.666621 
L 662.649871 185.322982 
L 663.468349 183.091925 
L 663.672969 183.058935 
L 664.286828 183.673758 
L 665.309927 183.545138 
L 665.719166 182.995017 
L 666.333026 181.989025 
L 666.946885 181.289837 
L 667.356124 180.400603 
L 667.969983 178.878668 
L 668.174603 178.958197 
L 668.583843 179.958202 
L 669.197702 181.974122 
L 669.402322 182.320547 
L 669.606941 182.418334 
L 670.2208 182.362032 
L 670.63004 182.689901 
L 671.448519 183.559172 
L 671.653139 183.484559 
L 672.062378 183.119078 
L 672.266998 183.109064 
L 672.676237 183.572983 
L 673.085477 183.95137 
L 673.290096 183.812918 
L 674.313195 182.390889 
L 674.722434 182.535817 
L 675.131674 182.757718 
L 675.336294 182.694375 
L 675.745533 182.166133 
L 676.154772 181.000614 
L 676.768632 177.948988 
L 677.79173 172.13818 
L 677.99635 171.770206 
L 678.20097 171.924913 
L 679.224068 174.637187 
L 679.633308 175.031627 
L 680.042547 175.215909 
L 680.451787 175.302895 
L 680.861026 176.005449 
L 681.270266 176.754473 
L 681.474885 176.910267 
L 681.679505 176.911167 
L 682.088745 176.411489 
L 683.111843 174.477452 
L 683.521083 173.566494 
L 683.930322 173.131112 
L 684.339562 172.654358 
L 684.748801 171.425506 
L 685.36266 168.376223 
L 685.976519 163.832998 
L 687.408857 150.422594 
L 687.613477 149.778419 
L 687.818097 149.929669 
L 688.022717 150.791053 
L 688.636576 155.450988 
L 690.068914 166.056162 
L 690.478153 167.869414 
L 690.887393 168.803307 
L 691.910491 170.679955 
L 692.319731 171.380932 
L 692.524351 171.236814 
L 692.93359 169.868168 
L 693.752069 166.852322 
L 694.775168 163.269605 
L 695.389027 159.949714 
L 696.002886 155.004028 
L 697.025985 144.299432 
L 697.230604 144.156064 
L 697.435224 144.919714 
L 698.049083 149.660308 
L 699.072182 157.832012 
L 699.890661 162.103239 
L 700.50452 164.105476 
L 701.118379 165.47443 
L 701.322999 165.621889 
L 701.936858 165.583242 
L 702.141478 165.859443 
L 702.959957 167.549039 
L 703.369196 167.731772 
L 703.778436 167.664871 
L 703.983055 167.565273 
L 704.187675 167.339931 
L 704.596915 166.214453 
L 705.824633 161.211156 
L 707.052351 157.210329 
L 707.256971 157.618963 
L 707.87083 160.526657 
L 708.689309 163.937997 
L 709.098549 164.918605 
L 709.303168 164.845366 
L 709.917027 163.79334 
L 710.121647 163.688049 
L 710.530887 163.849461 
L 710.940126 164.279117 
L 711.349366 165.195982 
L 711.758605 166.079112 
L 711.963225 166.047789 
L 712.372464 165.11436 
L 712.781704 164.316613 
L 713.804802 163.272039 
L 714.214042 162.733134 
L 714.418661 162.686414 
L 714.623281 162.905012 
L 716.055619 165.61522 
L 716.464859 165.992057 
L 716.669478 166.009378 
L 717.078718 165.509508 
L 717.487957 165.052071 
L 717.897197 164.991136 
L 718.306436 165.073765 
L 718.715676 165.398108 
L 719.534155 166.344357 
L 720.557253 166.683837 
L 720.966493 166.875666 
L 721.171112 166.753736 
L 721.580352 166.04021 
L 722.194211 164.836977 
L 722.398831 164.808142 
L 722.80807 165.358428 
L 723.21731 166.062958 
L 723.421929 166.188212 
L 723.626549 166.120794 
L 724.035789 165.536474 
L 724.445028 164.776121 
L 724.649648 164.639193 
L 725.058887 164.727324 
L 725.263507 164.954141 
L 725.672746 166.023684 
L 726.081986 167.228089 
L 726.491225 167.745082 
L 726.695845 167.677094 
L 727.309704 166.883267 
L 727.718944 166.254815 
L 728.332803 164.667054 
L 729.355901 161.846542 
L 729.560521 161.620332 
L 729.969761 161.62952 
L 730.379 161.697119 
L 730.78824 161.247607 
L 731.402099 160.616998 
L 731.811338 160.505097 
L 732.220578 160.936968 
L 732.629817 161.398735 
L 732.834437 161.419816 
L 735.085254 160.018516 
L 735.289874 159.772813 
L 735.699113 158.559481 
L 736.108352 157.252549 
L 736.312972 156.946938 
L 736.722212 156.875872 
L 737.336071 156.912324 
L 737.74531 156.88417 
L 738.15455 156.517794 
L 738.768409 155.825045 
L 739.382268 155.620161 
L 740.405367 155.310076 
L 740.814606 155.463861 
L 741.019226 155.28663 
L 741.837705 153.823015 
L 742.246944 152.579005 
L 743.679282 146.43038 
L 744.702381 145.100215 
L 745.11162 144.83749 
L 745.52086 144.853217 
L 745.72548 144.995291 
L 745.930099 145.35314 
L 746.339339 146.839056 
L 746.748578 148.314516 
L 746.953198 148.476978 
L 747.567057 147.7786 
L 747.771677 147.874949 
L 748.180916 148.578317 
L 748.794776 150.038625 
L 749.408635 151.628586 
L 749.613254 151.61641 
L 749.817874 151.190829 
L 750.636353 147.955948 
L 751.045593 145.493478 
L 752.068691 137.606602 
L 752.477931 136.283596 
L 752.88717 135.829887 
L 753.09179 135.825184 
L 753.296409 136.098019 
L 753.705649 137.387343 
L 754.933367 142.199802 
L 755.342607 142.650506 
L 756.570325 143.300981 
L 756.774945 143.276737 
L 757.388804 142.969464 
L 758.207283 143.3244 
L 758.616522 143.047081 
L 759.025762 142.495341 
L 760.04886 140.548234 
L 760.4581 140.391295 
L 761.071959 140.570092 
L 761.481199 140.461493 
L 762.095058 140.582619 
L 762.708917 140.337177 
L 763.732016 140.604925 
L 763.936635 140.378364 
L 764.959734 138.514637 
L 765.164354 138.527654 
L 765.982833 138.999226 
L 767.210551 139.030016 
L 767.61979 139.03205 
L 768.02903 138.961964 
L 768.438269 139.454601 
L 769.052128 140.249259 
L 769.256748 140.173964 
L 769.461368 139.787492 
L 770.484467 136.801254 
L 770.893706 136.205931 
L 771.302945 135.98803 
L 771.916805 136.339557 
L 772.326044 136.861013 
L 772.939903 138.136836 
L 773.349143 138.462467 
L 773.553762 138.373261 
L 774.986101 136.795316 
L 775.59996 135.271404 
L 776.418439 133.144387 
L 776.623058 132.812129 
L 776.827678 132.743311 
L 777.236918 133.249503 
L 777.646157 133.638472 
L 777.850777 133.546432 
L 778.260016 133.124616 
L 778.464636 133.070929 
L 779.078495 133.399512 
L 779.487735 133.042254 
L 779.692354 132.819836 
L 779.896974 132.77531 
L 780.101594 133.021999 
L 780.715453 134.894892 
L 781.329312 136.508889 
L 781.738552 137.04152 
L 781.943171 137.04406 
L 782.352411 136.663447 
L 783.375509 135.104852 
L 783.784749 135.0573 
L 783.989369 135.057487 
L 784.603228 134.607826 
L 784.807847 134.750155 
L 785.217087 135.703946 
L 785.830946 137.316932 
L 786.240186 137.977154 
L 786.444805 138.079655 
L 786.649425 137.950598 
L 787.263284 137.243389 
L 787.672524 137.14989 
L 788.286383 137.126418 
L 788.695622 137.045365 
L 789.104862 137.278232 
L 789.514101 137.654425 
L 789.718721 137.709049 
L 790.33258 137.564819 
L 790.5372 137.807444 
L 791.355679 139.422272 
L 791.560298 139.350641 
L 792.378777 138.02789 
L 792.788017 138.130705 
L 793.401876 138.537746 
L 793.811115 138.479346 
L 794.424975 137.751642 
L 794.834214 137.410975 
L 795.038834 137.468656 
L 795.448073 138.171104 
L 795.857313 138.875096 
L 796.266552 139.417792 
L 797.289651 141.256364 
L 798.10813 141.241712 
L 798.517369 141.828126 
L 799.335848 143.315245 
L 799.745087 143.680535 
L 799.949707 143.526547 
L 800.358947 142.913514 
L 800.768186 142.762887 
L 801.177426 142.753816 
L 801.382045 142.888508 
L 801.791285 143.745657 
L 802.609764 146.133764 
L 803.019003 146.622449 
L 804.042102 147.343463 
L 804.451341 147.645809 
L 805.26982 147.636681 
L 805.883679 147.99714 
L 806.292919 148.445863 
L 806.702158 149.43217 
L 807.316017 151.256457 
L 808.134496 152.968992 
L 808.339116 153.018046 
L 808.543736 152.796491 
L 809.566834 150.657314 
L 809.976074 150.550026 
L 810.794553 150.796629 
L 811.203792 150.739192 
L 811.408412 150.94813 
L 812.226891 152.292536 
L 812.84075 152.492414 
L 813.249989 153.380555 
L 813.659229 154.281496 
L 814.273088 154.908659 
L 815.296187 157.492308 
L 815.910046 158.96387 
L 816.523905 159.778448 
L 816.933145 160.199315 
L 817.547004 161.412839 
L 818.160863 163.242836 
L 818.774722 164.8567 
L 820.00244 167.083501 
L 821.434779 171.093409 
L 822.048638 172.720295 
L 822.457877 173.502799 
L 822.867117 173.74904 
L 823.071736 173.868376 
L 823.480976 174.84606 
L 823.890215 176.025358 
L 824.094835 176.372193 
L 824.299455 176.472984 
L 824.913314 176.007628 
L 825.117934 176.153621 
L 825.936413 177.642807 
L 826.141032 177.588768 
L 826.754891 177.164385 
L 827.164131 177.305282 
L 827.57337 177.798606 
L 828.18723 179.363587 
L 828.801089 181.131956 
L 829.005708 181.454381 
L 829.210328 181.561665 
L 829.414948 181.454967 
L 830.028807 180.730757 
L 830.642666 180.590228 
L 831.665765 179.897219 
L 832.075004 180.318342 
L 832.688863 181.06228 
L 833.098103 181.306689 
L 833.507342 181.249881 
L 834.530441 180.396145 
L 836.372019 180.913405 
L 836.576638 180.718347 
L 837.190497 179.523258 
L 837.599737 178.471392 
L 838.418216 175.922533 
L 838.622836 175.86303 
L 839.236695 176.336311 
L 839.441314 176.159815 
L 840.055174 174.717584 
L 841.692131 170.340379 
L 843.738329 164.610831 
L 845.375287 159.313182 
L 848.239963 148.901734 
L 848.649202 148.060765 
L 849.058442 146.50829 
L 849.672301 144.210619 
L 850.28616 142.723271 
L 851.923118 137.055692 
L 852.332357 136.264198 
L 852.741597 135.967524 
L 853.150836 135.17497 
L 853.764695 133.588785 
L 854.378555 132.324036 
L 854.992414 130.577722 
L 855.401653 129.935577 
L 856.220132 129.150287 
L 856.629372 128.828043 
L 857.243231 128.12976 
L 857.85709 127.920509 
L 858.266329 127.90583 
L 858.880189 128.162953 
L 859.698667 129.166117 
L 860.107907 129.182287 
L 860.517146 129.115306 
L 860.721766 129.270045 
L 861.131006 130.030605 
L 861.744865 132.077475 
L 862.358724 135.398181 
L 863.177203 140.172681 
L 863.586442 141.512693 
L 864.200301 142.931084 
L 864.609541 144.472663 
L 866.655738 155.014579 
L 867.678837 159.264943 
L 868.906555 165.332719 
L 870.543513 176.188768 
L 871.771231 187.890238 
L 873.203569 204.151864 
L 875.045147 228.664117 
L 875.863626 236.138593 
L 876.272865 238.367024 
L 876.886724 240.889307 
L 877.500584 245.282725 
L 878.518992 253 
M 885.372025 253 
L 887.52695 231.955332 
L 889.163908 213.443928 
L 889.573148 211.130348 
L 891.005486 205.342011 
L 891.210105 205.136067 
L 891.414725 205.379075 
L 891.619345 206.099589 
L 892.028584 208.879217 
L 892.642443 215.147398 
L 893.256303 224.293324 
L 893.870162 238.360814 
L 894.322905 253 
M 912.248046 253 
L 912.590384 -1 
M 916.998895 -1 
L 917.308713 253 
M 918.388868 253 
L 918.629149 105.135481 
L 918.777355 -1 
M 941.44253 -1 
L 942.365037 17.541566 
L 943.592755 37.731173 
L 945.434333 60.7147 
L 947.68515 78.963299 
L 949.322108 88.952031 
L 950.345206 96.146094 
L 951.163685 100.78235 
L 951.982164 105.243936 
L 952.800643 108.055409 
L 953.414502 110.037652 
L 953.823742 112.066451 
L 954.642221 116.700709 
L 955.05146 117.850682 
L 955.665319 119.347116 
L 956.893038 123.16717 
L 957.711517 124.341866 
L 958.734615 126.538122 
L 959.553094 128.185109 
L 960.166953 130.019543 
L 960.985432 131.316414 
L 962.82701 136.560403 
L 963.236249 136.700091 
L 963.440869 136.93879 
L 963.850108 138.14916 
L 965.077827 142.967941 
L 965.282446 143.259342 
L 965.487066 143.253175 
L 966.100925 142.73754 
L 966.305545 142.792191 
L 966.714785 143.280455 
L 967.328644 144.00059 
L 967.737883 144.009629 
L 968.556362 143.653164 
L 968.760982 143.85587 
L 969.170221 144.987755 
L 969.78408 146.807408 
L 970.19332 147.358557 
L 971.011799 147.415728 
L 971.216419 147.440547 
L 971.421038 147.315528 
L 971.830278 146.477372 
L 972.239517 145.553849 
L 972.444137 145.579286 
L 973.262616 147.335927 
L 973.671855 147.621256 
L 974.694954 148.768864 
L 975.104193 149.930122 
L 975.922672 153.178084 
L 976.331912 154.208629 
L 976.536531 154.399186 
L 976.741151 154.343976 
L 977.150391 153.83257 
L 977.76425 152.789556 
L 977.96887 152.740338 
L 978.378109 153.160375 
L 978.787348 153.880106 
L 979.196588 155.252618 
L 979.605827 156.691515 
L 980.015067 157.368024 
L 980.833546 158.194058 
L 981.447405 158.184743 
L 982.265884 158.422398 
L 982.470504 158.290077 
L 982.675123 157.999294 
L 983.084363 156.746853 
L 983.698222 154.429092 
L 984.107461 153.87046 
L 984.312081 153.970047 
L 984.516701 154.399575 
L 984.92594 156.175321 
L 985.744419 160.104159 
L 986.153659 161.004849 
L 986.358278 161.108399 
L 986.767518 160.969154 
L 987.176757 160.614335 
L 987.381377 160.280501 
L 987.790616 158.894871 
L 988.609095 155.573073 
L 989.632194 152.755853 
L 989.836814 152.956955 
L 990.246053 154.3442 
L 991.269152 159.060943 
L 991.678391 159.623182 
L 992.087631 160.163785 
L 992.49687 160.779982 
L 992.70149 160.902397 
L 992.90611 160.859064 
L 993.315349 160.345405 
L 994.338448 158.091781 
L 994.543067 158.148477 
L 994.952307 158.998793 
L 995.361546 159.863473 
L 995.566166 159.999528 
L 996.180025 159.987454 
L 996.998504 161.067825 
L 997.203124 160.980648 
L 997.612363 160.245924 
L 998.226222 158.485827 
L 999.249321 154.638695 
L 999.453941 154.328786 
L 999.658561 154.321452 
L 999.86318 154.653257 
L 1000.27242 156.158037 
L 1001.295518 160.632385 
L 1001.704758 161.563226 
L 1002.113997 162.005254 
L 1002.523237 162.200743 
L 1003.137096 162.278536 
L 1003.341716 162.461445 
L 1003.750955 163.403721 
L 1004.364814 164.907266 
L 1004.774054 165.403966 
L 1005.183293 165.524634 
L 1005.592533 165.383205 
L 1006.001772 165.529641 
L 1006.411012 165.652492 
L 1006.820251 165.595599 
L 1007.43411 165.34327 
L 1008.252589 165.530445 
L 1008.661829 165.73674 
L 1009.480307 165.678846 
L 1010.094167 166.584585 
L 1010.708026 167.507991 
L 1011.117265 167.572841 
L 1011.731124 167.617697 
L 1011.935744 167.749992 
L 1012.344984 168.450171 
L 1013.572702 171.374365 
L 1014.186561 171.687784 
L 1014.595801 172.176272 
L 1014.80042 172.266043 
L 1015.00504 172.173865 
L 1015.618899 171.537759 
L 1015.823519 171.477169 
L 1016.232758 171.7809 
L 1016.437378 171.94341 
L 1016.641998 171.894335 
L 1016.846618 171.552342 
L 1017.665097 169.449654 
L 1018.278956 168.451353 
L 1019.097435 166.606677 
L 1019.302054 166.610539 
L 1019.506674 166.965081 
L 1019.915914 168.532123 
L 1020.529773 171.221703 
L 1020.939012 172.352097 
L 1021.552871 173.481143 
L 1021.757491 173.67767 
L 1021.962111 173.633826 
L 1022.16673 173.331821 
L 1023.189829 170.850864 
L 1023.803688 170.29294 
L 1024.417547 169.384207 
L 1024.622167 169.373134 
L 1025.031407 169.721509 
L 1026.054505 170.956437 
L 1026.463745 170.922606 
L 1027.691463 170.550067 
L 1028.100703 171.296567 
L 1028.509942 172.122404 
L 1028.714562 172.297057 
L 1028.919181 172.268994 
L 1029.533041 171.911379 
L 1030.760759 172.380725 
L 1031.579238 172.623046 
L 1031.988477 172.903017 
L 1033.011576 173.947863 
L 1033.216196 173.771916 
L 1033.830055 172.814434 
L 1034.034675 172.870038 
L 1034.443914 173.446081 
L 1035.057773 174.505579 
L 1035.262393 174.585252 
L 1035.467013 174.405348 
L 1036.490111 172.591995 
L 1036.694731 172.68893 
L 1037.103971 173.285803 
L 1037.71783 174.391494 
L 1038.127069 174.689436 
L 1038.740928 174.679205 
L 1039.150168 175.115135 
L 1039.559407 175.806482 
L 1039.764027 175.962255 
L 1039.968647 175.871775 
L 1041.196365 174.38676 
L 1041.605605 174.632367 
L 1041.810224 174.759794 
L 1042.014844 174.708605 
L 1042.424083 174.075854 
L 1042.833323 173.289611 
L 1043.242562 173.110586 
L 1043.447182 173.02131 
L 1043.856422 172.278528 
L 1044.265661 171.511075 
L 1044.470281 171.374701 
L 1044.6749 171.409911 
L 1045.08414 171.923038 
L 1045.493379 172.901734 
L 1046.516478 175.752726 
L 1046.925717 176.013864 
L 1047.539577 176.119694 
L 1047.744196 176.031046 
L 1048.153436 175.391463 
L 1048.971915 173.690277 
L 1049.381154 173.397704 
L 1049.585774 173.478597 
L 1049.995013 173.963751 
L 1050.404253 174.745168 
L 1051.018112 176.09096 
L 1051.222732 176.200917 
L 1051.427351 176.067498 
L 1052.24583 175.070337 
L 1053.473549 174.425507 
L 1053.882788 174.739746 
L 1054.496647 175.457698 
L 1055.110507 176.770196 
L 1055.928985 177.642871 
L 1056.338225 177.808065 
L 1056.542845 177.732445 
L 1057.361324 176.987953 
L 1057.770563 176.959448 
L 1058.179802 176.685367 
L 1058.589042 176.362745 
L 1059.202901 176.25699 
L 1059.81676 176.197082 
L 1060.839859 176.721803 
L 1061.862957 177.899567 
L 1062.272197 177.948636 
L 1062.681436 177.47087 
L 1063.295296 176.608613 
L 1063.909155 176.22767 
L 1064.318394 176.323481 
L 1065.136873 177.109804 
L 1065.750732 177.309021 
L 1066.159972 177.37475 
L 1066.569211 177.373078 
L 1066.773831 177.48508 
L 1067.18307 178.232293 
L 1068.001549 180.283749 
L 1068.206169 180.477928 
L 1068.410789 180.493512 
L 1068.615408 180.309847 
L 1069.433887 178.979405 
L 1069.638507 179.005423 
L 1070.047747 179.50068 
L 1070.252366 179.772561 
L 1070.456986 179.849593 
L 1070.661606 179.630823 
L 1071.480085 177.910635 
L 1071.684704 177.949382 
L 1072.093944 178.626887 
L 1072.707803 179.919146 
L 1073.321662 180.44947 
L 1073.730902 180.874817 
L 1074.754 182.325581 
L 1074.95862 182.273236 
L 1075.777099 181.450818 
L 1076.595578 181.160242 
L 1077.004817 181.39132 
L 1077.823296 182.070338 
L 1078.232536 182.03557 
L 1078.641775 181.701826 
L 1079.460254 180.624337 
L 1080.278733 179.262322 
L 1080.483353 179.157797 
L 1080.687972 179.254674 
L 1081.301832 179.918092 
L 1081.915691 180.237305 
L 1082.52955 180.798814 
L 1082.938789 180.745383 
L 1083.552649 180.179858 
L 1083.961888 180.001024 
L 1086.621944 181.580274 
L 1086.826564 181.911253 
L 1088.258902 185.485076 
L 1088.872761 186.067527 
L 1089.077381 186.09208 
L 1089.282001 185.966411 
L 1089.69124 185.172733 
L 1090.714339 182.254147 
L 1090.918959 182.086295 
L 1091.328198 182.175848 
L 1091.942057 182.497619 
L 1092.760536 182.6386 
L 1093.374395 183.454557 
L 1093.579015 183.493337 
L 1093.988255 183.34068 
L 1094.192874 183.460389 
L 1094.806734 184.211507 
L 1095.420593 184.152057 
L 1095.625212 184.08767 
L 1096.239072 183.530129 
L 1096.443691 183.780072 
L 1097.057551 184.977409 
L 1097.46679 184.866733 
L 1098.080649 184.681556 
L 1098.489889 184.255767 
L 1099.103748 183.529091 
L 1099.308367 183.476602 
L 1099.512987 183.597563 
L 1100.536086 184.917869 
L 1100.740706 185.120196 
L 1101.149945 185.978235 
L 1102.173044 188.434277 
L 1102.582283 188.986225 
L 1102.991523 189.206746 
L 1103.400762 189.235054 
L 1103.605382 189.083756 
L 1104.014621 188.22004 
L 1104.62848 186.625275 
L 1104.8331 186.358731 
L 1105.03772 186.276842 
L 1105.24234 186.484363 
L 1106.060818 188.379242 
L 1106.470058 188.517326 
L 1106.674678 188.750146 
L 1107.493157 190.32546 
L 1108.107016 190.65376 
L 1108.720875 191.063608 
L 1108.925495 191.062522 
L 1109.130114 190.926504 
L 1109.539354 190.176516 
L 1110.153213 188.279394 
L 1110.971692 184.78861 
L 1111.380931 181.835266 
L 1112.19941 172.492626 
L 1113.427129 157.517661 
L 1114.450227 148.137818 
L 1114.859467 146.175915 
L 1115.473326 143.841553 
L 1115.882565 141.190449 
L 1116.291805 136.694962 
L 1116.701044 128.443648 
L 1117.110284 114.457152 
L 1117.519523 93.194699 
L 1117.928763 62.305949 
L 1118.483032 -1 
M 1122.317681 -1 
L 1122.839636 23.230433 
L 1123.453495 42.437339 
L 1124.885833 77.725829 
L 1125.908932 99.193726 
L 1126.727411 112.813116 
L 1127.54589 122.446832 
L 1128.568988 131.229412 
L 1129.387467 136.879292 
L 1131.229045 147.371148 
L 1131.638284 148.03488 
L 1132.252144 148.525653 
L 1132.866003 149.024276 
L 1133.275242 150.013033 
L 1134.502961 154.728861 
L 1135.526059 156.333079 
L 1135.935299 156.607778 
L 1136.139918 156.931599 
L 1136.549158 158.18454 
L 1137.367637 161.009835 
L 1137.776876 161.744974 
L 1138.390735 162.35185 
L 1138.595355 162.399076 
L 1138.799975 162.254372 
L 1139.209214 161.270824 
L 1139.618454 160.036848 
L 1140.027693 159.503169 
L 1140.232313 159.589489 
L 1140.641552 160.281039 
L 1141.460031 161.800839 
L 1141.664651 161.78313 
L 1142.48313 160.753293 
L 1142.68775 160.824753 
L 1143.096989 161.566853 
L 1144.120088 164.453957 
L 1144.324707 164.601798 
L 1144.733947 164.56883 
L 1144.938567 164.692065 
L 1145.347806 165.433606 
L 1145.757045 166.158524 
L 1146.166285 166.468886 
L 1146.575524 166.460785 
L 1146.984764 166.243779 
L 1147.394003 165.948873 
L 1147.598623 166.112454 
L 1148.007862 167.211322 
L 1148.417102 168.342733 
L 1148.826341 168.838262 
L 1149.030961 168.802028 
L 1149.235581 168.541455 
L 1150.05406 166.655534 
L 1150.258679 166.525401 
L 1150.667919 166.617985 
L 1150.872539 166.509615 
L 1151.486398 165.735222 
L 1152.918736 165.398693 
L 1153.941835 165.794923 
L 1154.351074 165.662921 
L 1154.760313 166.128538 
L 1155.988032 168.134994 
L 1156.397271 168.099123 
L 1156.806511 167.990891 
L 1157.42037 168.149811 
L 1158.034229 168.11859 
L 1158.443469 168.161917 
L 1158.852708 167.490191 
L 1159.261947 166.975504 
L 1159.671187 167.067464 
L 1160.694286 167.696955 
L 1161.103525 168.600175 
L 1161.922004 170.756432 
L 1162.331243 171.120007 
L 1162.740483 171.159878 
L 1163.149722 170.673127 
L 1163.763581 169.585374 
L 1164.172821 169.357811 
L 1164.377441 169.429383 
L 1164.78668 169.953662 
L 1165.19592 170.49948 
L 1165.605159 170.58996 
L 1166.219018 170.687076 
L 1166.423638 170.580772 
L 1167.242117 169.733902 
L 1167.651356 170.460062 
L 1168.060596 170.959559 
L 1168.469835 170.770818 
L 1168.674455 170.674027 
L 1168.879075 170.715107 
L 1169.288314 171.34047 
L 1170.106793 173.245948 
L 1170.311413 173.423323 
L 1170.516032 173.36333 
L 1171.743751 172.100599 
L 1172.15299 171.925653 
L 1172.766849 171.895347 
L 1172.971469 171.748172 
L 1173.380709 170.958296 
L 1173.789948 170.335468 
L 1173.994568 170.473537 
L 1174.403807 171.625464 
L 1175.017666 173.661799 
L 1175.426906 174.3318 
L 1176.245385 174.48092 
L 1176.859244 175.029076 
L 1177.268483 175.40947 
L 1177.473103 175.380651 
L 1177.677723 175.075812 
L 1178.496202 173.042763 
L 1178.700821 172.996549 
L 1179.314681 173.309073 
L 1179.72392 173.87734 
L 1180.337779 175.275759 
L 1180.542399 175.325068 
L 1180.951638 174.593114 
L 1182.383977 171.327181 
L 1182.588596 171.227338 
L 1182.793216 171.266373 
L 1183.202455 171.676898 
L 1183.816315 172.293766 
L 1184.430174 172.547825 
L 1184.839413 172.694133 
L 1184.839413 172.694133 
" clip-path="url(#pe9cf4f1e09)" style="fill: none; stroke: #000000; stroke-width: 2; stroke-linecap: square"/>
   </g>
   <g id="patch_3">
    <path d="M 3.00024 198.907885 
L 1184.99976 198.907885 
" style="fill: none; stroke: #000000; stroke-width: 2; stroke-linejoin: miter; stroke-linecap: square"/>
   </g>
  </g>
 </g>
 <defs>
  <clipPath id="pe9cf4f1e09">
   <rect x="3.00024" y="3.00024" width="1181.99952" height="195.907645"/>
  </clipPath>
 </defs>
</svg>
