<?xml version="1.0" encoding="utf-8" standalone="no"?>
<!DOCTYPE svg PUBLIC "-//W3C//DTD SVG 1.1//EN"
  "http://www.w3.org/Graphics/SVG/1.1/DTD/svg11.dtd">
<svg xmlns:xlink="http://www.w3.org/1999/xlink" width="1188pt" height="252pt" viewBox="0 0 1188 252" xmlns="http://www.w3.org/2000/svg" version="1.1">
 <metadata>
  <rdf:RDF xmlns:dc="http://purl.org/dc/elements/1.1/" xmlns:cc="http://creativecommons.org/ns#" xmlns:rdf="http://www.w3.org/1999/02/22-rdf-syntax-ns#">
   <cc:Work>
    <dc:type rdf:resource="http://purl.org/dc/dcmitype/StillImage"/>
    <dc:date>2024-07-23T21:43:18.882569</dc:date>
    <dc:format>image/svg+xml</dc:format>
    <dc:creator>
     <cc:Agent>
      <dc:title>Matplotlib v3.8.4, https://matplotlib.org/</dc:title>
     </cc:Agent>
    </dc:creator>
   </cc:Work>
  </rdf:RDF>
 </metadata>
 <defs>
  <style type="text/css">*{stroke-linejoin: round; stroke-linecap: butt}</style>
 </defs>
 <g id="figure_1">
  <g id="patch_1">
   <path d="M 0 252 
L 1188 252 
L 1188 0 
L 0 0 
z
" style="fill: #ffffff"/>
  </g>
  <g id="axes_1">
   <g id="patch_2">
    <path d="M 3.00024 198.907885 
L 1184.99976 198.907885 
L 1184.99976 3.00024 
L 3.00024 3.00024 
z
" style="fill: #ffffff"/>
   </g>
   <g id="matplotlib.axis_1">
    <g id="xtick_1">
     <g id="line2d_1">
      <defs>
       <path id="m6d202b0841" d="M 0 0 
L 0 8 
" style="stroke: #000000; stroke-width: 2"/>
      </defs>
      <g>
       <use xlink:href="#m6d202b0841" x="1131.272509" y="198.907885" style="stroke: #000000; stroke-width: 2"/>
      </g>
     </g>
     <g id="text_1">
      <!-- 0 -->
      <g transform="translate(1126.267665 224.791947) scale(0.18 -0.18)">
       <defs>
        <path id="Arial-BoldMT-30" d="M 1756 4600 
Q 2422 4600 2797 4125 
Q 3244 3563 3244 2259 
Q 3244 959 2794 391 
Q 2422 -78 1756 -78 
Q 1088 -78 678 436 
Q 269 950 269 2269 
Q 269 3563 719 4131 
Q 1091 4600 1756 4600 
z
M 1756 3872 
Q 1597 3872 1472 3770 
Q 1347 3669 1278 3406 
Q 1188 3066 1188 2259 
Q 1188 1453 1269 1151 
Q 1350 850 1473 750 
Q 1597 650 1756 650 
Q 1916 650 2041 751 
Q 2166 853 2234 1116 
Q 2325 1453 2325 2259 
Q 2325 3066 2244 3367 
Q 2163 3669 2039 3770 
Q 1916 3872 1756 3872 
z
" transform="scale(0.015625)"/>
       </defs>
       <use xlink:href="#Arial-BoldMT-30"/>
      </g>
     </g>
    </g>
    <g id="xtick_2">
     <g id="line2d_2">
      <g>
       <use xlink:href="#m6d202b0841" x="1023.818007" y="198.907885" style="stroke: #000000; stroke-width: 2"/>
      </g>
     </g>
     <g id="text_2">
      <!-- 1 -->
      <g transform="translate(1018.813164 224.791947) scale(0.18 -0.18)">
       <defs>
        <path id="Arial-BoldMT-31" d="M 2519 0 
L 1641 0 
L 1641 3309 
Q 1159 2859 506 2644 
L 506 3441 
Q 850 3553 1253 3867 
Q 1656 4181 1806 4600 
L 2519 4600 
L 2519 0 
z
" transform="scale(0.015625)"/>
       </defs>
       <use xlink:href="#Arial-BoldMT-31"/>
      </g>
     </g>
    </g>
    <g id="xtick_3">
     <g id="line2d_3">
      <g>
       <use xlink:href="#m6d202b0841" x="916.363505" y="198.907885" style="stroke: #000000; stroke-width: 2"/>
      </g>
     </g>
     <g id="text_3">
      <!-- 2 -->
      <g transform="translate(911.358662 224.791947) scale(0.18 -0.18)">
       <defs>
        <path id="Arial-BoldMT-32" d="M 3238 816 
L 3238 0 
L 159 0 
Q 209 463 459 877 
Q 709 1291 1447 1975 
Q 2041 2528 2175 2725 
Q 2356 2997 2356 3263 
Q 2356 3556 2198 3714 
Q 2041 3872 1763 3872 
Q 1488 3872 1325 3706 
Q 1163 3541 1138 3156 
L 263 3244 
Q 341 3969 753 4284 
Q 1166 4600 1784 4600 
Q 2463 4600 2850 4234 
Q 3238 3869 3238 3325 
Q 3238 3016 3127 2736 
Q 3016 2456 2775 2150 
Q 2616 1947 2200 1565 
Q 1784 1184 1673 1059 
Q 1563 934 1494 816 
L 3238 816 
z
" transform="scale(0.015625)"/>
       </defs>
       <use xlink:href="#Arial-BoldMT-32"/>
      </g>
     </g>
    </g>
    <g id="xtick_4">
     <g id="line2d_4">
      <g>
       <use xlink:href="#m6d202b0841" x="808.909004" y="198.907885" style="stroke: #000000; stroke-width: 2"/>
      </g>
     </g>
     <g id="text_4">
      <!-- 3 -->
      <g transform="translate(803.90416 224.791947) scale(0.18 -0.18)">
       <defs>
        <path id="Arial-BoldMT-33" d="M 241 1216 
L 1091 1319 
Q 1131 994 1309 822 
Q 1488 650 1741 650 
Q 2013 650 2198 856 
Q 2384 1063 2384 1413 
Q 2384 1744 2206 1937 
Q 2028 2131 1772 2131 
Q 1603 2131 1369 2066 
L 1466 2781 
Q 1822 2772 2009 2936 
Q 2197 3100 2197 3372 
Q 2197 3603 2059 3740 
Q 1922 3878 1694 3878 
Q 1469 3878 1309 3722 
Q 1150 3566 1116 3266 
L 306 3403 
Q 391 3819 561 4067 
Q 731 4316 1036 4458 
Q 1341 4600 1719 4600 
Q 2366 4600 2756 4188 
Q 3078 3850 3078 3425 
Q 3078 2822 2419 2463 
Q 2813 2378 3048 2084 
Q 3284 1791 3284 1375 
Q 3284 772 2843 347 
Q 2403 -78 1747 -78 
Q 1125 -78 715 280 
Q 306 638 241 1216 
z
" transform="scale(0.015625)"/>
       </defs>
       <use xlink:href="#Arial-BoldMT-33"/>
      </g>
     </g>
    </g>
    <g id="xtick_5">
     <g id="line2d_5">
      <g>
       <use xlink:href="#m6d202b0841" x="701.454502" y="198.907885" style="stroke: #000000; stroke-width: 2"/>
      </g>
     </g>
     <g id="text_5">
      <!-- 4 -->
      <g transform="translate(696.449658 224.791947) scale(0.18 -0.18)">
       <defs>
        <path id="Arial-BoldMT-34" d="M 1994 0 
L 1994 922 
L 119 922 
L 119 1691 
L 2106 4600 
L 2844 4600 
L 2844 1694 
L 3413 1694 
L 3413 922 
L 2844 922 
L 2844 0 
L 1994 0 
z
M 1994 1694 
L 1994 3259 
L 941 1694 
L 1994 1694 
z
" transform="scale(0.015625)"/>
       </defs>
       <use xlink:href="#Arial-BoldMT-34"/>
      </g>
     </g>
    </g>
    <g id="xtick_6">
     <g id="line2d_6">
      <g>
       <use xlink:href="#m6d202b0841" x="594" y="198.907885" style="stroke: #000000; stroke-width: 2"/>
      </g>
     </g>
     <g id="text_6">
      <!-- 5 -->
      <g transform="translate(588.995156 224.791947) scale(0.18 -0.18)">
       <defs>
        <path id="Arial-BoldMT-35" d="M 284 1178 
L 1159 1269 
Q 1197 972 1381 798 
Q 1566 625 1806 625 
Q 2081 625 2272 848 
Q 2463 1072 2463 1522 
Q 2463 1944 2273 2155 
Q 2084 2366 1781 2366 
Q 1403 2366 1103 2031 
L 391 2134 
L 841 4519 
L 3163 4519 
L 3163 3697 
L 1506 3697 
L 1369 2919 
Q 1663 3066 1969 3066 
Q 2553 3066 2959 2641 
Q 3366 2216 3366 1538 
Q 3366 972 3038 528 
Q 2591 -78 1797 -78 
Q 1163 -78 763 262 
Q 363 603 284 1178 
z
" transform="scale(0.015625)"/>
       </defs>
       <use xlink:href="#Arial-BoldMT-35"/>
      </g>
     </g>
    </g>
    <g id="xtick_7">
     <g id="line2d_7">
      <g>
       <use xlink:href="#m6d202b0841" x="486.545498" y="198.907885" style="stroke: #000000; stroke-width: 2"/>
      </g>
     </g>
     <g id="text_7">
      <!-- 6 -->
      <g transform="translate(481.540654 224.791947) scale(0.18 -0.18)">
       <defs>
        <path id="Arial-BoldMT-36" d="M 3247 3459 
L 2397 3366 
Q 2366 3628 2234 3753 
Q 2103 3878 1894 3878 
Q 1616 3878 1423 3628 
Q 1231 3378 1181 2588 
Q 1509 2975 1997 2975 
Q 2547 2975 2939 2556 
Q 3331 2138 3331 1475 
Q 3331 772 2918 347 
Q 2506 -78 1859 -78 
Q 1166 -78 719 461 
Q 272 1000 272 2228 
Q 272 3488 737 4044 
Q 1203 4600 1947 4600 
Q 2469 4600 2811 4308 
Q 3153 4016 3247 3459 
z
M 1256 1544 
Q 1256 1116 1453 883 
Q 1650 650 1903 650 
Q 2147 650 2309 840 
Q 2472 1031 2472 1466 
Q 2472 1913 2297 2120 
Q 2122 2328 1859 2328 
Q 1606 2328 1431 2129 
Q 1256 1931 1256 1544 
z
" transform="scale(0.015625)"/>
       </defs>
       <use xlink:href="#Arial-BoldMT-36"/>
      </g>
     </g>
    </g>
    <g id="xtick_8">
     <g id="line2d_8">
      <g>
       <use xlink:href="#m6d202b0841" x="379.090996" y="198.907885" style="stroke: #000000; stroke-width: 2"/>
      </g>
     </g>
     <g id="text_8">
      <!-- 7 -->
      <g transform="translate(374.086153 224.791947) scale(0.18 -0.18)">
       <defs>
        <path id="Arial-BoldMT-37" d="M 272 3703 
L 272 4519 
L 3275 4519 
L 3275 3881 
Q 2903 3516 2518 2831 
Q 2134 2147 1932 1376 
Q 1731 606 1734 0 
L 888 0 
Q 909 950 1279 1937 
Q 1650 2925 2269 3703 
L 272 3703 
z
" transform="scale(0.015625)"/>
       </defs>
       <use xlink:href="#Arial-BoldMT-37"/>
      </g>
     </g>
    </g>
    <g id="xtick_9">
     <g id="line2d_9">
      <g>
       <use xlink:href="#m6d202b0841" x="271.636495" y="198.907885" style="stroke: #000000; stroke-width: 2"/>
      </g>
     </g>
     <g id="text_9">
      <!-- 8 -->
      <g transform="translate(266.631651 224.791947) scale(0.18 -0.18)">
       <defs>
        <path id="Arial-BoldMT-38" d="M 1025 2472 
Q 684 2616 529 2867 
Q 375 3119 375 3419 
Q 375 3931 733 4265 
Q 1091 4600 1750 4600 
Q 2403 4600 2764 4265 
Q 3125 3931 3125 3419 
Q 3125 3100 2959 2851 
Q 2794 2603 2494 2472 
Q 2875 2319 3073 2025 
Q 3272 1731 3272 1347 
Q 3272 713 2867 316 
Q 2463 -81 1791 -81 
Q 1166 -81 750 247 
Q 259 634 259 1309 
Q 259 1681 443 1992 
Q 628 2303 1025 2472 
z
M 1206 3356 
Q 1206 3094 1354 2947 
Q 1503 2800 1750 2800 
Q 2000 2800 2150 2948 
Q 2300 3097 2300 3359 
Q 2300 3606 2151 3754 
Q 2003 3903 1759 3903 
Q 1506 3903 1356 3753 
Q 1206 3603 1206 3356 
z
M 1125 1394 
Q 1125 1031 1311 828 
Q 1497 625 1775 625 
Q 2047 625 2225 820 
Q 2403 1016 2403 1384 
Q 2403 1706 2222 1901 
Q 2041 2097 1763 2097 
Q 1441 2097 1283 1875 
Q 1125 1653 1125 1394 
z
" transform="scale(0.015625)"/>
       </defs>
       <use xlink:href="#Arial-BoldMT-38"/>
      </g>
     </g>
    </g>
    <g id="xtick_10">
     <g id="line2d_10">
      <g>
       <use xlink:href="#m6d202b0841" x="164.181993" y="198.907885" style="stroke: #000000; stroke-width: 2"/>
      </g>
     </g>
     <g id="text_10">
      <!-- 9 -->
      <g transform="translate(159.177149 224.791947) scale(0.18 -0.18)">
       <defs>
        <path id="Arial-BoldMT-39" d="M 291 1059 
L 1141 1153 
Q 1172 894 1303 769 
Q 1434 644 1650 644 
Q 1922 644 2112 894 
Q 2303 1144 2356 1931 
Q 2025 1547 1528 1547 
Q 988 1547 595 1964 
Q 203 2381 203 3050 
Q 203 3747 617 4173 
Q 1031 4600 1672 4600 
Q 2369 4600 2816 4061 
Q 3263 3522 3263 2288 
Q 3263 1031 2797 475 
Q 2331 -81 1584 -81 
Q 1047 -81 715 205 
Q 384 491 291 1059 
z
M 2278 2978 
Q 2278 3403 2083 3637 
Q 1888 3872 1631 3872 
Q 1388 3872 1227 3680 
Q 1066 3488 1066 3050 
Q 1066 2606 1241 2398 
Q 1416 2191 1678 2191 
Q 1931 2191 2104 2391 
Q 2278 2591 2278 2978 
z
" transform="scale(0.015625)"/>
       </defs>
       <use xlink:href="#Arial-BoldMT-39"/>
      </g>
     </g>
    </g>
    <g id="xtick_11">
     <g id="line2d_11">
      <g>
       <use xlink:href="#m6d202b0841" x="56.727491" y="198.907885" style="stroke: #000000; stroke-width: 2"/>
      </g>
     </g>
     <g id="text_11">
      <!-- 10 -->
      <g transform="translate(46.717803 224.791947) scale(0.18 -0.18)">
       <use xlink:href="#Arial-BoldMT-31"/>
       <use xlink:href="#Arial-BoldMT-30" x="55.615234"/>
      </g>
     </g>
    </g>
    <g id="text_12">
     <!-- Chemical Shift / ppm -->
     <g transform="translate(504.992813 245.447573) scale(0.18 -0.18)">
      <defs>
       <path id="Arial-BoldMT-43" d="M 3397 1684 
L 4294 1400 
Q 4088 650 3608 286 
Q 3128 -78 2391 -78 
Q 1478 -78 890 545 
Q 303 1169 303 2250 
Q 303 3394 893 4026 
Q 1484 4659 2447 4659 
Q 3288 4659 3813 4163 
Q 4125 3869 4281 3319 
L 3366 3100 
Q 3284 3456 3026 3662 
Q 2769 3869 2400 3869 
Q 1891 3869 1573 3503 
Q 1256 3138 1256 2319 
Q 1256 1450 1568 1081 
Q 1881 713 2381 713 
Q 2750 713 3015 947 
Q 3281 1181 3397 1684 
z
" transform="scale(0.015625)"/>
       <path id="Arial-BoldMT-68" d="M 1334 4581 
L 1334 2897 
Q 1759 3394 2350 3394 
Q 2653 3394 2897 3281 
Q 3141 3169 3264 2994 
Q 3388 2819 3433 2606 
Q 3478 2394 3478 1947 
L 3478 0 
L 2600 0 
L 2600 1753 
Q 2600 2275 2550 2415 
Q 2500 2556 2373 2639 
Q 2247 2722 2056 2722 
Q 1838 2722 1666 2615 
Q 1494 2509 1414 2295 
Q 1334 2081 1334 1663 
L 1334 0 
L 456 0 
L 456 4581 
L 1334 4581 
z
" transform="scale(0.015625)"/>
       <path id="Arial-BoldMT-65" d="M 2381 1056 
L 3256 909 
Q 3088 428 2723 176 
Q 2359 -75 1813 -75 
Q 947 -75 531 491 
Q 203 944 203 1634 
Q 203 2459 634 2926 
Q 1066 3394 1725 3394 
Q 2466 3394 2894 2905 
Q 3322 2416 3303 1406 
L 1103 1406 
Q 1113 1016 1316 798 
Q 1519 581 1822 581 
Q 2028 581 2168 693 
Q 2309 806 2381 1056 
z
M 2431 1944 
Q 2422 2325 2234 2523 
Q 2047 2722 1778 2722 
Q 1491 2722 1303 2513 
Q 1116 2303 1119 1944 
L 2431 1944 
z
" transform="scale(0.015625)"/>
       <path id="Arial-BoldMT-6d" d="M 394 3319 
L 1203 3319 
L 1203 2866 
Q 1638 3394 2238 3394 
Q 2556 3394 2790 3262 
Q 3025 3131 3175 2866 
Q 3394 3131 3647 3262 
Q 3900 3394 4188 3394 
Q 4553 3394 4806 3245 
Q 5059 3097 5184 2809 
Q 5275 2597 5275 2122 
L 5275 0 
L 4397 0 
L 4397 1897 
Q 4397 2391 4306 2534 
Q 4184 2722 3931 2722 
Q 3747 2722 3584 2609 
Q 3422 2497 3350 2280 
Q 3278 2063 3278 1594 
L 3278 0 
L 2400 0 
L 2400 1819 
Q 2400 2303 2353 2443 
Q 2306 2584 2207 2653 
Q 2109 2722 1941 2722 
Q 1738 2722 1575 2612 
Q 1413 2503 1342 2297 
Q 1272 2091 1272 1613 
L 1272 0 
L 394 0 
L 394 3319 
z
" transform="scale(0.015625)"/>
       <path id="Arial-BoldMT-69" d="M 459 3769 
L 459 4581 
L 1338 4581 
L 1338 3769 
L 459 3769 
z
M 459 0 
L 459 3319 
L 1338 3319 
L 1338 0 
L 459 0 
z
" transform="scale(0.015625)"/>
       <path id="Arial-BoldMT-63" d="M 3353 2338 
L 2488 2181 
Q 2444 2441 2289 2572 
Q 2134 2703 1888 2703 
Q 1559 2703 1364 2476 
Q 1169 2250 1169 1719 
Q 1169 1128 1367 884 
Q 1566 641 1900 641 
Q 2150 641 2309 783 
Q 2469 925 2534 1272 
L 3397 1125 
Q 3263 531 2881 228 
Q 2500 -75 1859 -75 
Q 1131 -75 698 384 
Q 266 844 266 1656 
Q 266 2478 700 2936 
Q 1134 3394 1875 3394 
Q 2481 3394 2839 3133 
Q 3197 2872 3353 2338 
z
" transform="scale(0.015625)"/>
       <path id="Arial-BoldMT-61" d="M 1116 2306 
L 319 2450 
Q 453 2931 781 3162 
Q 1109 3394 1756 3394 
Q 2344 3394 2631 3255 
Q 2919 3116 3036 2902 
Q 3153 2688 3153 2116 
L 3144 1091 
Q 3144 653 3186 445 
Q 3228 238 3344 0 
L 2475 0 
Q 2441 88 2391 259 
Q 2369 338 2359 363 
Q 2134 144 1878 34 
Q 1622 -75 1331 -75 
Q 819 -75 523 203 
Q 228 481 228 906 
Q 228 1188 362 1408 
Q 497 1628 739 1745 
Q 981 1863 1438 1950 
Q 2053 2066 2291 2166 
L 2291 2253 
Q 2291 2506 2166 2614 
Q 2041 2722 1694 2722 
Q 1459 2722 1328 2630 
Q 1197 2538 1116 2306 
z
M 2291 1594 
Q 2122 1538 1756 1459 
Q 1391 1381 1278 1306 
Q 1106 1184 1106 997 
Q 1106 813 1243 678 
Q 1381 544 1594 544 
Q 1831 544 2047 700 
Q 2206 819 2256 991 
Q 2291 1103 2291 1419 
L 2291 1594 
z
" transform="scale(0.015625)"/>
       <path id="Arial-BoldMT-6c" d="M 459 0 
L 459 4581 
L 1338 4581 
L 1338 0 
L 459 0 
z
" transform="scale(0.015625)"/>
       <path id="Arial-BoldMT-20" transform="scale(0.015625)"/>
       <path id="Arial-BoldMT-53" d="M 231 1491 
L 1131 1578 
Q 1213 1125 1461 912 
Q 1709 700 2131 700 
Q 2578 700 2804 889 
Q 3031 1078 3031 1331 
Q 3031 1494 2936 1608 
Q 2841 1722 2603 1806 
Q 2441 1863 1863 2006 
Q 1119 2191 819 2459 
Q 397 2838 397 3381 
Q 397 3731 595 4036 
Q 794 4341 1167 4500 
Q 1541 4659 2069 4659 
Q 2931 4659 3367 4281 
Q 3803 3903 3825 3272 
L 2900 3231 
Q 2841 3584 2645 3739 
Q 2450 3894 2059 3894 
Q 1656 3894 1428 3728 
Q 1281 3622 1281 3444 
Q 1281 3281 1419 3166 
Q 1594 3019 2269 2859 
Q 2944 2700 3267 2529 
Q 3591 2359 3773 2064 
Q 3956 1769 3956 1334 
Q 3956 941 3737 597 
Q 3519 253 3119 86 
Q 2719 -81 2122 -81 
Q 1253 -81 787 320 
Q 322 722 231 1491 
z
" transform="scale(0.015625)"/>
       <path id="Arial-BoldMT-66" d="M 75 3319 
L 563 3319 
L 563 3569 
Q 563 3988 652 4194 
Q 741 4400 980 4529 
Q 1219 4659 1584 4659 
Q 1959 4659 2319 4547 
L 2200 3934 
Q 1991 3984 1797 3984 
Q 1606 3984 1523 3895 
Q 1441 3806 1441 3553 
L 1441 3319 
L 2097 3319 
L 2097 2628 
L 1441 2628 
L 1441 0 
L 563 0 
L 563 2628 
L 75 2628 
L 75 3319 
z
" transform="scale(0.015625)"/>
       <path id="Arial-BoldMT-74" d="M 1981 3319 
L 1981 2619 
L 1381 2619 
L 1381 1281 
Q 1381 875 1398 808 
Q 1416 741 1477 697 
Q 1538 653 1625 653 
Q 1747 653 1978 738 
L 2053 56 
Q 1747 -75 1359 -75 
Q 1122 -75 931 4 
Q 741 84 652 211 
Q 563 338 528 553 
Q 500 706 500 1172 
L 500 2619 
L 97 2619 
L 97 3319 
L 500 3319 
L 500 3978 
L 1381 4491 
L 1381 3319 
L 1981 3319 
z
" transform="scale(0.015625)"/>
       <path id="Arial-BoldMT-2f" d="M -9 -78 
L 1125 4659 
L 1784 4659 
L 638 -78 
L -9 -78 
z
" transform="scale(0.015625)"/>
       <path id="Arial-BoldMT-70" d="M 434 3319 
L 1253 3319 
L 1253 2831 
Q 1413 3081 1684 3237 
Q 1956 3394 2288 3394 
Q 2866 3394 3269 2941 
Q 3672 2488 3672 1678 
Q 3672 847 3265 386 
Q 2859 -75 2281 -75 
Q 2006 -75 1782 34 
Q 1559 144 1313 409 
L 1313 -1263 
L 434 -1263 
L 434 3319 
z
M 1303 1716 
Q 1303 1156 1525 889 
Q 1747 622 2066 622 
Q 2372 622 2575 867 
Q 2778 1113 2778 1672 
Q 2778 2194 2568 2447 
Q 2359 2700 2050 2700 
Q 1728 2700 1515 2451 
Q 1303 2203 1303 1716 
z
" transform="scale(0.015625)"/>
      </defs>
      <use xlink:href="#Arial-BoldMT-43"/>
      <use xlink:href="#Arial-BoldMT-68" x="72.216797"/>
      <use xlink:href="#Arial-BoldMT-65" x="133.300781"/>
      <use xlink:href="#Arial-BoldMT-6d" x="188.916016"/>
      <use xlink:href="#Arial-BoldMT-69" x="277.832031"/>
      <use xlink:href="#Arial-BoldMT-63" x="305.615234"/>
      <use xlink:href="#Arial-BoldMT-61" x="361.230469"/>
      <use xlink:href="#Arial-BoldMT-6c" x="416.845703"/>
      <use xlink:href="#Arial-BoldMT-20" x="444.628906"/>
      <use xlink:href="#Arial-BoldMT-53" x="472.412109"/>
      <use xlink:href="#Arial-BoldMT-68" x="539.111328"/>
      <use xlink:href="#Arial-BoldMT-69" x="600.195312"/>
      <use xlink:href="#Arial-BoldMT-66" x="627.978516"/>
      <use xlink:href="#Arial-BoldMT-74" x="661.279297"/>
      <use xlink:href="#Arial-BoldMT-20" x="694.580078"/>
      <use xlink:href="#Arial-BoldMT-2f" x="722.363281"/>
      <use xlink:href="#Arial-BoldMT-20" x="750.146484"/>
      <use xlink:href="#Arial-BoldMT-70" x="777.929688"/>
      <use xlink:href="#Arial-BoldMT-70" x="839.013672"/>
      <use xlink:href="#Arial-BoldMT-6d" x="900.097656"/>
     </g>
    </g>
   </g>
   <g id="matplotlib.axis_2"/>
   <g id="line2d_12">
    <path d="M 3.044311 189.616127 
L 3.24893 189.383822 
L 3.45355 189.335747 
L 3.86279 189.581088 
L 4.476649 190.011762 
L 4.681268 189.916923 
L 5.499747 188.872861 
L 5.704367 188.943008 
L 6.113607 189.525426 
L 6.522846 190.49672 
L 7.136705 192.12589 
L 7.341325 192.288876 
L 7.545945 192.226937 
L 8.773663 191.046099 
L 9.182902 191.09176 
L 9.796762 191.282336 
L 11.2291 191.000369 
L 11.842959 190.383326 
L 12.047579 190.351874 
L 12.456818 190.682191 
L 12.866058 191.068171 
L 13.889156 191.495466 
L 14.503015 191.323858 
L 15.321494 190.78917 
L 16.344593 190.835314 
L 16.753832 191.136386 
L 17.163072 191.486913 
L 17.572311 191.528918 
L 17.981551 191.375727 
L 18.39079 190.973262 
L 18.80003 190.490857 
L 19.004649 190.422779 
L 19.413889 190.738612 
L 19.823128 190.996783 
L 20.232368 190.777927 
L 20.846227 190.240619 
L 21.050847 190.188612 
L 21.255466 190.310421 
L 21.664706 191.071275 
L 22.073945 191.913587 
L 22.483185 192.246732 
L 22.892424 192.592776 
L 23.301664 193.118704 
L 23.506283 193.163813 
L 23.915523 192.762038 
L 24.529382 192.148237 
L 25.7571 191.310753 
L 26.16634 191.219707 
L 26.370959 191.289647 
L 26.780199 191.758326 
L 27.189438 192.172447 
L 27.394058 192.158514 
L 28.007917 191.679144 
L 28.826396 191.094312 
L 29.235636 190.802137 
L 30.258734 188.967011 
L 30.463354 188.91528 
L 31.077213 189.267117 
L 31.895692 189.848363 
L 32.304932 189.777388 
L 32.714171 189.384649 
L 33.12341 188.968045 
L 33.53265 188.870309 
L 33.941889 189.096199 
L 34.351129 189.736555 
L 35.169608 191.383866 
L 35.374227 191.510571 
L 35.783467 191.414628 
L 36.397326 191.088173 
L 37.215805 189.971895 
L 37.829664 190.001416 
L 38.034284 189.798908 
L 38.443523 188.971011 
L 39.057383 187.586424 
L 39.262002 187.38095 
L 39.466622 187.377777 
L 39.875861 187.762446 
L 40.489721 188.294788 
L 41.10358 188.706357 
L 41.3082 188.704702 
L 42.126678 188.217882 
L 42.535918 188.253611 
L 42.740538 188.119387 
L 43.149777 187.399435 
L 43.559017 186.662446 
L 43.763636 186.529188 
L 43.968256 186.633684 
L 44.786735 187.626774 
L 45.809834 188.452808 
L 47.037552 190.167851 
L 47.651411 190.460577 
L 48.46989 190.657223 
L 48.879129 190.770271 
L 49.697608 191.242193 
L 49.902228 191.093553 
L 50.516087 190.354702 
L 50.720707 190.477545 
L 52.153045 192.293566 
L 52.562284 192.270597 
L 53.176144 191.816472 
L 53.994623 191.039753 
L 54.608482 189.818359 
L 55.222341 188.605448 
L 55.426961 188.43253 
L 55.63158 188.599171 
L 56.654679 190.909323 
L 56.859299 190.79862 
L 57.677778 189.883264 
L 58.291637 189.205592 
L 58.700876 188.759605 
L 59.110116 188.686148 
L 59.519355 188.701115 
L 60.542454 187.795484 
L 60.951693 187.774861 
L 61.360933 188.077658 
L 62.384031 189.445347 
L 62.793271 189.705241 
L 63.20251 189.74904 
L 63.61175 189.558395 
L 64.430229 188.939352 
L 64.839468 188.858928 
L 65.862567 189.179313 
L 66.476426 189.510527 
L 66.681046 189.485214 
L 66.885665 189.28912 
L 68.113384 187.201203 
L 68.522623 187.139954 
L 68.931863 187.332668 
L 69.341102 187.875219 
L 70.364201 189.504113 
L 70.77344 189.822152 
L 71.796539 191.325031 
L 72.001159 191.207637 
L 72.410398 190.254758 
L 73.024257 188.657386 
L 73.228877 188.478191 
L 73.433497 188.500056 
L 73.842736 188.984116 
L 74.251976 189.445278 
L 74.661215 189.399272 
L 75.684314 188.970046 
L 76.912032 189.462107 
L 77.730511 190.49265 
L 78.34437 190.656395 
L 78.54899 190.59287 
L 78.958229 190.034386 
L 79.367469 189.569362 
L 79.572088 189.600745 
L 79.981328 190.109637 
L 80.595187 190.965261 
L 80.799807 191.031545 
L 81.004427 190.916979 
L 82.232145 189.499077 
L 82.436765 189.61185 
L 82.846004 190.343252 
L 83.664483 192.076642 
L 83.869103 192.242111 
L 84.073722 192.141616 
L 84.892201 190.72599 
L 85.71068 189.392857 
L 85.9153 189.266497 
L 86.11992 189.295121 
L 86.529159 189.760145 
L 87.143018 190.579351 
L 87.347638 190.592663 
L 87.552258 190.395811 
L 88.370737 189.151793 
L 88.779976 189.153586 
L 89.189216 189.241252 
L 89.598455 189.038192 
L 90.007695 188.668766 
L 90.212314 188.738913 
L 90.416934 189.061229 
L 91.235413 191.240951 
L 91.440033 191.329445 
L 92.463131 190.502238 
L 92.667751 190.402501 
L 93.07699 189.713587 
L 93.48623 188.927833 
L 93.69085 188.995014 
L 93.895469 189.493766 
L 94.713948 192.363092 
L 94.918568 192.368472 
L 95.327807 191.482016 
L 95.941667 189.75104 
L 96.350906 189.151999 
L 96.760145 188.975908 
L 97.169385 189.172899 
L 97.578624 189.557705 
L 97.987864 190.206683 
L 98.806343 191.777087 
L 99.215582 191.961869 
L 100.238681 191.742324 
L 101.261779 190.451542 
L 101.671019 190.273519 
L 102.080258 189.784906 
L 102.489498 189.286568 
L 102.898737 189.063644 
L 103.307977 189.095303 
L 104.126456 189.679721 
L 104.535695 189.503561 
L 105.558794 188.404526 
L 106.377273 188.468121 
L 106.786512 188.520265 
L 107.195752 188.46681 
L 107.400371 188.600206 
L 108.01423 189.424516 
L 108.21885 189.494042 
L 108.62809 189.335678 
L 109.241949 188.939766 
L 109.651188 189.030329 
L 111.083526 189.516597 
L 111.697386 189.671444 
L 112.925104 190.097842 
L 113.334343 189.796839 
L 113.948203 188.763882 
L 114.562062 187.811762 
L 114.766681 187.622704 
L 114.971301 187.594701 
L 116.403639 188.401285 
L 117.222118 189.590123 
L 117.631358 189.729175 
L 118.040597 189.527426 
L 118.449837 189.109304 
L 119.472935 187.609116 
L 119.677555 187.550005 
L 120.086794 187.888117 
L 120.700654 188.595309 
L 121.109893 188.702702 
L 121.519132 188.381627 
L 121.928372 187.97868 
L 122.337611 188.04524 
L 122.951471 188.527507 
L 123.36071 189.473143 
L 123.769949 190.44423 
L 124.179189 190.677708 
L 124.793048 190.689227 
L 125.202288 191.202257 
L 125.611527 191.616791 
L 126.020766 191.399661 
L 126.634626 191.05817 
L 126.839245 191.047961 
L 127.043865 191.173287 
L 127.657724 192.004909 
L 127.862344 191.995322 
L 128.066964 191.651968 
L 129.090062 188.444393 
L 129.294682 188.484605 
L 130.113161 189.486248 
L 130.5224 189.590951 
L 131.13626 189.342299 
L 131.340879 189.155862 
L 132.159358 187.861907 
L 132.773217 188.370453 
L 133.387077 188.205812 
L 133.796316 188.341415 
L 134.000936 188.27789 
L 134.410175 187.770516 
L 134.819415 186.854263 
L 135.228654 185.860966 
L 135.433274 185.635352 
L 135.637894 185.650457 
L 136.047133 186.171005 
L 137.479471 188.565098 
L 137.684091 188.549027 
L 138.09333 188.022478 
L 138.911809 186.552294 
L 139.116429 186.447591 
L 139.321049 186.489045 
L 139.525668 186.668171 
L 140.344147 187.993371 
L 140.548767 187.906188 
L 140.958006 187.40578 
L 141.162626 187.395158 
L 141.367246 187.644776 
L 141.981105 188.907072 
L 142.185725 189.025087 
L 142.594964 188.676078 
L 142.799584 188.495641 
L 143.004204 188.482191 
L 143.618063 188.85679 
L 144.436542 188.881552 
L 145.255021 189.533358 
L 145.86888 190.268277 
L 146.0735 190.281107 
L 146.482739 189.852639 
L 147.301218 188.173394 
L 147.915077 187.014214 
L 148.528936 186.23384 
L 148.938176 185.991258 
L 149.552035 185.822754 
L 149.961274 185.110596 
L 150.370514 184.449272 
L 150.575134 184.329326 
L 150.779753 184.368365 
L 151.598232 185.098939 
L 151.802852 184.957404 
L 152.416711 184.126473 
L 152.825951 184.109367 
L 153.43981 184.501347 
L 154.053669 185.177777 
L 154.462908 186.109549 
L 155.076768 187.708163 
L 155.486007 188.331966 
L 155.690627 188.517644 
L 155.895247 188.551096 
L 156.099866 188.38142 
L 156.713725 187.096086 
L 157.327585 186.043472 
L 158.759923 184.574667 
L 158.964542 184.511486 
L 159.373782 184.851184 
L 159.578402 185.015963 
L 159.783021 185.029896 
L 159.987641 184.856909 
L 161.419979 182.680843 
L 161.624599 182.546068 
L 161.829219 182.569864 
L 162.238458 183.114966 
L 162.647698 183.595027 
L 162.852317 183.627445 
L 163.056937 183.492324 
L 163.466176 182.775407 
L 164.284655 180.53285 
L 165.307754 177.86755 
L 165.716993 177.249196 
L 166.126233 176.992819 
L 166.330853 177.069588 
L 166.944712 177.643591 
L 167.149332 177.500952 
L 167.353951 177.004269 
L 167.763191 174.987189 
L 168.37705 171.856313 
L 168.990909 169.460288 
L 169.604768 165.759686 
L 170.218627 160.802237 
L 170.832487 153.766113 
L 171.446346 143.269762 
L 172.060205 128.205459 
L 172.674064 107.184961 
L 173.287923 80.153916 
L 174.720261 5.589806 
L 174.924881 3.00024 
L 175.129501 4.644929 
L 175.334121 10.308191 
L 175.74336 30.641776 
L 176.971078 103.425386 
L 177.584938 127.008344 
L 178.198797 142.775356 
L 179.017276 158.061962 
L 179.631135 166.623864 
L 180.040374 169.935658 
L 180.858853 174.133702 
L 181.268093 175.685345 
L 181.881952 176.896256 
L 182.495811 177.885069 
L 183.31429 178.947892 
L 183.723529 179.629081 
L 184.337389 181.119889 
L 185.769727 185.341659 
L 186.178966 185.982498 
L 186.588206 186.216183 
L 186.792825 186.116239 
L 187.202065 185.575344 
L 187.815924 184.755517 
L 188.020544 184.646814 
L 188.225163 184.665161 
L 188.839023 185.026379 
L 189.248262 184.764966 
L 189.657501 184.558527 
L 190.47598 184.317945 
L 190.88522 184.645158 
L 192.112938 185.9965 
L 192.522178 186.284881 
L 193.545276 186.252325 
L 193.954516 185.506232 
L 194.568375 184.354501 
L 196.000713 182.074215 
L 196.409952 181.704859 
L 196.819192 181.382197 
L 197.228431 180.398212 
L 197.637671 179.382153 
L 197.842291 179.107222 
L 198.04691 179.02066 
L 198.865389 179.108119 
L 199.274629 179.129087 
L 199.683868 179.415123 
L 199.888488 179.437678 
L 200.093108 179.298419 
L 200.502347 178.500181 
L 201.320826 176.325287 
L 201.730065 175.946757 
L 201.934685 175.970001 
L 202.343925 176.477513 
L 203.162403 178.151654 
L 203.367023 178.30657 
L 203.571643 178.198143 
L 204.185502 177.054827 
L 204.390122 176.992681 
L 205.208601 177.384593 
L 205.61784 177.009856 
L 206.02708 176.597873 
L 206.231699 176.640292 
L 206.436319 176.904325 
L 207.254798 178.721312 
L 207.459418 178.719381 
L 207.664037 178.440656 
L 208.073277 177.327206 
L 209.096375 174.183777 
L 209.505615 173.428993 
L 210.119474 172.730078 
L 210.528714 172.58737 
L 211.142573 172.957969 
L 211.551812 172.695108 
L 211.961052 172.524673 
L 212.98415 172.855749 
L 213.39339 172.61358 
L 213.802629 171.872591 
L 215.030348 168.311869 
L 215.644207 165.331633 
L 216.462686 160.107115 
L 217.076545 155.113455 
L 217.690404 147.026785 
L 219.122742 123.784146 
L 219.327362 122.700148 
L 219.531982 122.702218 
L 219.736601 123.712344 
L 220.145841 128.381413 
L 221.578179 150.711316 
L 222.192038 156.865123 
L 222.805897 160.348387 
L 223.419756 162.365606 
L 223.828996 163.087282 
L 224.033616 163.242612 
L 224.238235 163.167637 
L 224.647475 162.41168 
L 225.056714 161.324579 
L 225.465954 159.489866 
L 226.079813 154.700644 
L 226.693672 148.110576 
L 227.307531 138.427086 
L 227.92139 123.70924 
L 228.944489 90.042397 
L 229.558348 71.979443 
L 229.967588 66.359565 
L 230.172207 66.52531 
L 230.376827 68.799182 
L 230.786067 78.81161 
L 232.627644 136.720734 
L 233.241503 147.332065 
L 234.059982 156.940167 
L 234.878461 163.668183 
L 235.49232 166.971701 
L 236.106179 169.149422 
L 236.720039 170.469518 
L 237.333898 171.172227 
L 238.152377 171.700638 
L 239.175475 171.430398 
L 239.584715 171.552206 
L 239.993954 171.278861 
L 240.403194 170.939784 
L 241.017053 170.861706 
L 241.630912 171.065662 
L 242.040152 171.109254 
L 242.449391 170.898124 
L 243.06325 170.482762 
L 243.677109 170.451792 
L 243.881729 170.25894 
L 244.290969 169.334342 
L 244.700208 167.668547 
L 245.518687 164.008501 
L 245.927926 162.632536 
L 246.337166 160.390875 
L 246.951025 155.149597 
L 247.564884 147.218672 
L 248.178743 135.704745 
L 250.020321 96.83187 
L 250.42956 92.722596 
L 250.8388 90.812908 
L 251.043419 90.394235 
L 251.248039 90.259597 
L 251.452659 90.459967 
L 251.657279 91.087218 
L 252.066518 93.901847 
L 252.475758 98.833776 
L 253.089617 109.346336 
L 254.726575 141.115423 
L 255.340434 149.159122 
L 255.954293 154.066772 
L 256.363532 156.126271 
L 256.772772 157.128604 
L 256.977392 157.223581 
L 257.591251 156.847258 
L 257.79587 156.681927 
L 258.00049 156.340781 
L 258.20511 155.698149 
L 258.614349 153.297089 
L 260.046687 141.035413 
L 260.865166 133.885758 
L 261.274406 131.882955 
L 261.479026 131.453384 
L 261.683645 131.396687 
L 261.888265 131.709347 
L 262.502124 133.790022 
L 262.911364 135.821656 
L 263.525223 141.017756 
L 264.139082 147.902619 
L 265.162181 160.05435 
L 265.77604 164.045816 
L 267.822237 173.820628 
L 268.640716 174.952219 
L 269.254575 176.738581 
L 269.868434 179.43216 
L 270.686913 183.376103 
L 271.096153 184.57984 
L 271.505392 185.181364 
L 271.710012 185.218817 
L 271.914632 185.003203 
L 272.528491 183.800777 
L 272.733111 183.671588 
L 273.14235 183.840851 
L 273.756209 184.264697 
L 274.574688 184.454997 
L 274.779308 184.315117 
L 275.188547 183.630203 
L 276.211646 181.799491 
L 276.416266 181.653404 
L 276.825505 181.770936 
L 277.234745 181.915782 
L 278.871702 181.758314 
L 279.485562 182.248927 
L 279.894801 182.93653 
L 280.30404 183.531777 
L 280.50866 183.511637 
L 281.531759 182.630768 
L 282.350238 181.075262 
L 282.554857 181.003667 
L 283.168717 181.487728 
L 283.577956 181.326742 
L 283.987195 180.834405 
L 284.396435 180.093691 
L 284.601055 179.956708 
L 284.805674 180.067205 
L 285.624153 181.073883 
L 286.033393 180.973525 
L 286.442632 180.543885 
L 287.261111 179.267243 
L 288.07959 177.195534 
L 288.28421 177.111662 
L 288.488829 177.316308 
L 288.898069 178.442587 
L 289.511928 180.346205 
L 289.716548 180.550783 
L 290.125787 180.568233 
L 290.739646 180.446701 
L 291.148886 180.441873 
L 291.967365 179.864421 
L 292.581224 180.372829 
L 292.785844 180.185151 
L 293.604323 178.440104 
L 293.808942 178.387132 
L 294.013562 178.587157 
L 294.422802 179.485477 
L 295.24128 181.605536 
L 295.65052 182.005034 
L 296.264379 182.031796 
L 296.878238 181.846807 
L 297.287478 181.897986 
L 297.492097 181.797905 
L 297.901337 181.144443 
L 298.515196 180.070102 
L 299.129055 179.400501 
L 299.742914 179.166126 
L 299.947534 179.1504 
L 300.152154 179.27345 
L 300.561393 180.157216 
L 301.175253 181.983445 
L 301.379872 182.282379 
L 301.584492 182.331972 
L 301.993731 182.222648 
L 302.402971 182.410671 
L 302.81221 182.554275 
L 303.630689 182.598074 
L 304.039929 182.048212 
L 304.653788 180.78295 
L 304.858408 180.569199 
L 305.063027 180.522503 
L 305.267647 180.640656 
L 305.676887 181.392681 
L 306.290746 182.838242 
L 306.495365 183.058408 
L 306.699985 183.049372 
L 306.904605 182.764509 
L 307.927704 180.119694 
L 308.746182 180.50388 
L 309.155422 180.480291 
L 309.564661 180.829921 
L 310.178521 181.432411 
L 310.38314 181.413305 
L 310.79238 180.94428 
L 311.610859 179.722265 
L 311.815478 179.733853 
L 312.224718 180.272265 
L 312.838577 181.142719 
L 313.043197 181.258458 
L 313.247816 181.167481 
L 313.657056 180.468566 
L 314.066295 179.77441 
L 314.270915 179.691641 
L 314.475535 179.822898 
L 314.884774 180.550507 
L 315.294014 181.234317 
L 315.498633 181.291979 
L 315.907873 180.89455 
L 316.317112 180.468566 
L 316.726352 180.506019 
L 317.135591 180.476015 
L 317.544831 180.05272 
L 318.772549 178.460797 
L 319.591028 177.686286 
L 320.204887 176.881081 
L 320.409507 176.819073 
L 320.818746 177.118352 
L 321.432606 177.928799 
L 322.046465 178.806081 
L 322.455704 178.808771 
L 323.274183 178.641716 
L 323.683422 178.785941 
L 323.888042 178.873193 
L 324.092662 178.837533 
L 324.911141 178.186762 
L 325.115761 178.417964 
L 325.72962 179.816346 
L 326.138859 180.705009 
L 326.343479 180.95711 
L 326.548099 180.999391 
L 326.957338 180.641967 
L 327.571197 180.134524 
L 327.980437 180.120177 
L 328.594296 180.355586 
L 328.798916 180.260608 
L 329.208155 179.642669 
L 329.822014 178.623369 
L 330.026634 178.449761 
L 330.435873 178.505561 
L 330.845113 178.545497 
L 331.254352 178.442587 
L 331.458972 178.537565 
L 331.868212 179.167437 
L 332.482071 180.484706 
L 332.89131 180.889791 
L 333.505169 181.049811 
L 333.914409 180.908759 
L 334.323648 180.442907 
L 334.732888 179.606044 
L 336.165226 175.824535 
L 336.369846 175.764941 
L 337.188324 175.994211 
L 337.597564 175.802739 
L 338.006803 175.326059 
L 338.620663 174.272064 
L 339.234522 172.655655 
L 339.848381 170.273839 
L 341.076099 164.7099 
L 341.689958 162.849666 
L 341.894578 162.543628 
L 342.099198 162.632122 
L 342.303818 163.140806 
L 343.531536 167.699102 
L 344.759254 168.851453 
L 344.963874 168.904633 
L 345.168494 168.790135 
L 345.577733 168.119362 
L 346.396212 166.431219 
L 346.600832 166.316239 
L 346.805452 166.435288 
L 347.214691 167.295189 
L 347.82855 168.720127 
L 348.23779 169.239157 
L 348.442409 169.283025 
L 348.851649 168.932429 
L 349.465508 168.319594 
L 349.874748 168.367876 
L 350.283987 168.440298 
L 350.693226 168.079357 
L 351.307086 167.463555 
L 351.920945 167.346782 
L 352.330184 166.605103 
L 352.739424 165.710025 
L 352.944043 165.529865 
L 353.353283 165.66802 
L 353.557903 165.724717 
L 353.762522 165.609116 
L 354.171762 164.999177 
L 355.39948 162.785658 
L 355.80872 162.126265 
L 356.627199 159.557253 
L 357.854917 155.077243 
L 358.468776 151.713373 
L 359.082635 146.9754 
L 359.696494 140.526177 
L 360.310354 131.088649 
L 361.128832 113.774822 
L 361.947311 91.744197 
L 363.584269 46.336571 
L 363.993509 39.892936 
L 364.402748 37.102655 
L 364.607368 36.629768 
L 364.811988 36.662531 
L 365.016607 37.253846 
L 365.425847 40.137173 
L 365.835086 45.197877 
L 366.448945 56.936246 
L 367.267424 79.155239 
L 368.290523 108.255992 
L 368.904382 120.77301 
L 369.518241 129.187307 
L 370.1321 134.879814 
L 370.54134 137.40013 
L 371.155199 139.576265 
L 371.564439 140.391815 
L 372.996777 141.591621 
L 373.201396 141.652732 
L 373.406016 141.531269 
L 373.610636 141.155359 
L 374.224495 138.96543 
L 374.838354 136.531124 
L 375.247594 134.036329 
L 376.066073 127.05497 
L 377.90765 110.416608 
L 378.930749 103.055961 
L 380.158467 92.907033 
L 380.772326 87.853088 
L 382.409284 71.031324 
L 382.818524 68.931336 
L 383.023143 68.367058 
L 383.227763 68.200969 
L 383.432383 68.553772 
L 383.637002 69.506788 
L 384.046242 73.027091 
L 384.660101 80.688328 
L 385.6832 94.468608 
L 386.297059 99.80307 
L 387.115538 105.031381 
L 387.524777 106.574126 
L 387.934017 107.08012 
L 388.138636 107.04584 
L 388.343256 106.774841 
L 388.752496 105.548135 
L 389.366355 102.719849 
L 389.775594 99.404054 
L 390.389453 91.708331 
L 391.821792 72.837895 
L 392.64027 63.619498 
L 393.04951 60.719065 
L 393.458749 59.471805 
L 393.663369 59.510775 
L 393.867989 59.93407 
L 394.277228 61.699119 
L 394.686468 65.215974 
L 395.300327 73.931963 
L 397.755764 114.83599 
L 399.188102 134.365473 
L 400.2112 144.787746 
L 400.825059 150.035577 
L 401.438919 153.055197 
L 402.257398 155.35921 
L 403.280496 158.070446 
L 403.689736 158.854131 
L 404.098975 160.31659 
L 404.712834 163.00203 
L 405.122074 163.752055 
L 405.326693 163.782818 
L 405.531313 163.62735 
L 406.145172 162.521901 
L 406.554412 161.925757 
L 406.759032 161.945829 
L 407.168271 162.686818 
L 407.78213 163.862276 
L 408.19137 164.160865 
L 408.600609 164.352544 
L 409.214468 165.158508 
L 409.828327 166.294857 
L 411.465285 170.463104 
L 411.874525 171.386668 
L 413.102243 173.131576 
L 414.125342 175.262947 
L 414.534581 175.452074 
L 415.14844 175.438555 
L 415.55768 175.811292 
L 416.376159 177.247472 
L 416.580778 177.297202 
L 417.194638 176.930536 
L 418.422356 176.852733 
L 419.036215 176.453855 
L 419.445455 176.267832 
L 419.854694 176.488204 
L 420.263934 177.070415 
L 421.287032 178.971274 
L 422.105511 178.575639 
L 423.333229 179.69978 
L 424.560948 179.500789 
L 424.765568 179.548657 
L 424.970187 179.74344 
L 425.379427 180.558715 
L 425.993286 181.963029 
L 426.402525 182.407085 
L 426.811765 182.549309 
L 427.221004 182.566898 
L 427.630244 182.883006 
L 428.244103 184.054808 
L 428.653342 184.661436 
L 428.857962 184.665437 
L 429.267202 184.198344 
L 429.881061 183.283677 
L 430.08568 183.22229 
L 430.2903 183.392863 
L 431.313399 185.001893 
L 431.722638 185.093766 
L 432.745737 184.775933 
L 433.154976 184.989891 
L 433.564216 185.255787 
L 433.973455 185.226266 
L 434.382695 185.194745 
L 434.587314 185.388562 
L 435.405793 186.940067 
L 435.815033 186.936273 
L 436.019653 186.93448 
L 436.428892 187.279351 
L 436.838131 187.656433 
L 437.247371 187.724303 
L 438.06585 187.467167 
L 438.679709 186.988349 
L 439.088948 186.805291 
L 439.498188 186.760251 
L 439.907427 186.129069 
L 440.316667 185.624661 
L 440.521286 185.703636 
L 440.930526 186.318127 
L 441.953625 188.840236 
L 442.567484 189.217732 
L 442.976723 189.83443 
L 443.385963 190.499617 
L 443.590582 190.620735 
L 443.795202 190.508238 
L 444.204442 189.673927 
L 444.818301 188.435703 
L 445.43216 187.559455 
L 445.841399 187.105191 
L 447.069118 185.164258 
L 447.478357 185.426498 
L 447.887597 185.734605 
L 448.296836 185.681771 
L 449.524554 185.308276 
L 450.752273 185.49092 
L 451.366132 185.323657 
L 451.775371 185.39477 
L 452.59385 186.068854 
L 453.412329 186.892889 
L 453.616949 186.801015 
L 455.253907 185.006997 
L 455.458527 185.103354 
L 456.277005 186.058508 
L 457.095484 186.317023 
L 457.913963 187.120848 
L 458.323203 187.305285 
L 458.527822 187.282386 
L 459.141682 186.880335 
L 459.346301 186.981727 
L 459.960161 187.912258 
L 460.983259 189.439829 
L 461.801738 189.24877 
L 462.210978 189.484593 
L 462.824837 189.493491 
L 463.234076 189.358577 
L 463.643316 188.909555 
L 464.461795 187.63105 
L 465.280273 187.313217 
L 465.894133 187.000488 
L 466.303372 187.028492 
L 466.712612 187.24983 
L 467.53109 187.96861 
L 467.73571 187.89936 
L 468.349569 186.881163 
L 468.554189 186.933721 
L 468.963429 187.805141 
L 469.372668 188.817613 
L 469.577288 189.07937 
L 469.781907 189.089785 
L 469.986527 188.817475 
L 471.009626 186.316333 
L 471.214246 186.457455 
L 471.623485 187.658157 
L 472.441964 190.732267 
L 473.055823 192.233213 
L 473.260443 192.510007 
L 473.465063 192.584568 
L 473.669682 192.414409 
L 474.078922 191.479671 
L 474.692781 189.732141 
L 474.897401 189.44107 
L 475.10202 189.392236 
L 476.125119 189.807737 
L 477.148218 189.259323 
L 477.557457 188.746362 
L 478.171316 187.817625 
L 478.375936 187.875977 
L 479.808274 189.843121 
L 480.217513 190.618528 
L 480.422133 190.782204 
L 480.626753 190.697573 
L 481.035992 189.975482 
L 481.649852 188.823406 
L 482.059091 188.449498 
L 482.87757 188.379903 
L 483.286809 188.127526 
L 484.309908 188.115594 
L 484.719147 187.954056 
L 484.923767 188.146425 
L 485.742246 189.476109 
L 485.946866 189.453899 
L 486.356105 188.955009 
L 487.379204 187.659123 
L 487.583824 187.507655 
L 487.788443 187.506759 
L 487.993063 187.689402 
L 488.402303 188.479432 
L 489.016162 189.738418 
L 489.425401 190.057561 
L 489.834641 190.180128 
L 490.24388 190.008314 
L 491.676218 188.972046 
L 492.290077 189.039434 
L 493.313176 189.597779 
L 494.131655 189.464108 
L 494.540894 189.822635 
L 495.154754 190.523206 
L 495.563993 190.578868 
L 495.768613 190.460715 
L 496.177852 189.728141 
L 496.587092 188.80975 
L 496.996331 188.456878 
L 497.200951 188.539854 
L 497.61019 189.107649 
L 498.224049 189.952514 
L 498.428669 190.063148 
L 498.633289 189.984656 
L 499.042528 189.325952 
L 499.451768 188.699253 
L 499.861007 188.570202 
L 500.474866 188.582204 
L 501.088726 188.239057 
L 501.702585 187.646569 
L 501.907205 187.642914 
L 502.725683 188.220848 
L 503.544162 187.762653 
L 504.158022 187.77831 
L 504.567261 187.562421 
L 505.38574 186.92841 
L 505.794979 186.663342 
L 506.204219 186.211631 
L 506.408839 186.143277 
L 506.613458 186.254257 
L 507.227317 186.966208 
L 507.431937 186.920271 
L 507.841177 186.282605 
L 508.455036 185.27303 
L 508.864275 184.96982 
L 509.273515 184.934919 
L 510.091994 185.186881 
L 510.705853 184.862634 
L 511.728951 183.67952 
L 512.138191 183.487841 
L 512.75205 182.976121 
L 512.95667 183.018058 
L 514.184388 184.090537 
L 515.616726 185.012998 
L 516.025966 184.905191 
L 516.844445 184.294356 
L 518.890642 182.172365 
L 519.299881 181.461449 
L 519.709121 180.541885 
L 519.91374 180.348551 
L 520.11836 180.428216 
L 520.5276 180.766327 
L 520.732219 180.696456 
L 521.141459 180.003059 
L 522.164557 177.806577 
L 522.369177 177.56427 
L 522.573797 177.514885 
L 523.801515 178.139308 
L 524.415374 178.771042 
L 524.619994 178.80215 
L 525.643093 178.211662 
L 526.052332 177.456257 
L 527.48467 172.966935 
L 530.349347 160.041452 
L 531.986304 147.804331 
L 532.395544 143.789069 
L 533.214023 132.427092 
L 534.032502 118.723581 
L 534.850981 100.919555 
L 536.078699 71.448962 
L 536.487938 65.719623 
L 536.897178 62.721316 
L 537.101798 62.261051 
L 537.306417 62.615648 
L 537.511037 63.885669 
L 537.920276 68.861672 
L 538.943375 86.348831 
L 540.375713 112.430585 
L 540.989572 119.885382 
L 541.398812 123.046399 
L 541.808051 124.915943 
L 542.217291 125.915379 
L 542.42191 125.985664 
L 542.62653 125.727011 
L 543.03577 124.616527 
L 543.445009 122.960388 
L 543.854249 120.299709 
L 544.468108 114.043339 
L 545.081967 105.629801 
L 546.514305 82.915849 
L 546.923544 79.670614 
L 547.128164 78.903414 
L 547.332784 78.645589 
L 547.537404 78.86672 
L 547.742023 79.578878 
L 548.151263 82.63002 
L 548.560502 88.118432 
L 549.174361 99.990059 
L 550.811319 134.252908 
L 551.834418 149.590141 
L 552.652897 158.437044 
L 553.471376 165.974817 
L 554.289855 170.728103 
L 554.903714 173.470033 
L 556.540672 179.410433 
L 556.949911 181.045466 
L 557.56377 182.535308 
L 557.97301 183.173181 
L 558.382249 183.544331 
L 558.791489 184.482724 
L 560.223827 189.324918 
L 561.246925 190.514791 
L 561.451545 190.335044 
L 562.679263 188.144839 
L 563.702362 187.376122 
L 563.906982 187.432887 
L 564.520841 188.074761 
L 565.748559 189.381339 
L 565.953179 189.497629 
L 566.157799 189.372855 
L 566.771658 188.614277 
L 567.180897 188.57103 
L 567.590137 188.797058 
L 568.408616 189.568534 
L 569.840954 189.19166 
L 570.659433 187.934329 
L 570.864052 187.945848 
L 571.273292 188.286718 
L 571.887151 188.990738 
L 574.137968 190.447541 
L 574.751827 191.106245 
L 575.161067 191.168183 
L 575.570306 191.083552 
L 576.388785 191.24978 
L 576.593405 191.126868 
L 577.002644 190.320008 
L 577.616503 188.801611 
L 577.821123 188.552959 
L 578.025743 188.489847 
L 578.434982 188.742362 
L 579.662701 189.705448 
L 580.07194 189.80015 
L 580.48118 190.391948 
L 581.095039 191.339584 
L 581.299659 191.348068 
L 581.504278 191.110314 
L 582.322757 189.413067 
L 582.527377 189.328642 
L 582.731997 189.508458 
L 583.345856 190.362013 
L 583.550476 190.247033 
L 584.778194 188.254301 
L 585.187433 188.091177 
L 585.392053 188.171532 
L 585.801293 188.752294 
L 587.029011 190.870974 
L 587.43825 191.379037 
L 587.64287 191.383107 
L 588.05211 190.965951 
L 588.870588 189.796149 
L 589.279828 189.819945 
L 589.893687 190.065907 
L 590.507546 190.655498 
L 591.121405 191.204602 
L 591.530645 191.365105 
L 591.939884 191.284267 
L 592.144504 191.085897 
L 592.553743 190.161988 
L 592.962983 189.224767 
L 593.167603 189.073438 
L 593.372222 189.132687 
L 593.781462 189.58564 
L 595.00918 191.160113 
L 595.2138 191.28137 
L 595.41842 191.253918 
L 596.236899 190.551623 
L 596.646138 190.961882 
L 597.055377 191.322823 
L 597.259997 191.341929 
L 597.669237 191.017475 
L 598.283096 190.278348 
L 598.896955 189.970309 
L 599.306194 190.059975 
L 599.920054 190.535759 
L 600.533913 191.111969 
L 600.738533 191.116591 
L 601.352392 190.588386 
L 601.557011 190.644807 
L 601.966251 191.193083 
L 602.78473 192.304326 
L 602.98935 192.401028 
L 603.193969 192.343641 
L 603.603209 191.803022 
L 604.830927 189.286085 
L 605.854026 188.077106 
L 606.058645 188.025927 
L 606.467885 188.352451 
L 607.490984 189.759938 
L 608.309462 191.215982 
L 608.514082 191.236192 
L 608.923322 190.697021 
L 609.332561 190.199096 
L 609.94642 190.058458 
L 610.560279 189.462038 
L 610.969519 189.16676 
L 611.787998 189.415895 
L 612.197237 189.021776 
L 612.606477 188.599171 
L 613.015716 188.689114 
L 615.061913 190.487408 
L 615.471153 190.5619 
L 616.903491 190.001347 
L 617.31273 189.537427 
L 617.92659 188.79761 
L 618.131209 188.721463 
L 618.335829 188.817613 
L 619.154308 189.977137 
L 619.358928 189.848087 
L 619.768167 189.059022 
L 620.382026 187.816522 
L 620.791266 187.574629 
L 621.200505 187.618635 
L 621.814364 187.998269 
L 622.428224 188.652557 
L 623.042083 189.498457 
L 623.246703 189.563154 
L 623.655942 189.25822 
L 624.065181 188.740086 
L 624.88366 187.132712 
L 625.2929 187.107467 
L 625.702139 187.243967 
L 626.111379 187.533245 
L 626.315998 187.568146 
L 626.520618 187.47772 
L 626.725238 187.22693 
L 627.748337 185.254131 
L 628.362196 185.543133 
L 628.976055 185.229714 
L 629.180675 185.32283 
L 630.408393 186.468559 
L 630.817632 186.385515 
L 631.226872 186.284467 
L 632.24997 186.768735 
L 634.091548 185.772265 
L 634.500787 185.613901 
L 635.319266 185.043622 
L 635.523886 185.216195 
L 635.933126 186.022917 
L 636.342365 187.015456 
L 636.546985 187.281972 
L 636.751604 187.310665 
L 636.956224 187.132988 
L 637.365464 186.302056 
L 638.388562 183.509706 
L 638.593182 183.236913 
L 638.797802 183.170904 
L 639.002421 183.319958 
L 639.411661 184.169857 
L 640.02552 185.924629 
L 640.23014 186.158107 
L 640.43476 186.09265 
L 640.843999 185.696876 
L 641.253238 185.649008 
L 641.662478 185.955737 
L 642.071717 186.316402 
L 642.480957 186.188731 
L 643.504055 185.689772 
L 643.708675 185.707085 
L 644.117915 186.135276 
L 644.527154 186.676034 
L 644.731774 186.704313 
L 645.141013 186.233427 
L 645.959492 185.221782 
L 646.368732 185.089007 
L 646.777971 185.375595 
L 647.39183 185.755849 
L 648.005689 186.300125 
L 648.824168 187.03132 
L 649.028788 187.047667 
L 649.233408 186.885646 
L 650.051887 185.503542 
L 650.665746 184.357398 
L 650.870366 184.21407 
L 651.074985 184.275181 
L 651.484225 184.876567 
L 652.302704 186.658514 
L 652.507323 186.875645 
L 652.711943 186.924548 
L 652.916563 186.771839 
L 653.939662 185.025275 
L 654.144281 184.981821 
L 654.553521 185.127081 
L 654.75814 185.042381 
L 655.16738 184.202896 
L 655.781239 182.754714 
L 656.395098 182.414189 
L 657.213577 182.013932 
L 657.622817 181.214728 
L 658.032056 180.456081 
L 658.236676 180.421939 
L 658.441296 180.636311 
L 659.055155 182.016415 
L 659.464394 182.712916 
L 659.873634 182.766716 
L 660.282873 182.79334 
L 661.919831 183.550883 
L 662.32907 183.334373 
L 662.94293 182.501855 
L 663.761408 181.269425 
L 664.170648 181.349573 
L 664.579887 181.374541 
L 665.193747 180.901241 
L 665.398366 180.933658 
L 665.807606 181.509455 
L 666.216845 182.153122 
L 666.421465 182.214647 
L 667.444564 181.525526 
L 668.263042 181.609122 
L 669.490761 180.873099 
L 670.10462 180.340481 
L 670.513859 180.032097 
L 671.536958 178.81222 
L 671.946197 178.469625 
L 672.764676 177.241678 
L 672.969296 177.3639 
L 673.583155 178.036743 
L 673.787775 178.045503 
L 674.606254 177.634969 
L 675.015493 177.763882 
L 675.220113 177.630899 
L 676.038592 176.388951 
L 676.652451 176.125262 
L 677.061691 175.489527 
L 677.67555 174.490023 
L 678.084789 174.363938 
L 678.494029 174.200331 
L 679.107888 173.431752 
L 679.517127 172.552538 
L 679.926367 171.078836 
L 680.949465 166.434737 
L 681.154085 166.12794 
L 681.358705 166.170704 
L 681.767944 167.078404 
L 682.995663 170.653748 
L 683.404902 170.929162 
L 683.814142 171.078698 
L 684.018761 171.051178 
L 684.223381 170.871224 
L 684.83724 169.832473 
L 685.04186 169.752049 
L 685.451099 170.069744 
L 685.860339 170.35109 
L 686.269578 170.168929 
L 686.678818 169.680523 
L 687.292677 168.323525 
L 687.906536 166.359417 
L 688.315776 164.189283 
L 688.929635 159.729344 
L 690.566593 145.567223 
L 690.771212 145.396167 
L 690.975832 145.8774 
L 691.385072 148.073606 
L 691.998931 151.677782 
L 692.61279 154.091809 
L 692.81741 154.56311 
L 693.022029 154.753341 
L 693.226649 154.733131 
L 693.635889 154.385915 
L 694.045128 153.730454 
L 694.454367 152.396976 
L 695.477466 147.31289 
L 695.886706 144.155391 
L 696.705184 134.481488 
L 697.523663 123.049365 
L 698.137523 111.2872 
L 699.160621 84.230772 
L 700.18372 58.265171 
L 700.592959 53.025686 
L 700.797579 52.111847 
L 701.002199 52.290146 
L 701.206818 53.453326 
L 701.616058 57.996516 
L 702.229917 68.275668 
L 703.253016 89.197947 
L 704.685354 120.080785 
L 705.299213 128.015918 
L 706.117692 135.817173 
L 706.731551 139.604337 
L 707.34541 142.270534 
L 707.959269 143.947779 
L 708.163889 144.050757 
L 708.368509 143.89322 
L 708.982368 143.07898 
L 709.186988 143.124365 
L 709.391607 143.529726 
L 709.800847 145.346437 
L 711.233185 153.121067 
L 712.051664 156.518252 
L 712.460903 157.090185 
L 712.870143 157.430642 
L 713.279382 158.374071 
L 713.893241 160.052143 
L 714.302481 160.486887 
L 714.71172 160.468747 
L 715.12096 160.475713 
L 715.530199 161.015574 
L 716.348678 162.374986 
L 716.757918 162.653297 
L 717.371777 162.767656 
L 717.576397 162.828836 
L 717.781016 162.662677 
L 718.190256 161.545089 
L 718.804115 159.733413 
L 720.031833 157.481683 
L 721.054932 154.23631 
L 721.464171 153.154175 
L 722.078031 150.378309 
L 723.305749 143.528623 
L 723.510369 143.115329 
L 723.714988 143.040561 
L 723.919608 143.29211 
L 724.328848 144.74512 
L 725.965805 154.29749 
L 726.579665 157.597421 
L 726.988904 158.670935 
L 727.807383 160.333558 
L 729.444341 164.305642 
L 729.85358 164.604024 
L 730.467439 164.901786 
L 730.672059 164.827087 
L 731.081299 164.123274 
L 731.695158 162.864841 
L 732.104397 162.560182 
L 732.309017 162.652607 
L 732.718256 163.334693 
L 733.127496 164.075544 
L 733.536735 164.286191 
L 734.559834 164.280191 
L 734.969073 163.862483 
L 735.582933 163.165016 
L 735.992172 162.969474 
L 736.401411 162.989477 
L 736.606031 162.807385 
L 737.015271 161.954175 
L 737.83375 159.838806 
L 738.242989 159.454758 
L 739.061468 159.375851 
L 739.470707 159.794111 
L 739.879947 160.224027 
L 740.289186 160.298243 
L 740.698426 159.968202 
L 741.107665 159.590706 
L 741.312285 159.510627 
L 741.516905 159.556357 
L 742.130764 160.258238 
L 742.540003 160.589728 
L 742.744623 160.584486 
L 742.949243 160.357078 
L 743.563102 158.677695 
L 745.404679 153.813223 
L 746.632398 149.362596 
L 746.837017 149.716778 
L 747.246257 151.730272 
L 748.064736 156.305397 
L 748.678595 158.538091 
L 749.087834 159.225833 
L 749.497074 159.435238 
L 750.315553 159.329915 
L 750.929412 158.788536 
L 751.338651 158.207912 
L 751.747891 157.512031 
L 751.952511 157.380084 
L 752.15713 157.443057 
L 753.180229 158.388624 
L 753.384849 158.336066 
L 753.794088 157.697572 
L 754.407947 155.909072 
L 755.840285 151.263386 
L 756.044905 150.788774 
L 756.249525 150.679381 
L 756.454145 150.943346 
L 756.863384 152.160188 
L 758.500342 158.217361 
L 758.909581 158.765499 
L 759.114201 158.791433 
L 759.318821 158.669763 
L 759.72806 158.023199 
L 760.1373 157.209442 
L 760.341919 156.983896 
L 760.546539 156.936511 
L 761.160398 157.143089 
L 761.365018 157.085564 
L 761.774258 156.575707 
L 762.797356 154.751202 
L 763.411215 154.673744 
L 764.434314 153.839019 
L 765.048173 153.676999 
L 765.866652 153.104444 
L 766.071272 153.146243 
L 766.480511 153.673412 
L 766.889751 154.702438 
L 768.117469 158.721907 
L 768.322089 158.919173 
L 768.731328 158.914345 
L 769.140568 158.577958 
L 769.549807 157.93774 
L 769.754427 157.85435 
L 771.186765 158.601823 
L 771.596004 158.097967 
L 773.028343 156.032122 
L 773.437582 155.959768 
L 773.846821 155.375557 
L 774.256061 154.890599 
L 774.6653 154.883564 
L 775.07454 155.129319 
L 775.483779 155.799403 
L 776.711498 158.514709 
L 777.325357 158.639759 
L 778.143836 159.856463 
L 778.348455 159.694098 
L 778.757695 158.652864 
L 779.371554 156.808219 
L 779.780794 156.109993 
L 780.190033 155.763053 
L 780.599272 155.797058 
L 781.213132 156.280498 
L 781.622371 156.102544 
L 782.031611 155.868239 
L 782.44085 155.892656 
L 782.850089 156.281394 
L 783.668568 157.149641 
L 783.873188 157.118465 
L 784.691667 156.582122 
L 784.896287 156.822704 
L 785.305526 158.036994 
L 785.919385 159.884605 
L 786.328625 160.592901 
L 786.533244 160.714364 
L 786.737864 160.645873 
L 787.351723 160.057316 
L 787.760963 160.197885 
L 788.579442 160.887282 
L 789.193301 161.784912 
L 789.397921 161.764841 
L 789.80716 161.234912 
L 790.2164 160.614145 
L 790.421019 160.468057 
L 790.625639 160.530686 
L 793.081076 163.174673 
L 793.899555 164.631131 
L 794.718034 166.721531 
L 795.536512 167.53315 
L 795.945752 167.796976 
L 796.559611 167.735451 
L 796.968851 168.055354 
L 797.37809 168.637496 
L 798.810428 171.093114 
L 799.015048 171.230097 
L 799.219668 171.19154 
L 799.628907 170.551391 
L 800.038146 169.863649 
L 800.447386 169.676178 
L 800.856625 169.782743 
L 801.061245 169.944625 
L 801.265865 170.279977 
L 802.288963 172.967832 
L 802.698203 173.048394 
L 802.902823 173.080674 
L 803.312062 173.51121 
L 804.335161 174.956495 
L 804.7444 175.090443 
L 805.15364 175.262189 
L 805.972119 176.367637 
L 806.176738 176.319011 
L 807.404457 175.122654 
L 807.813696 175.215838 
L 808.632175 175.61575 
L 809.041414 176.320114 
L 809.859893 178.503147 
L 810.678372 181.235144 
L 811.087612 181.890675 
L 812.11071 182.920942 
L 812.72457 182.722572 
L 812.929189 182.91032 
L 813.747668 184.349397 
L 814.156908 184.328705 
L 814.566147 184.212345 
L 814.770767 184.298149 
L 815.180006 184.980304 
L 815.589246 185.703636 
L 815.793865 185.847033 
L 815.998485 185.815305 
L 816.612344 185.467468 
L 816.816964 185.704326 
L 818.044682 188.39018 
L 818.453922 188.927971 
L 819.067781 190.066252 
L 819.68164 190.494789 
L 820.09088 190.752545 
L 820.500119 191.325582 
L 821.113978 192.172171 
L 821.523218 192.67789 
L 823.774035 196.508715 
L 824.387894 196.618384 
L 824.797133 197.2984 
L 826.229471 200.736004 
L 826.638711 201.380223 
L 826.843331 201.373601 
L 827.25257 200.923407 
L 827.866429 200.096544 
L 828.071049 200.052401 
L 828.275669 200.169312 
L 828.684908 200.900231 
L 829.503387 202.888688 
L 829.708007 202.929313 
L 830.117246 202.570717 
L 830.526486 202.229295 
L 830.935725 202.252815 
L 831.344965 202.205085 
L 832.163444 201.584662 
L 832.572683 201.800551 
L 832.981922 202.164942 
L 833.391162 202.848752 
L 834.209641 204.467162 
L 834.414261 204.655806 
L 834.61888 204.639666 
L 834.8235 204.370736 
L 835.232739 203.095955 
L 835.846599 200.798357 
L 836.460458 199.555442 
L 838.097416 197.211907 
L 838.915895 196.878486 
L 839.734373 195.659298 
L 840.143613 195.043014 
L 840.552852 194.904445 
L 840.962092 194.83285 
L 841.371331 194.385345 
L 842.18981 192.867707 
L 842.803669 192.302188 
L 843.212909 191.771569 
L 843.417529 191.669694 
L 844.031388 191.724184 
L 844.236007 191.486223 
L 844.645247 190.484235 
L 845.668346 187.27204 
L 846.077585 186.57609 
L 846.691444 185.875175 
L 847.714543 184.309461 
L 848.123782 183.113311 
L 849.146881 179.207925 
L 850.374599 177.428115 
L 851.193078 175.530843 
L 851.602318 175.25674 
L 852.011557 175.097133 
L 852.420797 174.639973 
L 854.057754 172.033646 
L 855.490092 171.67567 
L 856.103952 171.253134 
L 856.922431 171.433915 
L 858.354769 171.754093 
L 858.764008 172.470873 
L 859.377867 174.051692 
L 859.582487 174.286549 
L 859.787107 174.284618 
L 860.400966 173.841114 
L 860.605586 173.994581 
L 861.014825 174.802683 
L 861.424065 176.256106 
L 862.242543 179.628184 
L 863.470262 184.000595 
L 864.288741 187.242243 
L 865.10722 191.798607 
L 865.721079 195.811248 
L 866.744177 204.639873 
L 867.562656 211.828912 
L 868.790375 226.676016 
L 870.893561 253 
M 922.743425 253 
L 922.790354 -1 
M 941.737347 -1 
L 942.658096 52.715992 
L 943.476575 87.126997 
L 944.090434 104.887156 
L 944.704293 117.344097 
L 945.727392 132.883494 
L 946.545871 141.60107 
L 947.568969 149.246995 
L 948.182829 152.547823 
L 949.001308 155.806921 
L 949.410547 156.755316 
L 950.433646 158.533332 
L 951.661364 161.465286 
L 952.275223 162.302149 
L 952.684463 162.389057 
L 953.093702 162.263938 
L 953.298322 162.318013 
L 953.707561 162.88705 
L 954.52604 164.679689 
L 955.344519 167.047089 
L 955.753759 167.438449 
L 956.162998 167.606401 
L 956.776857 168.073563 
L 957.390716 168.288969 
L 957.799956 168.847591 
L 958.209195 169.594926 
L 958.413815 169.787709 
L 958.618435 169.820472 
L 959.027674 169.525331 
L 960.050773 168.170954 
L 960.460012 168.051008 
L 960.869252 168.198475 
L 961.687731 169.038167 
L 962.30159 169.724804 
L 962.915449 170.182034 
L 963.529308 170.955166 
L 963.938548 170.972823 
L 964.552407 170.928059 
L 964.961646 171.077733 
L 965.370886 171.548619 
L 966.803224 173.798281 
L 967.417083 174.277582 
L 967.621703 174.300482 
L 968.235562 173.880153 
L 969.258661 173.081087 
L 969.87252 173.302908 
L 970.281759 173.069293 
L 971.714097 171.776372 
L 971.918717 171.724366 
L 972.327956 172.097171 
L 972.737196 172.585094 
L 972.941816 172.602407 
L 973.760295 172.049165 
L 973.964914 172.169111 
L 974.783393 173.267525 
L 975.192633 173.118885 
L 975.397252 173.294218 
L 976.215731 174.870898 
L 976.420351 174.885659 
L 977.23883 174.130322 
L 977.648069 174.388148 
L 978.261928 174.846619 
L 980.308126 175.440004 
L 980.512745 175.673895 
L 980.921985 176.68485 
L 981.535844 178.128824 
L 981.945084 178.669512 
L 982.149703 178.722967 
L 982.558943 178.60309 
L 983.377422 178.659304 
L 983.786661 178.423757 
L 984.40052 178.479075 
L 985.014379 178.511768 
L 985.423619 178.125651 
L 985.832858 177.152977 
L 986.446718 175.502012 
L 986.855957 175.032918 
L 987.265196 174.658734 
L 989.106774 171.788787 
L 989.516013 171.606282 
L 990.334492 171.361768 
L 991.562211 170.219763 
L 992.17607 170.007943 
L 993.199169 169.103002 
L 993.608408 168.677294 
L 993.813028 168.723506 
L 994.017647 169.073412 
L 994.426887 170.553391 
L 995.245366 174.183433 
L 995.654605 175.226874 
L 996.268464 175.948895 
L 996.473084 176.025595 
L 996.677704 175.914753 
L 997.086943 175.247428 
L 997.700803 174.253993 
L 998.110042 173.626259 
L 998.723901 172.202081 
L 998.928521 172.04882 
L 999.33776 172.290643 
L 999.95162 172.695177 
L 1000.156239 172.671657 
L 1000.360859 172.491289 
L 1000.770098 171.740505 
L 1001.179338 170.738104 
L 1001.588577 169.110934 
L 1002.202437 166.474397 
L 1002.407056 166.306927 
L 1002.611676 166.651591 
L 1003.020915 168.542656 
L 1003.634775 171.900663 
L 1004.248634 173.714822 
L 1004.862493 175.037678 
L 1005.271732 175.231426 
L 1006.294831 174.954495 
L 1006.704071 175.48532 
L 1007.931789 177.492744 
L 1008.341028 177.775262 
L 1008.954888 177.881414 
L 1009.364127 177.761054 
L 1010.182606 177.072553 
L 1011.410324 176.777482 
L 1011.819564 176.348325 
L 1012.638043 175.139139 
L 1012.842662 175.085063 
L 1013.047282 175.276604 
L 1014.070381 177.344795 
L 1014.47962 177.439634 
L 1014.88886 177.523714 
L 1015.298099 177.749121 
L 1015.502719 177.657661 
L 1016.321198 176.624428 
L 1016.525817 176.682298 
L 1017.548916 177.668007 
L 1017.753536 177.827476 
L 1018.162775 178.621161 
L 1018.572015 179.499479 
L 1018.776634 179.685709 
L 1019.185874 179.650394 
L 1019.595113 179.40926 
L 1020.208972 178.781664 
L 1020.413592 178.73621 
L 1020.822832 179.02673 
L 1021.641311 179.977263 
L 1022.25517 181.200588 
L 1022.459789 181.293566 
L 1022.869029 180.902482 
L 1023.278268 180.616998 
L 1023.482888 180.667832 
L 1023.892128 181.122648 
L 1024.710606 182.356733 
L 1024.915226 182.398463 
L 1025.119846 182.277551 
L 1025.529085 181.515111 
L 1026.552184 179.007417 
L 1026.961423 178.289879 
L 1027.370663 178.005843 
L 1027.779902 178.05109 
L 1028.189142 178.334919 
L 1028.803001 179.250965 
L 1029.41686 180.191841 
L 1029.8261 180.155906 
L 1030.644579 179.84766 
L 1031.053818 179.675225 
L 1032.076917 179.692675 
L 1032.486156 179.513066 
L 1032.895396 179.616183 
L 1033.918494 180.370691 
L 1034.123114 180.173287 
L 1035.555452 177.846237 
L 1036.169311 177.352796 
L 1036.373931 177.321343 
L 1036.78317 177.609035 
L 1037.601649 178.320365 
L 1038.215508 178.780906 
L 1038.624748 178.855812 
L 1039.443227 178.877332 
L 1039.852466 179.350839 
L 1040.261706 179.964847 
L 1040.466325 180.047961 
L 1040.875565 179.755304 
L 1041.694044 179.004865 
L 1041.898664 178.966791 
L 1042.307903 179.22841 
L 1043.535621 180.385176 
L 1043.740241 180.384417 
L 1044.149481 179.987885 
L 1044.55872 179.501341 
L 1044.967959 179.440988 
L 1045.377199 179.409881 
L 1045.786438 178.807461 
L 1046.195678 178.235527 
L 1046.400298 178.178278 
L 1046.809537 178.358991 
L 1047.423396 178.884367 
L 1048.037255 179.707574 
L 1048.241875 179.739371 
L 1048.651115 179.537621 
L 1049.060354 179.719023 
L 1050.492692 180.533332 
L 1050.697312 180.368829 
L 1051.515791 179.231514 
L 1051.92503 179.46375 
L 1052.33427 179.722127 
L 1052.743509 179.74951 
L 1052.948129 179.615217 
L 1053.357368 178.862571 
L 1053.766608 177.983909 
L 1054.175847 177.713255 
L 1054.994326 177.82851 
L 1055.812805 177.120904 
L 1056.222044 177.141941 
L 1056.835904 176.795967 
L 1057.040523 176.883978 
L 1057.449763 177.565719 
L 1058.063622 178.792631 
L 1058.268242 178.81153 
L 1058.677481 178.252357 
L 1059.086721 177.846444 
L 1059.29134 177.904934 
L 1059.70058 178.465073 
L 1060.109819 179.236618 
L 1060.314439 179.410226 
L 1060.723678 179.290763 
L 1061.132918 179.16523 
L 1062.360636 179.568246 
L 1063.383735 179.20558 
L 1063.792974 179.609147 
L 1064.406833 180.396901 
L 1064.816073 180.642174 
L 1065.020693 180.550507 
L 1065.429932 179.731508 
L 1065.839172 179.01659 
L 1066.043791 179.027005 
L 1066.65765 179.466854 
L 1067.680749 179.850626 
L 1068.089989 180.121005 
L 1068.294608 180.049823 
L 1068.908467 179.380843 
L 1069.726946 179.26807 
L 1070.545425 178.528046 
L 1070.750045 178.605504 
L 1071.568524 179.48727 
L 1071.773144 179.364565 
L 1072.387003 178.406445 
L 1073.000862 177.579858 
L 1073.205482 177.55889 
L 1073.410101 177.838098 
L 1074.023961 179.241515 
L 1074.4332 179.506514 
L 1074.84244 179.434367 
L 1075.251679 178.908577 
L 1075.660918 178.236975 
L 1076.274778 177.656972 
L 1076.684017 176.957229 
L 1076.888637 176.787621 
L 1077.093257 176.825695 
L 1077.502496 177.321274 
L 1078.525595 179.009624 
L 1079.139454 179.131432 
L 1079.548693 179.820622 
L 1080.162552 181.091195 
L 1080.367172 181.209486 
L 1081.79951 181.104507 
L 1082.20875 181.418064 
L 1082.617989 181.840738 
L 1082.822609 181.908332 
L 1083.231848 181.717826 
L 1083.845708 181.346745 
L 1084.254947 181.428686 
L 1084.664186 181.5427 
L 1085.073426 181.403579 
L 1085.482665 180.89524 
L 1086.915003 178.19159 
L 1087.324243 177.926385 
L 1088.142722 177.529162 
L 1088.347342 177.683734 
L 1088.756581 178.73559 
L 1089.16582 179.681432 
L 1089.37044 179.746889 
L 1089.77968 179.195302 
L 1090.188919 178.657442 
L 1090.393539 178.693653 
L 1091.416637 179.901598 
L 1092.848976 180.201636 
L 1093.462835 180.778811 
L 1094.076694 181.430962 
L 1094.485933 181.465311 
L 1094.895173 181.210659 
L 1095.713652 180.110521 
L 1096.532131 178.292086 
L 1096.73675 178.192418 
L 1097.350609 178.450312 
L 1097.759849 177.9348 
L 1098.169088 177.343691 
L 1098.578328 177.248024 
L 1099.192187 177.475707 
L 1100.010666 177.987634 
L 1100.829145 177.549855 
L 1101.443004 176.705335 
L 1102.670722 175.241496 
L 1103.079962 175.189835 
L 1103.284582 175.252532 
L 1103.489201 175.442694 
L 1103.898441 176.285972 
L 1104.5123 177.604137 
L 1104.921539 178.086474 
L 1105.126159 178.069851 
L 1105.330779 177.771745 
L 1105.740018 176.348325 
L 1106.353877 173.905743 
L 1106.558497 173.643365 
L 1106.763117 173.700751 
L 1107.376976 174.243854 
L 1107.581596 174.094042 
L 1108.604694 172.298851 
L 1108.809314 172.310577 
L 1109.423173 172.746011 
L 1109.627793 172.703178 
L 1110.037033 172.084962 
L 1110.446272 171.372942 
L 1110.650892 171.270515 
L 1111.264751 171.55124 
L 1111.469371 171.346318 
L 1111.87861 170.245559 
L 1112.492469 167.588743 
L 1113.720188 159.782316 
L 1114.743286 151.548042 
L 1117.607962 126.355296 
L 1119.24492 111.742429 
L 1119.65416 104.185344 
L 1120.268019 86.097489 
L 1120.881878 58.452298 
L 1121.495737 17.255683 
L 1121.719592 -1 
M 1123.979192 -1 
L 1124.769653 69.662807 
L 1125.383512 103.67259 
L 1125.792752 117.414244 
L 1126.406611 129.676678 
L 1128.452808 160.634768 
L 1129.271287 168.659016 
L 1129.885146 172.618202 
L 1130.499005 174.886072 
L 1131.317484 176.961505 
L 1131.931343 179.054595 
L 1132.340583 179.783445 
L 1133.568301 180.81523 
L 1134.38678 180.715493 
L 1135.409879 181.526078 
L 1136.023738 181.615399 
L 1136.432977 181.941578 
L 1137.251456 183.087791 
L 1138.274555 184.805316 
L 1138.683794 184.982994 
L 1139.093034 184.991271 
L 1139.297653 184.872083 
L 1140.320752 183.599855 
L 1140.934611 183.540606 
L 1141.343851 183.44756 
L 1142.16233 182.726642 
L 1142.776189 182.494475 
L 1142.980809 182.595315 
L 1143.390048 183.267192 
L 1143.594668 183.610753 
L 1143.799287 183.707937 
L 1144.003907 183.487427 
L 1144.413147 182.721538 
L 1144.617766 182.613179 
L 1145.027006 183.029714 
L 1145.436245 183.313681 
L 1145.845485 183.165318 
L 1146.459344 182.866453 
L 1146.868583 183.120415 
L 1147.482443 183.653724 
L 1147.891682 183.475012 
L 1148.300921 183.28754 
L 1149.32402 183.469701 
L 1149.73326 183.400313 
L 1150.142499 183.505636 
L 1150.551738 183.270227 
L 1151.370217 182.68374 
L 1151.779457 182.592004 
L 1152.188696 182.719607 
L 1152.802555 183.089239 
L 1153.825654 183.312302 
L 1154.234894 183.395484 
L 1154.644133 183.070271 
L 1155.462612 181.967374 
L 1155.667232 182.051247 
L 1156.281091 182.608144 
L 1156.69033 182.907354 
L 1157.508809 183.787189 
L 1158.122668 183.870854 
L 1158.941147 184.799178 
L 1159.759626 184.943472 
L 1160.168866 184.527902 
L 1160.987345 183.200701 
L 1161.396584 182.978605 
L 1161.601204 183.102482 
L 1162.010443 184.158477 
L 1162.419683 185.409392 
L 1162.828922 186.103962 
L 1163.033542 186.243083 
L 1163.238162 186.18611 
L 1163.647401 185.610797 
L 1164.26126 184.757379 
L 1164.875119 184.361261 
L 1165.284359 184.332154 
L 1165.898218 184.418578 
L 1166.102838 184.334775 
L 1166.512077 183.798363 
L 1167.125936 182.70795 
L 1167.535176 182.440882 
L 1167.944415 182.384737 
L 1168.558274 182.130981 
L 1168.967514 182.673532 
L 1169.376753 183.253467 
L 1169.785993 183.36955 
L 1170.195232 183.500532 
L 1171.013711 184.534662 
L 1171.218331 184.339258 
L 1171.83219 183.162421 
L 1172.03681 183.036198 
L 1172.241429 183.144763 
L 1173.059908 184.521074 
L 1173.673768 184.614879 
L 1174.083007 184.847046 
L 1174.287627 184.788694 
L 1175.924585 183.502946 
L 1176.333824 183.73332 
L 1177.561542 184.970303 
L 1177.766162 184.928159 
L 1178.789261 184.256282 
L 1179.812359 184.183031 
L 1180.221599 184.263455 
L 1180.426219 184.10985 
L 1180.835458 183.233326 
L 1181.244697 182.278586 
L 1181.653937 181.946061 
L 1182.063176 182.117324 
L 1182.472416 182.649805 
L 1183.290895 184.125369 
L 1183.700134 184.271663 
L 1184.109374 184.116678 
L 1184.518613 183.959555 
L 1184.723233 184.012596 
L 1184.723233 184.012596 
" clip-path="url(#p8855be619c)" style="fill: none; stroke: #000000; stroke-width: 2; stroke-linecap: square"/>
   </g>
   <g id="patch_3">
    <path d="M 3.00024 198.907885 
L 1184.99976 198.907885 
" style="fill: none; stroke: #000000; stroke-width: 2; stroke-linejoin: miter; stroke-linecap: square"/>
   </g>
  </g>
 </g>
 <defs>
  <clipPath id="p8855be619c">
   <rect x="3.00024" y="3.00024" width="1181.99952" height="195.907645"/>
  </clipPath>
 </defs>
</svg>
