<?xml version="1.0" encoding="utf-8" standalone="no"?>
<!DOCTYPE svg PUBLIC "-//W3C//DTD SVG 1.1//EN"
  "http://www.w3.org/Graphics/SVG/1.1/DTD/svg11.dtd">
<svg xmlns:xlink="http://www.w3.org/1999/xlink" width="1188pt" height="252pt" viewBox="0 0 1188 252" xmlns="http://www.w3.org/2000/svg" version="1.1">
 <metadata>
  <rdf:RDF xmlns:dc="http://purl.org/dc/elements/1.1/" xmlns:cc="http://creativecommons.org/ns#" xmlns:rdf="http://www.w3.org/1999/02/22-rdf-syntax-ns#">
   <cc:Work>
    <dc:type rdf:resource="http://purl.org/dc/dcmitype/StillImage"/>
    <dc:date>2024-07-23T21:43:49.572638</dc:date>
    <dc:format>image/svg+xml</dc:format>
    <dc:creator>
     <cc:Agent>
      <dc:title>Matplotlib v3.8.4, https://matplotlib.org/</dc:title>
     </cc:Agent>
    </dc:creator>
   </cc:Work>
  </rdf:RDF>
 </metadata>
 <defs>
  <style type="text/css">*{stroke-linejoin: round; stroke-linecap: butt}</style>
 </defs>
 <g id="figure_1">
  <g id="patch_1">
   <path d="M 0 252 
L 1188 252 
L 1188 0 
L 0 0 
z
" style="fill: #ffffff"/>
  </g>
  <g id="axes_1">
   <g id="patch_2">
    <path d="M 3.00024 198.907885 
L 1184.99976 198.907885 
L 1184.99976 3.00024 
L 3.00024 3.00024 
z
" style="fill: #ffffff"/>
   </g>
   <g id="matplotlib.axis_1">
    <g id="xtick_1">
     <g id="line2d_1">
      <defs>
       <path id="m6ce7a19b18" d="M 0 0 
L 0 8 
" style="stroke: #000000; stroke-width: 2"/>
      </defs>
      <g>
       <use xlink:href="#m6ce7a19b18" x="1131.272509" y="198.907885" style="stroke: #000000; stroke-width: 2"/>
      </g>
     </g>
     <g id="text_1">
      <!-- 0 -->
      <g transform="translate(1126.267665 224.791947) scale(0.18 -0.18)">
       <defs>
        <path id="Arial-BoldMT-30" d="M 1756 4600 
Q 2422 4600 2797 4125 
Q 3244 3563 3244 2259 
Q 3244 959 2794 391 
Q 2422 -78 1756 -78 
Q 1088 -78 678 436 
Q 269 950 269 2269 
Q 269 3563 719 4131 
Q 1091 4600 1756 4600 
z
M 1756 3872 
Q 1597 3872 1472 3770 
Q 1347 3669 1278 3406 
Q 1188 3066 1188 2259 
Q 1188 1453 1269 1151 
Q 1350 850 1473 750 
Q 1597 650 1756 650 
Q 1916 650 2041 751 
Q 2166 853 2234 1116 
Q 2325 1453 2325 2259 
Q 2325 3066 2244 3367 
Q 2163 3669 2039 3770 
Q 1916 3872 1756 3872 
z
" transform="scale(0.015625)"/>
       </defs>
       <use xlink:href="#Arial-BoldMT-30"/>
      </g>
     </g>
    </g>
    <g id="xtick_2">
     <g id="line2d_2">
      <g>
       <use xlink:href="#m6ce7a19b18" x="1023.818007" y="198.907885" style="stroke: #000000; stroke-width: 2"/>
      </g>
     </g>
     <g id="text_2">
      <!-- 1 -->
      <g transform="translate(1018.813164 224.791947) scale(0.18 -0.18)">
       <defs>
        <path id="Arial-BoldMT-31" d="M 2519 0 
L 1641 0 
L 1641 3309 
Q 1159 2859 506 2644 
L 506 3441 
Q 850 3553 1253 3867 
Q 1656 4181 1806 4600 
L 2519 4600 
L 2519 0 
z
" transform="scale(0.015625)"/>
       </defs>
       <use xlink:href="#Arial-BoldMT-31"/>
      </g>
     </g>
    </g>
    <g id="xtick_3">
     <g id="line2d_3">
      <g>
       <use xlink:href="#m6ce7a19b18" x="916.363505" y="198.907885" style="stroke: #000000; stroke-width: 2"/>
      </g>
     </g>
     <g id="text_3">
      <!-- 2 -->
      <g transform="translate(911.358662 224.791947) scale(0.18 -0.18)">
       <defs>
        <path id="Arial-BoldMT-32" d="M 3238 816 
L 3238 0 
L 159 0 
Q 209 463 459 877 
Q 709 1291 1447 1975 
Q 2041 2528 2175 2725 
Q 2356 2997 2356 3263 
Q 2356 3556 2198 3714 
Q 2041 3872 1763 3872 
Q 1488 3872 1325 3706 
Q 1163 3541 1138 3156 
L 263 3244 
Q 341 3969 753 4284 
Q 1166 4600 1784 4600 
Q 2463 4600 2850 4234 
Q 3238 3869 3238 3325 
Q 3238 3016 3127 2736 
Q 3016 2456 2775 2150 
Q 2616 1947 2200 1565 
Q 1784 1184 1673 1059 
Q 1563 934 1494 816 
L 3238 816 
z
" transform="scale(0.015625)"/>
       </defs>
       <use xlink:href="#Arial-BoldMT-32"/>
      </g>
     </g>
    </g>
    <g id="xtick_4">
     <g id="line2d_4">
      <g>
       <use xlink:href="#m6ce7a19b18" x="808.909004" y="198.907885" style="stroke: #000000; stroke-width: 2"/>
      </g>
     </g>
     <g id="text_4">
      <!-- 3 -->
      <g transform="translate(803.90416 224.791947) scale(0.18 -0.18)">
       <defs>
        <path id="Arial-BoldMT-33" d="M 241 1216 
L 1091 1319 
Q 1131 994 1309 822 
Q 1488 650 1741 650 
Q 2013 650 2198 856 
Q 2384 1063 2384 1413 
Q 2384 1744 2206 1937 
Q 2028 2131 1772 2131 
Q 1603 2131 1369 2066 
L 1466 2781 
Q 1822 2772 2009 2936 
Q 2197 3100 2197 3372 
Q 2197 3603 2059 3740 
Q 1922 3878 1694 3878 
Q 1469 3878 1309 3722 
Q 1150 3566 1116 3266 
L 306 3403 
Q 391 3819 561 4067 
Q 731 4316 1036 4458 
Q 1341 4600 1719 4600 
Q 2366 4600 2756 4188 
Q 3078 3850 3078 3425 
Q 3078 2822 2419 2463 
Q 2813 2378 3048 2084 
Q 3284 1791 3284 1375 
Q 3284 772 2843 347 
Q 2403 -78 1747 -78 
Q 1125 -78 715 280 
Q 306 638 241 1216 
z
" transform="scale(0.015625)"/>
       </defs>
       <use xlink:href="#Arial-BoldMT-33"/>
      </g>
     </g>
    </g>
    <g id="xtick_5">
     <g id="line2d_5">
      <g>
       <use xlink:href="#m6ce7a19b18" x="701.454502" y="198.907885" style="stroke: #000000; stroke-width: 2"/>
      </g>
     </g>
     <g id="text_5">
      <!-- 4 -->
      <g transform="translate(696.449658 224.791947) scale(0.18 -0.18)">
       <defs>
        <path id="Arial-BoldMT-34" d="M 1994 0 
L 1994 922 
L 119 922 
L 119 1691 
L 2106 4600 
L 2844 4600 
L 2844 1694 
L 3413 1694 
L 3413 922 
L 2844 922 
L 2844 0 
L 1994 0 
z
M 1994 1694 
L 1994 3259 
L 941 1694 
L 1994 1694 
z
" transform="scale(0.015625)"/>
       </defs>
       <use xlink:href="#Arial-BoldMT-34"/>
      </g>
     </g>
    </g>
    <g id="xtick_6">
     <g id="line2d_6">
      <g>
       <use xlink:href="#m6ce7a19b18" x="594" y="198.907885" style="stroke: #000000; stroke-width: 2"/>
      </g>
     </g>
     <g id="text_6">
      <!-- 5 -->
      <g transform="translate(588.995156 224.791947) scale(0.18 -0.18)">
       <defs>
        <path id="Arial-BoldMT-35" d="M 284 1178 
L 1159 1269 
Q 1197 972 1381 798 
Q 1566 625 1806 625 
Q 2081 625 2272 848 
Q 2463 1072 2463 1522 
Q 2463 1944 2273 2155 
Q 2084 2366 1781 2366 
Q 1403 2366 1103 2031 
L 391 2134 
L 841 4519 
L 3163 4519 
L 3163 3697 
L 1506 3697 
L 1369 2919 
Q 1663 3066 1969 3066 
Q 2553 3066 2959 2641 
Q 3366 2216 3366 1538 
Q 3366 972 3038 528 
Q 2591 -78 1797 -78 
Q 1163 -78 763 262 
Q 363 603 284 1178 
z
" transform="scale(0.015625)"/>
       </defs>
       <use xlink:href="#Arial-BoldMT-35"/>
      </g>
     </g>
    </g>
    <g id="xtick_7">
     <g id="line2d_7">
      <g>
       <use xlink:href="#m6ce7a19b18" x="486.545498" y="198.907885" style="stroke: #000000; stroke-width: 2"/>
      </g>
     </g>
     <g id="text_7">
      <!-- 6 -->
      <g transform="translate(481.540654 224.791947) scale(0.18 -0.18)">
       <defs>
        <path id="Arial-BoldMT-36" d="M 3247 3459 
L 2397 3366 
Q 2366 3628 2234 3753 
Q 2103 3878 1894 3878 
Q 1616 3878 1423 3628 
Q 1231 3378 1181 2588 
Q 1509 2975 1997 2975 
Q 2547 2975 2939 2556 
Q 3331 2138 3331 1475 
Q 3331 772 2918 347 
Q 2506 -78 1859 -78 
Q 1166 -78 719 461 
Q 272 1000 272 2228 
Q 272 3488 737 4044 
Q 1203 4600 1947 4600 
Q 2469 4600 2811 4308 
Q 3153 4016 3247 3459 
z
M 1256 1544 
Q 1256 1116 1453 883 
Q 1650 650 1903 650 
Q 2147 650 2309 840 
Q 2472 1031 2472 1466 
Q 2472 1913 2297 2120 
Q 2122 2328 1859 2328 
Q 1606 2328 1431 2129 
Q 1256 1931 1256 1544 
z
" transform="scale(0.015625)"/>
       </defs>
       <use xlink:href="#Arial-BoldMT-36"/>
      </g>
     </g>
    </g>
    <g id="xtick_8">
     <g id="line2d_8">
      <g>
       <use xlink:href="#m6ce7a19b18" x="379.090996" y="198.907885" style="stroke: #000000; stroke-width: 2"/>
      </g>
     </g>
     <g id="text_8">
      <!-- 7 -->
      <g transform="translate(374.086153 224.791947) scale(0.18 -0.18)">
       <defs>
        <path id="Arial-BoldMT-37" d="M 272 3703 
L 272 4519 
L 3275 4519 
L 3275 3881 
Q 2903 3516 2518 2831 
Q 2134 2147 1932 1376 
Q 1731 606 1734 0 
L 888 0 
Q 909 950 1279 1937 
Q 1650 2925 2269 3703 
L 272 3703 
z
" transform="scale(0.015625)"/>
       </defs>
       <use xlink:href="#Arial-BoldMT-37"/>
      </g>
     </g>
    </g>
    <g id="xtick_9">
     <g id="line2d_9">
      <g>
       <use xlink:href="#m6ce7a19b18" x="271.636495" y="198.907885" style="stroke: #000000; stroke-width: 2"/>
      </g>
     </g>
     <g id="text_9">
      <!-- 8 -->
      <g transform="translate(266.631651 224.791947) scale(0.18 -0.18)">
       <defs>
        <path id="Arial-BoldMT-38" d="M 1025 2472 
Q 684 2616 529 2867 
Q 375 3119 375 3419 
Q 375 3931 733 4265 
Q 1091 4600 1750 4600 
Q 2403 4600 2764 4265 
Q 3125 3931 3125 3419 
Q 3125 3100 2959 2851 
Q 2794 2603 2494 2472 
Q 2875 2319 3073 2025 
Q 3272 1731 3272 1347 
Q 3272 713 2867 316 
Q 2463 -81 1791 -81 
Q 1166 -81 750 247 
Q 259 634 259 1309 
Q 259 1681 443 1992 
Q 628 2303 1025 2472 
z
M 1206 3356 
Q 1206 3094 1354 2947 
Q 1503 2800 1750 2800 
Q 2000 2800 2150 2948 
Q 2300 3097 2300 3359 
Q 2300 3606 2151 3754 
Q 2003 3903 1759 3903 
Q 1506 3903 1356 3753 
Q 1206 3603 1206 3356 
z
M 1125 1394 
Q 1125 1031 1311 828 
Q 1497 625 1775 625 
Q 2047 625 2225 820 
Q 2403 1016 2403 1384 
Q 2403 1706 2222 1901 
Q 2041 2097 1763 2097 
Q 1441 2097 1283 1875 
Q 1125 1653 1125 1394 
z
" transform="scale(0.015625)"/>
       </defs>
       <use xlink:href="#Arial-BoldMT-38"/>
      </g>
     </g>
    </g>
    <g id="xtick_10">
     <g id="line2d_10">
      <g>
       <use xlink:href="#m6ce7a19b18" x="164.181993" y="198.907885" style="stroke: #000000; stroke-width: 2"/>
      </g>
     </g>
     <g id="text_10">
      <!-- 9 -->
      <g transform="translate(159.177149 224.791947) scale(0.18 -0.18)">
       <defs>
        <path id="Arial-BoldMT-39" d="M 291 1059 
L 1141 1153 
Q 1172 894 1303 769 
Q 1434 644 1650 644 
Q 1922 644 2112 894 
Q 2303 1144 2356 1931 
Q 2025 1547 1528 1547 
Q 988 1547 595 1964 
Q 203 2381 203 3050 
Q 203 3747 617 4173 
Q 1031 4600 1672 4600 
Q 2369 4600 2816 4061 
Q 3263 3522 3263 2288 
Q 3263 1031 2797 475 
Q 2331 -81 1584 -81 
Q 1047 -81 715 205 
Q 384 491 291 1059 
z
M 2278 2978 
Q 2278 3403 2083 3637 
Q 1888 3872 1631 3872 
Q 1388 3872 1227 3680 
Q 1066 3488 1066 3050 
Q 1066 2606 1241 2398 
Q 1416 2191 1678 2191 
Q 1931 2191 2104 2391 
Q 2278 2591 2278 2978 
z
" transform="scale(0.015625)"/>
       </defs>
       <use xlink:href="#Arial-BoldMT-39"/>
      </g>
     </g>
    </g>
    <g id="xtick_11">
     <g id="line2d_11">
      <g>
       <use xlink:href="#m6ce7a19b18" x="56.727491" y="198.907885" style="stroke: #000000; stroke-width: 2"/>
      </g>
     </g>
     <g id="text_11">
      <!-- 10 -->
      <g transform="translate(46.717803 224.791947) scale(0.18 -0.18)">
       <use xlink:href="#Arial-BoldMT-31"/>
       <use xlink:href="#Arial-BoldMT-30" x="55.615234"/>
      </g>
     </g>
    </g>
    <g id="text_12">
     <!-- Chemical Shift / ppm -->
     <g transform="translate(504.992813 245.447573) scale(0.18 -0.18)">
      <defs>
       <path id="Arial-BoldMT-43" d="M 3397 1684 
L 4294 1400 
Q 4088 650 3608 286 
Q 3128 -78 2391 -78 
Q 1478 -78 890 545 
Q 303 1169 303 2250 
Q 303 3394 893 4026 
Q 1484 4659 2447 4659 
Q 3288 4659 3813 4163 
Q 4125 3869 4281 3319 
L 3366 3100 
Q 3284 3456 3026 3662 
Q 2769 3869 2400 3869 
Q 1891 3869 1573 3503 
Q 1256 3138 1256 2319 
Q 1256 1450 1568 1081 
Q 1881 713 2381 713 
Q 2750 713 3015 947 
Q 3281 1181 3397 1684 
z
" transform="scale(0.015625)"/>
       <path id="Arial-BoldMT-68" d="M 1334 4581 
L 1334 2897 
Q 1759 3394 2350 3394 
Q 2653 3394 2897 3281 
Q 3141 3169 3264 2994 
Q 3388 2819 3433 2606 
Q 3478 2394 3478 1947 
L 3478 0 
L 2600 0 
L 2600 1753 
Q 2600 2275 2550 2415 
Q 2500 2556 2373 2639 
Q 2247 2722 2056 2722 
Q 1838 2722 1666 2615 
Q 1494 2509 1414 2295 
Q 1334 2081 1334 1663 
L 1334 0 
L 456 0 
L 456 4581 
L 1334 4581 
z
" transform="scale(0.015625)"/>
       <path id="Arial-BoldMT-65" d="M 2381 1056 
L 3256 909 
Q 3088 428 2723 176 
Q 2359 -75 1813 -75 
Q 947 -75 531 491 
Q 203 944 203 1634 
Q 203 2459 634 2926 
Q 1066 3394 1725 3394 
Q 2466 3394 2894 2905 
Q 3322 2416 3303 1406 
L 1103 1406 
Q 1113 1016 1316 798 
Q 1519 581 1822 581 
Q 2028 581 2168 693 
Q 2309 806 2381 1056 
z
M 2431 1944 
Q 2422 2325 2234 2523 
Q 2047 2722 1778 2722 
Q 1491 2722 1303 2513 
Q 1116 2303 1119 1944 
L 2431 1944 
z
" transform="scale(0.015625)"/>
       <path id="Arial-BoldMT-6d" d="M 394 3319 
L 1203 3319 
L 1203 2866 
Q 1638 3394 2238 3394 
Q 2556 3394 2790 3262 
Q 3025 3131 3175 2866 
Q 3394 3131 3647 3262 
Q 3900 3394 4188 3394 
Q 4553 3394 4806 3245 
Q 5059 3097 5184 2809 
Q 5275 2597 5275 2122 
L 5275 0 
L 4397 0 
L 4397 1897 
Q 4397 2391 4306 2534 
Q 4184 2722 3931 2722 
Q 3747 2722 3584 2609 
Q 3422 2497 3350 2280 
Q 3278 2063 3278 1594 
L 3278 0 
L 2400 0 
L 2400 1819 
Q 2400 2303 2353 2443 
Q 2306 2584 2207 2653 
Q 2109 2722 1941 2722 
Q 1738 2722 1575 2612 
Q 1413 2503 1342 2297 
Q 1272 2091 1272 1613 
L 1272 0 
L 394 0 
L 394 3319 
z
" transform="scale(0.015625)"/>
       <path id="Arial-BoldMT-69" d="M 459 3769 
L 459 4581 
L 1338 4581 
L 1338 3769 
L 459 3769 
z
M 459 0 
L 459 3319 
L 1338 3319 
L 1338 0 
L 459 0 
z
" transform="scale(0.015625)"/>
       <path id="Arial-BoldMT-63" d="M 3353 2338 
L 2488 2181 
Q 2444 2441 2289 2572 
Q 2134 2703 1888 2703 
Q 1559 2703 1364 2476 
Q 1169 2250 1169 1719 
Q 1169 1128 1367 884 
Q 1566 641 1900 641 
Q 2150 641 2309 783 
Q 2469 925 2534 1272 
L 3397 1125 
Q 3263 531 2881 228 
Q 2500 -75 1859 -75 
Q 1131 -75 698 384 
Q 266 844 266 1656 
Q 266 2478 700 2936 
Q 1134 3394 1875 3394 
Q 2481 3394 2839 3133 
Q 3197 2872 3353 2338 
z
" transform="scale(0.015625)"/>
       <path id="Arial-BoldMT-61" d="M 1116 2306 
L 319 2450 
Q 453 2931 781 3162 
Q 1109 3394 1756 3394 
Q 2344 3394 2631 3255 
Q 2919 3116 3036 2902 
Q 3153 2688 3153 2116 
L 3144 1091 
Q 3144 653 3186 445 
Q 3228 238 3344 0 
L 2475 0 
Q 2441 88 2391 259 
Q 2369 338 2359 363 
Q 2134 144 1878 34 
Q 1622 -75 1331 -75 
Q 819 -75 523 203 
Q 228 481 228 906 
Q 228 1188 362 1408 
Q 497 1628 739 1745 
Q 981 1863 1438 1950 
Q 2053 2066 2291 2166 
L 2291 2253 
Q 2291 2506 2166 2614 
Q 2041 2722 1694 2722 
Q 1459 2722 1328 2630 
Q 1197 2538 1116 2306 
z
M 2291 1594 
Q 2122 1538 1756 1459 
Q 1391 1381 1278 1306 
Q 1106 1184 1106 997 
Q 1106 813 1243 678 
Q 1381 544 1594 544 
Q 1831 544 2047 700 
Q 2206 819 2256 991 
Q 2291 1103 2291 1419 
L 2291 1594 
z
" transform="scale(0.015625)"/>
       <path id="Arial-BoldMT-6c" d="M 459 0 
L 459 4581 
L 1338 4581 
L 1338 0 
L 459 0 
z
" transform="scale(0.015625)"/>
       <path id="Arial-BoldMT-20" transform="scale(0.015625)"/>
       <path id="Arial-BoldMT-53" d="M 231 1491 
L 1131 1578 
Q 1213 1125 1461 912 
Q 1709 700 2131 700 
Q 2578 700 2804 889 
Q 3031 1078 3031 1331 
Q 3031 1494 2936 1608 
Q 2841 1722 2603 1806 
Q 2441 1863 1863 2006 
Q 1119 2191 819 2459 
Q 397 2838 397 3381 
Q 397 3731 595 4036 
Q 794 4341 1167 4500 
Q 1541 4659 2069 4659 
Q 2931 4659 3367 4281 
Q 3803 3903 3825 3272 
L 2900 3231 
Q 2841 3584 2645 3739 
Q 2450 3894 2059 3894 
Q 1656 3894 1428 3728 
Q 1281 3622 1281 3444 
Q 1281 3281 1419 3166 
Q 1594 3019 2269 2859 
Q 2944 2700 3267 2529 
Q 3591 2359 3773 2064 
Q 3956 1769 3956 1334 
Q 3956 941 3737 597 
Q 3519 253 3119 86 
Q 2719 -81 2122 -81 
Q 1253 -81 787 320 
Q 322 722 231 1491 
z
" transform="scale(0.015625)"/>
       <path id="Arial-BoldMT-66" d="M 75 3319 
L 563 3319 
L 563 3569 
Q 563 3988 652 4194 
Q 741 4400 980 4529 
Q 1219 4659 1584 4659 
Q 1959 4659 2319 4547 
L 2200 3934 
Q 1991 3984 1797 3984 
Q 1606 3984 1523 3895 
Q 1441 3806 1441 3553 
L 1441 3319 
L 2097 3319 
L 2097 2628 
L 1441 2628 
L 1441 0 
L 563 0 
L 563 2628 
L 75 2628 
L 75 3319 
z
" transform="scale(0.015625)"/>
       <path id="Arial-BoldMT-74" d="M 1981 3319 
L 1981 2619 
L 1381 2619 
L 1381 1281 
Q 1381 875 1398 808 
Q 1416 741 1477 697 
Q 1538 653 1625 653 
Q 1747 653 1978 738 
L 2053 56 
Q 1747 -75 1359 -75 
Q 1122 -75 931 4 
Q 741 84 652 211 
Q 563 338 528 553 
Q 500 706 500 1172 
L 500 2619 
L 97 2619 
L 97 3319 
L 500 3319 
L 500 3978 
L 1381 4491 
L 1381 3319 
L 1981 3319 
z
" transform="scale(0.015625)"/>
       <path id="Arial-BoldMT-2f" d="M -9 -78 
L 1125 4659 
L 1784 4659 
L 638 -78 
L -9 -78 
z
" transform="scale(0.015625)"/>
       <path id="Arial-BoldMT-70" d="M 434 3319 
L 1253 3319 
L 1253 2831 
Q 1413 3081 1684 3237 
Q 1956 3394 2288 3394 
Q 2866 3394 3269 2941 
Q 3672 2488 3672 1678 
Q 3672 847 3265 386 
Q 2859 -75 2281 -75 
Q 2006 -75 1782 34 
Q 1559 144 1313 409 
L 1313 -1263 
L 434 -1263 
L 434 3319 
z
M 1303 1716 
Q 1303 1156 1525 889 
Q 1747 622 2066 622 
Q 2372 622 2575 867 
Q 2778 1113 2778 1672 
Q 2778 2194 2568 2447 
Q 2359 2700 2050 2700 
Q 1728 2700 1515 2451 
Q 1303 2203 1303 1716 
z
" transform="scale(0.015625)"/>
      </defs>
      <use xlink:href="#Arial-BoldMT-43"/>
      <use xlink:href="#Arial-BoldMT-68" x="72.216797"/>
      <use xlink:href="#Arial-BoldMT-65" x="133.300781"/>
      <use xlink:href="#Arial-BoldMT-6d" x="188.916016"/>
      <use xlink:href="#Arial-BoldMT-69" x="277.832031"/>
      <use xlink:href="#Arial-BoldMT-63" x="305.615234"/>
      <use xlink:href="#Arial-BoldMT-61" x="361.230469"/>
      <use xlink:href="#Arial-BoldMT-6c" x="416.845703"/>
      <use xlink:href="#Arial-BoldMT-20" x="444.628906"/>
      <use xlink:href="#Arial-BoldMT-53" x="472.412109"/>
      <use xlink:href="#Arial-BoldMT-68" x="539.111328"/>
      <use xlink:href="#Arial-BoldMT-69" x="600.195312"/>
      <use xlink:href="#Arial-BoldMT-66" x="627.978516"/>
      <use xlink:href="#Arial-BoldMT-74" x="661.279297"/>
      <use xlink:href="#Arial-BoldMT-20" x="694.580078"/>
      <use xlink:href="#Arial-BoldMT-2f" x="722.363281"/>
      <use xlink:href="#Arial-BoldMT-20" x="750.146484"/>
      <use xlink:href="#Arial-BoldMT-70" x="777.929688"/>
      <use xlink:href="#Arial-BoldMT-70" x="839.013672"/>
      <use xlink:href="#Arial-BoldMT-6d" x="900.097656"/>
     </g>
    </g>
   </g>
   <g id="matplotlib.axis_2"/>
   <g id="line2d_12">
    <path d="M 2.97962 187.504862 
L 3.388859 187.363595 
L 3.798099 187.588739 
L 4.411958 188.149211 
L 5.230437 188.348858 
L 5.844296 189.185982 
L 6.048916 189.281611 
L 6.458155 189.104475 
L 7.685873 188.165659 
L 8.299732 188.486682 
L 8.708972 188.259954 
L 9.322831 187.806007 
L 9.732071 187.761304 
L 10.34593 187.927168 
L 10.959789 188.135192 
L 11.164409 188.116055 
L 11.369028 187.962057 
L 12.187507 186.714504 
L 12.392127 186.719667 
L 12.801366 187.178948 
L 13.415226 188.016699 
L 13.824465 188.260558 
L 14.233705 188.425202 
L 15.052183 189.13346 
L 15.256803 189.03782 
L 16.279902 188.07696 
L 17.098381 187.894638 
L 17.91686 187.941096 
L 18.939958 187.71357 
L 19.758437 186.995327 
L 20.167677 187.323178 
L 20.576916 187.644361 
L 21.190775 187.724785 
L 22.009254 187.565305 
L 22.623113 187.367733 
L 23.032353 187.319177 
L 23.441592 187.085188 
L 24.260071 186.259485 
L 24.464691 186.325662 
L 25.28317 187.393173 
L 25.692409 187.386437 
L 26.101649 187.191805 
L 27.943226 185.750167 
L 28.352466 185.738633 
L 29.170945 185.877072 
L 30.603283 186.071442 
L 31.421762 186.591451 
L 32.035621 186.617382 
L 32.64948 186.964814 
L 33.058719 187.448681 
L 33.672579 188.393686 
L 33.877198 188.518711 
L 34.081818 188.427082 
L 35.104917 187.023765 
L 36.332635 186.901487 
L 37.764973 185.994278 
L 38.174213 186.029133 
L 38.788072 186.721434 
L 39.197311 187.049843 
L 40.42503 187.475056 
L 40.834269 187.111483 
L 41.243509 186.63188 
L 41.448128 186.532547 
L 41.652748 186.573568 
L 42.061987 187.025452 
L 43.085086 188.6335 
L 43.494326 188.781183 
L 44.108185 188.755982 
L 44.517424 188.625646 
L 44.926664 188.240691 
L 45.540523 187.616721 
L 46.154382 187.393583 
L 46.563621 187.515427 
L 47.3821 188.136639 
L 47.79134 188.003523 
L 48.200579 187.762991 
L 48.609819 187.767881 
L 49.223678 187.987862 
L 49.632917 188.272446 
L 49.837537 188.277689 
L 50.042157 188.065117 
L 50.860636 186.60408 
L 52.088354 185.886498 
L 52.497593 186.084219 
L 53.929932 187.307996 
L 54.543791 187.323999 
L 55.36227 187.23604 
L 55.976129 186.762113 
L 56.999227 185.913386 
L 58.022326 185.327394 
L 58.431566 184.658219 
L 59.454664 182.401798 
L 60.273143 181.468168 
L 60.682383 180.815064 
L 60.887002 180.731483 
L 61.091622 180.919652 
L 61.500861 181.974591 
L 62.31934 184.70364 
L 62.72858 185.41191 
L 63.137819 185.676582 
L 63.547059 185.849546 
L 64.365538 186.399863 
L 64.774777 186.096495 
L 65.388636 185.432802 
L 65.593256 185.384817 
L 65.797876 185.486544 
L 66.207115 186.148811 
L 66.820974 187.447062 
L 67.230214 187.607489 
L 68.253312 187.450972 
L 69.071791 187.043609 
L 69.481031 187.162638 
L 70.29951 187.745051 
L 71.117989 188.572441 
L 71.322608 188.63693 
L 71.731848 188.439689 
L 72.959566 187.28471 
L 73.164186 187.310674 
L 73.573425 187.682533 
L 74.187285 188.237671 
L 74.596524 188.234183 
L 75.210383 187.860375 
L 75.415003 187.903665 
L 75.824242 188.359367 
L 76.438102 189.071615 
L 76.847341 189.309376 
L 77.051961 189.318859 
L 77.4612 189.016403 
L 78.075059 188.058461 
L 78.688919 186.985616 
L 79.098158 186.713284 
L 79.507397 186.76657 
L 81.348975 187.746373 
L 81.758214 188.021554 
L 82.372074 187.991315 
L 83.599792 187.672982 
L 84.009031 187.323178 
L 84.622891 186.667806 
L 85.03213 186.472149 
L 86.259848 186.299789 
L 86.873708 186.556277 
L 88.101426 187.527304 
L 88.715285 187.812116 
L 89.329144 188.094615 
L 90.147623 188.042424 
L 91.170722 188.506617 
L 92.19382 187.892244 
L 92.80768 187.429817 
L 93.216919 187.058301 
L 93.626159 187.011193 
L 94.444637 187.314971 
L 96.286215 188.445912 
L 96.695454 188.360883 
L 97.309314 188.089999 
L 98.332412 188.151502 
L 99.96937 187.592238 
L 100.787849 187.561703 
L 101.810948 187.231926 
L 102.424807 186.879125 
L 103.038666 186.979415 
L 103.652525 187.272161 
L 104.061765 187.451793 
L 104.266384 187.384225 
L 104.880244 186.822636 
L 105.289483 186.883342 
L 105.698722 187.255622 
L 106.721821 188.481234 
L 107.131061 188.616038 
L 107.949539 188.507791 
L 108.358779 188.472264 
L 108.768018 188.158831 
L 109.381878 187.335442 
L 109.995737 186.553336 
L 110.404976 186.415923 
L 111.428075 186.595976 
L 112.451173 186.109693 
L 112.860413 185.774502 
L 113.269652 185.784692 
L 113.883512 186.12809 
L 114.90661 186.773648 
L 115.31585 186.936445 
L 115.725089 187.420346 
L 116.338948 188.299949 
L 116.543568 188.344595 
L 116.952807 188.024677 
L 117.771286 187.160894 
L 118.385146 186.640428 
L 118.794385 186.571471 
L 119.203624 186.961897 
L 119.612864 187.299789 
L 119.817484 187.281108 
L 120.431343 186.741232 
L 121.454441 185.853467 
L 122.27292 185.555422 
L 123.296019 185.270359 
L 123.705258 185.522561 
L 124.114498 185.792739 
L 124.523737 185.643881 
L 124.932977 185.455085 
L 125.342216 185.592499 
L 126.365315 186.441055 
L 127.183794 186.783815 
L 127.593033 186.55483 
L 128.411512 185.715631 
L 129.229991 185.296574 
L 129.63923 185.355228 
L 130.662329 185.946919 
L 131.685428 185.801333 
L 132.094667 186.136821 
L 132.708526 186.637522 
L 133.117766 186.630615 
L 133.936245 186.476275 
L 134.754724 186.60245 
L 135.163963 186.345905 
L 135.982442 185.438353 
L 137.005541 185.13291 
L 137.41478 185.006473 
L 137.82402 185.223798 
L 138.642498 185.695092 
L 139.051738 185.702193 
L 139.665597 185.366318 
L 140.484076 184.791519 
L 141.097935 184.926926 
L 142.121034 185.119666 
L 142.939513 186.072251 
L 143.962611 187.590073 
L 144.371851 188.101226 
L 144.78109 188.410248 
L 144.98571 188.452272 
L 145.19033 188.317377 
L 145.599569 187.519519 
L 146.418048 185.818943 
L 147.031907 185.096209 
L 147.441147 184.899218 
L 147.850386 185.000774 
L 148.873485 185.463622 
L 149.487344 185.706285 
L 150.919682 186.552539 
L 151.328922 186.381455 
L 152.35202 185.707744 
L 153.375119 184.289039 
L 153.784358 184.269514 
L 154.602837 184.678599 
L 156.239795 185.474621 
L 156.444415 185.455689 
L 157.672133 184.665913 
L 158.081373 184.531918 
L 158.899851 183.86891 
L 159.309091 184.106102 
L 159.92295 184.707812 
L 160.33219 184.778833 
L 160.741429 184.767948 
L 161.355288 185.042969 
L 161.764528 185.346656 
L 162.173767 185.69377 
L 162.378387 185.69295 
L 163.196866 185.188156 
L 163.606105 185.585752 
L 164.015345 186.005539 
L 164.424584 186.122505 
L 165.038443 186.045671 
L 165.652302 185.526117 
L 166.675401 184.537743 
L 167.6985 184.46589 
L 168.107739 184.753575 
L 168.721598 185.473846 
L 169.949317 187.390038 
L 170.358556 187.484015 
L 170.972415 187.327133 
L 171.381655 187.002211 
L 171.995514 186.240736 
L 173.223232 185.722755 
L 174.041711 185.044553 
L 174.246331 185.076502 
L 174.65557 185.432768 
L 175.26943 186.076616 
L 175.474049 186.09882 
L 175.883289 185.636894 
L 176.292528 185.294397 
L 176.701768 185.531543 
L 177.111007 185.792784 
L 177.315627 185.725627 
L 177.724866 185.112599 
L 178.543345 183.418759 
L 178.952585 182.982935 
L 179.361824 182.920485 
L 179.975683 183.28546 
L 180.794162 183.725319 
L 181.612641 183.678006 
L 182.2265 183.535417 
L 183.249599 182.7811 
L 184.272698 182.891557 
L 184.681937 182.634784 
L 185.500416 181.832755 
L 185.909655 181.800396 
L 186.932754 182.261523 
L 187.341993 181.922263 
L 187.751233 181.559329 
L 188.365092 181.416957 
L 188.978951 181.508574 
L 189.79743 181.751749 
L 190.00205 181.681549 
L 190.411289 181.096925 
L 191.229768 179.151793 
L 191.434388 178.9821 
L 191.639008 179.02523 
L 192.662106 179.975752 
L 193.071346 179.711388 
L 193.685205 178.893698 
L 195.117543 176.365298 
L 195.731402 175.446656 
L 196.959121 173.544256 
L 197.36836 172.792275 
L 197.7776 171.562867 
L 199.005318 167.375927 
L 199.823797 164.791005 
L 200.233036 162.859482 
L 200.846895 158.609306 
L 201.665374 151.186813 
L 202.279233 144.263381 
L 202.893093 134.386621 
L 203.506952 120.804997 
L 204.120811 103.406548 
L 204.73467 79.704636 
L 205.757769 37.949472 
L 205.962389 35.112427 
L 206.167008 35.758658 
L 206.371628 39.903448 
L 206.780867 56.556733 
L 208.008586 117.357249 
L 208.622445 136.985505 
L 209.236304 149.739522 
L 209.850163 158.374337 
L 210.464023 164.349698 
L 211.077882 168.06727 
L 211.691741 170.529117 
L 212.3056 171.573103 
L 212.71484 172.500031 
L 213.328699 174.525655 
L 214.147178 177.342298 
L 214.556417 178.017376 
L 215.170276 178.596644 
L 215.579516 178.699533 
L 216.193375 178.643558 
L 216.602614 179.167819 
L 217.625713 180.864896 
L 218.034952 181.209616 
L 218.444192 181.310705 
L 219.262671 181.261523 
L 219.87653 181.163455 
L 220.490389 181.433028 
L 221.513488 181.166441 
L 222.536586 181.965381 
L 223.559685 181.958223 
L 224.992023 181.952593 
L 225.401263 181.664669 
L 226.219742 180.721236 
L 226.628981 180.780221 
L 227.44746 181.16097 
L 228.061319 181.273456 
L 228.470559 181.679748 
L 228.879798 182.226645 
L 229.084418 182.293734 
L 229.289037 182.101826 
L 229.698277 181.108471 
L 230.312136 179.604897 
L 230.721376 179.157675 
L 231.539854 178.61121 
L 232.153714 178.240047 
L 232.972193 178.073671 
L 233.381432 177.596666 
L 234.199911 176.286424 
L 234.81377 174.630892 
L 235.632249 171.78474 
L 236.246108 168.27379 
L 237.064587 162.604077 
L 237.883066 154.849527 
L 239.315404 139.786624 
L 239.520024 138.734842 
L 239.724643 138.356783 
L 239.929263 138.660493 
L 240.133883 139.632979 
L 240.543122 143.472692 
L 241.97546 160.322135 
L 242.3847 162.572539 
L 242.793939 163.78738 
L 243.407799 164.66557 
L 243.612418 164.759455 
L 243.817038 164.702773 
L 244.226277 164.182046 
L 244.840137 162.714979 
L 245.453996 160.844618 
L 245.863235 159.009694 
L 246.477094 154.995216 
L 247.090954 148.784692 
L 247.704813 139.31566 
L 248.318672 126.572858 
L 249.95563 89.028811 
L 250.16025 87.697312 
L 250.364869 87.964765 
L 250.569489 89.85155 
L 250.978728 97.846859 
L 252.820306 145.431763 
L 253.434165 154.037479 
L 254.048024 159.641164 
L 254.457264 161.855151 
L 255.071123 163.936362 
L 255.684982 165.341321 
L 256.094222 165.638888 
L 256.708081 165.96479 
L 257.11732 166.106114 
L 257.32194 165.945881 
L 257.731179 164.932362 
L 258.549658 161.597762 
L 259.163518 157.940815 
L 259.981996 151.541438 
L 260.595856 145.313521 
L 261.209715 136.76035 
L 263.255912 104.531436 
L 263.665152 101.91974 
L 264.074391 100.819164 
L 264.279011 100.75692 
L 264.48363 101.058419 
L 264.68825 101.806171 
L 265.09749 104.748966 
L 265.711349 112.218339 
L 268.166786 148.02732 
L 268.780645 153.390291 
L 269.189884 155.538135 
L 269.599124 156.58122 
L 270.417603 157.886721 
L 270.622222 158.054259 
L 270.826842 158.02932 
L 271.031462 157.739083 
L 271.440701 156.311875 
L 272.05456 152.784466 
L 273.896138 140.456129 
L 274.509997 138.216645 
L 275.123856 136.537975 
L 275.533096 135.923066 
L 275.737715 135.872573 
L 275.942335 135.997222 
L 276.965434 137.322543 
L 277.170053 137.371543 
L 277.374673 137.30385 
L 277.783913 136.775771 
L 279.42087 133.350808 
L 279.62549 133.095288 
L 279.83011 133.045524 
L 280.03473 133.215195 
L 280.853209 134.441582 
L 281.057828 134.521276 
L 281.262448 134.423026 
L 281.467068 134.108772 
L 281.876307 132.782345 
L 282.490166 130.542975 
L 282.694786 130.356482 
L 282.899406 130.584601 
L 283.308645 132.241523 
L 284.127124 136.733223 
L 284.536364 137.765058 
L 284.740983 137.822526 
L 284.945603 137.557102 
L 285.354843 136.359666 
L 285.968702 134.440088 
L 286.377941 133.861801 
L 286.787181 133.346613 
L 287.19642 132.303175 
L 287.60566 130.201253 
L 288.014899 126.591768 
L 289.037998 115.455407 
L 289.447237 113.663704 
L 289.651857 113.535967 
L 289.856477 113.789446 
L 290.265716 114.961624 
L 290.879575 117.307953 
L 291.288815 119.70376 
L 291.698054 123.303728 
L 294.358111 151.80839 
L 294.76735 154.232327 
L 295.176589 155.688885 
L 295.790449 157.40502 
L 296.404308 160.255093 
L 297.836646 167.695423 
L 298.041266 168.031572 
L 298.245885 168.129914 
L 299.268984 167.848908 
L 299.678223 168.204023 
L 300.292083 169.096359 
L 300.701322 169.317115 
L 300.905942 169.236406 
L 302.33828 167.597811 
L 302.747519 167.020721 
L 303.361379 166.61607 
L 303.770618 166.506387 
L 304.384477 166.744593 
L 304.793717 166.729673 
L 304.998336 166.500757 
L 305.407576 165.404455 
L 306.021435 162.590604 
L 307.044534 156.924823 
L 308.476872 146.541515 
L 310.727689 128.821313 
L 312.569266 118.886377 
L 312.773886 118.528572 
L 312.978506 118.48281 
L 313.183125 118.731046 
L 313.592365 119.960533 
L 314.206224 123.315456 
L 314.820083 126.539679 
L 315.229323 127.850673 
L 315.433942 128.222612 
L 315.638562 128.35183 
L 315.843182 128.206768 
L 316.252421 127.196475 
L 316.661661 125.332874 
L 317.0709 122.52666 
L 317.48014 118.460914 
L 318.298619 107.066048 
L 320.344816 77.018739 
L 320.958675 71.720759 
L 321.777154 65.628671 
L 322.391013 58.440646 
L 323.004872 47.058864 
L 324.84645 6.632772 
L 325.255689 3.374732 
L 325.460309 3.00024 
L 325.664929 3.619936 
L 325.869548 5.380044 
L 326.278788 12.399596 
L 327.506506 40.899391 
L 327.915746 45.243293 
L 328.324985 46.92194 
L 328.734225 48.053747 
L 329.143464 50.603677 
L 329.757323 57.40302 
L 330.371182 64.383443 
L 330.780422 67.288089 
L 330.985042 67.964103 
L 331.189661 68.027202 
L 331.394281 67.414037 
L 331.803521 64.05582 
L 332.621999 53.643891 
L 332.826619 52.566897 
L 333.031239 52.892583 
L 333.235859 54.777168 
L 333.645098 62.889033 
L 335.077436 100.840261 
L 335.691295 108.826794 
L 336.100535 111.907493 
L 336.509774 113.393503 
L 336.714394 113.582345 
L 336.919014 113.492723 
L 337.532873 112.719849 
L 337.737493 112.71317 
L 337.942112 113.041637 
L 338.351352 114.71332 
L 339.57907 121.108673 
L 340.192929 123.867882 
L 340.806789 128.020811 
L 342.648366 142.402959 
L 343.671465 145.768573 
L 344.080704 146.733742 
L 345.103803 148.285723 
L 345.513042 149.467669 
L 346.126901 152.121116 
L 347.55924 159.163988 
L 348.173099 160.887577 
L 348.582338 161.55144 
L 349.400817 162.184597 
L 349.810057 162.506624 
L 350.219296 162.496377 
L 350.628535 162.09469 
L 351.037775 161.692866 
L 351.242395 161.897973 
L 351.447014 162.53839 
L 352.060874 166.122333 
L 352.674733 169.315348 
L 353.493212 171.896087 
L 354.107071 173.146524 
L 354.51631 173.517242 
L 354.92555 173.60544 
L 355.334789 174.200459 
L 355.744029 174.869212 
L 356.562507 175.833913 
L 357.585606 177.427098 
L 358.404085 178.175945 
L 358.813324 178.159555 
L 359.427184 177.692546 
L 360.245663 177.004564 
L 360.654902 176.841357 
L 361.064141 176.986727 
L 361.473381 177.242429 
L 361.678001 177.244321 
L 362.08724 176.889377 
L 362.701099 176.170974 
L 363.314958 175.771624 
L 363.724198 175.935948 
L 364.338057 176.530762 
L 364.542677 176.539197 
L 364.951916 175.991889 
L 365.361156 175.491006 
L 365.565775 175.560419 
L 365.975015 176.213204 
L 366.793494 177.787696 
L 367.407353 178.310532 
L 368.021212 178.830154 
L 368.839691 179.661738 
L 369.65817 180.231523 
L 369.86279 180.099648 
L 370.272029 179.36326 
L 371.295128 176.860152 
L 371.704367 176.533315 
L 371.908987 176.570325 
L 372.727466 177.113369 
L 372.932086 176.918931 
L 373.545945 175.585768 
L 374.159804 174.289819 
L 374.569043 173.903075 
L 374.978283 173.649573 
L 375.387522 173.169536 
L 376.001382 172.371564 
L 377.02448 171.519931 
L 377.638339 170.399579 
L 378.456818 168.559891 
L 379.070677 166.784304 
L 379.889156 163.478084 
L 380.912255 158.728916 
L 381.526114 155.576866 
L 381.935354 152.252751 
L 382.344593 146.965747 
L 383.163072 132.421702 
L 383.981551 114.037272 
L 385.413889 77.261983 
L 385.823128 70.99236 
L 386.232368 68.051149 
L 386.436988 67.637449 
L 386.641607 67.77957 
L 386.846227 68.422347 
L 387.255467 71.225745 
L 387.664706 76.297669 
L 388.278565 87.827761 
L 389.301664 114.517297 
L 390.324762 139.679665 
L 390.938622 150.604001 
L 391.552481 156.95105 
L 392.575579 164.36333 
L 393.189439 167.01028 
L 393.598678 167.781512 
L 394.621777 168.515416 
L 395.440256 169.62837 
L 395.849495 169.804229 
L 396.258734 169.4958 
L 396.667974 169.106093 
L 397.077213 168.88504 
L 397.281833 168.660535 
L 397.691073 167.691491 
L 399.123411 163.178329 
L 399.94189 159.389155 
L 400.351129 156.451249 
L 400.964988 150.280287 
L 401.988087 139.648538 
L 402.397326 137.340962 
L 402.601946 136.784491 
L 402.806566 136.569434 
L 403.011185 136.598214 
L 403.829664 137.371588 
L 404.238904 137.896704 
L 404.648143 139.155746 
L 405.057383 141.574087 
L 405.671242 147.14938 
L 406.694341 156.997508 
L 407.3082 160.788985 
L 407.922059 163.246295 
L 408.331298 164.127586 
L 408.535918 164.336237 
L 408.740538 164.350735 
L 408.945158 164.13055 
L 409.354397 162.989522 
L 410.991355 156.221785 
L 411.605214 151.984682 
L 412.219073 145.528532 
L 413.242172 133.095106 
L 413.651411 130.500552 
L 413.856031 129.9718 
L 414.060651 129.85977 
L 414.26527 130.051165 
L 414.67451 130.979324 
L 415.288369 133.01834 
L 415.902228 135.805223 
L 416.311468 138.897332 
L 416.925327 146.148 
L 418.153045 161.100776 
L 418.971524 167.960312 
L 419.380764 170.135158 
L 422.24544 180.097391 
L 422.654679 180.63134 
L 423.677778 181.057351 
L 424.087017 181.290713 
L 424.496257 181.242898 
L 425.519355 180.65237 
L 425.928595 181.377121 
L 426.542454 182.75656 
L 426.747074 182.939474 
L 427.156313 182.920121 
L 427.565553 182.892173 
L 428.179412 183.040153 
L 428.997891 182.846626 
L 429.40713 183.057044 
L 430.020989 183.677812 
L 430.430229 184.004215 
L 431.453327 183.975755 
L 432.271806 184.492299 
L 432.681046 184.651061 
L 432.885666 184.870529 
L 433.294905 185.882521 
L 433.908764 187.785605 
L 434.113384 188.085257 
L 434.318004 188.15882 
L 434.727243 187.778732 
L 435.341102 187.095105 
L 436.159581 186.553462 
L 436.97806 186.564062 
L 437.796539 186.915552 
L 438.615018 186.44664 
L 439.638117 186.860956 
L 440.661215 186.253194 
L 441.275074 186.147432 
L 441.479694 186.26058 
L 441.888934 186.859771 
L 442.502793 187.848157 
L 442.707412 187.935636 
L 443.116652 187.796011 
L 445.162849 186.680333 
L 445.572089 186.601083 
L 446.390568 186.095799 
L 446.799807 186.146509 
L 447.209046 186.294192 
L 447.618286 186.767424 
L 448.232145 187.721241 
L 448.641385 188.033442 
L 448.846004 188.081086 
L 449.050624 187.986334 
L 450.073723 186.851895 
L 450.278342 186.950362 
L 450.687582 187.582755 
L 451.301441 188.579815 
L 451.506061 188.666987 
L 451.9153 188.428074 
L 453.143019 186.968804 
L 453.552258 187.053798 
L 454.779976 187.7567 
L 456.416934 187.26229 
L 457.030793 186.852761 
L 457.235413 186.899607 
L 457.644653 187.384431 
L 458.258512 188.285679 
L 458.667751 188.537335 
L 459.076991 188.65242 
L 459.48623 189.066098 
L 459.89547 189.549303 
L 460.100089 189.599853 
L 460.509329 189.274738 
L 461.737047 187.952482 
L 462.555526 186.4018 
L 462.760146 186.306844 
L 463.169385 186.548675 
L 463.578625 187.164666 
L 464.601723 188.904874 
L 465.420202 189.559049 
L 465.624822 189.562639 
L 466.034061 189.239199 
L 467.875639 187.206474 
L 468.694118 186.861971 
L 468.898738 186.895184 
L 469.717216 187.559731 
L 470.126456 187.377147 
L 470.740315 186.944754 
L 471.763414 186.751935 
L 472.581893 186.99005 
L 473.400371 186.82104 
L 474.21885 186.914755 
L 474.83271 187.271477 
L 475.855808 188.52115 
L 476.265048 188.595567 
L 477.492766 188.398257 
L 478.106625 188.071751 
L 479.129724 186.933413 
L 479.334344 186.914048 
L 479.743583 187.264376 
L 481.380541 189.53656 
L 481.78978 189.433899 
L 482.19902 189.304954 
L 482.812879 189.327852 
L 483.222118 188.813291 
L 483.835978 187.984294 
L 484.245217 187.958922 
L 484.449837 187.957828 
L 484.859076 187.621588 
L 485.268316 187.361122 
L 485.677555 187.580464 
L 486.291414 188.450574 
L 486.905273 189.284164 
L 487.723752 190.037273 
L 487.928372 190.005336 
L 488.951471 189.142248 
L 489.56533 189.320877 
L 490.179189 189.517731 
L 491.202288 189.025852 
L 492.225386 188.317742 
L 492.839246 188.641205 
L 493.043865 188.537939 
L 493.657724 187.982835 
L 494.476203 188.357338 
L 495.294682 187.669733 
L 495.908541 187.739842 
L 497.34088 187.907027 
L 498.363978 188.606749 
L 498.977837 188.710823 
L 499.591697 188.816357 
L 500.000936 188.849445 
L 501.433274 188.078681 
L 501.842514 188.326757 
L 502.660992 189.256615 
L 502.865612 189.289088 
L 503.274852 188.985001 
L 503.888711 188.37782 
L 504.29795 188.398667 
L 504.911809 188.595123 
L 505.525669 188.492461 
L 505.934908 188.468126 
L 507.162626 188.984865 
L 507.776486 189.495186 
L 507.981105 189.405655 
L 509.004204 188.170708 
L 509.413443 188.040783 
L 509.822683 188.060182 
L 510.027303 187.975461 
L 510.436542 187.470098 
L 510.845781 186.925377 
L 511.050401 186.840269 
L 511.459641 187.041295 
L 512.891979 187.843142 
L 513.505838 187.826524 
L 514.733556 188.295801 
L 514.938176 188.162456 
L 515.347415 187.491389 
L 515.756655 186.776452 
L 516.165894 186.567629 
L 516.575134 186.748401 
L 516.984373 186.957919 
L 517.598232 186.858061 
L 518.212092 186.635778 
L 518.825951 186.704394 
L 519.43981 186.775357 
L 519.849049 186.551832 
L 520.462909 186.129047 
L 520.872148 186.268991 
L 521.895247 187.119132 
L 522.304486 187.219434 
L 522.509106 187.182687 
L 522.918345 186.699835 
L 524.759923 183.449613 
L 524.964543 183.260635 
L 525.169162 183.226988 
L 525.578402 183.593114 
L 526.192261 184.129308 
L 526.80612 184.303116 
L 527.21536 184.230305 
L 528.238458 183.60091 
L 528.852317 182.6023 
L 529.261557 181.707753 
L 529.875416 179.6673 
L 530.693895 177.181016 
L 531.512374 174.907783 
L 532.126233 172.195945 
L 532.740092 168.357269 
L 533.353951 162.893939 
L 535.195529 144.336795 
L 535.604768 143.020421 
L 535.809388 142.860336 
L 536.627867 142.683064 
L 536.832487 142.352557 
L 537.241726 141.032422 
L 537.855585 138.901321 
L 538.060205 138.727855 
L 538.264825 139.086299 
L 538.469445 140.067766 
L 538.878684 143.661021 
L 540.515642 161.543815 
L 541.129501 165.736933 
L 541.74336 168.666473 
L 542.1526 169.733277 
L 542.357219 169.932844 
L 542.561839 169.940013 
L 542.766459 169.782277 
L 543.175698 169.009871 
L 543.789558 167.101521 
L 544.198797 165.259131 
L 544.812656 160.736383 
L 546.244994 147.773931 
L 546.654234 146.073412 
L 546.858853 145.826634 
L 547.472713 145.764766 
L 548.086572 145.243868 
L 548.495811 144.597683 
L 549.10967 143.229801 
L 549.31429 143.226724 
L 549.51891 143.723197 
L 549.928149 146.47796 
L 550.746628 156.146057 
L 551.769727 167.343545 
L 552.588206 173.741828 
L 553.202065 176.991149 
L 553.611304 178.125269 
L 555.248262 181.303843 
L 555.862121 181.814951 
L 556.066741 181.74572 
L 556.475981 181.082221 
L 556.88522 180.325921 
L 557.08984 180.186945 
L 557.499079 180.370646 
L 557.908319 180.507524 
L 559.340657 179.96587 
L 559.954516 179.759282 
L 560.363755 179.4258 
L 560.772995 178.854511 
L 561.182234 177.875836 
L 561.796093 175.337236 
L 562.409953 171.854085 
L 563.433051 164.550656 
L 564.45615 155.770494 
L 565.274629 148.339692 
L 565.683868 146.201172 
L 566.093108 145.184074 
L 566.297727 144.972676 
L 566.502347 144.967718 
L 566.706967 145.191323 
L 567.320826 146.726629 
L 567.730066 147.485289 
L 568.139305 148.064659 
L 568.548544 149.267601 
L 569.162404 152.451099 
L 569.980883 158.334319 
L 571.003981 165.680548 
L 571.413221 167.470746 
L 571.82246 168.482567 
L 572.02708 168.690602 
L 572.436319 168.665117 
L 572.845559 168.371459 
L 573.459418 167.646503 
L 573.868657 166.863315 
L 574.277897 165.33952 
L 574.891756 161.683657 
L 575.710235 155.098447 
L 576.324094 150.292221 
L 576.733334 148.607784 
L 576.937953 148.308644 
L 577.142573 148.263736 
L 577.551812 148.607727 
L 577.961052 149.40873 
L 578.574911 150.607455 
L 579.18877 151.025372 
L 579.59801 152.054358 
L 580.007249 153.922565 
L 580.621108 158.06315 
L 582.462686 173.764578 
L 583.281165 178.945068 
L 583.895024 181.626554 
L 584.304263 182.637052 
L 584.713503 182.948388 
L 585.122742 183.143703 
L 585.531982 183.599975 
L 586.145841 184.756401 
L 586.96432 186.786311 
L 587.16894 186.960073 
L 587.578179 186.920898 
L 588.192038 186.735442 
L 588.805897 186.822283 
L 589.419757 187.05357 
L 589.828996 186.981968 
L 590.442855 186.712532 
L 591.261334 186.985844 
L 591.670574 186.631595 
L 592.284433 185.875477 
L 592.693672 185.840952 
L 593.102912 185.934906 
L 594.12601 185.964871 
L 595.149109 186.197925 
L 595.967588 185.709796 
L 596.376827 185.82153 
L 596.786067 186.124556 
L 598.013785 187.592751 
L 598.218405 187.629658 
L 598.423025 187.510572 
L 599.241503 186.634091 
L 599.855363 186.710765 
L 600.264602 186.841215 
L 600.673842 187.114869 
L 601.083081 187.067522 
L 601.49232 187.046116 
L 601.90156 187.32189 
L 602.924659 188.633887 
L 604.152377 188.381958 
L 604.970856 188.044715 
L 606.198574 187.964701 
L 606.607814 187.94684 
L 607.426293 188.206292 
L 608.040152 188.088437 
L 608.654011 188.465653 
L 608.858631 188.392843 
L 610.086349 187.151023 
L 612.132546 186.983268 
L 612.541786 187.256192 
L 612.951025 187.928045 
L 613.564884 189.068708 
L 613.769504 189.134235 
L 613.974124 188.95401 
L 614.997222 187.365065 
L 616.429561 185.495765 
L 616.8388 185.493041 
L 617.248039 185.718401 
L 618.271138 186.643665 
L 618.884997 186.550681 
L 619.294237 186.481723 
L 619.908096 186.630398 
L 620.521955 186.490921 
L 621.340434 186.745746 
L 621.749673 186.433658 
L 622.158913 186.019786 
L 623.386631 185.468113 
L 623.795871 185.566307 
L 625.023589 186.583484 
L 625.228209 186.495925 
L 625.637448 185.837738 
L 626.046688 184.91114 
L 626.251307 184.693188 
L 626.455927 184.76006 
L 627.479026 186.092254 
L 627.888265 186.310081 
L 628.092885 186.326802 
L 628.297505 186.208822 
L 628.706744 185.576565 
L 629.320603 184.435047 
L 629.934462 183.83646 
L 630.139082 183.819511 
L 630.548322 184.110216 
L 631.366801 184.875009 
L 633.208378 185.436712 
L 633.617618 185.305145 
L 634.640716 184.573646 
L 635.254575 184.489837 
L 635.663815 184.621518 
L 636.277674 184.894693 
L 637.096153 184.726983 
L 637.505392 184.704575 
L 637.914632 184.948035 
L 638.528491 185.303561 
L 639.756209 185.81101 
L 640.165449 185.397389 
L 640.779308 184.464488 
L 641.393167 184.063998 
L 641.802407 183.967936 
L 642.211646 184.070916 
L 642.620886 184.474359 
L 643.234745 185.21925 
L 645.280942 186.61973 
L 646.50866 186.313512 
L 647.327139 185.76299 
L 648.350238 185.660203 
L 648.759477 185.48227 
L 649.168717 185.264944 
L 649.782576 185.190767 
L 650.601055 184.498135 
L 651.214914 184.551204 
L 652.033393 184.621244 
L 652.238013 184.502181 
L 652.647252 183.89117 
L 653.261111 182.970317 
L 653.465731 182.91865 
L 653.874971 183.276672 
L 654.28421 183.748308 
L 654.48883 183.817585 
L 654.898069 183.507036 
L 655.921168 182.270288 
L 656.330407 181.973508 
L 657.148886 182.161221 
L 658.990464 183.135075 
L 659.604323 183.623899 
L 660.218182 183.748399 
L 660.832041 183.674278 
L 661.241281 183.601958 
L 661.65052 183.629952 
L 662.05976 183.419568 
L 663.082858 182.634921 
L 663.696717 182.430327 
L 664.719816 182.470015 
L 665.333675 181.854342 
L 665.538295 181.893209 
L 665.947534 182.467245 
L 666.766013 183.822794 
L 667.175253 184.178331 
L 667.379872 184.106353 
L 669.22145 182.349504 
L 669.630689 182.306089 
L 670.039929 182.417094 
L 671.063028 182.981407 
L 671.472267 182.500812 
L 671.881506 181.955978 
L 672.290746 181.725032 
L 672.699985 181.703137 
L 673.109225 181.756844 
L 673.518464 181.505428 
L 674.336943 180.621287 
L 674.746183 180.699295 
L 675.360042 181.003746 
L 676.79238 181.040892 
L 677.201619 180.674311 
L 678.020098 179.496069 
L 678.633957 177.736861 
L 679.247817 176.197554 
L 680.884774 173.131558 
L 681.089394 173.084838 
L 681.294014 173.205371 
L 681.703253 173.894105 
L 682.521732 176.173447 
L 682.930972 177.151929 
L 683.340211 177.578794 
L 683.749451 177.662136 
L 684.15869 177.423029 
L 684.977169 176.714657 
L 685.591028 176.457941 
L 686.614127 176.32797 
L 687.023366 175.991764 
L 687.432606 175.374199 
L 688.046465 173.880484 
L 688.864944 170.845605 
L 689.478803 167.541448 
L 690.297282 162.648244 
L 690.501902 162.014414 
L 690.706521 161.768264 
L 690.911141 161.891134 
L 691.115761 162.334834 
L 691.525 164.010141 
L 692.752719 170.571449 
L 693.161958 171.769581 
L 694.389676 174.244592 
L 694.798916 174.553466 
L 695.208155 174.537509 
L 695.617395 174.103839 
L 696.640493 172.391682 
L 698.072832 170.497089 
L 698.686691 168.582618 
L 699.50517 165.29761 
L 700.119029 162.957528 
L 700.323649 162.713258 
L 700.528268 162.84438 
L 700.732888 163.345161 
L 701.142127 165.222817 
L 701.755987 168.376657 
L 702.369846 170.173056 
L 703.392944 172.729312 
L 704.006804 173.601679 
L 704.620663 174.189859 
L 705.439142 174.46528 
L 706.257621 175.303304 
L 706.66686 175.349192 
L 707.485339 175.113049 
L 707.894578 174.542034 
L 708.508438 172.737633 
L 709.326916 170.311963 
L 709.531536 169.997744 
L 709.736156 169.919474 
L 709.940776 170.058837 
L 710.554635 171.047611 
L 711.168494 172.049902 
L 712.191593 173.056218 
L 712.805452 174.181185 
L 713.010072 174.35073 
L 713.214691 174.370916 
L 713.623931 174.064447 
L 715.056269 172.214295 
L 715.465508 172.201963 
L 716.693227 172.574699 
L 717.307086 173.163541 
L 717.920945 173.818958 
L 718.330184 173.827336 
L 718.944044 173.524275 
L 719.762523 173.409338 
L 721.194861 171.782973 
L 721.80872 170.658256 
L 722.01334 170.486466 
L 722.217959 170.504258 
L 722.627199 170.952369 
L 723.036438 171.420541 
L 723.445678 171.637786 
L 724.878016 171.875582 
L 725.696495 171.705217 
L 726.105734 172.000002 
L 726.514974 172.308488 
L 726.719593 172.277554 
L 727.333452 171.884142 
L 727.742692 172.015127 
L 728.151931 172.146135 
L 728.561171 171.999455 
L 729.788889 171.426069 
L 731.425847 170.642972 
L 732.039706 170.525687 
L 732.653565 169.922005 
L 733.062805 169.69384 
L 733.472044 169.800058 
L 734.495143 170.498206 
L 734.904382 170.104885 
L 735.313622 169.631676 
L 735.722861 169.295846 
L 737.155199 167.450606 
L 737.973678 166.880389 
L 738.382918 167.100654 
L 738.792157 167.472684 
L 739.201397 167.532968 
L 740.224495 167.220686 
L 741.042974 167.172484 
L 741.861453 166.442992 
L 742.270692 166.344662 
L 742.679932 165.924772 
L 743.089171 165.441088 
L 743.498411 165.282679 
L 744.11227 165.127723 
L 745.339988 164.27886 
L 746.158467 162.595015 
L 746.567707 162.159431 
L 746.772326 162.085481 
L 746.976946 162.182386 
L 747.795425 163.005935 
L 749.432383 164.214986 
L 749.841622 164.217505 
L 750.250862 163.967274 
L 750.660101 163.448415 
L 751.47858 162.243741 
L 751.88782 162.024581 
L 752.706299 161.729032 
L 753.729397 161.258137 
L 754.138637 160.743883 
L 754.547876 159.904126 
L 755.980214 156.414468 
L 756.389454 155.886047 
L 756.594073 155.860379 
L 757.003313 156.312866 
L 759.04951 159.543803 
L 759.45875 159.649268 
L 760.072609 159.776047 
L 760.481848 159.841517 
L 761.300327 159.644959 
L 761.504947 159.768399 
L 761.914186 160.452688 
L 762.323426 161.039877 
L 762.528045 160.944339 
L 762.937285 160.020158 
L 763.551144 158.420738 
L 763.960384 157.958767 
L 764.574243 157.845574 
L 765.597341 156.98301 
L 766.41582 157.183147 
L 766.82506 157.610149 
L 767.643539 158.841369 
L 768.666637 159.922717 
L 769.280496 160.043683 
L 769.689736 159.987936 
L 770.098975 159.630552 
L 771.326694 158.203983 
L 771.531313 158.121963 
L 771.735933 158.201054 
L 772.554412 159.215735 
L 772.963652 159.059822 
L 773.372891 158.965116 
L 773.98675 159.182122 
L 774.39599 158.891816 
L 774.805229 158.531971 
L 775.214469 158.470103 
L 775.828328 158.733966 
L 776.646807 159.309643 
L 777.056046 159.190876 
L 777.465286 158.988003 
L 777.874525 159.100228 
L 778.897624 159.862786 
L 779.306863 159.760626 
L 779.920722 159.225036 
L 780.739201 158.283153 
L 780.943821 158.265076 
L 781.7623 158.759463 
L 782.171539 159.144224 
L 782.990018 160.137329 
L 783.194638 160.231077 
L 783.603877 160.087964 
L 784.013117 159.878755 
L 785.036215 159.857064 
L 785.650075 159.434587 
L 787.287032 159.127537 
L 787.696272 159.365322 
L 788.71937 160.232627 
L 789.33323 160.863904 
L 790.151709 162.092297 
L 790.356328 162.180483 
L 790.765568 161.94752 
L 791.174807 161.745251 
L 791.788666 161.646192 
L 792.607145 161.899432 
L 794.448723 162.801809 
L 795.062582 162.559693 
L 795.471821 162.693209 
L 795.881061 162.879247 
L 796.69954 163.016421 
L 798.745737 164.483328 
L 799.154977 164.364755 
L 799.768836 164.088765 
L 800.178075 164.230863 
L 800.791934 164.869867 
L 801.201174 165.313009 
L 801.405794 165.378433 
L 802.428892 164.992658 
L 802.838132 164.887135 
L 803.451991 165.04657 
L 804.06585 165.302728 
L 805.088949 165.19814 
L 805.702808 165.730824 
L 806.930526 167.043847 
L 807.339766 167.379392 
L 808.362864 168.597185 
L 809.181343 169.094877 
L 810.204442 169.431163 
L 811.22754 168.991338 
L 812.046019 169.014043 
L 812.864498 168.642412 
L 813.273738 168.733938 
L 813.682977 168.988796 
L 814.092217 169.480299 
L 814.706076 170.30957 
L 816.547653 171.915019 
L 818.184611 173.565308 
L 819.00309 173.652012 
L 819.412329 174.135776 
L 820.230808 175.233389 
L 821.458527 176.532073 
L 822.481625 177.013683 
L 823.300104 177.905676 
L 823.913963 178.200371 
L 824.527823 179.021948 
L 825.346302 180.255322 
L 826.16478 181.968185 
L 826.57402 182.297028 
L 827.597119 182.739998 
L 828.620217 182.768562 
L 829.029457 183.342905 
L 829.643316 184.280331 
L 830.052555 184.359194 
L 830.461795 183.983881 
L 831.484893 182.268601 
L 832.712612 181.763899 
L 833.121851 181.951122 
L 833.73571 182.516279 
L 834.758809 184.080217 
L 835.168048 184.06157 
L 835.986527 183.651551 
L 836.600387 183.248416 
L 837.009626 182.95958 
L 838.441964 181.126354 
L 838.851204 180.949036 
L 839.260443 180.812181 
L 840.488161 179.660541 
L 841.30664 178.295259 
L 841.71588 178.324871 
L 842.125119 178.372879 
L 842.534359 178.293344 
L 843.148218 178.334399 
L 843.557457 177.855491 
L 844.580556 175.93213 
L 846.626753 173.092167 
L 848.059091 171.41181 
L 848.87757 169.921024 
L 849.900669 168.946806 
L 850.719148 168.505135 
L 851.128387 168.347695 
L 851.537627 168.412731 
L 852.151486 168.65544 
L 852.356106 168.572292 
L 852.765345 168.006667 
L 853.174584 167.371926 
L 853.583824 167.052373 
L 854.197683 166.864728 
L 854.606923 166.727952 
L 855.016162 166.292573 
L 855.630021 165.610268 
L 856.039261 165.411761 
L 857.062359 165.163399 
L 857.471599 165.053716 
L 857.880838 165.217551 
L 859.108556 165.955045 
L 859.517796 166.090954 
L 859.927035 166.021723 
L 861.154754 165.384565 
L 862.177852 165.41453 
L 862.587092 165.674985 
L 863.61019 166.928488 
L 863.81481 166.866825 
L 865.247148 165.734494 
L 865.656388 166.066688 
L 866.474867 167.32793 
L 867.293346 168.82568 
L 868.521064 171.390598 
L 868.930303 171.550444 
L 870.158022 171.820199 
L 870.567261 172.271285 
L 871.18112 173.385721 
L 871.79498 174.999867 
L 872.613458 177.559896 
L 873.841177 181.866481 
L 874.455036 183.20336 
L 875.273515 184.631616 
L 875.887374 185.252156 
L 876.501233 185.832244 
L 878.95667 189.563482 
L 879.365909 190.272276 
L 879.979769 190.805428 
L 880.389008 191.005075 
L 880.798248 190.723009 
L 881.412107 190.152108 
L 881.821346 189.76803 
L 882.639825 188.425612 
L 883.662924 186.590482 
L 884.276783 186.226181 
L 884.686022 185.940867 
L 885.095262 185.229485 
L 885.709121 184.126162 
L 886.32298 183.506386 
L 886.73222 182.582946 
L 888.164558 177.831156 
L 888.778417 176.417375 
L 890.006135 174.239725 
L 890.210755 174.176467 
L 890.619994 174.37527 
L 891.029234 174.912114 
L 891.643093 176.210479 
L 892.256952 178.133442 
L 892.870811 181.143462 
L 893.484671 185.511904 
L 894.09853 191.230127 
L 894.712389 199.459197 
L 895.326248 212.436637 
L 895.940107 231.700307 
L 896.434177 253 
M 916.830612 253 
L 917.234049 -1 
M 936.218535 -1 
L 937.477912 47.986864 
L 938.50101 79.499142 
L 939.524109 104.649188 
L 940.342588 119.460858 
L 941.365687 132.92833 
L 942.798025 147.54685 
L 943.411884 152.372965 
L 944.434983 158.282731 
L 945.048842 160.592039 
L 945.867321 162.987322 
L 947.708898 167.650549 
L 948.322757 169.330484 
L 949.345856 171.557271 
L 951.187434 175.999594 
L 952.415152 178.043626 
L 953.233631 178.873945 
L 953.84749 179.417639 
L 954.05211 179.397032 
L 954.665969 178.979501 
L 955.075208 179.106908 
L 955.689068 179.715274 
L 956.507546 180.611679 
L 957.121406 180.932817 
L 958.758363 181.134515 
L 959.167603 181.884456 
L 959.986082 183.755284 
L 960.599941 184.672558 
L 961.2138 185.199155 
L 961.62304 185.363639 
L 962.032279 185.156778 
L 962.441519 184.863303 
L 963.259997 184.618315 
L 964.078476 184.053512 
L 964.487716 184.006552 
L 964.692336 184.221426 
L 965.306195 185.634045 
L 965.715434 186.497315 
L 966.124674 186.834501 
L 966.533913 186.781774 
L 967.557012 186.428802 
L 967.966251 186.597971 
L 968.58011 187.242754 
L 968.98935 187.355024 
L 970.421688 187.103721 
L 971.035547 186.745495 
L 971.854026 186.621417 
L 972.263265 186.884105 
L 972.672505 187.185798 
L 972.877125 187.229145 
L 973.286364 187.013792 
L 973.900223 186.674941 
L 974.923322 186.528888 
L 975.94642 186.905465 
L 977.174139 187.890831 
L 977.583378 188.024939 
L 978.197237 187.655691 
L 978.606477 187.416174 
L 979.220336 187.372166 
L 979.629576 187.608025 
L 980.243435 188.067727 
L 980.652674 188.124649 
L 981.471153 188.046687 
L 982.494252 188.479296 
L 982.903491 188.30256 
L 983.51735 187.676093 
L 983.92659 187.672275 
L 984.540449 187.776407 
L 984.949688 187.548162 
L 985.768167 186.746885 
L 985.972787 186.773294 
L 986.382027 187.136969 
L 986.995886 187.712361 
L 987.405125 187.834924 
L 987.814365 187.601961 
L 988.428224 186.926107 
L 988.837463 186.056112 
L 989.246703 185.137276 
L 989.451322 184.907105 
L 989.860562 184.906399 
L 990.883661 185.283421 
L 991.2929 185.018281 
L 991.702139 184.512667 
L 992.111379 183.635674 
L 992.725238 182.195449 
L 992.929858 182.067758 
L 993.339097 182.229803 
L 994.362196 182.917944 
L 995.794534 184.827832 
L 997.022252 187.159412 
L 997.226872 187.203727 
L 997.636112 186.957896 
L 998.249971 186.520704 
L 998.86383 186.466142 
L 999.477689 186.471499 
L 999.886929 186.090716 
L 1000.296168 185.71896 
L 1001.114647 185.564004 
L 1001.319267 185.238649 
L 1001.728506 183.842467 
L 1002.342365 181.444357 
L 1002.546985 181.123619 
L 1002.751605 181.187413 
L 1003.160844 182.225859 
L 1003.979323 184.708211 
L 1004.388563 185.454709 
L 1005.820901 187.056443 
L 1006.43476 187.057058 
L 1006.843999 187.034547 
L 1007.253239 187.259475 
L 1007.867098 187.800844 
L 1008.480957 188.397037 
L 1008.890197 188.360723 
L 1009.299436 188.082442 
L 1009.913295 187.427424 
L 1010.322535 187.396615 
L 1010.731774 187.434468 
L 1010.936394 187.324842 
L 1011.345633 186.706058 
L 1012.164112 185.226681 
L 1012.368732 185.069002 
L 1012.573352 185.100631 
L 1012.982591 185.656841 
L 1013.59645 186.707414 
L 1014.00569 186.892289 
L 1015.233408 187.009084 
L 1016.461126 186.871408 
L 1017.688845 187.620277 
L 1018.711943 188.657549 
L 1019.121183 188.612311 
L 1019.530422 188.520249 
L 1020.144281 188.55564 
L 1022.395098 186.879672 
L 1022.804338 186.87232 
L 1023.827437 187.35948 
L 1024.645915 187.206041 
L 1025.055155 187.645968 
L 1025.464394 188.151297 
L 1025.873634 188.236805 
L 1026.282873 188.17431 
L 1027.715211 188.413713 
L 1028.73831 189.457584 
L 1029.761409 189.664423 
L 1030.375268 190.072846 
L 1030.989127 190.410614 
L 1031.398366 190.299141 
L 1032.421465 189.41132 
L 1033.444564 188.74716 
L 1034.263043 188.943946 
L 1034.876902 188.798713 
L 1035.286141 188.418477 
L 1036.10462 187.322528 
L 1036.51386 187.151935 
L 1036.923099 187.216276 
L 1037.127719 187.400274 
L 1037.536958 188.22723 
L 1037.946198 189.097556 
L 1038.355437 189.414181 
L 1038.969296 189.292313 
L 1039.992395 188.808059 
L 1040.401634 188.735694 
L 1041.015494 188.97749 
L 1041.424733 188.781525 
L 1041.833973 188.567893 
L 1042.243212 188.828074 
L 1042.857071 189.16077 
L 1043.47093 189.348836 
L 1044.494029 189.13183 
L 1045.926367 188.03644 
L 1046.744846 187.977307 
L 1047.154085 188.030661 
L 1047.767945 187.744264 
L 1048.177184 188.092347 
L 1049.200283 189.39477 
L 1049.814142 189.725881 
L 1050.223381 189.685646 
L 1050.632621 189.310516 
L 1051.4511 188.286762 
L 1051.860339 188.032793 
L 1052.269579 188.082624 
L 1052.883438 188.688198 
L 1054.111156 190.072447 
L 1054.520396 190.097922 
L 1054.929635 189.906481 
L 1056.566593 188.735796 
L 1057.589691 188.393344 
L 1058.81741 188.600787 
L 1059.226649 188.446846 
L 1059.635889 188.617531 
L 1060.045128 188.831311 
L 1060.658987 188.910447 
L 1061.477466 189.212015 
L 1061.886706 189.227847 
L 1062.091325 189.351811 
L 1062.705185 190.323328 
L 1063.114424 190.810944 
L 1063.523664 190.927523 
L 1063.932903 190.56688 
L 1064.342142 190.040852 
L 1064.546762 189.941325 
L 1064.956002 190.145303 
L 1065.365241 190.430868 
L 1065.9791 190.513093 
L 1066.38834 190.364121 
L 1067.616058 189.325823 
L 1068.025298 189.301284 
L 1068.434537 188.925835 
L 1068.843776 188.484414 
L 1069.048396 188.533163 
L 1069.866875 189.57724 
L 1070.276115 189.47484 
L 1070.685354 189.054415 
L 1071.299213 188.383907 
L 1071.708453 188.428701 
L 1072.936171 189.074213 
L 1074.163889 188.984967 
L 1075.800847 189.026239 
L 1076.414706 188.723145 
L 1077.233185 188.671101 
L 1077.642425 188.979075 
L 1078.460904 189.945041 
L 1079.074763 190.160405 
L 1080.507101 189.963733 
L 1081.32558 189.076561 
L 1081.734819 189.106242 
L 1082.553298 189.284118 
L 1083.371777 189.398862 
L 1084.190256 189.813292 
L 1084.599495 189.557065 
L 1085.213355 189.074225 
L 1085.827214 188.851565 
L 1086.236453 188.874156 
L 1086.645693 188.922643 
L 1087.668791 188.77113 
L 1088.28265 189.076254 
L 1089.919608 188.772167 
L 1090.533467 187.920511 
L 1090.942707 187.409176 
L 1091.351946 187.286545 
L 1091.965806 187.257503 
L 1092.375045 187.369066 
L 1093.398144 188.493487 
L 1094.012003 189.19893 
L 1094.421242 189.307404 
L 1095.035101 188.983714 
L 1095.648961 188.658131 
L 1096.0582 188.744937 
L 1096.672059 189.112568 
L 1097.490538 189.697295 
L 1097.899778 189.81238 
L 1098.309017 190.013075 
L 1098.718257 189.86163 
L 1099.332116 189.350306 
L 1100.355214 189.048853 
L 1100.764454 188.791886 
L 1101.582933 188.479798 
L 1102.196792 188.09653 
L 1102.606031 188.128912 
L 1103.42451 188.722518 
L 1103.83375 188.685714 
L 1104.242989 188.44304 
L 1106.493806 185.243345 
L 1106.903046 185.248839 
L 1107.312285 185.590744 
L 1108.540003 186.867955 
L 1108.949243 186.992979 
L 1109.358482 186.854915 
L 1109.972342 186.294682 
L 1110.586201 185.311745 
L 1112.018539 182.705793 
L 1112.632398 181.897677 
L 1113.041637 180.936635 
L 1113.450877 179.470047 
L 1114.473976 174.167029 
L 1116.929412 161.254341 
L 1118.77099 153.036863 
L 1119.180229 150.401801 
L 1119.589469 145.831467 
L 1119.998708 138.586019 
L 1120.612567 121.875893 
L 1121.226427 96.65649 
L 1121.840286 60.981241 
L 1122.454145 23.440977 
L 1122.863384 10.715729 
L 1123.068004 10.950573 
L 1123.272624 15.785351 
L 1123.681863 36.127564 
L 1124.704962 97.857585 
L 1125.318821 121.476201 
L 1125.93268 136.052981 
L 1126.546539 145.900379 
L 1127.365018 155.588184 
L 1128.183497 163.136955 
L 1129.206596 169.990757 
L 1129.820455 173.384946 
L 1130.434314 175.508775 
L 1132.071272 180.064314 
L 1132.685131 181.888297 
L 1133.29899 183.006973 
L 1133.91285 183.720224 
L 1134.322089 183.859701 
L 1134.731328 183.921671 
L 1135.140568 184.172757 
L 1135.549807 184.491091 
L 1135.959047 184.494829 
L 1136.368286 184.432859 
L 1137.186765 184.574444 
L 1137.596005 184.358761 
L 1138.005244 184.502352 
L 1138.823723 185.206028 
L 1139.437582 185.797355 
L 1140.665301 186.337789 
L 1141.483779 186.313706 
L 1142.302258 186.577945 
L 1143.529977 186.434182 
L 1143.939216 185.970672 
L 1144.348456 185.437726 
L 1144.553075 185.451267 
L 1145.371554 186.104861 
L 1145.780794 186.078805 
L 1146.599273 185.634592 
L 1147.826991 185.122231 
L 1148.23623 185.157336 
L 1148.64547 185.690556 
L 1149.259329 186.700541 
L 1149.873188 187.164199 
L 1150.077808 187.151365 
L 1150.487047 186.744697 
L 1151.100907 185.954248 
L 1151.305526 185.958214 
L 1151.510146 186.164757 
L 1151.919386 187.000171 
L 1152.533245 188.228769 
L 1152.737864 188.293555 
L 1153.147104 187.928136 
L 1153.556343 187.65528 
L 1154.170203 187.758033 
L 1154.579442 187.497647 
L 1155.193301 186.846606 
L 1155.602541 186.825862 
L 1157.034879 187.138485 
L 1157.444118 187.155331 
L 1158.057977 187.606281 
L 1158.467217 188.066086 
L 1159.081076 188.862074 
L 1159.899555 189.174698 
L 1160.308794 189.469176 
L 1160.718034 189.456991 
L 1161.127273 189.121994 
L 1162.150372 187.988249 
L 1162.559611 187.891868 
L 1163.173471 187.97097 
L 1163.78733 187.600764 
L 1165.015048 186.628517 
L 1165.424287 186.613939 
L 1165.833527 186.88602 
L 1166.447386 187.567505 
L 1167.061245 188.399066 
L 1167.675104 188.775108 
L 1168.084344 188.779257 
L 1168.902823 188.28585 
L 1169.516682 187.368964 
L 1170.130541 186.679922 
L 1170.7444 186.389115 
L 1171.15364 186.580623 
L 1171.767499 187.403351 
L 1172.381358 188.138133 
L 1172.995217 188.45299 
L 1173.609077 189.118563 
L 1173.813696 189.120079 
L 1174.222936 188.718243 
L 1174.836795 187.931385 
L 1175.246034 187.670326 
L 1176.064513 187.381011 
L 1176.473753 187.264022 
L 1176.882992 187.594814 
L 1177.292232 187.974082 
L 1178.110711 188.227253 
L 1178.72457 188.771677 
L 1179.133809 188.75735 
L 1179.543049 188.395909 
L 1180.156908 187.674668 
L 1180.566147 187.476378 
L 1180.975387 187.545153 
L 1181.589246 187.790928 
L 1182.203105 187.878248 
L 1182.816964 188.049491 
L 1184.863162 187.793321 
L 1184.863162 187.793321 
" clip-path="url(#pb9a37de760)" style="fill: none; stroke: #000000; stroke-width: 2; stroke-linecap: square"/>
   </g>
   <g id="patch_3">
    <path d="M 3.00024 198.907885 
L 1184.99976 198.907885 
" style="fill: none; stroke: #000000; stroke-width: 2; stroke-linejoin: miter; stroke-linecap: square"/>
   </g>
  </g>
 </g>
 <defs>
  <clipPath id="pb9a37de760">
   <rect x="3.00024" y="3.00024" width="1181.99952" height="195.907645"/>
  </clipPath>
 </defs>
</svg>
