<?xml version="1.0" encoding="utf-8" standalone="no"?>
<!DOCTYPE svg PUBLIC "-//W3C//DTD SVG 1.1//EN"
  "http://www.w3.org/Graphics/SVG/1.1/DTD/svg11.dtd">
<svg xmlns:xlink="http://www.w3.org/1999/xlink" width="1188pt" height="252pt" viewBox="0 0 1188 252" xmlns="http://www.w3.org/2000/svg" version="1.1">
 <metadata>
  <rdf:RDF xmlns:dc="http://purl.org/dc/elements/1.1/" xmlns:cc="http://creativecommons.org/ns#" xmlns:rdf="http://www.w3.org/1999/02/22-rdf-syntax-ns#">
   <cc:Work>
    <dc:type rdf:resource="http://purl.org/dc/dcmitype/StillImage"/>
    <dc:date>2024-07-23T21:44:41.190245</dc:date>
    <dc:format>image/svg+xml</dc:format>
    <dc:creator>
     <cc:Agent>
      <dc:title>Matplotlib v3.8.4, https://matplotlib.org/</dc:title>
     </cc:Agent>
    </dc:creator>
   </cc:Work>
  </rdf:RDF>
 </metadata>
 <defs>
  <style type="text/css">*{stroke-linejoin: round; stroke-linecap: butt}</style>
 </defs>
 <g id="figure_1">
  <g id="patch_1">
   <path d="M 0 252 
L 1188 252 
L 1188 0 
L 0 0 
z
" style="fill: #ffffff"/>
  </g>
  <g id="axes_1">
   <g id="patch_2">
    <path d="M 3.00024 198.907885 
L 1184.99976 198.907885 
L 1184.99976 3.00024 
L 3.00024 3.00024 
z
" style="fill: #ffffff"/>
   </g>
   <g id="matplotlib.axis_1">
    <g id="xtick_1">
     <g id="line2d_1">
      <defs>
       <path id="m786e82264a" d="M 0 0 
L 0 8 
" style="stroke: #000000; stroke-width: 2"/>
      </defs>
      <g>
       <use xlink:href="#m786e82264a" x="1131.272509" y="198.907885" style="stroke: #000000; stroke-width: 2"/>
      </g>
     </g>
     <g id="text_1">
      <!-- 0 -->
      <g transform="translate(1126.267665 224.791947) scale(0.18 -0.18)">
       <defs>
        <path id="Arial-BoldMT-30" d="M 1756 4600 
Q 2422 4600 2797 4125 
Q 3244 3563 3244 2259 
Q 3244 959 2794 391 
Q 2422 -78 1756 -78 
Q 1088 -78 678 436 
Q 269 950 269 2269 
Q 269 3563 719 4131 
Q 1091 4600 1756 4600 
z
M 1756 3872 
Q 1597 3872 1472 3770 
Q 1347 3669 1278 3406 
Q 1188 3066 1188 2259 
Q 1188 1453 1269 1151 
Q 1350 850 1473 750 
Q 1597 650 1756 650 
Q 1916 650 2041 751 
Q 2166 853 2234 1116 
Q 2325 1453 2325 2259 
Q 2325 3066 2244 3367 
Q 2163 3669 2039 3770 
Q 1916 3872 1756 3872 
z
" transform="scale(0.015625)"/>
       </defs>
       <use xlink:href="#Arial-BoldMT-30"/>
      </g>
     </g>
    </g>
    <g id="xtick_2">
     <g id="line2d_2">
      <g>
       <use xlink:href="#m786e82264a" x="1023.818007" y="198.907885" style="stroke: #000000; stroke-width: 2"/>
      </g>
     </g>
     <g id="text_2">
      <!-- 1 -->
      <g transform="translate(1018.813164 224.791947) scale(0.18 -0.18)">
       <defs>
        <path id="Arial-BoldMT-31" d="M 2519 0 
L 1641 0 
L 1641 3309 
Q 1159 2859 506 2644 
L 506 3441 
Q 850 3553 1253 3867 
Q 1656 4181 1806 4600 
L 2519 4600 
L 2519 0 
z
" transform="scale(0.015625)"/>
       </defs>
       <use xlink:href="#Arial-BoldMT-31"/>
      </g>
     </g>
    </g>
    <g id="xtick_3">
     <g id="line2d_3">
      <g>
       <use xlink:href="#m786e82264a" x="916.363505" y="198.907885" style="stroke: #000000; stroke-width: 2"/>
      </g>
     </g>
     <g id="text_3">
      <!-- 2 -->
      <g transform="translate(911.358662 224.791947) scale(0.18 -0.18)">
       <defs>
        <path id="Arial-BoldMT-32" d="M 3238 816 
L 3238 0 
L 159 0 
Q 209 463 459 877 
Q 709 1291 1447 1975 
Q 2041 2528 2175 2725 
Q 2356 2997 2356 3263 
Q 2356 3556 2198 3714 
Q 2041 3872 1763 3872 
Q 1488 3872 1325 3706 
Q 1163 3541 1138 3156 
L 263 3244 
Q 341 3969 753 4284 
Q 1166 4600 1784 4600 
Q 2463 4600 2850 4234 
Q 3238 3869 3238 3325 
Q 3238 3016 3127 2736 
Q 3016 2456 2775 2150 
Q 2616 1947 2200 1565 
Q 1784 1184 1673 1059 
Q 1563 934 1494 816 
L 3238 816 
z
" transform="scale(0.015625)"/>
       </defs>
       <use xlink:href="#Arial-BoldMT-32"/>
      </g>
     </g>
    </g>
    <g id="xtick_4">
     <g id="line2d_4">
      <g>
       <use xlink:href="#m786e82264a" x="808.909004" y="198.907885" style="stroke: #000000; stroke-width: 2"/>
      </g>
     </g>
     <g id="text_4">
      <!-- 3 -->
      <g transform="translate(803.90416 224.791947) scale(0.18 -0.18)">
       <defs>
        <path id="Arial-BoldMT-33" d="M 241 1216 
L 1091 1319 
Q 1131 994 1309 822 
Q 1488 650 1741 650 
Q 2013 650 2198 856 
Q 2384 1063 2384 1413 
Q 2384 1744 2206 1937 
Q 2028 2131 1772 2131 
Q 1603 2131 1369 2066 
L 1466 2781 
Q 1822 2772 2009 2936 
Q 2197 3100 2197 3372 
Q 2197 3603 2059 3740 
Q 1922 3878 1694 3878 
Q 1469 3878 1309 3722 
Q 1150 3566 1116 3266 
L 306 3403 
Q 391 3819 561 4067 
Q 731 4316 1036 4458 
Q 1341 4600 1719 4600 
Q 2366 4600 2756 4188 
Q 3078 3850 3078 3425 
Q 3078 2822 2419 2463 
Q 2813 2378 3048 2084 
Q 3284 1791 3284 1375 
Q 3284 772 2843 347 
Q 2403 -78 1747 -78 
Q 1125 -78 715 280 
Q 306 638 241 1216 
z
" transform="scale(0.015625)"/>
       </defs>
       <use xlink:href="#Arial-BoldMT-33"/>
      </g>
     </g>
    </g>
    <g id="xtick_5">
     <g id="line2d_5">
      <g>
       <use xlink:href="#m786e82264a" x="701.454502" y="198.907885" style="stroke: #000000; stroke-width: 2"/>
      </g>
     </g>
     <g id="text_5">
      <!-- 4 -->
      <g transform="translate(696.449658 224.791947) scale(0.18 -0.18)">
       <defs>
        <path id="Arial-BoldMT-34" d="M 1994 0 
L 1994 922 
L 119 922 
L 119 1691 
L 2106 4600 
L 2844 4600 
L 2844 1694 
L 3413 1694 
L 3413 922 
L 2844 922 
L 2844 0 
L 1994 0 
z
M 1994 1694 
L 1994 3259 
L 941 1694 
L 1994 1694 
z
" transform="scale(0.015625)"/>
       </defs>
       <use xlink:href="#Arial-BoldMT-34"/>
      </g>
     </g>
    </g>
    <g id="xtick_6">
     <g id="line2d_6">
      <g>
       <use xlink:href="#m786e82264a" x="594" y="198.907885" style="stroke: #000000; stroke-width: 2"/>
      </g>
     </g>
     <g id="text_6">
      <!-- 5 -->
      <g transform="translate(588.995156 224.791947) scale(0.18 -0.18)">
       <defs>
        <path id="Arial-BoldMT-35" d="M 284 1178 
L 1159 1269 
Q 1197 972 1381 798 
Q 1566 625 1806 625 
Q 2081 625 2272 848 
Q 2463 1072 2463 1522 
Q 2463 1944 2273 2155 
Q 2084 2366 1781 2366 
Q 1403 2366 1103 2031 
L 391 2134 
L 841 4519 
L 3163 4519 
L 3163 3697 
L 1506 3697 
L 1369 2919 
Q 1663 3066 1969 3066 
Q 2553 3066 2959 2641 
Q 3366 2216 3366 1538 
Q 3366 972 3038 528 
Q 2591 -78 1797 -78 
Q 1163 -78 763 262 
Q 363 603 284 1178 
z
" transform="scale(0.015625)"/>
       </defs>
       <use xlink:href="#Arial-BoldMT-35"/>
      </g>
     </g>
    </g>
    <g id="xtick_7">
     <g id="line2d_7">
      <g>
       <use xlink:href="#m786e82264a" x="486.545498" y="198.907885" style="stroke: #000000; stroke-width: 2"/>
      </g>
     </g>
     <g id="text_7">
      <!-- 6 -->
      <g transform="translate(481.540654 224.791947) scale(0.18 -0.18)">
       <defs>
        <path id="Arial-BoldMT-36" d="M 3247 3459 
L 2397 3366 
Q 2366 3628 2234 3753 
Q 2103 3878 1894 3878 
Q 1616 3878 1423 3628 
Q 1231 3378 1181 2588 
Q 1509 2975 1997 2975 
Q 2547 2975 2939 2556 
Q 3331 2138 3331 1475 
Q 3331 772 2918 347 
Q 2506 -78 1859 -78 
Q 1166 -78 719 461 
Q 272 1000 272 2228 
Q 272 3488 737 4044 
Q 1203 4600 1947 4600 
Q 2469 4600 2811 4308 
Q 3153 4016 3247 3459 
z
M 1256 1544 
Q 1256 1116 1453 883 
Q 1650 650 1903 650 
Q 2147 650 2309 840 
Q 2472 1031 2472 1466 
Q 2472 1913 2297 2120 
Q 2122 2328 1859 2328 
Q 1606 2328 1431 2129 
Q 1256 1931 1256 1544 
z
" transform="scale(0.015625)"/>
       </defs>
       <use xlink:href="#Arial-BoldMT-36"/>
      </g>
     </g>
    </g>
    <g id="xtick_8">
     <g id="line2d_8">
      <g>
       <use xlink:href="#m786e82264a" x="379.090996" y="198.907885" style="stroke: #000000; stroke-width: 2"/>
      </g>
     </g>
     <g id="text_8">
      <!-- 7 -->
      <g transform="translate(374.086153 224.791947) scale(0.18 -0.18)">
       <defs>
        <path id="Arial-BoldMT-37" d="M 272 3703 
L 272 4519 
L 3275 4519 
L 3275 3881 
Q 2903 3516 2518 2831 
Q 2134 2147 1932 1376 
Q 1731 606 1734 0 
L 888 0 
Q 909 950 1279 1937 
Q 1650 2925 2269 3703 
L 272 3703 
z
" transform="scale(0.015625)"/>
       </defs>
       <use xlink:href="#Arial-BoldMT-37"/>
      </g>
     </g>
    </g>
    <g id="xtick_9">
     <g id="line2d_9">
      <g>
       <use xlink:href="#m786e82264a" x="271.636495" y="198.907885" style="stroke: #000000; stroke-width: 2"/>
      </g>
     </g>
     <g id="text_9">
      <!-- 8 -->
      <g transform="translate(266.631651 224.791947) scale(0.18 -0.18)">
       <defs>
        <path id="Arial-BoldMT-38" d="M 1025 2472 
Q 684 2616 529 2867 
Q 375 3119 375 3419 
Q 375 3931 733 4265 
Q 1091 4600 1750 4600 
Q 2403 4600 2764 4265 
Q 3125 3931 3125 3419 
Q 3125 3100 2959 2851 
Q 2794 2603 2494 2472 
Q 2875 2319 3073 2025 
Q 3272 1731 3272 1347 
Q 3272 713 2867 316 
Q 2463 -81 1791 -81 
Q 1166 -81 750 247 
Q 259 634 259 1309 
Q 259 1681 443 1992 
Q 628 2303 1025 2472 
z
M 1206 3356 
Q 1206 3094 1354 2947 
Q 1503 2800 1750 2800 
Q 2000 2800 2150 2948 
Q 2300 3097 2300 3359 
Q 2300 3606 2151 3754 
Q 2003 3903 1759 3903 
Q 1506 3903 1356 3753 
Q 1206 3603 1206 3356 
z
M 1125 1394 
Q 1125 1031 1311 828 
Q 1497 625 1775 625 
Q 2047 625 2225 820 
Q 2403 1016 2403 1384 
Q 2403 1706 2222 1901 
Q 2041 2097 1763 2097 
Q 1441 2097 1283 1875 
Q 1125 1653 1125 1394 
z
" transform="scale(0.015625)"/>
       </defs>
       <use xlink:href="#Arial-BoldMT-38"/>
      </g>
     </g>
    </g>
    <g id="xtick_10">
     <g id="line2d_10">
      <g>
       <use xlink:href="#m786e82264a" x="164.181993" y="198.907885" style="stroke: #000000; stroke-width: 2"/>
      </g>
     </g>
     <g id="text_10">
      <!-- 9 -->
      <g transform="translate(159.177149 224.791947) scale(0.18 -0.18)">
       <defs>
        <path id="Arial-BoldMT-39" d="M 291 1059 
L 1141 1153 
Q 1172 894 1303 769 
Q 1434 644 1650 644 
Q 1922 644 2112 894 
Q 2303 1144 2356 1931 
Q 2025 1547 1528 1547 
Q 988 1547 595 1964 
Q 203 2381 203 3050 
Q 203 3747 617 4173 
Q 1031 4600 1672 4600 
Q 2369 4600 2816 4061 
Q 3263 3522 3263 2288 
Q 3263 1031 2797 475 
Q 2331 -81 1584 -81 
Q 1047 -81 715 205 
Q 384 491 291 1059 
z
M 2278 2978 
Q 2278 3403 2083 3637 
Q 1888 3872 1631 3872 
Q 1388 3872 1227 3680 
Q 1066 3488 1066 3050 
Q 1066 2606 1241 2398 
Q 1416 2191 1678 2191 
Q 1931 2191 2104 2391 
Q 2278 2591 2278 2978 
z
" transform="scale(0.015625)"/>
       </defs>
       <use xlink:href="#Arial-BoldMT-39"/>
      </g>
     </g>
    </g>
    <g id="xtick_11">
     <g id="line2d_11">
      <g>
       <use xlink:href="#m786e82264a" x="56.727491" y="198.907885" style="stroke: #000000; stroke-width: 2"/>
      </g>
     </g>
     <g id="text_11">
      <!-- 10 -->
      <g transform="translate(46.717803 224.791947) scale(0.18 -0.18)">
       <use xlink:href="#Arial-BoldMT-31"/>
       <use xlink:href="#Arial-BoldMT-30" x="55.615234"/>
      </g>
     </g>
    </g>
    <g id="text_12">
     <!-- Chemical Shift / ppm -->
     <g transform="translate(504.992813 245.447573) scale(0.18 -0.18)">
      <defs>
       <path id="Arial-BoldMT-43" d="M 3397 1684 
L 4294 1400 
Q 4088 650 3608 286 
Q 3128 -78 2391 -78 
Q 1478 -78 890 545 
Q 303 1169 303 2250 
Q 303 3394 893 4026 
Q 1484 4659 2447 4659 
Q 3288 4659 3813 4163 
Q 4125 3869 4281 3319 
L 3366 3100 
Q 3284 3456 3026 3662 
Q 2769 3869 2400 3869 
Q 1891 3869 1573 3503 
Q 1256 3138 1256 2319 
Q 1256 1450 1568 1081 
Q 1881 713 2381 713 
Q 2750 713 3015 947 
Q 3281 1181 3397 1684 
z
" transform="scale(0.015625)"/>
       <path id="Arial-BoldMT-68" d="M 1334 4581 
L 1334 2897 
Q 1759 3394 2350 3394 
Q 2653 3394 2897 3281 
Q 3141 3169 3264 2994 
Q 3388 2819 3433 2606 
Q 3478 2394 3478 1947 
L 3478 0 
L 2600 0 
L 2600 1753 
Q 2600 2275 2550 2415 
Q 2500 2556 2373 2639 
Q 2247 2722 2056 2722 
Q 1838 2722 1666 2615 
Q 1494 2509 1414 2295 
Q 1334 2081 1334 1663 
L 1334 0 
L 456 0 
L 456 4581 
L 1334 4581 
z
" transform="scale(0.015625)"/>
       <path id="Arial-BoldMT-65" d="M 2381 1056 
L 3256 909 
Q 3088 428 2723 176 
Q 2359 -75 1813 -75 
Q 947 -75 531 491 
Q 203 944 203 1634 
Q 203 2459 634 2926 
Q 1066 3394 1725 3394 
Q 2466 3394 2894 2905 
Q 3322 2416 3303 1406 
L 1103 1406 
Q 1113 1016 1316 798 
Q 1519 581 1822 581 
Q 2028 581 2168 693 
Q 2309 806 2381 1056 
z
M 2431 1944 
Q 2422 2325 2234 2523 
Q 2047 2722 1778 2722 
Q 1491 2722 1303 2513 
Q 1116 2303 1119 1944 
L 2431 1944 
z
" transform="scale(0.015625)"/>
       <path id="Arial-BoldMT-6d" d="M 394 3319 
L 1203 3319 
L 1203 2866 
Q 1638 3394 2238 3394 
Q 2556 3394 2790 3262 
Q 3025 3131 3175 2866 
Q 3394 3131 3647 3262 
Q 3900 3394 4188 3394 
Q 4553 3394 4806 3245 
Q 5059 3097 5184 2809 
Q 5275 2597 5275 2122 
L 5275 0 
L 4397 0 
L 4397 1897 
Q 4397 2391 4306 2534 
Q 4184 2722 3931 2722 
Q 3747 2722 3584 2609 
Q 3422 2497 3350 2280 
Q 3278 2063 3278 1594 
L 3278 0 
L 2400 0 
L 2400 1819 
Q 2400 2303 2353 2443 
Q 2306 2584 2207 2653 
Q 2109 2722 1941 2722 
Q 1738 2722 1575 2612 
Q 1413 2503 1342 2297 
Q 1272 2091 1272 1613 
L 1272 0 
L 394 0 
L 394 3319 
z
" transform="scale(0.015625)"/>
       <path id="Arial-BoldMT-69" d="M 459 3769 
L 459 4581 
L 1338 4581 
L 1338 3769 
L 459 3769 
z
M 459 0 
L 459 3319 
L 1338 3319 
L 1338 0 
L 459 0 
z
" transform="scale(0.015625)"/>
       <path id="Arial-BoldMT-63" d="M 3353 2338 
L 2488 2181 
Q 2444 2441 2289 2572 
Q 2134 2703 1888 2703 
Q 1559 2703 1364 2476 
Q 1169 2250 1169 1719 
Q 1169 1128 1367 884 
Q 1566 641 1900 641 
Q 2150 641 2309 783 
Q 2469 925 2534 1272 
L 3397 1125 
Q 3263 531 2881 228 
Q 2500 -75 1859 -75 
Q 1131 -75 698 384 
Q 266 844 266 1656 
Q 266 2478 700 2936 
Q 1134 3394 1875 3394 
Q 2481 3394 2839 3133 
Q 3197 2872 3353 2338 
z
" transform="scale(0.015625)"/>
       <path id="Arial-BoldMT-61" d="M 1116 2306 
L 319 2450 
Q 453 2931 781 3162 
Q 1109 3394 1756 3394 
Q 2344 3394 2631 3255 
Q 2919 3116 3036 2902 
Q 3153 2688 3153 2116 
L 3144 1091 
Q 3144 653 3186 445 
Q 3228 238 3344 0 
L 2475 0 
Q 2441 88 2391 259 
Q 2369 338 2359 363 
Q 2134 144 1878 34 
Q 1622 -75 1331 -75 
Q 819 -75 523 203 
Q 228 481 228 906 
Q 228 1188 362 1408 
Q 497 1628 739 1745 
Q 981 1863 1438 1950 
Q 2053 2066 2291 2166 
L 2291 2253 
Q 2291 2506 2166 2614 
Q 2041 2722 1694 2722 
Q 1459 2722 1328 2630 
Q 1197 2538 1116 2306 
z
M 2291 1594 
Q 2122 1538 1756 1459 
Q 1391 1381 1278 1306 
Q 1106 1184 1106 997 
Q 1106 813 1243 678 
Q 1381 544 1594 544 
Q 1831 544 2047 700 
Q 2206 819 2256 991 
Q 2291 1103 2291 1419 
L 2291 1594 
z
" transform="scale(0.015625)"/>
       <path id="Arial-BoldMT-6c" d="M 459 0 
L 459 4581 
L 1338 4581 
L 1338 0 
L 459 0 
z
" transform="scale(0.015625)"/>
       <path id="Arial-BoldMT-20" transform="scale(0.015625)"/>
       <path id="Arial-BoldMT-53" d="M 231 1491 
L 1131 1578 
Q 1213 1125 1461 912 
Q 1709 700 2131 700 
Q 2578 700 2804 889 
Q 3031 1078 3031 1331 
Q 3031 1494 2936 1608 
Q 2841 1722 2603 1806 
Q 2441 1863 1863 2006 
Q 1119 2191 819 2459 
Q 397 2838 397 3381 
Q 397 3731 595 4036 
Q 794 4341 1167 4500 
Q 1541 4659 2069 4659 
Q 2931 4659 3367 4281 
Q 3803 3903 3825 3272 
L 2900 3231 
Q 2841 3584 2645 3739 
Q 2450 3894 2059 3894 
Q 1656 3894 1428 3728 
Q 1281 3622 1281 3444 
Q 1281 3281 1419 3166 
Q 1594 3019 2269 2859 
Q 2944 2700 3267 2529 
Q 3591 2359 3773 2064 
Q 3956 1769 3956 1334 
Q 3956 941 3737 597 
Q 3519 253 3119 86 
Q 2719 -81 2122 -81 
Q 1253 -81 787 320 
Q 322 722 231 1491 
z
" transform="scale(0.015625)"/>
       <path id="Arial-BoldMT-66" d="M 75 3319 
L 563 3319 
L 563 3569 
Q 563 3988 652 4194 
Q 741 4400 980 4529 
Q 1219 4659 1584 4659 
Q 1959 4659 2319 4547 
L 2200 3934 
Q 1991 3984 1797 3984 
Q 1606 3984 1523 3895 
Q 1441 3806 1441 3553 
L 1441 3319 
L 2097 3319 
L 2097 2628 
L 1441 2628 
L 1441 0 
L 563 0 
L 563 2628 
L 75 2628 
L 75 3319 
z
" transform="scale(0.015625)"/>
       <path id="Arial-BoldMT-74" d="M 1981 3319 
L 1981 2619 
L 1381 2619 
L 1381 1281 
Q 1381 875 1398 808 
Q 1416 741 1477 697 
Q 1538 653 1625 653 
Q 1747 653 1978 738 
L 2053 56 
Q 1747 -75 1359 -75 
Q 1122 -75 931 4 
Q 741 84 652 211 
Q 563 338 528 553 
Q 500 706 500 1172 
L 500 2619 
L 97 2619 
L 97 3319 
L 500 3319 
L 500 3978 
L 1381 4491 
L 1381 3319 
L 1981 3319 
z
" transform="scale(0.015625)"/>
       <path id="Arial-BoldMT-2f" d="M -9 -78 
L 1125 4659 
L 1784 4659 
L 638 -78 
L -9 -78 
z
" transform="scale(0.015625)"/>
       <path id="Arial-BoldMT-70" d="M 434 3319 
L 1253 3319 
L 1253 2831 
Q 1413 3081 1684 3237 
Q 1956 3394 2288 3394 
Q 2866 3394 3269 2941 
Q 3672 2488 3672 1678 
Q 3672 847 3265 386 
Q 2859 -75 2281 -75 
Q 2006 -75 1782 34 
Q 1559 144 1313 409 
L 1313 -1263 
L 434 -1263 
L 434 3319 
z
M 1303 1716 
Q 1303 1156 1525 889 
Q 1747 622 2066 622 
Q 2372 622 2575 867 
Q 2778 1113 2778 1672 
Q 2778 2194 2568 2447 
Q 2359 2700 2050 2700 
Q 1728 2700 1515 2451 
Q 1303 2203 1303 1716 
z
" transform="scale(0.015625)"/>
      </defs>
      <use xlink:href="#Arial-BoldMT-43"/>
      <use xlink:href="#Arial-BoldMT-68" x="72.216797"/>
      <use xlink:href="#Arial-BoldMT-65" x="133.300781"/>
      <use xlink:href="#Arial-BoldMT-6d" x="188.916016"/>
      <use xlink:href="#Arial-BoldMT-69" x="277.832031"/>
      <use xlink:href="#Arial-BoldMT-63" x="305.615234"/>
      <use xlink:href="#Arial-BoldMT-61" x="361.230469"/>
      <use xlink:href="#Arial-BoldMT-6c" x="416.845703"/>
      <use xlink:href="#Arial-BoldMT-20" x="444.628906"/>
      <use xlink:href="#Arial-BoldMT-53" x="472.412109"/>
      <use xlink:href="#Arial-BoldMT-68" x="539.111328"/>
      <use xlink:href="#Arial-BoldMT-69" x="600.195312"/>
      <use xlink:href="#Arial-BoldMT-66" x="627.978516"/>
      <use xlink:href="#Arial-BoldMT-74" x="661.279297"/>
      <use xlink:href="#Arial-BoldMT-20" x="694.580078"/>
      <use xlink:href="#Arial-BoldMT-2f" x="722.363281"/>
      <use xlink:href="#Arial-BoldMT-20" x="750.146484"/>
      <use xlink:href="#Arial-BoldMT-70" x="777.929688"/>
      <use xlink:href="#Arial-BoldMT-70" x="839.013672"/>
      <use xlink:href="#Arial-BoldMT-6d" x="900.097656"/>
     </g>
    </g>
   </g>
   <g id="matplotlib.axis_2"/>
   <g id="line2d_12">
    <path d="M 2.948587 188.515805 
L 3.357826 188.778969 
L 3.767065 188.679444 
L 4.585544 188.110182 
L 4.994784 188.111782 
L 5.404023 188.354589 
L 6.222502 189.286994 
L 6.631742 189.235658 
L 7.040981 189.031256 
L 7.245601 189.056764 
L 7.450221 189.277347 
L 8.473319 191.31344 
L 8.677939 191.40436 
L 8.882559 191.301065 
L 9.701038 190.226993 
L 9.905657 190.1685 
L 10.314897 190.380547 
L 10.928756 190.854528 
L 11.133376 190.836125 
L 11.951855 190.337292 
L 12.565714 190.647398 
L 12.974953 190.168804 
L 13.588812 189.124062 
L 13.998052 188.914558 
L 14.407291 188.853591 
L 14.816531 188.272408 
L 15.43039 187.259589 
L 15.839629 187.1619 
L 16.453489 187.389386 
L 17.476587 187.343151 
L 17.885827 187.295654 
L 18.295066 187.174982 
L 18.704306 187.519183 
L 19.113545 188.27101 
L 19.727404 189.654615 
L 19.932024 189.901632 
L 20.136644 189.923521 
L 20.545883 189.455803 
L 20.955123 188.969059 
L 21.364362 188.818839 
L 21.773601 188.79397 
L 22.387461 188.401717 
L 23.20594 187.734075 
L 23.615179 187.834997 
L 24.433658 188.570037 
L 24.842897 188.816195 
L 25.252137 188.67537 
L 25.661376 188.493496 
L 26.070616 188.674191 
L 27.298334 189.657293 
L 27.707573 189.639933 
L 27.912193 189.424419 
L 29.139912 187.169561 
L 29.344531 187.100209 
L 29.549151 187.195642 
L 29.95839 187.899079 
L 30.981489 190.693852 
L 31.186109 190.688868 
L 31.799968 190.179192 
L 32.413827 190.143733 
L 33.027686 190.153061 
L 33.436926 189.707905 
L 33.846165 189.167282 
L 35.483123 188.359843 
L 36.096982 188.008419 
L 36.710841 187.74512 
L 37.324701 187.159593 
L 37.52932 187.253932 
L 37.93856 187.946829 
L 38.347799 188.559009 
L 38.552419 188.543535 
L 39.370898 187.771049 
L 39.575518 188.050242 
L 40.393997 189.796165 
L 40.598616 189.9198 
L 41.007856 189.815746 
L 41.417095 189.47663 
L 42.030954 188.948737 
L 42.644814 188.709313 
L 43.667912 187.905763 
L 44.691011 188.082283 
L 45.10025 188.502571 
L 46.123349 190.299695 
L 46.737208 190.526609 
L 46.941828 190.483741 
L 47.760307 189.746782 
L 48.374166 189.063701 
L 49.192645 188.2157 
L 49.601884 188.12185 
L 50.624983 188.533332 
L 51.238842 188.351576 
L 51.852701 188.507033 
L 52.8758 188.155592 
L 53.285039 188.212518 
L 53.694279 188.492081 
L 53.898899 188.448961 
L 54.921997 187.461937 
L 55.126617 187.460674 
L 55.535856 187.795817 
L 55.945096 188.142627 
L 56.354335 188.138889 
L 56.763575 187.775427 
L 57.172814 187.316212 
L 57.377434 187.300621 
L 57.582054 187.49349 
L 58.809772 189.760352 
L 59.014392 189.90138 
L 59.219011 189.858883 
L 59.832871 189.387596 
L 60.03749 189.525795 
L 60.65135 190.279507 
L 60.855969 190.288818 
L 61.265209 190.006174 
L 61.674448 189.679467 
L 62.083688 189.521299 
L 62.288307 189.319305 
L 63.106786 188.023606 
L 63.516026 188.042867 
L 64.334505 188.409765 
L 65.357603 188.42251 
L 66.380702 188.985189 
L 66.789941 188.43502 
L 67.4038 187.477293 
L 67.81304 187.317003 
L 68.631519 187.286646 
L 68.836139 187.287926 
L 69.245378 187.612562 
L 70.677716 189.034657 
L 71.291575 189.602505 
L 71.700815 189.608465 
L 72.110054 189.265864 
L 72.723913 188.5318 
L 72.928533 188.468762 
L 73.337773 188.780753 
L 73.747012 189.113656 
L 74.97473 189.272262 
L 75.38397 189.106332 
L 76.202449 189.009334 
L 76.611688 188.769893 
L 76.816308 188.7673 
L 77.225547 189.114751 
L 78.248646 190.597745 
L 79.476364 192.87205 
L 79.680984 192.787865 
L 80.294843 191.702006 
L 81.113322 190.385884 
L 81.727181 189.118202 
L 82.341041 188.39217 
L 82.54566 188.28219 
L 82.75028 188.299364 
L 83.159519 188.825254 
L 83.568759 189.532344 
L 83.977998 189.815915 
L 84.182618 189.795862 
L 84.591858 189.394179 
L 85.410336 188.018925 
L 86.024196 186.843544 
L 86.433435 186.635741 
L 86.842675 186.608414 
L 87.251914 187.04926 
L 87.661153 187.512735 
L 87.865773 187.452811 
L 88.275013 186.780658 
L 88.888872 185.15709 
L 89.298111 184.084331 
L 89.502731 183.780489 
L 89.707351 183.678288 
L 89.91197 183.77495 
L 90.32121 184.40038 
L 91.344309 186.88663 
L 91.753548 187.25144 
L 92.776647 187.740271 
L 93.185886 187.80277 
L 93.390506 187.991026 
L 94.822844 190.307103 
L 95.641323 190.701092 
L 95.845943 190.856027 
L 96.050562 190.84616 
L 96.459802 190.30803 
L 97.278281 188.952088 
L 97.4829 188.897384 
L 98.301379 189.147381 
L 98.710619 188.948097 
L 99.938337 187.826225 
L 100.552196 187.697404 
L 101.984534 186.66662 
L 102.393774 186.568005 
L 103.212253 185.809359 
L 103.621492 186.075217 
L 103.826112 186.211193 
L 104.030732 186.18917 
L 104.84921 185.33723 
L 105.25845 185.556567 
L 105.872309 186.193009 
L 106.281549 186.595231 
L 106.690788 186.522595 
L 107.100027 186.423189 
L 107.918506 186.772626 
L 108.327746 186.563964 
L 108.736985 186.368856 
L 109.146225 186.628619 
L 110.169323 187.901251 
L 110.578563 187.89561 
L 110.987802 187.488422 
L 111.397042 187.166396 
L 111.601661 187.342444 
L 112.42014 189.276623 
L 112.62476 189.267918 
L 113.238619 188.797068 
L 113.647859 188.992648 
L 114.466338 189.657495 
L 114.875577 190.117804 
L 115.284817 190.231438 
L 115.694056 189.96457 
L 116.512535 188.892888 
L 116.717155 189.009148 
L 117.535634 189.922814 
L 117.944873 189.808692 
L 118.967972 188.733492 
L 119.377211 188.771493 
L 119.581831 188.642773 
L 119.786451 188.3046 
L 121.014169 185.235383 
L 121.218789 184.987204 
L 121.423408 184.950617 
L 121.832648 185.548031 
L 122.241887 186.254465 
L 122.651127 186.5263 
L 123.060366 186.625302 
L 124.083465 187.593586 
L 124.901944 187.823295 
L 125.720423 188.381967 
L 126.334282 188.46989 
L 126.743521 188.875597 
L 127.152761 189.270662 
L 127.562 189.274989 
L 127.97124 189.253354 
L 128.380479 189.874272 
L 128.789719 190.41934 
L 128.994338 190.362834 
L 129.608197 189.874862 
L 131.245155 190.110918 
L 131.859014 189.89121 
L 132.268254 189.806183 
L 132.677493 190.13055 
L 133.495972 191.126329 
L 133.700592 191.1514 
L 134.519071 190.601382 
L 134.92831 190.059127 
L 135.746789 188.443927 
L 136.156029 188.146685 
L 136.974508 188.418166 
L 137.383747 188.304971 
L 137.588367 188.455898 
L 138.202226 189.310415 
L 138.406846 189.341243 
L 139.429944 188.834834 
L 140.043804 189.186426 
L 140.248423 189.125358 
L 141.066902 188.409175 
L 141.476142 188.516731 
L 142.090001 188.716015 
L 142.49924 188.586133 
L 143.317719 187.979594 
L 143.726959 188.463778 
L 144.136198 188.949225 
L 144.750057 189.487591 
L 145.159297 189.922106 
L 145.568536 190.047391 
L 145.977776 189.87508 
L 146.387015 189.292382 
L 147.205494 187.774383 
L 147.819353 187.093929 
L 148.023973 187.022405 
L 148.433212 187.239889 
L 148.842452 187.447525 
L 149.456311 187.503845 
L 150.684029 188.19984 
L 151.297888 188.900953 
L 151.707128 189.096381 
L 152.116367 189.673237 
L 152.525607 190.329834 
L 152.730227 190.418818 
L 153.753325 190.132166 
L 154.776424 188.859736 
L 155.185663 188.988355 
L 155.799522 189.458244 
L 156.004142 189.388303 
L 156.618001 188.76267 
L 156.822621 188.781073 
L 157.43648 189.415141 
L 157.6411 189.406117 
L 158.050339 189.088771 
L 159.278058 187.655648 
L 159.687297 187.710806 
L 160.301156 187.937282 
L 160.710396 188.124376 
L 161.528875 189.356397 
L 161.938114 189.048564 
L 162.142734 188.904876 
L 162.347354 188.993187 
L 162.756593 189.867655 
L 163.165833 190.740474 
L 163.370452 190.92452 
L 163.575072 190.899904 
L 163.984312 190.382416 
L 164.598171 189.649851 
L 165.21203 188.988287 
L 165.621269 188.921293 
L 165.825889 189.097004 
L 166.848988 190.61231 
L 167.258227 190.301716 
L 167.872086 189.550225 
L 168.690565 187.909922 
L 168.895185 187.854949 
L 169.099805 187.978028 
L 169.509044 188.626374 
L 169.918284 189.366566 
L 170.122903 189.426911 
L 170.532143 188.957324 
L 170.941382 188.382472 
L 171.350622 188.165745 
L 171.759861 187.943849 
L 172.169101 187.497497 
L 172.37372 187.406745 
L 173.396819 187.540482 
L 174.215298 187.328604 
L 174.624537 187.508643 
L 175.033777 187.662905 
L 175.443016 187.787213 
L 176.466115 188.712647 
L 176.875354 188.61346 
L 178.103073 188.23279 
L 178.512312 188.452783 
L 179.330791 189.185551 
L 180.14927 188.929324 
L 180.558509 189.367055 
L 181.376988 190.740541 
L 181.581608 190.824339 
L 181.786228 190.691966 
L 182.195467 189.834301 
L 182.604707 188.899691 
L 183.013946 188.462027 
L 183.423186 188.390469 
L 183.627805 188.50715 
L 184.037045 189.130443 
L 184.650904 190.266947 
L 184.855524 190.304763 
L 185.469383 189.939162 
L 187.106341 188.276617 
L 187.51558 188.152814 
L 187.92482 188.512168 
L 189.152538 190.201569 
L 189.357158 190.312508 
L 189.971017 190.069397 
L 190.175637 190.269843 
L 190.789496 191.362924 
L 190.994115 191.381007 
L 191.403355 191.061355 
L 192.221834 190.039747 
L 193.449552 189.544417 
L 193.654172 189.509547 
L 194.063411 189.088737 
L 195.08651 187.267519 
L 195.700369 186.275848 
L 195.904989 186.19375 
L 196.109609 186.281236 
L 196.518848 186.927427 
L 197.132707 188.038456 
L 197.541947 188.482821 
L 197.951186 188.670588 
L 198.360426 188.564683 
L 198.769665 188.362705 
L 199.178905 188.452969 
L 199.588144 188.929391 
L 199.997383 189.500287 
L 200.202003 189.572585 
L 200.406623 189.413542 
L 200.815862 188.530605 
L 201.429722 186.978275 
L 201.838961 186.642593 
L 202.45282 186.5412 
L 203.066679 185.883729 
L 203.271299 185.930856 
L 203.680539 186.753937 
L 204.089778 187.667653 
L 204.499017 188.012258 
L 205.112877 187.976327 
L 205.522116 187.971546 
L 205.931356 187.678664 
L 206.340595 187.403984 
L 207.568313 187.263731 
L 208.386792 187.467493 
L 209.409891 186.506196 
L 209.614511 186.618415 
L 210.43299 187.453956 
L 210.842229 187.42333 
L 211.251468 187.736079 
L 211.660708 188.054687 
L 212.069947 187.765931 
L 212.888426 186.587705 
L 214.116145 184.505579 
L 215.548483 180.766548 
L 215.957722 180.406503 
L 216.366962 180.643654 
L 217.59468 182.106747 
L 217.7993 181.982758 
L 218.208539 181.119487 
L 219.027018 179.035054 
L 219.231638 178.812283 
L 219.640877 178.812316 
L 220.254736 179.161736 
L 220.663976 179.275303 
L 221.073215 179.078612 
L 221.482455 178.648895 
L 222.096314 177.865112 
L 222.505553 177.549079 
L 222.914793 176.885917 
L 225.16561 171.249833 
L 226.188708 167.002625 
L 226.802568 164.477953 
L 227.211807 162.061307 
L 227.621047 158.648276 
L 228.234906 151.279032 
L 228.848765 141.053745 
L 229.462624 125.619902 
L 230.281103 98.212088 
L 232.3273 18.281808 
L 232.73654 11.485699 
L 232.941159 10.893421 
L 233.145779 12.255474 
L 233.555019 20.409058 
L 234.168878 42.695279 
L 236.010455 122.333351 
L 236.624315 138.239239 
L 237.442793 153.364761 
L 238.261272 163.925039 
L 238.875132 168.861693 
L 239.488991 171.771901 
L 240.921329 176.920332 
L 241.330568 177.129314 
L 241.739808 177.1346 
L 241.944427 177.234815 
L 242.149047 177.505589 
L 242.558287 178.641251 
L 243.376766 181.735135 
L 243.581385 182.058189 
L 243.990625 182.164094 
L 244.399864 182.036216 
L 245.218343 181.501824 
L 245.422963 181.619212 
L 246.650681 183.43346 
L 247.26454 184.382163 
L 247.46916 184.428077 
L 247.8784 183.951099 
L 248.287639 183.445919 
L 248.901498 182.998827 
L 249.106118 182.946312 
L 249.515357 183.165076 
L 249.719977 183.266587 
L 249.924597 183.172602 
L 250.333836 182.685236 
L 250.538456 182.716519 
L 250.947695 183.496582 
L 251.561555 184.930109 
L 252.175414 185.76496 
L 252.584653 186.116131 
L 253.403132 186.404433 
L 253.812372 186.645489 
L 254.426231 187.324109 
L 254.83547 187.338807 
L 255.04009 187.306447 
L 255.24471 187.394824 
L 256.677048 188.781814 
L 257.086287 188.540336 
L 257.700146 187.982742 
L 258.518625 186.746024 
L 259.132484 186.467622 
L 259.541724 186.493787 
L 259.950963 187.039124 
L 260.360203 187.477175 
L 260.974062 187.515344 
L 261.383301 188.233884 
L 261.792541 189.002683 
L 262.20178 189.196899 
L 263.838738 188.744267 
L 264.247978 188.605176 
L 264.657217 188.787656 
L 265.475696 189.596258 
L 265.680316 189.434201 
L 266.089555 188.531867 
L 266.703414 186.436777 
L 267.112654 185.993658 
L 267.521893 185.731067 
L 268.135752 184.952401 
L 268.544992 184.829204 
L 268.954231 185.18871 
L 269.97733 186.846305 
L 270.591189 187.124892 
L 271.818908 188.380216 
L 272.842006 188.673063 
L 273.251246 188.612197 
L 274.069725 189.121957 
L 274.274344 188.8759 
L 275.092823 187.179377 
L 275.502063 186.878229 
L 276.115922 186.473414 
L 276.525161 186.135915 
L 276.729781 186.129483 
L 277.13902 186.526081 
L 278.775978 189.041122 
L 278.980598 189.038849 
L 279.389837 188.357991 
L 280.412936 186.45326 
L 280.822176 186.324877 
L 281.640654 186.483028 
L 282.663753 186.391401 
L 283.277612 186.749273 
L 283.891471 186.850599 
L 284.300711 187.410954 
L 285.11919 189.039472 
L 285.32381 189.161474 
L 285.528429 189.153392 
L 285.937669 188.760768 
L 286.142288 188.532995 
L 286.346908 188.48703 
L 286.756148 189.014957 
L 287.165387 189.598194 
L 287.370007 189.736191 
L 287.574627 189.702652 
L 287.779246 189.470384 
L 288.802345 187.615475 
L 289.006965 187.680398 
L 290.030063 188.642706 
L 290.439303 188.633732 
L 290.848542 188.351626 
L 291.871641 187.223557 
L 292.894739 187.61401 
L 293.508599 188.326421 
L 293.917838 188.381731 
L 294.531697 187.928948 
L 295.554796 186.590685 
L 295.759416 186.630656 
L 296.373275 187.072024 
L 297.191754 186.888264 
L 297.600993 187.429273 
L 298.214852 188.337668 
L 298.624092 188.546684 
L 299.033331 188.653195 
L 299.442571 189.207372 
L 300.05643 190.244032 
L 300.465669 190.568735 
L 300.670289 190.475794 
L 301.079528 189.815814 
L 301.693388 188.881742 
L 302.716486 188.072467 
L 303.534965 188.388045 
L 303.944205 188.552661 
L 304.353444 188.474705 
L 304.762684 188.131835 
L 305.171923 187.81986 
L 305.785782 188.03822 
L 306.195022 188.160626 
L 306.604261 187.974846 
L 307.013501 187.702775 
L 307.42274 187.793914 
L 308.036599 188.037109 
L 308.445839 187.970451 
L 309.264318 187.489011 
L 309.673557 187.830131 
L 310.082796 188.226493 
L 310.492036 188.251631 
L 311.105895 188.018033 
L 311.515135 187.855201 
L 311.924374 187.904416 
L 313.152092 188.264629 
L 313.561332 187.940565 
L 313.970571 187.539758 
L 314.379811 187.49216 
L 314.78905 187.542402 
L 315.19829 187.368676 
L 316.221388 186.598447 
L 316.426008 186.594726 
L 317.244487 187.231488 
L 317.653726 186.723428 
L 318.062966 186.185029 
L 318.267586 186.110272 
L 318.472205 186.232021 
L 319.290684 187.30914 
L 319.699924 187.137941 
L 320.109163 186.679046 
L 320.723022 185.898242 
L 321.132262 185.787303 
L 321.541501 186.099563 
L 322.5646 187.239637 
L 322.973839 187.511253 
L 323.178459 187.39112 
L 323.996938 186.325467 
L 324.610797 186.287533 
L 325.020037 186.347052 
L 325.429276 186.727503 
L 326.247755 187.616148 
L 326.452375 187.605204 
L 326.656994 187.32032 
L 327.680093 184.705906 
L 327.884713 184.597004 
L 328.089332 184.643474 
L 328.293952 184.83929 
L 328.703192 185.686549 
L 329.112431 186.582788 
L 329.521671 186.81578 
L 329.93091 186.755048 
L 330.13553 186.559065 
L 330.544769 185.647689 
L 331.158628 184.149036 
L 331.772488 182.97347 
L 331.977107 182.760094 
L 332.181727 182.717748 
L 332.386347 182.874569 
L 332.795586 183.708746 
L 333.409445 185.139175 
L 333.614065 185.357569 
L 333.818685 185.354135 
L 334.432544 184.758758 
L 335.046403 184.003109 
L 335.455643 183.58501 
L 335.864882 183.296995 
L 336.478741 182.552357 
L 337.29722 182.149345 
L 337.70646 182.191656 
L 338.320319 182.562662 
L 338.524938 182.447058 
L 338.934178 181.717692 
L 340.161896 179.000168 
L 340.571136 178.706158 
L 340.980375 178.852069 
L 341.594234 179.242235 
L 341.798854 179.195529 
L 342.003474 178.931304 
L 342.617333 177.625335 
L 343.435812 176.929828 
L 344.049671 175.893067 
L 344.66353 174.047233 
L 345.277389 171.336089 
L 345.891249 168.431404 
L 347.118967 164.644943 
L 348.142066 160.39957 
L 348.755925 155.644891 
L 349.369784 149.32965 
L 349.983643 140.617041 
L 350.597502 128.339918 
L 351.211362 111.20307 
L 351.825221 87.937334 
L 353.462179 15.222171 
L 353.871418 6.240809 
L 354.076038 3.877419 
L 354.280657 3.00024 
L 354.485277 3.71415 
L 354.689897 6.085571 
L 355.099136 15.718023 
L 355.712996 40.43931 
L 357.145334 104.184577 
L 357.759193 122.765459 
L 358.373052 136.278239 
L 359.396151 152.57394 
L 360.01001 160.005565 
L 360.623869 164.860491 
L 361.033108 166.917648 
L 361.646968 168.641699 
L 363.693165 173.133803 
L 363.897785 173.200562 
L 364.307024 173.100213 
L 364.511644 173.23826 
L 364.920883 174.185196 
L 365.943982 177.347927 
L 366.148602 177.595162 
L 366.353221 177.635033 
L 366.967081 177.357877 
L 367.37632 176.882414 
L 367.785559 176.422408 
L 368.194799 176.520265 
L 368.604038 176.85896 
L 369.013278 177.331291 
L 369.217898 177.430917 
L 369.627137 177.293155 
L 370.240996 177.063952 
L 370.445616 176.963435 
L 370.854855 176.300861 
L 371.468715 175.192374 
L 371.877954 174.697111 
L 372.287193 173.569665 
L 373.924151 167.089858 
L 374.333391 166.394216 
L 374.53801 166.241891 
L 374.74263 166.246488 
L 374.94725 166.445233 
L 375.356489 167.401731 
L 375.765729 168.565562 
L 375.970348 168.864084 
L 376.584208 168.994386 
L 376.993447 169.765222 
L 377.811926 172.037068 
L 378.016546 172.330876 
L 378.221165 172.421038 
L 378.630405 172.220357 
L 379.039644 171.90185 
L 379.653504 171.636396 
L 380.062743 170.983824 
L 380.676602 169.307657 
L 381.290461 167.599466 
L 381.699701 167.001143 
L 383.132039 166.56422 
L 383.541278 165.653721 
L 383.950518 163.997237 
L 384.359757 161.138382 
L 386.201335 143.937856 
L 386.815194 134.854006 
L 387.429053 120.728776 
L 388.247532 94.379106 
L 389.88449 33.766415 
L 390.293729 27.282483 
L 390.498349 25.935178 
L 390.702969 25.858872 
L 390.907589 27.189693 
L 391.112208 30.054475 
L 391.521448 40.572946 
L 392.135307 65.167719 
L 393.363025 117.139124 
L 393.976884 135.306335 
L 394.590744 146.294157 
L 395.409223 155.722342 
L 396.636941 166.26585 
L 397.2508 169.523222 
L 397.66004 170.762113 
L 398.478518 172.449392 
L 399.706237 176.613442 
L 400.524716 177.854807 
L 400.729335 177.971202 
L 401.343195 177.808219 
L 401.752434 178.300553 
L 402.366293 179.680706 
L 402.775533 180.740989 
L 403.184772 181.139809 
L 404.003251 181.355593 
L 405.02635 182.363917 
L 405.640209 183.002817 
L 406.458688 183.186746 
L 406.867927 183.303814 
L 407.686406 183.100876 
L 408.095646 183.520288 
L 408.709505 184.362749 
L 409.527984 185.018588 
L 409.937223 184.754431 
L 410.346463 184.477882 
L 410.551082 184.424693 
L 410.755702 184.510057 
L 411.164942 185.163892 
L 411.574181 185.809494 
L 411.778801 185.849415 
L 412.39266 185.312547 
L 412.801899 185.48964 
L 413.211139 185.609957 
L 413.620378 185.366544 
L 414.029618 184.775646 
L 414.848097 183.177249 
L 415.257336 182.941799 
L 415.461956 183.065468 
L 415.871195 183.74471 
L 416.485054 184.817166 
L 416.894294 185.187363 
L 417.303533 185.287106 
L 417.712773 185.182059 
L 418.122012 184.889969 
L 418.940491 184.228962 
L 419.349731 184.298162 
L 419.75897 184.59138 
L 420.168209 185.152494 
L 420.577449 185.782841 
L 420.782069 185.859955 
L 421.395928 185.502486 
L 421.600548 185.643985 
L 422.214407 186.579471 
L 422.623646 186.70346 
L 423.032886 186.762103 
L 424.260604 187.288784 
L 424.465224 187.031126 
L 425.692942 184.451902 
L 426.102182 184.252921 
L 426.716041 184.386321 
L 427.3299 184.841529 
L 427.53452 184.801541 
L 428.352999 184.071973 
L 428.762238 184.254083 
L 429.171477 184.385176 
L 430.194576 184.130751 
L 430.808435 183.889307 
L 431.013055 183.973442 
L 431.422294 184.523712 
L 432.445393 186.277262 
L 432.650013 186.220858 
L 433.263872 185.496122 
L 433.468492 185.469081 
L 433.877731 185.934964 
L 434.49159 186.653857 
L 435.10545 186.927831 
L 435.310069 186.819097 
L 435.719309 186.058515 
L 436.333168 184.896081 
L 436.742407 184.703936 
L 437.356267 184.670818 
L 437.970126 184.964608 
L 438.379365 184.615474 
L 438.788605 184.186027 
L 438.993224 184.1208 
L 439.197844 184.215593 
L 440.220943 185.352249 
L 441.244041 185.590005 
L 442.26714 186.694485 
L 442.47176 186.68642 
L 442.676379 186.5016 
L 443.085619 185.685657 
L 444.722577 181.758859 
L 445.131816 181.377633 
L 446.359535 181.139102 
L 447.178013 181.360964 
L 447.587253 181.131003 
L 448.201112 180.727048 
L 448.405732 180.68908 
L 448.814971 180.966623 
L 449.224211 181.365898 
L 449.42883 181.355055 
L 450.451929 180.618179 
L 450.656549 180.716912 
L 451.065788 181.350391 
L 451.475028 182.045258 
L 451.679647 182.172529 
L 452.088887 181.957031 
L 453.316605 181.02956 
L 453.521225 180.92091 
L 453.725845 180.969704 
L 454.135084 181.498911 
L 454.748943 182.350211 
L 455.158183 182.559261 
L 455.362802 182.51109 
L 455.772042 182.079925 
L 456.590521 181.029206 
L 456.795141 180.950308 
L 457.20438 181.170621 
L 458.022859 181.80112 
L 459.045958 183.112376 
L 459.455197 183.149721 
L 459.659817 182.977629 
L 460.069056 182.238918 
L 461.296775 179.663482 
L 461.501394 179.604182 
L 461.706014 179.730342 
L 462.729113 180.987282 
L 463.138352 180.969721 
L 463.956831 180.699182 
L 464.161451 180.767962 
L 464.57069 181.331466 
L 465.389169 182.895918 
L 465.593789 182.862261 
L 466.003028 182.368395 
L 466.821507 180.84085 
L 467.844606 178.690062 
L 468.867704 177.814516 
L 469.276944 177.858427 
L 471.118521 178.768775 
L 471.732381 179.409983 
L 471.937 179.345412 
L 472.55086 178.546543 
L 472.755479 178.58648 
L 473.573958 179.350767 
L 474.801677 179.428217 
L 475.210916 178.982556 
L 475.620155 178.097699 
L 476.234015 176.716704 
L 476.847874 176.191807 
L 477.257113 175.622158 
L 477.666353 175.488724 
L 478.280212 175.344834 
L 479.098691 174.846708 
L 479.50793 174.315464 
L 480.940268 171.503097 
L 481.144888 171.60353 
L 481.758747 172.28459 
L 482.577226 172.488774 
L 482.781846 172.391321 
L 483.191085 171.630907 
L 483.600325 170.885461 
L 483.804945 170.890765 
L 484.214184 171.618363 
L 484.623423 172.270649 
L 484.828043 172.35635 
L 485.032663 172.304425 
L 485.441902 171.833525 
L 485.851142 171.316794 
L 486.260381 171.26108 
L 486.87424 171.163139 
L 487.07886 171.025277 
L 487.4881 170.290725 
L 488.306579 168.130525 
L 488.715818 167.676917 
L 489.329677 167.526393 
L 489.738917 167.310542 
L 490.148156 166.586647 
L 490.762015 165.09776 
L 491.171255 164.688282 
L 491.375874 164.566819 
L 491.580494 164.300557 
L 492.603593 161.980455 
L 493.626691 160.752004 
L 494.64979 160.935612 
L 494.85441 160.822804 
L 495.263649 160.162941 
L 496.082128 158.461418 
L 496.491368 158.053303 
L 496.695987 158.039143 
L 497.514466 158.537404 
L 497.719086 158.254507 
L 498.742185 156.072554 
L 499.151424 155.753895 
L 499.356044 155.775985 
L 499.765283 156.132157 
L 500.174523 156.407006 
L 500.379142 156.228145 
L 500.788382 155.227769 
L 501.402241 153.859789 
L 501.606861 153.66138 
L 501.81148 153.633953 
L 502.834579 154.131422 
L 503.243819 154.159152 
L 503.448438 153.919342 
L 503.857678 152.818448 
L 504.676157 150.294281 
L 505.085396 149.743051 
L 505.699255 149.383646 
L 506.108495 148.531875 
L 506.722354 146.219939 
L 507.540833 143.307744 
L 507.950072 142.303411 
L 508.154692 142.013679 
L 508.359312 141.950304 
L 508.973171 142.408475 
L 509.38241 142.557079 
L 509.58703 142.38103 
L 509.99627 141.494187 
L 511.019368 138.993053 
L 512.247087 137.617176 
L 513.065565 137.068842 
L 513.474805 136.178075 
L 514.497904 132.940706 
L 515.521002 131.127115 
L 515.930242 130.082036 
L 516.748721 126.981148 
L 517.15796 125.627849 
L 517.36258 125.310302 
L 517.567199 125.253493 
L 518.181059 125.420029 
L 518.590298 125.125969 
L 518.999538 124.829249 
L 519.613397 124.896934 
L 519.818016 124.706641 
L 520.636495 123.485042 
L 521.045735 123.376948 
L 521.250355 123.027208 
L 522.478073 119.778877 
L 523.705791 117.828754 
L 524.31965 115.593327 
L 525.342749 111.600662 
L 525.956608 110.248491 
L 526.570467 109.252156 
L 526.979707 109.03452 
L 527.593566 108.906945 
L 528.207425 108.634891 
L 528.616665 108.61371 
L 529.025904 108.326806 
L 529.435144 108.056318 
L 529.639763 108.168184 
L 530.458242 109.438341 
L 530.662862 109.501901 
L 531.072101 109.283995 
L 531.685961 108.729751 
L 532.0952 108.758762 
L 532.504439 108.799541 
L 532.709059 108.616791 
L 533.118299 107.819403 
L 533.732158 105.868186 
L 534.141397 104.633673 
L 534.550637 104.008713 
L 534.959876 103.615365 
L 535.778355 102.543027 
L 536.392214 102.036736 
L 538.029172 99.604887 
L 538.438412 98.326446 
L 540.075369 91.32649 
L 540.893848 86.238353 
L 543.553905 66.224584 
L 544.372384 62.217776 
L 544.781623 60.858062 
L 544.986243 60.496401 
L 545.190863 60.376942 
L 546.009341 60.539841 
L 546.213961 60.819034 
L 546.418581 61.91624 
L 546.623201 64.696971 
L 546.82782 70.117018 
L 547.23706 89.509279 
L 547.850919 121.416454 
L 548.260158 133.032569 
L 548.669398 137.932063 
L 548.874018 138.796985 
L 549.078637 138.977613 
L 549.283257 138.703253 
L 550.101736 136.811453 
L 550.306356 136.826001 
L 550.715595 137.564341 
L 551.329454 139.23049 
L 551.738694 141.087672 
L 552.352553 145.061597 
L 553.784891 155.360883 
L 554.80799 162.051659 
L 555.626469 165.803655 
L 557.058807 170.559815 
L 558.695765 174.30447 
L 559.309624 176.163117 
L 560.332722 180.269803 
L 561.76506 183.31464 
L 561.96968 183.463329 
L 562.37892 183.226852 
L 562.583539 183.088097 
L 562.788159 183.089444 
L 563.197399 183.565664 
L 563.606638 184.135937 
L 564.425117 184.903894 
L 565.448216 186.471428 
L 565.857455 186.462117 
L 566.675934 185.964513 
L 567.494413 185.292494 
L 568.312892 184.266728 
L 568.517511 184.358692 
L 568.926751 184.975788 
L 569.949849 186.592099 
L 570.154469 186.746209 
L 570.359089 186.68568 
L 571.177568 185.836736 
L 571.996047 185.503278 
L 572.200666 185.729501 
L 573.223765 187.99212 
L 573.428385 188.114678 
L 573.837624 187.955399 
L 574.451483 187.394437 
L 574.860723 187.055961 
L 575.269962 187.10595 
L 575.679202 186.805004 
L 576.7023 185.541767 
L 577.11154 185.968857 
L 577.725399 186.618112 
L 578.339258 187.021799 
L 578.748498 187.011629 
L 579.157737 186.707366 
L 579.566977 186.256586 
L 579.976216 186.08143 
L 580.385456 186.17863 
L 580.794695 186.634461 
L 581.408554 188.272643 
L 581.817794 189.087424 
L 582.227033 189.371432 
L 582.636273 189.383976 
L 583.045512 189.075689 
L 583.454751 188.696214 
L 584.47785 188.240552 
L 585.091709 187.653425 
L 585.296329 187.62098 
L 585.705568 187.942704 
L 586.524047 188.94409 
L 586.933287 188.891373 
L 587.137907 188.835272 
L 587.342526 188.899034 
L 588.365625 189.8935 
L 588.979484 189.94679 
L 589.388724 189.776802 
L 589.797963 189.502694 
L 590.002583 189.502374 
L 590.411822 189.862907 
L 590.821062 190.191449 
L 591.230301 190.261121 
L 591.639541 189.831742 
L 592.458019 188.526412 
L 593.071879 187.952486 
L 593.276498 187.872947 
L 594.094977 188.073444 
L 594.708836 187.472309 
L 596.550414 187.427606 
L 596.959653 187.624836 
L 597.368893 187.553699 
L 597.982752 187.170352 
L 599.005851 186.187285 
L 599.41509 186.77261 
L 599.82433 187.272486 
L 600.233569 187.337696 
L 600.642809 187.094198 
L 601.256668 186.117175 
L 601.665907 185.477449 
L 603.098245 184.194547 
L 603.302865 184.225409 
L 603.712104 184.675802 
L 604.735203 185.923952 
L 605.144442 186.044978 
L 605.553682 185.59903 
L 605.962921 185.001482 
L 606.167541 184.85808 
L 606.372161 184.869597 
L 606.7814 185.221846 
L 607.395259 186.130628 
L 607.804499 186.250895 
L 609.236837 186.006791 
L 609.441457 186.043243 
L 609.850696 186.53817 
L 610.464555 187.439342 
L 611.078415 187.84749 
L 611.487654 187.796322 
L 611.692274 187.625712 
L 612.101513 186.752775 
L 612.510753 185.764825 
L 612.715372 185.544933 
L 612.919992 185.555557 
L 613.329232 186.056494 
L 613.738471 186.492356 
L 614.14771 186.560984 
L 614.966189 186.390003 
L 615.784668 186.055417 
L 616.603147 186.854977 
L 617.012387 186.706726 
L 617.830866 186.225134 
L 618.853964 185.213275 
L 619.263204 185.142644 
L 619.672443 185.404057 
L 620.490922 186.304606 
L 621.514021 186.532832 
L 622.537119 187.071704 
L 623.560218 186.418071 
L 623.764838 186.557229 
L 624.174077 187.286764 
L 624.787936 188.529577 
L 624.992556 188.669241 
L 625.401795 188.589433 
L 625.811035 188.501561 
L 626.424894 188.786124 
L 627.447993 189.428123 
L 627.652612 189.184759 
L 628.061852 187.952301 
L 628.675711 185.678131 
L 628.880331 185.357165 
L 629.084951 185.367958 
L 629.28957 185.678282 
L 630.312669 188.257625 
L 630.517289 188.317716 
L 630.926528 188.067669 
L 631.540387 187.618893 
L 632.358866 187.60352 
L 632.768106 186.869911 
L 633.177345 186.235877 
L 633.381965 186.27642 
L 633.995824 187.136914 
L 635.018923 188.924222 
L 635.428162 188.866016 
L 636.042021 188.27958 
L 636.65588 187.515799 
L 637.26974 186.582165 
L 638.292838 185.624538 
L 638.497458 185.633967 
L 638.906697 186.111147 
L 639.315937 186.790356 
L 639.520557 186.968812 
L 639.725176 186.937024 
L 639.929796 186.671974 
L 640.339036 185.567983 
L 641.157514 183.037047 
L 641.566754 182.219101 
L 641.771374 182.063981 
L 641.975993 182.109272 
L 642.385233 182.501358 
L 642.794472 183.139602 
L 644.022191 185.741405 
L 644.63605 186.668388 
L 645.454529 187.207882 
L 645.659148 187.243627 
L 646.068388 186.991862 
L 646.477627 186.61562 
L 646.886867 185.795536 
L 647.500726 184.332931 
L 647.909965 184.081014 
L 648.728444 184.031547 
L 649.751543 183.71868 
L 650.160782 184.004843 
L 651.183881 185.211878 
L 651.79774 185.470765 
L 652.820839 186.450213 
L 653.025459 186.420664 
L 653.230078 186.268136 
L 653.639318 185.475176 
L 654.662416 182.753881 
L 655.276276 181.705957 
L 655.890135 181.123006 
L 656.094754 181.037153 
L 656.299374 181.12309 
L 656.708614 181.906402 
L 657.731712 184.788391 
L 658.140952 184.946003 
L 658.754811 184.913407 
L 659.36867 184.35125 
L 659.77791 184.460539 
L 660.187149 184.551022 
L 660.391769 184.372751 
L 660.801008 183.456526 
L 661.210248 182.308859 
L 661.414867 182.056454 
L 661.619487 182.193744 
L 662.028727 183.303056 
L 662.437966 184.476282 
L 662.642586 184.77216 
L 662.847205 184.869984 
L 663.051825 184.800362 
L 663.256445 184.518442 
L 664.074924 182.730578 
L 664.484163 182.738391 
L 664.893403 182.786999 
L 665.302642 182.479352 
L 665.916501 181.808175 
L 666.530361 181.385496 
L 667.14422 180.799902 
L 667.758079 180.619812 
L 668.167318 180.707315 
L 668.576558 180.819854 
L 668.985797 180.893651 
L 669.804276 181.714291 
L 670.418135 182.285153 
L 670.827375 182.291584 
L 671.236614 182.020373 
L 671.645854 181.790075 
L 672.055093 182.223394 
L 672.464333 182.726301 
L 672.873572 182.913294 
L 674.10129 182.815454 
L 675.124389 181.794385 
L 675.533629 180.918822 
L 676.147488 179.363142 
L 676.352107 179.137895 
L 676.556727 179.102436 
L 677.170586 179.353932 
L 677.579826 179.252068 
L 677.989065 178.895643 
L 678.602924 177.646263 
L 679.216784 176.347146 
L 680.035263 175.206972 
L 680.444502 173.803297 
L 681.262981 170.664727 
L 681.467601 170.336841 
L 681.67222 170.290186 
L 681.87684 170.488813 
L 682.286079 171.41913 
L 682.899939 172.863349 
L 683.309178 173.273197 
L 683.718418 173.47595 
L 684.127657 174.030867 
L 684.536896 174.579049 
L 684.741516 174.546873 
L 685.150756 173.898595 
L 685.764615 172.780965 
L 686.378474 172.311984 
L 686.992333 171.989015 
L 687.401573 171.478767 
L 687.810812 170.654911 
L 688.220052 169.3267 
L 688.833911 166.148529 
L 689.44777 161.945434 
L 690.675488 152.315995 
L 690.880108 152.060038 
L 691.084728 152.560807 
L 691.493967 154.948223 
L 692.517066 161.339046 
L 692.926305 162.963927 
L 693.335545 163.585839 
L 693.744784 163.535328 
L 693.949404 163.504331 
L 694.154024 163.645173 
L 695.177122 165.297347 
L 695.381742 165.271569 
L 695.586362 164.977374 
L 696.200221 163.057609 
L 697.0187 160.769902 
L 697.632559 158.987089 
L 698.041798 156.860513 
L 699.064897 149.54865 
L 700.087996 140.553296 
L 700.292615 139.644547 
L 700.497235 139.379296 
L 700.701855 139.77911 
L 701.111094 142.186747 
L 701.724954 146.004862 
L 702.134193 146.942048 
L 703.157292 148.231214 
L 703.361911 147.97817 
L 703.771151 146.628811 
L 704.38501 143.357296 
L 705.203489 136.779833 
L 705.817348 130.531065 
L 706.840447 116.56976 
L 707.658926 106.203631 
L 708.886644 93.251054 
L 709.295883 85.877062 
L 710.114362 65.383722 
L 710.728222 44.172364 
L 711.342081 13.994881 
L 711.579569 -1 
M 718.275793 -1 
L 718.708391 28.965014 
L 719.32225 60.318955 
L 719.936109 81.67092 
L 720.549968 96.874297 
L 721.163828 107.465302 
L 721.777687 114.640633 
L 722.596166 121.282195 
L 723.619264 126.491272 
L 724.028504 128.017 
L 724.437743 128.806979 
L 724.846983 128.980789 
L 725.256222 128.819372 
L 725.665462 128.231976 
L 726.074701 127.044657 
L 726.68856 124.378284 
L 727.302419 120.578589 
L 727.916279 114.851838 
L 730.985574 81.996465 
L 732.008673 73.018992 
L 732.622532 66.193435 
L 733.441011 54.364802 
L 734.25949 38.78621 
L 735.896448 5.477364 
L 736.305687 0.783468 
L 736.578147 -1 
M 737.668838 -1 
L 737.942645 0.999791 
L 738.556504 8.253263 
L 739.579603 20.721116 
L 740.193462 25.178957 
L 740.602702 26.933079 
L 740.807321 27.514801 
L 741.011941 27.741428 
L 741.216561 27.515811 
L 741.421181 26.832747 
L 741.83042 24.216111 
L 742.444279 17.649811 
L 743.467378 4.445132 
L 743.876617 2.051318 
L 744.081237 1.6758 
L 744.285857 1.823714 
L 744.490476 2.513968 
L 744.899716 5.490362 
L 745.513575 12.583175 
L 746.536674 24.876664 
L 747.150533 30.784683 
L 747.559772 33.008156 
L 747.764392 33.064157 
L 747.969012 32.198679 
L 748.378251 27.914177 
L 748.99211 20.125571 
L 749.19673 19.162809 
L 749.40135 19.877611 
L 749.60597 22.436665 
L 750.015209 31.939203 
L 751.038308 58.613677 
L 751.447547 64.20095 
L 751.652167 65.589152 
L 751.856787 66.182592 
L 752.061406 66.153245 
L 752.266026 65.664784 
L 752.675266 63.786707 
L 753.289125 59.517324 
L 754.107604 51.763369 
L 754.721463 43.25023 
L 755.335322 30.851509 
L 756.358421 4.766788 
L 756.564095 -1 
M 766.528999 -1 
L 770.477182 63.379283 
L 771.091041 68.792359 
L 772.727999 79.768732 
L 774.160337 89.665679 
L 774.569576 93.012186 
L 775.183435 100.356023 
L 776.001914 109.924983 
L 777.638872 124.995919 
L 778.252731 128.196837 
L 778.866591 130.049641 
L 779.889689 132.514003 
L 780.298929 133.645961 
L 780.912788 136.050248 
L 781.526647 138.534326 
L 781.935886 139.505389 
L 782.754365 140.771858 
L 783.163605 140.997038 
L 783.572844 140.999361 
L 783.777464 141.119157 
L 784.186703 141.877955 
L 786.028281 147.297496 
L 786.232901 147.562479 
L 786.43752 147.555003 
L 787.255999 146.976379 
L 787.665239 147.230872 
L 788.074478 147.939512 
L 788.688337 149.416799 
L 788.892957 149.375767 
L 789.302197 148.821809 
L 789.506816 148.775726 
L 789.916056 149.222717 
L 790.325295 150.046826 
L 791.553014 153.473697 
L 791.757633 153.469741 
L 792.166873 152.785245 
L 792.780732 151.75734 
L 793.189971 151.500659 
L 793.599211 151.816641 
L 794.00845 152.325172 
L 794.21307 152.427996 
L 794.62231 152.149965 
L 794.826929 152.003314 
L 795.031549 152.012574 
L 795.440788 152.496539 
L 795.850028 153.018018 
L 796.054648 153.124799 
L 796.873127 153.002124 
L 797.282366 153.783163 
L 797.691605 154.604342 
L 798.510084 155.569983 
L 799.123943 156.685374 
L 800.351662 158.14414 
L 800.760901 159.081646 
L 801.37476 160.660663 
L 801.784 161.309649 
L 802.193239 161.667016 
L 802.602479 161.755849 
L 803.011718 161.427087 
L 804.239437 159.767354 
L 804.444056 159.827967 
L 805.057916 160.342206 
L 805.262535 160.23694 
L 805.876394 159.525994 
L 806.081014 159.467115 
L 806.285634 159.575209 
L 806.694873 160.189594 
L 807.717972 162.42189 
L 808.331831 163.156628 
L 809.15031 164.629284 
L 809.55955 164.755647 
L 810.787268 164.361709 
L 811.196507 163.966947 
L 811.401127 163.935764 
L 812.424226 164.458421 
L 813.242705 165.344322 
L 813.856564 165.376868 
L 815.288902 166.408629 
L 815.493522 166.478082 
L 815.902761 166.248643 
L 816.312001 166.059646 
L 816.51662 166.173549 
L 816.92586 166.810109 
L 817.744339 168.529682 
L 818.153578 168.798958 
L 818.767437 168.971723 
L 819.176677 169.374265 
L 819.585916 170.144057 
L 820.199775 171.498786 
L 820.609015 171.940625 
L 821.018254 172.093186 
L 821.427494 171.788469 
L 821.836733 171.540744 
L 822.245973 171.699367 
L 822.655212 171.880264 
L 822.859832 171.721289 
L 823.678311 170.45455 
L 823.88293 170.464298 
L 824.08755 170.609569 
L 824.49679 171.336241 
L 825.519888 174.147329 
L 825.929128 174.417733 
L 826.338367 174.226312 
L 826.747607 173.904454 
L 827.156846 173.945351 
L 827.566086 174.284282 
L 827.975325 174.848948 
L 828.589184 175.923895 
L 828.998424 176.209335 
L 830.226142 176.31162 
L 830.635381 176.95409 
L 831.65848 179.085835 
L 832.681579 180.875467 
L 833.090818 181.574678 
L 833.704677 182.927471 
L 833.909297 183.091936 
L 834.113917 183.041694 
L 834.727776 182.202718 
L 835.137015 181.862727 
L 835.750875 181.984712 
L 836.160114 182.016854 
L 837.387832 181.226554 
L 837.797072 181.092093 
L 838.206311 180.560041 
L 838.82017 178.934958 
L 839.43403 177.241466 
L 839.638649 176.968385 
L 839.843269 176.8958 
L 840.866368 177.236078 
L 841.070987 177.057588 
L 841.480227 176.054804 
L 841.889466 174.877335 
L 842.094086 174.563306 
L 842.298706 174.466224 
L 842.912565 174.667326 
L 843.321804 174.28408 
L 843.731044 173.989919 
L 844.344903 174.226093 
L 844.549523 174.052587 
L 844.958762 173.234742 
L 845.572621 172.001525 
L 845.981861 171.739995 
L 846.80034 171.556639 
L 847.414199 171.655472 
L 847.823438 171.371885 
L 848.437298 170.946462 
L 849.051157 170.814106 
L 849.460396 170.773461 
L 849.665016 170.551194 
L 850.074255 169.649383 
L 851.506594 165.797678 
L 852.529692 164.263397 
L 855.189749 157.231704 
L 855.394368 157.208485 
L 856.212847 158.063322 
L 856.622087 157.933945 
L 857.031326 157.441309 
L 857.440566 156.400002 
L 858.259045 154.149084 
L 858.668284 153.451119 
L 858.872904 153.377894 
L 859.486763 153.789275 
L 859.691383 153.703237 
L 860.100622 152.880914 
L 862.146819 147.032582 
L 862.556059 146.880088 
L 862.965298 146.720742 
L 863.374538 146.34546 
L 863.579157 146.330003 
L 863.988397 146.806847 
L 864.397636 147.233701 
L 864.806876 147.252272 
L 865.216115 147.07257 
L 865.420735 147.17728 
L 865.829974 147.973944 
L 866.648453 150.013606 
L 867.466932 151.147282 
L 868.89927 152.912163 
L 869.30851 153.775031 
L 869.922369 156.007815 
L 871.763947 163.668054 
L 872.173186 164.922502 
L 872.582425 166.828192 
L 873.196285 169.944436 
L 873.605524 171.007631 
L 874.014764 171.762624 
L 874.424003 173.318018 
L 877.288679 189.501381 
L 877.697919 191.437159 
L 878.311778 192.813558 
L 878.925637 193.984898 
L 879.334876 194.316723 
L 879.948736 194.500719 
L 880.357975 194.540842 
L 880.562595 194.404057 
L 880.767214 194.038575 
L 881.176454 192.659482 
L 881.790313 189.731931 
L 882.813412 184.40299 
L 883.631891 182.088546 
L 884.24575 178.737357 
L 884.859609 174.026051 
L 886.291947 160.778943 
L 887.928905 150.719114 
L 889.975102 132.920585 
L 891.61206 120.698267 
L 893.249018 104.673813 
L 894.885976 96.126881 
L 895.295215 95.058062 
L 896.318314 93.632431 
L 896.932173 92.432334 
L 897.136793 92.385863 
L 897.341412 92.732421 
L 897.546032 93.659792 
L 897.750652 95.530831 
L 897.955272 98.896769 
L 898.364511 112.39581 
L 898.77375 137.227111 
L 899.38761 192.619376 
L 899.962121 253 
M 916.230892 253 
L 916.610204 -1 
M 935.811419 -1 
L 936.6284 30.225001 
L 937.446879 53.386533 
L 938.879217 86.332556 
L 939.697696 101.274824 
L 940.516175 111.267876 
L 943.380851 140.846312 
L 944.19933 146.442441 
L 945.017809 150.759574 
L 945.836288 153.903397 
L 947.064006 157.296577 
L 947.882485 160.550329 
L 949.314823 164.943279 
L 950.133302 168.569721 
L 950.747161 170.170996 
L 950.951781 170.434783 
L 951.36102 170.506761 
L 951.77026 170.671512 
L 952.384119 171.055987 
L 953.202598 170.990811 
L 953.611837 171.356917 
L 955.248795 173.350497 
L 955.658034 173.579885 
L 956.067274 173.825572 
L 956.476513 174.716423 
L 957.704232 178.55449 
L 958.113471 178.869158 
L 958.522711 178.798224 
L 958.93195 178.542317 
L 959.545809 177.964349 
L 959.750429 177.943926 
L 959.955049 178.10275 
L 960.568908 179.013671 
L 960.773528 179.079268 
L 961.182767 178.774382 
L 961.592007 178.443011 
L 961.796626 178.424777 
L 962.205866 178.818697 
L 962.819725 179.514154 
L 963.433584 180.067758 
L 964.047443 180.73449 
L 965.070542 181.483437 
L 965.479781 181.795025 
L 966.093641 182.781645 
L 966.29826 182.834194 
L 966.7075 182.397507 
L 966.912119 182.172327 
L 967.116739 182.168909 
L 967.321359 182.47164 
L 968.139838 184.539556 
L 968.549077 184.745204 
L 969.367556 184.584258 
L 969.776796 184.293953 
L 970.186035 184.00087 
L 970.390655 184.047913 
L 971.004514 184.578214 
L 971.209134 184.580302 
L 971.618373 184.229568 
L 972.027613 183.504058 
L 972.846092 181.930867 
L 973.050711 181.767715 
L 973.66457 181.690719 
L 974.27843 180.928285 
L 974.483049 181.12479 
L 975.096909 182.590999 
L 975.915387 184.358894 
L 976.324627 184.691662 
L 976.733866 184.835417 
L 976.938486 185.102252 
L 977.347726 186.165885 
L 977.756965 187.246456 
L 977.961585 187.407217 
L 978.166204 187.230882 
L 978.780064 186.310987 
L 979.189303 186.260812 
L 980.007782 186.679837 
L 980.826261 185.86078 
L 981.2355 185.901795 
L 981.44012 185.739788 
L 981.84936 184.865253 
L 982.258599 183.907491 
L 982.463219 183.703055 
L 982.667838 183.718495 
L 983.895557 184.680432 
L 984.509416 185.167243 
L 984.918655 185.391109 
L 985.327895 186.029066 
L 985.941754 187.332578 
L 986.350994 187.550433 
L 986.760233 187.740372 
L 987.169472 188.168068 
L 987.374092 188.164701 
L 987.578712 187.863384 
L 987.987951 186.495589 
L 988.601811 184.507767 
L 989.01105 183.959754 
L 989.420289 183.937478 
L 990.034149 184.155653 
L 990.852627 184.158128 
L 991.261867 184.18958 
L 991.466487 184.091756 
L 991.875726 183.487035 
L 992.694205 181.699121 
L 992.898825 181.570553 
L 993.103444 181.646522 
L 993.308064 181.936591 
L 993.717304 183.114228 
L 994.331163 184.910056 
L 994.535783 185.08927 
L 994.740402 185.01874 
L 995.149642 184.325455 
L 995.558881 183.632996 
L 995.763501 183.495235 
L 995.968121 183.530222 
L 996.37736 184.09871 
L 996.991219 185.036267 
L 997.809698 185.710357 
L 998.014318 185.770533 
L 998.218938 185.666799 
L 998.628177 184.865269 
L 999.037417 183.92187 
L 999.446656 183.496397 
L 999.855895 183.038428 
L 1000.469755 181.595135 
L 1001.083614 179.650231 
L 1002.515952 173.837712 
L 1002.720572 173.987882 
L 1003.129811 175.443331 
L 1003.74367 177.947883 
L 1004.357529 179.435962 
L 1005.176008 180.319068 
L 1006.608346 183.781533 
L 1007.017586 183.916903 
L 1007.426825 183.88173 
L 1007.631445 184.004406 
L 1008.040685 184.715975 
L 1008.449924 185.572444 
L 1008.859163 185.858894 
L 1009.268403 185.689311 
L 1009.677642 185.397524 
L 1009.882262 185.413216 
L 1010.291502 185.900599 
L 1010.700741 186.314741 
L 1010.905361 186.206597 
L 1011.3146 185.183457 
L 1011.72384 184.103441 
L 1011.928459 183.955359 
L 1012.133079 184.079516 
L 1012.542319 184.843247 
L 1013.156178 186.337808 
L 1013.360797 186.551656 
L 1013.770037 186.562365 
L 1014.383896 186.571507 
L 1014.997755 186.562331 
L 1015.611614 186.433359 
L 1016.225474 186.497643 
L 1016.430093 186.684181 
L 1017.248572 188.079421 
L 1017.657812 188.188037 
L 1018.067051 187.930446 
L 1019.09015 186.917055 
L 1019.499389 186.570581 
L 1020.317868 185.365348 
L 1021.750206 184.957402 
L 1022.568685 185.475648 
L 1022.977925 185.900094 
L 1024.410263 188.318827 
L 1024.819502 188.466876 
L 1025.433361 188.433825 
L 1025.842601 188.782016 
L 1026.25184 189.119027 
L 1026.45646 189.146926 
L 1026.865699 188.878408 
L 1027.274939 188.534948 
L 1028.298038 188.218411 
L 1028.707277 187.808512 
L 1029.116516 187.746501 
L 1029.525756 187.698919 
L 1029.934995 187.288801 
L 1030.344235 186.861055 
L 1030.548854 186.82669 
L 1030.958094 187.184176 
L 1031.776573 188.014733 
L 1031.981193 188.075195 
L 1032.185812 187.947671 
L 1032.799671 186.864338 
L 1034.02739 184.809741 
L 1034.436629 184.555501 
L 1034.641249 184.63716 
L 1035.050488 185.348023 
L 1035.459728 186.140999 
L 1035.664348 186.214291 
L 1036.073587 185.766913 
L 1036.482827 185.181436 
L 1036.892066 184.911218 
L 1037.301305 184.681913 
L 1037.915165 184.257433 
L 1038.119784 184.399404 
L 1038.938263 185.543215 
L 1039.347503 185.642823 
L 1039.756742 185.648481 
L 1040.165982 185.96352 
L 1040.575221 186.439622 
L 1040.779841 186.547397 
L 1040.984461 186.52135 
L 1041.3937 186.152937 
L 1042.007559 185.411987 
L 1042.621418 185.141701 
L 1043.644517 185.071305 
L 1044.258376 185.068274 
L 1044.462996 185.03263 
L 1044.667616 185.117068 
L 1045.486095 186.057134 
L 1045.895334 185.316133 
L 1046.304573 184.658527 
L 1046.713813 184.404623 
L 1046.918433 184.520261 
L 1047.327672 185.348713 
L 1047.941531 186.610115 
L 1048.350771 187.013397 
L 1048.55539 187.055271 
L 1048.76001 186.949264 
L 1049.578489 186.172468 
L 1049.783109 186.236685 
L 1050.192348 186.80923 
L 1050.601588 187.267081 
L 1050.806207 187.24324 
L 1051.215447 186.856879 
L 1051.829306 186.137093 
L 1052.033926 186.04486 
L 1052.443165 186.2168 
L 1052.852405 186.417616 
L 1053.466264 186.401048 
L 1054.080123 186.67556 
L 1054.284743 186.594338 
L 1055.307841 185.581688 
L 1056.12632 185.436603 
L 1058.786377 182.819545 
L 1058.990997 182.947642 
L 1059.400236 183.814433 
L 1059.809475 184.753842 
L 1060.014095 184.966258 
L 1060.218715 184.997946 
L 1060.627954 184.700249 
L 1061.241814 183.998614 
L 1061.651053 183.968728 
L 1062.878771 184.5719 
L 1063.288011 184.450151 
L 1063.69725 184.162203 
L 1063.90187 184.122855 
L 1064.10649 184.217361 
L 1064.515729 184.837051 
L 1065.538828 186.73907 
L 1066.766546 188.379626 
L 1066.971166 188.515687 
L 1067.175786 188.492906 
L 1067.585025 187.971394 
L 1068.198884 187.190473 
L 1069.017363 186.471882 
L 1069.426603 186.225101 
L 1069.631222 186.224932 
L 1069.835842 186.386367 
L 1070.654321 187.623607 
L 1070.858941 187.63967 
L 1071.26818 187.22248 
L 1071.67742 186.539096 
L 1072.495898 184.8386 
L 1072.700518 184.911252 
L 1073.109758 185.71662 
L 1073.723617 186.987181 
L 1075.360575 188.353916 
L 1075.769814 188.377724 
L 1076.179054 188.151568 
L 1076.588293 187.308113 
L 1077.406772 185.180409 
L 1077.816011 184.718046 
L 1078.225251 184.71717 
L 1078.63449 185.281786 
L 1079.04373 186.061461 
L 1079.248349 186.26482 
L 1079.452969 186.301962 
L 1080.066828 185.964934 
L 1080.476068 185.776342 
L 1080.885307 185.867565 
L 1082.113026 186.185483 
L 1082.522265 186.137245 
L 1082.931505 185.96426 
L 1083.136124 186.003457 
L 1084.159223 186.960208 
L 1084.977702 187.060625 
L 1086.0008 187.854662 
L 1086.20542 187.718181 
L 1087.023899 186.603969 
L 1087.433139 186.537092 
L 1087.842378 186.76867 
L 1088.456237 187.404792 
L 1088.865477 187.459193 
L 1090.093195 187.566378 
L 1090.297815 187.617192 
L 1090.502434 187.53799 
L 1090.911674 186.865904 
L 1091.934773 184.609043 
L 1092.344012 184.300183 
L 1093.162491 184.452222 
L 1093.77635 184.128747 
L 1093.98097 184.194109 
L 1094.390209 184.777801 
L 1094.799449 185.365331 
L 1096.027167 186.380541 
L 1096.231787 186.347641 
L 1096.641026 185.939055 
L 1097.254885 184.893522 
L 1097.868745 183.848023 
L 1098.073364 183.71969 
L 1098.277984 183.784681 
L 1099.096463 184.7316 
L 1099.505702 184.696073 
L 1100.119562 184.472814 
L 1100.528801 184.624617 
L 1100.938041 184.780192 
L 1101.14266 184.631267 
L 1102.165759 183.05806 
L 1103.393477 181.885272 
L 1103.598097 181.808798 
L 1104.007336 182.013469 
L 1105.030435 182.758427 
L 1105.235055 182.767603 
L 1105.439675 182.585139 
L 1106.258153 181.220762 
L 1106.872013 181.113981 
L 1107.281252 180.495033 
L 1108.099731 178.716059 
L 1108.71359 177.868125 
L 1109.327449 176.556314 
L 1109.736689 176.162107 
L 1110.145928 175.888908 
L 1110.555168 175.379249 
L 1111.373647 174.14876 
L 1111.782886 174.201898 
L 1111.987506 174.233299 
L 1112.192125 174.110085 
L 1112.601365 173.384962 
L 1113.419844 171.228753 
L 1114.442942 167.380432 
L 1115.056802 163.751516 
L 1115.670661 158.970336 
L 1116.48914 150.195716 
L 1117.307619 141.72206 
L 1118.535337 130.787275 
L 1119.149196 122.827874 
L 1119.763055 110.753335 
L 1120.172295 98.490506 
L 1120.786154 70.444465 
L 1121.400013 26.492924 
L 1121.678899 -1 
M 1124.653447 -1 
L 1125.083168 37.964762 
L 1125.697027 74.456897 
L 1126.310887 97.301791 
L 1127.129366 116.943645 
L 1128.152464 136.495337 
L 1129.175563 151.742355 
L 1129.994042 161.394996 
L 1130.607901 166.49342 
L 1131.42638 171.513569 
L 1132.040239 173.804004 
L 1132.449478 174.852955 
L 1132.858718 175.338065 
L 1133.267957 175.818781 
L 1133.881817 177.435732 
L 1134.291056 178.469008 
L 1134.700295 178.922986 
L 1134.904915 178.897647 
L 1135.723394 178.196163 
L 1135.928014 178.26868 
L 1136.541873 179.041469 
L 1136.951112 179.487837 
L 1137.769591 180.09633 
L 1138.58807 181.48135 
L 1138.99731 181.548765 
L 1139.406549 181.503423 
L 1139.815789 181.724578 
L 1140.225028 182.109929 
L 1140.429648 182.157814 
L 1141.452746 181.804066 
L 1142.271225 181.765105 
L 1142.680465 182.325377 
L 1143.294324 183.355908 
L 1144.522042 184.346485 
L 1145.135901 184.644956 
L 1145.340521 184.66117 
L 1145.749761 184.347394 
L 1146.36362 183.576524 
L 1146.56824 183.604626 
L 1146.977479 184.22349 
L 1147.591338 185.084286 
L 1148.000578 185.490633 
L 1148.614437 185.634253 
L 1149.228296 185.863844 
L 1149.637535 185.896878 
L 1150.456014 185.315813 
L 1151.479113 186.109329 
L 1152.297592 185.717462 
L 1152.706831 186.109615 
L 1153.320691 186.727015 
L 1153.72993 186.841574 
L 1154.139169 186.783166 
L 1154.548409 186.490773 
L 1155.776127 185.262423 
L 1156.389986 185.484184 
L 1156.799226 186.033478 
L 1157.208465 186.697971 
L 1157.413085 186.873885 
L 1157.617705 186.876629 
L 1158.231564 186.304572 
L 1159.254663 185.455915 
L 1159.663902 185.75639 
L 1160.073142 186.146472 
L 1160.482381 186.164706 
L 1160.89162 186.143542 
L 1162.119339 186.485857 
L 1162.733198 187.094164 
L 1162.937818 186.984841 
L 1163.551677 186.361734 
L 1163.960916 186.361044 
L 1164.370156 186.525879 
L 1164.574776 186.359865 
L 1165.188635 185.337095 
L 1165.393254 185.29667 
L 1165.802494 185.666985 
L 1166.416353 186.568342 
L 1167.439452 188.723642 
L 1167.644071 188.765381 
L 1167.848691 188.486677 
L 1168.257931 186.964552 
L 1168.66717 185.144816 
L 1168.87179 184.621098 
L 1169.07641 184.424441 
L 1169.281029 184.515849 
L 1170.917987 187.031884 
L 1171.736466 189.476967 
L 1171.941086 189.76276 
L 1172.145705 189.790609 
L 1172.759565 189.153291 
L 1173.168804 189.337607 
L 1173.578044 189.538355 
L 1173.987283 189.466848 
L 1174.396522 188.948787 
L 1175.419621 187.309831 
L 1176.2381 186.927646 
L 1177.056579 185.930771 
L 1177.261199 185.974245 
L 1178.284297 186.859119 
L 1178.488917 186.635976 
L 1178.898156 185.641392 
L 1179.512016 184.061399 
L 1179.716635 183.818793 
L 1179.921255 183.758584 
L 1181.148973 184.199009 
L 1182.172072 185.779254 
L 1182.785931 186.345722 
L 1183.195171 186.275747 
L 1183.60441 186.115542 
L 1183.80903 186.158847 
L 1184.627509 186.894982 
L 1184.832128 187.092312 
L 1184.832128 187.092312 
" clip-path="url(#p4730843f4f)" style="fill: none; stroke: #000000; stroke-width: 2; stroke-linecap: square"/>
   </g>
   <g id="patch_3">
    <path d="M 3.00024 198.907885 
L 1184.99976 198.907885 
" style="fill: none; stroke: #000000; stroke-width: 2; stroke-linejoin: miter; stroke-linecap: square"/>
   </g>
  </g>
 </g>
 <defs>
  <clipPath id="p4730843f4f">
   <rect x="3.00024" y="3.00024" width="1181.99952" height="195.907645"/>
  </clipPath>
 </defs>
</svg>
