<?xml version="1.0" encoding="utf-8" standalone="no"?>
<!DOCTYPE svg PUBLIC "-//W3C//DTD SVG 1.1//EN"
  "http://www.w3.org/Graphics/SVG/1.1/DTD/svg11.dtd">
<svg xmlns:xlink="http://www.w3.org/1999/xlink" width="1188pt" height="252pt" viewBox="0 0 1188 252" xmlns="http://www.w3.org/2000/svg" version="1.1">
 <metadata>
  <rdf:RDF xmlns:dc="http://purl.org/dc/elements/1.1/" xmlns:cc="http://creativecommons.org/ns#" xmlns:rdf="http://www.w3.org/1999/02/22-rdf-syntax-ns#">
   <cc:Work>
    <dc:type rdf:resource="http://purl.org/dc/dcmitype/StillImage"/>
    <dc:date>2024-07-23T21:43:56.308764</dc:date>
    <dc:format>image/svg+xml</dc:format>
    <dc:creator>
     <cc:Agent>
      <dc:title>Matplotlib v3.8.4, https://matplotlib.org/</dc:title>
     </cc:Agent>
    </dc:creator>
   </cc:Work>
  </rdf:RDF>
 </metadata>
 <defs>
  <style type="text/css">*{stroke-linejoin: round; stroke-linecap: butt}</style>
 </defs>
 <g id="figure_1">
  <g id="patch_1">
   <path d="M 0 252 
L 1188 252 
L 1188 0 
L 0 0 
z
" style="fill: #ffffff"/>
  </g>
  <g id="axes_1">
   <g id="patch_2">
    <path d="M 3.00024 198.907885 
L 1184.99976 198.907885 
L 1184.99976 3.00024 
L 3.00024 3.00024 
z
" style="fill: #ffffff"/>
   </g>
   <g id="matplotlib.axis_1">
    <g id="xtick_1">
     <g id="line2d_1">
      <defs>
       <path id="m600a11e6bc" d="M 0 0 
L 0 8 
" style="stroke: #000000; stroke-width: 2"/>
      </defs>
      <g>
       <use xlink:href="#m600a11e6bc" x="1131.272509" y="198.907885" style="stroke: #000000; stroke-width: 2"/>
      </g>
     </g>
     <g id="text_1">
      <!-- 0 -->
      <g transform="translate(1126.267665 224.791947) scale(0.18 -0.18)">
       <defs>
        <path id="Arial-BoldMT-30" d="M 1756 4600 
Q 2422 4600 2797 4125 
Q 3244 3563 3244 2259 
Q 3244 959 2794 391 
Q 2422 -78 1756 -78 
Q 1088 -78 678 436 
Q 269 950 269 2269 
Q 269 3563 719 4131 
Q 1091 4600 1756 4600 
z
M 1756 3872 
Q 1597 3872 1472 3770 
Q 1347 3669 1278 3406 
Q 1188 3066 1188 2259 
Q 1188 1453 1269 1151 
Q 1350 850 1473 750 
Q 1597 650 1756 650 
Q 1916 650 2041 751 
Q 2166 853 2234 1116 
Q 2325 1453 2325 2259 
Q 2325 3066 2244 3367 
Q 2163 3669 2039 3770 
Q 1916 3872 1756 3872 
z
" transform="scale(0.015625)"/>
       </defs>
       <use xlink:href="#Arial-BoldMT-30"/>
      </g>
     </g>
    </g>
    <g id="xtick_2">
     <g id="line2d_2">
      <g>
       <use xlink:href="#m600a11e6bc" x="1023.818007" y="198.907885" style="stroke: #000000; stroke-width: 2"/>
      </g>
     </g>
     <g id="text_2">
      <!-- 1 -->
      <g transform="translate(1018.813164 224.791947) scale(0.18 -0.18)">
       <defs>
        <path id="Arial-BoldMT-31" d="M 2519 0 
L 1641 0 
L 1641 3309 
Q 1159 2859 506 2644 
L 506 3441 
Q 850 3553 1253 3867 
Q 1656 4181 1806 4600 
L 2519 4600 
L 2519 0 
z
" transform="scale(0.015625)"/>
       </defs>
       <use xlink:href="#Arial-BoldMT-31"/>
      </g>
     </g>
    </g>
    <g id="xtick_3">
     <g id="line2d_3">
      <g>
       <use xlink:href="#m600a11e6bc" x="916.363505" y="198.907885" style="stroke: #000000; stroke-width: 2"/>
      </g>
     </g>
     <g id="text_3">
      <!-- 2 -->
      <g transform="translate(911.358662 224.791947) scale(0.18 -0.18)">
       <defs>
        <path id="Arial-BoldMT-32" d="M 3238 816 
L 3238 0 
L 159 0 
Q 209 463 459 877 
Q 709 1291 1447 1975 
Q 2041 2528 2175 2725 
Q 2356 2997 2356 3263 
Q 2356 3556 2198 3714 
Q 2041 3872 1763 3872 
Q 1488 3872 1325 3706 
Q 1163 3541 1138 3156 
L 263 3244 
Q 341 3969 753 4284 
Q 1166 4600 1784 4600 
Q 2463 4600 2850 4234 
Q 3238 3869 3238 3325 
Q 3238 3016 3127 2736 
Q 3016 2456 2775 2150 
Q 2616 1947 2200 1565 
Q 1784 1184 1673 1059 
Q 1563 934 1494 816 
L 3238 816 
z
" transform="scale(0.015625)"/>
       </defs>
       <use xlink:href="#Arial-BoldMT-32"/>
      </g>
     </g>
    </g>
    <g id="xtick_4">
     <g id="line2d_4">
      <g>
       <use xlink:href="#m600a11e6bc" x="808.909004" y="198.907885" style="stroke: #000000; stroke-width: 2"/>
      </g>
     </g>
     <g id="text_4">
      <!-- 3 -->
      <g transform="translate(803.90416 224.791947) scale(0.18 -0.18)">
       <defs>
        <path id="Arial-BoldMT-33" d="M 241 1216 
L 1091 1319 
Q 1131 994 1309 822 
Q 1488 650 1741 650 
Q 2013 650 2198 856 
Q 2384 1063 2384 1413 
Q 2384 1744 2206 1937 
Q 2028 2131 1772 2131 
Q 1603 2131 1369 2066 
L 1466 2781 
Q 1822 2772 2009 2936 
Q 2197 3100 2197 3372 
Q 2197 3603 2059 3740 
Q 1922 3878 1694 3878 
Q 1469 3878 1309 3722 
Q 1150 3566 1116 3266 
L 306 3403 
Q 391 3819 561 4067 
Q 731 4316 1036 4458 
Q 1341 4600 1719 4600 
Q 2366 4600 2756 4188 
Q 3078 3850 3078 3425 
Q 3078 2822 2419 2463 
Q 2813 2378 3048 2084 
Q 3284 1791 3284 1375 
Q 3284 772 2843 347 
Q 2403 -78 1747 -78 
Q 1125 -78 715 280 
Q 306 638 241 1216 
z
" transform="scale(0.015625)"/>
       </defs>
       <use xlink:href="#Arial-BoldMT-33"/>
      </g>
     </g>
    </g>
    <g id="xtick_5">
     <g id="line2d_5">
      <g>
       <use xlink:href="#m600a11e6bc" x="701.454502" y="198.907885" style="stroke: #000000; stroke-width: 2"/>
      </g>
     </g>
     <g id="text_5">
      <!-- 4 -->
      <g transform="translate(696.449658 224.791947) scale(0.18 -0.18)">
       <defs>
        <path id="Arial-BoldMT-34" d="M 1994 0 
L 1994 922 
L 119 922 
L 119 1691 
L 2106 4600 
L 2844 4600 
L 2844 1694 
L 3413 1694 
L 3413 922 
L 2844 922 
L 2844 0 
L 1994 0 
z
M 1994 1694 
L 1994 3259 
L 941 1694 
L 1994 1694 
z
" transform="scale(0.015625)"/>
       </defs>
       <use xlink:href="#Arial-BoldMT-34"/>
      </g>
     </g>
    </g>
    <g id="xtick_6">
     <g id="line2d_6">
      <g>
       <use xlink:href="#m600a11e6bc" x="594" y="198.907885" style="stroke: #000000; stroke-width: 2"/>
      </g>
     </g>
     <g id="text_6">
      <!-- 5 -->
      <g transform="translate(588.995156 224.791947) scale(0.18 -0.18)">
       <defs>
        <path id="Arial-BoldMT-35" d="M 284 1178 
L 1159 1269 
Q 1197 972 1381 798 
Q 1566 625 1806 625 
Q 2081 625 2272 848 
Q 2463 1072 2463 1522 
Q 2463 1944 2273 2155 
Q 2084 2366 1781 2366 
Q 1403 2366 1103 2031 
L 391 2134 
L 841 4519 
L 3163 4519 
L 3163 3697 
L 1506 3697 
L 1369 2919 
Q 1663 3066 1969 3066 
Q 2553 3066 2959 2641 
Q 3366 2216 3366 1538 
Q 3366 972 3038 528 
Q 2591 -78 1797 -78 
Q 1163 -78 763 262 
Q 363 603 284 1178 
z
" transform="scale(0.015625)"/>
       </defs>
       <use xlink:href="#Arial-BoldMT-35"/>
      </g>
     </g>
    </g>
    <g id="xtick_7">
     <g id="line2d_7">
      <g>
       <use xlink:href="#m600a11e6bc" x="486.545498" y="198.907885" style="stroke: #000000; stroke-width: 2"/>
      </g>
     </g>
     <g id="text_7">
      <!-- 6 -->
      <g transform="translate(481.540654 224.791947) scale(0.18 -0.18)">
       <defs>
        <path id="Arial-BoldMT-36" d="M 3247 3459 
L 2397 3366 
Q 2366 3628 2234 3753 
Q 2103 3878 1894 3878 
Q 1616 3878 1423 3628 
Q 1231 3378 1181 2588 
Q 1509 2975 1997 2975 
Q 2547 2975 2939 2556 
Q 3331 2138 3331 1475 
Q 3331 772 2918 347 
Q 2506 -78 1859 -78 
Q 1166 -78 719 461 
Q 272 1000 272 2228 
Q 272 3488 737 4044 
Q 1203 4600 1947 4600 
Q 2469 4600 2811 4308 
Q 3153 4016 3247 3459 
z
M 1256 1544 
Q 1256 1116 1453 883 
Q 1650 650 1903 650 
Q 2147 650 2309 840 
Q 2472 1031 2472 1466 
Q 2472 1913 2297 2120 
Q 2122 2328 1859 2328 
Q 1606 2328 1431 2129 
Q 1256 1931 1256 1544 
z
" transform="scale(0.015625)"/>
       </defs>
       <use xlink:href="#Arial-BoldMT-36"/>
      </g>
     </g>
    </g>
    <g id="xtick_8">
     <g id="line2d_8">
      <g>
       <use xlink:href="#m600a11e6bc" x="379.090996" y="198.907885" style="stroke: #000000; stroke-width: 2"/>
      </g>
     </g>
     <g id="text_8">
      <!-- 7 -->
      <g transform="translate(374.086153 224.791947) scale(0.18 -0.18)">
       <defs>
        <path id="Arial-BoldMT-37" d="M 272 3703 
L 272 4519 
L 3275 4519 
L 3275 3881 
Q 2903 3516 2518 2831 
Q 2134 2147 1932 1376 
Q 1731 606 1734 0 
L 888 0 
Q 909 950 1279 1937 
Q 1650 2925 2269 3703 
L 272 3703 
z
" transform="scale(0.015625)"/>
       </defs>
       <use xlink:href="#Arial-BoldMT-37"/>
      </g>
     </g>
    </g>
    <g id="xtick_9">
     <g id="line2d_9">
      <g>
       <use xlink:href="#m600a11e6bc" x="271.636495" y="198.907885" style="stroke: #000000; stroke-width: 2"/>
      </g>
     </g>
     <g id="text_9">
      <!-- 8 -->
      <g transform="translate(266.631651 224.791947) scale(0.18 -0.18)">
       <defs>
        <path id="Arial-BoldMT-38" d="M 1025 2472 
Q 684 2616 529 2867 
Q 375 3119 375 3419 
Q 375 3931 733 4265 
Q 1091 4600 1750 4600 
Q 2403 4600 2764 4265 
Q 3125 3931 3125 3419 
Q 3125 3100 2959 2851 
Q 2794 2603 2494 2472 
Q 2875 2319 3073 2025 
Q 3272 1731 3272 1347 
Q 3272 713 2867 316 
Q 2463 -81 1791 -81 
Q 1166 -81 750 247 
Q 259 634 259 1309 
Q 259 1681 443 1992 
Q 628 2303 1025 2472 
z
M 1206 3356 
Q 1206 3094 1354 2947 
Q 1503 2800 1750 2800 
Q 2000 2800 2150 2948 
Q 2300 3097 2300 3359 
Q 2300 3606 2151 3754 
Q 2003 3903 1759 3903 
Q 1506 3903 1356 3753 
Q 1206 3603 1206 3356 
z
M 1125 1394 
Q 1125 1031 1311 828 
Q 1497 625 1775 625 
Q 2047 625 2225 820 
Q 2403 1016 2403 1384 
Q 2403 1706 2222 1901 
Q 2041 2097 1763 2097 
Q 1441 2097 1283 1875 
Q 1125 1653 1125 1394 
z
" transform="scale(0.015625)"/>
       </defs>
       <use xlink:href="#Arial-BoldMT-38"/>
      </g>
     </g>
    </g>
    <g id="xtick_10">
     <g id="line2d_10">
      <g>
       <use xlink:href="#m600a11e6bc" x="164.181993" y="198.907885" style="stroke: #000000; stroke-width: 2"/>
      </g>
     </g>
     <g id="text_10">
      <!-- 9 -->
      <g transform="translate(159.177149 224.791947) scale(0.18 -0.18)">
       <defs>
        <path id="Arial-BoldMT-39" d="M 291 1059 
L 1141 1153 
Q 1172 894 1303 769 
Q 1434 644 1650 644 
Q 1922 644 2112 894 
Q 2303 1144 2356 1931 
Q 2025 1547 1528 1547 
Q 988 1547 595 1964 
Q 203 2381 203 3050 
Q 203 3747 617 4173 
Q 1031 4600 1672 4600 
Q 2369 4600 2816 4061 
Q 3263 3522 3263 2288 
Q 3263 1031 2797 475 
Q 2331 -81 1584 -81 
Q 1047 -81 715 205 
Q 384 491 291 1059 
z
M 2278 2978 
Q 2278 3403 2083 3637 
Q 1888 3872 1631 3872 
Q 1388 3872 1227 3680 
Q 1066 3488 1066 3050 
Q 1066 2606 1241 2398 
Q 1416 2191 1678 2191 
Q 1931 2191 2104 2391 
Q 2278 2591 2278 2978 
z
" transform="scale(0.015625)"/>
       </defs>
       <use xlink:href="#Arial-BoldMT-39"/>
      </g>
     </g>
    </g>
    <g id="xtick_11">
     <g id="line2d_11">
      <g>
       <use xlink:href="#m600a11e6bc" x="56.727491" y="198.907885" style="stroke: #000000; stroke-width: 2"/>
      </g>
     </g>
     <g id="text_11">
      <!-- 10 -->
      <g transform="translate(46.717803 224.791947) scale(0.18 -0.18)">
       <use xlink:href="#Arial-BoldMT-31"/>
       <use xlink:href="#Arial-BoldMT-30" x="55.615234"/>
      </g>
     </g>
    </g>
    <g id="text_12">
     <!-- Chemical Shift / ppm -->
     <g transform="translate(504.992813 245.447573) scale(0.18 -0.18)">
      <defs>
       <path id="Arial-BoldMT-43" d="M 3397 1684 
L 4294 1400 
Q 4088 650 3608 286 
Q 3128 -78 2391 -78 
Q 1478 -78 890 545 
Q 303 1169 303 2250 
Q 303 3394 893 4026 
Q 1484 4659 2447 4659 
Q 3288 4659 3813 4163 
Q 4125 3869 4281 3319 
L 3366 3100 
Q 3284 3456 3026 3662 
Q 2769 3869 2400 3869 
Q 1891 3869 1573 3503 
Q 1256 3138 1256 2319 
Q 1256 1450 1568 1081 
Q 1881 713 2381 713 
Q 2750 713 3015 947 
Q 3281 1181 3397 1684 
z
" transform="scale(0.015625)"/>
       <path id="Arial-BoldMT-68" d="M 1334 4581 
L 1334 2897 
Q 1759 3394 2350 3394 
Q 2653 3394 2897 3281 
Q 3141 3169 3264 2994 
Q 3388 2819 3433 2606 
Q 3478 2394 3478 1947 
L 3478 0 
L 2600 0 
L 2600 1753 
Q 2600 2275 2550 2415 
Q 2500 2556 2373 2639 
Q 2247 2722 2056 2722 
Q 1838 2722 1666 2615 
Q 1494 2509 1414 2295 
Q 1334 2081 1334 1663 
L 1334 0 
L 456 0 
L 456 4581 
L 1334 4581 
z
" transform="scale(0.015625)"/>
       <path id="Arial-BoldMT-65" d="M 2381 1056 
L 3256 909 
Q 3088 428 2723 176 
Q 2359 -75 1813 -75 
Q 947 -75 531 491 
Q 203 944 203 1634 
Q 203 2459 634 2926 
Q 1066 3394 1725 3394 
Q 2466 3394 2894 2905 
Q 3322 2416 3303 1406 
L 1103 1406 
Q 1113 1016 1316 798 
Q 1519 581 1822 581 
Q 2028 581 2168 693 
Q 2309 806 2381 1056 
z
M 2431 1944 
Q 2422 2325 2234 2523 
Q 2047 2722 1778 2722 
Q 1491 2722 1303 2513 
Q 1116 2303 1119 1944 
L 2431 1944 
z
" transform="scale(0.015625)"/>
       <path id="Arial-BoldMT-6d" d="M 394 3319 
L 1203 3319 
L 1203 2866 
Q 1638 3394 2238 3394 
Q 2556 3394 2790 3262 
Q 3025 3131 3175 2866 
Q 3394 3131 3647 3262 
Q 3900 3394 4188 3394 
Q 4553 3394 4806 3245 
Q 5059 3097 5184 2809 
Q 5275 2597 5275 2122 
L 5275 0 
L 4397 0 
L 4397 1897 
Q 4397 2391 4306 2534 
Q 4184 2722 3931 2722 
Q 3747 2722 3584 2609 
Q 3422 2497 3350 2280 
Q 3278 2063 3278 1594 
L 3278 0 
L 2400 0 
L 2400 1819 
Q 2400 2303 2353 2443 
Q 2306 2584 2207 2653 
Q 2109 2722 1941 2722 
Q 1738 2722 1575 2612 
Q 1413 2503 1342 2297 
Q 1272 2091 1272 1613 
L 1272 0 
L 394 0 
L 394 3319 
z
" transform="scale(0.015625)"/>
       <path id="Arial-BoldMT-69" d="M 459 3769 
L 459 4581 
L 1338 4581 
L 1338 3769 
L 459 3769 
z
M 459 0 
L 459 3319 
L 1338 3319 
L 1338 0 
L 459 0 
z
" transform="scale(0.015625)"/>
       <path id="Arial-BoldMT-63" d="M 3353 2338 
L 2488 2181 
Q 2444 2441 2289 2572 
Q 2134 2703 1888 2703 
Q 1559 2703 1364 2476 
Q 1169 2250 1169 1719 
Q 1169 1128 1367 884 
Q 1566 641 1900 641 
Q 2150 641 2309 783 
Q 2469 925 2534 1272 
L 3397 1125 
Q 3263 531 2881 228 
Q 2500 -75 1859 -75 
Q 1131 -75 698 384 
Q 266 844 266 1656 
Q 266 2478 700 2936 
Q 1134 3394 1875 3394 
Q 2481 3394 2839 3133 
Q 3197 2872 3353 2338 
z
" transform="scale(0.015625)"/>
       <path id="Arial-BoldMT-61" d="M 1116 2306 
L 319 2450 
Q 453 2931 781 3162 
Q 1109 3394 1756 3394 
Q 2344 3394 2631 3255 
Q 2919 3116 3036 2902 
Q 3153 2688 3153 2116 
L 3144 1091 
Q 3144 653 3186 445 
Q 3228 238 3344 0 
L 2475 0 
Q 2441 88 2391 259 
Q 2369 338 2359 363 
Q 2134 144 1878 34 
Q 1622 -75 1331 -75 
Q 819 -75 523 203 
Q 228 481 228 906 
Q 228 1188 362 1408 
Q 497 1628 739 1745 
Q 981 1863 1438 1950 
Q 2053 2066 2291 2166 
L 2291 2253 
Q 2291 2506 2166 2614 
Q 2041 2722 1694 2722 
Q 1459 2722 1328 2630 
Q 1197 2538 1116 2306 
z
M 2291 1594 
Q 2122 1538 1756 1459 
Q 1391 1381 1278 1306 
Q 1106 1184 1106 997 
Q 1106 813 1243 678 
Q 1381 544 1594 544 
Q 1831 544 2047 700 
Q 2206 819 2256 991 
Q 2291 1103 2291 1419 
L 2291 1594 
z
" transform="scale(0.015625)"/>
       <path id="Arial-BoldMT-6c" d="M 459 0 
L 459 4581 
L 1338 4581 
L 1338 0 
L 459 0 
z
" transform="scale(0.015625)"/>
       <path id="Arial-BoldMT-20" transform="scale(0.015625)"/>
       <path id="Arial-BoldMT-53" d="M 231 1491 
L 1131 1578 
Q 1213 1125 1461 912 
Q 1709 700 2131 700 
Q 2578 700 2804 889 
Q 3031 1078 3031 1331 
Q 3031 1494 2936 1608 
Q 2841 1722 2603 1806 
Q 2441 1863 1863 2006 
Q 1119 2191 819 2459 
Q 397 2838 397 3381 
Q 397 3731 595 4036 
Q 794 4341 1167 4500 
Q 1541 4659 2069 4659 
Q 2931 4659 3367 4281 
Q 3803 3903 3825 3272 
L 2900 3231 
Q 2841 3584 2645 3739 
Q 2450 3894 2059 3894 
Q 1656 3894 1428 3728 
Q 1281 3622 1281 3444 
Q 1281 3281 1419 3166 
Q 1594 3019 2269 2859 
Q 2944 2700 3267 2529 
Q 3591 2359 3773 2064 
Q 3956 1769 3956 1334 
Q 3956 941 3737 597 
Q 3519 253 3119 86 
Q 2719 -81 2122 -81 
Q 1253 -81 787 320 
Q 322 722 231 1491 
z
" transform="scale(0.015625)"/>
       <path id="Arial-BoldMT-66" d="M 75 3319 
L 563 3319 
L 563 3569 
Q 563 3988 652 4194 
Q 741 4400 980 4529 
Q 1219 4659 1584 4659 
Q 1959 4659 2319 4547 
L 2200 3934 
Q 1991 3984 1797 3984 
Q 1606 3984 1523 3895 
Q 1441 3806 1441 3553 
L 1441 3319 
L 2097 3319 
L 2097 2628 
L 1441 2628 
L 1441 0 
L 563 0 
L 563 2628 
L 75 2628 
L 75 3319 
z
" transform="scale(0.015625)"/>
       <path id="Arial-BoldMT-74" d="M 1981 3319 
L 1981 2619 
L 1381 2619 
L 1381 1281 
Q 1381 875 1398 808 
Q 1416 741 1477 697 
Q 1538 653 1625 653 
Q 1747 653 1978 738 
L 2053 56 
Q 1747 -75 1359 -75 
Q 1122 -75 931 4 
Q 741 84 652 211 
Q 563 338 528 553 
Q 500 706 500 1172 
L 500 2619 
L 97 2619 
L 97 3319 
L 500 3319 
L 500 3978 
L 1381 4491 
L 1381 3319 
L 1981 3319 
z
" transform="scale(0.015625)"/>
       <path id="Arial-BoldMT-2f" d="M -9 -78 
L 1125 4659 
L 1784 4659 
L 638 -78 
L -9 -78 
z
" transform="scale(0.015625)"/>
       <path id="Arial-BoldMT-70" d="M 434 3319 
L 1253 3319 
L 1253 2831 
Q 1413 3081 1684 3237 
Q 1956 3394 2288 3394 
Q 2866 3394 3269 2941 
Q 3672 2488 3672 1678 
Q 3672 847 3265 386 
Q 2859 -75 2281 -75 
Q 2006 -75 1782 34 
Q 1559 144 1313 409 
L 1313 -1263 
L 434 -1263 
L 434 3319 
z
M 1303 1716 
Q 1303 1156 1525 889 
Q 1747 622 2066 622 
Q 2372 622 2575 867 
Q 2778 1113 2778 1672 
Q 2778 2194 2568 2447 
Q 2359 2700 2050 2700 
Q 1728 2700 1515 2451 
Q 1303 2203 1303 1716 
z
" transform="scale(0.015625)"/>
      </defs>
      <use xlink:href="#Arial-BoldMT-43"/>
      <use xlink:href="#Arial-BoldMT-68" x="72.216797"/>
      <use xlink:href="#Arial-BoldMT-65" x="133.300781"/>
      <use xlink:href="#Arial-BoldMT-6d" x="188.916016"/>
      <use xlink:href="#Arial-BoldMT-69" x="277.832031"/>
      <use xlink:href="#Arial-BoldMT-63" x="305.615234"/>
      <use xlink:href="#Arial-BoldMT-61" x="361.230469"/>
      <use xlink:href="#Arial-BoldMT-6c" x="416.845703"/>
      <use xlink:href="#Arial-BoldMT-20" x="444.628906"/>
      <use xlink:href="#Arial-BoldMT-53" x="472.412109"/>
      <use xlink:href="#Arial-BoldMT-68" x="539.111328"/>
      <use xlink:href="#Arial-BoldMT-69" x="600.195312"/>
      <use xlink:href="#Arial-BoldMT-66" x="627.978516"/>
      <use xlink:href="#Arial-BoldMT-74" x="661.279297"/>
      <use xlink:href="#Arial-BoldMT-20" x="694.580078"/>
      <use xlink:href="#Arial-BoldMT-2f" x="722.363281"/>
      <use xlink:href="#Arial-BoldMT-20" x="750.146484"/>
      <use xlink:href="#Arial-BoldMT-70" x="777.929688"/>
      <use xlink:href="#Arial-BoldMT-70" x="839.013672"/>
      <use xlink:href="#Arial-BoldMT-6d" x="900.097656"/>
     </g>
    </g>
   </g>
   <g id="matplotlib.axis_2"/>
   <g id="line2d_12">
    <path d="M 3.020101 188.951838 
L 4.0432 190.805998 
L 4.657059 191.663315 
L 5.680158 192.416815 
L 6.498637 193.698856 
L 6.703257 193.743677 
L 7.112496 193.449023 
L 7.521735 192.613105 
L 7.930975 191.815106 
L 8.135595 191.848952 
L 8.340214 192.26415 
L 8.954074 194.471269 
L 9.158693 194.721975 
L 9.363313 194.609668 
L 9.772552 193.661489 
L 10.795651 190.411071 
L 11.61413 189.327346 
L 12.227989 188.459123 
L 13.660327 185.453659 
L 14.069567 185.114161 
L 14.274186 185.093844 
L 14.478806 185.338982 
L 14.888046 186.627465 
L 15.501905 188.845813 
L 15.911144 189.487489 
L 16.729623 190.046493 
L 17.752722 189.98117 
L 18.366581 189.433716 
L 18.77582 189.493287 
L 19.18506 189.860488 
L 19.594299 190.347129 
L 19.798919 190.415121 
L 20.208159 190.112253 
L 20.617398 189.684216 
L 20.822018 189.638451 
L 21.640497 190.231854 
L 22.049736 190.039107 
L 22.254356 190.051877 
L 22.458976 190.211238 
L 23.686694 191.967886 
L 23.891314 191.981415 
L 24.095933 191.871386 
L 24.914412 190.926635 
L 25.323652 191.008248 
L 25.732891 191.251062 
L 26.142131 191.094141 
L 26.96061 190.618222 
L 27.574469 189.444876 
L 27.779088 189.438111 
L 28.188328 190.535941 
L 28.597567 191.608508 
L 28.802187 191.721919 
L 29.006807 191.520291 
L 29.825286 189.935498 
L 30.029905 189.957402 
L 30.439145 190.59328 
L 30.643765 190.970996 
L 30.848384 191.106243 
L 31.053004 190.906617 
L 31.871483 189.378357 
L 32.280722 189.547013 
L 32.485342 189.457163 
L 32.894582 188.50949 
L 33.303821 187.369024 
L 33.508441 187.067329 
L 33.713061 187.037302 
L 33.91768 187.324662 
L 34.531539 189.384684 
L 34.940779 190.36671 
L 35.554638 190.860622 
L 36.168497 191.465322 
L 36.782356 192.319602 
L 36.986976 192.143652 
L 38.010075 189.789275 
L 38.828554 188.55866 
L 39.033173 188.584959 
L 39.442413 188.916473 
L 39.851652 189.362434 
L 40.056272 189.442299 
L 40.465511 189.169458 
L 40.874751 188.639744 
L 41.69323 187.403031 
L 42.102469 187.125105 
L 42.716328 187.418355 
L 42.920948 187.232005 
L 43.739427 185.662812 
L 43.944047 185.86559 
L 44.762526 187.71363 
L 45.785624 188.100228 
L 46.194864 187.211205 
L 46.604103 186.33196 
L 46.808723 186.335918 
L 47.627202 187.315781 
L 48.036441 187.097632 
L 48.445681 186.895291 
L 48.650301 187.071793 
L 49.26416 188.442119 
L 49.468779 188.535996 
L 49.673399 188.337796 
L 50.082639 187.366608 
L 50.696498 185.702617 
L 51.105737 185.349175 
L 51.924216 185.088046 
L 53.151935 183.975352 
L 53.561174 183.195415 
L 54.584273 180.018856 
L 55.198132 178.744892 
L 55.607371 178.316901 
L 55.811991 178.315014 
L 56.016611 178.550143 
L 56.42585 179.864373 
L 57.858188 186.316429 
L 58.267428 187.365848 
L 59.290526 188.807226 
L 59.495146 188.690939 
L 60.313625 187.784245 
L 60.927484 187.476591 
L 61.132104 187.357312 
L 61.541343 186.727279 
L 62.155203 185.566312 
L 62.359822 185.405525 
L 62.564442 185.433665 
L 62.973681 185.977322 
L 63.587541 187.132192 
L 63.99678 187.343691 
L 64.40602 187.345071 
L 64.610639 187.615289 
L 65.633738 190.627747 
L 65.838358 190.75172 
L 66.042977 190.575655 
L 66.452217 189.385052 
L 66.861456 188.21196 
L 67.066076 188.029245 
L 67.270696 188.134626 
L 67.679935 188.856374 
L 68.089175 189.602672 
L 68.293794 189.734698 
L 68.703034 189.53139 
L 69.316893 188.759207 
L 69.726132 188.390855 
L 70.135372 188.245116 
L 70.953851 187.628335 
L 71.56771 188.336001 
L 72.181569 188.237868 
L 72.590809 188.757044 
L 73.204668 189.684676 
L 73.818527 190.491419 
L 74.023147 190.481893 
L 74.637006 190.156937 
L 75.250865 190.052821 
L 75.660105 189.81355 
L 76.273964 189.288138 
L 76.683203 189.473223 
L 77.092443 189.647793 
L 77.706302 189.449409 
L 78.115541 189.837042 
L 78.320161 190.051394 
L 78.524781 190.096768 
L 78.7294 189.909842 
L 79.547879 188.639836 
L 80.366358 188.265847 
L 80.570978 188.352131 
L 80.980217 188.948916 
L 82.003316 191.147913 
L 82.207936 190.902153 
L 83.026415 188.894983 
L 83.435654 188.983223 
L 84.049513 189.350769 
L 84.458753 189.948751 
L 85.277232 191.579815 
L 85.481851 191.624315 
L 85.686471 191.439046 
L 86.30033 190.189724 
L 87.528049 187.408346 
L 87.732668 187.440467 
L 88.141908 187.955869 
L 88.755767 189.027193 
L 89.165006 189.085751 
L 89.574246 188.844984 
L 90.188105 188.240974 
L 90.597345 188.110927 
L 91.825063 188.539378 
L 92.234302 189.343291 
L 92.643542 190.257164 
L 92.848162 190.456307 
L 93.257401 190.361395 
L 94.07588 189.896704 
L 94.485119 189.452676 
L 95.303598 188.109132 
L 95.508218 188.08801 
L 96.122077 188.417039 
L 96.735936 188.228802 
L 97.349796 188.36612 
L 98.168274 187.656637 
L 98.372894 187.83659 
L 98.986753 188.773932 
L 99.191373 188.752166 
L 99.600613 188.402613 
L 99.805232 188.417384 
L 101.85143 190.388453 
L 102.465289 190.374924 
L 102.669908 190.418066 
L 102.874528 190.306725 
L 103.488387 189.479159 
L 103.693007 189.455828 
L 103.897627 189.619491 
L 104.306866 190.351455 
L 105.329965 192.586461 
L 105.534585 192.72723 
L 106.148444 192.462097 
L 106.557683 192.630638 
L 106.762303 192.538096 
L 107.376162 191.910087 
L 108.399261 191.602847 
L 109.626979 190.422461 
L 110.036219 190.305529 
L 110.445458 189.879839 
L 111.263937 188.544601 
L 111.673176 188.329214 
L 111.877796 188.352982 
L 112.287036 188.932925 
L 112.696275 189.470968 
L 112.900895 189.428217 
L 113.514754 188.988123 
L 113.923993 188.832421 
L 114.333233 188.410988 
L 114.537853 188.435561 
L 114.742472 188.796297 
L 115.356332 190.318874 
L 115.560951 190.352766 
L 116.17481 189.958023 
L 116.58405 190.084366 
L 117.197909 190.354676 
L 117.607148 190.309302 
L 118.221008 190.068122 
L 118.630247 189.98927 
L 119.244106 189.827079 
L 119.448726 189.75697 
L 119.653346 189.487097 
L 120.676444 186.990985 
L 121.290304 186.819384 
L 121.904163 186.309158 
L 122.108782 186.367624 
L 122.518022 186.932726 
L 122.927261 188.265157 
L 123.336501 189.744868 
L 123.541121 190.1016 
L 123.74574 190.109446 
L 124.15498 189.705131 
L 124.359599 189.665993 
L 124.973459 190.138529 
L 125.791938 189.984415 
L 126.201177 190.180475 
L 126.405797 190.045182 
L 127.019656 189.21184 
L 127.428895 189.228338 
L 128.656614 189.483669 
L 129.270473 189.813435 
L 129.884332 190.436289 
L 130.088952 190.403501 
L 130.498191 189.724091 
L 131.11205 188.350566 
L 131.72591 187.639334 
L 132.544389 186.675163 
L 133.772107 186.753072 
L 134.385966 186.946095 
L 134.795206 187.290954 
L 135.204445 188.309978 
L 135.613684 189.513811 
L 135.818304 189.709388 
L 136.022924 189.617904 
L 137.046023 188.360207 
L 137.455262 187.920159 
L 137.864501 187.370887 
L 138.273741 187.270476 
L 138.68298 187.561954 
L 139.29684 188.437885 
L 139.910699 189.507322 
L 140.115318 189.619422 
L 140.729178 189.419704 
L 140.933797 189.589073 
L 141.956896 191.156173 
L 142.161516 191.232724 
L 142.366135 191.163996 
L 142.775375 190.627701 
L 143.184614 190.112897 
L 143.389234 190.071642 
L 143.798474 190.335786 
L 144.207713 190.593533 
L 144.616952 190.786142 
L 145.026192 191.020328 
L 145.435431 190.854409 
L 146.049291 190.504856 
L 146.66315 190.341699 
L 146.867769 190.076589 
L 147.890868 187.824349 
L 148.504727 187.419068 
L 148.913967 186.574315 
L 149.732446 184.301919 
L 149.937065 184.113567 
L 150.141685 184.150727 
L 151.574023 185.421838 
L 151.778643 185.388843 
L 153.62022 183.670988 
L 154.02946 183.741373 
L 154.847939 184.497611 
L 155.257178 184.423085 
L 155.461798 184.532378 
L 156.075657 185.434148 
L 156.280277 185.465923 
L 156.484897 185.234567 
L 157.098756 183.938975 
L 157.303375 183.948776 
L 158.531094 185.240297 
L 158.940333 185.501357 
L 159.144953 185.485067 
L 159.554192 184.809498 
L 159.758812 184.439145 
L 159.963432 184.347615 
L 160.168052 184.64671 
L 160.986531 186.675278 
L 161.19115 186.829439 
L 161.39577 186.816646 
L 162.009629 186.496429 
L 162.214249 186.582805 
L 163.032728 187.422635 
L 163.237348 187.341919 
L 163.646587 186.632827 
L 164.260446 185.180266 
L 164.465066 185.015107 
L 164.874305 185.209096 
L 165.283545 185.411783 
L 165.692784 185.544591 
L 166.511263 186.560256 
L 167.125122 187.549437 
L 167.329742 187.60841 
L 167.943601 187.412718 
L 168.352841 187.70254 
L 169.17132 188.428406 
L 169.785179 188.747012 
L 170.194418 188.608797 
L 170.603658 188.415268 
L 171.422137 188.357331 
L 171.626756 188.203561 
L 172.035996 187.466122 
L 172.649855 186.382741 
L 173.468334 185.126241 
L 173.672954 185.059975 
L 174.082193 185.337625 
L 174.491433 186.03993 
L 175.309911 187.687308 
L 175.719151 188.013139 
L 175.923771 187.842343 
L 177.356109 184.826318 
L 177.765348 183.53772 
L 177.969968 183.519888 
L 178.379207 184.550394 
L 178.788447 185.5884 
L 179.197686 185.865935 
L 179.606926 185.999273 
L 180.016165 186.290498 
L 180.220785 186.312288 
L 180.425405 186.147566 
L 181.243884 184.882736 
L 181.448503 184.832024 
L 181.857743 185.347864 
L 182.062362 185.604208 
L 182.266982 185.614009 
L 182.471602 185.344159 
L 183.290081 183.377807 
L 183.90394 183.002185 
L 184.927039 182.432228 
L 185.336278 182.723131 
L 185.950137 183.204572 
L 186.359377 182.884586 
L 187.382475 181.891769 
L 187.996335 181.921841 
L 188.814813 181.655558 
L 189.019433 181.256098 
L 189.837912 178.909728 
L 190.451771 178.733801 
L 191.884109 177.272106 
L 192.702588 175.984084 
L 193.111828 175.825367 
L 193.930307 175.814622 
L 194.544166 175.374022 
L 195.362645 174.561228 
L 195.771884 174.368619 
L 196.590363 173.032576 
L 196.794983 173.205075 
L 197.613462 174.683567 
L 198.431941 175.038527 
L 198.63656 175.015817 
L 198.84118 174.790099 
L 199.659659 173.170355 
L 200.068898 172.973811 
L 200.273518 172.686474 
L 201.091997 170.552386 
L 201.296617 170.484671 
L 201.501236 170.746214 
L 202.115096 172.436734 
L 202.933575 174.789892 
L 203.342814 175.338174 
L 203.547434 175.310264 
L 204.979772 173.984529 
L 205.593631 172.947282 
L 206.41211 171.214149 
L 207.025969 170.356234 
L 207.435209 169.466153 
L 207.844448 167.87089 
L 208.867547 162.19654 
L 209.686026 158.029557 
L 211.322983 150.309911 
L 211.732223 149.284904 
L 211.936843 149.061555 
L 212.141462 149.115305 
L 212.346082 149.45669 
L 213.369181 152.513003 
L 213.98304 154.273953 
L 214.392279 154.615799 
L 214.801519 154.43764 
L 215.210758 154.268408 
L 215.415378 154.464169 
L 215.824617 155.347095 
L 216.233857 156.485444 
L 217.256955 159.942966 
L 218.075434 162.125764 
L 218.484674 162.462248 
L 219.098533 162.477733 
L 219.303153 162.358155 
L 219.712392 161.624167 
L 220.121632 160.610389 
L 220.326251 160.340424 
L 220.530871 160.293923 
L 221.55397 160.692025 
L 222.577068 162.178432 
L 223.190928 162.379485 
L 223.600167 161.99666 
L 224.214026 161.200686 
L 224.418646 161.154553 
L 224.623266 161.341754 
L 225.237125 162.602235 
L 225.850984 164.325198 
L 226.464843 167.093162 
L 226.874083 168.70101 
L 227.283322 169.468937 
L 228.101801 170.21627 
L 228.306421 170.229386 
L 228.51104 170.025917 
L 228.92028 168.994468 
L 229.329519 167.738427 
L 229.534139 167.381396 
L 229.738759 167.251464 
L 230.147998 167.359791 
L 230.557238 167.725197 
L 230.966477 168.577705 
L 231.580336 169.941658 
L 231.989576 170.309664 
L 232.194195 170.33976 
L 232.398815 170.201706 
L 232.808055 169.48502 
L 233.217294 168.283879 
L 234.035773 164.727373 
L 234.649632 162.211128 
L 234.854252 161.866728 
L 235.058872 161.778719 
L 235.468111 162.032324 
L 235.672731 162.368693 
L 236.08197 163.96957 
L 236.49121 165.839952 
L 236.695829 166.341112 
L 236.900449 166.479281 
L 237.105069 166.225767 
L 237.514308 164.616331 
L 238.332787 160.251655 
L 239.151266 157.375503 
L 239.560506 156.794018 
L 239.969745 156.911847 
L 240.583604 157.209837 
L 240.788224 157.18952 
L 240.992844 156.941644 
L 241.402083 155.825085 
L 242.015942 154.061741 
L 242.220562 153.823322 
L 242.425182 153.87569 
L 242.834421 154.656502 
L 243.44828 155.898714 
L 243.85752 156.143806 
L 244.471379 156.153447 
L 244.880619 156.596762 
L 245.494478 157.691302 
L 246.312957 159.709286 
L 246.722196 160.183479 
L 247.131436 160.272846 
L 247.336055 160.219396 
L 247.540675 160.040616 
L 247.949914 159.175637 
L 248.973013 155.938749 
L 249.177633 155.785348 
L 249.586872 155.732381 
L 249.996112 155.293093 
L 251.42845 153.362289 
L 252.042309 151.85904 
L 252.246929 151.673426 
L 252.451548 151.822663 
L 254.497746 156.171762 
L 254.906985 156.485467 
L 255.316225 156.574305 
L 255.520844 156.529023 
L 255.725464 156.319434 
L 256.134704 155.215966 
L 256.748563 153.074815 
L 257.362422 151.853012 
L 257.567042 151.614178 
L 258.180901 151.519887 
L 258.385521 151.065873 
L 258.79476 149.021934 
L 259.613239 144.16231 
L 261.250197 136.382265 
L 261.659436 134.291112 
L 262.068676 133.440698 
L 262.477915 133.194248 
L 262.887155 133.467987 
L 263.296394 133.584941 
L 263.501014 133.585494 
L 263.705633 133.772166 
L 264.728732 135.627131 
L 265.342591 135.947716 
L 265.751831 136.789456 
L 266.16107 138.366725 
L 266.979549 142.423403 
L 267.388789 143.160888 
L 267.798028 143.594516 
L 268.002648 143.624267 
L 268.207267 143.471257 
L 269.025746 142.060527 
L 269.434986 141.147459 
L 270.048845 138.869473 
L 270.867324 135.816059 
L 272.095042 131.759497 
L 272.504282 129.925515 
L 272.708901 129.495131 
L 272.913521 129.443844 
L 273.118141 129.674349 
L 273.52738 130.856024 
L 274.141239 133.091444 
L 274.550479 133.931366 
L 274.755099 134.023034 
L 274.959718 133.876535 
L 277.210535 130.178293 
L 277.619775 129.824045 
L 278.029014 129.604539 
L 279.256733 127.689543 
L 279.665972 127.367578 
L 280.075212 126.981831 
L 280.279831 126.957419 
L 280.689071 127.253568 
L 281.30293 127.768303 
L 281.50755 127.825619 
L 281.712169 127.73945 
L 281.916789 127.41806 
L 282.326029 125.81907 
L 283.553747 118.213755 
L 284.167606 117.05548 
L 284.576846 115.407941 
L 285.190705 111.340312 
L 286.213803 103.559139 
L 286.418423 102.853981 
L 286.623043 102.772966 
L 286.827663 103.200382 
L 287.441522 105.211072 
L 287.646141 105.341442 
L 287.850761 105.057855 
L 288.260001 103.478147 
L 288.87386 100.447535 
L 289.283099 99.419859 
L 289.487719 99.311855 
L 289.692339 99.463944 
L 290.101578 100.402782 
L 291.329297 104.572917 
L 291.533916 104.638976 
L 291.943156 103.963361 
L 292.761635 102.084628 
L 294.807832 93.83407 
L 295.217071 93.364525 
L 295.626311 93.306427 
L 296.24017 93.454997 
L 296.44479 93.317587 
L 296.649409 93.328194 
L 296.854029 93.695418 
L 297.467888 96.200918 
L 298.286367 99.486447 
L 298.695607 100.281709 
L 299.104846 100.592814 
L 299.309466 100.490055 
L 299.923325 99.460562 
L 300.127945 99.453314 
L 300.537184 100.172692 
L 300.946424 100.810939 
L 301.151043 100.728452 
L 301.560283 99.914783 
L 302.788001 96.799475 
L 303.40186 94.438725 
L 303.8111 92.187659 
L 304.220339 88.876543 
L 305.038818 79.218201 
L 306.675776 59.571039 
L 308.108114 47.55266 
L 308.517354 45.865085 
L 308.721973 45.433182 
L 308.926593 45.285395 
L 309.131213 45.454926 
L 309.335832 46.051435 
L 309.745072 48.822689 
L 310.358931 56.29301 
L 311.38203 69.779481 
L 311.995889 74.843424 
L 312.609748 78.478093 
L 312.814368 78.722817 
L 313.223607 78.226236 
L 313.632847 77.909332 
L 314.042086 78.034133 
L 314.860565 78.337669 
L 315.065185 78.093106 
L 315.269805 77.544639 
L 315.679044 75.410758 
L 316.702143 68.375492 
L 317.316002 66.133699 
L 317.929861 64.909135 
L 318.3391 64.414303 
L 318.54372 64.5796 
L 319.566819 66.91053 
L 319.976058 67.107142 
L 320.385298 66.935242 
L 320.794537 66.62554 
L 320.999157 66.674043 
L 321.203777 67.090438 
L 321.613016 69.138449 
L 323.045354 78.925941 
L 323.454594 80.011484 
L 323.659213 80.090198 
L 324.068453 79.805576 
L 324.477692 79.556618 
L 324.886932 79.41884 
L 325.091551 79.211713 
L 325.500791 78.251638 
L 327.342368 70.988191 
L 329.593185 57.307064 
L 330.411664 50.969433 
L 331.844002 38.926825 
L 334.094819 21.99252 
L 334.913298 13.844031 
L 335.731777 5.434435 
L 336.141017 3.479173 
L 336.345636 3.058959 
L 336.550256 3.00024 
L 336.754876 3.277269 
L 337.164115 4.500958 
L 337.573355 6.786745 
L 337.982594 10.519478 
L 340.028792 33.948291 
L 340.642651 37.542671 
L 341.46113 41.794832 
L 342.484228 48.889163 
L 342.893468 50.245752 
L 343.302707 50.628784 
L 343.507327 50.694889 
L 343.711947 50.928499 
L 344.121186 52.01754 
L 344.939665 54.21136 
L 345.553524 56.11423 
L 346.372003 58.809624 
L 346.781243 59.690962 
L 346.985862 59.914494 
L 347.804341 60.112165 
L 348.213581 60.92749 
L 349.236679 63.248113 
L 349.645919 63.775641 
L 350.055158 64.069742 
L 350.873637 65.138604 
L 351.078257 64.985226 
L 351.896736 63.66453 
L 352.101355 63.917814 
L 352.715215 65.637371 
L 353.738313 69.097746 
L 354.147553 69.332162 
L 354.761412 69.23366 
L 355.375271 69.039303 
L 355.78451 69.252459 
L 356.39837 69.866041 
L 357.012229 70.694619 
L 357.216849 70.621312 
L 357.626088 69.834403 
L 358.239947 68.536003 
L 358.444567 68.499557 
L 359.263046 69.1211 
L 359.467666 69.533514 
L 359.876905 71.398995 
L 360.900004 78.133417 
L 361.513863 79.889628 
L 361.718483 80.089692 
L 361.923102 80.006537 
L 362.332342 79.546218 
L 362.946201 79.284744 
L 363.150821 78.811517 
L 363.9693 76.135612 
L 364.378539 75.466003 
L 364.787778 74.178808 
L 366.629356 66.166027 
L 367.447835 64.002602 
L 367.652455 64.228919 
L 367.857074 65.127445 
L 368.266314 68.677578 
L 369.698652 84.384581 
L 371.33561 95.2425 
L 371.744849 96.279034 
L 371.949469 96.394033 
L 372.358708 95.957781 
L 372.767948 95.552983 
L 373.381807 95.123566 
L 373.791046 94.537273 
L 374.200286 93.495608 
L 375.018765 90.381657 
L 375.632624 87.637254 
L 376.451103 82.659272 
L 377.064962 77.00349 
L 377.883441 69.540693 
L 378.4973 63.557262 
L 379.111159 54.681641 
L 379.929638 42.339272 
L 380.338878 39.231005 
L 380.748117 37.939001 
L 380.952737 37.73146 
L 381.157357 37.866845 
L 381.361976 38.482268 
L 381.771216 41.455909 
L 382.589695 51.32246 
L 383.408174 64.396816 
L 385.045131 91.359955 
L 386.27285 106.822694 
L 387.091329 112.998136 
L 387.705188 118.616229 
L 388.728286 128.968685 
L 389.137526 131.438175 
L 390.365244 136.444481 
L 391.388343 141.548944 
L 392.206822 144.584802 
L 392.616061 145.396814 
L 392.820681 145.456109 
L 393.22992 145.050413 
L 393.63916 144.689908 
L 393.84378 144.804378 
L 394.457639 145.778051 
L 394.662259 145.783113 
L 395.276118 144.876718 
L 395.480737 144.94211 
L 395.889977 145.962422 
L 396.299216 146.937982 
L 396.708456 147.147503 
L 396.913076 147.250537 
L 397.117695 147.518385 
L 397.526935 148.68966 
L 397.936174 149.85279 
L 398.140794 149.940754 
L 398.550033 149.349974 
L 399.163893 147.929718 
L 399.573132 147.061932 
L 399.982371 146.754808 
L 400.391611 146.449317 
L 400.80085 145.66954 
L 401.21009 144.164473 
L 402.233188 138.983644 
L 403.256287 132.97465 
L 403.870146 129.735806 
L 404.484005 127.732754 
L 404.893245 127.08765 
L 405.097865 127.056081 
L 405.302484 127.21986 
L 405.507104 127.638877 
L 405.916344 129.584751 
L 406.530203 135.011525 
L 407.144062 139.827293 
L 407.553301 141.215359 
L 409.190259 145.125308 
L 409.804118 146.140581 
L 410.827217 148.56555 
L 411.236456 148.871754 
L 411.441076 148.833582 
L 412.668795 147.975069 
L 412.873414 148.021133 
L 413.282654 148.72491 
L 413.691893 149.303334 
L 414.101133 149.442378 
L 414.510372 150.11247 
L 414.919612 151.284205 
L 415.533471 153.904773 
L 416.35195 157.926638 
L 416.965809 160.292335 
L 418.398147 167.517264 
L 419.625865 171.886105 
L 420.035105 172.34624 
L 420.444344 173.319223 
L 421.058203 174.733473 
L 421.672063 175.769754 
L 422.081302 176.432783 
L 422.695161 177.913713 
L 423.30902 179.351134 
L 423.51364 179.68702 
L 423.71826 179.771118 
L 423.92288 179.402628 
L 424.332119 177.301282 
L 424.741358 175.346756 
L 424.945978 174.906064 
L 425.150598 174.799026 
L 425.559837 175.254398 
L 425.969077 176.000673 
L 426.992175 178.230571 
L 427.606035 179.332957 
L 428.219894 179.709108 
L 429.038373 180.136501 
L 430.470711 181.136612 
L 431.28919 181.123911 
L 431.903049 180.753443 
L 432.107669 180.982152 
L 432.926147 182.919927 
L 433.130767 182.910724 
L 434.358486 181.9879 
L 434.563105 182.17402 
L 435.176964 183.237452 
L 435.381584 183.151352 
L 435.790824 182.790548 
L 435.995443 182.834978 
L 436.404683 183.474997 
L 437.018542 184.723537 
L 437.427781 184.818242 
L 437.837021 184.882299 
L 439.269359 185.43088 
L 439.678598 185.34363 
L 440.497077 184.609918 
L 440.906317 184.677749 
L 441.315556 185.157487 
L 441.929415 186.175683 
L 442.338655 186.646356 
L 443.157134 188.010723 
L 443.770993 188.301971 
L 443.975613 188.309633 
L 444.589472 187.928051 
L 444.794092 188.033064 
L 445.203331 188.900551 
L 445.612571 189.897418 
L 446.02181 190.347819 
L 446.431049 190.287306 
L 447.044909 189.902664 
L 448.272627 188.871859 
L 448.886486 189.291037 
L 449.295726 189.075006 
L 449.500345 188.968474 
L 449.704965 188.999674 
L 450.114205 189.460591 
L 450.523444 190.398416 
L 451.137303 191.994001 
L 451.546543 192.361041 
L 452.365022 192.399696 
L 452.774261 192.680245 
L 452.978881 192.660504 
L 453.38812 192.086543 
L 453.79736 191.649372 
L 454.206599 191.587914 
L 454.615839 191.84014 
L 455.025078 192.075775 
L 455.434317 191.816854 
L 456.252796 190.944697 
L 456.662036 190.207602 
L 456.866656 190.060552 
L 457.071275 190.142993 
L 458.094374 191.423791 
L 459.117473 194.482957 
L 459.322092 194.668157 
L 459.526712 194.687462 
L 459.935951 194.381304 
L 460.345191 194.025078 
L 460.75443 193.782815 
L 461.36829 193.304135 
L 461.777529 193.685073 
L 462.186768 194.048018 
L 462.391388 194.077009 
L 462.596008 193.958881 
L 463.414487 192.722559 
L 464.437585 191.014184 
L 464.846825 191.09582 
L 465.256064 191.443073 
L 465.665304 191.837747 
L 465.869923 191.690926 
L 466.688402 190.107697 
L 466.893022 190.113587 
L 467.097642 190.266851 
L 467.506881 190.992809 
L 467.916121 191.788323 
L 468.32536 192.105365 
L 469.348459 192.231201 
L 469.757698 192.746189 
L 470.166938 193.144637 
L 470.371557 193.198455 
L 470.576177 193.396333 
L 471.394656 195.006229 
L 471.599276 194.918196 
L 472.213135 194.014839 
L 473.236234 192.358418 
L 473.440853 192.282189 
L 474.463952 192.564441 
L 475.077811 193.425347 
L 475.282431 193.484503 
L 475.89629 193.354295 
L 476.30553 193.680517 
L 476.714769 194.212624 
L 477.328628 195.467859 
L 477.533248 195.64756 
L 477.737868 195.660146 
L 478.147107 195.29987 
L 478.760966 194.508659 
L 479.784065 193.72267 
L 479.988685 193.814522 
L 480.602544 194.371134 
L 480.807164 194.311218 
L 481.011783 194.010651 
L 482.034882 191.467393 
L 482.648741 190.573837 
L 483.2626 189.971944 
L 483.67184 189.468989 
L 483.876459 189.461488 
L 484.081079 189.693696 
L 485.104178 191.916484 
L 485.513417 192.980951 
L 486.127276 194.983703 
L 486.331896 195.337927 
L 486.536516 195.397774 
L 486.945755 194.854323 
L 487.150375 194.597243 
L 487.354995 194.527664 
L 487.764234 194.639074 
L 488.173474 194.566411 
L 488.378093 194.698069 
L 488.787333 195.195087 
L 488.991953 195.23273 
L 489.401192 194.752577 
L 490.424291 193.074344 
L 490.83353 192.98546 
L 491.447389 193.23497 
L 491.856629 193.821862 
L 492.265868 194.590064 
L 492.470488 194.706697 
L 493.084347 194.514595 
L 493.493587 194.587603 
L 493.902826 194.140422 
L 494.312066 193.74821 
L 494.721305 193.737373 
L 495.130544 194.170219 
L 495.744404 195.234548 
L 495.949023 195.342092 
L 496.153643 195.195248 
L 496.767502 194.135107 
L 496.972122 194.072039 
L 497.381361 194.390024 
L 498.19984 195.078822 
L 498.40446 195.035611 
L 498.8137 194.737092 
L 499.018319 194.770294 
L 499.427559 195.226771 
L 500.041418 196.024885 
L 500.450657 196.172856 
L 501.473756 196.119429 
L 501.678376 196.250765 
L 502.292235 196.952862 
L 502.701474 196.868557 
L 503.110714 196.650938 
L 503.929193 195.884806 
L 504.543052 196.01338 
L 504.747672 195.717484 
L 505.361531 193.625917 
L 505.77077 192.433013 
L 506.18001 191.871777 
L 506.384629 191.768489 
L 506.589249 191.829187 
L 506.793869 192.135806 
L 507.612348 194.16778 
L 508.021587 194.514204 
L 508.635446 194.765232 
L 509.044686 194.596277 
L 509.453925 194.072591 
L 510.272404 192.959874 
L 510.477024 192.933805 
L 510.886263 193.313661 
L 511.295503 193.785162 
L 511.500123 193.801913 
L 512.523221 193.006583 
L 513.54632 191.625442 
L 513.75094 191.615341 
L 514.364799 192.150025 
L 514.774038 192.042481 
L 515.183278 191.940781 
L 515.592517 192.168962 
L 516.001757 192.809349 
L 516.615616 194.367751 
L 517.229475 195.841848 
L 517.638714 196.314247 
L 517.843334 196.163606 
L 518.252574 194.821305 
L 518.866433 192.624195 
L 519.684912 190.807402 
L 520.503391 189.019554 
L 520.91263 188.55323 
L 521.11725 188.608681 
L 521.526489 189.446302 
L 522.140348 190.856894 
L 522.549588 191.108153 
L 522.958827 191.193747 
L 523.368067 191.571532 
L 523.777306 192.549853 
L 524.595785 195.431068 
L 525.005025 195.881769 
L 525.823503 196.443212 
L 526.846602 195.919757 
L 527.255842 195.784625 
L 527.460461 195.570549 
L 527.869701 194.585233 
L 528.48356 192.68961 
L 529.711278 189.670318 
L 530.120518 188.653963 
L 530.325137 188.520649 
L 530.529757 188.722323 
L 531.552856 190.760325 
L 532.166715 191.714579 
L 533.189814 193.953934 
L 533.394433 194.010996 
L 534.008293 193.856237 
L 534.417532 194.133128 
L 534.622152 194.07411 
L 535.031391 193.198777 
L 535.440631 192.411293 
L 535.84987 192.151406 
L 536.05449 192.201427 
L 536.25911 192.467366 
L 537.077588 194.55302 
L 537.282208 194.57313 
L 537.486828 194.198152 
L 538.100687 192.58791 
L 538.509927 192.299584 
L 538.919166 192.340977 
L 539.328405 192.448222 
L 539.533025 192.399259 
L 539.942265 191.871823 
L 541.169983 189.474074 
L 541.579222 188.929773 
L 542.397701 187.170594 
L 542.806941 186.631331 
L 543.01156 186.640995 
L 543.830039 187.647502 
L 544.648518 188.085019 
L 545.057758 188.284162 
L 545.671617 188.192471 
L 546.285476 187.866364 
L 546.490096 187.929547 
L 546.899335 188.45291 
L 547.513194 189.288875 
L 548.127054 189.639762 
L 548.536293 189.93062 
L 549.354772 190.784048 
L 549.764011 190.692196 
L 550.173251 190.617554 
L 550.78711 190.94021 
L 550.99173 190.852086 
L 551.19635 190.518109 
L 551.810209 188.867533 
L 552.014828 188.676052 
L 552.219448 188.701385 
L 552.424068 188.912999 
L 552.833307 189.941319 
L 553.242547 191.22 
L 553.447167 191.536282 
L 553.856406 191.63009 
L 554.265645 191.532808 
L 554.470265 191.255963 
L 554.879505 190.011105 
L 555.902603 186.516861 
L 556.925702 183.416025 
L 557.130322 183.309286 
L 557.539561 183.750692 
L 558.35804 184.503041 
L 559.381139 185.348002 
L 559.790378 185.742653 
L 560.199618 185.604507 
L 560.404237 185.518085 
L 560.608857 185.575078 
L 561.018096 186.113628 
L 561.427336 186.58529 
L 561.631956 186.569022 
L 562.041195 185.984869 
L 562.450435 185.231507 
L 562.859674 184.927535 
L 563.268913 184.601014 
L 563.678153 184.118468 
L 563.882773 184.064604 
L 564.905871 184.517997 
L 565.110491 184.509484 
L 565.315111 184.343611 
L 566.542829 182.081087 
L 567.156688 180.565551 
L 567.361308 180.617551 
L 568.179787 182.143741 
L 568.384407 182.035506 
L 568.998266 181.165005 
L 569.612125 180.998627 
L 570.635224 180.708966 
L 571.044463 180.804154 
L 571.453703 180.946212 
L 571.658322 180.879785 
L 571.862942 180.609728 
L 572.272181 179.354217 
L 573.09066 176.083621 
L 573.29528 175.875688 
L 574.113759 176.144203 
L 574.522998 176.067652 
L 574.932238 176.62049 
L 575.341477 177.313914 
L 575.750717 177.52394 
L 576.159956 177.658106 
L 576.773815 178.069438 
L 576.978435 178.063801 
L 577.387675 177.725039 
L 577.796914 176.961737 
L 578.615393 175.123546 
L 579.024632 174.98701 
L 579.433872 174.879512 
L 579.843111 174.33995 
L 581.275449 171.259845 
L 581.684689 170.840713 
L 582.298548 170.647874 
L 582.503168 170.833465 
L 584.140126 174.24865 
L 584.549365 175.182817 
L 584.753985 175.349655 
L 584.958604 175.259184 
L 585.777083 174.428189 
L 586.390943 174.124539 
L 586.800182 173.469219 
L 587.209421 172.846479 
L 587.618661 172.836816 
L 588.0279 172.806559 
L 588.64176 172.310553 
L 588.846379 172.287728 
L 589.869478 172.623016 
L 590.278717 172.164722 
L 590.687957 171.061944 
L 591.301816 169.16478 
L 591.711055 168.67501 
L 591.915675 168.793254 
L 592.938774 170.394636 
L 593.143394 170.176948 
L 593.552633 169.06575 
L 593.961872 167.955264 
L 594.371112 167.58873 
L 594.984971 167.349736 
L 595.394211 167.591768 
L 595.80345 167.897719 
L 596.00807 167.886582 
L 596.417309 167.498213 
L 597.235788 166.333173 
L 597.849647 164.395306 
L 598.258887 163.301043 
L 598.668126 162.918517 
L 599.077366 163.076866 
L 599.281985 163.153624 
L 599.486605 163.012831 
L 599.691225 162.490848 
L 600.100464 160.341943 
L 601.532802 151.108784 
L 602.146662 145.332573 
L 603.16976 134.558615 
L 603.783619 130.856208 
L 604.602098 127.781855 
L 605.011338 126.346414 
L 605.215957 126.013197 
L 605.420577 126.145936 
L 605.829817 127.453194 
L 606.443676 130.220974 
L 607.057535 133.186701 
L 607.466774 133.944435 
L 607.876014 134.174134 
L 608.694493 134.34447 
L 609.103732 134.630104 
L 609.308352 134.591564 
L 609.512972 134.241021 
L 610.126831 131.888646 
L 611.14993 127.498729 
L 611.354549 127.150441 
L 611.559169 127.172185 
L 611.968408 127.948257 
L 612.786887 130.071093 
L 612.991507 130.291658 
L 613.196127 130.270536 
L 614.219225 129.418488 
L 614.423845 129.579897 
L 614.833085 130.480631 
L 615.446944 132.198647 
L 615.651564 132.362563 
L 616.265423 132.461571 
L 616.470042 132.70434 
L 617.493141 134.789511 
L 617.90238 135.042748 
L 618.31162 135.958301 
L 619.539338 139.656083 
L 619.948578 140.455002 
L 620.562437 141.000317 
L 620.971676 141.237563 
L 621.380916 142.141887 
L 621.790155 143.235161 
L 621.994775 143.406026 
L 622.199395 143.223404 
L 622.608634 142.527702 
L 622.813254 142.441212 
L 623.222493 142.780526 
L 623.631733 143.53207 
L 625.064071 146.988971 
L 625.47331 147.657429 
L 626.701029 148.995427 
L 627.110268 149.947311 
L 627.519508 151.530724 
L 627.928747 154.43504 
L 628.747226 160.953016 
L 629.565705 164.646427 
L 629.974944 165.519666 
L 631.202663 167.757088 
L 631.611902 168.470851 
L 631.816522 168.536565 
L 632.021142 168.364572 
L 633.04424 166.779181 
L 633.45348 166.706909 
L 633.658099 166.710153 
L 633.862719 166.598284 
L 634.067339 166.260051 
L 634.885818 163.996422 
L 635.090438 164.093083 
L 635.499677 164.450459 
L 635.704297 164.368662 
L 636.113536 164.029095 
L 636.318156 164.16448 
L 636.727395 165.447441 
L 637.341255 167.570484 
L 637.545874 167.847628 
L 637.750494 167.935937 
L 638.159733 167.786148 
L 639.387452 166.819423 
L 639.796691 166.927474 
L 640.41055 167.193619 
L 640.61517 167.107543 
L 640.81979 166.853362 
L 641.229029 165.764344 
L 641.638269 164.674176 
L 641.842889 164.493233 
L 642.252128 164.46928 
L 642.661367 163.990577 
L 643.889086 162.182942 
L 644.502945 160.908287 
L 644.707565 160.780518 
L 645.116804 161.052807 
L 646.139903 162.147577 
L 646.753762 163.402651 
L 646.958382 163.469055 
L 647.163001 163.31846 
L 647.572241 162.537787 
L 648.59534 160.121079 
L 649.413818 156.614341 
L 649.823058 155.999907 
L 650.027678 155.724604 
L 650.436917 154.549372 
L 651.050776 152.140095 
L 652.073875 149.138682 
L 652.483114 146.798801 
L 653.301593 140.093093 
L 654.938551 126.3902 
L 656.780129 105.707515 
L 657.598607 101.177657 
L 658.007847 99.746933 
L 658.212467 99.378397 
L 658.417086 99.384149 
L 658.621706 99.873413 
L 659.030946 102.108097 
L 659.440185 105.328027 
L 660.054044 112.465292 
L 661.691002 132.903598 
L 662.714101 143.251107 
L 663.32796 147.676342 
L 663.941819 150.826625 
L 665.169537 156.177169 
L 666.192636 161.450426 
L 666.397256 161.833227 
L 666.601875 161.795446 
L 667.011115 161.250224 
L 667.215735 161.195233 
L 668.443453 162.454057 
L 668.852692 163.488014 
L 669.875791 166.886426 
L 670.69427 169.008526 
L 670.89889 169.268597 
L 671.103509 169.294137 
L 671.512749 168.884922 
L 673.149707 165.90111 
L 673.558946 165.64594 
L 673.968186 165.491526 
L 674.377425 165.277404 
L 674.786665 165.351976 
L 675.195904 165.607537 
L 676.014383 166.543775 
L 676.219003 166.490532 
L 676.832862 165.765702 
L 677.242101 165.379472 
L 677.85596 165.061556 
L 678.06058 164.841774 
L 678.46982 163.872978 
L 679.083679 162.10616 
L 679.697538 160.860474 
L 680.106777 159.502435 
L 680.925256 156.46301 
L 681.334496 155.955615 
L 681.539116 155.9295 
L 681.743735 156.02004 
L 681.948355 156.278156 
L 682.766834 158.301846 
L 682.971454 158.327662 
L 683.585313 157.76967 
L 683.994552 157.849949 
L 684.608411 158.358863 
L 685.017651 158.434286 
L 685.222271 158.361095 
L 685.42689 158.095179 
L 685.83613 156.818914 
L 686.859228 152.405114 
L 687.268468 151.563351 
L 687.677707 150.793929 
L 688.086947 149.251518 
L 688.496186 146.624645 
L 689.110045 140.483511 
L 690.542384 124.441634 
L 690.747003 124.334228 
L 690.951623 125.121321 
L 691.565482 130.171022 
L 692.588581 137.891014 
L 693.20244 141.309006 
L 694.839398 147.073207 
L 695.044017 147.19971 
L 695.657877 147.136159 
L 696.271736 147.651884 
L 696.476356 147.540405 
L 696.885595 146.578006 
L 697.294834 144.763629 
L 698.522553 137.81727 
L 699.136412 131.609478 
L 699.954891 123.41359 
L 700.159511 122.391298 
L 700.36413 122.209688 
L 700.56875 122.976625 
L 700.97799 127.186198 
L 702.205708 143.953803 
L 702.819567 149.074924 
L 703.228807 150.841742 
L 703.638046 151.853771 
L 703.842666 151.981885 
L 704.456525 151.773654 
L 704.865764 151.341774 
L 705.888863 149.714391 
L 706.707342 149.292014 
L 706.911962 149.202578 
L 707.116581 148.961328 
L 708.3443 146.009959 
L 708.958159 144.41067 
L 709.367398 143.9157 
L 709.572018 143.972785 
L 709.776638 144.41304 
L 710.595117 147.290642 
L 710.799736 147.278286 
L 711.208976 146.324654 
L 712.436694 142.242022 
L 712.641314 142.141105 
L 712.845934 142.223523 
L 713.255173 142.940047 
L 713.869032 144.53126 
L 714.687511 147.283164 
L 715.096751 147.974908 
L 716.119849 149.096414 
L 716.529089 150.117233 
L 717.961427 154.942941 
L 718.166047 155.31953 
L 718.370666 155.399855 
L 718.984526 155.207453 
L 719.393765 155.180095 
L 721.030723 153.846814 
L 721.644582 152.947483 
L 722.053821 152.41885 
L 722.463061 152.335787 
L 723.28154 152.759085 
L 723.690779 152.294532 
L 724.100019 151.787689 
L 724.713878 151.711483 
L 725.123117 151.024272 
L 725.532357 150.446032 
L 725.736977 150.584293 
L 726.146216 151.741947 
L 726.760075 154.271077 
L 727.169315 155.021057 
L 727.783174 155.459609 
L 728.397033 156.173649 
L 728.601653 156.10377 
L 729.010892 155.485241 
L 729.829371 154.104837 
L 730.64785 153.330583 
L 731.057089 153.112158 
L 731.466329 152.516891 
L 731.875568 151.842013 
L 732.284808 151.593194 
L 732.694047 151.95172 
L 733.103287 152.276999 
L 733.512526 152.233328 
L 733.921766 151.781891 
L 734.331005 151.361286 
L 734.944864 151.174705 
L 735.354104 150.734404 
L 735.763343 150.048413 
L 736.786442 147.565278 
L 736.991061 147.497838 
L 737.195681 147.627425 
L 737.604921 148.400207 
L 738.628019 151.378934 
L 739.037259 151.56411 
L 739.446498 151.720894 
L 739.855738 151.866334 
L 741.083456 151.57168 
L 741.492695 150.65309 
L 742.106555 149.022946 
L 742.311174 148.771296 
L 742.925034 148.648474 
L 743.129653 148.345652 
L 743.538893 146.863111 
L 745.994329 135.109543 
L 746.198949 134.746185 
L 746.403569 134.659855 
L 746.812808 135.149303 
L 747.222048 136.041248 
L 747.631287 137.612972 
L 748.654386 142.803466 
L 749.063625 143.847271 
L 749.472865 144.44049 
L 750.291344 145.046456 
L 750.495963 145.037804 
L 750.905203 144.626748 
L 751.723682 143.315325 
L 751.928302 143.275059 
L 752.337541 143.490193 
L 752.542161 143.381223 
L 753.15602 142.632716 
L 753.769879 142.611893 
L 753.974499 142.330193 
L 754.383738 141.209285 
L 755.611457 137.02263 
L 756.225316 134.052991 
L 756.429936 133.648308 
L 756.634555 133.664116 
L 756.839175 134.054234 
L 757.453034 136.405642 
L 758.066893 138.605398 
L 758.476133 139.411842 
L 759.294612 140.324886 
L 759.703851 140.584405 
L 760.113091 140.583646 
L 760.52233 140.296838 
L 761.545429 138.964776 
L 762.363908 138.37234 
L 762.977767 138.675161 
L 763.182387 138.470565 
L 764.410105 136.223204 
L 764.614725 136.26393 
L 764.819344 136.593534 
L 765.228584 137.970786 
L 765.637823 139.462071 
L 765.842443 139.823681 
L 766.047063 139.919467 
L 766.865542 139.685396 
L 767.479401 139.343712 
L 767.88864 138.743038 
L 768.29788 137.989377 
L 768.502499 137.967979 
L 769.116359 138.547231 
L 769.525598 138.157527 
L 769.934838 137.88487 
L 770.957936 138.267349 
L 771.367176 138.924971 
L 771.981035 140.104069 
L 772.390274 140.298403 
L 772.799514 140.114055 
L 773.004133 139.856123 
L 773.413373 138.747548 
L 773.822612 137.695 
L 774.027232 137.625213 
L 774.641091 138.316658 
L 774.845711 138.268523 
L 775.25495 137.572499 
L 775.66419 136.443929 
L 776.278049 134.620233 
L 776.482669 134.449667 
L 776.687288 134.510319 
L 776.891908 134.778535 
L 777.301148 135.931426 
L 777.710387 137.089448 
L 777.915007 137.377866 
L 778.119627 137.454992 
L 778.324246 137.361438 
L 778.733486 136.838626 
L 779.347345 135.602788 
L 779.961204 134.119326 
L 780.165824 134.02469 
L 780.370444 134.31587 
L 781.598162 137.464748 
L 782.212021 137.6219 
L 782.621261 137.810827 
L 782.82588 138.146989 
L 783.23512 139.479074 
L 783.644359 140.879795 
L 784.053599 141.425432 
L 784.462838 141.688264 
L 785.076697 142.780043 
L 785.485937 143.352945 
L 785.895176 143.464239 
L 786.509035 143.322711 
L 786.918275 143.3393 
L 787.327514 142.917291 
L 787.941373 141.527063 
L 788.350613 140.845673 
L 788.555233 140.811251 
L 788.759852 140.993713 
L 788.964472 141.42794 
L 789.373712 143.332305 
L 789.987571 147.197501 
L 790.39681 148.294825 
L 790.60143 148.368431 
L 790.80605 148.232356 
L 791.419909 147.45679 
L 791.624529 147.50481 
L 792.238388 148.237947 
L 793.056867 149.665865 
L 793.670726 150.77566 
L 793.875346 150.922572 
L 794.079965 150.890107 
L 794.284585 150.687581 
L 795.103064 149.203521 
L 795.307684 149.226944 
L 795.512303 149.475948 
L 795.716923 149.940708 
L 796.126163 151.811342 
L 796.740022 155.382345 
L 797.149261 156.475665 
L 797.558501 157.276817 
L 798.17236 159.189903 
L 798.37698 159.46707 
L 798.581599 159.510212 
L 798.990839 159.21213 
L 799.604698 158.350303 
L 800.013937 157.861983 
L 800.218557 158.000842 
L 800.627797 159.034316 
L 801.037036 159.940711 
L 801.446275 160.426777 
L 802.469374 162.147968 
L 802.878614 161.966012 
L 803.083233 162.193227 
L 803.901712 164.271472 
L 805.129431 165.449787 
L 805.33405 165.361157 
L 805.947909 164.681608 
L 806.152529 164.755168 
L 806.561769 165.453607 
L 807.380248 167.05782 
L 807.994107 167.439701 
L 808.403346 168.21598 
L 809.017205 169.523928 
L 809.221825 169.682668 
L 809.426445 169.643944 
L 810.040304 169.092716 
L 810.244924 169.347104 
L 812.291121 174.372416 
L 812.90498 176.528132 
L 813.31422 177.104624 
L 813.723459 176.968939 
L 814.746558 176.577901 
L 815.360417 176.775479 
L 815.769656 176.465433 
L 816.178896 176.153729 
L 816.588135 176.20428 
L 816.792755 176.333821 
L 816.997375 176.619133 
L 817.406614 177.764293 
L 818.020473 179.901924 
L 819.043572 184.621216 
L 819.248192 184.990902 
L 819.452811 184.879423 
L 820.27129 183.279329 
L 820.47591 183.188926 
L 820.68053 183.253696 
L 820.885149 183.518623 
L 821.703628 185.205852 
L 821.908248 184.933425 
L 822.522107 183.670459 
L 822.726727 183.528493 
L 822.931347 183.602122 
L 823.545206 184.649655 
L 824.363685 185.727191 
L 824.772924 186.051963 
L 824.977544 186.022052 
L 825.182164 185.750108 
L 826.614502 182.517867 
L 826.819122 182.658522 
L 827.84222 184.815642 
L 828.25146 185.216758 
L 828.456079 185.280816 
L 828.865319 185.064278 
L 829.069939 184.937429 
L 829.274558 184.959863 
L 829.479178 185.218829 
L 830.093037 186.587407 
L 830.297657 186.66046 
L 830.502277 186.378508 
L 830.911516 184.86074 
L 831.525375 182.509768 
L 832.343854 180.2908 
L 832.753094 178.862054 
L 833.571573 175.687175 
L 834.390051 174.041914 
L 834.799291 173.104894 
L 835.20853 171.518352 
L 836.231629 166.370678 
L 837.254728 161.76917 
L 839.096305 151.273138 
L 839.710164 147.817043 
L 840.528643 143.137764 
L 841.142502 139.802788 
L 841.551742 136.105558 
L 846.257996 80.166105 
L 847.485714 62.354373 
L 848.918052 37.371967 
L 850.35039 11.414529 
L 851.028678 -1 
M 944.925921 -1 
L 945.703183 16.219852 
L 946.930901 38.120059 
L 947.954 53.972595 
L 948.772479 65.838171 
L 949.590958 74.405977 
L 950.409437 80.88118 
L 951.227915 85.692829 
L 951.841775 88.813108 
L 952.251014 91.990333 
L 953.478732 103.172794 
L 955.11569 111.786273 
L 955.52493 112.559146 
L 955.729549 112.534227 
L 956.548028 111.559404 
L 956.752648 111.901801 
L 957.161888 113.780535 
L 958.389606 121.299727 
L 958.798845 122.820049 
L 959.208085 123.643128 
L 959.617324 123.979106 
L 960.026564 123.887898 
L 960.231183 123.991025 
L 961.254282 125.380909 
L 961.663522 125.596135 
L 961.868141 125.8765 
L 962.277381 127.246297 
L 962.89124 130.056207 
L 963.09586 130.609666 
L 963.300479 130.801584 
L 963.505099 130.673677 
L 963.914339 130.173806 
L 964.118958 130.17919 
L 964.323578 130.47175 
L 964.732817 131.77298 
L 966.165155 137.266571 
L 966.779015 138.396292 
L 967.597494 139.971053 
L 968.415972 141.15167 
L 968.620592 141.143502 
L 969.439071 140.041162 
L 969.643691 140.184531 
L 970.05293 141.106664 
L 971.076029 143.584231 
L 971.485268 143.990663 
L 971.894508 144.033874 
L 972.303747 143.774953 
L 972.508367 143.952514 
L 972.917606 145.506084 
L 973.326846 147.11032 
L 973.736085 147.643785 
L 974.145325 148.232908 
L 975.373043 150.777201 
L 975.577663 150.7879 
L 976.191522 150.0399 
L 976.396142 150.115254 
L 976.805381 151.132139 
L 977.62386 153.708967 
L 977.82848 153.951321 
L 978.0331 153.98993 
L 978.442339 153.718055 
L 978.851579 153.08434 
L 979.465438 151.496119 
L 979.874677 150.635926 
L 980.079297 150.546674 
L 980.283917 150.658175 
L 980.693156 151.277326 
L 981.102396 152.428928 
L 982.330114 157.141109 
L 982.739353 157.72738 
L 983.148593 157.841251 
L 983.353213 157.904273 
L 983.762452 158.476692 
L 984.171691 159.273311 
L 984.376311 159.417071 
L 984.785551 159.310793 
L 984.99017 159.413551 
L 985.39941 160.171837 
L 985.808649 160.871541 
L 986.013269 160.96742 
L 986.217889 160.894343 
L 986.627128 160.330645 
L 987.240987 159.161694 
L 988.059466 156.908994 
L 988.264086 156.925009 
L 988.673325 157.21957 
L 988.877945 157.040468 
L 989.287185 155.697016 
L 989.901044 153.59735 
L 990.105664 153.318158 
L 990.310283 153.369606 
L 991.333382 154.973957 
L 991.947241 155.244106 
L 992.151861 155.200044 
L 992.5611 154.746444 
L 993.174959 153.954473 
L 993.379579 153.962687 
L 993.993438 154.291947 
L 994.402678 154.461316 
L 994.811917 155.209846 
L 995.221157 155.847749 
L 995.835016 156.030417 
L 996.039636 156.282343 
L 996.448875 157.335674 
L 997.062734 159.555264 
L 997.676593 162.166927 
L 997.881213 162.631756 
L 998.085833 162.773468 
L 998.290453 162.634195 
L 999.518171 160.905089 
L 1000.33665 160.682706 
L 1000.745889 160.195582 
L 1001.155129 159.143701 
L 1002.178227 155.171329 
L 1002.382847 155.157454 
L 1002.587467 155.552658 
L 1002.996706 157.295431 
L 1003.610566 160.082746 
L 1004.224425 161.383055 
L 1004.838284 164.019408 
L 1005.452143 166.42728 
L 1006.066002 167.948155 
L 1006.679861 169.030178 
L 1007.49834 172.00375 
L 1007.70296 172.033455 
L 1008.112199 171.056813 
L 1008.521439 170.228879 
L 1008.726059 170.380003 
L 1009.339918 171.677068 
L 1009.749157 171.865857 
L 1010.158397 172.040634 
L 1010.772256 172.55178 
L 1010.976876 172.559649 
L 1011.181495 172.355996 
L 1011.590735 171.179176 
L 1011.999974 170.058843 
L 1012.204594 170.097084 
L 1012.409214 170.636484 
L 1013.432312 174.872908 
L 1013.841552 175.603146 
L 1014.046172 175.617319 
L 1014.86465 174.891016 
L 1015.47851 174.752226 
L 1015.887749 174.660765 
L 1016.296989 174.839752 
L 1017.115467 175.588765 
L 1017.729327 175.463918 
L 1018.138566 175.807098 
L 1018.547806 176.040041 
L 1019.161665 175.743938 
L 1019.366284 175.927297 
L 1020.184763 177.173075 
L 1020.389383 177.074114 
L 1021.207862 175.893704 
L 1021.412482 175.864344 
L 1022.026341 176.32869 
L 1022.230961 176.236355 
L 1023.04944 175.460835 
L 1023.254059 175.476458 
L 1023.663299 175.978055 
L 1024.072538 176.318474 
L 1024.277158 176.160126 
L 1025.504876 173.960646 
L 1025.709496 173.924384 
L 1025.914116 174.099114 
L 1026.323355 175.230031 
L 1026.937214 176.968824 
L 1027.141834 177.207819 
L 1027.346454 177.202504 
L 1027.551074 176.899015 
L 1028.369552 174.817571 
L 1028.574172 174.714606 
L 1029.188031 174.925806 
L 1029.597271 174.871482 
L 1030.00651 175.119404 
L 1030.21113 175.072327 
L 1031.234229 173.99983 
L 1031.438848 174.058756 
L 1031.848088 174.700709 
L 1032.871186 176.570147 
L 1033.280426 176.888822 
L 1033.485046 176.778494 
L 1033.689665 176.370681 
L 1034.508144 173.490364 
L 1034.712764 173.285561 
L 1034.917384 173.392346 
L 1035.531243 174.020815 
L 1035.940482 174.019779 
L 1036.349722 173.953444 
L 1036.963581 174.068259 
L 1037.37282 173.635712 
L 1037.78206 173.05241 
L 1038.191299 172.892359 
L 1038.805159 173.094816 
L 1039.009778 172.88074 
L 1039.623637 171.551508 
L 1040.032877 170.729786 
L 1040.237497 170.530574 
L 1040.442116 170.547808 
L 1041.055976 171.079776 
L 1041.669835 170.984404 
L 1042.079074 170.694329 
L 1042.692933 169.973318 
L 1042.897553 169.882616 
L 1043.102173 169.940507 
L 1043.306792 170.198139 
L 1044.329891 172.31007 
L 1044.534511 172.195623 
L 1045.35299 170.686506 
L 1045.557609 170.754613 
L 1045.762229 171.224296 
L 1046.989948 175.411619 
L 1047.399187 176.023314 
L 1047.603807 175.921154 
L 1048.422286 174.544454 
L 1048.626905 174.4688 
L 1048.831525 174.551932 
L 1049.240765 175.074053 
L 1050.468483 177.174571 
L 1050.673103 177.074965 
L 1051.082342 176.148989 
L 1051.696201 174.930431 
L 1052.105441 174.364823 
L 1052.51468 174.204703 
L 1052.92392 174.480397 
L 1053.333159 175.318087 
L 1054.356258 178.664015 
L 1054.560877 178.672137 
L 1054.970117 177.887805 
L 1055.379356 176.953316 
L 1055.583976 176.791586 
L 1055.788596 176.920942 
L 1056.197835 177.53036 
L 1056.402455 177.602884 
L 1056.607075 177.451393 
L 1057.220934 176.489454 
L 1057.425554 176.451213 
L 1058.448652 177.375992 
L 1058.653272 177.814751 
L 1059.062511 179.535436 
L 1059.676371 182.529349 
L 1059.88099 182.825314 
L 1060.08561 182.784519 
L 1061.927188 181.33189 
L 1062.131807 181.331683 
L 1062.541047 181.665751 
L 1062.950286 182.536827 
L 1063.973385 185.716308 
L 1064.178005 185.69866 
L 1064.587244 184.715576 
L 1065.610343 181.480551 
L 1066.224202 180.190872 
L 1066.633441 179.845782 
L 1066.838061 179.949691 
L 1067.247301 180.725717 
L 1068.065779 182.553094 
L 1068.475019 182.89158 
L 1068.679639 182.820505 
L 1069.088878 182.21806 
L 1069.702737 180.796492 
L 1069.907357 180.606898 
L 1070.316596 180.806616 
L 1070.930456 181.268408 
L 1071.339695 182.518558 
L 1071.748935 183.553642 
L 1071.953554 183.5394 
L 1072.362794 183.310644 
L 1072.976653 183.578837 
L 1073.385892 183.345134 
L 1073.999752 182.682911 
L 1074.81823 181.059348 
L 1075.02285 181.20366 
L 1075.43209 182.02437 
L 1076.659808 185.109421 
L 1077.069047 185.03807 
L 1077.478287 184.82947 
L 1077.682907 184.558838 
L 1078.092146 183.415956 
L 1078.501386 182.046803 
L 1078.910625 181.469254 
L 1079.115245 181.514766 
L 1079.524484 181.976925 
L 1080.547583 183.544508 
L 1081.161442 184.497611 
L 1081.366062 184.602532 
L 1081.775301 184.364665 
L 1082.38916 183.916748 
L 1083.207639 184.027168 
L 1083.616879 183.420512 
L 1084.230738 182.221764 
L 1084.639977 181.900903 
L 1085.663076 181.218156 
L 1086.072315 180.559246 
L 1086.276935 180.472617 
L 1086.481555 180.726246 
L 1087.300034 183.08603 
L 1087.504653 183.132968 
L 1088.118513 182.875267 
L 1088.527752 183.156943 
L 1089.550851 184.355484 
L 1089.75547 184.181122 
L 1090.573949 182.763512 
L 1090.983189 182.571755 
L 1091.392428 182.678033 
L 1092.006287 183.092058 
L 1092.620147 183.548902 
L 1093.234006 183.676833 
L 1093.438626 183.631505 
L 1093.847865 183.07533 
L 1094.257104 182.536367 
L 1094.666344 182.480777 
L 1095.075583 182.54656 
L 1095.689443 182.52951 
L 1096.303302 183.010813 
L 1097.121781 183.972706 
L 1097.53102 183.833892 
L 1097.94026 183.768063 
L 1098.758738 184.027283 
L 1099.167978 183.947925 
L 1099.577217 183.386044 
L 1099.986457 182.15658 
L 1101.009555 178.255697 
L 1101.418795 177.84395 
L 1102.032654 177.993256 
L 1102.237274 177.811714 
L 1103.055753 176.569479 
L 1103.260372 176.788502 
L 1104.283471 178.973602 
L 1104.488091 178.829657 
L 1104.692711 178.261633 
L 1107.557387 165.464398 
L 1108.580485 162.495243 
L 1108.989725 160.302528 
L 1109.603584 155.554337 
L 1110.626683 147.032826 
L 1110.831302 146.284779 
L 1111.035922 146.183056 
L 1111.240542 146.634286 
L 1112.26364 150.999169 
L 1112.8775 151.621679 
L 1113.082119 151.575339 
L 1113.286739 151.167227 
L 1113.900598 148.523696 
L 1114.514457 145.973789 
L 1114.923697 142.709796 
L 1115.742176 131.962873 
L 1116.356035 125.118813 
L 1116.969894 118.848068 
L 1117.788373 107.092521 
L 1119.016091 86.440347 
L 1119.629951 78.901758 
L 1120.03919 69.753526 
L 1120.448429 54.911755 
L 1120.857669 32.655758 
L 1121.277451 -1 
M 1124.691016 -1 
L 1125.154683 39.206316 
L 1125.768542 74.857 
L 1126.382402 98.801123 
L 1126.996261 115.208867 
L 1127.61012 125.840146 
L 1128.223979 131.81764 
L 1128.837838 137.778568 
L 1130.679416 159.15937 
L 1131.497895 165.546448 
L 1131.907134 167.567309 
L 1132.520993 169.22985 
L 1132.930233 170.5268 
L 1134.567191 177.109455 
L 1135.38567 178.916723 
L 1135.794909 179.194949 
L 1136.204148 179.386223 
L 1137.227247 180.475056 
L 1137.431867 180.450045 
L 1137.636487 180.224212 
L 1138.045726 179.116235 
L 1138.454965 178.115618 
L 1138.659585 178.027332 
L 1139.068825 178.418578 
L 1139.682684 179.217267 
L 1140.091923 180.006224 
L 1140.296543 180.191217 
L 1140.705782 180.085191 
L 1141.115022 179.846495 
L 1141.319642 179.948494 
L 1142.34274 181.481333 
L 1142.75198 181.285227 
L 1143.161219 180.980496 
L 1143.365839 180.958016 
L 1143.775078 181.287804 
L 1144.184318 181.727024 
L 1144.388938 181.701162 
L 1144.798177 181.351677 
L 1145.002797 181.33969 
L 1145.207416 181.562072 
L 1146.025895 183.252799 
L 1147.048994 183.552814 
L 1147.253614 183.5264 
L 1147.458233 183.347711 
L 1148.072093 182.444101 
L 1148.276712 182.424336 
L 1148.685952 182.790617 
L 1149.095191 183.253213 
L 1149.299811 183.265247 
L 1149.70905 182.741124 
L 1150.11829 182.251745 
L 1150.527529 182.27671 
L 1151.346008 182.475784 
L 1151.755248 182.587654 
L 1152.369107 182.181936 
L 1152.573727 182.225653 
L 1152.982966 182.651665 
L 1153.801445 183.574696 
L 1154.210684 183.847698 
L 1154.415304 183.779177 
L 1154.824544 183.107428 
L 1155.233783 182.317528 
L 1155.438403 182.224272 
L 1155.643023 182.445228 
L 1156.256882 184.157123 
L 1156.666121 185.093522 
L 1156.870741 185.30601 
L 1157.075361 185.349682 
L 1157.4846 185.046469 
L 1158.098459 184.322259 
L 1158.303079 184.311974 
L 1158.712318 184.845646 
L 1159.121558 185.316157 
L 1159.530797 185.565644 
L 1160.963135 187.522448 
L 1161.167755 187.490903 
L 1161.372375 187.141786 
L 1162.190854 185.153507 
L 1162.600093 185.005328 
L 1163.009333 185.097595 
L 1163.623192 184.993502 
L 1164.85091 186.094714 
L 1165.26015 185.827119 
L 1166.692488 184.304519 
L 1167.101727 184.440318 
L 1167.715586 184.940512 
L 1168.534065 185.94504 
L 1168.943305 186.464538 
L 1169.147924 186.465275 
L 1169.761784 186.068001 
L 1170.171023 186.320824 
L 1170.989502 186.903574 
L 1171.398741 186.551213 
L 1172.62646 185.26793 
L 1173.240319 185.05581 
L 1174.263418 183.840266 
L 1174.468037 183.759688 
L 1174.672657 183.893992 
L 1175.081897 184.771672 
L 1175.695756 186.254558 
L 1176.104995 186.502664 
L 1177.128094 186.396639 
L 1177.332714 186.449905 
L 1177.537333 186.351748 
L 1177.946573 185.691136 
L 1178.560432 184.542594 
L 1178.765052 184.430724 
L 1178.969671 184.510726 
L 1179.174291 184.765597 
L 1179.583531 186.045176 
L 1180.19739 188.631299 
L 1180.402009 188.978322 
L 1180.606629 188.995026 
L 1181.015869 188.381812 
L 1181.425108 187.554707 
L 1181.834348 187.279956 
L 1182.243587 187.218913 
L 1182.652826 186.781856 
L 1183.880545 184.990073 
L 1184.085165 184.849488 
L 1184.289784 184.900867 
L 1184.699024 185.440291 
L 1184.699024 185.440291 
" clip-path="url(#pae08fe4e85)" style="fill: none; stroke: #000000; stroke-width: 2; stroke-linecap: square"/>
   </g>
   <g id="patch_3">
    <path d="M 3.00024 198.907885 
L 1184.99976 198.907885 
" style="fill: none; stroke: #000000; stroke-width: 2; stroke-linejoin: miter; stroke-linecap: square"/>
   </g>
  </g>
 </g>
 <defs>
  <clipPath id="pae08fe4e85">
   <rect x="3.00024" y="3.00024" width="1181.99952" height="195.907645"/>
  </clipPath>
 </defs>
</svg>
