<?xml version="1.0" encoding="utf-8" standalone="no"?>
<!DOCTYPE svg PUBLIC "-//W3C//DTD SVG 1.1//EN"
  "http://www.w3.org/Graphics/SVG/1.1/DTD/svg11.dtd">
<svg xmlns:xlink="http://www.w3.org/1999/xlink" width="1188pt" height="252pt" viewBox="0 0 1188 252" xmlns="http://www.w3.org/2000/svg" version="1.1">
 <metadata>
  <rdf:RDF xmlns:dc="http://purl.org/dc/elements/1.1/" xmlns:cc="http://creativecommons.org/ns#" xmlns:rdf="http://www.w3.org/1999/02/22-rdf-syntax-ns#">
   <cc:Work>
    <dc:type rdf:resource="http://purl.org/dc/dcmitype/StillImage"/>
    <dc:date>2024-07-23T21:44:30.003374</dc:date>
    <dc:format>image/svg+xml</dc:format>
    <dc:creator>
     <cc:Agent>
      <dc:title>Matplotlib v3.8.4, https://matplotlib.org/</dc:title>
     </cc:Agent>
    </dc:creator>
   </cc:Work>
  </rdf:RDF>
 </metadata>
 <defs>
  <style type="text/css">*{stroke-linejoin: round; stroke-linecap: butt}</style>
 </defs>
 <g id="figure_1">
  <g id="patch_1">
   <path d="M 0 252 
L 1188 252 
L 1188 0 
L 0 0 
z
" style="fill: #ffffff"/>
  </g>
  <g id="axes_1">
   <g id="patch_2">
    <path d="M 3.00024 198.907885 
L 1184.99976 198.907885 
L 1184.99976 3.00024 
L 3.00024 3.00024 
z
" style="fill: #ffffff"/>
   </g>
   <g id="matplotlib.axis_1">
    <g id="xtick_1">
     <g id="line2d_1">
      <defs>
       <path id="md1892714d6" d="M 0 0 
L 0 8 
" style="stroke: #000000; stroke-width: 2"/>
      </defs>
      <g>
       <use xlink:href="#md1892714d6" x="1131.272509" y="198.907885" style="stroke: #000000; stroke-width: 2"/>
      </g>
     </g>
     <g id="text_1">
      <!-- 0 -->
      <g transform="translate(1126.267665 224.791947) scale(0.18 -0.18)">
       <defs>
        <path id="Arial-BoldMT-30" d="M 1756 4600 
Q 2422 4600 2797 4125 
Q 3244 3563 3244 2259 
Q 3244 959 2794 391 
Q 2422 -78 1756 -78 
Q 1088 -78 678 436 
Q 269 950 269 2269 
Q 269 3563 719 4131 
Q 1091 4600 1756 4600 
z
M 1756 3872 
Q 1597 3872 1472 3770 
Q 1347 3669 1278 3406 
Q 1188 3066 1188 2259 
Q 1188 1453 1269 1151 
Q 1350 850 1473 750 
Q 1597 650 1756 650 
Q 1916 650 2041 751 
Q 2166 853 2234 1116 
Q 2325 1453 2325 2259 
Q 2325 3066 2244 3367 
Q 2163 3669 2039 3770 
Q 1916 3872 1756 3872 
z
" transform="scale(0.015625)"/>
       </defs>
       <use xlink:href="#Arial-BoldMT-30"/>
      </g>
     </g>
    </g>
    <g id="xtick_2">
     <g id="line2d_2">
      <g>
       <use xlink:href="#md1892714d6" x="1023.818007" y="198.907885" style="stroke: #000000; stroke-width: 2"/>
      </g>
     </g>
     <g id="text_2">
      <!-- 1 -->
      <g transform="translate(1018.813164 224.791947) scale(0.18 -0.18)">
       <defs>
        <path id="Arial-BoldMT-31" d="M 2519 0 
L 1641 0 
L 1641 3309 
Q 1159 2859 506 2644 
L 506 3441 
Q 850 3553 1253 3867 
Q 1656 4181 1806 4600 
L 2519 4600 
L 2519 0 
z
" transform="scale(0.015625)"/>
       </defs>
       <use xlink:href="#Arial-BoldMT-31"/>
      </g>
     </g>
    </g>
    <g id="xtick_3">
     <g id="line2d_3">
      <g>
       <use xlink:href="#md1892714d6" x="916.363505" y="198.907885" style="stroke: #000000; stroke-width: 2"/>
      </g>
     </g>
     <g id="text_3">
      <!-- 2 -->
      <g transform="translate(911.358662 224.791947) scale(0.18 -0.18)">
       <defs>
        <path id="Arial-BoldMT-32" d="M 3238 816 
L 3238 0 
L 159 0 
Q 209 463 459 877 
Q 709 1291 1447 1975 
Q 2041 2528 2175 2725 
Q 2356 2997 2356 3263 
Q 2356 3556 2198 3714 
Q 2041 3872 1763 3872 
Q 1488 3872 1325 3706 
Q 1163 3541 1138 3156 
L 263 3244 
Q 341 3969 753 4284 
Q 1166 4600 1784 4600 
Q 2463 4600 2850 4234 
Q 3238 3869 3238 3325 
Q 3238 3016 3127 2736 
Q 3016 2456 2775 2150 
Q 2616 1947 2200 1565 
Q 1784 1184 1673 1059 
Q 1563 934 1494 816 
L 3238 816 
z
" transform="scale(0.015625)"/>
       </defs>
       <use xlink:href="#Arial-BoldMT-32"/>
      </g>
     </g>
    </g>
    <g id="xtick_4">
     <g id="line2d_4">
      <g>
       <use xlink:href="#md1892714d6" x="808.909004" y="198.907885" style="stroke: #000000; stroke-width: 2"/>
      </g>
     </g>
     <g id="text_4">
      <!-- 3 -->
      <g transform="translate(803.90416 224.791947) scale(0.18 -0.18)">
       <defs>
        <path id="Arial-BoldMT-33" d="M 241 1216 
L 1091 1319 
Q 1131 994 1309 822 
Q 1488 650 1741 650 
Q 2013 650 2198 856 
Q 2384 1063 2384 1413 
Q 2384 1744 2206 1937 
Q 2028 2131 1772 2131 
Q 1603 2131 1369 2066 
L 1466 2781 
Q 1822 2772 2009 2936 
Q 2197 3100 2197 3372 
Q 2197 3603 2059 3740 
Q 1922 3878 1694 3878 
Q 1469 3878 1309 3722 
Q 1150 3566 1116 3266 
L 306 3403 
Q 391 3819 561 4067 
Q 731 4316 1036 4458 
Q 1341 4600 1719 4600 
Q 2366 4600 2756 4188 
Q 3078 3850 3078 3425 
Q 3078 2822 2419 2463 
Q 2813 2378 3048 2084 
Q 3284 1791 3284 1375 
Q 3284 772 2843 347 
Q 2403 -78 1747 -78 
Q 1125 -78 715 280 
Q 306 638 241 1216 
z
" transform="scale(0.015625)"/>
       </defs>
       <use xlink:href="#Arial-BoldMT-33"/>
      </g>
     </g>
    </g>
    <g id="xtick_5">
     <g id="line2d_5">
      <g>
       <use xlink:href="#md1892714d6" x="701.454502" y="198.907885" style="stroke: #000000; stroke-width: 2"/>
      </g>
     </g>
     <g id="text_5">
      <!-- 4 -->
      <g transform="translate(696.449658 224.791947) scale(0.18 -0.18)">
       <defs>
        <path id="Arial-BoldMT-34" d="M 1994 0 
L 1994 922 
L 119 922 
L 119 1691 
L 2106 4600 
L 2844 4600 
L 2844 1694 
L 3413 1694 
L 3413 922 
L 2844 922 
L 2844 0 
L 1994 0 
z
M 1994 1694 
L 1994 3259 
L 941 1694 
L 1994 1694 
z
" transform="scale(0.015625)"/>
       </defs>
       <use xlink:href="#Arial-BoldMT-34"/>
      </g>
     </g>
    </g>
    <g id="xtick_6">
     <g id="line2d_6">
      <g>
       <use xlink:href="#md1892714d6" x="594" y="198.907885" style="stroke: #000000; stroke-width: 2"/>
      </g>
     </g>
     <g id="text_6">
      <!-- 5 -->
      <g transform="translate(588.995156 224.791947) scale(0.18 -0.18)">
       <defs>
        <path id="Arial-BoldMT-35" d="M 284 1178 
L 1159 1269 
Q 1197 972 1381 798 
Q 1566 625 1806 625 
Q 2081 625 2272 848 
Q 2463 1072 2463 1522 
Q 2463 1944 2273 2155 
Q 2084 2366 1781 2366 
Q 1403 2366 1103 2031 
L 391 2134 
L 841 4519 
L 3163 4519 
L 3163 3697 
L 1506 3697 
L 1369 2919 
Q 1663 3066 1969 3066 
Q 2553 3066 2959 2641 
Q 3366 2216 3366 1538 
Q 3366 972 3038 528 
Q 2591 -78 1797 -78 
Q 1163 -78 763 262 
Q 363 603 284 1178 
z
" transform="scale(0.015625)"/>
       </defs>
       <use xlink:href="#Arial-BoldMT-35"/>
      </g>
     </g>
    </g>
    <g id="xtick_7">
     <g id="line2d_7">
      <g>
       <use xlink:href="#md1892714d6" x="486.545498" y="198.907885" style="stroke: #000000; stroke-width: 2"/>
      </g>
     </g>
     <g id="text_7">
      <!-- 6 -->
      <g transform="translate(481.540654 224.791947) scale(0.18 -0.18)">
       <defs>
        <path id="Arial-BoldMT-36" d="M 3247 3459 
L 2397 3366 
Q 2366 3628 2234 3753 
Q 2103 3878 1894 3878 
Q 1616 3878 1423 3628 
Q 1231 3378 1181 2588 
Q 1509 2975 1997 2975 
Q 2547 2975 2939 2556 
Q 3331 2138 3331 1475 
Q 3331 772 2918 347 
Q 2506 -78 1859 -78 
Q 1166 -78 719 461 
Q 272 1000 272 2228 
Q 272 3488 737 4044 
Q 1203 4600 1947 4600 
Q 2469 4600 2811 4308 
Q 3153 4016 3247 3459 
z
M 1256 1544 
Q 1256 1116 1453 883 
Q 1650 650 1903 650 
Q 2147 650 2309 840 
Q 2472 1031 2472 1466 
Q 2472 1913 2297 2120 
Q 2122 2328 1859 2328 
Q 1606 2328 1431 2129 
Q 1256 1931 1256 1544 
z
" transform="scale(0.015625)"/>
       </defs>
       <use xlink:href="#Arial-BoldMT-36"/>
      </g>
     </g>
    </g>
    <g id="xtick_8">
     <g id="line2d_8">
      <g>
       <use xlink:href="#md1892714d6" x="379.090996" y="198.907885" style="stroke: #000000; stroke-width: 2"/>
      </g>
     </g>
     <g id="text_8">
      <!-- 7 -->
      <g transform="translate(374.086153 224.791947) scale(0.18 -0.18)">
       <defs>
        <path id="Arial-BoldMT-37" d="M 272 3703 
L 272 4519 
L 3275 4519 
L 3275 3881 
Q 2903 3516 2518 2831 
Q 2134 2147 1932 1376 
Q 1731 606 1734 0 
L 888 0 
Q 909 950 1279 1937 
Q 1650 2925 2269 3703 
L 272 3703 
z
" transform="scale(0.015625)"/>
       </defs>
       <use xlink:href="#Arial-BoldMT-37"/>
      </g>
     </g>
    </g>
    <g id="xtick_9">
     <g id="line2d_9">
      <g>
       <use xlink:href="#md1892714d6" x="271.636495" y="198.907885" style="stroke: #000000; stroke-width: 2"/>
      </g>
     </g>
     <g id="text_9">
      <!-- 8 -->
      <g transform="translate(266.631651 224.791947) scale(0.18 -0.18)">
       <defs>
        <path id="Arial-BoldMT-38" d="M 1025 2472 
Q 684 2616 529 2867 
Q 375 3119 375 3419 
Q 375 3931 733 4265 
Q 1091 4600 1750 4600 
Q 2403 4600 2764 4265 
Q 3125 3931 3125 3419 
Q 3125 3100 2959 2851 
Q 2794 2603 2494 2472 
Q 2875 2319 3073 2025 
Q 3272 1731 3272 1347 
Q 3272 713 2867 316 
Q 2463 -81 1791 -81 
Q 1166 -81 750 247 
Q 259 634 259 1309 
Q 259 1681 443 1992 
Q 628 2303 1025 2472 
z
M 1206 3356 
Q 1206 3094 1354 2947 
Q 1503 2800 1750 2800 
Q 2000 2800 2150 2948 
Q 2300 3097 2300 3359 
Q 2300 3606 2151 3754 
Q 2003 3903 1759 3903 
Q 1506 3903 1356 3753 
Q 1206 3603 1206 3356 
z
M 1125 1394 
Q 1125 1031 1311 828 
Q 1497 625 1775 625 
Q 2047 625 2225 820 
Q 2403 1016 2403 1384 
Q 2403 1706 2222 1901 
Q 2041 2097 1763 2097 
Q 1441 2097 1283 1875 
Q 1125 1653 1125 1394 
z
" transform="scale(0.015625)"/>
       </defs>
       <use xlink:href="#Arial-BoldMT-38"/>
      </g>
     </g>
    </g>
    <g id="xtick_10">
     <g id="line2d_10">
      <g>
       <use xlink:href="#md1892714d6" x="164.181993" y="198.907885" style="stroke: #000000; stroke-width: 2"/>
      </g>
     </g>
     <g id="text_10">
      <!-- 9 -->
      <g transform="translate(159.177149 224.791947) scale(0.18 -0.18)">
       <defs>
        <path id="Arial-BoldMT-39" d="M 291 1059 
L 1141 1153 
Q 1172 894 1303 769 
Q 1434 644 1650 644 
Q 1922 644 2112 894 
Q 2303 1144 2356 1931 
Q 2025 1547 1528 1547 
Q 988 1547 595 1964 
Q 203 2381 203 3050 
Q 203 3747 617 4173 
Q 1031 4600 1672 4600 
Q 2369 4600 2816 4061 
Q 3263 3522 3263 2288 
Q 3263 1031 2797 475 
Q 2331 -81 1584 -81 
Q 1047 -81 715 205 
Q 384 491 291 1059 
z
M 2278 2978 
Q 2278 3403 2083 3637 
Q 1888 3872 1631 3872 
Q 1388 3872 1227 3680 
Q 1066 3488 1066 3050 
Q 1066 2606 1241 2398 
Q 1416 2191 1678 2191 
Q 1931 2191 2104 2391 
Q 2278 2591 2278 2978 
z
" transform="scale(0.015625)"/>
       </defs>
       <use xlink:href="#Arial-BoldMT-39"/>
      </g>
     </g>
    </g>
    <g id="xtick_11">
     <g id="line2d_11">
      <g>
       <use xlink:href="#md1892714d6" x="56.727491" y="198.907885" style="stroke: #000000; stroke-width: 2"/>
      </g>
     </g>
     <g id="text_11">
      <!-- 10 -->
      <g transform="translate(46.717803 224.791947) scale(0.18 -0.18)">
       <use xlink:href="#Arial-BoldMT-31"/>
       <use xlink:href="#Arial-BoldMT-30" x="55.615234"/>
      </g>
     </g>
    </g>
    <g id="text_12">
     <!-- Chemical Shift / ppm -->
     <g transform="translate(504.992813 245.447573) scale(0.18 -0.18)">
      <defs>
       <path id="Arial-BoldMT-43" d="M 3397 1684 
L 4294 1400 
Q 4088 650 3608 286 
Q 3128 -78 2391 -78 
Q 1478 -78 890 545 
Q 303 1169 303 2250 
Q 303 3394 893 4026 
Q 1484 4659 2447 4659 
Q 3288 4659 3813 4163 
Q 4125 3869 4281 3319 
L 3366 3100 
Q 3284 3456 3026 3662 
Q 2769 3869 2400 3869 
Q 1891 3869 1573 3503 
Q 1256 3138 1256 2319 
Q 1256 1450 1568 1081 
Q 1881 713 2381 713 
Q 2750 713 3015 947 
Q 3281 1181 3397 1684 
z
" transform="scale(0.015625)"/>
       <path id="Arial-BoldMT-68" d="M 1334 4581 
L 1334 2897 
Q 1759 3394 2350 3394 
Q 2653 3394 2897 3281 
Q 3141 3169 3264 2994 
Q 3388 2819 3433 2606 
Q 3478 2394 3478 1947 
L 3478 0 
L 2600 0 
L 2600 1753 
Q 2600 2275 2550 2415 
Q 2500 2556 2373 2639 
Q 2247 2722 2056 2722 
Q 1838 2722 1666 2615 
Q 1494 2509 1414 2295 
Q 1334 2081 1334 1663 
L 1334 0 
L 456 0 
L 456 4581 
L 1334 4581 
z
" transform="scale(0.015625)"/>
       <path id="Arial-BoldMT-65" d="M 2381 1056 
L 3256 909 
Q 3088 428 2723 176 
Q 2359 -75 1813 -75 
Q 947 -75 531 491 
Q 203 944 203 1634 
Q 203 2459 634 2926 
Q 1066 3394 1725 3394 
Q 2466 3394 2894 2905 
Q 3322 2416 3303 1406 
L 1103 1406 
Q 1113 1016 1316 798 
Q 1519 581 1822 581 
Q 2028 581 2168 693 
Q 2309 806 2381 1056 
z
M 2431 1944 
Q 2422 2325 2234 2523 
Q 2047 2722 1778 2722 
Q 1491 2722 1303 2513 
Q 1116 2303 1119 1944 
L 2431 1944 
z
" transform="scale(0.015625)"/>
       <path id="Arial-BoldMT-6d" d="M 394 3319 
L 1203 3319 
L 1203 2866 
Q 1638 3394 2238 3394 
Q 2556 3394 2790 3262 
Q 3025 3131 3175 2866 
Q 3394 3131 3647 3262 
Q 3900 3394 4188 3394 
Q 4553 3394 4806 3245 
Q 5059 3097 5184 2809 
Q 5275 2597 5275 2122 
L 5275 0 
L 4397 0 
L 4397 1897 
Q 4397 2391 4306 2534 
Q 4184 2722 3931 2722 
Q 3747 2722 3584 2609 
Q 3422 2497 3350 2280 
Q 3278 2063 3278 1594 
L 3278 0 
L 2400 0 
L 2400 1819 
Q 2400 2303 2353 2443 
Q 2306 2584 2207 2653 
Q 2109 2722 1941 2722 
Q 1738 2722 1575 2612 
Q 1413 2503 1342 2297 
Q 1272 2091 1272 1613 
L 1272 0 
L 394 0 
L 394 3319 
z
" transform="scale(0.015625)"/>
       <path id="Arial-BoldMT-69" d="M 459 3769 
L 459 4581 
L 1338 4581 
L 1338 3769 
L 459 3769 
z
M 459 0 
L 459 3319 
L 1338 3319 
L 1338 0 
L 459 0 
z
" transform="scale(0.015625)"/>
       <path id="Arial-BoldMT-63" d="M 3353 2338 
L 2488 2181 
Q 2444 2441 2289 2572 
Q 2134 2703 1888 2703 
Q 1559 2703 1364 2476 
Q 1169 2250 1169 1719 
Q 1169 1128 1367 884 
Q 1566 641 1900 641 
Q 2150 641 2309 783 
Q 2469 925 2534 1272 
L 3397 1125 
Q 3263 531 2881 228 
Q 2500 -75 1859 -75 
Q 1131 -75 698 384 
Q 266 844 266 1656 
Q 266 2478 700 2936 
Q 1134 3394 1875 3394 
Q 2481 3394 2839 3133 
Q 3197 2872 3353 2338 
z
" transform="scale(0.015625)"/>
       <path id="Arial-BoldMT-61" d="M 1116 2306 
L 319 2450 
Q 453 2931 781 3162 
Q 1109 3394 1756 3394 
Q 2344 3394 2631 3255 
Q 2919 3116 3036 2902 
Q 3153 2688 3153 2116 
L 3144 1091 
Q 3144 653 3186 445 
Q 3228 238 3344 0 
L 2475 0 
Q 2441 88 2391 259 
Q 2369 338 2359 363 
Q 2134 144 1878 34 
Q 1622 -75 1331 -75 
Q 819 -75 523 203 
Q 228 481 228 906 
Q 228 1188 362 1408 
Q 497 1628 739 1745 
Q 981 1863 1438 1950 
Q 2053 2066 2291 2166 
L 2291 2253 
Q 2291 2506 2166 2614 
Q 2041 2722 1694 2722 
Q 1459 2722 1328 2630 
Q 1197 2538 1116 2306 
z
M 2291 1594 
Q 2122 1538 1756 1459 
Q 1391 1381 1278 1306 
Q 1106 1184 1106 997 
Q 1106 813 1243 678 
Q 1381 544 1594 544 
Q 1831 544 2047 700 
Q 2206 819 2256 991 
Q 2291 1103 2291 1419 
L 2291 1594 
z
" transform="scale(0.015625)"/>
       <path id="Arial-BoldMT-6c" d="M 459 0 
L 459 4581 
L 1338 4581 
L 1338 0 
L 459 0 
z
" transform="scale(0.015625)"/>
       <path id="Arial-BoldMT-20" transform="scale(0.015625)"/>
       <path id="Arial-BoldMT-53" d="M 231 1491 
L 1131 1578 
Q 1213 1125 1461 912 
Q 1709 700 2131 700 
Q 2578 700 2804 889 
Q 3031 1078 3031 1331 
Q 3031 1494 2936 1608 
Q 2841 1722 2603 1806 
Q 2441 1863 1863 2006 
Q 1119 2191 819 2459 
Q 397 2838 397 3381 
Q 397 3731 595 4036 
Q 794 4341 1167 4500 
Q 1541 4659 2069 4659 
Q 2931 4659 3367 4281 
Q 3803 3903 3825 3272 
L 2900 3231 
Q 2841 3584 2645 3739 
Q 2450 3894 2059 3894 
Q 1656 3894 1428 3728 
Q 1281 3622 1281 3444 
Q 1281 3281 1419 3166 
Q 1594 3019 2269 2859 
Q 2944 2700 3267 2529 
Q 3591 2359 3773 2064 
Q 3956 1769 3956 1334 
Q 3956 941 3737 597 
Q 3519 253 3119 86 
Q 2719 -81 2122 -81 
Q 1253 -81 787 320 
Q 322 722 231 1491 
z
" transform="scale(0.015625)"/>
       <path id="Arial-BoldMT-66" d="M 75 3319 
L 563 3319 
L 563 3569 
Q 563 3988 652 4194 
Q 741 4400 980 4529 
Q 1219 4659 1584 4659 
Q 1959 4659 2319 4547 
L 2200 3934 
Q 1991 3984 1797 3984 
Q 1606 3984 1523 3895 
Q 1441 3806 1441 3553 
L 1441 3319 
L 2097 3319 
L 2097 2628 
L 1441 2628 
L 1441 0 
L 563 0 
L 563 2628 
L 75 2628 
L 75 3319 
z
" transform="scale(0.015625)"/>
       <path id="Arial-BoldMT-74" d="M 1981 3319 
L 1981 2619 
L 1381 2619 
L 1381 1281 
Q 1381 875 1398 808 
Q 1416 741 1477 697 
Q 1538 653 1625 653 
Q 1747 653 1978 738 
L 2053 56 
Q 1747 -75 1359 -75 
Q 1122 -75 931 4 
Q 741 84 652 211 
Q 563 338 528 553 
Q 500 706 500 1172 
L 500 2619 
L 97 2619 
L 97 3319 
L 500 3319 
L 500 3978 
L 1381 4491 
L 1381 3319 
L 1981 3319 
z
" transform="scale(0.015625)"/>
       <path id="Arial-BoldMT-2f" d="M -9 -78 
L 1125 4659 
L 1784 4659 
L 638 -78 
L -9 -78 
z
" transform="scale(0.015625)"/>
       <path id="Arial-BoldMT-70" d="M 434 3319 
L 1253 3319 
L 1253 2831 
Q 1413 3081 1684 3237 
Q 1956 3394 2288 3394 
Q 2866 3394 3269 2941 
Q 3672 2488 3672 1678 
Q 3672 847 3265 386 
Q 2859 -75 2281 -75 
Q 2006 -75 1782 34 
Q 1559 144 1313 409 
L 1313 -1263 
L 434 -1263 
L 434 3319 
z
M 1303 1716 
Q 1303 1156 1525 889 
Q 1747 622 2066 622 
Q 2372 622 2575 867 
Q 2778 1113 2778 1672 
Q 2778 2194 2568 2447 
Q 2359 2700 2050 2700 
Q 1728 2700 1515 2451 
Q 1303 2203 1303 1716 
z
" transform="scale(0.015625)"/>
      </defs>
      <use xlink:href="#Arial-BoldMT-43"/>
      <use xlink:href="#Arial-BoldMT-68" x="72.216797"/>
      <use xlink:href="#Arial-BoldMT-65" x="133.300781"/>
      <use xlink:href="#Arial-BoldMT-6d" x="188.916016"/>
      <use xlink:href="#Arial-BoldMT-69" x="277.832031"/>
      <use xlink:href="#Arial-BoldMT-63" x="305.615234"/>
      <use xlink:href="#Arial-BoldMT-61" x="361.230469"/>
      <use xlink:href="#Arial-BoldMT-6c" x="416.845703"/>
      <use xlink:href="#Arial-BoldMT-20" x="444.628906"/>
      <use xlink:href="#Arial-BoldMT-53" x="472.412109"/>
      <use xlink:href="#Arial-BoldMT-68" x="539.111328"/>
      <use xlink:href="#Arial-BoldMT-69" x="600.195312"/>
      <use xlink:href="#Arial-BoldMT-66" x="627.978516"/>
      <use xlink:href="#Arial-BoldMT-74" x="661.279297"/>
      <use xlink:href="#Arial-BoldMT-20" x="694.580078"/>
      <use xlink:href="#Arial-BoldMT-2f" x="722.363281"/>
      <use xlink:href="#Arial-BoldMT-20" x="750.146484"/>
      <use xlink:href="#Arial-BoldMT-70" x="777.929688"/>
      <use xlink:href="#Arial-BoldMT-70" x="839.013672"/>
      <use xlink:href="#Arial-BoldMT-6d" x="900.097656"/>
     </g>
    </g>
   </g>
   <g id="matplotlib.axis_2"/>
   <g id="line2d_12">
    <path d="M 3.087015 192.491896 
L 3.291635 192.620957 
L 3.496254 192.553673 
L 3.700874 192.224799 
L 4.110114 190.820251 
L 4.928592 187.27967 
L 5.133212 187.0839 
L 5.337832 187.212587 
L 6.156311 188.581744 
L 6.77017 189.711251 
L 6.97479 189.670926 
L 7.997888 188.314274 
L 8.202508 188.368623 
L 8.611747 189.000731 
L 9.020987 190.243954 
L 9.430226 191.545225 
L 9.839466 192.013943 
L 10.044086 192.012022 
L 10.453325 191.640013 
L 10.862564 191.315355 
L 11.067184 191.402399 
L 12.294903 192.995145 
L 12.499522 193.084914 
L 12.704142 193.02632 
L 13.113381 192.375312 
L 13.727241 190.781074 
L 14.3411 188.989775 
L 14.54572 188.77413 
L 14.750339 188.889452 
L 15.364198 190.012535 
L 15.568818 189.897728 
L 15.978058 188.86777 
L 16.387297 187.892677 
L 16.591917 187.771303 
L 16.796537 188.008373 
L 17.205776 189.391038 
L 17.615015 190.912486 
L 17.819635 191.227622 
L 18.024255 191.01886 
L 18.842734 188.545837 
L 19.456593 188.57902 
L 20.275072 187.549148 
L 20.479692 187.647778 
L 21.50279 188.988083 
L 21.70741 189.101972 
L 21.91203 189.081494 
L 22.321269 188.425467 
L 22.935128 187.25076 
L 23.344368 187.009848 
L 23.958227 187.160619 
L 24.367466 186.724223 
L 24.776706 186.36165 
L 25.185945 186.656825 
L 25.595185 187.01197 
L 26.004424 187.171431 
L 26.413664 187.1104 
L 26.618283 187.04283 
L 26.822903 187.098899 
L 27.641382 187.867553 
L 27.846002 188.015485 
L 28.255241 188.762916 
L 28.8691 189.940175 
L 29.27834 190.326208 
L 29.687579 190.30074 
L 30.301439 190.124874 
L 30.710678 189.516284 
L 31.733777 187.126031 
L 31.938396 186.991148 
L 32.143016 187.045268 
L 32.552256 187.829438 
L 32.961495 188.598665 
L 33.166115 188.627374 
L 33.575354 188.15682 
L 33.984594 187.552589 
L 34.598453 187.078106 
L 35.007692 186.398676 
L 35.826171 184.568831 
L 36.030791 184.410231 
L 36.235411 184.464321 
L 36.44003 184.763397 
L 37.258509 186.471466 
L 37.872368 186.283325 
L 38.076988 186.485949 
L 38.486228 187.575246 
L 39.100087 189.932517 
L 39.304707 190.288006 
L 39.509326 190.27186 
L 39.713946 189.941695 
L 40.123185 188.738222 
L 41.350904 184.695482 
L 42.374002 183.053435 
L 43.601721 180.065002 
L 44.01096 179.75672 
L 44.4202 179.698557 
L 44.624819 179.473705 
L 45.238679 178.445984 
L 46.057157 177.975631 
L 46.466397 177.022479 
L 47.080256 175.526355 
L 47.284876 175.215721 
L 47.489496 175.126383 
L 47.694115 175.375154 
L 48.103355 176.194629 
L 48.307974 176.121323 
L 48.717214 174.873368 
L 49.126453 173.850809 
L 49.331073 173.770046 
L 49.944932 173.926381 
L 50.354172 173.635881 
L 50.968031 172.951804 
L 51.172651 173.11832 
L 51.78651 174.569388 
L 51.99113 174.5122 
L 52.195749 174.053376 
L 52.604989 172.267641 
L 53.628087 165.825586 
L 54.037327 164.725103 
L 54.446566 164.148347 
L 54.651186 164.110318 
L 55.060425 164.356163 
L 55.265045 164.31059 
L 55.469665 164.011802 
L 55.878904 162.711448 
L 56.288144 160.638941 
L 57.106623 154.725344 
L 57.515862 150.437848 
L 58.129721 141.163982 
L 58.743581 128.714688 
L 59.766679 99.679835 
L 60.175919 90.0976 
L 60.380538 87.355673 
L 60.585158 86.611396 
L 60.789778 88.132558 
L 61.199017 97.65293 
L 62.017496 130.111034 
L 62.631355 151.727763 
L 63.245215 165.980659 
L 63.654454 171.229538 
L 65.496032 187.362584 
L 65.905271 187.952246 
L 66.31451 188.306702 
L 66.51913 188.234486 
L 66.72375 187.886023 
L 67.132989 186.504018 
L 67.951468 183.270571 
L 68.156088 183.173088 
L 68.360708 183.460605 
L 68.769947 184.8096 
L 69.588426 188.066564 
L 70.202285 189.366746 
L 70.611525 190.052773 
L 71.020764 190.200504 
L 71.430004 190.21384 
L 71.839243 189.864115 
L 72.248483 189.467011 
L 72.657722 189.327598 
L 72.862342 189.448197 
L 73.476201 190.487849 
L 73.680821 190.372383 
L 74.29468 189.431219 
L 74.703919 189.247379 
L 75.317778 189.131483 
L 75.727018 189.049086 
L 76.136257 189.271069 
L 76.340877 189.487403 
L 77.159356 191.099939 
L 77.363976 191.031365 
L 77.773215 190.247223 
L 79.614793 186.121483 
L 79.819412 186.243861 
L 80.228652 187.672787 
L 80.842511 189.845014 
L 81.047131 190.166145 
L 81.251751 190.275817 
L 81.86561 190.044656 
L 82.070229 190.204777 
L 82.684089 191.548151 
L 83.093328 192.74038 
L 83.502567 194.108878 
L 83.707187 194.451059 
L 83.911807 194.436117 
L 84.321046 193.536596 
L 84.934906 191.480121 
L 85.548765 188.948476 
L 85.958004 188.248396 
L 86.367244 187.891444 
L 86.571863 187.876387 
L 86.776483 188.101726 
L 87.185723 189.364308 
L 87.799582 191.523859 
L 88.004201 191.825946 
L 88.413441 191.925752 
L 89.0273 192.138615 
L 89.43654 192.323458 
L 90.459638 193.289374 
L 91.073497 193.262673 
L 91.891976 194.119289 
L 92.096596 194.054931 
L 92.301216 193.702395 
L 92.710455 191.857666 
L 93.119695 189.865893 
L 93.528934 189.096121 
L 93.733554 189.057059 
L 94.142793 189.306374 
L 94.756652 190.095879 
L 95.575131 191.334714 
L 95.779751 191.458583 
L 96.188991 191.358719 
L 96.59823 191.329551 
L 97.007469 191.583026 
L 97.416709 191.886489 
L 97.621329 191.739619 
L 98.030568 191.111554 
L 98.235188 191.101401 
L 98.439808 191.485026 
L 99.053667 193.368043 
L 99.258286 193.526816 
L 99.462906 193.108948 
L 100.281385 189.21586 
L 100.895244 187.99148 
L 101.509103 186.232446 
L 101.713723 186.040778 
L 101.918343 186.16806 
L 102.532202 187.417019 
L 102.941442 188.383938 
L 103.146061 188.558972 
L 103.350681 188.248052 
L 104.16916 185.530244 
L 104.783019 184.763311 
L 104.987639 184.632558 
L 105.192259 184.641994 
L 105.806118 184.936739 
L 106.419977 184.490277 
L 106.624597 184.703714 
L 107.443076 186.742808 
L 108.056935 186.904191 
L 108.261554 187.236277 
L 108.670794 188.571305 
L 109.284653 190.820853 
L 110.512371 193.422478 
L 110.716991 193.613573 
L 110.921611 193.574224 
L 111.53547 193.129597 
L 111.94471 193.159109 
L 112.558569 193.63537 
L 112.763188 193.503184 
L 112.967808 192.891696 
L 113.990907 187.967188 
L 114.195527 187.488547 
L 114.400146 187.421464 
L 114.604766 187.762642 
L 115.218625 189.3847 
L 115.423245 189.54287 
L 115.627865 189.377644 
L 116.446344 187.697796 
L 116.650963 187.69338 
L 117.060203 188.228492 
L 117.674062 189.291317 
L 117.878682 189.291088 
L 118.083301 188.986248 
L 119.1064 186.22671 
L 119.31102 186.299041 
L 120.129499 187.444523 
L 120.334118 187.898643 
L 121.357217 191.68441 
L 121.561837 191.866557 
L 121.766456 191.792562 
L 122.175696 191.210529 
L 123.198794 189.466667 
L 124.221893 189.508569 
L 124.835752 189.786708 
L 125.449611 190.357154 
L 126.063471 191.724303 
L 126.26809 191.733969 
L 126.67733 191.370937 
L 127.086569 191.281197 
L 127.495809 190.549482 
L 128.723527 187.618094 
L 129.542006 186.720638 
L 129.746626 186.889822 
L 130.974344 189.487374 
L 131.383584 189.774146 
L 131.792823 190.001923 
L 133.225161 192.222304 
L 133.634401 193.179759 
L 133.83902 193.253266 
L 134.24826 192.532163 
L 134.657499 191.876078 
L 134.862119 191.809139 
L 135.271358 192.019192 
L 135.680598 192.256404 
L 135.885218 192.166234 
L 136.499077 191.103667 
L 136.908316 189.884335 
L 137.726795 185.818421 
L 137.931415 185.325325 
L 138.954513 184.303025 
L 139.363753 183.427853 
L 140.182232 181.187539 
L 140.386852 181.070783 
L 140.591471 181.346972 
L 141.000711 182.839223 
L 141.61457 185.790716 
L 142.023809 186.615698 
L 143.046908 187.303417 
L 143.456147 187.04174 
L 143.865387 186.176377 
L 144.683866 184.029015 
L 144.888486 183.872967 
L 145.297725 183.939304 
L 145.706964 183.986397 
L 146.116204 183.956742 
L 146.320824 184.176775 
L 146.730063 185.371098 
L 147.139303 186.516465 
L 147.343922 186.727407 
L 147.957781 186.827557 
L 148.367021 187.396598 
L 148.77626 187.965037 
L 149.39012 188.384225 
L 149.799359 188.198062 
L 150.003979 187.995725 
L 150.208598 187.538995 
L 150.822458 185.247659 
L 151.027077 184.970753 
L 151.640937 184.82265 
L 151.845556 184.896874 
L 152.050176 185.156342 
L 153.073275 187.303962 
L 153.482514 187.327938 
L 153.891754 187.026396 
L 154.710232 185.905494 
L 155.119472 185.750937 
L 155.324092 185.820085 
L 155.528711 186.100862 
L 156.55181 188.604946 
L 156.961049 188.373957 
L 157.370289 188.116726 
L 157.779528 188.180998 
L 158.188768 188.850648 
L 158.598007 189.377329 
L 158.802627 189.219675 
L 159.621106 187.619299 
L 160.439585 187.807899 
L 160.644204 188.067826 
L 161.258064 189.472002 
L 161.462683 189.60915 
L 161.871923 189.451123 
L 162.076543 189.582707 
L 162.485782 190.689757 
L 163.099641 192.966838 
L 163.304261 193.372345 
L 163.508881 193.388033 
L 163.7135 192.967784 
L 164.32736 190.906693 
L 164.531979 190.590983 
L 164.736599 190.521433 
L 165.964317 191.267574 
L 167.192036 193.47479 
L 167.396655 193.402488 
L 169.033613 190.612521 
L 169.442853 189.458809 
L 169.647472 189.175593 
L 169.852092 189.208231 
L 170.465951 189.692523 
L 170.875191 189.521733 
L 171.079811 189.433599 
L 171.28443 189.529104 
L 171.48905 189.921189 
L 172.102909 191.80369 
L 172.307529 191.952912 
L 172.512149 191.743777 
L 173.535247 189.578175 
L 173.739867 189.543415 
L 173.944487 189.710046 
L 174.353726 190.525621 
L 175.172205 192.416468 
L 175.376825 192.228269 
L 176.195304 190.0411 
L 176.604543 189.85445 
L 177.423022 189.63717 
L 178.036881 190.04305 
L 178.446121 189.925921 
L 178.65074 189.858723 
L 178.85536 189.924515 
L 179.673839 190.971595 
L 180.083079 190.733494 
L 180.901557 189.934238 
L 181.720036 187.763187 
L 181.924656 187.693781 
L 182.333896 188.218999 
L 182.743135 188.636236 
L 182.947755 188.567117 
L 183.356994 188.095416 
L 183.766234 187.145992 
L 184.175473 186.192782 
L 184.584713 185.670059 
L 184.993952 184.674661 
L 185.403191 183.623881 
L 185.607811 183.416639 
L 185.812431 183.546101 
L 186.42629 184.629346 
L 186.63091 184.594701 
L 187.040149 183.924792 
L 187.654008 182.328546 
L 188.063248 180.359489 
L 188.677107 177.231069 
L 191.337164 166.551736 
L 191.541783 166.138829 
L 191.746403 166.129651 
L 192.564882 167.470186 
L 192.974121 167.475807 
L 193.178741 167.599992 
L 193.587981 168.302567 
L 193.99722 168.993326 
L 194.406459 169.256494 
L 194.815699 169.230998 
L 195.020319 169.465772 
L 195.429558 170.867797 
L 195.838798 172.333749 
L 196.248037 172.926135 
L 196.657276 173.526839 
L 197.475755 174.885843 
L 197.680375 175.064778 
L 197.884995 174.975411 
L 198.294234 174.000375 
L 199.931192 168.567829 
L 200.340431 165.901817 
L 200.954291 159.574195 
L 202.182009 144.295556 
L 204.023587 127.92286 
L 204.432826 126.515301 
L 204.637446 126.413487 
L 204.842065 126.557059 
L 205.251305 127.523433 
L 205.660544 129.310143 
L 206.069784 132.83409 
L 207.092882 146.961855 
L 208.115981 161.283067 
L 209.343699 173.793908 
L 209.752939 176.899269 
L 210.162178 178.69051 
L 210.571418 179.577728 
L 210.776038 179.916984 
L 211.185277 181.363778 
L 212.003756 185.015925 
L 212.208376 185.436862 
L 212.412995 185.505751 
L 213.026855 184.968861 
L 213.845333 184.87545 
L 214.049953 184.543564 
L 215.277672 180.534265 
L 215.891531 180.387136 
L 216.50539 179.317628 
L 216.914629 178.55058 
L 217.323869 176.976677 
L 217.937728 173.287676 
L 218.960827 166.013497 
L 219.370066 165.288265 
L 219.983925 164.930452 
L 220.393165 165.010757 
L 221.007024 165.590065 
L 221.416263 166.154173 
L 222.030123 167.246338 
L 222.439362 167.578969 
L 222.643982 168.032946 
L 223.053221 170.16568 
L 223.66708 176.064393 
L 224.28094 181.058249 
L 224.690179 182.696053 
L 224.894799 182.950445 
L 225.099418 182.763451 
L 226.327137 179.526477 
L 226.531757 179.340601 
L 226.736376 179.322103 
L 227.554855 179.575491 
L 227.759475 179.227028 
L 228.168714 177.823398 
L 228.782574 175.427208 
L 228.987193 175.202701 
L 229.191813 175.470257 
L 229.601052 177.02876 
L 230.624151 181.563305 
L 231.44263 184.574567 
L 231.851869 185.58574 
L 232.056489 185.75088 
L 232.465729 185.799378 
L 232.670348 186.022107 
L 233.693447 188.428478 
L 233.898067 188.213148 
L 234.307306 186.669588 
L 234.716546 184.802545 
L 234.921165 184.263303 
L 235.125785 184.050497 
L 235.330405 184.108201 
L 235.944264 184.643887 
L 236.148884 184.646784 
L 236.762743 184.230521 
L 237.376602 184.623754 
L 237.581222 184.441291 
L 237.990461 183.83726 
L 238.195081 183.935203 
L 238.60432 185.096114 
L 239.422799 187.864915 
L 240.445898 193.510153 
L 240.650518 193.271191 
L 241.059757 191.206112 
L 241.468997 189.282254 
L 241.673616 188.880275 
L 241.878236 188.859969 
L 242.492095 189.581187 
L 242.696715 189.472776 
L 243.105954 188.733748 
L 243.719814 187.210723 
L 244.333673 186.443388 
L 244.742912 186.227886 
L 245.356771 186.173796 
L 245.561391 185.858143 
L 246.58449 183.068893 
L 246.993729 182.215805 
L 247.402969 180.680992 
L 248.016828 177.943682 
L 248.426067 177.085259 
L 249.449166 175.346187 
L 250.063025 173.903408 
L 250.472265 173.353755 
L 250.676884 172.722392 
L 251.086124 170.476486 
L 251.904603 164.571837 
L 252.518462 160.218119 
L 252.723082 159.656506 
L 252.927701 159.727547 
L 253.336941 160.966324 
L 253.9508 163.173971 
L 254.15542 163.259639 
L 254.360039 162.731123 
L 254.973899 159.96823 
L 255.587758 158.166979 
L 256.610856 153.282881 
L 256.815476 153.650129 
L 257.224716 156.33114 
L 257.633955 159.132837 
L 258.247814 161.261585 
L 259.475533 165.398626 
L 259.680152 165.453146 
L 260.089392 165.243839 
L 260.294011 165.401006 
L 260.498631 166.00561 
L 260.907871 168.762824 
L 261.52173 173.314148 
L 261.72635 173.874212 
L 261.930969 174.080135 
L 262.135589 174.062669 
L 262.544828 173.517805 
L 263.772547 171.524627 
L 263.977167 171.652598 
L 264.591026 172.504223 
L 264.795645 172.536746 
L 265.204885 172.315853 
L 265.409505 172.138352 
L 265.818744 171.281736 
L 266.432603 169.588925 
L 266.841843 169.037723 
L 267.046462 169.11252 
L 267.455702 170.196913 
L 267.864941 171.231661 
L 268.069561 171.319536 
L 268.274181 171.117772 
L 268.88804 169.888373 
L 269.09266 169.234152 
L 269.501899 166.738529 
L 270.729618 157.335688 
L 271.138857 156.593018 
L 271.548096 156.543057 
L 272.161956 156.599069 
L 272.366575 156.437572 
L 272.775815 155.534753 
L 273.389674 153.597874 
L 273.798913 151.524593 
L 274.412773 148.088551 
L 274.822012 147.070151 
L 275.231251 146.302042 
L 275.640491 144.944988 
L 276.04973 142.666157 
L 276.868209 137.636249 
L 277.686688 134.412554 
L 278.095928 133.676566 
L 278.709787 133.099466 
L 279.119026 132.881297 
L 279.528266 132.203559 
L 279.937505 131.175637 
L 280.346745 129.4193 
L 281.779083 119.895371 
L 282.802181 110.258902 
L 283.211421 108.752225 
L 283.62066 108.37861 
L 283.82528 108.230821 
L 284.234519 107.325621 
L 284.439139 106.824495 
L 284.643759 106.72357 
L 284.848379 107.184085 
L 286.076097 112.066033 
L 286.689956 112.90435 
L 287.099196 113.679343 
L 287.508435 114.579896 
L 287.713055 114.784357 
L 287.917675 114.738239 
L 288.122294 114.351288 
L 288.326914 113.501326 
L 288.736153 109.882419 
L 289.350013 100.232959 
L 289.963872 87.56736 
L 290.577731 69.604929 
L 292.214689 9.968259 
L 292.623928 4.613378 
L 292.828548 3.360031 
L 293.033168 3.00024 
L 293.237787 3.76247 
L 293.442407 5.984113 
L 293.851647 15.09479 
L 295.693224 67.670574 
L 296.511703 85.064308 
L 297.739421 115.348436 
L 298.5579 129.874423 
L 299.17176 138.087014 
L 299.785619 143.737844 
L 300.399478 147.181458 
L 300.808717 148.518723 
L 301.013337 148.802512 
L 301.217957 148.879977 
L 301.422577 148.801738 
L 301.627196 148.526266 
L 302.036436 147.346913 
L 302.650295 145.472213 
L 303.264154 143.731678 
L 304.082633 141.15836 
L 304.491872 140.420107 
L 305.310351 138.394636 
L 305.514971 138.641313 
L 306.33345 140.531586 
L 307.561168 142.83405 
L 308.788887 146.0007 
L 309.198126 147.918163 
L 309.607366 151.008381 
L 310.630464 160.332151 
L 311.653563 166.797208 
L 312.062802 169.678062 
L 312.267422 170.524984 
L 312.472042 170.831803 
L 312.676662 170.650144 
L 313.49514 168.38399 
L 313.69976 168.440575 
L 313.90438 168.951941 
L 314.313619 171.049772 
L 315.132098 176.03164 
L 315.541338 177.269901 
L 316.359817 178.577109 
L 316.769056 179.221608 
L 317.178295 179.396097 
L 317.382915 179.340286 
L 317.792155 178.862017 
L 318.406014 177.922028 
L 318.610634 177.805215 
L 318.815253 177.882048 
L 319.224493 178.717269 
L 319.633732 179.451536 
L 319.838352 179.218166 
L 320.042972 178.372707 
L 320.861451 173.163033 
L 321.679929 170.840321 
L 321.884549 170.506801 
L 322.089169 170.39839 
L 322.703028 170.482968 
L 322.907648 170.426239 
L 323.112268 170.488933 
L 323.316887 170.771059 
L 323.726127 171.720598 
L 323.930746 171.854849 
L 324.135366 171.397919 
L 325.976944 161.864182 
L 326.590803 158.948797 
L 327.000042 158.050452 
L 327.409282 157.56401 
L 327.613902 157.682028 
L 328.023141 158.855243 
L 328.637 160.740555 
L 329.04624 161.383476 
L 329.250859 161.340828 
L 329.660099 160.664123 
L 330.273958 159.443414 
L 330.887817 158.754805 
L 331.297057 157.601925 
L 331.910916 155.853187 
L 332.934014 153.481892 
L 333.343254 152.71146 
L 333.547874 152.639415 
L 334.161733 153.027772 
L 334.366353 152.89418 
L 334.980212 151.97877 
L 335.389451 151.856593 
L 336.20793 151.756471 
L 336.41255 151.578454 
L 336.821789 150.688885 
L 337.844888 147.73048 
L 338.254127 147.38153 
L 338.458747 147.574317 
L 338.867987 148.957241 
L 339.891085 153.5293 
L 340.914184 157.163407 
L 341.528043 159.574998 
L 342.141902 161.759414 
L 342.346522 162.136098 
L 342.551142 162.186288 
L 343.165001 161.776937 
L 343.57424 161.995881 
L 343.77886 162.136585 
L 343.98348 162.067667 
L 344.392719 161.082364 
L 345.415818 158.078042 
L 345.620438 157.919528 
L 346.029677 158.08395 
L 346.234297 158.343792 
L 346.438916 158.834679 
L 346.848156 160.652765 
L 347.666635 164.9957 
L 348.075874 166.089528 
L 348.280494 166.30328 
L 348.485114 166.218158 
L 348.894353 165.307337 
L 349.303593 163.760736 
L 349.712832 160.909452 
L 350.531311 154.475139 
L 351.14517 150.860592 
L 352.168269 146.422154 
L 352.782128 144.966412 
L 353.191367 144.522043 
L 353.395987 144.514156 
L 353.600607 144.657814 
L 354.009846 145.464211 
L 354.623705 147.757353 
L 355.032945 149.653851 
L 355.646804 154.492462 
L 356.465283 160.28503 
L 357.693001 166.95905 
L 358.306861 168.943308 
L 358.92072 171.215542 
L 359.943818 175.65791 
L 360.148438 175.919243 
L 360.353058 175.872867 
L 360.966917 175.171153 
L 361.580776 175.187127 
L 361.785396 174.957113 
L 362.194635 173.881726 
L 363.013114 171.168622 
L 363.422354 170.708078 
L 364.036213 170.625106 
L 364.854692 169.531937 
L 365.059312 169.640663 
L 365.263931 170.035616 
L 365.673171 171.71968 
L 366.49165 176.853897 
L 366.900889 179.184582 
L 367.310129 180.317587 
L 367.719368 180.718735 
L 368.128607 181.072704 
L 368.537847 181.688235 
L 369.151706 183.245734 
L 369.970185 185.272382 
L 370.788664 186.787635 
L 370.993284 186.86639 
L 371.197903 186.710801 
L 372.016382 185.154994 
L 372.221002 185.393411 
L 372.834861 186.546751 
L 373.039481 186.65628 
L 373.65334 186.652666 
L 374.06258 186.855291 
L 374.471819 186.729242 
L 374.676439 186.811525 
L 375.085678 187.492992 
L 376.108777 189.297111 
L 376.313397 189.540317 
L 376.518016 189.47811 
L 376.722636 189.014985 
L 377.541115 186.193986 
L 377.745735 186.10112 
L 377.950354 186.442356 
L 379.382692 190.815777 
L 379.587312 190.827478 
L 379.791932 190.462582 
L 380.201171 188.840037 
L 380.610411 187.094225 
L 380.815031 186.630267 
L 381.01965 186.567831 
L 381.22427 186.900175 
L 382.861228 191.574077 
L 383.065848 191.378738 
L 384.088946 188.781701 
L 384.702805 187.992943 
L 385.112045 187.87762 
L 385.725904 187.917916 
L 385.930524 188.140358 
L 386.339763 189.070768 
L 387.158242 191.248272 
L 387.362862 191.43604 
L 387.567482 191.420295 
L 387.976721 190.938413 
L 388.7952 189.536532 
L 388.99982 189.64434 
L 389.613679 190.536576 
L 390.432158 190.872076 
L 391.250637 190.419992 
L 391.455256 190.404476 
L 391.659876 190.245445 
L 392.069115 189.27041 
L 392.478355 188.247622 
L 392.682975 188.040322 
L 392.887594 188.062176 
L 394.115313 189.031218 
L 394.524552 189.231691 
L 394.933792 189.490242 
L 395.138411 189.401592 
L 395.547651 188.659066 
L 396.36613 186.708535 
L 396.570749 186.58696 
L 396.775369 186.796726 
L 397.184609 187.594777 
L 397.389228 187.611957 
L 397.593848 187.195236 
L 398.616947 183.531761 
L 398.821566 183.391945 
L 399.026186 183.500241 
L 399.435426 184.380375 
L 400.049285 186.191491 
L 400.253905 186.386516 
L 400.458524 186.256423 
L 400.867764 185.635672 
L 401.277003 185.50231 
L 401.686243 185.391346 
L 403.118581 184.960486 
L 403.52782 185.102567 
L 403.93706 185.450485 
L 404.346299 186.203881 
L 404.755539 187.112781 
L 404.960158 187.283886 
L 405.369398 187.376465 
L 405.983257 187.834055 
L 406.392496 187.253485 
L 406.597116 186.961866 
L 406.801736 186.951885 
L 407.210975 187.324497 
L 407.415595 187.238342 
L 407.824834 186.713038 
L 408.029454 186.660467 
L 408.438694 186.918158 
L 408.847933 187.496692 
L 409.461792 188.625797 
L 409.871032 188.836107 
L 410.484891 189.083071 
L 410.89413 188.823001 
L 411.30337 188.521659 
L 411.712609 188.506373 
L 411.917229 188.331281 
L 412.531088 187.189069 
L 412.735708 187.341418 
L 413.144947 188.758786 
L 413.758807 190.907352 
L 414.168046 191.395257 
L 414.372666 191.369072 
L 414.577285 191.125665 
L 415.395764 189.551818 
L 415.600384 189.604045 
L 416.009624 190.122838 
L 416.418863 191.008191 
L 416.828102 191.883793 
L 417.237342 192.159294 
L 417.441962 192.176674 
L 417.851201 191.892512 
L 419.078919 190.670598 
L 419.488159 190.020422 
L 419.692779 190.047983 
L 420.102018 190.872477 
L 420.715877 192.860865 
L 421.329736 194.933056 
L 421.534356 195.308277 
L 421.738976 195.427644 
L 421.943596 195.242027 
L 422.352835 194.150406 
L 422.762075 193.019351 
L 423.171314 192.502623 
L 423.580553 192.397969 
L 423.989793 192.401067 
L 424.603652 192.063761 
L 425.012892 192.23673 
L 425.217511 192.349328 
L 425.422131 192.313392 
L 425.626751 192.03184 
L 426.649849 189.562258 
L 427.672948 189.413523 
L 427.877568 189.720858 
L 428.696047 192.422749 
L 428.900666 192.20653 
L 429.309906 191.519184 
L 429.719145 191.296454 
L 429.923765 190.888567 
L 430.333004 188.871699 
L 430.946864 185.693548 
L 431.356103 184.584118 
L 431.765342 183.621845 
L 432.174582 182.693815 
L 432.379202 182.880092 
L 432.788441 184.861339 
L 433.4023 188.558284 
L 433.81154 189.551417 
L 434.425399 190.131614 
L 434.834638 190.925765 
L 435.448498 192.347636 
L 435.653117 192.557344 
L 435.857737 192.445177 
L 436.676216 190.752709 
L 437.903934 190.3051 
L 438.313174 190.434705 
L 438.722413 190.877324 
L 440.76861 194.199363 
L 441.38247 194.052034 
L 441.791709 193.96499 
L 442.405568 193.157732 
L 442.814808 192.576646 
L 443.224047 191.207632 
L 443.633287 189.829642 
L 443.837906 189.65217 
L 444.042526 189.876018 
L 444.861005 191.628225 
L 445.065625 191.563896 
L 445.474864 191.263272 
L 445.884104 191.392676 
L 446.497963 191.512845 
L 446.907202 191.629745 
L 447.111822 191.553514 
L 447.316442 191.283319 
L 447.725681 189.930309 
L 448.33954 187.293723 
L 448.54416 186.947612 
L 448.74878 186.917699 
L 448.9534 187.13257 
L 449.362639 188.057903 
L 450.181118 190.301228 
L 450.385738 190.084407 
L 450.794977 188.537061 
L 451.204217 186.669961 
L 451.408836 186.162037 
L 451.613456 186.113998 
L 452.022695 187.098727 
L 452.227315 187.607167 
L 452.431935 187.812832 
L 452.636555 187.693121 
L 453.455034 186.530633 
L 454.273512 187.0537 
L 454.478132 187.273962 
L 454.887372 188.313872 
L 455.501231 190.663514 
L 455.705851 191.050208 
L 455.91047 191.15228 
L 456.11509 191.034835 
L 456.524329 190.280607 
L 457.138189 188.988198 
L 457.342808 188.852656 
L 457.547428 188.970961 
L 458.161287 189.862337 
L 458.365907 189.688134 
L 459.184386 188.074767 
L 459.593625 187.963029 
L 460.002865 188.037053 
L 460.412104 188.36759 
L 460.616724 188.372781 
L 461.230583 187.844409 
L 461.435203 188.195424 
L 462.253682 190.873338 
L 462.458302 190.988947 
L 462.867541 190.799716 
L 463.072161 190.920602 
L 464.095259 192.425473 
L 464.299879 192.401669 
L 464.709119 191.698491 
L 465.118358 190.717691 
L 465.936837 188.046976 
L 466.141457 187.987063 
L 466.550696 188.04058 
L 466.959936 187.849055 
L 467.778414 188.268013 
L 467.983034 188.252296 
L 468.392274 188.581171 
L 468.801513 188.94925 
L 469.210752 189.021151 
L 469.415372 189.242905 
L 470.233851 191.033315 
L 470.438471 191.02494 
L 470.84771 190.615762 
L 471.25695 190.228036 
L 471.461569 190.386207 
L 472.075429 191.270929 
L 472.280048 191.215892 
L 472.689288 190.440097 
L 473.507767 188.590004 
L 473.917006 188.295947 
L 474.121626 188.349063 
L 474.530865 188.799024 
L 474.940105 189.466007 
L 475.144725 189.56808 
L 475.349344 189.312541 
L 476.167823 187.149692 
L 477.190922 185.527978 
L 477.395542 185.644448 
L 478.009401 186.476169 
L 478.62326 186.688201 
L 479.032499 186.560431 
L 479.646359 186.169322 
L 480.260218 185.701865 
L 480.669457 185.762581 
L 481.487936 186.213145 
L 481.692556 186.405158 
L 482.101795 187.297595 
L 482.920274 189.763391 
L 483.124894 190.12192 
L 483.329514 190.242663 
L 483.534133 190.10953 
L 484.352612 189.065577 
L 485.171091 188.998982 
L 485.375711 188.90927 
L 485.580331 189.057804 
L 485.98957 189.798295 
L 486.19419 189.868016 
L 486.808049 189.298057 
L 487.217288 189.329863 
L 487.831148 188.927683 
L 488.240387 188.744389 
L 488.854246 188.704724 
L 489.058866 188.33934 
L 490.081965 185.103026 
L 490.900444 184.99516 
L 491.309683 185.179028 
L 491.923542 185.849912 
L 492.946641 187.128927 
L 493.151261 186.967287 
L 493.76512 185.962596 
L 493.969739 185.918601 
L 494.174359 186.116063 
L 495.402078 188.576209 
L 495.811317 189.383495 
L 496.220556 190.097428 
L 496.425176 190.067113 
L 496.834416 189.482814 
L 497.652895 187.602578 
L 497.857514 187.70445 
L 498.062134 188.385171 
L 498.880613 192.678862 
L 499.699092 195.041725 
L 499.903712 195.240535 
L 500.108331 195.175976 
L 500.312951 194.868842 
L 500.72219 193.571758 
L 501.13143 192.344022 
L 501.540669 191.763624 
L 501.745289 191.668722 
L 501.949909 191.845763 
L 502.359148 193.050354 
L 502.768388 194.413747 
L 502.973007 194.684343 
L 503.177627 194.686723 
L 503.586867 194.258387 
L 504.814585 192.352167 
L 505.223824 191.876939 
L 506.042303 190.276993 
L 506.451543 190.183554 
L 506.656162 189.989447 
L 507.065402 189.063368 
L 507.679261 187.047533 
L 508.49774 185.891125 
L 508.906979 185.506468 
L 509.111599 185.597413 
L 509.520839 186.290437 
L 510.134698 187.46001 
L 510.339318 187.467725 
L 510.543937 187.167789 
L 511.157796 185.290679 
L 512.590135 181.028652 
L 512.999374 180.414009 
L 513.203994 180.337176 
L 513.408613 180.405233 
L 513.613233 180.648239 
L 514.022473 181.769773 
L 514.431712 183.359336 
L 514.636332 183.751651 
L 514.840952 183.75687 
L 516.06867 182.38126 
L 516.682529 181.137751 
L 517.091769 179.529144 
L 517.501008 176.372072 
L 518.114867 169.676571 
L 520.161064 143.042554 
L 520.365684 141.900858 
L 520.570304 141.441662 
L 520.774924 141.603045 
L 520.979543 142.368572 
L 521.388783 145.619342 
L 522.821121 161.922546 
L 523.6396 171.367805 
L 524.458079 178.000554 
L 524.867318 180.134465 
L 525.276558 180.949581 
L 525.481177 180.999283 
L 526.095037 180.796142 
L 526.299656 180.963462 
L 527.731994 183.262283 
L 527.936614 183.256748 
L 528.345854 182.426231 
L 528.959713 180.575392 
L 529.368952 178.499501 
L 530.392051 172.232107 
L 530.596671 172.008861 
L 530.80129 172.317115 
L 531.415149 174.328647 
L 531.824389 176.163798 
L 533.052107 183.68104 
L 533.870586 188.607355 
L 534.279826 190.463442 
L 534.484445 190.983326 
L 534.689065 191.099279 
L 534.893685 190.862726 
L 535.507544 189.745638 
L 535.712164 189.850349 
L 536.121403 190.941453 
L 536.939882 193.769277 
L 537.349122 194.597959 
L 537.553741 194.820114 
L 537.758361 194.774685 
L 538.1676 193.907228 
L 539.395319 190.670541 
L 540.009178 190.76421 
L 540.418417 190.626947 
L 540.623037 190.693801 
L 541.441516 191.435438 
L 541.646136 191.157786 
L 542.055375 189.873895 
L 542.873854 186.982688 
L 543.078474 186.747253 
L 543.283094 186.828533 
L 543.692333 187.551643 
L 544.306192 188.840524 
L 544.510812 189.082785 
L 544.715432 189.121331 
L 544.920051 188.93927 
L 545.124671 188.491173 
L 545.94315 185.565606 
L 546.14777 185.491382 
L 546.761629 185.903859 
L 547.580108 185.762409 
L 547.784728 186.023311 
L 548.807826 188.273892 
L 549.012446 188.109183 
L 550.035545 185.731951 
L 550.240164 185.690852 
L 550.444784 185.804196 
L 550.854023 186.4351 
L 551.263263 186.933588 
L 551.467883 186.737617 
L 551.877122 186.029908 
L 552.081742 185.939508 
L 552.490981 185.930675 
L 552.900221 185.799119 
L 553.10484 186.176147 
L 553.51408 188.058878 
L 554.127939 190.780328 
L 554.537179 191.618589 
L 554.741798 191.790268 
L 554.946418 191.75218 
L 555.560277 191.003373 
L 556.583376 189.714147 
L 556.992615 189.474439 
L 557.606474 188.672775 
L 558.220334 188.515006 
L 559.243432 187.480201 
L 560.061911 188.110531 
L 560.471151 187.89632 
L 561.08501 187.916568 
L 561.28963 187.875699 
L 561.494249 188.008803 
L 561.698869 188.437455 
L 562.312728 190.462467 
L 562.721968 191.024654 
L 563.335827 191.577404 
L 563.949686 191.805124 
L 564.358925 192.249951 
L 564.563545 192.325839 
L 565.177404 192.259473 
L 565.382024 192.253909 
L 565.791264 191.836615 
L 566.814362 190.484694 
L 567.837461 189.400961 
L 568.45132 188.213636 
L 568.65594 188.052655 
L 568.860559 188.088218 
L 569.269799 188.625194 
L 569.883658 189.893254 
L 570.702137 192.213901 
L 570.906757 192.389681 
L 571.520616 192.412166 
L 572.134475 193.292012 
L 572.339095 193.197454 
L 573.362193 191.575712 
L 573.771433 191.468563 
L 574.589912 192.07595 
L 574.794532 191.808508 
L 575.61301 189.936877 
L 576.02225 189.646663 
L 576.636109 189.524257 
L 576.840729 189.262723 
L 577.659208 187.416187 
L 577.863827 187.534263 
L 578.682306 188.753566 
L 579.091546 188.987137 
L 579.500785 188.933562 
L 579.910025 188.823374 
L 580.319264 188.793173 
L 581.342363 188.033353 
L 581.546983 187.899245 
L 581.751602 187.98213 
L 582.160842 189.042403 
L 582.774701 190.710005 
L 583.38856 191.839138 
L 583.59318 191.953428 
L 583.797799 191.885227 
L 584.207039 191.385535 
L 585.843997 188.730221 
L 586.253236 188.337103 
L 586.457856 188.348633 
L 586.867095 188.788843 
L 587.276335 189.132458 
L 587.480955 188.984469 
L 587.890194 188.059021 
L 588.299433 187.220531 
L 588.504053 187.254058 
L 588.913293 188.246962 
L 589.322532 189.274482 
L 589.527152 189.417366 
L 589.731772 189.21847 
L 590.141011 188.060886 
L 590.55025 186.23715 
L 591.16411 183.343161 
L 591.368729 183.223221 
L 591.982589 183.843599 
L 592.187208 183.627466 
L 592.596448 182.863028 
L 592.801067 182.709762 
L 593.005687 182.813727 
L 593.619546 183.58545 
L 593.824166 183.606644 
L 595.051884 182.887406 
L 595.665744 182.021469 
L 595.870363 182.007387 
L 596.074983 182.364655 
L 596.484223 184.148668 
L 597.302701 188.505857 
L 597.507321 188.953896 
L 597.711941 189.097096 
L 597.916561 188.942453 
L 598.3258 187.741677 
L 598.73504 186.14242 
L 598.939659 185.754465 
L 599.144279 185.742218 
L 599.553518 186.002375 
L 599.758138 185.933629 
L 599.962758 185.617575 
L 600.985857 182.936994 
L 601.190476 182.923026 
L 601.395096 183.216223 
L 602.008955 185.169736 
L 602.418195 186.181797 
L 602.622814 186.248995 
L 602.827434 186.00031 
L 603.236674 184.580561 
L 604.055152 180.577916 
L 604.464392 179.771203 
L 605.078251 178.93822 
L 606.305969 176.819768 
L 606.510589 176.914756 
L 607.124448 177.56456 
L 607.329068 177.471379 
L 608.147547 176.350878 
L 608.556786 174.86376 
L 609.170646 172.302947 
L 609.579885 171.814783 
L 609.784505 171.80681 
L 610.602984 172.242833 
L 611.012223 172.132817 
L 611.216843 172.206983 
L 611.830702 173.008619 
L 612.444561 173.066123 
L 612.853801 173.971724 
L 613.26304 174.920518 
L 613.876899 175.744409 
L 614.490759 176.963312 
L 614.899998 177.091225 
L 615.309237 177.036417 
L 615.718477 176.603664 
L 616.332336 175.937656 
L 616.741576 175.802601 
L 617.150815 175.21096 
L 617.355435 174.883549 
L 617.560054 174.836743 
L 617.969294 175.520418 
L 618.173914 175.860334 
L 618.378533 175.971383 
L 618.583153 175.806932 
L 618.992393 174.782251 
L 619.606252 173.213911 
L 620.220111 172.129776 
L 620.424731 171.982304 
L 620.83397 172.171735 
L 621.03859 172.238474 
L 621.24321 172.019903 
L 621.857069 170.429164 
L 622.061688 170.359644 
L 622.880167 171.170916 
L 623.084787 171.743886 
L 623.494026 173.923685 
L 624.107886 177.55848 
L 624.312505 178.267594 
L 624.517125 178.569251 
L 624.926365 178.479224 
L 625.335604 178.446501 
L 625.744843 178.868269 
L 626.154083 179.508179 
L 626.358703 179.606551 
L 626.563322 179.338938 
L 626.972562 177.750206 
L 627.791041 174.117304 
L 628.20028 173.275544 
L 629.223379 172.153065 
L 629.837238 171.89526 
L 630.246477 171.859123 
L 630.451097 171.672071 
L 631.474196 169.974069 
L 631.678816 169.92646 
L 631.883435 170.044622 
L 632.292675 170.839145 
L 632.701914 171.741707 
L 633.111154 172.118964 
L 633.929633 172.61685 
L 634.543492 173.000273 
L 634.952731 173.233729 
L 636.385069 174.514551 
L 636.794309 173.847367 
L 637.203548 173.199485 
L 637.612788 172.986364 
L 638.022027 173.277724 
L 638.431267 173.552106 
L 638.840506 173.434805 
L 639.045126 173.339444 
L 639.249745 173.375466 
L 639.658985 173.972212 
L 640.068224 175.209842 
L 640.886703 179.061372 
L 641.091323 179.357379 
L 641.295943 179.28304 
L 641.909802 178.567043 
L 642.319041 178.545934 
L 643.13752 178.676687 
L 643.34214 178.789743 
L 643.54676 179.03599 
L 643.955999 180.088978 
L 644.365239 181.121546 
L 644.569858 181.168897 
L 644.774478 180.826974 
L 645.388337 179.151112 
L 645.592957 178.916394 
L 645.797577 178.896261 
L 646.206816 179.017836 
L 646.616056 178.637911 
L 647.229915 177.663707 
L 647.639154 177.054399 
L 647.843774 177.111702 
L 648.253013 177.785052 
L 648.866873 178.950094 
L 649.071492 178.879856 
L 649.276112 178.33875 
L 649.889971 176.050827 
L 650.094591 175.832314 
L 650.299211 175.863489 
L 650.91307 176.580863 
L 651.526929 176.405485 
L 651.731549 176.626579 
L 652.140788 177.793542 
L 652.754647 179.854519 
L 652.959267 180.075413 
L 653.163887 179.924556 
L 653.368507 179.352159 
L 653.777746 177.188479 
L 654.596225 172.734266 
L 655.210084 170.528569 
L 655.414704 170.129171 
L 655.619324 170.063579 
L 656.028563 170.625995 
L 656.642422 171.605534 
L 657.256281 173.567995 
L 658.27938 176.835284 
L 658.68862 177.652264 
L 659.097859 178.076327 
L 659.302479 178.036548 
L 659.711718 177.328093 
L 660.325577 175.509635 
L 661.348676 171.395223 
L 661.962535 170.443963 
L 662.167155 170.320983 
L 662.371775 170.449097 
L 662.781014 171.566385 
L 663.394873 173.567593 
L 663.804113 174.344335 
L 664.008732 174.572084 
L 664.213352 174.528977 
L 664.417972 174.094446 
L 665.236451 171.064685 
L 665.44107 170.818783 
L 665.64569 170.773927 
L 665.85031 170.852912 
L 666.05493 171.081807 
L 666.668789 172.186506 
L 666.873409 172.155388 
L 667.282648 171.560506 
L 667.691887 170.39254 
L 668.305747 168.254671 
L 668.919606 167.535691 
L 669.328845 166.213913 
L 670.556564 161.705639 
L 671.170423 159.573736 
L 671.579662 157.925952 
L 671.784282 157.448544 
L 671.988902 157.285068 
L 672.602761 157.516114 
L 673.21662 157.687793 
L 673.42124 157.550071 
L 673.830479 157.044098 
L 674.035099 157.040054 
L 674.648958 157.587011 
L 675.058198 157.422244 
L 675.262817 157.231235 
L 675.467437 156.830345 
L 675.876677 155.139083 
L 676.899775 150.40891 
L 677.309015 149.398971 
L 678.127494 148.40948 
L 678.536733 147.35612 
L 679.150592 144.796826 
L 679.559832 142.130442 
L 680.58293 134.466501 
L 680.78755 133.688526 
L 680.99217 133.422863 
L 681.196789 133.622533 
L 681.606029 134.870718 
L 682.219888 137.736887 
L 682.629128 139.692982 
L 682.833747 140.272778 
L 683.038367 140.464016 
L 683.242987 140.301745 
L 683.652226 139.40099 
L 684.266085 137.379132 
L 685.493804 132.773919 
L 685.903043 131.54779 
L 686.107663 131.272203 
L 686.312283 131.244871 
L 687.130762 131.69988 
L 687.335381 131.411531 
L 687.540001 130.766057 
L 687.94924 128.191793 
L 688.5631 122.428279 
L 689.995438 107.004978 
L 690.404677 104.789502 
L 690.609297 105.037584 
L 690.813917 106.3016 
L 691.223156 111.219483 
L 691.837015 119.31526 
L 692.450874 124.382107 
L 693.064734 127.156587 
L 693.269353 127.63454 
L 693.473973 127.7486 
L 693.678593 127.431657 
L 694.087832 125.619393 
L 694.701691 122.165512 
L 695.110931 121.007412 
L 695.315551 120.898743 
L 695.52017 121.228764 
L 695.72479 122.104624 
L 696.13403 125.371999 
L 696.747889 130.297913 
L 697.157128 131.353396 
L 697.361748 131.512513 
L 697.566368 131.471271 
L 697.770987 131.099377 
L 698.180227 129.132356 
L 698.998706 122.298129 
L 699.817185 115.270311 
L 700.021804 114.376555 
L 700.226424 114.45118 
L 700.431044 115.647454 
L 700.840283 120.832951 
L 701.658762 132.165042 
L 702.272621 138.059882 
L 702.681861 140.385662 
L 703.29572 142.943464 
L 704.932678 153.668828 
L 705.546537 155.349221 
L 705.955776 156.185302 
L 706.160396 156.352507 
L 706.569636 156.301743 
L 706.978875 156.132531 
L 707.183495 155.829125 
L 707.592734 154.658405 
L 708.001974 152.889764 
L 709.434312 144.932684 
L 709.843551 143.91219 
L 710.048171 143.78379 
L 710.252791 143.8733 
L 710.66203 144.583992 
L 711.07127 146.04828 
L 711.685129 148.928675 
L 711.889748 149.389908 
L 712.298988 149.558662 
L 712.708227 149.813799 
L 713.731326 150.958305 
L 714.140565 152.009315 
L 714.549805 153.182931 
L 714.754425 153.497379 
L 715.163664 153.614767 
L 715.368284 153.54668 
L 715.572904 153.32375 
L 715.982143 152.297578 
L 716.391382 151.130759 
L 716.596002 150.86303 
L 717.209861 150.615177 
L 718.02834 149.483807 
L 718.23296 149.607733 
L 718.43758 149.98631 
L 718.846819 151.626837 
L 719.256059 153.636305 
L 719.460678 154.229925 
L 719.665298 154.428563 
L 719.869918 154.333861 
L 720.688397 153.56059 
L 721.097636 153.409417 
L 721.302256 153.542608 
L 722.120735 154.561552 
L 722.325355 154.5477 
L 722.529974 154.333948 
L 723.553073 152.386543 
L 723.757693 152.243286 
L 724.166932 152.433091 
L 724.576172 152.640591 
L 724.780791 152.506455 
L 726.00851 150.935505 
L 726.622369 151.057624 
L 726.826989 150.902838 
L 727.236228 150.342373 
L 727.645467 150.262728 
L 728.054707 150.275519 
L 728.259327 150.195818 
L 728.668566 149.590439 
L 729.077806 148.971409 
L 730.100904 148.139802 
L 730.510144 147.284247 
L 731.124003 145.416832 
L 731.737862 142.86164 
L 732.147101 141.093744 
L 732.351721 140.640169 
L 732.556341 140.676794 
L 733.1702 141.974709 
L 733.37482 142.096169 
L 733.988679 142.038436 
L 734.397918 142.333009 
L 734.602538 142.243556 
L 735.011778 141.179325 
L 736.034876 137.826599 
L 736.444116 137.349592 
L 737.057975 137.156547 
L 737.467214 136.696691 
L 738.081073 135.819683 
L 738.694933 134.609242 
L 738.899552 134.552226 
L 739.104172 134.731562 
L 739.922651 136.315389 
L 740.53651 136.331077 
L 741.354989 137.303962 
L 741.559609 137.209834 
L 742.173468 136.63391 
L 742.787327 136.835301 
L 742.991947 136.505452 
L 743.401186 134.770452 
L 743.810426 131.707193 
L 745.652003 114.757139 
L 745.856623 114.067699 
L 746.061243 113.899118 
L 746.470482 114.437328 
L 746.879722 115.259814 
L 747.288961 116.955752 
L 747.698201 119.957894 
L 748.31206 124.748237 
L 748.721299 126.812283 
L 748.925919 127.332568 
L 749.130539 127.315446 
L 749.744398 125.878833 
L 749.949018 125.992177 
L 750.358257 126.996265 
L 750.767497 128.038957 
L 750.972116 128.235272 
L 751.176736 128.130533 
L 751.585975 127.297635 
L 751.995215 125.860994 
L 752.404454 123.606025 
L 753.632173 115.86525 
L 754.246032 112.637913 
L 755.064511 107.856747 
L 755.47375 106.554128 
L 755.67837 106.194337 
L 755.88299 106.168984 
L 756.087609 106.650751 
L 756.496849 109.086146 
L 758.133807 120.648567 
L 758.543046 122.024808 
L 759.975384 124.71362 
L 760.793863 124.710064 
L 761.203103 125.168428 
L 761.816962 126.326328 
L 762.021582 126.469527 
L 762.226201 126.392694 
L 762.635441 125.71289 
L 763.04468 124.411246 
L 764.067779 120.578186 
L 764.681638 119.33634 
L 765.090877 118.273715 
L 765.295497 118.136653 
L 765.500117 118.456149 
L 765.909356 120.356891 
L 766.727835 124.915155 
L 767.750934 128.245654 
L 767.955554 128.223313 
L 768.364793 127.277617 
L 768.774033 126.459432 
L 768.978652 126.407521 
L 769.183272 126.623539 
L 770.41099 129.02079 
L 770.61561 129.107031 
L 770.82023 128.978344 
L 771.02485 128.530878 
L 772.252568 124.291995 
L 772.661807 124.053979 
L 772.866427 124.068663 
L 773.071047 124.203287 
L 773.480286 124.935776 
L 773.889526 125.741771 
L 774.503385 126.402416 
L 775.321864 126.978598 
L 775.731103 127.150564 
L 776.140343 127.847088 
L 776.549582 128.451606 
L 776.754202 128.402792 
L 776.958822 128.026998 
L 777.7773 125.381177 
L 778.18654 124.959465 
L 778.595779 124.88636 
L 779.005019 125.194728 
L 779.618878 126.060435 
L 780.028117 126.248921 
L 780.846596 126.350477 
L 781.255836 126.364645 
L 781.665075 126.85688 
L 782.074315 127.586157 
L 782.278934 127.772348 
L 782.483554 127.746765 
L 782.892794 127.203249 
L 783.506653 126.216283 
L 783.711273 126.120721 
L 783.915892 126.285201 
L 784.734371 127.598432 
L 785.34823 128.328454 
L 786.166709 129.520339 
L 786.780568 131.372899 
L 787.189808 132.431737 
L 787.599047 132.974622 
L 788.008287 133.412853 
L 788.417526 134.574969 
L 788.826766 136.120881 
L 789.031385 136.480214 
L 789.236005 136.551713 
L 789.645245 136.360704 
L 790.054484 136.000798 
L 790.259104 135.959957 
L 790.668343 136.381468 
L 791.282202 137.173267 
L 791.896062 137.592684 
L 792.305301 137.496549 
L 792.91916 137.118976 
L 793.12378 137.344516 
L 793.3284 137.97324 
L 793.942259 141.564957 
L 794.351498 143.654299 
L 794.760738 144.825535 
L 795.374597 145.584438 
L 795.783836 145.897538 
L 796.397696 146.187981 
L 797.216175 147.188599 
L 798.239273 147.902561 
L 798.853132 147.739142 
L 799.057752 148.029498 
L 800.49009 152.447976 
L 800.89933 154.051678 
L 801.308569 154.709599 
L 802.536287 156.118392 
L 802.945527 156.257863 
L 803.559386 156.734497 
L 804.377865 156.314592 
L 804.582485 156.510505 
L 804.991724 157.452186 
L 805.400964 159.019092 
L 806.219443 162.617607 
L 807.651781 165.734813 
L 808.06102 166.732506 
L 808.26564 166.968371 
L 808.47026 166.977405 
L 809.084119 166.632126 
L 809.288738 166.841949 
L 810.516457 169.411883 
L 810.925696 170.880645 
L 811.744175 174.809182 
L 812.358034 176.144267 
L 812.562654 176.177765 
L 812.971894 175.167195 
L 813.381133 174.378866 
L 813.585753 174.393235 
L 814.199612 174.7914 
L 814.608851 175.034291 
L 815.42733 176.071936 
L 816.450429 176.532451 
L 816.655049 176.54616 
L 816.859668 176.678002 
L 817.268908 177.548471 
L 817.678147 178.670979 
L 818.087387 179.091687 
L 818.496626 179.449958 
L 818.905866 180.512669 
L 819.928964 184.762823 
L 821.156683 186.200812 
L 821.361302 186.178212 
L 821.975161 185.515875 
L 822.79364 185.374999 
L 823.20288 185.369119 
L 823.4075 185.085302 
L 824.021359 183.52634 
L 824.225978 183.446523 
L 824.430598 183.795273 
L 825.658317 187.409992 
L 826.067556 187.695444 
L 826.272176 187.744659 
L 826.681415 188.206953 
L 826.886035 188.430199 
L 827.090655 188.40909 
L 827.295274 188.091774 
L 827.704514 186.724682 
L 828.318373 184.241104 
L 828.522993 184.04846 
L 828.727612 184.393137 
L 829.546091 187.228132 
L 829.750711 186.990431 
L 830.159951 185.175185 
L 830.77381 182.474843 
L 831.183049 181.932446 
L 831.387669 181.797679 
L 831.796908 181.085782 
L 832.206148 180.36336 
L 832.820007 179.94142 
L 833.229246 178.835058 
L 833.638486 176.755295 
L 835.275444 165.280607 
L 837.117021 156.710778 
L 837.526261 154.880962 
L 838.14012 150.913192 
L 839.777078 136.845856 
L 840.595557 126.142001 
L 841.414036 114.834174 
L 842.232514 105.533262 
L 843.050993 94.999709 
L 843.869472 86.22456 
L 844.687951 74.117735 
L 845.30181 65.710092 
L 846.120289 56.800719 
L 846.938768 42.548741 
L 849.195285 -1 
M 945.766236 -1 
L 946.793195 18.236489 
L 948.020913 37.802508 
L 948.634772 43.947324 
L 949.453251 51.795678 
L 950.47635 62.144989 
L 951.908688 74.476494 
L 954.977984 95.860685 
L 957.024181 104.803526 
L 957.433421 106.16689 
L 957.84266 108.506723 
L 959.070378 116.819034 
L 959.479618 118.081616 
L 960.093477 119.277832 
L 960.707336 121.804201 
L 962.958153 131.262251 
L 963.367393 132.358976 
L 963.776632 132.889758 
L 964.185872 133.023808 
L 964.595111 133.016839 
L 964.799731 133.252819 
L 965.61821 135.142547 
L 966.641308 137.366943 
L 967.869027 138.230328 
L 968.278266 139.043436 
L 969.096745 141.151764 
L 969.710604 144.921126 
L 970.324463 148.532231 
L 970.529083 148.91554 
L 970.733703 148.731156 
L 971.142942 147.224535 
L 971.756801 144.630855 
L 971.961421 144.418221 
L 972.166041 144.811969 
L 972.57528 146.967361 
L 972.98452 149.236498 
L 973.18914 149.877584 
L 973.393759 150.132205 
L 973.598379 150.086088 
L 974.212238 149.439467 
L 975.235337 147.940934 
L 975.849196 147.758845 
L 976.258435 147.779036 
L 976.463055 147.932789 
L 976.872295 148.756394 
L 977.281534 150.391186 
L 977.895393 152.863148 
L 978.100013 153.154538 
L 978.304633 153.214708 
L 978.509252 153.110657 
L 978.918492 152.431858 
L 979.123112 152.087468 
L 979.327731 152.074332 
L 979.532351 152.522143 
L 980.760069 156.996087 
L 981.169309 157.927443 
L 983.624746 160.789483 
L 984.647844 161.827672 
L 985.261703 161.336871 
L 985.466323 161.549619 
L 986.284802 163.298959 
L 986.898661 163.694199 
L 987.103281 163.648454 
L 987.51252 163.181887 
L 988.330999 161.901409 
L 989.354098 158.651557 
L 989.763337 158.304443 
L 990.172577 157.982394 
L 990.581816 157.669954 
L 991.195676 158.01377 
L 991.400295 157.499852 
L 992.014154 154.289006 
L 992.423394 152.450586 
L 992.628014 152.000452 
L 992.832633 151.850312 
L 993.037253 151.909106 
L 993.446493 152.429822 
L 993.855732 153.364562 
L 994.469591 155.018282 
L 995.08345 156.464474 
L 995.901929 158.881743 
L 997.129648 163.925044 
L 997.948127 165.844744 
L 998.152746 166.009138 
L 998.357366 165.846407 
L 998.561986 165.310004 
L 999.994324 159.483652 
L 1000.812803 157.288968 
L 1001.426662 154.806394 
L 1002.245141 150.969405 
L 1002.449761 150.836415 
L 1002.65438 151.356126 
L 1003.06362 154.018496 
L 1004.495958 165.619777 
L 1004.905197 166.946976 
L 1005.314437 167.549343 
L 1005.723676 168.897678 
L 1006.542155 171.597962 
L 1006.951395 172.48409 
L 1007.156014 172.633369 
L 1007.360634 172.539155 
L 1007.769873 172.070065 
L 1008.179113 172.100781 
L 1008.792972 172.420678 
L 1009.611451 173.316786 
L 1009.816071 173.271042 
L 1010.22531 172.98318 
L 1010.63455 172.967062 
L 1010.839169 172.766359 
L 1011.248409 171.57542 
L 1012.066888 168.644892 
L 1012.271507 168.494637 
L 1012.476127 168.878147 
L 1012.885367 170.780265 
L 1013.908465 176.688786 
L 1014.317705 178.147253 
L 1014.726944 178.812315 
L 1014.931564 178.706686 
L 1015.340803 177.620572 
L 1015.750043 176.521782 
L 1015.954662 176.23197 
L 1016.159282 176.163683 
L 1016.363902 176.376202 
L 1017.387001 178.654832 
L 1018.00086 179.368478 
L 1018.205479 179.364635 
L 1018.614719 178.948746 
L 1019.023958 178.475869 
L 1019.228578 178.400555 
L 1019.433198 178.554424 
L 1020.456296 179.858764 
L 1021.274775 180.892192 
L 1022.093254 182.472233 
L 1022.297874 182.660948 
L 1022.502494 182.600577 
L 1022.911733 181.955648 
L 1023.730212 180.398408 
L 1023.934832 180.456571 
L 1024.548691 181.5167 
L 1025.16255 183.129007 
L 1025.57179 184.07562 
L 1025.776409 184.098192 
L 1026.594888 183.11785 
L 1028.231846 180.127324 
L 1028.436466 180.158728 
L 1028.845705 180.662465 
L 1029.254945 181.195225 
L 1029.868804 181.696524 
L 1030.073424 181.706763 
L 1030.278043 181.455497 
L 1031.301142 178.829006 
L 1031.505762 178.596296 
L 1032.119621 177.448922 
L 1032.324241 177.50178 
L 1032.73348 178.340671 
L 1033.14272 180.188441 
L 1033.756579 183.812481 
L 1034.165818 184.993267 
L 1034.779677 186.267895 
L 1034.984297 186.474649 
L 1035.188917 186.401831 
L 1035.598156 185.472081 
L 1036.621255 182.625758 
L 1036.825875 182.6068 
L 1037.439734 183.132047 
L 1037.848973 184.088182 
L 1038.258213 185.143895 
L 1038.462832 185.211551 
L 1038.872072 184.588506 
L 1039.895171 182.947663 
L 1040.30441 182.130396 
L 1040.713649 181.840498 
L 1041.122889 181.865105 
L 1041.327509 181.674813 
L 1041.941368 180.767061 
L 1042.145988 180.786936 
L 1042.350607 180.970575 
L 1042.759847 181.940534 
L 1043.373706 183.663603 
L 1043.578326 183.926771 
L 1043.782945 183.944237 
L 1043.987565 183.685457 
L 1044.396805 182.461823 
L 1045.010664 180.177055 
L 1045.215283 179.771089 
L 1045.419903 179.66503 
L 1045.624523 179.949048 
L 1046.033762 181.549969 
L 1046.443002 183.067574 
L 1046.647621 183.204521 
L 1046.852241 182.871374 
L 1047.261481 181.13798 
L 1047.87534 178.107101 
L 1048.07996 177.73036 
L 1048.284579 177.670705 
L 1048.489199 177.854716 
L 1048.898438 178.721141 
L 1049.307678 180.218125 
L 1049.921537 182.56639 
L 1050.330777 183.170162 
L 1050.740016 183.306565 
L 1050.944636 183.206299 
L 1051.353875 182.573962 
L 1051.763115 181.805336 
L 1051.967734 181.869121 
L 1052.376974 183.164828 
L 1052.786213 184.44935 
L 1053.195453 184.698723 
L 1053.809312 184.838252 
L 1054.423171 184.265769 
L 1054.627791 184.347077 
L 1055.03703 184.762938 
L 1055.650889 184.826866 
L 1055.855509 185.098322 
L 1056.469368 186.553778 
L 1056.673988 186.560059 
L 1057.083228 185.762065 
L 1057.492467 185.103657 
L 1057.901706 185.047616 
L 1058.106326 185.130157 
L 1058.515566 185.847847 
L 1059.129425 187.118488 
L 1059.334045 187.323005 
L 1059.538664 187.311677 
L 1059.947904 186.910787 
L 1060.152523 187.027859 
L 1060.357143 187.620733 
L 1060.971002 190.221784 
L 1061.175622 190.355519 
L 1061.584862 189.750399 
L 1061.994101 189.042633 
L 1062.81258 187.053872 
L 1063.0172 187.191192 
L 1064.040298 189.185918 
L 1064.244918 189.234502 
L 1065.063397 188.75153 
L 1065.472636 189.281136 
L 1066.495735 190.956223 
L 1066.700355 191.046422 
L 1066.904974 190.906635 
L 1067.314214 189.912068 
L 1067.928073 188.119049 
L 1068.132693 187.812803 
L 1068.337313 187.806953 
L 1068.951172 188.55533 
L 1069.155791 188.401318 
L 1069.565031 187.356475 
L 1069.97427 186.163127 
L 1070.38351 185.622307 
L 1070.792749 185.369636 
L 1070.997369 185.448362 
L 1071.611228 185.997442 
L 1072.020468 186.19869 
L 1072.429707 186.788122 
L 1073.043566 188.557423 
L 1073.452806 189.832883 
L 1073.657425 190.189835 
L 1073.862045 190.143631 
L 1074.271285 188.955818 
L 1074.885144 187.059608 
L 1075.703623 185.665327 
L 1076.112862 185.417044 
L 1076.522102 185.304417 
L 1077.340581 184.669699 
L 1077.5452 185.029949 
L 1078.772919 188.881393 
L 1079.386778 190.128574 
L 1080.000637 190.796045 
L 1080.819116 191.402771 
L 1081.228355 191.44734 
L 1081.637595 191.151907 
L 1082.046834 190.818415 
L 1082.456074 190.93652 
L 1082.865313 191.112673 
L 1083.069933 190.871215 
L 1083.479172 189.629455 
L 1084.093032 187.401703 
L 1084.297651 187.30422 
L 1084.502271 187.854217 
L 1085.32075 192.115671 
L 1085.729989 192.618806 
L 1086.139229 193.007879 
L 1086.343848 192.949831 
L 1087.366947 191.644831 
L 1088.185426 191.177117 
L 1088.799285 190.837029 
L 1089.208525 190.702519 
L 1089.413144 190.914866 
L 1089.822384 191.774207 
L 1090.027004 191.889873 
L 1090.436243 191.289629 
L 1091.050102 190.295004 
L 1091.254722 190.2638 
L 1091.663961 190.770147 
L 1092.073201 191.348394 
L 1092.48244 191.491163 
L 1093.096299 191.50384 
L 1093.300919 191.283807 
L 1094.733257 188.729618 
L 1095.142497 188.565798 
L 1095.551736 188.664543 
L 1096.779455 189.758142 
L 1097.188694 190.145295 
L 1098.211793 189.798753 
L 1098.621032 190.256315 
L 1099.84875 192.246166 
L 1100.25799 192.034306 
L 1100.667229 191.435782 
L 1101.281089 190.342585 
L 1101.690328 189.993634 
L 1101.894948 189.968683 
L 1102.099567 190.161384 
L 1102.508807 191.198397 
L 1103.531906 194.45344 
L 1103.941145 194.978629 
L 1104.759624 195.446888 
L 1104.964244 195.255478 
L 1105.168863 194.683827 
L 1105.987342 191.221055 
L 1106.601201 190.138526 
L 1107.010441 189.605249 
L 1108.238159 188.622068 
L 1108.647399 188.805219 
L 1108.852018 188.676101 
L 1109.465878 187.940114 
L 1109.670497 187.848453 
L 1109.875117 187.612387 
L 1110.079737 186.999294 
L 1110.488976 184.483221 
L 1110.898216 181.824724 
L 1111.102835 181.152205 
L 1111.307455 180.92417 
L 1111.921314 180.870137 
L 1112.125934 180.655782 
L 1112.535174 179.622325 
L 1113.353652 176.34193 
L 1113.762892 173.520071 
L 1115.809089 155.399756 
L 1116.627568 147.550484 
L 1117.241427 141.997854 
L 1118.059906 133.210401 
L 1119.083005 124.011389 
L 1119.492244 117.43881 
L 1119.901484 105.842662 
L 1120.310723 87.330004 
L 1120.924582 46.104666 
L 1121.415001 -1 
M 1124.778082 -1 
L 1125.221597 34.499226 
L 1125.835456 66.335059 
L 1126.449315 85.898812 
L 1127.677033 116.532291 
L 1128.904752 138.429511 
L 1129.723231 151.147508 
L 1130.33709 157.154717 
L 1130.746329 159.848462 
L 1131.155569 161.4012 
L 1131.974048 162.829208 
L 1132.383287 164.593921 
L 1132.997146 168.82985 
L 1133.611005 172.851022 
L 1134.429484 175.600177 
L 1135.247963 178.163428 
L 1135.657203 178.971489 
L 1136.066442 179.610681 
L 1136.475682 180.88462 
L 1137.089541 183.02593 
L 1137.49878 183.702751 
L 1138.112639 184.289688 
L 1138.521879 184.375556 
L 1138.931118 184.032801 
L 1139.544977 183.3951 
L 1139.954217 183.541598 
L 1140.158837 183.607132 
L 1140.772696 183.424382 
L 1141.181935 183.637504 
L 1141.386555 183.546215 
L 1141.591175 183.104456 
L 1142.818893 178.91585 
L 1143.023513 179.165337 
L 1144.455851 183.307655 
L 1144.86509 184.630264 
L 1145.27433 185.181552 
L 1145.888189 185.225662 
L 1146.297428 185.874319 
L 1146.706668 186.752616 
L 1146.911288 186.930777 
L 1147.320527 186.77166 
L 1147.729767 186.34318 
L 1148.548245 185.131419 
L 1148.957485 184.787431 
L 1149.571344 184.840259 
L 1149.775964 184.928536 
L 1149.980584 185.230595 
L 1150.799062 187.108565 
L 1151.412922 187.835833 
L 1151.617541 187.813664 
L 1152.231401 187.237338 
L 1152.64064 187.50412 
L 1153.459119 188.32391 
L 1153.868358 188.62528 
L 1154.072978 188.598006 
L 1154.482218 188.115378 
L 1155.300696 186.650888 
L 1155.505316 186.634655 
L 1156.323795 187.729057 
L 1156.733035 187.623027 
L 1156.937654 187.410221 
L 1157.756133 185.703443 
L 1157.960753 185.702123 
L 1158.369992 186.16631 
L 1158.779232 186.691012 
L 1158.983852 186.760102 
L 1159.188471 186.689893 
L 1159.597711 186.185411 
L 1160.00695 185.426365 
L 1160.21157 185.288041 
L 1160.41619 185.425275 
L 1160.825429 186.317139 
L 1161.439288 187.597932 
L 1162.257767 188.817953 
L 1162.871626 189.280534 
L 1163.280866 189.766001 
L 1163.485485 189.722493 
L 1164.099345 188.904624 
L 1164.713204 187.928527 
L 1165.122443 187.743598 
L 1165.327063 187.854533 
L 1165.940922 188.755889 
L 1166.759401 190.351389 
L 1166.964021 190.357871 
L 1167.37326 189.827806 
L 1168.191739 188.489509 
L 1168.396359 188.440782 
L 1168.805598 188.813163 
L 1169.419458 190.100898 
L 1170.442556 192.508072 
L 1170.647176 192.696156 
L 1170.851796 192.667103 
L 1171.261035 192.15634 
L 1171.874894 191.193636 
L 1172.488753 190.932505 
L 1172.897993 189.767005 
L 1173.307232 188.425782 
L 1173.511852 188.18421 
L 1173.716472 188.264199 
L 1174.534951 189.080462 
L 1175.14881 189.456744 
L 1175.35343 189.512498 
L 1175.558049 189.703163 
L 1175.967289 190.96715 
L 1176.376528 192.282962 
L 1176.581148 192.539849 
L 1176.785768 192.500845 
L 1176.990387 192.155824 
L 1178.013486 189.111952 
L 1178.422726 188.895475 
L 1178.627345 188.544776 
L 1179.445824 185.654572 
L 1179.650444 185.622909 
L 1179.855064 186.074477 
L 1180.468923 188.167575 
L 1180.673543 188.090197 
L 1181.287402 186.632906 
L 1181.492021 186.627141 
L 1181.696641 187.137245 
L 1182.71974 191.362246 
L 1183.128979 192.001353 
L 1183.333599 191.953859 
L 1184.356698 190.735444 
L 1184.765937 189.782406 
L 1184.765937 189.782406 
" clip-path="url(#p5c41ea5cc7)" style="fill: none; stroke: #000000; stroke-width: 2; stroke-linecap: square"/>
   </g>
   <g id="patch_3">
    <path d="M 3.00024 198.907885 
L 1184.99976 198.907885 
" style="fill: none; stroke: #000000; stroke-width: 2; stroke-linejoin: miter; stroke-linecap: square"/>
   </g>
  </g>
 </g>
 <defs>
  <clipPath id="p5c41ea5cc7">
   <rect x="3.00024" y="3.00024" width="1181.99952" height="195.907645"/>
  </clipPath>
 </defs>
</svg>
