<?xml version="1.0" encoding="utf-8" standalone="no"?>
<!DOCTYPE svg PUBLIC "-//W3C//DTD SVG 1.1//EN"
  "http://www.w3.org/Graphics/SVG/1.1/DTD/svg11.dtd">
<svg xmlns:xlink="http://www.w3.org/1999/xlink" width="1188pt" height="252pt" viewBox="0 0 1188 252" xmlns="http://www.w3.org/2000/svg" version="1.1">
 <metadata>
  <rdf:RDF xmlns:dc="http://purl.org/dc/elements/1.1/" xmlns:cc="http://creativecommons.org/ns#" xmlns:rdf="http://www.w3.org/1999/02/22-rdf-syntax-ns#">
   <cc:Work>
    <dc:type rdf:resource="http://purl.org/dc/dcmitype/StillImage"/>
    <dc:date>2024-07-23T21:44:35.657308</dc:date>
    <dc:format>image/svg+xml</dc:format>
    <dc:creator>
     <cc:Agent>
      <dc:title>Matplotlib v3.8.4, https://matplotlib.org/</dc:title>
     </cc:Agent>
    </dc:creator>
   </cc:Work>
  </rdf:RDF>
 </metadata>
 <defs>
  <style type="text/css">*{stroke-linejoin: round; stroke-linecap: butt}</style>
 </defs>
 <g id="figure_1">
  <g id="patch_1">
   <path d="M 0 252 
L 1188 252 
L 1188 0 
L 0 0 
z
" style="fill: #ffffff"/>
  </g>
  <g id="axes_1">
   <g id="patch_2">
    <path d="M 3.00024 198.907885 
L 1184.99976 198.907885 
L 1184.99976 3.00024 
L 3.00024 3.00024 
z
" style="fill: #ffffff"/>
   </g>
   <g id="matplotlib.axis_1">
    <g id="xtick_1">
     <g id="line2d_1">
      <defs>
       <path id="mbbf014bfc3" d="M 0 0 
L 0 8 
" style="stroke: #000000; stroke-width: 2"/>
      </defs>
      <g>
       <use xlink:href="#mbbf014bfc3" x="1131.272509" y="198.907885" style="stroke: #000000; stroke-width: 2"/>
      </g>
     </g>
     <g id="text_1">
      <!-- 0 -->
      <g transform="translate(1126.267665 224.791947) scale(0.18 -0.18)">
       <defs>
        <path id="Arial-BoldMT-30" d="M 1756 4600 
Q 2422 4600 2797 4125 
Q 3244 3563 3244 2259 
Q 3244 959 2794 391 
Q 2422 -78 1756 -78 
Q 1088 -78 678 436 
Q 269 950 269 2269 
Q 269 3563 719 4131 
Q 1091 4600 1756 4600 
z
M 1756 3872 
Q 1597 3872 1472 3770 
Q 1347 3669 1278 3406 
Q 1188 3066 1188 2259 
Q 1188 1453 1269 1151 
Q 1350 850 1473 750 
Q 1597 650 1756 650 
Q 1916 650 2041 751 
Q 2166 853 2234 1116 
Q 2325 1453 2325 2259 
Q 2325 3066 2244 3367 
Q 2163 3669 2039 3770 
Q 1916 3872 1756 3872 
z
" transform="scale(0.015625)"/>
       </defs>
       <use xlink:href="#Arial-BoldMT-30"/>
      </g>
     </g>
    </g>
    <g id="xtick_2">
     <g id="line2d_2">
      <g>
       <use xlink:href="#mbbf014bfc3" x="1023.818007" y="198.907885" style="stroke: #000000; stroke-width: 2"/>
      </g>
     </g>
     <g id="text_2">
      <!-- 1 -->
      <g transform="translate(1018.813164 224.791947) scale(0.18 -0.18)">
       <defs>
        <path id="Arial-BoldMT-31" d="M 2519 0 
L 1641 0 
L 1641 3309 
Q 1159 2859 506 2644 
L 506 3441 
Q 850 3553 1253 3867 
Q 1656 4181 1806 4600 
L 2519 4600 
L 2519 0 
z
" transform="scale(0.015625)"/>
       </defs>
       <use xlink:href="#Arial-BoldMT-31"/>
      </g>
     </g>
    </g>
    <g id="xtick_3">
     <g id="line2d_3">
      <g>
       <use xlink:href="#mbbf014bfc3" x="916.363505" y="198.907885" style="stroke: #000000; stroke-width: 2"/>
      </g>
     </g>
     <g id="text_3">
      <!-- 2 -->
      <g transform="translate(911.358662 224.791947) scale(0.18 -0.18)">
       <defs>
        <path id="Arial-BoldMT-32" d="M 3238 816 
L 3238 0 
L 159 0 
Q 209 463 459 877 
Q 709 1291 1447 1975 
Q 2041 2528 2175 2725 
Q 2356 2997 2356 3263 
Q 2356 3556 2198 3714 
Q 2041 3872 1763 3872 
Q 1488 3872 1325 3706 
Q 1163 3541 1138 3156 
L 263 3244 
Q 341 3969 753 4284 
Q 1166 4600 1784 4600 
Q 2463 4600 2850 4234 
Q 3238 3869 3238 3325 
Q 3238 3016 3127 2736 
Q 3016 2456 2775 2150 
Q 2616 1947 2200 1565 
Q 1784 1184 1673 1059 
Q 1563 934 1494 816 
L 3238 816 
z
" transform="scale(0.015625)"/>
       </defs>
       <use xlink:href="#Arial-BoldMT-32"/>
      </g>
     </g>
    </g>
    <g id="xtick_4">
     <g id="line2d_4">
      <g>
       <use xlink:href="#mbbf014bfc3" x="808.909004" y="198.907885" style="stroke: #000000; stroke-width: 2"/>
      </g>
     </g>
     <g id="text_4">
      <!-- 3 -->
      <g transform="translate(803.90416 224.791947) scale(0.18 -0.18)">
       <defs>
        <path id="Arial-BoldMT-33" d="M 241 1216 
L 1091 1319 
Q 1131 994 1309 822 
Q 1488 650 1741 650 
Q 2013 650 2198 856 
Q 2384 1063 2384 1413 
Q 2384 1744 2206 1937 
Q 2028 2131 1772 2131 
Q 1603 2131 1369 2066 
L 1466 2781 
Q 1822 2772 2009 2936 
Q 2197 3100 2197 3372 
Q 2197 3603 2059 3740 
Q 1922 3878 1694 3878 
Q 1469 3878 1309 3722 
Q 1150 3566 1116 3266 
L 306 3403 
Q 391 3819 561 4067 
Q 731 4316 1036 4458 
Q 1341 4600 1719 4600 
Q 2366 4600 2756 4188 
Q 3078 3850 3078 3425 
Q 3078 2822 2419 2463 
Q 2813 2378 3048 2084 
Q 3284 1791 3284 1375 
Q 3284 772 2843 347 
Q 2403 -78 1747 -78 
Q 1125 -78 715 280 
Q 306 638 241 1216 
z
" transform="scale(0.015625)"/>
       </defs>
       <use xlink:href="#Arial-BoldMT-33"/>
      </g>
     </g>
    </g>
    <g id="xtick_5">
     <g id="line2d_5">
      <g>
       <use xlink:href="#mbbf014bfc3" x="701.454502" y="198.907885" style="stroke: #000000; stroke-width: 2"/>
      </g>
     </g>
     <g id="text_5">
      <!-- 4 -->
      <g transform="translate(696.449658 224.791947) scale(0.18 -0.18)">
       <defs>
        <path id="Arial-BoldMT-34" d="M 1994 0 
L 1994 922 
L 119 922 
L 119 1691 
L 2106 4600 
L 2844 4600 
L 2844 1694 
L 3413 1694 
L 3413 922 
L 2844 922 
L 2844 0 
L 1994 0 
z
M 1994 1694 
L 1994 3259 
L 941 1694 
L 1994 1694 
z
" transform="scale(0.015625)"/>
       </defs>
       <use xlink:href="#Arial-BoldMT-34"/>
      </g>
     </g>
    </g>
    <g id="xtick_6">
     <g id="line2d_6">
      <g>
       <use xlink:href="#mbbf014bfc3" x="594" y="198.907885" style="stroke: #000000; stroke-width: 2"/>
      </g>
     </g>
     <g id="text_6">
      <!-- 5 -->
      <g transform="translate(588.995156 224.791947) scale(0.18 -0.18)">
       <defs>
        <path id="Arial-BoldMT-35" d="M 284 1178 
L 1159 1269 
Q 1197 972 1381 798 
Q 1566 625 1806 625 
Q 2081 625 2272 848 
Q 2463 1072 2463 1522 
Q 2463 1944 2273 2155 
Q 2084 2366 1781 2366 
Q 1403 2366 1103 2031 
L 391 2134 
L 841 4519 
L 3163 4519 
L 3163 3697 
L 1506 3697 
L 1369 2919 
Q 1663 3066 1969 3066 
Q 2553 3066 2959 2641 
Q 3366 2216 3366 1538 
Q 3366 972 3038 528 
Q 2591 -78 1797 -78 
Q 1163 -78 763 262 
Q 363 603 284 1178 
z
" transform="scale(0.015625)"/>
       </defs>
       <use xlink:href="#Arial-BoldMT-35"/>
      </g>
     </g>
    </g>
    <g id="xtick_7">
     <g id="line2d_7">
      <g>
       <use xlink:href="#mbbf014bfc3" x="486.545498" y="198.907885" style="stroke: #000000; stroke-width: 2"/>
      </g>
     </g>
     <g id="text_7">
      <!-- 6 -->
      <g transform="translate(481.540654 224.791947) scale(0.18 -0.18)">
       <defs>
        <path id="Arial-BoldMT-36" d="M 3247 3459 
L 2397 3366 
Q 2366 3628 2234 3753 
Q 2103 3878 1894 3878 
Q 1616 3878 1423 3628 
Q 1231 3378 1181 2588 
Q 1509 2975 1997 2975 
Q 2547 2975 2939 2556 
Q 3331 2138 3331 1475 
Q 3331 772 2918 347 
Q 2506 -78 1859 -78 
Q 1166 -78 719 461 
Q 272 1000 272 2228 
Q 272 3488 737 4044 
Q 1203 4600 1947 4600 
Q 2469 4600 2811 4308 
Q 3153 4016 3247 3459 
z
M 1256 1544 
Q 1256 1116 1453 883 
Q 1650 650 1903 650 
Q 2147 650 2309 840 
Q 2472 1031 2472 1466 
Q 2472 1913 2297 2120 
Q 2122 2328 1859 2328 
Q 1606 2328 1431 2129 
Q 1256 1931 1256 1544 
z
" transform="scale(0.015625)"/>
       </defs>
       <use xlink:href="#Arial-BoldMT-36"/>
      </g>
     </g>
    </g>
    <g id="xtick_8">
     <g id="line2d_8">
      <g>
       <use xlink:href="#mbbf014bfc3" x="379.090996" y="198.907885" style="stroke: #000000; stroke-width: 2"/>
      </g>
     </g>
     <g id="text_8">
      <!-- 7 -->
      <g transform="translate(374.086153 224.791947) scale(0.18 -0.18)">
       <defs>
        <path id="Arial-BoldMT-37" d="M 272 3703 
L 272 4519 
L 3275 4519 
L 3275 3881 
Q 2903 3516 2518 2831 
Q 2134 2147 1932 1376 
Q 1731 606 1734 0 
L 888 0 
Q 909 950 1279 1937 
Q 1650 2925 2269 3703 
L 272 3703 
z
" transform="scale(0.015625)"/>
       </defs>
       <use xlink:href="#Arial-BoldMT-37"/>
      </g>
     </g>
    </g>
    <g id="xtick_9">
     <g id="line2d_9">
      <g>
       <use xlink:href="#mbbf014bfc3" x="271.636495" y="198.907885" style="stroke: #000000; stroke-width: 2"/>
      </g>
     </g>
     <g id="text_9">
      <!-- 8 -->
      <g transform="translate(266.631651 224.791947) scale(0.18 -0.18)">
       <defs>
        <path id="Arial-BoldMT-38" d="M 1025 2472 
Q 684 2616 529 2867 
Q 375 3119 375 3419 
Q 375 3931 733 4265 
Q 1091 4600 1750 4600 
Q 2403 4600 2764 4265 
Q 3125 3931 3125 3419 
Q 3125 3100 2959 2851 
Q 2794 2603 2494 2472 
Q 2875 2319 3073 2025 
Q 3272 1731 3272 1347 
Q 3272 713 2867 316 
Q 2463 -81 1791 -81 
Q 1166 -81 750 247 
Q 259 634 259 1309 
Q 259 1681 443 1992 
Q 628 2303 1025 2472 
z
M 1206 3356 
Q 1206 3094 1354 2947 
Q 1503 2800 1750 2800 
Q 2000 2800 2150 2948 
Q 2300 3097 2300 3359 
Q 2300 3606 2151 3754 
Q 2003 3903 1759 3903 
Q 1506 3903 1356 3753 
Q 1206 3603 1206 3356 
z
M 1125 1394 
Q 1125 1031 1311 828 
Q 1497 625 1775 625 
Q 2047 625 2225 820 
Q 2403 1016 2403 1384 
Q 2403 1706 2222 1901 
Q 2041 2097 1763 2097 
Q 1441 2097 1283 1875 
Q 1125 1653 1125 1394 
z
" transform="scale(0.015625)"/>
       </defs>
       <use xlink:href="#Arial-BoldMT-38"/>
      </g>
     </g>
    </g>
    <g id="xtick_10">
     <g id="line2d_10">
      <g>
       <use xlink:href="#mbbf014bfc3" x="164.181993" y="198.907885" style="stroke: #000000; stroke-width: 2"/>
      </g>
     </g>
     <g id="text_10">
      <!-- 9 -->
      <g transform="translate(159.177149 224.791947) scale(0.18 -0.18)">
       <defs>
        <path id="Arial-BoldMT-39" d="M 291 1059 
L 1141 1153 
Q 1172 894 1303 769 
Q 1434 644 1650 644 
Q 1922 644 2112 894 
Q 2303 1144 2356 1931 
Q 2025 1547 1528 1547 
Q 988 1547 595 1964 
Q 203 2381 203 3050 
Q 203 3747 617 4173 
Q 1031 4600 1672 4600 
Q 2369 4600 2816 4061 
Q 3263 3522 3263 2288 
Q 3263 1031 2797 475 
Q 2331 -81 1584 -81 
Q 1047 -81 715 205 
Q 384 491 291 1059 
z
M 2278 2978 
Q 2278 3403 2083 3637 
Q 1888 3872 1631 3872 
Q 1388 3872 1227 3680 
Q 1066 3488 1066 3050 
Q 1066 2606 1241 2398 
Q 1416 2191 1678 2191 
Q 1931 2191 2104 2391 
Q 2278 2591 2278 2978 
z
" transform="scale(0.015625)"/>
       </defs>
       <use xlink:href="#Arial-BoldMT-39"/>
      </g>
     </g>
    </g>
    <g id="xtick_11">
     <g id="line2d_11">
      <g>
       <use xlink:href="#mbbf014bfc3" x="56.727491" y="198.907885" style="stroke: #000000; stroke-width: 2"/>
      </g>
     </g>
     <g id="text_11">
      <!-- 10 -->
      <g transform="translate(46.717803 224.791947) scale(0.18 -0.18)">
       <use xlink:href="#Arial-BoldMT-31"/>
       <use xlink:href="#Arial-BoldMT-30" x="55.615234"/>
      </g>
     </g>
    </g>
    <g id="text_12">
     <!-- Chemical Shift / ppm -->
     <g transform="translate(504.992813 245.447573) scale(0.18 -0.18)">
      <defs>
       <path id="Arial-BoldMT-43" d="M 3397 1684 
L 4294 1400 
Q 4088 650 3608 286 
Q 3128 -78 2391 -78 
Q 1478 -78 890 545 
Q 303 1169 303 2250 
Q 303 3394 893 4026 
Q 1484 4659 2447 4659 
Q 3288 4659 3813 4163 
Q 4125 3869 4281 3319 
L 3366 3100 
Q 3284 3456 3026 3662 
Q 2769 3869 2400 3869 
Q 1891 3869 1573 3503 
Q 1256 3138 1256 2319 
Q 1256 1450 1568 1081 
Q 1881 713 2381 713 
Q 2750 713 3015 947 
Q 3281 1181 3397 1684 
z
" transform="scale(0.015625)"/>
       <path id="Arial-BoldMT-68" d="M 1334 4581 
L 1334 2897 
Q 1759 3394 2350 3394 
Q 2653 3394 2897 3281 
Q 3141 3169 3264 2994 
Q 3388 2819 3433 2606 
Q 3478 2394 3478 1947 
L 3478 0 
L 2600 0 
L 2600 1753 
Q 2600 2275 2550 2415 
Q 2500 2556 2373 2639 
Q 2247 2722 2056 2722 
Q 1838 2722 1666 2615 
Q 1494 2509 1414 2295 
Q 1334 2081 1334 1663 
L 1334 0 
L 456 0 
L 456 4581 
L 1334 4581 
z
" transform="scale(0.015625)"/>
       <path id="Arial-BoldMT-65" d="M 2381 1056 
L 3256 909 
Q 3088 428 2723 176 
Q 2359 -75 1813 -75 
Q 947 -75 531 491 
Q 203 944 203 1634 
Q 203 2459 634 2926 
Q 1066 3394 1725 3394 
Q 2466 3394 2894 2905 
Q 3322 2416 3303 1406 
L 1103 1406 
Q 1113 1016 1316 798 
Q 1519 581 1822 581 
Q 2028 581 2168 693 
Q 2309 806 2381 1056 
z
M 2431 1944 
Q 2422 2325 2234 2523 
Q 2047 2722 1778 2722 
Q 1491 2722 1303 2513 
Q 1116 2303 1119 1944 
L 2431 1944 
z
" transform="scale(0.015625)"/>
       <path id="Arial-BoldMT-6d" d="M 394 3319 
L 1203 3319 
L 1203 2866 
Q 1638 3394 2238 3394 
Q 2556 3394 2790 3262 
Q 3025 3131 3175 2866 
Q 3394 3131 3647 3262 
Q 3900 3394 4188 3394 
Q 4553 3394 4806 3245 
Q 5059 3097 5184 2809 
Q 5275 2597 5275 2122 
L 5275 0 
L 4397 0 
L 4397 1897 
Q 4397 2391 4306 2534 
Q 4184 2722 3931 2722 
Q 3747 2722 3584 2609 
Q 3422 2497 3350 2280 
Q 3278 2063 3278 1594 
L 3278 0 
L 2400 0 
L 2400 1819 
Q 2400 2303 2353 2443 
Q 2306 2584 2207 2653 
Q 2109 2722 1941 2722 
Q 1738 2722 1575 2612 
Q 1413 2503 1342 2297 
Q 1272 2091 1272 1613 
L 1272 0 
L 394 0 
L 394 3319 
z
" transform="scale(0.015625)"/>
       <path id="Arial-BoldMT-69" d="M 459 3769 
L 459 4581 
L 1338 4581 
L 1338 3769 
L 459 3769 
z
M 459 0 
L 459 3319 
L 1338 3319 
L 1338 0 
L 459 0 
z
" transform="scale(0.015625)"/>
       <path id="Arial-BoldMT-63" d="M 3353 2338 
L 2488 2181 
Q 2444 2441 2289 2572 
Q 2134 2703 1888 2703 
Q 1559 2703 1364 2476 
Q 1169 2250 1169 1719 
Q 1169 1128 1367 884 
Q 1566 641 1900 641 
Q 2150 641 2309 783 
Q 2469 925 2534 1272 
L 3397 1125 
Q 3263 531 2881 228 
Q 2500 -75 1859 -75 
Q 1131 -75 698 384 
Q 266 844 266 1656 
Q 266 2478 700 2936 
Q 1134 3394 1875 3394 
Q 2481 3394 2839 3133 
Q 3197 2872 3353 2338 
z
" transform="scale(0.015625)"/>
       <path id="Arial-BoldMT-61" d="M 1116 2306 
L 319 2450 
Q 453 2931 781 3162 
Q 1109 3394 1756 3394 
Q 2344 3394 2631 3255 
Q 2919 3116 3036 2902 
Q 3153 2688 3153 2116 
L 3144 1091 
Q 3144 653 3186 445 
Q 3228 238 3344 0 
L 2475 0 
Q 2441 88 2391 259 
Q 2369 338 2359 363 
Q 2134 144 1878 34 
Q 1622 -75 1331 -75 
Q 819 -75 523 203 
Q 228 481 228 906 
Q 228 1188 362 1408 
Q 497 1628 739 1745 
Q 981 1863 1438 1950 
Q 2053 2066 2291 2166 
L 2291 2253 
Q 2291 2506 2166 2614 
Q 2041 2722 1694 2722 
Q 1459 2722 1328 2630 
Q 1197 2538 1116 2306 
z
M 2291 1594 
Q 2122 1538 1756 1459 
Q 1391 1381 1278 1306 
Q 1106 1184 1106 997 
Q 1106 813 1243 678 
Q 1381 544 1594 544 
Q 1831 544 2047 700 
Q 2206 819 2256 991 
Q 2291 1103 2291 1419 
L 2291 1594 
z
" transform="scale(0.015625)"/>
       <path id="Arial-BoldMT-6c" d="M 459 0 
L 459 4581 
L 1338 4581 
L 1338 0 
L 459 0 
z
" transform="scale(0.015625)"/>
       <path id="Arial-BoldMT-20" transform="scale(0.015625)"/>
       <path id="Arial-BoldMT-53" d="M 231 1491 
L 1131 1578 
Q 1213 1125 1461 912 
Q 1709 700 2131 700 
Q 2578 700 2804 889 
Q 3031 1078 3031 1331 
Q 3031 1494 2936 1608 
Q 2841 1722 2603 1806 
Q 2441 1863 1863 2006 
Q 1119 2191 819 2459 
Q 397 2838 397 3381 
Q 397 3731 595 4036 
Q 794 4341 1167 4500 
Q 1541 4659 2069 4659 
Q 2931 4659 3367 4281 
Q 3803 3903 3825 3272 
L 2900 3231 
Q 2841 3584 2645 3739 
Q 2450 3894 2059 3894 
Q 1656 3894 1428 3728 
Q 1281 3622 1281 3444 
Q 1281 3281 1419 3166 
Q 1594 3019 2269 2859 
Q 2944 2700 3267 2529 
Q 3591 2359 3773 2064 
Q 3956 1769 3956 1334 
Q 3956 941 3737 597 
Q 3519 253 3119 86 
Q 2719 -81 2122 -81 
Q 1253 -81 787 320 
Q 322 722 231 1491 
z
" transform="scale(0.015625)"/>
       <path id="Arial-BoldMT-66" d="M 75 3319 
L 563 3319 
L 563 3569 
Q 563 3988 652 4194 
Q 741 4400 980 4529 
Q 1219 4659 1584 4659 
Q 1959 4659 2319 4547 
L 2200 3934 
Q 1991 3984 1797 3984 
Q 1606 3984 1523 3895 
Q 1441 3806 1441 3553 
L 1441 3319 
L 2097 3319 
L 2097 2628 
L 1441 2628 
L 1441 0 
L 563 0 
L 563 2628 
L 75 2628 
L 75 3319 
z
" transform="scale(0.015625)"/>
       <path id="Arial-BoldMT-74" d="M 1981 3319 
L 1981 2619 
L 1381 2619 
L 1381 1281 
Q 1381 875 1398 808 
Q 1416 741 1477 697 
Q 1538 653 1625 653 
Q 1747 653 1978 738 
L 2053 56 
Q 1747 -75 1359 -75 
Q 1122 -75 931 4 
Q 741 84 652 211 
Q 563 338 528 553 
Q 500 706 500 1172 
L 500 2619 
L 97 2619 
L 97 3319 
L 500 3319 
L 500 3978 
L 1381 4491 
L 1381 3319 
L 1981 3319 
z
" transform="scale(0.015625)"/>
       <path id="Arial-BoldMT-2f" d="M -9 -78 
L 1125 4659 
L 1784 4659 
L 638 -78 
L -9 -78 
z
" transform="scale(0.015625)"/>
       <path id="Arial-BoldMT-70" d="M 434 3319 
L 1253 3319 
L 1253 2831 
Q 1413 3081 1684 3237 
Q 1956 3394 2288 3394 
Q 2866 3394 3269 2941 
Q 3672 2488 3672 1678 
Q 3672 847 3265 386 
Q 2859 -75 2281 -75 
Q 2006 -75 1782 34 
Q 1559 144 1313 409 
L 1313 -1263 
L 434 -1263 
L 434 3319 
z
M 1303 1716 
Q 1303 1156 1525 889 
Q 1747 622 2066 622 
Q 2372 622 2575 867 
Q 2778 1113 2778 1672 
Q 2778 2194 2568 2447 
Q 2359 2700 2050 2700 
Q 1728 2700 1515 2451 
Q 1303 2203 1303 1716 
z
" transform="scale(0.015625)"/>
      </defs>
      <use xlink:href="#Arial-BoldMT-43"/>
      <use xlink:href="#Arial-BoldMT-68" x="72.216797"/>
      <use xlink:href="#Arial-BoldMT-65" x="133.300781"/>
      <use xlink:href="#Arial-BoldMT-6d" x="188.916016"/>
      <use xlink:href="#Arial-BoldMT-69" x="277.832031"/>
      <use xlink:href="#Arial-BoldMT-63" x="305.615234"/>
      <use xlink:href="#Arial-BoldMT-61" x="361.230469"/>
      <use xlink:href="#Arial-BoldMT-6c" x="416.845703"/>
      <use xlink:href="#Arial-BoldMT-20" x="444.628906"/>
      <use xlink:href="#Arial-BoldMT-53" x="472.412109"/>
      <use xlink:href="#Arial-BoldMT-68" x="539.111328"/>
      <use xlink:href="#Arial-BoldMT-69" x="600.195312"/>
      <use xlink:href="#Arial-BoldMT-66" x="627.978516"/>
      <use xlink:href="#Arial-BoldMT-74" x="661.279297"/>
      <use xlink:href="#Arial-BoldMT-20" x="694.580078"/>
      <use xlink:href="#Arial-BoldMT-2f" x="722.363281"/>
      <use xlink:href="#Arial-BoldMT-20" x="750.146484"/>
      <use xlink:href="#Arial-BoldMT-70" x="777.929688"/>
      <use xlink:href="#Arial-BoldMT-70" x="839.013672"/>
      <use xlink:href="#Arial-BoldMT-6d" x="900.097656"/>
     </g>
    </g>
   </g>
   <g id="matplotlib.axis_2"/>
   <g id="line2d_12">
    <path d="M 2.997899 189.408724 
L 3.611758 189.971937 
L 3.816378 190.030829 
L 4.430237 189.851356 
L 4.839476 190.057393 
L 5.248716 190.510509 
L 5.862575 191.377469 
L 6.067195 191.385765 
L 6.681054 191.001226 
L 7.294913 191.029102 
L 8.113392 190.215079 
L 8.522631 190.546663 
L 9.136491 191.399998 
L 9.34111 191.490876 
L 9.75035 191.236851 
L 10.364209 190.518292 
L 10.773448 189.663472 
L 11.387308 188.176425 
L 11.591927 187.969779 
L 12.410406 188.051429 
L 13.228885 187.989797 
L 13.842744 187.783171 
L 14.047364 187.97467 
L 14.865843 189.412701 
L 15.479702 189.586199 
L 16.502801 190.805654 
L 16.70742 190.659861 
L 17.11666 189.704782 
L 17.525899 188.604101 
L 17.730519 188.366287 
L 17.935139 188.432372 
L 18.344378 189.281369 
L 18.958237 190.733462 
L 19.367477 190.973483 
L 20.185956 191.267981 
L 20.595195 191.570585 
L 21.004435 191.964448 
L 21.209054 191.951452 
L 21.618294 191.400873 
L 22.436773 189.81448 
L 22.641392 189.68916 
L 22.846012 189.841119 
L 23.255252 190.388805 
L 23.664491 190.455042 
L 24.27835 190.282229 
L 24.48297 190.371756 
L 24.892209 190.969601 
L 25.301449 191.614255 
L 25.506069 191.652235 
L 25.915308 191.196416 
L 26.529167 190.04257 
L 26.938407 189.162272 
L 27.143026 188.961411 
L 27.347646 189.008962 
L 27.756886 189.356891 
L 28.166125 189.306181 
L 28.575365 189.334001 
L 29.393843 189.990338 
L 30.007703 189.60517 
L 30.416942 189.084789 
L 30.826182 188.657018 
L 31.440041 188.798816 
L 32.0539 188.568689 
L 32.25852 188.662917 
L 32.463139 188.920995 
L 32.872379 189.931103 
L 33.486238 191.439025 
L 33.690858 191.571061 
L 33.895477 191.466768 
L 35.123196 189.955402 
L 35.941675 189.370496 
L 36.555534 189.426744 
L 36.964773 189.716504 
L 37.783252 190.810792 
L 38.397111 191.020672 
L 39.21559 191.668846 
L 39.62483 191.782235 
L 40.238689 192.598846 
L 40.647928 192.887502 
L 41.466407 192.539744 
L 42.284886 192.778091 
L 42.694126 192.629976 
L 43.307985 191.913129 
L 44.126464 190.862339 
L 44.535703 190.391755 
L 44.740323 190.488303 
L 45.763422 192.05095 
L 46.172661 191.873418 
L 46.78652 191.13682 
L 47.400379 190.42199 
L 47.809619 190.490168 
L 48.628098 190.752433 
L 49.651196 190.31315 
L 50.060436 189.737758 
L 50.469675 189.068197 
L 50.674295 188.922536 
L 50.878915 188.980344 
L 51.902013 190.041599 
L 52.515873 189.836058 
L 53.743591 190.152019 
L 55.175929 189.353238 
L 55.585169 189.501676 
L 55.994408 190.017586 
L 56.608267 191.103083 
L 57.222126 191.636118 
L 57.426746 191.621143 
L 58.040605 191.016334 
L 58.449845 190.40987 
L 59.268324 188.863359 
L 59.677563 188.551659 
L 60.905281 188.622006 
L 61.314521 188.286826 
L 62.542239 186.875282 
L 63.360718 185.653163 
L 63.769958 185.287271 
L 63.974577 185.278537 
L 64.383817 185.569001 
L 64.793056 186.058633 
L 65.202296 186.598898 
L 65.406915 186.665516 
L 66.020775 186.533784 
L 66.634634 186.730135 
L 67.043873 187.017346 
L 67.862352 188.021022 
L 68.271592 188.223519 
L 69.09007 188.899227 
L 69.29469 188.851067 
L 69.49931 188.677683 
L 69.908549 187.786805 
L 70.522409 186.142775 
L 70.727028 185.961704 
L 70.931648 185.991311 
L 72.159366 186.976778 
L 72.568606 186.748783 
L 72.773226 186.632083 
L 72.977845 186.67621 
L 73.387085 187.128622 
L 74.000944 188.167881 
L 74.410183 188.948871 
L 74.819423 189.139514 
L 76.047141 189.190662 
L 77.07024 190.249025 
L 78.093338 190.208933 
L 78.911817 189.556078 
L 79.934916 188.410832 
L 80.139536 188.453436 
L 80.753395 188.883624 
L 80.958015 188.868516 
L 81.162634 188.661775 
L 81.571874 187.63614 
L 81.981113 186.672347 
L 82.185733 186.475672 
L 82.594972 186.480467 
L 83.004212 186.460145 
L 83.413451 185.992491 
L 84.027311 185.034768 
L 84.845789 184.314686 
L 85.255029 183.162267 
L 85.868888 181.08864 
L 86.482747 179.882466 
L 86.687367 179.14172 
L 87.096606 176.148558 
L 87.710466 168.068609 
L 88.324325 160.063135 
L 88.733564 157.546419 
L 88.938184 157.282784 
L 89.142804 157.40171 
L 89.347423 157.827445 
L 89.552043 158.654788 
L 89.961283 161.767998 
L 91.189001 173.145578 
L 91.80286 176.840402 
L 92.621339 179.873884 
L 93.030579 180.819563 
L 93.439818 181.555704 
L 94.258297 183.999543 
L 95.281396 186.942128 
L 95.486015 187.182738 
L 96.509114 187.598997 
L 97.327593 188.351103 
L 97.736832 188.859858 
L 97.941452 188.955874 
L 98.350691 188.738021 
L 98.759931 188.546484 
L 98.964551 188.729762 
L 99.783029 190.00596 
L 100.192269 190.104278 
L 100.396889 189.940598 
L 101.215368 188.793735 
L 102.443086 188.619799 
L 103.261565 187.638233 
L 103.670804 187.965098 
L 104.080044 188.239922 
L 104.898523 188.297348 
L 105.921621 188.050097 
L 106.126241 188.292763 
L 106.53548 189.293547 
L 107.353959 191.809845 
L 107.558579 191.967911 
L 107.763199 191.754282 
L 108.786297 189.432014 
L 109.195537 189.502399 
L 109.400157 189.522531 
L 109.809396 189.262892 
L 110.423255 188.93382 
L 111.037114 188.735147 
L 111.446354 188.849335 
L 112.264833 189.178312 
L 112.674072 189.307133 
L 113.287931 189.617101 
L 113.697171 189.621953 
L 114.31103 189.484247 
L 114.72027 189.666574 
L 115.947988 190.443968 
L 116.357227 189.839445 
L 116.766467 189.292995 
L 116.971087 189.395214 
L 117.584946 190.097999 
L 118.608044 190.740616 
L 119.426523 190.19449 
L 119.835763 189.617329 
L 120.654242 187.975678 
L 120.858861 187.956384 
L 121.268101 188.432924 
L 122.08658 189.701776 
L 122.291199 189.741107 
L 122.495819 189.590557 
L 122.905059 188.759275 
L 123.723538 186.22216 
L 123.928157 185.932153 
L 124.132777 185.89735 
L 124.337397 186.141595 
L 124.542016 186.695047 
L 125.565115 190.79184 
L 126.383594 191.438492 
L 127.202073 191.981079 
L 127.406693 191.963268 
L 127.815932 191.561147 
L 128.225172 191.032964 
L 128.429791 191.035419 
L 128.839031 191.332258 
L 129.04365 191.303678 
L 129.45289 190.71373 
L 130.271369 189.211973 
L 131.294467 187.73992 
L 131.499087 187.884647 
L 132.317566 189.065685 
L 132.931425 189.107623 
L 133.340665 189.45559 
L 133.749904 189.521789 
L 134.363763 189.360488 
L 134.773003 189.769916 
L 135.182242 190.301238 
L 135.386862 190.350293 
L 135.591482 190.213461 
L 136.000721 189.340546 
L 137.02382 186.018541 
L 137.22844 186.051345 
L 137.637679 186.889762 
L 138.456158 189.317427 
L 139.070017 191.381902 
L 139.274637 191.67562 
L 139.479256 191.650617 
L 140.297735 190.896856 
L 140.911595 190.745602 
L 141.934693 190.216296 
L 142.343933 189.962347 
L 142.548552 189.978407 
L 142.957792 190.431695 
L 143.571651 191.402643 
L 143.776271 191.510551 
L 143.98089 191.43109 
L 144.39013 190.62523 
L 144.799369 189.624294 
L 145.413229 188.900254 
L 146.640947 187.593308 
L 147.050186 187.668374 
L 147.868665 187.87736 
L 148.073285 187.819476 
L 148.687144 187.110679 
L 148.891764 187.117529 
L 149.301003 187.61148 
L 149.914863 188.676883 
L 150.119482 188.780568 
L 150.733341 188.615765 
L 151.142581 188.89702 
L 151.75644 189.381628 
L 152.370299 189.563289 
L 152.779539 189.268601 
L 153.598018 188.233205 
L 154.007257 187.694671 
L 154.211877 187.605372 
L 154.621116 187.845849 
L 155.030356 188.344728 
L 155.439595 189.189996 
L 156.053454 190.706099 
L 156.462694 191.264518 
L 156.667314 191.397467 
L 156.871933 191.325389 
L 157.690412 190.157347 
L 157.895032 190.185756 
L 158.508891 190.56864 
L 159.736609 190.208799 
L 160.145849 189.415593 
L 161.168948 187.14354 
L 161.782807 185.976926 
L 161.987426 185.792886 
L 162.192046 185.81572 
L 162.601286 186.346719 
L 163.215145 187.431531 
L 163.624384 187.86522 
L 164.033624 188.724016 
L 165.465962 192.511621 
L 165.670582 192.664512 
L 165.875201 192.565508 
L 166.48906 191.457862 
L 167.307539 190.177612 
L 167.512159 190.137368 
L 167.921399 190.49405 
L 168.330638 190.831 
L 168.739877 190.705186 
L 169.149117 190.325499 
L 169.762976 189.560359 
L 171.195314 188.738078 
L 171.809173 188.545799 
L 172.218413 188.843132 
L 172.627652 189.159855 
L 173.036892 189.090364 
L 173.446131 189.070956 
L 174.05999 189.460024 
L 175.492328 190.852844 
L 175.696948 190.869741 
L 175.901568 190.700106 
L 176.310807 189.882163 
L 176.924666 188.52873 
L 177.129286 188.312856 
L 177.333906 188.311201 
L 177.743145 188.793564 
L 178.152385 189.353314 
L 178.357005 189.453421 
L 178.561624 189.357481 
L 179.584723 188.059135 
L 179.993962 187.477351 
L 180.198582 187.373666 
L 180.812441 187.56566 
L 181.221681 187.21716 
L 181.63092 186.737727 
L 181.83554 186.726253 
L 182.04016 186.964352 
L 182.449399 188.076832 
L 183.267878 190.907017 
L 183.472498 191.184847 
L 183.677117 191.240771 
L 184.086357 191.06202 
L 184.700216 190.68043 
L 184.904836 190.74427 
L 185.314075 191.280577 
L 185.723315 191.902226 
L 185.927934 192.033577 
L 186.132554 192.024824 
L 186.541794 191.689682 
L 187.155653 190.892689 
L 187.769512 189.680921 
L 188.383371 188.48019 
L 188.792611 188.198421 
L 188.99723 188.299651 
L 189.40647 189.015945 
L 189.815709 189.796726 
L 190.224949 190.058591 
L 191.043428 189.928953 
L 191.452667 190.239967 
L 192.271146 191.359696 
L 192.475766 191.428274 
L 192.885005 191.238088 
L 193.703484 190.655694 
L 193.908104 190.572198 
L 194.317343 190.044434 
L 195.545062 188.090893 
L 195.954301 187.683577 
L 196.363541 187.590815 
L 196.56816 187.752878 
L 197.182019 188.652071 
L 197.386639 188.635687 
L 198.205118 187.587771 
L 198.818977 186.913852 
L 199.023597 186.911854 
L 199.432836 187.41098 
L 200.251315 188.764679 
L 200.660555 189.20518 
L 200.865175 189.272844 
L 201.069794 189.153785 
L 202.092893 187.828305 
L 202.297513 187.89066 
L 202.706752 188.6511 
L 203.115992 189.364636 
L 203.320611 189.399571 
L 203.729851 188.922042 
L 204.957569 187.068417 
L 205.571428 186.772073 
L 205.776048 186.800178 
L 206.185287 187.179408 
L 206.594527 187.513485 
L 207.822245 187.469606 
L 208.231485 187.355571 
L 208.436104 187.461329 
L 209.049964 188.315958 
L 209.254583 188.360332 
L 209.459203 188.268407 
L 209.868443 187.699618 
L 211.5054 184.229288 
L 211.71002 184.156011 
L 212.11926 184.719376 
L 212.528499 185.288184 
L 212.733119 185.320646 
L 213.346978 184.886006 
L 213.756217 185.020516 
L 214.165457 185.087418 
L 214.983936 184.552747 
L 215.597795 184.417191 
L 215.802415 184.151482 
L 216.211654 182.984069 
L 216.825513 181.32084 
L 217.234753 180.901289 
L 217.848612 180.485429 
L 218.257851 179.914604 
L 218.667091 178.645904 
L 219.28095 176.499913 
L 219.894809 175.324374 
L 220.304049 174.605625 
L 220.713288 173.399832 
L 221.122527 171.402526 
L 221.531767 168.012533 
L 222.759485 156.474451 
L 223.373344 152.441307 
L 223.577964 151.829344 
L 223.782584 151.724004 
L 223.987204 152.152841 
L 224.396443 154.36642 
L 225.214922 159.379721 
L 225.624161 160.625455 
L 226.033401 161.160145 
L 226.85188 161.519795 
L 227.0565 161.57334 
L 227.261119 161.494241 
L 227.670359 160.905092 
L 228.284218 159.622425 
L 228.693457 157.954743 
L 229.102697 154.93304 
L 229.921176 145.926402 
L 230.944274 133.019398 
L 231.353514 125.396238 
L 231.967373 109.654158 
L 232.785852 83.491213 
L 233.604331 56.782923 
L 234.01357 49.504266 
L 234.21819 48.295981 
L 234.42281 48.853485 
L 234.627429 51.118802 
L 235.036669 60.05243 
L 235.650528 81.594414 
L 236.673627 118.209411 
L 237.492106 139.244581 
L 238.105965 150.123206 
L 238.924444 160.456827 
L 239.742923 167.546306 
L 240.766021 174.667467 
L 241.175261 176.158434 
L 242.198359 177.811122 
L 244.449176 183.997811 
L 244.653796 184.275336 
L 244.858416 184.297675 
L 245.676895 183.667445 
L 245.881514 183.960801 
L 246.495374 185.719761 
L 247.518472 188.850534 
L 247.723092 188.997298 
L 247.927712 188.913707 
L 248.746191 187.93747 
L 248.95081 187.937774 
L 249.36005 188.440516 
L 250.383148 190.297794 
L 250.997008 190.872653 
L 251.201627 190.875316 
L 252.020106 190.358969 
L 252.429346 191.050432 
L 252.838585 191.781683 
L 253.043205 191.854427 
L 253.452444 191.50528 
L 254.066303 190.638835 
L 254.680163 189.756881 
L 256.112501 187.66668 
L 256.31712 187.305622 
L 256.52174 187.184869 
L 256.72636 187.335724 
L 257.135599 188.141603 
L 257.749459 189.721756 
L 258.158698 190.090197 
L 259.181797 190.043692 
L 260.614135 187.82254 
L 260.818754 187.80766 
L 261.227994 188.355251 
L 262.046473 189.870955 
L 262.455712 190.170933 
L 262.660332 190.076954 
L 263.069571 189.231572 
L 263.683431 187.912923 
L 263.88805 187.699637 
L 264.09267 187.657471 
L 264.911149 188.183636 
L 265.115769 188.0148 
L 265.934248 186.627022 
L 266.138867 186.663118 
L 266.548107 187.295708 
L 267.161966 188.407274 
L 267.571205 188.655534 
L 267.980445 188.57278 
L 268.389684 188.090418 
L 269.617403 186.005278 
L 269.822022 186.082608 
L 270.640501 187.123389 
L 271.049741 187.447001 
L 271.45898 188.173057 
L 272.072839 189.434279 
L 272.482079 189.611392 
L 272.891318 189.506567 
L 273.300558 189.214561 
L 273.914417 188.183351 
L 274.528276 187.320121 
L 274.937516 187.193755 
L 275.142135 187.338103 
L 275.755995 188.485822 
L 276.574473 189.969578 
L 277.597572 192.123542 
L 277.802192 192.321073 
L 278.006812 192.337304 
L 278.211431 192.148735 
L 278.620671 191.103464 
L 279.43915 188.157282 
L 279.848389 187.666414 
L 280.053009 187.683102 
L 281.280727 188.432334 
L 281.485347 188.488429 
L 281.689967 188.387028 
L 282.303826 187.486142 
L 282.508446 187.561131 
L 283.122305 188.274439 
L 283.531544 188.105545 
L 283.940784 187.625713 
L 284.350023 187.092069 
L 284.554643 187.094448 
L 284.963882 187.724849 
L 285.373122 188.412868 
L 285.782361 188.592132 
L 286.39622 188.724073 
L 286.80546 188.978194 
L 287.623939 190.157956 
L 288.033178 190.322207 
L 288.442418 190.168403 
L 288.647037 189.940408 
L 289.056277 188.938596 
L 289.465516 187.949971 
L 290.079375 187.29038 
L 291.102474 184.585723 
L 291.307094 184.349717 
L 291.511714 184.311299 
L 291.920953 184.773835 
L 292.944052 186.625823 
L 293.148671 186.646031 
L 294.17177 186.148293 
L 294.37639 186.271767 
L 294.785629 186.914898 
L 295.399488 188.455225 
L 295.808728 189.431386 
L 296.217967 189.778098 
L 296.627207 189.545993 
L 297.241066 188.854796 
L 297.445686 188.820945 
L 297.854925 189.254729 
L 298.878024 190.705414 
L 299.287263 191.021015 
L 299.696503 190.904772 
L 300.105742 190.569573 
L 301.128841 189.454429 
L 301.53808 189.508698 
L 302.356559 189.799809 
L 302.561179 189.660828 
L 303.379658 188.700783 
L 303.788897 188.882596 
L 304.198137 189.569892 
L 304.607376 190.338115 
L 304.811996 190.539641 
L 305.016615 190.54847 
L 305.221235 190.317241 
L 305.630475 189.25629 
L 306.244334 187.79356 
L 306.858193 187.0296 
L 308.290531 184.083894 
L 308.90439 183.505002 
L 309.10901 183.447118 
L 309.31363 183.55202 
L 310.132109 184.698465 
L 310.541348 184.656203 
L 310.950588 184.293984 
L 311.769066 182.724982 
L 312.587545 180.810505 
L 313.201405 179.873808 
L 313.610644 179.22434 
L 313.815264 179.170053 
L 314.429123 179.438901 
L 314.633743 179.20164 
L 315.042982 177.982222 
L 315.452222 176.798654 
L 315.656841 176.592237 
L 316.066081 176.512928 
L 316.2707 176.287521 
L 316.67994 175.078626 
L 317.293799 171.793592 
L 318.112278 165.89946 
L 318.930757 156.066925 
L 319.749236 144.772707 
L 320.363095 132.496334 
L 321.181574 110.547357 
L 322.409292 74.491787 
L 322.818532 67.036759 
L 323.227771 62.804809 
L 323.432391 62.101644 
L 323.637011 62.490674 
L 323.84163 63.955116 
L 324.25087 69.91676 
L 324.864729 84.972058 
L 326.501687 129.166165 
L 327.115546 142.301544 
L 327.729405 150.849376 
L 328.752504 160.959284 
L 329.366363 165.512048 
L 329.775602 167.19617 
L 330.389462 168.705157 
L 331.003321 170.101554 
L 331.41256 171.686825 
L 332.026419 174.434962 
L 332.435659 175.228473 
L 332.844898 175.505027 
L 333.663377 175.564034 
L 334.277236 176.540119 
L 334.686476 177.069329 
L 335.095715 177.162034 
L 335.914194 177.02663 
L 336.323434 176.989678 
L 336.937293 176.660187 
L 337.141913 176.742084 
L 337.960391 177.706714 
L 338.369631 178.66967 
L 338.77887 179.508411 
L 338.98349 179.424116 
L 339.801969 178.16082 
L 340.211208 178.31002 
L 340.620448 178.443959 
L 341.029687 178.265037 
L 341.643547 177.692938 
L 342.052786 177.770211 
L 342.462025 178.166738 
L 343.075885 178.854909 
L 343.280504 178.775524 
L 343.689744 177.995618 
L 344.098983 176.353834 
L 344.917462 172.287676 
L 345.940561 169.498021 
L 346.55442 165.926271 
L 347.577519 157.538827 
L 348.600617 146.45114 
L 349.623716 134.173473 
L 350.032955 131.075618 
L 350.442195 129.593784 
L 350.646815 129.406053 
L 350.851434 129.408336 
L 351.056054 129.566536 
L 351.465293 130.377134 
L 352.283772 132.732188 
L 353.306871 136.25886 
L 353.511491 136.61322 
L 353.71611 136.640944 
L 353.92073 136.298039 
L 354.32997 134.892564 
L 354.943829 131.708132 
L 355.762308 125.714825 
L 356.376167 119.947154 
L 357.194646 109.047009 
L 358.013125 98.854747 
L 358.626984 94.484501 
L 360.263942 85.678382 
L 360.468561 85.357796 
L 360.673181 85.304041 
L 360.877801 85.59422 
L 361.28704 87.036476 
L 361.9009 90.505264 
L 362.310139 94.126735 
L 362.923998 101.746337 
L 364.151717 118.14776 
L 364.970195 124.965308 
L 365.788674 130.28401 
L 366.402534 132.659709 
L 367.630252 136.650858 
L 368.039491 137.388084 
L 368.85797 139.602234 
L 369.06259 139.661887 
L 369.881069 139.365277 
L 370.290308 139.621414 
L 370.699548 139.836946 
L 370.904167 139.701846 
L 371.108787 139.352319 
L 371.518027 137.957538 
L 373.973463 125.942459 
L 374.587323 120.288424 
L 375.610421 107.452528 
L 376.4289 94.569843 
L 377.451999 75.153242 
L 379.088957 40.611017 
L 379.293576 39.219776 
L 379.498196 39.063821 
L 379.702816 40.011878 
L 380.112055 44.217036 
L 380.930534 56.442262 
L 382.362872 79.991371 
L 383.181351 88.221871 
L 383.79521 92.625302 
L 384.20445 93.834977 
L 384.409069 93.816272 
L 384.818309 93.085725 
L 385.227548 91.977337 
L 385.636788 89.801053 
L 386.046027 86.022619 
L 386.659886 77.711783 
L 387.682985 57.845852 
L 388.501464 40.741321 
L 389.933802 7.704315 
L 390.343042 3.249432 
L 390.547661 3.00024 
L 390.752281 4.330477 
L 391.16152 11.417958 
L 391.77538 30.044834 
L 392.798478 61.990577 
L 393.412337 74.648388 
L 393.821577 79.840078 
L 394.230816 82.982687 
L 394.640056 84.671547 
L 394.844676 84.919445 
L 395.049295 84.813477 
L 395.458535 83.877294 
L 396.072394 81.4729 
L 396.481633 79.260634 
L 396.890873 75.747985 
L 397.504732 67.393479 
L 398.93707 43.249228 
L 399.34631 39.522399 
L 399.550929 39.193574 
L 399.755549 40.012164 
L 400.164788 44.63457 
L 400.574028 52.729095 
L 401.187887 70.517783 
L 403.029465 126.6735 
L 403.847944 143.292377 
L 404.461803 151.438601 
L 405.484901 162.034791 
L 406.098761 165.933064 
L 407.121859 170.01334 
L 407.735718 171.605823 
L 408.349577 172.239554 
L 409.372676 173.269718 
L 409.577296 173.451227 
L 409.986535 174.426932 
L 410.600394 176.365726 
L 410.805014 176.679805 
L 411.009634 176.777952 
L 411.623493 176.764366 
L 412.441972 177.26001 
L 412.851211 176.993883 
L 413.66969 176.262956 
L 414.28355 175.429961 
L 414.692789 175.246911 
L 415.306648 175.197228 
L 415.715888 174.52232 
L 416.943606 171.058517 
L 417.557465 168.406339 
L 418.171324 164.541499 
L 419.194423 155.000513 
L 420.217522 144.462073 
L 420.422141 143.698798 
L 420.626761 143.671303 
L 420.831381 144.212063 
L 421.854479 148.686564 
L 422.059099 148.64082 
L 422.263719 148.200034 
L 422.672958 146.46699 
L 423.491437 141.705964 
L 423.696057 141.47854 
L 423.900677 142.034275 
L 424.309916 145.370286 
L 425.742254 161.336516 
L 426.151494 163.804026 
L 426.560733 165.091735 
L 427.583832 166.915657 
L 427.788452 167.022557 
L 427.993071 166.853454 
L 428.402311 165.850862 
L 429.22079 163.172673 
L 429.834649 162.55717 
L 430.243888 160.961282 
L 431.676226 153.427687 
L 431.880846 153.006594 
L 432.085466 152.874577 
L 432.290086 153.027069 
L 432.699325 154.007721 
L 433.722424 157.928409 
L 433.927043 158.032568 
L 434.131663 157.776545 
L 434.540903 156.63619 
L 435.154762 154.769341 
L 435.359381 154.750807 
L 435.564001 155.318721 
L 435.973241 157.794527 
L 436.38248 160.394739 
L 436.79172 161.742824 
L 437.405579 162.528685 
L 437.610198 162.620116 
L 437.814818 162.487014 
L 438.428677 161.436642 
L 438.837917 160.452546 
L 439.247156 158.629405 
L 439.861015 154.019138 
L 440.474875 147.150062 
L 442.521072 115.836909 
L 443.544171 96.135971 
L 444.771889 70.883161 
L 445.181128 66.521725 
L 445.385748 65.39427 
L 445.590368 65.049861 
L 445.794988 65.526269 
L 446.204227 68.549057 
L 446.613466 73.838532 
L 447.431945 89.055436 
L 448.455044 106.74609 
L 449.478143 120.66343 
L 450.092002 127.24657 
L 450.501241 129.967458 
L 451.1151 132.386218 
L 451.52434 133.28073 
L 451.72896 133.183477 
L 451.933579 132.669832 
L 452.342819 130.471475 
L 452.956678 124.817859 
L 455.616734 96.771301 
L 455.821354 95.692806 
L 456.025974 95.215467 
L 456.230594 95.412084 
L 456.435213 96.310307 
L 456.844453 100.162094 
L 457.662932 112.014901 
L 459.504509 141.291874 
L 460.527608 152.781282 
L 461.755326 164.786962 
L 462.369185 168.769548 
L 463.187664 173.357818 
L 463.801523 176.580992 
L 464.620002 179.180766 
L 465.029242 179.816781 
L 465.643101 180.44058 
L 466.46158 182.306401 
L 467.689298 185.185832 
L 468.303157 185.986878 
L 468.917017 186.526534 
L 469.121636 186.535021 
L 469.530876 186.160186 
L 470.144735 185.523619 
L 470.553974 185.356514 
L 471.167834 184.812196 
L 471.577073 184.872629 
L 471.986313 184.978444 
L 472.804791 184.699435 
L 473.214031 185.319752 
L 473.418651 185.645723 
L 473.62327 185.755515 
L 474.441749 185.264114 
L 474.850989 185.272029 
L 475.464848 185.100053 
L 476.078707 185.195993 
L 476.487947 185.123591 
L 476.897186 185.441341 
L 477.306425 185.661839 
L 477.920285 185.583957 
L 478.738764 185.318629 
L 479.148003 185.802438 
L 480.375721 187.817383 
L 481.60344 187.830284 
L 482.421919 187.258603 
L 482.831158 186.946009 
L 483.445017 186.106869 
L 483.854257 185.518995 
L 484.058876 185.484649 
L 484.263496 185.76227 
L 485.900454 190.040686 
L 486.105074 190.133048 
L 486.309693 189.933976 
L 487.332792 187.587599 
L 487.537412 187.586172 
L 488.355891 188.224452 
L 488.76513 188.015142 
L 489.378989 187.580178 
L 489.583609 187.524236 
L 489.788229 187.610357 
L 490.197468 188.035388 
L 490.402088 188.065319 
L 490.811327 187.975431 
L 491.425187 188.695341 
L 492.243665 188.62467 
L 492.857525 189.30837 
L 493.471384 190.166443 
L 493.880623 190.434092 
L 494.289863 191.275497 
L 494.699102 192.036831 
L 494.903722 192.09597 
L 495.108342 191.940549 
L 495.517581 191.084683 
L 496.13144 189.485959 
L 496.54068 189.104369 
L 496.745299 189.203715 
L 497.154539 189.95093 
L 497.563778 190.671792 
L 497.768398 190.669432 
L 498.177638 190.132649 
L 498.791497 189.301234 
L 498.996116 189.314002 
L 499.405356 189.955002 
L 499.814595 190.567822 
L 500.428455 190.899235 
L 501.042314 190.90285 
L 501.656173 190.925475 
L 502.065412 191.291252 
L 502.679272 191.836884 
L 503.088511 191.80642 
L 503.49775 191.73122 
L 503.70237 191.858956 
L 504.316229 192.650184 
L 504.520849 192.634086 
L 504.930089 192.136653 
L 505.339328 191.137924 
L 506.567046 186.993884 
L 506.771666 186.811119 
L 506.976286 186.8432 
L 507.590145 187.430427 
L 508.408624 188.411498 
L 509.227103 188.930814 
L 509.636342 189.253873 
L 510.454821 189.435573 
L 511.2733 189.576571 
L 511.68254 189.91099 
L 512.091779 190.584129 
L 513.114878 192.98093 
L 513.524117 193.809567 
L 513.728737 193.822069 
L 514.137976 193.214482 
L 515.365695 191.418265 
L 515.570314 191.306151 
L 515.774934 191.403937 
L 516.184174 192.029448 
L 516.593413 192.697944 
L 516.798033 192.87639 
L 517.002652 192.878978 
L 517.207272 192.690504 
L 518.230371 190.997249 
L 518.63961 191.022366 
L 519.04885 190.972721 
L 519.662709 190.644905 
L 520.071948 190.782383 
L 520.481188 191.400607 
L 521.504286 193.966911 
L 521.708906 194.150722 
L 522.118146 194.13843 
L 522.732005 193.963733 
L 522.936625 193.716196 
L 523.345864 192.551085 
L 523.959723 190.466726 
L 524.164343 190.077581 
L 524.368963 189.954108 
L 524.573582 190.081254 
L 525.596681 191.233958 
L 526.41516 191.270949 
L 526.824399 191.041565 
L 527.233639 190.567765 
L 528.052118 189.358261 
L 528.461357 189.116509 
L 528.870597 189.208681 
L 529.484456 189.484475 
L 529.893695 189.631163 
L 530.712174 190.112593 
L 531.121414 190.180105 
L 531.735273 190.473747 
L 531.939892 190.427394 
L 532.349132 189.98638 
L 532.962991 189.159988 
L 533.98609 188.516857 
L 534.190709 188.484224 
L 534.599949 188.764127 
L 535.009188 189.011531 
L 535.623048 188.577081 
L 535.827667 188.742949 
L 537.055386 191.593476 
L 537.873865 193.463541 
L 538.078484 193.5869 
L 538.283104 193.450221 
L 539.101583 192.174176 
L 539.306203 192.218207 
L 540.329301 193.321838 
L 540.533921 193.272555 
L 540.94316 192.758815 
L 541.3524 192.12025 
L 541.761639 191.903767 
L 542.170879 192.003284 
L 542.580118 192.132999 
L 542.784738 191.971603 
L 543.603217 190.732853 
L 544.012456 190.61446 
L 544.626316 190.69552 
L 545.035555 190.447926 
L 545.444794 189.6598 
L 546.263273 187.997579 
L 546.467893 187.874886 
L 546.672513 188.019652 
L 547.081752 188.993302 
L 547.695611 190.409242 
L 547.900231 190.554864 
L 548.104851 190.501566 
L 548.51409 189.917574 
L 549.332569 188.33198 
L 549.741809 188.127713 
L 550.355668 187.970902 
L 550.560288 187.906948 
L 550.764907 187.962511 
L 551.992626 189.205903 
L 552.811105 190.468438 
L 553.220344 190.377084 
L 553.629584 190.070712 
L 554.243443 189.402311 
L 554.448062 189.398258 
L 554.857302 189.708379 
L 555.266541 190.471407 
L 556.28964 193.209154 
L 556.698879 193.441106 
L 557.108119 193.393403 
L 557.517358 193.28422 
L 557.926598 193.53834 
L 558.335837 193.846386 
L 558.540457 193.823058 
L 558.745077 193.614281 
L 559.154316 192.585164 
L 560.177415 189.193896 
L 560.382035 188.92031 
L 561.200513 188.633823 
L 562.018992 187.643809 
L 562.223612 187.716001 
L 562.632852 188.553334 
L 563.246711 189.949579 
L 564.474429 190.897427 
L 564.679049 190.885592 
L 565.702147 190.236295 
L 566.725246 190.062378 
L 566.929866 190.250186 
L 567.339105 191.212114 
L 567.748345 192.311864 
L 567.952964 192.499119 
L 568.157584 192.409649 
L 569.180683 191.161252 
L 569.589922 190.714662 
L 570.408401 190.693255 
L 570.817641 190.084527 
L 571.22688 189.296667 
L 571.636119 189.051832 
L 572.045359 189.141816 
L 572.249979 189.32951 
L 572.659218 190.383611 
L 573.273077 192.278888 
L 573.477697 192.416461 
L 573.682317 192.279344 
L 574.500796 191.226081 
L 574.910035 191.066701 
L 575.728514 191.116251 
L 576.137753 190.740274 
L 576.546993 190.335774 
L 576.751613 190.31511 
L 576.956232 190.49228 
L 578.38857 192.767149 
L 579.411669 193.629142 
L 579.820909 193.786924 
L 580.230148 193.549548 
L 580.844007 193.012213 
L 581.253247 193.055901 
L 581.662486 193.304504 
L 581.867106 193.203179 
L 582.276345 192.333156 
L 582.685585 191.516754 
L 582.890204 191.384928 
L 583.299444 191.488212 
L 584.117923 192.192462 
L 584.527162 192.312606 
L 584.936402 192.17332 
L 585.345641 191.608089 
L 586.16412 190.235325 
L 586.36874 190.06879 
L 586.57336 190.072025 
L 586.982599 190.607591 
L 587.391838 191.115566 
L 587.596458 191.145421 
L 588.414937 190.735631 
L 588.619557 190.970514 
L 589.438036 192.442568 
L 590.051895 193.035922 
L 590.461134 193.085357 
L 590.870374 192.651915 
L 591.484233 191.776983 
L 592.098092 191.616747 
L 592.507332 191.492608 
L 592.916571 190.954112 
L 593.53043 189.84013 
L 593.73505 189.85716 
L 594.348909 190.424407 
L 594.553529 190.431562 
L 594.962768 190.047631 
L 595.372008 189.592231 
L 595.576628 189.607986 
L 596.599726 190.444824 
L 597.008966 190.615925 
L 597.622825 191.097222 
L 597.827445 191.057339 
L 598.645923 190.363365 
L 599.259783 190.564397 
L 599.464402 190.522763 
L 599.873642 190.105876 
L 600.282881 189.77669 
L 600.692121 189.929904 
L 601.30598 190.404066 
L 601.919839 190.514753 
L 602.942938 191.39545 
L 603.352177 191.283755 
L 604.170656 190.947966 
L 604.579895 191.031575 
L 604.989135 191.340421 
L 606.421473 193.11152 
L 607.239952 193.986167 
L 607.649191 193.938749 
L 608.46767 193.60629 
L 608.87691 193.871523 
L 609.286149 194.231991 
L 609.490769 194.28253 
L 609.695389 194.148972 
L 609.900008 193.779978 
L 610.923107 190.85899 
L 611.741586 191.233102 
L 612.150825 191.321488 
L 612.560065 191.910275 
L 612.969304 192.486009 
L 613.173924 192.574033 
L 613.378544 192.510137 
L 613.787783 192.018926 
L 614.606262 190.675293 
L 615.220121 189.841481 
L 615.629361 189.238555 
L 616.0386 189.140751 
L 616.24322 189.302756 
L 617.061699 190.694511 
L 617.880178 192.371802 
L 618.289417 193.144249 
L 618.494037 193.269168 
L 619.312516 193.023668 
L 619.926375 193.935819 
L 620.335614 193.873597 
L 620.540234 193.853065 
L 621.767953 194.393749 
L 622.177192 194.240649 
L 622.791051 193.69614 
L 623.200291 193.29714 
L 623.60953 193.200287 
L 624.428009 193.301155 
L 625.041868 192.966526 
L 625.655727 192.541305 
L 626.474206 191.453562 
L 627.292685 190.107113 
L 627.497305 189.96406 
L 627.906544 190.092423 
L 628.111164 190.17295 
L 628.315784 190.114287 
L 629.134263 189.187294 
L 629.338882 189.302566 
L 629.952742 190.038365 
L 630.97584 190.338134 
L 631.794319 191.335036 
L 631.998939 191.227127 
L 632.612798 190.486267 
L 633.431277 190.187069 
L 633.840516 189.408001 
L 634.454376 188.037824 
L 634.658995 188.002355 
L 634.863615 188.244032 
L 635.682094 189.790105 
L 636.295953 189.95055 
L 636.705193 190.065575 
L 637.114432 189.848597 
L 637.523672 189.382541 
L 637.728291 189.307742 
L 638.137531 189.475684 
L 638.34215 189.357633 
L 638.75139 188.525591 
L 639.160629 187.719369 
L 639.979108 186.92778 
L 640.183728 186.812242 
L 640.388348 186.825809 
L 640.797587 187.178267 
L 641.820686 188.21098 
L 642.025305 188.260244 
L 642.229925 188.034646 
L 643.253024 185.65282 
L 643.457644 185.746781 
L 643.866883 186.329745 
L 645.503841 189.766186 
L 645.91308 190.280745 
L 646.1177 190.332939 
L 646.32232 190.176737 
L 646.731559 189.329301 
L 647.345418 187.850911 
L 648.163897 186.587557 
L 649.186996 184.536573 
L 649.391616 184.464457 
L 649.596235 184.61925 
L 650.414714 185.658528 
L 650.823954 185.684768 
L 651.233193 185.352023 
L 653.27939 182.797783 
L 653.48401 182.808002 
L 653.89325 183.446642 
L 654.302489 183.972618 
L 654.711729 184.074019 
L 655.939447 183.983121 
L 656.348686 183.851314 
L 656.553306 183.917741 
L 656.757926 184.138239 
L 657.576405 185.646255 
L 657.781024 185.576727 
L 658.394884 184.841708 
L 658.804123 184.097176 
L 659.622602 182.074981 
L 659.827222 182.032587 
L 660.031841 182.406718 
L 660.645701 184.166419 
L 661.46418 185.104582 
L 661.668799 185.16296 
L 661.873419 185.00164 
L 662.282658 184.159017 
L 662.896518 182.974117 
L 664.328856 181.450631 
L 664.738095 181.47687 
L 665.351954 181.739363 
L 665.965814 181.784346 
L 666.375053 182.130658 
L 666.988912 182.969056 
L 668.012011 183.683067 
L 668.216631 183.721523 
L 668.42125 183.622025 
L 668.83049 182.940856 
L 669.853588 180.418716 
L 670.262828 180.869321 
L 670.672067 181.155352 
L 671.285926 181.125839 
L 671.695166 180.775341 
L 672.104405 180.386273 
L 672.513645 180.277832 
L 673.127504 180.267462 
L 673.536743 179.7984 
L 673.945983 179.182992 
L 674.150603 179.02679 
L 674.355222 179.038378 
L 675.173701 179.479241 
L 675.582941 179.056246 
L 675.99218 178.62347 
L 677.015279 177.804519 
L 678.038377 176.032506 
L 678.652237 174.557788 
L 679.266096 172.594353 
L 679.675335 170.673844 
L 680.493814 164.966854 
L 681.107673 161.524248 
L 681.312293 161.075565 
L 681.516913 161.093946 
L 681.721532 161.538823 
L 682.949251 165.711843 
L 683.35849 166.307766 
L 683.76773 166.280803 
L 684.176969 166.003259 
L 684.586209 165.254711 
L 687.246265 157.017266 
L 687.655505 154.897267 
L 688.269364 150.28582 
L 688.883223 144.184453 
L 689.497082 135.833143 
L 690.315561 124.118347 
L 690.7248 121.627547 
L 690.92942 121.569092 
L 691.33866 122.755439 
L 691.747899 123.789103 
L 691.952519 123.840536 
L 692.157139 123.583428 
L 692.361758 123.021471 
L 692.770998 120.882367 
L 693.589477 114.352239 
L 694.203336 107.754295 
L 695.226434 91.645049 
L 695.840294 79.25249 
L 696.454153 62.300888 
L 697.272632 31.737728 
L 697.931069 -1 
M 708.798512 -1 
L 709.345196 29.816687 
L 710.163675 61.716667 
L 710.982153 83.429086 
L 711.800632 98.690097 
L 713.028351 116.105167 
L 713.64221 122.427717 
L 714.051449 125.001138 
L 714.665309 127.138262 
L 715.483787 129.940743 
L 715.893027 130.47256 
L 716.302266 130.623301 
L 716.711506 130.751436 
L 717.120745 131.441605 
L 717.529985 132.083842 
L 717.734604 131.924387 
L 717.939224 131.362372 
L 718.348464 129.246312 
L 718.757703 125.994425 
L 719.371562 119.072013 
L 720.8039 101.59925 
L 721.00852 100.577211 
L 721.21314 100.444547 
L 721.417759 101.146437 
L 721.826999 104.617205 
L 722.440858 113.468783 
L 723.668576 133.030568 
L 724.282436 139.07936 
L 724.896295 143.148714 
L 725.919393 147.884871 
L 726.328633 148.917508 
L 727.147112 150.07946 
L 728.57945 152.187567 
L 730.421027 156.709543 
L 730.625647 156.669965 
L 731.034887 156.066297 
L 731.853366 154.545532 
L 733.285704 152.832792 
L 733.490323 152.832925 
L 733.694943 152.987034 
L 734.308802 153.885446 
L 734.513422 153.818296 
L 734.922661 152.817151 
L 735.331901 151.664313 
L 736.15038 150.467958 
L 736.559619 149.124154 
L 736.968859 147.018292 
L 737.787338 142.519283 
L 739.219676 135.801043 
L 739.628915 135.078241 
L 739.833535 135.014478 
L 740.038155 135.212332 
L 740.447394 136.096569 
L 740.856634 137.337374 
L 741.470493 140.189594 
L 742.493591 145.445979 
L 742.902831 146.192681 
L 743.72131 146.530297 
L 744.130549 146.772373 
L 744.335169 146.730492 
L 745.153648 146.138051 
L 745.972127 146.265521 
L 746.585986 146.491898 
L 748.018324 146.45917 
L 748.427563 146.123647 
L 749.041423 145.476995 
L 749.450662 145.261445 
L 749.655282 145.337652 
L 749.859902 145.688645 
L 751.08762 149.019004 
L 751.496859 149.566919 
L 751.906099 149.509587 
L 752.519958 149.221007 
L 752.929197 148.652884 
L 753.338437 147.546208 
L 754.156916 145.141682 
L 754.770775 144.592625 
L 755.384634 144.119967 
L 755.793874 143.865732 
L 756.203113 142.984996 
L 756.612352 141.949962 
L 756.816972 141.752983 
L 757.021592 141.791553 
L 757.430831 142.226269 
L 758.044691 143.299969 
L 759.067789 146.220881 
L 759.477029 146.525045 
L 760.909367 146.865287 
L 762.546325 148.253636 
L 762.955564 148.65747 
L 763.364803 148.707057 
L 763.978663 148.570778 
L 764.592522 148.715753 
L 764.797142 148.522903 
L 765.206381 147.568072 
L 765.82024 145.986283 
L 766.02486 145.737034 
L 766.22948 145.664023 
L 766.638719 145.8438 
L 767.252578 146.143284 
L 768.480297 146.644618 
L 769.503395 146.841635 
L 770.117254 147.524954 
L 770.526494 148.461975 
L 771.140353 150.150416 
L 771.549593 150.436314 
L 771.958832 150.206968 
L 772.981931 149.242185 
L 773.39117 149.048992 
L 773.59579 149.073786 
L 774.005029 149.472102 
L 774.618888 150.193287 
L 774.823508 150.224531 
L 775.028128 150.026277 
L 776.460466 147.197785 
L 776.869705 147.032639 
L 777.278945 147.018007 
L 777.688184 147.334102 
L 778.097424 147.552773 
L 778.506663 147.382947 
L 778.915903 147.595301 
L 779.120522 147.677464 
L 779.325142 147.580459 
L 779.734382 147.153202 
L 779.939001 147.172744 
L 780.143621 147.513138 
L 780.9621 149.643869 
L 781.780579 150.822204 
L 783.212917 152.6709 
L 783.826776 153.135948 
L 784.236016 153.504522 
L 784.440635 153.473373 
L 784.849875 152.814563 
L 785.259114 152.03675 
L 786.077593 151.123762 
L 786.486833 150.552994 
L 786.896072 150.41367 
L 787.100692 150.585057 
L 787.509931 151.433464 
L 788.73765 155.063877 
L 789.556129 157.322325 
L 789.760748 157.625976 
L 789.965368 157.724027 
L 790.374607 157.484616 
L 790.783847 157.36744 
L 791.193086 157.769904 
L 791.602326 158.160247 
L 792.216185 158.190635 
L 792.625424 158.245132 
L 792.830044 158.427878 
L 793.239284 159.256552 
L 793.648523 160.122294 
L 794.467002 161.3431 
L 795.285481 163.487703 
L 795.69472 163.827069 
L 796.308579 163.946585 
L 796.513199 163.855079 
L 796.922439 163.135074 
L 797.331678 162.28132 
L 797.536298 162.155982 
L 797.740918 162.256812 
L 798.150157 162.948484 
L 799.377875 165.533797 
L 799.787115 165.906291 
L 800.196354 165.822054 
L 800.605594 165.752106 
L 801.014833 166.231824 
L 801.424073 167.11785 
L 802.037932 169.129408 
L 802.447171 170.383037 
L 802.651791 170.666214 
L 803.06103 170.608692 
L 803.47027 170.674701 
L 803.879509 171.138283 
L 804.288749 171.950441 
L 804.902608 173.335517 
L 805.107228 173.422761 
L 805.721087 173.123087 
L 806.334946 173.150792 
L 806.948805 172.808762 
L 807.153425 172.918287 
L 807.562664 173.650033 
L 808.995003 177.32149 
L 809.199622 177.465266 
L 809.813481 177.457484 
L 810.222721 177.856313 
L 811.655059 179.753531 
L 812.473538 180.137005 
L 812.882777 180.744973 
L 813.292017 181.391092 
L 813.496637 181.489334 
L 813.905876 181.216508 
L 814.519735 180.546338 
L 815.338214 180.268813 
L 815.542834 180.293397 
L 815.747454 180.542742 
L 816.156693 181.740239 
L 816.770552 183.864329 
L 817.179792 184.489783 
L 817.589031 184.735531 
L 817.998271 184.756139 
L 818.40751 184.63101 
L 818.816749 184.359383 
L 819.021369 184.370572 
L 819.430609 184.867434 
L 819.839848 185.327877 
L 820.249088 185.564663 
L 821.272186 185.745791 
L 821.681426 186.003014 
L 821.886045 186.01993 
L 822.090665 185.878417 
L 822.704524 185.133238 
L 822.909144 185.273266 
L 823.318383 186.340021 
L 823.932243 188.068554 
L 824.546102 188.974445 
L 824.750722 189.062907 
L 825.364581 188.938691 
L 825.77382 189.048293 
L 826.387679 188.915115 
L 826.796919 189.19873 
L 827.206158 189.540075 
L 827.410778 189.518726 
L 828.024637 188.988107 
L 828.433877 188.14187 
L 828.843116 187.206542 
L 829.252356 186.928085 
L 829.661595 187.025737 
L 830.070834 187.46856 
L 831.093933 189.015755 
L 831.298553 188.774098 
L 831.707792 187.403959 
L 832.730891 183.353823 
L 833.14013 182.597874 
L 833.34475 182.51748 
L 834.163229 182.589007 
L 834.367849 182.333916 
L 834.777088 180.902468 
L 836.004806 174.480534 
L 836.823285 171.294542 
L 837.641764 167.153775 
L 838.664863 163.591235 
L 840.097201 157.525831 
L 843.166497 138.773521 
L 844.394215 128.308568 
L 846.440413 108.282497 
L 848.895849 84.053152 
L 851.760525 46.823261 
L 854.420582 6.179211 
L 854.844254 -1 
M 941.905726 -1 
L 942.611684 21.480809 
L 943.430163 41.418304 
L 944.248642 55.337451 
L 945.47636 73.08578 
L 947.727177 99.365158 
L 949.773375 112.047097 
L 950.387234 114.573232 
L 951.001093 116.950263 
L 952.433431 124.208978 
L 952.84267 124.890622 
L 953.25191 125.400024 
L 953.661149 126.572195 
L 954.070389 128.579148 
L 955.298107 136.477474 
L 955.502727 136.831492 
L 955.707347 136.810009 
L 956.116586 136.444022 
L 956.321206 136.494884 
L 956.525826 136.881993 
L 957.753544 140.756118 
L 958.162783 141.128175 
L 958.572023 140.799845 
L 958.776643 140.6249 
L 958.981262 140.676048 
L 959.185882 141.063099 
L 959.799741 143.457522 
L 960.4136 145.830367 
L 960.82284 146.67472 
L 961.232079 147.092045 
L 961.641319 147.071362 
L 962.255178 146.735725 
L 962.664417 146.429581 
L 962.869037 146.518823 
L 963.278277 147.35412 
L 965.938333 154.300259 
L 966.552192 155.254272 
L 967.370671 156.792582 
L 967.575291 156.925607 
L 967.98453 156.73369 
L 968.39377 156.543827 
L 969.007629 156.696319 
L 969.212249 156.555701 
L 970.030728 155.490088 
L 970.439967 155.536478 
L 970.849206 156.100948 
L 971.667685 157.739745 
L 972.486164 158.860539 
L 972.690784 158.950961 
L 972.895404 158.796091 
L 973.304643 158.269202 
L 973.509263 158.315726 
L 973.918502 159.086346 
L 974.736981 160.749042 
L 975.35084 161.510871 
L 975.9647 162.031024 
L 976.373939 163.002333 
L 976.987798 164.92425 
L 977.397038 165.602146 
L 977.806277 165.882164 
L 978.829376 165.705278 
L 979.238615 165.836496 
L 979.852474 166.230664 
L 981.284813 166.746021 
L 981.694052 167.004271 
L 982.103291 166.812125 
L 982.92177 166.14675 
L 983.12639 165.98423 
L 983.33101 165.966744 
L 983.53563 166.178736 
L 983.944869 167.3244 
L 984.558728 169.222779 
L 984.967968 169.733417 
L 985.172587 169.696979 
L 985.786447 169.27444 
L 986.400306 169.410034 
L 987.423404 169.868346 
L 987.628024 169.773395 
L 987.832644 169.472599 
L 988.855742 166.569669 
L 989.264982 165.457399 
L 989.469602 165.179246 
L 989.674221 165.159475 
L 990.083461 165.346198 
L 990.28808 165.235074 
L 990.69732 164.481218 
L 991.311179 162.964486 
L 991.720419 162.657563 
L 992.129658 162.34788 
L 992.538897 162.00212 
L 992.743517 162.148161 
L 993.152757 163.156138 
L 993.971236 165.341327 
L 994.175855 165.456733 
L 994.380475 165.236406 
L 994.994334 163.766389 
L 995.198954 163.613326 
L 995.403574 163.705346 
L 995.812813 164.40208 
L 996.426672 165.483753 
L 997.040531 166.248588 
L 998.26825 168.733014 
L 998.677489 168.974424 
L 999.086729 168.96529 
L 999.291348 168.822731 
L 999.700588 168.125141 
L 1000.109827 166.943895 
L 1000.519067 165.629261 
L 1001.337546 163.826879 
L 1001.746785 161.196013 
L 1002.156025 158.45994 
L 1002.360644 157.854522 
L 1002.565264 157.972706 
L 1002.974504 159.766316 
L 1003.997602 165.369831 
L 1005.020701 169.377458 
L 1005.42994 170.415804 
L 1006.453039 171.813324 
L 1006.862278 172.499593 
L 1007.271518 172.831576 
L 1007.680757 172.849006 
L 1008.294616 172.579644 
L 1008.499236 172.671302 
L 1008.908476 173.182493 
L 1009.522335 173.922401 
L 1010.136194 174.35453 
L 1010.340814 174.325055 
L 1010.750053 173.614032 
L 1011.568532 171.452037 
L 1011.977772 170.117119 
L 1012.182391 169.73551 
L 1012.387011 169.661206 
L 1012.591631 169.946418 
L 1013.819349 173.284826 
L 1014.433208 174.170186 
L 1014.842448 175.061729 
L 1015.456307 176.586186 
L 1015.660927 176.790967 
L 1015.865546 176.77211 
L 1016.274786 176.304361 
L 1016.684025 175.404597 
L 1017.297884 173.566138 
L 1017.502504 173.275464 
L 1017.707124 173.182531 
L 1017.911744 173.296776 
L 1018.320983 174.230276 
L 1018.730223 175.287403 
L 1018.934842 175.415386 
L 1019.139462 175.278041 
L 1019.957941 174.078451 
L 1020.162561 174.151405 
L 1020.36718 174.544716 
L 1021.594899 178.118635 
L 1022.004138 178.556643 
L 1022.208758 178.605146 
L 1022.413378 178.518302 
L 1022.822617 177.896596 
L 1023.436476 176.673031 
L 1024.050335 176.063389 
L 1024.459575 175.914817 
L 1024.868814 176.400947 
L 1025.482674 177.277135 
L 1026.096533 177.858977 
L 1026.301152 178.014532 
L 1026.505772 178.32549 
L 1026.915012 179.625472 
L 1027.528871 181.986424 
L 1027.93811 182.752192 
L 1028.14273 182.845753 
L 1028.34735 182.725743 
L 1028.961209 182.116786 
L 1029.370448 182.325639 
L 1029.779688 182.49008 
L 1030.188927 182.142131 
L 1031.212026 180.732814 
L 1031.825885 180.778976 
L 1032.030505 180.586563 
L 1032.848984 179.276021 
L 1033.258223 179.228793 
L 1033.667463 178.808538 
L 1034.076702 178.28829 
L 1034.485941 178.08545 
L 1035.71366 178.255904 
L 1036.327519 178.642803 
L 1036.532139 178.444435 
L 1037.350618 176.647704 
L 1037.759857 176.367382 
L 1038.169097 176.394078 
L 1038.373716 176.624338 
L 1038.782956 177.623086 
L 1039.192195 178.601036 
L 1039.601435 178.931669 
L 1040.829153 179.567246 
L 1041.238392 179.650875 
L 1042.261491 179.378563 
L 1042.87535 179.48592 
L 1043.28459 179.34241 
L 1043.693829 179.178273 
L 1044.103069 179.342771 
L 1045.944646 181.789065 
L 1046.353886 181.801129 
L 1046.763125 181.457405 
L 1047.376984 180.325802 
L 1047.990843 179.246261 
L 1048.400083 179.086177 
L 1049.832421 179.091372 
L 1050.037041 178.919567 
L 1050.6509 177.889042 
L 1050.85552 177.899526 
L 1052.492477 179.868138 
L 1052.901717 179.960786 
L 1053.720196 180.511364 
L 1054.334055 180.686632 
L 1054.743294 180.812865 
L 1055.152534 180.582282 
L 1055.766393 179.915784 
L 1055.971013 179.989937 
L 1056.380252 180.911107 
L 1056.789492 182.024671 
L 1056.994111 182.333935 
L 1057.198731 182.416136 
L 1057.607971 182.095379 
L 1058.01721 181.745833 
L 1058.22183 181.714874 
L 1058.631069 182.069425 
L 1058.835689 182.271428 
L 1059.040309 182.291084 
L 1059.449548 181.692097 
L 1059.858788 181.136628 
L 1060.063407 181.105422 
L 1060.472647 181.3502 
L 1061.086506 181.952707 
L 1061.495745 181.98789 
L 1061.700365 181.991486 
L 1061.904985 182.127252 
L 1062.314224 182.84524 
L 1062.723464 183.588002 
L 1063.132703 183.829013 
L 1063.337323 183.699412 
L 1063.951182 182.968123 
L 1064.360422 182.877987 
L 1064.974281 183.027681 
L 1065.79276 183.617401 
L 1066.201999 183.412411 
L 1066.815858 182.895797 
L 1067.225098 182.304251 
L 1067.429717 182.240431 
L 1067.838957 182.744676 
L 1068.043577 183.011717 
L 1068.248196 183.093728 
L 1069.066675 182.820446 
L 1069.475915 183.004657 
L 1069.885154 182.620213 
L 1070.294394 182.176553 
L 1070.703633 182.06364 
L 1071.317492 182.101716 
L 1071.522112 182.222544 
L 1071.931351 183.004391 
L 1072.74983 185.016976 
L 1072.95445 185.132192 
L 1073.15907 185.026909 
L 1073.977549 183.922269 
L 1074.796028 182.39825 
L 1075.000647 182.260601 
L 1075.205267 182.257271 
L 1075.409887 182.408468 
L 1076.023746 183.255752 
L 1076.228366 183.245877 
L 1076.637605 182.749357 
L 1077.046845 182.323736 
L 1077.456084 182.424699 
L 1078.683802 183.295959 
L 1079.093042 183.089751 
L 1079.502281 182.914559 
L 1080.116141 183.142097 
L 1080.52538 183.26793 
L 1080.73 183.133896 
L 1081.548479 181.911587 
L 1081.957718 181.9775 
L 1082.366958 182.078406 
L 1082.776197 182.110145 
L 1083.185436 182.449474 
L 1083.594676 182.797898 
L 1084.003915 182.737883 
L 1084.208535 182.655567 
L 1084.413155 182.721119 
L 1084.822394 183.528787 
L 1085.436253 184.862335 
L 1086.663972 186.436684 
L 1087.277831 187.695032 
L 1087.68707 187.853308 
L 1088.30093 187.879757 
L 1088.505549 187.736 
L 1088.914789 186.868755 
L 1089.528648 185.082737 
L 1089.733268 184.920599 
L 1089.937887 185.005065 
L 1090.551747 185.57216 
L 1091.165606 185.776274 
L 1091.779465 186.196815 
L 1091.984085 186.147209 
L 1092.393324 185.637046 
L 1093.211803 183.590914 
L 1094.030282 181.519588 
L 1094.439521 181.129455 
L 1095.053381 181.087993 
L 1095.87186 181.252262 
L 1096.281099 181.575132 
L 1096.690338 182.282997 
L 1097.918057 184.689445 
L 1098.736536 185.773915 
L 1098.941155 185.84919 
L 1099.145775 185.709391 
L 1099.964254 184.47595 
L 1100.782733 184.018057 
L 1101.396592 183.83044 
L 1101.601212 183.44453 
L 1102.419691 181.038386 
L 1102.624311 180.874916 
L 1102.82893 181.042706 
L 1103.647409 182.534548 
L 1103.852029 182.621203 
L 1104.670508 182.472517 
L 1105.079747 182.688524 
L 1105.284367 182.600291 
L 1105.693606 182.010533 
L 1106.512085 180.691256 
L 1106.716705 180.514523 
L 1107.330564 180.425833 
L 1107.739804 179.781427 
L 1108.149043 179.063457 
L 1108.762902 178.685426 
L 1108.967522 178.289565 
L 1109.376761 176.761797 
L 1110.39986 172.361734 
L 1110.60448 172.116119 
L 1111.218339 172.270894 
L 1111.422959 171.979935 
L 1111.832198 170.360032 
L 1114.083015 156.521964 
L 1117.76617 120.531812 
L 1118.789269 107.904218 
L 1119.198508 100.075972 
L 1119.812368 82.445504 
L 1120.221607 65.034144 
L 1120.835466 25.840152 
L 1121.136225 -1 
M 1124.603596 -1 
L 1125.13248 43.384898 
L 1125.54172 64.736297 
L 1126.155579 84.071818 
L 1128.611016 143.164184 
L 1129.224875 152.629952 
L 1129.634114 156.332463 
L 1130.452593 162.736568 
L 1131.066453 167.378497 
L 1131.680312 170.11769 
L 1133.11265 174.391654 
L 1133.521889 175.232716 
L 1134.135748 177.257841 
L 1134.749608 178.900215 
L 1135.363467 179.766109 
L 1135.772706 179.941149 
L 1136.181946 179.707046 
L 1136.795805 179.176085 
L 1137.409664 179.090554 
L 1137.818904 179.082124 
L 1138.228143 179.246242 
L 1138.637382 179.689388 
L 1139.046622 180.367664 
L 1139.251242 180.439381 
L 1139.455861 180.183681 
L 1140.069721 178.696595 
L 1140.27434 178.492424 
L 1140.47896 178.513754 
L 1140.888199 179.003024 
L 1143.139016 182.802483 
L 1143.548256 183.448545 
L 1143.752876 183.339552 
L 1144.162115 182.206332 
L 1144.775974 180.186954 
L 1144.980594 180.010202 
L 1146.003693 180.08032 
L 1146.412932 179.976389 
L 1146.822171 180.398832 
L 1147.231411 180.832121 
L 1147.84527 181.077927 
L 1148.663749 181.78758 
L 1149.277608 183.381452 
L 1150.505327 186.335054 
L 1151.119186 187.066781 
L 1151.323805 187.09224 
L 1151.528425 186.838025 
L 1152.346904 184.829778 
L 1152.551524 184.828788 
L 1153.165383 185.218408 
L 1154.597721 185.186897 
L 1155.21158 184.955573 
L 1155.825439 185.031457 
L 1156.439299 185.419155 
L 1156.848538 185.988533 
L 1157.462397 187.18036 
L 1157.667017 187.290532 
L 1157.871637 187.230023 
L 1158.280876 186.726919 
L 1158.894735 185.644771 
L 1159.303975 184.768869 
L 1159.508595 184.575962 
L 1159.917834 184.640619 
L 1160.327073 184.725332 
L 1160.940933 184.680597 
L 1161.350172 185.021828 
L 1161.964031 185.817166 
L 1162.168651 185.889891 
L 1162.78251 185.7421 
L 1163.19175 186.277228 
L 1163.805609 187.318142 
L 1164.010229 187.430218 
L 1164.214848 187.335306 
L 1164.624088 186.556332 
L 1165.647186 183.257903 
L 1165.851806 183.09603 
L 1166.056426 183.232823 
L 1166.874905 184.584125 
L 1167.079524 184.646194 
L 1167.693384 184.344789 
L 1168.102623 184.003976 
L 1168.716482 183.280356 
L 1168.921102 183.300259 
L 1169.534961 183.83023 
L 1169.944201 184.4225 
L 1170.76268 186.026723 
L 1171.785778 186.761684 
L 1172.195018 186.762673 
L 1172.399637 186.860288 
L 1172.808877 187.432825 
L 1173.218116 188.113651 
L 1173.422736 188.269986 
L 1173.627356 188.263859 
L 1174.036595 187.848399 
L 1174.855074 186.675962 
L 1175.264314 186.132995 
L 1175.468933 186.18498 
L 1176.082792 186.582134 
L 1177.515131 186.979042 
L 1178.333609 187.650944 
L 1178.538229 187.422911 
L 1179.152088 185.90656 
L 1179.561328 184.973535 
L 1179.765948 184.858244 
L 1179.970567 185.000289 
L 1180.379807 185.688669 
L 1181.402905 188.111976 
L 1181.607525 188.231112 
L 1182.016764 188.002964 
L 1182.630624 187.299019 
L 1183.039863 186.485415 
L 1183.449103 185.549878 
L 1184.062962 184.911123 
L 1184.267581 184.882409 
L 1184.472201 185.201663 
L 1184.881441 186.846625 
L 1184.881441 186.846625 
" clip-path="url(#pbe775a2d52)" style="fill: none; stroke: #000000; stroke-width: 2; stroke-linecap: square"/>
   </g>
   <g id="patch_3">
    <path d="M 3.00024 198.907885 
L 1184.99976 198.907885 
" style="fill: none; stroke: #000000; stroke-width: 2; stroke-linejoin: miter; stroke-linecap: square"/>
   </g>
  </g>
 </g>
 <defs>
  <clipPath id="pbe775a2d52">
   <rect x="3.00024" y="3.00024" width="1181.99952" height="195.907645"/>
  </clipPath>
 </defs>
</svg>
