<?xml version="1.0" encoding="utf-8" standalone="no"?>
<!DOCTYPE svg PUBLIC "-//W3C//DTD SVG 1.1//EN"
  "http://www.w3.org/Graphics/SVG/1.1/DTD/svg11.dtd">
<svg xmlns:xlink="http://www.w3.org/1999/xlink" width="1188pt" height="252pt" viewBox="0 0 1188 252" xmlns="http://www.w3.org/2000/svg" version="1.1">
 <metadata>
  <rdf:RDF xmlns:dc="http://purl.org/dc/elements/1.1/" xmlns:cc="http://creativecommons.org/ns#" xmlns:rdf="http://www.w3.org/1999/02/22-rdf-syntax-ns#">
   <cc:Work>
    <dc:type rdf:resource="http://purl.org/dc/dcmitype/StillImage"/>
    <dc:date>2024-07-23T21:44:23.102196</dc:date>
    <dc:format>image/svg+xml</dc:format>
    <dc:creator>
     <cc:Agent>
      <dc:title>Matplotlib v3.8.4, https://matplotlib.org/</dc:title>
     </cc:Agent>
    </dc:creator>
   </cc:Work>
  </rdf:RDF>
 </metadata>
 <defs>
  <style type="text/css">*{stroke-linejoin: round; stroke-linecap: butt}</style>
 </defs>
 <g id="figure_1">
  <g id="patch_1">
   <path d="M 0 252 
L 1188 252 
L 1188 0 
L 0 0 
z
" style="fill: #ffffff"/>
  </g>
  <g id="axes_1">
   <g id="patch_2">
    <path d="M 3.00024 198.907885 
L 1184.99976 198.907885 
L 1184.99976 3.00024 
L 3.00024 3.00024 
z
" style="fill: #ffffff"/>
   </g>
   <g id="matplotlib.axis_1">
    <g id="xtick_1">
     <g id="line2d_1">
      <defs>
       <path id="mb12954f68b" d="M 0 0 
L 0 8 
" style="stroke: #000000; stroke-width: 2"/>
      </defs>
      <g>
       <use xlink:href="#mb12954f68b" x="1131.272509" y="198.907885" style="stroke: #000000; stroke-width: 2"/>
      </g>
     </g>
     <g id="text_1">
      <!-- 0 -->
      <g transform="translate(1126.267665 224.791947) scale(0.18 -0.18)">
       <defs>
        <path id="Arial-BoldMT-30" d="M 1756 4600 
Q 2422 4600 2797 4125 
Q 3244 3563 3244 2259 
Q 3244 959 2794 391 
Q 2422 -78 1756 -78 
Q 1088 -78 678 436 
Q 269 950 269 2269 
Q 269 3563 719 4131 
Q 1091 4600 1756 4600 
z
M 1756 3872 
Q 1597 3872 1472 3770 
Q 1347 3669 1278 3406 
Q 1188 3066 1188 2259 
Q 1188 1453 1269 1151 
Q 1350 850 1473 750 
Q 1597 650 1756 650 
Q 1916 650 2041 751 
Q 2166 853 2234 1116 
Q 2325 1453 2325 2259 
Q 2325 3066 2244 3367 
Q 2163 3669 2039 3770 
Q 1916 3872 1756 3872 
z
" transform="scale(0.015625)"/>
       </defs>
       <use xlink:href="#Arial-BoldMT-30"/>
      </g>
     </g>
    </g>
    <g id="xtick_2">
     <g id="line2d_2">
      <g>
       <use xlink:href="#mb12954f68b" x="1023.818007" y="198.907885" style="stroke: #000000; stroke-width: 2"/>
      </g>
     </g>
     <g id="text_2">
      <!-- 1 -->
      <g transform="translate(1018.813164 224.791947) scale(0.18 -0.18)">
       <defs>
        <path id="Arial-BoldMT-31" d="M 2519 0 
L 1641 0 
L 1641 3309 
Q 1159 2859 506 2644 
L 506 3441 
Q 850 3553 1253 3867 
Q 1656 4181 1806 4600 
L 2519 4600 
L 2519 0 
z
" transform="scale(0.015625)"/>
       </defs>
       <use xlink:href="#Arial-BoldMT-31"/>
      </g>
     </g>
    </g>
    <g id="xtick_3">
     <g id="line2d_3">
      <g>
       <use xlink:href="#mb12954f68b" x="916.363505" y="198.907885" style="stroke: #000000; stroke-width: 2"/>
      </g>
     </g>
     <g id="text_3">
      <!-- 2 -->
      <g transform="translate(911.358662 224.791947) scale(0.18 -0.18)">
       <defs>
        <path id="Arial-BoldMT-32" d="M 3238 816 
L 3238 0 
L 159 0 
Q 209 463 459 877 
Q 709 1291 1447 1975 
Q 2041 2528 2175 2725 
Q 2356 2997 2356 3263 
Q 2356 3556 2198 3714 
Q 2041 3872 1763 3872 
Q 1488 3872 1325 3706 
Q 1163 3541 1138 3156 
L 263 3244 
Q 341 3969 753 4284 
Q 1166 4600 1784 4600 
Q 2463 4600 2850 4234 
Q 3238 3869 3238 3325 
Q 3238 3016 3127 2736 
Q 3016 2456 2775 2150 
Q 2616 1947 2200 1565 
Q 1784 1184 1673 1059 
Q 1563 934 1494 816 
L 3238 816 
z
" transform="scale(0.015625)"/>
       </defs>
       <use xlink:href="#Arial-BoldMT-32"/>
      </g>
     </g>
    </g>
    <g id="xtick_4">
     <g id="line2d_4">
      <g>
       <use xlink:href="#mb12954f68b" x="808.909004" y="198.907885" style="stroke: #000000; stroke-width: 2"/>
      </g>
     </g>
     <g id="text_4">
      <!-- 3 -->
      <g transform="translate(803.90416 224.791947) scale(0.18 -0.18)">
       <defs>
        <path id="Arial-BoldMT-33" d="M 241 1216 
L 1091 1319 
Q 1131 994 1309 822 
Q 1488 650 1741 650 
Q 2013 650 2198 856 
Q 2384 1063 2384 1413 
Q 2384 1744 2206 1937 
Q 2028 2131 1772 2131 
Q 1603 2131 1369 2066 
L 1466 2781 
Q 1822 2772 2009 2936 
Q 2197 3100 2197 3372 
Q 2197 3603 2059 3740 
Q 1922 3878 1694 3878 
Q 1469 3878 1309 3722 
Q 1150 3566 1116 3266 
L 306 3403 
Q 391 3819 561 4067 
Q 731 4316 1036 4458 
Q 1341 4600 1719 4600 
Q 2366 4600 2756 4188 
Q 3078 3850 3078 3425 
Q 3078 2822 2419 2463 
Q 2813 2378 3048 2084 
Q 3284 1791 3284 1375 
Q 3284 772 2843 347 
Q 2403 -78 1747 -78 
Q 1125 -78 715 280 
Q 306 638 241 1216 
z
" transform="scale(0.015625)"/>
       </defs>
       <use xlink:href="#Arial-BoldMT-33"/>
      </g>
     </g>
    </g>
    <g id="xtick_5">
     <g id="line2d_5">
      <g>
       <use xlink:href="#mb12954f68b" x="701.454502" y="198.907885" style="stroke: #000000; stroke-width: 2"/>
      </g>
     </g>
     <g id="text_5">
      <!-- 4 -->
      <g transform="translate(696.449658 224.791947) scale(0.18 -0.18)">
       <defs>
        <path id="Arial-BoldMT-34" d="M 1994 0 
L 1994 922 
L 119 922 
L 119 1691 
L 2106 4600 
L 2844 4600 
L 2844 1694 
L 3413 1694 
L 3413 922 
L 2844 922 
L 2844 0 
L 1994 0 
z
M 1994 1694 
L 1994 3259 
L 941 1694 
L 1994 1694 
z
" transform="scale(0.015625)"/>
       </defs>
       <use xlink:href="#Arial-BoldMT-34"/>
      </g>
     </g>
    </g>
    <g id="xtick_6">
     <g id="line2d_6">
      <g>
       <use xlink:href="#mb12954f68b" x="594" y="198.907885" style="stroke: #000000; stroke-width: 2"/>
      </g>
     </g>
     <g id="text_6">
      <!-- 5 -->
      <g transform="translate(588.995156 224.791947) scale(0.18 -0.18)">
       <defs>
        <path id="Arial-BoldMT-35" d="M 284 1178 
L 1159 1269 
Q 1197 972 1381 798 
Q 1566 625 1806 625 
Q 2081 625 2272 848 
Q 2463 1072 2463 1522 
Q 2463 1944 2273 2155 
Q 2084 2366 1781 2366 
Q 1403 2366 1103 2031 
L 391 2134 
L 841 4519 
L 3163 4519 
L 3163 3697 
L 1506 3697 
L 1369 2919 
Q 1663 3066 1969 3066 
Q 2553 3066 2959 2641 
Q 3366 2216 3366 1538 
Q 3366 972 3038 528 
Q 2591 -78 1797 -78 
Q 1163 -78 763 262 
Q 363 603 284 1178 
z
" transform="scale(0.015625)"/>
       </defs>
       <use xlink:href="#Arial-BoldMT-35"/>
      </g>
     </g>
    </g>
    <g id="xtick_7">
     <g id="line2d_7">
      <g>
       <use xlink:href="#mb12954f68b" x="486.545498" y="198.907885" style="stroke: #000000; stroke-width: 2"/>
      </g>
     </g>
     <g id="text_7">
      <!-- 6 -->
      <g transform="translate(481.540654 224.791947) scale(0.18 -0.18)">
       <defs>
        <path id="Arial-BoldMT-36" d="M 3247 3459 
L 2397 3366 
Q 2366 3628 2234 3753 
Q 2103 3878 1894 3878 
Q 1616 3878 1423 3628 
Q 1231 3378 1181 2588 
Q 1509 2975 1997 2975 
Q 2547 2975 2939 2556 
Q 3331 2138 3331 1475 
Q 3331 772 2918 347 
Q 2506 -78 1859 -78 
Q 1166 -78 719 461 
Q 272 1000 272 2228 
Q 272 3488 737 4044 
Q 1203 4600 1947 4600 
Q 2469 4600 2811 4308 
Q 3153 4016 3247 3459 
z
M 1256 1544 
Q 1256 1116 1453 883 
Q 1650 650 1903 650 
Q 2147 650 2309 840 
Q 2472 1031 2472 1466 
Q 2472 1913 2297 2120 
Q 2122 2328 1859 2328 
Q 1606 2328 1431 2129 
Q 1256 1931 1256 1544 
z
" transform="scale(0.015625)"/>
       </defs>
       <use xlink:href="#Arial-BoldMT-36"/>
      </g>
     </g>
    </g>
    <g id="xtick_8">
     <g id="line2d_8">
      <g>
       <use xlink:href="#mb12954f68b" x="379.090996" y="198.907885" style="stroke: #000000; stroke-width: 2"/>
      </g>
     </g>
     <g id="text_8">
      <!-- 7 -->
      <g transform="translate(374.086153 224.791947) scale(0.18 -0.18)">
       <defs>
        <path id="Arial-BoldMT-37" d="M 272 3703 
L 272 4519 
L 3275 4519 
L 3275 3881 
Q 2903 3516 2518 2831 
Q 2134 2147 1932 1376 
Q 1731 606 1734 0 
L 888 0 
Q 909 950 1279 1937 
Q 1650 2925 2269 3703 
L 272 3703 
z
" transform="scale(0.015625)"/>
       </defs>
       <use xlink:href="#Arial-BoldMT-37"/>
      </g>
     </g>
    </g>
    <g id="xtick_9">
     <g id="line2d_9">
      <g>
       <use xlink:href="#mb12954f68b" x="271.636495" y="198.907885" style="stroke: #000000; stroke-width: 2"/>
      </g>
     </g>
     <g id="text_9">
      <!-- 8 -->
      <g transform="translate(266.631651 224.791947) scale(0.18 -0.18)">
       <defs>
        <path id="Arial-BoldMT-38" d="M 1025 2472 
Q 684 2616 529 2867 
Q 375 3119 375 3419 
Q 375 3931 733 4265 
Q 1091 4600 1750 4600 
Q 2403 4600 2764 4265 
Q 3125 3931 3125 3419 
Q 3125 3100 2959 2851 
Q 2794 2603 2494 2472 
Q 2875 2319 3073 2025 
Q 3272 1731 3272 1347 
Q 3272 713 2867 316 
Q 2463 -81 1791 -81 
Q 1166 -81 750 247 
Q 259 634 259 1309 
Q 259 1681 443 1992 
Q 628 2303 1025 2472 
z
M 1206 3356 
Q 1206 3094 1354 2947 
Q 1503 2800 1750 2800 
Q 2000 2800 2150 2948 
Q 2300 3097 2300 3359 
Q 2300 3606 2151 3754 
Q 2003 3903 1759 3903 
Q 1506 3903 1356 3753 
Q 1206 3603 1206 3356 
z
M 1125 1394 
Q 1125 1031 1311 828 
Q 1497 625 1775 625 
Q 2047 625 2225 820 
Q 2403 1016 2403 1384 
Q 2403 1706 2222 1901 
Q 2041 2097 1763 2097 
Q 1441 2097 1283 1875 
Q 1125 1653 1125 1394 
z
" transform="scale(0.015625)"/>
       </defs>
       <use xlink:href="#Arial-BoldMT-38"/>
      </g>
     </g>
    </g>
    <g id="xtick_10">
     <g id="line2d_10">
      <g>
       <use xlink:href="#mb12954f68b" x="164.181993" y="198.907885" style="stroke: #000000; stroke-width: 2"/>
      </g>
     </g>
     <g id="text_10">
      <!-- 9 -->
      <g transform="translate(159.177149 224.791947) scale(0.18 -0.18)">
       <defs>
        <path id="Arial-BoldMT-39" d="M 291 1059 
L 1141 1153 
Q 1172 894 1303 769 
Q 1434 644 1650 644 
Q 1922 644 2112 894 
Q 2303 1144 2356 1931 
Q 2025 1547 1528 1547 
Q 988 1547 595 1964 
Q 203 2381 203 3050 
Q 203 3747 617 4173 
Q 1031 4600 1672 4600 
Q 2369 4600 2816 4061 
Q 3263 3522 3263 2288 
Q 3263 1031 2797 475 
Q 2331 -81 1584 -81 
Q 1047 -81 715 205 
Q 384 491 291 1059 
z
M 2278 2978 
Q 2278 3403 2083 3637 
Q 1888 3872 1631 3872 
Q 1388 3872 1227 3680 
Q 1066 3488 1066 3050 
Q 1066 2606 1241 2398 
Q 1416 2191 1678 2191 
Q 1931 2191 2104 2391 
Q 2278 2591 2278 2978 
z
" transform="scale(0.015625)"/>
       </defs>
       <use xlink:href="#Arial-BoldMT-39"/>
      </g>
     </g>
    </g>
    <g id="xtick_11">
     <g id="line2d_11">
      <g>
       <use xlink:href="#mb12954f68b" x="56.727491" y="198.907885" style="stroke: #000000; stroke-width: 2"/>
      </g>
     </g>
     <g id="text_11">
      <!-- 10 -->
      <g transform="translate(46.717803 224.791947) scale(0.18 -0.18)">
       <use xlink:href="#Arial-BoldMT-31"/>
       <use xlink:href="#Arial-BoldMT-30" x="55.615234"/>
      </g>
     </g>
    </g>
    <g id="text_12">
     <!-- Chemical Shift / ppm -->
     <g transform="translate(504.992813 245.447573) scale(0.18 -0.18)">
      <defs>
       <path id="Arial-BoldMT-43" d="M 3397 1684 
L 4294 1400 
Q 4088 650 3608 286 
Q 3128 -78 2391 -78 
Q 1478 -78 890 545 
Q 303 1169 303 2250 
Q 303 3394 893 4026 
Q 1484 4659 2447 4659 
Q 3288 4659 3813 4163 
Q 4125 3869 4281 3319 
L 3366 3100 
Q 3284 3456 3026 3662 
Q 2769 3869 2400 3869 
Q 1891 3869 1573 3503 
Q 1256 3138 1256 2319 
Q 1256 1450 1568 1081 
Q 1881 713 2381 713 
Q 2750 713 3015 947 
Q 3281 1181 3397 1684 
z
" transform="scale(0.015625)"/>
       <path id="Arial-BoldMT-68" d="M 1334 4581 
L 1334 2897 
Q 1759 3394 2350 3394 
Q 2653 3394 2897 3281 
Q 3141 3169 3264 2994 
Q 3388 2819 3433 2606 
Q 3478 2394 3478 1947 
L 3478 0 
L 2600 0 
L 2600 1753 
Q 2600 2275 2550 2415 
Q 2500 2556 2373 2639 
Q 2247 2722 2056 2722 
Q 1838 2722 1666 2615 
Q 1494 2509 1414 2295 
Q 1334 2081 1334 1663 
L 1334 0 
L 456 0 
L 456 4581 
L 1334 4581 
z
" transform="scale(0.015625)"/>
       <path id="Arial-BoldMT-65" d="M 2381 1056 
L 3256 909 
Q 3088 428 2723 176 
Q 2359 -75 1813 -75 
Q 947 -75 531 491 
Q 203 944 203 1634 
Q 203 2459 634 2926 
Q 1066 3394 1725 3394 
Q 2466 3394 2894 2905 
Q 3322 2416 3303 1406 
L 1103 1406 
Q 1113 1016 1316 798 
Q 1519 581 1822 581 
Q 2028 581 2168 693 
Q 2309 806 2381 1056 
z
M 2431 1944 
Q 2422 2325 2234 2523 
Q 2047 2722 1778 2722 
Q 1491 2722 1303 2513 
Q 1116 2303 1119 1944 
L 2431 1944 
z
" transform="scale(0.015625)"/>
       <path id="Arial-BoldMT-6d" d="M 394 3319 
L 1203 3319 
L 1203 2866 
Q 1638 3394 2238 3394 
Q 2556 3394 2790 3262 
Q 3025 3131 3175 2866 
Q 3394 3131 3647 3262 
Q 3900 3394 4188 3394 
Q 4553 3394 4806 3245 
Q 5059 3097 5184 2809 
Q 5275 2597 5275 2122 
L 5275 0 
L 4397 0 
L 4397 1897 
Q 4397 2391 4306 2534 
Q 4184 2722 3931 2722 
Q 3747 2722 3584 2609 
Q 3422 2497 3350 2280 
Q 3278 2063 3278 1594 
L 3278 0 
L 2400 0 
L 2400 1819 
Q 2400 2303 2353 2443 
Q 2306 2584 2207 2653 
Q 2109 2722 1941 2722 
Q 1738 2722 1575 2612 
Q 1413 2503 1342 2297 
Q 1272 2091 1272 1613 
L 1272 0 
L 394 0 
L 394 3319 
z
" transform="scale(0.015625)"/>
       <path id="Arial-BoldMT-69" d="M 459 3769 
L 459 4581 
L 1338 4581 
L 1338 3769 
L 459 3769 
z
M 459 0 
L 459 3319 
L 1338 3319 
L 1338 0 
L 459 0 
z
" transform="scale(0.015625)"/>
       <path id="Arial-BoldMT-63" d="M 3353 2338 
L 2488 2181 
Q 2444 2441 2289 2572 
Q 2134 2703 1888 2703 
Q 1559 2703 1364 2476 
Q 1169 2250 1169 1719 
Q 1169 1128 1367 884 
Q 1566 641 1900 641 
Q 2150 641 2309 783 
Q 2469 925 2534 1272 
L 3397 1125 
Q 3263 531 2881 228 
Q 2500 -75 1859 -75 
Q 1131 -75 698 384 
Q 266 844 266 1656 
Q 266 2478 700 2936 
Q 1134 3394 1875 3394 
Q 2481 3394 2839 3133 
Q 3197 2872 3353 2338 
z
" transform="scale(0.015625)"/>
       <path id="Arial-BoldMT-61" d="M 1116 2306 
L 319 2450 
Q 453 2931 781 3162 
Q 1109 3394 1756 3394 
Q 2344 3394 2631 3255 
Q 2919 3116 3036 2902 
Q 3153 2688 3153 2116 
L 3144 1091 
Q 3144 653 3186 445 
Q 3228 238 3344 0 
L 2475 0 
Q 2441 88 2391 259 
Q 2369 338 2359 363 
Q 2134 144 1878 34 
Q 1622 -75 1331 -75 
Q 819 -75 523 203 
Q 228 481 228 906 
Q 228 1188 362 1408 
Q 497 1628 739 1745 
Q 981 1863 1438 1950 
Q 2053 2066 2291 2166 
L 2291 2253 
Q 2291 2506 2166 2614 
Q 2041 2722 1694 2722 
Q 1459 2722 1328 2630 
Q 1197 2538 1116 2306 
z
M 2291 1594 
Q 2122 1538 1756 1459 
Q 1391 1381 1278 1306 
Q 1106 1184 1106 997 
Q 1106 813 1243 678 
Q 1381 544 1594 544 
Q 1831 544 2047 700 
Q 2206 819 2256 991 
Q 2291 1103 2291 1419 
L 2291 1594 
z
" transform="scale(0.015625)"/>
       <path id="Arial-BoldMT-6c" d="M 459 0 
L 459 4581 
L 1338 4581 
L 1338 0 
L 459 0 
z
" transform="scale(0.015625)"/>
       <path id="Arial-BoldMT-20" transform="scale(0.015625)"/>
       <path id="Arial-BoldMT-53" d="M 231 1491 
L 1131 1578 
Q 1213 1125 1461 912 
Q 1709 700 2131 700 
Q 2578 700 2804 889 
Q 3031 1078 3031 1331 
Q 3031 1494 2936 1608 
Q 2841 1722 2603 1806 
Q 2441 1863 1863 2006 
Q 1119 2191 819 2459 
Q 397 2838 397 3381 
Q 397 3731 595 4036 
Q 794 4341 1167 4500 
Q 1541 4659 2069 4659 
Q 2931 4659 3367 4281 
Q 3803 3903 3825 3272 
L 2900 3231 
Q 2841 3584 2645 3739 
Q 2450 3894 2059 3894 
Q 1656 3894 1428 3728 
Q 1281 3622 1281 3444 
Q 1281 3281 1419 3166 
Q 1594 3019 2269 2859 
Q 2944 2700 3267 2529 
Q 3591 2359 3773 2064 
Q 3956 1769 3956 1334 
Q 3956 941 3737 597 
Q 3519 253 3119 86 
Q 2719 -81 2122 -81 
Q 1253 -81 787 320 
Q 322 722 231 1491 
z
" transform="scale(0.015625)"/>
       <path id="Arial-BoldMT-66" d="M 75 3319 
L 563 3319 
L 563 3569 
Q 563 3988 652 4194 
Q 741 4400 980 4529 
Q 1219 4659 1584 4659 
Q 1959 4659 2319 4547 
L 2200 3934 
Q 1991 3984 1797 3984 
Q 1606 3984 1523 3895 
Q 1441 3806 1441 3553 
L 1441 3319 
L 2097 3319 
L 2097 2628 
L 1441 2628 
L 1441 0 
L 563 0 
L 563 2628 
L 75 2628 
L 75 3319 
z
" transform="scale(0.015625)"/>
       <path id="Arial-BoldMT-74" d="M 1981 3319 
L 1981 2619 
L 1381 2619 
L 1381 1281 
Q 1381 875 1398 808 
Q 1416 741 1477 697 
Q 1538 653 1625 653 
Q 1747 653 1978 738 
L 2053 56 
Q 1747 -75 1359 -75 
Q 1122 -75 931 4 
Q 741 84 652 211 
Q 563 338 528 553 
Q 500 706 500 1172 
L 500 2619 
L 97 2619 
L 97 3319 
L 500 3319 
L 500 3978 
L 1381 4491 
L 1381 3319 
L 1981 3319 
z
" transform="scale(0.015625)"/>
       <path id="Arial-BoldMT-2f" d="M -9 -78 
L 1125 4659 
L 1784 4659 
L 638 -78 
L -9 -78 
z
" transform="scale(0.015625)"/>
       <path id="Arial-BoldMT-70" d="M 434 3319 
L 1253 3319 
L 1253 2831 
Q 1413 3081 1684 3237 
Q 1956 3394 2288 3394 
Q 2866 3394 3269 2941 
Q 3672 2488 3672 1678 
Q 3672 847 3265 386 
Q 2859 -75 2281 -75 
Q 2006 -75 1782 34 
Q 1559 144 1313 409 
L 1313 -1263 
L 434 -1263 
L 434 3319 
z
M 1303 1716 
Q 1303 1156 1525 889 
Q 1747 622 2066 622 
Q 2372 622 2575 867 
Q 2778 1113 2778 1672 
Q 2778 2194 2568 2447 
Q 2359 2700 2050 2700 
Q 1728 2700 1515 2451 
Q 1303 2203 1303 1716 
z
" transform="scale(0.015625)"/>
      </defs>
      <use xlink:href="#Arial-BoldMT-43"/>
      <use xlink:href="#Arial-BoldMT-68" x="72.216797"/>
      <use xlink:href="#Arial-BoldMT-65" x="133.300781"/>
      <use xlink:href="#Arial-BoldMT-6d" x="188.916016"/>
      <use xlink:href="#Arial-BoldMT-69" x="277.832031"/>
      <use xlink:href="#Arial-BoldMT-63" x="305.615234"/>
      <use xlink:href="#Arial-BoldMT-61" x="361.230469"/>
      <use xlink:href="#Arial-BoldMT-6c" x="416.845703"/>
      <use xlink:href="#Arial-BoldMT-20" x="444.628906"/>
      <use xlink:href="#Arial-BoldMT-53" x="472.412109"/>
      <use xlink:href="#Arial-BoldMT-68" x="539.111328"/>
      <use xlink:href="#Arial-BoldMT-69" x="600.195312"/>
      <use xlink:href="#Arial-BoldMT-66" x="627.978516"/>
      <use xlink:href="#Arial-BoldMT-74" x="661.279297"/>
      <use xlink:href="#Arial-BoldMT-20" x="694.580078"/>
      <use xlink:href="#Arial-BoldMT-2f" x="722.363281"/>
      <use xlink:href="#Arial-BoldMT-20" x="750.146484"/>
      <use xlink:href="#Arial-BoldMT-70" x="777.929688"/>
      <use xlink:href="#Arial-BoldMT-70" x="839.013672"/>
      <use xlink:href="#Arial-BoldMT-6d" x="900.097656"/>
     </g>
    </g>
   </g>
   <g id="matplotlib.axis_2"/>
   <g id="line2d_12">
    <path d="M 2.955871 161.707946 
L 3.77435 156.377091 
L 4.18359 154.905019 
L 4.388209 154.969284 
L 4.797449 156.337682 
L 5.206688 157.596913 
L 5.820548 159.224203 
L 6.639026 161.338902 
L 6.843646 161.489511 
L 7.457505 161.27667 
L 9.094463 162.375008 
L 9.912942 163.073366 
L 10.322182 163.945661 
L 10.936041 165.475597 
L 11.14066 165.267566 
L 11.34528 164.417855 
L 12.368379 158.347803 
L 12.777618 157.385019 
L 12.982238 157.191238 
L 13.186858 157.208346 
L 13.391477 157.531723 
L 13.800717 159.06027 
L 14.209956 160.51938 
L 14.619196 161.066969 
L 15.028435 161.361987 
L 15.437675 161.550475 
L 15.846914 162.345502 
L 16.051534 162.775913 
L 16.256154 162.914063 
L 16.665393 162.357397 
L 16.870013 162.131675 
L 17.074633 162.203367 
L 17.688492 163.243116 
L 17.893111 163.265215 
L 18.097731 162.949064 
L 18.506971 161.47675 
L 19.12083 159.061236 
L 19.325449 158.738765 
L 19.530069 158.889877 
L 19.939309 160.451251 
L 21.167027 166.670664 
L 21.576266 167.828134 
L 21.780886 167.989873 
L 21.985506 167.777656 
L 22.599365 165.93187 
L 24.031703 161.463547 
L 24.440943 160.153898 
L 24.850182 159.635634 
L 25.259422 159.117913 
L 26.0779 157.151065 
L 26.28252 157.641394 
L 26.896379 160.931878 
L 27.100999 160.945444 
L 27.510239 160.022531 
L 27.714858 160.002122 
L 28.124098 160.953313 
L 29.556436 164.766168 
L 29.761056 164.802054 
L 29.965675 164.641221 
L 30.374915 163.8408 
L 30.784154 162.688563 
L 30.988774 162.495145 
L 31.193394 162.681981 
L 31.398013 163.250864 
L 32.216492 167.158013 
L 32.421112 167.190176 
L 32.625732 166.585205 
L 33.64883 161.320063 
L 33.85345 160.896455 
L 34.05807 160.866446 
L 34.467309 161.852839 
L 34.671929 162.371023 
L 34.876549 162.554237 
L 35.285788 162.399462 
L 35.490408 162.507583 
L 35.899647 162.95651 
L 36.104267 162.957718 
L 36.308887 162.645733 
L 36.922746 161.180867 
L 37.127366 161.187408 
L 37.536605 161.556855 
L 37.741225 161.556553 
L 38.968943 160.326405 
L 39.992042 158.701028 
L 40.810521 155.652789 
L 41.015141 155.768638 
L 41.42438 156.174293 
L 41.629 155.816278 
L 42.447479 152.957774 
L 42.652098 153.081816 
L 43.470577 154.818635 
L 43.675197 154.399998 
L 44.902915 150.389116 
L 45.516775 148.877495 
L 45.721394 148.7131 
L 45.926014 148.714991 
L 46.130634 148.839757 
L 46.539873 149.627942 
L 47.358352 151.978506 
L 47.562972 152.058772 
L 48.176831 151.026329 
L 48.381451 151.269924 
L 48.79069 152.571944 
L 49.404549 155.251702 
L 49.813789 156.872551 
L 50.018409 157.188159 
L 50.223028 157.231653 
L 50.427648 157.098796 
L 50.632268 156.808608 
L 51.041507 155.574636 
L 52.064606 151.235386 
L 52.269226 151.079021 
L 52.473845 151.286126 
L 53.087704 152.355883 
L 53.292324 152.322332 
L 53.701564 151.299268 
L 53.906183 150.791228 
L 54.110803 150.617877 
L 54.315423 150.636474 
L 54.520043 150.445853 
L 54.724662 149.663445 
L 55.133902 145.754445 
L 57.589338 112.163737 
L 57.793958 111.559269 
L 57.998578 112.17861 
L 58.203198 114.068252 
L 58.612437 121.479652 
L 59.840155 151.20264 
L 60.454015 159.925943 
L 60.863254 164.023048 
L 61.272493 166.061004 
L 61.681733 166.573451 
L 62.090972 166.775343 
L 62.295592 166.781824 
L 62.500212 166.932674 
L 62.909451 168.096484 
L 63.318691 169.202752 
L 63.52331 169.325465 
L 63.72793 169.227025 
L 63.93255 168.977533 
L 64.13717 168.536818 
L 64.546409 166.624734 
L 64.955649 164.280248 
L 65.160268 163.662235 
L 65.364888 163.467972 
L 65.569508 163.562548 
L 65.978747 163.98052 
L 66.183367 163.87733 
L 66.592606 163.34389 
L 66.797226 163.565305 
L 67.206466 165.510617 
L 67.615705 167.420205 
L 67.820325 167.712848 
L 68.024944 167.645 
L 68.434184 167.158698 
L 68.638804 167.266798 
L 68.843423 167.988846 
L 69.661902 172.865521 
L 69.866522 173.164102 
L 70.071142 172.940051 
L 70.480381 171.032597 
L 71.50348 165.679742 
L 71.7081 164.959647 
L 71.912719 164.860744 
L 72.526578 166.016423 
L 73.140438 165.188408 
L 73.345057 165.523378 
L 74.163536 168.536053 
L 74.368156 168.707633 
L 74.572776 168.584558 
L 74.982015 167.861222 
L 75.391255 166.507033 
L 76.209734 163.255333 
L 76.414353 162.790404 
L 76.618973 162.620212 
L 76.823593 162.904765 
L 77.846691 166.587701 
L 78.255931 166.868127 
L 78.460551 166.843331 
L 78.66517 166.65096 
L 79.07441 165.640676 
L 80.506748 160.240927 
L 80.915987 159.909258 
L 81.529846 160.01919 
L 81.734466 159.829878 
L 82.143706 158.800997 
L 82.962185 156.226482 
L 83.166804 155.837552 
L 83.371424 155.753322 
L 83.576044 156.020666 
L 83.985283 157.222656 
L 85.008382 160.454029 
L 85.213002 160.923949 
L 85.417621 161.049862 
L 85.622241 160.734133 
L 86.03148 159.670655 
L 86.2361 159.494385 
L 86.44072 159.589544 
L 86.849959 160.24151 
L 87.463819 161.815846 
L 87.668438 161.826936 
L 88.077678 160.991655 
L 88.486917 160.077014 
L 88.691537 159.826516 
L 88.896157 159.823075 
L 89.305396 160.388255 
L 89.714636 160.985375 
L 89.919255 160.984611 
L 90.123875 160.633781 
L 90.533114 158.973866 
L 90.942354 157.139372 
L 91.146974 156.683822 
L 91.351593 156.609434 
L 91.556213 156.86605 
L 92.170072 157.953238 
L 92.374692 157.827365 
L 92.783931 157.219355 
L 92.988551 157.221227 
L 93.193171 157.562497 
L 93.80703 159.204479 
L 94.01165 159.491688 
L 94.21627 159.435916 
L 94.625509 158.300706 
L 95.034748 157.291772 
L 95.239368 157.340217 
L 96.262467 159.141321 
L 96.876326 160.027522 
L 97.080946 159.67937 
L 98.717903 153.616262 
L 98.922523 153.554855 
L 99.331763 154.983171 
L 99.741002 156.456128 
L 100.150242 157.406434 
L 100.354861 157.55992 
L 100.764101 157.191641 
L 100.96872 157.291933 
L 101.58258 158.831832 
L 101.787199 158.834891 
L 102.196439 158.471744 
L 102.401059 158.651798 
L 103.219537 160.407435 
L 103.424157 160.481965 
L 103.833397 160.364485 
L 104.242636 160.843522 
L 104.447256 161.069546 
L 104.651876 161.053404 
L 104.856495 160.765732 
L 105.674974 158.711594 
L 105.879594 158.667436 
L 106.288833 158.997857 
L 106.493453 158.860371 
L 106.698073 158.394477 
L 107.107312 156.595546 
L 107.721171 153.288336 
L 107.925791 152.753951 
L 108.130411 152.903311 
L 108.94889 156.15789 
L 109.15351 155.979124 
L 109.971988 153.397001 
L 110.176608 153.129576 
L 110.381228 153.119513 
L 110.995087 153.75725 
L 111.404327 153.427251 
L 111.608946 153.546341 
L 111.813566 154.152942 
L 112.222805 156.489177 
L 112.836665 160.418887 
L 113.041284 161.023938 
L 113.245904 160.980807 
L 113.859763 159.513505 
L 115.087482 155.44659 
L 115.292101 155.340663 
L 115.701341 155.615836 
L 115.905961 155.517315 
L 116.724439 154.112366 
L 116.929059 154.498297 
L 117.542918 156.28016 
L 117.747538 156.353059 
L 118.566017 155.954408 
L 119.179876 155.469796 
L 119.793735 154.591665 
L 120.407595 153.543302 
L 120.816834 153.437697 
L 121.021454 153.566045 
L 121.430693 154.570391 
L 121.635313 155.102764 
L 121.839933 155.315464 
L 122.044552 155.173953 
L 122.658412 154.139739 
L 122.863031 154.15099 
L 123.272271 154.773772 
L 124.295369 156.921902 
L 124.499989 157.222455 
L 124.704609 157.324739 
L 124.909229 157.124679 
L 125.318468 155.717899 
L 125.727707 154.446551 
L 125.932327 154.458144 
L 126.546186 155.578762 
L 126.750806 155.616862 
L 126.955426 155.33867 
L 127.773905 153.463419 
L 127.978524 153.417691 
L 128.183144 153.559806 
L 129.001623 154.793778 
L 129.410863 154.258789 
L 129.820102 153.672878 
L 130.024722 153.761315 
L 130.229341 154.394403 
L 131.25244 160.103863 
L 131.66168 160.647266 
L 132.275539 160.794151 
L 132.480158 160.740533 
L 132.889398 160.204034 
L 133.298637 159.655701 
L 133.503257 159.713786 
L 134.321736 160.734878 
L 134.526356 160.691042 
L 134.730975 160.438732 
L 135.549454 158.737417 
L 135.754074 158.687301 
L 136.163313 158.897525 
L 136.572553 159.077137 
L 137.186412 158.930292 
L 137.391032 158.678284 
L 138.41413 156.117697 
L 139.02799 153.410445 
L 139.437229 151.913799 
L 139.641849 151.591207 
L 139.846469 151.540769 
L 140.051088 151.787926 
L 140.460328 153.128973 
L 141.074187 155.282577 
L 141.278807 155.562802 
L 141.483426 155.601103 
L 141.688046 155.427731 
L 142.097286 154.379147 
L 142.506525 153.061246 
L 142.711145 152.925833 
L 143.325004 153.714118 
L 143.734243 153.750467 
L 144.348103 154.549922 
L 144.552722 154.501799 
L 144.757342 154.197261 
L 145.166581 152.978404 
L 145.575821 151.754033 
L 145.780441 151.665918 
L 146.18968 152.214513 
L 146.803539 152.902144 
L 147.417398 153.401892 
L 147.622018 153.302023 
L 147.826638 152.972447 
L 148.031258 152.254082 
L 148.440497 149.258112 
L 148.849737 145.90296 
L 149.054356 145.099057 
L 149.258976 145.080762 
L 149.668215 146.447208 
L 150.077455 147.798559 
L 150.282075 148.058658 
L 150.691314 148.245333 
L 151.509793 149.839253 
L 151.919032 149.998536 
L 152.328272 151.063825 
L 152.532892 151.567961 
L 152.737511 151.678376 
L 152.942131 151.385813 
L 154.374469 147.863911 
L 154.783709 147.629998 
L 154.988328 147.515114 
L 155.397568 146.88251 
L 155.602188 146.545729 
L 155.806807 146.434629 
L 156.420666 146.958911 
L 156.625286 146.858136 
L 156.829906 146.504811 
L 157.034526 145.822453 
L 157.443765 143.339313 
L 157.853005 140.701117 
L 158.262244 139.498804 
L 158.671483 139.047099 
L 158.876103 138.99169 
L 159.285343 139.09005 
L 159.489962 138.921347 
L 160.103822 137.919155 
L 160.717681 137.785151 
L 160.9223 137.316298 
L 161.53616 135.264535 
L 161.740779 135.039417 
L 161.945399 135.075686 
L 162.150019 135.454149 
L 162.559258 137.393585 
L 162.968498 139.782249 
L 163.173117 140.47141 
L 163.377737 140.622522 
L 163.582357 140.317742 
L 164.400836 137.952827 
L 164.810075 135.813412 
L 166.242413 125.741435 
L 166.856273 123.116059 
L 167.265512 122.183223 
L 167.674751 121.727372 
L 168.083991 120.008265 
L 168.69785 116.450698 
L 169.10709 115.201148 
L 169.311709 114.848466 
L 169.516329 114.760834 
L 169.925568 115.363893 
L 170.130188 115.630572 
L 170.334808 115.586776 
L 170.539428 115.137205 
L 171.153287 113.207833 
L 171.357907 113.446798 
L 171.767146 115.4984 
L 172.381005 120.876111 
L 172.994864 125.898242 
L 173.199484 126.532396 
L 173.404104 126.575971 
L 173.813343 125.794791 
L 174.427202 124.604514 
L 175.245681 123.380424 
L 175.450301 123.471981 
L 175.85954 123.999805 
L 176.26878 125.202923 
L 176.882639 127.798752 
L 177.087259 128.155801 
L 177.291879 128.21914 
L 178.110357 127.98732 
L 178.314977 128.215417 
L 179.133456 129.938328 
L 179.542696 130.172946 
L 180.156555 130.231938 
L 180.565794 130.018473 
L 180.975034 129.168238 
L 181.384273 127.512288 
L 181.998132 124.549769 
L 182.202752 124.119378 
L 182.407372 124.087397 
L 182.816611 124.882505 
L 183.43047 126.900394 
L 183.83971 128.334789 
L 184.04433 128.48904 
L 184.862808 127.195312 
L 185.272048 127.570132 
L 185.681287 128.003925 
L 185.885907 127.970373 
L 186.295147 127.579693 
L 186.499766 127.577922 
L 186.909006 128.270705 
L 187.113625 128.613464 
L 187.318245 128.598147 
L 187.522865 128.132112 
L 187.932104 126.700394 
L 188.136724 126.353751 
L 188.341344 126.444382 
L 188.750583 127.652652 
L 189.159823 129.086604 
L 189.364442 129.331084 
L 189.569062 129.164273 
L 189.978302 128.325148 
L 190.182921 128.182389 
L 190.387541 128.409922 
L 190.796781 129.347366 
L 191.0014 129.488394 
L 191.20602 129.091334 
L 192.638358 122.339608 
L 193.047598 119.988279 
L 193.456837 118.839262 
L 194.889175 117.090729 
L 195.503034 117.329895 
L 195.707654 117.070823 
L 196.730753 114.924807 
L 197.344612 114.812137 
L 197.958471 114.773373 
L 198.36771 114.290351 
L 198.77695 113.42337 
L 199.186189 111.482586 
L 199.800049 108.548104 
L 200.209288 107.657454 
L 200.823147 106.787757 
L 201.437006 105.156804 
L 202.050866 103.143161 
L 202.255485 102.756184 
L 202.460105 102.74447 
L 202.664725 103.442104 
L 203.073964 107.398161 
L 203.892443 117.574033 
L 204.301683 120.6839 
L 204.915542 123.456845 
L 205.734021 127.952561 
L 205.93864 128.359967 
L 206.14326 128.402797 
L 206.5525 127.941491 
L 206.961739 127.139017 
L 207.370978 125.580742 
L 208.189457 121.16654 
L 208.803317 119.448761 
L 209.621795 115.828318 
L 209.826415 115.431116 
L 210.031035 115.515749 
L 210.235655 116.154834 
L 211.054134 120.162174 
L 211.258753 119.900224 
L 212.281852 116.454602 
L 213.100331 111.525215 
L 213.71419 107.94261 
L 214.328049 105.609153 
L 214.737289 102.577519 
L 215.555767 95.088208 
L 215.760387 94.212372 
L 215.965007 94.066231 
L 216.374246 94.595183 
L 216.578866 94.373003 
L 216.783486 93.573548 
L 217.397345 89.067386 
L 218.215824 82.641051 
L 219.238923 72.195742 
L 221.0805 59.923788 
L 221.28512 59.600753 
L 221.694359 59.524131 
L 221.898979 59.295933 
L 222.512838 57.694386 
L 222.717458 57.621366 
L 222.922078 57.950922 
L 223.331317 59.302434 
L 224.354416 63.996318 
L 224.763655 65.835845 
L 225.172895 66.703228 
L 225.377514 67.476236 
L 227.014472 77.32698 
L 228.037571 80.690807 
L 229.265289 86.290738 
L 229.674529 88.526157 
L 230.083768 92.637291 
L 231.516106 110.155166 
L 231.925346 111.35617 
L 232.129965 112.444284 
L 233.153064 120.519947 
L 233.357684 120.750339 
L 233.562303 120.763542 
L 233.766923 120.927072 
L 233.971543 121.440888 
L 235.199261 126.141877 
L 235.403881 126.206303 
L 236.22236 125.820613 
L 236.631599 125.308125 
L 237.245459 123.704888 
L 237.859318 122.094807 
L 239.087036 120.554223 
L 239.496276 120.23616 
L 239.905515 119.616155 
L 240.723994 117.619137 
L 241.337853 115.510476 
L 242.565571 110.403027 
L 242.770191 110.127572 
L 242.974811 110.205382 
L 243.38405 110.567684 
L 243.58867 110.3352 
L 244.202529 108.616696 
L 244.611769 107.055684 
L 245.021008 104.109246 
L 245.634867 99.545743 
L 246.044107 98.205341 
L 246.248727 98.094523 
L 246.657966 98.469807 
L 246.862586 98.452538 
L 247.681065 97.217559 
L 248.090304 95.956577 
L 248.704163 92.392449 
L 249.318022 87.201937 
L 250.136501 80.502099 
L 250.95498 75.577582 
L 251.773459 71.250609 
L 252.796558 64.140265 
L 253.205797 62.020413 
L 253.819656 58.17451 
L 254.024276 57.66168 
L 254.433516 57.324557 
L 254.638135 56.806917 
L 255.047375 54.212717 
L 257.298192 32.14724 
L 257.502811 31.479816 
L 257.707431 31.73452 
L 258.116671 33.787632 
L 259.344389 40.749863 
L 259.753628 41.928989 
L 259.958248 41.996515 
L 260.162868 41.747265 
L 260.572107 40.440232 
L 261.185967 38.023048 
L 261.390586 37.843678 
L 262.004445 37.709876 
L 262.209065 37.484617 
L 262.413685 36.993544 
L 262.822924 35.018263 
L 264.050643 26.993399 
L 264.255262 26.731268 
L 264.459882 26.722372 
L 264.869122 26.964235 
L 265.073741 26.877851 
L 265.278361 26.382954 
L 266.915319 19.158914 
L 267.529178 16.696102 
L 267.938418 16.241096 
L 268.347657 16.248342 
L 268.552277 16.532612 
L 268.756896 17.311941 
L 269.166136 21.127755 
L 270.189235 34.321716 
L 272.235432 52.530905 
L 272.644671 54.119872 
L 272.849291 54.118081 
L 273.46315 53.080969 
L 273.87239 52.429405 
L 274.077009 52.474751 
L 274.281629 53.008996 
L 275.100108 57.075971 
L 275.304728 57.258239 
L 275.509347 57.011626 
L 275.918587 55.793172 
L 276.532446 53.133802 
L 277.350925 48.72443 
L 277.555545 48.2592 
L 277.760164 48.356432 
L 278.169404 49.949908 
L 278.578643 51.436592 
L 278.783263 51.417733 
L 278.987883 50.951054 
L 279.601742 48.742866 
L 279.806362 48.562912 
L 280.215601 48.730991 
L 280.420221 48.443782 
L 280.82946 46.518939 
L 281.44332 43.032822 
L 281.852559 41.488193 
L 282.261798 40.550225 
L 282.466418 40.280949 
L 283.284897 39.906108 
L 283.694137 38.87272 
L 284.512615 35.960316 
L 284.717235 36.005038 
L 284.921855 36.228405 
L 285.126475 36.285685 
L 285.331094 35.945362 
L 285.740334 33.861779 
L 287.172672 23.845371 
L 287.991151 16.24172 
L 289.014249 3.916189 
L 289.218869 3.04474 
L 289.423489 3.00024 
L 289.832728 4.113673 
L 290.241968 5.660938 
L 290.651207 9.007858 
L 291.060447 15.13338 
L 291.878926 28.549238 
L 292.902024 39.202074 
L 293.720503 46.668259 
L 295.357461 68.06102 
L 295.97132 72.014359 
L 296.789799 75.968202 
L 298.222137 84.491043 
L 298.426757 84.677094 
L 298.631377 84.452419 
L 299.040616 82.99667 
L 299.859095 78.716673 
L 300.677574 76.89353 
L 301.291433 74.684517 
L 301.700672 74.017798 
L 301.905292 73.959068 
L 302.109912 74.098768 
L 303.33763 76.28534 
L 304.156109 79.164132 
L 304.360729 79.457519 
L 304.769968 79.561233 
L 304.974588 79.775905 
L 305.383828 80.891914 
L 305.793067 81.96298 
L 305.997687 82.209311 
L 306.202306 82.269812 
L 306.406926 82.127496 
L 306.816166 81.321298 
L 307.225405 80.577433 
L 307.430025 80.439867 
L 308.248504 80.434694 
L 308.453123 80.334302 
L 308.657743 80.43409 
L 309.271602 81.117535 
L 309.680842 81.25488 
L 310.294701 82.081506 
L 310.70394 82.248679 
L 310.90856 82.537418 
L 311.3178 83.816172 
L 312.340898 88.137429 
L 312.545518 88.190061 
L 312.750138 87.651468 
L 313.363997 84.621987 
L 313.568617 84.332363 
L 313.773236 84.600371 
L 313.977856 85.36062 
L 315.205574 92.035642 
L 315.614814 92.511237 
L 316.228673 92.306165 
L 316.842532 92.836526 
L 317.047152 92.673982 
L 317.456391 91.693144 
L 318.070251 90.280527 
L 318.47949 89.741693 
L 318.68411 89.954796 
L 319.093349 91.945333 
L 319.502589 93.601665 
L 319.911828 94.087485 
L 320.321068 94.256469 
L 320.525687 94.182644 
L 320.934927 93.569744 
L 321.344166 92.377153 
L 321.753406 90.258488 
L 322.776504 83.136712 
L 323.185744 82.112602 
L 323.594983 81.889819 
L 323.799603 82.006273 
L 324.004223 82.357605 
L 324.413462 83.942689 
L 325.027321 86.776517 
L 325.231941 87.136283 
L 325.641181 87.292789 
L 326.05042 87.278378 
L 326.459659 87.528554 
L 326.664279 87.376517 
L 327.278138 85.982758 
L 327.482758 85.983 
L 327.891997 86.828485 
L 328.096617 87.240922 
L 328.301237 87.338195 
L 328.505857 87.095688 
L 329.119716 85.938057 
L 329.938195 85.141781 
L 330.142814 85.216532 
L 331.370533 86.749507 
L 332.393631 89.548416 
L 333.007491 89.836953 
L 333.21211 89.728973 
L 333.82597 88.615842 
L 334.030589 88.757213 
L 334.849068 90.803521 
L 335.053688 90.617308 
L 335.667547 89.487955 
L 335.872167 89.445005 
L 336.076787 89.659355 
L 336.895265 91.253274 
L 337.099885 91.204829 
L 337.509125 90.643312 
L 337.713744 90.587863 
L 338.122984 90.725228 
L 338.327604 90.67153 
L 338.532223 90.397323 
L 338.941463 89.05998 
L 339.350702 87.29925 
L 339.555322 86.846478 
L 339.759942 86.919136 
L 340.169181 87.742522 
L 340.373801 87.826913 
L 340.578421 87.427015 
L 340.78304 86.406749 
L 341.19228 82.442842 
L 341.806139 75.916456 
L 343.033857 67.319872 
L 344.261576 61.494199 
L 344.875435 57.841895 
L 345.080055 57.289496 
L 345.284674 57.233 
L 345.693914 58.011604 
L 346.103153 58.836319 
L 346.512393 59.567202 
L 346.921632 61.227056 
L 347.535491 64.114221 
L 348.14935 65.952056 
L 348.967829 66.669978 
L 349.172449 67.203559 
L 349.377069 68.205006 
L 349.786308 72.096255 
L 350.604787 81.080562 
L 351.218646 86.052457 
L 351.423266 86.756532 
L 351.627886 86.887094 
L 351.832506 86.511468 
L 352.241745 84.747538 
L 352.855604 81.25011 
L 353.264844 80.315765 
L 353.469463 80.213944 
L 353.674083 80.401002 
L 353.878703 80.995909 
L 354.492562 84.293418 
L 355.72028 90.557934 
L 355.9249 90.993417 
L 356.12952 91.052429 
L 356.538759 90.903491 
L 356.743379 91.027351 
L 357.152618 91.875272 
L 357.561858 93.64538 
L 358.380337 98.254974 
L 359.403435 102.05066 
L 360.426534 107.263292 
L 361.040393 109.182862 
L 361.245013 109.483113 
L 361.858872 109.682428 
L 362.063492 110.255598 
L 362.472731 112.769935 
L 363.70045 124.201173 
L 363.905069 124.908005 
L 364.109689 124.909414 
L 364.314309 124.286712 
L 365.337408 119.355232 
L 365.542027 119.405488 
L 365.951267 119.994679 
L 366.360506 120.160182 
L 366.565126 120.153117 
L 366.769746 119.981395 
L 367.383605 118.998626 
L 367.588224 119.087425 
L 367.792844 119.459025 
L 368.202084 120.923147 
L 369.429802 127.055853 
L 369.634422 127.273887 
L 369.839041 127.172126 
L 370.248281 126.581284 
L 370.452901 126.581687 
L 371.06676 127.908906 
L 371.27138 127.880065 
L 371.680619 127.349805 
L 371.885239 127.316072 
L 372.089858 127.538312 
L 372.499098 128.631075 
L 372.908337 129.648 
L 373.112957 129.802593 
L 373.317577 129.676399 
L 373.726816 129.146139 
L 373.931436 129.201809 
L 374.340675 130.063879 
L 374.954535 132.146275 
L 375.773014 136.520083 
L 375.977633 136.685867 
L 376.182253 136.206971 
L 376.796112 134.040546 
L 378.22845 132.429398 
L 378.43307 132.640347 
L 379.046929 133.709742 
L 379.251549 133.581957 
L 379.865408 132.381496 
L 380.070028 132.306303 
L 380.274648 132.351769 
L 380.479267 132.26134 
L 380.888507 131.746577 
L 381.093126 131.855705 
L 381.502366 133.292796 
L 381.911605 134.747659 
L 382.320845 135.393769 
L 382.525465 135.52411 
L 382.730084 135.495369 
L 383.139324 135.128418 
L 383.343943 134.780285 
L 383.753183 133.222433 
L 384.571662 129.018133 
L 384.980901 128.204407 
L 385.390141 127.405576 
L 385.79938 126.423953 
L 386.004 126.245308 
L 386.617859 126.230515 
L 387.231718 125.965969 
L 387.640958 126.04873 
L 388.254817 126.405698 
L 388.664056 126.224215 
L 389.277916 125.688884 
L 389.482535 125.816608 
L 390.096394 126.737086 
L 390.505634 126.835989 
L 390.710254 126.692304 
L 391.324113 125.945278 
L 392.142592 126.187444 
L 392.347211 126.608033 
L 392.756451 129.159845 
L 393.16569 131.802329 
L 395.007268 138.971322 
L 395.621127 140.649653 
L 396.439606 144.612412 
L 396.644226 144.656671 
L 396.848845 144.222597 
L 398.485803 138.948035 
L 398.895043 138.189196 
L 399.304282 137.724368 
L 399.713522 136.666264 
L 400.122761 135.548463 
L 400.327381 135.421081 
L 400.532001 135.80353 
L 401.14586 138.034763 
L 401.350479 138.195314 
L 401.555099 137.999521 
L 401.964339 137.343268 
L 402.168958 137.243439 
L 402.373578 137.547957 
L 402.782818 139.767959 
L 403.396677 143.905902 
L 403.805916 145.331581 
L 404.419775 146.324435 
L 405.238254 148.87037 
L 405.442874 149.172553 
L 405.647494 149.197873 
L 405.852113 148.869384 
L 406.261353 147.249159 
L 407.284451 142.277546 
L 407.693691 140.803099 
L 407.898311 140.379531 
L 408.51217 139.770999 
L 408.921409 138.018239 
L 409.535268 134.981452 
L 410.149128 133.08853 
L 410.353747 132.909542 
L 410.558367 133.190431 
L 411.376846 135.645434 
L 411.786085 136.087337 
L 411.990705 136.033559 
L 412.399945 135.395419 
L 413.423043 133.234569 
L 413.627663 133.357343 
L 414.036902 134.141723 
L 414.650762 135.940754 
L 414.855381 136.115293 
L 415.264621 136.207313 
L 416.492339 137.42782 
L 417.106198 137.711185 
L 417.310818 138.14856 
L 418.129297 140.750649 
L 418.538536 141.397805 
L 418.743156 141.335996 
L 419.152396 140.191306 
L 419.357015 139.608294 
L 419.561635 139.369912 
L 419.766255 139.485198 
L 420.380114 140.617188 
L 420.993973 142.198307 
L 421.403213 142.350385 
L 421.607832 142.310996 
L 421.812452 142.070562 
L 422.630931 139.974138 
L 423.24479 139.044 
L 423.44941 139.047059 
L 423.858649 139.720682 
L 424.472509 140.675797 
L 424.881748 141.000603 
L 425.495607 140.279743 
L 425.700227 140.415437 
L 426.518706 141.678855 
L 427.541804 142.577978 
L 428.360283 144.277784 
L 428.564903 144.285372 
L 428.974143 143.699603 
L 429.383382 143.213199 
L 429.588002 143.427811 
L 429.997241 145.001744 
L 430.6111 147.37632 
L 431.429579 150.328494 
L 432.043438 152.058148 
L 432.452678 153.376532 
L 432.657298 153.548112 
L 432.861917 153.322129 
L 434.089636 150.54532 
L 434.294255 150.514123 
L 434.498875 150.879927 
L 435.112734 153.532635 
L 435.931213 156.755917 
L 436.749692 159.093258 
L 437.158932 159.709318 
L 437.363551 159.496961 
L 437.772791 157.969842 
L 438.18203 156.606616 
L 438.59127 156.245401 
L 438.795889 156.221913 
L 439.000509 156.38502 
L 439.614368 157.411365 
L 440.637467 157.999046 
L 440.842087 157.893844 
L 441.251326 156.9374 
L 441.660566 156.054116 
L 441.865185 155.850152 
L 442.069805 155.88648 
L 442.274425 156.285977 
L 443.092904 159.504569 
L 443.297523 159.44596 
L 443.706763 158.276152 
L 444.525242 154.947647 
L 444.729861 154.783614 
L 444.934481 155.066073 
L 446.571439 160.749409 
L 447.594538 165.853819 
L 447.799157 166.180617 
L 448.003777 166.083345 
L 448.413017 164.784584 
L 449.026876 162.672844 
L 449.436115 162.00852 
L 449.640735 162.187366 
L 450.049974 163.544514 
L 451.277693 169.327799 
L 451.482312 169.835296 
L 451.686932 170.001925 
L 452.914651 169.451116 
L 453.11927 169.15 
L 453.52851 167.996333 
L 453.937749 166.835482 
L 454.346989 165.96675 
L 454.756228 164.815016 
L 454.960848 164.63784 
L 455.165468 165.036471 
L 455.574707 167.301396 
L 455.983946 169.595888 
L 456.188566 170.049485 
L 456.393186 170.019778 
L 456.802425 169.74221 
L 457.007045 169.831894 
L 457.211665 170.079192 
L 457.620904 171.331037 
L 458.439383 174.674515 
L 458.644003 174.8563 
L 459.053242 174.744416 
L 459.462482 175.05787 
L 459.871721 175.402037 
L 460.48558 175.576657 
L 460.89482 175.342321 
L 461.304059 175.164602 
L 461.713299 175.563676 
L 461.917919 175.765708 
L 462.122538 175.784386 
L 462.327158 175.523382 
L 462.736397 174.137271 
L 463.145637 172.501187 
L 463.350257 172.071943 
L 463.554876 172.085871 
L 463.964116 172.505172 
L 464.168736 172.286555 
L 464.577975 171.44109 
L 464.782595 171.285289 
L 464.987214 171.415287 
L 465.601074 172.495893 
L 465.805693 172.467454 
L 466.214933 171.682128 
L 466.624172 170.875306 
L 466.828792 170.787835 
L 467.033412 171.054938 
L 467.647271 172.680033 
L 467.851891 172.694283 
L 468.26113 172.091164 
L 468.46575 172.093137 
L 468.67037 172.551 
L 469.284229 174.674254 
L 469.693468 175.857224 
L 470.102708 178.118104 
L 470.716567 181.726733 
L 470.921187 182.252545 
L 471.125806 182.362216 
L 471.330426 182.018672 
L 471.739665 180.207404 
L 472.353525 177.069902 
L 472.762764 175.670609 
L 473.172004 174.901807 
L 473.785863 174.129684 
L 473.990482 174.177344 
L 474.195102 174.70702 
L 474.808961 176.973032 
L 475.013581 177.272458 
L 475.218201 177.370294 
L 475.422821 177.153891 
L 475.62744 176.446516 
L 476.03668 173.657429 
L 476.855159 167.557751 
L 477.059778 167.077909 
L 477.264398 167.10832 
L 478.492116 168.878288 
L 479.105976 170.628673 
L 479.515215 172.756998 
L 479.924455 174.912957 
L 480.333694 175.750532 
L 480.538314 175.79453 
L 480.742933 175.680773 
L 481.152173 175.037844 
L 481.970652 173.246904 
L 482.175271 173.02716 
L 482.379891 173.098952 
L 482.789131 173.619651 
L 482.99375 173.701185 
L 483.19837 173.624723 
L 483.60761 173.043261 
L 483.812229 172.665683 
L 484.016849 172.544037 
L 484.221469 172.912115 
L 484.835328 175.029129 
L 485.039948 174.89758 
L 485.449187 173.742988 
L 485.653807 173.537293 
L 485.858427 173.874496 
L 486.472286 176.330264 
L 486.676905 176.533021 
L 487.086145 176.148237 
L 487.495384 175.703557 
L 487.700004 175.286389 
L 488.109244 173.672021 
L 488.723103 171.099297 
L 489.541582 168.652305 
L 489.746201 168.435197 
L 489.950821 168.435238 
L 490.155441 168.58009 
L 490.56468 169.306465 
L 490.97392 170.08368 
L 491.587779 170.548609 
L 491.997018 171.605445 
L 492.406258 172.680053 
L 492.610878 172.720407 
L 492.815497 172.367948 
L 493.429356 170.762617 
L 493.633976 170.796168 
L 493.838596 171.361388 
L 494.657075 174.840259 
L 494.861695 175.057306 
L 495.270934 175.136304 
L 495.680173 175.53262 
L 496.089413 176.310761 
L 496.703272 178.088277 
L 496.907892 178.302586 
L 497.112512 178.231962 
L 497.726371 177.400424 
L 498.34023 176.128614 
L 498.954089 174.275844 
L 499.567948 171.493721 
L 499.772568 171.082028 
L 499.977188 171.222815 
L 500.386427 172.924473 
L 500.795667 174.60544 
L 501.000286 174.695045 
L 501.409526 173.798598 
L 502.228005 171.562937 
L 502.432624 171.420339 
L 502.637244 171.480438 
L 502.841864 171.770384 
L 503.455723 173.436618 
L 503.660343 173.463085 
L 503.864963 172.901307 
L 504.478822 170.33291 
L 504.683441 169.847996 
L 504.888061 169.683258 
L 505.092681 170.078709 
L 505.70654 172.81921 
L 505.91116 172.793508 
L 506.320399 170.940517 
L 506.729639 168.909525 
L 506.934258 168.625315 
L 507.138878 168.989871 
L 507.752737 170.848095 
L 507.957357 170.76165 
L 508.366597 169.383047 
L 508.775836 167.666134 
L 508.980456 167.164615 
L 509.185075 166.959503 
L 509.389695 166.923758 
L 509.594315 167.001306 
L 510.003554 167.618514 
L 510.617414 168.88497 
L 511.231273 170.802447 
L 511.435892 170.827425 
L 512.049752 169.529953 
L 512.254371 169.624126 
L 512.663611 170.533534 
L 513.07285 172.180547 
L 513.48209 173.949046 
L 513.686709 174.383019 
L 513.891329 174.329442 
L 514.095949 173.72743 
L 515.323667 167.623384 
L 515.528287 167.18295 
L 515.732907 167.177053 
L 516.142146 167.442928 
L 516.551386 167.04164 
L 516.756005 167.098559 
L 517.369865 168.095377 
L 517.574484 167.826484 
L 517.983724 166.601186 
L 518.188343 166.5145 
L 518.392963 167.275634 
L 519.211442 173.281501 
L 519.416062 173.186845 
L 519.825301 171.342026 
L 520.43916 168.083361 
L 520.64378 167.612254 
L 520.8484 167.547285 
L 521.257639 168.184579 
L 521.462259 168.567853 
L 521.666879 168.712182 
L 522.076118 168.336898 
L 522.280738 168.384639 
L 522.485358 168.818572 
L 522.894597 170.576826 
L 523.508456 174.15448 
L 523.713076 174.585394 
L 523.917696 174.332421 
L 524.326935 172.461094 
L 524.736175 170.666773 
L 524.940794 170.457917 
L 525.350034 170.612209 
L 525.554654 170.280681 
L 526.373132 167.731988 
L 527.396231 166.235 
L 527.600851 166.445667 
L 528.623949 169.332509 
L 529.033189 170.132065 
L 529.647048 172.100865 
L 529.851668 172.393348 
L 530.056288 172.461215 
L 530.465527 172.289715 
L 530.670147 172.41442 
L 530.874766 173.013856 
L 531.284006 174.868135 
L 531.488626 175.257708 
L 531.693245 175.172955 
L 532.511724 173.820355 
L 533.125583 173.584993 
L 533.944062 172.214924 
L 534.353302 172.361165 
L 534.557922 172.513887 
L 534.762541 172.845093 
L 535.171781 174.198457 
L 535.78564 176.395173 
L 536.399499 177.833914 
L 536.604119 178.130482 
L 536.808739 178.19831 
L 537.013358 177.961558 
L 538.036457 175.379999 
L 538.445696 173.279127 
L 539.059556 169.716266 
L 539.468795 168.829259 
L 539.673415 168.857256 
L 539.878034 169.22306 
L 540.287274 170.933956 
L 540.696513 172.746029 
L 541.105753 173.611842 
L 541.310373 173.778049 
L 541.514992 173.780263 
L 541.719612 173.573199 
L 542.128851 172.639015 
L 543.35657 169.104251 
L 544.175049 164.498261 
L 544.379668 163.929418 
L 544.584288 163.86139 
L 544.788908 164.340065 
L 545.812007 168.636787 
L 546.221246 168.74519 
L 546.835105 169.88674 
L 547.039725 169.755695 
L 547.448964 169.056873 
L 547.653584 169.10081 
L 547.858204 169.300528 
L 548.062824 169.32466 
L 548.267443 169.015533 
L 548.676683 167.558455 
L 549.495162 163.674332 
L 550.109021 161.739143 
L 550.51826 160.563639 
L 551.336739 158.856587 
L 551.541359 158.951626 
L 551.745979 159.492513 
L 552.155218 161.781107 
L 552.564458 164.183136 
L 552.973697 165.273544 
L 553.587556 166.203703 
L 554.201415 166.526959 
L 555.019894 167.470884 
L 555.429134 168.378581 
L 556.042993 170.086558 
L 556.247613 170.000396 
L 556.861472 168.857236 
L 557.270711 168.52287 
L 557.679951 168.447294 
L 557.88457 168.632822 
L 559.521528 172.111512 
L 559.930768 173.097623 
L 560.135387 172.962251 
L 560.544627 171.43483 
L 560.953866 170.008165 
L 561.976965 168.103166 
L 562.590824 165.982288 
L 563.000064 165.430694 
L 563.409303 165.320399 
L 563.818542 165.431378 
L 564.227782 165.65549 
L 564.841641 165.428238 
L 565.046261 165.355983 
L 565.250881 165.030755 
L 566.478599 161.132442 
L 567.092458 159.916161 
L 567.910937 158.453951 
L 568.320176 158.380006 
L 568.524796 158.30127 
L 568.729416 157.862607 
L 569.752515 153.711803 
L 569.957134 153.625842 
L 570.366374 153.843131 
L 570.980233 154.422017 
L 571.389472 154.327683 
L 571.798712 154.095641 
L 572.003332 154.102061 
L 572.207951 154.321504 
L 573.02643 156.036807 
L 573.23105 155.807221 
L 573.640289 154.616421 
L 574.254149 151.857384 
L 574.458768 151.483408 
L 574.663388 151.463966 
L 575.072627 151.621458 
L 575.277247 151.449515 
L 575.891106 150.300176 
L 576.300346 148.020115 
L 576.709585 145.353882 
L 576.914205 144.76926 
L 577.118825 144.738949 
L 577.528064 145.13772 
L 577.937304 145.053107 
L 578.141923 145.04083 
L 578.346543 145.275005 
L 579.369642 147.604759 
L 579.574261 147.500623 
L 580.80198 145.152976 
L 581.415839 145.177551 
L 581.620459 144.91069 
L 582.029698 143.454358 
L 582.438938 142.229966 
L 583.257417 141.708743 
L 583.462036 141.808451 
L 583.666656 142.334967 
L 584.075895 144.467338 
L 584.485135 146.904589 
L 584.689755 147.548384 
L 584.894374 147.583545 
L 585.098994 147.060149 
L 585.712853 143.591965 
L 586.326712 140.899104 
L 586.940572 139.042369 
L 587.145191 138.72491 
L 587.349811 138.760051 
L 587.554431 139.294538 
L 588.37291 143.179446 
L 588.986769 144.269673 
L 589.396008 145.081969 
L 589.600628 145.240246 
L 589.805248 145.044352 
L 590.214487 143.755132 
L 591.646825 138.207129 
L 593.488403 133.879411 
L 593.897642 133.738946 
L 594.511502 133.97459 
L 594.716121 133.670435 
L 595.125361 132.685853 
L 595.32998 132.447512 
L 595.5346 132.5218 
L 595.94384 132.884082 
L 596.148459 132.564187 
L 596.966938 129.836185 
L 598.194657 128.299788 
L 598.603896 127.324787 
L 599.217755 125.002521 
L 600.445474 119.849847 
L 600.650093 119.857958 
L 601.877812 122.564324 
L 602.696291 124.926784 
L 603.31015 125.719698 
L 603.514769 125.934088 
L 603.719389 125.861994 
L 603.924009 125.320785 
L 604.742488 121.972174 
L 604.947108 121.937979 
L 605.356347 122.321072 
L 605.560967 122.10012 
L 605.970206 120.233161 
L 606.584065 117.191524 
L 607.607164 113.067932 
L 608.425643 111.876326 
L 609.244122 109.444751 
L 609.448742 109.210778 
L 609.653361 109.197132 
L 610.26722 109.548183 
L 610.67646 109.418405 
L 610.88108 109.580486 
L 611.290319 110.154341 
L 611.494939 109.953737 
L 612.518037 107.312703 
L 613.131897 105.72776 
L 613.541136 104.015717 
L 614.359615 98.993626 
L 614.564235 98.632491 
L 614.768854 98.870168 
L 615.178094 100.771785 
L 615.791953 104.218555 
L 617.224291 110.719943 
L 617.633531 111.92767 
L 618.45201 115.208252 
L 619.475108 116.753525 
L 619.884348 118.210824 
L 620.498207 120.539571 
L 620.907446 120.973464 
L 621.316686 121.24906 
L 621.521305 121.588538 
L 621.930545 123.217558 
L 622.135165 124.057851 
L 622.339784 124.403266 
L 622.544404 124.09273 
L 623.362883 121.153377 
L 623.567503 121.075466 
L 623.772122 121.386948 
L 624.181362 122.467011 
L 624.385982 122.655478 
L 624.590601 122.442255 
L 625.81832 119.212714 
L 627.250658 112.562649 
L 628.682996 99.785614 
L 629.706095 94.007139 
L 630.729193 87.997045 
L 631.752292 79.44973 
L 632.77539 75.344313 
L 634.207729 66.872977 
L 634.616968 66.042305 
L 634.821588 66.072354 
L 635.026207 66.339839 
L 635.435447 67.527137 
L 636.663165 72.791836 
L 637.072405 76.075679 
L 638.300123 88.908767 
L 638.913982 94.922424 
L 639.118602 95.824204 
L 639.527841 96.406692 
L 639.732461 96.746633 
L 639.937081 97.432654 
L 640.34632 100.02792 
L 641.778658 111.224078 
L 642.392518 115.013425 
L 642.801757 116.61624 
L 643.006377 117.033207 
L 643.210996 117.153786 
L 643.415616 116.961414 
L 643.824856 116.170815 
L 644.029475 116.110736 
L 644.234095 116.425942 
L 644.643335 118.039927 
L 645.871053 124.9802 
L 646.280292 126.199158 
L 646.484912 126.548478 
L 646.689532 126.647602 
L 647.303391 126.459678 
L 647.508011 126.482603 
L 647.71263 126.272037 
L 647.91725 125.625927 
L 648.32649 122.719099 
L 648.735729 119.402348 
L 648.940349 118.699441 
L 649.144969 118.767047 
L 649.758828 120.538585 
L 650.168067 122.606147 
L 650.986546 127.224053 
L 651.191166 127.744249 
L 651.395786 127.828822 
L 651.600405 127.55707 
L 652.418884 125.509313 
L 652.623504 125.421198 
L 653.441983 126.334953 
L 654.055842 127.235726 
L 654.260462 127.141714 
L 654.669701 126.618841 
L 654.874321 126.717039 
L 655.078941 127.200907 
L 655.89742 130.91182 
L 656.102039 130.615614 
L 656.920518 126.492344 
L 657.125138 126.190342 
L 657.329758 126.294176 
L 657.738997 127.374641 
L 658.352856 129.813019 
L 659.785194 137.034261 
L 659.989814 137.057005 
L 660.603673 136.311328 
L 661.422152 136.616229 
L 661.626772 136.130851 
L 662.036011 133.465846 
L 662.649871 128.476843 
L 663.05911 127.120601 
L 663.26373 127.005879 
L 663.672969 127.250338 
L 663.877589 127.646614 
L 664.286828 129.399112 
L 664.696068 131.124721 
L 665.309927 132.566321 
L 665.514547 132.864076 
L 665.719166 132.892616 
L 666.128406 132.115179 
L 666.537645 131.280039 
L 666.742265 131.075088 
L 666.946885 131.047675 
L 667.151505 131.19601 
L 667.356124 131.542975 
L 667.765364 133.09179 
L 668.174603 135.312296 
L 668.379223 135.817578 
L 668.583843 135.606428 
L 669.402322 132.785441 
L 669.606941 132.819596 
L 669.811561 133.014906 
L 670.016181 133.008284 
L 670.2208 132.587876 
L 672.266998 124.556008 
L 672.471617 124.188755 
L 673.085477 124.04185 
L 673.494716 123.540613 
L 673.699336 123.712334 
L 673.903956 124.439998 
L 674.517815 127.618155 
L 675.336294 130.135651 
L 675.950153 131.918762 
L 676.359392 132.392687 
L 676.564012 132.110952 
L 676.973251 130.04339 
L 677.587111 125.194892 
L 678.610209 115.223629 
L 678.814829 114.883728 
L 679.019449 115.481493 
L 679.633308 120.033806 
L 680.247167 123.90847 
L 680.861026 125.956851 
L 681.270266 127.055592 
L 681.679505 127.41252 
L 682.088745 127.584181 
L 682.293364 127.508484 
L 682.702604 126.644744 
L 683.111843 125.039151 
L 683.725702 122.257612 
L 684.134942 121.04274 
L 684.748801 118.068729 
L 685.36266 113.190121 
L 686.181139 104.373048 
L 686.590379 98.621281 
L 687.818097 75.830515 
L 688.022717 74.851549 
L 688.227336 75.481316 
L 688.636576 80.942573 
L 689.864294 102.399638 
L 690.478153 108.270938 
L 691.092013 112.089288 
L 691.501252 113.510761 
L 692.115111 115.284231 
L 692.72897 117.595347 
L 692.93359 117.492338 
L 693.34283 115.813182 
L 694.775168 109.086435 
L 695.184407 107.510549 
L 695.593647 104.304315 
L 696.002886 99.340913 
L 696.616745 88.008276 
L 697.230604 75.615098 
L 697.435224 73.450444 
L 697.639844 73.065882 
L 697.844464 74.594631 
L 698.253703 82.575639 
L 699.276802 108.641593 
L 699.686041 114.019666 
L 700.095281 116.909528 
L 700.50452 118.216238 
L 700.913759 118.432037 
L 701.322999 118.594218 
L 701.732238 119.17075 
L 702.141478 119.663372 
L 702.755337 119.644916 
L 702.959957 119.909281 
L 703.369196 121.218366 
L 703.778436 122.549873 
L 703.983055 122.750778 
L 704.187675 122.669989 
L 704.596915 122.156515 
L 704.801534 121.683013 
L 705.006154 120.720269 
L 705.415393 116.930902 
L 706.233872 107.983548 
L 706.643112 105.782263 
L 706.847732 105.298698 
L 707.052351 105.224128 
L 707.256971 105.601424 
L 708.07545 108.251013 
L 708.484689 109.165754 
L 709.507788 112.255032 
L 709.917027 113.818217 
L 710.121647 114.147894 
L 710.940126 114.274169 
L 711.553985 114.655692 
L 711.963225 115.588125 
L 712.577084 117.860054 
L 712.781704 118.089238 
L 712.986323 117.799372 
L 713.395563 116.786694 
L 713.600182 116.625297 
L 713.804802 116.65585 
L 714.009422 116.499123 
L 714.418661 115.038966 
L 714.623281 114.332154 
L 714.827901 114.040296 
L 715.032521 114.110297 
L 715.44176 114.667225 
L 715.850999 115.472577 
L 716.260239 116.700954 
L 717.078718 119.678971 
L 717.487957 120.411726 
L 717.897197 120.614604 
L 718.306436 121.354464 
L 718.511056 121.728701 
L 718.715676 121.728238 
L 718.920295 121.235414 
L 719.738774 118.138629 
L 719.943394 118.208368 
L 720.148014 118.735347 
L 720.557253 120.974048 
L 721.171112 124.566776 
L 721.375732 124.907301 
L 721.580352 124.526442 
L 722.398831 121.033683 
L 722.80807 120.801944 
L 723.21731 120.945166 
L 723.831169 121.581292 
L 724.649648 121.114532 
L 724.854267 121.095835 
L 725.058887 120.888811 
L 725.468127 119.843728 
L 726.695845 116.029243 
L 727.309704 112.458453 
L 727.923563 109.250508 
L 728.128183 108.67925 
L 728.332803 108.523952 
L 728.537423 108.839137 
L 729.355901 111.543732 
L 729.560521 111.617637 
L 729.969761 111.03539 
L 730.379 110.147981 
L 730.78824 108.104329 
L 731.811338 101.392475 
L 732.425197 98.502674 
L 732.629817 98.155024 
L 732.834437 98.31155 
L 733.243676 100.013127 
L 733.857535 103.172647 
L 734.266775 103.910957 
L 734.471395 103.780012 
L 734.676014 103.24621 
L 735.085254 101.068655 
L 735.699113 97.546109 
L 735.903733 97.20649 
L 736.108352 97.549832 
L 736.722212 99.63573 
L 736.926831 99.63575 
L 737.336071 98.644648 
L 737.74531 97.607214 
L 738.973029 95.590653 
L 739.177648 94.761591 
L 739.996127 89.952199 
L 740.405367 88.941514 
L 740.814606 88.124226 
L 741.223846 86.651108 
L 741.837705 84.162292 
L 742.042325 83.871762 
L 742.246944 84.176361 
L 743.065423 87.419829 
L 743.270043 87.631281 
L 743.474663 87.539644 
L 744.088522 86.736928 
L 744.497761 85.834102 
L 744.907001 83.841834 
L 745.930099 77.17607 
L 746.134719 77.065312 
L 746.748578 77.764939 
L 746.953198 77.426145 
L 747.771677 74.440822 
L 747.976297 74.407754 
L 748.180916 74.940469 
L 749.204015 79.944165 
L 749.408635 80.039384 
L 749.613254 79.635038 
L 750.022494 77.455792 
L 750.636353 73.653644 
L 751.250212 71.403995 
L 751.659452 70.443666 
L 752.273311 69.715218 
L 752.477931 69.61227 
L 752.68255 69.706564 
L 752.88717 70.092032 
L 753.296409 71.83509 
L 753.705649 73.705229 
L 753.910269 74.023936 
L 754.114888 73.855355 
L 754.524128 72.687439 
L 755.137987 69.661218 
L 755.547226 67.99444 
L 755.751846 67.645341 
L 755.956466 67.656572 
L 756.161086 68.064582 
L 756.774945 69.82507 
L 756.979565 70.02187 
L 757.184184 69.909281 
L 757.593424 69.522243 
L 758.002663 69.518298 
L 758.411903 68.645984 
L 758.821142 67.931081 
L 759.025762 67.922648 
L 759.230382 68.237028 
L 759.844241 69.940678 
L 760.04886 69.986286 
L 760.66272 69.598 
L 760.867339 69.770044 
L 761.276579 70.649221 
L 761.685818 72.356655 
L 762.095058 74.158383 
L 762.299677 74.507583 
L 762.504297 74.411659 
L 762.913537 73.428929 
L 763.527396 71.727875 
L 763.732016 71.493418 
L 763.936635 71.580909 
L 764.550494 72.746048 
L 764.755114 72.379399 
L 765.164354 70.408545 
L 765.778213 67.510452 
L 766.187452 66.483926 
L 766.392072 66.335773 
L 766.596692 66.410544 
L 767.210551 67.199131 
L 767.61979 68.128384 
L 768.02903 70.298472 
L 769.052128 79.173591 
L 769.256748 79.572987 
L 769.461368 79.36717 
L 769.870607 78.434053 
L 770.075227 78.235342 
L 770.279847 78.348776 
L 770.893706 79.36389 
L 771.098326 79.329855 
L 771.507565 78.410122 
L 772.530664 75.773999 
L 773.349143 74.167843 
L 773.553762 73.899513 
L 773.758382 73.921129 
L 774.986101 75.805799 
L 775.19072 76.013025 
L 775.39534 75.938676 
L 775.59996 75.549485 
L 776.009199 74.063928 
L 776.623058 71.769175 
L 777.032298 71.180266 
L 777.441537 70.940938 
L 777.646157 71.054695 
L 777.850777 71.55241 
L 779.078495 76.400002 
L 780.101594 78.571157 
L 780.306213 78.723758 
L 780.510833 79.0734 
L 780.920073 80.801887 
L 781.738552 85.404315 
L 782.147791 85.896153 
L 782.76165 86.053383 
L 783.375509 86.64032 
L 783.580129 86.501948 
L 784.193988 85.631043 
L 784.603228 85.551462 
L 785.012467 85.435169 
L 785.421707 84.871479 
L 786.035566 83.794818 
L 786.240186 83.869548 
L 786.649425 84.427945 
L 786.854045 84.41754 
L 787.058664 83.789222 
L 787.672524 80.266555 
L 787.877143 79.683865 
L 788.081763 79.516712 
L 788.286383 79.790336 
L 788.695622 81.676053 
L 789.309481 85.069184 
L 790.12796 87.15949 
L 790.741819 88.412642 
L 791.151059 89.133744 
L 791.560298 90.501479 
L 792.174158 93.518421 
L 792.378777 93.654357 
L 792.788017 92.588061 
L 793.401876 90.539297 
L 793.606496 90.220268 
L 793.811115 90.442226 
L 794.220355 92.226021 
L 794.834214 94.83926 
L 795.038834 95.150118 
L 795.448073 95.41875 
L 795.652693 95.675668 
L 795.857313 95.682511 
L 796.266552 94.484526 
L 796.471172 93.947785 
L 796.675792 93.914958 
L 797.085031 95.067296 
L 797.289651 95.610316 
L 797.49427 95.795261 
L 797.90351 95.621245 
L 798.10813 95.780186 
L 799.131228 97.653586 
L 799.335848 97.394111 
L 799.745087 95.696238 
L 800.154327 94.119768 
L 800.358947 93.859831 
L 800.563566 94.063051 
L 801.382045 96.402043 
L 801.791285 96.670272 
L 801.995904 97.166297 
L 802.405144 99.48492 
L 802.814383 101.668574 
L 803.019003 102.097113 
L 803.223623 102.18394 
L 803.632862 102.01415 
L 804.042102 101.575306 
L 804.246721 101.584484 
L 804.451341 102.057181 
L 804.860581 104.706126 
L 805.26982 107.924496 
L 805.67906 109.27313 
L 806.088299 109.760581 
L 806.702158 111.120949 
L 806.906778 111.010372 
L 807.929877 108.474983 
L 808.134496 108.63006 
L 808.339116 109.222632 
L 808.748355 111.323947 
L 809.566834 116.250436 
L 810.589933 119.336373 
L 811.203792 120.494789 
L 811.613032 121.391416 
L 811.817651 121.452984 
L 812.226891 121.126286 
L 812.431511 121.239318 
L 812.63613 121.726829 
L 813.249989 124.516922 
L 814.273088 129.428457 
L 814.886947 132.217725 
L 815.296187 134.193751 
L 815.705426 135.101327 
L 816.319285 135.880957 
L 817.547004 138.95204 
L 817.751623 138.892445 
L 817.956243 138.38517 
L 818.570102 136.049962 
L 818.774722 135.764122 
L 818.979342 136.055557 
L 819.183962 136.982415 
L 819.797821 142.048161 
L 820.41168 146.43159 
L 820.6163 147.024605 
L 821.025539 147.478604 
L 821.434779 148.694442 
L 821.844018 149.750171 
L 823.071736 150.622284 
L 823.276356 151.167337 
L 823.685596 153.420931 
L 824.299455 157.656469 
L 825.117934 160.963699 
L 825.527173 162.135882 
L 826.141032 163.504784 
L 826.550272 165.084956 
L 827.57337 170.005629 
L 828.18723 170.746495 
L 828.596469 172.518033 
L 829.005708 173.879588 
L 829.210328 173.809306 
L 830.028807 172.48104 
L 830.438046 172.429596 
L 831.051906 171.649663 
L 831.256525 171.760159 
L 831.461145 172.243544 
L 832.688863 176.988872 
L 832.893483 177.101823 
L 833.098103 176.999519 
L 833.302723 176.635748 
L 833.916582 174.561262 
L 834.530441 172.700502 
L 835.34892 171.655057 
L 835.758159 171.546775 
L 836.167399 171.770545 
L 836.985878 172.551423 
L 837.395117 172.645154 
L 837.599737 172.434064 
L 838.418216 170.856508 
L 838.827455 168.965719 
L 839.441314 165.656436 
L 839.850554 164.05042 
L 840.055174 163.606786 
L 840.259793 163.566613 
L 840.669033 163.90118 
L 840.873653 163.758783 
L 841.487512 162.606144 
L 841.896751 162.54359 
L 842.101371 162.337129 
L 842.51061 161.057832 
L 843.12447 157.817563 
L 843.533709 155.652668 
L 843.942948 154.516633 
L 844.147568 154.057118 
L 844.556808 152.149242 
L 845.579906 145.614866 
L 846.193765 142.925748 
L 847.012244 138.683127 
L 848.239963 134.187592 
L 848.444582 134.394978 
L 848.853822 136.470531 
L 849.263061 138.709614 
L 849.467681 139.007288 
L 849.672301 138.646838 
L 850.08154 136.745161 
L 850.49078 134.761587 
L 850.900019 133.92371 
L 851.309259 133.384614 
L 851.513878 133.279694 
L 851.923118 133.550298 
L 852.127738 133.329749 
L 852.332357 132.533655 
L 852.946216 128.081674 
L 853.764695 121.870655 
L 854.173935 120.25989 
L 854.583174 119.590856 
L 854.787794 119.634712 
L 854.992414 119.954003 
L 855.401653 121.503945 
L 855.810893 123.645816 
L 856.015512 124.22605 
L 856.220132 124.267209 
L 856.629372 123.340553 
L 857.243231 121.216313 
L 858.06171 118.190455 
L 858.470949 117.424833 
L 858.675569 117.592932 
L 859.494048 119.561853 
L 859.698667 119.072008 
L 860.721766 114.160634 
L 861.540245 112.461069 
L 861.949484 111.354761 
L 862.154104 111.275281 
L 863.177203 112.196543 
L 863.586442 112.660183 
L 863.995682 113.59169 
L 864.609541 115.356969 
L 865.01878 116.098741 
L 865.42802 117.585123 
L 866.041879 120.304289 
L 866.655738 122.327432 
L 867.474217 125.590665 
L 868.292696 127.223751 
L 868.701935 129.372645 
L 869.111175 132.932447 
L 869.929654 143.466253 
L 870.748133 156.639684 
L 872.99895 199.774666 
L 873.612809 206.470821 
L 874.840527 216.444238 
L 875.249767 218.137785 
L 875.863626 218.689258 
L 876.682105 220.66776 
L 877.091344 221.120229 
L 877.295964 221.715076 
L 878.114443 225.426492 
L 878.319063 225.491864 
L 878.523682 225.245593 
L 879.342161 223.390106 
L 879.546781 223.333087 
L 879.751401 223.558386 
L 880.36526 224.899855 
L 880.56988 224.733528 
L 881.592978 221.125644 
L 882.002218 218.901193 
L 882.411457 215.100595 
L 883.229936 204.629625 
L 883.843795 196.913828 
L 885.071514 184.584714 
L 885.685373 172.632695 
L 888.754669 105.856833 
L 889.573148 84.653103 
L 890.391626 54.747848 
L 891.210105 16.867844 
L 891.537766 -1 
M 893.936161 -1 
L 895.171885 253 
M 912.830375 253 
L 913.012328 -1 
M 946.7348 -1 
L 947.071291 3.745152 
L 947.48053 7.222655 
L 948.094389 11.456159 
L 948.503629 15.845605 
L 950.754446 44.975719 
L 951.163685 48.088484 
L 951.777544 51.837336 
L 953.414502 65.265955 
L 954.232981 72.99083 
L 954.642221 74.720886 
L 955.4607 76.48536 
L 956.074559 78.173029 
L 957.506897 83.131319 
L 957.711517 83.57139 
L 958.325376 84.046885 
L 959.143855 85.48935 
L 959.757714 85.201759 
L 959.962334 85.88937 
L 961.803911 97.368188 
L 962.41777 102.242086 
L 963.645489 107.495917 
L 963.850108 107.621005 
L 964.054728 107.383006 
L 964.668587 106.386892 
L 964.873207 106.414647 
L 965.282446 106.842401 
L 965.896306 107.772781 
L 966.100925 107.776182 
L 966.714785 107.200053 
L 966.919404 107.370386 
L 967.124024 107.958269 
L 968.147123 112.825545 
L 968.760982 113.427476 
L 969.170221 114.793882 
L 970.19332 119.055987 
L 970.39794 119.405206 
L 970.602559 119.456288 
L 971.011799 118.895194 
L 971.421038 118.287788 
L 971.830278 118.105219 
L 972.034897 118.361815 
L 972.444137 119.962174 
L 973.057996 122.114772 
L 974.081095 125.165105 
L 974.285714 125.314808 
L 974.490334 125.223452 
L 974.899574 124.607372 
L 975.308813 123.505351 
L 975.922672 121.827342 
L 976.127292 121.606873 
L 976.331912 121.555168 
L 976.536531 121.672567 
L 976.741151 122.069064 
L 976.945771 122.960137 
L 977.76425 127.996115 
L 977.96887 128.161256 
L 978.378109 128.119875 
L 978.787348 128.300895 
L 979.196588 128.305846 
L 979.401208 128.512327 
L 980.015067 129.548634 
L 980.219687 129.424653 
L 980.628926 128.159766 
L 981.242785 126.099953 
L 981.447405 125.963453 
L 981.652025 126.228301 
L 982.879743 129.309307 
L 983.288982 131.257879 
L 983.902842 134.338281 
L 984.107461 134.471621 
L 984.312081 133.98087 
L 984.72132 132.491127 
L 984.92594 132.262225 
L 985.13056 132.382382 
L 985.744419 133.113125 
L 985.949039 133.000435 
L 987.176757 131.064602 
L 987.585997 130.376226 
L 987.995236 129.185426 
L 988.404476 127.467647 
L 989.222954 123.634585 
L 989.632194 122.835109 
L 990.041433 122.144017 
L 990.859912 120.233483 
L 991.064532 120.776564 
L 991.473771 123.701023 
L 991.883011 127.104721 
L 992.29225 128.480225 
L 992.70149 129.017267 
L 993.110729 130.165962 
L 993.519969 132.377592 
L 995.156927 143.489922 
L 995.361546 143.898455 
L 995.566166 143.840772 
L 995.975405 143.27052 
L 996.180025 142.83544 
L 998.021603 135.918212 
L 998.430842 132.614464 
L 999.044701 124.421219 
L 999.658561 116.571096 
L 999.86318 115.275395 
L 1000.0678 114.894536 
L 1000.27242 115.459475 
L 1000.681659 118.91671 
L 1001.909378 132.752413 
L 1003.546335 142.227269 
L 1003.750955 142.689058 
L 1003.955575 142.726936 
L 1004.364814 142.438962 
L 1004.569434 142.614569 
L 1005.592533 144.647976 
L 1005.797152 144.408286 
L 1006.001772 143.61181 
L 1006.820251 139.206543 
L 1007.024871 138.889788 
L 1007.22949 138.938757 
L 1007.43411 139.364216 
L 1008.047969 141.639246 
L 1008.252589 141.785024 
L 1008.457209 141.272314 
L 1008.866448 138.629811 
L 1009.480307 134.751242 
L 1009.684927 134.328459 
L 1009.889547 134.515517 
L 1010.094167 135.291143 
L 1010.503406 138.214193 
L 1011.526505 147.49541 
L 1011.731124 148.155326 
L 1011.935744 148.422067 
L 1012.140364 148.439939 
L 1012.344984 148.249379 
L 1013.163463 146.59206 
L 1013.368082 146.714351 
L 1013.981941 147.544378 
L 1014.391181 147.556777 
L 1014.80042 147.547156 
L 1015.41428 147.634546 
L 1016.028139 146.917007 
L 1016.437378 146.539348 
L 1016.641998 146.553377 
L 1016.846618 146.791336 
L 1017.665097 148.534233 
L 1018.278956 148.926363 
L 1019.302054 150.775328 
L 1019.711294 152.012138 
L 1020.120533 153.348113 
L 1020.529773 153.929817 
L 1020.734392 153.80648 
L 1021.348252 152.841442 
L 1021.962111 153.335534 
L 1022.16673 153.05078 
L 1022.57597 151.138455 
L 1022.78059 150.18016 
L 1022.985209 149.763516 
L 1023.189829 149.98815 
L 1024.008308 152.832747 
L 1024.212928 152.922774 
L 1024.622167 152.709994 
L 1025.031407 153.049492 
L 1025.236026 152.967053 
L 1025.645266 152.197425 
L 1026.463745 150.371948 
L 1026.872984 149.899895 
L 1027.282224 148.917728 
L 1027.691463 147.786725 
L 1028.100703 147.301831 
L 1028.305322 147.413092 
L 1028.714562 148.387851 
L 1029.328421 150.708326 
L 1030.1469 154.20505 
L 1030.35152 154.050597 
L 1030.760759 152.271109 
L 1031.169998 150.806002 
L 1031.374618 150.802157 
L 1032.193097 151.845992 
L 1032.397717 152.125855 
L 1032.806956 153.449491 
L 1033.420815 155.763848 
L 1033.625435 156.037612 
L 1033.830055 156.037592 
L 1034.443914 155.532129 
L 1034.853154 156.225315 
L 1035.262393 156.991581 
L 1035.467013 156.881729 
L 1035.671632 156.19279 
L 1036.285492 153.370574 
L 1036.490111 153.262755 
L 1037.30859 154.024795 
L 1037.71783 154.316291 
L 1038.127069 154.955698 
L 1038.740928 156.442563 
L 1039.354788 157.331562 
L 1039.968647 158.422272 
L 1040.173266 158.177873 
L 1040.377886 157.266351 
L 1041.400985 150.0309 
L 1041.605605 150.291803 
L 1044.470281 159.443363 
L 1045.08414 161.228809 
L 1045.493379 161.842655 
L 1045.697999 161.862158 
L 1045.902619 161.529704 
L 1046.311858 159.577267 
L 1046.721098 157.772801 
L 1046.925717 157.549273 
L 1047.130337 157.65196 
L 1047.539577 158.409109 
L 1048.153436 160.084964 
L 1048.358056 159.932605 
L 1048.971915 158.76175 
L 1049.176534 158.641795 
L 1049.381154 158.733814 
L 1049.790394 159.492311 
L 1050.404253 160.587369 
L 1050.813492 161.235229 
L 1051.427351 162.77537 
L 1052.041211 164.800163 
L 1052.24583 165.110719 
L 1052.45045 165.129255 
L 1052.65507 164.909411 
L 1052.85969 164.460221 
L 1053.268929 162.732882 
L 1053.678168 160.651352 
L 1053.882788 160.061818 
L 1054.087408 159.93029 
L 1054.496647 160.59387 
L 1054.701267 160.895952 
L 1054.905887 160.961505 
L 1055.110507 160.812788 
L 1055.724366 160.112578 
L 1056.338225 160.19538 
L 1056.747464 160.061718 
L 1056.952084 160.305433 
L 1057.361324 161.610774 
L 1057.770563 163.205519 
L 1057.975183 163.62329 
L 1058.179802 163.696632 
L 1058.793662 163.171706 
L 1058.998281 163.509976 
L 1060.02138 166.653858 
L 1060.226 166.72877 
L 1061.249098 166.483465 
L 1061.453718 166.281211 
L 1061.862957 165.312308 
L 1062.476817 163.396783 
L 1062.681436 163.152606 
L 1062.886056 163.303214 
L 1063.704535 164.905828 
L 1064.113774 165.355239 
L 1064.523014 165.9652 
L 1064.727634 165.937365 
L 1065.341493 164.968724 
L 1065.750732 165.192735 
L 1065.955352 165.061931 
L 1066.364591 163.971805 
L 1066.773831 163.072078 
L 1066.978451 163.02792 
L 1067.38769 163.52159 
L 1068.001549 164.490291 
L 1068.206169 164.483971 
L 1068.410789 164.294699 
L 1068.615408 163.901603 
L 1069.024648 162.311146 
L 1069.638507 159.591617 
L 1069.843127 159.233139 
L 1070.047747 159.276593 
L 1070.661606 160.610011 
L 1071.275465 162.277856 
L 1071.684704 163.475419 
L 1071.889324 163.832367 
L 1072.093944 163.944815 
L 1072.298564 163.794589 
L 1073.526282 161.459441 
L 1074.140141 159.586666 
L 1074.344761 159.404176 
L 1074.549381 159.385962 
L 1074.754 159.508574 
L 1075.16324 160.231849 
L 1075.572479 161.36551 
L 1076.186338 163.724407 
L 1076.390958 163.879262 
L 1076.595578 163.489387 
L 1077.414057 160.601679 
L 1077.618676 160.346914 
L 1078.232536 160.233379 
L 1078.437155 160.432976 
L 1079.255634 162.380543 
L 1079.664874 162.665518 
L 1080.074113 162.965406 
L 1080.278733 162.769493 
L 1080.892592 161.771708 
L 1081.097212 162.085484 
L 1082.12031 165.456979 
L 1082.73417 167.375825 
L 1083.348029 170.281808 
L 1083.552649 170.619032 
L 1083.757268 170.321699 
L 1084.166508 168.492257 
L 1084.575747 166.521222 
L 1084.780367 166.019845 
L 1084.984987 165.959625 
L 1085.598846 166.567474 
L 1086.212705 166.295138 
L 1086.417325 166.578382 
L 1086.826564 167.657821 
L 1087.031184 167.852346 
L 1087.440423 167.40831 
L 1087.645043 167.226022 
L 1087.849663 167.214167 
L 1088.258902 167.522912 
L 1089.077381 168.341548 
L 1089.282001 168.214045 
L 1089.89586 167.389914 
L 1090.10048 167.490709 
L 1090.714339 168.386189 
L 1090.918959 168.305219 
L 1091.328198 167.381722 
L 1091.737438 166.56051 
L 1092.760536 166.320035 
L 1093.169776 166.66847 
L 1093.579015 167.256212 
L 1093.988255 168.182446 
L 1094.192874 168.305682 
L 1094.602114 167.999956 
L 1094.806734 168.187195 
L 1095.215973 169.758331 
L 1095.829832 172.462523 
L 1096.034452 172.542769 
L 1096.443691 171.689072 
L 1096.852931 170.964146 
L 1097.26217 170.726811 
L 1097.67141 170.863733 
L 1097.876029 170.704189 
L 1098.285269 169.427447 
L 1098.694508 168.501515 
L 1098.899128 168.69435 
L 1099.308367 170.078769 
L 1099.922227 172.32699 
L 1100.536086 173.236136 
L 1100.945325 173.693255 
L 1101.149945 173.542586 
L 1101.354565 173.010917 
L 1102.173044 169.998101 
L 1102.377663 170.404823 
L 1103.196142 173.881299 
L 1103.400762 173.828527 
L 1103.605382 173.285567 
L 1104.014621 170.905517 
L 1104.423861 168.337784 
L 1104.62848 167.836104 
L 1104.8331 167.914256 
L 1105.24234 169.162881 
L 1105.856199 171.088569 
L 1106.265438 171.698733 
L 1107.083917 172.22698 
L 1107.288537 172.097625 
L 1107.697776 170.945207 
L 1108.311635 169.05156 
L 1108.720875 168.221572 
L 1109.130114 166.074851 
L 1109.743974 162.563958 
L 1110.971692 157.706343 
L 1111.380931 155.188021 
L 1111.790171 151.068978 
L 1114.245608 116.94483 
L 1114.859467 110.403268 
L 1115.882565 102.76824 
L 1116.291805 96.624162 
L 1116.701044 87.920724 
L 1117.110284 74.71996 
L 1117.519523 53.20014 
L 1117.928763 21.722702 
L 1118.157366 -1 
M 1125.557151 -1 
L 1126.727411 43.294369 
L 1127.54589 65.269216 
L 1127.955129 72.612064 
L 1128.978228 84.087058 
L 1131.842904 110.54009 
L 1132.456763 113.333746 
L 1132.866003 114.421276 
L 1133.479862 115.540082 
L 1133.889101 117.12585 
L 1134.9122 122.480053 
L 1135.935299 126.267609 
L 1136.753778 130.204847 
L 1137.572256 132.766381 
L 1138.186116 135.408582 
L 1138.390735 135.679066 
L 1138.595355 135.502755 
L 1139.618454 132.926328 
L 1140.027693 131.695093 
L 1140.232313 131.686821 
L 1140.641552 133.213175 
L 1141.050792 134.595179 
L 1141.869271 135.810997 
L 1143.915468 141.255871 
L 1144.120088 141.541832 
L 1144.324707 141.419018 
L 1144.529327 140.810063 
L 1145.347806 137.360436 
L 1145.757045 136.844567 
L 1146.166285 136.615605 
L 1146.370905 136.810633 
L 1146.780144 137.899672 
L 1147.394003 139.791669 
L 1147.803243 142.216602 
L 1148.212482 144.695857 
L 1148.621722 145.548347 
L 1149.030961 146.005285 
L 1149.64482 147.295732 
L 1150.258679 148.602523 
L 1150.463299 148.414479 
L 1151.077158 146.600051 
L 1151.486398 146.323046 
L 1151.895637 146.3761 
L 1152.100257 146.655158 
L 1152.509496 147.943512 
L 1152.918736 149.367924 
L 1153.327975 150.122074 
L 1153.737215 150.251348 
L 1154.146454 150.150332 
L 1154.351074 150.275239 
L 1154.760313 150.748338 
L 1154.964933 150.533344 
L 1155.374173 148.53693 
L 1155.783412 146.417481 
L 1156.192652 145.693501 
L 1156.397271 145.699257 
L 1156.806511 146.156879 
L 1157.01113 146.186828 
L 1157.829609 145.466411 
L 1158.238849 145.832657 
L 1158.648088 146.270133 
L 1158.852708 146.322885 
L 1159.261947 146.173404 
L 1159.466567 146.43008 
L 1159.671187 147.125118 
L 1160.694286 152.620872 
L 1160.898905 152.580719 
L 1161.308145 151.14878 
L 1161.717384 149.698003 
L 1161.922004 149.436415 
L 1162.331243 149.698949 
L 1162.535863 149.548884 
L 1164.172821 145.821245 
L 1164.377441 146.285751 
L 1164.78668 148.831244 
L 1165.19592 151.403787 
L 1165.605159 152.71581 
L 1166.014398 153.5208 
L 1166.219018 153.436208 
L 1166.423638 152.730261 
L 1167.037497 148.972513 
L 1167.242117 148.669022 
L 1167.446737 149.140008 
L 1168.060596 151.750531 
L 1168.265215 152.074994 
L 1168.469835 152.124667 
L 1168.879075 151.897335 
L 1169.083694 151.757394 
L 1169.288314 151.765183 
L 1170.106793 152.511524 
L 1170.516032 152.458429 
L 1170.720652 152.662354 
L 1170.925272 153.201449 
L 1171.539131 155.785484 
L 1171.743751 155.736295 
L 1172.15299 153.87799 
L 1172.56223 152.112168 
L 1172.971469 151.357475 
L 1173.176089 151.376938 
L 1173.789948 151.912088 
L 1173.994568 151.78855 
L 1174.403807 151.172389 
L 1174.813047 150.386097 
L 1175.017666 150.29611 
L 1175.222286 150.590706 
L 1175.631526 151.506795 
L 1175.836145 151.715792 
L 1176.245385 151.773616 
L 1176.450004 151.955059 
L 1177.063864 153.027433 
L 1177.268483 152.99354 
L 1177.677723 152.537366 
L 1177.882343 152.588992 
L 1178.291582 153.027252 
L 1178.496202 153.002798 
L 1179.314681 152.055129 
L 1179.92854 152.560734 
L 1180.337779 152.432285 
L 1180.542399 152.66972 
L 1181.156258 153.91923 
L 1181.360878 153.736861 
L 1181.974737 152.396278 
L 1182.179357 152.265212 
L 1182.383977 152.391669 
L 1183.202455 153.347066 
L 1183.611695 153.648263 
L 1184.020934 154.55747 
L 1184.430174 155.299081 
L 1184.839413 155.230368 
L 1184.839413 155.230368 
" clip-path="url(#p79872930d4)" style="fill: none; stroke: #000000; stroke-width: 2; stroke-linecap: square"/>
   </g>
   <g id="patch_3">
    <path d="M 3.00024 198.907885 
L 1184.99976 198.907885 
" style="fill: none; stroke: #000000; stroke-width: 2; stroke-linejoin: miter; stroke-linecap: square"/>
   </g>
  </g>
 </g>
 <defs>
  <clipPath id="p79872930d4">
   <rect x="3.00024" y="3.00024" width="1181.99952" height="195.907645"/>
  </clipPath>
 </defs>
</svg>
