<?xml version="1.0" encoding="utf-8" standalone="no"?>
<!DOCTYPE svg PUBLIC "-//W3C//DTD SVG 1.1//EN"
  "http://www.w3.org/Graphics/SVG/1.1/DTD/svg11.dtd">
<svg xmlns:xlink="http://www.w3.org/1999/xlink" width="1188pt" height="252pt" viewBox="0 0 1188 252" xmlns="http://www.w3.org/2000/svg" version="1.1">
 <metadata>
  <rdf:RDF xmlns:dc="http://purl.org/dc/elements/1.1/" xmlns:cc="http://creativecommons.org/ns#" xmlns:rdf="http://www.w3.org/1999/02/22-rdf-syntax-ns#">
   <cc:Work>
    <dc:type rdf:resource="http://purl.org/dc/dcmitype/StillImage"/>
    <dc:date>2024-07-23T21:45:00.321265</dc:date>
    <dc:format>image/svg+xml</dc:format>
    <dc:creator>
     <cc:Agent>
      <dc:title>Matplotlib v3.8.4, https://matplotlib.org/</dc:title>
     </cc:Agent>
    </dc:creator>
   </cc:Work>
  </rdf:RDF>
 </metadata>
 <defs>
  <style type="text/css">*{stroke-linejoin: round; stroke-linecap: butt}</style>
 </defs>
 <g id="figure_1">
  <g id="patch_1">
   <path d="M 0 252 
L 1188 252 
L 1188 0 
L 0 0 
z
" style="fill: #ffffff"/>
  </g>
  <g id="axes_1">
   <g id="patch_2">
    <path d="M 3.00024 198.907885 
L 1184.99976 198.907885 
L 1184.99976 3.00024 
L 3.00024 3.00024 
z
" style="fill: #ffffff"/>
   </g>
   <g id="matplotlib.axis_1">
    <g id="xtick_1">
     <g id="line2d_1">
      <defs>
       <path id="m737cac4e9d" d="M 0 0 
L 0 8 
" style="stroke: #000000; stroke-width: 2"/>
      </defs>
      <g>
       <use xlink:href="#m737cac4e9d" x="1131.272509" y="198.907885" style="stroke: #000000; stroke-width: 2"/>
      </g>
     </g>
     <g id="text_1">
      <!-- 0 -->
      <g transform="translate(1126.267665 224.791947) scale(0.18 -0.18)">
       <defs>
        <path id="Arial-BoldMT-30" d="M 1756 4600 
Q 2422 4600 2797 4125 
Q 3244 3563 3244 2259 
Q 3244 959 2794 391 
Q 2422 -78 1756 -78 
Q 1088 -78 678 436 
Q 269 950 269 2269 
Q 269 3563 719 4131 
Q 1091 4600 1756 4600 
z
M 1756 3872 
Q 1597 3872 1472 3770 
Q 1347 3669 1278 3406 
Q 1188 3066 1188 2259 
Q 1188 1453 1269 1151 
Q 1350 850 1473 750 
Q 1597 650 1756 650 
Q 1916 650 2041 751 
Q 2166 853 2234 1116 
Q 2325 1453 2325 2259 
Q 2325 3066 2244 3367 
Q 2163 3669 2039 3770 
Q 1916 3872 1756 3872 
z
" transform="scale(0.015625)"/>
       </defs>
       <use xlink:href="#Arial-BoldMT-30"/>
      </g>
     </g>
    </g>
    <g id="xtick_2">
     <g id="line2d_2">
      <g>
       <use xlink:href="#m737cac4e9d" x="1023.818007" y="198.907885" style="stroke: #000000; stroke-width: 2"/>
      </g>
     </g>
     <g id="text_2">
      <!-- 1 -->
      <g transform="translate(1018.813164 224.791947) scale(0.18 -0.18)">
       <defs>
        <path id="Arial-BoldMT-31" d="M 2519 0 
L 1641 0 
L 1641 3309 
Q 1159 2859 506 2644 
L 506 3441 
Q 850 3553 1253 3867 
Q 1656 4181 1806 4600 
L 2519 4600 
L 2519 0 
z
" transform="scale(0.015625)"/>
       </defs>
       <use xlink:href="#Arial-BoldMT-31"/>
      </g>
     </g>
    </g>
    <g id="xtick_3">
     <g id="line2d_3">
      <g>
       <use xlink:href="#m737cac4e9d" x="916.363505" y="198.907885" style="stroke: #000000; stroke-width: 2"/>
      </g>
     </g>
     <g id="text_3">
      <!-- 2 -->
      <g transform="translate(911.358662 224.791947) scale(0.18 -0.18)">
       <defs>
        <path id="Arial-BoldMT-32" d="M 3238 816 
L 3238 0 
L 159 0 
Q 209 463 459 877 
Q 709 1291 1447 1975 
Q 2041 2528 2175 2725 
Q 2356 2997 2356 3263 
Q 2356 3556 2198 3714 
Q 2041 3872 1763 3872 
Q 1488 3872 1325 3706 
Q 1163 3541 1138 3156 
L 263 3244 
Q 341 3969 753 4284 
Q 1166 4600 1784 4600 
Q 2463 4600 2850 4234 
Q 3238 3869 3238 3325 
Q 3238 3016 3127 2736 
Q 3016 2456 2775 2150 
Q 2616 1947 2200 1565 
Q 1784 1184 1673 1059 
Q 1563 934 1494 816 
L 3238 816 
z
" transform="scale(0.015625)"/>
       </defs>
       <use xlink:href="#Arial-BoldMT-32"/>
      </g>
     </g>
    </g>
    <g id="xtick_4">
     <g id="line2d_4">
      <g>
       <use xlink:href="#m737cac4e9d" x="808.909004" y="198.907885" style="stroke: #000000; stroke-width: 2"/>
      </g>
     </g>
     <g id="text_4">
      <!-- 3 -->
      <g transform="translate(803.90416 224.791947) scale(0.18 -0.18)">
       <defs>
        <path id="Arial-BoldMT-33" d="M 241 1216 
L 1091 1319 
Q 1131 994 1309 822 
Q 1488 650 1741 650 
Q 2013 650 2198 856 
Q 2384 1063 2384 1413 
Q 2384 1744 2206 1937 
Q 2028 2131 1772 2131 
Q 1603 2131 1369 2066 
L 1466 2781 
Q 1822 2772 2009 2936 
Q 2197 3100 2197 3372 
Q 2197 3603 2059 3740 
Q 1922 3878 1694 3878 
Q 1469 3878 1309 3722 
Q 1150 3566 1116 3266 
L 306 3403 
Q 391 3819 561 4067 
Q 731 4316 1036 4458 
Q 1341 4600 1719 4600 
Q 2366 4600 2756 4188 
Q 3078 3850 3078 3425 
Q 3078 2822 2419 2463 
Q 2813 2378 3048 2084 
Q 3284 1791 3284 1375 
Q 3284 772 2843 347 
Q 2403 -78 1747 -78 
Q 1125 -78 715 280 
Q 306 638 241 1216 
z
" transform="scale(0.015625)"/>
       </defs>
       <use xlink:href="#Arial-BoldMT-33"/>
      </g>
     </g>
    </g>
    <g id="xtick_5">
     <g id="line2d_5">
      <g>
       <use xlink:href="#m737cac4e9d" x="701.454502" y="198.907885" style="stroke: #000000; stroke-width: 2"/>
      </g>
     </g>
     <g id="text_5">
      <!-- 4 -->
      <g transform="translate(696.449658 224.791947) scale(0.18 -0.18)">
       <defs>
        <path id="Arial-BoldMT-34" d="M 1994 0 
L 1994 922 
L 119 922 
L 119 1691 
L 2106 4600 
L 2844 4600 
L 2844 1694 
L 3413 1694 
L 3413 922 
L 2844 922 
L 2844 0 
L 1994 0 
z
M 1994 1694 
L 1994 3259 
L 941 1694 
L 1994 1694 
z
" transform="scale(0.015625)"/>
       </defs>
       <use xlink:href="#Arial-BoldMT-34"/>
      </g>
     </g>
    </g>
    <g id="xtick_6">
     <g id="line2d_6">
      <g>
       <use xlink:href="#m737cac4e9d" x="594" y="198.907885" style="stroke: #000000; stroke-width: 2"/>
      </g>
     </g>
     <g id="text_6">
      <!-- 5 -->
      <g transform="translate(588.995156 224.791947) scale(0.18 -0.18)">
       <defs>
        <path id="Arial-BoldMT-35" d="M 284 1178 
L 1159 1269 
Q 1197 972 1381 798 
Q 1566 625 1806 625 
Q 2081 625 2272 848 
Q 2463 1072 2463 1522 
Q 2463 1944 2273 2155 
Q 2084 2366 1781 2366 
Q 1403 2366 1103 2031 
L 391 2134 
L 841 4519 
L 3163 4519 
L 3163 3697 
L 1506 3697 
L 1369 2919 
Q 1663 3066 1969 3066 
Q 2553 3066 2959 2641 
Q 3366 2216 3366 1538 
Q 3366 972 3038 528 
Q 2591 -78 1797 -78 
Q 1163 -78 763 262 
Q 363 603 284 1178 
z
" transform="scale(0.015625)"/>
       </defs>
       <use xlink:href="#Arial-BoldMT-35"/>
      </g>
     </g>
    </g>
    <g id="xtick_7">
     <g id="line2d_7">
      <g>
       <use xlink:href="#m737cac4e9d" x="486.545498" y="198.907885" style="stroke: #000000; stroke-width: 2"/>
      </g>
     </g>
     <g id="text_7">
      <!-- 6 -->
      <g transform="translate(481.540654 224.791947) scale(0.18 -0.18)">
       <defs>
        <path id="Arial-BoldMT-36" d="M 3247 3459 
L 2397 3366 
Q 2366 3628 2234 3753 
Q 2103 3878 1894 3878 
Q 1616 3878 1423 3628 
Q 1231 3378 1181 2588 
Q 1509 2975 1997 2975 
Q 2547 2975 2939 2556 
Q 3331 2138 3331 1475 
Q 3331 772 2918 347 
Q 2506 -78 1859 -78 
Q 1166 -78 719 461 
Q 272 1000 272 2228 
Q 272 3488 737 4044 
Q 1203 4600 1947 4600 
Q 2469 4600 2811 4308 
Q 3153 4016 3247 3459 
z
M 1256 1544 
Q 1256 1116 1453 883 
Q 1650 650 1903 650 
Q 2147 650 2309 840 
Q 2472 1031 2472 1466 
Q 2472 1913 2297 2120 
Q 2122 2328 1859 2328 
Q 1606 2328 1431 2129 
Q 1256 1931 1256 1544 
z
" transform="scale(0.015625)"/>
       </defs>
       <use xlink:href="#Arial-BoldMT-36"/>
      </g>
     </g>
    </g>
    <g id="xtick_8">
     <g id="line2d_8">
      <g>
       <use xlink:href="#m737cac4e9d" x="379.090996" y="198.907885" style="stroke: #000000; stroke-width: 2"/>
      </g>
     </g>
     <g id="text_8">
      <!-- 7 -->
      <g transform="translate(374.086153 224.791947) scale(0.18 -0.18)">
       <defs>
        <path id="Arial-BoldMT-37" d="M 272 3703 
L 272 4519 
L 3275 4519 
L 3275 3881 
Q 2903 3516 2518 2831 
Q 2134 2147 1932 1376 
Q 1731 606 1734 0 
L 888 0 
Q 909 950 1279 1937 
Q 1650 2925 2269 3703 
L 272 3703 
z
" transform="scale(0.015625)"/>
       </defs>
       <use xlink:href="#Arial-BoldMT-37"/>
      </g>
     </g>
    </g>
    <g id="xtick_9">
     <g id="line2d_9">
      <g>
       <use xlink:href="#m737cac4e9d" x="271.636495" y="198.907885" style="stroke: #000000; stroke-width: 2"/>
      </g>
     </g>
     <g id="text_9">
      <!-- 8 -->
      <g transform="translate(266.631651 224.791947) scale(0.18 -0.18)">
       <defs>
        <path id="Arial-BoldMT-38" d="M 1025 2472 
Q 684 2616 529 2867 
Q 375 3119 375 3419 
Q 375 3931 733 4265 
Q 1091 4600 1750 4600 
Q 2403 4600 2764 4265 
Q 3125 3931 3125 3419 
Q 3125 3100 2959 2851 
Q 2794 2603 2494 2472 
Q 2875 2319 3073 2025 
Q 3272 1731 3272 1347 
Q 3272 713 2867 316 
Q 2463 -81 1791 -81 
Q 1166 -81 750 247 
Q 259 634 259 1309 
Q 259 1681 443 1992 
Q 628 2303 1025 2472 
z
M 1206 3356 
Q 1206 3094 1354 2947 
Q 1503 2800 1750 2800 
Q 2000 2800 2150 2948 
Q 2300 3097 2300 3359 
Q 2300 3606 2151 3754 
Q 2003 3903 1759 3903 
Q 1506 3903 1356 3753 
Q 1206 3603 1206 3356 
z
M 1125 1394 
Q 1125 1031 1311 828 
Q 1497 625 1775 625 
Q 2047 625 2225 820 
Q 2403 1016 2403 1384 
Q 2403 1706 2222 1901 
Q 2041 2097 1763 2097 
Q 1441 2097 1283 1875 
Q 1125 1653 1125 1394 
z
" transform="scale(0.015625)"/>
       </defs>
       <use xlink:href="#Arial-BoldMT-38"/>
      </g>
     </g>
    </g>
    <g id="xtick_10">
     <g id="line2d_10">
      <g>
       <use xlink:href="#m737cac4e9d" x="164.181993" y="198.907885" style="stroke: #000000; stroke-width: 2"/>
      </g>
     </g>
     <g id="text_10">
      <!-- 9 -->
      <g transform="translate(159.177149 224.791947) scale(0.18 -0.18)">
       <defs>
        <path id="Arial-BoldMT-39" d="M 291 1059 
L 1141 1153 
Q 1172 894 1303 769 
Q 1434 644 1650 644 
Q 1922 644 2112 894 
Q 2303 1144 2356 1931 
Q 2025 1547 1528 1547 
Q 988 1547 595 1964 
Q 203 2381 203 3050 
Q 203 3747 617 4173 
Q 1031 4600 1672 4600 
Q 2369 4600 2816 4061 
Q 3263 3522 3263 2288 
Q 3263 1031 2797 475 
Q 2331 -81 1584 -81 
Q 1047 -81 715 205 
Q 384 491 291 1059 
z
M 2278 2978 
Q 2278 3403 2083 3637 
Q 1888 3872 1631 3872 
Q 1388 3872 1227 3680 
Q 1066 3488 1066 3050 
Q 1066 2606 1241 2398 
Q 1416 2191 1678 2191 
Q 1931 2191 2104 2391 
Q 2278 2591 2278 2978 
z
" transform="scale(0.015625)"/>
       </defs>
       <use xlink:href="#Arial-BoldMT-39"/>
      </g>
     </g>
    </g>
    <g id="xtick_11">
     <g id="line2d_11">
      <g>
       <use xlink:href="#m737cac4e9d" x="56.727491" y="198.907885" style="stroke: #000000; stroke-width: 2"/>
      </g>
     </g>
     <g id="text_11">
      <!-- 10 -->
      <g transform="translate(46.717803 224.791947) scale(0.18 -0.18)">
       <use xlink:href="#Arial-BoldMT-31"/>
       <use xlink:href="#Arial-BoldMT-30" x="55.615234"/>
      </g>
     </g>
    </g>
    <g id="text_12">
     <!-- Chemical Shift / ppm -->
     <g transform="translate(504.992813 245.447573) scale(0.18 -0.18)">
      <defs>
       <path id="Arial-BoldMT-43" d="M 3397 1684 
L 4294 1400 
Q 4088 650 3608 286 
Q 3128 -78 2391 -78 
Q 1478 -78 890 545 
Q 303 1169 303 2250 
Q 303 3394 893 4026 
Q 1484 4659 2447 4659 
Q 3288 4659 3813 4163 
Q 4125 3869 4281 3319 
L 3366 3100 
Q 3284 3456 3026 3662 
Q 2769 3869 2400 3869 
Q 1891 3869 1573 3503 
Q 1256 3138 1256 2319 
Q 1256 1450 1568 1081 
Q 1881 713 2381 713 
Q 2750 713 3015 947 
Q 3281 1181 3397 1684 
z
" transform="scale(0.015625)"/>
       <path id="Arial-BoldMT-68" d="M 1334 4581 
L 1334 2897 
Q 1759 3394 2350 3394 
Q 2653 3394 2897 3281 
Q 3141 3169 3264 2994 
Q 3388 2819 3433 2606 
Q 3478 2394 3478 1947 
L 3478 0 
L 2600 0 
L 2600 1753 
Q 2600 2275 2550 2415 
Q 2500 2556 2373 2639 
Q 2247 2722 2056 2722 
Q 1838 2722 1666 2615 
Q 1494 2509 1414 2295 
Q 1334 2081 1334 1663 
L 1334 0 
L 456 0 
L 456 4581 
L 1334 4581 
z
" transform="scale(0.015625)"/>
       <path id="Arial-BoldMT-65" d="M 2381 1056 
L 3256 909 
Q 3088 428 2723 176 
Q 2359 -75 1813 -75 
Q 947 -75 531 491 
Q 203 944 203 1634 
Q 203 2459 634 2926 
Q 1066 3394 1725 3394 
Q 2466 3394 2894 2905 
Q 3322 2416 3303 1406 
L 1103 1406 
Q 1113 1016 1316 798 
Q 1519 581 1822 581 
Q 2028 581 2168 693 
Q 2309 806 2381 1056 
z
M 2431 1944 
Q 2422 2325 2234 2523 
Q 2047 2722 1778 2722 
Q 1491 2722 1303 2513 
Q 1116 2303 1119 1944 
L 2431 1944 
z
" transform="scale(0.015625)"/>
       <path id="Arial-BoldMT-6d" d="M 394 3319 
L 1203 3319 
L 1203 2866 
Q 1638 3394 2238 3394 
Q 2556 3394 2790 3262 
Q 3025 3131 3175 2866 
Q 3394 3131 3647 3262 
Q 3900 3394 4188 3394 
Q 4553 3394 4806 3245 
Q 5059 3097 5184 2809 
Q 5275 2597 5275 2122 
L 5275 0 
L 4397 0 
L 4397 1897 
Q 4397 2391 4306 2534 
Q 4184 2722 3931 2722 
Q 3747 2722 3584 2609 
Q 3422 2497 3350 2280 
Q 3278 2063 3278 1594 
L 3278 0 
L 2400 0 
L 2400 1819 
Q 2400 2303 2353 2443 
Q 2306 2584 2207 2653 
Q 2109 2722 1941 2722 
Q 1738 2722 1575 2612 
Q 1413 2503 1342 2297 
Q 1272 2091 1272 1613 
L 1272 0 
L 394 0 
L 394 3319 
z
" transform="scale(0.015625)"/>
       <path id="Arial-BoldMT-69" d="M 459 3769 
L 459 4581 
L 1338 4581 
L 1338 3769 
L 459 3769 
z
M 459 0 
L 459 3319 
L 1338 3319 
L 1338 0 
L 459 0 
z
" transform="scale(0.015625)"/>
       <path id="Arial-BoldMT-63" d="M 3353 2338 
L 2488 2181 
Q 2444 2441 2289 2572 
Q 2134 2703 1888 2703 
Q 1559 2703 1364 2476 
Q 1169 2250 1169 1719 
Q 1169 1128 1367 884 
Q 1566 641 1900 641 
Q 2150 641 2309 783 
Q 2469 925 2534 1272 
L 3397 1125 
Q 3263 531 2881 228 
Q 2500 -75 1859 -75 
Q 1131 -75 698 384 
Q 266 844 266 1656 
Q 266 2478 700 2936 
Q 1134 3394 1875 3394 
Q 2481 3394 2839 3133 
Q 3197 2872 3353 2338 
z
" transform="scale(0.015625)"/>
       <path id="Arial-BoldMT-61" d="M 1116 2306 
L 319 2450 
Q 453 2931 781 3162 
Q 1109 3394 1756 3394 
Q 2344 3394 2631 3255 
Q 2919 3116 3036 2902 
Q 3153 2688 3153 2116 
L 3144 1091 
Q 3144 653 3186 445 
Q 3228 238 3344 0 
L 2475 0 
Q 2441 88 2391 259 
Q 2369 338 2359 363 
Q 2134 144 1878 34 
Q 1622 -75 1331 -75 
Q 819 -75 523 203 
Q 228 481 228 906 
Q 228 1188 362 1408 
Q 497 1628 739 1745 
Q 981 1863 1438 1950 
Q 2053 2066 2291 2166 
L 2291 2253 
Q 2291 2506 2166 2614 
Q 2041 2722 1694 2722 
Q 1459 2722 1328 2630 
Q 1197 2538 1116 2306 
z
M 2291 1594 
Q 2122 1538 1756 1459 
Q 1391 1381 1278 1306 
Q 1106 1184 1106 997 
Q 1106 813 1243 678 
Q 1381 544 1594 544 
Q 1831 544 2047 700 
Q 2206 819 2256 991 
Q 2291 1103 2291 1419 
L 2291 1594 
z
" transform="scale(0.015625)"/>
       <path id="Arial-BoldMT-6c" d="M 459 0 
L 459 4581 
L 1338 4581 
L 1338 0 
L 459 0 
z
" transform="scale(0.015625)"/>
       <path id="Arial-BoldMT-20" transform="scale(0.015625)"/>
       <path id="Arial-BoldMT-53" d="M 231 1491 
L 1131 1578 
Q 1213 1125 1461 912 
Q 1709 700 2131 700 
Q 2578 700 2804 889 
Q 3031 1078 3031 1331 
Q 3031 1494 2936 1608 
Q 2841 1722 2603 1806 
Q 2441 1863 1863 2006 
Q 1119 2191 819 2459 
Q 397 2838 397 3381 
Q 397 3731 595 4036 
Q 794 4341 1167 4500 
Q 1541 4659 2069 4659 
Q 2931 4659 3367 4281 
Q 3803 3903 3825 3272 
L 2900 3231 
Q 2841 3584 2645 3739 
Q 2450 3894 2059 3894 
Q 1656 3894 1428 3728 
Q 1281 3622 1281 3444 
Q 1281 3281 1419 3166 
Q 1594 3019 2269 2859 
Q 2944 2700 3267 2529 
Q 3591 2359 3773 2064 
Q 3956 1769 3956 1334 
Q 3956 941 3737 597 
Q 3519 253 3119 86 
Q 2719 -81 2122 -81 
Q 1253 -81 787 320 
Q 322 722 231 1491 
z
" transform="scale(0.015625)"/>
       <path id="Arial-BoldMT-66" d="M 75 3319 
L 563 3319 
L 563 3569 
Q 563 3988 652 4194 
Q 741 4400 980 4529 
Q 1219 4659 1584 4659 
Q 1959 4659 2319 4547 
L 2200 3934 
Q 1991 3984 1797 3984 
Q 1606 3984 1523 3895 
Q 1441 3806 1441 3553 
L 1441 3319 
L 2097 3319 
L 2097 2628 
L 1441 2628 
L 1441 0 
L 563 0 
L 563 2628 
L 75 2628 
L 75 3319 
z
" transform="scale(0.015625)"/>
       <path id="Arial-BoldMT-74" d="M 1981 3319 
L 1981 2619 
L 1381 2619 
L 1381 1281 
Q 1381 875 1398 808 
Q 1416 741 1477 697 
Q 1538 653 1625 653 
Q 1747 653 1978 738 
L 2053 56 
Q 1747 -75 1359 -75 
Q 1122 -75 931 4 
Q 741 84 652 211 
Q 563 338 528 553 
Q 500 706 500 1172 
L 500 2619 
L 97 2619 
L 97 3319 
L 500 3319 
L 500 3978 
L 1381 4491 
L 1381 3319 
L 1981 3319 
z
" transform="scale(0.015625)"/>
       <path id="Arial-BoldMT-2f" d="M -9 -78 
L 1125 4659 
L 1784 4659 
L 638 -78 
L -9 -78 
z
" transform="scale(0.015625)"/>
       <path id="Arial-BoldMT-70" d="M 434 3319 
L 1253 3319 
L 1253 2831 
Q 1413 3081 1684 3237 
Q 1956 3394 2288 3394 
Q 2866 3394 3269 2941 
Q 3672 2488 3672 1678 
Q 3672 847 3265 386 
Q 2859 -75 2281 -75 
Q 2006 -75 1782 34 
Q 1559 144 1313 409 
L 1313 -1263 
L 434 -1263 
L 434 3319 
z
M 1303 1716 
Q 1303 1156 1525 889 
Q 1747 622 2066 622 
Q 2372 622 2575 867 
Q 2778 1113 2778 1672 
Q 2778 2194 2568 2447 
Q 2359 2700 2050 2700 
Q 1728 2700 1515 2451 
Q 1303 2203 1303 1716 
z
" transform="scale(0.015625)"/>
      </defs>
      <use xlink:href="#Arial-BoldMT-43"/>
      <use xlink:href="#Arial-BoldMT-68" x="72.216797"/>
      <use xlink:href="#Arial-BoldMT-65" x="133.300781"/>
      <use xlink:href="#Arial-BoldMT-6d" x="188.916016"/>
      <use xlink:href="#Arial-BoldMT-69" x="277.832031"/>
      <use xlink:href="#Arial-BoldMT-63" x="305.615234"/>
      <use xlink:href="#Arial-BoldMT-61" x="361.230469"/>
      <use xlink:href="#Arial-BoldMT-6c" x="416.845703"/>
      <use xlink:href="#Arial-BoldMT-20" x="444.628906"/>
      <use xlink:href="#Arial-BoldMT-53" x="472.412109"/>
      <use xlink:href="#Arial-BoldMT-68" x="539.111328"/>
      <use xlink:href="#Arial-BoldMT-69" x="600.195312"/>
      <use xlink:href="#Arial-BoldMT-66" x="627.978516"/>
      <use xlink:href="#Arial-BoldMT-74" x="661.279297"/>
      <use xlink:href="#Arial-BoldMT-20" x="694.580078"/>
      <use xlink:href="#Arial-BoldMT-2f" x="722.363281"/>
      <use xlink:href="#Arial-BoldMT-20" x="750.146484"/>
      <use xlink:href="#Arial-BoldMT-70" x="777.929688"/>
      <use xlink:href="#Arial-BoldMT-70" x="839.013672"/>
      <use xlink:href="#Arial-BoldMT-6d" x="900.097656"/>
     </g>
    </g>
   </g>
   <g id="matplotlib.axis_2"/>
   <g id="line2d_12">
    <path d="M 3.054279 172.593064 
L 4.281998 175.617805 
L 4.486617 175.654773 
L 4.895857 175.388629 
L 5.305096 174.670447 
L 6.123575 172.72051 
L 6.532815 171.363091 
L 6.737434 171.033056 
L 6.942054 171.052655 
L 7.146674 171.469675 
L 7.555913 173.364405 
L 7.965153 175.211391 
L 8.374392 175.888495 
L 8.579012 175.878393 
L 8.783632 175.678385 
L 10.01135 173.359719 
L 10.625209 172.651161 
L 10.829829 172.705162 
L 11.239068 173.120329 
L 11.443688 173.171664 
L 11.648308 173.085438 
L 12.057547 172.502979 
L 12.876026 170.891285 
L 13.080646 170.925027 
L 13.694505 171.569693 
L 13.899125 171.922779 
L 14.308364 173.307612 
L 14.922223 175.632929 
L 15.126843 175.835701 
L 15.331463 175.531831 
L 15.740702 173.709298 
L 16.354561 170.834016 
L 16.559181 170.627259 
L 16.763801 170.830087 
L 17.17304 172.10901 
L 17.991519 175.244656 
L 18.196139 175.481366 
L 18.400759 175.311788 
L 18.809998 174.04423 
L 19.628477 171.162368 
L 20.037717 170.257646 
L 20.242336 170.28196 
L 20.446956 170.703259 
L 21.674674 174.962967 
L 22.697773 179.1626 
L 22.902393 179.55518 
L 23.516252 179.678544 
L 24.334731 180.738616 
L 24.539351 180.402155 
L 25.357829 177.809095 
L 25.971689 175.645051 
L 26.176308 175.276812 
L 26.994787 174.655632 
L 27.404027 174.043023 
L 27.608646 174.009211 
L 28.017886 174.53419 
L 28.427125 175.209722 
L 28.631745 175.298516 
L 28.836365 175.146027 
L 29.245604 174.482954 
L 29.654844 173.486337 
L 30.268703 171.785709 
L 30.473323 171.571629 
L 30.677942 171.571994 
L 31.087182 171.766165 
L 31.701041 171.559816 
L 32.3149 171.966285 
L 32.51952 171.67514 
L 32.928759 170.698138 
L 33.747238 169.826723 
L 33.951858 169.717094 
L 34.156478 169.80861 
L 35.384196 171.222148 
L 35.588816 171.201749 
L 35.793436 170.924423 
L 36.407295 169.116664 
L 36.816534 168.099185 
L 37.021154 167.861844 
L 37.225774 167.869589 
L 37.430393 168.103562 
L 37.839633 169.071853 
L 38.658112 171.756204 
L 39.271971 172.816403 
L 39.68121 173.11107 
L 41.318168 172.576818 
L 41.522788 172.876605 
L 42.136647 174.325905 
L 42.341267 174.32735 
L 42.545887 174.016226 
L 42.955126 172.564948 
L 43.568985 170.082667 
L 43.773605 169.678456 
L 43.978225 169.607564 
L 44.182844 169.808582 
L 45.205943 171.622178 
L 46.024422 172.11451 
L 46.229042 172.414465 
L 46.638281 173.628725 
L 47.04752 175.178871 
L 47.25214 175.619629 
L 47.45676 175.771753 
L 48.070619 175.650663 
L 48.684478 175.418274 
L 48.889098 175.203395 
L 49.298337 174.203215 
L 50.526056 169.451974 
L 51.139915 168.846493 
L 51.344535 168.828703 
L 51.549154 169.033552 
L 52.163014 170.168024 
L 52.367633 170.206101 
L 52.572253 169.955235 
L 53.186112 168.557368 
L 53.390732 168.493659 
L 53.595352 168.832407 
L 54.209211 170.257941 
L 54.82307 171.026405 
L 55.846169 171.643461 
L 56.050788 171.43829 
L 56.664648 170.256201 
L 56.869267 170.134072 
L 57.278507 170.300002 
L 58.301605 171.12648 
L 58.506225 171.010047 
L 58.915465 170.004914 
L 59.324704 169.005829 
L 59.529324 169.09524 
L 59.938563 170.510294 
L 60.347803 171.880199 
L 60.552422 171.898297 
L 61.166282 170.823802 
L 61.370901 170.723153 
L 63.212479 171.242604 
L 63.417099 171.350773 
L 64.030958 172.048893 
L 64.235578 171.7251 
L 64.849437 169.444146 
L 65.054056 169.26305 
L 65.258676 169.583068 
L 65.667916 171.214727 
L 66.077155 172.860625 
L 66.486395 173.576366 
L 66.691014 173.57899 
L 66.895634 173.341101 
L 68.123352 170.916763 
L 68.327972 171.155984 
L 69.146451 172.784794 
L 69.55569 172.380962 
L 69.96493 172.11479 
L 70.374169 172.091838 
L 70.988029 171.622304 
L 71.601888 172.031889 
L 71.806507 171.717384 
L 72.215747 170.220004 
L 73.034226 166.972864 
L 73.238846 166.723079 
L 73.443465 166.899937 
L 73.852705 168.31398 
L 74.261944 169.913988 
L 74.466564 170.236152 
L 74.875803 170.231116 
L 75.898902 169.995739 
L 76.308141 170.519146 
L 76.717381 171.174489 
L 76.922001 171.174153 
L 77.12662 170.858091 
L 77.74048 169.065946 
L 78.558958 166.587397 
L 78.968198 165.849601 
L 79.172818 165.761873 
L 79.582057 165.980513 
L 80.400536 166.861103 
L 81.628254 169.783609 
L 81.832874 169.806688 
L 82.242114 169.060376 
L 83.674452 165.851187 
L 84.083691 165.441111 
L 84.49293 164.08995 
L 85.10679 161.744023 
L 85.720649 160.539557 
L 86.129888 159.639731 
L 87.357607 156.157972 
L 87.562226 156.037583 
L 87.766846 156.096115 
L 88.176086 156.587366 
L 88.994564 158.30657 
L 89.199184 159.107471 
L 89.608424 162.121185 
L 90.426903 168.601758 
L 90.836142 170.732609 
L 91.450001 172.356719 
L 91.859241 172.96756 
L 92.26848 173.260865 
L 92.4731 173.50762 
L 92.67772 173.579425 
L 92.882339 173.290342 
L 93.905438 170.543404 
L 94.110058 170.681134 
L 94.519297 171.205621 
L 94.723917 171.261403 
L 95.337776 171.012235 
L 95.747015 171.153978 
L 95.951635 171.033897 
L 96.770114 170.166579 
L 97.179354 170.309949 
L 98.202452 171.089483 
L 98.816311 172.08154 
L 99.020931 172.17864 
L 99.63479 171.770725 
L 99.83941 171.914614 
L 100.248649 172.520628 
L 100.453269 172.595589 
L 100.657889 172.435272 
L 101.067128 171.601807 
L 101.476368 170.788924 
L 101.680988 170.81342 
L 102.090227 171.840186 
L 102.499466 172.765391 
L 102.704086 172.766654 
L 103.522565 171.291062 
L 103.727185 171.326487 
L 104.136424 171.909998 
L 104.545664 173.1564 
L 105.773382 177.476212 
L 105.978002 177.719712 
L 106.182622 177.600642 
L 106.591861 176.430183 
L 107.819579 171.614784 
L 108.228819 170.667847 
L 109.047298 169.243156 
L 109.251917 169.276673 
L 109.456537 169.717066 
L 110.070396 171.860108 
L 110.275016 172.125747 
L 110.479636 172.096369 
L 110.888875 171.478738 
L 111.911974 169.652726 
L 112.116594 169.745813 
L 112.321213 170.382455 
L 113.344312 176.008589 
L 113.548932 176.266245 
L 113.753551 176.097313 
L 114.162791 175.142898 
L 114.98127 172.755248 
L 115.18589 172.543413 
L 115.390509 172.597596 
L 115.799749 173.247074 
L 116.822847 175.704298 
L 117.436707 177.111368 
L 117.641326 177.304993 
L 117.845946 177.241592 
L 118.459805 176.449347 
L 118.664425 176.435893 
L 119.073664 177.014956 
L 119.482904 177.472592 
L 119.892143 177.349397 
L 120.506002 177.061577 
L 121.119862 176.824166 
L 121.529101 176.086959 
L 122.14296 174.737495 
L 122.5522 174.373816 
L 123.370679 173.91054 
L 123.984538 173.086953 
L 124.189157 173.102764 
L 124.598397 173.787387 
L 125.007636 174.613725 
L 125.212256 174.811628 
L 125.416876 174.819106 
L 125.621496 174.585034 
L 126.439974 172.502179 
L 127.463073 169.548794 
L 127.667693 169.690199 
L 128.076932 170.36712 
L 130.12313 174.880654 
L 130.736989 175.031993 
L 131.146228 175.557772 
L 131.964707 177.120993 
L 132.169327 176.916776 
L 132.578566 175.491215 
L 132.987806 173.817706 
L 133.192425 173.502022 
L 133.397045 173.636413 
L 134.215524 175.335274 
L 134.420144 175.361271 
L 134.624764 175.109465 
L 135.034003 173.868381 
L 135.647862 171.690475 
L 136.057102 171.345371 
L 136.466341 171.05706 
L 136.875581 170.2077 
L 137.28482 169.470157 
L 137.694059 169.45666 
L 138.103299 169.393709 
L 138.512538 169.335205 
L 138.921778 169.426286 
L 139.331017 169.192368 
L 139.740257 169.038209 
L 139.944876 169.142703 
L 140.354116 169.76488 
L 141.377215 171.553152 
L 141.991074 173.233858 
L 142.195693 173.368095 
L 142.604933 173.135341 
L 143.014172 172.579217 
L 143.628032 171.356707 
L 143.832651 171.314254 
L 144.44651 171.83174 
L 144.65113 171.425397 
L 145.469609 168.400305 
L 145.878849 168.173038 
L 146.288088 168.26475 
L 146.901947 168.940647 
L 147.106567 168.794934 
L 147.515806 167.761125 
L 147.925046 166.860317 
L 148.129666 166.805026 
L 148.538905 167.064773 
L 149.152764 167.097448 
L 149.562004 168.021026 
L 150.175863 169.326605 
L 151.403581 170.92873 
L 152.42668 170.579039 
L 153.040539 170.15645 
L 153.449778 170.036832 
L 153.859018 170.199619 
L 154.677497 170.87076 
L 154.882117 170.864025 
L 155.086736 170.641415 
L 155.495976 169.897334 
L 155.700595 169.825095 
L 155.905215 170.084295 
L 156.723694 171.914291 
L 156.928314 172.047265 
L 157.132934 171.874236 
L 157.542173 171.111903 
L 157.746793 170.974159 
L 157.951412 171.105182 
L 158.565272 172.012752 
L 159.383751 172.30697 
L 159.99761 172.959885 
L 160.202229 173.01 
L 160.611469 172.636486 
L 161.020708 172.029321 
L 161.429948 170.74372 
L 162.862286 164.453586 
L 163.066906 163.912838 
L 163.271525 163.716057 
L 163.476145 163.847867 
L 164.499244 165.455071 
L 164.908483 166.110077 
L 165.726962 168.483684 
L 166.545441 171.392245 
L 166.750061 171.635001 
L 167.1593 171.510473 
L 168.182399 171.287148 
L 168.796258 171.14758 
L 169.205497 170.964436 
L 169.410117 171.006315 
L 169.819357 171.545001 
L 170.228596 172.322276 
L 170.433216 172.516265 
L 170.637835 172.521947 
L 170.842455 172.312638 
L 171.456314 171.157457 
L 171.660934 171.006385 
L 172.274793 171.034192 
L 172.479413 170.778584 
L 172.888652 169.915517 
L 173.093272 169.764557 
L 173.502512 170.177536 
L 174.116371 171.069112 
L 174.52561 171.892194 
L 174.73023 172.092104 
L 174.93485 172.055823 
L 175.344089 171.432735 
L 176.162568 169.654943 
L 176.981047 168.742126 
L 177.390286 168.135677 
L 178.004146 167.682053 
L 179.231864 165.741811 
L 179.436484 165.864262 
L 180.050343 166.857974 
L 180.459582 166.946642 
L 180.868822 166.972415 
L 181.89192 167.506962 
L 182.50578 168.91291 
L 182.710399 168.986426 
L 183.733498 168.504897 
L 184.142737 168.133235 
L 184.551977 168.267289 
L 184.961216 168.336695 
L 185.165836 168.219574 
L 185.370456 167.911369 
L 185.779695 166.555367 
L 186.188935 165.018185 
L 186.598174 164.190318 
L 187.007414 163.696303 
L 187.212033 163.639946 
L 187.416653 163.791621 
L 187.825893 164.774994 
L 188.030512 165.277356 
L 188.235132 165.453514 
L 188.439752 165.275729 
L 189.258231 163.868139 
L 189.66747 163.526978 
L 189.87209 163.09092 
L 190.690569 160.116153 
L 190.895188 159.991653 
L 191.099808 160.186077 
L 191.509048 161.052035 
L 192.122907 162.504435 
L 192.327527 162.653515 
L 192.532146 162.559446 
L 193.350625 161.363902 
L 193.555245 161.419361 
L 193.964484 161.962873 
L 194.782963 163.688278 
L 194.987583 163.667556 
L 195.192203 163.116146 
L 195.601442 160.721031 
L 196.010682 158.389429 
L 196.419921 157.583435 
L 196.624541 157.313433 
L 196.829161 156.799453 
L 197.2384 154.833986 
L 197.852259 152.012999 
L 198.670738 149.160178 
L 199.489217 146.136714 
L 199.898456 145.308721 
L 200.716935 144.276567 
L 201.330794 142.557826 
L 201.944654 140.530193 
L 202.353893 138.184182 
L 202.967752 133.157188 
L 203.581611 125.702333 
L 204.40009 114.870409 
L 204.80933 112.269632 
L 205.01395 112.45512 
L 205.218569 113.593969 
L 205.627809 118.725177 
L 206.241668 132.200584 
L 207.060147 151.204802 
L 207.469386 157.367728 
L 208.287865 165.238368 
L 208.901724 168.939145 
L 209.515584 171.539824 
L 209.924823 172.513796 
L 210.334062 173.306238 
L 210.947922 174.921677 
L 211.357161 175.551991 
L 211.766401 175.756587 
L 212.17564 175.762522 
L 212.584879 176.155579 
L 213.198739 177.074358 
L 213.403358 176.992242 
L 214.221837 175.681949 
L 215.449556 173.88944 
L 215.654175 173.821634 
L 216.063415 174.025107 
L 216.677274 174.639034 
L 216.881894 174.400164 
L 218.518852 169.603692 
L 218.928091 168.777341 
L 219.132711 168.711555 
L 219.74657 168.976016 
L 220.360429 168.953484 
L 221.383528 169.601265 
L 221.997387 170.298318 
L 222.611246 171.437561 
L 223.225105 172.061407 
L 224.043584 173.466205 
L 224.248204 173.589807 
L 224.452824 173.487361 
L 224.862063 172.478202 
L 225.271303 171.168428 
L 225.475922 170.891762 
L 225.680542 171.004926 
L 226.089781 171.8786 
L 226.499021 172.876086 
L 226.703641 173.149217 
L 226.90826 173.188738 
L 227.3175 172.878681 
L 227.726739 172.405599 
L 228.135979 171.232362 
L 228.545218 170.057498 
L 228.749838 169.79632 
L 229.159077 169.770365 
L 229.568317 169.879545 
L 229.772937 169.77146 
L 230.386796 169.079737 
L 230.591415 169.087356 
L 231.205275 169.351143 
L 231.409894 169.180709 
L 232.228373 167.653474 
L 232.637613 168.150871 
L 233.046852 168.547533 
L 233.456092 168.72139 
L 233.660711 168.963136 
L 234.274571 170.471389 
L 234.68381 171.309203 
L 234.88843 171.307183 
L 235.297669 170.38794 
L 235.706909 169.602261 
L 236.116148 169.369943 
L 236.320768 169.355702 
L 236.525388 169.464236 
L 236.934627 170.177677 
L 237.343866 171.00689 
L 237.548486 171.143413 
L 238.162345 170.985439 
L 238.571585 171.679195 
L 238.980824 172.34687 
L 239.390064 172.609914 
L 239.594683 172.657011 
L 239.799303 172.56934 
L 240.617782 171.532037 
L 240.822402 171.616286 
L 241.640881 173.146172 
L 242.868599 172.96314 
L 243.277838 172.241731 
L 244.096317 170.013501 
L 244.710177 168.412161 
L 244.914796 168.143702 
L 245.119416 168.09412 
L 245.528655 168.534163 
L 246.347134 169.701732 
L 246.551754 169.841286 
L 246.756374 169.823762 
L 247.574853 169.328358 
L 247.984092 169.14123 
L 248.393332 168.668344 
L 248.597951 168.698199 
L 249.211811 169.427801 
L 249.41643 169.337716 
L 249.82567 168.523248 
L 251.053388 165.034993 
L 252.281106 162.78778 
L 252.485726 162.770635 
L 253.304205 163.353136 
L 253.713445 163.275187 
L 253.918064 163.431338 
L 254.531923 164.68199 
L 254.736543 164.724697 
L 254.941163 164.401059 
L 255.555022 162.971583 
L 255.759642 162.991786 
L 255.964262 163.238036 
L 256.373501 164.287615 
L 256.98736 166.259255 
L 257.601219 167.355329 
L 258.010459 167.452456 
L 258.419698 167.173195 
L 259.033557 166.179384 
L 259.238177 166.183046 
L 260.056656 167.077245 
L 260.465896 167.165366 
L 260.875135 167.525762 
L 261.488994 168.305156 
L 262.102853 168.632343 
L 262.307473 168.783345 
L 262.512093 168.760098 
L 262.716713 168.460619 
L 263.535191 166.606407 
L 263.739811 166.79268 
L 264.149051 167.956755 
L 264.55829 169.145916 
L 264.96753 169.626378 
L 265.376769 169.610945 
L 265.990628 169.363278 
L 266.399868 168.99511 
L 266.604487 168.63832 
L 267.013727 167.178834 
L 267.422966 165.536822 
L 267.627586 165.415942 
L 268.036825 166.55496 
L 268.446065 167.375251 
L 268.650685 167.20956 
L 269.059924 165.851621 
L 269.469164 164.623009 
L 270.696882 163.183124 
L 270.901502 163.140136 
L 271.310741 163.378235 
L 271.719981 163.940182 
L 272.33384 164.7433 
L 272.743079 165.037953 
L 272.947699 164.96403 
L 273.152319 164.595651 
L 273.561558 162.955716 
L 273.970798 161.443142 
L 274.175417 161.298706 
L 274.380037 161.59615 
L 274.993896 163.062748 
L 275.198516 163.231091 
L 275.403136 163.209037 
L 276.221615 162.570305 
L 276.426234 162.640243 
L 276.835474 163.536561 
L 277.244713 164.412409 
L 277.449333 164.398562 
L 278.063192 163.713167 
L 278.267812 163.850841 
L 279.29091 165.149419 
L 279.49553 165.207039 
L 279.70015 165.040787 
L 280.314009 164.025567 
L 280.518629 163.938386 
L 280.723248 164.094748 
L 281.337108 165.483453 
L 281.950967 166.853822 
L 282.155587 166.965667 
L 282.360206 166.549769 
L 283.178685 162.974656 
L 283.383305 162.692588 
L 283.792544 162.582483 
L 284.406404 162.440993 
L 284.815643 162.317882 
L 285.020263 162.380047 
L 285.429502 163.041592 
L 285.838742 164.249412 
L 286.657221 167.020677 
L 286.86184 167.18056 
L 287.06646 166.935334 
L 287.475699 165.434545 
L 288.089559 163.258688 
L 288.498798 162.453521 
L 288.908038 162.207622 
L 289.317277 162.251591 
L 289.726516 162.536956 
L 290.340376 163.204294 
L 291.363474 164.838576 
L 291.568094 164.732497 
L 292.591193 163.409844 
L 293.000432 162.13593 
L 293.205052 161.930338 
L 293.409672 162.126221 
L 293.818911 162.708484 
L 294.023531 162.675093 
L 294.43277 162.332908 
L 294.63739 162.352647 
L 294.84201 162.617389 
L 295.455869 163.896858 
L 295.660489 164.018707 
L 296.069728 163.699334 
L 296.683587 163.161588 
L 297.092827 163.081899 
L 297.297446 162.917162 
L 297.911306 161.642518 
L 298.729784 160.212832 
L 299.343644 159.86279 
L 299.957503 159.588551 
L 300.366742 159.559888 
L 300.571362 159.446388 
L 301.594461 158.106758 
L 302.20832 156.938811 
L 303.845278 155.384569 
L 304.049897 155.543582 
L 304.459137 156.57147 
L 305.072996 158.120704 
L 305.277616 158.330238 
L 305.686855 158.328372 
L 306.709954 158.071558 
L 307.937672 156.530363 
L 308.346912 155.264853 
L 309.165391 151.743852 
L 310.393109 145.60465 
L 310.802348 144.826659 
L 311.211588 144.82513 
L 311.620827 144.963842 
L 312.848546 146.023382 
L 313.257785 146.246623 
L 313.462405 146.063717 
L 314.485503 144.124345 
L 314.894743 142.611785 
L 315.508602 140.121184 
L 315.917841 139.6513 
L 316.327081 139.721827 
L 316.94094 140.305941 
L 317.14556 140.218901 
L 317.35018 139.835132 
L 317.759419 138.17763 
L 318.373278 133.5339 
L 318.987137 129.626506 
L 319.600997 127.291622 
L 320.214856 125.168586 
L 321.442574 119.090048 
L 322.056433 116.146497 
L 322.670292 113.611058 
L 323.079532 110.926397 
L 323.488771 107.077424 
L 324.102631 97.987628 
L 325.534969 69.846348 
L 326.353448 49.908831 
L 327.990405 3.072227 
L 328.195025 3.00024 
L 328.399645 5.258228 
L 328.808884 16.005398 
L 330.650462 83.627856 
L 331.059701 90.277951 
L 331.468941 93.821806 
L 331.87818 95.970502 
L 332.0828 96.472514 
L 332.28742 96.458976 
L 332.492039 95.976241 
L 332.901279 94.129843 
L 333.310518 91.39678 
L 333.719758 87.028706 
L 334.333617 75.879163 
L 336.175194 39.970068 
L 336.584434 35.832544 
L 336.789054 35.456253 
L 336.993673 36.201554 
L 337.402913 40.306697 
L 338.221392 50.597003 
L 338.426011 51.481957 
L 338.630631 51.292429 
L 338.835251 50.147491 
L 339.24449 45.630252 
L 339.85835 34.542804 
L 340.472209 23.661846 
L 340.676828 21.732547 
L 340.881448 21.292182 
L 341.086068 22.628739 
L 341.290688 25.894833 
L 341.699927 38.250583 
L 342.313786 67.712902 
L 343.541505 127.660028 
L 344.155364 145.510132 
L 344.769223 155.707056 
L 345.178462 159.577804 
L 345.792322 162.959981 
L 346.610801 165.899182 
L 347.02004 167.074117 
L 347.22466 167.3741 
L 347.429279 167.419332 
L 347.633899 167.261961 
L 348.043139 166.420934 
L 349.270857 162.400306 
L 349.475477 162.272243 
L 349.680096 162.670996 
L 350.498575 165.633305 
L 351.112435 167.163542 
L 352.135533 170.55697 
L 352.340153 170.734517 
L 352.544773 170.598344 
L 352.954012 169.619391 
L 353.363252 168.784496 
L 353.567871 168.794148 
L 354.38635 169.781351 
L 354.59097 169.635217 
L 354.79559 169.281976 
L 355.204829 167.836198 
L 355.818688 165.480858 
L 356.227928 164.700776 
L 356.432547 164.779399 
L 357.864885 167.284913 
L 358.274125 169.069061 
L 359.297224 175.163115 
L 360.115702 178.14066 
L 360.320322 178.212787 
L 360.524942 177.880885 
L 361.95728 174.152287 
L 362.366519 173.380202 
L 362.571139 173.316114 
L 363.184998 173.74151 
L 364.003477 173.382251 
L 364.208097 173.111884 
L 364.617336 171.82965 
L 365.231196 169.900337 
L 366.458914 167.217472 
L 367.482013 166.283569 
L 368.095872 164.621129 
L 368.709731 162.98306 
L 369.11897 162.485186 
L 370.551309 159.703132 
L 370.755928 159.066266 
L 371.165168 156.660924 
L 373.006745 142.221 
L 374.439083 134.609462 
L 374.643703 134.332459 
L 374.848323 134.360686 
L 375.257562 134.960121 
L 375.871421 136.027363 
L 376.076041 136.219276 
L 376.280661 136.257829 
L 376.485281 136.111064 
L 377.09914 135.202765 
L 378.122238 134.584138 
L 378.326858 134.765893 
L 378.531478 135.211141 
L 378.940717 137.188352 
L 380.168436 144.846708 
L 380.577675 146.398116 
L 380.986915 147.33251 
L 381.396154 147.755647 
L 381.600774 147.686214 
L 381.805394 147.443275 
L 382.010013 146.992808 
L 382.419253 145.2261 
L 383.033112 140.771294 
L 384.056211 130.421557 
L 384.67007 124.902372 
L 386.307028 115.823729 
L 386.511647 115.857148 
L 386.716267 116.488683 
L 387.943985 122.091233 
L 388.967084 126.301669 
L 389.376323 129.545064 
L 389.785563 135.218913 
L 391.422521 163.214564 
L 391.83176 166.103175 
L 392.650239 170.487972 
L 393.264098 173.799383 
L 393.877957 175.899438 
L 394.287197 176.716979 
L 394.491817 176.803233 
L 394.901056 176.533947 
L 395.514915 176.072705 
L 396.333394 175.772876 
L 396.947253 175.330181 
L 397.151873 175.495017 
L 397.765732 176.93458 
L 398.174972 177.683038 
L 398.584211 177.913617 
L 398.993451 177.805153 
L 399.40269 177.318952 
L 399.811929 176.121557 
L 400.835028 171.568234 
L 401.244268 170.868304 
L 402.062746 170.042276 
L 402.471986 169.942454 
L 403.699704 170.122273 
L 404.108944 169.661438 
L 404.518183 168.757025 
L 405.132042 166.685787 
L 405.541282 165.456488 
L 405.745902 165.239729 
L 405.950521 165.251977 
L 406.56438 165.727234 
L 406.769 165.644037 
L 407.17824 165.090284 
L 407.587479 164.272771 
L 407.996719 162.758682 
L 408.610578 158.984978 
L 409.633676 152.045744 
L 410.247536 148.114584 
L 410.861395 142.108931 
L 413.521451 112.027802 
L 413.930691 110.622443 
L 414.13531 110.513811 
L 414.33993 110.714282 
L 414.74917 111.861255 
L 415.363029 114.059925 
L 415.772268 117.046056 
L 416.181508 122.791808 
L 417.613846 145.813623 
L 418.227705 151.45519 
L 419.864663 162.33114 
L 420.069282 162.721054 
L 420.273902 162.729921 
L 420.683142 162.537433 
L 421.092381 162.489536 
L 421.297001 162.177416 
L 421.70624 160.791727 
L 422.729339 156.833083 
L 423.138578 153.602834 
L 423.957057 145.879226 
L 424.366297 143.887466 
L 424.570916 143.636194 
L 424.775536 143.910391 
L 425.184776 145.621191 
L 425.798635 148.070881 
L 426.207874 149.907191 
L 426.821733 154.702078 
L 427.844832 165.005053 
L 429.07255 176.308601 
L 429.68641 180.112666 
L 430.095649 181.665168 
L 430.504889 182.237427 
L 430.914128 182.748138 
L 431.323367 183.774764 
L 431.937227 185.422668 
L 432.346466 186.139532 
L 433.164945 188.368057 
L 433.369565 188.345834 
L 433.983424 187.490174 
L 434.597283 187.538352 
L 435.006522 187.591736 
L 435.211142 187.481223 
L 435.620382 186.827003 
L 436.234241 185.260737 
L 437.05272 182.00929 
L 437.257339 181.806293 
L 437.461959 181.87936 
L 438.280438 182.769421 
L 438.485058 182.676951 
L 439.098917 181.808861 
L 439.303537 181.819481 
L 439.712776 182.476971 
L 440.122016 183.147719 
L 441.349734 184.273787 
L 441.758973 184.051907 
L 441.963593 183.931546 
L 442.168213 183.971615 
L 443.395931 185.286383 
L 443.600551 185.317529 
L 444.41903 184.754432 
L 445.032889 184.875509 
L 445.237509 184.590551 
L 445.646748 183.018491 
L 446.055988 181.042108 
L 446.260607 180.495706 
L 446.465227 180.314105 
L 447.079086 180.31266 
L 447.488326 180.722412 
L 447.897565 181.061062 
L 448.102185 180.953552 
L 448.716044 180.167143 
L 448.920664 180.166722 
L 449.125284 180.408847 
L 449.534523 181.457584 
L 450.148382 183.264713 
L 450.353002 183.273579 
L 450.762241 182.352808 
L 451.171481 181.448928 
L 451.78534 180.512331 
L 452.19458 179.232847 
L 452.603819 177.872875 
L 453.013058 177.377386 
L 453.422298 177.389831 
L 453.831537 177.605355 
L 454.240777 178.199515 
L 455.263875 180.364864 
L 455.877735 181.092068 
L 456.491594 181.94631 
L 457.514692 182.684008 
L 457.923932 182.583064 
L 458.333171 182.324762 
L 458.537791 182.389608 
L 458.742411 182.682717 
L 459.56089 184.817089 
L 459.765509 184.871847 
L 460.379369 184.57871 
L 461.607087 182.902759 
L 462.220946 182.244035 
L 463.039425 181.130607 
L 463.244045 181.044465 
L 463.448665 181.086989 
L 463.857904 181.559132 
L 464.267143 181.939506 
L 464.881003 181.598948 
L 465.699482 182.154315 
L 466.108721 181.765453 
L 467.336439 180.207128 
L 468.564158 176.88953 
L 468.768777 176.784041 
L 468.973397 176.965277 
L 469.791876 178.27181 
L 470.201115 178.902306 
L 470.814975 180.477663 
L 471.019594 180.549538 
L 471.428834 180.046137 
L 472.042693 179.16657 
L 472.451932 178.99169 
L 472.656552 179.042099 
L 473.065792 179.462219 
L 473.475031 180.035783 
L 473.884271 181.068343 
L 474.49813 182.724596 
L 474.702749 182.867264 
L 474.907369 182.790185 
L 475.521228 182.294921 
L 475.725848 182.25495 
L 475.930468 182.099473 
L 476.135088 181.662699 
L 476.953566 178.859417 
L 477.158186 178.615777 
L 477.362806 178.604118 
L 477.772045 178.953613 
L 478.590524 180.059633 
L 478.999764 180.267554 
L 479.818243 181.412787 
L 480.022862 181.147429 
L 480.841341 179.131889 
L 481.045961 179.103437 
L 482.06906 180.20891 
L 482.273679 180.163355 
L 482.478299 179.921581 
L 482.887539 178.87015 
L 483.296778 177.75762 
L 483.501398 177.689464 
L 483.910637 178.267784 
L 484.933736 179.730369 
L 485.342975 179.955813 
L 485.956834 179.687396 
L 486.161454 179.549035 
L 486.366074 179.275301 
L 486.775313 178.060957 
L 487.389173 175.895229 
L 487.593792 175.600801 
L 487.798412 175.584793 
L 488.207651 176.026449 
L 488.616891 176.924605 
L 489.02613 178.010689 
L 489.23075 178.229987 
L 489.43537 178.003772 
L 489.844609 176.477645 
L 490.253849 175.020587 
L 491.072328 173.539089 
L 491.276947 173.39882 
L 491.686187 173.649784 
L 492.300046 174.029442 
L 493.118525 174.168042 
L 493.732384 174.612308 
L 494.141624 174.706924 
L 494.346243 174.895905 
L 494.755483 175.771893 
L 495.778581 178.385451 
L 496.187821 179.65785 
L 496.392441 179.844417 
L 496.59706 179.742842 
L 497.620159 178.280901 
L 498.029398 177.395906 
L 498.643258 176.036761 
L 499.052497 175.739106 
L 499.461736 175.442237 
L 500.484835 174.429627 
L 500.894075 174.418164 
L 501.098694 174.635485 
L 501.507934 175.728977 
L 501.917173 177.185558 
L 502.121793 177.571965 
L 502.326413 177.502363 
L 503.144892 175.832923 
L 503.349511 175.881774 
L 503.758751 176.530481 
L 504.16799 177.948705 
L 504.57723 179.745395 
L 504.781849 180.021024 
L 504.986469 179.801977 
L 506.009568 177.644877 
L 506.418807 177.442849 
L 506.828047 177.217083 
L 507.237286 176.996395 
L 507.646526 177.183537 
L 508.055765 177.756568 
L 508.465004 179.275133 
L 509.078864 181.956257 
L 509.488103 182.705431 
L 509.897342 182.880424 
L 510.101962 182.772311 
L 510.511202 182.090157 
L 511.329681 180.064123 
L 512.148159 178.850509 
L 512.352779 178.985882 
L 512.762019 180.16487 
L 513.375878 182.087337 
L 513.580498 182.475764 
L 513.785117 182.549701 
L 514.194357 181.947573 
L 514.603596 181.446024 
L 514.808216 181.463084 
L 515.012836 181.682074 
L 515.422075 182.726251 
L 515.831315 183.654922 
L 516.035934 183.757044 
L 516.240554 183.656142 
L 516.649793 183.055852 
L 517.059033 181.682228 
L 517.468272 180.257354 
L 517.877512 179.672805 
L 519.10523 178.9614 
L 519.30985 179.061951 
L 519.719089 179.791665 
L 520.128329 180.847824 
L 520.946808 183.548029 
L 521.151427 183.453819 
L 521.560667 182.474754 
L 522.174526 180.676661 
L 522.379146 180.419552 
L 522.583766 180.510016 
L 523.402244 181.872149 
L 523.606864 181.972714 
L 523.811484 181.861865 
L 524.220723 181.029397 
L 524.629963 179.511141 
L 525.243822 176.855073 
L 525.448442 176.548075 
L 525.653061 176.654574 
L 526.266921 177.584816 
L 526.47154 177.585419 
L 527.699259 176.940108 
L 528.108498 177.073166 
L 528.517738 177.539528 
L 528.926977 178.613392 
L 529.336217 179.701202 
L 529.540836 179.954873 
L 529.745456 180.021767 
L 530.154695 179.694341 
L 530.563935 179.11243 
L 531.177794 177.82095 
L 531.587034 177.519508 
L 531.996273 177.12255 
L 532.405512 176.556717 
L 532.610132 176.510349 
L 533.223991 176.989506 
L 533.633231 176.893936 
L 534.656329 176.527479 
L 535.065569 176.637458 
L 535.474808 177.246727 
L 535.884048 177.88755 
L 536.497907 178.102345 
L 536.702527 178.011222 
L 536.907146 177.648371 
L 538.134865 174.153956 
L 538.544104 174.165334 
L 538.953344 174.439798 
L 539.157963 174.781015 
L 539.567203 176.496487 
L 540.181062 179.538639 
L 540.385682 179.604916 
L 540.794921 178.350475 
L 541.204161 177.172033 
L 542.02264 175.894724 
L 542.227259 175.674836 
L 542.431879 175.659459 
L 543.045738 176.084364 
L 543.454978 175.4928 
L 543.864217 174.947731 
L 544.273457 174.879434 
L 544.887316 175.227245 
L 545.296555 175.341756 
L 545.501175 175.110041 
L 545.910414 173.82176 
L 546.319654 172.508156 
L 546.524274 172.285027 
L 546.933513 172.42785 
L 547.342752 172.703773 
L 548.161231 173.936888 
L 548.365851 173.950329 
L 548.570471 173.717631 
L 549.18433 172.669344 
L 549.38895 172.703562 
L 549.593569 172.966157 
L 550.002809 174.012943 
L 550.616668 175.643718 
L 550.821288 175.825066 
L 551.230527 175.752518 
L 552.662865 175.140205 
L 552.867485 175.370713 
L 553.481344 177.147551 
L 555.322922 182.072283 
L 555.732161 182.253856 
L 555.936781 182.147567 
L 556.34602 181.349275 
L 556.75526 180.341715 
L 557.164499 179.986089 
L 557.369119 179.942148 
L 557.573739 179.77511 
L 557.982978 178.816192 
L 558.392218 177.888882 
L 558.596837 177.823518 
L 559.006077 178.419501 
L 559.415316 178.845191 
L 559.619936 178.705624 
L 560.029176 177.553951 
L 560.438415 176.096906 
L 560.847654 175.348799 
L 561.870753 174.158754 
L 562.075373 174.374405 
L 562.689232 175.752392 
L 563.098471 177.1668 
L 563.712331 179.782967 
L 563.91695 180.214143 
L 564.12157 180.182127 
L 564.32619 179.728854 
L 565.144669 177.053327 
L 565.349288 177.156614 
L 565.758528 178.465252 
L 566.167767 179.62857 
L 566.372387 179.695071 
L 566.577007 179.337691 
L 567.600105 175.952667 
L 567.804725 175.722537 
L 568.213965 175.712534 
L 568.623204 176.015913 
L 569.032444 176.561922 
L 570.260162 178.802499 
L 570.669401 179.730243 
L 570.874021 179.818897 
L 571.078641 179.515532 
L 571.89712 176.962878 
L 572.306359 176.300758 
L 572.715599 174.983955 
L 573.124838 173.603275 
L 573.329458 173.237843 
L 573.534078 173.270139 
L 573.943317 174.393205 
L 575.171035 178.290975 
L 576.603373 182.227312 
L 577.012613 182.59816 
L 577.217233 182.662304 
L 577.421852 182.575432 
L 577.831092 181.908921 
L 578.85419 179.211395 
L 579.26343 178.85953 
L 579.672669 178.989768 
L 580.081909 179.089267 
L 580.491148 178.568455 
L 580.900388 177.971097 
L 581.105007 177.856432 
L 581.309627 177.90858 
L 581.923486 178.410676 
L 582.332726 178.463021 
L 582.946585 178.807157 
L 583.151205 178.689391 
L 583.560444 177.971181 
L 583.969684 176.765171 
L 584.788163 174.065246 
L 584.992782 173.91813 
L 585.197402 174.06021 
L 585.811261 174.827117 
L 586.220501 175.201557 
L 586.62974 175.693215 
L 586.83436 175.546576 
L 587.243599 174.739824 
L 587.448219 174.58112 
L 587.652839 174.760812 
L 589.085177 178.073275 
L 589.699036 180.62506 
L 590.108275 182.308516 
L 590.312895 182.645244 
L 590.517515 182.483677 
L 590.926754 180.961128 
L 591.540613 178.082086 
L 591.745233 177.687991 
L 591.949853 177.572905 
L 592.359092 177.677047 
L 592.563712 177.564347 
L 592.768332 177.13174 
L 593.79143 173.744176 
L 594.20067 172.997317 
L 594.40529 172.914471 
L 594.609909 173.140097 
L 595.019149 174.318413 
L 595.837628 177.786493 
L 596.042247 177.876761 
L 596.656107 177.101449 
L 597.269966 177.04519 
L 597.679205 176.784518 
L 598.088445 176.768552 
L 598.497684 176.906366 
L 598.702304 176.752796 
L 599.111543 176.203743 
L 599.316163 176.262864 
L 599.930022 177.167221 
L 600.134642 177.197862 
L 600.748501 176.466604 
L 600.953121 176.569344 
L 601.36236 176.942296 
L 601.56698 176.913605 
L 601.7716 176.710918 
L 602.180839 175.667077 
L 603.613177 170.337461 
L 604.022417 169.60393 
L 604.227037 169.766451 
L 605.454755 172.743687 
L 605.863994 172.649351 
L 606.273234 172.602801 
L 607.296332 173.282766 
L 607.910192 174.125742 
L 608.524051 174.275243 
L 608.93329 174.461137 
L 609.13791 174.507884 
L 609.34253 174.708201 
L 609.751769 175.700356 
L 610.365628 177.360088 
L 610.570248 177.506081 
L 610.774868 177.365391 
L 611.593347 176.173439 
L 612.002586 175.962459 
L 612.411826 175.169148 
L 613.230305 172.868566 
L 613.434924 172.576565 
L 613.639544 172.500482 
L 613.844164 172.637679 
L 614.253403 173.475324 
L 615.071882 176.444942 
L 615.276502 176.512229 
L 616.2996 175.35587 
L 616.50422 175.392291 
L 616.70884 175.553591 
L 617.322699 176.48184 
L 617.527319 176.550895 
L 617.936558 176.521081 
L 618.550417 177.415477 
L 618.755037 177.26 
L 618.959657 176.662459 
L 619.778136 173.051093 
L 619.982756 172.770245 
L 620.391995 172.796018 
L 620.596615 172.822689 
L 620.801234 172.724537 
L 621.210474 172.121076 
L 621.619713 171.547792 
L 621.824333 171.492347 
L 622.028953 171.661069 
L 622.438192 172.736672 
L 622.847432 173.794963 
L 623.052051 174.000597 
L 623.256671 174.002421 
L 623.665911 173.630886 
L 624.07515 172.78913 
L 624.484389 171.863069 
L 624.893629 171.691583 
L 625.098249 171.610912 
L 625.507488 171.009598 
L 625.916728 170.446584 
L 626.121347 170.50029 
L 626.530587 170.851342 
L 627.144446 170.60571 
L 627.349066 170.850669 
L 628.167545 172.710984 
L 628.781404 173.174035 
L 628.986023 173.393741 
L 629.190643 173.335377 
L 629.599883 172.185795 
L 630.009122 171.042624 
L 630.622981 170.178476 
L 631.032221 169.632186 
L 631.8507 168.135438 
L 632.055319 168.057994 
L 632.464559 168.182396 
L 632.669179 168.062189 
L 633.078418 167.231053 
L 633.487657 166.37928 
L 633.692277 166.340544 
L 634.101517 167.03437 
L 635.533855 169.976238 
L 636.147714 170.426999 
L 636.761573 171.388415 
L 636.966193 171.330907 
L 637.784672 170.297645 
L 638.398531 170.252539 
L 638.80777 170.556367 
L 639.42163 171.2937 
L 639.626249 171.228728 
L 640.035489 170.308995 
L 640.649348 168.951071 
L 641.263207 168.131159 
L 641.467827 168.130598 
L 642.081686 168.601744 
L 642.286306 168.427593 
L 643.309404 166.525133 
L 644.127883 166.183172 
L 644.332503 166.160135 
L 644.537123 166.3805 
L 645.355602 168.316127 
L 646.174081 167.441247 
L 646.3787 167.658974 
L 646.992559 168.666997 
L 647.197179 168.564355 
L 647.606419 168.114267 
L 648.220278 168.074409 
L 648.629517 166.996237 
L 649.038757 166.045288 
L 649.652616 165.313006 
L 650.061855 164.700987 
L 650.266475 164.630445 
L 650.471095 164.845479 
L 651.289574 166.459193 
L 651.903433 167.417901 
L 652.108053 167.475395 
L 652.312672 167.227812 
L 652.721912 166.442975 
L 652.926532 166.341049 
L 653.131151 166.537395 
L 653.540391 167.559686 
L 654.35887 169.884104 
L 654.563489 170.252483 
L 654.768109 170.376815 
L 654.972729 170.18016 
L 656.405067 166.710929 
L 656.814306 165.351265 
L 657.632785 161.625416 
L 657.837405 161.358304 
L 658.042025 161.481527 
L 658.451264 162.600805 
L 658.860504 163.583841 
L 659.474363 163.813802 
L 659.883602 164.243814 
L 660.088222 164.031137 
L 660.497461 162.579831 
L 660.906701 161.060719 
L 661.31594 160.396594 
L 661.9298 159.988903 
L 663.771377 157.541725 
L 663.975997 157.584291 
L 664.589856 157.981571 
L 664.999095 157.975538 
L 665.408335 158.238624 
L 666.022194 158.932114 
L 666.840673 160.25335 
L 667.045293 160.483283 
L 667.249912 160.503163 
L 667.454532 160.22487 
L 668.273011 158.461444 
L 668.68225 157.876699 
L 669.500729 155.665121 
L 669.909969 154.045683 
L 670.728448 149.818187 
L 670.933067 149.471666 
L 671.956166 149.039747 
L 672.365406 149.593037 
L 672.570025 149.633387 
L 672.774645 149.417638 
L 673.388504 147.998095 
L 674.206983 145.999447 
L 674.616223 145.718123 
L 674.820842 145.725783 
L 675.025462 145.868451 
L 675.434701 146.546438 
L 676.25318 148.081684 
L 676.86704 148.485151 
L 677.071659 148.504428 
L 677.276279 148.378483 
L 678.094758 147.031825 
L 678.503997 146.08479 
L 679.527096 142.900867 
L 680.140955 139.539343 
L 680.959434 134.963951 
L 681.368674 133.618177 
L 681.777913 133.213573 
L 682.187152 133.335029 
L 682.391772 133.622203 
L 682.801012 135.059325 
L 683.210251 136.718818 
L 683.82411 138.045765 
L 684.02873 138.392047 
L 684.23335 138.505646 
L 684.437969 138.309636 
L 684.847209 137.242661 
L 685.256448 135.413688 
L 685.870308 131.34174 
L 686.893406 124.232732 
L 687.507265 119.26709 
L 688.121125 112.733989 
L 688.530364 106.263068 
L 689.348843 88.662595 
L 690.985801 49.570826 
L 691.39504 46.781462 
L 691.80428 44.963419 
L 692.213519 40.704426 
L 692.622759 32.986851 
L 693.031998 21.31961 
L 693.586824 -1 
M 696.61527 -1 
L 697.329012 38.016118 
L 697.942871 59.298624 
L 698.556731 71.780852 
L 698.96597 76.037208 
L 699.37521 78.088243 
L 699.989069 79.778012 
L 700.193688 80.844862 
L 700.398308 82.711757 
L 700.807548 89.443392 
L 701.626026 106.191165 
L 702.035266 111.232625 
L 702.853745 117.708681 
L 703.058365 118.568086 
L 703.262984 118.882534 
L 703.467604 118.730031 
L 703.876843 117.667124 
L 704.286083 115.864851 
L 704.695322 113.037803 
L 705.513801 105.305496 
L 705.923041 99.143061 
L 706.946139 79.202793 
L 707.150759 77.778663 
L 707.355379 77.956658 
L 707.559999 79.527526 
L 707.969238 85.401089 
L 708.583097 94.532749 
L 708.992337 97.782303 
L 709.401576 99.267322 
L 709.810816 99.820921 
L 710.220055 100.113161 
L 710.833914 100.761489 
L 711.038534 100.517358 
L 711.447773 98.779705 
L 711.857013 95.816891 
L 712.470872 88.814383 
L 713.493971 75.828445 
L 713.90321 72.53923 
L 714.10783 71.78906 
L 714.31245 71.999211 
L 714.517069 73.321444 
L 714.926309 78.865911 
L 716.563267 105.917249 
L 717.381745 113.090765 
L 719.427943 127.260854 
L 719.632562 127.629205 
L 719.837182 127.684566 
L 720.451041 127.344626 
L 721.064901 127.418436 
L 721.26952 127.612468 
L 721.47414 128.037751 
L 721.883379 129.685824 
L 723.111098 136.421599 
L 723.315718 136.653636 
L 723.520337 136.581636 
L 724.134196 136.086737 
L 724.338816 136.254603 
L 724.748056 136.810489 
L 725.157295 136.971859 
L 725.361915 137.194062 
L 726.180394 138.671 
L 726.385013 138.397504 
L 726.794253 136.8326 
L 727.203492 135.162023 
L 727.612732 134.27164 
L 728.021971 134.087626 
L 728.431211 134.060604 
L 728.63583 133.816206 
L 729.04507 132.399736 
L 729.454309 130.821475 
L 730.068169 129.593312 
L 730.477408 127.703408 
L 731.295887 122.579651 
L 733.751324 103.77133 
L 733.955943 103.237807 
L 734.160563 103.298612 
L 734.365183 104.028958 
L 734.774422 107.164674 
L 735.592901 114.376366 
L 736.002141 116.331858 
L 737.229859 120.098015 
L 737.639098 121.214277 
L 738.048338 123.149496 
L 738.662197 126.54914 
L 739.276056 128.168592 
L 739.480676 128.370971 
L 739.685296 128.324926 
L 740.708394 127.292099 
L 741.322253 126.00386 
L 741.936113 123.62958 
L 742.549972 121.742314 
L 742.959211 120.592507 
L 743.163831 120.32503 
L 743.77769 120.563479 
L 744.18693 119.528772 
L 744.800789 117.241574 
L 745.210028 115.120854 
L 746.028507 109.189867 
L 746.642366 104.287779 
L 746.846986 103.514881 
L 747.051606 103.563452 
L 747.256226 104.348486 
L 748.074704 110.025927 
L 748.893183 115.253856 
L 749.711662 119.434408 
L 750.120902 120.423841 
L 750.530141 120.8254 
L 750.734761 120.791182 
L 750.939381 120.557208 
L 751.34862 119.458722 
L 752.167099 116.233229 
L 752.780958 115.167643 
L 753.394817 114.137692 
L 753.804057 113.262334 
L 754.213296 111.687048 
L 755.850254 103.027867 
L 756.259494 102.194697 
L 756.464113 102.393877 
L 756.668733 103.11551 
L 757.282592 107.307652 
L 757.691832 109.637107 
L 758.101071 110.651793 
L 758.71493 111.287691 
L 758.91955 111.505391 
L 759.12417 111.470765 
L 759.533409 110.50413 
L 759.738029 110.012781 
L 759.942649 109.811076 
L 760.147268 109.971267 
L 760.351888 110.533775 
L 760.761128 112.761908 
L 761.170367 115.051757 
L 761.579606 116.038721 
L 761.784226 116.032113 
L 761.988846 115.754198 
L 762.398085 114.545564 
L 763.216564 111.315919 
L 764.035043 109.770081 
L 764.444283 108.802772 
L 765.262762 105.874584 
L 765.467381 105.775169 
L 765.672001 106.092536 
L 766.08124 107.557086 
L 766.6951 109.908793 
L 766.899719 110.218555 
L 767.104339 110.229035 
L 768.127438 109.419127 
L 768.536677 110.125187 
L 769.355156 112.068306 
L 769.559776 112.004891 
L 769.969015 110.968431 
L 770.787494 108.557126 
L 770.992114 108.356907 
L 771.401353 108.648782 
L 772.015213 109.37743 
L 772.629072 110.291131 
L 773.447551 110.630959 
L 773.85679 111.197087 
L 774.06141 111.313197 
L 774.26603 111.192149 
L 775.084508 110.005191 
L 775.493748 109.992873 
L 775.902987 110.262398 
L 776.516847 110.933974 
L 776.721466 111.00119 
L 776.926086 110.829115 
L 777.744565 109.430617 
L 778.153804 109.214461 
L 778.358424 109.270636 
L 778.563044 109.512396 
L 778.972283 110.538223 
L 779.586142 112.420747 
L 779.995382 112.973462 
L 780.813861 113.317373 
L 781.01848 113.232297 
L 781.42772 112.614147 
L 781.836959 112.034817 
L 782.655438 111.394191 
L 783.269297 112.286608 
L 783.473917 112.230461 
L 784.087776 111.296446 
L 784.701636 111.571401 
L 784.906255 111.388593 
L 785.315495 110.199278 
L 785.724734 109.130507 
L 785.929354 109.092683 
L 786.338593 109.851299 
L 786.952453 111.626523 
L 787.770931 114.134311 
L 787.975551 114.481533 
L 788.180171 114.530033 
L 788.58941 113.802185 
L 788.99865 113.324416 
L 789.612509 113.174045 
L 790.021748 112.251169 
L 790.430988 111.355721 
L 790.635608 111.268709 
L 790.840227 111.433839 
L 791.249467 112.475575 
L 791.863326 114.605682 
L 792.067946 114.838253 
L 792.272565 114.765607 
L 792.886425 113.743877 
L 793.704904 112.237603 
L 794.114143 112.165041 
L 794.318763 112.240324 
L 794.523382 112.519923 
L 794.932622 114.039161 
L 795.751101 117.951199 
L 795.955721 118.171872 
L 796.774199 117.433838 
L 796.978819 117.491921 
L 797.183439 117.419317 
L 797.797298 116.703492 
L 798.001918 116.93097 
L 798.615777 118.758175 
L 799.638876 121.543905 
L 800.048115 122.167892 
L 800.457355 123.267528 
L 801.071214 125.138632 
L 801.480453 125.637866 
L 801.889693 125.824546 
L 802.503552 125.765663 
L 802.708172 125.992412 
L 803.117411 127.26801 
L 803.73127 129.388029 
L 804.14051 130.007933 
L 804.345129 129.987968 
L 804.754369 129.448792 
L 805.982087 127.026291 
L 806.186707 127.26063 
L 806.595946 128.679429 
L 807.414425 132.677427 
L 807.823665 134.851166 
L 808.028284 135.535158 
L 808.232904 135.81933 
L 808.437524 135.708579 
L 808.846763 135.086248 
L 809.051383 135.11146 
L 809.460623 136.117911 
L 809.869862 137.165483 
L 810.074482 137.429986 
L 810.483721 137.478038 
L 811.09758 137.400327 
L 811.3022 137.578603 
L 811.71144 138.604878 
L 812.325299 140.442914 
L 812.734538 141.16581 
L 813.348397 141.846252 
L 814.166876 143.475946 
L 814.780735 144.573254 
L 814.985355 144.637061 
L 815.189975 144.31209 
L 815.803834 142.569836 
L 816.008454 142.777518 
L 816.417693 144.514287 
L 817.440792 149.039171 
L 818.87313 154.213043 
L 819.07775 154.315755 
L 819.486989 154.209859 
L 819.691609 154.424373 
L 820.100848 155.709736 
L 821.123947 159.975112 
L 822.147046 161.858197 
L 822.760905 162.920557 
L 823.170144 163.152258 
L 823.374764 163.111572 
L 823.784003 162.675219 
L 824.193243 162.166655 
L 824.397863 162.284715 
L 824.602482 162.886816 
L 825.216341 165.4934 
L 826.03482 166.975558 
L 826.64868 168.750123 
L 827.057919 169.134313 
L 827.671778 169.381798 
L 828.081018 169.69142 
L 828.694877 170.436483 
L 828.899497 170.342203 
L 829.308736 169.786906 
L 829.513356 169.762326 
L 829.717975 170.126201 
L 830.127215 171.98336 
L 830.741074 175.337056 
L 830.945694 175.845999 
L 831.150314 175.946017 
L 831.764173 175.676169 
L 832.173412 175.954364 
L 832.787271 176.44229 
L 833.196511 176.790312 
L 833.60575 177.54702 
L 835.447328 182.276724 
L 835.651948 182.39341 
L 835.856567 182.266118 
L 836.265807 181.403808 
L 836.675046 179.837304 
L 837.288905 177.477559 
L 837.493525 177.461845 
L 837.902765 178.542388 
L 838.312004 179.378644 
L 838.516624 179.259349 
L 838.721243 178.671714 
L 839.539722 174.199581 
L 839.948962 172.215917 
L 840.358201 171.167573 
L 840.562821 170.984751 
L 840.767441 171.002218 
L 841.3813 171.637527 
L 841.58592 171.493343 
L 841.995159 170.53326 
L 842.404399 169.21476 
L 843.018258 166.899138 
L 843.222877 166.865228 
L 843.427497 167.307417 
L 843.836737 169.212739 
L 844.245976 171.092948 
L 844.450596 171.547301 
L 844.655216 171.625559 
L 844.859835 171.32883 
L 846.087554 167.631841 
L 847.519892 163.552611 
L 847.929131 163.273938 
L 848.338371 163.157435 
L 848.74761 162.749324 
L 849.770709 161.373582 
L 850.179948 160.702694 
L 850.384568 160.840803 
L 850.998427 161.973115 
L 851.816906 162.735126 
L 852.226145 163.550633 
L 853.453864 166.848069 
L 853.658484 166.898941 
L 854.067723 166.573199 
L 854.476962 166.0172 
L 855.500061 163.814476 
L 856.727779 160.161076 
L 856.932399 159.923441 
L 857.137019 160.033041 
L 857.546258 161.150874 
L 857.955498 162.114787 
L 858.978596 163.264566 
L 859.592456 163.419917 
L 859.797075 163.802985 
L 860.206315 166.248116 
L 860.820174 170.608586 
L 863.070991 180.820929 
L 863.68485 182.521052 
L 864.09409 184.913669 
L 865.731047 198.465679 
L 866.344907 203.894191 
L 867.777245 218.155431 
L 868.595724 226.528883 
L 869.209583 231.754833 
L 869.823442 234.943694 
L 870.232681 237.082471 
L 870.846541 242.678119 
L 871.869639 252.393501 
L 871.944661 253 
M 884.811335 253 
L 885.169921 251.521988 
L 885.374541 251.144784 
L 885.579161 251.055485 
L 885.783781 251.251537 
L 885.9884 251.794964 
L 886.259467 253 
M 914.017955 253 
L 914.448397 -1 
M 948.221501 -1 
L 949.215896 13.802267 
L 950.443614 31.225081 
L 951.466713 41.640434 
L 952.080572 45.654145 
L 952.694431 48.964265 
L 953.71753 56.256304 
L 954.331389 60.095429 
L 955.354488 66.916827 
L 955.968347 69.004578 
L 956.377586 70.204499 
L 956.786826 72.044163 
L 957.809924 77.485231 
L 958.628403 80.247055 
L 959.242263 83.998732 
L 960.674601 92.731457 
L 962.311558 99.298875 
L 963.130037 102.220708 
L 963.539277 102.789179 
L 964.153136 103.061285 
L 964.562375 103.634134 
L 965.176235 104.977944 
L 965.585474 106.399577 
L 966.199333 108.86014 
L 966.403953 109.089091 
L 966.813192 109.206226 
L 967.222432 109.946477 
L 967.631671 110.607698 
L 968.45015 111.139341 
L 968.85939 111.821382 
L 969.473249 113.778418 
L 970.291728 116.152362 
L 970.700967 117.604622 
L 971.314826 120.153011 
L 971.724066 121.103343 
L 972.542545 122.4681 
L 972.951784 123.461462 
L 973.361024 123.929957 
L 973.770263 124.373815 
L 974.179503 124.821799 
L 974.793362 125.01106 
L 976.43032 126.319024 
L 977.248798 127.742397 
L 977.862658 128.874372 
L 978.067277 129.064672 
L 978.271897 129.055314 
L 978.476517 128.795665 
L 979.090376 127.61446 
L 979.294996 127.695089 
L 979.499615 128.117033 
L 980.318094 130.727209 
L 980.522714 130.778923 
L 980.931954 130.155091 
L 981.136573 129.84516 
L 981.341193 129.782054 
L 981.545813 130.007554 
L 981.955052 131.164123 
L 982.364292 132.564123 
L 982.568911 132.898577 
L 982.773531 132.856166 
L 983.38739 131.953577 
L 983.59201 131.906563 
L 984.001249 132.193373 
L 984.410489 132.885025 
L 984.819728 134.08517 
L 985.433588 135.9666 
L 985.638207 136.138815 
L 986.047447 136.096361 
L 986.252066 135.870511 
L 987.070545 133.966353 
L 987.275165 134.160777 
L 988.502883 136.764359 
L 988.707503 136.62705 
L 989.116743 135.953707 
L 989.730602 134.843169 
L 989.935222 134.661428 
L 990.139841 134.693247 
L 990.549081 135.191177 
L 990.7537 135.098552 
L 990.95832 134.585906 
L 991.981419 130.16717 
L 992.390658 129.748046 
L 992.799898 129.680423 
L 993.004517 129.942933 
L 993.413757 131.410514 
L 993.822996 133.083742 
L 994.232236 133.915439 
L 994.846095 134.574317 
L 995.050715 134.374379 
L 995.459954 133.382954 
L 995.664574 133.362864 
L 995.869194 133.979527 
L 996.483053 136.948415 
L 996.687673 137.274649 
L 997.710771 137.47714 
L 998.52925 138.381483 
L 998.73387 138.055249 
L 999.347729 136.448199 
L 999.552349 136.295317 
L 999.756968 136.406699 
L 1000.370828 137.324202 
L 1000.575447 137.300561 
L 1000.780067 136.905175 
L 1002.417025 131.770194 
L 1002.621645 131.925377 
L 1003.030884 133.431188 
L 1003.644743 135.901446 
L 1004.258602 137.649734 
L 1004.667842 138.271812 
L 1005.281701 139.174541 
L 1006.10018 140.961383 
L 1006.509419 142.316641 
L 1007.123279 145.555392 
L 1007.737138 148.871137 
L 1008.146377 149.778693 
L 1008.555617 149.922596 
L 1008.964856 150.079504 
L 1009.374096 150.41612 
L 1009.578715 150.443113 
L 1009.987955 150.098683 
L 1010.397194 149.214557 
L 1011.829532 144.238659 
L 1012.238772 142.657578 
L 1012.443391 142.190963 
L 1012.648011 142.019112 
L 1012.852631 142.146404 
L 1013.26187 143.123295 
L 1014.080349 145.793336 
L 1014.694208 146.8821 
L 1015.308068 149.326009 
L 1015.717307 150.507159 
L 1016.126547 151.063957 
L 1016.535786 151.279889 
L 1016.945025 151.06724 
L 1017.354265 150.801882 
L 1017.558885 150.853665 
L 1017.968124 151.310768 
L 1018.377364 152.366632 
L 1018.786603 153.598906 
L 1018.991223 153.93604 
L 1019.195842 153.991823 
L 1019.605082 153.525039 
L 1020.014321 152.804851 
L 1021.03742 150.445105 
L 1021.446659 150.152473 
L 1021.651279 150.212605 
L 1021.855899 150.455642 
L 1022.265138 151.558702 
L 1022.878998 153.784828 
L 1023.083617 154.104004 
L 1023.288237 154.079256 
L 1024.106716 152.88924 
L 1024.311336 152.915952 
L 1024.720575 153.424011 
L 1025.334434 154.232615 
L 1025.539054 154.227284 
L 1026.357533 153.407596 
L 1026.562153 153.574831 
L 1026.971392 154.179835 
L 1027.176012 154.18685 
L 1027.585251 153.327178 
L 1027.994491 152.544263 
L 1028.60835 151.874399 
L 1028.81297 151.914145 
L 1029.017589 152.242202 
L 1030.040688 154.891536 
L 1030.449927 154.529975 
L 1030.654547 154.344656 
L 1030.859167 154.316555 
L 1031.063787 154.49803 
L 1031.882266 156.293331 
L 1032.086885 156.354037 
L 1032.291505 156.182875 
L 1032.905364 154.811889 
L 1033.519223 153.717962 
L 1033.928463 153.443737 
L 1034.337702 153.64815 
L 1034.746942 154.148928 
L 1035.77004 155.740096 
L 1036.3839 155.64273 
L 1036.588519 155.913391 
L 1037.816238 158.529895 
L 1038.020857 158.573514 
L 1038.430097 158.202848 
L 1038.634717 157.991462 
L 1038.839336 157.990802 
L 1039.657815 158.830496 
L 1040.067055 158.938329 
L 1040.476294 159.639984 
L 1040.885534 160.652692 
L 1041.090153 160.87815 
L 1041.294773 160.667283 
L 1041.704012 159.111063 
L 1042.727111 154.743171 
L 1042.931731 154.485122 
L 1043.136351 154.612091 
L 1043.54559 155.671799 
L 1044.159449 157.173458 
L 1044.364069 157.365231 
L 1044.568689 157.31419 
L 1044.977928 156.976102 
L 1045.182548 157.017882 
L 1046.001027 157.826388 
L 1046.205646 157.860943 
L 1046.410266 158.008999 
L 1047.024125 158.952611 
L 1047.228745 158.947153 
L 1047.637985 158.148735 
L 1049.274942 154.302694 
L 1049.479562 154.120054 
L 1049.684182 154.103541 
L 1050.298041 154.626331 
L 1050.70728 155.220463 
L 1051.11652 156.54703 
L 1051.934999 160.100089 
L 1052.139618 160.358769 
L 1052.344238 160.185292 
L 1052.753478 158.991277 
L 1053.162717 157.771377 
L 1053.571957 157.299347 
L 1053.776576 157.40732 
L 1054.185816 158.183038 
L 1054.799675 159.452013 
L 1055.618154 160.442765 
L 1056.027393 160.456767 
L 1056.436633 160.099865 
L 1057.255112 158.983252 
L 1058.27821 159.001477 
L 1059.096689 159.20993 
L 1059.505929 159.811568 
L 1059.915168 160.415421 
L 1060.529027 160.733209 
L 1060.938267 160.648357 
L 1061.347506 160.553909 
L 1061.552126 160.766726 
L 1062.984464 163.548724 
L 1063.393703 163.385895 
L 1063.598323 163.307623 
L 1064.007563 163.575269 
L 1065.030661 164.757611 
L 1065.84914 164.950099 
L 1066.25838 165.298036 
L 1066.462999 165.262499 
L 1066.872239 164.942761 
L 1067.076859 164.933333 
L 1067.690718 165.5067 
L 1067.895337 165.321929 
L 1069.327676 162.256235 
L 1069.736915 161.899024 
L 1070.146154 161.845038 
L 1070.555394 162.015443 
L 1070.964633 162.542414 
L 1071.373873 163.612363 
L 1071.987732 165.51227 
L 1072.192352 165.707115 
L 1072.396971 165.593152 
L 1072.601591 165.180172 
L 1073.010831 163.606274 
L 1073.42007 161.804001 
L 1073.62469 161.305945 
L 1073.82931 161.286991 
L 1074.238549 162.3208 
L 1074.647788 163.40245 
L 1075.057028 163.888861 
L 1075.261648 163.939046 
L 1075.466267 163.8296 
L 1075.875507 163.036302 
L 1076.284746 161.897004 
L 1076.489366 161.653139 
L 1076.693986 161.79627 
L 1077.307845 162.754866 
L 1077.512465 162.594211 
L 1078.126324 161.336586 
L 1078.330944 161.298271 
L 1078.535563 161.561132 
L 1079.149422 163.180374 
L 1079.558662 164.120506 
L 1079.763282 164.306751 
L 1080.172521 164.253298 
L 1080.78638 163.825671 
L 1080.991 164.050456 
L 1082.218718 167.073022 
L 1082.627958 167.439605 
L 1082.832578 167.370972 
L 1083.241817 166.598705 
L 1084.060296 164.746962 
L 1084.674155 162.382643 
L 1085.288014 161.257388 
L 1085.492634 161.066275 
L 1085.697254 161.112769 
L 1086.106493 161.757366 
L 1086.720352 162.990397 
L 1087.129592 164.601179 
L 1087.948071 168.948265 
L 1088.15269 169.329074 
L 1088.35731 169.366617 
L 1088.56193 169.096601 
L 1089.175789 167.699632 
L 1089.380409 167.537028 
L 1089.585028 167.552825 
L 1090.608127 168.222001 
L 1091.017367 169.013461 
L 1091.426606 169.777801 
L 1091.631226 169.93029 
L 1091.835845 169.806001 
L 1092.245085 168.783191 
L 1093.268184 165.846444 
L 1093.882043 164.681513 
L 1094.905141 164.614409 
L 1095.109761 164.824322 
L 1095.519001 166.08098 
L 1096.13286 168.23735 
L 1096.542099 169.158402 
L 1097.769818 170.831238 
L 1097.974437 170.909762 
L 1098.588296 170.6736 
L 1098.997536 171.172104 
L 1099.406775 171.487717 
L 1100.020635 171.212201 
L 1100.429874 170.64467 
L 1100.839113 170.042921 
L 1101.043733 170.087578 
L 1101.452973 170.460263 
L 1101.657592 170.332214 
L 1102.066832 169.786457 
L 1102.476071 169.667654 
L 1102.885311 169.53019 
L 1103.08993 169.452325 
L 1103.29455 169.575352 
L 1103.70379 170.603577 
L 1104.317649 172.71097 
L 1104.726888 173.281784 
L 1105.545367 174.125462 
L 1105.749987 174.051301 
L 1106.159226 173.523516 
L 1106.773086 172.645521 
L 1107.182325 172.431189 
L 1107.386945 172.491348 
L 1107.591564 172.744739 
L 1108.000804 173.900271 
L 1108.410043 175.124604 
L 1108.819283 175.768793 
L 1109.023903 175.871491 
L 1109.228522 175.776439 
L 1110.251621 174.674403 
L 1111.683959 170.680867 
L 1112.297818 168.902598 
L 1112.707058 168.048861 
L 1113.116297 166.589207 
L 1113.525537 164.294194 
L 1113.934776 160.66184 
L 1114.753255 150.024803 
L 1115.776354 137.653648 
L 1116.594832 126.959945 
L 1117.208692 119.319084 
L 1118.64103 103.866985 
L 1119.050269 99.075073 
L 1119.459509 91.67224 
L 1119.868748 79.01645 
L 1120.277988 58.096136 
L 1120.687227 25.825344 
L 1120.936039 -1 
M 1127.08071 -1 
L 1127.848917 27.529788 
L 1129.076636 61.715359 
L 1129.690495 73.712074 
L 1130.508974 86.040901 
L 1131.327453 94.945027 
L 1132.759791 107.135114 
L 1134.601368 122.064338 
L 1135.010608 123.899372 
L 1136.238326 127.235643 
L 1137.261425 132.88351 
L 1137.466045 133.283624 
L 1137.875284 133.495094 
L 1138.284523 133.766653 
L 1138.693763 134.683946 
L 1139.512242 137.413178 
L 1139.921481 137.617928 
L 1140.330721 137.921377 
L 1140.73996 138.257488 
L 1141.1492 138.222021 
L 1142.376918 137.355109 
L 1142.990777 136.523988 
L 1143.195397 136.638681 
L 1143.809256 137.368339 
L 1144.627735 137.997966 
L 1145.036974 138.757536 
L 1146.060073 142.076228 
L 1146.469313 142.750595 
L 1146.878552 143.846514 
L 1147.901651 146.790906 
L 1148.31089 147.706838 
L 1148.72013 148.138996 
L 1149.129369 148.173326 
L 1149.743228 148.636897 
L 1149.947848 148.548692 
L 1150.357087 147.804176 
L 1151.175566 146.187137 
L 1151.380186 146.078266 
L 1152.198665 146.509905 
L 1152.607904 146.324347 
L 1152.812524 146.532647 
L 1153.426383 147.551921 
L 1153.631003 147.478027 
L 1154.040242 146.701986 
L 1154.449482 146.073748 
L 1154.654102 146.175857 
L 1155.267961 146.827019 
L 1155.6772 146.926097 
L 1155.88182 147.1029 
L 1156.291059 147.982578 
L 1157.109538 150.070371 
L 1157.518778 150.840155 
L 1157.723398 150.89473 
L 1158.541876 150.05874 
L 1158.951116 150.28591 
L 1159.564975 150.130503 
L 1160.178834 150.051838 
L 1160.383454 150.122506 
L 1160.588074 150.324225 
L 1160.997313 151.195402 
L 1161.815792 153.358997 
L 1162.225032 153.64909 
L 1162.838891 153.741266 
L 1163.24813 153.850641 
L 1163.861989 154.154427 
L 1164.271229 154.274115 
L 1165.294327 155.031384 
L 1165.908187 154.429859 
L 1166.112806 154.487213 
L 1166.522046 154.850541 
L 1167.340525 155.160696 
L 1167.749764 155.693125 
L 1168.772863 157.407516 
L 1168.977482 157.443853 
L 1169.386722 156.806595 
L 1169.591342 156.454364 
L 1169.795961 156.367618 
L 1170.61444 157.207831 
L 1171.228299 156.70617 
L 1171.637539 156.069907 
L 1172.660638 153.542661 
L 1172.865257 153.360358 
L 1173.069877 153.396078 
L 1173.479116 154.123828 
L 1174.297595 156.206907 
L 1174.706835 157.21479 
L 1174.911455 157.297341 
L 1175.525314 156.606348 
L 1175.729933 156.649433 
L 1176.548412 157.609432 
L 1176.753032 157.560637 
L 1177.162272 157.017363 
L 1177.571511 156.240004 
L 1178.18537 154.771918 
L 1178.799229 154.291175 
L 1179.617708 153.011256 
L 1179.822328 153.072244 
L 1180.436187 153.464291 
L 1180.845427 153.555301 
L 1181.050046 153.446866 
L 1181.254666 153.115329 
L 1182.073145 151.195977 
L 1182.277765 151.408345 
L 1182.687004 152.219306 
L 1183.300863 152.919642 
L 1184.323962 155.260125 
L 1184.733201 156.762457 
L 1184.733201 156.762457 
" clip-path="url(#p5d43fc5363)" style="fill: none; stroke: #000000; stroke-width: 2; stroke-linecap: square"/>
   </g>
   <g id="patch_3">
    <path d="M 3.00024 198.907885 
L 1184.99976 198.907885 
" style="fill: none; stroke: #000000; stroke-width: 2; stroke-linejoin: miter; stroke-linecap: square"/>
   </g>
  </g>
 </g>
 <defs>
  <clipPath id="p5d43fc5363">
   <rect x="3.00024" y="3.00024" width="1181.99952" height="195.907645"/>
  </clipPath>
 </defs>
</svg>
