<?xml version="1.0" encoding="utf-8" standalone="no"?>
<!DOCTYPE svg PUBLIC "-//W3C//DTD SVG 1.1//EN"
  "http://www.w3.org/Graphics/SVG/1.1/DTD/svg11.dtd">
<svg xmlns:xlink="http://www.w3.org/1999/xlink" width="1188pt" height="252pt" viewBox="0 0 1188 252" xmlns="http://www.w3.org/2000/svg" version="1.1">
 <metadata>
  <rdf:RDF xmlns:dc="http://purl.org/dc/elements/1.1/" xmlns:cc="http://creativecommons.org/ns#" xmlns:rdf="http://www.w3.org/1999/02/22-rdf-syntax-ns#">
   <cc:Work>
    <dc:type rdf:resource="http://purl.org/dc/dcmitype/StillImage"/>
    <dc:date>2024-07-23T21:45:06.392281</dc:date>
    <dc:format>image/svg+xml</dc:format>
    <dc:creator>
     <cc:Agent>
      <dc:title>Matplotlib v3.8.4, https://matplotlib.org/</dc:title>
     </cc:Agent>
    </dc:creator>
   </cc:Work>
  </rdf:RDF>
 </metadata>
 <defs>
  <style type="text/css">*{stroke-linejoin: round; stroke-linecap: butt}</style>
 </defs>
 <g id="figure_1">
  <g id="patch_1">
   <path d="M 0 252 
L 1188 252 
L 1188 0 
L 0 0 
z
" style="fill: #ffffff"/>
  </g>
  <g id="axes_1">
   <g id="patch_2">
    <path d="M 3.00024 198.907885 
L 1184.99976 198.907885 
L 1184.99976 3.00024 
L 3.00024 3.00024 
z
" style="fill: #ffffff"/>
   </g>
   <g id="matplotlib.axis_1">
    <g id="xtick_1">
     <g id="line2d_1">
      <defs>
       <path id="m0239a4f61a" d="M 0 0 
L 0 8 
" style="stroke: #000000; stroke-width: 2"/>
      </defs>
      <g>
       <use xlink:href="#m0239a4f61a" x="1131.272509" y="198.907885" style="stroke: #000000; stroke-width: 2"/>
      </g>
     </g>
     <g id="text_1">
      <!-- 0 -->
      <g transform="translate(1126.267665 224.791947) scale(0.18 -0.18)">
       <defs>
        <path id="Arial-BoldMT-30" d="M 1756 4600 
Q 2422 4600 2797 4125 
Q 3244 3563 3244 2259 
Q 3244 959 2794 391 
Q 2422 -78 1756 -78 
Q 1088 -78 678 436 
Q 269 950 269 2269 
Q 269 3563 719 4131 
Q 1091 4600 1756 4600 
z
M 1756 3872 
Q 1597 3872 1472 3770 
Q 1347 3669 1278 3406 
Q 1188 3066 1188 2259 
Q 1188 1453 1269 1151 
Q 1350 850 1473 750 
Q 1597 650 1756 650 
Q 1916 650 2041 751 
Q 2166 853 2234 1116 
Q 2325 1453 2325 2259 
Q 2325 3066 2244 3367 
Q 2163 3669 2039 3770 
Q 1916 3872 1756 3872 
z
" transform="scale(0.015625)"/>
       </defs>
       <use xlink:href="#Arial-BoldMT-30"/>
      </g>
     </g>
    </g>
    <g id="xtick_2">
     <g id="line2d_2">
      <g>
       <use xlink:href="#m0239a4f61a" x="1023.818007" y="198.907885" style="stroke: #000000; stroke-width: 2"/>
      </g>
     </g>
     <g id="text_2">
      <!-- 1 -->
      <g transform="translate(1018.813164 224.791947) scale(0.18 -0.18)">
       <defs>
        <path id="Arial-BoldMT-31" d="M 2519 0 
L 1641 0 
L 1641 3309 
Q 1159 2859 506 2644 
L 506 3441 
Q 850 3553 1253 3867 
Q 1656 4181 1806 4600 
L 2519 4600 
L 2519 0 
z
" transform="scale(0.015625)"/>
       </defs>
       <use xlink:href="#Arial-BoldMT-31"/>
      </g>
     </g>
    </g>
    <g id="xtick_3">
     <g id="line2d_3">
      <g>
       <use xlink:href="#m0239a4f61a" x="916.363505" y="198.907885" style="stroke: #000000; stroke-width: 2"/>
      </g>
     </g>
     <g id="text_3">
      <!-- 2 -->
      <g transform="translate(911.358662 224.791947) scale(0.18 -0.18)">
       <defs>
        <path id="Arial-BoldMT-32" d="M 3238 816 
L 3238 0 
L 159 0 
Q 209 463 459 877 
Q 709 1291 1447 1975 
Q 2041 2528 2175 2725 
Q 2356 2997 2356 3263 
Q 2356 3556 2198 3714 
Q 2041 3872 1763 3872 
Q 1488 3872 1325 3706 
Q 1163 3541 1138 3156 
L 263 3244 
Q 341 3969 753 4284 
Q 1166 4600 1784 4600 
Q 2463 4600 2850 4234 
Q 3238 3869 3238 3325 
Q 3238 3016 3127 2736 
Q 3016 2456 2775 2150 
Q 2616 1947 2200 1565 
Q 1784 1184 1673 1059 
Q 1563 934 1494 816 
L 3238 816 
z
" transform="scale(0.015625)"/>
       </defs>
       <use xlink:href="#Arial-BoldMT-32"/>
      </g>
     </g>
    </g>
    <g id="xtick_4">
     <g id="line2d_4">
      <g>
       <use xlink:href="#m0239a4f61a" x="808.909004" y="198.907885" style="stroke: #000000; stroke-width: 2"/>
      </g>
     </g>
     <g id="text_4">
      <!-- 3 -->
      <g transform="translate(803.90416 224.791947) scale(0.18 -0.18)">
       <defs>
        <path id="Arial-BoldMT-33" d="M 241 1216 
L 1091 1319 
Q 1131 994 1309 822 
Q 1488 650 1741 650 
Q 2013 650 2198 856 
Q 2384 1063 2384 1413 
Q 2384 1744 2206 1937 
Q 2028 2131 1772 2131 
Q 1603 2131 1369 2066 
L 1466 2781 
Q 1822 2772 2009 2936 
Q 2197 3100 2197 3372 
Q 2197 3603 2059 3740 
Q 1922 3878 1694 3878 
Q 1469 3878 1309 3722 
Q 1150 3566 1116 3266 
L 306 3403 
Q 391 3819 561 4067 
Q 731 4316 1036 4458 
Q 1341 4600 1719 4600 
Q 2366 4600 2756 4188 
Q 3078 3850 3078 3425 
Q 3078 2822 2419 2463 
Q 2813 2378 3048 2084 
Q 3284 1791 3284 1375 
Q 3284 772 2843 347 
Q 2403 -78 1747 -78 
Q 1125 -78 715 280 
Q 306 638 241 1216 
z
" transform="scale(0.015625)"/>
       </defs>
       <use xlink:href="#Arial-BoldMT-33"/>
      </g>
     </g>
    </g>
    <g id="xtick_5">
     <g id="line2d_5">
      <g>
       <use xlink:href="#m0239a4f61a" x="701.454502" y="198.907885" style="stroke: #000000; stroke-width: 2"/>
      </g>
     </g>
     <g id="text_5">
      <!-- 4 -->
      <g transform="translate(696.449658 224.791947) scale(0.18 -0.18)">
       <defs>
        <path id="Arial-BoldMT-34" d="M 1994 0 
L 1994 922 
L 119 922 
L 119 1691 
L 2106 4600 
L 2844 4600 
L 2844 1694 
L 3413 1694 
L 3413 922 
L 2844 922 
L 2844 0 
L 1994 0 
z
M 1994 1694 
L 1994 3259 
L 941 1694 
L 1994 1694 
z
" transform="scale(0.015625)"/>
       </defs>
       <use xlink:href="#Arial-BoldMT-34"/>
      </g>
     </g>
    </g>
    <g id="xtick_6">
     <g id="line2d_6">
      <g>
       <use xlink:href="#m0239a4f61a" x="594" y="198.907885" style="stroke: #000000; stroke-width: 2"/>
      </g>
     </g>
     <g id="text_6">
      <!-- 5 -->
      <g transform="translate(588.995156 224.791947) scale(0.18 -0.18)">
       <defs>
        <path id="Arial-BoldMT-35" d="M 284 1178 
L 1159 1269 
Q 1197 972 1381 798 
Q 1566 625 1806 625 
Q 2081 625 2272 848 
Q 2463 1072 2463 1522 
Q 2463 1944 2273 2155 
Q 2084 2366 1781 2366 
Q 1403 2366 1103 2031 
L 391 2134 
L 841 4519 
L 3163 4519 
L 3163 3697 
L 1506 3697 
L 1369 2919 
Q 1663 3066 1969 3066 
Q 2553 3066 2959 2641 
Q 3366 2216 3366 1538 
Q 3366 972 3038 528 
Q 2591 -78 1797 -78 
Q 1163 -78 763 262 
Q 363 603 284 1178 
z
" transform="scale(0.015625)"/>
       </defs>
       <use xlink:href="#Arial-BoldMT-35"/>
      </g>
     </g>
    </g>
    <g id="xtick_7">
     <g id="line2d_7">
      <g>
       <use xlink:href="#m0239a4f61a" x="486.545498" y="198.907885" style="stroke: #000000; stroke-width: 2"/>
      </g>
     </g>
     <g id="text_7">
      <!-- 6 -->
      <g transform="translate(481.540654 224.791947) scale(0.18 -0.18)">
       <defs>
        <path id="Arial-BoldMT-36" d="M 3247 3459 
L 2397 3366 
Q 2366 3628 2234 3753 
Q 2103 3878 1894 3878 
Q 1616 3878 1423 3628 
Q 1231 3378 1181 2588 
Q 1509 2975 1997 2975 
Q 2547 2975 2939 2556 
Q 3331 2138 3331 1475 
Q 3331 772 2918 347 
Q 2506 -78 1859 -78 
Q 1166 -78 719 461 
Q 272 1000 272 2228 
Q 272 3488 737 4044 
Q 1203 4600 1947 4600 
Q 2469 4600 2811 4308 
Q 3153 4016 3247 3459 
z
M 1256 1544 
Q 1256 1116 1453 883 
Q 1650 650 1903 650 
Q 2147 650 2309 840 
Q 2472 1031 2472 1466 
Q 2472 1913 2297 2120 
Q 2122 2328 1859 2328 
Q 1606 2328 1431 2129 
Q 1256 1931 1256 1544 
z
" transform="scale(0.015625)"/>
       </defs>
       <use xlink:href="#Arial-BoldMT-36"/>
      </g>
     </g>
    </g>
    <g id="xtick_8">
     <g id="line2d_8">
      <g>
       <use xlink:href="#m0239a4f61a" x="379.090996" y="198.907885" style="stroke: #000000; stroke-width: 2"/>
      </g>
     </g>
     <g id="text_8">
      <!-- 7 -->
      <g transform="translate(374.086153 224.791947) scale(0.18 -0.18)">
       <defs>
        <path id="Arial-BoldMT-37" d="M 272 3703 
L 272 4519 
L 3275 4519 
L 3275 3881 
Q 2903 3516 2518 2831 
Q 2134 2147 1932 1376 
Q 1731 606 1734 0 
L 888 0 
Q 909 950 1279 1937 
Q 1650 2925 2269 3703 
L 272 3703 
z
" transform="scale(0.015625)"/>
       </defs>
       <use xlink:href="#Arial-BoldMT-37"/>
      </g>
     </g>
    </g>
    <g id="xtick_9">
     <g id="line2d_9">
      <g>
       <use xlink:href="#m0239a4f61a" x="271.636495" y="198.907885" style="stroke: #000000; stroke-width: 2"/>
      </g>
     </g>
     <g id="text_9">
      <!-- 8 -->
      <g transform="translate(266.631651 224.791947) scale(0.18 -0.18)">
       <defs>
        <path id="Arial-BoldMT-38" d="M 1025 2472 
Q 684 2616 529 2867 
Q 375 3119 375 3419 
Q 375 3931 733 4265 
Q 1091 4600 1750 4600 
Q 2403 4600 2764 4265 
Q 3125 3931 3125 3419 
Q 3125 3100 2959 2851 
Q 2794 2603 2494 2472 
Q 2875 2319 3073 2025 
Q 3272 1731 3272 1347 
Q 3272 713 2867 316 
Q 2463 -81 1791 -81 
Q 1166 -81 750 247 
Q 259 634 259 1309 
Q 259 1681 443 1992 
Q 628 2303 1025 2472 
z
M 1206 3356 
Q 1206 3094 1354 2947 
Q 1503 2800 1750 2800 
Q 2000 2800 2150 2948 
Q 2300 3097 2300 3359 
Q 2300 3606 2151 3754 
Q 2003 3903 1759 3903 
Q 1506 3903 1356 3753 
Q 1206 3603 1206 3356 
z
M 1125 1394 
Q 1125 1031 1311 828 
Q 1497 625 1775 625 
Q 2047 625 2225 820 
Q 2403 1016 2403 1384 
Q 2403 1706 2222 1901 
Q 2041 2097 1763 2097 
Q 1441 2097 1283 1875 
Q 1125 1653 1125 1394 
z
" transform="scale(0.015625)"/>
       </defs>
       <use xlink:href="#Arial-BoldMT-38"/>
      </g>
     </g>
    </g>
    <g id="xtick_10">
     <g id="line2d_10">
      <g>
       <use xlink:href="#m0239a4f61a" x="164.181993" y="198.907885" style="stroke: #000000; stroke-width: 2"/>
      </g>
     </g>
     <g id="text_10">
      <!-- 9 -->
      <g transform="translate(159.177149 224.791947) scale(0.18 -0.18)">
       <defs>
        <path id="Arial-BoldMT-39" d="M 291 1059 
L 1141 1153 
Q 1172 894 1303 769 
Q 1434 644 1650 644 
Q 1922 644 2112 894 
Q 2303 1144 2356 1931 
Q 2025 1547 1528 1547 
Q 988 1547 595 1964 
Q 203 2381 203 3050 
Q 203 3747 617 4173 
Q 1031 4600 1672 4600 
Q 2369 4600 2816 4061 
Q 3263 3522 3263 2288 
Q 3263 1031 2797 475 
Q 2331 -81 1584 -81 
Q 1047 -81 715 205 
Q 384 491 291 1059 
z
M 2278 2978 
Q 2278 3403 2083 3637 
Q 1888 3872 1631 3872 
Q 1388 3872 1227 3680 
Q 1066 3488 1066 3050 
Q 1066 2606 1241 2398 
Q 1416 2191 1678 2191 
Q 1931 2191 2104 2391 
Q 2278 2591 2278 2978 
z
" transform="scale(0.015625)"/>
       </defs>
       <use xlink:href="#Arial-BoldMT-39"/>
      </g>
     </g>
    </g>
    <g id="xtick_11">
     <g id="line2d_11">
      <g>
       <use xlink:href="#m0239a4f61a" x="56.727491" y="198.907885" style="stroke: #000000; stroke-width: 2"/>
      </g>
     </g>
     <g id="text_11">
      <!-- 10 -->
      <g transform="translate(46.717803 224.791947) scale(0.18 -0.18)">
       <use xlink:href="#Arial-BoldMT-31"/>
       <use xlink:href="#Arial-BoldMT-30" x="55.615234"/>
      </g>
     </g>
    </g>
    <g id="text_12">
     <!-- Chemical Shift / ppm -->
     <g transform="translate(504.992813 245.447573) scale(0.18 -0.18)">
      <defs>
       <path id="Arial-BoldMT-43" d="M 3397 1684 
L 4294 1400 
Q 4088 650 3608 286 
Q 3128 -78 2391 -78 
Q 1478 -78 890 545 
Q 303 1169 303 2250 
Q 303 3394 893 4026 
Q 1484 4659 2447 4659 
Q 3288 4659 3813 4163 
Q 4125 3869 4281 3319 
L 3366 3100 
Q 3284 3456 3026 3662 
Q 2769 3869 2400 3869 
Q 1891 3869 1573 3503 
Q 1256 3138 1256 2319 
Q 1256 1450 1568 1081 
Q 1881 713 2381 713 
Q 2750 713 3015 947 
Q 3281 1181 3397 1684 
z
" transform="scale(0.015625)"/>
       <path id="Arial-BoldMT-68" d="M 1334 4581 
L 1334 2897 
Q 1759 3394 2350 3394 
Q 2653 3394 2897 3281 
Q 3141 3169 3264 2994 
Q 3388 2819 3433 2606 
Q 3478 2394 3478 1947 
L 3478 0 
L 2600 0 
L 2600 1753 
Q 2600 2275 2550 2415 
Q 2500 2556 2373 2639 
Q 2247 2722 2056 2722 
Q 1838 2722 1666 2615 
Q 1494 2509 1414 2295 
Q 1334 2081 1334 1663 
L 1334 0 
L 456 0 
L 456 4581 
L 1334 4581 
z
" transform="scale(0.015625)"/>
       <path id="Arial-BoldMT-65" d="M 2381 1056 
L 3256 909 
Q 3088 428 2723 176 
Q 2359 -75 1813 -75 
Q 947 -75 531 491 
Q 203 944 203 1634 
Q 203 2459 634 2926 
Q 1066 3394 1725 3394 
Q 2466 3394 2894 2905 
Q 3322 2416 3303 1406 
L 1103 1406 
Q 1113 1016 1316 798 
Q 1519 581 1822 581 
Q 2028 581 2168 693 
Q 2309 806 2381 1056 
z
M 2431 1944 
Q 2422 2325 2234 2523 
Q 2047 2722 1778 2722 
Q 1491 2722 1303 2513 
Q 1116 2303 1119 1944 
L 2431 1944 
z
" transform="scale(0.015625)"/>
       <path id="Arial-BoldMT-6d" d="M 394 3319 
L 1203 3319 
L 1203 2866 
Q 1638 3394 2238 3394 
Q 2556 3394 2790 3262 
Q 3025 3131 3175 2866 
Q 3394 3131 3647 3262 
Q 3900 3394 4188 3394 
Q 4553 3394 4806 3245 
Q 5059 3097 5184 2809 
Q 5275 2597 5275 2122 
L 5275 0 
L 4397 0 
L 4397 1897 
Q 4397 2391 4306 2534 
Q 4184 2722 3931 2722 
Q 3747 2722 3584 2609 
Q 3422 2497 3350 2280 
Q 3278 2063 3278 1594 
L 3278 0 
L 2400 0 
L 2400 1819 
Q 2400 2303 2353 2443 
Q 2306 2584 2207 2653 
Q 2109 2722 1941 2722 
Q 1738 2722 1575 2612 
Q 1413 2503 1342 2297 
Q 1272 2091 1272 1613 
L 1272 0 
L 394 0 
L 394 3319 
z
" transform="scale(0.015625)"/>
       <path id="Arial-BoldMT-69" d="M 459 3769 
L 459 4581 
L 1338 4581 
L 1338 3769 
L 459 3769 
z
M 459 0 
L 459 3319 
L 1338 3319 
L 1338 0 
L 459 0 
z
" transform="scale(0.015625)"/>
       <path id="Arial-BoldMT-63" d="M 3353 2338 
L 2488 2181 
Q 2444 2441 2289 2572 
Q 2134 2703 1888 2703 
Q 1559 2703 1364 2476 
Q 1169 2250 1169 1719 
Q 1169 1128 1367 884 
Q 1566 641 1900 641 
Q 2150 641 2309 783 
Q 2469 925 2534 1272 
L 3397 1125 
Q 3263 531 2881 228 
Q 2500 -75 1859 -75 
Q 1131 -75 698 384 
Q 266 844 266 1656 
Q 266 2478 700 2936 
Q 1134 3394 1875 3394 
Q 2481 3394 2839 3133 
Q 3197 2872 3353 2338 
z
" transform="scale(0.015625)"/>
       <path id="Arial-BoldMT-61" d="M 1116 2306 
L 319 2450 
Q 453 2931 781 3162 
Q 1109 3394 1756 3394 
Q 2344 3394 2631 3255 
Q 2919 3116 3036 2902 
Q 3153 2688 3153 2116 
L 3144 1091 
Q 3144 653 3186 445 
Q 3228 238 3344 0 
L 2475 0 
Q 2441 88 2391 259 
Q 2369 338 2359 363 
Q 2134 144 1878 34 
Q 1622 -75 1331 -75 
Q 819 -75 523 203 
Q 228 481 228 906 
Q 228 1188 362 1408 
Q 497 1628 739 1745 
Q 981 1863 1438 1950 
Q 2053 2066 2291 2166 
L 2291 2253 
Q 2291 2506 2166 2614 
Q 2041 2722 1694 2722 
Q 1459 2722 1328 2630 
Q 1197 2538 1116 2306 
z
M 2291 1594 
Q 2122 1538 1756 1459 
Q 1391 1381 1278 1306 
Q 1106 1184 1106 997 
Q 1106 813 1243 678 
Q 1381 544 1594 544 
Q 1831 544 2047 700 
Q 2206 819 2256 991 
Q 2291 1103 2291 1419 
L 2291 1594 
z
" transform="scale(0.015625)"/>
       <path id="Arial-BoldMT-6c" d="M 459 0 
L 459 4581 
L 1338 4581 
L 1338 0 
L 459 0 
z
" transform="scale(0.015625)"/>
       <path id="Arial-BoldMT-20" transform="scale(0.015625)"/>
       <path id="Arial-BoldMT-53" d="M 231 1491 
L 1131 1578 
Q 1213 1125 1461 912 
Q 1709 700 2131 700 
Q 2578 700 2804 889 
Q 3031 1078 3031 1331 
Q 3031 1494 2936 1608 
Q 2841 1722 2603 1806 
Q 2441 1863 1863 2006 
Q 1119 2191 819 2459 
Q 397 2838 397 3381 
Q 397 3731 595 4036 
Q 794 4341 1167 4500 
Q 1541 4659 2069 4659 
Q 2931 4659 3367 4281 
Q 3803 3903 3825 3272 
L 2900 3231 
Q 2841 3584 2645 3739 
Q 2450 3894 2059 3894 
Q 1656 3894 1428 3728 
Q 1281 3622 1281 3444 
Q 1281 3281 1419 3166 
Q 1594 3019 2269 2859 
Q 2944 2700 3267 2529 
Q 3591 2359 3773 2064 
Q 3956 1769 3956 1334 
Q 3956 941 3737 597 
Q 3519 253 3119 86 
Q 2719 -81 2122 -81 
Q 1253 -81 787 320 
Q 322 722 231 1491 
z
" transform="scale(0.015625)"/>
       <path id="Arial-BoldMT-66" d="M 75 3319 
L 563 3319 
L 563 3569 
Q 563 3988 652 4194 
Q 741 4400 980 4529 
Q 1219 4659 1584 4659 
Q 1959 4659 2319 4547 
L 2200 3934 
Q 1991 3984 1797 3984 
Q 1606 3984 1523 3895 
Q 1441 3806 1441 3553 
L 1441 3319 
L 2097 3319 
L 2097 2628 
L 1441 2628 
L 1441 0 
L 563 0 
L 563 2628 
L 75 2628 
L 75 3319 
z
" transform="scale(0.015625)"/>
       <path id="Arial-BoldMT-74" d="M 1981 3319 
L 1981 2619 
L 1381 2619 
L 1381 1281 
Q 1381 875 1398 808 
Q 1416 741 1477 697 
Q 1538 653 1625 653 
Q 1747 653 1978 738 
L 2053 56 
Q 1747 -75 1359 -75 
Q 1122 -75 931 4 
Q 741 84 652 211 
Q 563 338 528 553 
Q 500 706 500 1172 
L 500 2619 
L 97 2619 
L 97 3319 
L 500 3319 
L 500 3978 
L 1381 4491 
L 1381 3319 
L 1981 3319 
z
" transform="scale(0.015625)"/>
       <path id="Arial-BoldMT-2f" d="M -9 -78 
L 1125 4659 
L 1784 4659 
L 638 -78 
L -9 -78 
z
" transform="scale(0.015625)"/>
       <path id="Arial-BoldMT-70" d="M 434 3319 
L 1253 3319 
L 1253 2831 
Q 1413 3081 1684 3237 
Q 1956 3394 2288 3394 
Q 2866 3394 3269 2941 
Q 3672 2488 3672 1678 
Q 3672 847 3265 386 
Q 2859 -75 2281 -75 
Q 2006 -75 1782 34 
Q 1559 144 1313 409 
L 1313 -1263 
L 434 -1263 
L 434 3319 
z
M 1303 1716 
Q 1303 1156 1525 889 
Q 1747 622 2066 622 
Q 2372 622 2575 867 
Q 2778 1113 2778 1672 
Q 2778 2194 2568 2447 
Q 2359 2700 2050 2700 
Q 1728 2700 1515 2451 
Q 1303 2203 1303 1716 
z
" transform="scale(0.015625)"/>
      </defs>
      <use xlink:href="#Arial-BoldMT-43"/>
      <use xlink:href="#Arial-BoldMT-68" x="72.216797"/>
      <use xlink:href="#Arial-BoldMT-65" x="133.300781"/>
      <use xlink:href="#Arial-BoldMT-6d" x="188.916016"/>
      <use xlink:href="#Arial-BoldMT-69" x="277.832031"/>
      <use xlink:href="#Arial-BoldMT-63" x="305.615234"/>
      <use xlink:href="#Arial-BoldMT-61" x="361.230469"/>
      <use xlink:href="#Arial-BoldMT-6c" x="416.845703"/>
      <use xlink:href="#Arial-BoldMT-20" x="444.628906"/>
      <use xlink:href="#Arial-BoldMT-53" x="472.412109"/>
      <use xlink:href="#Arial-BoldMT-68" x="539.111328"/>
      <use xlink:href="#Arial-BoldMT-69" x="600.195312"/>
      <use xlink:href="#Arial-BoldMT-66" x="627.978516"/>
      <use xlink:href="#Arial-BoldMT-74" x="661.279297"/>
      <use xlink:href="#Arial-BoldMT-20" x="694.580078"/>
      <use xlink:href="#Arial-BoldMT-2f" x="722.363281"/>
      <use xlink:href="#Arial-BoldMT-20" x="750.146484"/>
      <use xlink:href="#Arial-BoldMT-70" x="777.929688"/>
      <use xlink:href="#Arial-BoldMT-70" x="839.013672"/>
      <use xlink:href="#Arial-BoldMT-6d" x="900.097656"/>
     </g>
    </g>
   </g>
   <g id="matplotlib.axis_2"/>
   <g id="line2d_12">
    <path d="M 2.955871 189.68756 
L 3.365111 189.167938 
L 4.18359 187.325475 
L 4.388209 187.410805 
L 5.002069 188.282156 
L 5.411308 188.683161 
L 5.820548 189.146819 
L 6.025167 189.165876 
L 6.639026 188.781967 
L 6.843646 188.924368 
L 7.252886 189.713959 
L 7.662125 190.523462 
L 7.866745 190.692915 
L 8.071365 190.682808 
L 8.685224 190.253091 
L 9.503703 190.467397 
L 9.708322 190.506768 
L 9.912942 190.698094 
L 10.526801 192.02898 
L 10.731421 192.105661 
L 10.936041 191.816736 
L 11.75452 189.912375 
L 12.777618 188.19044 
L 12.982238 188.054173 
L 13.186858 188.127687 
L 14.005337 188.987523 
L 14.209956 188.830238 
L 14.619196 188.08907 
L 15.233055 186.60995 
L 16.256154 185.384005 
L 16.870013 184.553383 
L 17.279252 184.191347 
L 17.483872 184.210605 
L 17.893111 184.961328 
L 20.348548 190.939703 
L 20.553168 190.967912 
L 20.757788 190.738924 
L 21.371647 189.702746 
L 21.576266 189.767007 
L 22.599365 190.809973 
L 23.008605 190.988829 
L 23.417844 191.268 
L 23.827083 191.284291 
L 24.031703 191.185435 
L 24.440943 190.512701 
L 24.850182 189.663073 
L 25.054802 189.438308 
L 25.464041 189.355593 
L 25.668661 189.165776 
L 26.0779 188.104104 
L 26.69176 186.226393 
L 26.896379 186.089322 
L 27.100999 186.238662 
L 27.714858 187.027449 
L 28.124098 187.320346 
L 28.328717 187.353533 
L 28.942577 187.101063 
L 29.556436 187.460132 
L 30.374915 188.272552 
L 30.784154 187.766757 
L 31.193394 187.310591 
L 31.398013 187.433684 
L 31.807253 188.527938 
L 32.216492 189.895832 
L 32.625732 190.527485 
L 33.239591 190.941564 
L 33.64883 191.20937 
L 34.26269 190.88047 
L 34.671929 190.576259 
L 35.285788 189.489044 
L 35.695028 188.237203 
L 36.308887 185.848266 
L 36.513507 185.465312 
L 36.718126 185.436702 
L 37.536605 186.474237 
L 37.945845 186.502697 
L 38.355084 186.836424 
L 38.764324 187.535858 
L 39.378183 188.790012 
L 39.787422 189.023626 
L 39.992042 188.932966 
L 40.196662 188.653243 
L 41.015141 186.802131 
L 41.21976 186.798461 
L 41.629 187.325022 
L 41.833619 187.60369 
L 42.038239 187.641352 
L 42.856718 186.690252 
L 43.265958 186.626644 
L 43.879817 186.180334 
L 44.084436 186.31655 
L 44.698296 187.093571 
L 45.107535 187.156474 
L 45.516775 186.905714 
L 45.926014 186.407763 
L 46.539873 185.486783 
L 46.744493 185.362786 
L 46.949113 185.397933 
L 47.358352 185.960598 
L 48.58607 187.923941 
L 48.79069 188.062118 
L 48.99531 188.041402 
L 49.609169 187.500258 
L 50.632268 186.576512 
L 51.041507 186.366179 
L 52.064606 185.510064 
L 52.269226 185.559693 
L 52.473845 185.453898 
L 53.087704 184.341592 
L 53.496944 184.395143 
L 53.906183 184.582547 
L 54.110803 184.972993 
L 54.929282 187.469485 
L 55.133902 187.67484 
L 55.338521 187.649849 
L 55.543141 187.366455 
L 56.36162 185.38486 
L 56.56624 185.260913 
L 56.77086 185.293295 
L 57.180099 185.686859 
L 57.998578 186.970277 
L 58.203198 186.957908 
L 58.612437 186.388807 
L 59.430916 185.098499 
L 59.635536 184.925275 
L 59.840155 184.90667 
L 60.044775 185.11816 
L 61.067874 187.2232 
L 61.272493 187.098146 
L 61.477113 186.707298 
L 62.500212 183.703956 
L 62.704832 183.676753 
L 63.52331 184.296488 
L 63.93255 184.219053 
L 65.364888 182.710317 
L 65.569508 182.78011 
L 66.387987 183.660964 
L 66.797226 183.52867 
L 67.206466 183.060688 
L 67.615705 181.968394 
L 68.024944 180.8849 
L 68.434184 180.576113 
L 68.638804 180.430142 
L 69.048043 179.622701 
L 70.685001 175.010811 
L 71.09424 174.891742 
L 71.29886 175.094633 
L 71.7081 176.271603 
L 72.731198 179.951299 
L 72.935818 180.306648 
L 73.140438 180.356679 
L 73.345057 180.103153 
L 73.754297 178.975309 
L 74.572776 175.708536 
L 75.186635 173.431428 
L 76.005114 171.078846 
L 77.028212 168.759903 
L 77.642072 166.455743 
L 78.051311 164.373381 
L 78.66517 159.817607 
L 79.483649 151.917121 
L 80.506748 138.938573 
L 81.120607 128.387479 
L 81.734466 113.414564 
L 82.348325 91.862193 
L 83.166804 51.616582 
L 83.985283 12.913698 
L 84.394523 4.26073 
L 84.599142 3.801396 
L 84.803762 6.020729 
L 85.213002 18.271734 
L 85.826861 52.093112 
L 86.64534 99.855451 
L 87.259199 125.436531 
L 87.873058 144.323712 
L 88.486917 156.955208 
L 89.100776 166.089483 
L 89.510016 169.996106 
L 90.328495 174.235953 
L 90.737734 175.601785 
L 91.760833 177.134858 
L 92.170072 178.078968 
L 92.783931 180.405705 
L 93.60241 184.162636 
L 93.80703 184.447387 
L 94.420889 184.458399 
L 95.239368 185.659555 
L 95.443988 185.648845 
L 96.057847 185.060586 
L 96.467086 185.169549 
L 97.080946 185.442132 
L 98.717903 188.308956 
L 99.127143 189.099302 
L 99.536382 189.375505 
L 100.354861 189.139729 
L 100.764101 189.274638 
L 100.96872 189.245072 
L 101.17334 189.070389 
L 101.58258 188.156298 
L 101.991819 187.214853 
L 102.401059 186.940912 
L 102.810298 186.916374 
L 103.628777 186.636148 
L 103.833397 186.815004 
L 104.242636 187.892816 
L 104.651876 189.010301 
L 104.856495 189.276901 
L 105.265735 189.338497 
L 106.288833 189.075769 
L 106.493453 189.158937 
L 107.311932 189.851734 
L 107.721171 189.366907 
L 108.130411 188.883689 
L 108.335031 188.996423 
L 108.74427 190.030539 
L 109.358129 191.868376 
L 109.562749 192.133669 
L 109.767369 192.134825 
L 110.176608 191.863398 
L 110.381228 191.904178 
L 110.790467 192.495654 
L 111.199707 192.963184 
L 111.404327 192.799363 
L 112.018186 191.371683 
L 112.632045 190.003186 
L 113.450524 188.994563 
L 113.859763 188.518384 
L 114.064383 188.446178 
L 115.292101 188.885952 
L 116.11058 190.190841 
L 116.3152 190.019276 
L 116.929059 189.130729 
L 117.133679 189.173117 
L 117.338299 189.514286 
L 117.747538 191.080545 
L 118.361397 194.012938 
L 118.566017 194.455477 
L 118.770637 194.45764 
L 118.975256 194.094195 
L 119.384496 192.732386 
L 119.998355 190.382016 
L 120.407595 189.578899 
L 120.816834 188.692665 
L 121.226073 187.797681 
L 121.430693 187.860333 
L 121.839933 188.861816 
L 122.249172 189.95059 
L 122.658412 190.420231 
L 123.067651 190.742192 
L 123.68151 191.471142 
L 123.88613 191.427497 
L 124.295369 190.848741 
L 124.704609 190.23871 
L 125.523088 189.522331 
L 126.341567 187.366405 
L 126.546186 187.242056 
L 126.750806 187.312753 
L 127.160046 187.804016 
L 127.773905 189.068177 
L 127.978524 189.18262 
L 128.592384 188.961778 
L 128.797003 189.118007 
L 129.206243 189.894826 
L 130.024722 192.094347 
L 130.433961 192.499275 
L 130.638581 192.514913 
L 130.843201 192.331582 
L 131.25244 191.446353 
L 132.684778 186.768995 
L 133.094018 186.535381 
L 133.912497 186.157556 
L 134.526356 185.606507 
L 134.730975 185.661415 
L 135.140215 186.048643 
L 135.344835 186.016261 
L 135.754074 185.154715 
L 135.958694 184.695533 
L 136.163313 184.509486 
L 136.367933 184.69674 
L 137.186412 186.81249 
L 137.391032 186.96374 
L 138.004891 186.924017 
L 138.41413 186.62061 
L 139.02799 185.918914 
L 139.232609 185.9076 
L 139.437229 186.119693 
L 140.051088 187.155066 
L 140.255708 187.101214 
L 140.664947 186.162333 
L 141.483426 183.83097 
L 141.892666 183.250103 
L 142.506525 182.883038 
L 142.711145 182.947903 
L 143.120384 183.585691 
L 143.529624 184.176564 
L 144.143483 184.582195 
L 144.961962 186.074137 
L 145.371201 186.156198 
L 145.575821 186.476198 
L 146.3943 188.850854 
L 146.59892 189.015028 
L 147.008159 189.069484 
L 147.417398 189.601275 
L 147.826638 190.037981 
L 148.031258 189.869383 
L 148.440497 188.553683 
L 148.849737 186.936386 
L 149.054356 186.538448 
L 149.668215 185.983879 
L 150.691314 183.695961 
L 150.895934 183.78999 
L 151.305173 184.719065 
L 152.123652 187.910666 
L 152.942131 191.147321 
L 153.146751 191.386164 
L 153.351371 191.178396 
L 154.374469 188.607284 
L 154.783709 188.463073 
L 155.192948 188.592652 
L 155.397568 188.427423 
L 155.806807 187.199014 
L 156.216047 185.752327 
L 156.625286 185.130831 
L 157.034526 185.061039 
L 157.239145 184.805149 
L 158.057624 182.817972 
L 158.262244 182.950518 
L 159.694582 186.738322 
L 160.103822 187.793708 
L 160.513061 188.234488 
L 160.9223 188.38433 
L 161.33154 188.434613 
L 161.740779 189.141388 
L 162.354639 190.185561 
L 163.173117 191.155919 
L 163.582357 191.457013 
L 163.786977 191.474612 
L 163.991596 191.619326 
L 164.400836 192.75451 
L 164.810075 193.94928 
L 165.014695 194.015654 
L 165.219315 193.676194 
L 165.833174 191.567233 
L 166.447033 189.518258 
L 166.856273 188.999842 
L 167.470132 189.013922 
L 169.10709 189.060333 
L 169.311709 188.926631 
L 169.720949 188.23142 
L 170.334808 186.765324 
L 170.948667 184.867299 
L 171.153287 184.891586 
L 171.562526 185.652113 
L 172.585625 187.747901 
L 172.790245 187.7211 
L 173.199484 186.951723 
L 173.813343 185.658449 
L 174.222583 185.29953 
L 175.450301 185.277305 
L 176.06416 185.960397 
L 176.4734 186.696135 
L 177.087259 188.378749 
L 177.291879 188.46785 
L 177.496498 188.213922 
L 178.110357 186.811886 
L 178.314977 186.658222 
L 178.724217 186.659982 
L 180.361174 185.844043 
L 180.565794 186.042107 
L 180.975034 187.238083 
L 181.384273 188.484192 
L 181.588893 188.721577 
L 181.793513 188.708453 
L 183.225851 187.556273 
L 183.63509 187.076424 
L 184.453569 185.766205 
L 184.658189 185.873709 
L 185.067428 186.337719 
L 185.476668 186.479215 
L 185.885907 186.463728 
L 186.499766 186.268932 
L 186.704386 186.305237 
L 186.909006 186.203062 
L 187.318245 185.373245 
L 187.727485 184.534276 
L 187.932104 184.423654 
L 188.136724 184.621667 
L 188.545964 185.759819 
L 189.159823 187.595644 
L 189.364442 187.927662 
L 189.569062 187.999365 
L 189.773682 187.783501 
L 190.182921 186.634589 
L 190.592161 185.320448 
L 191.0014 184.674565 
L 191.41064 184.539907 
L 191.615259 184.729172 
L 193.661457 188.948906 
L 194.070696 188.944732 
L 194.479936 188.823601 
L 194.684555 188.943727 
L 195.298415 189.702444 
L 195.503034 189.662721 
L 195.912274 189.057919 
L 196.321513 187.883765 
L 197.344612 184.202208 
L 197.549232 184.013698 
L 197.958471 183.995998 
L 198.36771 183.512831 
L 198.77695 183.012919 
L 199.186189 182.704082 
L 199.800049 181.894579 
L 200.004668 181.974026 
L 200.413908 182.982699 
L 201.027767 184.520599 
L 201.437006 185.213144 
L 202.255485 187.042584 
L 202.460105 186.815708 
L 202.869344 185.019203 
L 203.278584 182.66104 
L 203.483204 181.968344 
L 203.687823 181.706018 
L 203.892443 181.719746 
L 204.301683 182.049953 
L 204.710922 182.757935 
L 205.120161 183.643164 
L 205.324781 183.813522 
L 205.529401 183.655785 
L 205.93864 182.588029 
L 206.34788 181.546622 
L 206.5525 181.371135 
L 206.961739 181.522385 
L 207.370978 181.593636 
L 207.780218 181.431575 
L 208.189457 180.962889 
L 208.598697 180.590092 
L 208.803317 180.767288 
L 209.212556 181.783253 
L 210.440274 185.351522 
L 210.849514 185.918863 
L 211.054134 185.857669 
L 211.667993 185.381742 
L 212.077232 185.269008 
L 212.486472 184.686381 
L 213.100331 183.543905 
L 213.71419 182.907979 
L 214.328049 182.016062 
L 214.737289 181.95346 
L 215.351148 181.887841 
L 215.760387 181.310594 
L 216.169627 180.625089 
L 216.783486 180.18979 
L 216.988106 180.140111 
L 217.192725 180.317509 
L 217.806584 181.40412 
L 218.011204 181.448017 
L 218.215824 181.219582 
L 218.625063 179.991626 
L 219.238923 177.62069 
L 219.648162 176.774179 
L 219.852782 176.635097 
L 220.262021 176.625996 
L 220.466641 176.315298 
L 221.0805 174.459712 
L 221.28512 174.388662 
L 221.694359 174.5555 
L 221.898979 174.285934 
L 222.308218 173.086991 
L 222.922078 170.463988 
L 223.331317 167.318144 
L 225.172895 147.702365 
L 225.991374 133.415157 
L 227.014472 115.269145 
L 227.423712 111.044131 
L 227.628331 110.050895 
L 227.832951 109.917796 
L 228.037571 110.627036 
L 228.44681 114.294262 
L 228.85605 120.561411 
L 231.106867 161.626431 
L 231.925346 172.318921 
L 232.334585 175.467731 
L 233.766923 182.035974 
L 235.199261 184.074188 
L 235.81312 185.269813 
L 236.01774 185.325979 
L 236.836219 184.843063 
L 237.245459 184.047689 
L 237.654698 183.251209 
L 237.859318 183.183227 
L 238.063937 183.431272 
L 238.677797 184.683012 
L 239.291656 184.992101 
L 239.700895 185.071849 
L 240.110135 184.880976 
L 240.519374 184.411033 
L 241.337853 182.739179 
L 241.542473 182.677482 
L 241.951712 182.958815 
L 242.565571 183.499858 
L 242.974811 183.74202 
L 243.38405 184.750844 
L 243.99791 186.569724 
L 244.202529 186.782119 
L 244.407149 186.70946 
L 244.816388 185.945614 
L 245.225628 185.276199 
L 245.430248 185.20002 
L 245.634867 185.353936 
L 246.044107 186.320221 
L 246.453346 187.364042 
L 246.657966 187.565676 
L 247.067205 187.38692 
L 247.271825 187.310943 
L 247.476445 187.38511 
L 248.090304 188.127586 
L 248.704163 188.777441 
L 249.113403 188.936134 
L 249.727262 188.504557 
L 250.341121 188.911546 
L 250.545741 188.586065 
L 251.1596 186.927738 
L 251.568839 186.701817 
L 251.978079 186.691308 
L 252.387318 186.422597 
L 252.796558 186.228203 
L 253.001177 186.365425 
L 253.410417 187.049422 
L 254.024276 188.385286 
L 254.228896 188.47494 
L 254.433516 188.228605 
L 256.070473 183.761429 
L 256.684333 180.867804 
L 256.888952 180.328118 
L 257.093572 180.172392 
L 257.298192 180.376692 
L 257.707431 181.500965 
L 258.32129 183.26735 
L 258.73053 183.592227 
L 259.344389 183.781844 
L 259.753628 183.876225 
L 260.367488 184.355068 
L 260.776727 184.2274 
L 261.185967 184.001982 
L 261.390586 183.728041 
L 262.004445 182.052165 
L 262.413685 181.209828 
L 262.618305 181.215007 
L 263.436784 182.409726 
L 263.641403 182.402636 
L 264.255262 182.076955 
L 264.664502 182.245754 
L 265.073741 182.727916 
L 265.482981 183.233811 
L 266.09684 183.577293 
L 266.506079 183.865615 
L 266.915319 184.01581 
L 267.119939 184.292064 
L 268.143037 186.474639 
L 268.552277 186.498121 
L 269.575375 186.053068 
L 270.393854 184.886608 
L 270.598474 185.022572 
L 271.416953 186.205878 
L 271.621573 186.118034 
L 272.030812 185.489498 
L 272.644671 184.167312 
L 272.849291 184.038839 
L 273.053911 184.228456 
L 273.66777 185.37777 
L 274.281629 185.556475 
L 274.690869 186.313835 
L 275.304728 187.785814 
L 275.713967 188.597278 
L 276.737066 191.267245 
L 276.941686 191.08673 
L 277.146305 190.420282 
L 278.169404 185.061441 
L 278.374024 184.957657 
L 278.783263 185.377418 
L 279.397122 186.416613 
L 279.601742 186.493646 
L 279.806362 186.223175 
L 280.420221 184.739279 
L 280.624841 184.652239 
L 281.2387 184.702019 
L 281.647939 184.639467 
L 281.852559 184.744659 
L 282.057179 185.091661 
L 283.080277 188.361401 
L 283.489517 188.677429 
L 284.307996 189.006329 
L 285.126475 188.14951 
L 286.354193 188.110943 
L 287.377292 188.831043 
L 287.581911 188.610553 
L 287.991151 187.273332 
L 288.60501 184.52427 
L 289.014249 183.819958 
L 289.218869 183.790492 
L 290.651207 184.476853 
L 290.855827 184.355168 
L 291.265066 183.838311 
L 291.469686 183.764094 
L 291.674306 184.019078 
L 292.083545 185.509058 
L 292.902024 189.342017 
L 293.311264 190.158358 
L 293.515883 190.137994 
L 293.720503 189.670515 
L 294.743602 185.52887 
L 294.948221 185.545312 
L 296.17594 186.316952 
L 296.994419 186.617342 
L 297.403658 186.412188 
L 298.017517 185.738449 
L 298.631377 184.754313 
L 299.040616 184.708204 
L 299.654475 184.979782 
L 300.063715 185.45772 
L 300.882194 187.13978 
L 301.086813 187.181817 
L 301.496053 186.648366 
L 301.905292 186.03376 
L 302.109912 185.922182 
L 302.928391 186.011786 
L 303.54225 185.729901 
L 303.951489 185.094376 
L 304.974588 182.890531 
L 305.383828 182.427929 
L 305.793067 182.33566 
L 306.406926 182.495408 
L 306.816166 182.557457 
L 307.225405 182.15077 
L 307.634645 181.771185 
L 307.839264 181.794466 
L 308.248504 182.020185 
L 308.453123 181.855157 
L 309.476222 179.815837 
L 309.680842 179.835347 
L 309.885462 180.154844 
L 310.70394 182.230468 
L 310.90856 182.088671 
L 311.11318 181.564221 
L 311.931659 178.474995 
L 312.545518 177.630948 
L 312.954757 177.266901 
L 313.159377 177.250609 
L 313.568617 177.6223 
L 314.182476 178.64651 
L 314.591715 180.109891 
L 315.000955 181.751625 
L 315.410194 182.480675 
L 315.819434 182.463378 
L 316.024053 182.468809 
L 316.433293 182.987878 
L 316.842532 183.988959 
L 317.251772 185.191774 
L 317.456391 185.480045 
L 317.661011 185.432528 
L 318.070251 184.626746 
L 318.47949 183.557733 
L 318.68411 183.328695 
L 318.88873 183.456263 
L 319.297969 184.517682 
L 319.707208 185.744784 
L 319.911828 186.047688 
L 320.116448 185.998009 
L 320.321068 185.607311 
L 320.730307 184.037934 
L 321.344166 181.44852 
L 322.367265 178.446586 
L 322.571885 178.270696 
L 322.776504 178.426774 
L 323.185744 179.094832 
L 323.390364 179.162261 
L 324.208842 178.64641 
L 324.413462 178.892343 
L 325.027321 180.098879 
L 325.231941 180.217345 
L 325.436561 180.082638 
L 325.8458 179.109665 
L 326.459659 177.506398 
L 327.073519 176.817624 
L 327.482758 176.241735 
L 327.891997 174.813753 
L 328.301237 173.328851 
L 328.505857 172.936142 
L 328.710476 172.789819 
L 328.915096 172.852673 
L 329.324336 173.498656 
L 329.733575 174.079171 
L 329.938195 173.972773 
L 330.347434 173.019059 
L 330.756674 172.017777 
L 331.165913 171.532095 
L 331.575153 171.334987 
L 332.393631 171.238645 
L 333.007491 170.532573 
L 334.235209 168.331343 
L 334.849068 166.279804 
L 335.462927 164.584217 
L 336.895265 161.295369 
L 338.122984 155.205315 
L 338.736843 151.1933 
L 339.350702 147.500379 
L 339.964561 144.025786 
L 340.78304 137.576864 
L 341.396899 131.026975 
L 342.010759 122.872057 
L 342.624618 111.556413 
L 343.238477 95.302392 
L 344.056956 66.062181 
L 345.284674 18.92531 
L 345.693914 8.897761 
L 346.103153 3.515387 
L 346.307773 3.00024 
L 346.512393 4.074834 
L 346.717012 6.748271 
L 347.126252 16.487097 
L 347.944731 45.85749 
L 348.76321 72.592461 
L 349.172449 81.10509 
L 349.581689 85.719242 
L 349.990928 87.454653 
L 350.195548 87.400498 
L 350.400167 86.637808 
L 350.809407 82.758389 
L 351.218646 75.840831 
L 351.832506 59.46769 
L 353.469463 8.347616 
L 353.674083 6.089113 
L 353.878703 5.463696 
L 354.083323 6.339673 
L 354.287942 8.623116 
L 354.697182 17.567875 
L 355.311041 40.259756 
L 356.33414 81.607566 
L 356.947999 97.030663 
L 357.357238 102.287731 
L 357.561858 103.549377 
L 357.766478 104.000062 
L 357.971097 103.765141 
L 358.175717 102.964387 
L 358.584957 99.660303 
L 359.198816 90.400673 
L 360.221914 74.143183 
L 360.631154 69.096447 
L 361.040393 66.799729 
L 361.245013 66.966216 
L 361.449633 67.943362 
L 361.858872 72.083699 
L 363.29121 92.891784 
L 363.49583 93.831067 
L 363.70045 93.969445 
L 363.905069 93.43157 
L 364.314309 91.004569 
L 364.928168 86.968669 
L 365.132788 86.748883 
L 365.337408 87.477682 
L 365.746647 91.755996 
L 366.360506 102.786285 
L 367.178985 121.742353 
L 368.202084 145.559664 
L 368.815943 154.863644 
L 369.634422 162.894966 
L 370.452901 169.157188 
L 371.06676 172.935841 
L 372.089858 177.226021 
L 372.499098 178.608547 
L 373.112957 179.627478 
L 373.726816 180.189388 
L 374.340675 181.099205 
L 374.545295 181.172819 
L 374.749915 180.98617 
L 375.159154 179.770934 
L 375.568394 178.594417 
L 375.773014 178.461117 
L 375.977633 178.607742 
L 376.796112 179.78089 
L 377.205352 179.934555 
L 378.22845 179.848068 
L 378.63769 179.356302 
L 379.046929 178.730482 
L 379.251549 178.558716 
L 379.456169 178.603971 
L 379.660788 178.983707 
L 380.683887 182.226898 
L 380.888507 182.317508 
L 381.706986 182.021694 
L 383.753183 180.707754 
L 384.571662 179.721456 
L 384.776282 179.451437 
L 384.980901 179.37018 
L 385.185521 179.548433 
L 385.59476 180.536641 
L 386.20862 182.286835 
L 386.617859 182.64505 
L 387.231718 183.068632 
L 387.640958 183.709839 
L 388.050197 184.305187 
L 388.254817 184.289047 
L 388.459437 184.041001 
L 388.868676 183.044698 
L 389.482535 181.594592 
L 389.891775 181.26886 
L 391.119493 181.098351 
L 392.551831 182.37845 
L 392.961071 182.263001 
L 393.57493 181.650556 
L 394.188789 180.595874 
L 394.393409 180.524674 
L 395.007268 180.797559 
L 395.416507 181.204548 
L 396.439606 182.849399 
L 397.258085 183.318689 
L 397.871944 184.03899 
L 398.076564 184.01762 
L 398.485803 183.182473 
L 398.895043 182.478765 
L 399.099662 182.606634 
L 399.508902 183.133346 
L 400.327381 183.474214 
L 400.532001 183.369575 
L 400.94124 182.587074 
L 401.759719 180.549815 
L 401.964339 180.570431 
L 402.782818 181.535157 
L 402.987437 181.388382 
L 403.805916 180.291412 
L 404.624395 179.903681 
L 405.033634 180.341494 
L 405.852113 181.61918 
L 406.261353 182.821945 
L 406.670592 184.135785 
L 406.875212 184.411183 
L 407.079832 184.386344 
L 407.489071 183.787375 
L 407.898311 182.480675 
L 408.30755 181.099356 
L 408.71679 180.574806 
L 409.126029 180.665365 
L 409.944508 181.203894 
L 410.149128 181.181719 
L 410.558367 180.753209 
L 410.967607 180.201255 
L 411.172226 180.125881 
L 411.376846 180.260086 
L 411.786085 181.05742 
L 412.399945 182.52774 
L 413.013804 183.199116 
L 413.218424 183.187853 
L 413.423043 182.975006 
L 413.832283 181.880701 
L 414.446142 179.882914 
L 414.650762 179.879445 
L 414.855381 180.379155 
L 415.67386 183.56965 
L 415.87848 183.773748 
L 416.0831 183.766005 
L 416.492339 183.323415 
L 418.333917 180.223782 
L 418.947776 179.726334 
L 419.152396 179.735083 
L 419.357015 179.968948 
L 419.766255 181.124699 
L 420.175494 182.308507 
L 420.380114 182.475949 
L 420.789353 182.110141 
L 421.198593 181.738501 
L 421.607832 181.608671 
L 421.812452 181.635472 
L 422.221692 182.05478 
L 422.630931 182.702724 
L 422.835551 182.77493 
L 423.04017 182.512706 
L 423.44941 181.609224 
L 423.65403 181.436603 
L 424.472509 181.6939 
L 424.881748 181.338401 
L 425.290987 180.546094 
L 426.109466 178.881281 
L 426.314086 178.788459 
L 426.518706 178.94333 
L 427.951044 180.908483 
L 428.155664 181.063303 
L 428.360283 181.009199 
L 429.383382 179.721557 
L 429.792621 179.903832 
L 430.201861 180.45292 
L 431.02034 182.489575 
L 431.22496 182.520298 
L 431.634199 182.009676 
L 432.248058 181.103178 
L 432.452678 180.918439 
L 432.657298 180.915924 
L 433.271157 181.348005 
L 433.680396 181.263228 
L 434.089636 180.949765 
L 434.498875 180.105717 
L 435.317354 177.306875 
L 435.521974 177.159396 
L 436.135833 178.219207 
L 436.340453 178.111702 
L 436.749692 177.4624 
L 436.954312 177.412419 
L 437.568171 178.075951 
L 437.977411 178.400778 
L 438.18203 178.410835 
L 438.38665 178.272758 
L 438.795889 177.547931 
L 439.205129 176.56802 
L 439.409749 176.379007 
L 439.614368 176.449201 
L 440.023608 176.9913 
L 441.251326 178.94881 
L 441.455946 178.828936 
L 441.865185 178.002287 
L 442.888284 175.637184 
L 443.297523 175.219384 
L 443.706763 175.091264 
L 444.116002 175.28078 
L 444.729861 175.06567 
L 444.934481 175.265645 
L 445.75296 177.112884 
L 445.95758 176.99648 
L 446.980678 175.156833 
L 447.389918 174.245708 
L 447.799157 173.490259 
L 448.003777 173.694608 
L 448.822256 175.715776 
L 449.026876 175.845053 
L 449.231495 175.638039 
L 449.640735 174.411339 
L 450.459214 171.642315 
L 450.663834 171.276759 
L 450.868453 171.306175 
L 451.482312 172.191906 
L 451.891552 172.441862 
L 452.300791 172.378305 
L 453.11927 171.964678 
L 453.733129 172.434018 
L 453.937749 172.210813 
L 454.346989 170.817275 
L 454.756228 169.473517 
L 454.960848 169.450035 
L 455.574707 170.434421 
L 455.779327 170.595628 
L 455.983946 170.89994 
L 456.802425 173.035803 
L 457.007045 172.926086 
L 458.030144 171.282793 
L 458.644003 170.678042 
L 459.257862 169.932901 
L 459.462482 169.983686 
L 460.076341 170.826929 
L 460.280961 170.79862 
L 461.713299 169.487898 
L 462.122538 169.052901 
L 462.327158 169.142404 
L 462.736397 169.87769 
L 463.145637 170.624993 
L 463.350257 170.754321 
L 463.964116 170.577225 
L 464.373355 170.472385 
L 465.191834 170.654811 
L 465.601074 170.006263 
L 466.010313 168.792084 
L 466.828792 165.818157 
L 467.238031 165.060848 
L 467.442651 165.0346 
L 467.647271 165.228943 
L 468.05651 166.162293 
L 468.67037 167.493933 
L 469.488848 169.005082 
L 469.693468 168.915176 
L 469.898088 168.523926 
L 470.307327 166.860218 
L 470.921187 164.018988 
L 471.330426 162.903363 
L 472.353525 161.233722 
L 472.762764 160.68926 
L 472.967384 160.718022 
L 473.376623 161.729812 
L 473.785863 162.718926 
L 473.990482 162.818888 
L 474.195102 162.67528 
L 475.013581 161.417506 
L 475.83206 160.858612 
L 476.650539 161.299241 
L 477.059778 161.669775 
L 477.469018 162.610265 
L 479.105976 167.507509 
L 479.310595 167.39749 
L 479.719835 166.393694 
L 480.129074 165.294613 
L 480.538314 164.631332 
L 480.947553 163.277266 
L 482.584511 155.095297 
L 482.99375 154.199307 
L 483.19837 154.056202 
L 484.016849 154.137158 
L 484.221469 153.939144 
L 484.630708 152.920464 
L 485.039948 151.728963 
L 485.244567 151.445317 
L 485.449187 151.374871 
L 485.858427 151.582338 
L 486.472286 152.281169 
L 487.086145 152.947969 
L 487.495384 153.041696 
L 488.313863 152.306763 
L 488.518483 152.091602 
L 488.927722 151.152822 
L 489.950821 147.595565 
L 491.587779 140.988352 
L 492.406258 136.875369 
L 492.610878 136.675344 
L 492.815497 136.905488 
L 493.224737 138.194237 
L 493.838596 140.343224 
L 494.043216 140.702143 
L 494.247835 140.792601 
L 494.861695 140.401099 
L 495.066314 140.080245 
L 495.270934 139.342898 
L 496.089413 134.996954 
L 496.294033 134.974628 
L 497.112512 136.274037 
L 497.317131 136.326834 
L 497.521751 136.243314 
L 497.93099 135.725502 
L 498.54485 134.370128 
L 499.158709 133.01737 
L 499.363329 132.926358 
L 499.977188 133.378803 
L 500.181807 133.175258 
L 500.591047 131.720174 
L 501.000286 130.379433 
L 501.409526 130.040979 
L 501.614146 129.980036 
L 501.818765 129.754719 
L 502.228005 128.683946 
L 503.455723 125.315199 
L 503.864963 124.605507 
L 504.683441 123.650184 
L 505.297301 122.386124 
L 507.138878 117.910954 
L 507.548118 117.511155 
L 507.957357 117.286894 
L 508.366597 116.700948 
L 508.775836 116.071106 
L 509.185075 115.694135 
L 509.389695 115.324708 
L 509.798935 113.926795 
L 510.412794 110.699443 
L 510.822033 108.688633 
L 511.231273 107.886371 
L 511.845132 107.604837 
L 512.254371 106.692305 
L 513.48209 103.262363 
L 515.528287 100.135224 
L 516.346766 98.124968 
L 516.756005 97.759713 
L 517.165245 98.003887 
L 517.369865 98.140757 
L 517.574484 98.06493 
L 517.779104 97.685446 
L 518.188343 96.050802 
L 518.802203 93.409043 
L 519.211442 92.666215 
L 520.234541 91.37812 
L 520.8484 91.213897 
L 521.05302 90.879717 
L 521.462259 89.516902 
L 522.894597 82.572393 
L 524.326935 78.046989 
L 525.145414 73.339764 
L 525.759273 70.1814 
L 527.191611 64.558373 
L 527.805471 63.593496 
L 528.41933 62.37635 
L 528.828569 62.019091 
L 529.237809 60.928105 
L 530.056288 57.976604 
L 530.874766 55.764411 
L 531.488626 53.722778 
L 531.897865 53.002879 
L 532.307105 52.752571 
L 532.511724 52.674834 
L 532.716344 52.418995 
L 532.920964 51.862364 
L 534.353302 46.013266 
L 534.557922 45.665108 
L 535.171781 45.35617 
L 536.194879 43.378497 
L 537.013358 43.795392 
L 537.217978 43.49822 
L 537.627217 42.165927 
L 538.241077 39.626444 
L 538.445696 39.322283 
L 538.650316 39.450705 
L 539.264175 41.000019 
L 539.878034 42.923236 
L 540.287274 44.650351 
L 540.696513 47.708954 
L 541.105753 53.999032 
L 541.514992 64.768605 
L 542.128851 88.404545 
L 542.742711 114.173684 
L 542.94733 119.136648 
L 543.15195 121.307759 
L 543.35657 121.03774 
L 543.56119 118.923247 
L 543.970429 111.283679 
L 544.993528 88.916374 
L 545.402767 83.534102 
L 545.812007 80.961985 
L 546.016626 80.600502 
L 546.221246 80.670495 
L 546.425866 81.074367 
L 546.835105 82.981896 
L 547.448964 87.994992 
L 548.062824 94.746415 
L 548.676683 104.002425 
L 549.904401 123.961736 
L 550.72288 134.421869 
L 551.950598 145.349481 
L 552.359838 147.561674 
L 553.178317 150.942238 
L 554.201415 156.513976 
L 555.019894 161.265702 
L 555.429134 162.745626 
L 555.838373 163.406694 
L 556.247613 163.978007 
L 556.656852 165.400659 
L 557.679951 170.400883 
L 557.88457 170.853579 
L 558.08919 170.916784 
L 559.521528 169.18253 
L 559.726148 169.116459 
L 560.544627 169.373756 
L 560.749247 169.094435 
L 561.363106 167.794473 
L 561.567725 167.829621 
L 561.772345 168.242292 
L 562.590824 170.728576 
L 563.000064 171.062152 
L 563.204683 171.085483 
L 563.409303 170.975515 
L 564.227782 170.045785 
L 564.432402 169.97363 
L 564.637021 170.089733 
L 565.046261 171.06175 
L 565.4555 172.211818 
L 565.66012 172.490586 
L 565.86474 172.527997 
L 566.478599 172.074446 
L 566.683219 172.185621 
L 566.887838 172.575162 
L 568.729416 178.695435 
L 569.343275 180.726811 
L 569.752515 181.159796 
L 570.161754 181.038967 
L 570.775613 180.347226 
L 571.184853 179.947578 
L 571.389472 180.14529 
L 572.207951 181.696163 
L 572.412571 181.483819 
L 573.23105 179.824033 
L 573.43567 179.705064 
L 573.640289 179.808093 
L 574.458768 181.01473 
L 575.277247 182.091537 
L 575.481867 182.238413 
L 575.686487 182.224183 
L 575.891106 182.01752 
L 576.300346 181.064158 
L 576.709585 179.482361 
L 577.528064 175.825242 
L 578.141923 174.161635 
L 578.551163 173.626173 
L 578.755783 173.668009 
L 579.165022 174.306248 
L 580.188121 176.530358 
L 580.80198 177.233211 
L 581.211219 178.053676 
L 581.825078 179.579357 
L 582.029698 179.863958 
L 582.234318 179.946975 
L 582.438938 179.798691 
L 583.052797 178.638968 
L 583.871276 176.488472 
L 584.075895 176.538554 
L 584.485135 177.728195 
L 584.894374 178.63218 
L 585.508234 178.731438 
L 585.917473 179.599571 
L 586.735952 181.719142 
L 587.349811 183.148331 
L 587.554431 183.243969 
L 587.759051 183.046055 
L 588.577529 181.290632 
L 589.600628 178.467704 
L 589.805248 178.43854 
L 590.009868 178.652092 
L 590.419107 179.618276 
L 591.032966 181.159193 
L 591.237586 181.227376 
L 591.646825 180.915975 
L 592.465304 179.900061 
L 593.693023 178.088371 
L 594.511502 177.715926 
L 594.920741 177.556077 
L 595.125361 177.789741 
L 595.5346 179.224964 
L 595.94384 180.982348 
L 596.148459 181.464812 
L 596.353079 181.568947 
L 596.557699 181.300437 
L 597.376178 179.254681 
L 597.580797 179.428659 
L 598.194657 180.630469 
L 598.603896 180.899281 
L 598.808516 181.022373 
L 599.217755 181.671776 
L 599.626995 182.32334 
L 600.036234 182.651436 
L 600.240854 182.662649 
L 601.877812 181.0094 
L 602.287051 180.443216 
L 602.90091 179.372695 
L 603.10553 179.248546 
L 603.31015 179.267805 
L 603.514769 179.409904 
L 604.537868 180.662801 
L 605.356347 180.85116 
L 605.765586 180.303832 
L 606.379446 179.344436 
L 606.584065 179.190269 
L 606.788685 179.231852 
L 606.993305 179.482361 
L 607.811784 181.259708 
L 608.630263 181.931034 
L 609.244122 182.722033 
L 610.062601 184.760498 
L 610.26722 184.76256 
L 610.67646 184.090983 
L 611.699559 181.922687 
L 612.722657 177.952054 
L 612.927277 177.778126 
L 613.131897 177.888446 
L 614.359615 179.546975 
L 614.768854 179.751877 
L 614.973474 179.663229 
L 615.382714 179.011714 
L 615.791953 178.192305 
L 615.996573 178.026422 
L 616.610432 178.125982 
L 617.224291 177.654581 
L 617.428911 177.810558 
L 619.065869 181.189966 
L 619.475108 182.007363 
L 619.679728 182.13659 
L 619.884348 181.974277 
L 620.293587 181.019557 
L 620.907446 178.878867 
L 621.521305 176.609654 
L 621.725925 176.403092 
L 621.930545 176.498026 
L 622.749024 177.898352 
L 623.362883 177.605958 
L 623.976742 177.821118 
L 624.795221 177.587554 
L 625.40908 177.126813 
L 625.6137 177.082966 
L 625.81832 177.161458 
L 626.227559 177.77003 
L 626.636799 178.40118 
L 627.250658 178.799571 
L 627.659897 179.087088 
L 628.273756 179.813323 
L 628.478376 179.622751 
L 628.887616 178.305643 
L 629.501475 175.872005 
L 630.115334 174.15359 
L 630.524573 173.663533 
L 630.933813 173.100869 
L 631.343052 172.249832 
L 631.547672 172.112912 
L 631.956912 172.291064 
L 632.161531 172.216344 
L 632.570771 171.514245 
L 632.98001 170.86972 
L 633.38925 170.747231 
L 633.798489 170.905018 
L 634.207729 171.520128 
L 634.616968 172.035527 
L 634.821588 172.045784 
L 635.230827 171.687218 
L 635.844686 171.121838 
L 636.049306 171.122743 
L 636.458545 171.320656 
L 636.663165 171.201787 
L 637.890884 169.081562 
L 638.300123 168.323247 
L 638.504743 168.181198 
L 638.709362 168.277339 
L 639.527841 169.362744 
L 639.937081 170.533629 
L 640.34632 171.894835 
L 640.55094 172.205986 
L 640.960179 172.258933 
L 641.369419 172.188588 
L 641.983278 171.946224 
L 642.392518 171.923698 
L 642.597137 171.722868 
L 643.006377 170.588136 
L 643.620236 168.68111 
L 644.234095 167.715026 
L 644.643335 167.48805 
L 644.847954 167.634725 
L 645.257194 168.521412 
L 645.666433 169.679626 
L 645.871053 169.900418 
L 646.075673 169.741273 
L 646.484912 168.607596 
L 647.098771 166.965863 
L 648.32649 165.292702 
L 649.144969 163.977102 
L 649.349588 164.063639 
L 649.758828 164.835933 
L 650.168067 165.469496 
L 650.372687 165.425247 
L 650.986546 164.919955 
L 651.395786 165.1235 
L 651.805025 165.608176 
L 652.418884 166.806667 
L 652.623504 166.896422 
L 652.828124 166.653858 
L 653.851222 164.603727 
L 654.465081 163.792514 
L 654.874321 162.750051 
L 655.89742 158.914528 
L 656.102039 158.786106 
L 656.306659 158.955609 
L 656.715898 160.355583 
L 657.125138 161.999379 
L 657.534377 162.631685 
L 657.738997 162.659693 
L 657.943617 162.522571 
L 658.352856 161.712867 
L 658.762096 161.039379 
L 658.966715 161.061805 
L 659.375955 161.375419 
L 659.580575 161.338713 
L 659.989814 160.802597 
L 660.808293 158.795458 
L 661.012913 158.698613 
L 661.217532 158.846495 
L 662.036011 160.193019 
L 662.445251 160.165011 
L 662.85449 160.015822 
L 663.26373 159.44999 
L 663.877589 158.494968 
L 664.286828 158.381631 
L 664.696068 158.548067 
L 665.105307 159.198525 
L 665.923786 160.517846 
L 666.128406 160.617305 
L 666.333026 160.44222 
L 666.742265 159.232064 
L 667.151505 157.721015 
L 667.356124 157.427363 
L 667.560744 157.472769 
L 667.969983 157.718953 
L 668.174603 157.565842 
L 668.788462 156.600563 
L 668.993082 156.529614 
L 669.606941 156.710682 
L 669.811561 156.564711 
L 670.63004 155.603857 
L 671.039279 155.400966 
L 671.448519 155.325039 
L 672.062378 154.918854 
L 672.471617 154.767402 
L 672.676237 154.467465 
L 673.494716 152.277397 
L 673.903956 152.015374 
L 674.313195 151.744802 
L 674.927054 150.854193 
L 675.336294 150.054344 
L 676.564012 146.612686 
L 677.382491 144.073605 
L 677.79173 143.952675 
L 677.99635 144.045749 
L 678.20097 144.359664 
L 678.610209 145.938042 
L 679.224068 148.858669 
L 679.633308 149.602503 
L 679.837928 149.553678 
L 680.247167 148.699021 
L 681.270266 145.861411 
L 681.884125 144.03177 
L 682.497984 141.278886 
L 683.521083 135.408318 
L 683.930322 132.160852 
L 685.15804 118.851645 
L 686.385759 104.468899 
L 686.590379 103.537108 
L 686.794998 103.510358 
L 686.999618 104.455926 
L 687.408857 108.489714 
L 688.022717 114.478498 
L 688.431956 116.333682 
L 688.841196 117.108842 
L 689.045815 117.242494 
L 689.250435 117.148465 
L 689.864294 116.10037 
L 690.478153 114.911534 
L 691.296632 112.427965 
L 691.910491 111.695646 
L 692.319731 110.458136 
L 692.72897 108.022285 
L 693.13821 103.947215 
L 694.775168 82.467553 
L 696.207506 55.315034 
L 696.616745 52.512672 
L 697.230604 49.495653 
L 697.639844 45.891029 
L 698.049083 40.561201 
L 698.458323 33.186321 
L 698.867562 22.865421 
L 699.502948 -1 
M 706.9048 -1 
L 707.461591 21.03915 
L 708.07545 37.020486 
L 708.484689 42.962407 
L 708.893929 45.995416 
L 709.303168 47.983598 
L 709.507788 48.569745 
L 709.712408 48.651706 
L 709.917027 48.194535 
L 710.326267 46.229734 
L 710.735506 43.501589 
L 711.144746 39.275771 
L 711.553985 32.901218 
L 712.167844 18.099918 
L 712.735947 -1 
M 742.361722 -1 
L 743.270043 25.048299 
L 744.088522 44.913279 
L 744.907001 57.811827 
L 745.930099 71.217427 
L 746.748578 77.974733 
L 747.567057 82.824159 
L 747.976297 84.375635 
L 748.385536 85.153963 
L 748.794776 85.216514 
L 749.204015 85.350769 
L 749.613254 85.650656 
L 749.817874 85.519317 
L 750.022494 84.919192 
L 750.431733 82.325906 
L 751.454832 74.778707 
L 751.659452 74.187985 
L 751.864071 74.146702 
L 752.068691 74.719323 
L 752.477931 77.2932 
L 753.09179 82.73375 
L 753.910269 90.601452 
L 754.319508 92.232777 
L 754.524128 92.468101 
L 754.728748 92.453016 
L 754.933367 92.152677 
L 755.547226 90.752753 
L 755.751846 90.706996 
L 755.956466 90.96374 
L 756.570325 92.773066 
L 756.979565 93.706919 
L 757.388804 94.051406 
L 757.798043 94.369143 
L 758.207283 94.913002 
L 758.411903 94.96067 
L 758.616522 94.659426 
L 759.435001 92.022545 
L 760.25348 89.744934 
L 760.66272 88.680849 
L 760.867339 88.438436 
L 761.071959 88.515872 
L 761.276579 88.914765 
L 761.890438 91.226618 
L 762.504297 93.159741 
L 763.118156 94.561928 
L 763.527396 94.801173 
L 764.345875 94.881525 
L 764.550494 94.72057 
L 764.959734 93.823122 
L 765.368973 92.728767 
L 765.573593 92.411734 
L 765.778213 92.315392 
L 766.187452 92.54971 
L 766.596692 93.258195 
L 767.210551 94.356623 
L 767.415171 94.393329 
L 768.847509 93.5792 
L 769.461368 93.013468 
L 769.870607 92.997277 
L 770.075227 92.997327 
L 770.484467 92.650527 
L 770.893706 92.304883 
L 771.302945 92.058648 
L 771.712185 91.38335 
L 772.326044 89.400899 
L 772.939903 87.542547 
L 773.144523 87.378323 
L 773.553762 87.444395 
L 774.167622 87.150693 
L 774.372241 87.397582 
L 774.986101 88.782572 
L 775.19072 88.90501 
L 775.804579 88.614074 
L 776.213819 89.286255 
L 776.623058 89.907046 
L 776.827678 89.929573 
L 777.236918 89.648341 
L 777.646157 89.117153 
L 778.260016 88.122107 
L 778.464636 88.068153 
L 778.669256 88.176111 
L 779.078495 88.662144 
L 779.283115 88.688995 
L 779.487735 88.305941 
L 780.101594 86.392177 
L 780.715453 85.311901 
L 782.147791 81.972418 
L 782.55703 81.06607 
L 783.375509 78.14494 
L 784.193988 75.133503 
L 784.807847 71.197012 
L 786.444805 59.954579 
L 787.058664 56.186586 
L 787.672524 52.941534 
L 788.081763 51.946337 
L 788.286383 51.72464 
L 788.491003 51.771554 
L 788.695622 52.157223 
L 789.309481 54.589604 
L 789.923341 56.511815 
L 792.378777 62.480033 
L 792.788017 64.202773 
L 793.197256 66.055594 
L 793.401876 66.542332 
L 793.606496 66.690465 
L 794.220355 66.32149 
L 794.424975 66.640182 
L 794.834214 68.343915 
L 795.448073 70.762518 
L 795.857313 72.438947 
L 796.266552 75.651617 
L 797.085031 83.403467 
L 798.312749 90.73973 
L 799.335848 97.511668 
L 799.745087 98.580128 
L 799.949707 98.638808 
L 800.358947 98.433252 
L 800.563566 98.579977 
L 801.586665 100.558958 
L 801.995904 102.314381 
L 802.609764 106.995912 
L 804.246721 120.837414 
L 804.860581 123.386501 
L 805.26982 124.16508 
L 805.47444 124.156733 
L 806.292919 123.375187 
L 806.497538 123.499386 
L 806.702158 123.905118 
L 807.316017 126.359322 
L 807.725257 127.762112 
L 808.134496 128.291288 
L 808.543736 128.445757 
L 809.566834 129.745165 
L 810.385313 131.365076 
L 810.589933 131.285831 
L 810.794553 130.860488 
L 811.408412 128.851992 
L 811.613032 128.544562 
L 811.817651 128.527818 
L 812.022271 128.788484 
L 812.63613 130.4537 
L 813.249989 131.951424 
L 813.454609 132.166333 
L 813.659229 132.183228 
L 814.273088 131.933322 
L 814.886947 132.186848 
L 815.296187 132.552807 
L 815.705426 132.886232 
L 815.910046 132.743982 
L 816.319285 131.948759 
L 816.933145 130.21712 
L 817.547004 128.468032 
L 817.956243 127.781973 
L 818.979342 127.073036 
L 819.388581 126.44616 
L 819.593201 126.378127 
L 820.41168 126.760076 
L 821.025539 127.451766 
L 821.434779 127.357938 
L 821.844018 127.07027 
L 822.253257 126.196003 
L 823.480976 122.050034 
L 823.685596 122.019362 
L 824.504074 122.647042 
L 824.708694 122.414886 
L 825.117934 121.40214 
L 826.959511 115.247926 
L 827.57337 112.705677 
L 828.801089 109.134088 
L 829.824187 103.799635 
L 831.051906 96.729419 
L 833.098103 79.86939 
L 834.325821 66.24873 
L 835.1443 57.923656 
L 836.167399 48.538218 
L 837.395117 34.632706 
L 840.080275 -1 
M 952.095177 -1 
L 954.232981 13.836941 
L 956.074559 28.692043 
L 957.711517 39.355771 
L 958.734615 46.423775 
L 960.576193 61.765062 
L 961.190052 64.537355 
L 961.803911 66.317517 
L 962.213151 68.837541 
L 963.236249 77.637888 
L 963.850108 80.803393 
L 965.691686 88.062522 
L 966.714785 93.245071 
L 967.533263 97.115037 
L 968.351742 101.034281 
L 970.602559 110.460298 
L 971.216419 113.216701 
L 971.625658 114.416198 
L 971.830278 114.657656 
L 972.648757 114.658862 
L 973.057996 115.281816 
L 973.467236 116.415995 
L 974.081095 118.839879 
L 975.308813 123.952132 
L 975.718053 124.702251 
L 976.127292 124.919926 
L 976.331912 125.229919 
L 976.741151 126.867631 
L 977.55963 130.997258 
L 977.96887 131.615535 
L 978.173489 131.616138 
L 978.787348 131.344511 
L 979.196588 131.56123 
L 979.401208 131.536842 
L 980.015067 131.107226 
L 980.219687 131.15062 
L 980.424306 131.418477 
L 980.833546 132.743328 
L 982.879743 141.548754 
L 983.084363 141.529395 
L 983.288982 141.235342 
L 983.698222 140.080446 
L 984.516701 136.73865 
L 985.33518 133.021191 
L 986.153659 128.715876 
L 986.972137 125.429291 
L 987.381377 122.182479 
L 988.609095 107.152543 
L 988.813715 106.891173 
L 989.018335 107.766748 
L 989.427574 112.319806 
L 990.450673 126.761232 
L 991.064532 132.038564 
L 991.678391 135.155847 
L 992.49687 137.718813 
L 992.90611 138.182018 
L 993.315349 137.957053 
L 993.929208 137.602408 
L 994.133828 137.092088 
L 994.543067 135.01048 
L 995.770786 127.417574 
L 996.180025 122.757463 
L 996.589265 114.712213 
L 997.203124 95.874309 
L 998.226222 58.084913 
L 998.430842 55.695071 
L 998.635462 56.707264 
L 998.840082 60.881392 
L 999.453941 83.244774 
L 1000.27242 110.225929 
L 1000.886279 123.671202 
L 1001.500138 132.128872 
L 1001.909378 135.681102 
L 1002.318617 137.866845 
L 1003.750955 142.993178 
L 1003.955575 143.071067 
L 1004.160195 142.61128 
L 1004.569434 140.303852 
L 1004.978673 136.837355 
L 1005.387913 131.766585 
L 1006.001772 121.065396 
L 1006.411012 111.239581 
L 1007.024871 90.215732 
L 1007.63873 69.120231 
L 1007.84335 65.74027 
L 1008.047969 65.51083 
L 1008.252589 68.521312 
L 1008.661829 81.735083 
L 1009.480307 112.22613 
L 1010.094167 127.668334 
L 1010.708026 138.373747 
L 1011.321885 146.673529 
L 1011.935744 151.663344 
L 1012.958843 158.478626 
L 1013.368082 159.854163 
L 1013.572702 159.940398 
L 1013.777322 159.602799 
L 1014.391181 157.222059 
L 1015.20966 153.446925 
L 1015.823519 150.427593 
L 1016.232758 146.541184 
L 1017.051237 137.649925 
L 1017.255857 136.777921 
L 1017.460477 136.773898 
L 1017.665097 137.591446 
L 1018.074336 140.994437 
L 1018.688195 149.079964 
L 1019.302054 156.791839 
L 1019.915914 161.947537 
L 1020.529773 165.420521 
L 1021.143632 167.763298 
L 1021.552871 169.676911 
L 1021.757491 170.219865 
L 1021.962111 170.342555 
L 1022.78059 169.7194 
L 1023.189829 169.843397 
L 1023.803688 169.675302 
L 1024.212928 169.114497 
L 1024.622167 168.679652 
L 1024.826787 168.761613 
L 1025.031407 169.014435 
L 1025.440646 170.06429 
L 1025.849886 171.159047 
L 1026.259125 171.545018 
L 1026.668364 171.660367 
L 1026.872984 171.976495 
L 1027.691463 173.968348 
L 1028.305322 174.099687 
L 1029.123801 174.059863 
L 1029.328421 174.274369 
L 1029.533041 174.760956 
L 1030.556139 178.592708 
L 1031.169998 178.785291 
L 1031.579238 179.77903 
L 1031.988477 180.828583 
L 1032.193097 180.964799 
L 1033.011576 180.455636 
L 1033.216196 180.506069 
L 1033.420815 180.352304 
L 1033.830055 179.370583 
L 1035.057773 175.478592 
L 1035.467013 174.955048 
L 1035.876252 174.759095 
L 1036.080872 174.924124 
L 1036.490111 175.96719 
L 1037.30859 179.045756 
L 1037.71783 179.597006 
L 1037.922449 179.516403 
L 1038.331689 179.109715 
L 1038.536309 179.08734 
L 1038.740928 179.279118 
L 1039.150168 180.389665 
L 1039.559407 181.697772 
L 1039.968647 182.296489 
L 1040.377886 182.312228 
L 1040.787126 182.275521 
L 1041.196365 182.597985 
L 1041.605605 182.883893 
L 1041.810224 182.77307 
L 1042.219464 181.901769 
L 1042.628703 181.002159 
L 1042.833323 180.898778 
L 1043.447182 181.320399 
L 1043.651802 181.063957 
L 1044.470281 178.446787 
L 1044.6749 178.420992 
L 1045.28876 179.287515 
L 1046.107239 180.314039 
L 1046.516478 180.58627 
L 1046.925717 180.596226 
L 1047.539577 180.263907 
L 1047.744196 180.356277 
L 1049.176534 182.457093 
L 1050.199633 184.880674 
L 1050.404253 184.826721 
L 1051.222732 183.548582 
L 1052.24583 183.065213 
L 1052.45045 183.265691 
L 1052.85969 184.403993 
L 1053.473549 186.233131 
L 1053.678168 186.382069 
L 1054.496647 186.262194 
L 1054.701267 186.009926 
L 1055.519746 184.494452 
L 1056.133605 184.361303 
L 1056.952084 183.44153 
L 1057.156704 183.385213 
L 1057.361324 183.555521 
L 1057.975183 184.471221 
L 1058.179802 184.351146 
L 1058.589042 183.903377 
L 1058.793662 183.97488 
L 1058.998281 184.355068 
L 1059.81676 186.915368 
L 1060.02138 186.996324 
L 1060.226 186.737065 
L 1060.635239 185.637179 
L 1061.249098 183.66911 
L 1061.658338 183.138274 
L 1061.862957 183.123591 
L 1062.272197 183.47361 
L 1062.681436 183.904484 
L 1062.886056 183.923742 
L 1063.090676 183.75097 
L 1063.704535 182.831499 
L 1063.909155 182.77835 
L 1064.318394 183.117356 
L 1064.727634 183.743981 
L 1065.750732 185.773395 
L 1066.364591 186.325048 
L 1066.569211 186.36623 
L 1066.773831 186.258926 
L 1067.38769 185.314766 
L 1067.59231 185.343829 
L 1068.615408 186.412389 
L 1069.024648 186.54589 
L 1069.638507 186.235746 
L 1070.047747 185.856412 
L 1070.456986 184.962183 
L 1070.866225 183.90911 
L 1071.070845 183.616916 
L 1071.275465 183.606759 
L 1071.889324 184.244094 
L 1072.503183 184.272302 
L 1073.935521 186.018222 
L 1074.140141 185.985086 
L 1074.754 185.493069 
L 1074.95862 185.498449 
L 1075.367859 185.828807 
L 1075.981719 186.470868 
L 1076.186338 186.461717 
L 1076.595578 185.865212 
L 1077.414057 184.330429 
L 1077.618676 184.330278 
L 1078.232536 184.903452 
L 1078.641775 184.874238 
L 1079.664874 184.386193 
L 1080.074113 184.891586 
L 1080.483353 185.506243 
L 1080.687972 185.615457 
L 1080.892592 185.479844 
L 1081.506451 184.414552 
L 1081.711071 184.437481 
L 1082.12031 185.076777 
L 1082.73417 186.442458 
L 1083.143409 186.784583 
L 1083.552649 186.891635 
L 1083.961888 187.426141 
L 1084.575747 188.289296 
L 1085.189606 188.808717 
L 1086.008085 188.626794 
L 1086.417325 188.923614 
L 1086.826564 189.381439 
L 1087.031184 189.409798 
L 1087.235804 189.108604 
L 1087.645043 187.57005 
L 1088.054283 185.884571 
L 1088.463522 185.117657 
L 1088.872761 184.927689 
L 1089.486621 184.941416 
L 1089.69124 184.714238 
L 1090.10048 183.639443 
L 1090.509719 182.555144 
L 1091.123578 181.394818 
L 1091.532818 180.522713 
L 1091.737438 180.455032 
L 1091.942057 180.696742 
L 1092.351297 181.94989 
L 1092.760536 183.24417 
L 1092.965156 183.248293 
L 1093.169776 182.713032 
L 1093.783635 180.095208 
L 1094.192874 179.441783 
L 1095.011353 178.872582 
L 1095.215973 178.933625 
L 1095.420593 179.190369 
L 1095.829832 180.261544 
L 1096.443691 182.271298 
L 1096.648311 182.524421 
L 1096.852931 182.540763 
L 1097.057551 182.36246 
L 1097.46679 181.477232 
L 1098.285269 179.047817 
L 1098.489889 178.803594 
L 1098.694508 178.800828 
L 1099.308367 179.358967 
L 1099.717607 179.410155 
L 1099.922227 179.314618 
L 1100.126846 179.030419 
L 1100.945325 176.922363 
L 1101.149945 176.863884 
L 1102.377663 177.681181 
L 1102.786903 177.700841 
L 1103.196142 177.443594 
L 1103.605382 176.827429 
L 1104.014621 175.866725 
L 1105.24234 172.046891 
L 1105.651579 171.699587 
L 1106.060818 171.269468 
L 1106.879297 169.629444 
L 1107.288537 168.073492 
L 1108.107016 163.175594 
L 1108.925495 157.786735 
L 1110.357833 143.597578 
L 1111.176312 133.180739 
L 1111.994791 119.168728 
L 1114.245608 78.712483 
L 1114.859467 66.877819 
L 1115.268706 54.169189 
L 1115.677946 35.796854 
L 1116.235447 -1 
M 1121.826728 -1 
L 1122.430397 31.972444 
L 1123.658115 84.472429 
L 1124.681214 117.870124 
L 1125.499693 137.711069 
L 1126.113552 148.621183 
L 1126.727411 156.00612 
L 1127.13665 158.787865 
L 1128.568988 165.473117 
L 1128.978228 166.734562 
L 1129.387467 167.245083 
L 1129.592087 167.481312 
L 1130.001327 168.566214 
L 1131.229045 173.300793 
L 1131.638284 175.007694 
L 1132.047524 175.857775 
L 1132.661383 176.323645 
L 1132.866003 176.283218 
L 1133.684482 175.435701 
L 1134.093721 175.930584 
L 1134.70758 177.27027 
L 1135.11682 178.871224 
L 1135.935299 183.032932 
L 1136.139918 183.245879 
L 1136.344538 183.120524 
L 1136.753778 182.281555 
L 1137.776876 179.380891 
L 1138.390735 176.876806 
L 1138.595355 176.437687 
L 1138.799975 176.30665 
L 1139.004594 176.494205 
L 1139.413834 177.555976 
L 1141.050792 182.119695 
L 1141.664651 182.964798 
L 1142.07389 183.168041 
L 1142.27851 183.048218 
L 1142.68775 182.30187 
L 1143.096989 181.423278 
L 1143.301609 181.188608 
L 1143.506228 181.199218 
L 1143.915468 181.819155 
L 1144.529327 183.190417 
L 1144.733947 183.386319 
L 1145.347806 183.255282 
L 1145.552426 183.511976 
L 1145.961665 184.726406 
L 1146.370905 185.911371 
L 1146.575524 186.127185 
L 1146.780144 186.061315 
L 1147.394003 185.461441 
L 1147.598623 185.617669 
L 1148.212482 186.699554 
L 1148.417102 186.813948 
L 1148.826341 186.58853 
L 1149.235581 186.406204 
L 1149.440201 186.461516 
L 1149.64482 186.693671 
L 1151.691018 190.653141 
L 1151.895637 190.55519 
L 1152.714116 189.145361 
L 1153.327975 189.070389 
L 1153.532595 188.709459 
L 1154.146454 186.927134 
L 1154.555694 186.433307 
L 1154.964933 186.077355 
L 1155.988032 184.846633 
L 1156.397271 184.816161 
L 1157.21575 185.093722 
L 1157.829609 184.633534 
L 1158.238849 184.708606 
L 1159.057328 185.118059 
L 1159.671187 186.063527 
L 1160.489666 186.774426 
L 1160.898905 187.492766 
L 1161.922004 189.655832 
L 1162.126624 189.418095 
L 1162.740483 188.081628 
L 1163.354342 187.447662 
L 1164.172821 186.95303 
L 1164.58206 187.135909 
L 1165.400539 187.784054 
L 1165.809779 187.877228 
L 1166.423638 188.322784 
L 1166.832877 188.06252 
L 1167.242117 187.768316 
L 1167.446737 187.688115 
L 1167.651356 187.469837 
L 1168.469835 185.99479 
L 1168.674455 186.220309 
L 1169.492934 188.263551 
L 1169.697554 188.300861 
L 1170.106793 187.620836 
L 1170.516032 186.957103 
L 1170.925272 186.603162 
L 1171.129892 186.654954 
L 1171.334511 186.972238 
L 1172.35761 189.61284 
L 1172.56223 189.772739 
L 1172.971469 189.736184 
L 1173.585328 190.312023 
L 1173.789948 190.171683 
L 1174.199188 188.984707 
L 1174.813047 187.167889 
L 1175.017666 186.869812 
L 1175.222286 186.788404 
L 1175.426906 186.941012 
L 1176.040765 187.847109 
L 1176.245385 187.784959 
L 1176.859244 186.883791 
L 1177.063864 186.962634 
L 1177.473103 187.371031 
L 1178.905441 187.970955 
L 1179.110061 187.956323 
L 1179.5193 187.51846 
L 1179.72392 187.271723 
L 1179.92854 187.243262 
L 1180.13316 187.501364 
L 1181.156258 189.94169 
L 1181.770117 191.842682 
L 1182.179357 192.159061 
L 1182.383977 192.101638 
L 1182.588596 191.812864 
L 1182.997836 190.247158 
L 1183.611695 187.820107 
L 1184.020934 187.33176 
L 1184.225554 187.242207 
L 1184.430174 187.027248 
L 1184.839413 186.191396 
L 1184.839413 186.191396 
" clip-path="url(#p0ec8299db3)" style="fill: none; stroke: #000000; stroke-width: 2; stroke-linecap: square"/>
   </g>
   <g id="patch_3">
    <path d="M 3.00024 198.907885 
L 1184.99976 198.907885 
" style="fill: none; stroke: #000000; stroke-width: 2; stroke-linejoin: miter; stroke-linecap: square"/>
   </g>
  </g>
 </g>
 <defs>
  <clipPath id="p0ec8299db3">
   <rect x="3.00024" y="3.00024" width="1181.99952" height="195.907645"/>
  </clipPath>
 </defs>
</svg>
