<?xml version="1.0" encoding="utf-8" standalone="no"?>
<!DOCTYPE svg PUBLIC "-//W3C//DTD SVG 1.1//EN"
  "http://www.w3.org/Graphics/SVG/1.1/DTD/svg11.dtd">
<svg xmlns:xlink="http://www.w3.org/1999/xlink" width="1188pt" height="252pt" viewBox="0 0 1188 252" xmlns="http://www.w3.org/2000/svg" version="1.1">
 <metadata>
  <rdf:RDF xmlns:dc="http://purl.org/dc/elements/1.1/" xmlns:cc="http://creativecommons.org/ns#" xmlns:rdf="http://www.w3.org/1999/02/22-rdf-syntax-ns#">
   <cc:Work>
    <dc:type rdf:resource="http://purl.org/dc/dcmitype/StillImage"/>
    <dc:date>2024-07-23T21:45:18.119309</dc:date>
    <dc:format>image/svg+xml</dc:format>
    <dc:creator>
     <cc:Agent>
      <dc:title>Matplotlib v3.8.4, https://matplotlib.org/</dc:title>
     </cc:Agent>
    </dc:creator>
   </cc:Work>
  </rdf:RDF>
 </metadata>
 <defs>
  <style type="text/css">*{stroke-linejoin: round; stroke-linecap: butt}</style>
 </defs>
 <g id="figure_1">
  <g id="patch_1">
   <path d="M 0 252 
L 1188 252 
L 1188 0 
L 0 0 
z
" style="fill: #ffffff"/>
  </g>
  <g id="axes_1">
   <g id="patch_2">
    <path d="M 3.00024 198.907885 
L 1184.99976 198.907885 
L 1184.99976 3.00024 
L 3.00024 3.00024 
z
" style="fill: #ffffff"/>
   </g>
   <g id="matplotlib.axis_1">
    <g id="xtick_1">
     <g id="line2d_1">
      <defs>
       <path id="m1676db632c" d="M 0 0 
L 0 8 
" style="stroke: #000000; stroke-width: 2"/>
      </defs>
      <g>
       <use xlink:href="#m1676db632c" x="1131.272509" y="198.907885" style="stroke: #000000; stroke-width: 2"/>
      </g>
     </g>
     <g id="text_1">
      <!-- 0 -->
      <g transform="translate(1126.267665 224.791947) scale(0.18 -0.18)">
       <defs>
        <path id="Arial-BoldMT-30" d="M 1756 4600 
Q 2422 4600 2797 4125 
Q 3244 3563 3244 2259 
Q 3244 959 2794 391 
Q 2422 -78 1756 -78 
Q 1088 -78 678 436 
Q 269 950 269 2269 
Q 269 3563 719 4131 
Q 1091 4600 1756 4600 
z
M 1756 3872 
Q 1597 3872 1472 3770 
Q 1347 3669 1278 3406 
Q 1188 3066 1188 2259 
Q 1188 1453 1269 1151 
Q 1350 850 1473 750 
Q 1597 650 1756 650 
Q 1916 650 2041 751 
Q 2166 853 2234 1116 
Q 2325 1453 2325 2259 
Q 2325 3066 2244 3367 
Q 2163 3669 2039 3770 
Q 1916 3872 1756 3872 
z
" transform="scale(0.015625)"/>
       </defs>
       <use xlink:href="#Arial-BoldMT-30"/>
      </g>
     </g>
    </g>
    <g id="xtick_2">
     <g id="line2d_2">
      <g>
       <use xlink:href="#m1676db632c" x="1023.818007" y="198.907885" style="stroke: #000000; stroke-width: 2"/>
      </g>
     </g>
     <g id="text_2">
      <!-- 1 -->
      <g transform="translate(1018.813164 224.791947) scale(0.18 -0.18)">
       <defs>
        <path id="Arial-BoldMT-31" d="M 2519 0 
L 1641 0 
L 1641 3309 
Q 1159 2859 506 2644 
L 506 3441 
Q 850 3553 1253 3867 
Q 1656 4181 1806 4600 
L 2519 4600 
L 2519 0 
z
" transform="scale(0.015625)"/>
       </defs>
       <use xlink:href="#Arial-BoldMT-31"/>
      </g>
     </g>
    </g>
    <g id="xtick_3">
     <g id="line2d_3">
      <g>
       <use xlink:href="#m1676db632c" x="916.363505" y="198.907885" style="stroke: #000000; stroke-width: 2"/>
      </g>
     </g>
     <g id="text_3">
      <!-- 2 -->
      <g transform="translate(911.358662 224.791947) scale(0.18 -0.18)">
       <defs>
        <path id="Arial-BoldMT-32" d="M 3238 816 
L 3238 0 
L 159 0 
Q 209 463 459 877 
Q 709 1291 1447 1975 
Q 2041 2528 2175 2725 
Q 2356 2997 2356 3263 
Q 2356 3556 2198 3714 
Q 2041 3872 1763 3872 
Q 1488 3872 1325 3706 
Q 1163 3541 1138 3156 
L 263 3244 
Q 341 3969 753 4284 
Q 1166 4600 1784 4600 
Q 2463 4600 2850 4234 
Q 3238 3869 3238 3325 
Q 3238 3016 3127 2736 
Q 3016 2456 2775 2150 
Q 2616 1947 2200 1565 
Q 1784 1184 1673 1059 
Q 1563 934 1494 816 
L 3238 816 
z
" transform="scale(0.015625)"/>
       </defs>
       <use xlink:href="#Arial-BoldMT-32"/>
      </g>
     </g>
    </g>
    <g id="xtick_4">
     <g id="line2d_4">
      <g>
       <use xlink:href="#m1676db632c" x="808.909004" y="198.907885" style="stroke: #000000; stroke-width: 2"/>
      </g>
     </g>
     <g id="text_4">
      <!-- 3 -->
      <g transform="translate(803.90416 224.791947) scale(0.18 -0.18)">
       <defs>
        <path id="Arial-BoldMT-33" d="M 241 1216 
L 1091 1319 
Q 1131 994 1309 822 
Q 1488 650 1741 650 
Q 2013 650 2198 856 
Q 2384 1063 2384 1413 
Q 2384 1744 2206 1937 
Q 2028 2131 1772 2131 
Q 1603 2131 1369 2066 
L 1466 2781 
Q 1822 2772 2009 2936 
Q 2197 3100 2197 3372 
Q 2197 3603 2059 3740 
Q 1922 3878 1694 3878 
Q 1469 3878 1309 3722 
Q 1150 3566 1116 3266 
L 306 3403 
Q 391 3819 561 4067 
Q 731 4316 1036 4458 
Q 1341 4600 1719 4600 
Q 2366 4600 2756 4188 
Q 3078 3850 3078 3425 
Q 3078 2822 2419 2463 
Q 2813 2378 3048 2084 
Q 3284 1791 3284 1375 
Q 3284 772 2843 347 
Q 2403 -78 1747 -78 
Q 1125 -78 715 280 
Q 306 638 241 1216 
z
" transform="scale(0.015625)"/>
       </defs>
       <use xlink:href="#Arial-BoldMT-33"/>
      </g>
     </g>
    </g>
    <g id="xtick_5">
     <g id="line2d_5">
      <g>
       <use xlink:href="#m1676db632c" x="701.454502" y="198.907885" style="stroke: #000000; stroke-width: 2"/>
      </g>
     </g>
     <g id="text_5">
      <!-- 4 -->
      <g transform="translate(696.449658 224.791947) scale(0.18 -0.18)">
       <defs>
        <path id="Arial-BoldMT-34" d="M 1994 0 
L 1994 922 
L 119 922 
L 119 1691 
L 2106 4600 
L 2844 4600 
L 2844 1694 
L 3413 1694 
L 3413 922 
L 2844 922 
L 2844 0 
L 1994 0 
z
M 1994 1694 
L 1994 3259 
L 941 1694 
L 1994 1694 
z
" transform="scale(0.015625)"/>
       </defs>
       <use xlink:href="#Arial-BoldMT-34"/>
      </g>
     </g>
    </g>
    <g id="xtick_6">
     <g id="line2d_6">
      <g>
       <use xlink:href="#m1676db632c" x="594" y="198.907885" style="stroke: #000000; stroke-width: 2"/>
      </g>
     </g>
     <g id="text_6">
      <!-- 5 -->
      <g transform="translate(588.995156 224.791947) scale(0.18 -0.18)">
       <defs>
        <path id="Arial-BoldMT-35" d="M 284 1178 
L 1159 1269 
Q 1197 972 1381 798 
Q 1566 625 1806 625 
Q 2081 625 2272 848 
Q 2463 1072 2463 1522 
Q 2463 1944 2273 2155 
Q 2084 2366 1781 2366 
Q 1403 2366 1103 2031 
L 391 2134 
L 841 4519 
L 3163 4519 
L 3163 3697 
L 1506 3697 
L 1369 2919 
Q 1663 3066 1969 3066 
Q 2553 3066 2959 2641 
Q 3366 2216 3366 1538 
Q 3366 972 3038 528 
Q 2591 -78 1797 -78 
Q 1163 -78 763 262 
Q 363 603 284 1178 
z
" transform="scale(0.015625)"/>
       </defs>
       <use xlink:href="#Arial-BoldMT-35"/>
      </g>
     </g>
    </g>
    <g id="xtick_7">
     <g id="line2d_7">
      <g>
       <use xlink:href="#m1676db632c" x="486.545498" y="198.907885" style="stroke: #000000; stroke-width: 2"/>
      </g>
     </g>
     <g id="text_7">
      <!-- 6 -->
      <g transform="translate(481.540654 224.791947) scale(0.18 -0.18)">
       <defs>
        <path id="Arial-BoldMT-36" d="M 3247 3459 
L 2397 3366 
Q 2366 3628 2234 3753 
Q 2103 3878 1894 3878 
Q 1616 3878 1423 3628 
Q 1231 3378 1181 2588 
Q 1509 2975 1997 2975 
Q 2547 2975 2939 2556 
Q 3331 2138 3331 1475 
Q 3331 772 2918 347 
Q 2506 -78 1859 -78 
Q 1166 -78 719 461 
Q 272 1000 272 2228 
Q 272 3488 737 4044 
Q 1203 4600 1947 4600 
Q 2469 4600 2811 4308 
Q 3153 4016 3247 3459 
z
M 1256 1544 
Q 1256 1116 1453 883 
Q 1650 650 1903 650 
Q 2147 650 2309 840 
Q 2472 1031 2472 1466 
Q 2472 1913 2297 2120 
Q 2122 2328 1859 2328 
Q 1606 2328 1431 2129 
Q 1256 1931 1256 1544 
z
" transform="scale(0.015625)"/>
       </defs>
       <use xlink:href="#Arial-BoldMT-36"/>
      </g>
     </g>
    </g>
    <g id="xtick_8">
     <g id="line2d_8">
      <g>
       <use xlink:href="#m1676db632c" x="379.090996" y="198.907885" style="stroke: #000000; stroke-width: 2"/>
      </g>
     </g>
     <g id="text_8">
      <!-- 7 -->
      <g transform="translate(374.086153 224.791947) scale(0.18 -0.18)">
       <defs>
        <path id="Arial-BoldMT-37" d="M 272 3703 
L 272 4519 
L 3275 4519 
L 3275 3881 
Q 2903 3516 2518 2831 
Q 2134 2147 1932 1376 
Q 1731 606 1734 0 
L 888 0 
Q 909 950 1279 1937 
Q 1650 2925 2269 3703 
L 272 3703 
z
" transform="scale(0.015625)"/>
       </defs>
       <use xlink:href="#Arial-BoldMT-37"/>
      </g>
     </g>
    </g>
    <g id="xtick_9">
     <g id="line2d_9">
      <g>
       <use xlink:href="#m1676db632c" x="271.636495" y="198.907885" style="stroke: #000000; stroke-width: 2"/>
      </g>
     </g>
     <g id="text_9">
      <!-- 8 -->
      <g transform="translate(266.631651 224.791947) scale(0.18 -0.18)">
       <defs>
        <path id="Arial-BoldMT-38" d="M 1025 2472 
Q 684 2616 529 2867 
Q 375 3119 375 3419 
Q 375 3931 733 4265 
Q 1091 4600 1750 4600 
Q 2403 4600 2764 4265 
Q 3125 3931 3125 3419 
Q 3125 3100 2959 2851 
Q 2794 2603 2494 2472 
Q 2875 2319 3073 2025 
Q 3272 1731 3272 1347 
Q 3272 713 2867 316 
Q 2463 -81 1791 -81 
Q 1166 -81 750 247 
Q 259 634 259 1309 
Q 259 1681 443 1992 
Q 628 2303 1025 2472 
z
M 1206 3356 
Q 1206 3094 1354 2947 
Q 1503 2800 1750 2800 
Q 2000 2800 2150 2948 
Q 2300 3097 2300 3359 
Q 2300 3606 2151 3754 
Q 2003 3903 1759 3903 
Q 1506 3903 1356 3753 
Q 1206 3603 1206 3356 
z
M 1125 1394 
Q 1125 1031 1311 828 
Q 1497 625 1775 625 
Q 2047 625 2225 820 
Q 2403 1016 2403 1384 
Q 2403 1706 2222 1901 
Q 2041 2097 1763 2097 
Q 1441 2097 1283 1875 
Q 1125 1653 1125 1394 
z
" transform="scale(0.015625)"/>
       </defs>
       <use xlink:href="#Arial-BoldMT-38"/>
      </g>
     </g>
    </g>
    <g id="xtick_10">
     <g id="line2d_10">
      <g>
       <use xlink:href="#m1676db632c" x="164.181993" y="198.907885" style="stroke: #000000; stroke-width: 2"/>
      </g>
     </g>
     <g id="text_10">
      <!-- 9 -->
      <g transform="translate(159.177149 224.791947) scale(0.18 -0.18)">
       <defs>
        <path id="Arial-BoldMT-39" d="M 291 1059 
L 1141 1153 
Q 1172 894 1303 769 
Q 1434 644 1650 644 
Q 1922 644 2112 894 
Q 2303 1144 2356 1931 
Q 2025 1547 1528 1547 
Q 988 1547 595 1964 
Q 203 2381 203 3050 
Q 203 3747 617 4173 
Q 1031 4600 1672 4600 
Q 2369 4600 2816 4061 
Q 3263 3522 3263 2288 
Q 3263 1031 2797 475 
Q 2331 -81 1584 -81 
Q 1047 -81 715 205 
Q 384 491 291 1059 
z
M 2278 2978 
Q 2278 3403 2083 3637 
Q 1888 3872 1631 3872 
Q 1388 3872 1227 3680 
Q 1066 3488 1066 3050 
Q 1066 2606 1241 2398 
Q 1416 2191 1678 2191 
Q 1931 2191 2104 2391 
Q 2278 2591 2278 2978 
z
" transform="scale(0.015625)"/>
       </defs>
       <use xlink:href="#Arial-BoldMT-39"/>
      </g>
     </g>
    </g>
    <g id="xtick_11">
     <g id="line2d_11">
      <g>
       <use xlink:href="#m1676db632c" x="56.727491" y="198.907885" style="stroke: #000000; stroke-width: 2"/>
      </g>
     </g>
     <g id="text_11">
      <!-- 10 -->
      <g transform="translate(46.717803 224.791947) scale(0.18 -0.18)">
       <use xlink:href="#Arial-BoldMT-31"/>
       <use xlink:href="#Arial-BoldMT-30" x="55.615234"/>
      </g>
     </g>
    </g>
    <g id="text_12">
     <!-- Chemical Shift / ppm -->
     <g transform="translate(504.992813 245.447573) scale(0.18 -0.18)">
      <defs>
       <path id="Arial-BoldMT-43" d="M 3397 1684 
L 4294 1400 
Q 4088 650 3608 286 
Q 3128 -78 2391 -78 
Q 1478 -78 890 545 
Q 303 1169 303 2250 
Q 303 3394 893 4026 
Q 1484 4659 2447 4659 
Q 3288 4659 3813 4163 
Q 4125 3869 4281 3319 
L 3366 3100 
Q 3284 3456 3026 3662 
Q 2769 3869 2400 3869 
Q 1891 3869 1573 3503 
Q 1256 3138 1256 2319 
Q 1256 1450 1568 1081 
Q 1881 713 2381 713 
Q 2750 713 3015 947 
Q 3281 1181 3397 1684 
z
" transform="scale(0.015625)"/>
       <path id="Arial-BoldMT-68" d="M 1334 4581 
L 1334 2897 
Q 1759 3394 2350 3394 
Q 2653 3394 2897 3281 
Q 3141 3169 3264 2994 
Q 3388 2819 3433 2606 
Q 3478 2394 3478 1947 
L 3478 0 
L 2600 0 
L 2600 1753 
Q 2600 2275 2550 2415 
Q 2500 2556 2373 2639 
Q 2247 2722 2056 2722 
Q 1838 2722 1666 2615 
Q 1494 2509 1414 2295 
Q 1334 2081 1334 1663 
L 1334 0 
L 456 0 
L 456 4581 
L 1334 4581 
z
" transform="scale(0.015625)"/>
       <path id="Arial-BoldMT-65" d="M 2381 1056 
L 3256 909 
Q 3088 428 2723 176 
Q 2359 -75 1813 -75 
Q 947 -75 531 491 
Q 203 944 203 1634 
Q 203 2459 634 2926 
Q 1066 3394 1725 3394 
Q 2466 3394 2894 2905 
Q 3322 2416 3303 1406 
L 1103 1406 
Q 1113 1016 1316 798 
Q 1519 581 1822 581 
Q 2028 581 2168 693 
Q 2309 806 2381 1056 
z
M 2431 1944 
Q 2422 2325 2234 2523 
Q 2047 2722 1778 2722 
Q 1491 2722 1303 2513 
Q 1116 2303 1119 1944 
L 2431 1944 
z
" transform="scale(0.015625)"/>
       <path id="Arial-BoldMT-6d" d="M 394 3319 
L 1203 3319 
L 1203 2866 
Q 1638 3394 2238 3394 
Q 2556 3394 2790 3262 
Q 3025 3131 3175 2866 
Q 3394 3131 3647 3262 
Q 3900 3394 4188 3394 
Q 4553 3394 4806 3245 
Q 5059 3097 5184 2809 
Q 5275 2597 5275 2122 
L 5275 0 
L 4397 0 
L 4397 1897 
Q 4397 2391 4306 2534 
Q 4184 2722 3931 2722 
Q 3747 2722 3584 2609 
Q 3422 2497 3350 2280 
Q 3278 2063 3278 1594 
L 3278 0 
L 2400 0 
L 2400 1819 
Q 2400 2303 2353 2443 
Q 2306 2584 2207 2653 
Q 2109 2722 1941 2722 
Q 1738 2722 1575 2612 
Q 1413 2503 1342 2297 
Q 1272 2091 1272 1613 
L 1272 0 
L 394 0 
L 394 3319 
z
" transform="scale(0.015625)"/>
       <path id="Arial-BoldMT-69" d="M 459 3769 
L 459 4581 
L 1338 4581 
L 1338 3769 
L 459 3769 
z
M 459 0 
L 459 3319 
L 1338 3319 
L 1338 0 
L 459 0 
z
" transform="scale(0.015625)"/>
       <path id="Arial-BoldMT-63" d="M 3353 2338 
L 2488 2181 
Q 2444 2441 2289 2572 
Q 2134 2703 1888 2703 
Q 1559 2703 1364 2476 
Q 1169 2250 1169 1719 
Q 1169 1128 1367 884 
Q 1566 641 1900 641 
Q 2150 641 2309 783 
Q 2469 925 2534 1272 
L 3397 1125 
Q 3263 531 2881 228 
Q 2500 -75 1859 -75 
Q 1131 -75 698 384 
Q 266 844 266 1656 
Q 266 2478 700 2936 
Q 1134 3394 1875 3394 
Q 2481 3394 2839 3133 
Q 3197 2872 3353 2338 
z
" transform="scale(0.015625)"/>
       <path id="Arial-BoldMT-61" d="M 1116 2306 
L 319 2450 
Q 453 2931 781 3162 
Q 1109 3394 1756 3394 
Q 2344 3394 2631 3255 
Q 2919 3116 3036 2902 
Q 3153 2688 3153 2116 
L 3144 1091 
Q 3144 653 3186 445 
Q 3228 238 3344 0 
L 2475 0 
Q 2441 88 2391 259 
Q 2369 338 2359 363 
Q 2134 144 1878 34 
Q 1622 -75 1331 -75 
Q 819 -75 523 203 
Q 228 481 228 906 
Q 228 1188 362 1408 
Q 497 1628 739 1745 
Q 981 1863 1438 1950 
Q 2053 2066 2291 2166 
L 2291 2253 
Q 2291 2506 2166 2614 
Q 2041 2722 1694 2722 
Q 1459 2722 1328 2630 
Q 1197 2538 1116 2306 
z
M 2291 1594 
Q 2122 1538 1756 1459 
Q 1391 1381 1278 1306 
Q 1106 1184 1106 997 
Q 1106 813 1243 678 
Q 1381 544 1594 544 
Q 1831 544 2047 700 
Q 2206 819 2256 991 
Q 2291 1103 2291 1419 
L 2291 1594 
z
" transform="scale(0.015625)"/>
       <path id="Arial-BoldMT-6c" d="M 459 0 
L 459 4581 
L 1338 4581 
L 1338 0 
L 459 0 
z
" transform="scale(0.015625)"/>
       <path id="Arial-BoldMT-20" transform="scale(0.015625)"/>
       <path id="Arial-BoldMT-53" d="M 231 1491 
L 1131 1578 
Q 1213 1125 1461 912 
Q 1709 700 2131 700 
Q 2578 700 2804 889 
Q 3031 1078 3031 1331 
Q 3031 1494 2936 1608 
Q 2841 1722 2603 1806 
Q 2441 1863 1863 2006 
Q 1119 2191 819 2459 
Q 397 2838 397 3381 
Q 397 3731 595 4036 
Q 794 4341 1167 4500 
Q 1541 4659 2069 4659 
Q 2931 4659 3367 4281 
Q 3803 3903 3825 3272 
L 2900 3231 
Q 2841 3584 2645 3739 
Q 2450 3894 2059 3894 
Q 1656 3894 1428 3728 
Q 1281 3622 1281 3444 
Q 1281 3281 1419 3166 
Q 1594 3019 2269 2859 
Q 2944 2700 3267 2529 
Q 3591 2359 3773 2064 
Q 3956 1769 3956 1334 
Q 3956 941 3737 597 
Q 3519 253 3119 86 
Q 2719 -81 2122 -81 
Q 1253 -81 787 320 
Q 322 722 231 1491 
z
" transform="scale(0.015625)"/>
       <path id="Arial-BoldMT-66" d="M 75 3319 
L 563 3319 
L 563 3569 
Q 563 3988 652 4194 
Q 741 4400 980 4529 
Q 1219 4659 1584 4659 
Q 1959 4659 2319 4547 
L 2200 3934 
Q 1991 3984 1797 3984 
Q 1606 3984 1523 3895 
Q 1441 3806 1441 3553 
L 1441 3319 
L 2097 3319 
L 2097 2628 
L 1441 2628 
L 1441 0 
L 563 0 
L 563 2628 
L 75 2628 
L 75 3319 
z
" transform="scale(0.015625)"/>
       <path id="Arial-BoldMT-74" d="M 1981 3319 
L 1981 2619 
L 1381 2619 
L 1381 1281 
Q 1381 875 1398 808 
Q 1416 741 1477 697 
Q 1538 653 1625 653 
Q 1747 653 1978 738 
L 2053 56 
Q 1747 -75 1359 -75 
Q 1122 -75 931 4 
Q 741 84 652 211 
Q 563 338 528 553 
Q 500 706 500 1172 
L 500 2619 
L 97 2619 
L 97 3319 
L 500 3319 
L 500 3978 
L 1381 4491 
L 1381 3319 
L 1981 3319 
z
" transform="scale(0.015625)"/>
       <path id="Arial-BoldMT-2f" d="M -9 -78 
L 1125 4659 
L 1784 4659 
L 638 -78 
L -9 -78 
z
" transform="scale(0.015625)"/>
       <path id="Arial-BoldMT-70" d="M 434 3319 
L 1253 3319 
L 1253 2831 
Q 1413 3081 1684 3237 
Q 1956 3394 2288 3394 
Q 2866 3394 3269 2941 
Q 3672 2488 3672 1678 
Q 3672 847 3265 386 
Q 2859 -75 2281 -75 
Q 2006 -75 1782 34 
Q 1559 144 1313 409 
L 1313 -1263 
L 434 -1263 
L 434 3319 
z
M 1303 1716 
Q 1303 1156 1525 889 
Q 1747 622 2066 622 
Q 2372 622 2575 867 
Q 2778 1113 2778 1672 
Q 2778 2194 2568 2447 
Q 2359 2700 2050 2700 
Q 1728 2700 1515 2451 
Q 1303 2203 1303 1716 
z
" transform="scale(0.015625)"/>
      </defs>
      <use xlink:href="#Arial-BoldMT-43"/>
      <use xlink:href="#Arial-BoldMT-68" x="72.216797"/>
      <use xlink:href="#Arial-BoldMT-65" x="133.300781"/>
      <use xlink:href="#Arial-BoldMT-6d" x="188.916016"/>
      <use xlink:href="#Arial-BoldMT-69" x="277.832031"/>
      <use xlink:href="#Arial-BoldMT-63" x="305.615234"/>
      <use xlink:href="#Arial-BoldMT-61" x="361.230469"/>
      <use xlink:href="#Arial-BoldMT-6c" x="416.845703"/>
      <use xlink:href="#Arial-BoldMT-20" x="444.628906"/>
      <use xlink:href="#Arial-BoldMT-53" x="472.412109"/>
      <use xlink:href="#Arial-BoldMT-68" x="539.111328"/>
      <use xlink:href="#Arial-BoldMT-69" x="600.195312"/>
      <use xlink:href="#Arial-BoldMT-66" x="627.978516"/>
      <use xlink:href="#Arial-BoldMT-74" x="661.279297"/>
      <use xlink:href="#Arial-BoldMT-20" x="694.580078"/>
      <use xlink:href="#Arial-BoldMT-2f" x="722.363281"/>
      <use xlink:href="#Arial-BoldMT-20" x="750.146484"/>
      <use xlink:href="#Arial-BoldMT-70" x="777.929688"/>
      <use xlink:href="#Arial-BoldMT-70" x="839.013672"/>
      <use xlink:href="#Arial-BoldMT-6d" x="900.097656"/>
     </g>
    </g>
   </g>
   <g id="matplotlib.axis_2"/>
   <g id="line2d_12">
    <path d="M 2.955871 222.908151 
L 3.365111 222.316364 
L 3.97897 221.910567 
L 4.18359 221.935581 
L 4.388209 222.226567 
L 5.206688 224.235098 
L 5.411308 224.058417 
L 5.820548 222.6361 
L 6.229787 221.296931 
L 6.639026 220.900316 
L 8.071365 220.092268 
L 8.275984 220.141093 
L 8.889843 220.6396 
L 9.503703 220.578364 
L 10.526801 221.387362 
L 10.936041 221.943686 
L 11.14066 222.002074 
L 11.34528 221.720397 
L 11.75452 220.010957 
L 12.572999 215.020372 
L 12.777618 214.435487 
L 12.982238 214.298322 
L 13.186858 214.532884 
L 14.209956 216.512412 
L 14.619196 216.949556 
L 15.028435 216.850956 
L 15.233055 216.798458 
L 15.437675 216.921312 
L 15.642294 217.322297 
L 16.460773 219.814327 
L 17.279252 221.432514 
L 17.483872 221.566703 
L 17.688492 221.426561 
L 18.097731 220.518457 
L 18.71159 219.234952 
L 18.91621 219.156047 
L 19.734689 219.461281 
L 20.553168 220.554109 
L 20.962407 220.496799 
L 21.780886 220.259767 
L 21.985506 220.392563 
L 22.190126 220.73649 
L 22.599365 222.052862 
L 23.417844 224.675409 
L 24.031703 226.396944 
L 24.440943 226.842194 
L 24.645562 226.804768 
L 25.054802 226.460334 
L 25.259422 226.520874 
L 25.464041 226.924012 
L 26.28252 229.412053 
L 26.48714 229.330995 
L 26.896379 228.201247 
L 27.305619 227.209108 
L 27.714858 226.903177 
L 27.919478 226.875567 
L 28.124098 226.726053 
L 28.942577 225.370609 
L 29.351816 224.333951 
L 29.761056 223.39526 
L 29.965675 223.484614 
L 30.374915 224.846707 
L 30.784154 226.476862 
L 30.988774 226.785073 
L 31.193394 226.658166 
L 31.602633 226.100575 
L 31.807253 226.070115 
L 32.216492 226.360151 
L 32.625732 226.835291 
L 32.830351 226.882406 
L 33.034971 226.611241 
L 33.85345 224.260049 
L 34.467309 223.823222 
L 34.876549 223.553577 
L 35.081168 223.217122 
L 35.899647 220.961806 
L 36.104267 221.068385 
L 36.513507 222.100926 
L 37.331985 224.780278 
L 37.536605 225.012433 
L 38.150464 225.000464 
L 38.968943 225.58231 
L 39.173563 225.458443 
L 39.582802 224.768182 
L 39.992042 223.817142 
L 40.196662 223.578971 
L 40.401281 223.672821 
L 40.810521 224.63241 
L 41.21976 225.658618 
L 42.038239 226.798245 
L 42.242859 226.896275 
L 42.856718 226.550068 
L 43.265958 226.131795 
L 43.675197 225.1976 
L 44.289056 223.063365 
L 44.902915 221.016647 
L 45.107535 220.876315 
L 45.516775 220.883598 
L 45.926014 220.437272 
L 46.335253 220.035147 
L 46.539873 220.125641 
L 46.744493 220.582163 
L 47.767592 224.898192 
L 47.972211 225.141999 
L 48.176831 225.111666 
L 48.381451 224.750894 
L 48.99531 223.095725 
L 49.404549 222.633757 
L 49.609169 222.528888 
L 49.813789 222.6045 
L 50.427648 223.317178 
L 50.632268 223.261831 
L 51.041507 222.666054 
L 51.859986 220.565128 
L 52.269226 219.317846 
L 52.473845 219.128563 
L 52.678465 219.539426 
L 53.701564 223.480371 
L 53.906183 223.607278 
L 54.110803 223.228458 
L 54.724662 221.280276 
L 54.929282 221.086813 
L 55.133902 221.118033 
L 55.338521 221.320869 
L 55.747761 222.238029 
L 56.157 223.422871 
L 56.36162 223.74514 
L 56.56624 223.795675 
L 56.975479 223.446745 
L 57.589338 222.804296 
L 57.793958 222.916827 
L 58.203198 224.018015 
L 59.021676 227.229943 
L 59.226296 227.666897 
L 59.430916 227.812801 
L 59.635536 227.581596 
L 60.044775 226.171311 
L 60.454015 224.902561 
L 60.658634 224.734556 
L 60.863254 224.842021 
L 61.477113 225.532282 
L 61.886353 225.567048 
L 62.090972 225.375042 
L 62.295592 224.922889 
L 63.114071 222.077559 
L 63.52331 221.856612 
L 63.72793 221.983202 
L 64.13717 222.811705 
L 64.955649 225.022185 
L 65.160268 225.031494 
L 65.569508 224.177408 
L 66.183367 222.649652 
L 66.592606 222.142722 
L 66.797226 222.148358 
L 67.001846 222.473667 
L 67.820325 225.183605 
L 68.024944 225.035041 
L 68.638804 224.240734 
L 69.048043 224.035683 
L 69.252663 224.136245 
L 69.457283 224.493788 
L 70.275761 226.773738 
L 70.480381 226.769368 
L 71.09424 226.523914 
L 71.29886 226.456154 
L 71.50348 226.14541 
L 71.912719 224.394175 
L 72.526578 221.255199 
L 72.731198 220.659928 
L 72.935818 220.41878 
L 73.140438 220.520166 
L 74.572776 222.794797 
L 75.186635 224.498791 
L 75.391255 224.816437 
L 75.595874 224.9132 
L 75.800494 224.743168 
L 76.209734 223.618803 
L 76.618973 221.68886 
L 78.051311 213.246403 
L 78.460551 211.307784 
L 78.86979 208.098452 
L 79.279029 203.613784 
L 79.892889 193.623433 
L 81.529846 164.702464 
L 81.939086 159.466679 
L 82.143706 158.134096 
L 82.348325 157.806444 
L 82.552945 158.434454 
L 82.962185 162.003165 
L 83.780663 173.476816 
L 84.803762 188.113824 
L 86.03148 199.691267 
L 86.2361 200.678657 
L 86.44072 201.066279 
L 87.054579 201.31034 
L 87.463819 202.176206 
L 88.077678 204.372881 
L 89.100776 208.59278 
L 89.510016 210.485677 
L 89.919255 211.140158 
L 90.533114 211.377506 
L 90.942354 211.631193 
L 91.146974 211.550515 
L 92.170072 210.410002 
L 92.374692 210.501635 
L 92.988551 211.470406 
L 93.193171 211.46629 
L 93.80703 210.86969 
L 94.01165 210.982538 
L 94.625509 211.676661 
L 95.034748 211.828202 
L 95.239368 212.184161 
L 95.648608 213.698365 
L 97.080946 220.398959 
L 97.285565 221.042675 
L 97.490185 221.294145 
L 97.694805 220.995306 
L 98.513284 218.339576 
L 99.127143 218.023006 
L 99.536382 217.548183 
L 99.741002 217.546473 
L 100.559481 218.455844 
L 101.37796 217.455536 
L 101.787199 217.279741 
L 102.401059 217.38727 
L 102.605678 217.055438 
L 103.014918 215.530785 
L 103.833397 212.268576 
L 104.038016 211.967647 
L 104.242636 212.194167 
L 104.651876 213.901454 
L 105.061115 215.623559 
L 105.265735 216.129222 
L 105.470354 216.320342 
L 105.879594 216.172031 
L 106.084214 216.357262 
L 106.493453 217.593968 
L 108.130411 223.158735 
L 108.335031 223.219085 
L 108.53965 223.020303 
L 108.94889 221.986305 
L 109.358129 220.882395 
L 109.562749 220.906522 
L 109.971988 222.272542 
L 110.381228 223.761162 
L 110.585848 224.100276 
L 110.790467 224.085331 
L 111.404327 223.506082 
L 111.813566 223.20642 
L 112.018186 222.854007 
L 112.427425 221.424344 
L 112.836665 219.801662 
L 113.245904 219.084614 
L 113.655144 218.839793 
L 113.859763 218.922371 
L 114.473622 219.743908 
L 114.678242 219.745048 
L 115.496721 219.186444 
L 115.701341 219.039779 
L 115.905961 219.069732 
L 116.3152 219.703379 
L 116.724439 220.186878 
L 116.929059 220.070737 
L 117.338299 219.122674 
L 117.747538 218.351861 
L 118.156778 218.273716 
L 118.361397 218.261368 
L 119.793735 217.376568 
L 119.998355 217.399365 
L 120.202975 217.279614 
L 121.021454 215.99668 
L 121.226073 216.413622 
L 122.044552 219.887786 
L 122.658412 222.178692 
L 122.863031 222.45068 
L 123.067651 222.450743 
L 123.47689 221.930324 
L 123.88613 221.372733 
L 124.295369 221.24551 
L 124.499989 221.448219 
L 125.932327 224.000536 
L 126.341567 224.643809 
L 126.750806 225.177779 
L 127.160046 226.107794 
L 127.364665 226.219249 
L 127.569285 225.855121 
L 128.387764 223.296977 
L 129.615482 221.715457 
L 130.433961 221.416175 
L 131.25244 222.346317 
L 132.070919 224.228766 
L 132.275539 224.111295 
L 132.684778 223.052663 
L 133.094018 222.014359 
L 133.298637 221.995551 
L 133.503257 222.330739 
L 134.117116 223.987238 
L 134.321736 224.22199 
L 134.526356 224.173925 
L 134.935595 223.467832 
L 135.754074 221.688353 
L 135.958694 221.570692 
L 136.367933 221.696142 
L 136.572553 221.529213 
L 136.981792 220.758908 
L 137.186412 220.701787 
L 137.391032 221.120313 
L 138.41413 224.472257 
L 138.82337 225.113756 
L 139.02799 225.263143 
L 139.232609 225.149282 
L 139.641849 224.429384 
L 139.846469 224.355672 
L 140.255708 225.168723 
L 140.664947 225.798444 
L 140.869567 226.02585 
L 141.278807 227.222217 
L 142.506525 232.343697 
L 142.711145 232.439574 
L 142.915764 232.195323 
L 143.325004 230.726271 
L 143.938863 227.693431 
L 144.143483 227.261733 
L 144.552722 227.134066 
L 144.961962 227.122541 
L 145.575821 227.360206 
L 145.780441 227.137866 
L 146.18968 226.256549 
L 146.59892 224.983556 
L 147.417398 222.106626 
L 147.826638 221.53371 
L 148.235877 221.409779 
L 149.054356 221.925132 
L 149.463596 221.678854 
L 149.668215 221.75168 
L 150.077455 222.614632 
L 150.486694 223.394247 
L 151.100554 223.437119 
L 151.919032 224.822073 
L 152.532892 224.500754 
L 152.737511 224.848417 
L 153.55599 227.042433 
L 153.76061 226.928951 
L 154.169849 225.804396 
L 154.579089 224.555658 
L 154.783709 224.362258 
L 155.192948 224.817007 
L 155.602188 225.060181 
L 156.011427 225.143076 
L 156.420666 225.405692 
L 156.829906 225.984624 
L 157.239145 226.46977 
L 157.443765 226.409863 
L 157.853005 225.696488 
L 159.080723 222.486523 
L 159.285343 222.363922 
L 159.489962 222.474174 
L 159.899202 223.262337 
L 160.308441 223.923594 
L 160.9223 224.045815 
L 161.33154 224.556988 
L 161.740779 225.139973 
L 161.945399 225.226034 
L 162.150019 225.097227 
L 162.968498 224.041255 
L 163.173117 224.40798 
L 163.786977 226.164282 
L 163.991596 226.23945 
L 164.400836 225.761587 
L 164.810075 224.730756 
L 165.628554 221.84971 
L 165.833174 221.642441 
L 166.037794 221.680501 
L 166.447033 222.389823 
L 167.470132 225.162391 
L 167.674751 225.109513 
L 167.879371 224.708212 
L 168.288611 223.030435 
L 168.90247 220.131847 
L 169.10709 219.813947 
L 169.311709 219.886583 
L 169.720949 220.853961 
L 170.744047 224.018331 
L 170.948667 224.309064 
L 171.153287 224.255806 
L 171.971766 223.11219 
L 172.176385 222.599624 
L 172.585625 220.563988 
L 172.994864 218.420698 
L 173.199484 217.814788 
L 173.404104 217.57269 
L 173.813343 217.550209 
L 174.017963 217.2249 
L 174.427202 215.48367 
L 174.836442 213.508828 
L 175.245681 212.681022 
L 175.85954 212.639227 
L 176.26878 212.014256 
L 177.291879 209.909784 
L 177.701118 209.578016 
L 177.905738 209.579409 
L 178.110357 209.781041 
L 178.519597 211.037252 
L 179.133456 213.289971 
L 179.747315 215.263484 
L 180.565794 218.669381 
L 180.975034 219.289413 
L 181.179653 219.240018 
L 181.588893 218.862908 
L 181.793513 219.002226 
L 182.202752 220.545307 
L 182.816611 223.120106 
L 183.021231 223.670034 
L 183.225851 223.810366 
L 183.43047 223.461373 
L 184.248949 220.70717 
L 184.453569 220.671264 
L 185.681287 222.150701 
L 186.090527 223.289441 
L 187.318245 227.248687 
L 187.522865 227.458995 
L 187.727485 227.437844 
L 187.932104 227.285987 
L 188.136724 226.949786 
L 189.159823 224.347186 
L 189.569062 223.943479 
L 190.182921 222.885797 
L 191.0014 222.453719 
L 191.20602 222.69626 
L 192.024499 224.737975 
L 192.229119 224.840944 
L 192.433738 224.540143 
L 193.047598 222.357526 
L 193.252217 222.22891 
L 193.456837 222.628311 
L 194.070696 225.498402 
L 194.479936 226.927558 
L 194.684555 227.208285 
L 194.889175 227.167883 
L 195.298415 226.154719 
L 195.503034 225.674007 
L 195.707654 225.565781 
L 196.116893 226.139078 
L 197.549232 228.99359 
L 197.753851 229.098269 
L 198.163091 228.820455 
L 198.98157 228.039384 
L 199.390809 226.807997 
L 200.004668 224.911427 
L 200.413908 224.361308 
L 200.618527 224.413679 
L 201.027767 224.769322 
L 201.232387 224.801555 
L 202.869344 224.215974 
L 203.073964 224.301465 
L 203.278584 224.258782 
L 204.097063 223.284565 
L 204.915542 223.908713 
L 205.529401 223.218769 
L 205.734021 223.520077 
L 206.34788 224.983366 
L 207.575598 226.869677 
L 207.780218 226.887599 
L 208.189457 226.339443 
L 208.598697 225.611757 
L 208.803317 225.437672 
L 209.417176 225.385047 
L 209.826415 225.185505 
L 210.031035 225.315514 
L 210.644894 226.334377 
L 210.849514 226.31044 
L 211.258753 225.665394 
L 211.667993 225.076456 
L 211.872612 225.023959 
L 212.281852 225.472818 
L 212.691091 225.776976 
L 213.100331 225.898626 
L 213.91881 227.186311 
L 214.328049 226.345269 
L 214.941908 225.109703 
L 215.146528 224.985709 
L 215.555767 225.084056 
L 215.965007 225.644306 
L 216.374246 226.126919 
L 216.578866 225.987664 
L 216.988106 224.993435 
L 217.806584 222.172232 
L 218.011204 221.981556 
L 218.215824 222.072746 
L 218.420444 222.364619 
L 218.829683 223.591763 
L 219.443542 225.595925 
L 219.648162 225.822064 
L 219.852782 225.810349 
L 220.466641 225.205706 
L 220.671261 225.194877 
L 221.28512 225.603081 
L 221.694359 225.405248 
L 222.103599 225.081649 
L 222.308218 225.076646 
L 222.922078 225.58307 
L 223.331317 225.80123 
L 223.535937 225.641267 
L 224.149796 224.677245 
L 224.763655 224.328378 
L 226.400613 220.895187 
L 226.605233 220.842182 
L 226.809852 221.124746 
L 227.423712 222.650032 
L 227.628331 222.719058 
L 227.832951 222.275961 
L 229.060669 217.458766 
L 229.265289 217.489732 
L 230.083768 218.290245 
L 230.288388 218.30101 
L 230.493008 218.098048 
L 230.902247 217.076716 
L 231.311486 216.035119 
L 231.720726 215.533952 
L 231.925346 215.621849 
L 232.129965 216.02448 
L 232.948444 218.4592 
L 233.153064 218.342742 
L 233.562303 217.162713 
L 233.766923 216.559147 
L 233.971543 216.361061 
L 234.176163 216.678834 
L 234.790022 218.207413 
L 234.994642 218.360981 
L 235.199261 218.341983 
L 235.403881 218.082217 
L 235.81312 216.977926 
L 236.22236 215.174446 
L 236.836219 212.210822 
L 237.040839 211.794259 
L 237.245459 211.634296 
L 237.450078 211.62885 
L 238.063937 211.901978 
L 238.268557 211.670645 
L 238.882416 210.569205 
L 239.291656 210.666031 
L 239.496276 210.692375 
L 239.700895 210.566925 
L 240.110135 209.954113 
L 240.519374 208.959061 
L 240.928614 206.935078 
L 241.337853 204.929902 
L 241.747093 204.128693 
L 242.770191 202.903069 
L 243.179431 201.389689 
L 243.99791 197.708383 
L 245.021008 195.078363 
L 245.634867 192.654472 
L 246.044107 192.188071 
L 246.453346 191.736172 
L 246.862586 191.307134 
L 247.067205 191.397945 
L 247.476445 191.850794 
L 247.681065 191.856366 
L 248.294924 191.40947 
L 248.499544 191.56747 
L 249.318022 192.92779 
L 249.727262 194.315277 
L 251.1596 200.193068 
L 251.36422 200.349548 
L 251.568839 200.261081 
L 251.978079 199.852814 
L 252.796558 199.576963 
L 253.205797 199.420229 
L 253.410417 199.484126 
L 253.615037 199.686961 
L 254.024276 200.74249 
L 254.638135 202.707263 
L 254.842755 203.063476 
L 255.047375 203.144217 
L 255.865854 202.560852 
L 256.070473 202.850888 
L 256.479713 204.006156 
L 257.093572 206.007025 
L 257.298192 206.285283 
L 257.502811 206.180667 
L 258.73053 204.044785 
L 258.93515 204.133189 
L 259.344389 205.030972 
L 259.958248 207.674733 
L 260.367488 209.159363 
L 260.776727 209.626967 
L 261.185967 209.919093 
L 261.595206 210.663055 
L 262.004445 211.483515 
L 262.209065 211.599023 
L 262.413685 211.426394 
L 262.618305 210.90224 
L 263.436784 207.799677 
L 263.641403 207.785935 
L 264.050643 208.549274 
L 264.459882 209.383413 
L 264.664502 209.462951 
L 265.073741 209.290703 
L 265.482981 208.893708 
L 265.89222 208.518687 
L 266.09684 208.611778 
L 266.506079 209.214774 
L 266.915319 210.452494 
L 267.324558 212.25477 
L 267.529178 212.653792 
L 267.733798 212.561082 
L 268.143037 212.082079 
L 268.347657 212.19214 
L 268.756896 213.265907 
L 269.370756 215.361323 
L 269.575375 215.634198 
L 270.598474 215.878575 
L 271.007713 215.937786 
L 271.416953 215.821961 
L 271.621573 215.557129 
L 272.030812 214.313014 
L 272.440052 212.908302 
L 272.644671 212.522452 
L 272.849291 212.447094 
L 273.053911 212.662341 
L 273.46315 213.646057 
L 274.077009 215.464419 
L 274.281629 215.746286 
L 274.486249 215.762941 
L 274.895488 215.449411 
L 275.713967 213.990428 
L 275.918587 214.060277 
L 276.123207 214.477853 
L 277.146305 218.048147 
L 277.555545 218.455337 
L 278.169404 218.896851 
L 278.578643 219.253443 
L 278.783263 219.121534 
L 279.192503 218.323301 
L 279.806362 216.541099 
L 280.215601 215.599051 
L 280.624841 215.01176 
L 281.03408 214.194973 
L 281.2387 214.081238 
L 281.44332 214.270141 
L 281.852559 215.313512 
L 282.261798 216.299128 
L 282.671038 216.537489 
L 283.080277 216.507726 
L 283.284897 216.251379 
L 283.898756 214.881244 
L 284.103376 214.860536 
L 284.512615 215.32529 
L 284.921855 216.114214 
L 285.740334 218.742967 
L 285.944954 218.905336 
L 286.558813 218.731568 
L 286.763432 218.753669 
L 286.968052 218.564892 
L 287.172672 218.003122 
L 287.581911 216.003266 
L 289.218869 207.018859 
L 289.628109 206.143558 
L 289.832728 206.067756 
L 290.037348 206.211254 
L 290.241968 206.63035 
L 290.855827 208.689479 
L 291.060447 208.817019 
L 291.265066 208.486644 
L 292.288165 205.334243 
L 292.902024 202.757038 
L 293.515883 200.231507 
L 294.129743 198.94395 
L 294.334362 198.860168 
L 294.538982 199.16116 
L 294.948221 200.874843 
L 295.562081 203.554954 
L 296.585179 206.305041 
L 296.789799 205.794058 
L 297.403658 203.422348 
L 297.608278 203.549951 
L 298.222137 205.098161 
L 298.426757 205.065801 
L 298.631377 204.596107 
L 299.245236 202.276388 
L 299.654475 201.79175 
L 300.268334 201.383862 
L 300.472954 201.21858 
L 300.677574 201.217757 
L 301.086813 201.555351 
L 301.291433 201.551678 
L 301.905292 200.869017 
L 302.109912 201.097309 
L 302.928391 203.409429 
L 303.951489 203.956445 
L 304.156109 203.893815 
L 304.974588 203.223185 
L 305.179208 203.319062 
L 305.383828 203.616697 
L 305.793067 204.964035 
L 306.202306 206.443853 
L 306.406926 206.802472 
L 306.611546 206.790693 
L 306.816166 206.364188 
L 307.225405 204.486742 
L 307.634645 202.533115 
L 308.043884 201.618804 
L 308.248504 201.290139 
L 308.657743 199.844265 
L 309.680842 194.934739 
L 310.90856 190.42531 
L 311.522419 187.185835 
L 312.136279 183.551328 
L 312.340898 182.905016 
L 313.159377 181.72505 
L 313.568617 180.81074 
L 313.773236 180.700868 
L 314.387096 180.692826 
L 315.000955 180.633109 
L 315.205574 180.449398 
L 315.410194 179.935122 
L 316.228673 176.69571 
L 316.637913 176.224433 
L 317.251772 175.581224 
L 317.865631 174.597698 
L 318.070251 174.661658 
L 318.88873 175.974293 
L 319.297969 176.959719 
L 319.911828 178.792329 
L 320.525687 179.439781 
L 321.548786 181.358706 
L 322.571885 184.531688 
L 322.776504 184.539097 
L 323.799603 183.838071 
L 324.004223 183.729656 
L 324.208842 183.796085 
L 325.027321 184.698807 
L 325.641181 184.335059 
L 326.05042 184.742439 
L 326.664279 185.455624 
L 327.073519 186.215101 
L 327.278138 186.223776 
L 327.687378 185.388181 
L 328.301237 183.186313 
L 328.915096 181.152894 
L 329.528955 179.546043 
L 329.938195 178.543709 
L 330.347434 177.482354 
L 330.552054 177.39813 
L 330.756674 177.728885 
L 331.165913 178.768835 
L 331.370533 178.942223 
L 331.575153 178.763389 
L 332.598251 176.679752 
L 333.007491 176.580709 
L 333.21211 176.535367 
L 333.41673 176.331519 
L 334.849068 173.475993 
L 335.258308 171.944247 
L 335.872167 168.038196 
L 336.486026 163.748511 
L 338.122984 154.787535 
L 338.532223 151.704856 
L 338.941463 147.08315 
L 339.964561 130.943147 
L 340.578421 118.015642 
L 341.19228 99.204078 
L 342.215378 66.40492 
L 343.033857 47.153868 
L 343.443097 42.132697 
L 343.852336 40.279822 
L 344.056956 40.215419 
L 344.466195 41.083944 
L 345.080055 42.341042 
L 345.693914 42.949041 
L 345.898533 42.963733 
L 346.103153 42.776603 
L 346.512393 41.888003 
L 346.921632 40.100481 
L 347.944731 33.794412 
L 349.581689 27.351051 
L 349.990928 24.859907 
L 350.400167 20.702892 
L 351.832506 3.18718 
L 352.037125 3.00024 
L 352.241745 3.535224 
L 352.650984 6.284487 
L 353.060224 11.813728 
L 353.674083 25.042604 
L 355.311041 66.030596 
L 355.9249 75.093908 
L 356.743379 86.08425 
L 357.561858 96.230954 
L 359.403435 116.350911 
L 361.040393 129.233074 
L 361.654252 133.087831 
L 363.086591 143.091291 
L 363.49583 143.985146 
L 363.70045 144.073297 
L 364.109689 143.59936 
L 364.314309 143.392915 
L 364.518929 143.380693 
L 365.542027 143.880277 
L 366.360506 145.130029 
L 366.974365 146.159151 
L 367.178985 146.253951 
L 367.792844 146.062134 
L 367.997464 146.400679 
L 368.406703 148.239938 
L 369.020563 151.966079 
L 369.429802 153.063213 
L 369.839041 153.523535 
L 370.248281 153.788937 
L 370.452901 154.135207 
L 370.86214 155.871877 
L 371.475999 158.863556 
L 372.089858 160.091966 
L 373.112957 162.013614 
L 373.522197 163.030957 
L 374.340675 164.26114 
L 375.568394 167.29854 
L 376.182253 169.894363 
L 376.386873 170.288382 
L 376.591492 170.299907 
L 377.000732 169.539671 
L 377.819211 167.413288 
L 378.023831 167.442545 
L 378.22845 167.789955 
L 379.251549 170.391858 
L 380.070028 171.419649 
L 380.479267 172.1436 
L 381.093126 172.632165 
L 381.911605 173.205525 
L 382.320845 173.306847 
L 382.525465 173.69181 
L 382.934704 175.611494 
L 383.343943 177.209289 
L 383.548563 177.130448 
L 383.957803 175.445262 
L 384.571662 172.633431 
L 384.980901 172.118079 
L 385.390141 171.992376 
L 385.79938 172.410332 
L 386.20862 173.143908 
L 386.617859 174.666724 
L 387.845577 181.63367 
L 388.254817 182.388714 
L 388.664056 182.645757 
L 389.073296 182.903306 
L 390.096394 184.411051 
L 390.301014 184.38287 
L 390.710254 183.875877 
L 391.324113 182.888298 
L 391.733352 182.241226 
L 392.551831 180.361311 
L 392.961071 179.865273 
L 393.37031 179.775096 
L 393.77955 179.741913 
L 394.188789 179.438135 
L 394.598028 178.992188 
L 394.802648 178.969264 
L 395.211888 179.103706 
L 395.825747 178.796319 
L 396.234986 179.151645 
L 397.053465 180.155119 
L 397.462705 180.52216 
L 397.667324 180.39519 
L 398.076564 179.510137 
L 398.690423 177.19998 
L 399.304282 175.035728 
L 399.508902 174.843342 
L 399.713522 174.992603 
L 400.122761 175.963021 
L 401.350479 180.003958 
L 401.964339 181.949987 
L 402.168958 182.165487 
L 402.373578 182.01135 
L 402.782818 180.886859 
L 403.192057 179.500765 
L 403.396677 179.132837 
L 403.601296 179.06628 
L 404.419775 179.529578 
L 404.829015 179.189831 
L 406.261353 177.39433 
L 406.465973 177.371976 
L 406.670592 177.474755 
L 407.079832 177.939193 
L 407.284451 177.987637 
L 407.898311 177.232657 
L 408.10293 177.511611 
L 408.921409 180.763182 
L 409.126029 180.541792 
L 410.149128 177.817795 
L 410.558367 176.957439 
L 411.172226 175.365977 
L 411.581466 175.044911 
L 411.990705 175.08069 
L 412.195325 175.191069 
L 412.399945 175.456281 
L 413.218424 177.133107 
L 413.423043 177.046667 
L 413.832283 176.387246 
L 414.241522 175.862775 
L 414.855381 176.134256 
L 415.060001 175.882026 
L 415.469241 174.441028 
L 416.0831 172.081603 
L 416.287719 171.946147 
L 416.696959 172.434586 
L 417.106198 172.955004 
L 417.720058 173.294182 
L 418.129297 173.331165 
L 418.947776 173.285126 
L 419.357015 172.730068 
L 419.766255 172.317241 
L 419.970875 172.539075 
L 420.380114 174.046123 
L 421.198593 178.567013 
L 421.607832 179.572767 
L 422.221692 180.340983 
L 422.426311 180.484734 
L 422.630931 180.475425 
L 422.835551 180.303873 
L 423.04017 179.936135 
L 424.063269 177.189025 
L 424.267889 177.333093 
L 424.472509 177.89556 
L 425.495607 182.393147 
L 426.518706 184.500151 
L 426.927945 184.201693 
L 427.337185 183.758089 
L 427.541804 183.730289 
L 427.746424 184.042743 
L 428.155664 185.742114 
L 428.769523 188.094636 
L 429.792621 191.288263 
L 429.997241 191.106009 
L 430.81572 189.63759 
L 431.02034 189.671026 
L 431.22496 189.972525 
L 432.043438 191.901455 
L 432.452678 192.561065 
L 433.680396 196.655071 
L 434.089636 197.441145 
L 435.521974 200.850715 
L 435.726594 200.923288 
L 436.340453 200.031775 
L 436.545072 200.208266 
L 436.954312 200.897957 
L 437.772791 201.282476 
L 438.18203 201.196352 
L 439.000509 200.641674 
L 439.205129 201.03145 
L 440.023608 203.791605 
L 440.228228 203.952962 
L 440.432847 203.763362 
L 441.046706 202.456426 
L 441.455946 201.743685 
L 441.660566 201.826453 
L 442.274425 202.793071 
L 442.479045 202.79478 
L 442.683664 202.469661 
L 443.706763 199.38027 
L 444.934481 195.041571 
L 445.139101 194.940375 
L 445.343721 195.322804 
L 446.1622 197.800777 
L 446.776059 198.733008 
L 447.185298 199.54207 
L 447.389918 199.700956 
L 447.594538 199.60356 
L 448.413017 198.650557 
L 448.617636 198.569626 
L 448.822256 198.78595 
L 449.640735 201.158989 
L 449.845355 201.215983 
L 450.049974 200.99681 
L 451.482312 198.421315 
L 451.891552 198.546131 
L 452.505411 199.013672 
L 452.914651 198.65157 
L 453.32389 198.361091 
L 453.733129 198.350389 
L 453.937749 198.519661 
L 454.346989 199.667267 
L 454.756228 200.876679 
L 455.165468 201.136825 
L 455.983946 201.333201 
L 456.802425 200.603488 
L 457.007045 200.837353 
L 457.416285 202.158917 
L 458.234763 205.666771 
L 458.644003 206.325115 
L 458.848623 206.34576 
L 459.053242 206.166545 
L 459.462482 205.254641 
L 459.871721 204.292709 
L 460.076341 204.118118 
L 460.48558 204.166943 
L 460.6902 204.021798 
L 461.304059 203.170878 
L 461.508679 203.094126 
L 461.713299 203.199121 
L 462.736397 204.564444 
L 462.941017 204.984553 
L 463.554876 207.00366 
L 463.759496 207.142029 
L 463.964116 206.860669 
L 464.577975 204.969355 
L 464.987214 203.995264 
L 465.191834 204.025408 
L 465.805693 205.017673 
L 466.010313 204.919897 
L 466.624172 203.893308 
L 467.033412 203.258775 
L 467.238031 203.382199 
L 468.874989 206.965411 
L 469.079609 207.212828 
L 469.284229 207.266213 
L 469.488848 207.094471 
L 470.102708 206.065603 
L 470.307327 205.931033 
L 470.511947 205.998476 
L 470.716567 206.28047 
L 471.125806 207.408128 
L 471.739665 209.240738 
L 472.148905 209.786297 
L 472.353525 209.91979 
L 472.558144 209.853487 
L 472.967384 209.031253 
L 473.581243 207.562898 
L 473.990482 207.093268 
L 474.399722 206.949706 
L 474.808961 206.3766 
L 475.422821 205.270473 
L 476.03668 205.098668 
L 476.855159 204.035983 
L 477.264398 203.902617 
L 477.469018 203.927694 
L 477.673638 204.093357 
L 478.082877 204.893109 
L 478.492116 205.744853 
L 478.696736 205.830281 
L 479.105976 205.743207 
L 479.719835 206.041475 
L 479.924455 205.638971 
L 480.333694 203.698262 
L 480.947553 200.644397 
L 481.152173 200.320924 
L 481.356793 200.382795 
L 481.766032 201.286213 
L 482.379891 203.320835 
L 482.99375 204.089557 
L 483.40299 205.630485 
L 483.812229 207.036337 
L 484.016849 207.070787 
L 484.630708 206.050784 
L 484.835328 205.966813 
L 485.244567 206.216003 
L 485.653807 206.410923 
L 486.063046 206.363048 
L 486.472286 206.85326 
L 486.676905 207.330363 
L 487.700004 210.74443 
L 487.904624 210.662675 
L 488.313863 209.98166 
L 488.723103 209.391899 
L 488.927722 209.41628 
L 489.336962 209.709862 
L 489.541582 209.658061 
L 490.155441 208.938986 
L 490.360061 208.919862 
L 490.97392 209.702199 
L 491.178539 209.561551 
L 491.383159 209.005163 
L 492.201638 205.699828 
L 492.406258 205.482681 
L 492.610878 205.536445 
L 493.020117 206.106068 
L 493.633976 207.060528 
L 494.043216 207.29661 
L 494.247835 207.821841 
L 495.066314 211.34597 
L 495.270934 211.573186 
L 495.680173 211.527527 
L 496.498652 211.385422 
L 496.907892 210.799081 
L 497.112512 210.712703 
L 497.521751 210.90357 
L 497.726371 210.778183 
L 498.54485 209.562437 
L 498.749469 209.830309 
L 499.158709 210.688512 
L 499.363329 210.808453 
L 499.567948 210.600361 
L 499.977188 209.494615 
L 501.000286 205.687289 
L 501.409526 204.361292 
L 501.818765 203.881846 
L 502.023385 203.905467 
L 502.432624 204.289036 
L 503.660343 206.002276 
L 504.069582 207.002077 
L 504.478822 208.620137 
L 505.092681 212.371102 
L 505.50192 214.63123 
L 505.70654 215.04108 
L 505.91116 214.935071 
L 506.320399 213.743137 
L 506.729639 212.793934 
L 506.934258 212.884174 
L 507.957357 214.607673 
L 508.161977 214.667516 
L 508.366597 214.572716 
L 508.571216 214.165209 
L 509.594315 210.560276 
L 510.003554 209.990082 
L 510.208174 209.91371 
L 510.617414 210.141813 
L 511.026653 210.745696 
L 512.254371 213.470706 
L 512.868231 215.839756 
L 513.07285 215.975528 
L 513.27747 215.636288 
L 513.686709 214.025194 
L 514.095949 212.38725 
L 514.505188 211.731376 
L 514.709808 211.87728 
L 515.119048 213.169207 
L 515.937526 216.353905 
L 516.142146 216.829489 
L 516.346766 216.956079 
L 516.551386 216.766858 
L 517.574484 214.868642 
L 517.779104 214.85414 
L 517.983724 214.694747 
L 518.392963 214.146718 
L 518.597583 214.133229 
L 519.006822 214.576136 
L 520.43916 216.817013 
L 521.05302 217.251687 
L 521.462259 216.991161 
L 521.871498 216.694983 
L 523.099217 216.336807 
L 523.508456 216.705938 
L 523.917696 217.450723 
L 524.326935 218.473449 
L 524.531555 218.706047 
L 524.736175 218.633538 
L 525.963893 217.041126 
L 526.373132 215.95653 
L 526.986992 213.236334 
L 527.396231 211.625113 
L 527.600851 211.428294 
L 527.805471 211.68863 
L 529.033189 214.649722 
L 529.237809 214.658017 
L 529.442428 214.483299 
L 529.851668 213.563353 
L 530.465527 211.600353 
L 530.874766 210.915158 
L 531.079386 210.83543 
L 531.284006 210.999003 
L 531.693245 211.897861 
L 532.511724 213.658216 
L 532.920964 214.554858 
L 533.534823 216.289249 
L 533.739443 216.331741 
L 533.944062 216.009218 
L 534.762541 213.633709 
L 534.967161 213.489704 
L 535.171781 213.572598 
L 535.58102 214.332772 
L 536.194879 215.985407 
L 536.399499 216.114594 
L 537.217978 215.619126 
L 537.627217 215.054696 
L 538.241077 213.571522 
L 539.059556 210.810289 
L 539.468795 210.26416 
L 539.673415 210.382961 
L 541.105753 212.95795 
L 541.514992 214.081871 
L 541.719612 214.377797 
L 541.924232 214.401101 
L 542.333471 214.015315 
L 543.15195 213.081373 
L 543.35657 213.071621 
L 543.56119 213.368623 
L 543.970429 214.31181 
L 544.175049 214.478486 
L 544.584288 214.213781 
L 545.402767 213.411939 
L 546.221246 213.245136 
L 546.835105 213.228165 
L 547.244345 213.525357 
L 548.062824 214.736352 
L 548.267443 214.564041 
L 548.676683 214.087571 
L 548.881302 214.276348 
L 549.495162 215.552126 
L 550.9275 216.864951 
L 551.132119 216.784273 
L 551.541359 215.839186 
L 551.950598 214.713618 
L 552.359838 214.111445 
L 552.769077 213.969656 
L 552.973697 214.006069 
L 553.178317 214.199469 
L 553.587556 215.396026 
L 554.201415 217.305832 
L 555.429134 218.928261 
L 555.633753 218.988674 
L 555.838373 218.867404 
L 556.452232 218.237177 
L 556.656852 218.420508 
L 557.475331 220.297763 
L 557.88457 221.274577 
L 558.08919 221.506986 
L 558.29381 221.354558 
L 558.907669 219.873095 
L 559.112289 219.741628 
L 559.316908 219.890763 
L 559.930768 221.183133 
L 560.340007 221.895621 
L 560.749247 222.093834 
L 560.953866 221.971803 
L 561.363106 221.18022 
L 562.386204 218.252692 
L 562.590824 218.059926 
L 562.795444 218.171887 
L 563.204683 219.189863 
L 564.637021 224.05772 
L 565.046261 224.554708 
L 565.250881 224.569273 
L 565.4555 224.331418 
L 565.86474 223.546421 
L 566.069359 223.403809 
L 566.478599 223.565989 
L 566.683219 223.359417 
L 567.501698 220.950408 
L 567.910937 219.876134 
L 568.115557 219.666396 
L 568.524796 219.725797 
L 568.934036 219.330638 
L 569.343275 219.073849 
L 569.547895 218.994437 
L 570.366374 218.126925 
L 570.775613 218.635818 
L 571.184853 219.616622 
L 571.594092 221.099985 
L 571.798712 221.475892 
L 572.003332 221.380269 
L 572.82181 219.654618 
L 573.23105 219.667093 
L 573.640289 219.634416 
L 574.458768 219.214244 
L 574.663388 219.364518 
L 575.072627 220.422073 
L 575.481867 221.483682 
L 575.891106 221.970474 
L 576.095726 222.005367 
L 576.300346 221.833181 
L 576.709585 221.282809 
L 576.914205 221.369314 
L 577.732684 222.944121 
L 578.141923 223.026889 
L 578.346543 223.200594 
L 578.755783 224.047968 
L 579.778881 227.518586 
L 579.983501 227.459059 
L 580.39274 226.496367 
L 581.0066 224.970511 
L 581.415839 224.522348 
L 581.620459 224.336421 
L 581.825078 223.979702 
L 582.234318 222.525532 
L 582.643557 221.132472 
L 582.848177 221.011328 
L 583.257417 221.286482 
L 583.666656 221.378116 
L 583.871276 221.676131 
L 584.689755 223.637675 
L 585.098994 223.639131 
L 586.326712 223.061782 
L 586.735952 222.613872 
L 587.145191 221.687783 
L 587.96367 219.334121 
L 588.16829 219.145218 
L 588.37291 219.287133 
L 588.782149 220.007284 
L 589.191389 221.148937 
L 589.805248 223.037274 
L 590.419107 223.96786 
L 590.623727 224.06494 
L 590.828346 223.922328 
L 591.237586 222.923666 
L 592.669924 219.093733 
L 593.079163 218.495613 
L 593.283783 218.420191 
L 593.488403 218.719283 
L 595.5346 225.212355 
L 596.148459 225.57528 
L 596.557699 226.029839 
L 596.762319 225.849738 
L 597.990037 223.219909 
L 598.399276 222.659024 
L 598.808516 221.652067 
L 599.422375 219.400044 
L 599.831614 218.009581 
L 600.036234 217.88945 
L 600.240854 218.232301 
L 600.854713 220.072637 
L 601.059333 220.289911 
L 601.263952 220.164714 
L 601.673192 219.655567 
L 601.877812 219.66684 
L 602.287051 220.241466 
L 603.514769 222.607286 
L 604.128629 222.756041 
L 604.742488 223.258918 
L 604.947108 223.260184 
L 605.151727 223.094142 
L 605.356347 222.683152 
L 606.174826 220.004877 
L 606.584065 219.814961 
L 606.788685 219.725987 
L 606.993305 219.487182 
L 608.016403 217.282654 
L 608.834882 216.373283 
L 609.039502 216.637609 
L 609.653361 218.561409 
L 610.47184 221.152293 
L 611.290319 224.679082 
L 611.494939 224.813714 
L 611.699559 224.407663 
L 612.518037 221.520158 
L 612.927277 220.921784 
L 613.336516 220.420427 
L 614.154995 219.004253 
L 614.359615 218.93263 
L 614.768854 219.068656 
L 614.973474 218.964674 
L 615.587333 218.223878 
L 615.791953 218.405119 
L 615.996573 219.084994 
L 616.815052 223.229028 
L 617.019671 223.55516 
L 617.224291 223.451368 
L 617.633531 222.16305 
L 618.04277 220.701091 
L 618.861249 219.247807 
L 619.679728 216.682951 
L 620.088967 216.147904 
L 620.293587 216.093063 
L 620.498207 216.165825 
L 620.702827 216.432367 
L 621.521305 218.106724 
L 621.725925 217.9871 
L 622.135165 217.09945 
L 622.544404 216.027836 
L 622.953644 215.606271 
L 623.362883 215.721399 
L 623.976742 216.384049 
L 624.795221 217.527602 
L 625.204461 217.586622 
L 625.6137 217.629304 
L 626.022939 217.680346 
L 626.432179 217.607267 
L 626.841418 217.650962 
L 627.046038 217.495178 
L 627.250658 217.16664 
L 627.659897 215.872686 
L 628.682996 211.878547 
L 628.887616 211.583571 
L 629.296855 211.519865 
L 629.706095 211.744421 
L 630.729193 213.044834 
L 631.138433 213.077004 
L 631.343052 212.900702 
L 632.161531 211.59459 
L 632.366151 211.638539 
L 632.77539 212.241345 
L 633.18463 213.136404 
L 633.38925 213.286235 
L 633.593869 213.107401 
L 634.003109 212.507381 
L 634.207729 212.447347 
L 634.412348 212.626751 
L 635.230827 214.198329 
L 636.049306 214.464808 
L 636.458545 214.244431 
L 636.867785 213.863964 
L 637.277024 213.861431 
L 637.890884 213.987135 
L 638.095503 214.295852 
L 639.118602 216.922705 
L 639.323222 217.010159 
L 639.527841 216.829045 
L 639.937081 215.769084 
L 640.75556 212.66918 
L 641.369419 210.203747 
L 641.574039 209.882427 
L 641.778658 209.842151 
L 642.187898 210.131618 
L 642.392518 210.055879 
L 642.801757 209.063107 
L 643.210996 208.188629 
L 643.415616 208.034745 
L 643.620236 208.029046 
L 643.824856 208.193632 
L 644.643335 209.703213 
L 645.666433 211.543232 
L 645.871053 211.544879 
L 646.075673 211.317663 
L 646.484912 210.154795 
L 647.508011 206.200045 
L 647.91725 205.199484 
L 648.12187 205.169214 
L 649.963447 207.899289 
L 650.372687 208.814613 
L 650.577307 208.992118 
L 650.781926 208.869644 
L 651.191166 207.697721 
L 651.805025 205.697801 
L 652.418884 204.254587 
L 654.260462 199.354116 
L 654.465081 199.317703 
L 654.669701 199.590071 
L 655.28356 200.919995 
L 655.48818 201.083567 
L 655.6928 200.961347 
L 656.306659 200.090985 
L 656.511279 200.251645 
L 656.920518 201.24467 
L 657.738997 203.587757 
L 658.148237 204.271748 
L 658.352856 204.382823 
L 658.557476 204.352996 
L 658.966715 203.956761 
L 659.375955 203.678694 
L 659.580575 203.69003 
L 659.785194 203.542478 
L 660.194434 202.377015 
L 660.399054 201.818727 
L 660.603673 201.641285 
L 661.012913 201.840321 
L 661.217532 201.745774 
L 661.422152 201.365498 
L 661.831392 199.677969 
L 662.445251 197.223111 
L 663.05911 195.83632 
L 663.26373 195.570855 
L 663.468349 195.488024 
L 663.672969 195.603658 
L 664.286828 196.211087 
L 664.696068 196.421965 
L 665.105307 196.835932 
L 665.309927 196.8163 
L 665.719166 196.321972 
L 666.333026 195.569082 
L 666.537645 195.49461 
L 666.742265 195.65356 
L 667.356124 196.739105 
L 667.560744 196.59852 
L 668.174603 195.193428 
L 668.583843 194.183494 
L 668.788462 194.016692 
L 668.993082 194.32484 
L 669.811561 196.762156 
L 670.016181 197.03921 
L 670.2208 197.054979 
L 670.42542 196.718461 
L 671.448519 193.773391 
L 671.653139 193.322695 
L 671.857758 192.520726 
L 672.266998 189.586802 
L 673.085477 182.594525 
L 673.494716 180.602459 
L 673.699336 180.062029 
L 673.903956 179.943101 
L 674.108575 180.33294 
L 674.517815 182.277639 
L 675.336294 186.700879 
L 675.950153 188.627846 
L 676.154772 188.891982 
L 676.359392 188.879 
L 676.768632 188.437993 
L 677.79173 186.702273 
L 678.405589 184.964336 
L 678.610209 184.715905 
L 678.814829 184.706723 
L 679.224068 184.98213 
L 679.428688 184.898286 
L 679.633308 184.374385 
L 680.042547 182.04846 
L 680.861026 175.648224 
L 682.088745 162.623956 
L 683.316463 144.770714 
L 683.521083 143.371701 
L 683.725702 143.034677 
L 683.930322 143.793457 
L 684.339562 147.93597 
L 685.56728 163.511606 
L 685.976519 166.531274 
L 686.794998 169.70926 
L 687.204238 171.028101 
L 687.408857 171.174639 
L 687.613477 171.016005 
L 688.022717 170.061609 
L 689.250435 166.300702 
L 689.659674 164.940889 
L 690.068914 162.380402 
L 690.478153 157.950702 
L 691.092013 148.470511 
L 691.705872 135.387919 
L 693.34283 95.514476 
L 693.752069 92.373537 
L 693.956689 91.862301 
L 694.161308 92.047278 
L 694.365928 92.927519 
L 695.184407 99.316736 
L 695.593647 101.898184 
L 695.798266 102.62796 
L 696.002886 102.927749 
L 696.207506 102.906914 
L 696.412125 102.672606 
L 696.616745 102.202595 
L 696.821365 101.297467 
L 697.025985 99.650151 
L 697.435224 93.219012 
L 697.844464 82.091694 
L 698.253703 65.014836 
L 698.662942 39.965342 
L 699.131366 -1 
M 701.947537 -1 
L 702.755337 48.443642 
L 703.573816 85.209709 
L 704.187675 101.594216 
L 704.801534 112.207258 
L 705.415393 120.072366 
L 706.438492 129.382905 
L 707.461591 137.644691 
L 707.87083 139.573305 
L 708.28007 140.72281 
L 708.689309 141.245065 
L 708.893929 141.193707 
L 709.303168 140.232472 
L 709.507788 139.756382 
L 709.712408 139.669371 
L 710.326267 140.399907 
L 710.530887 140.265845 
L 710.735506 139.750113 
L 711.144746 137.795345 
L 712.167844 130.896222 
L 712.577084 126.29763 
L 713.190943 118.41498 
L 713.600182 115.98007 
L 714.214042 114.037525 
L 714.418661 112.685311 
L 714.827901 107.649385 
L 715.64638 93.32673 
L 716.260239 79.038969 
L 717.487957 40.625333 
L 718.511056 10.506602 
L 718.920295 4.587776 
L 719.124915 3.418766 
L 719.329535 3.308514 
L 719.534155 4.210919 
L 719.738774 6.124398 
L 720.148014 13.219263 
L 720.761873 30.601925 
L 721.784972 60.9328 
L 722.60345 76.940133 
L 723.831169 97.055151 
L 724.649648 108.111606 
L 726.081986 121.091292 
L 726.900465 125.207145 
L 727.309704 126.359753 
L 727.514324 126.344872 
L 727.718944 125.876761 
L 728.332803 123.718335 
L 728.537423 123.600167 
L 728.742042 123.82846 
L 729.151282 124.946936 
L 729.765141 127.010308 
L 729.969761 127.218336 
L 730.78824 127.08326 
L 730.992859 127.314783 
L 731.402099 128.265189 
L 732.015958 129.874256 
L 732.629817 130.98051 
L 732.834437 131.069547 
L 733.448296 130.991655 
L 733.652916 131.174543 
L 734.062155 132.058266 
L 734.676014 133.530485 
L 734.880634 133.561831 
L 735.085254 133.144825 
L 735.494493 130.823206 
L 736.312972 124.930281 
L 737.94993 117.363631 
L 738.768409 112.072625 
L 739.382268 108.112809 
L 739.586888 107.350736 
L 739.791508 107.147141 
L 739.996127 107.53793 
L 740.405367 109.591297 
L 740.814606 113.287801 
L 742.042325 128.150441 
L 742.656184 132.154903 
L 743.065423 133.541187 
L 743.883902 135.233149 
L 744.088522 135.380826 
L 744.293142 135.166719 
L 744.702381 133.619838 
L 745.72548 128.262656 
L 746.339339 126.505848 
L 746.748578 123.70358 
L 747.771677 114.079131 
L 748.590156 109.71966 
L 748.794776 109.202344 
L 748.999395 109.300944 
L 749.204015 110.000387 
L 749.613254 113.109726 
L 750.840973 125.524538 
L 751.454832 130.159606 
L 751.864071 131.566598 
L 752.068691 131.677166 
L 752.273311 131.568688 
L 753.501029 130.048785 
L 753.705649 130.117051 
L 754.114888 130.582565 
L 754.319508 130.590038 
L 754.728748 130.029153 
L 755.342607 128.913021 
L 755.751846 127.875414 
L 755.956466 127.661306 
L 756.774945 127.737425 
L 756.979565 127.350056 
L 757.388804 125.589321 
L 757.798043 123.60707 
L 758.002663 123.110019 
L 758.207283 122.963988 
L 759.230382 123.583892 
L 759.435001 123.928959 
L 760.04886 125.940847 
L 760.66272 128.133976 
L 761.071959 128.884207 
L 761.276579 128.89586 
L 762.708917 127.2184 
L 762.913537 127.167105 
L 763.118156 127.511032 
L 763.936635 130.611252 
L 764.141255 130.770709 
L 764.755114 130.66014 
L 765.778213 131.278905 
L 766.596692 131.537595 
L 767.415171 131.292204 
L 767.82441 130.510056 
L 768.642889 128.547056 
L 768.847509 128.35467 
L 769.256748 128.42015 
L 770.484467 129.106991 
L 771.098326 129.918712 
L 771.302945 129.946955 
L 772.121424 129.393734 
L 772.326044 129.290321 
L 772.939903 128.309961 
L 773.144523 128.494748 
L 773.553762 129.868937 
L 773.963002 131.033514 
L 774.167622 131.122932 
L 774.576861 130.963728 
L 774.781481 131.117042 
L 775.39534 132.211454 
L 775.804579 133.60388 
L 776.418439 136.143786 
L 776.623058 136.29881 
L 776.827678 135.97445 
L 777.236918 134.855532 
L 777.441537 134.787709 
L 777.646157 135.311547 
L 778.464636 139.022996 
L 778.873875 139.58711 
L 779.896974 141.815765 
L 780.101594 141.89315 
L 780.510833 141.595198 
L 780.715453 141.479627 
L 780.920073 141.571767 
L 781.738552 142.717727 
L 781.943171 142.499756 
L 782.55703 140.897528 
L 783.17089 139.516311 
L 783.580129 139.128941 
L 783.784749 139.227668 
L 783.989369 139.728202 
L 784.603228 142.164822 
L 784.807847 142.384565 
L 785.830946 141.677523 
L 786.035566 141.552263 
L 786.240186 141.758771 
L 787.058664 144.151632 
L 787.263284 144.108887 
L 788.081763 143.535274 
L 788.695622 143.31496 
L 788.900242 143.393612 
L 789.309481 144.268723 
L 789.923341 146.456786 
L 791.151059 151.51152 
L 791.969538 156.817978 
L 792.378777 158.427172 
L 792.788017 159.126425 
L 793.606496 159.242566 
L 794.015735 159.418044 
L 794.424975 159.282525 
L 794.629594 159.393726 
L 795.038834 160.37358 
L 795.652693 161.886834 
L 795.857313 162.154959 
L 796.061932 162.161038 
L 796.471172 161.935152 
L 796.675792 162.01697 
L 797.085031 162.602235 
L 797.69889 163.697533 
L 798.10813 163.988202 
L 798.517369 164.73913 
L 798.926609 165.948479 
L 799.949707 169.921404 
L 800.358947 170.955338 
L 801.177426 173.53229 
L 801.382045 173.580545 
L 801.995904 172.679343 
L 802.200524 172.93341 
L 802.609764 174.54425 
L 803.223623 177.307382 
L 803.632862 178.390268 
L 804.655961 180.305077 
L 805.883679 182.661778 
L 806.702158 184.775686 
L 806.906778 184.863583 
L 807.111398 184.762894 
L 807.929877 183.800835 
L 808.134496 183.891645 
L 808.543736 184.885811 
L 809.157595 187.240613 
L 809.771454 189.750248 
L 810.180694 190.663545 
L 810.589933 191.09765 
L 810.794553 191.251217 
L 810.999172 191.559174 
L 811.408412 192.757821 
L 812.431511 196.681351 
L 812.84075 197.032751 
L 813.04537 197.58192 
L 813.454609 199.692281 
L 813.863849 201.898835 
L 814.273088 202.919851 
L 814.477708 202.895913 
L 814.886947 202.173039 
L 815.296187 201.459728 
L 815.500806 201.416856 
L 815.705426 201.690237 
L 816.114666 203.013447 
L 817.751623 210.469655 
L 818.979342 216.514565 
L 819.183962 216.399057 
L 819.797821 215.066474 
L 820.00244 215.055645 
L 820.20706 215.305722 
L 820.6163 216.363721 
L 821.025539 218.174357 
L 821.639398 220.985047 
L 822.048638 221.78062 
L 822.457877 222.012332 
L 822.867117 221.90968 
L 823.276356 221.599063 
L 823.685596 221.056543 
L 823.890215 221.013291 
L 825.936413 222.593038 
L 826.550272 222.765413 
L 826.754891 222.619065 
L 828.18723 219.921349 
L 828.596469 219.108108 
L 828.801089 219.032053 
L 829.414948 219.261866 
L 830.028807 219.711992 
L 830.233427 219.578752 
L 830.438046 219.121027 
L 831.665765 214.675685 
L 832.075004 214.107455 
L 832.279624 213.638015 
L 832.688863 211.569069 
L 833.507342 205.738647 
L 834.530441 200.110363 
L 835.34892 193.78213 
L 835.55354 193.08237 
L 836.576638 191.624211 
L 836.781258 191.805832 
L 836.985878 192.625025 
L 837.804357 197.413661 
L 838.213596 198.203028 
L 838.418216 198.280856 
L 838.622836 198.050537 
L 838.827455 197.42107 
L 839.236695 195.175823 
L 839.850554 191.568293 
L 840.464413 188.757033 
L 841.078272 185.597476 
L 841.692131 184.09942 
L 842.101371 183.49636 
L 842.51061 183.298465 
L 842.71523 183.018624 
L 843.329089 181.225086 
L 844.147568 178.406227 
L 844.556808 176.688618 
L 845.579906 171.09643 
L 846.603005 169.188524 
L 846.807625 169.121208 
L 847.012244 169.278702 
L 847.421484 170.025323 
L 848.035343 171.296859 
L 848.239963 171.226313 
L 848.649202 170.509012 
L 848.853822 170.413515 
L 849.058442 170.7532 
L 849.467681 172.795611 
L 849.876921 175.383645 
L 850.08154 176.106012 
L 850.695399 176.785824 
L 851.104639 178.232078 
L 851.718498 181.271441 
L 853.560076 192.422063 
L 856.833991 223.576691 
L 858.880189 250.422953 
L 859.034628 253 
M 890.196914 253 
L 891.210105 206.876754 
L 893.870162 109.365031 
L 895.3025 53.344493 
L 896.457643 -1 
M 909.819798 -1 
L 910.497241 253 
M 911.528009 253 
L 911.751277 -1 
M 944.711322 -1 
L 946.662051 24.896193 
L 947.68515 35.271443 
L 948.299009 38.951356 
L 949.731347 45.305363 
L 951.163685 54.300219 
L 951.777544 58.332164 
L 953.005263 67.66835 
L 953.414502 69.731216 
L 954.028361 71.930108 
L 954.437601 74.28453 
L 956.279178 87.40822 
L 956.688418 88.797227 
L 957.097657 89.580388 
L 957.506897 91.091869 
L 958.325376 94.829219 
L 959.348474 101.259408 
L 959.757714 101.981015 
L 959.962334 102.27922 
L 960.371573 103.796844 
L 961.394672 108.507208 
L 961.803911 109.656713 
L 962.008531 109.720736 
L 962.213151 109.443746 
L 962.62239 108.443881 
L 962.82701 108.267959 
L 963.031629 108.504295 
L 963.440869 109.221786 
L 963.645489 109.136295 
L 964.259348 108.196717 
L 964.463968 108.516643 
L 965.282446 111.263121 
L 965.691686 111.759412 
L 965.896306 112.332835 
L 966.305545 114.526153 
L 967.124024 119.402686 
L 967.737883 121.45998 
L 968.760982 123.585792 
L 969.170221 124.408596 
L 969.579461 125.977577 
L 970.19332 128.270572 
L 970.602559 129.11193 
L 970.807179 129.295704 
L 971.011799 129.26841 
L 971.421038 128.934425 
L 971.625658 129.05348 
L 971.830278 129.579724 
L 972.853376 133.515033 
L 973.057996 133.485016 
L 973.467236 133.125574 
L 974.490334 133.797786 
L 974.694954 134.227204 
L 975.513433 137.15277 
L 975.718053 137.168791 
L 976.331912 136.653312 
L 976.741151 136.709166 
L 977.150391 137.109264 
L 978.173489 139.073847 
L 978.991968 140.268188 
L 979.196588 140.312453 
L 979.401208 140.022164 
L 979.810447 138.454196 
L 980.219687 137.093559 
L 980.424306 137.01858 
L 980.628926 137.323562 
L 981.242785 139.321518 
L 981.652025 141.080606 
L 982.265884 144.318371 
L 982.470504 144.793258 
L 982.675123 144.690732 
L 983.493602 142.986928 
L 983.902842 142.297238 
L 984.312081 141.653649 
L 984.516701 141.715456 
L 984.92594 142.059129 
L 985.744419 142.055393 
L 986.153659 142.716143 
L 986.767518 143.840445 
L 987.790616 145.164732 
L 988.199856 146.018376 
L 989.632194 150.689603 
L 989.836814 150.986352 
L 990.246053 150.97033 
L 990.450673 150.993255 
L 990.655293 151.188364 
L 991.064532 152.311716 
L 991.473771 153.758793 
L 991.883011 154.390287 
L 992.087631 154.319234 
L 992.90611 153.259653 
L 993.315349 152.272327 
L 993.724588 151.045373 
L 994.133828 148.965788 
L 994.952307 143.198503 
L 995.156927 142.769781 
L 995.361546 143.053295 
L 995.770786 145.179487 
L 996.793884 152.047454 
L 996.998504 152.651273 
L 997.203124 152.808007 
L 998.021603 152.336033 
L 998.430842 153.34926 
L 999.249321 155.6907 
L 1000.27242 158.247514 
L 1000.681659 159.404302 
L 1001.090899 159.919781 
L 1001.704758 160.133065 
L 1002.113997 159.913005 
L 1002.523237 159.751585 
L 1002.727856 159.765327 
L 1002.932476 159.636837 
L 1004.160195 157.814676 
L 1004.978673 157.445228 
L 1005.387913 157.132965 
L 1005.592533 157.20503 
L 1006.411012 158.030303 
L 1006.820251 158.972414 
L 1008.047969 163.104795 
L 1008.661829 164.890291 
L 1009.071068 165.345229 
L 1009.684927 165.674845 
L 1009.889547 166.00655 
L 1010.298786 167.364083 
L 1010.708026 168.664433 
L 1011.117265 169.121778 
L 1011.321885 169.177189 
L 1011.731124 168.960802 
L 1012.754223 168.352359 
L 1012.958843 168.545126 
L 1013.163463 169.080679 
L 1013.572702 171.100546 
L 1014.391181 175.770128 
L 1014.80042 176.608826 
L 1015.00504 176.628584 
L 1015.20966 176.395415 
L 1015.618899 175.104691 
L 1016.846618 169.622122 
L 1017.255857 169.1953 
L 1017.460477 169.111139 
L 1017.665097 168.840544 
L 1018.074336 167.604091 
L 1018.688195 165.487461 
L 1018.892815 165.069252 
L 1019.097435 164.977238 
L 1019.302054 165.258282 
L 1019.711294 166.585925 
L 1020.529773 169.417894 
L 1022.57597 174.160301 
L 1022.78059 174.241992 
L 1023.599069 173.891162 
L 1023.803688 174.086335 
L 1024.622167 175.580591 
L 1025.440646 175.817179 
L 1025.849886 176.12615 
L 1026.463745 176.122034 
L 1026.668364 176.406687 
L 1027.282224 177.734141 
L 1027.486843 177.889798 
L 1027.691463 177.77125 
L 1028.100703 176.859853 
L 1028.714562 175.164282 
L 1028.919181 174.984497 
L 1029.328421 175.142244 
L 1030.35152 175.831301 
L 1030.760759 175.854036 
L 1031.374618 175.616751 
L 1031.783858 175.446845 
L 1031.988477 175.553614 
L 1032.397717 176.151354 
L 1032.806956 176.72579 
L 1033.420815 176.959149 
L 1034.239294 177.955277 
L 1034.443914 177.740283 
L 1034.853154 176.54094 
L 1035.262393 174.372825 
L 1035.671632 172.022583 
L 1036.080872 170.963191 
L 1036.285492 170.978453 
L 1036.490111 171.350117 
L 1037.51321 174.692498 
L 1038.945548 180.070578 
L 1039.150168 180.067095 
L 1039.559407 179.802896 
L 1039.968647 179.874265 
L 1040.787126 180.373089 
L 1040.991745 180.1814 
L 1041.196365 179.629381 
L 1041.605605 177.437582 
L 1042.219464 173.687504 
L 1042.424083 172.985654 
L 1042.628703 172.737351 
L 1042.833323 172.96843 
L 1043.242562 174.634744 
L 1044.265661 180.066145 
L 1044.6749 181.562174 
L 1044.87952 181.662104 
L 1045.08414 181.112808 
L 1045.493379 178.749964 
L 1046.107239 174.837263 
L 1046.311858 174.195447 
L 1046.516478 174.17094 
L 1046.925717 175.505612 
L 1047.334957 176.626178 
L 1047.539577 176.66791 
L 1047.744196 176.557975 
L 1047.948816 176.581026 
L 1048.153436 176.92185 
L 1048.767295 179.207752 
L 1049.176534 180.607271 
L 1049.381154 180.985838 
L 1049.585774 181.057144 
L 1049.790394 180.851966 
L 1050.199633 179.82506 
L 1050.608873 178.510526 
L 1050.813492 178.224796 
L 1051.018112 178.329158 
L 1051.836591 179.500891 
L 1052.24583 179.901306 
L 1052.45045 180.258785 
L 1052.85969 181.627591 
L 1053.268929 183.045601 
L 1054.496647 185.170527 
L 1054.701267 185.114673 
L 1056.133605 183.133182 
L 1056.338225 182.763798 
L 1056.542845 182.659752 
L 1056.747464 182.955867 
L 1057.565943 185.248229 
L 1057.770563 185.179456 
L 1058.179802 184.262486 
L 1058.589042 183.254832 
L 1058.998281 182.533162 
L 1059.407521 181.005913 
L 1059.81676 179.322373 
L 1060.02138 178.881747 
L 1060.226 178.810251 
L 1060.430619 179.036264 
L 1061.044479 180.04835 
L 1061.249098 179.982934 
L 1061.862957 179.231753 
L 1062.067577 179.510707 
L 1062.476817 181.199186 
L 1062.886056 183.256289 
L 1063.295296 184.182821 
L 1063.499915 184.173006 
L 1063.909155 183.410996 
L 1064.113774 183.032303 
L 1064.318394 182.974865 
L 1064.523014 183.324808 
L 1065.546113 186.813284 
L 1065.750732 186.830509 
L 1065.955352 186.505897 
L 1066.978451 183.94199 
L 1067.18307 183.972957 
L 1067.79693 184.727304 
L 1068.001549 184.675566 
L 1068.615408 184.068453 
L 1069.638507 182.651203 
L 1069.843127 182.80496 
L 1070.252366 183.537016 
L 1070.456986 183.509849 
L 1070.866225 181.964615 
L 1071.275465 180.738801 
L 1071.480085 180.910163 
L 1071.889324 182.5217 
L 1072.298564 184.445057 
L 1072.707803 185.343346 
L 1073.117042 185.612294 
L 1073.321662 185.522434 
L 1073.526282 185.11746 
L 1074.549381 181.629364 
L 1074.95862 181.632783 
L 1075.367859 181.888496 
L 1075.777099 182.737327 
L 1076.186338 183.925462 
L 1076.390958 184.226517 
L 1076.595578 184.220564 
L 1077.209437 183.552658 
L 1077.823296 182.477371 
L 1078.232536 181.383213 
L 1078.641775 180.069818 
L 1078.846395 179.964759 
L 1079.051015 180.585424 
L 1079.664874 184.917094 
L 1080.278733 188.516835 
L 1080.687972 189.641263 
L 1080.892592 189.757277 
L 1081.097212 189.614729 
L 1081.506451 188.821943 
L 1081.915691 187.441865 
L 1082.73417 184.168573 
L 1083.143409 183.243877 
L 1083.348029 183.143441 
L 1083.552649 183.351406 
L 1084.371127 184.999419 
L 1084.575747 185.174074 
L 1084.780367 185.153176 
L 1084.984987 184.882454 
L 1085.803466 182.918251 
L 1086.008085 182.981515 
L 1086.417325 183.880183 
L 1086.826564 184.782652 
L 1087.031184 184.961803 
L 1087.235804 184.902846 
L 1087.645043 184.069023 
L 1088.054283 183.336017 
L 1088.258902 183.392505 
L 1088.872761 184.130894 
L 1089.077381 184.011079 
L 1089.486621 183.538853 
L 1089.89586 183.448675 
L 1090.10048 183.552531 
L 1090.509719 184.148625 
L 1091.123578 185.531553 
L 1091.737438 187.387847 
L 1091.942057 187.615506 
L 1092.351297 187.572191 
L 1092.555917 187.368849 
L 1093.374395 185.933234 
L 1093.579015 186.121504 
L 1094.192874 187.309069 
L 1094.397494 187.264613 
L 1094.602114 186.713038 
L 1095.420593 183.495474 
L 1095.829832 182.793688 
L 1096.443691 182.421327 
L 1097.057551 182.554566 
L 1097.26217 182.273649 
L 1097.67141 181.015918 
L 1098.489889 178.111631 
L 1098.694508 178.136835 
L 1099.308367 179.198317 
L 1099.512987 178.983702 
L 1101.149945 175.396057 
L 1101.968424 171.588795 
L 1102.377663 170.898978 
L 1102.582283 170.602355 
L 1102.991523 169.045976 
L 1104.219241 162.510095 
L 1104.8331 156.790367 
L 1106.060818 144.695925 
L 1106.470058 140.896768 
L 1106.879297 135.280264 
L 1107.697776 119.592413 
L 1109.334734 88.583183 
L 1111.176312 60.232787 
L 1111.790171 45.385471 
L 1112.19941 31.595584 
L 1112.60865 12.055193 
L 1112.818097 -1 
M 1118.52441 -1 
L 1118.951861 22.880189 
L 1120.588819 94.294995 
L 1121.407298 121.809163 
L 1122.021157 137.14973 
L 1122.839636 151.86463 
L 1123.658115 162.826095 
L 1124.476594 170.048944 
L 1125.295073 176.082835 
L 1125.704312 177.587286 
L 1126.727411 180.061966 
L 1127.13665 181.500747 
L 1127.75051 184.303142 
L 1127.955129 184.372991 
L 1128.773608 182.869996 
L 1129.182848 182.736187 
L 1129.387467 182.846629 
L 1129.592087 183.137172 
L 1130.001327 184.331322 
L 1130.410566 185.736984 
L 1130.819805 186.333521 
L 1131.024425 186.25031 
L 1131.638284 185.503562 
L 1131.842904 185.532756 
L 1132.047524 185.692656 
L 1132.252144 186.005996 
L 1132.661383 187.270819 
L 1133.070622 188.81067 
L 1133.275242 189.037317 
L 1133.479862 188.744557 
L 1133.889101 187.205276 
L 1134.298341 185.636232 
L 1135.321439 183.499717 
L 1135.526059 183.358372 
L 1135.730679 183.578368 
L 1136.549158 185.651747 
L 1137.776876 190.118619 
L 1137.981496 190.210823 
L 1138.186116 189.73733 
L 1139.209214 185.637625 
L 1139.413834 185.431117 
L 1139.618454 185.52712 
L 1140.027693 186.407487 
L 1140.641552 188.546662 
L 1141.255411 190.991767 
L 1142.07389 192.838943 
L 1142.68775 194.4463 
L 1142.892369 194.592141 
L 1143.096989 194.441931 
L 1143.506228 193.745654 
L 1143.710848 193.649714 
L 1143.915468 193.832221 
L 1145.143186 195.777047 
L 1145.347806 195.965823 
L 1145.552426 195.855318 
L 1145.757045 195.422987 
L 1146.166285 193.656933 
L 1146.575524 191.667843 
L 1146.780144 191.130959 
L 1146.984764 191.030207 
L 1147.189384 191.312264 
L 1147.803243 192.697598 
L 1148.007862 192.854078 
L 1148.212482 192.756808 
L 1148.826341 192.182815 
L 1149.030961 192.123668 
L 1149.235581 191.941477 
L 1150.05406 190.67735 
L 1150.463299 190.530369 
L 1151.077158 191.031853 
L 1151.691018 191.504207 
L 1152.100257 191.385659 
L 1152.304877 191.323599 
L 1152.714116 191.510223 
L 1154.555694 192.682399 
L 1154.964933 193.327191 
L 1155.988032 195.728855 
L 1156.601891 195.135294 
L 1157.01113 195.406586 
L 1158.034229 196.234265 
L 1158.238849 196.215267 
L 1158.443469 195.9315 
L 1159.466567 193.581701 
L 1159.671187 193.677071 
L 1159.875807 194.0987 
L 1160.489666 196.417342 
L 1161.103525 198.732692 
L 1161.308145 199.153751 
L 1161.512764 199.208465 
L 1161.717384 198.920329 
L 1162.126624 197.612506 
L 1162.535863 196.37903 
L 1162.740483 196.31773 
L 1163.149722 196.805155 
L 1163.354342 196.764372 
L 1163.558962 196.328115 
L 1164.377441 193.290209 
L 1164.58206 193.071922 
L 1164.9913 193.323075 
L 1166.014398 194.31876 
L 1166.423638 195.456487 
L 1167.037497 197.480217 
L 1167.242117 197.724215 
L 1167.651356 197.76563 
L 1168.060596 197.80483 
L 1168.674455 198.331327 
L 1168.879075 198.144387 
L 1169.288314 196.709152 
L 1169.697554 195.282909 
L 1169.902173 195.080137 
L 1170.516032 195.146186 
L 1170.925272 194.746722 
L 1172.971469 191.414726 
L 1173.994568 191.074155 
L 1174.199188 190.962257 
L 1174.403807 191.036856 
L 1174.608427 191.463234 
L 1175.222286 194.212371 
L 1175.836145 196.724667 
L 1176.040765 197.126601 
L 1176.245385 197.256041 
L 1176.654624 197.074357 
L 1177.063864 196.929972 
L 1177.473103 197.013563 
L 1177.677723 196.841504 
L 1178.291582 195.387271 
L 1178.905441 194.029611 
L 1179.110061 194.188307 
L 1179.92854 196.197282 
L 1180.13316 196.084181 
L 1180.747019 194.946644 
L 1181.156258 193.926958 
L 1181.770117 191.748141 
L 1181.974737 191.453799 
L 1182.179357 191.566773 
L 1182.588596 192.627368 
L 1183.611695 195.80814 
L 1183.816315 195.899267 
L 1184.020934 195.494293 
L 1184.839413 192.618059 
L 1184.839413 192.618059 
" clip-path="url(#pc5ed672693)" style="fill: none; stroke: #000000; stroke-width: 2; stroke-linecap: square"/>
   </g>
   <g id="patch_3">
    <path d="M 3.00024 198.907885 
L 1184.99976 198.907885 
" style="fill: none; stroke: #000000; stroke-width: 2; stroke-linejoin: miter; stroke-linecap: square"/>
   </g>
  </g>
 </g>
 <defs>
  <clipPath id="pc5ed672693">
   <rect x="3.00024" y="3.00024" width="1181.99952" height="195.907645"/>
  </clipPath>
 </defs>
</svg>
