<?xml version="1.0" encoding="utf-8" standalone="no"?>
<!DOCTYPE svg PUBLIC "-//W3C//DTD SVG 1.1//EN"
  "http://www.w3.org/Graphics/SVG/1.1/DTD/svg11.dtd">
<svg xmlns:xlink="http://www.w3.org/1999/xlink" width="1188pt" height="252pt" viewBox="0 0 1188 252" xmlns="http://www.w3.org/2000/svg" version="1.1">
 <metadata>
  <rdf:RDF xmlns:dc="http://purl.org/dc/elements/1.1/" xmlns:cc="http://creativecommons.org/ns#" xmlns:rdf="http://www.w3.org/1999/02/22-rdf-syntax-ns#">
   <cc:Work>
    <dc:type rdf:resource="http://purl.org/dc/dcmitype/StillImage"/>
    <dc:date>2024-07-23T21:41:31.802183</dc:date>
    <dc:format>image/svg+xml</dc:format>
    <dc:creator>
     <cc:Agent>
      <dc:title>Matplotlib v3.8.4, https://matplotlib.org/</dc:title>
     </cc:Agent>
    </dc:creator>
   </cc:Work>
  </rdf:RDF>
 </metadata>
 <defs>
  <style type="text/css">*{stroke-linejoin: round; stroke-linecap: butt}</style>
 </defs>
 <g id="figure_1">
  <g id="patch_1">
   <path d="M 0 252 
L 1188 252 
L 1188 0 
L 0 0 
z
" style="fill: #ffffff"/>
  </g>
  <g id="axes_1">
   <g id="patch_2">
    <path d="M 3.00024 198.907885 
L 1184.99976 198.907885 
L 1184.99976 3.00024 
L 3.00024 3.00024 
z
" style="fill: #ffffff"/>
   </g>
   <g id="matplotlib.axis_1">
    <g id="xtick_1">
     <g id="line2d_1">
      <defs>
       <path id="md42dcaa75d" d="M 0 0 
L 0 8 
" style="stroke: #000000; stroke-width: 2"/>
      </defs>
      <g>
       <use xlink:href="#md42dcaa75d" x="1131.272509" y="198.907885" style="stroke: #000000; stroke-width: 2"/>
      </g>
     </g>
     <g id="text_1">
      <!-- 0 -->
      <g transform="translate(1126.267665 224.791947) scale(0.18 -0.18)">
       <defs>
        <path id="Arial-BoldMT-30" d="M 1756 4600 
Q 2422 4600 2797 4125 
Q 3244 3563 3244 2259 
Q 3244 959 2794 391 
Q 2422 -78 1756 -78 
Q 1088 -78 678 436 
Q 269 950 269 2269 
Q 269 3563 719 4131 
Q 1091 4600 1756 4600 
z
M 1756 3872 
Q 1597 3872 1472 3770 
Q 1347 3669 1278 3406 
Q 1188 3066 1188 2259 
Q 1188 1453 1269 1151 
Q 1350 850 1473 750 
Q 1597 650 1756 650 
Q 1916 650 2041 751 
Q 2166 853 2234 1116 
Q 2325 1453 2325 2259 
Q 2325 3066 2244 3367 
Q 2163 3669 2039 3770 
Q 1916 3872 1756 3872 
z
" transform="scale(0.015625)"/>
       </defs>
       <use xlink:href="#Arial-BoldMT-30"/>
      </g>
     </g>
    </g>
    <g id="xtick_2">
     <g id="line2d_2">
      <g>
       <use xlink:href="#md42dcaa75d" x="1023.818007" y="198.907885" style="stroke: #000000; stroke-width: 2"/>
      </g>
     </g>
     <g id="text_2">
      <!-- 1 -->
      <g transform="translate(1018.813164 224.791947) scale(0.18 -0.18)">
       <defs>
        <path id="Arial-BoldMT-31" d="M 2519 0 
L 1641 0 
L 1641 3309 
Q 1159 2859 506 2644 
L 506 3441 
Q 850 3553 1253 3867 
Q 1656 4181 1806 4600 
L 2519 4600 
L 2519 0 
z
" transform="scale(0.015625)"/>
       </defs>
       <use xlink:href="#Arial-BoldMT-31"/>
      </g>
     </g>
    </g>
    <g id="xtick_3">
     <g id="line2d_3">
      <g>
       <use xlink:href="#md42dcaa75d" x="916.363505" y="198.907885" style="stroke: #000000; stroke-width: 2"/>
      </g>
     </g>
     <g id="text_3">
      <!-- 2 -->
      <g transform="translate(911.358662 224.791947) scale(0.18 -0.18)">
       <defs>
        <path id="Arial-BoldMT-32" d="M 3238 816 
L 3238 0 
L 159 0 
Q 209 463 459 877 
Q 709 1291 1447 1975 
Q 2041 2528 2175 2725 
Q 2356 2997 2356 3263 
Q 2356 3556 2198 3714 
Q 2041 3872 1763 3872 
Q 1488 3872 1325 3706 
Q 1163 3541 1138 3156 
L 263 3244 
Q 341 3969 753 4284 
Q 1166 4600 1784 4600 
Q 2463 4600 2850 4234 
Q 3238 3869 3238 3325 
Q 3238 3016 3127 2736 
Q 3016 2456 2775 2150 
Q 2616 1947 2200 1565 
Q 1784 1184 1673 1059 
Q 1563 934 1494 816 
L 3238 816 
z
" transform="scale(0.015625)"/>
       </defs>
       <use xlink:href="#Arial-BoldMT-32"/>
      </g>
     </g>
    </g>
    <g id="xtick_4">
     <g id="line2d_4">
      <g>
       <use xlink:href="#md42dcaa75d" x="808.909004" y="198.907885" style="stroke: #000000; stroke-width: 2"/>
      </g>
     </g>
     <g id="text_4">
      <!-- 3 -->
      <g transform="translate(803.90416 224.791947) scale(0.18 -0.18)">
       <defs>
        <path id="Arial-BoldMT-33" d="M 241 1216 
L 1091 1319 
Q 1131 994 1309 822 
Q 1488 650 1741 650 
Q 2013 650 2198 856 
Q 2384 1063 2384 1413 
Q 2384 1744 2206 1937 
Q 2028 2131 1772 2131 
Q 1603 2131 1369 2066 
L 1466 2781 
Q 1822 2772 2009 2936 
Q 2197 3100 2197 3372 
Q 2197 3603 2059 3740 
Q 1922 3878 1694 3878 
Q 1469 3878 1309 3722 
Q 1150 3566 1116 3266 
L 306 3403 
Q 391 3819 561 4067 
Q 731 4316 1036 4458 
Q 1341 4600 1719 4600 
Q 2366 4600 2756 4188 
Q 3078 3850 3078 3425 
Q 3078 2822 2419 2463 
Q 2813 2378 3048 2084 
Q 3284 1791 3284 1375 
Q 3284 772 2843 347 
Q 2403 -78 1747 -78 
Q 1125 -78 715 280 
Q 306 638 241 1216 
z
" transform="scale(0.015625)"/>
       </defs>
       <use xlink:href="#Arial-BoldMT-33"/>
      </g>
     </g>
    </g>
    <g id="xtick_5">
     <g id="line2d_5">
      <g>
       <use xlink:href="#md42dcaa75d" x="701.454502" y="198.907885" style="stroke: #000000; stroke-width: 2"/>
      </g>
     </g>
     <g id="text_5">
      <!-- 4 -->
      <g transform="translate(696.449658 224.791947) scale(0.18 -0.18)">
       <defs>
        <path id="Arial-BoldMT-34" d="M 1994 0 
L 1994 922 
L 119 922 
L 119 1691 
L 2106 4600 
L 2844 4600 
L 2844 1694 
L 3413 1694 
L 3413 922 
L 2844 922 
L 2844 0 
L 1994 0 
z
M 1994 1694 
L 1994 3259 
L 941 1694 
L 1994 1694 
z
" transform="scale(0.015625)"/>
       </defs>
       <use xlink:href="#Arial-BoldMT-34"/>
      </g>
     </g>
    </g>
    <g id="xtick_6">
     <g id="line2d_6">
      <g>
       <use xlink:href="#md42dcaa75d" x="594" y="198.907885" style="stroke: #000000; stroke-width: 2"/>
      </g>
     </g>
     <g id="text_6">
      <!-- 5 -->
      <g transform="translate(588.995156 224.791947) scale(0.18 -0.18)">
       <defs>
        <path id="Arial-BoldMT-35" d="M 284 1178 
L 1159 1269 
Q 1197 972 1381 798 
Q 1566 625 1806 625 
Q 2081 625 2272 848 
Q 2463 1072 2463 1522 
Q 2463 1944 2273 2155 
Q 2084 2366 1781 2366 
Q 1403 2366 1103 2031 
L 391 2134 
L 841 4519 
L 3163 4519 
L 3163 3697 
L 1506 3697 
L 1369 2919 
Q 1663 3066 1969 3066 
Q 2553 3066 2959 2641 
Q 3366 2216 3366 1538 
Q 3366 972 3038 528 
Q 2591 -78 1797 -78 
Q 1163 -78 763 262 
Q 363 603 284 1178 
z
" transform="scale(0.015625)"/>
       </defs>
       <use xlink:href="#Arial-BoldMT-35"/>
      </g>
     </g>
    </g>
    <g id="xtick_7">
     <g id="line2d_7">
      <g>
       <use xlink:href="#md42dcaa75d" x="486.545498" y="198.907885" style="stroke: #000000; stroke-width: 2"/>
      </g>
     </g>
     <g id="text_7">
      <!-- 6 -->
      <g transform="translate(481.540654 224.791947) scale(0.18 -0.18)">
       <defs>
        <path id="Arial-BoldMT-36" d="M 3247 3459 
L 2397 3366 
Q 2366 3628 2234 3753 
Q 2103 3878 1894 3878 
Q 1616 3878 1423 3628 
Q 1231 3378 1181 2588 
Q 1509 2975 1997 2975 
Q 2547 2975 2939 2556 
Q 3331 2138 3331 1475 
Q 3331 772 2918 347 
Q 2506 -78 1859 -78 
Q 1166 -78 719 461 
Q 272 1000 272 2228 
Q 272 3488 737 4044 
Q 1203 4600 1947 4600 
Q 2469 4600 2811 4308 
Q 3153 4016 3247 3459 
z
M 1256 1544 
Q 1256 1116 1453 883 
Q 1650 650 1903 650 
Q 2147 650 2309 840 
Q 2472 1031 2472 1466 
Q 2472 1913 2297 2120 
Q 2122 2328 1859 2328 
Q 1606 2328 1431 2129 
Q 1256 1931 1256 1544 
z
" transform="scale(0.015625)"/>
       </defs>
       <use xlink:href="#Arial-BoldMT-36"/>
      </g>
     </g>
    </g>
    <g id="xtick_8">
     <g id="line2d_8">
      <g>
       <use xlink:href="#md42dcaa75d" x="379.090996" y="198.907885" style="stroke: #000000; stroke-width: 2"/>
      </g>
     </g>
     <g id="text_8">
      <!-- 7 -->
      <g transform="translate(374.086153 224.791947) scale(0.18 -0.18)">
       <defs>
        <path id="Arial-BoldMT-37" d="M 272 3703 
L 272 4519 
L 3275 4519 
L 3275 3881 
Q 2903 3516 2518 2831 
Q 2134 2147 1932 1376 
Q 1731 606 1734 0 
L 888 0 
Q 909 950 1279 1937 
Q 1650 2925 2269 3703 
L 272 3703 
z
" transform="scale(0.015625)"/>
       </defs>
       <use xlink:href="#Arial-BoldMT-37"/>
      </g>
     </g>
    </g>
    <g id="xtick_9">
     <g id="line2d_9">
      <g>
       <use xlink:href="#md42dcaa75d" x="271.636495" y="198.907885" style="stroke: #000000; stroke-width: 2"/>
      </g>
     </g>
     <g id="text_9">
      <!-- 8 -->
      <g transform="translate(266.631651 224.791947) scale(0.18 -0.18)">
       <defs>
        <path id="Arial-BoldMT-38" d="M 1025 2472 
Q 684 2616 529 2867 
Q 375 3119 375 3419 
Q 375 3931 733 4265 
Q 1091 4600 1750 4600 
Q 2403 4600 2764 4265 
Q 3125 3931 3125 3419 
Q 3125 3100 2959 2851 
Q 2794 2603 2494 2472 
Q 2875 2319 3073 2025 
Q 3272 1731 3272 1347 
Q 3272 713 2867 316 
Q 2463 -81 1791 -81 
Q 1166 -81 750 247 
Q 259 634 259 1309 
Q 259 1681 443 1992 
Q 628 2303 1025 2472 
z
M 1206 3356 
Q 1206 3094 1354 2947 
Q 1503 2800 1750 2800 
Q 2000 2800 2150 2948 
Q 2300 3097 2300 3359 
Q 2300 3606 2151 3754 
Q 2003 3903 1759 3903 
Q 1506 3903 1356 3753 
Q 1206 3603 1206 3356 
z
M 1125 1394 
Q 1125 1031 1311 828 
Q 1497 625 1775 625 
Q 2047 625 2225 820 
Q 2403 1016 2403 1384 
Q 2403 1706 2222 1901 
Q 2041 2097 1763 2097 
Q 1441 2097 1283 1875 
Q 1125 1653 1125 1394 
z
" transform="scale(0.015625)"/>
       </defs>
       <use xlink:href="#Arial-BoldMT-38"/>
      </g>
     </g>
    </g>
    <g id="xtick_10">
     <g id="line2d_10">
      <g>
       <use xlink:href="#md42dcaa75d" x="164.181993" y="198.907885" style="stroke: #000000; stroke-width: 2"/>
      </g>
     </g>
     <g id="text_10">
      <!-- 9 -->
      <g transform="translate(159.177149 224.791947) scale(0.18 -0.18)">
       <defs>
        <path id="Arial-BoldMT-39" d="M 291 1059 
L 1141 1153 
Q 1172 894 1303 769 
Q 1434 644 1650 644 
Q 1922 644 2112 894 
Q 2303 1144 2356 1931 
Q 2025 1547 1528 1547 
Q 988 1547 595 1964 
Q 203 2381 203 3050 
Q 203 3747 617 4173 
Q 1031 4600 1672 4600 
Q 2369 4600 2816 4061 
Q 3263 3522 3263 2288 
Q 3263 1031 2797 475 
Q 2331 -81 1584 -81 
Q 1047 -81 715 205 
Q 384 491 291 1059 
z
M 2278 2978 
Q 2278 3403 2083 3637 
Q 1888 3872 1631 3872 
Q 1388 3872 1227 3680 
Q 1066 3488 1066 3050 
Q 1066 2606 1241 2398 
Q 1416 2191 1678 2191 
Q 1931 2191 2104 2391 
Q 2278 2591 2278 2978 
z
" transform="scale(0.015625)"/>
       </defs>
       <use xlink:href="#Arial-BoldMT-39"/>
      </g>
     </g>
    </g>
    <g id="xtick_11">
     <g id="line2d_11">
      <g>
       <use xlink:href="#md42dcaa75d" x="56.727491" y="198.907885" style="stroke: #000000; stroke-width: 2"/>
      </g>
     </g>
     <g id="text_11">
      <!-- 10 -->
      <g transform="translate(46.717803 224.791947) scale(0.18 -0.18)">
       <use xlink:href="#Arial-BoldMT-31"/>
       <use xlink:href="#Arial-BoldMT-30" x="55.615234"/>
      </g>
     </g>
    </g>
    <g id="text_12">
     <!-- Chemical Shift / ppm -->
     <g transform="translate(504.992813 245.447573) scale(0.18 -0.18)">
      <defs>
       <path id="Arial-BoldMT-43" d="M 3397 1684 
L 4294 1400 
Q 4088 650 3608 286 
Q 3128 -78 2391 -78 
Q 1478 -78 890 545 
Q 303 1169 303 2250 
Q 303 3394 893 4026 
Q 1484 4659 2447 4659 
Q 3288 4659 3813 4163 
Q 4125 3869 4281 3319 
L 3366 3100 
Q 3284 3456 3026 3662 
Q 2769 3869 2400 3869 
Q 1891 3869 1573 3503 
Q 1256 3138 1256 2319 
Q 1256 1450 1568 1081 
Q 1881 713 2381 713 
Q 2750 713 3015 947 
Q 3281 1181 3397 1684 
z
" transform="scale(0.015625)"/>
       <path id="Arial-BoldMT-68" d="M 1334 4581 
L 1334 2897 
Q 1759 3394 2350 3394 
Q 2653 3394 2897 3281 
Q 3141 3169 3264 2994 
Q 3388 2819 3433 2606 
Q 3478 2394 3478 1947 
L 3478 0 
L 2600 0 
L 2600 1753 
Q 2600 2275 2550 2415 
Q 2500 2556 2373 2639 
Q 2247 2722 2056 2722 
Q 1838 2722 1666 2615 
Q 1494 2509 1414 2295 
Q 1334 2081 1334 1663 
L 1334 0 
L 456 0 
L 456 4581 
L 1334 4581 
z
" transform="scale(0.015625)"/>
       <path id="Arial-BoldMT-65" d="M 2381 1056 
L 3256 909 
Q 3088 428 2723 176 
Q 2359 -75 1813 -75 
Q 947 -75 531 491 
Q 203 944 203 1634 
Q 203 2459 634 2926 
Q 1066 3394 1725 3394 
Q 2466 3394 2894 2905 
Q 3322 2416 3303 1406 
L 1103 1406 
Q 1113 1016 1316 798 
Q 1519 581 1822 581 
Q 2028 581 2168 693 
Q 2309 806 2381 1056 
z
M 2431 1944 
Q 2422 2325 2234 2523 
Q 2047 2722 1778 2722 
Q 1491 2722 1303 2513 
Q 1116 2303 1119 1944 
L 2431 1944 
z
" transform="scale(0.015625)"/>
       <path id="Arial-BoldMT-6d" d="M 394 3319 
L 1203 3319 
L 1203 2866 
Q 1638 3394 2238 3394 
Q 2556 3394 2790 3262 
Q 3025 3131 3175 2866 
Q 3394 3131 3647 3262 
Q 3900 3394 4188 3394 
Q 4553 3394 4806 3245 
Q 5059 3097 5184 2809 
Q 5275 2597 5275 2122 
L 5275 0 
L 4397 0 
L 4397 1897 
Q 4397 2391 4306 2534 
Q 4184 2722 3931 2722 
Q 3747 2722 3584 2609 
Q 3422 2497 3350 2280 
Q 3278 2063 3278 1594 
L 3278 0 
L 2400 0 
L 2400 1819 
Q 2400 2303 2353 2443 
Q 2306 2584 2207 2653 
Q 2109 2722 1941 2722 
Q 1738 2722 1575 2612 
Q 1413 2503 1342 2297 
Q 1272 2091 1272 1613 
L 1272 0 
L 394 0 
L 394 3319 
z
" transform="scale(0.015625)"/>
       <path id="Arial-BoldMT-69" d="M 459 3769 
L 459 4581 
L 1338 4581 
L 1338 3769 
L 459 3769 
z
M 459 0 
L 459 3319 
L 1338 3319 
L 1338 0 
L 459 0 
z
" transform="scale(0.015625)"/>
       <path id="Arial-BoldMT-63" d="M 3353 2338 
L 2488 2181 
Q 2444 2441 2289 2572 
Q 2134 2703 1888 2703 
Q 1559 2703 1364 2476 
Q 1169 2250 1169 1719 
Q 1169 1128 1367 884 
Q 1566 641 1900 641 
Q 2150 641 2309 783 
Q 2469 925 2534 1272 
L 3397 1125 
Q 3263 531 2881 228 
Q 2500 -75 1859 -75 
Q 1131 -75 698 384 
Q 266 844 266 1656 
Q 266 2478 700 2936 
Q 1134 3394 1875 3394 
Q 2481 3394 2839 3133 
Q 3197 2872 3353 2338 
z
" transform="scale(0.015625)"/>
       <path id="Arial-BoldMT-61" d="M 1116 2306 
L 319 2450 
Q 453 2931 781 3162 
Q 1109 3394 1756 3394 
Q 2344 3394 2631 3255 
Q 2919 3116 3036 2902 
Q 3153 2688 3153 2116 
L 3144 1091 
Q 3144 653 3186 445 
Q 3228 238 3344 0 
L 2475 0 
Q 2441 88 2391 259 
Q 2369 338 2359 363 
Q 2134 144 1878 34 
Q 1622 -75 1331 -75 
Q 819 -75 523 203 
Q 228 481 228 906 
Q 228 1188 362 1408 
Q 497 1628 739 1745 
Q 981 1863 1438 1950 
Q 2053 2066 2291 2166 
L 2291 2253 
Q 2291 2506 2166 2614 
Q 2041 2722 1694 2722 
Q 1459 2722 1328 2630 
Q 1197 2538 1116 2306 
z
M 2291 1594 
Q 2122 1538 1756 1459 
Q 1391 1381 1278 1306 
Q 1106 1184 1106 997 
Q 1106 813 1243 678 
Q 1381 544 1594 544 
Q 1831 544 2047 700 
Q 2206 819 2256 991 
Q 2291 1103 2291 1419 
L 2291 1594 
z
" transform="scale(0.015625)"/>
       <path id="Arial-BoldMT-6c" d="M 459 0 
L 459 4581 
L 1338 4581 
L 1338 0 
L 459 0 
z
" transform="scale(0.015625)"/>
       <path id="Arial-BoldMT-20" transform="scale(0.015625)"/>
       <path id="Arial-BoldMT-53" d="M 231 1491 
L 1131 1578 
Q 1213 1125 1461 912 
Q 1709 700 2131 700 
Q 2578 700 2804 889 
Q 3031 1078 3031 1331 
Q 3031 1494 2936 1608 
Q 2841 1722 2603 1806 
Q 2441 1863 1863 2006 
Q 1119 2191 819 2459 
Q 397 2838 397 3381 
Q 397 3731 595 4036 
Q 794 4341 1167 4500 
Q 1541 4659 2069 4659 
Q 2931 4659 3367 4281 
Q 3803 3903 3825 3272 
L 2900 3231 
Q 2841 3584 2645 3739 
Q 2450 3894 2059 3894 
Q 1656 3894 1428 3728 
Q 1281 3622 1281 3444 
Q 1281 3281 1419 3166 
Q 1594 3019 2269 2859 
Q 2944 2700 3267 2529 
Q 3591 2359 3773 2064 
Q 3956 1769 3956 1334 
Q 3956 941 3737 597 
Q 3519 253 3119 86 
Q 2719 -81 2122 -81 
Q 1253 -81 787 320 
Q 322 722 231 1491 
z
" transform="scale(0.015625)"/>
       <path id="Arial-BoldMT-66" d="M 75 3319 
L 563 3319 
L 563 3569 
Q 563 3988 652 4194 
Q 741 4400 980 4529 
Q 1219 4659 1584 4659 
Q 1959 4659 2319 4547 
L 2200 3934 
Q 1991 3984 1797 3984 
Q 1606 3984 1523 3895 
Q 1441 3806 1441 3553 
L 1441 3319 
L 2097 3319 
L 2097 2628 
L 1441 2628 
L 1441 0 
L 563 0 
L 563 2628 
L 75 2628 
L 75 3319 
z
" transform="scale(0.015625)"/>
       <path id="Arial-BoldMT-74" d="M 1981 3319 
L 1981 2619 
L 1381 2619 
L 1381 1281 
Q 1381 875 1398 808 
Q 1416 741 1477 697 
Q 1538 653 1625 653 
Q 1747 653 1978 738 
L 2053 56 
Q 1747 -75 1359 -75 
Q 1122 -75 931 4 
Q 741 84 652 211 
Q 563 338 528 553 
Q 500 706 500 1172 
L 500 2619 
L 97 2619 
L 97 3319 
L 500 3319 
L 500 3978 
L 1381 4491 
L 1381 3319 
L 1981 3319 
z
" transform="scale(0.015625)"/>
       <path id="Arial-BoldMT-2f" d="M -9 -78 
L 1125 4659 
L 1784 4659 
L 638 -78 
L -9 -78 
z
" transform="scale(0.015625)"/>
       <path id="Arial-BoldMT-70" d="M 434 3319 
L 1253 3319 
L 1253 2831 
Q 1413 3081 1684 3237 
Q 1956 3394 2288 3394 
Q 2866 3394 3269 2941 
Q 3672 2488 3672 1678 
Q 3672 847 3265 386 
Q 2859 -75 2281 -75 
Q 2006 -75 1782 34 
Q 1559 144 1313 409 
L 1313 -1263 
L 434 -1263 
L 434 3319 
z
M 1303 1716 
Q 1303 1156 1525 889 
Q 1747 622 2066 622 
Q 2372 622 2575 867 
Q 2778 1113 2778 1672 
Q 2778 2194 2568 2447 
Q 2359 2700 2050 2700 
Q 1728 2700 1515 2451 
Q 1303 2203 1303 1716 
z
" transform="scale(0.015625)"/>
      </defs>
      <use xlink:href="#Arial-BoldMT-43"/>
      <use xlink:href="#Arial-BoldMT-68" x="72.216797"/>
      <use xlink:href="#Arial-BoldMT-65" x="133.300781"/>
      <use xlink:href="#Arial-BoldMT-6d" x="188.916016"/>
      <use xlink:href="#Arial-BoldMT-69" x="277.832031"/>
      <use xlink:href="#Arial-BoldMT-63" x="305.615234"/>
      <use xlink:href="#Arial-BoldMT-61" x="361.230469"/>
      <use xlink:href="#Arial-BoldMT-6c" x="416.845703"/>
      <use xlink:href="#Arial-BoldMT-20" x="444.628906"/>
      <use xlink:href="#Arial-BoldMT-53" x="472.412109"/>
      <use xlink:href="#Arial-BoldMT-68" x="539.111328"/>
      <use xlink:href="#Arial-BoldMT-69" x="600.195312"/>
      <use xlink:href="#Arial-BoldMT-66" x="627.978516"/>
      <use xlink:href="#Arial-BoldMT-74" x="661.279297"/>
      <use xlink:href="#Arial-BoldMT-20" x="694.580078"/>
      <use xlink:href="#Arial-BoldMT-2f" x="722.363281"/>
      <use xlink:href="#Arial-BoldMT-20" x="750.146484"/>
      <use xlink:href="#Arial-BoldMT-70" x="777.929688"/>
      <use xlink:href="#Arial-BoldMT-70" x="839.013672"/>
      <use xlink:href="#Arial-BoldMT-6d" x="900.097656"/>
     </g>
    </g>
   </g>
   <g id="matplotlib.axis_2"/>
   <g id="line2d_12">
    <path d="M 2.946884 186.220047 
L 3.151504 186.014796 
L 3.356123 185.982076 
L 3.765363 186.441902 
L 4.379222 187.607637 
L 5.402321 190.530865 
L 5.81156 190.772965 
L 6.425419 190.731277 
L 6.834659 190.417146 
L 7.448518 189.870139 
L 7.653138 189.968786 
L 8.471617 190.840446 
L 9.085476 190.829358 
L 9.494715 190.483495 
L 9.903955 189.947765 
L 10.313194 189.018968 
L 10.927053 187.308645 
L 11.336293 186.99164 
L 12.973251 187.039132 
L 13.38249 187.257868 
L 13.791729 187.934132 
L 14.405589 189.109879 
L 14.610208 189.181566 
L 14.814828 189.032542 
L 15.224068 188.212203 
L 15.633307 187.354772 
L 16.042546 187.010874 
L 16.247166 187.080752 
L 17.065645 187.927995 
L 17.474885 187.910758 
L 17.679504 188.146109 
L 18.293363 189.507584 
L 18.702603 189.737474 
L 19.111842 189.885422 
L 19.930321 190.552264 
L 20.134941 190.375581 
L 20.54418 189.564399 
L 21.362659 187.741745 
L 21.771899 187.729691 
L 22.181138 187.856507 
L 22.590378 188.362237 
L 23.408857 190.051383 
L 24.227336 192.213496 
L 24.636575 192.595208 
L 25.455054 194.028825 
L 25.659674 193.913974 
L 25.864293 193.441385 
L 27.296631 188.438065 
L 27.910491 187.56262 
L 28.11511 187.430455 
L 28.31973 187.446526 
L 28.72897 187.91078 
L 29.138209 188.362182 
L 29.547448 188.61538 
L 30.570547 189.937875 
L 30.979787 190.01933 
L 31.389026 189.99519 
L 31.798265 190.405137 
L 32.616744 191.745657 
L 32.821364 191.811906 
L 33.025984 191.627943 
L 33.435223 190.585916 
L 34.049082 188.592317 
L 34.253702 188.475568 
L 34.458322 188.71022 
L 35.481421 190.599301 
L 35.68604 190.619112 
L 36.09528 190.268366 
L 36.709139 189.520203 
L 37.732238 188.881708 
L 38.141477 188.446111 
L 38.755336 187.695385 
L 39.369195 187.524762 
L 39.778435 187.673542 
L 40.187674 188.150027 
L 40.596914 188.720786 
L 41.620012 189.537728 
L 42.233872 190.645883 
L 42.643111 191.275243 
L 42.847731 191.219316 
L 43.66621 189.854068 
L 44.280069 190.471098 
L 44.689308 190.5698 
L 45.917027 191.476011 
L 46.121646 191.689286 
L 46.326266 191.684525 
L 46.530886 191.394612 
L 47.349365 189.664688 
L 47.553984 189.671392 
L 48.167844 190.368533 
L 48.372463 190.186357 
L 48.781703 188.983807 
L 49.395562 186.84145 
L 49.600182 186.525665 
L 49.804801 186.475287 
L 50.214041 186.807165 
L 50.62328 187.177024 
L 51.03252 187.140975 
L 51.441759 187.085281 
L 51.850999 187.205859 
L 52.055618 187.367658 
L 52.464858 188.12955 
L 53.283337 190.341374 
L 53.487956 190.445781 
L 53.692576 190.179242 
L 54.920295 186.931495 
L 55.534154 185.94919 
L 56.148013 184.257414 
L 56.557252 182.41941 
L 57.375731 176.982746 
L 57.98959 171.643441 
L 58.60345 163.951922 
L 59.217309 153.833205 
L 59.831168 138.363008 
L 60.445027 114.558735 
L 61.468126 69.066807 
L 61.672746 64.664701 
L 61.877365 63.081504 
L 62.081985 64.40895 
L 62.286605 68.638424 
L 62.695844 84.547171 
L 63.718943 131.318075 
L 64.332802 147.909135 
L 64.946661 159.3026 
L 65.56052 166.163569 
L 66.992858 176.527604 
L 67.606718 178.648507 
L 67.811337 178.985779 
L 68.015957 179.074525 
L 68.629816 178.813369 
L 68.834436 178.966567 
L 69.243675 179.675728 
L 69.652915 180.868378 
L 70.062154 182.16296 
L 70.266774 182.332306 
L 70.471394 182.113026 
L 70.880633 181.360745 
L 71.085253 181.238802 
L 71.289873 181.382799 
L 72.108352 182.578901 
L 72.517591 182.010517 
L 72.926831 181.426362 
L 73.33607 181.162975 
L 73.745309 181.122997 
L 74.154549 181.40695 
L 74.563788 182.057765 
L 75.382267 183.635279 
L 76.405366 185.332138 
L 76.814605 186.117449 
L 77.019225 186.291268 
L 77.223845 186.27694 
L 77.837704 185.860866 
L 78.246943 186.063231 
L 78.656183 186.449793 
L 79.065422 187.123716 
L 79.883901 188.872796 
L 80.293141 189.448549 
L 81.11162 191.382003 
L 81.316239 191.349617 
L 82.543958 190.031394 
L 82.953197 189.791948 
L 83.362437 189.581569 
L 83.976296 188.895426 
L 84.385535 188.550862 
L 85.204014 187.377813 
L 85.613254 186.83489 
L 86.431733 186.601892 
L 86.840972 185.993697 
L 87.454831 184.806386 
L 87.659451 184.755997 
L 87.864071 184.934722 
L 88.27331 185.94696 
L 89.091789 188.603837 
L 89.296409 189.032497 
L 89.501028 189.161333 
L 89.705648 188.978635 
L 90.933366 186.950929 
L 91.137986 186.820651 
L 91.342606 186.897088 
L 91.956465 187.422597 
L 92.570324 187.66534 
L 92.979564 187.615873 
L 93.388803 187.573175 
L 93.798043 187.899437 
L 94.002662 187.892656 
L 94.616522 187.49848 
L 94.821141 187.752244 
L 95.63962 189.356395 
L 95.84424 189.340391 
L 96.458099 188.66366 
L 96.662719 188.690242 
L 97.685817 189.813713 
L 98.095057 189.601303 
L 99.527395 188.0744 
L 99.732015 188.130227 
L 100.141254 188.608421 
L 101.164353 190.201795 
L 101.778212 189.515331 
L 101.982832 189.694433 
L 103.00593 191.63347 
L 103.61979 193.38144 
L 103.824409 193.566303 
L 104.029029 193.35599 
L 105.052128 190.867072 
L 106.075226 190.128398 
L 106.893705 188.685991 
L 107.098325 188.559864 
L 107.302945 188.677523 
L 107.712184 189.68784 
L 108.121424 190.692265 
L 108.326043 190.82362 
L 108.530663 190.736361 
L 108.939902 190.188876 
L 109.553762 189.347705 
L 110.167621 188.747357 
L 110.57686 188.799 
L 111.804579 189.605875 
L 112.213818 189.5937 
L 112.418438 189.424687 
L 113.236917 187.723298 
L 113.441536 187.74089 
L 114.055396 188.212258 
L 114.464635 188.104034 
L 114.873875 188.043789 
L 115.283114 188.437354 
L 115.896973 189.117281 
L 116.715452 189.299059 
L 116.920072 189.167015 
L 117.533931 188.294878 
L 117.738551 188.258541 
L 118.35241 188.693283 
L 118.55703 188.562061 
L 119.375509 187.174404 
L 119.580128 187.208467 
L 119.989368 187.937773 
L 122.240185 192.309235 
L 122.444804 192.346039 
L 122.649424 192.224928 
L 123.058664 191.555989 
L 124.491002 187.972679 
L 124.695621 187.886241 
L 124.900241 188.012779 
L 125.5141 188.685813 
L 125.71872 188.645525 
L 126.332579 188.182869 
L 126.537199 188.280494 
L 126.946438 189.208203 
L 127.355678 189.957987 
L 127.969537 190.296879 
L 128.378776 190.946972 
L 128.788016 191.565023 
L 128.992636 191.477598 
L 129.401875 190.405703 
L 129.811115 189.273897 
L 130.220354 188.726291 
L 130.424974 188.662883 
L 130.629593 188.761718 
L 131.448072 189.783257 
L 131.652692 189.640027 
L 132.471171 188.427732 
L 132.675791 188.480307 
L 133.08503 189.08777 
L 133.698889 190.071883 
L 133.903509 190.230663 
L 134.108129 190.239775 
L 134.312749 190.040895 
L 135.131227 188.378564 
L 135.335847 188.495413 
L 135.745087 189.117337 
L 135.949706 189.205828 
L 136.768185 188.911753 
L 137.382044 189.466718 
L 137.791284 189.485042 
L 138.200523 189.194052 
L 138.814383 188.56427 
L 139.632861 186.996701 
L 139.837481 186.971129 
L 140.86058 188.160416 
L 141.269819 188.753716 
L 141.679059 189.946644 
L 142.088298 191.155908 
L 142.292918 191.30905 
L 142.702157 190.785318 
L 143.111397 190.34769 
L 144.134495 189.963647 
L 144.748355 189.381157 
L 146.385312 187.189676 
L 146.589932 187.351897 
L 147.408411 189.215551 
L 148.02227 189.56098 
L 148.43151 189.622468 
L 148.636129 189.490181 
L 149.045369 188.786702 
L 149.454608 188.131459 
L 149.659228 188.188263 
L 150.068468 189.039245 
L 150.477707 190.118798 
L 150.682327 190.42314 
L 150.886946 190.445149 
L 151.296186 189.764656 
L 151.705425 189.177371 
L 151.910045 189.213997 
L 152.523904 189.601869 
L 153.137763 189.544532 
L 153.751623 189.816077 
L 154.160862 190.24053 
L 154.979341 191.351448 
L 155.5932 191.832961 
L 156.00244 191.856968 
L 156.411679 191.702516 
L 156.820919 191.193789 
L 157.230158 190.341641 
L 158.048637 187.860325 
L 158.662496 185.87394 
L 159.071736 185.439087 
L 159.276355 185.443105 
L 159.685595 185.893319 
L 161.117933 188.387387 
L 161.527172 188.736213 
L 161.936412 188.709032 
L 162.141031 188.889344 
L 162.95951 190.413917 
L 163.36875 190.713797 
L 163.982609 191.623137 
L 164.187229 191.613326 
L 164.391848 191.298207 
L 165.414947 188.844782 
L 165.619567 188.726713 
L 165.824186 188.911187 
L 166.642665 190.408955 
L 167.256525 190.839358 
L 167.461144 190.726405 
L 168.279623 189.430602 
L 168.484243 189.479282 
L 169.098102 190.031849 
L 169.302722 189.995811 
L 169.711961 189.437073 
L 170.53044 187.749614 
L 170.73506 187.639358 
L 170.93968 187.666184 
L 171.144299 187.883866 
L 171.553539 188.920033 
L 172.372018 191.305432 
L 172.781257 191.67559 
L 172.985877 191.688243 
L 173.395116 191.384778 
L 174.008976 190.569534 
L 174.622835 189.44048 
L 174.827454 189.32372 
L 175.032074 189.484609 
L 175.645933 190.380132 
L 175.850553 190.553174 
L 176.055173 190.88079 
L 176.873652 193.22317 
L 177.078271 193.323393 
L 177.282891 193.103891 
L 177.692131 191.921352 
L 178.10137 190.785873 
L 178.51061 190.461975 
L 178.919849 190.15124 
L 179.533708 189.375075 
L 179.942948 189.003618 
L 180.147567 189.142787 
L 180.761427 190.204825 
L 181.784525 191.814326 
L 182.398384 192.476905 
L 182.807624 192.575996 
L 183.830722 192.252342 
L 184.444582 191.324267 
L 185.058441 190.126922 
L 185.46768 189.291811 
L 185.6723 189.268947 
L 186.081539 189.895999 
L 186.490779 190.315714 
L 186.695399 190.208488 
L 187.104638 189.554354 
L 187.513878 188.796003 
L 187.718497 188.600186 
L 187.923117 188.630685 
L 189.355455 189.993181 
L 189.764695 191.146064 
L 190.173934 192.492066 
L 190.583173 193.160939 
L 190.787793 193.30175 
L 190.992413 193.28407 
L 191.810892 192.500934 
L 192.220131 192.070066 
L 192.629371 192.011497 
L 193.03861 191.931608 
L 194.061709 191.283623 
L 194.470948 191.580384 
L 194.675568 191.783638 
L 194.880188 191.828632 
L 195.289427 191.326698 
L 195.494047 191.098394 
L 195.698667 191.075542 
L 195.903286 191.283112 
L 196.721765 192.686829 
L 196.926385 192.562633 
L 197.744864 191.306942 
L 198.154103 191.274611 
L 198.563343 190.902666 
L 199.177202 190.350731 
L 199.586441 190.089342 
L 200.200301 190.20235 
L 200.60954 190.477857 
L 201.428019 191.748499 
L 202.655737 191.953084 
L 203.064977 192.072452 
L 203.269596 191.952873 
L 204.292695 190.776106 
L 204.497315 190.76363 
L 204.701935 190.871678 
L 205.315794 191.758665 
L 205.929653 192.469125 
L 206.338892 192.605863 
L 206.748132 192.380268 
L 207.361991 191.884715 
L 208.18047 192.380356 
L 208.794329 191.888289 
L 209.408188 191.222457 
L 209.817428 191.243745 
L 210.431287 191.460894 
L 210.840526 191.64599 
L 211.454386 192.161276 
L 211.863625 192.965466 
L 212.272864 193.746071 
L 212.477484 193.791043 
L 212.886724 193.282882 
L 213.705203 191.734847 
L 214.319062 191.172368 
L 214.932921 190.207633 
L 215.34216 189.950639 
L 216.160639 189.762591 
L 216.774498 190.182872 
L 217.183738 190.045945 
L 217.592977 189.711636 
L 218.616076 188.482094 
L 219.639175 189.190001 
L 220.048414 188.994328 
L 220.662273 188.500962 
L 221.889992 186.450837 
L 222.299231 186.404987 
L 222.91309 186.47067 
L 223.526949 186.13796 
L 223.936189 185.655015 
L 224.345428 184.606318 
L 225.368527 180.236553 
L 225.777766 177.913318 
L 226.391626 172.453857 
L 227.210105 162.547739 
L 228.028583 148.534877 
L 228.847062 131.509031 
L 230.074781 104.766913 
L 230.48402 101.356489 
L 230.68864 101.571297 
L 230.89326 103.086646 
L 231.302499 109.550864 
L 231.916358 125.226224 
L 232.734837 145.608275 
L 233.348696 157.031985 
L 233.962556 165.236604 
L 234.576415 170.263842 
L 235.190274 173.625897 
L 236.008753 176.612743 
L 236.417992 177.453315 
L 236.827232 177.680109 
L 237.031851 177.703794 
L 237.236471 177.880011 
L 237.645711 178.97953 
L 238.25957 180.759543 
L 238.46419 181.15525 
L 238.668809 181.294774 
L 238.873429 181.135583 
L 240.101147 179.229376 
L 240.510387 179.034192 
L 241.124246 179.005701 
L 241.533485 179.45869 
L 241.942725 180.116275 
L 242.147345 180.244167 
L 242.351964 180.122934 
L 242.761204 179.136124 
L 243.375063 177.609632 
L 243.784302 177.280395 
L 245.42126 176.666384 
L 245.62588 176.995565 
L 246.035119 178.614666 
L 246.648979 181.500769 
L 247.058218 182.594184 
L 247.467457 182.996173 
L 247.876697 183.062012 
L 248.081317 183.266208 
L 249.309035 185.672518 
L 249.513655 185.70375 
L 249.922894 185.353459 
L 250.332134 184.999417 
L 250.741373 184.99197 
L 251.150613 185.146233 
L 252.78757 186.275985 
L 253.19681 186.046816 
L 253.810669 185.445824 
L 254.424528 185.180806 
L 254.629148 185.194324 
L 255.038387 185.619011 
L 255.243007 185.838146 
L 255.447627 185.747014 
L 255.652247 185.24862 
L 256.061486 183.244554 
L 256.675345 180.097962 
L 257.493824 178.171622 
L 257.903064 176.925698 
L 258.312303 174.777126 
L 258.926162 171.107455 
L 259.335402 169.730398 
L 259.949261 168.398424 
L 260.3585 167.799119 
L 260.56312 167.725955 
L 260.972359 167.876223 
L 261.586219 167.771871 
L 261.790838 168.084337 
L 262.609317 170.840494 
L 263.018557 172.555146 
L 263.837036 177.141759 
L 265.064754 180.883761 
L 265.473993 181.307415 
L 265.883233 181.393742 
L 267.72481 182.823808 
L 268.33867 182.625427 
L 268.543289 182.807914 
L 269.361768 184.208057 
L 269.566388 184.182419 
L 269.771008 183.888943 
L 270.589487 182.051749 
L 271.203346 181.248048 
L 271.612585 181.230356 
L 272.226444 181.34746 
L 272.840304 181.259568 
L 273.658783 182.145512 
L 273.863402 181.812302 
L 274.272642 179.903177 
L 274.886501 175.309516 
L 275.29574 170.65733 
L 276.523459 155.100095 
L 276.932698 152.569057 
L 277.137318 152.469855 
L 277.341938 153.172668 
L 277.955797 157.564064 
L 278.774276 163.845495 
L 279.183515 165.702955 
L 279.797374 167.217283 
L 280.411233 168.718215 
L 281.025093 170.599804 
L 281.229712 170.874002 
L 281.434332 170.794589 
L 281.843572 169.743483 
L 282.66205 167.101078 
L 283.27591 162.708717 
L 284.094389 156.160014 
L 284.503628 150.798123 
L 285.117487 138.164106 
L 285.731346 120.897292 
L 286.959065 82.792508 
L 287.163684 80.879143 
L 287.368304 81.33585 
L 287.572924 83.976623 
L 287.982163 93.863651 
L 289.005262 122.697449 
L 289.619121 133.818159 
L 290.028361 138.329512 
L 290.4376 141.080463 
L 290.84684 142.611073 
L 291.051459 142.973928 
L 291.256079 143.011287 
L 291.460699 142.75214 
L 291.869938 141.678326 
L 292.279178 139.611019 
L 292.688417 135.77531 
L 293.302276 126.753082 
L 293.916135 112.892641 
L 294.529995 92.471521 
L 295.143854 64.436464 
L 296.166952 15.1528 
L 296.576192 5.030731 
L 296.780812 3.046389 
L 296.985431 3.00024 
L 297.190051 4.626922 
L 297.599291 11.046323 
L 298.417769 27.633454 
L 299.031629 45.705134 
L 300.668586 104.241815 
L 301.077826 112.052225 
L 301.691685 119.347681 
L 302.100925 122.297946 
L 302.305544 123.021735 
L 302.510164 123.322204 
L 303.737882 123.811408 
L 303.942502 123.69285 
L 304.147122 123.369041 
L 304.556361 121.802482 
L 305.17022 118.964981 
L 305.37484 118.687565 
L 305.57946 118.923516 
L 305.78408 119.718627 
L 306.193319 122.90825 
L 307.216418 132.902626 
L 307.830277 136.332295 
L 308.239516 137.329472 
L 308.648756 137.734358 
L 308.853376 137.710085 
L 309.262615 137.173832 
L 310.081094 135.341844 
L 310.899573 134.487121 
L 311.513432 133.817005 
L 311.718052 133.829647 
L 311.922671 134.083322 
L 313.35501 137.871207 
L 314.991967 144.554472 
L 315.605827 146.572888 
L 316.833545 151.652191 
L 317.038165 151.591125 
L 317.447404 150.486389 
L 318.265883 147.623162 
L 318.675122 145.030913 
L 319.084362 140.823547 
L 319.698221 131.424746 
L 320.5167 114.210908 
L 322.562897 68.295403 
L 322.767517 66.433659 
L 322.972137 66.026286 
L 323.176756 67.052875 
L 323.585996 72.717565 
L 325.018334 100.360567 
L 325.427573 103.279622 
L 326.041433 107.149715 
L 326.450672 111.800946 
L 327.67839 130.574574 
L 328.08763 133.50435 
L 328.496869 134.796823 
L 328.701489 134.783571 
L 328.906109 134.292014 
L 329.315348 131.965516 
L 329.724588 127.82097 
L 330.338447 118.194066 
L 332.180024 86.606175 
L 332.793884 80.369938 
L 333.407743 77.107163 
L 333.816982 75.807054 
L 334.021602 75.513978 
L 334.226222 75.561614 
L 334.430841 76.030485 
L 334.635461 77.018106 
L 335.044701 81.067923 
L 335.45394 88.009614 
L 336.067799 102.665999 
L 337.090898 127.590857 
L 337.704757 137.781162 
L 338.318616 144.156345 
L 339.137095 149.370044 
L 340.160194 154.040399 
L 340.569433 155.146422 
L 340.978673 155.489155 
L 341.387912 155.484393 
L 341.592532 155.379942 
L 341.797152 155.063281 
L 342.206391 153.550529 
L 342.82025 149.680501 
L 343.434109 143.404298 
L 344.047969 137.753581 
L 344.661828 133.981357 
L 344.866447 133.343905 
L 345.071067 133.122761 
L 345.275687 133.261385 
L 345.684926 134.409529 
L 346.094166 136.579733 
L 346.503405 140.416952 
L 347.526504 151.398671 
L 347.935743 153.868888 
L 348.549603 156.090724 
L 349.163462 157.583953 
L 349.981941 159.108392 
L 351.005039 160.356647 
L 351.618898 162.150078 
L 352.232758 163.835917 
L 352.641997 164.415999 
L 352.846617 164.454956 
L 353.460476 164.1331 
L 354.074335 163.580022 
L 354.278955 163.568423 
L 354.892814 163.881833 
L 355.302054 163.567691 
L 355.915913 162.50775 
L 356.325152 161.827634 
L 356.529772 161.69952 
L 356.939011 161.893406 
L 357.348251 162.023229 
L 358.575969 161.545601 
L 358.780589 161.967957 
L 359.189828 163.826316 
L 360.212927 169.052357 
L 360.622166 170.146605 
L 360.826786 170.501258 
L 361.031406 170.610737 
L 361.849885 170.153486 
L 362.259124 170.5435 
L 362.668364 171.371075 
L 363.077603 172.300116 
L 363.282223 172.571982 
L 363.486843 172.657 
L 364.714561 172.216897 
L 365.32842 171.827682 
L 365.73766 171.892932 
L 366.760758 172.577177 
L 367.169998 173.57482 
L 367.988477 176.131075 
L 368.397716 176.764176 
L 368.806955 177.072602 
L 369.011575 177.051348 
L 369.216195 176.797617 
L 370.034674 175.002532 
L 370.443913 174.563861 
L 370.648533 174.522595 
L 370.853153 174.758857 
L 371.671632 176.782023 
L 373.308589 178.361945 
L 373.922449 178.551791 
L 374.740928 179.572609 
L 374.945547 179.443873 
L 375.559406 178.632325 
L 375.968646 178.37381 
L 376.377885 177.746969 
L 377.196364 175.92205 
L 377.400984 176.054904 
L 378.014843 177.214435 
L 379.242562 178.179547 
L 380.06104 179.146601 
L 380.26566 179.239565 
L 380.47028 179.163139 
L 380.879519 178.538528 
L 381.493379 177.60537 
L 381.902618 177.238375 
L 382.721097 176.94673 
L 383.539576 175.983538 
L 384.358055 176.186791 
L 385.176534 175.042166 
L 385.381153 174.697624 
L 385.790393 173.32332 
L 386.404252 170.863691 
L 386.608872 170.390302 
L 386.813491 170.271889 
L 387.018111 170.565476 
L 387.83659 173.329124 
L 388.655069 173.891415 
L 388.859689 173.78006 
L 389.678168 172.252913 
L 390.087407 172.642605 
L 390.701266 173.243974 
L 391.724365 173.98167 
L 392.542844 175.173943 
L 393.156703 175.701971 
L 393.565942 176.226359 
L 393.770562 176.285571 
L 394.384421 175.801195 
L 394.589041 175.947744 
L 395.816759 177.974684 
L 396.225999 178.324953 
L 396.839858 178.962915 
L 397.658337 178.778785 
L 398.067576 179.059142 
L 398.272196 179.054481 
L 398.476816 178.815267 
L 398.886055 177.636202 
L 399.295295 176.27091 
L 399.499914 175.916501 
L 399.704534 175.921285 
L 400.523013 177.214002 
L 401.341492 178.978831 
L 401.955351 179.515649 
L 402.364591 179.931723 
L 402.97845 181.040943 
L 404.206168 184.044671 
L 404.615408 184.252985 
L 405.843126 184.163484 
L 406.252365 184.514286 
L 406.456985 184.544153 
L 406.661605 184.350933 
L 407.480084 182.861966 
L 407.889323 182.873697 
L 408.707802 183.302379 
L 408.912422 183.007083 
L 409.730901 181.238003 
L 409.935521 181.243408 
L 410.14014 181.54169 
L 410.958619 183.523003 
L 411.367859 183.749397 
L 411.981718 183.436043 
L 412.186338 183.545289 
L 412.595577 184.390489 
L 413.209436 186.25826 
L 413.618676 186.686321 
L 414.232535 186.896001 
L 414.437155 186.934591 
L 414.641774 186.701415 
L 415.051014 185.1758 
L 415.460253 183.466809 
L 415.869493 182.621376 
L 416.074112 182.51284 
L 416.278732 182.649245 
L 416.483352 183.07614 
L 417.301831 185.488477 
L 417.50645 185.350396 
L 417.91569 184.479791 
L 418.734169 182.426014 
L 419.552648 180.930454 
L 419.961887 180.578398 
L 420.166507 180.710574 
L 420.575746 181.574254 
L 421.189606 182.932632 
L 421.394225 183.050569 
L 421.598845 182.914785 
L 422.008084 182.308277 
L 422.212704 182.198876 
L 422.417324 182.3175 
L 423.031183 183.229515 
L 423.849662 184.991326 
L 424.054282 185.116255 
L 424.463521 184.938573 
L 424.872761 184.760581 
L 425.282 184.633932 
L 425.895859 184.156925 
L 426.305099 184.241953 
L 426.714338 184.319312 
L 426.918958 184.081641 
L 427.532817 182.332439 
L 428.146676 180.299994 
L 428.555916 178.861272 
L 430.397493 174.931033 
L 430.602113 174.910456 
L 431.011352 175.382746 
L 431.625212 176.218024 
L 432.64831 176.617505 
L 433.05755 176.624486 
L 433.262169 176.793655 
L 433.671409 177.744383 
L 434.080648 178.906966 
L 434.489888 179.444539 
L 434.899127 179.963044 
L 435.922226 181.972625 
L 436.126846 182.16559 
L 436.331465 182.15559 
L 436.740705 181.720182 
L 437.149944 181.215395 
L 437.559184 181.154462 
L 438.173043 181.466762 
L 439.196141 181.455552 
L 439.605381 182.12993 
L 441.651578 186.422501 
L 441.856198 186.642259 
L 442.060818 186.690583 
L 442.265437 186.564156 
L 442.470057 186.254509 
L 442.879297 184.920715 
L 443.493156 182.250064 
L 443.697775 181.870949 
L 444.107015 181.755587 
L 444.925494 181.695198 
L 445.130114 181.463832 
L 445.948592 179.45061 
L 446.153212 179.434128 
L 446.357832 179.753908 
L 447.176311 181.62391 
L 447.380931 181.65865 
L 447.79017 181.178069 
L 448.404029 180.466333 
L 448.608649 180.447842 
L 449.017888 180.593748 
L 449.222508 180.425256 
L 450.040987 178.694267 
L 450.450226 178.631315 
L 451.268705 178.072687 
L 451.473325 178.330058 
L 451.882565 179.453795 
L 452.496424 181.403221 
L 452.905663 181.935722 
L 453.519522 181.920661 
L 453.724142 181.820271 
L 454.133382 181.14717 
L 454.542621 180.539552 
L 454.747241 180.648831 
L 455.770339 182.18932 
L 456.793438 181.213453 
L 457.407297 179.92876 
L 457.816537 179.675673 
L 458.021156 179.710357 
L 458.839635 180.186054 
L 459.248875 179.442219 
L 459.862734 178.244253 
L 460.271973 178.11686 
L 460.476593 178.050467 
L 460.681213 177.747701 
L 461.295072 176.312464 
L 461.704311 175.959986 
L 462.113551 175.891939 
L 462.72741 176.076458 
L 463.341269 176.504174 
L 464.159748 176.667039 
L 464.364368 176.542621 
L 464.773607 175.707698 
L 465.182847 174.762198 
L 466.615185 172.948944 
L 467.024424 173.001297 
L 467.433664 173.201199 
L 468.047523 173.84582 
L 468.661382 174.800089 
L 469.275241 176.240854 
L 469.684481 176.991015 
L 469.889101 176.980016 
L 470.29834 176.403152 
L 471.526058 174.512151 
L 471.730678 174.388366 
L 471.935298 174.614805 
L 472.549157 175.867555 
L 472.753777 175.960419 
L 473.163016 175.806522 
L 473.572256 175.550982 
L 474.799974 174.325258 
L 475.823073 173.700137 
L 476.232312 173.565208 
L 476.641551 173.221776 
L 477.050791 173.258358 
L 477.255411 173.239767 
L 477.46003 172.964782 
L 478.687749 169.869755 
L 479.096988 169.551917 
L 479.301608 169.503093 
L 479.506228 169.613216 
L 480.324707 170.545131 
L 481.552425 171.419732 
L 481.961664 172.008582 
L 482.166284 172.305776 
L 482.370904 172.351737 
L 482.780143 171.694651 
L 483.394002 170.602113 
L 483.598622 170.509948 
L 484.007862 170.542989 
L 484.417101 170.090911 
L 484.826341 169.73719 
L 485.03096 169.898856 
L 485.849439 171.353162 
L 486.054059 171.424483 
L 486.258679 171.369721 
L 486.667918 170.820494 
L 487.281777 169.647079 
L 488.100256 168.760568 
L 488.918735 168.470855 
L 489.327975 168.816884 
L 489.532594 169.03269 
L 489.737214 169.068429 
L 489.941834 168.787483 
L 490.760313 166.427622 
L 490.964932 166.303082 
L 491.578792 166.400463 
L 491.783411 165.951648 
L 492.80651 162.041809 
L 493.01113 162.11959 
L 493.420369 162.738662 
L 493.624989 162.794433 
L 494.034228 162.306284 
L 494.443468 161.843994 
L 494.648087 161.898001 
L 495.057327 162.542611 
L 495.466566 163.105102 
L 495.671186 163.135002 
L 495.875806 162.956122 
L 496.285045 161.894016 
L 497.308144 158.247154 
L 498.126623 154.550436 
L 498.945102 151.984569 
L 499.354341 151.284874 
L 499.9682 150.907269 
L 500.58206 149.878327 
L 500.786679 149.763388 
L 501.195919 149.883821 
L 501.605158 150.329296 
L 502.628257 152.234248 
L 503.037496 152.269543 
L 503.446736 152.093526 
L 503.651355 151.813557 
L 504.469834 149.658381 
L 505.697553 146.655131 
L 506.106792 146.36928 
L 506.516032 146.214373 
L 506.720651 145.945403 
L 507.74375 143.531235 
L 508.152989 142.801108 
L 508.971468 140.63298 
L 509.380708 138.39484 
L 509.994567 134.685802 
L 510.199187 134.202413 
L 510.403806 134.177973 
L 511.017666 134.882507 
L 511.222285 134.682017 
L 512.040764 133.037155 
L 512.450004 132.455275 
L 513.268483 130.163162 
L 514.496201 126.400494 
L 515.11006 123.819543 
L 515.928539 119.509402 
L 516.133159 119.048511 
L 516.337778 118.990764 
L 516.951638 119.708904 
L 517.156257 119.645785 
L 517.360877 119.258579 
L 517.974736 117.58243 
L 518.588595 117.238443 
L 518.997835 116.328958 
L 520.020934 113.164097 
L 520.430173 112.796969 
L 521.453272 112.967558 
L 522.68099 112.24631 
L 523.090229 111.606206 
L 523.499469 110.30744 
L 525.136427 103.260565 
L 526.364145 99.687954 
L 526.773385 99.168605 
L 527.182624 98.647214 
L 527.591863 97.278092 
L 529.228821 89.610214 
L 529.84268 88.1132 
L 530.25192 87.628136 
L 531.275019 87.098931 
L 531.684258 86.453066 
L 532.093497 85.255589 
L 533.321216 80.883904 
L 533.730455 80.431592 
L 534.344314 79.92948 
L 534.753554 79.273638 
L 535.162793 77.938334 
L 535.776653 73.910182 
L 536.185892 71.660732 
L 537.004371 68.311585 
L 539.869047 52.233015 
L 540.892146 44.884706 
L 543.961442 25.265002 
L 544.166061 25.152071 
L 544.370681 25.746326 
L 544.779921 28.655336 
L 545.39378 35.350899 
L 545.803019 43.117546 
L 546.212259 55.201349 
L 546.826118 79.904452 
L 547.644597 116.036093 
L 548.053836 125.542219 
L 548.463076 129.196451 
L 548.667695 129.598685 
L 548.872315 129.394022 
L 549.486174 128.111194 
L 549.690794 128.286412 
L 550.304653 129.991673 
L 550.713893 131.009483 
L 551.123132 131.461251 
L 551.327752 131.616646 
L 551.532371 131.964517 
L 551.941611 133.531831 
L 552.55547 137.379794 
L 553.578569 144.447923 
L 554.601667 148.441802 
L 555.624766 154.151964 
L 556.238625 157.139111 
L 557.466344 164.527742 
L 557.875583 165.763733 
L 558.284822 166.293659 
L 558.898682 166.559277 
L 559.103301 166.865294 
L 559.512541 168.130353 
L 559.92178 169.421883 
L 560.740259 170.759828 
L 561.558738 174.361917 
L 562.377217 175.229404 
L 562.991076 176.205892 
L 564.423414 178.135362 
L 564.832654 178.629062 
L 565.651133 179.186357 
L 566.060372 179.064758 
L 566.469612 178.781227 
L 566.878851 178.829596 
L 567.083471 179.074392 
L 567.49271 180.330028 
L 568.106569 182.476713 
L 568.515809 182.936284 
L 568.720429 182.85807 
L 568.925048 182.505326 
L 569.743527 179.705817 
L 569.948147 179.599312 
L 570.357386 179.780357 
L 570.971246 179.779169 
L 571.380485 180.200515 
L 571.994344 181.148624 
L 572.198964 181.062852 
L 573.222063 179.717205 
L 573.426682 179.729513 
L 573.631302 179.899958 
L 574.040541 180.770131 
L 574.654401 182.502596 
L 575.06364 182.871655 
L 575.47288 183.36046 
L 576.086739 184.387148 
L 576.291358 184.404995 
L 577.314457 183.600883 
L 577.519077 183.437863 
L 577.723697 183.426309 
L 577.928316 183.63378 
L 578.542175 184.7936 
L 578.746795 184.844222 
L 579.156035 184.302631 
L 579.565274 183.724358 
L 580.179133 183.428618 
L 580.383753 183.507364 
L 581.611471 184.961348 
L 582.83919 185.330918 
L 583.248429 185.052025 
L 583.862288 184.338469 
L 584.476148 184.106103 
L 584.885387 183.733503 
L 585.090007 183.799087 
L 585.703866 184.253563 
L 585.908486 184.199489 
L 586.931584 183.260515 
L 587.545443 183.481548 
L 587.954683 183.799886 
L 588.363922 184.627528 
L 588.977781 185.928502 
L 589.182401 186.001355 
L 589.387021 185.871021 
L 589.79626 185.145955 
L 590.2055 184.270444 
L 590.41012 184.165271 
L 590.614739 184.391754 
L 591.228598 185.606269 
L 591.433218 185.784295 
L 591.637838 185.755859 
L 592.047077 185.126377 
L 592.456317 184.350866 
L 592.660937 184.173828 
L 593.888655 184.081075 
L 594.297894 183.778876 
L 594.707134 183.426886 
L 594.911754 183.465699 
L 595.525613 184.015648 
L 595.730232 183.961563 
L 596.753331 183.049503 
L 596.957951 182.966339 
L 597.162571 183.012799 
L 597.77643 183.735335 
L 597.981049 183.692105 
L 598.594909 182.923853 
L 598.799528 183.002488 
L 599.004148 183.380382 
L 599.413388 184.987264 
L 599.822627 186.654301 
L 600.231866 187.648559 
L 600.641106 188.13743 
L 600.845726 188.09521 
L 602.482683 186.91791 
L 602.891923 185.966227 
L 603.505782 184.200333 
L 603.915022 183.939187 
L 604.324261 183.754369 
L 604.528881 183.853937 
L 604.93812 184.802834 
L 605.34736 185.705215 
L 605.756599 186.019735 
L 605.961219 185.918158 
L 606.575078 184.814166 
L 607.598177 182.851189 
L 607.802796 182.854607 
L 608.212036 183.53863 
L 608.416656 183.874159 
L 608.621275 183.990553 
L 609.235134 183.829087 
L 610.053613 184.151575 
L 610.667473 183.968844 
L 610.872092 184.075925 
L 611.281332 184.725564 
L 611.690571 185.439498 
L 612.099811 185.724161 
L 612.71367 185.869967 
L 613.532149 186.760084 
L 614.146008 186.731849 
L 614.555247 186.378239 
L 614.964487 186.02433 
L 615.987585 185.784739 
L 616.396825 185.152392 
L 616.806064 184.520279 
L 617.624543 183.613159 
L 618.238402 182.591953 
L 618.647642 182.34113 
L 619.056881 181.618983 
L 619.466121 180.899344 
L 619.670741 180.905681 
L 620.07998 181.573655 
L 620.489219 182.124114 
L 620.898459 182.438267 
L 621.307698 183.195542 
L 621.921558 184.677905 
L 622.126177 184.802212 
L 622.330797 184.603876 
L 622.740036 183.48783 
L 623.149276 182.379787 
L 624.376994 180.236531 
L 624.786234 180.03865 
L 625.195473 180.193412 
L 625.604713 180.537277 
L 626.423192 181.495375 
L 626.832431 181.69693 
L 627.037051 181.550403 
L 627.85553 180.132513 
L 628.060149 180.182946 
L 628.469389 180.965671 
L 628.878628 181.640115 
L 629.287868 181.72804 
L 629.697107 181.325362 
L 630.106347 180.397953 
L 630.924825 178.168859 
L 631.334065 177.720631 
L 631.538685 177.748134 
L 631.947924 178.201567 
L 632.561783 178.97438 
L 633.584882 179.89967 
L 633.994121 179.846839 
L 634.403361 179.43697 
L 635.22184 177.82445 
L 635.426459 177.954318 
L 636.040319 178.95488 
L 636.244938 179.019974 
L 636.654178 178.923592 
L 637.063417 179.147389 
L 637.268037 179.266524 
L 637.472657 179.212728 
L 637.881896 178.591481 
L 638.495755 177.508887 
L 639.314234 176.739392 
L 639.928093 175.557997 
L 640.132713 175.60247 
L 640.541953 176.252064 
L 641.155812 177.909412 
L 641.769671 179.860691 
L 641.974291 180.179106 
L 642.17891 180.193168 
L 642.38353 179.92805 
L 644.429727 175.497819 
L 645.043587 175.033665 
L 645.248206 175.017893 
L 645.452826 175.241857 
L 646.475925 177.475258 
L 646.680544 177.381716 
L 647.089784 176.788849 
L 647.499023 175.951196 
L 647.703643 175.76165 
L 647.908263 175.818709 
L 648.522122 176.457004 
L 648.931361 176.344495 
L 649.135981 176.277003 
L 649.340601 176.388225 
L 649.95446 177.174734 
L 650.15908 177.155866 
L 650.568319 176.756218 
L 650.977559 176.282119 
L 651.182178 176.341798 
L 651.386798 176.76432 
L 652.409897 180.242502 
L 652.819136 180.881153 
L 653.023756 181.012053 
L 653.228376 180.914427 
L 653.637615 180.135687 
L 654.251474 178.64612 
L 654.660714 178.143131 
L 655.069953 177.974595 
L 655.683812 178.037737 
L 655.888432 177.87495 
L 656.297672 177.066198 
L 656.911531 175.712704 
L 657.116151 175.752737 
L 657.52539 176.657494 
L 657.934629 177.564393 
L 658.139249 177.737002 
L 658.343869 177.673661 
L 658.548489 177.337698 
L 658.957728 175.931507 
L 659.571587 173.695009 
L 660.799306 170.208381 
L 661.003925 170.081887 
L 661.208545 170.197005 
L 661.617785 170.689594 
L 661.822404 170.68975 
L 662.027024 170.317949 
L 662.640883 167.91225 
L 663.050123 166.506002 
L 663.459362 165.851935 
L 664.482461 165.234118 
L 664.68708 165.306637 
L 665.09632 165.960493 
L 665.505559 166.770854 
L 665.710179 166.910134 
L 666.119418 166.753107 
L 666.528658 166.381762 
L 666.937897 165.727118 
L 667.347137 164.197307 
L 669.188714 154.059422 
L 669.393334 153.624358 
L 669.597954 153.456399 
L 669.802574 153.55923 
L 670.211813 154.495829 
L 671.234912 157.569658 
L 671.848771 158.891609 
L 672.25801 159.756676 
L 672.66725 160.604707 
L 672.871869 160.5805 
L 673.281109 159.650138 
L 673.894968 158.247343 
L 674.304208 157.818106 
L 674.713447 157.648071 
L 675.122686 157.096358 
L 675.531926 155.727014 
L 676.555025 151.263842 
L 676.759644 150.964684 
L 676.964264 151.030566 
L 677.373503 152.034558 
L 677.987363 154.374885 
L 678.601222 156.882461 
L 679.010461 157.699026 
L 679.419701 158.166288 
L 679.62432 158.137875 
L 679.82894 157.774864 
L 680.442799 155.446025 
L 680.852039 154.114228 
L 681.261278 153.538875 
L 682.284377 152.9226 
L 682.488997 152.992378 
L 682.693616 153.277608 
L 683.102856 154.579381 
L 683.716715 156.452314 
L 684.330574 157.264805 
L 684.739814 158.039761 
L 685.149053 158.853485 
L 685.967532 159.53319 
L 686.172152 159.605821 
L 686.376771 159.447828 
L 686.786011 158.481384 
L 687.39987 156.985747 
L 688.013729 155.598323 
L 689.036828 151.932482 
L 689.446067 149.503652 
L 689.855307 145.614801 
L 690.673786 137.226063 
L 690.878405 136.556769 
L 691.083025 136.827925 
L 691.492265 139.790321 
L 692.515363 149.581622 
L 693.333842 154.716918 
L 693.743082 156.289749 
L 693.947701 156.667165 
L 694.152321 156.734258 
L 694.561561 156.238705 
L 694.9708 155.895539 
L 695.584659 156.050313 
L 695.993899 155.393361 
L 697.835476 151.012753 
L 698.244716 148.963493 
L 698.653955 145.621316 
L 699.267814 138.680469 
L 700.086293 128.825361 
L 700.290913 127.767207 
L 700.495533 127.764987 
L 700.700152 128.772763 
L 701.109392 132.723157 
L 702.13249 144.291918 
L 702.54173 147.094901 
L 702.950969 148.743525 
L 703.360209 149.699425 
L 703.564829 149.940847 
L 703.769448 149.964144 
L 703.974068 149.716828 
L 704.383307 148.585533 
L 705.406406 145.25885 
L 705.815645 144.891544 
L 706.634124 145.009137 
L 707.861843 143.702158 
L 708.066462 143.242632 
L 708.271082 142.472826 
L 708.680322 139.477056 
L 709.294181 133.398145 
L 709.70342 131.180605 
L 710.11266 130.357858 
L 710.317279 130.320754 
L 710.726519 130.606505 
L 712.158857 131.882252 
L 712.363477 131.847879 
L 712.772716 131.337099 
L 713.181956 130.145137 
L 713.795815 126.881829 
L 714.818913 120.907603 
L 716.046632 114.497647 
L 716.455871 110.693114 
L 718.092829 90.458067 
L 718.502069 84.554452 
L 719.115928 71.811088 
L 719.934407 49.613685 
L 720.752886 20.401105 
L 721.247768 -1 
M 741.720755 -1 
L 742.442577 13.619404 
L 743.261055 25.20751 
L 743.874915 31.03744 
L 744.284154 33.476114 
L 744.898013 35.666362 
L 745.102633 36.046887 
L 745.307253 36.136488 
L 745.511872 35.966431 
L 746.125732 34.817633 
L 746.534971 33.956794 
L 746.739591 33.765661 
L 746.944211 33.913586 
L 747.35345 34.618142 
L 747.55807 34.601971 
L 747.762689 34.193466 
L 748.171929 32.382421 
L 748.581168 28.938624 
L 748.990408 23.177662 
L 750.013506 7.253633 
L 750.218126 5.868673 
L 750.422746 5.582311 
L 750.627366 6.443649 
L 751.036605 11.272107 
L 751.445845 19.557492 
L 753.287422 63.509931 
L 753.901281 70.277825 
L 754.51514 73.874288 
L 755.129 76.372996 
L 755.538239 76.989992 
L 755.742859 77.23086 
L 755.947479 77.6877 
L 756.152098 78.594188 
L 756.561338 82.071149 
L 757.584436 92.434407 
L 758.402915 97.942603 
L 760.858352 109.052681 
L 761.472211 111.138089 
L 761.676831 111.350122 
L 761.881451 111.282907 
L 762.08607 110.958188 
L 763.109169 108.306016 
L 763.927648 107.58681 
L 764.336887 106.214337 
L 764.746127 104.891819 
L 765.155366 104.46488 
L 765.359986 104.468931 
L 765.564606 104.668033 
L 765.973845 105.673145 
L 766.587704 107.257174 
L 766.996944 107.698598 
L 767.406183 108.013129 
L 768.224662 109.231761 
L 768.633902 109.20983 
L 769.657 108.88278 
L 769.86162 108.907297 
L 770.06624 108.784987 
L 770.884719 107.57196 
L 771.089338 107.537975 
L 771.498578 107.835369 
L 771.907817 108.46342 
L 773.135536 111.363962 
L 773.544775 111.672033 
L 773.749395 111.639292 
L 774.158634 111.172163 
L 774.567874 110.737032 
L 774.977113 110.8971 
L 775.181733 110.977589 
L 775.590972 110.760529 
L 776.204832 109.956771 
L 776.614071 109.205201 
L 777.43255 107.174921 
L 777.63717 107.068571 
L 777.841789 107.237574 
L 778.455649 108.491056 
L 779.069508 109.621342 
L 779.274127 109.844695 
L 779.478747 109.878269 
L 779.887987 109.44275 
L 781.115705 107.179671 
L 781.524944 106.19376 
L 781.934184 104.63235 
L 782.752663 100.833345 
L 784.389621 93.912586 
L 785.208099 88.333612 
L 785.821959 85.031913 
L 786.231198 83.921062 
L 786.435818 83.758597 
L 786.640438 83.868487 
L 787.049677 84.500644 
L 787.868156 86.29988 
L 788.072776 86.393199 
L 788.482015 86.024717 
L 788.891255 85.749632 
L 789.300494 85.699909 
L 789.505114 85.460263 
L 790.323593 83.973848 
L 790.528212 83.978099 
L 791.346691 84.813832 
L 791.551311 84.534241 
L 792.16517 82.853097 
L 792.983649 80.757255 
L 793.188269 80.597243 
L 793.392889 80.675212 
L 793.597508 81.028345 
L 794.006748 82.458444 
L 794.825227 86.65046 
L 796.052945 93.079195 
L 796.666804 94.903669 
L 797.076044 96.0433 
L 797.485283 98.126655 
L 797.894523 100.289545 
L 798.303762 101.221871 
L 798.713001 102.019391 
L 799.94072 106.237212 
L 800.554579 109.510387 
L 801.373058 113.851893 
L 804.442354 128.664794 
L 805.670072 135.037491 
L 806.897791 138.186536 
L 807.51165 139.87758 
L 807.920889 140.211834 
L 808.330129 140.206373 
L 808.943988 139.931832 
L 809.148608 140.003242 
L 809.353227 140.298849 
L 809.762467 141.683098 
L 810.376326 144.352961 
L 810.785565 145.116252 
L 811.194805 145.467042 
L 811.808664 146.140255 
L 812.422523 146.645375 
L 812.831763 147.154934 
L 813.241002 148.199792 
L 813.854861 149.988062 
L 814.059481 150.144034 
L 814.264101 150.106731 
L 814.67334 149.609979 
L 815.08258 149.112107 
L 815.287199 149.282297 
L 816.105678 150.967547 
L 816.310298 151.06292 
L 816.719537 150.875615 
L 817.128777 150.668089 
L 818.970354 151.06626 
L 819.174974 151.313465 
L 819.584214 152.5599 
L 819.993453 153.669153 
L 820.198073 153.846202 
L 820.607312 153.864826 
L 820.811932 154.031165 
L 822.24427 156.337363 
L 822.44889 156.405388 
L 822.653509 156.312612 
L 823.676608 155.227954 
L 824.290467 154.994912 
L 824.904326 154.512355 
L 825.927425 154.568127 
L 826.541284 154.09162 
L 826.950524 153.796845 
L 827.564383 153.761107 
L 827.973622 153.209505 
L 828.382862 152.142761 
L 828.792101 150.87758 
L 829.201341 150.438842 
L 829.8152 150.259906 
L 830.224439 149.874043 
L 830.633679 149.066191 
L 832.270637 144.531065 
L 833.089116 142.454613 
L 833.702975 140.105562 
L 834.521454 136.713307 
L 835.953792 132.004651 
L 836.97689 126.190936 
L 838.818468 115.240072 
L 840.455426 101.728356 
L 841.478524 90.503006 
L 842.706243 76.714053 
L 843.933961 59.358981 
L 845.366299 35.228068 
L 846.594018 9.392394 
L 847.00212 -1 
M 942.384469 -1 
L 943.174529 21.986855 
L 943.993007 39.723305 
L 945.629965 69.830919 
L 947.062303 87.861722 
L 948.085402 103.480633 
L 948.903881 111.759537 
L 950.745458 126.239793 
L 951.563937 131.537766 
L 951.973177 133.126401 
L 952.382416 134.302047 
L 952.791656 136.243937 
L 953.610135 140.535609 
L 954.019374 141.861068 
L 954.428614 142.554691 
L 954.837853 142.976093 
L 955.247092 144.296846 
L 955.860952 146.419657 
L 956.474811 148.304854 
L 957.08867 151.12413 
L 957.702529 153.745225 
L 958.316388 155.131128 
L 958.725628 155.646803 
L 959.339487 155.795095 
L 960.157966 156.517619 
L 960.567205 156.348428 
L 960.771825 156.478285 
L 960.976445 156.946446 
L 963.841121 167.788453 
L 964.25036 169.303303 
L 964.45498 169.643815 
L 964.6596 169.737789 
L 964.86422 169.594614 
L 965.887318 168.012095 
L 966.091938 168.183783 
L 967.728896 171.405215 
L 968.138135 172.850908 
L 968.751994 175.428606 
L 969.161234 176.410245 
L 969.775093 177.087419 
L 970.184333 177.38327 
L 970.798192 177.532938 
L 971.207431 178.01888 
L 971.412051 178.276384 
L 971.616671 178.305086 
L 971.82129 178.013796 
L 972.43515 176.648115 
L 972.639769 176.670746 
L 973.662868 178.002464 
L 974.072107 177.934218 
L 974.481347 177.451473 
L 975.913685 175.090457 
L 976.118305 175.018326 
L 976.322924 175.184864 
L 976.936783 176.212441 
L 977.550643 176.387914 
L 978.369122 177.705459 
L 978.573741 177.433948 
L 978.982981 176.50524 
L 979.1876 176.329434 
L 979.39222 176.545684 
L 980.006079 177.915805 
L 980.210699 177.941543 
L 980.824558 177.125843 
L 981.029178 177.144822 
L 981.438417 177.772141 
L 981.847657 178.543512 
L 982.052277 178.696698 
L 982.256896 178.636165 
L 983.279995 177.570164 
L 983.689234 176.886097 
L 984.303094 175.534312 
L 984.712333 175.10755 
L 985.326192 174.993043 
L 986.349291 174.724739 
L 986.96315 174.481896 
L 987.577009 174.463994 
L 987.781629 174.544316 
L 987.986249 174.768979 
L 988.395488 175.731594 
L 988.804728 176.747073 
L 989.009347 176.987618 
L 989.213967 177.010992 
L 989.623207 176.705008 
L 990.032446 176.438558 
L 990.237066 176.571866 
L 990.850925 177.282138 
L 991.055545 177.197487 
L 991.260164 176.885209 
L 992.487883 173.737906 
L 992.897122 173.484009 
L 993.101742 173.564853 
L 993.510981 174.139973 
L 994.124841 175.527086 
L 994.7387 176.183495 
L 995.147939 177.243491 
L 995.557179 178.358272 
L 995.966418 178.68793 
L 996.580277 178.784412 
L 996.989517 179.112927 
L 997.603376 180.145021 
L 997.807996 180.263712 
L 998.012615 180.175809 
L 998.626475 179.392563 
L 999.240334 178.281312 
L 1000.058813 176.669569 
L 1001.081911 173.534287 
L 1002.10501 170.700027 
L 1002.514249 170.101865 
L 1002.718869 170.237638 
L 1002.923489 170.877964 
L 1003.332728 173.346683 
L 1004.560447 181.820527 
L 1004.969686 183.208616 
L 1005.583545 184.25727 
L 1005.992785 184.70371 
L 1006.402024 184.901636 
L 1006.606644 184.796563 
L 1007.015883 183.988799 
L 1008.243602 180.718654 
L 1008.448221 180.757767 
L 1009.2667 181.929551 
L 1010.289799 182.380997 
L 1010.494419 182.493595 
L 1010.699038 182.410786 
L 1011.108278 181.647285 
L 1012.335996 178.370281 
L 1012.540616 178.40027 
L 1012.745236 178.702514 
L 1013.154475 179.893687 
L 1014.177574 183.840641 
L 1014.382193 183.884182 
L 1014.791433 183.662293 
L 1014.996053 183.821662 
L 1015.405292 184.851813 
L 1016.223771 187.295537 
L 1016.428391 187.483163 
L 1016.83763 187.4497 
L 1017.04225 187.259399 
L 1018.679208 184.337403 
L 1019.293067 182.807315 
L 1019.497687 182.860967 
L 1019.906926 183.666699 
L 1020.316166 184.425107 
L 1020.725405 184.616873 
L 1021.339264 184.596184 
L 1021.543884 184.719282 
L 1021.953123 185.334813 
L 1022.362363 185.900045 
L 1022.566983 185.866826 
L 1023.180842 185.071071 
L 1023.385461 185.199219 
L 1024.61318 187.128855 
L 1025.022419 187.351387 
L 1025.227039 187.18547 
L 1026.863997 184.560402 
L 1027.068617 184.49857 
L 1027.477856 184.92693 
L 1027.887095 185.43104 
L 1028.296335 185.46942 
L 1028.705574 185.314225 
L 1028.910194 185.379986 
L 1029.319434 185.837347 
L 1029.933293 186.635155 
L 1030.956391 187.04871 
L 1031.365631 187.104393 
L 1031.77487 187.242229 
L 1032.388729 187.649225 
L 1032.593349 187.729292 
L 1032.797969 187.685018 
L 1033.207208 187.165326 
L 1034.025687 186.118892 
L 1034.230307 186.130757 
L 1034.434927 186.396796 
L 1035.662645 189.188603 
L 1036.071885 189.32109 
L 1036.276504 189.177559 
L 1036.685744 188.391061 
L 1037.094983 187.401065 
L 1037.299603 187.207412 
L 1037.504223 187.333973 
L 1038.322702 188.785981 
L 1038.527321 188.783805 
L 1039.55042 187.649225 
L 1039.959659 187.216436 
L 1040.368899 187.139132 
L 1041.187378 187.571122 
L 1041.801237 187.1184 
L 1042.005857 187.155836 
L 1042.210476 187.349456 
L 1042.619716 188.224301 
L 1043.028955 188.996193 
L 1043.233575 188.940343 
L 1044.052054 187.987629 
L 1046.507491 186.679939 
L 1047.32597 187.258589 
L 1049.167547 186.297706 
L 1050.395265 184.480667 
L 1051.009125 182.696948 
L 1051.213744 182.510054 
L 1051.418364 182.72394 
L 1051.827603 184.029898 
L 1052.236843 185.384081 
L 1052.441463 185.635492 
L 1052.646082 185.548167 
L 1053.259942 184.354251 
L 1053.669181 183.79942 
L 1054.07842 183.63236 
L 1054.28304 183.734935 
L 1054.69228 184.389579 
L 1055.510759 186.038192 
L 1055.919998 186.212444 
L 1056.329237 186.180024 
L 1056.533857 185.956083 
L 1057.352336 184.340467 
L 1057.556956 184.347759 
L 1057.761576 184.588204 
L 1058.170815 185.597878 
L 1058.989294 187.965553 
L 1059.193914 188.22217 
L 1059.398533 188.148041 
L 1061.444731 184.469335 
L 1061.85397 184.190699 
L 1062.467829 184.402598 
L 1062.672449 184.561944 
L 1063.081688 185.351073 
L 1064.104787 188.005631 
L 1064.309407 188.351771 
L 1064.514027 188.396122 
L 1064.923266 187.728737 
L 1065.332505 186.992472 
L 1065.741745 186.713302 
L 1066.150984 186.905546 
L 1066.764844 187.515483 
L 1066.969463 187.511932 
L 1067.787942 186.85852 
L 1068.197182 187.12972 
L 1068.606421 187.333695 
L 1069.015661 187.002539 
L 1069.834139 185.769977 
L 1070.447999 185.409608 
L 1071.061858 184.627772 
L 1071.880337 184.151375 
L 1072.289576 183.676422 
L 1072.494196 183.691816 
L 1072.698816 184.028045 
L 1073.517295 186.013153 
L 1073.926534 186.075629 
L 1075.154252 185.614793 
L 1075.563492 185.090982 
L 1076.381971 183.261047 
L 1076.58659 183.204876 
L 1077.609689 183.923127 
L 1078.428168 185.143402 
L 1079.246647 185.694705 
L 1079.655886 185.325634 
L 1080.065126 185.071304 
L 1080.474365 185.321994 
L 1081.906703 187.121541 
L 1082.315943 187.940669 
L 1082.725182 188.701862 
L 1082.929802 188.697611 
L 1083.134422 188.39075 
L 1083.952901 186.345442 
L 1084.15752 186.19897 
L 1084.56676 186.286995 
L 1084.975999 186.305852 
L 1085.385239 185.885061 
L 1085.999098 185.157986 
L 1086.408337 185.068574 
L 1086.817577 185.145322 
L 1087.431436 184.953279 
L 1087.840675 185.13671 
L 1088.249915 185.635015 
L 1088.659154 186.767454 
L 1089.068394 188.097186 
L 1089.477633 188.617056 
L 1089.886873 188.753106 
L 1090.091492 188.979622 
L 1090.500732 190.180796 
L 1090.909971 191.33228 
L 1091.114591 191.50277 
L 1091.319211 191.320638 
L 1091.72845 190.158765 
L 1092.342309 188.30752 
L 1092.751549 187.735884 
L 1093.365408 187.151008 
L 1093.570028 187.166258 
L 1093.979267 187.68887 
L 1094.388507 188.279962 
L 1094.593126 188.38802 
L 1094.797746 188.244689 
L 1095.206986 187.025236 
L 1095.616225 185.53204 
L 1095.820845 185.160339 
L 1096.025464 185.072725 
L 1096.434704 185.073158 
L 1097.253183 184.457227 
L 1097.662422 184.66179 
L 1098.071662 185.264635 
L 1098.480901 185.90767 
L 1098.685521 185.944995 
L 1098.890141 185.678878 
L 1099.913239 183.209804 
L 1100.322479 183.10876 
L 1101.140958 182.898093 
L 1101.959437 183.672682 
L 1102.164056 183.644546 
L 1102.573296 183.093199 
L 1103.391775 181.628228 
L 1103.801014 181.254496 
L 1104.210254 180.395511 
L 1104.619493 179.271519 
L 1105.028732 178.747264 
L 1105.437972 178.793136 
L 1105.847211 179.291175 
L 1106.256451 180.046041 
L 1106.461071 180.200504 
L 1106.66569 180.088184 
L 1107.07493 179.168044 
L 1107.688789 177.574826 
L 1107.893409 177.434769 
L 1108.098028 177.504814 
L 1108.916507 178.224064 
L 1109.121127 178.124141 
L 1109.530366 177.321583 
L 1109.939606 175.639584 
L 1110.962705 169.966248 
L 1113.008902 161.249928 
L 1113.622761 158.960688 
L 1114.032 156.370404 
L 1114.64586 150.483359 
L 1116.078198 135.598472 
L 1116.692057 130.111064 
L 1117.510536 119.846153 
L 1118.738254 103.099376 
L 1119.147494 94.316939 
L 1119.761353 75.103353 
L 1120.375212 47.504225 
L 1120.989071 8.030042 
L 1121.09809 -1 
M 1124.779499 -1 
L 1125.286085 46.700868 
L 1125.899945 81.088745 
L 1126.718424 108.889683 
L 1127.536902 129.67833 
L 1128.355381 145.319783 
L 1129.17386 156.790407 
L 1129.787719 163.311296 
L 1131.220057 173.16919 
L 1131.833917 176.155548 
L 1132.243156 177.126332 
L 1132.447776 177.304246 
L 1132.857015 177.272604 
L 1133.470874 177.082846 
L 1133.880114 177.198696 
L 1134.289353 177.858024 
L 1135.312452 180.789443 
L 1136.54017 185.144213 
L 1136.74479 185.277243 
L 1137.563269 185.173136 
L 1138.177128 185.705293 
L 1138.381748 185.640709 
L 1138.790987 185.307799 
L 1139.200227 185.214502 
L 1139.814086 184.332431 
L 1140.018706 184.427526 
L 1140.837185 186.272078 
L 1141.451044 186.398539 
L 1142.269523 187.249255 
L 1142.678762 187.149765 
L 1143.292621 186.766588 
L 1143.497241 186.848198 
L 1144.929579 188.716036 
L 1145.134199 188.844472 
L 1145.338819 188.82335 
L 1145.748058 188.359374 
L 1146.771157 186.919053 
L 1146.975776 187.020008 
L 1148.408115 188.948068 
L 1149.635833 191.16592 
L 1149.840453 191.357763 
L 1150.045072 191.376154 
L 1150.249692 191.201147 
L 1150.863551 190.204592 
L 1151.068171 190.16498 
L 1151.47741 190.421331 
L 1151.68203 190.354527 
L 1152.09127 189.813213 
L 1152.500509 188.969778 
L 1152.909749 188.094932 
L 1153.114368 188.024688 
L 1153.318988 188.264201 
L 1153.932847 189.720893 
L 1154.751326 191.773005 
L 1154.955946 191.966724 
L 1155.160566 191.947312 
L 1156.592904 190.477546 
L 1157.002143 190.241263 
L 1157.411383 189.312888 
L 1157.820622 188.267908 
L 1158.025242 188.087874 
L 1158.229861 188.243613 
L 1159.04834 189.887698 
L 1159.25296 189.931127 
L 1159.45758 189.617807 
L 1159.866819 188.029793 
L 1160.276059 186.241412 
L 1160.480678 185.789189 
L 1160.685298 185.694039 
L 1161.094538 186.123698 
L 1161.503777 186.5846 
L 1161.913017 186.611892 
L 1162.322256 186.622392 
L 1162.526876 186.86509 
L 1163.754594 189.376096 
L 1164.573073 190.670356 
L 1164.982312 190.881833 
L 1165.596172 190.54334 
L 1166.005411 190.394793 
L 1166.414651 190.404827 
L 1167.642369 189.883924 
L 1168.460848 189.301534 
L 1169.279327 187.736539 
L 1169.483946 188.051447 
L 1170.711665 191.863605 
L 1170.916284 192.10738 
L 1171.120904 192.153352 
L 1171.530144 191.765913 
L 1171.939383 191.040514 
L 1173.780961 186.935302 
L 1174.1902 186.376441 
L 1174.39482 186.482968 
L 1174.59944 186.95054 
L 1175.417918 190.01367 
L 1175.622538 190.029064 
L 1175.827158 189.545276 
L 1177.259496 184.324307 
L 1177.464116 183.890186 
L 1177.668735 183.723204 
L 1177.873355 183.920908 
L 1178.282595 185.133458 
L 1179.714933 190.097843 
L 1179.919552 190.345514 
L 1180.124172 190.229132 
L 1181.147271 188.487899 
L 1181.55651 188.255156 
L 1182.579609 188.24439 
L 1182.988848 187.560822 
L 1183.398088 186.735778 
L 1183.602708 186.602847 
L 1183.807327 186.771549 
L 1184.421186 188.31792 
L 1184.830426 189.232232 
L 1184.830426 189.232232 
" clip-path="url(#p7aacf6b630)" style="fill: none; stroke: #000000; stroke-width: 2; stroke-linecap: square"/>
   </g>
   <g id="patch_3">
    <path d="M 3.00024 198.907885 
L 1184.99976 198.907885 
" style="fill: none; stroke: #000000; stroke-width: 2; stroke-linejoin: miter; stroke-linecap: square"/>
   </g>
  </g>
 </g>
 <defs>
  <clipPath id="p7aacf6b630">
   <rect x="3.00024" y="3.00024" width="1181.99952" height="195.907645"/>
  </clipPath>
 </defs>
</svg>
