<?xml version="1.0" encoding="utf-8" standalone="no"?>
<!DOCTYPE svg PUBLIC "-//W3C//DTD SVG 1.1//EN"
  "http://www.w3.org/Graphics/SVG/1.1/DTD/svg11.dtd">
<svg xmlns:xlink="http://www.w3.org/1999/xlink" width="1188pt" height="252pt" viewBox="0 0 1188 252" xmlns="http://www.w3.org/2000/svg" version="1.1">
 <metadata>
  <rdf:RDF xmlns:dc="http://purl.org/dc/elements/1.1/" xmlns:cc="http://creativecommons.org/ns#" xmlns:rdf="http://www.w3.org/1999/02/22-rdf-syntax-ns#">
   <cc:Work>
    <dc:type rdf:resource="http://purl.org/dc/dcmitype/StillImage"/>
    <dc:date>2024-07-23T21:41:38.596704</dc:date>
    <dc:format>image/svg+xml</dc:format>
    <dc:creator>
     <cc:Agent>
      <dc:title>Matplotlib v3.8.4, https://matplotlib.org/</dc:title>
     </cc:Agent>
    </dc:creator>
   </cc:Work>
  </rdf:RDF>
 </metadata>
 <defs>
  <style type="text/css">*{stroke-linejoin: round; stroke-linecap: butt}</style>
 </defs>
 <g id="figure_1">
  <g id="patch_1">
   <path d="M 0 252 
L 1188 252 
L 1188 0 
L 0 0 
z
" style="fill: #ffffff"/>
  </g>
  <g id="axes_1">
   <g id="patch_2">
    <path d="M 3.00024 198.907885 
L 1184.99976 198.907885 
L 1184.99976 3.00024 
L 3.00024 3.00024 
z
" style="fill: #ffffff"/>
   </g>
   <g id="matplotlib.axis_1">
    <g id="xtick_1">
     <g id="line2d_1">
      <defs>
       <path id="m4ec8cc2c24" d="M 0 0 
L 0 8 
" style="stroke: #000000; stroke-width: 2"/>
      </defs>
      <g>
       <use xlink:href="#m4ec8cc2c24" x="1131.272509" y="198.907885" style="stroke: #000000; stroke-width: 2"/>
      </g>
     </g>
     <g id="text_1">
      <!-- 0 -->
      <g transform="translate(1126.267665 224.791947) scale(0.18 -0.18)">
       <defs>
        <path id="Arial-BoldMT-30" d="M 1756 4600 
Q 2422 4600 2797 4125 
Q 3244 3563 3244 2259 
Q 3244 959 2794 391 
Q 2422 -78 1756 -78 
Q 1088 -78 678 436 
Q 269 950 269 2269 
Q 269 3563 719 4131 
Q 1091 4600 1756 4600 
z
M 1756 3872 
Q 1597 3872 1472 3770 
Q 1347 3669 1278 3406 
Q 1188 3066 1188 2259 
Q 1188 1453 1269 1151 
Q 1350 850 1473 750 
Q 1597 650 1756 650 
Q 1916 650 2041 751 
Q 2166 853 2234 1116 
Q 2325 1453 2325 2259 
Q 2325 3066 2244 3367 
Q 2163 3669 2039 3770 
Q 1916 3872 1756 3872 
z
" transform="scale(0.015625)"/>
       </defs>
       <use xlink:href="#Arial-BoldMT-30"/>
      </g>
     </g>
    </g>
    <g id="xtick_2">
     <g id="line2d_2">
      <g>
       <use xlink:href="#m4ec8cc2c24" x="1023.818007" y="198.907885" style="stroke: #000000; stroke-width: 2"/>
      </g>
     </g>
     <g id="text_2">
      <!-- 1 -->
      <g transform="translate(1018.813164 224.791947) scale(0.18 -0.18)">
       <defs>
        <path id="Arial-BoldMT-31" d="M 2519 0 
L 1641 0 
L 1641 3309 
Q 1159 2859 506 2644 
L 506 3441 
Q 850 3553 1253 3867 
Q 1656 4181 1806 4600 
L 2519 4600 
L 2519 0 
z
" transform="scale(0.015625)"/>
       </defs>
       <use xlink:href="#Arial-BoldMT-31"/>
      </g>
     </g>
    </g>
    <g id="xtick_3">
     <g id="line2d_3">
      <g>
       <use xlink:href="#m4ec8cc2c24" x="916.363505" y="198.907885" style="stroke: #000000; stroke-width: 2"/>
      </g>
     </g>
     <g id="text_3">
      <!-- 2 -->
      <g transform="translate(911.358662 224.791947) scale(0.18 -0.18)">
       <defs>
        <path id="Arial-BoldMT-32" d="M 3238 816 
L 3238 0 
L 159 0 
Q 209 463 459 877 
Q 709 1291 1447 1975 
Q 2041 2528 2175 2725 
Q 2356 2997 2356 3263 
Q 2356 3556 2198 3714 
Q 2041 3872 1763 3872 
Q 1488 3872 1325 3706 
Q 1163 3541 1138 3156 
L 263 3244 
Q 341 3969 753 4284 
Q 1166 4600 1784 4600 
Q 2463 4600 2850 4234 
Q 3238 3869 3238 3325 
Q 3238 3016 3127 2736 
Q 3016 2456 2775 2150 
Q 2616 1947 2200 1565 
Q 1784 1184 1673 1059 
Q 1563 934 1494 816 
L 3238 816 
z
" transform="scale(0.015625)"/>
       </defs>
       <use xlink:href="#Arial-BoldMT-32"/>
      </g>
     </g>
    </g>
    <g id="xtick_4">
     <g id="line2d_4">
      <g>
       <use xlink:href="#m4ec8cc2c24" x="808.909004" y="198.907885" style="stroke: #000000; stroke-width: 2"/>
      </g>
     </g>
     <g id="text_4">
      <!-- 3 -->
      <g transform="translate(803.90416 224.791947) scale(0.18 -0.18)">
       <defs>
        <path id="Arial-BoldMT-33" d="M 241 1216 
L 1091 1319 
Q 1131 994 1309 822 
Q 1488 650 1741 650 
Q 2013 650 2198 856 
Q 2384 1063 2384 1413 
Q 2384 1744 2206 1937 
Q 2028 2131 1772 2131 
Q 1603 2131 1369 2066 
L 1466 2781 
Q 1822 2772 2009 2936 
Q 2197 3100 2197 3372 
Q 2197 3603 2059 3740 
Q 1922 3878 1694 3878 
Q 1469 3878 1309 3722 
Q 1150 3566 1116 3266 
L 306 3403 
Q 391 3819 561 4067 
Q 731 4316 1036 4458 
Q 1341 4600 1719 4600 
Q 2366 4600 2756 4188 
Q 3078 3850 3078 3425 
Q 3078 2822 2419 2463 
Q 2813 2378 3048 2084 
Q 3284 1791 3284 1375 
Q 3284 772 2843 347 
Q 2403 -78 1747 -78 
Q 1125 -78 715 280 
Q 306 638 241 1216 
z
" transform="scale(0.015625)"/>
       </defs>
       <use xlink:href="#Arial-BoldMT-33"/>
      </g>
     </g>
    </g>
    <g id="xtick_5">
     <g id="line2d_5">
      <g>
       <use xlink:href="#m4ec8cc2c24" x="701.454502" y="198.907885" style="stroke: #000000; stroke-width: 2"/>
      </g>
     </g>
     <g id="text_5">
      <!-- 4 -->
      <g transform="translate(696.449658 224.791947) scale(0.18 -0.18)">
       <defs>
        <path id="Arial-BoldMT-34" d="M 1994 0 
L 1994 922 
L 119 922 
L 119 1691 
L 2106 4600 
L 2844 4600 
L 2844 1694 
L 3413 1694 
L 3413 922 
L 2844 922 
L 2844 0 
L 1994 0 
z
M 1994 1694 
L 1994 3259 
L 941 1694 
L 1994 1694 
z
" transform="scale(0.015625)"/>
       </defs>
       <use xlink:href="#Arial-BoldMT-34"/>
      </g>
     </g>
    </g>
    <g id="xtick_6">
     <g id="line2d_6">
      <g>
       <use xlink:href="#m4ec8cc2c24" x="594" y="198.907885" style="stroke: #000000; stroke-width: 2"/>
      </g>
     </g>
     <g id="text_6">
      <!-- 5 -->
      <g transform="translate(588.995156 224.791947) scale(0.18 -0.18)">
       <defs>
        <path id="Arial-BoldMT-35" d="M 284 1178 
L 1159 1269 
Q 1197 972 1381 798 
Q 1566 625 1806 625 
Q 2081 625 2272 848 
Q 2463 1072 2463 1522 
Q 2463 1944 2273 2155 
Q 2084 2366 1781 2366 
Q 1403 2366 1103 2031 
L 391 2134 
L 841 4519 
L 3163 4519 
L 3163 3697 
L 1506 3697 
L 1369 2919 
Q 1663 3066 1969 3066 
Q 2553 3066 2959 2641 
Q 3366 2216 3366 1538 
Q 3366 972 3038 528 
Q 2591 -78 1797 -78 
Q 1163 -78 763 262 
Q 363 603 284 1178 
z
" transform="scale(0.015625)"/>
       </defs>
       <use xlink:href="#Arial-BoldMT-35"/>
      </g>
     </g>
    </g>
    <g id="xtick_7">
     <g id="line2d_7">
      <g>
       <use xlink:href="#m4ec8cc2c24" x="486.545498" y="198.907885" style="stroke: #000000; stroke-width: 2"/>
      </g>
     </g>
     <g id="text_7">
      <!-- 6 -->
      <g transform="translate(481.540654 224.791947) scale(0.18 -0.18)">
       <defs>
        <path id="Arial-BoldMT-36" d="M 3247 3459 
L 2397 3366 
Q 2366 3628 2234 3753 
Q 2103 3878 1894 3878 
Q 1616 3878 1423 3628 
Q 1231 3378 1181 2588 
Q 1509 2975 1997 2975 
Q 2547 2975 2939 2556 
Q 3331 2138 3331 1475 
Q 3331 772 2918 347 
Q 2506 -78 1859 -78 
Q 1166 -78 719 461 
Q 272 1000 272 2228 
Q 272 3488 737 4044 
Q 1203 4600 1947 4600 
Q 2469 4600 2811 4308 
Q 3153 4016 3247 3459 
z
M 1256 1544 
Q 1256 1116 1453 883 
Q 1650 650 1903 650 
Q 2147 650 2309 840 
Q 2472 1031 2472 1466 
Q 2472 1913 2297 2120 
Q 2122 2328 1859 2328 
Q 1606 2328 1431 2129 
Q 1256 1931 1256 1544 
z
" transform="scale(0.015625)"/>
       </defs>
       <use xlink:href="#Arial-BoldMT-36"/>
      </g>
     </g>
    </g>
    <g id="xtick_8">
     <g id="line2d_8">
      <g>
       <use xlink:href="#m4ec8cc2c24" x="379.090996" y="198.907885" style="stroke: #000000; stroke-width: 2"/>
      </g>
     </g>
     <g id="text_8">
      <!-- 7 -->
      <g transform="translate(374.086153 224.791947) scale(0.18 -0.18)">
       <defs>
        <path id="Arial-BoldMT-37" d="M 272 3703 
L 272 4519 
L 3275 4519 
L 3275 3881 
Q 2903 3516 2518 2831 
Q 2134 2147 1932 1376 
Q 1731 606 1734 0 
L 888 0 
Q 909 950 1279 1937 
Q 1650 2925 2269 3703 
L 272 3703 
z
" transform="scale(0.015625)"/>
       </defs>
       <use xlink:href="#Arial-BoldMT-37"/>
      </g>
     </g>
    </g>
    <g id="xtick_9">
     <g id="line2d_9">
      <g>
       <use xlink:href="#m4ec8cc2c24" x="271.636495" y="198.907885" style="stroke: #000000; stroke-width: 2"/>
      </g>
     </g>
     <g id="text_9">
      <!-- 8 -->
      <g transform="translate(266.631651 224.791947) scale(0.18 -0.18)">
       <defs>
        <path id="Arial-BoldMT-38" d="M 1025 2472 
Q 684 2616 529 2867 
Q 375 3119 375 3419 
Q 375 3931 733 4265 
Q 1091 4600 1750 4600 
Q 2403 4600 2764 4265 
Q 3125 3931 3125 3419 
Q 3125 3100 2959 2851 
Q 2794 2603 2494 2472 
Q 2875 2319 3073 2025 
Q 3272 1731 3272 1347 
Q 3272 713 2867 316 
Q 2463 -81 1791 -81 
Q 1166 -81 750 247 
Q 259 634 259 1309 
Q 259 1681 443 1992 
Q 628 2303 1025 2472 
z
M 1206 3356 
Q 1206 3094 1354 2947 
Q 1503 2800 1750 2800 
Q 2000 2800 2150 2948 
Q 2300 3097 2300 3359 
Q 2300 3606 2151 3754 
Q 2003 3903 1759 3903 
Q 1506 3903 1356 3753 
Q 1206 3603 1206 3356 
z
M 1125 1394 
Q 1125 1031 1311 828 
Q 1497 625 1775 625 
Q 2047 625 2225 820 
Q 2403 1016 2403 1384 
Q 2403 1706 2222 1901 
Q 2041 2097 1763 2097 
Q 1441 2097 1283 1875 
Q 1125 1653 1125 1394 
z
" transform="scale(0.015625)"/>
       </defs>
       <use xlink:href="#Arial-BoldMT-38"/>
      </g>
     </g>
    </g>
    <g id="xtick_10">
     <g id="line2d_10">
      <g>
       <use xlink:href="#m4ec8cc2c24" x="164.181993" y="198.907885" style="stroke: #000000; stroke-width: 2"/>
      </g>
     </g>
     <g id="text_10">
      <!-- 9 -->
      <g transform="translate(159.177149 224.791947) scale(0.18 -0.18)">
       <defs>
        <path id="Arial-BoldMT-39" d="M 291 1059 
L 1141 1153 
Q 1172 894 1303 769 
Q 1434 644 1650 644 
Q 1922 644 2112 894 
Q 2303 1144 2356 1931 
Q 2025 1547 1528 1547 
Q 988 1547 595 1964 
Q 203 2381 203 3050 
Q 203 3747 617 4173 
Q 1031 4600 1672 4600 
Q 2369 4600 2816 4061 
Q 3263 3522 3263 2288 
Q 3263 1031 2797 475 
Q 2331 -81 1584 -81 
Q 1047 -81 715 205 
Q 384 491 291 1059 
z
M 2278 2978 
Q 2278 3403 2083 3637 
Q 1888 3872 1631 3872 
Q 1388 3872 1227 3680 
Q 1066 3488 1066 3050 
Q 1066 2606 1241 2398 
Q 1416 2191 1678 2191 
Q 1931 2191 2104 2391 
Q 2278 2591 2278 2978 
z
" transform="scale(0.015625)"/>
       </defs>
       <use xlink:href="#Arial-BoldMT-39"/>
      </g>
     </g>
    </g>
    <g id="xtick_11">
     <g id="line2d_11">
      <g>
       <use xlink:href="#m4ec8cc2c24" x="56.727491" y="198.907885" style="stroke: #000000; stroke-width: 2"/>
      </g>
     </g>
     <g id="text_11">
      <!-- 10 -->
      <g transform="translate(46.717803 224.791947) scale(0.18 -0.18)">
       <use xlink:href="#Arial-BoldMT-31"/>
       <use xlink:href="#Arial-BoldMT-30" x="55.615234"/>
      </g>
     </g>
    </g>
    <g id="text_12">
     <!-- Chemical Shift / ppm -->
     <g transform="translate(504.992813 245.447573) scale(0.18 -0.18)">
      <defs>
       <path id="Arial-BoldMT-43" d="M 3397 1684 
L 4294 1400 
Q 4088 650 3608 286 
Q 3128 -78 2391 -78 
Q 1478 -78 890 545 
Q 303 1169 303 2250 
Q 303 3394 893 4026 
Q 1484 4659 2447 4659 
Q 3288 4659 3813 4163 
Q 4125 3869 4281 3319 
L 3366 3100 
Q 3284 3456 3026 3662 
Q 2769 3869 2400 3869 
Q 1891 3869 1573 3503 
Q 1256 3138 1256 2319 
Q 1256 1450 1568 1081 
Q 1881 713 2381 713 
Q 2750 713 3015 947 
Q 3281 1181 3397 1684 
z
" transform="scale(0.015625)"/>
       <path id="Arial-BoldMT-68" d="M 1334 4581 
L 1334 2897 
Q 1759 3394 2350 3394 
Q 2653 3394 2897 3281 
Q 3141 3169 3264 2994 
Q 3388 2819 3433 2606 
Q 3478 2394 3478 1947 
L 3478 0 
L 2600 0 
L 2600 1753 
Q 2600 2275 2550 2415 
Q 2500 2556 2373 2639 
Q 2247 2722 2056 2722 
Q 1838 2722 1666 2615 
Q 1494 2509 1414 2295 
Q 1334 2081 1334 1663 
L 1334 0 
L 456 0 
L 456 4581 
L 1334 4581 
z
" transform="scale(0.015625)"/>
       <path id="Arial-BoldMT-65" d="M 2381 1056 
L 3256 909 
Q 3088 428 2723 176 
Q 2359 -75 1813 -75 
Q 947 -75 531 491 
Q 203 944 203 1634 
Q 203 2459 634 2926 
Q 1066 3394 1725 3394 
Q 2466 3394 2894 2905 
Q 3322 2416 3303 1406 
L 1103 1406 
Q 1113 1016 1316 798 
Q 1519 581 1822 581 
Q 2028 581 2168 693 
Q 2309 806 2381 1056 
z
M 2431 1944 
Q 2422 2325 2234 2523 
Q 2047 2722 1778 2722 
Q 1491 2722 1303 2513 
Q 1116 2303 1119 1944 
L 2431 1944 
z
" transform="scale(0.015625)"/>
       <path id="Arial-BoldMT-6d" d="M 394 3319 
L 1203 3319 
L 1203 2866 
Q 1638 3394 2238 3394 
Q 2556 3394 2790 3262 
Q 3025 3131 3175 2866 
Q 3394 3131 3647 3262 
Q 3900 3394 4188 3394 
Q 4553 3394 4806 3245 
Q 5059 3097 5184 2809 
Q 5275 2597 5275 2122 
L 5275 0 
L 4397 0 
L 4397 1897 
Q 4397 2391 4306 2534 
Q 4184 2722 3931 2722 
Q 3747 2722 3584 2609 
Q 3422 2497 3350 2280 
Q 3278 2063 3278 1594 
L 3278 0 
L 2400 0 
L 2400 1819 
Q 2400 2303 2353 2443 
Q 2306 2584 2207 2653 
Q 2109 2722 1941 2722 
Q 1738 2722 1575 2612 
Q 1413 2503 1342 2297 
Q 1272 2091 1272 1613 
L 1272 0 
L 394 0 
L 394 3319 
z
" transform="scale(0.015625)"/>
       <path id="Arial-BoldMT-69" d="M 459 3769 
L 459 4581 
L 1338 4581 
L 1338 3769 
L 459 3769 
z
M 459 0 
L 459 3319 
L 1338 3319 
L 1338 0 
L 459 0 
z
" transform="scale(0.015625)"/>
       <path id="Arial-BoldMT-63" d="M 3353 2338 
L 2488 2181 
Q 2444 2441 2289 2572 
Q 2134 2703 1888 2703 
Q 1559 2703 1364 2476 
Q 1169 2250 1169 1719 
Q 1169 1128 1367 884 
Q 1566 641 1900 641 
Q 2150 641 2309 783 
Q 2469 925 2534 1272 
L 3397 1125 
Q 3263 531 2881 228 
Q 2500 -75 1859 -75 
Q 1131 -75 698 384 
Q 266 844 266 1656 
Q 266 2478 700 2936 
Q 1134 3394 1875 3394 
Q 2481 3394 2839 3133 
Q 3197 2872 3353 2338 
z
" transform="scale(0.015625)"/>
       <path id="Arial-BoldMT-61" d="M 1116 2306 
L 319 2450 
Q 453 2931 781 3162 
Q 1109 3394 1756 3394 
Q 2344 3394 2631 3255 
Q 2919 3116 3036 2902 
Q 3153 2688 3153 2116 
L 3144 1091 
Q 3144 653 3186 445 
Q 3228 238 3344 0 
L 2475 0 
Q 2441 88 2391 259 
Q 2369 338 2359 363 
Q 2134 144 1878 34 
Q 1622 -75 1331 -75 
Q 819 -75 523 203 
Q 228 481 228 906 
Q 228 1188 362 1408 
Q 497 1628 739 1745 
Q 981 1863 1438 1950 
Q 2053 2066 2291 2166 
L 2291 2253 
Q 2291 2506 2166 2614 
Q 2041 2722 1694 2722 
Q 1459 2722 1328 2630 
Q 1197 2538 1116 2306 
z
M 2291 1594 
Q 2122 1538 1756 1459 
Q 1391 1381 1278 1306 
Q 1106 1184 1106 997 
Q 1106 813 1243 678 
Q 1381 544 1594 544 
Q 1831 544 2047 700 
Q 2206 819 2256 991 
Q 2291 1103 2291 1419 
L 2291 1594 
z
" transform="scale(0.015625)"/>
       <path id="Arial-BoldMT-6c" d="M 459 0 
L 459 4581 
L 1338 4581 
L 1338 0 
L 459 0 
z
" transform="scale(0.015625)"/>
       <path id="Arial-BoldMT-20" transform="scale(0.015625)"/>
       <path id="Arial-BoldMT-53" d="M 231 1491 
L 1131 1578 
Q 1213 1125 1461 912 
Q 1709 700 2131 700 
Q 2578 700 2804 889 
Q 3031 1078 3031 1331 
Q 3031 1494 2936 1608 
Q 2841 1722 2603 1806 
Q 2441 1863 1863 2006 
Q 1119 2191 819 2459 
Q 397 2838 397 3381 
Q 397 3731 595 4036 
Q 794 4341 1167 4500 
Q 1541 4659 2069 4659 
Q 2931 4659 3367 4281 
Q 3803 3903 3825 3272 
L 2900 3231 
Q 2841 3584 2645 3739 
Q 2450 3894 2059 3894 
Q 1656 3894 1428 3728 
Q 1281 3622 1281 3444 
Q 1281 3281 1419 3166 
Q 1594 3019 2269 2859 
Q 2944 2700 3267 2529 
Q 3591 2359 3773 2064 
Q 3956 1769 3956 1334 
Q 3956 941 3737 597 
Q 3519 253 3119 86 
Q 2719 -81 2122 -81 
Q 1253 -81 787 320 
Q 322 722 231 1491 
z
" transform="scale(0.015625)"/>
       <path id="Arial-BoldMT-66" d="M 75 3319 
L 563 3319 
L 563 3569 
Q 563 3988 652 4194 
Q 741 4400 980 4529 
Q 1219 4659 1584 4659 
Q 1959 4659 2319 4547 
L 2200 3934 
Q 1991 3984 1797 3984 
Q 1606 3984 1523 3895 
Q 1441 3806 1441 3553 
L 1441 3319 
L 2097 3319 
L 2097 2628 
L 1441 2628 
L 1441 0 
L 563 0 
L 563 2628 
L 75 2628 
L 75 3319 
z
" transform="scale(0.015625)"/>
       <path id="Arial-BoldMT-74" d="M 1981 3319 
L 1981 2619 
L 1381 2619 
L 1381 1281 
Q 1381 875 1398 808 
Q 1416 741 1477 697 
Q 1538 653 1625 653 
Q 1747 653 1978 738 
L 2053 56 
Q 1747 -75 1359 -75 
Q 1122 -75 931 4 
Q 741 84 652 211 
Q 563 338 528 553 
Q 500 706 500 1172 
L 500 2619 
L 97 2619 
L 97 3319 
L 500 3319 
L 500 3978 
L 1381 4491 
L 1381 3319 
L 1981 3319 
z
" transform="scale(0.015625)"/>
       <path id="Arial-BoldMT-2f" d="M -9 -78 
L 1125 4659 
L 1784 4659 
L 638 -78 
L -9 -78 
z
" transform="scale(0.015625)"/>
       <path id="Arial-BoldMT-70" d="M 434 3319 
L 1253 3319 
L 1253 2831 
Q 1413 3081 1684 3237 
Q 1956 3394 2288 3394 
Q 2866 3394 3269 2941 
Q 3672 2488 3672 1678 
Q 3672 847 3265 386 
Q 2859 -75 2281 -75 
Q 2006 -75 1782 34 
Q 1559 144 1313 409 
L 1313 -1263 
L 434 -1263 
L 434 3319 
z
M 1303 1716 
Q 1303 1156 1525 889 
Q 1747 622 2066 622 
Q 2372 622 2575 867 
Q 2778 1113 2778 1672 
Q 2778 2194 2568 2447 
Q 2359 2700 2050 2700 
Q 1728 2700 1515 2451 
Q 1303 2203 1303 1716 
z
" transform="scale(0.015625)"/>
      </defs>
      <use xlink:href="#Arial-BoldMT-43"/>
      <use xlink:href="#Arial-BoldMT-68" x="72.216797"/>
      <use xlink:href="#Arial-BoldMT-65" x="133.300781"/>
      <use xlink:href="#Arial-BoldMT-6d" x="188.916016"/>
      <use xlink:href="#Arial-BoldMT-69" x="277.832031"/>
      <use xlink:href="#Arial-BoldMT-63" x="305.615234"/>
      <use xlink:href="#Arial-BoldMT-61" x="361.230469"/>
      <use xlink:href="#Arial-BoldMT-6c" x="416.845703"/>
      <use xlink:href="#Arial-BoldMT-20" x="444.628906"/>
      <use xlink:href="#Arial-BoldMT-53" x="472.412109"/>
      <use xlink:href="#Arial-BoldMT-68" x="539.111328"/>
      <use xlink:href="#Arial-BoldMT-69" x="600.195312"/>
      <use xlink:href="#Arial-BoldMT-66" x="627.978516"/>
      <use xlink:href="#Arial-BoldMT-74" x="661.279297"/>
      <use xlink:href="#Arial-BoldMT-20" x="694.580078"/>
      <use xlink:href="#Arial-BoldMT-2f" x="722.363281"/>
      <use xlink:href="#Arial-BoldMT-20" x="750.146484"/>
      <use xlink:href="#Arial-BoldMT-70" x="777.929688"/>
      <use xlink:href="#Arial-BoldMT-70" x="839.013672"/>
      <use xlink:href="#Arial-BoldMT-6d" x="900.097656"/>
     </g>
    </g>
   </g>
   <g id="matplotlib.axis_2"/>
   <g id="line2d_12">
    <path d="M 2.942238 173.540301 
L 3.760717 174.171491 
L 4.374576 174.222864 
L 4.783816 174.397126 
L 6.011534 175.359187 
L 6.420774 175.478681 
L 7.648492 175.193751 
L 9.08083 173.701437 
L 9.490069 173.589185 
L 9.899309 173.906704 
L 10.717788 174.798607 
L 11.127027 174.751081 
L 11.536267 174.653087 
L 12.354746 174.920364 
L 12.763985 174.553962 
L 13.173225 174.227391 
L 13.582464 174.37721 
L 14.196323 174.798607 
L 15.014802 175.607001 
L 16.037901 176.281643 
L 16.44714 176.108286 
L 17.060999 175.441113 
L 17.674859 174.628193 
L 18.084098 174.511867 
L 18.493337 174.408668 
L 19.107197 173.934314 
L 19.311816 173.911909 
L 19.721056 174.190954 
L 20.334915 174.852017 
L 20.744154 174.981016 
L 21.562633 174.906785 
L 22.176493 175.421876 
L 22.585732 175.240372 
L 23.199591 174.553056 
L 23.81345 173.879999 
L 24.01807 173.890635 
L 24.631929 174.252059 
L 25.245788 174.387847 
L 25.655028 174.792723 
L 26.678127 176.206959 
L 27.087366 176.343427 
L 27.291986 176.276211 
L 27.701225 175.758179 
L 29.133563 173.372376 
L 29.542803 172.932648 
L 30.770521 172.31549 
L 31.17976 172.443357 
L 31.589 172.678497 
L 32.202859 172.865433 
L 32.612099 173.492775 
L 33.430577 175.472344 
L 33.839817 175.798463 
L 34.044437 175.747089 
L 34.658296 175.073579 
L 35.476775 174.268127 
L 35.886014 174.305016 
L 37.522972 175.448807 
L 37.727592 175.29944 
L 38.136831 174.479278 
L 38.75069 173.17933 
L 39.15993 172.687097 
L 39.36455 172.579825 
L 39.569169 172.62735 
L 41.206127 174.098618 
L 42.229226 175.680779 
L 42.638465 175.871562 
L 43.047705 176.047182 
L 44.070803 177.245967 
L 44.275423 177.0966 
L 45.503141 175.492486 
L 45.912381 175.452655 
L 46.32162 175.509007 
L 46.52624 175.411239 
L 46.935479 174.813997 
L 47.753958 173.185215 
L 48.163198 172.974969 
L 48.572437 172.937401 
L 48.981677 172.696603 
L 49.800156 171.970814 
L 50.004775 172.018792 
L 50.414015 172.647945 
L 51.027874 173.796941 
L 51.437113 174.071913 
L 52.255592 174.4184 
L 52.460212 174.341227 
L 52.869452 173.686274 
L 53.278691 173.063458 
L 53.483311 173.01729 
L 53.89255 173.250846 
L 54.711029 173.828852 
L 55.529508 174.381058 
L 55.734128 174.355258 
L 56.552607 173.550938 
L 56.961846 173.087673 
L 57.575705 172.179928 
L 57.984945 172.231754 
L 58.394184 172.511025 
L 59.417283 173.479875 
L 60.031142 173.91304 
L 60.645001 174.016919 
L 60.849621 173.948798 
L 61.25886 173.44887 
L 61.6681 172.842349 
L 62.077339 172.587519 
L 62.486579 172.393794 
L 63.100438 171.743368 
L 63.918917 170.797375 
L 64.328156 169.738452 
L 65.965114 163.92105 
L 66.374354 160.460482 
L 67.192832 152.426335 
L 67.602072 150.350809 
L 67.806692 150.186505 
L 68.011311 150.665159 
L 68.420551 153.152124 
L 70.057509 165.709157 
L 70.671368 168.585608 
L 72.103706 173.183404 
L 72.512945 173.77001 
L 73.126804 173.94744 
L 73.536044 173.972335 
L 74.354523 173.511333 
L 74.968382 173.537812 
L 75.377621 173.60548 
L 76.1961 173.207167 
L 76.60534 172.999863 
L 77.833058 171.599885 
L 78.037678 171.608711 
L 79.060777 172.206406 
L 79.470016 172.879238 
L 80.697734 175.138078 
L 80.902354 175.325693 
L 81.106974 175.360319 
L 81.516213 175.130384 
L 82.130072 174.791591 
L 82.539312 174.577046 
L 83.357791 173.716826 
L 83.97165 172.907075 
L 84.17627 172.871091 
L 84.585509 173.35925 
L 85.199368 174.342358 
L 86.017847 175.31234 
L 86.427087 175.79982 
L 86.836326 175.948282 
L 87.450185 175.731474 
L 87.859425 175.447676 
L 89.087143 174.136639 
L 89.496383 174.235312 
L 90.928721 175.254177 
L 91.13334 175.221588 
L 91.54258 174.670966 
L 92.156439 173.795583 
L 92.565679 173.666132 
L 93.179538 173.747831 
L 94.202636 172.870638 
L 94.611876 172.848233 
L 95.225735 172.44562 
L 96.044214 171.934377 
L 96.248834 172.008382 
L 96.658073 172.682345 
L 97.476552 174.375174 
L 97.885791 175.285861 
L 98.499651 176.844939 
L 98.70427 177.033684 
L 99.11351 176.935464 
L 99.522749 176.816649 
L 100.750468 177.041379 
L 101.568947 177.966551 
L 101.773566 177.886436 
L 102.182806 177.133036 
L 103.205904 174.527483 
L 103.615144 173.836773 
L 104.024383 173.626753 
L 104.433623 173.546185 
L 104.638242 173.622227 
L 105.252102 174.171038 
L 105.456721 174.071687 
L 106.2752 173.249261 
L 106.68444 173.15172 
L 106.889059 173.340692 
L 107.502919 174.24459 
L 108.730637 174.546041 
L 109.139876 174.380153 
L 109.958355 173.382334 
L 110.572214 172.117691 
L 111.186074 170.889485 
L 111.390693 170.843543 
L 111.595313 171.038626 
L 112.823031 172.944869 
L 114.05075 174.593114 
L 115.073848 174.899996 
L 116.096947 176.057818 
L 116.506187 176.066871 
L 116.915426 175.775605 
L 117.733905 174.896149 
L 118.143144 174.886417 
L 118.552384 175.004779 
L 118.961623 174.856996 
L 119.575482 174.473847 
L 119.984722 174.487878 
L 120.393961 174.092734 
L 120.803201 173.760731 
L 121.007821 173.844694 
L 121.41706 174.458005 
L 122.030919 175.324787 
L 122.644778 176.047182 
L 123.463257 177.1267 
L 123.667877 177.156799 
L 123.872497 177.0235 
L 124.281736 176.214654 
L 124.895595 174.59153 
L 125.100215 174.284648 
L 125.304835 174.185749 
L 125.509455 174.305016 
L 126.532553 175.638911 
L 127.555652 176.248148 
L 127.964891 176.744455 
L 128.374131 177.355277 
L 128.57875 177.415703 
L 128.78337 177.215415 
L 129.397229 176.11915 
L 129.601849 175.989019 
L 130.215708 176.03745 
L 131.034187 175.568754 
L 131.443427 175.45537 
L 131.852666 174.811507 
L 132.261906 174.143654 
L 132.875765 173.773631 
L 133.694244 173.204451 
L 134.103483 173.344766 
L 134.512723 173.903083 
L 135.126582 175.067016 
L 135.535821 175.309851 
L 136.3543 175.671727 
L 137.786638 174.956348 
L 138.195878 175.012474 
L 139.218976 175.948735 
L 139.832835 175.934704 
L 140.242075 175.726495 
L 140.855934 175.024921 
L 141.060554 174.99369 
L 141.879033 175.332482 
L 142.288272 175.198051 
L 142.697512 174.873517 
L 143.311371 174.164023 
L 143.515991 174.185523 
L 143.92523 174.849075 
L 144.334469 175.503123 
L 144.539089 175.552007 
L 144.743709 175.402187 
L 145.357568 174.359784 
L 145.971427 173.283887 
L 146.176047 173.176615 
L 146.380667 173.285019 
L 146.789906 173.986592 
L 147.608385 175.658148 
L 148.017624 175.830373 
L 148.836103 175.781715 
L 149.449963 176.009387 
L 149.859202 175.748673 
L 150.882301 174.85428 
L 151.29154 174.581119 
L 151.905399 174.09296 
L 152.110019 174.268353 
L 152.928498 175.896457 
L 153.133118 175.722647 
L 153.746977 174.789102 
L 154.156216 174.786386 
L 154.565456 174.78186 
L 155.793174 174.509152 
L 156.202414 174.914933 
L 156.816273 175.65249 
L 157.839371 176.417658 
L 158.248611 176.174144 
L 158.86247 175.326145 
L 159.271709 174.819202 
L 159.476329 174.831423 
L 159.885569 175.439529 
L 160.294808 176.010519 
L 160.704048 176.071397 
L 162.136386 175.775379 
L 163.159484 174.993916 
L 163.568724 175.390418 
L 163.977963 175.765647 
L 165.001062 175.765194 
L 165.410301 175.676479 
L 165.819541 175.202351 
L 166.22878 174.618235 
L 166.4334 174.567541 
L 166.63802 174.779371 
L 167.251879 176.017308 
L 167.456499 176.135444 
L 167.865738 175.864094 
L 168.684217 174.983279 
L 168.888837 174.938469 
L 169.298076 175.229962 
L 169.707316 175.554043 
L 169.911935 175.485018 
L 170.935034 174.568672 
L 171.344273 174.651956 
L 172.776611 175.466007 
L 174.00433 175.21593 
L 174.618189 175.219325 
L 175.027428 174.792044 
L 175.641288 173.889277 
L 175.845907 173.966451 
L 176.255147 174.707403 
L 176.869006 175.931761 
L 177.073626 176.104439 
L 177.482865 176.048087 
L 178.096724 175.812494 
L 178.505964 175.950772 
L 179.324443 176.531267 
L 179.529062 176.320569 
L 180.552161 174.487652 
L 180.961401 174.400521 
L 181.984499 174.750402 
L 182.598358 174.579535 
L 183.212218 174.73026 
L 183.826077 174.610088 
L 184.235316 174.904748 
L 184.849175 175.575996 
L 185.258415 175.603832 
L 185.667654 175.357829 
L 186.281513 174.875554 
L 186.690753 174.927154 
L 187.099992 175.208236 
L 187.918471 176.17007 
L 188.327711 175.94353 
L 188.73695 175.735774 
L 189.760049 175.965935 
L 190.373908 175.762026 
L 190.987767 175.847799 
L 191.397007 176.004861 
L 192.010866 176.286396 
L 193.033964 175.975893 
L 193.443204 175.87473 
L 193.647824 175.927009 
L 194.057063 176.392763 
L 194.670922 177.179204 
L 195.080162 177.219036 
L 196.30788 176.66434 
L 196.921739 176.583093 
L 197.330979 176.249506 
L 198.149458 175.268661 
L 199.377176 174.180544 
L 199.581796 174.156554 
L 199.991035 174.558714 
L 200.400275 175.093947 
L 200.604894 175.198504 
L 201.014134 175.031937 
L 202.241852 174.299811 
L 202.446472 174.526125 
L 203.060331 175.564906 
L 203.46957 175.647058 
L 203.87881 175.656337 
L 204.08343 175.504028 
L 204.492669 174.641093 
L 204.901909 173.721352 
L 205.311148 173.31195 
L 205.720387 173.208978 
L 205.925007 173.323945 
L 206.334247 173.970072 
L 206.948106 175.049816 
L 207.152726 175.137399 
L 207.561965 174.928285 
L 207.971204 174.738634 
L 208.994303 174.729355 
L 209.403543 174.04566 
L 209.812782 173.356534 
L 210.222021 173.172315 
L 210.631261 173.348387 
L 211.24512 173.866646 
L 211.44974 173.781552 
L 211.858979 173.19223 
L 212.268219 172.581861 
L 212.677458 172.329748 
L 214.314416 172.017434 
L 214.928275 172.688229 
L 215.542134 173.314666 
L 215.746754 173.234325 
L 216.155994 172.494278 
L 216.769853 170.602745 
L 217.383712 167.737383 
L 219.02067 159.787877 
L 219.839149 155.839603 
L 220.657628 150.593191 
L 222.294585 137.759376 
L 223.113064 132.6956 
L 223.931543 127.431309 
L 224.136163 126.842666 
L 224.340783 126.906487 
L 224.545402 127.631144 
L 224.954642 130.412317 
L 225.97774 138.438997 
L 226.38698 140.497549 
L 226.796219 141.546288 
L 227.000839 141.714213 
L 227.205459 141.659672 
L 227.410078 141.389905 
L 227.819318 140.208772 
L 228.228557 137.810975 
L 228.637797 133.708128 
L 229.251656 124.660547 
L 229.660895 115.751243 
L 230.274755 96.276016 
L 230.888614 68.030668 
L 231.911712 11.479321 
L 232.116332 5.395774 
L 232.320952 3.00024 
L 232.525572 4.152631 
L 232.934811 14.051606 
L 234.367149 58.534985 
L 235.185628 76.359477 
L 236.208727 96.029107 
L 237.231825 117.428682 
L 238.050304 129.457725 
L 238.868783 138.386945 
L 239.482642 142.857325 
L 240.301121 146.701043 
L 240.710361 147.975417 
L 240.91498 148.277094 
L 241.1196 148.348382 
L 241.52884 148.079974 
L 241.938079 147.392658 
L 242.551938 145.516062 
L 242.961178 143.873928 
L 243.575037 140.201304 
L 244.188896 134.494796 
L 245.211995 122.959118 
L 245.416614 122.215903 
L 245.621234 122.597468 
L 245.825854 124.074846 
L 246.235093 129.490993 
L 247.258192 145.049629 
L 247.872051 150.592739 
L 248.48591 154.217837 
L 249.713629 160.188 
L 250.122868 160.950679 
L 250.736727 161.63641 
L 252.373685 164.628055 
L 254.010643 166.202295 
L 255.033742 166.703581 
L 255.852221 166.470704 
L 256.46608 166.868338 
L 258.307657 167.156435 
L 258.716897 167.442044 
L 259.535376 168.109217 
L 260.149235 168.393241 
L 260.558474 168.889548 
L 261.172333 169.918824 
L 261.581573 170.232269 
L 262.195432 170.645066 
L 262.809291 171.209493 
L 263.83239 171.675247 
L 264.03701 171.608258 
L 264.446249 171.144767 
L 264.855488 170.594824 
L 265.264728 170.378694 
L 265.878587 170.172749 
L 266.492446 170.39431 
L 266.901686 170.526251 
L 267.310925 171.038626 
L 267.924784 172.183096 
L 268.538644 172.801612 
L 268.947883 172.883991 
L 269.357122 172.671708 
L 269.766362 172.274753 
L 270.175601 171.493291 
L 270.584841 170.619266 
L 270.789461 170.41151 
L 270.99408 170.421468 
L 271.607939 170.861196 
L 272.221799 170.78606 
L 272.631038 171.345282 
L 273.449517 172.810212 
L 273.858756 173.159415 
L 274.267996 173.24994 
L 274.472616 173.223688 
L 274.677235 173.082694 
L 275.086475 172.359621 
L 276.109573 170.267801 
L 277.337292 168.037476 
L 277.746531 167.638711 
L 278.155771 167.802562 
L 279.178869 168.533783 
L 279.588109 168.865333 
L 279.792729 168.903806 
L 279.997348 168.796307 
L 281.429686 167.201924 
L 282.657405 166.502388 
L 283.066644 166.314321 
L 283.680503 165.815298 
L 284.294363 165.655747 
L 284.703602 164.875869 
L 285.522081 162.225279 
L 286.13594 159.454064 
L 286.954419 155.619626 
L 287.568278 153.647299 
L 287.772898 153.261207 
L 287.977518 153.128361 
L 288.182137 153.232013 
L 289.205236 154.445056 
L 289.614475 154.305646 
L 290.023715 154.041538 
L 290.432954 153.361464 
L 291.046814 151.360169 
L 291.456053 149.319043 
L 291.865292 145.97299 
L 292.479152 138.511191 
L 293.297631 125.120417 
L 294.116109 107.301809 
L 294.934588 88.372678 
L 295.343828 82.600991 
L 295.548448 81.042593 
L 295.753067 80.397145 
L 295.957687 80.665327 
L 296.162307 81.816134 
L 296.571546 86.35192 
L 298.208504 108.172212 
L 299.026983 116.150234 
L 299.640842 120.235429 
L 300.050082 122.085772 
L 300.254701 122.627794 
L 300.459321 122.841661 
L 300.663941 122.757698 
L 301.07318 121.904494 
L 301.48242 120.381401 
L 302.505518 114.854134 
L 303.528617 109.315551 
L 304.142476 103.724463 
L 304.551715 100.146665 
L 304.960955 98.533951 
L 305.165575 98.668834 
L 305.370194 99.465686 
L 305.779434 103.0677 
L 306.393293 112.34748 
L 307.621011 131.921153 
L 308.43949 141.681624 
L 309.462589 150.190352 
L 310.076448 153.882213 
L 310.690307 156.02088 
L 311.304166 157.276471 
L 311.713406 157.705788 
L 312.531885 158.370246 
L 313.145744 158.915663 
L 313.350364 158.943726 
L 313.554983 158.802053 
L 313.964223 158.097538 
L 314.373462 157.00942 
L 315.601181 152.385598 
L 316.01042 152.010143 
L 316.41966 151.989322 
L 316.624279 152.108364 
L 316.828899 152.407777 
L 317.238139 153.713383 
L 318.670477 159.927739 
L 319.898195 162.642376 
L 320.102815 162.852169 
L 320.307434 162.873216 
L 320.716674 162.495951 
L 321.125913 162.149917 
L 321.535153 162.348168 
L 322.353632 163.181909 
L 322.558251 163.179645 
L 322.762871 163.023036 
L 323.172111 162.291589 
L 323.58135 161.08013 
L 324.195209 158.40442 
L 324.809068 155.924471 
L 325.832167 153.321859 
L 326.446026 152.297562 
L 327.059885 151.378953 
L 327.469125 150.403314 
L 327.878364 148.464708 
L 328.287604 145.209633 
L 328.901463 137.961474 
L 329.515322 128.157777 
L 330.94766 101.368081 
L 331.15228 99.602606 
L 331.3569 98.866633 
L 331.561519 99.154504 
L 331.766139 100.380673 
L 332.175379 105.236693 
L 332.789238 116.968812 
L 333.812336 136.796636 
L 334.426196 144.156368 
L 335.040055 148.73719 
L 335.653914 151.366054 
L 336.267773 153.176566 
L 336.677013 153.672646 
L 337.086252 153.736919 
L 337.495492 153.453348 
L 337.904731 152.868552 
L 338.51859 151.268286 
L 339.337069 148.699169 
L 339.746309 146.153815 
L 340.360168 140.425355 
L 340.974027 132.339608 
L 342.610985 106.134028 
L 342.815604 105.525696 
L 343.020224 105.672348 
L 343.224844 106.400853 
L 343.634083 109.311251 
L 344.247942 116.378585 
L 345.066421 126.158293 
L 345.680281 130.677105 
L 346.29414 133.74796 
L 346.498759 134.287719 
L 346.703379 134.463338 
L 346.907999 134.31714 
L 347.521858 133.034392 
L 348.340337 131.256921 
L 348.954196 128.915703 
L 349.977295 124.663262 
L 350.386534 123.878632 
L 351.205013 122.835777 
L 351.614253 122.136466 
L 351.818872 121.95451 
L 352.023492 121.934142 
L 352.432732 122.304391 
L 352.841971 122.658573 
L 353.046591 122.602221 
L 353.25121 122.351917 
L 353.66045 121.288694 
L 354.274309 118.364717 
L 354.683549 116.503284 
L 355.092788 115.720917 
L 355.502027 115.68448 
L 355.706647 115.804879 
L 355.911267 116.100219 
L 356.320506 117.52826 
L 356.729746 120.034462 
L 359.594422 141.411405 
L 360.208281 144.225846 
L 361.436 147.689582 
L 363.072957 151.900155 
L 363.891436 153.233823 
L 364.914535 154.361772 
L 365.528394 155.264765 
L 365.937634 155.618494 
L 366.346873 155.647462 
L 366.551493 155.503074 
L 366.960732 154.773211 
L 367.779211 152.699722 
L 368.59769 149.835266 
L 369.416169 147.549494 
L 369.825408 146.787495 
L 370.030028 146.687916 
L 370.234648 146.86761 
L 370.643887 147.960707 
L 371.462366 150.679869 
L 371.871606 151.495505 
L 372.076225 151.684477 
L 372.280845 151.710051 
L 372.485465 151.592141 
L 372.894704 150.868842 
L 373.917803 147.925175 
L 374.940902 146.424261 
L 375.350141 145.111866 
L 375.75938 142.941967 
L 376.37324 138.092963 
L 377.191719 129.620445 
L 378.010197 118.173255 
L 379.033296 99.971724 
L 379.851775 80.06039 
L 380.670254 60.356813 
L 381.079493 54.252218 
L 381.284113 52.749493 
L 381.488733 52.462753 
L 381.693352 53.379099 
L 382.102592 58.042978 
L 383.944169 86.158648 
L 384.967268 95.429828 
L 385.581127 99.667105 
L 385.990367 101.571764 
L 386.399606 102.533599 
L 386.604226 102.550572 
L 386.808846 102.277637 
L 387.218085 101.048526 
L 387.627325 98.843548 
L 388.241184 93.444828 
L 388.855043 85.553258 
L 390.082761 65.970758 
L 392.128959 31.124736 
L 392.333578 30.098402 
L 392.538198 30.267911 
L 392.742818 31.788515 
L 393.152057 38.737034 
L 393.970536 60.915808 
L 394.584395 76.304709 
L 395.198254 86.57235 
L 398.062931 124.341218 
L 398.88141 131.545924 
L 400.927607 145.055287 
L 401.950705 150.603602 
L 402.564565 152.70108 
L 403.792283 155.952534 
L 404.201522 156.444088 
L 404.610762 156.686696 
L 405.020001 157.22125 
L 405.83848 158.685049 
L 406.24772 158.936258 
L 406.656959 159.136093 
L 406.861579 159.401785 
L 407.270818 160.568434 
L 407.884678 162.546419 
L 408.293917 163.051325 
L 408.703156 163.400302 
L 409.521635 164.523951 
L 409.726255 164.473483 
L 410.135495 163.749278 
L 410.953973 161.89735 
L 411.363213 161.654289 
L 411.772452 161.743683 
L 412.795551 162.182958 
L 413.40941 161.830135 
L 413.81865 161.224971 
L 414.432509 160.117843 
L 414.637129 159.961007 
L 415.250988 159.934302 
L 415.660227 159.469001 
L 416.274086 158.479782 
L 417.501805 157.057851 
L 417.911044 156.075422 
L 418.320284 154.26242 
L 419.957241 144.684585 
L 420.161861 144.359598 
L 420.366481 144.245083 
L 420.571101 144.266583 
L 420.77572 144.488371 
L 421.18496 145.648456 
L 421.798819 147.406463 
L 422.003439 147.654051 
L 422.208058 147.726698 
L 422.412678 147.625762 
L 422.617298 147.335854 
L 423.026537 146.119189 
L 423.640396 143.980522 
L 423.845016 143.946801 
L 424.049636 144.432245 
L 424.458875 146.581549 
L 425.481974 153.284518 
L 426.300453 155.873097 
L 426.709692 156.350167 
L 427.118932 156.398825 
L 427.528171 156.367367 
L 427.937411 156.589155 
L 428.960509 157.254971 
L 429.165129 157.082293 
L 429.574369 156.293136 
L 430.597467 153.779693 
L 431.006707 153.532105 
L 431.620566 153.507889 
L 432.029805 153.748688 
L 432.439045 154.346383 
L 433.666763 157.032278 
L 434.280622 157.866245 
L 434.894481 158.240342 
L 435.508341 158.616023 
L 435.71296 158.917473 
L 436.1222 160.19909 
L 436.940679 163.654226 
L 437.349918 164.261426 
L 437.759158 164.599766 
L 438.782256 165.113725 
L 439.191496 165.929587 
L 440.214594 168.84768 
L 440.623834 169.127178 
L 441.442313 169.045252 
L 441.851552 169.435191 
L 442.465411 170.306048 
L 442.670031 170.358552 
L 442.874651 170.167091 
L 443.48851 169.03801 
L 443.69313 168.906748 
L 443.897749 168.937074 
L 444.306989 169.358018 
L 444.920848 170.192891 
L 445.330088 170.123638 
L 445.943947 169.896646 
L 446.557806 169.958203 
L 447.171665 169.989887 
L 447.580905 169.833051 
L 447.990144 169.592479 
L 448.604003 169.479322 
L 449.217862 169.214082 
L 449.627102 169.056794 
L 450.240961 168.783859 
L 450.85482 168.740634 
L 451.468679 168.343452 
L 451.877919 168.52043 
L 452.491778 169.267719 
L 453.310257 170.521272 
L 453.719496 170.664303 
L 455.151834 170.204659 
L 455.356454 170.298127 
L 455.765694 170.921848 
L 456.174933 171.610748 
L 456.379553 171.795194 
L 456.584172 171.828688 
L 456.993412 171.543985 
L 457.402651 171.327855 
L 458.22113 171.640848 
L 458.63037 171.367008 
L 459.244229 170.777686 
L 459.653468 170.687839 
L 460.062708 170.908496 
L 460.676567 171.603958 
L 461.085806 172.026487 
L 461.290426 172.103434 
L 461.699666 171.869199 
L 462.108905 171.702858 
L 463.132004 172.296479 
L 463.745863 172.019697 
L 464.359722 171.483786 
L 465.178201 170.55884 
L 465.58744 170.702323 
L 465.99668 170.945611 
L 466.610539 170.916869 
L 467.019779 170.803486 
L 467.633638 170.467862 
L 467.838257 170.546393 
L 468.247497 171.182562 
L 468.656736 171.902919 
L 468.861356 172.048892 
L 469.065976 171.97964 
L 469.475215 171.336908 
L 470.498314 169.398302 
L 471.112173 168.249532 
L 471.930652 166.334689 
L 472.339891 166.051344 
L 473.15837 166.2935 
L 473.36299 166.105433 
L 473.77223 165.15333 
L 474.386089 163.408223 
L 475.409187 161.092125 
L 476.023047 158.8919 
L 476.432286 156.763643 
L 477.660004 147.890775 
L 478.273864 141.87897 
L 479.501582 126.541442 
L 480.115441 115.263762 
L 480.7293 98.911443 
L 482.161638 54.716615 
L 482.366258 52.252281 
L 482.570878 51.663865 
L 482.775498 52.853371 
L 483.184737 59.529635 
L 484.617075 91.019873 
L 486.663272 123.407446 
L 487.277132 129.952221 
L 487.686371 132.35975 
L 488.09561 133.398984 
L 488.30023 133.551293 
L 488.50485 133.489057 
L 488.70947 133.169048 
L 489.118709 131.706834 
L 489.527949 128.945124 
L 489.937188 124.331712 
L 491.574146 100.06587 
L 493.211104 71.913312 
L 493.415723 70.954193 
L 493.620343 71.540346 
L 493.824963 73.709566 
L 494.234202 82.010764 
L 495.87116 123.516303 
L 496.689639 135.154728 
L 497.508118 143.787929 
L 498.326597 149.579304 
L 499.758935 157.598515 
L 500.577414 161.042336 
L 502.009752 164.275911 
L 502.623611 165.168946 
L 503.44209 166.236695 
L 504.260569 167.440007 
L 505.079048 168.183448 
L 505.692907 168.57633 
L 506.306766 168.431715 
L 506.511386 168.732486 
L 507.125245 170.216201 
L 507.534484 170.557709 
L 507.943724 170.48823 
L 508.352963 170.061628 
L 508.966823 169.095494 
L 509.171442 168.99931 
L 509.376062 169.088931 
L 509.785301 169.638421 
L 510.194541 170.290885 
L 510.399161 170.405399 
L 510.60378 170.270064 
L 511.626879 168.660518 
L 512.036118 168.673645 
L 513.263837 169.706994 
L 513.673076 170.328226 
L 514.286935 171.540817 
L 514.491555 171.687468 
L 514.900795 171.569559 
L 515.310034 171.501665 
L 515.719274 171.91944 
L 516.537752 172.950753 
L 516.946992 173.038337 
L 517.356231 172.702939 
L 518.37933 171.482654 
L 518.993189 170.820459 
L 519.197809 170.76207 
L 520.016288 170.995626 
L 520.425527 170.681955 
L 521.039386 170.049407 
L 521.244006 169.991924 
L 521.653246 170.227517 
L 523.290203 171.771657 
L 523.699443 171.852225 
L 524.108682 171.634511 
L 524.517922 171.25204 
L 524.722542 171.231446 
L 525.131781 171.652842 
L 525.74564 172.515551 
L 526.768739 173.392518 
L 527.587218 173.285245 
L 527.996457 173.209883 
L 528.610316 173.307424 
L 529.428795 172.907301 
L 530.042654 172.402394 
L 530.247274 172.509441 
L 532.907331 175.598627 
L 533.11195 175.614243 
L 533.31657 175.458086 
L 533.725809 174.51843 
L 534.135049 173.457018 
L 535.772007 170.910306 
L 535.976626 170.700739 
L 536.181246 170.655703 
L 536.385866 170.812538 
L 536.795105 171.729789 
L 537.408965 173.228667 
L 537.818204 173.516538 
L 538.432063 173.542791 
L 539.045922 173.864157 
L 539.864401 174.55962 
L 540.273641 174.58044 
L 540.68288 174.271748 
L 541.09212 173.91123 
L 541.296739 173.964187 
L 541.705979 174.569125 
L 542.115218 175.181304 
L 542.319838 175.25893 
L 542.729077 175.0213 
L 543.138317 174.68364 
L 543.547556 174.623893 
L 544.775275 174.824181 
L 545.389134 174.58723 
L 546.616852 173.673374 
L 547.435331 173.875472 
L 548.45843 173.356534 
L 549.276909 173.743079 
L 549.686148 174.052676 
L 550.095388 174.60194 
L 550.504627 175.190809 
L 550.709247 175.285635 
L 551.118486 175.069958 
L 551.732345 174.298453 
L 552.141585 173.865741 
L 552.550824 173.822289 
L 553.573923 174.132339 
L 553.778543 174.008998 
L 554.187782 173.370339 
L 555.210881 170.961906 
L 555.415501 170.894464 
L 555.82474 170.978879 
L 556.438599 170.93769 
L 557.052458 171.435581 
L 558.075557 172.484546 
L 558.484796 172.443131 
L 559.098656 172.12946 
L 559.507895 172.463499 
L 560.121754 173.476028 
L 560.735613 174.492631 
L 561.144853 174.621856 
L 561.758712 174.448952 
L 562.781811 173.874341 
L 563.39567 174.082776 
L 564.623388 174.482673 
L 565.032628 174.362953 
L 565.646487 173.970298 
L 566.260346 174.072366 
L 566.669586 173.574701 
L 567.078825 172.954374 
L 567.283445 172.836012 
L 567.692684 172.97429 
L 568.101924 173.464939 
L 569.125022 175.112278 
L 569.329642 175.0557 
L 569.943501 174.422473 
L 570.352741 174.455063 
L 570.76198 174.510057 
L 571.17122 174.364763 
L 571.580459 174.51413 
L 571.989698 174.758323 
L 573.012797 174.825086 
L 573.422036 174.96789 
L 573.626656 174.840249 
L 574.035896 174.188917 
L 574.445135 173.519028 
L 574.649755 173.418318 
L 575.468234 173.57108 
L 576.695952 173.014574 
L 577.719051 173.829531 
L 578.12829 173.641464 
L 579.151389 172.99149 
L 580.788347 172.410089 
L 581.197586 172.63414 
L 581.811445 173.04241 
L 582.220685 172.971348 
L 582.834544 172.748881 
L 583.243783 172.914769 
L 583.857643 173.28004 
L 584.062262 173.161904 
L 584.471502 172.455578 
L 584.880741 171.763736 
L 585.289981 171.570917 
L 586.517699 171.578159 
L 586.926938 171.822125 
L 587.745417 172.583898 
L 588.359277 172.82877 
L 588.768516 172.921559 
L 589.586995 173.433934 
L 589.996234 173.107815 
L 590.405474 172.814286 
L 590.814713 172.953922 
L 591.428572 173.184083 
L 591.837812 172.894854 
L 592.451671 172.294443 
L 592.656291 172.345816 
L 593.27015 172.92269 
L 593.47477 172.94668 
L 593.884009 172.633008 
L 594.702488 171.612332 
L 594.907108 171.515243 
L 595.316347 171.698558 
L 595.930206 172.074465 
L 596.339446 171.916272 
L 597.567164 170.770897 
L 597.771784 170.757544 
L 598.794883 171.295492 
L 599.613362 170.86708 
L 600.022601 170.975258 
L 600.63646 171.415892 
L 602.068798 171.814204 
L 602.682657 172.16567 
L 603.501136 172.052287 
L 603.910376 171.691995 
L 604.524235 171.046773 
L 604.933474 170.994269 
L 605.342714 171.360671 
L 605.956573 172.001592 
L 606.570432 172.673745 
L 607.388911 173.687632 
L 607.798151 174.015108 
L 608.00277 173.994966 
L 608.20739 173.781326 
L 610.048968 170.449757 
L 610.458207 170.273232 
L 610.867446 170.252185 
L 611.072066 170.344068 
L 611.481306 170.876812 
L 611.890545 171.451875 
L 612.095165 171.535612 
L 612.504404 171.309524 
L 613.322883 170.651403 
L 613.732123 170.702323 
L 614.141362 171.154725 
L 614.550602 171.643337 
L 614.755221 171.763057 
L 614.959841 171.742915 
L 615.36908 171.357729 
L 615.77832 170.984537 
L 616.187559 171.030479 
L 616.596799 171.33985 
L 617.619897 172.585482 
L 618.029137 172.729418 
L 618.847616 173.344992 
L 619.256855 173.177294 
L 619.666095 172.966369 
L 619.870714 173.058931 
L 620.689193 173.957172 
L 621.098433 173.837904 
L 622.735391 172.9761 
L 623.55387 171.483559 
L 623.963109 171.403671 
L 624.576968 171.286893 
L 624.986208 170.806428 
L 625.600067 170.018629 
L 626.418546 169.259572 
L 626.623165 169.262514 
L 627.646264 169.766741 
L 628.260123 169.87854 
L 628.669363 169.673047 
L 629.283222 169.057926 
L 629.692461 169.201409 
L 630.101701 169.391286 
L 630.51094 169.206161 
L 630.92018 168.938658 
L 631.738659 168.719586 
L 632.147898 168.65305 
L 632.557138 168.935943 
L 633.784856 170.295185 
L 634.194095 170.308763 
L 635.217194 169.943493 
L 636.240293 170.040129 
L 636.854152 170.457904 
L 637.468011 170.512446 
L 638.695729 170.231364 
L 639.718828 170.183159 
L 640.128067 169.649058 
L 640.741927 168.714155 
L 641.355786 168.540346 
L 641.765025 168.703744 
L 641.969645 168.806491 
L 642.174265 168.768696 
L 642.788124 168.260621 
L 643.401983 168.116686 
L 643.811223 167.680579 
L 644.220462 167.131993 
L 644.425082 167.033094 
L 645.243561 167.080394 
L 646.266659 166.15047 
L 646.675899 166.170838 
L 647.085138 166.421141 
L 647.494378 166.944153 
L 648.312857 168.167606 
L 648.926716 168.514546 
L 649.335955 168.429225 
L 649.745195 168.338247 
L 650.154434 168.519072 
L 650.972913 169.411655 
L 651.382152 169.795709 
L 651.791392 169.837804 
L 652.200631 169.667842 
L 652.609871 169.260703 
L 653.837589 167.648668 
L 654.451448 167.404702 
L 654.860688 167.571043 
L 655.679167 168.476525 
L 656.497646 168.242516 
L 657.316124 169.279714 
L 657.725364 169.243503 
L 658.134603 169.101152 
L 658.953082 169.293292 
L 660.59004 168.032044 
L 661.203899 167.127467 
L 661.408519 167.110267 
L 662.022378 167.741683 
L 662.431618 168.027744 
L 662.840857 168.054449 
L 663.250097 167.704115 
L 663.863956 167.032415 
L 664.068575 166.991 
L 664.477815 167.28815 
L 664.887054 167.689405 
L 665.296294 167.774273 
L 665.500914 167.717015 
L 665.705533 167.509712 
L 666.114773 166.59065 
L 666.524012 165.631758 
L 666.933252 165.200177 
L 667.751731 164.697081 
L 667.95635 164.779007 
L 668.36559 165.359728 
L 668.979449 166.371126 
L 669.184069 166.429062 
L 669.593308 166.005176 
L 670.002548 165.570427 
L 670.207167 165.595095 
L 670.616407 166.144133 
L 671.025646 166.904548 
L 671.230266 167.036036 
L 671.434886 166.894816 
L 672.048745 166.067412 
L 672.457984 166.01355 
L 673.071843 166.095249 
L 673.481083 165.794478 
L 674.299562 164.770407 
L 675.7319 164.126091 
L 676.959618 162.543929 
L 677.982717 160.729344 
L 678.801196 159.857808 
L 679.210435 159.427133 
L 679.619675 158.467335 
L 680.642773 154.864642 
L 681.052013 154.192942 
L 681.256633 154.09789 
L 681.461252 154.174158 
L 681.870492 154.772985 
L 682.688971 156.935189 
L 683.30283 158.379525 
L 683.916689 159.18294 
L 684.325928 159.401785 
L 684.735168 159.215755 
L 686.167506 157.775719 
L 686.576745 156.812979 
L 688.827562 149.023025 
L 689.236802 146.455945 
L 690.66914 135.339853 
L 690.87376 135.004003 
L 691.078379 135.137302 
L 691.487619 136.394023 
L 692.306098 139.355795 
L 692.715337 140.192025 
L 692.919957 140.426939 
L 693.124577 140.48827 
L 693.329196 140.364024 
L 693.738436 139.57713 
L 694.147675 137.975053 
L 694.966154 133.117449 
L 695.989253 126.065051 
L 696.603112 119.520503 
L 697.421591 108.144828 
L 698.24007 93.089288 
L 698.853929 78.001611 
L 700.900126 21.70962 
L 702.069316 -1 
M 704.058445 -1 
L 704.787901 28.770165 
L 705.197141 39.596801 
L 705.60638 46.316517 
L 706.015619 50.153898 
L 706.629479 53.303962 
L 707.038718 55.658307 
L 707.447958 59.897848 
L 708.266436 72.480907 
L 709.494155 91.753583 
L 711.335732 117.217305 
L 711.949592 123.196295 
L 712.358831 125.72377 
L 713.17731 128.917966 
L 713.791169 131.076323 
L 714.405028 132.455933 
L 714.814268 132.987545 
L 715.018887 132.987092 
L 715.223507 132.811925 
L 715.632747 131.987916 
L 716.246606 130.381086 
L 717.269704 128.712925 
L 717.883564 125.867253 
L 718.497423 123.317599 
L 719.111282 121.672749 
L 719.520521 121.348894 
L 719.725141 121.422672 
L 719.929761 121.68067 
L 720.339 122.881039 
L 720.95286 125.854579 
L 722.794437 136.618979 
L 724.022155 140.605954 
L 724.636015 141.945054 
L 725.045254 142.425066 
L 725.863733 143.198833 
L 726.682212 144.194162 
L 727.70531 146.051748 
L 727.90993 146.087279 
L 728.31917 145.783339 
L 728.933029 145.044877 
L 729.137649 145.029714 
L 729.546888 145.331617 
L 730.160747 145.85327 
L 730.365367 145.876581 
L 730.774606 145.531904 
L 731.593085 144.289214 
L 732.002325 144.162705 
L 732.411564 144.128758 
L 732.820804 143.738592 
L 733.843902 142.033769 
L 734.048522 142.008421 
L 734.457761 142.387497 
L 735.071621 143.260843 
L 735.27624 143.371963 
L 735.48086 143.334169 
L 735.8901 142.946267 
L 736.708578 141.591098 
L 737.117818 140.484197 
L 739.368635 132.075273 
L 739.777874 131.454267 
L 739.982494 131.420094 
L 740.391734 131.69235 
L 741.619452 132.847909 
L 741.824072 132.841572 
L 742.233311 132.481507 
L 742.642551 132.06871 
L 742.84717 132.051284 
L 743.05179 132.208345 
L 743.461029 133.074902 
L 745.097987 138.118762 
L 745.302607 138.221283 
L 745.507227 138.14592 
L 746.325706 137.342958 
L 746.530325 137.399989 
L 747.553424 138.25274 
L 747.758044 138.034121 
L 748.167283 136.783736 
L 748.781142 134.677205 
L 749.599621 132.173946 
L 750.4181 129.791085 
L 751.441199 126.944508 
L 752.464297 122.823782 
L 752.668917 122.630962 
L 752.873537 122.768788 
L 753.487396 123.53124 
L 753.896636 123.541197 
L 754.305875 123.294289 
L 754.715114 122.849356 
L 755.124354 121.983025 
L 755.738213 120.077235 
L 756.147453 117.910278 
L 756.761312 112.659793 
L 757.579791 103.261198 
L 758.19365 94.188722 
L 759.012129 76.882262 
L 759.830608 55.14978 
L 760.444467 33.229456 
L 761.136969 -1 
M 765.949093 -1 
L 766.378439 25.314123 
L 766.992298 53.858884 
L 767.606157 73.80145 
L 768.220016 87.632631 
L 769.038495 100.464862 
L 770.061594 113.075985 
L 770.675453 118.484663 
L 772.517031 130.886898 
L 773.13089 133.758823 
L 773.949369 136.087368 
L 775.586327 139.689382 
L 776.200186 141.325406 
L 776.609425 141.914501 
L 777.837144 142.905983 
L 778.655622 143.829118 
L 780.087961 146.146121 
L 780.70182 146.81601 
L 781.111059 147.365501 
L 781.520299 147.571673 
L 782.543397 147.723982 
L 784.180355 149.152024 
L 785.408073 150.19171 
L 786.840412 150.617859 
L 787.65889 151.270323 
L 788.06813 151.603231 
L 789.500468 152.27742 
L 789.909707 152.857689 
L 790.728186 154.623391 
L 791.955905 157.479248 
L 792.365144 157.760556 
L 792.569764 157.748335 
L 792.979003 157.310191 
L 793.388243 156.66316 
L 793.592863 156.53235 
L 793.797482 156.624007 
L 794.411341 157.632915 
L 795.43444 159.243592 
L 795.84368 159.769998 
L 796.866778 160.35502 
L 797.685257 161.191024 
L 798.708356 161.453096 
L 799.526835 162.023407 
L 799.936074 161.882187 
L 800.549933 161.504469 
L 800.959173 161.205961 
L 801.368412 160.817153 
L 801.573032 160.819417 
L 801.777652 161.06112 
L 803.00537 163.765346 
L 803.414609 163.995055 
L 803.823849 164.028549 
L 804.233088 164.343126 
L 805.256187 165.247024 
L 805.870046 165.400918 
L 806.483905 165.494838 
L 806.893145 165.91895 
L 807.302384 166.912469 
L 808.325483 170.091502 
L 808.939342 171.161741 
L 809.348581 171.588117 
L 809.962441 171.99865 
L 810.5763 173.016384 
L 811.190159 174.14207 
L 812.417877 175.571243 
L 813.031737 176.679956 
L 813.850215 178.382516 
L 814.259455 178.772681 
L 814.668694 178.706598 
L 815.077934 178.659751 
L 815.487173 179.137726 
L 816.714892 181.295856 
L 817.533371 182.571815 
L 818.14723 183.474581 
L 818.965709 184.104413 
L 819.988807 185.72369 
L 820.602666 186.07493 
L 821.216526 187.031106 
L 822.444244 188.875566 
L 822.648864 188.997096 
L 823.467343 188.859497 
L 823.876582 189.377304 
L 824.695061 190.802403 
L 825.1043 190.952902 
L 825.922779 190.767324 
L 826.741258 190.314696 
L 827.150498 190.405901 
L 827.559737 190.751935 
L 828.173596 191.300973 
L 828.378216 191.465503 
L 828.787456 192.267107 
L 829.401315 193.57475 
L 829.810554 193.912863 
L 830.219794 193.923726 
L 831.038273 193.58086 
L 831.447512 194.086672 
L 832.265991 195.463567 
L 832.67523 196.243897 
L 833.08447 196.485148 
L 833.493709 196.381723 
L 833.902949 196.050399 
L 834.721428 195.039454 
L 835.335287 194.38767 
L 836.358385 193.548724 
L 836.563005 193.511608 
L 836.767625 193.639928 
L 837.790724 194.843466 
L 838.199963 194.606063 
L 839.018442 193.780469 
L 839.427681 192.94356 
L 840.24616 190.366975 
L 841.269259 187.065959 
L 841.678498 186.110913 
L 842.087738 185.726632 
L 842.906217 185.490813 
L 843.315456 184.976854 
L 843.929315 183.583665 
L 844.543174 181.225246 
L 844.952414 179.99093 
L 845.566273 178.78875 
L 846.180132 176.678598 
L 846.998611 173.758468 
L 847.61247 171.826878 
L 848.430949 167.231798 
L 849.249428 163.353002 
L 850.067907 160.464556 
L 850.886386 157.080256 
L 852.114104 152.952289 
L 852.523344 151.552536 
L 852.932583 150.747311 
L 853.137203 150.590475 
L 853.341823 150.672854 
L 853.751062 151.543031 
L 854.569541 153.656578 
L 854.774161 153.909371 
L 854.978781 153.940149 
L 855.1834 153.681472 
L 855.38802 153.066351 
L 855.797259 150.731016 
L 856.411119 146.897483 
L 856.820358 145.510857 
L 857.229598 144.842326 
L 857.638837 144.50127 
L 859.275795 143.832965 
L 859.685034 143.90267 
L 860.298893 144.280614 
L 860.912753 144.368877 
L 861.526612 144.363898 
L 862.54971 144.886004 
L 862.95895 145.941759 
L 863.777429 148.845142 
L 864.800527 150.825389 
L 865.209767 152.67528 
L 865.823626 157.268097 
L 867.051344 166.711276 
L 868.483683 176.469936 
L 869.097542 182.160829 
L 871.348359 208.738016 
L 874.82884 253 
M 929.590625 253 
L 930.07422 161.971581 
L 930.688079 84.773153 
L 931.097319 52.763298 
L 931.506558 32.885685 
L 931.915798 22.192574 
L 932.120418 19.575931 
L 932.325037 18.588523 
L 932.529657 19.16585 
L 932.734277 21.265139 
L 933.143516 29.587385 
L 933.757375 49.468619 
L 934.985094 101.08021 
L 936.212812 149.868986 
L 937.031291 175.941493 
L 937.64515 189.162758 
L 938.259009 197.013591 
L 938.668249 200.436817 
L 939.077488 202.453728 
L 939.486728 203.227269 
L 939.895967 203.272985 
L 940.509826 203.162996 
L 940.919066 203.056402 
L 941.532925 202.782336 
L 941.942164 202.979003 
L 942.556024 203.667903 
L 942.965263 203.659076 
L 943.374503 203.705018 
L 943.988362 203.95849 
L 944.192981 203.941064 
L 944.602221 203.516951 
L 945.21608 202.549232 
L 946.239179 201.564993 
L 946.853038 200.581432 
L 947.466897 198.777483 
L 947.876137 197.820401 
L 948.694615 196.77913 
L 949.308475 195.54074 
L 949.922334 194.345802 
L 951.150052 192.753004 
L 951.559292 191.554218 
L 952.58239 188.007425 
L 953.196249 186.946012 
L 954.219348 185.345067 
L 954.628588 184.755519 
L 957.493264 177.764 
L 957.902503 177.026669 
L 958.720982 175.155278 
L 959.130221 174.827575 
L 959.539461 174.573198 
L 959.9487 174.138223 
L 960.15332 174.12306 
L 960.56256 174.670287 
L 960.971799 175.229056 
L 961.381038 175.223172 
L 961.994898 174.874422 
L 962.404137 174.276274 
L 963.631855 171.574764 
L 964.041095 171.596943 
L 964.450334 171.631795 
L 965.064194 171.565485 
L 965.473433 171.550775 
L 966.291912 170.9997 
L 966.905771 171.111273 
L 967.315011 170.568119 
L 967.92887 169.262061 
L 968.338109 168.970569 
L 968.747349 168.841117 
L 969.156588 168.437825 
L 969.975067 167.381165 
L 970.998166 166.696792 
L 971.407405 165.867577 
L 972.021264 164.524856 
L 972.225884 164.324115 
L 972.430504 164.302616 
L 972.839743 164.729896 
L 973.248983 165.231635 
L 973.453602 165.287987 
L 973.862842 165.065746 
L 974.476701 164.598861 
L 974.88594 164.585961 
L 976.113659 164.728991 
L 976.727518 164.660644 
L 977.136757 165.041983 
L 977.545997 165.428528 
L 977.955236 165.453649 
L 978.364476 165.130472 
L 978.773715 164.471898 
L 980.001434 161.750925 
L 980.615293 161.006578 
L 981.024532 160.893648 
L 981.843011 160.850648 
L 982.252251 160.813759 
L 983.275349 161.132409 
L 983.889208 161.497453 
L 984.298448 161.460564 
L 985.116927 161.093935 
L 985.730786 161.055009 
L 986.140025 160.623881 
L 986.753885 159.819787 
L 986.958504 159.717041 
L 987.163124 159.796703 
L 987.367744 160.177137 
L 987.776983 161.846656 
L 988.186223 163.688173 
L 988.595462 164.55224 
L 989.004702 164.624208 
L 990.0278 164.348784 
L 990.846279 163.85474 
L 991.255519 163.091383 
L 991.869378 161.735083 
L 992.278617 160.995941 
L 992.892476 159.686715 
L 993.301716 159.475111 
L 993.710955 159.729715 
L 994.324815 160.254989 
L 994.938674 160.571376 
L 995.347913 160.315868 
L 995.757153 159.970513 
L 996.166392 160.052438 
L 996.780251 160.304099 
L 997.39411 160.472477 
L 997.59873 160.508461 
L 998.00797 160.270152 
L 998.826448 159.650505 
L 999.849547 158.204811 
L 1000.258787 158.086448 
L 1001.077265 158.126732 
L 1001.281885 158.177427 
L 1001.486505 158.085091 
L 1001.691125 157.732946 
L 1002.100364 156.253984 
L 1002.509604 154.589897 
L 1002.714223 154.123011 
L 1002.918843 154.043801 
L 1003.123463 154.336425 
L 1003.737322 156.271184 
L 1004.555801 158.582302 
L 1005.16966 159.861882 
L 1005.578899 160.339178 
L 1005.783519 160.384667 
L 1006.192759 160.169216 
L 1006.806618 159.756646 
L 1008.443576 159.230692 
L 1009.466674 157.701262 
L 1009.875914 157.719141 
L 1010.285153 157.779567 
L 1010.694393 157.414296 
L 1011.308252 156.756854 
L 1011.717491 156.376193 
L 1012.33135 155.654478 
L 1012.53597 155.667152 
L 1012.94521 156.215284 
L 1014.172928 159.226618 
L 1014.786787 160.948189 
L 1015.196027 161.513974 
L 1015.605266 161.582321 
L 1016.219125 161.267745 
L 1016.832984 160.599439 
L 1017.446844 159.98296 
L 1017.856083 159.903297 
L 1019.083801 160.057644 
L 1020.1069 159.796477 
L 1021.129999 160.058549 
L 1021.948478 160.927595 
L 1022.357717 160.897042 
L 1022.562337 160.853137 
L 1022.766957 160.927821 
L 1023.585435 161.641389 
L 1023.994675 161.583453 
L 1024.403914 161.490438 
L 1025.017774 161.598842 
L 1025.836252 161.205056 
L 1026.654731 161.713583 
L 1027.268591 161.640484 
L 1027.67783 161.306897 
L 1029.519408 158.991704 
L 1029.724027 159.034252 
L 1030.133267 159.595284 
L 1030.542506 160.08548 
L 1030.951746 159.97006 
L 1031.156365 159.901261 
L 1031.360985 159.949692 
L 1031.974844 160.49194 
L 1032.384084 160.422009 
L 1032.793323 160.336462 
L 1033.407182 160.508235 
L 1034.225661 160.104943 
L 1034.634901 160.44894 
L 1035.862619 162.116648 
L 1036.271858 162.369668 
L 1036.681098 162.369894 
L 1037.090337 162.148559 
L 1037.499577 161.584358 
L 1038.727295 159.459269 
L 1039.136535 159.188145 
L 1039.545774 159.195387 
L 1040.159633 159.832687 
L 1040.568873 160.090459 
L 1041.387352 160.209953 
L 1042.001211 160.974215 
L 1043.024309 162.319652 
L 1044.047408 162.944279 
L 1044.252028 162.932511 
L 1044.456648 162.802833 
L 1044.865887 162.068896 
L 1045.684366 160.10879 
L 1046.093605 159.560658 
L 1047.116704 159.046472 
L 1047.525943 158.931279 
L 1047.730563 158.984915 
L 1047.935183 159.199234 
L 1048.958282 160.930537 
L 1049.367521 161.242624 
L 1050.186 161.388596 
L 1050.595239 161.082846 
L 1051.413718 159.857582 
L 1051.618338 159.844456 
L 1052.641437 160.498503 
L 1053.459916 160.116033 
L 1054.483014 160.696981 
L 1055.096873 161.103893 
L 1055.506113 161.326813 
L 1055.915352 161.243755 
L 1056.529211 160.649907 
L 1056.733831 160.618902 
L 1056.938451 160.741338 
L 1057.75693 161.624415 
L 1058.166169 161.528685 
L 1058.984648 160.906774 
L 1059.393888 161.332923 
L 1059.803127 161.675562 
L 1060.416986 161.669452 
L 1061.030845 161.583453 
L 1062.667803 161.649763 
L 1063.077043 161.147119 
L 1063.486282 160.702638 
L 1063.895522 160.787733 
L 1064.304761 160.887763 
L 1064.91862 160.403225 
L 1065.12324 160.465009 
L 1065.532479 161.128561 
L 1066.146339 162.316936 
L 1066.555578 162.454762 
L 1066.760198 162.495272 
L 1068.601775 164.128127 
L 1069.011015 163.927613 
L 1069.624874 163.494901 
L 1070.852592 162.985015 
L 1071.671071 162.015033 
L 1073.103409 161.330886 
L 1073.308029 161.351707 
L 1073.717268 161.778309 
L 1074.126508 162.08338 
L 1074.535747 161.941934 
L 1075.763466 161.354197 
L 1076.172705 161.183556 
L 1076.991184 160.630218 
L 1077.400424 160.610529 
L 1078.423522 160.894326 
L 1078.832762 160.744733 
L 1080.674339 159.455875 
L 1081.083579 159.583968 
L 1081.492818 159.911445 
L 1081.697438 159.926608 
L 1082.720536 159.44139 
L 1083.129776 159.943808 
L 1083.743635 160.773248 
L 1084.562114 161.567611 
L 1084.766734 161.520311 
L 1085.175973 160.859927 
L 1085.585213 160.371767 
L 1085.994452 160.72708 
L 1086.403692 160.973763 
L 1086.812931 160.809006 
L 1087.83603 159.983865 
L 1088.245269 160.124859 
L 1088.654509 159.909182 
L 1089.268368 159.516527 
L 1089.677607 159.348149 
L 1090.086847 158.875832 
L 1090.496086 158.476614 
L 1090.700706 158.523461 
L 1091.109945 158.959115 
L 1091.723804 159.683546 
L 1091.928424 159.737183 
L 1092.337664 159.476922 
L 1092.746903 159.248797 
L 1092.951523 159.401107 
L 1093.770002 160.798596 
L 1093.974621 160.626371 
L 1094.588481 159.565411 
L 1094.7931 159.482806 
L 1095.20234 159.800551 
L 1096.225438 161.193287 
L 1096.634678 161.130598 
L 1097.043917 161.073115 
L 1097.657777 161.437933 
L 1098.476255 162.027254 
L 1099.090115 162.41923 
L 1099.703974 162.912369 
L 1099.908594 162.898563 
L 1100.317833 162.499345 
L 1101.340932 160.831637 
L 1102.56865 158.774443 
L 1103.182509 158.106817 
L 1103.591749 157.616847 
L 1103.796368 157.585842 
L 1104.205608 158.011312 
L 1104.614847 158.555371 
L 1105.024087 158.764033 
L 1105.433326 158.532061 
L 1106.047185 158.099801 
L 1106.456425 157.877561 
L 1108.093383 156.32301 
L 1108.502622 156.032196 
L 1109.321101 154.948152 
L 1109.73034 154.839069 
L 1110.13958 154.389383 
L 1110.753439 153.636888 
L 1111.776538 152.907931 
L 1112.185777 152.396235 
L 1112.595017 151.215102 
L 1113.822735 146.106516 
L 1114.845834 140.301561 
L 1116.278172 131.164359 
L 1117.50589 127.003576 
L 1118.119749 123.550703 
L 1118.938228 117.1519 
L 1119.347468 112.921638 
L 1119.756707 106.86457 
L 1120.370566 93.417444 
L 1120.984425 72.613301 
L 1121.598285 41.418629 
L 1122.341094 -1 
M 1123.332314 -1 
L 1123.644482 16.863105 
L 1124.66758 78.984493 
L 1125.28144 100.895764 
L 1125.895299 113.480408 
L 1127.532257 135.329216 
L 1128.146116 141.231712 
L 1129.578454 151.759387 
L 1130.192313 154.353851 
L 1131.624651 158.198021 
L 1133.875468 161.857519 
L 1134.489327 161.849372 
L 1135.103187 162.211021 
L 1135.512426 162.029065 
L 1136.126285 161.723994 
L 1136.535525 161.802751 
L 1136.944764 162.053281 
L 1137.967863 163.082557 
L 1138.377102 163.16833 
L 1138.786342 163.006063 
L 1139.195581 162.79197 
L 1140.01406 162.907616 
L 1140.423299 163.309097 
L 1141.037159 164.247621 
L 1141.446398 164.463977 
L 1141.855638 164.49453 
L 1142.674116 164.003881 
L 1143.083356 164.378431 
L 1144.311074 165.988202 
L 1144.515694 165.958782 
L 1144.720314 165.716173 
L 1145.129553 164.736912 
L 1145.948032 162.708912 
L 1146.152652 162.527408 
L 1146.357272 162.533066 
L 1146.971131 163.026657 
L 1147.58499 163.376991 
L 1148.198849 163.367033 
L 1149.017328 163.310908 
L 1149.835807 163.404602 
L 1150.449666 163.228529 
L 1151.268145 162.818448 
L 1151.677384 162.840627 
L 1152.905103 163.430628 
L 1153.314342 163.033447 
L 1153.928201 162.288194 
L 1154.337441 162.310373 
L 1155.360539 162.75508 
L 1155.769779 162.546192 
L 1156.997497 161.237192 
L 1157.202117 161.28336 
L 1157.406737 161.507864 
L 1157.815976 162.498214 
L 1158.429835 164.385899 
L 1158.839075 165.056241 
L 1159.248314 165.358823 
L 1159.657554 165.605958 
L 1160.066793 165.918271 
L 1160.271413 165.876177 
L 1161.294512 165.007357 
L 1161.703751 165.302471 
L 1162.31761 166.041386 
L 1162.52223 166.08597 
L 1162.931469 165.682226 
L 1163.340709 165.307902 
L 1163.749948 165.496875 
L 1164.159188 165.778409 
L 1164.568427 165.81213 
L 1165.182286 165.701463 
L 1165.796146 165.711194 
L 1166.205385 165.299529 
L 1166.819244 164.595466 
L 1167.228484 164.47303 
L 1167.637723 164.542508 
L 1168.251582 165.004189 
L 1168.660822 165.188635 
L 1170.09316 165.166683 
L 1170.707019 165.526069 
L 1171.116258 165.900845 
L 1171.320878 165.939545 
L 1171.525498 165.786104 
L 1171.934737 164.947158 
L 1172.753216 163.016926 
L 1172.957836 162.739691 
L 1173.162456 162.654144 
L 1173.367075 162.800796 
L 1174.390174 164.40491 
L 1174.799414 164.49453 
L 1175.208653 164.264821 
L 1175.822512 163.79703 
L 1176.027132 163.784583 
L 1176.231752 163.947303 
L 1176.640991 164.850296 
L 1177.050231 165.672268 
L 1177.25485 165.733599 
L 1177.868709 165.377833 
L 1178.277949 165.584006 
L 1178.687188 165.760304 
L 1179.301048 165.588984 
L 1179.710287 165.81032 
L 1180.528766 166.453957 
L 1180.938005 166.38312 
L 1181.347245 166.089365 
L 1181.961104 165.18524 
L 1182.370343 164.621039 
L 1182.779583 164.445193 
L 1183.393442 164.799375 
L 1183.802682 165.36086 
L 1184.211921 166.037313 
L 1184.416541 166.172648 
L 1184.62116 166.105659 
L 1184.82578 165.911256 
L 1184.82578 165.911256 
" clip-path="url(#pf41f57a740)" style="fill: none; stroke: #000000; stroke-width: 2; stroke-linecap: square"/>
   </g>
   <g id="patch_3">
    <path d="M 3.00024 198.907885 
L 1184.99976 198.907885 
" style="fill: none; stroke: #000000; stroke-width: 2; stroke-linejoin: miter; stroke-linecap: square"/>
   </g>
  </g>
 </g>
 <defs>
  <clipPath id="pf41f57a740">
   <rect x="3.00024" y="3.00024" width="1181.99952" height="195.907645"/>
  </clipPath>
 </defs>
</svg>
