<?xml version="1.0" standalone="no" ?>
<!DOCTYPE svg PUBLIC "-//W3C//DTD SVG 1.1//EN" "http://www.w3.org/Graphics/SVG/1.1/DTD/svg11.dtd">
<svg width="286px" height="262px" viewBox="0 0 286 262" style="background-color: #ffffff00" xmlns="http://www.w3.org/2000/svg" xmlns:xlink="http://www.w3.org/1999/xlink" version="1.1" >
<path stroke="none" fill="#000000" transform="matrix(0.0833333 0 0 0.0833333 0.825 -447.833)" d="M 1511.79,7553.66 L 1521.6,7548 L 1531.41,7553.66 L 1531.41,8142.34 L 1521.6,8148 L 1511.79,8142.34 L 1511.79,7553.66 Z " />
<path stroke="none" fill="#000000" transform="matrix(0.0833333 0 0 0.0833333 0.825 -447.833)" d="M 1583.6,7589.57 L 1603.6,7589.57 L 1603.6,8106.43 L 1583.6,8106.43 L 1583.6,7589.57 Z " />
<path stroke="none" fill="#000000" transform="matrix(0.0833333 0 0 0.0833333 0.825 -447.833)" d="M 1521.6,8159.33 L 1521.6,8148 L 1531.41,8142.34 L 2041.2,8436.67 L 2041.2,8459.77 L 1521.6,8159.33 Z " />
<path stroke="none" fill="#000000" transform="matrix(0.0833333 0 0 0.0833333 0.825 -447.833)" d="M 2041.2,8459.77 L 2041.2,8436.67 L 2550.99,8142.34 L 2571,8153.89 L 2041.2,8459.77 Z " />
<path stroke="none" fill="#000000" transform="matrix(0.0833333 0 0 0.0833333 0.825 -447.833)" d="M 2046.2,8373.52 L 2036.2,8356.2 L 2483.8,8097.77 L 2493.8,8115.09 L 2046.2,8373.52 Z " />
<path stroke="none" fill="#000000" transform="matrix(0.0833333 0 0 0.0833333 0.825 -447.833)" d="M 2571,8153.89 L 2550.99,8142.34 L 2550.99,7553.66 L 2560.8,7548 L 2570.61,7553.6 L 2571,8153.89 Z " />
<path stroke="none" fill="#000000" transform="matrix(0.0833333 0 0 0.0833333 0.825 -447.833)" d="M 2560.85,7536.7 L 2560.8,7548 L 2550.99,7553.66 L 2041.2,7259.33 L 2041.2,7248 L 2051.01,7242.34 L 2560.85,7536.7 Z " />
<path stroke="none" fill="#000000" transform="matrix(0.0833333 0 0 0.0833333 0.825 -447.833)" d="M 2493.8,7580.91 L 2483.8,7598.23 L 2036.2,7339.8 L 2046.2,7322.48 L 2493.8,7580.91 Z " />
<path stroke="none" fill="#000000" transform="matrix(0.0833333 0 0 0.0833333 0.825 -447.833)" d="M 2031.39,7242.34 L 2041.2,7248 L 2041.2,7259.33 L 1531.41,7553.66 L 1521.6,7548 L 1521.6,7536.67 L 2031.39,7242.34 Z " />
<path stroke="none" fill="#000000" transform="matrix(0.0833333 0 0 0.0833333 0.825 -447.833)" d="M 1521.6,7536.67 L 1521.6,7548 L 1511.79,7553.66 L 1035.36,7277.13 L 974.522,7219.12 L 1521.6,7536.67 Z " />
<path stroke="none" fill="#000000" transform="matrix(0.0833333 0 0 0.0833333 0.825 -447.833)" d="M 974.522,7219.12 L 1035.36,7277.13 L 519.541,7569.44 L 439.064,7522.98 L 974.522,7219.12 Z " />
<path stroke="none" fill="#000000" transform="matrix(0.0833333 0 0 0.0833333 0.825 -447.833)" d="M 997,7357.12 L 1007,7374.44 L 589.398,7615.55 L 579.398,7598.23 L 997,7357.12 Z " />
<path stroke="none" fill="#000000" transform="matrix(0.0833333 0 0 0.0833333 0.825 -447.833)" d="M 439.064,7522.98 L 519.541,7569.44 L 519.541,8126.56 L 439.064,8173.02 L 439.064,7522.98 Z " />
<path stroke="none" fill="#000000" transform="matrix(0.0833333 0 0 0.0833333 0.825 -447.833)" d="M 439.064,8173.02 L 519.541,8126.56 L 1035.36,8418.87 L 974.522,8476.88 L 439.064,8173.02 Z " />
<path stroke="none" fill="#000000" transform="matrix(0.0833333 0 0 0.0833333 0.825 -447.833)" d="M 579.398,8097.77 L 589.398,8080.45 L 1007,8321.56 L 997,8338.88 L 579.398,8097.77 Z " />
<path stroke="none" fill="#000000" transform="matrix(0.0833333 0 0 0.0833333 0.825 -447.833)" d="M 974.522,8476.88 L 1035.36,8418.87 L 1511.79,8142.34 L 1521.6,8148 L 1521.6,8159.33 L 974.522,8476.88 Z " />
<path stroke="none" fill="#000000" transform="matrix(0.0833333 0 0 0.0833333 0.825 -447.833)" d="M 2051.01,7242.34 L 2041.2,7248 L 2031.39,7242.34 L 2031.39,6653.66 L 2041.2,6648 L 2049.75,6691.46 L 2051.01,7242.34 Z " />
<path stroke="none" fill="#000000" transform="matrix(0.0833333 0 0 0.0833333 0.825 -447.833)" d="M 2049.75,6691.46 L 2041.2,6648 L 2007.84,6618.87 L 2523.66,6326.56 L 2560.8,6348 L 2594.59,6376.95 L 2049.75,6691.46 Z " />
<path stroke="none" fill="#000000" transform="matrix(0.0833333 0 0 0.0833333 0.825 -447.833)" d="M 2046.2,6538.88 L 2036.2,6521.56 L 2453.8,6280.45 L 2463.8,6297.77 L 2046.2,6538.88 Z " />
<path stroke="none" fill="#000000" transform="matrix(0.0833333 0 0 0.0833333 0.825 -447.833)" d="M 2602.77,6362.79 L 2560.8,6348 L 2523.66,6326.56 L 2523.66,5769.44 L 2604.14,5722.98 L 2602.77,6362.79 Z " />
<path stroke="none" fill="#000000" transform="matrix(0.0833333 0 0 0.0833333 0.825 -447.833)" d="M 2604.14,5722.98 L 2523.66,5769.44 L 2007.84,5477.13 L 2068.68,5419.12 L 2604.14,5722.98 Z " />
<path stroke="none" fill="#000000" transform="matrix(0.0833333 0 0 0.0833333 0.825 -447.833)" d="M 2463.8,5798.23 L 2453.8,5815.55 L 2036.2,5574.44 L 2046.2,5557.12 L 2463.8,5798.23 Z " />
<path stroke="none" fill="#000000" transform="matrix(0.0833333 0 0 0.0833333 0.825 -447.833)" d="M 2068.68,5419.12 L 2007.84,5477.13 L 1531.41,5753.66 L 1521.6,5748 L 1521.6,5736.67 L 2068.68,5419.12 Z " />
<path stroke="none" fill="#000000" transform="matrix(0.0833333 0 0 0.0833333 0.825 -447.833)" d="M 1511.79,5753.66 L 1521.6,5748 L 1531.41,5753.66 L 1531.41,6342.34 L 1521.6,6348 L 1511.79,6342.34 L 1511.79,5753.66 Z " />
<path stroke="none" fill="#000000" transform="matrix(0.0833333 0 0 0.0833333 0.825 -447.833)" d="M 1583.6,5789.57 L 1603.6,5789.57 L 1603.6,6306.43 L 1583.6,6306.43 L 1583.6,5789.57 Z " />
<path stroke="none" fill="#000000" transform="matrix(0.0833333 0 0 0.0833333 0.825 -447.833)" d="M 1521.6,6359.33 L 1521.6,6348 L 1531.41,6342.34 L 2007.84,6618.87 L 2041.2,6648 L 2031.39,6653.66 L 1521.6,6359.33 Z " />
<path stroke="none" fill="#000000" transform="matrix(0.0833333 0 0 0.0833333 0.825 -447.833)" d="M 1521.6,5736.67 L 1521.6,5748 L 1511.79,5753.66 L 1002,5459.33 L 1002,5436.23 L 1521.6,5736.67 Z " />
<path stroke="none" fill="#000000" transform="matrix(0.0833333 0 0 0.0833333 0.825 -447.833)" d="M 1002,5436.23 L 1002,5459.33 L 492.211,5753.66 L 472.204,5742.11 L 1002,5436.23 Z " />
<path stroke="none" fill="#000000" transform="matrix(0.0833333 0 0 0.0833333 0.825 -447.833)" d="M 997,5522.48 L 1007,5539.8 L 559.398,5798.23 L 549.398,5780.91 L 997,5522.48 Z " />
<path stroke="none" fill="#000000" transform="matrix(0.0833333 0 0 0.0833333 0.825 -447.833)" d="M 472.204,5742.11 L 492.211,5753.66 L 492.211,6342.34 L 472.204,6353.89 L 472.204,5742.11 Z " />
<path stroke="none" fill="#000000" transform="matrix(0.0833333 0 0 0.0833333 0.825 -447.833)" d="M 472.204,6353.89 L 492.211,6342.34 L 1002,6636.67 L 1002,6659.77 L 472.204,6353.89 Z " />
<path stroke="none" fill="#000000" transform="matrix(0.0833333 0 0 0.0833333 0.825 -447.833)" d="M 549.398,6315.09 L 559.398,6297.77 L 1007,6556.2 L 997,6573.52 L 549.398,6315.09 Z " />
<path stroke="none" fill="#000000" transform="matrix(0.0833333 0 0 0.0833333 0.825 -447.833)" d="M 1002,6659.77 L 1002,6636.67 L 1511.79,6342.34 L 1521.6,6348 L 1521.6,6359.33 L 1002,6659.77 Z " />
<text x="0" y="0" stroke="none" fill="#000000" transform="matrix(0.0833333 0 0 0.0833333 251.507 112.667)" font-style="normal" font-weight="normal" font-size="200px" font-family="Arial" >
NH</text>
<text x="0" y="0" stroke="none" fill="#000000" transform="matrix(0.0833333 0 0 0.0833333 275.579 116.333)" font-style="normal" font-weight="normal" font-size="150px" font-family="Arial" >
2</text>
<path stroke="none" fill="#000000" transform="matrix(0.0833333 0 0 0.0833333 0.825 -447.833)" d="M 2594.59,6376.95 L 2560.8,6348 L 2602.77,6362.79 L 2981.46,6579.33 L 2971.46,6596.65 L 2594.59,6376.95 Z " />
<text x="0" y="0" stroke="none" fill="#000000" transform="matrix(0.0833333 0 0 0.0833333 251.507 162.667)" font-style="normal" font-weight="normal" font-size="200px" font-family="Arial" >
NH</text>
<text x="0" y="0" stroke="none" fill="#000000" transform="matrix(0.0833333 0 0 0.0833333 275.579 166.333)" font-style="normal" font-weight="normal" font-size="150px" font-family="Arial" >
2</text>
<path stroke="none" fill="#000000" transform="matrix(0.0833333 0 0 0.0833333 0.825 -447.833)" d="M 2570.61,7553.6 L 2560.8,7548 L 2560.85,7536.7 L 2964.24,7303.52 L 2974.24,7320.84 L 2570.61,7553.6 Z " />
<text x="0" y="0" stroke="none" fill="#000000" transform="matrix(0.0833333 0 0 0.0833333 3.925 147.167)" font-style="normal" font-weight="bold" font-size="440px" font-family="Arial" >
14</text>
</svg>
