<?xml version="1.0" standalone="no" ?>
<!DOCTYPE svg PUBLIC "-//W3C//DTD SVG 1.1//EN" "http://www.w3.org/Graphics/SVG/1.1/DTD/svg11.dtd">
<svg width="318px" height="79px" viewBox="0 0 318 79" style="background-color: #ffffff00" xmlns="http://www.w3.org/2000/svg" xmlns:xlink="http://www.w3.org/1999/xlink" version="1.1" >
<text x="0" y="0" stroke="none" fill="#000000" transform="matrix(0.0833333 0 0 0.0833333 152.743 46.3333)" font-style="normal" font-weight="normal" font-size="200px" font-family="Arial" >
O</text>
<path stroke="none" fill="#000000" transform="matrix(0.0833333 0 0 0.0833333 -247.175 -625.167)" d="M 4357.24,8291.8 L 4357.25,8268.7 L 4772.36,8028.75 L 4782.36,8046.07 L 4357.24,8291.8 Z " />
<path stroke="none" fill="#000000" transform="matrix(0.0833333 0 0 0.0833333 -247.175 -625.167)" d="M 4972,8046.51 L 4982,8029.19 L 5396.35,8268.7 L 5396.36,8291.8 L 4972,8046.51 Z " />
<path stroke="none" fill="#000000" transform="matrix(0.0833333 0 0 0.0833333 -247.175 -625.167)" d="M 5396.36,8291.8 L 5396.35,8268.7 L 5916.05,7968.2 L 5916.05,7991.3 L 5396.36,8291.8 Z " />
<path stroke="none" fill="#000000" transform="matrix(0.0833333 0 0 0.0833333 -247.175 -625.167)" d="M 4357.25,8268.7 L 4357.24,8291.8 L 3837.55,7991.3 L 3837.55,7968.2 L 4357.25,8268.7 Z " />
<text x="0" y="0" stroke="none" fill="#000000" transform="matrix(0.0833333 0 0 0.0833333 283.107 71.3333)" font-style="normal" font-weight="normal" font-size="200px" font-family="Arial" >
NH</text>
<text x="0" y="0" stroke="none" fill="#000000" transform="matrix(0.0833333 0 0 0.0833333 307.179 75)" font-style="normal" font-weight="normal" font-size="150px" font-family="Arial" >
2</text>
<path stroke="none" fill="#000000" transform="matrix(0.0833333 0 0 0.0833333 -247.175 -625.167)" d="M 5916.05,7991.3 L 5916.05,7968.2 L 6336.66,8211.33 L 6326.66,8228.65 L 5916.05,7991.3 Z " />
<text x="0" y="0" stroke="none" fill="#000000" transform="matrix(0.0833333 0 0 0.0833333 4.31889 71.3333)" font-style="normal" font-weight="normal" font-size="200px" font-family="Arial" >
H</text>
<text x="0" y="0" stroke="none" fill="#000000" transform="matrix(0.0833333 0 0 0.0833333 16.355 75)" font-style="normal" font-weight="normal" font-size="150px" font-family="Arial" >
2</text>
<text x="0" y="0" stroke="none" fill="#000000" transform="matrix(0.0833333 0 0 0.0833333 23.3069 71.3333)" font-style="normal" font-weight="normal" font-size="200px" font-family="Arial" >
N</text>
<path stroke="none" fill="#000000" transform="matrix(0.0833333 0 0 0.0833333 -247.175 -625.167)" d="M 3837.55,7968.2 L 3837.55,7991.3 L 3425.97,8229.21 L 3415.97,8211.89 L 3837.55,7968.2 Z " />
<text x="0" y="0" stroke="none" fill="#000000" transform="matrix(0.0833333 0 0 0.0833333 183.925 36.8333)" font-style="normal" font-weight="bold" font-size="440px" font-family="Arial" >
22</text>
</svg>
