<?xml version="1.0" standalone="no" ?>
<!DOCTYPE svg PUBLIC "-//W3C//DTD SVG 1.1//EN" "http://www.w3.org/Graphics/SVG/1.1/DTD/svg11.dtd">
<svg width="273px" height="116px" viewBox="0 0 273 116" style="background-color: #ffffff00" xmlns="http://www.w3.org/2000/svg" xmlns:xlink="http://www.w3.org/1999/xlink" version="1.1" >
<path stroke="none" fill="#000000" transform="matrix(0.0833333 0 0 0.0833333 -248.175 -482.667)" d="M 4592.4,7118.47 L 4592.4,7141.57 L 4072.8,6841.13 L 4072.8,6829.8 L 4082.61,6824.14 L 4592.4,7118.47 Z " />
<path stroke="none" fill="#000000" transform="matrix(0.0833333 0 0 0.0833333 -248.175 -482.667)" d="M 5102.19,6824.14 L 5122.2,6835.69 L 4592.4,7141.57 L 4592.4,7118.47 L 5102.19,6824.14 Z " />
<path stroke="none" fill="#000000" transform="matrix(0.0833333 0 0 0.0833333 -248.175 -482.667)" d="M 5035,6779.57 L 5045,6796.89 L 4597.4,7055.32 L 4587.4,7038 L 5035,6779.57 Z " />
<path stroke="none" fill="#000000" transform="matrix(0.0833333 0 0 0.0833333 -248.175 -482.667)" d="M 5102.19,6235.4 L 5112,6229.8 L 5121.81,6235.46 L 5122.2,6835.69 L 5102.19,6824.14 L 5102.19,6235.4 Z " />
<path stroke="none" fill="#000000" transform="matrix(0.0833333 0 0 0.0833333 -248.175 -482.667)" d="M 4697.36,6001.95 L 4707.36,5984.63 L 5111.95,6218.5 L 5112,6229.8 L 5102.19,6235.4 L 4697.36,6001.95 Z " />
<path stroke="none" fill="#000000" transform="matrix(0.0833333 0 0 0.0833333 -248.175 -482.667)" d="M 4661.36,6064.3 L 4671.36,6046.98 L 5045,6262.71 L 5035,6280.03 L 4661.36,6064.3 Z " />
<path stroke="none" fill="#000000" transform="matrix(0.0833333 0 0 0.0833333 -248.175 -482.667)" d="M 4082.61,6235.4 L 4072.8,6229.8 L 4072.85,6218.5 L 4477.11,5984.82 L 4487.11,6002.14 L 4082.61,6235.4 Z " />
<text x="0" y="0" stroke="none" fill="#000000" transform="matrix(0.0833333 0 0 0.0833333 128.507 17.9833)" font-style="normal" font-weight="normal" font-size="200px" font-family="Arial" >
N</text>
<path stroke="none" fill="#000000" transform="matrix(0.0833333 0 0 0.0833333 -248.175 -482.667)" d="M 3553.2,7118.47 L 3553.2,7141.57 L 3023.4,6835.69 L 3043.41,6824.14 L 3553.2,7118.47 Z " />
<path stroke="none" fill="#000000" transform="matrix(0.0833333 0 0 0.0833333 -248.175 -482.667)" d="M 4062.99,6824.14 L 4072.8,6829.8 L 4072.8,6841.13 L 3553.2,7141.57 L 3553.2,7118.47 L 4062.99,6824.14 Z " />
<path stroke="none" fill="#000000" transform="matrix(0.0833333 0 0 0.0833333 -248.175 -482.667)" d="M 3995.8,6779.57 L 4005.8,6796.89 L 3558.2,7055.32 L 3548.2,7038 L 3995.8,6779.57 Z " />
<path stroke="none" fill="#000000" transform="matrix(0.0833333 0 0 0.0833333 -248.175 -482.667)" d="M 4062.99,6235.46 L 4072.8,6229.8 L 4082.61,6235.4 L 4082.61,6824.14 L 4072.8,6829.8 L 4062.99,6824.14 L 4062.99,6235.46 Z " />
<path stroke="none" fill="#000000" transform="matrix(0.0833333 0 0 0.0833333 -248.175 -482.667)" d="M 3553.2,5941.13 L 3553.2,5918.03 L 4072.85,6218.5 L 4072.8,6229.8 L 4062.99,6235.46 L 3553.2,5941.13 Z " />
<path stroke="none" fill="#000000" transform="matrix(0.0833333 0 0 0.0833333 -248.175 -482.667)" d="M 3548.2,6021.6 L 3558.2,6004.28 L 4005.8,6262.71 L 3995.8,6280.03 L 3548.2,6021.6 Z " />
<path stroke="none" fill="#000000" transform="matrix(0.0833333 0 0 0.0833333 -248.175 -482.667)" d="M 3043.41,6235.46 L 3023.4,6223.91 L 3553.2,5918.03 L 3553.2,5941.13 L 3043.41,6235.46 Z " />
<path stroke="none" fill="#000000" transform="matrix(0.0833333 0 0 0.0833333 -248.175 -482.667)" d="M 3043.41,6824.14 L 3023.4,6835.69 L 3023.4,6223.91 L 3043.41,6235.46 L 3043.41,6824.14 Z " />
<path stroke="none" fill="#000000" transform="matrix(0.0833333 0 0 0.0833333 -248.175 -482.667)" d="M 3115.6,6788.23 L 3095.6,6788.23 L 3095.6,6271.37 L 3115.6,6271.37 L 3115.6,6788.23 Z " />
<path stroke="none" fill="#000000" transform="matrix(0.0833333 0 0 0.0833333 -248.175 -482.667)" d="M 5121.81,6235.46 L 5112,6229.8 L 5111.95,6218.5 L 5631.64,5918 L 5631.64,5941.11 L 5121.81,6235.46 Z " />
<text x="0" y="0" stroke="none" fill="#000000" transform="matrix(0.0833333 0 0 0.0833333 256.443 45.5813)" font-style="normal" font-weight="normal" font-size="200px" font-family="Arial" >
O</text>
<path stroke="none" fill="#000000" transform="matrix(0.0833333 0 0 0.0833333 -248.175 -482.667)" d="M 5631.64,5941.11 L 5631.64,5918 L 6063.74,6167.76 L 6053.74,6185.08 L 5631.64,5941.11 Z " />
<path stroke="none" fill="#000000" transform="matrix(0.0833333 0 0 0.0833333 -248.175 -482.667)" d="M 5626.6,6021.6 L 5636.6,6004.28 L 6027.74,6230.11 L 6017.74,6247.43 L 5626.6,6021.6 Z " />
<text x="0" y="0" stroke="none" fill="#000000" transform="matrix(0.0833333 0 0 0.0833333 208.925 89.3333)" font-style="normal" font-weight="bold" font-size="440px" font-family="Arial" >
4</text>
</svg>
