<?xml version="1.0" standalone="no" ?>
<!DOCTYPE svg PUBLIC "-//W3C//DTD SVG 1.1//EN" "http://www.w3.org/Graphics/SVG/1.1/DTD/svg11.dtd">
<svg width="404px" height="121px" viewBox="0 0 404 121" style="background-color: #ffffff00" xmlns="http://www.w3.org/2000/svg" xmlns:xlink="http://www.w3.org/1999/xlink" version="1.1" >
<text x="0" y="0" stroke="none" fill="#000000" transform="matrix(0.0833333 0 0 0.0833333 195.443 117.417)" font-style="normal" font-weight="normal" font-size="200px" font-family="Arial" >
O</text>
<path stroke="none" fill="#000000" transform="matrix(0.0833333 0 0 0.0833333 -204.175 -558.083)" d="M 4970.98,7983.09 L 4960.98,7965.77 L 5382.99,7722.39 L 5392.8,7728 L 5392.76,7739.31 L 4970.98,7983.09 Z " />
<path stroke="none" fill="#000000" transform="matrix(0.0833333 0 0 0.0833333 -204.175 -558.083)" d="M 4785.74,7965.96 L 4775.74,7983.28 L 4353.64,7739.31 L 4353.6,7728 L 4363.41,7722.38 L 4785.74,7965.96 Z " />
<path stroke="none" fill="#000000" transform="matrix(0.0833333 0 0 0.0833333 -204.175 -558.083)" d="M 4363.41,7722.38 L 4353.6,7728 L 4343.79,7722.34 L 4343.79,7133.66 L 4363.8,7122.11 L 4363.41,7722.38 Z " />
<path stroke="none" fill="#000000" transform="matrix(0.0833333 0 0 0.0833333 -204.175 -558.083)" d="M 4291.6,7686.43 L 4271.6,7686.43 L 4271.6,7169.57 L 4291.6,7169.57 L 4291.6,7686.43 Z " />
<path stroke="none" fill="#000000" transform="matrix(0.0833333 0 0 0.0833333 -204.175 -558.083)" d="M 4363.8,7122.11 L 4343.79,7133.66 L 3834,6839.33 L 3834,6816.23 L 4363.8,7122.11 Z " />
<path stroke="none" fill="#000000" transform="matrix(0.0833333 0 0 0.0833333 -204.175 -558.083)" d="M 3834,6816.23 L 3834,6839.33 L 3324.21,7133.66 L 3314.4,7128 L 3314.35,7116.7 L 3834,6816.23 Z " />
<path stroke="none" fill="#000000" transform="matrix(0.0833333 0 0 0.0833333 -204.175 -558.083)" d="M 3829,6902.48 L 3839,6919.8 L 3391.4,7178.23 L 3381.4,7160.91 L 3829,6902.48 Z " />
<path stroke="none" fill="#000000" transform="matrix(0.0833333 0 0 0.0833333 -204.175 -558.083)" d="M 3304.59,7133.6 L 3314.4,7128 L 3324.21,7133.66 L 3324.21,7722.34 L 3304.2,7733.89 L 3304.59,7133.6 Z " />
<path stroke="none" fill="#000000" transform="matrix(0.0833333 0 0 0.0833333 -204.175 -558.083)" d="M 3304.2,7733.89 L 3324.21,7722.34 L 3834,8016.67 L 3834,8039.77 L 3304.2,7733.89 Z " />
<path stroke="none" fill="#000000" transform="matrix(0.0833333 0 0 0.0833333 -204.175 -558.083)" d="M 3381.4,7695.09 L 3391.4,7677.77 L 3839,7936.2 L 3829,7953.52 L 3381.4,7695.09 Z " />
<path stroke="none" fill="#000000" transform="matrix(0.0833333 0 0 0.0833333 -204.175 -558.083)" d="M 3834,8039.77 L 3834,8016.67 L 4343.79,7722.34 L 4353.6,7728 L 4353.64,7739.31 L 3834,8039.77 Z " />
<path stroke="none" fill="#000000" transform="matrix(0.0833333 0 0 0.0833333 -204.175 -558.083)" d="M 5392.76,7739.31 L 5392.8,7728 L 5402.61,7722.34 L 5912.4,8016.67 L 5912.4,8039.77 L 5392.76,7739.31 Z " />
<path stroke="none" fill="#000000" transform="matrix(0.0833333 0 0 0.0833333 -204.175 -558.083)" d="M 5459.8,7695.09 L 5469.8,7677.77 L 5917.4,7936.2 L 5907.4,7953.52 L 5459.8,7695.09 Z " />
<path stroke="none" fill="#000000" transform="matrix(0.0833333 0 0 0.0833333 -204.175 -558.083)" d="M 5912.4,8039.77 L 5912.4,8016.67 L 6422.19,7722.34 L 6442.2,7733.89 L 5912.4,8039.77 Z " />
<path stroke="none" fill="#000000" transform="matrix(0.0833333 0 0 0.0833333 -204.175 -558.083)" d="M 6442.2,7733.89 L 6422.19,7722.34 L 6422.19,7133.66 L 6432,7128 L 6441.81,7133.6 L 6442.2,7733.89 Z " />
<path stroke="none" fill="#000000" transform="matrix(0.0833333 0 0 0.0833333 -204.175 -558.083)" d="M 6370,7686.43 L 6350,7686.43 L 6350,7169.57 L 6370,7169.57 L 6370,7686.43 Z " />
<path stroke="none" fill="#000000" transform="matrix(0.0833333 0 0 0.0833333 -204.175 -558.083)" d="M 6432.05,7116.7 L 6432,7128 L 6422.19,7133.66 L 5912.4,6839.33 L 5912.4,6816.23 L 6432.05,7116.7 Z " />
<path stroke="none" fill="#000000" transform="matrix(0.0833333 0 0 0.0833333 -204.175 -558.083)" d="M 5912.4,6816.23 L 5912.4,6839.33 L 5402.61,7133.66 L 5382.6,7122.11 L 5912.4,6816.23 Z " />
<path stroke="none" fill="#000000" transform="matrix(0.0833333 0 0 0.0833333 -204.175 -558.083)" d="M 5907.4,6902.48 L 5917.4,6919.8 L 5469.8,7178.23 L 5459.8,7160.91 L 5907.4,6902.48 Z " />
<path stroke="none" fill="#000000" transform="matrix(0.0833333 0 0 0.0833333 -204.175 -558.083)" d="M 5382.6,7122.11 L 5402.61,7133.66 L 5402.61,7722.34 L 5392.8,7728 L 5382.99,7722.39 L 5382.6,7122.11 Z " />
<text x="0" y="0" stroke="none" fill="#000000" transform="matrix(0.0833333 0 0 0.0833333 3.71888 17.4167)" font-style="normal" font-weight="normal" font-size="200px" font-family="Arial" >
H</text>
<text x="0" y="0" stroke="none" fill="#000000" transform="matrix(0.0833333 0 0 0.0833333 15.755 21.0833)" font-style="normal" font-weight="normal" font-size="150px" font-family="Arial" >
2</text>
<text x="0" y="0" stroke="none" fill="#000000" transform="matrix(0.0833333 0 0 0.0833333 22.7069 17.4167)" font-style="normal" font-weight="normal" font-size="200px" font-family="Arial" >
N</text>
<path stroke="none" fill="#000000" transform="matrix(0.0833333 0 0 0.0833333 -204.175 -558.083)" d="M 3314.35,7116.7 L 3314.4,7128 L 3304.59,7133.6 L 2899.99,6900.28 L 2909.99,6882.96 L 3314.35,7116.7 Z " />
<text x="0" y="0" stroke="none" fill="#000000" transform="matrix(0.0833333 0 0 0.0833333 369.107 17.4167)" font-style="normal" font-weight="normal" font-size="200px" font-family="Arial" >
NH</text>
<text x="0" y="0" stroke="none" fill="#000000" transform="matrix(0.0833333 0 0 0.0833333 393.179 21.0833)" font-style="normal" font-weight="normal" font-size="150px" font-family="Arial" >
2</text>
<path stroke="none" fill="#000000" transform="matrix(0.0833333 0 0 0.0833333 -204.175 -558.083)" d="M 6441.81,7133.6 L 6432,7128 L 6432.05,7116.7 L 6835.44,6883.52 L 6845.44,6900.84 L 6441.81,7133.6 Z " />
<text x="0" y="0" stroke="none" fill="#000000" transform="matrix(0.0833333 0 0 0.0833333 180.925 67.9167)" font-style="normal" font-weight="bold" font-size="440px" font-family="Arial" >
15</text>
</svg>
