<?xml version="1.0" standalone="no" ?>
<!DOCTYPE svg PUBLIC "-//W3C//DTD SVG 1.1//EN" "http://www.w3.org/Graphics/SVG/1.1/DTD/svg11.dtd">
<svg width="237px" height="116px" viewBox="0 0 237 116" style="background-color: #ffffff00" xmlns="http://www.w3.org/2000/svg" xmlns:xlink="http://www.w3.org/1999/xlink" version="1.1" >
<text x="0" y="0" stroke="none" fill="#000000" transform="matrix(0.0833333 0 0 0.0833333 122.89 23.7167)" font-style="normal" font-weight="normal" font-size="200px" font-family="Arial" >
N</text>
<path stroke="none" fill="#000000" transform="matrix(0.0833333 0 0 0.0833333 -191.175 -538.5)" d="M 3744.78,6658.6 L 3744.78,6678.6 L 3246.69,6678.37 L 3235.13,6658.37 L 3744.78,6658.6 Z " />
<path stroke="none" fill="#000000" transform="matrix(0.0833333 0 0 0.0833333 -191.175 -538.5)" d="M 3744.78,6730.6 L 3744.78,6750.6 L 3282.57,6750.6 L 3282.57,6730.6 L 3744.78,6730.6 Z " />
<path stroke="none" fill="#000000" transform="matrix(0.0833333 0 0 0.0833333 -191.175 -538.5)" d="M 3235.13,6658.37 L 3246.69,6678.37 L 2952.33,7188.2 L 2941,7188.2 L 2935.34,7178.39 L 3235.13,6658.37 Z " />
<path stroke="none" fill="#000000" transform="matrix(0.0833333 0 0 0.0833333 -191.175 -538.5)" d="M 2935.34,7198.01 L 2941,7188.2 L 2952.33,7188.2 L 3246.66,7697.99 L 3235.11,7718 L 2935.34,7198.01 Z " />
<path stroke="none" fill="#000000" transform="matrix(0.0833333 0 0 0.0833333 -191.175 -538.5)" d="M 3015.48,7193.2 L 3032.8,7183.2 L 3291.23,7630.8 L 3273.91,7640.8 L 3015.48,7193.2 Z " />
<path stroke="none" fill="#000000" transform="matrix(0.0833333 0 0 0.0833333 -191.175 -538.5)" d="M 3235.11,7718 L 3246.66,7697.99 L 3835.34,7697.99 L 3846.89,7718 L 3235.11,7718 Z " />
<path stroke="none" fill="#000000" transform="matrix(0.0833333 0 0 0.0833333 -191.175 -538.5)" d="M 3846.89,7718 L 3835.34,7697.99 L 4129.7,7188.14 L 4141,7188.2 L 4146.66,7198.01 L 3846.89,7718 Z " />
<path stroke="none" fill="#000000" transform="matrix(0.0833333 0 0 0.0833333 -191.175 -538.5)" d="M 3808.09,7640.8 L 3790.77,7630.8 L 4049.2,7183.2 L 4066.52,7193.2 L 3808.09,7640.8 Z " />
<path stroke="none" fill="#000000" transform="matrix(0.0833333 0 0 0.0833333 -191.175 -538.5)" d="M 4146.6,7178.39 L 4141,7188.2 L 4129.7,7188.14 L 3899.77,6790.4 L 3917.09,6780.39 L 4146.6,7178.39 Z " />
<path stroke="none" fill="#000000" transform="matrix(0.0833333 0 0 0.0833333 -191.175 -538.5)" d="M 2935.34,7178.39 L 2941,7188.2 L 2935.34,7198.01 L 2341,7198.2 L 2341,7178.2 L 2935.34,7178.39 Z " />
<path stroke="none" fill="#000000" transform="matrix(0.0833333 0 0 0.0833333 -191.175 -538.5)" d="M 4146.66,7198.01 L 4141,7188.2 L 4146.6,7178.39 L 4746.93,7178 L 4735.38,7198.01 L 4146.66,7198.01 Z " />
<text x="0" y="0" stroke="none" fill="#000000" transform="matrix(0.0833333 0 0 0.0833333 219.828 111.817)" font-style="normal" font-weight="normal" font-size="200px" font-family="Arial" >
O</text>
<path stroke="none" fill="#000000" transform="matrix(0.0833333 0 0 0.0833333 -191.175 -538.5)" d="M 4735.38,7198.01 L 4746.93,7178 L 4996.46,7610.66 L 4979.14,7620.66 L 4735.38,7198.01 Z " />
<path stroke="none" fill="#000000" transform="matrix(0.0833333 0 0 0.0833333 -191.175 -538.5)" d="M 4690.77,7265.2 L 4708.09,7255.2 L 4934.11,7646.66 L 4916.79,7656.66 L 4690.77,7265.2 Z " />
<text x="0" y="0" stroke="none" fill="#000000" transform="matrix(0.0833333 0 0 0.0833333 166.925 36.5)" font-style="normal" font-weight="bold" font-size="440px" font-family="Arial" >
3</text>
</svg>
