<?xml version="1.0" standalone="no" ?>
<!DOCTYPE svg PUBLIC "-//W3C//DTD SVG 1.1//EN" "http://www.w3.org/Graphics/SVG/1.1/DTD/svg11.dtd">
<svg width="186px" height="165px" viewBox="0 0 186 165" style="background-color: #ffffff00" xmlns="http://www.w3.org/2000/svg" xmlns:xlink="http://www.w3.org/1999/xlink" version="1.1" >
<text x="0" y="0" stroke="none" fill="#000000" transform="matrix(0.0833333 0 0 0.0833333 85.9069 111.25)" font-style="normal" font-weight="normal" font-size="200px" font-family="Arial" >
N</text>
<path stroke="none" fill="#000000" transform="matrix(0.0833333 0 0 0.0833333 -110.175 -549.25)" d="M 1895.4,6942.11 L 1915.41,6953.66 L 1915.41,7542.39 L 1905.6,7548 L 1895.79,7542.34 L 1895.4,6942.11 Z " />
<path stroke="none" fill="#000000" transform="matrix(0.0833333 0 0 0.0833333 -110.175 -549.25)" d="M 1967.6,6989.57 L 1987.6,6989.57 L 1987.6,7506.43 L 1967.6,7506.43 L 1967.6,6989.57 Z " />
<path stroke="none" fill="#000000" transform="matrix(0.0833333 0 0 0.0833333 -110.175 -549.25)" d="M 1905.65,7559.3 L 1905.6,7548 L 1915.41,7542.39 L 2326.26,7779.33 L 2316.26,7796.65 L 1905.65,7559.3 Z " />
<path stroke="none" fill="#000000" transform="matrix(0.0833333 0 0 0.0833333 -110.175 -549.25)" d="M 2533.81,7796.84 L 2523.81,7779.52 L 2934.99,7542.39 L 2944.8,7548 L 2944.75,7559.3 L 2533.81,7796.84 Z " />
<path stroke="none" fill="#000000" transform="matrix(0.0833333 0 0 0.0833333 -110.175 -549.25)" d="M 2497.81,7734.49 L 2487.81,7717.16 L 2867.8,7497.77 L 2877.8,7515.09 L 2497.81,7734.49 Z " />
<path stroke="none" fill="#000000" transform="matrix(0.0833333 0 0 0.0833333 -110.175 -549.25)" d="M 2954.61,7542.34 L 2944.8,7548 L 2934.99,7542.39 L 2934.99,6953.66 L 2955,6942.11 L 2954.61,7542.34 Z " />
<path stroke="none" fill="#000000" transform="matrix(0.0833333 0 0 0.0833333 -110.175 -549.25)" d="M 2955,6942.11 L 2934.99,6953.66 L 2425.2,6659.33 L 2425.2,6636.23 L 2955,6942.11 Z " />
<path stroke="none" fill="#000000" transform="matrix(0.0833333 0 0 0.0833333 -110.175 -549.25)" d="M 2877.8,6980.91 L 2867.8,6998.23 L 2420.2,6739.8 L 2430.2,6722.48 L 2877.8,6980.91 Z " />
<path stroke="none" fill="#000000" transform="matrix(0.0833333 0 0 0.0833333 -110.175 -549.25)" d="M 2425.2,6636.23 L 2425.2,6659.33 L 1915.41,6953.66 L 1895.4,6942.11 L 2425.2,6636.23 Z " />
<path stroke="none" fill="#000000" transform="matrix(0.0833333 0 0 0.0833333 -110.175 -549.25)" d="M 1895.79,7542.34 L 1905.6,7548 L 1905.65,7559.3 L 1391,7856.66 L 1381,7839.34 L 1895.79,7542.34 Z " />
<path stroke="none" fill="#000000" transform="matrix(0.0833333 0 0 0.0833333 -110.175 -549.25)" d="M 2944.75,7559.3 L 2944.8,7548 L 2954.61,7542.34 L 3474.64,7842.13 L 3454.63,7853.69 L 2944.75,7559.3 Z " />
<text x="0" y="0" stroke="none" fill="#000000" transform="matrix(0.0833333 0 0 0.0833333 169.043 161.25)" font-style="normal" font-weight="normal" font-size="200px" font-family="Arial" >
O</text>
<path stroke="none" fill="#000000" transform="matrix(0.0833333 0 0 0.0833333 -110.175 -549.25)" d="M 3454.63,7853.69 L 3474.64,7842.13 L 3474.4,8342.83 L 3454.4,8342.83 L 3454.63,7853.69 Z " />
<path stroke="none" fill="#000000" transform="matrix(0.0833333 0 0 0.0833333 -110.175 -549.25)" d="M 3382.4,7889.57 L 3402.4,7889.57 L 3402.4,8342.83 L 3382.4,8342.83 L 3382.4,7889.57 Z " />
<text x="0" y="0" stroke="none" fill="#000000" transform="matrix(0.0833333 0 0 0.0833333 3.925 72.75)" font-style="normal" font-weight="bold" font-size="440px" font-family="Arial" >
8</text>
</svg>
