<?xml version="1.0" standalone="no" ?>
<!DOCTYPE svg PUBLIC "-//W3C//DTD SVG 1.1//EN" "http://www.w3.org/Graphics/SVG/1.1/DTD/svg11.dtd">
<svg width="273px" height="185px" viewBox="0 0 273 185" style="background-color: #ffffff00" xmlns="http://www.w3.org/2000/svg" xmlns:xlink="http://www.w3.org/1999/xlink" version="1.1" >
<path stroke="none" fill="#000000" transform="matrix(0.0833333 0 0 0.0833333 -297.175 -704)" d="M 6219.64,9416.11 L 6219.64,9393 L 6651.74,9642.76 L 6641.74,9660.08 L 6219.64,9416.11 Z " />
<path stroke="none" fill="#000000" transform="matrix(0.0833333 0 0 0.0833333 -297.175 -704)" d="M 6214.6,9496.6 L 6224.6,9479.28 L 6615.74,9705.11 L 6605.74,9722.43 L 6214.6,9496.6 Z " />
<text x="0" y="0" stroke="none" fill="#000000" transform="matrix(0.0833333 0 0 0.0833333 256.443 113.831)" font-style="normal" font-weight="normal" font-size="200px" font-family="Arial" >
O</text>
<path stroke="none" fill="#000000" transform="matrix(0.0833333 0 0 0.0833333 -297.175 -704)" d="M 5709.81,9710.46 L 5700,9704.8 L 5699.95,9693.5 L 6219.64,9393 L 6219.64,9416.11 L 5709.81,9710.46 Z " />
<path stroke="none" fill="#000000" transform="matrix(0.0833333 0 0 0.0833333 -297.175 -704)" d="M 4053.74,8742.76 L 4043.74,8760.08 L 3616.6,8513.46 L 3626.6,8496.14 L 4053.74,8742.76 Z " />
<path stroke="none" fill="#000000" transform="matrix(0.0833333 0 0 0.0833333 -297.175 -704)" d="M 4150.96,9399.11 L 4141.2,9404.8 L 4131.44,9399.11 L 4131.2,8924.63 L 4151.2,8924.63 L 4150.96,9399.11 Z " />
<text x="0" y="0" stroke="none" fill="#000000" transform="matrix(0.0833333 0 0 0.0833333 41.4431 36.2333)" font-style="normal" font-weight="normal" font-size="200px" font-family="Arial" >
O</text>
<path stroke="none" fill="#000000" transform="matrix(0.0833333 0 0 0.0833333 -297.175 -704)" d="M 5180.4,10593.5 L 5180.4,10616.6 L 4660.8,10316.1 L 4660.8,10304.8 L 4670.61,10299.1 L 5180.4,10593.5 Z " />
<path stroke="none" fill="#000000" transform="matrix(0.0833333 0 0 0.0833333 -297.175 -704)" d="M 5690.19,10299.1 L 5710.2,10310.7 L 5180.4,10616.6 L 5180.4,10593.5 L 5690.19,10299.1 Z " />
<path stroke="none" fill="#000000" transform="matrix(0.0833333 0 0 0.0833333 -297.175 -704)" d="M 5623,10254.6 L 5633,10271.9 L 5185.4,10530.3 L 5175.4,10513 L 5623,10254.6 Z " />
<path stroke="none" fill="#000000" transform="matrix(0.0833333 0 0 0.0833333 -297.175 -704)" d="M 5690.19,9710.4 L 5700,9704.8 L 5709.81,9710.46 L 5710.2,10310.7 L 5690.19,10299.1 L 5690.19,9710.4 Z " />
<path stroke="none" fill="#000000" transform="matrix(0.0833333 0 0 0.0833333 -297.175 -704)" d="M 5285.36,9476.95 L 5295.36,9459.63 L 5699.95,9693.5 L 5700,9704.8 L 5690.19,9710.4 L 5285.36,9476.95 Z " />
<path stroke="none" fill="#000000" transform="matrix(0.0833333 0 0 0.0833333 -297.175 -704)" d="M 5249.36,9539.3 L 5259.36,9521.98 L 5633,9737.71 L 5623,9755.03 L 5249.36,9539.3 Z " />
<path stroke="none" fill="#000000" transform="matrix(0.0833333 0 0 0.0833333 -297.175 -704)" d="M 4670.61,9710.4 L 4660.8,9704.8 L 4660.85,9693.5 L 5065.11,9459.82 L 5075.11,9477.14 L 4670.61,9710.4 Z " />
<text x="0" y="0" stroke="none" fill="#000000" transform="matrix(0.0833333 0 0 0.0833333 128.507 86.2333)" font-style="normal" font-weight="normal" font-size="200px" font-family="Arial" >
N</text>
<path stroke="none" fill="#000000" transform="matrix(0.0833333 0 0 0.0833333 -297.175 -704)" d="M 4141.2,10593.5 L 4141.2,10616.6 L 3611.4,10310.7 L 3631.41,10299.1 L 4141.2,10593.5 Z " />
<path stroke="none" fill="#000000" transform="matrix(0.0833333 0 0 0.0833333 -297.175 -704)" d="M 4650.99,10299.1 L 4660.8,10304.8 L 4660.8,10316.1 L 4141.2,10616.6 L 4141.2,10593.5 L 4650.99,10299.1 Z " />
<path stroke="none" fill="#000000" transform="matrix(0.0833333 0 0 0.0833333 -297.175 -704)" d="M 4583.8,10254.6 L 4593.8,10271.9 L 4146.2,10530.3 L 4136.2,10513 L 4583.8,10254.6 Z " />
<path stroke="none" fill="#000000" transform="matrix(0.0833333 0 0 0.0833333 -297.175 -704)" d="M 4650.99,9710.46 L 4660.8,9704.8 L 4670.61,9710.4 L 4670.61,10299.1 L 4660.8,10304.8 L 4650.99,10299.1 L 4650.99,9710.46 Z " />
<path stroke="none" fill="#000000" transform="matrix(0.0833333 0 0 0.0833333 -297.175 -704)" d="M 4141.2,9416.13 L 4141.2,9404.8 L 4150.96,9399.11 L 4660.85,9693.5 L 4660.8,9704.8 L 4650.99,9710.46 L 4141.2,9416.13 Z " />
<path stroke="none" fill="#000000" transform="matrix(0.0833333 0 0 0.0833333 -297.175 -704)" d="M 4136.2,9496.6 L 4146.2,9479.28 L 4593.8,9737.71 L 4583.8,9755.03 L 4136.2,9496.6 Z " />
<path stroke="none" fill="#000000" transform="matrix(0.0833333 0 0 0.0833333 -297.175 -704)" d="M 3631.41,9710.46 L 3611.4,9698.91 L 4131.44,9399.11 L 4141.2,9404.8 L 4141.2,9416.13 L 3631.41,9710.46 Z " />
<path stroke="none" fill="#000000" transform="matrix(0.0833333 0 0 0.0833333 -297.175 -704)" d="M 3631.41,10299.1 L 3611.4,10310.7 L 3611.4,9698.91 L 3631.41,9710.46 L 3631.41,10299.1 Z " />
<path stroke="none" fill="#000000" transform="matrix(0.0833333 0 0 0.0833333 -297.175 -704)" d="M 3703.6,10263.2 L 3683.6,10263.2 L 3683.6,9746.37 L 3703.6,9746.37 L 3703.6,10263.2 Z " />
<text x="0" y="0" stroke="none" fill="#000000" transform="matrix(0.0833333 0 0 0.0833333 206.925 147)" font-style="normal" font-weight="bold" font-size="440px" font-family="Arial" >
7</text>
</svg>
