<?xml version="1.0" standalone="no" ?>
<!DOCTYPE svg PUBLIC "-//W3C//DTD SVG 1.1//EN" "http://www.w3.org/Graphics/SVG/1.1/DTD/svg11.dtd">
<svg width="273px" height="116px" viewBox="0 0 273 116" style="background-color: #ffffff00" xmlns="http://www.w3.org/2000/svg" xmlns:xlink="http://www.w3.org/1999/xlink" version="1.1" >
<text x="0" y="0" stroke="none" fill="#000000" transform="matrix(0.0833333 0 0 0.0833333 41.9069 17.5)" font-style="normal" font-weight="normal" font-size="200px" font-family="Arial" >
N</text>
<path stroke="none" fill="#000000" transform="matrix(0.0833333 0 0 0.0833333 -202.175 -680)" d="M 2471.4,8586.05 L 2491.41,8597.6 L 2491.41,9186.34 L 2471.4,9197.89 L 2471.4,8586.05 Z " />
<path stroke="none" fill="#000000" transform="matrix(0.0833333 0 0 0.0833333 -202.175 -680)" d="M 2543.6,8633.57 L 2563.6,8633.57 L 2563.6,9150.43 L 2543.6,9150.43 L 2543.6,8633.57 Z " />
<path stroke="none" fill="#000000" transform="matrix(0.0833333 0 0 0.0833333 -202.175 -680)" d="M 2471.4,9197.89 L 2491.41,9186.34 L 3001.2,9480.67 L 3001.2,9503.77 L 2471.4,9197.89 Z " />
<path stroke="none" fill="#000000" transform="matrix(0.0833333 0 0 0.0833333 -202.175 -680)" d="M 3001.2,9503.77 L 3001.2,9480.67 L 3510.99,9186.34 L 3520.8,9192 L 3520.8,9203.33 L 3001.2,9503.77 Z " />
<path stroke="none" fill="#000000" transform="matrix(0.0833333 0 0 0.0833333 -202.175 -680)" d="M 3006.2,9417.52 L 2996.2,9400.2 L 3443.8,9141.77 L 3453.8,9159.09 L 3006.2,9417.52 Z " />
<path stroke="none" fill="#000000" transform="matrix(0.0833333 0 0 0.0833333 -202.175 -680)" d="M 3530.61,9186.34 L 3520.8,9192 L 3510.99,9186.34 L 3510.99,8597.6 L 3520.8,8592 L 3530.61,8597.6 L 3530.61,9186.34 Z " />
<path stroke="none" fill="#000000" transform="matrix(0.0833333 0 0 0.0833333 -202.175 -680)" d="M 3520.8,8580.73 L 3520.8,8592 L 3510.99,8597.6 L 3106.16,8364.15 L 3116.16,8346.83 L 3520.8,8580.73 Z " />
<path stroke="none" fill="#000000" transform="matrix(0.0833333 0 0 0.0833333 -202.175 -680)" d="M 3453.8,8624.91 L 3443.8,8642.23 L 3070.16,8426.5 L 3080.16,8409.18 L 3453.8,8624.91 Z " />
<path stroke="none" fill="#000000" transform="matrix(0.0833333 0 0 0.0833333 -202.175 -680)" d="M 2885.91,8347.02 L 2895.91,8364.34 L 2491.41,8597.6 L 2471.4,8586.05 L 2885.91,8347.02 Z " />
<text x="0" y="0" stroke="none" fill="#000000" transform="matrix(0.0833333 0 0 0.0833333 128.507 17.5)" font-style="normal" font-weight="normal" font-size="200px" font-family="Arial" >
N</text>
<path stroke="none" fill="#000000" transform="matrix(0.0833333 0 0 0.0833333 -202.175 -680)" d="M 3520.8,9203.33 L 3520.8,9192 L 3530.61,9186.34 L 4040.4,9480.67 L 4040.4,9503.77 L 3520.8,9203.33 Z " />
<path stroke="none" fill="#000000" transform="matrix(0.0833333 0 0 0.0833333 -202.175 -680)" d="M 4040.4,9503.77 L 4040.4,9480.67 L 4550.19,9186.34 L 4570.2,9197.89 L 4040.4,9503.77 Z " />
<path stroke="none" fill="#000000" transform="matrix(0.0833333 0 0 0.0833333 -202.175 -680)" d="M 4045.4,9417.52 L 4035.4,9400.2 L 4483,9141.77 L 4493,9159.09 L 4045.4,9417.52 Z " />
<path stroke="none" fill="#000000" transform="matrix(0.0833333 0 0 0.0833333 -202.175 -680)" d="M 4570.2,9197.89 L 4550.19,9186.34 L 4550.19,8597.6 L 4560,8592 L 4569.81,8597.66 L 4570.2,9197.89 Z " />
<path stroke="none" fill="#000000" transform="matrix(0.0833333 0 0 0.0833333 -202.175 -680)" d="M 4559.95,8580.7 L 4560,8592 L 4550.19,8597.6 L 4145.36,8364.15 L 4155.36,8346.83 L 4559.95,8580.7 Z " />
<path stroke="none" fill="#000000" transform="matrix(0.0833333 0 0 0.0833333 -202.175 -680)" d="M 4493,8624.91 L 4483,8642.23 L 4109.36,8426.5 L 4119.36,8409.18 L 4493,8624.91 Z " />
<path stroke="none" fill="#000000" transform="matrix(0.0833333 0 0 0.0833333 -202.175 -680)" d="M 3925.11,8347.02 L 3935.11,8364.34 L 3530.61,8597.6 L 3520.8,8592 L 3520.8,8580.73 L 3925.11,8347.02 Z " />
<path stroke="none" fill="#000000" transform="matrix(0.0833333 0 0 0.0833333 -202.175 -680)" d="M 4569.81,8597.66 L 4560,8592 L 4559.95,8580.7 L 5079.64,8280.2 L 5079.64,8303.31 L 4569.81,8597.66 Z " />
<text x="0" y="0" stroke="none" fill="#000000" transform="matrix(0.0833333 0 0 0.0833333 256.443 45.098)" font-style="normal" font-weight="normal" font-size="200px" font-family="Arial" >
O</text>
<path stroke="none" fill="#000000" transform="matrix(0.0833333 0 0 0.0833333 -202.175 -680)" d="M 5079.64,8303.31 L 5079.64,8280.2 L 5511.74,8529.96 L 5501.74,8547.28 L 5079.64,8303.31 Z " />
<path stroke="none" fill="#000000" transform="matrix(0.0833333 0 0 0.0833333 -202.175 -680)" d="M 5074.6,8383.8 L 5084.6,8366.48 L 5475.74,8592.31 L 5465.74,8609.63 L 5074.6,8383.8 Z " />
<text x="0" y="0" stroke="none" fill="#000000" transform="matrix(0.0833333 0 0 0.0833333 196.925 85)" font-style="normal" font-weight="bold" font-size="440px" font-family="Arial" >
11</text>
</svg>
