<?xml version="1.0" standalone="no" ?>
<!DOCTYPE svg PUBLIC "-//W3C//DTD SVG 1.1//EN" "http://www.w3.org/Graphics/SVG/1.1/DTD/svg11.dtd">
<svg width="246px" height="156px" viewBox="0 0 246 156" style="background-color: #ffffff00" xmlns="http://www.w3.org/2000/svg" xmlns:xlink="http://www.w3.org/1999/xlink" version="1.1" >
<path stroke="none" fill="#000000" transform="matrix(0.0833333 0 0 0.0833333 -375.175 -534.583)" d="M 5409.52,7717.13 L 5428.6,7702.6 L 5433.33,7713.92 L 5148.02,8207.04 L 5105.69,8240.08 L 5409.52,7717.13 Z " />
<path stroke="none" fill="#000000" transform="matrix(0.0833333 0 0 0.0833333 -375.175 -534.583)" d="M 5105.69,8240.08 L 5148.02,8207.04 L 5695.65,8050.04 L 5705.4,8057.4 L 5705.51,8067.67 L 5105.69,8240.08 Z " />
<path stroke="none" fill="#000000" transform="matrix(0.0833333 0 0 0.0833333 -375.175 -534.583)" d="M 5705.51,8067.67 L 5705.4,8057.4 L 5715.15,8049.88 L 6281.08,8198.08 L 6290.77,8221.31 L 5705.51,8067.67 Z " />
<path stroke="none" fill="#000000" transform="matrix(0.0833333 0 0 0.0833333 -375.175 -534.583)" d="M 6290.77,8221.31 L 6281.08,8198.08 L 6566.57,7704.96 L 6586,7689.8 L 6589.58,7702.95 L 6290.77,8221.31 Z " />
<path stroke="none" fill="#000000" transform="matrix(0.0833333 0 0 0.0833333 -375.175 -534.583)" d="M 6574.18,7683.11 L 6586,7689.8 L 6566.57,7704.96 L 6009.12,7865.06 L 6008.89,7844.33 L 6574.18,7683.11 Z " />
<path stroke="none" fill="#000000" transform="matrix(0.0833333 0 0 0.0833333 -375.175 -534.583)" d="M 6008.89,7844.33 L 6009.12,7865.06 L 5755.4,7798.46 L 5755.4,7778.01 L 6008.89,7844.33 L 6008.89,7844.33 Z " />
<path stroke="none" fill="#000000" transform="matrix(0.0833333 0 0 0.0833333 -375.175 -534.583)" d="M 5433.33,7713.92 L 5428.6,7702.6 L 5438.35,7695.08 L 5655.4,7751.86 L 5655.4,7772.21 L 5433.33,7713.92 L 5433.33,7713.92 Z " />
<path stroke="none" fill="#000000" transform="matrix(0.0833333 0 0 0.0833333 -375.175 -534.583)" d="M 5438.35,7695.08 L 5428.6,7702.6 L 5418.85,7695.18 L 5418.4,7096.74 L 5438.41,7108.15 L 5438.35,7695.08 Z " />
<path stroke="none" fill="#000000" transform="matrix(0.0833333 0 0 0.0833333 -375.175 -534.583)" d="M 5715.15,8049.88 L 5705.4,8057.4 L 5695.65,8050.04 L 5695.34,7455.6 L 5715.34,7459.17 L 5715.15,8049.88 Z " />
<path stroke="none" fill="#000000" transform="matrix(0.0833333 0 0 0.0833333 -375.175 -534.583)" d="M 6594.48,7683.35 L 6586,7689.8 L 6574.18,7683.11 L 6422.02,7116.34 L 6439.37,7103.79 L 6594.48,7683.35 Z " />
<text x="0" y="0" stroke="none" fill="#000000" transform="matrix(0.0833333 0 0 0.0833333 210.94 137.733)" font-style="normal" font-weight="normal" font-size="200px" font-family="Arial" >
NH</text>
<text x="0" y="0" stroke="none" fill="#000000" transform="matrix(0.0833333 0 0 0.0833333 235.013 141.4)" font-style="normal" font-weight="normal" font-size="150px" font-family="Arial" >
2</text>
<path stroke="none" fill="#000000" transform="matrix(0.0833333 0 0 0.0833333 -375.175 -534.583)" d="M 6589.58,7702.95 L 6586,7689.8 L 6594.48,7683.35 L 7006.66,7921.13 L 6996.66,7938.45 L 6589.58,7702.95 Z " />
<text x="0" y="0" stroke="none" fill="#000000" transform="matrix(0.0833333 0 0 0.0833333 3.90222 126.733)" font-style="normal" font-weight="normal" font-size="200px" font-family="Arial" >
H</text>
<text x="0" y="0" stroke="none" fill="#000000" transform="matrix(0.0833333 0 0 0.0833333 15.9384 130.4)" font-style="normal" font-weight="normal" font-size="150px" font-family="Arial" >
2</text>
<text x="0" y="0" stroke="none" fill="#000000" transform="matrix(0.0833333 0 0 0.0833333 22.8903 126.733)" font-style="normal" font-weight="normal" font-size="200px" font-family="Arial" >
N</text>
<path stroke="none" fill="#000000" transform="matrix(0.0833333 0 0 0.0833333 -375.175 -534.583)" d="M 5418.85,7695.18 L 5428.6,7702.6 L 5409.52,7717.13 L 4957.13,7839.2 L 4951.96,7819.88 L 5418.85,7695.18 Z " />
<text x="0" y="0" stroke="none" fill="#000000" transform="matrix(0.0833333 0 0 0.0833333 114.574 19)" font-style="normal" font-weight="normal" font-size="200px" font-family="Arial" >
H</text>
<text x="0" y="0" stroke="none" fill="#000000" transform="matrix(0.0833333 0 0 0.0833333 114.574 38.1667)" font-style="normal" font-weight="normal" font-size="200px" font-family="Arial" >
C</text>
<path stroke="none" fill="#000000" transform="matrix(0.0833333 0 0 0.0833333 -375.175 -534.583)" d="M 5438.41,7108.15 L 5418.4,7096.74 L 5848.8,6842.7 L 5858.98,6859.92 L 5438.41,7108.15 Z " />
<path stroke="none" fill="#000000" transform="matrix(0.0833333 0 0 0.0833333 -375.175 -534.583)" d="M 5715.34,7459.17 L 5695.34,7455.6 L 5898.03,6905.07 L 5916.8,6911.98 L 5715.34,7459.17 Z " />
<path stroke="none" fill="#000000" transform="matrix(0.0833333 0 0 0.0833333 -375.175 -534.583)" d="M 6439.37,7103.79 L 6422.02,7116.34 L 6041.44,6867.35 L 6052.39,6850.61 L 6439.37,7103.79 Z " />
<text x="0" y="0" stroke="none" fill="#000000" transform="matrix(0.0833333 0 0 0.0833333 177.925 81.4167)" font-style="normal" font-weight="bold" font-size="440px" font-family="Arial" >
16</text>
</svg>
