<?xml version="1.0" standalone="no" ?>
<!DOCTYPE svg PUBLIC "-//W3C//DTD SVG 1.1//EN" "http://www.w3.org/Graphics/SVG/1.1/DTD/svg11.dtd">
<svg width="318px" height="110px" viewBox="0 0 318 110" style="background-color: #ffffff00" xmlns="http://www.w3.org/2000/svg" xmlns:xlink="http://www.w3.org/1999/xlink" version="1.1" >
<path stroke="none" fill="#000000" transform="matrix(0.0833333 0 0 0.0833333 -493.175 -582.75)" d="M 7295.4,7350.11 L 7315.41,7361.66 L 7315.41,7950.34 L 7305.6,7956 L 7295.79,7950.34 L 7295.4,7350.11 Z " />
<path stroke="none" fill="#000000" transform="matrix(0.0833333 0 0 0.0833333 -493.175 -582.75)" d="M 7367.6,7397.57 L 7387.6,7397.57 L 7387.6,7914.43 L 7367.6,7914.43 L 7367.6,7397.57 Z " />
<path stroke="none" fill="#000000" transform="matrix(0.0833333 0 0 0.0833333 -493.175 -582.75)" d="M 7305.6,7967.33 L 7305.6,7956 L 7315.41,7950.34 L 7825.2,8244.67 L 7825.2,8267.77 L 7305.6,7967.33 Z " />
<path stroke="none" fill="#000000" transform="matrix(0.0833333 0 0 0.0833333 -493.175 -582.75)" d="M 7825.2,8267.77 L 7825.2,8244.67 L 8334.99,7950.34 L 8344.8,7956 L 8344.8,7967.33 L 7825.2,8267.77 Z " />
<path stroke="none" fill="#000000" transform="matrix(0.0833333 0 0 0.0833333 -493.175 -582.75)" d="M 7830.2,8181.52 L 7820.2,8164.2 L 8267.8,7905.77 L 8277.8,7923.09 L 7830.2,8181.52 Z " />
<path stroke="none" fill="#000000" transform="matrix(0.0833333 0 0 0.0833333 -493.175 -582.75)" d="M 8354.61,7950.34 L 8344.8,7956 L 8334.99,7950.34 L 8334.99,7361.66 L 8355,7350.11 L 8354.61,7950.34 Z " />
<path stroke="none" fill="#000000" transform="matrix(0.0833333 0 0 0.0833333 -493.175 -582.75)" d="M 8355,7350.11 L 8334.99,7361.66 L 7825.2,7067.33 L 7825.2,7044.23 L 8355,7350.11 Z " />
<path stroke="none" fill="#000000" transform="matrix(0.0833333 0 0 0.0833333 -493.175 -582.75)" d="M 8277.8,7388.91 L 8267.8,7406.23 L 7820.2,7147.8 L 7830.2,7130.48 L 8277.8,7388.91 Z " />
<path stroke="none" fill="#000000" transform="matrix(0.0833333 0 0 0.0833333 -493.175 -582.75)" d="M 7825.2,7044.23 L 7825.2,7067.33 L 7315.41,7361.66 L 7295.4,7350.11 L 7825.2,7044.23 Z " />
<path stroke="none" fill="#000000" transform="matrix(0.0833333 0 0 0.0833333 -493.175 -582.75)" d="M 7295.79,7950.34 L 7305.6,7956 L 7305.6,7967.33 L 6785.95,8267.8 L 6785.95,8244.7 L 7295.79,7950.34 Z " />
<path stroke="none" fill="#000000" transform="matrix(0.0833333 0 0 0.0833333 -493.175 -582.75)" d="M 8344.8,7967.33 L 8344.8,7956 L 8354.61,7950.34 L 8864.45,8244.7 L 8864.45,8267.8 L 8344.8,7967.33 Z " />
<text x="0" y="0" stroke="none" fill="#000000" transform="matrix(0.0833333 0 0 0.0833333 282.807 86.75)" font-style="normal" font-weight="normal" font-size="200px" font-family="Arial" >
NH</text>
<text x="0" y="0" stroke="none" fill="#000000" transform="matrix(0.0833333 0 0 0.0833333 306.879 90.4166)" font-style="normal" font-weight="normal" font-size="150px" font-family="Arial" >
2</text>
<path stroke="none" fill="#000000" transform="matrix(0.0833333 0 0 0.0833333 -493.175 -582.75)" d="M 8864.45,8267.8 L 8864.45,8244.7 L 9267.84,8011.52 L 9277.84,8028.84 L 8864.45,8267.8 Z " />
<text x="0" y="0" stroke="none" fill="#000000" transform="matrix(0.0833333 0 0 0.0833333 4.01888 86.75)" font-style="normal" font-weight="normal" font-size="200px" font-family="Arial" >
H</text>
<text x="0" y="0" stroke="none" fill="#000000" transform="matrix(0.0833333 0 0 0.0833333 16.055 90.4166)" font-style="normal" font-weight="normal" font-size="150px" font-family="Arial" >
2</text>
<text x="0" y="0" stroke="none" fill="#000000" transform="matrix(0.0833333 0 0 0.0833333 23.0069 86.75)" font-style="normal" font-weight="normal" font-size="200px" font-family="Arial" >
N</text>
<path stroke="none" fill="#000000" transform="matrix(0.0833333 0 0 0.0833333 -493.175 -582.75)" d="M 6785.95,8244.7 L 6785.95,8267.8 L 6371.59,8028.28 L 6381.59,8010.96 L 6785.95,8244.7 Z " />
<text x="0" y="0" stroke="none" fill="#000000" transform="matrix(0.0833333 0 0 0.0833333 226.925 67.25)" font-style="normal" font-weight="bold" font-size="440px" font-family="Arial" >
18</text>
</svg>
