<?xml version="1.0" standalone="no" ?>
<!DOCTYPE svg PUBLIC "-//W3C//DTD SVG 1.1//EN" "http://www.w3.org/Graphics/SVG/1.1/DTD/svg11.dtd">
<svg width="69px" height="69px" viewBox="0 0 69 69" style="background-color: #ffffff00" xmlns="http://www.w3.org/2000/svg" xmlns:xlink="http://www.w3.org/1999/xlink" version="1.1" >
<path stroke="none" fill="#ff8040" transform="matrix(0.0833333 0 0 0.0833333 -164.175 -482.667)" d="M 2025.2,6207 A 360,360 0 1 0 2745.2,6207A 360,360 0 1 0 2025.2,6207Z " />
<path stroke="none" fill="#ff874b" transform="matrix(0.0833333 0 0 0.0833333 -164.175 -482.667)" d="M 2029.42,6201.37 A 350.156,350.156 0 1 0 2729.73,6201.37A 350.156,350.156 0 1 0 2029.42,6201.37Z " />
<path stroke="none" fill="#ff8f57" transform="matrix(0.0833333 0 0 0.0833333 -164.175 -482.667)" d="M 2033.64,6195.75 A 340.312,340.312 0 1 0 2714.26,6195.75A 340.312,340.312 0 1 0 2033.64,6195.75Z " />
<path stroke="none" fill="#ff9662" transform="matrix(0.0833333 0 0 0.0833333 -164.175 -482.667)" d="M 2037.86,6190.12 A 330.469,330.469 0 1 0 2698.79,6190.12A 330.469,330.469 0 1 0 2037.86,6190.12Z " />
<path stroke="none" fill="#ff9d6c" transform="matrix(0.0833333 0 0 0.0833333 -164.175 -482.667)" d="M 2042.07,6184.5 A 320.625,320.625 0 1 0 2683.32,6184.5A 320.625,320.625 0 1 0 2042.07,6184.5Z " />
<path stroke="none" fill="#ffa477" transform="matrix(0.0833333 0 0 0.0833333 -164.175 -482.667)" d="M 2046.29,6178.87 A 310.781,310.781 0 1 0 2667.86,6178.87A 310.781,310.781 0 1 0 2046.29,6178.87Z " />
<path stroke="none" fill="#ffab80" transform="matrix(0.0833333 0 0 0.0833333 -164.175 -482.667)" d="M 2050.51,6173.25 A 300.938,300.938 0 1 0 2652.39,6173.25A 300.938,300.938 0 1 0 2050.51,6173.25Z " />
<path stroke="none" fill="#ffb18a" transform="matrix(0.0833333 0 0 0.0833333 -164.175 -482.667)" d="M 2054.73,6167.62 A 291.094,291.094 0 1 0 2636.92,6167.62A 291.094,291.094 0 1 0 2054.73,6167.62Z " />
<path stroke="none" fill="#ffb793" transform="matrix(0.0833333 0 0 0.0833333 -164.175 -482.667)" d="M 2058.95,6162 A 281.25,281.25 0 1 0 2621.45,6162A 281.25,281.25 0 1 0 2058.95,6162Z " />
<path stroke="none" fill="#ffbd9c" transform="matrix(0.0833333 0 0 0.0833333 -164.175 -482.667)" d="M 2063.17,6156.37 A 271.406,271.406 0 1 0 2605.98,6156.37A 271.406,271.406 0 1 0 2063.17,6156.37Z " />
<path stroke="none" fill="#ffc2a4" transform="matrix(0.0833333 0 0 0.0833333 -164.175 -482.667)" d="M 2067.39,6150.75 A 261.562,261.562 0 1 0 2590.51,6150.75A 261.562,261.562 0 1 0 2067.39,6150.75Z " />
<path stroke="none" fill="#ffc8ac" transform="matrix(0.0833333 0 0 0.0833333 -164.175 -482.667)" d="M 2071.61,6145.12 A 251.719,251.719 0 1 0 2575.04,6145.12A 251.719,251.719 0 1 0 2071.61,6145.12Z " />
<path stroke="none" fill="#ffcdb4" transform="matrix(0.0833333 0 0 0.0833333 -164.175 -482.667)" d="M 2075.82,6139.5 A 241.875,241.875 0 1 0 2559.57,6139.5A 241.875,241.875 0 1 0 2075.82,6139.5Z " />
<path stroke="none" fill="#ffd2bb" transform="matrix(0.0833333 0 0 0.0833333 -164.175 -482.667)" d="M 2080.04,6133.87 A 232.031,232.031 0 1 0 2544.11,6133.87A 232.031,232.031 0 1 0 2080.04,6133.87Z " />
<path stroke="none" fill="#ffd6c2" transform="matrix(0.0833333 0 0 0.0833333 -164.175 -482.667)" d="M 2084.26,6128.25 A 222.188,222.188 0 1 0 2528.64,6128.25A 222.188,222.188 0 1 0 2084.26,6128.25Z " />
<path stroke="none" fill="#ffdbc9" transform="matrix(0.0833333 0 0 0.0833333 -164.175 -482.667)" d="M 2088.48,6122.62 A 212.344,212.344 0 1 0 2513.17,6122.62A 212.344,212.344 0 1 0 2088.48,6122.62Z " />
<path stroke="none" fill="#ffdfcf" transform="matrix(0.0833333 0 0 0.0833333 -164.175 -482.667)" d="M 2092.7,6117 A 202.5,202.5 0 1 0 2497.7,6117A 202.5,202.5 0 1 0 2092.7,6117Z " />
<path stroke="none" fill="#ffe3d5" transform="matrix(0.0833333 0 0 0.0833333 -164.175 -482.667)" d="M 2096.92,6111.37 A 192.656,192.656 0 1 0 2482.23,6111.37A 192.656,192.656 0 1 0 2096.92,6111.37Z " />
<path stroke="none" fill="#ffe6da" transform="matrix(0.0833333 0 0 0.0833333 -164.175 -482.667)" d="M 2101.14,6105.75 A 182.812,182.812 0 1 0 2466.76,6105.75A 182.812,182.812 0 1 0 2101.14,6105.75Z " />
<path stroke="none" fill="#ffeadf" transform="matrix(0.0833333 0 0 0.0833333 -164.175 -482.667)" d="M 2105.36,6100.12 A 172.969,172.969 0 1 0 2451.29,6100.12A 172.969,172.969 0 1 0 2105.36,6100.12Z " />
<path stroke="none" fill="#ffede4" transform="matrix(0.0833333 0 0 0.0833333 -164.175 -482.667)" d="M 2109.57,6094.5 A 163.125,163.125 0 1 0 2435.82,6094.5A 163.125,163.125 0 1 0 2109.57,6094.5Z " />
<path stroke="none" fill="#ffefe8" transform="matrix(0.0833333 0 0 0.0833333 -164.175 -482.667)" d="M 2113.79,6088.87 A 153.281,153.281 0 1 0 2420.36,6088.87A 153.281,153.281 0 1 0 2113.79,6088.87Z " />
<path stroke="none" fill="#fff2ec" transform="matrix(0.0833333 0 0 0.0833333 -164.175 -482.667)" d="M 2118.01,6083.25 A 143.438,143.438 0 1 0 2404.89,6083.25A 143.438,143.438 0 1 0 2118.01,6083.25Z " />
<path stroke="none" fill="#fff4ef" transform="matrix(0.0833333 0 0 0.0833333 -164.175 -482.667)" d="M 2122.23,6077.62 A 133.594,133.594 0 1 0 2389.42,6077.62A 133.594,133.594 0 1 0 2122.23,6077.62Z " />
<path stroke="none" fill="#fff7f3" transform="matrix(0.0833333 0 0 0.0833333 -164.175 -482.667)" d="M 2126.45,6072 A 123.75,123.75 0 1 0 2373.95,6072A 123.75,123.75 0 1 0 2126.45,6072Z " />
<path stroke="none" fill="#fff8f5" transform="matrix(0.0833333 0 0 0.0833333 -164.175 -482.667)" d="M 2130.67,6066.37 A 113.906,113.906 0 1 0 2358.48,6066.37A 113.906,113.906 0 1 0 2130.67,6066.37Z " />
<path stroke="none" fill="#fffaf8" transform="matrix(0.0833333 0 0 0.0833333 -164.175 -482.667)" d="M 2134.89,6060.75 A 104.062,104.062 0 1 0 2343.01,6060.75A 104.062,104.062 0 1 0 2134.89,6060.75Z " />
<path stroke="none" fill="#fffbfa" transform="matrix(0.0833333 0 0 0.0833333 -164.175 -482.667)" d="M 2139.11,6055.12 A 94.2188,94.2188 0 1 0 2327.54,6055.12A 94.2188,94.2188 0 1 0 2139.11,6055.12Z " />
<path stroke="none" fill="#fffdfc" transform="matrix(0.0833333 0 0 0.0833333 -164.175 -482.667)" d="M 2143.32,6049.5 A 84.375,84.375 0 1 0 2312.07,6049.5A 84.375,84.375 0 1 0 2143.32,6049.5Z " />
<path stroke="none" fill="#fffdfd" transform="matrix(0.0833333 0 0 0.0833333 -164.175 -482.667)" d="M 2147.54,6043.87 A 74.5312,74.5312 0 1 0 2296.61,6043.87A 74.5312,74.5312 0 1 0 2147.54,6043.87Z " />
<path stroke="none" fill="#fffefe" transform="matrix(0.0833333 0 0 0.0833333 -164.175 -482.667)" d="M 2151.76,6038.25 A 64.6875,64.6875 0 1 0 2281.14,6038.25A 64.6875,64.6875 0 1 0 2151.76,6038.25Z " />
<path stroke="none" fill="#fffefe" transform="matrix(0.0833333 0 0 0.0833333 -164.175 -482.667)" d="M 2155.98,6032.62 A 54.8438,54.8438 0 1 0 2265.67,6032.62A 54.8438,54.8438 0 1 0 2155.98,6032.62Z " />
<path stroke="#ff8040" stroke-width="20" fill="none" transform="matrix(0.0833333 0 0 0.0833333 -164.175 -482.667)" d="M 2025.2,6207 A 360,360 0 1 0 2745.2,6207A 360,360 0 1 0 2025.2,6207Z " />
<text x="0" y="0" stroke="none" fill="#000000" transform="matrix(0.0833333 0 0 0.0833333 20.9217 41.3333)" font-style="normal" font-weight="normal" font-size="240px" font-family="Times New Roman" >
Cu</text>
<text x="0" y="0" stroke="none" fill="#000000" transform="matrix(0.0833333 0 0 0.0833333 44.2616 33.5833)" font-style="normal" font-weight="normal" font-size="180px" font-family="Times New Roman" >
+</text>
</svg>
