<?xml version="1.0" standalone="no" ?>
<!DOCTYPE svg PUBLIC "-//W3C//DTD SVG 1.1//EN" "http://www.w3.org/Graphics/SVG/1.1/DTD/svg11.dtd">
<svg width="70px" height="69px" viewBox="0 0 70 69" style="background-color: #ffffff00" xmlns="http://www.w3.org/2000/svg" xmlns:xlink="http://www.w3.org/1999/xlink" version="1.1" >
<path stroke="none" fill="#ff8080" transform="matrix(0.0833333 0 0 0.0833333 -395.175 -377)" d="M 4803.8,4935 A 360,360 0 1 0 5523.8,4935A 360,360 0 1 0 4803.8,4935Z " />
<path stroke="none" fill="#ff8787" transform="matrix(0.0833333 0 0 0.0833333 -395.175 -377)" d="M 4808.02,4929.38 A 350.156,350.156 0 1 0 5508.33,4929.38A 350.156,350.156 0 1 0 4808.02,4929.38Z " />
<path stroke="none" fill="#ff8f8f" transform="matrix(0.0833333 0 0 0.0833333 -395.175 -377)" d="M 4812.24,4923.75 A 340.312,340.312 0 1 0 5492.86,4923.75A 340.312,340.312 0 1 0 4812.24,4923.75Z " />
<path stroke="none" fill="#ff9696" transform="matrix(0.0833333 0 0 0.0833333 -395.175 -377)" d="M 4816.46,4918.12 A 330.469,330.469 0 1 0 5477.39,4918.12A 330.469,330.469 0 1 0 4816.46,4918.12Z " />
<path stroke="none" fill="#ff9d9d" transform="matrix(0.0833333 0 0 0.0833333 -395.175 -377)" d="M 4820.67,4912.5 A 320.625,320.625 0 1 0 5461.92,4912.5A 320.625,320.625 0 1 0 4820.67,4912.5Z " />
<path stroke="none" fill="#ffa4a4" transform="matrix(0.0833333 0 0 0.0833333 -395.175 -377)" d="M 4824.89,4906.88 A 310.781,310.781 0 1 0 5446.46,4906.88A 310.781,310.781 0 1 0 4824.89,4906.88Z " />
<path stroke="none" fill="#ffabab" transform="matrix(0.0833333 0 0 0.0833333 -395.175 -377)" d="M 4829.11,4901.25 A 300.938,300.938 0 1 0 5430.99,4901.25A 300.938,300.938 0 1 0 4829.11,4901.25Z " />
<path stroke="none" fill="#ffb1b1" transform="matrix(0.0833333 0 0 0.0833333 -395.175 -377)" d="M 4833.33,4895.62 A 291.094,291.094 0 1 0 5415.52,4895.62A 291.094,291.094 0 1 0 4833.33,4895.62Z " />
<path stroke="none" fill="#ffb7b7" transform="matrix(0.0833333 0 0 0.0833333 -395.175 -377)" d="M 4837.55,4890 A 281.25,281.25 0 1 0 5400.05,4890A 281.25,281.25 0 1 0 4837.55,4890Z " />
<path stroke="none" fill="#ffbdbd" transform="matrix(0.0833333 0 0 0.0833333 -395.175 -377)" d="M 4841.77,4884.38 A 271.406,271.406 0 1 0 5384.58,4884.38A 271.406,271.406 0 1 0 4841.77,4884.38Z " />
<path stroke="none" fill="#ffc2c2" transform="matrix(0.0833333 0 0 0.0833333 -395.175 -377)" d="M 4845.99,4878.75 A 261.562,261.562 0 1 0 5369.11,4878.75A 261.562,261.562 0 1 0 4845.99,4878.75Z " />
<path stroke="none" fill="#ffc8c8" transform="matrix(0.0833333 0 0 0.0833333 -395.175 -377)" d="M 4850.21,4873.12 A 251.719,251.719 0 1 0 5353.64,4873.12A 251.719,251.719 0 1 0 4850.21,4873.12Z " />
<path stroke="none" fill="#ffcdcd" transform="matrix(0.0833333 0 0 0.0833333 -395.175 -377)" d="M 4854.42,4867.5 A 241.875,241.875 0 1 0 5338.17,4867.5A 241.875,241.875 0 1 0 4854.42,4867.5Z " />
<path stroke="none" fill="#ffd2d2" transform="matrix(0.0833333 0 0 0.0833333 -395.175 -377)" d="M 4858.64,4861.88 A 232.031,232.031 0 1 0 5322.71,4861.88A 232.031,232.031 0 1 0 4858.64,4861.88Z " />
<path stroke="none" fill="#ffd6d6" transform="matrix(0.0833333 0 0 0.0833333 -395.175 -377)" d="M 4862.86,4856.25 A 222.188,222.188 0 1 0 5307.24,4856.25A 222.188,222.188 0 1 0 4862.86,4856.25Z " />
<path stroke="none" fill="#ffdbdb" transform="matrix(0.0833333 0 0 0.0833333 -395.175 -377)" d="M 4867.08,4850.62 A 212.344,212.344 0 1 0 5291.77,4850.62A 212.344,212.344 0 1 0 4867.08,4850.62Z " />
<path stroke="none" fill="#ffdfdf" transform="matrix(0.0833333 0 0 0.0833333 -395.175 -377)" d="M 4871.3,4845 A 202.5,202.5 0 1 0 5276.3,4845A 202.5,202.5 0 1 0 4871.3,4845Z " />
<path stroke="none" fill="#ffe3e3" transform="matrix(0.0833333 0 0 0.0833333 -395.175 -377)" d="M 4875.52,4839.38 A 192.656,192.656 0 1 0 5260.83,4839.38A 192.656,192.656 0 1 0 4875.52,4839.38Z " />
<path stroke="none" fill="#ffe6e6" transform="matrix(0.0833333 0 0 0.0833333 -395.175 -377)" d="M 4879.74,4833.75 A 182.812,182.812 0 1 0 5245.36,4833.75A 182.812,182.812 0 1 0 4879.74,4833.75Z " />
<path stroke="none" fill="#ffeaea" transform="matrix(0.0833333 0 0 0.0833333 -395.175 -377)" d="M 4883.96,4828.12 A 172.969,172.969 0 1 0 5229.89,4828.12A 172.969,172.969 0 1 0 4883.96,4828.12Z " />
<path stroke="none" fill="#ffeded" transform="matrix(0.0833333 0 0 0.0833333 -395.175 -377)" d="M 4888.17,4822.5 A 163.125,163.125 0 1 0 5214.42,4822.5A 163.125,163.125 0 1 0 4888.17,4822.5Z " />
<path stroke="none" fill="#ffefef" transform="matrix(0.0833333 0 0 0.0833333 -395.175 -377)" d="M 4892.39,4816.88 A 153.281,153.281 0 1 0 5198.96,4816.88A 153.281,153.281 0 1 0 4892.39,4816.88Z " />
<path stroke="none" fill="#fff2f2" transform="matrix(0.0833333 0 0 0.0833333 -395.175 -377)" d="M 4896.61,4811.25 A 143.438,143.438 0 1 0 5183.49,4811.25A 143.438,143.438 0 1 0 4896.61,4811.25Z " />
<path stroke="none" fill="#fff4f4" transform="matrix(0.0833333 0 0 0.0833333 -395.175 -377)" d="M 4900.83,4805.62 A 133.594,133.594 0 1 0 5168.02,4805.62A 133.594,133.594 0 1 0 4900.83,4805.62Z " />
<path stroke="none" fill="#fff7f7" transform="matrix(0.0833333 0 0 0.0833333 -395.175 -377)" d="M 4905.05,4800 A 123.75,123.75 0 1 0 5152.55,4800A 123.75,123.75 0 1 0 4905.05,4800Z " />
<path stroke="none" fill="#fff8f8" transform="matrix(0.0833333 0 0 0.0833333 -395.175 -377)" d="M 4909.27,4794.38 A 113.906,113.906 0 1 0 5137.08,4794.38A 113.906,113.906 0 1 0 4909.27,4794.38Z " />
<path stroke="none" fill="#fffafa" transform="matrix(0.0833333 0 0 0.0833333 -395.175 -377)" d="M 4913.49,4788.75 A 104.062,104.062 0 1 0 5121.61,4788.75A 104.062,104.062 0 1 0 4913.49,4788.75Z " />
<path stroke="none" fill="#fffbfb" transform="matrix(0.0833333 0 0 0.0833333 -395.175 -377)" d="M 4917.71,4783.12 A 94.2188,94.2188 0 1 0 5106.14,4783.12A 94.2188,94.2188 0 1 0 4917.71,4783.12Z " />
<path stroke="none" fill="#fffdfd" transform="matrix(0.0833333 0 0 0.0833333 -395.175 -377)" d="M 4921.92,4777.5 A 84.375,84.375 0 1 0 5090.67,4777.5A 84.375,84.375 0 1 0 4921.92,4777.5Z " />
<path stroke="none" fill="#fffdfd" transform="matrix(0.0833333 0 0 0.0833333 -395.175 -377)" d="M 4926.14,4771.88 A 74.5312,74.5312 0 1 0 5075.21,4771.88A 74.5312,74.5312 0 1 0 4926.14,4771.88Z " />
<path stroke="none" fill="#fffefe" transform="matrix(0.0833333 0 0 0.0833333 -395.175 -377)" d="M 4930.36,4766.25 A 64.6875,64.6875 0 1 0 5059.74,4766.25A 64.6875,64.6875 0 1 0 4930.36,4766.25Z " />
<path stroke="none" fill="#fffefe" transform="matrix(0.0833333 0 0 0.0833333 -395.175 -377)" d="M 4934.58,4760.62 A 54.8438,54.8438 0 1 0 5044.27,4760.62A 54.8438,54.8438 0 1 0 4934.58,4760.62Z " />
<path stroke="#ff8080" stroke-width="20" fill="none" transform="matrix(0.0833333 0 0 0.0833333 -395.175 -377)" d="M 4803.8,4935 A 360,360 0 1 0 5523.8,4935A 360,360 0 1 0 4803.8,4935Z " />
<text x="0" y="0" stroke="none" fill="#000000" transform="matrix(0.0833333 0 0 0.0833333 23.92 42)" font-style="normal" font-weight="normal" font-size="240px" font-family="Times New Roman" >
Y</text>
<text x="0" y="0" stroke="none" fill="#000000" transform="matrix(0.0833333 0 0 0.0833333 38.3633 34.25)" font-style="normal" font-weight="normal" font-size="180px" font-family="Times New Roman" >
3+</text>
</svg>
