<?xml version="1.0" standalone="no" ?>
<!DOCTYPE svg PUBLIC "-//W3C//DTD SVG 1.1//EN" "http://www.w3.org/Graphics/SVG/1.1/DTD/svg11.dtd">
<svg width="509px" height="165px" viewBox="0 0 509 165" style="background-color: #ffffff00" xmlns="http://www.w3.org/2000/svg" xmlns:xlink="http://www.w3.org/1999/xlink" version="1.1" >
<text x="0" y="0" stroke="none" fill="#000000" transform="matrix(0.0833333 0 0 0.0833333 84.7361 111)" font-style="normal" font-weight="normal" font-size="200px" font-family="Arial" >
N</text>
<path stroke="none" fill="#000000" transform="matrix(0.0833333 0 0 0.0833333 -111.346 -549.5)" d="M 1895.4,6942.11 L 1915.41,6953.66 L 1915.41,7542.39 L 1905.6,7548 L 1895.79,7542.34 L 1895.4,6942.11 Z " />
<path stroke="none" fill="#000000" transform="matrix(0.0833333 0 0 0.0833333 -111.346 -549.5)" d="M 1967.6,6989.57 L 1987.6,6989.57 L 1987.6,7506.43 L 1967.6,7506.43 L 1967.6,6989.57 Z " />
<path stroke="none" fill="#000000" transform="matrix(0.0833333 0 0 0.0833333 -111.346 -549.5)" d="M 1905.65,7559.3 L 1905.6,7548 L 1915.41,7542.39 L 2326.26,7779.33 L 2316.26,7796.65 L 1905.65,7559.3 Z " />
<path stroke="none" fill="#000000" transform="matrix(0.0833333 0 0 0.0833333 -111.346 -549.5)" d="M 2533.81,7796.84 L 2523.81,7779.52 L 2934.99,7542.39 L 2944.8,7548 L 2944.75,7559.3 L 2533.81,7796.84 Z " />
<path stroke="none" fill="#000000" transform="matrix(0.0833333 0 0 0.0833333 -111.346 -549.5)" d="M 2497.81,7734.49 L 2487.81,7717.16 L 2867.8,7497.77 L 2877.8,7515.09 L 2497.81,7734.49 Z " />
<path stroke="none" fill="#000000" transform="matrix(0.0833333 0 0 0.0833333 -111.346 -549.5)" d="M 2954.61,7542.34 L 2944.8,7548 L 2934.99,7542.39 L 2934.99,6953.66 L 2955,6942.11 L 2954.61,7542.34 Z " />
<path stroke="none" fill="#000000" transform="matrix(0.0833333 0 0 0.0833333 -111.346 -549.5)" d="M 2955,6942.11 L 2934.99,6953.66 L 2425.2,6659.33 L 2425.2,6636.23 L 2955,6942.11 Z " />
<path stroke="none" fill="#000000" transform="matrix(0.0833333 0 0 0.0833333 -111.346 -549.5)" d="M 2877.8,6980.91 L 2867.8,6998.23 L 2420.2,6739.8 L 2430.2,6722.48 L 2877.8,6980.91 Z " />
<path stroke="none" fill="#000000" transform="matrix(0.0833333 0 0 0.0833333 -111.346 -549.5)" d="M 2425.2,6636.23 L 2425.2,6659.33 L 1915.41,6953.66 L 1895.4,6942.11 L 2425.2,6636.23 Z " />
<path stroke="none" fill="#000000" transform="matrix(0.0833333 0 0 0.0833333 -111.346 -549.5)" d="M 1895.79,7542.34 L 1905.6,7548 L 1905.65,7559.3 L 1391,7856.66 L 1381,7839.34 L 1895.79,7542.34 Z " />
<path stroke="none" fill="#000000" transform="matrix(0.0833333 0 0 0.0833333 -111.346 -549.5)" d="M 2944.75,7559.3 L 2944.8,7548 L 2954.61,7542.34 L 3474.64,7842.13 L 3454.63,7853.69 L 2944.75,7559.3 Z " />
<text x="0" y="0" stroke="none" fill="#000000" transform="matrix(0.0833333 0 0 0.0833333 167.872 161)" font-style="normal" font-weight="normal" font-size="200px" font-family="Arial" >
O</text>
<path stroke="none" fill="#000000" transform="matrix(0.0833333 0 0 0.0833333 -111.346 -549.5)" d="M 3454.63,7853.69 L 3474.64,7842.13 L 3474.4,8342.83 L 3454.4,8342.83 L 3454.63,7853.69 Z " />
<path stroke="none" fill="#000000" transform="matrix(0.0833333 0 0 0.0833333 -111.346 -549.5)" d="M 3382.4,7889.57 L 3402.4,7889.57 L 3402.4,8342.83 L 3382.4,8342.83 L 3382.4,7889.57 Z " />
<path stroke="none" fill="#000000" transform="matrix(0.0833333 0 0 0.0833333 -111.346 -549.5)" d="M 6644.23,7477.45 L 6642.32,7466.61 L 6649.89,7458.62 L 7225.52,7631.42 L 7208.7,7647.26 L 6644.23,7477.45 Z " />
<path stroke="none" fill="#000000" transform="matrix(0.0833333 0 0 0.0833333 -111.346 -549.5)" d="M 5663.71,7480.36 L 5671.69,7487.99 L 5670.25,7498.91 L 5108.6,7695.43 L 5102,7676.55 L 5663.71,7480.36 Z " />
<path stroke="none" fill="#000000" transform="matrix(0.0833333 0 0 0.0833333 -111.346 -549.5)" d="M 6475.41,7019.46 L 6494.29,7012.86 L 6649.89,7458.62 L 6642.32,7466.61 L 6630.83,7463.15 L 6475.41,7019.46 Z " />
<path stroke="none" fill="#000000" transform="matrix(0.0833333 0 0 0.0833333 -111.346 -549.5)" d="M 5851.77,6923.13 L 5836.79,6903.44 L 6347.43,6892.38 L 6347.88,6912.37 L 5851.77,6923.13 Z " />
<path stroke="none" fill="#000000" transform="matrix(0.0833333 0 0 0.0833333 -111.346 -549.5)" d="M 5683.06,7484.07 L 5671.69,7487.99 L 5663.71,7480.36 L 5836.79,6903.44 L 5851.77,6923.13 L 5683.06,7484.07 Z " />
<path stroke="none" fill="#000000" transform="matrix(0.0833333 0 0 0.0833333 -111.346 -549.5)" d="M 5765.25,7461.52 L 5746.1,7455.76 L 5888.74,6981.49 L 5907.89,6987.25 L 5765.25,7461.52 Z " />
<path stroke="none" fill="#000000" transform="matrix(0.0833333 0 0 0.0833333 -111.346 -549.5)" d="M 6070.24,7752.24 L 6058.84,7768.67 L 5670.25,7498.91 L 5671.69,7487.99 L 5683.06,7484.07 L 6070.24,7752.24 Z " />
<path stroke="none" fill="#000000" transform="matrix(0.0833333 0 0 0.0833333 -111.346 -549.5)" d="M 6630.83,7463.15 L 6642.32,7466.61 L 6644.23,7477.45 L 6268.13,7763.82 L 6256.03,7747.91 L 6630.83,7463.15 Z " />
<path stroke="none" fill="#000000" transform="matrix(0.0833333 0 0 0.0833333 -111.346 -549.5)" d="M 6551.02,7433.02 L 6563.13,7448.93 L 6224.54,7706.51 L 6212.43,7690.59 L 6551.02,7433.02 Z " />
<text x="0" y="0" stroke="none" fill="#000000" transform="matrix(0.0833333 0 0 0.0833333 420.122 32.0187)" font-style="normal" font-weight="normal" font-size="200px" font-family="Arial" >
S</text>
<text x="0" y="0" stroke="none" fill="#000000" transform="matrix(0.0833333 0 0 0.0833333 396.362 109.494)" font-style="normal" font-weight="normal" font-size="200px" font-family="Arial" >
N</text>
<text x="0" y="0" stroke="none" fill="#000000" transform="matrix(0.0833333 0 0 0.0833333 492.125 142.979)" font-style="normal" font-weight="normal" font-size="200px" font-family="Arial" >
O</text>
<path stroke="none" fill="#000000" transform="matrix(0.0833333 0 0 0.0833333 -111.346 -549.5)" d="M 7208.7,7647.26 L 7225.52,7631.42 L 7339.95,8118.23 L 7320.49,8122.81 L 7208.7,7647.26 Z " />
<path stroke="none" fill="#000000" transform="matrix(0.0833333 0 0 0.0833333 -111.346 -549.5)" d="M 7146.62,7698.74 L 7166.09,7694.16 L 7269.87,8134.74 L 7250.41,8139.32 L 7146.62,7698.74 Z " />
<path stroke="none" fill="#000000" transform="matrix(0.0833333 0 0 0.0833333 -111.346 -549.5)" d="M 2415.2,7965.33 L 2435.2,7965.33 L 2435.2,8448 L 2415.2,8448 L 2415.2,7965.33 Z " />
<path stroke="none" fill="#000000" transform="matrix(0.0833333 0 0 0.0833333 -111.346 -549.5)" d="M 6154.71,7947.27 L 6174.71,7947.27 L 6174.71,8429.93 L 6154.71,8429.93 L 6154.71,7947.27 Z " />
<path stroke="#000000" stroke-width="20" fill="none" transform="matrix(0.0833333 0 0 0.0833333 -111.346 -549.5)" d="M 2756.35,8456 C 2756.35,8433.92 2739.47,8416 2718.67,8416 C 2697.87,8416 2680.98,8433.92 2680.98,8456 C 2680.98,8478.08 2664.1,8496 2643.3,8496 C 2622.5,8496 2605.61,8478.08 2605.61,8456 C 2605.61,8433.92 2588.73,8416 2567.93,8416 C 2547.13,8416 2530.24,8433.92 2530.24,8456 C 2530.24,8478.08 2513.36,8496 2492.56,8496 C 2471.76,8496 2454.87,8478.08 2454.87,8456 C 2454.87,8433.92 2437.99,8416 2417.19,8416 C 2396.39,8416 2379.5,8433.92 2379.5,8456 C 2379.5,8478.08 2362.62,8496 2341.82,8496 C 2321.02,8496 2304.13,8478.08 2304.13,8456 C 2304.13,8433.92 2287.25,8416 2266.45,8416 C 2245.65,8416 2228.76,8433.92 2228.76,8456 C 2228.76,8478.08 2211.88,8496 2191.08,8496 C 2170.28,8496 2153.39,8478.08 2153.39,8456 C 2153.39,8433.92 2136.51,8416 2115.71,8416 " />
<path stroke="#000000" stroke-width="20" fill="none" transform="matrix(0.0833333 0 0 0.0833333 -111.346 -549.5)" d="M 6460.35,8448 C 6460.35,8425.92 6443.47,8408 6422.67,8408 C 6401.87,8408 6384.98,8425.92 6384.98,8448 C 6384.98,8470.08 6368.1,8488 6347.3,8488 C 6326.5,8488 6309.61,8470.08 6309.61,8448 C 6309.61,8425.92 6292.73,8408 6271.93,8408 C 6251.13,8408 6234.24,8425.92 6234.24,8448 C 6234.24,8470.08 6217.36,8488 6196.56,8488 C 6175.76,8488 6158.87,8470.08 6158.87,8448 C 6158.87,8425.92 6141.99,8408 6121.19,8408 C 6100.39,8408 6083.5,8425.92 6083.5,8448 C 6083.5,8470.08 6066.62,8488 6045.82,8488 C 6025.02,8488 6008.13,8470.08 6008.13,8448 C 6008.13,8425.92 5991.25,8408 5970.45,8408 C 5949.65,8408 5932.76,8425.92 5932.76,8448 C 5932.76,8470.08 5915.88,8488 5895.08,8488 C 5874.28,8488 5857.39,8470.08 5857.39,8448 C 5857.39,8425.92 5840.51,8408 5819.71,8408 " />
</svg>
