<?xml version="1.0" standalone="no" ?>
<!DOCTYPE svg PUBLIC "-//W3C//DTD SVG 1.1//EN" "http://www.w3.org/Graphics/SVG/1.1/DTD/svg11.dtd">
<svg width="240px" height="364px" viewBox="0 0 240 364" style="background-color: #ffffff00" xmlns="http://www.w3.org/2000/svg" xmlns:xlink="http://www.w3.org/1999/xlink" version="1.1" >
<path stroke="none" fill="#000000" transform="matrix(0.0833333 0 0 0.0833333 -89.3458 -176.833)" d="M 1610.05,2454.15 L 1613.15,2449.42 L 1625.11,2455.06 L 1729.2,2562.98 L 1722.75,2572.43 L 1610.05,2454.15 Z " />
<path stroke="none" fill="#000000" transform="matrix(0.0833333 0 0 0.0833333 -89.3458 -176.833)" d="M 1655.07,2474.63 L 1663.17,2466.9 L 1740.88,2548.29 L 1732.78,2556.02 L 1655.07,2474.63 Z " />
<path stroke="none" fill="#000000" transform="matrix(0.0833333 0 0 0.0833333 -89.3458 -176.833)" d="M 1722.75,2572.43 L 1729.2,2562.98 L 2036.5,2692.5 L 2033.88,2703.56 L 1722.75,2572.43 Z " />
<path stroke="none" fill="#000000" transform="matrix(0.0833333 0 0 0.0833333 -89.3458 -176.833)" d="M 2033.88,2703.56 L 2036.5,2692.5 L 2219.26,2704.29 L 2231.22,2709.93 L 2229.88,2715.4 L 2033.88,2703.56 Z " />
<path stroke="none" fill="#000000" transform="matrix(0.0833333 0 0 0.0833333 -89.3458 -176.833)" d="M 2038.35,2688.34 L 2039.03,2677.16 L 2193.29,2686.57 L 2192.61,2697.75 L 2038.35,2688.34 Z " />
<path stroke="none" fill="#000000" transform="matrix(0.0833333 0 0 0.0833333 -89.3458 -176.833)" d="M 2234.34,2705.21 L 2231.22,2709.93 L 2219.26,2704.29 L 2115.17,2596.36 L 2121.63,2586.92 L 2234.34,2705.21 Z " />
<path stroke="none" fill="#000000" transform="matrix(0.0833333 0 0 0.0833333 -89.3458 -176.833)" d="M 2121.63,2586.92 L 2115.17,2596.36 L 1807.87,2466.84 L 1810.5,2455.79 L 2121.63,2586.92 Z " />
<path stroke="none" fill="#000000" transform="matrix(0.0833333 0 0 0.0833333 -89.3458 -176.833)" d="M 2115.22,2594.06 L 2110.87,2604.38 L 1804.98,2475.45 L 1809.33,2465.13 L 2115.22,2594.06 Z " />
<path stroke="none" fill="#000000" transform="matrix(0.0833333 0 0 0.0833333 -89.3458 -176.833)" d="M 1810.5,2455.79 L 1807.87,2466.84 L 1625.11,2455.06 L 1613.15,2449.42 L 1614.53,2443.95 L 1810.5,2455.79 Z " />
<text x="0" y="0" stroke="none" fill="#000000" transform="matrix(0.0833333 0 0 0.0833333 118.972 63.4735)" font-style="normal" font-weight="normal" font-size="112px" font-family="Arial" >
N</text>
<path stroke="none" fill="#000000" transform="matrix(0.0833333 0 0 0.0833333 -89.3458 -176.833)" d="M 2229.88,2715.4 L 2231.22,2709.93 L 2234.34,2705.21 L 2482.62,2809.81 L 2478.27,2820.13 L 2229.88,2715.4 Z " />
<path stroke="none" fill="#000000" transform="matrix(0.0833333 0 0 0.0833333 -89.3458 -176.833)" d="M 2592.72,2848.99 L 2593.4,2837.81 L 2737.56,2846.53 L 2734.88,2857.57 L 2592.72,2848.99 Z " />
<path stroke="none" fill="#000000" transform="matrix(0.0833333 0 0 0.0833333 -89.3458 -176.833)" d="M 2595.17,2808.74 L 2595.85,2797.57 L 2739.14,2806.3 L 2738.46,2817.48 L 2595.17,2808.74 Z " />
<path stroke="none" fill="#000000" transform="matrix(0.0833333 0 0 0.0833333 -89.3458 -176.833)" d="M 2734.88,2857.57 L 2737.56,2846.53 L 2956.57,2938.89 L 2940.2,2944.11 L 2734.88,2857.57 L 2734.88,2857.57 Z " />
<text x="0" y="0" stroke="none" fill="#000000" transform="matrix(0.0833333 0 0 0.0833333 170.507 85.1826)" font-style="normal" font-weight="normal" font-size="111px" font-family="Arial" >
N</text>
<path stroke="none" fill="#000000" transform="matrix(0.0833333 0 0 0.0833333 -89.3458 -176.833)" d="M 3115.27,3047.49 L 3107.17,3055.22 L 3049.88,2995.22 L 3065.58,2997.14 L 3115.27,3047.49 L 3115.27,3047.49 Z " />
<path stroke="none" fill="#000000" transform="matrix(0.0833333 0 0 0.0833333 -89.3458 -176.833)" d="M 3085.09,3006.58 L 3091.63,3000.33 L 3095,3000.74 L 3128.01,3035.32 L 3119.91,3043.05 L 3085.09,3006.58 L 3085.09,3006.58 Z " />
<path stroke="none" fill="#000000" transform="matrix(0.0833333 0 0 0.0833333 -89.3458 -176.833)" d="M 3218.55,3132.15 L 3222.9,3121.83 L 3468.7,3225.47 L 3467.35,3230.95 L 3464.39,3235.74 L 3218.55,3132.15 Z " />
<path stroke="none" fill="#000000" transform="matrix(0.0833333 0 0 0.0833333 -89.3458 -176.833)" d="M 3478.72,3236.58 L 3467.35,3230.95 L 3468.7,3225.47 L 3651.49,3237.26 L 3680.04,3250.5 L 3478.72,3236.58 Z " />
<path stroke="none" fill="#000000" transform="matrix(0.0833333 0 0 0.0833333 -89.3458 -176.833)" d="M 3470.57,3221.31 L 3471.26,3210.14 L 3625.51,3219.54 L 3624.83,3230.72 L 3470.57,3221.31 Z " />
<path stroke="none" fill="#000000" transform="matrix(0.0833333 0 0 0.0833333 -89.3458 -176.833)" d="M 3680.04,3250.5 L 3651.49,3237.26 L 3547.4,3129.34 L 3553.85,3119.89 L 3680.04,3250.5 Z " />
<path stroke="none" fill="#000000" transform="matrix(0.0833333 0 0 0.0833333 -89.3458 -176.833)" d="M 3553.85,3119.89 L 3547.4,3129.34 L 3240.1,2999.82 L 3242.72,2988.76 L 3553.85,3119.89 L 3553.85,3119.89 Z " />
<path stroke="none" fill="#000000" transform="matrix(0.0833333 0 0 0.0833333 -89.3458 -176.833)" d="M 3547.44,3127.03 L 3543.09,3137.35 L 3237.21,3008.43 L 3241.56,2998.11 L 3547.44,3127.03 L 3547.44,3127.03 Z " />
<path stroke="none" fill="#000000" transform="matrix(0.0833333 0 0 0.0833333 -89.3458 -176.833)" d="M 3242.72,2988.76 L 3240.1,2999.82 L 3201.48,2997.34 L 3230.68,2988.04 L 3242.72,2988.76 L 3242.72,2988.76 Z " />
<path stroke="none" fill="#000000" transform="matrix(0.0833333 0 0 0.0833333 -89.3458 -176.833)" d="M 3056.58,2988.03 L 3045.38,2982.39 L 3046.75,2976.93 L 3124.23,2981.61 L 3127.73,2992.6 L 3056.58,2988.03 L 3056.58,2988.03 Z " />
<text x="0" y="0" stroke="none" fill="#000000" transform="matrix(0.0833333 0 0 0.0833333 205.415 105.895)" font-style="normal" font-weight="normal" font-size="111px" font-family="Arial" >
O</text>
<path stroke="none" fill="#000000" transform="matrix(0.0833333 0 0 0.0833333 -89.3458 -176.833)" d="M 3463.3,3234.81 L 3467.35,3230.95 L 3478.72,3236.58 L 3543.9,3303.02 L 3535.8,3310.75 L 3463.3,3234.81 Z " />
<path stroke="none" fill="#000000" transform="matrix(0.0833333 0 0 0.0833333 -89.3458 -176.833)" d="M 3636.63,3379.06 L 3640.98,3368.74 L 3891.5,3474.34 L 3887.15,3484.66 L 3636.63,3379.06 Z " />
<path stroke="none" fill="#000000" transform="matrix(0.0833333 0 0 0.0833333 -89.3458 -176.833)" d="M 1614.53,2443.95 L 1613.15,2449.42 L 1610.05,2454.15 L 1301.96,2324.33 L 1306.31,2314.01 L 1614.53,2443.95 Z " />
<path stroke="none" fill="#000000" transform="matrix(0.0833333 0 0 0.0833333 -89.3458 -176.833)" d="M 1711.78,4594.73 L 1715.97,4590.92 L 1726.15,4599.35 L 1800.12,4729.78 L 1791.52,4737.32 L 1711.78,4594.73 Z " />
<path stroke="none" fill="#000000" transform="matrix(0.0833333 0 0 0.0833333 -89.3458 -176.833)" d="M 1750.29,4625.76 L 1760.06,4620.29 L 1815.08,4718.45 L 1805.31,4723.93 L 1750.29,4625.76 Z " />
<path stroke="none" fill="#000000" transform="matrix(0.0833333 0 0 0.0833333 -89.3458 -176.833)" d="M 1791.52,4737.32 L 1800.12,4729.78 L 2065.55,4931.66 L 2060.26,4941.71 L 1791.52,4737.32 Z " />
<path stroke="none" fill="#000000" transform="matrix(0.0833333 0 0 0.0833333 -89.3458 -176.833)" d="M 2060.26,4941.71 L 2065.55,4931.66 L 2239.64,4988.53 L 2249.82,4996.97 L 2247.16,5001.93 L 2060.26,4941.71 Z " />
<path stroke="none" fill="#000000" transform="matrix(0.0833333 0 0 0.0833333 -89.3458 -176.833)" d="M 2068.38,4928.09 L 2071.82,4917.43 L 2218.89,4964.91 L 2215.45,4975.57 L 2068.38,4928.09 Z " />
<path stroke="none" fill="#000000" transform="matrix(0.0833333 0 0 0.0833333 -89.3458 -176.833)" d="M 2254.01,4993.18 L 2249.82,4996.97 L 2239.64,4988.53 L 2165.66,4858.11 L 2174.26,4850.57 L 2254.01,4993.18 Z " />
<path stroke="none" fill="#000000" transform="matrix(0.0833333 0 0 0.0833333 -89.3458 -176.833)" d="M 2174.26,4850.57 L 2165.66,4858.11 L 1900.23,4656.23 L 1905.52,4646.17 L 2174.26,4850.57 Z " />
<path stroke="none" fill="#000000" transform="matrix(0.0833333 0 0 0.0833333 -89.3458 -176.833)" d="M 2166.28,4855.89 L 2159.5,4864.8 L 1895.29,4663.85 L 1902.07,4654.93 L 2166.28,4855.89 Z " />
<path stroke="none" fill="#000000" transform="matrix(0.0833333 0 0 0.0833333 -89.3458 -176.833)" d="M 1905.52,4646.17 L 1900.23,4656.23 L 1726.15,4599.35 L 1715.97,4590.92 L 1718.66,4585.96 L 1905.52,4646.17 Z " />
<text x="0" y="0" stroke="none" fill="#000000" transform="matrix(0.0833333 0 0 0.0833333 117.012 260.124)" font-style="normal" font-weight="normal" font-size="112px" font-family="Arial" >
N</text>
<path stroke="none" fill="#000000" transform="matrix(0.0833333 0 0 0.0833333 -89.3458 -176.833)" d="M 2247.16,5001.93 L 2249.82,4996.97 L 2254.01,4993.18 L 2465.6,5154.06 L 2458.82,5162.97 L 2247.16,5001.93 Z " />
<path stroke="none" fill="#000000" transform="matrix(0.0833333 0 0 0.0833333 -89.3458 -176.833)" d="M 2575.46,5224.83 L 2578.9,5214.18 L 2705.42,5255.02 L 2701.98,5265.68 L 2575.46,5224.83 Z " />
<path stroke="none" fill="#000000" transform="matrix(0.0833333 0 0 0.0833333 -89.3458 -176.833)" d="M 2587.85,5186.46 L 2591.29,5175.8 L 2717.8,5216.65 L 2714.36,5227.3 L 2587.85,5186.46 Z " />
<path stroke="none" fill="#000000" transform="matrix(0.0833333 0 0 0.0833333 -89.3458 -176.833)" d="M 2700.9,5265.23 L 2706.25,5255.21 L 2859.04,5371.47 L 2849.06,5377.92 L 2700.9,5265.23 L 2700.9,5265.23 Z " />
<path stroke="none" fill="#000000" transform="matrix(0.0833333 0 0 0.0833333 -89.3458 -176.833)" d="M 2973.31,5458.42 L 2970.62,5463.37 L 2966.62,5467.33 L 2896.46,5413.97 L 2906.43,5407.53 L 2973.31,5458.42 L 2973.31,5458.42 Z " />
<text x="0" y="0" stroke="none" fill="#000000" transform="matrix(0.0833333 0 0 0.0833333 161.53 293.962)" font-style="normal" font-weight="normal" font-size="111px" font-family="Arial" >
N</text>
<path stroke="none" fill="#000000" transform="matrix(0.0833333 0 0 0.0833333 -89.3458 -176.833)" d="M 2965.74,5466.11 L 2970.62,5463.37 L 2980.09,5471.62 L 3022.73,5544.89 L 3012.96,5550.37 L 2965.74,5466.11 Z " />
<path stroke="none" fill="#000000" transform="matrix(0.0833333 0 0 0.0833333 -89.3458 -176.833)" d="M 3003.11,5496.71 L 3012.88,5491.24 L 3038.12,5536.27 L 3028.35,5541.74 L 3003.11,5496.71 Z " />
<path stroke="none" fill="#000000" transform="matrix(0.0833333 0 0 0.0833333 -89.3458 -176.833)" d="M 3105.5,5654.84 L 3112.28,5645.93 L 3320.17,5804.1 L 3317.51,5809.07 L 3313.31,5812.85 L 3105.5,5654.84 Z " />
<path stroke="none" fill="#000000" transform="matrix(0.0833333 0 0 0.0833333 -89.3458 -176.833)" d="M 3327.69,5817.5 L 3317.51,5809.07 L 3320.17,5804.1 L 3400.98,5830.5 L 3398.19,5840.91 L 3327.69,5817.5 L 3327.69,5817.5 Z " />
<path stroke="none" fill="#000000" transform="matrix(0.0833333 0 0 0.0833333 -89.3458 -176.833)" d="M 3494.29,5860.99 L 3518.66,5880.91 L 3451.43,5858.59 L 3454.29,5847.92 L 3494.29,5860.99 L 3494.29,5860.99 Z " />
<path stroke="none" fill="#000000" transform="matrix(0.0833333 0 0 0.0833333 -89.3458 -176.833)" d="M 3323.03,5800.54 L 3326.47,5789.88 L 3405.07,5815.25 L 3402.16,5826.09 L 3323.03,5800.54 L 3323.03,5800.54 Z " />
<path stroke="none" fill="#000000" transform="matrix(0.0833333 0 0 0.0833333 -89.3458 -176.833)" d="M 3473.54,5837.36 L 3470.1,5848.02 L 3455.52,5843.31 L 3458.43,5832.48 L 3473.54,5837.36 L 3473.54,5837.36 Z " />
<path stroke="none" fill="#000000" transform="matrix(0.0833333 0 0 0.0833333 -89.3458 -176.833)" d="M 3518.66,5880.91 L 3494.29,5860.99 L 3464.75,5808.89 L 3468.9,5793.37 L 3518.66,5880.91 L 3518.66,5880.91 Z " />
<path stroke="none" fill="#000000" transform="matrix(0.0833333 0 0 0.0833333 -89.3458 -176.833)" d="M 3420.32,5730.56 L 3428.92,5723.02 L 3429.5,5724.05 L 3425.37,5739.47 L 3420.32,5730.56 L 3420.32,5730.56 Z " />
<path stroke="none" fill="#000000" transform="matrix(0.0833333 0 0 0.0833333 -89.3458 -176.833)" d="M 3428.92,5723.02 L 3420.32,5730.56 L 3154.89,5528.68 L 3160.18,5518.63 L 3428.92,5723.02 L 3428.92,5723.02 Z " />
<path stroke="none" fill="#000000" transform="matrix(0.0833333 0 0 0.0833333 -89.3458 -176.833)" d="M 3420.93,5728.34 L 3414.15,5737.26 L 3149.95,5536.3 L 3156.73,5527.38 L 3420.93,5728.34 L 3420.93,5728.34 Z " />
<path stroke="none" fill="#000000" transform="matrix(0.0833333 0 0 0.0833333 -89.3458 -176.833)" d="M 3160.18,5518.63 L 3154.89,5528.68 L 2980.09,5471.62 L 2970.62,5463.37 L 2973.31,5458.42 L 3160.18,5518.63 Z " />
<path stroke="none" fill="#000000" transform="matrix(0.0833333 0 0 0.0833333 -89.3458 -176.833)" d="M 3313.31,5812.85 L 3317.51,5809.07 L 3327.69,5817.5 L 3395.61,5938.67 L 3397.48,5951.74 L 3390.68,5950.42 L 3313.31,5812.85 Z " />
<path stroke="none" fill="#000000" transform="matrix(0.0833333 0 0 0.0833333 -89.3458 -176.833)" d="M 3397.71,5958.76 L 3397.48,5951.74 L 3403.73,5949.61 L 3667.8,6150.31 L 3661.02,6159.22 L 3397.71,5958.76 Z " />
<path stroke="none" fill="#000000" transform="matrix(0.0833333 0 0 0.0833333 -89.3458 -176.833)" d="M 1718.66,4585.96 L 1715.97,4590.92 L 1711.78,4594.73 L 1445.66,4392.36 L 1452.44,4383.44 L 1718.66,4585.96 Z " />
<path stroke="none" fill="#808080" transform="matrix(0.0833333 0 0 0.0833333 -89.3458 -176.833)" d="M 2621.2,2937 A 201.6,201.6 0 1 0 3024.4,2937A 201.6,201.6 0 1 0 2621.2,2937Z " />
<path stroke="none" fill="#878787" transform="matrix(0.0833333 0 0 0.0833333 -89.3458 -176.833)" d="M 2623.55,2933.85 A 196.104,196.104 0 1 0 3015.75,2933.85A 196.104,196.104 0 1 0 2623.55,2933.85Z " />
<path stroke="none" fill="#8f8f8f" transform="matrix(0.0833333 0 0 0.0833333 -89.3458 -176.833)" d="M 2625.89,2930.7 A 190.608,190.608 0 1 0 3007.11,2930.7A 190.608,190.608 0 1 0 2625.89,2930.7Z " />
<path stroke="none" fill="#969696" transform="matrix(0.0833333 0 0 0.0833333 -89.3458 -176.833)" d="M 2628.24,2927.55 A 185.112,185.112 0 1 0 2998.46,2927.55A 185.112,185.112 0 1 0 2628.24,2927.55Z " />
<path stroke="none" fill="#9d9d9d" transform="matrix(0.0833333 0 0 0.0833333 -89.3458 -176.833)" d="M 2630.58,2924.4 A 179.616,179.616 0 1 0 2989.82,2924.4A 179.616,179.616 0 1 0 2630.58,2924.4Z " />
<path stroke="none" fill="#a4a4a4" transform="matrix(0.0833333 0 0 0.0833333 -89.3458 -176.833)" d="M 2632.93,2921.25 A 174.12,174.12 0 1 0 2981.17,2921.25A 174.12,174.12 0 1 0 2632.93,2921.25Z " />
<path stroke="none" fill="#ababab" transform="matrix(0.0833333 0 0 0.0833333 -89.3458 -176.833)" d="M 2635.28,2918.1 A 168.623,168.623 0 1 0 2972.52,2918.1A 168.623,168.623 0 1 0 2635.28,2918.1Z " />
<path stroke="none" fill="#b1b1b1" transform="matrix(0.0833333 0 0 0.0833333 -89.3458 -176.833)" d="M 2637.62,2914.95 A 163.127,163.127 0 1 0 2963.88,2914.95A 163.127,163.127 0 1 0 2637.62,2914.95Z " />
<path stroke="none" fill="#b7b7b7" transform="matrix(0.0833333 0 0 0.0833333 -89.3458 -176.833)" d="M 2639.97,2911.8 A 157.631,157.631 0 1 0 2955.23,2911.8A 157.631,157.631 0 1 0 2639.97,2911.8Z " />
<path stroke="none" fill="#bdbdbd" transform="matrix(0.0833333 0 0 0.0833333 -89.3458 -176.833)" d="M 2642.31,2908.65 A 152.135,152.135 0 1 0 2946.58,2908.65A 152.135,152.135 0 1 0 2642.31,2908.65Z " />
<path stroke="none" fill="#c2c2c2" transform="matrix(0.0833333 0 0 0.0833333 -89.3458 -176.833)" d="M 2644.66,2905.5 A 146.639,146.639 0 1 0 2937.94,2905.5A 146.639,146.639 0 1 0 2644.66,2905.5Z " />
<path stroke="none" fill="#c8c8c8" transform="matrix(0.0833333 0 0 0.0833333 -89.3458 -176.833)" d="M 2647.01,2902.35 A 141.143,141.143 0 1 0 2929.29,2902.35A 141.143,141.143 0 1 0 2647.01,2902.35Z " />
<path stroke="none" fill="#cdcdcd" transform="matrix(0.0833333 0 0 0.0833333 -89.3458 -176.833)" d="M 2649.35,2899.2 A 135.647,135.647 0 1 0 2920.65,2899.2A 135.647,135.647 0 1 0 2649.35,2899.2Z " />
<path stroke="none" fill="#d2d2d2" transform="matrix(0.0833333 0 0 0.0833333 -89.3458 -176.833)" d="M 2651.7,2896.05 A 130.151,130.151 0 1 0 2912,2896.05A 130.151,130.151 0 1 0 2651.7,2896.05Z " />
<path stroke="none" fill="#d6d6d6" transform="matrix(0.0833333 0 0 0.0833333 -89.3458 -176.833)" d="M 2654.05,2892.9 A 124.655,124.655 0 1 0 2903.35,2892.9A 124.655,124.655 0 1 0 2654.05,2892.9Z " />
<path stroke="none" fill="#dbdbdb" transform="matrix(0.0833333 0 0 0.0833333 -89.3458 -176.833)" d="M 2656.39,2889.75 A 119.159,119.159 0 1 0 2894.71,2889.75A 119.159,119.159 0 1 0 2656.39,2889.75Z " />
<path stroke="none" fill="#dfdfdf" transform="matrix(0.0833333 0 0 0.0833333 -89.3458 -176.833)" d="M 2658.74,2886.6 A 113.663,113.663 0 1 0 2886.06,2886.6A 113.663,113.663 0 1 0 2658.74,2886.6Z " />
<path stroke="none" fill="#e3e3e3" transform="matrix(0.0833333 0 0 0.0833333 -89.3458 -176.833)" d="M 2661.08,2883.45 A 108.166,108.166 0 1 0 2877.42,2883.45A 108.166,108.166 0 1 0 2661.08,2883.45Z " />
<path stroke="none" fill="#e6e6e6" transform="matrix(0.0833333 0 0 0.0833333 -89.3458 -176.833)" d="M 2663.43,2880.3 A 102.67,102.67 0 1 0 2868.77,2880.3A 102.67,102.67 0 1 0 2663.43,2880.3Z " />
<path stroke="none" fill="#eaeaea" transform="matrix(0.0833333 0 0 0.0833333 -89.3458 -176.833)" d="M 2665.78,2877.15 A 97.1743,97.1743 0 1 0 2860.12,2877.15A 97.1743,97.1743 0 1 0 2665.78,2877.15Z " />
<path stroke="none" fill="#ededed" transform="matrix(0.0833333 0 0 0.0833333 -89.3458 -176.833)" d="M 2668.12,2874 A 91.6782,91.6782 0 1 0 2851.48,2874A 91.6782,91.6782 0 1 0 2668.12,2874Z " />
<path stroke="none" fill="#efefef" transform="matrix(0.0833333 0 0 0.0833333 -89.3458 -176.833)" d="M 2670.47,2870.85 A 86.1821,86.1821 0 1 0 2842.83,2870.85A 86.1821,86.1821 0 1 0 2670.47,2870.85Z " />
<path stroke="none" fill="#f2f2f2" transform="matrix(0.0833333 0 0 0.0833333 -89.3458 -176.833)" d="M 2672.81,2867.7 A 80.686,80.686 0 1 0 2834.19,2867.7A 80.686,80.686 0 1 0 2672.81,2867.7Z " />
<path stroke="none" fill="#f4f4f4" transform="matrix(0.0833333 0 0 0.0833333 -89.3458 -176.833)" d="M 2675.16,2864.55 A 75.1899,75.1899 0 1 0 2825.54,2864.55A 75.1899,75.1899 0 1 0 2675.16,2864.55Z " />
<path stroke="none" fill="#f7f7f7" transform="matrix(0.0833333 0 0 0.0833333 -89.3458 -176.833)" d="M 2677.51,2861.4 A 69.6938,69.6938 0 1 0 2816.89,2861.4A 69.6938,69.6938 0 1 0 2677.51,2861.4Z " />
<path stroke="none" fill="#f8f8f8" transform="matrix(0.0833333 0 0 0.0833333 -89.3458 -176.833)" d="M 2679.85,2858.25 A 64.1977,64.1977 0 1 0 2808.25,2858.25A 64.1977,64.1977 0 1 0 2679.85,2858.25Z " />
<path stroke="none" fill="#fafafa" transform="matrix(0.0833333 0 0 0.0833333 -89.3458 -176.833)" d="M 2682.2,2855.1 A 58.7016,58.7016 0 1 0 2799.6,2855.1A 58.7016,58.7016 0 1 0 2682.2,2855.1Z " />
<path stroke="none" fill="#fbfbfb" transform="matrix(0.0833333 0 0 0.0833333 -89.3458 -176.833)" d="M 2684.54,2851.95 A 53.2055,53.2055 0 1 0 2790.96,2851.95A 53.2055,53.2055 0 1 0 2684.54,2851.95Z " />
<path stroke="none" fill="#fdfdfd" transform="matrix(0.0833333 0 0 0.0833333 -89.3458 -176.833)" d="M 2686.89,2848.8 A 47.7094,47.7094 0 1 0 2782.31,2848.8A 47.7094,47.7094 0 1 0 2686.89,2848.8Z " />
<path stroke="none" fill="#fdfdfd" transform="matrix(0.0833333 0 0 0.0833333 -89.3458 -176.833)" d="M 2689.24,2845.65 A 42.2133,42.2133 0 1 0 2773.66,2845.65A 42.2133,42.2133 0 1 0 2689.24,2845.65Z " />
<path stroke="none" fill="#fefefe" transform="matrix(0.0833333 0 0 0.0833333 -89.3458 -176.833)" d="M 2691.58,2842.5 A 36.7172,36.7172 0 1 0 2765.02,2842.5A 36.7172,36.7172 0 1 0 2691.58,2842.5Z " />
<path stroke="none" fill="#fefefe" transform="matrix(0.0833333 0 0 0.0833333 -89.3458 -176.833)" d="M 2693.93,2839.35 A 31.2211,31.2211 0 1 0 2756.37,2839.35A 31.2211,31.2211 0 1 0 2693.93,2839.35Z " />
<path stroke="#808080" stroke-width="11" fill="none" transform="matrix(0.0833333 0 0 0.0833333 -89.3458 -176.833)" d="M 2621.2,2937 A 201.6,201.6 0 1 0 3024.4,2937A 201.6,201.6 0 1 0 2621.2,2937Z " />
<text x="0" y="0" stroke="none" fill="#000000" transform="matrix(0.0833333 0 0 0.0833333 137.342 70.4833)" font-style="normal" font-weight="normal" font-size="135px" font-family="Times New Roman" >
Ag</text>
<text x="0" y="0" stroke="none" fill="#000000" transform="matrix(0.0833333 0 0 0.0833333 151.091 66.2333)" font-style="normal" font-weight="normal" font-size="101.25px" font-family="Times New Roman" >
+</text>
<path stroke="none" fill="#000000" transform="matrix(0.0833333 0 0 0.0833333 -89.3458 -176.833)" d="M 1197.84,3456.68 L 1194.44,3446.01 L 1513.54,3344.41 L 1516.21,3349.4 L 1516.85,3355.03 L 1197.84,3456.68 Z " />
<path stroke="none" fill="#000000" transform="matrix(0.0833333 0 0 0.0833333 -89.3458 -176.833)" d="M 1516.85,3355.03 L 1516.21,3349.4 L 1527.88,3345.89 L 1691.77,3365.32 L 1692.88,3376.73 L 1516.85,3355.03 Z " />
<path stroke="none" fill="#000000" transform="matrix(0.0833333 0 0 0.0833333 -89.3458 -176.833)" d="M 1581.92,3334.87 L 1583.28,3323.75 L 1690.42,3336.86 L 1689.06,3347.98 L 1581.92,3334.87 Z " />
<path stroke="none" fill="#000000" transform="matrix(0.0833333 0 0 0.0833333 -89.3458 -176.833)" d="M 1692.88,3376.73 L 1691.77,3365.32 L 2009.64,3264.05 L 2015.18,3274.04 L 1692.88,3376.73 Z " />
<path stroke="none" fill="#000000" transform="matrix(0.0833333 0 0 0.0833333 -89.3458 -176.833)" d="M 2015.18,3274.04 L 2009.64,3264.05 L 2144.53,3149.03 L 2156.2,3145.53 L 2158.89,3150.5 L 2015.18,3274.04 Z " />
<path stroke="none" fill="#000000" transform="matrix(0.0833333 0 0 0.0833333 -89.3458 -176.833)" d="M 2002.04,3248.33 L 1994.75,3239.83 L 2086.18,3161.35 L 2093.47,3169.85 L 2002.04,3248.33 Z " />
<path stroke="none" fill="#000000" transform="matrix(0.0833333 0 0 0.0833333 -89.3458 -176.833)" d="M 2155.59,3139.9 L 2156.2,3145.53 L 2144.53,3149.03 L 1980.81,3129.58 L 1979.7,3118.17 L 2155.59,3139.9 Z " />
<path stroke="none" fill="#000000" transform="matrix(0.0833333 0 0 0.0833333 -89.3458 -176.833)" d="M 1979.7,3118.17 L 1980.81,3129.58 L 1662.77,3230.88 L 1657.23,3220.89 L 1979.7,3118.17 Z " />
<path stroke="none" fill="#000000" transform="matrix(0.0833333 0 0 0.0833333 -89.3458 -176.833)" d="M 1982.31,3159.69 L 1985.71,3170.36 L 1681.83,3267.15 L 1678.44,3256.48 L 1982.31,3159.69 Z " />
<path stroke="none" fill="#000000" transform="matrix(0.0833333 0 0 0.0833333 -89.3458 -176.833)" d="M 1657.23,3220.89 L 1662.77,3230.88 L 1527.88,3345.89 L 1516.21,3349.4 L 1513.54,3344.41 L 1657.23,3220.89 Z " />
<text x="0" y="0" stroke="none" fill="#000000" transform="matrix(0.0833333 0 0 0.0833333 113.64 80.4236)" font-style="normal" font-weight="normal" font-size="112px" font-family="Arial" >
N</text>
<path stroke="none" fill="#000000" transform="matrix(0.0833333 0 0 0.0833333 -89.3458 -176.833)" d="M 2158.89,3150.5 L 2156.2,3145.53 L 2155.59,3139.9 L 2413.36,3057.74 L 2416.76,3068.42 L 2158.89,3150.5 Z " />
<path stroke="none" fill="#000000" transform="matrix(0.0833333 0 0 0.0833333 -89.3458 -176.833)" d="M 2527.94,3055.55 L 2529.3,3044.43 L 2651.72,3059.54 L 2652.88,3070.93 L 2527.94,3055.55 Z " />
<path stroke="none" fill="#000000" transform="matrix(0.0833333 0 0 0.0833333 -89.3458 -176.833)" d="M 2531.34,3027.75 L 2532.7,3016.64 L 2650.48,3031.05 L 2649.12,3042.16 L 2531.34,3027.75 Z " />
<text x="0" y="0" stroke="none" fill="#000000" transform="matrix(0.0833333 0 0 0.0833333 167.016 63.4323)" font-style="normal" font-weight="normal" font-size="111px" font-family="Arial" >
N</text>
<path stroke="none" fill="#000000" transform="matrix(0.0833333 0 0 0.0833333 -89.3458 -176.833)" d="M 2973.18,2968.83 L 2972.55,2963.19 L 2983.72,2959.6 L 3148.1,2979.11 L 3149.21,2990.52 L 2973.18,2968.83 Z " />
<path stroke="none" fill="#000000" transform="matrix(0.0833333 0 0 0.0833333 -89.3458 -176.833)" d="M 3038.25,2948.66 L 3039.61,2937.55 L 3146.75,2950.66 L 3145.39,2961.77 L 3038.25,2948.66 Z " />
<path stroke="none" fill="#000000" transform="matrix(0.0833333 0 0 0.0833333 -89.3458 -176.833)" d="M 3149.21,2990.52 L 3148.1,2979.11 L 3466.14,2877.81 L 3471.68,2887.81 L 3149.21,2990.52 Z " />
<path stroke="none" fill="#000000" transform="matrix(0.0833333 0 0 0.0833333 -89.3458 -176.833)" d="M 3471.68,2887.81 L 3466.14,2877.81 L 3601.03,2762.8 L 3628.1,2754.6 L 3471.68,2887.81 Z " />
<path stroke="none" fill="#000000" transform="matrix(0.0833333 0 0 0.0833333 -89.3458 -176.833)" d="M 3458.55,2862.1 L 3451.25,2853.6 L 3542.66,2775.13 L 3549.96,2783.63 L 3458.55,2862.1 Z " />
<path stroke="none" fill="#000000" transform="matrix(0.0833333 0 0 0.0833333 -89.3458 -176.833)" d="M 3628.1,2754.6 L 3601.03,2762.8 L 3437.11,2743.37 L 3436.5,2737.74 L 3447.76,2734.16 L 3628.1,2754.6 Z " />
<path stroke="none" fill="#000000" transform="matrix(0.0833333 0 0 0.0833333 -89.3458 -176.833)" d="M 3433.94,2732.72 L 3436.5,2737.74 L 3437.11,2743.37 L 3177.28,2826.18 L 3173.88,2815.51 L 3433.94,2732.72 Z " />
<path stroke="none" fill="#000000" transform="matrix(0.0833333 0 0 0.0833333 -89.3458 -176.833)" d="M 3438.65,2773.49 L 3442.05,2784.16 L 3189.51,2864.59 L 3186.11,2853.92 L 3438.65,2773.49 Z " />
<path stroke="none" fill="#000000" transform="matrix(0.0833333 0 0 0.0833333 -89.3458 -176.833)" d="M 3056.47,2883.77 L 3063.77,2892.27 L 2983.72,2959.6 L 2972.55,2963.19 L 2968.9,2958.94 L 3056.47,2883.77 Z " />
<path stroke="none" fill="#000000" transform="matrix(0.0833333 0 0 0.0833333 -89.3458 -176.833)" d="M 2652.88,3070.93 L 2651.72,3059.54 L 2970.03,2958.15 L 2972.55,2963.19 L 2973.18,2968.83 L 2652.88,3070.93 Z " />
<text x="0" y="0" stroke="none" fill="#000000" transform="matrix(0.0833333 0 0 0.0833333 205.422 44.6446)" font-style="normal" font-weight="normal" font-size="111px" font-family="Arial" >
O</text>
<path stroke="none" fill="#000000" transform="matrix(0.0833333 0 0 0.0833333 -89.3458 -176.833)" d="M 3447.76,2734.16 L 3436.5,2737.74 L 3433.94,2732.72 L 3526.97,2652.71 L 3534.26,2661.21 L 3447.76,2734.16 Z " />
<path stroke="none" fill="#000000" transform="matrix(0.0833333 0 0 0.0833333 -89.3458 -176.833)" d="M 3638.8,2601.51 L 3635.4,2590.83 L 3898.76,2506.95 L 3902.16,2517.62 L 3638.8,2601.51 Z " />
<path stroke="none" fill="#000000" transform="matrix(0.0833333 0 0 0.0833333 -89.3458 -176.833)" d="M 3390.68,5950.42 L 3397.48,5951.74 L 3397.71,5958.76 L 3147.6,6176.43 L 3140.25,6167.98 L 3390.68,5950.42 Z " />
<path stroke="none" fill="#000000" transform="matrix(0.0833333 0 0 0.0833333 -89.3458 -176.833)" d="M 3403.73,5949.61 L 3397.48,5951.74 L 3395.61,5938.67 L 3479.04,5625.74 L 3489.86,5628.64 L 3403.73,5949.61 Z " />
<path stroke="none" fill="#808080" transform="matrix(0.0833333 0 0 0.0833333 -89.3458 -176.833)" d="M 2559.2,5405 A 201.6,201.6 0 1 0 2962.4,5405A 201.6,201.6 0 1 0 2559.2,5405Z " />
<path stroke="none" fill="#878787" transform="matrix(0.0833333 0 0 0.0833333 -89.3458 -176.833)" d="M 2561.55,5401.85 A 196.104,196.104 0 1 0 2953.75,5401.85A 196.104,196.104 0 1 0 2561.55,5401.85Z " />
<path stroke="none" fill="#8f8f8f" transform="matrix(0.0833333 0 0 0.0833333 -89.3458 -176.833)" d="M 2563.89,5398.7 A 190.608,190.608 0 1 0 2945.11,5398.7A 190.608,190.608 0 1 0 2563.89,5398.7Z " />
<path stroke="none" fill="#969696" transform="matrix(0.0833333 0 0 0.0833333 -89.3458 -176.833)" d="M 2566.24,5395.55 A 185.112,185.112 0 1 0 2936.46,5395.55A 185.112,185.112 0 1 0 2566.24,5395.55Z " />
<path stroke="none" fill="#9d9d9d" transform="matrix(0.0833333 0 0 0.0833333 -89.3458 -176.833)" d="M 2568.58,5392.4 A 179.616,179.616 0 1 0 2927.82,5392.4A 179.616,179.616 0 1 0 2568.58,5392.4Z " />
<path stroke="none" fill="#a4a4a4" transform="matrix(0.0833333 0 0 0.0833333 -89.3458 -176.833)" d="M 2570.93,5389.25 A 174.12,174.12 0 1 0 2919.17,5389.25A 174.12,174.12 0 1 0 2570.93,5389.25Z " />
<path stroke="none" fill="#ababab" transform="matrix(0.0833333 0 0 0.0833333 -89.3458 -176.833)" d="M 2573.28,5386.1 A 168.623,168.623 0 1 0 2910.52,5386.1A 168.623,168.623 0 1 0 2573.28,5386.1Z " />
<path stroke="none" fill="#b1b1b1" transform="matrix(0.0833333 0 0 0.0833333 -89.3458 -176.833)" d="M 2575.62,5382.95 A 163.127,163.127 0 1 0 2901.88,5382.95A 163.127,163.127 0 1 0 2575.62,5382.95Z " />
<path stroke="none" fill="#b7b7b7" transform="matrix(0.0833333 0 0 0.0833333 -89.3458 -176.833)" d="M 2577.97,5379.8 A 157.631,157.631 0 1 0 2893.23,5379.8A 157.631,157.631 0 1 0 2577.97,5379.8Z " />
<path stroke="none" fill="#bdbdbd" transform="matrix(0.0833333 0 0 0.0833333 -89.3458 -176.833)" d="M 2580.31,5376.65 A 152.135,152.135 0 1 0 2884.58,5376.65A 152.135,152.135 0 1 0 2580.31,5376.65Z " />
<path stroke="none" fill="#c2c2c2" transform="matrix(0.0833333 0 0 0.0833333 -89.3458 -176.833)" d="M 2582.66,5373.5 A 146.639,146.639 0 1 0 2875.94,5373.5A 146.639,146.639 0 1 0 2582.66,5373.5Z " />
<path stroke="none" fill="#c8c8c8" transform="matrix(0.0833333 0 0 0.0833333 -89.3458 -176.833)" d="M 2585.01,5370.35 A 141.143,141.143 0 1 0 2867.29,5370.35A 141.143,141.143 0 1 0 2585.01,5370.35Z " />
<path stroke="none" fill="#cdcdcd" transform="matrix(0.0833333 0 0 0.0833333 -89.3458 -176.833)" d="M 2587.35,5367.2 A 135.647,135.647 0 1 0 2858.65,5367.2A 135.647,135.647 0 1 0 2587.35,5367.2Z " />
<path stroke="none" fill="#d2d2d2" transform="matrix(0.0833333 0 0 0.0833333 -89.3458 -176.833)" d="M 2589.7,5364.05 A 130.151,130.151 0 1 0 2850,5364.05A 130.151,130.151 0 1 0 2589.7,5364.05Z " />
<path stroke="none" fill="#d6d6d6" transform="matrix(0.0833333 0 0 0.0833333 -89.3458 -176.833)" d="M 2592.04,5360.9 A 124.655,124.655 0 1 0 2841.35,5360.9A 124.655,124.655 0 1 0 2592.04,5360.9Z " />
<path stroke="none" fill="#dbdbdb" transform="matrix(0.0833333 0 0 0.0833333 -89.3458 -176.833)" d="M 2594.39,5357.75 A 119.159,119.159 0 1 0 2832.71,5357.75A 119.159,119.159 0 1 0 2594.39,5357.75Z " />
<path stroke="none" fill="#dfdfdf" transform="matrix(0.0833333 0 0 0.0833333 -89.3458 -176.833)" d="M 2596.74,5354.6 A 113.663,113.663 0 1 0 2824.06,5354.6A 113.663,113.663 0 1 0 2596.74,5354.6Z " />
<path stroke="none" fill="#e3e3e3" transform="matrix(0.0833333 0 0 0.0833333 -89.3458 -176.833)" d="M 2599.08,5351.45 A 108.166,108.166 0 1 0 2815.42,5351.45A 108.166,108.166 0 1 0 2599.08,5351.45Z " />
<path stroke="none" fill="#e6e6e6" transform="matrix(0.0833333 0 0 0.0833333 -89.3458 -176.833)" d="M 2601.43,5348.3 A 102.67,102.67 0 1 0 2806.77,5348.3A 102.67,102.67 0 1 0 2601.43,5348.3Z " />
<path stroke="none" fill="#eaeaea" transform="matrix(0.0833333 0 0 0.0833333 -89.3458 -176.833)" d="M 2603.78,5345.15 A 97.1743,97.1743 0 1 0 2798.12,5345.15A 97.1743,97.1743 0 1 0 2603.78,5345.15Z " />
<path stroke="none" fill="#ededed" transform="matrix(0.0833333 0 0 0.0833333 -89.3458 -176.833)" d="M 2606.12,5342 A 91.6782,91.6782 0 1 0 2789.48,5342A 91.6782,91.6782 0 1 0 2606.12,5342Z " />
<path stroke="none" fill="#efefef" transform="matrix(0.0833333 0 0 0.0833333 -89.3458 -176.833)" d="M 2608.47,5338.85 A 86.1821,86.1821 0 1 0 2780.83,5338.85A 86.1821,86.1821 0 1 0 2608.47,5338.85Z " />
<path stroke="none" fill="#f2f2f2" transform="matrix(0.0833333 0 0 0.0833333 -89.3458 -176.833)" d="M 2610.81,5335.7 A 80.686,80.686 0 1 0 2772.19,5335.7A 80.686,80.686 0 1 0 2610.81,5335.7Z " />
<path stroke="none" fill="#f4f4f4" transform="matrix(0.0833333 0 0 0.0833333 -89.3458 -176.833)" d="M 2613.16,5332.55 A 75.1899,75.1899 0 1 0 2763.54,5332.55A 75.1899,75.1899 0 1 0 2613.16,5332.55Z " />
<path stroke="none" fill="#f7f7f7" transform="matrix(0.0833333 0 0 0.0833333 -89.3458 -176.833)" d="M 2615.51,5329.4 A 69.6938,69.6938 0 1 0 2754.89,5329.4A 69.6938,69.6938 0 1 0 2615.51,5329.4Z " />
<path stroke="none" fill="#f8f8f8" transform="matrix(0.0833333 0 0 0.0833333 -89.3458 -176.833)" d="M 2617.85,5326.25 A 64.1977,64.1977 0 1 0 2746.25,5326.25A 64.1977,64.1977 0 1 0 2617.85,5326.25Z " />
<path stroke="none" fill="#fafafa" transform="matrix(0.0833333 0 0 0.0833333 -89.3458 -176.833)" d="M 2620.2,5323.1 A 58.7016,58.7016 0 1 0 2737.6,5323.1A 58.7016,58.7016 0 1 0 2620.2,5323.1Z " />
<path stroke="none" fill="#fbfbfb" transform="matrix(0.0833333 0 0 0.0833333 -89.3458 -176.833)" d="M 2622.54,5319.95 A 53.2055,53.2055 0 1 0 2728.96,5319.95A 53.2055,53.2055 0 1 0 2622.54,5319.95Z " />
<path stroke="none" fill="#fdfdfd" transform="matrix(0.0833333 0 0 0.0833333 -89.3458 -176.833)" d="M 2624.89,5316.8 A 47.7094,47.7094 0 1 0 2720.31,5316.8A 47.7094,47.7094 0 1 0 2624.89,5316.8Z " />
<path stroke="none" fill="#fdfdfd" transform="matrix(0.0833333 0 0 0.0833333 -89.3458 -176.833)" d="M 2627.24,5313.65 A 42.2133,42.2133 0 1 0 2711.66,5313.65A 42.2133,42.2133 0 1 0 2627.24,5313.65Z " />
<path stroke="none" fill="#fefefe" transform="matrix(0.0833333 0 0 0.0833333 -89.3458 -176.833)" d="M 2629.58,5310.5 A 36.7172,36.7172 0 1 0 2703.02,5310.5A 36.7172,36.7172 0 1 0 2629.58,5310.5Z " />
<path stroke="none" fill="#fefefe" transform="matrix(0.0833333 0 0 0.0833333 -89.3458 -176.833)" d="M 2631.93,5307.35 A 31.2211,31.2211 0 1 0 2694.37,5307.35A 31.2211,31.2211 0 1 0 2631.93,5307.35Z " />
<path stroke="#808080" stroke-width="11" fill="none" transform="matrix(0.0833333 0 0 0.0833333 -89.3458 -176.833)" d="M 2559.2,5405 A 201.6,201.6 0 1 0 2962.4,5405A 201.6,201.6 0 1 0 2559.2,5405Z " />
<text x="0" y="0" stroke="none" fill="#000000" transform="matrix(0.0833333 0 0 0.0833333 132.175 276.15)" font-style="normal" font-weight="normal" font-size="135px" font-family="Times New Roman" >
Ag</text>
<text x="0" y="0" stroke="none" fill="#000000" transform="matrix(0.0833333 0 0 0.0833333 145.925 271.9)" font-style="normal" font-weight="normal" font-size="101.25px" font-family="Times New Roman" >
+</text>
<path stroke="none" fill="#000000" transform="matrix(0.0833333 0 0 0.0833333 -89.3458 -176.833)" d="M 1356.58,6294.14 L 1350.5,6284.73 L 1631.8,6103.02 L 1635.69,6107.13 L 1637.78,6112.41 L 1356.58,6294.14 Z " />
<path stroke="none" fill="#000000" transform="matrix(0.0833333 0 0 0.0833333 -89.3458 -176.833)" d="M 1637.78,6112.41 L 1635.69,6107.13 L 1646.04,6100.69 L 1809.28,6076.47 L 1813.34,6087.19 L 1637.78,6112.41 Z " />
<path stroke="none" fill="#000000" transform="matrix(0.0833333 0 0 0.0833333 -89.3458 -176.833)" d="M 1695.29,6075.89 L 1693.69,6064.8 L 1800.52,6049.36 L 1802.12,6060.45 L 1695.29,6075.89 Z " />
<path stroke="none" fill="#000000" transform="matrix(0.0833333 0 0 0.0833333 -89.3458 -176.833)" d="M 1813.34,6087.19 L 1809.28,6076.47 L 2089.48,5895.4 L 2097.44,5903.6 L 1813.34,6087.19 Z " />
<path stroke="none" fill="#000000" transform="matrix(0.0833333 0 0 0.0833333 -89.3458 -176.833)" d="M 2097.44,5903.6 L 2089.48,5895.4 L 2189.49,5749.04 L 2199.84,5742.61 L 2203.74,5746.69 L 2097.44,5903.6 Z " />
<path stroke="none" fill="#000000" transform="matrix(0.0833333 0 0 0.0833333 -89.3458 -176.833)" d="M 2078.03,5882.23 L 2068.76,5875.94 L 2136.42,5776.23 L 2145.68,5782.52 L 2078.03,5882.23 Z " />
<path stroke="none" fill="#000000" transform="matrix(0.0833333 0 0 0.0833333 -89.3458 -176.833)" d="M 2197.78,5737.33 L 2199.84,5742.61 L 2189.49,5749.04 L 2026.4,5773.2 L 2022.34,5762.48 L 2197.78,5737.33 Z " />
<path stroke="none" fill="#000000" transform="matrix(0.0833333 0 0 0.0833333 -89.3458 -176.833)" d="M 2022.34,5762.48 L 2026.4,5773.2 L 1746.05,5954.34 L 1738.08,5946.15 L 2022.34,5762.48 Z " />
<path stroke="none" fill="#000000" transform="matrix(0.0833333 0 0 0.0833333 -89.3458 -176.833)" d="M 2035.75,5801.86 L 2041.82,5811.27 L 1773.95,5984.34 L 1767.88,5974.94 L 2035.75,5801.86 Z " />
<path stroke="none" fill="#000000" transform="matrix(0.0833333 0 0 0.0833333 -89.3458 -176.833)" d="M 1738.08,5946.15 L 1746.05,5954.34 L 1646.04,6100.69 L 1635.69,6107.13 L 1631.8,6103.02 L 1738.08,5946.15 Z " />
<text x="0" y="0" stroke="none" fill="#000000" transform="matrix(0.0833333 0 0 0.0833333 114.116 290.15)" font-style="normal" font-weight="normal" font-size="112px" font-family="Arial" >
N</text>
<path stroke="none" fill="#000000" transform="matrix(0.0833333 0 0 0.0833333 -89.3458 -176.833)" d="M 2203.74,5746.69 L 2199.84,5742.61 L 2197.78,5737.33 L 2418.28,5594.8 L 2424.35,5604.21 L 2203.74,5746.69 Z " />
<path stroke="none" fill="#000000" transform="matrix(0.0833333 0 0 0.0833333 -89.3458 -176.833)" d="M 2534.89,5558.32 L 2533.29,5547.23 L 2655.48,5529.7 L 2659.59,5540.4 L 2534.89,5558.32 Z " />
<path stroke="none" fill="#000000" transform="matrix(0.0833333 0 0 0.0833333 -89.3458 -176.833)" d="M 2530.89,5530.61 L 2529.28,5519.52 L 2646.81,5502.53 L 2648.41,5513.62 L 2530.89,5530.61 Z " />
<text x="0" y="0" stroke="none" fill="#000000" transform="matrix(0.0833333 0 0 0.0833333 161.172 259.767)" font-style="normal" font-weight="normal" font-size="111px" font-family="Arial" >
N</text>
<path stroke="none" fill="#000000" transform="matrix(0.0833333 0 0 0.0833333 -89.3458 -176.833)" d="M 2941.91,5357.89 L 2939.82,5352.61 L 2949.65,5346.21 L 3113.41,5321.95 L 3117.47,5332.67 L 2941.91,5357.89 Z " />
<path stroke="none" fill="#000000" transform="matrix(0.0833333 0 0 0.0833333 -89.3458 -176.833)" d="M 2999.42,5321.37 L 2997.82,5310.28 L 3104.65,5294.84 L 3106.25,5305.93 L 2999.42,5321.37 Z " />
<path stroke="none" fill="#000000" transform="matrix(0.0833333 0 0 0.0833333 -89.3458 -176.833)" d="M 3117.47,5332.67 L 3113.41,5321.95 L 3393.77,5140.81 L 3401.73,5149 L 3117.47,5332.67 Z " />
<path stroke="none" fill="#000000" transform="matrix(0.0833333 0 0 0.0833333 -89.3458 -176.833)" d="M 3401.73,5149 L 3393.77,5140.81 L 3480.43,5013.99 L 3486.9,5013.01 L 3485.85,5006.06 L 3493.78,4994.46 L 3517.76,4979.45 L 3401.73,5149 L 3401.73,5149 Z " />
<path stroke="none" fill="#000000" transform="matrix(0.0833333 0 0 0.0833333 -89.3458 -176.833)" d="M 3382.32,5127.64 L 3373.05,5121.35 L 3440.69,5021.66 L 3449.96,5027.95 L 3382.32,5127.64 L 3382.32,5127.64 Z " />
<path stroke="none" fill="#000000" transform="matrix(0.0833333 0 0 0.0833333 -89.3458 -176.833)" d="M 3517.76,4979.45 L 3493.78,4994.46 L 3484.31,4995.86 L 3482.64,4984.85 L 3517.76,4979.45 L 3517.76,4979.45 Z " />
<path stroke="none" fill="#000000" transform="matrix(0.0833333 0 0 0.0833333 -89.3458 -176.833)" d="M 3330.5,5018.68 L 3328.44,5013.41 L 3338.78,5006.96 L 3427.29,4993.36 L 3428.92,5004.08 L 3330.5,5018.68 L 3330.5,5018.68 Z " />
<path stroke="none" fill="#000000" transform="matrix(0.0833333 0 0 0.0833333 -89.3458 -176.833)" d="M 3324.53,5009.32 L 3328.44,5013.41 L 3330.5,5018.68 L 3105.3,5164.24 L 3099.22,5154.84 L 3324.53,5009.32 Z " />
<path stroke="none" fill="#000000" transform="matrix(0.0833333 0 0 0.0833333 -89.3458 -176.833)" d="M 3339.88,5047.34 L 3345.96,5056.75 L 3127.18,5198.1 L 3121.1,5188.7 L 3339.88,5047.34 Z " />
<path stroke="none" fill="#000000" transform="matrix(0.0833333 0 0 0.0833333 -89.3458 -176.833)" d="M 2999.15,5255.21 L 3008.41,5261.5 L 2949.65,5346.21 L 2939.82,5352.61 L 2935.19,5349.47 L 2999.15,5255.21 Z " />
<path stroke="none" fill="#000000" transform="matrix(0.0833333 0 0 0.0833333 -89.3458 -176.833)" d="M 2659.59,5540.4 L 2655.48,5529.7 L 2936.08,5348.4 L 2939.82,5352.61 L 2941.91,5357.89 L 2659.59,5540.4 Z " />
<path stroke="none" fill="#000000" transform="matrix(0.0833333 0 0 0.0833333 -89.3458 -176.833)" d="M 3338.78,5006.96 L 3328.44,5013.41 L 3324.53,5009.32 L 3426.59,4859.54 L 3434.91,4856.5 L 3432.16,4869.25 L 3338.78,5006.96 Z " />
<path stroke="none" fill="#000000" transform="matrix(0.0833333 0 0 0.0833333 -89.3458 -176.833)" d="M 3440.67,4858.94 L 3434.91,4856.5 L 3433.77,4850.58 L 3570.16,4749.41 L 3576.83,4758.41 L 3440.67,4858.94 Z " />
<path stroke="none" fill="#000000" transform="matrix(0.0833333 0 0 0.0833333 -89.3458 -176.833)" d="M 3433.77,4850.58 L 3434.91,4856.5 L 3426.59,4859.54 L 3277.47,4819.91 L 3280.38,4809.09 L 3433.77,4850.58 Z " />
<path stroke="none" fill="#000000" transform="matrix(0.0833333 0 0 0.0833333 -89.3458 -176.833)" d="M 3432.16,4869.25 L 3434.91,4856.5 L 3440.67,4858.94 L 3461.41,4994.21 L 3450.33,4995.89 L 3432.16,4869.25 Z " />
<path stroke="#000000" stroke-width="11" fill="none" transform="matrix(0.0833333 0 0 0.0833333 -89.3458 -176.833)" d="M 1193.36,2472.17 C 1204.07,2478.35 1217.47,2475.21 1223.27,2465.17 C 1229.07,2455.12 1225.08,2441.95 1214.38,2435.77 C 1203.67,2429.59 1199.68,2416.42 1205.48,2406.37 C 1211.28,2396.33 1224.68,2393.19 1235.39,2399.37 C 1246.1,2405.56 1259.5,2402.42 1265.3,2392.37 C 1271.1,2382.33 1267.11,2369.16 1256.4,2362.98 C 1245.7,2356.79 1241.71,2343.62 1247.51,2333.58 C 1253.31,2323.53 1266.71,2320.4 1277.42,2326.58 C 1288.13,2332.76 1301.52,2329.62 1307.32,2319.58 C 1313.12,2309.53 1309.14,2296.36 1298.43,2290.18 C 1287.72,2284 1283.74,2270.83 1289.54,2260.78 C 1295.34,2250.74 1308.74,2247.6 1319.45,2253.78 C 1330.15,2259.97 1343.55,2256.83 1349.35,2246.78 C 1355.15,2236.74 1351.17,2223.57 1340.46,2217.39 C 1329.75,2211.2 1325.77,2198.03 1331.57,2187.99 C 1337.37,2177.94 1350.77,2174.81 1361.47,2180.99 " />
<path stroke="#000000" stroke-width="11" fill="none" transform="matrix(0.0833333 0 0 0.0833333 -89.3458 -176.833)" d="M 1255.71,3679.34 C 1267.65,3676.14 1274.87,3664.32 1271.82,3652.95 C 1268.78,3641.58 1256.61,3634.95 1244.67,3638.15 C 1232.73,3641.35 1220.56,3634.72 1217.51,3623.36 C 1214.47,3611.99 1221.69,3600.17 1233.63,3596.97 C 1245.58,3593.77 1252.8,3581.94 1249.75,3570.57 C 1246.71,3559.21 1234.54,3552.58 1222.6,3555.78 C 1210.65,3558.98 1198.49,3552.35 1195.44,3540.98 C 1192.4,3529.61 1199.62,3517.79 1211.56,3514.59 C 1223.5,3511.39 1230.72,3499.57 1227.68,3488.2 C 1224.63,3476.83 1212.47,3470.2 1200.52,3473.4 C 1188.58,3476.6 1176.42,3469.97 1173.37,3458.61 C 1170.32,3447.24 1177.55,3435.41 1189.49,3432.21 C 1201.43,3429.01 1208.65,3417.19 1205.61,3405.82 C 1202.56,3394.45 1190.39,3387.83 1178.45,3391.03 C 1166.51,3394.23 1154.34,3387.6 1151.3,3376.23 C 1148.25,3364.86 1155.47,3353.04 1167.42,3349.84 C 1179.36,3346.64 1186.58,3334.81 1183.53,3323.45 C 1180.49,3312.08 1168.32,3305.45 1156.38,3308.65 C 1144.44,3311.85 1132.27,3305.22 1129.22,3293.85 C 1126.18,3282.49 1133.4,3270.66 1145.34,3267.46 " />
<path stroke="#000000" stroke-width="11" fill="none" transform="matrix(0.0833333 0 0 0.0833333 -89.3458 -176.833)" d="M 1579.51,4289.69 C 1570.76,4280.95 1557.02,4280.5 1548.83,4288.69 C 1540.64,4296.88 1541.09,4310.62 1549.84,4319.36 C 1558.58,4328.11 1559.03,4341.85 1550.84,4350.04 C 1542.65,4358.23 1528.91,4357.78 1520.16,4349.04 C 1511.42,4340.29 1497.68,4339.85 1489.49,4348.03 C 1481.3,4356.22 1481.75,4369.97 1490.49,4378.71 C 1499.23,4387.45 1499.68,4401.2 1491.49,4409.39 C 1483.3,4417.57 1469.56,4417.12 1460.82,4408.38 C 1452.08,4399.64 1438.33,4399.19 1430.14,4407.38 C 1421.95,4415.57 1422.4,4429.31 1431.15,4438.05 C 1439.89,4446.8 1440.34,4460.54 1432.15,4468.73 C 1423.96,4476.92 1410.22,4476.47 1401.47,4467.73 C 1392.73,4458.98 1378.99,4458.53 1370.8,4466.72 C 1362.61,4474.91 1363.06,4488.66 1371.8,4497.4 C 1380.54,4506.14 1380.99,4519.89 1372.8,4528.07 " />
<path stroke="#000000" stroke-width="11" fill="none" transform="matrix(0.0833333 0 0 0.0833333 -89.3458 -176.833)" d="M 1451.58,6430.14 C 1462.29,6423.96 1466.23,6410.72 1460.38,6400.59 C 1454.53,6390.46 1441.1,6387.25 1430.39,6393.44 C 1419.68,6399.62 1406.24,6396.41 1400.39,6386.28 C 1394.55,6376.15 1398.49,6362.91 1409.2,6356.73 C 1419.9,6350.55 1423.85,6337.31 1418,6327.18 C 1412.15,6317.05 1398.71,6313.84 1388.01,6320.03 C 1377.3,6326.21 1363.86,6323 1358.01,6312.87 C 1352.16,6302.74 1356.11,6289.5 1366.81,6283.32 C 1377.52,6277.14 1381.47,6263.9 1375.62,6253.77 C 1369.77,6243.64 1356.33,6240.44 1345.62,6246.62 C 1334.92,6252.8 1321.48,6249.6 1315.63,6239.47 C 1309.78,6229.34 1313.72,6216.1 1324.43,6209.91 C 1335.14,6203.73 1339.08,6190.49 1333.24,6180.36 C 1327.39,6170.23 1313.95,6167.03 1303.24,6173.21 C 1292.53,6179.39 1279.09,6176.19 1273.25,6166.06 C 1267.4,6155.93 1271.34,6142.69 1282.05,6136.5 C 1292.76,6130.32 1296.7,6117.08 1290.85,6106.95 C 1285,6096.82 1271.57,6093.62 1260.86,6099.8 " />
</svg>
