<?xml version="1.0" standalone="no" ?>
<!DOCTYPE svg PUBLIC "-//W3C//DTD SVG 1.1//EN" "http://www.w3.org/Graphics/SVG/1.1/DTD/svg11.dtd">
<svg width="428px" height="371px" viewBox="0 0 428 371" style="background-color: #ffffff00" xmlns="http://www.w3.org/2000/svg" xmlns:xlink="http://www.w3.org/1999/xlink" version="1.1" >
<path stroke="none" fill="#000000" transform="matrix(0.0833333 0 0 0.0833333 -210.4 -312.75)" d="M 7338.73,6977.85 L 7333.25,6968.08 L 7571.46,6834.52 L 7576.94,6844.28 L 7338.73,6977.85 Z " />
<path stroke="none" fill="#000000" transform="matrix(0.0833333 0 0 0.0833333 -210.4 -312.75)" d="M 7145.29,7014.79 L 7145,7009.2 L 7156.41,7004.64 L 7224.47,6999.48 L 7225.05,7010.67 L 7145.29,7014.79 Z " />
<text x="0" y="0" stroke="none" fill="#000000" transform="matrix(0.0833333 0 0 0.0833333 393.019 274.375)" font-style="normal" font-weight="normal" font-size="111px" font-family="Arial" >
O</text>
<path stroke="none" fill="#000000" transform="matrix(0.0833333 0 0 0.0833333 -210.4 -312.75)" d="M 2871.17,6966.49 L 2865.71,6976.27 L 2625.27,6842.29 L 2630.73,6832.51 L 2871.17,6966.49 Z " />
<path stroke="none" fill="#000000" transform="matrix(0.0833333 0 0 0.0833333 -210.4 -312.75)" d="M 3061.22,7004.3 L 3072.4,7009.2 L 3072.06,7014.79 L 2979.52,7009.21 L 2980.19,6998.03 L 3061.22,7004.3 Z " />
<text x="0" y="0" stroke="none" fill="#000000" transform="matrix(0.0833333 0 0 0.0833333 29.3188 274.208)" font-style="normal" font-weight="normal" font-size="111px" font-family="Arial" >
O</text>
<path stroke="none" fill="#000000" transform="matrix(0.0833333 0 0 0.0833333 -210.4 -312.75)" d="M 6863.29,7018.91 L 6870.17,7027.9 L 6727.51,7174.33 L 6716,7179 L 6712.63,7174.5 L 6863.29,7018.91 Z " />
<path stroke="none" fill="#000000" transform="matrix(0.0833333 0 0 0.0833333 -210.4 -312.75)" d="M 7155.09,6855.17 L 7158.34,6866.2 L 6870.17,7027.9 L 6863.29,7018.91 L 7155.09,6855.17 Z " />
<path stroke="none" fill="#000000" transform="matrix(0.0833333 0 0 0.0833333 -210.4 -312.75)" d="M 7156.3,6864.37 L 7161.79,6874.14 L 6874.82,7035.15 L 6869.34,7025.38 L 7156.3,6864.37 Z " />
<path stroke="none" fill="#000000" transform="matrix(0.0833333 0 0 0.0833333 -210.4 -312.75)" d="M 7312.43,6845.76 L 7283.79,6858.84 L 7158.34,6866.2 L 7155.09,6855.17 L 7312.43,6845.76 Z " />
<path stroke="none" fill="#000000" transform="matrix(0.0833333 0 0 0.0833333 -210.4 -312.75)" d="M 7156.41,7004.64 L 7145,7009.2 L 7141.6,7004.72 L 7283.79,6858.84 L 7312.43,6845.76 L 7156.41,7004.64 L 7156.41,7004.64 Z " />
<path stroke="none" fill="#000000" transform="matrix(0.0833333 0 0 0.0833333 -210.4 -312.75)" d="M 7140.9,7002.56 L 7132.86,6994.76 L 7259.03,6864.58 L 7267.07,6872.37 L 7140.9,7002.56 L 7140.9,7002.56 Z " />
<path stroke="none" fill="#000000" transform="matrix(0.0833333 0 0 0.0833333 -210.4 -312.75)" d="M 6915.36,7144.47 L 6909.88,7134.7 L 7141.6,7004.72 L 7145,7009.2 L 7146.99,7014.46 L 6915.36,7144.47 Z " />
<path stroke="none" fill="#000000" transform="matrix(0.0833333 0 0 0.0833333 -210.4 -312.75)" d="M 6716.29,7184.59 L 6716,7179 L 6727.51,7174.33 L 6801.54,7168.97 L 6802.12,7180.15 L 6716.29,7184.59 Z " />
<path stroke="none" fill="#000000" transform="matrix(0.0833333 0 0 0.0833333 -210.4 -312.75)" d="M 6765.33,7162.32 L 6764.75,7151.13 L 6800.52,7149.28 L 6801.1,7160.47 L 6765.33,7162.32 Z " />
<text x="0" y="0" stroke="none" fill="#000000" transform="matrix(0.0833333 0 0 0.0833333 357.526 288.525)" font-style="normal" font-weight="normal" font-size="111px" font-family="Arial" >
N</text>
<path stroke="none" fill="#000000" transform="matrix(0.0833333 0 0 0.0833333 -210.4 -312.75)" d="M 3417.24,7180.53 L 3417.9,7169.35 L 3505.74,7175.83 L 3517,7180.8 L 3516.67,7186.39 L 3417.24,7180.53 Z " />
<path stroke="none" fill="#000000" transform="matrix(0.0833333 0 0 0.0833333 -210.4 -312.75)" d="M 3070.49,7014.5 L 3072.4,7009.2 L 3075.86,7004.76 L 3309.52,7134.83 L 3304.07,7144.62 L 3070.49,7014.5 Z " />
<path stroke="none" fill="#000000" transform="matrix(0.0833333 0 0 0.0833333 -210.4 -312.75)" d="M 3075.5,7006.76 L 3080.95,6996.98 L 3314.01,7126.76 L 3308.56,7136.55 L 3075.5,7006.76 Z " />
<path stroke="none" fill="#000000" transform="matrix(0.0833333 0 0 0.0833333 -210.4 -312.75)" d="M 2917.48,6847.9 L 2944.8,6861.01 L 3075.86,7004.76 L 3072.4,7009.2 L 3061.22,7004.3 L 2917.48,6847.9 Z " />
<path stroke="none" fill="#000000" transform="matrix(0.0833333 0 0 0.0833333 -210.4 -312.75)" d="M 3087.34,6858.79 L 3084.07,6869.81 L 2944.8,6861.01 L 2917.48,6847.9 L 3087.34,6858.79 Z " />
<path stroke="none" fill="#000000" transform="matrix(0.0833333 0 0 0.0833333 -210.4 -312.75)" d="M 3080.34,6878.69 L 3079.69,6889.87 L 2980.94,6884.18 L 2981.59,6873 L 3080.34,6878.69 Z " />
<path stroke="none" fill="#000000" transform="matrix(0.0833333 0 0 0.0833333 -210.4 -312.75)" d="M 3381.19,7022.75 L 3374.16,7031.66 L 3084.07,6869.81 L 3087.34,6858.79 L 3381.19,7022.75 Z " />
<path stroke="none" fill="#000000" transform="matrix(0.0833333 0 0 0.0833333 -210.4 -312.75)" d="M 3520.44,7176.34 L 3517,7180.8 L 3505.74,7175.83 L 3374.16,7031.66 L 3381.19,7022.75 L 3520.44,7176.34 Z " />
<path stroke="none" fill="#000000" transform="matrix(0.0833333 0 0 0.0833333 -210.4 -312.75)" d="M 3485.8,7160.12 L 3477.51,7167.65 L 3364.12,7042.71 L 3372.41,7035.18 L 3485.8,7160.12 Z " />
<text x="0" y="0" stroke="none" fill="#000000" transform="matrix(0.0833333 0 0 0.0833333 66.6262 288.525)" font-style="normal" font-weight="normal" font-size="111px" font-family="Arial" >
N</text>
<path stroke="none" fill="#000000" transform="matrix(0.0833333 0 0 0.0833333 -210.4 -312.75)" d="M 3812.44,7339.18 L 3805.46,7348.12 L 3515.11,7186.12 L 3517,7180.8 L 3520.44,7176.34 L 3812.44,7339.18 Z " />
<path stroke="none" fill="#000000" transform="matrix(0.0833333 0 0 0.0833333 -210.4 -312.75)" d="M 6429.48,7346.16 L 6422.65,7337.13 L 6712.63,7174.5 L 6716,7179 L 6717.96,7184.29 L 6429.48,7346.16 Z " />
<path stroke="none" fill="#000000" transform="matrix(0.0833333 0 0 0.0833333 -210.4 -312.75)" d="M 6326.81,7452.2 L 6318.77,7444.4 L 6422.18,7337.7 L 6430.22,7345.5 L 6326.81,7452.2 Z " />
<path stroke="none" fill="#000000" transform="matrix(0.0833333 0 0 0.0833333 -210.4 -312.75)" d="M 6297.86,7424.14 L 6289.81,7416.34 L 6393.22,7309.64 L 6401.27,7317.44 L 6297.86,7424.14 Z " />
<path stroke="none" fill="#000000" transform="matrix(0.0833333 0 0 0.0833333 -210.4 -312.75)" d="M 3906.5,7442.92 L 3898.21,7450.45 L 3804.65,7347.36 L 3812.95,7339.84 L 3906.5,7442.92 Z " />
<path stroke="none" fill="#000000" transform="matrix(0.0833333 0 0 0.0833333 -210.4 -312.75)" d="M 3876.64,7470.02 L 3868.35,7477.55 L 3779.23,7379.36 L 3787.53,7371.83 L 3876.64,7470.02 Z " />
<path stroke="none" fill="#000000" transform="matrix(0.0833333 0 0 0.0833333 -210.4 -312.75)" d="M 5989,7664.28 L 5985.6,7659.8 L 5983.89,7654.4 L 6210.99,7526.92 L 6216.47,7536.68 L 5989,7664.28 Z " />
<text x="0" y="0" stroke="none" fill="#000000" transform="matrix(0.0833333 0 0 0.0833333 309.21 315.642)" font-style="normal" font-weight="normal" font-size="111px" font-family="Arial" >
N</text>
<path stroke="none" fill="#000000" transform="matrix(0.0833333 0 0 0.0833333 -210.4 -312.75)" d="M 4241.7,7654.39 L 4240,7659.8 L 4236.53,7664.24 L 4007.06,7536.41 L 4012.51,7526.63 L 4241.7,7654.39 Z " />
<text x="0" y="0" stroke="none" fill="#000000" transform="matrix(0.0833333 0 0 0.0833333 115.276 315.642)" font-style="normal" font-weight="normal" font-size="111px" font-family="Arial" >
N</text>
<path stroke="none" fill="#000000" transform="matrix(0.0833333 0 0 0.0833333 -210.4 -312.75)" d="M 5552.89,7825.31 L 5559.78,7834.3 L 5417.61,7980.16 L 5405.6,7985.4 L 5402.23,7980.9 L 5552.89,7825.31 Z " />
<path stroke="none" fill="#000000" transform="matrix(0.0833333 0 0 0.0833333 -210.4 -312.75)" d="M 5842.8,7662.52 L 5846.2,7667 L 5847.94,7672.4 L 5559.78,7834.3 L 5552.89,7825.31 L 5842.8,7662.52 Z " />
<path stroke="none" fill="#000000" transform="matrix(0.0833333 0 0 0.0833333 -210.4 -312.75)" d="M 5846.76,7673.52 L 5852.24,7683.28 L 5566.27,7843.93 L 5560.78,7834.17 L 5846.76,7673.52 Z " />
<path stroke="none" fill="#000000" transform="matrix(0.0833333 0 0 0.0833333 -210.4 -312.75)" d="M 5983.89,7654.4 L 5985.6,7659.8 L 5973.59,7665.04 L 5847.94,7672.4 L 5846.2,7667 L 5858.75,7661.77 L 5983.89,7654.4 Z " />
<path stroke="none" fill="#000000" transform="matrix(0.0833333 0 0 0.0833333 -210.4 -312.75)" d="M 5850.42,7806.02 L 5834.8,7815.4 L 5831.43,7810.9 L 5973.59,7665.04 L 5985.6,7659.8 L 5989,7664.28 L 5850.42,7806.02 L 5850.42,7806.02 Z " />
<path stroke="none" fill="#000000" transform="matrix(0.0833333 0 0 0.0833333 -210.4 -312.75)" d="M 5828.67,7806.12 L 5820.63,7798.32 L 5940.64,7674.5 L 5948.68,7682.29 L 5828.67,7806.12 L 5828.67,7806.12 Z " />
<path stroke="none" fill="#000000" transform="matrix(0.0833333 0 0 0.0833333 -210.4 -312.75)" d="M 5546.31,7983.83 L 5543.06,7972.8 L 5831.43,7810.9 L 5834.8,7815.4 L 5836.92,7820.61 L 5546.31,7983.83 Z " />
<path stroke="none" fill="#000000" transform="matrix(0.0833333 0 0 0.0833333 -210.4 -312.75)" d="M 5407.34,7990.8 L 5405.6,7985.4 L 5417.61,7980.16 L 5543.06,7972.8 L 5546.31,7983.83 L 5407.34,7990.8 Z " />
<path stroke="none" fill="#000000" transform="matrix(0.0833333 0 0 0.0833333 -210.4 -312.75)" d="M 5456.75,7967.89 L 5456.17,7956.7 L 5538.68,7952.44 L 5539.25,7963.62 L 5456.75,7967.89 Z " />
<path stroke="none" fill="#000000" transform="matrix(0.0833333 0 0 0.0833333 -210.4 -312.75)" d="M 4669.66,7981.81 L 4672.93,7970.8 L 4812.38,7979.96 L 4824,7985.4 L 4822.27,7990.8 L 4669.66,7981.81 Z " />
<path stroke="none" fill="#000000" transform="matrix(0.0833333 0 0 0.0833333 -210.4 -312.75)" d="M 4377.96,7819.15 L 4379.4,7813.6 L 4382.84,7809.14 L 4672.93,7970.8 L 4669.66,7981.81 L 4377.96,7819.15 Z " />
<path stroke="none" fill="#000000" transform="matrix(0.0833333 0 0 0.0833333 -210.4 -312.75)" d="M 4386.04,7806.7 L 4391.49,7796.92 L 4678.2,7956.68 L 4672.75,7966.46 L 4386.04,7806.7 Z " />
<path stroke="none" fill="#000000" transform="matrix(0.0833333 0 0 0.0833333 -210.4 -312.75)" d="M 4236.53,7664.24 L 4240,7659.8 L 4251.62,7665.24 L 4382.84,7809.14 L 4379.4,7813.6 L 4367.95,7808.38 L 4236.53,7664.24 Z " />
<path stroke="none" fill="#000000" transform="matrix(0.0833333 0 0 0.0833333 -210.4 -312.75)" d="M 4383.34,7663.53 L 4392.6,7669 L 4390.87,7674.4 L 4251.62,7665.24 L 4240,7659.8 L 4241.7,7654.39 L 4383.34,7663.53 Z " />
<path stroke="none" fill="#000000" transform="matrix(0.0833333 0 0 0.0833333 -210.4 -312.75)" d="M 4385.63,7688.43 L 4384.96,7699.61 L 4300.35,7694.51 L 4301.02,7683.33 L 4385.63,7688.43 Z " />
<path stroke="none" fill="#000000" transform="matrix(0.0833333 0 0 0.0833333 -210.4 -312.75)" d="M 4688.19,7827.15 L 4681.16,7836.06 L 4390.87,7674.4 L 4392.6,7669 L 4396.64,7664.9 L 4688.19,7827.15 Z " />
<path stroke="none" fill="#000000" transform="matrix(0.0833333 0 0 0.0833333 -210.4 -312.75)" d="M 4827.44,7980.94 L 4824,7985.4 L 4812.38,7979.96 L 4681.16,7836.06 L 4688.19,7827.15 L 4827.44,7980.94 Z " />
<path stroke="none" fill="#000000" transform="matrix(0.0833333 0 0 0.0833333 -210.4 -312.75)" d="M 4792.73,7964.65 L 4784.44,7972.17 L 4671.1,7847.13 L 4679.4,7839.61 L 4792.73,7964.65 Z " />
<path stroke="none" fill="#000000" transform="matrix(0.0833333 0 0 0.0833333 -210.4 -312.75)" d="M 5115.81,8154.54 L 5115.79,8141.7 L 5402.23,7980.9 L 5405.6,7985.4 L 5407.34,7990.8 L 5115.81,8154.54 Z " />
<path stroke="none" fill="#000000" transform="matrix(0.0833333 0 0 0.0833333 -210.4 -312.75)" d="M 4822.27,7990.8 L 4824,7985.4 L 4827.44,7980.94 L 5115.79,8141.7 L 5115.81,8154.54 L 4822.27,7990.8 Z " />
<path stroke="none" fill="#808080" transform="matrix(0.0833333 0 0 0.0833333 -210.4 -312.75)" d="M 3418.4,7311.2 A 201.6,201.6 0 1 0 3821.6,7311.2A 201.6,201.6 0 1 0 3418.4,7311.2Z " />
<path stroke="none" fill="#878787" transform="matrix(0.0833333 0 0 0.0833333 -210.4 -312.75)" d="M 3420.75,7308.05 A 196.104,196.104 0 1 0 3812.95,7308.05A 196.104,196.104 0 1 0 3420.75,7308.05Z " />
<path stroke="none" fill="#8f8f8f" transform="matrix(0.0833333 0 0 0.0833333 -210.4 -312.75)" d="M 3423.09,7304.9 A 190.608,190.608 0 1 0 3804.31,7304.9A 190.608,190.608 0 1 0 3423.09,7304.9Z " />
<path stroke="none" fill="#969696" transform="matrix(0.0833333 0 0 0.0833333 -210.4 -312.75)" d="M 3425.44,7301.75 A 185.111,185.111 0 1 0 3795.66,7301.75A 185.111,185.111 0 1 0 3425.44,7301.75Z " />
<path stroke="none" fill="#9d9d9d" transform="matrix(0.0833333 0 0 0.0833333 -210.4 -312.75)" d="M 3427.78,7298.6 A 179.615,179.615 0 1 0 3787.02,7298.6A 179.615,179.615 0 1 0 3427.78,7298.6Z " />
<path stroke="none" fill="#a4a4a4" transform="matrix(0.0833333 0 0 0.0833333 -210.4 -312.75)" d="M 3430.13,7295.45 A 174.119,174.119 0 1 0 3778.37,7295.45A 174.119,174.119 0 1 0 3430.13,7295.45Z " />
<path stroke="none" fill="#ababab" transform="matrix(0.0833333 0 0 0.0833333 -210.4 -312.75)" d="M 3432.48,7292.3 A 168.623,168.623 0 1 0 3769.72,7292.3A 168.623,168.623 0 1 0 3432.48,7292.3Z " />
<path stroke="none" fill="#b1b1b1" transform="matrix(0.0833333 0 0 0.0833333 -210.4 -312.75)" d="M 3434.82,7289.15 A 163.127,163.127 0 1 0 3761.08,7289.15A 163.127,163.127 0 1 0 3434.82,7289.15Z " />
<path stroke="none" fill="#b7b7b7" transform="matrix(0.0833333 0 0 0.0833333 -210.4 -312.75)" d="M 3437.17,7286 A 157.631,157.631 0 1 0 3752.43,7286A 157.631,157.631 0 1 0 3437.17,7286Z " />
<path stroke="none" fill="#bdbdbd" transform="matrix(0.0833333 0 0 0.0833333 -210.4 -312.75)" d="M 3439.52,7282.85 A 152.135,152.135 0 1 0 3743.78,7282.85A 152.135,152.135 0 1 0 3439.52,7282.85Z " />
<path stroke="none" fill="#c2c2c2" transform="matrix(0.0833333 0 0 0.0833333 -210.4 -312.75)" d="M 3441.86,7279.7 A 146.639,146.639 0 1 0 3735.14,7279.7A 146.639,146.639 0 1 0 3441.86,7279.7Z " />
<path stroke="none" fill="#c8c8c8" transform="matrix(0.0833333 0 0 0.0833333 -210.4 -312.75)" d="M 3444.21,7276.55 A 141.143,141.143 0 1 0 3726.49,7276.55A 141.143,141.143 0 1 0 3444.21,7276.55Z " />
<path stroke="none" fill="#cdcdcd" transform="matrix(0.0833333 0 0 0.0833333 -210.4 -312.75)" d="M 3446.55,7273.4 A 135.647,135.647 0 1 0 3717.85,7273.4A 135.647,135.647 0 1 0 3446.55,7273.4Z " />
<path stroke="none" fill="#d2d2d2" transform="matrix(0.0833333 0 0 0.0833333 -210.4 -312.75)" d="M 3448.9,7270.25 A 130.151,130.151 0 1 0 3709.2,7270.25A 130.151,130.151 0 1 0 3448.9,7270.25Z " />
<path stroke="none" fill="#d6d6d6" transform="matrix(0.0833333 0 0 0.0833333 -210.4 -312.75)" d="M 3451.25,7267.1 A 124.654,124.654 0 1 0 3700.55,7267.1A 124.654,124.654 0 1 0 3451.25,7267.1Z " />
<path stroke="none" fill="#dbdbdb" transform="matrix(0.0833333 0 0 0.0833333 -210.4 -312.75)" d="M 3453.59,7263.95 A 119.158,119.158 0 1 0 3691.91,7263.95A 119.158,119.158 0 1 0 3453.59,7263.95Z " />
<path stroke="none" fill="#dfdfdf" transform="matrix(0.0833333 0 0 0.0833333 -210.4 -312.75)" d="M 3455.94,7260.8 A 113.662,113.662 0 1 0 3683.26,7260.8A 113.662,113.662 0 1 0 3455.94,7260.8Z " />
<path stroke="none" fill="#e3e3e3" transform="matrix(0.0833333 0 0 0.0833333 -210.4 -312.75)" d="M 3458.28,7257.65 A 108.166,108.166 0 1 0 3674.62,7257.65A 108.166,108.166 0 1 0 3458.28,7257.65Z " />
<path stroke="none" fill="#e6e6e6" transform="matrix(0.0833333 0 0 0.0833333 -210.4 -312.75)" d="M 3460.63,7254.5 A 102.67,102.67 0 1 0 3665.97,7254.5A 102.67,102.67 0 1 0 3460.63,7254.5Z " />
<path stroke="none" fill="#eaeaea" transform="matrix(0.0833333 0 0 0.0833333 -210.4 -312.75)" d="M 3462.98,7251.35 A 97.174,97.174 0 1 0 3657.32,7251.35A 97.174,97.174 0 1 0 3462.98,7251.35Z " />
<path stroke="none" fill="#ededed" transform="matrix(0.0833333 0 0 0.0833333 -210.4 -312.75)" d="M 3465.32,7248.2 A 91.6779,91.6779 0 1 0 3648.68,7248.2A 91.6779,91.6779 0 1 0 3465.32,7248.2Z " />
<path stroke="none" fill="#efefef" transform="matrix(0.0833333 0 0 0.0833333 -210.4 -312.75)" d="M 3467.67,7245.05 A 86.1818,86.1818 0 1 0 3640.03,7245.05A 86.1818,86.1818 0 1 0 3467.67,7245.05Z " />
<path stroke="none" fill="#f2f2f2" transform="matrix(0.0833333 0 0 0.0833333 -210.4 -312.75)" d="M 3470.01,7241.9 A 80.6857,80.6857 0 1 0 3631.39,7241.9A 80.6857,80.6857 0 1 0 3470.01,7241.9Z " />
<path stroke="none" fill="#f4f4f4" transform="matrix(0.0833333 0 0 0.0833333 -210.4 -312.75)" d="M 3472.36,7238.75 A 75.1896,75.1896 0 1 0 3622.74,7238.75A 75.1896,75.1896 0 1 0 3472.36,7238.75Z " />
<path stroke="none" fill="#f7f7f7" transform="matrix(0.0833333 0 0 0.0833333 -210.4 -312.75)" d="M 3474.71,7235.6 A 69.6935,69.6935 0 1 0 3614.09,7235.6A 69.6935,69.6935 0 1 0 3474.71,7235.6Z " />
<path stroke="none" fill="#f8f8f8" transform="matrix(0.0833333 0 0 0.0833333 -210.4 -312.75)" d="M 3477.05,7232.45 A 64.1974,64.1974 0 1 0 3605.45,7232.45A 64.1974,64.1974 0 1 0 3477.05,7232.45Z " />
<path stroke="none" fill="#fafafa" transform="matrix(0.0833333 0 0 0.0833333 -210.4 -312.75)" d="M 3479.4,7229.3 A 58.7013,58.7013 0 1 0 3596.8,7229.3A 58.7013,58.7013 0 1 0 3479.4,7229.3Z " />
<path stroke="none" fill="#fbfbfb" transform="matrix(0.0833333 0 0 0.0833333 -210.4 -312.75)" d="M 3481.74,7226.15 A 53.2052,53.2052 0 1 0 3588.16,7226.15A 53.2052,53.2052 0 1 0 3481.74,7226.15Z " />
<path stroke="none" fill="#fdfdfd" transform="matrix(0.0833333 0 0 0.0833333 -210.4 -312.75)" d="M 3484.09,7223 A 47.7091,47.7091 0 1 0 3579.51,7223A 47.7091,47.7091 0 1 0 3484.09,7223Z " />
<path stroke="none" fill="#fdfdfd" transform="matrix(0.0833333 0 0 0.0833333 -210.4 -312.75)" d="M 3486.44,7219.85 A 42.213,42.213 0 1 0 3570.86,7219.85A 42.213,42.213 0 1 0 3486.44,7219.85Z " />
<path stroke="none" fill="#fefefe" transform="matrix(0.0833333 0 0 0.0833333 -210.4 -312.75)" d="M 3488.78,7216.7 A 36.7169,36.7169 0 1 0 3562.22,7216.7A 36.7169,36.7169 0 1 0 3488.78,7216.7Z " />
<path stroke="none" fill="#fefefe" transform="matrix(0.0833333 0 0 0.0833333 -210.4 -312.75)" d="M 3491.13,7213.55 A 31.2208,31.2208 0 1 0 3553.57,7213.55A 31.2208,31.2208 0 1 0 3491.13,7213.55Z " />
<path stroke="#808080" stroke-width="11" fill="none" transform="matrix(0.0833333 0 0 0.0833333 -210.4 -312.75)" d="M 3418.4,7311.2 A 201.6,201.6 0 1 0 3821.6,7311.2A 201.6,201.6 0 1 0 3418.4,7311.2Z " />
<text x="0" y="0" stroke="none" fill="#000000" transform="matrix(0.0833333 0 0 0.0833333 82.2142 300.158)" font-style="normal" font-weight="normal" font-size="133px" font-family="Times New Roman" >
Ag</text>
<text x="0" y="0" stroke="none" fill="#000000" transform="matrix(0.0833333 0 0 0.0833333 95.7599 295.95)" font-style="normal" font-weight="normal" font-size="99.75px" font-family="Times New Roman" >
+</text>
<path stroke="none" fill="#808080" transform="matrix(0.0833333 0 0 0.0833333 -210.4 -312.75)" d="M 6337.4,7297.6 A 201.6,201.6 0 1 0 6740.6,7297.6A 201.6,201.6 0 1 0 6337.4,7297.6Z " />
<path stroke="none" fill="#878787" transform="matrix(0.0833333 0 0 0.0833333 -210.4 -312.75)" d="M 6339.75,7294.45 A 196.104,196.104 0 1 0 6731.95,7294.45A 196.104,196.104 0 1 0 6339.75,7294.45Z " />
<path stroke="none" fill="#8f8f8f" transform="matrix(0.0833333 0 0 0.0833333 -210.4 -312.75)" d="M 6342.09,7291.3 A 190.608,190.608 0 1 0 6723.31,7291.3A 190.608,190.608 0 1 0 6342.09,7291.3Z " />
<path stroke="none" fill="#969696" transform="matrix(0.0833333 0 0 0.0833333 -210.4 -312.75)" d="M 6344.44,7288.15 A 185.112,185.112 0 1 0 6714.66,7288.15A 185.112,185.112 0 1 0 6344.44,7288.15Z " />
<path stroke="none" fill="#9d9d9d" transform="matrix(0.0833333 0 0 0.0833333 -210.4 -312.75)" d="M 6346.78,7285 A 179.616,179.616 0 1 0 6706.02,7285A 179.616,179.616 0 1 0 6346.78,7285Z " />
<path stroke="none" fill="#a4a4a4" transform="matrix(0.0833333 0 0 0.0833333 -210.4 -312.75)" d="M 6349.13,7281.85 A 174.12,174.12 0 1 0 6697.37,7281.85A 174.12,174.12 0 1 0 6349.13,7281.85Z " />
<path stroke="none" fill="#ababab" transform="matrix(0.0833333 0 0 0.0833333 -210.4 -312.75)" d="M 6351.48,7278.7 A 168.623,168.623 0 1 0 6688.72,7278.7A 168.623,168.623 0 1 0 6351.48,7278.7Z " />
<path stroke="none" fill="#b1b1b1" transform="matrix(0.0833333 0 0 0.0833333 -210.4 -312.75)" d="M 6353.82,7275.55 A 163.127,163.127 0 1 0 6680.08,7275.55A 163.127,163.127 0 1 0 6353.82,7275.55Z " />
<path stroke="none" fill="#b7b7b7" transform="matrix(0.0833333 0 0 0.0833333 -210.4 -312.75)" d="M 6356.17,7272.4 A 157.631,157.631 0 1 0 6671.43,7272.4A 157.631,157.631 0 1 0 6356.17,7272.4Z " />
<path stroke="none" fill="#bdbdbd" transform="matrix(0.0833333 0 0 0.0833333 -210.4 -312.75)" d="M 6358.51,7269.25 A 152.135,152.135 0 1 0 6662.79,7269.25A 152.135,152.135 0 1 0 6358.51,7269.25Z " />
<path stroke="none" fill="#c2c2c2" transform="matrix(0.0833333 0 0 0.0833333 -210.4 -312.75)" d="M 6360.86,7266.1 A 146.639,146.639 0 1 0 6654.14,7266.1A 146.639,146.639 0 1 0 6360.86,7266.1Z " />
<path stroke="none" fill="#c8c8c8" transform="matrix(0.0833333 0 0 0.0833333 -210.4 -312.75)" d="M 6363.21,7262.95 A 141.143,141.143 0 1 0 6645.49,7262.95A 141.143,141.143 0 1 0 6363.21,7262.95Z " />
<path stroke="none" fill="#cdcdcd" transform="matrix(0.0833333 0 0 0.0833333 -210.4 -312.75)" d="M 6365.55,7259.8 A 135.647,135.647 0 1 0 6636.85,7259.8A 135.647,135.647 0 1 0 6365.55,7259.8Z " />
<path stroke="none" fill="#d2d2d2" transform="matrix(0.0833333 0 0 0.0833333 -210.4 -312.75)" d="M 6367.9,7256.65 A 130.151,130.151 0 1 0 6628.2,7256.65A 130.151,130.151 0 1 0 6367.9,7256.65Z " />
<path stroke="none" fill="#d6d6d6" transform="matrix(0.0833333 0 0 0.0833333 -210.4 -312.75)" d="M 6370.25,7253.5 A 124.655,124.655 0 1 0 6619.55,7253.5A 124.655,124.655 0 1 0 6370.25,7253.5Z " />
<path stroke="none" fill="#dbdbdb" transform="matrix(0.0833333 0 0 0.0833333 -210.4 -312.75)" d="M 6372.59,7250.35 A 119.159,119.159 0 1 0 6610.91,7250.35A 119.159,119.159 0 1 0 6372.59,7250.35Z " />
<path stroke="none" fill="#dfdfdf" transform="matrix(0.0833333 0 0 0.0833333 -210.4 -312.75)" d="M 6374.94,7247.2 A 113.663,113.663 0 1 0 6602.26,7247.2A 113.663,113.663 0 1 0 6374.94,7247.2Z " />
<path stroke="none" fill="#e3e3e3" transform="matrix(0.0833333 0 0 0.0833333 -210.4 -312.75)" d="M 6377.28,7244.05 A 108.166,108.166 0 1 0 6593.62,7244.05A 108.166,108.166 0 1 0 6377.28,7244.05Z " />
<path stroke="none" fill="#e6e6e6" transform="matrix(0.0833333 0 0 0.0833333 -210.4 -312.75)" d="M 6379.63,7240.9 A 102.67,102.67 0 1 0 6584.97,7240.9A 102.67,102.67 0 1 0 6379.63,7240.9Z " />
<path stroke="none" fill="#eaeaea" transform="matrix(0.0833333 0 0 0.0833333 -210.4 -312.75)" d="M 6381.98,7237.75 A 97.1743,97.1743 0 1 0 6576.32,7237.75A 97.1743,97.1743 0 1 0 6381.98,7237.75Z " />
<path stroke="none" fill="#ededed" transform="matrix(0.0833333 0 0 0.0833333 -210.4 -312.75)" d="M 6384.32,7234.6 A 91.6782,91.6782 0 1 0 6567.68,7234.6A 91.6782,91.6782 0 1 0 6384.32,7234.6Z " />
<path stroke="none" fill="#efefef" transform="matrix(0.0833333 0 0 0.0833333 -210.4 -312.75)" d="M 6386.67,7231.45 A 86.1821,86.1821 0 1 0 6559.03,7231.45A 86.1821,86.1821 0 1 0 6386.67,7231.45Z " />
<path stroke="none" fill="#f2f2f2" transform="matrix(0.0833333 0 0 0.0833333 -210.4 -312.75)" d="M 6389.01,7228.3 A 80.686,80.686 0 1 0 6550.39,7228.3A 80.686,80.686 0 1 0 6389.01,7228.3Z " />
<path stroke="none" fill="#f4f4f4" transform="matrix(0.0833333 0 0 0.0833333 -210.4 -312.75)" d="M 6391.36,7225.15 A 75.1899,75.1899 0 1 0 6541.74,7225.15A 75.1899,75.1899 0 1 0 6391.36,7225.15Z " />
<path stroke="none" fill="#f7f7f7" transform="matrix(0.0833333 0 0 0.0833333 -210.4 -312.75)" d="M 6393.71,7222 A 69.6938,69.6938 0 1 0 6533.09,7222A 69.6938,69.6938 0 1 0 6393.71,7222Z " />
<path stroke="none" fill="#f8f8f8" transform="matrix(0.0833333 0 0 0.0833333 -210.4 -312.75)" d="M 6396.05,7218.85 A 64.1977,64.1977 0 1 0 6524.45,7218.85A 64.1977,64.1977 0 1 0 6396.05,7218.85Z " />
<path stroke="none" fill="#fafafa" transform="matrix(0.0833333 0 0 0.0833333 -210.4 -312.75)" d="M 6398.4,7215.7 A 58.7016,58.7016 0 1 0 6515.8,7215.7A 58.7016,58.7016 0 1 0 6398.4,7215.7Z " />
<path stroke="none" fill="#fbfbfb" transform="matrix(0.0833333 0 0 0.0833333 -210.4 -312.75)" d="M 6400.74,7212.55 A 53.2055,53.2055 0 1 0 6507.16,7212.55A 53.2055,53.2055 0 1 0 6400.74,7212.55Z " />
<path stroke="none" fill="#fdfdfd" transform="matrix(0.0833333 0 0 0.0833333 -210.4 -312.75)" d="M 6403.09,7209.4 A 47.7094,47.7094 0 1 0 6498.51,7209.4A 47.7094,47.7094 0 1 0 6403.09,7209.4Z " />
<path stroke="none" fill="#fdfdfd" transform="matrix(0.0833333 0 0 0.0833333 -210.4 -312.75)" d="M 6405.44,7206.25 A 42.2133,42.2133 0 1 0 6489.86,7206.25A 42.2133,42.2133 0 1 0 6405.44,7206.25Z " />
<path stroke="none" fill="#fefefe" transform="matrix(0.0833333 0 0 0.0833333 -210.4 -312.75)" d="M 6407.78,7203.1 A 36.7172,36.7172 0 1 0 6481.22,7203.1A 36.7172,36.7172 0 1 0 6407.78,7203.1Z " />
<path stroke="none" fill="#fefefe" transform="matrix(0.0833333 0 0 0.0833333 -210.4 -312.75)" d="M 6410.13,7199.95 A 31.2211,31.2211 0 1 0 6472.57,7199.95A 31.2211,31.2211 0 1 0 6410.13,7199.95Z " />
<path stroke="#808080" stroke-width="11" fill="none" transform="matrix(0.0833333 0 0 0.0833333 -210.4 -312.75)" d="M 6337.4,7297.6 A 201.6,201.6 0 1 0 6740.6,7297.6A 201.6,201.6 0 1 0 6337.4,7297.6Z " />
<text x="0" y="0" stroke="none" fill="#000000" transform="matrix(0.0833333 0 0 0.0833333 326.031 297.925)" font-style="normal" font-weight="normal" font-size="133px" font-family="Times New Roman" >
Ag</text>
<text x="0" y="0" stroke="none" fill="#000000" transform="matrix(0.0833333 0 0 0.0833333 339.577 293.717)" font-style="normal" font-weight="normal" font-size="99.75px" font-family="Times New Roman" >
+</text>
<path stroke="none" fill="#000000" transform="matrix(0.0833333 0 0 0.0833333 -210.4 -312.75)" d="M 4752.96,6638.4 L 4749.4,6634 L 4748.24,6628.32 L 5039.79,6469.51 L 5039.8,6482.26 L 4752.96,6638.4 Z " />
<path stroke="none" fill="#000000" transform="matrix(0.0833333 0 0 0.0833333 -210.4 -312.75)" d="M 5039.8,6482.26 L 5039.79,6469.51 L 5332.61,6628.35 L 5331.4,6634 L 5327.83,6638.4 L 5039.8,6482.26 Z " />
<path stroke="none" fill="#000000" transform="matrix(0.0833333 0 0 0.0833333 -210.4 -312.75)" d="M 4739.8,6637.52 L 4749.4,6634 L 4752.96,6638.4 L 4605.49,6817.61 L 4598.24,6808.8 L 4739.8,6637.52 Z " />
<path stroke="none" fill="#000000" transform="matrix(0.0833333 0 0 0.0833333 -210.4 -312.75)" d="M 4712.64,6642.89 L 4721.28,6650.01 L 4595.02,6803.31 L 4586.37,6796.19 L 4712.64,6642.89 Z " />
<path stroke="none" fill="#000000" transform="matrix(0.0833333 0 0 0.0833333 -210.4 -312.75)" d="M 4598.24,6808.8 L 4605.49,6817.61 L 4315.42,6975.33 L 4311.4,6971.2 L 4310.24,6965.52 L 4598.24,6808.8 Z " />
<path stroke="none" fill="#000000" transform="matrix(0.0833333 0 0 0.0833333 -210.4 -312.75)" d="M 4310.24,6965.52 L 4311.4,6971.2 L 4303.03,6975 L 4169.93,6955.48 L 4168.8,6949.8 L 4178.41,6946.29 L 4310.24,6965.52 Z " />
<path stroke="none" fill="#000000" transform="matrix(0.0833333 0 0 0.0833333 -210.4 -312.75)" d="M 4306.42,6932.73 L 4304.76,6943.81 L 4228.11,6932.31 L 4229.77,6921.23 L 4306.42,6932.73 Z " />
<path stroke="none" fill="#000000" transform="matrix(0.0833333 0 0 0.0833333 -210.4 -312.75)" d="M 4178.41,6946.29 L 4168.8,6949.8 L 4165.22,6945.42 L 4303.14,6779.52 L 4316.8,6770.6 L 4320.36,6775 L 4178.41,6946.29 Z " />
<path stroke="none" fill="#000000" transform="matrix(0.0833333 0 0 0.0833333 -210.4 -312.75)" d="M 4320.36,6775 L 4316.8,6770.6 L 4314.72,6765.38 L 4605.86,6606.65 L 4607.96,6618.28 L 4320.36,6775 Z " />
<path stroke="none" fill="#000000" transform="matrix(0.0833333 0 0 0.0833333 -210.4 -312.75)" d="M 4328.67,6786.66 L 4323.31,6776.83 L 4606.73,6622.42 L 4612.08,6632.25 L 4328.67,6786.66 Z " />
<path stroke="none" fill="#000000" transform="matrix(0.0833333 0 0 0.0833333 -210.4 -312.75)" d="M 4607.96,6618.28 L 4605.86,6606.65 L 4748.24,6628.32 L 4749.4,6634 L 4739.8,6637.52 L 4607.96,6618.28 Z " />
<path stroke="none" fill="#000000" transform="matrix(0.0833333 0 0 0.0833333 -210.4 -312.75)" d="M 5341.11,6637.74 L 5331.4,6634 L 5332.61,6628.35 L 5480.4,6609.7 L 5478.19,6621.25 L 5341.11,6637.74 Z " />
<path stroke="none" fill="#000000" transform="matrix(0.0833333 0 0 0.0833333 -210.4 -312.75)" d="M 5383.32,6660.1 L 5381.94,6648.98 L 5473.51,6637.6 L 5474.89,6648.71 L 5383.32,6660.1 Z " />
<path stroke="none" fill="#000000" transform="matrix(0.0833333 0 0 0.0833333 -210.4 -312.75)" d="M 5478.19,6621.25 L 5480.4,6609.7 L 5772.41,6768.05 L 5771,6773.6 L 5767.43,6778 L 5478.19,6621.25 Z " />
<path stroke="none" fill="#000000" transform="matrix(0.0833333 0 0 0.0833333 -210.4 -312.75)" d="M 5767.43,6778 L 5771,6773.6 L 5781.81,6778.84 L 5918.39,6945.43 L 5914.8,6949.8 L 5905.09,6946.06 L 5767.43,6778 Z " />
<path stroke="none" fill="#000000" transform="matrix(0.0833333 0 0 0.0833333 -210.4 -312.75)" d="M 5751.57,6795.37 L 5760.25,6788.29 L 5874.59,6928.4 L 5865.92,6935.48 L 5751.57,6795.37 Z " />
<path stroke="none" fill="#000000" transform="matrix(0.0833333 0 0 0.0833333 -210.4 -312.75)" d="M 5905.09,6946.06 L 5914.8,6949.8 L 5913.62,6955.45 L 5775.27,6972.19 L 5766.8,6968.2 L 5768.01,6962.55 L 5905.09,6946.06 Z " />
<path stroke="none" fill="#000000" transform="matrix(0.0833333 0 0 0.0833333 -210.4 -312.75)" d="M 5768.01,6962.55 L 5766.8,6968.2 L 5762.78,6972.33 L 5471.5,6814.61 L 5478.77,6805.8 L 5768.01,6962.55 Z " />
<path stroke="none" fill="#000000" transform="matrix(0.0833333 0 0 0.0833333 -210.4 -312.75)" d="M 5773.08,6944.15 L 5767.74,6953.99 L 5484.58,6800.57 L 5489.92,6790.72 L 5773.08,6944.15 Z " />
<path stroke="none" fill="#000000" transform="matrix(0.0833333 0 0 0.0833333 -210.4 -312.75)" d="M 5478.77,6805.8 L 5471.5,6814.61 L 5327.83,6638.4 L 5331.4,6634 L 5341.11,6637.74 L 5478.77,6805.8 Z " />
<text x="0" y="0" stroke="none" fill="#000000" transform="matrix(0.0833333 0 0 0.0833333 109.476 283.192)" font-style="normal" font-weight="normal" font-size="111px" font-family="Arial" >
N</text>
<path stroke="none" fill="#000000" transform="matrix(0.0833333 0 0 0.0833333 -210.4 -312.75)" d="M 4165.22,6945.42 L 4168.8,6949.8 L 4169.93,6955.48 L 3938.94,7081.32 L 3933.58,7071.49 L 4165.22,6945.42 Z " />
<text x="0" y="0" stroke="none" fill="#000000" transform="matrix(0.0833333 0 0 0.0833333 303.46 283.192)" font-style="normal" font-weight="normal" font-size="111px" font-family="Arial" >
N</text>
<path stroke="none" fill="#000000" transform="matrix(0.0833333 0 0 0.0833333 -210.4 -312.75)" d="M 5913.62,6955.45 L 5914.8,6949.8 L 5918.39,6945.43 L 6151.24,7071.55 L 6145.91,7081.39 L 5913.62,6955.45 Z " />
<path stroke="none" fill="#000000" transform="matrix(0.0833333 0 0 0.0833333 -210.4 -312.75)" d="M 3826.17,7162.56 L 3834.81,7169.69 L 3746.55,7276.81 L 3736.62,7271.27 L 3826.17,7162.56 L 3826.17,7162.56 Z " />
<path stroke="none" fill="#000000" transform="matrix(0.0833333 0 0 0.0833333 -210.4 -312.75)" d="M 3857.27,7188.21 L 3865.91,7195.33 L 3782.27,7296.74 L 3772.33,7291.19 L 3857.27,7188.21 L 3857.27,7188.21 Z " />
<path stroke="none" fill="#000000" transform="matrix(0.0833333 0 0 0.0833333 -210.4 -312.75)" d="M 6249.77,7169.88 L 6258.45,7162.81 L 6353.48,7279.55 L 6346.25,7288.38 L 6249.77,7169.88 L 6249.77,7169.88 Z " />
<path stroke="none" fill="#000000" transform="matrix(0.0833333 0 0 0.0833333 -210.4 -312.75)" d="M 6281.02,7144.41 L 6289.71,7137.34 L 6380.55,7248.81 L 6371.87,7255.88 L 6281.02,7144.41 L 6281.02,7144.41 Z " />
<path stroke="none" fill="#000000" transform="matrix(0.0833333 0 0 0.0833333 -210.4 -312.75)" d="M 6346.25,7288.38 L 6353.48,7279.55 L 6383.33,7295.72 L 6375.23,7304.07 L 6346.25,7288.38 L 6346.25,7288.38 Z " />
<path stroke="none" fill="#000000" transform="matrix(0.0833333 0 0 0.0833333 -210.4 -312.75)" d="M 6643.17,7436.43 L 6641.8,7442 L 6638.23,7446.4 L 6464.35,7352.3 L 6475.88,7345.83 L 6643.17,7436.43 L 6643.17,7436.43 Z " />
<path stroke="none" fill="#000000" transform="matrix(0.0833333 0 0 0.0833333 -210.4 -312.75)" d="M 3444.16,7449.4 L 3440.6,7445 L 3439.27,7439.4 L 3684.1,7306.09 L 3695.66,7312.54 L 3444.16,7449.4 L 3444.16,7449.4 Z " />
<text x="0" y="0" stroke="none" fill="#000000" transform="matrix(0.0833333 0 0 0.0833333 61.0929 309.508)" font-style="normal" font-weight="normal" font-size="111px" font-family="Arial" >
N</text>
<path stroke="none" fill="#000000" transform="matrix(0.0833333 0 0 0.0833333 -210.4 -312.75)" d="M 3431.25,7448.17 L 3440.6,7445 L 3444.16,7449.4 L 3296.48,7628.61 L 3289.24,7619.8 L 3431.25,7448.17 Z " />
<path stroke="none" fill="#000000" transform="matrix(0.0833333 0 0 0.0833333 -210.4 -312.75)" d="M 3403.84,7453.87 L 3412.48,7461 L 3286.03,7614.32 L 3277.39,7607.19 L 3403.84,7453.87 Z " />
<path stroke="none" fill="#000000" transform="matrix(0.0833333 0 0 0.0833333 -210.4 -312.75)" d="M 3289.24,7619.8 L 3296.48,7628.61 L 3003.33,7788.14 L 3001.24,7776.52 L 3289.24,7619.8 Z " />
<path stroke="none" fill="#000000" transform="matrix(0.0833333 0 0 0.0833333 -210.4 -312.75)" d="M 3001.24,7776.52 L 3003.33,7788.14 L 2848.13,7765.55 L 2869.61,7757.29 L 3001.24,7776.52 Z " />
<path stroke="none" fill="#000000" transform="matrix(0.0833333 0 0 0.0833333 -210.4 -312.75)" d="M 2998.18,7748 L 2996.51,7759.07 L 2911.47,7746.29 L 2913.13,7735.22 L 2998.18,7748 Z " />
<path stroke="none" fill="#000000" transform="matrix(0.0833333 0 0 0.0833333 -210.4 -312.75)" d="M 2869.61,7757.29 L 2848.13,7765.55 L 2998.51,7584.7 L 3007.8,7581.6 L 3011.38,7585.97 L 2869.61,7757.29 Z " />
<path stroke="none" fill="#000000" transform="matrix(0.0833333 0 0 0.0833333 -210.4 -312.75)" d="M 3011.38,7585.97 L 3007.8,7581.6 L 3006.46,7576.02 L 3233.48,7452.35 L 3238.83,7462.19 L 3011.38,7585.97 Z " />
<path stroke="none" fill="#000000" transform="matrix(0.0833333 0 0 0.0833333 -210.4 -312.75)" d="M 3018.33,7596.03 L 3012.97,7586.2 L 3239.27,7462.99 L 3244.62,7472.83 L 3018.33,7596.03 Z " />
<path stroke="none" fill="#000000" transform="matrix(0.0833333 0 0 0.0833333 -210.4 -312.75)" d="M 3349.56,7437 L 3351.22,7425.92 L 3439.27,7439.4 L 3440.6,7445 L 3431.25,7448.17 L 3349.56,7437 Z " />
<text x="0" y="0" stroke="none" fill="#000000" transform="matrix(0.0833333 0 0 0.0833333 352.06 309.508)" font-style="normal" font-weight="normal" font-size="111px" font-family="Arial" >
N</text>
<path stroke="none" fill="#000000" transform="matrix(0.0833333 0 0 0.0833333 -210.4 -312.75)" d="M 6651.25,7445.41 L 6641.8,7442 L 6643.17,7436.43 L 6736.07,7424.62 L 6737.46,7435.73 L 6651.25,7445.41 Z " />
<path stroke="none" fill="#000000" transform="matrix(0.0833333 0 0 0.0833333 -210.4 -312.75)" d="M 6692.14,7467.49 L 6690.75,7456.38 L 6739.28,7450.34 L 6740.66,7461.45 L 6692.14,7467.49 Z " />
<path stroke="none" fill="#000000" transform="matrix(0.0833333 0 0 0.0833333 -210.4 -312.75)" d="M 6848.68,7461.96 L 6854.02,7452.11 L 7082.77,7576.04 L 7081.4,7581.6 L 7077.81,7585.97 L 6848.68,7461.96 Z " />
<path stroke="none" fill="#000000" transform="matrix(0.0833333 0 0 0.0833333 -210.4 -312.75)" d="M 7077.81,7585.97 L 7081.4,7581.6 L 7090.81,7584.95 L 7237.03,7762.8 L 7215.3,7754.06 L 7077.81,7585.97 Z " />
<path stroke="none" fill="#000000" transform="matrix(0.0833333 0 0 0.0833333 -210.4 -312.75)" d="M 7065.68,7598.88 L 7074.36,7591.8 L 7195.79,7740.8 L 7187.11,7747.87 L 7065.68,7598.88 Z " />
<path stroke="none" fill="#000000" transform="matrix(0.0833333 0 0 0.0833333 -210.4 -312.75)" d="M 7215.3,7754.06 L 7237.03,7762.8 L 7076,7782.1 L 7078.21,7770.55 L 7215.3,7754.06 Z " />
<path stroke="none" fill="#000000" transform="matrix(0.0833333 0 0 0.0833333 -210.4 -312.75)" d="M 7078.21,7770.55 L 7076,7782.1 L 6781.7,7622.81 L 6788.97,7614 L 7078.21,7770.55 Z " />
<path stroke="none" fill="#000000" transform="matrix(0.0833333 0 0 0.0833333 -210.4 -312.75)" d="M 7082,7758.89 L 7076.67,7768.74 L 6790.54,7613.9 L 6795.87,7604.05 L 7082,7758.89 Z " />
<path stroke="none" fill="#000000" transform="matrix(0.0833333 0 0 0.0833333 -210.4 -312.75)" d="M 6788.97,7614 L 6781.7,7622.81 L 6638.23,7446.4 L 6641.8,7442 L 6651.25,7445.41 L 6788.97,7614 Z " />
<text x="0" y="0" stroke="none" fill="#000000" transform="matrix(0.0833333 0 0 0.0833333 24.7688 320.892)" font-style="normal" font-weight="normal" font-size="111px" font-family="Arial" >
O</text>
<path stroke="none" fill="#000000" transform="matrix(0.0833333 0 0 0.0833333 -210.4 -312.75)" d="M 3006.46,7576.02 L 3007.8,7581.6 L 2998.51,7584.7 L 2923.52,7574.61 L 2925.18,7563.54 L 3006.46,7576.02 Z " />
<path stroke="none" fill="#000000" transform="matrix(0.0833333 0 0 0.0833333 -210.4 -312.75)" d="M 2806.27,7585.91 L 2811.63,7595.74 L 2577.68,7723.12 L 2572.32,7713.28 L 2806.27,7585.91 Z " />
<text x="0" y="0" stroke="none" fill="#000000" transform="matrix(0.0833333 0 0 0.0833333 388.435 321.142)" font-style="normal" font-weight="normal" font-size="111px" font-family="Arial" >
O</text>
<path stroke="none" fill="#000000" transform="matrix(0.0833333 0 0 0.0833333 -210.4 -312.75)" d="M 7090.81,7584.95 L 7081.4,7581.6 L 7082.77,7576.04 L 7169.68,7564.97 L 7171.06,7576.08 L 7090.81,7584.95 Z " />
<path stroke="none" fill="#000000" transform="matrix(0.0833333 0 0 0.0833333 -210.4 -312.75)" d="M 7283.12,7598.76 L 7288.45,7588.92 L 7523.67,7716.28 L 7518.33,7726.12 L 7283.12,7598.76 Z " />
<path stroke="none" fill="#000000" transform="matrix(0.0833333 0 0 0.0833333 -210.4 -312.75)" d="M 7378.73,4302.65 L 7373.25,4292.88 L 7611.46,4159.32 L 7616.94,4169.08 L 7378.73,4302.65 Z " />
<path stroke="none" fill="#000000" transform="matrix(0.0833333 0 0 0.0833333 -210.4 -312.75)" d="M 7185.29,4339.59 L 7185,4334 L 7196.41,4329.44 L 7264.47,4324.28 L 7265.05,4335.47 L 7185.29,4339.59 Z " />
<text x="0" y="0" stroke="none" fill="#000000" transform="matrix(0.0833333 0 0 0.0833333 396.352 51.4417)" font-style="normal" font-weight="normal" font-size="111px" font-family="Arial" >
O</text>
<path stroke="none" fill="#000000" transform="matrix(0.0833333 0 0 0.0833333 -210.4 -312.75)" d="M 2911.17,4291.29 L 2905.71,4301.07 L 2665.27,4167.09 L 2670.73,4157.31 L 2911.17,4291.29 Z " />
<path stroke="none" fill="#000000" transform="matrix(0.0833333 0 0 0.0833333 -210.4 -312.75)" d="M 3101.22,4329.1 L 3112.4,4334 L 3112.06,4339.59 L 3019.52,4334.01 L 3020.19,4322.83 L 3101.22,4329.1 Z " />
<text x="0" y="0" stroke="none" fill="#000000" transform="matrix(0.0833333 0 0 0.0833333 32.6521 51.275)" font-style="normal" font-weight="normal" font-size="111px" font-family="Arial" >
O</text>
<path stroke="none" fill="#000000" transform="matrix(0.0833333 0 0 0.0833333 -210.4 -312.75)" d="M 6903.29,4343.71 L 6910.17,4352.7 L 6767.51,4499.13 L 6756,4503.8 L 6752.63,4499.3 L 6903.29,4343.71 Z " />
<path stroke="none" fill="#000000" transform="matrix(0.0833333 0 0 0.0833333 -210.4 -312.75)" d="M 7195.09,4179.97 L 7198.34,4191 L 6910.17,4352.7 L 6903.29,4343.71 L 7195.09,4179.97 Z " />
<path stroke="none" fill="#000000" transform="matrix(0.0833333 0 0 0.0833333 -210.4 -312.75)" d="M 7196.3,4189.17 L 7201.79,4198.94 L 6914.82,4359.95 L 6909.34,4350.18 L 7196.3,4189.17 Z " />
<path stroke="none" fill="#000000" transform="matrix(0.0833333 0 0 0.0833333 -210.4 -312.75)" d="M 7352.43,4170.56 L 7323.79,4183.64 L 7198.34,4191 L 7195.09,4179.97 L 7352.43,4170.56 Z " />
<path stroke="none" fill="#000000" transform="matrix(0.0833333 0 0 0.0833333 -210.4 -312.75)" d="M 7196.41,4329.44 L 7185,4334 L 7181.6,4329.52 L 7323.79,4183.64 L 7352.43,4170.56 L 7196.41,4329.44 L 7196.41,4329.44 Z " />
<path stroke="none" fill="#000000" transform="matrix(0.0833333 0 0 0.0833333 -210.4 -312.75)" d="M 7180.9,4327.36 L 7172.86,4319.56 L 7299.03,4189.38 L 7307.07,4197.17 L 7180.9,4327.36 L 7180.9,4327.36 Z " />
<path stroke="none" fill="#000000" transform="matrix(0.0833333 0 0 0.0833333 -210.4 -312.75)" d="M 6955.36,4469.27 L 6949.88,4459.5 L 7181.6,4329.52 L 7185,4334 L 7186.99,4339.26 L 6955.36,4469.27 Z " />
<path stroke="none" fill="#000000" transform="matrix(0.0833333 0 0 0.0833333 -210.4 -312.75)" d="M 6756.29,4509.39 L 6756,4503.8 L 6767.51,4499.13 L 6841.54,4493.77 L 6842.12,4504.95 L 6756.29,4509.39 Z " />
<path stroke="none" fill="#000000" transform="matrix(0.0833333 0 0 0.0833333 -210.4 -312.75)" d="M 6805.33,4487.12 L 6804.75,4475.93 L 6840.52,4474.08 L 6841.1,4485.26 L 6805.33,4487.12 Z " />
<text x="0" y="0" stroke="none" fill="#000000" transform="matrix(0.0833333 0 0 0.0833333 360.86 65.5916)" font-style="normal" font-weight="normal" font-size="111px" font-family="Arial" >
N</text>
<path stroke="none" fill="#000000" transform="matrix(0.0833333 0 0 0.0833333 -210.4 -312.75)" d="M 3457.24,4505.33 L 3457.9,4494.15 L 3545.74,4500.63 L 3557,4505.6 L 3556.67,4511.19 L 3457.24,4505.33 Z " />
<path stroke="none" fill="#000000" transform="matrix(0.0833333 0 0 0.0833333 -210.4 -312.75)" d="M 3110.49,4339.3 L 3112.4,4334 L 3115.86,4329.56 L 3349.52,4459.63 L 3344.07,4469.42 L 3110.49,4339.3 Z " />
<path stroke="none" fill="#000000" transform="matrix(0.0833333 0 0 0.0833333 -210.4 -312.75)" d="M 3115.5,4331.56 L 3120.95,4321.78 L 3354.01,4451.56 L 3348.56,4461.35 L 3115.5,4331.56 Z " />
<path stroke="none" fill="#000000" transform="matrix(0.0833333 0 0 0.0833333 -210.4 -312.75)" d="M 2957.48,4172.7 L 2984.8,4185.81 L 3115.86,4329.56 L 3112.4,4334 L 3101.22,4329.1 L 2957.48,4172.7 Z " />
<path stroke="none" fill="#000000" transform="matrix(0.0833333 0 0 0.0833333 -210.4 -312.75)" d="M 3127.34,4183.59 L 3124.07,4194.61 L 2984.8,4185.81 L 2957.48,4172.7 L 3127.34,4183.59 Z " />
<path stroke="none" fill="#000000" transform="matrix(0.0833333 0 0 0.0833333 -210.4 -312.75)" d="M 3120.34,4203.49 L 3119.69,4214.67 L 3020.94,4208.98 L 3021.59,4197.8 L 3120.34,4203.49 Z " />
<path stroke="none" fill="#000000" transform="matrix(0.0833333 0 0 0.0833333 -210.4 -312.75)" d="M 3421.19,4347.55 L 3414.16,4356.46 L 3124.07,4194.61 L 3127.34,4183.59 L 3421.19,4347.55 Z " />
<path stroke="none" fill="#000000" transform="matrix(0.0833333 0 0 0.0833333 -210.4 -312.75)" d="M 3560.44,4501.14 L 3557,4505.6 L 3545.74,4500.63 L 3414.16,4356.46 L 3421.19,4347.55 L 3560.44,4501.14 Z " />
<path stroke="none" fill="#000000" transform="matrix(0.0833333 0 0 0.0833333 -210.4 -312.75)" d="M 3525.8,4484.92 L 3517.51,4492.45 L 3404.12,4367.51 L 3412.41,4359.98 L 3525.8,4484.92 Z " />
<text x="0" y="0" stroke="none" fill="#000000" transform="matrix(0.0833333 0 0 0.0833333 69.9595 65.5916)" font-style="normal" font-weight="normal" font-size="111px" font-family="Arial" >
N</text>
<path stroke="none" fill="#000000" transform="matrix(0.0833333 0 0 0.0833333 -210.4 -312.75)" d="M 3852.44,4663.98 L 3845.46,4672.92 L 3555.11,4510.92 L 3557,4505.6 L 3560.44,4501.14 L 3852.44,4663.98 Z " />
<path stroke="none" fill="#000000" transform="matrix(0.0833333 0 0 0.0833333 -210.4 -312.75)" d="M 6469.48,4670.96 L 6462.65,4661.93 L 6752.63,4499.3 L 6756,4503.8 L 6757.96,4509.09 L 6469.48,4670.96 Z " />
<path stroke="none" fill="#000000" transform="matrix(0.0833333 0 0 0.0833333 -210.4 -312.75)" d="M 6366.81,4777 L 6358.77,4769.2 L 6462.18,4662.5 L 6470.22,4670.3 L 6366.81,4777 Z " />
<path stroke="none" fill="#000000" transform="matrix(0.0833333 0 0 0.0833333 -210.4 -312.75)" d="M 6337.86,4748.94 L 6329.81,4741.14 L 6433.22,4634.44 L 6441.27,4642.24 L 6337.86,4748.94 Z " />
<path stroke="none" fill="#000000" transform="matrix(0.0833333 0 0 0.0833333 -210.4 -312.75)" d="M 3946.5,4767.72 L 3938.21,4775.25 L 3844.65,4672.16 L 3852.95,4664.64 L 3946.5,4767.72 Z " />
<path stroke="none" fill="#000000" transform="matrix(0.0833333 0 0 0.0833333 -210.4 -312.75)" d="M 3916.64,4794.82 L 3908.35,4802.35 L 3819.23,4704.16 L 3827.53,4696.63 L 3916.64,4794.82 Z " />
<path stroke="none" fill="#000000" transform="matrix(0.0833333 0 0 0.0833333 -210.4 -312.75)" d="M 6029,4989.08 L 6025.6,4984.6 L 6023.89,4979.2 L 6250.99,4851.72 L 6256.47,4861.48 L 6029,4989.08 Z " />
<text x="0" y="0" stroke="none" fill="#000000" transform="matrix(0.0833333 0 0 0.0833333 312.543 92.7083)" font-style="normal" font-weight="normal" font-size="111px" font-family="Arial" >
N</text>
<path stroke="none" fill="#000000" transform="matrix(0.0833333 0 0 0.0833333 -210.4 -312.75)" d="M 4281.7,4979.19 L 4280,4984.6 L 4276.53,4989.04 L 4047.06,4861.21 L 4052.51,4851.43 L 4281.7,4979.19 Z " />
<text x="0" y="0" stroke="none" fill="#000000" transform="matrix(0.0833333 0 0 0.0833333 118.61 92.7083)" font-style="normal" font-weight="normal" font-size="111px" font-family="Arial" >
N</text>
<path stroke="none" fill="#000000" transform="matrix(0.0833333 0 0 0.0833333 -210.4 -312.75)" d="M 5592.89,5150.11 L 5599.78,5159.1 L 5457.61,5304.96 L 5445.6,5310.2 L 5442.23,5305.7 L 5592.89,5150.11 Z " />
<path stroke="none" fill="#000000" transform="matrix(0.0833333 0 0 0.0833333 -210.4 -312.75)" d="M 5884.68,4986.17 L 5887.94,4997.2 L 5599.78,5159.1 L 5592.89,5150.11 L 5884.68,4986.17 Z " />
<path stroke="none" fill="#000000" transform="matrix(0.0833333 0 0 0.0833333 -210.4 -312.75)" d="M 5885.91,4995.38 L 5891.39,5005.14 L 5604.43,5166.35 L 5598.95,5156.58 L 5885.91,4995.38 Z " />
<path stroke="none" fill="#000000" transform="matrix(0.0833333 0 0 0.0833333 -210.4 -312.75)" d="M 6023.89,4979.2 L 6025.6,4984.6 L 6013.59,4989.84 L 5887.94,4997.2 L 5884.68,4986.17 L 6023.89,4979.2 Z " />
<path stroke="none" fill="#000000" transform="matrix(0.0833333 0 0 0.0833333 -210.4 -312.75)" d="M 5878.31,5144.69 L 5871.43,5135.7 L 6013.59,4989.84 L 6025.6,4984.6 L 6029,4989.08 L 5878.31,5144.69 L 5878.31,5144.69 Z " />
<path stroke="none" fill="#000000" transform="matrix(0.0833333 0 0 0.0833333 -210.4 -312.75)" d="M 5870.7,5133.56 L 5862.66,5125.76 L 5988.84,4995.57 L 5996.88,5003.37 L 5870.7,5133.56 L 5870.7,5133.56 Z " />
<path stroke="none" fill="#000000" transform="matrix(0.0833333 0 0 0.0833333 -210.4 -312.75)" d="M 5586.31,5308.63 L 5583.06,5297.6 L 5871.43,5135.7 L 5878.31,5144.69 L 5586.31,5308.63 Z " />
<path stroke="none" fill="#000000" transform="matrix(0.0833333 0 0 0.0833333 -210.4 -312.75)" d="M 5447.34,5315.6 L 5445.6,5310.2 L 5457.61,5304.96 L 5583.06,5297.6 L 5586.31,5308.63 L 5447.34,5315.6 Z " />
<path stroke="none" fill="#000000" transform="matrix(0.0833333 0 0 0.0833333 -210.4 -312.75)" d="M 5496.75,5292.69 L 5496.17,5281.5 L 5578.68,5277.24 L 5579.25,5288.42 L 5496.75,5292.69 Z " />
<path stroke="none" fill="#000000" transform="matrix(0.0833333 0 0 0.0833333 -210.4 -312.75)" d="M 4709.66,5306.61 L 4712.93,5295.6 L 4852.38,5304.76 L 4864,5310.2 L 4862.27,5315.6 L 4709.66,5306.61 Z " />
<path stroke="none" fill="#000000" transform="matrix(0.0833333 0 0 0.0833333 -210.4 -312.75)" d="M 4415.81,5142.85 L 4422.84,5133.94 L 4712.93,5295.6 L 4709.66,5306.61 L 4415.81,5142.85 Z " />
<path stroke="none" fill="#000000" transform="matrix(0.0833333 0 0 0.0833333 -210.4 -312.75)" d="M 4422.47,5135.99 L 4427.93,5126.21 L 4716.57,5287.05 L 4711.12,5296.84 L 4422.47,5135.99 Z " />
<path stroke="none" fill="#000000" transform="matrix(0.0833333 0 0 0.0833333 -210.4 -312.75)" d="M 4276.53,4989.04 L 4280,4984.6 L 4291.62,4990.04 L 4422.84,5133.94 L 4415.81,5142.85 L 4276.53,4989.04 Z " />
<path stroke="none" fill="#000000" transform="matrix(0.0833333 0 0 0.0833333 -210.4 -312.75)" d="M 4434.14,4988.19 L 4430.87,4999.2 L 4291.62,4990.04 L 4280,4984.6 L 4281.7,4979.19 L 4434.14,4988.19 Z " />
<path stroke="none" fill="#000000" transform="matrix(0.0833333 0 0 0.0833333 -210.4 -312.75)" d="M 4427.16,5007.98 L 4426.49,5019.16 L 4327.62,5013.2 L 4328.29,5002.02 L 4427.16,5007.98 Z " />
<path stroke="none" fill="#000000" transform="matrix(0.0833333 0 0 0.0833333 -210.4 -312.75)" d="M 4728.19,5151.95 L 4721.16,5160.86 L 4430.87,4999.2 L 4434.14,4988.19 L 4728.19,5151.95 Z " />
<path stroke="none" fill="#000000" transform="matrix(0.0833333 0 0 0.0833333 -210.4 -312.75)" d="M 4867.44,5305.74 L 4864,5310.2 L 4852.38,5304.76 L 4721.16,5160.86 L 4728.19,5151.95 L 4867.44,5305.74 Z " />
<path stroke="none" fill="#000000" transform="matrix(0.0833333 0 0 0.0833333 -210.4 -312.75)" d="M 4832.73,5289.45 L 4824.44,5296.97 L 4711.1,5171.93 L 4719.4,5164.41 L 4832.73,5289.45 Z " />
<path stroke="none" fill="#000000" transform="matrix(0.0833333 0 0 0.0833333 -210.4 -312.75)" d="M 5155.81,5479.34 L 5155.79,5466.5 L 5442.23,5305.7 L 5445.6,5310.2 L 5447.34,5315.6 L 5155.81,5479.34 Z " />
<path stroke="none" fill="#000000" transform="matrix(0.0833333 0 0 0.0833333 -210.4 -312.75)" d="M 4862.27,5315.6 L 4864,5310.2 L 4867.44,5305.74 L 5155.79,5466.5 L 5155.81,5479.34 L 4862.27,5315.6 Z " />
<path stroke="none" fill="#808080" transform="matrix(0.0833333 0 0 0.0833333 -210.4 -312.75)" d="M 3458.4,4636 A 201.6,201.6 0 1 0 3861.6,4636A 201.6,201.6 0 1 0 3458.4,4636Z " />
<path stroke="none" fill="#878787" transform="matrix(0.0833333 0 0 0.0833333 -210.4 -312.75)" d="M 3460.75,4632.85 A 196.104,196.104 0 1 0 3852.95,4632.85A 196.104,196.104 0 1 0 3460.75,4632.85Z " />
<path stroke="none" fill="#8f8f8f" transform="matrix(0.0833333 0 0 0.0833333 -210.4 -312.75)" d="M 3463.09,4629.7 A 190.608,190.608 0 1 0 3844.31,4629.7A 190.608,190.608 0 1 0 3463.09,4629.7Z " />
<path stroke="none" fill="#969696" transform="matrix(0.0833333 0 0 0.0833333 -210.4 -312.75)" d="M 3465.44,4626.55 A 185.111,185.111 0 1 0 3835.66,4626.55A 185.111,185.111 0 1 0 3465.44,4626.55Z " />
<path stroke="none" fill="#9d9d9d" transform="matrix(0.0833333 0 0 0.0833333 -210.4 -312.75)" d="M 3467.78,4623.4 A 179.615,179.615 0 1 0 3827.02,4623.4A 179.615,179.615 0 1 0 3467.78,4623.4Z " />
<path stroke="none" fill="#a4a4a4" transform="matrix(0.0833333 0 0 0.0833333 -210.4 -312.75)" d="M 3470.13,4620.25 A 174.119,174.119 0 1 0 3818.37,4620.25A 174.119,174.119 0 1 0 3470.13,4620.25Z " />
<path stroke="none" fill="#ababab" transform="matrix(0.0833333 0 0 0.0833333 -210.4 -312.75)" d="M 3472.48,4617.1 A 168.623,168.623 0 1 0 3809.72,4617.1A 168.623,168.623 0 1 0 3472.48,4617.1Z " />
<path stroke="none" fill="#b1b1b1" transform="matrix(0.0833333 0 0 0.0833333 -210.4 -312.75)" d="M 3474.82,4613.95 A 163.127,163.127 0 1 0 3801.08,4613.95A 163.127,163.127 0 1 0 3474.82,4613.95Z " />
<path stroke="none" fill="#b7b7b7" transform="matrix(0.0833333 0 0 0.0833333 -210.4 -312.75)" d="M 3477.17,4610.8 A 157.631,157.631 0 1 0 3792.43,4610.8A 157.631,157.631 0 1 0 3477.17,4610.8Z " />
<path stroke="none" fill="#bdbdbd" transform="matrix(0.0833333 0 0 0.0833333 -210.4 -312.75)" d="M 3479.52,4607.65 A 152.135,152.135 0 1 0 3783.78,4607.65A 152.135,152.135 0 1 0 3479.52,4607.65Z " />
<path stroke="none" fill="#c2c2c2" transform="matrix(0.0833333 0 0 0.0833333 -210.4 -312.75)" d="M 3481.86,4604.5 A 146.639,146.639 0 1 0 3775.14,4604.5A 146.639,146.639 0 1 0 3481.86,4604.5Z " />
<path stroke="none" fill="#c8c8c8" transform="matrix(0.0833333 0 0 0.0833333 -210.4 -312.75)" d="M 3484.21,4601.35 A 141.143,141.143 0 1 0 3766.49,4601.35A 141.143,141.143 0 1 0 3484.21,4601.35Z " />
<path stroke="none" fill="#cdcdcd" transform="matrix(0.0833333 0 0 0.0833333 -210.4 -312.75)" d="M 3486.55,4598.2 A 135.647,135.647 0 1 0 3757.85,4598.2A 135.647,135.647 0 1 0 3486.55,4598.2Z " />
<path stroke="none" fill="#d2d2d2" transform="matrix(0.0833333 0 0 0.0833333 -210.4 -312.75)" d="M 3488.9,4595.05 A 130.151,130.151 0 1 0 3749.2,4595.05A 130.151,130.151 0 1 0 3488.9,4595.05Z " />
<path stroke="none" fill="#d6d6d6" transform="matrix(0.0833333 0 0 0.0833333 -210.4 -312.75)" d="M 3491.25,4591.9 A 124.654,124.654 0 1 0 3740.55,4591.9A 124.654,124.654 0 1 0 3491.25,4591.9Z " />
<path stroke="none" fill="#dbdbdb" transform="matrix(0.0833333 0 0 0.0833333 -210.4 -312.75)" d="M 3493.59,4588.75 A 119.158,119.158 0 1 0 3731.91,4588.75A 119.158,119.158 0 1 0 3493.59,4588.75Z " />
<path stroke="none" fill="#dfdfdf" transform="matrix(0.0833333 0 0 0.0833333 -210.4 -312.75)" d="M 3495.94,4585.6 A 113.662,113.662 0 1 0 3723.26,4585.6A 113.662,113.662 0 1 0 3495.94,4585.6Z " />
<path stroke="none" fill="#e3e3e3" transform="matrix(0.0833333 0 0 0.0833333 -210.4 -312.75)" d="M 3498.28,4582.45 A 108.166,108.166 0 1 0 3714.62,4582.45A 108.166,108.166 0 1 0 3498.28,4582.45Z " />
<path stroke="none" fill="#e6e6e6" transform="matrix(0.0833333 0 0 0.0833333 -210.4 -312.75)" d="M 3500.63,4579.3 A 102.67,102.67 0 1 0 3705.97,4579.3A 102.67,102.67 0 1 0 3500.63,4579.3Z " />
<path stroke="none" fill="#eaeaea" transform="matrix(0.0833333 0 0 0.0833333 -210.4 -312.75)" d="M 3502.98,4576.15 A 97.174,97.174 0 1 0 3697.32,4576.15A 97.174,97.174 0 1 0 3502.98,4576.15Z " />
<path stroke="none" fill="#ededed" transform="matrix(0.0833333 0 0 0.0833333 -210.4 -312.75)" d="M 3505.32,4573 A 91.6779,91.6779 0 1 0 3688.68,4573A 91.6779,91.6779 0 1 0 3505.32,4573Z " />
<path stroke="none" fill="#efefef" transform="matrix(0.0833333 0 0 0.0833333 -210.4 -312.75)" d="M 3507.67,4569.85 A 86.1818,86.1818 0 1 0 3680.03,4569.85A 86.1818,86.1818 0 1 0 3507.67,4569.85Z " />
<path stroke="none" fill="#f2f2f2" transform="matrix(0.0833333 0 0 0.0833333 -210.4 -312.75)" d="M 3510.01,4566.7 A 80.6857,80.6857 0 1 0 3671.39,4566.7A 80.6857,80.6857 0 1 0 3510.01,4566.7Z " />
<path stroke="none" fill="#f4f4f4" transform="matrix(0.0833333 0 0 0.0833333 -210.4 -312.75)" d="M 3512.36,4563.55 A 75.1896,75.1896 0 1 0 3662.74,4563.55A 75.1896,75.1896 0 1 0 3512.36,4563.55Z " />
<path stroke="none" fill="#f7f7f7" transform="matrix(0.0833333 0 0 0.0833333 -210.4 -312.75)" d="M 3514.71,4560.4 A 69.6935,69.6935 0 1 0 3654.09,4560.4A 69.6935,69.6935 0 1 0 3514.71,4560.4Z " />
<path stroke="none" fill="#f8f8f8" transform="matrix(0.0833333 0 0 0.0833333 -210.4 -312.75)" d="M 3517.05,4557.25 A 64.1974,64.1974 0 1 0 3645.45,4557.25A 64.1974,64.1974 0 1 0 3517.05,4557.25Z " />
<path stroke="none" fill="#fafafa" transform="matrix(0.0833333 0 0 0.0833333 -210.4 -312.75)" d="M 3519.4,4554.1 A 58.7013,58.7013 0 1 0 3636.8,4554.1A 58.7013,58.7013 0 1 0 3519.4,4554.1Z " />
<path stroke="none" fill="#fbfbfb" transform="matrix(0.0833333 0 0 0.0833333 -210.4 -312.75)" d="M 3521.74,4550.95 A 53.2052,53.2052 0 1 0 3628.16,4550.95A 53.2052,53.2052 0 1 0 3521.74,4550.95Z " />
<path stroke="none" fill="#fdfdfd" transform="matrix(0.0833333 0 0 0.0833333 -210.4 -312.75)" d="M 3524.09,4547.8 A 47.7091,47.7091 0 1 0 3619.51,4547.8A 47.7091,47.7091 0 1 0 3524.09,4547.8Z " />
<path stroke="none" fill="#fdfdfd" transform="matrix(0.0833333 0 0 0.0833333 -210.4 -312.75)" d="M 3526.44,4544.65 A 42.213,42.213 0 1 0 3610.86,4544.65A 42.213,42.213 0 1 0 3526.44,4544.65Z " />
<path stroke="none" fill="#fefefe" transform="matrix(0.0833333 0 0 0.0833333 -210.4 -312.75)" d="M 3528.78,4541.5 A 36.7169,36.7169 0 1 0 3602.22,4541.5A 36.7169,36.7169 0 1 0 3528.78,4541.5Z " />
<path stroke="none" fill="#fefefe" transform="matrix(0.0833333 0 0 0.0833333 -210.4 -312.75)" d="M 3531.13,4538.35 A 31.2208,31.2208 0 1 0 3593.57,4538.35A 31.2208,31.2208 0 1 0 3531.13,4538.35Z " />
<path stroke="#808080" stroke-width="11" fill="none" transform="matrix(0.0833333 0 0 0.0833333 -210.4 -312.75)" d="M 3458.4,4636 A 201.6,201.6 0 1 0 3861.6,4636A 201.6,201.6 0 1 0 3458.4,4636Z " />
<text x="0" y="0" stroke="none" fill="#000000" transform="matrix(0.0833333 0 0 0.0833333 85.5476 77.225)" font-style="normal" font-weight="normal" font-size="133px" font-family="Times New Roman" >
Ag</text>
<text x="0" y="0" stroke="none" fill="#000000" transform="matrix(0.0833333 0 0 0.0833333 99.0933 73.0167)" font-style="normal" font-weight="normal" font-size="99.75px" font-family="Times New Roman" >
+</text>
<path stroke="none" fill="#808080" transform="matrix(0.0833333 0 0 0.0833333 -210.4 -312.75)" d="M 6377.4,4622.4 A 201.6,201.6 0 1 0 6780.6,4622.4A 201.6,201.6 0 1 0 6377.4,4622.4Z " />
<path stroke="none" fill="#878787" transform="matrix(0.0833333 0 0 0.0833333 -210.4 -312.75)" d="M 6379.75,4619.25 A 196.104,196.104 0 1 0 6771.95,4619.25A 196.104,196.104 0 1 0 6379.75,4619.25Z " />
<path stroke="none" fill="#8f8f8f" transform="matrix(0.0833333 0 0 0.0833333 -210.4 -312.75)" d="M 6382.09,4616.1 A 190.608,190.608 0 1 0 6763.31,4616.1A 190.608,190.608 0 1 0 6382.09,4616.1Z " />
<path stroke="none" fill="#969696" transform="matrix(0.0833333 0 0 0.0833333 -210.4 -312.75)" d="M 6384.44,4612.95 A 185.112,185.112 0 1 0 6754.66,4612.95A 185.112,185.112 0 1 0 6384.44,4612.95Z " />
<path stroke="none" fill="#9d9d9d" transform="matrix(0.0833333 0 0 0.0833333 -210.4 -312.75)" d="M 6386.78,4609.8 A 179.616,179.616 0 1 0 6746.02,4609.8A 179.616,179.616 0 1 0 6386.78,4609.8Z " />
<path stroke="none" fill="#a4a4a4" transform="matrix(0.0833333 0 0 0.0833333 -210.4 -312.75)" d="M 6389.13,4606.65 A 174.12,174.12 0 1 0 6737.37,4606.65A 174.12,174.12 0 1 0 6389.13,4606.65Z " />
<path stroke="none" fill="#ababab" transform="matrix(0.0833333 0 0 0.0833333 -210.4 -312.75)" d="M 6391.48,4603.5 A 168.623,168.623 0 1 0 6728.72,4603.5A 168.623,168.623 0 1 0 6391.48,4603.5Z " />
<path stroke="none" fill="#b1b1b1" transform="matrix(0.0833333 0 0 0.0833333 -210.4 -312.75)" d="M 6393.82,4600.35 A 163.127,163.127 0 1 0 6720.08,4600.35A 163.127,163.127 0 1 0 6393.82,4600.35Z " />
<path stroke="none" fill="#b7b7b7" transform="matrix(0.0833333 0 0 0.0833333 -210.4 -312.75)" d="M 6396.17,4597.2 A 157.631,157.631 0 1 0 6711.43,4597.2A 157.631,157.631 0 1 0 6396.17,4597.2Z " />
<path stroke="none" fill="#bdbdbd" transform="matrix(0.0833333 0 0 0.0833333 -210.4 -312.75)" d="M 6398.51,4594.05 A 152.135,152.135 0 1 0 6702.79,4594.05A 152.135,152.135 0 1 0 6398.51,4594.05Z " />
<path stroke="none" fill="#c2c2c2" transform="matrix(0.0833333 0 0 0.0833333 -210.4 -312.75)" d="M 6400.86,4590.9 A 146.639,146.639 0 1 0 6694.14,4590.9A 146.639,146.639 0 1 0 6400.86,4590.9Z " />
<path stroke="none" fill="#c8c8c8" transform="matrix(0.0833333 0 0 0.0833333 -210.4 -312.75)" d="M 6403.21,4587.75 A 141.143,141.143 0 1 0 6685.49,4587.75A 141.143,141.143 0 1 0 6403.21,4587.75Z " />
<path stroke="none" fill="#cdcdcd" transform="matrix(0.0833333 0 0 0.0833333 -210.4 -312.75)" d="M 6405.55,4584.6 A 135.647,135.647 0 1 0 6676.85,4584.6A 135.647,135.647 0 1 0 6405.55,4584.6Z " />
<path stroke="none" fill="#d2d2d2" transform="matrix(0.0833333 0 0 0.0833333 -210.4 -312.75)" d="M 6407.9,4581.45 A 130.151,130.151 0 1 0 6668.2,4581.45A 130.151,130.151 0 1 0 6407.9,4581.45Z " />
<path stroke="none" fill="#d6d6d6" transform="matrix(0.0833333 0 0 0.0833333 -210.4 -312.75)" d="M 6410.25,4578.3 A 124.655,124.655 0 1 0 6659.55,4578.3A 124.655,124.655 0 1 0 6410.25,4578.3Z " />
<path stroke="none" fill="#dbdbdb" transform="matrix(0.0833333 0 0 0.0833333 -210.4 -312.75)" d="M 6412.59,4575.15 A 119.159,119.159 0 1 0 6650.91,4575.15A 119.159,119.159 0 1 0 6412.59,4575.15Z " />
<path stroke="none" fill="#dfdfdf" transform="matrix(0.0833333 0 0 0.0833333 -210.4 -312.75)" d="M 6414.94,4572 A 113.663,113.663 0 1 0 6642.26,4572A 113.663,113.663 0 1 0 6414.94,4572Z " />
<path stroke="none" fill="#e3e3e3" transform="matrix(0.0833333 0 0 0.0833333 -210.4 -312.75)" d="M 6417.28,4568.85 A 108.166,108.166 0 1 0 6633.62,4568.85A 108.166,108.166 0 1 0 6417.28,4568.85Z " />
<path stroke="none" fill="#e6e6e6" transform="matrix(0.0833333 0 0 0.0833333 -210.4 -312.75)" d="M 6419.63,4565.7 A 102.67,102.67 0 1 0 6624.97,4565.7A 102.67,102.67 0 1 0 6419.63,4565.7Z " />
<path stroke="none" fill="#eaeaea" transform="matrix(0.0833333 0 0 0.0833333 -210.4 -312.75)" d="M 6421.98,4562.55 A 97.1743,97.1743 0 1 0 6616.32,4562.55A 97.1743,97.1743 0 1 0 6421.98,4562.55Z " />
<path stroke="none" fill="#ededed" transform="matrix(0.0833333 0 0 0.0833333 -210.4 -312.75)" d="M 6424.32,4559.4 A 91.6782,91.6782 0 1 0 6607.68,4559.4A 91.6782,91.6782 0 1 0 6424.32,4559.4Z " />
<path stroke="none" fill="#efefef" transform="matrix(0.0833333 0 0 0.0833333 -210.4 -312.75)" d="M 6426.67,4556.25 A 86.1821,86.1821 0 1 0 6599.03,4556.25A 86.1821,86.1821 0 1 0 6426.67,4556.25Z " />
<path stroke="none" fill="#f2f2f2" transform="matrix(0.0833333 0 0 0.0833333 -210.4 -312.75)" d="M 6429.01,4553.1 A 80.686,80.686 0 1 0 6590.39,4553.1A 80.686,80.686 0 1 0 6429.01,4553.1Z " />
<path stroke="none" fill="#f4f4f4" transform="matrix(0.0833333 0 0 0.0833333 -210.4 -312.75)" d="M 6431.36,4549.95 A 75.1899,75.1899 0 1 0 6581.74,4549.95A 75.1899,75.1899 0 1 0 6431.36,4549.95Z " />
<path stroke="none" fill="#f7f7f7" transform="matrix(0.0833333 0 0 0.0833333 -210.4 -312.75)" d="M 6433.71,4546.8 A 69.6938,69.6938 0 1 0 6573.09,4546.8A 69.6938,69.6938 0 1 0 6433.71,4546.8Z " />
<path stroke="none" fill="#f8f8f8" transform="matrix(0.0833333 0 0 0.0833333 -210.4 -312.75)" d="M 6436.05,4543.65 A 64.1977,64.1977 0 1 0 6564.45,4543.65A 64.1977,64.1977 0 1 0 6436.05,4543.65Z " />
<path stroke="none" fill="#fafafa" transform="matrix(0.0833333 0 0 0.0833333 -210.4 -312.75)" d="M 6438.4,4540.5 A 58.7016,58.7016 0 1 0 6555.8,4540.5A 58.7016,58.7016 0 1 0 6438.4,4540.5Z " />
<path stroke="none" fill="#fbfbfb" transform="matrix(0.0833333 0 0 0.0833333 -210.4 -312.75)" d="M 6440.74,4537.35 A 53.2055,53.2055 0 1 0 6547.16,4537.35A 53.2055,53.2055 0 1 0 6440.74,4537.35Z " />
<path stroke="none" fill="#fdfdfd" transform="matrix(0.0833333 0 0 0.0833333 -210.4 -312.75)" d="M 6443.09,4534.2 A 47.7094,47.7094 0 1 0 6538.51,4534.2A 47.7094,47.7094 0 1 0 6443.09,4534.2Z " />
<path stroke="none" fill="#fdfdfd" transform="matrix(0.0833333 0 0 0.0833333 -210.4 -312.75)" d="M 6445.44,4531.05 A 42.2133,42.2133 0 1 0 6529.86,4531.05A 42.2133,42.2133 0 1 0 6445.44,4531.05Z " />
<path stroke="none" fill="#fefefe" transform="matrix(0.0833333 0 0 0.0833333 -210.4 -312.75)" d="M 6447.78,4527.9 A 36.7172,36.7172 0 1 0 6521.22,4527.9A 36.7172,36.7172 0 1 0 6447.78,4527.9Z " />
<path stroke="none" fill="#fefefe" transform="matrix(0.0833333 0 0 0.0833333 -210.4 -312.75)" d="M 6450.13,4524.75 A 31.2211,31.2211 0 1 0 6512.57,4524.75A 31.2211,31.2211 0 1 0 6450.13,4524.75Z " />
<path stroke="#808080" stroke-width="11" fill="none" transform="matrix(0.0833333 0 0 0.0833333 -210.4 -312.75)" d="M 6377.4,4622.4 A 201.6,201.6 0 1 0 6780.6,4622.4A 201.6,201.6 0 1 0 6377.4,4622.4Z " />
<text x="0" y="0" stroke="none" fill="#000000" transform="matrix(0.0833333 0 0 0.0833333 329.364 74.9917)" font-style="normal" font-weight="normal" font-size="133px" font-family="Times New Roman" >
Ag</text>
<text x="0" y="0" stroke="none" fill="#000000" transform="matrix(0.0833333 0 0 0.0833333 342.91 70.7833)" font-style="normal" font-weight="normal" font-size="99.75px" font-family="Times New Roman" >
+</text>
<path stroke="none" fill="#000000" transform="matrix(0.0833333 0 0 0.0833333 -210.4 -312.75)" d="M 4792.96,3963.2 L 4789.4,3958.8 L 4788.24,3953.12 L 5079.79,3794.31 L 5079.8,3807.06 L 4792.96,3963.2 Z " />
<path stroke="none" fill="#000000" transform="matrix(0.0833333 0 0 0.0833333 -210.4 -312.75)" d="M 5079.8,3807.06 L 5079.79,3794.31 L 5372.61,3953.15 L 5371.4,3958.8 L 5367.83,3963.2 L 5079.8,3807.06 Z " />
<path stroke="none" fill="#000000" transform="matrix(0.0833333 0 0 0.0833333 -210.4 -312.75)" d="M 4779.8,3962.32 L 4789.4,3958.8 L 4792.96,3963.2 L 4645.49,4142.41 L 4638.24,4133.6 L 4779.8,3962.32 Z " />
<path stroke="none" fill="#000000" transform="matrix(0.0833333 0 0 0.0833333 -210.4 -312.75)" d="M 4752.64,3967.69 L 4761.28,3974.81 L 4635.02,4128.11 L 4626.37,4120.99 L 4752.64,3967.69 Z " />
<path stroke="none" fill="#000000" transform="matrix(0.0833333 0 0 0.0833333 -210.4 -312.75)" d="M 4638.24,4133.6 L 4645.49,4142.41 L 4352.33,4301.94 L 4350.24,4290.32 L 4638.24,4133.6 Z " />
<path stroke="none" fill="#000000" transform="matrix(0.0833333 0 0 0.0833333 -210.4 -312.75)" d="M 4350.24,4290.32 L 4352.33,4301.94 L 4209.93,4280.28 L 4208.8,4274.6 L 4218.41,4271.09 L 4350.24,4290.32 Z " />
<path stroke="none" fill="#000000" transform="matrix(0.0833333 0 0 0.0833333 -210.4 -312.75)" d="M 4347.17,4261.78 L 4345.51,4272.86 L 4260.35,4260.08 L 4262.01,4249 L 4347.17,4261.78 Z " />
<path stroke="none" fill="#000000" transform="matrix(0.0833333 0 0 0.0833333 -210.4 -312.75)" d="M 4218.41,4271.09 L 4208.8,4274.6 L 4205.22,4270.22 L 4353.12,4090.99 L 4360.36,4099.8 L 4218.41,4271.09 Z " />
<path stroke="none" fill="#000000" transform="matrix(0.0833333 0 0 0.0833333 -210.4 -312.75)" d="M 4360.36,4099.8 L 4353.12,4090.99 L 4645.86,3931.45 L 4647.96,3943.08 L 4360.36,4099.8 Z " />
<path stroke="none" fill="#000000" transform="matrix(0.0833333 0 0 0.0833333 -210.4 -312.75)" d="M 4367.27,4109.76 L 4361.91,4099.93 L 4646.33,3944.97 L 4651.69,3954.8 L 4367.27,4109.76 Z " />
<path stroke="none" fill="#000000" transform="matrix(0.0833333 0 0 0.0833333 -210.4 -312.75)" d="M 4647.96,3943.08 L 4645.86,3931.45 L 4788.24,3953.12 L 4789.4,3958.8 L 4779.8,3962.32 L 4647.96,3943.08 Z " />
<path stroke="none" fill="#000000" transform="matrix(0.0833333 0 0 0.0833333 -210.4 -312.75)" d="M 5381.11,3962.54 L 5371.4,3958.8 L 5372.61,3953.15 L 5520.4,3934.5 L 5518.19,3946.05 L 5381.11,3962.54 Z " />
<path stroke="none" fill="#000000" transform="matrix(0.0833333 0 0 0.0833333 -210.4 -312.75)" d="M 5423.32,3984.9 L 5421.94,3973.78 L 5513.51,3962.4 L 5514.89,3973.51 L 5423.32,3984.9 Z " />
<path stroke="none" fill="#000000" transform="matrix(0.0833333 0 0 0.0833333 -210.4 -312.75)" d="M 5518.19,3946.05 L 5520.4,3934.5 L 5814.7,4093.99 L 5807.43,4102.8 L 5518.19,3946.05 Z " />
<path stroke="none" fill="#000000" transform="matrix(0.0833333 0 0 0.0833333 -210.4 -312.75)" d="M 5807.43,4102.8 L 5814.7,4093.99 L 5958.39,4270.23 L 5954.8,4274.6 L 5945.09,4270.86 L 5807.43,4102.8 Z " />
<path stroke="none" fill="#000000" transform="matrix(0.0833333 0 0 0.0833333 -210.4 -312.75)" d="M 5795.3,4115.66 L 5803.98,4108.58 L 5925.61,4257.62 L 5916.94,4264.7 L 5795.3,4115.66 Z " />
<path stroke="none" fill="#000000" transform="matrix(0.0833333 0 0 0.0833333 -210.4 -312.75)" d="M 5945.09,4270.86 L 5954.8,4274.6 L 5953.62,4280.25 L 5805.79,4298.9 L 5808.01,4287.35 L 5945.09,4270.86 Z " />
<path stroke="none" fill="#000000" transform="matrix(0.0833333 0 0 0.0833333 -210.4 -312.75)" d="M 5808.01,4287.35 L 5805.79,4298.9 L 5511.5,4139.41 L 5518.77,4130.6 L 5808.01,4287.35 Z " />
<path stroke="none" fill="#000000" transform="matrix(0.0833333 0 0 0.0833333 -210.4 -312.75)" d="M 5811.8,4275.7 L 5806.47,4285.55 L 5520.32,4130.51 L 5525.66,4120.66 L 5811.8,4275.7 Z " />
<path stroke="none" fill="#000000" transform="matrix(0.0833333 0 0 0.0833333 -210.4 -312.75)" d="M 5518.77,4130.6 L 5511.5,4139.41 L 5367.83,3963.2 L 5371.4,3958.8 L 5381.11,3962.54 L 5518.77,4130.6 Z " />
<text x="0" y="0" stroke="none" fill="#000000" transform="matrix(0.0833333 0 0 0.0833333 112.81 60.2583)" font-style="normal" font-weight="normal" font-size="111px" font-family="Arial" >
N</text>
<path stroke="none" fill="#000000" transform="matrix(0.0833333 0 0 0.0833333 -210.4 -312.75)" d="M 4205.22,4270.22 L 4208.8,4274.6 L 4209.93,4280.28 L 3978.94,4406.12 L 3973.58,4396.29 L 4205.22,4270.22 Z " />
<text x="0" y="0" stroke="none" fill="#000000" transform="matrix(0.0833333 0 0 0.0833333 306.793 60.2583)" font-style="normal" font-weight="normal" font-size="111px" font-family="Arial" >
N</text>
<path stroke="none" fill="#000000" transform="matrix(0.0833333 0 0 0.0833333 -210.4 -312.75)" d="M 5953.62,4280.25 L 5954.8,4274.6 L 5958.39,4270.23 L 6191.24,4396.35 L 6185.91,4406.19 L 5953.62,4280.25 Z " />
<path stroke="none" fill="#000000" transform="matrix(0.0833333 0 0 0.0833333 -210.4 -312.75)" d="M 3866.17,4487.36 L 3874.81,4494.49 L 3786.55,4601.61 L 3776.62,4596.07 L 3866.17,4487.36 L 3866.17,4487.36 Z " />
<path stroke="none" fill="#000000" transform="matrix(0.0833333 0 0 0.0833333 -210.4 -312.75)" d="M 3897.27,4513.01 L 3905.91,4520.13 L 3822.27,4621.54 L 3812.33,4615.99 L 3897.27,4513.01 L 3897.27,4513.01 Z " />
<path stroke="none" fill="#000000" transform="matrix(0.0833333 0 0 0.0833333 -210.4 -312.75)" d="M 6289.77,4494.68 L 6298.45,4487.61 L 6393.48,4604.35 L 6386.25,4613.18 L 6289.77,4494.68 L 6289.77,4494.68 Z " />
<path stroke="none" fill="#000000" transform="matrix(0.0833333 0 0 0.0833333 -210.4 -312.75)" d="M 6321.02,4469.21 L 6329.71,4462.14 L 6420.55,4573.61 L 6411.87,4580.68 L 6321.02,4469.21 L 6321.02,4469.21 Z " />
<path stroke="none" fill="#000000" transform="matrix(0.0833333 0 0 0.0833333 -210.4 -312.75)" d="M 6386.25,4613.18 L 6393.48,4604.35 L 6423.33,4620.52 L 6415.23,4628.87 L 6386.25,4613.18 L 6386.25,4613.18 Z " />
<path stroke="none" fill="#000000" transform="matrix(0.0833333 0 0 0.0833333 -210.4 -312.75)" d="M 6683.17,4761.23 L 6681.8,4766.8 L 6678.23,4771.2 L 6504.35,4677.1 L 6515.88,4670.63 L 6683.17,4761.23 L 6683.17,4761.23 Z " />
<path stroke="none" fill="#000000" transform="matrix(0.0833333 0 0 0.0833333 -210.4 -312.75)" d="M 3484.16,4774.2 L 3480.6,4769.8 L 3479.27,4764.2 L 3724.1,4630.89 L 3735.66,4637.34 L 3484.16,4774.2 L 3484.16,4774.2 Z " />
<text x="0" y="0" stroke="none" fill="#000000" transform="matrix(0.0833333 0 0 0.0833333 64.4262 86.575)" font-style="normal" font-weight="normal" font-size="111px" font-family="Arial" >
N</text>
<path stroke="none" fill="#000000" transform="matrix(0.0833333 0 0 0.0833333 -210.4 -312.75)" d="M 3471.25,4772.97 L 3480.6,4769.8 L 3484.16,4774.2 L 3336.48,4953.41 L 3329.24,4944.6 L 3471.25,4772.97 Z " />
<path stroke="none" fill="#000000" transform="matrix(0.0833333 0 0 0.0833333 -210.4 -312.75)" d="M 3443.84,4778.67 L 3452.48,4785.8 L 3326.03,4939.12 L 3317.39,4931.99 L 3443.84,4778.67 Z " />
<path stroke="none" fill="#000000" transform="matrix(0.0833333 0 0 0.0833333 -210.4 -312.75)" d="M 3329.24,4944.6 L 3336.48,4953.41 L 3043.33,5112.95 L 3041.24,5101.32 L 3329.24,4944.6 Z " />
<path stroke="none" fill="#000000" transform="matrix(0.0833333 0 0 0.0833333 -210.4 -312.75)" d="M 3041.24,5101.32 L 3043.33,5112.95 L 2888.13,5090.35 L 2909.61,5082.09 L 3041.24,5101.32 Z " />
<path stroke="none" fill="#000000" transform="matrix(0.0833333 0 0 0.0833333 -210.4 -312.75)" d="M 3038.18,5072.8 L 3036.51,5083.87 L 2951.47,5071.09 L 2953.13,5060.02 L 3038.18,5072.8 Z " />
<path stroke="none" fill="#000000" transform="matrix(0.0833333 0 0 0.0833333 -210.4 -312.75)" d="M 2909.61,5082.09 L 2888.13,5090.35 L 3038.51,4909.5 L 3047.8,4906.4 L 3051.38,4910.77 L 2909.61,5082.09 Z " />
<path stroke="none" fill="#000000" transform="matrix(0.0833333 0 0 0.0833333 -210.4 -312.75)" d="M 3051.38,4910.77 L 3047.8,4906.4 L 3046.46,4900.82 L 3273.48,4777.15 L 3278.83,4786.99 L 3051.38,4910.77 Z " />
<path stroke="none" fill="#000000" transform="matrix(0.0833333 0 0 0.0833333 -210.4 -312.75)" d="M 3058.33,4920.83 L 3052.97,4911 L 3279.27,4787.79 L 3284.62,4797.63 L 3058.33,4920.83 Z " />
<path stroke="none" fill="#000000" transform="matrix(0.0833333 0 0 0.0833333 -210.4 -312.75)" d="M 3389.56,4761.8 L 3391.22,4750.72 L 3479.27,4764.2 L 3480.6,4769.8 L 3471.25,4772.97 L 3389.56,4761.8 Z " />
<text x="0" y="0" stroke="none" fill="#000000" transform="matrix(0.0833333 0 0 0.0833333 355.393 86.575)" font-style="normal" font-weight="normal" font-size="111px" font-family="Arial" >
N</text>
<path stroke="none" fill="#000000" transform="matrix(0.0833333 0 0 0.0833333 -210.4 -312.75)" d="M 6691.25,4770.21 L 6681.8,4766.8 L 6683.17,4761.23 L 6776.07,4749.42 L 6777.46,4760.53 L 6691.25,4770.21 Z " />
<path stroke="none" fill="#000000" transform="matrix(0.0833333 0 0 0.0833333 -210.4 -312.75)" d="M 6732.14,4792.29 L 6730.75,4781.18 L 6779.28,4775.14 L 6780.66,4786.25 L 6732.14,4792.29 Z " />
<path stroke="none" fill="#000000" transform="matrix(0.0833333 0 0 0.0833333 -210.4 -312.75)" d="M 6888.68,4786.76 L 6894.02,4776.91 L 7122.77,4900.84 L 7121.4,4906.4 L 7117.81,4910.77 L 6888.68,4786.76 Z " />
<path stroke="none" fill="#000000" transform="matrix(0.0833333 0 0 0.0833333 -210.4 -312.75)" d="M 7117.81,4910.77 L 7121.4,4906.4 L 7130.81,4909.75 L 7277.03,5087.6 L 7255.3,5078.86 L 7117.81,4910.77 Z " />
<path stroke="none" fill="#000000" transform="matrix(0.0833333 0 0 0.0833333 -210.4 -312.75)" d="M 7105.68,4923.68 L 7114.36,4916.6 L 7235.79,5065.6 L 7227.11,5072.67 L 7105.68,4923.68 Z " />
<path stroke="none" fill="#000000" transform="matrix(0.0833333 0 0 0.0833333 -210.4 -312.75)" d="M 7255.3,5078.86 L 7277.03,5087.6 L 7116,5106.9 L 7118.21,5095.35 L 7255.3,5078.86 Z " />
<path stroke="none" fill="#000000" transform="matrix(0.0833333 0 0 0.0833333 -210.4 -312.75)" d="M 7118.21,5095.35 L 7116,5106.9 L 6821.7,4947.61 L 6828.97,4938.8 L 7118.21,5095.35 Z " />
<path stroke="none" fill="#000000" transform="matrix(0.0833333 0 0 0.0833333 -210.4 -312.75)" d="M 7122,5083.69 L 7116.67,5093.54 L 6830.54,4938.7 L 6835.87,4928.85 L 7122,5083.69 Z " />
<path stroke="none" fill="#000000" transform="matrix(0.0833333 0 0 0.0833333 -210.4 -312.75)" d="M 6828.97,4938.8 L 6821.7,4947.61 L 6678.23,4771.2 L 6681.8,4766.8 L 6691.25,4770.21 L 6828.97,4938.8 Z " />
<text x="0" y="0" stroke="none" fill="#000000" transform="matrix(0.0833333 0 0 0.0833333 28.1021 97.9583)" font-style="normal" font-weight="normal" font-size="111px" font-family="Arial" >
O</text>
<path stroke="none" fill="#000000" transform="matrix(0.0833333 0 0 0.0833333 -210.4 -312.75)" d="M 3046.46,4900.82 L 3047.8,4906.4 L 3038.51,4909.5 L 2963.52,4899.41 L 2965.18,4888.34 L 3046.46,4900.82 Z " />
<path stroke="none" fill="#000000" transform="matrix(0.0833333 0 0 0.0833333 -210.4 -312.75)" d="M 2846.27,4910.71 L 2851.63,4920.54 L 2617.68,5047.92 L 2612.32,5038.08 L 2846.27,4910.71 Z " />
<text x="0" y="0" stroke="none" fill="#000000" transform="matrix(0.0833333 0 0 0.0833333 391.769 98.2083)" font-style="normal" font-weight="normal" font-size="111px" font-family="Arial" >
O</text>
<path stroke="none" fill="#000000" transform="matrix(0.0833333 0 0 0.0833333 -210.4 -312.75)" d="M 7130.81,4909.75 L 7121.4,4906.4 L 7122.77,4900.84 L 7209.68,4889.77 L 7211.06,4900.88 L 7130.81,4909.75 Z " />
<path stroke="none" fill="#000000" transform="matrix(0.0833333 0 0 0.0833333 -210.4 -312.75)" d="M 7323.12,4923.56 L 7328.45,4913.72 L 7563.67,5041.08 L 7558.33,5050.92 L 7323.12,4923.56 Z " />
<path stroke="none" fill="#000000" transform="matrix(0.0833333 0 0 0.0833333 -210.4 -312.75)" d="M 4303.03,6975 L 4311.4,6971.2 L 4315.42,6975.33 L 4148.25,7264.98 L 4138.55,7259.38 L 4303.03,6975 Z " />
<path stroke="none" fill="#000000" transform="matrix(0.0833333 0 0 0.0833333 -210.4 -312.75)" d="M 4396.64,7664.9 L 4392.6,7669 L 4383.34,7663.53 L 4219.75,7380.82 L 4229.45,7375.22 L 4396.64,7664.9 Z " />
<path stroke="none" fill="#000000" transform="matrix(0.0833333 0 0 0.0833333 -210.4 -312.75)" d="M 4367.95,7808.38 L 4379.4,7813.6 L 4377.96,7819.15 L 4043.4,7819.2 L 4043.4,7808 L 4367.95,7808.38 Z " />
<path stroke="none" fill="#000000" transform="matrix(0.0833333 0 0 0.0833333 -210.4 -312.75)" d="M 4314.72,6765.38 L 4316.8,6770.6 L 4303.14,6779.52 L 3993.7,6862.97 L 3990.8,6852.15 L 4314.72,6765.38 Z " />
<path stroke="none" fill="#000000" transform="matrix(0.0833333 0 0 0.0833333 -210.4 -312.75)" d="M 5762.78,6972.33 L 5766.8,6968.2 L 5775.27,6972.19 L 5939.65,7256.38 L 5929.95,7261.98 L 5762.78,6972.33 Z " />
<path stroke="none" fill="#000000" transform="matrix(0.0833333 0 0 0.0833333 -210.4 -312.75)" d="M 5781.81,6778.84 L 5771,6773.6 L 5772.41,6768.05 L 6107,6768 L 6107,6779.2 L 5781.81,6778.84 Z " />
<path stroke="none" fill="#000000" transform="matrix(0.0833333 0 0 0.0833333 -210.4 -312.75)" d="M 5858.75,7661.77 L 5846.2,7667 L 5842.8,7662.52 L 6079.83,7425.45 L 6087.75,7433.37 L 5858.75,7661.77 Z " />
<path stroke="none" fill="#000000" transform="matrix(0.0833333 0 0 0.0833333 -210.4 -312.75)" d="M 5836.92,7820.61 L 5834.8,7815.4 L 5850.42,7806.02 L 6157.9,7723.03 L 6160.8,7733.85 L 5836.92,7820.61 Z " />
</svg>
