<?xml version="1.0" encoding="utf-8" standalone="no"?>
<!DOCTYPE svg PUBLIC "-//W3C//DTD SVG 1.1//EN"
  "http://www.w3.org/Graphics/SVG/1.1/DTD/svg11.dtd">
<svg xmlns:xlink="http://www.w3.org/1999/xlink" width="1188pt" height="252pt" viewBox="0 0 1188 252" xmlns="http://www.w3.org/2000/svg" version="1.1">
 <metadata>
  <rdf:RDF xmlns:dc="http://purl.org/dc/elements/1.1/" xmlns:cc="http://creativecommons.org/ns#" xmlns:rdf="http://www.w3.org/1999/02/22-rdf-syntax-ns#">
   <cc:Work>
    <dc:type rdf:resource="http://purl.org/dc/dcmitype/StillImage"/>
    <dc:date>2024-07-23T21:45:31.157333</dc:date>
    <dc:format>image/svg+xml</dc:format>
    <dc:creator>
     <cc:Agent>
      <dc:title>Matplotlib v3.8.4, https://matplotlib.org/</dc:title>
     </cc:Agent>
    </dc:creator>
   </cc:Work>
  </rdf:RDF>
 </metadata>
 <defs>
  <style type="text/css">*{stroke-linejoin: round; stroke-linecap: butt}</style>
 </defs>
 <g id="figure_1">
  <g id="patch_1">
   <path d="M 0 252 
L 1188 252 
L 1188 0 
L 0 0 
z
" style="fill: #ffffff"/>
  </g>
  <g id="axes_1">
   <g id="patch_2">
    <path d="M 3.00024 198.907885 
L 1184.99976 198.907885 
L 1184.99976 3.00024 
L 3.00024 3.00024 
z
" style="fill: #ffffff"/>
   </g>
   <g id="matplotlib.axis_1">
    <g id="xtick_1">
     <g id="line2d_1">
      <defs>
       <path id="mc041ec6963" d="M 0 0 
L 0 8 
" style="stroke: #000000; stroke-width: 2"/>
      </defs>
      <g>
       <use xlink:href="#mc041ec6963" x="1131.272509" y="198.907885" style="stroke: #000000; stroke-width: 2"/>
      </g>
     </g>
     <g id="text_1">
      <!-- 0 -->
      <g transform="translate(1126.267665 224.791947) scale(0.18 -0.18)">
       <defs>
        <path id="Arial-BoldMT-30" d="M 1756 4600 
Q 2422 4600 2797 4125 
Q 3244 3563 3244 2259 
Q 3244 959 2794 391 
Q 2422 -78 1756 -78 
Q 1088 -78 678 436 
Q 269 950 269 2269 
Q 269 3563 719 4131 
Q 1091 4600 1756 4600 
z
M 1756 3872 
Q 1597 3872 1472 3770 
Q 1347 3669 1278 3406 
Q 1188 3066 1188 2259 
Q 1188 1453 1269 1151 
Q 1350 850 1473 750 
Q 1597 650 1756 650 
Q 1916 650 2041 751 
Q 2166 853 2234 1116 
Q 2325 1453 2325 2259 
Q 2325 3066 2244 3367 
Q 2163 3669 2039 3770 
Q 1916 3872 1756 3872 
z
" transform="scale(0.015625)"/>
       </defs>
       <use xlink:href="#Arial-BoldMT-30"/>
      </g>
     </g>
    </g>
    <g id="xtick_2">
     <g id="line2d_2">
      <g>
       <use xlink:href="#mc041ec6963" x="1023.818007" y="198.907885" style="stroke: #000000; stroke-width: 2"/>
      </g>
     </g>
     <g id="text_2">
      <!-- 1 -->
      <g transform="translate(1018.813164 224.791947) scale(0.18 -0.18)">
       <defs>
        <path id="Arial-BoldMT-31" d="M 2519 0 
L 1641 0 
L 1641 3309 
Q 1159 2859 506 2644 
L 506 3441 
Q 850 3553 1253 3867 
Q 1656 4181 1806 4600 
L 2519 4600 
L 2519 0 
z
" transform="scale(0.015625)"/>
       </defs>
       <use xlink:href="#Arial-BoldMT-31"/>
      </g>
     </g>
    </g>
    <g id="xtick_3">
     <g id="line2d_3">
      <g>
       <use xlink:href="#mc041ec6963" x="916.363505" y="198.907885" style="stroke: #000000; stroke-width: 2"/>
      </g>
     </g>
     <g id="text_3">
      <!-- 2 -->
      <g transform="translate(911.358662 224.791947) scale(0.18 -0.18)">
       <defs>
        <path id="Arial-BoldMT-32" d="M 3238 816 
L 3238 0 
L 159 0 
Q 209 463 459 877 
Q 709 1291 1447 1975 
Q 2041 2528 2175 2725 
Q 2356 2997 2356 3263 
Q 2356 3556 2198 3714 
Q 2041 3872 1763 3872 
Q 1488 3872 1325 3706 
Q 1163 3541 1138 3156 
L 263 3244 
Q 341 3969 753 4284 
Q 1166 4600 1784 4600 
Q 2463 4600 2850 4234 
Q 3238 3869 3238 3325 
Q 3238 3016 3127 2736 
Q 3016 2456 2775 2150 
Q 2616 1947 2200 1565 
Q 1784 1184 1673 1059 
Q 1563 934 1494 816 
L 3238 816 
z
" transform="scale(0.015625)"/>
       </defs>
       <use xlink:href="#Arial-BoldMT-32"/>
      </g>
     </g>
    </g>
    <g id="xtick_4">
     <g id="line2d_4">
      <g>
       <use xlink:href="#mc041ec6963" x="808.909004" y="198.907885" style="stroke: #000000; stroke-width: 2"/>
      </g>
     </g>
     <g id="text_4">
      <!-- 3 -->
      <g transform="translate(803.90416 224.791947) scale(0.18 -0.18)">
       <defs>
        <path id="Arial-BoldMT-33" d="M 241 1216 
L 1091 1319 
Q 1131 994 1309 822 
Q 1488 650 1741 650 
Q 2013 650 2198 856 
Q 2384 1063 2384 1413 
Q 2384 1744 2206 1937 
Q 2028 2131 1772 2131 
Q 1603 2131 1369 2066 
L 1466 2781 
Q 1822 2772 2009 2936 
Q 2197 3100 2197 3372 
Q 2197 3603 2059 3740 
Q 1922 3878 1694 3878 
Q 1469 3878 1309 3722 
Q 1150 3566 1116 3266 
L 306 3403 
Q 391 3819 561 4067 
Q 731 4316 1036 4458 
Q 1341 4600 1719 4600 
Q 2366 4600 2756 4188 
Q 3078 3850 3078 3425 
Q 3078 2822 2419 2463 
Q 2813 2378 3048 2084 
Q 3284 1791 3284 1375 
Q 3284 772 2843 347 
Q 2403 -78 1747 -78 
Q 1125 -78 715 280 
Q 306 638 241 1216 
z
" transform="scale(0.015625)"/>
       </defs>
       <use xlink:href="#Arial-BoldMT-33"/>
      </g>
     </g>
    </g>
    <g id="xtick_5">
     <g id="line2d_5">
      <g>
       <use xlink:href="#mc041ec6963" x="701.454502" y="198.907885" style="stroke: #000000; stroke-width: 2"/>
      </g>
     </g>
     <g id="text_5">
      <!-- 4 -->
      <g transform="translate(696.449658 224.791947) scale(0.18 -0.18)">
       <defs>
        <path id="Arial-BoldMT-34" d="M 1994 0 
L 1994 922 
L 119 922 
L 119 1691 
L 2106 4600 
L 2844 4600 
L 2844 1694 
L 3413 1694 
L 3413 922 
L 2844 922 
L 2844 0 
L 1994 0 
z
M 1994 1694 
L 1994 3259 
L 941 1694 
L 1994 1694 
z
" transform="scale(0.015625)"/>
       </defs>
       <use xlink:href="#Arial-BoldMT-34"/>
      </g>
     </g>
    </g>
    <g id="xtick_6">
     <g id="line2d_6">
      <g>
       <use xlink:href="#mc041ec6963" x="594" y="198.907885" style="stroke: #000000; stroke-width: 2"/>
      </g>
     </g>
     <g id="text_6">
      <!-- 5 -->
      <g transform="translate(588.995156 224.791947) scale(0.18 -0.18)">
       <defs>
        <path id="Arial-BoldMT-35" d="M 284 1178 
L 1159 1269 
Q 1197 972 1381 798 
Q 1566 625 1806 625 
Q 2081 625 2272 848 
Q 2463 1072 2463 1522 
Q 2463 1944 2273 2155 
Q 2084 2366 1781 2366 
Q 1403 2366 1103 2031 
L 391 2134 
L 841 4519 
L 3163 4519 
L 3163 3697 
L 1506 3697 
L 1369 2919 
Q 1663 3066 1969 3066 
Q 2553 3066 2959 2641 
Q 3366 2216 3366 1538 
Q 3366 972 3038 528 
Q 2591 -78 1797 -78 
Q 1163 -78 763 262 
Q 363 603 284 1178 
z
" transform="scale(0.015625)"/>
       </defs>
       <use xlink:href="#Arial-BoldMT-35"/>
      </g>
     </g>
    </g>
    <g id="xtick_7">
     <g id="line2d_7">
      <g>
       <use xlink:href="#mc041ec6963" x="486.545498" y="198.907885" style="stroke: #000000; stroke-width: 2"/>
      </g>
     </g>
     <g id="text_7">
      <!-- 6 -->
      <g transform="translate(481.540654 224.791947) scale(0.18 -0.18)">
       <defs>
        <path id="Arial-BoldMT-36" d="M 3247 3459 
L 2397 3366 
Q 2366 3628 2234 3753 
Q 2103 3878 1894 3878 
Q 1616 3878 1423 3628 
Q 1231 3378 1181 2588 
Q 1509 2975 1997 2975 
Q 2547 2975 2939 2556 
Q 3331 2138 3331 1475 
Q 3331 772 2918 347 
Q 2506 -78 1859 -78 
Q 1166 -78 719 461 
Q 272 1000 272 2228 
Q 272 3488 737 4044 
Q 1203 4600 1947 4600 
Q 2469 4600 2811 4308 
Q 3153 4016 3247 3459 
z
M 1256 1544 
Q 1256 1116 1453 883 
Q 1650 650 1903 650 
Q 2147 650 2309 840 
Q 2472 1031 2472 1466 
Q 2472 1913 2297 2120 
Q 2122 2328 1859 2328 
Q 1606 2328 1431 2129 
Q 1256 1931 1256 1544 
z
" transform="scale(0.015625)"/>
       </defs>
       <use xlink:href="#Arial-BoldMT-36"/>
      </g>
     </g>
    </g>
    <g id="xtick_8">
     <g id="line2d_8">
      <g>
       <use xlink:href="#mc041ec6963" x="379.090996" y="198.907885" style="stroke: #000000; stroke-width: 2"/>
      </g>
     </g>
     <g id="text_8">
      <!-- 7 -->
      <g transform="translate(374.086153 224.791947) scale(0.18 -0.18)">
       <defs>
        <path id="Arial-BoldMT-37" d="M 272 3703 
L 272 4519 
L 3275 4519 
L 3275 3881 
Q 2903 3516 2518 2831 
Q 2134 2147 1932 1376 
Q 1731 606 1734 0 
L 888 0 
Q 909 950 1279 1937 
Q 1650 2925 2269 3703 
L 272 3703 
z
" transform="scale(0.015625)"/>
       </defs>
       <use xlink:href="#Arial-BoldMT-37"/>
      </g>
     </g>
    </g>
    <g id="xtick_9">
     <g id="line2d_9">
      <g>
       <use xlink:href="#mc041ec6963" x="271.636495" y="198.907885" style="stroke: #000000; stroke-width: 2"/>
      </g>
     </g>
     <g id="text_9">
      <!-- 8 -->
      <g transform="translate(266.631651 224.791947) scale(0.18 -0.18)">
       <defs>
        <path id="Arial-BoldMT-38" d="M 1025 2472 
Q 684 2616 529 2867 
Q 375 3119 375 3419 
Q 375 3931 733 4265 
Q 1091 4600 1750 4600 
Q 2403 4600 2764 4265 
Q 3125 3931 3125 3419 
Q 3125 3100 2959 2851 
Q 2794 2603 2494 2472 
Q 2875 2319 3073 2025 
Q 3272 1731 3272 1347 
Q 3272 713 2867 316 
Q 2463 -81 1791 -81 
Q 1166 -81 750 247 
Q 259 634 259 1309 
Q 259 1681 443 1992 
Q 628 2303 1025 2472 
z
M 1206 3356 
Q 1206 3094 1354 2947 
Q 1503 2800 1750 2800 
Q 2000 2800 2150 2948 
Q 2300 3097 2300 3359 
Q 2300 3606 2151 3754 
Q 2003 3903 1759 3903 
Q 1506 3903 1356 3753 
Q 1206 3603 1206 3356 
z
M 1125 1394 
Q 1125 1031 1311 828 
Q 1497 625 1775 625 
Q 2047 625 2225 820 
Q 2403 1016 2403 1384 
Q 2403 1706 2222 1901 
Q 2041 2097 1763 2097 
Q 1441 2097 1283 1875 
Q 1125 1653 1125 1394 
z
" transform="scale(0.015625)"/>
       </defs>
       <use xlink:href="#Arial-BoldMT-38"/>
      </g>
     </g>
    </g>
    <g id="xtick_10">
     <g id="line2d_10">
      <g>
       <use xlink:href="#mc041ec6963" x="164.181993" y="198.907885" style="stroke: #000000; stroke-width: 2"/>
      </g>
     </g>
     <g id="text_10">
      <!-- 9 -->
      <g transform="translate(159.177149 224.791947) scale(0.18 -0.18)">
       <defs>
        <path id="Arial-BoldMT-39" d="M 291 1059 
L 1141 1153 
Q 1172 894 1303 769 
Q 1434 644 1650 644 
Q 1922 644 2112 894 
Q 2303 1144 2356 1931 
Q 2025 1547 1528 1547 
Q 988 1547 595 1964 
Q 203 2381 203 3050 
Q 203 3747 617 4173 
Q 1031 4600 1672 4600 
Q 2369 4600 2816 4061 
Q 3263 3522 3263 2288 
Q 3263 1031 2797 475 
Q 2331 -81 1584 -81 
Q 1047 -81 715 205 
Q 384 491 291 1059 
z
M 2278 2978 
Q 2278 3403 2083 3637 
Q 1888 3872 1631 3872 
Q 1388 3872 1227 3680 
Q 1066 3488 1066 3050 
Q 1066 2606 1241 2398 
Q 1416 2191 1678 2191 
Q 1931 2191 2104 2391 
Q 2278 2591 2278 2978 
z
" transform="scale(0.015625)"/>
       </defs>
       <use xlink:href="#Arial-BoldMT-39"/>
      </g>
     </g>
    </g>
    <g id="xtick_11">
     <g id="line2d_11">
      <g>
       <use xlink:href="#mc041ec6963" x="56.727491" y="198.907885" style="stroke: #000000; stroke-width: 2"/>
      </g>
     </g>
     <g id="text_11">
      <!-- 10 -->
      <g transform="translate(46.717803 224.791947) scale(0.18 -0.18)">
       <use xlink:href="#Arial-BoldMT-31"/>
       <use xlink:href="#Arial-BoldMT-30" x="55.615234"/>
      </g>
     </g>
    </g>
    <g id="text_12">
     <!-- Chemical Shift / ppm -->
     <g transform="translate(504.992813 245.447573) scale(0.18 -0.18)">
      <defs>
       <path id="Arial-BoldMT-43" d="M 3397 1684 
L 4294 1400 
Q 4088 650 3608 286 
Q 3128 -78 2391 -78 
Q 1478 -78 890 545 
Q 303 1169 303 2250 
Q 303 3394 893 4026 
Q 1484 4659 2447 4659 
Q 3288 4659 3813 4163 
Q 4125 3869 4281 3319 
L 3366 3100 
Q 3284 3456 3026 3662 
Q 2769 3869 2400 3869 
Q 1891 3869 1573 3503 
Q 1256 3138 1256 2319 
Q 1256 1450 1568 1081 
Q 1881 713 2381 713 
Q 2750 713 3015 947 
Q 3281 1181 3397 1684 
z
" transform="scale(0.015625)"/>
       <path id="Arial-BoldMT-68" d="M 1334 4581 
L 1334 2897 
Q 1759 3394 2350 3394 
Q 2653 3394 2897 3281 
Q 3141 3169 3264 2994 
Q 3388 2819 3433 2606 
Q 3478 2394 3478 1947 
L 3478 0 
L 2600 0 
L 2600 1753 
Q 2600 2275 2550 2415 
Q 2500 2556 2373 2639 
Q 2247 2722 2056 2722 
Q 1838 2722 1666 2615 
Q 1494 2509 1414 2295 
Q 1334 2081 1334 1663 
L 1334 0 
L 456 0 
L 456 4581 
L 1334 4581 
z
" transform="scale(0.015625)"/>
       <path id="Arial-BoldMT-65" d="M 2381 1056 
L 3256 909 
Q 3088 428 2723 176 
Q 2359 -75 1813 -75 
Q 947 -75 531 491 
Q 203 944 203 1634 
Q 203 2459 634 2926 
Q 1066 3394 1725 3394 
Q 2466 3394 2894 2905 
Q 3322 2416 3303 1406 
L 1103 1406 
Q 1113 1016 1316 798 
Q 1519 581 1822 581 
Q 2028 581 2168 693 
Q 2309 806 2381 1056 
z
M 2431 1944 
Q 2422 2325 2234 2523 
Q 2047 2722 1778 2722 
Q 1491 2722 1303 2513 
Q 1116 2303 1119 1944 
L 2431 1944 
z
" transform="scale(0.015625)"/>
       <path id="Arial-BoldMT-6d" d="M 394 3319 
L 1203 3319 
L 1203 2866 
Q 1638 3394 2238 3394 
Q 2556 3394 2790 3262 
Q 3025 3131 3175 2866 
Q 3394 3131 3647 3262 
Q 3900 3394 4188 3394 
Q 4553 3394 4806 3245 
Q 5059 3097 5184 2809 
Q 5275 2597 5275 2122 
L 5275 0 
L 4397 0 
L 4397 1897 
Q 4397 2391 4306 2534 
Q 4184 2722 3931 2722 
Q 3747 2722 3584 2609 
Q 3422 2497 3350 2280 
Q 3278 2063 3278 1594 
L 3278 0 
L 2400 0 
L 2400 1819 
Q 2400 2303 2353 2443 
Q 2306 2584 2207 2653 
Q 2109 2722 1941 2722 
Q 1738 2722 1575 2612 
Q 1413 2503 1342 2297 
Q 1272 2091 1272 1613 
L 1272 0 
L 394 0 
L 394 3319 
z
" transform="scale(0.015625)"/>
       <path id="Arial-BoldMT-69" d="M 459 3769 
L 459 4581 
L 1338 4581 
L 1338 3769 
L 459 3769 
z
M 459 0 
L 459 3319 
L 1338 3319 
L 1338 0 
L 459 0 
z
" transform="scale(0.015625)"/>
       <path id="Arial-BoldMT-63" d="M 3353 2338 
L 2488 2181 
Q 2444 2441 2289 2572 
Q 2134 2703 1888 2703 
Q 1559 2703 1364 2476 
Q 1169 2250 1169 1719 
Q 1169 1128 1367 884 
Q 1566 641 1900 641 
Q 2150 641 2309 783 
Q 2469 925 2534 1272 
L 3397 1125 
Q 3263 531 2881 228 
Q 2500 -75 1859 -75 
Q 1131 -75 698 384 
Q 266 844 266 1656 
Q 266 2478 700 2936 
Q 1134 3394 1875 3394 
Q 2481 3394 2839 3133 
Q 3197 2872 3353 2338 
z
" transform="scale(0.015625)"/>
       <path id="Arial-BoldMT-61" d="M 1116 2306 
L 319 2450 
Q 453 2931 781 3162 
Q 1109 3394 1756 3394 
Q 2344 3394 2631 3255 
Q 2919 3116 3036 2902 
Q 3153 2688 3153 2116 
L 3144 1091 
Q 3144 653 3186 445 
Q 3228 238 3344 0 
L 2475 0 
Q 2441 88 2391 259 
Q 2369 338 2359 363 
Q 2134 144 1878 34 
Q 1622 -75 1331 -75 
Q 819 -75 523 203 
Q 228 481 228 906 
Q 228 1188 362 1408 
Q 497 1628 739 1745 
Q 981 1863 1438 1950 
Q 2053 2066 2291 2166 
L 2291 2253 
Q 2291 2506 2166 2614 
Q 2041 2722 1694 2722 
Q 1459 2722 1328 2630 
Q 1197 2538 1116 2306 
z
M 2291 1594 
Q 2122 1538 1756 1459 
Q 1391 1381 1278 1306 
Q 1106 1184 1106 997 
Q 1106 813 1243 678 
Q 1381 544 1594 544 
Q 1831 544 2047 700 
Q 2206 819 2256 991 
Q 2291 1103 2291 1419 
L 2291 1594 
z
" transform="scale(0.015625)"/>
       <path id="Arial-BoldMT-6c" d="M 459 0 
L 459 4581 
L 1338 4581 
L 1338 0 
L 459 0 
z
" transform="scale(0.015625)"/>
       <path id="Arial-BoldMT-20" transform="scale(0.015625)"/>
       <path id="Arial-BoldMT-53" d="M 231 1491 
L 1131 1578 
Q 1213 1125 1461 912 
Q 1709 700 2131 700 
Q 2578 700 2804 889 
Q 3031 1078 3031 1331 
Q 3031 1494 2936 1608 
Q 2841 1722 2603 1806 
Q 2441 1863 1863 2006 
Q 1119 2191 819 2459 
Q 397 2838 397 3381 
Q 397 3731 595 4036 
Q 794 4341 1167 4500 
Q 1541 4659 2069 4659 
Q 2931 4659 3367 4281 
Q 3803 3903 3825 3272 
L 2900 3231 
Q 2841 3584 2645 3739 
Q 2450 3894 2059 3894 
Q 1656 3894 1428 3728 
Q 1281 3622 1281 3444 
Q 1281 3281 1419 3166 
Q 1594 3019 2269 2859 
Q 2944 2700 3267 2529 
Q 3591 2359 3773 2064 
Q 3956 1769 3956 1334 
Q 3956 941 3737 597 
Q 3519 253 3119 86 
Q 2719 -81 2122 -81 
Q 1253 -81 787 320 
Q 322 722 231 1491 
z
" transform="scale(0.015625)"/>
       <path id="Arial-BoldMT-66" d="M 75 3319 
L 563 3319 
L 563 3569 
Q 563 3988 652 4194 
Q 741 4400 980 4529 
Q 1219 4659 1584 4659 
Q 1959 4659 2319 4547 
L 2200 3934 
Q 1991 3984 1797 3984 
Q 1606 3984 1523 3895 
Q 1441 3806 1441 3553 
L 1441 3319 
L 2097 3319 
L 2097 2628 
L 1441 2628 
L 1441 0 
L 563 0 
L 563 2628 
L 75 2628 
L 75 3319 
z
" transform="scale(0.015625)"/>
       <path id="Arial-BoldMT-74" d="M 1981 3319 
L 1981 2619 
L 1381 2619 
L 1381 1281 
Q 1381 875 1398 808 
Q 1416 741 1477 697 
Q 1538 653 1625 653 
Q 1747 653 1978 738 
L 2053 56 
Q 1747 -75 1359 -75 
Q 1122 -75 931 4 
Q 741 84 652 211 
Q 563 338 528 553 
Q 500 706 500 1172 
L 500 2619 
L 97 2619 
L 97 3319 
L 500 3319 
L 500 3978 
L 1381 4491 
L 1381 3319 
L 1981 3319 
z
" transform="scale(0.015625)"/>
       <path id="Arial-BoldMT-2f" d="M -9 -78 
L 1125 4659 
L 1784 4659 
L 638 -78 
L -9 -78 
z
" transform="scale(0.015625)"/>
       <path id="Arial-BoldMT-70" d="M 434 3319 
L 1253 3319 
L 1253 2831 
Q 1413 3081 1684 3237 
Q 1956 3394 2288 3394 
Q 2866 3394 3269 2941 
Q 3672 2488 3672 1678 
Q 3672 847 3265 386 
Q 2859 -75 2281 -75 
Q 2006 -75 1782 34 
Q 1559 144 1313 409 
L 1313 -1263 
L 434 -1263 
L 434 3319 
z
M 1303 1716 
Q 1303 1156 1525 889 
Q 1747 622 2066 622 
Q 2372 622 2575 867 
Q 2778 1113 2778 1672 
Q 2778 2194 2568 2447 
Q 2359 2700 2050 2700 
Q 1728 2700 1515 2451 
Q 1303 2203 1303 1716 
z
" transform="scale(0.015625)"/>
      </defs>
      <use xlink:href="#Arial-BoldMT-43"/>
      <use xlink:href="#Arial-BoldMT-68" x="72.216797"/>
      <use xlink:href="#Arial-BoldMT-65" x="133.300781"/>
      <use xlink:href="#Arial-BoldMT-6d" x="188.916016"/>
      <use xlink:href="#Arial-BoldMT-69" x="277.832031"/>
      <use xlink:href="#Arial-BoldMT-63" x="305.615234"/>
      <use xlink:href="#Arial-BoldMT-61" x="361.230469"/>
      <use xlink:href="#Arial-BoldMT-6c" x="416.845703"/>
      <use xlink:href="#Arial-BoldMT-20" x="444.628906"/>
      <use xlink:href="#Arial-BoldMT-53" x="472.412109"/>
      <use xlink:href="#Arial-BoldMT-68" x="539.111328"/>
      <use xlink:href="#Arial-BoldMT-69" x="600.195312"/>
      <use xlink:href="#Arial-BoldMT-66" x="627.978516"/>
      <use xlink:href="#Arial-BoldMT-74" x="661.279297"/>
      <use xlink:href="#Arial-BoldMT-20" x="694.580078"/>
      <use xlink:href="#Arial-BoldMT-2f" x="722.363281"/>
      <use xlink:href="#Arial-BoldMT-20" x="750.146484"/>
      <use xlink:href="#Arial-BoldMT-70" x="777.929688"/>
      <use xlink:href="#Arial-BoldMT-70" x="839.013672"/>
      <use xlink:href="#Arial-BoldMT-6d" x="900.097656"/>
     </g>
    </g>
   </g>
   <g id="matplotlib.axis_2"/>
   <g id="line2d_12">
    <path d="M 2.960102 189.532583 
L 3.573961 187.531745 
L 3.778581 187.383258 
L 4.18782 187.680307 
L 4.39244 187.837119 
L 4.59706 187.848309 
L 5.210919 187.32249 
L 5.415539 187.452969 
L 6.847877 189.657578 
L 7.257116 190.070828 
L 7.461736 190.089009 
L 8.280215 189.467812 
L 9.098694 189.837141 
L 9.507933 189.785365 
L 10.121792 189.409934 
L 11.55413 188.485785 
L 12.16799 188.621303 
L 12.372609 188.822531 
L 12.781849 189.868019 
L 13.395708 191.597869 
L 13.804947 192.33003 
L 14.623426 194.424885 
L 14.828046 194.440324 
L 15.032666 194.113237 
L 15.441905 192.591013 
L 16.465004 187.71993 
L 16.874243 186.484083 
L 17.078863 186.171546 
L 17.283483 186.159935 
L 17.488103 186.466124 
L 18.101962 187.894652 
L 18.306581 187.983902 
L 18.715821 187.79757 
L 18.920441 187.858981 
L 19.12506 188.12735 
L 19.5343 189.23042 
L 19.943539 190.359033 
L 20.352779 190.734291 
L 20.966638 191.243782 
L 21.171258 191.112907 
L 21.580497 189.916758 
L 22.398976 186.938315 
L 22.603596 186.668216 
L 22.808215 186.683804 
L 23.012835 186.982112 
L 23.422075 188.184043 
L 24.445173 191.593101 
L 24.649793 191.711649 
L 25.263652 191.544857 
L 25.468272 191.74811 
L 25.877511 192.49613 
L 26.082131 192.612899 
L 26.286751 192.414933 
L 26.90061 191.526108 
L 27.309849 190.988283 
L 27.719089 190.240041 
L 28.128328 189.919623 
L 28.742187 189.89828 
L 29.356047 189.766195 
L 29.560666 189.58473 
L 30.583765 187.970933 
L 30.788385 188.120458 
L 31.197624 188.924256 
L 31.811483 190.638247 
L 32.220723 191.739786 
L 32.425343 191.919793 
L 32.629962 191.847637 
L 33.039202 191.205641 
L 33.653061 190.121987 
L 34.26692 189.179459 
L 35.085399 187.464801 
L 35.494638 186.984385 
L 35.699258 186.938759 
L 35.903878 187.014498 
L 37.131596 188.197802 
L 37.336216 188.230632 
L 38.154695 187.913154 
L 38.563934 188.461354 
L 39.791653 190.781744 
L 40.405512 192.319235 
L 40.610132 192.349915 
L 40.814751 191.996816 
L 42.247089 187.703651 
L 42.860949 187.013435 
L 43.270188 186.899433 
L 43.679428 186.938043 
L 43.884047 187.052391 
L 44.293287 187.812515 
L 45.111766 189.712986 
L 45.521005 190.277292 
L 45.725625 190.233766 
L 46.134864 189.457166 
L 46.544104 188.782364 
L 46.748723 188.831177 
L 47.157963 189.649797 
L 47.771822 191.290173 
L 48.181062 191.789981 
L 49.20416 192.204046 
L 49.40878 192.25896 
L 49.6134 192.181987 
L 50.227259 191.464969 
L 50.841118 190.484498 
L 51.250357 189.882075 
L 51.454977 190.002006 
L 51.864217 190.740442 
L 52.068836 190.852814 
L 52.273456 190.688393 
L 52.682696 189.697152 
L 53.705794 186.408962 
L 53.910414 186.291279 
L 54.115034 186.533414 
L 54.728893 187.660397 
L 54.933513 187.662126 
L 55.547372 187.235981 
L 55.956611 186.781503 
L 56.365851 185.922148 
L 57.388949 182.726026 
L 57.593569 182.73319 
L 58.002808 182.981772 
L 58.207428 182.85737 
L 58.412048 182.416971 
L 58.821287 180.596883 
L 59.230527 176.857279 
L 60.049006 166.175426 
L 60.662865 155.14865 
L 61.481344 139.607646 
L 61.685963 138.130529 
L 61.890583 138.215777 
L 62.095203 139.659126 
L 62.504442 146.29521 
L 63.527541 170.226258 
L 64.1414 178.395757 
L 64.755259 184.158826 
L 65.164499 186.301457 
L 65.573738 187.709925 
L 65.982978 188.422102 
L 66.596837 188.974328 
L 67.006076 188.928629 
L 67.415316 188.539661 
L 67.824555 188.080218 
L 68.029175 187.946898 
L 68.233795 187.625912 
L 68.643034 186.097018 
L 69.052274 184.354595 
L 69.256893 183.85034 
L 69.461513 183.710647 
L 71.50771 185.087422 
L 72.12157 185.753405 
L 72.530809 186.804698 
L 72.940048 187.841195 
L 73.758527 188.884905 
L 73.963147 188.958667 
L 74.577006 188.725079 
L 74.986246 188.542996 
L 75.190865 188.247504 
L 75.804725 186.78422 
L 76.009344 186.629211 
L 76.418584 186.819742 
L 77.237063 187.341931 
L 77.850922 187.802387 
L 78.464781 188.0443 
L 79.07864 188.517948 
L 79.48788 188.598799 
L 80.306359 189.537696 
L 80.920218 189.459982 
L 81.124838 189.653502 
L 81.943316 190.848466 
L 82.352556 190.789279 
L 82.761795 190.718036 
L 83.375655 190.927169 
L 83.989514 191.269547 
L 84.194133 191.210656 
L 84.398753 190.913384 
L 84.807993 189.704834 
L 85.217232 187.889168 
L 85.626472 185.785049 
L 85.831091 185.189518 
L 86.035711 185.098662 
L 86.240331 185.432098 
L 87.05881 187.431749 
L 87.263429 187.5293 
L 87.672669 187.405466 
L 87.877289 187.50855 
L 88.286528 188.257187 
L 89.718866 191.21698 
L 89.923486 191.29257 
L 90.128106 191.167723 
L 90.537345 190.430671 
L 90.946584 189.71642 
L 91.151204 189.804608 
L 91.765063 190.919782 
L 91.969683 191.007699 
L 92.174303 190.871044 
L 92.992782 189.855841 
L 93.402021 189.737293 
L 93.606641 189.503458 
L 94.01588 188.370844 
L 94.42512 187.17835 
L 94.62974 186.895283 
L 95.038979 186.88098 
L 95.448218 187.129192 
L 96.266697 188.013422 
L 96.880556 187.597529 
L 97.289796 187.888525 
L 97.699035 188.236634 
L 98.312895 188.467406 
L 98.517514 188.841181 
L 99.335993 191.284665 
L 99.745233 191.979179 
L 100.359092 193.16604 
L 100.563712 193.157864 
L 100.768331 192.877341 
L 102.405289 188.379885 
L 103.019148 185.991414 
L 103.428388 185.550324 
L 104.246867 185.458875 
L 104.451486 185.66986 
L 105.065346 187.114963 
L 105.474585 187.939067 
L 105.883824 188.266846 
L 106.088444 188.17557 
L 106.906923 187.338176 
L 107.111543 187.333408 
L 107.316163 187.477054 
L 107.520782 187.907151 
L 107.930022 189.923798 
L 108.339261 192.280353 
L 108.543881 192.938307 
L 108.748501 193.169943 
L 108.95312 193.061449 
L 109.36236 192.244707 
L 109.771599 191.450913 
L 109.976219 191.32661 
L 110.180839 191.380387 
L 110.385458 191.613679 
L 111.408557 193.62499 
L 111.613177 193.702951 
L 111.817797 193.614244 
L 112.840895 192.671123 
L 113.659374 193.323297 
L 113.863994 193.156703 
L 115.910191 190.036269 
L 116.114811 189.976563 
L 116.72867 190.533705 
L 116.93329 190.488648 
L 117.751769 189.622599 
L 117.956388 189.736404 
L 118.979487 191.068986 
L 119.797966 190.913014 
L 120.207205 191.224563 
L 120.616445 191.660885 
L 120.821065 191.606836 
L 121.639543 190.298191 
L 122.048783 190.034416 
L 122.662642 189.042211 
L 122.867262 189.090332 
L 123.685741 190.346262 
L 124.50422 190.484473 
L 124.913459 189.650315 
L 125.322699 188.92191 
L 126.141177 188.091161 
L 126.345797 188.135403 
L 126.755037 188.608186 
L 127.368896 189.559064 
L 127.573516 189.591177 
L 128.391994 189.198925 
L 128.801234 189.526753 
L 129.415093 190.109685 
L 129.619713 190.215536 
L 129.824333 190.177889 
L 130.233572 189.547627 
L 130.847431 188.152102 
L 131.052051 187.989954 
L 131.256671 188.12031 
L 131.66591 189.087812 
L 132.689009 191.995334 
L 132.893628 192.199896 
L 133.098248 192.096961 
L 133.712107 190.754917 
L 135.349065 187.66509 
L 135.758305 187.617044 
L 136.576783 187.744262 
L 136.986023 188.324082 
L 137.395262 188.9227 
L 137.599882 188.806474 
L 138.009122 187.876174 
L 138.8276 185.775736 
L 139.23684 185.278942 
L 139.44146 185.3052 
L 139.850699 185.81358 
L 140.873798 187.633174 
L 141.078417 187.552866 
L 141.487657 187.196383 
L 141.692277 187.315326 
L 141.896896 187.831783 
L 142.510756 190.240881 
L 142.919995 190.830384 
L 143.533854 191.067504 
L 143.738474 191.039294 
L 144.147713 190.644669 
L 144.556953 190.172479 
L 144.966192 190.15415 
L 145.375432 190.461376 
L 145.784671 191.495897 
L 146.193911 192.662379 
L 146.60315 193.135112 
L 146.80777 193.07049 
L 147.217009 192.514188 
L 148.240108 190.494848 
L 148.444728 190.596993 
L 148.853967 191.468082 
L 149.467826 192.857677 
L 149.672446 192.962244 
L 151.104784 192.516559 
L 151.514024 192.916865 
L 152.537122 194.418685 
L 152.741742 194.192928 
L 153.764841 191.805692 
L 154.3787 191.334366 
L 155.401798 191.084376 
L 155.811038 191.093763 
L 156.424897 191.382364 
L 156.629517 191.159571 
L 157.652615 188.93557 
L 158.266475 188.605346 
L 158.675714 188.810031 
L 159.698813 189.841118 
L 160.108052 189.568229 
L 160.517292 189.175803 
L 160.926531 188.381491 
L 161.54039 186.910821 
L 161.94963 186.42166 
L 162.358869 186.428107 
L 162.768109 186.558191 
L 163.177348 187.091298 
L 163.586587 187.625467 
L 163.995827 187.975281 
L 164.814306 189.645992 
L 165.018926 189.566623 
L 165.632785 189.018843 
L 166.042024 188.807685 
L 167.269743 187.504029 
L 167.474362 187.608002 
L 167.883602 188.417383 
L 168.292841 189.35339 
L 168.497461 189.47673 
L 168.702081 189.216562 
L 169.725179 186.47477 
L 169.929799 186.43159 
L 170.134419 186.719252 
L 170.543658 188.071349 
L 171.157517 190.15662 
L 171.362137 190.503049 
L 171.566757 190.625303 
L 171.771377 190.525282 
L 172.180616 189.775903 
L 172.589855 188.850025 
L 172.794475 188.584917 
L 172.999095 188.509129 
L 173.408334 188.754401 
L 173.817574 189.163797 
L 174.022193 189.124422 
L 174.636053 188.311187 
L 175.249912 188.370029 
L 175.659151 188.033283 
L 175.863771 188.091902 
L 177.705349 189.980441 
L 178.319208 190.069049 
L 178.728447 189.78986 
L 179.546926 188.851211 
L 179.956166 189.002761 
L 180.160785 189.093691 
L 180.365405 189.023956 
L 180.774644 188.291746 
L 181.593123 186.623776 
L 182.002363 186.205586 
L 182.206983 186.238317 
L 182.411602 186.557549 
L 183.230081 188.676514 
L 183.434701 188.723523 
L 183.84394 188.286361 
L 186.299377 184.174439 
L 187.117856 182.768391 
L 188.550194 181.175937 
L 188.959434 180.929578 
L 189.368673 180.153521 
L 189.982532 178.577964 
L 190.391772 177.961559 
L 190.596391 177.837651 
L 191.005631 177.999651 
L 191.41487 178.229879 
L 191.61949 178.178621 
L 192.642589 177.33809 
L 193.051828 177.475116 
L 193.256448 177.403355 
L 193.870307 176.484492 
L 194.074927 176.03315 
L 194.279546 175.263886 
L 194.688786 172.538101 
L 195.302645 168.449276 
L 195.711885 166.948222 
L 197.553462 162.50237 
L 197.962702 162.032502 
L 198.371941 161.530693 
L 198.78118 160.243366 
L 199.39504 156.86936 
L 202.464336 139.215862 
L 202.873575 138.006694 
L 203.896674 135.746208 
L 204.305913 134.592053 
L 205.124392 130.93041 
L 205.738251 128.561726 
L 205.942871 128.246644 
L 206.147491 128.248867 
L 206.35211 128.520448 
L 206.96597 130.04865 
L 207.170589 130.072636 
L 207.579829 129.071242 
L 207.989068 128.108976 
L 208.602927 127.37894 
L 209.216787 125.616088 
L 210.649125 121.584548 
L 210.853744 121.412519 
L 211.058364 121.453204 
L 211.262984 121.733406 
L 212.490702 124.458647 
L 212.695322 124.628354 
L 212.899942 124.962852 
L 213.104561 125.658725 
L 213.513801 128.246471 
L 214.33228 134.273957 
L 218.015435 151.585274 
L 218.629294 153.581714 
L 219.038533 154.436474 
L 219.447773 156.067612 
L 223.335548 175.863838 
L 223.744787 176.957472 
L 224.154027 177.406912 
L 224.767886 177.83565 
L 225.790984 179.076685 
L 226.200224 179.62817 
L 226.404844 179.698252 
L 226.609463 179.565376 
L 227.223322 178.852928 
L 227.427942 178.826373 
L 227.837182 179.080859 
L 228.246421 179.339224 
L 228.655661 178.990176 
L 228.86028 178.819802 
L 229.0649 178.850952 
L 229.474139 179.474471 
L 230.497238 181.636962 
L 230.906478 181.92697 
L 231.315717 181.865313 
L 231.929576 181.228232 
L 232.338816 180.489353 
L 233.566534 177.57731 
L 233.771154 177.72681 
L 234.385013 178.509883 
L 234.589633 178.667535 
L 234.794252 178.988916 
L 235.203492 180.229951 
L 235.817351 182.035514 
L 236.22659 182.590112 
L 237.249689 182.726545 
L 237.658929 182.291112 
L 238.272788 180.965397 
L 238.682027 179.533016 
L 239.500506 175.745291 
L 239.705126 175.444882 
L 239.909746 175.415931 
L 240.318985 175.743932 
L 242.365182 178.367152 
L 242.774422 178.535772 
L 242.979041 178.513762 
L 244.41138 177.495075 
L 245.025239 177.67496 
L 245.229858 177.454662 
L 245.843718 176.04066 
L 246.252957 175.254178 
L 246.662197 174.937466 
L 247.480675 174.827836 
L 247.685295 174.694862 
L 247.889915 174.709115 
L 248.299154 175.339032 
L 248.708394 175.93345 
L 248.913014 175.927127 
L 249.322253 175.61081 
L 249.936112 175.64653 
L 250.140732 175.164705 
L 250.549971 173.075037 
L 251.16383 169.603036 
L 251.57307 168.802054 
L 253.005408 167.9032 
L 253.619267 166.821597 
L 253.823887 166.764978 
L 254.028507 166.964131 
L 254.642366 167.950901 
L 255.051605 168.101513 
L 255.665464 167.974714 
L 256.074704 167.952482 
L 256.483943 167.585105 
L 257.097803 167.029938 
L 257.507042 167.131861 
L 257.916281 167.236477 
L 258.120901 166.980163 
L 258.325521 166.345133 
L 259.553239 160.652515 
L 260.371718 159.718509 
L 260.780958 158.190974 
L 262.622535 148.897186 
L 263.236394 145.382103 
L 263.850254 142.490391 
L 264.464113 139.54374 
L 265.077972 137.368725 
L 265.691831 133.663408 
L 267.533409 121.3186 
L 268.147268 119.065845 
L 268.556507 117.77217 
L 269.988845 111.382074 
L 270.602705 108.061277 
L 272.035043 103.003344 
L 272.444282 101.960672 
L 273.058141 99.321 
L 274.695099 90.627411 
L 275.718198 85.284805 
L 276.127437 84.282126 
L 276.332057 84.189269 
L 276.741296 84.564699 
L 277.150536 85.277419 
L 277.559775 86.692705 
L 278.173634 89.743156 
L 278.787494 92.827079 
L 279.196733 93.636806 
L 279.810592 93.821359 
L 280.219832 94.786984 
L 280.629071 96.537016 
L 281.24293 100.823685 
L 282.061409 107.769713 
L 283.289128 118.557169 
L 283.698367 120.900656 
L 284.107607 122.196703 
L 284.516846 122.985803 
L 284.926085 123.275343 
L 285.130705 123.367978 
L 285.335325 123.589066 
L 285.744564 124.562003 
L 286.358424 126.526997 
L 286.972283 129.562379 
L 288.200001 137.1777 
L 289.632339 148.977518 
L 290.450818 153.206828 
L 291.064677 155.663996 
L 291.269297 156.137792 
L 291.473917 156.217606 
L 291.883156 155.416031 
L 292.497015 154.222105 
L 292.906255 153.267127 
L 293.315494 151.367866 
L 293.724734 148.151463 
L 294.338593 140.888328 
L 295.770931 119.010067 
L 295.975551 117.85438 
L 296.18017 117.7842 
L 296.38479 118.705484 
L 296.79403 122.642042 
L 297.612508 131.562278 
L 298.021748 133.631467 
L 298.430987 135.309985 
L 298.635607 136.814843 
L 299.044847 142.312853 
L 300.067945 159.574394 
L 300.886424 168.247234 
L 301.295664 171.395779 
L 301.704903 173.12921 
L 302.114142 173.833852 
L 302.932621 174.925782 
L 303.546481 176.038659 
L 303.7511 176.166198 
L 303.95572 176.106048 
L 304.364959 175.636846 
L 304.774199 175.164977 
L 304.978819 175.15638 
L 305.183438 175.398293 
L 305.592678 176.627544 
L 306.206537 178.887117 
L 306.615776 179.620957 
L 307.025016 180.118394 
L 307.434255 181.103311 
L 308.252734 183.564333 
L 308.866593 184.497055 
L 310.094312 185.327359 
L 310.298932 185.262169 
L 310.708171 184.341873 
L 311.11741 183.423207 
L 311.32203 183.202737 
L 311.52665 183.150639 
L 311.73127 183.293988 
L 312.345129 184.022542 
L 312.754368 184.291825 
L 313.572847 185.427355 
L 313.777467 185.3738 
L 314.595946 184.327842 
L 314.800566 184.395799 
L 315.414425 185.273878 
L 315.619044 185.27904 
L 315.823664 184.968924 
L 317.051383 181.606158 
L 317.460622 181.156916 
L 318.074481 181.20973 
L 318.279101 180.955046 
L 318.68834 179.693163 
L 319.711439 175.712164 
L 320.939157 172.296633 
L 321.348397 169.521024 
L 321.962256 163.526639 
L 322.576115 157.503698 
L 322.985355 155.477887 
L 323.189974 155.156753 
L 323.394594 155.349161 
L 324.008453 157.091041 
L 324.213073 157.265812 
L 324.417693 157.146202 
L 324.826932 156.315354 
L 325.440791 154.829567 
L 325.645411 154.5548 
L 325.850031 154.627055 
L 326.054651 155.108459 
L 327.896228 162.200578 
L 328.100848 162.540807 
L 328.305467 162.576552 
L 328.510087 162.225849 
L 329.123946 159.681332 
L 329.737806 157.671775 
L 330.351665 156.377605 
L 330.760904 154.47543 
L 331.374763 151.496394 
L 331.579383 151.133636 
L 331.784003 151.125287 
L 331.988623 151.477447 
L 332.807101 153.822441 
L 333.011721 154.150072 
L 333.216341 154.250661 
L 333.420961 154.060599 
L 334.23944 152.16996 
L 334.444059 152.185399 
L 334.648679 152.642743 
L 335.057918 154.707536 
L 335.671778 159.413358 
L 336.285637 163.881344 
L 336.694876 164.850131 
L 336.899496 165.151008 
L 337.104116 165.687648 
L 337.922595 169.03584 
L 339.764172 171.484659 
L 340.173412 173.061871 
L 340.787271 175.597643 
L 341.60575 177.350763 
L 341.810369 177.664758 
L 342.014989 177.707666 
L 342.219609 177.438012 
L 343.038088 175.817496 
L 344.061186 173.982315 
L 344.675046 173.942889 
L 345.084285 173.476998 
L 345.698144 172.553121 
L 345.902764 172.57933 
L 346.312003 173.226563 
L 346.721243 173.894769 
L 346.925863 174.019221 
L 347.130482 173.997556 
L 347.539722 173.589766 
L 348.153581 172.69442 
L 348.358201 172.642396 
L 348.56282 172.866498 
L 348.97206 173.671457 
L 349.17668 173.738302 
L 349.585919 173.086771 
L 350.609018 170.756203 
L 351.018257 169.117111 
L 352.041356 164.178961 
L 353.473694 160.813502 
L 353.882933 160.209227 
L 354.087553 159.994339 
L 354.496793 158.949394 
L 355.110652 156.147574 
L 356.74761 146.774812 
L 357.770708 137.473933 
L 358.384567 134.083179 
L 358.793807 131.663978 
L 359.612286 124.354526 
L 360.430765 117.611924 
L 361.044624 112.905681 
L 361.658483 106.84166 
L 364.11392 79.375521 
L 365.546258 66.025835 
L 369.434033 19.686877 
L 370.252511 13.828703 
L 371.07099 7.536479 
L 371.889469 3.536509 
L 372.094089 3.068691 
L 372.298709 3.00024 
L 372.503328 3.240695 
L 373.321807 5.0366 
L 373.731047 6.276399 
L 374.344906 9.264179 
L 375.368005 15.382472 
L 375.981864 19.871356 
L 377.004962 27.732517 
L 378.028061 35.384595 
L 378.84654 44.63755 
L 380.278878 61.223747 
L 380.892737 66.645747 
L 383.962033 89.763536 
L 384.575892 93.952506 
L 384.985132 96.579925 
L 387.031329 112.595762 
L 390.305245 136.875932 
L 391.328343 146.802034 
L 391.737583 149.08868 
L 393.169921 155.203638 
L 395.420738 168.387273 
L 395.829977 169.235041 
L 396.443837 169.453882 
L 396.853076 170.222059 
L 397.466935 171.658862 
L 397.876175 172.264891 
L 398.490034 173.873772 
L 399.717752 177.386507 
L 400.740851 178.654962 
L 402.377809 183.368467 
L 402.787048 184.317615 
L 403.196288 184.72753 
L 403.605527 184.864555 
L 404.424006 184.795462 
L 404.833245 185.581252 
L 405.242485 186.455453 
L 405.447104 186.499325 
L 406.060964 186.014141 
L 406.265583 186.218308 
L 406.879443 187.759775 
L 407.288682 188.692768 
L 407.493302 188.907039 
L 407.697921 188.82799 
L 408.311781 188.085553 
L 408.72102 188.319191 
L 409.13026 188.490824 
L 409.539499 188.126263 
L 410.562598 186.257461 
L 410.971837 185.95772 
L 411.585696 185.838752 
L 412.199555 186.173176 
L 412.404175 186.066905 
L 412.608795 185.705086 
L 413.018034 184.243803 
L 413.836513 181.033576 
L 414.041133 180.896921 
L 414.245753 181.200763 
L 414.859612 182.712711 
L 415.064232 182.634256 
L 415.678091 181.694988 
L 415.882711 181.820033 
L 416.49657 182.766612 
L 416.701189 182.795094 
L 416.905809 182.598881 
L 417.315049 181.616829 
L 417.724288 180.635246 
L 418.338147 179.47788 
L 418.747387 178.619093 
L 418.952006 178.495111 
L 419.156626 178.566131 
L 419.565866 179.049808 
L 419.975105 179.4554 
L 420.179725 179.363778 
L 420.998204 178.275604 
L 421.202823 178.391459 
L 421.407443 178.860364 
L 421.816683 180.800309 
L 422.430542 183.710647 
L 422.839781 184.74702 
L 423.044401 184.817596 
L 423.249021 184.560639 
L 424.0675 182.828542 
L 424.476739 182.553997 
L 424.885979 182.701101 
L 425.499838 183.229514 
L 425.909077 183.81136 
L 426.522936 185.070303 
L 427.136796 186.357877 
L 427.341415 186.376009 
L 427.546035 186.278953 
L 427.750655 186.309707 
L 427.955274 186.652604 
L 428.569134 188.134835 
L 428.978373 188.245651 
L 429.592232 188.268847 
L 430.001472 188.450757 
L 430.206091 188.738023 
L 430.615331 189.884768 
L 431.22919 191.657476 
L 431.43381 191.894053 
L 431.63843 191.922116 
L 432.661528 191.487819 
L 432.866148 191.736574 
L 433.275387 192.900339 
L 434.503106 197.819518 
L 434.707725 197.702724 
L 435.526204 196.22867 
L 435.935444 195.953927 
L 436.140064 196.03589 
L 436.344683 196.355196 
L 436.958542 198.317226 
L 437.367782 199.186585 
L 437.572402 199.238683 
L 437.981641 199.079573 
L 438.186261 199.165143 
L 438.390881 199.491687 
L 439.209359 201.899895 
L 439.413979 201.954339 
L 439.618599 201.649386 
L 440.437078 199.248119 
L 440.641698 199.247279 
L 441.050937 200.062144 
L 441.664796 201.368319 
L 441.869416 201.435263 
L 442.687895 201.000522 
L 443.097134 200.751742 
L 443.301754 200.74984 
L 444.120233 201.322941 
L 445.143331 201.48536 
L 445.347951 201.578884 
L 445.757191 202.152751 
L 446.37105 203.184974 
L 446.57567 203.296506 
L 446.780289 203.249769 
L 447.189529 202.777405 
L 447.598768 202.243977 
L 447.803388 202.261739 
L 448.008008 202.563357 
L 448.417247 203.715339 
L 449.644965 208.084144 
L 449.849585 208.089306 
L 450.258825 207.56944 
L 450.668064 206.789381 
L 451.486543 204.707791 
L 452.918881 202.61133 
L 453.123501 202.665923 
L 453.53274 203.246533 
L 454.146599 204.215468 
L 454.351219 204.274408 
L 454.555839 204.033014 
L 454.965078 202.752678 
L 455.578938 200.81876 
L 455.783557 200.573118 
L 455.988177 200.584505 
L 456.806656 201.510458 
L 457.215895 201.550649 
L 457.625135 202.039217 
L 458.034374 202.63586 
L 458.238994 202.793759 
L 458.648233 202.721948 
L 458.852853 202.665107 
L 459.057473 202.786125 
L 459.875952 203.952138 
L 460.080572 203.786655 
L 460.489811 202.997802 
L 460.694431 202.869546 
L 461.30829 203.16326 
L 462.126769 202.422207 
L 462.536008 202.450368 
L 462.740628 202.593692 
L 463.559107 203.703012 
L 463.968346 203.77628 
L 464.582206 204.588057 
L 464.786825 204.597642 
L 464.991445 204.390362 
L 466.014544 202.405137 
L 466.423783 201.543362 
L 466.628403 201.386377 
L 466.833023 201.446997 
L 467.242262 202.095539 
L 467.651501 202.760929 
L 467.856121 202.724789 
L 468.265361 202.502342 
L 468.6746 203.026087 
L 469.288459 203.826254 
L 469.697699 203.947617 
L 469.902318 203.767214 
L 470.311558 202.967739 
L 470.720797 202.038896 
L 470.925417 201.857678 
L 471.130037 201.973953 
L 472.153135 203.431308 
L 472.357755 203.269753 
L 472.766995 202.692231 
L 473.380854 202.590802 
L 474.403952 202.295235 
L 475.017812 201.760918 
L 475.222431 201.69222 
L 475.427051 201.418836 
L 475.836291 199.796418 
L 476.45015 197.010433 
L 476.654769 196.613709 
L 476.859389 196.576853 
L 477.064009 196.861674 
L 478.087108 199.250293 
L 478.291727 199.314594 
L 478.700967 199.141799 
L 479.110206 198.654441 
L 479.519446 197.753661 
L 479.928685 196.401341 
L 480.542544 194.067043 
L 480.747164 193.702309 
L 480.951784 193.643789 
L 481.361023 194.197498 
L 481.770263 195.192395 
L 482.384122 197.235647 
L 482.588741 197.545072 
L 482.793361 197.635409 
L 482.997981 197.515231 
L 483.40722 196.549952 
L 484.02108 194.560305 
L 484.430319 193.909762 
L 484.634939 193.805393 
L 484.839558 193.83222 
L 485.248798 194.301767 
L 485.658037 195.049244 
L 485.862657 195.211737 
L 486.067277 195.116558 
L 486.476516 194.360189 
L 486.885756 193.46966 
L 487.090375 193.243705 
L 487.499615 193.277498 
L 487.908854 193.367317 
L 488.318094 193.141412 
L 488.931953 192.10741 
L 490.568911 189.291708 
L 490.773531 189.152657 
L 490.97815 189.148803 
L 491.796629 189.492219 
L 492.615108 188.667053 
L 493.228967 187.698908 
L 493.638207 186.807811 
L 494.252066 185.44146 
L 494.865925 184.137434 
L 495.479784 182.136449 
L 495.889024 181.158225 
L 496.298263 180.61415 
L 496.707503 179.223295 
L 497.321362 176.539455 
L 497.935221 175.368181 
L 498.7537 174.033054 
L 499.162939 173.581144 
L 499.572179 173.163967 
L 499.981418 172.172997 
L 500.390658 171.239881 
L 500.595277 171.092011 
L 500.799897 171.135512 
L 501.004517 171.349214 
L 501.413756 172.366937 
L 502.027616 174.198314 
L 502.436855 174.701136 
L 502.641475 174.742167 
L 503.050714 174.440845 
L 503.664573 173.522871 
L 504.073813 172.383784 
L 504.483052 170.911756 
L 504.687672 170.502236 
L 504.892292 170.456264 
L 505.096911 170.719965 
L 505.710771 172.385094 
L 506.32463 173.945631 
L 506.52925 174.014404 
L 507.143109 173.560295 
L 507.961588 172.635183 
L 508.370827 172.91079 
L 508.984686 173.390984 
L 509.189306 173.321347 
L 509.803165 172.724137 
L 510.007785 172.789278 
L 510.417024 173.335601 
L 511.644743 175.475192 
L 511.849362 175.499648 
L 512.258602 175.203241 
L 512.667841 174.88396 
L 513.077081 174.855453 
L 513.69094 175.014439 
L 514.509419 174.792511 
L 514.714039 175.004361 
L 515.123278 176.097525 
L 515.737137 178.131464 
L 515.941757 178.441111 
L 516.146377 178.344969 
L 516.760236 177.289574 
L 517.169475 177.159984 
L 517.783335 177.43238 
L 518.192574 177.699885 
L 518.601813 178.257842 
L 519.624912 180.19512 
L 519.829532 180.376338 
L 520.034152 180.343385 
L 520.648011 179.924873 
L 520.85263 180.03648 
L 521.26187 180.78324 
L 521.875729 182.496044 
L 523.103447 186.836762 
L 523.308067 186.786245 
L 523.717307 186.323146 
L 525.149645 185.875905 
L 525.558884 186.019476 
L 525.968124 186.444386 
L 527.195842 188.6382 
L 527.400462 188.708331 
L 527.605081 188.618018 
L 528.42356 187.793692 
L 529.037419 188.133526 
L 529.651279 188.442308 
L 529.855898 188.324946 
L 530.878997 186.981495 
L 531.083617 187.066324 
L 531.288236 187.36357 
L 531.697476 188.686247 
L 532.311335 190.840561 
L 532.515955 191.029808 
L 532.720575 190.903726 
L 533.129814 190.065863 
L 533.743673 188.56219 
L 533.948293 188.427388 
L 534.152913 188.613003 
L 535.78987 191.701768 
L 535.99449 191.876366 
L 536.19911 191.758238 
L 537.222209 190.03743 
L 538.654547 188.551988 
L 538.859166 188.488453 
L 539.268406 188.761343 
L 539.677645 188.960223 
L 540.086885 188.750078 
L 540.496124 188.468444 
L 540.700744 188.519628 
L 541.109983 189.194997 
L 541.723843 190.371286 
L 542.133082 190.893326 
L 542.337702 190.976821 
L 542.542321 190.807534 
L 542.951561 189.856804 
L 543.3608 188.870108 
L 543.97466 188.060455 
L 544.383899 187.726822 
L 544.793138 187.685272 
L 545.202378 187.808242 
L 545.406998 187.776178 
L 545.816237 187.358457 
L 546.225477 186.747858 
L 546.430096 186.719795 
L 546.634716 187.103155 
L 547.657815 190.760747 
L 548.067054 191.273771 
L 548.476294 191.443231 
L 548.885533 191.337924 
L 549.499392 190.782782 
L 550.317871 189.198505 
L 550.522491 189.303219 
L 551.13635 190.715195 
L 551.750209 192.24982 
L 552.159449 193.474847 
L 552.364068 193.795413 
L 552.568688 193.750973 
L 552.977928 192.710079 
L 553.591787 190.761735 
L 554.001026 190.182508 
L 554.410266 190.133301 
L 554.819505 190.105609 
L 555.433364 189.66489 
L 556.047223 189.723213 
L 557.070322 189.966361 
L 557.274942 189.882619 
L 557.684181 189.347684 
L 558.50266 187.732207 
L 558.9119 187.628012 
L 559.321139 187.622453 
L 560.139618 186.968477 
L 560.548857 186.932164 
L 560.958097 186.60147 
L 561.571956 185.88003 
L 561.776576 185.838629 
L 561.981195 186.009497 
L 562.390435 186.965068 
L 563.822773 191.420751 
L 564.027393 191.58243 
L 564.232012 191.511608 
L 565.255111 190.291348 
L 565.664351 190.673596 
L 566.482829 191.74774 
L 566.892069 192.002547 
L 567.301308 191.892324 
L 567.710548 191.575365 
L 568.119787 190.948437 
L 568.529027 190.028809 
L 568.733646 189.870959 
L 568.938266 190.073595 
L 569.347506 190.798542 
L 569.552125 190.842661 
L 570.370604 190.296857 
L 571.802942 190.202196 
L 572.416802 189.956751 
L 572.621421 190.169663 
L 573.64452 192.576018 
L 573.84914 192.638516 
L 574.053759 192.393565 
L 575.076858 189.753473 
L 575.486097 188.895675 
L 576.304576 186.384803 
L 578.146154 183.336353 
L 578.555393 183.032511 
L 578.760013 183.090019 
L 579.169253 183.730261 
L 579.578492 184.447872 
L 579.783112 184.596038 
L 580.601591 184.533392 
L 581.01083 184.653546 
L 581.829309 183.95582 
L 582.033929 184.104505 
L 582.443168 184.924212 
L 583.057027 186.347379 
L 583.466267 186.799214 
L 583.670887 186.768978 
L 584.080126 186.210551 
L 584.489365 185.474982 
L 584.693985 185.40122 
L 585.307844 185.818521 
L 585.512464 185.781788 
L 585.717084 185.550967 
L 586.126323 184.439868 
L 586.740182 182.770861 
L 587.149422 182.454717 
L 587.354042 182.488732 
L 588.58176 183.500798 
L 589.195619 184.80685 
L 589.400239 184.961859 
L 589.604859 184.883428 
L 590.218718 184.205539 
L 590.627957 184.089585 
L 591.037197 183.548054 
L 591.446436 182.989034 
L 591.651056 182.97609 
L 592.264915 183.321038 
L 592.674155 183.1746 
L 593.083394 182.719307 
L 593.697253 181.884383 
L 593.901873 181.810893 
L 594.311112 181.998732 
L 594.515732 182.228935 
L 594.924972 183.17171 
L 595.334211 184.057373 
L 595.74345 184.810185 
L 596.15269 185.697083 
L 596.35731 185.834775 
L 596.561929 185.594023 
L 596.971169 184.242618 
L 597.380408 182.873723 
L 597.585028 182.549328 
L 598.198887 182.195636 
L 598.608127 181.768874 
L 598.812746 181.777717 
L 599.426605 182.347335 
L 599.631225 182.240669 
L 600.040465 181.735056 
L 600.245084 181.724409 
L 600.449704 182.019432 
L 601.472803 184.798649 
L 601.882042 185.104714 
L 602.291282 185.185294 
L 602.905141 184.875424 
L 603.519 184.500958 
L 603.928239 184.066883 
L 604.337479 182.983452 
L 604.951338 180.923797 
L 605.155958 180.663136 
L 605.360578 180.667162 
L 605.565197 180.937878 
L 606.997535 184.600583 
L 607.406775 185.945961 
L 607.611395 186.170261 
L 607.816014 186.013103 
L 608.225254 185.000593 
L 608.839113 183.313503 
L 609.248352 182.643914 
L 609.657592 182.35398 
L 610.271451 181.958614 
L 610.88531 181.348559 
L 611.499169 180.134475 
L 611.703789 180.348177 
L 612.522268 182.426803 
L 612.726888 182.54834 
L 613.545367 182.498663 
L 613.954606 182.659329 
L 614.159226 182.652437 
L 614.363846 182.518647 
L 614.568465 182.181111 
L 614.977705 180.734452 
L 615.796184 177.131651 
L 616.205423 176.577398 
L 616.410043 176.653433 
L 616.819282 177.452117 
L 617.433141 178.910115 
L 617.637761 178.974811 
L 618.45624 178.522976 
L 618.86548 178.665781 
L 619.274719 178.901197 
L 619.479339 178.853645 
L 619.888578 178.305024 
L 620.707057 176.453811 
L 620.911677 176.312191 
L 621.525536 176.342377 
L 621.934775 176.092634 
L 622.139395 176.213899 
L 622.753254 177.271047 
L 623.162494 177.408048 
L 623.571733 177.539861 
L 625.208691 178.535154 
L 625.82255 178.438616 
L 626.23179 178.402353 
L 626.641029 178.626455 
L 627.254888 179.381169 
L 627.459508 179.382034 
L 627.664128 179.071645 
L 628.277987 177.604236 
L 628.482607 177.488504 
L 628.687226 177.625554 
L 629.096466 178.152535 
L 629.301086 178.243688 
L 629.505705 178.111257 
L 629.914945 177.626543 
L 630.324184 177.406294 
L 630.528804 177.088149 
L 631.551903 174.342479 
L 631.756522 174.562307 
L 632.370382 176.136432 
L 632.575001 176.124772 
L 632.984241 175.209886 
L 633.5981 173.75888 
L 634.007339 173.304154 
L 634.211959 173.40751 
L 634.825818 174.010575 
L 635.235058 173.823922 
L 636.053537 173.129778 
L 636.462776 172.59677 
L 636.667396 172.509027 
L 636.872015 172.666555 
L 637.690494 174.223808 
L 638.099734 174.315701 
L 638.508973 174.194016 
L 639.327452 173.47391 
L 639.941311 173.829752 
L 641.16903 173.426309 
L 641.373649 173.07936 
L 641.782889 171.763526 
L 642.396748 169.877309 
L 642.601368 169.603184 
L 642.805988 169.596095 
L 643.010607 169.894651 
L 643.624466 171.455757 
L 643.829086 171.583469 
L 644.442945 171.219106 
L 644.852185 170.688642 
L 645.466044 169.774818 
L 645.875283 169.505189 
L 646.693762 169.55993 
L 646.898382 169.670277 
L 647.307622 170.334258 
L 647.716861 171.101299 
L 648.73996 172.072284 
L 648.944579 172.226799 
L 649.149199 172.184385 
L 649.353819 171.895636 
L 651.400016 167.134282 
L 652.013875 166.359312 
L 652.218495 166.324481 
L 652.423115 166.624816 
L 653.241594 169.082898 
L 653.446213 169.070843 
L 653.855453 168.51748 
L 654.469312 167.626235 
L 654.878551 167.43432 
L 655.69703 167.517494 
L 656.720129 167.382296 
L 657.129368 166.978359 
L 657.947847 166.040846 
L 658.357087 165.989884 
L 658.970946 166.223151 
L 659.380185 166.738052 
L 659.789425 167.451019 
L 659.994045 167.607312 
L 660.198664 167.584191 
L 660.607904 167.196187 
L 661.426383 166.287205 
L 662.449481 164.193832 
L 662.654101 164.251364 
L 663.063341 164.642901 
L 663.47258 164.677089 
L 663.881819 164.719034 
L 664.291059 165.057559 
L 664.495679 164.941135 
L 665.314158 163.409796 
L 665.518777 163.49497 
L 666.132636 164.058363 
L 666.541876 164.162805 
L 666.746496 164.56069 
L 667.360355 166.185307 
L 667.564975 166.132789 
L 667.974214 165.094588 
L 668.588073 163.544548 
L 668.997313 162.573044 
L 669.815792 160.212932 
L 670.63427 159.226359 
L 671.04351 159.002998 
L 671.452749 159.052577 
L 671.861989 159.313288 
L 672.271228 160.098658 
L 672.680468 160.81617 
L 672.885087 160.642165 
L 673.294327 159.09588 
L 674.112806 155.501329 
L 674.522045 154.601265 
L 674.726665 154.504974 
L 674.931285 154.723667 
L 675.340524 155.826095 
L 675.954383 157.59779 
L 676.363623 158.119757 
L 676.772862 158.191197 
L 677.591341 157.988808 
L 678.2052 157.624741 
L 679.023679 157.424378 
L 679.228299 157.19872 
L 679.637538 156.073837 
L 680.046778 154.00282 
L 680.865257 149.309275 
L 681.069876 148.776266 
L 681.274496 148.59779 
L 681.479116 148.799437 
L 682.297595 150.781995 
L 683.525313 154.285689 
L 683.729933 154.257504 
L 683.934553 153.990715 
L 684.343792 152.853136 
L 684.957651 151.204162 
L 685.57151 150.036346 
L 686.18537 149.053158 
L 687.003849 147.750935 
L 687.413088 146.524599 
L 688.231567 142.640879 
L 688.845426 139.199164 
L 689.254666 136.014503 
L 689.663905 131.219307 
L 690.482384 119.415115 
L 690.687004 118.018356 
L 690.891623 117.71775 
L 691.096243 118.279709 
L 692.733201 125.986059 
L 692.937821 126.104533 
L 693.34706 125.979982 
L 693.7563 125.587458 
L 693.960919 125.096691 
L 694.779398 122.022031 
L 695.597877 120.68646 
L 696.007117 118.664082 
L 696.620976 112.959583 
L 698.257934 93.741422 
L 698.871793 84.456823 
L 700.099511 61.246152 
L 700.508751 58.648599 
L 700.71337 58.594006 
L 700.91799 59.112686 
L 701.327229 61.421985 
L 701.941089 64.986572 
L 703.168807 69.494477 
L 703.578046 70.459188 
L 704.396525 71.785298 
L 704.805765 73.16526 
L 705.624244 77.259421 
L 707.261202 85.25862 
L 707.875061 86.608346 
L 708.07968 86.735688 
L 708.2843 86.704513 
L 708.48892 86.513784 
L 708.69354 86.061924 
L 709.512019 83.388336 
L 709.716638 83.603891 
L 709.921258 84.389557 
L 710.535117 88.759622 
L 711.558216 95.711084 
L 711.967455 97.484065 
L 712.376695 98.102346 
L 712.990554 98.141451 
L 713.195174 98.357796 
L 713.604413 99.301362 
L 714.218272 100.709361 
L 715.036751 101.832589 
L 715.445991 101.926928 
L 715.85523 102.031519 
L 716.469089 102.45712 
L 716.878329 102.359446 
L 717.082948 102.48538 
L 717.492188 103.324923 
L 718.515286 105.654033 
L 718.719906 105.775199 
L 718.924526 105.554926 
L 719.743005 103.817122 
L 720.152244 103.628987 
L 720.561484 103.931223 
L 720.970723 104.602986 
L 721.379963 105.668854 
L 721.993822 107.71097 
L 722.198442 107.919163 
L 722.607681 107.849329 
L 723.63078 107.538817 
L 723.835399 107.757262 
L 724.244639 108.710981 
L 724.858498 110.972603 
L 725.472357 113.718274 
L 726.086216 116.487535 
L 726.290836 116.75252 
L 726.495456 116.63002 
L 726.904695 116.269954 
L 727.313935 116.676732 
L 727.723174 117.348125 
L 728.132414 118.404235 
L 729.155512 121.913093 
L 730.79247 130.821693 
L 731.20171 132.248343 
L 731.610949 133.066741 
L 731.815569 133.198875 
L 732.020188 133.136303 
L 732.634048 132.580173 
L 732.838667 132.597268 
L 733.247907 133.029292 
L 733.861766 134.002945 
L 734.066386 133.92071 
L 734.271005 133.42772 
L 735.294104 129.897445 
L 735.907963 127.965528 
L 736.317203 126.914136 
L 736.521822 126.79796 
L 736.931062 127.017022 
L 738.15878 127.980696 
L 738.772639 128.591937 
L 738.977259 128.713079 
L 739.181879 128.662562 
L 739.386499 128.297556 
L 739.795738 127.054471 
L 740.000358 126.807421 
L 740.204978 126.954006 
L 740.818837 128.159666 
L 741.228076 129.491853 
L 741.637316 131.058542 
L 741.841935 131.51307 
L 742.046555 131.613486 
L 742.455795 131.191492 
L 742.865034 130.453872 
L 743.683513 128.656954 
L 744.297372 127.758669 
L 744.911231 125.896635 
L 745.72971 123.276948 
L 746.343569 121.957557 
L 747.571288 119.92021 
L 747.775907 120.084606 
L 748.185147 121.121473 
L 749.208246 124.532088 
L 750.026724 129.485356 
L 750.435964 131.449535 
L 750.640584 131.96745 
L 750.845203 132.163045 
L 751.254443 132.046029 
L 751.663682 131.723783 
L 752.072922 130.636572 
L 752.686781 128.635315 
L 753.50526 127.016602 
L 754.323739 123.58751 
L 754.937598 120.283462 
L 755.551457 116.639456 
L 755.960696 115.266683 
L 756.165316 115.023362 
L 756.369936 115.125656 
L 756.574556 115.569611 
L 757.802274 119.866951 
L 759.439232 121.726662 
L 760.257711 123.171345 
L 760.87157 123.514662 
L 762.303908 125.737057 
L 762.713147 125.751804 
L 762.917767 125.722704 
L 763.327007 126.049989 
L 763.736246 126.339306 
L 764.145486 126.272461 
L 764.554725 125.812869 
L 765.577824 123.702303 
L 765.987063 123.279443 
L 766.396303 122.753105 
L 766.600922 122.826249 
L 767.010162 123.741728 
L 767.624021 125.266151 
L 767.828641 125.478643 
L 768.03326 125.390059 
L 768.4425 124.790329 
L 768.64712 124.741443 
L 769.056359 124.988024 
L 769.260979 124.822418 
L 769.874838 123.923613 
L 770.897937 123.658752 
L 771.716415 123.142616 
L 772.330275 123.580148 
L 772.739514 123.322969 
L 772.944134 123.193676 
L 773.148754 123.204199 
L 774.376472 124.030255 
L 774.785711 124.806633 
L 775.60419 126.930316 
L 775.80881 127.137324 
L 776.218049 127.105902 
L 776.422669 127.075469 
L 776.627289 127.231441 
L 777.241148 128.213345 
L 777.445768 128.191582 
L 777.650388 127.869065 
L 778.059627 126.470354 
L 778.673486 124.157177 
L 779.082726 123.261608 
L 779.287345 123.055539 
L 779.491965 123.047906 
L 779.901205 123.493961 
L 780.719683 124.865005 
L 781.538162 127.543089 
L 781.742782 127.580563 
L 782.356641 127.019542 
L 782.561261 127.203428 
L 783.17512 128.027359 
L 783.58436 128.206552 
L 784.198219 128.914553 
L 784.402839 128.926682 
L 785.016698 128.411756 
L 785.221317 128.61123 
L 786.039796 130.177326 
L 786.449036 130.622245 
L 787.267515 131.780377 
L 787.472134 131.844653 
L 787.676754 131.724327 
L 788.290613 131.002344 
L 788.904473 130.562143 
L 789.313712 130.296985 
L 789.722951 130.380653 
L 789.927571 130.495298 
L 790.132191 130.787579 
L 790.54143 132.099387 
L 790.95067 133.566549 
L 791.155289 133.981651 
L 791.359909 134.114428 
L 791.973768 134.049089 
L 792.383008 134.386651 
L 792.996867 135.035761 
L 793.406106 135.072914 
L 794.019966 134.895104 
L 794.224585 134.956095 
L 794.429205 135.151913 
L 794.838445 136.085276 
L 795.452304 137.58964 
L 796.270783 138.954756 
L 796.884642 139.160529 
L 797.089262 139.475166 
L 797.90774 141.396535 
L 798.11236 141.367904 
L 798.5216 140.690682 
L 799.135459 139.38762 
L 799.340079 139.158355 
L 799.544698 139.213862 
L 799.953938 139.961363 
L 800.772417 141.429414 
L 801.386276 142.55689 
L 802.000135 144.477938 
L 802.818614 147.544347 
L 803.227853 148.239009 
L 803.432473 148.329865 
L 803.637093 148.168582 
L 804.250952 147.069514 
L 804.455572 147.101355 
L 804.864811 147.845003 
L 805.274051 149.055974 
L 806.09253 152.196392 
L 806.297149 152.525604 
L 806.706389 152.559594 
L 807.729487 152.520441 
L 809.366445 154.136313 
L 809.775685 154.68098 
L 810.389544 154.891817 
L 810.798783 155.143438 
L 812.435741 156.963378 
L 814.277319 160.23467 
L 814.686558 160.671511 
L 814.891178 160.561091 
L 815.709657 159.405824 
L 815.914276 159.753661 
L 816.323516 160.944599 
L 816.528136 161.21608 
L 816.732755 161.184856 
L 817.551234 160.64629 
L 817.755854 160.600961 
L 817.960474 160.682603 
L 818.369713 161.476372 
L 818.574333 161.923909 
L 818.778953 162.07704 
L 818.983572 161.871762 
L 819.597432 160.676477 
L 819.802051 160.691916 
L 820.006671 161.120234 
L 820.41591 163.113117 
L 821.02977 166.221669 
L 821.439009 167.058198 
L 821.848249 167.232277 
L 822.257488 167.375701 
L 824.099066 169.448349 
L 824.508305 169.618574 
L 824.712925 169.494617 
L 825.122164 168.723599 
L 825.736023 167.137839 
L 825.940643 167.032829 
L 826.145263 167.218666 
L 826.963742 168.83192 
L 827.168361 169.229088 
L 827.372981 169.354281 
L 827.577601 169.117161 
L 828.39608 167.423896 
L 828.6007 167.300975 
L 828.805319 167.347688 
L 829.419178 167.848879 
L 829.623798 167.59921 
L 830.442277 165.579154 
L 831.056136 164.881948 
L 831.669995 164.716514 
L 832.079235 163.77784 
L 833.306953 159.893725 
L 834.330052 157.253955 
L 834.943911 156.82739 
L 835.35315 155.746404 
L 836.785489 150.361136 
L 837.603967 147.690093 
L 839.854784 135.168118 
L 840.673263 130.043759 
L 841.491742 122.807895 
L 842.310221 116.099185 
L 843.947179 102.947714 
L 844.561038 97.532284 
L 845.584137 90.525735 
L 846.402616 81.021455 
L 847.630334 64.506946 
L 848.653433 47.595144 
L 849.471912 28.814096 
L 850.085771 11.155312 
L 850.402248 -1 
M 947.00603 -1 
L 947.68938 19.459342 
L 948.507859 37.323775 
L 949.530958 54.424181 
L 950.144817 61.107348 
L 951.372536 71.633402 
L 952.395634 81.72254 
L 953.009493 85.757835 
L 953.623353 89.084387 
L 954.237212 94.516812 
L 955.26031 103.490381 
L 956.283409 112.088124 
L 956.897268 115.480484 
L 957.306508 116.380672 
L 957.715747 117.121503 
L 958.738846 119.831997 
L 959.148085 120.628532 
L 959.557325 122.058887 
L 960.375804 125.920646 
L 961.194282 130.739953 
L 961.398902 131.2822 
L 961.603522 131.470088 
L 962.217381 131.216861 
L 962.422001 131.48486 
L 962.83124 132.890265 
L 963.445099 135.372927 
L 963.854339 136.2328 
L 964.672818 137.489891 
L 965.695916 139.867394 
L 966.514395 142.206015 
L 966.719015 142.384096 
L 966.923635 142.222565 
L 967.332874 141.586103 
L 967.537494 141.707886 
L 967.946733 142.904901 
L 968.355973 144.089514 
L 968.560593 144.280194 
L 969.379072 143.925217 
L 969.583691 144.095838 
L 969.788311 144.494563 
L 970.19755 146.145537 
L 970.81141 148.621727 
L 971.016029 148.837603 
L 971.220649 148.714139 
L 972.243748 146.983894 
L 972.652987 147.232773 
L 973.266846 147.777737 
L 973.880706 148.883352 
L 974.085325 149.036508 
L 974.903804 148.965044 
L 975.313044 148.912477 
L 975.722283 148.764582 
L 975.926903 148.866357 
L 976.336142 149.61534 
L 977.359241 152.090097 
L 978.17772 153.631663 
L 978.586959 153.668149 
L 978.996199 153.731709 
L 979.405438 154.28769 
L 980.019297 155.567261 
L 980.633157 157.759395 
L 981.042396 158.947442 
L 981.247016 159.210006 
L 981.860875 159.260177 
L 982.270114 160.126621 
L 982.679354 160.974415 
L 983.088593 161.070804 
L 983.907072 161.090616 
L 984.520931 160.81281 
L 985.54403 160.382886 
L 985.953269 160.091074 
L 986.362509 159.329937 
L 987.385607 156.568951 
L 987.590227 156.570162 
L 987.794847 156.830972 
L 988.204086 157.877053 
L 989.022565 160.316239 
L 989.227185 160.527742 
L 989.431805 160.401759 
L 989.841044 159.231522 
L 990.250284 158.123734 
L 990.454903 157.977618 
L 990.659523 157.981373 
L 990.864143 158.103601 
L 991.068763 158.427699 
L 991.887241 160.886424 
L 992.091861 160.768395 
L 992.501101 159.444656 
L 992.91034 158.195248 
L 993.11496 158.008792 
L 993.31958 158.162542 
L 994.956537 161.548133 
L 995.979636 165.167288 
L 996.388875 165.394057 
L 996.798115 165.559318 
L 997.411974 166.126391 
L 997.821214 166.838839 
L 998.844312 169.050068 
L 999.048932 169.344079 
L 999.253552 169.378588 
L 999.458171 169.29334 
L 999.662791 169.330863 
L 1000.072031 169.8199 
L 1000.27665 169.849544 
L 1000.48127 169.454845 
L 1000.890509 167.601828 
L 1001.504369 163.846241 
L 1002.322848 157.114434 
L 1002.527467 156.539185 
L 1002.732087 156.907698 
L 1003.141326 159.39787 
L 1003.755186 163.234852 
L 1004.369045 165.701704 
L 1004.778284 167.155946 
L 1005.392143 169.783019 
L 1005.596763 170.1335 
L 1006.619862 170.876826 
L 1007.84758 171.902083 
L 1008.25682 172.192413 
L 1008.870679 172.403373 
L 1009.075299 172.29609 
L 1009.689158 171.155398 
L 1009.893777 171.222342 
L 1010.507637 172.033897 
L 1010.916876 172.08839 
L 1011.121496 171.920586 
L 1012.144594 170.437836 
L 1012.349214 170.528816 
L 1012.758454 171.213449 
L 1015.62313 179.574492 
L 1015.82775 179.649365 
L 1016.441609 179.210647 
L 1016.646228 179.535338 
L 1017.260088 180.885014 
L 1017.464707 180.822122 
L 1017.873947 179.893526 
L 1018.283186 178.864242 
L 1018.487806 178.592044 
L 1018.692426 178.559634 
L 1018.897045 178.745917 
L 1019.510905 179.685752 
L 1019.715524 179.652552 
L 1020.124764 179.454783 
L 1020.329384 179.732983 
L 1020.738623 180.558718 
L 1020.943243 180.570525 
L 1021.761722 179.248047 
L 1022.170961 179.669448 
L 1022.5802 180.135265 
L 1022.98944 180.246724 
L 1023.398679 180.250627 
L 1023.603299 180.38533 
L 1024.012539 181.177172 
L 1024.831017 183.593532 
L 1025.035637 183.617469 
L 1025.240257 183.085276 
L 1026.263356 178.014497 
L 1026.467975 177.961485 
L 1026.877215 178.093694 
L 1027.695694 177.759393 
L 1028.104933 177.891651 
L 1028.923412 177.573852 
L 1029.332651 178.089395 
L 1029.946511 179.059195 
L 1030.56037 179.602282 
L 1030.969609 180.623488 
L 1031.583468 182.51383 
L 1031.788088 182.734523 
L 1032.401947 182.79707 
L 1032.811187 182.655599 
L 1033.425046 182.041146 
L 1033.629666 182.086747 
L 1034.243525 182.763821 
L 1034.448145 182.612888 
L 1034.857384 181.13004 
L 1035.266624 179.491046 
L 1035.675863 178.840873 
L 1036.085102 178.450226 
L 1036.289722 178.457588 
L 1036.494342 178.678256 
L 1036.903581 179.631629 
L 1038.1313 183.438696 
L 1038.540539 184.150996 
L 1038.745159 184.272903 
L 1038.949779 184.240642 
L 1039.359018 183.748096 
L 1040.177497 182.307934 
L 1040.586736 181.4282 
L 1042.019075 177.817568 
L 1042.223694 177.49431 
L 1042.428314 177.449375 
L 1043.246793 178.305173 
L 1043.451413 178.286201 
L 1043.860652 177.863243 
L 1044.269892 177.416126 
L 1044.474511 177.407752 
L 1045.49761 178.153499 
L 1045.906849 178.625516 
L 1046.316089 179.616733 
L 1046.929948 181.34016 
L 1047.339187 181.838288 
L 1047.543807 181.839721 
L 1047.953047 181.506236 
L 1048.566906 180.792602 
L 1048.771526 180.798901 
L 1048.976145 181.057982 
L 1049.385385 182.259344 
L 1049.999244 184.165422 
L 1050.203864 184.423515 
L 1050.408483 184.371096 
L 1050.817723 183.760003 
L 1051.022343 183.757953 
L 1051.431582 184.713425 
L 1052.250061 186.935005 
L 1052.6593 187.396746 
L 1053.06854 187.446349 
L 1053.27316 187.209772 
L 1054.091638 185.177315 
L 1054.296258 185.597161 
L 1054.705498 186.900619 
L 1054.910117 187.205053 
L 1055.114737 187.190182 
L 1055.523977 186.533365 
L 1055.933216 185.881833 
L 1056.342455 185.700022 
L 1056.751695 185.694341 
L 1057.160934 185.993934 
L 1057.774794 186.879646 
L 1058.184033 187.448918 
L 1059.207132 188.149187 
L 1059.616371 188.586078 
L 1059.820991 188.609916 
L 1061.662568 187.855868 
L 1062.071808 188.257483 
L 1062.685667 189.293758 
L 1063.299526 190.530099 
L 1063.504146 190.629799 
L 1063.913385 190.445394 
L 1064.527244 189.908878 
L 1065.345723 189.081044 
L 1065.959583 186.754552 
L 1066.368822 185.579597 
L 1066.573442 185.367846 
L 1066.778061 185.433753 
L 1066.982681 185.806589 
L 1068.2104 189.672152 
L 1068.619639 190.156151 
L 1069.847357 190.862448 
L 1070.256597 190.316866 
L 1070.870456 189.244526 
L 1071.279695 189.065086 
L 1071.688935 189.075486 
L 1072.507414 188.38779 
L 1073.121273 188.509672 
L 1074.144372 187.759899 
L 1074.348991 187.878718 
L 1074.758231 188.398239 
L 1074.962851 188.461329 
L 1075.37209 188.026168 
L 1075.781329 187.627493 
L 1075.985949 187.787417 
L 1076.190569 188.361531 
L 1077.009048 191.67877 
L 1077.418287 192.356931 
L 1078.236766 194.297963 
L 1078.441386 194.220817 
L 1078.646006 193.755197 
L 1079.055245 191.78929 
L 1079.669104 188.257953 
L 1080.078344 187.140135 
L 1080.282963 186.985867 
L 1080.692203 187.067534 
L 1081.510682 187.643228 
L 1081.919921 187.597627 
L 1082.329161 187.439555 
L 1082.7384 187.372982 
L 1083.14764 186.706678 
L 1083.556879 185.971455 
L 1083.761499 185.931807 
L 1083.966119 186.197879 
L 1084.579978 187.731515 
L 1084.784597 187.879657 
L 1085.193837 187.51559 
L 1085.398457 187.332741 
L 1085.603076 187.315795 
L 1086.012316 187.694462 
L 1086.421555 188.564537 
L 1087.035414 189.831089 
L 1087.444654 190.299994 
L 1087.649274 190.40913 
L 1087.853893 190.3514 
L 1088.263133 189.948056 
L 1088.467753 189.907964 
L 1088.876992 190.062528 
L 1089.286231 189.751028 
L 1090.30933 188.52232 
L 1090.71857 187.950405 
L 1092.150908 186.845235 
L 1092.764767 185.76788 
L 1092.969387 185.702048 
L 1093.174006 185.866938 
L 1093.583246 186.936709 
L 1093.992485 188.280383 
L 1094.197105 188.609347 
L 1094.401725 188.658234 
L 1094.810964 188.188291 
L 1095.220204 187.716348 
L 1095.629443 187.38269 
L 1096.038682 186.388163 
L 1096.243302 185.88171 
L 1096.447922 185.756418 
L 1096.652542 186.140297 
L 1097.67564 189.740999 
L 1097.88026 189.950205 
L 1098.08488 189.885558 
L 1098.289499 189.513438 
L 1099.721837 185.308362 
L 1099.926457 185.322665 
L 1100.131077 185.738287 
L 1100.540316 187.373501 
L 1101.154176 190.355476 
L 1101.358795 190.787031 
L 1101.563415 190.781645 
L 1101.768035 190.39127 
L 1102.791133 187.344648 
L 1103.609612 186.172657 
L 1104.428091 185.037869 
L 1104.837331 184.615331 
L 1105.04195 184.60997 
L 1105.45119 185.056099 
L 1105.860429 185.560527 
L 1106.065049 185.596889 
L 1106.474288 185.318392 
L 1106.678908 185.135914 
L 1106.883528 185.106517 
L 1107.292767 185.615935 
L 1108.315866 187.040188 
L 1108.520486 186.916552 
L 1109.134345 186.09398 
L 1109.338965 186.038275 
L 1109.952824 186.308522 
L 1110.157444 186.191851 
L 1110.771303 185.124451 
L 1110.975922 185.086187 
L 1111.385162 185.233316 
L 1111.589782 185.067537 
L 1111.999021 184.066538 
L 1112.61288 181.088267 
L 1113.226739 178.639152 
L 1113.635979 176.675369 
L 1115.068317 166.24694 
L 1116.500655 153.942298 
L 1117.319134 147.842088 
L 1119.160712 136.002152 
L 1119.569951 130.69114 
L 1119.97919 122.108416 
L 1120.38843 109.735497 
L 1120.797669 92.272703 
L 1121.206909 67.356219 
L 1121.820768 11.447618 
L 1121.931936 -1 
M 1124.014468 -1 
L 1124.685444 58.043286 
L 1125.299303 90.871226 
L 1125.913163 110.595345 
L 1126.731641 128.033041 
L 1127.345501 137.662884 
L 1128.777839 155.353509 
L 1129.391698 163.303451 
L 1130.005557 168.219591 
L 1131.642515 177.545592 
L 1132.051754 178.719337 
L 1132.460994 178.953616 
L 1133.484092 178.925949 
L 1134.302571 180.219748 
L 1135.32567 182.082572 
L 1135.53029 182.05283 
L 1136.144149 181.72888 
L 1136.553388 181.966001 
L 1137.167248 182.545771 
L 1138.190346 184.158975 
L 1139.008825 183.979041 
L 1139.827304 184.631412 
L 1140.645783 184.419068 
L 1141.055022 185.381359 
L 1141.464262 186.274111 
L 1141.668881 186.318897 
L 1142.078121 186.123079 
L 1142.48736 186.280237 
L 1142.8966 186.35353 
L 1143.305839 185.890677 
L 1143.715079 185.484764 
L 1144.124318 185.411916 
L 1144.942797 185.534614 
L 1145.352037 186.108332 
L 1145.761276 187.138949 
L 1146.375135 188.837451 
L 1147.193614 189.664668 
L 1147.602854 189.772519 
L 1148.012093 189.869329 
L 1148.625952 190.410489 
L 1148.830572 190.443689 
L 1149.035192 190.356267 
L 1149.239811 190.108648 
L 1149.649051 189.012025 
L 1150.26291 187.304679 
L 1150.46753 187.162614 
L 1150.876769 187.387136 
L 1151.490628 187.951023 
L 1151.899868 187.732479 
L 1152.104488 187.640165 
L 1152.309107 187.705924 
L 1152.513727 187.932125 
L 1152.922966 188.999945 
L 1153.332206 190.116231 
L 1153.536826 190.196515 
L 1153.946065 189.956257 
L 1154.150685 190.093925 
L 1154.764544 191.102261 
L 1154.969164 191.065775 
L 1155.378403 190.371162 
L 1155.992262 189.215352 
L 1156.401502 188.916376 
L 1156.606122 188.79232 
L 1157.015361 188.074264 
L 1157.62922 186.782268 
L 1157.83384 186.653691 
L 1158.03846 186.731702 
L 1159.675417 188.626096 
L 1160.289277 190.23305 
L 1160.493896 190.392406 
L 1160.698516 190.339321 
L 1161.516995 189.782894 
L 1161.721615 189.950897 
L 1162.130854 190.784511 
L 1162.540094 191.635195 
L 1162.744713 191.632922 
L 1163.563192 190.504062 
L 1163.972432 190.021447 
L 1164.381671 189.417246 
L 1164.790911 189.29855 
L 1165.20015 189.587175 
L 1165.60939 189.968164 
L 1166.018629 189.95438 
L 1166.427868 189.600984 
L 1167.041728 188.50866 
L 1167.450967 187.80634 
L 1167.655587 187.715409 
L 1167.860207 187.882127 
L 1168.269446 188.518961 
L 1168.474066 188.654133 
L 1168.883305 188.604135 
L 1169.087925 188.772533 
L 1169.497164 189.725732 
L 1170.111024 191.181235 
L 1170.520263 191.490462 
L 1172.77108 190.941768 
L 1173.589559 190.426126 
L 1174.203418 191.138326 
L 1174.408038 191.089193 
L 1175.021897 190.286333 
L 1176.044996 188.754574 
L 1176.249615 188.591043 
L 1176.454235 188.640819 
L 1177.272714 189.588756 
L 1177.477334 189.489699 
L 1178.091193 188.787898 
L 1178.295813 188.891945 
L 1178.705052 190.035355 
L 1179.114291 191.393628 
L 1179.318911 191.793044 
L 1179.523531 191.867646 
L 1179.728151 191.607725 
L 1180.751249 189.37708 
L 1181.774348 188.073498 
L 1182.183587 187.914908 
L 1182.388207 187.96787 
L 1182.797447 188.574245 
L 1183.206686 189.39158 
L 1183.411306 189.576726 
L 1184.229785 189.743098 
L 1184.434404 189.853914 
L 1184.639024 189.821183 
L 1184.843644 189.668422 
L 1184.843644 189.668422 
" clip-path="url(#p080a500871)" style="fill: none; stroke: #000000; stroke-width: 2; stroke-linecap: square"/>
   </g>
   <g id="patch_3">
    <path d="M 3.00024 198.907885 
L 1184.99976 198.907885 
" style="fill: none; stroke: #000000; stroke-width: 2; stroke-linejoin: miter; stroke-linecap: square"/>
   </g>
  </g>
 </g>
 <defs>
  <clipPath id="p080a500871">
   <rect x="3.00024" y="3.00024" width="1181.99952" height="195.907645"/>
  </clipPath>
 </defs>
</svg>
