<?xml version="1.0" encoding="utf-8" standalone="no"?>
<!DOCTYPE svg PUBLIC "-//W3C//DTD SVG 1.1//EN"
  "http://www.w3.org/Graphics/SVG/1.1/DTD/svg11.dtd">
<svg xmlns:xlink="http://www.w3.org/1999/xlink" width="1188pt" height="252pt" viewBox="0 0 1188 252" xmlns="http://www.w3.org/2000/svg" version="1.1">
 <metadata>
  <rdf:RDF xmlns:dc="http://purl.org/dc/elements/1.1/" xmlns:cc="http://creativecommons.org/ns#" xmlns:rdf="http://www.w3.org/1999/02/22-rdf-syntax-ns#">
   <cc:Work>
    <dc:type rdf:resource="http://purl.org/dc/dcmitype/StillImage"/>
    <dc:date>2024-07-23T21:45:43.042596</dc:date>
    <dc:format>image/svg+xml</dc:format>
    <dc:creator>
     <cc:Agent>
      <dc:title>Matplotlib v3.8.4, https://matplotlib.org/</dc:title>
     </cc:Agent>
    </dc:creator>
   </cc:Work>
  </rdf:RDF>
 </metadata>
 <defs>
  <style type="text/css">*{stroke-linejoin: round; stroke-linecap: butt}</style>
 </defs>
 <g id="figure_1">
  <g id="patch_1">
   <path d="M 0 252 
L 1188 252 
L 1188 0 
L 0 0 
z
" style="fill: #ffffff"/>
  </g>
  <g id="axes_1">
   <g id="patch_2">
    <path d="M 3.00024 198.907885 
L 1184.99976 198.907885 
L 1184.99976 3.00024 
L 3.00024 3.00024 
z
" style="fill: #ffffff"/>
   </g>
   <g id="matplotlib.axis_1">
    <g id="xtick_1">
     <g id="line2d_1">
      <defs>
       <path id="mb4377227fb" d="M 0 0 
L 0 8 
" style="stroke: #000000; stroke-width: 2"/>
      </defs>
      <g>
       <use xlink:href="#mb4377227fb" x="1131.272509" y="198.907885" style="stroke: #000000; stroke-width: 2"/>
      </g>
     </g>
     <g id="text_1">
      <!-- 0 -->
      <g transform="translate(1126.267665 224.791947) scale(0.18 -0.18)">
       <defs>
        <path id="Arial-BoldMT-30" d="M 1756 4600 
Q 2422 4600 2797 4125 
Q 3244 3563 3244 2259 
Q 3244 959 2794 391 
Q 2422 -78 1756 -78 
Q 1088 -78 678 436 
Q 269 950 269 2269 
Q 269 3563 719 4131 
Q 1091 4600 1756 4600 
z
M 1756 3872 
Q 1597 3872 1472 3770 
Q 1347 3669 1278 3406 
Q 1188 3066 1188 2259 
Q 1188 1453 1269 1151 
Q 1350 850 1473 750 
Q 1597 650 1756 650 
Q 1916 650 2041 751 
Q 2166 853 2234 1116 
Q 2325 1453 2325 2259 
Q 2325 3066 2244 3367 
Q 2163 3669 2039 3770 
Q 1916 3872 1756 3872 
z
" transform="scale(0.015625)"/>
       </defs>
       <use xlink:href="#Arial-BoldMT-30"/>
      </g>
     </g>
    </g>
    <g id="xtick_2">
     <g id="line2d_2">
      <g>
       <use xlink:href="#mb4377227fb" x="1023.818007" y="198.907885" style="stroke: #000000; stroke-width: 2"/>
      </g>
     </g>
     <g id="text_2">
      <!-- 1 -->
      <g transform="translate(1018.813164 224.791947) scale(0.18 -0.18)">
       <defs>
        <path id="Arial-BoldMT-31" d="M 2519 0 
L 1641 0 
L 1641 3309 
Q 1159 2859 506 2644 
L 506 3441 
Q 850 3553 1253 3867 
Q 1656 4181 1806 4600 
L 2519 4600 
L 2519 0 
z
" transform="scale(0.015625)"/>
       </defs>
       <use xlink:href="#Arial-BoldMT-31"/>
      </g>
     </g>
    </g>
    <g id="xtick_3">
     <g id="line2d_3">
      <g>
       <use xlink:href="#mb4377227fb" x="916.363505" y="198.907885" style="stroke: #000000; stroke-width: 2"/>
      </g>
     </g>
     <g id="text_3">
      <!-- 2 -->
      <g transform="translate(911.358662 224.791947) scale(0.18 -0.18)">
       <defs>
        <path id="Arial-BoldMT-32" d="M 3238 816 
L 3238 0 
L 159 0 
Q 209 463 459 877 
Q 709 1291 1447 1975 
Q 2041 2528 2175 2725 
Q 2356 2997 2356 3263 
Q 2356 3556 2198 3714 
Q 2041 3872 1763 3872 
Q 1488 3872 1325 3706 
Q 1163 3541 1138 3156 
L 263 3244 
Q 341 3969 753 4284 
Q 1166 4600 1784 4600 
Q 2463 4600 2850 4234 
Q 3238 3869 3238 3325 
Q 3238 3016 3127 2736 
Q 3016 2456 2775 2150 
Q 2616 1947 2200 1565 
Q 1784 1184 1673 1059 
Q 1563 934 1494 816 
L 3238 816 
z
" transform="scale(0.015625)"/>
       </defs>
       <use xlink:href="#Arial-BoldMT-32"/>
      </g>
     </g>
    </g>
    <g id="xtick_4">
     <g id="line2d_4">
      <g>
       <use xlink:href="#mb4377227fb" x="808.909004" y="198.907885" style="stroke: #000000; stroke-width: 2"/>
      </g>
     </g>
     <g id="text_4">
      <!-- 3 -->
      <g transform="translate(803.90416 224.791947) scale(0.18 -0.18)">
       <defs>
        <path id="Arial-BoldMT-33" d="M 241 1216 
L 1091 1319 
Q 1131 994 1309 822 
Q 1488 650 1741 650 
Q 2013 650 2198 856 
Q 2384 1063 2384 1413 
Q 2384 1744 2206 1937 
Q 2028 2131 1772 2131 
Q 1603 2131 1369 2066 
L 1466 2781 
Q 1822 2772 2009 2936 
Q 2197 3100 2197 3372 
Q 2197 3603 2059 3740 
Q 1922 3878 1694 3878 
Q 1469 3878 1309 3722 
Q 1150 3566 1116 3266 
L 306 3403 
Q 391 3819 561 4067 
Q 731 4316 1036 4458 
Q 1341 4600 1719 4600 
Q 2366 4600 2756 4188 
Q 3078 3850 3078 3425 
Q 3078 2822 2419 2463 
Q 2813 2378 3048 2084 
Q 3284 1791 3284 1375 
Q 3284 772 2843 347 
Q 2403 -78 1747 -78 
Q 1125 -78 715 280 
Q 306 638 241 1216 
z
" transform="scale(0.015625)"/>
       </defs>
       <use xlink:href="#Arial-BoldMT-33"/>
      </g>
     </g>
    </g>
    <g id="xtick_5">
     <g id="line2d_5">
      <g>
       <use xlink:href="#mb4377227fb" x="701.454502" y="198.907885" style="stroke: #000000; stroke-width: 2"/>
      </g>
     </g>
     <g id="text_5">
      <!-- 4 -->
      <g transform="translate(696.449658 224.791947) scale(0.18 -0.18)">
       <defs>
        <path id="Arial-BoldMT-34" d="M 1994 0 
L 1994 922 
L 119 922 
L 119 1691 
L 2106 4600 
L 2844 4600 
L 2844 1694 
L 3413 1694 
L 3413 922 
L 2844 922 
L 2844 0 
L 1994 0 
z
M 1994 1694 
L 1994 3259 
L 941 1694 
L 1994 1694 
z
" transform="scale(0.015625)"/>
       </defs>
       <use xlink:href="#Arial-BoldMT-34"/>
      </g>
     </g>
    </g>
    <g id="xtick_6">
     <g id="line2d_6">
      <g>
       <use xlink:href="#mb4377227fb" x="594" y="198.907885" style="stroke: #000000; stroke-width: 2"/>
      </g>
     </g>
     <g id="text_6">
      <!-- 5 -->
      <g transform="translate(588.995156 224.791947) scale(0.18 -0.18)">
       <defs>
        <path id="Arial-BoldMT-35" d="M 284 1178 
L 1159 1269 
Q 1197 972 1381 798 
Q 1566 625 1806 625 
Q 2081 625 2272 848 
Q 2463 1072 2463 1522 
Q 2463 1944 2273 2155 
Q 2084 2366 1781 2366 
Q 1403 2366 1103 2031 
L 391 2134 
L 841 4519 
L 3163 4519 
L 3163 3697 
L 1506 3697 
L 1369 2919 
Q 1663 3066 1969 3066 
Q 2553 3066 2959 2641 
Q 3366 2216 3366 1538 
Q 3366 972 3038 528 
Q 2591 -78 1797 -78 
Q 1163 -78 763 262 
Q 363 603 284 1178 
z
" transform="scale(0.015625)"/>
       </defs>
       <use xlink:href="#Arial-BoldMT-35"/>
      </g>
     </g>
    </g>
    <g id="xtick_7">
     <g id="line2d_7">
      <g>
       <use xlink:href="#mb4377227fb" x="486.545498" y="198.907885" style="stroke: #000000; stroke-width: 2"/>
      </g>
     </g>
     <g id="text_7">
      <!-- 6 -->
      <g transform="translate(481.540654 224.791947) scale(0.18 -0.18)">
       <defs>
        <path id="Arial-BoldMT-36" d="M 3247 3459 
L 2397 3366 
Q 2366 3628 2234 3753 
Q 2103 3878 1894 3878 
Q 1616 3878 1423 3628 
Q 1231 3378 1181 2588 
Q 1509 2975 1997 2975 
Q 2547 2975 2939 2556 
Q 3331 2138 3331 1475 
Q 3331 772 2918 347 
Q 2506 -78 1859 -78 
Q 1166 -78 719 461 
Q 272 1000 272 2228 
Q 272 3488 737 4044 
Q 1203 4600 1947 4600 
Q 2469 4600 2811 4308 
Q 3153 4016 3247 3459 
z
M 1256 1544 
Q 1256 1116 1453 883 
Q 1650 650 1903 650 
Q 2147 650 2309 840 
Q 2472 1031 2472 1466 
Q 2472 1913 2297 2120 
Q 2122 2328 1859 2328 
Q 1606 2328 1431 2129 
Q 1256 1931 1256 1544 
z
" transform="scale(0.015625)"/>
       </defs>
       <use xlink:href="#Arial-BoldMT-36"/>
      </g>
     </g>
    </g>
    <g id="xtick_8">
     <g id="line2d_8">
      <g>
       <use xlink:href="#mb4377227fb" x="379.090996" y="198.907885" style="stroke: #000000; stroke-width: 2"/>
      </g>
     </g>
     <g id="text_8">
      <!-- 7 -->
      <g transform="translate(374.086153 224.791947) scale(0.18 -0.18)">
       <defs>
        <path id="Arial-BoldMT-37" d="M 272 3703 
L 272 4519 
L 3275 4519 
L 3275 3881 
Q 2903 3516 2518 2831 
Q 2134 2147 1932 1376 
Q 1731 606 1734 0 
L 888 0 
Q 909 950 1279 1937 
Q 1650 2925 2269 3703 
L 272 3703 
z
" transform="scale(0.015625)"/>
       </defs>
       <use xlink:href="#Arial-BoldMT-37"/>
      </g>
     </g>
    </g>
    <g id="xtick_9">
     <g id="line2d_9">
      <g>
       <use xlink:href="#mb4377227fb" x="271.636495" y="198.907885" style="stroke: #000000; stroke-width: 2"/>
      </g>
     </g>
     <g id="text_9">
      <!-- 8 -->
      <g transform="translate(266.631651 224.791947) scale(0.18 -0.18)">
       <defs>
        <path id="Arial-BoldMT-38" d="M 1025 2472 
Q 684 2616 529 2867 
Q 375 3119 375 3419 
Q 375 3931 733 4265 
Q 1091 4600 1750 4600 
Q 2403 4600 2764 4265 
Q 3125 3931 3125 3419 
Q 3125 3100 2959 2851 
Q 2794 2603 2494 2472 
Q 2875 2319 3073 2025 
Q 3272 1731 3272 1347 
Q 3272 713 2867 316 
Q 2463 -81 1791 -81 
Q 1166 -81 750 247 
Q 259 634 259 1309 
Q 259 1681 443 1992 
Q 628 2303 1025 2472 
z
M 1206 3356 
Q 1206 3094 1354 2947 
Q 1503 2800 1750 2800 
Q 2000 2800 2150 2948 
Q 2300 3097 2300 3359 
Q 2300 3606 2151 3754 
Q 2003 3903 1759 3903 
Q 1506 3903 1356 3753 
Q 1206 3603 1206 3356 
z
M 1125 1394 
Q 1125 1031 1311 828 
Q 1497 625 1775 625 
Q 2047 625 2225 820 
Q 2403 1016 2403 1384 
Q 2403 1706 2222 1901 
Q 2041 2097 1763 2097 
Q 1441 2097 1283 1875 
Q 1125 1653 1125 1394 
z
" transform="scale(0.015625)"/>
       </defs>
       <use xlink:href="#Arial-BoldMT-38"/>
      </g>
     </g>
    </g>
    <g id="xtick_10">
     <g id="line2d_10">
      <g>
       <use xlink:href="#mb4377227fb" x="164.181993" y="198.907885" style="stroke: #000000; stroke-width: 2"/>
      </g>
     </g>
     <g id="text_10">
      <!-- 9 -->
      <g transform="translate(159.177149 224.791947) scale(0.18 -0.18)">
       <defs>
        <path id="Arial-BoldMT-39" d="M 291 1059 
L 1141 1153 
Q 1172 894 1303 769 
Q 1434 644 1650 644 
Q 1922 644 2112 894 
Q 2303 1144 2356 1931 
Q 2025 1547 1528 1547 
Q 988 1547 595 1964 
Q 203 2381 203 3050 
Q 203 3747 617 4173 
Q 1031 4600 1672 4600 
Q 2369 4600 2816 4061 
Q 3263 3522 3263 2288 
Q 3263 1031 2797 475 
Q 2331 -81 1584 -81 
Q 1047 -81 715 205 
Q 384 491 291 1059 
z
M 2278 2978 
Q 2278 3403 2083 3637 
Q 1888 3872 1631 3872 
Q 1388 3872 1227 3680 
Q 1066 3488 1066 3050 
Q 1066 2606 1241 2398 
Q 1416 2191 1678 2191 
Q 1931 2191 2104 2391 
Q 2278 2591 2278 2978 
z
" transform="scale(0.015625)"/>
       </defs>
       <use xlink:href="#Arial-BoldMT-39"/>
      </g>
     </g>
    </g>
    <g id="xtick_11">
     <g id="line2d_11">
      <g>
       <use xlink:href="#mb4377227fb" x="56.727491" y="198.907885" style="stroke: #000000; stroke-width: 2"/>
      </g>
     </g>
     <g id="text_11">
      <!-- 10 -->
      <g transform="translate(46.717803 224.791947) scale(0.18 -0.18)">
       <use xlink:href="#Arial-BoldMT-31"/>
       <use xlink:href="#Arial-BoldMT-30" x="55.615234"/>
      </g>
     </g>
    </g>
    <g id="text_12">
     <!-- Chemical Shift / ppm -->
     <g transform="translate(504.992813 245.447573) scale(0.18 -0.18)">
      <defs>
       <path id="Arial-BoldMT-43" d="M 3397 1684 
L 4294 1400 
Q 4088 650 3608 286 
Q 3128 -78 2391 -78 
Q 1478 -78 890 545 
Q 303 1169 303 2250 
Q 303 3394 893 4026 
Q 1484 4659 2447 4659 
Q 3288 4659 3813 4163 
Q 4125 3869 4281 3319 
L 3366 3100 
Q 3284 3456 3026 3662 
Q 2769 3869 2400 3869 
Q 1891 3869 1573 3503 
Q 1256 3138 1256 2319 
Q 1256 1450 1568 1081 
Q 1881 713 2381 713 
Q 2750 713 3015 947 
Q 3281 1181 3397 1684 
z
" transform="scale(0.015625)"/>
       <path id="Arial-BoldMT-68" d="M 1334 4581 
L 1334 2897 
Q 1759 3394 2350 3394 
Q 2653 3394 2897 3281 
Q 3141 3169 3264 2994 
Q 3388 2819 3433 2606 
Q 3478 2394 3478 1947 
L 3478 0 
L 2600 0 
L 2600 1753 
Q 2600 2275 2550 2415 
Q 2500 2556 2373 2639 
Q 2247 2722 2056 2722 
Q 1838 2722 1666 2615 
Q 1494 2509 1414 2295 
Q 1334 2081 1334 1663 
L 1334 0 
L 456 0 
L 456 4581 
L 1334 4581 
z
" transform="scale(0.015625)"/>
       <path id="Arial-BoldMT-65" d="M 2381 1056 
L 3256 909 
Q 3088 428 2723 176 
Q 2359 -75 1813 -75 
Q 947 -75 531 491 
Q 203 944 203 1634 
Q 203 2459 634 2926 
Q 1066 3394 1725 3394 
Q 2466 3394 2894 2905 
Q 3322 2416 3303 1406 
L 1103 1406 
Q 1113 1016 1316 798 
Q 1519 581 1822 581 
Q 2028 581 2168 693 
Q 2309 806 2381 1056 
z
M 2431 1944 
Q 2422 2325 2234 2523 
Q 2047 2722 1778 2722 
Q 1491 2722 1303 2513 
Q 1116 2303 1119 1944 
L 2431 1944 
z
" transform="scale(0.015625)"/>
       <path id="Arial-BoldMT-6d" d="M 394 3319 
L 1203 3319 
L 1203 2866 
Q 1638 3394 2238 3394 
Q 2556 3394 2790 3262 
Q 3025 3131 3175 2866 
Q 3394 3131 3647 3262 
Q 3900 3394 4188 3394 
Q 4553 3394 4806 3245 
Q 5059 3097 5184 2809 
Q 5275 2597 5275 2122 
L 5275 0 
L 4397 0 
L 4397 1897 
Q 4397 2391 4306 2534 
Q 4184 2722 3931 2722 
Q 3747 2722 3584 2609 
Q 3422 2497 3350 2280 
Q 3278 2063 3278 1594 
L 3278 0 
L 2400 0 
L 2400 1819 
Q 2400 2303 2353 2443 
Q 2306 2584 2207 2653 
Q 2109 2722 1941 2722 
Q 1738 2722 1575 2612 
Q 1413 2503 1342 2297 
Q 1272 2091 1272 1613 
L 1272 0 
L 394 0 
L 394 3319 
z
" transform="scale(0.015625)"/>
       <path id="Arial-BoldMT-69" d="M 459 3769 
L 459 4581 
L 1338 4581 
L 1338 3769 
L 459 3769 
z
M 459 0 
L 459 3319 
L 1338 3319 
L 1338 0 
L 459 0 
z
" transform="scale(0.015625)"/>
       <path id="Arial-BoldMT-63" d="M 3353 2338 
L 2488 2181 
Q 2444 2441 2289 2572 
Q 2134 2703 1888 2703 
Q 1559 2703 1364 2476 
Q 1169 2250 1169 1719 
Q 1169 1128 1367 884 
Q 1566 641 1900 641 
Q 2150 641 2309 783 
Q 2469 925 2534 1272 
L 3397 1125 
Q 3263 531 2881 228 
Q 2500 -75 1859 -75 
Q 1131 -75 698 384 
Q 266 844 266 1656 
Q 266 2478 700 2936 
Q 1134 3394 1875 3394 
Q 2481 3394 2839 3133 
Q 3197 2872 3353 2338 
z
" transform="scale(0.015625)"/>
       <path id="Arial-BoldMT-61" d="M 1116 2306 
L 319 2450 
Q 453 2931 781 3162 
Q 1109 3394 1756 3394 
Q 2344 3394 2631 3255 
Q 2919 3116 3036 2902 
Q 3153 2688 3153 2116 
L 3144 1091 
Q 3144 653 3186 445 
Q 3228 238 3344 0 
L 2475 0 
Q 2441 88 2391 259 
Q 2369 338 2359 363 
Q 2134 144 1878 34 
Q 1622 -75 1331 -75 
Q 819 -75 523 203 
Q 228 481 228 906 
Q 228 1188 362 1408 
Q 497 1628 739 1745 
Q 981 1863 1438 1950 
Q 2053 2066 2291 2166 
L 2291 2253 
Q 2291 2506 2166 2614 
Q 2041 2722 1694 2722 
Q 1459 2722 1328 2630 
Q 1197 2538 1116 2306 
z
M 2291 1594 
Q 2122 1538 1756 1459 
Q 1391 1381 1278 1306 
Q 1106 1184 1106 997 
Q 1106 813 1243 678 
Q 1381 544 1594 544 
Q 1831 544 2047 700 
Q 2206 819 2256 991 
Q 2291 1103 2291 1419 
L 2291 1594 
z
" transform="scale(0.015625)"/>
       <path id="Arial-BoldMT-6c" d="M 459 0 
L 459 4581 
L 1338 4581 
L 1338 0 
L 459 0 
z
" transform="scale(0.015625)"/>
       <path id="Arial-BoldMT-20" transform="scale(0.015625)"/>
       <path id="Arial-BoldMT-53" d="M 231 1491 
L 1131 1578 
Q 1213 1125 1461 912 
Q 1709 700 2131 700 
Q 2578 700 2804 889 
Q 3031 1078 3031 1331 
Q 3031 1494 2936 1608 
Q 2841 1722 2603 1806 
Q 2441 1863 1863 2006 
Q 1119 2191 819 2459 
Q 397 2838 397 3381 
Q 397 3731 595 4036 
Q 794 4341 1167 4500 
Q 1541 4659 2069 4659 
Q 2931 4659 3367 4281 
Q 3803 3903 3825 3272 
L 2900 3231 
Q 2841 3584 2645 3739 
Q 2450 3894 2059 3894 
Q 1656 3894 1428 3728 
Q 1281 3622 1281 3444 
Q 1281 3281 1419 3166 
Q 1594 3019 2269 2859 
Q 2944 2700 3267 2529 
Q 3591 2359 3773 2064 
Q 3956 1769 3956 1334 
Q 3956 941 3737 597 
Q 3519 253 3119 86 
Q 2719 -81 2122 -81 
Q 1253 -81 787 320 
Q 322 722 231 1491 
z
" transform="scale(0.015625)"/>
       <path id="Arial-BoldMT-66" d="M 75 3319 
L 563 3319 
L 563 3569 
Q 563 3988 652 4194 
Q 741 4400 980 4529 
Q 1219 4659 1584 4659 
Q 1959 4659 2319 4547 
L 2200 3934 
Q 1991 3984 1797 3984 
Q 1606 3984 1523 3895 
Q 1441 3806 1441 3553 
L 1441 3319 
L 2097 3319 
L 2097 2628 
L 1441 2628 
L 1441 0 
L 563 0 
L 563 2628 
L 75 2628 
L 75 3319 
z
" transform="scale(0.015625)"/>
       <path id="Arial-BoldMT-74" d="M 1981 3319 
L 1981 2619 
L 1381 2619 
L 1381 1281 
Q 1381 875 1398 808 
Q 1416 741 1477 697 
Q 1538 653 1625 653 
Q 1747 653 1978 738 
L 2053 56 
Q 1747 -75 1359 -75 
Q 1122 -75 931 4 
Q 741 84 652 211 
Q 563 338 528 553 
Q 500 706 500 1172 
L 500 2619 
L 97 2619 
L 97 3319 
L 500 3319 
L 500 3978 
L 1381 4491 
L 1381 3319 
L 1981 3319 
z
" transform="scale(0.015625)"/>
       <path id="Arial-BoldMT-2f" d="M -9 -78 
L 1125 4659 
L 1784 4659 
L 638 -78 
L -9 -78 
z
" transform="scale(0.015625)"/>
       <path id="Arial-BoldMT-70" d="M 434 3319 
L 1253 3319 
L 1253 2831 
Q 1413 3081 1684 3237 
Q 1956 3394 2288 3394 
Q 2866 3394 3269 2941 
Q 3672 2488 3672 1678 
Q 3672 847 3265 386 
Q 2859 -75 2281 -75 
Q 2006 -75 1782 34 
Q 1559 144 1313 409 
L 1313 -1263 
L 434 -1263 
L 434 3319 
z
M 1303 1716 
Q 1303 1156 1525 889 
Q 1747 622 2066 622 
Q 2372 622 2575 867 
Q 2778 1113 2778 1672 
Q 2778 2194 2568 2447 
Q 2359 2700 2050 2700 
Q 1728 2700 1515 2451 
Q 1303 2203 1303 1716 
z
" transform="scale(0.015625)"/>
      </defs>
      <use xlink:href="#Arial-BoldMT-43"/>
      <use xlink:href="#Arial-BoldMT-68" x="72.216797"/>
      <use xlink:href="#Arial-BoldMT-65" x="133.300781"/>
      <use xlink:href="#Arial-BoldMT-6d" x="188.916016"/>
      <use xlink:href="#Arial-BoldMT-69" x="277.832031"/>
      <use xlink:href="#Arial-BoldMT-63" x="305.615234"/>
      <use xlink:href="#Arial-BoldMT-61" x="361.230469"/>
      <use xlink:href="#Arial-BoldMT-6c" x="416.845703"/>
      <use xlink:href="#Arial-BoldMT-20" x="444.628906"/>
      <use xlink:href="#Arial-BoldMT-53" x="472.412109"/>
      <use xlink:href="#Arial-BoldMT-68" x="539.111328"/>
      <use xlink:href="#Arial-BoldMT-69" x="600.195312"/>
      <use xlink:href="#Arial-BoldMT-66" x="627.978516"/>
      <use xlink:href="#Arial-BoldMT-74" x="661.279297"/>
      <use xlink:href="#Arial-BoldMT-20" x="694.580078"/>
      <use xlink:href="#Arial-BoldMT-2f" x="722.363281"/>
      <use xlink:href="#Arial-BoldMT-20" x="750.146484"/>
      <use xlink:href="#Arial-BoldMT-70" x="777.929688"/>
      <use xlink:href="#Arial-BoldMT-70" x="839.013672"/>
      <use xlink:href="#Arial-BoldMT-6d" x="900.097656"/>
     </g>
    </g>
   </g>
   <g id="matplotlib.axis_2"/>
   <g id="line2d_12">
    <path d="M 2.920341 140.116907 
L 5.171158 157.886564 
L 5.580398 159.701665 
L 6.808116 164.164754 
L 7.421975 166.454327 
L 10.491271 174.619352 
L 11.10513 175.662356 
L 11.718989 177.393689 
L 12.946708 181.000459 
L 13.151327 181.196728 
L 13.765187 181.228202 
L 14.379046 181.780506 
L 14.992905 181.942724 
L 15.402144 182.614009 
L 16.834482 186.070886 
L 17.039102 186.087839 
L 17.448342 185.485946 
L 18.062201 184.429728 
L 18.47144 184.030565 
L 18.67606 184.000742 
L 19.085299 184.337719 
L 19.494539 184.804677 
L 19.699159 184.835189 
L 20.517638 184.447716 
L 20.926877 184.94288 
L 21.540736 185.796458 
L 22.359215 186.43529 
L 23.382314 187.730014 
L 23.586933 187.649024 
L 24.405412 186.335476 
L 24.610032 186.315746 
L 25.428511 186.807062 
L 25.83775 187.235812 
L 26.656229 188.683751 
L 27.065469 188.823479 
L 27.270089 188.677833 
L 27.679328 187.881577 
L 28.907046 185.037575 
L 29.316286 185.26285 
L 30.544004 186.276975 
L 31.157863 186.597942 
L 31.567103 187.300085 
L 32.385582 188.77899 
L 33.204061 189.830997 
L 33.40868 189.79297 
L 33.81792 189.131849 
L 34.636399 187.290284 
L 35.659497 185.658183 
L 36.068737 185.686299 
L 36.477976 185.72487 
L 36.887216 185.256969 
L 37.705695 184.044578 
L 37.910314 183.949792 
L 38.114934 184.063981 
L 38.524174 184.809905 
L 39.956512 188.381116 
L 40.365751 189.175158 
L 40.570371 189.187047 
L 41.38885 188.778627 
L 42.002709 188.834878 
L 42.411948 188.389774 
L 42.821188 187.980973 
L 44.458146 187.167999 
L 44.662765 187.23799 
L 45.685864 188.479296 
L 46.708963 189.899118 
L 46.913582 189.825661 
L 47.322822 189.270016 
L 47.936681 188.281212 
L 48.34592 187.972369 
L 48.75516 187.993388 
L 49.164399 188.410249 
L 49.778258 189.372843 
L 49.982878 189.422432 
L 50.392118 189.023832 
L 50.801357 188.490912 
L 51.005977 188.368791 
L 51.210597 188.455209 
L 52.438315 190.333749 
L 53.256794 192.096484 
L 53.461414 192.097119 
L 53.870653 191.529477 
L 55.507611 188.666108 
L 55.91685 188.320763 
L 56.12147 188.367974 
L 56.530709 188.856568 
L 57.144569 189.737155 
L 57.553808 189.907286 
L 58.167667 189.630916 
L 58.576907 189.57011 
L 59.600005 189.801538 
L 60.827724 191.007539 
L 61.236963 190.757979 
L 62.055442 190.08103 
L 62.669301 190.078543 
L 63.078541 190.063096 
L 64.101639 189.407784 
L 64.715499 189.43855 
L 65.329358 189.252609 
L 66.147837 188.924926 
L 66.557076 189.018767 
L 67.375555 189.599479 
L 67.580175 189.59819 
L 67.989414 189.234422 
L 68.398654 188.802623 
L 68.603273 188.751346 
L 68.807893 188.885683 
L 69.421752 189.567859 
L 70.035611 189.174359 
L 70.240231 189.305139 
L 70.649471 190.188376 
L 71.05871 191.161026 
L 71.26333 191.393869 
L 71.46795 191.383015 
L 71.877189 190.755274 
L 72.286428 190.000239 
L 72.900288 189.469298 
L 74.332626 188.224743 
L 74.537245 188.354252 
L 75.355724 189.591401 
L 76.174203 191.121511 
L 76.378823 191.056457 
L 77.197302 190.341608 
L 77.606541 190.341608 
L 78.220401 190.695756 
L 78.42502 190.661795 
L 78.83426 190.22515 
L 79.243499 189.690652 
L 79.448119 189.618592 
L 79.652739 189.74536 
L 80.471218 190.737268 
L 80.675837 190.524845 
L 81.085077 189.611132 
L 81.903556 187.441211 
L 82.108175 187.209783 
L 82.312795 187.17515 
L 83.131274 187.48167 
L 83.540513 187.060816 
L 83.949753 186.651216 
L 84.358992 186.850752 
L 85.382091 187.308054 
L 85.586711 187.215718 
L 85.79133 186.867742 
L 86.20057 185.452947 
L 88.451387 175.35148 
L 88.656007 175.248999 
L 88.860626 175.45614 
L 89.269866 176.812651 
L 90.702204 183.671316 
L 91.316063 185.34217 
L 92.134542 186.757873 
L 92.543781 187.088914 
L 92.953021 186.782776 
L 93.36226 186.556667 
L 93.56688 186.668387 
L 93.976119 187.310159 
L 94.589979 189.149783 
L 94.999218 190.212898 
L 95.203838 190.456542 
L 95.408458 190.518437 
L 95.817697 190.276173 
L 96.840796 189.073584 
L 97.659275 189.316048 
L 98.068514 188.962444 
L 98.477753 188.474685 
L 99.091613 188.020034 
L 100.114711 186.718049 
L 100.319331 186.712331 
L 101.34243 187.377064 
L 101.751669 187.306384 
L 102.160909 187.506246 
L 102.979387 188.498046 
L 103.184007 188.468405 
L 103.797866 188.001593 
L 104.207106 188.136801 
L 104.616345 188.315082 
L 105.434824 188.385545 
L 105.844064 188.835077 
L 106.253303 189.296644 
L 106.662543 189.380103 
L 107.276402 189.099939 
L 107.890261 188.744013 
L 108.2995 189.104731 
L 108.70874 189.516128 
L 109.322599 189.746648 
L 109.936458 189.889879 
L 110.550317 190.291311 
L 110.754937 190.195945 
L 111.164177 189.526402 
L 111.573416 188.701394 
L 111.778036 188.524111 
L 112.187275 188.62966 
L 112.596515 188.746699 
L 112.801134 188.673296 
L 113.210374 188.143063 
L 113.619613 187.613556 
L 113.824233 187.673691 
L 114.642712 188.848618 
L 114.847332 188.852266 
L 115.256571 188.375162 
L 115.87043 187.281426 
L 116.27967 186.49321 
L 116.484289 186.426632 
L 116.893529 186.969879 
L 117.916628 188.72381 
L 118.121247 188.764832 
L 118.735106 188.483307 
L 119.144346 188.762418 
L 119.758205 189.412485 
L 120.167445 189.606557 
L 120.576684 189.489627 
L 121.599783 188.985297 
L 122.009022 189.109977 
L 122.622881 189.427296 
L 123.032121 189.539779 
L 123.8506 190.24773 
L 124.259839 190.284015 
L 124.464459 190.400055 
L 124.669078 190.694486 
L 125.282938 192.212851 
L 125.487557 192.306493 
L 125.692177 192.077679 
L 126.510656 190.492917 
L 126.919895 190.141274 
L 127.329135 190.077363 
L 127.738374 190.47119 
L 128.147614 190.907599 
L 128.556853 191.07577 
L 129.170712 191.242379 
L 129.579952 191.419481 
L 129.784572 191.38434 
L 130.193811 190.944137 
L 130.603051 190.458774 
L 130.80767 190.495567 
L 131.21691 190.859952 
L 131.421529 190.890827 
L 131.830769 190.511848 
L 133.058487 188.889204 
L 133.263107 188.782348 
L 133.467727 188.946889 
L 133.876966 190.020241 
L 134.286206 191.072557 
L 134.695445 191.619452 
L 135.104685 191.716652 
L 135.513924 191.369837 
L 135.923163 190.846466 
L 136.332403 190.715124 
L 137.560121 191.175365 
L 137.969361 190.756036 
L 138.58322 189.938597 
L 138.992459 189.716844 
L 139.401699 189.938125 
L 140.015558 190.554122 
L 140.220178 190.496946 
L 140.629417 189.86425 
L 141.652516 187.724551 
L 141.857136 187.686488 
L 142.266375 188.10264 
L 142.675614 188.864555 
L 143.698713 191.20232 
L 144.107953 191.734567 
L 144.312572 191.726036 
L 144.517192 191.45876 
L 145.131051 190.169517 
L 145.540291 190.023726 
L 146.563389 190.031513 
L 146.972629 189.715211 
L 147.381868 189.317518 
L 148.200347 189.198682 
L 148.609587 189.281887 
L 149.018826 189.861418 
L 149.428065 190.641067 
L 149.632685 190.845649 
L 149.837305 190.885872 
L 150.655784 190.506294 
L 151.065023 190.877196 
L 151.474263 191.1173 
L 151.678882 190.92359 
L 152.292742 189.724413 
L 152.497361 189.706117 
L 153.72508 190.67726 
L 154.338939 191.606002 
L 154.748178 191.718649 
L 155.157418 191.391764 
L 155.566657 190.505967 
L 156.589756 187.287307 
L 156.998995 187.031575 
L 157.408235 187.244833 
L 158.022094 187.828194 
L 158.226714 187.852608 
L 158.635953 187.591376 
L 159.045193 187.313953 
L 159.249812 187.304042 
L 159.454432 187.433823 
L 159.863672 188.088827 
L 160.477531 189.089031 
L 161.29601 190.385171 
L 161.500629 190.337542 
L 161.909869 189.590403 
L 162.319108 188.913527 
L 162.523728 188.833135 
L 162.932967 188.965312 
L 163.546827 189.31966 
L 163.751446 189.306518 
L 164.569925 188.761147 
L 164.979165 188.953223 
L 165.593024 189.454686 
L 165.797644 189.425772 
L 167.434601 187.925194 
L 167.639221 187.744789 
L 167.843841 187.766008 
L 168.048461 188.085542 
L 168.866939 190.162147 
L 169.071559 190.245734 
L 169.276179 190.104318 
L 169.890038 189.093823 
L 170.094658 189.074038 
L 170.913137 189.727807 
L 171.322376 189.390104 
L 171.936235 188.813604 
L 172.345475 188.642983 
L 172.959334 188.492492 
L 173.573193 188.014625 
L 174.187052 187.467639 
L 174.596292 187.65574 
L 175.61939 188.526598 
L 175.82401 188.581451 
L 176.02863 188.454029 
L 176.847109 187.555491 
L 177.256348 187.44544 
L 177.665588 187.762196 
L 178.279447 188.260338 
L 178.688686 188.452886 
L 179.711785 188.51872 
L 180.121024 188.841866 
L 181.962602 191.105447 
L 182.985701 191.560171 
L 183.59956 191.809477 
L 184.008799 191.586435 
L 184.622658 190.994071 
L 185.236518 190.88834 
L 185.645757 190.818204 
L 186.054997 191.372124 
L 186.464236 191.743643 
L 187.078095 191.45905 
L 187.487335 191.225862 
L 188.305814 190.299516 
L 189.124292 189.262919 
L 189.533532 189.187192 
L 189.942771 189.204944 
L 190.352011 189.064399 
L 190.76125 189.184306 
L 191.579729 189.928578 
L 192.193588 190.504479 
L 192.398208 190.521414 
L 192.602828 190.276845 
L 193.216687 189.097943 
L 193.830546 188.902346 
L 194.649025 188.112188 
L 195.262884 188.079824 
L 195.876743 188.249538 
L 196.081363 188.148853 
L 196.695222 187.569031 
L 197.104462 187.807248 
L 197.513701 187.9972 
L 198.12756 188.04786 
L 198.5368 188.168656 
L 198.74142 188.041924 
L 199.150659 187.235667 
L 199.764518 185.870406 
L 200.787617 184.748082 
L 201.401476 184.595593 
L 201.606096 184.709311 
L 202.015335 185.360521 
L 202.424575 186.020335 
L 202.833814 186.182807 
L 203.447673 185.925822 
L 203.856913 186.603733 
L 204.061532 186.924501 
L 204.266152 186.901358 
L 204.470772 186.499763 
L 205.084631 184.323707 
L 205.69849 181.58716 
L 206.312349 177.958482 
L 206.721589 174.170437 
L 207.949307 159.585425 
L 208.153927 159.418089 
L 208.358547 160.085273 
L 208.767786 163.365774 
L 210.200124 178.212345 
L 210.813983 181.415304 
L 211.427843 183.553588 
L 211.837082 184.529904 
L 212.246322 184.984483 
L 212.860181 185.454399 
L 213.26942 185.462676 
L 214.292519 184.90852 
L 214.701758 185.637563 
L 215.110998 186.244738 
L 215.315617 186.151568 
L 215.724857 185.165741 
L 216.338716 183.352364 
L 216.543336 183.170924 
L 216.747956 183.301486 
L 217.157195 184.299239 
L 217.771054 185.763732 
L 218.384913 186.784083 
L 219.612632 188.060965 
L 220.021871 188.013427 
L 220.63573 187.412986 
L 221.454209 186.669658 
L 222.068068 185.631591 
L 222.272688 185.607631 
L 223.091167 186.334732 
L 223.500407 186.556177 
L 224.728125 188.168892 
L 225.137364 188.316316 
L 225.751224 188.220569 
L 225.955843 188.075776 
L 226.365083 187.398319 
L 227.183562 185.898722 
L 227.388181 185.921611 
L 227.592801 186.210269 
L 228.6159 188.609385 
L 229.025139 188.725989 
L 229.434379 188.82553 
L 230.048238 189.204037 
L 230.662097 189.209754 
L 231.071336 188.87844 
L 231.480576 188.38854 
L 231.685196 188.303846 
L 232.094435 188.433718 
L 232.503675 188.795635 
L 233.117534 189.717371 
L 233.322153 189.714484 
L 233.731393 188.959558 
L 234.140632 188.126436 
L 234.549872 187.899183 
L 234.959111 187.757532 
L 235.57297 187.188909 
L 236.391449 187.227244 
L 237.005309 186.871427 
L 237.823787 186.664521 
L 238.437647 186.021642 
L 239.460745 184.546422 
L 240.483844 182.232616 
L 240.688464 182.181648 
L 241.097703 182.483557 
L 241.711562 183.109156 
L 242.120802 183.106288 
L 242.530041 183.043721 
L 243.34852 183.110753 
L 243.757759 182.597728 
L 244.166999 181.495769 
L 245.394717 176.606781 
L 245.803957 176.293781 
L 246.622436 176.208616 
L 246.827055 176.026124 
L 247.236295 174.9085 
L 247.645534 173.035606 
L 248.464013 167.654847 
L 249.077872 162.901721 
L 249.896351 154.218371 
L 250.71483 143.219672 
L 251.328689 135.449237 
L 251.737929 132.225675 
L 252.147168 130.47904 
L 252.556408 129.462918 
L 252.761027 129.224938 
L 252.965647 129.194698 
L 253.170267 129.369458 
L 253.374887 129.765607 
L 253.784126 131.305791 
L 254.193366 133.761775 
L 254.807225 139.323446 
L 255.830323 148.90744 
L 256.444183 152.413325 
L 256.648802 152.952507 
L 256.853422 153.102018 
L 257.058042 152.944738 
L 257.671901 151.926311 
L 258.08114 150.631713 
L 258.49038 148.023622 
L 259.104239 142.217981 
L 261.559676 115.018016 
L 261.968915 113.128821 
L 262.582774 111.30194 
L 262.787394 111.344668 
L 262.992014 112.106419 
L 263.401253 115.688358 
L 264.015112 124.082051 
L 266.06131 155.742 
L 266.675169 162.397699 
L 267.084408 165.083204 
L 267.493648 166.454418 
L 267.902887 167.029793 
L 268.107507 167.102579 
L 268.516746 166.926694 
L 269.335225 166.37929 
L 269.744465 166.117659 
L 270.153704 165.191639 
L 270.972183 162.146613 
L 271.586042 158.864387 
L 272.199902 154.111515 
L 272.813761 147.68247 
L 273.42762 138.25523 
L 274.655338 117.815532 
L 275.064578 114.731935 
L 275.269197 114.127264 
L 275.473817 113.918834 
L 276.087676 113.937893 
L 276.292296 114.062773 
L 276.496916 114.437286 
L 276.906155 116.228918 
L 277.929254 124.08383 
L 278.543113 129.298741 
L 279.361592 136.475669 
L 279.770831 138.55173 
L 280.180071 139.467294 
L 280.58931 139.693875 
L 280.79393 139.527974 
L 280.99855 139.100041 
L 281.407789 137.187323 
L 281.817029 133.283418 
L 282.226268 127.167209 
L 282.840127 114.034384 
L 283.658606 96.045171 
L 284.067846 90.371634 
L 284.477085 87.653165 
L 284.681705 87.081657 
L 284.886325 86.883174 
L 285.090944 86.976144 
L 285.704803 87.683278 
L 285.909423 88.104967 
L 286.114043 88.94495 
L 286.318663 90.42832 
L 286.727902 95.936028 
L 287.341761 110.20234 
L 288.36486 135.202308 
L 288.978719 145.391608 
L 289.592578 150.988801 
L 291.638776 164.509717 
L 292.048015 165.32211 
L 292.457254 165.337466 
L 292.866494 165.392029 
L 293.275733 165.83902 
L 293.684973 166.753096 
L 294.094212 168.335916 
L 295.117311 173.295857 
L 295.52655 174.212874 
L 296.345029 175.11733 
L 297.163508 176.324638 
L 297.572748 176.557591 
L 297.981987 176.608414 
L 298.186607 176.838281 
L 298.595846 177.933451 
L 299.618945 181.985415 
L 299.823565 182.398373 
L 300.028184 182.532547 
L 300.232804 182.374414 
L 300.846663 181.38187 
L 301.665142 180.985121 
L 302.074382 180.983324 
L 302.483621 181.310626 
L 302.892861 181.990171 
L 303.50672 183.140884 
L 303.711339 183.130756 
L 304.120579 182.468981 
L 304.529818 181.896402 
L 305.348297 181.779926 
L 306.371396 180.555882 
L 307.189875 180.363062 
L 307.599114 179.706424 
L 308.212973 178.448818 
L 308.826833 177.57865 
L 309.849931 175.541941 
L 310.46379 174.136312 
L 311.486889 171.162003 
L 312.100748 167.875838 
L 313.737706 158.072378 
L 314.146946 156.198648 
L 314.760805 152.82975 
L 315.170044 151.886632 
L 315.374664 151.855085 
L 315.783903 152.214751 
L 316.193143 152.89867 
L 318.03472 157.160825 
L 318.23934 157.084463 
L 318.44396 156.740679 
L 318.853199 155.171744 
L 320.080918 148.437342 
L 320.694777 142.795062 
L 321.308636 134.547612 
L 322.127115 118.812596 
L 323.150213 98.447645 
L 323.764073 92.264241 
L 324.787171 84.941922 
L 325.196411 82.627263 
L 325.60565 81.495863 
L 326.01489 80.73923 
L 326.219509 80.069052 
L 326.628749 77.346844 
L 327.037988 71.335096 
L 327.651847 55.460388 
L 328.061087 45.542121 
L 328.470326 40.808344 
L 328.674946 40.508541 
L 328.879566 41.069667 
L 329.288805 42.769054 
L 329.493425 43.185987 
L 329.698045 43.033118 
L 329.902664 42.236553 
L 330.311904 38.700863 
L 331.130383 26.762459 
L 331.744242 19.653943 
L 332.153481 17.037085 
L 332.358101 16.409363 
L 332.562721 16.223676 
L 332.767341 16.434357 
L 332.97196 17.024271 
L 333.3812 19.474845 
L 333.790439 23.952564 
L 334.404298 34.426366 
L 336.450496 72.705003 
L 337.064355 82.015187 
L 337.473594 85.619288 
L 337.882834 87.18737 
L 338.087454 87.304717 
L 338.292073 87.021359 
L 338.701313 85.546883 
L 339.110552 82.898043 
L 339.519792 78.164973 
L 339.929031 70.201717 
L 340.74751 48.108319 
L 342.179848 4.299121 
L 342.384468 3.00024 
L 342.589088 4.709592 
L 342.998327 16.392428 
L 344.226045 62.927717 
L 344.635285 70.624731 
L 345.044524 73.571523 
L 345.453764 73.988075 
L 345.658383 74.833848 
L 345.863003 77.002353 
L 346.272243 85.955339 
L 347.295341 113.316251 
L 347.9092 122.517436 
L 348.727679 129.999032 
L 349.341539 133.616619 
L 350.160017 136.910952 
L 350.569257 138.593369 
L 352.410834 149.605227 
L 353.433933 157.402072 
L 354.047792 159.954275 
L 354.661651 161.724289 
L 355.070891 162.126411 
L 355.275511 162.157522 
L 355.48013 162.064606 
L 355.88937 161.458229 
L 356.298609 160.892275 
L 356.503229 160.966132 
L 356.707849 161.41915 
L 357.117088 163.278376 
L 359.981764 178.273641 
L 360.595623 179.976677 
L 361.823342 182.588452 
L 362.027962 182.585621 
L 362.437201 182.088696 
L 362.84644 181.530292 
L 363.05106 181.46012 
L 363.4603 181.700659 
L 364.892638 183.287056 
L 365.506497 184.239503 
L 365.915736 184.380139 
L 366.734215 184.307879 
L 367.552694 183.85419 
L 367.961934 183.635141 
L 368.985032 183.663366 
L 369.394272 183.507284 
L 369.598891 183.656759 
L 370.62199 185.250053 
L 371.440469 186.51579 
L 372.872807 188.395256 
L 373.282047 188.724065 
L 373.691286 188.756029 
L 374.100525 188.735336 
L 374.509765 189.011235 
L 374.919004 189.338319 
L 375.328244 189.337212 
L 376.351342 188.885538 
L 377.169821 187.527737 
L 377.783681 186.603624 
L 378.39754 185.994633 
L 379.420638 185.900229 
L 379.829878 186.170609 
L 380.443737 186.594621 
L 380.852976 186.716306 
L 381.262216 186.581951 
L 381.671455 186.086297 
L 382.285315 184.618355 
L 383.103793 181.665791 
L 383.513033 180.43367 
L 383.922272 179.932225 
L 384.536132 179.833736 
L 384.945371 179.901041 
L 385.35461 180.207996 
L 385.76385 180.819873 
L 386.173089 182.261749 
L 386.786949 184.422068 
L 388.014667 187.458781 
L 388.219287 187.582282 
L 388.628526 187.304169 
L 388.833146 187.176839 
L 389.242385 187.292316 
L 389.447005 187.389117 
L 389.651625 187.331668 
L 390.060864 186.674704 
L 390.674723 184.987786 
L 391.902442 180.631318 
L 392.311681 180.149585 
L 392.92554 179.792061 
L 393.33478 178.99929 
L 393.744019 177.551351 
L 394.153259 175.47097 
L 394.971738 170.365928 
L 395.176357 170.192747 
L 395.380977 170.658543 
L 395.994836 173.713262 
L 397.427174 180.408603 
L 398.245653 182.310866 
L 398.859512 183.572683 
L 399.882611 186.238567 
L 400.29185 186.4994 
L 400.90571 186.431169 
L 402.133428 185.875561 
L 403.156527 184.844428 
L 403.361146 184.820995 
L 403.565766 184.96851 
L 404.384245 186.297577 
L 404.588865 186.303058 
L 404.998104 185.918943 
L 405.407344 185.503661 
L 405.611963 185.451604 
L 405.816583 185.551254 
L 406.225823 186.173313 
L 406.839682 187.339582 
L 408.0674 188.473469 
L 408.47664 188.781422 
L 409.295118 188.575769 
L 409.499738 188.685058 
L 409.908978 189.298677 
L 410.318217 189.985936 
L 410.727457 190.280312 
L 411.136696 190.3411 
L 411.545935 189.92286 
L 412.569034 188.757717 
L 413.182893 188.72116 
L 413.592133 188.892853 
L 414.205992 189.550997 
L 414.410612 189.565372 
L 414.819851 189.187773 
L 415.84295 187.816686 
L 416.456809 186.303821 
L 416.661429 186.054895 
L 417.275288 185.863164 
L 417.684527 185.253084 
L 419.321485 182.001842 
L 419.935344 181.385337 
L 420.344584 180.618612 
L 420.753823 179.374566 
L 421.367682 176.5414 
L 422.390781 171.30645 
L 422.595401 170.845664 
L 422.80002 170.855284 
L 423.00464 171.422146 
L 423.41388 173.908134 
L 424.232359 179.698111 
L 424.641598 181.181009 
L 424.846218 181.28565 
L 425.255457 180.751134 
L 425.460077 180.487887 
L 425.664697 180.447174 
L 425.869316 180.745689 
L 426.278556 182.322846 
L 426.892415 185.377184 
L 427.097035 185.897234 
L 427.301654 185.927292 
L 427.710894 185.068142 
L 428.120133 184.26045 
L 428.324753 184.122029 
L 428.733993 184.303323 
L 429.143232 184.584376 
L 429.347852 184.578059 
L 429.757091 184.164539 
L 430.166331 183.235488 
L 430.78019 181.702692 
L 430.98481 181.638909 
L 431.394049 182.203357 
L 431.803288 182.620635 
L 432.007908 182.492505 
L 432.417148 181.70507 
L 433.235626 179.052618 
L 433.849486 177.352904 
L 434.258725 176.799401 
L 434.463345 176.929799 
L 434.667965 177.437615 
L 435.281824 180.453781 
L 436.100303 184.098178 
L 436.509542 184.940321 
L 437.328021 185.894711 
L 437.94188 186.833763 
L 438.760359 187.554692 
L 439.374218 188.353562 
L 439.578838 188.338334 
L 440.397317 187.57631 
L 441.215796 187.82765 
L 441.625035 187.778097 
L 442.443514 188.10353 
L 442.852754 188.69544 
L 443.875852 190.951997 
L 444.898951 192.841554 
L 445.103571 192.800696 
L 445.51281 192.210038 
L 446.535909 190.598847 
L 446.740528 190.449989 
L 446.945148 190.491592 
L 447.354388 191.157305 
L 447.763627 191.998268 
L 448.172867 192.29406 
L 448.786726 192.308163 
L 448.991345 192.155348 
L 449.400585 191.358765 
L 449.809824 190.576594 
L 450.014444 190.433199 
L 450.423684 190.53461 
L 450.832923 190.62415 
L 451.242162 190.481681 
L 451.856022 190.061898 
L 452.060641 190.140602 
L 452.469881 190.623133 
L 452.674501 190.675481 
L 453.08374 190.246278 
L 453.697599 189.558293 
L 454.720698 189.019366 
L 455.948416 190.100651 
L 456.357656 190.578899 
L 456.562275 190.591568 
L 457.176135 189.978294 
L 458.813092 188.317278 
L 459.017712 188.073889 
L 459.222332 188.0135 
L 459.426952 188.227738 
L 460.040811 189.353403 
L 460.45005 189.446573 
L 460.85929 189.594741 
L 461.268529 189.873798 
L 462.496247 190.01917 
L 463.314726 189.20872 
L 463.519346 189.312998 
L 464.542445 190.468267 
L 465.360924 190.39107 
L 465.770163 190.317885 
L 466.588642 190.723655 
L 466.997881 190.541598 
L 468.02098 189.610333 
L 468.43022 189.886794 
L 468.839459 190.156629 
L 470.067177 190.531034 
L 470.476417 189.972032 
L 471.499515 188.395709 
L 471.908755 188.039801 
L 472.317994 188.019744 
L 472.727234 188.289906 
L 473.136473 189.150309 
L 473.750332 190.659835 
L 474.159572 191.165473 
L 474.568811 191.30217 
L 474.978051 191.362486 
L 475.38729 191.849791 
L 476.205769 192.982752 
L 476.819628 193.586352 
L 477.024248 193.547146 
L 477.228868 193.262244 
L 478.251966 190.969077 
L 478.456586 191.027469 
L 479.275065 192.219985 
L 479.684304 192.028871 
L 480.093544 191.786734 
L 480.707403 191.937371 
L 480.912023 191.777459 
L 481.525882 190.883966 
L 481.730502 190.831219 
L 482.139741 191.219309 
L 483.36746 192.540008 
L 483.572079 192.59595 
L 484.390558 192.321922 
L 485.004417 193.098049 
L 485.209037 192.956542 
L 485.822896 192.108554 
L 486.641375 191.606656 
L 487.459854 191.659403 
L 487.869094 191.26692 
L 488.482953 190.285812 
L 488.687572 190.222591 
L 489.096812 190.573054 
L 489.506051 190.808602 
L 489.915291 190.724399 
L 490.119911 190.867757 
L 491.347629 192.743247 
L 491.756868 192.857182 
L 491.961488 192.695455 
L 492.370728 191.875784 
L 492.984587 190.547878 
L 493.393826 189.876429 
L 493.598446 189.723723 
L 493.803066 189.779684 
L 494.826164 191.030737 
L 495.440023 192.015965 
L 495.644643 192.071816 
L 496.053883 191.959315 
L 496.667742 192.235486 
L 496.872362 192.106195 
L 497.281601 191.370636 
L 497.69084 190.554703 
L 499.123179 189.012342 
L 499.327798 188.980741 
L 499.941657 189.131468 
L 500.350897 188.731289 
L 501.373996 187.148033 
L 501.578615 187.376647 
L 502.601714 189.69646 
L 503.420193 192.024043 
L 503.624813 192.200272 
L 503.829432 192.132895 
L 504.443291 191.379621 
L 505.26177 190.058867 
L 506.694108 189.155573 
L 507.103348 189.296281 
L 507.512587 189.846625 
L 508.126447 190.874237 
L 508.535686 190.898723 
L 508.944925 190.770267 
L 509.354165 190.781394 
L 509.558785 190.615474 
L 509.968024 189.64001 
L 510.377263 188.689577 
L 510.581883 188.534185 
L 510.991123 188.605555 
L 511.400362 188.890511 
L 512.014221 189.421161 
L 512.62808 189.702704 
L 513.24194 190.042694 
L 515.083517 190.627308 
L 515.901996 190.900266 
L 516.720475 191.755804 
L 517.129714 191.529767 
L 517.538954 191.31404 
L 517.948193 191.329233 
L 518.562053 191.591137 
L 519.175912 192.32646 
L 520.19901 193.720762 
L 520.40363 193.737733 
L 520.81287 193.388722 
L 521.426729 192.563115 
L 522.040588 191.621068 
L 522.449827 191.43137 
L 522.654447 191.493265 
L 523.063687 192.130608 
L 523.677546 193.197172 
L 523.882165 193.288872 
L 524.700644 193.054377 
L 525.519123 193.461653 
L 525.928363 193.62407 
L 526.542222 194.180078 
L 526.746842 194.143558 
L 527.156081 193.662896 
L 527.76994 192.861393 
L 528.793039 191.827465 
L 530.225377 189.872563 
L 531.453095 188.871325 
L 531.862335 189.281343 
L 532.476194 190.279368 
L 532.680814 190.376949 
L 532.885433 190.219796 
L 533.499293 189.259434 
L 533.703912 189.133011 
L 533.908532 189.202929 
L 534.317772 189.739461 
L 534.727011 190.65782 
L 535.34087 192.072307 
L 535.54549 192.207333 
L 535.75011 192.187331 
L 536.159349 191.821584 
L 536.773208 191.176636 
L 537.387067 191.232959 
L 538.614786 190.185054 
L 539.433265 188.748369 
L 539.637884 188.792259 
L 540.047124 189.140889 
L 540.251744 189.111338 
L 541.070223 188.274133 
L 541.274842 188.298437 
L 541.684082 188.740038 
L 542.093321 189.319878 
L 542.297941 189.450711 
L 542.70718 189.345543 
L 543.730279 188.508483 
L 544.139518 188.559905 
L 544.548758 188.433972 
L 544.753378 188.56486 
L 545.162617 189.441545 
L 545.571857 190.630466 
L 545.776476 190.963069 
L 545.981096 191.01981 
L 546.185716 190.847718 
L 546.799575 189.915836 
L 547.004195 189.864196 
L 547.208814 190.013834 
L 547.618054 190.818422 
L 548.231913 192.402658 
L 548.641152 192.771545 
L 549.459631 192.622614 
L 549.868871 192.473793 
L 550.07349 192.6096 
L 550.891969 193.973281 
L 551.915068 194.421598 
L 552.324307 194.633495 
L 553.142786 194.471223 
L 553.552026 194.294412 
L 553.961265 194.029423 
L 554.370505 194.05645 
L 554.779744 194.046231 
L 555.188984 193.863249 
L 555.393603 193.901929 
L 556.007463 194.342749 
L 556.212082 194.270017 
L 556.825941 193.427257 
L 557.439801 192.775048 
L 558.25828 192.552242 
L 558.667519 191.856834 
L 559.690618 189.415081 
L 559.895237 189.38544 
L 560.304477 189.902041 
L 561.122956 191.290916 
L 562.964533 193.096488 
L 563.373773 193.092113 
L 564.192252 192.727401 
L 565.21535 191.38552 
L 565.41997 191.362177 
L 565.62459 191.472754 
L 566.033829 192.191887 
L 566.443069 192.942693 
L 566.647688 193.049113 
L 567.056928 192.828703 
L 567.466167 192.471342 
L 568.080026 192.330888 
L 568.489266 191.601319 
L 568.898505 190.746924 
L 569.103125 190.59195 
L 569.512365 190.858736 
L 569.716984 190.978207 
L 569.921604 190.895147 
L 570.535463 190.227818 
L 570.740083 190.389782 
L 571.149322 191.722442 
L 571.763182 194.122357 
L 572.172421 194.829092 
L 572.377041 194.875323 
L 572.78628 194.563504 
L 573.400139 193.644726 
L 574.423238 192.224014 
L 574.832477 191.922813 
L 575.241717 191.808842 
L 575.650956 191.594404 
L 576.060196 191.727107 
L 576.878675 192.401896 
L 577.287914 192.048764 
L 577.697154 191.679006 
L 577.901773 191.626604 
L 578.311013 191.913593 
L 578.924872 192.492089 
L 579.129492 192.414547 
L 579.538731 191.707903 
L 580.35721 190.096041 
L 580.76645 189.716681 
L 580.971069 189.69646 
L 581.789548 190.0935 
L 582.403407 189.674025 
L 583.426506 189.669833 
L 583.835745 190.25922 
L 584.244985 191.040248 
L 584.449605 191.174966 
L 584.858844 190.984614 
L 585.268084 190.828333 
L 585.677323 191.081124 
L 586.291182 191.822474 
L 587.109661 192.966126 
L 587.72352 193.136729 
L 588.13276 193.309746 
L 588.951239 193.280323 
L 589.360478 193.677653 
L 589.974337 194.479954 
L 590.178957 194.617903 
L 590.383577 194.595413 
L 591.202056 193.784799 
L 592.429774 192.59664 
L 592.839013 191.99295 
L 593.248253 191.84803 
L 593.862112 191.777204 
L 594.271351 191.823345 
L 594.885211 192.016437 
L 595.49907 192.017327 
L 595.908309 192.487297 
L 596.317549 193.065231 
L 596.522168 193.046263 
L 596.726788 192.67224 
L 597.545267 190.325454 
L 597.749887 190.176668 
L 598.159126 190.463421 
L 598.772985 191.211377 
L 599.796084 192.728617 
L 600.819183 192.397885 
L 601.228422 192.403983 
L 601.433042 192.518281 
L 601.842281 193.267018 
L 602.456141 194.614418 
L 602.86538 194.974592 
L 603.274619 195.098347 
L 603.479239 194.96096 
L 603.888479 194.21834 
L 605.320817 191.220816 
L 605.730056 190.745418 
L 605.934676 190.685319 
L 606.343915 191.011297 
L 606.753155 191.347602 
L 607.980873 191.62272 
L 608.390113 191.293239 
L 608.594732 191.272565 
L 608.799352 191.405631 
L 609.208592 192.052413 
L 609.617831 192.754592 
L 609.822451 192.901253 
L 610.23169 192.745099 
L 611.868648 192.007434 
L 612.277887 192.172483 
L 613.505606 193.149653 
L 613.710226 193.171543 
L 613.914845 193.041272 
L 614.528704 192.268212 
L 614.937944 192.221582 
L 615.347183 192.076209 
L 616.165662 191.401947 
L 616.574902 191.402255 
L 616.984141 191.435399 
L 617.188761 191.28489 
L 617.598 190.58507 
L 618.00724 189.837241 
L 618.21186 189.636253 
L 618.416479 189.631624 
L 618.825719 190.099526 
L 619.234958 190.560621 
L 620.053437 190.967788 
L 620.462677 191.680549 
L 621.076536 193.160888 
L 621.485775 193.659756 
L 621.690395 193.717422 
L 621.895015 193.601127 
L 622.304254 192.941477 
L 622.918113 191.909055 
L 623.327353 191.629926 
L 623.941212 191.328089 
L 625.16893 190.260418 
L 625.782789 189.389524 
L 626.192029 189.355526 
L 626.396649 189.454269 
L 626.601268 189.682012 
L 627.419747 191.330504 
L 627.624367 191.46691 
L 627.828987 191.457689 
L 628.033606 191.254087 
L 629.056705 189.410633 
L 629.465944 189.578332 
L 629.670564 189.659976 
L 630.079804 189.478265 
L 630.489043 189.338882 
L 631.512142 189.537438 
L 632.126001 189.190895 
L 632.94448 189.447372 
L 633.1491 189.178861 
L 633.762959 187.791384 
L 633.967578 187.625209 
L 634.172198 187.674508 
L 634.581438 188.228628 
L 634.990677 188.93863 
L 635.195297 189.06754 
L 635.809156 188.813187 
L 636.627635 188.66854 
L 637.241494 188.597533 
L 637.855353 188.206737 
L 638.059973 188.28633 
L 639.083072 189.596084 
L 639.901551 190.814501 
L 640.10617 190.924243 
L 640.31079 190.870098 
L 640.720029 190.161222 
L 641.129269 189.288276 
L 641.333889 189.120759 
L 641.743128 189.288766 
L 642.561607 189.72837 
L 643.584706 191.622865 
L 644.198565 192.169924 
L 644.403185 192.15916 
L 644.812424 191.582787 
L 645.221663 191.077603 
L 645.630903 190.785369 
L 646.244762 190.233954 
L 646.654002 190.362646 
L 648.08634 191.389568 
L 648.495579 191.348364 
L 648.904819 191.131675 
L 649.314058 190.522721 
L 649.927917 188.932368 
L 650.541776 187.028979 
L 650.951016 186.44422 
L 651.360255 186.397753 
L 651.564875 186.419081 
L 651.769495 186.320211 
L 652.587974 185.412198 
L 652.792593 185.609937 
L 653.201833 186.691802 
L 653.815692 188.836039 
L 654.020312 189.170584 
L 655.24803 189.708458 
L 655.861889 189.497396 
L 656.271129 189.73004 
L 656.680368 190.292037 
L 657.089608 190.825519 
L 657.294227 190.72164 
L 657.703467 189.719639 
L 658.317326 188.16194 
L 658.726565 187.712571 
L 659.545044 187.232218 
L 660.363523 186.170845 
L 660.772763 186.105482 
L 661.182002 186.303784 
L 661.591242 186.622592 
L 662.000481 186.598487 
L 662.205101 186.591771 
L 662.409721 186.746891 
L 663.432819 188.098012 
L 663.842059 188.082093 
L 664.455918 187.827976 
L 664.660537 187.60203 
L 665.069777 186.602916 
L 665.888256 184.387127 
L 666.297495 184.047591 
L 666.706735 183.99635 
L 667.115974 183.682788 
L 667.729833 183.153481 
L 667.934453 183.127779 
L 668.139073 183.255436 
L 668.548312 184.143974 
L 668.957552 185.208577 
L 669.162171 185.437736 
L 669.571411 185.43436 
L 670.59451 185.134121 
L 672.026848 186.015943 
L 672.231467 185.898522 
L 672.640707 185.261779 
L 673.254566 184.198663 
L 673.663805 184.176646 
L 674.073045 184.107853 
L 674.482284 183.621437 
L 675.505383 182.201033 
L 675.710003 182.116304 
L 676.733101 182.226627 
L 677.7562 181.809149 
L 678.574679 180.546534 
L 679.802397 178.040344 
L 680.211637 177.696941 
L 680.620876 176.829405 
L 681.030116 175.856773 
L 681.234735 175.712253 
L 681.439355 175.901207 
L 682.053214 177.244886 
L 682.257834 177.40547 
L 682.462454 177.353938 
L 683.280933 176.45707 
L 683.894792 176.661997 
L 684.304031 176.993401 
L 685.53175 178.640295 
L 685.736369 178.646013 
L 685.940989 178.455734 
L 686.350229 177.505846 
L 687.168707 175.152906 
L 687.577947 174.546511 
L 687.987186 174.028549 
L 688.396426 172.821204 
L 689.010285 169.930481 
L 689.624144 165.369866 
L 690.647243 157.544105 
L 690.851863 156.777653 
L 691.056482 156.709731 
L 691.261102 157.374119 
L 692.284201 162.822055 
L 692.69344 163.834384 
L 692.89806 163.955888 
L 693.10268 163.787318 
L 693.307299 163.271679 
L 693.716539 161.115752 
L 694.125778 157.754423 
L 694.739637 150.279344 
L 695.353497 138.909127 
L 695.967356 121.887717 
L 696.785835 97.38482 
L 696.990454 94.546027 
L 697.195074 93.530268 
L 697.399694 93.917778 
L 697.808933 97.32984 
L 698.218173 103.569422 
L 699.445891 127.234605 
L 699.855131 130.672187 
L 700.46899 135.012065 
L 701.082849 142.127515 
L 701.901328 151.663681 
L 702.515187 155.962519 
L 702.924426 157.262871 
L 703.333666 157.697592 
L 703.538286 157.566649 
L 703.947525 156.526368 
L 704.356764 154.749221 
L 704.766004 151.971434 
L 705.175243 147.529674 
L 705.584483 140.607171 
L 706.812201 112.723886 
L 707.016821 112.0636 
L 707.221441 113.555919 
L 707.63068 121.565751 
L 708.449159 140.426367 
L 708.858398 146.401069 
L 709.267638 150.070278 
L 710.904596 161.132488 
L 711.723075 166.749212 
L 712.336934 169.290397 
L 713.155413 171.940453 
L 713.769272 173.035424 
L 714.178511 173.407342 
L 714.792371 173.589834 
L 715.20161 173.661477 
L 715.610849 173.995277 
L 715.815469 173.856294 
L 716.224709 172.555271 
L 716.633948 171.433382 
L 717.452427 170.27009 
L 718.475526 168.375123 
L 718.680145 168.364868 
L 719.089385 168.661803 
L 719.907864 169.572412 
L 720.317103 169.671336 
L 720.930962 169.65569 
L 721.135582 169.525509 
L 721.954061 168.399173 
L 722.56792 168.048783 
L 723.386399 167.543236 
L 724.000258 167.529005 
L 724.818737 167.268481 
L 725.637216 167.142693 
L 726.251075 166.7723 
L 726.455695 166.842872 
L 726.864934 167.41939 
L 727.478794 168.398193 
L 728.092653 168.971009 
L 728.297273 169.023574 
L 728.501892 168.91405 
L 728.911132 168.166983 
L 729.320371 167.377987 
L 729.729611 167.135433 
L 730.13885 167.069017 
L 730.54809 167.29146 
L 730.957329 167.440699 
L 731.161949 167.263362 
L 731.775808 166.247785 
L 731.980428 166.169898 
L 732.185047 166.32981 
L 732.594287 167.282022 
L 733.003526 168.162899 
L 733.208146 168.311249 
L 733.412766 168.255017 
L 734.231245 167.216968 
L 734.435864 166.84937 
L 734.845104 165.376437 
L 735.458963 163.16455 
L 736.277442 161.511884 
L 737.300541 160.089012 
L 737.50516 160.028405 
L 737.70978 160.255059 
L 738.323639 161.374389 
L 738.528259 161.477996 
L 738.732879 161.275519 
L 739.551358 159.065194 
L 739.755977 158.970717 
L 739.960597 159.083054 
L 740.779076 160.234657 
L 741.188315 160.318025 
L 741.597555 160.138256 
L 742.006794 159.507702 
L 742.416034 158.590939 
L 742.825273 157.013855 
L 743.439132 154.426275 
L 743.848372 153.510747 
L 744.462231 152.663939 
L 744.87147 151.415282 
L 745.28071 149.385833 
L 746.099189 143.674959 
L 746.713048 139.426563 
L 746.917668 138.686139 
L 747.122287 138.448177 
L 747.326907 138.653395 
L 747.940766 139.708868 
L 748.759245 140.208208 
L 749.168485 140.54513 
L 749.577724 140.481438 
L 749.782344 140.252206 
L 750.191583 139.192902 
L 750.600823 137.124937 
L 753.056259 119.064226 
L 753.670119 111.860833 
L 754.283978 101.541461 
L 755.102457 83.56695 
L 755.920936 57.497387 
L 757.148654 11.942081 
L 757.433461 -1 
M 763.315267 -1 
L 764.105725 33.358259 
L 764.924204 58.049964 
L 765.947302 80.792232 
L 766.970401 100.516482 
L 767.58426 109.229545 
L 768.198119 115.364558 
L 768.811978 119.551966 
L 769.835077 125.140011 
L 771.062795 133.258242 
L 771.676655 135.815619 
L 772.699753 138.839444 
L 773.518232 141.987696 
L 773.722852 142.324855 
L 773.927472 142.416591 
L 774.336711 142.125119 
L 774.745951 141.60349 
L 774.95057 141.514222 
L 775.15519 141.677747 
L 775.564429 142.732513 
L 776.382908 145.391481 
L 776.996768 146.433559 
L 778.429106 148.69567 
L 779.452204 149.101876 
L 780.066063 150.04258 
L 780.475303 150.297259 
L 780.884542 150.264133 
L 781.089162 150.210805 
L 781.293782 150.300817 
L 781.703021 151.009712 
L 782.31688 152.115537 
L 782.72612 152.926877 
L 783.339979 154.668303 
L 783.544599 154.882523 
L 783.953838 154.898914 
L 784.772317 154.685074 
L 785.181557 155.049169 
L 785.590796 155.418437 
L 786.000035 155.789266 
L 786.613895 156.852672 
L 787.636993 158.825598 
L 787.841613 158.812819 
L 788.250852 158.205535 
L 788.660092 157.644318 
L 788.864712 157.603188 
L 789.273951 157.823434 
L 789.478571 157.757073 
L 789.88781 157.265739 
L 790.09243 157.204714 
L 790.29705 157.352429 
L 790.706289 158.028579 
L 791.320148 159.137363 
L 791.729388 159.439054 
L 792.138627 159.503073 
L 792.547867 159.116743 
L 792.957106 158.876802 
L 793.775585 158.995493 
L 793.980205 159.006874 
L 794.184825 159.163355 
L 794.594064 160.064943 
L 796.026402 164.427656 
L 797.25412 166.560258 
L 797.66336 167.089202 
L 797.86798 167.153747 
L 798.277219 166.874927 
L 798.686459 166.501793 
L 799.095698 166.421691 
L 799.504937 166.620284 
L 799.914177 166.834613 
L 800.323416 166.862475 
L 800.732656 166.593583 
L 800.937276 166.41042 
L 801.141895 166.388656 
L 801.346515 166.660688 
L 802.369614 169.214089 
L 802.983473 169.152212 
L 803.801952 169.739766 
L 804.211191 169.850724 
L 804.620431 170.371065 
L 805.23429 171.770268 
L 805.643529 172.837957 
L 806.052769 173.254818 
L 806.462008 173.094996 
L 807.075867 172.62871 
L 807.280487 172.660003 
L 807.485107 172.865257 
L 807.894346 173.880072 
L 808.712825 176.532905 
L 809.122065 177.094703 
L 810.145163 177.435782 
L 810.349783 177.284891 
L 810.759022 176.38314 
L 811.168262 175.538764 
L 811.372882 175.513679 
L 811.577501 175.893584 
L 812.80522 179.953625 
L 813.214459 180.529363 
L 813.419079 180.415355 
L 813.828318 179.498811 
L 814.237558 178.531697 
L 814.442178 178.280121 
L 814.646797 178.214668 
L 815.056037 178.485992 
L 816.079135 179.933713 
L 818.125333 184.132575 
L 818.739192 186.221178 
L 818.943811 186.502013 
L 819.148431 186.497512 
L 819.557671 185.825936 
L 819.96691 185.025414 
L 820.17153 184.869731 
L 820.37615 184.914764 
L 821.603868 185.901372 
L 822.013107 185.992056 
L 822.422347 185.830528 
L 823.445445 184.880821 
L 823.650065 185.063931 
L 825.491643 187.950515 
L 825.696262 187.941567 
L 825.900882 187.774993 
L 826.514741 186.641977 
L 826.923981 186.143545 
L 827.128601 186.215515 
L 827.53784 186.86364 
L 827.947079 187.556126 
L 828.151699 187.715149 
L 828.356319 187.69776 
L 829.379418 186.930672 
L 829.993277 186.856706 
L 830.402516 186.909635 
L 830.811756 186.57126 
L 831.220995 185.837752 
L 832.039474 183.788119 
L 832.244094 183.710559 
L 832.653333 184.082132 
L 833.267192 184.675041 
L 833.881052 184.840199 
L 834.085671 184.710563 
L 834.290291 184.363875 
L 834.69953 182.974292 
L 835.518009 179.845807 
L 835.927249 178.934163 
L 837.359587 176.631593 
L 837.768826 175.650812 
L 838.178066 174.16746 
L 839.815024 167.026398 
L 842.065841 159.488334 
L 842.6797 156.490973 
L 843.293559 151.90609 
L 844.316658 144.65133 
L 845.748996 135.269776 
L 847.181334 125.058494 
L 848.613672 112.319296 
L 849.432151 103.960362 
L 851.478348 81.830298 
L 854.547644 46.720424 
L 857.840349 -1 
M 947.423282 -1 
L 947.854239 15.885138 
L 948.468099 33.445403 
L 949.491197 55.506855 
L 950.309676 69.308606 
L 950.923535 76.378224 
L 952.151254 87.583138 
L 954.402071 103.928471 
L 955.01593 108.445686 
L 955.629789 111.05463 
L 957.471367 118.523429 
L 958.699085 124.123399 
L 959.517564 127.838404 
L 960.131423 130.272153 
L 960.949902 134.338928 
L 961.154522 134.725657 
L 961.359141 134.735386 
L 961.768381 134.480816 
L 961.973001 134.619437 
L 962.38224 135.674094 
L 962.996099 137.955917 
L 963.405339 138.610848 
L 964.428437 139.163625 
L 964.837677 139.966162 
L 965.656156 142.157029 
L 966.679254 145.530719 
L 968.111592 147.590898 
L 968.930071 148.063754 
L 969.339311 148.088803 
L 970.15779 147.677642 
L 970.567029 148.106864 
L 971.794747 150.34801 
L 972.613226 150.794928 
L 973.227085 151.662156 
L 973.840945 153.006343 
L 974.659424 154.98662 
L 975.068663 155.425661 
L 975.682522 155.763019 
L 976.296381 156.331351 
L 976.705621 156.621317 
L 977.933339 158.541822 
L 978.342579 159.387686 
L 978.956438 160.908974 
L 979.365677 161.270999 
L 979.774917 161.242066 
L 980.184156 161.092628 
L 980.798015 161.191334 
L 981.411875 161.005157 
L 981.616494 161.149514 
L 981.821114 161.531161 
L 982.230353 163.037764 
L 982.639593 164.499988 
L 982.844213 164.804674 
L 983.048832 164.841321 
L 983.458072 164.409904 
L 984.276551 163.139647 
L 985.09503 162.466564 
L 985.708889 161.398221 
L 985.913509 161.254881 
L 986.322748 161.413777 
L 986.936607 161.970274 
L 987.550466 162.687646 
L 987.959706 162.637803 
L 988.164326 162.617981 
L 988.368945 162.77272 
L 988.982804 163.598527 
L 989.187424 163.599743 
L 989.596664 163.178236 
L 990.005903 162.662397 
L 990.210523 162.597489 
L 990.824382 162.860536 
L 991.642861 163.465116 
L 991.847481 163.374705 
L 992.0521 163.06294 
L 992.66596 161.531505 
L 992.870579 161.311477 
L 993.075199 161.302764 
L 993.279819 161.513663 
L 994.098298 163.167346 
L 994.507537 163.325152 
L 994.916777 163.575384 
L 995.326016 164.428363 
L 996.349115 167.283075 
L 997.167594 168.490619 
L 997.372213 168.672331 
L 997.576833 168.703006 
L 997.781453 168.561572 
L 998.190692 167.705162 
L 998.599932 166.638435 
L 999.009171 166.222028 
L 999.418411 166.077291 
L 999.82765 165.787071 
L 1000.03227 165.769083 
L 1000.646129 166.17224 
L 1000.850749 166.054638 
L 1001.259988 165.363332 
L 1001.669228 164.209696 
L 1002.692326 159.977836 
L 1002.896946 159.779008 
L 1003.101566 159.989652 
L 1003.510805 161.301729 
L 1004.124664 164.495069 
L 1004.943143 168.803509 
L 1005.557002 170.614781 
L 1006.375481 172.843693 
L 1006.580101 173.042993 
L 1006.784721 173.017509 
L 1007.19396 172.567849 
L 1007.807819 171.84741 
L 1008.217059 171.69759 
L 1009.035538 171.711077 
L 1009.444777 170.997553 
L 1009.854017 170.293886 
L 1010.058636 170.261922 
L 1010.467876 170.816495 
L 1010.877115 171.300533 
L 1011.081735 171.22693 
L 1011.490974 170.877338 
L 1011.900214 170.857753 
L 1012.309453 171.211665 
L 1012.923312 171.915114 
L 1013.537172 171.832127 
L 1014.151031 172.233904 
L 1014.56027 172.369675 
L 1014.96951 173.148851 
L 1015.378749 174.05102 
L 1015.787989 174.38139 
L 1016.197228 174.622546 
L 1016.811087 175.073567 
L 1017.015707 175.070318 
L 1017.220327 174.936635 
L 1018.038806 173.743793 
L 1018.652665 173.810244 
L 1018.857285 173.945489 
L 1019.266524 174.718131 
L 1019.675763 175.335162 
L 1019.880383 175.228361 
L 1020.289623 174.436442 
L 1020.903482 173.099316 
L 1021.312721 172.653795 
L 1021.517341 172.619181 
L 1021.721961 172.752901 
L 1022.1312 173.503017 
L 1022.54044 174.218628 
L 1023.358919 174.820068 
L 1023.768158 174.957636 
L 1024.382017 174.8765 
L 1024.791257 175.456285 
L 1025.609736 176.981349 
L 1025.814355 177.093414 
L 1026.223595 176.888868 
L 1026.837454 176.187688 
L 1027.451313 175.589279 
L 1027.860553 175.482949 
L 1028.269792 175.680434 
L 1029.088271 176.676245 
L 1029.70213 177.502996 
L 1029.90675 177.583152 
L 1030.11137 177.45239 
L 1030.520609 176.674267 
L 1031.339088 174.773437 
L 1031.543708 174.616321 
L 1031.748327 174.695169 
L 1032.157567 175.378271 
L 1032.771426 177.126286 
L 1033.180665 178.417743 
L 1033.385285 178.765666 
L 1033.589905 178.707418 
L 1033.999144 177.618891 
L 1034.408384 176.469303 
L 1034.613004 176.159535 
L 1034.817623 176.063624 
L 1035.226863 176.355659 
L 1035.636102 176.597142 
L 1036.045342 176.520308 
L 1036.863821 176.114974 
L 1037.27306 176.30224 
L 1037.682299 176.768998 
L 1038.705398 178.577256 
L 1038.910018 178.583518 
L 1039.319257 178.256343 
L 1040.342356 176.733458 
L 1041.160835 177.053318 
L 1041.570074 177.725711 
L 1041.979314 178.401789 
L 1042.183933 178.587875 
L 1042.388553 178.613722 
L 1042.797793 178.209912 
L 1044.63937 175.935804 
L 1044.84399 175.947529 
L 1045.253229 176.261127 
L 1045.867089 176.741063 
L 1047.299427 177.350726 
L 1047.708666 176.83456 
L 1048.117906 176.391507 
L 1048.936384 176.499543 
L 1049.141004 176.346293 
L 1049.345624 176.333896 
L 1049.754863 176.718465 
L 1050.777962 178.115562 
L 1051.391821 178.497754 
L 1051.801061 179.19142 
L 1052.41492 180.462966 
L 1052.824159 180.607957 
L 1053.233399 180.398801 
L 1053.642638 179.960686 
L 1054.256497 179.165863 
L 1055.688835 178.187786 
L 1056.098075 178.313283 
L 1058.553512 179.89329 
L 1059.167371 180.761535 
L 1059.57661 180.873437 
L 1061.008948 180.499232 
L 1062.032047 180.162709 
L 1062.850526 180.603293 
L 1063.259765 180.359213 
L 1063.669005 180.051478 
L 1064.078244 180.054636 
L 1064.487484 180.505548 
L 1064.896723 181.377677 
L 1065.715202 183.404784 
L 1066.533681 184.252372 
L 1066.738301 184.318661 
L 1066.94292 184.196957 
L 1067.14754 183.799282 
L 1068.375258 179.868677 
L 1068.784498 179.600276 
L 1069.398357 179.662189 
L 1069.602977 179.800919 
L 1070.012216 180.521576 
L 1070.626075 181.709027 
L 1071.239935 182.00108 
L 1071.649174 182.054426 
L 1073.081512 181.435107 
L 1073.899991 181.459902 
L 1074.309231 180.999152 
L 1075.127709 180.072134 
L 1076.355428 179.355434 
L 1076.560048 179.456718 
L 1076.969287 180.179154 
L 1077.583146 181.340286 
L 1078.197005 181.99725 
L 1079.015484 182.775137 
L 1079.424724 182.475189 
L 1080.652442 181.2669 
L 1082.49402 181.272237 
L 1083.517118 179.92707 
L 1083.721738 179.922514 
L 1083.926358 180.107438 
L 1084.949456 181.763807 
L 1085.972555 182.490037 
L 1086.791034 184.040094 
L 1086.995654 183.909006 
L 1087.609513 183.061999 
L 1087.814132 183.075177 
L 1088.223372 183.588166 
L 1088.632611 184.22324 
L 1089.86033 185.280819 
L 1090.269569 185.562961 
L 1090.678809 185.553868 
L 1091.088048 185.195472 
L 1092.315766 183.299108 
L 1093.338865 183.650443 
L 1093.748105 183.529356 
L 1094.361964 183.80598 
L 1094.975823 183.978398 
L 1095.589682 183.872631 
L 1096.408161 184.431597 
L 1096.8174 183.949992 
L 1097.22664 183.482145 
L 1097.43126 183.49211 
L 1098.454358 184.266639 
L 1098.863598 184.810449 
L 1099.068217 184.906306 
L 1099.886696 184.739623 
L 1100.295936 184.189969 
L 1100.705175 183.654926 
L 1100.909795 183.688669 
L 1101.319034 184.366925 
L 1101.728274 184.973447 
L 1101.932894 184.955223 
L 1102.342133 184.355362 
L 1102.955992 183.191127 
L 1103.365232 182.956541 
L 1103.774471 182.937772 
L 1104.183711 183.415965 
L 1104.38833 183.69259 
L 1104.59295 183.745101 
L 1104.79757 183.50536 
L 1105.820668 181.416266 
L 1106.025288 181.363918 
L 1106.229908 181.503301 
L 1106.843767 182.4417 
L 1107.048387 182.46733 
L 1107.457626 181.951981 
L 1108.276105 180.486726 
L 1108.480725 180.454834 
L 1108.685345 180.693105 
L 1109.503824 182.264762 
L 1109.913063 182.500165 
L 1110.117683 182.4095 
L 1110.526922 181.544722 
L 1111.550021 178.734391 
L 1112.573119 174.054069 
L 1113.186979 172.263436 
L 1113.800838 169.287438 
L 1114.823936 163.268992 
L 1116.256275 155.203436 
L 1117.074753 151.458482 
L 1118.916331 144.407015 
L 1119.32557 140.945745 
L 1119.73481 135.136619 
L 1120.144049 126.80876 
L 1120.553289 115.006853 
L 1120.962528 98.318535 
L 1121.371768 74.33115 
L 1121.985627 21.091427 
L 1122.211326 -1 
M 1123.782768 -1 
L 1124.850303 82.740182 
L 1125.464162 109.159464 
L 1125.873402 119.416922 
L 1126.487261 128.836684 
L 1128.124219 150.927323 
L 1129.761176 166.243084 
L 1130.375036 170.617558 
L 1130.784275 172.312571 
L 1131.602754 174.280052 
L 1132.421233 176.969442 
L 1132.625853 177.132839 
L 1133.035092 176.811853 
L 1133.444332 176.663467 
L 1134.87667 177.29384 
L 1135.285909 177.632123 
L 1135.695149 177.603826 
L 1136.513627 177.147487 
L 1136.718247 177.278865 
L 1136.922867 177.661292 
L 1137.741346 180.167827 
L 1137.945966 180.299696 
L 1138.559825 179.945421 
L 1139.787543 180.721112 
L 1140.196783 181.181862 
L 1140.810642 182.15482 
L 1141.015261 182.235775 
L 1141.219881 182.090456 
L 1141.83374 181.320918 
L 1142.24298 180.982634 
L 1142.652219 179.851924 
L 1143.266078 177.723642 
L 1143.675318 177.154457 
L 1143.879938 177.201178 
L 1144.289177 177.818936 
L 1144.903036 178.803366 
L 1145.516895 179.640245 
L 1146.744614 182.442517 
L 1147.358473 182.959082 
L 1148.381572 184.681285 
L 1148.790811 184.939304 
L 1148.995431 184.956802 
L 1149.200051 184.823482 
L 1149.60929 183.945055 
L 1150.018529 183.18029 
L 1150.427769 183.104981 
L 1151.450868 183.433136 
L 1152.064727 183.180036 
L 1152.473966 183.038058 
L 1152.678586 183.217609 
L 1153.292445 184.081642 
L 1153.701685 184.334924 
L 1154.520163 185.274321 
L 1154.929403 185.518727 
L 1155.747882 185.606942 
L 1156.566361 186.624516 
L 1156.77098 186.451045 
L 1158.407938 183.735118 
L 1158.817178 183.768153 
L 1159.226417 184.05162 
L 1159.635657 184.393153 
L 1160.044896 184.362205 
L 1160.454136 184.266857 
L 1161.067995 184.39691 
L 1161.272614 184.150907 
L 1161.681854 183.090841 
L 1162.295713 181.591226 
L 1162.500333 181.41672 
L 1162.704953 181.452133 
L 1163.114192 182.114234 
L 1163.523431 182.868344 
L 1163.932671 183.087483 
L 1164.54653 183.105453 
L 1166.388108 183.777519 
L 1166.797347 183.673821 
L 1167.001967 183.734573 
L 1167.206586 183.934091 
L 1168.229685 185.650069 
L 1168.434305 185.478377 
L 1169.048164 184.491115 
L 1169.457403 184.333218 
L 1170.275882 184.700253 
L 1170.480502 184.560652 
L 1171.298981 183.557654 
L 1171.503601 183.577584 
L 1171.70822 183.724136 
L 1172.11746 184.431144 
L 1172.935939 186.364754 
L 1173.140559 186.426414 
L 1173.754418 186.148301 
L 1174.777516 186.306815 
L 1175.186756 186.540167 
L 1175.391376 186.482102 
L 1175.595995 186.210905 
L 1176.005235 185.060155 
L 1176.414474 183.908135 
L 1176.619094 183.642347 
L 1176.823714 183.639425 
L 1177.232953 184.249722 
L 1177.642193 184.865284 
L 1178.665291 185.529999 
L 1178.869911 185.510323 
L 1179.48377 185.194565 
L 1180.097629 185.29151 
L 1181.325348 184.956221 
L 1182.348446 184.895832 
L 1182.757686 184.203509 
L 1183.166925 183.466498 
L 1183.576165 183.315154 
L 1183.985404 183.366939 
L 1184.394644 183.741888 
L 1184.803883 184.236345 
L 1184.803883 184.236345 
" clip-path="url(#p7b0f4ce9ad)" style="fill: none; stroke: #000000; stroke-width: 2; stroke-linecap: square"/>
   </g>
   <g id="patch_3">
    <path d="M 3.00024 198.907885 
L 1184.99976 198.907885 
" style="fill: none; stroke: #000000; stroke-width: 2; stroke-linejoin: miter; stroke-linecap: square"/>
   </g>
  </g>
 </g>
 <defs>
  <clipPath id="p7b0f4ce9ad">
   <rect x="3.00024" y="3.00024" width="1181.99952" height="195.907645"/>
  </clipPath>
 </defs>
</svg>
