<?xml version="1.0" encoding="utf-8" standalone="no"?>
<!DOCTYPE svg PUBLIC "-//W3C//DTD SVG 1.1//EN"
  "http://www.w3.org/Graphics/SVG/1.1/DTD/svg11.dtd">
<svg xmlns:xlink="http://www.w3.org/1999/xlink" width="1188pt" height="252pt" viewBox="0 0 1188 252" xmlns="http://www.w3.org/2000/svg" version="1.1">
 <metadata>
  <rdf:RDF xmlns:dc="http://purl.org/dc/elements/1.1/" xmlns:cc="http://creativecommons.org/ns#" xmlns:rdf="http://www.w3.org/1999/02/22-rdf-syntax-ns#">
   <cc:Work>
    <dc:type rdf:resource="http://purl.org/dc/dcmitype/StillImage"/>
    <dc:date>2024-07-23T21:45:37.145157</dc:date>
    <dc:format>image/svg+xml</dc:format>
    <dc:creator>
     <cc:Agent>
      <dc:title>Matplotlib v3.8.4, https://matplotlib.org/</dc:title>
     </cc:Agent>
    </dc:creator>
   </cc:Work>
  </rdf:RDF>
 </metadata>
 <defs>
  <style type="text/css">*{stroke-linejoin: round; stroke-linecap: butt}</style>
 </defs>
 <g id="figure_1">
  <g id="patch_1">
   <path d="M 0 252 
L 1188 252 
L 1188 0 
L 0 0 
z
" style="fill: #ffffff"/>
  </g>
  <g id="axes_1">
   <g id="patch_2">
    <path d="M 3.00024 198.907885 
L 1184.99976 198.907885 
L 1184.99976 3.00024 
L 3.00024 3.00024 
z
" style="fill: #ffffff"/>
   </g>
   <g id="matplotlib.axis_1">
    <g id="xtick_1">
     <g id="line2d_1">
      <defs>
       <path id="m6c3f4fa9b5" d="M 0 0 
L 0 8 
" style="stroke: #000000; stroke-width: 2"/>
      </defs>
      <g>
       <use xlink:href="#m6c3f4fa9b5" x="1131.272509" y="198.907885" style="stroke: #000000; stroke-width: 2"/>
      </g>
     </g>
     <g id="text_1">
      <!-- 0 -->
      <g transform="translate(1126.267665 224.791947) scale(0.18 -0.18)">
       <defs>
        <path id="Arial-BoldMT-30" d="M 1756 4600 
Q 2422 4600 2797 4125 
Q 3244 3563 3244 2259 
Q 3244 959 2794 391 
Q 2422 -78 1756 -78 
Q 1088 -78 678 436 
Q 269 950 269 2269 
Q 269 3563 719 4131 
Q 1091 4600 1756 4600 
z
M 1756 3872 
Q 1597 3872 1472 3770 
Q 1347 3669 1278 3406 
Q 1188 3066 1188 2259 
Q 1188 1453 1269 1151 
Q 1350 850 1473 750 
Q 1597 650 1756 650 
Q 1916 650 2041 751 
Q 2166 853 2234 1116 
Q 2325 1453 2325 2259 
Q 2325 3066 2244 3367 
Q 2163 3669 2039 3770 
Q 1916 3872 1756 3872 
z
" transform="scale(0.015625)"/>
       </defs>
       <use xlink:href="#Arial-BoldMT-30"/>
      </g>
     </g>
    </g>
    <g id="xtick_2">
     <g id="line2d_2">
      <g>
       <use xlink:href="#m6c3f4fa9b5" x="1023.818007" y="198.907885" style="stroke: #000000; stroke-width: 2"/>
      </g>
     </g>
     <g id="text_2">
      <!-- 1 -->
      <g transform="translate(1018.813164 224.791947) scale(0.18 -0.18)">
       <defs>
        <path id="Arial-BoldMT-31" d="M 2519 0 
L 1641 0 
L 1641 3309 
Q 1159 2859 506 2644 
L 506 3441 
Q 850 3553 1253 3867 
Q 1656 4181 1806 4600 
L 2519 4600 
L 2519 0 
z
" transform="scale(0.015625)"/>
       </defs>
       <use xlink:href="#Arial-BoldMT-31"/>
      </g>
     </g>
    </g>
    <g id="xtick_3">
     <g id="line2d_3">
      <g>
       <use xlink:href="#m6c3f4fa9b5" x="916.363505" y="198.907885" style="stroke: #000000; stroke-width: 2"/>
      </g>
     </g>
     <g id="text_3">
      <!-- 2 -->
      <g transform="translate(911.358662 224.791947) scale(0.18 -0.18)">
       <defs>
        <path id="Arial-BoldMT-32" d="M 3238 816 
L 3238 0 
L 159 0 
Q 209 463 459 877 
Q 709 1291 1447 1975 
Q 2041 2528 2175 2725 
Q 2356 2997 2356 3263 
Q 2356 3556 2198 3714 
Q 2041 3872 1763 3872 
Q 1488 3872 1325 3706 
Q 1163 3541 1138 3156 
L 263 3244 
Q 341 3969 753 4284 
Q 1166 4600 1784 4600 
Q 2463 4600 2850 4234 
Q 3238 3869 3238 3325 
Q 3238 3016 3127 2736 
Q 3016 2456 2775 2150 
Q 2616 1947 2200 1565 
Q 1784 1184 1673 1059 
Q 1563 934 1494 816 
L 3238 816 
z
" transform="scale(0.015625)"/>
       </defs>
       <use xlink:href="#Arial-BoldMT-32"/>
      </g>
     </g>
    </g>
    <g id="xtick_4">
     <g id="line2d_4">
      <g>
       <use xlink:href="#m6c3f4fa9b5" x="808.909004" y="198.907885" style="stroke: #000000; stroke-width: 2"/>
      </g>
     </g>
     <g id="text_4">
      <!-- 3 -->
      <g transform="translate(803.90416 224.791947) scale(0.18 -0.18)">
       <defs>
        <path id="Arial-BoldMT-33" d="M 241 1216 
L 1091 1319 
Q 1131 994 1309 822 
Q 1488 650 1741 650 
Q 2013 650 2198 856 
Q 2384 1063 2384 1413 
Q 2384 1744 2206 1937 
Q 2028 2131 1772 2131 
Q 1603 2131 1369 2066 
L 1466 2781 
Q 1822 2772 2009 2936 
Q 2197 3100 2197 3372 
Q 2197 3603 2059 3740 
Q 1922 3878 1694 3878 
Q 1469 3878 1309 3722 
Q 1150 3566 1116 3266 
L 306 3403 
Q 391 3819 561 4067 
Q 731 4316 1036 4458 
Q 1341 4600 1719 4600 
Q 2366 4600 2756 4188 
Q 3078 3850 3078 3425 
Q 3078 2822 2419 2463 
Q 2813 2378 3048 2084 
Q 3284 1791 3284 1375 
Q 3284 772 2843 347 
Q 2403 -78 1747 -78 
Q 1125 -78 715 280 
Q 306 638 241 1216 
z
" transform="scale(0.015625)"/>
       </defs>
       <use xlink:href="#Arial-BoldMT-33"/>
      </g>
     </g>
    </g>
    <g id="xtick_5">
     <g id="line2d_5">
      <g>
       <use xlink:href="#m6c3f4fa9b5" x="701.454502" y="198.907885" style="stroke: #000000; stroke-width: 2"/>
      </g>
     </g>
     <g id="text_5">
      <!-- 4 -->
      <g transform="translate(696.449658 224.791947) scale(0.18 -0.18)">
       <defs>
        <path id="Arial-BoldMT-34" d="M 1994 0 
L 1994 922 
L 119 922 
L 119 1691 
L 2106 4600 
L 2844 4600 
L 2844 1694 
L 3413 1694 
L 3413 922 
L 2844 922 
L 2844 0 
L 1994 0 
z
M 1994 1694 
L 1994 3259 
L 941 1694 
L 1994 1694 
z
" transform="scale(0.015625)"/>
       </defs>
       <use xlink:href="#Arial-BoldMT-34"/>
      </g>
     </g>
    </g>
    <g id="xtick_6">
     <g id="line2d_6">
      <g>
       <use xlink:href="#m6c3f4fa9b5" x="594" y="198.907885" style="stroke: #000000; stroke-width: 2"/>
      </g>
     </g>
     <g id="text_6">
      <!-- 5 -->
      <g transform="translate(588.995156 224.791947) scale(0.18 -0.18)">
       <defs>
        <path id="Arial-BoldMT-35" d="M 284 1178 
L 1159 1269 
Q 1197 972 1381 798 
Q 1566 625 1806 625 
Q 2081 625 2272 848 
Q 2463 1072 2463 1522 
Q 2463 1944 2273 2155 
Q 2084 2366 1781 2366 
Q 1403 2366 1103 2031 
L 391 2134 
L 841 4519 
L 3163 4519 
L 3163 3697 
L 1506 3697 
L 1369 2919 
Q 1663 3066 1969 3066 
Q 2553 3066 2959 2641 
Q 3366 2216 3366 1538 
Q 3366 972 3038 528 
Q 2591 -78 1797 -78 
Q 1163 -78 763 262 
Q 363 603 284 1178 
z
" transform="scale(0.015625)"/>
       </defs>
       <use xlink:href="#Arial-BoldMT-35"/>
      </g>
     </g>
    </g>
    <g id="xtick_7">
     <g id="line2d_7">
      <g>
       <use xlink:href="#m6c3f4fa9b5" x="486.545498" y="198.907885" style="stroke: #000000; stroke-width: 2"/>
      </g>
     </g>
     <g id="text_7">
      <!-- 6 -->
      <g transform="translate(481.540654 224.791947) scale(0.18 -0.18)">
       <defs>
        <path id="Arial-BoldMT-36" d="M 3247 3459 
L 2397 3366 
Q 2366 3628 2234 3753 
Q 2103 3878 1894 3878 
Q 1616 3878 1423 3628 
Q 1231 3378 1181 2588 
Q 1509 2975 1997 2975 
Q 2547 2975 2939 2556 
Q 3331 2138 3331 1475 
Q 3331 772 2918 347 
Q 2506 -78 1859 -78 
Q 1166 -78 719 461 
Q 272 1000 272 2228 
Q 272 3488 737 4044 
Q 1203 4600 1947 4600 
Q 2469 4600 2811 4308 
Q 3153 4016 3247 3459 
z
M 1256 1544 
Q 1256 1116 1453 883 
Q 1650 650 1903 650 
Q 2147 650 2309 840 
Q 2472 1031 2472 1466 
Q 2472 1913 2297 2120 
Q 2122 2328 1859 2328 
Q 1606 2328 1431 2129 
Q 1256 1931 1256 1544 
z
" transform="scale(0.015625)"/>
       </defs>
       <use xlink:href="#Arial-BoldMT-36"/>
      </g>
     </g>
    </g>
    <g id="xtick_8">
     <g id="line2d_8">
      <g>
       <use xlink:href="#m6c3f4fa9b5" x="379.090996" y="198.907885" style="stroke: #000000; stroke-width: 2"/>
      </g>
     </g>
     <g id="text_8">
      <!-- 7 -->
      <g transform="translate(374.086153 224.791947) scale(0.18 -0.18)">
       <defs>
        <path id="Arial-BoldMT-37" d="M 272 3703 
L 272 4519 
L 3275 4519 
L 3275 3881 
Q 2903 3516 2518 2831 
Q 2134 2147 1932 1376 
Q 1731 606 1734 0 
L 888 0 
Q 909 950 1279 1937 
Q 1650 2925 2269 3703 
L 272 3703 
z
" transform="scale(0.015625)"/>
       </defs>
       <use xlink:href="#Arial-BoldMT-37"/>
      </g>
     </g>
    </g>
    <g id="xtick_9">
     <g id="line2d_9">
      <g>
       <use xlink:href="#m6c3f4fa9b5" x="271.636495" y="198.907885" style="stroke: #000000; stroke-width: 2"/>
      </g>
     </g>
     <g id="text_9">
      <!-- 8 -->
      <g transform="translate(266.631651 224.791947) scale(0.18 -0.18)">
       <defs>
        <path id="Arial-BoldMT-38" d="M 1025 2472 
Q 684 2616 529 2867 
Q 375 3119 375 3419 
Q 375 3931 733 4265 
Q 1091 4600 1750 4600 
Q 2403 4600 2764 4265 
Q 3125 3931 3125 3419 
Q 3125 3100 2959 2851 
Q 2794 2603 2494 2472 
Q 2875 2319 3073 2025 
Q 3272 1731 3272 1347 
Q 3272 713 2867 316 
Q 2463 -81 1791 -81 
Q 1166 -81 750 247 
Q 259 634 259 1309 
Q 259 1681 443 1992 
Q 628 2303 1025 2472 
z
M 1206 3356 
Q 1206 3094 1354 2947 
Q 1503 2800 1750 2800 
Q 2000 2800 2150 2948 
Q 2300 3097 2300 3359 
Q 2300 3606 2151 3754 
Q 2003 3903 1759 3903 
Q 1506 3903 1356 3753 
Q 1206 3603 1206 3356 
z
M 1125 1394 
Q 1125 1031 1311 828 
Q 1497 625 1775 625 
Q 2047 625 2225 820 
Q 2403 1016 2403 1384 
Q 2403 1706 2222 1901 
Q 2041 2097 1763 2097 
Q 1441 2097 1283 1875 
Q 1125 1653 1125 1394 
z
" transform="scale(0.015625)"/>
       </defs>
       <use xlink:href="#Arial-BoldMT-38"/>
      </g>
     </g>
    </g>
    <g id="xtick_10">
     <g id="line2d_10">
      <g>
       <use xlink:href="#m6c3f4fa9b5" x="164.181993" y="198.907885" style="stroke: #000000; stroke-width: 2"/>
      </g>
     </g>
     <g id="text_10">
      <!-- 9 -->
      <g transform="translate(159.177149 224.791947) scale(0.18 -0.18)">
       <defs>
        <path id="Arial-BoldMT-39" d="M 291 1059 
L 1141 1153 
Q 1172 894 1303 769 
Q 1434 644 1650 644 
Q 1922 644 2112 894 
Q 2303 1144 2356 1931 
Q 2025 1547 1528 1547 
Q 988 1547 595 1964 
Q 203 2381 203 3050 
Q 203 3747 617 4173 
Q 1031 4600 1672 4600 
Q 2369 4600 2816 4061 
Q 3263 3522 3263 2288 
Q 3263 1031 2797 475 
Q 2331 -81 1584 -81 
Q 1047 -81 715 205 
Q 384 491 291 1059 
z
M 2278 2978 
Q 2278 3403 2083 3637 
Q 1888 3872 1631 3872 
Q 1388 3872 1227 3680 
Q 1066 3488 1066 3050 
Q 1066 2606 1241 2398 
Q 1416 2191 1678 2191 
Q 1931 2191 2104 2391 
Q 2278 2591 2278 2978 
z
" transform="scale(0.015625)"/>
       </defs>
       <use xlink:href="#Arial-BoldMT-39"/>
      </g>
     </g>
    </g>
    <g id="xtick_11">
     <g id="line2d_11">
      <g>
       <use xlink:href="#m6c3f4fa9b5" x="56.727491" y="198.907885" style="stroke: #000000; stroke-width: 2"/>
      </g>
     </g>
     <g id="text_11">
      <!-- 10 -->
      <g transform="translate(46.717803 224.791947) scale(0.18 -0.18)">
       <use xlink:href="#Arial-BoldMT-31"/>
       <use xlink:href="#Arial-BoldMT-30" x="55.615234"/>
      </g>
     </g>
    </g>
    <g id="text_12">
     <!-- Chemical Shift / ppm -->
     <g transform="translate(504.992813 245.447573) scale(0.18 -0.18)">
      <defs>
       <path id="Arial-BoldMT-43" d="M 3397 1684 
L 4294 1400 
Q 4088 650 3608 286 
Q 3128 -78 2391 -78 
Q 1478 -78 890 545 
Q 303 1169 303 2250 
Q 303 3394 893 4026 
Q 1484 4659 2447 4659 
Q 3288 4659 3813 4163 
Q 4125 3869 4281 3319 
L 3366 3100 
Q 3284 3456 3026 3662 
Q 2769 3869 2400 3869 
Q 1891 3869 1573 3503 
Q 1256 3138 1256 2319 
Q 1256 1450 1568 1081 
Q 1881 713 2381 713 
Q 2750 713 3015 947 
Q 3281 1181 3397 1684 
z
" transform="scale(0.015625)"/>
       <path id="Arial-BoldMT-68" d="M 1334 4581 
L 1334 2897 
Q 1759 3394 2350 3394 
Q 2653 3394 2897 3281 
Q 3141 3169 3264 2994 
Q 3388 2819 3433 2606 
Q 3478 2394 3478 1947 
L 3478 0 
L 2600 0 
L 2600 1753 
Q 2600 2275 2550 2415 
Q 2500 2556 2373 2639 
Q 2247 2722 2056 2722 
Q 1838 2722 1666 2615 
Q 1494 2509 1414 2295 
Q 1334 2081 1334 1663 
L 1334 0 
L 456 0 
L 456 4581 
L 1334 4581 
z
" transform="scale(0.015625)"/>
       <path id="Arial-BoldMT-65" d="M 2381 1056 
L 3256 909 
Q 3088 428 2723 176 
Q 2359 -75 1813 -75 
Q 947 -75 531 491 
Q 203 944 203 1634 
Q 203 2459 634 2926 
Q 1066 3394 1725 3394 
Q 2466 3394 2894 2905 
Q 3322 2416 3303 1406 
L 1103 1406 
Q 1113 1016 1316 798 
Q 1519 581 1822 581 
Q 2028 581 2168 693 
Q 2309 806 2381 1056 
z
M 2431 1944 
Q 2422 2325 2234 2523 
Q 2047 2722 1778 2722 
Q 1491 2722 1303 2513 
Q 1116 2303 1119 1944 
L 2431 1944 
z
" transform="scale(0.015625)"/>
       <path id="Arial-BoldMT-6d" d="M 394 3319 
L 1203 3319 
L 1203 2866 
Q 1638 3394 2238 3394 
Q 2556 3394 2790 3262 
Q 3025 3131 3175 2866 
Q 3394 3131 3647 3262 
Q 3900 3394 4188 3394 
Q 4553 3394 4806 3245 
Q 5059 3097 5184 2809 
Q 5275 2597 5275 2122 
L 5275 0 
L 4397 0 
L 4397 1897 
Q 4397 2391 4306 2534 
Q 4184 2722 3931 2722 
Q 3747 2722 3584 2609 
Q 3422 2497 3350 2280 
Q 3278 2063 3278 1594 
L 3278 0 
L 2400 0 
L 2400 1819 
Q 2400 2303 2353 2443 
Q 2306 2584 2207 2653 
Q 2109 2722 1941 2722 
Q 1738 2722 1575 2612 
Q 1413 2503 1342 2297 
Q 1272 2091 1272 1613 
L 1272 0 
L 394 0 
L 394 3319 
z
" transform="scale(0.015625)"/>
       <path id="Arial-BoldMT-69" d="M 459 3769 
L 459 4581 
L 1338 4581 
L 1338 3769 
L 459 3769 
z
M 459 0 
L 459 3319 
L 1338 3319 
L 1338 0 
L 459 0 
z
" transform="scale(0.015625)"/>
       <path id="Arial-BoldMT-63" d="M 3353 2338 
L 2488 2181 
Q 2444 2441 2289 2572 
Q 2134 2703 1888 2703 
Q 1559 2703 1364 2476 
Q 1169 2250 1169 1719 
Q 1169 1128 1367 884 
Q 1566 641 1900 641 
Q 2150 641 2309 783 
Q 2469 925 2534 1272 
L 3397 1125 
Q 3263 531 2881 228 
Q 2500 -75 1859 -75 
Q 1131 -75 698 384 
Q 266 844 266 1656 
Q 266 2478 700 2936 
Q 1134 3394 1875 3394 
Q 2481 3394 2839 3133 
Q 3197 2872 3353 2338 
z
" transform="scale(0.015625)"/>
       <path id="Arial-BoldMT-61" d="M 1116 2306 
L 319 2450 
Q 453 2931 781 3162 
Q 1109 3394 1756 3394 
Q 2344 3394 2631 3255 
Q 2919 3116 3036 2902 
Q 3153 2688 3153 2116 
L 3144 1091 
Q 3144 653 3186 445 
Q 3228 238 3344 0 
L 2475 0 
Q 2441 88 2391 259 
Q 2369 338 2359 363 
Q 2134 144 1878 34 
Q 1622 -75 1331 -75 
Q 819 -75 523 203 
Q 228 481 228 906 
Q 228 1188 362 1408 
Q 497 1628 739 1745 
Q 981 1863 1438 1950 
Q 2053 2066 2291 2166 
L 2291 2253 
Q 2291 2506 2166 2614 
Q 2041 2722 1694 2722 
Q 1459 2722 1328 2630 
Q 1197 2538 1116 2306 
z
M 2291 1594 
Q 2122 1538 1756 1459 
Q 1391 1381 1278 1306 
Q 1106 1184 1106 997 
Q 1106 813 1243 678 
Q 1381 544 1594 544 
Q 1831 544 2047 700 
Q 2206 819 2256 991 
Q 2291 1103 2291 1419 
L 2291 1594 
z
" transform="scale(0.015625)"/>
       <path id="Arial-BoldMT-6c" d="M 459 0 
L 459 4581 
L 1338 4581 
L 1338 0 
L 459 0 
z
" transform="scale(0.015625)"/>
       <path id="Arial-BoldMT-20" transform="scale(0.015625)"/>
       <path id="Arial-BoldMT-53" d="M 231 1491 
L 1131 1578 
Q 1213 1125 1461 912 
Q 1709 700 2131 700 
Q 2578 700 2804 889 
Q 3031 1078 3031 1331 
Q 3031 1494 2936 1608 
Q 2841 1722 2603 1806 
Q 2441 1863 1863 2006 
Q 1119 2191 819 2459 
Q 397 2838 397 3381 
Q 397 3731 595 4036 
Q 794 4341 1167 4500 
Q 1541 4659 2069 4659 
Q 2931 4659 3367 4281 
Q 3803 3903 3825 3272 
L 2900 3231 
Q 2841 3584 2645 3739 
Q 2450 3894 2059 3894 
Q 1656 3894 1428 3728 
Q 1281 3622 1281 3444 
Q 1281 3281 1419 3166 
Q 1594 3019 2269 2859 
Q 2944 2700 3267 2529 
Q 3591 2359 3773 2064 
Q 3956 1769 3956 1334 
Q 3956 941 3737 597 
Q 3519 253 3119 86 
Q 2719 -81 2122 -81 
Q 1253 -81 787 320 
Q 322 722 231 1491 
z
" transform="scale(0.015625)"/>
       <path id="Arial-BoldMT-66" d="M 75 3319 
L 563 3319 
L 563 3569 
Q 563 3988 652 4194 
Q 741 4400 980 4529 
Q 1219 4659 1584 4659 
Q 1959 4659 2319 4547 
L 2200 3934 
Q 1991 3984 1797 3984 
Q 1606 3984 1523 3895 
Q 1441 3806 1441 3553 
L 1441 3319 
L 2097 3319 
L 2097 2628 
L 1441 2628 
L 1441 0 
L 563 0 
L 563 2628 
L 75 2628 
L 75 3319 
z
" transform="scale(0.015625)"/>
       <path id="Arial-BoldMT-74" d="M 1981 3319 
L 1981 2619 
L 1381 2619 
L 1381 1281 
Q 1381 875 1398 808 
Q 1416 741 1477 697 
Q 1538 653 1625 653 
Q 1747 653 1978 738 
L 2053 56 
Q 1747 -75 1359 -75 
Q 1122 -75 931 4 
Q 741 84 652 211 
Q 563 338 528 553 
Q 500 706 500 1172 
L 500 2619 
L 97 2619 
L 97 3319 
L 500 3319 
L 500 3978 
L 1381 4491 
L 1381 3319 
L 1981 3319 
z
" transform="scale(0.015625)"/>
       <path id="Arial-BoldMT-2f" d="M -9 -78 
L 1125 4659 
L 1784 4659 
L 638 -78 
L -9 -78 
z
" transform="scale(0.015625)"/>
       <path id="Arial-BoldMT-70" d="M 434 3319 
L 1253 3319 
L 1253 2831 
Q 1413 3081 1684 3237 
Q 1956 3394 2288 3394 
Q 2866 3394 3269 2941 
Q 3672 2488 3672 1678 
Q 3672 847 3265 386 
Q 2859 -75 2281 -75 
Q 2006 -75 1782 34 
Q 1559 144 1313 409 
L 1313 -1263 
L 434 -1263 
L 434 3319 
z
M 1303 1716 
Q 1303 1156 1525 889 
Q 1747 622 2066 622 
Q 2372 622 2575 867 
Q 2778 1113 2778 1672 
Q 2778 2194 2568 2447 
Q 2359 2700 2050 2700 
Q 1728 2700 1515 2451 
Q 1303 2203 1303 1716 
z
" transform="scale(0.015625)"/>
      </defs>
      <use xlink:href="#Arial-BoldMT-43"/>
      <use xlink:href="#Arial-BoldMT-68" x="72.216797"/>
      <use xlink:href="#Arial-BoldMT-65" x="133.300781"/>
      <use xlink:href="#Arial-BoldMT-6d" x="188.916016"/>
      <use xlink:href="#Arial-BoldMT-69" x="277.832031"/>
      <use xlink:href="#Arial-BoldMT-63" x="305.615234"/>
      <use xlink:href="#Arial-BoldMT-61" x="361.230469"/>
      <use xlink:href="#Arial-BoldMT-6c" x="416.845703"/>
      <use xlink:href="#Arial-BoldMT-20" x="444.628906"/>
      <use xlink:href="#Arial-BoldMT-53" x="472.412109"/>
      <use xlink:href="#Arial-BoldMT-68" x="539.111328"/>
      <use xlink:href="#Arial-BoldMT-69" x="600.195312"/>
      <use xlink:href="#Arial-BoldMT-66" x="627.978516"/>
      <use xlink:href="#Arial-BoldMT-74" x="661.279297"/>
      <use xlink:href="#Arial-BoldMT-20" x="694.580078"/>
      <use xlink:href="#Arial-BoldMT-2f" x="722.363281"/>
      <use xlink:href="#Arial-BoldMT-20" x="750.146484"/>
      <use xlink:href="#Arial-BoldMT-70" x="777.929688"/>
      <use xlink:href="#Arial-BoldMT-70" x="839.013672"/>
      <use xlink:href="#Arial-BoldMT-6d" x="900.097656"/>
     </g>
    </g>
   </g>
   <g id="matplotlib.axis_2"/>
   <g id="line2d_12">
    <path d="M 2.971615 189.741906 
L 3.380854 186.783838 
L 3.585474 186.038503 
L 3.790094 186.22029 
L 5.017812 191.742639 
L 5.836291 195.318025 
L 6.040911 195.283086 
L 6.24553 194.566748 
L 7.473249 187.726639 
L 7.677868 187.826375 
L 7.882488 188.603857 
L 8.496347 192.235663 
L 8.700967 192.344849 
L 8.905587 191.262503 
L 9.928685 180.968152 
L 10.133305 180.533624 
L 10.337925 180.788083 
L 10.542545 181.617259 
L 10.951784 184.653513 
L 11.770263 191.871301 
L 11.974883 191.942541 
L 12.179502 191.007114 
L 12.793362 186.635558 
L 12.997981 186.005139 
L 13.202601 185.923445 
L 13.407221 186.313296 
L 14.634939 190.117008 
L 14.839559 190.260419 
L 15.044179 190.235431 
L 15.453418 189.751644 
L 15.658038 189.533413 
L 15.862657 189.658638 
L 16.476517 191.505292 
L 17.499615 194.455628 
L 17.704235 194.368493 
L 17.908855 193.613493 
L 18.318094 190.325143 
L 19.545813 177.095348 
L 19.750432 177.287517 
L 20.159672 180.095373 
L 20.978151 186.724197 
L 21.79663 189.894911 
L 22.205869 190.551464 
L 22.615108 190.845231 
L 22.819728 191.063533 
L 23.024348 190.956852 
L 23.228968 190.234787 
L 23.842827 187.139536 
L 24.047447 186.995624 
L 24.252066 187.346597 
L 25.275165 190.724803 
L 25.479785 190.907592 
L 25.684404 191.36138 
L 25.889024 192.428905 
L 26.912123 201.113449 
L 27.116742 201.576329 
L 27.321362 200.912831 
L 27.730602 197.183868 
L 28.344461 191.584193 
L 28.7537 189.199337 
L 29.16294 188.113841 
L 29.367559 187.926684 
L 29.981419 188.052911 
L 30.186038 188.371164 
L 30.595278 189.910448 
L 31.004517 191.173436 
L 31.209137 190.912891 
L 31.822996 189.061511 
L 32.436855 188.444695 
L 33.255334 186.697634 
L 33.459954 186.605272 
L 33.664574 186.897965 
L 34.278433 188.621614 
L 34.483053 188.515792 
L 34.892292 187.521583 
L 35.301532 185.782254 
L 36.12001 179.307438 
L 36.32463 178.849068 
L 36.52925 178.757351 
L 36.73387 178.946799 
L 37.347729 180.281671 
L 37.756968 182.107848 
L 38.780067 188.863543 
L 38.984687 189.277451 
L 39.189306 189.265351 
L 40.212405 187.620316 
L 41.030884 184.267743 
L 41.440123 184.990811 
L 41.644743 184.632534 
L 42.258602 181.545088 
L 42.463222 181.300223 
L 42.667842 181.602653 
L 42.872461 182.501851 
L 43.281701 186.641573 
L 44.10018 197.448494 
L 44.304799 197.832903 
L 44.509419 196.94201 
L 45.327898 191.496987 
L 45.737138 189.494607 
L 45.941757 189.21201 
L 46.146377 189.517304 
L 46.555616 190.528267 
L 46.964856 191.332741 
L 47.578715 193.516764 
L 48.192574 194.329759 
L 48.601814 195.442391 
L 48.806433 195.359194 
L 49.420293 193.922438 
L 49.624912 194.060909 
L 50.443391 196.581085 
L 51.05725 194.953592 
L 51.26187 193.978142 
L 51.46649 192.062539 
L 51.875729 185.335555 
L 52.489589 174.817818 
L 52.694208 173.319201 
L 52.898828 172.922549 
L 53.512687 172.966224 
L 53.717307 173.314691 
L 54.331166 175.363466 
L 54.945025 178.008866 
L 55.354265 178.529312 
L 55.558884 178.569406 
L 55.763504 178.419194 
L 56.172744 177.290667 
L 56.581983 175.725465 
L 56.786603 175.479383 
L 56.991223 176.177964 
L 57.400462 179.871773 
L 58.014321 185.798793 
L 58.423561 187.919811 
L 58.8328 188.741254 
L 59.03742 188.695359 
L 59.24204 188.282884 
L 59.651279 186.165804 
L 60.265138 181.994294 
L 60.469758 181.304161 
L 60.674378 181.273231 
L 61.492857 183.102272 
L 61.902096 181.634729 
L 62.515955 178.176835 
L 63.129814 174.397681 
L 63.334434 174.056946 
L 63.539054 174.182887 
L 63.743674 174.748368 
L 64.766772 179.147345 
L 64.971392 179.162739 
L 65.176012 178.666708 
L 66.19911 174.222409 
L 66.812969 172.933432 
L 67.017589 172.727373 
L 67.222209 173.031163 
L 67.631448 175.488046 
L 68.040688 177.697916 
L 68.245308 177.836244 
L 68.449927 177.62775 
L 68.654547 177.629326 
L 68.859167 178.228743 
L 69.473026 181.356929 
L 69.677646 181.52633 
L 70.496125 180.596272 
L 70.905364 180.884597 
L 71.314603 181.875656 
L 71.928463 183.992091 
L 72.337702 185.717744 
L 72.542322 185.816693 
L 72.746942 185.153553 
L 73.360801 182.23293 
L 73.56542 181.914892 
L 73.77004 181.949044 
L 73.97466 182.367605 
L 74.17928 183.328951 
L 75.202378 190.14937 
L 75.816237 192.837014 
L 76.020857 192.655942 
L 76.430097 191.40169 
L 76.634716 191.315772 
L 77.453195 192.225567 
L 77.657815 191.751661 
L 78.476294 188.402023 
L 78.680914 188.577652 
L 79.908632 191.716936 
L 80.317871 193.551203 
L 80.931731 196.890817 
L 81.954829 200.963881 
L 82.773308 207.122807 
L 82.977928 206.63186 
L 83.387167 204.843558 
L 83.591787 204.486929 
L 83.796407 204.447693 
L 84.001026 204.638931 
L 84.205646 205.246296 
L 84.819505 208.690229 
L 85.024125 208.365675 
L 85.433365 204.895824 
L 85.842604 201.107578 
L 86.047224 200.291504 
L 86.251843 200.073131 
L 86.456463 199.667099 
L 87.274942 195.722983 
L 87.479562 195.898398 
L 87.888801 196.40481 
L 88.093421 196.110758 
L 88.70728 193.989669 
L 88.9119 193.843895 
L 89.11652 193.929885 
L 89.321139 193.762489 
L 89.730379 192.004258 
L 90.139618 190.080278 
L 90.548858 189.164183 
L 90.753477 189.138551 
L 90.958097 189.650046 
L 91.571956 193.133572 
L 93.004294 201.478527 
L 93.208914 201.967326 
L 93.618154 202.246844 
L 93.822773 202.769652 
L 94.436633 206.506492 
L 94.641252 206.328428 
L 95.459731 201.104069 
L 96.68745 193.72311 
L 97.096689 192.687517 
L 97.301309 192.869447 
L 98.119788 195.331128 
L 98.324407 194.759848 
L 98.733647 192.051513 
L 99.347506 187.792438 
L 99.552126 187.075313 
L 99.756745 186.83367 
L 99.961365 187.270489 
L 100.370605 190.278819 
L 100.779844 193.32481 
L 100.984464 194.057042 
L 101.189084 194.270762 
L 101.393703 193.886783 
L 101.598323 192.719736 
L 102.212182 187.253807 
L 102.416802 186.724483 
L 102.621422 187.332278 
L 103.235281 191.045132 
L 103.64452 192.070773 
L 103.84914 191.927577 
L 104.258379 190.222973 
L 104.667619 187.187865 
L 105.281478 182.169637 
L 105.486098 182.223622 
L 106.304577 185.486841 
L 106.918436 185.97922 
L 107.532295 186.942785 
L 107.736915 187.046244 
L 107.941535 186.874839 
L 108.146154 186.352818 
L 108.964633 183.143226 
L 109.169253 183.176734 
L 109.373873 183.78818 
L 110.192352 187.973509 
L 110.396971 188.164031 
L 110.601591 187.843416 
L 111.21545 185.44424 
L 112.647788 180.007594 
L 113.466267 172.96472 
L 113.670887 172.597279 
L 113.875507 173.152808 
L 114.284746 176.397411 
L 115.512464 189.225757 
L 116.740183 194.950298 
L 116.944803 195.091776 
L 117.149422 194.594528 
L 117.967901 190.831985 
L 118.172521 191.234509 
L 118.991 195.606851 
L 119.19562 195.624679 
L 119.400239 194.967768 
L 119.809479 191.691017 
L 120.627958 182.874304 
L 121.037197 180.660066 
L 121.446436 179.540346 
L 121.855676 178.817493 
L 122.469535 176.967832 
L 122.674155 176.823491 
L 122.878775 176.977068 
L 123.288014 177.805886 
L 123.697253 179.87972 
L 124.311113 184.352801 
L 124.720352 185.33219 
L 125.129592 185.606982 
L 126.15269 185.961464 
L 126.56193 186.368426 
L 126.766549 186.360407 
L 126.971169 186.122201 
L 127.380409 185.335411 
L 127.585028 185.375148 
L 127.789648 186.045591 
L 128.812747 192.177883 
L 129.221986 193.106365 
L 129.835845 193.962676 
L 130.245085 195.297119 
L 130.654324 196.759292 
L 131.063564 197.622548 
L 131.268183 197.841065 
L 131.472803 197.728012 
L 131.677423 197.148427 
L 132.086662 194.287731 
L 132.700521 189.618543 
L 133.314381 186.587015 
L 133.72362 184.05252 
L 133.92824 183.650855 
L 134.13286 183.987437 
L 134.337479 185.002911 
L 134.746719 188.889605 
L 135.155958 192.967537 
L 135.360578 193.84096 
L 135.565198 193.923154 
L 135.769817 193.726904 
L 135.974437 193.78898 
L 136.179057 194.363338 
L 136.792916 197.900921 
L 137.202155 200.13807 
L 137.406775 200.701832 
L 137.611395 200.738777 
L 137.816015 200.17437 
L 138.225254 197.238139 
L 138.839113 191.701256 
L 139.248353 190.47822 
L 139.452972 190.090087 
L 139.862212 188.196465 
L 140.680691 182.424454 
L 141.08993 178.678092 
L 141.29455 177.709444 
L 141.49917 177.506105 
L 141.703789 177.848272 
L 142.113029 179.248298 
L 142.522268 181.879164 
L 142.931508 184.923437 
L 143.136128 185.562234 
L 143.340747 185.500301 
L 143.749987 184.933532 
L 143.954606 185.336271 
L 144.568466 187.729288 
L 145.182325 189.167691 
L 145.796184 190.712989 
L 146.000804 191.054297 
L 146.205423 191.088234 
L 146.614663 190.642823 
L 146.819283 190.698884 
L 147.433142 191.553406 
L 147.842381 192.707636 
L 148.047001 192.913337 
L 148.251621 192.412939 
L 148.66086 189.281245 
L 149.0701 186.254872 
L 149.274719 185.430637 
L 149.479339 185.071358 
L 149.683959 185.373931 
L 150.093198 188.17205 
L 150.502438 191.070191 
L 150.707057 191.47429 
L 150.911677 191.134128 
L 151.320917 190.204572 
L 151.525536 190.717357 
L 151.934776 192.856059 
L 152.139396 193.073072 
L 152.344015 192.369837 
L 152.957874 189.081344 
L 153.367114 187.012092 
L 153.980973 181.823747 
L 154.185593 181.107482 
L 154.390213 181.096885 
L 154.594832 181.819094 
L 154.799452 183.465775 
L 155.822551 196.078753 
L 156.23179 197.205419 
L 156.43641 196.925757 
L 157.459508 192.878684 
L 158.277987 191.118234 
L 158.482607 191.485459 
L 159.301086 194.476177 
L 159.505706 194.702856 
L 159.914945 194.802807 
L 160.119565 195.196166 
L 160.528804 196.458437 
L 160.733424 196.611514 
L 160.938044 196.159587 
L 161.551903 193.864874 
L 161.961142 192.910616 
L 162.984241 189.315899 
L 163.188861 189.571503 
L 163.39348 190.411132 
L 164.211959 195.74568 
L 164.416579 195.592174 
L 164.825819 194.22852 
L 166.053537 187.935848 
L 166.258157 187.81986 
L 166.462776 188.513859 
L 166.872016 192.346138 
L 167.281255 196.913872 
L 167.690495 198.940881 
L 167.895114 198.92921 
L 168.099734 198.283325 
L 168.713593 195.16724 
L 168.918213 195.616302 
L 169.327453 199.20207 
L 169.736692 202.374002 
L 170.145931 203.547707 
L 170.350551 203.870828 
L 170.555171 203.838681 
L 170.759791 203.023896 
L 171.16903 198.821599 
L 171.782889 192.841882 
L 172.396748 187.510772 
L 173.010608 181.50528 
L 173.215227 180.693932 
L 173.419847 180.856388 
L 173.829087 183.030602 
L 174.238326 185.175104 
L 174.647565 186.099934 
L 174.852185 186.134015 
L 175.056805 185.836883 
L 175.466044 184.234307 
L 176.284523 179.665714 
L 176.489143 179.428152 
L 176.693763 179.751345 
L 177.716861 182.835426 
L 177.921481 183.315705 
L 178.53534 186.004852 
L 179.149199 188.254531 
L 179.558439 189.448283 
L 179.763059 189.719997 
L 179.967678 189.774913 
L 180.172298 189.950901 
L 180.376918 190.620843 
L 180.581538 192.018864 
L 180.990777 197.335584 
L 181.604636 206.483867 
L 181.809256 207.446501 
L 182.013876 207.072044 
L 182.423115 203.614651 
L 183.036974 197.162531 
L 184.060073 190.06603 
L 184.264693 189.69637 
L 184.469312 190.285908 
L 185.492411 196.784637 
L 185.697031 196.796809 
L 185.90165 196.543925 
L 186.10627 196.469821 
L 186.31089 196.52667 
L 186.51551 196.351542 
L 186.720129 195.735942 
L 187.129369 193.395907 
L 187.947848 187.009085 
L 188.152467 186.461719 
L 188.357087 186.616513 
L 188.970946 188.601065 
L 189.380186 190.626499 
L 189.789425 193.024815 
L 189.994045 193.594806 
L 190.403284 193.671273 
L 190.607904 194.028045 
L 191.017144 196.217295 
L 191.631003 199.927572 
L 191.835623 200.101698 
L 192.244862 199.396172 
L 192.449482 199.677122 
L 193.063341 202.100713 
L 194.291059 203.123274 
L 194.495679 202.916213 
L 194.904918 201.679287 
L 195.314158 200.395894 
L 195.518778 200.502504 
L 195.928017 202.29059 
L 196.337257 204.147912 
L 196.541876 204.358625 
L 196.951116 204.020755 
L 197.155735 203.527373 
L 197.360355 202.386245 
L 199.201933 186.835746 
L 199.406552 186.44253 
L 199.611172 186.571765 
L 199.815792 187.286527 
L 200.429651 190.713061 
L 200.634271 191.086516 
L 201.24813 190.884037 
L 201.45275 191.111933 
L 201.861989 192.104638 
L 202.271229 193.317722 
L 202.475848 193.654734 
L 202.680468 193.773801 
L 203.089707 193.828144 
L 203.294327 194.25587 
L 203.908186 196.461015 
L 204.112806 196.156079 
L 204.317426 194.805599 
L 204.931285 186.837393 
L 205.340524 182.132907 
L 205.749764 179.606932 
L 205.954384 179.493449 
L 206.568243 180.876006 
L 206.977482 180.81436 
L 207.182102 181.140632 
L 207.591341 183.124038 
L 208.40982 188.448275 
L 208.81906 189.673745 
L 209.02368 189.694652 
L 209.228299 189.288691 
L 209.637539 187.475832 
L 210.046778 185.293527 
L 210.251398 185.112097 
L 210.456018 185.778746 
L 210.865257 187.757283 
L 211.069877 188.16131 
L 211.683736 188.264913 
L 211.888356 188.573357 
L 212.297595 190.292495 
L 212.706835 192.318859 
L 212.911454 192.594869 
L 213.116074 192.241748 
L 213.525314 190.305525 
L 214.139173 186.491503 
L 214.343792 186.300194 
L 214.548412 187.016316 
L 215.162271 189.834125 
L 215.366891 190.089371 
L 215.571511 189.853313 
L 216.18537 188.187802 
L 216.799229 187.223163 
L 217.003849 186.33542 
L 217.413088 182.994016 
L 217.822328 179.319968 
L 218.231567 177.47854 
L 218.436187 177.064418 
L 218.640807 176.995183 
L 219.050046 177.644934 
L 219.663905 179.337366 
L 219.868525 179.313882 
L 220.073145 178.63005 
L 220.482384 175.659881 
L 221.096243 171.275009 
L 221.710103 168.062051 
L 222.733201 161.743032 
L 222.937821 161.248147 
L 223.142441 161.172182 
L 223.55168 161.745968 
L 223.7563 161.709668 
L 223.96092 161.12507 
L 224.984018 155.559691 
L 225.188638 155.350052 
L 225.393258 155.474132 
L 225.802497 156.598291 
L 226.211737 157.687868 
L 226.416356 157.744789 
L 226.825596 157.415009 
L 227.030216 157.470998 
L 227.234835 157.949344 
L 227.439455 159.111736 
L 228.053314 165.418226 
L 228.871793 174.852543 
L 229.894892 179.484213 
L 230.713371 186.298762 
L 231.53185 194.886576 
L 231.736469 195.644011 
L 231.941089 195.49165 
L 232.350328 193.280706 
L 232.964188 189.272439 
L 233.373427 188.401307 
L 233.782667 187.659767 
L 234.191906 186.570046 
L 234.396526 185.543189 
L 234.805765 181.279102 
L 235.215005 176.796427 
L 235.419624 175.948063 
L 235.624244 176.144957 
L 236.033483 178.312871 
L 237.056582 186.303702 
L 237.261202 186.23418 
L 237.670441 184.384304 
L 237.875061 183.417446 
L 238.079681 183.112797 
L 238.2843 183.713289 
L 238.69354 185.906047 
L 238.89816 186.061844 
L 239.102779 185.243909 
L 239.512019 182.866142 
L 239.716639 182.421232 
L 239.921258 182.727958 
L 240.535117 184.903819 
L 240.739737 184.981932 
L 241.148977 183.898727 
L 241.353596 183.395895 
L 241.558216 183.328736 
L 241.762836 183.761832 
L 242.785934 187.719766 
L 243.195174 187.808905 
L 243.399794 187.660196 
L 243.809033 187.091351 
L 244.013653 187.211492 
L 244.422892 188.048186 
L 244.627512 188.131096 
L 244.832132 187.781913 
L 245.445991 186.10559 
L 245.650611 186.165303 
L 246.05985 187.229392 
L 246.673709 189.274372 
L 246.878329 189.582028 
L 247.082949 189.39752 
L 247.492188 188.552164 
L 248.106047 188.326702 
L 248.515287 187.861315 
L 248.719907 187.985251 
L 249.129146 189.296138 
L 249.538385 190.602585 
L 249.743005 190.611105 
L 250.356864 188.974878 
L 250.561484 189.133396 
L 251.379963 191.495483 
L 251.584583 191.457107 
L 251.993822 190.728383 
L 253.016921 190.136411 
L 253.221541 190.540295 
L 253.63078 191.810442 
L 253.8354 191.772925 
L 254.040019 191.510519 
L 254.244639 191.503216 
L 254.858498 192.339981 
L 255.063118 192.415445 
L 255.676977 192.129483 
L 256.290836 193.074647 
L 256.495456 192.880259 
L 256.700076 192.01643 
L 257.518555 186.799876 
L 257.927794 185.469729 
L 258.132414 185.312428 
L 258.337034 185.733138 
L 258.746273 188.729941 
L 259.155513 192.353656 
L 259.360132 193.237676 
L 259.564752 193.213476 
L 260.383231 190.330155 
L 260.587851 190.433471 
L 260.79247 190.668742 
L 260.99709 191.131837 
L 261.610949 193.459128 
L 261.815569 193.415597 
L 262.020189 192.746943 
L 262.429428 189.75057 
L 263.043287 184.11617 
L 263.452527 182.791465 
L 263.657147 182.804424 
L 263.861766 183.464486 
L 264.271006 186.962833 
L 264.680245 191.228494 
L 264.884865 192.482031 
L 265.089485 192.913265 
L 265.294104 192.755034 
L 265.703344 191.639538 
L 266.112583 188.875929 
L 266.521823 185.761133 
L 266.726443 185.292381 
L 266.931062 185.650514 
L 267.340302 187.029562 
L 267.544921 186.923167 
L 267.954161 184.419674 
L 268.56802 179.90299 
L 268.77264 178.925391 
L 268.97726 178.688689 
L 269.181879 179.40209 
L 269.591119 183.779588 
L 270.000358 188.81815 
L 270.204978 190.04856 
L 270.409598 190.331014 
L 270.614217 189.923049 
L 271.023457 188.588607 
L 271.228077 188.599561 
L 271.432696 189.280529 
L 272.046555 193.305264 
L 272.455795 195.509478 
L 272.865034 196.22782 
L 273.478894 196.982391 
L 273.888133 196.852083 
L 274.092753 197.05492 
L 274.297372 197.714337 
L 275.115851 201.965106 
L 275.320471 201.936539 
L 275.525091 201.038056 
L 275.93433 197.55095 
L 276.548189 192.152251 
L 276.752809 192.026597 
L 277.366668 193.883919 
L 277.571288 193.886138 
L 277.980527 193.196507 
L 278.185147 193.084384 
L 278.594387 193.341278 
L 278.799006 193.228941 
L 279.617485 191.414721 
L 280.026725 191.685934 
L 280.435964 192.06977 
L 280.640584 191.986072 
L 280.845204 191.312049 
L 281.459063 188.131168 
L 281.663683 188.010597 
L 281.868302 188.466174 
L 282.277542 190.517455 
L 282.891401 193.68101 
L 283.30064 194.286657 
L 283.50526 195.004068 
L 284.323739 201.40027 
L 284.528359 201.666901 
L 284.937598 201.606257 
L 285.142218 201.469505 
L 285.346838 200.990085 
L 285.756077 198.81537 
L 286.574556 193.814827 
L 286.983795 192.663818 
L 287.188415 192.665393 
L 287.597655 193.42025 
L 288.006894 194.860443 
L 288.416134 197.892544 
L 288.825373 201.083449 
L 289.234612 202.363978 
L 289.439232 202.64722 
L 289.643852 202.716455 
L 290.257711 202.044293 
L 290.462331 202.124841 
L 290.87157 203.012584 
L 291.690049 204.901767 
L 292.099289 205.541351 
L 292.713148 206.965936 
L 292.917768 206.915029 
L 293.122387 206.468402 
L 293.531627 204.860026 
L 293.940866 203.312723 
L 294.145486 203.650307 
L 294.350106 205.211428 
L 295.168585 213.894253 
L 295.373204 214.307516 
L 295.577824 214.123009 
L 295.987063 212.906488 
L 296.600923 210.815255 
L 296.805542 210.861221 
L 297.010162 211.487345 
L 297.419402 214.39551 
L 297.828641 217.592287 
L 298.033261 217.969894 
L 298.23788 217.336754 
L 298.85174 212.866536 
L 299.465599 209.013493 
L 299.874838 207.608384 
L 300.079458 207.561058 
L 300.284078 208.081073 
L 300.693317 210.274047 
L 301.307176 214.135323 
L 301.511796 214.766244 
L 301.716416 214.880014 
L 302.330275 214.326203 
L 302.534895 214.699587 
L 303.353374 217.270454 
L 303.762613 216.985422 
L 303.967233 217.119096 
L 304.376472 217.708418 
L 304.785712 217.587847 
L 304.990331 217.81646 
L 305.194951 218.662747 
L 305.604191 222.081692 
L 306.01343 225.834355 
L 306.21805 226.7957 
L 306.42267 227.053954 
L 306.627289 226.813313 
L 307.241148 225.254483 
L 307.445768 225.258922 
L 307.855008 225.653069 
L 308.468867 226.590858 
L 308.673487 226.422245 
L 308.878106 225.722089 
L 309.287346 222.869842 
L 310.105825 215.910021 
L 311.128923 209.752527 
L 311.333543 209.528068 
L 311.538163 209.872812 
L 312.152022 212.373441 
L 313.17512 217.449449 
L 313.78898 218.042996 
L 313.993599 218.826563 
L 314.402839 221.810121 
L 315.016698 226.358953 
L 315.835177 230.58273 
L 316.244416 233.90559 
L 316.449036 234.346848 
L 316.653656 233.921342 
L 317.267515 231.69035 
L 317.472135 231.667295 
L 317.676754 232.423083 
L 318.085994 236.167727 
L 318.495233 239.970365 
L 318.699853 240.443198 
L 318.904473 240.028431 
L 319.313712 238.26526 
L 319.518332 237.920587 
L 319.722952 238.334424 
L 320.336811 241.577166 
L 320.74605 243.244252 
L 320.95067 242.758532 
L 321.35991 238.877351 
L 322.587628 222.19811 
L 322.792248 221.270559 
L 322.996867 221.020038 
L 323.201487 221.147339 
L 323.610727 221.609289 
L 323.815346 221.492441 
L 324.429205 220.344869 
L 324.633825 220.46859 
L 325.452304 222.593546 
L 325.861544 222.351401 
L 326.270783 221.789214 
L 327.089262 220.215205 
L 327.498501 220.639566 
L 327.703121 220.855935 
L 327.907741 220.811831 
L 328.112361 220.306421 
L 328.5216 217.876244 
L 329.749318 207.727666 
L 330.158558 206.394011 
L 330.363178 206.120221 
L 330.567797 206.190816 
L 330.977037 206.690928 
L 331.181656 206.631 
L 331.386276 206.202272 
L 332.000135 204.091851 
L 332.409375 202.944566 
L 332.818614 200.323294 
L 333.227854 198.047625 
L 333.432473 198.304017 
L 333.841713 199.962655 
L 334.046333 200.178881 
L 334.250952 199.894852 
L 334.864812 198.564992 
L 335.274051 198.508573 
L 335.478671 198.24409 
L 336.29715 196.165029 
L 336.501769 196.298631 
L 336.911009 197.022271 
L 337.115629 197.041173 
L 337.524868 196.031141 
L 337.934107 195.237979 
L 338.547967 194.712951 
L 338.752586 194.54756 
L 338.957206 193.841962 
L 339.366446 190.419939 
L 339.980305 182.475145 
L 340.798784 167.056816 
L 342.231122 137.870275 
L 343.049601 125.269826 
L 344.072699 100.823283 
L 344.686558 81.313347 
L 346.528136 13.822197 
L 346.937375 6.823069 
L 347.346615 3.225129 
L 347.551235 3.00024 
L 347.755854 3.675265 
L 347.960474 5.080733 
L 348.369714 10.447786 
L 351.643629 74.973922 
L 352.871347 85.027633 
L 353.485207 94.377106 
L 354.712925 113.882389 
L 355.736024 127.851719 
L 356.349883 137.535913 
L 356.759122 140.756317 
L 357.168362 141.946847 
L 357.372981 141.950857 
L 357.986841 141.225211 
L 358.19146 141.382655 
L 358.39608 141.880404 
L 358.80532 144.008724 
L 359.623798 149.895149 
L 359.828418 150.201445 
L 360.237658 149.957797 
L 360.851517 149.493628 
L 361.056137 149.578471 
L 361.260756 150.114811 
L 361.465376 151.306129 
L 362.488475 160.097926 
L 363.306954 163.233701 
L 363.511573 163.422505 
L 363.716193 163.231696 
L 364.125432 162.05928 
L 364.330052 161.428073 
L 364.534672 161.160297 
L 364.739292 161.50769 
L 364.943911 162.626622 
L 366.580869 178.762363 
L 367.399348 189.493462 
L 367.603968 190.90795 
L 367.808588 191.40663 
L 368.217827 191.026087 
L 368.422447 191.46534 
L 369.036306 194.498515 
L 369.240926 194.559732 
L 369.445545 193.984514 
L 370.059405 191.159188 
L 370.264024 190.986493 
L 370.468644 191.357585 
L 370.877883 193.321016 
L 371.287123 195.772386 
L 371.696362 196.654329 
L 371.900982 197.123582 
L 372.105602 198.244663 
L 372.924081 205.073387 
L 373.1287 205.243074 
L 373.33332 204.751483 
L 374.356419 200.722882 
L 374.561039 200.619351 
L 375.174898 200.938249 
L 375.379517 200.996028 
L 375.788757 201.532726 
L 376.197996 202.390398 
L 377.016475 205.652615 
L 377.221095 205.186154 
L 377.834954 202.688317 
L 378.039574 202.664976 
L 378.244194 202.829222 
L 378.448813 202.840606 
L 379.267292 202.110736 
L 379.471912 202.182692 
L 379.676532 202.708221 
L 380.085771 205.910081 
L 380.495011 209.665106 
L 380.90425 211.505603 
L 381.31349 212.237119 
L 381.518109 212.874555 
L 382.131968 216.47092 
L 382.541208 218.417166 
L 382.950447 219.417032 
L 383.359687 219.753685 
L 383.564307 220.475321 
L 383.973546 222.809843 
L 384.178166 223.324417 
L 384.382785 223.178787 
L 384.587405 222.478058 
L 384.996645 219.274838 
L 385.610504 214.42508 
L 386.224363 210.717954 
L 386.428983 210.374141 
L 386.633602 210.830434 
L 387.042842 213.491085 
L 387.861321 220.273057 
L 388.065941 220.855363 
L 388.47518 221.329341 
L 388.6798 222.319326 
L 389.498279 229.956606 
L 389.702898 229.907776 
L 390.112138 228.34064 
L 390.521377 226.854124 
L 390.725997 226.658304 
L 390.930617 226.948991 
L 391.544476 229.019532 
L 391.749096 228.931467 
L 391.953715 228.032125 
L 392.362955 224.259343 
L 392.976814 218.396689 
L 393.999913 213.584449 
L 394.204532 213.394428 
L 394.409152 213.560034 
L 394.613772 213.582659 
L 394.818391 213.174336 
L 395.227631 211.662187 
L 395.432251 211.456558 
L 395.63687 212.179554 
L 396.04611 215.81451 
L 396.455349 219.548414 
L 396.659969 220.619304 
L 396.864589 221.047889 
L 397.069208 220.860303 
L 397.887687 218.673129 
L 398.092307 218.390102 
L 398.296927 218.316929 
L 398.501547 218.691601 
L 399.524645 222.802397 
L 399.729265 223.256901 
L 399.933885 223.348259 
L 400.343124 223.000651 
L 400.547744 223.153155 
L 400.956983 224.194762 
L 401.775462 227.067987 
L 402.184702 228.546198 
L 402.389321 228.464576 
L 403.003181 226.403845 
L 403.2078 226.754388 
L 403.61704 227.652083 
L 403.821659 227.21462 
L 404.435519 224.440558 
L 404.640138 224.661724 
L 404.844758 225.271523 
L 405.049378 225.50078 
L 405.253998 224.784084 
L 406.072476 218.438717 
L 406.277096 218.060251 
L 406.481716 218.51726 
L 406.890955 220.391122 
L 407.095575 220.652168 
L 407.300195 220.126424 
L 407.709434 218.457762 
L 407.914054 218.220344 
L 408.732533 218.986728 
L 408.937153 219.358035 
L 409.141772 219.447461 
L 409.551012 218.815752 
L 409.755632 218.878114 
L 411.18797 222.444908 
L 411.392589 223.171269 
L 411.597209 223.487231 
L 411.801829 223.220672 
L 412.211068 220.896746 
L 412.620308 218.543394 
L 413.029547 217.710924 
L 413.438787 216.955208 
L 414.871125 213.620606 
L 415.075744 213.751845 
L 415.484984 215.322059 
L 415.894223 216.712849 
L 416.098843 216.577386 
L 416.303463 215.861406 
L 417.326561 209.48382 
L 417.531181 209.719377 
L 417.940421 212.733436 
L 418.7589 219.970126 
L 419.168139 221.793295 
L 419.372759 222.16224 
L 419.577378 221.941002 
L 419.781998 220.961327 
L 420.395857 215.334159 
L 421.009717 210.517265 
L 421.828195 207.2708 
L 423.055914 196.810842 
L 423.465153 194.64436 
L 423.669773 194.135371 
L 423.874393 194.055539 
L 424.079012 194.345654 
L 424.283632 194.957029 
L 424.692872 197.400809 
L 425.511351 204.055909 
L 425.71597 204.564254 
L 425.92059 204.406882 
L 426.12521 203.456062 
L 426.534449 199.474142 
L 427.352928 191.490543 
L 427.762168 189.016548 
L 427.966787 189.494178 
L 428.785266 197.222745 
L 428.989886 196.719269 
L 430.217604 188.636935 
L 430.626844 186.87312 
L 430.831463 186.471814 
L 431.036083 186.946293 
L 431.445323 190.300156 
L 431.854562 193.137797 
L 432.059182 193.134861 
L 432.263801 192.162418 
L 433.900759 179.471397 
L 434.105379 178.832744 
L 434.309999 178.765585 
L 434.514618 179.404525 
L 434.923858 181.543943 
L 435.128478 182.080211 
L 435.333097 182.032097 
L 435.537717 181.485877 
L 435.742337 180.388066 
L 436.356196 175.398763 
L 436.560816 175.372129 
L 436.970055 178.459647 
L 437.379295 181.58819 
L 437.993154 184.713011 
L 438.402393 185.81118 
L 438.607013 185.947502 
L 438.811633 185.554143 
L 440.039351 179.351685 
L 440.65321 175.151679 
L 440.85783 174.53472 
L 441.06245 174.719943 
L 441.471689 176.17016 
L 441.676309 176.395478 
L 441.880929 175.672697 
L 442.699408 168.909484 
L 442.904027 168.375292 
L 443.108647 168.240473 
L 443.313267 168.57548 
L 443.517886 169.621955 
L 444.540985 177.57305 
L 444.950225 179.085055 
L 445.154844 179.273859 
L 445.359464 178.879354 
L 445.768703 177.780182 
L 445.973323 177.74066 
L 446.177943 177.815695 
L 446.587182 177.604553 
L 446.791802 177.71331 
L 447.405661 178.540767 
L 447.814901 178.604131 
L 448.42876 178.441318 
L 448.837999 178.574848 
L 449.042619 178.328766 
L 449.656478 176.235886 
L 449.861098 176.254788 
L 450.065718 177.122197 
L 451.088816 184.776232 
L 451.293436 185.210473 
L 451.498056 184.997326 
L 451.702676 184.250559 
L 452.111915 181.535065 
L 452.930394 175.343848 
L 453.544253 173.612466 
L 453.953493 170.968426 
L 454.362732 168.27348 
L 454.567352 167.569099 
L 454.771971 167.289796 
L 454.976591 167.506451 
L 455.181211 168.381736 
L 455.99969 173.735114 
L 456.818169 177.562811 
L 457.227408 180.586965 
L 457.432028 181.376618 
L 457.636648 181.287837 
L 458.045887 179.168968 
L 458.455127 176.637909 
L 458.659746 176.347866 
L 458.864366 177.053821 
L 459.682845 182.565144 
L 459.887465 182.542591 
L 460.092084 181.393587 
L 460.705944 176.18183 
L 461.524422 171.467679 
L 461.933662 169.308213 
L 462.138282 168.916787 
L 462.342901 169.016237 
L 462.752141 170.505832 
L 463.16138 171.835334 
L 463.366 172.106619 
L 463.57062 172.583318 
L 464.593718 176.885208 
L 464.798338 177.245919 
L 465.002958 176.960028 
L 465.616817 173.950266 
L 465.821437 173.854253 
L 466.026056 174.384221 
L 467.049155 179.281162 
L 467.458394 180.171768 
L 467.867634 181.802841 
L 468.890733 187.550723 
L 469.504592 188.94316 
L 469.913831 190.799122 
L 470.323071 193.661607 
L 471.550789 205.060571 
L 471.755409 205.977383 
L 471.960028 206.252104 
L 472.369268 206.329287 
L 472.778507 207.155742 
L 473.187747 207.855039 
L 473.596986 208.060525 
L 473.801606 208.2552 
L 474.006226 208.245319 
L 474.210845 207.618479 
L 475.029324 201.884916 
L 475.847803 195.090129 
L 476.461662 190.127247 
L 477.075522 187.203831 
L 477.280141 186.904552 
L 477.484761 186.993118 
L 477.689381 187.364282 
L 477.894001 188.139258 
L 478.50786 191.980344 
L 478.712479 191.634311 
L 479.121719 187.43767 
L 479.735578 179.713327 
L 480.349437 175.182394 
L 480.758677 172.570215 
L 480.963296 171.82932 
L 481.167916 171.763092 
L 481.372536 172.036238 
L 481.577156 172.104686 
L 481.781775 171.690563 
L 482.395635 169.617588 
L 482.600254 169.738589 
L 482.804874 170.417265 
L 483.214113 173.392303 
L 483.623353 177.011865 
L 484.032592 178.816563 
L 484.851071 180.976529 
L 485.260311 182.866213 
L 486.488029 191.308254 
L 486.692649 190.883249 
L 487.101888 187.284952 
L 487.511128 183.129336 
L 487.715747 182.292356 
L 487.920367 182.386579 
L 488.329607 184.080228 
L 489.557325 190.314404 
L 489.761945 190.92363 
L 489.966564 191.138639 
L 490.171184 190.830338 
L 490.580424 189.459667 
L 490.785043 189.39394 
L 490.989663 190.009396 
L 492.012762 195.381032 
L 492.217381 195.843125 
L 492.422001 195.806896 
L 492.626621 195.233397 
L 493.24048 192.736419 
L 493.4451 192.539095 
L 493.854339 192.761693 
L 494.058959 192.351007 
L 494.468198 189.739687 
L 494.877438 187.333137 
L 495.082058 187.401585 
L 495.491297 190.179298 
L 495.900537 192.540097 
L 496.105156 192.502651 
L 496.514396 190.153022 
L 496.719015 189.122871 
L 496.923635 189.020199 
L 497.332875 190.796759 
L 497.742114 192.28664 
L 497.946734 192.553056 
L 498.151354 192.192274 
L 499.583692 184.531725 
L 500.197551 179.920603 
L 500.81141 175.099269 
L 501.01603 174.321716 
L 501.220649 174.090598 
L 501.425269 174.429113 
L 501.629889 175.321294 
L 502.039128 178.687758 
L 502.652988 184.378648 
L 503.062227 186.148549 
L 503.266847 186.127714 
L 503.471466 185.876405 
L 503.676086 185.818626 
L 503.880706 186.070794 
L 504.289945 187.168963 
L 504.699185 188.503763 
L 504.903805 188.86834 
L 505.108424 188.929198 
L 505.517664 188.647818 
L 506.131523 189.066738 
L 506.745382 187.576212 
L 507.154621 187.623109 
L 507.359241 187.333352 
L 507.563861 186.333988 
L 507.9731 182.121881 
L 508.38234 177.431858 
L 508.58696 176.078872 
L 508.791579 175.531291 
L 508.996199 175.449455 
L 509.200819 175.669618 
L 509.405438 176.367985 
L 510.428537 182.359443 
L 510.633157 182.19756 
L 511.042396 180.786365 
L 511.451636 178.954031 
L 511.656255 178.595754 
L 511.860875 178.961047 
L 512.270115 181.974962 
L 512.883974 186.854433 
L 513.088594 187.207769 
L 513.293213 186.501599 
L 513.907072 182.217178 
L 514.316312 180.375393 
L 514.930171 176.467506 
L 515.134791 176.773945 
L 515.339411 178.452559 
L 516.362509 191.294436 
L 516.567129 192.398834 
L 516.771749 192.80637 
L 516.976368 192.776442 
L 517.180988 192.513033 
L 517.794847 191.105203 
L 517.999467 191.279759 
L 518.408706 192.137215 
L 518.613326 191.76913 
L 519.022566 188.822661 
L 519.636425 183.766772 
L 519.841045 182.634308 
L 520.045664 182.168849 
L 520.250284 182.522973 
L 520.659523 184.84024 
L 521.273383 188.350759 
L 521.682622 189.645679 
L 521.887242 189.949612 
L 522.091862 189.885675 
L 522.501101 189.281245 
L 522.705721 189.450932 
L 522.91034 190.26586 
L 524.138059 198.131896 
L 524.547298 199.388296 
L 524.751918 199.43011 
L 524.956538 198.600862 
L 525.365777 193.611846 
L 525.979636 185.108446 
L 526.184256 183.953285 
L 526.593496 183.243606 
L 527.002735 182.86965 
L 527.207355 183.116162 
L 528.025834 185.45541 
L 528.230453 185.768579 
L 528.639693 187.055051 
L 529.048932 188.995498 
L 529.458172 191.11809 
L 529.662791 191.156825 
L 529.867411 190.203498 
L 530.48127 185.950581 
L 530.68589 185.893661 
L 531.299749 187.755636 
L 531.504369 187.803893 
L 531.708989 187.316741 
L 532.118228 184.670768 
L 532.732087 180.12122 
L 532.936707 180.060935 
L 533.345947 182.129614 
L 533.755186 183.648564 
L 533.959806 183.52785 
L 534.369045 182.57302 
L 534.573665 182.764186 
L 535.187524 185.55937 
L 535.392144 185.576482 
L 536.006003 183.078644 
L 536.210623 183.14881 
L 536.415242 184.112304 
L 537.029102 188.334005 
L 537.438341 189.204636 
L 537.642961 190.290705 
L 538.46144 197.897126 
L 538.666059 198.484229 
L 538.870679 198.18094 
L 539.075299 196.939933 
L 539.689158 191.254556 
L 539.893778 190.475785 
L 540.098398 190.362231 
L 540.303017 190.485236 
L 540.507637 190.412564 
L 540.712257 189.813075 
L 541.121496 186.536538 
L 542.144595 174.237803 
L 542.349215 173.831628 
L 542.553834 174.338183 
L 543.167693 176.529796 
L 543.576933 177.752402 
L 544.395412 181.401964 
L 544.804651 181.67017 
L 546.03237 183.652287 
L 546.441609 186.134516 
L 547.669327 196.228536 
L 548.078567 197.425009 
L 548.487806 198.09087 
L 548.692426 198.130679 
L 548.897046 197.576367 
L 549.306285 194.462 
L 549.715525 191.159904 
L 549.920144 190.501919 
L 550.124764 190.693515 
L 550.738623 193.068203 
L 550.943243 193.11331 
L 551.147863 192.634749 
L 551.557102 191.137851 
L 551.761722 191.193053 
L 552.784821 195.15335 
L 553.39868 197.188235 
L 553.603299 197.399234 
L 553.807919 197.095372 
L 554.217159 194.876194 
L 554.626398 192.560359 
L 554.831018 192.211104 
L 555.035638 192.295447 
L 555.240257 192.763984 
L 555.649497 194.990608 
L 556.263356 199.509154 
L 556.467976 200.096901 
L 556.672595 200.318998 
L 556.877215 200.759612 
L 557.491074 203.38339 
L 557.695694 203.248929 
L 558.104933 201.205738 
L 558.718793 198.340532 
L 559.128032 197.15487 
L 559.332652 197.004085 
L 560.35575 197.157376 
L 560.56037 197.383196 
L 560.96961 198.94217 
L 561.378849 200.704696 
L 561.583469 201.271251 
L 561.788089 201.495996 
L 561.992708 201.288076 
L 563.015807 198.344613 
L 563.220427 198.295211 
L 563.425046 198.676899 
L 563.629666 199.557196 
L 564.038906 202.921153 
L 564.448145 206.720212 
L 564.652765 207.617978 
L 564.857384 207.784443 
L 565.266624 207.648479 
L 565.880483 207.995371 
L 566.085103 207.508218 
L 566.289723 206.146855 
L 567.312821 196.158871 
L 567.517441 196.441755 
L 567.92668 198.415209 
L 568.745159 203.239335 
L 568.949779 203.230385 
L 569.359018 201.819548 
L 569.768258 200.140504 
L 569.972878 199.652493 
L 570.177497 199.649629 
L 570.586737 200.925647 
L 570.995976 202.186559 
L 571.200596 202.514119 
L 571.405216 202.626886 
L 571.814455 202.633544 
L 572.223695 202.769366 
L 572.428314 202.439944 
L 572.632934 201.593871 
L 574.269892 190.549102 
L 574.883751 189.092298 
L 575.088371 189.157238 
L 575.49761 190.389295 
L 576.111469 192.983217 
L 576.316089 193.232592 
L 576.520709 192.541815 
L 577.134568 188.34274 
L 577.339188 188.027422 
L 577.748427 188.089999 
L 577.953047 187.898618 
L 578.566906 186.817274 
L 578.771526 187.116267 
L 579.385385 189.496182 
L 580.408484 191.507655 
L 580.613103 191.54417 
L 580.817723 191.308469 
L 581.431582 189.625703 
L 581.840822 188.119569 
L 582.250061 186.383892 
L 582.454681 186.311721 
L 582.659301 187.121923 
L 583.47778 192.033756 
L 583.682399 192.516541 
L 583.887019 192.467497 
L 584.500878 191.312694 
L 584.705498 191.300522 
L 585.114737 191.486175 
L 585.319357 191.239162 
L 586.137836 188.48837 
L 586.342456 188.98841 
L 586.751695 191.077709 
L 587.365554 194.331406 
L 587.570174 194.574982 
L 587.774794 194.233961 
L 588.388653 191.560924 
L 589.207132 188.037303 
L 589.411752 187.645018 
L 589.616371 187.744252 
L 590.43485 189.778063 
L 590.84409 189.680046 
L 591.253329 189.339884 
L 591.662569 188.960558 
L 591.867188 189.058647 
L 592.481048 190.289273 
L 593.299526 192.155974 
L 593.504146 191.893997 
L 594.118005 190.353424 
L 594.322625 190.336599 
L 594.936484 191.335247 
L 595.141104 191.32329 
L 595.345724 190.949406 
L 595.754963 189.69859 
L 595.959583 189.445133 
L 596.164203 189.724293 
L 596.573442 191.778653 
L 597.187301 195.211702 
L 597.391921 195.442391 
L 597.596541 195.323109 
L 597.80116 195.040727 
L 598.00578 194.447394 
L 598.2104 193.235671 
L 599.233499 183.845244 
L 599.438118 183.146233 
L 599.642738 183.204657 
L 600.051977 185.292023 
L 600.461217 186.891593 
L 600.665837 186.528448 
L 600.870456 185.121548 
L 601.688935 176.750389 
L 601.893555 176.298391 
L 602.098175 176.645713 
L 602.507414 178.871621 
L 603.121273 182.638675 
L 604.144372 186.630332 
L 604.348992 186.730426 
L 604.553611 186.386827 
L 604.758231 185.426484 
L 605.167471 181.269007 
L 605.78133 174.531569 
L 606.190569 172.77341 
L 606.395189 172.435182 
L 606.599809 172.325494 
L 606.804428 172.493248 
L 607.009048 172.987345 
L 607.418288 175.007194 
L 607.827527 178.826944 
L 608.441386 185.273551 
L 609.055245 188.722638 
L 609.259865 189.295135 
L 609.464485 189.421864 
L 609.669105 189.010605 
L 610.487584 186.044016 
L 610.692203 186.461575 
L 611.306062 189.074184 
L 611.510682 189.008242 
L 611.715302 188.512355 
L 612.124541 186.575058 
L 613.14764 179.528174 
L 613.35226 179.486862 
L 613.556879 179.869339 
L 613.966119 181.655564 
L 614.784598 186.744888 
L 614.989218 187.338722 
L 615.193837 187.28309 
L 615.603077 185.601111 
L 615.807696 184.764633 
L 616.012316 184.503443 
L 616.216936 184.964463 
L 616.626175 187.399795 
L 617.035415 190.979835 
L 617.853894 199.891916 
L 618.058513 200.894144 
L 618.263133 201.035765 
L 618.467753 200.843739 
L 618.672373 201.00641 
L 619.081612 202.317726 
L 619.286232 202.551278 
L 619.490852 202.136082 
L 620.104711 199.681418 
L 620.71857 198.799189 
L 621.127809 196.860245 
L 622.150908 191.476295 
L 622.355528 190.841866 
L 622.969387 190.310036 
L 623.378626 188.721206 
L 623.787866 186.142965 
L 624.810964 177.321383 
L 625.015584 176.835806 
L 625.220204 176.874254 
L 625.424824 177.371215 
L 625.834063 179.733446 
L 626.243302 183.008335 
L 626.447922 183.945695 
L 626.652542 184.31557 
L 627.266401 184.564731 
L 627.471021 184.28285 
L 628.08488 182.374694 
L 628.2895 182.875521 
L 629.107979 187.577143 
L 629.312598 187.416334 
L 629.517218 186.707228 
L 630.131077 183.439999 
L 630.335697 183.064611 
L 630.540317 183.090959 
L 630.949556 183.751665 
L 631.768035 185.479753 
L 632.177275 186.932547 
L 632.381894 186.939348 
L 632.995753 184.979999 
L 633.200373 184.955155 
L 633.404993 185.510397 
L 634.018852 187.867974 
L 634.428092 188.947814 
L 635.041951 191.422382 
L 635.86043 193.449749 
L 636.269669 194.754764 
L 636.474289 194.715815 
L 636.678909 194.026542 
L 637.702007 188.5372 
L 638.315866 186.257879 
L 638.929726 183.858776 
L 639.543585 182.117585 
L 640.362064 177.699563 
L 640.566683 177.764574 
L 640.771303 178.120344 
L 640.975923 178.213063 
L 641.180543 177.656175 
L 641.589782 174.780587 
L 641.999021 172.008673 
L 642.203641 171.357919 
L 642.408261 171.369518 
L 643.840599 174.73727 
L 644.045219 174.921563 
L 644.454458 174.956646 
L 644.659078 175.374277 
L 645.068317 177.556868 
L 645.682177 180.872497 
L 646.091416 181.819523 
L 646.296036 181.912171 
L 646.500655 182.168921 
L 646.705275 182.941463 
L 647.319134 186.696345 
L 647.523754 187.216218 
L 647.932994 187.442682 
L 648.137613 188.055131 
L 648.751472 192.058243 
L 648.956092 193.220922 
L 649.160712 193.7007 
L 649.365332 193.347292 
L 649.774571 191.039547 
L 650.38843 186.522434 
L 651.002289 181.182015 
L 651.411529 179.328917 
L 651.820768 178.530744 
L 652.025388 178.498023 
L 652.639247 179.709532 
L 652.843867 179.5392 
L 653.253106 178.383538 
L 653.662346 176.508818 
L 654.480825 171.82796 
L 654.685445 171.288541 
L 654.890064 171.382978 
L 655.094684 172.061154 
L 656.117783 177.308853 
L 656.322402 176.918215 
L 656.731642 175.245615 
L 656.936262 174.953138 
L 657.75474 175.082444 
L 657.95936 175.195783 
L 658.573219 176.224288 
L 658.777839 176.085531 
L 659.187079 174.582189 
L 659.800938 171.307443 
L 660.005557 170.846495 
L 660.414797 170.38655 
L 660.824036 169.03385 
L 661.437895 165.782803 
L 662.051755 162.116773 
L 662.256374 161.783127 
L 662.460994 161.927039 
L 662.870234 162.803684 
L 663.074853 162.78378 
L 663.279473 162.111189 
L 663.893332 157.941397 
L 664.507191 154.484004 
L 664.916431 152.524726 
L 665.53029 146.873931 
L 666.348769 140.063678 
L 667.167248 134.384816 
L 667.576487 133.267316 
L 667.781107 132.982785 
L 668.190346 131.555266 
L 668.804206 128.253455 
L 669.213445 124.917707 
L 670.441163 111.375531 
L 670.645783 110.486929 
L 670.850403 110.321681 
L 671.259642 111.612233 
L 672.078121 114.662878 
L 672.487361 116.139657 
L 672.8966 117.189641 
L 673.30584 118.34201 
L 673.510459 118.386973 
L 673.919699 117.823784 
L 674.942797 115.794842 
L 675.147417 114.799129 
L 675.556657 110.527238 
L 677.193614 89.18418 
L 677.602854 85.486075 
L 678.625953 73.659241 
L 679.239812 70.030443 
L 679.444431 69.285753 
L 679.649051 69.004087 
L 679.853671 69.18659 
L 680.058291 69.737464 
L 680.26291 70.652128 
L 680.67215 74.046228 
L 681.286009 79.981554 
L 681.490629 81.226427 
L 681.695248 81.693031 
L 681.899868 80.924713 
L 682.104488 78.555108 
L 682.922967 61.296927 
L 683.946065 43.09308 
L 684.355305 39.561082 
L 684.764544 37.484026 
L 685.378404 32.058406 
L 685.992263 24.688902 
L 687.432378 -1 
M 690.760799 -1 
L 691.312376 20.815883 
L 691.721615 26.841279 
L 691.926235 26.603502 
L 692.130855 24.145688 
L 692.540094 14.603044 
L 693.110947 -1 
M 697.162673 -1 
L 697.450967 6.47138 
L 698.064827 28.57309 
L 699.087925 73.774227 
L 699.701784 112.456373 
L 700.315644 169.306423 
L 701.134122 244.364187 
L 701.261208 253 
M 707.52265 253 
L 708.295813 237.273987 
L 709.114292 225.387798 
L 709.523531 221.493372 
L 710.13739 217.99345 
L 710.54663 213.695784 
L 711.365109 200.05831 
L 711.978968 188.227252 
L 713.206686 156.972175 
L 714.843644 113.303735 
L 715.457503 91.873756 
L 717.503701 11.843086 
L 717.70832 9.426012 
L 717.91294 9.981325 
L 718.11756 13.500364 
L 719.140658 42.045602 
L 719.345278 43.634933 
L 719.549898 42.781915 
L 719.959137 35.071175 
L 720.368377 25.948453 
L 720.572997 24.605848 
L 720.777616 27.68907 
L 720.982236 37.018639 
L 721.391475 79.022786 
L 722.435378 253 
M 726.732684 253 
L 727.939307 210.341922 
L 728.348546 200.228999 
L 729.371645 183.48797 
L 730.190124 170.62626 
L 730.803983 154.545005 
L 732.031701 120.49947 
L 732.64556 108.285364 
L 732.85018 106.166638 
L 733.0548 106.124037 
L 733.25942 108.113457 
L 733.873279 117.148759 
L 734.077899 118.80174 
L 734.282518 119.444332 
L 734.487138 118.98546 
L 734.691758 117.257158 
L 735.100997 109.911568 
L 735.919476 92.722478 
L 736.533335 83.862806 
L 736.942575 80.789035 
L 737.761054 78.165615 
L 738.579532 75.215208 
L 738.988772 71.442784 
L 739.398011 66.215633 
L 739.807251 58.146689 
L 740.62573 40.62424 
L 741.648828 27.371605 
L 742.467307 16.274068 
L 743.470453 -1 
M 919.192416 -1 
L 919.344677 253 
M 919.67581 253 
L 919.759997 -1 
M 1050.642525 -1 
L 1051.443095 6.957673 
L 1052.261574 15.887296 
L 1052.466193 16.922459 
L 1053.080053 18.357353 
L 1053.489292 20.507654 
L 1055.740109 34.895617 
L 1055.944729 35.293845 
L 1056.353968 35.449356 
L 1056.763208 35.844218 
L 1057.172447 35.618613 
L 1057.377067 35.813861 
L 1057.581687 36.597071 
L 1058.809405 44.585395 
L 1059.423264 49.758633 
L 1059.832504 50.918806 
L 1060.241743 51.907931 
L 1060.650982 53.668453 
L 1061.060222 56.578336 
L 1062.69718 70.600864 
L 1062.901799 71.08236 
L 1063.311039 70.814727 
L 1063.515659 71.141357 
L 1064.334138 75.105591 
L 1064.947997 75.157643 
L 1065.357236 75.332557 
L 1065.971095 74.777887 
L 1066.175715 74.40343 
L 1066.584955 71.989792 
L 1066.994194 69.493673 
L 1067.198814 69.68262 
L 1067.608053 73.390749 
L 1068.017293 77.007662 
L 1068.426532 78.837634 
L 1068.631152 79.425596 
L 1068.835772 79.554687 
L 1069.040391 79.089157 
L 1070.06349 74.769009 
L 1070.26811 74.44152 
L 1070.677349 73.083379 
L 1071.086589 71.842873 
L 1071.291208 71.421806 
L 1071.905067 69.23005 
L 1072.109687 69.525821 
L 1072.723546 72.113299 
L 1073.337406 73.097126 
L 1073.951265 76.029777 
L 1074.155884 76.336503 
L 1074.360504 76.10875 
L 1074.565124 75.453557 
L 1074.974363 72.587563 
L 1075.383603 69.346826 
L 1075.792842 67.9468 
L 1075.997462 67.921812 
L 1076.406701 68.888885 
L 1076.815941 69.735459 
L 1077.020561 69.676606 
L 1077.22518 68.999433 
L 1077.63442 65.449535 
L 1078.248279 59.569412 
L 1078.452899 58.592887 
L 1078.657518 58.260673 
L 1079.066758 58.475682 
L 1079.885237 59.017463 
L 1080.294476 58.927679 
L 1080.703716 59.735877 
L 1080.908335 60.083556 
L 1081.317575 60.235272 
L 1081.522195 60.239926 
L 1081.726814 60.074893 
L 1081.931434 59.501107 
L 1082.340674 56.90647 
L 1082.749913 54.772779 
L 1082.954533 54.60166 
L 1083.568392 54.890487 
L 1084.386871 53.845873 
L 1084.59149 53.209081 
L 1085.00073 50.245212 
L 1086.023829 38.202296 
L 1086.433068 36.695732 
L 1086.637688 36.660005 
L 1086.842307 37.282048 
L 1087.251547 40.500948 
L 1087.660786 43.604003 
L 1087.865406 44.381771 
L 1088.070026 44.503631 
L 1088.479265 43.483861 
L 1088.888505 42.011235 
L 1089.502364 37.453668 
L 1089.706984 36.950406 
L 1089.911603 37.50615 
L 1090.320843 41.190007 
L 1090.730082 45.379273 
L 1090.934702 46.631593 
L 1091.139322 47.006337 
L 1091.343941 46.646915 
L 1091.753181 45.672467 
L 1092.16242 45.789028 
L 1092.36704 45.503925 
L 1093.185519 42.396503 
L 1094.003998 38.18139 
L 1094.208618 38.352938 
L 1094.413237 39.23524 
L 1094.822477 42.533542 
L 1095.640956 51.454358 
L 1095.845575 51.991558 
L 1096.050195 51.340088 
L 1096.459435 47.543894 
L 1097.073294 41.313298 
L 1097.891773 35.644388 
L 1098.301012 33.366715 
L 1098.710252 32.479402 
L 1098.914871 32.484485 
L 1099.119491 32.915361 
L 1099.528731 35.300933 
L 1100.14259 39.100492 
L 1100.347209 39.36655 
L 1101.165688 38.082871 
L 1101.370308 38.258429 
L 1101.984167 39.735924 
L 1102.393407 41.314444 
L 1102.802646 43.169904 
L 1103.007266 43.416774 
L 1103.416505 43.246156 
L 1104.030365 43.664646 
L 1104.234984 43.838915 
L 1104.439604 44.25762 
L 1104.848843 46.12203 
L 1105.667322 51.896834 
L 1106.281182 58.408093 
L 1106.690421 63.037473 
L 1107.09966 65.286578 
L 1107.5089 65.771869 
L 1108.122759 65.918717 
L 1108.327379 66.899465 
L 1108.736618 71.997525 
L 1109.350477 80.876958 
L 1109.759717 84.782911 
L 1110.578196 89.951853 
L 1111.805914 100.317014 
L 1113.442872 122.897643 
L 1113.852111 128.712183 
L 1114.261351 138.797182 
L 1114.87521 159.931175 
L 1115.898309 199.889983 
L 1116.307548 208.582044 
L 1116.921407 219.140162 
L 1118.32795 253 
M 1125.015167 253 
L 1125.310816 210.857212 
L 1125.720056 171.55868 
L 1126.129295 147.242445 
L 1127.561633 86.490594 
L 1128.175492 70.884177 
L 1128.789351 57.80531 
L 1129.81245 30.870524 
L 1130.22169 28.029375 
L 1130.630929 27.176429 
L 1130.835549 27.413561 
L 1131.244788 29.286563 
L 1131.858647 32.359905 
L 1132.063267 32.515988 
L 1132.267887 32.168738 
L 1133.290985 29.178952 
L 1133.495605 28.919194 
L 1133.700225 29.39797 
L 1134.723324 35.166759 
L 1135.541802 36.911099 
L 1135.951042 39.585855 
L 1136.360281 42.600486 
L 1136.564901 43.255965 
L 1136.974141 43.329854 
L 1137.17876 43.774549 
L 1138.201859 48.168729 
L 1138.406479 48.844041 
L 1138.815718 51.517436 
L 1139.224958 56.273615 
L 1139.838817 64.085881 
L 1140.248056 66.450976 
L 1140.657296 69.015542 
L 1141.271155 75.588734 
L 1141.475775 76.239344 
L 1141.680394 75.503604 
L 1142.089634 72.958011 
L 1142.294253 72.735986 
L 1142.498873 73.422682 
L 1142.908113 76.543421 
L 1143.521972 81.414944 
L 1144.54507 87.657855 
L 1144.95431 88.476434 
L 1145.15893 88.497198 
L 1145.363549 88.255626 
L 1145.772789 87.43003 
L 1145.977409 87.350127 
L 1146.182028 87.709907 
L 1146.591268 89.702119 
L 1147.409747 95.871212 
L 1148.432845 106.706486 
L 1148.637465 107.504302 
L 1148.842085 107.606042 
L 1149.865183 106.753526 
L 1150.069803 106.72682 
L 1150.274423 106.902951 
L 1150.479043 107.278267 
L 1150.888282 108.72791 
L 1151.706761 112.111056 
L 1152.52524 114.912039 
L 1153.343719 119.534259 
L 1153.548338 119.34703 
L 1153.957578 118.165449 
L 1154.162198 118.374945 
L 1154.366817 119.587814 
L 1154.776057 125.039066 
L 1155.389916 134.827578 
L 1156.003775 140.748369 
L 1156.822254 147.996586 
L 1157.026874 148.702972 
L 1157.231494 148.681349 
L 1157.640733 147.002879 
L 1158.254592 144.294257 
L 1158.459212 144.355044 
L 1159.277691 146.663719 
L 1159.68693 146.394368 
L 1159.89155 146.892976 
L 1160.300789 149.932666 
L 1160.914649 155.153015 
L 1161.119268 156.019422 
L 1161.733127 156.920124 
L 1162.142367 158.962884 
L 1162.551606 161.824367 
L 1163.370085 169.830377 
L 1163.574705 170.470534 
L 1163.779325 170.104096 
L 1164.188564 167.152399 
L 1164.802423 161.617736 
L 1165.007043 161.062852 
L 1165.211663 161.547427 
L 1165.620902 164.840073 
L 1166.030142 168.512402 
L 1166.439381 170.153642 
L 1167.25786 172.22676 
L 1167.46248 172.216235 
L 1167.871719 171.381976 
L 1168.076339 171.335366 
L 1168.690198 172.522961 
L 1169.099438 172.045188 
L 1169.713297 171.083055 
L 1170.327156 169.188931 
L 1170.531776 169.476325 
L 1170.736395 170.575926 
L 1171.145635 175.252346 
L 1171.759494 183.379714 
L 1172.168734 186.117189 
L 1172.373353 186.614294 
L 1172.577973 186.487064 
L 1173.191832 184.869953 
L 1173.601072 184.629671 
L 1173.805691 184.751888 
L 1174.010311 185.236105 
L 1174.419551 187.96191 
L 1175.03341 193.332686 
L 1175.238029 193.913131 
L 1175.442649 193.659602 
L 1176.056508 191.942469 
L 1176.261128 191.744143 
L 1176.465748 191.803497 
L 1176.874987 192.387164 
L 1177.079607 192.938182 
L 1177.284227 194.065061 
L 1178.511945 204.722772 
L 1178.716565 205.255175 
L 1179.125804 205.327417 
L 1179.330424 205.677746 
L 1179.739663 206.721643 
L 1179.944283 206.637802 
L 1180.558142 204.486213 
L 1180.762762 204.902769 
L 1181.785861 210.815399 
L 1182.1951 212.307142 
L 1182.60434 214.793165 
L 1183.422819 220.98338 
L 1183.627438 221.716041 
L 1183.832058 221.776112 
L 1184.445917 219.839961 
L 1184.650537 220.096353 
L 1184.855157 221.135024 
L 1184.855157 221.135024 
" clip-path="url(#pd438dab60e)" style="fill: none; stroke: #000000; stroke-width: 2; stroke-linecap: square"/>
   </g>
   <g id="patch_3">
    <path d="M 3.00024 198.907885 
L 1184.99976 198.907885 
" style="fill: none; stroke: #000000; stroke-width: 2; stroke-linejoin: miter; stroke-linecap: square"/>
   </g>
  </g>
 </g>
 <defs>
  <clipPath id="pd438dab60e">
   <rect x="3.00024" y="3.00024" width="1181.99952" height="195.907645"/>
  </clipPath>
 </defs>
</svg>
