<?xml version="1.0" encoding="utf-8" standalone="no"?>
<!DOCTYPE svg PUBLIC "-//W3C//DTD SVG 1.1//EN"
  "http://www.w3.org/Graphics/SVG/1.1/DTD/svg11.dtd">
<svg xmlns:xlink="http://www.w3.org/1999/xlink" width="1188pt" height="252pt" viewBox="0 0 1188 252" xmlns="http://www.w3.org/2000/svg" version="1.1">
 <metadata>
  <rdf:RDF xmlns:dc="http://purl.org/dc/elements/1.1/" xmlns:cc="http://creativecommons.org/ns#" xmlns:rdf="http://www.w3.org/1999/02/22-rdf-syntax-ns#">
   <cc:Work>
    <dc:type rdf:resource="http://purl.org/dc/dcmitype/StillImage"/>
    <dc:date>2024-07-23T21:46:26.529331</dc:date>
    <dc:format>image/svg+xml</dc:format>
    <dc:creator>
     <cc:Agent>
      <dc:title>Matplotlib v3.8.4, https://matplotlib.org/</dc:title>
     </cc:Agent>
    </dc:creator>
   </cc:Work>
  </rdf:RDF>
 </metadata>
 <defs>
  <style type="text/css">*{stroke-linejoin: round; stroke-linecap: butt}</style>
 </defs>
 <g id="figure_1">
  <g id="patch_1">
   <path d="M 0 252 
L 1188 252 
L 1188 0 
L 0 0 
z
" style="fill: #ffffff"/>
  </g>
  <g id="axes_1">
   <g id="patch_2">
    <path d="M 3.00024 198.907885 
L 1184.99976 198.907885 
L 1184.99976 3.00024 
L 3.00024 3.00024 
z
" style="fill: #ffffff"/>
   </g>
   <g id="matplotlib.axis_1">
    <g id="xtick_1">
     <g id="line2d_1">
      <defs>
       <path id="med8797a80b" d="M 0 0 
L 0 8 
" style="stroke: #000000; stroke-width: 2"/>
      </defs>
      <g>
       <use xlink:href="#med8797a80b" x="1131.272509" y="198.907885" style="stroke: #000000; stroke-width: 2"/>
      </g>
     </g>
     <g id="text_1">
      <!-- 0 -->
      <g transform="translate(1126.267665 224.791947) scale(0.18 -0.18)">
       <defs>
        <path id="Arial-BoldMT-30" d="M 1756 4600 
Q 2422 4600 2797 4125 
Q 3244 3563 3244 2259 
Q 3244 959 2794 391 
Q 2422 -78 1756 -78 
Q 1088 -78 678 436 
Q 269 950 269 2269 
Q 269 3563 719 4131 
Q 1091 4600 1756 4600 
z
M 1756 3872 
Q 1597 3872 1472 3770 
Q 1347 3669 1278 3406 
Q 1188 3066 1188 2259 
Q 1188 1453 1269 1151 
Q 1350 850 1473 750 
Q 1597 650 1756 650 
Q 1916 650 2041 751 
Q 2166 853 2234 1116 
Q 2325 1453 2325 2259 
Q 2325 3066 2244 3367 
Q 2163 3669 2039 3770 
Q 1916 3872 1756 3872 
z
" transform="scale(0.015625)"/>
       </defs>
       <use xlink:href="#Arial-BoldMT-30"/>
      </g>
     </g>
    </g>
    <g id="xtick_2">
     <g id="line2d_2">
      <g>
       <use xlink:href="#med8797a80b" x="1023.818007" y="198.907885" style="stroke: #000000; stroke-width: 2"/>
      </g>
     </g>
     <g id="text_2">
      <!-- 1 -->
      <g transform="translate(1018.813164 224.791947) scale(0.18 -0.18)">
       <defs>
        <path id="Arial-BoldMT-31" d="M 2519 0 
L 1641 0 
L 1641 3309 
Q 1159 2859 506 2644 
L 506 3441 
Q 850 3553 1253 3867 
Q 1656 4181 1806 4600 
L 2519 4600 
L 2519 0 
z
" transform="scale(0.015625)"/>
       </defs>
       <use xlink:href="#Arial-BoldMT-31"/>
      </g>
     </g>
    </g>
    <g id="xtick_3">
     <g id="line2d_3">
      <g>
       <use xlink:href="#med8797a80b" x="916.363505" y="198.907885" style="stroke: #000000; stroke-width: 2"/>
      </g>
     </g>
     <g id="text_3">
      <!-- 2 -->
      <g transform="translate(911.358662 224.791947) scale(0.18 -0.18)">
       <defs>
        <path id="Arial-BoldMT-32" d="M 3238 816 
L 3238 0 
L 159 0 
Q 209 463 459 877 
Q 709 1291 1447 1975 
Q 2041 2528 2175 2725 
Q 2356 2997 2356 3263 
Q 2356 3556 2198 3714 
Q 2041 3872 1763 3872 
Q 1488 3872 1325 3706 
Q 1163 3541 1138 3156 
L 263 3244 
Q 341 3969 753 4284 
Q 1166 4600 1784 4600 
Q 2463 4600 2850 4234 
Q 3238 3869 3238 3325 
Q 3238 3016 3127 2736 
Q 3016 2456 2775 2150 
Q 2616 1947 2200 1565 
Q 1784 1184 1673 1059 
Q 1563 934 1494 816 
L 3238 816 
z
" transform="scale(0.015625)"/>
       </defs>
       <use xlink:href="#Arial-BoldMT-32"/>
      </g>
     </g>
    </g>
    <g id="xtick_4">
     <g id="line2d_4">
      <g>
       <use xlink:href="#med8797a80b" x="808.909004" y="198.907885" style="stroke: #000000; stroke-width: 2"/>
      </g>
     </g>
     <g id="text_4">
      <!-- 3 -->
      <g transform="translate(803.90416 224.791947) scale(0.18 -0.18)">
       <defs>
        <path id="Arial-BoldMT-33" d="M 241 1216 
L 1091 1319 
Q 1131 994 1309 822 
Q 1488 650 1741 650 
Q 2013 650 2198 856 
Q 2384 1063 2384 1413 
Q 2384 1744 2206 1937 
Q 2028 2131 1772 2131 
Q 1603 2131 1369 2066 
L 1466 2781 
Q 1822 2772 2009 2936 
Q 2197 3100 2197 3372 
Q 2197 3603 2059 3740 
Q 1922 3878 1694 3878 
Q 1469 3878 1309 3722 
Q 1150 3566 1116 3266 
L 306 3403 
Q 391 3819 561 4067 
Q 731 4316 1036 4458 
Q 1341 4600 1719 4600 
Q 2366 4600 2756 4188 
Q 3078 3850 3078 3425 
Q 3078 2822 2419 2463 
Q 2813 2378 3048 2084 
Q 3284 1791 3284 1375 
Q 3284 772 2843 347 
Q 2403 -78 1747 -78 
Q 1125 -78 715 280 
Q 306 638 241 1216 
z
" transform="scale(0.015625)"/>
       </defs>
       <use xlink:href="#Arial-BoldMT-33"/>
      </g>
     </g>
    </g>
    <g id="xtick_5">
     <g id="line2d_5">
      <g>
       <use xlink:href="#med8797a80b" x="701.454502" y="198.907885" style="stroke: #000000; stroke-width: 2"/>
      </g>
     </g>
     <g id="text_5">
      <!-- 4 -->
      <g transform="translate(696.449658 224.791947) scale(0.18 -0.18)">
       <defs>
        <path id="Arial-BoldMT-34" d="M 1994 0 
L 1994 922 
L 119 922 
L 119 1691 
L 2106 4600 
L 2844 4600 
L 2844 1694 
L 3413 1694 
L 3413 922 
L 2844 922 
L 2844 0 
L 1994 0 
z
M 1994 1694 
L 1994 3259 
L 941 1694 
L 1994 1694 
z
" transform="scale(0.015625)"/>
       </defs>
       <use xlink:href="#Arial-BoldMT-34"/>
      </g>
     </g>
    </g>
    <g id="xtick_6">
     <g id="line2d_6">
      <g>
       <use xlink:href="#med8797a80b" x="594" y="198.907885" style="stroke: #000000; stroke-width: 2"/>
      </g>
     </g>
     <g id="text_6">
      <!-- 5 -->
      <g transform="translate(588.995156 224.791947) scale(0.18 -0.18)">
       <defs>
        <path id="Arial-BoldMT-35" d="M 284 1178 
L 1159 1269 
Q 1197 972 1381 798 
Q 1566 625 1806 625 
Q 2081 625 2272 848 
Q 2463 1072 2463 1522 
Q 2463 1944 2273 2155 
Q 2084 2366 1781 2366 
Q 1403 2366 1103 2031 
L 391 2134 
L 841 4519 
L 3163 4519 
L 3163 3697 
L 1506 3697 
L 1369 2919 
Q 1663 3066 1969 3066 
Q 2553 3066 2959 2641 
Q 3366 2216 3366 1538 
Q 3366 972 3038 528 
Q 2591 -78 1797 -78 
Q 1163 -78 763 262 
Q 363 603 284 1178 
z
" transform="scale(0.015625)"/>
       </defs>
       <use xlink:href="#Arial-BoldMT-35"/>
      </g>
     </g>
    </g>
    <g id="xtick_7">
     <g id="line2d_7">
      <g>
       <use xlink:href="#med8797a80b" x="486.545498" y="198.907885" style="stroke: #000000; stroke-width: 2"/>
      </g>
     </g>
     <g id="text_7">
      <!-- 6 -->
      <g transform="translate(481.540654 224.791947) scale(0.18 -0.18)">
       <defs>
        <path id="Arial-BoldMT-36" d="M 3247 3459 
L 2397 3366 
Q 2366 3628 2234 3753 
Q 2103 3878 1894 3878 
Q 1616 3878 1423 3628 
Q 1231 3378 1181 2588 
Q 1509 2975 1997 2975 
Q 2547 2975 2939 2556 
Q 3331 2138 3331 1475 
Q 3331 772 2918 347 
Q 2506 -78 1859 -78 
Q 1166 -78 719 461 
Q 272 1000 272 2228 
Q 272 3488 737 4044 
Q 1203 4600 1947 4600 
Q 2469 4600 2811 4308 
Q 3153 4016 3247 3459 
z
M 1256 1544 
Q 1256 1116 1453 883 
Q 1650 650 1903 650 
Q 2147 650 2309 840 
Q 2472 1031 2472 1466 
Q 2472 1913 2297 2120 
Q 2122 2328 1859 2328 
Q 1606 2328 1431 2129 
Q 1256 1931 1256 1544 
z
" transform="scale(0.015625)"/>
       </defs>
       <use xlink:href="#Arial-BoldMT-36"/>
      </g>
     </g>
    </g>
    <g id="xtick_8">
     <g id="line2d_8">
      <g>
       <use xlink:href="#med8797a80b" x="379.090996" y="198.907885" style="stroke: #000000; stroke-width: 2"/>
      </g>
     </g>
     <g id="text_8">
      <!-- 7 -->
      <g transform="translate(374.086153 224.791947) scale(0.18 -0.18)">
       <defs>
        <path id="Arial-BoldMT-37" d="M 272 3703 
L 272 4519 
L 3275 4519 
L 3275 3881 
Q 2903 3516 2518 2831 
Q 2134 2147 1932 1376 
Q 1731 606 1734 0 
L 888 0 
Q 909 950 1279 1937 
Q 1650 2925 2269 3703 
L 272 3703 
z
" transform="scale(0.015625)"/>
       </defs>
       <use xlink:href="#Arial-BoldMT-37"/>
      </g>
     </g>
    </g>
    <g id="xtick_9">
     <g id="line2d_9">
      <g>
       <use xlink:href="#med8797a80b" x="271.636495" y="198.907885" style="stroke: #000000; stroke-width: 2"/>
      </g>
     </g>
     <g id="text_9">
      <!-- 8 -->
      <g transform="translate(266.631651 224.791947) scale(0.18 -0.18)">
       <defs>
        <path id="Arial-BoldMT-38" d="M 1025 2472 
Q 684 2616 529 2867 
Q 375 3119 375 3419 
Q 375 3931 733 4265 
Q 1091 4600 1750 4600 
Q 2403 4600 2764 4265 
Q 3125 3931 3125 3419 
Q 3125 3100 2959 2851 
Q 2794 2603 2494 2472 
Q 2875 2319 3073 2025 
Q 3272 1731 3272 1347 
Q 3272 713 2867 316 
Q 2463 -81 1791 -81 
Q 1166 -81 750 247 
Q 259 634 259 1309 
Q 259 1681 443 1992 
Q 628 2303 1025 2472 
z
M 1206 3356 
Q 1206 3094 1354 2947 
Q 1503 2800 1750 2800 
Q 2000 2800 2150 2948 
Q 2300 3097 2300 3359 
Q 2300 3606 2151 3754 
Q 2003 3903 1759 3903 
Q 1506 3903 1356 3753 
Q 1206 3603 1206 3356 
z
M 1125 1394 
Q 1125 1031 1311 828 
Q 1497 625 1775 625 
Q 2047 625 2225 820 
Q 2403 1016 2403 1384 
Q 2403 1706 2222 1901 
Q 2041 2097 1763 2097 
Q 1441 2097 1283 1875 
Q 1125 1653 1125 1394 
z
" transform="scale(0.015625)"/>
       </defs>
       <use xlink:href="#Arial-BoldMT-38"/>
      </g>
     </g>
    </g>
    <g id="xtick_10">
     <g id="line2d_10">
      <g>
       <use xlink:href="#med8797a80b" x="164.181993" y="198.907885" style="stroke: #000000; stroke-width: 2"/>
      </g>
     </g>
     <g id="text_10">
      <!-- 9 -->
      <g transform="translate(159.177149 224.791947) scale(0.18 -0.18)">
       <defs>
        <path id="Arial-BoldMT-39" d="M 291 1059 
L 1141 1153 
Q 1172 894 1303 769 
Q 1434 644 1650 644 
Q 1922 644 2112 894 
Q 2303 1144 2356 1931 
Q 2025 1547 1528 1547 
Q 988 1547 595 1964 
Q 203 2381 203 3050 
Q 203 3747 617 4173 
Q 1031 4600 1672 4600 
Q 2369 4600 2816 4061 
Q 3263 3522 3263 2288 
Q 3263 1031 2797 475 
Q 2331 -81 1584 -81 
Q 1047 -81 715 205 
Q 384 491 291 1059 
z
M 2278 2978 
Q 2278 3403 2083 3637 
Q 1888 3872 1631 3872 
Q 1388 3872 1227 3680 
Q 1066 3488 1066 3050 
Q 1066 2606 1241 2398 
Q 1416 2191 1678 2191 
Q 1931 2191 2104 2391 
Q 2278 2591 2278 2978 
z
" transform="scale(0.015625)"/>
       </defs>
       <use xlink:href="#Arial-BoldMT-39"/>
      </g>
     </g>
    </g>
    <g id="xtick_11">
     <g id="line2d_11">
      <g>
       <use xlink:href="#med8797a80b" x="56.727491" y="198.907885" style="stroke: #000000; stroke-width: 2"/>
      </g>
     </g>
     <g id="text_11">
      <!-- 10 -->
      <g transform="translate(46.717803 224.791947) scale(0.18 -0.18)">
       <use xlink:href="#Arial-BoldMT-31"/>
       <use xlink:href="#Arial-BoldMT-30" x="55.615234"/>
      </g>
     </g>
    </g>
    <g id="text_12">
     <!-- Chemical Shift / ppm -->
     <g transform="translate(504.992813 245.447573) scale(0.18 -0.18)">
      <defs>
       <path id="Arial-BoldMT-43" d="M 3397 1684 
L 4294 1400 
Q 4088 650 3608 286 
Q 3128 -78 2391 -78 
Q 1478 -78 890 545 
Q 303 1169 303 2250 
Q 303 3394 893 4026 
Q 1484 4659 2447 4659 
Q 3288 4659 3813 4163 
Q 4125 3869 4281 3319 
L 3366 3100 
Q 3284 3456 3026 3662 
Q 2769 3869 2400 3869 
Q 1891 3869 1573 3503 
Q 1256 3138 1256 2319 
Q 1256 1450 1568 1081 
Q 1881 713 2381 713 
Q 2750 713 3015 947 
Q 3281 1181 3397 1684 
z
" transform="scale(0.015625)"/>
       <path id="Arial-BoldMT-68" d="M 1334 4581 
L 1334 2897 
Q 1759 3394 2350 3394 
Q 2653 3394 2897 3281 
Q 3141 3169 3264 2994 
Q 3388 2819 3433 2606 
Q 3478 2394 3478 1947 
L 3478 0 
L 2600 0 
L 2600 1753 
Q 2600 2275 2550 2415 
Q 2500 2556 2373 2639 
Q 2247 2722 2056 2722 
Q 1838 2722 1666 2615 
Q 1494 2509 1414 2295 
Q 1334 2081 1334 1663 
L 1334 0 
L 456 0 
L 456 4581 
L 1334 4581 
z
" transform="scale(0.015625)"/>
       <path id="Arial-BoldMT-65" d="M 2381 1056 
L 3256 909 
Q 3088 428 2723 176 
Q 2359 -75 1813 -75 
Q 947 -75 531 491 
Q 203 944 203 1634 
Q 203 2459 634 2926 
Q 1066 3394 1725 3394 
Q 2466 3394 2894 2905 
Q 3322 2416 3303 1406 
L 1103 1406 
Q 1113 1016 1316 798 
Q 1519 581 1822 581 
Q 2028 581 2168 693 
Q 2309 806 2381 1056 
z
M 2431 1944 
Q 2422 2325 2234 2523 
Q 2047 2722 1778 2722 
Q 1491 2722 1303 2513 
Q 1116 2303 1119 1944 
L 2431 1944 
z
" transform="scale(0.015625)"/>
       <path id="Arial-BoldMT-6d" d="M 394 3319 
L 1203 3319 
L 1203 2866 
Q 1638 3394 2238 3394 
Q 2556 3394 2790 3262 
Q 3025 3131 3175 2866 
Q 3394 3131 3647 3262 
Q 3900 3394 4188 3394 
Q 4553 3394 4806 3245 
Q 5059 3097 5184 2809 
Q 5275 2597 5275 2122 
L 5275 0 
L 4397 0 
L 4397 1897 
Q 4397 2391 4306 2534 
Q 4184 2722 3931 2722 
Q 3747 2722 3584 2609 
Q 3422 2497 3350 2280 
Q 3278 2063 3278 1594 
L 3278 0 
L 2400 0 
L 2400 1819 
Q 2400 2303 2353 2443 
Q 2306 2584 2207 2653 
Q 2109 2722 1941 2722 
Q 1738 2722 1575 2612 
Q 1413 2503 1342 2297 
Q 1272 2091 1272 1613 
L 1272 0 
L 394 0 
L 394 3319 
z
" transform="scale(0.015625)"/>
       <path id="Arial-BoldMT-69" d="M 459 3769 
L 459 4581 
L 1338 4581 
L 1338 3769 
L 459 3769 
z
M 459 0 
L 459 3319 
L 1338 3319 
L 1338 0 
L 459 0 
z
" transform="scale(0.015625)"/>
       <path id="Arial-BoldMT-63" d="M 3353 2338 
L 2488 2181 
Q 2444 2441 2289 2572 
Q 2134 2703 1888 2703 
Q 1559 2703 1364 2476 
Q 1169 2250 1169 1719 
Q 1169 1128 1367 884 
Q 1566 641 1900 641 
Q 2150 641 2309 783 
Q 2469 925 2534 1272 
L 3397 1125 
Q 3263 531 2881 228 
Q 2500 -75 1859 -75 
Q 1131 -75 698 384 
Q 266 844 266 1656 
Q 266 2478 700 2936 
Q 1134 3394 1875 3394 
Q 2481 3394 2839 3133 
Q 3197 2872 3353 2338 
z
" transform="scale(0.015625)"/>
       <path id="Arial-BoldMT-61" d="M 1116 2306 
L 319 2450 
Q 453 2931 781 3162 
Q 1109 3394 1756 3394 
Q 2344 3394 2631 3255 
Q 2919 3116 3036 2902 
Q 3153 2688 3153 2116 
L 3144 1091 
Q 3144 653 3186 445 
Q 3228 238 3344 0 
L 2475 0 
Q 2441 88 2391 259 
Q 2369 338 2359 363 
Q 2134 144 1878 34 
Q 1622 -75 1331 -75 
Q 819 -75 523 203 
Q 228 481 228 906 
Q 228 1188 362 1408 
Q 497 1628 739 1745 
Q 981 1863 1438 1950 
Q 2053 2066 2291 2166 
L 2291 2253 
Q 2291 2506 2166 2614 
Q 2041 2722 1694 2722 
Q 1459 2722 1328 2630 
Q 1197 2538 1116 2306 
z
M 2291 1594 
Q 2122 1538 1756 1459 
Q 1391 1381 1278 1306 
Q 1106 1184 1106 997 
Q 1106 813 1243 678 
Q 1381 544 1594 544 
Q 1831 544 2047 700 
Q 2206 819 2256 991 
Q 2291 1103 2291 1419 
L 2291 1594 
z
" transform="scale(0.015625)"/>
       <path id="Arial-BoldMT-6c" d="M 459 0 
L 459 4581 
L 1338 4581 
L 1338 0 
L 459 0 
z
" transform="scale(0.015625)"/>
       <path id="Arial-BoldMT-20" transform="scale(0.015625)"/>
       <path id="Arial-BoldMT-53" d="M 231 1491 
L 1131 1578 
Q 1213 1125 1461 912 
Q 1709 700 2131 700 
Q 2578 700 2804 889 
Q 3031 1078 3031 1331 
Q 3031 1494 2936 1608 
Q 2841 1722 2603 1806 
Q 2441 1863 1863 2006 
Q 1119 2191 819 2459 
Q 397 2838 397 3381 
Q 397 3731 595 4036 
Q 794 4341 1167 4500 
Q 1541 4659 2069 4659 
Q 2931 4659 3367 4281 
Q 3803 3903 3825 3272 
L 2900 3231 
Q 2841 3584 2645 3739 
Q 2450 3894 2059 3894 
Q 1656 3894 1428 3728 
Q 1281 3622 1281 3444 
Q 1281 3281 1419 3166 
Q 1594 3019 2269 2859 
Q 2944 2700 3267 2529 
Q 3591 2359 3773 2064 
Q 3956 1769 3956 1334 
Q 3956 941 3737 597 
Q 3519 253 3119 86 
Q 2719 -81 2122 -81 
Q 1253 -81 787 320 
Q 322 722 231 1491 
z
" transform="scale(0.015625)"/>
       <path id="Arial-BoldMT-66" d="M 75 3319 
L 563 3319 
L 563 3569 
Q 563 3988 652 4194 
Q 741 4400 980 4529 
Q 1219 4659 1584 4659 
Q 1959 4659 2319 4547 
L 2200 3934 
Q 1991 3984 1797 3984 
Q 1606 3984 1523 3895 
Q 1441 3806 1441 3553 
L 1441 3319 
L 2097 3319 
L 2097 2628 
L 1441 2628 
L 1441 0 
L 563 0 
L 563 2628 
L 75 2628 
L 75 3319 
z
" transform="scale(0.015625)"/>
       <path id="Arial-BoldMT-74" d="M 1981 3319 
L 1981 2619 
L 1381 2619 
L 1381 1281 
Q 1381 875 1398 808 
Q 1416 741 1477 697 
Q 1538 653 1625 653 
Q 1747 653 1978 738 
L 2053 56 
Q 1747 -75 1359 -75 
Q 1122 -75 931 4 
Q 741 84 652 211 
Q 563 338 528 553 
Q 500 706 500 1172 
L 500 2619 
L 97 2619 
L 97 3319 
L 500 3319 
L 500 3978 
L 1381 4491 
L 1381 3319 
L 1981 3319 
z
" transform="scale(0.015625)"/>
       <path id="Arial-BoldMT-2f" d="M -9 -78 
L 1125 4659 
L 1784 4659 
L 638 -78 
L -9 -78 
z
" transform="scale(0.015625)"/>
       <path id="Arial-BoldMT-70" d="M 434 3319 
L 1253 3319 
L 1253 2831 
Q 1413 3081 1684 3237 
Q 1956 3394 2288 3394 
Q 2866 3394 3269 2941 
Q 3672 2488 3672 1678 
Q 3672 847 3265 386 
Q 2859 -75 2281 -75 
Q 2006 -75 1782 34 
Q 1559 144 1313 409 
L 1313 -1263 
L 434 -1263 
L 434 3319 
z
M 1303 1716 
Q 1303 1156 1525 889 
Q 1747 622 2066 622 
Q 2372 622 2575 867 
Q 2778 1113 2778 1672 
Q 2778 2194 2568 2447 
Q 2359 2700 2050 2700 
Q 1728 2700 1515 2451 
Q 1303 2203 1303 1716 
z
" transform="scale(0.015625)"/>
      </defs>
      <use xlink:href="#Arial-BoldMT-43"/>
      <use xlink:href="#Arial-BoldMT-68" x="72.216797"/>
      <use xlink:href="#Arial-BoldMT-65" x="133.300781"/>
      <use xlink:href="#Arial-BoldMT-6d" x="188.916016"/>
      <use xlink:href="#Arial-BoldMT-69" x="277.832031"/>
      <use xlink:href="#Arial-BoldMT-63" x="305.615234"/>
      <use xlink:href="#Arial-BoldMT-61" x="361.230469"/>
      <use xlink:href="#Arial-BoldMT-6c" x="416.845703"/>
      <use xlink:href="#Arial-BoldMT-20" x="444.628906"/>
      <use xlink:href="#Arial-BoldMT-53" x="472.412109"/>
      <use xlink:href="#Arial-BoldMT-68" x="539.111328"/>
      <use xlink:href="#Arial-BoldMT-69" x="600.195312"/>
      <use xlink:href="#Arial-BoldMT-66" x="627.978516"/>
      <use xlink:href="#Arial-BoldMT-74" x="661.279297"/>
      <use xlink:href="#Arial-BoldMT-20" x="694.580078"/>
      <use xlink:href="#Arial-BoldMT-2f" x="722.363281"/>
      <use xlink:href="#Arial-BoldMT-20" x="750.146484"/>
      <use xlink:href="#Arial-BoldMT-70" x="777.929688"/>
      <use xlink:href="#Arial-BoldMT-70" x="839.013672"/>
      <use xlink:href="#Arial-BoldMT-6d" x="900.097656"/>
     </g>
    </g>
   </g>
   <g id="matplotlib.axis_2"/>
   <g id="line2d_12">
    <path d="M 3.091505 190.494006 
L 3.705364 190.666673 
L 4.114604 190.595447 
L 4.523843 190.236074 
L 5.546942 188.985557 
L 5.956181 189.433821 
L 6.57004 190.19969 
L 7.388519 190.691803 
L 8.206998 191.660394 
L 8.411618 191.728562 
L 8.616238 191.652035 
L 9.025477 191.120076 
L 9.843956 190.008466 
L 10.253195 189.805556 
L 10.457815 189.904428 
L 11.071674 190.505557 
L 11.276294 190.465819 
L 12.094773 189.795115 
L 13.117872 189.945275 
L 13.527111 189.780182 
L 14.14097 189.404741 
L 14.55021 189.429357 
L 15.368689 190.152703 
L 15.982548 190.806662 
L 17.824125 193.103108 
L 18.028745 193.156182 
L 18.233365 192.976455 
L 18.642604 191.763972 
L 19.051844 190.298373 
L 19.461083 189.706279 
L 19.870323 189.777667 
L 21.098041 190.248355 
L 21.302661 190.24657 
L 21.7119 189.908918 
L 22.12114 189.574405 
L 22.734999 189.275599 
L 23.348858 188.797255 
L 24.167337 188.762981 
L 25.599675 189.164311 
L 26.622774 190.26418 
L 27.645872 189.889333 
L 28.055112 189.822626 
L 29.07821 189.422838 
L 30.101309 189.910758 
L 30.715168 189.298673 
L 30.919788 189.27871 
L 31.329027 189.58014 
L 32.352126 190.610163 
L 32.556746 190.554005 
L 33.579844 189.557714 
L 33.784464 189.580762 
L 33.989084 189.821381 
L 34.807563 191.433706 
L 35.012182 191.499278 
L 35.421422 191.163168 
L 36.44452 189.768442 
L 37.262999 189.383614 
L 38.081478 189.546028 
L 38.695337 189.398762 
L 39.104577 189.629075 
L 39.718436 190.232584 
L 40.127675 190.117185 
L 40.946154 189.670923 
L 41.150774 189.691671 
L 41.764633 190.065003 
L 41.969253 190.005166 
L 42.378492 189.57289 
L 42.787732 189.089785 
L 43.196971 189.018181 
L 43.810831 189.044691 
L 44.22007 189.76103 
L 44.833929 190.998643 
L 45.652408 192.222677 
L 45.857028 192.124536 
L 46.266267 191.101329 
L 46.880126 189.543269 
L 47.289366 189.049614 
L 47.903225 188.498097 
L 48.517084 187.672688 
L 48.721704 187.658135 
L 49.130943 188.171131 
L 49.540183 188.511677 
L 50.154042 188.444049 
L 50.767901 188.848841 
L 51.99562 189.917602 
L 52.609479 190.332295 
L 53.427958 190.638188 
L 54.655676 191.827515 
L 54.860296 191.823052 
L 55.269535 191.523028 
L 56.088014 190.776933 
L 56.497254 190.888924 
L 56.906493 191.011168 
L 57.111113 190.891143 
L 57.520352 190.22831 
L 58.134211 188.51119 
L 58.95269 185.893594 
L 59.771169 184.545288 
L 60.385028 183.770951 
L 60.998888 183.222166 
L 61.817367 182.307488 
L 62.021986 182.30105 
L 62.226606 182.443961 
L 62.635845 183.250921 
L 63.863564 186.543496 
L 64.272803 187.212522 
L 64.682043 187.404585 
L 65.295902 187.04532 
L 65.705141 186.940605 
L 66.114381 186.989811 
L 66.52362 187.298004 
L 67.137479 187.871865 
L 67.546719 188.256152 
L 68.160578 189.148242 
L 68.365198 189.191984 
L 69.388296 188.816867 
L 70.206775 189.062328 
L 70.820635 189.206646 
L 71.229874 189.586199 
L 71.639113 190.115264 
L 71.843733 190.23015 
L 72.048353 190.142017 
L 73.071452 189.033438 
L 73.480691 188.861609 
L 73.88993 188.988425 
L 74.50379 189.708795 
L 75.526888 191.010302 
L 75.731508 190.975325 
L 76.140747 190.448993 
L 76.754607 189.679769 
L 77.163846 189.509888 
L 77.573085 189.692077 
L 77.982325 189.923905 
L 78.391564 189.881678 
L 79.005424 189.742987 
L 81.256241 190.20134 
L 81.46086 190.106364 
L 82.074719 189.508373 
L 82.483959 189.688344 
L 82.893198 189.814754 
L 83.302438 189.537588 
L 83.916297 188.988262 
L 84.120917 188.93673 
L 84.530156 189.173481 
L 85.348635 189.917764 
L 85.962494 190.083722 
L 86.576353 190.006681 
L 86.985593 189.792518 
L 88.213311 188.823954 
L 88.622551 188.805857 
L 89.03179 188.98507 
L 89.850269 189.557958 
L 90.259509 189.61555 
L 90.668748 189.986582 
L 91.691847 191.152456 
L 92.101086 191.230282 
L 92.919565 191.075766 
L 93.124185 191.182753 
L 93.533424 191.825351 
L 94.147283 192.822129 
L 94.556523 192.972127 
L 94.761143 192.836736 
L 95.988861 191.29534 
L 97.216579 190.334432 
L 97.625819 190.390698 
L 99.058157 190.765139 
L 99.467396 190.712416 
L 100.081255 190.776284 
L 100.695115 190.296425 
L 101.513594 189.401657 
L 101.922833 189.417455 
L 103.355171 190.359427 
L 103.764411 190.226173 
L 104.17365 190.036654 
L 104.787509 190.13355 
L 105.401368 190.486675 
L 105.810608 190.312493 
L 106.424467 189.952768 
L 106.833706 189.603025 
L 107.447566 188.921879 
L 107.856805 189.052157 
L 108.470664 189.437229 
L 108.879904 189.374876 
L 109.289143 189.352478 
L 110.312242 189.800768 
L 110.721481 189.448428 
L 111.33534 188.713911 
L 111.74458 188.562398 
L 112.767679 188.747319 
L 113.176918 188.826091 
L 113.586157 188.466258 
L 114.200017 187.709505 
L 114.609256 187.594051 
L 115.632355 187.67726 
L 116.246214 187.922153 
L 116.655453 188.144188 
L 118.087791 190.076608 
L 118.701651 190.924361 
L 119.11089 191.136631 
L 119.724749 191.196468 
L 119.929369 191.129057 
L 120.133989 190.924497 
L 120.952468 189.629643 
L 121.361707 189.737902 
L 122.180186 190.23675 
L 122.589425 189.969864 
L 123.203285 189.402171 
L 123.817144 189.074988 
L 124.431003 188.968082 
L 125.044862 188.732062 
L 125.454102 188.896965 
L 126.68182 189.880271 
L 127.091059 190.216624 
L 127.704919 191.002106 
L 127.909538 191.135495 
L 128.114158 191.121915 
L 128.523397 190.661966 
L 129.137257 189.971298 
L 129.546496 189.511078 
L 130.569595 187.97006 
L 131.388074 187.213604 
L 131.797313 186.861346 
L 132.001933 186.923617 
L 132.615792 187.35803 
L 133.229651 187.363549 
L 133.434271 187.497668 
L 133.84351 188.189255 
L 134.661989 189.933508 
L 135.071229 190.259906 
L 137.322046 190.113776 
L 137.731285 190.208428 
L 138.140525 189.940244 
L 138.549764 189.648254 
L 139.572863 189.606082 
L 139.982102 189.218251 
L 140.595961 188.486979 
L 141.005201 188.36038 
L 142.028299 188.384483 
L 142.437539 188.638086 
L 143.460638 189.563612 
L 144.279116 189.60757 
L 144.892976 189.942462 
L 145.506835 189.997321 
L 145.916074 190.438254 
L 146.734553 191.542099 
L 147.348412 191.755613 
L 148.166891 192.061615 
L 148.576131 192.277834 
L 148.98537 192.147989 
L 149.39461 191.67611 
L 150.008469 190.755509 
L 150.826948 190.021045 
L 151.850046 188.899346 
L 152.054666 188.841348 
L 152.259286 188.984854 
L 153.077765 190.006654 
L 153.487004 190.225064 
L 153.896244 190.026969 
L 154.714722 189.33173 
L 154.919342 189.339142 
L 155.328582 189.67141 
L 156.147061 190.565367 
L 156.965539 191.708436 
L 157.170159 191.698779 
L 157.579399 191.159056 
L 157.988638 190.66175 
L 158.807117 189.870668 
L 159.420976 189.066197 
L 159.625596 189.008037 
L 160.034835 189.254688 
L 160.648695 189.783104 
L 161.057934 189.763979 
L 162.081033 189.204752 
L 162.490272 189.40209 
L 162.899512 189.681852 
L 163.104131 189.672546 
L 163.513371 189.304679 
L 164.12723 188.6264 
L 165.150329 188.197776 
L 165.354948 188.315584 
L 166.378047 189.693754 
L 166.787286 189.439447 
L 167.196526 189.2189 
L 167.605765 189.327077 
L 168.424244 190.159249 
L 168.628864 190.122595 
L 169.856582 189.120488 
L 170.470441 189.06928 
L 170.879681 189.227448 
L 171.49354 189.980441 
L 171.90278 190.345468 
L 172.107399 190.386721 
L 172.516639 190.141449 
L 173.744357 189.035791 
L 173.948977 189.046855 
L 174.153597 189.314742 
L 175.176695 191.746605 
L 175.381315 191.669645 
L 176.199794 190.805228 
L 176.813653 190.790296 
L 177.427512 190.92777 
L 177.836752 191.059508 
L 178.041371 190.975434 
L 178.85985 189.986095 
L 179.473709 189.078126 
L 180.496808 187.012453 
L 180.701428 186.989541 
L 181.110667 187.268058 
L 181.929146 187.946932 
L 182.543005 188.164936 
L 183.770724 188.946983 
L 184.179963 188.723324 
L 184.793822 188.208678 
L 184.998442 188.198209 
L 185.203062 188.415023 
L 185.816921 189.575812 
L 186.021541 189.742338 
L 186.22616 189.693132 
L 186.6354 189.075448 
L 187.044639 188.500613 
L 187.249259 188.454166 
L 187.658499 188.786813 
L 188.067738 189.151921 
L 188.476977 189.202561 
L 188.886217 189.00682 
L 189.500076 188.658997 
L 189.909316 188.58485 
L 190.318555 188.708446 
L 190.727794 188.863205 
L 190.932414 188.813864 
L 191.341654 188.3547 
L 192.160132 186.870732 
L 192.364752 186.749354 
L 192.569372 186.804619 
L 192.978611 187.137266 
L 193.183231 187.153551 
L 193.387851 186.981777 
L 193.79709 186.159181 
L 194.20633 184.622329 
L 194.820189 181.085402 
L 195.638668 174.951601 
L 196.252527 168.653896 
L 196.866386 159.744683 
L 197.684865 147.182114 
L 197.889485 145.376023 
L 198.094105 144.713624 
L 198.298724 145.275663 
L 198.707964 149.40187 
L 200.344922 172.689023 
L 200.754161 174.704408 
L 201.36802 176.566387 
L 203.209598 183.8504 
L 203.414217 184.058504 
L 203.618837 184.086447 
L 204.028077 183.739517 
L 204.437316 183.387529 
L 204.641936 183.451992 
L 205.869654 184.649299 
L 206.278894 184.969069 
L 206.892753 185.55064 
L 207.301992 185.874252 
L 208.529711 187.619235 
L 209.34819 188.871808 
L 209.552809 188.949065 
L 209.962049 188.717265 
L 210.371288 188.543895 
L 211.189767 188.665489 
L 211.803626 187.996435 
L 212.008246 187.992215 
L 212.417485 188.436475 
L 214.054443 190.60689 
L 214.463683 190.625799 
L 214.872922 190.672191 
L 215.282162 190.928446 
L 215.691401 190.852351 
L 216.30526 190.289906 
L 216.7145 189.733195 
L 217.737598 187.955236 
L 218.351458 187.421303 
L 218.760697 187.473592 
L 219.169936 187.591616 
L 219.783796 187.544385 
L 220.193035 187.621616 
L 222.034613 186.997358 
L 223.67157 187.157825 
L 224.28543 187.361871 
L 224.694669 188.050077 
L 225.103909 188.655778 
L 225.308528 188.660052 
L 226.945486 187.710884 
L 227.354726 187.789386 
L 227.763965 188.07675 
L 228.787064 189.205023 
L 229.196303 188.811917 
L 230.014782 187.511193 
L 230.833261 185.620405 
L 231.44712 184.591653 
L 232.879458 181.476236 
L 233.288698 181.352694 
L 233.493317 181.482891 
L 234.516416 182.722993 
L 234.925655 183.04674 
L 235.334895 183.77371 
L 235.948754 184.894841 
L 236.153374 184.967744 
L 236.562613 184.66277 
L 236.971853 184.297365 
L 237.585712 183.85838 
L 237.994951 183.569285 
L 238.81343 183.549673 
L 239.631909 182.790837 
L 240.041149 182.645599 
L 240.245768 182.370544 
L 240.655008 181.216384 
L 241.268867 178.490745 
L 243.110444 169.547204 
L 243.519684 168.663716 
L 243.724304 168.566738 
L 243.928923 168.762317 
L 244.338163 169.837326 
L 244.747402 171.588044 
L 246.58898 181.163255 
L 246.7936 181.645576 
L 246.998219 181.83304 
L 247.407459 181.64095 
L 247.816698 181.43639 
L 248.225938 181.685341 
L 248.635177 182.059187 
L 249.044417 182.167688 
L 249.658276 182.135606 
L 250.067515 181.761462 
L 250.476755 180.813756 
L 252.318332 174.569288 
L 253.546051 168.652382 
L 253.95529 168.017087 
L 254.15991 168.123912 
L 254.569149 169.10362 
L 256.206107 174.43268 
L 256.819966 174.973431 
L 257.433825 175.527301 
L 257.843065 175.827676 
L 258.047685 175.763132 
L 259.070783 174.545564 
L 259.480023 173.758622 
L 259.889262 172.312553 
L 262.140079 161.928921 
L 262.549319 161.074783 
L 262.753938 160.941557 
L 262.958558 161.028364 
L 263.163178 161.385952 
L 263.572417 162.937844 
L 264.595516 168.92998 
L 265.618614 175.38082 
L 266.437093 178.585532 
L 267.050953 180.121167 
L 267.460192 180.690863 
L 267.869431 180.899048 
L 268.483291 180.971247 
L 268.89253 180.713558 
L 269.301769 179.870485 
L 270.120248 177.865027 
L 270.938727 176.593762 
L 271.757206 175.712006 
L 272.371065 175.341136 
L 272.575685 175.314301 
L 272.780305 175.39962 
L 273.189544 175.888595 
L 274.008023 177.284728 
L 275.031122 179.341772 
L 275.644981 180.281607 
L 276.05422 180.502046 
L 276.46346 180.691187 
L 277.895798 182.249869 
L 278.918897 183.006839 
L 279.532756 183.405545 
L 280.351235 183.620899 
L 280.760474 183.798056 
L 281.374333 183.756019 
L 282.192812 183.3278 
L 282.602052 183.005054 
L 283.011291 182.19528 
L 284.23901 179.385865 
L 284.852869 178.958972 
L 285.262108 178.340341 
L 285.671348 177.651811 
L 286.080587 177.381733 
L 286.285207 177.419956 
L 286.694446 177.858751 
L 287.512925 179.34894 
L 287.717545 179.473916 
L 287.922165 179.368742 
L 288.536024 178.634224 
L 288.740644 178.696415 
L 289.354503 179.30271 
L 289.763742 179.330086 
L 290.172982 179.028926 
L 290.582221 178.703989 
L 291.19608 178.780598 
L 291.4007 178.619536 
L 291.809939 177.850852 
L 293.242278 174.318687 
L 293.856137 173.261342 
L 296.720813 167.15946 
L 297.743912 164.651637 
L 298.153151 163.808131 
L 298.56239 162.391413 
L 300.403968 154.163453 
L 301.017827 151.972804 
L 301.427067 151.15221 
L 301.631686 151.109361 
L 301.836306 151.35961 
L 302.245546 152.628765 
L 303.268644 156.442126 
L 304.291743 159.706027 
L 304.700982 159.929414 
L 305.110222 160.120963 
L 305.519461 160.439841 
L 305.928701 161.093043 
L 306.747179 162.931947 
L 307.156419 163.434853 
L 307.770278 163.790873 
L 307.974898 163.684778 
L 308.384137 162.791119 
L 308.997996 160.456829 
L 309.816475 156.014314 
L 310.634954 150.582352 
L 311.862673 142.166144 
L 312.271912 141.323855 
L 312.476532 141.213676 
L 312.681152 141.315388 
L 312.885771 141.717015 
L 313.295011 143.371296 
L 314.11349 147.168291 
L 314.318109 147.405854 
L 314.522729 147.194395 
L 315.136588 145.32119 
L 315.545828 144.401833 
L 315.750447 144.523157 
L 315.955067 145.256079 
L 316.364307 148.338223 
L 317.387405 157.202315 
L 317.796645 159.168089 
L 318.205884 159.974914 
L 318.615124 160.229762 
L 319.024363 160.212395 
L 319.638222 159.973778 
L 320.047462 159.691446 
L 320.456701 159.074303 
L 320.865941 157.561012 
L 321.4798 153.903357 
L 322.298279 148.920578 
L 322.707518 147.966649 
L 322.912138 147.916226 
L 323.116758 148.074448 
L 323.525997 148.845051 
L 324.139856 150.326936 
L 324.344476 150.562605 
L 324.753715 150.564282 
L 325.572194 150.173827 
L 325.776814 150.278298 
L 325.981434 150.560386 
L 326.390673 151.824618 
L 327.209152 156.118677 
L 327.823011 159.121128 
L 328.232251 160.233495 
L 328.64149 160.641696 
L 328.84611 160.545069 
L 329.255349 159.801923 
L 329.664589 158.612866 
L 330.483068 154.955697 
L 331.096927 152.754092 
L 331.506166 152.11309 
L 331.915406 151.766242 
L 332.938505 151.263525 
L 333.347744 150.646274 
L 333.756983 149.31904 
L 334.370843 146.272522 
L 335.189322 141.76779 
L 335.598561 140.338439 
L 337.235519 136.829158 
L 338.053998 135.674565 
L 338.463237 134.386501 
L 338.872477 132.057188 
L 339.281716 128.291734 
L 339.895575 119.47279 
L 340.304815 110.71003 
L 340.918674 91.382126 
L 341.532533 62.913072 
L 342.555632 7.425334 
L 342.760251 3.019149 
L 342.964871 3.00024 
L 343.169491 7.094256 
L 343.57873 23.553368 
L 344.397209 59.475991 
L 345.011068 77.090832 
L 345.624928 89.343098 
L 346.238787 98.080943 
L 346.852646 103.986542 
L 347.261885 105.942334 
L 347.466505 106.211087 
L 347.671125 106.118139 
L 348.080364 105.721787 
L 348.284984 105.806592 
L 348.489604 106.214441 
L 348.898843 108.092001 
L 349.308083 111.383412 
L 350.331181 120.550558 
L 350.94504 123.757191 
L 351.5589 126.180696 
L 353.400477 132.137286 
L 353.605097 132.170586 
L 353.809717 131.948091 
L 354.218956 130.994271 
L 354.628196 129.358466 
L 355.242055 125.588981 
L 356.060534 120.671855 
L 356.674393 118.540475 
L 357.288252 117.308596 
L 357.697491 116.961639 
L 357.902111 116.815996 
L 358.106731 116.496604 
L 358.51597 114.998435 
L 358.92521 112.383517 
L 359.743689 104.889831 
L 360.357548 96.868136 
L 361.176027 82.015938 
L 362.403745 58.910786 
L 362.812985 54.531787 
L 363.017604 53.506876 
L 363.222224 53.29577 
L 363.426844 53.789316 
L 363.836083 56.208439 
L 364.654562 63.631305 
L 365.268421 68.494166 
L 367.723858 81.323053 
L 369.974675 88.138757 
L 370.383915 88.863158 
L 370.793154 89.232838 
L 371.202393 89.272143 
L 371.407013 89.14576 
L 371.611633 88.886287 
L 372.020872 87.695769 
L 372.839351 84.674355 
L 374.271689 81.408642 
L 374.476309 81.507162 
L 374.885549 82.619015 
L 375.294788 84.548405 
L 375.908647 88.551881 
L 376.522506 94.035565 
L 377.750225 105.83881 
L 378.977943 113.830614 
L 380.205661 118.925628 
L 380.614901 120.174711 
L 381.842619 122.831477 
L 382.865718 126.453885 
L 386.139633 139.82977 
L 386.958112 142.20691 
L 388.39045 148.196232 
L 389.822789 150.830221 
L 390.436648 152.238283 
L 391.459746 154.181036 
L 392.073606 155.328596 
L 394.119803 158.346657 
L 397.393718 165.764518 
L 397.802958 166.009033 
L 399.030676 165.544187 
L 399.439916 165.661697 
L 400.053775 166.248867 
L 400.667634 167.163248 
L 401.281493 167.994824 
L 401.895352 168.37243 
L 402.304592 168.387308 
L 403.73693 167.80966 
L 403.94155 167.568202 
L 404.350789 166.604914 
L 404.964648 164.475508 
L 406.806226 157.207482 
L 407.215465 156.726054 
L 407.420085 156.747371 
L 407.829325 157.123948 
L 408.238564 157.937158 
L 408.647803 159.633124 
L 410.080142 167.456156 
L 410.694001 169.546095 
L 411.10324 170.344561 
L 413.149437 172.986665 
L 413.558677 173.156708 
L 413.967916 172.909353 
L 414.581776 172.119652 
L 415.195635 170.542764 
L 417.037212 165.564394 
L 417.241832 165.504666 
L 417.446452 165.656368 
L 418.060311 166.787319 
L 418.67417 168.077465 
L 419.08341 169.59338 
L 419.901888 172.983365 
L 420.515748 175.282624 
L 421.129607 177.600414 
L 421.538846 178.288836 
L 421.948086 178.326681 
L 422.357325 178.279206 
L 422.766565 178.549446 
L 423.789663 179.768935 
L 425.017382 182.427054 
L 425.222001 182.570668 
L 425.426621 182.521652 
L 426.04048 182.114993 
L 426.2451 182.274351 
L 426.858959 183.155972 
L 427.268199 183.229307 
L 427.882058 182.978219 
L 429.723635 181.924121 
L 430.132875 182.365675 
L 430.746734 183.221868 
L 431.360593 183.79343 
L 432.179072 184.986112 
L 432.588311 184.777764 
L 432.997551 184.557028 
L 433.40679 184.79762 
L 433.81603 185.182394 
L 434.225269 185.241907 
L 435.248368 184.880071 
L 435.862227 184.692608 
L 436.476086 184.310051 
L 436.885326 184.045222 
L 437.294565 184.166248 
L 439.340762 185.841277 
L 440.159241 186.559023 
L 440.773101 186.83681 
L 441.18234 186.820444 
L 441.591579 186.522504 
L 442.000819 185.688844 
L 442.410058 184.833976 
L 442.614678 184.662121 
L 443.023918 184.804437 
L 443.433157 184.953353 
L 443.842396 185.018735 
L 444.251636 185.348569 
L 444.660875 185.719493 
L 445.070115 185.770457 
L 445.274735 185.589702 
L 445.683974 184.752904 
L 446.297833 183.398863 
L 446.911692 182.908157 
L 447.525552 182.401815 
L 448.34403 181.487138 
L 448.54865 181.44088 
L 448.95789 181.664268 
L 449.367129 182.048204 
L 449.776369 182.713687 
L 451.004087 185.293276 
L 451.822566 186.31816 
L 452.641045 187.87925 
L 453.050284 188.219985 
L 454.278003 188.729763 
L 454.687242 188.485491 
L 455.710341 187.718486 
L 455.91496 187.688756 
L 456.3242 187.949475 
L 456.938059 188.343663 
L 457.756538 188.603813 
L 458.370397 189.196772 
L 458.779637 189.25834 
L 459.393496 189.078343 
L 460.416594 188.313068 
L 460.825834 188.275629 
L 461.235073 187.951422 
L 461.644313 187.566918 
L 461.848932 187.55342 
L 462.053552 187.741722 
L 462.872031 188.999949 
L 463.076651 188.98196 
L 464.099749 188.067228 
L 464.918228 186.711591 
L 465.327468 186.827261 
L 466.350566 187.641606 
L 466.964426 187.638036 
L 467.578285 188.112701 
L 467.987524 188.882655 
L 468.396764 189.808315 
L 468.601383 190.072063 
L 468.806003 190.145399 
L 469.010623 190.035274 
L 469.419862 189.381152 
L 470.033721 188.375799 
L 470.238341 188.302789 
L 470.647581 188.486817 
L 471.26144 188.785812 
L 471.875299 188.856605 
L 472.284538 189.106232 
L 473.103017 189.723646 
L 473.716877 189.891822 
L 474.330736 190.01715 
L 474.739975 189.715503 
L 475.149215 189.286636 
L 475.558454 189.188792 
L 475.967694 189.318421 
L 477.604651 190.331699 
L 478.218511 190.091757 
L 478.83237 189.83864 
L 479.446229 189.800227 
L 479.855468 189.487328 
L 481.083187 188.010962 
L 481.492426 187.55791 
L 481.901666 187.436451 
L 482.310905 187.777267 
L 483.538623 189.440827 
L 483.743243 189.546055 
L 483.947863 189.41805 
L 485.78944 186.54079 
L 486.19868 186.757794 
L 486.812539 187.062632 
L 487.221779 186.840706 
L 487.835638 186.372452 
L 488.040257 186.42209 
L 488.449497 186.874195 
L 490.495694 189.637218 
L 490.904934 189.758596 
L 491.314173 189.439177 
L 491.928032 188.67144 
L 492.746511 188.029167 
L 493.56499 187.139214 
L 493.97423 186.921967 
L 494.383469 187.085518 
L 495.201948 187.721975 
L 495.815807 187.61626 
L 496.225047 188.073368 
L 496.634286 188.433364 
L 496.838906 188.345123 
L 497.248145 187.782732 
L 497.862004 186.843925 
L 498.066624 186.783871 
L 498.271244 186.927621 
L 498.680483 187.673446 
L 499.294342 188.902808 
L 499.703582 189.284742 
L 500.112821 189.281929 
L 501.13592 189.02892 
L 501.954399 189.281631 
L 503.386737 190.292313 
L 503.591357 190.256795 
L 504.614455 189.495822 
L 505.023695 189.503017 
L 505.432934 189.517057 
L 505.842174 189.177025 
L 506.456033 188.50321 
L 506.660653 188.49523 
L 507.069892 188.81941 
L 507.683751 189.361026 
L 508.092991 189.497715 
L 508.50223 189.573161 
L 509.116089 190.163063 
L 509.525329 190.511102 
L 509.934568 190.434034 
L 510.753047 189.877701 
L 511.571526 188.870482 
L 512.185385 188.608844 
L 512.799244 187.927617 
L 513.003864 187.935327 
L 513.822343 188.601568 
L 514.436202 189.067089 
L 514.640822 189.052211 
L 515.050061 188.695813 
L 516.27778 187.051839 
L 516.482399 187.039287 
L 516.687019 187.175246 
L 517.710118 188.465717 
L 518.323977 188.692513 
L 518.937836 189.242407 
L 519.551695 189.931398 
L 519.960935 189.992641 
L 520.370174 189.578895 
L 520.984033 188.685101 
L 521.188653 188.65594 
L 521.597893 189.094086 
L 522.416372 190.585979 
L 522.825611 191.286332 
L 523.030231 191.473633 
L 523.23485 191.457592 
L 524.257949 190.406928 
L 525.281048 190.395621 
L 526.304146 189.760327 
L 526.713386 189.756973 
L 527.122625 190.019638 
L 527.736484 190.774823 
L 528.145724 191.087885 
L 528.350344 191.00051 
L 528.759583 190.46966 
L 529.373442 189.606569 
L 529.782682 189.466634 
L 530.191921 189.686748 
L 531.41964 191.02115 
L 531.828879 191.458674 
L 532.238118 191.508827 
L 532.647358 191.102141 
L 533.056597 190.476964 
L 533.465837 190.27757 
L 533.875076 190.401491 
L 534.284316 190.556494 
L 534.693555 190.360806 
L 535.512034 189.54968 
L 535.921274 189.058676 
L 536.125893 188.980742 
L 536.330513 189.085727 
L 537.353612 190.204911 
L 537.967471 190.382853 
L 538.78595 191.183132 
L 539.195189 191.070112 
L 539.809048 190.667268 
L 540.627527 189.948873 
L 541.446006 189.729326 
L 542.264485 188.99984 
L 542.469105 189.046449 
L 542.878344 189.552845 
L 543.492203 190.722479 
L 543.696823 190.828573 
L 545.129161 190.323963 
L 545.74302 189.434713 
L 546.35688 188.618799 
L 546.766119 188.413103 
L 547.175358 188.526014 
L 547.584598 188.909787 
L 547.993837 189.324724 
L 550.858514 190.961881 
L 551.267753 190.586493 
L 552.290852 189.152976 
L 552.700091 188.882601 
L 552.904711 188.884765 
L 553.31395 189.318285 
L 553.72319 189.832851 
L 554.337049 190.039656 
L 555.769387 190.617521 
L 556.178626 190.406928 
L 556.587866 190.200962 
L 556.792486 190.258445 
L 557.815584 191.08821 
L 558.224824 191.018255 
L 559.247922 190.257985 
L 559.657162 190.381555 
L 560.475641 190.940781 
L 560.88488 190.850025 
L 561.29412 190.503852 
L 562.112599 189.563179 
L 562.521838 189.607218 
L 563.135697 190.052668 
L 564.568035 191.189949 
L 564.977275 191.237044 
L 565.386514 190.80301 
L 566.204993 189.418401 
L 566.614233 189.174347 
L 567.023472 189.116971 
L 567.841951 188.714668 
L 568.45581 189.351098 
L 568.86505 189.15441 
L 569.274289 188.971356 
L 569.683528 189.056702 
L 570.092768 189.373984 
L 570.911247 190.710955 
L 571.115867 190.671109 
L 571.525106 190.069818 
L 572.138965 189.151759 
L 572.548205 188.888119 
L 572.752824 188.910734 
L 573.162064 189.305544 
L 573.571303 189.627127 
L 574.594402 189.562259 
L 575.412881 190.168176 
L 575.82212 189.875673 
L 576.23136 189.632213 
L 576.640599 189.859469 
L 577.049839 190.048908 
L 578.277557 189.67893 
L 578.686796 189.129388 
L 579.300656 188.029546 
L 579.505275 187.900864 
L 579.914515 188.04932 
L 581.756092 189.547733 
L 582.165332 189.382478 
L 582.574571 189.123166 
L 582.779191 189.140127 
L 583.59767 189.724024 
L 584.416149 189.580437 
L 584.825388 189.434497 
L 585.848487 188.513922 
L 586.257726 188.697518 
L 587.076205 189.402495 
L 587.485445 189.787892 
L 587.690064 189.795764 
L 588.303924 189.524469 
L 588.713163 189.823789 
L 589.531642 190.57478 
L 589.940881 190.673598 
L 590.145501 190.558739 
L 590.554741 189.816079 
L 591.577839 187.17338 
L 591.987079 186.767668 
L 592.191698 186.703232 
L 592.600938 186.9468 
L 593.214797 187.371177 
L 593.828656 187.393142 
L 594.442515 187.475432 
L 594.647135 187.635845 
L 595.056375 188.402336 
L 595.465614 189.377392 
L 595.874853 189.810696 
L 596.284093 190.169204 
L 596.897952 191.057723 
L 597.102572 191.159949 
L 597.307192 191.126406 
L 597.716431 190.685365 
L 598.73953 188.973439 
L 598.944149 188.866424 
L 599.148769 188.902943 
L 599.762628 189.309142 
L 600.171868 189.071201 
L 600.581107 188.908137 
L 600.990347 188.712612 
L 601.808826 187.866915 
L 602.831924 187.327841 
L 604.059643 186.733962 
L 604.468882 185.903305 
L 605.082741 183.838389 
L 605.491981 182.587142 
L 606.10584 181.671382 
L 606.515079 180.956396 
L 606.924319 179.780432 
L 607.333558 177.680891 
L 608.152037 171.810512 
L 608.765896 165.629155 
L 609.379755 156.7016 
L 610.198234 142.824242 
L 610.402854 140.92239 
L 610.607474 140.494036 
L 610.812094 141.596908 
L 611.221333 147.176839 
L 612.449051 166.790051 
L 613.062911 172.725974 
L 613.67677 176.661877 
L 614.290629 179.397876 
L 615.109108 181.830876 
L 615.722967 183.170417 
L 616.950685 184.979836 
L 617.359925 185.736021 
L 617.769164 186.009589 
L 618.792263 186.406698 
L 619.815361 186.058551 
L 620.63384 186.647534 
L 621.04308 186.28908 
L 621.452319 185.937687 
L 621.656939 185.923864 
L 621.861559 186.075756 
L 622.270798 186.836594 
L 622.884657 188.000574 
L 623.498517 188.468639 
L 623.907756 188.566726 
L 624.521615 188.562343 
L 624.930855 188.700656 
L 625.135474 188.592208 
L 625.749334 187.652806 
L 626.363193 186.746757 
L 626.567812 186.582584 
L 626.977052 186.628733 
L 627.590911 187.007773 
L 628.000151 187.275876 
L 628.40939 187.262892 
L 629.023249 186.818361 
L 629.432489 186.286456 
L 630.250968 184.811416 
L 630.455587 184.82816 
L 630.864827 185.416521 
L 631.274066 186.137216 
L 631.478686 186.243472 
L 631.683306 186.074241 
L 632.501785 184.620327 
L 632.911024 184.450419 
L 633.729503 184.50931 
L 634.343362 183.871554 
L 634.547982 183.824052 
L 635.161841 183.957089 
L 635.57108 183.670402 
L 635.7757 183.665587 
L 636.18494 184.140901 
L 636.798799 185.073054 
L 637.412658 185.664796 
L 637.821897 185.860618 
L 638.231137 185.761368 
L 640.072714 184.14458 
L 640.481954 184.184183 
L 640.891193 184.385578 
L 641.300433 184.651274 
L 641.709672 184.606234 
L 642.937391 184.090938 
L 643.34663 183.740248 
L 643.75587 183.792348 
L 644.165109 183.894926 
L 644.778968 183.723801 
L 645.392827 183.456536 
L 645.802067 183.716876 
L 646.211306 184.121262 
L 646.620546 184.190486 
L 647.234405 183.8659 
L 648.666743 184.200657 
L 649.280602 184.575422 
L 650.099081 185.634363 
L 650.303701 185.619891 
L 650.71294 185.286081 
L 651.736039 184.171983 
L 652.554518 182.986254 
L 653.372997 182.099547 
L 654.396095 180.608194 
L 654.600715 180.723134 
L 655.009954 181.652852 
L 655.419194 182.59899 
L 655.828433 182.825543 
L 656.033053 182.761513 
L 656.442293 182.28114 
L 656.851532 181.697974 
L 657.056152 181.628669 
L 657.260771 181.758811 
L 657.670011 182.504149 
L 658.28387 183.793917 
L 658.69311 184.137574 
L 659.102349 184.150775 
L 659.511588 183.969938 
L 659.920828 183.416528 
L 661.557786 180.656048 
L 661.967025 180.192879 
L 662.580884 179.799124 
L 663.194744 178.987538 
L 663.808603 178.063501 
L 664.013222 178.034421 
L 664.422462 178.464749 
L 665.445561 180.251553 
L 666.468659 180.790275 
L 666.877899 181.251983 
L 667.082518 181.303272 
L 667.491758 180.995539 
L 668.105617 180.395249 
L 668.310237 180.350885 
L 669.742575 180.870644 
L 670.151814 180.40899 
L 670.561054 180.003333 
L 670.765673 180.070879 
L 671.174913 180.573163 
L 671.584152 181.131714 
L 671.993392 181.341224 
L 672.198012 181.302758 
L 672.402631 181.128468 
L 672.811871 180.233943 
L 673.63035 177.951942 
L 674.039589 177.317 
L 674.244209 177.172574 
L 674.653448 177.267253 
L 675.267307 177.451633 
L 676.085786 177.620567 
L 677.108885 178.01773 
L 678.131984 177.185748 
L 679.155082 177.086416 
L 679.564322 176.444522 
L 680.178181 175.391721 
L 681.20128 174.404385 
L 681.405899 174.358073 
L 681.610519 174.43993 
L 682.019758 174.99637 
L 682.838237 176.68882 
L 683.042857 176.851532 
L 683.247477 176.866978 
L 683.656716 176.471194 
L 684.270575 175.679788 
L 685.498294 174.603453 
L 686.112153 173.906185 
L 686.316773 173.645737 
L 686.726012 172.555066 
L 689.181449 163.404637 
L 690.409167 157.152947 
L 690.613787 156.728732 
L 690.818407 156.821247 
L 691.023026 157.433548 
L 691.636886 160.848474 
L 692.250745 163.799015 
L 692.659984 164.724513 
L 693.069224 164.968703 
L 693.478463 164.883492 
L 694.501562 163.902377 
L 695.9339 163.07475 
L 696.343139 162.271225 
L 697.161618 159.411332 
L 698.184717 155.667303 
L 698.798576 151.478094 
L 700.844773 134.784233 
L 701.458632 131.284339 
L 702.277111 123.944222 
L 703.09559 116.577108 
L 703.30021 115.488547 
L 703.50483 115.033466 
L 703.709449 115.255285 
L 703.914069 116.064653 
L 704.323309 118.95744 
L 705.141788 127.681354 
L 705.755647 133.467874 
L 706.164886 136.248534 
L 706.574126 137.4509 
L 706.778745 137.439619 
L 706.983365 137.117739 
L 707.392605 135.765943 
L 707.801844 133.551435 
L 708.211083 130.410833 
L 708.620323 125.964991 
L 709.234182 116.379717 
L 710.257281 100.13604 
L 710.66652 97.578848 
L 710.87114 97.82926 
L 711.07576 99.095007 
L 711.484999 104.123367 
L 712.303478 119.438516 
L 713.121957 133.521624 
L 713.940436 143.673483 
L 714.554295 149.37674 
L 714.963534 151.858919 
L 716.395873 157.243974 
L 716.805112 157.942324 
L 717.214351 158.224873 
L 717.418971 158.220112 
L 717.828211 157.800063 
L 718.64669 156.925123 
L 719.874408 155.896182 
L 720.283647 155.731306 
L 721.102126 155.023217 
L 721.306746 155.040205 
L 721.511366 155.276712 
L 723.762183 159.770949 
L 724.171422 160.448173 
L 725.194521 161.608122 
L 725.80838 162.216744 
L 726.217619 162.374262 
L 727.036098 162.338312 
L 728.059197 162.867295 
L 728.468436 162.839216 
L 729.491535 161.901843 
L 729.900775 161.761799 
L 730.514634 161.908416 
L 731.333113 162.284967 
L 731.537732 162.118576 
L 732.560831 160.49846 
L 733.17469 160.251241 
L 734.197789 159.376491 
L 734.607028 159.640915 
L 735.425507 160.478389 
L 735.630127 160.418957 
L 736.039366 159.759669 
L 736.857845 158.037084 
L 737.471704 157.456433 
L 737.676324 157.372439 
L 737.880944 157.435225 
L 738.290183 158.009519 
L 738.904042 159.098622 
L 739.313282 159.397347 
L 739.722521 159.246267 
L 740.131761 159.160325 
L 740.541 159.505957 
L 740.95024 159.925979 
L 741.359479 159.942886 
L 741.768719 159.747063 
L 742.177958 159.270532 
L 742.996437 157.715582 
L 743.814916 156.234591 
L 744.224155 155.850952 
L 744.633395 155.632407 
L 744.838015 155.383267 
L 745.247254 154.090009 
L 746.065733 150.183051 
L 746.474972 149.320988 
L 746.679592 149.234046 
L 746.884212 149.403899 
L 747.293451 150.562307 
L 748.11193 153.818552 
L 748.930409 155.789871 
L 749.544268 157.376984 
L 749.748888 157.536098 
L 750.158127 157.323775 
L 750.771987 156.770743 
L 751.181226 156.133798 
L 751.795085 155.002225 
L 751.999705 154.831235 
L 752.204325 154.844707 
L 752.613564 155.388244 
L 753.022804 156.040905 
L 753.432043 156.285961 
L 753.636663 156.236295 
L 753.841283 156.023917 
L 754.250522 154.962163 
L 754.864381 152.407866 
L 755.88748 147.241924 
L 756.0921 146.8255 
L 756.296719 146.846816 
L 756.501339 147.283934 
L 757.729057 151.346112 
L 758.138297 152.19373 
L 758.752156 152.903171 
L 759.366015 154.524936 
L 759.775255 155.283475 
L 760.184494 155.426819 
L 760.593734 155.354619 
L 761.002973 155.559315 
L 762.230691 156.586904 
L 762.435311 156.642575 
L 762.639931 156.576814 
L 762.844551 156.326645 
L 763.45841 154.702121 
L 764.890748 151.311892 
L 765.504607 150.150103 
L 765.913846 149.876968 
L 766.118466 149.934614 
L 766.527706 150.404383 
L 767.141565 151.353037 
L 767.755424 151.845745 
L 768.164663 151.914211 
L 768.369283 152.087527 
L 768.778523 153.043809 
L 769.392382 154.7424 
L 769.597001 155.039393 
L 769.801621 155.066526 
L 770.210861 154.527182 
L 770.6201 154.105915 
L 771.02934 154.090686 
L 771.643199 154.32419 
L 772.461678 154.796394 
L 773.075537 155.007203 
L 773.484776 155.003388 
L 773.894016 154.780028 
L 774.712495 153.822177 
L 774.917114 153.848443 
L 776.554072 155.228264 
L 776.963312 155.283989 
L 777.781791 155.053947 
L 778.19103 154.584367 
L 778.600269 154.151172 
L 779.009509 154.134481 
L 780.032608 154.442458 
L 780.441847 154.342098 
L 780.851086 153.954105 
L 781.260326 153.580881 
L 781.464946 153.618672 
L 782.078805 154.209088 
L 783.101903 155.472454 
L 784.125002 156.059029 
L 784.738861 156.05554 
L 785.148101 156.442776 
L 785.55734 157.063976 
L 785.76196 157.19136 
L 786.171199 157.01991 
L 786.375819 156.920497 
L 786.580439 156.950984 
L 787.398918 157.427948 
L 788.012777 157.438282 
L 788.422016 157.738413 
L 789.035876 158.693235 
L 789.445115 159.252786 
L 789.649735 159.319927 
L 790.058974 159.052013 
L 790.672833 158.489189 
L 791.286693 158.332563 
L 791.900552 157.942649 
L 792.105171 158.067733 
L 792.514411 158.919679 
L 793.12827 160.435242 
L 793.53751 160.980024 
L 793.946749 161.019491 
L 794.355988 160.916724 
L 794.765228 161.178551 
L 795.379087 161.740781 
L 795.583707 161.69896 
L 796.402186 161.183934 
L 796.811425 161.549638 
L 797.425284 162.105185 
L 797.834524 162.420439 
L 798.448383 163.361843 
L 798.857622 163.837292 
L 800.289961 164.596129 
L 800.90382 165.102416 
L 801.722299 165.336381 
L 802.540778 166.227145 
L 802.950017 166.670025 
L 803.359256 166.770006 
L 803.973116 166.868851 
L 804.382355 167.232471 
L 804.791595 168.041569 
L 805.814693 170.293191 
L 806.428552 170.791228 
L 807.247031 170.838459 
L 807.656271 171.318616 
L 808.47475 172.57979 
L 808.679369 172.630403 
L 809.088609 172.348828 
L 809.907088 171.413159 
L 810.316327 171.173676 
L 810.725567 171.09539 
L 810.930186 171.142865 
L 811.339426 171.600163 
L 811.953285 172.42706 
L 812.157905 172.481595 
L 813.181003 172.250795 
L 813.590243 172.487195 
L 814.204102 173.029758 
L 815.227201 173.43363 
L 815.63644 173.617415 
L 816.045679 173.564693 
L 817.478018 173.955607 
L 818.296496 173.87486 
L 819.524215 174.105822 
L 820.342694 173.747558 
L 820.751933 173.942515 
L 821.775032 174.941078 
L 822.593511 175.258684 
L 823.20737 175.737163 
L 823.616609 175.74582 
L 824.025849 175.354932 
L 824.639708 174.794758 
L 825.253567 174.353664 
L 825.458187 174.330941 
L 825.867426 174.65972 
L 826.481286 175.439007 
L 826.890525 175.572936 
L 827.913624 175.371298 
L 828.322863 175.173771 
L 828.732103 174.663074 
L 829.345962 173.746016 
L 829.550581 173.70341 
L 829.755201 173.869747 
L 830.98292 175.768543 
L 831.392159 175.863167 
L 831.596779 175.599419 
L 832.006018 174.244864 
L 833.438356 168.14255 
L 835.484554 160.688305 
L 836.507652 155.039042 
L 837.121511 153.058201 
L 838.963089 147.672469 
L 839.576948 144.31343 
L 840.395427 138.230863 
L 841.418526 130.034553 
L 842.646244 120.886208 
L 843.464723 113.135699 
L 844.692441 99.626046 
L 845.51092 88.074241 
L 846.738638 66.332786 
L 847.761737 45.073112 
L 849.603315 0.5677 
L 849.657762 -1 
M 945.277012 -1 
L 946.388445 46.943936 
L 947.411544 81.840891 
L 948.230023 101.789752 
L 948.843882 112.664064 
L 949.662361 123.065063 
L 950.27622 128.914017 
L 951.299319 135.441033 
L 953.345516 148.427139 
L 954.573235 152.355143 
L 955.391713 154.79074 
L 956.210192 156.613414 
L 957.233291 159.524812 
L 957.64253 159.76938 
L 957.84715 159.867467 
L 958.25639 160.502707 
L 958.870249 162.238385 
L 959.484108 164.483055 
L 960.302587 167.682628 
L 960.507207 168.076275 
L 960.711826 168.216616 
L 961.325686 168.141766 
L 961.734925 168.596142 
L 962.553404 169.964439 
L 963.371883 171.522256 
L 963.576502 171.564753 
L 964.190362 171.207165 
L 964.394981 171.320266 
L 964.804221 172.078507 
L 965.41808 173.331891 
L 965.827319 173.856168 
L 966.236559 174.120078 
L 966.645798 173.972136 
L 967.259658 173.585251 
L 967.873517 173.48216 
L 968.282756 173.575756 
L 968.896615 174.028429 
L 970.328953 175.666398 
L 970.738193 176.478417 
L 971.352052 177.871438 
L 971.556672 178.073347 
L 971.965911 178.01489 
L 973.19363 177.423337 
L 974.216728 177.339614 
L 974.421348 177.581153 
L 975.444447 179.495422 
L 975.649066 179.536161 
L 975.853686 179.439589 
L 976.262926 178.845574 
L 976.672165 178.194671 
L 976.876785 178.06388 
L 977.286024 178.186475 
L 977.899883 178.754764 
L 978.513743 179.920665 
L 979.536841 181.797873 
L 979.946081 182.124975 
L 981.583038 182.309788 
L 982.196898 182.739169 
L 982.810757 182.828438 
L 983.629236 182.603941 
L 984.243095 182.580704 
L 984.856954 182.744552 
L 985.266194 182.621362 
L 986.084672 181.557065 
L 986.289292 181.624882 
L 986.698532 182.291393 
L 987.312391 183.563875 
L 987.92625 184.015492 
L 989.153968 184.947266 
L 989.358588 184.9154 
L 989.767828 184.463079 
L 990.381687 183.75069 
L 991.404785 182.810746 
L 991.814025 182.963666 
L 992.223264 183.056695 
L 992.632504 182.716906 
L 993.246363 181.988069 
L 993.450983 181.994534 
L 994.678701 182.799709 
L 995.7018 181.974625 
L 995.906419 182.149618 
L 996.929518 183.690771 
L 997.338757 183.845855 
L 997.747997 184.311539 
L 998.361856 185.04841 
L 998.566476 185.062504 
L 998.975715 184.603583 
L 999.589574 183.808903 
L 1000.203434 182.982385 
L 1000.817293 181.883544 
L 1001.635772 179.602625 
L 1002.249631 177.827156 
L 1002.454251 177.538927 
L 1002.65887 177.507439 
L 1002.86349 177.727148 
L 1003.272729 178.668579 
L 1005.318927 184.520428 
L 1006.751265 186.687164 
L 1007.160504 186.95432 
L 1007.569744 186.97918 
L 1008.388223 186.747217 
L 1009.206702 185.87244 
L 1010.43442 185.580018 
L 1010.843659 185.333393 
L 1011.252899 184.760289 
L 1012.275997 183.130219 
L 1012.685237 182.79062 
L 1012.889857 182.795219 
L 1013.094476 182.930745 
L 1013.503716 183.701213 
L 1014.731434 186.956322 
L 1015.140674 187.481816 
L 1015.549913 187.7378 
L 1015.959153 187.701687 
L 1016.368392 187.545251 
L 1017.186871 187.560075 
L 1018.00535 187.277526 
L 1018.823829 187.210196 
L 1019.642308 186.561484 
L 1020.870026 186.181985 
L 1021.279265 186.164645 
L 1021.893125 186.457662 
L 1022.506984 186.830426 
L 1023.530082 187.01018 
L 1024.143942 188.108589 
L 1024.757801 189.072094 
L 1025.16704 189.351531 
L 1025.37166 189.303137 
L 1025.57628 189.059758 
L 1025.985519 188.01107 
L 1026.599378 186.268792 
L 1026.803998 186.016216 
L 1027.008618 186.022249 
L 1027.417857 186.625433 
L 1028.031716 187.887122 
L 1028.236336 188.108859 
L 1028.440956 188.12931 
L 1028.645576 187.936896 
L 1029.464055 186.440377 
L 1029.668674 186.419602 
L 1030.691773 187.060144 
L 1031.305632 186.776567 
L 1031.919491 186.839245 
L 1032.328731 187.251151 
L 1032.94259 188.092872 
L 1033.14721 188.181167 
L 1033.556449 188.013396 
L 1033.965689 187.725302 
L 1034.374928 187.83797 
L 1034.784167 187.985398 
L 1035.602646 187.840215 
L 1036.421125 188.084135 
L 1036.830365 187.484007 
L 1037.239604 186.796639 
L 1037.648844 186.513983 
L 1038.058083 186.617101 
L 1039.899661 188.29654 
L 1040.3089 188.667302 
L 1040.718139 188.400876 
L 1040.922759 188.2759 
L 1041.127379 188.331923 
L 1041.536618 189.008253 
L 1041.945858 189.557687 
L 1042.355097 189.477481 
L 1042.764337 189.10423 
L 1043.787435 187.645745 
L 1044.196675 187.31161 
L 1044.605914 187.259754 
L 1045.219773 187.400176 
L 1046.447492 187.033417 
L 1047.061351 187.331087 
L 1048.289069 187.002363 
L 1048.902929 186.302254 
L 1049.107548 186.364526 
L 1049.516788 187.058926 
L 1050.130647 188.278848 
L 1050.539886 188.566104 
L 1050.949126 188.406665 
L 1051.358365 187.903055 
L 1051.767605 187.312476 
L 1052.176844 187.098827 
L 1052.586084 187.202027 
L 1053.813802 188.333113 
L 1055.24614 189.517814 
L 1055.65538 189.663241 
L 1056.064619 189.369628 
L 1056.678478 188.813972 
L 1057.087718 188.791926 
L 1057.496957 188.897371 
L 1057.906197 188.712558 
L 1058.724675 187.980178 
L 1059.133915 187.918745 
L 1059.338535 187.775807 
L 1059.747774 187.034337 
L 1060.361633 185.836002 
L 1060.770873 185.663227 
L 1062.203211 185.824613 
L 1062.407831 186.039318 
L 1063.430929 187.952071 
L 1063.840169 188.301057 
L 1064.658648 189.623962 
L 1064.863267 189.627912 
L 1065.886366 189.048424 
L 1067.523324 188.749726 
L 1068.137183 188.607032 
L 1069.160282 188.865992 
L 1069.774141 188.863909 
L 1070.18338 188.572055 
L 1070.59262 188.220661 
L 1071.001859 188.245305 
L 1071.411099 188.428522 
L 1071.820338 188.314096 
L 1072.229577 188.23957 
L 1072.638817 188.60035 
L 1073.457296 189.726026 
L 1073.866535 189.768794 
L 1074.275775 189.315878 
L 1075.094254 187.802939 
L 1075.503493 187.647368 
L 1076.526592 187.790009 
L 1077.345071 188.04253 
L 1077.75431 187.984343 
L 1078.163549 188.226315 
L 1078.982028 189.000057 
L 1079.391268 189.078478 
L 1079.800507 188.764956 
L 1080.618986 187.62662 
L 1081.437465 187.444296 
L 1081.846705 187.652968 
L 1082.665183 188.40588 
L 1083.074423 188.471587 
L 1083.279043 188.375772 
L 1083.688282 187.808403 
L 1084.097522 187.102776 
L 1084.302141 186.938171 
L 1084.711381 187.040559 
L 1085.12062 187.188258 
L 1086.348339 187.026276 
L 1086.757578 187.217824 
L 1087.780677 188.162745 
L 1087.985296 188.13564 
L 1088.394536 187.615394 
L 1089.213015 185.957272 
L 1089.417634 185.854559 
L 1089.826874 186.196593 
L 1090.236113 186.54098 
L 1090.440733 186.505949 
L 1090.849973 186.07397 
L 1091.259212 185.70007 
L 1091.463832 185.783875 
L 1092.48693 187.208735 
L 1092.89617 187.182929 
L 1093.510029 186.770941 
L 1093.714649 186.791797 
L 1094.123888 187.185958 
L 1094.737747 188.513165 
L 1095.146987 189.292614 
L 1095.556226 189.635162 
L 1095.760846 189.553143 
L 1096.579325 188.434635 
L 1096.988564 188.419379 
L 1097.807043 188.550198 
L 1098.216283 188.268163 
L 1099.239381 187.457821 
L 1099.444001 187.337147 
L 1099.648621 187.346344 
L 1099.853241 187.567027 
L 1100.4671 188.712829 
L 1100.671719 188.795632 
L 1101.080959 188.477971 
L 1101.694818 187.956021 
L 1102.104058 187.843272 
L 1102.513297 187.995624 
L 1103.127156 188.66814 
L 1103.536396 188.932943 
L 1103.945635 188.610143 
L 1104.559494 187.963947 
L 1106.196452 186.777163 
L 1106.810311 186.1324 
L 1107.42417 185.655842 
L 1107.83341 185.104893 
L 1108.651889 183.241697 
L 1109.674987 180.251716 
L 1109.879607 180.19012 
L 1110.288847 180.752891 
L 1110.698086 181.356887 
L 1111.107326 181.58509 
L 1111.516565 181.62783 
L 1111.925804 181.357049 
L 1112.335044 180.789491 
L 1112.744283 179.779161 
L 1113.767382 176.235877 
L 1114.381241 172.91471 
L 1116.222819 161.668311 
L 1116.836678 158.658014 
L 1117.859776 155.303249 
L 1118.473636 151.671671 
L 1119.087495 147.039636 
L 1119.496734 142.508069 
L 1119.905974 135.719145 
L 1120.519833 120.191536 
L 1121.133692 95.897165 
L 1121.747551 60.040006 
L 1122.56603 11.03419 
L 1122.77065 5.629414 
L 1122.97527 4.95403 
L 1123.179889 9.181787 
L 1123.589129 29.790072 
L 1124.816847 107.719454 
L 1125.430706 129.799993 
L 1125.839946 138.628757 
L 1126.453805 146.563727 
L 1127.272284 156.057812 
L 1128.295383 168.418336 
L 1129.113861 175.275131 
L 1129.727721 178.635414 
L 1130.34158 180.492172 
L 1131.364678 183.193843 
L 1131.569298 183.420937 
L 1131.773918 183.405302 
L 1132.592397 182.667538 
L 1133.001636 182.803821 
L 1133.820115 183.613784 
L 1134.229355 184.297527 
L 1134.843214 185.478225 
L 1135.457073 186.039534 
L 1136.070932 186.509222 
L 1136.275552 186.458339 
L 1136.889411 185.900925 
L 1137.50327 185.960897 
L 1138.935608 186.259027 
L 1139.344848 186.668553 
L 1139.754087 187.549633 
L 1140.163327 188.58558 
L 1140.367946 188.836127 
L 1140.777186 188.811862 
L 1140.981806 188.813269 
L 1141.595665 189.142291 
L 1142.004904 188.974493 
L 1142.414144 188.575355 
L 1143.232623 187.260673 
L 1144.255721 187.21025 
L 1145.688059 187.486306 
L 1145.892679 187.637765 
L 1146.301919 188.396466 
L 1146.711158 189.109614 
L 1146.915778 189.221307 
L 1147.120397 189.136286 
L 1147.529637 188.48119 
L 1147.938876 187.834589 
L 1148.348116 187.715835 
L 1148.961975 188.07675 
L 1150.394313 189.343199 
L 1150.803553 189.766224 
L 1151.212792 189.813401 
L 1151.622031 189.680418 
L 1152.44051 189.798225 
L 1153.05437 189.116349 
L 1153.872848 188.13683 
L 1154.282088 188.01318 
L 1154.691327 188.195693 
L 1155.919046 189.304462 
L 1156.328285 189.150569 
L 1156.737525 188.87454 
L 1156.942144 188.884982 
L 1157.351384 189.32567 
L 1157.965243 190.09319 
L 1158.579102 190.583112 
L 1159.192961 190.758403 
L 1159.80682 190.734896 
L 1160.625299 190.348201 
L 1161.034539 189.633241 
L 1161.443778 188.78143 
L 1161.648398 188.628592 
L 1161.853018 188.685723 
L 1162.262257 189.108586 
L 1163.080736 190.118294 
L 1163.285356 190.141314 
L 1163.694595 189.657803 
L 1164.513074 188.404041 
L 1164.717694 188.338198 
L 1164.922314 188.453842 
L 1165.945412 189.866259 
L 1166.763891 189.908188 
L 1167.37775 190.265749 
L 1167.99161 190.261177 
L 1168.400849 190.091946 
L 1169.014708 189.775692 
L 1169.628567 189.926556 
L 1170.242427 190.085697 
L 1170.651666 189.98807 
L 1171.470145 189.63508 
L 1172.288624 189.516435 
L 1173.925582 188.875487 
L 1174.334821 189.188251 
L 1174.744061 189.52125 
L 1175.1533 189.501746 
L 1175.562539 189.33411 
L 1176.585638 188.673172 
L 1177.608737 188.130717 
L 1178.017976 188.354618 
L 1178.427216 188.767499 
L 1178.631835 188.813648 
L 1179.041075 188.514382 
L 1179.654934 187.870756 
L 1180.064173 187.398444 
L 1180.473413 187.259672 
L 1180.882652 187.4272 
L 1181.905751 188.436367 
L 1182.51961 188.504048 
L 1183.133469 188.320967 
L 1184.770427 187.474269 
L 1184.770427 187.474269 
" clip-path="url(#p9f0e1fad4a)" style="fill: none; stroke: #000000; stroke-width: 2; stroke-linecap: square"/>
   </g>
   <g id="patch_3">
    <path d="M 3.00024 198.907885 
L 1184.99976 198.907885 
" style="fill: none; stroke: #000000; stroke-width: 2; stroke-linejoin: miter; stroke-linecap: square"/>
   </g>
  </g>
 </g>
 <defs>
  <clipPath id="p9f0e1fad4a">
   <rect x="3.00024" y="3.00024" width="1181.99952" height="195.907645"/>
  </clipPath>
 </defs>
</svg>
