<?xml version="1.0" encoding="utf-8" standalone="no"?>
<!DOCTYPE svg PUBLIC "-//W3C//DTD SVG 1.1//EN"
  "http://www.w3.org/Graphics/SVG/1.1/DTD/svg11.dtd">
<svg xmlns:xlink="http://www.w3.org/1999/xlink" width="1188pt" height="252pt" viewBox="0 0 1188 252" xmlns="http://www.w3.org/2000/svg" version="1.1">
 <metadata>
  <rdf:RDF xmlns:dc="http://purl.org/dc/elements/1.1/" xmlns:cc="http://creativecommons.org/ns#" xmlns:rdf="http://www.w3.org/1999/02/22-rdf-syntax-ns#">
   <cc:Work>
    <dc:type rdf:resource="http://purl.org/dc/dcmitype/StillImage"/>
    <dc:date>2024-07-23T21:46:32.416902</dc:date>
    <dc:format>image/svg+xml</dc:format>
    <dc:creator>
     <cc:Agent>
      <dc:title>Matplotlib v3.8.4, https://matplotlib.org/</dc:title>
     </cc:Agent>
    </dc:creator>
   </cc:Work>
  </rdf:RDF>
 </metadata>
 <defs>
  <style type="text/css">*{stroke-linejoin: round; stroke-linecap: butt}</style>
 </defs>
 <g id="figure_1">
  <g id="patch_1">
   <path d="M 0 252 
L 1188 252 
L 1188 0 
L 0 0 
z
" style="fill: #ffffff"/>
  </g>
  <g id="axes_1">
   <g id="patch_2">
    <path d="M 3.00024 198.907885 
L 1184.99976 198.907885 
L 1184.99976 3.00024 
L 3.00024 3.00024 
z
" style="fill: #ffffff"/>
   </g>
   <g id="matplotlib.axis_1">
    <g id="xtick_1">
     <g id="line2d_1">
      <defs>
       <path id="mf4401784c6" d="M 0 0 
L 0 8 
" style="stroke: #000000; stroke-width: 2"/>
      </defs>
      <g>
       <use xlink:href="#mf4401784c6" x="1131.272509" y="198.907885" style="stroke: #000000; stroke-width: 2"/>
      </g>
     </g>
     <g id="text_1">
      <!-- 0 -->
      <g transform="translate(1126.267665 224.791947) scale(0.18 -0.18)">
       <defs>
        <path id="Arial-BoldMT-30" d="M 1756 4600 
Q 2422 4600 2797 4125 
Q 3244 3563 3244 2259 
Q 3244 959 2794 391 
Q 2422 -78 1756 -78 
Q 1088 -78 678 436 
Q 269 950 269 2269 
Q 269 3563 719 4131 
Q 1091 4600 1756 4600 
z
M 1756 3872 
Q 1597 3872 1472 3770 
Q 1347 3669 1278 3406 
Q 1188 3066 1188 2259 
Q 1188 1453 1269 1151 
Q 1350 850 1473 750 
Q 1597 650 1756 650 
Q 1916 650 2041 751 
Q 2166 853 2234 1116 
Q 2325 1453 2325 2259 
Q 2325 3066 2244 3367 
Q 2163 3669 2039 3770 
Q 1916 3872 1756 3872 
z
" transform="scale(0.015625)"/>
       </defs>
       <use xlink:href="#Arial-BoldMT-30"/>
      </g>
     </g>
    </g>
    <g id="xtick_2">
     <g id="line2d_2">
      <g>
       <use xlink:href="#mf4401784c6" x="1023.818007" y="198.907885" style="stroke: #000000; stroke-width: 2"/>
      </g>
     </g>
     <g id="text_2">
      <!-- 1 -->
      <g transform="translate(1018.813164 224.791947) scale(0.18 -0.18)">
       <defs>
        <path id="Arial-BoldMT-31" d="M 2519 0 
L 1641 0 
L 1641 3309 
Q 1159 2859 506 2644 
L 506 3441 
Q 850 3553 1253 3867 
Q 1656 4181 1806 4600 
L 2519 4600 
L 2519 0 
z
" transform="scale(0.015625)"/>
       </defs>
       <use xlink:href="#Arial-BoldMT-31"/>
      </g>
     </g>
    </g>
    <g id="xtick_3">
     <g id="line2d_3">
      <g>
       <use xlink:href="#mf4401784c6" x="916.363505" y="198.907885" style="stroke: #000000; stroke-width: 2"/>
      </g>
     </g>
     <g id="text_3">
      <!-- 2 -->
      <g transform="translate(911.358662 224.791947) scale(0.18 -0.18)">
       <defs>
        <path id="Arial-BoldMT-32" d="M 3238 816 
L 3238 0 
L 159 0 
Q 209 463 459 877 
Q 709 1291 1447 1975 
Q 2041 2528 2175 2725 
Q 2356 2997 2356 3263 
Q 2356 3556 2198 3714 
Q 2041 3872 1763 3872 
Q 1488 3872 1325 3706 
Q 1163 3541 1138 3156 
L 263 3244 
Q 341 3969 753 4284 
Q 1166 4600 1784 4600 
Q 2463 4600 2850 4234 
Q 3238 3869 3238 3325 
Q 3238 3016 3127 2736 
Q 3016 2456 2775 2150 
Q 2616 1947 2200 1565 
Q 1784 1184 1673 1059 
Q 1563 934 1494 816 
L 3238 816 
z
" transform="scale(0.015625)"/>
       </defs>
       <use xlink:href="#Arial-BoldMT-32"/>
      </g>
     </g>
    </g>
    <g id="xtick_4">
     <g id="line2d_4">
      <g>
       <use xlink:href="#mf4401784c6" x="808.909004" y="198.907885" style="stroke: #000000; stroke-width: 2"/>
      </g>
     </g>
     <g id="text_4">
      <!-- 3 -->
      <g transform="translate(803.90416 224.791947) scale(0.18 -0.18)">
       <defs>
        <path id="Arial-BoldMT-33" d="M 241 1216 
L 1091 1319 
Q 1131 994 1309 822 
Q 1488 650 1741 650 
Q 2013 650 2198 856 
Q 2384 1063 2384 1413 
Q 2384 1744 2206 1937 
Q 2028 2131 1772 2131 
Q 1603 2131 1369 2066 
L 1466 2781 
Q 1822 2772 2009 2936 
Q 2197 3100 2197 3372 
Q 2197 3603 2059 3740 
Q 1922 3878 1694 3878 
Q 1469 3878 1309 3722 
Q 1150 3566 1116 3266 
L 306 3403 
Q 391 3819 561 4067 
Q 731 4316 1036 4458 
Q 1341 4600 1719 4600 
Q 2366 4600 2756 4188 
Q 3078 3850 3078 3425 
Q 3078 2822 2419 2463 
Q 2813 2378 3048 2084 
Q 3284 1791 3284 1375 
Q 3284 772 2843 347 
Q 2403 -78 1747 -78 
Q 1125 -78 715 280 
Q 306 638 241 1216 
z
" transform="scale(0.015625)"/>
       </defs>
       <use xlink:href="#Arial-BoldMT-33"/>
      </g>
     </g>
    </g>
    <g id="xtick_5">
     <g id="line2d_5">
      <g>
       <use xlink:href="#mf4401784c6" x="701.454502" y="198.907885" style="stroke: #000000; stroke-width: 2"/>
      </g>
     </g>
     <g id="text_5">
      <!-- 4 -->
      <g transform="translate(696.449658 224.791947) scale(0.18 -0.18)">
       <defs>
        <path id="Arial-BoldMT-34" d="M 1994 0 
L 1994 922 
L 119 922 
L 119 1691 
L 2106 4600 
L 2844 4600 
L 2844 1694 
L 3413 1694 
L 3413 922 
L 2844 922 
L 2844 0 
L 1994 0 
z
M 1994 1694 
L 1994 3259 
L 941 1694 
L 1994 1694 
z
" transform="scale(0.015625)"/>
       </defs>
       <use xlink:href="#Arial-BoldMT-34"/>
      </g>
     </g>
    </g>
    <g id="xtick_6">
     <g id="line2d_6">
      <g>
       <use xlink:href="#mf4401784c6" x="594" y="198.907885" style="stroke: #000000; stroke-width: 2"/>
      </g>
     </g>
     <g id="text_6">
      <!-- 5 -->
      <g transform="translate(588.995156 224.791947) scale(0.18 -0.18)">
       <defs>
        <path id="Arial-BoldMT-35" d="M 284 1178 
L 1159 1269 
Q 1197 972 1381 798 
Q 1566 625 1806 625 
Q 2081 625 2272 848 
Q 2463 1072 2463 1522 
Q 2463 1944 2273 2155 
Q 2084 2366 1781 2366 
Q 1403 2366 1103 2031 
L 391 2134 
L 841 4519 
L 3163 4519 
L 3163 3697 
L 1506 3697 
L 1369 2919 
Q 1663 3066 1969 3066 
Q 2553 3066 2959 2641 
Q 3366 2216 3366 1538 
Q 3366 972 3038 528 
Q 2591 -78 1797 -78 
Q 1163 -78 763 262 
Q 363 603 284 1178 
z
" transform="scale(0.015625)"/>
       </defs>
       <use xlink:href="#Arial-BoldMT-35"/>
      </g>
     </g>
    </g>
    <g id="xtick_7">
     <g id="line2d_7">
      <g>
       <use xlink:href="#mf4401784c6" x="486.545498" y="198.907885" style="stroke: #000000; stroke-width: 2"/>
      </g>
     </g>
     <g id="text_7">
      <!-- 6 -->
      <g transform="translate(481.540654 224.791947) scale(0.18 -0.18)">
       <defs>
        <path id="Arial-BoldMT-36" d="M 3247 3459 
L 2397 3366 
Q 2366 3628 2234 3753 
Q 2103 3878 1894 3878 
Q 1616 3878 1423 3628 
Q 1231 3378 1181 2588 
Q 1509 2975 1997 2975 
Q 2547 2975 2939 2556 
Q 3331 2138 3331 1475 
Q 3331 772 2918 347 
Q 2506 -78 1859 -78 
Q 1166 -78 719 461 
Q 272 1000 272 2228 
Q 272 3488 737 4044 
Q 1203 4600 1947 4600 
Q 2469 4600 2811 4308 
Q 3153 4016 3247 3459 
z
M 1256 1544 
Q 1256 1116 1453 883 
Q 1650 650 1903 650 
Q 2147 650 2309 840 
Q 2472 1031 2472 1466 
Q 2472 1913 2297 2120 
Q 2122 2328 1859 2328 
Q 1606 2328 1431 2129 
Q 1256 1931 1256 1544 
z
" transform="scale(0.015625)"/>
       </defs>
       <use xlink:href="#Arial-BoldMT-36"/>
      </g>
     </g>
    </g>
    <g id="xtick_8">
     <g id="line2d_8">
      <g>
       <use xlink:href="#mf4401784c6" x="379.090996" y="198.907885" style="stroke: #000000; stroke-width: 2"/>
      </g>
     </g>
     <g id="text_8">
      <!-- 7 -->
      <g transform="translate(374.086153 224.791947) scale(0.18 -0.18)">
       <defs>
        <path id="Arial-BoldMT-37" d="M 272 3703 
L 272 4519 
L 3275 4519 
L 3275 3881 
Q 2903 3516 2518 2831 
Q 2134 2147 1932 1376 
Q 1731 606 1734 0 
L 888 0 
Q 909 950 1279 1937 
Q 1650 2925 2269 3703 
L 272 3703 
z
" transform="scale(0.015625)"/>
       </defs>
       <use xlink:href="#Arial-BoldMT-37"/>
      </g>
     </g>
    </g>
    <g id="xtick_9">
     <g id="line2d_9">
      <g>
       <use xlink:href="#mf4401784c6" x="271.636495" y="198.907885" style="stroke: #000000; stroke-width: 2"/>
      </g>
     </g>
     <g id="text_9">
      <!-- 8 -->
      <g transform="translate(266.631651 224.791947) scale(0.18 -0.18)">
       <defs>
        <path id="Arial-BoldMT-38" d="M 1025 2472 
Q 684 2616 529 2867 
Q 375 3119 375 3419 
Q 375 3931 733 4265 
Q 1091 4600 1750 4600 
Q 2403 4600 2764 4265 
Q 3125 3931 3125 3419 
Q 3125 3100 2959 2851 
Q 2794 2603 2494 2472 
Q 2875 2319 3073 2025 
Q 3272 1731 3272 1347 
Q 3272 713 2867 316 
Q 2463 -81 1791 -81 
Q 1166 -81 750 247 
Q 259 634 259 1309 
Q 259 1681 443 1992 
Q 628 2303 1025 2472 
z
M 1206 3356 
Q 1206 3094 1354 2947 
Q 1503 2800 1750 2800 
Q 2000 2800 2150 2948 
Q 2300 3097 2300 3359 
Q 2300 3606 2151 3754 
Q 2003 3903 1759 3903 
Q 1506 3903 1356 3753 
Q 1206 3603 1206 3356 
z
M 1125 1394 
Q 1125 1031 1311 828 
Q 1497 625 1775 625 
Q 2047 625 2225 820 
Q 2403 1016 2403 1384 
Q 2403 1706 2222 1901 
Q 2041 2097 1763 2097 
Q 1441 2097 1283 1875 
Q 1125 1653 1125 1394 
z
" transform="scale(0.015625)"/>
       </defs>
       <use xlink:href="#Arial-BoldMT-38"/>
      </g>
     </g>
    </g>
    <g id="xtick_10">
     <g id="line2d_10">
      <g>
       <use xlink:href="#mf4401784c6" x="164.181993" y="198.907885" style="stroke: #000000; stroke-width: 2"/>
      </g>
     </g>
     <g id="text_10">
      <!-- 9 -->
      <g transform="translate(159.177149 224.791947) scale(0.18 -0.18)">
       <defs>
        <path id="Arial-BoldMT-39" d="M 291 1059 
L 1141 1153 
Q 1172 894 1303 769 
Q 1434 644 1650 644 
Q 1922 644 2112 894 
Q 2303 1144 2356 1931 
Q 2025 1547 1528 1547 
Q 988 1547 595 1964 
Q 203 2381 203 3050 
Q 203 3747 617 4173 
Q 1031 4600 1672 4600 
Q 2369 4600 2816 4061 
Q 3263 3522 3263 2288 
Q 3263 1031 2797 475 
Q 2331 -81 1584 -81 
Q 1047 -81 715 205 
Q 384 491 291 1059 
z
M 2278 2978 
Q 2278 3403 2083 3637 
Q 1888 3872 1631 3872 
Q 1388 3872 1227 3680 
Q 1066 3488 1066 3050 
Q 1066 2606 1241 2398 
Q 1416 2191 1678 2191 
Q 1931 2191 2104 2391 
Q 2278 2591 2278 2978 
z
" transform="scale(0.015625)"/>
       </defs>
       <use xlink:href="#Arial-BoldMT-39"/>
      </g>
     </g>
    </g>
    <g id="xtick_11">
     <g id="line2d_11">
      <g>
       <use xlink:href="#mf4401784c6" x="56.727491" y="198.907885" style="stroke: #000000; stroke-width: 2"/>
      </g>
     </g>
     <g id="text_11">
      <!-- 10 -->
      <g transform="translate(46.717803 224.791947) scale(0.18 -0.18)">
       <use xlink:href="#Arial-BoldMT-31"/>
       <use xlink:href="#Arial-BoldMT-30" x="55.615234"/>
      </g>
     </g>
    </g>
    <g id="text_12">
     <!-- Chemical Shift / ppm -->
     <g transform="translate(504.992813 245.447573) scale(0.18 -0.18)">
      <defs>
       <path id="Arial-BoldMT-43" d="M 3397 1684 
L 4294 1400 
Q 4088 650 3608 286 
Q 3128 -78 2391 -78 
Q 1478 -78 890 545 
Q 303 1169 303 2250 
Q 303 3394 893 4026 
Q 1484 4659 2447 4659 
Q 3288 4659 3813 4163 
Q 4125 3869 4281 3319 
L 3366 3100 
Q 3284 3456 3026 3662 
Q 2769 3869 2400 3869 
Q 1891 3869 1573 3503 
Q 1256 3138 1256 2319 
Q 1256 1450 1568 1081 
Q 1881 713 2381 713 
Q 2750 713 3015 947 
Q 3281 1181 3397 1684 
z
" transform="scale(0.015625)"/>
       <path id="Arial-BoldMT-68" d="M 1334 4581 
L 1334 2897 
Q 1759 3394 2350 3394 
Q 2653 3394 2897 3281 
Q 3141 3169 3264 2994 
Q 3388 2819 3433 2606 
Q 3478 2394 3478 1947 
L 3478 0 
L 2600 0 
L 2600 1753 
Q 2600 2275 2550 2415 
Q 2500 2556 2373 2639 
Q 2247 2722 2056 2722 
Q 1838 2722 1666 2615 
Q 1494 2509 1414 2295 
Q 1334 2081 1334 1663 
L 1334 0 
L 456 0 
L 456 4581 
L 1334 4581 
z
" transform="scale(0.015625)"/>
       <path id="Arial-BoldMT-65" d="M 2381 1056 
L 3256 909 
Q 3088 428 2723 176 
Q 2359 -75 1813 -75 
Q 947 -75 531 491 
Q 203 944 203 1634 
Q 203 2459 634 2926 
Q 1066 3394 1725 3394 
Q 2466 3394 2894 2905 
Q 3322 2416 3303 1406 
L 1103 1406 
Q 1113 1016 1316 798 
Q 1519 581 1822 581 
Q 2028 581 2168 693 
Q 2309 806 2381 1056 
z
M 2431 1944 
Q 2422 2325 2234 2523 
Q 2047 2722 1778 2722 
Q 1491 2722 1303 2513 
Q 1116 2303 1119 1944 
L 2431 1944 
z
" transform="scale(0.015625)"/>
       <path id="Arial-BoldMT-6d" d="M 394 3319 
L 1203 3319 
L 1203 2866 
Q 1638 3394 2238 3394 
Q 2556 3394 2790 3262 
Q 3025 3131 3175 2866 
Q 3394 3131 3647 3262 
Q 3900 3394 4188 3394 
Q 4553 3394 4806 3245 
Q 5059 3097 5184 2809 
Q 5275 2597 5275 2122 
L 5275 0 
L 4397 0 
L 4397 1897 
Q 4397 2391 4306 2534 
Q 4184 2722 3931 2722 
Q 3747 2722 3584 2609 
Q 3422 2497 3350 2280 
Q 3278 2063 3278 1594 
L 3278 0 
L 2400 0 
L 2400 1819 
Q 2400 2303 2353 2443 
Q 2306 2584 2207 2653 
Q 2109 2722 1941 2722 
Q 1738 2722 1575 2612 
Q 1413 2503 1342 2297 
Q 1272 2091 1272 1613 
L 1272 0 
L 394 0 
L 394 3319 
z
" transform="scale(0.015625)"/>
       <path id="Arial-BoldMT-69" d="M 459 3769 
L 459 4581 
L 1338 4581 
L 1338 3769 
L 459 3769 
z
M 459 0 
L 459 3319 
L 1338 3319 
L 1338 0 
L 459 0 
z
" transform="scale(0.015625)"/>
       <path id="Arial-BoldMT-63" d="M 3353 2338 
L 2488 2181 
Q 2444 2441 2289 2572 
Q 2134 2703 1888 2703 
Q 1559 2703 1364 2476 
Q 1169 2250 1169 1719 
Q 1169 1128 1367 884 
Q 1566 641 1900 641 
Q 2150 641 2309 783 
Q 2469 925 2534 1272 
L 3397 1125 
Q 3263 531 2881 228 
Q 2500 -75 1859 -75 
Q 1131 -75 698 384 
Q 266 844 266 1656 
Q 266 2478 700 2936 
Q 1134 3394 1875 3394 
Q 2481 3394 2839 3133 
Q 3197 2872 3353 2338 
z
" transform="scale(0.015625)"/>
       <path id="Arial-BoldMT-61" d="M 1116 2306 
L 319 2450 
Q 453 2931 781 3162 
Q 1109 3394 1756 3394 
Q 2344 3394 2631 3255 
Q 2919 3116 3036 2902 
Q 3153 2688 3153 2116 
L 3144 1091 
Q 3144 653 3186 445 
Q 3228 238 3344 0 
L 2475 0 
Q 2441 88 2391 259 
Q 2369 338 2359 363 
Q 2134 144 1878 34 
Q 1622 -75 1331 -75 
Q 819 -75 523 203 
Q 228 481 228 906 
Q 228 1188 362 1408 
Q 497 1628 739 1745 
Q 981 1863 1438 1950 
Q 2053 2066 2291 2166 
L 2291 2253 
Q 2291 2506 2166 2614 
Q 2041 2722 1694 2722 
Q 1459 2722 1328 2630 
Q 1197 2538 1116 2306 
z
M 2291 1594 
Q 2122 1538 1756 1459 
Q 1391 1381 1278 1306 
Q 1106 1184 1106 997 
Q 1106 813 1243 678 
Q 1381 544 1594 544 
Q 1831 544 2047 700 
Q 2206 819 2256 991 
Q 2291 1103 2291 1419 
L 2291 1594 
z
" transform="scale(0.015625)"/>
       <path id="Arial-BoldMT-6c" d="M 459 0 
L 459 4581 
L 1338 4581 
L 1338 0 
L 459 0 
z
" transform="scale(0.015625)"/>
       <path id="Arial-BoldMT-20" transform="scale(0.015625)"/>
       <path id="Arial-BoldMT-53" d="M 231 1491 
L 1131 1578 
Q 1213 1125 1461 912 
Q 1709 700 2131 700 
Q 2578 700 2804 889 
Q 3031 1078 3031 1331 
Q 3031 1494 2936 1608 
Q 2841 1722 2603 1806 
Q 2441 1863 1863 2006 
Q 1119 2191 819 2459 
Q 397 2838 397 3381 
Q 397 3731 595 4036 
Q 794 4341 1167 4500 
Q 1541 4659 2069 4659 
Q 2931 4659 3367 4281 
Q 3803 3903 3825 3272 
L 2900 3231 
Q 2841 3584 2645 3739 
Q 2450 3894 2059 3894 
Q 1656 3894 1428 3728 
Q 1281 3622 1281 3444 
Q 1281 3281 1419 3166 
Q 1594 3019 2269 2859 
Q 2944 2700 3267 2529 
Q 3591 2359 3773 2064 
Q 3956 1769 3956 1334 
Q 3956 941 3737 597 
Q 3519 253 3119 86 
Q 2719 -81 2122 -81 
Q 1253 -81 787 320 
Q 322 722 231 1491 
z
" transform="scale(0.015625)"/>
       <path id="Arial-BoldMT-66" d="M 75 3319 
L 563 3319 
L 563 3569 
Q 563 3988 652 4194 
Q 741 4400 980 4529 
Q 1219 4659 1584 4659 
Q 1959 4659 2319 4547 
L 2200 3934 
Q 1991 3984 1797 3984 
Q 1606 3984 1523 3895 
Q 1441 3806 1441 3553 
L 1441 3319 
L 2097 3319 
L 2097 2628 
L 1441 2628 
L 1441 0 
L 563 0 
L 563 2628 
L 75 2628 
L 75 3319 
z
" transform="scale(0.015625)"/>
       <path id="Arial-BoldMT-74" d="M 1981 3319 
L 1981 2619 
L 1381 2619 
L 1381 1281 
Q 1381 875 1398 808 
Q 1416 741 1477 697 
Q 1538 653 1625 653 
Q 1747 653 1978 738 
L 2053 56 
Q 1747 -75 1359 -75 
Q 1122 -75 931 4 
Q 741 84 652 211 
Q 563 338 528 553 
Q 500 706 500 1172 
L 500 2619 
L 97 2619 
L 97 3319 
L 500 3319 
L 500 3978 
L 1381 4491 
L 1381 3319 
L 1981 3319 
z
" transform="scale(0.015625)"/>
       <path id="Arial-BoldMT-2f" d="M -9 -78 
L 1125 4659 
L 1784 4659 
L 638 -78 
L -9 -78 
z
" transform="scale(0.015625)"/>
       <path id="Arial-BoldMT-70" d="M 434 3319 
L 1253 3319 
L 1253 2831 
Q 1413 3081 1684 3237 
Q 1956 3394 2288 3394 
Q 2866 3394 3269 2941 
Q 3672 2488 3672 1678 
Q 3672 847 3265 386 
Q 2859 -75 2281 -75 
Q 2006 -75 1782 34 
Q 1559 144 1313 409 
L 1313 -1263 
L 434 -1263 
L 434 3319 
z
M 1303 1716 
Q 1303 1156 1525 889 
Q 1747 622 2066 622 
Q 2372 622 2575 867 
Q 2778 1113 2778 1672 
Q 2778 2194 2568 2447 
Q 2359 2700 2050 2700 
Q 1728 2700 1515 2451 
Q 1303 2203 1303 1716 
z
" transform="scale(0.015625)"/>
      </defs>
      <use xlink:href="#Arial-BoldMT-43"/>
      <use xlink:href="#Arial-BoldMT-68" x="72.216797"/>
      <use xlink:href="#Arial-BoldMT-65" x="133.300781"/>
      <use xlink:href="#Arial-BoldMT-6d" x="188.916016"/>
      <use xlink:href="#Arial-BoldMT-69" x="277.832031"/>
      <use xlink:href="#Arial-BoldMT-63" x="305.615234"/>
      <use xlink:href="#Arial-BoldMT-61" x="361.230469"/>
      <use xlink:href="#Arial-BoldMT-6c" x="416.845703"/>
      <use xlink:href="#Arial-BoldMT-20" x="444.628906"/>
      <use xlink:href="#Arial-BoldMT-53" x="472.412109"/>
      <use xlink:href="#Arial-BoldMT-68" x="539.111328"/>
      <use xlink:href="#Arial-BoldMT-69" x="600.195312"/>
      <use xlink:href="#Arial-BoldMT-66" x="627.978516"/>
      <use xlink:href="#Arial-BoldMT-74" x="661.279297"/>
      <use xlink:href="#Arial-BoldMT-20" x="694.580078"/>
      <use xlink:href="#Arial-BoldMT-2f" x="722.363281"/>
      <use xlink:href="#Arial-BoldMT-20" x="750.146484"/>
      <use xlink:href="#Arial-BoldMT-70" x="777.929688"/>
      <use xlink:href="#Arial-BoldMT-70" x="839.013672"/>
      <use xlink:href="#Arial-BoldMT-6d" x="900.097656"/>
     </g>
    </g>
   </g>
   <g id="matplotlib.axis_2"/>
   <g id="line2d_12">
    <path d="M 3.000167 190.495059 
L 3.409406 190.401475 
L 3.818646 189.910895 
L 4.227885 189.339942 
L 4.637124 189.169507 
L 5.660223 189.052498 
L 6.274082 189.67406 
L 6.478702 189.737877 
L 6.683322 189.654392 
L 7.092561 188.952221 
L 7.501801 188.419899 
L 8.524899 188.271539 
L 8.729519 188.464283 
L 9.343378 189.519242 
L 9.547998 189.520474 
L 10.571097 188.538786 
L 10.775716 188.678633 
L 11.594195 189.911189 
L 12.003435 190.024558 
L 12.208054 189.923342 
L 12.821914 189.10475 
L 13.026533 189.114261 
L 13.435773 189.819132 
L 14.049632 191.122081 
L 14.254252 191.361558 
L 14.458871 191.200341 
L 15.27735 189.241955 
L 15.891209 189.160231 
L 16.505069 188.681745 
L 16.709688 188.825114 
L 17.118928 189.86563 
L 17.528167 190.982645 
L 17.732787 191.102824 
L 17.937407 190.769528 
L 18.346646 188.848657 
L 18.960505 185.846468 
L 19.369745 185.071614 
L 19.574365 185.1915 
L 19.983604 186.281567 
L 20.597463 187.871666 
L 21.620562 188.98416 
L 22.029801 188.962143 
L 22.64366 188.844841 
L 22.84828 188.907602 
L 23.25752 189.43875 
L 23.666759 190.054324 
L 24.075998 190.328088 
L 24.280618 190.285817 
L 24.485238 190.074578 
L 24.894477 189.19258 
L 25.303717 188.393597 
L 25.508337 188.466045 
L 26.122196 189.493057 
L 27.554534 190.135519 
L 28.373013 190.765066 
L 28.782252 190.318166 
L 29.600731 189.214713 
L 30.21459 188.01662 
L 30.41921 188.04985 
L 31.033069 188.795877 
L 31.646928 188.497865 
L 31.851548 188.848598 
L 32.670027 191.537864 
L 33.079266 191.137873 
L 33.488506 190.838747 
L 33.897745 190.783148 
L 34.716224 190.892818 
L 35.125464 190.194112 
L 35.534703 189.63854 
L 35.739323 189.828349 
L 36.148562 190.448208 
L 36.353182 190.411397 
L 36.967041 189.391137 
L 37.5809 188.27876 
L 38.19476 186.948335 
L 38.399379 186.9299 
L 38.808619 187.606297 
L 39.217858 188.191282 
L 39.627098 188.747324 
L 40.036337 189.607013 
L 40.240957 189.823946 
L 40.445577 189.819308 
L 40.854816 189.463585 
L 41.264056 188.798108 
L 41.877915 187.710977 
L 42.287154 187.642756 
L 43.310253 187.591443 
L 43.514873 187.648216 
L 43.719492 187.542362 
L 44.128732 186.89532 
L 44.537971 186.165321 
L 44.947211 185.950267 
L 45.56107 186.023126 
L 46.584168 186.801325 
L 47.198028 186.535546 
L 47.607267 186.156339 
L 48.425746 184.6536 
L 48.630366 184.490328 
L 48.834985 184.536004 
L 49.244225 184.87112 
L 49.448845 184.853214 
L 49.858084 184.253844 
L 50.267324 183.644025 
L 50.471943 183.705963 
L 51.290422 184.91844 
L 51.495042 184.948676 
L 51.699662 184.722995 
L 52.518141 183.05082 
L 53.132 182.737779 
L 53.950479 181.923179 
L 54.973577 180.47915 
L 55.996676 176.578406 
L 56.405915 175.881284 
L 56.815155 175.347259 
L 57.224394 174.091102 
L 57.633634 171.549139 
L 58.247493 165.510357 
L 58.861352 157.622036 
L 59.475211 145.415485 
L 60.08907 127.378923 
L 60.70293 102.035679 
L 61.316789 75.838383 
L 61.521408 70.966636 
L 61.726028 69.078643 
L 61.930648 70.092386 
L 62.135268 73.839428 
L 62.544507 88.674422 
L 63.772225 144.990895 
L 64.386085 160.517315 
L 64.999944 169.493001 
L 65.818423 176.718253 
L 66.227662 179.206026 
L 66.636902 180.48778 
L 67.046141 181.040417 
L 67.455381 181.418919 
L 67.66 181.870281 
L 68.06924 183.614141 
L 68.887719 187.867439 
L 69.296958 188.839909 
L 69.501578 189.145553 
L 69.706198 189.244597 
L 69.910817 188.924921 
L 70.320057 186.957259 
L 70.729296 185.097036 
L 70.933916 184.915564 
L 71.138536 185.272696 
L 71.752395 187.211414 
L 71.957015 187.46463 
L 72.161634 187.505551 
L 72.980113 187.039453 
L 73.389353 186.562963 
L 74.003212 185.6657 
L 74.412451 185.086351 
L 74.821691 183.993466 
L 75.844789 180.636316 
L 76.049409 180.23433 
L 76.254029 180.148613 
L 76.458649 180.469815 
L 77.481747 184.187972 
L 78.300226 187.254448 
L 78.709466 187.402632 
L 78.914085 187.489229 
L 79.527944 188.079323 
L 79.732564 187.978283 
L 80.346423 187.381438 
L 80.960283 187.436097 
L 81.164902 187.347915 
L 81.369522 187.385137 
L 81.574142 187.663891 
L 81.983381 188.931321 
L 83.415719 193.85896 
L 83.620339 194.016713 
L 83.824959 193.936163 
L 84.438818 193.287067 
L 84.643438 193.236107 
L 85.257297 193.406659 
L 85.666536 192.884845 
L 86.485015 191.18537 
L 87.098874 189.740754 
L 87.508114 189.266672 
L 88.121973 188.873198 
L 88.326593 188.899735 
L 88.940452 189.332544 
L 89.554311 188.986919 
L 89.963551 189.709168 
L 90.37279 190.540559 
L 90.57741 190.719213 
L 90.782029 190.581245 
L 91.191269 189.230917 
L 91.600508 187.841313 
L 91.805128 187.630427 
L 92.009748 187.696828 
L 92.623607 188.540137 
L 93.851325 190.21102 
L 94.260565 190.503454 
L 94.874424 191.2122 
L 95.079044 191.013761 
L 95.897523 189.046451 
L 96.511382 187.906363 
L 96.716002 187.728296 
L 96.920621 187.798337 
L 97.125241 188.186644 
L 97.94372 190.539972 
L 98.14834 190.362609 
L 98.557579 189.64899 
L 98.762199 189.543782 
L 99.376058 189.745686 
L 99.580678 189.834044 
L 99.785297 189.796939 
L 100.603776 189.066001 
L 100.808396 189.192873 
L 101.013016 189.536033 
L 101.422255 190.935911 
L 101.831495 192.448983 
L 102.036114 192.897527 
L 102.240734 193.010191 
L 102.445354 192.711651 
L 103.263833 190.199748 
L 104.082312 189.716155 
L 104.491551 188.390955 
L 104.900791 187.003464 
L 105.31003 186.537601 
L 105.719269 186.207357 
L 105.923889 186.232779 
L 106.333129 186.849174 
L 106.946988 188.240305 
L 107.151608 188.414674 
L 107.560847 188.243358 
L 108.379326 187.800568 
L 108.583946 187.863564 
L 108.788565 188.177838 
L 109.811664 190.643654 
L 110.220903 191.374416 
L 110.425523 191.412577 
L 111.039382 190.897985 
L 112.062481 190.811975 
L 112.67634 190.61741 
L 113.08558 190.124893 
L 113.699439 189.405403 
L 114.517918 188.917289 
L 114.927157 188.023607 
L 115.541016 186.575292 
L 115.950256 186.102619 
L 116.154876 186.219863 
L 116.973354 187.532264 
L 117.177974 187.567196 
L 117.382594 187.397407 
L 117.996453 186.51441 
L 118.201073 186.677741 
L 118.610312 188.201322 
L 119.019552 189.900738 
L 119.224171 190.259926 
L 119.428791 190.23468 
L 119.633411 189.835805 
L 120.24727 187.568957 
L 120.45189 187.346799 
L 120.65651 187.56109 
L 121.474988 189.546072 
L 121.884228 189.760539 
L 123.316566 190.160647 
L 123.930425 189.43693 
L 124.339665 189.07927 
L 124.953524 188.883766 
L 125.567383 188.428823 
L 125.976622 188.361835 
L 126.385862 187.943585 
L 126.795101 187.427232 
L 126.999721 187.359833 
L 127.204341 187.451068 
L 127.61358 188.135919 
L 128.636679 190.490127 
L 129.455158 193.046004 
L 129.659778 192.947782 
L 130.069017 192.295574 
L 130.273637 192.208977 
L 130.478256 192.369548 
L 131.296735 193.908922 
L 131.501355 193.83982 
L 132.115214 193.290355 
L 132.524454 193.199472 
L 132.933693 193.206341 
L 133.342933 192.60885 
L 133.752172 191.820611 
L 133.956792 191.738358 
L 134.161412 191.957875 
L 134.97989 193.430319 
L 135.59375 193.945263 
L 135.798369 193.94497 
L 136.207609 193.425622 
L 137.026088 191.751744 
L 138.253806 189.405227 
L 138.663045 189.484838 
L 139.481524 190.087788 
L 139.686144 189.94072 
L 139.890764 189.559693 
L 140.504623 187.325429 
L 141.732341 183.220844 
L 141.936961 183.174521 
L 142.141581 183.380358 
L 142.55082 184.619255 
L 143.164679 186.681322 
L 143.369299 186.937298 
L 143.983158 187.115423 
L 144.392398 187.757592 
L 144.801637 188.381502 
L 145.006257 188.447023 
L 146.438595 187.84554 
L 146.643215 187.910884 
L 146.847835 188.273007 
L 147.461694 190.033951 
L 147.666313 190.267793 
L 147.870933 190.096653 
L 148.689412 188.34657 
L 148.894032 188.413793 
L 149.712511 189.530807 
L 150.53099 189.365539 
L 150.940229 189.384796 
L 151.554088 188.853119 
L 152.372567 188.974003 
L 153.191046 188.632311 
L 153.395666 188.59503 
L 153.600286 188.760416 
L 154.009525 189.916003 
L 154.418764 190.985991 
L 154.623384 191.010708 
L 155.032624 190.396309 
L 155.851103 189.056549 
L 156.260342 188.92363 
L 156.464962 188.905077 
L 157.283441 188.386317 
L 158.511159 189.141972 
L 158.920398 189.141737 
L 159.125018 189.357378 
L 159.738877 190.569092 
L 159.943497 190.490186 
L 160.352737 189.718444 
L 160.966596 188.628025 
L 161.171215 188.673702 
L 161.375835 189.076334 
L 162.194314 191.667789 
L 162.398934 191.529586 
L 163.217413 189.568029 
L 163.422032 189.701242 
L 163.831272 190.508034 
L 164.035892 190.631148 
L 164.649751 189.877196 
L 164.854371 190.112212 
L 165.46823 191.324395 
L 165.672849 191.316645 
L 166.286709 190.995385 
L 166.695948 191.196349 
L 167.105188 191.475279 
L 167.719047 191.209617 
L 168.332906 191.523715 
L 169.560624 190.060371 
L 169.969864 188.624327 
L 170.788343 185.324654 
L 171.197582 184.389171 
L 171.606822 183.904227 
L 171.811441 183.86495 
L 172.016061 184.075542 
L 172.4253 185.387004 
L 173.03916 188.783548 
L 173.653019 191.973081 
L 174.676117 195.571234 
L 174.880737 195.778304 
L 175.085357 195.706502 
L 176.722315 193.916613 
L 176.926934 193.882737 
L 177.745413 194.447409 
L 177.950033 194.271162 
L 178.359272 193.475878 
L 178.768512 192.531588 
L 178.973132 192.326749 
L 179.586991 192.426145 
L 179.791611 191.984177 
L 180.814709 188.67376 
L 181.019329 188.631548 
L 181.633188 189.120836 
L 182.042428 189.919584 
L 182.656287 191.326743 
L 182.860906 191.464477 
L 183.474766 191.439818 
L 183.884005 191.629745 
L 185.111723 191.206329 
L 185.520963 190.54144 
L 185.930202 189.834631 
L 186.134822 189.875082 
L 186.339442 190.359204 
L 187.36254 193.895066 
L 187.56716 193.956536 
L 187.77178 193.52584 
L 188.181019 191.571564 
L 188.794879 188.411033 
L 190.022597 183.904109 
L 190.431836 183.500244 
L 190.636456 183.353117 
L 191.045696 182.458613 
L 191.454935 181.428959 
L 192.273414 180.110217 
L 192.478034 180.214955 
L 192.887273 181.09625 
L 193.501132 183.27744 
L 194.319611 186.596487 
L 194.728851 187.062115 
L 195.13809 187.112018 
L 195.34271 187.116304 
L 195.751949 187.521109 
L 195.956569 187.709215 
L 196.161189 187.643695 
L 196.979668 186.722067 
L 197.184287 186.758526 
L 197.593527 187.216874 
L 199.230485 190.666785 
L 199.844344 191.396491 
L 200.253583 191.622935 
L 200.662823 191.270499 
L 201.072062 190.924757 
L 201.481302 191.19494 
L 201.685921 191.316704 
L 201.890541 191.158305 
L 202.299781 189.948704 
L 202.70902 188.443207 
L 203.118259 187.829512 
L 204.141358 187.319206 
L 204.345978 187.461107 
L 204.550598 187.94699 
L 205.369076 190.884012 
L 205.573696 191.284531 
L 205.778316 191.419153 
L 206.187555 191.051981 
L 206.596795 190.788726 
L 206.801415 190.947008 
L 207.210654 191.879967 
L 207.824513 194.369384 
L 208.233753 195.590374 
L 208.438372 195.599943 
L 208.642992 195.162848 
L 209.052232 193.233699 
L 209.461471 191.147091 
L 209.666091 190.580775 
L 209.87071 190.481086 
L 211.303049 192.209036 
L 212.121527 194.358111 
L 212.530767 194.576336 
L 212.735387 194.486745 
L 212.940006 194.208343 
L 213.553866 192.923946 
L 213.758485 192.913965 
L 214.372344 193.484215 
L 214.576964 193.265579 
L 214.986204 192.153437 
L 215.600063 190.289339 
L 216.009302 189.695019 
L 216.623161 189.261446 
L 217.032401 189.035531 
L 217.237021 189.172149 
L 217.44164 189.714922 
L 218.260119 193.135595 
L 218.464739 193.17769 
L 218.669359 192.779226 
L 219.692457 189.533567 
L 220.101697 189.064005 
L 220.510936 188.141203 
L 220.920176 187.137851 
L 221.329415 186.725766 
L 221.738655 186.674923 
L 222.147894 186.902424 
L 222.352514 186.894968 
L 222.761753 186.538364 
L 223.170993 185.834197 
L 223.784852 184.166073 
L 224.194091 183.057571 
L 224.603331 182.128487 
L 225.21719 179.396363 
L 225.626429 176.688898 
L 226.649528 167.388134 
L 227.468007 157.488706 
L 228.081866 150.093372 
L 228.491106 147.062473 
L 228.900345 145.452413 
L 229.104965 145.294366 
L 229.309584 145.69876 
L 229.514204 146.772564 
L 229.923444 150.981066 
L 230.741923 160.982062 
L 231.355782 165.968881 
L 231.969641 170.108457 
L 232.5835 174.739142 
L 233.197359 177.366058 
L 233.606599 178.816544 
L 234.629697 183.386875 
L 235.243557 184.910045 
L 235.652796 185.581745 
L 236.266655 186.309102 
L 236.880514 187.145307 
L 237.085134 187.395176 
L 237.494374 188.547828 
L 238.108233 190.497877 
L 238.722092 191.558178 
L 238.926712 191.715344 
L 239.131331 191.527942 
L 239.745191 189.89792 
L 239.94981 189.758719 
L 240.15443 189.921639 
L 240.35905 190.390555 
L 240.768289 192.318236 
L 241.177529 194.497019 
L 241.382148 194.976679 
L 241.586768 194.960592 
L 241.996008 193.940567 
L 242.609867 191.256702 
L 243.837585 184.993765 
L 244.042205 184.539527 
L 244.246825 184.48886 
L 245.269923 186.008213 
L 245.679163 187.013855 
L 246.293022 188.87854 
L 246.497642 189.013104 
L 246.702261 188.762882 
L 247.31612 187.512596 
L 248.134599 186.911994 
L 248.543839 186.253445 
L 248.748459 186.135086 
L 249.157698 186.236125 
L 249.566937 186.540477 
L 249.976177 187.116069 
L 250.590036 188.382677 
L 250.794656 188.381209 
L 251.203895 187.861215 
L 252.022374 186.713202 
L 252.636233 186.060348 
L 253.045473 184.547159 
L 253.659332 181.951536 
L 254.068571 181.241674 
L 254.273191 181.202808 
L 254.88705 181.487727 
L 255.500909 180.946481 
L 255.910149 180.182371 
L 256.319388 179.395483 
L 256.728628 178.931498 
L 256.933248 178.415614 
L 257.342487 176.284269 
L 258.365586 168.950287 
L 258.774825 164.122748 
L 259.388684 152.325875 
L 260.002543 139.874151 
L 260.207163 137.637421 
L 260.411783 137.05132 
L 260.616403 138.106748 
L 261.025642 143.70503 
L 261.844121 157.671411 
L 262.25336 161.673136 
L 262.6626 163.762622 
L 262.86722 164.3816 
L 263.071839 164.611508 
L 263.276459 164.381541 
L 263.685699 162.994109 
L 264.504177 159.401122 
L 264.913417 158.803573 
L 265.118037 158.856294 
L 265.322656 159.180608 
L 265.936516 161.279839 
L 266.550375 163.017534 
L 269.005811 168.424775 
L 269.415051 168.646816 
L 269.82429 169.245891 
L 270.02891 169.587055 
L 270.23353 169.673769 
L 271.256628 168.638068 
L 271.665868 166.817944 
L 272.484347 161.127252 
L 273.302826 152.93816 
L 274.121305 142.391044 
L 275.553643 122.226131 
L 275.962882 118.960393 
L 276.372122 117.437106 
L 276.576741 117.332544 
L 276.781361 117.747799 
L 276.985981 118.827122 
L 277.39522 123.310268 
L 279.032178 149.202567 
L 279.441418 152.506995 
L 279.850657 154.141009 
L 280.055277 154.2397 
L 280.259896 153.891022 
L 281.282995 150.544323 
L 282.101474 149.413511 
L 282.510713 148.157765 
L 282.919953 145.531671 
L 283.329192 140.672253 
L 284.147671 127.784139 
L 284.76153 114.151524 
L 286.603108 67.012172 
L 286.807728 64.891276 
L 287.012347 64.119711 
L 287.216967 64.759297 
L 287.421587 66.687036 
L 287.830826 73.766158 
L 289.672404 115.199965 
L 290.081643 118.166048 
L 290.286263 118.827885 
L 290.490883 119.041824 
L 291.309362 118.804577 
L 291.513981 118.528934 
L 291.923221 117.132402 
L 292.7417 112.438193 
L 293.150939 108.846263 
L 293.560179 103.853631 
L 293.969418 96.462231 
L 294.378658 85.114136 
L 294.992517 59.133831 
L 296.015615 10.94275 
L 296.424855 3.00024 
L 296.629475 3.213122 
L 296.834094 5.91002 
L 297.447953 21.886862 
L 298.061813 34.974532 
L 298.880292 48.043473 
L 299.494151 63.542064 
L 300.31263 85.428704 
L 300.721869 91.248851 
L 301.131109 94.271413 
L 301.744968 96.705584 
L 302.358827 98.267443 
L 302.768066 100.393563 
L 303.177306 104.131036 
L 303.791165 110.485325 
L 304.200404 112.216328 
L 304.405024 112.40508 
L 304.814264 112.254313 
L 305.018883 112.168714 
L 305.223503 112.227894 
L 305.428123 112.55074 
L 305.837362 114.221389 
L 306.451221 118.749624 
L 307.88356 130.654113 
L 308.088179 131.302858 
L 308.292799 131.46431 
L 308.702038 131.095964 
L 309.111278 130.425203 
L 309.725137 128.757255 
L 310.134377 126.66548 
L 311.362095 118.319398 
L 311.566715 118.286873 
L 311.771334 118.805869 
L 312.180574 121.031561 
L 312.999053 127.576951 
L 314.636011 144.066272 
L 315.04525 145.794574 
L 315.659109 147.058011 
L 316.068349 147.907133 
L 316.272968 148.099114 
L 316.477588 148.019621 
L 317.091447 147.183768 
L 317.296067 146.791821 
L 317.705306 145.194911 
L 318.523785 139.69262 
L 319.137645 134.27305 
L 319.546884 129.350049 
L 320.365363 115.66483 
L 322.41156 78.734131 
L 322.8208 75.844724 
L 323.025419 75.733468 
L 323.230039 76.565564 
L 323.639279 81.132548 
L 324.457757 93.489162 
L 324.866997 95.739454 
L 325.071617 95.997542 
L 325.890096 96.091243 
L 326.094715 96.411976 
L 326.299335 97.288162 
L 326.708574 101.331983 
L 327.527053 111.9118 
L 327.936293 114.05066 
L 328.140913 114.322194 
L 328.345532 114.035924 
L 328.754772 112.210986 
L 329.573251 107.195458 
L 329.98249 103.07913 
L 330.596349 93.780715 
L 331.414828 81.459797 
L 332.028687 75.684504 
L 332.437927 72.997117 
L 332.847166 71.683072 
L 333.461025 71.15938 
L 333.665645 71.08159 
L 333.870265 71.170711 
L 334.074885 71.480993 
L 334.484124 72.92056 
L 334.893363 75.925743 
L 335.302603 81.100082 
L 336.121082 96.463288 
L 336.939561 110.94385 
L 337.3488 116.020201 
L 337.962659 120.207509 
L 339.190378 128.145263 
L 339.394997 128.497757 
L 339.599617 128.473452 
L 340.008857 127.869914 
L 340.622716 126.628845 
L 341.236575 126.14578 
L 341.441195 125.68162 
L 341.850434 123.878697 
L 343.896631 112.478292 
L 344.101251 112.407781 
L 344.305871 112.697808 
L 344.510491 113.36534 
L 344.91973 115.82323 
L 347.579787 135.096809 
L 348.398265 139.456606 
L 349.830604 146.559799 
L 350.444463 148.043751 
L 350.649082 148.350686 
L 350.853702 148.405873 
L 351.058322 148.108332 
L 351.467561 146.353727 
L 352.49066 140.462483 
L 352.69528 140.142396 
L 352.899899 140.373361 
L 353.309139 142.238809 
L 354.127618 146.810549 
L 354.741477 149.006006 
L 355.764576 151.583194 
L 356.378435 153.839474 
L 357.196914 157.919754 
L 358.015393 162.064497 
L 358.833872 165.146649 
L 359.447731 165.962893 
L 359.85697 166.304114 
L 360.06159 166.009449 
L 360.470829 164.35659 
L 361.084689 161.835058 
L 361.289308 161.456673 
L 361.493928 161.36033 
L 361.698548 161.484678 
L 362.107787 162.147865 
L 362.517027 162.846571 
L 362.721646 162.92125 
L 362.926266 162.688289 
L 363.335506 161.441761 
L 364.358604 157.044918 
L 364.563224 157.188405 
L 364.972463 157.827931 
L 365.586323 158.037996 
L 365.790942 158.656269 
L 367.018661 164.405025 
L 367.22328 164.801317 
L 367.4279 164.924902 
L 367.63252 164.676676 
L 368.450999 162.302565 
L 368.655618 162.387107 
L 369.064858 163.453279 
L 369.474097 164.545459 
L 370.701816 166.680328 
L 371.315675 168.230445 
L 371.520295 168.462995 
L 371.724914 168.396418 
L 372.338773 167.478723 
L 372.543393 167.448018 
L 372.748013 167.635538 
L 373.157252 168.563154 
L 374.180351 171.94731 
L 374.384971 172.250605 
L 374.58959 172.152442 
L 374.99883 170.855658 
L 375.612689 168.821536 
L 377.454267 164.573523 
L 377.658886 164.355005 
L 377.863506 164.442424 
L 378.272746 165.292191 
L 378.886605 166.614866 
L 379.091224 166.696649 
L 379.295844 166.512358 
L 379.705084 165.58486 
L 382.16052 156.673577 
L 382.978999 152.433549 
L 383.388239 151.285711 
L 383.797478 150.769827 
L 385.025197 150.040181 
L 385.434436 149.6352 
L 385.639056 149.719449 
L 385.843675 150.132179 
L 386.252915 151.724392 
L 387.685253 159.024909 
L 387.889873 158.871676 
L 388.708352 156.367229 
L 388.912971 156.328774 
L 389.322211 156.773854 
L 389.93607 157.609061 
L 390.549929 157.924216 
L 390.959169 158.312934 
L 391.163788 158.300957 
L 391.573028 157.791649 
L 392.186887 157.032412 
L 393.209986 156.72489 
L 393.414605 156.705105 
L 393.619225 156.846537 
L 394.028465 157.96496 
L 394.642324 159.889236 
L 395.051563 160.548783 
L 395.460803 160.815209 
L 395.870042 161.506694 
L 396.483901 162.658699 
L 396.893141 163.584907 
L 397.30238 164.841475 
L 397.507 165.050952 
L 398.120859 165.045668 
L 398.530099 165.792282 
L 399.757817 168.667305 
L 400.167056 169.053558 
L 400.371676 168.893104 
L 400.985535 167.493342 
L 401.394775 166.598134 
L 401.804014 166.276814 
L 402.213254 166.104501 
L 402.827113 165.514819 
L 403.031733 165.674333 
L 403.440972 166.541479 
L 404.054831 168.013747 
L 404.259451 168.13645 
L 404.66869 167.81519 
L 405.487169 167.121239 
L 406.305648 167.020493 
L 407.124127 165.808662 
L 407.328747 166.017669 
L 407.737986 167.169029 
L 408.351845 168.895393 
L 408.761085 169.392784 
L 408.965705 169.206321 
L 409.784183 167.607709 
L 409.988803 167.658434 
L 410.398043 168.150482 
L 410.807282 169.389613 
L 411.216522 170.610251 
L 411.421141 170.678765 
L 411.625761 170.309715 
L 412.23962 167.689257 
L 412.64886 166.190159 
L 413.058099 165.531081 
L 413.262719 165.521453 
L 413.467339 165.742907 
L 413.876578 166.82675 
L 414.490437 168.657149 
L 415.104296 170.128536 
L 415.513536 171.203456 
L 415.718156 171.230169 
L 416.127395 170.130884 
L 416.536634 169.054791 
L 417.355113 168.092888 
L 418.787451 164.428333 
L 419.401311 162.179744 
L 419.81055 161.561529 
L 420.01517 161.605444 
L 420.833649 162.54627 
L 421.242888 162.549205 
L 421.652128 162.743829 
L 422.675226 163.921667 
L 422.879846 164.01572 
L 423.084466 163.982842 
L 423.493705 163.405372 
L 423.902945 162.413703 
L 424.721424 159.694965 
L 424.926043 159.39983 
L 425.130663 159.353273 
L 425.539902 159.736825 
L 426.153762 160.635439 
L 426.563001 160.872392 
L 426.767621 161.194475 
L 427.5861 163.736672 
L 427.790719 163.797554 
L 427.995339 163.475589 
L 428.813818 161.349058 
L 429.018438 161.333265 
L 429.223058 161.592352 
L 430.041536 163.230005 
L 430.246156 163.120159 
L 430.655396 162.638268 
L 430.860015 162.697213 
L 431.269255 163.233058 
L 431.473875 163.290066 
L 432.087734 162.781579 
L 432.292353 162.856082 
L 433.110832 164.075545 
L 433.315452 164.386003 
L 433.724692 165.647973 
L 434.133931 166.860391 
L 434.338551 167.152062 
L 434.54317 167.178657 
L 434.74779 166.864383 
L 435.15703 165.409845 
L 435.566269 164.056641 
L 435.770889 163.950728 
L 435.975509 164.211987 
L 436.589368 165.811304 
L 436.998607 166.746435 
L 437.203227 166.935128 
L 437.407847 166.881879 
L 437.612466 166.603065 
L 438.021706 165.251094 
L 438.430945 163.548565 
L 438.635565 163.113995 
L 438.840185 163.019883 
L 439.249424 163.165131 
L 439.658664 163.161961 
L 440.067903 163.681661 
L 440.477143 164.129265 
L 440.886382 164.127562 
L 441.091002 164.005915 
L 441.500241 163.276973 
L 442.31872 161.299037 
L 443.137199 159.546899 
L 443.341819 159.508913 
L 443.751058 159.704124 
L 443.955678 159.68698 
L 444.160298 159.471339 
L 444.569537 158.238314 
L 445.183396 156.052309 
L 445.592636 155.494507 
L 446.001875 155.185281 
L 446.206495 155.215576 
L 446.615734 155.647974 
L 447.024974 156.324958 
L 447.434213 157.222515 
L 447.638833 157.420661 
L 448.252692 157.099166 
L 448.457312 157.322792 
L 449.071171 158.994438 
L 449.48041 159.891291 
L 449.68503 160.135641 
L 449.88965 160.188069 
L 450.09427 159.999376 
L 450.503509 158.929153 
L 451.321988 156.250338 
L 451.526608 155.97581 
L 451.935847 155.916455 
L 452.345087 156.147948 
L 452.958946 156.708392 
L 453.368185 156.682619 
L 453.777425 156.746143 
L 454.186664 157.379916 
L 454.595904 157.941535 
L 454.800523 157.728007 
L 455.414383 156.613693 
L 456.437481 155.987024 
L 457.869819 154.167017 
L 458.483678 153.826147 
L 458.688298 153.799023 
L 458.892918 153.909926 
L 459.506777 154.61057 
L 459.711397 154.251501 
L 460.120636 152.322235 
L 460.529876 150.35058 
L 460.939115 149.453493 
L 461.348355 149.22018 
L 461.757594 149.204387 
L 461.962214 149.385976 
L 462.371453 150.201105 
L 462.780693 150.970674 
L 462.985312 150.990342 
L 463.394552 150.597807 
L 463.599172 150.287584 
L 464.008411 149.066653 
L 464.417651 147.99461 
L 464.62227 147.811201 
L 464.82689 147.787247 
L 465.03151 147.93913 
L 466.259228 149.79131 
L 466.463848 149.97425 
L 466.668468 149.891175 
L 466.873087 149.565042 
L 467.282327 148.223931 
L 468.100806 144.303402 
L 468.305425 143.917384 
L 468.510045 143.966289 
L 469.123904 144.9788 
L 469.533144 145.185811 
L 469.942383 145.962367 
L 470.556242 147.378744 
L 470.965482 147.851652 
L 471.374721 148.156885 
L 471.98858 148.876492 
L 472.1932 148.948881 
L 472.39782 148.765178 
L 472.807059 147.394419 
L 473.216299 145.873246 
L 473.420919 145.426463 
L 473.625538 145.257085 
L 473.830158 145.411962 
L 474.239397 146.12153 
L 474.648637 146.466744 
L 474.853257 146.867557 
L 475.671736 149.350633 
L 475.876355 149.394842 
L 476.285595 148.988393 
L 477.308693 147.506438 
L 477.922553 147.825174 
L 478.127172 147.68926 
L 479.354891 145.976282 
L 479.76413 145.389887 
L 480.17337 144.045078 
L 480.787229 141.520435 
L 481.196468 140.940557 
L 482.014947 140.659924 
L 482.424187 141.198118 
L 482.833426 141.720577 
L 483.038046 141.462958 
L 483.447285 139.811507 
L 483.856525 138.073107 
L 484.061144 137.59744 
L 484.265764 137.541548 
L 484.470384 137.850421 
L 485.288863 139.94337 
L 485.493482 140.000494 
L 485.698102 139.73401 
L 486.107342 138.541436 
L 486.92582 135.189688 
L 487.33506 134.755646 
L 487.53968 134.689186 
L 487.744299 134.76545 
L 488.562778 135.846182 
L 488.767398 135.678976 
L 489.790497 133.97727 
L 490.199736 133.744779 
L 490.608976 132.995464 
L 491.427454 131.38787 
L 492.450553 129.453437 
L 492.859793 128.972368 
L 493.473652 128.910782 
L 493.882891 128.696549 
L 494.70137 128.962564 
L 494.90599 129.308365 
L 495.315229 130.507456 
L 495.519849 130.768128 
L 495.724469 130.502994 
L 496.133708 128.550772 
L 496.952187 124.099564 
L 497.770666 120.501058 
L 498.179905 119.455905 
L 498.589145 119.014171 
L 498.998384 118.833638 
L 499.612244 118.978182 
L 500.021483 119.010825 
L 500.226103 118.879902 
L 501.044582 117.675468 
L 501.453821 116.551467 
L 502.2723 113.781593 
L 502.886159 111.979962 
L 503.704638 109.491484 
L 503.909258 109.325805 
L 504.523117 109.686988 
L 504.727737 109.413341 
L 505.136976 108.59563 
L 505.750835 108.205327 
L 506.160075 107.162874 
L 506.569314 105.533556 
L 507.592413 100.087802 
L 507.797033 99.695914 
L 508.206272 99.622057 
L 508.410892 99.546849 
L 508.615512 99.165 
L 509.229371 96.491938 
L 509.84323 94.336639 
L 510.866329 91.590953 
L 511.480188 89.334438 
L 511.889427 88.560994 
L 512.912526 87.535156 
L 513.117146 87.369888 
L 513.526385 86.560748 
L 514.140244 85.13533 
L 514.549484 84.381084 
L 514.958723 83.019308 
L 515.572582 80.783166 
L 517.20954 78.108871 
L 517.41416 77.903093 
L 517.823399 76.965848 
L 518.232639 75.986391 
L 519.051118 74.620446 
L 519.869597 73.219745 
L 520.483456 71.909517 
L 520.892695 71.529781 
L 521.097315 71.491267 
L 521.506554 71.612386 
L 521.711174 71.334277 
L 522.120414 69.810109 
L 522.734273 67.590464 
L 523.552752 66.267906 
L 524.166611 64.008749 
L 524.57585 63.588034 
L 524.98509 63.1163 
L 525.598949 62.214164 
L 526.417428 61.344494 
L 527.031287 60.23699 
L 527.440526 60.096733 
L 527.645146 60.027866 
L 528.054386 59.549615 
L 528.463625 58.749869 
L 528.872864 57.766713 
L 529.691343 56.57637 
L 532.14678 50.327934 
L 532.55602 49.64003 
L 533.783738 46.231333 
L 534.397597 45.239253 
L 534.806837 44.662428 
L 535.011456 44.763586 
L 535.420696 45.933556 
L 535.829935 47.018691 
L 536.034555 46.915714 
L 537.262273 44.169324 
L 537.876132 43.830216 
L 538.080752 43.405097 
L 538.285372 42.498675 
L 538.694611 39.209159 
L 539.103851 34.192281 
L 540.331569 15.372999 
L 540.945428 10.918855 
L 541.354668 7.993282 
L 541.763907 3.608709 
L 542.09018 -1 
M 546.494197 -1 
L 547.08402 31.703157 
L 547.697879 66.059251 
L 547.902499 71.988775 
L 548.107119 74.465746 
L 548.311739 74.074738 
L 548.516358 71.489976 
L 548.925598 62.175474 
L 549.744077 41.640865 
L 550.153316 35.207669 
L 550.562556 31.496792 
L 550.767175 30.984901 
L 550.971795 31.531725 
L 551.381034 35.15712 
L 552.404133 48.304908 
L 553.631851 66.18172 
L 555.678049 91.222549 
L 556.496528 101.127437 
L 557.519626 110.167881 
L 558.133485 113.624192 
L 558.951964 116.714798 
L 559.361204 117.936551 
L 559.770443 119.989578 
L 560.384302 124.478947 
L 561.202781 131.079408 
L 562.02126 134.467908 
L 562.635119 136.123117 
L 563.248979 137.839148 
L 564.067457 140.439821 
L 564.681317 141.761204 
L 565.295176 143.730452 
L 567.341373 151.513095 
L 567.750613 152.905517 
L 568.978331 158.71269 
L 569.182951 158.870737 
L 569.38757 158.681221 
L 570.00143 157.714034 
L 570.819908 156.922977 
L 571.433768 156.846067 
L 572.047627 157.399408 
L 573.479965 159.143562 
L 573.889204 159.193524 
L 574.298444 159.347755 
L 575.116923 159.329026 
L 575.526162 159.888297 
L 576.344641 161.599279 
L 576.549261 161.302501 
L 576.9585 159.856476 
L 577.572359 157.547416 
L 577.776979 157.234785 
L 577.981599 157.232789 
L 578.390838 157.719142 
L 579.004698 158.835276 
L 579.413937 159.619992 
L 579.618557 159.83217 
L 579.823176 159.868042 
L 580.437036 159.627507 
L 581.050895 160.5371 
L 581.255515 160.363729 
L 582.073993 158.153537 
L 582.278613 158.395891 
L 582.687853 159.359086 
L 582.892472 159.426308 
L 583.915571 158.071871 
L 584.73405 157.942533 
L 584.93867 158.116138 
L 585.347909 159.125655 
L 586.166388 161.818502 
L 586.371008 162.089624 
L 586.575627 162.13853 
L 586.780247 161.93827 
L 587.189487 160.832822 
L 587.598726 159.545666 
L 587.803346 159.166987 
L 588.007966 159.045457 
L 588.417205 159.240785 
L 589.440304 160.237973 
L 589.849543 161.256648 
L 590.463402 163.758453 
L 590.668022 164.043431 
L 590.872642 163.767142 
L 591.486501 161.518729 
L 591.691121 161.276375 
L 592.10036 161.298567 
L 592.30498 161.15238 
L 592.714219 160.300851 
L 593.123459 158.672473 
L 593.532698 156.938007 
L 593.941938 156.269947 
L 594.146557 156.001936 
L 594.555797 154.716424 
L 594.965036 153.295645 
L 595.169656 153.190613 
L 595.578895 153.952021 
L 596.601994 156.263313 
L 597.011234 158.288687 
L 597.420473 160.474574 
L 597.829712 161.46865 
L 598.034332 161.467358 
L 598.443572 160.836579 
L 598.852811 160.361675 
L 599.262051 160.484261 
L 599.67129 160.566748 
L 600.080529 160.291575 
L 600.694389 159.65604 
L 600.899008 159.689505 
L 601.103628 159.923699 
L 601.512867 160.943079 
L 601.922107 161.9196 
L 602.126727 162.016824 
L 602.331346 161.782337 
L 603.149825 159.92593 
L 603.354445 159.848022 
L 603.763684 160.195115 
L 604.582163 161.117858 
L 604.786783 161.070127 
L 605.605262 160.321341 
L 605.809882 160.347936 
L 606.219121 160.89523 
L 606.628361 161.430547 
L 606.83298 161.253889 
L 607.24222 159.790251 
L 607.856079 157.300599 
L 608.265318 156.394001 
L 608.469938 156.249222 
L 608.674558 156.421712 
L 609.288417 157.921163 
L 610.106896 159.952173 
L 610.311516 160.086619 
L 610.516135 159.974835 
L 611.129995 159.286696 
L 611.539234 159.128414 
L 611.743854 158.864748 
L 612.357713 157.353262 
L 612.971572 155.301175 
L 613.585431 153.385882 
L 614.199291 152.493609 
L 614.60853 152.185969 
L 615.222389 151.909034 
L 616.040868 150.953296 
L 616.245488 151.106353 
L 616.859347 152.296402 
L 617.063967 152.253779 
L 617.473206 151.497537 
L 618.496305 148.918293 
L 618.905544 147.01756 
L 619.519403 143.181455 
L 620.133263 137.115842 
L 621.156361 124.964654 
L 621.97484 114.623786 
L 622.17946 113.336219 
L 622.38408 112.902471 
L 622.588699 113.388354 
L 622.997939 116.652683 
L 624.839516 137.051848 
L 625.657995 144.029461 
L 626.476474 148.647523 
L 627.090333 151.158604 
L 627.499573 151.736134 
L 627.908812 152.062737 
L 628.931911 153.388054 
L 629.54577 153.307915 
L 629.95501 153.019121 
L 630.159629 153.006675 
L 630.773488 153.359638 
L 631.182728 153.218617 
L 631.591967 152.652243 
L 632.001207 151.580729 
L 633.024305 148.226926 
L 633.228925 148.195927 
L 633.842784 148.551591 
L 634.047404 148.957805 
L 634.456644 151.03819 
L 634.865883 153.490562 
L 635.275122 154.478884 
L 635.888982 154.948739 
L 636.502841 154.841476 
L 636.91208 154.463208 
L 637.32132 153.52614 
L 637.935179 151.103534 
L 638.549038 148.787194 
L 638.958278 148.009112 
L 639.162897 148.143792 
L 639.572137 149.489482 
L 640.185996 151.537166 
L 640.595235 152.215794 
L 641.004475 152.45034 
L 641.209094 152.376776 
L 641.618334 151.680535 
L 642.027573 150.966506 
L 642.641433 150.471757 
L 642.846052 150.498177 
L 643.255292 151.293226 
L 643.664531 152.122797 
L 643.869151 152.287009 
L 644.073771 152.298281 
L 644.48301 152.03802 
L 645.710728 150.704014 
L 646.119968 150.034251 
L 646.324588 149.954699 
L 646.529207 150.216487 
L 647.143067 151.567225 
L 647.347686 151.652707 
L 647.552306 151.462017 
L 648.370785 149.796065 
L 648.780024 149.632617 
L 649.189264 149.103053 
L 649.803123 148.130817 
L 650.007743 147.926272 
L 650.212362 147.543366 
L 650.621602 145.874772 
L 651.235461 143.469604 
L 651.440081 143.034446 
L 651.644701 142.890548 
L 651.84932 143.072255 
L 652.463179 144.386887 
L 652.667799 144.445362 
L 653.281658 143.683132 
L 653.486278 143.896601 
L 653.895518 145.160566 
L 654.713996 148.084789 
L 655.123236 148.703298 
L 655.327856 148.703122 
L 655.737095 148.280175 
L 656.146335 147.538611 
L 656.555574 146.197089 
L 657.578673 141.963577 
L 657.987912 141.201464 
L 659.21563 139.849551 
L 659.82949 138.529107 
L 660.238729 137.982166 
L 660.647969 135.992546 
L 661.261828 132.494434 
L 661.875687 130.320759 
L 662.694166 127.7859 
L 663.308025 125.560501 
L 663.512645 125.17918 
L 663.717264 125.151176 
L 663.921884 125.557801 
L 664.740363 128.361198 
L 664.944983 128.628328 
L 665.149603 128.705532 
L 665.354222 128.589169 
L 665.558842 128.288046 
L 665.968081 127.001183 
L 666.581941 123.217683 
L 666.99118 119.569215 
L 667.605039 111.56776 
L 668.218898 103.647971 
L 668.628138 100.459553 
L 669.037377 98.763307 
L 669.241997 98.515962 
L 669.446617 98.93474 
L 671.083575 107.622044 
L 671.902054 114.100916 
L 672.311293 115.752836 
L 672.720532 116.756834 
L 673.129772 117.229625 
L 673.334392 117.221171 
L 673.539011 116.961321 
L 673.743631 116.333419 
L 674.152871 113.860851 
L 674.76673 107.552414 
L 675.585209 98.619468 
L 675.789828 97.65322 
L 675.994448 97.526172 
L 676.199068 98.216894 
L 677.426786 106.500274 
L 678.245265 113.12686 
L 678.654504 116.308232 
L 678.859124 117.281936 
L 679.063744 117.67494 
L 679.268364 117.528635 
L 680.086843 115.396409 
L 680.291462 115.312101 
L 680.496082 115.427584 
L 680.905321 116.020436 
L 681.314561 116.930674 
L 681.7238 118.463238 
L 682.33766 120.730203 
L 682.746899 121.426444 
L 683.156138 121.570048 
L 683.769998 121.302155 
L 683.974617 121.669796 
L 684.793096 124.620086 
L 684.997716 124.826099 
L 685.202336 124.695293 
L 685.816195 123.824332 
L 686.020815 123.856329 
L 686.430054 124.421647 
L 686.839294 125.036633 
L 687.043913 124.863967 
L 687.453153 123.484754 
L 688.271632 119.564753 
L 689.29473 113.560902 
L 690.317829 104.197143 
L 690.522449 103.537068 
L 690.727068 103.592431 
L 690.931688 104.482297 
L 691.340928 108.592636 
L 691.954787 114.717722 
L 693.182505 122.228421 
L 693.591745 123.926546 
L 694.000984 124.814474 
L 694.410223 125.251335 
L 695.024083 125.637646 
L 695.228702 125.630483 
L 695.433322 125.380086 
L 696.251801 123.338919 
L 696.66104 123.331932 
L 696.86566 123.120694 
L 698.297998 119.72004 
L 698.707238 116.760827 
L 700.139576 102.736558 
L 700.344196 102.497844 
L 700.548815 103.317669 
L 700.958055 107.326087 
L 701.776534 116.309817 
L 702.185773 118.353978 
L 702.595013 119.266448 
L 702.799632 119.366137 
L 703.413491 118.747452 
L 703.618111 118.915715 
L 704.027351 120.253361 
L 704.84583 123.432209 
L 705.255069 124.321018 
L 705.459689 124.334404 
L 705.664308 123.979444 
L 706.482787 121.674141 
L 707.096647 120.333794 
L 707.710506 118.573671 
L 708.528985 116.902552 
L 709.552083 113.057876 
L 709.961323 112.84928 
L 710.165942 112.938753 
L 710.575182 113.49867 
L 711.393661 115.013092 
L 711.598281 114.970116 
L 712.825999 112.699158 
L 713.849098 109.166642 
L 714.462957 104.920214 
L 715.076816 100.273032 
L 716.304534 94.348734 
L 717.123013 88.700019 
L 717.532253 84.877535 
L 718.146112 76.329961 
L 718.759971 65.205903 
L 719.37383 48.732433 
L 720.601548 10.080067 
L 721.073715 -1 
M 751.640133 -1 
L 752.112986 17.673194 
L 752.931465 40.301457 
L 753.545325 52.708385 
L 753.954564 57.462889 
L 754.773043 63.036337 
L 755.386902 66.146964 
L 755.796141 67.652462 
L 756.410001 71.152511 
L 757.22848 77.381044 
L 757.637719 79.987353 
L 758.660818 84.189749 
L 759.683916 87.147847 
L 760.297775 89.653585 
L 761.320874 92.730395 
L 761.730114 93.860561 
L 761.934733 93.916981 
L 762.139353 93.62807 
L 762.753212 92.023411 
L 762.957832 91.961472 
L 763.367071 92.568062 
L 763.776311 93.040442 
L 763.980931 92.974041 
L 764.18555 92.629003 
L 765.004029 90.439007 
L 765.208649 90.332507 
L 765.413269 90.552669 
L 765.822508 91.991942 
L 766.231748 93.86561 
L 766.436367 94.311277 
L 766.640987 94.233603 
L 767.050226 93.052536 
L 767.459466 91.817985 
L 767.868705 91.404373 
L 768.687184 91.284899 
L 768.891804 91.493201 
L 769.505663 92.790925 
L 769.710283 92.825681 
L 770.528762 91.954779 
L 770.938001 91.996404 
L 771.55186 92.386707 
L 771.75648 92.092277 
L 772.370339 90.262994 
L 772.574959 89.994338 
L 772.779579 89.961812 
L 772.984199 90.143109 
L 773.393438 91.073132 
L 773.802677 91.998048 
L 774.007297 91.994467 
L 775.030396 90.614197 
L 775.439635 90.513627 
L 776.053494 90.644139 
L 776.462734 90.388164 
L 776.871973 90.15626 
L 777.076593 90.364915 
L 777.485833 91.755459 
L 778.099692 94.187634 
L 778.713551 95.116131 
L 779.32741 96.21154 
L 779.53203 96.514953 
L 779.73665 96.584583 
L 780.145889 96.184357 
L 780.964368 95.249402 
L 781.987467 91.392631 
L 782.805945 88.392908 
L 783.215185 87.121075 
L 783.829044 83.618149 
L 784.442903 79.50963 
L 785.056762 73.378967 
L 785.875241 65.588104 
L 786.69372 58.546439 
L 787.512199 50.934994 
L 787.921439 49.191134 
L 788.126058 48.886958 
L 788.330678 48.980248 
L 788.535298 49.553315 
L 788.944537 52.124222 
L 789.558396 56.508149 
L 790.786115 61.612622 
L 791.604594 63.386542 
L 791.809213 63.417775 
L 792.013833 63.151115 
L 792.423073 61.691822 
L 793.241552 56.392431 
L 794.26465 50.542812 
L 794.46927 50.055813 
L 794.67389 49.947317 
L 794.878509 50.167949 
L 795.083129 50.762035 
L 795.492368 53.287324 
L 796.106228 59.179038 
L 796.720087 68.01435 
L 797.333946 75.947936 
L 797.538566 77.140216 
L 797.743185 77.671658 
L 798.152425 78.08568 
L 798.357045 78.459663 
L 798.766284 79.943262 
L 799.175524 81.716242 
L 799.584763 82.47994 
L 799.789383 82.49726 
L 800.198622 82.156449 
L 800.812481 81.411068 
L 801.017101 81.379188 
L 801.221721 81.592951 
L 801.426341 82.144648 
L 801.83558 84.671992 
L 802.449439 91.141529 
L 804.086397 109.483206 
L 804.700256 113.643272 
L 805.314115 116.386257 
L 805.927975 118.119902 
L 806.132594 118.500166 
L 806.337214 118.580423 
L 806.951073 118.288399 
L 807.360313 118.409107 
L 807.564932 118.592869 
L 807.769552 119.070474 
L 808.99727 123.458804 
L 809.40651 124.279216 
L 809.815749 125.800977 
L 810.224989 127.534387 
L 810.634228 128.223406 
L 811.043468 128.273544 
L 811.452707 127.935493 
L 812.475806 126.599255 
L 812.680426 126.711098 
L 812.885045 127.073925 
L 813.498904 129.307484 
L 814.112764 131.139468 
L 814.317383 131.317124 
L 814.726623 131.253541 
L 814.931243 131.39239 
L 815.545102 132.587959 
L 815.954341 134.033925 
L 816.5682 136.651506 
L 816.97744 137.234554 
L 818.205158 138.401472 
L 818.614398 139.380988 
L 819.023637 140.511153 
L 819.228257 140.776052 
L 819.842116 140.786679 
L 820.455975 141.701144 
L 820.865215 142.187379 
L 821.274454 142.089393 
L 821.479074 142.012072 
L 821.683694 142.103072 
L 821.888313 142.50183 
L 822.911412 145.71197 
L 824.13913 145.762754 
L 824.752989 145.463509 
L 824.957609 145.899137 
L 825.366849 147.912828 
L 825.776088 150.042059 
L 826.185328 151.197999 
L 826.594567 151.701612 
L 827.003806 151.713589 
L 827.617666 151.477282 
L 827.822285 151.020519 
L 828.640764 148.150603 
L 829.254623 146.891862 
L 830.686962 142.794146 
L 831.300821 142.300631 
L 831.50544 142.239984 
L 831.71006 142.308028 
L 832.1193 142.79808 
L 832.733159 143.951084 
L 832.937778 144.015958 
L 833.142398 143.742429 
L 833.756257 141.959526 
L 834.574736 138.398595 
L 835.597835 133.019887 
L 836.620934 129.769825 
L 837.439412 125.505901 
L 838.053272 123.07766 
L 838.667131 119.584068 
L 839.28099 114.484468 
L 842.350286 84.90824 
L 844.191863 61.264707 
L 845.624202 33.322729 
L 846.6473 5.374938 
L 846.840461 -1 
M 948.783676 -1 
L 949.366403 20.372558 
L 949.980262 35.48067 
L 950.798741 50.561129 
L 951.61722 62.238528 
L 953.254178 80.135478 
L 953.663417 84.101038 
L 954.891136 98.247717 
L 956.323474 108.607607 
L 958.77891 119.76331 
L 960.620488 130.585658 
L 962.052826 136.520289 
L 962.462066 136.788593 
L 962.666685 136.837322 
L 962.871305 137.017444 
L 963.280544 138.005591 
L 964.303643 141.038896 
L 965.531361 144.086821 
L 965.940601 144.714723 
L 966.55446 145.174069 
L 966.9637 146.332944 
L 967.782178 149.764303 
L 967.986798 150.020807 
L 968.191418 149.872153 
L 968.600657 149.197341 
L 968.805277 149.16282 
L 969.009897 149.446506 
L 969.828376 151.590416 
L 970.032995 151.566403 
L 970.851474 150.346177 
L 971.056094 150.281361 
L 971.260714 150.38152 
L 971.465334 150.698436 
L 971.874573 151.955122 
L 972.897672 156.559856 
L 973.511531 159.176439 
L 973.716151 159.664025 
L 973.92077 159.84626 
L 974.33001 159.804987 
L 974.534629 159.934325 
L 975.148489 160.766714 
L 975.353108 160.63767 
L 975.966968 159.698781 
L 976.580827 159.345113 
L 976.785446 159.2483 
L 977.194686 159.509911 
L 977.603925 159.749272 
L 978.217785 159.677763 
L 978.422404 160.055268 
L 978.831644 161.863298 
L 979.650123 166.053306 
L 980.263982 167.982396 
L 980.468602 168.329136 
L 980.673221 168.409628 
L 981.28708 167.996662 
L 982.310179 167.366705 
L 982.924038 167.634246 
L 983.128658 167.413555 
L 983.537897 166.446956 
L 985.174855 162.102071 
L 985.379475 162.067315 
L 985.584095 162.350825 
L 986.197954 164.042785 
L 987.221052 167.826345 
L 987.425672 167.841492 
L 987.630292 167.487295 
L 988.653391 164.530312 
L 989.06263 164.235236 
L 989.26725 164.18046 
L 989.471869 163.992353 
L 989.881109 163.048063 
L 991.313447 159.274309 
L 992.336546 157.587162 
L 992.541165 157.64552 
L 992.745785 157.921809 
L 992.950405 158.487068 
L 993.359644 160.580134 
L 993.973503 163.643206 
L 994.791982 166.036045 
L 995.201222 166.579523 
L 995.610461 166.876184 
L 996.019701 167.776148 
L 996.42894 168.944827 
L 996.63356 169.152249 
L 996.83818 169.0198 
L 997.247419 168.136509 
L 998.679757 163.917498 
L 998.884377 163.658999 
L 999.088997 163.630877 
L 999.702856 164.07807 
L 1000.725954 163.699156 
L 1001.135194 163.549974 
L 1001.339814 163.258949 
L 1001.749053 162.032676 
L 1002.362912 160.064779 
L 1002.567532 159.720739 
L 1002.772152 159.728371 
L 1002.976771 160.181259 
L 1005.227588 168.595151 
L 1005.636828 169.219002 
L 1006.046067 170.786733 
L 1006.864546 174.893138 
L 1007.273786 176.071328 
L 1007.478405 176.342274 
L 1007.683025 176.339104 
L 1007.887645 176.082659 
L 1008.296884 174.970107 
L 1008.910744 172.937218 
L 1009.115363 172.841697 
L 1009.319983 173.20517 
L 1010.138462 175.9916 
L 1010.343082 176.045613 
L 1010.752321 175.891852 
L 1011.36618 176.030642 
L 1011.980039 175.751183 
L 1012.184659 175.961365 
L 1013.003138 177.948812 
L 1013.207758 178.024489 
L 1013.412378 177.828926 
L 1013.821617 176.779781 
L 1014.844716 173.504707 
L 1015.049335 173.393687 
L 1015.253955 173.546215 
L 1016.072434 175.097859 
L 1016.890913 176.997947 
L 1017.095533 176.962779 
L 1017.504772 176.63371 
L 1017.709392 176.676745 
L 1017.914012 176.97323 
L 1018.323251 178.271423 
L 1019.34635 182.70449 
L 1019.755589 183.364976 
L 1020.164829 183.289417 
L 1020.778688 182.791733 
L 1021.392547 182.149094 
L 1021.801786 181.170811 
L 1022.415646 179.490886 
L 1022.620265 179.210605 
L 1022.824885 179.159293 
L 1023.234124 179.497168 
L 1024.257223 180.78403 
L 1024.461843 180.763306 
L 1024.666463 180.623341 
L 1024.871082 180.28711 
L 1025.484941 178.608359 
L 1025.689561 178.534267 
L 1025.894181 178.909834 
L 1027.121899 182.862948 
L 1027.326519 183.081525 
L 1027.531139 183.081466 
L 1028.144998 182.572686 
L 1028.349618 182.688873 
L 1028.554237 183.096144 
L 1029.372716 185.912399 
L 1029.577336 185.903299 
L 1029.781956 185.48182 
L 1031.009674 181.461425 
L 1031.418913 181.026444 
L 1031.623533 181.200049 
L 1032.032773 181.976898 
L 1032.237392 182.065961 
L 1032.442012 181.798538 
L 1032.851252 180.378697 
L 1033.260491 179.047627 
L 1033.465111 178.854119 
L 1033.66973 178.970364 
L 1034.28359 179.754729 
L 1034.488209 179.692496 
L 1034.897449 179.366774 
L 1035.102069 179.564508 
L 1035.920547 181.286176 
L 1036.943646 181.568336 
L 1037.762125 180.651053 
L 1037.966745 180.794187 
L 1038.785224 182.239684 
L 1038.989843 182.194888 
L 1039.399083 181.623699 
L 1040.012942 180.206677 
L 1040.831421 179.196574 
L 1041.6499 176.098041 
L 1041.85452 176.192505 
L 1042.263759 177.521874 
L 1042.672998 179.247064 
L 1043.082238 179.975478 
L 1043.696097 180.033131 
L 1044.309956 180.550835 
L 1044.719196 181.188366 
L 1045.537675 182.652003 
L 1045.742294 182.650947 
L 1045.946914 182.337142 
L 1046.560773 180.345468 
L 1047.379252 177.460463 
L 1047.788492 177.122999 
L 1048.197731 177.19486 
L 1049.22083 177.68679 
L 1049.630069 178.385027 
L 1050.039309 179.791598 
L 1051.267027 184.763387 
L 1051.471647 185.0395 
L 1051.676266 184.837186 
L 1052.494745 182.886138 
L 1052.699365 182.740068 
L 1052.903985 182.809346 
L 1053.313224 183.648604 
L 1054.540943 186.462628 
L 1054.745562 186.499615 
L 1054.950182 186.146769 
L 1055.359422 184.440953 
L 1055.768661 182.497772 
L 1055.973281 181.922768 
L 1056.1779 181.728849 
L 1056.38252 181.885017 
L 1056.79176 182.775529 
L 1057.405619 184.167834 
L 1057.610239 184.287896 
L 1058.224098 184.026109 
L 1058.428717 184.262827 
L 1059.247196 186.308456 
L 1059.451816 186.387421 
L 1060.270295 185.741847 
L 1060.679534 185.811007 
L 1060.884154 185.655954 
L 1061.498013 184.886209 
L 1062.111873 185.010086 
L 1062.521112 184.588843 
L 1062.930351 183.709427 
L 1063.544211 181.894352 
L 1063.74883 181.636146 
L 1063.95345 181.725561 
L 1064.567309 182.544212 
L 1064.771929 182.430491 
L 1065.590408 181.607848 
L 1065.795028 181.67237 
L 1066.408887 182.318061 
L 1066.613506 182.454679 
L 1066.818126 182.799894 
L 1068.659704 188.052492 
L 1068.864323 188.365416 
L 1069.273563 188.461113 
L 1069.682802 188.269425 
L 1070.092042 187.300829 
L 1070.501281 186.119293 
L 1070.705901 185.829031 
L 1071.31976 185.617734 
L 1071.729 184.776891 
L 1071.933619 184.349776 
L 1072.138239 184.18621 
L 1072.342859 184.354532 
L 1072.956718 185.516107 
L 1073.365957 185.829618 
L 1073.979817 186.781951 
L 1074.184436 186.731578 
L 1075.207535 184.863605 
L 1076.026014 184.443947 
L 1076.639873 183.319535 
L 1076.844493 183.478991 
L 1077.662972 185.475656 
L 1077.867591 185.442367 
L 1078.072211 185.124806 
L 1078.89069 183.162721 
L 1079.09531 183.212742 
L 1079.504549 184.086227 
L 1080.118408 185.534425 
L 1080.936887 186.996125 
L 1081.141507 187.110316 
L 1081.755366 186.961193 
L 1082.164606 186.825866 
L 1082.369225 186.640519 
L 1082.778465 185.666581 
L 1083.187704 184.463262 
L 1083.392324 184.28314 
L 1083.596944 184.473595 
L 1084.006183 185.758696 
L 1084.620042 187.792231 
L 1085.029282 188.395299 
L 1085.233902 188.330014 
L 1086.257 186.503549 
L 1086.46162 186.458166 
L 1087.280099 186.959725 
L 1088.098578 186.313916 
L 1088.917057 186.830563 
L 1089.121676 186.63958 
L 1089.530916 185.739263 
L 1089.940155 184.435082 
L 1090.554015 181.232104 
L 1090.963254 179.496992 
L 1091.372493 178.789068 
L 1091.577113 178.774978 
L 1091.781733 178.958035 
L 1093.214071 181.215313 
L 1093.418691 181.016228 
L 1094.441789 179.081032 
L 1094.646409 179.206613 
L 1095.055649 180.16787 
L 1095.464888 181.82936 
L 1096.078747 184.540407 
L 1096.487987 185.334459 
L 1096.897226 185.598653 
L 1097.715705 185.356181 
L 1097.920325 185.503543 
L 1098.534184 186.407852 
L 1098.738804 186.400043 
L 1099.148043 185.497907 
L 1099.557283 184.624891 
L 1099.966522 184.347839 
L 1100.171142 184.218266 
L 1100.375761 183.891311 
L 1100.989621 182.504113 
L 1101.19424 182.627991 
L 1101.60348 183.801073 
L 1102.217339 185.3344 
L 1102.626578 185.880343 
L 1102.831198 185.908113 
L 1103.035818 185.691532 
L 1103.445057 184.528078 
L 1104.058916 182.21027 
L 1104.468156 181.431014 
L 1104.672776 181.331207 
L 1105.082015 181.62276 
L 1105.491255 182.183322 
L 1105.900494 182.804825 
L 1106.105114 182.772887 
L 1106.309733 182.431606 
L 1106.718973 181.119147 
L 1107.332832 178.720671 
L 1107.742072 178.030477 
L 1108.355931 177.670116 
L 1108.96979 176.85898 
L 1109.379029 175.954613 
L 1110.606748 172.488733 
L 1111.015987 172.273267 
L 1111.220607 171.898052 
L 1111.629846 170.443691 
L 1112.243706 167.115955 
L 1113.471424 159.143679 
L 1114.494523 150.225645 
L 1115.313001 141.052106 
L 1116.13148 127.449433 
L 1116.949959 114.277163 
L 1117.563818 107.386793 
L 1118.382297 99.846035 
L 1118.791537 93.838721 
L 1119.405396 79.772064 
L 1119.814635 65.841496 
L 1120.223875 46.027727 
L 1120.837734 2.067516 
L 1120.868911 -1 
M 1125.42024 -1 
L 1125.953227 37.971613 
L 1126.567086 66.562571 
L 1127.590185 99.736189 
L 1128.613284 126.933197 
L 1129.431763 143.44019 
L 1130.045622 152.7898 
L 1130.659481 158.974125 
L 1132.091819 169.440162 
L 1132.501059 171.243907 
L 1132.705678 171.340954 
L 1133.114918 171.16048 
L 1133.319537 171.226352 
L 1133.524157 171.473462 
L 1134.547256 173.470891 
L 1134.956495 173.623067 
L 1135.570354 173.486801 
L 1135.979594 173.940335 
L 1136.593453 174.771902 
L 1137.002693 176.399751 
L 1137.411932 178.090831 
L 1137.821171 178.835508 
L 1138.025791 178.811848 
L 1138.63965 178.338587 
L 1138.84427 178.423305 
L 1139.04889 178.755016 
L 1140.276608 182.043828 
L 1140.890467 183.324525 
L 1141.504326 184.727457 
L 1141.913566 185.093924 
L 1142.527425 185.038796 
L 1142.936665 185.840068 
L 1143.550524 187.27259 
L 1143.755143 187.411674 
L 1144.164383 187.408562 
L 1144.573622 187.865442 
L 1145.392101 189.334364 
L 1145.596721 189.228334 
L 1145.801341 188.79071 
L 1146.21058 187.110198 
L 1146.824439 184.318014 
L 1147.029059 183.835067 
L 1147.233679 183.809175 
L 1148.052158 185.324713 
L 1148.461397 185.372914 
L 1149.075256 185.844824 
L 1149.279876 185.776309 
L 1149.893735 184.973334 
L 1150.098355 185.04995 
L 1150.507594 186.321607 
L 1151.121454 188.453716 
L 1151.530693 189.204204 
L 1151.735313 189.315577 
L 1151.939933 189.278179 
L 1152.758411 188.788068 
L 1153.167651 189.251642 
L 1153.57689 189.933733 
L 1154.395369 192.222245 
L 1154.804609 192.706191 
L 1155.213848 192.796311 
L 1155.827707 192.510981 
L 1156.236947 192.141519 
L 1157.055426 191.121611 
L 1157.464665 189.865219 
L 1157.873905 188.361541 
L 1158.078524 188.034468 
L 1158.283144 188.111202 
L 1158.692384 188.765876 
L 1158.897003 188.87355 
L 1159.101623 188.681451 
L 1160.124722 186.749661 
L 1160.329341 186.690599 
L 1160.943201 186.905829 
L 1161.14782 186.765512 
L 1161.55706 186.219569 
L 1161.761679 186.176006 
L 1162.170919 186.712497 
L 1162.580158 187.430109 
L 1162.989398 187.643754 
L 1163.603257 187.451361 
L 1164.012496 187.270476 
L 1164.217116 187.293314 
L 1164.830975 187.679567 
L 1165.035595 187.513477 
L 1165.854074 186.233483 
L 1166.058694 186.493979 
L 1167.081792 188.966899 
L 1167.900271 191.163999 
L 1168.104891 191.295275 
L 1168.309511 191.101121 
L 1168.71875 189.994498 
L 1169.12799 188.970187 
L 1169.332609 188.906075 
L 1169.741849 189.070404 
L 1170.355708 188.651451 
L 1170.560328 188.776855 
L 1171.788046 190.979944 
L 1172.197286 191.633502 
L 1172.401905 191.559117 
L 1172.811145 190.510441 
L 1173.220384 189.504916 
L 1173.425004 189.433936 
L 1173.629624 189.597502 
L 1174.038863 190.365721 
L 1174.448103 191.799828 
L 1174.857342 193.336324 
L 1175.061962 193.700795 
L 1175.471201 193.810524 
L 1175.880441 193.92266 
L 1176.28968 194.089925 
L 1176.69892 193.896652 
L 1177.108159 193.288124 
L 1178.131258 190.837866 
L 1178.745117 188.947642 
L 1178.949737 188.676813 
L 1179.154356 188.615344 
L 1179.563596 188.879245 
L 1180.382075 189.799699 
L 1180.586694 189.787252 
L 1180.995934 189.219117 
L 1181.405173 188.65374 
L 1181.609793 188.717851 
L 1182.223652 189.576014 
L 1182.837511 190.670425 
L 1183.042131 190.604846 
L 1183.86061 189.475679 
L 1184.06523 189.418026 
L 1184.679089 189.622454 
L 1184.883709 189.292093 
L 1184.883709 189.292093 
" clip-path="url(#pc772e5b435)" style="fill: none; stroke: #000000; stroke-width: 2; stroke-linecap: square"/>
   </g>
   <g id="patch_3">
    <path d="M 3.00024 198.907885 
L 1184.99976 198.907885 
" style="fill: none; stroke: #000000; stroke-width: 2; stroke-linejoin: miter; stroke-linecap: square"/>
   </g>
  </g>
 </g>
 <defs>
  <clipPath id="pc772e5b435">
   <rect x="3.00024" y="3.00024" width="1181.99952" height="195.907645"/>
  </clipPath>
 </defs>
</svg>
