<?xml version="1.0" encoding="utf-8" standalone="no"?>
<!DOCTYPE svg PUBLIC "-//W3C//DTD SVG 1.1//EN"
  "http://www.w3.org/Graphics/SVG/1.1/DTD/svg11.dtd">
<svg xmlns:xlink="http://www.w3.org/1999/xlink" width="1188pt" height="252pt" viewBox="0 0 1188 252" xmlns="http://www.w3.org/2000/svg" version="1.1">
 <metadata>
  <rdf:RDF xmlns:dc="http://purl.org/dc/elements/1.1/" xmlns:cc="http://creativecommons.org/ns#" xmlns:rdf="http://www.w3.org/1999/02/22-rdf-syntax-ns#">
   <cc:Work>
    <dc:type rdf:resource="http://purl.org/dc/dcmitype/StillImage"/>
    <dc:date>2024-07-23T21:46:08.168434</dc:date>
    <dc:format>image/svg+xml</dc:format>
    <dc:creator>
     <cc:Agent>
      <dc:title>Matplotlib v3.8.4, https://matplotlib.org/</dc:title>
     </cc:Agent>
    </dc:creator>
   </cc:Work>
  </rdf:RDF>
 </metadata>
 <defs>
  <style type="text/css">*{stroke-linejoin: round; stroke-linecap: butt}</style>
 </defs>
 <g id="figure_1">
  <g id="patch_1">
   <path d="M 0 252 
L 1188 252 
L 1188 0 
L 0 0 
z
" style="fill: #ffffff"/>
  </g>
  <g id="axes_1">
   <g id="patch_2">
    <path d="M 3.00024 198.907885 
L 1184.99976 198.907885 
L 1184.99976 3.00024 
L 3.00024 3.00024 
z
" style="fill: #ffffff"/>
   </g>
   <g id="matplotlib.axis_1">
    <g id="xtick_1">
     <g id="line2d_1">
      <defs>
       <path id="m4693b79509" d="M 0 0 
L 0 8 
" style="stroke: #000000; stroke-width: 2"/>
      </defs>
      <g>
       <use xlink:href="#m4693b79509" x="1131.272509" y="198.907885" style="stroke: #000000; stroke-width: 2"/>
      </g>
     </g>
     <g id="text_1">
      <!-- 0 -->
      <g transform="translate(1126.267665 224.791947) scale(0.18 -0.18)">
       <defs>
        <path id="Arial-BoldMT-30" d="M 1756 4600 
Q 2422 4600 2797 4125 
Q 3244 3563 3244 2259 
Q 3244 959 2794 391 
Q 2422 -78 1756 -78 
Q 1088 -78 678 436 
Q 269 950 269 2269 
Q 269 3563 719 4131 
Q 1091 4600 1756 4600 
z
M 1756 3872 
Q 1597 3872 1472 3770 
Q 1347 3669 1278 3406 
Q 1188 3066 1188 2259 
Q 1188 1453 1269 1151 
Q 1350 850 1473 750 
Q 1597 650 1756 650 
Q 1916 650 2041 751 
Q 2166 853 2234 1116 
Q 2325 1453 2325 2259 
Q 2325 3066 2244 3367 
Q 2163 3669 2039 3770 
Q 1916 3872 1756 3872 
z
" transform="scale(0.015625)"/>
       </defs>
       <use xlink:href="#Arial-BoldMT-30"/>
      </g>
     </g>
    </g>
    <g id="xtick_2">
     <g id="line2d_2">
      <g>
       <use xlink:href="#m4693b79509" x="1023.818007" y="198.907885" style="stroke: #000000; stroke-width: 2"/>
      </g>
     </g>
     <g id="text_2">
      <!-- 1 -->
      <g transform="translate(1018.813164 224.791947) scale(0.18 -0.18)">
       <defs>
        <path id="Arial-BoldMT-31" d="M 2519 0 
L 1641 0 
L 1641 3309 
Q 1159 2859 506 2644 
L 506 3441 
Q 850 3553 1253 3867 
Q 1656 4181 1806 4600 
L 2519 4600 
L 2519 0 
z
" transform="scale(0.015625)"/>
       </defs>
       <use xlink:href="#Arial-BoldMT-31"/>
      </g>
     </g>
    </g>
    <g id="xtick_3">
     <g id="line2d_3">
      <g>
       <use xlink:href="#m4693b79509" x="916.363505" y="198.907885" style="stroke: #000000; stroke-width: 2"/>
      </g>
     </g>
     <g id="text_3">
      <!-- 2 -->
      <g transform="translate(911.358662 224.791947) scale(0.18 -0.18)">
       <defs>
        <path id="Arial-BoldMT-32" d="M 3238 816 
L 3238 0 
L 159 0 
Q 209 463 459 877 
Q 709 1291 1447 1975 
Q 2041 2528 2175 2725 
Q 2356 2997 2356 3263 
Q 2356 3556 2198 3714 
Q 2041 3872 1763 3872 
Q 1488 3872 1325 3706 
Q 1163 3541 1138 3156 
L 263 3244 
Q 341 3969 753 4284 
Q 1166 4600 1784 4600 
Q 2463 4600 2850 4234 
Q 3238 3869 3238 3325 
Q 3238 3016 3127 2736 
Q 3016 2456 2775 2150 
Q 2616 1947 2200 1565 
Q 1784 1184 1673 1059 
Q 1563 934 1494 816 
L 3238 816 
z
" transform="scale(0.015625)"/>
       </defs>
       <use xlink:href="#Arial-BoldMT-32"/>
      </g>
     </g>
    </g>
    <g id="xtick_4">
     <g id="line2d_4">
      <g>
       <use xlink:href="#m4693b79509" x="808.909004" y="198.907885" style="stroke: #000000; stroke-width: 2"/>
      </g>
     </g>
     <g id="text_4">
      <!-- 3 -->
      <g transform="translate(803.90416 224.791947) scale(0.18 -0.18)">
       <defs>
        <path id="Arial-BoldMT-33" d="M 241 1216 
L 1091 1319 
Q 1131 994 1309 822 
Q 1488 650 1741 650 
Q 2013 650 2198 856 
Q 2384 1063 2384 1413 
Q 2384 1744 2206 1937 
Q 2028 2131 1772 2131 
Q 1603 2131 1369 2066 
L 1466 2781 
Q 1822 2772 2009 2936 
Q 2197 3100 2197 3372 
Q 2197 3603 2059 3740 
Q 1922 3878 1694 3878 
Q 1469 3878 1309 3722 
Q 1150 3566 1116 3266 
L 306 3403 
Q 391 3819 561 4067 
Q 731 4316 1036 4458 
Q 1341 4600 1719 4600 
Q 2366 4600 2756 4188 
Q 3078 3850 3078 3425 
Q 3078 2822 2419 2463 
Q 2813 2378 3048 2084 
Q 3284 1791 3284 1375 
Q 3284 772 2843 347 
Q 2403 -78 1747 -78 
Q 1125 -78 715 280 
Q 306 638 241 1216 
z
" transform="scale(0.015625)"/>
       </defs>
       <use xlink:href="#Arial-BoldMT-33"/>
      </g>
     </g>
    </g>
    <g id="xtick_5">
     <g id="line2d_5">
      <g>
       <use xlink:href="#m4693b79509" x="701.454502" y="198.907885" style="stroke: #000000; stroke-width: 2"/>
      </g>
     </g>
     <g id="text_5">
      <!-- 4 -->
      <g transform="translate(696.449658 224.791947) scale(0.18 -0.18)">
       <defs>
        <path id="Arial-BoldMT-34" d="M 1994 0 
L 1994 922 
L 119 922 
L 119 1691 
L 2106 4600 
L 2844 4600 
L 2844 1694 
L 3413 1694 
L 3413 922 
L 2844 922 
L 2844 0 
L 1994 0 
z
M 1994 1694 
L 1994 3259 
L 941 1694 
L 1994 1694 
z
" transform="scale(0.015625)"/>
       </defs>
       <use xlink:href="#Arial-BoldMT-34"/>
      </g>
     </g>
    </g>
    <g id="xtick_6">
     <g id="line2d_6">
      <g>
       <use xlink:href="#m4693b79509" x="594" y="198.907885" style="stroke: #000000; stroke-width: 2"/>
      </g>
     </g>
     <g id="text_6">
      <!-- 5 -->
      <g transform="translate(588.995156 224.791947) scale(0.18 -0.18)">
       <defs>
        <path id="Arial-BoldMT-35" d="M 284 1178 
L 1159 1269 
Q 1197 972 1381 798 
Q 1566 625 1806 625 
Q 2081 625 2272 848 
Q 2463 1072 2463 1522 
Q 2463 1944 2273 2155 
Q 2084 2366 1781 2366 
Q 1403 2366 1103 2031 
L 391 2134 
L 841 4519 
L 3163 4519 
L 3163 3697 
L 1506 3697 
L 1369 2919 
Q 1663 3066 1969 3066 
Q 2553 3066 2959 2641 
Q 3366 2216 3366 1538 
Q 3366 972 3038 528 
Q 2591 -78 1797 -78 
Q 1163 -78 763 262 
Q 363 603 284 1178 
z
" transform="scale(0.015625)"/>
       </defs>
       <use xlink:href="#Arial-BoldMT-35"/>
      </g>
     </g>
    </g>
    <g id="xtick_7">
     <g id="line2d_7">
      <g>
       <use xlink:href="#m4693b79509" x="486.545498" y="198.907885" style="stroke: #000000; stroke-width: 2"/>
      </g>
     </g>
     <g id="text_7">
      <!-- 6 -->
      <g transform="translate(481.540654 224.791947) scale(0.18 -0.18)">
       <defs>
        <path id="Arial-BoldMT-36" d="M 3247 3459 
L 2397 3366 
Q 2366 3628 2234 3753 
Q 2103 3878 1894 3878 
Q 1616 3878 1423 3628 
Q 1231 3378 1181 2588 
Q 1509 2975 1997 2975 
Q 2547 2975 2939 2556 
Q 3331 2138 3331 1475 
Q 3331 772 2918 347 
Q 2506 -78 1859 -78 
Q 1166 -78 719 461 
Q 272 1000 272 2228 
Q 272 3488 737 4044 
Q 1203 4600 1947 4600 
Q 2469 4600 2811 4308 
Q 3153 4016 3247 3459 
z
M 1256 1544 
Q 1256 1116 1453 883 
Q 1650 650 1903 650 
Q 2147 650 2309 840 
Q 2472 1031 2472 1466 
Q 2472 1913 2297 2120 
Q 2122 2328 1859 2328 
Q 1606 2328 1431 2129 
Q 1256 1931 1256 1544 
z
" transform="scale(0.015625)"/>
       </defs>
       <use xlink:href="#Arial-BoldMT-36"/>
      </g>
     </g>
    </g>
    <g id="xtick_8">
     <g id="line2d_8">
      <g>
       <use xlink:href="#m4693b79509" x="379.090996" y="198.907885" style="stroke: #000000; stroke-width: 2"/>
      </g>
     </g>
     <g id="text_8">
      <!-- 7 -->
      <g transform="translate(374.086153 224.791947) scale(0.18 -0.18)">
       <defs>
        <path id="Arial-BoldMT-37" d="M 272 3703 
L 272 4519 
L 3275 4519 
L 3275 3881 
Q 2903 3516 2518 2831 
Q 2134 2147 1932 1376 
Q 1731 606 1734 0 
L 888 0 
Q 909 950 1279 1937 
Q 1650 2925 2269 3703 
L 272 3703 
z
" transform="scale(0.015625)"/>
       </defs>
       <use xlink:href="#Arial-BoldMT-37"/>
      </g>
     </g>
    </g>
    <g id="xtick_9">
     <g id="line2d_9">
      <g>
       <use xlink:href="#m4693b79509" x="271.636495" y="198.907885" style="stroke: #000000; stroke-width: 2"/>
      </g>
     </g>
     <g id="text_9">
      <!-- 8 -->
      <g transform="translate(266.631651 224.791947) scale(0.18 -0.18)">
       <defs>
        <path id="Arial-BoldMT-38" d="M 1025 2472 
Q 684 2616 529 2867 
Q 375 3119 375 3419 
Q 375 3931 733 4265 
Q 1091 4600 1750 4600 
Q 2403 4600 2764 4265 
Q 3125 3931 3125 3419 
Q 3125 3100 2959 2851 
Q 2794 2603 2494 2472 
Q 2875 2319 3073 2025 
Q 3272 1731 3272 1347 
Q 3272 713 2867 316 
Q 2463 -81 1791 -81 
Q 1166 -81 750 247 
Q 259 634 259 1309 
Q 259 1681 443 1992 
Q 628 2303 1025 2472 
z
M 1206 3356 
Q 1206 3094 1354 2947 
Q 1503 2800 1750 2800 
Q 2000 2800 2150 2948 
Q 2300 3097 2300 3359 
Q 2300 3606 2151 3754 
Q 2003 3903 1759 3903 
Q 1506 3903 1356 3753 
Q 1206 3603 1206 3356 
z
M 1125 1394 
Q 1125 1031 1311 828 
Q 1497 625 1775 625 
Q 2047 625 2225 820 
Q 2403 1016 2403 1384 
Q 2403 1706 2222 1901 
Q 2041 2097 1763 2097 
Q 1441 2097 1283 1875 
Q 1125 1653 1125 1394 
z
" transform="scale(0.015625)"/>
       </defs>
       <use xlink:href="#Arial-BoldMT-38"/>
      </g>
     </g>
    </g>
    <g id="xtick_10">
     <g id="line2d_10">
      <g>
       <use xlink:href="#m4693b79509" x="164.181993" y="198.907885" style="stroke: #000000; stroke-width: 2"/>
      </g>
     </g>
     <g id="text_10">
      <!-- 9 -->
      <g transform="translate(159.177149 224.791947) scale(0.18 -0.18)">
       <defs>
        <path id="Arial-BoldMT-39" d="M 291 1059 
L 1141 1153 
Q 1172 894 1303 769 
Q 1434 644 1650 644 
Q 1922 644 2112 894 
Q 2303 1144 2356 1931 
Q 2025 1547 1528 1547 
Q 988 1547 595 1964 
Q 203 2381 203 3050 
Q 203 3747 617 4173 
Q 1031 4600 1672 4600 
Q 2369 4600 2816 4061 
Q 3263 3522 3263 2288 
Q 3263 1031 2797 475 
Q 2331 -81 1584 -81 
Q 1047 -81 715 205 
Q 384 491 291 1059 
z
M 2278 2978 
Q 2278 3403 2083 3637 
Q 1888 3872 1631 3872 
Q 1388 3872 1227 3680 
Q 1066 3488 1066 3050 
Q 1066 2606 1241 2398 
Q 1416 2191 1678 2191 
Q 1931 2191 2104 2391 
Q 2278 2591 2278 2978 
z
" transform="scale(0.015625)"/>
       </defs>
       <use xlink:href="#Arial-BoldMT-39"/>
      </g>
     </g>
    </g>
    <g id="xtick_11">
     <g id="line2d_11">
      <g>
       <use xlink:href="#m4693b79509" x="56.727491" y="198.907885" style="stroke: #000000; stroke-width: 2"/>
      </g>
     </g>
     <g id="text_11">
      <!-- 10 -->
      <g transform="translate(46.717803 224.791947) scale(0.18 -0.18)">
       <use xlink:href="#Arial-BoldMT-31"/>
       <use xlink:href="#Arial-BoldMT-30" x="55.615234"/>
      </g>
     </g>
    </g>
    <g id="text_12">
     <!-- Chemical Shift / ppm -->
     <g transform="translate(504.992813 245.447573) scale(0.18 -0.18)">
      <defs>
       <path id="Arial-BoldMT-43" d="M 3397 1684 
L 4294 1400 
Q 4088 650 3608 286 
Q 3128 -78 2391 -78 
Q 1478 -78 890 545 
Q 303 1169 303 2250 
Q 303 3394 893 4026 
Q 1484 4659 2447 4659 
Q 3288 4659 3813 4163 
Q 4125 3869 4281 3319 
L 3366 3100 
Q 3284 3456 3026 3662 
Q 2769 3869 2400 3869 
Q 1891 3869 1573 3503 
Q 1256 3138 1256 2319 
Q 1256 1450 1568 1081 
Q 1881 713 2381 713 
Q 2750 713 3015 947 
Q 3281 1181 3397 1684 
z
" transform="scale(0.015625)"/>
       <path id="Arial-BoldMT-68" d="M 1334 4581 
L 1334 2897 
Q 1759 3394 2350 3394 
Q 2653 3394 2897 3281 
Q 3141 3169 3264 2994 
Q 3388 2819 3433 2606 
Q 3478 2394 3478 1947 
L 3478 0 
L 2600 0 
L 2600 1753 
Q 2600 2275 2550 2415 
Q 2500 2556 2373 2639 
Q 2247 2722 2056 2722 
Q 1838 2722 1666 2615 
Q 1494 2509 1414 2295 
Q 1334 2081 1334 1663 
L 1334 0 
L 456 0 
L 456 4581 
L 1334 4581 
z
" transform="scale(0.015625)"/>
       <path id="Arial-BoldMT-65" d="M 2381 1056 
L 3256 909 
Q 3088 428 2723 176 
Q 2359 -75 1813 -75 
Q 947 -75 531 491 
Q 203 944 203 1634 
Q 203 2459 634 2926 
Q 1066 3394 1725 3394 
Q 2466 3394 2894 2905 
Q 3322 2416 3303 1406 
L 1103 1406 
Q 1113 1016 1316 798 
Q 1519 581 1822 581 
Q 2028 581 2168 693 
Q 2309 806 2381 1056 
z
M 2431 1944 
Q 2422 2325 2234 2523 
Q 2047 2722 1778 2722 
Q 1491 2722 1303 2513 
Q 1116 2303 1119 1944 
L 2431 1944 
z
" transform="scale(0.015625)"/>
       <path id="Arial-BoldMT-6d" d="M 394 3319 
L 1203 3319 
L 1203 2866 
Q 1638 3394 2238 3394 
Q 2556 3394 2790 3262 
Q 3025 3131 3175 2866 
Q 3394 3131 3647 3262 
Q 3900 3394 4188 3394 
Q 4553 3394 4806 3245 
Q 5059 3097 5184 2809 
Q 5275 2597 5275 2122 
L 5275 0 
L 4397 0 
L 4397 1897 
Q 4397 2391 4306 2534 
Q 4184 2722 3931 2722 
Q 3747 2722 3584 2609 
Q 3422 2497 3350 2280 
Q 3278 2063 3278 1594 
L 3278 0 
L 2400 0 
L 2400 1819 
Q 2400 2303 2353 2443 
Q 2306 2584 2207 2653 
Q 2109 2722 1941 2722 
Q 1738 2722 1575 2612 
Q 1413 2503 1342 2297 
Q 1272 2091 1272 1613 
L 1272 0 
L 394 0 
L 394 3319 
z
" transform="scale(0.015625)"/>
       <path id="Arial-BoldMT-69" d="M 459 3769 
L 459 4581 
L 1338 4581 
L 1338 3769 
L 459 3769 
z
M 459 0 
L 459 3319 
L 1338 3319 
L 1338 0 
L 459 0 
z
" transform="scale(0.015625)"/>
       <path id="Arial-BoldMT-63" d="M 3353 2338 
L 2488 2181 
Q 2444 2441 2289 2572 
Q 2134 2703 1888 2703 
Q 1559 2703 1364 2476 
Q 1169 2250 1169 1719 
Q 1169 1128 1367 884 
Q 1566 641 1900 641 
Q 2150 641 2309 783 
Q 2469 925 2534 1272 
L 3397 1125 
Q 3263 531 2881 228 
Q 2500 -75 1859 -75 
Q 1131 -75 698 384 
Q 266 844 266 1656 
Q 266 2478 700 2936 
Q 1134 3394 1875 3394 
Q 2481 3394 2839 3133 
Q 3197 2872 3353 2338 
z
" transform="scale(0.015625)"/>
       <path id="Arial-BoldMT-61" d="M 1116 2306 
L 319 2450 
Q 453 2931 781 3162 
Q 1109 3394 1756 3394 
Q 2344 3394 2631 3255 
Q 2919 3116 3036 2902 
Q 3153 2688 3153 2116 
L 3144 1091 
Q 3144 653 3186 445 
Q 3228 238 3344 0 
L 2475 0 
Q 2441 88 2391 259 
Q 2369 338 2359 363 
Q 2134 144 1878 34 
Q 1622 -75 1331 -75 
Q 819 -75 523 203 
Q 228 481 228 906 
Q 228 1188 362 1408 
Q 497 1628 739 1745 
Q 981 1863 1438 1950 
Q 2053 2066 2291 2166 
L 2291 2253 
Q 2291 2506 2166 2614 
Q 2041 2722 1694 2722 
Q 1459 2722 1328 2630 
Q 1197 2538 1116 2306 
z
M 2291 1594 
Q 2122 1538 1756 1459 
Q 1391 1381 1278 1306 
Q 1106 1184 1106 997 
Q 1106 813 1243 678 
Q 1381 544 1594 544 
Q 1831 544 2047 700 
Q 2206 819 2256 991 
Q 2291 1103 2291 1419 
L 2291 1594 
z
" transform="scale(0.015625)"/>
       <path id="Arial-BoldMT-6c" d="M 459 0 
L 459 4581 
L 1338 4581 
L 1338 0 
L 459 0 
z
" transform="scale(0.015625)"/>
       <path id="Arial-BoldMT-20" transform="scale(0.015625)"/>
       <path id="Arial-BoldMT-53" d="M 231 1491 
L 1131 1578 
Q 1213 1125 1461 912 
Q 1709 700 2131 700 
Q 2578 700 2804 889 
Q 3031 1078 3031 1331 
Q 3031 1494 2936 1608 
Q 2841 1722 2603 1806 
Q 2441 1863 1863 2006 
Q 1119 2191 819 2459 
Q 397 2838 397 3381 
Q 397 3731 595 4036 
Q 794 4341 1167 4500 
Q 1541 4659 2069 4659 
Q 2931 4659 3367 4281 
Q 3803 3903 3825 3272 
L 2900 3231 
Q 2841 3584 2645 3739 
Q 2450 3894 2059 3894 
Q 1656 3894 1428 3728 
Q 1281 3622 1281 3444 
Q 1281 3281 1419 3166 
Q 1594 3019 2269 2859 
Q 2944 2700 3267 2529 
Q 3591 2359 3773 2064 
Q 3956 1769 3956 1334 
Q 3956 941 3737 597 
Q 3519 253 3119 86 
Q 2719 -81 2122 -81 
Q 1253 -81 787 320 
Q 322 722 231 1491 
z
" transform="scale(0.015625)"/>
       <path id="Arial-BoldMT-66" d="M 75 3319 
L 563 3319 
L 563 3569 
Q 563 3988 652 4194 
Q 741 4400 980 4529 
Q 1219 4659 1584 4659 
Q 1959 4659 2319 4547 
L 2200 3934 
Q 1991 3984 1797 3984 
Q 1606 3984 1523 3895 
Q 1441 3806 1441 3553 
L 1441 3319 
L 2097 3319 
L 2097 2628 
L 1441 2628 
L 1441 0 
L 563 0 
L 563 2628 
L 75 2628 
L 75 3319 
z
" transform="scale(0.015625)"/>
       <path id="Arial-BoldMT-74" d="M 1981 3319 
L 1981 2619 
L 1381 2619 
L 1381 1281 
Q 1381 875 1398 808 
Q 1416 741 1477 697 
Q 1538 653 1625 653 
Q 1747 653 1978 738 
L 2053 56 
Q 1747 -75 1359 -75 
Q 1122 -75 931 4 
Q 741 84 652 211 
Q 563 338 528 553 
Q 500 706 500 1172 
L 500 2619 
L 97 2619 
L 97 3319 
L 500 3319 
L 500 3978 
L 1381 4491 
L 1381 3319 
L 1981 3319 
z
" transform="scale(0.015625)"/>
       <path id="Arial-BoldMT-2f" d="M -9 -78 
L 1125 4659 
L 1784 4659 
L 638 -78 
L -9 -78 
z
" transform="scale(0.015625)"/>
       <path id="Arial-BoldMT-70" d="M 434 3319 
L 1253 3319 
L 1253 2831 
Q 1413 3081 1684 3237 
Q 1956 3394 2288 3394 
Q 2866 3394 3269 2941 
Q 3672 2488 3672 1678 
Q 3672 847 3265 386 
Q 2859 -75 2281 -75 
Q 2006 -75 1782 34 
Q 1559 144 1313 409 
L 1313 -1263 
L 434 -1263 
L 434 3319 
z
M 1303 1716 
Q 1303 1156 1525 889 
Q 1747 622 2066 622 
Q 2372 622 2575 867 
Q 2778 1113 2778 1672 
Q 2778 2194 2568 2447 
Q 2359 2700 2050 2700 
Q 1728 2700 1515 2451 
Q 1303 2203 1303 1716 
z
" transform="scale(0.015625)"/>
      </defs>
      <use xlink:href="#Arial-BoldMT-43"/>
      <use xlink:href="#Arial-BoldMT-68" x="72.216797"/>
      <use xlink:href="#Arial-BoldMT-65" x="133.300781"/>
      <use xlink:href="#Arial-BoldMT-6d" x="188.916016"/>
      <use xlink:href="#Arial-BoldMT-69" x="277.832031"/>
      <use xlink:href="#Arial-BoldMT-63" x="305.615234"/>
      <use xlink:href="#Arial-BoldMT-61" x="361.230469"/>
      <use xlink:href="#Arial-BoldMT-6c" x="416.845703"/>
      <use xlink:href="#Arial-BoldMT-20" x="444.628906"/>
      <use xlink:href="#Arial-BoldMT-53" x="472.412109"/>
      <use xlink:href="#Arial-BoldMT-68" x="539.111328"/>
      <use xlink:href="#Arial-BoldMT-69" x="600.195312"/>
      <use xlink:href="#Arial-BoldMT-66" x="627.978516"/>
      <use xlink:href="#Arial-BoldMT-74" x="661.279297"/>
      <use xlink:href="#Arial-BoldMT-20" x="694.580078"/>
      <use xlink:href="#Arial-BoldMT-2f" x="722.363281"/>
      <use xlink:href="#Arial-BoldMT-20" x="750.146484"/>
      <use xlink:href="#Arial-BoldMT-70" x="777.929688"/>
      <use xlink:href="#Arial-BoldMT-70" x="839.013672"/>
      <use xlink:href="#Arial-BoldMT-6d" x="900.097656"/>
     </g>
    </g>
   </g>
   <g id="matplotlib.axis_2"/>
   <g id="line2d_12">
    <path d="M 2.955871 189.345143 
L 3.160491 189.572824 
L 3.365111 189.625509 
L 3.97897 189.42229 
L 4.592829 189.413567 
L 4.797449 189.733167 
L 5.411308 191.552369 
L 5.615928 191.436105 
L 6.434407 189.706611 
L 6.843646 189.330372 
L 7.048266 189.367667 
L 7.252886 189.528397 
L 7.457505 189.52076 
L 7.662125 189.077802 
L 8.480604 185.984933 
L 8.685224 186.360396 
L 9.094463 188.788519 
L 9.503703 191.089098 
L 9.912942 191.854484 
L 10.526801 192.580366 
L 10.936041 193.041893 
L 11.34528 193.014446 
L 11.5499 193.00708 
L 11.75452 193.292486 
L 12.368379 195.545962 
L 12.572999 195.582481 
L 12.777618 194.99903 
L 13.186858 192.763116 
L 14.005337 187.969479 
L 15.642294 181.152722 
L 16.051534 180.553687 
L 16.665393 180.159965 
L 16.870013 180.174542 
L 17.893111 180.931787 
L 18.097731 180.91628 
L 18.302351 181.111125 
L 18.506971 181.706167 
L 19.939309 188.638916 
L 20.143928 188.827636 
L 20.348548 188.575802 
L 21.780886 185.292817 
L 21.985506 185.477893 
L 22.394745 186.481351 
L 23.008605 188.699005 
L 23.827083 189.847453 
L 24.236323 190.83897 
L 24.645562 190.992567 
L 25.054802 191.084833 
L 25.259422 190.823075 
L 25.668661 189.226321 
L 26.0779 187.399597 
L 26.28252 186.844137 
L 26.48714 186.672785 
L 27.100999 186.901396 
L 27.714858 186.275883 
L 27.919478 186.306781 
L 28.328717 186.999672 
L 28.737957 187.674963 
L 29.147196 187.728307 
L 29.556436 187.419601 
L 29.965675 187.044216 
L 30.170295 187.228206 
L 30.579534 188.266826 
L 31.602633 190.963375 
L 32.421112 192.937764 
L 32.625732 193.003785 
L 33.034971 192.529503 
L 33.444211 191.896159 
L 33.85345 191.555354 
L 34.26269 190.806638 
L 35.285788 188.573438 
L 36.104267 185.245676 
L 36.308887 185.074401 
L 36.922746 185.758337 
L 37.127366 185.421874 
L 37.536605 183.082335 
L 38.150464 178.713861 
L 38.355084 177.938317 
L 38.559704 177.629651 
L 38.764324 177.757506 
L 39.173563 179.024349 
L 39.992042 182.209679 
L 41.21976 186.164039 
L 41.833619 185.937714 
L 42.038239 186.16714 
L 42.447479 187.379787 
L 43.265958 190.121229 
L 43.470577 190.570622 
L 43.675197 190.673006 
L 43.879817 190.391748 
L 45.516775 186.812115 
L 45.926014 186.295965 
L 46.335253 186.292786 
L 46.744493 186.654641 
L 47.153732 187.689345 
L 47.767592 189.957514 
L 47.972211 190.139101 
L 48.176831 189.807949 
L 48.79069 187.690702 
L 48.99531 187.441544 
L 49.609169 187.25387 
L 50.018409 186.969201 
L 50.427648 187.062553 
L 50.632268 187.109849 
L 50.836887 186.96544 
L 51.859986 185.296694 
L 52.473845 185.188572 
L 52.678465 185.312628 
L 52.883085 185.723369 
L 53.701564 188.105863 
L 53.906183 188.028289 
L 54.315423 187.714118 
L 54.724662 187.673296 
L 55.338521 186.883563 
L 55.543141 186.952182 
L 55.747761 187.300663 
L 56.157 188.797242 
L 56.56624 190.190468 
L 56.77086 190.274167 
L 56.975479 189.880095 
L 57.998578 186.493562 
L 58.612437 186.10802 
L 59.840155 182.822321 
L 60.044775 182.653954 
L 60.249395 182.643293 
L 60.863254 183.056399 
L 61.477113 182.714393 
L 61.681733 183.006002 
L 62.090972 184.825708 
L 63.318691 192.309149 
L 63.52331 192.758658 
L 63.72793 192.595718 
L 64.546409 189.813725 
L 64.751029 190.161702 
L 65.364888 192.082902 
L 65.569508 192.031729 
L 65.774127 191.483789 
L 66.183367 189.325643 
L 68.024944 176.519815 
L 68.434184 175.042891 
L 68.843423 175.077316 
L 69.048043 174.785824 
L 69.252663 173.878316 
L 69.661902 169.848359 
L 71.7081 138.891677 
L 72.321959 122.206272 
L 72.935818 98.851001 
L 73.958917 55.69935 
L 74.368156 49.865543 
L 74.572776 49.915514 
L 74.777395 51.638108 
L 75.186635 59.943846 
L 75.800494 82.869535 
L 76.823593 122.849347 
L 77.437452 140.052647 
L 78.051311 151.714485 
L 78.460551 156.832102 
L 78.86979 159.939741 
L 79.892889 164.494183 
L 80.506748 167.58178 
L 81.325227 172.054578 
L 82.143706 175.619673 
L 82.348325 175.827002 
L 82.962185 175.404475 
L 83.166804 175.560398 
L 83.371424 176.095467 
L 83.780663 178.105676 
L 84.394523 181.56579 
L 84.599142 182.262054 
L 84.803762 182.476826 
L 85.008382 182.149551 
L 85.622241 180.116662 
L 85.826861 180.123717 
L 86.03148 180.649598 
L 87.259199 186.34485 
L 87.873058 190.210472 
L 88.282297 192.551213 
L 88.691537 193.997511 
L 88.896157 194.359367 
L 89.100776 194.451789 
L 89.510016 194.155101 
L 89.919255 193.959597 
L 90.328495 194.066789 
L 90.533114 193.695706 
L 91.146974 190.579693 
L 91.965453 187.065266 
L 92.783931 184.958913 
L 92.988551 184.725921 
L 93.193171 184.932668 
L 94.21627 187.38692 
L 94.625509 187.58696 
L 94.830129 187.940946 
L 95.648608 190.748254 
L 95.853227 190.778958 
L 96.057847 190.187405 
L 96.876326 186.486197 
L 97.080946 186.490306 
L 97.490185 186.979396 
L 97.694805 186.958811 
L 98.104044 186.269409 
L 99.741002 182.202003 
L 100.150242 181.424986 
L 100.354861 181.254565 
L 100.559481 181.230723 
L 100.764101 181.443401 
L 101.17334 182.787896 
L 102.196439 187.088682 
L 102.605678 188.113965 
L 103.014918 188.831823 
L 103.424157 190.893089 
L 104.038016 194.463496 
L 104.242636 194.745375 
L 104.447256 194.470242 
L 104.856495 192.913224 
L 105.470354 190.591168 
L 106.288833 189.179955 
L 106.698073 188.434146 
L 106.902693 188.392587 
L 107.516552 188.732656 
L 107.721171 188.63783 
L 108.130411 187.978706 
L 108.74427 186.52194 
L 109.15351 185.674444 
L 109.358129 185.576828 
L 109.767369 185.770433 
L 110.176608 186.217693 
L 110.585848 187.63007 
L 111.199707 189.752512 
L 112.018186 191.907595 
L 113.041284 195.624233 
L 113.245904 195.571006 
L 113.655144 194.351962 
L 114.473622 190.526427 
L 115.292101 186.801493 
L 115.905961 185.495688 
L 116.51982 184.233031 
L 116.724439 184.472343 
L 117.338299 186.779124 
L 117.542918 187.004401 
L 117.747538 186.812309 
L 118.361397 185.567601 
L 118.566017 185.834399 
L 118.975256 187.504773 
L 119.384496 189.070824 
L 119.589116 189.291023 
L 119.793735 189.186041 
L 120.407595 188.356921 
L 120.816834 187.239875 
L 121.226073 186.079565 
L 121.430693 186.046651 
L 121.635313 186.417888 
L 122.863031 190.663431 
L 123.272271 191.981486 
L 123.68151 192.460226 
L 124.09075 192.62584 
L 124.295369 192.85674 
L 124.704609 193.894855 
L 125.727707 196.589039 
L 125.932327 196.793034 
L 126.136947 196.625093 
L 126.955426 194.514282 
L 127.160046 194.685712 
L 127.569285 195.257997 
L 127.773905 195.278854 
L 128.183144 194.833687 
L 128.592384 194.130251 
L 129.206243 192.484184 
L 129.410863 192.500389 
L 129.820102 193.73742 
L 130.843201 197.195285 
L 131.04782 197.181678 
L 131.45706 196.400319 
L 132.275539 194.332617 
L 132.684778 193.715362 
L 133.707877 192.55257 
L 134.117116 192.117948 
L 134.321736 192.041847 
L 134.526356 192.22921 
L 134.935595 193.474732 
L 135.958694 197.451616 
L 136.163313 197.576176 
L 136.367933 197.162062 
L 138.209511 190.975121 
L 138.41413 191.004585 
L 138.61875 191.291968 
L 139.02799 192.695467 
L 139.641849 196.71263 
L 140.051088 199.093535 
L 140.255708 199.683614 
L 140.460328 199.653608 
L 140.869567 198.026266 
L 142.301905 191.018812 
L 142.711145 190.627338 
L 142.915764 190.65277 
L 143.120384 190.843622 
L 143.529624 191.840295 
L 144.348103 194.151845 
L 144.757342 194.712616 
L 145.371201 195.157977 
L 145.575821 194.961581 
L 145.98506 193.707686 
L 146.803539 190.773104 
L 147.417398 188.84733 
L 148.235877 184.691767 
L 149.258976 181.590795 
L 149.463596 181.53214 
L 149.668215 181.645031 
L 149.872835 181.95048 
L 150.077455 182.606154 
L 150.486694 185.507899 
L 151.100554 190.855718 
L 151.305173 191.393926 
L 151.509793 191.191173 
L 152.532892 188.232749 
L 152.737511 188.363977 
L 153.146751 189.0873 
L 153.96523 191.109296 
L 154.374469 189.735803 
L 154.783709 188.5268 
L 155.192948 187.922725 
L 155.397568 187.908614 
L 155.602188 188.221894 
L 156.011427 189.785541 
L 156.420666 191.187567 
L 156.625286 191.380784 
L 157.034526 191.412419 
L 157.443765 191.657041 
L 157.648385 191.509298 
L 158.876103 188.617632 
L 160.308441 183.074426 
L 160.717681 181.259178 
L 160.9223 180.822966 
L 161.12692 180.762218 
L 161.33154 181.111939 
L 161.740779 182.911525 
L 162.354639 186.287397 
L 162.763878 187.325357 
L 163.377737 188.569793 
L 163.786977 189.475324 
L 163.991596 189.641637 
L 164.196216 189.512967 
L 164.605456 188.485823 
L 165.219315 186.790754 
L 165.423934 186.574742 
L 165.628554 186.600677 
L 165.833174 186.971333 
L 166.856273 190.072808 
L 167.265512 191.338256 
L 167.879371 193.866516 
L 168.083991 194.109355 
L 168.288611 193.649922 
L 169.311709 188.143545 
L 169.516329 188.088146 
L 169.925568 188.708387 
L 170.539428 189.880638 
L 170.744047 189.745882 
L 171.153287 188.201851 
L 171.562526 186.841694 
L 171.971766 186.375012 
L 172.176385 186.439908 
L 172.381005 186.741248 
L 173.199484 188.638606 
L 173.813343 188.945567 
L 174.427202 189.295676 
L 174.631822 189.279703 
L 174.836442 188.991428 
L 176.678019 183.158978 
L 176.882639 183.380573 
L 177.291879 184.916695 
L 177.905738 187.290273 
L 178.314977 188.000648 
L 178.928836 188.379949 
L 179.133456 188.363046 
L 179.747315 187.934007 
L 180.156555 188.198285 
L 180.565794 188.758165 
L 180.975034 189.756853 
L 181.384273 190.924724 
L 181.793513 191.43847 
L 181.998132 191.416683 
L 182.611991 190.961669 
L 182.816611 191.080802 
L 183.43047 192.124034 
L 183.63509 192.121359 
L 183.83971 191.994551 
L 184.04433 192.047003 
L 184.248949 192.499342 
L 184.862808 194.875401 
L 185.476668 195.817334 
L 185.681287 195.888395 
L 186.090527 195.443965 
L 186.295147 195.227836 
L 186.499766 195.183137 
L 187.727485 195.738714 
L 187.932104 195.700683 
L 188.136724 195.510024 
L 188.341344 195.050242 
L 189.159823 192.000327 
L 189.364442 192.071117 
L 190.182921 193.884349 
L 190.387541 193.539318 
L 190.796781 191.801489 
L 191.615259 188.301794 
L 192.024499 187.279728 
L 192.229119 187.047937 
L 192.433738 187.059723 
L 193.252217 187.871048 
L 194.070696 190.42284 
L 194.275316 190.237764 
L 194.684555 188.702843 
L 195.503034 185.180857 
L 195.912274 184.396242 
L 196.116893 184.415509 
L 196.321513 184.722005 
L 196.730753 185.909686 
L 197.549232 189.606126 
L 197.958471 191.129028 
L 198.163091 191.40765 
L 198.36771 191.104178 
L 199.595429 186.130311 
L 199.800049 185.859094 
L 200.004668 186.112594 
L 200.413908 187.986692 
L 201.437006 194.448455 
L 201.641626 194.314746 
L 202.050866 192.832432 
L 202.460105 190.313865 
L 203.073964 186.296469 
L 203.278584 185.728331 
L 203.483204 185.647152 
L 204.097063 186.197805 
L 204.301683 185.9866 
L 204.710922 184.87882 
L 205.120161 183.072333 
L 206.34788 176.063096 
L 206.757119 175.347913 
L 207.370978 175.140546 
L 207.780218 175.122752 
L 207.984838 174.802881 
L 208.394077 172.97546 
L 209.007936 169.301544 
L 209.417176 168.264747 
L 209.621795 168.174418 
L 210.031035 168.250674 
L 210.235655 167.948404 
L 211.463373 164.020871 
L 211.667993 164.1093 
L 212.077232 165.838368 
L 212.486472 167.425508 
L 213.100331 168.519294 
L 214.328049 172.5974 
L 214.941908 173.234776 
L 215.351148 173.481608 
L 215.555767 173.475367 
L 215.760387 173.581396 
L 215.965007 173.918479 
L 216.783486 176.443831 
L 216.988106 176.507604 
L 217.397345 176.365404 
L 218.420444 176.927106 
L 218.625063 177.279464 
L 219.034303 178.676876 
L 219.443542 180.022612 
L 219.648162 180.18559 
L 220.057401 179.80563 
L 220.466641 179.485217 
L 220.671261 179.570118 
L 220.87588 179.989698 
L 221.28512 181.884846 
L 222.717458 190.767134 
L 222.922078 191.221101 
L 223.126697 191.252968 
L 223.331317 190.774461 
L 224.149796 187.036772 
L 224.354416 186.740628 
L 224.559035 186.704264 
L 224.968275 187.161797 
L 225.377514 187.896984 
L 225.786754 189.04202 
L 226.195993 190.863975 
L 226.605233 192.938927 
L 226.809852 193.415534 
L 227.014472 193.349164 
L 227.423712 192.149582 
L 227.832951 190.997955 
L 228.037571 190.94686 
L 228.44681 191.427538 
L 228.65143 191.385398 
L 229.060669 190.687854 
L 229.674529 189.632294 
L 229.879148 189.592363 
L 230.083768 189.783099 
L 230.697627 190.690336 
L 230.902247 190.690956 
L 232.129965 189.8076 
L 232.539205 189.096954 
L 232.743825 189.08668 
L 232.948444 189.463888 
L 233.562303 191.329844 
L 233.766923 191.578847 
L 233.971543 191.550392 
L 234.380782 191.24409 
L 234.585402 191.282935 
L 234.994642 191.486077 
L 235.199261 191.113599 
L 235.608501 189.078306 
L 236.01774 186.920121 
L 236.22236 186.477435 
L 236.42698 186.510969 
L 236.631599 186.92109 
L 237.040839 188.751574 
L 238.063937 195.690332 
L 238.268557 195.589304 
L 238.677797 194.365686 
L 239.087036 192.960753 
L 239.496276 192.260806 
L 239.905515 192.065146 
L 240.723994 191.923606 
L 241.133233 191.438354 
L 241.542473 190.591672 
L 242.360952 188.169015 
L 242.565571 188.182157 
L 242.974811 189.129286 
L 243.58867 190.554107 
L 244.611769 192.005445 
L 244.816388 191.976485 
L 245.021008 191.543801 
L 245.430248 189.583834 
L 246.248727 184.743521 
L 246.862586 183.028642 
L 247.067205 182.693807 
L 247.271825 182.709624 
L 247.681065 183.603331 
L 248.499544 185.812573 
L 248.704163 185.95516 
L 248.908783 185.839245 
L 249.318022 184.937669 
L 249.727262 183.753245 
L 249.931882 183.516918 
L 250.136501 183.540566 
L 250.341121 183.771543 
L 250.75036 184.745111 
L 251.36422 186.376679 
L 252.387318 188.181537 
L 253.205797 190.359882 
L 253.410417 190.36558 
L 253.615037 189.745107 
L 254.024276 186.608741 
L 254.433516 183.374409 
L 254.638135 182.651008 
L 254.842755 182.572232 
L 255.047375 183.012747 
L 255.456614 185.092506 
L 255.865854 187.096978 
L 256.070473 187.411227 
L 256.275093 187.172458 
L 256.684333 185.397218 
L 257.502811 180.990326 
L 257.707431 180.927522 
L 258.52591 182.730365 
L 258.73053 182.788981 
L 258.93515 182.564828 
L 259.344389 181.392305 
L 259.753628 179.375272 
L 260.162868 177.03864 
L 260.367488 176.359008 
L 260.572107 176.196843 
L 260.776727 176.546332 
L 261.390586 178.954025 
L 262.209065 182.340054 
L 262.618305 183.042521 
L 262.822924 182.855429 
L 263.641403 180.792805 
L 264.459882 178.120796 
L 264.664502 178.217482 
L 265.073741 179.505337 
L 265.687601 181.74947 
L 265.89222 181.905819 
L 266.09684 181.746834 
L 266.915319 180.427693 
L 267.119939 180.328216 
L 267.733798 180.488946 
L 267.938418 180.242307 
L 268.347657 179.423267 
L 268.552277 179.346429 
L 268.961516 179.934377 
L 269.370756 180.935314 
L 270.393854 184.907508 
L 271.416953 187.632435 
L 271.621573 187.305392 
L 272.030812 185.595824 
L 272.440052 184.088079 
L 273.25853 182.795921 
L 273.87239 180.991295 
L 274.077009 181.032892 
L 275.713967 184.182439 
L 276.737066 184.804619 
L 277.146305 184.9134 
L 277.964784 184.606556 
L 278.578643 184.830903 
L 279.601742 184.53879 
L 280.215601 185.150114 
L 280.420221 184.868081 
L 281.2387 182.338116 
L 281.852559 182.00111 
L 282.466418 180.744501 
L 283.080277 179.224312 
L 283.694137 177.526645 
L 283.898756 177.172233 
L 284.103376 177.043797 
L 284.717235 177.196308 
L 285.944954 175.406917 
L 286.354193 174.374346 
L 286.763432 173.14782 
L 286.968052 172.79147 
L 287.172672 172.765069 
L 287.786531 173.678935 
L 288.60501 175.085147 
L 289.014249 176.154936 
L 290.037348 177.716877 
L 290.241968 177.676133 
L 291.469686 175.445297 
L 291.878926 174.655255 
L 292.697404 172.445741 
L 292.902024 172.330718 
L 293.106644 172.430893 
L 293.925123 173.542241 
L 294.129743 173.51522 
L 294.334362 173.18023 
L 295.152841 170.872325 
L 295.7667 168.14701 
L 295.97132 167.919096 
L 296.17594 168.220978 
L 296.585179 169.915853 
L 297.403658 173.811403 
L 298.017517 176.080464 
L 298.222137 176.411189 
L 298.426757 176.457283 
L 298.835996 176.226539 
L 299.040616 176.292677 
L 299.245236 176.703728 
L 300.063715 179.599271 
L 300.268334 179.833853 
L 300.472954 179.733096 
L 300.882194 178.708084 
L 301.700672 176.213087 
L 302.723771 172.035349 
L 303.54225 169.939036 
L 304.565349 166.182623 
L 304.974588 166.116525 
L 305.179208 165.805687 
L 305.588447 163.715306 
L 306.202306 160.05585 
L 306.816166 157.838195 
L 307.225405 156.121145 
L 307.634645 152.872818 
L 308.248504 145.628806 
L 309.476222 127.781345 
L 310.090081 119.916239 
L 311.931659 99.790337 
L 312.136279 98.94947 
L 312.340898 98.615449 
L 312.545518 98.727991 
L 312.954757 100.044186 
L 313.977856 104.195213 
L 314.796335 108.085878 
L 315.614814 113.567793 
L 316.433293 120.820994 
L 316.637913 121.699039 
L 316.842532 122.047597 
L 317.047152 122.099313 
L 317.251772 121.990415 
L 317.456391 121.66252 
L 317.661011 120.988237 
L 318.070251 118.454356 
L 319.297969 107.825516 
L 319.911828 102.274789 
L 320.321068 100.560026 
L 320.730307 99.79526 
L 320.934927 99.835733 
L 321.344166 100.67187 
L 321.753406 102.210823 
L 322.162645 105.182466 
L 322.776504 110.146098 
L 323.390364 112.765772 
L 324.004223 114.868481 
L 324.413462 115.530048 
L 325.027321 116.070622 
L 325.436561 116.808793 
L 326.05042 118.595857 
L 326.868899 121.507411 
L 327.278138 123.309129 
L 327.482758 123.791474 
L 327.687378 123.753521 
L 328.096617 122.621433 
L 328.505857 121.562034 
L 328.710476 121.363545 
L 329.324336 121.453757 
L 329.528955 121.12621 
L 329.938195 119.476848 
L 330.347434 117.742973 
L 331.370533 115.051812 
L 331.779772 111.078068 
L 332.189012 104.117368 
L 332.802871 89.496331 
L 333.62135 63.95973 
L 334.849068 23.875479 
L 335.258308 18.082959 
L 335.462927 17.15661 
L 335.667547 17.656982 
L 335.872167 19.575235 
L 336.281406 26.884455 
L 337.304505 53.259752 
L 338.122984 72.942387 
L 338.532223 78.281211 
L 338.941463 81.397185 
L 339.350702 82.953312 
L 339.759942 83.513579 
L 339.964561 83.226816 
L 340.169181 82.175791 
L 340.578421 77.113961 
L 340.98766 68.457029 
L 341.601519 50.079423 
L 342.624618 15.617347 
L 343.033857 7.388292 
L 343.443097 3.228542 
L 343.647716 3.00024 
L 343.852336 4.006256 
L 344.261576 9.02048 
L 344.670815 18.630317 
L 345.489294 47.400358 
L 346.512393 83.745409 
L 346.921632 92.520582 
L 347.330872 97.365392 
L 348.55859 106.479858 
L 349.581689 117.147427 
L 350.195548 121.262052 
L 351.218646 125.344499 
L 351.832506 126.586842 
L 352.241745 127.129819 
L 352.855604 127.22949 
L 353.060224 127.497878 
L 355.515661 133.52246 
L 355.72028 134.323667 
L 356.12952 137.837473 
L 357.152618 148.465732 
L 357.561858 149.735483 
L 357.971097 150.17499 
L 358.380337 151.393141 
L 358.994196 154.701984 
L 359.608055 158.182063 
L 360.017295 159.774631 
L 360.221914 160.205648 
L 360.426534 160.17382 
L 360.835774 159.089377 
L 361.245013 157.717163 
L 361.449633 157.366938 
L 361.654252 157.607878 
L 362.063492 159.807544 
L 362.472731 162.380697 
L 362.677351 163.184308 
L 362.881971 163.515886 
L 363.086591 163.461689 
L 363.49583 162.834315 
L 364.109689 161.592476 
L 364.314309 161.503389 
L 364.723548 161.994108 
L 365.132788 162.861879 
L 365.746647 164.748614 
L 366.155886 165.223089 
L 366.565126 165.565212 
L 367.383605 166.791234 
L 368.406703 168.780781 
L 368.611323 168.703633 
L 368.815943 168.189615 
L 370.043661 163.187022 
L 370.452901 162.232876 
L 370.86214 161.764759 
L 371.06676 161.780189 
L 371.475999 162.215431 
L 371.885239 163.280451 
L 372.703718 166.422555 
L 373.522197 170.167842 
L 374.340675 175.080379 
L 374.749915 176.340632 
L 375.159154 176.728927 
L 375.363774 176.584092 
L 375.568394 176.051078 
L 375.977633 173.492153 
L 376.591492 169.135464 
L 376.796112 168.578453 
L 377.000732 168.344104 
L 377.205352 168.281223 
L 377.614591 168.496421 
L 378.22845 168.949613 
L 378.63769 169.80587 
L 379.046929 170.949356 
L 379.251549 171.060967 
L 379.660788 170.777771 
L 379.865408 171.060696 
L 380.683887 174.50003 
L 380.888507 174.584892 
L 381.093126 174.5079 
L 381.297746 174.602725 
L 381.706986 175.628784 
L 382.116225 176.625767 
L 382.730084 177.060389 
L 383.343943 176.858488 
L 383.548563 177.19278 
L 384.162422 179.094635 
L 384.776282 181.059448 
L 384.980901 181.38304 
L 385.390141 181.472903 
L 386.004 181.60258 
L 386.413239 181.053439 
L 386.822479 180.587144 
L 387.640958 180.036335 
L 388.050197 179.648738 
L 388.459437 179.527745 
L 388.664056 179.279284 
L 389.482535 177.19088 
L 390.096394 177.787318 
L 390.505634 177.604878 
L 390.914873 177.444691 
L 391.324113 177.869621 
L 391.733352 178.830589 
L 392.142592 181.366099 
L 392.756451 186.15551 
L 393.16569 187.396418 
L 393.57493 187.670543 
L 393.77955 187.576299 
L 394.393409 186.984514 
L 394.598028 187.164085 
L 395.211888 188.640544 
L 395.416507 188.760413 
L 395.825747 188.760917 
L 396.030367 188.971967 
L 396.439606 190.237066 
L 396.848845 191.747098 
L 397.053465 192.150086 
L 397.258085 192.275848 
L 397.462705 192.184783 
L 398.281184 191.070683 
L 398.485803 191.093634 
L 399.099662 191.624244 
L 399.304282 191.577064 
L 399.713522 191.097006 
L 400.122761 189.880134 
L 401.555099 183.82543 
L 401.964339 182.876014 
L 402.578198 182.310978 
L 402.782818 182.354514 
L 402.987437 182.817786 
L 403.396677 185.180973 
L 403.805916 187.721096 
L 404.010536 188.460934 
L 404.215156 188.727848 
L 404.419775 188.474115 
L 404.829015 186.540083 
L 405.442874 182.716486 
L 405.647494 182.283066 
L 405.852113 182.479307 
L 406.261353 183.986547 
L 406.670592 185.514839 
L 407.284451 186.690307 
L 408.30755 190.523131 
L 408.51217 190.457614 
L 409.330649 189.062528 
L 409.739888 188.84198 
L 410.149128 188.280743 
L 410.353747 188.193555 
L 410.558367 188.399565 
L 410.967607 189.719365 
L 411.376846 191.084019 
L 411.581466 191.308677 
L 412.399945 190.962832 
L 412.809184 189.833497 
L 413.218424 188.66772 
L 413.627663 188.100087 
L 414.241522 187.535438 
L 414.650762 186.737371 
L 415.469241 184.646254 
L 415.87848 182.66888 
L 416.287719 180.540274 
L 416.492339 180.191289 
L 416.696959 180.433935 
L 417.515438 182.976538 
L 417.720058 183.185379 
L 418.538536 183.394878 
L 418.743156 183.89777 
L 419.152396 185.767641 
L 420.175494 192.310041 
L 420.380114 192.627818 
L 420.584734 192.629485 
L 421.403213 191.994628 
L 421.607832 191.944967 
L 422.221692 191.373225 
L 422.426311 191.562642 
L 422.835551 192.184783 
L 423.04017 192.071427 
L 423.44941 190.761319 
L 423.858649 189.643769 
L 424.063269 189.537856 
L 424.472509 189.692344 
L 424.677128 189.569607 
L 425.495607 188.381694 
L 425.700227 188.233369 
L 425.904847 188.241084 
L 426.518706 188.803522 
L 427.132565 189.557511 
L 427.337185 189.476293 
L 428.155664 188.1047 
L 429.383382 189.001159 
L 429.792621 190.222877 
L 430.406481 192.491395 
L 430.6111 192.722139 
L 430.81572 192.550438 
L 431.429579 191.435485 
L 431.838819 191.734266 
L 432.043438 191.8282 
L 432.248058 191.718604 
L 432.657298 191.061379 
L 433.066537 190.46498 
L 433.271157 190.459863 
L 433.680396 190.777097 
L 434.703495 192.48147 
L 435.112734 192.554082 
L 435.521974 193.171919 
L 435.931213 193.710283 
L 436.340453 194.029843 
L 436.749692 194.625389 
L 437.158932 195.620899 
L 437.568171 197.616571 
L 437.977411 199.508153 
L 438.18203 199.767352 
L 438.38665 199.576849 
L 438.795889 198.323535 
L 440.637467 191.663167 
L 441.455946 188.122145 
L 441.865185 187.295119 
L 442.274425 186.735937 
L 442.479045 186.667512 
L 442.683664 186.991957 
L 443.092904 188.849113 
L 443.706763 191.746594 
L 443.911383 192.193777 
L 444.116002 192.209827 
L 444.320622 191.708098 
L 445.139101 188.179793 
L 445.54834 187.511247 
L 445.75296 187.43662 
L 446.1622 187.657517 
L 446.571439 187.93013 
L 446.980678 188.134822 
L 447.389918 188.779952 
L 447.799157 189.905759 
L 448.413017 191.92035 
L 448.617636 192.125081 
L 449.231495 191.905386 
L 449.436115 191.591485 
L 450.459214 188.746767 
L 451.073073 188.528622 
L 451.277693 188.843414 
L 451.891552 191.189234 
L 452.096172 191.396795 
L 452.300791 191.204547 
L 452.710031 190.46405 
L 453.11927 190.252845 
L 453.52851 190.33414 
L 453.733129 190.48386 
L 453.937749 190.796209 
L 454.142369 191.388111 
L 454.551608 193.684968 
L 455.165468 197.762492 
L 455.370087 198.306128 
L 455.574707 198.264105 
L 456.188566 197.082821 
L 456.597806 196.503712 
L 456.802425 195.866956 
L 457.211665 193.272249 
L 457.620904 190.320804 
L 457.825524 189.759451 
L 458.030144 189.821556 
L 458.439383 190.967794 
L 459.462482 195.239582 
L 460.076341 196.659984 
L 460.48558 197.529112 
L 460.6902 197.62479 
L 460.89482 197.271037 
L 461.304059 195.459782 
L 461.917919 192.279027 
L 462.327158 191.844482 
L 462.531778 191.642193 
L 462.941017 190.513052 
L 463.554876 188.459422 
L 463.759496 188.342034 
L 464.168736 188.619067 
L 464.373355 188.973673 
L 464.987214 190.842886 
L 465.191834 190.890337 
L 465.396454 190.464476 
L 466.419553 187.041308 
L 467.238031 186.248978 
L 467.442651 186.518994 
L 467.851891 188.247287 
L 468.874989 193.300743 
L 469.488848 195.037798 
L 469.693468 195.055359 
L 469.898088 194.498503 
L 470.921187 189.049076 
L 471.330426 188.596465 
L 471.535046 188.704898 
L 472.148905 189.926926 
L 472.353525 189.907465 
L 472.762764 189.269818 
L 472.967384 189.16406 
L 473.376623 189.28862 
L 473.785863 188.888811 
L 473.990482 188.716102 
L 474.808961 188.791815 
L 475.013581 188.927423 
L 475.422821 189.797521 
L 476.241299 192.236654 
L 477.878257 198.302058 
L 478.287497 199.119935 
L 478.492116 199.20755 
L 478.696736 198.847671 
L 479.105976 196.896582 
L 480.538314 188.256824 
L 480.947553 187.216576 
L 481.152173 187.083061 
L 481.766032 187.110818 
L 482.175271 186.873833 
L 482.99375 187.294886 
L 483.19837 187.613322 
L 483.60761 189.062838 
L 484.016849 190.756628 
L 484.221469 191.207145 
L 484.426088 191.202725 
L 484.835328 190.08219 
L 485.244567 188.7646 
L 485.449187 188.439457 
L 485.653807 188.40507 
L 486.063046 188.920833 
L 486.472286 190.127936 
L 487.495384 194.618334 
L 487.700004 194.739366 
L 488.109244 194.513933 
L 488.927722 194.595073 
L 489.541582 194.16018 
L 489.746201 194.399763 
L 490.360061 195.953718 
L 490.7693 196.10402 
L 491.178539 196.349689 
L 491.383159 196.471574 
L 491.997018 196.359846 
L 492.201638 196.694138 
L 493.020117 199.329163 
L 493.224737 199.382314 
L 493.429356 198.990181 
L 493.838596 196.918757 
L 494.452455 193.08163 
L 494.657075 192.817429 
L 494.861695 193.182619 
L 496.089413 197.54051 
L 496.498652 198.259297 
L 496.703272 198.35389 
L 497.521751 198.134466 
L 497.93099 198.321364 
L 498.13561 198.170442 
L 498.954089 196.610168 
L 499.772568 196.595514 
L 499.977188 196.508519 
L 500.181807 196.238775 
L 501.000286 194.560609 
L 501.204906 194.679199 
L 502.023385 195.814039 
L 502.228005 195.863119 
L 502.637244 195.633886 
L 503.046484 195.265091 
L 503.455723 194.466249 
L 503.660343 194.069425 
L 503.864963 194.033022 
L 504.069582 194.444578 
L 504.478822 196.23424 
L 505.092681 199.092682 
L 505.297301 199.453491 
L 505.50192 199.528467 
L 505.70654 199.404721 
L 506.11578 198.696788 
L 506.729639 197.468751 
L 507.138878 196.630559 
L 507.957357 193.005025 
L 508.161977 192.929661 
L 508.366597 193.482059 
L 509.594315 199.22139 
L 509.798935 199.444768 
L 510.003554 199.137691 
L 510.412794 197.616067 
L 511.435892 192.983974 
L 512.049752 191.700461 
L 512.254371 191.610094 
L 512.458991 191.796837 
L 512.868231 192.804636 
L 513.48209 194.561694 
L 513.686709 194.456402 
L 514.095949 193.114931 
L 514.914428 190.28634 
L 515.119048 189.865674 
L 515.323667 189.791783 
L 515.528287 190.158213 
L 516.756005 194.341146 
L 516.960625 194.694589 
L 517.165245 194.7037 
L 517.779104 193.530945 
L 517.983724 193.580451 
L 518.188343 194.000923 
L 518.802203 196.462619 
L 519.211442 197.944854 
L 519.416062 198.249838 
L 519.620682 198.310005 
L 519.825301 198.194556 
L 520.64378 197.283404 
L 521.05302 197.330661 
L 521.462259 196.687354 
L 522.280738 194.786817 
L 523.099217 192.100425 
L 523.303837 191.824788 
L 523.508456 191.877318 
L 524.326935 193.004482 
L 524.531555 193.006304 
L 524.736175 193.150054 
L 524.940794 193.695164 
L 525.350034 196.141702 
L 525.759273 198.582967 
L 525.963893 198.963547 
L 526.168513 198.665503 
L 526.577752 197.01269 
L 527.191611 193.960798 
L 527.396231 193.560447 
L 527.600851 193.738506 
L 528.01009 195.231286 
L 528.41933 196.589427 
L 528.623949 196.824707 
L 528.828569 196.834399 
L 529.442428 196.419509 
L 529.647048 196.503596 
L 530.056288 196.833856 
L 530.260907 196.730308 
L 530.670147 195.967442 
L 530.874766 195.325763 
L 531.284006 192.835069 
L 531.693245 189.701997 
L 532.102485 188.243371 
L 532.511724 187.834646 
L 532.716344 187.869885 
L 532.920964 188.178242 
L 534.967161 194.005614 
L 535.3764 194.410036 
L 535.78564 194.52754 
L 535.99026 194.305054 
L 536.604119 192.896011 
L 536.808739 192.951681 
L 537.013358 193.385373 
L 537.422598 194.99841 
L 538.036457 198.920671 
L 538.445696 200.989225 
L 538.650316 200.937936 
L 538.854936 200.129169 
L 539.878034 194.301216 
L 540.491894 192.928227 
L 540.901133 192.072357 
L 541.514992 189.958793 
L 541.719612 189.654042 
L 542.128851 189.604032 
L 542.333471 189.561465 
L 542.742711 189.309167 
L 542.94733 189.706688 
L 543.35657 192.245842 
L 544.175049 199.34374 
L 544.379668 200.273772 
L 544.584288 200.594146 
L 544.788908 200.25055 
L 545.812007 196.254166 
L 546.016626 196.253313 
L 546.425866 196.831142 
L 546.835105 197.771641 
L 547.244345 198.653989 
L 547.448964 198.41712 
L 548.267443 195.519173 
L 548.472063 195.544527 
L 548.881302 195.891225 
L 549.290542 196.576595 
L 550.313641 198.699231 
L 550.51826 198.496205 
L 551.336739 196.920424 
L 551.950598 197.445684 
L 552.155218 197.167877 
L 552.973697 195.394652 
L 553.382936 194.850163 
L 553.587556 194.656636 
L 553.792176 194.207166 
L 554.406035 191.975245 
L 554.610655 191.691079 
L 554.815275 191.645062 
L 555.019894 191.79862 
L 555.224514 192.202616 
L 555.633753 194.027168 
L 556.042993 196.179849 
L 556.247613 196.500301 
L 556.452232 196.258469 
L 556.861472 195.333787 
L 557.066092 195.122195 
L 557.679951 195.078542 
L 557.88457 194.862414 
L 558.29381 193.87865 
L 558.703049 193.068565 
L 558.907669 193.373239 
L 559.726148 196.088164 
L 559.930768 196.000859 
L 560.340007 194.805697 
L 560.953866 192.999171 
L 561.567725 191.049128 
L 561.772345 190.81474 
L 561.976965 190.827495 
L 562.386204 191.225404 
L 563.000064 192.249602 
L 563.204683 192.373038 
L 563.613923 192.059913 
L 563.818542 191.914651 
L 564.023162 191.992651 
L 564.637021 192.957031 
L 564.841641 192.87244 
L 565.046261 192.323222 
L 565.66012 189.703277 
L 565.86474 189.681838 
L 566.069359 190.32658 
L 567.092458 195.993416 
L 567.297078 196.136429 
L 568.115557 195.50072 
L 568.934036 194.722618 
L 569.138655 194.810426 
L 569.957134 195.587714 
L 570.161754 195.452726 
L 571.184853 193.793439 
L 571.389472 193.722301 
L 571.594092 193.801503 
L 572.003332 194.221045 
L 572.207951 194.253687 
L 572.412571 194.02302 
L 572.82181 192.744043 
L 573.844909 187.814564 
L 574.049529 187.731873 
L 574.254149 188.088805 
L 574.868008 189.992676 
L 575.072627 190.038073 
L 575.481867 189.540453 
L 575.686487 189.552588 
L 576.095726 189.882111 
L 576.300346 189.777555 
L 576.914205 188.597396 
L 577.323444 188.031158 
L 577.528064 188.081788 
L 580.188121 190.666183 
L 580.39274 190.697507 
L 580.80198 190.341932 
L 581.0066 190.443387 
L 581.415839 190.889174 
L 581.620459 190.607955 
L 582.438938 188.307648 
L 582.848177 187.76626 
L 583.462036 186.131862 
L 584.075895 184.801866 
L 584.485135 184.182633 
L 584.689755 183.662994 
L 585.098994 181.665539 
L 585.712853 178.607366 
L 585.917473 178.357665 
L 586.122093 178.637954 
L 586.531332 180.400052 
L 587.349811 184.721966 
L 587.554431 185.24901 
L 587.759051 185.300804 
L 587.96367 184.887232 
L 588.37291 182.722999 
L 588.782149 179.969462 
L 588.986769 179.317897 
L 589.600628 178.694554 
L 589.805248 178.672379 
L 590.214487 179.139179 
L 590.419107 178.928167 
L 590.828346 176.907257 
L 591.237586 174.629707 
L 591.646825 173.255516 
L 592.056065 172.566967 
L 592.465304 172.189217 
L 592.874544 171.862019 
L 593.488403 172.033682 
L 593.897642 171.889777 
L 594.102262 171.66132 
L 594.306882 171.183511 
L 594.511502 170.357376 
L 594.920741 167.047099 
L 595.5346 160.293185 
L 596.762319 151.236753 
L 597.171558 148.301745 
L 597.376178 147.596371 
L 597.580797 147.517014 
L 597.990037 148.355361 
L 598.603896 150.111217 
L 599.217755 151.733714 
L 599.626995 152.719958 
L 600.036234 155.07799 
L 601.059333 162.648968 
L 601.263952 163.060756 
L 601.468572 163.052576 
L 601.673192 162.781785 
L 602.082431 161.810311 
L 602.287051 161.68075 
L 602.491671 162.125723 
L 602.90091 164.617813 
L 603.924009 172.671135 
L 604.333248 175.004162 
L 604.537868 175.441769 
L 604.742488 175.229401 
L 605.560967 172.199413 
L 605.765586 172.132733 
L 605.970206 172.508622 
L 606.379446 174.403809 
L 607.197925 178.88184 
L 607.607164 179.613033 
L 607.811784 179.666339 
L 608.016403 179.472424 
L 608.834882 177.440892 
L 609.244122 177.544944 
L 609.448742 177.257405 
L 610.26722 174.843859 
L 610.47184 174.741164 
L 610.88108 175.023662 
L 611.085699 174.918292 
L 611.494939 174.389581 
L 611.699559 174.367368 
L 612.108798 174.637693 
L 612.722657 175.28984 
L 613.131897 175.963231 
L 613.541136 177.168511 
L 615.382714 184.985236 
L 615.587333 185.358645 
L 615.791953 185.372174 
L 616.201193 184.867732 
L 616.405812 184.316071 
L 616.815052 181.951526 
L 617.224291 179.297078 
L 617.633531 177.909901 
L 617.83815 177.610538 
L 618.04277 177.59131 
L 618.861249 178.286139 
L 620.088967 178.518744 
L 620.702827 178.290752 
L 620.907446 178.588215 
L 621.521305 180.008307 
L 621.725925 180.171246 
L 621.930545 180.174386 
L 622.135165 180.01765 
L 622.749024 179.121268 
L 622.953644 179.084439 
L 623.362883 179.229158 
L 623.772122 179.023148 
L 623.976742 178.738439 
L 624.181362 178.236866 
L 624.590601 176.234719 
L 624.999841 173.952517 
L 625.204461 173.510064 
L 625.40908 173.576046 
L 625.81832 174.076611 
L 626.022939 174.029083 
L 626.432179 173.264045 
L 627.455278 170.757883 
L 627.659897 170.718185 
L 628.273756 171.562269 
L 628.887616 171.167151 
L 629.501475 171.04577 
L 629.706095 171.388165 
L 630.524573 173.918518 
L 630.729193 174.012645 
L 632.77539 173.143556 
L 632.98001 172.561501 
L 633.38925 170.08329 
L 633.798489 167.585347 
L 634.003109 167.011627 
L 634.207729 166.972627 
L 634.412348 167.426322 
L 634.821588 169.502127 
L 635.435447 173.064935 
L 636.253926 176.245962 
L 636.458545 176.674963 
L 636.663165 176.758003 
L 636.867785 176.363582 
L 637.481644 173.800122 
L 638.300123 169.606567 
L 638.709362 168.938797 
L 638.913982 168.720265 
L 639.527841 167.595969 
L 639.732461 167.51006 
L 639.937081 167.590774 
L 640.141701 167.907155 
L 640.75556 169.673247 
L 641.369419 170.042739 
L 641.778658 171.230071 
L 642.392518 173.286608 
L 642.597137 173.44885 
L 643.415616 173.04718 
L 643.620236 172.807248 
L 644.029475 171.841356 
L 645.461813 167.727507 
L 646.280292 163.536976 
L 646.689532 162.711965 
L 647.508011 161.092725 
L 648.735729 158.58571 
L 649.758828 157.538484 
L 649.963447 157.931431 
L 650.577307 160.244919 
L 651.805025 165.222779 
L 652.009645 165.287598 
L 652.214264 165.041309 
L 652.828124 163.941708 
L 653.237363 163.626373 
L 653.646603 162.633228 
L 655.078941 157.905263 
L 655.6928 156.827178 
L 655.89742 156.738091 
L 656.102039 156.862806 
L 656.306659 157.257226 
L 656.715898 158.811802 
L 657.125138 160.35688 
L 657.329758 160.479579 
L 657.534377 160.020455 
L 658.557476 156.354448 
L 658.966715 155.996236 
L 659.375955 155.616509 
L 659.580575 155.180995 
L 659.989814 153.407926 
L 660.808293 147.847003 
L 662.445251 135.17973 
L 662.649871 134.839352 
L 663.05911 134.938907 
L 663.468349 135.062226 
L 663.672969 134.986242 
L 663.877589 134.70983 
L 664.082209 134.126534 
L 664.491448 131.82739 
L 665.309927 124.60877 
L 666.128406 117.336147 
L 666.742265 113.968804 
L 667.356124 110.437862 
L 667.765364 106.779104 
L 668.583843 96.219464 
L 669.606941 78.776504 
L 670.63004 59.932448 
L 671.039279 55.650154 
L 671.243899 54.546134 
L 671.448519 54.158033 
L 671.653139 54.412193 
L 672.062378 55.964171 
L 672.880857 59.245489 
L 673.085477 59.4496 
L 673.494716 59.397341 
L 673.699336 59.553962 
L 673.903956 59.931596 
L 674.517815 61.860743 
L 674.722434 61.8407 
L 674.927054 61.040849 
L 675.540913 57.301881 
L 675.745533 57.980622 
L 675.950153 60.376375 
L 676.359392 68.895566 
L 677.177871 87.20087 
L 677.79173 95.646559 
L 678.405589 100.603639 
L 678.814829 102.349688 
L 679.019449 102.648779 
L 679.224068 102.425943 
L 679.633308 100.806471 
L 680.247167 98.505582 
L 682.293364 91.727516 
L 682.907223 89.148161 
L 683.316463 85.994349 
L 683.725702 80.752288 
L 684.134942 73.614188 
L 684.748801 58.124333 
L 685.15804 47.926665 
L 685.36266 44.851939 
L 685.56728 43.656583 
L 685.7719 44.105317 
L 686.385759 48.265687 
L 686.590379 48.484956 
L 686.794998 47.73686 
L 687.204238 43.488255 
L 687.613477 35.788181 
L 688.227336 19.513789 
L 688.727877 -1 
M 696.575299 -1 
L 697.230604 25.104912 
L 698.049083 47.680647 
L 698.867562 63.697197 
L 699.686041 75.54035 
L 700.50452 85.74081 
L 700.913759 88.735791 
L 702.755337 96.657808 
L 702.959957 96.637455 
L 703.369196 95.460669 
L 703.778436 94.078569 
L 703.983055 94.006578 
L 704.187675 94.752232 
L 704.596915 98.820801 
L 705.415393 108.981136 
L 705.824633 111.416082 
L 706.029253 111.736883 
L 706.233872 111.662682 
L 706.643112 111.309355 
L 706.847732 111.419184 
L 708.07545 112.87653 
L 708.689309 113.2411 
L 709.098549 113.302236 
L 709.507788 113.569615 
L 709.712408 113.840096 
L 710.121647 115.284766 
L 710.530887 117.029651 
L 710.735506 117.474508 
L 710.940126 117.552237 
L 711.144746 117.447487 
L 711.349366 117.473268 
L 711.553985 117.800891 
L 711.963225 119.16667 
L 712.781704 122.307533 
L 712.986323 122.424572 
L 713.395563 122.301291 
L 713.804802 122.532811 
L 714.418661 122.903195 
L 714.623281 123.022134 
L 714.827901 123.275479 
L 715.23714 124.356394 
L 715.850999 126.901556 
L 716.464859 129.658234 
L 716.874098 130.512592 
L 717.283338 130.824941 
L 717.487957 130.749965 
L 717.897197 130.059787 
L 718.306436 129.270327 
L 718.715676 128.836867 
L 718.920295 128.227714 
L 719.329535 125.791488 
L 719.943394 122.207241 
L 720.557253 120.394668 
L 721.784972 117.065046 
L 722.398831 115.172379 
L 722.60345 114.590751 
L 722.80807 114.344771 
L 723.01269 114.557294 
L 723.21731 115.205952 
L 723.626549 117.600425 
L 724.445028 123.382206 
L 724.649648 123.947397 
L 724.854267 124.180971 
L 725.058887 124.113283 
L 725.263507 123.705527 
L 726.081986 121.248871 
L 726.491225 121.039953 
L 726.900465 121.216384 
L 727.923563 122.024375 
L 728.128183 121.740171 
L 728.537423 119.698792 
L 728.946662 116.32765 
L 730.379 100.293887 
L 730.992859 90.948871 
L 731.606718 79.384262 
L 731.811338 77.139896 
L 732.015958 76.556368 
L 732.220578 77.629375 
L 732.629817 82.773741 
L 733.652916 96.244431 
L 734.062155 98.525664 
L 734.676014 99.388744 
L 735.085254 101.536424 
L 735.699113 104.692523 
L 736.108352 105.879311 
L 736.312972 106.01461 
L 736.517592 105.72428 
L 737.336071 103.04444 
L 737.94993 102.715614 
L 738.15455 101.943482 
L 738.563789 98.949741 
L 739.586888 88.620535 
L 740.814606 74.195778 
L 741.223846 72.228988 
L 741.428465 72.30001 
L 741.633085 73.160803 
L 742.042325 76.612814 
L 742.860803 84.446674 
L 743.474663 87.922217 
L 744.907001 95.547043 
L 745.31624 96.929336 
L 745.930099 98.227503 
L 746.134719 98.097632 
L 746.543959 96.335844 
L 746.953198 94.994451 
L 747.157818 95.030815 
L 747.567057 95.467763 
L 747.976297 95.534327 
L 748.180916 95.381505 
L 748.385536 95.039421 
L 748.794776 93.682366 
L 749.408635 91.094908 
L 749.817874 88.129894 
L 750.431733 83.002043 
L 750.840973 81.421493 
L 751.045593 81.286194 
L 751.454832 81.565436 
L 751.864071 82.093294 
L 752.273311 83.347034 
L 753.09179 86.114218 
L 753.296409 86.284368 
L 753.501029 86.19183 
L 753.910269 85.462924 
L 754.933367 82.600295 
L 755.342607 82.426307 
L 755.751846 82.32148 
L 756.161086 81.639598 
L 756.365705 81.238045 
L 756.570325 81.178304 
L 756.774945 81.642312 
L 757.798043 85.918365 
L 758.616522 86.961946 
L 759.639621 90.306959 
L 759.844241 90.460362 
L 760.04886 90.441444 
L 760.25348 90.182244 
L 760.4581 89.569137 
L 761.071959 86.600207 
L 761.276579 86.267931 
L 761.481199 86.494682 
L 762.095058 87.943384 
L 762.299677 87.886589 
L 762.913537 87.206259 
L 763.118156 87.385132 
L 763.732016 88.967892 
L 764.550494 91.05994 
L 765.164354 93.697059 
L 765.368973 94.108459 
L 765.573593 94.093379 
L 765.982833 93.246658 
L 766.392072 92.417538 
L 766.801311 91.949072 
L 767.005931 91.837305 
L 767.210551 91.945932 
L 767.61979 92.914576 
L 768.23365 95.625934 
L 768.847509 98.062005 
L 769.461368 100.534633 
L 770.484467 105.266049 
L 770.689086 105.859695 
L 770.893706 106.068109 
L 771.302945 105.763125 
L 771.916805 105.262133 
L 772.121424 104.85585 
L 772.939903 102.453429 
L 773.144523 102.567561 
L 773.758382 103.372684 
L 773.963002 103.384508 
L 774.576861 103.049751 
L 774.781481 103.168379 
L 774.986101 103.56687 
L 775.19072 104.392462 
L 775.59996 107.56903 
L 776.009199 111.168242 
L 776.213819 111.960765 
L 776.418439 112.009535 
L 776.827678 111.635739 
L 777.032298 111.822288 
L 777.646157 113.008999 
L 777.850777 112.882772 
L 778.260016 112.20911 
L 778.464636 112.087612 
L 778.669256 112.313084 
L 779.078495 113.617726 
L 780.306213 119.324957 
L 781.329312 121.667249 
L 782.352411 125.356517 
L 782.55703 125.555007 
L 782.76165 125.589006 
L 782.96627 125.769895 
L 783.17089 126.391764 
L 783.580129 128.990929 
L 784.193988 133.596389 
L 784.807847 136.174736 
L 785.626326 139.017245 
L 785.830946 139.265047 
L 786.035566 138.984254 
L 786.444805 137.100659 
L 786.854045 135.225592 
L 787.058664 134.953755 
L 787.263284 135.195431 
L 787.467904 135.889602 
L 787.877143 138.457094 
L 788.900242 146.472696 
L 789.514101 148.994675 
L 790.33258 151.641098 
L 790.741819 152.2613 
L 791.151059 152.292082 
L 791.355679 152.664211 
L 792.583397 157.190934 
L 792.788017 157.768414 
L 793.197256 160.030612 
L 793.811115 163.885495 
L 794.015735 164.484685 
L 794.220355 164.663365 
L 794.424975 164.486158 
L 794.834214 163.711933 
L 795.038834 163.615441 
L 795.243453 163.839013 
L 795.857313 165.401652 
L 796.471172 166.749753 
L 797.085031 167.357239 
L 797.49427 168.670952 
L 798.10813 170.994985 
L 798.312749 171.013128 
L 799.131228 169.542329 
L 799.335848 170.082321 
L 800.563566 175.24452 
L 801.382045 177.485785 
L 801.586665 177.905753 
L 801.791285 177.930874 
L 801.995904 177.405497 
L 802.609764 174.443856 
L 802.814383 174.132863 
L 803.019003 174.433776 
L 803.837482 177.379058 
L 804.042102 177.599722 
L 804.246721 177.593442 
L 805.0652 176.965758 
L 805.47444 177.250505 
L 805.883679 177.639924 
L 806.088299 177.605615 
L 806.292919 177.154206 
L 806.702158 175.721942 
L 806.906778 175.487554 
L 807.111398 175.738728 
L 807.520637 177.335483 
L 808.339116 181.684031 
L 809.362215 183.696799 
L 809.771454 184.645246 
L 809.976074 184.553677 
L 810.385313 183.359522 
L 810.794553 182.071357 
L 810.999172 181.901129 
L 811.203792 182.142495 
L 811.613032 183.600346 
L 812.63613 189.215504 
L 812.84075 189.501221 
L 813.04537 189.368481 
L 813.659229 187.892448 
L 814.068468 186.055839 
L 814.886947 181.326168 
L 815.500806 178.554798 
L 815.910046 177.41957 
L 816.933145 175.43956 
L 817.956243 172.019997 
L 818.365483 171.369052 
L 818.570102 171.411813 
L 818.774722 171.707027 
L 819.388581 173.2749 
L 819.593201 173.008878 
L 819.797821 171.771885 
L 820.20706 166.787861 
L 820.820919 159.572187 
L 822.457877 146.527707 
L 823.480976 139.124825 
L 823.890215 136.682086 
L 825.527173 122.60643 
L 826.345652 111.646322 
L 827.98261 88.807705 
L 830.438046 51.597519 
L 832.279624 14.621333 
L 833.046053 -1 
M 937.748553 -1 
L 938.272643 8.528094 
L 940.728079 42.326897 
L 941.341938 48.437117 
L 942.365037 55.982081 
L 944.206615 72.766499 
L 944.820474 74.663818 
L 945.229713 78.440739 
L 945.638953 82.683994 
L 946.048192 84.742082 
L 946.457432 85.645713 
L 946.866671 87.436034 
L 947.48053 90.356349 
L 948.299009 91.938682 
L 948.708249 93.966686 
L 949.731347 100.031974 
L 950.140587 100.954408 
L 950.549826 101.728865 
L 950.959066 103.065529 
L 951.572925 105.860315 
L 952.596023 112.051171 
L 952.800643 112.241597 
L 953.005263 111.994532 
L 953.414502 111.036006 
L 953.619122 110.830926 
L 953.823742 111.03682 
L 954.232981 112.624581 
L 954.84684 116.792356 
L 956.074559 126.271546 
L 956.279178 126.728963 
L 956.483798 126.596728 
L 957.097657 125.028234 
L 957.711517 123.421865 
L 957.916136 123.51766 
L 958.325376 124.226562 
L 958.939235 124.496965 
L 959.143855 125.109956 
L 959.553094 127.765683 
L 959.962334 131.087785 
L 960.166953 132.026035 
L 960.371573 132.161295 
L 960.780812 131.00583 
L 961.190052 129.77097 
L 961.394672 129.41838 
L 961.599291 129.343287 
L 961.803911 129.576473 
L 962.008531 130.142789 
L 962.41777 132.259532 
L 963.031629 135.817184 
L 963.236249 136.402457 
L 963.440869 136.550665 
L 963.645489 136.215016 
L 964.259348 134.052023 
L 964.463968 133.749404 
L 964.668587 133.696758 
L 965.896306 134.600467 
L 966.305545 134.987831 
L 966.510165 135.068313 
L 966.714785 135.367946 
L 967.124024 137.032583 
L 968.965602 146.28258 
L 969.170221 146.60059 
L 969.374841 146.705844 
L 969.579461 146.630441 
L 970.19332 145.931735 
L 970.807179 146.096341 
L 971.216419 145.478582 
L 971.421038 145.162123 
L 971.625658 145.146771 
L 971.830278 145.55569 
L 972.648757 148.023511 
L 973.057996 148.435144 
L 973.262616 148.326828 
L 973.671855 147.714728 
L 973.876475 147.651654 
L 974.081095 147.954428 
L 974.490334 148.758891 
L 974.694954 148.510392 
L 975.104193 146.589929 
L 975.513433 144.821163 
L 975.718053 144.444265 
L 975.922672 144.353007 
L 976.741151 144.626124 
L 976.945771 144.501641 
L 977.35501 143.838368 
L 977.76425 142.626381 
L 978.378109 140.504637 
L 978.582729 140.204267 
L 978.787348 140.354917 
L 979.196588 141.782064 
L 979.810447 145.48114 
L 980.219687 148.089532 
L 980.628926 149.33172 
L 980.833546 149.37607 
L 981.447405 148.912178 
L 982.265884 147.919421 
L 983.084363 145.868582 
L 984.312081 142.496859 
L 984.516701 142.327484 
L 984.72132 142.328492 
L 984.92594 142.622582 
L 985.33518 144.251242 
L 985.949039 146.93934 
L 986.153659 147.331434 
L 986.358278 147.184428 
L 986.562898 146.374924 
L 986.972137 142.878873 
L 987.585997 136.682164 
L 987.790616 136.490769 
L 987.995236 137.751293 
L 989.632194 155.562118 
L 990.041433 156.954917 
L 990.450673 157.862192 
L 990.859912 159.129656 
L 991.064532 159.397307 
L 991.269152 159.170168 
L 991.883011 157.410862 
L 992.087631 157.383724 
L 992.29225 157.823347 
L 993.519969 162.56461 
L 993.724588 162.556313 
L 993.929208 162.112891 
L 995.156927 158.0903 
L 995.566166 157.510959 
L 996.180025 157.022179 
L 996.998504 155.754637 
L 997.203124 155.810928 
L 997.407744 156.331808 
L 997.816983 158.752798 
L 998.635462 164.570788 
L 999.044701 166.294739 
L 999.249321 166.546921 
L 999.658561 166.589759 
L 1000.0678 166.806741 
L 1000.27242 166.627712 
L 1000.886279 165.281589 
L 1001.090899 165.264454 
L 1001.500138 165.600646 
L 1001.704758 165.550752 
L 1002.932476 164.357101 
L 1003.341716 164.291042 
L 1004.160195 164.737759 
L 1004.364814 164.2936 
L 1004.978673 162.497968 
L 1005.183293 162.804464 
L 1006.001772 166.304082 
L 1006.206392 166.382276 
L 1006.411012 166.228756 
L 1006.615631 165.907723 
L 1007.024871 164.547333 
L 1007.43411 163.474211 
L 1007.63873 163.610944 
L 1008.047969 164.655572 
L 1008.457209 166.14591 
L 1009.071068 168.717706 
L 1009.275688 168.920809 
L 1009.480307 168.774772 
L 1010.094167 167.967788 
L 1010.503406 167.988257 
L 1010.912646 168.379149 
L 1011.321885 169.480611 
L 1011.935744 172.016275 
L 1012.140364 172.170725 
L 1012.344984 171.777351 
L 1012.958843 169.484061 
L 1013.163463 169.251883 
L 1013.777322 169.381056 
L 1014.391181 168.594154 
L 1014.595801 168.659206 
L 1014.80042 169.103403 
L 1015.41428 171.420574 
L 1015.618899 171.391111 
L 1015.823519 170.720938 
L 1016.437378 167.503353 
L 1016.846618 166.683421 
L 1017.255857 166.018675 
L 1017.665097 165.35013 
L 1017.869716 165.271006 
L 1018.074336 165.313456 
L 1018.483575 165.822357 
L 1019.302054 167.05179 
L 1020.529773 168.212682 
L 1021.348252 168.368488 
L 1022.16673 169.06072 
L 1022.37135 169.549462 
L 1022.78059 171.389211 
L 1023.189829 173.232527 
L 1023.599069 173.918789 
L 1023.803688 173.949726 
L 1024.008308 173.793648 
L 1024.417547 172.832176 
L 1025.236026 170.439253 
L 1025.849886 168.20458 
L 1026.054505 168.059744 
L 1026.668364 168.283045 
L 1026.872984 168.660563 
L 1027.282224 169.824595 
L 1027.486843 169.999979 
L 1027.691463 169.693483 
L 1028.100703 167.799227 
L 1028.509942 165.413011 
L 1028.714562 164.847743 
L 1028.919181 164.889883 
L 1029.328421 165.979753 
L 1030.35152 169.062504 
L 1031.169998 169.923064 
L 1031.988477 172.422985 
L 1032.397717 172.919092 
L 1032.602337 172.974956 
L 1032.806956 172.798525 
L 1033.216196 172.097571 
L 1033.420815 172.047754 
L 1033.625435 172.403097 
L 1034.239294 174.125342 
L 1034.443914 174.330538 
L 1034.648534 174.298827 
L 1034.853154 173.965465 
L 1035.262393 172.331106 
L 1035.671632 170.938811 
L 1035.876252 170.722876 
L 1036.285492 170.747881 
L 1036.694731 170.889382 
L 1037.103971 170.918497 
L 1037.30859 171.223054 
L 1037.71783 172.94495 
L 1038.331689 176.143887 
L 1038.740928 177.103537 
L 1039.764027 178.248728 
L 1040.377886 178.266639 
L 1040.787126 177.746263 
L 1041.605605 176.518962 
L 1041.810224 176.385098 
L 1042.014844 176.520785 
L 1042.424083 177.795498 
L 1042.833323 179.028304 
L 1043.037943 179.363138 
L 1043.242562 179.469516 
L 1043.447182 179.222567 
L 1043.856422 178.233377 
L 1044.061041 178.14518 
L 1044.265661 178.468773 
L 1044.87952 180.004973 
L 1045.28876 180.274755 
L 1045.493379 180.296504 
L 1045.697999 180.192336 
L 1045.902619 179.834822 
L 1046.516478 178.185576 
L 1046.721098 178.000151 
L 1047.130337 178.230585 
L 1047.539577 178.811477 
L 1048.153436 180.281927 
L 1048.358056 180.367797 
L 1049.585774 179.024311 
L 1050.608873 176.244799 
L 1050.813492 176.368157 
L 1051.018112 177.108887 
L 1051.836591 181.726326 
L 1052.24583 182.533 
L 1052.85969 182.6871 
L 1053.678168 184.230356 
L 1054.087408 184.373757 
L 1054.701267 185.530695 
L 1054.905887 185.38427 
L 1055.315126 183.813993 
L 1055.724366 182.063642 
L 1055.928985 181.650768 
L 1056.133605 181.569628 
L 1056.542845 181.857011 
L 1056.952084 182.23259 
L 1057.156704 182.179905 
L 1057.565943 181.581568 
L 1058.384422 179.861649 
L 1058.589042 179.717124 
L 1059.81676 179.662384 
L 1060.226 178.917429 
L 1060.635239 177.759793 
L 1061.044479 176.36587 
L 1061.249098 176.069105 
L 1061.453718 176.211226 
L 1061.658338 176.790257 
L 1062.886056 181.828595 
L 1063.090676 181.831618 
L 1063.499915 181.08453 
L 1063.909155 180.154576 
L 1064.318394 178.241479 
L 1064.932253 174.382177 
L 1065.136873 174.06029 
L 1065.341493 174.445213 
L 1065.750732 176.545092 
L 1066.364591 179.687583 
L 1066.773831 180.631145 
L 1067.59231 181.564356 
L 1067.79693 181.62367 
L 1068.206169 181.310118 
L 1069.024648 180.464755 
L 1069.433887 180.387491 
L 1070.047747 179.58326 
L 1070.252366 180.084058 
L 1071.070845 184.90933 
L 1071.275465 185.248429 
L 1071.480085 185.196209 
L 1071.889324 184.476103 
L 1072.298564 183.066091 
L 1072.912423 180.606101 
L 1073.117042 180.294023 
L 1073.321662 180.574854 
L 1073.935521 182.426544 
L 1074.140141 182.64717 
L 1074.344761 182.543157 
L 1074.754 181.223861 
L 1075.16324 180.113134 
L 1075.367859 180.067815 
L 1075.777099 180.160546 
L 1076.186338 180.060604 
L 1076.390958 180.198577 
L 1077.004817 181.285385 
L 1077.209437 181.167997 
L 1077.618676 179.880607 
L 1078.027916 178.537352 
L 1078.437155 177.929711 
L 1078.846395 177.710442 
L 1079.051015 177.376732 
L 1079.869493 175.311356 
L 1080.074113 175.480421 
L 1080.687972 176.731447 
L 1080.892592 176.92385 
L 1081.097212 176.928696 
L 1081.711071 176.381764 
L 1081.915691 176.703728 
L 1082.52955 178.312346 
L 1083.757268 179.511075 
L 1084.166508 179.571513 
L 1084.371127 179.340343 
L 1084.575747 178.717854 
L 1084.984987 176.281202 
L 1085.598846 172.242212 
L 1085.803466 171.473376 
L 1086.008085 171.196304 
L 1086.212705 171.42449 
L 1086.621944 173.066719 
L 1087.645043 178.063265 
L 1087.849663 178.710178 
L 1088.054283 178.9548 
L 1088.258902 178.815819 
L 1089.486621 176.224872 
L 1089.89586 174.910112 
L 1091.123578 169.923491 
L 1091.328198 169.890461 
L 1091.737438 170.587655 
L 1092.351297 171.790028 
L 1092.760536 172.084622 
L 1092.965156 172.085979 
L 1093.169776 171.941028 
L 1093.988255 170.85298 
L 1094.192874 170.817158 
L 1094.397494 170.599828 
L 1094.806734 169.030676 
L 1095.215973 167.420391 
L 1095.625212 166.586425 
L 1096.034452 164.461502 
L 1096.443691 162.212252 
L 1096.852931 161.20581 
L 1097.26217 160.651163 
L 1097.46679 160.202779 
L 1097.876029 158.395788 
L 1098.694508 152.434552 
L 1099.717607 142.760284 
L 1100.126846 137.064566 
L 1100.945325 124.032918 
L 1101.559184 117.509205 
L 1102.582283 108.02734 
L 1103.400762 96.957132 
L 1104.014621 87.172415 
L 1104.62848 72.782238 
L 1105.03772 58.457385 
L 1105.446959 37.774278 
L 1105.94448 -1 
M 1110.44646 -1 
L 1110.971692 31.811258 
L 1111.585551 55.542226 
L 1113.836368 124.517008 
L 1114.450227 136.421181 
L 1115.473326 150.919791 
L 1115.882565 154.623635 
L 1116.496425 157.828504 
L 1117.519523 161.393677 
L 1118.133382 165.55269 
L 1118.747242 169.868712 
L 1119.156481 170.899423 
L 1119.56572 171.846939 
L 1120.588819 176.276123 
L 1120.793439 176.234991 
L 1121.816537 174.86363 
L 1122.225777 175.074758 
L 1122.430397 174.933411 
L 1123.248876 173.154798 
L 1123.453495 173.110565 
L 1123.658115 173.231481 
L 1124.067354 173.925147 
L 1124.476594 175.06115 
L 1124.885833 177.571461 
L 1125.295073 180.356128 
L 1125.704312 181.586531 
L 1125.908932 181.58622 
L 1126.727411 180.404859 
L 1127.13665 180.445487 
L 1127.34127 180.266498 
L 1127.75051 179.663237 
L 1127.955129 179.627998 
L 1128.159749 179.832341 
L 1128.364369 180.264443 
L 1128.773608 181.946176 
L 1129.182848 183.856134 
L 1129.387467 184.364918 
L 1129.592087 184.386279 
L 1129.796707 183.961232 
L 1130.410566 182.12125 
L 1131.229045 181.257123 
L 1131.433665 180.737329 
L 1131.842904 178.774299 
L 1132.252144 177.121487 
L 1132.456763 177.182351 
L 1132.866003 178.557395 
L 1133.275242 179.826177 
L 1133.479862 180.036762 
L 1133.889101 179.752906 
L 1134.093721 179.641644 
L 1134.298341 179.739066 
L 1134.70758 180.050369 
L 1135.526059 179.383569 
L 1135.935299 179.953993 
L 1136.753778 181.403703 
L 1137.367637 183.632251 
L 1137.572256 183.840239 
L 1137.981496 183.516065 
L 1138.390735 183.325562 
L 1138.595355 183.305131 
L 1138.799975 183.092608 
L 1139.209214 181.775444 
L 1140.027693 178.680598 
L 1140.232313 178.261212 
L 1140.436933 178.23202 
L 1140.641552 178.656911 
L 1141.255411 180.97602 
L 1141.460031 181.26759 
L 1142.48313 181.087671 
L 1142.892369 180.430058 
L 1143.710848 178.528048 
L 1143.915468 178.717505 
L 1144.324707 180.026372 
L 1144.733947 181.125585 
L 1144.938567 181.093408 
L 1145.347806 180.547989 
L 1145.552426 180.437152 
L 1145.757045 180.523914 
L 1146.166285 181.245377 
L 1146.575524 181.955093 
L 1146.984764 182.040226 
L 1147.803243 182.085778 
L 1148.417102 181.141868 
L 1148.826341 181.194863 
L 1149.440201 181.454023 
L 1150.05406 182.544707 
L 1150.463299 183.427327 
L 1150.872539 185.135344 
L 1151.281778 187.000447 
L 1151.486398 187.465075 
L 1151.895637 187.68919 
L 1152.509496 187.764011 
L 1152.714116 187.505859 
L 1153.327975 185.345154 
L 1153.737215 184.160458 
L 1153.941835 183.889745 
L 1154.351074 183.96635 
L 1154.555694 183.957666 
L 1154.760313 183.674818 
L 1155.578792 181.668097 
L 1155.783412 181.651466 
L 1156.397271 182.135517 
L 1156.601891 181.924118 
L 1157.62499 180.095262 
L 1157.829609 180.034901 
L 1158.034229 180.338644 
L 1158.443469 182.133385 
L 1158.852708 184.067571 
L 1159.057328 184.619853 
L 1159.261947 184.830942 
L 1159.466567 184.737706 
L 1160.285046 183.468808 
L 1160.489666 183.750957 
L 1160.898905 185.048854 
L 1161.717384 188.390494 
L 1161.922004 188.72087 
L 1162.126624 188.682258 
L 1162.945103 187.34226 
L 1163.354342 187.444412 
L 1163.558962 187.483529 
L 1163.763581 187.325629 
L 1164.377441 186.554311 
L 1164.58206 186.569547 
L 1165.19592 187.42592 
L 1165.400539 187.389983 
L 1165.605159 186.91481 
L 1166.014398 184.632375 
L 1166.628258 181.11632 
L 1166.832877 180.696778 
L 1167.037497 180.717945 
L 1168.060596 182.229644 
L 1168.674455 182.875278 
L 1169.083694 182.917495 
L 1169.288314 183.07935 
L 1169.697554 183.847295 
L 1170.311413 184.979227 
L 1170.516032 185.033618 
L 1170.720652 184.819505 
L 1171.334511 183.297882 
L 1171.948371 181.690737 
L 1172.15299 181.550942 
L 1172.35761 181.679766 
L 1172.971469 182.637866 
L 1173.176089 182.634028 
L 1173.585328 182.41348 
L 1173.789948 182.487021 
L 1173.994568 182.793595 
L 1174.403807 183.814148 
L 1174.608427 184.004342 
L 1174.813047 183.733706 
L 1175.222286 181.925242 
L 1175.631526 180.055952 
L 1175.836145 179.601868 
L 1176.040765 179.507315 
L 1176.245385 179.695724 
L 1177.063864 181.20723 
L 1177.268483 181.319112 
L 1177.473103 181.580328 
L 1177.882343 182.974251 
L 1179.110061 188.023094 
L 1179.314681 187.889385 
L 1180.13316 185.996951 
L 1180.337779 185.937869 
L 1181.770117 186.629869 
L 1181.974737 186.424789 
L 1182.179357 185.97152 
L 1182.588596 184.077031 
L 1183.202455 180.323137 
L 1183.407075 179.848042 
L 1183.816315 179.687157 
L 1184.020934 179.687583 
L 1184.225554 179.871457 
L 1184.839413 181.443634 
L 1184.839413 181.443634 
" clip-path="url(#p00224be91d)" style="fill: none; stroke: #000000; stroke-width: 2; stroke-linecap: square"/>
   </g>
   <g id="patch_3">
    <path d="M 3.00024 198.907885 
L 1184.99976 198.907885 
" style="fill: none; stroke: #000000; stroke-width: 2; stroke-linejoin: miter; stroke-linecap: square"/>
   </g>
  </g>
 </g>
 <defs>
  <clipPath id="p00224be91d">
   <rect x="3.00024" y="3.00024" width="1181.99952" height="195.907645"/>
  </clipPath>
 </defs>
</svg>
