<?xml version="1.0" encoding="utf-8" standalone="no"?>
<!DOCTYPE svg PUBLIC "-//W3C//DTD SVG 1.1//EN"
  "http://www.w3.org/Graphics/SVG/1.1/DTD/svg11.dtd">
<svg xmlns:xlink="http://www.w3.org/1999/xlink" width="1188pt" height="252pt" viewBox="0 0 1188 252" xmlns="http://www.w3.org/2000/svg" version="1.1">
 <metadata>
  <rdf:RDF xmlns:dc="http://purl.org/dc/elements/1.1/" xmlns:cc="http://creativecommons.org/ns#" xmlns:rdf="http://www.w3.org/1999/02/22-rdf-syntax-ns#">
   <cc:Work>
    <dc:type rdf:resource="http://purl.org/dc/dcmitype/StillImage"/>
    <dc:date>2024-07-23T21:46:46.683798</dc:date>
    <dc:format>image/svg+xml</dc:format>
    <dc:creator>
     <cc:Agent>
      <dc:title>Matplotlib v3.8.4, https://matplotlib.org/</dc:title>
     </cc:Agent>
    </dc:creator>
   </cc:Work>
  </rdf:RDF>
 </metadata>
 <defs>
  <style type="text/css">*{stroke-linejoin: round; stroke-linecap: butt}</style>
 </defs>
 <g id="figure_1">
  <g id="patch_1">
   <path d="M 0 252 
L 1188 252 
L 1188 0 
L 0 0 
z
" style="fill: #ffffff"/>
  </g>
  <g id="axes_1">
   <g id="patch_2">
    <path d="M 3.00024 198.907885 
L 1184.99976 198.907885 
L 1184.99976 3.00024 
L 3.00024 3.00024 
z
" style="fill: #ffffff"/>
   </g>
   <g id="matplotlib.axis_1">
    <g id="xtick_1">
     <g id="line2d_1">
      <defs>
       <path id="mc17069fb09" d="M 0 0 
L 0 8 
" style="stroke: #000000; stroke-width: 2"/>
      </defs>
      <g>
       <use xlink:href="#mc17069fb09" x="1131.272509" y="198.907885" style="stroke: #000000; stroke-width: 2"/>
      </g>
     </g>
     <g id="text_1">
      <!-- 0 -->
      <g transform="translate(1126.267665 224.791947) scale(0.18 -0.18)">
       <defs>
        <path id="Arial-BoldMT-30" d="M 1756 4600 
Q 2422 4600 2797 4125 
Q 3244 3563 3244 2259 
Q 3244 959 2794 391 
Q 2422 -78 1756 -78 
Q 1088 -78 678 436 
Q 269 950 269 2269 
Q 269 3563 719 4131 
Q 1091 4600 1756 4600 
z
M 1756 3872 
Q 1597 3872 1472 3770 
Q 1347 3669 1278 3406 
Q 1188 3066 1188 2259 
Q 1188 1453 1269 1151 
Q 1350 850 1473 750 
Q 1597 650 1756 650 
Q 1916 650 2041 751 
Q 2166 853 2234 1116 
Q 2325 1453 2325 2259 
Q 2325 3066 2244 3367 
Q 2163 3669 2039 3770 
Q 1916 3872 1756 3872 
z
" transform="scale(0.015625)"/>
       </defs>
       <use xlink:href="#Arial-BoldMT-30"/>
      </g>
     </g>
    </g>
    <g id="xtick_2">
     <g id="line2d_2">
      <g>
       <use xlink:href="#mc17069fb09" x="1023.818007" y="198.907885" style="stroke: #000000; stroke-width: 2"/>
      </g>
     </g>
     <g id="text_2">
      <!-- 1 -->
      <g transform="translate(1018.813164 224.791947) scale(0.18 -0.18)">
       <defs>
        <path id="Arial-BoldMT-31" d="M 2519 0 
L 1641 0 
L 1641 3309 
Q 1159 2859 506 2644 
L 506 3441 
Q 850 3553 1253 3867 
Q 1656 4181 1806 4600 
L 2519 4600 
L 2519 0 
z
" transform="scale(0.015625)"/>
       </defs>
       <use xlink:href="#Arial-BoldMT-31"/>
      </g>
     </g>
    </g>
    <g id="xtick_3">
     <g id="line2d_3">
      <g>
       <use xlink:href="#mc17069fb09" x="916.363505" y="198.907885" style="stroke: #000000; stroke-width: 2"/>
      </g>
     </g>
     <g id="text_3">
      <!-- 2 -->
      <g transform="translate(911.358662 224.791947) scale(0.18 -0.18)">
       <defs>
        <path id="Arial-BoldMT-32" d="M 3238 816 
L 3238 0 
L 159 0 
Q 209 463 459 877 
Q 709 1291 1447 1975 
Q 2041 2528 2175 2725 
Q 2356 2997 2356 3263 
Q 2356 3556 2198 3714 
Q 2041 3872 1763 3872 
Q 1488 3872 1325 3706 
Q 1163 3541 1138 3156 
L 263 3244 
Q 341 3969 753 4284 
Q 1166 4600 1784 4600 
Q 2463 4600 2850 4234 
Q 3238 3869 3238 3325 
Q 3238 3016 3127 2736 
Q 3016 2456 2775 2150 
Q 2616 1947 2200 1565 
Q 1784 1184 1673 1059 
Q 1563 934 1494 816 
L 3238 816 
z
" transform="scale(0.015625)"/>
       </defs>
       <use xlink:href="#Arial-BoldMT-32"/>
      </g>
     </g>
    </g>
    <g id="xtick_4">
     <g id="line2d_4">
      <g>
       <use xlink:href="#mc17069fb09" x="808.909004" y="198.907885" style="stroke: #000000; stroke-width: 2"/>
      </g>
     </g>
     <g id="text_4">
      <!-- 3 -->
      <g transform="translate(803.90416 224.791947) scale(0.18 -0.18)">
       <defs>
        <path id="Arial-BoldMT-33" d="M 241 1216 
L 1091 1319 
Q 1131 994 1309 822 
Q 1488 650 1741 650 
Q 2013 650 2198 856 
Q 2384 1063 2384 1413 
Q 2384 1744 2206 1937 
Q 2028 2131 1772 2131 
Q 1603 2131 1369 2066 
L 1466 2781 
Q 1822 2772 2009 2936 
Q 2197 3100 2197 3372 
Q 2197 3603 2059 3740 
Q 1922 3878 1694 3878 
Q 1469 3878 1309 3722 
Q 1150 3566 1116 3266 
L 306 3403 
Q 391 3819 561 4067 
Q 731 4316 1036 4458 
Q 1341 4600 1719 4600 
Q 2366 4600 2756 4188 
Q 3078 3850 3078 3425 
Q 3078 2822 2419 2463 
Q 2813 2378 3048 2084 
Q 3284 1791 3284 1375 
Q 3284 772 2843 347 
Q 2403 -78 1747 -78 
Q 1125 -78 715 280 
Q 306 638 241 1216 
z
" transform="scale(0.015625)"/>
       </defs>
       <use xlink:href="#Arial-BoldMT-33"/>
      </g>
     </g>
    </g>
    <g id="xtick_5">
     <g id="line2d_5">
      <g>
       <use xlink:href="#mc17069fb09" x="701.454502" y="198.907885" style="stroke: #000000; stroke-width: 2"/>
      </g>
     </g>
     <g id="text_5">
      <!-- 4 -->
      <g transform="translate(696.449658 224.791947) scale(0.18 -0.18)">
       <defs>
        <path id="Arial-BoldMT-34" d="M 1994 0 
L 1994 922 
L 119 922 
L 119 1691 
L 2106 4600 
L 2844 4600 
L 2844 1694 
L 3413 1694 
L 3413 922 
L 2844 922 
L 2844 0 
L 1994 0 
z
M 1994 1694 
L 1994 3259 
L 941 1694 
L 1994 1694 
z
" transform="scale(0.015625)"/>
       </defs>
       <use xlink:href="#Arial-BoldMT-34"/>
      </g>
     </g>
    </g>
    <g id="xtick_6">
     <g id="line2d_6">
      <g>
       <use xlink:href="#mc17069fb09" x="594" y="198.907885" style="stroke: #000000; stroke-width: 2"/>
      </g>
     </g>
     <g id="text_6">
      <!-- 5 -->
      <g transform="translate(588.995156 224.791947) scale(0.18 -0.18)">
       <defs>
        <path id="Arial-BoldMT-35" d="M 284 1178 
L 1159 1269 
Q 1197 972 1381 798 
Q 1566 625 1806 625 
Q 2081 625 2272 848 
Q 2463 1072 2463 1522 
Q 2463 1944 2273 2155 
Q 2084 2366 1781 2366 
Q 1403 2366 1103 2031 
L 391 2134 
L 841 4519 
L 3163 4519 
L 3163 3697 
L 1506 3697 
L 1369 2919 
Q 1663 3066 1969 3066 
Q 2553 3066 2959 2641 
Q 3366 2216 3366 1538 
Q 3366 972 3038 528 
Q 2591 -78 1797 -78 
Q 1163 -78 763 262 
Q 363 603 284 1178 
z
" transform="scale(0.015625)"/>
       </defs>
       <use xlink:href="#Arial-BoldMT-35"/>
      </g>
     </g>
    </g>
    <g id="xtick_7">
     <g id="line2d_7">
      <g>
       <use xlink:href="#mc17069fb09" x="486.545498" y="198.907885" style="stroke: #000000; stroke-width: 2"/>
      </g>
     </g>
     <g id="text_7">
      <!-- 6 -->
      <g transform="translate(481.540654 224.791947) scale(0.18 -0.18)">
       <defs>
        <path id="Arial-BoldMT-36" d="M 3247 3459 
L 2397 3366 
Q 2366 3628 2234 3753 
Q 2103 3878 1894 3878 
Q 1616 3878 1423 3628 
Q 1231 3378 1181 2588 
Q 1509 2975 1997 2975 
Q 2547 2975 2939 2556 
Q 3331 2138 3331 1475 
Q 3331 772 2918 347 
Q 2506 -78 1859 -78 
Q 1166 -78 719 461 
Q 272 1000 272 2228 
Q 272 3488 737 4044 
Q 1203 4600 1947 4600 
Q 2469 4600 2811 4308 
Q 3153 4016 3247 3459 
z
M 1256 1544 
Q 1256 1116 1453 883 
Q 1650 650 1903 650 
Q 2147 650 2309 840 
Q 2472 1031 2472 1466 
Q 2472 1913 2297 2120 
Q 2122 2328 1859 2328 
Q 1606 2328 1431 2129 
Q 1256 1931 1256 1544 
z
" transform="scale(0.015625)"/>
       </defs>
       <use xlink:href="#Arial-BoldMT-36"/>
      </g>
     </g>
    </g>
    <g id="xtick_8">
     <g id="line2d_8">
      <g>
       <use xlink:href="#mc17069fb09" x="379.090996" y="198.907885" style="stroke: #000000; stroke-width: 2"/>
      </g>
     </g>
     <g id="text_8">
      <!-- 7 -->
      <g transform="translate(374.086153 224.791947) scale(0.18 -0.18)">
       <defs>
        <path id="Arial-BoldMT-37" d="M 272 3703 
L 272 4519 
L 3275 4519 
L 3275 3881 
Q 2903 3516 2518 2831 
Q 2134 2147 1932 1376 
Q 1731 606 1734 0 
L 888 0 
Q 909 950 1279 1937 
Q 1650 2925 2269 3703 
L 272 3703 
z
" transform="scale(0.015625)"/>
       </defs>
       <use xlink:href="#Arial-BoldMT-37"/>
      </g>
     </g>
    </g>
    <g id="xtick_9">
     <g id="line2d_9">
      <g>
       <use xlink:href="#mc17069fb09" x="271.636495" y="198.907885" style="stroke: #000000; stroke-width: 2"/>
      </g>
     </g>
     <g id="text_9">
      <!-- 8 -->
      <g transform="translate(266.631651 224.791947) scale(0.18 -0.18)">
       <defs>
        <path id="Arial-BoldMT-38" d="M 1025 2472 
Q 684 2616 529 2867 
Q 375 3119 375 3419 
Q 375 3931 733 4265 
Q 1091 4600 1750 4600 
Q 2403 4600 2764 4265 
Q 3125 3931 3125 3419 
Q 3125 3100 2959 2851 
Q 2794 2603 2494 2472 
Q 2875 2319 3073 2025 
Q 3272 1731 3272 1347 
Q 3272 713 2867 316 
Q 2463 -81 1791 -81 
Q 1166 -81 750 247 
Q 259 634 259 1309 
Q 259 1681 443 1992 
Q 628 2303 1025 2472 
z
M 1206 3356 
Q 1206 3094 1354 2947 
Q 1503 2800 1750 2800 
Q 2000 2800 2150 2948 
Q 2300 3097 2300 3359 
Q 2300 3606 2151 3754 
Q 2003 3903 1759 3903 
Q 1506 3903 1356 3753 
Q 1206 3603 1206 3356 
z
M 1125 1394 
Q 1125 1031 1311 828 
Q 1497 625 1775 625 
Q 2047 625 2225 820 
Q 2403 1016 2403 1384 
Q 2403 1706 2222 1901 
Q 2041 2097 1763 2097 
Q 1441 2097 1283 1875 
Q 1125 1653 1125 1394 
z
" transform="scale(0.015625)"/>
       </defs>
       <use xlink:href="#Arial-BoldMT-38"/>
      </g>
     </g>
    </g>
    <g id="xtick_10">
     <g id="line2d_10">
      <g>
       <use xlink:href="#mc17069fb09" x="164.181993" y="198.907885" style="stroke: #000000; stroke-width: 2"/>
      </g>
     </g>
     <g id="text_10">
      <!-- 9 -->
      <g transform="translate(159.177149 224.791947) scale(0.18 -0.18)">
       <defs>
        <path id="Arial-BoldMT-39" d="M 291 1059 
L 1141 1153 
Q 1172 894 1303 769 
Q 1434 644 1650 644 
Q 1922 644 2112 894 
Q 2303 1144 2356 1931 
Q 2025 1547 1528 1547 
Q 988 1547 595 1964 
Q 203 2381 203 3050 
Q 203 3747 617 4173 
Q 1031 4600 1672 4600 
Q 2369 4600 2816 4061 
Q 3263 3522 3263 2288 
Q 3263 1031 2797 475 
Q 2331 -81 1584 -81 
Q 1047 -81 715 205 
Q 384 491 291 1059 
z
M 2278 2978 
Q 2278 3403 2083 3637 
Q 1888 3872 1631 3872 
Q 1388 3872 1227 3680 
Q 1066 3488 1066 3050 
Q 1066 2606 1241 2398 
Q 1416 2191 1678 2191 
Q 1931 2191 2104 2391 
Q 2278 2591 2278 2978 
z
" transform="scale(0.015625)"/>
       </defs>
       <use xlink:href="#Arial-BoldMT-39"/>
      </g>
     </g>
    </g>
    <g id="xtick_11">
     <g id="line2d_11">
      <g>
       <use xlink:href="#mc17069fb09" x="56.727491" y="198.907885" style="stroke: #000000; stroke-width: 2"/>
      </g>
     </g>
     <g id="text_11">
      <!-- 10 -->
      <g transform="translate(46.717803 224.791947) scale(0.18 -0.18)">
       <use xlink:href="#Arial-BoldMT-31"/>
       <use xlink:href="#Arial-BoldMT-30" x="55.615234"/>
      </g>
     </g>
    </g>
    <g id="text_12">
     <!-- Chemical Shift / ppm -->
     <g transform="translate(504.992813 245.447573) scale(0.18 -0.18)">
      <defs>
       <path id="Arial-BoldMT-43" d="M 3397 1684 
L 4294 1400 
Q 4088 650 3608 286 
Q 3128 -78 2391 -78 
Q 1478 -78 890 545 
Q 303 1169 303 2250 
Q 303 3394 893 4026 
Q 1484 4659 2447 4659 
Q 3288 4659 3813 4163 
Q 4125 3869 4281 3319 
L 3366 3100 
Q 3284 3456 3026 3662 
Q 2769 3869 2400 3869 
Q 1891 3869 1573 3503 
Q 1256 3138 1256 2319 
Q 1256 1450 1568 1081 
Q 1881 713 2381 713 
Q 2750 713 3015 947 
Q 3281 1181 3397 1684 
z
" transform="scale(0.015625)"/>
       <path id="Arial-BoldMT-68" d="M 1334 4581 
L 1334 2897 
Q 1759 3394 2350 3394 
Q 2653 3394 2897 3281 
Q 3141 3169 3264 2994 
Q 3388 2819 3433 2606 
Q 3478 2394 3478 1947 
L 3478 0 
L 2600 0 
L 2600 1753 
Q 2600 2275 2550 2415 
Q 2500 2556 2373 2639 
Q 2247 2722 2056 2722 
Q 1838 2722 1666 2615 
Q 1494 2509 1414 2295 
Q 1334 2081 1334 1663 
L 1334 0 
L 456 0 
L 456 4581 
L 1334 4581 
z
" transform="scale(0.015625)"/>
       <path id="Arial-BoldMT-65" d="M 2381 1056 
L 3256 909 
Q 3088 428 2723 176 
Q 2359 -75 1813 -75 
Q 947 -75 531 491 
Q 203 944 203 1634 
Q 203 2459 634 2926 
Q 1066 3394 1725 3394 
Q 2466 3394 2894 2905 
Q 3322 2416 3303 1406 
L 1103 1406 
Q 1113 1016 1316 798 
Q 1519 581 1822 581 
Q 2028 581 2168 693 
Q 2309 806 2381 1056 
z
M 2431 1944 
Q 2422 2325 2234 2523 
Q 2047 2722 1778 2722 
Q 1491 2722 1303 2513 
Q 1116 2303 1119 1944 
L 2431 1944 
z
" transform="scale(0.015625)"/>
       <path id="Arial-BoldMT-6d" d="M 394 3319 
L 1203 3319 
L 1203 2866 
Q 1638 3394 2238 3394 
Q 2556 3394 2790 3262 
Q 3025 3131 3175 2866 
Q 3394 3131 3647 3262 
Q 3900 3394 4188 3394 
Q 4553 3394 4806 3245 
Q 5059 3097 5184 2809 
Q 5275 2597 5275 2122 
L 5275 0 
L 4397 0 
L 4397 1897 
Q 4397 2391 4306 2534 
Q 4184 2722 3931 2722 
Q 3747 2722 3584 2609 
Q 3422 2497 3350 2280 
Q 3278 2063 3278 1594 
L 3278 0 
L 2400 0 
L 2400 1819 
Q 2400 2303 2353 2443 
Q 2306 2584 2207 2653 
Q 2109 2722 1941 2722 
Q 1738 2722 1575 2612 
Q 1413 2503 1342 2297 
Q 1272 2091 1272 1613 
L 1272 0 
L 394 0 
L 394 3319 
z
" transform="scale(0.015625)"/>
       <path id="Arial-BoldMT-69" d="M 459 3769 
L 459 4581 
L 1338 4581 
L 1338 3769 
L 459 3769 
z
M 459 0 
L 459 3319 
L 1338 3319 
L 1338 0 
L 459 0 
z
" transform="scale(0.015625)"/>
       <path id="Arial-BoldMT-63" d="M 3353 2338 
L 2488 2181 
Q 2444 2441 2289 2572 
Q 2134 2703 1888 2703 
Q 1559 2703 1364 2476 
Q 1169 2250 1169 1719 
Q 1169 1128 1367 884 
Q 1566 641 1900 641 
Q 2150 641 2309 783 
Q 2469 925 2534 1272 
L 3397 1125 
Q 3263 531 2881 228 
Q 2500 -75 1859 -75 
Q 1131 -75 698 384 
Q 266 844 266 1656 
Q 266 2478 700 2936 
Q 1134 3394 1875 3394 
Q 2481 3394 2839 3133 
Q 3197 2872 3353 2338 
z
" transform="scale(0.015625)"/>
       <path id="Arial-BoldMT-61" d="M 1116 2306 
L 319 2450 
Q 453 2931 781 3162 
Q 1109 3394 1756 3394 
Q 2344 3394 2631 3255 
Q 2919 3116 3036 2902 
Q 3153 2688 3153 2116 
L 3144 1091 
Q 3144 653 3186 445 
Q 3228 238 3344 0 
L 2475 0 
Q 2441 88 2391 259 
Q 2369 338 2359 363 
Q 2134 144 1878 34 
Q 1622 -75 1331 -75 
Q 819 -75 523 203 
Q 228 481 228 906 
Q 228 1188 362 1408 
Q 497 1628 739 1745 
Q 981 1863 1438 1950 
Q 2053 2066 2291 2166 
L 2291 2253 
Q 2291 2506 2166 2614 
Q 2041 2722 1694 2722 
Q 1459 2722 1328 2630 
Q 1197 2538 1116 2306 
z
M 2291 1594 
Q 2122 1538 1756 1459 
Q 1391 1381 1278 1306 
Q 1106 1184 1106 997 
Q 1106 813 1243 678 
Q 1381 544 1594 544 
Q 1831 544 2047 700 
Q 2206 819 2256 991 
Q 2291 1103 2291 1419 
L 2291 1594 
z
" transform="scale(0.015625)"/>
       <path id="Arial-BoldMT-6c" d="M 459 0 
L 459 4581 
L 1338 4581 
L 1338 0 
L 459 0 
z
" transform="scale(0.015625)"/>
       <path id="Arial-BoldMT-20" transform="scale(0.015625)"/>
       <path id="Arial-BoldMT-53" d="M 231 1491 
L 1131 1578 
Q 1213 1125 1461 912 
Q 1709 700 2131 700 
Q 2578 700 2804 889 
Q 3031 1078 3031 1331 
Q 3031 1494 2936 1608 
Q 2841 1722 2603 1806 
Q 2441 1863 1863 2006 
Q 1119 2191 819 2459 
Q 397 2838 397 3381 
Q 397 3731 595 4036 
Q 794 4341 1167 4500 
Q 1541 4659 2069 4659 
Q 2931 4659 3367 4281 
Q 3803 3903 3825 3272 
L 2900 3231 
Q 2841 3584 2645 3739 
Q 2450 3894 2059 3894 
Q 1656 3894 1428 3728 
Q 1281 3622 1281 3444 
Q 1281 3281 1419 3166 
Q 1594 3019 2269 2859 
Q 2944 2700 3267 2529 
Q 3591 2359 3773 2064 
Q 3956 1769 3956 1334 
Q 3956 941 3737 597 
Q 3519 253 3119 86 
Q 2719 -81 2122 -81 
Q 1253 -81 787 320 
Q 322 722 231 1491 
z
" transform="scale(0.015625)"/>
       <path id="Arial-BoldMT-66" d="M 75 3319 
L 563 3319 
L 563 3569 
Q 563 3988 652 4194 
Q 741 4400 980 4529 
Q 1219 4659 1584 4659 
Q 1959 4659 2319 4547 
L 2200 3934 
Q 1991 3984 1797 3984 
Q 1606 3984 1523 3895 
Q 1441 3806 1441 3553 
L 1441 3319 
L 2097 3319 
L 2097 2628 
L 1441 2628 
L 1441 0 
L 563 0 
L 563 2628 
L 75 2628 
L 75 3319 
z
" transform="scale(0.015625)"/>
       <path id="Arial-BoldMT-74" d="M 1981 3319 
L 1981 2619 
L 1381 2619 
L 1381 1281 
Q 1381 875 1398 808 
Q 1416 741 1477 697 
Q 1538 653 1625 653 
Q 1747 653 1978 738 
L 2053 56 
Q 1747 -75 1359 -75 
Q 1122 -75 931 4 
Q 741 84 652 211 
Q 563 338 528 553 
Q 500 706 500 1172 
L 500 2619 
L 97 2619 
L 97 3319 
L 500 3319 
L 500 3978 
L 1381 4491 
L 1381 3319 
L 1981 3319 
z
" transform="scale(0.015625)"/>
       <path id="Arial-BoldMT-2f" d="M -9 -78 
L 1125 4659 
L 1784 4659 
L 638 -78 
L -9 -78 
z
" transform="scale(0.015625)"/>
       <path id="Arial-BoldMT-70" d="M 434 3319 
L 1253 3319 
L 1253 2831 
Q 1413 3081 1684 3237 
Q 1956 3394 2288 3394 
Q 2866 3394 3269 2941 
Q 3672 2488 3672 1678 
Q 3672 847 3265 386 
Q 2859 -75 2281 -75 
Q 2006 -75 1782 34 
Q 1559 144 1313 409 
L 1313 -1263 
L 434 -1263 
L 434 3319 
z
M 1303 1716 
Q 1303 1156 1525 889 
Q 1747 622 2066 622 
Q 2372 622 2575 867 
Q 2778 1113 2778 1672 
Q 2778 2194 2568 2447 
Q 2359 2700 2050 2700 
Q 1728 2700 1515 2451 
Q 1303 2203 1303 1716 
z
" transform="scale(0.015625)"/>
      </defs>
      <use xlink:href="#Arial-BoldMT-43"/>
      <use xlink:href="#Arial-BoldMT-68" x="72.216797"/>
      <use xlink:href="#Arial-BoldMT-65" x="133.300781"/>
      <use xlink:href="#Arial-BoldMT-6d" x="188.916016"/>
      <use xlink:href="#Arial-BoldMT-69" x="277.832031"/>
      <use xlink:href="#Arial-BoldMT-63" x="305.615234"/>
      <use xlink:href="#Arial-BoldMT-61" x="361.230469"/>
      <use xlink:href="#Arial-BoldMT-6c" x="416.845703"/>
      <use xlink:href="#Arial-BoldMT-20" x="444.628906"/>
      <use xlink:href="#Arial-BoldMT-53" x="472.412109"/>
      <use xlink:href="#Arial-BoldMT-68" x="539.111328"/>
      <use xlink:href="#Arial-BoldMT-69" x="600.195312"/>
      <use xlink:href="#Arial-BoldMT-66" x="627.978516"/>
      <use xlink:href="#Arial-BoldMT-74" x="661.279297"/>
      <use xlink:href="#Arial-BoldMT-20" x="694.580078"/>
      <use xlink:href="#Arial-BoldMT-2f" x="722.363281"/>
      <use xlink:href="#Arial-BoldMT-20" x="750.146484"/>
      <use xlink:href="#Arial-BoldMT-70" x="777.929688"/>
      <use xlink:href="#Arial-BoldMT-70" x="839.013672"/>
      <use xlink:href="#Arial-BoldMT-6d" x="900.097656"/>
     </g>
    </g>
   </g>
   <g id="matplotlib.axis_2"/>
   <g id="line2d_12">
    <path d="M 2.955871 191.130003 
L 3.160491 190.791287 
L 3.365111 190.737274 
L 3.77435 191.153176 
L 4.18359 191.477663 
L 5.002069 191.410291 
L 5.411308 191.007456 
L 6.025167 190.047297 
L 6.229787 190.128027 
L 6.639026 191.193715 
L 7.048266 192.467036 
L 7.252886 192.768639 
L 7.457505 192.767535 
L 7.866745 192.106134 
L 8.275984 191.444151 
L 8.480604 191.501882 
L 8.889843 192.510769 
L 9.299083 193.340657 
L 9.912942 193.982835 
L 10.526801 194.747094 
L 10.731421 194.638603 
L 11.959139 192.302324 
L 12.572999 192.516112 
L 13.596097 191.75586 
L 14.414576 191.163514 
L 15.028435 191.329852 
L 15.846914 191.533012 
L 16.256154 191.82631 
L 16.460773 191.802614 
L 16.870013 191.435497 
L 17.074633 191.445022 
L 17.893111 192.312604 
L 18.91621 194.128206 
L 19.12083 193.960765 
L 19.530069 193.388572 
L 20.143928 193.151146 
L 20.348548 192.82846 
L 21.371647 190.023369 
L 21.576266 189.979752 
L 22.394745 190.781762 
L 22.803985 190.654395 
L 23.008605 190.84321 
L 23.417844 191.932188 
L 23.622464 192.521455 
L 23.827083 192.749008 
L 24.031703 192.50891 
L 24.440943 191.485794 
L 24.645562 191.365571 
L 24.850182 191.73501 
L 25.259422 193.644352 
L 25.668661 195.709635 
L 25.873281 196.208764 
L 26.0779 196.310983 
L 26.28252 196.127512 
L 26.69176 195.327941 
L 27.305619 194.02018 
L 27.510239 193.969303 
L 27.919478 194.333689 
L 28.328717 194.716951 
L 28.533337 194.742332 
L 28.942577 194.363193 
L 29.761056 193.323814 
L 30.170295 192.880383 
L 30.579534 192.477083 
L 31.602633 190.346171 
L 32.011873 190.53243 
L 32.421112 190.595445 
L 32.625732 190.412265 
L 33.034971 189.60253 
L 33.444211 188.710381 
L 33.64883 188.605084 
L 33.85345 188.862373 
L 34.876549 191.539807 
L 35.081168 191.26341 
L 35.490408 190.309059 
L 35.695028 190.153291 
L 35.899647 190.319048 
L 36.308887 190.895422 
L 36.513507 190.997293 
L 36.718126 190.889905 
L 38.355084 188.695222 
L 38.559704 188.488636 
L 39.173563 188.435145 
L 39.582802 187.814979 
L 40.196662 186.955645 
L 41.015141 186.099853 
L 41.21976 186.222922 
L 41.629 187.387461 
L 42.038239 188.364231 
L 42.242859 188.245924 
L 42.652098 187.028766 
L 43.061338 184.80214 
L 43.879817 178.261592 
L 44.289056 173.386107 
L 45.312155 157.901942 
L 45.516775 156.532559 
L 45.721394 156.284098 
L 45.926014 157.136347 
L 46.335253 161.326967 
L 47.562972 177.777099 
L 47.972211 180.874036 
L 49.609169 186.694639 
L 50.223028 188.690518 
L 50.836887 190.766778 
L 51.246127 191.404948 
L 52.269226 192.368302 
L 52.473845 192.488699 
L 52.678465 192.465061 
L 52.883085 192.161889 
L 53.701564 189.525401 
L 53.906183 189.417955 
L 54.110803 189.528653 
L 54.520043 190.128491 
L 55.338521 192.089581 
L 55.543141 192.096783 
L 55.747761 191.729492 
L 56.36162 189.900358 
L 56.56624 189.693946 
L 56.975479 189.725831 
L 57.180099 189.596257 
L 57.589338 188.85912 
L 58.203198 187.553915 
L 58.612437 186.99206 
L 59.021676 186.847734 
L 59.430916 186.932297 
L 59.635536 187.082373 
L 60.044775 187.948212 
L 60.454015 188.834089 
L 60.658634 188.907849 
L 60.863254 188.651605 
L 61.886353 186.058559 
L 62.090972 186.178841 
L 62.295592 186.497403 
L 62.704832 187.746969 
L 63.318691 189.807199 
L 63.52331 190.020988 
L 64.341789 189.973595 
L 64.955649 190.318061 
L 65.364888 190.380844 
L 65.978747 190.351456 
L 66.183367 190.114553 
L 66.592606 188.850293 
L 67.001846 187.323574 
L 67.206466 186.967493 
L 67.411085 186.960988 
L 67.820325 187.274672 
L 68.434184 187.107463 
L 68.638804 187.394024 
L 69.457283 189.723798 
L 70.071142 191.600093 
L 71.50348 193.237742 
L 72.117339 193.892755 
L 72.321959 193.954609 
L 72.526578 193.864819 
L 73.140438 193.026915 
L 74.368156 190.988232 
L 74.572776 190.881483 
L 74.982015 191.01855 
L 76.005114 191.669729 
L 76.209734 191.468428 
L 76.823593 190.482888 
L 77.028212 190.599511 
L 77.437452 191.880904 
L 77.846691 193.226765 
L 78.255931 193.724965 
L 78.66517 194.224094 
L 79.279029 195.209169 
L 79.483649 195.264054 
L 80.711368 194.760162 
L 80.915987 194.869873 
L 81.734466 195.899204 
L 82.143706 195.783279 
L 82.962185 195.270036 
L 83.576044 194.029008 
L 83.985283 193.488003 
L 84.394523 193.399085 
L 85.008382 192.731178 
L 85.213002 193.092835 
L 86.03148 195.9211 
L 86.44072 196.03145 
L 86.849959 195.962336 
L 87.668438 194.924874 
L 88.077678 194.319576 
L 89.510016 190.801567 
L 89.919255 190.163106 
L 90.123875 190.090159 
L 90.533114 190.359761 
L 91.760833 191.605088 
L 92.170072 191.555082 
L 92.579312 191.46535 
L 92.988551 191.939796 
L 94.01165 194.01565 
L 94.625509 194.02227 
L 94.830129 194.002291 
L 95.034748 193.805753 
L 95.443988 193.192963 
L 95.648608 193.205914 
L 96.057847 193.483067 
L 96.262467 193.250984 
L 96.876326 191.763294 
L 97.080946 191.597073 
L 97.285565 191.647079 
L 97.490185 191.932768 
L 98.513284 194.175947 
L 98.717903 193.962507 
L 99.741002 191.37405 
L 99.945622 191.348902 
L 100.150242 191.641155 
L 100.764101 193.305926 
L 100.96872 193.280546 
L 101.37796 192.41279 
L 101.991819 190.880612 
L 102.196439 190.783911 
L 102.401059 190.970925 
L 103.014918 191.875038 
L 103.219537 191.883227 
L 104.038016 191.425508 
L 104.651876 191.556185 
L 105.265735 190.94839 
L 105.879594 190.222986 
L 106.902693 188.370678 
L 107.721171 186.009541 
L 108.130411 185.707763 
L 108.335031 185.614024 
L 108.94889 185.011746 
L 109.358129 185.017729 
L 109.562749 185.145212 
L 109.767369 185.527022 
L 110.585848 188.237793 
L 110.790467 188.364115 
L 111.404327 188.354125 
L 112.018186 189.097186 
L 112.427425 189.796919 
L 113.859763 193.425511 
L 114.473622 194.058221 
L 115.292101 195.494511 
L 116.3152 196.522158 
L 116.929059 196.886428 
L 117.338299 197.385209 
L 117.542918 197.413842 
L 117.747538 197.248317 
L 118.156778 196.422378 
L 118.566017 195.012456 
L 119.179876 192.641621 
L 119.589116 192.075062 
L 119.998355 192.223453 
L 120.407595 192.326369 
L 121.021454 192.218865 
L 121.430693 192.642201 
L 121.635313 192.84327 
L 121.839933 192.849369 
L 122.658412 192.228215 
L 122.863031 191.922663 
L 123.067651 191.356452 
L 123.47689 189.037887 
L 123.88613 186.818927 
L 124.09075 186.647362 
L 124.295369 187.12419 
L 124.909229 189.681226 
L 125.113848 190.000079 
L 125.932327 190.303599 
L 126.546186 190.734892 
L 126.955426 191.553514 
L 127.364665 192.655211 
L 127.569285 192.937881 
L 127.773905 192.926149 
L 128.387764 192.249298 
L 128.592384 192.231177 
L 128.797003 192.408782 
L 129.615482 193.639415 
L 130.229341 193.709342 
L 130.638581 193.532898 
L 130.843201 193.41041 
L 131.04782 193.432712 
L 131.45706 193.68007 
L 131.866299 193.530227 
L 132.275539 193.426614 
L 133.503257 193.484577 
L 133.707877 193.394148 
L 134.117116 192.748486 
L 134.730975 191.352619 
L 134.935595 191.311731 
L 135.140215 191.579068 
L 136.367933 194.150625 
L 136.981792 194.547594 
L 138.004891 194.835897 
L 138.41413 194.599109 
L 138.82337 194.438696 
L 139.232609 194.698192 
L 139.641849 195.106718 
L 139.846469 195.18588 
L 140.051088 195.123736 
L 140.255708 194.936025 
L 140.460328 194.578317 
L 140.869567 193.089931 
L 141.483426 190.76428 
L 141.892666 189.819919 
L 142.301905 189.363651 
L 142.711145 189.322706 
L 144.552722 190.412265 
L 144.757342 190.646438 
L 144.961962 190.66845 
L 145.371201 190.271482 
L 145.575821 190.342222 
L 145.98506 191.412498 
L 146.3943 192.384331 
L 146.803539 193.15254 
L 147.826638 195.531855 
L 148.235877 195.980631 
L 148.440497 195.995731 
L 148.849737 195.655621 
L 150.282075 193.413314 
L 150.895934 191.942932 
L 151.714413 190.725716 
L 151.919032 190.827354 
L 152.328272 191.82962 
L 152.737511 192.68547 
L 153.146751 192.744304 
L 153.55599 192.575759 
L 153.96523 192.361564 
L 154.169849 192.534233 
L 154.783709 193.505834 
L 154.988328 193.532782 
L 155.602188 193.219447 
L 156.011427 193.351402 
L 156.216047 193.266491 
L 156.625286 192.817193 
L 156.829906 192.763702 
L 157.239145 192.916333 
L 157.443765 192.78403 
L 158.057624 191.85744 
L 158.466864 191.75679 
L 158.876103 191.94543 
L 159.285343 192.487073 
L 159.899202 193.655619 
L 160.103822 193.776307 
L 160.308441 193.597308 
L 161.12692 192.296342 
L 161.53616 191.893681 
L 161.740779 191.983239 
L 162.150019 192.842689 
L 162.763878 194.235884 
L 162.968498 194.459488 
L 163.173117 194.490212 
L 163.377737 194.337406 
L 163.582357 193.975807 
L 164.605456 191.058334 
L 164.810075 191.084295 
L 165.014695 191.258764 
L 165.219315 191.595388 
L 165.628554 192.958673 
L 166.037794 194.393801 
L 166.447033 195.003745 
L 166.856273 195.351288 
L 167.060892 195.179027 
L 167.265512 194.505254 
L 167.879371 191.23559 
L 168.083991 190.710906 
L 168.288611 190.617689 
L 168.49323 190.841235 
L 169.516329 192.825847 
L 169.720949 192.64981 
L 170.334808 191.165837 
L 170.539428 191.066348 
L 170.948667 191.392751 
L 171.562526 192.621061 
L 171.971766 193.249183 
L 172.585625 193.682625 
L 172.790245 194.070476 
L 173.608723 196.882421 
L 173.813343 196.879517 
L 174.631822 195.424293 
L 175.245681 195.319694 
L 175.450301 194.976041 
L 175.85954 193.3424 
L 176.26878 191.572854 
L 176.4734 191.174956 
L 176.678019 191.259577 
L 177.087259 192.398793 
L 177.496498 193.603638 
L 177.701118 193.822654 
L 179.133456 193.619436 
L 179.542696 193.848557 
L 180.156555 193.632503 
L 180.975034 194.41831 
L 181.179653 194.254295 
L 181.998132 192.804241 
L 182.407372 193.546198 
L 182.816611 194.093243 
L 183.225851 194.086506 
L 183.43047 193.846872 
L 183.83971 192.687096 
L 184.453569 190.228677 
L 184.658189 189.934857 
L 184.862808 190.047181 
L 185.476668 191.189534 
L 185.681287 190.999209 
L 186.090527 189.623438 
L 186.499766 188.380319 
L 186.704386 188.2116 
L 186.909006 188.333391 
L 187.318245 189.163686 
L 187.727485 190.426784 
L 188.955203 195.432076 
L 189.159823 195.877425 
L 189.364442 196.041265 
L 189.569062 195.945551 
L 189.773682 195.660907 
L 190.182921 194.418252 
L 190.796781 191.81452 
L 191.615259 189.697372 
L 191.819879 189.551362 
L 192.024499 189.630233 
L 192.638358 190.216423 
L 192.842978 190.231059 
L 193.047598 190.082841 
L 193.866076 189.080285 
L 194.479936 188.73518 
L 194.684555 188.823286 
L 194.889175 189.132672 
L 195.298415 190.39124 
L 195.707654 192.02645 
L 195.912274 192.459021 
L 196.116893 192.390313 
L 196.935372 190.784492 
L 197.344612 190.676117 
L 197.753851 190.810221 
L 198.163091 190.983586 
L 198.57233 191.017911 
L 198.77695 191.137088 
L 199.390809 191.914764 
L 199.595429 191.905762 
L 200.209288 191.538413 
L 200.618527 191.60654 
L 201.437006 192.200454 
L 201.846246 192.10352 
L 202.050866 191.836474 
L 202.460105 190.517503 
L 203.687823 184.998563 
L 204.097063 184.664319 
L 204.301683 184.537068 
L 205.120161 183.610362 
L 205.324781 183.671403 
L 205.529401 183.611117 
L 205.734021 183.18418 
L 207.370978 176.837325 
L 207.575598 176.49042 
L 207.780218 176.44419 
L 207.984838 176.675692 
L 209.007936 178.707464 
L 209.212556 178.502794 
L 209.826415 177.169536 
L 210.031035 177.016905 
L 210.235655 177.061509 
L 210.440274 177.340811 
L 211.054134 178.834947 
L 211.463373 179.140674 
L 211.667993 179.27379 
L 211.872612 179.582073 
L 212.895711 182.173608 
L 213.100331 182.293425 
L 213.30495 182.163735 
L 214.123429 180.479158 
L 214.532669 180.637133 
L 214.737289 180.448957 
L 215.146528 179.370956 
L 216.374246 174.702289 
L 217.192725 169.788878 
L 217.601965 167.73736 
L 217.806584 167.334525 
L 218.011204 167.528102 
L 218.625063 169.866588 
L 219.238923 171.815597 
L 219.852782 172.827969 
L 220.262021 174.208038 
L 220.671261 175.759208 
L 220.87588 176.205021 
L 221.0805 176.383613 
L 221.28512 176.326696 
L 222.308218 175.263795 
L 223.331317 174.357185 
L 223.535937 174.432223 
L 223.945176 174.940122 
L 224.354416 175.532178 
L 224.559035 175.507726 
L 224.763655 175.177316 
L 225.172895 173.697293 
L 225.991374 169.759955 
L 226.605233 167.446849 
L 227.219092 164.8642 
L 228.44681 161.87343 
L 228.65143 161.88069 
L 229.469909 162.63072 
L 230.493008 162.902529 
L 230.902247 162.934821 
L 231.516106 162.597615 
L 231.720726 162.703203 
L 232.334585 163.30519 
L 232.539205 163.083213 
L 232.948444 161.550164 
L 233.357684 159.819415 
L 233.562303 159.47553 
L 233.766923 159.545805 
L 234.994642 161.225096 
L 235.199261 161.268133 
L 236.22236 160.45108 
L 236.631599 159.907172 
L 237.450078 157.691058 
L 238.268557 155.41036 
L 238.677797 155.030641 
L 239.087036 154.137098 
L 239.700895 152.005489 
L 240.314754 148.993985 
L 241.133233 144.327351 
L 241.951712 141.510412 
L 242.565571 138.491358 
L 243.38405 132.903245 
L 244.202529 125.47595 
L 244.816388 116.716094 
L 246.044107 96.376481 
L 246.248727 94.931015 
L 246.453346 94.494262 
L 246.657966 94.954362 
L 247.067205 98.124537 
L 247.681065 106.707775 
L 248.294924 116.201457 
L 248.908783 121.961193 
L 249.113403 122.981464 
L 249.318022 123.259603 
L 249.522642 122.63938 
L 249.931882 118.921812 
L 250.75036 106.749302 
L 251.568839 95.54212 
L 252.182699 89.713793 
L 252.387318 88.742367 
L 252.591938 88.460859 
L 252.796558 89.097112 
L 253.001177 90.81491 
L 253.410417 97.491652 
L 254.433516 119.297117 
L 255.047375 124.823318 
L 256.479713 135.422124 
L 257.093572 139.289012 
L 257.707431 141.518833 
L 259.344389 147.339726 
L 259.958248 150.103697 
L 261.185967 154.144474 
L 261.595206 154.223345 
L 261.799826 154.070133 
L 262.004445 153.604747 
L 262.413685 151.69738 
L 263.232164 147.056475 
L 263.641403 145.867602 
L 264.050643 143.566867 
L 264.664502 139.666699 
L 264.869122 139.258928 
L 265.073741 139.42544 
L 265.687601 141.175703 
L 266.710699 144.081271 
L 267.529178 145.3773 
L 267.938418 145.445368 
L 268.347657 145.565185 
L 269.166136 146.118328 
L 269.575375 147.220258 
L 269.779995 147.788501 
L 269.984615 147.97656 
L 270.189235 147.680474 
L 270.598474 146.149923 
L 271.212333 142.993106 
L 272.235432 136.407373 
L 272.849291 130.071147 
L 273.87239 116.233807 
L 274.690869 105.772416 
L 274.895488 104.46872 
L 275.100108 103.93817 
L 275.304728 104.098352 
L 275.713967 105.661485 
L 276.327826 108.362267 
L 276.737066 108.923425 
L 277.146305 109.153127 
L 277.350925 109.027909 
L 277.555545 108.617117 
L 278.374024 106.097483 
L 278.578643 106.506358 
L 278.987883 108.828059 
L 279.806362 114.711271 
L 280.624841 118.365533 
L 280.82946 118.430407 
L 281.03408 117.903574 
L 281.44332 115.337012 
L 282.466418 105.34211 
L 283.489517 93.272458 
L 283.898756 89.209088 
L 284.307996 87.158441 
L 284.512615 86.801721 
L 284.717235 86.836045 
L 284.921855 87.246779 
L 285.331094 88.753228 
L 285.740334 90.982409 
L 286.763432 98.396753 
L 287.581911 101.871261 
L 287.991151 102.87132 
L 288.195771 103.023545 
L 288.40039 102.812196 
L 288.80963 101.492296 
L 289.423489 98.75597 
L 290.037348 95.842562 
L 290.446587 94.706134 
L 290.651207 94.374503 
L 290.855827 94.274085 
L 291.060447 94.559601 
L 291.469686 96.472369 
L 292.083545 99.864289 
L 292.492785 101.114145 
L 292.697404 101.411102 
L 292.902024 101.472666 
L 293.106644 101.285013 
L 293.515883 100.228559 
L 294.334362 97.023305 
L 294.743602 95.260322 
L 294.948221 94.778906 
L 295.152841 94.639052 
L 295.562081 94.873459 
L 295.97132 95.403718 
L 296.38056 96.383799 
L 296.994419 98.407788 
L 297.403658 100.399659 
L 298.222137 105.662124 
L 299.245236 113.538427 
L 299.654475 115.291769 
L 300.063715 116.026175 
L 300.268334 115.978377 
L 300.677574 115.423491 
L 300.882194 114.927963 
L 301.086813 114.078153 
L 301.496053 110.728341 
L 302.109912 104.520585 
L 302.314532 103.322186 
L 302.519151 102.784202 
L 302.723771 102.885666 
L 303.133011 104.455478 
L 303.33763 105.277584 
L 303.54225 105.637615 
L 303.74687 105.493928 
L 304.974588 103.024881 
L 305.179208 103.023545 
L 305.383828 103.277407 
L 305.588447 103.889791 
L 305.997687 106.28804 
L 307.225405 116.719753 
L 307.839264 119.250712 
L 308.248504 120.100464 
L 308.453123 120.266104 
L 309.271602 120.371517 
L 309.476222 120.499 
L 309.680842 120.358566 
L 309.885462 119.715052 
L 310.090081 118.413912 
L 310.499321 113.694368 
L 311.522419 96.410515 
L 312.136279 83.33668 
L 312.750138 65.410184 
L 313.363997 39.528108 
L 313.977856 10.683605 
L 314.182476 4.946462 
L 314.387096 3.00024 
L 314.591715 4.953954 
L 315.000955 16.72752 
L 315.614814 36.484777 
L 316.024053 43.771347 
L 316.228673 45.179701 
L 316.433293 45.141485 
L 316.842532 42.207923 
L 317.047152 40.65263 
L 317.251772 40.07463 
L 317.456391 41.023173 
L 317.865631 47.406443 
L 319.093349 72.734854 
L 319.707208 80.305023 
L 320.116448 82.505862 
L 320.321068 82.432625 
L 320.525687 81.489192 
L 320.934927 77.05226 
L 321.548786 65.293155 
L 322.162645 52.561346 
L 322.367265 49.731397 
L 322.571885 48.597698 
L 322.776504 49.518538 
L 323.185744 56.702715 
L 324.618082 92.166753 
L 325.231941 101.041605 
L 325.641181 104.361333 
L 326.25504 106.761092 
L 326.664279 107.88666 
L 327.073519 108.412447 
L 327.482758 108.514724 
L 327.687378 108.831602 
L 328.096617 110.278752 
L 328.505857 111.725961 
L 328.710476 112.020072 
L 329.119716 112.047659 
L 329.324336 111.893112 
L 329.528955 111.517632 
L 329.938195 110.017049 
L 331.165913 104.01013 
L 332.189012 97.510238 
L 333.41673 89.925897 
L 333.82597 88.543098 
L 334.030589 88.368513 
L 334.235209 88.817869 
L 334.644448 91.627259 
L 335.258308 96.793777 
L 335.667547 98.910054 
L 336.076787 99.803945 
L 336.281406 99.709044 
L 337.099885 98.223794 
L 337.509125 99.171118 
L 337.918364 100.026677 
L 338.327604 100.243544 
L 338.736843 100.399834 
L 339.146082 100.860283 
L 339.555322 101.571632 
L 339.964561 102.659681 
L 340.578421 104.585459 
L 341.396899 106.534526 
L 342.215378 109.724274 
L 342.419998 109.922439 
L 342.624618 109.830907 
L 343.033857 109.242916 
L 344.466195 106.547943 
L 344.670815 106.600504 
L 344.875435 107.03505 
L 345.898533 110.692158 
L 346.103153 110.645114 
L 346.512393 109.791297 
L 346.921632 107.77027 
L 347.535491 102.451875 
L 348.14935 94.988397 
L 348.967829 84.331802 
L 349.377069 81.646586 
L 349.581689 81.863742 
L 349.786308 83.180796 
L 350.809407 93.613903 
L 351.014027 94.389023 
L 351.218646 94.510989 
L 351.423266 94.04601 
L 351.832506 91.747017 
L 352.446365 87.510631 
L 352.650984 87.342551 
L 352.855604 88.368397 
L 353.264844 93.974573 
L 354.287942 111.426158 
L 354.697182 114.890212 
L 354.901801 115.685834 
L 355.106421 115.837071 
L 355.72028 114.869768 
L 356.12952 114.880222 
L 356.33414 114.610794 
L 356.538759 113.808551 
L 357.357238 109.221311 
L 357.561858 109.342289 
L 357.766478 110.125831 
L 358.380337 114.659522 
L 358.994196 118.763605 
L 359.198816 119.458054 
L 359.403435 119.536925 
L 359.608055 119.017235 
L 360.426534 115.434062 
L 360.631154 115.44196 
L 360.835774 116.300598 
L 361.245013 120.829527 
L 362.268112 135.809393 
L 362.677351 139.333559 
L 363.086591 141.297436 
L 364.314309 144.775545 
L 366.155886 149.089525 
L 366.974365 149.438985 
L 367.792844 150.497704 
L 367.997464 150.613281 
L 368.202084 150.529009 
L 368.611323 149.904952 
L 368.815943 149.85239 
L 369.020563 150.200689 
L 369.634422 151.754762 
L 369.839041 151.755517 
L 370.043661 151.439627 
L 370.452901 149.994974 
L 370.86214 148.279151 
L 371.06676 147.762017 
L 371.27138 147.557928 
L 371.475999 147.632211 
L 372.294478 148.590221 
L 373.112957 148.386887 
L 373.317577 148.744014 
L 374.545295 152.316733 
L 375.363774 153.267832 
L 375.773014 153.550269 
L 375.977633 153.383699 
L 376.386873 152.425921 
L 378.023831 147.445894 
L 378.22845 147.24256 
L 378.842309 147.348844 
L 379.456169 146.900069 
L 380.274648 145.631627 
L 380.479267 145.83409 
L 380.888507 146.776361 
L 381.093126 146.853838 
L 381.297746 146.361794 
L 382.320845 141.961858 
L 383.139324 141.653402 
L 383.957803 141.777923 
L 384.162422 141.440601 
L 385.185521 138.785992 
L 385.390141 138.57232 
L 385.59476 138.687258 
L 386.004 139.963598 
L 386.413239 141.082835 
L 386.617859 141.2163 
L 386.822479 141.077202 
L 387.231718 140.058499 
L 388.459437 135.605537 
L 388.664056 135.606524 
L 388.868676 135.963883 
L 389.277916 137.44501 
L 389.891775 139.913592 
L 390.301014 140.897215 
L 391.119493 142.059489 
L 391.528733 142.470803 
L 391.937972 143.350814 
L 392.347211 144.328454 
L 392.551831 144.465521 
L 393.37031 144.079935 
L 393.984169 144.760909 
L 394.188789 144.706025 
L 395.007268 143.720892 
L 395.211888 143.818929 
L 395.621127 144.63726 
L 396.030367 146.185351 
L 396.848845 149.743434 
L 397.462705 151.917615 
L 398.281184 155.473956 
L 398.690423 156.47541 
L 398.895043 156.674155 
L 399.099662 156.716843 
L 399.304282 156.618806 
L 399.508902 156.312382 
L 400.122761 154.694829 
L 400.532001 154.401705 
L 400.94124 154.398278 
L 401.350479 155.005434 
L 401.759719 155.534416 
L 402.168958 156.059856 
L 402.782818 157.544815 
L 403.396677 160.133331 
L 403.805916 161.631997 
L 404.419775 162.793283 
L 404.829015 163.202565 
L 405.033634 163.125552 
L 405.238254 162.777602 
L 406.261353 159.670791 
L 406.465973 159.66144 
L 406.875212 160.284974 
L 407.284451 160.840034 
L 408.30755 161.213539 
L 408.51217 160.954914 
L 408.921409 160.11794 
L 409.126029 159.993012 
L 409.330649 160.262905 
L 409.739888 161.902702 
L 410.353747 164.581646 
L 410.762987 165.644721 
L 410.967607 165.836962 
L 411.376846 165.784459 
L 411.990705 165.40352 
L 412.195325 165.428958 
L 412.604564 165.984541 
L 413.013804 166.903812 
L 414.036902 170.966368 
L 414.446142 171.29887 
L 414.855381 171.597801 
L 415.67386 172.483213 
L 416.492339 173.91416 
L 417.106198 175.023872 
L 417.515438 175.636255 
L 418.129297 175.789757 
L 418.743156 176.245618 
L 418.947776 176.236151 
L 419.357015 175.777735 
L 419.766255 175.343654 
L 420.380114 175.001337 
L 420.584734 175.071554 
L 420.993973 175.910445 
L 421.607832 177.553611 
L 422.017072 178.042519 
L 422.426311 178.050011 
L 423.44941 177.694104 
L 423.858649 178.027883 
L 424.267889 179.103387 
L 424.677128 180.573246 
L 424.881748 180.968008 
L 425.086368 180.996641 
L 425.495607 180.372351 
L 425.904847 179.702238 
L 426.314086 179.534216 
L 426.723326 179.574813 
L 427.337185 179.846331 
L 427.951044 179.650199 
L 428.155664 179.400286 
L 428.974143 177.284068 
L 429.178762 177.128939 
L 429.588002 177.214199 
L 430.201861 177.704791 
L 431.02034 178.705779 
L 431.22496 178.622843 
L 431.634199 177.785985 
L 432.248058 176.452204 
L 432.657298 176.020098 
L 433.271157 176.024454 
L 433.475777 175.893776 
L 433.680396 175.909516 
L 434.089636 176.565342 
L 434.498875 177.065865 
L 434.703495 176.894359 
L 435.112734 175.626672 
L 435.521974 174.084737 
L 435.726594 173.664827 
L 435.931213 173.515855 
L 436.340453 173.59641 
L 436.545072 173.766988 
L 436.749692 174.144907 
L 437.158932 175.536882 
L 437.772791 177.696601 
L 438.18203 178.186671 
L 438.795889 178.599785 
L 439.000509 178.544669 
L 439.614368 177.996637 
L 440.228228 178.111052 
L 440.637467 178.294523 
L 440.842087 178.265716 
L 441.660566 177.672847 
L 442.683664 178.696603 
L 443.092904 179.06761 
L 443.502143 179.990657 
L 444.116002 181.998849 
L 445.343721 187.449025 
L 445.54834 187.414061 
L 446.366819 185.538115 
L 446.571439 185.760905 
L 447.185298 187.20097 
L 448.003777 189.28902 
L 448.208397 189.134763 
L 448.617636 187.777344 
L 449.231495 185.600782 
L 449.640735 185.189293 
L 449.845355 185.181627 
L 450.049974 185.305509 
L 450.459214 186.09724 
L 450.868453 186.988343 
L 451.073073 187.011749 
L 451.277693 186.69156 
L 452.096172 184.721817 
L 452.710031 184.3281 
L 453.733129 183.646255 
L 453.937749 183.777223 
L 455.574707 186.012561 
L 455.779327 185.897739 
L 456.393186 184.869047 
L 456.597806 184.797319 
L 456.802425 184.919459 
L 457.211665 185.572149 
L 458.848623 189.380262 
L 459.053242 189.627329 
L 459.257862 189.692842 
L 459.667102 189.563268 
L 460.280961 189.790008 
L 460.48558 189.449782 
L 461.09944 187.809346 
L 461.304059 187.630521 
L 461.508679 187.745633 
L 461.917919 188.620939 
L 462.531778 190.34106 
L 462.941017 190.729201 
L 463.350257 190.68326 
L 463.759496 190.641792 
L 464.577975 191.156254 
L 464.987214 190.739597 
L 466.419553 188.902099 
L 466.624172 188.943858 
L 467.442651 189.843441 
L 467.851891 189.640281 
L 468.05651 189.724205 
L 468.46575 190.12913 
L 468.67037 190.184828 
L 469.079609 189.92841 
L 469.284229 189.788498 
L 469.488848 189.789485 
L 469.898088 190.265674 
L 470.511947 191.312661 
L 470.716567 191.232744 
L 470.921187 190.822708 
L 471.739665 188.492004 
L 471.944285 188.535679 
L 472.762764 189.623206 
L 472.967384 189.496303 
L 473.581243 188.421671 
L 473.785863 188.3065 
L 473.990482 188.392109 
L 474.604342 189.242557 
L 474.808961 189.115422 
L 475.218201 188.456402 
L 475.422821 188.367774 
L 475.62744 188.605955 
L 476.445919 190.49131 
L 476.650539 190.631512 
L 476.855159 190.453791 
L 477.264398 189.193945 
L 477.878257 187.234772 
L 478.082877 186.855285 
L 478.287497 186.750162 
L 478.492116 187.065123 
L 479.310595 190.347681 
L 479.515215 190.36191 
L 479.924455 189.531906 
L 481.356793 185.177852 
L 481.561412 185.199109 
L 482.379891 185.757943 
L 482.789131 185.856677 
L 483.40299 186.292559 
L 483.60761 186.199168 
L 484.016849 185.537708 
L 484.630708 184.133478 
L 485.244567 182.629062 
L 485.653807 182.078998 
L 486.063046 182.009013 
L 486.472286 182.133418 
L 486.881525 183.029574 
L 487.290765 183.941818 
L 487.495384 184.070056 
L 487.904624 183.969289 
L 488.518483 183.616751 
L 488.927722 182.823104 
L 489.746201 180.47759 
L 489.950821 180.324901 
L 490.56468 180.2566 
L 491.383159 179.718732 
L 491.792399 179.893143 
L 492.815497 180.86335 
L 493.429356 182.232849 
L 493.633976 182.404762 
L 493.838596 182.387454 
L 494.861695 181.549319 
L 495.270934 181.194399 
L 495.475554 181.179415 
L 495.680173 181.429967 
L 496.294033 182.746265 
L 496.498652 182.864049 
L 496.907892 182.777396 
L 497.112512 182.970624 
L 497.521751 184.131968 
L 498.13561 186.521157 
L 498.34023 186.959943 
L 498.54485 187.056992 
L 498.954089 186.621924 
L 499.772568 185.255039 
L 499.977188 185.429624 
L 501.000286 187.993746 
L 501.818765 188.075579 
L 502.432624 187.94978 
L 502.637244 188.398033 
L 503.455723 191.91186 
L 503.660343 192.156953 
L 503.864963 192.009026 
L 504.888061 189.937354 
L 505.297301 189.578311 
L 505.70654 188.817071 
L 506.320399 187.169259 
L 506.525019 186.842159 
L 506.729639 186.778272 
L 507.548118 187.432182 
L 508.366597 187.386125 
L 508.571216 187.579528 
L 508.980456 188.487184 
L 509.594315 190.274211 
L 509.798935 190.553048 
L 510.208174 190.607816 
L 510.617414 190.411103 
L 511.231273 189.770029 
L 511.845132 189.915691 
L 512.254371 189.497871 
L 512.663611 189.174489 
L 512.868231 189.414412 
L 513.27747 190.954082 
L 513.686709 192.392869 
L 513.891329 192.591789 
L 514.095949 192.543351 
L 514.914428 191.860228 
L 515.119048 191.901406 
L 515.937526 192.714916 
L 516.346766 192.284726 
L 516.756005 191.632094 
L 516.960625 191.519363 
L 517.165245 191.837229 
L 518.188343 195.509669 
L 518.597583 195.988645 
L 519.006822 196.905129 
L 519.416062 197.864127 
L 519.620682 198.051373 
L 519.825301 198.001716 
L 520.029921 197.719917 
L 520.8484 196.021692 
L 521.05302 196.222064 
L 521.871498 198.161839 
L 522.076118 198.209406 
L 522.280738 198.052593 
L 522.689977 197.165265 
L 524.736175 191.100615 
L 524.940794 190.8568 
L 525.145414 190.897339 
L 525.554654 191.846696 
L 525.963893 192.91221 
L 526.986992 194.459546 
L 527.600851 194.916859 
L 528.41933 194.567456 
L 528.828569 194.597541 
L 529.237809 194.401409 
L 530.260907 193.395368 
L 531.284006 191.369868 
L 531.897865 190.698303 
L 532.307105 190.230884 
L 532.920964 189.334786 
L 533.330203 189.157239 
L 533.534823 189.354881 
L 533.944062 190.531326 
L 534.967161 194.493174 
L 535.171781 194.697669 
L 535.3764 194.596844 
L 535.78564 194.1695 
L 536.194879 194.046606 
L 536.399499 194.071057 
L 536.604119 194.231761 
L 537.217978 195.115546 
L 537.422598 195.15533 
L 537.831837 194.789782 
L 538.036457 194.580989 
L 538.241077 194.584241 
L 538.445696 194.950661 
L 539.059556 197.086452 
L 539.264175 197.299891 
L 539.468795 197.193491 
L 539.878034 196.430045 
L 540.696513 194.464483 
L 541.310373 193.848382 
L 541.514992 193.859882 
L 541.924232 194.458094 
L 542.128851 194.809123 
L 542.333471 194.903617 
L 542.538091 194.612758 
L 543.35657 192.541435 
L 543.56119 192.320967 
L 543.765809 192.272704 
L 544.175049 192.54399 
L 544.788908 193.104625 
L 545.198147 193.127566 
L 545.402767 192.916159 
L 545.812007 191.877884 
L 546.221246 190.934451 
L 546.425866 190.923416 
L 546.630485 191.316378 
L 547.244345 193.331713 
L 547.448964 193.397749 
L 547.858204 192.437473 
L 548.267443 191.457742 
L 549.085922 190.778742 
L 549.290542 190.850063 
L 549.495162 191.306621 
L 549.904401 193.310108 
L 550.313641 195.540858 
L 550.51826 195.990504 
L 550.72288 195.834562 
L 551.336739 194.464367 
L 551.541359 194.526395 
L 551.950598 195.33944 
L 552.973697 198.0832 
L 553.178317 198.399904 
L 553.382936 198.467218 
L 553.587556 198.178508 
L 553.996796 196.397637 
L 554.610655 192.959254 
L 555.019894 191.478418 
L 555.224514 191.082785 
L 555.633753 190.980798 
L 556.247613 190.775664 
L 556.452232 190.868706 
L 556.861472 191.503101 
L 557.270711 192.299594 
L 557.679951 192.70905 
L 558.49843 193.121119 
L 559.112289 193.250635 
L 559.521528 192.699177 
L 559.726148 192.424696 
L 559.930768 192.346696 
L 560.340007 192.804125 
L 561.158486 193.782463 
L 561.567725 194.111886 
L 561.772345 194.015475 
L 562.181585 193.185471 
L 563.204683 190.217642 
L 563.818542 187.276472 
L 564.023162 187.099216 
L 564.227782 187.499785 
L 564.841641 190.301741 
L 565.250881 191.809293 
L 565.66012 192.336184 
L 566.069359 192.550553 
L 566.683219 193.227984 
L 566.887838 193.237567 
L 567.092458 193.048637 
L 567.501698 192.170485 
L 568.115557 190.50612 
L 568.320176 190.275779 
L 568.524796 190.257543 
L 568.729416 190.517445 
L 569.138655 192.041782 
L 569.752515 194.844725 
L 570.161754 195.735364 
L 570.570993 196.116651 
L 570.775613 195.866273 
L 571.184853 194.089874 
L 571.798712 190.702659 
L 573.02643 186.914641 
L 573.23105 186.556121 
L 573.43567 186.656016 
L 574.254149 188.481724 
L 574.458768 188.422774 
L 574.663388 188.036957 
L 575.686487 184.988863 
L 575.891106 185.326998 
L 576.709585 187.417662 
L 576.914205 187.918998 
L 577.323444 190.08801 
L 578.141923 195.774973 
L 578.551163 197.219278 
L 578.755783 197.582677 
L 578.960402 197.63669 
L 579.369642 197.255519 
L 579.778881 196.521809 
L 580.59736 193.731586 
L 580.80198 193.550961 
L 581.620459 193.732283 
L 582.029698 193.072914 
L 582.643557 191.809699 
L 582.848177 191.858253 
L 583.462036 192.591789 
L 583.666656 192.34658 
L 584.075895 190.911626 
L 584.689755 187.438338 
L 585.303614 183.333501 
L 585.712853 182.015169 
L 586.531332 180.689346 
L 586.940572 179.570341 
L 587.96367 175.873739 
L 588.16829 175.654085 
L 588.577529 175.687655 
L 588.986769 176.060288 
L 589.805248 177.167155 
L 591.032966 181.293656 
L 591.442206 182.046067 
L 591.646825 182.063549 
L 592.056065 181.708222 
L 592.260685 181.887976 
L 592.465304 182.498617 
L 592.874544 184.671869 
L 593.488403 188.166356 
L 593.693023 188.660026 
L 593.897642 188.734658 
L 594.306882 188.522263 
L 594.511502 188.693422 
L 594.920741 189.78693 
L 595.5346 191.815565 
L 595.73922 192.142665 
L 595.94384 192.03005 
L 596.353079 190.694992 
L 597.376178 186.859699 
L 597.990037 185.23413 
L 598.194657 185.032655 
L 598.808516 185.209969 
L 599.626995 184.387283 
L 599.831614 184.425499 
L 600.036234 184.636151 
L 600.445474 185.797263 
L 601.059333 189.025458 
L 601.468572 190.900417 
L 601.673192 191.324973 
L 601.877812 191.417435 
L 602.287051 191.131106 
L 602.696291 190.856335 
L 602.90091 190.914182 
L 603.514769 191.519654 
L 603.719389 191.338157 
L 604.128629 190.264047 
L 604.742488 188.451523 
L 604.947108 188.24906 
L 605.151727 188.41203 
L 606.788685 191.622802 
L 607.197925 191.714044 
L 607.607164 191.454257 
L 608.221023 190.798895 
L 608.630263 190.74372 
L 609.039502 190.213577 
L 609.448742 189.312193 
L 609.857981 187.941533 
L 610.47184 185.794417 
L 610.67646 185.575053 
L 610.88108 185.608448 
L 611.290319 186.175182 
L 612.927277 188.589112 
L 613.131897 188.648585 
L 613.336516 188.507221 
L 613.745756 187.663974 
L 614.768854 185.05728 
L 615.178094 184.327345 
L 615.382714 184.130865 
L 615.587333 184.100606 
L 615.791953 184.249113 
L 616.610432 185.627789 
L 617.224291 186.71363 
L 617.428911 186.854181 
L 617.633531 186.797496 
L 618.04277 186.292152 
L 618.656629 185.364227 
L 618.861249 185.259685 
L 619.270488 185.362426 
L 620.293587 185.78495 
L 620.702827 186.509599 
L 621.725925 189.058331 
L 621.930545 189.087719 
L 622.544404 188.702075 
L 623.158263 188.770434 
L 623.567503 188.527432 
L 623.976742 187.951465 
L 624.385982 186.801968 
L 624.999841 184.743364 
L 625.40908 184.317007 
L 625.6137 184.362135 
L 626.636799 185.095554 
L 626.841418 185.056293 
L 627.046038 185.199051 
L 627.455278 186.577784 
L 627.659897 187.315676 
L 627.864517 187.540441 
L 628.069137 187.076042 
L 628.682996 184.453841 
L 628.887616 184.144397 
L 629.296855 184.069475 
L 629.706095 184.198178 
L 630.115334 184.55728 
L 630.524573 185.396403 
L 630.933813 186.19156 
L 631.138433 186.057165 
L 631.547672 185.365853 
L 631.956912 185.113326 
L 632.366151 185.010933 
L 632.570771 185.107635 
L 633.18463 185.796391 
L 633.38925 185.832458 
L 633.593869 185.681047 
L 634.003109 184.872996 
L 634.821588 182.26154 
L 635.026207 182.114658 
L 635.230827 182.295458 
L 635.844686 183.370845 
L 636.049306 183.313812 
L 636.867785 181.899534 
L 637.481644 181.564942 
L 638.095503 180.761305 
L 638.300123 180.746321 
L 638.504743 181.022253 
L 639.323222 182.833326 
L 639.527841 183.040377 
L 639.732461 183.031549 
L 639.937081 182.797201 
L 640.34632 181.811603 
L 641.164799 179.361025 
L 641.574039 178.984732 
L 641.983278 178.714375 
L 642.187898 178.397555 
L 642.801757 176.943319 
L 643.006377 177.076668 
L 644.234095 180.229942 
L 644.643335 181.060121 
L 645.052574 182.05989 
L 645.257194 182.174712 
L 645.461813 181.931187 
L 646.075673 180.842558 
L 646.280292 180.80347 
L 646.484912 181.022311 
L 646.894152 182.355511 
L 647.508011 184.842679 
L 647.71263 184.914871 
L 647.91725 184.515521 
L 648.735729 181.544673 
L 648.940349 181.258692 
L 649.144969 181.165185 
L 649.554208 181.225355 
L 649.758828 181.088696 
L 650.577307 179.725585 
L 650.781926 179.858644 
L 651.805025 181.392564 
L 652.009645 181.119768 
L 652.418884 179.717629 
L 653.237363 176.253633 
L 653.441983 175.967188 
L 653.646603 175.903243 
L 653.851222 175.994485 
L 654.055842 176.243992 
L 654.260462 176.727324 
L 654.669701 178.534447 
L 655.28356 181.325076 
L 655.48818 181.533638 
L 655.6928 181.250387 
L 656.715898 177.916139 
L 656.920518 177.894708 
L 657.125138 178.06093 
L 657.534377 178.871188 
L 657.943617 179.811019 
L 658.148237 179.912774 
L 658.557476 179.503376 
L 659.785194 177.689864 
L 660.194434 177.640846 
L 660.808293 177.692478 
L 661.217532 178.357829 
L 661.422152 178.639221 
L 661.626772 178.52103 
L 661.831392 177.970443 
L 662.240631 175.95505 
L 663.468349 168.699494 
L 664.082209 166.115973 
L 665.105307 162.422101 
L 665.514547 162.027514 
L 665.719166 162.091226 
L 665.923786 162.484768 
L 666.333026 164.340852 
L 667.151505 168.240903 
L 667.560744 169.630497 
L 667.969983 170.427571 
L 668.379223 170.73173 
L 668.583843 170.675916 
L 668.788462 170.47537 
L 669.197702 169.607614 
L 669.606941 168.773428 
L 670.016181 168.470489 
L 670.42542 168.44778 
L 670.63004 168.452833 
L 670.83466 168.150358 
L 671.039279 167.31443 
L 671.448519 164.197803 
L 672.266998 156.987491 
L 672.880857 153.893399 
L 673.290096 151.864125 
L 673.903956 146.232453 
L 674.517815 141.022085 
L 674.722434 140.333618 
L 674.927054 140.529634 
L 675.131674 141.571046 
L 675.540913 145.490554 
L 676.359392 154.04754 
L 677.177871 160.037036 
L 677.587111 161.750129 
L 677.99635 162.504167 
L 678.405589 163.016945 
L 678.814829 164.012764 
L 679.428688 165.572529 
L 679.837928 166.110049 
L 680.042547 166.149891 
L 680.247167 165.994356 
L 680.451787 165.524498 
L 680.861026 163.249783 
L 681.679505 157.324116 
L 682.088745 155.622406 
L 682.497984 152.361396 
L 683.930322 136.371887 
L 684.134942 135.859283 
L 684.339562 136.427875 
L 684.748801 140.263807 
L 685.56728 149.903325 
L 685.976519 152.595453 
L 686.590379 154.738969 
L 686.794998 155.049691 
L 686.999618 155.078381 
L 687.613477 154.420755 
L 687.818097 154.554743 
L 688.022717 155.02007 
L 688.431956 156.803555 
L 689.045815 160.185776 
L 689.455055 161.330684 
L 689.864294 162.118407 
L 690.273534 162.478031 
L 690.682773 162.448237 
L 690.887393 162.258377 
L 691.296632 161.312215 
L 691.910491 158.766213 
L 692.524351 156.327657 
L 692.93359 155.36895 
L 693.13821 155.249075 
L 693.34283 155.468323 
L 693.956689 157.129552 
L 694.570548 158.426161 
L 695.184407 159.397588 
L 695.798266 161.531637 
L 696.207506 162.690832 
L 696.412125 162.979426 
L 696.616745 163.012821 
L 696.821365 162.766044 
L 697.230604 161.887427 
L 697.435224 161.706163 
L 697.639844 161.851186 
L 698.458323 163.039421 
L 698.662942 163.109406 
L 699.072182 162.731081 
L 699.276802 162.561548 
L 699.481421 162.64675 
L 700.2999 163.812857 
L 700.70914 164.245254 
L 700.913759 164.231663 
L 701.322999 163.486628 
L 701.732238 162.613761 
L 701.936858 162.534135 
L 702.346098 163.044706 
L 702.755337 163.525309 
L 703.164576 163.68398 
L 703.369196 163.438248 
L 703.778436 162.017118 
L 704.801534 157.520016 
L 705.210774 156.782531 
L 705.415393 156.940563 
L 705.824633 158.271556 
L 706.438492 160.305534 
L 706.847732 161.00341 
L 707.052351 161.071246 
L 707.256971 160.910774 
L 707.87083 159.900899 
L 708.689309 159.461997 
L 709.507788 158.553993 
L 709.917027 157.874819 
L 710.940126 156.831607 
L 711.758605 154.701798 
L 711.963225 154.660388 
L 712.577084 154.800765 
L 712.986323 154.763013 
L 713.395563 154.873654 
L 713.804802 154.744835 
L 714.009422 154.950376 
L 715.032521 157.384053 
L 715.23714 157.450321 
L 716.260239 156.776316 
L 716.464859 156.395319 
L 718.101816 151.242681 
L 718.306436 151.108113 
L 718.511056 151.367551 
L 719.124915 152.650396 
L 719.329535 152.726073 
L 719.534155 152.559038 
L 719.943394 151.674265 
L 720.352633 150.149521 
L 721.375732 145.74732 
L 721.784972 144.972723 
L 721.989591 144.948388 
L 722.398831 145.385547 
L 723.626549 146.835485 
L 723.831169 146.60044 
L 724.649648 144.871201 
L 724.854267 144.833856 
L 725.877366 145.24488 
L 726.081986 145.000949 
L 726.491225 144.016687 
L 727.309704 141.862485 
L 728.128183 140.559022 
L 728.537423 140.335883 
L 728.742042 139.991418 
L 728.946662 139.152353 
L 729.355901 136.010346 
L 730.58362 124.393767 
L 730.78824 123.749266 
L 730.992859 123.808565 
L 731.197479 124.567132 
L 731.606718 128.048726 
L 732.220578 133.974741 
L 732.629817 135.960573 
L 733.243676 137.540085 
L 734.062155 139.174074 
L 734.471395 139.75556 
L 734.880634 140.875145 
L 735.289874 142.375263 
L 735.494493 142.766308 
L 735.699113 142.856447 
L 735.903733 142.69249 
L 736.312972 141.684358 
L 736.722212 139.60287 
L 737.74531 133.547804 
L 738.768409 127.129512 
L 739.791508 119.92704 
L 739.996127 119.770982 
L 740.200747 120.162956 
L 740.609986 122.065038 
L 741.223846 125.522181 
L 741.633085 126.826573 
L 743.270043 130.233477 
L 743.679282 130.505983 
L 744.088522 131.391511 
L 744.497761 132.278839 
L 745.11162 133.076552 
L 745.31624 133.14555 
L 745.930099 133.056747 
L 746.339339 133.124932 
L 746.543959 132.966028 
L 746.953198 132.063483 
L 747.771677 129.376756 
L 748.794776 125.709775 
L 749.204015 124.536641 
L 749.408635 124.31234 
L 749.613254 124.508473 
L 750.022494 126.048259 
L 751.045593 130.602045 
L 751.864071 133.764844 
L 752.273311 134.469166 
L 752.477931 134.629929 
L 752.68255 134.632019 
L 753.09179 134.267981 
L 753.705649 133.554715 
L 753.910269 133.535781 
L 755.137987 134.318568 
L 755.547226 134.815142 
L 755.751846 134.881584 
L 755.956466 134.762581 
L 756.161086 134.374498 
L 756.570325 132.512549 
L 757.184184 128.94767 
L 757.593424 127.697175 
L 758.821142 125.363103 
L 759.230382 125.450511 
L 759.639621 125.844692 
L 760.04886 126.8034 
L 761.276579 130.584912 
L 762.299677 132.904523 
L 763.118156 133.775821 
L 763.322776 133.829718 
L 763.527396 133.759385 
L 763.732016 133.482233 
L 764.755114 130.907424 
L 764.959734 130.760543 
L 765.164354 130.843944 
L 765.573593 131.351437 
L 765.982833 132.468118 
L 766.596692 134.756366 
L 766.801311 134.965915 
L 767.005931 134.747712 
L 767.61979 133.57905 
L 768.23365 132.462775 
L 768.438269 132.138637 
L 768.642889 132.076725 
L 769.052128 132.638173 
L 769.870607 134.001516 
L 770.484467 135.439722 
L 770.893706 135.598916 
L 771.302945 135.363406 
L 771.507565 135.175115 
L 771.712185 135.183652 
L 771.916805 135.595431 
L 772.939903 139.573483 
L 773.349143 139.916264 
L 773.553762 140.092591 
L 774.372241 141.268223 
L 774.576861 141.161532 
L 775.19072 140.438392 
L 775.39534 140.462089 
L 776.009199 140.855863 
L 776.213819 140.948557 
L 777.032298 141.781291 
L 777.236918 141.806788 
L 777.441537 141.968479 
L 777.850777 143.061871 
L 778.464636 144.799474 
L 778.669256 144.977892 
L 778.873875 144.868588 
L 779.283115 144.331184 
L 779.487735 144.393851 
L 779.692354 144.914935 
L 780.101594 147.222232 
L 780.715453 150.577911 
L 781.329312 152.258596 
L 781.738552 152.788333 
L 782.147791 152.716315 
L 782.76165 152.211262 
L 783.17089 151.586159 
L 783.580129 150.837117 
L 783.784749 150.740067 
L 784.193988 151.151497 
L 785.012467 152.464195 
L 785.421707 152.732345 
L 785.830946 153.710567 
L 786.444805 155.467045 
L 787.058664 156.241933 
L 787.467904 156.947242 
L 788.081763 158.254597 
L 788.286383 158.313489 
L 788.695622 158.310701 
L 789.104862 159.152263 
L 789.514101 159.982093 
L 790.12796 160.930927 
L 790.5372 161.588554 
L 790.741819 161.769527 
L 790.946439 161.770224 
L 791.560298 161.074963 
L 791.764918 161.12613 
L 792.174158 161.994409 
L 792.788017 163.259714 
L 793.401876 164.424427 
L 794.220355 167.147801 
L 794.424975 167.425883 
L 794.629594 167.42507 
L 795.038834 166.72975 
L 795.448073 166.019969 
L 795.857313 165.732304 
L 796.061932 165.783878 
L 796.471172 166.472867 
L 796.880411 167.062077 
L 797.085031 166.969848 
L 797.69889 166.24816 
L 797.90351 166.407413 
L 798.312749 167.055688 
L 798.517369 167.177712 
L 799.131228 167.001036 
L 799.335848 167.383543 
L 799.745087 169.189272 
L 800.563566 173.279009 
L 800.972806 174.078755 
L 801.177426 174.024974 
L 801.791285 173.202462 
L 801.995904 173.39296 
L 802.405144 174.565804 
L 803.019003 176.532586 
L 803.837482 178.294349 
L 804.451341 179.138525 
L 805.26982 179.862768 
L 806.497538 181.593052 
L 806.702158 181.626796 
L 807.111398 181.149098 
L 807.929877 180.05919 
L 808.134496 180.320371 
L 808.543736 181.969984 
L 808.952975 183.431479 
L 809.157595 183.678315 
L 809.771454 183.831178 
L 809.976074 183.730179 
L 810.999172 182.400174 
L 811.613032 182.10101 
L 811.817651 182.137251 
L 812.022271 182.351968 
L 812.431511 183.344013 
L 812.84075 184.301733 
L 813.04537 184.375435 
L 813.249989 184.131794 
L 813.659229 182.968765 
L 814.273088 181.228898 
L 814.682328 180.886233 
L 815.091567 180.7645 
L 815.296187 180.469691 
L 815.500806 179.840814 
L 816.114666 176.292488 
L 816.523905 174.308282 
L 817.956243 170.092747 
L 818.774722 164.780624 
L 819.797821 157.831608 
L 820.820919 150.640752 
L 821.844018 139.077199 
L 822.662497 128.73423 
L 823.276356 117.119219 
L 823.890215 100.341 
L 825.322553 57.875675 
L 825.731793 52.13737 
L 826.345652 47.229303 
L 826.959511 44.206241 
L 828.596469 38.481643 
L 829.210328 34.481638 
L 830.028807 27.96438 
L 830.438046 22.529828 
L 831.051906 10.371489 
L 831.534953 -1 
M 935.467341 -1 
L 936.226445 12.493051 
L 937.249544 26.668177 
L 940.52346 64.437189 
L 942.365037 79.126545 
L 942.978896 80.887786 
L 943.388136 81.608312 
L 943.797375 81.906488 
L 944.001995 82.473744 
L 944.411234 85.416134 
L 945.434333 95.203637 
L 946.048192 98.695278 
L 946.662051 100.591842 
L 947.071291 101.236053 
L 947.48053 101.243777 
L 947.68515 101.268344 
L 947.88977 101.488347 
L 948.299009 102.597479 
L 949.322108 106.228451 
L 949.731347 106.934051 
L 950.140587 107.153531 
L 950.345206 107.444099 
L 950.549826 108.067749 
L 950.959066 110.573038 
L 951.777544 116.969085 
L 951.982164 117.570608 
L 952.391404 117.818082 
L 953.005263 118.136121 
L 953.209883 118.285268 
L 953.414502 118.584083 
L 953.823742 120.218364 
L 954.437601 123.202744 
L 954.84684 124.223364 
L 955.25608 124.463055 
L 955.4607 124.603373 
L 955.665319 124.995173 
L 956.074559 126.504061 
L 956.688418 128.694214 
L 957.097657 129.36003 
L 957.302277 129.50906 
L 958.120756 129.527936 
L 958.734615 130.056569 
L 958.939235 130.158788 
L 959.143855 130.398537 
L 959.553094 131.724709 
L 960.166953 134.077541 
L 960.371573 134.298937 
L 960.576193 134.230346 
L 961.190052 133.717684 
L 961.394672 133.817173 
L 961.803911 134.653857 
L 962.213151 135.440302 
L 962.82701 136.027712 
L 963.236249 136.994434 
L 963.645489 138.65694 
L 964.463968 142.146607 
L 964.873207 143.006058 
L 965.282446 143.235411 
L 965.487066 143.351394 
L 965.896306 144.020579 
L 966.919404 145.916969 
L 967.942503 146.835543 
L 969.579461 149.998923 
L 970.19332 150.834387 
L 971.011799 152.863255 
L 971.216419 152.827304 
L 972.034897 151.342345 
L 972.239517 151.42592 
L 973.057996 152.322541 
L 973.262616 152.151615 
L 973.671855 150.938929 
L 974.285714 148.940553 
L 974.899574 147.436427 
L 975.513433 145.047645 
L 976.741151 138.917714 
L 976.945771 138.816193 
L 977.150391 138.991416 
L 977.35501 139.442166 
L 977.96887 142.129996 
L 978.991968 145.661422 
L 979.401208 146.645684 
L 979.605827 146.890486 
L 979.810447 146.950191 
L 980.424306 146.760912 
L 980.628926 147.05694 
L 981.447405 149.10782 
L 981.652025 149.306972 
L 981.856644 149.254991 
L 982.265884 149.039403 
L 982.470504 149.336534 
L 983.902842 153.397987 
L 984.107461 153.530813 
L 984.312081 153.380737 
L 984.72132 152.304304 
L 985.13056 150.345073 
L 985.744419 147.148007 
L 986.562898 144.613215 
L 986.767518 144.741802 
L 986.972137 145.563791 
L 988.199856 152.915352 
L 988.813715 154.664686 
L 989.222954 155.489638 
L 990.041433 157.706449 
L 990.246053 157.883996 
L 990.450673 157.80013 
L 990.859912 157.197446 
L 991.269152 156.570601 
L 991.473771 156.461819 
L 991.883011 156.620258 
L 992.29225 157.141632 
L 992.70149 158.559162 
L 993.110729 160.215628 
L 993.315349 160.506197 
L 993.519969 160.306231 
L 994.747687 157.136056 
L 994.952307 157.153712 
L 995.566166 157.737985 
L 995.770786 157.711501 
L 996.180025 157.331201 
L 996.998504 156.231188 
L 997.203124 156.381729 
L 997.407744 156.810699 
L 998.430842 160.186647 
L 998.635462 160.134899 
L 999.249321 159.657491 
L 999.453941 159.843343 
L 999.86318 161.003119 
L 1000.27242 162.121021 
L 1000.886279 162.916933 
L 1001.704758 164.932443 
L 1001.909378 164.929771 
L 1002.318617 164.539946 
L 1002.523237 164.531234 
L 1002.727856 164.77894 
L 1003.341716 165.817564 
L 1003.750955 165.845209 
L 1004.569434 166.362169 
L 1005.183293 165.974783 
L 1005.387913 166.072472 
L 1005.797152 166.681951 
L 1006.206392 167.360196 
L 1006.411012 167.421643 
L 1007.22949 167.018576 
L 1007.63873 167.242121 
L 1007.84335 167.572474 
L 1008.252589 168.892083 
L 1008.866448 171.099659 
L 1009.071068 171.483212 
L 1009.275688 171.551397 
L 1009.684927 170.880702 
L 1009.889547 170.571723 
L 1010.298786 170.518174 
L 1010.503406 170.497091 
L 1011.526505 169.855901 
L 1011.935744 169.872454 
L 1012.140364 170.125968 
L 1012.958843 172.028398 
L 1013.368082 172.102855 
L 1013.981941 172.21094 
L 1015.00504 172.615168 
L 1015.41428 172.319257 
L 1015.823519 171.595478 
L 1016.437378 170.168191 
L 1016.641998 170.063707 
L 1016.846618 170.255077 
L 1017.665097 172.332731 
L 1018.278956 173.580961 
L 1018.483575 173.77872 
L 1018.688195 173.771228 
L 1019.506674 172.777208 
L 1020.120533 173.371877 
L 1020.734392 174.085899 
L 1021.143632 174.604949 
L 1021.348252 174.533396 
L 1022.16673 173.266813 
L 1022.78059 172.82582 
L 1023.394449 171.966486 
L 1023.803688 171.601054 
L 1024.212928 170.553428 
L 1024.622167 169.596289 
L 1024.826787 169.513991 
L 1025.236026 169.770177 
L 1025.645266 170.530313 
L 1026.259125 171.941164 
L 1026.668364 172.403355 
L 1026.872984 172.46428 
L 1027.282224 172.191077 
L 1027.896083 171.458354 
L 1028.305322 171.451501 
L 1028.714562 171.441221 
L 1029.123801 171.233705 
L 1029.328421 171.359853 
L 1029.73766 172.427516 
L 1029.94228 172.976941 
L 1030.1469 173.153443 
L 1030.35152 172.839178 
L 1030.965379 171.212216 
L 1031.169998 171.374082 
L 1031.579238 172.991403 
L 1031.988477 175.031074 
L 1032.397717 175.865608 
L 1032.806956 175.882858 
L 1033.216196 175.639449 
L 1033.625435 174.965561 
L 1034.034675 174.232606 
L 1034.443914 173.972819 
L 1034.853154 173.853874 
L 1035.262393 174.03537 
L 1035.671632 174.324312 
L 1035.876252 174.277268 
L 1036.285492 173.929608 
L 1036.490111 173.969334 
L 1037.103971 174.70984 
L 1037.51321 175.565805 
L 1037.922449 176.938557 
L 1038.740928 180.622032 
L 1038.945548 180.832336 
L 1039.150168 180.533114 
L 1039.559407 178.785812 
L 1040.377886 174.396388 
L 1040.787126 173.357242 
L 1040.991745 173.375653 
L 1041.196365 173.756708 
L 1042.014844 176.419738 
L 1042.219464 176.376005 
L 1043.447182 175.192068 
L 1044.470281 174.713498 
L 1044.87952 174.42113 
L 1045.08414 174.707865 
L 1046.516478 179.178251 
L 1046.925717 179.965683 
L 1047.334957 180.419744 
L 1047.539577 180.395583 
L 1047.744196 179.978519 
L 1048.562675 177.172324 
L 1048.767295 177.0352 
L 1049.176534 177.141832 
L 1049.381154 177.026256 
L 1049.790394 176.128763 
L 1049.995013 175.692417 
L 1050.199633 175.574169 
L 1050.608873 176.060753 
L 1051.427351 177.140322 
L 1052.041211 178.686207 
L 1052.24583 178.93885 
L 1052.65507 178.968818 
L 1053.268929 178.767052 
L 1053.473549 178.830939 
L 1054.292028 179.639513 
L 1054.496647 179.349177 
L 1054.905887 177.577366 
L 1055.315126 175.675865 
L 1055.519746 175.309852 
L 1055.724366 175.406437 
L 1056.747464 177.610064 
L 1057.156704 179.212052 
L 1057.975183 183.041248 
L 1058.179802 183.372297 
L 1058.384422 183.228204 
L 1058.793662 181.707758 
L 1059.407521 179.229766 
L 1059.81676 178.42189 
L 1060.02138 178.391573 
L 1060.226 178.686555 
L 1061.044479 180.718617 
L 1062.067577 182.078765 
L 1062.272197 182.054953 
L 1062.681436 181.405864 
L 1063.295296 180.366021 
L 1063.909155 179.297254 
L 1064.727634 177.493384 
L 1064.932253 177.665471 
L 1065.750732 179.587648 
L 1065.955352 179.397789 
L 1066.364591 178.704792 
L 1066.978451 178.34389 
L 1067.18307 177.92851 
L 1068.001549 174.973169 
L 1068.206169 174.85765 
L 1068.410789 175.105763 
L 1068.820028 176.537174 
L 1069.229268 178.013421 
L 1069.433887 178.375891 
L 1070.047747 178.659142 
L 1071.480085 179.175347 
L 1072.093944 178.624237 
L 1072.298564 178.772628 
L 1073.321662 180.380076 
L 1073.526282 180.424448 
L 1074.344761 180.13539 
L 1074.95862 180.618199 
L 1075.367859 180.551931 
L 1075.572479 180.719779 
L 1075.981719 181.331814 
L 1076.186338 181.453605 
L 1077.004817 181.346391 
L 1077.209437 181.133184 
L 1078.232536 179.081085 
L 1078.641775 179.120172 
L 1079.051015 179.538804 
L 1079.664874 181.040026 
L 1080.687972 183.617564 
L 1081.097212 183.693415 
L 1081.711071 183.572901 
L 1081.915691 183.307423 
L 1082.12031 182.763979 
L 1082.52955 180.662223 
L 1083.143409 176.791443 
L 1083.348029 176.007553 
L 1083.552649 175.665643 
L 1083.757268 175.68115 
L 1084.166508 175.970208 
L 1085.394226 175.874959 
L 1085.598846 175.995182 
L 1085.803466 176.297541 
L 1086.212705 177.533632 
L 1086.621944 178.897033 
L 1087.031184 179.483513 
L 1087.440423 179.866891 
L 1088.054283 180.743359 
L 1089.077381 181.871424 
L 1089.486621 182.371947 
L 1089.69124 182.273562 
L 1090.3051 181.1466 
L 1090.714339 180.903308 
L 1090.918959 180.573536 
L 1091.942057 177.442971 
L 1092.351297 175.944131 
L 1092.965156 173.396619 
L 1093.169776 173.108432 
L 1093.579015 173.09066 
L 1093.988255 173.182308 
L 1094.192874 173.112033 
L 1094.397494 172.768729 
L 1094.806734 171.084094 
L 1096.239072 164.062189 
L 1097.46679 154.256159 
L 1098.899128 139.846976 
L 1101.559184 110.764117 
L 1102.377663 97.123723 
L 1103.196142 81.002143 
L 1103.605382 69.389571 
L 1104.014621 51.120817 
L 1104.423861 24.572634 
L 1104.71946 -1 
M 1109.172387 -1 
L 1109.743974 38.37925 
L 1110.357833 61.603465 
L 1112.40403 121.239564 
L 1113.222509 135.07336 
L 1114.859467 159.822318 
L 1115.473326 164.667893 
L 1115.882565 166.489071 
L 1116.496425 168.047152 
L 1117.519523 169.761349 
L 1117.928763 171.166043 
L 1118.542622 173.834592 
L 1118.951861 174.653155 
L 1119.156481 174.715241 
L 1119.56572 174.385411 
L 1119.77034 174.21977 
L 1119.97496 174.298816 
L 1120.384199 175.359742 
L 1120.588819 175.893196 
L 1120.793439 176.099724 
L 1120.998059 175.928682 
L 1121.407298 174.673598 
L 1122.021157 172.373096 
L 1122.430397 171.775813 
L 1122.635016 171.823089 
L 1123.044256 172.49721 
L 1123.453495 173.329654 
L 1123.862735 173.934313 
L 1124.476594 175.565689 
L 1125.908932 179.024632 
L 1126.318171 180.027421 
L 1127.13665 182.813579 
L 1127.34127 182.969288 
L 1127.54589 182.658683 
L 1128.364369 180.132486 
L 1128.568988 180.172037 
L 1128.978228 180.518303 
L 1129.182848 180.432172 
L 1130.205946 179.183361 
L 1130.410566 179.318162 
L 1130.819805 180.075104 
L 1131.842904 182.540666 
L 1132.047524 182.713161 
L 1132.252144 182.68778 
L 1132.456763 182.4399 
L 1132.866003 181.145671 
L 1133.479862 178.997335 
L 1134.093721 178.111284 
L 1134.502961 177.833145 
L 1134.70758 177.983627 
L 1135.11682 179.02498 
L 1135.526059 180.107918 
L 1136.139918 181.410743 
L 1137.572256 185.800108 
L 1137.981496 186.617452 
L 1138.390735 186.980154 
L 1138.595355 187.027895 
L 1138.799975 186.859524 
L 1139.209214 185.755039 
L 1139.823073 183.988572 
L 1140.641552 182.517958 
L 1140.846172 182.413416 
L 1141.460031 182.657637 
L 1141.869271 182.984621 
L 1142.48313 183.749635 
L 1142.892369 183.665073 
L 1143.506228 183.426078 
L 1143.915468 183.647068 
L 1144.324707 183.835708 
L 1144.938567 183.807191 
L 1145.143186 184.012268 
L 1145.552426 184.968013 
L 1145.961665 185.840706 
L 1146.166285 185.936536 
L 1146.575524 185.560185 
L 1146.984764 185.218042 
L 1147.189384 185.417834 
L 1147.803243 186.481257 
L 1148.007862 186.351451 
L 1148.826341 184.824326 
L 1149.235581 184.946989 
L 1149.64482 185.202419 
L 1150.258679 186.024293 
L 1150.463299 185.891118 
L 1150.872539 184.577898 
L 1151.281778 182.950354 
L 1151.691018 182.273271 
L 1152.304877 181.907607 
L 1152.509496 182.018422 
L 1153.123356 182.842502 
L 1153.327975 182.917772 
L 1153.737215 182.742258 
L 1153.941835 182.637948 
L 1154.146454 182.676919 
L 1154.555694 183.359462 
L 1155.169553 184.46052 
L 1155.783412 184.929739 
L 1156.192652 185.07662 
L 1156.601891 184.982126 
L 1156.806511 184.869628 
L 1157.01113 184.581324 
L 1157.829609 182.532593 
L 1158.034229 182.631734 
L 1158.443469 183.630748 
L 1159.057328 185.390478 
L 1159.466567 185.938278 
L 1159.875807 186.206021 
L 1160.080426 186.210435 
L 1160.285046 186.08696 
L 1160.694286 185.311433 
L 1161.103525 184.340878 
L 1161.308145 184.118146 
L 1161.512764 184.173959 
L 1161.922004 184.996878 
L 1163.354342 188.392225 
L 1163.558962 188.484047 
L 1163.763581 188.289077 
L 1164.58206 186.659327 
L 1164.9913 185.774321 
L 1165.19592 185.574937 
L 1165.605159 185.694405 
L 1165.809779 185.767759 
L 1166.014398 185.64649 
L 1166.423638 184.794822 
L 1166.628258 184.34657 
L 1166.832877 184.171868 
L 1167.037497 184.371776 
L 1167.651356 185.622271 
L 1167.855976 185.628486 
L 1168.060596 185.242203 
L 1169.083694 181.799755 
L 1169.288314 181.549377 
L 1169.492934 181.579404 
L 1170.311413 182.649506 
L 1170.720652 182.517551 
L 1170.925272 182.623951 
L 1171.334511 183.305448 
L 1171.743751 184.593347 
L 1172.766849 188.556588 
L 1172.971469 188.972548 
L 1173.176089 189.101716 
L 1173.380709 188.95193 
L 1174.403807 187.469352 
L 1175.017666 186.101828 
L 1175.426906 186.106881 
L 1175.836145 186.141089 
L 1176.245385 185.885252 
L 1176.654624 185.545839 
L 1177.268483 185.581674 
L 1177.882343 185.053912 
L 1178.291582 185.065295 
L 1178.700821 184.559487 
L 1179.110061 184.142481 
L 1179.314681 184.20114 
L 1179.5193 184.52191 
L 1180.337779 186.857956 
L 1180.542399 186.818463 
L 1180.747019 186.44943 
L 1181.565498 184.1286 
L 1181.974737 183.54816 
L 1182.383977 182.637716 
L 1182.588596 182.4417 
L 1182.793216 182.642362 
L 1183.202455 184.05786 
L 1183.816315 186.966738 
L 1184.020934 187.432356 
L 1184.839413 188.134297 
L 1184.839413 188.134297 
" clip-path="url(#p4ef498a008)" style="fill: none; stroke: #000000; stroke-width: 2; stroke-linecap: square"/>
   </g>
   <g id="patch_3">
    <path d="M 3.00024 198.907885 
L 1184.99976 198.907885 
" style="fill: none; stroke: #000000; stroke-width: 2; stroke-linejoin: miter; stroke-linecap: square"/>
   </g>
  </g>
 </g>
 <defs>
  <clipPath id="p4ef498a008">
   <rect x="3.00024" y="3.00024" width="1181.99952" height="195.907645"/>
  </clipPath>
 </defs>
</svg>
