<?xml version="1.0" encoding="utf-8" standalone="no"?>
<!DOCTYPE svg PUBLIC "-//W3C//DTD SVG 1.1//EN"
  "http://www.w3.org/Graphics/SVG/1.1/DTD/svg11.dtd">
<svg xmlns:xlink="http://www.w3.org/1999/xlink" width="1188pt" height="252pt" viewBox="0 0 1188 252" xmlns="http://www.w3.org/2000/svg" version="1.1">
 <metadata>
  <rdf:RDF xmlns:dc="http://purl.org/dc/elements/1.1/" xmlns:cc="http://creativecommons.org/ns#" xmlns:rdf="http://www.w3.org/1999/02/22-rdf-syntax-ns#">
   <cc:Work>
    <dc:type rdf:resource="http://purl.org/dc/dcmitype/StillImage"/>
    <dc:date>2024-07-23T21:47:12.030884</dc:date>
    <dc:format>image/svg+xml</dc:format>
    <dc:creator>
     <cc:Agent>
      <dc:title>Matplotlib v3.8.4, https://matplotlib.org/</dc:title>
     </cc:Agent>
    </dc:creator>
   </cc:Work>
  </rdf:RDF>
 </metadata>
 <defs>
  <style type="text/css">*{stroke-linejoin: round; stroke-linecap: butt}</style>
 </defs>
 <g id="figure_1">
  <g id="patch_1">
   <path d="M 0 252 
L 1188 252 
L 1188 0 
L 0 0 
z
" style="fill: #ffffff"/>
  </g>
  <g id="axes_1">
   <g id="patch_2">
    <path d="M 3.00024 198.907885 
L 1184.99976 198.907885 
L 1184.99976 3.00024 
L 3.00024 3.00024 
z
" style="fill: #ffffff"/>
   </g>
   <g id="matplotlib.axis_1">
    <g id="xtick_1">
     <g id="line2d_1">
      <defs>
       <path id="m2174890dbb" d="M 0 0 
L 0 8 
" style="stroke: #000000; stroke-width: 2"/>
      </defs>
      <g>
       <use xlink:href="#m2174890dbb" x="1131.272509" y="198.907885" style="stroke: #000000; stroke-width: 2"/>
      </g>
     </g>
     <g id="text_1">
      <!-- 0 -->
      <g transform="translate(1126.267665 224.791947) scale(0.18 -0.18)">
       <defs>
        <path id="Arial-BoldMT-30" d="M 1756 4600 
Q 2422 4600 2797 4125 
Q 3244 3563 3244 2259 
Q 3244 959 2794 391 
Q 2422 -78 1756 -78 
Q 1088 -78 678 436 
Q 269 950 269 2269 
Q 269 3563 719 4131 
Q 1091 4600 1756 4600 
z
M 1756 3872 
Q 1597 3872 1472 3770 
Q 1347 3669 1278 3406 
Q 1188 3066 1188 2259 
Q 1188 1453 1269 1151 
Q 1350 850 1473 750 
Q 1597 650 1756 650 
Q 1916 650 2041 751 
Q 2166 853 2234 1116 
Q 2325 1453 2325 2259 
Q 2325 3066 2244 3367 
Q 2163 3669 2039 3770 
Q 1916 3872 1756 3872 
z
" transform="scale(0.015625)"/>
       </defs>
       <use xlink:href="#Arial-BoldMT-30"/>
      </g>
     </g>
    </g>
    <g id="xtick_2">
     <g id="line2d_2">
      <g>
       <use xlink:href="#m2174890dbb" x="1023.818007" y="198.907885" style="stroke: #000000; stroke-width: 2"/>
      </g>
     </g>
     <g id="text_2">
      <!-- 1 -->
      <g transform="translate(1018.813164 224.791947) scale(0.18 -0.18)">
       <defs>
        <path id="Arial-BoldMT-31" d="M 2519 0 
L 1641 0 
L 1641 3309 
Q 1159 2859 506 2644 
L 506 3441 
Q 850 3553 1253 3867 
Q 1656 4181 1806 4600 
L 2519 4600 
L 2519 0 
z
" transform="scale(0.015625)"/>
       </defs>
       <use xlink:href="#Arial-BoldMT-31"/>
      </g>
     </g>
    </g>
    <g id="xtick_3">
     <g id="line2d_3">
      <g>
       <use xlink:href="#m2174890dbb" x="916.363505" y="198.907885" style="stroke: #000000; stroke-width: 2"/>
      </g>
     </g>
     <g id="text_3">
      <!-- 2 -->
      <g transform="translate(911.358662 224.791947) scale(0.18 -0.18)">
       <defs>
        <path id="Arial-BoldMT-32" d="M 3238 816 
L 3238 0 
L 159 0 
Q 209 463 459 877 
Q 709 1291 1447 1975 
Q 2041 2528 2175 2725 
Q 2356 2997 2356 3263 
Q 2356 3556 2198 3714 
Q 2041 3872 1763 3872 
Q 1488 3872 1325 3706 
Q 1163 3541 1138 3156 
L 263 3244 
Q 341 3969 753 4284 
Q 1166 4600 1784 4600 
Q 2463 4600 2850 4234 
Q 3238 3869 3238 3325 
Q 3238 3016 3127 2736 
Q 3016 2456 2775 2150 
Q 2616 1947 2200 1565 
Q 1784 1184 1673 1059 
Q 1563 934 1494 816 
L 3238 816 
z
" transform="scale(0.015625)"/>
       </defs>
       <use xlink:href="#Arial-BoldMT-32"/>
      </g>
     </g>
    </g>
    <g id="xtick_4">
     <g id="line2d_4">
      <g>
       <use xlink:href="#m2174890dbb" x="808.909004" y="198.907885" style="stroke: #000000; stroke-width: 2"/>
      </g>
     </g>
     <g id="text_4">
      <!-- 3 -->
      <g transform="translate(803.90416 224.791947) scale(0.18 -0.18)">
       <defs>
        <path id="Arial-BoldMT-33" d="M 241 1216 
L 1091 1319 
Q 1131 994 1309 822 
Q 1488 650 1741 650 
Q 2013 650 2198 856 
Q 2384 1063 2384 1413 
Q 2384 1744 2206 1937 
Q 2028 2131 1772 2131 
Q 1603 2131 1369 2066 
L 1466 2781 
Q 1822 2772 2009 2936 
Q 2197 3100 2197 3372 
Q 2197 3603 2059 3740 
Q 1922 3878 1694 3878 
Q 1469 3878 1309 3722 
Q 1150 3566 1116 3266 
L 306 3403 
Q 391 3819 561 4067 
Q 731 4316 1036 4458 
Q 1341 4600 1719 4600 
Q 2366 4600 2756 4188 
Q 3078 3850 3078 3425 
Q 3078 2822 2419 2463 
Q 2813 2378 3048 2084 
Q 3284 1791 3284 1375 
Q 3284 772 2843 347 
Q 2403 -78 1747 -78 
Q 1125 -78 715 280 
Q 306 638 241 1216 
z
" transform="scale(0.015625)"/>
       </defs>
       <use xlink:href="#Arial-BoldMT-33"/>
      </g>
     </g>
    </g>
    <g id="xtick_5">
     <g id="line2d_5">
      <g>
       <use xlink:href="#m2174890dbb" x="701.454502" y="198.907885" style="stroke: #000000; stroke-width: 2"/>
      </g>
     </g>
     <g id="text_5">
      <!-- 4 -->
      <g transform="translate(696.449658 224.791947) scale(0.18 -0.18)">
       <defs>
        <path id="Arial-BoldMT-34" d="M 1994 0 
L 1994 922 
L 119 922 
L 119 1691 
L 2106 4600 
L 2844 4600 
L 2844 1694 
L 3413 1694 
L 3413 922 
L 2844 922 
L 2844 0 
L 1994 0 
z
M 1994 1694 
L 1994 3259 
L 941 1694 
L 1994 1694 
z
" transform="scale(0.015625)"/>
       </defs>
       <use xlink:href="#Arial-BoldMT-34"/>
      </g>
     </g>
    </g>
    <g id="xtick_6">
     <g id="line2d_6">
      <g>
       <use xlink:href="#m2174890dbb" x="594" y="198.907885" style="stroke: #000000; stroke-width: 2"/>
      </g>
     </g>
     <g id="text_6">
      <!-- 5 -->
      <g transform="translate(588.995156 224.791947) scale(0.18 -0.18)">
       <defs>
        <path id="Arial-BoldMT-35" d="M 284 1178 
L 1159 1269 
Q 1197 972 1381 798 
Q 1566 625 1806 625 
Q 2081 625 2272 848 
Q 2463 1072 2463 1522 
Q 2463 1944 2273 2155 
Q 2084 2366 1781 2366 
Q 1403 2366 1103 2031 
L 391 2134 
L 841 4519 
L 3163 4519 
L 3163 3697 
L 1506 3697 
L 1369 2919 
Q 1663 3066 1969 3066 
Q 2553 3066 2959 2641 
Q 3366 2216 3366 1538 
Q 3366 972 3038 528 
Q 2591 -78 1797 -78 
Q 1163 -78 763 262 
Q 363 603 284 1178 
z
" transform="scale(0.015625)"/>
       </defs>
       <use xlink:href="#Arial-BoldMT-35"/>
      </g>
     </g>
    </g>
    <g id="xtick_7">
     <g id="line2d_7">
      <g>
       <use xlink:href="#m2174890dbb" x="486.545498" y="198.907885" style="stroke: #000000; stroke-width: 2"/>
      </g>
     </g>
     <g id="text_7">
      <!-- 6 -->
      <g transform="translate(481.540654 224.791947) scale(0.18 -0.18)">
       <defs>
        <path id="Arial-BoldMT-36" d="M 3247 3459 
L 2397 3366 
Q 2366 3628 2234 3753 
Q 2103 3878 1894 3878 
Q 1616 3878 1423 3628 
Q 1231 3378 1181 2588 
Q 1509 2975 1997 2975 
Q 2547 2975 2939 2556 
Q 3331 2138 3331 1475 
Q 3331 772 2918 347 
Q 2506 -78 1859 -78 
Q 1166 -78 719 461 
Q 272 1000 272 2228 
Q 272 3488 737 4044 
Q 1203 4600 1947 4600 
Q 2469 4600 2811 4308 
Q 3153 4016 3247 3459 
z
M 1256 1544 
Q 1256 1116 1453 883 
Q 1650 650 1903 650 
Q 2147 650 2309 840 
Q 2472 1031 2472 1466 
Q 2472 1913 2297 2120 
Q 2122 2328 1859 2328 
Q 1606 2328 1431 2129 
Q 1256 1931 1256 1544 
z
" transform="scale(0.015625)"/>
       </defs>
       <use xlink:href="#Arial-BoldMT-36"/>
      </g>
     </g>
    </g>
    <g id="xtick_8">
     <g id="line2d_8">
      <g>
       <use xlink:href="#m2174890dbb" x="379.090996" y="198.907885" style="stroke: #000000; stroke-width: 2"/>
      </g>
     </g>
     <g id="text_8">
      <!-- 7 -->
      <g transform="translate(374.086153 224.791947) scale(0.18 -0.18)">
       <defs>
        <path id="Arial-BoldMT-37" d="M 272 3703 
L 272 4519 
L 3275 4519 
L 3275 3881 
Q 2903 3516 2518 2831 
Q 2134 2147 1932 1376 
Q 1731 606 1734 0 
L 888 0 
Q 909 950 1279 1937 
Q 1650 2925 2269 3703 
L 272 3703 
z
" transform="scale(0.015625)"/>
       </defs>
       <use xlink:href="#Arial-BoldMT-37"/>
      </g>
     </g>
    </g>
    <g id="xtick_9">
     <g id="line2d_9">
      <g>
       <use xlink:href="#m2174890dbb" x="271.636495" y="198.907885" style="stroke: #000000; stroke-width: 2"/>
      </g>
     </g>
     <g id="text_9">
      <!-- 8 -->
      <g transform="translate(266.631651 224.791947) scale(0.18 -0.18)">
       <defs>
        <path id="Arial-BoldMT-38" d="M 1025 2472 
Q 684 2616 529 2867 
Q 375 3119 375 3419 
Q 375 3931 733 4265 
Q 1091 4600 1750 4600 
Q 2403 4600 2764 4265 
Q 3125 3931 3125 3419 
Q 3125 3100 2959 2851 
Q 2794 2603 2494 2472 
Q 2875 2319 3073 2025 
Q 3272 1731 3272 1347 
Q 3272 713 2867 316 
Q 2463 -81 1791 -81 
Q 1166 -81 750 247 
Q 259 634 259 1309 
Q 259 1681 443 1992 
Q 628 2303 1025 2472 
z
M 1206 3356 
Q 1206 3094 1354 2947 
Q 1503 2800 1750 2800 
Q 2000 2800 2150 2948 
Q 2300 3097 2300 3359 
Q 2300 3606 2151 3754 
Q 2003 3903 1759 3903 
Q 1506 3903 1356 3753 
Q 1206 3603 1206 3356 
z
M 1125 1394 
Q 1125 1031 1311 828 
Q 1497 625 1775 625 
Q 2047 625 2225 820 
Q 2403 1016 2403 1384 
Q 2403 1706 2222 1901 
Q 2041 2097 1763 2097 
Q 1441 2097 1283 1875 
Q 1125 1653 1125 1394 
z
" transform="scale(0.015625)"/>
       </defs>
       <use xlink:href="#Arial-BoldMT-38"/>
      </g>
     </g>
    </g>
    <g id="xtick_10">
     <g id="line2d_10">
      <g>
       <use xlink:href="#m2174890dbb" x="164.181993" y="198.907885" style="stroke: #000000; stroke-width: 2"/>
      </g>
     </g>
     <g id="text_10">
      <!-- 9 -->
      <g transform="translate(159.177149 224.791947) scale(0.18 -0.18)">
       <defs>
        <path id="Arial-BoldMT-39" d="M 291 1059 
L 1141 1153 
Q 1172 894 1303 769 
Q 1434 644 1650 644 
Q 1922 644 2112 894 
Q 2303 1144 2356 1931 
Q 2025 1547 1528 1547 
Q 988 1547 595 1964 
Q 203 2381 203 3050 
Q 203 3747 617 4173 
Q 1031 4600 1672 4600 
Q 2369 4600 2816 4061 
Q 3263 3522 3263 2288 
Q 3263 1031 2797 475 
Q 2331 -81 1584 -81 
Q 1047 -81 715 205 
Q 384 491 291 1059 
z
M 2278 2978 
Q 2278 3403 2083 3637 
Q 1888 3872 1631 3872 
Q 1388 3872 1227 3680 
Q 1066 3488 1066 3050 
Q 1066 2606 1241 2398 
Q 1416 2191 1678 2191 
Q 1931 2191 2104 2391 
Q 2278 2591 2278 2978 
z
" transform="scale(0.015625)"/>
       </defs>
       <use xlink:href="#Arial-BoldMT-39"/>
      </g>
     </g>
    </g>
    <g id="xtick_11">
     <g id="line2d_11">
      <g>
       <use xlink:href="#m2174890dbb" x="56.727491" y="198.907885" style="stroke: #000000; stroke-width: 2"/>
      </g>
     </g>
     <g id="text_11">
      <!-- 10 -->
      <g transform="translate(46.717803 224.791947) scale(0.18 -0.18)">
       <use xlink:href="#Arial-BoldMT-31"/>
       <use xlink:href="#Arial-BoldMT-30" x="55.615234"/>
      </g>
     </g>
    </g>
    <g id="text_12">
     <!-- Chemical Shift / ppm -->
     <g transform="translate(504.992813 245.447573) scale(0.18 -0.18)">
      <defs>
       <path id="Arial-BoldMT-43" d="M 3397 1684 
L 4294 1400 
Q 4088 650 3608 286 
Q 3128 -78 2391 -78 
Q 1478 -78 890 545 
Q 303 1169 303 2250 
Q 303 3394 893 4026 
Q 1484 4659 2447 4659 
Q 3288 4659 3813 4163 
Q 4125 3869 4281 3319 
L 3366 3100 
Q 3284 3456 3026 3662 
Q 2769 3869 2400 3869 
Q 1891 3869 1573 3503 
Q 1256 3138 1256 2319 
Q 1256 1450 1568 1081 
Q 1881 713 2381 713 
Q 2750 713 3015 947 
Q 3281 1181 3397 1684 
z
" transform="scale(0.015625)"/>
       <path id="Arial-BoldMT-68" d="M 1334 4581 
L 1334 2897 
Q 1759 3394 2350 3394 
Q 2653 3394 2897 3281 
Q 3141 3169 3264 2994 
Q 3388 2819 3433 2606 
Q 3478 2394 3478 1947 
L 3478 0 
L 2600 0 
L 2600 1753 
Q 2600 2275 2550 2415 
Q 2500 2556 2373 2639 
Q 2247 2722 2056 2722 
Q 1838 2722 1666 2615 
Q 1494 2509 1414 2295 
Q 1334 2081 1334 1663 
L 1334 0 
L 456 0 
L 456 4581 
L 1334 4581 
z
" transform="scale(0.015625)"/>
       <path id="Arial-BoldMT-65" d="M 2381 1056 
L 3256 909 
Q 3088 428 2723 176 
Q 2359 -75 1813 -75 
Q 947 -75 531 491 
Q 203 944 203 1634 
Q 203 2459 634 2926 
Q 1066 3394 1725 3394 
Q 2466 3394 2894 2905 
Q 3322 2416 3303 1406 
L 1103 1406 
Q 1113 1016 1316 798 
Q 1519 581 1822 581 
Q 2028 581 2168 693 
Q 2309 806 2381 1056 
z
M 2431 1944 
Q 2422 2325 2234 2523 
Q 2047 2722 1778 2722 
Q 1491 2722 1303 2513 
Q 1116 2303 1119 1944 
L 2431 1944 
z
" transform="scale(0.015625)"/>
       <path id="Arial-BoldMT-6d" d="M 394 3319 
L 1203 3319 
L 1203 2866 
Q 1638 3394 2238 3394 
Q 2556 3394 2790 3262 
Q 3025 3131 3175 2866 
Q 3394 3131 3647 3262 
Q 3900 3394 4188 3394 
Q 4553 3394 4806 3245 
Q 5059 3097 5184 2809 
Q 5275 2597 5275 2122 
L 5275 0 
L 4397 0 
L 4397 1897 
Q 4397 2391 4306 2534 
Q 4184 2722 3931 2722 
Q 3747 2722 3584 2609 
Q 3422 2497 3350 2280 
Q 3278 2063 3278 1594 
L 3278 0 
L 2400 0 
L 2400 1819 
Q 2400 2303 2353 2443 
Q 2306 2584 2207 2653 
Q 2109 2722 1941 2722 
Q 1738 2722 1575 2612 
Q 1413 2503 1342 2297 
Q 1272 2091 1272 1613 
L 1272 0 
L 394 0 
L 394 3319 
z
" transform="scale(0.015625)"/>
       <path id="Arial-BoldMT-69" d="M 459 3769 
L 459 4581 
L 1338 4581 
L 1338 3769 
L 459 3769 
z
M 459 0 
L 459 3319 
L 1338 3319 
L 1338 0 
L 459 0 
z
" transform="scale(0.015625)"/>
       <path id="Arial-BoldMT-63" d="M 3353 2338 
L 2488 2181 
Q 2444 2441 2289 2572 
Q 2134 2703 1888 2703 
Q 1559 2703 1364 2476 
Q 1169 2250 1169 1719 
Q 1169 1128 1367 884 
Q 1566 641 1900 641 
Q 2150 641 2309 783 
Q 2469 925 2534 1272 
L 3397 1125 
Q 3263 531 2881 228 
Q 2500 -75 1859 -75 
Q 1131 -75 698 384 
Q 266 844 266 1656 
Q 266 2478 700 2936 
Q 1134 3394 1875 3394 
Q 2481 3394 2839 3133 
Q 3197 2872 3353 2338 
z
" transform="scale(0.015625)"/>
       <path id="Arial-BoldMT-61" d="M 1116 2306 
L 319 2450 
Q 453 2931 781 3162 
Q 1109 3394 1756 3394 
Q 2344 3394 2631 3255 
Q 2919 3116 3036 2902 
Q 3153 2688 3153 2116 
L 3144 1091 
Q 3144 653 3186 445 
Q 3228 238 3344 0 
L 2475 0 
Q 2441 88 2391 259 
Q 2369 338 2359 363 
Q 2134 144 1878 34 
Q 1622 -75 1331 -75 
Q 819 -75 523 203 
Q 228 481 228 906 
Q 228 1188 362 1408 
Q 497 1628 739 1745 
Q 981 1863 1438 1950 
Q 2053 2066 2291 2166 
L 2291 2253 
Q 2291 2506 2166 2614 
Q 2041 2722 1694 2722 
Q 1459 2722 1328 2630 
Q 1197 2538 1116 2306 
z
M 2291 1594 
Q 2122 1538 1756 1459 
Q 1391 1381 1278 1306 
Q 1106 1184 1106 997 
Q 1106 813 1243 678 
Q 1381 544 1594 544 
Q 1831 544 2047 700 
Q 2206 819 2256 991 
Q 2291 1103 2291 1419 
L 2291 1594 
z
" transform="scale(0.015625)"/>
       <path id="Arial-BoldMT-6c" d="M 459 0 
L 459 4581 
L 1338 4581 
L 1338 0 
L 459 0 
z
" transform="scale(0.015625)"/>
       <path id="Arial-BoldMT-20" transform="scale(0.015625)"/>
       <path id="Arial-BoldMT-53" d="M 231 1491 
L 1131 1578 
Q 1213 1125 1461 912 
Q 1709 700 2131 700 
Q 2578 700 2804 889 
Q 3031 1078 3031 1331 
Q 3031 1494 2936 1608 
Q 2841 1722 2603 1806 
Q 2441 1863 1863 2006 
Q 1119 2191 819 2459 
Q 397 2838 397 3381 
Q 397 3731 595 4036 
Q 794 4341 1167 4500 
Q 1541 4659 2069 4659 
Q 2931 4659 3367 4281 
Q 3803 3903 3825 3272 
L 2900 3231 
Q 2841 3584 2645 3739 
Q 2450 3894 2059 3894 
Q 1656 3894 1428 3728 
Q 1281 3622 1281 3444 
Q 1281 3281 1419 3166 
Q 1594 3019 2269 2859 
Q 2944 2700 3267 2529 
Q 3591 2359 3773 2064 
Q 3956 1769 3956 1334 
Q 3956 941 3737 597 
Q 3519 253 3119 86 
Q 2719 -81 2122 -81 
Q 1253 -81 787 320 
Q 322 722 231 1491 
z
" transform="scale(0.015625)"/>
       <path id="Arial-BoldMT-66" d="M 75 3319 
L 563 3319 
L 563 3569 
Q 563 3988 652 4194 
Q 741 4400 980 4529 
Q 1219 4659 1584 4659 
Q 1959 4659 2319 4547 
L 2200 3934 
Q 1991 3984 1797 3984 
Q 1606 3984 1523 3895 
Q 1441 3806 1441 3553 
L 1441 3319 
L 2097 3319 
L 2097 2628 
L 1441 2628 
L 1441 0 
L 563 0 
L 563 2628 
L 75 2628 
L 75 3319 
z
" transform="scale(0.015625)"/>
       <path id="Arial-BoldMT-74" d="M 1981 3319 
L 1981 2619 
L 1381 2619 
L 1381 1281 
Q 1381 875 1398 808 
Q 1416 741 1477 697 
Q 1538 653 1625 653 
Q 1747 653 1978 738 
L 2053 56 
Q 1747 -75 1359 -75 
Q 1122 -75 931 4 
Q 741 84 652 211 
Q 563 338 528 553 
Q 500 706 500 1172 
L 500 2619 
L 97 2619 
L 97 3319 
L 500 3319 
L 500 3978 
L 1381 4491 
L 1381 3319 
L 1981 3319 
z
" transform="scale(0.015625)"/>
       <path id="Arial-BoldMT-2f" d="M -9 -78 
L 1125 4659 
L 1784 4659 
L 638 -78 
L -9 -78 
z
" transform="scale(0.015625)"/>
       <path id="Arial-BoldMT-70" d="M 434 3319 
L 1253 3319 
L 1253 2831 
Q 1413 3081 1684 3237 
Q 1956 3394 2288 3394 
Q 2866 3394 3269 2941 
Q 3672 2488 3672 1678 
Q 3672 847 3265 386 
Q 2859 -75 2281 -75 
Q 2006 -75 1782 34 
Q 1559 144 1313 409 
L 1313 -1263 
L 434 -1263 
L 434 3319 
z
M 1303 1716 
Q 1303 1156 1525 889 
Q 1747 622 2066 622 
Q 2372 622 2575 867 
Q 2778 1113 2778 1672 
Q 2778 2194 2568 2447 
Q 2359 2700 2050 2700 
Q 1728 2700 1515 2451 
Q 1303 2203 1303 1716 
z
" transform="scale(0.015625)"/>
      </defs>
      <use xlink:href="#Arial-BoldMT-43"/>
      <use xlink:href="#Arial-BoldMT-68" x="72.216797"/>
      <use xlink:href="#Arial-BoldMT-65" x="133.300781"/>
      <use xlink:href="#Arial-BoldMT-6d" x="188.916016"/>
      <use xlink:href="#Arial-BoldMT-69" x="277.832031"/>
      <use xlink:href="#Arial-BoldMT-63" x="305.615234"/>
      <use xlink:href="#Arial-BoldMT-61" x="361.230469"/>
      <use xlink:href="#Arial-BoldMT-6c" x="416.845703"/>
      <use xlink:href="#Arial-BoldMT-20" x="444.628906"/>
      <use xlink:href="#Arial-BoldMT-53" x="472.412109"/>
      <use xlink:href="#Arial-BoldMT-68" x="539.111328"/>
      <use xlink:href="#Arial-BoldMT-69" x="600.195312"/>
      <use xlink:href="#Arial-BoldMT-66" x="627.978516"/>
      <use xlink:href="#Arial-BoldMT-74" x="661.279297"/>
      <use xlink:href="#Arial-BoldMT-20" x="694.580078"/>
      <use xlink:href="#Arial-BoldMT-2f" x="722.363281"/>
      <use xlink:href="#Arial-BoldMT-20" x="750.146484"/>
      <use xlink:href="#Arial-BoldMT-70" x="777.929688"/>
      <use xlink:href="#Arial-BoldMT-70" x="839.013672"/>
      <use xlink:href="#Arial-BoldMT-6d" x="900.097656"/>
     </g>
    </g>
   </g>
   <g id="matplotlib.axis_2"/>
   <g id="line2d_12">
    <path d="M 2.920341 188.562747 
L 3.73882 186.493823 
L 4.148059 186.574407 
L 4.352679 186.576302 
L 5.171158 185.95211 
L 5.375778 186.107202 
L 6.603496 188.031389 
L 6.808116 187.862871 
L 7.831214 185.904027 
L 8.240454 185.776732 
L 8.445074 185.56562 
L 9.263553 184.08476 
L 9.468172 184.033281 
L 9.877412 184.484578 
L 10.286651 184.91118 
L 11.10513 185.058074 
L 11.51437 185.968442 
L 11.923609 186.779346 
L 13.151327 187.925097 
L 13.969806 189.350394 
L 14.583665 189.744005 
L 14.992905 190.754099 
L 15.606764 192.436533 
L 15.811384 192.594206 
L 16.016004 192.554485 
L 16.425243 192.124976 
L 16.834482 191.197393 
L 17.857581 187.380052 
L 18.266821 185.898115 
L 18.47144 185.66528 
L 18.67606 185.945446 
L 19.085299 187.738843 
L 19.494539 189.473769 
L 19.903778 190.222185 
L 20.108398 190.251649 
L 20.313018 189.95907 
L 20.926877 188.736883 
L 21.745356 187.61256 
L 21.949976 187.831186 
L 22.563835 189.535113 
L 23.177694 191.219638 
L 23.382314 191.222316 
L 23.791553 190.291173 
L 24.200793 189.390898 
L 24.405412 189.349218 
L 24.610032 189.591427 
L 25.019272 190.753021 
L 25.428511 192.122101 
L 25.633131 192.532829 
L 25.83775 192.688607 
L 26.24699 192.726825 
L 26.45161 192.926178 
L 27.065469 193.851638 
L 27.270089 193.774386 
L 28.088567 192.356243 
L 28.702427 191.020676 
L 29.111666 189.413045 
L 29.725525 186.822366 
L 29.930145 186.617786 
L 30.134765 186.721236 
L 31.362483 188.309399 
L 31.771723 189.703762 
L 32.385582 192.134351 
L 32.590201 192.344614 
L 32.794821 192.192559 
L 33.204061 191.335925 
L 33.6133 190.406937 
L 34.636399 189.004081 
L 34.841018 188.941561 
L 35.045638 189.247042 
L 36.273357 192.424186 
L 36.477976 192.171523 
L 37.501075 188.615631 
L 37.705695 188.460474 
L 37.910314 188.535766 
L 38.319554 189.211144 
L 38.728793 190.108087 
L 39.547272 192.301105 
L 40.161131 192.940845 
L 40.365751 192.93784 
L 40.774991 192.190893 
L 41.38885 190.487881 
L 41.798089 188.486475 
L 42.411948 185.541872 
L 42.616568 185.16982 
L 42.821188 185.102302 
L 43.230427 185.53106 
L 43.639667 185.965274 
L 44.048906 186.13144 
L 44.253526 186.419413 
L 44.662765 187.677171 
L 45.481244 190.476121 
L 45.890484 191.296433 
L 46.913582 192.76354 
L 47.118202 192.853826 
L 47.527441 192.633894 
L 49.164399 190.77618 
L 49.778258 189.594629 
L 49.982878 189.564414 
L 50.187498 189.874403 
L 51.005977 191.837362 
L 51.210597 191.737734 
L 51.619836 190.935879 
L 52.029075 189.734989 
L 52.847554 186.670572 
L 53.052174 186.518354 
L 53.256794 186.687917 
L 53.666033 187.909124 
L 54.279892 190.046644 
L 54.893752 191.361436 
L 55.098371 191.453714 
L 55.507611 191.052884 
L 56.12147 190.254915 
L 56.530709 189.314887 
L 57.349188 187.176387 
L 57.758428 186.440187 
L 58.167667 185.110566 
L 58.576907 182.995552 
L 58.986146 178.240698 
L 59.600005 165.735758 
L 60.623104 141.852944 
L 61.032343 138.086822 
L 61.236963 138.370614 
L 61.441583 140.02476 
L 62.055442 149.611458 
L 62.873921 161.833195 
L 63.28316 165.537123 
L 63.6924 167.646976 
L 64.101639 169.21786 
L 65.738597 178.269411 
L 66.966316 180.997315 
L 67.580175 182.848005 
L 67.989414 183.265984 
L 68.398654 183.289241 
L 69.217133 182.783133 
L 69.421752 182.983923 
L 70.035611 184.185499 
L 70.240231 184.160477 
L 71.05871 182.771276 
L 71.877189 183.830497 
L 72.286428 183.165605 
L 73.104907 181.843203 
L 73.309527 181.654759 
L 73.514147 181.826674 
L 73.718767 182.443909 
L 74.946485 188.103741 
L 76.174203 189.238451 
L 76.378823 189.033022 
L 76.992682 187.971122 
L 77.197302 188.102173 
L 77.811161 189.024726 
L 78.220401 189.016429 
L 78.42502 189.184979 
L 78.62964 189.736165 
L 79.243499 192.218071 
L 79.448119 192.380415 
L 79.652739 192.082512 
L 80.266598 190.564382 
L 80.471218 190.584111 
L 80.675837 191.05259 
L 81.494316 193.816817 
L 81.698936 193.889104 
L 82.108175 193.225421 
L 82.312795 192.859706 
L 82.517415 192.721631 
L 83.131274 193.307573 
L 83.335894 193.06667 
L 84.358992 190.083523 
L 84.972851 189.383353 
L 85.382091 188.171259 
L 85.99595 186.016264 
L 86.20057 185.724371 
L 86.40519 185.797311 
L 86.609809 186.338829 
L 87.632908 191.141896 
L 87.837528 191.214411 
L 88.246767 190.759783 
L 88.860626 189.66525 
L 89.065246 189.660089 
L 89.474485 189.979191 
L 89.679105 189.815606 
L 90.497584 187.844154 
L 90.906824 187.733485 
L 91.316063 187.915069 
L 92.339162 188.523451 
L 92.748401 188.42647 
L 92.953021 188.361401 
L 93.56688 188.568561 
L 94.180739 187.984449 
L 94.385359 188.073494 
L 94.999218 189.067484 
L 95.203838 188.987847 
L 95.817697 188.197816 
L 96.022317 188.090871 
L 96.226936 188.150844 
L 96.636176 188.733029 
L 97.250035 189.612398 
L 97.659275 189.829064 
L 98.068514 189.606225 
L 98.477753 189.323347 
L 98.682373 189.259226 
L 98.886993 189.31982 
L 99.091613 189.597928 
L 99.500852 190.781603 
L 100.114711 192.923173 
L 100.319331 192.972693 
L 100.523951 192.499707 
L 101.547049 188.597274 
L 101.751669 188.588356 
L 101.956289 189.071992 
L 102.365528 191.462729 
L 102.774768 193.722057 
L 102.979387 194.068565 
L 103.388627 193.900308 
L 104.002486 193.487621 
L 104.411726 193.170511 
L 104.820965 193.196578 
L 105.230204 192.610048 
L 105.639444 192.116744 
L 106.048683 191.668093 
L 106.662543 190.534918 
L 107.276402 190.015907 
L 107.685641 189.814169 
L 108.094881 189.728783 
L 108.2995 189.815802 
L 108.70874 190.451002 
L 109.117979 191.311197 
L 109.527219 191.614098 
L 109.936458 191.731561 
L 110.141078 191.589632 
L 110.345698 191.112105 
L 110.959557 188.881556 
L 111.164177 188.563858 
L 111.573416 188.498789 
L 111.982655 188.551772 
L 112.187275 188.66881 
L 112.596515 189.26442 
L 113.414994 190.636212 
L 114.233472 190.853825 
L 114.642712 190.916704 
L 114.847332 190.833311 
L 115.256571 190.233389 
L 115.665811 189.547363 
L 116.484289 188.772945 
L 117.098149 188.097959 
L 117.302768 188.106779 
L 117.712008 188.527371 
L 118.530487 189.51901 
L 118.939726 189.857907 
L 119.144346 189.771313 
L 119.553585 189.257103 
L 119.758205 189.339908 
L 119.962825 189.91752 
L 120.576684 192.579866 
L 120.781304 193.017379 
L 120.985923 193.151468 
L 121.190543 193.04792 
L 121.395163 192.730418 
L 121.804402 191.432416 
L 122.827501 186.843467 
L 123.032121 186.67005 
L 123.23674 186.917257 
L 124.055219 189.295942 
L 124.259839 189.247434 
L 124.669078 188.533512 
L 125.282938 187.139084 
L 125.692177 187.047263 
L 126.101417 186.82413 
L 126.510656 186.599657 
L 127.124515 186.743807 
L 127.329135 186.563954 
L 127.738374 185.426174 
L 128.147614 184.110762 
L 128.352234 183.807861 
L 128.556853 183.848136 
L 128.966093 184.768337 
L 129.375332 185.557029 
L 129.579952 185.699676 
L 129.989191 185.612102 
L 130.193811 185.592634 
L 130.398431 185.823966 
L 131.830769 189.146533 
L 132.035389 189.325536 
L 132.444628 189.261121 
L 132.853868 188.724634 
L 133.263107 188.051837 
L 134.081586 187.667633 
L 134.286206 187.715357 
L 134.695445 187.932022 
L 134.900065 187.569083 
L 135.513924 185.415329 
L 135.718544 185.555363 
L 136.127783 187.135033 
L 137.150882 192.437219 
L 137.560121 192.777031 
L 138.17398 192.94127 
L 138.58322 192.715556 
L 138.992459 192.131378 
L 139.401699 191.380969 
L 139.810938 190.772587 
L 140.424797 188.430618 
L 140.629417 188.338405 
L 141.038657 189.676323 
L 141.447896 191.030117 
L 141.652516 191.309793 
L 141.857136 191.251976 
L 142.880234 189.561017 
L 143.289474 189.448846 
L 143.698713 189.477231 
L 144.517192 189.945122 
L 144.721812 189.843829 
L 144.926431 189.455999 
L 145.540291 187.660284 
L 145.74491 187.512051 
L 146.972629 187.720224 
L 147.177248 187.50555 
L 148.609587 184.948483 
L 148.814206 184.701374 
L 149.018826 184.67289 
L 149.428065 185.100799 
L 149.837305 186.118896 
L 150.451164 188.210032 
L 150.655784 188.550269 
L 150.860404 188.596686 
L 151.474263 188.08865 
L 151.678882 188.362577 
L 152.497361 190.692003 
L 152.701981 190.837525 
L 153.111221 190.742013 
L 153.31584 190.861239 
L 154.134319 191.852617 
L 154.748178 192.194781 
L 155.362038 192.305188 
L 155.771277 191.942576 
L 156.180516 191.658261 
L 156.589756 191.538283 
L 156.998995 190.831057 
L 157.817474 188.93934 
L 159.045193 186.970403 
L 159.249812 186.820014 
L 159.454432 186.93764 
L 160.272911 188.455737 
L 160.477531 188.520806 
L 160.88677 188.160088 
L 161.29601 187.680275 
L 161.705249 187.604688 
L 161.909869 187.798456 
L 162.319108 188.936531 
L 162.728348 190.015188 
L 163.137587 190.350133 
L 163.546827 190.547723 
L 164.160686 191.222088 
L 164.979165 192.325897 
L 165.388404 192.542432 
L 166.411503 192.583133 
L 166.616122 192.779448 
L 167.025362 193.865553 
L 167.639221 196.068109 
L 167.843841 196.238293 
L 168.048461 195.898154 
L 168.66232 193.253904 
L 169.071559 191.987098 
L 169.480799 191.605965 
L 169.685418 191.571438 
L 170.094658 191.882799 
L 170.299278 192.015973 
L 170.503897 191.872803 
L 171.322376 190.422518 
L 171.526996 190.247598 
L 171.731616 189.88185 
L 172.550095 187.064249 
L 172.754714 187.07738 
L 173.163954 187.969423 
L 173.573193 188.806721 
L 173.777813 188.780262 
L 174.187052 187.954724 
L 174.596292 187.042233 
L 174.800912 186.951359 
L 175.005531 187.182561 
L 175.414771 188.170671 
L 176.23325 190.629581 
L 177.256348 192.005357 
L 177.460968 192.004377 
L 177.665588 191.677011 
L 178.279447 190.186417 
L 178.484067 190.133402 
L 178.893306 190.567713 
L 180.121024 192.611682 
L 180.325644 192.566702 
L 180.939503 191.752009 
L 181.144123 191.880512 
L 181.553363 192.840303 
L 181.962602 193.890117 
L 182.371841 194.32874 
L 182.576461 194.071864 
L 183.59956 190.948651 
L 183.80418 190.866074 
L 184.008799 191.091069 
L 184.622658 192.213595 
L 184.827278 192.202293 
L 185.236518 191.862775 
L 185.441137 191.459202 
L 185.850377 189.477917 
L 186.259616 186.838502 
L 186.668856 185.763569 
L 187.282715 185.095769 
L 187.487335 184.785682 
L 187.691954 184.272616 
L 188.101194 182.047293 
L 189.124292 174.312656 
L 189.942771 171.896473 
L 190.352011 169.359005 
L 190.76125 166.590662 
L 190.96587 165.74804 
L 191.17049 165.417831 
L 191.375109 165.509587 
L 191.784349 166.4601 
L 193.012067 170.380433 
L 193.830546 173.512075 
L 194.035166 173.751965 
L 194.239786 173.696369 
L 194.649025 173.279795 
L 194.853645 173.298479 
L 195.058265 173.68964 
L 195.876743 176.472683 
L 196.081363 176.506229 
L 196.285983 176.34823 
L 196.490603 176.031446 
L 196.899842 174.750267 
L 197.922941 170.131528 
L 198.74142 164.948797 
L 199.150659 163.195579 
L 199.559899 159.398947 
L 200.173758 148.844391 
L 201.401476 123.562379 
L 203.038434 85.046643 
L 203.856913 70.50417 
L 204.266152 66.06427 
L 204.470772 65.047382 
L 204.675392 64.900456 
L 204.880011 65.49992 
L 205.289251 68.523506 
L 205.90311 76.45681 
L 206.721589 91.145785 
L 208.563166 126.695229 
L 209.381645 138.800777 
L 210.200124 146.662479 
L 210.813983 150.544725 
L 211.837082 155.24444 
L 212.041702 155.633707 
L 212.246322 155.582194 
L 212.450941 155.102904 
L 213.47404 151.054165 
L 213.67866 151.213635 
L 214.087899 153.042179 
L 214.701758 156.003734 
L 215.110998 156.938993 
L 215.315617 157.090525 
L 215.520237 156.985312 
L 215.929477 156.273121 
L 216.543336 155.000826 
L 216.747956 154.834562 
L 216.952575 154.852169 
L 217.361815 155.225266 
L 218.384913 156.342599 
L 218.589533 156.491942 
L 218.998773 157.26832 
L 219.817251 159.756758 
L 220.226491 160.219912 
L 220.431111 160.702568 
L 221.454209 164.973263 
L 221.863449 167.417277 
L 222.477308 171.526838 
L 222.886547 173.220933 
L 223.295787 174.046994 
L 223.500407 173.956479 
L 224.114266 173.008546 
L 224.318885 173.017627 
L 224.523505 173.295997 
L 225.137364 174.75938 
L 225.341984 174.849927 
L 225.751224 174.256277 
L 226.160463 173.508285 
L 226.365083 173.363417 
L 227.183562 173.752978 
L 227.592801 173.507991 
L 227.797421 173.151651 
L 228.20666 171.671804 
L 228.6159 169.165008 
L 229.434379 163.122965 
L 230.252858 159.388821 
L 230.457477 158.860337 
L 230.662097 158.736309 
L 230.866717 159.029345 
L 231.071336 159.697732 
L 231.480576 162.141257 
L 232.299055 167.832872 
L 233.322153 172.834835 
L 233.731393 174.175203 
L 234.345252 175.721327 
L 234.754492 177.087238 
L 234.959111 177.471246 
L 235.368351 177.670338 
L 236.391449 178.119512 
L 236.800689 179.045069 
L 237.823787 182.378906 
L 238.233027 183.075842 
L 238.642266 184.601877 
L 239.256125 186.947603 
L 239.665365 187.924477 
L 240.074604 188.212907 
L 240.279224 188.098286 
L 240.483844 187.698305 
L 240.893083 185.990752 
L 241.506942 183.307403 
L 241.711562 182.89354 
L 241.916182 182.78898 
L 242.120802 183.030079 
L 242.325421 183.678279 
L 242.939281 187.415526 
L 243.34852 189.458351 
L 244.166999 192.042105 
L 244.576238 192.824983 
L 244.780858 192.927975 
L 244.985478 192.722677 
L 245.599337 191.508656 
L 246.213196 191.330568 
L 246.622436 190.717416 
L 247.031675 190.012869 
L 247.236295 189.816455 
L 247.440915 189.814267 
L 247.850154 190.443163 
L 249.077872 192.728883 
L 249.282492 192.998074 
L 249.487112 193.030608 
L 249.691732 192.834423 
L 250.305591 191.914549 
L 250.51021 191.976514 
L 250.71483 192.162312 
L 250.91945 192.123114 
L 251.328689 190.858463 
L 251.533309 190.295256 
L 251.737929 190.298751 
L 252.556408 192.380447 
L 252.761027 192.272621 
L 252.965647 191.661495 
L 253.784126 187.136405 
L 255.421084 178.461774 
L 256.239563 177.393308 
L 257.262661 174.942467 
L 257.876521 174.935052 
L 258.28576 174.201596 
L 258.899619 173.042942 
L 259.104239 172.958341 
L 259.308859 173.222566 
L 259.718098 174.738083 
L 260.331957 177.357181 
L 260.945817 178.975428 
L 261.355056 180.556568 
L 262.378155 185.616936 
L 262.582774 185.780489 
L 263.401253 185.257133 
L 263.810493 184.190398 
L 264.219732 183.131928 
L 265.038211 182.374267 
L 265.242831 181.928752 
L 265.65207 180.088874 
L 266.06131 177.057546 
L 266.470549 172.334312 
L 267.698268 154.906294 
L 268.107507 153.046948 
L 268.312127 152.913838 
L 268.516746 153.179501 
L 268.925986 154.354781 
L 269.539845 157.059232 
L 270.358324 161.590038 
L 270.562944 161.835318 
L 270.767563 161.663632 
L 271.381423 160.287398 
L 271.586042 160.208741 
L 271.790662 160.586705 
L 272.199902 162.499198 
L 273.01838 167.628357 
L 273.42762 169.247748 
L 273.836859 171.889548 
L 274.859958 179.276238 
L 275.269197 180.606219 
L 275.473817 180.80469 
L 275.678437 180.827556 
L 275.883057 180.660345 
L 276.292296 179.496824 
L 276.701536 177.686475 
L 277.110775 174.664555 
L 277.929254 164.829734 
L 278.952352 150.89855 
L 279.566212 140.178579 
L 281.203169 106.478387 
L 282.021648 92.924188 
L 282.635508 88.038904 
L 283.658606 81.094397 
L 284.272465 76.965074 
L 284.886325 73.850713 
L 285.295564 69.463828 
L 285.704803 60.668533 
L 286.318663 38.682957 
L 286.932522 16.478265 
L 287.341761 6.899766 
L 287.546381 4.158861 
L 287.751001 3.00024 
L 287.95562 3.633611 
L 288.16024 6.139917 
L 288.56948 15.841693 
L 290.206437 65.531703 
L 290.411057 67.688626 
L 290.615677 68.500379 
L 290.820297 68.217012 
L 291.024916 67.051564 
L 291.434156 62.49185 
L 292.252635 51.476458 
L 293.071114 44.947186 
L 293.480353 41.897599 
L 293.684973 41.90472 
L 293.889593 43.129487 
L 295.117311 55.134199 
L 295.73117 58.170197 
L 296.754269 61.530198 
L 297.777367 64.30135 
L 298.186607 67.207702 
L 299.618945 80.839448 
L 300.642044 90.644347 
L 300.846663 91.309566 
L 301.051283 91.200858 
L 301.460522 89.615569 
L 302.483621 84.105178 
L 302.892861 81.194286 
L 303.50672 73.962492 
L 304.529818 60.754507 
L 304.939058 57.941641 
L 305.348297 56.347631 
L 305.552917 56.058058 
L 305.757537 56.306114 
L 305.962156 57.314412 
L 306.371396 61.832086 
L 307.189875 75.68151 
L 308.417593 99.977665 
L 309.645312 122.271923 
L 310.259171 129.460338 
L 310.87303 133.970892 
L 311.896129 139.097602 
L 312.305368 140.113968 
L 313.123847 141.598747 
L 313.737706 141.939637 
L 313.942326 142.569839 
L 314.556185 146.340208 
L 315.170044 150.542079 
L 317.011622 167.449877 
L 317.420861 169.22472 
L 318.03472 171.157366 
L 318.853199 174.721979 
L 319.057819 175.000055 
L 319.262439 175.006882 
L 319.467058 174.834902 
L 319.671678 174.433614 
L 320.285537 172.717405 
L 320.490157 172.694866 
L 320.899396 172.895363 
L 321.104016 172.738833 
L 321.717875 171.906436 
L 322.127115 171.851624 
L 322.536354 171.311479 
L 322.945594 170.717436 
L 323.150213 170.719135 
L 323.354833 171.095662 
L 323.764073 172.871028 
L 324.377932 175.380861 
L 324.787171 175.98712 
L 325.196411 176.081848 
L 325.60565 176.134275 
L 325.81027 176.351398 
L 326.219509 177.42104 
L 326.628749 178.402063 
L 327.037988 178.770228 
L 327.651847 179.010837 
L 327.856467 179.329188 
L 328.265707 180.604553 
L 328.879566 182.713785 
L 330.107284 185.56513 
L 330.516524 185.91889 
L 330.925763 185.758636 
L 331.130383 185.499702 
L 331.539622 184.281827 
L 332.562721 179.527169 
L 332.767341 179.065224 
L 332.97196 178.952791 
L 333.17658 179.241418 
L 334.608918 182.993886 
L 334.813538 182.846601 
L 335.222777 181.718293 
L 335.632017 180.472359 
L 335.836637 180.19131 
L 336.245876 180.129345 
L 336.450496 180.142313 
L 336.655115 180.267517 
L 336.859735 180.645057 
L 337.882834 183.78996 
L 338.087454 183.96475 
L 338.496693 184.053304 
L 338.701313 184.38642 
L 339.519792 186.31531 
L 339.929031 186.324881 
L 340.338271 186.231753 
L 340.74751 186.455181 
L 341.156749 187.084076 
L 341.975228 189.268895 
L 342.179848 189.307995 
L 343.202947 188.29274 
L 343.612186 188.104786 
L 344.021426 188.067255 
L 344.430665 187.960669 
L 344.635285 188.094726 
L 345.249144 189.397366 
L 345.453764 189.275689 
L 345.863003 187.782907 
L 346.476862 185.077117 
L 346.681482 184.6024 
L 346.886102 184.538997 
L 347.090722 184.819947 
L 347.704581 186.238809 
L 348.11382 186.599984 
L 348.31844 186.577706 
L 348.727679 185.976804 
L 349.136919 185.337489 
L 349.750778 184.732569 
L 350.160017 183.877959 
L 350.569257 182.882793 
L 351.183116 181.884981 
L 351.592356 180.196439 
L 352.001595 177.404806 
L 353.024694 169.539151 
L 353.843173 166.324117 
L 354.047792 166.151712 
L 354.252412 166.65328 
L 355.070891 171.18549 
L 355.68475 176.060747 
L 356.503229 183.835659 
L 356.912468 185.9591 
L 357.117088 186.612919 
L 357.321708 186.8549 
L 357.935567 186.392334 
L 358.344806 187.036255 
L 358.754046 187.566176 
L 359.367905 188.109 
L 359.572525 188.10642 
L 360.186384 187.84546 
L 360.391004 188.020511 
L 361.209483 189.233225 
L 361.618722 189.760566 
L 362.437201 191.710982 
L 362.641821 191.650617 
L 363.05106 191.02489 
L 363.4603 189.845494 
L 364.074159 186.724143 
L 366.324976 174.468631 
L 366.529596 173.804817 
L 366.734215 173.626826 
L 366.938835 173.974478 
L 367.348074 175.923456 
L 368.575793 183.455244 
L 368.985032 184.532236 
L 369.394272 185.055101 
L 369.598891 185.150189 
L 369.803511 185.024298 
L 370.212751 184.47125 
L 370.41737 184.411833 
L 371.645089 185.222803 
L 372.258948 186.310639 
L 372.668187 186.745799 
L 373.077427 187.681646 
L 374.100525 190.310739 
L 374.714385 191.406644 
L 375.123624 191.717058 
L 376.351342 191.984811 
L 377.169821 192.416836 
L 377.579061 191.900209 
L 378.806779 189.854935 
L 379.011399 189.819134 
L 379.216019 189.65692 
L 379.625258 188.792838 
L 380.239117 187.17593 
L 380.648357 186.689028 
L 381.057596 186.228128 
L 381.876075 184.865776 
L 382.694554 184.120496 
L 383.103793 183.30626 
L 383.308413 183.163286 
L 383.513033 183.289503 
L 383.922272 184.16639 
L 384.740751 186.504603 
L 385.35461 187.555724 
L 386.991568 188.873618 
L 387.605427 189.566276 
L 388.014667 189.953942 
L 388.423906 190.762004 
L 389.447005 193.442642 
L 389.651625 193.578266 
L 391.083963 193.56961 
L 391.697822 194.467337 
L 392.311681 195.546386 
L 392.516301 195.6581 
L 392.92554 195.398513 
L 393.744019 194.876954 
L 393.948639 194.79931 
L 394.153259 194.514113 
L 394.562498 193.087608 
L 395.176357 190.946462 
L 395.790216 189.711013 
L 396.404076 188.906185 
L 396.608695 188.818807 
L 397.017935 189.077577 
L 397.631794 189.461487 
L 398.041033 190.194322 
L 398.654893 191.509636 
L 398.859512 191.72738 
L 399.064132 191.71709 
L 399.473372 191.286045 
L 399.882611 190.195563 
L 400.29185 189.084241 
L 400.90571 188.585482 
L 401.314949 187.230088 
L 401.928808 184.985689 
L 402.133428 184.792966 
L 402.338048 184.829289 
L 402.747287 185.241291 
L 402.951907 185.72963 
L 403.770386 188.933395 
L 404.179625 189.356469 
L 404.588865 189.710981 
L 405.407344 190.754654 
L 406.225823 192.40328 
L 406.430442 192.227707 
L 407.453541 190.067778 
L 408.0674 189.250799 
L 408.47664 188.509732 
L 408.681259 188.328932 
L 409.090499 188.38982 
L 409.499738 188.788428 
L 410.113597 189.81443 
L 410.522837 190.731854 
L 411.341316 193.177697 
L 411.545935 193.346999 
L 411.955175 193.289542 
L 412.159795 193.457537 
L 412.773654 194.593391 
L 412.978274 194.442054 
L 413.387513 193.257922 
L 413.796752 191.678023 
L 414.410612 188.547917 
L 414.615231 188.11733 
L 414.819851 188.192818 
L 415.229091 189.437609 
L 415.63833 190.888939 
L 415.84295 191.022146 
L 416.047569 190.565002 
L 416.456809 189.108903 
L 416.866048 188.538151 
L 417.889147 187.970273 
L 418.298386 188.202389 
L 418.707626 188.343468 
L 419.116865 188.264877 
L 419.321485 188.443978 
L 419.526105 188.880935 
L 420.549203 192.34432 
L 420.753823 192.159209 
L 421.163063 191.27752 
L 421.572302 189.953354 
L 422.390781 186.676844 
L 422.595401 186.387956 
L 422.80002 186.441135 
L 423.20926 186.921471 
L 423.41388 186.837914 
L 423.618499 186.367704 
L 424.027739 184.525703 
L 425.255457 178.522334 
L 425.460077 178.239588 
L 425.664697 178.37384 
L 426.892415 180.66237 
L 427.710894 183.446784 
L 427.915514 183.773399 
L 428.120133 183.814198 
L 429.143232 183.203202 
L 429.757091 183.423527 
L 429.961711 183.23995 
L 430.37095 182.610989 
L 430.57557 182.500223 
L 431.189429 182.711662 
L 432.212528 183.080807 
L 432.621767 184.047816 
L 433.031007 185.081201 
L 433.235626 185.303713 
L 434.054105 185.030374 
L 434.258725 184.832654 
L 434.667965 183.49405 
L 435.077204 182.086752 
L 435.281824 181.77134 
L 435.691063 181.759189 
L 436.100303 181.609715 
L 436.509542 181.45263 
L 436.918782 181.758438 
L 437.123401 181.902065 
L 437.73726 182.003848 
L 438.1465 182.362998 
L 438.35112 182.31227 
L 438.555739 181.982028 
L 438.964979 180.46821 
L 439.374218 179.130586 
L 439.578838 178.918003 
L 439.988077 179.05206 
L 441.011176 179.786267 
L 441.625035 181.161684 
L 441.829655 181.119677 
L 442.443514 180.296393 
L 443.057373 180.35666 
L 443.261993 180.216397 
L 444.080472 179.058952 
L 444.489711 179.098248 
L 445.103571 179.411405 
L 445.51281 180.091617 
L 445.92205 180.830136 
L 446.126669 180.992546 
L 446.331289 180.974482 
L 446.535909 180.783948 
L 446.945148 179.837322 
L 447.354388 178.781628 
L 447.968247 178.007145 
L 448.377486 176.491269 
L 448.786726 174.715414 
L 448.991345 174.334477 
L 449.195965 174.37142 
L 449.605205 175.183664 
L 450.219064 176.323045 
L 450.628303 177.236092 
L 451.242162 178.902259 
L 451.446782 179.007766 
L 451.651402 178.739947 
L 452.060641 177.32089 
L 452.87912 173.541114 
L 453.08374 173.240205 
L 453.28836 173.391639 
L 453.902219 174.272054 
L 454.516078 174.814878 
L 454.720698 174.686767 
L 455.334557 173.668539 
L 455.539177 173.642178 
L 455.948416 174.202445 
L 456.153036 174.47291 
L 456.357656 174.513741 
L 456.766895 173.969382 
L 457.176135 173.514786 
L 457.789994 173.212212 
L 458.199233 172.869917 
L 458.403853 172.856198 
L 458.813092 173.217373 
L 459.222332 173.695357 
L 459.426952 173.624213 
L 460.040811 172.480846 
L 460.24543 172.394154 
L 460.45005 172.562737 
L 461.063909 173.902027 
L 461.268529 173.932732 
L 461.882388 173.363613 
L 462.291628 172.737298 
L 462.496247 172.631725 
L 462.905487 172.988294 
L 463.110107 173.17272 
L 463.314726 173.188856 
L 463.519346 172.979083 
L 464.133205 171.646032 
L 464.747064 170.428777 
L 465.156304 169.664584 
L 465.974783 167.472285 
L 466.384022 167.008314 
L 466.588642 167.01354 
L 466.997881 167.504231 
L 468.634839 170.492114 
L 469.657938 172.157367 
L 469.862558 172.247456 
L 470.067177 172.022853 
L 470.681036 170.249317 
L 471.090276 169.199796 
L 471.499515 168.879845 
L 471.908755 168.566262 
L 472.522614 167.530526 
L 473.341093 165.133027 
L 473.954952 162.836364 
L 474.364192 161.438538 
L 474.568811 161.196753 
L 474.773431 161.266199 
L 475.38729 161.867395 
L 475.79653 162.081611 
L 476.410389 162.878469 
L 476.615009 162.839696 
L 477.433487 161.869453 
L 477.638107 161.899439 
L 478.047347 162.291221 
L 478.251966 162.266624 
L 478.661206 161.364814 
L 479.684304 158.700182 
L 479.888924 158.445265 
L 480.093544 158.433506 
L 480.707403 158.803533 
L 480.912023 158.778218 
L 481.116643 158.591245 
L 481.730502 157.362296 
L 482.139741 156.774624 
L 482.344361 156.706909 
L 482.95822 156.786971 
L 483.36746 156.176988 
L 484.390558 154.510266 
L 484.799798 154.262373 
L 485.209037 154.13988 
L 485.618277 153.943172 
L 485.822896 154.14197 
L 486.232136 155.241141 
L 486.641375 156.407438 
L 486.845995 156.743233 
L 487.050615 156.8002 
L 487.255234 156.492334 
L 487.664474 154.747315 
L 488.687572 149.192467 
L 489.301432 146.998502 
L 489.915291 145.736464 
L 490.32453 145.459826 
L 490.52915 145.457539 
L 490.73377 145.676067 
L 491.143009 147.179204 
L 491.552249 148.709191 
L 492.166108 149.672509 
L 492.370728 149.924747 
L 492.575347 149.986189 
L 492.779967 149.742902 
L 493.803066 147.556874 
L 494.007685 147.190604 
L 494.212305 146.595745 
L 494.621545 144.083918 
L 495.235404 139.175377 
L 495.440023 138.39619 
L 495.644643 138.143626 
L 495.849263 138.270725 
L 496.258502 139.254034 
L 496.872362 140.931862 
L 497.076981 140.854642 
L 497.486221 139.895342 
L 498.10008 138.530802 
L 498.3047 138.425491 
L 498.509319 138.610537 
L 499.123179 140.13631 
L 499.327798 140.170935 
L 499.532418 139.831776 
L 499.941657 138.581759 
L 500.555517 135.585644 
L 502.192474 127.824092 
L 502.601714 126.629213 
L 502.806334 126.599978 
L 503.829432 127.317624 
L 504.238672 127.721329 
L 504.443291 127.476212 
L 504.647911 126.736942 
L 505.057151 123.590046 
L 505.67101 117.74814 
L 506.080249 115.85185 
L 506.284869 115.596411 
L 506.898728 115.635543 
L 507.103348 115.569267 
L 507.307968 115.734387 
L 507.921827 117.059403 
L 508.126447 116.96474 
L 508.535686 116.055874 
L 508.944925 114.741508 
L 509.558785 111.570277 
L 510.581883 106.11522 
L 510.991123 104.762309 
L 511.195742 104.829827 
L 511.604982 105.480706 
L 511.809602 105.42756 
L 512.218841 104.446767 
L 512.62808 103.24137 
L 512.8327 103.040644 
L 513.446559 103.291281 
L 513.651179 103.10826 
L 514.674278 101.284747 
L 514.878897 100.671237 
L 515.288137 98.442745 
L 515.901996 94.936014 
L 516.720475 91.551612 
L 517.334334 89.706148 
L 517.948193 88.815575 
L 518.357433 88.453714 
L 519.175912 89.179755 
L 519.585151 88.99056 
L 519.789771 88.679069 
L 520.19901 87.266119 
L 520.60825 85.71931 
L 521.017489 85.118898 
L 521.222109 84.929083 
L 521.631348 84.08731 
L 522.245208 82.78013 
L 522.449827 82.307666 
L 522.859067 80.578979 
L 523.472926 77.869334 
L 524.086785 75.405003 
L 524.700644 72.62098 
L 525.109884 71.553527 
L 525.519123 71.131204 
L 525.928363 70.773361 
L 526.542222 70.172589 
L 527.156081 69.68412 
L 527.565321 69.831993 
L 527.76994 69.899642 
L 527.97456 69.837252 
L 528.383799 69.398923 
L 528.793039 68.527622 
L 529.406898 66.160239 
L 530.225377 62.654358 
L 530.634616 61.665234 
L 531.043856 60.989399 
L 531.453095 59.791025 
L 532.476194 55.626621 
L 532.680814 55.236603 
L 532.885433 55.128482 
L 533.090053 55.325908 
L 533.703912 56.423512 
L 533.908532 56.491944 
L 534.113152 56.198614 
L 534.522391 54.470025 
L 535.75011 47.925172 
L 536.159349 46.520944 
L 536.363969 46.23075 
L 536.773208 46.075331 
L 536.977828 45.844423 
L 537.387067 44.758841 
L 537.796307 43.627103 
L 538.000927 43.407759 
L 538.205546 43.489062 
L 538.614786 44.045213 
L 538.819406 44.092152 
L 539.024025 43.735518 
L 539.433265 41.790589 
L 540.456363 35.593192 
L 540.865603 30.181285 
L 542.502561 2.229187 
L 542.724811 -1 
M 547.220236 -1 
L 547.822673 40.702426 
L 548.231913 53.606629 
L 548.436533 55.420244 
L 548.641152 54.905284 
L 549.050392 49.190934 
L 549.868871 34.485397 
L 550.27811 30.391222 
L 550.48273 29.444106 
L 550.68735 29.212839 
L 550.891969 29.655055 
L 551.301209 32.316748 
L 552.324307 43.17917 
L 553.961265 63.423222 
L 554.779744 71.876909 
L 556.621322 89.997813 
L 557.439801 98.027673 
L 557.84904 99.991319 
L 558.462899 101.396036 
L 559.895237 107.615188 
L 561.941435 121.2828 
L 562.350674 122.812722 
L 562.964533 124.018511 
L 563.373773 125.669293 
L 564.192252 130.174685 
L 564.601491 131.377208 
L 565.010731 132.143981 
L 565.829209 133.071042 
L 566.852308 135.596032 
L 567.261548 136.916213 
L 567.670787 139.083033 
L 568.080026 141.740969 
L 568.284646 142.51003 
L 568.693886 142.942577 
L 569.103125 143.245543 
L 569.307745 143.476386 
L 569.512365 143.882965 
L 569.921604 145.563504 
L 570.535463 148.418245 
L 570.944703 149.408741 
L 571.558562 150.462703 
L 571.763182 151.051454 
L 572.172421 153.446961 
L 572.78628 158.275866 
L 573.19552 159.767537 
L 573.400139 159.974338 
L 574.013999 159.920082 
L 574.218618 160.125054 
L 574.627858 161.381277 
L 575.037097 162.785047 
L 575.241717 162.941806 
L 575.446337 162.620874 
L 576.264816 160.292755 
L 576.469435 160.091507 
L 576.674055 160.069327 
L 576.878675 160.184569 
L 577.083294 160.446247 
L 577.492534 161.510401 
L 577.901773 162.561065 
L 578.106393 162.663992 
L 578.924872 162.236213 
L 579.538731 162.460784 
L 579.947971 162.951671 
L 580.35721 163.357727 
L 580.56183 163.177809 
L 580.971069 162.380069 
L 581.175689 162.285276 
L 581.380309 162.577528 
L 581.994168 164.000897 
L 582.403407 164.278515 
L 582.608027 164.264862 
L 582.812647 164.006581 
L 583.426506 162.186824 
L 584.244985 159.327967 
L 584.654224 158.857365 
L 584.858844 158.855307 
L 585.063464 159.048585 
L 585.472703 159.93599 
L 585.881943 161.405122 
L 586.291182 162.996748 
L 586.495802 163.435143 
L 586.700422 163.595919 
L 586.905041 163.514355 
L 587.314281 162.755976 
L 587.72352 161.900909 
L 587.92814 162.007886 
L 588.13276 162.714883 
L 588.746619 165.871448 
L 588.951239 166.155664 
L 589.155858 165.871742 
L 589.565098 164.103955 
L 590.178957 161.36759 
L 590.588196 160.130541 
L 590.792816 159.965747 
L 590.997436 160.184177 
L 591.406675 160.957778 
L 591.611295 161.099739 
L 592.020534 160.953139 
L 592.225154 160.725564 
L 593.043633 159.297262 
L 594.066732 160.088077 
L 594.271351 160.242288 
L 594.475971 160.231606 
L 594.885211 159.491389 
L 595.08983 159.109668 
L 595.29445 158.966923 
L 595.70369 159.257149 
L 596.726788 160.001907 
L 597.136028 160.130574 
L 597.545267 160.868113 
L 597.954507 161.522454 
L 598.772985 162.284492 
L 599.182225 161.62463 
L 599.591464 160.396564 
L 600.409943 157.593726 
L 600.614563 157.395026 
L 600.819183 157.535028 
L 601.228422 158.655431 
L 602.251521 162.87076 
L 602.66076 164.396239 
L 603.07 165.031276 
L 603.888479 165.426292 
L 604.911577 165.885428 
L 605.116197 166.196724 
L 605.525436 167.532486 
L 605.934676 168.901599 
L 606.139296 169.110164 
L 606.343915 168.917376 
L 607.367014 166.50214 
L 607.776253 166.354887 
L 608.185493 165.709659 
L 608.594732 164.740102 
L 609.413211 162.328883 
L 609.822451 161.754081 
L 610.23169 161.657981 
L 610.845549 162.023075 
L 611.050169 161.824343 
L 611.664028 160.433311 
L 611.868648 160.352335 
L 612.277887 160.452453 
L 612.482507 160.045286 
L 613.300986 156.799677 
L 613.505606 156.820191 
L 614.937944 159.092747 
L 615.347183 158.846063 
L 615.551803 158.718637 
L 615.756423 158.813137 
L 616.370282 159.696622 
L 616.574902 159.534343 
L 616.984141 158.958136 
L 617.188761 158.904729 
L 617.598 159.005663 
L 618.21186 158.962023 
L 619.030338 159.548683 
L 619.234958 159.564787 
L 619.439578 159.698614 
L 619.848817 160.397543 
L 620.258057 161.087196 
L 620.462677 161.208545 
L 620.667296 161.12084 
L 620.871916 160.755223 
L 621.281155 158.980217 
L 621.895015 155.916062 
L 622.304254 155.258584 
L 622.508874 154.935007 
L 622.918113 153.518268 
L 623.531972 151.370099 
L 623.941212 150.445652 
L 624.555071 149.792585 
L 624.96431 149.55632 
L 625.37355 149.562494 
L 625.57817 149.264133 
L 625.987409 147.77991 
L 627.215127 142.371531 
L 627.419747 142.384891 
L 627.828987 143.03737 
L 628.033606 143.108743 
L 628.238226 142.697918 
L 628.852085 139.49461 
L 629.261325 137.879172 
L 629.670564 137.042462 
L 629.875184 136.82596 
L 630.079804 136.924248 
L 630.489043 138.144475 
L 631.102902 140.244757 
L 631.512142 140.851996 
L 631.921381 140.873588 
L 633.353719 140.377344 
L 633.762959 140.762299 
L 633.967578 140.981904 
L 634.172198 140.931143 
L 634.376818 140.399915 
L 634.786057 137.720747 
L 635.399917 130.706142 
L 636.013776 124.515277 
L 636.423015 122.822848 
L 636.627635 122.756702 
L 636.832255 123.248177 
L 637.650734 126.942012 
L 637.855353 127.02841 
L 638.059973 126.925255 
L 638.264593 127.080576 
L 638.469212 127.732043 
L 638.878452 130.093415 
L 639.901551 136.73966 
L 640.10617 136.660709 
L 640.31079 135.815017 
L 641.129269 130.687229 
L 641.538508 129.97556 
L 641.947748 129.57215 
L 642.152368 129.132678 
L 642.561607 127.360285 
L 643.380086 122.261372 
L 643.584706 122.257812 
L 643.789325 123.139305 
L 644.812424 131.138036 
L 645.426283 134.943748 
L 645.835523 136.128305 
L 646.449382 137.526098 
L 647.47248 140.840106 
L 647.88172 141.498956 
L 648.495579 141.988993 
L 648.700199 141.975111 
L 649.109438 141.584929 
L 649.518678 140.846378 
L 650.746396 137.60642 
L 650.951016 137.369241 
L 651.155636 137.305251 
L 651.564875 137.679982 
L 652.587974 138.983569 
L 652.792593 139.065558 
L 652.997213 138.855621 
L 653.406453 137.721858 
L 654.838791 133.417909 
L 655.04341 133.366038 
L 655.65727 134.19752 
L 655.861889 134.095214 
L 656.066509 133.58156 
L 656.884988 130.335135 
L 657.089608 130.319325 
L 657.908087 131.609879 
L 658.112706 131.345719 
L 659.135805 128.08074 
L 659.545044 126.441652 
L 660.977382 117.479342 
L 661.182002 117.096249 
L 661.386622 117.294295 
L 662.409721 120.064794 
L 662.61434 120.141132 
L 663.228199 119.346168 
L 663.637439 118.841138 
L 664.046678 118.021153 
L 665.274397 114.646649 
L 665.888256 113.352502 
L 666.502115 111.456178 
L 669.366791 100.892214 
L 670.38989 94.522379 
L 671.208369 88.923826 
L 671.822228 84.583554 
L 672.845327 78.882009 
L 673.459186 73.77529 
L 674.686904 60.565083 
L 675.505383 51.709489 
L 676.937721 36.443228 
L 677.55158 29.865286 
L 678.574679 21.241906 
L 680.007017 7.605652 
L 680.614644 -1 
M 692.238815 -1 
L 692.89806 9.233275 
L 693.511919 15.828595 
L 694.125778 20.139272 
L 695.148877 25.33239 
L 696.581215 30.468017 
L 696.785835 30.820961 
L 696.990454 30.844741 
L 697.604314 30.372603 
L 698.013553 30.314689 
L 698.218173 30.141859 
L 698.627412 29.065553 
L 699.036652 26.882629 
L 699.855131 21.447498 
L 700.05975 21.127775 
L 700.26437 21.608536 
L 700.46899 22.946421 
L 701.082849 30.291758 
L 702.105947 42.926573 
L 702.515187 46.354615 
L 702.924426 47.835638 
L 703.333666 47.943334 
L 703.538286 48.362097 
L 703.947525 50.616197 
L 704.356764 52.602447 
L 704.561384 52.902473 
L 704.766004 52.720857 
L 705.379863 51.368305 
L 705.584483 51.355533 
L 705.993722 51.727062 
L 706.198342 51.702303 
L 706.607581 51.45258 
L 706.812201 51.536855 
L 707.221441 52.24088 
L 707.63068 52.943043 
L 707.8353 53.088663 
L 708.03992 52.918773 
L 708.244539 52.290498 
L 708.653779 49.878757 
L 709.881497 41.141245 
L 710.290737 39.773341 
L 710.904596 39.617007 
L 711.518455 38.894625 
L 711.723075 38.918111 
L 711.927694 39.342753 
L 712.336934 41.80764 
L 713.564652 52.27606 
L 713.973892 53.794125 
L 714.587751 54.811634 
L 714.792371 54.78756 
L 714.99699 54.367033 
L 716.020089 50.971264 
L 716.429328 48.369838 
L 717.657047 38.181585 
L 718.270906 35.030051 
L 718.475526 34.870026 
L 718.680145 35.419513 
L 719.089385 37.923337 
L 720.726343 50.143701 
L 721.135582 51.385421 
L 721.340202 51.449248 
L 721.544822 51.030257 
L 721.954061 48.859778 
L 722.3633 45.513202 
L 722.77254 40.54913 
L 723.386399 28.891679 
L 724.686016 -1 
M 726.389324 -1 
L 727.683413 18.207573 
L 728.297273 25.803286 
L 728.706512 28.393704 
L 728.911132 28.550364 
L 729.524991 27.900824 
L 729.93423 28.024689 
L 730.34347 28.416569 
L 730.752709 29.182657 
L 731.775808 31.609881 
L 732.389667 32.019825 
L 733.003526 32.521001 
L 733.412766 32.788101 
L 733.617385 32.565817 
L 734.026625 31.010449 
L 734.640484 27.148749 
L 735.049724 22.954326 
L 735.663583 13.41032 
L 736.381198 -1 
M 744.278064 -1 
L 744.87147 10.13404 
L 745.28071 14.797595 
L 745.689949 16.594062 
L 745.894569 16.712831 
L 746.303808 16.627609 
L 746.508428 16.829902 
L 746.713048 17.482349 
L 747.122287 20.683599 
L 748.350006 34.874272 
L 748.963865 38.489679 
L 749.373104 39.645915 
L 749.577724 39.751358 
L 749.782344 39.601851 
L 750.191583 38.903575 
L 750.396203 38.380611 
L 750.600823 37.400667 
L 750.805442 35.603187 
L 751.214682 28.956322 
L 751.623921 18.406044 
L 752.162835 -1 
M 756.478056 -1 
L 757.148654 20.195325 
L 757.967133 40.580554 
L 758.376372 47.011668 
L 758.785612 49.777561 
L 759.604091 52.971755 
L 760.831809 60.665103 
L 761.445668 65.350969 
L 763.082626 73.844898 
L 763.491866 74.65577 
L 763.696485 74.742364 
L 763.901105 74.560323 
L 764.310344 73.602525 
L 764.719584 72.378738 
L 764.924204 72.070611 
L 765.128823 72.179809 
L 765.742683 73.884161 
L 766.151922 74.962264 
L 766.356542 75.225313 
L 766.561161 75.210516 
L 767.175021 74.492511 
L 767.37964 74.545069 
L 767.58426 75.002409 
L 767.9935 76.903664 
L 768.811978 81.022403 
L 769.016598 81.448157 
L 769.221218 81.617034 
L 769.425838 81.599003 
L 769.835077 81.247693 
L 770.244317 80.630393 
L 770.653556 79.268826 
L 771.676655 74.73913 
L 771.881274 74.326084 
L 772.085894 74.244618 
L 772.290514 74.488232 
L 772.699753 75.813672 
L 773.722852 80.550397 
L 774.132091 81.369173 
L 774.541331 82.312337 
L 774.95057 83.702845 
L 775.15519 83.963119 
L 775.35981 83.776635 
L 775.769049 82.448027 
L 776.382908 80.245275 
L 776.587528 80.018581 
L 776.792148 80.071563 
L 776.996768 80.345948 
L 777.406007 81.520085 
L 777.815246 83.047557 
L 778.019866 83.453025 
L 778.224486 83.433622 
L 778.429106 82.977654 
L 779.452204 79.501138 
L 780.270683 78.494767 
L 780.475303 78.21336 
L 780.679923 78.206958 
L 780.884542 78.472457 
L 781.293782 79.754845 
L 782.112261 83.434863 
L 782.72612 84.758213 
L 783.339979 85.990199 
L 783.544599 86.150779 
L 783.749218 86.073952 
L 783.953838 85.799959 
L 784.158458 85.293099 
L 784.567697 83.224077 
L 785.181557 79.593154 
L 785.795416 77.091193 
L 786.204655 74.073029 
L 787.432374 62.749314 
L 788.046233 60.118065 
L 788.455472 59.434195 
L 788.660092 59.592423 
L 788.864712 60.219914 
L 789.273951 62.773649 
L 789.683191 65.483098 
L 790.09243 66.779042 
L 790.501669 67.617809 
L 791.115529 69.391541 
L 791.524768 69.674451 
L 791.729388 69.734129 
L 792.138627 70.226225 
L 792.547867 70.597428 
L 792.752486 70.552089 
L 792.957106 70.286067 
L 793.366346 68.948181 
L 794.594064 63.966699 
L 795.003303 63.096606 
L 795.207923 62.857206 
L 795.412543 62.821732 
L 795.617163 63.073055 
L 795.821782 63.686762 
L 796.231022 66.266237 
L 797.25412 75.224432 
L 797.86798 78.009499 
L 798.481839 79.995879 
L 798.891078 82.350947 
L 799.709557 87.44718 
L 800.323416 89.716634 
L 800.937276 91.391163 
L 801.141895 91.667115 
L 801.346515 91.678287 
L 801.755754 91.211082 
L 802.164994 90.673484 
L 802.369614 90.721599 
L 802.574233 91.16264 
L 803.188093 93.71141 
L 804.211191 98.752571 
L 807.280487 109.282008 
L 807.485107 109.616039 
L 807.689727 109.662488 
L 808.303586 109.237584 
L 808.508205 109.547933 
L 809.531304 112.471532 
L 809.940544 113.470683 
L 810.349783 114.672323 
L 810.759022 115.073676 
L 810.963642 115.228573 
L 811.168262 115.648446 
L 811.577501 117.338622 
L 811.986741 119.133455 
L 812.191361 119.50995 
L 812.39598 119.466996 
L 812.80522 119.030953 
L 813.009839 119.04134 
L 813.214459 119.285281 
L 813.623699 120.348978 
L 814.442178 122.812526 
L 814.851417 123.915225 
L 815.056037 124.088185 
L 815.260656 123.808901 
L 815.669896 122.854076 
L 815.874516 122.768461 
L 816.283755 123.391281 
L 817.306854 125.405557 
L 817.920713 126.969189 
L 818.125333 127.055914 
L 818.534572 126.499273 
L 818.943811 125.984998 
L 819.96691 125.833401 
L 820.785389 126.664393 
L 821.399248 126.330853 
L 821.603868 126.400658 
L 821.808488 126.792832 
L 822.626967 129.835069 
L 822.831586 129.701176 
L 823.650065 127.580609 
L 823.854685 127.529946 
L 824.468544 127.719304 
L 824.673164 127.455699 
L 825.287023 126.000285 
L 825.491643 126.052255 
L 825.900882 126.896771 
L 826.514741 128.501365 
L 826.923981 130.420521 
L 827.53784 133.907391 
L 827.74246 134.4917 
L 827.947079 134.676256 
L 828.151699 134.366038 
L 828.560939 132.163646 
L 829.174798 128.131044 
L 829.584037 126.835328 
L 829.993277 126.337223 
L 830.197896 126.291394 
L 830.402516 126.471606 
L 831.016375 127.710386 
L 831.220995 127.731488 
L 831.425615 127.412385 
L 832.448713 124.453965 
L 832.857953 122.595991 
L 833.471812 119.694637 
L 834.085671 118.310237 
L 834.290291 118.123394 
L 834.69953 118.175853 
L 834.90415 118.243829 
L 835.10877 118.194701 
L 835.31339 117.895687 
L 836.131869 115.145735 
L 836.541108 113.462484 
L 837.154967 108.560312 
L 838.382686 99.385092 
L 839.201164 93.449046 
L 841.247362 81.143982 
L 841.656601 77.192389 
L 842.6797 64.660761 
L 843.498179 58.096571 
L 843.907418 54.697045 
L 844.316658 49.435528 
L 845.953615 25.176644 
L 847.799612 -1 
M 948.081702 -1 
L 948.672718 21.852378 
L 949.491197 42.796502 
L 950.514296 62.952097 
L 951.332775 75.116964 
L 953.174352 94.511829 
L 953.992831 99.778409 
L 956.243648 118.785346 
L 956.652888 120.634534 
L 957.266747 122.936554 
L 958.085226 127.449068 
L 958.289845 127.719108 
L 958.903705 127.560553 
L 959.108324 127.850551 
L 959.312944 128.436786 
L 959.722184 130.735377 
L 960.336043 134.522405 
L 961.563761 139.858463 
L 962.58686 142.659406 
L 962.996099 143.434803 
L 964.223818 147.479589 
L 964.837677 148.727973 
L 965.246916 149.067851 
L 965.656156 149.295851 
L 966.270015 150.591174 
L 966.474635 150.619854 
L 966.883874 150.413445 
L 967.293113 151.075071 
L 968.111592 152.498865 
L 968.520832 153.742479 
L 968.725452 153.796115 
L 968.930071 153.215988 
L 969.74855 149.277428 
L 969.95317 149.159116 
L 970.15779 149.482073 
L 971.180888 152.851351 
L 972.408607 159.010171 
L 972.613226 159.457123 
L 972.817846 159.406852 
L 973.227085 158.139849 
L 973.636325 156.919067 
L 973.840945 156.632858 
L 974.045564 156.576217 
L 974.250184 156.732323 
L 975.068663 157.897379 
L 975.273283 157.872782 
L 975.887142 157.224222 
L 976.091762 157.206126 
L 976.296381 157.31441 
L 976.501001 157.567268 
L 976.705621 158.050381 
L 977.11486 159.937852 
L 977.5241 162.171112 
L 977.728719 162.855832 
L 977.933339 163.142498 
L 978.342579 163.186596 
L 978.547198 163.353415 
L 979.161058 164.330975 
L 979.365677 164.361288 
L 979.774917 164.017197 
L 979.979536 163.661836 
L 980.388776 162.255453 
L 980.798015 160.718279 
L 981.002635 160.323754 
L 981.207255 160.315326 
L 981.616494 161.046267 
L 982.025734 162.146418 
L 983.048832 166.548393 
L 983.253452 166.811802 
L 983.458072 166.73847 
L 984.071931 165.525723 
L 984.48117 165.457258 
L 985.09503 165.475648 
L 985.299649 165.437496 
L 985.504269 165.255259 
L 986.118128 164.230923 
L 986.731987 164.071159 
L 987.141227 163.940663 
L 987.550466 163.929492 
L 988.164326 163.663502 
L 988.368945 163.399603 
L 988.778185 162.139754 
L 989.187424 160.847403 
L 989.392044 160.671993 
L 989.596664 160.78472 
L 990.005903 161.448011 
L 990.619762 162.517261 
L 990.824382 162.544406 
L 991.233621 162.402575 
L 991.438241 162.599413 
L 991.847481 163.195971 
L 992.0521 162.973131 
L 992.46134 160.850572 
L 992.870579 158.611497 
L 993.075199 158.466922 
L 993.279819 159.171143 
L 994.098298 164.725925 
L 994.302917 165.174871 
L 994.507537 165.259668 
L 994.916777 165.181959 
L 995.121396 165.279659 
L 995.530636 166.047152 
L 995.939875 166.900749 
L 996.758354 167.586285 
L 997.167594 168.798084 
L 997.576833 170.110916 
L 997.986072 170.820559 
L 998.599932 171.219919 
L 999.418411 173.055257 
L 999.62303 173.153807 
L 999.82765 172.827616 
L 1000.236889 170.939622 
L 1002.283087 158.815031 
L 1002.487706 158.305983 
L 1002.692326 158.325026 
L 1002.896946 158.901168 
L 1003.510805 162.235397 
L 1004.124664 165.309058 
L 1004.533904 166.338457 
L 1004.943143 166.925149 
L 1005.352383 167.099481 
L 1005.761622 167.339568 
L 1006.375481 168.278877 
L 1006.784721 169.02615 
L 1007.19396 170.327974 
L 1007.6032 171.752617 
L 1008.217059 172.829021 
L 1008.830918 173.830654 
L 1009.035538 173.791489 
L 1009.240157 173.361098 
L 1009.649397 171.541472 
L 1010.058636 169.642143 
L 1010.877115 166.717107 
L 1011.490974 164.202896 
L 1011.695594 163.860994 
L 1011.900214 163.910514 
L 1012.104834 164.366776 
L 1012.514073 166.201068 
L 1013.332552 170.142601 
L 1014.355651 175.239129 
L 1014.76489 177.386709 
L 1014.96951 178.019264 
L 1015.174129 178.198234 
L 1015.787989 177.594098 
L 1015.992608 177.38439 
L 1016.197228 176.935968 
L 1016.401848 176.029976 
L 1016.811087 172.776202 
L 1017.629566 165.015564 
L 1017.834186 164.149228 
L 1018.038806 164.043361 
L 1018.448045 165.048066 
L 1019.061904 166.42136 
L 1019.675763 167.517624 
L 1019.880383 167.575963 
L 1020.289623 167.374095 
L 1020.494242 167.413848 
L 1020.698862 167.677649 
L 1021.312721 169.329541 
L 1022.1312 171.181669 
L 1022.54044 171.6834 
L 1022.745059 171.604025 
L 1023.154299 170.835683 
L 1023.768158 169.240725 
L 1023.972778 169.039804 
L 1024.177397 169.186469 
L 1024.586637 170.62199 
L 1024.995876 172.318698 
L 1025.200496 172.639728 
L 1025.405116 172.533698 
L 1026.223595 171.296747 
L 1026.428214 171.307265 
L 1026.632834 171.648743 
L 1027.042074 173.609481 
L 1027.451313 175.787669 
L 1027.655933 176.290282 
L 1027.860553 176.365183 
L 1028.474412 175.668965 
L 1028.679031 175.857506 
L 1029.292891 177.261113 
L 1029.49751 177.312724 
L 1030.315989 176.271925 
L 1030.725229 176.237496 
L 1031.134468 176.495221 
L 1031.339088 176.658186 
L 1031.543708 176.639829 
L 1031.748327 176.336634 
L 1032.771426 173.451187 
L 1032.976046 173.370669 
L 1033.180665 173.715609 
L 1033.589905 174.812232 
L 1033.794525 174.991725 
L 1033.999144 174.802498 
L 1034.408384 174.050783 
L 1034.613004 173.921201 
L 1035.431482 174.342741 
L 1035.636102 174.678372 
L 1036.454581 176.744291 
L 1036.659201 176.632642 
L 1036.863821 176.025991 
L 1037.47768 173.22482 
L 1037.886919 172.606345 
L 1038.296159 172.170269 
L 1039.114638 170.643842 
L 1039.319257 170.533174 
L 1039.728497 170.618985 
L 1039.933116 170.36629 
L 1040.342356 168.883928 
L 1040.751595 167.623392 
L 1040.956215 167.487539 
L 1041.160835 167.594451 
L 1041.570074 168.397287 
L 1041.979314 169.131821 
L 1042.183933 169.001913 
L 1042.593173 168.230109 
L 1042.797793 168.124503 
L 1043.002412 168.372135 
L 1043.411652 169.245037 
L 1043.616272 169.395034 
L 1044.025511 169.295668 
L 1044.230131 169.42489 
L 1044.63937 170.49218 
L 1045.04861 171.633782 
L 1045.867089 173.074235 
L 1046.480948 175.356885 
L 1046.890187 176.630421 
L 1047.094807 176.698168 
L 1047.504046 175.976504 
L 1048.117906 174.875406 
L 1048.527145 174.696827 
L 1048.936384 174.555029 
L 1049.345624 173.7812 
L 1049.754863 172.960235 
L 1050.164103 172.758726 
L 1050.573342 172.675725 
L 1050.777962 172.490156 
L 1051.596441 170.847932 
L 1051.801061 171.013053 
L 1052.619539 172.301125 
L 1053.028779 172.735305 
L 1053.438018 173.674549 
L 1053.847258 174.856689 
L 1054.051878 175.004399 
L 1054.256497 174.97193 
L 1054.461117 175.103504 
L 1054.665737 175.625129 
L 1055.279596 178.100828 
L 1055.484216 178.405133 
L 1055.688835 178.358684 
L 1055.893455 178.000841 
L 1056.711934 175.843036 
L 1056.916554 175.941357 
L 1057.530413 176.768659 
L 1057.735033 176.651817 
L 1058.144272 175.576164 
L 1058.553512 174.205026 
L 1058.758131 173.970689 
L 1058.962751 174.214564 
L 1059.37199 175.062869 
L 1059.57661 175.096187 
L 1059.78123 174.847739 
L 1060.599709 173.157335 
L 1060.804329 173.207344 
L 1061.213568 173.812362 
L 1062.032047 175.607 
L 1062.441286 175.947432 
L 1063.259765 176.418361 
L 1063.669005 176.881483 
L 1064.078244 177.455502 
L 1064.282864 177.529291 
L 1064.487484 177.323862 
L 1064.896723 175.969841 
L 1065.305963 174.663444 
L 1065.510582 174.555781 
L 1065.919822 175.153351 
L 1066.329061 175.776399 
L 1067.55678 177.115102 
L 1067.761399 177.050458 
L 1068.375258 176.445016 
L 1068.784498 176.592367 
L 1068.989118 176.506589 
L 1069.398357 175.918785 
L 1069.807597 175.266828 
L 1070.012216 175.249026 
L 1070.421456 175.604811 
L 1070.626075 175.636202 
L 1070.830695 175.519817 
L 1071.444554 174.71231 
L 1071.649174 174.723874 
L 1072.058414 175.151326 
L 1072.263033 175.060485 
L 1072.467653 174.554997 
L 1072.876892 172.509167 
L 1073.695371 167.735661 
L 1073.899991 167.801089 
L 1075.127709 171.962064 
L 1075.946188 175.555161 
L 1076.560048 177.117617 
L 1076.969287 178.621962 
L 1077.173907 179.002899 
L 1077.378526 178.972456 
L 1078.197005 177.606772 
L 1078.401625 177.876943 
L 1078.810865 178.773984 
L 1079.015484 178.93659 
L 1079.220104 178.745108 
L 1080.038583 176.898175 
L 1080.243203 177.227861 
L 1080.857062 179.006329 
L 1081.061682 179.010935 
L 1081.675541 178.395889 
L 1082.49402 178.754549 
L 1083.312499 177.208915 
L 1083.926358 176.768397 
L 1084.335597 176.418851 
L 1084.540217 176.451222 
L 1084.949456 176.74269 
L 1085.154076 176.740501 
L 1085.767935 176.094065 
L 1086.177175 176.406961 
L 1086.586414 176.58567 
L 1086.995654 176.715382 
L 1088.018752 177.213619 
L 1088.223372 177.142148 
L 1088.427992 176.887852 
L 1089.246471 174.831733 
L 1089.45109 174.961118 
L 1089.86033 176.377138 
L 1090.269569 177.685005 
L 1090.474189 177.789009 
L 1090.883428 177.262322 
L 1091.088048 176.994764 
L 1091.292668 176.988035 
L 1091.497288 177.287931 
L 1092.315766 179.225967 
L 1092.520386 179.377728 
L 1092.725006 179.28055 
L 1092.929626 178.886678 
L 1093.338865 177.018708 
L 1093.952724 173.338592 
L 1094.566583 171.430836 
L 1094.975823 170.679578 
L 1095.180443 170.890886 
L 1096.203541 173.68915 
L 1096.408161 173.77875 
L 1096.8174 173.698068 
L 1097.02202 173.816249 
L 1098.658978 176.218158 
L 1098.863598 176.212965 
L 1099.068217 175.86417 
L 1100.091316 173.214335 
L 1100.295936 172.858615 
L 1100.500556 172.798773 
L 1100.705175 173.150932 
L 1101.523654 175.549673 
L 1101.728274 175.800049 
L 1101.932894 175.768593 
L 1102.955992 173.962261 
L 1103.365232 172.609219 
L 1103.774471 170.927471 
L 1103.979091 170.45615 
L 1104.183711 170.358646 
L 1104.38833 170.624015 
L 1105.616049 173.827388 
L 1105.820668 173.879325 
L 1106.025288 173.627414 
L 1106.639147 172.107488 
L 1107.048387 171.857536 
L 1107.457626 171.652042 
L 1107.662246 171.477187 
L 1107.866866 171.145215 
L 1108.071485 170.451283 
L 1108.685345 166.570834 
L 1109.299204 163.098956 
L 1109.913063 160.757412 
L 1110.117683 160.373143 
L 1110.322302 160.273254 
L 1110.936162 160.565343 
L 1111.345401 159.873371 
L 1111.95926 158.739935 
L 1112.16388 158.325484 
L 1112.3685 157.494262 
L 1112.777739 153.947713 
L 1113.800838 142.733196 
L 1114.414697 137.895014 
L 1115.028556 129.795479 
L 1115.847035 116.411431 
L 1117.893232 79.061894 
L 1119.32557 51.201224 
L 1119.73481 36.747991 
L 1120.144049 14.621336 
L 1120.360259 -1 
M 1125.790112 -1 
L 1126.282641 27.628824 
L 1127.714979 86.410628 
L 1128.533458 113.23615 
L 1129.351937 132.057289 
L 1130.988895 158.29161 
L 1131.602754 164.672322 
L 1132.011993 167.280771 
L 1132.625853 169.436976 
L 1133.035092 169.915678 
L 1133.239712 170.03631 
L 1133.648951 170.729555 
L 1134.058191 171.991625 
L 1134.46743 174.053592 
L 1135.695149 181.972457 
L 1135.899768 182.205782 
L 1136.104388 182.090769 
L 1136.718247 181.24315 
L 1136.922867 181.21545 
L 1137.536726 181.690462 
L 1138.764444 180.907225 
L 1139.378304 179.191865 
L 1139.582923 179.175206 
L 1139.992163 180.384915 
L 1141.424501 185.469912 
L 1142.03836 186.944826 
L 1142.24298 187.01352 
L 1142.652219 186.698305 
L 1142.856839 186.72607 
L 1143.266078 187.426371 
L 1143.675318 188.070586 
L 1144.084557 188.153588 
L 1144.493797 188.131539 
L 1145.107656 188.297052 
L 1145.516895 188.097894 
L 1146.335374 187.564968 
L 1146.744614 187.168417 
L 1147.563093 185.699741 
L 1147.767712 185.837097 
L 1148.381572 186.796724 
L 1148.995431 186.508424 
L 1149.40467 187.275786 
L 1149.60929 187.627913 
L 1149.81391 187.64761 
L 1150.223149 186.843598 
L 1150.837008 184.691705 
L 1151.246248 183.333143 
L 1151.450868 183.229824 
L 1151.655487 183.671322 
L 1152.269346 185.972035 
L 1153.701685 188.179556 
L 1154.110924 188.245572 
L 1154.520163 187.825731 
L 1154.929403 187.351568 
L 1155.338642 187.319818 
L 1156.157121 187.664105 
L 1156.77098 187.844448 
L 1157.794079 188.548407 
L 1158.203319 188.186546 
L 1158.612558 187.91814 
L 1158.817178 187.989186 
L 1159.021797 188.208301 
L 1159.431037 189.355457 
L 1160.249516 192.512642 
L 1160.454136 192.88783 
L 1160.658755 192.979226 
L 1160.863375 192.77347 
L 1162.091093 190.44068 
L 1162.500333 190.198111 
L 1162.704953 190.332233 
L 1163.318812 191.504606 
L 1163.932671 191.332723 
L 1164.137291 191.25178 
L 1164.34191 190.924936 
L 1165.365009 188.084175 
L 1165.569629 188.092896 
L 1165.774248 188.444729 
L 1166.388108 189.929541 
L 1166.592727 189.916834 
L 1167.206586 189.071534 
L 1167.615826 189.171162 
L 1167.820446 189.237537 
L 1168.025065 189.165903 
L 1168.638925 188.673906 
L 1168.843544 188.710229 
L 1169.048164 188.877701 
L 1169.457403 189.804075 
L 1169.866643 190.784281 
L 1170.071263 190.909583 
L 1170.275882 190.830175 
L 1171.298981 189.826516 
L 1171.503601 189.912131 
L 1172.11746 190.596295 
L 1172.526699 190.542137 
L 1172.935939 190.294015 
L 1173.345178 190.416606 
L 1173.754418 190.838929 
L 1174.572897 192.192592 
L 1174.777516 192.161266 
L 1175.186756 191.73633 
L 1175.391376 191.695074 
L 1175.595995 191.882766 
L 1176.005235 192.519044 
L 1176.209854 192.551513 
L 1176.619094 191.871562 
L 1177.437573 190.595675 
L 1178.256052 189.437772 
L 1178.460671 189.285228 
L 1178.665291 189.359703 
L 1178.869911 189.736525 
L 1179.89301 192.640623 
L 1180.097629 192.421605 
L 1180.506869 191.785131 
L 1181.120728 191.730026 
L 1182.143827 190.524269 
L 1182.553066 189.149244 
L 1182.962305 187.704806 
L 1183.166925 187.408863 
L 1183.371545 187.493268 
L 1183.780784 188.509406 
L 1184.599263 190.780917 
L 1184.803883 190.99007 
L 1184.803883 190.99007 
" clip-path="url(#p614fab978d)" style="fill: none; stroke: #000000; stroke-width: 2; stroke-linecap: square"/>
   </g>
   <g id="patch_3">
    <path d="M 3.00024 198.907885 
L 1184.99976 198.907885 
" style="fill: none; stroke: #000000; stroke-width: 2; stroke-linejoin: miter; stroke-linecap: square"/>
   </g>
  </g>
 </g>
 <defs>
  <clipPath id="p614fab978d">
   <rect x="3.00024" y="3.00024" width="1181.99952" height="195.907645"/>
  </clipPath>
 </defs>
</svg>
