<?xml version="1.0" encoding="utf-8" standalone="no"?>
<!DOCTYPE svg PUBLIC "-//W3C//DTD SVG 1.1//EN"
  "http://www.w3.org/Graphics/SVG/1.1/DTD/svg11.dtd">
<svg xmlns:xlink="http://www.w3.org/1999/xlink" width="1188pt" height="252pt" viewBox="0 0 1188 252" xmlns="http://www.w3.org/2000/svg" version="1.1">
 <metadata>
  <rdf:RDF xmlns:dc="http://purl.org/dc/elements/1.1/" xmlns:cc="http://creativecommons.org/ns#" xmlns:rdf="http://www.w3.org/1999/02/22-rdf-syntax-ns#">
   <cc:Work>
    <dc:type rdf:resource="http://purl.org/dc/dcmitype/StillImage"/>
    <dc:date>2024-07-23T21:47:06.081589</dc:date>
    <dc:format>image/svg+xml</dc:format>
    <dc:creator>
     <cc:Agent>
      <dc:title>Matplotlib v3.8.4, https://matplotlib.org/</dc:title>
     </cc:Agent>
    </dc:creator>
   </cc:Work>
  </rdf:RDF>
 </metadata>
 <defs>
  <style type="text/css">*{stroke-linejoin: round; stroke-linecap: butt}</style>
 </defs>
 <g id="figure_1">
  <g id="patch_1">
   <path d="M 0 252 
L 1188 252 
L 1188 0 
L 0 0 
z
" style="fill: #ffffff"/>
  </g>
  <g id="axes_1">
   <g id="patch_2">
    <path d="M 3.00024 198.907885 
L 1184.99976 198.907885 
L 1184.99976 3.00024 
L 3.00024 3.00024 
z
" style="fill: #ffffff"/>
   </g>
   <g id="matplotlib.axis_1">
    <g id="xtick_1">
     <g id="line2d_1">
      <defs>
       <path id="m2f57c4217c" d="M 0 0 
L 0 8 
" style="stroke: #000000; stroke-width: 2"/>
      </defs>
      <g>
       <use xlink:href="#m2f57c4217c" x="1131.272509" y="198.907885" style="stroke: #000000; stroke-width: 2"/>
      </g>
     </g>
     <g id="text_1">
      <!-- 0 -->
      <g transform="translate(1126.267665 224.791947) scale(0.18 -0.18)">
       <defs>
        <path id="Arial-BoldMT-30" d="M 1756 4600 
Q 2422 4600 2797 4125 
Q 3244 3563 3244 2259 
Q 3244 959 2794 391 
Q 2422 -78 1756 -78 
Q 1088 -78 678 436 
Q 269 950 269 2269 
Q 269 3563 719 4131 
Q 1091 4600 1756 4600 
z
M 1756 3872 
Q 1597 3872 1472 3770 
Q 1347 3669 1278 3406 
Q 1188 3066 1188 2259 
Q 1188 1453 1269 1151 
Q 1350 850 1473 750 
Q 1597 650 1756 650 
Q 1916 650 2041 751 
Q 2166 853 2234 1116 
Q 2325 1453 2325 2259 
Q 2325 3066 2244 3367 
Q 2163 3669 2039 3770 
Q 1916 3872 1756 3872 
z
" transform="scale(0.015625)"/>
       </defs>
       <use xlink:href="#Arial-BoldMT-30"/>
      </g>
     </g>
    </g>
    <g id="xtick_2">
     <g id="line2d_2">
      <g>
       <use xlink:href="#m2f57c4217c" x="1023.818007" y="198.907885" style="stroke: #000000; stroke-width: 2"/>
      </g>
     </g>
     <g id="text_2">
      <!-- 1 -->
      <g transform="translate(1018.813164 224.791947) scale(0.18 -0.18)">
       <defs>
        <path id="Arial-BoldMT-31" d="M 2519 0 
L 1641 0 
L 1641 3309 
Q 1159 2859 506 2644 
L 506 3441 
Q 850 3553 1253 3867 
Q 1656 4181 1806 4600 
L 2519 4600 
L 2519 0 
z
" transform="scale(0.015625)"/>
       </defs>
       <use xlink:href="#Arial-BoldMT-31"/>
      </g>
     </g>
    </g>
    <g id="xtick_3">
     <g id="line2d_3">
      <g>
       <use xlink:href="#m2f57c4217c" x="916.363505" y="198.907885" style="stroke: #000000; stroke-width: 2"/>
      </g>
     </g>
     <g id="text_3">
      <!-- 2 -->
      <g transform="translate(911.358662 224.791947) scale(0.18 -0.18)">
       <defs>
        <path id="Arial-BoldMT-32" d="M 3238 816 
L 3238 0 
L 159 0 
Q 209 463 459 877 
Q 709 1291 1447 1975 
Q 2041 2528 2175 2725 
Q 2356 2997 2356 3263 
Q 2356 3556 2198 3714 
Q 2041 3872 1763 3872 
Q 1488 3872 1325 3706 
Q 1163 3541 1138 3156 
L 263 3244 
Q 341 3969 753 4284 
Q 1166 4600 1784 4600 
Q 2463 4600 2850 4234 
Q 3238 3869 3238 3325 
Q 3238 3016 3127 2736 
Q 3016 2456 2775 2150 
Q 2616 1947 2200 1565 
Q 1784 1184 1673 1059 
Q 1563 934 1494 816 
L 3238 816 
z
" transform="scale(0.015625)"/>
       </defs>
       <use xlink:href="#Arial-BoldMT-32"/>
      </g>
     </g>
    </g>
    <g id="xtick_4">
     <g id="line2d_4">
      <g>
       <use xlink:href="#m2f57c4217c" x="808.909004" y="198.907885" style="stroke: #000000; stroke-width: 2"/>
      </g>
     </g>
     <g id="text_4">
      <!-- 3 -->
      <g transform="translate(803.90416 224.791947) scale(0.18 -0.18)">
       <defs>
        <path id="Arial-BoldMT-33" d="M 241 1216 
L 1091 1319 
Q 1131 994 1309 822 
Q 1488 650 1741 650 
Q 2013 650 2198 856 
Q 2384 1063 2384 1413 
Q 2384 1744 2206 1937 
Q 2028 2131 1772 2131 
Q 1603 2131 1369 2066 
L 1466 2781 
Q 1822 2772 2009 2936 
Q 2197 3100 2197 3372 
Q 2197 3603 2059 3740 
Q 1922 3878 1694 3878 
Q 1469 3878 1309 3722 
Q 1150 3566 1116 3266 
L 306 3403 
Q 391 3819 561 4067 
Q 731 4316 1036 4458 
Q 1341 4600 1719 4600 
Q 2366 4600 2756 4188 
Q 3078 3850 3078 3425 
Q 3078 2822 2419 2463 
Q 2813 2378 3048 2084 
Q 3284 1791 3284 1375 
Q 3284 772 2843 347 
Q 2403 -78 1747 -78 
Q 1125 -78 715 280 
Q 306 638 241 1216 
z
" transform="scale(0.015625)"/>
       </defs>
       <use xlink:href="#Arial-BoldMT-33"/>
      </g>
     </g>
    </g>
    <g id="xtick_5">
     <g id="line2d_5">
      <g>
       <use xlink:href="#m2f57c4217c" x="701.454502" y="198.907885" style="stroke: #000000; stroke-width: 2"/>
      </g>
     </g>
     <g id="text_5">
      <!-- 4 -->
      <g transform="translate(696.449658 224.791947) scale(0.18 -0.18)">
       <defs>
        <path id="Arial-BoldMT-34" d="M 1994 0 
L 1994 922 
L 119 922 
L 119 1691 
L 2106 4600 
L 2844 4600 
L 2844 1694 
L 3413 1694 
L 3413 922 
L 2844 922 
L 2844 0 
L 1994 0 
z
M 1994 1694 
L 1994 3259 
L 941 1694 
L 1994 1694 
z
" transform="scale(0.015625)"/>
       </defs>
       <use xlink:href="#Arial-BoldMT-34"/>
      </g>
     </g>
    </g>
    <g id="xtick_6">
     <g id="line2d_6">
      <g>
       <use xlink:href="#m2f57c4217c" x="594" y="198.907885" style="stroke: #000000; stroke-width: 2"/>
      </g>
     </g>
     <g id="text_6">
      <!-- 5 -->
      <g transform="translate(588.995156 224.791947) scale(0.18 -0.18)">
       <defs>
        <path id="Arial-BoldMT-35" d="M 284 1178 
L 1159 1269 
Q 1197 972 1381 798 
Q 1566 625 1806 625 
Q 2081 625 2272 848 
Q 2463 1072 2463 1522 
Q 2463 1944 2273 2155 
Q 2084 2366 1781 2366 
Q 1403 2366 1103 2031 
L 391 2134 
L 841 4519 
L 3163 4519 
L 3163 3697 
L 1506 3697 
L 1369 2919 
Q 1663 3066 1969 3066 
Q 2553 3066 2959 2641 
Q 3366 2216 3366 1538 
Q 3366 972 3038 528 
Q 2591 -78 1797 -78 
Q 1163 -78 763 262 
Q 363 603 284 1178 
z
" transform="scale(0.015625)"/>
       </defs>
       <use xlink:href="#Arial-BoldMT-35"/>
      </g>
     </g>
    </g>
    <g id="xtick_7">
     <g id="line2d_7">
      <g>
       <use xlink:href="#m2f57c4217c" x="486.545498" y="198.907885" style="stroke: #000000; stroke-width: 2"/>
      </g>
     </g>
     <g id="text_7">
      <!-- 6 -->
      <g transform="translate(481.540654 224.791947) scale(0.18 -0.18)">
       <defs>
        <path id="Arial-BoldMT-36" d="M 3247 3459 
L 2397 3366 
Q 2366 3628 2234 3753 
Q 2103 3878 1894 3878 
Q 1616 3878 1423 3628 
Q 1231 3378 1181 2588 
Q 1509 2975 1997 2975 
Q 2547 2975 2939 2556 
Q 3331 2138 3331 1475 
Q 3331 772 2918 347 
Q 2506 -78 1859 -78 
Q 1166 -78 719 461 
Q 272 1000 272 2228 
Q 272 3488 737 4044 
Q 1203 4600 1947 4600 
Q 2469 4600 2811 4308 
Q 3153 4016 3247 3459 
z
M 1256 1544 
Q 1256 1116 1453 883 
Q 1650 650 1903 650 
Q 2147 650 2309 840 
Q 2472 1031 2472 1466 
Q 2472 1913 2297 2120 
Q 2122 2328 1859 2328 
Q 1606 2328 1431 2129 
Q 1256 1931 1256 1544 
z
" transform="scale(0.015625)"/>
       </defs>
       <use xlink:href="#Arial-BoldMT-36"/>
      </g>
     </g>
    </g>
    <g id="xtick_8">
     <g id="line2d_8">
      <g>
       <use xlink:href="#m2f57c4217c" x="379.090996" y="198.907885" style="stroke: #000000; stroke-width: 2"/>
      </g>
     </g>
     <g id="text_8">
      <!-- 7 -->
      <g transform="translate(374.086153 224.791947) scale(0.18 -0.18)">
       <defs>
        <path id="Arial-BoldMT-37" d="M 272 3703 
L 272 4519 
L 3275 4519 
L 3275 3881 
Q 2903 3516 2518 2831 
Q 2134 2147 1932 1376 
Q 1731 606 1734 0 
L 888 0 
Q 909 950 1279 1937 
Q 1650 2925 2269 3703 
L 272 3703 
z
" transform="scale(0.015625)"/>
       </defs>
       <use xlink:href="#Arial-BoldMT-37"/>
      </g>
     </g>
    </g>
    <g id="xtick_9">
     <g id="line2d_9">
      <g>
       <use xlink:href="#m2f57c4217c" x="271.636495" y="198.907885" style="stroke: #000000; stroke-width: 2"/>
      </g>
     </g>
     <g id="text_9">
      <!-- 8 -->
      <g transform="translate(266.631651 224.791947) scale(0.18 -0.18)">
       <defs>
        <path id="Arial-BoldMT-38" d="M 1025 2472 
Q 684 2616 529 2867 
Q 375 3119 375 3419 
Q 375 3931 733 4265 
Q 1091 4600 1750 4600 
Q 2403 4600 2764 4265 
Q 3125 3931 3125 3419 
Q 3125 3100 2959 2851 
Q 2794 2603 2494 2472 
Q 2875 2319 3073 2025 
Q 3272 1731 3272 1347 
Q 3272 713 2867 316 
Q 2463 -81 1791 -81 
Q 1166 -81 750 247 
Q 259 634 259 1309 
Q 259 1681 443 1992 
Q 628 2303 1025 2472 
z
M 1206 3356 
Q 1206 3094 1354 2947 
Q 1503 2800 1750 2800 
Q 2000 2800 2150 2948 
Q 2300 3097 2300 3359 
Q 2300 3606 2151 3754 
Q 2003 3903 1759 3903 
Q 1506 3903 1356 3753 
Q 1206 3603 1206 3356 
z
M 1125 1394 
Q 1125 1031 1311 828 
Q 1497 625 1775 625 
Q 2047 625 2225 820 
Q 2403 1016 2403 1384 
Q 2403 1706 2222 1901 
Q 2041 2097 1763 2097 
Q 1441 2097 1283 1875 
Q 1125 1653 1125 1394 
z
" transform="scale(0.015625)"/>
       </defs>
       <use xlink:href="#Arial-BoldMT-38"/>
      </g>
     </g>
    </g>
    <g id="xtick_10">
     <g id="line2d_10">
      <g>
       <use xlink:href="#m2f57c4217c" x="164.181993" y="198.907885" style="stroke: #000000; stroke-width: 2"/>
      </g>
     </g>
     <g id="text_10">
      <!-- 9 -->
      <g transform="translate(159.177149 224.791947) scale(0.18 -0.18)">
       <defs>
        <path id="Arial-BoldMT-39" d="M 291 1059 
L 1141 1153 
Q 1172 894 1303 769 
Q 1434 644 1650 644 
Q 1922 644 2112 894 
Q 2303 1144 2356 1931 
Q 2025 1547 1528 1547 
Q 988 1547 595 1964 
Q 203 2381 203 3050 
Q 203 3747 617 4173 
Q 1031 4600 1672 4600 
Q 2369 4600 2816 4061 
Q 3263 3522 3263 2288 
Q 3263 1031 2797 475 
Q 2331 -81 1584 -81 
Q 1047 -81 715 205 
Q 384 491 291 1059 
z
M 2278 2978 
Q 2278 3403 2083 3637 
Q 1888 3872 1631 3872 
Q 1388 3872 1227 3680 
Q 1066 3488 1066 3050 
Q 1066 2606 1241 2398 
Q 1416 2191 1678 2191 
Q 1931 2191 2104 2391 
Q 2278 2591 2278 2978 
z
" transform="scale(0.015625)"/>
       </defs>
       <use xlink:href="#Arial-BoldMT-39"/>
      </g>
     </g>
    </g>
    <g id="xtick_11">
     <g id="line2d_11">
      <g>
       <use xlink:href="#m2f57c4217c" x="56.727491" y="198.907885" style="stroke: #000000; stroke-width: 2"/>
      </g>
     </g>
     <g id="text_11">
      <!-- 10 -->
      <g transform="translate(46.717803 224.791947) scale(0.18 -0.18)">
       <use xlink:href="#Arial-BoldMT-31"/>
       <use xlink:href="#Arial-BoldMT-30" x="55.615234"/>
      </g>
     </g>
    </g>
    <g id="text_12">
     <!-- Chemical Shift / ppm -->
     <g transform="translate(504.992813 245.447573) scale(0.18 -0.18)">
      <defs>
       <path id="Arial-BoldMT-43" d="M 3397 1684 
L 4294 1400 
Q 4088 650 3608 286 
Q 3128 -78 2391 -78 
Q 1478 -78 890 545 
Q 303 1169 303 2250 
Q 303 3394 893 4026 
Q 1484 4659 2447 4659 
Q 3288 4659 3813 4163 
Q 4125 3869 4281 3319 
L 3366 3100 
Q 3284 3456 3026 3662 
Q 2769 3869 2400 3869 
Q 1891 3869 1573 3503 
Q 1256 3138 1256 2319 
Q 1256 1450 1568 1081 
Q 1881 713 2381 713 
Q 2750 713 3015 947 
Q 3281 1181 3397 1684 
z
" transform="scale(0.015625)"/>
       <path id="Arial-BoldMT-68" d="M 1334 4581 
L 1334 2897 
Q 1759 3394 2350 3394 
Q 2653 3394 2897 3281 
Q 3141 3169 3264 2994 
Q 3388 2819 3433 2606 
Q 3478 2394 3478 1947 
L 3478 0 
L 2600 0 
L 2600 1753 
Q 2600 2275 2550 2415 
Q 2500 2556 2373 2639 
Q 2247 2722 2056 2722 
Q 1838 2722 1666 2615 
Q 1494 2509 1414 2295 
Q 1334 2081 1334 1663 
L 1334 0 
L 456 0 
L 456 4581 
L 1334 4581 
z
" transform="scale(0.015625)"/>
       <path id="Arial-BoldMT-65" d="M 2381 1056 
L 3256 909 
Q 3088 428 2723 176 
Q 2359 -75 1813 -75 
Q 947 -75 531 491 
Q 203 944 203 1634 
Q 203 2459 634 2926 
Q 1066 3394 1725 3394 
Q 2466 3394 2894 2905 
Q 3322 2416 3303 1406 
L 1103 1406 
Q 1113 1016 1316 798 
Q 1519 581 1822 581 
Q 2028 581 2168 693 
Q 2309 806 2381 1056 
z
M 2431 1944 
Q 2422 2325 2234 2523 
Q 2047 2722 1778 2722 
Q 1491 2722 1303 2513 
Q 1116 2303 1119 1944 
L 2431 1944 
z
" transform="scale(0.015625)"/>
       <path id="Arial-BoldMT-6d" d="M 394 3319 
L 1203 3319 
L 1203 2866 
Q 1638 3394 2238 3394 
Q 2556 3394 2790 3262 
Q 3025 3131 3175 2866 
Q 3394 3131 3647 3262 
Q 3900 3394 4188 3394 
Q 4553 3394 4806 3245 
Q 5059 3097 5184 2809 
Q 5275 2597 5275 2122 
L 5275 0 
L 4397 0 
L 4397 1897 
Q 4397 2391 4306 2534 
Q 4184 2722 3931 2722 
Q 3747 2722 3584 2609 
Q 3422 2497 3350 2280 
Q 3278 2063 3278 1594 
L 3278 0 
L 2400 0 
L 2400 1819 
Q 2400 2303 2353 2443 
Q 2306 2584 2207 2653 
Q 2109 2722 1941 2722 
Q 1738 2722 1575 2612 
Q 1413 2503 1342 2297 
Q 1272 2091 1272 1613 
L 1272 0 
L 394 0 
L 394 3319 
z
" transform="scale(0.015625)"/>
       <path id="Arial-BoldMT-69" d="M 459 3769 
L 459 4581 
L 1338 4581 
L 1338 3769 
L 459 3769 
z
M 459 0 
L 459 3319 
L 1338 3319 
L 1338 0 
L 459 0 
z
" transform="scale(0.015625)"/>
       <path id="Arial-BoldMT-63" d="M 3353 2338 
L 2488 2181 
Q 2444 2441 2289 2572 
Q 2134 2703 1888 2703 
Q 1559 2703 1364 2476 
Q 1169 2250 1169 1719 
Q 1169 1128 1367 884 
Q 1566 641 1900 641 
Q 2150 641 2309 783 
Q 2469 925 2534 1272 
L 3397 1125 
Q 3263 531 2881 228 
Q 2500 -75 1859 -75 
Q 1131 -75 698 384 
Q 266 844 266 1656 
Q 266 2478 700 2936 
Q 1134 3394 1875 3394 
Q 2481 3394 2839 3133 
Q 3197 2872 3353 2338 
z
" transform="scale(0.015625)"/>
       <path id="Arial-BoldMT-61" d="M 1116 2306 
L 319 2450 
Q 453 2931 781 3162 
Q 1109 3394 1756 3394 
Q 2344 3394 2631 3255 
Q 2919 3116 3036 2902 
Q 3153 2688 3153 2116 
L 3144 1091 
Q 3144 653 3186 445 
Q 3228 238 3344 0 
L 2475 0 
Q 2441 88 2391 259 
Q 2369 338 2359 363 
Q 2134 144 1878 34 
Q 1622 -75 1331 -75 
Q 819 -75 523 203 
Q 228 481 228 906 
Q 228 1188 362 1408 
Q 497 1628 739 1745 
Q 981 1863 1438 1950 
Q 2053 2066 2291 2166 
L 2291 2253 
Q 2291 2506 2166 2614 
Q 2041 2722 1694 2722 
Q 1459 2722 1328 2630 
Q 1197 2538 1116 2306 
z
M 2291 1594 
Q 2122 1538 1756 1459 
Q 1391 1381 1278 1306 
Q 1106 1184 1106 997 
Q 1106 813 1243 678 
Q 1381 544 1594 544 
Q 1831 544 2047 700 
Q 2206 819 2256 991 
Q 2291 1103 2291 1419 
L 2291 1594 
z
" transform="scale(0.015625)"/>
       <path id="Arial-BoldMT-6c" d="M 459 0 
L 459 4581 
L 1338 4581 
L 1338 0 
L 459 0 
z
" transform="scale(0.015625)"/>
       <path id="Arial-BoldMT-20" transform="scale(0.015625)"/>
       <path id="Arial-BoldMT-53" d="M 231 1491 
L 1131 1578 
Q 1213 1125 1461 912 
Q 1709 700 2131 700 
Q 2578 700 2804 889 
Q 3031 1078 3031 1331 
Q 3031 1494 2936 1608 
Q 2841 1722 2603 1806 
Q 2441 1863 1863 2006 
Q 1119 2191 819 2459 
Q 397 2838 397 3381 
Q 397 3731 595 4036 
Q 794 4341 1167 4500 
Q 1541 4659 2069 4659 
Q 2931 4659 3367 4281 
Q 3803 3903 3825 3272 
L 2900 3231 
Q 2841 3584 2645 3739 
Q 2450 3894 2059 3894 
Q 1656 3894 1428 3728 
Q 1281 3622 1281 3444 
Q 1281 3281 1419 3166 
Q 1594 3019 2269 2859 
Q 2944 2700 3267 2529 
Q 3591 2359 3773 2064 
Q 3956 1769 3956 1334 
Q 3956 941 3737 597 
Q 3519 253 3119 86 
Q 2719 -81 2122 -81 
Q 1253 -81 787 320 
Q 322 722 231 1491 
z
" transform="scale(0.015625)"/>
       <path id="Arial-BoldMT-66" d="M 75 3319 
L 563 3319 
L 563 3569 
Q 563 3988 652 4194 
Q 741 4400 980 4529 
Q 1219 4659 1584 4659 
Q 1959 4659 2319 4547 
L 2200 3934 
Q 1991 3984 1797 3984 
Q 1606 3984 1523 3895 
Q 1441 3806 1441 3553 
L 1441 3319 
L 2097 3319 
L 2097 2628 
L 1441 2628 
L 1441 0 
L 563 0 
L 563 2628 
L 75 2628 
L 75 3319 
z
" transform="scale(0.015625)"/>
       <path id="Arial-BoldMT-74" d="M 1981 3319 
L 1981 2619 
L 1381 2619 
L 1381 1281 
Q 1381 875 1398 808 
Q 1416 741 1477 697 
Q 1538 653 1625 653 
Q 1747 653 1978 738 
L 2053 56 
Q 1747 -75 1359 -75 
Q 1122 -75 931 4 
Q 741 84 652 211 
Q 563 338 528 553 
Q 500 706 500 1172 
L 500 2619 
L 97 2619 
L 97 3319 
L 500 3319 
L 500 3978 
L 1381 4491 
L 1381 3319 
L 1981 3319 
z
" transform="scale(0.015625)"/>
       <path id="Arial-BoldMT-2f" d="M -9 -78 
L 1125 4659 
L 1784 4659 
L 638 -78 
L -9 -78 
z
" transform="scale(0.015625)"/>
       <path id="Arial-BoldMT-70" d="M 434 3319 
L 1253 3319 
L 1253 2831 
Q 1413 3081 1684 3237 
Q 1956 3394 2288 3394 
Q 2866 3394 3269 2941 
Q 3672 2488 3672 1678 
Q 3672 847 3265 386 
Q 2859 -75 2281 -75 
Q 2006 -75 1782 34 
Q 1559 144 1313 409 
L 1313 -1263 
L 434 -1263 
L 434 3319 
z
M 1303 1716 
Q 1303 1156 1525 889 
Q 1747 622 2066 622 
Q 2372 622 2575 867 
Q 2778 1113 2778 1672 
Q 2778 2194 2568 2447 
Q 2359 2700 2050 2700 
Q 1728 2700 1515 2451 
Q 1303 2203 1303 1716 
z
" transform="scale(0.015625)"/>
      </defs>
      <use xlink:href="#Arial-BoldMT-43"/>
      <use xlink:href="#Arial-BoldMT-68" x="72.216797"/>
      <use xlink:href="#Arial-BoldMT-65" x="133.300781"/>
      <use xlink:href="#Arial-BoldMT-6d" x="188.916016"/>
      <use xlink:href="#Arial-BoldMT-69" x="277.832031"/>
      <use xlink:href="#Arial-BoldMT-63" x="305.615234"/>
      <use xlink:href="#Arial-BoldMT-61" x="361.230469"/>
      <use xlink:href="#Arial-BoldMT-6c" x="416.845703"/>
      <use xlink:href="#Arial-BoldMT-20" x="444.628906"/>
      <use xlink:href="#Arial-BoldMT-53" x="472.412109"/>
      <use xlink:href="#Arial-BoldMT-68" x="539.111328"/>
      <use xlink:href="#Arial-BoldMT-69" x="600.195312"/>
      <use xlink:href="#Arial-BoldMT-66" x="627.978516"/>
      <use xlink:href="#Arial-BoldMT-74" x="661.279297"/>
      <use xlink:href="#Arial-BoldMT-20" x="694.580078"/>
      <use xlink:href="#Arial-BoldMT-2f" x="722.363281"/>
      <use xlink:href="#Arial-BoldMT-20" x="750.146484"/>
      <use xlink:href="#Arial-BoldMT-70" x="777.929688"/>
      <use xlink:href="#Arial-BoldMT-70" x="839.013672"/>
      <use xlink:href="#Arial-BoldMT-6d" x="900.097656"/>
     </g>
    </g>
   </g>
   <g id="matplotlib.axis_2"/>
   <g id="line2d_12">
    <path d="M 3.063833 186.756921 
L 3.473072 186.619454 
L 3.677692 186.681707 
L 4.086931 187.194441 
L 5.11003 189.071802 
L 5.519269 189.322131 
L 5.723889 189.304036 
L 5.928509 189.057014 
L 6.746988 187.416528 
L 6.951608 187.451342 
L 7.770086 188.175812 
L 8.588565 188.254209 
L 9.407044 188.495541 
L 10.225523 188.151863 
L 10.634763 188.57552 
L 12.27172 191.31907 
L 12.47634 191.410324 
L 12.68096 191.258459 
L 13.908678 189.531854 
L 14.317918 189.405005 
L 15.341016 189.446042 
L 15.545636 189.403588 
L 15.750256 189.478206 
L 16.159495 190.158086 
L 17.182594 192.942775 
L 17.387214 192.83891 
L 17.796453 191.940044 
L 18.205693 190.906648 
L 18.410312 190.718059 
L 18.614932 190.802043 
L 19.024171 191.178994 
L 19.228791 191.214157 
L 19.433411 191.0969 
L 19.84265 190.530498 
L 20.661129 189.259877 
L 20.865749 189.140197 
L 21.070369 189.206722 
L 22.093467 190.362756 
L 22.298087 190.331414 
L 23.116566 189.705469 
L 23.525805 190.216355 
L 24.139665 191.102651 
L 24.344284 191.17809 
L 24.548904 191.088972 
L 24.958144 190.413426 
L 25.367383 189.703867 
L 25.776622 189.426838 
L 26.185862 189.33622 
L 26.595101 189.635473 
L 27.004341 190.287358 
L 27.82282 191.845873 
L 28.232059 192.178254 
L 28.436679 192.161186 
L 28.641299 191.994595 
L 29.050538 191.136499 
L 29.664397 189.44598 
L 30.278256 188.674826 
L 30.892116 188.07361 
L 31.096735 188.206333 
L 31.505975 189.190106 
L 32.324454 192.130399 
L 32.733693 192.701956 
L 32.938313 192.669381 
L 33.142933 192.425276 
L 33.552172 191.16778 
L 34.166031 188.940805 
L 34.370651 188.673881 
L 34.575271 188.634939 
L 36.212228 189.27255 
L 36.621468 189.217998 
L 37.235327 188.876333 
L 37.439947 188.943537 
L 38.053806 189.440764 
L 38.667665 189.653424 
L 39.895384 191.274952 
L 40.304623 191.348584 
L 40.713862 191.265915 
L 42.146201 191.62662 
L 42.55544 191.717217 
L 43.578539 191.573177 
L 44.192398 191.982518 
L 44.397018 191.795696 
L 45.624736 189.337165 
L 46.033975 189.216869 
L 46.443215 189.572007 
L 47.261694 190.6091 
L 47.670933 191.169977 
L 47.875553 190.968203 
L 48.898652 188.44863 
L 49.103271 188.300812 
L 49.307891 188.341376 
L 49.71713 188.846901 
L 50.33099 190.202799 
L 50.944849 191.66932 
L 51.149469 191.800646 
L 51.558708 191.618897 
L 51.967947 191.280949 
L 52.991046 189.874217 
L 53.400286 189.818721 
L 54.014145 190.015361 
L 54.423384 190.626743 
L 55.037243 191.682198 
L 55.446483 192.01994 
L 56.469581 192.452942 
L 56.878821 192.6678 
L 57.28806 192.579934 
L 57.49268 192.415335 
L 57.6973 192.083282 
L 58.720398 189.46843 
L 59.129638 188.651103 
L 59.948117 186.752135 
L 60.766596 186.243858 
L 60.971215 186.192121 
L 61.175835 186.338974 
L 62.198934 187.849058 
L 62.812793 187.865222 
L 63.222032 188.588726 
L 63.835892 189.824041 
L 64.654371 191.011581 
L 64.85899 190.968039 
L 65.472849 190.42464 
L 65.882089 190.702614 
L 66.291328 190.950047 
L 66.495948 190.925995 
L 66.700568 190.720134 
L 67.314427 189.683308 
L 68.132906 189.340513 
L 68.951385 187.7897 
L 69.156005 187.81751 
L 69.974483 188.794301 
L 70.383723 189.558349 
L 70.997582 190.899295 
L 71.202202 191.02029 
L 72.020681 191.037583 
L 72.63454 190.973132 
L 73.043779 190.819234 
L 73.453019 190.636972 
L 73.657639 190.77602 
L 74.066878 191.751394 
L 74.476117 192.897774 
L 74.680737 193.141612 
L 74.885357 193.102773 
L 75.294596 192.374319 
L 75.703836 191.46658 
L 75.908455 191.288117 
L 76.317695 191.431192 
L 76.726934 191.808348 
L 77.340794 192.648062 
L 77.750033 192.757822 
L 78.159272 192.387258 
L 78.568512 192.041527 
L 79.182371 192.490836 
L 79.386991 192.381425 
L 80.00085 191.653669 
L 80.410089 191.507966 
L 80.819329 191.622676 
L 81.228568 191.761992 
L 81.433188 191.667697 
L 82.047047 190.797237 
L 82.865526 189.83127 
L 83.070146 189.687826 
L 83.274766 189.72266 
L 83.479385 189.999279 
L 84.502484 192.121197 
L 84.707104 192.223193 
L 84.911723 192.168601 
L 85.525583 191.639621 
L 85.730202 191.800995 
L 86.139442 192.647548 
L 86.753301 194.075271 
L 86.957921 194.184456 
L 87.16254 194.024828 
L 87.7764 193.186305 
L 88.594879 192.584966 
L 88.799498 192.722823 
L 89.617977 193.957008 
L 89.822597 193.901163 
L 90.231836 193.373168 
L 90.641076 192.73375 
L 90.845696 192.593942 
L 91.050315 192.642393 
L 91.459555 192.970359 
L 91.664174 192.945609 
L 92.278034 192.134116 
L 92.891893 191.474056 
L 93.301132 191.481019 
L 93.505752 191.516592 
L 93.710372 191.412316 
L 94.324231 190.457523 
L 94.528851 190.47533 
L 95.756569 192.25811 
L 96.370428 193.629001 
L 96.575048 193.742787 
L 96.779668 193.5154 
L 97.393527 192.446513 
L 98.416625 192.161227 
L 98.621245 192.369369 
L 99.030485 193.63428 
L 99.439724 194.823443 
L 99.644344 195.005993 
L 99.848964 194.975349 
L 100.258203 194.513962 
L 100.872062 193.809559 
L 101.281302 193.889579 
L 101.690541 194.080673 
L 102.099781 193.984284 
L 103.122879 192.917841 
L 103.736738 192.347721 
L 103.941358 192.513429 
L 104.555217 193.555657 
L 104.759837 193.578907 
L 105.373696 193.328599 
L 106.396795 193.51158 
L 107.010654 192.801714 
L 107.419893 192.37742 
L 107.829133 192.326114 
L 108.852232 192.806273 
L 109.261471 193.089361 
L 109.67071 193.806868 
L 110.07995 194.56227 
L 110.693809 195.09353 
L 110.898429 195.188666 
L 111.103049 195.103122 
L 112.126147 193.65069 
L 112.535387 193.432136 
L 113.149246 192.944028 
L 113.558485 192.836075 
L 113.763105 192.9079 
L 114.172344 193.452182 
L 114.376964 193.738022 
L 114.581584 193.792738 
L 114.786204 193.542389 
L 115.195443 192.381898 
L 115.809302 190.671046 
L 116.218542 190.12052 
L 116.627781 189.974365 
L 117.037021 190.380954 
L 117.44626 191.242418 
L 118.469359 194.020884 
L 118.878598 194.591497 
L 119.492457 194.986234 
L 119.901697 195.59316 
L 120.310936 196.398122 
L 120.515556 196.591455 
L 120.720176 196.492313 
L 120.924795 196.091886 
L 121.743274 193.792019 
L 121.947894 193.805862 
L 122.970993 194.68043 
L 123.380232 194.681457 
L 123.789472 194.364008 
L 124.198711 193.883068 
L 124.403331 193.922174 
L 124.81257 194.8203 
L 125.22181 195.820279 
L 125.631049 196.143069 
L 125.835669 196.108564 
L 126.040289 195.90299 
L 127.472627 193.234736 
L 128.291106 191.31681 
L 128.904965 190.45588 
L 129.518824 190.027109 
L 129.723444 190.112489 
L 130.132683 191.01764 
L 130.541923 192.00889 
L 130.746542 192.066789 
L 131.155782 191.242788 
L 131.565021 190.584741 
L 131.769641 190.54925 
L 131.974261 190.65291 
L 132.3835 191.296395 
L 132.79274 192.238557 
L 132.997359 192.497162 
L 133.201979 192.545655 
L 133.611218 192.130604 
L 133.815838 191.887772 
L 134.020458 191.859326 
L 134.225078 192.11368 
L 134.838937 193.711178 
L 135.248176 194.561571 
L 135.452796 194.612323 
L 135.657416 194.370847 
L 136.475895 192.530908 
L 136.680514 192.430596 
L 136.885134 192.551467 
L 139.135951 195.941788 
L 139.74981 196.286041 
L 139.95443 196.329214 
L 140.15905 196.239972 
L 141.386768 194.898431 
L 141.591388 194.803808 
L 141.796008 194.85534 
L 142.000627 195.070629 
L 142.409867 196.014475 
L 143.023726 197.626124 
L 143.432965 197.920057 
L 143.842205 198.108214 
L 144.046825 198.078494 
L 144.251444 197.847986 
L 144.660684 196.815761 
L 145.069923 195.731798 
L 145.274543 195.520925 
L 145.479163 195.531482 
L 146.297642 196.102505 
L 147.11612 195.899539 
L 147.32074 196.07527 
L 147.72998 196.838477 
L 148.139219 197.706144 
L 148.343839 197.935153 
L 148.548459 197.963928 
L 148.957698 197.563152 
L 149.776177 196.327838 
L 150.594656 195.779366 
L 151.208515 194.977033 
L 152.231614 192.946369 
L 152.436233 193.010677 
L 153.254712 193.809867 
L 153.663952 193.565351 
L 154.073191 193.380295 
L 154.482431 193.380973 
L 154.89167 193.172523 
L 155.09629 193.206146 
L 155.505529 193.782181 
L 155.914769 194.343325 
L 156.733248 195.066583 
L 157.142487 195.559805 
L 157.347107 195.612508 
L 157.551726 195.422666 
L 158.370205 193.993033 
L 158.574825 194.041238 
L 158.984065 194.578557 
L 159.597924 195.924248 
L 159.802543 196.014044 
L 160.007163 195.757266 
L 160.825642 194.003385 
L 161.234882 193.591826 
L 161.439501 193.533598 
L 161.848741 193.850308 
L 162.25798 194.118773 
L 162.66722 193.907899 
L 163.281079 193.53292 
L 163.894938 193.318863 
L 164.099558 193.110783 
L 164.508797 192.183594 
L 165.736516 187.711509 
L 166.759614 183.369496 
L 168.601192 173.517832 
L 169.010431 172.82261 
L 169.215051 172.803755 
L 169.419671 173.015922 
L 170.442769 174.923517 
L 170.852009 175.280977 
L 171.261248 176.08867 
L 172.079727 178.588299 
L 173.102826 181.465455 
L 173.716685 182.474533 
L 174.330544 183.757353 
L 174.739784 183.976524 
L 176.376741 184.797034 
L 176.581361 184.944278 
L 176.785981 185.26031 
L 177.19522 186.535511 
L 178.013699 189.632289 
L 178.422939 190.206476 
L 178.832178 190.382802 
L 180.264516 191.642763 
L 181.082995 191.600206 
L 181.492235 191.820651 
L 182.106094 192.351603 
L 182.310713 192.319192 
L 182.924573 191.847434 
L 183.333812 191.751476 
L 183.743052 191.942406 
L 184.356911 192.381343 
L 184.97077 192.516181 
L 185.17539 192.516715 
L 185.380009 192.643338 
L 185.584629 193.017454 
L 185.993869 194.557135 
L 186.403108 196.024683 
L 186.607728 196.182134 
L 186.812347 195.962286 
L 187.426207 194.932854 
L 187.630826 194.965613 
L 188.040066 195.254863 
L 188.244686 195.212142 
L 189.267784 194.224014 
L 189.881643 194.32944 
L 190.700122 194.845563 
L 190.904742 194.822252 
L 191.313981 194.442384 
L 191.927841 193.675953 
L 192.950939 192.778689 
L 193.360179 191.947253 
L 194.178658 189.811573 
L 194.792517 187.056296 
L 196.429475 178.753761 
L 199.089531 160.379652 
L 199.49877 158.216984 
L 199.70339 157.661714 
L 199.90801 157.480314 
L 200.11263 157.64479 
L 200.521869 158.910358 
L 201.544968 163.185373 
L 202.158827 164.491464 
L 202.568066 164.774491 
L 202.977306 164.686255 
L 203.386545 164.42728 
L 203.795785 163.859851 
L 204.205024 162.839928 
L 204.614264 161.324135 
L 205.228123 158.021084 
L 206.046602 153.612012 
L 206.660461 151.692792 
L 207.27432 149.999357 
L 208.911278 143.879063 
L 209.525137 141.30917 
L 209.934377 140.511417 
L 210.138996 140.527725 
L 210.957475 141.630132 
L 211.366715 142.233422 
L 211.775954 143.322725 
L 212.185194 145.528011 
L 213.412912 155.00944 
L 214.64063 164.383963 
L 215.254489 167.188678 
L 215.868349 169.417275 
L 217.300687 176.826285 
L 217.914546 178.300343 
L 218.528405 179.290505 
L 218.733025 179.445635 
L 218.937645 179.399669 
L 219.551504 178.576284 
L 220.165363 177.553979 
L 220.983842 175.674934 
L 221.393081 173.91637 
L 222.21156 167.801046 
L 223.439279 159.229081 
L 224.053138 156.400316 
L 225.485476 153.2457 
L 225.894715 152.798834 
L 226.099335 152.886987 
L 226.303955 153.324918 
L 226.713194 155.425024 
L 227.531673 162.855394 
L 228.145532 168.050841 
L 228.554772 170.19527 
L 229.373251 173.019825 
L 229.78249 173.805603 
L 229.98711 173.743863 
L 230.191729 173.339575 
L 230.805589 171.061171 
L 231.419448 167.872974 
L 232.237927 163.531618 
L 233.056406 159.877475 
L 233.465645 159.337486 
L 233.874885 159.012272 
L 234.488744 158.201457 
L 234.693363 158.259253 
L 234.897983 158.664836 
L 235.307223 160.506521 
L 236.330321 166.219836 
L 237.1488 168.802525 
L 238.171899 174.529744 
L 239.604237 178.347337 
L 240.013476 179.08986 
L 240.422716 179.41569 
L 240.627336 179.38293 
L 241.036575 178.760703 
L 241.445814 178.105388 
L 241.650434 178.100397 
L 242.059674 178.663821 
L 242.264293 178.973815 
L 242.468913 179.049953 
L 242.673533 178.751666 
L 243.082772 177.224617 
L 244.51511 171.25512 
L 244.92435 170.172492 
L 245.538209 169.47844 
L 246.561308 168.638521 
L 246.765927 168.56608 
L 246.970547 168.653042 
L 247.175167 168.968479 
L 247.584406 170.302729 
L 248.198265 172.389423 
L 249.016744 174.136773 
L 249.425984 174.587788 
L 250.039843 174.985442 
L 250.449082 175.57035 
L 250.858322 176.51551 
L 252.29066 180.990163 
L 253.109139 184.340988 
L 253.722998 185.763329 
L 254.132238 186.096758 
L 254.541477 185.900776 
L 254.950716 185.520785 
L 255.973815 183.90928 
L 256.383055 182.646669 
L 256.792294 180.584704 
L 258.020012 172.909346 
L 258.633872 171.247212 
L 259.247731 169.774879 
L 259.86159 168.032787 
L 260.06621 167.736287 
L 260.270829 167.758859 
L 260.475449 168.182105 
L 260.884689 170.074439 
L 261.498548 172.763519 
L 261.907787 173.54747 
L 262.521646 174.546237 
L 263.340125 176.6706 
L 263.544745 176.920517 
L 263.749365 176.986386 
L 264.158604 176.701655 
L 264.567844 175.902485 
L 264.977083 174.086227 
L 265.795562 168.366257 
L 266.818661 158.9371 
L 267.43252 153.919151 
L 267.841759 152.196201 
L 268.046379 151.890459 
L 268.250999 151.903501 
L 268.455618 152.239908 
L 268.660238 152.984958 
L 269.069478 156.072679 
L 269.887956 164.503274 
L 270.501816 168.017444 
L 270.911055 169.051333 
L 271.524914 169.400516 
L 272.343393 170.660435 
L 272.957252 170.247213 
L 273.366492 170.563266 
L 273.775731 170.893121 
L 273.980351 170.87593 
L 274.38959 170.412613 
L 275.00345 169.708538 
L 275.208069 169.63277 
L 275.412689 169.817867 
L 275.617309 170.366934 
L 276.640407 174.764094 
L 277.254267 176.034098 
L 278.072746 178.63328 
L 278.686605 179.707568 
L 279.095844 180.036664 
L 279.300464 180.014728 
L 279.505084 179.830699 
L 279.914323 178.941836 
L 281.346661 175.094771 
L 282.57438 170.0821 
L 284.211337 159.107717 
L 285.029816 153.455957 
L 285.848295 148.14348 
L 286.257535 146.945957 
L 286.462154 146.812865 
L 286.871394 146.987713 
L 287.076014 147.177102 
L 287.280633 147.527846 
L 287.485253 148.203453 
L 287.894492 150.634811 
L 289.326831 160.337958 
L 289.94069 163.398444 
L 290.349929 164.266316 
L 290.963788 165.130944 
L 291.373028 165.851224 
L 291.577648 165.973369 
L 291.782267 165.784986 
L 292.191507 164.53246 
L 292.805366 161.275765 
L 293.419225 158.305877 
L 294.646943 153.783532 
L 295.056183 153.145367 
L 295.874662 150.835045 
L 296.079282 150.864909 
L 296.283901 151.347943 
L 296.89776 153.678332 
L 297.10238 154.001984 
L 297.307 153.938786 
L 297.716239 153.066785 
L 298.330099 151.146826 
L 298.943958 148.843303 
L 299.148577 148.532898 
L 299.557817 148.435317 
L 299.762437 148.531748 
L 299.967056 148.848417 
L 300.376296 150.469658 
L 300.990155 154.875875 
L 302.217873 164.4776 
L 302.627113 165.789463 
L 302.831733 166.05612 
L 303.036352 166.101388 
L 303.240972 165.881169 
L 303.650211 164.55228 
L 305.901028 153.90005 
L 306.514888 151.854351 
L 307.333366 148.882162 
L 307.537986 148.583752 
L 307.742606 148.675274 
L 308.151845 149.603449 
L 308.765705 151.066498 
L 309.174944 151.964995 
L 309.584183 153.379716 
L 309.993423 155.652637 
L 311.221141 163.556943 
L 312.653479 168.016171 
L 312.858099 168.104406 
L 313.267339 167.90865 
L 313.471958 167.718233 
L 313.676578 167.360404 
L 314.085817 165.969364 
L 315.722775 158.668307 
L 316.336634 155.826889 
L 316.745874 154.920034 
L 316.950494 154.855521 
L 317.359733 155.313128 
L 317.768973 155.655964 
L 318.382832 155.636288 
L 318.587451 155.56853 
L 318.996691 155.023776 
L 319.40593 154.319044 
L 319.61055 154.208688 
L 319.81517 154.364332 
L 320.224409 155.371171 
L 321.861367 160.827051 
L 323.498325 167.84463 
L 325.135283 171.36032 
L 325.339902 171.277137 
L 325.749142 170.408484 
L 326.158381 169.365127 
L 326.363001 169.125027 
L 326.567621 169.168241 
L 327.18148 169.841261 
L 327.3861 169.815299 
L 327.590719 169.577048 
L 327.999959 168.459812 
L 329.023058 164.730311 
L 329.227677 164.762126 
L 330.046156 166.14339 
L 333.320072 172.813409 
L 333.524692 172.716526 
L 334.138551 171.830066 
L 334.95703 170.229549 
L 335.570889 168.651625 
L 336.184748 165.825529 
L 337.003227 162.411527 
L 337.617086 159.823108 
L 338.026326 157.295587 
L 338.435565 152.90578 
L 338.844804 145.869779 
L 339.458664 130.087662 
L 339.867903 115.212073 
L 340.277143 94.29623 
L 340.891002 49.650627 
L 341.504861 8.502045 
L 341.709481 3.00024 
L 341.9141 3.261454 
L 342.11872 8.598948 
L 343.551058 69.707327 
L 343.960298 75.975501 
L 344.164917 77.243616 
L 344.369537 77.481744 
L 344.574157 76.664439 
L 344.778777 74.73762 
L 345.188016 67.524942 
L 345.597255 55.670835 
L 346.211115 35.77169 
L 346.415734 33.285144 
L 346.620354 34.694977 
L 347.029593 47.699634 
L 348.257312 98.934722 
L 348.871171 116.063535 
L 349.48503 127.990042 
L 350.098889 136.009222 
L 350.712749 141.099427 
L 351.940467 148.069396 
L 354.395904 158.320049 
L 354.600523 158.840526 
L 354.805143 158.974809 
L 355.009763 158.830421 
L 355.419002 158.138217 
L 355.828242 156.910811 
L 356.442101 153.853899 
L 357.4652 147.701194 
L 358.079059 145.298611 
L 358.488298 142.590163 
L 359.306777 134.984842 
L 360.534495 121.696091 
L 361.148355 117.745571 
L 362.580693 110.547578 
L 362.785312 109.955687 
L 362.989932 109.894481 
L 363.194552 110.482737 
L 363.603791 113.475917 
L 364.62689 125.10198 
L 365.445369 132.884552 
L 365.854608 135.059419 
L 366.877707 138.962125 
L 367.286946 139.766018 
L 367.491566 139.950273 
L 367.696186 139.92117 
L 367.900806 139.651555 
L 368.310045 138.449781 
L 368.719285 135.992626 
L 369.128524 131.799973 
L 369.742383 122.304557 
L 370.560862 105.347696 
L 371.379341 88.365161 
L 371.9932 80.264873 
L 372.607059 73.101098 
L 373.016299 65.482694 
L 373.630158 48.629883 
L 374.244017 31.660925 
L 374.448637 28.43812 
L 374.653257 27.04977 
L 374.857876 27.612845 
L 375.062496 30.149074 
L 375.471736 40.245398 
L 376.699454 77.518489 
L 377.313313 89.601358 
L 377.927172 98.081658 
L 378.336412 101.534088 
L 378.745651 103.171555 
L 379.154891 103.84708 
L 379.76875 104.152884 
L 379.97337 104.143005 
L 380.177989 103.854659 
L 380.587229 102.306373 
L 381.405708 98.771663 
L 381.610327 98.532837 
L 381.814947 98.647054 
L 382.224187 99.622591 
L 382.633426 101.360021 
L 383.247285 105.220724 
L 383.861144 108.985243 
L 384.270384 110.511183 
L 384.475003 110.852479 
L 384.679623 110.910892 
L 384.884243 110.684388 
L 385.293482 109.479472 
L 385.702722 107.133823 
L 386.111961 102.871419 
L 387.13506 87.260002 
L 388.158159 70.892444 
L 388.772018 56.023016 
L 389.590497 36.549129 
L 389.795116 34.255115 
L 389.999736 33.628472 
L 390.204356 34.74082 
L 390.613595 41.392723 
L 392.045933 72.264917 
L 393.069032 89.5115 
L 394.092131 106.173402 
L 395.115229 118.964495 
L 395.524469 121.961865 
L 395.729088 122.701841 
L 395.933708 122.951841 
L 396.138328 122.759227 
L 396.547567 121.530691 
L 397.775286 116.887927 
L 398.184525 113.459219 
L 398.798384 106.35055 
L 399.412244 96.942774 
L 400.435342 76.415199 
L 401.049201 65.532953 
L 401.663061 58.806185 
L 402.0723 56.91381 
L 402.27692 56.876984 
L 402.481539 57.422354 
L 402.890779 59.886451 
L 403.504638 66.129383 
L 404.118497 75.992631 
L 405.346216 98.771684 
L 405.960075 106.563436 
L 406.573934 111.318343 
L 408.415512 120.73604 
L 409.23399 122.791268 
L 409.43861 122.956319 
L 409.64323 122.751012 
L 410.666329 120.165858 
L 411.075568 119.557474 
L 411.484807 118.375562 
L 412.098667 116.268719 
L 413.121765 113.755452 
L 413.735624 112.748448 
L 413.940244 112.770261 
L 414.144864 113.164464 
L 414.554103 115.198579 
L 414.963343 118.69412 
L 417.41878 144.104231 
L 418.646498 149.643972 
L 420.692695 156.837487 
L 421.306554 156.998307 
L 421.920414 157.931945 
L 422.125033 157.884767 
L 422.534273 157.61733 
L 422.738892 157.75034 
L 423.148132 158.707146 
L 423.966611 161.541108 
L 424.17123 161.814296 
L 424.37585 161.704988 
L 424.989709 160.688003 
L 425.398949 160.589868 
L 425.603569 160.69858 
L 425.808188 160.938578 
L 426.217428 162.058812 
L 426.831287 164.51151 
L 427.240526 165.249577 
L 427.649766 165.944984 
L 428.468245 167.705725 
L 429.082104 168.642526 
L 429.491343 169.935822 
L 430.105203 172.353624 
L 430.514442 173.079881 
L 430.719062 173.192722 
L 431.128301 173.020215 
L 431.537541 172.810184 
L 431.74216 172.927009 
L 432.1514 173.644825 
L 433.379118 176.287959 
L 433.788358 176.941447 
L 434.402217 177.571047 
L 434.811456 178.052069 
L 435.016076 178.00257 
L 435.425315 177.244868 
L 435.834555 176.436826 
L 436.243794 176.060963 
L 436.448414 176.139237 
L 437.471513 177.618492 
L 437.880752 178.154497 
L 438.289992 178.753227 
L 438.699231 178.994662 
L 438.903851 178.90197 
L 439.31309 178.436044 
L 439.51771 178.387285 
L 439.72233 178.585711 
L 440.540809 179.855593 
L 440.950048 179.913163 
L 441.973147 179.468454 
L 442.791626 178.530585 
L 443.200865 178.504439 
L 443.610105 178.828646 
L 444.019344 179.484454 
L 444.837823 181.727716 
L 445.042443 181.798309 
L 445.451682 181.271341 
L 446.270161 179.863089 
L 446.474781 179.701961 
L 446.6794 179.726896 
L 447.08864 180.311023 
L 447.497879 180.851443 
L 447.907119 180.791778 
L 448.111739 180.771362 
L 448.520978 181.032453 
L 448.930217 181.288286 
L 449.339457 181.392952 
L 449.544077 181.624056 
L 450.157936 183.011687 
L 450.976415 184.820859 
L 451.590274 185.555824 
L 451.999513 185.646339 
L 452.613373 185.385721 
L 452.817992 185.136522 
L 453.227232 183.958553 
L 453.841091 181.903571 
L 454.45495 180.906077 
L 454.86419 180.920844 
L 455.068809 180.902832 
L 455.682668 180.389872 
L 456.705767 180.523416 
L 456.910387 180.744435 
L 457.728866 182.367935 
L 458.138105 182.569915 
L 459.161204 182.17947 
L 459.570443 182.503205 
L 460.184302 183.526639 
L 460.798162 185.101976 
L 461.207401 186.298759 
L 461.412021 186.500759 
L 461.61664 186.343595 
L 462.02588 185.842671 
L 462.435119 185.605631 
L 462.844359 184.798739 
L 463.253598 183.842898 
L 463.458218 183.571024 
L 463.662838 183.530213 
L 464.072077 184.032103 
L 464.481317 184.519861 
L 464.890556 184.43941 
L 465.299796 184.442306 
L 465.709035 184.738169 
L 466.118274 185.082689 
L 466.322894 185.030438 
L 466.732134 184.238293 
L 467.141373 183.424191 
L 467.345993 183.277749 
L 467.755232 183.363252 
L 468.369091 183.533068 
L 468.573711 183.485418 
L 468.982951 182.983179 
L 469.39219 182.08419 
L 470.210669 179.95574 
L 470.619908 179.252713 
L 471.643007 176.33068 
L 472.461486 175.562339 
L 473.075345 174.756371 
L 473.279965 174.694795 
L 473.484585 174.835816 
L 473.689204 175.310902 
L 474.303064 178.217181 
L 474.916923 180.909137 
L 475.326162 181.933085 
L 475.735402 182.280275 
L 476.144641 182.481742 
L 476.349261 182.43863 
L 477.16774 181.689452 
L 477.372359 181.691547 
L 477.576979 181.890179 
L 478.395458 183.313445 
L 478.600078 183.324043 
L 479.009317 182.817101 
L 479.418557 182.351032 
L 479.623176 182.45537 
L 480.032416 183.508853 
L 480.441655 184.735479 
L 480.646275 185.031897 
L 481.055515 185.129416 
L 481.464754 184.954814 
L 482.487853 184.15511 
L 482.692472 183.664312 
L 483.101712 181.848485 
L 483.920191 177.759492 
L 484.32943 176.793238 
L 485.352529 175.611181 
L 485.557149 175.819117 
L 485.966388 176.753618 
L 486.580247 178.251707 
L 487.194106 179.302007 
L 488.626444 182.646998 
L 489.240304 183.251705 
L 489.854163 183.482604 
L 490.263402 184.363396 
L 490.672642 185.405705 
L 491.081881 185.83844 
L 491.491121 186.041817 
L 492.10498 186.675052 
L 492.514219 186.886624 
L 492.718839 186.866352 
L 493.741938 185.784936 
L 494.151177 184.970691 
L 494.969656 183.099799 
L 495.174276 182.88145 
L 495.378895 182.935098 
L 495.583515 183.313918 
L 496.197374 184.996323 
L 497.629712 186.645045 
L 498.038952 186.735416 
L 498.652811 186.359657 
L 498.857431 186.481268 
L 499.26667 187.378696 
L 499.67591 188.585029 
L 499.880529 188.883296 
L 500.085149 188.858505 
L 500.494389 188.223626 
L 501.108248 187.293911 
L 501.517487 187.030622 
L 501.722107 187.080676 
L 502.131346 187.663283 
L 503.154445 189.433123 
L 503.359065 189.73026 
L 503.563684 189.735846 
L 503.972924 188.912071 
L 504.382163 187.909483 
L 504.586783 187.65363 
L 504.791403 187.622657 
L 505.200642 187.713296 
L 505.405262 187.486998 
L 506.019121 186.299991 
L 506.223741 186.203273 
L 506.428361 186.417001 
L 507.04222 187.615695 
L 507.24684 187.760864 
L 507.451459 187.673471 
L 507.860699 186.73938 
L 508.883797 183.682797 
L 509.088417 183.453829 
L 509.293037 183.445675 
L 509.702276 183.886543 
L 510.520755 184.979831 
L 511.134614 186.046787 
L 511.543854 186.606185 
L 511.953093 187.637322 
L 512.566952 189.402007 
L 512.771572 189.661537 
L 513.180812 189.689962 
L 513.590051 189.72377 
L 514.40853 190.476645 
L 515.227009 190.189223 
L 515.636248 189.626436 
L 516.454727 188.298409 
L 516.863967 188.063649 
L 517.068586 188.09306 
L 517.273206 188.303194 
L 518.091685 189.640053 
L 518.500925 189.830223 
L 519.728643 189.498745 
L 520.137882 189.225207 
L 521.57022 187.571207 
L 521.77484 187.487326 
L 521.97946 187.530602 
L 522.18408 187.76378 
L 522.593319 188.930289 
L 523.207178 190.914001 
L 523.411798 191.225391 
L 523.616418 191.305267 
L 523.821037 191.171518 
L 524.434897 190.175729 
L 525.048756 189.251354 
L 525.457995 188.89716 
L 525.867235 188.90936 
L 526.071854 188.94557 
L 526.276474 188.862613 
L 526.685714 188.305186 
L 527.094953 187.784032 
L 527.299573 187.803482 
L 528.118052 188.347148 
L 528.527291 188.592834 
L 528.936531 189.064614 
L 529.34577 189.873088 
L 529.959629 191.148453 
L 530.164249 191.21543 
L 530.368869 191.086774 
L 530.982728 190.166979 
L 531.801207 188.857396 
L 532.005827 188.709434 
L 532.210446 188.816236 
L 532.619686 189.792863 
L 533.028925 190.878756 
L 533.438165 191.299578 
L 533.642784 191.312168 
L 533.847404 191.166301 
L 534.461263 190.304693 
L 534.665883 190.23028 
L 535.075122 190.45132 
L 535.484362 190.722393 
L 536.507461 190.787953 
L 536.9167 190.524439 
L 537.939799 189.179488 
L 538.349038 189.015033 
L 538.758277 188.685609 
L 540.190616 188.672587 
L 541.213714 189.731739 
L 541.622954 189.691482 
L 542.032193 189.581003 
L 542.441433 189.747492 
L 543.055292 190.349591 
L 543.259911 190.35643 
L 543.464531 190.063401 
L 543.873771 188.531361 
L 544.69225 185.064328 
L 545.101489 184.246324 
L 545.510728 184.089303 
L 546.124588 184.357953 
L 546.533827 185.003738 
L 547.761545 187.962864 
L 548.170785 188.916261 
L 548.375405 188.977077 
L 548.580024 188.704012 
L 549.193884 187.354008 
L 549.398503 187.355856 
L 549.807743 188.120377 
L 551.035461 190.845462 
L 551.240081 191.034462 
L 551.444701 190.943741 
L 552.05856 189.94635 
L 552.877039 189.48408 
L 553.286278 189.179816 
L 553.490898 189.265032 
L 554.104757 189.981677 
L 554.309377 190.002791 
L 554.718616 189.756714 
L 555.127856 189.279286 
L 555.946335 188.131961 
L 556.150954 188.048635 
L 556.560194 188.270928 
L 556.969433 188.962966 
L 557.787912 190.725125 
L 558.197152 191.028177 
L 558.401771 190.931972 
L 559.01563 190.320159 
L 560.038729 190.173059 
L 560.447969 190.60031 
L 560.857208 191.061881 
L 561.061828 191.038015 
L 561.471067 190.566112 
L 561.880307 190.138101 
L 562.289546 189.918479 
L 562.903405 189.449595 
L 563.517264 189.400261 
L 564.335743 189.626127 
L 564.744983 189.739605 
L 565.358842 189.57057 
L 565.768081 189.927618 
L 566.9958 191.324718 
L 567.20042 191.398391 
L 567.405039 191.288672 
L 567.814279 190.603822 
L 568.223518 189.823157 
L 568.632758 189.612346 
L 569.451237 189.421375 
L 569.860476 189.856923 
L 570.474335 191.326505 
L 570.883575 192.202449 
L 571.088194 192.37742 
L 571.292814 192.369492 
L 571.702054 191.979684 
L 572.520532 190.877277 
L 572.929772 190.296744 
L 573.339011 189.633891 
L 573.543631 189.535017 
L 573.748251 189.641059 
L 574.15749 190.325211 
L 574.56673 191.035981 
L 574.975969 191.311347 
L 575.385209 191.572479 
L 575.794448 191.844661 
L 575.999068 191.747039 
L 576.612927 191.165479 
L 577.431406 191.104581 
L 577.840645 191.611236 
L 578.249885 192.168396 
L 578.454504 192.193679 
L 579.272983 191.307794 
L 579.682223 191.270618 
L 580.091462 190.790069 
L 580.705321 189.712001 
L 581.5238 187.920739 
L 581.93304 187.495377 
L 582.751519 187.210811 
L 582.956138 187.037667 
L 583.160758 186.651063 
L 583.569998 184.953828 
L 584.183857 181.736959 
L 584.593096 180.627302 
L 585.206955 179.963627 
L 586.025434 179.311331 
L 586.230054 179.540977 
L 586.639294 181.006389 
L 587.662392 185.778056 
L 588.480871 188.747657 
L 588.890111 189.678358 
L 589.09473 189.867789 
L 589.29935 189.760945 
L 589.708589 188.616742 
L 590.322449 186.4581 
L 590.731688 185.876992 
L 590.936308 185.886932 
L 591.754787 186.424457 
L 592.164026 186.935568 
L 592.777885 187.90478 
L 593.187125 188.194441 
L 593.391745 188.164166 
L 593.800984 187.735601 
L 595.028702 186.236382 
L 595.437942 185.628881 
L 596.051801 184.2241 
L 596.66566 183.35023 
L 597.279519 182.127897 
L 597.688759 181.531405 
L 598.097998 180.428465 
L 598.507238 178.322834 
L 599.325717 172.637041 
L 600.962674 159.322472 
L 601.371914 157.245226 
L 601.576534 156.689134 
L 601.781153 156.49804 
L 601.985773 156.665884 
L 602.190393 157.180528 
L 602.599632 159.089355 
L 603.418111 164.462155 
L 604.850449 175.274897 
L 606.078168 181.117915 
L 606.692027 183.910902 
L 607.101266 184.896586 
L 607.305886 185.04537 
L 607.510506 184.989751 
L 607.715125 184.78239 
L 608.124365 183.842241 
L 608.533604 182.655973 
L 608.738224 182.390487 
L 608.942844 182.428505 
L 609.352083 183.151475 
L 610.170562 184.784218 
L 610.579802 185.087393 
L 611.193661 185.191957 
L 611.80752 185.111177 
L 612.830619 185.257825 
L 613.239858 185.66388 
L 614.058337 186.939861 
L 614.876816 187.983917 
L 615.081436 187.975167 
L 615.490675 187.585194 
L 615.899914 187.171869 
L 616.104534 187.212043 
L 617.127633 188.201362 
L 617.536872 189.4818 
L 617.946112 190.640628 
L 618.150731 190.838417 
L 618.355351 190.812251 
L 618.96921 190.409051 
L 619.37845 190.572993 
L 620.401548 191.716354 
L 620.810788 191.538959 
L 621.424647 190.81221 
L 621.833887 189.718429 
L 622.243126 188.554919 
L 622.447746 188.345073 
L 622.856985 188.451999 
L 625.926281 189.719313 
L 627.153999 188.603946 
L 627.972478 187.128244 
L 628.381718 186.800237 
L 628.586338 186.951712 
L 628.995577 188.161722 
L 629.404816 189.337309 
L 629.609436 189.483074 
L 629.814056 189.356492 
L 630.427915 188.700212 
L 630.837155 188.853268 
L 631.041774 188.915563 
L 631.451014 188.581846 
L 631.860253 188.306049 
L 632.474112 188.246712 
L 633.292591 187.605897 
L 633.90645 186.669363 
L 634.52031 185.626232 
L 634.724929 185.535635 
L 634.929549 185.636337 
L 635.952648 186.811801 
L 636.361887 186.688156 
L 636.771127 186.139746 
L 637.384986 185.298287 
L 638.408084 184.953582 
L 638.612704 185.061617 
L 639.431183 186.284546 
L 640.249662 186.556892 
L 640.658901 186.431871 
L 641.88662 185.297671 
L 642.09124 185.281424 
L 642.295859 185.402357 
L 642.705099 186.185959 
L 642.909718 186.587105 
L 643.114338 186.718205 
L 643.318958 186.480569 
L 643.932817 184.680147 
L 644.546676 182.957403 
L 644.751296 182.647614 
L 644.955916 182.604441 
L 645.774395 183.184276 
L 646.183634 182.78352 
L 647.002113 181.946641 
L 647.206733 181.875022 
L 647.411352 181.944135 
L 647.820592 182.398477 
L 648.639071 183.410368 
L 649.662169 184.3285 
L 649.866789 184.333409 
L 650.071409 184.144307 
L 650.480648 183.153159 
L 650.889888 182.19812 
L 651.503747 181.607584 
L 651.912986 181.481434 
L 652.322226 181.628616 
L 652.731465 182.252568 
L 653.549944 184.277666 
L 653.754564 184.359555 
L 653.959184 184.194627 
L 654.368423 183.287505 
L 654.982282 181.734309 
L 655.186902 181.648518 
L 655.596141 182.026989 
L 656.210001 182.536724 
L 656.61924 182.716399 
L 657.437719 182.653098 
L 657.642339 182.692656 
L 658.051578 182.399976 
L 659.074677 181.075318 
L 659.279297 181.06739 
L 659.893156 181.575092 
L 660.097775 181.486096 
L 660.507015 181.084601 
L 660.711635 181.034486 
L 661.325494 181.261216 
L 661.734733 181.281919 
L 662.553212 181.774545 
L 662.757832 181.624734 
L 663.167071 180.680231 
L 663.780931 179.120052 
L 664.599409 178.122517 
L 665.213269 176.963752 
L 665.622508 175.755364 
L 666.850226 171.065586 
L 667.873325 169.821872 
L 668.077945 169.638644 
L 668.282565 169.604981 
L 668.896424 169.898708 
L 669.510283 169.482343 
L 669.714903 169.684816 
L 670.124142 170.727639 
L 673.398058 180.26099 
L 674.011917 180.51405 
L 674.216537 180.532042 
L 674.421156 180.382827 
L 675.239635 179.024731 
L 676.262734 178.418319 
L 677.081213 177.514832 
L 677.490452 177.222316 
L 677.899692 177.369355 
L 678.104311 177.451716 
L 678.308931 177.369088 
L 680.355128 174.713712 
L 680.968988 173.467245 
L 681.173607 173.43124 
L 681.582847 173.920724 
L 681.992086 174.897371 
L 682.401326 175.981436 
L 682.810565 176.479957 
L 683.015185 176.456892 
L 683.219805 176.236283 
L 683.629044 175.305849 
L 684.856762 171.906491 
L 685.266002 171.362025 
L 686.69834 170.473346 
L 687.516819 170.48263 
L 687.926058 170.30579 
L 688.335298 169.833517 
L 688.744537 168.79891 
L 689.153777 166.836825 
L 689.767636 161.422003 
L 690.176875 157.795341 
L 690.381495 156.672005 
L 690.586115 156.231178 
L 690.790735 156.471914 
L 691.199974 158.541602 
L 692.223073 165.194512 
L 693.041551 169.05542 
L 693.450791 170.271551 
L 693.655411 170.494378 
L 693.86003 170.362867 
L 694.678509 168.561747 
L 694.883129 168.687055 
L 695.496988 169.571892 
L 695.701608 169.496802 
L 695.906228 169.136077 
L 696.315467 167.748631 
L 696.724707 166.141993 
L 697.133946 165.357714 
L 697.543185 164.745058 
L 697.952425 163.422967 
L 698.566284 160.358928 
L 698.975524 157.275028 
L 699.998622 147.661924 
L 700.203242 146.86033 
L 700.407862 146.687577 
L 700.612481 147.128507 
L 701.43096 151.082642 
L 702.454059 156.025295 
L 702.863298 156.855725 
L 703.067918 156.66917 
L 703.272538 156.003257 
L 703.681777 153.635898 
L 704.295636 148.57492 
L 705.523355 135.603146 
L 706.137214 126.062791 
L 706.751073 111.991445 
L 707.774172 86.362286 
L 708.183411 80.194321 
L 708.388031 78.63252 
L 708.592651 78.105204 
L 708.79727 78.542991 
L 709.20651 81.622352 
L 709.615749 86.933145 
L 710.229609 98.488945 
L 711.457327 124.065442 
L 712.275806 135.810035 
L 712.889665 141.506693 
L 713.503524 145.161535 
L 713.912764 146.243033 
L 714.117383 146.251864 
L 714.731243 145.743711 
L 714.935862 145.742396 
L 715.754341 146.183285 
L 715.958961 145.946245 
L 716.3682 144.754535 
L 716.77744 142.605259 
L 717.391299 137.780212 
L 718.005158 130.814453 
L 718.619017 120.421938 
L 719.232877 103.955875 
L 720.665215 56.94316 
L 721.074454 51.780556 
L 721.279074 51.644465 
L 721.483694 53.108459 
L 721.892933 60.087425 
L 722.506792 77.425488 
L 723.325271 100.197106 
L 724.34837 120.973778 
L 724.962229 130.003638 
L 725.576088 135.96001 
L 727.417666 148.306066 
L 728.031525 150.189281 
L 728.440764 150.835826 
L 728.645384 150.865217 
L 729.054623 150.667242 
L 729.259243 150.756669 
L 729.668483 151.515459 
L 730.282342 152.906212 
L 730.691581 153.448173 
L 731.100821 153.693305 
L 731.51006 153.663092 
L 731.9193 153.154219 
L 732.737778 151.80896 
L 733.147018 151.107535 
L 734.374736 148.212265 
L 735.193215 146.877871 
L 735.602455 145.282037 
L 736.625553 140.260904 
L 737.444032 137.384118 
L 737.648652 137.251231 
L 737.853272 137.558556 
L 738.262511 139.002258 
L 738.87637 141.993076 
L 739.490229 144.963396 
L 740.104089 146.64767 
L 740.922568 148.465756 
L 741.331807 149.771662 
L 742.150286 153.061157 
L 742.354906 153.311774 
L 742.559525 153.267286 
L 743.173385 152.804298 
L 743.787244 152.732247 
L 743.991863 152.564136 
L 744.401103 151.714892 
L 744.810342 150.365546 
L 745.219582 148.369326 
L 746.65192 139.792349 
L 746.85654 139.551818 
L 747.061159 139.850536 
L 747.470399 141.663693 
L 748.288878 147.007204 
L 749.107357 152.95189 
L 749.311976 153.600243 
L 749.516596 153.841 
L 749.721216 153.819393 
L 750.130455 153.354885 
L 750.744314 152.438212 
L 751.358174 151.883969 
L 751.562793 151.830999 
L 751.767413 151.92558 
L 752.176653 152.611026 
L 752.585892 153.499828 
L 752.790512 153.739066 
L 752.995131 153.775584 
L 753.404371 153.465569 
L 753.81361 152.826151 
L 754.22285 151.517225 
L 754.632089 149.091947 
L 756.064427 138.757105 
L 756.269047 138.925832 
L 756.473667 139.963808 
L 757.496765 148.098027 
L 757.906005 149.391343 
L 758.724484 150.879594 
L 758.929104 150.963496 
L 759.133723 150.778871 
L 759.952202 149.35427 
L 760.156822 149.317465 
L 760.975301 149.627767 
L 761.58916 149.476477 
L 762.203019 149.540702 
L 762.407639 149.525113 
L 762.612259 149.628301 
L 763.430738 150.703678 
L 763.635357 150.681455 
L 764.044597 150.13286 
L 764.453836 149.283822 
L 765.476935 146.315802 
L 765.681555 146.286555 
L 765.886174 146.598418 
L 766.909273 149.456944 
L 767.113893 149.453309 
L 767.523132 148.630725 
L 767.932372 147.719946 
L 768.136991 147.567835 
L 768.341611 147.660979 
L 769.16009 148.595911 
L 769.569329 148.417941 
L 769.773949 148.520287 
L 770.592428 149.907219 
L 770.797048 149.869017 
L 771.206287 149.609918 
L 771.410907 149.699201 
L 771.820146 150.459039 
L 772.229386 151.225655 
L 772.434005 151.353674 
L 772.638625 151.268026 
L 773.457104 150.375384 
L 774.275583 150.323995 
L 774.480203 150.290045 
L 774.684822 150.42059 
L 775.503301 151.446982 
L 775.707921 151.291071 
L 776.935639 149.243524 
L 777.140259 149.256053 
L 777.549499 149.833505 
L 778.367978 151.501677 
L 778.572597 151.66983 
L 778.777217 151.631915 
L 779.595696 150.97432 
L 780.004935 151.047644 
L 781.028034 151.44043 
L 781.437273 152.334716 
L 781.846513 153.266033 
L 782.051133 153.396517 
L 782.255752 153.259995 
L 783.074231 151.959839 
L 783.89271 151.768745 
L 784.09733 151.849196 
L 784.506569 152.474483 
L 785.325048 154.405759 
L 785.529668 154.530081 
L 785.734288 154.465692 
L 786.552767 153.775686 
L 786.962006 154.244426 
L 788.189724 156.104267 
L 789.008203 156.51519 
L 789.212823 156.58837 
L 789.417443 156.490933 
L 789.826682 156.031477 
L 790.031302 156.030964 
L 791.25902 157.376695 
L 791.87288 158.119322 
L 792.282119 158.032709 
L 792.691358 157.532134 
L 793.100598 156.972756 
L 793.305218 156.930302 
L 793.509837 157.109648 
L 793.919077 157.927365 
L 794.942175 160.230457 
L 795.351415 160.961807 
L 795.760654 161.092784 
L 796.169894 160.90171 
L 796.579133 160.73935 
L 796.783753 160.91426 
L 797.602232 162.299138 
L 798.011471 162.428061 
L 798.420711 162.381992 
L 799.03457 162.621928 
L 799.443809 163.165471 
L 800.466908 165.288251 
L 801.285387 165.944799 
L 801.694626 166.131703 
L 801.899246 166.151564 
L 802.308486 166.513214 
L 802.922345 167.165264 
L 803.945443 169.352023 
L 804.763922 171.278575 
L 805.582401 171.811519 
L 805.991641 172.245671 
L 806.40088 172.560163 
L 806.81012 173.499512 
L 807.833218 176.262779 
L 808.447077 177.169983 
L 808.651697 177.303219 
L 808.856317 177.29449 
L 809.060937 177.079715 
L 809.674796 175.950156 
L 809.879415 175.868287 
L 810.084035 176.006227 
L 810.493275 176.667293 
L 811.516373 179.091236 
L 812.130232 180.235419 
L 812.539472 180.665299 
L 812.948711 180.807079 
L 813.357951 180.568376 
L 813.76719 180.247866 
L 813.97181 180.208164 
L 814.381049 180.496982 
L 814.790289 180.83797 
L 814.994909 180.830206 
L 815.813388 180.363151 
L 816.427247 180.57616 
L 816.836486 180.408829 
L 817.041106 180.514584 
L 817.245726 180.947093 
L 818.268824 184.763453 
L 818.473444 184.802723 
L 818.882683 183.979174 
L 819.291923 183.087414 
L 819.496543 182.85553 
L 819.701162 182.813589 
L 819.905782 183.005834 
L 820.315022 183.93292 
L 821.1335 186.159936 
L 821.74736 186.784587 
L 822.156599 186.837474 
L 823.179698 186.675545 
L 823.588937 186.409073 
L 824.407416 186.406362 
L 824.816656 186.13761 
L 825.021275 186.191628 
L 825.430515 186.504333 
L 825.635134 186.507332 
L 826.044374 186.136768 
L 826.453613 185.832176 
L 826.658233 185.994762 
L 827.272092 186.991968 
L 827.476712 186.974572 
L 827.885951 186.403261 
L 828.295191 185.466418 
L 828.90905 183.898682 
L 829.522909 183.415729 
L 830.136768 182.755382 
L 831.364487 181.119579 
L 833.001445 177.938571 
L 833.410684 177.52276 
L 833.819924 177.192309 
L 834.229163 176.149589 
L 834.638402 174.401458 
L 835.661501 169.409471 
L 836.070741 168.760358 
L 836.47998 168.553264 
L 836.6846 168.238751 
L 837.093839 166.92693 
L 837.912318 163.052897 
L 838.526177 159.29573 
L 839.344656 152.97855 
L 842.209332 128.062955 
L 843.027811 121.577479 
L 843.84629 111.000975 
L 845.074009 92.523206 
L 847.120206 55.717499 
L 848.143304 35.064657 
L 849.584988 -1 
M 947.860303 -1 
L 948.406971 21.897558 
L 949.225449 45.903135 
L 949.839309 59.225282 
L 950.453168 67.828446 
L 953.113224 95.489583 
L 953.522464 98.497489 
L 954.545562 104.228611 
L 955.9779 113.852704 
L 957.410239 121.752635 
L 958.433337 125.408318 
L 958.842577 126.194425 
L 959.456436 126.990679 
L 959.865675 127.942946 
L 960.479534 130.297755 
L 961.093394 132.54722 
L 961.707253 133.726915 
L 963.139591 136.659587 
L 963.95807 138.58314 
L 964.981168 140.539576 
L 965.799647 142.999196 
L 966.004267 143.221509 
L 966.413506 143.154799 
L 967.027366 142.894899 
L 967.231985 142.994266 
L 967.641225 143.684539 
L 968.255084 145.287746 
L 969.278183 148.440657 
L 970.301281 150.072784 
L 971.11976 151.925293 
L 971.32438 151.950535 
L 971.733619 151.400893 
L 972.142859 150.832786 
L 972.756718 150.432872 
L 972.961338 150.352504 
L 973.165957 150.453822 
L 973.370577 150.853695 
L 975.212155 156.400316 
L 976.030634 158.073171 
L 976.849113 160.610222 
L 977.053732 160.746991 
L 977.462972 160.349008 
L 978.281451 159.310641 
L 978.69069 159.19131 
L 979.09993 158.749025 
L 980.123028 157.38869 
L 980.327648 157.323315 
L 980.532268 157.486538 
L 981.146127 158.711377 
L 981.555366 159.7801 
L 982.373845 162.178575 
L 982.578465 162.155982 
L 982.987704 161.663951 
L 983.192324 161.647931 
L 983.601564 162.183607 
L 984.624662 164.025579 
L 985.033902 164.260956 
L 986.057 164.2314 
L 986.670859 163.839497 
L 987.898578 164.21577 
L 988.103198 164.051274 
L 988.512437 163.138523 
L 988.921676 162.156372 
L 989.126296 161.912904 
L 989.330916 161.847467 
L 990.763254 162.200326 
L 991.172493 161.949812 
L 991.377113 162.022191 
L 991.990972 162.701393 
L 992.195592 162.576866 
L 992.809451 161.317377 
L 993.014071 161.26449 
L 993.218691 161.554931 
L 993.83255 162.894809 
L 994.241789 163.379527 
L 994.855649 163.702482 
L 995.264888 163.930525 
L 995.878747 164.735138 
L 996.697226 165.898895 
L 997.311085 167.518369 
L 998.129564 169.557721 
L 998.334184 169.680893 
L 998.743423 169.399776 
L 999.561902 168.510913 
L 999.971142 167.255409 
L 1001.19886 161.160255 
L 1002.221959 158.99578 
L 1002.426578 158.868479 
L 1002.631198 159.191947 
L 1003.040438 161.106381 
L 1003.858916 165.555155 
L 1004.268156 166.922165 
L 1004.677395 167.542892 
L 1005.086635 168.139713 
L 1005.495874 168.870755 
L 1005.700494 168.801724 
L 1006.314353 167.868866 
L 1006.518973 167.979283 
L 1006.928212 168.880326 
L 1007.542072 170.413681 
L 1009.179029 172.937012 
L 1009.383649 172.872581 
L 1009.792889 171.910045 
L 1010.406748 170.237066 
L 1011.225227 168.502718 
L 1011.634466 167.485753 
L 1011.839086 167.225196 
L 1012.043706 167.253786 
L 1012.248325 167.556407 
L 1013.680663 170.924443 
L 1014.703762 172.551024 
L 1016.34072 176.135232 
L 1016.54534 176.253392 
L 1016.954579 176.931115 
L 1017.568438 178.286213 
L 1017.773058 178.515407 
L 1017.977678 178.521917 
L 1018.386917 177.98696 
L 1019.205396 176.210281 
L 1019.614635 175.473529 
L 1020.023875 175.169142 
L 1020.842354 174.9709 
L 1021.456213 175.363543 
L 1021.660833 175.269413 
L 1022.274692 174.55472 
L 1022.479312 174.712171 
L 1023.50241 176.697588 
L 1023.70703 176.793874 
L 1023.91165 176.654764 
L 1024.320889 175.569918 
L 1024.730129 174.063696 
L 1024.934748 173.634288 
L 1025.139368 173.517606 
L 1025.548608 173.544286 
L 1026.571706 173.210323 
L 1026.980946 173.360894 
L 1027.185565 173.581667 
L 1027.594805 174.773726 
L 1028.004044 176.077066 
L 1028.208664 176.4427 
L 1028.413284 176.551453 
L 1028.617903 176.365679 
L 1029.027143 175.20221 
L 1029.436382 174.009596 
L 1029.845622 173.456934 
L 1030.254861 173.23152 
L 1030.664101 173.212993 
L 1031.07334 173.557883 
L 1031.891819 174.611284 
L 1032.505678 174.906511 
L 1032.914918 175.484312 
L 1033.733397 177.235297 
L 1034.142636 177.999202 
L 1034.347256 178.136545 
L 1034.756495 177.956399 
L 1035.779594 176.961534 
L 1037.007312 175.192474 
L 1037.621171 175.062524 
L 1038.235031 174.80932 
L 1038.64427 174.296956 
L 1039.05351 173.697774 
L 1039.258129 173.664706 
L 1039.667369 174.275945 
L 1040.076608 174.846167 
L 1040.281228 174.819569 
L 1040.690467 174.435327 
L 1040.895087 174.409736 
L 1041.099707 174.606724 
L 1042.736665 177.321684 
L 1043.145904 177.449867 
L 1043.964383 177.525348 
L 1044.373622 178.164807 
L 1045.601341 180.910411 
L 1045.80596 180.967345 
L 1046.01058 180.76594 
L 1046.41982 179.667333 
L 1047.033679 177.846926 
L 1047.442918 177.322382 
L 1048.056777 176.895378 
L 1048.670637 176.044902 
L 1048.875256 176.120834 
L 1049.693735 177.304924 
L 1049.898355 177.335034 
L 1050.307594 176.982483 
L 1050.921454 176.418258 
L 1051.535313 176.086883 
L 1052.149172 175.94841 
L 1052.763031 176.151992 
L 1053.58151 176.467942 
L 1053.99075 177.133753 
L 1054.604609 178.386874 
L 1054.809228 178.520172 
L 1055.013848 178.481312 
L 1055.423088 178.015777 
L 1056.036947 177.166779 
L 1056.241567 177.238481 
L 1056.650806 178.212704 
L 1057.060045 179.378165 
L 1057.878524 180.685838 
L 1058.492384 181.403838 
L 1058.901623 181.658254 
L 1059.106243 181.683845 
L 1059.310862 181.596637 
L 1059.515482 181.335279 
L 1060.129341 179.963319 
L 1060.333961 179.832712 
L 1061.15244 180.182798 
L 1061.766299 180.459869 
L 1062.380158 180.193992 
L 1062.789398 179.869641 
L 1063.198637 179.051493 
L 1063.812496 177.722398 
L 1064.221736 177.269967 
L 1064.426356 177.240226 
L 1064.630975 177.356518 
L 1065.040215 177.939248 
L 1065.449454 178.564228 
L 1065.858694 178.758485 
L 1066.267933 178.935181 
L 1067.086412 179.739609 
L 1067.495652 179.734064 
L 1067.904891 179.479484 
L 1068.31413 179.15158 
L 1068.72337 179.231435 
L 1069.746469 179.698388 
L 1070.564947 181.036253 
L 1070.769567 181.021506 
L 1071.383426 180.637243 
L 1071.588046 180.759696 
L 1072.406525 181.62494 
L 1073.020384 181.98281 
L 1073.225004 181.9451 
L 1073.838863 181.309954 
L 1074.248103 181.007313 
L 1074.657342 181.039847 
L 1075.475821 181.172303 
L 1076.2943 182.145067 
L 1076.49892 182.148374 
L 1076.908159 181.732338 
L 1077.931258 179.899443 
L 1078.135877 179.839654 
L 1078.545117 180.30977 
L 1078.954356 180.743758 
L 1079.158976 180.679512 
L 1079.568215 179.873379 
L 1080.386694 177.81468 
L 1081.000553 177.059155 
L 1081.409793 176.850192 
L 1081.614413 176.979895 
L 1082.023652 177.838936 
L 1082.432892 179.419346 
L 1083.046751 182.258545 
L 1083.45599 183.174047 
L 1083.66061 183.339016 
L 1083.86523 183.337743 
L 1084.069849 183.116518 
L 1084.479089 182.037752 
L 1085.092948 180.317308 
L 1085.706807 179.483468 
L 1086.525286 178.623092 
L 1086.729906 178.691672 
L 1087.548385 179.539129 
L 1088.162244 179.09025 
L 1088.366864 179.170989 
L 1088.776103 179.830802 
L 1089.799202 182.037505 
L 1090.413061 182.652523 
L 1090.617681 182.658767 
L 1090.8223 182.445388 
L 1091.23154 181.34598 
L 1092.254638 177.939639 
L 1092.459258 177.796832 
L 1092.868498 178.051596 
L 1093.277737 178.318808 
L 1093.891596 178.551227 
L 1094.505455 179.158748 
L 1095.323934 180.206192 
L 1095.528554 180.026148 
L 1096.142413 178.814638 
L 1096.347033 178.699887 
L 1096.551653 178.831665 
L 1096.960892 179.402278 
L 1097.165512 179.498277 
L 1097.370132 179.355203 
L 1098.59785 177.446294 
L 1099.620949 175.642585 
L 1099.825568 175.5456 
L 1100.030188 175.591053 
L 1100.644047 176.195021 
L 1101.871766 177.487762 
L 1103.099484 180.173248 
L 1103.304104 180.399854 
L 1103.508723 180.424973 
L 1103.713343 180.205699 
L 1104.736442 178.243245 
L 1105.75954 177.690604 
L 1106.3734 176.938797 
L 1106.987259 175.309936 
L 1107.805738 172.909058 
L 1108.214977 172.488934 
L 1108.624217 172.115434 
L 1109.238076 171.174977 
L 1109.647315 171.081771 
L 1110.056555 171.112292 
L 1110.465794 170.791597 
L 1111.488893 169.237128 
L 1112.716611 165.552505 
L 1113.33047 161.355949 
L 1113.94433 155.399782 
L 1114.762808 147.160466 
L 1117.422865 123.188018 
L 1118.036724 115.294023 
L 1119.059823 100.025175 
L 1119.469062 91.139539 
L 1119.878302 77.785659 
L 1120.287541 58.554399 
L 1120.69678 31.87492 
L 1121.064525 -1 
M 1124.576251 -1 
L 1124.993795 37.517437 
L 1125.607654 72.180892 
L 1126.221513 91.848133 
L 1128.063091 134.694545 
L 1128.88157 147.8607 
L 1130.109288 162.574607 
L 1130.723147 168.011714 
L 1131.337006 171.851098 
L 1131.746246 173.580599 
L 1132.564725 175.472338 
L 1132.973964 176.069856 
L 1133.178584 176.049831 
L 1133.792443 175.638046 
L 1133.997063 175.826491 
L 1134.406302 176.754686 
L 1135.020161 179.019658 
L 1135.83864 182.092591 
L 1136.24788 182.661334 
L 1136.657119 182.680723 
L 1137.066359 182.514275 
L 1137.680218 182.091297 
L 1138.294077 181.979996 
L 1138.703316 181.255937 
L 1139.112556 180.564145 
L 1140.135655 179.685222 
L 1140.340274 179.843885 
L 1141.363373 181.864382 
L 1141.772612 181.75758 
L 1142.386472 181.352162 
L 1143.000331 180.690603 
L 1143.20495 180.700708 
L 1143.61419 181.141022 
L 1144.023429 182.273888 
L 1145.046528 186.399872 
L 1145.455767 186.7546 
L 1145.865007 187.0732 
L 1146.274246 187.528178 
L 1146.478866 187.533518 
L 1147.501965 186.947809 
L 1148.934303 186.444482 
L 1149.752782 186.875697 
L 1150.162021 186.470752 
L 1151.18512 184.897038 
L 1151.38974 185.037565 
L 1151.798979 186.038736 
L 1152.208218 187.288633 
L 1152.412838 187.653486 
L 1152.617458 187.73632 
L 1152.822078 187.511932 
L 1153.231317 186.246158 
L 1153.845176 184.357111 
L 1154.254416 183.81897 
L 1154.459035 183.877177 
L 1155.072895 184.358384 
L 1155.891373 184.424273 
L 1156.095993 184.419118 
L 1156.300613 184.55525 
L 1156.914472 185.294035 
L 1157.323712 184.944052 
L 1157.732951 184.646032 
L 1157.937571 184.757004 
L 1158.55143 185.425464 
L 1158.960669 185.176819 
L 1159.165289 185.027953 
L 1159.369909 185.069565 
L 1159.779148 185.774051 
L 1160.393007 186.966952 
L 1160.597627 187.124054 
L 1160.802247 187.083921 
L 1161.006867 186.830532 
L 1162.029965 184.861649 
L 1162.234585 185.054715 
L 1162.643824 186.281958 
L 1163.257684 188.18033 
L 1163.462303 188.388575 
L 1163.871543 188.321227 
L 1164.280782 187.967773 
L 1164.894641 187.090206 
L 1165.303881 187.019696 
L 1165.71312 187.377073 
L 1166.12236 188.183699 
L 1166.531599 189.048429 
L 1166.736219 189.211118 
L 1166.940839 189.207729 
L 1167.350078 188.85068 
L 1167.759318 187.87656 
L 1168.577797 185.454855 
L 1168.987036 184.662114 
L 1169.396275 184.310118 
L 1169.805515 184.141205 
L 1170.214754 183.942224 
L 1170.419374 184.129806 
L 1170.828614 185.374404 
L 1171.237853 186.630278 
L 1171.442473 186.708161 
L 1172.260952 185.750123 
L 1172.874811 185.871652 
L 1173.69329 185.50575 
L 1174.102529 185.517827 
L 1174.511769 185.224531 
L 1175.125628 184.468966 
L 1175.330248 184.42415 
L 1175.739487 184.598546 
L 1175.944107 184.518588 
L 1176.557966 183.610623 
L 1176.762586 183.834497 
L 1177.171825 185.430619 
L 1177.581065 187.220402 
L 1177.990304 188.028999 
L 1178.604163 188.130359 
L 1179.218022 188.893463 
L 1179.831882 189.888492 
L 1180.036501 190.019489 
L 1180.241121 189.975762 
L 1180.65036 189.31601 
L 1181.0596 188.495007 
L 1181.26422 188.393032 
L 1182.082699 188.679385 
L 1182.287318 188.479583 
L 1183.310417 186.615941 
L 1183.924276 186.280992 
L 1184.538135 186.037442 
L 1184.742755 185.793234 
L 1184.742755 185.793234 
" clip-path="url(#pd0f98323b2)" style="fill: none; stroke: #000000; stroke-width: 2; stroke-linecap: square"/>
   </g>
   <g id="patch_3">
    <path d="M 3.00024 198.907885 
L 1184.99976 198.907885 
" style="fill: none; stroke: #000000; stroke-width: 2; stroke-linejoin: miter; stroke-linecap: square"/>
   </g>
  </g>
 </g>
 <defs>
  <clipPath id="pd0f98323b2">
   <rect x="3.00024" y="3.00024" width="1181.99952" height="195.907645"/>
  </clipPath>
 </defs>
</svg>
