<?xml version="1.0" encoding="utf-8" standalone="no"?>
<!DOCTYPE svg PUBLIC "-//W3C//DTD SVG 1.1//EN"
  "http://www.w3.org/Graphics/SVG/1.1/DTD/svg11.dtd">
<svg xmlns:xlink="http://www.w3.org/1999/xlink" width="1188pt" height="252pt" viewBox="0 0 1188 252" xmlns="http://www.w3.org/2000/svg" version="1.1">
 <metadata>
  <rdf:RDF xmlns:dc="http://purl.org/dc/elements/1.1/" xmlns:cc="http://creativecommons.org/ns#" xmlns:rdf="http://www.w3.org/1999/02/22-rdf-syntax-ns#">
   <cc:Work>
    <dc:type rdf:resource="http://purl.org/dc/dcmitype/StillImage"/>
    <dc:date>2024-07-23T21:46:39.605965</dc:date>
    <dc:format>image/svg+xml</dc:format>
    <dc:creator>
     <cc:Agent>
      <dc:title>Matplotlib v3.8.4, https://matplotlib.org/</dc:title>
     </cc:Agent>
    </dc:creator>
   </cc:Work>
  </rdf:RDF>
 </metadata>
 <defs>
  <style type="text/css">*{stroke-linejoin: round; stroke-linecap: butt}</style>
 </defs>
 <g id="figure_1">
  <g id="patch_1">
   <path d="M 0 252 
L 1188 252 
L 1188 0 
L 0 0 
z
" style="fill: #ffffff"/>
  </g>
  <g id="axes_1">
   <g id="patch_2">
    <path d="M 3.00024 198.907885 
L 1184.99976 198.907885 
L 1184.99976 3.00024 
L 3.00024 3.00024 
z
" style="fill: #ffffff"/>
   </g>
   <g id="matplotlib.axis_1">
    <g id="xtick_1">
     <g id="line2d_1">
      <defs>
       <path id="m03c58f6e9f" d="M 0 0 
L 0 8 
" style="stroke: #000000; stroke-width: 2"/>
      </defs>
      <g>
       <use xlink:href="#m03c58f6e9f" x="1131.272509" y="198.907885" style="stroke: #000000; stroke-width: 2"/>
      </g>
     </g>
     <g id="text_1">
      <!-- 0 -->
      <g transform="translate(1126.267665 224.791947) scale(0.18 -0.18)">
       <defs>
        <path id="Arial-BoldMT-30" d="M 1756 4600 
Q 2422 4600 2797 4125 
Q 3244 3563 3244 2259 
Q 3244 959 2794 391 
Q 2422 -78 1756 -78 
Q 1088 -78 678 436 
Q 269 950 269 2269 
Q 269 3563 719 4131 
Q 1091 4600 1756 4600 
z
M 1756 3872 
Q 1597 3872 1472 3770 
Q 1347 3669 1278 3406 
Q 1188 3066 1188 2259 
Q 1188 1453 1269 1151 
Q 1350 850 1473 750 
Q 1597 650 1756 650 
Q 1916 650 2041 751 
Q 2166 853 2234 1116 
Q 2325 1453 2325 2259 
Q 2325 3066 2244 3367 
Q 2163 3669 2039 3770 
Q 1916 3872 1756 3872 
z
" transform="scale(0.015625)"/>
       </defs>
       <use xlink:href="#Arial-BoldMT-30"/>
      </g>
     </g>
    </g>
    <g id="xtick_2">
     <g id="line2d_2">
      <g>
       <use xlink:href="#m03c58f6e9f" x="1023.818007" y="198.907885" style="stroke: #000000; stroke-width: 2"/>
      </g>
     </g>
     <g id="text_2">
      <!-- 1 -->
      <g transform="translate(1018.813164 224.791947) scale(0.18 -0.18)">
       <defs>
        <path id="Arial-BoldMT-31" d="M 2519 0 
L 1641 0 
L 1641 3309 
Q 1159 2859 506 2644 
L 506 3441 
Q 850 3553 1253 3867 
Q 1656 4181 1806 4600 
L 2519 4600 
L 2519 0 
z
" transform="scale(0.015625)"/>
       </defs>
       <use xlink:href="#Arial-BoldMT-31"/>
      </g>
     </g>
    </g>
    <g id="xtick_3">
     <g id="line2d_3">
      <g>
       <use xlink:href="#m03c58f6e9f" x="916.363505" y="198.907885" style="stroke: #000000; stroke-width: 2"/>
      </g>
     </g>
     <g id="text_3">
      <!-- 2 -->
      <g transform="translate(911.358662 224.791947) scale(0.18 -0.18)">
       <defs>
        <path id="Arial-BoldMT-32" d="M 3238 816 
L 3238 0 
L 159 0 
Q 209 463 459 877 
Q 709 1291 1447 1975 
Q 2041 2528 2175 2725 
Q 2356 2997 2356 3263 
Q 2356 3556 2198 3714 
Q 2041 3872 1763 3872 
Q 1488 3872 1325 3706 
Q 1163 3541 1138 3156 
L 263 3244 
Q 341 3969 753 4284 
Q 1166 4600 1784 4600 
Q 2463 4600 2850 4234 
Q 3238 3869 3238 3325 
Q 3238 3016 3127 2736 
Q 3016 2456 2775 2150 
Q 2616 1947 2200 1565 
Q 1784 1184 1673 1059 
Q 1563 934 1494 816 
L 3238 816 
z
" transform="scale(0.015625)"/>
       </defs>
       <use xlink:href="#Arial-BoldMT-32"/>
      </g>
     </g>
    </g>
    <g id="xtick_4">
     <g id="line2d_4">
      <g>
       <use xlink:href="#m03c58f6e9f" x="808.909004" y="198.907885" style="stroke: #000000; stroke-width: 2"/>
      </g>
     </g>
     <g id="text_4">
      <!-- 3 -->
      <g transform="translate(803.90416 224.791947) scale(0.18 -0.18)">
       <defs>
        <path id="Arial-BoldMT-33" d="M 241 1216 
L 1091 1319 
Q 1131 994 1309 822 
Q 1488 650 1741 650 
Q 2013 650 2198 856 
Q 2384 1063 2384 1413 
Q 2384 1744 2206 1937 
Q 2028 2131 1772 2131 
Q 1603 2131 1369 2066 
L 1466 2781 
Q 1822 2772 2009 2936 
Q 2197 3100 2197 3372 
Q 2197 3603 2059 3740 
Q 1922 3878 1694 3878 
Q 1469 3878 1309 3722 
Q 1150 3566 1116 3266 
L 306 3403 
Q 391 3819 561 4067 
Q 731 4316 1036 4458 
Q 1341 4600 1719 4600 
Q 2366 4600 2756 4188 
Q 3078 3850 3078 3425 
Q 3078 2822 2419 2463 
Q 2813 2378 3048 2084 
Q 3284 1791 3284 1375 
Q 3284 772 2843 347 
Q 2403 -78 1747 -78 
Q 1125 -78 715 280 
Q 306 638 241 1216 
z
" transform="scale(0.015625)"/>
       </defs>
       <use xlink:href="#Arial-BoldMT-33"/>
      </g>
     </g>
    </g>
    <g id="xtick_5">
     <g id="line2d_5">
      <g>
       <use xlink:href="#m03c58f6e9f" x="701.454502" y="198.907885" style="stroke: #000000; stroke-width: 2"/>
      </g>
     </g>
     <g id="text_5">
      <!-- 4 -->
      <g transform="translate(696.449658 224.791947) scale(0.18 -0.18)">
       <defs>
        <path id="Arial-BoldMT-34" d="M 1994 0 
L 1994 922 
L 119 922 
L 119 1691 
L 2106 4600 
L 2844 4600 
L 2844 1694 
L 3413 1694 
L 3413 922 
L 2844 922 
L 2844 0 
L 1994 0 
z
M 1994 1694 
L 1994 3259 
L 941 1694 
L 1994 1694 
z
" transform="scale(0.015625)"/>
       </defs>
       <use xlink:href="#Arial-BoldMT-34"/>
      </g>
     </g>
    </g>
    <g id="xtick_6">
     <g id="line2d_6">
      <g>
       <use xlink:href="#m03c58f6e9f" x="594" y="198.907885" style="stroke: #000000; stroke-width: 2"/>
      </g>
     </g>
     <g id="text_6">
      <!-- 5 -->
      <g transform="translate(588.995156 224.791947) scale(0.18 -0.18)">
       <defs>
        <path id="Arial-BoldMT-35" d="M 284 1178 
L 1159 1269 
Q 1197 972 1381 798 
Q 1566 625 1806 625 
Q 2081 625 2272 848 
Q 2463 1072 2463 1522 
Q 2463 1944 2273 2155 
Q 2084 2366 1781 2366 
Q 1403 2366 1103 2031 
L 391 2134 
L 841 4519 
L 3163 4519 
L 3163 3697 
L 1506 3697 
L 1369 2919 
Q 1663 3066 1969 3066 
Q 2553 3066 2959 2641 
Q 3366 2216 3366 1538 
Q 3366 972 3038 528 
Q 2591 -78 1797 -78 
Q 1163 -78 763 262 
Q 363 603 284 1178 
z
" transform="scale(0.015625)"/>
       </defs>
       <use xlink:href="#Arial-BoldMT-35"/>
      </g>
     </g>
    </g>
    <g id="xtick_7">
     <g id="line2d_7">
      <g>
       <use xlink:href="#m03c58f6e9f" x="486.545498" y="198.907885" style="stroke: #000000; stroke-width: 2"/>
      </g>
     </g>
     <g id="text_7">
      <!-- 6 -->
      <g transform="translate(481.540654 224.791947) scale(0.18 -0.18)">
       <defs>
        <path id="Arial-BoldMT-36" d="M 3247 3459 
L 2397 3366 
Q 2366 3628 2234 3753 
Q 2103 3878 1894 3878 
Q 1616 3878 1423 3628 
Q 1231 3378 1181 2588 
Q 1509 2975 1997 2975 
Q 2547 2975 2939 2556 
Q 3331 2138 3331 1475 
Q 3331 772 2918 347 
Q 2506 -78 1859 -78 
Q 1166 -78 719 461 
Q 272 1000 272 2228 
Q 272 3488 737 4044 
Q 1203 4600 1947 4600 
Q 2469 4600 2811 4308 
Q 3153 4016 3247 3459 
z
M 1256 1544 
Q 1256 1116 1453 883 
Q 1650 650 1903 650 
Q 2147 650 2309 840 
Q 2472 1031 2472 1466 
Q 2472 1913 2297 2120 
Q 2122 2328 1859 2328 
Q 1606 2328 1431 2129 
Q 1256 1931 1256 1544 
z
" transform="scale(0.015625)"/>
       </defs>
       <use xlink:href="#Arial-BoldMT-36"/>
      </g>
     </g>
    </g>
    <g id="xtick_8">
     <g id="line2d_8">
      <g>
       <use xlink:href="#m03c58f6e9f" x="379.090996" y="198.907885" style="stroke: #000000; stroke-width: 2"/>
      </g>
     </g>
     <g id="text_8">
      <!-- 7 -->
      <g transform="translate(374.086153 224.791947) scale(0.18 -0.18)">
       <defs>
        <path id="Arial-BoldMT-37" d="M 272 3703 
L 272 4519 
L 3275 4519 
L 3275 3881 
Q 2903 3516 2518 2831 
Q 2134 2147 1932 1376 
Q 1731 606 1734 0 
L 888 0 
Q 909 950 1279 1937 
Q 1650 2925 2269 3703 
L 272 3703 
z
" transform="scale(0.015625)"/>
       </defs>
       <use xlink:href="#Arial-BoldMT-37"/>
      </g>
     </g>
    </g>
    <g id="xtick_9">
     <g id="line2d_9">
      <g>
       <use xlink:href="#m03c58f6e9f" x="271.636495" y="198.907885" style="stroke: #000000; stroke-width: 2"/>
      </g>
     </g>
     <g id="text_9">
      <!-- 8 -->
      <g transform="translate(266.631651 224.791947) scale(0.18 -0.18)">
       <defs>
        <path id="Arial-BoldMT-38" d="M 1025 2472 
Q 684 2616 529 2867 
Q 375 3119 375 3419 
Q 375 3931 733 4265 
Q 1091 4600 1750 4600 
Q 2403 4600 2764 4265 
Q 3125 3931 3125 3419 
Q 3125 3100 2959 2851 
Q 2794 2603 2494 2472 
Q 2875 2319 3073 2025 
Q 3272 1731 3272 1347 
Q 3272 713 2867 316 
Q 2463 -81 1791 -81 
Q 1166 -81 750 247 
Q 259 634 259 1309 
Q 259 1681 443 1992 
Q 628 2303 1025 2472 
z
M 1206 3356 
Q 1206 3094 1354 2947 
Q 1503 2800 1750 2800 
Q 2000 2800 2150 2948 
Q 2300 3097 2300 3359 
Q 2300 3606 2151 3754 
Q 2003 3903 1759 3903 
Q 1506 3903 1356 3753 
Q 1206 3603 1206 3356 
z
M 1125 1394 
Q 1125 1031 1311 828 
Q 1497 625 1775 625 
Q 2047 625 2225 820 
Q 2403 1016 2403 1384 
Q 2403 1706 2222 1901 
Q 2041 2097 1763 2097 
Q 1441 2097 1283 1875 
Q 1125 1653 1125 1394 
z
" transform="scale(0.015625)"/>
       </defs>
       <use xlink:href="#Arial-BoldMT-38"/>
      </g>
     </g>
    </g>
    <g id="xtick_10">
     <g id="line2d_10">
      <g>
       <use xlink:href="#m03c58f6e9f" x="164.181993" y="198.907885" style="stroke: #000000; stroke-width: 2"/>
      </g>
     </g>
     <g id="text_10">
      <!-- 9 -->
      <g transform="translate(159.177149 224.791947) scale(0.18 -0.18)">
       <defs>
        <path id="Arial-BoldMT-39" d="M 291 1059 
L 1141 1153 
Q 1172 894 1303 769 
Q 1434 644 1650 644 
Q 1922 644 2112 894 
Q 2303 1144 2356 1931 
Q 2025 1547 1528 1547 
Q 988 1547 595 1964 
Q 203 2381 203 3050 
Q 203 3747 617 4173 
Q 1031 4600 1672 4600 
Q 2369 4600 2816 4061 
Q 3263 3522 3263 2288 
Q 3263 1031 2797 475 
Q 2331 -81 1584 -81 
Q 1047 -81 715 205 
Q 384 491 291 1059 
z
M 2278 2978 
Q 2278 3403 2083 3637 
Q 1888 3872 1631 3872 
Q 1388 3872 1227 3680 
Q 1066 3488 1066 3050 
Q 1066 2606 1241 2398 
Q 1416 2191 1678 2191 
Q 1931 2191 2104 2391 
Q 2278 2591 2278 2978 
z
" transform="scale(0.015625)"/>
       </defs>
       <use xlink:href="#Arial-BoldMT-39"/>
      </g>
     </g>
    </g>
    <g id="xtick_11">
     <g id="line2d_11">
      <g>
       <use xlink:href="#m03c58f6e9f" x="56.727491" y="198.907885" style="stroke: #000000; stroke-width: 2"/>
      </g>
     </g>
     <g id="text_11">
      <!-- 10 -->
      <g transform="translate(46.717803 224.791947) scale(0.18 -0.18)">
       <use xlink:href="#Arial-BoldMT-31"/>
       <use xlink:href="#Arial-BoldMT-30" x="55.615234"/>
      </g>
     </g>
    </g>
    <g id="text_12">
     <!-- Chemical Shift / ppm -->
     <g transform="translate(504.992813 245.447573) scale(0.18 -0.18)">
      <defs>
       <path id="Arial-BoldMT-43" d="M 3397 1684 
L 4294 1400 
Q 4088 650 3608 286 
Q 3128 -78 2391 -78 
Q 1478 -78 890 545 
Q 303 1169 303 2250 
Q 303 3394 893 4026 
Q 1484 4659 2447 4659 
Q 3288 4659 3813 4163 
Q 4125 3869 4281 3319 
L 3366 3100 
Q 3284 3456 3026 3662 
Q 2769 3869 2400 3869 
Q 1891 3869 1573 3503 
Q 1256 3138 1256 2319 
Q 1256 1450 1568 1081 
Q 1881 713 2381 713 
Q 2750 713 3015 947 
Q 3281 1181 3397 1684 
z
" transform="scale(0.015625)"/>
       <path id="Arial-BoldMT-68" d="M 1334 4581 
L 1334 2897 
Q 1759 3394 2350 3394 
Q 2653 3394 2897 3281 
Q 3141 3169 3264 2994 
Q 3388 2819 3433 2606 
Q 3478 2394 3478 1947 
L 3478 0 
L 2600 0 
L 2600 1753 
Q 2600 2275 2550 2415 
Q 2500 2556 2373 2639 
Q 2247 2722 2056 2722 
Q 1838 2722 1666 2615 
Q 1494 2509 1414 2295 
Q 1334 2081 1334 1663 
L 1334 0 
L 456 0 
L 456 4581 
L 1334 4581 
z
" transform="scale(0.015625)"/>
       <path id="Arial-BoldMT-65" d="M 2381 1056 
L 3256 909 
Q 3088 428 2723 176 
Q 2359 -75 1813 -75 
Q 947 -75 531 491 
Q 203 944 203 1634 
Q 203 2459 634 2926 
Q 1066 3394 1725 3394 
Q 2466 3394 2894 2905 
Q 3322 2416 3303 1406 
L 1103 1406 
Q 1113 1016 1316 798 
Q 1519 581 1822 581 
Q 2028 581 2168 693 
Q 2309 806 2381 1056 
z
M 2431 1944 
Q 2422 2325 2234 2523 
Q 2047 2722 1778 2722 
Q 1491 2722 1303 2513 
Q 1116 2303 1119 1944 
L 2431 1944 
z
" transform="scale(0.015625)"/>
       <path id="Arial-BoldMT-6d" d="M 394 3319 
L 1203 3319 
L 1203 2866 
Q 1638 3394 2238 3394 
Q 2556 3394 2790 3262 
Q 3025 3131 3175 2866 
Q 3394 3131 3647 3262 
Q 3900 3394 4188 3394 
Q 4553 3394 4806 3245 
Q 5059 3097 5184 2809 
Q 5275 2597 5275 2122 
L 5275 0 
L 4397 0 
L 4397 1897 
Q 4397 2391 4306 2534 
Q 4184 2722 3931 2722 
Q 3747 2722 3584 2609 
Q 3422 2497 3350 2280 
Q 3278 2063 3278 1594 
L 3278 0 
L 2400 0 
L 2400 1819 
Q 2400 2303 2353 2443 
Q 2306 2584 2207 2653 
Q 2109 2722 1941 2722 
Q 1738 2722 1575 2612 
Q 1413 2503 1342 2297 
Q 1272 2091 1272 1613 
L 1272 0 
L 394 0 
L 394 3319 
z
" transform="scale(0.015625)"/>
       <path id="Arial-BoldMT-69" d="M 459 3769 
L 459 4581 
L 1338 4581 
L 1338 3769 
L 459 3769 
z
M 459 0 
L 459 3319 
L 1338 3319 
L 1338 0 
L 459 0 
z
" transform="scale(0.015625)"/>
       <path id="Arial-BoldMT-63" d="M 3353 2338 
L 2488 2181 
Q 2444 2441 2289 2572 
Q 2134 2703 1888 2703 
Q 1559 2703 1364 2476 
Q 1169 2250 1169 1719 
Q 1169 1128 1367 884 
Q 1566 641 1900 641 
Q 2150 641 2309 783 
Q 2469 925 2534 1272 
L 3397 1125 
Q 3263 531 2881 228 
Q 2500 -75 1859 -75 
Q 1131 -75 698 384 
Q 266 844 266 1656 
Q 266 2478 700 2936 
Q 1134 3394 1875 3394 
Q 2481 3394 2839 3133 
Q 3197 2872 3353 2338 
z
" transform="scale(0.015625)"/>
       <path id="Arial-BoldMT-61" d="M 1116 2306 
L 319 2450 
Q 453 2931 781 3162 
Q 1109 3394 1756 3394 
Q 2344 3394 2631 3255 
Q 2919 3116 3036 2902 
Q 3153 2688 3153 2116 
L 3144 1091 
Q 3144 653 3186 445 
Q 3228 238 3344 0 
L 2475 0 
Q 2441 88 2391 259 
Q 2369 338 2359 363 
Q 2134 144 1878 34 
Q 1622 -75 1331 -75 
Q 819 -75 523 203 
Q 228 481 228 906 
Q 228 1188 362 1408 
Q 497 1628 739 1745 
Q 981 1863 1438 1950 
Q 2053 2066 2291 2166 
L 2291 2253 
Q 2291 2506 2166 2614 
Q 2041 2722 1694 2722 
Q 1459 2722 1328 2630 
Q 1197 2538 1116 2306 
z
M 2291 1594 
Q 2122 1538 1756 1459 
Q 1391 1381 1278 1306 
Q 1106 1184 1106 997 
Q 1106 813 1243 678 
Q 1381 544 1594 544 
Q 1831 544 2047 700 
Q 2206 819 2256 991 
Q 2291 1103 2291 1419 
L 2291 1594 
z
" transform="scale(0.015625)"/>
       <path id="Arial-BoldMT-6c" d="M 459 0 
L 459 4581 
L 1338 4581 
L 1338 0 
L 459 0 
z
" transform="scale(0.015625)"/>
       <path id="Arial-BoldMT-20" transform="scale(0.015625)"/>
       <path id="Arial-BoldMT-53" d="M 231 1491 
L 1131 1578 
Q 1213 1125 1461 912 
Q 1709 700 2131 700 
Q 2578 700 2804 889 
Q 3031 1078 3031 1331 
Q 3031 1494 2936 1608 
Q 2841 1722 2603 1806 
Q 2441 1863 1863 2006 
Q 1119 2191 819 2459 
Q 397 2838 397 3381 
Q 397 3731 595 4036 
Q 794 4341 1167 4500 
Q 1541 4659 2069 4659 
Q 2931 4659 3367 4281 
Q 3803 3903 3825 3272 
L 2900 3231 
Q 2841 3584 2645 3739 
Q 2450 3894 2059 3894 
Q 1656 3894 1428 3728 
Q 1281 3622 1281 3444 
Q 1281 3281 1419 3166 
Q 1594 3019 2269 2859 
Q 2944 2700 3267 2529 
Q 3591 2359 3773 2064 
Q 3956 1769 3956 1334 
Q 3956 941 3737 597 
Q 3519 253 3119 86 
Q 2719 -81 2122 -81 
Q 1253 -81 787 320 
Q 322 722 231 1491 
z
" transform="scale(0.015625)"/>
       <path id="Arial-BoldMT-66" d="M 75 3319 
L 563 3319 
L 563 3569 
Q 563 3988 652 4194 
Q 741 4400 980 4529 
Q 1219 4659 1584 4659 
Q 1959 4659 2319 4547 
L 2200 3934 
Q 1991 3984 1797 3984 
Q 1606 3984 1523 3895 
Q 1441 3806 1441 3553 
L 1441 3319 
L 2097 3319 
L 2097 2628 
L 1441 2628 
L 1441 0 
L 563 0 
L 563 2628 
L 75 2628 
L 75 3319 
z
" transform="scale(0.015625)"/>
       <path id="Arial-BoldMT-74" d="M 1981 3319 
L 1981 2619 
L 1381 2619 
L 1381 1281 
Q 1381 875 1398 808 
Q 1416 741 1477 697 
Q 1538 653 1625 653 
Q 1747 653 1978 738 
L 2053 56 
Q 1747 -75 1359 -75 
Q 1122 -75 931 4 
Q 741 84 652 211 
Q 563 338 528 553 
Q 500 706 500 1172 
L 500 2619 
L 97 2619 
L 97 3319 
L 500 3319 
L 500 3978 
L 1381 4491 
L 1381 3319 
L 1981 3319 
z
" transform="scale(0.015625)"/>
       <path id="Arial-BoldMT-2f" d="M -9 -78 
L 1125 4659 
L 1784 4659 
L 638 -78 
L -9 -78 
z
" transform="scale(0.015625)"/>
       <path id="Arial-BoldMT-70" d="M 434 3319 
L 1253 3319 
L 1253 2831 
Q 1413 3081 1684 3237 
Q 1956 3394 2288 3394 
Q 2866 3394 3269 2941 
Q 3672 2488 3672 1678 
Q 3672 847 3265 386 
Q 2859 -75 2281 -75 
Q 2006 -75 1782 34 
Q 1559 144 1313 409 
L 1313 -1263 
L 434 -1263 
L 434 3319 
z
M 1303 1716 
Q 1303 1156 1525 889 
Q 1747 622 2066 622 
Q 2372 622 2575 867 
Q 2778 1113 2778 1672 
Q 2778 2194 2568 2447 
Q 2359 2700 2050 2700 
Q 1728 2700 1515 2451 
Q 1303 2203 1303 1716 
z
" transform="scale(0.015625)"/>
      </defs>
      <use xlink:href="#Arial-BoldMT-43"/>
      <use xlink:href="#Arial-BoldMT-68" x="72.216797"/>
      <use xlink:href="#Arial-BoldMT-65" x="133.300781"/>
      <use xlink:href="#Arial-BoldMT-6d" x="188.916016"/>
      <use xlink:href="#Arial-BoldMT-69" x="277.832031"/>
      <use xlink:href="#Arial-BoldMT-63" x="305.615234"/>
      <use xlink:href="#Arial-BoldMT-61" x="361.230469"/>
      <use xlink:href="#Arial-BoldMT-6c" x="416.845703"/>
      <use xlink:href="#Arial-BoldMT-20" x="444.628906"/>
      <use xlink:href="#Arial-BoldMT-53" x="472.412109"/>
      <use xlink:href="#Arial-BoldMT-68" x="539.111328"/>
      <use xlink:href="#Arial-BoldMT-69" x="600.195312"/>
      <use xlink:href="#Arial-BoldMT-66" x="627.978516"/>
      <use xlink:href="#Arial-BoldMT-74" x="661.279297"/>
      <use xlink:href="#Arial-BoldMT-20" x="694.580078"/>
      <use xlink:href="#Arial-BoldMT-2f" x="722.363281"/>
      <use xlink:href="#Arial-BoldMT-20" x="750.146484"/>
      <use xlink:href="#Arial-BoldMT-70" x="777.929688"/>
      <use xlink:href="#Arial-BoldMT-70" x="839.013672"/>
      <use xlink:href="#Arial-BoldMT-6d" x="900.097656"/>
     </g>
    </g>
   </g>
   <g id="matplotlib.axis_2"/>
   <g id="line2d_12">
    <path d="M 3.010856 188.129008 
L 3.420095 188.093968 
L 4.033955 187.760558 
L 4.238574 187.869695 
L 4.443194 188.148019 
L 4.852434 189.247353 
L 5.875532 192.485356 
L 6.080152 192.678604 
L 6.284772 192.560266 
L 6.489391 192.11206 
L 7.51249 188.579654 
L 7.921729 188.179112 
L 8.535589 187.862935 
L 9.149448 188.184974 
L 9.558687 188.628266 
L 10.377166 189.891806 
L 10.786406 190.116044 
L 11.195645 190.094237 
L 11.400265 189.964309 
L 11.809504 189.274854 
L 12.218744 188.325255 
L 12.423363 188.132194 
L 12.832603 188.358092 
L 13.037223 188.443914 
L 13.446462 188.234604 
L 13.855702 187.921341 
L 14.060321 187.921748 
L 14.469561 188.353213 
L 15.28804 189.707149 
L 15.697279 189.484571 
L 16.924997 188.686486 
L 17.129617 188.788032 
L 17.538857 189.603586 
L 17.948096 190.465482 
L 18.152716 190.549796 
L 18.561955 190.179262 
L 19.380434 189.291967 
L 19.585054 189.319434 
L 20.198913 189.651775 
L 20.608153 189.43589 
L 21.017392 189.196809 
L 21.426631 189.424114 
L 23.063589 190.414582 
L 23.472829 190.204001 
L 24.495927 188.778916 
L 24.700547 188.755923 
L 25.519026 189.438449 
L 26.132885 189.263992 
L 26.951364 189.493331 
L 27.565223 188.973452 
L 27.769843 189.062747 
L 28.179082 189.876471 
L 28.588322 190.706767 
L 28.792942 190.855485 
L 28.997561 190.819868 
L 29.81604 190.169875 
L 30.02066 190.256968 
L 30.634519 190.817852 
L 30.839139 190.734199 
L 31.248378 190.031018 
L 31.862237 188.91208 
L 32.271477 188.623352 
L 32.680716 188.602155 
L 33.908435 189.137725 
L 34.317674 190.159167 
L 34.726914 191.136808 
L 34.931533 191.332631 
L 35.136153 191.365604 
L 35.545393 191.116458 
L 36.159252 190.622182 
L 36.568491 190.365038 
L 38.205449 187.915224 
L 38.614688 188.545359 
L 39.023928 189.110614 
L 39.433167 189.377027 
L 40.251646 190.499354 
L 40.660886 190.834491 
L 41.070125 191.436516 
L 41.274745 191.535622 
L 41.479365 191.42457 
L 42.297844 190.464872 
L 42.502463 190.488086 
L 43.320942 191.16912 
L 43.525562 191.043717 
L 44.75328 189.230748 
L 44.9579 189.186456 
L 45.16252 189.345138 
L 46.185618 190.945662 
L 46.594858 190.784371 
L 47.004097 190.500726 
L 47.617956 190.448504 
L 47.822576 190.579787 
L 48.845675 191.809354 
L 49.664154 192.219706 
L 50.482633 192.121803 
L 51.096492 192.515432 
L 52.11959 193.361079 
L 52.32421 193.239335 
L 52.73345 192.506807 
L 53.347309 191.38343 
L 53.756548 191.142959 
L 54.165788 191.133809 
L 54.984267 191.543484 
L 55.598126 190.98526 
L 56.007365 191.041684 
L 56.416605 191.077182 
L 56.825844 190.662915 
L 57.235084 190.267168 
L 58.258182 190.155287 
L 59.076661 189.534149 
L 59.485901 189.713045 
L 59.69052 189.82225 
L 59.89514 189.788345 
L 60.09976 189.493653 
L 60.918239 187.552349 
L 61.327478 187.256454 
L 61.736718 186.978011 
L 62.145957 186.257785 
L 62.759816 185.040486 
L 63.578295 184.058236 
L 63.987535 183.232499 
L 64.396774 181.87431 
L 64.806013 179.668661 
L 65.419873 175.030498 
L 65.829112 170.622488 
L 66.238352 163.900708 
L 67.26145 142.568953 
L 67.46607 140.772115 
L 67.67069 140.217669 
L 67.875309 140.87727 
L 68.079929 142.745748 
L 68.489169 149.508092 
L 69.307647 165.049485 
L 69.921507 171.79907 
L 70.944605 179.016567 
L 71.763084 182.787868 
L 72.376943 185.10118 
L 72.786183 185.782571 
L 72.990803 185.692292 
L 73.809281 184.436835 
L 74.218521 184.502392 
L 74.62776 184.924317 
L 75.037 185.903467 
L 75.650859 187.448888 
L 76.469338 188.84 
L 77.083197 189.783855 
L 77.287817 189.821843 
L 77.697056 189.527626 
L 78.515535 188.704837 
L 78.720155 188.770139 
L 79.334014 189.34019 
L 79.743254 189.295746 
L 80.561732 188.891425 
L 80.970972 188.62342 
L 81.380211 188.739928 
L 81.994071 189.12766 
L 82.40331 188.959185 
L 83.017169 188.279167 
L 83.221789 188.250938 
L 83.631028 188.736556 
L 84.040268 189.383652 
L 84.244888 189.514087 
L 84.654127 189.285528 
L 85.267986 188.718256 
L 85.472606 188.696195 
L 85.677226 188.843321 
L 86.291085 189.892653 
L 86.700324 190.373442 
L 87.109564 190.246141 
L 87.518803 190.137699 
L 88.132662 190.346535 
L 89.360381 190.229519 
L 90.17886 190.350313 
L 90.588099 190.851571 
L 90.997339 191.325108 
L 91.201958 191.192266 
L 91.611198 190.069651 
L 92.020437 188.759922 
L 92.429677 188.106066 
L 93.043536 187.579951 
L 93.248156 187.533778 
L 93.452775 187.668874 
L 94.066634 188.490528 
L 94.475874 188.590227 
L 94.885113 188.651547 
L 95.498973 188.952966 
L 95.908212 188.61849 
L 96.112832 188.429207 
L 96.317451 188.398995 
L 97.13593 188.85586 
L 97.954409 188.459503 
L 98.772888 188.338048 
L 99.182128 188.642686 
L 99.591367 188.947917 
L 100.205226 188.922941 
L 101.023705 189.368012 
L 102.660663 190.733708 
L 103.274522 190.714391 
L 103.888381 190.55693 
L 104.297621 190.130735 
L 104.91148 189.366216 
L 105.320719 189.36769 
L 106.139198 189.623868 
L 106.957677 190.358396 
L 107.366917 190.266135 
L 107.980776 189.960446 
L 108.390015 190.004569 
L 109.003874 190.315036 
L 109.413114 190.087137 
L 110.231593 189.32328 
L 110.436213 189.426215 
L 111.254691 190.563436 
L 111.459311 190.371493 
L 111.868551 189.28807 
L 112.27779 188.077007 
L 112.48241 187.783094 
L 112.891649 187.7 
L 113.300889 187.89196 
L 114.937847 189.093433 
L 115.960945 189.209805 
L 116.370185 189.490959 
L 116.984044 190.161793 
L 117.393283 190.473327 
L 118.007142 191.126675 
L 119.234861 191.156717 
L 119.6441 190.807838 
L 120.667199 189.041703 
L 121.281058 188.72151 
L 121.690298 188.167014 
L 122.099537 187.523595 
L 122.304157 187.401377 
L 122.508776 187.4598 
L 122.918016 188.105354 
L 123.736495 190.072413 
L 124.145734 190.300396 
L 125.168833 190.738333 
L 125.578072 191.174492 
L 126.191932 192.179108 
L 126.601171 192.304461 
L 127.01041 192.007329 
L 127.828889 191.14728 
L 128.851988 191.387954 
L 129.261227 191.771331 
L 129.670467 192.080324 
L 129.875087 191.990215 
L 130.284326 191.329801 
L 131.512044 189.021742 
L 131.921284 188.556813 
L 132.535143 187.294087 
L 132.944383 186.545377 
L 133.353622 186.256413 
L 133.967481 186.360144 
L 134.58134 186.60153 
L 135.1952 186.882464 
L 135.604439 186.951274 
L 136.422918 187.459665 
L 136.832157 187.597522 
L 137.241397 187.561109 
L 137.446017 187.708794 
L 138.264495 188.961659 
L 138.878355 188.866636 
L 139.901453 189.724635 
L 140.310693 189.650098 
L 140.924552 189.316417 
L 141.333791 188.771495 
L 141.94765 187.989236 
L 142.35689 187.364253 
L 142.970749 186.21251 
L 143.175369 185.99915 
L 143.379989 185.958755 
L 143.584608 186.115285 
L 144.403087 187.49213 
L 145.016946 188.581534 
L 145.221566 188.747434 
L 145.426186 188.745977 
L 146.244665 188.156085 
L 147.063144 187.600013 
L 147.472383 187.257657 
L 147.677003 187.203419 
L 148.290862 187.434401 
L 148.700101 187.377333 
L 149.92782 188.298314 
L 150.337059 188.745469 
L 150.950918 189.480115 
L 151.769397 189.914968 
L 153.201735 191.53225 
L 153.610975 191.656789 
L 154.020214 191.509951 
L 154.429454 191.172018 
L 155.043313 190.531852 
L 155.861792 190.006754 
L 156.475651 189.374163 
L 156.680271 189.332819 
L 156.884891 189.501752 
L 157.907989 191.166155 
L 158.112609 191.104936 
L 158.521848 190.536343 
L 159.544947 188.559185 
L 160.158806 187.727924 
L 160.363426 187.659334 
L 160.568046 187.806528 
L 161.386525 189.192895 
L 162.409623 191.29798 
L 162.818863 191.541027 
L 163.228102 191.506512 
L 163.841961 191.170205 
L 164.251201 191.311858 
L 164.66044 191.508342 
L 164.86506 191.467727 
L 165.274299 191.039108 
L 165.888159 190.249445 
L 166.092778 190.130413 
L 166.502018 190.255646 
L 167.934356 191.405406 
L 168.138976 191.338816 
L 168.957454 190.674132 
L 169.162074 190.747331 
L 169.775933 191.593672 
L 170.389793 192.147863 
L 170.594412 192.228365 
L 170.799032 192.184479 
L 171.208271 191.678681 
L 171.822131 190.826053 
L 172.23137 190.62169 
L 172.64061 190.36353 
L 173.459088 189.485096 
L 173.868328 189.422979 
L 174.686807 189.721433 
L 175.096046 190.149221 
L 175.914525 191.090686 
L 176.323765 191.060577 
L 176.937624 190.796536 
L 177.756103 190.882613 
L 178.165342 190.361615 
L 178.983821 189.260688 
L 179.393061 188.796047 
L 179.8023 188.725847 
L 180.416159 188.79947 
L 180.825399 188.652361 
L 181.234638 188.437357 
L 181.643877 188.606425 
L 182.257737 188.971706 
L 182.666976 188.97435 
L 183.076216 188.505998 
L 183.485455 187.308371 
L 183.894694 185.984748 
L 184.099314 185.848856 
L 184.508554 186.459183 
L 184.917793 187.099162 
L 185.122413 187.197116 
L 185.327033 187.050448 
L 186.759371 184.604446 
L 187.37323 183.98641 
L 187.987089 183.670962 
L 188.396328 182.889974 
L 189.010188 181.51057 
L 189.624047 180.344883 
L 190.237906 178.391769 
L 190.647145 176.503196 
L 191.465624 170.755008 
L 192.284103 163.3404 
L 193.102582 154.877969 
L 195.148779 130.306127 
L 195.353399 129.40941 
L 195.558019 129.242358 
L 195.762639 129.764135 
L 196.171878 132.13809 
L 196.785737 137.45461 
L 199.036554 158.822524 
L 200.264273 167.962347 
L 201.082752 172.156862 
L 201.696611 174.130292 
L 202.51509 175.621119 
L 203.742808 177.602377 
L 204.152047 177.810603 
L 204.561287 178.500296 
L 205.175146 179.710072 
L 205.584386 179.956202 
L 206.402864 180.205077 
L 207.016724 179.946273 
L 207.425963 180.085842 
L 207.835203 180.568529 
L 208.449062 181.397638 
L 208.858301 181.496981 
L 209.267541 181.603949 
L 209.8814 182.005796 
L 210.290639 181.941595 
L 210.699879 181.840659 
L 210.904498 181.948118 
L 211.313738 182.640895 
L 212.132217 185.078119 
L 212.336837 185.31837 
L 212.541456 185.360052 
L 212.950696 185.03076 
L 213.564555 184.266428 
L 213.973794 184.026381 
L 214.178414 184.130587 
L 214.587654 184.949225 
L 214.996893 185.653728 
L 215.201513 185.638478 
L 215.610752 185.065445 
L 216.224611 183.976413 
L 216.633851 183.67008 
L 216.838471 183.690363 
L 217.24771 184.073113 
L 218.066189 185.363034 
L 218.680048 185.972582 
L 219.089287 186.895595 
L 219.498527 187.93637 
L 219.907766 188.453589 
L 220.726245 189.364928 
L 221.135485 189.723805 
L 221.953964 189.559108 
L 222.567823 190.221453 
L 222.772443 190.162386 
L 223.386302 189.442363 
L 224.000161 188.223404 
L 224.81864 186.682862 
L 225.02326 186.604817 
L 225.227879 186.787729 
L 225.637119 187.723823 
L 226.250978 189.102295 
L 226.455598 189.236441 
L 226.660217 189.186151 
L 226.864837 188.957863 
L 227.887936 187.096824 
L 228.092555 187.256335 
L 228.501795 188.231367 
L 228.911034 189.259112 
L 229.320274 189.765487 
L 229.729513 189.748238 
L 230.343372 189.353949 
L 230.752612 189.105548 
L 231.366471 189.234882 
L 231.775711 189.434416 
L 233.208049 191.026739 
L 234.026528 191.180049 
L 234.231147 191.095075 
L 234.640387 190.61149 
L 235.049626 189.922898 
L 236.481964 186.777275 
L 236.686584 186.750062 
L 237.300443 187.249795 
L 237.709683 187.829928 
L 238.323542 189.307945 
L 238.732781 190.227028 
L 239.142021 190.712426 
L 239.55126 190.952524 
L 239.9605 190.889 
L 240.778979 190.186311 
L 241.188218 190.391962 
L 241.392838 190.491576 
L 241.597457 190.464669 
L 243.234415 189.220937 
L 243.643655 188.675269 
L 243.848274 188.632231 
L 244.257514 189.083555 
L 244.462134 189.329414 
L 244.666753 189.377721 
L 244.871373 189.202706 
L 246.099091 187.371674 
L 246.303711 187.358695 
L 246.508331 187.501754 
L 246.91757 188.377798 
L 248.145289 192.355903 
L 248.349908 192.431948 
L 248.554528 192.212047 
L 249.577627 189.84648 
L 249.986866 189.760048 
L 250.396106 189.73514 
L 251.214585 189.421064 
L 251.623824 189.428011 
L 253.260782 188.786914 
L 254.079261 187.499568 
L 254.4885 187.552671 
L 255.102359 187.941589 
L 255.920838 188.850963 
L 256.125458 188.860333 
L 256.330078 188.673321 
L 257.148557 187.408595 
L 257.353176 187.378875 
L 257.762416 187.769657 
L 258.990134 189.353779 
L 259.399374 189.63661 
L 259.603993 189.517442 
L 260.013233 188.587448 
L 260.627092 186.91991 
L 260.831712 186.635554 
L 261.240951 186.556967 
L 261.650191 186.748165 
L 263.696388 188.518841 
L 264.310247 188.375375 
L 264.924106 188.574689 
L 266.151825 189.369351 
L 266.561064 189.330312 
L 266.970304 189.144469 
L 267.174923 189.1861 
L 267.584163 189.630646 
L 267.993402 190.042066 
L 268.811881 190.329455 
L 269.016501 190.113672 
L 270.244219 187.962295 
L 270.448839 187.898026 
L 271.267318 188.326678 
L 272.085797 188.022582 
L 272.495036 187.359576 
L 273.108895 186.081109 
L 273.518135 185.789247 
L 273.722755 185.426558 
L 274.131994 183.835692 
L 275.359712 177.575792 
L 275.768952 176.553638 
L 276.178191 176.185223 
L 276.79205 176.034894 
L 277.40591 175.678594 
L 277.610529 175.735848 
L 277.815149 175.984299 
L 278.224389 177.259886 
L 278.838248 179.70404 
L 279.452107 181.357124 
L 279.861346 181.899709 
L 280.065966 181.888509 
L 281.702924 180.259383 
L 282.112163 179.111877 
L 282.521403 177.150105 
L 282.930642 174.272673 
L 283.544501 167.352444 
L 284.158361 157.047916 
L 284.97684 142.888315 
L 285.386079 140.108024 
L 285.590699 140.109718 
L 285.795318 140.821795 
L 288.659995 155.855796 
L 288.864614 156.21674 
L 289.273854 156.365831 
L 289.683093 156.520887 
L 290.092333 156.861379 
L 290.296952 156.827067 
L 290.501572 156.462616 
L 290.910812 154.475665 
L 291.320051 150.732253 
L 291.729291 144.837109 
L 292.34315 131.155484 
L 293.161629 104.264519 
L 293.775488 84.845855 
L 294.389347 71.925564 
L 295.003206 64.178631 
L 295.412446 61.867709 
L 295.617065 61.631847 
L 295.821685 62.233803 
L 296.026305 63.962611 
L 296.435544 71.48273 
L 298.072502 113.482505 
L 299.30022 135.742001 
L 299.91408 143.538376 
L 300.527939 148.965745 
L 300.937178 151.228122 
L 301.346418 152.176078 
L 301.551037 152.203425 
L 301.755657 151.961565 
L 301.960277 151.414101 
L 302.369516 149.413408 
L 302.983375 146.082789 
L 303.187995 145.463261 
L 303.392615 145.260728 
L 303.597235 145.533342 
L 303.801854 146.298098 
L 304.824953 152.18538 
L 305.029573 152.518959 
L 305.438812 152.600697 
L 305.848052 152.663932 
L 306.052671 152.975196 
L 306.461911 154.357649 
L 306.87115 155.840394 
L 307.28039 156.503993 
L 308.303488 157.463538 
L 309.326587 159.139158 
L 310.758925 158.663893 
L 311.577404 157.793271 
L 311.986643 157.938804 
L 312.191263 158.050177 
L 312.395883 157.953003 
L 312.600503 157.515303 
L 313.623601 153.544823 
L 314.032841 151.499194 
L 314.6467 146.948531 
L 315.669799 139.255278 
L 316.283658 136.585377 
L 316.692897 135.382464 
L 316.897517 135.322228 
L 317.102137 135.894362 
L 317.511376 138.877204 
L 318.534475 148.659785 
L 319.352954 153.887907 
L 319.762193 155.19562 
L 320.171433 155.803202 
L 320.376052 155.903257 
L 320.580672 155.775176 
L 320.989911 155.176016 
L 321.194531 155.093379 
L 321.399151 155.315906 
L 322.42225 157.753791 
L 322.626869 157.921826 
L 322.831489 157.893394 
L 323.240728 157.459167 
L 323.649968 156.576616 
L 324.059207 154.830491 
L 325.696165 146.072419 
L 326.105405 145.266642 
L 326.310024 145.113603 
L 326.514644 145.210065 
L 326.719264 145.64597 
L 327.128503 147.495792 
L 327.742362 150.35933 
L 328.151602 151.422963 
L 328.560841 151.83623 
L 329.174701 151.758998 
L 329.37932 151.980339 
L 330.402419 153.94301 
L 330.607039 154.025765 
L 330.811658 153.95953 
L 331.220898 153.430315 
L 332.039377 151.772943 
L 332.448616 150.130991 
L 333.267095 146.227508 
L 333.676335 144.849952 
L 334.494813 140.830911 
L 335.108673 137.114796 
L 335.927151 130.249703 
L 336.95025 120.161247 
L 337.973349 107.603864 
L 338.996447 92.4022 
L 340.019546 72.990349 
L 341.247264 46.305593 
L 342.884222 3.831772 
L 343.088842 3.00024 
L 343.293462 3.684714 
L 343.702701 7.772159 
L 344.52118 16.784105 
L 344.930419 19.293765 
L 345.544279 21.436518 
L 345.953518 22.213558 
L 346.362758 22.483613 
L 346.771997 22.427951 
L 347.385856 22.181448 
L 347.999715 22.141935 
L 348.408955 22.44332 
L 348.818194 22.792131 
L 349.227434 22.80999 
L 350.045913 22.29677 
L 350.455152 22.776763 
L 350.864392 23.159785 
L 351.273631 23.208397 
L 351.478251 23.47813 
L 352.09211 25.255347 
L 353.115209 28.529153 
L 354.138307 33.590884 
L 356.184504 43.943652 
L 357.616843 53.231414 
L 358.435321 60.510418 
L 359.049181 65.27151 
L 359.66304 68.384363 
L 360.890758 73.054584 
L 361.504617 75.668806 
L 362.118477 77.647234 
L 362.527716 78.207695 
L 363.141575 78.313934 
L 363.550815 79.285798 
L 363.960054 80.506384 
L 364.164674 80.84774 
L 364.369294 80.96296 
L 364.778533 80.7832 
L 365.187772 80.392977 
L 365.597012 79.360165 
L 367.23397 72.424687 
L 367.643209 68.768435 
L 368.257068 59.160192 
L 369.075547 45.685879 
L 369.894026 36.902204 
L 370.303266 33.96557 
L 370.507885 33.521498 
L 370.712505 33.85484 
L 371.121745 35.920395 
L 372.144843 41.983981 
L 372.349463 42.515975 
L 372.554083 42.691584 
L 372.758702 42.598611 
L 373.167942 42.172924 
L 373.372561 42.169705 
L 373.577181 42.493846 
L 373.781801 43.226763 
L 374.19104 45.993008 
L 374.8049 52.508527 
L 376.851097 75.832097 
L 377.464956 80.548914 
L 377.874195 82.358545 
L 378.078815 82.589595 
L 378.283435 82.320708 
L 378.692674 80.534664 
L 379.101914 77.342918 
L 380.125012 67.871567 
L 380.943491 63.34122 
L 381.148111 62.69553 
L 381.352731 62.433812 
L 381.557351 62.52126 
L 382.17121 63.159206 
L 382.580449 63.091463 
L 382.785069 63.186198 
L 382.989689 63.475824 
L 383.194308 64.041808 
L 383.398928 65.017246 
L 383.808168 68.687358 
L 384.422027 77.925321 
L 385.854365 100.807039 
L 386.468224 106.519051 
L 387.900562 116.472751 
L 389.74214 126.798882 
L 390.151379 127.866141 
L 390.355999 128.067657 
L 390.560619 128.027618 
L 391.174478 127.633515 
L 391.788337 127.572482 
L 393.016055 126.520253 
L 393.629914 124.964614 
L 394.039154 124.089163 
L 394.243774 123.949594 
L 394.448393 124.011982 
L 394.857633 124.493975 
L 395.266872 125.252766 
L 396.289971 127.488948 
L 396.69921 127.687855 
L 397.10845 127.728826 
L 397.517689 128.145261 
L 397.926929 129.052601 
L 398.336168 130.045628 
L 398.950027 130.922316 
L 399.359267 132.241466 
L 399.973126 134.477547 
L 400.177746 134.753346 
L 400.382365 134.719559 
L 400.996225 133.937165 
L 402.019323 132.301364 
L 402.223943 132.24943 
L 402.633182 132.535921 
L 403.860901 134.053063 
L 404.27014 135.679376 
L 404.67938 137.319667 
L 405.088619 137.971795 
L 405.907098 138.257066 
L 406.316338 138.310559 
L 406.520957 138.49957 
L 407.544056 140.048228 
L 407.953295 139.873365 
L 408.362535 139.749165 
L 408.567155 139.99011 
L 408.976394 141.335066 
L 409.794873 145.101657 
L 410.204112 146.091752 
L 411.431831 148.08216 
L 411.63645 148.188518 
L 412.04569 148.028007 
L 412.454929 147.830692 
L 412.659549 147.878339 
L 412.864169 148.060692 
L 413.682648 149.434114 
L 414.296507 149.61977 
L 414.501127 149.885047 
L 414.910366 151.116766 
L 415.728845 153.958954 
L 416.342704 155.299996 
L 416.751944 155.785089 
L 416.956563 155.878518 
L 417.570422 155.713059 
L 417.775042 155.91932 
L 418.184282 156.922937 
L 419.002761 159.720189 
L 420.230479 162.063051 
L 421.662817 163.513281 
L 422.072056 163.89027 
L 422.890535 164.861795 
L 424.118254 165.460058 
L 424.936733 166.515303 
L 425.141352 166.534992 
L 425.959831 166.067402 
L 426.369071 166.392746 
L 426.77831 167.044332 
L 427.596789 168.992922 
L 427.801409 169.106007 
L 428.006029 168.986347 
L 428.619888 168.339947 
L 428.824507 168.374157 
L 429.438367 168.935515 
L 429.642986 168.884835 
L 430.052226 168.232894 
L 430.461465 167.59693 
L 430.666085 167.686548 
L 431.075324 168.715004 
L 431.689184 170.488138 
L 432.303043 171.307013 
L 432.916902 171.861712 
L 433.530761 172.269862 
L 434.34924 173.576355 
L 434.75848 174.142322 
L 434.963099 174.286381 
L 435.372339 174.131308 
L 435.576958 174.053094 
L 435.781578 174.161943 
L 436.804677 175.881804 
L 437.418536 176.821338 
L 438.032395 177.062199 
L 438.850874 177.235978 
L 439.260114 177.112997 
L 439.464733 177.16793 
L 439.873973 177.658327 
L 440.283212 178.157195 
L 440.692452 178.309523 
L 441.101691 178.262198 
L 441.510931 178.578799 
L 442.12479 179.181551 
L 442.738649 179.593649 
L 443.147888 179.430528 
L 444.170987 178.753425 
L 444.375607 178.792718 
L 444.784846 179.416651 
L 445.603325 181.065974 
L 445.807945 181.169485 
L 446.217184 180.983676 
L 446.831043 180.588268 
L 447.240283 180.731328 
L 447.444903 180.810186 
L 447.649522 180.734818 
L 448.058762 180.308674 
L 448.263382 180.264009 
L 448.672621 180.652165 
L 449.4911 181.833559 
L 449.69572 181.735673 
L 450.104959 181.187904 
L 450.309579 181.084511 
L 450.718818 181.325591 
L 451.332677 182.092329 
L 452.151156 183.028034 
L 452.560396 183.011005 
L 452.969635 182.86332 
L 453.378875 183.062905 
L 453.992734 183.792637 
L 454.197354 183.796263 
L 454.811213 183.580531 
L 455.220452 183.57094 
L 455.425072 183.379828 
L 455.834311 182.328683 
L 456.448171 180.734208 
L 456.85741 180.314299 
L 457.06203 180.257536 
L 457.471269 180.525287 
L 457.880509 180.886112 
L 458.085128 180.871608 
L 458.494368 180.358286 
L 458.903607 179.522399 
L 459.517466 177.2455 
L 460.131326 175.027719 
L 460.540565 174.250188 
L 460.745185 174.214995 
L 461.154424 174.73562 
L 461.768283 175.624779 
L 463.200622 176.523766 
L 463.405241 176.955044 
L 463.814481 178.586966 
L 464.63296 182.429755 
L 465.246819 184.399948 
L 465.451439 184.699012 
L 466.883777 185.328079 
L 467.497636 185.068952 
L 467.906875 185.377555 
L 468.929974 186.468722 
L 469.339213 186.589229 
L 469.953073 186.634148 
L 470.566932 187.094587 
L 470.771551 187.019796 
L 471.99927 185.315997 
L 472.20389 185.281737 
L 472.408509 185.364864 
L 472.817749 185.959315 
L 473.431608 187.04533 
L 473.840847 187.256335 
L 474.250087 187.278176 
L 474.659326 186.94309 
L 475.682425 185.660031 
L 476.091664 185.303577 
L 476.705524 184.625254 
L 476.910143 184.615748 
L 477.114763 184.758282 
L 477.728622 185.576361 
L 477.933242 185.568295 
L 478.342481 185.299341 
L 478.547101 185.353935 
L 478.956341 185.951131 
L 479.36558 186.61273 
L 479.774819 186.812705 
L 480.593298 186.744115 
L 481.207158 186.967218 
L 481.616397 187.588694 
L 482.230256 188.780035 
L 482.434876 188.922535 
L 482.639496 188.865264 
L 483.048735 188.313106 
L 483.662594 187.414577 
L 484.071834 187.055277 
L 484.276453 186.981214 
L 484.481073 187.049278 
L 484.890313 187.606706 
L 485.504172 188.349722 
L 485.913411 188.548764 
L 486.118031 188.433663 
L 487.14113 187.102957 
L 487.345749 187.08071 
L 487.550369 187.232495 
L 487.959609 188.173927 
L 488.573468 190.259188 
L 488.982707 190.820394 
L 489.391947 191.29205 
L 489.801186 192.025747 
L 490.005806 192.139916 
L 490.415045 191.728564 
L 491.642764 190.34135 
L 492.461242 189.633984 
L 492.870482 189.597469 
L 494.916679 190.228163 
L 495.325919 190.072413 
L 495.735158 189.398851 
L 496.144398 188.648311 
L 496.349017 188.456097 
L 496.553637 188.424344 
L 497.372116 188.793217 
L 497.781355 188.83817 
L 498.190595 189.376688 
L 499.009074 190.744569 
L 499.418313 191.018284 
L 499.827553 190.74384 
L 500.646032 189.953872 
L 501.46451 188.651141 
L 501.87375 188.478413 
L 502.07837 188.530448 
L 502.282989 188.744672 
L 502.692229 189.648437 
L 503.101468 190.613574 
L 503.510708 190.976906 
L 503.919947 190.951829 
L 504.533806 190.75299 
L 505.147666 190.877106 
L 505.556905 190.463822 
L 505.966144 189.985744 
L 506.784623 189.680987 
L 506.989243 189.756846 
L 507.398483 190.369833 
L 508.216961 192.113738 
L 508.626201 192.228907 
L 509.03544 192.341805 
L 509.44468 192.800211 
L 509.853919 193.450865 
L 510.058539 193.607344 
L 510.467778 193.447375 
L 511.081638 193.136959 
L 511.900117 193.090803 
L 512.309356 192.822324 
L 513.127835 191.763927 
L 513.537074 191.534673 
L 513.946314 190.829239 
L 514.355553 190.029731 
L 514.764793 189.723042 
L 515.174032 189.684477 
L 515.583272 190.156896 
L 515.992511 190.540985 
L 516.401751 190.4055 
L 516.81099 190.221707 
L 517.629469 190.323169 
L 518.038708 190.543391 
L 518.447948 190.889898 
L 518.652568 190.934258 
L 518.857187 190.818327 
L 519.266427 190.142883 
L 520.084906 188.269559 
L 520.289525 188.250853 
L 521.721863 189.691323 
L 522.131103 190.957251 
L 522.540342 192.402872 
L 522.744962 192.762528 
L 522.949582 192.868632 
L 523.154202 192.797043 
L 523.563441 192.291549 
L 523.97268 191.755048 
L 524.1773 191.664143 
L 524.38192 191.747864 
L 524.791159 192.31361 
L 525.200399 192.937069 
L 525.405019 193.075587 
L 525.814258 192.893269 
L 526.018878 192.796992 
L 526.428117 193.005676 
L 526.837357 193.109916 
L 527.041976 192.980344 
L 527.246596 192.71688 
L 527.655835 191.562969 
L 528.678934 187.721519 
L 528.883554 187.589592 
L 529.292793 187.841178 
L 530.111272 188.818515 
L 530.520512 188.707565 
L 530.725131 188.6588 
L 530.929751 188.809077 
L 531.338991 189.720653 
L 531.95285 191.136181 
L 532.362089 191.489991 
L 532.975948 191.604177 
L 533.794427 191.71345 
L 534.203667 191.201094 
L 534.612906 190.607542 
L 535.431385 190.05252 
L 535.636005 189.990996 
L 536.045244 190.261052 
L 536.863723 191.218292 
L 537.682202 192.623213 
L 537.886822 192.757275 
L 538.091442 192.744025 
L 538.705301 192.384742 
L 540.137639 192.673215 
L 540.342259 192.331927 
L 540.956118 190.32083 
L 541.774597 187.914868 
L 542.183836 187.353934 
L 543.206935 186.867451 
L 543.411554 186.977249 
L 543.820794 187.674262 
L 544.434653 188.751569 
L 544.639273 188.831816 
L 544.843893 188.722306 
L 545.866991 187.493926 
L 546.276231 187.800445 
L 546.89009 188.280285 
L 547.708569 188.636094 
L 548.322428 188.447947 
L 548.527048 188.575062 
L 548.936287 189.291679 
L 549.550146 190.5673 
L 549.754766 190.79452 
L 549.959386 190.785133 
L 550.368625 190.071193 
L 550.777865 189.396902 
L 550.982484 189.351356 
L 551.596344 189.559125 
L 551.800963 189.488637 
L 552.210203 188.936852 
L 552.619442 188.380984 
L 552.824062 188.41838 
L 554.665639 189.984303 
L 554.870259 189.987608 
L 555.074879 189.818861 
L 555.688738 189.025962 
L 555.893358 189.131151 
L 556.302597 189.942113 
L 556.711837 190.879563 
L 556.916456 191.026383 
L 557.121076 190.897913 
L 558.553414 189.030875 
L 558.962654 188.941173 
L 559.781133 188.39176 
L 559.985752 188.510454 
L 560.394992 189.161125 
L 560.804231 189.775366 
L 561.008851 189.776077 
L 561.82733 189.008238 
L 562.03195 189.217345 
L 562.645809 190.563097 
L 563.055048 191.418623 
L 563.259668 191.583675 
L 563.464288 191.490296 
L 563.873527 190.805771 
L 564.487386 189.769113 
L 564.692006 189.717756 
L 565.101246 189.886977 
L 565.510485 189.660857 
L 565.715105 189.516222 
L 565.919724 189.513427 
L 566.942823 190.135716 
L 567.147443 189.952838 
L 567.556682 189.062408 
L 568.170541 187.805121 
L 568.375161 187.708421 
L 568.579781 187.858597 
L 568.98902 188.770834 
L 569.602879 190.221724 
L 569.807499 190.484612 
L 570.012119 190.516196 
L 570.216739 190.300074 
L 570.830598 188.850268 
L 571.444457 187.602538 
L 572.058316 186.67217 
L 572.262936 186.564541 
L 572.467556 186.642128 
L 573.286035 187.551604 
L 574.309133 190.150424 
L 574.718373 190.288501 
L 575.127612 190.481562 
L 576.150711 191.574017 
L 576.35533 191.606804 
L 576.96919 191.124676 
L 577.787669 190.421275 
L 577.992288 190.471972 
L 579.015387 191.194011 
L 579.424626 191.188606 
L 579.629246 191.041718 
L 580.038486 190.213185 
L 580.447725 189.465881 
L 580.652345 189.454664 
L 581.061584 189.948026 
L 581.470824 190.468244 
L 581.880063 190.578754 
L 582.903162 189.774163 
L 583.517021 189.305963 
L 584.13088 189.107039 
L 584.54012 188.600834 
L 585.563218 186.940633 
L 585.767838 186.95473 
L 585.972458 187.17414 
L 586.790937 188.652513 
L 588.632514 190.155795 
L 589.246373 190.394554 
L 589.860232 190.326219 
L 591.292571 189.823436 
L 592.724909 187.799326 
L 593.748007 185.923969 
L 593.952627 185.859666 
L 594.157247 186.014349 
L 594.566486 186.943022 
L 594.975726 188.022989 
L 595.384965 188.488308 
L 596.408064 189.162955 
L 596.817303 189.117121 
L 597.021923 188.955237 
L 597.840402 187.618448 
L 598.249641 187.756255 
L 598.454261 187.801021 
L 599.27274 187.338938 
L 599.681979 187.373419 
L 600.500458 187.05221 
L 600.909698 186.55263 
L 601.728177 185.086049 
L 601.932796 184.924538 
L 602.137416 184.939025 
L 602.751275 185.34282 
L 603.160515 185.120005 
L 603.569754 184.901697 
L 604.388233 185.049026 
L 604.797472 184.534501 
L 605.615951 183.060347 
L 605.820571 182.758843 
L 606.229811 181.511333 
L 606.84367 178.263028 
L 608.276008 168.338947 
L 608.685247 163.992426 
L 609.299106 153.863525 
L 610.322205 133.208856 
L 610.526825 131.164244 
L 610.731445 130.945835 
L 610.936064 132.646769 
L 611.345304 140.303508 
L 612.163783 157.548411 
L 612.777642 166.4388 
L 613.391501 172.042116 
L 614.00536 175.947937 
L 614.4146 177.639756 
L 614.823839 178.450582 
L 615.233079 178.868373 
L 615.846938 179.801045 
L 616.051557 179.821869 
L 616.665417 179.527754 
L 617.483896 179.785999 
L 618.097755 179.213762 
L 618.302374 179.226707 
L 618.711614 179.589413 
L 619.325473 180.197808 
L 619.734713 180.493331 
L 620.143952 181.195427 
L 620.553191 182.018961 
L 620.962431 182.336816 
L 621.37167 182.291948 
L 621.78091 182.099615 
L 621.98553 181.909858 
L 622.394769 181.035678 
L 622.804008 180.118984 
L 623.008628 180.005611 
L 623.417868 180.293238 
L 624.440966 181.379897 
L 624.850206 181.296702 
L 625.873304 180.466627 
L 626.487164 180.606331 
L 626.691783 180.507953 
L 627.101023 179.896068 
L 627.510262 179.085614 
L 627.714882 178.918596 
L 628.328741 179.080649 
L 629.14722 179.15295 
L 629.761079 178.763252 
L 630.170319 178.752543 
L 630.784178 178.869695 
L 630.988798 178.662113 
L 631.398037 177.749028 
L 632.011896 176.402277 
L 632.216516 176.269333 
L 632.421136 176.366406 
L 632.830375 177.162491 
L 633.239615 178.021337 
L 633.444234 178.176647 
L 633.853474 178.105702 
L 634.262713 178.068882 
L 635.285812 178.56792 
L 635.695051 178.568869 
L 636.104291 178.913038 
L 637.127389 179.892171 
L 637.332009 179.926059 
L 637.536629 179.745909 
L 638.150488 178.350748 
L 639.787446 174.731469 
L 640.196685 174.357021 
L 640.401305 174.457499 
L 640.605925 174.80975 
L 641.219784 176.844755 
L 641.629023 178.072051 
L 642.242883 179.040238 
L 642.652122 179.477362 
L 642.856742 179.513978 
L 643.061361 179.36265 
L 643.675221 178.566226 
L 643.87984 178.508565 
L 644.698319 178.728669 
L 645.107559 178.247084 
L 645.926038 177.081498 
L 646.335277 176.972361 
L 646.744516 177.106982 
L 647.358376 177.602462 
L 647.767615 177.675491 
L 648.176855 177.401556 
L 648.586094 177.114641 
L 648.995333 177.218966 
L 650.223052 178.131762 
L 651.041531 178.117902 
L 651.65539 177.793151 
L 651.86001 177.839459 
L 652.269249 178.313335 
L 652.883108 179.094137 
L 653.292348 179.391015 
L 653.496967 179.310767 
L 654.315446 178.34231 
L 655.747784 178.343445 
L 656.157024 177.979435 
L 656.770883 177.26912 
L 657.180123 177.061148 
L 657.589362 176.229633 
L 658.203221 174.564993 
L 658.81708 173.731715 
L 659.22632 172.571433 
L 659.840179 169.999859 
L 660.863278 165.027288 
L 661.067897 164.643318 
L 661.272517 164.609683 
L 661.477137 164.876553 
L 661.886376 166.001117 
L 663.114095 169.7265 
L 663.523334 170.294839 
L 663.932574 170.260528 
L 666.183391 169.850243 
L 667.206489 169.957279 
L 667.615729 170.293874 
L 668.024968 170.555813 
L 668.229588 170.38344 
L 668.638827 169.551755 
L 669.252686 168.031276 
L 669.457306 167.768303 
L 669.661926 167.729501 
L 669.866546 167.902687 
L 670.275785 168.899611 
L 670.685025 169.910513 
L 670.889644 169.898229 
L 671.708123 168.60031 
L 671.912743 168.605817 
L 672.321982 169.161617 
L 672.731222 169.688732 
L 672.935842 169.740089 
L 673.75432 169.564159 
L 674.572799 169.797699 
L 674.982039 169.553196 
L 675.595898 169.075999 
L 675.800518 169.142487 
L 676.209757 169.776722 
L 676.618997 170.430952 
L 677.028236 170.655851 
L 677.437476 170.61815 
L 677.642095 170.445083 
L 678.051335 169.636476 
L 678.869814 167.461259 
L 679.688293 165.226907 
L 680.097532 164.15082 
L 680.711391 161.56176 
L 681.120631 160.119375 
L 681.32525 159.851184 
L 681.52987 159.832478 
L 682.348349 160.210026 
L 683.780687 160.190812 
L 683.985307 159.979112 
L 684.599166 158.88237 
L 684.803786 158.956094 
L 685.417645 159.707769 
L 685.622265 159.617287 
L 686.031504 158.775165 
L 686.440743 157.24823 
L 687.668462 150.827309 
L 688.282321 146.669529 
L 689.1008 139.475263 
L 689.919279 130.599277 
L 690.737758 121.803656 
L 690.942377 121.051372 
L 691.146997 121.052321 
L 691.556237 122.215449 
L 691.965476 123.224759 
L 692.170096 123.311276 
L 692.374716 123.036154 
L 692.783955 121.510354 
L 693.193194 118.955283 
L 693.807054 113.398225 
L 694.420913 105.365513 
L 695.034772 93.724197 
L 695.648631 78.088645 
L 696.26249 57.28026 
L 696.87635 27.956747 
L 697.314107 -1 
M 705.464975 -1 
L 705.879618 17.901451 
L 706.493477 38.764904 
L 707.107336 53.475409 
L 707.721195 63.426838 
L 708.335054 69.232518 
L 708.948913 72.687388 
L 709.767392 76.584483 
L 710.381252 80.930224 
L 711.19973 86.900176 
L 712.018209 91.277044 
L 713.245928 99.240403 
L 714.064407 103.149122 
L 714.473646 104.26501 
L 714.882886 105.17174 
L 715.292125 106.695389 
L 715.701364 109.043233 
L 716.519843 115.100295 
L 716.929083 116.319525 
L 717.952181 117.752489 
L 718.361421 118.059126 
L 718.77066 118.089507 
L 719.1799 117.969611 
L 719.589139 117.714924 
L 719.793759 117.755437 
L 719.998379 118.147473 
L 720.407618 120.360577 
L 721.635336 129.99771 
L 722.249196 132.811364 
L 723.272294 135.611175 
L 723.681534 136.254713 
L 723.886153 136.264218 
L 724.500013 135.983827 
L 724.909252 135.975321 
L 725.318492 135.481248 
L 727.160069 132.29545 
L 727.569309 130.11825 
L 728.183168 125.041303 
L 728.592407 120.288158 
L 729.001647 113.225429 
L 730.229365 87.661933 
L 730.843224 80.042268 
L 731.457083 75.048736 
L 731.661703 74.70982 
L 731.866323 75.674245 
L 732.275562 81.17144 
L 733.094041 93.714352 
L 733.503281 97.174103 
L 733.7079 98.054553 
L 733.91252 98.388047 
L 734.11714 98.267015 
L 734.730999 97.156532 
L 734.935619 97.361572 
L 735.140238 98.250257 
L 735.549478 102.196778 
L 736.777196 117.461186 
L 737.391055 121.395846 
L 738.004915 124.650928 
L 739.028013 131.138913 
L 739.641872 132.867636 
L 740.255732 134.652596 
L 740.664971 135.828365 
L 741.074211 136.38015 
L 741.27883 136.329064 
L 741.48345 136.024019 
L 742.097309 134.085426 
L 742.915788 131.290139 
L 743.325028 129.972904 
L 743.529647 129.931696 
L 743.734267 130.32712 
L 744.757366 133.477166 
L 744.961985 133.562124 
L 745.166605 133.310758 
L 745.575845 131.814864 
L 746.598943 126.932368 
L 746.803563 126.618139 
L 747.008183 126.607634 
L 747.212802 126.88916 
L 747.622042 128.12647 
L 748.440521 131.432859 
L 749.259 134.531276 
L 749.668239 135.555938 
L 749.872859 135.806643 
L 750.077479 135.839938 
L 750.895957 135.441887 
L 751.509817 135.512934 
L 752.328296 135.20128 
L 752.942155 135.509884 
L 753.965253 136.019546 
L 754.169873 135.747474 
L 754.579113 134.619233 
L 754.988352 132.789761 
L 756.011451 127.273521 
L 756.21607 126.931419 
L 756.42069 126.992824 
L 756.82993 127.867564 
L 757.648408 130.066978 
L 758.057648 130.579554 
L 758.262268 130.547902 
L 758.466887 130.229793 
L 758.876127 128.538093 
L 760.103845 120.70334 
L 760.717704 114.461265 
L 761.331563 105.736538 
L 762.354662 86.217956 
L 762.559282 85.446118 
L 762.763902 86.861578 
L 763.173141 94.318037 
L 763.99162 109.896504 
L 764.605479 116.689449 
L 765.014719 119.337288 
L 765.628578 121.462283 
L 766.242437 123.676116 
L 767.265536 127.96745 
L 767.879395 130.342878 
L 768.084014 130.792965 
L 768.288634 130.96022 
L 768.697874 130.73993 
L 768.902493 130.621067 
L 769.107113 130.705127 
L 769.516353 131.612789 
L 770.130212 133.356812 
L 770.539451 133.779212 
L 771.15331 133.864966 
L 771.56255 134.34257 
L 772.176409 135.733173 
L 772.994888 137.63698 
L 774.017987 138.627905 
L 774.631846 139.516556 
L 774.836465 139.576843 
L 775.245705 139.174522 
L 775.654944 138.86536 
L 776.064184 139.099799 
L 777.087282 140.113633 
L 777.496522 140.215026 
L 777.905761 140.114378 
L 778.315001 140.40214 
L 778.72424 140.723824 
L 779.338099 140.864663 
L 779.747339 141.457724 
L 780.361198 142.4283 
L 780.565818 142.422657 
L 780.975057 141.900423 
L 781.384297 141.365684 
L 781.793536 141.205392 
L 781.998156 141.371699 
L 782.407395 142.368877 
L 783.635114 145.973804 
L 784.044353 146.359164 
L 784.453593 146.20377 
L 784.862832 145.747058 
L 785.476691 144.942789 
L 785.681311 144.865897 
L 786.09055 145.076275 
L 786.70441 145.48356 
L 787.113649 145.374762 
L 787.522889 145.24392 
L 787.932128 145.429661 
L 788.341367 145.546186 
L 788.955227 145.332385 
L 789.364466 145.68589 
L 789.978325 146.427669 
L 790.387565 146.351387 
L 790.592184 146.473486 
L 791.001424 147.260811 
L 792.024523 149.334025 
L 793.456861 151.843787 
L 794.07072 151.572054 
L 794.479959 151.677989 
L 794.889199 152.177857 
L 796.526157 155.576845 
L 796.730776 155.552598 
L 797.140016 155.309027 
L 797.549255 155.381327 
L 797.958495 155.708467 
L 798.776973 156.775184 
L 799.186213 157.033632 
L 800.209312 158.667096 
L 800.618551 159.179011 
L 801.02779 160.153365 
L 801.64165 161.794521 
L 801.846269 162.039668 
L 802.050889 162.048784 
L 802.664748 161.753618 
L 803.278607 162.129489 
L 803.483227 162.082452 
L 804.301706 161.420056 
L 805.120185 161.84188 
L 805.529424 162.255045 
L 806.347903 163.509011 
L 806.757143 163.659509 
L 807.166382 163.793401 
L 807.371002 164.014945 
L 807.780241 164.963019 
L 808.394101 166.45444 
L 809.00796 167.176733 
L 809.21258 167.248627 
L 809.826439 167.114294 
L 810.235678 167.716691 
L 810.644918 168.300551 
L 810.849537 168.274881 
L 811.258777 167.582053 
L 811.668016 166.878127 
L 811.872636 166.893614 
L 812.281875 167.764779 
L 812.895735 169.411204 
L 813.304974 169.962413 
L 813.918833 170.594089 
L 814.328073 171.327329 
L 815.146552 173.198823 
L 815.555791 173.380023 
L 815.965031 173.317635 
L 816.16965 173.117695 
L 816.783509 172.124329 
L 816.988129 172.074276 
L 817.397369 172.3801 
L 817.806608 172.65185 
L 818.420467 172.918449 
L 819.238946 173.873673 
L 819.648186 173.831669 
L 820.671284 173.562444 
L 820.875904 173.766027 
L 821.899003 175.403032 
L 822.308242 175.495716 
L 822.717482 175.580521 
L 823.126721 176.177225 
L 823.331341 176.485133 
L 823.53596 176.580376 
L 823.74058 176.427879 
L 824.559059 175.293352 
L 824.763679 175.354266 
L 825.377538 176.057227 
L 826.196017 176.929798 
L 826.400637 176.933542 
L 826.809876 176.447534 
L 827.219116 175.870994 
L 828.037594 175.080331 
L 828.651454 174.209166 
L 829.060693 174.22035 
L 829.469933 174.575346 
L 829.879172 174.924445 
L 830.083792 174.784673 
L 830.493031 173.773686 
L 830.902271 172.625739 
L 831.31151 172.00184 
L 831.925369 171.532929 
L 833.562327 171.251978 
L 833.766947 170.949695 
L 834.176186 169.736175 
L 838.67782 150.966285 
L 840.519398 143.107132 
L 842.360975 130.630725 
L 842.974834 125.599222 
L 846.45337 91.967432 
L 847.067229 84.217415 
L 848.704187 61.448512 
L 849.318046 54.079162 
L 849.931905 43.816622 
L 851.159624 22.928175 
L 852.749761 -1 
M 946.318793 -1 
L 947.126275 31.271354 
L 947.944754 53.595119 
L 948.558614 65.38856 
L 949.377092 76.377307 
L 951.627909 100.980885 
L 952.241769 105.66822 
L 952.855628 108.273038 
L 954.287966 113.125086 
L 955.106445 118.015614 
L 956.129543 124.711673 
L 957.357262 130.615035 
L 957.766501 131.763286 
L 958.175741 132.703752 
L 958.58498 134.337978 
L 959.608079 139.85659 
L 960.017318 140.526442 
L 961.040417 141.045067 
L 961.449656 141.564201 
L 962.063515 142.977086 
L 963.086614 145.540543 
L 964.109713 147.400549 
L 964.723572 148.759281 
L 965.337431 149.748952 
L 966.15591 151.638966 
L 966.565149 151.938047 
L 966.974389 152.048455 
L 967.179009 152.240855 
L 967.588248 153.339816 
L 968.202107 155.387122 
L 968.406727 155.7064 
L 968.611347 155.740559 
L 969.020586 155.096226 
L 969.225206 154.794722 
L 969.429826 154.715254 
L 969.634445 154.862787 
L 970.043685 155.667988 
L 970.657544 157.008233 
L 970.862164 157.216815 
L 971.066783 157.198499 
L 971.680643 156.797448 
L 972.089882 156.954554 
L 972.703741 157.642773 
L 973.112981 158.288547 
L 973.52222 159.413077 
L 973.93146 160.650184 
L 974.340699 161.120196 
L 974.749939 161.163607 
L 974.954558 161.310309 
L 976.182277 163.138409 
L 976.796136 163.475529 
L 977.205375 163.327014 
L 978.433094 162.092941 
L 978.637713 162.204975 
L 979.456192 163.270184 
L 980.274671 163.248749 
L 980.683911 163.359869 
L 980.88853 163.535986 
L 981.29777 164.431719 
L 982.116249 166.540804 
L 982.525488 167.201946 
L 983.343967 167.981951 
L 983.548587 168.015247 
L 984.367066 167.595795 
L 984.571685 167.700916 
L 986.004024 169.565226 
L 986.413263 170.171452 
L 987.231742 170.915316 
L 988.254841 172.696091 
L 988.66408 172.616962 
L 988.8687 172.397976 
L 989.277939 171.472099 
L 990.096418 169.559923 
L 990.301038 169.315571 
L 990.505657 169.266976 
L 990.914897 169.6176 
L 991.324136 169.926576 
L 991.528756 169.90543 
L 992.551855 169.177172 
L 992.961094 169.287495 
L 993.370334 169.643033 
L 993.779573 170.346078 
L 994.393432 171.633356 
L 995.82577 173.495209 
L 996.23501 173.499106 
L 996.848869 173.393714 
L 997.258108 173.496802 
L 997.667348 173.298014 
L 998.485827 172.4554 
L 999.099686 172.380795 
L 999.508925 171.918272 
L 999.918165 171.567732 
L 1000.327404 171.880808 
L 1000.736644 172.08695 
L 1000.941264 172.00467 
L 1001.350503 171.435466 
L 1001.759742 170.010399 
L 1002.578221 166.16844 
L 1002.782841 166.22017 
L 1002.987461 166.7981 
L 1003.3967 168.828174 
L 1004.419799 174.66254 
L 1004.829038 175.401032 
L 1005.238278 175.885922 
L 1006.261376 177.52906 
L 1006.465996 177.453269 
L 1007.079855 176.917445 
L 1007.284475 176.948385 
L 1007.693715 177.468383 
L 1008.307574 178.233359 
L 1008.716813 178.454852 
L 1009.126053 178.257589 
L 1009.739912 177.843289 
L 1009.944532 177.900221 
L 1010.558391 178.665722 
L 1010.76301 178.619786 
L 1010.96763 178.278888 
L 1011.581489 176.282939 
L 1012.195349 174.200915 
L 1012.604588 173.688016 
L 1012.809208 173.706265 
L 1013.832306 174.533968 
L 1014.241546 175.37853 
L 1015.264644 177.77702 
L 1015.673884 178.276278 
L 1016.083123 178.381095 
L 1016.492363 179.05181 
L 1017.310842 180.722652 
L 1018.33394 181.968265 
L 1018.53856 181.968587 
L 1018.9478 181.623876 
L 1019.561659 180.787752 
L 1019.970898 179.914723 
L 1020.380138 178.855631 
L 1020.584757 178.611704 
L 1020.789377 178.650625 
L 1021.198617 179.232892 
L 1021.812476 180.604196 
L 1022.630955 182.774262 
L 1022.835574 182.939942 
L 1023.244814 182.805965 
L 1023.654053 182.348253 
L 1024.677152 181.033238 
L 1025.086391 181.083748 
L 1025.495631 181.133259 
L 1025.90487 181.019123 
L 1026.10949 181.141816 
L 1026.723349 181.835033 
L 1027.132589 181.76336 
L 1027.541828 181.635957 
L 1028.155687 181.770967 
L 1029.178786 182.064558 
L 1030.201884 183.391909 
L 1030.815744 183.533477 
L 1031.634223 184.280933 
L 1032.043462 184.242944 
L 1032.861941 184.037361 
L 1033.4758 183.723082 
L 1033.88504 183.985953 
L 1034.089659 184.115033 
L 1034.294279 184.058338 
L 1035.112758 183.172584 
L 1035.317378 183.241784 
L 1035.726617 183.812733 
L 1036.340476 184.662345 
L 1036.749716 184.990637 
L 1037.158955 184.981063 
L 1037.772814 184.611427 
L 1039.000533 183.581022 
L 1039.614392 183.83554 
L 1040.023631 184.230778 
L 1041.25135 186.573928 
L 1041.455969 186.621033 
L 1041.660589 186.436647 
L 1042.069829 185.464394 
L 1043.092927 182.487771 
L 1043.706786 181.302175 
L 1043.911406 181.160183 
L 1044.116026 181.238719 
L 1044.525265 181.898828 
L 1045.752984 184.235285 
L 1046.776082 185.434776 
L 1046.980702 185.470375 
L 1047.799181 185.067546 
L 1048.003801 185.212842 
L 1049.026899 186.772429 
L 1049.640759 186.811858 
L 1049.845378 186.97059 
L 1050.254618 187.782653 
L 1051.277716 190.791978 
L 1051.482336 191.022351 
L 1051.686956 190.961081 
L 1052.914674 189.225394 
L 1053.323914 188.849844 
L 1053.733153 188.797199 
L 1054.142393 188.905557 
L 1054.551632 188.671237 
L 1054.960871 188.393472 
L 1055.165491 188.379662 
L 1056.18859 188.788778 
L 1056.597829 188.560168 
L 1056.802449 188.582873 
L 1057.211688 189.073981 
L 1057.620928 189.703692 
L 1057.825548 189.783956 
L 1058.030167 189.583914 
L 1059.257886 187.207079 
L 1059.462505 187.19576 
L 1059.667125 187.340158 
L 1059.871745 187.6501 
L 1060.280984 188.85752 
L 1060.894844 190.745247 
L 1061.304083 191.25379 
L 1061.508703 191.274801 
L 1061.713322 191.117492 
L 1062.122562 190.319661 
L 1062.531801 189.488519 
L 1062.736421 189.356541 
L 1063.75952 189.406933 
L 1064.168759 189.087587 
L 1064.577999 188.03307 
L 1064.987238 186.78046 
L 1065.191858 186.505406 
L 1065.396478 186.502712 
L 1065.601097 186.731153 
L 1066.624196 188.58533 
L 1066.828816 188.59248 
L 1067.238055 188.224912 
L 1067.851914 187.457174 
L 1068.261154 187.493689 
L 1068.670393 187.524002 
L 1069.284252 186.955849 
L 1070.102731 186.274594 
L 1070.511971 186.310752 
L 1070.92121 186.561932 
L 1071.33045 187.279058 
L 1071.944309 188.779425 
L 1072.353548 189.086096 
L 1072.967407 189.143943 
L 1073.376647 189.642558 
L 1073.990506 190.628078 
L 1074.399745 190.797604 
L 1075.422844 190.661797 
L 1075.832084 189.910224 
L 1076.650562 188.162913 
L 1077.059802 187.764422 
L 1077.469041 187.677583 
L 1077.673661 187.825048 
L 1078.082901 188.589346 
L 1078.901379 190.462839 
L 1079.310619 190.840489 
L 1079.719858 190.847945 
L 1080.129098 190.899353 
L 1080.538337 191.092499 
L 1080.742957 190.988852 
L 1081.766056 189.748238 
L 1081.970675 189.771689 
L 1082.175295 189.945061 
L 1082.584535 190.783201 
L 1082.993774 191.732546 
L 1083.403013 192.124226 
L 1083.607633 192.046758 
L 1084.016873 191.365587 
L 1085.039971 189.097737 
L 1085.449211 188.875532 
L 1085.85845 188.883953 
L 1086.26769 188.910589 
L 1087.086169 188.442118 
L 1088.109267 188.604155 
L 1088.518507 188.407417 
L 1088.723126 188.455131 
L 1089.132366 188.882953 
L 1089.541605 189.272075 
L 1089.746225 189.240118 
L 1090.155464 188.781034 
L 1090.973943 187.47527 
L 1091.178563 187.474965 
L 1091.792422 187.967819 
L 1091.997042 187.936167 
L 1092.406281 187.577613 
L 1092.815521 187.215043 
L 1093.020141 187.220448 
L 1093.83862 187.648897 
L 1094.452479 187.986356 
L 1094.861718 188.081073 
L 1095.680197 187.436451 
L 1096.294056 186.768345 
L 1096.703296 186.176386 
L 1096.907915 186.116098 
L 1097.112535 186.334203 
L 1098.135634 188.417024 
L 1098.544873 188.632384 
L 1098.954113 188.751924 
L 1099.363352 189.051174 
L 1099.772592 189.033332 
L 1101.20493 188.109404 
L 1101.614169 187.532423 
L 1101.818789 187.424116 
L 1102.228028 187.629835 
L 1102.637268 187.840721 
L 1103.046507 187.727771 
L 1103.455747 187.323892 
L 1104.683465 185.969345 
L 1105.092705 185.747073 
L 1105.297324 185.792398 
L 1105.706564 186.371887 
L 1106.115803 186.959458 
L 1106.525043 186.8857 
L 1107.548141 186.560644 
L 1107.957381 185.673501 
L 1108.57124 183.767187 
L 1108.77586 183.41236 
L 1108.980479 183.287957 
L 1109.185099 183.363324 
L 1110.003578 184.072706 
L 1110.208198 184.00615 
L 1110.412817 183.701647 
L 1111.435916 181.111299 
L 1111.845155 180.6482 
L 1112.254395 179.336302 
L 1112.663634 176.938405 
L 1113.482113 171.395546 
L 1116.346789 157.010893 
L 1117.779128 147.545099 
L 1118.392987 143.270473 
L 1119.006846 137.561731 
L 1119.416085 131.716826 
L 1119.825325 123.015093 
L 1120.234564 110.58862 
L 1120.643804 93.204741 
L 1121.257663 54.655041 
L 1121.88459 -1 
M 1123.819382 -1 
L 1124.531579 64.600845 
L 1125.145438 101.04934 
L 1125.554677 115.868524 
L 1126.168536 129.043163 
L 1127.396255 147.212063 
L 1129.237832 169.457546 
L 1129.851691 174.324878 
L 1130.260931 176.216925 
L 1132.716368 183.718151 
L 1134.353325 186.875991 
L 1134.557945 187.00419 
L 1134.762565 186.975114 
L 1135.171804 186.453761 
L 1135.581044 185.81473 
L 1135.990283 185.555824 
L 1136.399523 185.695156 
L 1136.808762 186.170557 
L 1137.422621 187.373216 
L 1137.627241 187.568802 
L 1137.831861 187.59742 
L 1138.2411 187.243763 
L 1138.65034 186.954781 
L 1139.468819 187.055768 
L 1139.878058 186.945292 
L 1140.287298 187.137117 
L 1140.696537 187.648998 
L 1141.719636 189.612787 
L 1142.128875 189.890179 
L 1142.333495 189.941808 
L 1142.538115 189.871286 
L 1142.947354 189.38477 
L 1143.561213 188.63889 
L 1143.765833 188.718985 
L 1144.993551 190.20434 
L 1146.22127 190.238872 
L 1146.835129 190.423393 
L 1147.858227 191.148483 
L 1148.267467 190.984887 
L 1149.085946 190.373188 
L 1149.495185 189.680224 
L 1149.904425 188.627233 
L 1150.722904 186.074009 
L 1150.927523 185.806428 
L 1151.132143 185.734348 
L 1151.541382 186.041053 
L 1152.155242 186.530077 
L 1152.769101 186.615933 
L 1152.973721 186.553782 
L 1153.58758 185.910922 
L 1153.792199 185.999879 
L 1154.201439 187.094299 
L 1154.610678 188.314139 
L 1154.815298 188.615457 
L 1155.019918 188.684063 
L 1155.633777 188.547595 
L 1155.838397 188.78566 
L 1156.656876 190.283926 
L 1157.066115 190.737401 
L 1158.089214 192.291888 
L 1158.498453 192.427238 
L 1158.907693 192.220265 
L 1159.726172 191.423943 
L 1160.135411 191.443242 
L 1160.74927 191.708384 
L 1161.15851 191.623748 
L 1161.567749 191.232475 
L 1161.976989 190.807601 
L 1162.590848 190.645886 
L 1163.000087 190.105556 
L 1163.613946 189.330227 
L 1164.432425 188.453844 
L 1165.046284 187.838095 
L 1165.250904 187.834079 
L 1165.455524 187.997251 
L 1165.864763 188.740453 
L 1166.274003 189.659688 
L 1166.683242 189.978576 
L 1167.297101 190.161725 
L 1167.706341 190.206966 
L 1168.52482 189.516832 
L 1168.934059 189.657621 
L 1169.343299 190.109995 
L 1169.957158 190.856502 
L 1170.571017 190.95127 
L 1171.389496 191.144552 
L 1171.798735 191.224545 
L 1172.207975 190.778813 
L 1172.617214 190.195885 
L 1173.435693 189.750441 
L 1174.049552 188.949459 
L 1174.254172 188.915266 
L 1174.663412 189.227647 
L 1175.89113 190.729522 
L 1176.709609 191.209922 
L 1177.118848 191.580252 
L 1177.323468 191.547499 
L 1178.755806 190.4452 
L 1179.983525 190.627604 
L 1180.392764 190.935631 
L 1180.597384 190.915281 
L 1181.006623 190.340791 
L 1181.825102 189.052632 
L 1183.25744 186.930195 
L 1183.46206 186.836867 
L 1183.66668 186.991058 
L 1184.075919 187.910175 
L 1184.894398 190.225113 
L 1184.894398 190.225113 
" clip-path="url(#pc6aafdb2d6)" style="fill: none; stroke: #000000; stroke-width: 2; stroke-linecap: square"/>
   </g>
   <g id="patch_3">
    <path d="M 3.00024 198.907885 
L 1184.99976 198.907885 
" style="fill: none; stroke: #000000; stroke-width: 2; stroke-linejoin: miter; stroke-linecap: square"/>
   </g>
  </g>
 </g>
 <defs>
  <clipPath id="pc6aafdb2d6">
   <rect x="3.00024" y="3.00024" width="1181.99952" height="195.907645"/>
  </clipPath>
 </defs>
</svg>
