<?xml version="1.0" encoding="utf-8" standalone="no"?>
<!DOCTYPE svg PUBLIC "-//W3C//DTD SVG 1.1//EN"
  "http://www.w3.org/Graphics/SVG/1.1/DTD/svg11.dtd">
<svg xmlns:xlink="http://www.w3.org/1999/xlink" width="1188pt" height="252pt" viewBox="0 0 1188 252" xmlns="http://www.w3.org/2000/svg" version="1.1">
 <metadata>
  <rdf:RDF xmlns:dc="http://purl.org/dc/elements/1.1/" xmlns:cc="http://creativecommons.org/ns#" xmlns:rdf="http://www.w3.org/1999/02/22-rdf-syntax-ns#">
   <cc:Work>
    <dc:type rdf:resource="http://purl.org/dc/dcmitype/StillImage"/>
    <dc:date>2024-07-23T21:46:59.296065</dc:date>
    <dc:format>image/svg+xml</dc:format>
    <dc:creator>
     <cc:Agent>
      <dc:title>Matplotlib v3.8.4, https://matplotlib.org/</dc:title>
     </cc:Agent>
    </dc:creator>
   </cc:Work>
  </rdf:RDF>
 </metadata>
 <defs>
  <style type="text/css">*{stroke-linejoin: round; stroke-linecap: butt}</style>
 </defs>
 <g id="figure_1">
  <g id="patch_1">
   <path d="M 0 252 
L 1188 252 
L 1188 0 
L 0 0 
z
" style="fill: #ffffff"/>
  </g>
  <g id="axes_1">
   <g id="patch_2">
    <path d="M 3.00024 198.907885 
L 1184.99976 198.907885 
L 1184.99976 3.00024 
L 3.00024 3.00024 
z
" style="fill: #ffffff"/>
   </g>
   <g id="matplotlib.axis_1">
    <g id="xtick_1">
     <g id="line2d_1">
      <defs>
       <path id="m2d0751bb94" d="M 0 0 
L 0 8 
" style="stroke: #000000; stroke-width: 2"/>
      </defs>
      <g>
       <use xlink:href="#m2d0751bb94" x="1131.272509" y="198.907885" style="stroke: #000000; stroke-width: 2"/>
      </g>
     </g>
     <g id="text_1">
      <!-- 0 -->
      <g transform="translate(1126.267665 224.791947) scale(0.18 -0.18)">
       <defs>
        <path id="Arial-BoldMT-30" d="M 1756 4600 
Q 2422 4600 2797 4125 
Q 3244 3563 3244 2259 
Q 3244 959 2794 391 
Q 2422 -78 1756 -78 
Q 1088 -78 678 436 
Q 269 950 269 2269 
Q 269 3563 719 4131 
Q 1091 4600 1756 4600 
z
M 1756 3872 
Q 1597 3872 1472 3770 
Q 1347 3669 1278 3406 
Q 1188 3066 1188 2259 
Q 1188 1453 1269 1151 
Q 1350 850 1473 750 
Q 1597 650 1756 650 
Q 1916 650 2041 751 
Q 2166 853 2234 1116 
Q 2325 1453 2325 2259 
Q 2325 3066 2244 3367 
Q 2163 3669 2039 3770 
Q 1916 3872 1756 3872 
z
" transform="scale(0.015625)"/>
       </defs>
       <use xlink:href="#Arial-BoldMT-30"/>
      </g>
     </g>
    </g>
    <g id="xtick_2">
     <g id="line2d_2">
      <g>
       <use xlink:href="#m2d0751bb94" x="1023.818007" y="198.907885" style="stroke: #000000; stroke-width: 2"/>
      </g>
     </g>
     <g id="text_2">
      <!-- 1 -->
      <g transform="translate(1018.813164 224.791947) scale(0.18 -0.18)">
       <defs>
        <path id="Arial-BoldMT-31" d="M 2519 0 
L 1641 0 
L 1641 3309 
Q 1159 2859 506 2644 
L 506 3441 
Q 850 3553 1253 3867 
Q 1656 4181 1806 4600 
L 2519 4600 
L 2519 0 
z
" transform="scale(0.015625)"/>
       </defs>
       <use xlink:href="#Arial-BoldMT-31"/>
      </g>
     </g>
    </g>
    <g id="xtick_3">
     <g id="line2d_3">
      <g>
       <use xlink:href="#m2d0751bb94" x="916.363505" y="198.907885" style="stroke: #000000; stroke-width: 2"/>
      </g>
     </g>
     <g id="text_3">
      <!-- 2 -->
      <g transform="translate(911.358662 224.791947) scale(0.18 -0.18)">
       <defs>
        <path id="Arial-BoldMT-32" d="M 3238 816 
L 3238 0 
L 159 0 
Q 209 463 459 877 
Q 709 1291 1447 1975 
Q 2041 2528 2175 2725 
Q 2356 2997 2356 3263 
Q 2356 3556 2198 3714 
Q 2041 3872 1763 3872 
Q 1488 3872 1325 3706 
Q 1163 3541 1138 3156 
L 263 3244 
Q 341 3969 753 4284 
Q 1166 4600 1784 4600 
Q 2463 4600 2850 4234 
Q 3238 3869 3238 3325 
Q 3238 3016 3127 2736 
Q 3016 2456 2775 2150 
Q 2616 1947 2200 1565 
Q 1784 1184 1673 1059 
Q 1563 934 1494 816 
L 3238 816 
z
" transform="scale(0.015625)"/>
       </defs>
       <use xlink:href="#Arial-BoldMT-32"/>
      </g>
     </g>
    </g>
    <g id="xtick_4">
     <g id="line2d_4">
      <g>
       <use xlink:href="#m2d0751bb94" x="808.909004" y="198.907885" style="stroke: #000000; stroke-width: 2"/>
      </g>
     </g>
     <g id="text_4">
      <!-- 3 -->
      <g transform="translate(803.90416 224.791947) scale(0.18 -0.18)">
       <defs>
        <path id="Arial-BoldMT-33" d="M 241 1216 
L 1091 1319 
Q 1131 994 1309 822 
Q 1488 650 1741 650 
Q 2013 650 2198 856 
Q 2384 1063 2384 1413 
Q 2384 1744 2206 1937 
Q 2028 2131 1772 2131 
Q 1603 2131 1369 2066 
L 1466 2781 
Q 1822 2772 2009 2936 
Q 2197 3100 2197 3372 
Q 2197 3603 2059 3740 
Q 1922 3878 1694 3878 
Q 1469 3878 1309 3722 
Q 1150 3566 1116 3266 
L 306 3403 
Q 391 3819 561 4067 
Q 731 4316 1036 4458 
Q 1341 4600 1719 4600 
Q 2366 4600 2756 4188 
Q 3078 3850 3078 3425 
Q 3078 2822 2419 2463 
Q 2813 2378 3048 2084 
Q 3284 1791 3284 1375 
Q 3284 772 2843 347 
Q 2403 -78 1747 -78 
Q 1125 -78 715 280 
Q 306 638 241 1216 
z
" transform="scale(0.015625)"/>
       </defs>
       <use xlink:href="#Arial-BoldMT-33"/>
      </g>
     </g>
    </g>
    <g id="xtick_5">
     <g id="line2d_5">
      <g>
       <use xlink:href="#m2d0751bb94" x="701.454502" y="198.907885" style="stroke: #000000; stroke-width: 2"/>
      </g>
     </g>
     <g id="text_5">
      <!-- 4 -->
      <g transform="translate(696.449658 224.791947) scale(0.18 -0.18)">
       <defs>
        <path id="Arial-BoldMT-34" d="M 1994 0 
L 1994 922 
L 119 922 
L 119 1691 
L 2106 4600 
L 2844 4600 
L 2844 1694 
L 3413 1694 
L 3413 922 
L 2844 922 
L 2844 0 
L 1994 0 
z
M 1994 1694 
L 1994 3259 
L 941 1694 
L 1994 1694 
z
" transform="scale(0.015625)"/>
       </defs>
       <use xlink:href="#Arial-BoldMT-34"/>
      </g>
     </g>
    </g>
    <g id="xtick_6">
     <g id="line2d_6">
      <g>
       <use xlink:href="#m2d0751bb94" x="594" y="198.907885" style="stroke: #000000; stroke-width: 2"/>
      </g>
     </g>
     <g id="text_6">
      <!-- 5 -->
      <g transform="translate(588.995156 224.791947) scale(0.18 -0.18)">
       <defs>
        <path id="Arial-BoldMT-35" d="M 284 1178 
L 1159 1269 
Q 1197 972 1381 798 
Q 1566 625 1806 625 
Q 2081 625 2272 848 
Q 2463 1072 2463 1522 
Q 2463 1944 2273 2155 
Q 2084 2366 1781 2366 
Q 1403 2366 1103 2031 
L 391 2134 
L 841 4519 
L 3163 4519 
L 3163 3697 
L 1506 3697 
L 1369 2919 
Q 1663 3066 1969 3066 
Q 2553 3066 2959 2641 
Q 3366 2216 3366 1538 
Q 3366 972 3038 528 
Q 2591 -78 1797 -78 
Q 1163 -78 763 262 
Q 363 603 284 1178 
z
" transform="scale(0.015625)"/>
       </defs>
       <use xlink:href="#Arial-BoldMT-35"/>
      </g>
     </g>
    </g>
    <g id="xtick_7">
     <g id="line2d_7">
      <g>
       <use xlink:href="#m2d0751bb94" x="486.545498" y="198.907885" style="stroke: #000000; stroke-width: 2"/>
      </g>
     </g>
     <g id="text_7">
      <!-- 6 -->
      <g transform="translate(481.540654 224.791947) scale(0.18 -0.18)">
       <defs>
        <path id="Arial-BoldMT-36" d="M 3247 3459 
L 2397 3366 
Q 2366 3628 2234 3753 
Q 2103 3878 1894 3878 
Q 1616 3878 1423 3628 
Q 1231 3378 1181 2588 
Q 1509 2975 1997 2975 
Q 2547 2975 2939 2556 
Q 3331 2138 3331 1475 
Q 3331 772 2918 347 
Q 2506 -78 1859 -78 
Q 1166 -78 719 461 
Q 272 1000 272 2228 
Q 272 3488 737 4044 
Q 1203 4600 1947 4600 
Q 2469 4600 2811 4308 
Q 3153 4016 3247 3459 
z
M 1256 1544 
Q 1256 1116 1453 883 
Q 1650 650 1903 650 
Q 2147 650 2309 840 
Q 2472 1031 2472 1466 
Q 2472 1913 2297 2120 
Q 2122 2328 1859 2328 
Q 1606 2328 1431 2129 
Q 1256 1931 1256 1544 
z
" transform="scale(0.015625)"/>
       </defs>
       <use xlink:href="#Arial-BoldMT-36"/>
      </g>
     </g>
    </g>
    <g id="xtick_8">
     <g id="line2d_8">
      <g>
       <use xlink:href="#m2d0751bb94" x="379.090996" y="198.907885" style="stroke: #000000; stroke-width: 2"/>
      </g>
     </g>
     <g id="text_8">
      <!-- 7 -->
      <g transform="translate(374.086153 224.791947) scale(0.18 -0.18)">
       <defs>
        <path id="Arial-BoldMT-37" d="M 272 3703 
L 272 4519 
L 3275 4519 
L 3275 3881 
Q 2903 3516 2518 2831 
Q 2134 2147 1932 1376 
Q 1731 606 1734 0 
L 888 0 
Q 909 950 1279 1937 
Q 1650 2925 2269 3703 
L 272 3703 
z
" transform="scale(0.015625)"/>
       </defs>
       <use xlink:href="#Arial-BoldMT-37"/>
      </g>
     </g>
    </g>
    <g id="xtick_9">
     <g id="line2d_9">
      <g>
       <use xlink:href="#m2d0751bb94" x="271.636495" y="198.907885" style="stroke: #000000; stroke-width: 2"/>
      </g>
     </g>
     <g id="text_9">
      <!-- 8 -->
      <g transform="translate(266.631651 224.791947) scale(0.18 -0.18)">
       <defs>
        <path id="Arial-BoldMT-38" d="M 1025 2472 
Q 684 2616 529 2867 
Q 375 3119 375 3419 
Q 375 3931 733 4265 
Q 1091 4600 1750 4600 
Q 2403 4600 2764 4265 
Q 3125 3931 3125 3419 
Q 3125 3100 2959 2851 
Q 2794 2603 2494 2472 
Q 2875 2319 3073 2025 
Q 3272 1731 3272 1347 
Q 3272 713 2867 316 
Q 2463 -81 1791 -81 
Q 1166 -81 750 247 
Q 259 634 259 1309 
Q 259 1681 443 1992 
Q 628 2303 1025 2472 
z
M 1206 3356 
Q 1206 3094 1354 2947 
Q 1503 2800 1750 2800 
Q 2000 2800 2150 2948 
Q 2300 3097 2300 3359 
Q 2300 3606 2151 3754 
Q 2003 3903 1759 3903 
Q 1506 3903 1356 3753 
Q 1206 3603 1206 3356 
z
M 1125 1394 
Q 1125 1031 1311 828 
Q 1497 625 1775 625 
Q 2047 625 2225 820 
Q 2403 1016 2403 1384 
Q 2403 1706 2222 1901 
Q 2041 2097 1763 2097 
Q 1441 2097 1283 1875 
Q 1125 1653 1125 1394 
z
" transform="scale(0.015625)"/>
       </defs>
       <use xlink:href="#Arial-BoldMT-38"/>
      </g>
     </g>
    </g>
    <g id="xtick_10">
     <g id="line2d_10">
      <g>
       <use xlink:href="#m2d0751bb94" x="164.181993" y="198.907885" style="stroke: #000000; stroke-width: 2"/>
      </g>
     </g>
     <g id="text_10">
      <!-- 9 -->
      <g transform="translate(159.177149 224.791947) scale(0.18 -0.18)">
       <defs>
        <path id="Arial-BoldMT-39" d="M 291 1059 
L 1141 1153 
Q 1172 894 1303 769 
Q 1434 644 1650 644 
Q 1922 644 2112 894 
Q 2303 1144 2356 1931 
Q 2025 1547 1528 1547 
Q 988 1547 595 1964 
Q 203 2381 203 3050 
Q 203 3747 617 4173 
Q 1031 4600 1672 4600 
Q 2369 4600 2816 4061 
Q 3263 3522 3263 2288 
Q 3263 1031 2797 475 
Q 2331 -81 1584 -81 
Q 1047 -81 715 205 
Q 384 491 291 1059 
z
M 2278 2978 
Q 2278 3403 2083 3637 
Q 1888 3872 1631 3872 
Q 1388 3872 1227 3680 
Q 1066 3488 1066 3050 
Q 1066 2606 1241 2398 
Q 1416 2191 1678 2191 
Q 1931 2191 2104 2391 
Q 2278 2591 2278 2978 
z
" transform="scale(0.015625)"/>
       </defs>
       <use xlink:href="#Arial-BoldMT-39"/>
      </g>
     </g>
    </g>
    <g id="xtick_11">
     <g id="line2d_11">
      <g>
       <use xlink:href="#m2d0751bb94" x="56.727491" y="198.907885" style="stroke: #000000; stroke-width: 2"/>
      </g>
     </g>
     <g id="text_11">
      <!-- 10 -->
      <g transform="translate(46.717803 224.791947) scale(0.18 -0.18)">
       <use xlink:href="#Arial-BoldMT-31"/>
       <use xlink:href="#Arial-BoldMT-30" x="55.615234"/>
      </g>
     </g>
    </g>
    <g id="text_12">
     <!-- Chemical Shift / ppm -->
     <g transform="translate(504.992813 245.447573) scale(0.18 -0.18)">
      <defs>
       <path id="Arial-BoldMT-43" d="M 3397 1684 
L 4294 1400 
Q 4088 650 3608 286 
Q 3128 -78 2391 -78 
Q 1478 -78 890 545 
Q 303 1169 303 2250 
Q 303 3394 893 4026 
Q 1484 4659 2447 4659 
Q 3288 4659 3813 4163 
Q 4125 3869 4281 3319 
L 3366 3100 
Q 3284 3456 3026 3662 
Q 2769 3869 2400 3869 
Q 1891 3869 1573 3503 
Q 1256 3138 1256 2319 
Q 1256 1450 1568 1081 
Q 1881 713 2381 713 
Q 2750 713 3015 947 
Q 3281 1181 3397 1684 
z
" transform="scale(0.015625)"/>
       <path id="Arial-BoldMT-68" d="M 1334 4581 
L 1334 2897 
Q 1759 3394 2350 3394 
Q 2653 3394 2897 3281 
Q 3141 3169 3264 2994 
Q 3388 2819 3433 2606 
Q 3478 2394 3478 1947 
L 3478 0 
L 2600 0 
L 2600 1753 
Q 2600 2275 2550 2415 
Q 2500 2556 2373 2639 
Q 2247 2722 2056 2722 
Q 1838 2722 1666 2615 
Q 1494 2509 1414 2295 
Q 1334 2081 1334 1663 
L 1334 0 
L 456 0 
L 456 4581 
L 1334 4581 
z
" transform="scale(0.015625)"/>
       <path id="Arial-BoldMT-65" d="M 2381 1056 
L 3256 909 
Q 3088 428 2723 176 
Q 2359 -75 1813 -75 
Q 947 -75 531 491 
Q 203 944 203 1634 
Q 203 2459 634 2926 
Q 1066 3394 1725 3394 
Q 2466 3394 2894 2905 
Q 3322 2416 3303 1406 
L 1103 1406 
Q 1113 1016 1316 798 
Q 1519 581 1822 581 
Q 2028 581 2168 693 
Q 2309 806 2381 1056 
z
M 2431 1944 
Q 2422 2325 2234 2523 
Q 2047 2722 1778 2722 
Q 1491 2722 1303 2513 
Q 1116 2303 1119 1944 
L 2431 1944 
z
" transform="scale(0.015625)"/>
       <path id="Arial-BoldMT-6d" d="M 394 3319 
L 1203 3319 
L 1203 2866 
Q 1638 3394 2238 3394 
Q 2556 3394 2790 3262 
Q 3025 3131 3175 2866 
Q 3394 3131 3647 3262 
Q 3900 3394 4188 3394 
Q 4553 3394 4806 3245 
Q 5059 3097 5184 2809 
Q 5275 2597 5275 2122 
L 5275 0 
L 4397 0 
L 4397 1897 
Q 4397 2391 4306 2534 
Q 4184 2722 3931 2722 
Q 3747 2722 3584 2609 
Q 3422 2497 3350 2280 
Q 3278 2063 3278 1594 
L 3278 0 
L 2400 0 
L 2400 1819 
Q 2400 2303 2353 2443 
Q 2306 2584 2207 2653 
Q 2109 2722 1941 2722 
Q 1738 2722 1575 2612 
Q 1413 2503 1342 2297 
Q 1272 2091 1272 1613 
L 1272 0 
L 394 0 
L 394 3319 
z
" transform="scale(0.015625)"/>
       <path id="Arial-BoldMT-69" d="M 459 3769 
L 459 4581 
L 1338 4581 
L 1338 3769 
L 459 3769 
z
M 459 0 
L 459 3319 
L 1338 3319 
L 1338 0 
L 459 0 
z
" transform="scale(0.015625)"/>
       <path id="Arial-BoldMT-63" d="M 3353 2338 
L 2488 2181 
Q 2444 2441 2289 2572 
Q 2134 2703 1888 2703 
Q 1559 2703 1364 2476 
Q 1169 2250 1169 1719 
Q 1169 1128 1367 884 
Q 1566 641 1900 641 
Q 2150 641 2309 783 
Q 2469 925 2534 1272 
L 3397 1125 
Q 3263 531 2881 228 
Q 2500 -75 1859 -75 
Q 1131 -75 698 384 
Q 266 844 266 1656 
Q 266 2478 700 2936 
Q 1134 3394 1875 3394 
Q 2481 3394 2839 3133 
Q 3197 2872 3353 2338 
z
" transform="scale(0.015625)"/>
       <path id="Arial-BoldMT-61" d="M 1116 2306 
L 319 2450 
Q 453 2931 781 3162 
Q 1109 3394 1756 3394 
Q 2344 3394 2631 3255 
Q 2919 3116 3036 2902 
Q 3153 2688 3153 2116 
L 3144 1091 
Q 3144 653 3186 445 
Q 3228 238 3344 0 
L 2475 0 
Q 2441 88 2391 259 
Q 2369 338 2359 363 
Q 2134 144 1878 34 
Q 1622 -75 1331 -75 
Q 819 -75 523 203 
Q 228 481 228 906 
Q 228 1188 362 1408 
Q 497 1628 739 1745 
Q 981 1863 1438 1950 
Q 2053 2066 2291 2166 
L 2291 2253 
Q 2291 2506 2166 2614 
Q 2041 2722 1694 2722 
Q 1459 2722 1328 2630 
Q 1197 2538 1116 2306 
z
M 2291 1594 
Q 2122 1538 1756 1459 
Q 1391 1381 1278 1306 
Q 1106 1184 1106 997 
Q 1106 813 1243 678 
Q 1381 544 1594 544 
Q 1831 544 2047 700 
Q 2206 819 2256 991 
Q 2291 1103 2291 1419 
L 2291 1594 
z
" transform="scale(0.015625)"/>
       <path id="Arial-BoldMT-6c" d="M 459 0 
L 459 4581 
L 1338 4581 
L 1338 0 
L 459 0 
z
" transform="scale(0.015625)"/>
       <path id="Arial-BoldMT-20" transform="scale(0.015625)"/>
       <path id="Arial-BoldMT-53" d="M 231 1491 
L 1131 1578 
Q 1213 1125 1461 912 
Q 1709 700 2131 700 
Q 2578 700 2804 889 
Q 3031 1078 3031 1331 
Q 3031 1494 2936 1608 
Q 2841 1722 2603 1806 
Q 2441 1863 1863 2006 
Q 1119 2191 819 2459 
Q 397 2838 397 3381 
Q 397 3731 595 4036 
Q 794 4341 1167 4500 
Q 1541 4659 2069 4659 
Q 2931 4659 3367 4281 
Q 3803 3903 3825 3272 
L 2900 3231 
Q 2841 3584 2645 3739 
Q 2450 3894 2059 3894 
Q 1656 3894 1428 3728 
Q 1281 3622 1281 3444 
Q 1281 3281 1419 3166 
Q 1594 3019 2269 2859 
Q 2944 2700 3267 2529 
Q 3591 2359 3773 2064 
Q 3956 1769 3956 1334 
Q 3956 941 3737 597 
Q 3519 253 3119 86 
Q 2719 -81 2122 -81 
Q 1253 -81 787 320 
Q 322 722 231 1491 
z
" transform="scale(0.015625)"/>
       <path id="Arial-BoldMT-66" d="M 75 3319 
L 563 3319 
L 563 3569 
Q 563 3988 652 4194 
Q 741 4400 980 4529 
Q 1219 4659 1584 4659 
Q 1959 4659 2319 4547 
L 2200 3934 
Q 1991 3984 1797 3984 
Q 1606 3984 1523 3895 
Q 1441 3806 1441 3553 
L 1441 3319 
L 2097 3319 
L 2097 2628 
L 1441 2628 
L 1441 0 
L 563 0 
L 563 2628 
L 75 2628 
L 75 3319 
z
" transform="scale(0.015625)"/>
       <path id="Arial-BoldMT-74" d="M 1981 3319 
L 1981 2619 
L 1381 2619 
L 1381 1281 
Q 1381 875 1398 808 
Q 1416 741 1477 697 
Q 1538 653 1625 653 
Q 1747 653 1978 738 
L 2053 56 
Q 1747 -75 1359 -75 
Q 1122 -75 931 4 
Q 741 84 652 211 
Q 563 338 528 553 
Q 500 706 500 1172 
L 500 2619 
L 97 2619 
L 97 3319 
L 500 3319 
L 500 3978 
L 1381 4491 
L 1381 3319 
L 1981 3319 
z
" transform="scale(0.015625)"/>
       <path id="Arial-BoldMT-2f" d="M -9 -78 
L 1125 4659 
L 1784 4659 
L 638 -78 
L -9 -78 
z
" transform="scale(0.015625)"/>
       <path id="Arial-BoldMT-70" d="M 434 3319 
L 1253 3319 
L 1253 2831 
Q 1413 3081 1684 3237 
Q 1956 3394 2288 3394 
Q 2866 3394 3269 2941 
Q 3672 2488 3672 1678 
Q 3672 847 3265 386 
Q 2859 -75 2281 -75 
Q 2006 -75 1782 34 
Q 1559 144 1313 409 
L 1313 -1263 
L 434 -1263 
L 434 3319 
z
M 1303 1716 
Q 1303 1156 1525 889 
Q 1747 622 2066 622 
Q 2372 622 2575 867 
Q 2778 1113 2778 1672 
Q 2778 2194 2568 2447 
Q 2359 2700 2050 2700 
Q 1728 2700 1515 2451 
Q 1303 2203 1303 1716 
z
" transform="scale(0.015625)"/>
      </defs>
      <use xlink:href="#Arial-BoldMT-43"/>
      <use xlink:href="#Arial-BoldMT-68" x="72.216797"/>
      <use xlink:href="#Arial-BoldMT-65" x="133.300781"/>
      <use xlink:href="#Arial-BoldMT-6d" x="188.916016"/>
      <use xlink:href="#Arial-BoldMT-69" x="277.832031"/>
      <use xlink:href="#Arial-BoldMT-63" x="305.615234"/>
      <use xlink:href="#Arial-BoldMT-61" x="361.230469"/>
      <use xlink:href="#Arial-BoldMT-6c" x="416.845703"/>
      <use xlink:href="#Arial-BoldMT-20" x="444.628906"/>
      <use xlink:href="#Arial-BoldMT-53" x="472.412109"/>
      <use xlink:href="#Arial-BoldMT-68" x="539.111328"/>
      <use xlink:href="#Arial-BoldMT-69" x="600.195312"/>
      <use xlink:href="#Arial-BoldMT-66" x="627.978516"/>
      <use xlink:href="#Arial-BoldMT-74" x="661.279297"/>
      <use xlink:href="#Arial-BoldMT-20" x="694.580078"/>
      <use xlink:href="#Arial-BoldMT-2f" x="722.363281"/>
      <use xlink:href="#Arial-BoldMT-20" x="750.146484"/>
      <use xlink:href="#Arial-BoldMT-70" x="777.929688"/>
      <use xlink:href="#Arial-BoldMT-70" x="839.013672"/>
      <use xlink:href="#Arial-BoldMT-6d" x="900.097656"/>
     </g>
    </g>
   </g>
   <g id="matplotlib.axis_2"/>
   <g id="line2d_12">
    <path d="M 3.00311 190.441955 
L 3.41235 190.086593 
L 4.640068 188.441833 
L 5.049307 188.476025 
L 5.458547 188.724083 
L 5.867786 188.661511 
L 6.890885 188.131106 
L 7.300124 187.867438 
L 8.118603 186.769742 
L 8.732463 186.061758 
L 9.141702 186.009714 
L 9.550941 186.182065 
L 9.960181 186.631901 
L 11.187899 188.363055 
L 11.597139 188.454981 
L 12.006378 188.478852 
L 12.415618 188.747102 
L 13.029477 189.249907 
L 13.438716 189.3136 
L 16.303392 189.098443 
L 17.121871 189.491751 
L 17.735731 189.349352 
L 18.14497 189.570822 
L 18.758829 190.012116 
L 19.168069 189.987587 
L 19.986548 189.409512 
L 20.395787 189.743075 
L 20.805026 190.119701 
L 21.214266 190.263037 
L 21.828125 190.209178 
L 22.646604 190.161277 
L 23.465083 190.044614 
L 25.102041 188.749283 
L 25.30666 188.893204 
L 25.7159 189.659763 
L 26.125139 190.391654 
L 26.534379 190.532883 
L 27.148238 190.496997 
L 27.557477 190.804873 
L 27.966717 191.384215 
L 28.171337 191.492848 
L 28.580576 191.269015 
L 29.194435 190.523098 
L 29.808294 189.591964 
L 30.217534 189.355616 
L 31.036013 189.143943 
L 31.649872 189.181852 
L 32.059111 188.898383 
L 32.672971 188.283179 
L 33.08221 188.172085 
L 33.696069 188.241713 
L 34.105309 188.436545 
L 35.128407 189.236906 
L 36.560745 189.083772 
L 38.402323 188.109391 
L 38.811562 188.177617 
L 39.425422 188.515628 
L 40.2439 188.386463 
L 40.65314 188.9844 
L 41.062379 189.776523 
L 41.266999 189.975791 
L 41.471619 190.018428 
L 41.880858 189.801747 
L 42.494717 189.383082 
L 43.313196 189.045973 
L 44.131675 188.673916 
L 44.540915 188.642417 
L 44.950154 188.901088 
L 45.768633 189.828957 
L 46.177873 189.559575 
L 46.587112 189.231581 
L 46.996351 189.245472 
L 47.610211 189.408878 
L 48.01945 189.260777 
L 48.42869 189.011415 
L 48.837929 189.173249 
L 49.247168 189.32079 
L 49.861028 188.945321 
L 50.270267 189.130722 
L 50.884126 189.769261 
L 51.293366 190.197529 
L 51.702605 190.278805 
L 52.521084 190.215368 
L 52.930324 190.219121 
L 53.544183 190.061576 
L 54.362662 190.007595 
L 55.181141 189.592695 
L 57.841197 187.049153 
L 58.455056 186.978197 
L 58.864296 187.274363 
L 59.682775 188.320881 
L 60.501253 188.628587 
L 61.524352 188.47159 
L 62.138211 188.60145 
L 62.95669 188.478706 
L 63.36593 188.728933 
L 63.775169 188.918331 
L 63.979789 188.76109 
L 64.389028 187.902374 
L 64.798268 186.395748 
L 65.412127 182.719927 
L 66.025986 177.689932 
L 66.639845 170.893311 
L 67.253704 164.435334 
L 67.662944 162.707652 
L 67.867564 162.783774 
L 68.072183 163.578006 
L 68.481423 167.152018 
L 69.709141 180.393175 
L 70.118381 182.642599 
L 70.52762 183.770088 
L 72.573817 187.072878 
L 72.778437 187.005773 
L 73.392296 186.568415 
L 73.596916 186.658063 
L 74.006155 187.240853 
L 75.029254 188.935963 
L 75.233874 189.094032 
L 75.438493 189.071306 
L 76.052353 188.453885 
L 76.461592 188.125452 
L 76.870832 188.076381 
L 77.89393 188.465692 
L 78.30317 188.433218 
L 78.712409 188.750684 
L 79.121649 189.15006 
L 80.349367 189.70809 
L 80.963226 189.229509 
L 81.167846 189.302037 
L 82.600184 190.515287 
L 83.009423 190.07749 
L 83.623283 189.25193 
L 84.237142 188.909228 
L 84.646381 188.776651 
L 85.055621 188.878972 
L 85.66948 189.276667 
L 85.8741 189.242876 
L 86.283339 188.67656 
L 86.692578 188.008667 
L 87.101818 187.741259 
L 87.715677 187.752469 
L 88.124917 187.960754 
L 89.148015 188.829402 
L 90.989593 189.607183 
L 91.808072 189.447201 
L 92.217311 189.619588 
L 92.83117 190.169807 
L 93.03579 190.209141 
L 93.24041 190.083863 
L 93.649649 189.400056 
L 94.058889 188.625735 
L 94.263508 188.406971 
L 94.468128 188.397405 
L 94.672748 188.625406 
L 95.695846 190.710412 
L 96.105086 190.876218 
L 96.514325 190.720672 
L 98.151283 189.783554 
L 98.560523 189.844701 
L 99.379002 190.200782 
L 99.992861 190.032039 
L 100.60672 189.489119 
L 101.015959 189.202384 
L 101.425199 189.101794 
L 101.834438 189.204882 
L 102.243678 189.665198 
L 102.652917 190.372255 
L 102.857537 190.522611 
L 103.062157 190.468946 
L 104.085255 189.52035 
L 104.699114 188.830803 
L 105.312974 188.64762 
L 105.722213 188.759482 
L 106.949931 189.469805 
L 107.563791 189.960864 
L 108.586889 190.464352 
L 109.405368 191.673582 
L 109.814608 191.706519 
L 110.223847 191.45801 
L 111.042326 190.417134 
L 111.656185 189.764496 
L 112.065425 189.619466 
L 112.474664 189.809863 
L 113.497763 190.825259 
L 113.907002 190.832851 
L 114.520861 190.402962 
L 115.54396 189.558368 
L 115.953199 189.452197 
L 116.362439 189.832966 
L 116.976298 190.519564 
L 117.385537 190.654359 
L 118.613256 190.695412 
L 119.840974 190.770145 
L 120.045594 190.613782 
L 120.864073 189.551813 
L 122.70565 189.064641 
L 123.11489 188.727471 
L 123.524129 188.809795 
L 124.751848 189.634722 
L 125.570327 189.522531 
L 125.979566 189.109654 
L 126.388805 188.580564 
L 126.798045 188.593298 
L 127.207284 188.577566 
L 127.616524 188.121491 
L 128.025763 187.653012 
L 128.230383 187.623328 
L 128.435003 187.788355 
L 129.867341 189.838376 
L 130.27658 190.298192 
L 130.68582 190.395627 
L 131.095059 190.035743 
L 131.504299 189.607037 
L 131.708918 189.598678 
L 132.118158 190.035122 
L 132.732017 190.708767 
L 133.755116 191.28176 
L 134.164355 191.245728 
L 134.982834 190.941849 
L 135.596693 190.819459 
L 136.210552 190.520722 
L 140.098327 190.003086 
L 140.507567 190.053205 
L 141.121426 190.010958 
L 142.144524 190.247842 
L 142.758384 190.590166 
L 143.167623 190.504674 
L 143.576862 190.434778 
L 145.009201 191.040721 
L 145.62306 191.113675 
L 146.032299 190.70834 
L 146.646158 190.04749 
L 147.055398 189.987708 
L 147.873877 190.107101 
L 149.306215 190.187074 
L 150.124694 190.152114 
L 150.533933 189.848905 
L 151.352412 189.008454 
L 151.761652 189.16896 
L 152.58013 189.675165 
L 153.19399 189.741222 
L 153.603229 189.628325 
L 154.217088 189.449443 
L 154.830947 189.381144 
L 155.444807 188.88911 
L 156.058666 188.406459 
L 157.900243 187.825106 
L 158.514103 187.421977 
L 158.923342 187.592536 
L 159.741821 188.328046 
L 160.15106 188.410614 
L 160.76492 188.11691 
L 161.174159 187.937955 
L 161.583398 188.086446 
L 162.197258 188.489563 
L 163.015737 188.617888 
L 163.834215 188.672137 
L 164.243455 188.673246 
L 164.857314 189.118707 
L 165.266554 189.63605 
L 166.085032 190.91247 
L 166.289652 191.030364 
L 166.494272 190.996147 
L 167.108131 190.576531 
L 167.92661 190.629306 
L 168.540469 190.18616 
L 169.563568 189.964544 
L 170.177427 189.451771 
L 170.586666 189.425316 
L 170.995906 189.592 
L 172.019005 190.391947 
L 172.837483 191.229412 
L 173.042103 191.272475 
L 173.451343 191.056111 
L 175.0883 189.927245 
L 175.49754 189.775073 
L 175.70216 189.83823 
L 176.111399 190.324171 
L 176.520639 190.876121 
L 176.725258 190.920805 
L 176.929878 190.737866 
L 177.952977 189.004323 
L 178.362216 189.058012 
L 178.771455 188.745408 
L 179.385315 188.071921 
L 179.794554 187.907869 
L 180.203794 188.160436 
L 181.431512 189.556321 
L 182.045371 190.065403 
L 182.454611 190.501079 
L 182.65923 190.467874 
L 183.06847 189.88267 
L 183.682329 188.942592 
L 183.886949 188.829767 
L 184.091568 188.875389 
L 184.500808 189.398435 
L 184.910047 189.940064 
L 185.728526 190.478536 
L 185.933146 190.508744 
L 186.342385 190.229942 
L 186.751625 189.764618 
L 186.956245 189.695405 
L 187.570104 190.084022 
L 187.979343 190.226237 
L 188.183963 190.213674 
L 188.388583 190.084339 
L 188.797822 189.443424 
L 189.616301 188.049634 
L 189.820921 187.875225 
L 190.02554 187.848283 
L 191.253259 188.298496 
L 191.662498 187.912378 
L 192.480977 186.681056 
L 193.708696 184.207178 
L 194.527174 183.789865 
L 195.141034 183.058462 
L 196.164132 181.309297 
L 196.777991 180.045307 
L 197.187231 179.691382 
L 197.391851 179.777094 
L 197.80109 180.374227 
L 198.414949 181.328794 
L 199.847287 182.723875 
L 200.256527 182.827573 
L 200.665766 183.299306 
L 201.075006 183.7735 
L 201.484245 183.743293 
L 201.893485 183.579813 
L 202.302724 183.745474 
L 203.121203 184.365381 
L 203.530442 184.444355 
L 204.144302 184.383403 
L 205.1674 184.609991 
L 205.985879 184.41673 
L 206.190499 184.556704 
L 207.827457 186.835214 
L 208.850555 187.331647 
L 210.078274 187.323287 
L 211.101372 187.149329 
L 211.510612 187.575147 
L 212.329091 188.466277 
L 212.73833 188.536038 
L 213.14757 188.410017 
L 213.352189 188.454421 
L 214.375288 189.437733 
L 214.784527 189.404077 
L 215.603006 189.071599 
L 216.421485 189.374223 
L 216.830725 189.356517 
L 217.239964 189.075205 
L 217.853823 188.326182 
L 218.058443 188.340219 
L 218.672302 188.82839 
L 219.081542 188.701077 
L 219.900021 187.932801 
L 221.127739 186.531005 
L 221.741598 186.601535 
L 222.560077 186.764953 
L 222.969316 187.16205 
L 223.583176 187.7682 
L 224.810894 188.770242 
L 225.424753 189.52966 
L 225.629373 189.560282 
L 226.038612 189.311785 
L 226.652472 188.754657 
L 226.857091 188.73633 
L 227.266331 189.034336 
L 228.08481 189.97941 
L 228.494049 190.104774 
L 228.903289 190.126403 
L 229.517148 190.478049 
L 229.926387 190.641674 
L 231.154106 190.539829 
L 232.177204 190.859 
L 232.586444 190.402085 
L 233.200303 189.520423 
L 233.609542 189.43978 
L 234.018782 189.835306 
L 234.632641 190.645549 
L 234.837261 190.648096 
L 235.2465 190.105029 
L 235.860359 189.291496 
L 236.269599 189.127785 
L 236.678838 189.375417 
L 237.088078 189.694199 
L 237.292697 189.679576 
L 237.701937 189.203274 
L 238.111176 188.671211 
L 238.520416 188.639566 
L 239.134275 188.995964 
L 239.543514 189.34181 
L 240.361993 190.231136 
L 240.566613 190.026044 
L 241.385092 188.500932 
L 241.794331 188.346093 
L 241.998951 188.431805 
L 242.408191 189.110714 
L 243.02205 190.169844 
L 243.431289 190.41661 
L 244.659008 190.334212 
L 245.477486 189.6835 
L 246.091346 189.094787 
L 246.500585 188.918562 
L 246.705205 188.931211 
L 246.909825 189.087976 
L 247.728303 190.275003 
L 248.137543 190.354026 
L 248.546782 190.367101 
L 249.97912 190.921438 
L 250.38836 190.761932 
L 251.002219 190.199381 
L 251.411459 190.177947 
L 251.820698 190.130862 
L 252.434557 189.724102 
L 252.843797 189.882683 
L 253.253036 190.352259 
L 253.866895 191.137351 
L 254.480754 191.344893 
L 255.503853 191.7179 
L 255.913092 191.337155 
L 256.322332 190.795783 
L 257.345431 190.044529 
L 257.95929 189.129504 
L 258.163909 188.996537 
L 258.573149 189.079872 
L 259.187008 189.257609 
L 259.596248 189.09876 
L 260.210107 188.560714 
L 261.028586 187.826971 
L 261.847065 187.266625 
L 262.460924 187.200422 
L 262.870163 187.326992 
L 263.688642 187.990243 
L 264.711741 188.345093 
L 265.53022 188.146277 
L 265.939459 188.181955 
L 266.757938 188.696045 
L 267.167177 188.617071 
L 267.576417 188.294609 
L 268.190276 187.643629 
L 268.394896 187.645323 
L 268.804135 188.017903 
L 269.213375 188.428295 
L 269.417994 188.452617 
L 269.827234 188.102348 
L 270.441093 187.244082 
L 270.850333 187.087183 
L 271.259572 186.996524 
L 272.282671 186.387791 
L 273.10115 186.280133 
L 273.305769 186.097656 
L 273.510389 185.713975 
L 273.919628 184.277476 
L 276.784305 171.385612 
L 278.625882 161.815121 
L 280.876699 156.080006 
L 281.695178 152.939599 
L 283.741375 142.850022 
L 284.150615 140.918358 
L 284.969094 135.223564 
L 286.606052 123.795775 
L 286.810671 123.25082 
L 287.219911 122.920291 
L 287.62915 122.750744 
L 287.83377 122.787276 
L 288.243009 123.300281 
L 289.675347 125.961509 
L 290.084587 127.071123 
L 290.289207 127.270561 
L 290.493826 127.176137 
L 291.107686 126.127547 
L 292.540024 123.160161 
L 292.744643 122.786618 
L 293.153883 121.269585 
L 293.767742 117.686288 
L 295.20008 108.128397 
L 295.609319 106.684903 
L 295.813939 106.336705 
L 296.018559 106.314211 
L 296.223179 106.660752 
L 296.837038 109.024193 
L 297.450897 112.001864 
L 297.860136 115.540356 
L 298.473996 123.423646 
L 299.906334 143.18155 
L 300.724813 151.322378 
L 301.338672 154.742525 
L 301.747911 155.904329 
L 302.157151 156.41586 
L 302.56639 156.372662 
L 302.97563 155.874548 
L 303.384869 154.675725 
L 305.021827 147.757238 
L 305.840306 143.901256 
L 306.249545 143.042588 
L 306.454165 142.917688 
L 306.658785 142.938647 
L 306.863404 143.126558 
L 307.068024 143.55 
L 307.477264 145.307633 
L 309.114221 155.29038 
L 310.751179 159.353136 
L 311.569658 161.134177 
L 311.774278 161.287555 
L 311.978898 161.233342 
L 312.388137 160.7426 
L 313.206616 159.385768 
L 313.615855 158.359698 
L 314.025095 156.503363 
L 314.638954 152.002019 
L 316.071292 139.721216 
L 316.685151 137.212476 
L 316.889771 136.842795 
L 317.094391 136.917626 
L 317.299011 137.550206 
L 317.70825 140.344535 
L 318.731349 148.789779 
L 319.345208 151.945844 
L 319.754447 153.216049 
L 320.572926 155.202853 
L 321.391405 157.223166 
L 321.800645 157.688197 
L 322.209884 157.734161 
L 322.619123 157.60028 
L 322.823743 157.433669 
L 323.028363 157.092417 
L 323.437602 155.724851 
L 323.846842 153.422847 
L 325.07456 145.563392 
L 325.4838 144.647782 
L 326.097659 144.00471 
L 326.711518 142.88363 
L 327.120757 142.673566 
L 327.529997 142.592984 
L 327.734617 142.398456 
L 328.143856 141.426123 
L 328.553096 139.42611 
L 330.190053 127.812312 
L 330.803913 124.001721 
L 331.417772 118.791966 
L 333.054729 104.341555 
L 334.077828 95.687819 
L 334.691687 88.073522 
L 335.510166 74.212981 
L 337.556363 35.278378 
L 339.80718 9.822901 
L 340.21642 7.937651 
L 340.42104 8.116642 
L 340.625659 8.995099 
L 341.034899 12.182395 
L 342.057997 21.557542 
L 342.467237 23.406359 
L 343.081096 25.219776 
L 344.922674 32.908429 
L 345.331913 33.563906 
L 345.536533 33.707754 
L 345.741153 33.708095 
L 345.945772 33.538134 
L 346.355012 32.765629 
L 347.173491 30.413994 
L 347.78735 28.218065 
L 348.196589 25.478655 
L 348.810448 19.412353 
L 349.628927 9.142128 
L 350.038167 4.358533 
L 350.242787 3.066102 
L 350.447406 3.00024 
L 350.652026 4.37541 
L 351.061265 11.057976 
L 352.288984 37.277148 
L 353.925942 65.919579 
L 354.744421 78.641664 
L 355.562899 87.866504 
L 356.176759 93.321477 
L 356.585998 95.558215 
L 356.995238 96.738395 
L 357.813716 98.687728 
L 358.427576 100.189042 
L 359.041435 101.595431 
L 359.450674 103.33258 
L 361.292252 113.201821 
L 362.110731 118.059551 
L 362.72459 120.404715 
L 363.133829 121.475506 
L 363.543069 122.078476 
L 363.952308 122.382501 
L 364.361548 122.617582 
L 365.589266 123.782384 
L 365.793886 123.77467 
L 366.203125 123.397788 
L 366.816984 122.261951 
L 367.226224 120.925433 
L 367.840083 117.66048 
L 369.067801 110.042746 
L 369.272421 109.646562 
L 369.477041 109.555964 
L 369.88628 109.804631 
L 370.29552 110.420006 
L 370.704759 111.732677 
L 371.727858 116.089661 
L 372.137097 116.883758 
L 373.160196 118.03016 
L 373.364816 118.092342 
L 373.569435 117.908379 
L 373.978675 116.712481 
L 374.797154 113.706844 
L 375.206393 112.887791 
L 375.615633 112.500283 
L 376.229492 112.405432 
L 376.434112 112.191372 
L 376.843351 111.201016 
L 377.25259 109.606753 
L 377.66183 107.089178 
L 378.480309 99.794357 
L 380.117267 84.821314 
L 380.935746 78.46104 
L 381.549605 74.281316 
L 381.958844 72.891353 
L 382.163464 72.539293 
L 382.368084 72.459625 
L 382.572703 72.70973 
L 382.777323 73.354057 
L 383.186563 75.876335 
L 383.800422 81.867782 
L 384.82352 91.689829 
L 387.278957 108.987052 
L 387.688197 110.477972 
L 388.097436 111.117449 
L 388.915915 111.500058 
L 389.939014 112.584082 
L 390.962112 112.928222 
L 391.371352 112.579428 
L 391.985211 111.989277 
L 392.59907 111.420048 
L 393.008309 111.080503 
L 393.622169 110.888753 
L 393.826788 111.010778 
L 394.236028 111.857114 
L 394.849887 114.202485 
L 395.668366 117.674115 
L 396.077605 118.747039 
L 396.486845 119.287729 
L 396.691465 119.325004 
L 397.100704 118.998338 
L 397.919183 118.16476 
L 398.328422 118.095583 
L 398.737662 118.231694 
L 399.146901 118.792953 
L 400.579239 121.736286 
L 402.011577 126.489807 
L 402.216197 126.550039 
L 402.420817 126.364797 
L 403.239296 125.078044 
L 403.443916 124.975077 
L 403.648535 125.000679 
L 404.057775 125.399994 
L 404.467014 126.291697 
L 405.080873 128.698628 
L 405.694733 130.858074 
L 405.899352 131.209209 
L 406.103972 131.321058 
L 406.308592 131.221016 
L 406.717831 130.447183 
L 407.33169 128.886235 
L 407.53631 128.726569 
L 407.74093 128.831644 
L 408.150169 129.713732 
L 409.787127 133.844446 
L 410.196366 134.535187 
L 410.400986 134.662463 
L 411.219465 134.597978 
L 411.628705 135.043025 
L 412.242564 136.237535 
L 412.856423 137.47657 
L 413.470282 138.556744 
L 414.493381 141.408807 
L 415.10724 144.101499 
L 416.539578 151.720573 
L 417.562677 154.501255 
L 418.790395 159.195311 
L 419.199634 159.975334 
L 419.813494 160.536813 
L 420.836592 160.867171 
L 421.245832 161.496205 
L 421.655071 162.129053 
L 422.26893 162.840205 
L 423.087409 164.361173 
L 423.701268 164.970687 
L 424.315128 165.288957 
L 424.928987 165.578579 
L 426.156705 166.526822 
L 426.565945 167.405791 
L 427.179804 169.470435 
L 427.793663 171.264368 
L 428.612142 172.736387 
L 429.226001 173.486959 
L 430.04448 175.047627 
L 430.453719 175.260482 
L 431.067579 175.532654 
L 431.886058 176.178468 
L 432.909156 176.095778 
L 433.318396 176.488708 
L 433.727635 176.939214 
L 434.136875 177.07156 
L 434.546114 176.969361 
L 434.955353 176.8134 
L 435.159973 176.842998 
L 435.569213 177.277724 
L 436.387692 178.632703 
L 436.796931 178.8144 
L 437.61541 178.706169 
L 438.024649 178.928784 
L 438.638509 179.590243 
L 440.070847 181.91992 
L 440.480086 181.826543 
L 440.889326 181.709551 
L 441.093945 181.862417 
L 441.503185 182.772373 
L 442.117044 184.552451 
L 442.321664 184.76003 
L 442.730903 184.605702 
L 443.140143 184.405325 
L 443.549382 184.583134 
L 444.163241 185.0357 
L 444.572481 184.930235 
L 445.18634 184.549746 
L 446.209438 184.546541 
L 446.618678 183.916959 
L 447.027917 183.220015 
L 447.232537 183.035541 
L 447.437157 183.008977 
L 448.664875 183.707041 
L 449.483354 184.799279 
L 449.892593 184.860803 
L 450.915692 184.318614 
L 451.324932 184.423932 
L 451.938791 184.824795 
L 452.34803 184.686613 
L 452.961889 184.272687 
L 453.371129 184.476195 
L 454.189608 184.950731 
L 455.008087 185.360855 
L 455.417326 185.111602 
L 456.031185 184.536647 
L 456.440425 184.427246 
L 457.258904 184.664667 
L 457.668143 184.408457 
L 458.282002 183.730961 
L 458.486622 183.689994 
L 458.895861 183.995213 
L 460.12358 185.632711 
L 460.3282 185.651964 
L 460.737439 185.306642 
L 461.965157 184.047598 
L 462.988256 184.145423 
L 463.397495 183.775669 
L 464.011355 183.070818 
L 464.420594 183.077605 
L 465.239073 183.329465 
L 465.443693 183.247603 
L 465.852932 182.599328 
L 466.262172 181.326844 
L 466.876031 178.502198 
L 467.48989 175.617416 
L 467.899129 174.66369 
L 468.103749 174.509191 
L 468.308369 174.533136 
L 468.512989 174.766047 
L 468.922228 175.924805 
L 469.945327 179.593253 
L 470.354566 180.480264 
L 470.763806 180.949219 
L 471.173045 181.178426 
L 471.786904 181.118584 
L 472.196144 181.091033 
L 472.400763 181.18737 
L 472.810003 181.72432 
L 473.423862 182.579478 
L 474.65158 183.851316 
L 475.06082 183.621293 
L 475.470059 183.430506 
L 475.879299 183.613384 
L 476.697778 184.459879 
L 477.107017 184.441199 
L 477.516257 184.350064 
L 477.720876 184.488466 
L 478.334736 185.488996 
L 479.357834 186.835409 
L 479.562454 186.960431 
L 479.971693 186.844597 
L 480.585553 186.452251 
L 481.199412 185.76045 
L 481.404031 185.687545 
L 481.813271 185.91585 
L 482.42713 186.388534 
L 483.040989 186.575982 
L 483.859468 186.506354 
L 484.677947 187.174723 
L 485.291806 187.636281 
L 485.496426 187.664405 
L 485.905665 187.405368 
L 486.519525 187.03743 
L 487.338003 187.021382 
L 487.747243 186.539779 
L 488.156482 186.092002 
L 488.361102 186.1318 
L 488.974961 186.51224 
L 489.79344 186.298325 
L 490.407299 186.739071 
L 491.021159 187.470926 
L 491.430398 187.528441 
L 491.839637 187.587491 
L 492.248877 187.656448 
L 492.862736 187.402054 
L 493.476595 187.072939 
L 494.090454 187.139812 
L 494.704314 187.305058 
L 494.908933 187.201312 
L 495.522793 186.406154 
L 495.727412 186.411674 
L 496.750511 187.373528 
L 497.56899 187.418711 
L 497.978229 187.961083 
L 498.592088 188.947174 
L 499.001328 189.128419 
L 499.410567 188.874 
L 500.229046 187.903653 
L 500.433666 187.986721 
L 501.252145 188.767792 
L 501.661384 188.770339 
L 502.479863 188.316543 
L 502.889103 188.097279 
L 503.093722 188.140939 
L 503.912201 188.731724 
L 504.321441 188.590056 
L 504.9353 188.203706 
L 505.549159 187.700194 
L 505.753779 187.686973 
L 506.163018 187.979471 
L 506.776878 188.514373 
L 507.390737 188.667105 
L 508.004596 188.670248 
L 509.436934 188.19196 
L 509.846173 188.245332 
L 510.460033 188.543874 
L 511.278512 188.041348 
L 512.09699 188.275161 
L 512.50623 188.334358 
L 513.120089 188.586681 
L 513.529329 188.29305 
L 514.347807 187.45467 
L 515.370906 187.594888 
L 515.575526 187.760134 
L 516.394005 188.981475 
L 516.803244 188.948611 
L 517.212484 188.623542 
L 517.621723 188.218792 
L 517.826343 188.190144 
L 518.235582 188.518821 
L 518.644822 188.920926 
L 518.849441 188.972361 
L 519.66792 188.698421 
L 520.691019 189.159065 
L 521.100258 189.446811 
L 521.509498 189.274254 
L 522.532597 188.211639 
L 522.941836 188.623188 
L 523.555695 189.32971 
L 523.964935 189.255366 
L 524.374174 189.043536 
L 524.783414 189.130527 
L 525.192653 189.230277 
L 525.601892 188.916881 
L 526.215752 187.955539 
L 526.829611 187.010476 
L 527.23885 186.832216 
L 527.64809 186.969375 
L 528.057329 187.1117 
L 528.466569 187.12352 
L 528.875808 187.46019 
L 530.103526 189.00676 
L 530.512766 188.793662 
L 530.922005 188.546883 
L 531.535864 188.477804 
L 531.945104 188.618863 
L 532.763583 189.435442 
L 533.582062 189.433261 
L 533.786681 189.336436 
L 534.195921 188.800827 
L 534.60516 188.249036 
L 534.80978 188.133896 
L 535.0144 188.19698 
L 535.423639 188.860499 
L 535.832879 189.668561 
L 536.037498 189.869912 
L 536.242118 189.893844 
L 536.651358 189.644787 
L 537.060597 189.111091 
L 537.674456 187.899169 
L 537.879076 187.731985 
L 538.288315 187.758537 
L 538.697555 188.091125 
L 539.311414 188.886478 
L 539.516034 188.995598 
L 539.925273 188.826087 
L 540.334513 188.547505 
L 540.948372 188.554621 
L 541.357611 188.766099 
L 542.58533 189.725016 
L 542.994569 189.807231 
L 543.199189 189.671327 
L 543.608428 188.977905 
L 544.222288 187.910172 
L 544.631527 187.67776 
L 545.245386 187.452599 
L 545.859245 186.910008 
L 546.268485 186.90952 
L 546.677724 187.012207 
L 547.496203 186.660756 
L 548.110062 187.063032 
L 548.723922 187.956562 
L 549.337781 188.754376 
L 549.74702 188.883688 
L 550.15626 188.779076 
L 550.565499 189.007126 
L 551.179358 189.39311 
L 552.202457 189.598239 
L 552.611696 189.826155 
L 553.020936 189.79507 
L 553.430175 189.540432 
L 553.839415 189.09179 
L 554.453274 187.83182 
L 555.271753 186.172901 
L 555.680992 185.76792 
L 556.090232 185.663515 
L 556.499471 185.884814 
L 557.11333 186.443295 
L 557.52257 186.406422 
L 557.931809 186.298447 
L 558.954908 186.44377 
L 559.364147 186.490574 
L 559.773387 186.17468 
L 560.182626 185.824996 
L 561.001105 185.751616 
L 562.024204 185.905529 
L 562.433443 186.07108 
L 562.638063 186.029394 
L 563.047302 185.593535 
L 563.865781 184.278122 
L 564.275021 184.085848 
L 565.298119 184.24566 
L 566.116598 183.747753 
L 566.935077 183.973365 
L 567.344317 184.032878 
L 568.367415 184.574056 
L 568.776655 184.810002 
L 569.390514 185.294749 
L 569.799753 185.303644 
L 571.027472 184.779002 
L 571.232091 184.850738 
L 571.436711 185.06241 
L 572.66443 187.277093 
L 573.073669 187.472047 
L 573.482908 187.411193 
L 573.892148 187.034798 
L 574.506007 186.373132 
L 575.119866 186.112925 
L 575.529106 186.345483 
L 576.756824 187.692688 
L 577.166064 187.718594 
L 577.779923 187.458899 
L 579.212261 186.494851 
L 579.416881 186.48687 
L 579.82612 186.830522 
L 580.849219 188.614135 
L 581.053838 188.668652 
L 582.076937 188.347421 
L 582.486176 188.629196 
L 583.100036 189.199009 
L 583.509275 189.350181 
L 583.918515 189.32241 
L 584.941613 188.782427 
L 585.964712 189.274887 
L 586.783191 188.783414 
L 587.60167 188.385074 
L 588.010909 188.523488 
L 588.420149 188.779576 
L 591.080205 189.090193 
L 591.489444 189.380376 
L 591.694064 189.406855 
L 592.717163 188.837261 
L 593.126402 188.358485 
L 593.535642 187.749191 
L 593.944881 187.59228 
L 594.55874 187.704995 
L 595.786459 188.432877 
L 596.195698 188.042189 
L 596.809557 187.39852 
L 597.218797 187.28215 
L 597.628036 187.240683 
L 598.037276 186.924131 
L 598.446515 186.510851 
L 598.651135 186.444599 
L 599.060374 186.687819 
L 599.878853 187.515804 
L 600.492712 187.66789 
L 600.901952 187.765276 
L 601.720431 188.69641 
L 601.925051 188.693425 
L 602.12967 188.550466 
L 602.53891 187.858689 
L 603.152769 186.779319 
L 603.562008 186.632278 
L 604.175867 186.65989 
L 604.585107 186.452678 
L 604.789727 186.270409 
L 605.198966 185.382411 
L 607.449783 177.247102 
L 607.859023 174.784727 
L 608.472882 169.309746 
L 608.882121 163.993954 
L 609.291361 156.622146 
L 609.90522 140.603 
L 610.519079 123.004164 
L 610.723699 119.417247 
L 610.928318 118.114714 
L 611.132938 119.326698 
L 611.542178 127.753322 
L 612.565276 154.534545 
L 613.179135 164.400885 
L 613.997614 173.183993 
L 614.611474 178.204484 
L 615.225333 181.168812 
L 616.248431 184.450703 
L 616.657671 185.167801 
L 617.06691 185.167229 
L 617.47615 185.187067 
L 618.908488 186.014491 
L 619.522347 186.925069 
L 620.954685 189.441486 
L 621.363925 189.536715 
L 622.182403 189.367119 
L 622.591643 188.734673 
L 623.000882 187.852767 
L 623.205502 187.647041 
L 623.410122 187.700693 
L 623.819361 188.426967 
L 624.228601 189.046046 
L 624.43322 189.025026 
L 625.04708 188.720635 
L 625.660939 188.496436 
L 626.684037 187.622305 
L 627.093277 187.649027 
L 627.911756 188.000235 
L 628.320995 187.769102 
L 628.934854 187.312516 
L 629.344094 187.342248 
L 630.367193 187.612313 
L 630.776432 187.321825 
L 631.390291 186.807833 
L 632.00415 186.490087 
L 632.41339 186.504917 
L 633.231869 187.164621 
L 634.050348 187.722968 
L 634.459587 187.671692 
L 634.868827 187.25868 
L 635.278066 186.721719 
L 635.687305 186.564004 
L 636.096545 186.491915 
L 636.505784 186.191131 
L 637.119644 185.640327 
L 637.528883 185.815747 
L 637.938122 186.025726 
L 638.347362 186.193239 
L 638.756601 186.88253 
L 639.165841 187.623986 
L 639.57508 187.801138 
L 639.98432 187.918824 
L 640.802799 188.567087 
L 641.416658 188.495888 
L 641.825897 188.207813 
L 642.848996 187.091436 
L 643.667475 186.542301 
L 644.076714 186.412478 
L 644.690573 186.0427 
L 645.713672 185.995165 
L 646.327531 185.76703 
L 646.736771 185.939185 
L 647.55525 186.449558 
L 647.964489 186.295023 
L 648.373728 186.145143 
L 649.192207 186.112474 
L 649.601447 185.907113 
L 650.215306 185.284696 
L 650.624545 184.938558 
L 651.033785 185.065627 
L 651.647644 185.401164 
L 652.056884 185.221234 
L 652.670743 184.850701 
L 653.079982 184.960613 
L 654.307701 185.760877 
L 654.92156 185.558221 
L 655.944658 185.687569 
L 656.967757 185.325334 
L 657.376996 184.921864 
L 657.990856 184.331871 
L 658.604715 184.122989 
L 659.013954 184.162799 
L 659.423194 184.231732 
L 659.832433 183.973828 
L 661.060152 182.730589 
L 661.264771 182.629341 
L 661.469391 182.727787 
L 661.87863 183.182667 
L 662.08325 183.227485 
L 663.310969 182.536476 
L 664.129447 181.374282 
L 664.743307 180.222909 
L 665.357166 178.413013 
L 665.971025 176.538717 
L 666.380264 175.994846 
L 667.812603 175.236245 
L 668.426462 175.836412 
L 668.835701 176.087906 
L 669.8588 176.177712 
L 670.268039 176.659498 
L 671.495758 178.237896 
L 671.700377 178.284542 
L 672.109617 177.999696 
L 672.518856 177.719908 
L 672.723476 177.838532 
L 673.541955 178.909836 
L 674.155814 179.376097 
L 674.565054 179.683888 
L 675.178913 179.901994 
L 677.42973 181.995335 
L 677.838969 182.045734 
L 678.248209 181.64548 
L 680.089786 178.856732 
L 680.908265 176.49597 
L 681.317504 176.184804 
L 681.931364 176.302466 
L 682.340603 176.638808 
L 683.568321 178.38378 
L 683.977561 179.111674 
L 684.182181 179.228045 
L 685.205279 178.936863 
L 685.614519 178.389995 
L 686.023758 177.501546 
L 686.842237 175.357099 
L 687.865336 173.856517 
L 688.683815 171.826261 
L 689.297674 169.345352 
L 689.911533 165.227591 
L 690.525392 161.120274 
L 690.934632 159.590361 
L 691.343871 159.152406 
L 691.548491 159.044066 
L 691.753111 158.779082 
L 692.16235 157.577749 
L 693.185449 153.63335 
L 693.390068 153.304771 
L 693.594688 153.305648 
L 693.799308 153.596684 
L 695.231646 156.897512 
L 695.640885 157.15126 
L 695.845505 157.057993 
L 696.050125 156.728244 
L 696.459364 155.296034 
L 697.073223 151.669942 
L 697.687083 146.108932 
L 698.300942 137.762561 
L 698.914801 126.557679 
L 699.52866 110.577551 
L 701.370238 52.113751 
L 701.779477 46.45165 
L 702.188717 41.941228 
L 702.597956 34.455876 
L 703.007196 25.655904 
L 703.211815 24.319459 
L 703.416435 27.275464 
L 703.825674 45.776446 
L 704.644153 92.525515 
L 705.258013 115.055097 
L 705.871872 129.187092 
L 706.485731 138.954597 
L 707.09959 145.05358 
L 707.713449 148.454498 
L 708.122689 149.7655 
L 708.327308 149.958163 
L 708.531928 149.873353 
L 708.736548 149.552463 
L 709.145787 148.220953 
L 709.555027 146.843406 
L 709.759647 146.747032 
L 709.964266 147.155304 
L 710.782745 150.297368 
L 710.987365 150.563021 
L 711.191985 150.471436 
L 711.396604 150.029911 
L 711.805844 148.313562 
L 712.419703 145.751535 
L 712.828942 145.236141 
L 713.238182 145.338486 
L 713.647421 145.921472 
L 714.056661 146.980127 
L 714.4659 148.518118 
L 715.079759 152.145099 
L 716.307478 159.28112 
L 716.716717 160.881635 
L 717.125957 161.688856 
L 717.330576 161.765222 
L 717.535196 161.64037 
L 717.944436 160.963984 
L 718.967534 158.582166 
L 719.172154 158.571955 
L 719.376774 158.941014 
L 719.786013 160.630738 
L 720.604492 164.061193 
L 721.218351 165.94486 
L 721.627591 166.678749 
L 722.650689 167.841821 
L 723.059929 167.765893 
L 723.469168 167.698935 
L 723.878408 167.880716 
L 724.287647 168.23798 
L 725.106126 169.450317 
L 725.310746 169.490455 
L 726.333844 169.117229 
L 726.743084 169.18604 
L 727.356943 169.58566 
L 728.175422 170.110813 
L 728.789281 170.33316 
L 729.198521 170.180745 
L 729.81238 169.696851 
L 730.426239 168.706277 
L 731.449338 166.978888 
L 731.653957 166.878651 
L 732.472436 167.040814 
L 732.881676 166.635162 
L 733.290915 165.871309 
L 733.700155 164.616031 
L 736.97407 152.045825 
L 737.38331 150.998211 
L 737.792549 149.338231 
L 738.611028 144.920198 
L 739.020267 141.5219 
L 739.429507 136.345522 
L 740.043366 124.373497 
L 740.657225 106.036348 
L 742.089563 52.826072 
L 742.294183 49.685044 
L 742.498803 49.063674 
L 742.703423 51.041144 
L 743.112662 61.129429 
L 744.34038 97.74068 
L 744.95424 108.045439 
L 745.568099 113.900665 
L 746.181958 117.185286 
L 748.637395 127.452416 
L 749.251254 129.165987 
L 749.660493 130.19497 
L 750.478972 132.574119 
L 750.888212 133.123046 
L 751.092831 133.044694 
L 751.297451 132.689624 
L 752.11593 130.41282 
L 752.32055 130.3584 
L 752.525169 130.615622 
L 752.934409 131.849965 
L 754.366747 138.051952 
L 754.775986 138.445942 
L 755.389846 138.527584 
L 755.594465 138.804887 
L 756.003705 140.092005 
L 756.617564 143.636078 
L 757.845282 151.11123 
L 758.459141 153.331908 
L 759.073001 154.776961 
L 759.48224 155.284629 
L 759.89148 155.23183 
L 760.300719 155.098911 
L 760.709958 155.326608 
L 761.323818 156.05003 
L 762.142297 157.280888 
L 762.346916 157.350101 
L 762.551536 157.253776 
L 762.960775 156.619636 
L 763.779254 154.935761 
L 764.188494 154.776425 
L 764.597733 154.658422 
L 765.825452 153.847167 
L 766.234691 153.101665 
L 767.05317 151.34196 
L 767.462409 150.958389 
L 767.871649 150.777716 
L 768.690128 150.115233 
L 769.508607 149.88683 
L 769.917846 149.388776 
L 770.327086 148.583042 
L 770.736325 147.325424 
L 771.145565 145.40659 
L 771.554804 142.357586 
L 771.964043 137.720899 
L 772.577903 127.413094 
L 773.191762 116.070615 
L 773.396382 114.010602 
L 773.601001 113.526184 
L 773.805621 114.612402 
L 774.21486 120.054275 
L 775.237959 135.687559 
L 775.851818 140.876135 
L 776.465677 144.023902 
L 777.079537 146.168031 
L 778.307255 149.204899 
L 778.921114 151.128789 
L 779.330354 151.637237 
L 780.148833 151.809928 
L 780.353452 151.647582 
L 781.171931 150.437524 
L 781.376551 150.588477 
L 781.78579 151.46195 
L 782.39965 152.815905 
L 782.808889 153.272638 
L 783.218128 153.512093 
L 783.422748 153.743518 
L 783.831988 154.713707 
L 785.673565 160.581618 
L 786.696664 163.109916 
L 787.105903 163.57379 
L 787.310523 163.500556 
L 788.333622 162.371214 
L 788.538241 162.388054 
L 788.742861 162.54215 
L 789.152101 163.257421 
L 790.993678 167.002613 
L 791.402918 167.385051 
L 791.812157 167.47119 
L 792.630636 167.011642 
L 793.039875 167.332483 
L 793.449115 167.622727 
L 794.267594 167.497717 
L 794.881453 167.59665 
L 795.495312 167.623544 
L 795.904551 168.003996 
L 796.313791 168.732999 
L 797.13227 170.761282 
L 797.541509 171.145402 
L 797.950749 171.165496 
L 799.178467 170.601446 
L 799.996946 170.794146 
L 800.406185 171.02908 
L 801.224664 171.911461 
L 801.838524 172.913661 
L 802.657002 174.335196 
L 803.270862 174.931244 
L 804.907819 175.840945 
L 805.521679 175.941011 
L 806.135538 175.66829 
L 806.544777 175.580397 
L 807.158636 175.920247 
L 807.363256 175.852228 
L 807.772496 175.322859 
L 808.590975 173.755379 
L 808.795594 173.674431 
L 809.000214 173.876843 
L 809.409453 174.98514 
L 810.023313 176.671282 
L 810.637172 177.73676 
L 811.046411 178.00284 
L 811.455651 178.052788 
L 811.86489 178.001951 
L 812.06951 178.09183 
L 812.887989 179.014021 
L 813.092609 178.912772 
L 814.320327 177.494917 
L 814.729566 177.619098 
L 815.548045 178.150929 
L 815.957285 178.640867 
L 816.775764 179.826457 
L 817.389623 180.115811 
L 818.003482 180.496654 
L 818.617341 180.776881 
L 819.64044 181.027425 
L 820.049679 181.697049 
L 820.663538 182.97253 
L 821.072778 183.268172 
L 821.891257 183.374746 
L 822.709736 183.269988 
L 823.528215 183.153142 
L 823.937454 183.424121 
L 824.346694 183.72666 
L 824.551313 183.740356 
L 824.755933 183.597689 
L 825.165172 182.886221 
L 825.779032 181.593851 
L 826.392891 180.88354 
L 827.00675 180.334819 
L 828.029849 179.903627 
L 828.848328 180.138513 
L 829.052947 179.985428 
L 829.462187 179.231347 
L 829.871426 178.463838 
L 830.280666 178.106964 
L 830.894525 177.800161 
L 831.713004 177.800343 
L 833.145342 175.807203 
L 834.7823 172.758175 
L 835.396159 172.126204 
L 836.010018 171.547739 
L 836.419257 170.738239 
L 837.851595 166.929671 
L 840.511652 156.099381 
L 841.330131 152.524345 
L 842.14861 148.891795 
L 843.376328 141.593258 
L 846.650244 121.87877 
L 848.082582 111.197434 
L 848.901061 104.739384 
L 851.151878 81.850187 
L 854.835033 30.764397 
L 855.448892 18.77535 
L 856.283928 -1 
M 944.849324 -1 
L 945.890811 41.232038 
L 946.91391 73.374004 
L 947.732389 93.262134 
L 948.755487 112.014427 
L 949.573966 123.555833 
L 950.392445 131.542296 
L 951.415544 139.384193 
L 952.643262 146.438133 
L 953.257121 148.873541 
L 953.870981 150.760815 
L 956.326417 159.766781 
L 956.940276 161.39659 
L 958.167995 163.278148 
L 958.986474 165.465816 
L 960.214192 169.320457 
L 960.623432 169.689735 
L 961.237291 170.1549 
L 961.85115 170.772626 
L 962.260389 171.093833 
L 962.874249 171.739891 
L 963.692727 172.225296 
L 964.101967 172.690595 
L 965.329685 174.652906 
L 965.738925 174.862068 
L 966.557404 175.090983 
L 967.580502 174.685989 
L 967.989742 174.94003 
L 968.603601 175.6074 
L 970.035939 177.323419 
L 970.445178 177.372405 
L 971.468277 177.400772 
L 971.877517 177.586161 
L 972.286756 178.067459 
L 972.695995 178.644157 
L 972.900615 178.783254 
L 973.105235 178.781328 
L 974.128334 178.239797 
L 974.537573 178.400291 
L 974.946812 178.765219 
L 975.560672 179.701959 
L 976.174531 180.781901 
L 976.58377 181.05957 
L 976.99301 181.224048 
L 977.606869 181.761059 
L 979.243827 182.034645 
L 979.653066 181.749848 
L 980.062306 181.453317 
L 980.471545 181.589391 
L 980.880785 181.937601 
L 981.494644 182.848641 
L 982.108503 183.922113 
L 982.517742 184.272236 
L 982.926982 184.381405 
L 983.336221 184.161654 
L 984.768559 183.178293 
L 985.791658 182.712153 
L 986.610137 182.092392 
L 987.428616 182.395686 
L 988.247095 182.090369 
L 989.270193 182.259173 
L 989.884052 181.905212 
L 990.702531 181.668937 
L 991.316391 181.146647 
L 992.134869 180.702002 
L 992.953348 179.56558 
L 993.362588 179.020235 
L 993.567208 178.962854 
L 993.976447 179.27201 
L 996.022644 181.846917 
L 997.045743 183.576889 
L 997.250363 183.688751 
L 997.454982 183.670253 
L 997.864222 183.230994 
L 998.478081 182.429963 
L 998.682701 182.397745 
L 999.09194 182.748014 
L 999.50118 183.18246 
L 999.705799 183.246324 
L 999.910419 183.143077 
L 1000.319659 182.45643 
L 1000.933518 180.606919 
L 1001.547377 178.887853 
L 1002.161236 177.941718 
L 1002.365856 177.859893 
L 1002.570476 177.987694 
L 1002.775095 178.360701 
L 1004.002814 181.868253 
L 1004.821293 183.193537 
L 1005.230532 183.35916 
L 1005.639771 183.546486 
L 1006.253631 184.147775 
L 1006.66287 183.949811 
L 1007.07211 183.669998 
L 1007.481349 183.61927 
L 1008.095208 183.926719 
L 1008.709067 184.382185 
L 1009.118307 184.534015 
L 1009.322927 184.816618 
L 1010.346025 187.093678 
L 1010.550645 187.025696 
L 1010.959884 186.479132 
L 1011.778363 185.309347 
L 1012.187603 185.034128 
L 1013.006082 184.900954 
L 1013.415321 184.986458 
L 1013.824561 185.348084 
L 1014.2338 186.192142 
L 1015.052279 188.257042 
L 1015.256899 188.448145 
L 1015.461518 188.410297 
L 1015.870758 187.875822 
L 1017.303096 185.465832 
L 1017.507716 185.404856 
L 1017.916955 185.708638 
L 1018.326195 186.060406 
L 1019.144673 186.290186 
L 1019.553913 186.495997 
L 1020.372392 186.519612 
L 1020.986251 186.781891 
L 1021.190871 186.682567 
L 1021.60011 186.1192 
L 1022.00935 185.512246 
L 1022.213969 185.414166 
L 1022.623209 185.628044 
L 1023.237068 186.017598 
L 1023.646307 185.926464 
L 1025.692505 184.909398 
L 1026.101744 185.12263 
L 1026.510984 185.66722 
L 1027.329462 186.914163 
L 1027.943322 187.292787 
L 1028.352561 187.333998 
L 1028.761801 187.089584 
L 1029.580279 186.353964 
L 1029.989519 186.22609 
L 1030.398758 186.306941 
L 1030.807998 186.657124 
L 1031.626477 187.509529 
L 1032.035716 187.46777 
L 1032.649575 187.185434 
L 1033.263435 187.173444 
L 1034.081913 187.334742 
L 1034.491153 186.850835 
L 1034.900392 186.349992 
L 1035.309632 186.249365 
L 1035.718871 186.541461 
L 1036.74197 187.664649 
L 1036.94659 187.564193 
L 1037.560449 186.83023 
L 1038.378928 186.335893 
L 1038.992787 185.958 
L 1039.402026 185.854265 
L 1039.811266 186.051608 
L 1040.220505 186.63017 
L 1040.629745 187.275594 
L 1040.834364 187.407659 
L 1041.243604 187.241852 
L 1041.652843 187.050079 
L 1042.266703 187.151668 
L 1042.675942 187.464297 
L 1043.494421 188.525035 
L 1043.699041 188.583403 
L 1044.10828 188.288773 
L 1044.722139 187.634088 
L 1045.745238 187.032946 
L 1046.154477 187.225573 
L 1046.768337 187.724942 
L 1047.382196 187.985027 
L 1048.609914 189.409085 
L 1048.814534 189.405235 
L 1049.223773 188.981427 
L 1050.451492 187.349255 
L 1051.065351 186.862838 
L 1051.67921 186.668432 
L 1052.088449 186.852115 
L 1052.497689 187.434479 
L 1052.906928 188.033513 
L 1053.111548 188.144083 
L 1053.316168 188.096426 
L 1054.134647 187.486486 
L 1054.543886 187.578693 
L 1054.953126 187.721189 
L 1055.362365 187.581654 
L 1056.180844 186.807334 
L 1056.385464 186.872574 
L 1057.408562 187.911354 
L 1058.431661 189.466198 
L 1058.8409 189.682464 
L 1059.04552 189.605099 
L 1059.45476 188.872782 
L 1060.068619 187.372285 
L 1060.273239 187.126627 
L 1060.477858 187.100149 
L 1061.500957 187.79089 
L 1061.910196 187.792291 
L 1062.524056 188.169989 
L 1063.137915 188.470006 
L 1063.956394 188.52378 
L 1064.570253 188.49434 
L 1065.184112 188.362445 
L 1065.593351 188.587339 
L 1066.207211 189.22472 
L 1066.61645 189.169167 
L 1067.025689 188.871929 
L 1067.639549 188.305686 
L 1068.048788 188.118201 
L 1068.458028 187.625595 
L 1069.481126 186.079902 
L 1069.685746 186.046027 
L 1069.890366 186.210688 
L 1070.504225 187.373674 
L 1070.913464 188.028395 
L 1071.118084 188.201586 
L 1071.322704 188.224641 
L 1072.141183 187.884839 
L 1072.550422 188.104493 
L 1073.164281 188.748003 
L 1073.573521 189.079958 
L 1073.98276 189.002958 
L 1075.210479 188.102056 
L 1075.824338 187.882353 
L 1076.642817 187.923004 
L 1077.052056 188.377433 
L 1077.461296 188.864276 
L 1078.689014 189.691701 
L 1078.893634 189.586943 
L 1079.712113 188.521172 
L 1080.735211 188.293842 
L 1082.167549 187.194342 
L 1082.576789 187.273815 
L 1082.986028 187.651196 
L 1083.804507 188.564967 
L 1085.032225 189.035895 
L 1086.055324 190.163556 
L 1086.259944 190.174084 
L 1086.669183 189.846736 
L 1087.283042 188.824649 
L 1088.306141 186.985667 
L 1088.510761 186.744177 
L 1088.715381 186.735586 
L 1089.12462 187.360087 
L 1090.147719 189.524469 
L 1090.556958 189.821195 
L 1090.761578 189.772466 
L 1091.989296 188.870125 
L 1092.603155 188.878143 
L 1093.626254 188.532151 
L 1094.035493 188.511692 
L 1094.444733 188.198649 
L 1095.058592 187.517462 
L 1095.672451 187.198217 
L 1096.081691 187.229107 
L 1097.309409 187.478931 
L 1097.923268 187.146027 
L 1098.537127 186.743543 
L 1098.946367 186.53075 
L 1099.764846 185.745182 
L 1099.969466 185.724235 
L 1100.992564 186.278939 
L 1102.629522 187.824631 
L 1103.038761 187.712659 
L 1104.06186 186.954935 
L 1104.675719 187.211694 
L 1105.084959 187.021967 
L 1106.108057 186.015978 
L 1107.540395 185.052442 
L 1108.154255 185.149121 
L 1108.358874 184.991296 
L 1108.768114 184.162458 
L 1109.381973 182.882712 
L 1109.791212 182.474769 
L 1110.814311 182.225212 
L 1111.42817 182.135625 
L 1111.83741 181.600796 
L 1112.655889 179.791595 
L 1113.269748 177.658359 
L 1114.088227 173.679817 
L 1115.315945 166.728917 
L 1116.339044 160.518157 
L 1118.385241 148.96403 
L 1118.9991 143.261511 
L 1119.612959 134.835983 
L 1120.022199 126.16425 
L 1120.431438 113.61298 
L 1120.840678 95.846717 
L 1121.249917 70.60764 
L 1121.863776 17.181561 
L 1122.05249 -1 
M 1123.690201 -1 
L 1124.728452 85.04081 
L 1125.342312 112.756993 
L 1125.751551 123.530987 
L 1126.36541 133.193027 
L 1127.388509 148.760303 
L 1128.206988 159.579333 
L 1129.025467 167.961639 
L 1129.639326 171.912582 
L 1130.253185 174.536413 
L 1131.890143 180.081826 
L 1132.504002 181.189454 
L 1133.117861 181.794044 
L 1133.527101 182.292634 
L 1135.164059 185.125348 
L 1135.777918 186.128814 
L 1136.187157 186.179676 
L 1136.596397 186.08552 
L 1137.005636 186.249036 
L 1137.414876 186.454201 
L 1137.824115 186.298667 
L 1138.642594 185.571199 
L 1139.665693 185.463833 
L 1140.893411 184.77581 
L 1141.30265 184.943054 
L 1141.71189 185.473094 
L 1142.325749 186.422726 
L 1143.144228 187.197083 
L 1143.758087 187.61408 
L 1144.167326 187.549789 
L 1144.576566 187.341566 
L 1145.395045 187.288876 
L 1146.213524 186.914005 
L 1146.622763 187.195731 
L 1147.032003 187.49911 
L 1147.441242 187.583628 
L 1147.850482 188.203597 
L 1148.464341 189.398435 
L 1148.87358 189.700121 
L 1149.692059 189.83416 
L 1150.101299 189.421417 
L 1150.510538 188.918611 
L 1150.919777 188.768134 
L 1151.942876 188.94431 
L 1152.761355 189.038893 
L 1153.989073 188.835689 
L 1155.421411 189.52007 
L 1156.035271 189.456486 
L 1158.081468 189.955356 
L 1158.490707 189.740114 
L 1159.309186 189.118585 
L 1159.923045 188.935342 
L 1160.332285 189.197693 
L 1160.741524 189.570712 
L 1160.946144 189.583032 
L 1162.583102 188.874171 
L 1164.01544 188.449656 
L 1165.243158 189.349706 
L 1166.061637 190.271409 
L 1166.266257 190.164421 
L 1167.084736 189.148001 
L 1167.493975 189.129321 
L 1167.903215 189.261106 
L 1168.107835 189.225013 
L 1168.517074 188.83954 
L 1168.926313 188.454104 
L 1169.335553 188.495741 
L 1170.358652 189.241024 
L 1171.17713 189.97662 
L 1171.38175 189.945779 
L 1171.79099 189.509005 
L 1172.200229 188.965903 
L 1172.404849 188.936706 
L 1172.814088 189.483392 
L 1173.223328 190.031283 
L 1173.427947 190.00177 
L 1174.041807 189.421734 
L 1174.451046 189.433358 
L 1174.860286 189.611216 
L 1175.269525 189.502352 
L 1175.678764 189.099016 
L 1176.497243 187.773489 
L 1176.701863 187.690372 
L 1177.111103 187.974158 
L 1177.520342 188.3037 
L 1177.929581 188.343619 
L 1179.1573 188.128425 
L 1179.36192 188.283253 
L 1179.771159 189.150048 
L 1180.385018 190.824979 
L 1180.794258 191.210001 
L 1182.021976 191.070137 
L 1183.045075 190.245356 
L 1183.863553 190.29344 
L 1184.682032 189.905396 
L 1184.886652 189.931034 
L 1184.886652 189.931034 
" clip-path="url(#p13e81e4f28)" style="fill: none; stroke: #000000; stroke-width: 2; stroke-linecap: square"/>
   </g>
   <g id="patch_3">
    <path d="M 3.00024 198.907885 
L 1184.99976 198.907885 
" style="fill: none; stroke: #000000; stroke-width: 2; stroke-linejoin: miter; stroke-linecap: square"/>
   </g>
  </g>
 </g>
 <defs>
  <clipPath id="p13e81e4f28">
   <rect x="3.00024" y="3.00024" width="1181.99952" height="195.907645"/>
  </clipPath>
 </defs>
</svg>
