<?xml version="1.0" encoding="utf-8" standalone="no"?>
<!DOCTYPE svg PUBLIC "-//W3C//DTD SVG 1.1//EN"
  "http://www.w3.org/Graphics/SVG/1.1/DTD/svg11.dtd">
<svg xmlns:xlink="http://www.w3.org/1999/xlink" width="1188pt" height="252pt" viewBox="0 0 1188 252" xmlns="http://www.w3.org/2000/svg" version="1.1">
 <metadata>
  <rdf:RDF xmlns:dc="http://purl.org/dc/elements/1.1/" xmlns:cc="http://creativecommons.org/ns#" xmlns:rdf="http://www.w3.org/1999/02/22-rdf-syntax-ns#">
   <cc:Work>
    <dc:type rdf:resource="http://purl.org/dc/dcmitype/StillImage"/>
    <dc:date>2024-07-23T21:47:37.193421</dc:date>
    <dc:format>image/svg+xml</dc:format>
    <dc:creator>
     <cc:Agent>
      <dc:title>Matplotlib v3.8.4, https://matplotlib.org/</dc:title>
     </cc:Agent>
    </dc:creator>
   </cc:Work>
  </rdf:RDF>
 </metadata>
 <defs>
  <style type="text/css">*{stroke-linejoin: round; stroke-linecap: butt}</style>
 </defs>
 <g id="figure_1">
  <g id="patch_1">
   <path d="M 0 252 
L 1188 252 
L 1188 0 
L 0 0 
z
" style="fill: #ffffff"/>
  </g>
  <g id="axes_1">
   <g id="patch_2">
    <path d="M 3.00024 198.907885 
L 1184.99976 198.907885 
L 1184.99976 3.00024 
L 3.00024 3.00024 
z
" style="fill: #ffffff"/>
   </g>
   <g id="matplotlib.axis_1">
    <g id="xtick_1">
     <g id="line2d_1">
      <defs>
       <path id="mec22bd7a00" d="M 0 0 
L 0 8 
" style="stroke: #000000; stroke-width: 2"/>
      </defs>
      <g>
       <use xlink:href="#mec22bd7a00" x="1131.272509" y="198.907885" style="stroke: #000000; stroke-width: 2"/>
      </g>
     </g>
     <g id="text_1">
      <!-- 0 -->
      <g transform="translate(1126.267665 224.791947) scale(0.18 -0.18)">
       <defs>
        <path id="Arial-BoldMT-30" d="M 1756 4600 
Q 2422 4600 2797 4125 
Q 3244 3563 3244 2259 
Q 3244 959 2794 391 
Q 2422 -78 1756 -78 
Q 1088 -78 678 436 
Q 269 950 269 2269 
Q 269 3563 719 4131 
Q 1091 4600 1756 4600 
z
M 1756 3872 
Q 1597 3872 1472 3770 
Q 1347 3669 1278 3406 
Q 1188 3066 1188 2259 
Q 1188 1453 1269 1151 
Q 1350 850 1473 750 
Q 1597 650 1756 650 
Q 1916 650 2041 751 
Q 2166 853 2234 1116 
Q 2325 1453 2325 2259 
Q 2325 3066 2244 3367 
Q 2163 3669 2039 3770 
Q 1916 3872 1756 3872 
z
" transform="scale(0.015625)"/>
       </defs>
       <use xlink:href="#Arial-BoldMT-30"/>
      </g>
     </g>
    </g>
    <g id="xtick_2">
     <g id="line2d_2">
      <g>
       <use xlink:href="#mec22bd7a00" x="1023.818007" y="198.907885" style="stroke: #000000; stroke-width: 2"/>
      </g>
     </g>
     <g id="text_2">
      <!-- 1 -->
      <g transform="translate(1018.813164 224.791947) scale(0.18 -0.18)">
       <defs>
        <path id="Arial-BoldMT-31" d="M 2519 0 
L 1641 0 
L 1641 3309 
Q 1159 2859 506 2644 
L 506 3441 
Q 850 3553 1253 3867 
Q 1656 4181 1806 4600 
L 2519 4600 
L 2519 0 
z
" transform="scale(0.015625)"/>
       </defs>
       <use xlink:href="#Arial-BoldMT-31"/>
      </g>
     </g>
    </g>
    <g id="xtick_3">
     <g id="line2d_3">
      <g>
       <use xlink:href="#mec22bd7a00" x="916.363505" y="198.907885" style="stroke: #000000; stroke-width: 2"/>
      </g>
     </g>
     <g id="text_3">
      <!-- 2 -->
      <g transform="translate(911.358662 224.791947) scale(0.18 -0.18)">
       <defs>
        <path id="Arial-BoldMT-32" d="M 3238 816 
L 3238 0 
L 159 0 
Q 209 463 459 877 
Q 709 1291 1447 1975 
Q 2041 2528 2175 2725 
Q 2356 2997 2356 3263 
Q 2356 3556 2198 3714 
Q 2041 3872 1763 3872 
Q 1488 3872 1325 3706 
Q 1163 3541 1138 3156 
L 263 3244 
Q 341 3969 753 4284 
Q 1166 4600 1784 4600 
Q 2463 4600 2850 4234 
Q 3238 3869 3238 3325 
Q 3238 3016 3127 2736 
Q 3016 2456 2775 2150 
Q 2616 1947 2200 1565 
Q 1784 1184 1673 1059 
Q 1563 934 1494 816 
L 3238 816 
z
" transform="scale(0.015625)"/>
       </defs>
       <use xlink:href="#Arial-BoldMT-32"/>
      </g>
     </g>
    </g>
    <g id="xtick_4">
     <g id="line2d_4">
      <g>
       <use xlink:href="#mec22bd7a00" x="808.909004" y="198.907885" style="stroke: #000000; stroke-width: 2"/>
      </g>
     </g>
     <g id="text_4">
      <!-- 3 -->
      <g transform="translate(803.90416 224.791947) scale(0.18 -0.18)">
       <defs>
        <path id="Arial-BoldMT-33" d="M 241 1216 
L 1091 1319 
Q 1131 994 1309 822 
Q 1488 650 1741 650 
Q 2013 650 2198 856 
Q 2384 1063 2384 1413 
Q 2384 1744 2206 1937 
Q 2028 2131 1772 2131 
Q 1603 2131 1369 2066 
L 1466 2781 
Q 1822 2772 2009 2936 
Q 2197 3100 2197 3372 
Q 2197 3603 2059 3740 
Q 1922 3878 1694 3878 
Q 1469 3878 1309 3722 
Q 1150 3566 1116 3266 
L 306 3403 
Q 391 3819 561 4067 
Q 731 4316 1036 4458 
Q 1341 4600 1719 4600 
Q 2366 4600 2756 4188 
Q 3078 3850 3078 3425 
Q 3078 2822 2419 2463 
Q 2813 2378 3048 2084 
Q 3284 1791 3284 1375 
Q 3284 772 2843 347 
Q 2403 -78 1747 -78 
Q 1125 -78 715 280 
Q 306 638 241 1216 
z
" transform="scale(0.015625)"/>
       </defs>
       <use xlink:href="#Arial-BoldMT-33"/>
      </g>
     </g>
    </g>
    <g id="xtick_5">
     <g id="line2d_5">
      <g>
       <use xlink:href="#mec22bd7a00" x="701.454502" y="198.907885" style="stroke: #000000; stroke-width: 2"/>
      </g>
     </g>
     <g id="text_5">
      <!-- 4 -->
      <g transform="translate(696.449658 224.791947) scale(0.18 -0.18)">
       <defs>
        <path id="Arial-BoldMT-34" d="M 1994 0 
L 1994 922 
L 119 922 
L 119 1691 
L 2106 4600 
L 2844 4600 
L 2844 1694 
L 3413 1694 
L 3413 922 
L 2844 922 
L 2844 0 
L 1994 0 
z
M 1994 1694 
L 1994 3259 
L 941 1694 
L 1994 1694 
z
" transform="scale(0.015625)"/>
       </defs>
       <use xlink:href="#Arial-BoldMT-34"/>
      </g>
     </g>
    </g>
    <g id="xtick_6">
     <g id="line2d_6">
      <g>
       <use xlink:href="#mec22bd7a00" x="594" y="198.907885" style="stroke: #000000; stroke-width: 2"/>
      </g>
     </g>
     <g id="text_6">
      <!-- 5 -->
      <g transform="translate(588.995156 224.791947) scale(0.18 -0.18)">
       <defs>
        <path id="Arial-BoldMT-35" d="M 284 1178 
L 1159 1269 
Q 1197 972 1381 798 
Q 1566 625 1806 625 
Q 2081 625 2272 848 
Q 2463 1072 2463 1522 
Q 2463 1944 2273 2155 
Q 2084 2366 1781 2366 
Q 1403 2366 1103 2031 
L 391 2134 
L 841 4519 
L 3163 4519 
L 3163 3697 
L 1506 3697 
L 1369 2919 
Q 1663 3066 1969 3066 
Q 2553 3066 2959 2641 
Q 3366 2216 3366 1538 
Q 3366 972 3038 528 
Q 2591 -78 1797 -78 
Q 1163 -78 763 262 
Q 363 603 284 1178 
z
" transform="scale(0.015625)"/>
       </defs>
       <use xlink:href="#Arial-BoldMT-35"/>
      </g>
     </g>
    </g>
    <g id="xtick_7">
     <g id="line2d_7">
      <g>
       <use xlink:href="#mec22bd7a00" x="486.545498" y="198.907885" style="stroke: #000000; stroke-width: 2"/>
      </g>
     </g>
     <g id="text_7">
      <!-- 6 -->
      <g transform="translate(481.540654 224.791947) scale(0.18 -0.18)">
       <defs>
        <path id="Arial-BoldMT-36" d="M 3247 3459 
L 2397 3366 
Q 2366 3628 2234 3753 
Q 2103 3878 1894 3878 
Q 1616 3878 1423 3628 
Q 1231 3378 1181 2588 
Q 1509 2975 1997 2975 
Q 2547 2975 2939 2556 
Q 3331 2138 3331 1475 
Q 3331 772 2918 347 
Q 2506 -78 1859 -78 
Q 1166 -78 719 461 
Q 272 1000 272 2228 
Q 272 3488 737 4044 
Q 1203 4600 1947 4600 
Q 2469 4600 2811 4308 
Q 3153 4016 3247 3459 
z
M 1256 1544 
Q 1256 1116 1453 883 
Q 1650 650 1903 650 
Q 2147 650 2309 840 
Q 2472 1031 2472 1466 
Q 2472 1913 2297 2120 
Q 2122 2328 1859 2328 
Q 1606 2328 1431 2129 
Q 1256 1931 1256 1544 
z
" transform="scale(0.015625)"/>
       </defs>
       <use xlink:href="#Arial-BoldMT-36"/>
      </g>
     </g>
    </g>
    <g id="xtick_8">
     <g id="line2d_8">
      <g>
       <use xlink:href="#mec22bd7a00" x="379.090996" y="198.907885" style="stroke: #000000; stroke-width: 2"/>
      </g>
     </g>
     <g id="text_8">
      <!-- 7 -->
      <g transform="translate(374.086153 224.791947) scale(0.18 -0.18)">
       <defs>
        <path id="Arial-BoldMT-37" d="M 272 3703 
L 272 4519 
L 3275 4519 
L 3275 3881 
Q 2903 3516 2518 2831 
Q 2134 2147 1932 1376 
Q 1731 606 1734 0 
L 888 0 
Q 909 950 1279 1937 
Q 1650 2925 2269 3703 
L 272 3703 
z
" transform="scale(0.015625)"/>
       </defs>
       <use xlink:href="#Arial-BoldMT-37"/>
      </g>
     </g>
    </g>
    <g id="xtick_9">
     <g id="line2d_9">
      <g>
       <use xlink:href="#mec22bd7a00" x="271.636495" y="198.907885" style="stroke: #000000; stroke-width: 2"/>
      </g>
     </g>
     <g id="text_9">
      <!-- 8 -->
      <g transform="translate(266.631651 224.791947) scale(0.18 -0.18)">
       <defs>
        <path id="Arial-BoldMT-38" d="M 1025 2472 
Q 684 2616 529 2867 
Q 375 3119 375 3419 
Q 375 3931 733 4265 
Q 1091 4600 1750 4600 
Q 2403 4600 2764 4265 
Q 3125 3931 3125 3419 
Q 3125 3100 2959 2851 
Q 2794 2603 2494 2472 
Q 2875 2319 3073 2025 
Q 3272 1731 3272 1347 
Q 3272 713 2867 316 
Q 2463 -81 1791 -81 
Q 1166 -81 750 247 
Q 259 634 259 1309 
Q 259 1681 443 1992 
Q 628 2303 1025 2472 
z
M 1206 3356 
Q 1206 3094 1354 2947 
Q 1503 2800 1750 2800 
Q 2000 2800 2150 2948 
Q 2300 3097 2300 3359 
Q 2300 3606 2151 3754 
Q 2003 3903 1759 3903 
Q 1506 3903 1356 3753 
Q 1206 3603 1206 3356 
z
M 1125 1394 
Q 1125 1031 1311 828 
Q 1497 625 1775 625 
Q 2047 625 2225 820 
Q 2403 1016 2403 1384 
Q 2403 1706 2222 1901 
Q 2041 2097 1763 2097 
Q 1441 2097 1283 1875 
Q 1125 1653 1125 1394 
z
" transform="scale(0.015625)"/>
       </defs>
       <use xlink:href="#Arial-BoldMT-38"/>
      </g>
     </g>
    </g>
    <g id="xtick_10">
     <g id="line2d_10">
      <g>
       <use xlink:href="#mec22bd7a00" x="164.181993" y="198.907885" style="stroke: #000000; stroke-width: 2"/>
      </g>
     </g>
     <g id="text_10">
      <!-- 9 -->
      <g transform="translate(159.177149 224.791947) scale(0.18 -0.18)">
       <defs>
        <path id="Arial-BoldMT-39" d="M 291 1059 
L 1141 1153 
Q 1172 894 1303 769 
Q 1434 644 1650 644 
Q 1922 644 2112 894 
Q 2303 1144 2356 1931 
Q 2025 1547 1528 1547 
Q 988 1547 595 1964 
Q 203 2381 203 3050 
Q 203 3747 617 4173 
Q 1031 4600 1672 4600 
Q 2369 4600 2816 4061 
Q 3263 3522 3263 2288 
Q 3263 1031 2797 475 
Q 2331 -81 1584 -81 
Q 1047 -81 715 205 
Q 384 491 291 1059 
z
M 2278 2978 
Q 2278 3403 2083 3637 
Q 1888 3872 1631 3872 
Q 1388 3872 1227 3680 
Q 1066 3488 1066 3050 
Q 1066 2606 1241 2398 
Q 1416 2191 1678 2191 
Q 1931 2191 2104 2391 
Q 2278 2591 2278 2978 
z
" transform="scale(0.015625)"/>
       </defs>
       <use xlink:href="#Arial-BoldMT-39"/>
      </g>
     </g>
    </g>
    <g id="xtick_11">
     <g id="line2d_11">
      <g>
       <use xlink:href="#mec22bd7a00" x="56.727491" y="198.907885" style="stroke: #000000; stroke-width: 2"/>
      </g>
     </g>
     <g id="text_11">
      <!-- 10 -->
      <g transform="translate(46.717803 224.791947) scale(0.18 -0.18)">
       <use xlink:href="#Arial-BoldMT-31"/>
       <use xlink:href="#Arial-BoldMT-30" x="55.615234"/>
      </g>
     </g>
    </g>
    <g id="text_12">
     <!-- Chemical Shift / ppm -->
     <g transform="translate(504.992813 245.447573) scale(0.18 -0.18)">
      <defs>
       <path id="Arial-BoldMT-43" d="M 3397 1684 
L 4294 1400 
Q 4088 650 3608 286 
Q 3128 -78 2391 -78 
Q 1478 -78 890 545 
Q 303 1169 303 2250 
Q 303 3394 893 4026 
Q 1484 4659 2447 4659 
Q 3288 4659 3813 4163 
Q 4125 3869 4281 3319 
L 3366 3100 
Q 3284 3456 3026 3662 
Q 2769 3869 2400 3869 
Q 1891 3869 1573 3503 
Q 1256 3138 1256 2319 
Q 1256 1450 1568 1081 
Q 1881 713 2381 713 
Q 2750 713 3015 947 
Q 3281 1181 3397 1684 
z
" transform="scale(0.015625)"/>
       <path id="Arial-BoldMT-68" d="M 1334 4581 
L 1334 2897 
Q 1759 3394 2350 3394 
Q 2653 3394 2897 3281 
Q 3141 3169 3264 2994 
Q 3388 2819 3433 2606 
Q 3478 2394 3478 1947 
L 3478 0 
L 2600 0 
L 2600 1753 
Q 2600 2275 2550 2415 
Q 2500 2556 2373 2639 
Q 2247 2722 2056 2722 
Q 1838 2722 1666 2615 
Q 1494 2509 1414 2295 
Q 1334 2081 1334 1663 
L 1334 0 
L 456 0 
L 456 4581 
L 1334 4581 
z
" transform="scale(0.015625)"/>
       <path id="Arial-BoldMT-65" d="M 2381 1056 
L 3256 909 
Q 3088 428 2723 176 
Q 2359 -75 1813 -75 
Q 947 -75 531 491 
Q 203 944 203 1634 
Q 203 2459 634 2926 
Q 1066 3394 1725 3394 
Q 2466 3394 2894 2905 
Q 3322 2416 3303 1406 
L 1103 1406 
Q 1113 1016 1316 798 
Q 1519 581 1822 581 
Q 2028 581 2168 693 
Q 2309 806 2381 1056 
z
M 2431 1944 
Q 2422 2325 2234 2523 
Q 2047 2722 1778 2722 
Q 1491 2722 1303 2513 
Q 1116 2303 1119 1944 
L 2431 1944 
z
" transform="scale(0.015625)"/>
       <path id="Arial-BoldMT-6d" d="M 394 3319 
L 1203 3319 
L 1203 2866 
Q 1638 3394 2238 3394 
Q 2556 3394 2790 3262 
Q 3025 3131 3175 2866 
Q 3394 3131 3647 3262 
Q 3900 3394 4188 3394 
Q 4553 3394 4806 3245 
Q 5059 3097 5184 2809 
Q 5275 2597 5275 2122 
L 5275 0 
L 4397 0 
L 4397 1897 
Q 4397 2391 4306 2534 
Q 4184 2722 3931 2722 
Q 3747 2722 3584 2609 
Q 3422 2497 3350 2280 
Q 3278 2063 3278 1594 
L 3278 0 
L 2400 0 
L 2400 1819 
Q 2400 2303 2353 2443 
Q 2306 2584 2207 2653 
Q 2109 2722 1941 2722 
Q 1738 2722 1575 2612 
Q 1413 2503 1342 2297 
Q 1272 2091 1272 1613 
L 1272 0 
L 394 0 
L 394 3319 
z
" transform="scale(0.015625)"/>
       <path id="Arial-BoldMT-69" d="M 459 3769 
L 459 4581 
L 1338 4581 
L 1338 3769 
L 459 3769 
z
M 459 0 
L 459 3319 
L 1338 3319 
L 1338 0 
L 459 0 
z
" transform="scale(0.015625)"/>
       <path id="Arial-BoldMT-63" d="M 3353 2338 
L 2488 2181 
Q 2444 2441 2289 2572 
Q 2134 2703 1888 2703 
Q 1559 2703 1364 2476 
Q 1169 2250 1169 1719 
Q 1169 1128 1367 884 
Q 1566 641 1900 641 
Q 2150 641 2309 783 
Q 2469 925 2534 1272 
L 3397 1125 
Q 3263 531 2881 228 
Q 2500 -75 1859 -75 
Q 1131 -75 698 384 
Q 266 844 266 1656 
Q 266 2478 700 2936 
Q 1134 3394 1875 3394 
Q 2481 3394 2839 3133 
Q 3197 2872 3353 2338 
z
" transform="scale(0.015625)"/>
       <path id="Arial-BoldMT-61" d="M 1116 2306 
L 319 2450 
Q 453 2931 781 3162 
Q 1109 3394 1756 3394 
Q 2344 3394 2631 3255 
Q 2919 3116 3036 2902 
Q 3153 2688 3153 2116 
L 3144 1091 
Q 3144 653 3186 445 
Q 3228 238 3344 0 
L 2475 0 
Q 2441 88 2391 259 
Q 2369 338 2359 363 
Q 2134 144 1878 34 
Q 1622 -75 1331 -75 
Q 819 -75 523 203 
Q 228 481 228 906 
Q 228 1188 362 1408 
Q 497 1628 739 1745 
Q 981 1863 1438 1950 
Q 2053 2066 2291 2166 
L 2291 2253 
Q 2291 2506 2166 2614 
Q 2041 2722 1694 2722 
Q 1459 2722 1328 2630 
Q 1197 2538 1116 2306 
z
M 2291 1594 
Q 2122 1538 1756 1459 
Q 1391 1381 1278 1306 
Q 1106 1184 1106 997 
Q 1106 813 1243 678 
Q 1381 544 1594 544 
Q 1831 544 2047 700 
Q 2206 819 2256 991 
Q 2291 1103 2291 1419 
L 2291 1594 
z
" transform="scale(0.015625)"/>
       <path id="Arial-BoldMT-6c" d="M 459 0 
L 459 4581 
L 1338 4581 
L 1338 0 
L 459 0 
z
" transform="scale(0.015625)"/>
       <path id="Arial-BoldMT-20" transform="scale(0.015625)"/>
       <path id="Arial-BoldMT-53" d="M 231 1491 
L 1131 1578 
Q 1213 1125 1461 912 
Q 1709 700 2131 700 
Q 2578 700 2804 889 
Q 3031 1078 3031 1331 
Q 3031 1494 2936 1608 
Q 2841 1722 2603 1806 
Q 2441 1863 1863 2006 
Q 1119 2191 819 2459 
Q 397 2838 397 3381 
Q 397 3731 595 4036 
Q 794 4341 1167 4500 
Q 1541 4659 2069 4659 
Q 2931 4659 3367 4281 
Q 3803 3903 3825 3272 
L 2900 3231 
Q 2841 3584 2645 3739 
Q 2450 3894 2059 3894 
Q 1656 3894 1428 3728 
Q 1281 3622 1281 3444 
Q 1281 3281 1419 3166 
Q 1594 3019 2269 2859 
Q 2944 2700 3267 2529 
Q 3591 2359 3773 2064 
Q 3956 1769 3956 1334 
Q 3956 941 3737 597 
Q 3519 253 3119 86 
Q 2719 -81 2122 -81 
Q 1253 -81 787 320 
Q 322 722 231 1491 
z
" transform="scale(0.015625)"/>
       <path id="Arial-BoldMT-66" d="M 75 3319 
L 563 3319 
L 563 3569 
Q 563 3988 652 4194 
Q 741 4400 980 4529 
Q 1219 4659 1584 4659 
Q 1959 4659 2319 4547 
L 2200 3934 
Q 1991 3984 1797 3984 
Q 1606 3984 1523 3895 
Q 1441 3806 1441 3553 
L 1441 3319 
L 2097 3319 
L 2097 2628 
L 1441 2628 
L 1441 0 
L 563 0 
L 563 2628 
L 75 2628 
L 75 3319 
z
" transform="scale(0.015625)"/>
       <path id="Arial-BoldMT-74" d="M 1981 3319 
L 1981 2619 
L 1381 2619 
L 1381 1281 
Q 1381 875 1398 808 
Q 1416 741 1477 697 
Q 1538 653 1625 653 
Q 1747 653 1978 738 
L 2053 56 
Q 1747 -75 1359 -75 
Q 1122 -75 931 4 
Q 741 84 652 211 
Q 563 338 528 553 
Q 500 706 500 1172 
L 500 2619 
L 97 2619 
L 97 3319 
L 500 3319 
L 500 3978 
L 1381 4491 
L 1381 3319 
L 1981 3319 
z
" transform="scale(0.015625)"/>
       <path id="Arial-BoldMT-2f" d="M -9 -78 
L 1125 4659 
L 1784 4659 
L 638 -78 
L -9 -78 
z
" transform="scale(0.015625)"/>
       <path id="Arial-BoldMT-70" d="M 434 3319 
L 1253 3319 
L 1253 2831 
Q 1413 3081 1684 3237 
Q 1956 3394 2288 3394 
Q 2866 3394 3269 2941 
Q 3672 2488 3672 1678 
Q 3672 847 3265 386 
Q 2859 -75 2281 -75 
Q 2006 -75 1782 34 
Q 1559 144 1313 409 
L 1313 -1263 
L 434 -1263 
L 434 3319 
z
M 1303 1716 
Q 1303 1156 1525 889 
Q 1747 622 2066 622 
Q 2372 622 2575 867 
Q 2778 1113 2778 1672 
Q 2778 2194 2568 2447 
Q 2359 2700 2050 2700 
Q 1728 2700 1515 2451 
Q 1303 2203 1303 1716 
z
" transform="scale(0.015625)"/>
      </defs>
      <use xlink:href="#Arial-BoldMT-43"/>
      <use xlink:href="#Arial-BoldMT-68" x="72.216797"/>
      <use xlink:href="#Arial-BoldMT-65" x="133.300781"/>
      <use xlink:href="#Arial-BoldMT-6d" x="188.916016"/>
      <use xlink:href="#Arial-BoldMT-69" x="277.832031"/>
      <use xlink:href="#Arial-BoldMT-63" x="305.615234"/>
      <use xlink:href="#Arial-BoldMT-61" x="361.230469"/>
      <use xlink:href="#Arial-BoldMT-6c" x="416.845703"/>
      <use xlink:href="#Arial-BoldMT-20" x="444.628906"/>
      <use xlink:href="#Arial-BoldMT-53" x="472.412109"/>
      <use xlink:href="#Arial-BoldMT-68" x="539.111328"/>
      <use xlink:href="#Arial-BoldMT-69" x="600.195312"/>
      <use xlink:href="#Arial-BoldMT-66" x="627.978516"/>
      <use xlink:href="#Arial-BoldMT-74" x="661.279297"/>
      <use xlink:href="#Arial-BoldMT-20" x="694.580078"/>
      <use xlink:href="#Arial-BoldMT-2f" x="722.363281"/>
      <use xlink:href="#Arial-BoldMT-20" x="750.146484"/>
      <use xlink:href="#Arial-BoldMT-70" x="777.929688"/>
      <use xlink:href="#Arial-BoldMT-70" x="839.013672"/>
      <use xlink:href="#Arial-BoldMT-6d" x="900.097656"/>
     </g>
    </g>
   </g>
   <g id="matplotlib.axis_2"/>
   <g id="line2d_12">
    <path d="M 2.933557 190.746956 
L 3.342796 191.831257 
L 3.547416 191.858966 
L 4.161275 190.83429 
L 4.365895 190.805662 
L 4.570515 191.02499 
L 5.593613 192.813472 
L 5.798233 192.607721 
L 7.025952 189.986694 
L 7.435191 189.279887 
L 8.04905 188.044315 
L 8.25367 187.914926 
L 8.45829 187.977155 
L 8.867529 188.70183 
L 9.686008 190.646557 
L 9.890628 190.863216 
L 10.095247 190.820307 
L 10.504487 190.185314 
L 11.527585 188.399266 
L 11.732205 188.468668 
L 12.550684 189.730199 
L 12.755304 189.651746 
L 13.369163 188.993975 
L 13.573783 189.044143 
L 13.778402 189.305569 
L 14.187642 190.32604 
L 14.801501 192.058505 
L 15.006121 192.412218 
L 15.210741 192.493361 
L 15.41536 192.262398 
L 15.8246 191.042133 
L 16.233839 189.755176 
L 16.643079 189.127698 
L 17.461558 188.328797 
L 18.075417 187.153362 
L 18.280036 187.086223 
L 19.098515 187.297033 
L 19.916994 187.253932 
L 20.530853 186.803214 
L 20.940093 187.059175 
L 21.349332 187.530258 
L 21.963192 188.458827 
L 22.372431 188.570305 
L 22.577051 188.622522 
L 22.98629 189.203953 
L 23.39553 189.797381 
L 23.804769 190.106669 
L 24.009389 190.125284 
L 24.827868 189.761581 
L 25.441727 189.798 
L 25.646347 189.666518 
L 26.055586 188.86053 
L 26.464826 188.025871 
L 26.669445 187.956106 
L 26.874065 188.190078 
L 27.692544 190.060451 
L 27.897164 190.146803 
L 28.101783 189.95194 
L 28.511023 189.246243 
L 28.715643 189.088738 
L 28.920262 189.137155 
L 29.738741 189.700931 
L 30.55722 189.889412 
L 30.76184 189.968719 
L 30.96646 189.921839 
L 31.375699 189.40537 
L 32.194178 188.387717 
L 32.398798 188.219538 
L 32.603417 188.235144 
L 33.421896 188.93862 
L 34.240375 188.86307 
L 34.649615 188.615776 
L 34.854234 188.63721 
L 35.877333 189.42264 
L 36.081953 189.379496 
L 36.900432 188.564584 
L 37.309671 188.853784 
L 37.718911 189.196097 
L 37.92353 189.151288 
L 38.33277 188.769716 
L 38.537389 188.74111 
L 38.742009 188.982703 
L 39.969728 191.804252 
L 40.583587 192.533943 
L 40.788206 192.461553 
L 41.197446 191.750498 
L 41.606685 191.005308 
L 42.015925 190.805278 
L 42.425164 190.539604 
L 42.834404 189.811214 
L 43.652883 187.805176 
L 43.857502 187.809915 
L 44.266742 188.718524 
L 44.675981 189.704155 
L 44.880601 189.883648 
L 45.085221 189.813264 
L 45.49446 189.204422 
L 46.108319 188.1654 
L 46.312939 188.037655 
L 46.517559 188.100247 
L 47.540657 189.111324 
L 47.949897 188.819179 
L 48.563756 188.100951 
L 48.972995 188.027877 
L 49.791474 188.479022 
L 49.996094 188.287382 
L 50.405334 187.155112 
L 51.019193 185.251992 
L 51.223812 185.087827 
L 51.633052 185.419274 
L 52.042291 185.652265 
L 52.451531 185.815362 
L 52.86077 186.586896 
L 53.27001 187.283349 
L 53.474629 187.266249 
L 53.679249 186.9712 
L 54.088489 185.59343 
L 54.497728 184.109497 
L 54.702348 183.748013 
L 54.906968 183.626053 
L 55.316207 183.816433 
L 56.748545 185.195314 
L 56.953165 185.194139 
L 57.362404 184.824373 
L 58.180883 183.511287 
L 58.590123 181.348171 
L 59.408602 174.153383 
L 59.817841 169.726539 
L 60.22708 163.410814 
L 60.84094 150.16177 
L 61.659419 130.522604 
L 61.864038 127.840863 
L 62.068658 126.76461 
L 62.273278 127.374241 
L 62.477897 129.65936 
L 62.887137 138.217871 
L 63.705616 156.709675 
L 64.319475 164.215565 
L 65.137954 170.791158 
L 65.751813 174.647843 
L 67.79801 184.402966 
L 68.20725 185.62923 
L 68.616489 186.242363 
L 68.821109 186.366821 
L 69.230348 186.218773 
L 69.434968 186.161006 
L 69.639588 186.324488 
L 70.048827 187.404156 
L 70.458067 188.362441 
L 70.662687 188.30984 
L 71.071926 187.744228 
L 71.276546 187.72192 
L 71.481165 187.957792 
L 72.504264 189.871672 
L 72.708884 189.641349 
L 73.322743 188.531239 
L 74.959701 186.918407 
L 75.36894 186.666801 
L 75.57356 186.766624 
L 75.77818 187.147299 
L 76.187419 188.767005 
L 76.596659 190.374435 
L 76.801278 190.707313 
L 77.005898 190.641711 
L 77.415138 189.666817 
L 78.028997 188.125565 
L 78.438236 187.385285 
L 78.847476 187.080203 
L 79.665955 186.88519 
L 80.893673 186.835108 
L 81.098293 186.636871 
L 81.507532 185.640459 
L 81.916772 184.473948 
L 82.121391 184.214678 
L 82.326011 184.208551 
L 82.73525 184.617128 
L 83.14449 185.621054 
L 83.962969 187.823343 
L 84.986067 189.904014 
L 85.190687 189.787177 
L 85.599927 188.935845 
L 87.032265 185.156033 
L 87.441504 184.671586 
L 87.850744 184.713684 
L 88.259983 184.834897 
L 88.873842 184.577314 
L 89.078462 184.693575 
L 89.487701 185.334758 
L 89.896941 186.346241 
L 91.124659 190.364978 
L 91.533899 190.696404 
L 92.556997 190.992819 
L 93.170856 190.815205 
L 93.784716 190.647581 
L 94.398575 190.116254 
L 94.807814 189.698562 
L 95.217054 188.96016 
L 96.240152 186.585658 
L 96.649392 186.161006 
L 96.854012 186.279551 
L 97.263251 187.240824 
L 97.87711 189.201903 
L 98.28635 189.731715 
L 98.695589 190.093561 
L 99.104829 190.481602 
L 99.309448 190.430516 
L 99.718688 189.835615 
L 100.127927 189.281488 
L 100.537167 189.164694 
L 101.151026 189.18886 
L 101.355646 189.481539 
L 102.378744 191.891052 
L 102.583364 191.822632 
L 102.992603 191.474833 
L 103.401843 191.577452 
L 104.015702 191.933043 
L 104.834181 191.667945 
L 105.44804 191.940408 
L 105.85728 192.114799 
L 106.471139 192.477862 
L 106.675758 192.469216 
L 107.084998 192.077077 
L 108.108097 190.864582 
L 108.312716 190.845199 
L 108.721956 191.266947 
L 109.335815 191.874016 
L 110.154294 192.6115 
L 110.563533 192.764778 
L 111.791252 193.448529 
L 112.200491 193.470731 
L 112.81435 193.263635 
L 114.451308 191.676186 
L 114.860548 190.667136 
L 115.269787 189.624698 
L 115.474407 189.329009 
L 115.679026 189.247118 
L 115.883646 189.442387 
L 116.702125 191.598031 
L 117.315984 192.830657 
L 117.520604 192.963676 
L 117.725224 192.925036 
L 117.929843 192.686388 
L 118.339083 191.696488 
L 118.748322 190.611012 
L 119.157562 190.141381 
L 119.771421 190.056544 
L 120.5899 190.45925 
L 120.999139 191.299097 
L 121.612999 192.772805 
L 121.817618 192.969248 
L 122.022238 192.975097 
L 122.226858 192.813024 
L 123.045337 191.572435 
L 123.454576 191.621877 
L 123.863816 191.610199 
L 124.273055 191.25527 
L 125.296154 189.945877 
L 125.705393 189.895474 
L 125.910013 190.042732 
L 126.728492 191.249933 
L 126.933111 191.234648 
L 127.342351 190.669057 
L 127.75159 189.924913 
L 127.95621 189.737628 
L 128.570069 189.695893 
L 129.797788 188.203463 
L 130.002407 188.077041 
L 130.207027 188.095166 
L 131.025506 188.788139 
L 131.434745 189.312187 
L 131.843985 189.828015 
L 132.048605 189.809464 
L 132.662464 189.339619 
L 132.867083 189.485318 
L 133.685562 190.947903 
L 133.890182 190.979434 
L 134.504041 190.742771 
L 134.913281 190.964362 
L 135.32252 191.168085 
L 135.52714 191.099943 
L 135.936379 190.616179 
L 136.959478 188.635011 
L 137.164098 188.651598 
L 137.368717 188.971795 
L 137.982577 190.939257 
L 138.391816 192.233066 
L 138.596436 192.537444 
L 138.801056 192.419775 
L 139.824154 190.09687 
L 140.028774 190.254418 
L 140.847253 191.739674 
L 141.461112 192.324435 
L 142.279591 193.531636 
L 142.68883 193.62657 
L 143.09807 193.212336 
L 143.507309 192.262825 
L 144.121168 189.742688 
L 144.530408 188.313213 
L 144.939647 187.540719 
L 145.144267 187.44365 
L 145.553507 187.713743 
L 145.962746 187.896652 
L 146.371985 187.999207 
L 146.576605 188.259694 
L 146.985845 189.381268 
L 147.599704 191.421527 
L 148.008943 191.839817 
L 148.622802 191.926255 
L 149.850521 191.443195 
L 150.25976 191.525641 
L 150.46438 191.296749 
L 150.873619 190.182753 
L 151.487479 187.808848 
L 151.692098 187.506327 
L 151.896718 187.700721 
L 152.510577 189.062011 
L 152.715197 188.975744 
L 153.942915 187.126805 
L 154.147535 187.246993 
L 154.761394 188.057807 
L 154.966014 188.132332 
L 155.170634 188.017182 
L 155.989113 186.838587 
L 156.193732 187.073264 
L 156.602972 188.113354 
L 157.216831 190.065147 
L 157.62607 190.487067 
L 158.03531 190.593016 
L 158.23993 190.7673 
L 158.444549 191.170049 
L 159.058409 193.006542 
L 159.263028 193.03771 
L 159.672268 192.122164 
L 160.081507 191.232662 
L 160.286127 191.060406 
L 160.695366 191.125368 
L 161.513845 191.503439 
L 161.923085 191.616284 
L 162.127704 191.564131 
L 162.946183 190.843448 
L 163.560043 191.165715 
L 163.764662 191.040019 
L 164.173902 190.337589 
L 164.787761 189.215993 
L 165.197 188.741408 
L 165.40162 188.708341 
L 165.60624 188.85547 
L 166.220099 189.693033 
L 166.424719 189.685753 
L 166.833958 189.346984 
L 167.038578 189.339981 
L 167.447817 189.867295 
L 167.857057 190.797849 
L 168.675536 193.157322 
L 168.880155 193.247304 
L 169.084775 193.012648 
L 170.312493 190.198934 
L 170.517113 189.973864 
L 170.721733 189.950082 
L 171.335592 190.188004 
L 171.744832 190.080304 
L 172.358691 189.771763 
L 172.56331 189.899253 
L 172.97255 190.604587 
L 173.381789 191.310817 
L 173.791029 191.519983 
L 174.404888 191.120821 
L 174.814127 191.409551 
L 175.223367 191.69954 
L 175.427987 191.666195 
L 175.632606 191.475836 
L 176.041846 190.651744 
L 176.655705 189.113545 
L 176.860325 188.992331 
L 177.678804 189.429984 
L 177.883423 189.423644 
L 178.088043 189.583881 
L 178.497283 190.701869 
L 179.111142 192.880996 
L 179.315761 193.109994 
L 179.520381 192.965106 
L 180.13424 191.722788 
L 180.33886 191.579138 
L 180.7481 191.824169 
L 181.157339 191.970872 
L 181.361959 191.870708 
L 181.771198 191.253733 
L 182.180438 190.689252 
L 182.385057 190.731671 
L 182.998917 191.305181 
L 183.817395 191.557598 
L 184.635874 192.626294 
L 184.840494 192.577706 
L 185.249734 191.963293 
L 185.658973 191.211934 
L 186.272832 190.682186 
L 186.477452 190.645425 
L 186.682072 190.814949 
L 187.500551 192.278943 
L 187.90979 192.349562 
L 188.932889 192.285497 
L 189.546748 192.13905 
L 189.955987 192.352294 
L 190.365227 192.626123 
L 190.569846 192.539558 
L 191.592945 191.486446 
L 191.797565 191.495647 
L 192.002185 191.687287 
L 192.411424 192.559326 
L 193.025283 194.000713 
L 193.229903 194.256652 
L 193.434523 194.333099 
L 193.639142 194.246277 
L 194.048382 193.658613 
L 195.48072 190.872075 
L 195.68534 190.860676 
L 196.299199 191.171458 
L 196.503819 191.029708 
L 197.731537 188.985436 
L 198.140776 188.92959 
L 198.550016 189.245773 
L 198.959255 189.818323 
L 199.368495 191.186124 
L 199.777734 192.491397 
L 200.186974 192.783521 
L 200.391593 192.877366 
L 201.210072 193.636902 
L 201.619312 192.982547 
L 203.05165 190.19554 
L 203.256269 190.107587 
L 203.665509 190.521842 
L 203.870129 190.752933 
L 204.074748 190.776928 
L 204.279368 190.514477 
L 204.893227 189.211809 
L 205.302467 188.994231 
L 205.711706 188.917016 
L 206.120946 189.083743 
L 206.530185 189.357145 
L 206.734805 189.377682 
L 207.144044 189.016519 
L 207.962523 188.100652 
L 208.576382 187.836301 
L 209.190242 187.748925 
L 209.599481 187.316139 
L 210.21334 186.297782 
L 210.41796 186.342804 
L 210.62258 186.795102 
L 211.645678 190.663101 
L 211.850298 190.876217 
L 212.054918 190.854122 
L 212.873397 190.141573 
L 213.691876 189.099476 
L 214.714974 187.492259 
L 215.942693 184.998017 
L 216.556552 183.431254 
L 217.78427 180.104124 
L 218.398129 178.401268 
L 219.421228 174.341373 
L 220.444327 170.253597 
L 220.853566 166.968629 
L 221.876665 155.227919 
L 222.490524 145.115219 
L 223.309003 130.770047 
L 223.718242 127.149661 
L 223.922862 126.748855 
L 224.127482 127.212211 
L 224.332101 128.546538 
L 224.741341 133.583077 
L 226.173679 154.634576 
L 227.196778 166.025992 
L 227.810637 170.719002 
L 228.424496 173.757423 
L 229.447595 178.18764 
L 230.061454 180.378102 
L 230.879933 182.049747 
L 232.312271 184.252613 
L 232.72151 184.824522 
L 233.335369 185.897573 
L 233.744609 185.948979 
L 234.563088 185.7469 
L 235.586186 185.677754 
L 236.404665 184.534746 
L 236.813905 185.401641 
L 237.223144 186.258651 
L 237.837003 186.871783 
L 238.041623 186.875114 
L 238.246243 186.693721 
L 238.655482 185.895972 
L 239.064722 185.105375 
L 239.269341 185.205838 
L 239.678581 186.736075 
L 240.08782 188.539735 
L 240.49706 189.434809 
L 240.906299 189.693033 
L 241.110919 189.622585 
L 241.520158 189.01765 
L 242.134018 187.809254 
L 242.338637 187.602371 
L 242.543257 187.593448 
L 242.952496 188.088975 
L 243.770975 189.42928 
L 243.975595 189.393372 
L 244.384835 188.706462 
L 244.794074 188.061393 
L 245.203313 187.858695 
L 245.612553 188.238602 
L 245.817173 188.416067 
L 246.021792 188.373819 
L 246.431032 187.969619 
L 246.635652 187.946905 
L 247.45413 188.457951 
L 247.86337 188.10204 
L 248.477229 187.350317 
L 248.681849 187.283712 
L 248.886469 187.384986 
L 249.704947 188.273847 
L 249.909567 188.126654 
L 250.932666 186.680976 
L 251.341905 187.205621 
L 252.365004 189.320192 
L 252.774243 190.227263 
L 253.183483 190.519387 
L 253.797342 190.497719 
L 254.206581 190.780685 
L 254.615821 191.156536 
L 254.820441 191.19936 
L 255.22968 190.826455 
L 255.63892 190.466423 
L 256.048159 190.224531 
L 256.252779 189.842809 
L 257.275877 186.793373 
L 257.480497 186.640458 
L 257.889737 186.62846 
L 258.094356 186.496125 
L 258.708215 185.597742 
L 258.912835 185.557096 
L 259.731314 186.062123 
L 260.140554 185.784301 
L 260.345173 185.805521 
L 261.163652 186.311829 
L 261.572892 186.311124 
L 261.777511 186.126572 
L 262.186751 185.124588 
L 263.00523 182.57689 
L 264.028328 180.405769 
L 264.437568 179.449342 
L 265.869906 174.789272 
L 266.279145 174.237835 
L 266.483765 174.269622 
L 267.302244 175.252137 
L 267.711483 175.987016 
L 268.529962 178.127097 
L 269.348441 180.380942 
L 270.16692 182.28705 
L 270.37154 182.485692 
L 270.57616 182.394622 
L 270.985399 181.276037 
L 271.599258 179.186848 
L 272.008498 178.58217 
L 272.417737 178.682484 
L 272.826977 179.023623 
L 273.236216 179.373279 
L 273.440836 179.206318 
L 273.850075 177.989489 
L 275.896273 169.500807 
L 276.305512 167.746033 
L 277.123991 163.627815 
L 277.73785 161.942678 
L 277.94247 161.640414 
L 278.14709 161.638898 
L 278.351709 161.999079 
L 278.760949 163.595153 
L 280.397906 172.306579 
L 280.807146 172.983136 
L 281.011766 172.927823 
L 281.421005 172.500204 
L 281.625625 172.555239 
L 282.034864 172.834619 
L 282.239484 172.588221 
L 282.853343 170.813722 
L 283.467202 168.4956 
L 284.285681 164.383487 
L 284.694921 161.249513 
L 285.30878 154.582594 
L 286.127259 143.3138 
L 287.354977 123.392884 
L 287.764217 119.490024 
L 287.968836 118.479565 
L 288.173456 118.325263 
L 288.378076 119.206289 
L 288.787315 123.757399 
L 289.810414 137.98377 
L 290.219653 140.876407 
L 290.424273 141.565879 
L 290.628893 141.855121 
L 290.833513 141.902257 
L 291.038132 141.754103 
L 291.242752 141.361921 
L 291.651991 139.529207 
L 292.061231 136.070659 
L 292.67509 128.66361 
L 293.08433 121.613753 
L 293.493569 111.435024 
L 294.107428 87.920386 
L 295.130527 42.209555 
L 295.539766 33.004097 
L 295.744386 31.091285 
L 295.949006 30.737359 
L 296.153625 31.634524 
L 296.562865 35.685112 
L 297.176724 42.102453 
L 297.381344 43.07756 
L 297.585964 43.255985 
L 297.995203 42.355062 
L 298.199823 42.371991 
L 298.404442 43.495658 
L 298.609062 46.135087 
L 299.018302 56.049679 
L 300.655259 107.724806 
L 301.064499 114.071486 
L 301.473738 117.799123 
L 301.882978 119.384501 
L 302.087598 119.422244 
L 302.292217 118.944329 
L 302.701457 116.471136 
L 303.724555 108.321074 
L 303.929175 108.157293 
L 304.133795 108.80962 
L 304.543034 112.084661 
L 306.998471 137.505065 
L 308.02157 146.424975 
L 308.635429 149.665069 
L 310.681626 157.918818 
L 310.886246 158.185987 
L 311.090866 158.181738 
L 311.295485 157.880712 
L 311.704725 156.544079 
L 312.523204 152.497761 
L 313.546302 146.420257 
L 313.955542 145.04729 
L 314.364781 144.314908 
L 314.569401 144.196812 
L 314.774021 144.317812 
L 315.18326 145.250756 
L 315.5925 146.291102 
L 316.001739 146.673314 
L 316.410978 146.588841 
L 316.820218 146.400062 
L 317.229457 146.461415 
L 317.638697 146.772134 
L 318.047936 147.185856 
L 318.252556 147.260594 
L 318.457176 147.115728 
L 318.866415 146.196595 
L 319.275655 144.479095 
L 319.684894 141.447099 
L 320.298753 134.680379 
L 321.117232 121.87663 
L 324.595767 54.548902 
L 326.028106 16.292407 
L 326.437345 10.140975 
L 326.846584 6.190765 
L 327.255824 4.081339 
L 327.665063 3.309613 
L 328.074303 3.00024 
L 328.278923 3.065991 
L 329.506641 4.421005 
L 330.32512 5.041118 
L 330.734359 6.213415 
L 331.143599 7.334413 
L 331.348218 7.581472 
L 331.757458 7.627605 
L 332.166697 7.476568 
L 332.371317 7.521634 
L 332.780557 8.154982 
L 333.189796 8.689256 
L 333.803655 8.564627 
L 334.008275 8.827654 
L 334.417514 10.310755 
L 334.826754 13.100067 
L 335.235993 17.544353 
L 336.054472 30.417204 
L 337.282191 49.729087 
L 337.89605 57.086631 
L 338.305289 59.857392 
L 339.533008 65.643669 
L 340.146867 70.461969 
L 340.965346 77.955413 
L 341.579205 81.169741 
L 341.783825 81.537949 
L 341.988444 81.390798 
L 342.806923 79.097652 
L 343.011543 79.169125 
L 343.420782 80.108282 
L 344.648501 83.912622 
L 345.05774 84.184679 
L 345.46698 84.382702 
L 345.671599 84.711246 
L 346.080839 86.114057 
L 346.490078 88.596751 
L 347.103937 93.994432 
L 348.536276 109.741817 
L 348.945515 111.472297 
L 349.559374 113.511616 
L 350.173233 115.714674 
L 350.377853 115.729404 
L 350.991712 114.878328 
L 351.196332 115.288293 
L 351.605571 117.747845 
L 353.03791 129.815135 
L 353.242529 130.022573 
L 353.447149 129.83343 
L 353.856388 128.682246 
L 354.265628 127.225297 
L 354.470248 126.803442 
L 354.674867 126.731542 
L 354.879487 126.977726 
L 355.493346 128.517121 
L 355.902586 130.261839 
L 357.744163 142.490989 
L 358.562642 147.525778 
L 360.1996 155.48183 
L 360.813459 157.402392 
L 361.222699 158.542539 
L 361.836558 160.377901 
L 362.245797 160.687915 
L 362.655037 160.46944 
L 363.064276 159.830797 
L 363.882755 158.27759 
L 364.291994 157.973298 
L 364.496614 158.177917 
L 364.701234 158.749314 
L 365.110473 161.016309 
L 365.724333 164.828227 
L 366.133572 166.017432 
L 366.338192 166.090698 
L 366.542811 165.896731 
L 367.156671 164.952088 
L 367.36129 164.9282 
L 367.77053 165.187064 
L 368.179769 165.879909 
L 368.793628 167.216947 
L 369.202868 167.568675 
L 369.612107 168.408351 
L 370.430586 170.340333 
L 370.635206 170.403331 
L 371.453685 169.634423 
L 371.658305 169.795087 
L 372.067544 170.724808 
L 373.090643 174.749907 
L 373.295262 174.919537 
L 373.499882 174.744463 
L 374.318361 173.213735 
L 374.93222 172.911087 
L 375.34146 172.634077 
L 375.750699 172.844246 
L 376.364558 173.388831 
L 376.978418 173.949917 
L 377.183037 173.970902 
L 378.001516 173.364387 
L 378.819995 174.598679 
L 379.433854 174.586788 
L 379.843094 175.077191 
L 380.456953 175.956467 
L 380.661573 175.992033 
L 380.866192 175.872186 
L 381.070812 175.535615 
L 381.889291 173.249984 
L 382.093911 173.435113 
L 382.70777 174.842108 
L 382.91239 174.979268 
L 383.526249 174.916185 
L 383.730869 175.11803 
L 384.140108 176.096402 
L 384.958587 178.279286 
L 385.163207 178.561249 
L 385.367826 178.552923 
L 386.390925 177.427421 
L 386.800164 177.405198 
L 387.414024 177.735834 
L 387.823263 178.240284 
L 388.232503 178.833242 
L 388.437122 178.927301 
L 388.641742 178.825045 
L 389.050981 178.110446 
L 389.460221 177.309132 
L 389.664841 177.224958 
L 389.86946 177.483139 
L 390.48332 178.95896 
L 391.097179 179.416573 
L 391.506418 180.281674 
L 391.915658 181.054211 
L 392.120277 181.015187 
L 392.529517 180.074963 
L 393.143376 178.210589 
L 393.347996 178.017327 
L 393.552615 178.239942 
L 394.371094 180.1614 
L 394.780334 180.968414 
L 395.394193 182.387215 
L 395.598813 182.530736 
L 396.417292 182.558851 
L 396.826531 182.695328 
L 397.23577 182.375068 
L 397.64501 181.833259 
L 398.463489 180.320975 
L 398.668109 180.197158 
L 398.872728 180.263336 
L 399.077348 180.550849 
L 399.486587 181.654385 
L 400.714306 185.630597 
L 401.532785 187.15571 
L 401.942024 187.55246 
L 402.351264 187.528444 
L 402.760503 187.239052 
L 403.374362 186.495612 
L 403.578982 186.426253 
L 403.783602 186.52661 
L 404.192841 187.129516 
L 404.8067 188.133421 
L 405.21594 188.180728 
L 405.829799 187.975959 
L 406.648278 188.153766 
L 407.466757 187.25233 
L 407.875996 187.456416 
L 408.489855 188.058853 
L 409.717574 189.810168 
L 410.331433 190.026614 
L 410.740672 189.806667 
L 411.149912 189.632084 
L 411.559151 190.003367 
L 411.968391 190.342435 
L 412.37763 190.484804 
L 412.78687 190.353813 
L 414.219208 189.045936 
L 414.423828 189.023905 
L 415.037687 189.317032 
L 415.242306 189.253651 
L 415.856166 188.822744 
L 416.674645 189.323223 
L 417.083884 189.130943 
L 417.288504 189.156432 
L 417.493123 189.364553 
L 418.106983 190.249721 
L 418.720842 189.936377 
L 418.925462 190.088673 
L 419.74394 191.300485 
L 420.3578 191.787173 
L 420.767039 192.193423 
L 420.971659 192.223609 
L 421.380898 191.93157 
L 421.790138 191.688696 
L 422.199377 191.876557 
L 422.813236 192.457219 
L 423.017856 192.507045 
L 423.427096 192.243249 
L 423.836335 191.549764 
L 424.450194 190.315259 
L 425.268673 188.898785 
L 425.882532 187.768992 
L 426.087152 187.687934 
L 426.496391 187.984157 
L 426.905631 188.309605 
L 427.31487 188.356656 
L 427.72411 188.406418 
L 428.133349 188.722046 
L 428.542589 189.458462 
L 428.951828 190.434679 
L 429.361068 190.820008 
L 429.770307 190.986906 
L 430.179547 190.867721 
L 430.793406 190.457628 
L 430.998025 190.418583 
L 431.202645 190.514563 
L 432.430364 191.822034 
L 432.839603 191.98003 
L 433.248842 191.819558 
L 433.658082 191.179399 
L 434.067321 190.178248 
L 434.68118 187.792901 
L 435.29504 185.541448 
L 435.704279 184.799396 
L 435.908899 184.719043 
L 436.113519 184.85379 
L 436.522758 185.691737 
L 436.931997 186.518754 
L 438.159716 188.15146 
L 438.773575 189.695189 
L 439.182814 190.634068 
L 439.387434 190.871008 
L 439.592054 190.917034 
L 440.001293 190.639149 
L 440.410533 190.082546 
L 441.433631 188.358727 
L 441.842871 188.098411 
L 442.047491 188.109938 
L 442.45673 188.508311 
L 442.86597 188.855427 
L 443.684448 188.907666 
L 444.093688 188.806413 
L 444.502927 189.085387 
L 444.707547 189.454321 
L 445.116787 191.00503 
L 445.730646 193.446415 
L 445.935265 193.703209 
L 446.139885 193.636369 
L 446.344505 193.274608 
L 447.162984 191.180211 
L 447.776843 190.871072 
L 448.186082 190.824064 
L 448.390702 191.005564 
L 449.209181 192.387369 
L 449.413801 192.477201 
L 449.618421 192.3375 
L 450.436899 190.757352 
L 450.641519 190.730689 
L 451.459998 191.158628 
L 451.869238 190.905442 
L 452.278477 190.333981 
L 452.687716 189.268936 
L 453.096956 188.212131 
L 453.301576 188.154961 
L 453.710815 188.934564 
L 454.529294 190.470415 
L 454.938533 190.989019 
L 455.347773 191.182772 
L 455.757012 191.191226 
L 456.780111 190.87214 
L 457.39397 191.079662 
L 457.80321 190.824512 
L 458.212449 190.310071 
L 458.621689 189.166872 
L 459.030928 187.904038 
L 459.440167 187.32867 
L 459.644787 187.326834 
L 459.849407 187.541701 
L 461.077125 189.869131 
L 461.281745 189.844688 
L 461.690984 189.159998 
L 462.100224 188.322905 
L 462.509463 187.987914 
L 462.918703 188.078344 
L 463.532562 188.45001 
L 463.941801 188.67935 
L 464.146421 188.961014 
L 464.555661 190.140527 
L 465.16952 192.277385 
L 465.37414 192.510375 
L 465.578759 192.46452 
L 465.987999 191.810891 
L 466.806478 190.250596 
L 467.624957 188.092988 
L 468.034196 187.569047 
L 468.238816 187.442967 
L 468.443435 187.458039 
L 468.648055 187.659306 
L 468.852675 188.071299 
L 469.261914 189.665643 
L 469.875774 192.676974 
L 470.285013 193.704383 
L 470.489633 193.720949 
L 470.694252 193.413006 
L 471.921971 190.443517 
L 472.53583 190.323243 
L 474.172788 187.556474 
L 475.605126 186.261768 
L 475.809746 186.22727 
L 476.014365 186.458062 
L 476.832844 188.363402 
L 478.060563 191.310774 
L 478.674422 192.415441 
L 479.288281 193.805145 
L 479.69752 194.171987 
L 480.10676 194.125641 
L 480.720619 193.794599 
L 481.129858 193.349411 
L 481.539098 192.247284 
L 482.152957 190.508521 
L 482.562197 190.109401 
L 482.971436 190.069225 
L 483.380675 190.408229 
L 484.403774 191.533006 
L 485.222253 192.366875 
L 485.426873 192.158157 
L 486.245352 190.679283 
L 486.654591 190.402486 
L 487.063831 190.388909 
L 487.47307 190.626084 
L 487.882309 191.301936 
L 488.291549 192.204055 
L 488.700788 192.498122 
L 489.110028 192.631268 
L 489.519267 192.9612 
L 489.928507 193.385424 
L 490.133126 193.331073 
L 490.337746 192.893014 
L 490.746986 191.137643 
L 491.360845 188.585676 
L 491.565465 188.238602 
L 491.770084 188.117602 
L 491.974704 188.175242 
L 492.383943 188.785641 
L 492.793183 190.039039 
L 493.611662 192.777138 
L 494.020901 193.190348 
L 494.83938 193.037924 
L 495.24862 193.367471 
L 495.657859 193.970655 
L 496.067099 194.561265 
L 496.271718 194.52096 
L 496.680958 193.767637 
L 497.090197 192.996295 
L 497.499437 192.884176 
L 498.113296 192.956225 
L 498.317916 192.827242 
L 499.545634 191.131047 
L 500.568733 189.39967 
L 500.977972 189.601151 
L 501.387211 189.774581 
L 501.796451 189.726357 
L 502.001071 189.896969 
L 502.81955 191.306739 
L 503.024169 191.312269 
L 503.228789 191.11574 
L 503.638028 190.260331 
L 504.251888 188.834635 
L 504.661127 188.429751 
L 505.070367 188.627881 
L 505.684226 188.987571 
L 506.707324 190.458738 
L 507.525803 191.791656 
L 507.935043 192.858367 
L 508.344282 194.101816 
L 508.548902 194.297854 
L 508.753522 194.132088 
L 509.162761 193.33752 
L 509.77662 191.571709 
L 510.390479 189.903437 
L 511.413578 187.989045 
L 511.618198 187.891358 
L 512.027437 188.054114 
L 512.436677 188.485426 
L 512.845916 189.34297 
L 513.869015 192.458009 
L 514.073634 192.730472 
L 514.482874 192.795924 
L 514.892113 192.560287 
L 515.301353 191.856404 
L 515.710592 191.052999 
L 516.119832 190.655202 
L 516.529071 190.387884 
L 516.938311 190.41427 
L 517.55217 190.594468 
L 517.961409 191.271131 
L 518.779888 192.925463 
L 519.189128 193.262994 
L 519.598367 193.282741 
L 520.212226 192.978192 
L 520.621466 192.88471 
L 520.826085 192.591604 
L 521.439945 191.202071 
L 521.644564 191.091873 
L 522.667663 191.357974 
L 523.281522 191.83542 
L 523.690762 191.925678 
L 523.895381 192.259687 
L 524.509241 193.784694 
L 524.71386 193.874013 
L 525.1231 193.593844 
L 525.532339 192.968501 
L 526.555438 191.10528 
L 526.760058 191.10624 
L 527.373917 191.439438 
L 528.192396 191.088586 
L 528.601635 190.666752 
L 529.010875 190.124046 
L 529.624734 189.727232 
L 529.829353 189.746509 
L 530.238593 190.151072 
L 531.057072 191.155426 
L 531.261692 191.119625 
L 531.466311 190.803485 
L 531.875551 189.460341 
L 532.48941 187.120187 
L 532.69403 186.729414 
L 532.898649 186.696176 
L 533.103269 187.03138 
L 533.512509 188.527716 
L 533.921748 190.086773 
L 534.330987 190.780877 
L 534.535607 190.778913 
L 534.944847 190.561357 
L 535.354086 190.787709 
L 536.172565 191.488218 
L 536.581804 191.488815 
L 536.991044 191.212254 
L 537.809523 190.25841 
L 538.014143 190.43058 
L 538.832621 192.159224 
L 539.037241 192.223417 
L 539.446481 192.028981 
L 540.469579 190.899251 
L 541.697298 189.508971 
L 542.106537 189.431051 
L 542.311157 189.436986 
L 542.720396 189.096253 
L 543.129636 188.669359 
L 544.152734 188.319233 
L 544.766594 187.904337 
L 544.971213 187.903803 
L 545.789692 188.478232 
L 546.198932 187.737653 
L 546.812791 186.249044 
L 547.017411 186.016289 
L 547.835889 185.701301 
L 549.063608 183.930345 
L 549.677467 181.974261 
L 550.495946 179.443919 
L 551.109805 176.335072 
L 552.337523 169.088814 
L 552.746763 168.588762 
L 552.951383 168.663138 
L 553.156002 169.011834 
L 553.565242 170.696224 
L 554.58834 177.470971 
L 555.406819 182.233574 
L 556.225298 185.995731 
L 556.429918 186.484319 
L 556.634538 186.646755 
L 556.839157 186.557137 
L 557.453017 185.922465 
L 557.657636 185.924941 
L 557.862256 186.129689 
L 558.885355 187.816939 
L 559.908453 188.148663 
L 560.726932 189.327194 
L 560.931552 189.32634 
L 561.340791 189.011544 
L 561.954651 188.333301 
L 562.15927 188.33597 
L 562.56851 188.743863 
L 563.182369 189.537492 
L 563.796228 190.013678 
L 565.637806 193.301164 
L 565.842425 193.216349 
L 566.251665 192.547777 
L 566.660904 191.870729 
L 566.865524 191.866673 
L 567.274763 192.38502 
L 568.707102 194.691914 
L 568.911721 194.828412 
L 569.116341 194.825402 
L 569.320961 194.608828 
L 569.7302 193.492036 
L 570.753299 190.150325 
L 571.162538 189.300424 
L 571.367158 189.106692 
L 571.571778 189.104835 
L 571.981017 189.577711 
L 572.594876 190.957147 
L 573.208736 192.192249 
L 573.413355 192.420992 
L 573.617975 192.466527 
L 573.822595 192.303664 
L 574.231834 191.543359 
L 575.050313 189.641541 
L 575.254933 189.589559 
L 575.664172 190.054089 
L 576.073412 190.553523 
L 576.482651 190.607938 
L 577.50575 190.130643 
L 578.119609 189.568318 
L 578.324229 189.599764 
L 578.528848 189.87577 
L 579.756567 192.524145 
L 580.575046 193.162467 
L 580.984285 193.296169 
L 581.393525 193.222092 
L 581.802764 192.772676 
L 582.212004 192.084656 
L 582.416623 192.018478 
L 582.621243 192.282465 
L 583.235102 193.840177 
L 583.439722 194.034592 
L 583.644342 193.973772 
L 583.848961 193.679982 
L 585.281299 190.344057 
L 585.690539 189.326767 
L 586.509018 186.88408 
L 586.713638 186.752769 
L 586.918257 186.800033 
L 587.327497 187.269217 
L 587.736736 187.754945 
L 589.782933 189.245176 
L 589.987553 189.250982 
L 590.396793 188.745038 
L 590.806032 188.214031 
L 591.624511 187.911788 
L 592.44299 186.737164 
L 592.852229 186.720427 
L 593.261469 187.018251 
L 593.670708 187.522061 
L 593.875328 187.559057 
L 594.284567 187.102426 
L 594.693807 186.729372 
L 595.307666 186.603505 
L 596.330765 185.74848 
L 596.944624 184.639351 
L 597.558483 183.518289 
L 597.967722 183.146516 
L 598.376962 183.066013 
L 599.195441 183.074851 
L 599.60468 182.635875 
L 601.446258 179.976058 
L 602.469356 176.448642 
L 603.083216 175.947565 
L 603.287835 175.514588 
L 603.901695 173.046774 
L 604.720173 169.157149 
L 605.947892 162.761625 
L 606.357131 160.728433 
L 606.97099 155.12673 
L 607.58485 150.077467 
L 608.403329 143.966639 
L 609.017188 139.738053 
L 609.426427 138.094011 
L 609.835667 137.439335 
L 610.040286 137.443882 
L 610.858765 138.100692 
L 611.063385 138.163968 
L 611.472624 138.696981 
L 611.881864 139.647943 
L 612.291103 141.314871 
L 612.700343 143.928896 
L 613.518822 151.572736 
L 614.132681 156.080169 
L 614.74654 158.609336 
L 615.565019 161.227631 
L 616.588118 165.786533 
L 617.201977 168.686321 
L 618.020456 170.665098 
L 618.429695 171.218691 
L 619.862033 172.29772 
L 621.089752 172.628676 
L 621.498991 173.306385 
L 622.31747 175.293979 
L 622.52209 175.513862 
L 622.726709 175.501992 
L 623.135949 175.109149 
L 623.545188 174.447963 
L 624.159048 172.883676 
L 624.772907 170.269928 
L 626.000625 163.714295 
L 626.409865 160.379907 
L 627.023724 152.863514 
L 628.456062 132.427026 
L 628.660681 131.584916 
L 628.865301 131.837355 
L 629.069921 133.03702 
L 629.47916 137.307854 
L 630.09302 146.656813 
L 630.706879 156.27627 
L 631.525358 164.706523 
L 632.139217 169.104185 
L 632.753076 171.530178 
L 634.185414 176.958024 
L 634.799273 179.394414 
L 635.208513 180.258383 
L 635.822372 181.348214 
L 636.436231 182.970545 
L 636.640851 183.126064 
L 637.05009 182.944116 
L 638.482428 181.913228 
L 638.687048 182.001608 
L 639.096288 182.767249 
L 639.505527 183.5929 
L 639.710147 183.701881 
L 639.914766 183.530841 
L 640.528626 182.492566 
L 640.937865 182.271189 
L 641.960964 182.344006 
L 642.370203 182.892967 
L 642.779443 183.810541 
L 643.188682 184.808576 
L 643.393302 184.976605 
L 643.802541 184.701516 
L 644.211781 184.429224 
L 644.82564 184.211134 
L 645.234879 183.787421 
L 646.053358 182.730574 
L 646.462598 182.607162 
L 647.281077 183.024256 
L 647.485696 182.893309 
L 648.099556 182.058671 
L 648.304175 182.015804 
L 648.508795 182.243202 
L 649.531894 184.588628 
L 649.941133 184.725468 
L 650.350373 184.620309 
L 650.759612 184.816538 
L 651.168851 185.3538 
L 651.98733 186.556603 
L 652.19195 186.410819 
L 653.010429 184.745023 
L 653.215049 184.59546 
L 653.419668 184.600839 
L 653.624288 184.794187 
L 654.033528 185.683881 
L 654.442767 186.688405 
L 654.852007 187.19388 
L 655.465866 187.660566 
L 655.670485 187.486346 
L 656.693584 185.737678 
L 657.716683 182.9087 
L 658.535162 182.128799 
L 658.739781 182.026094 
L 658.944401 182.082837 
L 659.55826 182.850677 
L 659.9675 183.314374 
L 660.376739 183.390138 
L 660.785979 183.465111 
L 661.195218 183.667639 
L 661.399838 183.630792 
L 661.809077 183.22292 
L 663.446035 181.205098 
L 663.650655 181.20038 
L 664.264514 181.6958 
L 664.469134 181.543098 
L 664.878373 180.462469 
L 665.492232 178.764289 
L 665.901472 177.890969 
L 666.515331 176.339277 
L 667.12919 175.331914 
L 667.53843 175.019125 
L 667.947669 174.749394 
L 668.356908 174.200349 
L 669.175387 172.93506 
L 669.789247 172.239034 
L 670.198486 171.837054 
L 671.016965 171.844995 
L 672.040064 171.404439 
L 672.449303 170.611643 
L 673.267782 168.397015 
L 673.677021 167.903367 
L 674.086261 167.515711 
L 674.4955 166.46958 
L 675.109359 164.878459 
L 675.723219 163.501137 
L 676.950937 160.077344 
L 677.564796 157.878385 
L 677.974036 156.507361 
L 678.383275 154.298689 
L 679.610993 144.909639 
L 680.020233 140.555335 
L 680.634092 131.141735 
L 682.27105 101.299801 
L 683.089529 81.144764 
L 683.908008 55.479541 
L 685.340346 8.807459 
L 685.749585 1.084269 
L 685.960512 -1 
M 686.563171 -1 
L 686.568064 -0.977423 
L 686.772684 0.975416 
L 687.181923 8.093607 
L 688.000402 29.658736 
L 689.228121 60.321281 
L 689.84198 71.961422 
L 690.865078 87.492212 
L 692.502036 119.860794 
L 694.138994 139.22184 
L 694.548234 141.146842 
L 695.366712 143.66145 
L 696.594431 146.068999 
L 697.617529 148.564779 
L 698.231389 149.610739 
L 698.436008 149.644042 
L 698.640628 149.45966 
L 698.845248 148.992355 
L 699.254487 146.785199 
L 700.072966 140.075072 
L 700.277586 139.574912 
L 700.482206 139.951596 
L 700.686825 141.191843 
L 701.096065 145.597958 
L 701.914544 155.65652 
L 702.528403 160.361634 
L 703.142262 163.523531 
L 703.551502 164.721488 
L 703.756121 164.889197 
L 704.165361 165.035302 
L 704.5746 165.95674 
L 704.98384 166.981651 
L 705.393079 167.499444 
L 706.006938 168.106449 
L 706.211558 168.121478 
L 706.416178 167.893675 
L 706.825417 166.766102 
L 707.234657 165.626851 
L 707.643896 165.332101 
L 707.848516 165.155746 
L 708.257755 164.108335 
L 708.871614 162.107164 
L 709.280854 161.49828 
L 709.690093 161.308433 
L 710.099333 161.531881 
L 710.508572 162.157267 
L 710.917812 163.217808 
L 711.94091 166.565133 
L 712.964009 168.218462 
L 713.577868 168.797885 
L 714.396347 169.303296 
L 715.624065 169.612563 
L 716.237925 170.305195 
L 716.442544 170.136717 
L 717.465643 168.178029 
L 717.874882 167.775045 
L 718.079502 167.768833 
L 718.284122 167.95014 
L 719.92108 170.702628 
L 720.534939 172.344429 
L 720.944178 172.925646 
L 721.353418 173.211046 
L 721.762657 173.154708 
L 721.967277 172.995133 
L 722.376516 172.262517 
L 723.604235 169.530416 
L 724.013474 169.142718 
L 724.422714 168.30665 
L 725.036573 166.536057 
L 725.241193 166.206852 
L 725.445812 166.093345 
L 725.650432 166.18275 
L 726.059671 166.867419 
L 726.673531 168.039332 
L 727.901249 169.464494 
L 728.310488 169.610108 
L 729.128967 169.381558 
L 729.538207 169.397654 
L 729.742827 169.170619 
L 730.765925 167.238359 
L 731.175165 167.239235 
L 731.993644 167.773188 
L 732.402883 167.708589 
L 733.016742 168.03092 
L 733.221362 167.897795 
L 733.425982 167.506809 
L 734.44908 164.347623 
L 735.472179 163.339961 
L 735.881418 163.648758 
L 736.086038 163.822145 
L 736.290658 163.84471 
L 737.109137 163.441897 
L 737.313756 163.649377 
L 737.927616 164.583495 
L 738.132235 164.567591 
L 738.950714 164.087414 
L 739.155334 164.162942 
L 739.359954 164.416256 
L 740.178433 166.016023 
L 740.383052 165.940238 
L 740.792292 165.161788 
L 741.610771 163.608133 
L 742.02001 163.193728 
L 742.42925 162.946904 
L 742.633869 162.682169 
L 743.043109 161.566913 
L 743.861588 159.005318 
L 744.475447 157.899157 
L 744.884686 157.661555 
L 745.089306 157.664159 
L 745.293926 157.539723 
L 745.498545 157.120365 
L 745.907785 155.370437 
L 746.521644 152.549337 
L 746.726264 152.142532 
L 746.930884 152.141059 
L 747.340123 152.90036 
L 748.158602 154.606013 
L 748.567841 154.999305 
L 748.977081 155.182939 
L 749.38632 156.15638 
L 749.79556 157.272319 
L 751.023278 158.955364 
L 751.227898 159.122923 
L 751.432518 159.102259 
L 751.841757 158.525653 
L 752.455616 157.654062 
L 753.069475 157.183405 
L 753.478715 156.822541 
L 753.683335 156.392424 
L 754.092574 154.609279 
L 754.911053 150.242444 
L 755.320292 148.823643 
L 755.934152 147.587089 
L 756.343391 147.018339 
L 756.548011 146.956494 
L 756.75263 147.194672 
L 757.16187 148.469866 
L 758.184969 152.015897 
L 758.798828 153.36077 
L 759.617307 154.713414 
L 759.821926 154.722935 
L 760.435786 154.465522 
L 760.845025 154.875743 
L 761.663504 156.199119 
L 761.868124 156.207872 
L 762.686603 155.663287 
L 763.095842 155.172393 
L 763.505081 154.342409 
L 764.118941 152.745439 
L 764.52818 152.302705 
L 765.142039 152.241565 
L 765.551279 151.654584 
L 766.165138 150.667459 
L 766.778997 149.971539 
L 767.392856 148.924341 
L 767.597476 148.826226 
L 767.802096 149.007042 
L 768.211335 150.205576 
L 768.620575 151.435235 
L 768.825194 151.627921 
L 769.029814 151.5389 
L 770.052913 150.297521 
L 770.257532 150.417688 
L 771.076011 151.873592 
L 771.280631 151.799515 
L 771.689871 151.084105 
L 772.09911 150.256555 
L 772.30373 150.141426 
L 772.917589 150.331528 
L 773.122209 150.122405 
L 773.940688 148.590012 
L 774.145307 148.654909 
L 774.349927 148.920584 
L 775.373026 151.180832 
L 775.782265 151.40823 
L 776.396124 151.480385 
L 776.600744 151.352277 
L 777.009983 150.660584 
L 777.828462 148.738849 
L 778.237702 148.276646 
L 778.442322 148.256579 
L 778.646941 148.365987 
L 779.056181 148.953737 
L 780.488519 151.655096 
L 780.897758 151.771912 
L 781.511617 151.909392 
L 782.125477 152.234286 
L 782.534716 152.552155 
L 782.739336 152.592183 
L 783.148575 152.395035 
L 783.353195 152.521286 
L 783.762434 153.557448 
L 784.376294 155.172542 
L 784.785533 155.748508 
L 784.990153 155.762363 
L 785.808632 155.423999 
L 786.217871 155.281225 
L 787.03635 154.605991 
L 787.650209 154.662094 
L 788.059449 154.716253 
L 788.877928 154.075219 
L 789.082547 154.190925 
L 790.924125 156.373894 
L 791.537984 155.780124 
L 791.742604 155.912652 
L 792.151843 156.820129 
L 792.970322 160.244284 
L 793.174942 160.372628 
L 793.379562 160.050275 
L 794.19804 157.839916 
L 794.40266 157.694409 
L 794.60728 157.784689 
L 795.016519 158.474375 
L 795.425759 159.55573 
L 796.039618 161.336719 
L 796.244238 161.41893 
L 796.653477 160.999764 
L 797.267336 160.093718 
L 797.881196 159.143588 
L 798.085815 159.028331 
L 798.290435 159.13791 
L 798.699674 160.078411 
L 799.722773 162.960737 
L 799.927393 163.112136 
L 800.541252 163.072322 
L 801.359731 163.592356 
L 801.564351 163.46079 
L 802.38283 162.34404 
L 802.587449 162.328627 
L 802.996689 162.771766 
L 803.610548 163.777784 
L 804.019787 163.887896 
L 804.224407 164.114376 
L 804.633647 165.390915 
L 805.247506 167.95853 
L 805.656745 168.663543 
L 806.065985 169.255691 
L 806.475224 169.969265 
L 807.293703 170.627676 
L 808.316802 172.5372 
L 808.930661 172.836881 
L 809.953759 172.87503 
L 810.772238 172.169675 
L 810.976858 172.477362 
L 811.999957 175.330249 
L 812.409196 175.442859 
L 812.613816 175.445805 
L 812.818436 175.583093 
L 813.432295 176.375483 
L 813.636915 176.349247 
L 814.046154 175.896971 
L 814.660013 175.217254 
L 815.069253 175.115297 
L 815.478492 175.374076 
L 815.887732 175.861896 
L 816.501591 177.097596 
L 817.32007 179.055068 
L 817.729309 179.257958 
L 817.933929 179.15647 
L 818.343168 178.530572 
L 818.752408 177.886016 
L 819.161647 177.652321 
L 819.570887 177.797849 
L 819.980126 178.447486 
L 820.593985 179.78081 
L 821.617084 182.875227 
L 822.026323 183.192606 
L 822.435563 183.246829 
L 822.844802 183.174951 
L 823.049422 183.353377 
L 823.458661 184.638924 
L 823.867901 185.981492 
L 824.072521 186.152275 
L 824.27714 185.966441 
L 825.709478 183.285725 
L 826.118718 182.868588 
L 826.732577 182.475488 
L 828.369535 181.044369 
L 828.983394 181.030344 
L 829.392633 181.219166 
L 830.006493 181.835137 
L 830.211112 181.812551 
L 830.415732 181.614037 
L 830.620352 181.225058 
L 831.029591 179.754552 
L 831.438831 178.272049 
L 831.64345 177.992713 
L 831.84807 178.034298 
L 832.666549 178.750797 
L 832.871169 178.532002 
L 833.280408 177.280121 
L 833.894267 174.483742 
L 834.098887 174.114594 
L 834.303507 174.140745 
L 834.712746 174.551585 
L 834.917366 174.551094 
L 835.121986 174.305145 
L 835.735845 172.832292 
L 836.349704 170.841496 
L 837.577423 166.428186 
L 838.191282 164.124644 
L 839.009761 162.640925 
L 839.419 160.489657 
L 841.874437 144.201914 
L 842.692916 138.152546 
L 844.125254 128.7569 
L 844.943733 121.133212 
L 848.217648 79.583017 
L 848.831508 69.821191 
L 849.445367 56.556093 
L 850.059226 38.068303 
L 850.673085 11.94186 
L 850.915952 -1 
M 947.153906 -1 
L 947.867455 22.787134 
L 948.685934 42.126277 
L 949.299793 52.427628 
L 950.118272 61.914708 
L 950.936751 72.012678 
L 951.75523 81.37246 
L 952.778329 89.744369 
L 953.801427 96.249429 
L 955.233765 108.442564 
L 955.847625 111.733787 
L 956.666104 115.216863 
L 957.075343 116.504737 
L 957.484582 117.096009 
L 958.098442 117.293691 
L 958.303061 117.580435 
L 958.507681 118.245891 
L 958.916921 120.778112 
L 959.53078 124.86038 
L 960.963118 131.879667 
L 961.372357 133.166409 
L 961.986216 134.155286 
L 963.623174 136.026405 
L 963.827794 136.176716 
L 964.237033 136.887706 
L 965.260132 139.210974 
L 965.873991 142.011857 
L 966.48785 144.82777 
L 966.89709 145.978463 
L 967.10171 146.211539 
L 967.510949 146.151316 
L 967.715569 146.1463 
L 967.920189 146.318513 
L 969.761766 149.199259 
L 969.966386 149.424457 
L 970.171006 149.461325 
L 970.580245 149.174282 
L 970.784865 149.213007 
L 970.989484 149.545158 
L 972.012583 152.165311 
L 972.831062 152.733014 
L 973.240301 152.877219 
L 973.649541 152.69446 
L 974.46802 152.181428 
L 974.877259 152.374178 
L 975.286499 152.916478 
L 975.900358 154.701224 
L 976.718837 156.984336 
L 977.741935 158.622807 
L 978.560414 159.155287 
L 979.788133 159.562199 
L 979.992752 159.752429 
L 980.401992 160.643895 
L 981.015851 162.548616 
L 981.62971 164.433697 
L 981.83433 164.513325 
L 982.243569 163.849854 
L 982.857429 163.02826 
L 983.471288 162.151311 
L 983.675907 162.042757 
L 983.880527 162.070872 
L 984.289767 162.46425 
L 984.699006 162.867041 
L 985.108246 163.161172 
L 985.722105 164.067966 
L 986.131344 164.920749 
L 986.745203 166.41241 
L 986.949823 166.526942 
L 987.154443 166.443044 
L 987.359063 166.217718 
L 987.768302 165.225917 
L 988.791401 161.810813 
L 989.40526 160.644344 
L 989.60988 160.509382 
L 989.814499 160.527699 
L 990.428358 160.904339 
L 990.632978 160.784748 
L 991.246837 160.187328 
L 991.656077 160.053477 
L 991.860697 159.828108 
L 992.065316 159.328994 
L 992.474556 157.357412 
L 992.883795 155.263399 
L 993.088415 154.679257 
L 993.293035 154.5054 
L 993.497654 154.729958 
L 993.906894 155.979193 
L 994.725373 158.973382 
L 995.953091 162.386394 
L 996.56695 163.091728 
L 996.97619 163.994059 
L 997.794669 166.263744 
L 997.999288 166.50062 
L 998.203908 166.531446 
L 998.817767 166.168041 
L 999.636246 165.779851 
L 1000.045486 164.883903 
L 1000.454725 163.979052 
L 1000.659345 163.849107 
L 1001.068584 163.947564 
L 1001.273204 163.749882 
L 1001.477824 163.197698 
L 1002.091683 160.016054 
L 1002.500922 158.199158 
L 1002.705542 157.93041 
L 1002.910162 158.304403 
L 1003.319401 160.642806 
L 1003.93326 164.864455 
L 1004.3425 166.419946 
L 1004.956359 167.694265 
L 1005.570218 169.094087 
L 1006.593317 171.481313 
L 1007.207176 172.690969 
L 1007.411796 172.867878 
L 1007.616416 172.828812 
L 1008.230275 172.401193 
L 1008.434894 172.403648 
L 1008.639514 172.530177 
L 1009.253373 173.167709 
L 1009.662613 172.791773 
L 1010.276472 171.968578 
L 1010.890331 170.156037 
L 1011.299571 169.188466 
L 1011.70881 168.643199 
L 1011.91343 168.554819 
L 1012.11805 168.719219 
L 1012.322669 169.204819 
L 1013.141148 172.22947 
L 1013.550388 172.486221 
L 1013.755007 172.575434 
L 1013.959627 172.883676 
L 1014.368866 174.345599 
L 1015.187345 177.627024 
L 1015.596585 178.521542 
L 1015.801205 178.615281 
L 1016.005824 178.413629 
L 1016.415064 177.260182 
L 1017.233543 174.5778 
L 1017.642782 173.671028 
L 1018.052022 173.253976 
L 1018.665881 173.096621 
L 1019.27974 172.926991 
L 1019.688979 172.652265 
L 1020.098219 172.062701 
L 1020.507458 171.59847 
L 1020.712078 171.760479 
L 1021.325937 173.210277 
L 1021.735177 174.061481 
L 1022.144416 174.383385 
L 1022.349036 174.405352 
L 1022.553656 174.540121 
L 1022.962895 175.452102 
L 1023.576754 177.051848 
L 1024.599853 178.845859 
L 1025.009092 178.822696 
L 1025.622951 178.724667 
L 1026.032191 177.929395 
L 1026.44143 177.158011 
L 1026.64605 177.131048 
L 1027.05529 177.434551 
L 1027.259909 177.402529 
L 1027.669149 176.881833 
L 1028.283008 175.957065 
L 1028.487628 175.929612 
L 1029.919966 176.630932 
L 1030.943064 177.994335 
L 1031.556924 178.984001 
L 1032.784642 179.907254 
L 1032.989262 179.940322 
L 1033.193881 179.815714 
L 1033.603121 179.068944 
L 1034.626219 176.617333 
L 1035.035459 175.95952 
L 1035.444698 175.805089 
L 1036.058558 175.929291 
L 1036.467797 175.551263 
L 1036.877036 174.929571 
L 1037.286276 173.728006 
L 1037.695515 172.204878 
L 1037.900135 171.8172 
L 1038.104755 171.863184 
L 1038.309375 172.352498 
L 1039.537093 177.240691 
L 1039.741713 177.488262 
L 1039.946332 177.482434 
L 1040.560192 177.221158 
L 1041.174051 177.148468 
L 1041.37867 177.391556 
L 1041.78791 178.643993 
L 1042.197149 179.911118 
L 1042.606389 180.394412 
L 1043.015628 180.446394 
L 1043.424868 180.119131 
L 1043.834107 179.766464 
L 1044.038727 179.86238 
L 1044.652586 180.511676 
L 1044.857206 180.342964 
L 1045.471065 179.561717 
L 1045.880304 179.243975 
L 1046.903403 177.778166 
L 1047.312643 177.641796 
L 1047.517262 177.727999 
L 1047.926502 178.332827 
L 1048.540361 179.496905 
L 1049.15422 180.045204 
L 1049.768079 180.350734 
L 1050.791178 181.586242 
L 1051.405037 182.544484 
L 1051.609657 182.622425 
L 1052.632755 182.367041 
L 1052.837375 182.58052 
L 1053.451234 183.541366 
L 1053.860474 183.361702 
L 1054.065093 183.113213 
L 1054.474333 182.034612 
L 1054.883572 181.115992 
L 1056.111291 180.793895 
L 1056.72515 181.04232 
L 1057.134389 181.591302 
L 1057.543629 182.070092 
L 1057.748249 182.0509 
L 1058.157488 181.599115 
L 1058.771347 180.807109 
L 1058.975967 180.76689 
L 1059.180587 180.897112 
L 1059.589826 181.57544 
L 1059.999066 182.283122 
L 1060.203685 182.397995 
L 1060.408305 182.266813 
L 1061.226784 181.149102 
L 1061.431404 181.149145 
L 1062.454502 181.688798 
L 1062.863742 181.122225 
L 1063.272981 180.68216 
L 1063.477601 180.818744 
L 1063.88684 181.871301 
L 1064.29608 182.912714 
L 1064.5007 183.018343 
L 1064.909939 182.708991 
L 1065.319178 182.375025 
L 1065.728418 182.340569 
L 1066.137657 182.833236 
L 1066.546897 183.454629 
L 1066.751517 183.533275 
L 1067.160756 183.187546 
L 1067.774615 182.191369 
L 1068.593094 180.772782 
L 1069.002334 180.45662 
L 1069.411573 180.485247 
L 1069.616193 180.756429 
L 1070.434672 182.773568 
L 1071.253151 182.887352 
L 1071.86701 183.551613 
L 1072.276249 183.555797 
L 1072.890108 183.035678 
L 1073.708587 182.480377 
L 1074.117827 182.20437 
L 1074.322446 182.21957 
L 1074.527066 182.443786 
L 1075.550165 184.490471 
L 1075.754785 184.309035 
L 1076.573263 182.519401 
L 1077.187123 181.316405 
L 1077.391742 181.35987 
L 1078.414841 182.750619 
L 1078.619461 182.640101 
L 1079.847179 181.271191 
L 1080.051799 181.287073 
L 1080.461038 181.817995 
L 1081.074897 182.912949 
L 1081.484137 183.25983 
L 1081.893376 183.531567 
L 1082.302616 184.24766 
L 1082.711855 185.128409 
L 1082.916475 185.343468 
L 1083.121095 185.294987 
L 1083.530334 184.57567 
L 1083.939574 183.957713 
L 1084.144193 183.960382 
L 1084.348813 184.280365 
L 1085.167292 186.429477 
L 1085.781151 186.773903 
L 1085.985771 186.740174 
L 1086.39501 186.206712 
L 1086.80425 185.575711 
L 1087.213489 185.359201 
L 1088.031968 185.203191 
L 1088.236588 184.926843 
L 1088.645827 183.701304 
L 1089.055067 182.344241 
L 1089.259687 182.03173 
L 1089.464306 182.156038 
L 1089.873546 183.405978 
L 1090.282785 184.687789 
L 1090.487405 184.906498 
L 1090.692025 184.764343 
L 1091.305884 183.854475 
L 1091.510503 183.830544 
L 1091.919743 184.128667 
L 1092.533602 184.839381 
L 1092.738222 184.782894 
L 1093.147461 184.182442 
L 1094.37518 182.057091 
L 1094.784419 181.764839 
L 1094.989039 181.862804 
L 1095.398278 182.40536 
L 1095.807518 183.276055 
L 1096.625997 185.28015 
L 1096.830616 185.538822 
L 1097.035236 185.617361 
L 1097.239856 185.50569 
L 1098.467574 184.137633 
L 1098.876814 184.544908 
L 1099.286053 184.996992 
L 1099.695293 185.170721 
L 1099.899912 185.122816 
L 1100.104532 184.847172 
L 1100.513771 183.41473 
L 1101.127631 180.824422 
L 1101.33225 180.318435 
L 1101.53687 180.109802 
L 1101.74149 180.148357 
L 1102.355349 180.561694 
L 1102.764588 180.4807 
L 1102.969208 180.592862 
L 1103.378448 181.373767 
L 1103.787687 182.269332 
L 1104.196927 182.615317 
L 1104.606166 182.485948 
L 1105.629265 181.68013 
L 1106.038504 181.779868 
L 1106.243124 181.858684 
L 1106.447744 181.76787 
L 1106.856983 180.905331 
L 1108.084701 177.193021 
L 1108.493941 177.131454 
L 1108.90318 177.120396 
L 1109.31242 176.712054 
L 1110.335518 175.216507 
L 1110.949378 175.404774 
L 1111.358617 175.182927 
L 1111.563237 174.881538 
L 1111.972476 173.546869 
L 1112.790955 169.638266 
L 1114.018673 162.118201 
L 1114.632533 155.919867 
L 1115.451012 147.812907 
L 1116.67873 138.253885 
L 1117.497209 133.488954 
L 1118.111068 127.743239 
L 1119.543406 109.943597 
L 1119.952646 100.327598 
L 1120.361885 85.105477 
L 1120.771124 62.758845 
L 1121.180364 30.497067 
L 1121.472649 -1 
M 1124.650805 -1 
L 1125.068139 36.07027 
L 1125.681998 69.732 
L 1126.295857 89.034852 
L 1128.137435 133.240572 
L 1128.955913 147.114255 
L 1129.569773 154.058141 
L 1130.797491 163.482479 
L 1131.41135 166.913189 
L 1133.048308 173.110284 
L 1134.276026 175.722964 
L 1134.685266 176.172849 
L 1134.889886 176.201135 
L 1135.299125 175.666008 
L 1135.912984 174.772728 
L 1136.117604 174.745936 
L 1136.526843 175.147169 
L 1136.936083 175.83186 
L 1137.754562 178.114054 
L 1138.573041 180.345739 
L 1138.98228 180.986282 
L 1139.1869 180.987669 
L 1139.39152 180.668988 
L 1140.414618 177.843235 
L 1140.619238 178.057204 
L 1140.823858 178.721892 
L 1141.846956 184.096026 
L 1142.051576 184.449931 
L 1142.256196 184.491111 
L 1142.870055 184.153153 
L 1143.279294 184.385674 
L 1143.688534 184.593474 
L 1143.893154 184.533209 
L 1144.302393 184.042614 
L 1145.120872 182.219698 
L 1146.143971 179.393773 
L 1146.34859 179.154336 
L 1146.55321 179.123467 
L 1146.75783 179.366768 
L 1147.167069 180.870171 
L 1147.985548 184.887627 
L 1148.394788 185.872212 
L 1148.599407 185.942937 
L 1148.804027 185.779349 
L 1150.031745 184.000644 
L 1150.850224 183.944179 
L 1151.259464 183.750105 
L 1151.464083 183.82826 
L 1151.873323 184.488272 
L 1152.487182 186.479559 
L 1153.101041 188.33898 
L 1153.305661 188.528015 
L 1153.510281 188.483035 
L 1153.91952 187.820952 
L 1154.942619 185.28649 
L 1155.147239 185.309653 
L 1156.374957 186.368806 
L 1156.784196 186.475695 
L 1157.193436 186.40038 
L 1157.602675 185.956899 
L 1158.421154 184.717356 
L 1158.625774 184.443335 
L 1158.830394 184.383625 
L 1159.853492 184.890146 
L 1160.262732 184.878895 
L 1160.671971 184.970926 
L 1160.876591 184.841622 
L 1161.69507 183.655406 
L 1162.922788 183.600414 
L 1163.127408 183.598173 
L 1163.332028 183.778712 
L 1164.559746 185.673527 
L 1165.173605 186.049485 
L 1165.378225 185.960421 
L 1165.787464 185.38215 
L 1166.401324 184.458492 
L 1167.424422 183.754631 
L 1167.833662 184.042635 
L 1168.447521 184.738725 
L 1169.06138 186.000513 
L 1169.470619 186.871057 
L 1169.675239 187.100376 
L 1169.879859 187.048309 
L 1170.289098 186.166343 
L 1170.698338 185.18765 
L 1170.902957 184.981194 
L 1171.107577 185.057278 
L 1172.130676 186.476805 
L 1172.539915 186.537582 
L 1172.949155 186.30188 
L 1173.358394 185.830584 
L 1173.767634 185.193029 
L 1173.972253 185.103731 
L 1174.586113 185.381104 
L 1174.790732 185.231135 
L 1175.404591 184.396732 
L 1175.813831 184.205029 
L 1176.018451 184.279191 
L 1176.22307 184.608226 
L 1177.246169 187.403025 
L 1177.450789 187.36082 
L 1177.860028 186.86064 
L 1178.473887 185.726555 
L 1178.883127 185.512671 
L 1179.701606 185.747519 
L 1180.110845 185.099376 
L 1180.929324 183.335978 
L 1181.133944 183.364307 
L 1181.952423 184.304552 
L 1182.361662 183.985551 
L 1182.975521 183.237692 
L 1183.180141 183.312389 
L 1183.589381 184.267642 
L 1184.20324 186.046496 
L 1184.612479 186.567747 
L 1184.817099 186.713019 
L 1184.817099 186.713019 
" clip-path="url(#pc3882b15a9)" style="fill: none; stroke: #000000; stroke-width: 2; stroke-linecap: square"/>
   </g>
   <g id="patch_3">
    <path d="M 3.00024 198.907885 
L 1184.99976 198.907885 
" style="fill: none; stroke: #000000; stroke-width: 2; stroke-linejoin: miter; stroke-linecap: square"/>
   </g>
  </g>
 </g>
 <defs>
  <clipPath id="pc3882b15a9">
   <rect x="3.00024" y="3.00024" width="1181.99952" height="195.907645"/>
  </clipPath>
 </defs>
</svg>
