<?xml version="1.0" encoding="utf-8" standalone="no"?>
<!DOCTYPE svg PUBLIC "-//W3C//DTD SVG 1.1//EN"
  "http://www.w3.org/Graphics/SVG/1.1/DTD/svg11.dtd">
<svg xmlns:xlink="http://www.w3.org/1999/xlink" width="1188pt" height="252pt" viewBox="0 0 1188 252" xmlns="http://www.w3.org/2000/svg" version="1.1">
 <metadata>
  <rdf:RDF xmlns:dc="http://purl.org/dc/elements/1.1/" xmlns:cc="http://creativecommons.org/ns#" xmlns:rdf="http://www.w3.org/1999/02/22-rdf-syntax-ns#">
   <cc:Work>
    <dc:type rdf:resource="http://purl.org/dc/dcmitype/StillImage"/>
    <dc:date>2024-07-23T21:47:44.811708</dc:date>
    <dc:format>image/svg+xml</dc:format>
    <dc:creator>
     <cc:Agent>
      <dc:title>Matplotlib v3.8.4, https://matplotlib.org/</dc:title>
     </cc:Agent>
    </dc:creator>
   </cc:Work>
  </rdf:RDF>
 </metadata>
 <defs>
  <style type="text/css">*{stroke-linejoin: round; stroke-linecap: butt}</style>
 </defs>
 <g id="figure_1">
  <g id="patch_1">
   <path d="M 0 252 
L 1188 252 
L 1188 0 
L 0 0 
z
" style="fill: #ffffff"/>
  </g>
  <g id="axes_1">
   <g id="patch_2">
    <path d="M 3.00024 198.907885 
L 1184.99976 198.907885 
L 1184.99976 3.00024 
L 3.00024 3.00024 
z
" style="fill: #ffffff"/>
   </g>
   <g id="matplotlib.axis_1">
    <g id="xtick_1">
     <g id="line2d_1">
      <defs>
       <path id="md8af936317" d="M 0 0 
L 0 8 
" style="stroke: #000000; stroke-width: 2"/>
      </defs>
      <g>
       <use xlink:href="#md8af936317" x="1131.272509" y="198.907885" style="stroke: #000000; stroke-width: 2"/>
      </g>
     </g>
     <g id="text_1">
      <!-- 0 -->
      <g transform="translate(1126.267665 224.791947) scale(0.18 -0.18)">
       <defs>
        <path id="Arial-BoldMT-30" d="M 1756 4600 
Q 2422 4600 2797 4125 
Q 3244 3563 3244 2259 
Q 3244 959 2794 391 
Q 2422 -78 1756 -78 
Q 1088 -78 678 436 
Q 269 950 269 2269 
Q 269 3563 719 4131 
Q 1091 4600 1756 4600 
z
M 1756 3872 
Q 1597 3872 1472 3770 
Q 1347 3669 1278 3406 
Q 1188 3066 1188 2259 
Q 1188 1453 1269 1151 
Q 1350 850 1473 750 
Q 1597 650 1756 650 
Q 1916 650 2041 751 
Q 2166 853 2234 1116 
Q 2325 1453 2325 2259 
Q 2325 3066 2244 3367 
Q 2163 3669 2039 3770 
Q 1916 3872 1756 3872 
z
" transform="scale(0.015625)"/>
       </defs>
       <use xlink:href="#Arial-BoldMT-30"/>
      </g>
     </g>
    </g>
    <g id="xtick_2">
     <g id="line2d_2">
      <g>
       <use xlink:href="#md8af936317" x="1023.818007" y="198.907885" style="stroke: #000000; stroke-width: 2"/>
      </g>
     </g>
     <g id="text_2">
      <!-- 1 -->
      <g transform="translate(1018.813164 224.791947) scale(0.18 -0.18)">
       <defs>
        <path id="Arial-BoldMT-31" d="M 2519 0 
L 1641 0 
L 1641 3309 
Q 1159 2859 506 2644 
L 506 3441 
Q 850 3553 1253 3867 
Q 1656 4181 1806 4600 
L 2519 4600 
L 2519 0 
z
" transform="scale(0.015625)"/>
       </defs>
       <use xlink:href="#Arial-BoldMT-31"/>
      </g>
     </g>
    </g>
    <g id="xtick_3">
     <g id="line2d_3">
      <g>
       <use xlink:href="#md8af936317" x="916.363505" y="198.907885" style="stroke: #000000; stroke-width: 2"/>
      </g>
     </g>
     <g id="text_3">
      <!-- 2 -->
      <g transform="translate(911.358662 224.791947) scale(0.18 -0.18)">
       <defs>
        <path id="Arial-BoldMT-32" d="M 3238 816 
L 3238 0 
L 159 0 
Q 209 463 459 877 
Q 709 1291 1447 1975 
Q 2041 2528 2175 2725 
Q 2356 2997 2356 3263 
Q 2356 3556 2198 3714 
Q 2041 3872 1763 3872 
Q 1488 3872 1325 3706 
Q 1163 3541 1138 3156 
L 263 3244 
Q 341 3969 753 4284 
Q 1166 4600 1784 4600 
Q 2463 4600 2850 4234 
Q 3238 3869 3238 3325 
Q 3238 3016 3127 2736 
Q 3016 2456 2775 2150 
Q 2616 1947 2200 1565 
Q 1784 1184 1673 1059 
Q 1563 934 1494 816 
L 3238 816 
z
" transform="scale(0.015625)"/>
       </defs>
       <use xlink:href="#Arial-BoldMT-32"/>
      </g>
     </g>
    </g>
    <g id="xtick_4">
     <g id="line2d_4">
      <g>
       <use xlink:href="#md8af936317" x="808.909004" y="198.907885" style="stroke: #000000; stroke-width: 2"/>
      </g>
     </g>
     <g id="text_4">
      <!-- 3 -->
      <g transform="translate(803.90416 224.791947) scale(0.18 -0.18)">
       <defs>
        <path id="Arial-BoldMT-33" d="M 241 1216 
L 1091 1319 
Q 1131 994 1309 822 
Q 1488 650 1741 650 
Q 2013 650 2198 856 
Q 2384 1063 2384 1413 
Q 2384 1744 2206 1937 
Q 2028 2131 1772 2131 
Q 1603 2131 1369 2066 
L 1466 2781 
Q 1822 2772 2009 2936 
Q 2197 3100 2197 3372 
Q 2197 3603 2059 3740 
Q 1922 3878 1694 3878 
Q 1469 3878 1309 3722 
Q 1150 3566 1116 3266 
L 306 3403 
Q 391 3819 561 4067 
Q 731 4316 1036 4458 
Q 1341 4600 1719 4600 
Q 2366 4600 2756 4188 
Q 3078 3850 3078 3425 
Q 3078 2822 2419 2463 
Q 2813 2378 3048 2084 
Q 3284 1791 3284 1375 
Q 3284 772 2843 347 
Q 2403 -78 1747 -78 
Q 1125 -78 715 280 
Q 306 638 241 1216 
z
" transform="scale(0.015625)"/>
       </defs>
       <use xlink:href="#Arial-BoldMT-33"/>
      </g>
     </g>
    </g>
    <g id="xtick_5">
     <g id="line2d_5">
      <g>
       <use xlink:href="#md8af936317" x="701.454502" y="198.907885" style="stroke: #000000; stroke-width: 2"/>
      </g>
     </g>
     <g id="text_5">
      <!-- 4 -->
      <g transform="translate(696.449658 224.791947) scale(0.18 -0.18)">
       <defs>
        <path id="Arial-BoldMT-34" d="M 1994 0 
L 1994 922 
L 119 922 
L 119 1691 
L 2106 4600 
L 2844 4600 
L 2844 1694 
L 3413 1694 
L 3413 922 
L 2844 922 
L 2844 0 
L 1994 0 
z
M 1994 1694 
L 1994 3259 
L 941 1694 
L 1994 1694 
z
" transform="scale(0.015625)"/>
       </defs>
       <use xlink:href="#Arial-BoldMT-34"/>
      </g>
     </g>
    </g>
    <g id="xtick_6">
     <g id="line2d_6">
      <g>
       <use xlink:href="#md8af936317" x="594" y="198.907885" style="stroke: #000000; stroke-width: 2"/>
      </g>
     </g>
     <g id="text_6">
      <!-- 5 -->
      <g transform="translate(588.995156 224.791947) scale(0.18 -0.18)">
       <defs>
        <path id="Arial-BoldMT-35" d="M 284 1178 
L 1159 1269 
Q 1197 972 1381 798 
Q 1566 625 1806 625 
Q 2081 625 2272 848 
Q 2463 1072 2463 1522 
Q 2463 1944 2273 2155 
Q 2084 2366 1781 2366 
Q 1403 2366 1103 2031 
L 391 2134 
L 841 4519 
L 3163 4519 
L 3163 3697 
L 1506 3697 
L 1369 2919 
Q 1663 3066 1969 3066 
Q 2553 3066 2959 2641 
Q 3366 2216 3366 1538 
Q 3366 972 3038 528 
Q 2591 -78 1797 -78 
Q 1163 -78 763 262 
Q 363 603 284 1178 
z
" transform="scale(0.015625)"/>
       </defs>
       <use xlink:href="#Arial-BoldMT-35"/>
      </g>
     </g>
    </g>
    <g id="xtick_7">
     <g id="line2d_7">
      <g>
       <use xlink:href="#md8af936317" x="486.545498" y="198.907885" style="stroke: #000000; stroke-width: 2"/>
      </g>
     </g>
     <g id="text_7">
      <!-- 6 -->
      <g transform="translate(481.540654 224.791947) scale(0.18 -0.18)">
       <defs>
        <path id="Arial-BoldMT-36" d="M 3247 3459 
L 2397 3366 
Q 2366 3628 2234 3753 
Q 2103 3878 1894 3878 
Q 1616 3878 1423 3628 
Q 1231 3378 1181 2588 
Q 1509 2975 1997 2975 
Q 2547 2975 2939 2556 
Q 3331 2138 3331 1475 
Q 3331 772 2918 347 
Q 2506 -78 1859 -78 
Q 1166 -78 719 461 
Q 272 1000 272 2228 
Q 272 3488 737 4044 
Q 1203 4600 1947 4600 
Q 2469 4600 2811 4308 
Q 3153 4016 3247 3459 
z
M 1256 1544 
Q 1256 1116 1453 883 
Q 1650 650 1903 650 
Q 2147 650 2309 840 
Q 2472 1031 2472 1466 
Q 2472 1913 2297 2120 
Q 2122 2328 1859 2328 
Q 1606 2328 1431 2129 
Q 1256 1931 1256 1544 
z
" transform="scale(0.015625)"/>
       </defs>
       <use xlink:href="#Arial-BoldMT-36"/>
      </g>
     </g>
    </g>
    <g id="xtick_8">
     <g id="line2d_8">
      <g>
       <use xlink:href="#md8af936317" x="379.090996" y="198.907885" style="stroke: #000000; stroke-width: 2"/>
      </g>
     </g>
     <g id="text_8">
      <!-- 7 -->
      <g transform="translate(374.086153 224.791947) scale(0.18 -0.18)">
       <defs>
        <path id="Arial-BoldMT-37" d="M 272 3703 
L 272 4519 
L 3275 4519 
L 3275 3881 
Q 2903 3516 2518 2831 
Q 2134 2147 1932 1376 
Q 1731 606 1734 0 
L 888 0 
Q 909 950 1279 1937 
Q 1650 2925 2269 3703 
L 272 3703 
z
" transform="scale(0.015625)"/>
       </defs>
       <use xlink:href="#Arial-BoldMT-37"/>
      </g>
     </g>
    </g>
    <g id="xtick_9">
     <g id="line2d_9">
      <g>
       <use xlink:href="#md8af936317" x="271.636495" y="198.907885" style="stroke: #000000; stroke-width: 2"/>
      </g>
     </g>
     <g id="text_9">
      <!-- 8 -->
      <g transform="translate(266.631651 224.791947) scale(0.18 -0.18)">
       <defs>
        <path id="Arial-BoldMT-38" d="M 1025 2472 
Q 684 2616 529 2867 
Q 375 3119 375 3419 
Q 375 3931 733 4265 
Q 1091 4600 1750 4600 
Q 2403 4600 2764 4265 
Q 3125 3931 3125 3419 
Q 3125 3100 2959 2851 
Q 2794 2603 2494 2472 
Q 2875 2319 3073 2025 
Q 3272 1731 3272 1347 
Q 3272 713 2867 316 
Q 2463 -81 1791 -81 
Q 1166 -81 750 247 
Q 259 634 259 1309 
Q 259 1681 443 1992 
Q 628 2303 1025 2472 
z
M 1206 3356 
Q 1206 3094 1354 2947 
Q 1503 2800 1750 2800 
Q 2000 2800 2150 2948 
Q 2300 3097 2300 3359 
Q 2300 3606 2151 3754 
Q 2003 3903 1759 3903 
Q 1506 3903 1356 3753 
Q 1206 3603 1206 3356 
z
M 1125 1394 
Q 1125 1031 1311 828 
Q 1497 625 1775 625 
Q 2047 625 2225 820 
Q 2403 1016 2403 1384 
Q 2403 1706 2222 1901 
Q 2041 2097 1763 2097 
Q 1441 2097 1283 1875 
Q 1125 1653 1125 1394 
z
" transform="scale(0.015625)"/>
       </defs>
       <use xlink:href="#Arial-BoldMT-38"/>
      </g>
     </g>
    </g>
    <g id="xtick_10">
     <g id="line2d_10">
      <g>
       <use xlink:href="#md8af936317" x="164.181993" y="198.907885" style="stroke: #000000; stroke-width: 2"/>
      </g>
     </g>
     <g id="text_10">
      <!-- 9 -->
      <g transform="translate(159.177149 224.791947) scale(0.18 -0.18)">
       <defs>
        <path id="Arial-BoldMT-39" d="M 291 1059 
L 1141 1153 
Q 1172 894 1303 769 
Q 1434 644 1650 644 
Q 1922 644 2112 894 
Q 2303 1144 2356 1931 
Q 2025 1547 1528 1547 
Q 988 1547 595 1964 
Q 203 2381 203 3050 
Q 203 3747 617 4173 
Q 1031 4600 1672 4600 
Q 2369 4600 2816 4061 
Q 3263 3522 3263 2288 
Q 3263 1031 2797 475 
Q 2331 -81 1584 -81 
Q 1047 -81 715 205 
Q 384 491 291 1059 
z
M 2278 2978 
Q 2278 3403 2083 3637 
Q 1888 3872 1631 3872 
Q 1388 3872 1227 3680 
Q 1066 3488 1066 3050 
Q 1066 2606 1241 2398 
Q 1416 2191 1678 2191 
Q 1931 2191 2104 2391 
Q 2278 2591 2278 2978 
z
" transform="scale(0.015625)"/>
       </defs>
       <use xlink:href="#Arial-BoldMT-39"/>
      </g>
     </g>
    </g>
    <g id="xtick_11">
     <g id="line2d_11">
      <g>
       <use xlink:href="#md8af936317" x="56.727491" y="198.907885" style="stroke: #000000; stroke-width: 2"/>
      </g>
     </g>
     <g id="text_11">
      <!-- 10 -->
      <g transform="translate(46.717803 224.791947) scale(0.18 -0.18)">
       <use xlink:href="#Arial-BoldMT-31"/>
       <use xlink:href="#Arial-BoldMT-30" x="55.615234"/>
      </g>
     </g>
    </g>
    <g id="text_12">
     <!-- Chemical Shift / ppm -->
     <g transform="translate(504.992813 245.447573) scale(0.18 -0.18)">
      <defs>
       <path id="Arial-BoldMT-43" d="M 3397 1684 
L 4294 1400 
Q 4088 650 3608 286 
Q 3128 -78 2391 -78 
Q 1478 -78 890 545 
Q 303 1169 303 2250 
Q 303 3394 893 4026 
Q 1484 4659 2447 4659 
Q 3288 4659 3813 4163 
Q 4125 3869 4281 3319 
L 3366 3100 
Q 3284 3456 3026 3662 
Q 2769 3869 2400 3869 
Q 1891 3869 1573 3503 
Q 1256 3138 1256 2319 
Q 1256 1450 1568 1081 
Q 1881 713 2381 713 
Q 2750 713 3015 947 
Q 3281 1181 3397 1684 
z
" transform="scale(0.015625)"/>
       <path id="Arial-BoldMT-68" d="M 1334 4581 
L 1334 2897 
Q 1759 3394 2350 3394 
Q 2653 3394 2897 3281 
Q 3141 3169 3264 2994 
Q 3388 2819 3433 2606 
Q 3478 2394 3478 1947 
L 3478 0 
L 2600 0 
L 2600 1753 
Q 2600 2275 2550 2415 
Q 2500 2556 2373 2639 
Q 2247 2722 2056 2722 
Q 1838 2722 1666 2615 
Q 1494 2509 1414 2295 
Q 1334 2081 1334 1663 
L 1334 0 
L 456 0 
L 456 4581 
L 1334 4581 
z
" transform="scale(0.015625)"/>
       <path id="Arial-BoldMT-65" d="M 2381 1056 
L 3256 909 
Q 3088 428 2723 176 
Q 2359 -75 1813 -75 
Q 947 -75 531 491 
Q 203 944 203 1634 
Q 203 2459 634 2926 
Q 1066 3394 1725 3394 
Q 2466 3394 2894 2905 
Q 3322 2416 3303 1406 
L 1103 1406 
Q 1113 1016 1316 798 
Q 1519 581 1822 581 
Q 2028 581 2168 693 
Q 2309 806 2381 1056 
z
M 2431 1944 
Q 2422 2325 2234 2523 
Q 2047 2722 1778 2722 
Q 1491 2722 1303 2513 
Q 1116 2303 1119 1944 
L 2431 1944 
z
" transform="scale(0.015625)"/>
       <path id="Arial-BoldMT-6d" d="M 394 3319 
L 1203 3319 
L 1203 2866 
Q 1638 3394 2238 3394 
Q 2556 3394 2790 3262 
Q 3025 3131 3175 2866 
Q 3394 3131 3647 3262 
Q 3900 3394 4188 3394 
Q 4553 3394 4806 3245 
Q 5059 3097 5184 2809 
Q 5275 2597 5275 2122 
L 5275 0 
L 4397 0 
L 4397 1897 
Q 4397 2391 4306 2534 
Q 4184 2722 3931 2722 
Q 3747 2722 3584 2609 
Q 3422 2497 3350 2280 
Q 3278 2063 3278 1594 
L 3278 0 
L 2400 0 
L 2400 1819 
Q 2400 2303 2353 2443 
Q 2306 2584 2207 2653 
Q 2109 2722 1941 2722 
Q 1738 2722 1575 2612 
Q 1413 2503 1342 2297 
Q 1272 2091 1272 1613 
L 1272 0 
L 394 0 
L 394 3319 
z
" transform="scale(0.015625)"/>
       <path id="Arial-BoldMT-69" d="M 459 3769 
L 459 4581 
L 1338 4581 
L 1338 3769 
L 459 3769 
z
M 459 0 
L 459 3319 
L 1338 3319 
L 1338 0 
L 459 0 
z
" transform="scale(0.015625)"/>
       <path id="Arial-BoldMT-63" d="M 3353 2338 
L 2488 2181 
Q 2444 2441 2289 2572 
Q 2134 2703 1888 2703 
Q 1559 2703 1364 2476 
Q 1169 2250 1169 1719 
Q 1169 1128 1367 884 
Q 1566 641 1900 641 
Q 2150 641 2309 783 
Q 2469 925 2534 1272 
L 3397 1125 
Q 3263 531 2881 228 
Q 2500 -75 1859 -75 
Q 1131 -75 698 384 
Q 266 844 266 1656 
Q 266 2478 700 2936 
Q 1134 3394 1875 3394 
Q 2481 3394 2839 3133 
Q 3197 2872 3353 2338 
z
" transform="scale(0.015625)"/>
       <path id="Arial-BoldMT-61" d="M 1116 2306 
L 319 2450 
Q 453 2931 781 3162 
Q 1109 3394 1756 3394 
Q 2344 3394 2631 3255 
Q 2919 3116 3036 2902 
Q 3153 2688 3153 2116 
L 3144 1091 
Q 3144 653 3186 445 
Q 3228 238 3344 0 
L 2475 0 
Q 2441 88 2391 259 
Q 2369 338 2359 363 
Q 2134 144 1878 34 
Q 1622 -75 1331 -75 
Q 819 -75 523 203 
Q 228 481 228 906 
Q 228 1188 362 1408 
Q 497 1628 739 1745 
Q 981 1863 1438 1950 
Q 2053 2066 2291 2166 
L 2291 2253 
Q 2291 2506 2166 2614 
Q 2041 2722 1694 2722 
Q 1459 2722 1328 2630 
Q 1197 2538 1116 2306 
z
M 2291 1594 
Q 2122 1538 1756 1459 
Q 1391 1381 1278 1306 
Q 1106 1184 1106 997 
Q 1106 813 1243 678 
Q 1381 544 1594 544 
Q 1831 544 2047 700 
Q 2206 819 2256 991 
Q 2291 1103 2291 1419 
L 2291 1594 
z
" transform="scale(0.015625)"/>
       <path id="Arial-BoldMT-6c" d="M 459 0 
L 459 4581 
L 1338 4581 
L 1338 0 
L 459 0 
z
" transform="scale(0.015625)"/>
       <path id="Arial-BoldMT-20" transform="scale(0.015625)"/>
       <path id="Arial-BoldMT-53" d="M 231 1491 
L 1131 1578 
Q 1213 1125 1461 912 
Q 1709 700 2131 700 
Q 2578 700 2804 889 
Q 3031 1078 3031 1331 
Q 3031 1494 2936 1608 
Q 2841 1722 2603 1806 
Q 2441 1863 1863 2006 
Q 1119 2191 819 2459 
Q 397 2838 397 3381 
Q 397 3731 595 4036 
Q 794 4341 1167 4500 
Q 1541 4659 2069 4659 
Q 2931 4659 3367 4281 
Q 3803 3903 3825 3272 
L 2900 3231 
Q 2841 3584 2645 3739 
Q 2450 3894 2059 3894 
Q 1656 3894 1428 3728 
Q 1281 3622 1281 3444 
Q 1281 3281 1419 3166 
Q 1594 3019 2269 2859 
Q 2944 2700 3267 2529 
Q 3591 2359 3773 2064 
Q 3956 1769 3956 1334 
Q 3956 941 3737 597 
Q 3519 253 3119 86 
Q 2719 -81 2122 -81 
Q 1253 -81 787 320 
Q 322 722 231 1491 
z
" transform="scale(0.015625)"/>
       <path id="Arial-BoldMT-66" d="M 75 3319 
L 563 3319 
L 563 3569 
Q 563 3988 652 4194 
Q 741 4400 980 4529 
Q 1219 4659 1584 4659 
Q 1959 4659 2319 4547 
L 2200 3934 
Q 1991 3984 1797 3984 
Q 1606 3984 1523 3895 
Q 1441 3806 1441 3553 
L 1441 3319 
L 2097 3319 
L 2097 2628 
L 1441 2628 
L 1441 0 
L 563 0 
L 563 2628 
L 75 2628 
L 75 3319 
z
" transform="scale(0.015625)"/>
       <path id="Arial-BoldMT-74" d="M 1981 3319 
L 1981 2619 
L 1381 2619 
L 1381 1281 
Q 1381 875 1398 808 
Q 1416 741 1477 697 
Q 1538 653 1625 653 
Q 1747 653 1978 738 
L 2053 56 
Q 1747 -75 1359 -75 
Q 1122 -75 931 4 
Q 741 84 652 211 
Q 563 338 528 553 
Q 500 706 500 1172 
L 500 2619 
L 97 2619 
L 97 3319 
L 500 3319 
L 500 3978 
L 1381 4491 
L 1381 3319 
L 1981 3319 
z
" transform="scale(0.015625)"/>
       <path id="Arial-BoldMT-2f" d="M -9 -78 
L 1125 4659 
L 1784 4659 
L 638 -78 
L -9 -78 
z
" transform="scale(0.015625)"/>
       <path id="Arial-BoldMT-70" d="M 434 3319 
L 1253 3319 
L 1253 2831 
Q 1413 3081 1684 3237 
Q 1956 3394 2288 3394 
Q 2866 3394 3269 2941 
Q 3672 2488 3672 1678 
Q 3672 847 3265 386 
Q 2859 -75 2281 -75 
Q 2006 -75 1782 34 
Q 1559 144 1313 409 
L 1313 -1263 
L 434 -1263 
L 434 3319 
z
M 1303 1716 
Q 1303 1156 1525 889 
Q 1747 622 2066 622 
Q 2372 622 2575 867 
Q 2778 1113 2778 1672 
Q 2778 2194 2568 2447 
Q 2359 2700 2050 2700 
Q 1728 2700 1515 2451 
Q 1303 2203 1303 1716 
z
" transform="scale(0.015625)"/>
      </defs>
      <use xlink:href="#Arial-BoldMT-43"/>
      <use xlink:href="#Arial-BoldMT-68" x="72.216797"/>
      <use xlink:href="#Arial-BoldMT-65" x="133.300781"/>
      <use xlink:href="#Arial-BoldMT-6d" x="188.916016"/>
      <use xlink:href="#Arial-BoldMT-69" x="277.832031"/>
      <use xlink:href="#Arial-BoldMT-63" x="305.615234"/>
      <use xlink:href="#Arial-BoldMT-61" x="361.230469"/>
      <use xlink:href="#Arial-BoldMT-6c" x="416.845703"/>
      <use xlink:href="#Arial-BoldMT-20" x="444.628906"/>
      <use xlink:href="#Arial-BoldMT-53" x="472.412109"/>
      <use xlink:href="#Arial-BoldMT-68" x="539.111328"/>
      <use xlink:href="#Arial-BoldMT-69" x="600.195312"/>
      <use xlink:href="#Arial-BoldMT-66" x="627.978516"/>
      <use xlink:href="#Arial-BoldMT-74" x="661.279297"/>
      <use xlink:href="#Arial-BoldMT-20" x="694.580078"/>
      <use xlink:href="#Arial-BoldMT-2f" x="722.363281"/>
      <use xlink:href="#Arial-BoldMT-20" x="750.146484"/>
      <use xlink:href="#Arial-BoldMT-70" x="777.929688"/>
      <use xlink:href="#Arial-BoldMT-70" x="839.013672"/>
      <use xlink:href="#Arial-BoldMT-6d" x="900.097656"/>
     </g>
    </g>
   </g>
   <g id="matplotlib.axis_2"/>
   <g id="line2d_12">
    <path d="M 2.955871 189.964056 
L 3.97897 188.444643 
L 5.002069 187.385017 
L 5.411308 187.230654 
L 5.820548 187.269206 
L 6.229787 187.213859 
L 6.639026 187.518635 
L 7.252886 188.092038 
L 7.866745 188.38187 
L 8.275984 188.624638 
L 8.685224 188.519114 
L 9.299083 188.077095 
L 10.526801 186.945918 
L 11.14066 186.37467 
L 11.34528 186.444084 
L 11.5499 186.7163 
L 11.959139 187.833373 
L 12.368379 188.987968 
L 12.572999 189.094541 
L 12.982238 188.824749 
L 13.186858 188.973978 
L 13.800717 189.81101 
L 14.005337 189.795684 
L 14.823816 189.264077 
L 15.028435 189.253848 
L 15.437675 189.57748 
L 16.051534 190.207301 
L 16.460773 190.345556 
L 16.870013 190.288891 
L 17.279252 190.024786 
L 17.893111 189.444034 
L 18.302351 189.657849 
L 18.91621 189.998448 
L 19.325449 190.384834 
L 19.939309 191.287958 
L 20.143928 191.292138 
L 20.348548 191.021601 
L 20.757788 189.777019 
L 21.167027 188.378721 
L 21.371647 188.053409 
L 21.576266 188.021976 
L 22.394745 188.422236 
L 23.008605 188.037168 
L 23.213224 188.214224 
L 24.236323 190.313263 
L 24.645562 191.044428 
L 24.850182 191.191958 
L 25.054802 191.107066 
L 25.464041 190.202701 
L 26.0779 188.552132 
L 26.48714 188.088889 
L 26.69176 188.070644 
L 26.896379 188.205483 
L 27.714858 189.407467 
L 28.124098 189.451535 
L 28.533337 189.5466 
L 28.942577 190.143517 
L 29.351816 190.728372 
L 30.579534 191.76771 
L 30.988774 192.208107 
L 31.193394 192.087067 
L 31.602633 191.176594 
L 33.444211 185.73191 
L 33.64883 185.586879 
L 34.05807 185.670416 
L 35.285788 186.47401 
L 35.490408 186.533461 
L 35.899647 186.998899 
L 36.513507 187.851924 
L 36.922746 188.081503 
L 37.127366 187.973002 
L 37.331985 187.698038 
L 37.741225 186.546401 
L 38.355084 184.567066 
L 38.559704 184.421978 
L 38.764324 184.533342 
L 39.173563 185.175301 
L 39.582802 185.928738 
L 39.787422 186.121368 
L 39.992042 186.089552 
L 40.196662 185.838769 
L 40.605901 184.813975 
L 41.42438 182.111338 
L 42.038239 180.369865 
L 42.447479 178.026226 
L 43.061338 172.020677 
L 43.675197 165.946267 
L 43.879817 164.923304 
L 44.084436 164.670422 
L 44.289056 165.202048 
L 44.493676 166.526064 
L 44.902915 171.221472 
L 45.721394 181.220848 
L 46.130634 183.9386 
L 46.539873 185.33247 
L 46.744493 185.640586 
L 47.562972 186.028593 
L 47.972211 187.255179 
L 48.58607 189.231594 
L 49.813789 191.494959 
L 50.018409 191.572809 
L 50.223028 191.495627 
L 50.632268 190.994328 
L 51.246127 190.106873 
L 52.678465 189.445504 
L 54.110803 190.576471 
L 54.724662 190.566012 
L 55.338521 190.512153 
L 55.543141 190.737151 
L 56.157 191.819508 
L 56.36162 191.836761 
L 56.975479 191.633119 
L 57.589338 191.771985 
L 59.226296 192.49624 
L 59.430916 192.353157 
L 60.863254 190.253736 
L 61.272493 189.421132 
L 61.477113 189.283525 
L 61.681733 189.395977 
L 62.090972 190.067061 
L 62.704832 191.034866 
L 62.909451 191.042309 
L 63.318691 190.464687 
L 63.93255 189.382083 
L 64.546409 188.903725 
L 64.955649 188.841601 
L 65.364888 189.329159 
L 65.978747 190.492113 
L 66.183367 190.634662 
L 66.387987 190.516447 
L 67.411085 189.006271 
L 67.615705 189.191591 
L 68.024944 190.414893 
L 68.434184 191.660984 
L 68.638804 191.927875 
L 68.843423 191.940605 
L 69.661902 191.206406 
L 70.275761 190.547976 
L 70.480381 190.581929 
L 71.29886 191.390504 
L 71.50348 191.354166 
L 71.7081 191.166365 
L 72.117339 190.32563 
L 72.731198 188.860343 
L 73.140438 188.622157 
L 73.549677 188.380267 
L 73.958917 188.117728 
L 74.163536 188.198612 
L 74.572776 188.789479 
L 75.186635 189.891684 
L 75.595874 190.103304 
L 76.005114 189.930237 
L 77.028212 188.668343 
L 77.642072 189.056427 
L 78.460551 189.415673 
L 78.86979 189.108779 
L 79.688269 187.950825 
L 79.892889 188.00833 
L 80.302128 188.580092 
L 81.120607 190.083665 
L 81.325227 190.1447 
L 81.529846 190.007896 
L 82.143706 188.92783 
L 82.552945 188.274915 
L 82.962185 187.998558 
L 83.371424 187.904829 
L 84.394523 187.898474 
L 84.803762 187.752603 
L 85.213002 187.896107 
L 85.826861 188.568565 
L 86.64534 189.681782 
L 87.054579 189.48816 
L 87.463819 189.37943 
L 87.668438 189.544405 
L 88.486917 190.890618 
L 89.714636 191.121075 
L 90.123875 190.698064 
L 90.942354 189.272876 
L 91.760833 187.633548 
L 92.170072 187.292701 
L 92.579312 186.996494 
L 93.80703 185.732234 
L 94.01165 185.812622 
L 94.420889 186.409616 
L 95.034748 187.473593 
L 95.853227 188.070052 
L 97.080946 189.290988 
L 98.104044 191.456159 
L 98.717903 191.946312 
L 99.127143 191.951503 
L 99.945622 191.701998 
L 100.150242 191.728012 
L 100.354861 191.623023 
L 100.764101 190.770971 
L 101.17334 189.875862 
L 101.37796 189.743333 
L 101.58258 189.828378 
L 101.991819 190.225165 
L 102.196439 190.273126 
L 102.401059 190.082596 
L 103.219537 188.611011 
L 103.424157 188.654277 
L 104.242636 189.27425 
L 104.651876 189.259707 
L 105.470354 189.671533 
L 105.879594 189.11063 
L 106.493453 188.260983 
L 107.107312 187.671204 
L 107.311932 187.648778 
L 107.516552 187.787339 
L 108.74427 189.317001 
L 108.94889 189.34019 
L 109.15351 189.227166 
L 109.562749 188.549326 
L 109.971988 187.656031 
L 110.176608 187.410095 
L 110.381228 187.381257 
L 110.790467 187.756344 
L 111.199707 188.160746 
L 111.608946 188.266613 
L 112.427425 188.368148 
L 113.041284 188.547399 
L 113.450524 188.718748 
L 113.655144 188.623855 
L 114.064383 187.960253 
L 114.678242 186.721625 
L 115.087482 186.369651 
L 115.905961 186.457349 
L 116.3152 186.177422 
L 116.51982 186.166276 
L 116.929059 186.572052 
L 117.747538 187.621085 
L 118.770637 188.196493 
L 119.384496 188.153513 
L 119.793735 188.225809 
L 120.202975 187.99476 
L 120.816834 187.386029 
L 121.430693 187.256877 
L 121.635313 187.440346 
L 122.249172 188.437867 
L 122.453792 188.412541 
L 122.863031 187.837037 
L 123.88613 185.84627 
L 124.09075 185.845659 
L 124.499989 186.264623 
L 125.318468 187.445633 
L 125.523088 187.549858 
L 125.727707 187.454698 
L 126.546186 186.26512 
L 127.364665 186.779645 
L 127.978524 186.566098 
L 128.387764 186.344649 
L 128.797003 185.800866 
L 129.001623 185.691296 
L 129.410863 185.889899 
L 130.024722 186.486969 
L 131.25244 188.397597 
L 132.275539 189.314406 
L 132.684778 189.109084 
L 133.298637 188.392997 
L 133.912497 187.19462 
L 134.321736 186.50678 
L 134.935595 185.996492 
L 135.140215 185.972768 
L 135.549454 186.377304 
L 135.958694 186.824687 
L 136.163313 186.899674 
L 136.367933 186.831061 
L 136.981792 186.113276 
L 137.391032 185.656751 
L 137.800271 185.530806 
L 138.209511 185.457881 
L 138.61875 185.314052 
L 138.82337 185.35417 
L 139.232609 185.770691 
L 139.846469 186.49968 
L 140.051088 186.478533 
L 140.460328 186.097664 
L 141.074187 185.530329 
L 141.483426 185.390337 
L 141.892666 185.483894 
L 142.506525 185.804644 
L 142.915764 185.669271 
L 143.325004 185.252311 
L 143.938863 184.457286 
L 144.143483 184.39503 
L 145.166581 184.816418 
L 145.98506 185.382722 
L 146.3943 186.079704 
L 146.59892 186.201069 
L 146.803539 186.062871 
L 147.622018 184.888217 
L 147.826638 184.936943 
L 148.440497 185.376157 
L 149.054356 185.413602 
L 149.258976 185.197097 
L 149.668215 184.085463 
L 150.077455 182.913558 
L 150.282075 182.698808 
L 150.486694 182.757381 
L 150.895934 183.404436 
L 152.123652 186.05434 
L 152.532892 186.510234 
L 152.737511 186.534702 
L 153.96523 185.726852 
L 154.374469 185.4583 
L 154.783709 184.741698 
L 156.216047 181.190789 
L 156.420666 181.227891 
L 156.829906 181.665635 
L 158.671483 184.158885 
L 158.876103 183.950453 
L 159.694582 182.624279 
L 160.103822 181.904184 
L 160.717681 180.607078 
L 160.9223 180.444356 
L 161.945399 180.661205 
L 162.763878 181.290224 
L 163.582357 181.282093 
L 163.991596 181.774499 
L 164.605456 182.782288 
L 165.219315 183.573801 
L 165.628554 184.159305 
L 165.833174 184.134284 
L 166.651653 182.96528 
L 167.060892 183.017631 
L 167.470132 183.393997 
L 167.879371 183.747536 
L 168.083991 183.655105 
L 168.49323 182.974899 
L 169.10709 181.954685 
L 169.516329 181.295205 
L 169.925568 180.158379 
L 170.744047 177.104837 
L 171.357907 174.920371 
L 171.767146 174.427717 
L 171.971766 174.467301 
L 172.790245 175.140808 
L 172.994864 174.932032 
L 173.404104 173.870307 
L 174.427202 170.994718 
L 174.836442 170.474104 
L 175.450301 170.203816 
L 175.85954 170.216031 
L 176.26878 170.573635 
L 176.882639 171.734318 
L 177.496498 172.907331 
L 177.701118 173.094406 
L 177.905738 173.116336 
L 178.314977 172.822419 
L 178.519597 172.65128 
L 178.724217 172.648512 
L 178.928836 172.917789 
L 179.747315 174.962645 
L 179.951935 175.098496 
L 180.361174 174.952931 
L 180.770414 174.777592 
L 181.793513 175.19795 
L 182.202752 175.172089 
L 182.611991 174.651037 
L 183.43047 173.278066 
L 184.04433 172.82469 
L 185.272048 171.252658 
L 185.681287 169.945723 
L 186.295147 167.09506 
L 186.909006 164.414562 
L 187.318245 163.616789 
L 187.727485 163.391562 
L 188.136724 163.223342 
L 188.545964 162.86131 
L 188.750583 162.829933 
L 188.955203 162.99884 
L 189.364442 163.821424 
L 190.592161 168.178236 
L 191.20602 171.245463 
L 191.819879 174.779405 
L 192.229119 175.819602 
L 193.047598 176.190719 
L 193.456837 176.335654 
L 193.661457 176.190834 
L 194.070696 175.291202 
L 195.503034 171.271934 
L 195.912274 170.701565 
L 196.526133 170.154652 
L 196.935372 169.35102 
L 198.163091 165.938136 
L 198.77695 163.262601 
L 199.186189 160.766488 
L 200.209288 152.061108 
L 201.027767 142.393247 
L 202.050866 130.541511 
L 203.278584 117.764741 
L 203.892443 110.816846 
L 204.506302 106.506259 
L 204.710922 105.799447 
L 204.915542 105.636324 
L 205.120161 106.111953 
L 205.324781 107.341515 
L 205.734021 112.05244 
L 206.34788 122.705837 
L 207.575598 146.330084 
L 208.394077 156.951417 
L 209.212556 164.815013 
L 209.826415 168.465855 
L 210.235655 170.210133 
L 210.440274 170.733858 
L 210.644894 170.87488 
L 210.849514 170.653756 
L 211.258753 169.882207 
L 211.463373 169.716697 
L 211.667993 169.782447 
L 212.077232 170.398011 
L 213.100331 172.523044 
L 213.30495 172.696302 
L 213.50957 172.706093 
L 214.328049 172.356696 
L 214.737289 172.531404 
L 215.351148 173.026653 
L 215.760387 173.446152 
L 216.169627 173.490926 
L 216.578866 173.39338 
L 216.988106 172.971362 
L 217.601965 172.075032 
L 217.806584 172.023368 
L 218.011204 172.241171 
L 218.420444 173.594102 
L 219.034303 176.068457 
L 219.443542 177.008112 
L 219.852782 177.340943 
L 221.28512 177.927783 
L 221.694359 178.796191 
L 222.308218 180.386641 
L 223.945176 182.95421 
L 224.149796 182.92436 
L 224.559035 182.39033 
L 225.377514 180.877501 
L 225.786754 180.61498 
L 226.400613 180.714606 
L 227.014472 180.951724 
L 227.832951 180.906091 
L 228.242191 181.273352 
L 228.65143 181.670197 
L 228.85605 181.616585 
L 229.265289 180.92676 
L 230.083768 178.680553 
L 230.288388 178.607742 
L 230.493008 178.869251 
L 231.106867 180.165383 
L 231.311486 180.219128 
L 231.516106 179.999874 
L 232.743825 177.416827 
L 233.766923 174.467091 
L 234.380782 173.360801 
L 236.22236 168.728032 
L 236.631599 168.470015 
L 237.859318 169.163181 
L 238.268557 170.37715 
L 238.677797 171.534493 
L 238.882416 171.737811 
L 239.496276 171.884025 
L 240.110135 172.366105 
L 240.314754 172.333678 
L 240.723994 171.961932 
L 241.542473 170.985232 
L 241.747093 171.066861 
L 242.770191 172.246114 
L 243.179431 173.215256 
L 243.79329 174.822119 
L 244.816388 176.768436 
L 245.839487 179.391735 
L 246.044107 179.46403 
L 246.657966 179.107609 
L 247.067205 179.334803 
L 248.090304 180.199222 
L 248.499544 180.253806 
L 249.113403 180.024933 
L 249.522642 179.672043 
L 249.931882 178.719525 
L 250.545741 177.252291 
L 251.978079 174.544043 
L 252.387318 173.606431 
L 252.796558 173.078394 
L 253.819656 172.319746 
L 254.433516 171.348295 
L 254.638135 171.277813 
L 255.456614 171.578504 
L 255.865854 170.813196 
L 257.298192 166.651876 
L 257.912051 164.133624 
L 258.52591 160.857927 
L 259.958248 151.569848 
L 260.776727 147.259432 
L 261.185967 146.218624 
L 261.595206 145.897645 
L 261.799826 145.984446 
L 262.209065 146.646979 
L 263.436784 149.750849 
L 263.641403 149.63857 
L 263.846023 149.017757 
L 264.255262 146.34665 
L 265.073741 140.613297 
L 265.482981 139.374841 
L 265.687601 139.352186 
L 265.89222 139.866196 
L 266.30146 142.25732 
L 266.710699 144.662109 
L 267.119939 145.650545 
L 267.324558 145.61873 
L 267.938418 144.764426 
L 268.347657 143.951499 
L 268.756896 142.592976 
L 269.166136 140.548426 
L 269.779995 135.710602 
L 271.212333 122.515993 
L 271.621573 121.449402 
L 271.826192 121.251504 
L 272.030812 121.228526 
L 272.235432 121.421594 
L 272.644671 122.555691 
L 273.46315 125.97054 
L 273.66777 126.289974 
L 273.87239 126.174125 
L 274.077009 125.598336 
L 274.486249 123.180721 
L 275.304728 116.789932 
L 275.713967 115.489447 
L 276.532446 113.561547 
L 276.737066 113.806605 
L 276.941686 114.695167 
L 277.350925 118.146661 
L 278.169404 125.977411 
L 278.987883 130.926694 
L 280.420221 138.257635 
L 282.057179 147.934389 
L 282.466418 149.125896 
L 282.875658 149.724588 
L 283.489517 150.491919 
L 284.103376 151.391971 
L 284.512615 151.705374 
L 284.717235 151.721863 
L 284.921855 151.600365 
L 285.331094 150.849676 
L 285.740334 149.204967 
L 286.149573 146.254143 
L 287.377292 135.169529 
L 287.786531 133.614616 
L 288.60501 132.34318 
L 289.832728 128.318416 
L 290.241968 127.907162 
L 290.446587 127.891322 
L 290.651207 128.120328 
L 291.060447 129.418598 
L 291.674306 132.464735 
L 292.083545 135.463579 
L 293.515883 148.381028 
L 293.925123 149.921302 
L 294.334362 150.419509 
L 295.357461 151.149776 
L 296.17594 150.6117 
L 296.789799 150.990012 
L 296.994419 150.852959 
L 297.403658 150.088032 
L 298.835996 146.415148 
L 299.859095 144.105843 
L 300.472954 142.839484 
L 300.882194 142.304385 
L 301.496053 141.805872 
L 301.905292 140.966016 
L 302.314532 139.46376 
L 302.928391 135.982284 
L 303.54225 131.032581 
L 304.565349 120.972131 
L 305.179208 112.596147 
L 305.997687 97.712894 
L 306.611546 82.888577 
L 307.839264 45.435931 
L 308.862363 15.248438 
L 309.271602 7.359343 
L 309.680842 3.360822 
L 309.885462 3.00024 
L 310.090081 3.707376 
L 310.499321 7.719581 
L 311.11318 18.023389 
L 312.954757 53.682554 
L 313.568617 61.849228 
L 314.387096 69.070771 
L 315.000955 72.611889 
L 315.410194 73.892353 
L 315.819434 74.419188 
L 316.228673 74.751581 
L 317.865631 76.84728 
L 319.093349 80.608989 
L 319.502589 82.67398 
L 320.116448 87.786215 
L 321.139547 98.585157 
L 321.958025 107.017043 
L 322.776504 114.854206 
L 325.8458 149.228461 
L 326.25504 151.189665 
L 326.459659 151.445697 
L 327.073519 151.226653 
L 327.278138 151.400483 
L 327.482758 151.845804 
L 328.710476 155.84465 
L 329.324336 157.049058 
L 331.165913 161.57054 
L 331.575153 162.262694 
L 331.984392 162.42576 
L 332.393631 162.241337 
L 332.802871 161.861441 
L 333.21211 161.157912 
L 333.62135 160.341722 
L 333.82597 160.121266 
L 334.030589 160.107295 
L 334.849068 160.667855 
L 335.053688 160.676729 
L 335.258308 160.80069 
L 335.667547 161.683335 
L 336.281406 163.148623 
L 336.690646 164.254988 
L 337.713744 168.567065 
L 338.941463 175.685278 
L 339.350702 176.467229 
L 341.19228 178.787088 
L 341.601519 178.955002 
L 341.806139 179.178493 
L 342.624618 180.683859 
L 342.829238 180.625668 
L 343.238477 180.061654 
L 343.852336 178.936183 
L 344.056956 178.962789 
L 344.466195 179.956626 
L 344.875435 180.94159 
L 345.693914 182.010624 
L 345.898533 182.071068 
L 346.103153 181.869659 
L 346.512393 180.686837 
L 347.126252 178.734698 
L 347.740111 177.875012 
L 348.14935 177.474675 
L 348.35397 177.497921 
L 349.172449 178.157916 
L 349.581689 178.255405 
L 349.990928 178.734087 
L 350.604787 180.105531 
L 351.627886 182.468446 
L 352.037125 183.064219 
L 352.446365 184.178295 
L 353.060224 185.889327 
L 353.674083 187.536308 
L 354.492562 189.781714 
L 354.901801 190.508698 
L 355.106421 190.703943 
L 355.311041 190.742171 
L 355.9249 190.399758 
L 356.33414 189.806582 
L 357.152618 188.028789 
L 357.357238 187.88143 
L 357.561858 187.884885 
L 357.766478 188.08929 
L 358.175717 189.206535 
L 358.789576 191.276564 
L 359.198816 191.820138 
L 359.608055 191.845827 
L 360.017295 191.682608 
L 360.426534 191.809889 
L 360.631154 191.894609 
L 360.835774 191.846705 
L 361.245013 191.266239 
L 361.858872 190.089925 
L 362.063492 190.021694 
L 362.268112 190.258812 
L 363.086591 192.378693 
L 363.29121 192.514849 
L 363.70045 192.307161 
L 364.109689 191.876077 
L 364.314309 191.807484 
L 364.928168 192.19887 
L 365.132788 192.114836 
L 365.542027 191.547597 
L 365.951267 190.854623 
L 366.155886 190.690659 
L 366.565126 190.740052 
L 366.974365 190.911211 
L 367.178985 190.885656 
L 367.792844 190.535361 
L 368.611323 190.964994 
L 369.225182 190.733602 
L 369.839041 190.937454 
L 370.452901 191.332771 
L 371.06676 191.813973 
L 371.885239 191.918848 
L 372.294478 191.97223 
L 372.703718 191.786967 
L 373.112957 191.913237 
L 373.522197 192.051835 
L 373.931436 192.093823 
L 374.340675 192.383693 
L 375.159154 193.30869 
L 375.568394 193.374726 
L 375.977633 193.067087 
L 377.000732 192.023856 
L 377.205352 192.024428 
L 377.614591 192.453604 
L 378.22845 193.295483 
L 378.43307 193.420664 
L 378.63769 193.294567 
L 379.046929 192.219253 
L 379.456169 190.986713 
L 379.660788 190.693522 
L 379.865408 190.68333 
L 380.274648 190.967112 
L 380.479267 190.885942 
L 381.093126 190.209934 
L 381.297746 190.358076 
L 382.116225 191.850693 
L 382.525465 192.091838 
L 383.139324 192.281185 
L 383.753183 192.745669 
L 384.162422 192.950112 
L 384.571662 193.35606 
L 384.776282 193.344361 
L 384.980901 193.056208 
L 386.004 190.703656 
L 386.413239 190.800038 
L 387.027099 191.007249 
L 387.436338 191.167319 
L 388.459437 191.644036 
L 388.868676 191.922455 
L 389.277916 192.635736 
L 389.891775 193.951222 
L 390.096394 193.95292 
L 390.301014 193.625642 
L 390.914873 191.699536 
L 391.324113 190.573188 
L 391.528733 190.377829 
L 391.937972 190.522135 
L 392.756451 191.019349 
L 393.16569 192.146327 
L 393.77955 194.080087 
L 394.188789 194.345623 
L 394.802648 194.276381 
L 395.621127 193.937843 
L 396.234986 193.518687 
L 396.644226 193.497369 
L 397.667324 193.811287 
L 398.076564 194.411296 
L 398.485803 194.876027 
L 398.690423 194.792051 
L 399.099662 194.174751 
L 399.918141 192.761395 
L 400.122761 192.655776 
L 400.327381 192.724999 
L 400.532001 193.000211 
L 401.350479 195.184429 
L 401.555099 195.238365 
L 401.759719 195.003747 
L 402.373578 193.470516 
L 403.601296 189.626606 
L 403.805916 189.594962 
L 404.010536 189.789424 
L 404.419775 190.710413 
L 405.033634 192.45013 
L 405.442874 192.881385 
L 406.261353 193.217862 
L 406.465973 193.200552 
L 406.670592 193.058556 
L 407.079832 192.35037 
L 408.10293 189.75049 
L 408.51217 189.568491 
L 408.921409 189.599982 
L 409.330649 189.947776 
L 410.149128 191.256372 
L 410.353747 191.281126 
L 410.762987 190.968162 
L 411.172226 190.482857 
L 411.581466 190.409301 
L 411.990705 190.758432 
L 413.423043 192.731354 
L 413.627663 192.602604 
L 414.855381 191.174858 
L 415.060001 191.124758 
L 415.264621 191.231141 
L 415.67386 191.974176 
L 416.287719 193.198242 
L 416.696959 193.449636 
L 417.106198 193.399957 
L 417.515438 192.993818 
L 418.538536 191.481504 
L 418.947776 191.482516 
L 420.175494 192.164516 
L 421.607832 191.818649 
L 422.426311 190.726349 
L 422.630931 190.866093 
L 423.24479 191.643635 
L 423.44941 191.601113 
L 423.858649 190.950584 
L 424.472509 189.803757 
L 424.677128 189.664452 
L 424.881748 189.700161 
L 425.086368 189.90199 
L 425.495607 190.899244 
L 426.314086 193.757943 
L 426.518706 194.064895 
L 426.723326 194.104611 
L 427.337185 193.683949 
L 427.541804 193.757523 
L 428.155664 194.417289 
L 428.360283 194.386275 
L 429.588002 193.04552 
L 429.997241 191.86663 
L 430.406481 190.510168 
L 430.6111 190.180142 
L 430.81572 190.222149 
L 431.22496 191.082484 
L 431.838819 192.226047 
L 432.248058 192.455283 
L 432.452678 192.315978 
L 432.861917 191.519694 
L 433.271157 190.556679 
L 433.475777 190.32794 
L 433.680396 190.469382 
L 434.089636 191.720416 
L 434.498875 192.722728 
L 434.703495 192.677075 
L 435.317354 192.042808 
L 435.931213 191.80548 
L 436.545072 191.351837 
L 437.363551 190.596663 
L 437.772791 190.531792 
L 438.18203 190.798511 
L 438.59127 191.08737 
L 439.205129 191.200051 
L 439.614368 191.036125 
L 439.818988 190.944534 
L 440.023608 191.028529 
L 440.432847 191.730722 
L 440.842087 192.313612 
L 441.251326 192.20742 
L 441.660566 192.212306 
L 442.479045 192.514944 
L 443.911383 191.865561 
L 444.525242 192.134265 
L 444.934481 192.108156 
L 445.75296 192.648523 
L 446.1622 192.293973 
L 446.571439 191.855083 
L 447.389918 191.366629 
L 448.003777 190.079962 
L 448.617636 188.690807 
L 448.822256 188.473614 
L 449.026876 188.524019 
L 449.845355 189.472109 
L 450.663834 190.156171 
L 451.073073 191.067941 
L 451.686932 192.546187 
L 451.891552 192.765995 
L 452.096172 192.788878 
L 452.505411 192.363596 
L 452.914651 191.961084 
L 453.32389 192.127872 
L 454.142369 192.645164 
L 455.165468 193.944484 
L 455.370087 193.868715 
L 455.779327 193.270538 
L 456.393186 192.098232 
L 457.416285 191.66106 
L 457.620904 191.777577 
L 458.439383 192.886577 
L 458.848623 192.951009 
L 459.257862 193.069549 
L 460.48558 194.400322 
L 460.6902 194.394863 
L 461.304059 193.878525 
L 461.713299 193.328806 
L 462.122538 192.605009 
L 462.327158 192.486507 
L 462.531778 192.62606 
L 463.554876 194.210192 
L 463.964116 194.322033 
L 464.373355 194.265407 
L 465.191834 193.764184 
L 465.601074 193.939121 
L 466.010313 194.106386 
L 466.419553 194.175132 
L 466.828792 194.368392 
L 467.033412 194.269395 
L 467.442651 193.844992 
L 467.851891 193.776131 
L 468.26113 193.60837 
L 468.874989 192.89047 
L 469.079609 192.900356 
L 469.488848 193.630166 
L 469.693468 193.984678 
L 469.898088 194.073827 
L 470.307327 193.705267 
L 470.921187 192.813517 
L 471.330426 192.246755 
L 471.535046 192.265344 
L 472.148905 192.790653 
L 472.353525 192.790004 
L 473.376623 192.225818 
L 473.990482 192.152454 
L 474.808961 191.929097 
L 475.218201 192.179689 
L 475.83206 192.489503 
L 476.03668 192.459348 
L 476.445919 191.996735 
L 477.878257 189.474819 
L 478.287497 189.37859 
L 478.696736 189.695829 
L 479.310595 190.360271 
L 479.719835 190.694419 
L 480.947553 192.264047 
L 481.152173 192.400107 
L 481.356793 192.401118 
L 481.561412 192.192304 
L 482.175271 191.255169 
L 482.99375 191.046107 
L 483.60761 190.742763 
L 483.812229 190.891419 
L 484.221469 191.899457 
L 484.630708 193.065522 
L 485.039948 193.456412 
L 485.449187 193.36127 
L 486.063046 192.788439 
L 487.495384 190.992572 
L 487.700004 190.894034 
L 488.109244 191.088744 
L 488.518483 191.225091 
L 489.132342 190.791469 
L 489.541582 190.570249 
L 489.746201 190.63033 
L 490.56468 191.560213 
L 490.97392 191.766889 
L 491.792399 192.837756 
L 491.997018 192.784355 
L 492.406258 192.042445 
L 493.020117 190.898023 
L 493.224737 190.673387 
L 493.429356 190.658672 
L 493.838596 191.199764 
L 494.657075 192.698966 
L 494.861695 192.836725 
L 495.066314 192.819262 
L 495.475554 192.402474 
L 495.884793 191.39123 
L 496.907892 187.740751 
L 497.726371 186.848162 
L 497.93099 186.718571 
L 498.13561 186.724641 
L 498.54485 187.095071 
L 498.954089 187.38954 
L 499.158709 187.278196 
L 500.181807 185.928815 
L 500.591047 184.895107 
L 501.000286 183.374052 
L 501.409526 180.634829 
L 502.023385 173.965696 
L 503.660343 154.517026 
L 503.864963 153.440243 
L 504.069582 152.980722 
L 504.274202 153.148693 
L 504.478822 153.90778 
L 504.888061 156.777777 
L 507.343498 178.248095 
L 507.957357 181.360153 
L 509.185075 185.906504 
L 509.798935 187.544648 
L 510.208174 188.119827 
L 510.617414 188.331618 
L 511.231273 188.20741 
L 513.07285 188.728215 
L 513.48209 188.143951 
L 514.505188 185.950095 
L 514.709808 186.036705 
L 515.119048 187.01829 
L 515.528287 188.174774 
L 515.937526 188.65046 
L 516.142146 188.667427 
L 516.960625 188.298562 
L 517.983724 188.61124 
L 518.802203 188.55343 
L 519.211442 188.595494 
L 519.825301 188.245505 
L 520.234541 188.407311 
L 520.64378 188.543486 
L 521.257639 188.393455 
L 521.666879 188.637406 
L 522.485358 189.30097 
L 523.099217 189.431762 
L 523.508456 189.182773 
L 524.122315 188.409945 
L 524.736175 187.993099 
L 525.759273 186.804151 
L 526.168513 186.752257 
L 526.577752 186.94796 
L 526.986992 187.69048 
L 527.805471 189.433327 
L 528.623949 191.082446 
L 528.828569 191.047863 
L 529.237809 190.024786 
L 529.647048 188.809576 
L 529.851668 188.476458 
L 530.056288 188.385917 
L 530.260907 188.526309 
L 530.670147 189.332174 
L 531.284006 190.808264 
L 531.693245 191.426881 
L 532.102485 191.667606 
L 532.716344 191.657281 
L 533.125583 191.453105 
L 533.534823 191.194306 
L 534.148682 191.379569 
L 534.762541 191.541528 
L 535.171781 191.267556 
L 535.78564 190.386208 
L 536.399499 189.569063 
L 536.808739 189.264116 
L 537.422598 189.081277 
L 538.241077 188.883666 
L 538.854936 188.265029 
L 539.264175 187.426051 
L 539.673415 186.342549 
L 539.878034 186.125586 
L 540.082654 186.292049 
L 540.491894 187.454049 
L 541.105753 189.214417 
L 541.514992 189.604906 
L 541.924232 189.606433 
L 542.333471 189.076181 
L 542.742711 188.443459 
L 543.15195 188.304269 
L 544.175049 188.730543 
L 544.993528 189.448958 
L 545.402767 189.241595 
L 546.016626 188.62605 
L 546.425866 187.794534 
L 547.039725 186.312967 
L 547.244345 186.101672 
L 547.448964 186.096786 
L 547.653584 186.354993 
L 548.676683 188.622576 
L 549.085922 188.735372 
L 549.495162 188.666301 
L 549.904401 188.816447 
L 550.9275 189.615918 
L 551.132119 189.635156 
L 551.336739 189.773984 
L 552.359838 191.211769 
L 552.564458 191.233412 
L 552.973697 190.868021 
L 553.996796 189.922431 
L 554.201415 189.89052 
L 554.610655 190.227207 
L 555.019894 190.541983 
L 556.042993 190.843706 
L 556.656852 190.875827 
L 557.066092 191.125999 
L 557.88457 191.277824 
L 558.08919 191.408636 
L 558.29381 191.398062 
L 558.907669 190.7954 
L 559.112289 190.838362 
L 559.521528 191.435871 
L 560.135387 192.521471 
L 560.340007 192.473968 
L 560.749247 191.700052 
L 561.363106 190.322329 
L 561.567725 190.156075 
L 562.181585 190.03973 
L 562.590824 189.354581 
L 563.204683 188.239989 
L 564.227782 187.152308 
L 564.432402 187.180077 
L 564.637021 187.455309 
L 565.4555 189.104542 
L 565.86474 189.139048 
L 566.273979 189.021482 
L 567.092458 188.585436 
L 567.501698 188.816676 
L 567.910937 189.06263 
L 569.138655 189.220753 
L 569.343275 189.055454 
L 569.752515 188.14605 
L 570.161754 187.249148 
L 570.366374 187.119252 
L 570.775613 187.323085 
L 571.184853 187.919162 
L 572.207951 189.967167 
L 572.617191 190.225031 
L 573.02643 190.101796 
L 573.23105 189.875652 
L 573.640289 188.896109 
L 574.458768 186.563292 
L 575.481867 184.853768 
L 575.891106 184.665757 
L 576.300346 184.43654 
L 576.914205 183.96156 
L 577.323444 184.035517 
L 577.732684 184.545748 
L 578.551163 185.898831 
L 578.960402 186.094782 
L 579.369642 186.025139 
L 579.778881 185.566267 
L 580.39274 184.474387 
L 580.80198 184.279658 
L 581.211219 184.443049 
L 581.825078 185.172266 
L 582.438938 185.790273 
L 582.848177 185.644536 
L 583.257417 185.163296 
L 584.280515 183.065039 
L 585.098994 180.601563 
L 585.508234 180.014971 
L 586.940572 178.802738 
L 587.145191 178.319684 
L 587.759051 175.619796 
L 588.16829 174.143993 
L 588.986769 172.089308 
L 590.214487 166.714075 
L 591.032966 162.614726 
L 591.851445 158.103435 
L 593.283783 147.060237 
L 593.897642 142.799424 
L 594.511502 140.275294 
L 594.920741 139.326612 
L 595.125361 139.205896 
L 595.32998 139.384174 
L 595.5346 139.912937 
L 595.94384 142.036348 
L 596.966938 148.451987 
L 597.785417 151.617046 
L 598.399276 154.109361 
L 599.831614 162.151445 
L 600.445474 166.148439 
L 600.854713 167.639702 
L 601.263952 168.207189 
L 601.877812 168.817085 
L 602.491671 169.368368 
L 602.696291 169.393542 
L 602.90091 169.216314 
L 603.31015 168.123957 
L 604.128629 165.170977 
L 604.333248 165.008197 
L 604.537868 165.202487 
L 605.151727 166.716595 
L 605.970206 168.927857 
L 606.379446 169.500707 
L 606.993305 169.633408 
L 607.402544 170.378811 
L 608.016403 171.830223 
L 608.425643 172.207829 
L 608.834882 172.289286 
L 609.244122 172.954128 
L 609.653361 173.551198 
L 609.857981 173.654584 
L 610.062601 173.628513 
L 610.47184 173.222031 
L 610.88108 172.743768 
L 611.290319 172.657864 
L 611.699559 172.704547 
L 612.108798 172.482774 
L 612.518037 172.130113 
L 613.336516 171.99724 
L 613.745756 171.696338 
L 613.950376 171.70401 
L 614.973474 172.255714 
L 615.178094 172.281422 
L 615.382714 172.446435 
L 615.791953 173.338891 
L 617.428911 178.621273 
L 617.83815 179.175114 
L 618.45201 179.416756 
L 618.861249 180.3537 
L 619.679728 182.689609 
L 620.088967 183.092828 
L 620.293587 183.049408 
L 621.112066 182.274366 
L 622.135165 183.426976 
L 622.749024 183.677683 
L 623.362883 183.933886 
L 624.385982 184.040689 
L 624.795221 183.827657 
L 625.6137 183.050992 
L 626.227559 182.604488 
L 626.432179 182.602617 
L 626.636799 182.79685 
L 627.659897 184.819681 
L 627.864517 184.855696 
L 628.069137 184.682571 
L 628.682996 183.445623 
L 629.501475 181.59937 
L 630.319954 178.917518 
L 630.524573 178.610795 
L 630.933813 178.531037 
L 631.547672 178.63658 
L 631.956912 179.008575 
L 634.207729 182.472168 
L 634.412348 182.393173 
L 635.026207 181.764803 
L 635.640067 181.604237 
L 636.253926 181.539843 
L 636.458545 181.401893 
L 637.072405 180.558792 
L 637.277024 180.592249 
L 638.095503 181.394621 
L 638.300123 181.292476 
L 638.709362 180.62019 
L 640.141701 177.75609 
L 640.55094 177.40467 
L 640.960179 177.474179 
L 641.574039 177.948548 
L 641.983278 178.131425 
L 642.392518 177.662724 
L 642.801757 177.07764 
L 643.210996 176.663581 
L 643.620236 175.767499 
L 644.234095 174.437489 
L 644.643335 174.089485 
L 644.847954 174.163632 
L 645.461813 174.830936 
L 645.871053 174.874146 
L 646.689532 174.462797 
L 647.098771 174.967264 
L 647.508011 175.378766 
L 647.71263 175.207435 
L 648.12187 174.097023 
L 648.735729 172.239034 
L 649.758828 171.175648 
L 649.963447 171.204296 
L 650.577307 171.682177 
L 650.781926 171.712446 
L 650.986546 171.56066 
L 652.828124 168.780097 
L 653.237363 168.76981 
L 654.260462 169.039488 
L 654.465081 168.889571 
L 654.874321 167.880217 
L 655.28356 166.643516 
L 655.6928 166.069311 
L 656.102039 165.887751 
L 656.306659 165.626222 
L 656.715898 164.577056 
L 659.580575 155.632859 
L 661.012913 148.794553 
L 662.649871 137.683143 
L 663.26373 131.563958 
L 663.877589 122.653161 
L 665.105307 100.900607 
L 665.719166 86.292376 
L 666.333026 67.202494 
L 667.151505 33.835208 
L 667.867966 -1 
M 670.872723 -1 
L 672.266998 50.718428 
L 673.085477 72.632273 
L 673.699336 83.276947 
L 674.517815 96.632332 
L 675.745533 119.566677 
L 676.359392 126.495448 
L 676.768632 128.964269 
L 677.177871 129.867451 
L 677.587111 130.244732 
L 677.79173 130.614513 
L 677.99635 131.316248 
L 678.405589 134.110418 
L 679.837928 147.248591 
L 680.451787 150.604772 
L 680.861026 151.916974 
L 681.065646 152.179457 
L 681.270266 152.163463 
L 681.474885 151.862294 
L 682.293364 149.582191 
L 682.702604 148.018289 
L 683.316463 145.38228 
L 683.521083 145.133596 
L 683.725702 145.441349 
L 684.134942 147.509738 
L 684.953421 154.49212 
L 685.56728 159.003029 
L 686.181139 162.037256 
L 686.794998 164.188724 
L 687.408857 165.351678 
L 688.022717 166.224228 
L 688.636576 166.541085 
L 689.455055 167.670849 
L 689.659674 167.560268 
L 690.478153 166.411952 
L 690.887393 165.381394 
L 691.910491 161.354474 
L 692.319731 160.637852 
L 692.524351 160.477382 
L 692.72897 160.46719 
L 692.93359 160.626057 
L 693.34283 161.397111 
L 693.956689 162.698034 
L 694.570548 163.649521 
L 695.184407 165.116984 
L 696.002886 168.083515 
L 696.207506 168.203029 
L 696.412125 167.958124 
L 697.435224 165.450674 
L 697.639844 165.445101 
L 697.844464 165.718272 
L 698.458323 167.410504 
L 699.072182 169.133293 
L 699.481421 169.551875 
L 699.686041 169.475075 
L 700.50452 168.502957 
L 700.70914 168.511297 
L 701.118379 168.983204 
L 701.936858 170.37381 
L 702.346098 171.071213 
L 702.959957 171.632993 
L 703.164576 171.526535 
L 703.573816 170.781629 
L 704.187675 169.553956 
L 704.392295 169.388408 
L 704.801534 169.471888 
L 705.006154 169.514468 
L 705.210774 169.405642 
L 705.620013 168.76271 
L 706.233872 167.786832 
L 707.256971 167.259271 
L 707.66621 166.204264 
L 708.28007 164.250179 
L 708.484689 163.991571 
L 708.893929 163.931451 
L 709.303168 164.037891 
L 709.507788 164.215749 
L 709.917027 165.097727 
L 710.530887 166.757247 
L 710.940126 167.213752 
L 711.144746 167.169836 
L 711.553985 166.673175 
L 711.963225 166.100745 
L 712.372464 165.925502 
L 713.190943 165.83101 
L 713.600182 166.053909 
L 713.804802 165.980907 
L 714.214042 165.272263 
L 714.623281 164.109653 
L 715.23714 162.098292 
L 715.64638 161.491736 
L 715.850999 161.491278 
L 716.055619 161.777293 
L 717.283338 164.547053 
L 717.897197 165.242223 
L 718.306436 165.537933 
L 718.511056 165.546751 
L 718.715676 165.39359 
L 719.124915 164.619368 
L 719.943394 162.592739 
L 720.352633 162.130394 
L 720.761873 161.720438 
L 721.375732 160.734158 
L 722.194211 160.246944 
L 722.398831 160.266544 
L 723.21731 161.008893 
L 723.626549 160.905259 
L 724.240408 160.556777 
L 724.854267 160.605712 
L 725.672746 160.893407 
L 726.081986 160.980914 
L 726.491225 160.550364 
L 727.105084 159.767287 
L 727.514324 159.432414 
L 727.718944 159.029691 
L 728.128183 157.432676 
L 728.946662 153.849035 
L 729.355901 152.976123 
L 729.765141 152.641211 
L 730.379 152.412548 
L 730.58362 152.547138 
L 730.78824 152.894589 
L 731.197479 154.235745 
L 731.811338 156.385093 
L 732.220578 156.894561 
L 733.039057 157.179126 
L 733.857535 157.49144 
L 734.266775 157.568336 
L 734.880634 157.40651 
L 735.494493 157.145401 
L 736.108352 157.265602 
L 736.517592 157.026804 
L 736.926831 156.541652 
L 737.336071 155.475327 
L 738.768409 149.168113 
L 739.177648 148.01827 
L 739.382268 147.688702 
L 739.586888 147.702215 
L 739.791508 148.129577 
L 741.428465 154.109552 
L 741.837705 154.645834 
L 742.451564 155.222712 
L 743.474663 156.434391 
L 743.679282 156.311729 
L 745.11162 154.286054 
L 745.31624 154.233016 
L 745.930099 154.651694 
L 746.134719 154.551151 
L 746.953198 153.383502 
L 747.362437 153.115065 
L 747.771677 152.318781 
L 748.180916 151.692166 
L 748.385536 151.722245 
L 748.794776 151.991102 
L 748.999395 151.913004 
L 749.613254 151.21419 
L 749.817874 151.367752 
L 750.227114 152.477686 
L 750.840973 154.813806 
L 751.045593 155.213703 
L 751.250212 155.35465 
L 752.068691 155.413986 
L 752.477931 155.584286 
L 752.68255 155.420685 
L 753.501029 154.213338 
L 753.705649 154.30241 
L 754.524128 155.317357 
L 754.728748 155.095145 
L 755.137987 153.737099 
L 755.751846 151.447548 
L 755.956466 151.170102 
L 756.161086 151.146112 
L 756.365705 151.328531 
L 757.593424 153.278322 
L 758.207283 153.516528 
L 759.025762 154.306705 
L 759.435001 154.415091 
L 759.844241 154.155357 
L 760.4581 153.148789 
L 760.867339 152.663655 
L 761.071959 152.688714 
L 762.095058 153.592793 
L 762.504297 153.547484 
L 762.913537 153.122737 
L 763.322776 152.691596 
L 763.527396 152.813572 
L 764.550494 154.24523 
L 764.959734 154.568824 
L 765.164354 154.582871 
L 765.573593 154.225324 
L 767.005931 152.701941 
L 767.210551 152.884589 
L 767.61979 153.748893 
L 768.847509 157.066311 
L 769.256748 157.341467 
L 770.075227 157.31259 
L 771.507565 159.074695 
L 772.121424 159.242551 
L 772.939903 159.247781 
L 773.144523 159.546946 
L 773.963002 161.651386 
L 774.167622 161.771701 
L 774.576861 161.574663 
L 774.986101 161.320043 
L 775.19072 161.377949 
L 775.59996 161.924996 
L 777.032298 164.448229 
L 778.260016 166.225544 
L 778.669256 166.237091 
L 779.078495 166.13777 
L 779.487735 166.380423 
L 780.306213 167.143632 
L 780.715453 167.696347 
L 781.533932 169.307906 
L 783.17089 171.367495 
L 783.375509 171.48907 
L 783.580129 171.403166 
L 784.807847 169.827011 
L 785.217087 169.759697 
L 785.626326 170.043765 
L 786.035566 170.880892 
L 786.854045 173.113186 
L 787.058664 173.210885 
L 787.263284 172.995009 
L 787.877143 171.991858 
L 788.081763 171.941052 
L 788.491003 172.245656 
L 789.514101 173.616241 
L 790.12796 173.907409 
L 790.946439 173.830037 
L 791.355679 174.416152 
L 791.969538 175.800841 
L 792.583397 177.860812 
L 793.197256 179.972047 
L 793.606496 180.39313 
L 794.015735 180.615571 
L 794.424975 180.923993 
L 794.834214 180.964645 
L 796.471172 180.651376 
L 796.880411 180.986612 
L 798.10813 182.717626 
L 798.517369 183.079392 
L 798.926609 182.767516 
L 799.540468 182.326107 
L 799.949707 182.112483 
L 800.154327 182.245013 
L 800.768186 183.395046 
L 801.586665 185.328214 
L 801.791285 185.370145 
L 802.814383 184.711982 
L 803.019003 184.787064 
L 803.837482 185.612721 
L 804.451341 185.611022 
L 805.67906 186.56646 
L 806.292919 187.006132 
L 806.906778 187.249797 
L 807.725257 188.199394 
L 807.929877 188.198574 
L 808.952975 187.610436 
L 809.771454 187.771899 
L 809.976074 187.809879 
L 810.794553 187.534743 
L 811.817651 188.466381 
L 812.226891 188.36622 
L 813.249989 187.828334 
L 813.659229 187.776441 
L 813.863849 187.66773 
L 814.068468 187.426814 
L 814.477708 186.323998 
L 815.705426 181.495794 
L 816.319285 180.110474 
L 816.728525 179.71176 
L 816.933145 179.713134 
L 817.342384 180.092591 
L 817.751623 180.463002 
L 817.956243 180.204165 
L 818.365483 178.602092 
L 819.183962 174.658461 
L 819.593201 174.024632 
L 820.00244 173.56828 
L 820.41168 172.587076 
L 822.253257 165.280661 
L 822.867117 161.550882 
L 823.890215 154.637322 
L 825.936413 142.910711 
L 827.164131 135.024765 
L 829.005708 121.431328 
L 831.051906 101.348199 
L 834.121202 67.181481 
L 834.93968 58.055952 
L 837.804357 18.695045 
L 839.051836 -1 
M 933.107327 -1 
L 933.566389 19.695659 
L 934.180248 40.749894 
L 934.998727 60.573021 
L 936.021826 79.794497 
L 936.635685 87.657121 
L 939.091121 111.084787 
L 939.704981 114.409305 
L 940.932699 119.816678 
L 941.546558 121.757441 
L 942.160417 124.781535 
L 942.978896 128.958715 
L 944.001995 132.635856 
L 944.411234 133.645191 
L 944.820474 133.984416 
L 945.638953 134.235715 
L 945.843572 134.477165 
L 946.252812 135.741234 
L 946.866671 139.243628 
L 947.48053 142.585838 
L 948.094389 144.940089 
L 948.708249 146.119972 
L 949.322108 147.194388 
L 950.345206 147.966816 
L 950.754446 148.370015 
L 951.163685 148.585948 
L 951.572925 149.397272 
L 952.800643 152.780077 
L 953.209883 154.172934 
L 953.619122 154.793766 
L 953.823742 154.849018 
L 954.028361 154.7751 
L 954.437601 154.189768 
L 954.84684 153.458871 
L 955.25608 153.164229 
L 955.869939 153.026814 
L 956.893038 152.341989 
L 957.097657 152.420373 
L 957.506897 152.937532 
L 957.916136 153.761891 
L 958.325376 155.069112 
L 959.143855 158.060531 
L 959.553094 158.632446 
L 960.371573 159.284463 
L 960.576193 159.234478 
L 960.985432 158.903899 
L 962.41777 158.726633 
L 962.62239 158.892848 
L 963.031629 159.851626 
L 964.668587 164.802894 
L 965.077827 165.818719 
L 965.282446 165.990373 
L 965.691686 165.94724 
L 966.100925 165.677009 
L 966.510165 165.378913 
L 967.533263 165.052341 
L 968.351742 165.838892 
L 968.965602 165.780414 
L 969.374841 166.29389 
L 969.9887 167.527804 
L 970.602559 168.960894 
L 970.807179 169.190835 
L 971.011799 169.199615 
L 971.830278 168.641613 
L 972.239517 168.831857 
L 972.444137 168.989655 
L 972.648757 168.969444 
L 972.853376 168.666424 
L 973.467236 167.262745 
L 973.876475 166.60817 
L 975.308813 163.53789 
L 975.922672 162.801382 
L 976.331912 162.633677 
L 976.741151 162.870318 
L 977.150391 163.312815 
L 978.173489 164.961685 
L 978.582729 165.224416 
L 979.196588 165.224416 
L 979.605827 165.62962 
L 980.219687 166.507437 
L 980.833546 166.69352 
L 981.652025 166.881379 
L 982.470504 167.860845 
L 983.493602 168.879895 
L 983.698222 168.858557 
L 983.902842 168.647205 
L 984.312081 167.614547 
L 985.13056 164.982469 
L 985.539799 164.297549 
L 985.744419 164.20571 
L 985.949039 164.336426 
L 986.358278 165.310415 
L 986.972137 167.120939 
L 987.176757 167.432376 
L 987.381377 167.523681 
L 987.995236 167.449305 
L 988.199856 167.745454 
L 988.609095 168.984922 
L 989.836814 173.207392 
L 990.246053 173.841488 
L 990.655293 173.925579 
L 991.473771 173.88485 
L 992.087631 174.715603 
L 992.70149 175.881572 
L 993.110729 176.523932 
L 993.315349 176.456217 
L 993.724588 175.848039 
L 994.338448 174.576603 
L 995.156927 172.548295 
L 995.361546 172.334919 
L 995.566166 172.289858 
L 995.770786 172.409314 
L 996.180025 173.192105 
L 996.793884 174.747208 
L 996.998504 174.839945 
L 997.816983 174.611644 
L 998.226222 175.217932 
L 999.044701 177.232595 
L 1000.27242 180.155631 
L 1000.681659 180.809499 
L 1000.886279 180.672446 
L 1001.295518 179.567932 
L 1001.704758 178.416371 
L 1001.909378 178.227483 
L 1002.113997 178.323024 
L 1002.727856 179.156888 
L 1003.750955 180.914755 
L 1003.955575 180.741669 
L 1004.774054 178.856731 
L 1005.592533 178.158088 
L 1006.206392 178.061038 
L 1006.615631 178.225784 
L 1007.024871 178.603066 
L 1007.43411 179.381409 
L 1008.047969 180.684451 
L 1008.457209 181.130574 
L 1009.684927 181.475677 
L 1010.094167 181.18888 
L 1010.503406 180.469472 
L 1010.912646 179.648969 
L 1011.321885 179.317626 
L 1011.731124 179.298273 
L 1012.344984 179.52436 
L 1012.549603 179.465443 
L 1013.368082 178.751627 
L 1013.572702 178.813158 
L 1014.595801 179.774494 
L 1014.80042 179.627917 
L 1015.20966 178.774606 
L 1015.618899 177.964924 
L 1015.823519 177.861557 
L 1016.232758 178.074703 
L 1016.846618 178.38301 
L 1017.460477 178.477216 
L 1017.869716 178.259355 
L 1018.278956 177.83018 
L 1018.688195 177.779413 
L 1019.097435 177.9316 
L 1019.711294 178.402954 
L 1019.915914 178.320715 
L 1020.325153 177.521396 
L 1021.143632 175.449096 
L 1021.552871 175.065726 
L 1021.962111 175.015455 
L 1022.37135 175.186346 
L 1022.78059 175.583476 
L 1024.008308 177.584817 
L 1024.212928 177.482863 
L 1024.622167 176.540747 
L 1025.031407 175.402336 
L 1025.236026 175.169035 
L 1025.440646 175.207855 
L 1026.054505 175.797348 
L 1026.463745 175.750722 
L 1026.872984 175.67461 
L 1027.282224 176.172244 
L 1028.100703 177.460189 
L 1028.714562 178.231166 
L 1029.123801 179.394292 
L 1029.73766 181.227814 
L 1030.1469 181.778373 
L 1030.35152 181.730239 
L 1030.760759 181.156759 
L 1031.169998 180.54381 
L 1031.374618 180.430824 
L 1031.783858 180.634332 
L 1032.602337 181.345973 
L 1033.216196 181.398858 
L 1034.239294 182.553377 
L 1035.057773 183.590443 
L 1035.467013 183.765896 
L 1035.876252 183.716865 
L 1036.285492 183.236026 
L 1036.694731 182.739174 
L 1037.30859 182.50572 
L 1037.51321 182.526524 
L 1037.71783 182.68604 
L 1038.740928 184.104949 
L 1038.945548 184.167817 
L 1039.354788 183.998395 
L 1039.559407 183.819297 
L 1039.968647 182.99469 
L 1040.377886 182.051009 
L 1040.582506 181.850592 
L 1040.787126 181.865975 
L 1041.196365 182.308243 
L 1041.605605 182.707091 
L 1042.014844 182.940946 
L 1042.424083 183.592657 
L 1042.833323 184.521433 
L 1043.037943 184.732346 
L 1043.242562 184.63106 
L 1043.856422 183.862946 
L 1044.6749 184.154419 
L 1046.311858 182.705774 
L 1046.516478 182.823398 
L 1047.539577 184.218298 
L 1047.744196 184.122775 
L 1048.358056 183.407833 
L 1048.562675 183.353936 
L 1049.176534 183.475358 
L 1049.585774 183.163501 
L 1049.790394 183.253661 
L 1050.813492 184.93866 
L 1051.427351 185.564759 
L 1051.631971 185.561343 
L 1052.041211 185.338062 
L 1052.45045 185.495899 
L 1052.65507 185.5731 
L 1052.85969 185.50714 
L 1053.268929 184.922896 
L 1053.678168 184.290518 
L 1054.087408 184.115695 
L 1054.701267 183.972611 
L 1055.315126 183.552597 
L 1055.724366 183.953697 
L 1056.133605 184.479502 
L 1056.952084 185.101192 
L 1057.361324 185.669462 
L 1057.565943 185.770043 
L 1057.975183 185.532982 
L 1058.384422 185.379516 
L 1058.793662 185.77741 
L 1059.202901 186.129746 
L 1059.612141 186.046935 
L 1060.02138 185.621138 
L 1060.430619 185.163201 
L 1060.839859 185.11627 
L 1061.658338 185.277599 
L 1062.067577 185.00399 
L 1062.476817 184.710741 
L 1062.886056 184.794565 
L 1063.704535 185.175091 
L 1064.932253 186.30705 
L 1065.341493 186.512792 
L 1065.546113 186.356024 
L 1066.364591 185.186924 
L 1066.569211 185.194768 
L 1066.978451 185.555083 
L 1067.79693 186.62677 
L 1068.206169 186.692024 
L 1068.615408 186.606349 
L 1069.024648 186.159157 
L 1069.433887 185.671695 
L 1069.843127 185.5589 
L 1070.252366 185.773039 
L 1071.275465 186.940936 
L 1071.889324 186.476091 
L 1072.298564 186.603944 
L 1072.912423 187.135952 
L 1073.526282 187.725788 
L 1074.140141 187.944221 
L 1074.754 187.914906 
L 1074.95862 187.785888 
L 1075.981719 186.41851 
L 1076.595578 186.195171 
L 1077.823296 185.277885 
L 1078.232536 184.853749 
L 1078.437155 184.822945 
L 1079.051015 185.056628 
L 1079.460254 184.88045 
L 1079.869493 184.737767 
L 1080.278733 185.079225 
L 1080.687972 185.369916 
L 1081.097212 185.131347 
L 1081.506451 184.897283 
L 1082.12031 185.010689 
L 1082.32493 184.842718 
L 1083.348029 183.021696 
L 1083.552649 183.053912 
L 1084.371127 183.760762 
L 1084.575747 183.682111 
L 1084.984987 183.144721 
L 1085.394226 182.613267 
L 1085.803466 182.340135 
L 1086.008085 182.322252 
L 1086.826564 182.629891 
L 1087.235804 182.505205 
L 1087.645043 182.654892 
L 1088.054283 183.422796 
L 1088.668142 184.957249 
L 1088.872761 185.165262 
L 1089.077381 185.171999 
L 1089.486621 184.735915 
L 1090.918959 181.980068 
L 1091.328198 181.05532 
L 1091.532818 180.824386 
L 1091.737438 180.847956 
L 1092.760536 181.95707 
L 1092.965156 181.835152 
L 1093.374395 180.665518 
L 1093.783635 179.510446 
L 1094.397494 178.545828 
L 1095.215973 177.763992 
L 1095.829832 176.554221 
L 1096.239072 175.35968 
L 1096.648311 173.276615 
L 1098.694508 160.202627 
L 1100.536086 143.205944 
L 1102.377663 129.634455 
L 1102.786903 124.563712 
L 1103.196142 115.384668 
L 1103.605382 101.085087 
L 1104.014621 80.52173 
L 1104.423861 51.115157 
L 1104.906888 -1 
M 1108.116237 -1 
L 1108.720875 44.693105 
L 1109.334734 70.203589 
L 1110.153213 91.194136 
L 1111.790171 127.954208 
L 1112.60865 140.446509 
L 1113.222509 147.076803 
L 1114.245608 155.794131 
L 1115.064086 160.608422 
L 1116.087185 165.380172 
L 1116.496425 166.161589 
L 1117.110284 167.039578 
L 1117.519523 168.006563 
L 1118.542622 171.453533 
L 1119.361101 174.20728 
L 1120.17958 175.440793 
L 1120.588819 175.776851 
L 1120.998059 176.017728 
L 1121.407298 176.876136 
L 1121.816537 177.786704 
L 1122.225777 178.115833 
L 1122.839636 178.118104 
L 1123.248876 178.720289 
L 1123.658115 179.349269 
L 1123.862735 179.437979 
L 1124.885833 179.253937 
L 1125.295073 179.374768 
L 1125.704312 179.171126 
L 1126.113552 178.839477 
L 1126.318171 178.859574 
L 1127.13665 179.756382 
L 1128.364369 181.293316 
L 1128.773608 181.26652 
L 1129.182848 181.239266 
L 1129.592087 181.761864 
L 1130.410566 183.199077 
L 1130.819805 183.33987 
L 1131.433665 183.204421 
L 1131.842904 183.416346 
L 1132.252144 184.178219 
L 1132.866003 185.388123 
L 1133.070622 185.476584 
L 1133.275242 185.369591 
L 1134.093721 184.502271 
L 1134.70758 184.51544 
L 1135.11682 184.793954 
L 1135.730679 185.596269 
L 1135.935299 185.698644 
L 1136.344538 185.536723 
L 1136.958397 185.222538 
L 1137.367637 185.334913 
L 1137.776876 185.563423 
L 1138.799975 185.700667 
L 1139.004594 185.461469 
L 1139.413834 184.249102 
L 1140.027693 182.420885 
L 1140.232313 182.137084 
L 1140.436933 182.102692 
L 1140.641552 182.323511 
L 1141.050792 183.271239 
L 1141.869271 185.997274 
L 1142.27851 187.228707 
L 1142.48313 187.51205 
L 1142.68775 187.457198 
L 1142.892369 187.031382 
L 1143.710848 184.011583 
L 1144.120088 183.597161 
L 1144.324707 183.614911 
L 1144.529327 183.814755 
L 1144.938567 184.759429 
L 1145.552426 186.364383 
L 1145.757045 186.500768 
L 1145.961665 186.272277 
L 1146.370905 184.991947 
L 1146.780144 183.697074 
L 1147.189384 183.114471 
L 1148.417102 182.301525 
L 1148.621722 182.435295 
L 1149.030961 183.247897 
L 1150.05406 185.937766 
L 1150.667919 187.066461 
L 1151.077158 187.416661 
L 1151.486398 187.586502 
L 1152.304877 188.265411 
L 1152.714116 188.078221 
L 1153.532595 187.451091 
L 1154.351074 186.226262 
L 1154.555694 186.106653 
L 1154.760313 186.118276 
L 1155.169553 186.522316 
L 1155.988032 187.53814 
L 1156.397271 187.690862 
L 1157.01113 187.715444 
L 1158.443469 188.580856 
L 1159.057328 189.105038 
L 1159.466567 188.914756 
L 1159.875807 188.731001 
L 1160.898905 188.979169 
L 1161.717384 188.256021 
L 1162.945103 186.373659 
L 1164.172821 183.479232 
L 1164.78668 182.692014 
L 1164.9913 182.625138 
L 1165.19592 182.739365 
L 1165.809779 183.77918 
L 1167.446737 186.904769 
L 1167.855976 187.048998 
L 1168.674455 187.156297 
L 1169.083694 187.516096 
L 1169.492934 187.937465 
L 1169.697554 187.987126 
L 1171.334511 187.305984 
L 1172.766849 187.245311 
L 1173.585328 187.034818 
L 1173.994568 187.445404 
L 1174.608427 188.076866 
L 1175.017666 188.165708 
L 1175.426906 188.093088 
L 1175.836145 187.760925 
L 1176.859244 186.750062 
L 1177.882343 186.330487 
L 1178.291582 186.625434 
L 1179.72392 188.790128 
L 1180.337779 189.280014 
L 1180.542399 189.472911 
L 1180.747019 189.468693 
L 1181.156258 188.734226 
L 1181.565498 187.985751 
L 1181.770117 187.878567 
L 1182.179357 188.012013 
L 1182.588596 188.321637 
L 1182.793216 188.27545 
L 1183.202455 187.625819 
L 1183.611695 186.991589 
L 1184.634794 185.957271 
L 1184.839413 186.074189 
L 1184.839413 186.074189 
" clip-path="url(#p98a21d0f26)" style="fill: none; stroke: #000000; stroke-width: 2; stroke-linecap: square"/>
   </g>
   <g id="patch_3">
    <path d="M 3.00024 198.907885 
L 1184.99976 198.907885 
" style="fill: none; stroke: #000000; stroke-width: 2; stroke-linejoin: miter; stroke-linecap: square"/>
   </g>
  </g>
 </g>
 <defs>
  <clipPath id="p98a21d0f26">
   <rect x="3.00024" y="3.00024" width="1181.99952" height="195.907645"/>
  </clipPath>
 </defs>
</svg>
