<?xml version="1.0" encoding="utf-8" standalone="no"?>
<!DOCTYPE svg PUBLIC "-//W3C//DTD SVG 1.1//EN"
  "http://www.w3.org/Graphics/SVG/1.1/DTD/svg11.dtd">
<svg xmlns:xlink="http://www.w3.org/1999/xlink" width="1188pt" height="252pt" viewBox="0 0 1188 252" xmlns="http://www.w3.org/2000/svg" version="1.1">
 <metadata>
  <rdf:RDF xmlns:dc="http://purl.org/dc/elements/1.1/" xmlns:cc="http://creativecommons.org/ns#" xmlns:rdf="http://www.w3.org/1999/02/22-rdf-syntax-ns#">
   <cc:Work>
    <dc:type rdf:resource="http://purl.org/dc/dcmitype/StillImage"/>
    <dc:date>2024-07-23T21:47:30.195466</dc:date>
    <dc:format>image/svg+xml</dc:format>
    <dc:creator>
     <cc:Agent>
      <dc:title>Matplotlib v3.8.4, https://matplotlib.org/</dc:title>
     </cc:Agent>
    </dc:creator>
   </cc:Work>
  </rdf:RDF>
 </metadata>
 <defs>
  <style type="text/css">*{stroke-linejoin: round; stroke-linecap: butt}</style>
 </defs>
 <g id="figure_1">
  <g id="patch_1">
   <path d="M 0 252 
L 1188 252 
L 1188 0 
L 0 0 
z
" style="fill: #ffffff"/>
  </g>
  <g id="axes_1">
   <g id="patch_2">
    <path d="M 3.00024 198.907885 
L 1184.99976 198.907885 
L 1184.99976 3.00024 
L 3.00024 3.00024 
z
" style="fill: #ffffff"/>
   </g>
   <g id="matplotlib.axis_1">
    <g id="xtick_1">
     <g id="line2d_1">
      <defs>
       <path id="mfea04858cb" d="M 0 0 
L 0 8 
" style="stroke: #000000; stroke-width: 2"/>
      </defs>
      <g>
       <use xlink:href="#mfea04858cb" x="1131.272509" y="198.907885" style="stroke: #000000; stroke-width: 2"/>
      </g>
     </g>
     <g id="text_1">
      <!-- 0 -->
      <g transform="translate(1126.267665 224.791947) scale(0.18 -0.18)">
       <defs>
        <path id="Arial-BoldMT-30" d="M 1756 4600 
Q 2422 4600 2797 4125 
Q 3244 3563 3244 2259 
Q 3244 959 2794 391 
Q 2422 -78 1756 -78 
Q 1088 -78 678 436 
Q 269 950 269 2269 
Q 269 3563 719 4131 
Q 1091 4600 1756 4600 
z
M 1756 3872 
Q 1597 3872 1472 3770 
Q 1347 3669 1278 3406 
Q 1188 3066 1188 2259 
Q 1188 1453 1269 1151 
Q 1350 850 1473 750 
Q 1597 650 1756 650 
Q 1916 650 2041 751 
Q 2166 853 2234 1116 
Q 2325 1453 2325 2259 
Q 2325 3066 2244 3367 
Q 2163 3669 2039 3770 
Q 1916 3872 1756 3872 
z
" transform="scale(0.015625)"/>
       </defs>
       <use xlink:href="#Arial-BoldMT-30"/>
      </g>
     </g>
    </g>
    <g id="xtick_2">
     <g id="line2d_2">
      <g>
       <use xlink:href="#mfea04858cb" x="1023.818007" y="198.907885" style="stroke: #000000; stroke-width: 2"/>
      </g>
     </g>
     <g id="text_2">
      <!-- 1 -->
      <g transform="translate(1018.813164 224.791947) scale(0.18 -0.18)">
       <defs>
        <path id="Arial-BoldMT-31" d="M 2519 0 
L 1641 0 
L 1641 3309 
Q 1159 2859 506 2644 
L 506 3441 
Q 850 3553 1253 3867 
Q 1656 4181 1806 4600 
L 2519 4600 
L 2519 0 
z
" transform="scale(0.015625)"/>
       </defs>
       <use xlink:href="#Arial-BoldMT-31"/>
      </g>
     </g>
    </g>
    <g id="xtick_3">
     <g id="line2d_3">
      <g>
       <use xlink:href="#mfea04858cb" x="916.363505" y="198.907885" style="stroke: #000000; stroke-width: 2"/>
      </g>
     </g>
     <g id="text_3">
      <!-- 2 -->
      <g transform="translate(911.358662 224.791947) scale(0.18 -0.18)">
       <defs>
        <path id="Arial-BoldMT-32" d="M 3238 816 
L 3238 0 
L 159 0 
Q 209 463 459 877 
Q 709 1291 1447 1975 
Q 2041 2528 2175 2725 
Q 2356 2997 2356 3263 
Q 2356 3556 2198 3714 
Q 2041 3872 1763 3872 
Q 1488 3872 1325 3706 
Q 1163 3541 1138 3156 
L 263 3244 
Q 341 3969 753 4284 
Q 1166 4600 1784 4600 
Q 2463 4600 2850 4234 
Q 3238 3869 3238 3325 
Q 3238 3016 3127 2736 
Q 3016 2456 2775 2150 
Q 2616 1947 2200 1565 
Q 1784 1184 1673 1059 
Q 1563 934 1494 816 
L 3238 816 
z
" transform="scale(0.015625)"/>
       </defs>
       <use xlink:href="#Arial-BoldMT-32"/>
      </g>
     </g>
    </g>
    <g id="xtick_4">
     <g id="line2d_4">
      <g>
       <use xlink:href="#mfea04858cb" x="808.909004" y="198.907885" style="stroke: #000000; stroke-width: 2"/>
      </g>
     </g>
     <g id="text_4">
      <!-- 3 -->
      <g transform="translate(803.90416 224.791947) scale(0.18 -0.18)">
       <defs>
        <path id="Arial-BoldMT-33" d="M 241 1216 
L 1091 1319 
Q 1131 994 1309 822 
Q 1488 650 1741 650 
Q 2013 650 2198 856 
Q 2384 1063 2384 1413 
Q 2384 1744 2206 1937 
Q 2028 2131 1772 2131 
Q 1603 2131 1369 2066 
L 1466 2781 
Q 1822 2772 2009 2936 
Q 2197 3100 2197 3372 
Q 2197 3603 2059 3740 
Q 1922 3878 1694 3878 
Q 1469 3878 1309 3722 
Q 1150 3566 1116 3266 
L 306 3403 
Q 391 3819 561 4067 
Q 731 4316 1036 4458 
Q 1341 4600 1719 4600 
Q 2366 4600 2756 4188 
Q 3078 3850 3078 3425 
Q 3078 2822 2419 2463 
Q 2813 2378 3048 2084 
Q 3284 1791 3284 1375 
Q 3284 772 2843 347 
Q 2403 -78 1747 -78 
Q 1125 -78 715 280 
Q 306 638 241 1216 
z
" transform="scale(0.015625)"/>
       </defs>
       <use xlink:href="#Arial-BoldMT-33"/>
      </g>
     </g>
    </g>
    <g id="xtick_5">
     <g id="line2d_5">
      <g>
       <use xlink:href="#mfea04858cb" x="701.454502" y="198.907885" style="stroke: #000000; stroke-width: 2"/>
      </g>
     </g>
     <g id="text_5">
      <!-- 4 -->
      <g transform="translate(696.449658 224.791947) scale(0.18 -0.18)">
       <defs>
        <path id="Arial-BoldMT-34" d="M 1994 0 
L 1994 922 
L 119 922 
L 119 1691 
L 2106 4600 
L 2844 4600 
L 2844 1694 
L 3413 1694 
L 3413 922 
L 2844 922 
L 2844 0 
L 1994 0 
z
M 1994 1694 
L 1994 3259 
L 941 1694 
L 1994 1694 
z
" transform="scale(0.015625)"/>
       </defs>
       <use xlink:href="#Arial-BoldMT-34"/>
      </g>
     </g>
    </g>
    <g id="xtick_6">
     <g id="line2d_6">
      <g>
       <use xlink:href="#mfea04858cb" x="594" y="198.907885" style="stroke: #000000; stroke-width: 2"/>
      </g>
     </g>
     <g id="text_6">
      <!-- 5 -->
      <g transform="translate(588.995156 224.791947) scale(0.18 -0.18)">
       <defs>
        <path id="Arial-BoldMT-35" d="M 284 1178 
L 1159 1269 
Q 1197 972 1381 798 
Q 1566 625 1806 625 
Q 2081 625 2272 848 
Q 2463 1072 2463 1522 
Q 2463 1944 2273 2155 
Q 2084 2366 1781 2366 
Q 1403 2366 1103 2031 
L 391 2134 
L 841 4519 
L 3163 4519 
L 3163 3697 
L 1506 3697 
L 1369 2919 
Q 1663 3066 1969 3066 
Q 2553 3066 2959 2641 
Q 3366 2216 3366 1538 
Q 3366 972 3038 528 
Q 2591 -78 1797 -78 
Q 1163 -78 763 262 
Q 363 603 284 1178 
z
" transform="scale(0.015625)"/>
       </defs>
       <use xlink:href="#Arial-BoldMT-35"/>
      </g>
     </g>
    </g>
    <g id="xtick_7">
     <g id="line2d_7">
      <g>
       <use xlink:href="#mfea04858cb" x="486.545498" y="198.907885" style="stroke: #000000; stroke-width: 2"/>
      </g>
     </g>
     <g id="text_7">
      <!-- 6 -->
      <g transform="translate(481.540654 224.791947) scale(0.18 -0.18)">
       <defs>
        <path id="Arial-BoldMT-36" d="M 3247 3459 
L 2397 3366 
Q 2366 3628 2234 3753 
Q 2103 3878 1894 3878 
Q 1616 3878 1423 3628 
Q 1231 3378 1181 2588 
Q 1509 2975 1997 2975 
Q 2547 2975 2939 2556 
Q 3331 2138 3331 1475 
Q 3331 772 2918 347 
Q 2506 -78 1859 -78 
Q 1166 -78 719 461 
Q 272 1000 272 2228 
Q 272 3488 737 4044 
Q 1203 4600 1947 4600 
Q 2469 4600 2811 4308 
Q 3153 4016 3247 3459 
z
M 1256 1544 
Q 1256 1116 1453 883 
Q 1650 650 1903 650 
Q 2147 650 2309 840 
Q 2472 1031 2472 1466 
Q 2472 1913 2297 2120 
Q 2122 2328 1859 2328 
Q 1606 2328 1431 2129 
Q 1256 1931 1256 1544 
z
" transform="scale(0.015625)"/>
       </defs>
       <use xlink:href="#Arial-BoldMT-36"/>
      </g>
     </g>
    </g>
    <g id="xtick_8">
     <g id="line2d_8">
      <g>
       <use xlink:href="#mfea04858cb" x="379.090996" y="198.907885" style="stroke: #000000; stroke-width: 2"/>
      </g>
     </g>
     <g id="text_8">
      <!-- 7 -->
      <g transform="translate(374.086153 224.791947) scale(0.18 -0.18)">
       <defs>
        <path id="Arial-BoldMT-37" d="M 272 3703 
L 272 4519 
L 3275 4519 
L 3275 3881 
Q 2903 3516 2518 2831 
Q 2134 2147 1932 1376 
Q 1731 606 1734 0 
L 888 0 
Q 909 950 1279 1937 
Q 1650 2925 2269 3703 
L 272 3703 
z
" transform="scale(0.015625)"/>
       </defs>
       <use xlink:href="#Arial-BoldMT-37"/>
      </g>
     </g>
    </g>
    <g id="xtick_9">
     <g id="line2d_9">
      <g>
       <use xlink:href="#mfea04858cb" x="271.636495" y="198.907885" style="stroke: #000000; stroke-width: 2"/>
      </g>
     </g>
     <g id="text_9">
      <!-- 8 -->
      <g transform="translate(266.631651 224.791947) scale(0.18 -0.18)">
       <defs>
        <path id="Arial-BoldMT-38" d="M 1025 2472 
Q 684 2616 529 2867 
Q 375 3119 375 3419 
Q 375 3931 733 4265 
Q 1091 4600 1750 4600 
Q 2403 4600 2764 4265 
Q 3125 3931 3125 3419 
Q 3125 3100 2959 2851 
Q 2794 2603 2494 2472 
Q 2875 2319 3073 2025 
Q 3272 1731 3272 1347 
Q 3272 713 2867 316 
Q 2463 -81 1791 -81 
Q 1166 -81 750 247 
Q 259 634 259 1309 
Q 259 1681 443 1992 
Q 628 2303 1025 2472 
z
M 1206 3356 
Q 1206 3094 1354 2947 
Q 1503 2800 1750 2800 
Q 2000 2800 2150 2948 
Q 2300 3097 2300 3359 
Q 2300 3606 2151 3754 
Q 2003 3903 1759 3903 
Q 1506 3903 1356 3753 
Q 1206 3603 1206 3356 
z
M 1125 1394 
Q 1125 1031 1311 828 
Q 1497 625 1775 625 
Q 2047 625 2225 820 
Q 2403 1016 2403 1384 
Q 2403 1706 2222 1901 
Q 2041 2097 1763 2097 
Q 1441 2097 1283 1875 
Q 1125 1653 1125 1394 
z
" transform="scale(0.015625)"/>
       </defs>
       <use xlink:href="#Arial-BoldMT-38"/>
      </g>
     </g>
    </g>
    <g id="xtick_10">
     <g id="line2d_10">
      <g>
       <use xlink:href="#mfea04858cb" x="164.181993" y="198.907885" style="stroke: #000000; stroke-width: 2"/>
      </g>
     </g>
     <g id="text_10">
      <!-- 9 -->
      <g transform="translate(159.177149 224.791947) scale(0.18 -0.18)">
       <defs>
        <path id="Arial-BoldMT-39" d="M 291 1059 
L 1141 1153 
Q 1172 894 1303 769 
Q 1434 644 1650 644 
Q 1922 644 2112 894 
Q 2303 1144 2356 1931 
Q 2025 1547 1528 1547 
Q 988 1547 595 1964 
Q 203 2381 203 3050 
Q 203 3747 617 4173 
Q 1031 4600 1672 4600 
Q 2369 4600 2816 4061 
Q 3263 3522 3263 2288 
Q 3263 1031 2797 475 
Q 2331 -81 1584 -81 
Q 1047 -81 715 205 
Q 384 491 291 1059 
z
M 2278 2978 
Q 2278 3403 2083 3637 
Q 1888 3872 1631 3872 
Q 1388 3872 1227 3680 
Q 1066 3488 1066 3050 
Q 1066 2606 1241 2398 
Q 1416 2191 1678 2191 
Q 1931 2191 2104 2391 
Q 2278 2591 2278 2978 
z
" transform="scale(0.015625)"/>
       </defs>
       <use xlink:href="#Arial-BoldMT-39"/>
      </g>
     </g>
    </g>
    <g id="xtick_11">
     <g id="line2d_11">
      <g>
       <use xlink:href="#mfea04858cb" x="56.727491" y="198.907885" style="stroke: #000000; stroke-width: 2"/>
      </g>
     </g>
     <g id="text_11">
      <!-- 10 -->
      <g transform="translate(46.717803 224.791947) scale(0.18 -0.18)">
       <use xlink:href="#Arial-BoldMT-31"/>
       <use xlink:href="#Arial-BoldMT-30" x="55.615234"/>
      </g>
     </g>
    </g>
    <g id="text_12">
     <!-- Chemical Shift / ppm -->
     <g transform="translate(504.992813 245.447573) scale(0.18 -0.18)">
      <defs>
       <path id="Arial-BoldMT-43" d="M 3397 1684 
L 4294 1400 
Q 4088 650 3608 286 
Q 3128 -78 2391 -78 
Q 1478 -78 890 545 
Q 303 1169 303 2250 
Q 303 3394 893 4026 
Q 1484 4659 2447 4659 
Q 3288 4659 3813 4163 
Q 4125 3869 4281 3319 
L 3366 3100 
Q 3284 3456 3026 3662 
Q 2769 3869 2400 3869 
Q 1891 3869 1573 3503 
Q 1256 3138 1256 2319 
Q 1256 1450 1568 1081 
Q 1881 713 2381 713 
Q 2750 713 3015 947 
Q 3281 1181 3397 1684 
z
" transform="scale(0.015625)"/>
       <path id="Arial-BoldMT-68" d="M 1334 4581 
L 1334 2897 
Q 1759 3394 2350 3394 
Q 2653 3394 2897 3281 
Q 3141 3169 3264 2994 
Q 3388 2819 3433 2606 
Q 3478 2394 3478 1947 
L 3478 0 
L 2600 0 
L 2600 1753 
Q 2600 2275 2550 2415 
Q 2500 2556 2373 2639 
Q 2247 2722 2056 2722 
Q 1838 2722 1666 2615 
Q 1494 2509 1414 2295 
Q 1334 2081 1334 1663 
L 1334 0 
L 456 0 
L 456 4581 
L 1334 4581 
z
" transform="scale(0.015625)"/>
       <path id="Arial-BoldMT-65" d="M 2381 1056 
L 3256 909 
Q 3088 428 2723 176 
Q 2359 -75 1813 -75 
Q 947 -75 531 491 
Q 203 944 203 1634 
Q 203 2459 634 2926 
Q 1066 3394 1725 3394 
Q 2466 3394 2894 2905 
Q 3322 2416 3303 1406 
L 1103 1406 
Q 1113 1016 1316 798 
Q 1519 581 1822 581 
Q 2028 581 2168 693 
Q 2309 806 2381 1056 
z
M 2431 1944 
Q 2422 2325 2234 2523 
Q 2047 2722 1778 2722 
Q 1491 2722 1303 2513 
Q 1116 2303 1119 1944 
L 2431 1944 
z
" transform="scale(0.015625)"/>
       <path id="Arial-BoldMT-6d" d="M 394 3319 
L 1203 3319 
L 1203 2866 
Q 1638 3394 2238 3394 
Q 2556 3394 2790 3262 
Q 3025 3131 3175 2866 
Q 3394 3131 3647 3262 
Q 3900 3394 4188 3394 
Q 4553 3394 4806 3245 
Q 5059 3097 5184 2809 
Q 5275 2597 5275 2122 
L 5275 0 
L 4397 0 
L 4397 1897 
Q 4397 2391 4306 2534 
Q 4184 2722 3931 2722 
Q 3747 2722 3584 2609 
Q 3422 2497 3350 2280 
Q 3278 2063 3278 1594 
L 3278 0 
L 2400 0 
L 2400 1819 
Q 2400 2303 2353 2443 
Q 2306 2584 2207 2653 
Q 2109 2722 1941 2722 
Q 1738 2722 1575 2612 
Q 1413 2503 1342 2297 
Q 1272 2091 1272 1613 
L 1272 0 
L 394 0 
L 394 3319 
z
" transform="scale(0.015625)"/>
       <path id="Arial-BoldMT-69" d="M 459 3769 
L 459 4581 
L 1338 4581 
L 1338 3769 
L 459 3769 
z
M 459 0 
L 459 3319 
L 1338 3319 
L 1338 0 
L 459 0 
z
" transform="scale(0.015625)"/>
       <path id="Arial-BoldMT-63" d="M 3353 2338 
L 2488 2181 
Q 2444 2441 2289 2572 
Q 2134 2703 1888 2703 
Q 1559 2703 1364 2476 
Q 1169 2250 1169 1719 
Q 1169 1128 1367 884 
Q 1566 641 1900 641 
Q 2150 641 2309 783 
Q 2469 925 2534 1272 
L 3397 1125 
Q 3263 531 2881 228 
Q 2500 -75 1859 -75 
Q 1131 -75 698 384 
Q 266 844 266 1656 
Q 266 2478 700 2936 
Q 1134 3394 1875 3394 
Q 2481 3394 2839 3133 
Q 3197 2872 3353 2338 
z
" transform="scale(0.015625)"/>
       <path id="Arial-BoldMT-61" d="M 1116 2306 
L 319 2450 
Q 453 2931 781 3162 
Q 1109 3394 1756 3394 
Q 2344 3394 2631 3255 
Q 2919 3116 3036 2902 
Q 3153 2688 3153 2116 
L 3144 1091 
Q 3144 653 3186 445 
Q 3228 238 3344 0 
L 2475 0 
Q 2441 88 2391 259 
Q 2369 338 2359 363 
Q 2134 144 1878 34 
Q 1622 -75 1331 -75 
Q 819 -75 523 203 
Q 228 481 228 906 
Q 228 1188 362 1408 
Q 497 1628 739 1745 
Q 981 1863 1438 1950 
Q 2053 2066 2291 2166 
L 2291 2253 
Q 2291 2506 2166 2614 
Q 2041 2722 1694 2722 
Q 1459 2722 1328 2630 
Q 1197 2538 1116 2306 
z
M 2291 1594 
Q 2122 1538 1756 1459 
Q 1391 1381 1278 1306 
Q 1106 1184 1106 997 
Q 1106 813 1243 678 
Q 1381 544 1594 544 
Q 1831 544 2047 700 
Q 2206 819 2256 991 
Q 2291 1103 2291 1419 
L 2291 1594 
z
" transform="scale(0.015625)"/>
       <path id="Arial-BoldMT-6c" d="M 459 0 
L 459 4581 
L 1338 4581 
L 1338 0 
L 459 0 
z
" transform="scale(0.015625)"/>
       <path id="Arial-BoldMT-20" transform="scale(0.015625)"/>
       <path id="Arial-BoldMT-53" d="M 231 1491 
L 1131 1578 
Q 1213 1125 1461 912 
Q 1709 700 2131 700 
Q 2578 700 2804 889 
Q 3031 1078 3031 1331 
Q 3031 1494 2936 1608 
Q 2841 1722 2603 1806 
Q 2441 1863 1863 2006 
Q 1119 2191 819 2459 
Q 397 2838 397 3381 
Q 397 3731 595 4036 
Q 794 4341 1167 4500 
Q 1541 4659 2069 4659 
Q 2931 4659 3367 4281 
Q 3803 3903 3825 3272 
L 2900 3231 
Q 2841 3584 2645 3739 
Q 2450 3894 2059 3894 
Q 1656 3894 1428 3728 
Q 1281 3622 1281 3444 
Q 1281 3281 1419 3166 
Q 1594 3019 2269 2859 
Q 2944 2700 3267 2529 
Q 3591 2359 3773 2064 
Q 3956 1769 3956 1334 
Q 3956 941 3737 597 
Q 3519 253 3119 86 
Q 2719 -81 2122 -81 
Q 1253 -81 787 320 
Q 322 722 231 1491 
z
" transform="scale(0.015625)"/>
       <path id="Arial-BoldMT-66" d="M 75 3319 
L 563 3319 
L 563 3569 
Q 563 3988 652 4194 
Q 741 4400 980 4529 
Q 1219 4659 1584 4659 
Q 1959 4659 2319 4547 
L 2200 3934 
Q 1991 3984 1797 3984 
Q 1606 3984 1523 3895 
Q 1441 3806 1441 3553 
L 1441 3319 
L 2097 3319 
L 2097 2628 
L 1441 2628 
L 1441 0 
L 563 0 
L 563 2628 
L 75 2628 
L 75 3319 
z
" transform="scale(0.015625)"/>
       <path id="Arial-BoldMT-74" d="M 1981 3319 
L 1981 2619 
L 1381 2619 
L 1381 1281 
Q 1381 875 1398 808 
Q 1416 741 1477 697 
Q 1538 653 1625 653 
Q 1747 653 1978 738 
L 2053 56 
Q 1747 -75 1359 -75 
Q 1122 -75 931 4 
Q 741 84 652 211 
Q 563 338 528 553 
Q 500 706 500 1172 
L 500 2619 
L 97 2619 
L 97 3319 
L 500 3319 
L 500 3978 
L 1381 4491 
L 1381 3319 
L 1981 3319 
z
" transform="scale(0.015625)"/>
       <path id="Arial-BoldMT-2f" d="M -9 -78 
L 1125 4659 
L 1784 4659 
L 638 -78 
L -9 -78 
z
" transform="scale(0.015625)"/>
       <path id="Arial-BoldMT-70" d="M 434 3319 
L 1253 3319 
L 1253 2831 
Q 1413 3081 1684 3237 
Q 1956 3394 2288 3394 
Q 2866 3394 3269 2941 
Q 3672 2488 3672 1678 
Q 3672 847 3265 386 
Q 2859 -75 2281 -75 
Q 2006 -75 1782 34 
Q 1559 144 1313 409 
L 1313 -1263 
L 434 -1263 
L 434 3319 
z
M 1303 1716 
Q 1303 1156 1525 889 
Q 1747 622 2066 622 
Q 2372 622 2575 867 
Q 2778 1113 2778 1672 
Q 2778 2194 2568 2447 
Q 2359 2700 2050 2700 
Q 1728 2700 1515 2451 
Q 1303 2203 1303 1716 
z
" transform="scale(0.015625)"/>
      </defs>
      <use xlink:href="#Arial-BoldMT-43"/>
      <use xlink:href="#Arial-BoldMT-68" x="72.216797"/>
      <use xlink:href="#Arial-BoldMT-65" x="133.300781"/>
      <use xlink:href="#Arial-BoldMT-6d" x="188.916016"/>
      <use xlink:href="#Arial-BoldMT-69" x="277.832031"/>
      <use xlink:href="#Arial-BoldMT-63" x="305.615234"/>
      <use xlink:href="#Arial-BoldMT-61" x="361.230469"/>
      <use xlink:href="#Arial-BoldMT-6c" x="416.845703"/>
      <use xlink:href="#Arial-BoldMT-20" x="444.628906"/>
      <use xlink:href="#Arial-BoldMT-53" x="472.412109"/>
      <use xlink:href="#Arial-BoldMT-68" x="539.111328"/>
      <use xlink:href="#Arial-BoldMT-69" x="600.195312"/>
      <use xlink:href="#Arial-BoldMT-66" x="627.978516"/>
      <use xlink:href="#Arial-BoldMT-74" x="661.279297"/>
      <use xlink:href="#Arial-BoldMT-20" x="694.580078"/>
      <use xlink:href="#Arial-BoldMT-2f" x="722.363281"/>
      <use xlink:href="#Arial-BoldMT-20" x="750.146484"/>
      <use xlink:href="#Arial-BoldMT-70" x="777.929688"/>
      <use xlink:href="#Arial-BoldMT-70" x="839.013672"/>
      <use xlink:href="#Arial-BoldMT-6d" x="900.097656"/>
     </g>
    </g>
   </g>
   <g id="matplotlib.axis_2"/>
   <g id="line2d_12">
    <path d="M 2.99428 188.901968 
L 3.403519 188.687961 
L 3.812758 188.705861 
L 4.221998 189.01899 
L 4.631237 189.409485 
L 5.040477 189.521156 
L 5.654336 189.575296 
L 6.472815 189.894617 
L 7.086674 190.138992 
L 7.495914 189.868947 
L 7.905153 189.671013 
L 8.723632 190.052113 
L 9.337491 189.989836 
L 9.746731 189.999088 
L 10.15597 189.601512 
L 10.565209 189.148953 
L 10.974449 188.978361 
L 11.997548 188.981956 
L 12.406787 189.145288 
L 13.020646 189.902695 
L 13.634505 190.810707 
L 13.839125 190.960563 
L 14.043745 190.952793 
L 14.452984 190.582523 
L 15.680703 189.111765 
L 16.294562 188.892395 
L 16.703801 189.037495 
L 17.52228 189.423838 
L 18.340759 189.806919 
L 18.954618 190.415574 
L 19.568477 191.386004 
L 19.977717 192.049083 
L 20.182337 192.229212 
L 20.386956 192.237361 
L 20.796196 191.774328 
L 22.023914 189.807263 
L 22.433154 189.618451 
L 22.842393 189.694987 
L 23.456252 189.863621 
L 24.070111 190.051994 
L 24.479351 190.138708 
L 24.88859 189.965447 
L 26.730168 188.849122 
L 27.139407 189.046558 
L 27.753267 189.789754 
L 28.571745 191.131712 
L 29.185605 191.984315 
L 29.390224 192.028158 
L 29.799464 191.732371 
L 31.436422 190.124651 
L 31.641041 190.075517 
L 32.66414 190.472465 
L 33.277999 190.103346 
L 33.891858 189.778224 
L 34.505717 189.899896 
L 35.119577 190.12006 
L 35.733436 190.607648 
L 36.347295 191.158462 
L 36.756534 190.998807 
L 37.370394 190.354317 
L 37.779633 189.898354 
L 37.984253 189.858437 
L 38.393492 190.147189 
L 39.007351 190.552132 
L 39.621211 190.644931 
L 40.03045 190.533046 
L 40.644309 190.20255 
L 41.053549 190.270426 
L 41.872028 190.641183 
L 42.281267 190.473248 
L 43.508985 189.4013 
L 43.918225 189.446222 
L 45.350563 190.477934 
L 45.759802 190.402383 
L 46.987521 189.927001 
L 47.192141 190.018875 
L 47.60138 190.62932 
L 48.010619 191.352303 
L 48.215239 191.459242 
L 48.624479 191.124227 
L 49.033718 190.631503 
L 49.238338 190.528289 
L 49.442958 190.586794 
L 50.261436 191.246907 
L 50.670676 191.190668 
L 51.489155 190.861133 
L 52.307634 191.030207 
L 52.716873 191.140799 
L 53.126113 190.969009 
L 54.558451 189.764772 
L 54.76307 189.762139 
L 55.17231 190.290735 
L 55.990789 191.58446 
L 56.400028 191.926854 
L 56.604648 191.944137 
L 57.013887 191.678683 
L 57.423127 191.409859 
L 57.832366 191.339326 
L 58.446226 191.32508 
L 59.060085 190.839603 
L 59.469324 190.416428 
L 60.492423 188.97109 
L 61.106282 188.931577 
L 61.720141 189.077518 
L 62.129381 189.64252 
L 62.74324 190.552619 
L 63.152479 190.925213 
L 63.357099 190.961002 
L 63.766338 190.67881 
L 64.584817 189.797595 
L 64.789437 189.872921 
L 65.812536 190.969294 
L 66.221775 190.872628 
L 67.449493 190.211696 
L 67.858733 190.413486 
L 68.267972 190.588419 
L 69.291071 190.226073 
L 70.518789 190.653033 
L 70.928029 190.5604 
L 71.337268 190.745879 
L 71.746508 191.240727 
L 72.769606 192.75069 
L 72.974226 192.726408 
L 73.383466 192.263838 
L 73.997325 191.143219 
L 74.201944 190.981713 
L 74.611184 191.06953 
L 75.225043 191.347653 
L 75.838902 191.405103 
L 76.043522 191.264095 
L 76.862001 190.020322 
L 77.68048 189.899753 
L 78.089719 189.853313 
L 78.703578 190.084236 
L 79.317438 190.582808 
L 80.135917 191.539467 
L 80.749776 192.243814 
L 81.363635 192.539885 
L 81.977494 193.068968 
L 83.205212 193.11822 
L 84.84217 192.575176 
L 85.25141 192.002251 
L 86.069889 190.61811 
L 86.479128 190.438634 
L 87.092987 190.205765 
L 87.706846 189.895032 
L 89.343804 189.97967 
L 89.957663 189.855958 
L 90.366903 190.029646 
L 90.980762 190.823008 
L 91.799241 191.69911 
L 92.20848 191.922892 
L 92.4131 191.868645 
L 92.82234 191.45802 
L 94.868537 188.834709 
L 95.277776 188.923249 
L 95.687016 189.256414 
L 96.914734 191.064156 
L 98.142453 191.05934 
L 98.756312 191.438744 
L 99.77941 192.340255 
L 100.18865 192.308737 
L 101.211748 191.87409 
L 101.620988 192.326305 
L 102.234847 193.163391 
L 102.439467 193.22275 
L 102.848706 192.998102 
L 103.462565 192.434608 
L 105.508763 192.00008 
L 105.918002 191.457807 
L 106.736481 190.03585 
L 107.14572 189.824297 
L 107.55496 189.943324 
L 107.964199 190.533805 
L 108.373439 191.375862 
L 108.578059 191.58102 
L 108.782678 191.587035 
L 109.396537 191.194037 
L 110.419636 190.437851 
L 111.238115 190.407934 
L 111.647354 190.435656 
L 112.056594 190.427246 
L 113.079693 190.948819 
L 113.488932 191.398982 
L 113.898171 192.078774 
L 114.307411 192.917783 
L 114.512031 193.120782 
L 114.71665 193.093416 
L 115.944369 191.991397 
L 116.353608 192.037292 
L 116.967467 192.658378 
L 117.376707 193.01191 
L 117.785946 193.068125 
L 118.604425 192.587406 
L 119.013665 192.846039 
L 119.832144 193.632308 
L 120.241383 193.556235 
L 121.059862 193.25326 
L 121.673721 192.556884 
L 122.082961 192.18289 
L 122.28758 192.170185 
L 123.310679 192.686325 
L 124.129158 192.519364 
L 124.538397 192.457454 
L 124.947637 192.036438 
L 125.356876 191.644662 
L 125.561496 191.712324 
L 125.970735 192.346352 
L 126.379975 192.956027 
L 126.789214 193.152786 
L 127.607693 193.315478 
L 128.221552 193.214328 
L 128.630792 193.3718 
L 129.244651 193.884477 
L 130.06313 194.475136 
L 130.472369 194.613391 
L 132.109327 194.450095 
L 132.723186 194.605431 
L 133.337046 194.194569 
L 134.155524 193.727538 
L 134.564764 193.66334 
L 135.587863 194.008758 
L 135.997102 193.803279 
L 136.610961 193.120711 
L 137.020201 193.01968 
L 138.452539 193.091518 
L 139.475637 192.90229 
L 140.294116 193.503816 
L 140.703356 193.79806 
L 141.521835 193.964998 
L 141.931074 193.966291 
L 142.340314 193.689899 
L 142.749553 193.413259 
L 142.954173 193.514159 
L 143.363412 194.174723 
L 143.772652 194.895607 
L 143.977271 195.011241 
L 144.181891 194.892594 
L 145.00037 193.888937 
L 145.818849 193.232074 
L 146.432708 193.064341 
L 147.660426 193.200639 
L 148.478905 193.027105 
L 148.888145 193.226119 
L 149.297384 193.546947 
L 149.706624 193.527018 
L 150.320483 193.409771 
L 151.957441 194.011937 
L 152.36668 193.75481 
L 152.980539 193.187341 
L 154.822117 192.576967 
L 155.026737 192.62151 
L 155.435976 193.033369 
L 156.049835 193.770682 
L 156.254455 193.795284 
L 156.663694 193.362678 
L 157.277554 192.69075 
L 157.686793 192.516445 
L 157.891413 192.578794 
L 158.709892 193.356794 
L 159.528371 193.367316 
L 160.14223 194.128128 
L 160.960709 195.118796 
L 161.369948 195.208961 
L 161.779188 194.94595 
L 162.597666 194.15024 
L 163.006906 193.937157 
L 163.620765 193.14956 
L 164.030005 192.406601 
L 164.643864 190.640957 
L 165.257723 188.892087 
L 166.076202 187.510485 
L 166.894681 186.12453 
L 167.30392 184.914742 
L 167.917779 182.750609 
L 168.736258 181.00092 
L 169.350117 180.159765 
L 170.577836 178.928755 
L 170.782456 178.960475 
L 170.987075 179.109572 
L 171.396315 179.79889 
L 172.214794 181.219257 
L 172.624033 181.681436 
L 173.442512 182.247422 
L 173.851751 182.822364 
L 174.260991 183.943754 
L 175.07947 186.604538 
L 176.102568 188.564688 
L 176.921047 190.179656 
L 178.558005 192.373351 
L 178.762625 192.296578 
L 179.171864 191.635029 
L 179.990343 189.841047 
L 180.194963 189.656814 
L 180.604202 189.698735 
L 181.627301 190.246821 
L 182.036541 190.338967 
L 182.44578 190.779912 
L 182.855019 191.344534 
L 183.059639 191.47235 
L 183.264259 191.456846 
L 183.878118 191.068225 
L 184.082738 191.12756 
L 185.719696 192.67935 
L 186.538174 192.440527 
L 187.970513 192.815328 
L 188.379752 192.806621 
L 188.788991 192.715317 
L 188.993611 192.853679 
L 190.425949 194.732358 
L 191.449048 195.878896 
L 192.267527 195.712741 
L 193.086006 196.330316 
L 193.904485 196.391063 
L 194.313724 196.132749 
L 194.927583 195.143375 
L 196.359921 192.363908 
L 196.973781 190.370912 
L 198.815358 183.068589 
L 199.224598 182.292048 
L 199.633837 182.074576 
L 200.043076 182.051516 
L 200.452316 182.390398 
L 200.861555 182.783135 
L 201.066175 182.840501 
L 201.270795 182.742341 
L 201.680034 182.170863 
L 202.498513 180.84187 
L 203.316992 180.03196 
L 204.135471 178.25551 
L 204.74933 176.635263 
L 205.363189 174.534177 
L 207.000147 167.760877 
L 207.614006 165.600908 
L 208.432485 161.932528 
L 208.841725 161.157137 
L 209.046344 161.104409 
L 209.250964 161.238228 
L 209.660204 161.926799 
L 211.706401 166.781586 
L 212.7295 169.89736 
L 213.343359 171.541972 
L 213.957218 173.281744 
L 214.571077 174.084834 
L 215.184936 175.005739 
L 215.798795 176.71576 
L 217.435753 181.517048 
L 218.663472 183.908618 
L 219.89119 185.719457 
L 220.09581 185.600359 
L 220.505049 184.743012 
L 222.346627 178.832006 
L 222.960486 177.043492 
L 223.983584 173.458552 
L 224.597444 172.562593 
L 225.211303 171.7191 
L 225.415923 171.59935 
L 225.620542 171.641877 
L 225.825162 171.889467 
L 226.234401 172.89705 
L 226.848261 175.14161 
L 227.66674 179.550849 
L 228.280599 182.71966 
L 228.689838 183.791537 
L 229.099078 184.092661 
L 229.508317 183.919306 
L 230.122176 183.468705 
L 230.940655 183.01802 
L 231.554514 182.097186 
L 231.963754 181.527808 
L 232.372993 181.361688 
L 232.986852 181.31641 
L 233.396092 181.034905 
L 233.805331 180.231579 
L 234.419191 178.922918 
L 234.62381 178.756135 
L 234.82843 178.739041 
L 235.237669 179.033641 
L 235.851529 179.53213 
L 236.465388 179.631774 
L 237.079247 179.533862 
L 237.488486 179.765865 
L 238.511585 180.792867 
L 238.920825 180.55109 
L 239.330064 180.190512 
L 239.739303 180.149563 
L 240.148543 180.409276 
L 240.762402 181.114679 
L 240.967022 181.183409 
L 241.171642 181.064941 
L 241.580881 180.278577 
L 242.60398 177.809215 
L 244.240937 174.944637 
L 245.059416 174.632907 
L 245.468656 174.464641 
L 245.673276 174.517855 
L 245.877895 174.772799 
L 247.105614 177.615646 
L 248.537952 181.674022 
L 249.56105 185.132261 
L 250.17491 186.26689 
L 251.607248 187.392894 
L 252.016487 187.54816 
L 252.630346 187.361234 
L 253.448825 186.990039 
L 254.062684 186.215158 
L 255.085783 184.893841 
L 255.290403 184.805372 
L 255.495022 184.865632 
L 255.699642 185.109936 
L 256.313501 186.631466 
L 256.927361 188.113256 
L 257.3366 188.683002 
L 257.745839 188.979216 
L 258.768938 189.368382 
L 260.201276 191.59153 
L 260.610516 191.541282 
L 261.224375 191.280169 
L 262.042854 191.181629 
L 262.452093 191.063255 
L 263.065952 190.935261 
L 264.70291 189.832055 
L 265.316769 188.660689 
L 266.749107 185.692589 
L 267.362967 185.000246 
L 267.772206 183.875214 
L 268.386065 180.850423 
L 269.409164 176.215788 
L 269.818403 175.438677 
L 270.023023 175.425795 
L 270.227643 175.580622 
L 270.636882 176.332928 
L 271.864601 179.221362 
L 272.47846 180.072363 
L 273.296939 180.798324 
L 273.501558 180.732369 
L 275.752375 178.443148 
L 276.570854 178.32526 
L 276.980094 177.563879 
L 279.026291 171.719302 
L 279.84477 169.560198 
L 280.458629 167.460868 
L 281.072488 164.611663 
L 282.914066 154.606125 
L 283.732545 151.106973 
L 285.369503 143.094372 
L 285.778742 142.303275 
L 286.392601 141.54219 
L 286.801841 140.358191 
L 287.4157 138.25325 
L 288.438798 135.831728 
L 289.052658 133.200481 
L 289.461897 131.479511 
L 289.666517 131.098471 
L 289.871137 131.137426 
L 290.484996 131.95889 
L 290.689615 131.911192 
L 291.098855 131.239478 
L 291.508094 129.966974 
L 292.531193 126.174289 
L 292.735813 125.835775 
L 292.940432 125.782869 
L 293.349672 126.338356 
L 293.758911 126.914164 
L 293.963531 126.945682 
L 294.78201 126.438225 
L 294.98663 126.934437 
L 295.395869 128.99296 
L 296.418968 136.065878 
L 297.851306 146.367594 
L 298.465165 148.867787 
L 299.079024 150.342187 
L 299.897503 151.653635 
L 301.125221 153.228806 
L 301.534461 154.55501 
L 302.14832 157.618519 
L 302.762179 160.358923 
L 303.171419 161.22168 
L 303.785278 161.931627 
L 304.194517 161.919705 
L 304.603757 161.619292 
L 305.831475 160.264452 
L 306.240715 160.195117 
L 306.649954 160.405625 
L 307.468433 161.210304 
L 308.082292 161.398594 
L 308.696151 161.492556 
L 308.900771 161.689968 
L 309.310011 162.556105 
L 310.742349 166.761728 
L 311.560828 169.891429 
L 312.788546 172.826327 
L 313.402405 174.341984 
L 313.811645 174.626134 
L 314.834743 174.926511 
L 315.039363 174.812016 
L 315.448602 174.114762 
L 316.676321 170.931266 
L 317.29018 169.644954 
L 318.722518 165.811333 
L 319.540997 164.909727 
L 319.950236 164.576492 
L 320.154856 164.56546 
L 320.359476 164.776929 
L 320.768715 165.766671 
L 322.201053 170.188829 
L 322.610293 170.595326 
L 323.019532 170.507201 
L 323.428772 170.147322 
L 323.838011 169.517506 
L 324.86111 167.617284 
L 325.06573 167.663002 
L 325.679589 168.18671 
L 325.884208 168.0897 
L 326.293448 167.340513 
L 326.702687 165.989505 
L 327.316547 162.812058 
L 328.339645 157.432839 
L 328.748885 156.392563 
L 329.158124 155.740884 
L 329.567364 154.260173 
L 331.204321 146.338627 
L 331.613561 142.651208 
L 333.045899 126.651652 
L 333.455138 125.492136 
L 334.068998 124.951915 
L 334.273617 124.325005 
L 334.682857 121.579844 
L 335.092096 116.266864 
L 335.705955 103.383177 
L 336.729054 79.459855 
L 337.547533 67.487655 
L 338.161392 57.914403 
L 338.775251 44.533211 
L 339.59373 26.677703 
L 340.00297 22.045275 
L 340.412209 20.18325 
L 340.616829 20.336891 
L 340.821448 21.177192 
L 341.639927 25.746774 
L 341.844547 25.669206 
L 342.049167 25.000398 
L 342.458406 22.281002 
L 342.867646 17.821123 
L 343.890744 4.721495 
L 344.095364 3.815085 
L 344.504604 3.281709 
L 344.913843 3.00024 
L 345.118463 3.257948 
L 345.323082 4.210135 
L 345.527702 6.141767 
L 345.936942 13.464398 
L 346.550801 31.03877 
L 347.36928 54.548702 
L 347.983139 66.657733 
L 348.596998 74.551878 
L 349.006238 77.803713 
L 349.415477 79.477768 
L 349.620097 79.514125 
L 349.824716 78.903798 
L 350.233956 75.845046 
L 350.643195 70.674414 
L 351.666294 54.77469 
L 351.870914 55.02126 
L 352.075533 57.276781 
L 352.484773 65.711324 
L 353.507872 89.025374 
L 354.121731 98.371001 
L 355.144829 109.787405 
L 355.963308 116.550978 
L 356.781787 120.959719 
L 357.395646 123.394704 
L 358.827984 128.113359 
L 359.851083 132.826499 
L 360.669562 137.352747 
L 361.283421 139.402908 
L 361.89728 140.877605 
L 362.30652 141.499308 
L 362.51114 141.601822 
L 362.715759 141.543851 
L 363.124999 141.06618 
L 364.148097 139.360916 
L 364.352717 139.315364 
L 364.557337 139.432682 
L 364.966576 140.214171 
L 365.375816 141.682723 
L 366.194295 145.103109 
L 366.808154 146.658861 
L 367.217393 147.256768 
L 367.422013 147.242628 
L 367.626633 146.997779 
L 368.035872 145.969816 
L 368.649731 143.316659 
L 369.058971 141.684763 
L 369.263591 141.408941 
L 369.46821 141.539557 
L 369.87745 142.682762 
L 370.491309 145.830375 
L 371.105168 149.378352 
L 371.514408 150.583015 
L 372.128267 151.370209 
L 372.537506 151.540552 
L 373.560605 151.305156 
L 373.969844 150.888742 
L 374.992943 149.056967 
L 375.402182 147.987853 
L 376.220661 145.268078 
L 377.03914 143.002498 
L 377.44838 141.104353 
L 378.266858 135.528967 
L 378.880718 129.982833 
L 379.494577 121.872724 
L 380.722295 103.404244 
L 380.926915 102.463623 
L 381.131535 102.717192 
L 381.336154 104.105946 
L 381.745394 109.449685 
L 382.973112 127.742058 
L 383.586971 133.458984 
L 384.40545 138.926957 
L 385.019309 141.942009 
L 385.428549 143.080339 
L 385.837788 143.508235 
L 386.042408 143.363705 
L 387.270126 141.231457 
L 388.293225 140.638331 
L 388.702465 139.888966 
L 389.111704 138.619522 
L 389.520943 136.435365 
L 390.134803 131.432264 
L 390.953282 124.839033 
L 391.362521 122.880296 
L 391.77176 121.621255 
L 392.181 120.907821 
L 392.794859 120.356651 
L 393.204099 119.335557 
L 393.613338 117.371623 
L 394.227197 113.025563 
L 395.250296 105.285794 
L 395.659535 103.856992 
L 395.864155 103.642771 
L 396.068775 103.738749 
L 396.478014 104.674411 
L 397.091873 106.856659 
L 397.910352 111.242968 
L 399.138071 118.66058 
L 399.95655 125.457866 
L 400.570409 130.469876 
L 401.184268 133.529304 
L 402.002747 136.670013 
L 402.411986 137.575438 
L 402.616606 137.667395 
L 402.821226 137.520741 
L 403.230465 136.779846 
L 404.458184 133.901958 
L 405.072043 131.402964 
L 406.91362 123.183638 
L 408.755198 117.945189 
L 408.959818 117.774965 
L 409.164437 117.778702 
L 409.573677 118.145318 
L 409.982916 119.091419 
L 410.392156 120.743303 
L 411.006015 124.404185 
L 412.233733 132.754103 
L 413.256832 138.180926 
L 413.870691 140.309615 
L 414.48455 141.985484 
L 415.303029 144.672638 
L 415.712268 145.279335 
L 416.326128 145.655299 
L 416.530747 145.568835 
L 416.939987 144.959065 
L 417.553846 143.839015 
L 417.963085 143.659242 
L 418.576945 143.713192 
L 418.986184 144.048231 
L 420.827762 146.288591 
L 421.441621 146.892038 
L 421.85086 147.707856 
L 422.2601 149.129457 
L 424.510917 159.026088 
L 425.124776 160.814625 
L 425.738635 162.172194 
L 426.147875 162.635915 
L 426.966353 162.965936 
L 427.580213 163.016872 
L 427.989452 163.327404 
L 428.603311 164.103969 
L 429.62641 165.847952 
L 430.035649 165.974914 
L 430.444889 165.715545 
L 430.854128 165.457042 
L 431.058748 165.533198 
L 431.263368 165.83106 
L 431.672607 167.031773 
L 432.286466 168.839421 
L 432.695706 169.303806 
L 433.309565 169.710766 
L 434.332664 171.204205 
L 435.151143 172.38626 
L 436.174241 172.867881 
L 436.99272 173.671516 
L 437.606579 174.175118 
L 438.425058 175.111942 
L 439.448157 175.871248 
L 439.857396 175.742222 
L 440.675875 175.073129 
L 441.085115 175.201123 
L 441.903594 175.783242 
L 442.722072 176.854502 
L 444.154411 177.732359 
L 444.972889 177.852963 
L 445.382129 178.271904 
L 446.609847 179.810361 
L 447.019087 179.902661 
L 448.042185 179.303568 
L 449.679143 180.104273 
L 450.702242 179.868616 
L 451.111481 179.820242 
L 451.92996 179.359143 
L 453.157678 179.51187 
L 453.566918 179.593826 
L 453.976157 179.62347 
L 454.385397 179.902898 
L 454.999256 180.370356 
L 455.817735 180.811598 
L 456.226974 180.966163 
L 457.045453 180.789878 
L 457.454693 180.928216 
L 457.863932 181.296125 
L 458.477791 181.95931 
L 458.682411 181.973699 
L 459.29627 181.517843 
L 459.910129 181.237051 
L 460.523989 180.894432 
L 461.342468 180.225932 
L 462.365566 180.409371 
L 463.184045 179.761678 
L 463.388665 179.806695 
L 463.797904 180.252445 
L 464.411763 181.292851 
L 464.821003 181.456729 
L 466.048721 181.240408 
L 467.07182 181.540607 
L 467.481059 181.209103 
L 467.890299 180.823709 
L 468.913397 180.42879 
L 469.118017 180.492609 
L 470.141116 181.332198 
L 470.550355 181.327406 
L 470.959595 180.966934 
L 471.573454 180.348055 
L 471.982693 180.244094 
L 472.596553 180.160263 
L 473.005792 179.773552 
L 474.028891 178.248274 
L 475.461229 176.975711 
L 475.870468 176.480804 
L 476.075088 176.357448 
L 476.279708 176.376534 
L 476.893567 176.918084 
L 478.530525 178.677523 
L 479.553623 180.682417 
L 479.758243 180.783271 
L 480.167482 180.586107 
L 480.985961 179.94724 
L 481.395201 179.860052 
L 482.21368 180.03992 
L 482.622919 179.872199 
L 484.669116 178.384038 
L 485.078356 178.354287 
L 485.896835 178.682909 
L 486.715314 177.852856 
L 487.124553 177.637923 
L 487.738412 177.124132 
L 488.147652 177.246135 
L 488.556891 177.708421 
L 489.17075 179.053178 
L 489.57999 179.856315 
L 490.603089 181.060481 
L 491.012328 181.082521 
L 491.421567 181.077325 
L 492.240046 181.469362 
L 492.649286 181.447725 
L 492.853905 181.593774 
L 494.081624 183.282194 
L 495.104722 183.552761 
L 495.718582 184.255199 
L 496.127821 184.346586 
L 497.355539 184.043717 
L 497.764779 184.462599 
L 498.378638 185.220706 
L 498.583258 185.255546 
L 498.787878 185.10257 
L 499.810976 183.770814 
L 501.243314 183.483236 
L 502.266413 183.315313 
L 504.10799 182.056166 
L 504.51723 182.603801 
L 505.744948 184.874648 
L 506.154188 185.161893 
L 506.563427 185.06779 
L 507.381906 184.55554 
L 507.791146 184.497723 
L 508.200385 184.72682 
L 509.018864 185.588331 
L 509.428103 185.898115 
L 509.632723 185.783074 
L 510.655822 184.658006 
L 511.065061 184.679631 
L 511.474301 184.893615 
L 511.88354 185.377846 
L 512.702019 186.591762 
L 513.111258 186.741026 
L 513.725118 186.75118 
L 515.362075 187.083383 
L 515.771315 186.83163 
L 516.589794 186.796043 
L 517.817512 185.937403 
L 518.431371 185.897142 
L 518.840611 185.573942 
L 519.24985 185.16557 
L 519.65909 185.112404 
L 520.272949 185.352129 
L 520.886808 185.423255 
L 521.909907 185.892955 
L 523.137625 186.615036 
L 523.546865 186.806185 
L 523.956104 186.548596 
L 524.365343 186.133925 
L 524.569963 186.099465 
L 525.388442 186.592605 
L 526.82078 186.41091 
L 527.843879 186.772793 
L 528.253118 186.482238 
L 528.662358 185.785399 
L 529.071597 185.066603 
L 529.480837 184.859405 
L 530.503935 184.920472 
L 530.913175 185.019984 
L 531.936273 185.587643 
L 532.345513 185.939099 
L 533.163992 186.273651 
L 534.39171 187.331353 
L 534.59633 187.318862 
L 534.800949 187.128792 
L 535.210189 186.227673 
L 535.619428 185.228037 
L 536.028668 184.819512 
L 536.437907 184.881219 
L 537.051766 185.197231 
L 537.870245 185.875897 
L 538.688724 186.904417 
L 539.507203 188.210883 
L 539.916443 188.382376 
L 540.325682 188.266007 
L 540.734922 188.032296 
L 541.144161 188.113932 
L 541.348781 188.167455 
L 541.5534 188.104834 
L 542.371879 187.452004 
L 542.781119 187.764683 
L 543.190358 188.149199 
L 543.599598 188.271203 
L 544.008837 188.127301 
L 544.418077 187.524934 
L 544.827316 186.815912 
L 545.441175 186.331753 
L 545.850415 186.138077 
L 546.259654 186.271706 
L 547.282753 187.403559 
L 547.896612 188.130302 
L 548.305851 188.111667 
L 551.170528 186.853848 
L 551.579767 186.719638 
L 551.989007 186.805616 
L 552.602866 186.991498 
L 553.012105 186.826019 
L 553.421345 186.62073 
L 554.035204 186.68169 
L 554.649063 186.834334 
L 555.058302 187.2642 
L 555.467542 187.796284 
L 555.876781 188.0271 
L 556.490641 188.124596 
L 556.89988 187.854516 
L 557.922979 187.008354 
L 558.127598 186.987465 
L 558.332218 187.129089 
L 559.355317 188.562647 
L 560.173796 188.272804 
L 560.583035 188.758435 
L 560.992275 189.285832 
L 561.196894 189.354539 
L 561.401514 189.237636 
L 561.810753 188.495507 
L 562.219993 187.605775 
L 562.424613 187.363488 
L 562.629232 187.299396 
L 563.038472 187.486488 
L 564.06157 188.153623 
L 564.880049 187.961988 
L 565.289289 188.456409 
L 565.903148 189.305132 
L 566.517007 189.595355 
L 566.926247 189.6787 
L 567.335486 189.575948 
L 567.744726 189.288086 
L 568.972444 187.990813 
L 569.381683 187.873578 
L 570.404782 187.819083 
L 571.427881 187.46911 
L 572.04174 187.669357 
L 573.269458 187.456951 
L 573.883317 187.11489 
L 574.292557 186.99756 
L 574.906416 186.937714 
L 575.315655 186.600778 
L 576.134134 185.559944 
L 576.747993 184.812406 
L 577.157233 184.631293 
L 577.771092 184.746642 
L 578.99881 184.248105 
L 579.61267 183.985284 
L 580.635768 183.973422 
L 581.454247 183.964015 
L 581.863487 183.617019 
L 582.477346 182.855471 
L 582.886585 182.777856 
L 583.295825 182.791415 
L 583.500444 182.608807 
L 583.909684 181.743203 
L 584.932783 179.123403 
L 585.342022 178.747558 
L 585.955881 178.46851 
L 586.365121 178.19181 
L 586.77436 178.246673 
L 587.1836 178.770773 
L 587.797459 180.336797 
L 588.615938 182.246366 
L 589.434417 183.479487 
L 590.048276 184.212992 
L 590.866755 185.47628 
L 591.275994 185.611688 
L 591.685234 185.289128 
L 592.708332 183.783423 
L 593.117572 183.246619 
L 594.34529 182.733088 
L 594.754529 182.960986 
L 595.368389 183.897657 
L 595.777628 184.391473 
L 597.005346 185.119687 
L 597.209966 185.080328 
L 597.414586 184.898028 
L 597.823825 183.911749 
L 599.256163 178.533112 
L 600.483882 172.652105 
L 601.097741 170.406869 
L 601.50698 169.562511 
L 601.7116 169.439974 
L 601.91622 169.496047 
L 602.12084 169.699438 
L 602.530079 170.632289 
L 603.348558 173.972059 
L 604.167037 177.452195 
L 604.576276 178.493883 
L 606.213234 181.108736 
L 606.622474 181.356504 
L 607.031713 181.245153 
L 608.054812 180.585099 
L 608.464051 180.87206 
L 608.873291 181.196055 
L 609.28253 181.140148 
L 609.691769 181.078452 
L 610.101009 181.288331 
L 611.533347 182.459235 
L 611.942586 182.574679 
L 612.761065 182.672211 
L 613.374925 182.877203 
L 613.784164 182.912932 
L 614.193403 183.139656 
L 615.216502 184.059032 
L 615.421122 184.055722 
L 615.830361 183.758678 
L 616.44422 183.215611 
L 617.05808 183.046276 
L 617.467319 183.142788 
L 618.081178 183.452513 
L 618.490418 183.226049 
L 619.513516 182.088301 
L 619.718136 182.14314 
L 620.127376 182.671736 
L 620.741235 183.635216 
L 620.945854 183.721893 
L 621.355094 183.437898 
L 622.173573 182.44385 
L 622.378193 182.393565 
L 622.787432 182.638664 
L 624.01515 183.771715 
L 624.42439 183.719557 
L 624.833629 183.597019 
L 625.242869 183.692534 
L 626.061348 184.135449 
L 626.879827 184.064417 
L 627.289066 184.323193 
L 627.902925 185.04327 
L 628.312165 185.464334 
L 628.516784 185.416505 
L 629.539883 184.507166 
L 630.562982 184.527248 
L 631.176841 183.959851 
L 631.7907 183.262656 
L 631.99532 183.24344 
L 632.609179 183.603757 
L 633.018418 184.040123 
L 634.246137 185.785482 
L 634.655376 185.931839 
L 635.269235 185.915137 
L 636.292334 186.386272 
L 636.701573 186.133166 
L 637.724672 185.018039 
L 638.338531 184.048391 
L 638.747771 183.542037 
L 639.15701 183.482216 
L 639.770869 183.797658 
L 640.589348 184.385731 
L 640.998588 184.17807 
L 641.407827 183.65486 
L 642.226306 182.358299 
L 642.430926 182.350766 
L 642.840165 182.844985 
L 643.249405 183.531693 
L 643.454024 183.688881 
L 643.658644 183.685618 
L 644.477123 183.289738 
L 645.090982 183.24465 
L 645.704841 183.127984 
L 646.318701 183.345171 
L 646.72794 183.407471 
L 647.751039 182.983359 
L 648.160278 183.170759 
L 648.569518 183.038744 
L 648.978757 182.842577 
L 649.592616 183.030808 
L 650.001856 182.736326 
L 650.411095 182.502995 
L 650.820335 182.408595 
L 651.843433 181.803404 
L 652.457292 181.450453 
L 652.866532 181.386516 
L 653.480391 181.588341 
L 654.29887 181.285627 
L 656.140447 182.18811 
L 656.549687 182.362771 
L 656.754307 182.303436 
L 657.368166 181.63076 
L 657.777405 181.328995 
L 658.186645 181.427061 
L 658.800504 181.819501 
L 659.209743 181.836085 
L 659.618983 181.477381 
L 660.028222 180.935238 
L 660.232842 180.807612 
L 660.642081 180.926864 
L 661.051321 181.013707 
L 661.46056 180.713852 
L 662.07442 179.588453 
L 662.483659 178.913168 
L 662.892898 178.73566 
L 664.529856 179.204411 
L 665.552955 178.350598 
L 666.371434 177.544365 
L 666.985293 175.846479 
L 668.622251 171.283908 
L 669.03149 170.900756 
L 669.23611 170.891836 
L 669.44073 171.047208 
L 669.849969 171.804438 
L 670.873068 174.213682 
L 671.691547 175.640858 
L 672.510026 177.454829 
L 672.919265 177.986829 
L 673.737744 178.277277 
L 674.146983 178.607144 
L 674.556223 178.655554 
L 675.170082 178.576267 
L 676.193181 178.707475 
L 676.60242 178.586563 
L 677.216279 178.207741 
L 677.625519 178.21264 
L 678.034758 178.581581 
L 678.443998 178.987959 
L 678.648617 179.042324 
L 679.057857 178.788803 
L 679.876336 177.717045 
L 680.899434 176.04299 
L 681.308674 176.02649 
L 682.331773 176.500661 
L 683.150251 177.30279 
L 683.764111 177.930436 
L 684.787209 178.009249 
L 685.401068 178.579885 
L 686.424167 179.562937 
L 686.833406 179.570303 
L 687.447266 179.437113 
L 687.856505 179.047401 
L 688.265745 177.986924 
L 689.493463 173.1312 
L 690.516562 167.264013 
L 690.721181 166.981928 
L 690.925801 167.174228 
L 691.33504 168.751355 
L 692.358139 173.996424 
L 692.767379 174.978041 
L 693.381238 175.640728 
L 693.995097 176.017961 
L 694.608956 176.050594 
L 695.222815 176.252206 
L 695.632055 176.136975 
L 696.450534 175.645995 
L 696.859773 175.297208 
L 697.473632 174.426741 
L 698.701351 172.358656 
L 699.11059 170.829962 
L 700.133689 165.819435 
L 700.338308 165.508144 
L 700.542928 165.703991 
L 700.952168 167.077111 
L 702.179886 171.673122 
L 702.589125 172.410969 
L 703.202985 172.982008 
L 703.816844 173.085886 
L 704.430703 172.994546 
L 704.839942 172.782282 
L 705.658421 171.879099 
L 706.067661 171.895955 
L 706.4769 171.968315 
L 707.090759 171.742161 
L 707.499999 171.448545 
L 708.727717 169.992567 
L 709.136957 169.616591 
L 709.341576 169.553875 
L 709.546196 169.653542 
L 709.955436 170.439526 
L 710.569295 171.909597 
L 711.183154 172.57729 
L 711.797013 173.168412 
L 712.206253 173.236952 
L 712.820112 173.147451 
L 713.229351 173.401874 
L 713.84321 174.011359 
L 714.25245 174.124228 
L 715.275549 173.987764 
L 716.094027 174.235639 
L 716.503267 174.096103 
L 717.117126 173.575431 
L 718.344844 172.341527 
L 718.754084 172.501348 
L 719.163323 173.002731 
L 719.981802 174.218996 
L 720.186422 174.302803 
L 720.391042 174.241879 
L 721.004901 173.585372 
L 721.41414 173.182765 
L 721.61876 173.139302 
L 721.82338 173.325303 
L 722.641859 174.778125 
L 723.051098 174.479836 
L 723.460338 174.146268 
L 724.483436 173.868987 
L 724.892676 173.354318 
L 725.506535 172.331764 
L 725.915774 172.04835 
L 726.120394 172.053107 
L 726.529633 172.450162 
L 727.143493 173.450889 
L 727.348112 173.598468 
L 727.552732 173.589547 
L 727.961972 173.224343 
L 728.575831 172.46219 
L 728.78045 172.497196 
L 729.18969 173.232385 
L 729.598929 174.047977 
L 730.008169 174.256944 
L 730.622028 174.111203 
L 731.849746 173.319229 
L 733.282084 171.906987 
L 733.895944 171.925694 
L 734.509803 172.080141 
L 734.919042 171.83923 
L 735.328282 171.312757 
L 735.942141 170.041606 
L 736.76062 168.449235 
L 737.169859 168.071492 
L 737.374479 168.206129 
L 737.988338 169.343652 
L 738.602197 170.335174 
L 739.011437 170.61077 
L 739.216057 170.562337 
L 739.420676 170.318151 
L 740.034535 169.075611 
L 740.239155 168.969195 
L 740.648395 169.328812 
L 741.262254 169.986754 
L 741.466874 170.031167 
L 741.671493 169.940254 
L 742.080733 169.255942 
L 742.694592 167.857271 
L 743.513071 166.826757 
L 743.92231 166.741527 
L 744.33155 166.682725 
L 744.740789 166.079705 
L 745.354648 164.468651 
L 746.377747 161.042725 
L 746.582367 160.758374 
L 746.786986 160.767069 
L 746.991606 161.112784 
L 747.605465 163.394378 
L 748.014705 164.748542 
L 748.423944 165.437042 
L 749.037803 166.191258 
L 749.651663 167.167193 
L 749.856282 167.23692 
L 750.265522 166.955036 
L 750.879381 166.418599 
L 751.28862 166.476891 
L 751.69786 166.916602 
L 752.107099 167.4433 
L 752.311719 167.555731 
L 752.720959 167.369268 
L 753.130198 167.141689 
L 753.744057 167.045391 
L 753.948677 166.878785 
L 754.357916 165.897406 
L 754.971776 163.100039 
L 755.994874 158.196047 
L 756.199494 157.879348 
L 756.404114 157.959205 
L 756.813353 159.012553 
L 757.427212 161.672293 
L 758.041071 164.366054 
L 758.450311 165.310222 
L 758.85955 165.671037 
L 759.47341 165.792033 
L 759.882649 165.552272 
L 760.496508 165.061968 
L 761.110367 164.994898 
L 761.519607 165.127922 
L 762.338086 165.862447 
L 762.542705 165.769151 
L 762.951945 165.162347 
L 763.770424 163.564922 
L 764.793522 162.292454 
L 765.612001 161.048324 
L 765.816621 160.947993 
L 766.6351 161.148288 
L 767.044339 161.422853 
L 767.862818 162.229821 
L 768.681297 162.300971 
L 769.704396 162.875391 
L 770.113635 163.005983 
L 770.522875 163.248935 
L 770.932114 163.182838 
L 771.341354 163.122921 
L 772.364452 163.68179 
L 772.978311 163.537354 
L 773.592171 163.838775 
L 774.00141 163.60529 
L 774.615269 162.986363 
L 775.024509 162.14548 
L 775.433748 161.277575 
L 775.638368 161.096711 
L 775.842988 161.098834 
L 776.252227 161.46991 
L 776.661467 161.771557 
L 777.070706 161.505616 
L 777.479945 161.25926 
L 777.889185 161.281513 
L 778.298424 161.520207 
L 779.116903 162.226179 
L 780.140002 162.830575 
L 780.549241 163.043574 
L 781.163101 163.531293 
L 781.57234 163.584982 
L 781.981579 163.288211 
L 782.390819 162.986469 
L 782.800058 163.026849 
L 783.209298 163.482657 
L 784.232396 165.288265 
L 785.460115 166.500378 
L 785.869354 166.669819 
L 786.278594 166.531849 
L 786.892453 165.997049 
L 787.301692 166.000928 
L 787.710932 165.965685 
L 788.120171 165.781096 
L 788.529411 165.906101 
L 789.14327 166.625169 
L 789.552509 167.087324 
L 789.961749 167.138558 
L 790.575608 166.9213 
L 792.621805 166.884491 
L 793.235664 167.302542 
L 794.668003 167.253836 
L 795.077242 167.331723 
L 795.895721 167.869572 
L 796.30496 168.158905 
L 796.91882 169.208706 
L 797.737298 170.750817 
L 798.146538 171.072985 
L 798.760397 171.120173 
L 799.169637 171.476801 
L 799.783496 172.134138 
L 800.192735 172.117389 
L 800.601975 172.163023 
L 801.420453 172.76029 
L 801.829693 173.304211 
L 803.057411 175.277457 
L 803.466651 175.129676 
L 803.87589 174.953533 
L 804.08051 174.958397 
L 804.489749 175.294064 
L 805.512848 176.567327 
L 806.740566 178.940249 
L 807.149806 179.205431 
L 807.559045 179.207353 
L 808.377524 178.935445 
L 808.991383 179.064483 
L 809.605243 178.890155 
L 810.423721 179.062929 
L 811.2422 178.619778 
L 811.44682 178.62578 
L 811.65144 178.748863 
L 812.060679 179.458323 
L 812.879158 181.194714 
L 813.083778 181.328746 
L 813.493017 181.173303 
L 813.902257 180.998856 
L 815.129975 181.230313 
L 815.539215 181.202686 
L 815.948454 181.092817 
L 816.153074 181.183433 
L 816.562313 181.844305 
L 816.971553 182.541761 
L 817.380792 182.843301 
L 817.994651 182.998614 
L 818.403891 183.053168 
L 818.81313 183.667398 
L 819.22237 184.328211 
L 819.426989 184.399136 
L 820.450088 184.124654 
L 820.654708 184.277903 
L 821.063947 185.008217 
L 821.677806 186.311907 
L 821.882426 186.522131 
L 822.087046 186.542083 
L 822.496285 186.097721 
L 823.110145 185.354027 
L 823.519384 185.287942 
L 824.542483 185.470396 
L 824.951722 185.65368 
L 825.360962 185.585626 
L 826.17944 185.161703 
L 826.38406 185.219081 
L 827.407159 186.054673 
L 827.816398 185.903298 
L 828.430257 185.693454 
L 829.044117 185.729041 
L 829.453356 185.361856 
L 830.067215 184.051096 
L 830.476455 183.332597 
L 831.090314 182.926052 
L 831.704173 182.627834 
L 832.113413 182.661369 
L 832.318032 182.564418 
L 832.727272 181.86204 
L 833.545751 180.252018 
L 834.36423 178.796799 
L 835.182708 177.022745 
L 835.591948 176.423592 
L 838.456624 168.682969 
L 841.11668 157.486978 
L 841.935159 152.655418 
L 845.209075 130.909113 
L 846.436793 120.735177 
L 848.68761 99.243876 
L 851.143047 67.380313 
L 852.575385 45.277356 
L 855.596215 -1 
M 947.946132 -1 
L 949.565136 61.338039 
L 950.383615 86.792581 
L 951.202094 106.006927 
L 952.020572 118.932986 
L 952.634432 125.562052 
L 953.65753 133.474714 
L 954.680629 139.815977 
L 955.499108 143.766596 
L 956.317587 146.914055 
L 956.931446 149.615811 
L 957.545305 150.920771 
L 958.159164 152.479903 
L 959.386883 155.657611 
L 959.796122 156.088354 
L 960.205361 156.510652 
L 960.819221 157.660227 
L 961.02384 157.832812 
L 961.43308 157.797035 
L 961.842319 157.723774 
L 962.046939 157.828043 
L 962.456178 158.528927 
L 963.683897 161.798828 
L 964.297756 162.575441 
L 964.911615 163.020075 
L 965.525474 163.453986 
L 965.934714 163.724506 
L 966.343953 163.612502 
L 966.957812 163.248472 
L 967.162432 163.314877 
L 968.185531 164.471546 
L 968.79939 165.322523 
L 969.617869 166.704125 
L 971.459446 167.738007 
L 972.277925 168.751166 
L 972.687165 169.124626 
L 974.324123 171.661782 
L 974.937982 172.90686 
L 975.347221 173.092078 
L 975.756461 173.124308 
L 976.57494 173.667008 
L 977.598038 173.765335 
L 978.211897 174.0378 
L 978.621137 174.012023 
L 979.030376 174.290324 
L 980.053475 175.221123 
L 980.462714 175.434715 
L 980.871954 175.35041 
L 981.281193 175.02097 
L 981.690433 174.311558 
L 982.508912 172.768249 
L 982.918151 172.5471 
L 983.53201 172.651999 
L 983.94125 172.789744 
L 984.350489 173.313927 
L 985.373588 175.188502 
L 986.396687 175.896254 
L 986.805926 176.252894 
L 987.010546 176.245337 
L 987.419785 175.809742 
L 987.829025 175.412924 
L 988.238264 175.400991 
L 988.852123 175.90763 
L 989.465982 176.399832 
L 989.670602 176.336226 
L 990.079842 175.718473 
L 990.693701 174.53566 
L 990.898321 174.416776 
L 991.30756 174.645291 
L 991.716799 174.898528 
L 992.126039 174.76758 
L 992.535278 174.593619 
L 992.944518 174.722207 
L 993.558377 175.301988 
L 994.376856 176.231577 
L 994.786095 176.201245 
L 995.399954 175.985114 
L 995.604574 176.057616 
L 996.013814 176.552108 
L 997.036912 178.062617 
L 997.446152 177.9883 
L 997.855391 177.414236 
L 998.46925 176.313534 
L 998.87849 176.069455 
L 999.492349 176.291553 
L 999.696969 176.204021 
L 1000.106208 175.667821 
L 1002.357025 172.232595 
L 1002.561645 172.193984 
L 1002.766265 172.410684 
L 1003.175504 173.540734 
L 1004.403222 178.333967 
L 1004.812462 178.896952 
L 1005.630941 179.698796 
L 1007.063279 181.524178 
L 1007.267899 181.530702 
L 1007.677138 181.120183 
L 1008.290997 180.181057 
L 1008.495617 180.041319 
L 1008.700237 180.082754 
L 1009.109476 180.577377 
L 1009.518716 181.076495 
L 1009.723335 181.128084 
L 1009.927955 180.969331 
L 1011.769533 178.130707 
L 1012.178772 178.031597 
L 1013.201871 178.548236 
L 1013.61111 178.870962 
L 1014.02035 179.414077 
L 1015.043448 181.232757 
L 1015.452688 181.475934 
L 1015.657307 181.417832 
L 1016.680406 180.573806 
L 1017.089646 180.901443 
L 1017.703505 181.509729 
L 1018.112744 181.576194 
L 1018.931223 181.276967 
L 1019.340463 181.619183 
L 1019.749702 181.9588 
L 1020.363561 182.042536 
L 1020.772801 181.931956 
L 1021.38666 181.575352 
L 1021.59128 181.607237 
L 1022.614378 182.386199 
L 1023.023618 182.372403 
L 1023.637477 182.18505 
L 1024.455956 182.336745 
L 1025.683674 181.890841 
L 1026.297533 181.52056 
L 1027.116012 181.352234 
L 1027.525252 181.452802 
L 1028.139111 182.028562 
L 1029.162209 183.180415 
L 1029.776069 182.867832 
L 1030.185308 182.778995 
L 1030.799167 182.849125 
L 1031.413026 182.674512 
L 1032.231505 182.908899 
L 1032.845364 182.475047 
L 1033.663843 181.948682 
L 1033.868463 181.935016 
L 1034.073083 182.059298 
L 1034.482322 182.699245 
L 1035.096181 183.790505 
L 1035.505421 184.03131 
L 1035.91466 183.967384 
L 1036.937759 183.572725 
L 1037.346998 183.664515 
L 1037.551618 183.544706 
L 1037.960858 182.848117 
L 1038.370097 182.053426 
L 1038.574717 181.835765 
L 1038.779337 181.804258 
L 1039.188576 182.216995 
L 1039.597815 182.62819 
L 1041.439393 182.889753 
L 1042.053252 182.885412 
L 1043.280971 183.186833 
L 1043.69021 183.128031 
L 1043.89483 183.23733 
L 1044.304069 183.85073 
L 1044.713309 184.533785 
L 1045.122548 184.842014 
L 1045.327168 184.813343 
L 1045.736407 184.296384 
L 1046.350266 183.297128 
L 1046.554886 183.212455 
L 1046.964126 183.635785 
L 1047.168745 183.852889 
L 1047.373365 183.857218 
L 1047.782605 183.337579 
L 1048.191844 182.836634 
L 1048.805703 182.524134 
L 1050.033422 182.104268 
L 1050.442661 182.514442 
L 1050.8519 182.873538 
L 1051.46576 182.936835 
L 1052.079619 182.860548 
L 1052.284239 182.970156 
L 1052.693478 183.589071 
L 1053.307337 184.721956 
L 1054.739675 186.355121 
L 1054.944295 186.407861 
L 1055.353534 186.047247 
L 1055.967394 185.038264 
L 1056.581253 183.667339 
L 1056.990492 183.338433 
L 1057.604351 183.197224 
L 1058.013591 183.380236 
L 1058.62745 184.028095 
L 1059.650549 185.485864 
L 1059.855168 185.56183 
L 1060.059788 185.5117 
L 1060.469028 185.037102 
L 1061.082887 184.180098 
L 1061.492126 184.130466 
L 1061.901366 184.062745 
L 1062.515225 183.60384 
L 1063.129084 183.012338 
L 1063.742943 182.934854 
L 1064.356802 183.042077 
L 1066.19838 183.866791 
L 1066.812239 184.183301 
L 1067.221479 183.943873 
L 1067.630718 183.64486 
L 1068.858436 183.659557 
L 1069.267676 183.879152 
L 1069.676915 184.157489 
L 1070.086155 184.078842 
L 1070.700014 183.599996 
L 1071.313873 183.065517 
L 1071.518493 183.009646 
L 1071.723113 183.082646 
L 1072.132352 183.59002 
L 1072.746211 184.376336 
L 1073.155451 184.483583 
L 1073.56469 184.190632 
L 1074.178549 183.687599 
L 1074.587789 183.5339 
L 1074.792408 183.629462 
L 1075.201648 184.308828 
L 1075.815507 185.451926 
L 1076.224747 185.795043 
L 1076.633986 185.912278 
L 1077.043225 185.705103 
L 1077.452465 185.161881 
L 1078.066324 184.224689 
L 1079.498662 183.034331 
L 1079.907902 183.32198 
L 1080.521761 183.890468 
L 1080.726381 183.896281 
L 1081.544859 183.368006 
L 1081.954099 183.511587 
L 1082.158719 183.463307 
L 1082.567958 183.007819 
L 1082.977198 182.556577 
L 1083.181817 182.478915 
L 1083.591057 182.672306 
L 1084.204916 183.426558 
L 1085.023395 184.618896 
L 1085.432634 184.786143 
L 1085.841874 184.782513 
L 1086.251113 184.526323 
L 1086.660353 184.270181 
L 1086.864972 184.308176 
L 1087.478832 184.942725 
L 1087.888071 185.280255 
L 1088.29731 185.337301 
L 1088.91117 185.12531 
L 1089.320409 185.202344 
L 1090.548127 185.908328 
L 1090.957367 185.630679 
L 1091.366606 185.357953 
L 1091.775846 185.537892 
L 1092.185085 185.763122 
L 1092.594325 185.737582 
L 1093.208184 185.57597 
L 1093.617423 185.481807 
L 1094.845142 184.590344 
L 1095.254381 184.938111 
L 1095.663621 185.299567 
L 1095.86824 185.275332 
L 1097.505198 184.010871 
L 1097.914438 183.996517 
L 1098.528297 184.074073 
L 1098.937536 183.692605 
L 1099.346776 183.363557 
L 1099.960635 183.469476 
L 1100.574494 182.993359 
L 1101.188353 182.634512 
L 1101.597593 182.809374 
L 1102.006832 183.167129 
L 1102.211452 183.191803 
L 1102.620691 182.824511 
L 1103.029931 182.400766 
L 1103.43917 182.361715 
L 1103.84841 182.616648 
L 1104.666889 183.335538 
L 1105.076128 183.31166 
L 1105.485368 183.245077 
L 1106.099227 183.349987 
L 1106.508466 183.001698 
L 1107.326945 181.813309 
L 1107.940804 180.771812 
L 1108.963903 179.661109 
L 1109.577762 179.044246 
L 1110.80548 177.072721 
L 1111.623959 176.305859 
L 1112.442438 176.220486 
L 1112.647058 175.874985 
L 1113.056297 174.490145 
L 1115.511734 163.60179 
L 1116.944072 158.937785 
L 1117.967171 154.288619 
L 1118.58103 151.858841 
L 1118.990269 149.117393 
L 1119.399509 144.962007 
L 1119.808748 139.140502 
L 1120.217988 130.796907 
L 1120.627227 118.805217 
L 1121.241086 91.403254 
L 1122.059565 37.171719 
L 1122.468805 14.422896 
L 1122.673425 8.876596 
L 1122.878044 8.452827 
L 1123.082664 13.331007 
L 1123.491903 36.039415 
L 1124.515002 105.404571 
L 1124.924242 122.213967 
L 1125.333481 132.903426 
L 1125.74272 139.476229 
L 1126.970439 152.518515 
L 1128.198157 164.95115 
L 1129.016636 171.253268 
L 1129.630495 174.926452 
L 1130.653594 179.524361 
L 1131.267453 181.297145 
L 1132.495171 183.533152 
L 1132.904411 183.667801 
L 1133.31365 183.832877 
L 1133.72289 184.52554 
L 1134.132129 185.331666 
L 1134.541369 185.646527 
L 1135.359848 185.523456 
L 1136.587566 186.025943 
L 1136.792186 185.990866 
L 1137.201425 185.591937 
L 1137.610665 185.199449 
L 1138.019904 185.078655 
L 1138.429144 185.124705 
L 1139.452242 185.569837 
L 1140.066101 185.20455 
L 1140.679961 184.664863 
L 1141.498439 183.783435 
L 1141.703059 183.820481 
L 1142.930778 184.673392 
L 1143.340017 184.728457 
L 1143.749256 184.600795 
L 1143.953876 184.697342 
L 1145.181595 186.022479 
L 1146.204693 186.640789 
L 1146.818552 187.017405 
L 1147.227792 186.989493 
L 1147.637031 186.634941 
L 1148.45551 185.820262 
L 1148.66013 185.799385 
L 1149.069369 186.130699 
L 1149.887848 187.296288 
L 1150.297088 187.464424 
L 1150.910947 187.303797 
L 1152.138665 186.733042 
L 1152.957144 186.492748 
L 1153.366384 186.687242 
L 1153.980243 187.245351 
L 1155.617201 188.038998 
L 1156.02644 188.418592 
L 1156.435679 188.452802 
L 1157.049539 188.255177 
L 1157.663398 187.962166 
L 1158.072637 188.173018 
L 1158.481877 188.490228 
L 1158.891116 188.525376 
L 1159.504975 188.282543 
L 1160.528074 187.607661 
L 1160.937313 187.241235 
L 1161.141933 187.205304 
L 1161.551173 187.490996 
L 1161.960412 187.873697 
L 1162.165032 187.948346 
L 1162.574271 187.677637 
L 1162.983511 187.302468 
L 1163.39275 187.241555 
L 1164.006609 187.539501 
L 1165.029708 188.455187 
L 1165.438947 188.289589 
L 1166.052807 187.941597 
L 1166.666666 187.829332 
L 1167.894384 188.016329 
L 1168.508243 187.817482 
L 1168.917483 187.913127 
L 1169.531342 188.460726 
L 1169.940581 188.633074 
L 1170.349821 188.296018 
L 1171.1683 187.557448 
L 1171.37292 187.568195 
L 1171.577539 187.731302 
L 1171.986779 188.460632 
L 1172.396018 189.277493 
L 1172.600638 189.504004 
L 1172.805258 189.551536 
L 1174.237596 188.745967 
L 1174.851455 187.866354 
L 1176.079173 187.375125 
L 1176.693032 187.415753 
L 1177.102272 187.035472 
L 1177.511511 186.557896 
L 1177.920751 186.403935 
L 1178.32999 186.580742 
L 1179.966948 187.854468 
L 1180.580807 187.985096 
L 1181.808526 187.626048 
L 1182.217765 187.74855 
L 1183.036244 188.382151 
L 1183.445483 188.276102 
L 1184.468582 187.761017 
L 1184.877822 187.686783 
L 1184.877822 187.686783 
" clip-path="url(#p7743ca21db)" style="fill: none; stroke: #000000; stroke-width: 2; stroke-linecap: square"/>
   </g>
   <g id="patch_3">
    <path d="M 3.00024 198.907885 
L 1184.99976 198.907885 
" style="fill: none; stroke: #000000; stroke-width: 2; stroke-linejoin: miter; stroke-linecap: square"/>
   </g>
  </g>
 </g>
 <defs>
  <clipPath id="p7743ca21db">
   <rect x="3.00024" y="3.00024" width="1181.99952" height="195.907645"/>
  </clipPath>
 </defs>
</svg>
