<?xml version="1.0" encoding="utf-8" standalone="no"?>
<!DOCTYPE svg PUBLIC "-//W3C//DTD SVG 1.1//EN"
  "http://www.w3.org/Graphics/SVG/1.1/DTD/svg11.dtd">
<svg xmlns:xlink="http://www.w3.org/1999/xlink" width="1188pt" height="252pt" viewBox="0 0 1188 252" xmlns="http://www.w3.org/2000/svg" version="1.1">
 <metadata>
  <rdf:RDF xmlns:dc="http://purl.org/dc/elements/1.1/" xmlns:cc="http://creativecommons.org/ns#" xmlns:rdf="http://www.w3.org/1999/02/22-rdf-syntax-ns#">
   <cc:Work>
    <dc:type rdf:resource="http://purl.org/dc/dcmitype/StillImage"/>
    <dc:date>2024-07-23T21:47:23.016587</dc:date>
    <dc:format>image/svg+xml</dc:format>
    <dc:creator>
     <cc:Agent>
      <dc:title>Matplotlib v3.8.4, https://matplotlib.org/</dc:title>
     </cc:Agent>
    </dc:creator>
   </cc:Work>
  </rdf:RDF>
 </metadata>
 <defs>
  <style type="text/css">*{stroke-linejoin: round; stroke-linecap: butt}</style>
 </defs>
 <g id="figure_1">
  <g id="patch_1">
   <path d="M 0 252 
L 1188 252 
L 1188 0 
L 0 0 
z
" style="fill: #ffffff"/>
  </g>
  <g id="axes_1">
   <g id="patch_2">
    <path d="M 3.00024 198.907885 
L 1184.99976 198.907885 
L 1184.99976 3.00024 
L 3.00024 3.00024 
z
" style="fill: #ffffff"/>
   </g>
   <g id="matplotlib.axis_1">
    <g id="xtick_1">
     <g id="line2d_1">
      <defs>
       <path id="m5a406c0d7f" d="M 0 0 
L 0 8 
" style="stroke: #000000; stroke-width: 2"/>
      </defs>
      <g>
       <use xlink:href="#m5a406c0d7f" x="1131.272509" y="198.907885" style="stroke: #000000; stroke-width: 2"/>
      </g>
     </g>
     <g id="text_1">
      <!-- 0 -->
      <g transform="translate(1126.267665 224.791947) scale(0.18 -0.18)">
       <defs>
        <path id="Arial-BoldMT-30" d="M 1756 4600 
Q 2422 4600 2797 4125 
Q 3244 3563 3244 2259 
Q 3244 959 2794 391 
Q 2422 -78 1756 -78 
Q 1088 -78 678 436 
Q 269 950 269 2269 
Q 269 3563 719 4131 
Q 1091 4600 1756 4600 
z
M 1756 3872 
Q 1597 3872 1472 3770 
Q 1347 3669 1278 3406 
Q 1188 3066 1188 2259 
Q 1188 1453 1269 1151 
Q 1350 850 1473 750 
Q 1597 650 1756 650 
Q 1916 650 2041 751 
Q 2166 853 2234 1116 
Q 2325 1453 2325 2259 
Q 2325 3066 2244 3367 
Q 2163 3669 2039 3770 
Q 1916 3872 1756 3872 
z
" transform="scale(0.015625)"/>
       </defs>
       <use xlink:href="#Arial-BoldMT-30"/>
      </g>
     </g>
    </g>
    <g id="xtick_2">
     <g id="line2d_2">
      <g>
       <use xlink:href="#m5a406c0d7f" x="1023.818007" y="198.907885" style="stroke: #000000; stroke-width: 2"/>
      </g>
     </g>
     <g id="text_2">
      <!-- 1 -->
      <g transform="translate(1018.813164 224.791947) scale(0.18 -0.18)">
       <defs>
        <path id="Arial-BoldMT-31" d="M 2519 0 
L 1641 0 
L 1641 3309 
Q 1159 2859 506 2644 
L 506 3441 
Q 850 3553 1253 3867 
Q 1656 4181 1806 4600 
L 2519 4600 
L 2519 0 
z
" transform="scale(0.015625)"/>
       </defs>
       <use xlink:href="#Arial-BoldMT-31"/>
      </g>
     </g>
    </g>
    <g id="xtick_3">
     <g id="line2d_3">
      <g>
       <use xlink:href="#m5a406c0d7f" x="916.363505" y="198.907885" style="stroke: #000000; stroke-width: 2"/>
      </g>
     </g>
     <g id="text_3">
      <!-- 2 -->
      <g transform="translate(911.358662 224.791947) scale(0.18 -0.18)">
       <defs>
        <path id="Arial-BoldMT-32" d="M 3238 816 
L 3238 0 
L 159 0 
Q 209 463 459 877 
Q 709 1291 1447 1975 
Q 2041 2528 2175 2725 
Q 2356 2997 2356 3263 
Q 2356 3556 2198 3714 
Q 2041 3872 1763 3872 
Q 1488 3872 1325 3706 
Q 1163 3541 1138 3156 
L 263 3244 
Q 341 3969 753 4284 
Q 1166 4600 1784 4600 
Q 2463 4600 2850 4234 
Q 3238 3869 3238 3325 
Q 3238 3016 3127 2736 
Q 3016 2456 2775 2150 
Q 2616 1947 2200 1565 
Q 1784 1184 1673 1059 
Q 1563 934 1494 816 
L 3238 816 
z
" transform="scale(0.015625)"/>
       </defs>
       <use xlink:href="#Arial-BoldMT-32"/>
      </g>
     </g>
    </g>
    <g id="xtick_4">
     <g id="line2d_4">
      <g>
       <use xlink:href="#m5a406c0d7f" x="808.909004" y="198.907885" style="stroke: #000000; stroke-width: 2"/>
      </g>
     </g>
     <g id="text_4">
      <!-- 3 -->
      <g transform="translate(803.90416 224.791947) scale(0.18 -0.18)">
       <defs>
        <path id="Arial-BoldMT-33" d="M 241 1216 
L 1091 1319 
Q 1131 994 1309 822 
Q 1488 650 1741 650 
Q 2013 650 2198 856 
Q 2384 1063 2384 1413 
Q 2384 1744 2206 1937 
Q 2028 2131 1772 2131 
Q 1603 2131 1369 2066 
L 1466 2781 
Q 1822 2772 2009 2936 
Q 2197 3100 2197 3372 
Q 2197 3603 2059 3740 
Q 1922 3878 1694 3878 
Q 1469 3878 1309 3722 
Q 1150 3566 1116 3266 
L 306 3403 
Q 391 3819 561 4067 
Q 731 4316 1036 4458 
Q 1341 4600 1719 4600 
Q 2366 4600 2756 4188 
Q 3078 3850 3078 3425 
Q 3078 2822 2419 2463 
Q 2813 2378 3048 2084 
Q 3284 1791 3284 1375 
Q 3284 772 2843 347 
Q 2403 -78 1747 -78 
Q 1125 -78 715 280 
Q 306 638 241 1216 
z
" transform="scale(0.015625)"/>
       </defs>
       <use xlink:href="#Arial-BoldMT-33"/>
      </g>
     </g>
    </g>
    <g id="xtick_5">
     <g id="line2d_5">
      <g>
       <use xlink:href="#m5a406c0d7f" x="701.454502" y="198.907885" style="stroke: #000000; stroke-width: 2"/>
      </g>
     </g>
     <g id="text_5">
      <!-- 4 -->
      <g transform="translate(696.449658 224.791947) scale(0.18 -0.18)">
       <defs>
        <path id="Arial-BoldMT-34" d="M 1994 0 
L 1994 922 
L 119 922 
L 119 1691 
L 2106 4600 
L 2844 4600 
L 2844 1694 
L 3413 1694 
L 3413 922 
L 2844 922 
L 2844 0 
L 1994 0 
z
M 1994 1694 
L 1994 3259 
L 941 1694 
L 1994 1694 
z
" transform="scale(0.015625)"/>
       </defs>
       <use xlink:href="#Arial-BoldMT-34"/>
      </g>
     </g>
    </g>
    <g id="xtick_6">
     <g id="line2d_6">
      <g>
       <use xlink:href="#m5a406c0d7f" x="594" y="198.907885" style="stroke: #000000; stroke-width: 2"/>
      </g>
     </g>
     <g id="text_6">
      <!-- 5 -->
      <g transform="translate(588.995156 224.791947) scale(0.18 -0.18)">
       <defs>
        <path id="Arial-BoldMT-35" d="M 284 1178 
L 1159 1269 
Q 1197 972 1381 798 
Q 1566 625 1806 625 
Q 2081 625 2272 848 
Q 2463 1072 2463 1522 
Q 2463 1944 2273 2155 
Q 2084 2366 1781 2366 
Q 1403 2366 1103 2031 
L 391 2134 
L 841 4519 
L 3163 4519 
L 3163 3697 
L 1506 3697 
L 1369 2919 
Q 1663 3066 1969 3066 
Q 2553 3066 2959 2641 
Q 3366 2216 3366 1538 
Q 3366 972 3038 528 
Q 2591 -78 1797 -78 
Q 1163 -78 763 262 
Q 363 603 284 1178 
z
" transform="scale(0.015625)"/>
       </defs>
       <use xlink:href="#Arial-BoldMT-35"/>
      </g>
     </g>
    </g>
    <g id="xtick_7">
     <g id="line2d_7">
      <g>
       <use xlink:href="#m5a406c0d7f" x="486.545498" y="198.907885" style="stroke: #000000; stroke-width: 2"/>
      </g>
     </g>
     <g id="text_7">
      <!-- 6 -->
      <g transform="translate(481.540654 224.791947) scale(0.18 -0.18)">
       <defs>
        <path id="Arial-BoldMT-36" d="M 3247 3459 
L 2397 3366 
Q 2366 3628 2234 3753 
Q 2103 3878 1894 3878 
Q 1616 3878 1423 3628 
Q 1231 3378 1181 2588 
Q 1509 2975 1997 2975 
Q 2547 2975 2939 2556 
Q 3331 2138 3331 1475 
Q 3331 772 2918 347 
Q 2506 -78 1859 -78 
Q 1166 -78 719 461 
Q 272 1000 272 2228 
Q 272 3488 737 4044 
Q 1203 4600 1947 4600 
Q 2469 4600 2811 4308 
Q 3153 4016 3247 3459 
z
M 1256 1544 
Q 1256 1116 1453 883 
Q 1650 650 1903 650 
Q 2147 650 2309 840 
Q 2472 1031 2472 1466 
Q 2472 1913 2297 2120 
Q 2122 2328 1859 2328 
Q 1606 2328 1431 2129 
Q 1256 1931 1256 1544 
z
" transform="scale(0.015625)"/>
       </defs>
       <use xlink:href="#Arial-BoldMT-36"/>
      </g>
     </g>
    </g>
    <g id="xtick_8">
     <g id="line2d_8">
      <g>
       <use xlink:href="#m5a406c0d7f" x="379.090996" y="198.907885" style="stroke: #000000; stroke-width: 2"/>
      </g>
     </g>
     <g id="text_8">
      <!-- 7 -->
      <g transform="translate(374.086153 224.791947) scale(0.18 -0.18)">
       <defs>
        <path id="Arial-BoldMT-37" d="M 272 3703 
L 272 4519 
L 3275 4519 
L 3275 3881 
Q 2903 3516 2518 2831 
Q 2134 2147 1932 1376 
Q 1731 606 1734 0 
L 888 0 
Q 909 950 1279 1937 
Q 1650 2925 2269 3703 
L 272 3703 
z
" transform="scale(0.015625)"/>
       </defs>
       <use xlink:href="#Arial-BoldMT-37"/>
      </g>
     </g>
    </g>
    <g id="xtick_9">
     <g id="line2d_9">
      <g>
       <use xlink:href="#m5a406c0d7f" x="271.636495" y="198.907885" style="stroke: #000000; stroke-width: 2"/>
      </g>
     </g>
     <g id="text_9">
      <!-- 8 -->
      <g transform="translate(266.631651 224.791947) scale(0.18 -0.18)">
       <defs>
        <path id="Arial-BoldMT-38" d="M 1025 2472 
Q 684 2616 529 2867 
Q 375 3119 375 3419 
Q 375 3931 733 4265 
Q 1091 4600 1750 4600 
Q 2403 4600 2764 4265 
Q 3125 3931 3125 3419 
Q 3125 3100 2959 2851 
Q 2794 2603 2494 2472 
Q 2875 2319 3073 2025 
Q 3272 1731 3272 1347 
Q 3272 713 2867 316 
Q 2463 -81 1791 -81 
Q 1166 -81 750 247 
Q 259 634 259 1309 
Q 259 1681 443 1992 
Q 628 2303 1025 2472 
z
M 1206 3356 
Q 1206 3094 1354 2947 
Q 1503 2800 1750 2800 
Q 2000 2800 2150 2948 
Q 2300 3097 2300 3359 
Q 2300 3606 2151 3754 
Q 2003 3903 1759 3903 
Q 1506 3903 1356 3753 
Q 1206 3603 1206 3356 
z
M 1125 1394 
Q 1125 1031 1311 828 
Q 1497 625 1775 625 
Q 2047 625 2225 820 
Q 2403 1016 2403 1384 
Q 2403 1706 2222 1901 
Q 2041 2097 1763 2097 
Q 1441 2097 1283 1875 
Q 1125 1653 1125 1394 
z
" transform="scale(0.015625)"/>
       </defs>
       <use xlink:href="#Arial-BoldMT-38"/>
      </g>
     </g>
    </g>
    <g id="xtick_10">
     <g id="line2d_10">
      <g>
       <use xlink:href="#m5a406c0d7f" x="164.181993" y="198.907885" style="stroke: #000000; stroke-width: 2"/>
      </g>
     </g>
     <g id="text_10">
      <!-- 9 -->
      <g transform="translate(159.177149 224.791947) scale(0.18 -0.18)">
       <defs>
        <path id="Arial-BoldMT-39" d="M 291 1059 
L 1141 1153 
Q 1172 894 1303 769 
Q 1434 644 1650 644 
Q 1922 644 2112 894 
Q 2303 1144 2356 1931 
Q 2025 1547 1528 1547 
Q 988 1547 595 1964 
Q 203 2381 203 3050 
Q 203 3747 617 4173 
Q 1031 4600 1672 4600 
Q 2369 4600 2816 4061 
Q 3263 3522 3263 2288 
Q 3263 1031 2797 475 
Q 2331 -81 1584 -81 
Q 1047 -81 715 205 
Q 384 491 291 1059 
z
M 2278 2978 
Q 2278 3403 2083 3637 
Q 1888 3872 1631 3872 
Q 1388 3872 1227 3680 
Q 1066 3488 1066 3050 
Q 1066 2606 1241 2398 
Q 1416 2191 1678 2191 
Q 1931 2191 2104 2391 
Q 2278 2591 2278 2978 
z
" transform="scale(0.015625)"/>
       </defs>
       <use xlink:href="#Arial-BoldMT-39"/>
      </g>
     </g>
    </g>
    <g id="xtick_11">
     <g id="line2d_11">
      <g>
       <use xlink:href="#m5a406c0d7f" x="56.727491" y="198.907885" style="stroke: #000000; stroke-width: 2"/>
      </g>
     </g>
     <g id="text_11">
      <!-- 10 -->
      <g transform="translate(46.717803 224.791947) scale(0.18 -0.18)">
       <use xlink:href="#Arial-BoldMT-31"/>
       <use xlink:href="#Arial-BoldMT-30" x="55.615234"/>
      </g>
     </g>
    </g>
    <g id="text_12">
     <!-- Chemical Shift / ppm -->
     <g transform="translate(504.992813 245.447573) scale(0.18 -0.18)">
      <defs>
       <path id="Arial-BoldMT-43" d="M 3397 1684 
L 4294 1400 
Q 4088 650 3608 286 
Q 3128 -78 2391 -78 
Q 1478 -78 890 545 
Q 303 1169 303 2250 
Q 303 3394 893 4026 
Q 1484 4659 2447 4659 
Q 3288 4659 3813 4163 
Q 4125 3869 4281 3319 
L 3366 3100 
Q 3284 3456 3026 3662 
Q 2769 3869 2400 3869 
Q 1891 3869 1573 3503 
Q 1256 3138 1256 2319 
Q 1256 1450 1568 1081 
Q 1881 713 2381 713 
Q 2750 713 3015 947 
Q 3281 1181 3397 1684 
z
" transform="scale(0.015625)"/>
       <path id="Arial-BoldMT-68" d="M 1334 4581 
L 1334 2897 
Q 1759 3394 2350 3394 
Q 2653 3394 2897 3281 
Q 3141 3169 3264 2994 
Q 3388 2819 3433 2606 
Q 3478 2394 3478 1947 
L 3478 0 
L 2600 0 
L 2600 1753 
Q 2600 2275 2550 2415 
Q 2500 2556 2373 2639 
Q 2247 2722 2056 2722 
Q 1838 2722 1666 2615 
Q 1494 2509 1414 2295 
Q 1334 2081 1334 1663 
L 1334 0 
L 456 0 
L 456 4581 
L 1334 4581 
z
" transform="scale(0.015625)"/>
       <path id="Arial-BoldMT-65" d="M 2381 1056 
L 3256 909 
Q 3088 428 2723 176 
Q 2359 -75 1813 -75 
Q 947 -75 531 491 
Q 203 944 203 1634 
Q 203 2459 634 2926 
Q 1066 3394 1725 3394 
Q 2466 3394 2894 2905 
Q 3322 2416 3303 1406 
L 1103 1406 
Q 1113 1016 1316 798 
Q 1519 581 1822 581 
Q 2028 581 2168 693 
Q 2309 806 2381 1056 
z
M 2431 1944 
Q 2422 2325 2234 2523 
Q 2047 2722 1778 2722 
Q 1491 2722 1303 2513 
Q 1116 2303 1119 1944 
L 2431 1944 
z
" transform="scale(0.015625)"/>
       <path id="Arial-BoldMT-6d" d="M 394 3319 
L 1203 3319 
L 1203 2866 
Q 1638 3394 2238 3394 
Q 2556 3394 2790 3262 
Q 3025 3131 3175 2866 
Q 3394 3131 3647 3262 
Q 3900 3394 4188 3394 
Q 4553 3394 4806 3245 
Q 5059 3097 5184 2809 
Q 5275 2597 5275 2122 
L 5275 0 
L 4397 0 
L 4397 1897 
Q 4397 2391 4306 2534 
Q 4184 2722 3931 2722 
Q 3747 2722 3584 2609 
Q 3422 2497 3350 2280 
Q 3278 2063 3278 1594 
L 3278 0 
L 2400 0 
L 2400 1819 
Q 2400 2303 2353 2443 
Q 2306 2584 2207 2653 
Q 2109 2722 1941 2722 
Q 1738 2722 1575 2612 
Q 1413 2503 1342 2297 
Q 1272 2091 1272 1613 
L 1272 0 
L 394 0 
L 394 3319 
z
" transform="scale(0.015625)"/>
       <path id="Arial-BoldMT-69" d="M 459 3769 
L 459 4581 
L 1338 4581 
L 1338 3769 
L 459 3769 
z
M 459 0 
L 459 3319 
L 1338 3319 
L 1338 0 
L 459 0 
z
" transform="scale(0.015625)"/>
       <path id="Arial-BoldMT-63" d="M 3353 2338 
L 2488 2181 
Q 2444 2441 2289 2572 
Q 2134 2703 1888 2703 
Q 1559 2703 1364 2476 
Q 1169 2250 1169 1719 
Q 1169 1128 1367 884 
Q 1566 641 1900 641 
Q 2150 641 2309 783 
Q 2469 925 2534 1272 
L 3397 1125 
Q 3263 531 2881 228 
Q 2500 -75 1859 -75 
Q 1131 -75 698 384 
Q 266 844 266 1656 
Q 266 2478 700 2936 
Q 1134 3394 1875 3394 
Q 2481 3394 2839 3133 
Q 3197 2872 3353 2338 
z
" transform="scale(0.015625)"/>
       <path id="Arial-BoldMT-61" d="M 1116 2306 
L 319 2450 
Q 453 2931 781 3162 
Q 1109 3394 1756 3394 
Q 2344 3394 2631 3255 
Q 2919 3116 3036 2902 
Q 3153 2688 3153 2116 
L 3144 1091 
Q 3144 653 3186 445 
Q 3228 238 3344 0 
L 2475 0 
Q 2441 88 2391 259 
Q 2369 338 2359 363 
Q 2134 144 1878 34 
Q 1622 -75 1331 -75 
Q 819 -75 523 203 
Q 228 481 228 906 
Q 228 1188 362 1408 
Q 497 1628 739 1745 
Q 981 1863 1438 1950 
Q 2053 2066 2291 2166 
L 2291 2253 
Q 2291 2506 2166 2614 
Q 2041 2722 1694 2722 
Q 1459 2722 1328 2630 
Q 1197 2538 1116 2306 
z
M 2291 1594 
Q 2122 1538 1756 1459 
Q 1391 1381 1278 1306 
Q 1106 1184 1106 997 
Q 1106 813 1243 678 
Q 1381 544 1594 544 
Q 1831 544 2047 700 
Q 2206 819 2256 991 
Q 2291 1103 2291 1419 
L 2291 1594 
z
" transform="scale(0.015625)"/>
       <path id="Arial-BoldMT-6c" d="M 459 0 
L 459 4581 
L 1338 4581 
L 1338 0 
L 459 0 
z
" transform="scale(0.015625)"/>
       <path id="Arial-BoldMT-20" transform="scale(0.015625)"/>
       <path id="Arial-BoldMT-53" d="M 231 1491 
L 1131 1578 
Q 1213 1125 1461 912 
Q 1709 700 2131 700 
Q 2578 700 2804 889 
Q 3031 1078 3031 1331 
Q 3031 1494 2936 1608 
Q 2841 1722 2603 1806 
Q 2441 1863 1863 2006 
Q 1119 2191 819 2459 
Q 397 2838 397 3381 
Q 397 3731 595 4036 
Q 794 4341 1167 4500 
Q 1541 4659 2069 4659 
Q 2931 4659 3367 4281 
Q 3803 3903 3825 3272 
L 2900 3231 
Q 2841 3584 2645 3739 
Q 2450 3894 2059 3894 
Q 1656 3894 1428 3728 
Q 1281 3622 1281 3444 
Q 1281 3281 1419 3166 
Q 1594 3019 2269 2859 
Q 2944 2700 3267 2529 
Q 3591 2359 3773 2064 
Q 3956 1769 3956 1334 
Q 3956 941 3737 597 
Q 3519 253 3119 86 
Q 2719 -81 2122 -81 
Q 1253 -81 787 320 
Q 322 722 231 1491 
z
" transform="scale(0.015625)"/>
       <path id="Arial-BoldMT-66" d="M 75 3319 
L 563 3319 
L 563 3569 
Q 563 3988 652 4194 
Q 741 4400 980 4529 
Q 1219 4659 1584 4659 
Q 1959 4659 2319 4547 
L 2200 3934 
Q 1991 3984 1797 3984 
Q 1606 3984 1523 3895 
Q 1441 3806 1441 3553 
L 1441 3319 
L 2097 3319 
L 2097 2628 
L 1441 2628 
L 1441 0 
L 563 0 
L 563 2628 
L 75 2628 
L 75 3319 
z
" transform="scale(0.015625)"/>
       <path id="Arial-BoldMT-74" d="M 1981 3319 
L 1981 2619 
L 1381 2619 
L 1381 1281 
Q 1381 875 1398 808 
Q 1416 741 1477 697 
Q 1538 653 1625 653 
Q 1747 653 1978 738 
L 2053 56 
Q 1747 -75 1359 -75 
Q 1122 -75 931 4 
Q 741 84 652 211 
Q 563 338 528 553 
Q 500 706 500 1172 
L 500 2619 
L 97 2619 
L 97 3319 
L 500 3319 
L 500 3978 
L 1381 4491 
L 1381 3319 
L 1981 3319 
z
" transform="scale(0.015625)"/>
       <path id="Arial-BoldMT-2f" d="M -9 -78 
L 1125 4659 
L 1784 4659 
L 638 -78 
L -9 -78 
z
" transform="scale(0.015625)"/>
       <path id="Arial-BoldMT-70" d="M 434 3319 
L 1253 3319 
L 1253 2831 
Q 1413 3081 1684 3237 
Q 1956 3394 2288 3394 
Q 2866 3394 3269 2941 
Q 3672 2488 3672 1678 
Q 3672 847 3265 386 
Q 2859 -75 2281 -75 
Q 2006 -75 1782 34 
Q 1559 144 1313 409 
L 1313 -1263 
L 434 -1263 
L 434 3319 
z
M 1303 1716 
Q 1303 1156 1525 889 
Q 1747 622 2066 622 
Q 2372 622 2575 867 
Q 2778 1113 2778 1672 
Q 2778 2194 2568 2447 
Q 2359 2700 2050 2700 
Q 1728 2700 1515 2451 
Q 1303 2203 1303 1716 
z
" transform="scale(0.015625)"/>
      </defs>
      <use xlink:href="#Arial-BoldMT-43"/>
      <use xlink:href="#Arial-BoldMT-68" x="72.216797"/>
      <use xlink:href="#Arial-BoldMT-65" x="133.300781"/>
      <use xlink:href="#Arial-BoldMT-6d" x="188.916016"/>
      <use xlink:href="#Arial-BoldMT-69" x="277.832031"/>
      <use xlink:href="#Arial-BoldMT-63" x="305.615234"/>
      <use xlink:href="#Arial-BoldMT-61" x="361.230469"/>
      <use xlink:href="#Arial-BoldMT-6c" x="416.845703"/>
      <use xlink:href="#Arial-BoldMT-20" x="444.628906"/>
      <use xlink:href="#Arial-BoldMT-53" x="472.412109"/>
      <use xlink:href="#Arial-BoldMT-68" x="539.111328"/>
      <use xlink:href="#Arial-BoldMT-69" x="600.195312"/>
      <use xlink:href="#Arial-BoldMT-66" x="627.978516"/>
      <use xlink:href="#Arial-BoldMT-74" x="661.279297"/>
      <use xlink:href="#Arial-BoldMT-20" x="694.580078"/>
      <use xlink:href="#Arial-BoldMT-2f" x="722.363281"/>
      <use xlink:href="#Arial-BoldMT-20" x="750.146484"/>
      <use xlink:href="#Arial-BoldMT-70" x="777.929688"/>
      <use xlink:href="#Arial-BoldMT-70" x="839.013672"/>
      <use xlink:href="#Arial-BoldMT-6d" x="900.097656"/>
     </g>
    </g>
   </g>
   <g id="matplotlib.axis_2"/>
   <g id="line2d_12">
    <path d="M 2.984728 189.764573 
L 3.189348 189.95297 
L 3.598587 190.886841 
L 3.803207 191.045904 
L 4.007827 190.782365 
L 5.644785 186.832061 
L 5.849404 186.690919 
L 6.054024 186.842672 
L 6.667883 188.104982 
L 7.077123 188.786405 
L 9.12332 191.102554 
L 9.532559 191.391944 
L 9.941799 191.675009 
L 10.146419 191.469631 
L 10.964897 190.075023 
L 11.169517 190.090309 
L 11.987996 190.978278 
L 12.192616 190.857531 
L 12.601855 190.129473 
L 13.011095 189.279751 
L 13.420334 188.954979 
L 13.624954 189.014814 
L 13.829574 189.213867 
L 14.238813 190.135821 
L 14.852672 192.16203 
L 15.057292 192.455545 
L 15.466531 192.498582 
L 15.875771 192.603448 
L 16.28501 192.832178 
L 17.717348 192.48348 
L 18.331208 193.050756 
L 18.535827 192.903334 
L 19.558926 191.118183 
L 19.763546 191.232032 
L 20.172785 191.674321 
L 20.377405 191.640588 
L 20.786644 190.765406 
L 21.400503 189.300812 
L 21.809743 188.88875 
L 22.014363 188.926998 
L 22.628222 189.388834 
L 22.832842 189.186229 
L 23.242081 188.04517 
L 23.65132 186.994081 
L 23.85594 186.874044 
L 24.06056 187.014958 
L 24.469799 187.892775 
L 25.697518 191.984152 
L 26.106757 192.368921 
L 26.515997 192.226495 
L 27.129856 191.766766 
L 27.948335 190.711094 
L 28.357574 189.671761 
L 29.176053 187.018854 
L 29.380673 186.946827 
L 30.608391 187.869332 
L 31.017631 188.818717 
L 31.63149 190.246141 
L 33.268448 193.682954 
L 33.473067 193.761787 
L 33.882307 193.455599 
L 34.291546 193.120422 
L 34.496166 193.148128 
L 35.519265 193.908384 
L 36.542363 194.178523 
L 36.951603 194.553942 
L 37.360842 195.023157 
L 37.565462 195.133294 
L 37.770082 195.089432 
L 37.974701 194.831621 
L 38.383941 193.512157 
L 38.79318 191.861939 
L 38.9978 191.375215 
L 39.20242 191.179233 
L 39.611659 191.29519 
L 40.020899 191.425196 
L 40.634758 191.124623 
L 40.839378 191.335707 
L 41.657856 192.852436 
L 41.862476 192.680998 
L 42.271716 191.53657 
L 42.680955 190.149112 
L 43.090195 189.573518 
L 43.499434 189.359799 
L 43.704054 189.394311 
L 44.522533 190.001415 
L 45.136392 189.816113 
L 45.545631 189.823629 
L 46.36411 189.103386 
L 47.182589 188.271379 
L 47.387209 188.289231 
L 47.796448 188.85559 
L 48.410307 190.05669 
L 48.614927 190.244537 
L 49.024167 190.164673 
L 49.228786 190.145927 
L 50.047265 190.677407 
L 50.456505 190.338563 
L 50.865744 189.725913 
L 51.479603 188.711926 
L 51.684223 188.639441 
L 51.888843 188.754207 
L 52.707322 189.839602 
L 52.911941 189.857683 
L 53.321181 189.533964 
L 53.525801 189.571318 
L 53.93504 190.309574 
L 54.34428 191.304288 
L 54.548899 191.514937 
L 54.958139 191.35113 
L 55.571998 191.129343 
L 55.981237 191.208772 
L 56.595097 191.711881 
L 56.799716 191.633759 
L 57.208956 190.988384 
L 57.618195 189.905624 
L 58.232054 187.462174 
L 60.892111 173.677775 
L 61.09673 173.91943 
L 61.50597 175.71283 
L 62.938308 184.168337 
L 63.347547 185.726087 
L 63.756787 186.441289 
L 64.575266 187.442672 
L 64.984505 187.79444 
L 66.621463 190.658501 
L 67.235322 192.132491 
L 67.439942 192.169455 
L 67.644562 191.756523 
L 68.463041 188.992126 
L 68.66766 188.851946 
L 68.87228 188.917166 
L 69.895379 189.989911 
L 70.304618 189.752061 
L 70.713858 189.551358 
L 71.123097 189.745736 
L 71.532337 189.962939 
L 72.760055 189.987734 
L 72.964675 190.158714 
L 73.373914 190.867201 
L 73.578534 191.003967 
L 74.192393 190.898941 
L 75.215492 191.308871 
L 76.44321 190.902057 
L 76.852449 190.365536 
L 77.466309 189.367522 
L 77.670928 189.334201 
L 77.875548 189.572487 
L 78.694027 191.427235 
L 78.898647 191.500156 
L 79.307886 191.432506 
L 79.717126 191.560839 
L 79.921745 191.443025 
L 80.330985 190.564864 
L 80.944844 189.009153 
L 81.354083 188.863496 
L 82.377182 188.752351 
L 83.400281 189.546293 
L 84.21876 190.437219 
L 84.832619 190.370921 
L 85.241858 190.302997 
L 85.446478 190.58998 
L 86.469577 193.174207 
L 87.083436 193.200011 
L 87.697295 193.674337 
L 87.901915 193.61024 
L 88.515774 193.175949 
L 88.720394 193.354537 
L 89.743492 195.280395 
L 90.152732 195.346532 
L 90.561971 195.933631 
L 91.38045 197.30963 
L 91.994309 197.795529 
L 92.403549 197.788264 
L 92.608168 197.658419 
L 93.017408 196.970282 
L 94.040507 194.2643 
L 94.245126 194.167203 
L 95.268225 194.45547 
L 96.086704 194.457532 
L 96.700563 194.102761 
L 97.109802 194.050856 
L 97.519042 193.699729 
L 98.337521 192.583488 
L 98.74676 192.048915 
L 100.792957 190.4256 
L 101.611436 190.302126 
L 102.020676 190.427548 
L 102.429915 190.540114 
L 103.248394 190.064894 
L 103.862253 190.613974 
L 104.680732 190.535118 
L 105.294591 190.926349 
L 105.703831 191.405808 
L 106.52231 192.757035 
L 107.545408 194.021408 
L 107.954648 193.676789 
L 108.568507 193.070304 
L 109.182366 192.992571 
L 109.386986 193.068035 
L 109.796225 193.729818 
L 110.205465 194.469953 
L 110.410085 194.510423 
L 110.614704 194.236296 
L 111.433183 192.149106 
L 112.047042 191.690088 
L 112.456282 191.534278 
L 113.88862 191.869593 
L 114.297859 192.42612 
L 114.911719 193.949404 
L 115.320958 194.9545 
L 115.525578 195.112417 
L 115.934817 194.849267 
L 116.548676 194.226625 
L 116.957916 193.271923 
L 117.571775 191.604036 
L 117.776395 191.341436 
L 117.981015 191.303761 
L 118.185634 191.536135 
L 120.231832 195.962666 
L 120.641071 196.034555 
L 121.05031 195.859656 
L 121.45955 195.330124 
L 121.868789 194.486636 
L 123.301127 190.432086 
L 124.119606 190.690034 
L 124.324226 190.804204 
L 124.733466 191.550618 
L 125.142705 192.314517 
L 125.347325 192.302669 
L 125.756564 191.631192 
L 126.370423 190.467492 
L 126.575043 190.300568 
L 126.779663 190.384763 
L 127.188902 191.235791 
L 128.212001 194.076132 
L 128.82586 194.783519 
L 129.848959 195.762169 
L 130.053578 195.639474 
L 130.872057 193.834249 
L 131.076677 193.871098 
L 131.485917 194.628145 
L 132.304395 196.332699 
L 132.713635 196.821485 
L 132.918255 196.914182 
L 133.122874 196.807002 
L 133.327494 196.396223 
L 134.145973 193.654491 
L 134.555212 193.228565 
L 134.964452 193.116595 
L 135.373691 193.407314 
L 135.782931 193.755691 
L 136.19217 193.715083 
L 136.60141 193.586911 
L 137.010649 193.922156 
L 137.419889 194.387728 
L 137.624508 194.430422 
L 137.829128 194.254263 
L 138.442987 193.139764 
L 138.647607 193.050916 
L 138.852227 193.256409 
L 139.466086 194.322164 
L 139.670706 194.255179 
L 140.693804 193.201867 
L 141.103044 193.054377 
L 141.512283 193.084901 
L 141.921523 193.342506 
L 142.126142 193.26255 
L 142.535382 192.329023 
L 142.944621 191.543078 
L 143.149241 191.400973 
L 143.353861 191.416877 
L 144.17234 192.059364 
L 144.376959 192.499407 
L 144.786199 194.240077 
L 145.400058 197.321294 
L 145.809297 198.400181 
L 146.218537 198.601526 
L 146.627776 198.413862 
L 147.037016 197.711883 
L 147.855495 195.654874 
L 148.264734 194.578623 
L 148.673974 194.173207 
L 149.083213 194.279562 
L 149.901692 194.830498 
L 150.310931 194.738832 
L 150.720171 194.750657 
L 150.924791 194.663368 
L 151.12941 194.444332 
L 151.53865 193.476499 
L 152.766368 189.674832 
L 152.970988 189.680584 
L 153.380227 190.404792 
L 153.789467 190.945186 
L 153.994086 190.78665 
L 154.403326 189.5487 
L 154.812565 188.236294 
L 155.017185 188.091324 
L 155.426425 188.497519 
L 156.040284 189.410971 
L 156.654143 190.574466 
L 157.063382 190.957699 
L 157.472622 190.848845 
L 157.881861 190.736967 
L 158.90496 191.256484 
L 159.314199 191.869982 
L 159.723439 192.408245 
L 159.928059 192.371419 
L 160.132678 192.126281 
L 160.541918 191.089721 
L 161.155777 189.349555 
L 161.360397 189.126417 
L 161.565016 189.122544 
L 161.974256 189.633147 
L 162.383495 190.130756 
L 162.792735 190.410429 
L 163.201974 191.065521 
L 163.815833 192.180845 
L 164.020453 192.355767 
L 164.225073 192.37481 
L 164.634312 191.910843 
L 165.043552 191.488445 
L 165.657411 191.59982 
L 165.862031 191.319848 
L 166.27127 189.825715 
L 166.68051 188.255498 
L 166.885129 187.947408 
L 167.089749 187.987947 
L 167.498988 188.378101 
L 167.908228 188.265306 
L 168.112848 188.221833 
L 168.726707 188.327524 
L 169.954425 187.217861 
L 170.159045 187.283013 
L 171.182144 188.34682 
L 171.591383 188.286641 
L 172.409862 187.387374 
L 172.614482 187.565436 
L 173.63758 189.521498 
L 173.8422 189.493906 
L 174.251439 188.960685 
L 176.093017 185.521855 
L 176.297637 185.364144 
L 176.502256 185.509824 
L 177.729975 187.945575 
L 178.957693 190.921514 
L 179.162313 190.88652 
L 179.980792 189.985672 
L 180.390031 189.928495 
L 181.20851 190.692738 
L 181.41313 190.655132 
L 181.822369 190.190018 
L 182.640848 188.479438 
L 182.845468 188.580385 
L 183.459327 189.593456 
L 184.482426 191.531299 
L 184.891665 191.964261 
L 185.096285 191.995817 
L 185.505524 191.658875 
L 186.119384 190.668447 
L 186.528623 189.50211 
L 187.142482 187.776863 
L 187.551722 187.22249 
L 187.756341 187.18014 
L 188.370201 187.609 
L 188.57482 187.466688 
L 188.77944 187.059691 
L 189.188679 185.433214 
L 189.802539 181.083293 
L 190.621018 173.476476 
L 191.234877 164.835139 
L 192.462595 144.685632 
L 193.076454 136.940217 
L 193.485694 133.480923 
L 193.894933 131.807903 
L 194.099553 131.522225 
L 194.304173 131.621293 
L 194.508792 132.147617 
L 195.327271 136.060658 
L 195.736511 138.550904 
L 196.35037 144.484494 
L 197.578088 157.652118 
L 198.191947 162.220159 
L 199.010426 166.425614 
L 199.419666 167.727754 
L 200.238145 168.974137 
L 201.261243 171.378034 
L 201.465863 171.31923 
L 202.079722 170.349426 
L 202.488962 169.460884 
L 202.898201 167.900659 
L 203.9213 162.955229 
L 204.535159 161.370804 
L 204.944398 160.902276 
L 205.149018 160.972698 
L 205.558258 161.618944 
L 206.990596 165.139815 
L 207.399835 166.907801 
L 208.422934 173.672 
L 210.059892 178.725917 
L 210.469131 179.306965 
L 210.673751 179.428858 
L 210.878371 179.416139 
L 211.49223 179.08566 
L 211.696849 179.210876 
L 212.106089 179.841768 
L 213.538427 182.472515 
L 213.947666 182.688595 
L 214.766145 182.942945 
L 214.970765 182.623695 
L 215.380004 181.298479 
L 216.198483 177.859283 
L 216.403103 177.508477 
L 216.607723 177.382001 
L 217.016962 177.47825 
L 217.426202 177.60161 
L 217.630821 177.491267 
L 217.835441 177.181779 
L 218.244681 175.931569 
L 219.267779 172.357142 
L 219.677019 170.993105 
L 220.290878 167.927815 
L 221.313977 161.455022 
L 223.155554 147.537639 
L 223.974033 142.714766 
L 224.792512 139.889687 
L 225.201751 138.660537 
L 225.406371 138.508394 
L 225.610991 138.822854 
L 226.02023 140.42339 
L 226.634089 143.948042 
L 228.271047 155.439047 
L 229.089526 160.615682 
L 229.498766 162.430212 
L 229.703385 162.966641 
L 229.908005 163.148301 
L 230.112625 162.989237 
L 230.521864 161.928752 
L 231.340343 159.470475 
L 231.749583 158.86062 
L 232.977301 158.477892 
L 233.181921 158.526864 
L 234.614259 159.750583 
L 235.023498 160.917905 
L 236.046597 164.305539 
L 236.251217 164.489788 
L 236.660456 164.398488 
L 237.274315 164.074563 
L 237.683555 163.866023 
L 237.888174 164.109855 
L 238.911273 166.69619 
L 239.320513 166.866964 
L 239.729752 166.637111 
L 240.138991 165.816562 
L 240.548231 164.119915 
L 242.799048 150.447784 
L 243.003668 149.850328 
L 243.208287 149.651779 
L 243.412907 149.737051 
L 243.822147 150.464536 
L 245.049865 153.368586 
L 245.459104 154.055806 
L 245.868344 154.146143 
L 246.277583 154.094191 
L 246.686823 153.712861 
L 247.505302 152.503762 
L 247.914541 150.885352 
L 248.5284 148.194747 
L 248.73302 147.793295 
L 248.93764 147.660746 
L 249.346879 147.744139 
L 249.960738 148.090431 
L 250.165358 148.498712 
L 250.574598 150.36336 
L 252.006936 159.36923 
L 252.620795 161.357237 
L 254.257753 168.255384 
L 254.666992 169.08212 
L 254.871612 169.096351 
L 255.280851 168.484686 
L 255.690091 167.70266 
L 255.89471 167.541488 
L 256.50857 167.590942 
L 256.713189 167.284434 
L 257.122429 166.010871 
L 257.531668 163.684501 
L 257.940908 159.509135 
L 258.350147 153.470427 
L 258.964006 140.076777 
L 259.782485 119.855817 
L 260.191725 113.673468 
L 260.600964 110.367852 
L 260.805584 109.790654 
L 261.010204 110.184589 
L 261.214823 111.654912 
L 261.624063 117.279863 
L 262.851781 137.70957 
L 263.46564 144.014522 
L 264.079499 148.249128 
L 264.693359 150.467584 
L 265.102598 151.331903 
L 265.307218 151.20694 
L 265.511838 150.540459 
L 265.921077 147.708917 
L 266.534936 140.787946 
L 267.967274 121.741342 
L 268.376514 119.660935 
L 268.581133 119.216102 
L 268.785753 119.119853 
L 268.990373 119.337147 
L 270.013472 121.330311 
L 270.218091 121.301826 
L 270.627331 121.071125 
L 270.83195 121.262364 
L 271.03657 121.823245 
L 271.44581 123.96005 
L 272.059669 128.69985 
L 273.082767 139.224466 
L 274.310486 150.319337 
L 274.924345 153.602747 
L 275.333584 155.0051 
L 275.742824 155.870359 
L 275.947444 156.092512 
L 276.356683 156.117857 
L 276.970542 155.873132 
L 277.379782 155.331362 
L 277.789021 154.158656 
L 279.221359 149.345339 
L 279.425979 149.226861 
L 279.630599 149.352443 
L 280.039838 150.300477 
L 280.653697 151.89047 
L 281.062937 152.373321 
L 281.472176 152.289241 
L 281.881416 152.235227 
L 282.290655 152.470854 
L 282.495275 152.858189 
L 283.109134 155.105314 
L 283.722993 157.026497 
L 284.541472 158.835298 
L 285.155331 159.510464 
L 285.564571 160.233343 
L 285.769191 160.362202 
L 285.97381 160.203826 
L 286.17843 159.733877 
L 286.587669 157.846335 
L 288.020008 148.410987 
L 288.429247 147.433804 
L 289.043106 146.581562 
L 289.656965 145.918724 
L 290.270825 145.669622 
L 290.475444 145.293401 
L 290.884684 143.297602 
L 291.293923 141.185983 
L 292.317022 138.148055 
L 293.135501 134.820852 
L 293.34012 134.459664 
L 293.54474 134.415413 
L 293.74936 134.693527 
L 294.158599 135.995644 
L 294.977078 139.4515 
L 295.590937 143.533253 
L 296.818656 152.297193 
L 297.227895 153.436625 
L 298.046374 154.378792 
L 298.250994 154.510241 
L 298.455614 154.462987 
L 298.660233 154.164889 
L 299.069473 152.899233 
L 300.092571 148.910246 
L 300.297191 148.552955 
L 300.706431 148.455995 
L 301.11567 148.321109 
L 301.934149 147.369569 
L 302.343388 147.265872 
L 302.752628 146.565222 
L 303.366487 144.653183 
L 303.775726 143.257338 
L 303.980346 142.9132 
L 304.184966 142.974777 
L 304.594205 143.850394 
L 305.412684 145.98092 
L 306.640403 151.414494 
L 307.049642 152.715557 
L 307.663501 156.073514 
L 308.27736 158.800419 
L 309.300459 162.214773 
L 309.709699 162.909923 
L 310.118938 163.098984 
L 310.323558 163.158178 
L 310.528177 163.335162 
L 310.732797 163.744497 
L 311.755896 167.057514 
L 312.165135 167.410406 
L 312.369755 167.377566 
L 312.983614 166.984067 
L 313.188234 167.180255 
L 313.802093 168.67251 
L 314.415952 170.432773 
L 315.643671 174.457876 
L 315.84829 174.669441 
L 316.05291 174.720018 
L 316.46215 174.497315 
L 316.871389 173.949359 
L 317.280628 173.013769 
L 318.099107 170.306824 
L 318.917586 166.756666 
L 319.122206 166.475572 
L 319.531445 166.432604 
L 319.736065 166.269736 
L 320.145305 165.430625 
L 320.759164 163.765878 
L 321.168403 161.838301 
L 321.986882 156.881023 
L 322.191502 156.514519 
L 322.396122 156.959398 
L 323.41922 161.693904 
L 323.82846 162.570552 
L 324.033079 162.828523 
L 324.237699 162.862577 
L 325.670037 161.636727 
L 326.079277 160.474058 
L 326.488516 158.061384 
L 326.897756 153.893764 
L 327.511615 144.246277 
L 327.920854 135.140743 
L 328.330094 122.247957 
L 328.739333 104.467147 
L 329.353192 64.449961 
L 329.967051 17.009748 
L 330.171671 7.14955 
L 330.376291 3.00024 
L 330.580911 4.506841 
L 330.99015 18.715126 
L 331.604009 42.736906 
L 332.013249 49.710333 
L 332.217868 49.426809 
L 332.422488 46.814189 
L 333.240967 31.67107 
L 333.445587 32.891764 
L 333.854826 43.401645 
L 334.877925 78.653915 
L 335.287164 87.03146 
L 335.696404 91.989494 
L 336.105643 94.33367 
L 336.310263 94.367793 
L 336.514883 93.570458 
L 336.719502 91.930163 
L 337.128742 85.58898 
L 337.537981 73.968152 
L 338.7657 30.9899 
L 338.970319 32.190015 
L 339.379559 42.997604 
L 340.607277 86.225211 
L 341.221136 99.226759 
L 341.834996 106.464619 
L 342.858094 116.650621 
L 343.471953 122.374159 
L 344.290432 127.245476 
L 345.108911 131.71658 
L 345.313531 132.20296 
L 345.518151 132.325885 
L 345.72277 132.111524 
L 345.92739 131.605023 
L 346.33663 129.553674 
L 348.178207 114.409615 
L 349.201306 105.298398 
L 349.610545 101.527806 
L 349.815165 100.720549 
L 350.019785 100.896089 
L 350.429024 103.332046 
L 350.838264 105.879767 
L 351.247503 106.872281 
L 351.656743 107.582418 
L 352.065982 109.246409 
L 352.679841 111.692381 
L 353.2937 113.307674 
L 353.49832 113.509661 
L 353.70294 113.375209 
L 353.90756 112.839444 
L 354.726038 109.328015 
L 354.930658 109.518658 
L 355.135278 110.623944 
L 355.544517 115.304047 
L 356.362996 125.573671 
L 357.181475 132.042407 
L 357.590715 133.965905 
L 357.795334 134.331584 
L 358.409194 134.761544 
L 359.432292 136.876371 
L 360.046151 136.995698 
L 360.250771 137.299273 
L 361.27387 139.593537 
L 362.092349 140.686953 
L 362.501588 140.798739 
L 362.910828 140.677488 
L 363.320067 140.085073 
L 363.729306 139.029882 
L 364.138546 137.185859 
L 364.752405 132.377378 
L 365.161645 127.946699 
L 365.570884 120.724101 
L 366.184743 103.315019 
L 366.593983 92.887844 
L 366.798602 90.429704 
L 367.003222 90.255264 
L 367.207842 92.011998 
L 368.23094 106.887819 
L 368.43556 107.943628 
L 368.64018 107.817473 
L 368.8448 106.49755 
L 369.254039 100.907273 
L 369.867898 92.033058 
L 370.072518 91.858159 
L 370.277138 93.698195 
L 370.686377 101.539814 
L 371.504856 118.016079 
L 372.118715 125.884075 
L 372.732574 130.472832 
L 373.141814 131.705649 
L 373.346434 131.537786 
L 373.551053 130.697941 
L 373.960293 126.957897 
L 374.778772 116.176799 
L 374.983391 115.074882 
L 375.188011 115.312938 
L 375.597251 118.663448 
L 376.415729 126.141657 
L 376.824969 127.564016 
L 377.029589 127.475673 
L 377.234208 126.741428 
L 378.052687 121.27231 
L 378.257307 121.719938 
L 378.461927 123.40091 
L 379.075786 132.755546 
L 379.894265 144.476542 
L 380.712744 153.314205 
L 381.326603 157.076822 
L 381.735842 158.673393 
L 382.758941 161.043212 
L 383.3728 162.142678 
L 383.57742 162.278252 
L 383.78204 162.162982 
L 384.191279 161.425872 
L 384.805138 159.760735 
L 385.214378 158.714298 
L 385.828237 157.517621 
L 386.442096 155.980702 
L 386.851336 155.464187 
L 387.055955 155.458228 
L 387.465195 155.918575 
L 388.079054 156.79048 
L 388.488293 157.143944 
L 388.897533 158.170421 
L 389.716012 160.792529 
L 390.125251 161.183851 
L 390.534491 161.498541 
L 391.14835 162.348652 
L 391.557589 162.977023 
L 391.762209 163.007364 
L 391.966829 162.698014 
L 392.376068 161.245588 
L 392.785308 159.805652 
L 393.194547 159.239385 
L 394.217646 158.265547 
L 395.240744 156.601602 
L 396.263843 155.261994 
L 396.673082 154.439131 
L 397.286942 152.622859 
L 397.491561 152.405634 
L 397.900801 152.536372 
L 398.105421 152.604274 
L 398.51466 152.360511 
L 398.923899 152.168746 
L 399.333139 152.598224 
L 400.151618 153.811837 
L 400.356238 153.804893 
L 400.560857 153.560191 
L 401.174716 152.333515 
L 401.379336 152.261031 
L 401.583956 152.570908 
L 401.993195 154.100241 
L 403.016294 158.415307 
L 403.425533 159.279947 
L 404.039393 159.708669 
L 404.448632 159.760437 
L 404.857872 159.588334 
L 405.267111 159.366205 
L 405.471731 159.484202 
L 405.88097 160.356794 
L 406.494829 161.837843 
L 406.904069 162.130899 
L 407.313308 162.221052 
L 407.517928 162.394553 
L 407.927167 163.245581 
L 408.745646 165.694028 
L 409.154886 166.142183 
L 409.564125 166.305257 
L 410.382604 166.096121 
L 411.201083 166.836049 
L 411.405703 166.436752 
L 412.019562 164.231358 
L 412.838041 161.057123 
L 413.042661 160.972882 
L 413.24728 161.4055 
L 413.65652 163.747292 
L 414.270379 168.413095 
L 414.679618 169.915387 
L 414.884238 170.087055 
L 415.498097 169.974856 
L 415.702717 169.805159 
L 416.521196 168.563657 
L 416.725816 168.309146 
L 417.135055 167.192057 
L 417.544295 165.970561 
L 417.748914 165.684998 
L 418.567393 165.270026 
L 419.385872 164.424269 
L 419.590492 164.551868 
L 419.999731 165.468392 
L 420.61359 167.085908 
L 420.81821 167.26484 
L 421.22745 167.007946 
L 421.432069 166.905234 
L 421.636689 166.96578 
L 421.841309 167.228517 
L 423.069027 169.699972 
L 423.478267 170.056576 
L 423.887506 170.326349 
L 424.092126 170.811011 
L 425.115224 174.772703 
L 425.319844 174.940406 
L 425.933703 174.758793 
L 426.138323 174.926748 
L 426.547563 175.858327 
L 427.161422 177.580481 
L 427.570661 178.123785 
L 427.979901 178.141041 
L 428.38914 178.089319 
L 429.002999 178.328842 
L 430.230718 178.83681 
L 430.639957 178.633586 
L 431.049197 178.087142 
L 431.458436 177.067953 
L 432.276915 173.816901 
L 432.481535 173.689875 
L 432.686154 173.899905 
L 433.300014 174.956471 
L 433.709253 175.149519 
L 434.323112 175.117597 
L 434.936971 175.387278 
L 435.346211 175.118605 
L 436.16469 174.192686 
L 436.573929 174.333508 
L 437.392408 174.896109 
L 437.597028 174.854401 
L 438.210887 174.201326 
L 438.415507 174.310935 
L 439.029366 175.393741 
L 439.233986 175.456738 
L 439.643225 175.357097 
L 440.052465 175.589173 
L 440.461704 176.07482 
L 441.075563 177.208477 
L 441.280183 177.336282 
L 441.484803 177.252958 
L 442.098662 176.599837 
L 442.303282 176.683184 
L 442.712521 177.111494 
L 443.32638 177.330966 
L 444.144859 178.623113 
L 444.554099 178.748856 
L 444.758718 178.957694 
L 445.167958 179.814612 
L 445.577197 180.75577 
L 445.781817 180.985256 
L 445.986437 180.94985 
L 446.600296 180.185653 
L 446.804915 180.2646 
L 447.214155 180.976364 
L 447.828014 182.221304 
L 448.237254 182.515323 
L 448.646493 182.450103 
L 449.260352 181.736391 
L 450.488071 179.970879 
L 451.920409 179.483308 
L 452.329648 179.603046 
L 452.738888 180.316392 
L 453.148127 180.877067 
L 454.171226 180.745962 
L 454.580465 180.901336 
L 454.989705 181.396149 
L 456.012803 183.395592 
L 456.217423 183.458521 
L 456.422043 183.310412 
L 457.240522 181.902971 
L 457.445141 181.898983 
L 457.854381 182.453242 
L 458.26362 183.143396 
L 458.46824 183.33743 
L 458.67286 183.37153 
L 459.082099 183.030418 
L 459.491339 182.790596 
L 460.309817 183.099557 
L 460.719057 182.980024 
L 461.332916 183.110442 
L 461.742156 183.155129 
L 462.356015 182.84539 
L 462.765254 183.301428 
L 463.379113 184.029738 
L 463.788353 184.090146 
L 464.197592 184.179841 
L 464.811451 184.714415 
L 465.220691 185.303415 
L 465.83455 186.45678 
L 466.03917 186.54132 
L 466.24379 186.379071 
L 466.653029 185.220709 
L 467.062268 183.689359 
L 467.266888 183.262952 
L 467.471508 183.166358 
L 467.880747 183.581651 
L 468.289987 183.875556 
L 468.494607 183.769475 
L 469.108466 183.079528 
L 469.313085 183.06548 
L 469.517705 183.264097 
L 469.926945 184.200718 
L 470.540804 186.3903 
L 470.950043 187.892271 
L 471.154663 188.305456 
L 471.359283 188.329931 
L 471.768522 187.440174 
L 472.177762 186.624117 
L 472.382381 186.611032 
L 472.791621 187.35465 
L 473.20086 187.975641 
L 473.40548 187.954146 
L 473.814719 187.449707 
L 474.223959 186.899848 
L 474.428579 186.935094 
L 474.837818 187.72773 
L 475.451677 189.226356 
L 475.860917 189.782815 
L 476.065536 189.870768 
L 476.270156 189.800231 
L 476.884015 189.230321 
L 477.497875 189.430244 
L 477.702494 189.221589 
L 478.111734 187.937692 
L 478.930213 184.515431 
L 479.339452 183.754877 
L 479.748692 183.664059 
L 480.362551 183.666259 
L 480.56717 183.820785 
L 481.794889 185.444512 
L 481.999509 185.69554 
L 482.408748 186.777864 
L 482.817987 187.9156 
L 483.227227 188.470478 
L 483.636466 188.559783 
L 484.045706 188.490507 
L 484.454945 188.784732 
L 484.659565 188.933575 
L 484.864185 188.902546 
L 486.501142 187.013606 
L 486.910382 186.620152 
L 487.524241 186.262723 
L 487.933481 185.683119 
L 488.956579 183.510656 
L 489.161199 183.510404 
L 489.570438 184.127546 
L 489.979678 184.71045 
L 490.184298 184.8155 
L 490.593537 184.619838 
L 491.207396 183.985463 
L 492.025875 183.062822 
L 492.435115 182.751432 
L 493.048974 182.081811 
L 493.458213 182.087953 
L 493.867453 182.247933 
L 494.276692 182.058276 
L 494.685932 181.659437 
L 495.70903 179.809226 
L 496.11827 179.830355 
L 496.322889 180.019508 
L 497.141368 181.22895 
L 497.755227 180.934175 
L 498.778326 180.366923 
L 500.006044 179.332265 
L 500.824523 179.173728 
L 501.233763 179.431585 
L 501.847622 179.969734 
L 502.256861 180.032937 
L 502.666101 179.902817 
L 503.07534 179.432845 
L 503.6892 178.365715 
L 504.303059 176.667005 
L 504.916918 174.908713 
L 505.326157 174.34091 
L 505.530777 174.399554 
L 505.940017 175.312066 
L 506.963115 178.702748 
L 507.576974 181.433091 
L 507.986214 183.294851 
L 508.190834 183.839554 
L 508.395453 184.047384 
L 508.600073 183.961309 
L 509.009312 183.457673 
L 509.213932 183.419357 
L 509.827791 184.086113 
L 510.032411 184.057696 
L 510.441651 183.555068 
L 510.85089 182.813879 
L 511.05551 182.678053 
L 511.260129 182.790894 
L 511.873989 183.862585 
L 512.897087 185.747148 
L 513.306327 185.987886 
L 513.920186 185.78276 
L 514.738665 186.100818 
L 515.352524 185.997075 
L 515.966383 185.700215 
L 516.784862 185.916203 
L 517.398721 185.27548 
L 517.603341 185.287167 
L 518.62644 186.023521 
L 519.240299 186.368552 
L 519.854158 186.979552 
L 520.263397 187.277146 
L 520.672637 187.226707 
L 520.877257 187.37626 
L 521.491116 188.239067 
L 521.695736 188.210329 
L 522.718834 187.015256 
L 523.128074 187.035858 
L 523.946552 187.660035 
L 524.560412 187.196801 
L 524.765031 187.404103 
L 525.174271 188.611116 
L 525.99275 191.593288 
L 526.197369 191.742154 
L 526.401989 191.516839 
L 526.811229 190.799804 
L 527.015848 190.711759 
L 527.629708 190.875772 
L 528.038947 190.59752 
L 528.652806 189.954116 
L 528.857426 189.928128 
L 529.062046 190.129565 
L 530.085144 191.971938 
L 530.903623 191.749075 
L 531.312863 191.063619 
L 532.131342 189.213546 
L 532.94982 188.00541 
L 533.15444 188.025485 
L 533.768299 188.693203 
L 533.972919 188.525546 
L 534.382159 187.880079 
L 534.586778 187.810344 
L 534.791398 188.037974 
L 535.609877 189.573014 
L 536.223736 189.919833 
L 536.837595 190.932422 
L 537.246835 191.530405 
L 537.656074 191.829306 
L 537.860694 191.809872 
L 538.065314 191.536822 
L 538.679173 189.65957 
L 539.088412 188.635385 
L 539.293032 188.390476 
L 539.497652 188.364443 
L 540.111511 188.75313 
L 540.316131 188.742176 
L 540.52075 188.587375 
L 540.92999 187.74038 
L 541.543849 186.262265 
L 541.748469 186.236874 
L 542.157708 186.91 
L 542.566948 187.714462 
L 542.976187 188.112247 
L 543.999286 188.79493 
L 544.408525 188.788078 
L 544.613145 188.668018 
L 545.022384 188.01547 
L 545.431624 187.445995 
L 545.840863 187.339548 
L 546.045483 187.341954 
L 546.250103 187.507869 
L 546.659342 188.698428 
L 547.068582 189.995297 
L 547.273201 190.29697 
L 547.477821 190.37209 
L 548.2963 189.925631 
L 549.114779 190.013011 
L 549.319399 189.777452 
L 550.137878 187.999658 
L 550.342497 187.942344 
L 550.547117 188.125378 
L 550.956356 189.07403 
L 551.570216 190.918168 
L 551.774835 191.25472 
L 551.979455 191.346684 
L 552.184075 191.217985 
L 552.593314 190.504708 
L 553.411793 188.753245 
L 554.025652 188.439838 
L 554.434892 188.353191 
L 554.639512 188.494494 
L 555.048751 189.007962 
L 555.253371 188.966506 
L 556.07185 187.612117 
L 556.481089 187.253542 
L 556.890329 186.949508 
L 557.299568 187.171822 
L 558.322667 187.930771 
L 559.345765 189.498283 
L 559.550385 189.650587 
L 559.959624 189.530985 
L 560.368864 189.22741 
L 561.391962 188.197657 
L 561.596582 188.167888 
L 562.005822 188.511727 
L 562.619681 189.077238 
L 563.23354 189.520742 
L 563.43816 189.425386 
L 564.256639 188.027662 
L 564.461258 188.136126 
L 564.870498 188.99616 
L 565.484357 190.320436 
L 566.098216 190.985909 
L 566.507456 191.1609 
L 566.916695 190.852947 
L 567.325935 190.417304 
L 567.735174 189.422865 
L 568.553653 186.726416 
L 568.962892 186.31149 
L 569.167512 186.304019 
L 569.576752 186.509626 
L 570.190611 186.530984 
L 570.59985 187.294677 
L 571.418329 188.883731 
L 571.827569 189.027418 
L 572.236808 189.052099 
L 572.441428 188.877383 
L 572.850667 187.818869 
L 573.259907 186.856124 
L 573.464526 186.822757 
L 574.078386 187.607579 
L 574.283005 187.602652 
L 574.692245 187.388543 
L 574.896864 187.483715 
L 575.306104 188.275779 
L 575.715343 189.376597 
L 575.919963 189.684205 
L 576.124583 189.734873 
L 576.943062 189.31832 
L 577.352301 189.592058 
L 577.761541 189.930833 
L 577.96616 189.918526 
L 578.3754 189.437807 
L 579.193879 188.01932 
L 579.398498 187.853863 
L 579.603118 187.895892 
L 580.216977 188.593081 
L 580.626217 188.528571 
L 580.830837 188.50735 
L 581.444696 188.681837 
L 581.649315 188.438578 
L 582.058555 187.465909 
L 583.286273 183.793033 
L 583.695513 183.522435 
L 584.104752 183.269024 
L 585.332471 181.249346 
L 585.94633 180.421693 
L 586.560189 180.138468 
L 586.969428 180.029248 
L 587.174048 180.056793 
L 587.378668 180.204376 
L 587.787907 181.042983 
L 588.401766 182.707868 
L 588.606386 182.760644 
L 589.015626 182.440111 
L 589.220245 182.517248 
L 589.629485 182.879421 
L 589.834105 182.87855 
L 590.243344 182.563402 
L 590.857203 181.873936 
L 591.266443 181.990558 
L 591.471062 182.02963 
L 591.675682 181.885921 
L 592.289541 181.058658 
L 592.494161 181.117553 
L 592.698781 181.428599 
L 593.10802 182.978374 
L 593.51726 184.909618 
L 593.721879 185.429662 
L 594.131119 185.710275 
L 594.540358 185.727164 
L 594.744978 185.660294 
L 594.949598 185.44371 
L 595.358837 184.376373 
L 595.768077 183.308876 
L 596.177316 182.932656 
L 596.791175 182.691895 
L 597.200415 182.65878 
L 597.405034 182.504415 
L 597.814274 181.638331 
L 599.246612 176.507208 
L 599.860471 173.214999 
L 602.111288 158.475715 
L 602.520528 157.339422 
L 602.725147 157.425176 
L 602.929767 158.006339 
L 603.339006 160.772385 
L 604.771345 174.057823 
L 605.180584 175.783001 
L 605.794443 177.595903 
L 606.408302 180.122885 
L 607.022162 181.260438 
L 608.04526 182.73979 
L 608.4545 182.54704 
L 608.659119 182.615285 
L 608.863739 182.987243 
L 609.682218 185.244291 
L 609.886838 185.376175 
L 610.296077 185.204553 
L 612.137655 183.39534 
L 612.546894 183.800985 
L 613.569993 185.12572 
L 613.774613 185.082156 
L 614.388472 184.381392 
L 614.797711 183.707005 
L 615.206951 182.834252 
L 615.41157 182.605637 
L 616.02543 182.600435 
L 616.230049 182.328622 
L 617.253148 179.758627 
L 618.276247 176.91526 
L 618.480866 176.625389 
L 618.685486 176.560306 
L 618.890106 176.730461 
L 619.299345 177.630026 
L 620.322444 180.802955 
L 620.936303 181.058772 
L 621.345542 181.340645 
L 622.368641 183.033626 
L 622.573261 183.022603 
L 623.18712 182.540302 
L 623.39174 182.557673 
L 624.414838 183.178779 
L 624.824078 183.333878 
L 625.642557 184.245978 
L 626.461036 183.661103 
L 627.074895 183.580208 
L 627.484134 183.241983 
L 627.688754 183.243197 
L 627.893374 183.435146 
L 628.302613 184.357376 
L 628.916472 185.761081 
L 629.530332 186.576978 
L 629.734951 186.736706 
L 629.939571 186.729166 
L 630.34881 186.206211 
L 630.75805 185.81482 
L 631.167289 185.888588 
L 631.371909 185.689329 
L 632.190388 184.132106 
L 633.008867 182.005041 
L 633.213487 181.961958 
L 634.236585 182.535421 
L 634.850444 183.189389 
L 635.464304 183.370728 
L 636.078163 183.284035 
L 636.487402 183.101069 
L 636.896642 182.513467 
L 637.305881 181.708914 
L 637.510501 181.567084 
L 637.715121 181.655656 
L 638.32898 182.502673 
L 639.556698 184.434627 
L 640.579797 184.823589 
L 640.989036 185.576763 
L 641.398276 186.438883 
L 641.602895 186.509878 
L 641.807515 186.211551 
L 642.625994 183.962936 
L 643.649093 182.906393 
L 644.058332 182.834229 
L 644.262952 182.792728 
L 644.467572 182.561339 
L 645.28605 180.749606 
L 645.49067 180.654869 
L 645.69529 180.720914 
L 646.104529 181.185959 
L 646.718389 182.152234 
L 646.923008 182.253777 
L 647.127628 182.094988 
L 647.536867 180.979092 
L 647.946107 179.560009 
L 648.150727 179.276028 
L 648.559966 179.264959 
L 648.969206 179.249605 
L 649.583065 178.944265 
L 650.196924 179.179824 
L 650.810783 178.895591 
L 651.015403 179.124733 
L 651.833882 180.643158 
L 652.243121 181.501474 
L 652.652361 182.402138 
L 652.85698 182.547887 
L 653.0616 182.434199 
L 653.47084 181.537246 
L 654.493938 178.764004 
L 655.517037 176.871925 
L 656.130896 175.236717 
L 656.335516 175.03716 
L 656.540135 175.23344 
L 656.949375 176.799852 
L 657.358614 178.542722 
L 657.563234 178.985378 
L 657.767854 179.121708 
L 658.177093 178.899303 
L 658.790952 178.34163 
L 659.404812 177.418644 
L 659.609431 177.361697 
L 660.223291 177.73519 
L 661.041769 178.39129 
L 661.451009 178.323182 
L 662.064868 177.915887 
L 662.269488 178.006224 
L 662.678727 178.729721 
L 663.292586 179.758856 
L 663.906446 180.302413 
L 664.315685 180.661835 
L 665.338784 181.964066 
L 665.543403 181.795126 
L 665.952643 180.69896 
L 666.771122 178.189624 
L 667.79422 175.780663 
L 667.99884 175.530117 
L 668.20346 175.511119 
L 668.612699 175.825534 
L 668.817319 175.819415 
L 669.226559 175.594237 
L 669.635798 175.806307 
L 669.840418 175.942339 
L 670.045037 175.934089 
L 671.477376 174.75013 
L 671.681995 174.741766 
L 672.091235 174.996781 
L 672.295854 174.982756 
L 672.705094 174.566455 
L 673.932812 172.954713 
L 674.137432 172.80422 
L 674.342052 172.806787 
L 674.751291 173.158945 
L 675.160531 173.909736 
L 675.77439 175.562383 
L 675.97901 175.454103 
L 677.002108 173.315557 
L 677.206728 173.240047 
L 677.411348 173.315282 
L 677.615967 173.587369 
L 678.229826 175.041789 
L 678.434446 175.171336 
L 678.639066 175.017772 
L 679.252925 173.960725 
L 679.662165 172.579386 
L 680.276024 169.245056 
L 681.094503 164.400001 
L 681.299122 163.752242 
L 681.503742 163.484761 
L 681.708362 163.572279 
L 682.117601 164.547056 
L 683.1407 167.47723 
L 684.163799 168.982021 
L 684.573038 169.111018 
L 684.982277 168.839869 
L 685.391517 168.040289 
L 686.005376 166.592217 
L 686.209996 166.577505 
L 686.619235 167.384808 
L 687.233094 168.631948 
L 687.642334 169.174978 
L 687.846954 169.23369 
L 688.051573 169.052076 
L 688.256193 168.524721 
L 688.665433 166.418235 
L 689.279292 161.507409 
L 690.097771 152.7214 
L 690.50701 148.535493 
L 690.71163 147.240182 
L 690.91625 146.783342 
L 691.120869 147.216303 
L 691.530109 150.079103 
L 692.757827 160.598999 
L 693.576306 164.519212 
L 694.190165 166.506785 
L 694.599405 167.179316 
L 695.008644 167.243069 
L 695.622503 166.943528 
L 696.031743 166.426462 
L 696.645602 165.047323 
L 697.464081 161.992506 
L 698.487179 158.01358 
L 698.896419 155.055906 
L 700.124137 144.294585 
L 700.328757 143.957666 
L 700.533377 144.612483 
L 700.942616 148.553688 
L 701.556475 155.604619 
L 701.965715 158.386844 
L 702.374954 159.626192 
L 702.579574 159.586364 
L 703.193433 158.395553 
L 703.398053 158.341699 
L 703.602673 158.590916 
L 704.011912 159.814956 
L 704.625771 162.318012 
L 704.830391 162.742884 
L 705.035011 162.801963 
L 705.23963 162.515003 
L 705.64887 161.316973 
L 706.262729 159.289091 
L 706.671969 158.703665 
L 706.876588 158.732792 
L 707.490447 159.209181 
L 707.695067 159.144396 
L 708.308926 158.418217 
L 708.718166 157.541637 
L 709.332025 155.66065 
L 709.536645 155.767945 
L 709.741264 156.397324 
L 711.582842 164.980591 
L 711.787462 165.427944 
L 711.992081 165.439585 
L 712.401321 164.337003 
L 712.605941 163.746215 
L 712.81056 163.506096 
L 713.01518 163.643412 
L 713.629039 164.499871 
L 714.447518 164.805738 
L 715.061377 165.672074 
L 715.265997 165.726363 
L 716.289096 165.034467 
L 716.698335 165.411261 
L 717.312194 166.379873 
L 717.516814 166.392523 
L 717.721434 165.963182 
L 718.130673 163.799817 
L 718.539913 161.339935 
L 718.744532 160.593155 
L 718.949152 160.356886 
L 719.153772 160.561691 
L 719.767631 161.572148 
L 720.17687 161.806264 
L 720.58611 161.792903 
L 720.79073 161.94429 
L 721.199969 162.706722 
L 721.609209 163.546658 
L 721.813828 163.627599 
L 722.018448 163.373364 
L 722.427687 162.180124 
L 723.041547 159.994094 
L 723.246166 159.669253 
L 723.450786 159.738277 
L 724.064645 160.580161 
L 724.269265 160.501787 
L 726.110843 158.634114 
L 726.315462 158.636566 
L 727.543181 159.333457 
L 727.7478 159.293743 
L 728.36166 158.830714 
L 728.566279 158.927216 
L 729.384758 159.812252 
L 729.998617 159.967786 
L 730.817096 160.96619 
L 731.021716 160.797226 
L 731.840195 159.568397 
L 732.249434 158.90297 
L 732.863294 157.809188 
L 733.477153 156.878296 
L 733.886392 155.590663 
L 734.704871 152.610668 
L 735.114111 151.948174 
L 735.31873 151.895329 
L 735.72797 152.278562 
L 736.137209 152.810683 
L 736.341829 152.902578 
L 736.546449 152.7555 
L 736.955688 151.775911 
L 737.364928 150.939137 
L 737.569547 150.885077 
L 737.978787 151.164361 
L 738.388026 151.631239 
L 739.411125 153.610997 
L 739.615745 153.602288 
L 740.024984 153.108575 
L 741.048083 151.438076 
L 741.457322 151.364307 
L 741.866562 151.649572 
L 743.09428 153.046792 
L 743.503519 152.875835 
L 743.708139 152.563483 
L 744.117379 151.262787 
L 744.731238 148.133468 
L 745.345097 143.026156 
L 746.777435 129.430268 
L 746.982055 129.597788 
L 747.391294 132.162971 
L 748.209773 138.062439 
L 749.846731 146.150204 
L 750.25597 146.821131 
L 750.66521 147.126906 
L 751.074449 148.033735 
L 751.688308 149.695297 
L 751.892928 149.927877 
L 752.097548 149.892769 
L 752.302168 149.609269 
L 752.711407 148.463443 
L 754.143745 143.136934 
L 754.757604 138.614772 
L 755.780703 131.073245 
L 755.985323 130.497078 
L 756.189942 130.480807 
L 756.599182 131.439038 
L 757.213041 133.968838 
L 758.23614 138.490152 
L 758.645379 139.443342 
L 759.054619 140.025513 
L 759.873097 140.554106 
L 760.282337 141.621901 
L 761.305436 144.838027 
L 761.714675 145.49289 
L 761.919295 145.539227 
L 762.123914 145.23336 
L 762.533154 143.626821 
L 763.556253 138.436436 
L 764.374731 135.945548 
L 765.19321 133.983482 
L 765.39783 133.903228 
L 765.60245 134.238726 
L 766.011689 135.895132 
L 766.625548 138.557092 
L 767.034788 139.361324 
L 767.444027 139.436146 
L 767.853267 139.551279 
L 768.262506 139.822129 
L 768.467126 139.803429 
L 769.285605 139.236933 
L 769.694844 139.302589 
L 770.513323 139.707844 
L 771.536422 140.921389 
L 772.354901 141.082606 
L 773.377999 140.744954 
L 773.582619 140.60812 
L 774.196478 139.649751 
L 774.401098 139.784111 
L 774.810338 141.262593 
L 775.219577 142.896219 
L 775.424197 143.242213 
L 775.628816 143.202521 
L 776.038056 142.406241 
L 776.447295 141.67085 
L 777.265774 140.647926 
L 777.879633 139.650461 
L 778.288873 138.857115 
L 778.493493 138.734626 
L 778.698112 138.915345 
L 779.311972 140.257726 
L 780.33507 142.40042 
L 780.74431 142.742083 
L 780.948929 142.778887 
L 781.358169 142.351792 
L 781.767408 142.047644 
L 781.972028 141.979902 
L 782.176648 141.730594 
L 783.199746 139.393178 
L 783.404366 139.361232 
L 784.427465 140.195095 
L 784.836704 140.886762 
L 786.269042 144.236767 
L 786.678282 144.603981 
L 786.882901 144.596693 
L 787.292141 144.287068 
L 787.496761 144.303156 
L 787.70138 144.603087 
L 788.519859 146.608397 
L 788.929099 146.976757 
L 789.338338 147.144987 
L 789.747578 147.846485 
L 790.566057 149.708291 
L 790.975296 149.889607 
L 791.998395 149.679668 
L 792.407634 149.372358 
L 793.021493 148.559967 
L 793.226113 148.469172 
L 793.430733 148.522224 
L 793.839972 148.963184 
L 794.249212 149.713768 
L 794.658451 151.252406 
L 795.06769 152.838252 
L 795.886169 154.454485 
L 796.295409 155.775049 
L 796.500029 156.113114 
L 796.909268 156.2414 
L 797.318507 156.173178 
L 797.727747 155.861719 
L 798.546226 154.937153 
L 798.750846 154.946021 
L 798.955465 155.234953 
L 799.364705 156.538444 
L 800.183184 159.376448 
L 800.797043 160.345198 
L 801.820141 161.859063 
L 802.229381 161.649194 
L 803.04786 160.887838 
L 803.457099 160.879772 
L 803.866339 161.332946 
L 804.684818 162.634306 
L 805.503297 163.098732 
L 805.912536 163.241708 
L 806.117156 163.496311 
L 806.526395 164.767238 
L 807.140254 166.888459 
L 807.958733 168.730076 
L 808.572592 171.116029 
L 808.777212 171.333507 
L 808.981832 171.119513 
L 809.595691 169.982624 
L 809.800311 169.901706 
L 810.20955 170.102363 
L 811.028029 170.802967 
L 811.437269 170.942643 
L 811.641888 171.192433 
L 812.051128 172.274963 
L 812.664987 174.322508 
L 812.869607 174.547251 
L 813.278846 174.410072 
L 813.688086 174.377943 
L 813.892705 174.608942 
L 814.506565 175.725343 
L 815.325043 176.153905 
L 815.938903 176.956808 
L 816.348142 177.308622 
L 817.166621 178.501427 
L 817.57586 178.094567 
L 818.18972 177.608255 
L 818.394339 177.519339 
L 818.598959 177.567693 
L 818.803579 177.811044 
L 819.212818 178.931822 
L 820.235917 182.755122 
L 820.645156 183.261577 
L 820.849776 183.262333 
L 821.259016 182.753494 
L 821.668255 182.133534 
L 822.282114 181.374035 
L 822.691354 180.989816 
L 822.895973 181.08492 
L 823.305213 181.885417 
L 823.714452 182.878183 
L 823.919072 183.055488 
L 824.123692 182.934558 
L 825.14679 181.234679 
L 825.35141 181.371858 
L 825.76065 182.385524 
L 826.374509 184.314018 
L 826.579128 184.627951 
L 826.783748 184.70573 
L 826.988368 184.597793 
L 827.397607 183.915156 
L 828.829945 180.388143 
L 829.443805 178.357144 
L 829.853044 177.952668 
L 830.262284 177.601816 
L 830.876143 176.40209 
L 831.899241 173.764308 
L 832.71772 171.943522 
L 832.92234 171.779806 
L 833.740819 171.750542 
L 833.945439 171.508543 
L 834.354678 170.442696 
L 835.582396 166.859424 
L 837.014734 162.494974 
L 838.447073 155.267975 
L 840.49327 144.954787 
L 842.130228 132.161757 
L 842.744087 125.04753 
L 843.767185 113.279464 
L 844.585664 105.805976 
L 846.222622 91.724396 
L 846.836481 84.382242 
L 849.087298 52.266922 
L 850.315017 33.10184 
L 852.508159 -1 
M 950.863313 -1 
L 951.601781 30.128491 
L 952.42026 52.805575 
L 953.238739 70.035426 
L 954.057218 82.938593 
L 955.080317 94.803298 
L 956.103415 103.675221 
L 956.921894 111.750749 
L 957.331134 113.540873 
L 957.740373 114.719492 
L 958.149613 116.676975 
L 959.581951 125.133284 
L 960.19581 126.749723 
L 961.014289 128.908986 
L 961.628148 130.650298 
L 962.037388 132.674101 
L 962.651247 136.050116 
L 963.265106 137.854815 
L 964.492824 140.707165 
L 965.515923 144.754542 
L 965.925162 145.509642 
L 966.334402 145.78574 
L 967.152881 145.920214 
L 968.175979 147.65795 
L 968.380599 147.687971 
L 968.585219 147.53702 
L 968.994458 146.726302 
L 969.608317 145.028257 
L 969.812937 144.869171 
L 970.017557 145.151227 
L 971.040656 147.975711 
L 971.449895 149.116472 
L 972.063754 152.673367 
L 972.472994 154.615084 
L 972.677613 155.012869 
L 973.086853 155.15573 
L 973.496092 155.316948 
L 973.905332 155.710104 
L 974.314571 156.462063 
L 974.92843 158.16806 
L 975.33767 158.532387 
L 975.54229 158.494346 
L 975.951529 158.027834 
L 976.360768 157.445044 
L 976.565388 157.427513 
L 976.770008 157.678999 
L 977.793107 159.898509 
L 978.406966 160.730769 
L 978.611585 160.821908 
L 978.816205 160.684729 
L 979.225445 160.089473 
L 979.430064 159.979496 
L 979.634684 160.146604 
L 980.043924 161.178374 
L 980.657783 163.311374 
L 981.476262 166.583555 
L 981.680881 166.678773 
L 981.885501 166.405975 
L 982.49936 164.519648 
L 982.9086 163.479032 
L 983.113219 163.350722 
L 983.317839 163.498717 
L 983.931698 164.303797 
L 984.545558 164.461486 
L 985.364036 165.302224 
L 985.773276 164.969155 
L 986.182515 164.566856 
L 986.591755 164.479956 
L 986.796374 164.606272 
L 987.205614 165.413277 
L 987.614853 166.42935 
L 988.024093 166.868453 
L 988.228713 166.898451 
L 988.433332 166.794387 
L 988.842572 166.152977 
L 989.251811 165.556368 
L 989.456431 165.531824 
L 989.86567 166.026844 
L 990.684149 167.325133 
L 990.888769 167.321994 
L 991.298008 166.661494 
L 991.707248 166.104989 
L 992.116487 165.664213 
L 992.321107 165.407663 
L 992.525727 165.354015 
L 992.934966 165.954084 
L 993.548825 166.941534 
L 993.958065 167.559501 
L 994.367304 168.637883 
L 994.981164 170.520154 
L 995.185783 170.686734 
L 995.390403 170.578156 
L 995.799642 169.831054 
L 996.208882 169.099307 
L 996.413502 169.065895 
L 996.822741 169.213638 
L 997.027361 169.086703 
L 997.64122 168.375443 
L 998.664319 168.497978 
L 999.073558 167.905632 
L 999.892037 166.25672 
L 1000.301276 165.885885 
L 1000.505896 165.466535 
L 1000.915136 163.834169 
L 1002.347474 156.954035 
L 1002.552093 156.506155 
L 1002.756713 156.508378 
L 1002.961333 156.955937 
L 1003.370572 159.042738 
L 1004.393671 165.99978 
L 1005.21215 169.591989 
L 1005.621389 170.550289 
L 1006.849108 171.517595 
L 1007.462967 172.089821 
L 1007.872206 172.746081 
L 1008.076826 172.875628 
L 1008.281446 172.734348 
L 1009.509164 170.621468 
L 1009.713784 170.576689 
L 1010.123023 170.889935 
L 1010.327643 171.059173 
L 1010.532263 171.073267 
L 1010.941502 170.612508 
L 1011.555361 169.359066 
L 1011.964601 168.607313 
L 1012.169221 168.498413 
L 1012.57846 168.665704 
L 1014.624657 171.235677 
L 1015.033897 172.131277 
L 1015.443136 172.377377 
L 1015.647756 172.45676 
L 1016.056995 173.059373 
L 1017.080094 175.515588 
L 1017.284714 175.547465 
L 1017.489334 175.291648 
L 1018.307812 173.593717 
L 1018.717052 173.463574 
L 1019.126291 173.3929 
L 1019.740151 172.782518 
L 1020.14939 172.849893 
L 1020.558629 172.98643 
L 1020.763249 172.864491 
L 1021.377108 172.210614 
L 1021.786348 172.131781 
L 1021.990968 172.225922 
L 1022.195587 172.544187 
L 1022.604827 174.02936 
L 1023.423306 177.971895 
L 1023.627925 178.396377 
L 1023.832545 178.495308 
L 1024.037165 178.385194 
L 1024.241785 178.090488 
L 1025.264883 175.753118 
L 1025.469503 175.8567 
L 1025.878742 176.385751 
L 1026.083362 176.432157 
L 1026.287982 176.182619 
L 1027.31108 174.189982 
L 1027.72032 173.804503 
L 1028.129559 173.751452 
L 1028.948038 174.373475 
L 1029.357278 175.309477 
L 1029.971137 177.166448 
L 1030.380376 177.70258 
L 1030.994235 178.196499 
L 1031.403475 177.821081 
L 1031.608095 177.639903 
L 1031.812714 177.640774 
L 1032.221954 178.049192 
L 1033.245052 179.589961 
L 1033.654292 180.087708 
L 1034.268151 181.143311 
L 1034.472771 181.113382 
L 1034.88201 180.292719 
L 1035.29125 179.510785 
L 1035.495869 179.501297 
L 1036.518968 180.382827 
L 1037.337447 180.067083 
L 1037.746686 179.622548 
L 1038.360546 178.448467 
L 1038.974405 177.389769 
L 1039.383644 177.235862 
L 1039.792884 177.200318 
L 1040.202123 177.022853 
L 1040.611363 177.241958 
L 1041.225222 177.952966 
L 1042.043701 179.3448 
L 1042.86218 180.99165 
L 1043.680659 181.489534 
L 1044.294518 181.499778 
L 1044.499137 181.585165 
L 1044.703757 181.547811 
L 1045.317616 180.788197 
L 1045.726856 180.133083 
L 1046.545335 178.292726 
L 1046.954574 178.129812 
L 1047.568433 178.148191 
L 1047.977673 178.526589 
L 1048.386912 179.131791 
L 1048.591532 179.244403 
L 1048.796152 179.144579 
L 1049.205391 178.654096 
L 1049.410011 178.60627 
L 1049.614631 178.888784 
L 1050.02387 180.468328 
L 1050.637729 183.454511 
L 1051.046969 184.766756 
L 1051.251588 185.138302 
L 1051.456208 185.187068 
L 1051.660828 184.911016 
L 1052.274687 183.475938 
L 1052.479307 183.279795 
L 1052.683927 183.415621 
L 1053.297786 184.535781 
L 1053.502405 184.398419 
L 1054.320884 183.038278 
L 1054.525504 182.968108 
L 1054.730124 183.146421 
L 1055.343983 184.028019 
L 1055.548603 183.926453 
L 1056.571701 182.437247 
L 1057.185561 182.235925 
L 1057.5948 181.855007 
L 1057.79942 181.85189 
L 1058.208659 182.307104 
L 1059.231758 183.658513 
L 1059.640997 183.630578 
L 1060.664096 183.351501 
L 1061.277955 183.458704 
L 1062.096434 184.177733 
L 1063.733392 182.359307 
L 1064.551871 180.883873 
L 1064.75649 180.85509 
L 1064.96111 181.220242 
L 1065.574969 183.167825 
L 1066.393448 184.400986 
L 1066.598068 184.49751 
L 1066.802688 184.439371 
L 1067.211927 183.828325 
L 1068.030406 182.292002 
L 1068.644265 181.757405 
L 1069.258124 181.099907 
L 1069.462744 181.092139 
L 1069.871984 181.533396 
L 1070.485843 182.508975 
L 1070.895082 182.639072 
L 1071.099702 182.706836 
L 1071.304322 183.010412 
L 1071.918181 184.555008 
L 1072.122801 184.659461 
L 1072.53204 184.295845 
L 1072.941279 184.022817 
L 1073.145899 184.138156 
L 1073.964378 184.985357 
L 1074.373618 184.769048 
L 1074.987477 184.31718 
L 1075.396716 183.514735 
L 1076.010575 181.891238 
L 1076.419815 181.37557 
L 1076.624435 181.235459 
L 1076.829054 181.272675 
L 1077.647533 182.215575 
L 1077.852153 182.056695 
L 1078.261392 181.329852 
L 1079.079871 179.575409 
L 1079.284491 179.654448 
L 1079.69373 180.601382 
L 1080.30759 182.055137 
L 1081.126069 183.192827 
L 1081.535308 184.088748 
L 1081.739928 184.083798 
L 1082.149167 183.191131 
L 1082.558407 182.308181 
L 1082.763026 182.171942 
L 1083.172266 182.317897 
L 1083.990745 182.914437 
L 1084.195364 182.758765 
L 1084.604604 181.949858 
L 1085.013843 180.974577 
L 1085.218463 180.77227 
L 1085.423083 180.807332 
L 1086.036942 181.417003 
L 1086.650801 182.169627 
L 1086.855421 182.132044 
L 1087.6739 181.494003 
L 1088.083139 181.482499 
L 1088.492379 181.647543 
L 1088.696998 181.611083 
L 1088.901618 181.436872 
L 1089.310858 180.59359 
L 1089.924717 179.31015 
L 1090.333956 179.046313 
L 1090.538576 179.143204 
L 1090.947815 179.779893 
L 1091.357055 180.478526 
L 1091.970914 181.227025 
L 1092.584773 182.030914 
L 1092.994013 182.211015 
L 1093.198632 182.091093 
L 1093.607872 181.424359 
L 1094.221731 180.160468 
L 1094.426351 180.196561 
L 1094.83559 180.971712 
L 1095.24483 181.680589 
L 1095.449449 181.79453 
L 1095.654069 181.706806 
L 1096.472548 180.579336 
L 1096.881788 180.701985 
L 1098.314126 181.285806 
L 1098.723365 181.054487 
L 1098.927985 181.034939 
L 1099.337224 181.39608 
L 1099.746464 181.895386 
L 1100.155703 182.082499 
L 1100.769562 182.10097 
L 1100.974182 181.942456 
L 1101.178802 181.560529 
L 1102.2019 178.620592 
L 1102.61114 178.031913 
L 1103.429619 176.513602 
L 1104.043478 176.114351 
L 1104.861957 175.073574 
L 1105.475816 174.6875 
L 1105.885055 174.134387 
L 1106.703534 172.452658 
L 1107.112774 170.969891 
L 1107.726633 167.010238 
L 1108.545112 160.338117 
L 1109.97745 146.416998 
L 1110.386689 144.557208 
L 1110.591309 144.149432 
L 1110.795929 144.089459 
L 1111.000549 144.397411 
L 1111.205168 145.134361 
L 1111.614408 147.831016 
L 1112.432887 153.308842 
L 1112.842126 154.572642 
L 1113.046746 154.669946 
L 1113.251366 154.460397 
L 1113.660605 153.382565 
L 1114.069845 151.469105 
L 1114.683704 147.027036 
L 1116.934521 126.767736 
L 1117.957619 120.732236 
L 1118.571479 117.137666 
L 1118.980718 113.456769 
L 1119.389957 107.503402 
L 1119.799197 98.209495 
L 1120.208436 84.105869 
L 1120.617676 62.985572 
L 1121.026915 32.755273 
L 1121.358386 -1 
M 1124.560665 -1 
L 1125.11931 48.153774 
L 1125.733169 80.030166 
L 1126.347028 96.638888 
L 1127.370127 119.392353 
L 1128.393225 141.272584 
L 1129.211704 152.975797 
L 1129.825564 159.310334 
L 1131.871761 173.971336 
L 1132.281 175.12674 
L 1133.917958 177.322234 
L 1134.941057 179.039965 
L 1136.168775 179.103077 
L 1136.578015 179.565509 
L 1136.987254 180.527315 
L 1138.010353 183.953609 
L 1138.624212 185.144329 
L 1138.828832 185.329334 
L 1139.033451 185.287786 
L 1139.64731 184.80136 
L 1140.05655 184.743083 
L 1140.465789 185.029494 
L 1140.875029 185.372004 
L 1141.079648 185.3528 
L 1141.898127 184.429196 
L 1142.511987 184.556864 
L 1142.921226 184.220312 
L 1143.330465 183.78719 
L 1143.535085 183.724307 
L 1143.739705 183.799152 
L 1144.762804 184.662899 
L 1145.172043 184.598801 
L 1145.785902 184.749935 
L 1146.195142 184.22226 
L 1146.809001 183.254954 
L 1148.241339 181.605217 
L 1148.445959 181.633404 
L 1148.650578 181.939614 
L 1149.059818 183.457375 
L 1149.469057 185.19117 
L 1149.673677 185.536659 
L 1149.878297 185.413758 
L 1150.287536 184.248178 
L 1150.696776 183.136132 
L 1151.106015 182.86056 
L 1151.719874 182.715728 
L 1151.924494 182.890444 
L 1152.333733 183.827431 
L 1153.356832 186.710558 
L 1153.561452 186.644856 
L 1154.379931 185.519724 
L 1155.403029 185.329334 
L 1155.812269 185.101773 
L 1156.221508 184.394111 
L 1156.630748 183.781323 
L 1156.835367 183.752173 
L 1157.244607 183.969559 
L 1157.653846 184.448056 
L 1158.881565 186.928265 
L 1159.290804 187.205784 
L 1159.495424 187.194303 
L 1159.904663 186.71977 
L 1160.723142 185.566909 
L 1161.132382 185.063685 
L 1161.337001 184.959599 
L 1161.541621 185.04604 
L 1161.950861 185.658071 
L 1162.3601 186.321046 
L 1162.56472 186.481943 
L 1162.76934 186.417066 
L 1163.997058 184.732542 
L 1164.201678 184.823039 
L 1164.815537 185.38525 
L 1165.634016 185.441693 
L 1165.838635 185.574976 
L 1166.247875 186.295265 
L 1167.066354 188.369897 
L 1167.475593 188.604631 
L 1167.680213 188.454207 
L 1168.089452 187.487199 
L 1168.703312 185.853366 
L 1169.112551 185.511176 
L 1169.521791 185.429044 
L 1170.340269 184.656528 
L 1170.749509 184.844924 
L 1171.363368 185.329448 
L 1172.181847 187.2925 
L 1172.386467 187.2837 
L 1172.795706 187.000406 
L 1173.204946 187.059874 
L 1173.614185 187.102064 
L 1174.023425 186.597855 
L 1174.432664 186.12786 
L 1175.455763 185.34384 
L 1175.660382 185.507212 
L 1176.069622 186.364244 
L 1177.09272 189.369515 
L 1177.29734 189.59836 
L 1177.50196 189.427471 
L 1178.320439 187.47574 
L 1178.729678 187.465634 
L 1179.138918 187.478972 
L 1179.548157 187.044039 
L 1179.957397 186.615592 
L 1180.162016 186.580759 
L 1180.366636 186.692614 
L 1180.980495 187.392072 
L 1181.185115 187.24834 
L 1181.594354 186.127585 
L 1182.208214 184.356505 
L 1182.412833 184.090031 
L 1182.617453 184.096884 
L 1183.435932 184.976809 
L 1183.845171 184.557345 
L 1184.254411 184.2012 
L 1184.86827 184.329807 
L 1184.86827 184.329807 
" clip-path="url(#pa6ca4a0520)" style="fill: none; stroke: #000000; stroke-width: 2; stroke-linecap: square"/>
   </g>
   <g id="patch_3">
    <path d="M 3.00024 198.907885 
L 1184.99976 198.907885 
" style="fill: none; stroke: #000000; stroke-width: 2; stroke-linejoin: miter; stroke-linecap: square"/>
   </g>
  </g>
 </g>
 <defs>
  <clipPath id="pa6ca4a0520">
   <rect x="3.00024" y="3.00024" width="1181.99952" height="195.907645"/>
  </clipPath>
 </defs>
</svg>
