<?xml version="1.0" encoding="utf-8" standalone="no"?>
<!DOCTYPE svg PUBLIC "-//W3C//DTD SVG 1.1//EN"
  "http://www.w3.org/Graphics/SVG/1.1/DTD/svg11.dtd">
<svg xmlns:xlink="http://www.w3.org/1999/xlink" width="1188pt" height="252pt" viewBox="0 0 1188 252" xmlns="http://www.w3.org/2000/svg" version="1.1">
 <metadata>
  <rdf:RDF xmlns:dc="http://purl.org/dc/elements/1.1/" xmlns:cc="http://creativecommons.org/ns#" xmlns:rdf="http://www.w3.org/1999/02/22-rdf-syntax-ns#">
   <cc:Work>
    <dc:type rdf:resource="http://purl.org/dc/dcmitype/StillImage"/>
    <dc:date>2024-07-23T21:48:27.092974</dc:date>
    <dc:format>image/svg+xml</dc:format>
    <dc:creator>
     <cc:Agent>
      <dc:title>Matplotlib v3.8.4, https://matplotlib.org/</dc:title>
     </cc:Agent>
    </dc:creator>
   </cc:Work>
  </rdf:RDF>
 </metadata>
 <defs>
  <style type="text/css">*{stroke-linejoin: round; stroke-linecap: butt}</style>
 </defs>
 <g id="figure_1">
  <g id="patch_1">
   <path d="M 0 252 
L 1188 252 
L 1188 0 
L 0 0 
z
" style="fill: #ffffff"/>
  </g>
  <g id="axes_1">
   <g id="patch_2">
    <path d="M 3.00024 198.907885 
L 1184.99976 198.907885 
L 1184.99976 3.00024 
L 3.00024 3.00024 
z
" style="fill: #ffffff"/>
   </g>
   <g id="matplotlib.axis_1">
    <g id="xtick_1">
     <g id="line2d_1">
      <defs>
       <path id="mca94880af5" d="M 0 0 
L 0 8 
" style="stroke: #000000; stroke-width: 2"/>
      </defs>
      <g>
       <use xlink:href="#mca94880af5" x="1131.272509" y="198.907885" style="stroke: #000000; stroke-width: 2"/>
      </g>
     </g>
     <g id="text_1">
      <!-- 0 -->
      <g transform="translate(1126.267665 224.791947) scale(0.18 -0.18)">
       <defs>
        <path id="Arial-BoldMT-30" d="M 1756 4600 
Q 2422 4600 2797 4125 
Q 3244 3563 3244 2259 
Q 3244 959 2794 391 
Q 2422 -78 1756 -78 
Q 1088 -78 678 436 
Q 269 950 269 2269 
Q 269 3563 719 4131 
Q 1091 4600 1756 4600 
z
M 1756 3872 
Q 1597 3872 1472 3770 
Q 1347 3669 1278 3406 
Q 1188 3066 1188 2259 
Q 1188 1453 1269 1151 
Q 1350 850 1473 750 
Q 1597 650 1756 650 
Q 1916 650 2041 751 
Q 2166 853 2234 1116 
Q 2325 1453 2325 2259 
Q 2325 3066 2244 3367 
Q 2163 3669 2039 3770 
Q 1916 3872 1756 3872 
z
" transform="scale(0.015625)"/>
       </defs>
       <use xlink:href="#Arial-BoldMT-30"/>
      </g>
     </g>
    </g>
    <g id="xtick_2">
     <g id="line2d_2">
      <g>
       <use xlink:href="#mca94880af5" x="1023.818007" y="198.907885" style="stroke: #000000; stroke-width: 2"/>
      </g>
     </g>
     <g id="text_2">
      <!-- 1 -->
      <g transform="translate(1018.813164 224.791947) scale(0.18 -0.18)">
       <defs>
        <path id="Arial-BoldMT-31" d="M 2519 0 
L 1641 0 
L 1641 3309 
Q 1159 2859 506 2644 
L 506 3441 
Q 850 3553 1253 3867 
Q 1656 4181 1806 4600 
L 2519 4600 
L 2519 0 
z
" transform="scale(0.015625)"/>
       </defs>
       <use xlink:href="#Arial-BoldMT-31"/>
      </g>
     </g>
    </g>
    <g id="xtick_3">
     <g id="line2d_3">
      <g>
       <use xlink:href="#mca94880af5" x="916.363505" y="198.907885" style="stroke: #000000; stroke-width: 2"/>
      </g>
     </g>
     <g id="text_3">
      <!-- 2 -->
      <g transform="translate(911.358662 224.791947) scale(0.18 -0.18)">
       <defs>
        <path id="Arial-BoldMT-32" d="M 3238 816 
L 3238 0 
L 159 0 
Q 209 463 459 877 
Q 709 1291 1447 1975 
Q 2041 2528 2175 2725 
Q 2356 2997 2356 3263 
Q 2356 3556 2198 3714 
Q 2041 3872 1763 3872 
Q 1488 3872 1325 3706 
Q 1163 3541 1138 3156 
L 263 3244 
Q 341 3969 753 4284 
Q 1166 4600 1784 4600 
Q 2463 4600 2850 4234 
Q 3238 3869 3238 3325 
Q 3238 3016 3127 2736 
Q 3016 2456 2775 2150 
Q 2616 1947 2200 1565 
Q 1784 1184 1673 1059 
Q 1563 934 1494 816 
L 3238 816 
z
" transform="scale(0.015625)"/>
       </defs>
       <use xlink:href="#Arial-BoldMT-32"/>
      </g>
     </g>
    </g>
    <g id="xtick_4">
     <g id="line2d_4">
      <g>
       <use xlink:href="#mca94880af5" x="808.909004" y="198.907885" style="stroke: #000000; stroke-width: 2"/>
      </g>
     </g>
     <g id="text_4">
      <!-- 3 -->
      <g transform="translate(803.90416 224.791947) scale(0.18 -0.18)">
       <defs>
        <path id="Arial-BoldMT-33" d="M 241 1216 
L 1091 1319 
Q 1131 994 1309 822 
Q 1488 650 1741 650 
Q 2013 650 2198 856 
Q 2384 1063 2384 1413 
Q 2384 1744 2206 1937 
Q 2028 2131 1772 2131 
Q 1603 2131 1369 2066 
L 1466 2781 
Q 1822 2772 2009 2936 
Q 2197 3100 2197 3372 
Q 2197 3603 2059 3740 
Q 1922 3878 1694 3878 
Q 1469 3878 1309 3722 
Q 1150 3566 1116 3266 
L 306 3403 
Q 391 3819 561 4067 
Q 731 4316 1036 4458 
Q 1341 4600 1719 4600 
Q 2366 4600 2756 4188 
Q 3078 3850 3078 3425 
Q 3078 2822 2419 2463 
Q 2813 2378 3048 2084 
Q 3284 1791 3284 1375 
Q 3284 772 2843 347 
Q 2403 -78 1747 -78 
Q 1125 -78 715 280 
Q 306 638 241 1216 
z
" transform="scale(0.015625)"/>
       </defs>
       <use xlink:href="#Arial-BoldMT-33"/>
      </g>
     </g>
    </g>
    <g id="xtick_5">
     <g id="line2d_5">
      <g>
       <use xlink:href="#mca94880af5" x="701.454502" y="198.907885" style="stroke: #000000; stroke-width: 2"/>
      </g>
     </g>
     <g id="text_5">
      <!-- 4 -->
      <g transform="translate(696.449658 224.791947) scale(0.18 -0.18)">
       <defs>
        <path id="Arial-BoldMT-34" d="M 1994 0 
L 1994 922 
L 119 922 
L 119 1691 
L 2106 4600 
L 2844 4600 
L 2844 1694 
L 3413 1694 
L 3413 922 
L 2844 922 
L 2844 0 
L 1994 0 
z
M 1994 1694 
L 1994 3259 
L 941 1694 
L 1994 1694 
z
" transform="scale(0.015625)"/>
       </defs>
       <use xlink:href="#Arial-BoldMT-34"/>
      </g>
     </g>
    </g>
    <g id="xtick_6">
     <g id="line2d_6">
      <g>
       <use xlink:href="#mca94880af5" x="594" y="198.907885" style="stroke: #000000; stroke-width: 2"/>
      </g>
     </g>
     <g id="text_6">
      <!-- 5 -->
      <g transform="translate(588.995156 224.791947) scale(0.18 -0.18)">
       <defs>
        <path id="Arial-BoldMT-35" d="M 284 1178 
L 1159 1269 
Q 1197 972 1381 798 
Q 1566 625 1806 625 
Q 2081 625 2272 848 
Q 2463 1072 2463 1522 
Q 2463 1944 2273 2155 
Q 2084 2366 1781 2366 
Q 1403 2366 1103 2031 
L 391 2134 
L 841 4519 
L 3163 4519 
L 3163 3697 
L 1506 3697 
L 1369 2919 
Q 1663 3066 1969 3066 
Q 2553 3066 2959 2641 
Q 3366 2216 3366 1538 
Q 3366 972 3038 528 
Q 2591 -78 1797 -78 
Q 1163 -78 763 262 
Q 363 603 284 1178 
z
" transform="scale(0.015625)"/>
       </defs>
       <use xlink:href="#Arial-BoldMT-35"/>
      </g>
     </g>
    </g>
    <g id="xtick_7">
     <g id="line2d_7">
      <g>
       <use xlink:href="#mca94880af5" x="486.545498" y="198.907885" style="stroke: #000000; stroke-width: 2"/>
      </g>
     </g>
     <g id="text_7">
      <!-- 6 -->
      <g transform="translate(481.540654 224.791947) scale(0.18 -0.18)">
       <defs>
        <path id="Arial-BoldMT-36" d="M 3247 3459 
L 2397 3366 
Q 2366 3628 2234 3753 
Q 2103 3878 1894 3878 
Q 1616 3878 1423 3628 
Q 1231 3378 1181 2588 
Q 1509 2975 1997 2975 
Q 2547 2975 2939 2556 
Q 3331 2138 3331 1475 
Q 3331 772 2918 347 
Q 2506 -78 1859 -78 
Q 1166 -78 719 461 
Q 272 1000 272 2228 
Q 272 3488 737 4044 
Q 1203 4600 1947 4600 
Q 2469 4600 2811 4308 
Q 3153 4016 3247 3459 
z
M 1256 1544 
Q 1256 1116 1453 883 
Q 1650 650 1903 650 
Q 2147 650 2309 840 
Q 2472 1031 2472 1466 
Q 2472 1913 2297 2120 
Q 2122 2328 1859 2328 
Q 1606 2328 1431 2129 
Q 1256 1931 1256 1544 
z
" transform="scale(0.015625)"/>
       </defs>
       <use xlink:href="#Arial-BoldMT-36"/>
      </g>
     </g>
    </g>
    <g id="xtick_8">
     <g id="line2d_8">
      <g>
       <use xlink:href="#mca94880af5" x="379.090996" y="198.907885" style="stroke: #000000; stroke-width: 2"/>
      </g>
     </g>
     <g id="text_8">
      <!-- 7 -->
      <g transform="translate(374.086153 224.791947) scale(0.18 -0.18)">
       <defs>
        <path id="Arial-BoldMT-37" d="M 272 3703 
L 272 4519 
L 3275 4519 
L 3275 3881 
Q 2903 3516 2518 2831 
Q 2134 2147 1932 1376 
Q 1731 606 1734 0 
L 888 0 
Q 909 950 1279 1937 
Q 1650 2925 2269 3703 
L 272 3703 
z
" transform="scale(0.015625)"/>
       </defs>
       <use xlink:href="#Arial-BoldMT-37"/>
      </g>
     </g>
    </g>
    <g id="xtick_9">
     <g id="line2d_9">
      <g>
       <use xlink:href="#mca94880af5" x="271.636495" y="198.907885" style="stroke: #000000; stroke-width: 2"/>
      </g>
     </g>
     <g id="text_9">
      <!-- 8 -->
      <g transform="translate(266.631651 224.791947) scale(0.18 -0.18)">
       <defs>
        <path id="Arial-BoldMT-38" d="M 1025 2472 
Q 684 2616 529 2867 
Q 375 3119 375 3419 
Q 375 3931 733 4265 
Q 1091 4600 1750 4600 
Q 2403 4600 2764 4265 
Q 3125 3931 3125 3419 
Q 3125 3100 2959 2851 
Q 2794 2603 2494 2472 
Q 2875 2319 3073 2025 
Q 3272 1731 3272 1347 
Q 3272 713 2867 316 
Q 2463 -81 1791 -81 
Q 1166 -81 750 247 
Q 259 634 259 1309 
Q 259 1681 443 1992 
Q 628 2303 1025 2472 
z
M 1206 3356 
Q 1206 3094 1354 2947 
Q 1503 2800 1750 2800 
Q 2000 2800 2150 2948 
Q 2300 3097 2300 3359 
Q 2300 3606 2151 3754 
Q 2003 3903 1759 3903 
Q 1506 3903 1356 3753 
Q 1206 3603 1206 3356 
z
M 1125 1394 
Q 1125 1031 1311 828 
Q 1497 625 1775 625 
Q 2047 625 2225 820 
Q 2403 1016 2403 1384 
Q 2403 1706 2222 1901 
Q 2041 2097 1763 2097 
Q 1441 2097 1283 1875 
Q 1125 1653 1125 1394 
z
" transform="scale(0.015625)"/>
       </defs>
       <use xlink:href="#Arial-BoldMT-38"/>
      </g>
     </g>
    </g>
    <g id="xtick_10">
     <g id="line2d_10">
      <g>
       <use xlink:href="#mca94880af5" x="164.181993" y="198.907885" style="stroke: #000000; stroke-width: 2"/>
      </g>
     </g>
     <g id="text_10">
      <!-- 9 -->
      <g transform="translate(159.177149 224.791947) scale(0.18 -0.18)">
       <defs>
        <path id="Arial-BoldMT-39" d="M 291 1059 
L 1141 1153 
Q 1172 894 1303 769 
Q 1434 644 1650 644 
Q 1922 644 2112 894 
Q 2303 1144 2356 1931 
Q 2025 1547 1528 1547 
Q 988 1547 595 1964 
Q 203 2381 203 3050 
Q 203 3747 617 4173 
Q 1031 4600 1672 4600 
Q 2369 4600 2816 4061 
Q 3263 3522 3263 2288 
Q 3263 1031 2797 475 
Q 2331 -81 1584 -81 
Q 1047 -81 715 205 
Q 384 491 291 1059 
z
M 2278 2978 
Q 2278 3403 2083 3637 
Q 1888 3872 1631 3872 
Q 1388 3872 1227 3680 
Q 1066 3488 1066 3050 
Q 1066 2606 1241 2398 
Q 1416 2191 1678 2191 
Q 1931 2191 2104 2391 
Q 2278 2591 2278 2978 
z
" transform="scale(0.015625)"/>
       </defs>
       <use xlink:href="#Arial-BoldMT-39"/>
      </g>
     </g>
    </g>
    <g id="xtick_11">
     <g id="line2d_11">
      <g>
       <use xlink:href="#mca94880af5" x="56.727491" y="198.907885" style="stroke: #000000; stroke-width: 2"/>
      </g>
     </g>
     <g id="text_11">
      <!-- 10 -->
      <g transform="translate(46.717803 224.791947) scale(0.18 -0.18)">
       <use xlink:href="#Arial-BoldMT-31"/>
       <use xlink:href="#Arial-BoldMT-30" x="55.615234"/>
      </g>
     </g>
    </g>
    <g id="text_12">
     <!-- Chemical Shift / ppm -->
     <g transform="translate(504.992813 245.447573) scale(0.18 -0.18)">
      <defs>
       <path id="Arial-BoldMT-43" d="M 3397 1684 
L 4294 1400 
Q 4088 650 3608 286 
Q 3128 -78 2391 -78 
Q 1478 -78 890 545 
Q 303 1169 303 2250 
Q 303 3394 893 4026 
Q 1484 4659 2447 4659 
Q 3288 4659 3813 4163 
Q 4125 3869 4281 3319 
L 3366 3100 
Q 3284 3456 3026 3662 
Q 2769 3869 2400 3869 
Q 1891 3869 1573 3503 
Q 1256 3138 1256 2319 
Q 1256 1450 1568 1081 
Q 1881 713 2381 713 
Q 2750 713 3015 947 
Q 3281 1181 3397 1684 
z
" transform="scale(0.015625)"/>
       <path id="Arial-BoldMT-68" d="M 1334 4581 
L 1334 2897 
Q 1759 3394 2350 3394 
Q 2653 3394 2897 3281 
Q 3141 3169 3264 2994 
Q 3388 2819 3433 2606 
Q 3478 2394 3478 1947 
L 3478 0 
L 2600 0 
L 2600 1753 
Q 2600 2275 2550 2415 
Q 2500 2556 2373 2639 
Q 2247 2722 2056 2722 
Q 1838 2722 1666 2615 
Q 1494 2509 1414 2295 
Q 1334 2081 1334 1663 
L 1334 0 
L 456 0 
L 456 4581 
L 1334 4581 
z
" transform="scale(0.015625)"/>
       <path id="Arial-BoldMT-65" d="M 2381 1056 
L 3256 909 
Q 3088 428 2723 176 
Q 2359 -75 1813 -75 
Q 947 -75 531 491 
Q 203 944 203 1634 
Q 203 2459 634 2926 
Q 1066 3394 1725 3394 
Q 2466 3394 2894 2905 
Q 3322 2416 3303 1406 
L 1103 1406 
Q 1113 1016 1316 798 
Q 1519 581 1822 581 
Q 2028 581 2168 693 
Q 2309 806 2381 1056 
z
M 2431 1944 
Q 2422 2325 2234 2523 
Q 2047 2722 1778 2722 
Q 1491 2722 1303 2513 
Q 1116 2303 1119 1944 
L 2431 1944 
z
" transform="scale(0.015625)"/>
       <path id="Arial-BoldMT-6d" d="M 394 3319 
L 1203 3319 
L 1203 2866 
Q 1638 3394 2238 3394 
Q 2556 3394 2790 3262 
Q 3025 3131 3175 2866 
Q 3394 3131 3647 3262 
Q 3900 3394 4188 3394 
Q 4553 3394 4806 3245 
Q 5059 3097 5184 2809 
Q 5275 2597 5275 2122 
L 5275 0 
L 4397 0 
L 4397 1897 
Q 4397 2391 4306 2534 
Q 4184 2722 3931 2722 
Q 3747 2722 3584 2609 
Q 3422 2497 3350 2280 
Q 3278 2063 3278 1594 
L 3278 0 
L 2400 0 
L 2400 1819 
Q 2400 2303 2353 2443 
Q 2306 2584 2207 2653 
Q 2109 2722 1941 2722 
Q 1738 2722 1575 2612 
Q 1413 2503 1342 2297 
Q 1272 2091 1272 1613 
L 1272 0 
L 394 0 
L 394 3319 
z
" transform="scale(0.015625)"/>
       <path id="Arial-BoldMT-69" d="M 459 3769 
L 459 4581 
L 1338 4581 
L 1338 3769 
L 459 3769 
z
M 459 0 
L 459 3319 
L 1338 3319 
L 1338 0 
L 459 0 
z
" transform="scale(0.015625)"/>
       <path id="Arial-BoldMT-63" d="M 3353 2338 
L 2488 2181 
Q 2444 2441 2289 2572 
Q 2134 2703 1888 2703 
Q 1559 2703 1364 2476 
Q 1169 2250 1169 1719 
Q 1169 1128 1367 884 
Q 1566 641 1900 641 
Q 2150 641 2309 783 
Q 2469 925 2534 1272 
L 3397 1125 
Q 3263 531 2881 228 
Q 2500 -75 1859 -75 
Q 1131 -75 698 384 
Q 266 844 266 1656 
Q 266 2478 700 2936 
Q 1134 3394 1875 3394 
Q 2481 3394 2839 3133 
Q 3197 2872 3353 2338 
z
" transform="scale(0.015625)"/>
       <path id="Arial-BoldMT-61" d="M 1116 2306 
L 319 2450 
Q 453 2931 781 3162 
Q 1109 3394 1756 3394 
Q 2344 3394 2631 3255 
Q 2919 3116 3036 2902 
Q 3153 2688 3153 2116 
L 3144 1091 
Q 3144 653 3186 445 
Q 3228 238 3344 0 
L 2475 0 
Q 2441 88 2391 259 
Q 2369 338 2359 363 
Q 2134 144 1878 34 
Q 1622 -75 1331 -75 
Q 819 -75 523 203 
Q 228 481 228 906 
Q 228 1188 362 1408 
Q 497 1628 739 1745 
Q 981 1863 1438 1950 
Q 2053 2066 2291 2166 
L 2291 2253 
Q 2291 2506 2166 2614 
Q 2041 2722 1694 2722 
Q 1459 2722 1328 2630 
Q 1197 2538 1116 2306 
z
M 2291 1594 
Q 2122 1538 1756 1459 
Q 1391 1381 1278 1306 
Q 1106 1184 1106 997 
Q 1106 813 1243 678 
Q 1381 544 1594 544 
Q 1831 544 2047 700 
Q 2206 819 2256 991 
Q 2291 1103 2291 1419 
L 2291 1594 
z
" transform="scale(0.015625)"/>
       <path id="Arial-BoldMT-6c" d="M 459 0 
L 459 4581 
L 1338 4581 
L 1338 0 
L 459 0 
z
" transform="scale(0.015625)"/>
       <path id="Arial-BoldMT-20" transform="scale(0.015625)"/>
       <path id="Arial-BoldMT-53" d="M 231 1491 
L 1131 1578 
Q 1213 1125 1461 912 
Q 1709 700 2131 700 
Q 2578 700 2804 889 
Q 3031 1078 3031 1331 
Q 3031 1494 2936 1608 
Q 2841 1722 2603 1806 
Q 2441 1863 1863 2006 
Q 1119 2191 819 2459 
Q 397 2838 397 3381 
Q 397 3731 595 4036 
Q 794 4341 1167 4500 
Q 1541 4659 2069 4659 
Q 2931 4659 3367 4281 
Q 3803 3903 3825 3272 
L 2900 3231 
Q 2841 3584 2645 3739 
Q 2450 3894 2059 3894 
Q 1656 3894 1428 3728 
Q 1281 3622 1281 3444 
Q 1281 3281 1419 3166 
Q 1594 3019 2269 2859 
Q 2944 2700 3267 2529 
Q 3591 2359 3773 2064 
Q 3956 1769 3956 1334 
Q 3956 941 3737 597 
Q 3519 253 3119 86 
Q 2719 -81 2122 -81 
Q 1253 -81 787 320 
Q 322 722 231 1491 
z
" transform="scale(0.015625)"/>
       <path id="Arial-BoldMT-66" d="M 75 3319 
L 563 3319 
L 563 3569 
Q 563 3988 652 4194 
Q 741 4400 980 4529 
Q 1219 4659 1584 4659 
Q 1959 4659 2319 4547 
L 2200 3934 
Q 1991 3984 1797 3984 
Q 1606 3984 1523 3895 
Q 1441 3806 1441 3553 
L 1441 3319 
L 2097 3319 
L 2097 2628 
L 1441 2628 
L 1441 0 
L 563 0 
L 563 2628 
L 75 2628 
L 75 3319 
z
" transform="scale(0.015625)"/>
       <path id="Arial-BoldMT-74" d="M 1981 3319 
L 1981 2619 
L 1381 2619 
L 1381 1281 
Q 1381 875 1398 808 
Q 1416 741 1477 697 
Q 1538 653 1625 653 
Q 1747 653 1978 738 
L 2053 56 
Q 1747 -75 1359 -75 
Q 1122 -75 931 4 
Q 741 84 652 211 
Q 563 338 528 553 
Q 500 706 500 1172 
L 500 2619 
L 97 2619 
L 97 3319 
L 500 3319 
L 500 3978 
L 1381 4491 
L 1381 3319 
L 1981 3319 
z
" transform="scale(0.015625)"/>
       <path id="Arial-BoldMT-2f" d="M -9 -78 
L 1125 4659 
L 1784 4659 
L 638 -78 
L -9 -78 
z
" transform="scale(0.015625)"/>
       <path id="Arial-BoldMT-70" d="M 434 3319 
L 1253 3319 
L 1253 2831 
Q 1413 3081 1684 3237 
Q 1956 3394 2288 3394 
Q 2866 3394 3269 2941 
Q 3672 2488 3672 1678 
Q 3672 847 3265 386 
Q 2859 -75 2281 -75 
Q 2006 -75 1782 34 
Q 1559 144 1313 409 
L 1313 -1263 
L 434 -1263 
L 434 3319 
z
M 1303 1716 
Q 1303 1156 1525 889 
Q 1747 622 2066 622 
Q 2372 622 2575 867 
Q 2778 1113 2778 1672 
Q 2778 2194 2568 2447 
Q 2359 2700 2050 2700 
Q 1728 2700 1515 2451 
Q 1303 2203 1303 1716 
z
" transform="scale(0.015625)"/>
      </defs>
      <use xlink:href="#Arial-BoldMT-43"/>
      <use xlink:href="#Arial-BoldMT-68" x="72.216797"/>
      <use xlink:href="#Arial-BoldMT-65" x="133.300781"/>
      <use xlink:href="#Arial-BoldMT-6d" x="188.916016"/>
      <use xlink:href="#Arial-BoldMT-69" x="277.832031"/>
      <use xlink:href="#Arial-BoldMT-63" x="305.615234"/>
      <use xlink:href="#Arial-BoldMT-61" x="361.230469"/>
      <use xlink:href="#Arial-BoldMT-6c" x="416.845703"/>
      <use xlink:href="#Arial-BoldMT-20" x="444.628906"/>
      <use xlink:href="#Arial-BoldMT-53" x="472.412109"/>
      <use xlink:href="#Arial-BoldMT-68" x="539.111328"/>
      <use xlink:href="#Arial-BoldMT-69" x="600.195312"/>
      <use xlink:href="#Arial-BoldMT-66" x="627.978516"/>
      <use xlink:href="#Arial-BoldMT-74" x="661.279297"/>
      <use xlink:href="#Arial-BoldMT-20" x="694.580078"/>
      <use xlink:href="#Arial-BoldMT-2f" x="722.363281"/>
      <use xlink:href="#Arial-BoldMT-20" x="750.146484"/>
      <use xlink:href="#Arial-BoldMT-70" x="777.929688"/>
      <use xlink:href="#Arial-BoldMT-70" x="839.013672"/>
      <use xlink:href="#Arial-BoldMT-6d" x="900.097656"/>
     </g>
    </g>
   </g>
   <g id="matplotlib.axis_2"/>
   <g id="line2d_12">
    <path d="M 2.944246 190.408617 
L 3.762725 188.944821 
L 4.171965 188.777538 
L 5.195063 188.847302 
L 5.604303 189.016336 
L 6.422782 189.123858 
L 6.832021 189.289891 
L 7.241261 189.168367 
L 8.264359 188.3437 
L 8.468979 188.389709 
L 8.878218 188.898062 
L 9.492078 189.87951 
L 9.901317 190.041043 
L 11.129035 189.899014 
L 11.538275 189.557195 
L 11.947514 189.133109 
L 12.152134 189.051093 
L 12.356754 189.108354 
L 12.561374 189.350403 
L 12.970613 190.445125 
L 13.379852 191.655119 
L 13.789092 192.10396 
L 14.402951 192.031195 
L 14.607571 191.90717 
L 15.01681 191.195276 
L 15.630669 189.827 
L 16.653768 188.710274 
L 17.063007 188.547741 
L 17.676867 188.665515 
L 18.086106 189.051843 
L 18.904585 190.408367 
L 19.723064 190.744185 
L 20.132303 191.515341 
L 21.155402 193.789801 
L 21.360022 193.854064 
L 21.564641 193.635019 
L 22.178501 192.044948 
L 22.58774 191.126512 
L 23.201599 190.417869 
L 24.020078 189.444172 
L 24.224698 189.490932 
L 25.452416 190.42487 
L 26.066275 190.608908 
L 26.680135 191.21453 
L 26.884754 191.226282 
L 27.293994 190.857458 
L 27.703233 190.489884 
L 28.521712 190.147814 
L 29.544811 190.051545 
L 29.749431 189.971779 
L 29.95405 190.048044 
L 30.567909 190.487133 
L 30.977149 190.461128 
L 31.386388 190.86946 
L 31.795628 191.406819 
L 32.204867 191.55935 
L 32.818726 191.505089 
L 33.227966 191.435325 
L 33.637205 191.789646 
L 34.046445 192.209481 
L 34.864924 192.25249 
L 35.274163 192.55205 
L 35.478783 192.457781 
L 36.092642 191.882915 
L 36.706501 191.634115 
L 37.52498 190.893715 
L 37.93422 190.81695 
L 38.343459 190.852957 
L 38.548079 190.743935 
L 38.957318 190.07805 
L 39.366558 189.413416 
L 39.571177 189.321648 
L 40.185037 189.460426 
L 40.594276 189.214626 
L 41.208135 188.814795 
L 41.821994 188.432718 
L 42.231234 188.29269 
L 42.640473 188.760784 
L 43.049713 189.240881 
L 43.868192 189.669968 
L 44.277431 190.188323 
L 44.89129 191.257539 
L 45.30053 191.378563 
L 46.528248 191.005738 
L 47.142107 190.27359 
L 47.346727 190.234582 
L 47.755967 190.589154 
L 48.165206 190.891465 
L 48.574445 191.083754 
L 49.188305 191.452328 
L 49.392924 191.338805 
L 50.211403 190.261587 
L 50.620643 190.265338 
L 51.234502 190.459127 
L 51.643741 190.368359 
L 52.2576 190.041793 
L 52.66684 189.548193 
L 53.076079 189.078598 
L 53.485319 189.051093 
L 53.894558 189.03709 
L 54.508417 188.803293 
L 55.531516 189.171867 
L 56.349995 188.723527 
L 56.963854 188.219675 
L 57.373094 187.688317 
L 57.782333 187.071193 
L 57.986953 186.934165 
L 58.191573 186.973423 
L 58.600812 187.548289 
L 59.010051 188.24493 
L 59.419291 188.562244 
L 60.03315 188.816795 
L 60.851629 189.73148 
L 61.465488 189.772489 
L 62.079347 190.417869 
L 62.488587 190.377361 
L 62.897826 190.093053 
L 63.307066 189.414916 
L 64.125545 187.559791 
L 64.534784 187.209721 
L 64.944024 187.195718 
L 65.353263 187.436517 
L 65.967122 188.083647 
L 66.580981 188.763785 
L 66.990221 188.753533 
L 67.39946 188.261933 
L 67.8087 187.046438 
L 68.217939 184.914507 
L 68.831798 180.294323 
L 69.445658 173.341918 
L 70.059517 166.438773 
L 70.264136 165.48708 
L 70.468756 165.675618 
L 70.673376 166.945125 
L 71.287235 173.911783 
L 71.901094 180.607386 
L 72.310334 183.452211 
L 73.128813 186.989926 
L 73.742672 189.163115 
L 73.947292 189.378909 
L 74.356531 189.220627 
L 74.561151 189.139361 
L 74.76577 189.179619 
L 75.17501 189.5792 
L 76.402728 191.547847 
L 76.811968 192.268743 
L 77.221207 192.567804 
L 77.630447 192.671575 
L 78.039686 192.518044 
L 78.858165 192.001439 
L 79.472024 191.921673 
L 80.495123 191.172522 
L 80.904362 191.175772 
L 81.313602 190.810949 
L 82.3367 189.871009 
L 82.74594 189.710476 
L 83.155179 189.901265 
L 83.973658 190.578652 
L 84.178278 190.67042 
L 84.382898 190.598406 
L 84.792137 189.814997 
L 85.201377 188.88856 
L 85.610616 188.651762 
L 86.019855 188.801042 
L 87.247574 190.02454 
L 87.656813 190.590154 
L 88.066053 190.657918 
L 88.475292 190.61966 
L 89.089151 190.949977 
L 89.293771 190.882213 
L 89.90763 190.384362 
L 90.31687 190.5714 
L 90.726109 190.914469 
L 91.135349 191.641866 
L 91.749208 192.990389 
L 92.158447 193.2937 
L 92.363067 193.304452 
L 92.567687 193.152422 
L 93.590785 191.746138 
L 94.204644 191.177773 
L 94.818504 190.530392 
L 95.227743 190.416619 
L 95.432363 190.551146 
L 96.250842 191.571352 
L 96.864701 191.589356 
L 97.68318 191.705879 
L 97.8878 191.51159 
L 98.910898 189.855005 
L 99.524757 189.563946 
L 100.547856 188.699522 
L 100.957095 188.669016 
L 101.980194 189.290641 
L 102.389434 189.330399 
L 102.798673 189.076098 
L 103.207912 188.804293 
L 103.617152 188.909814 
L 104.231011 189.397413 
L 105.458729 190.807198 
L 106.072589 191.144516 
L 106.481828 191.130263 
L 107.095687 191.033994 
L 107.709546 191.240785 
L 108.118786 190.696175 
L 108.528025 190.17407 
L 108.732645 190.217829 
L 109.551124 191.079003 
L 109.960363 191.034994 
L 110.574223 190.604907 
L 110.983462 189.867008 
L 111.597321 188.697271 
L 112.006561 188.401211 
L 112.4158 188.490229 
L 113.029659 188.855053 
L 114.052758 189.833751 
L 114.871237 189.726229 
L 116.303575 191.589606 
L 116.712814 191.813151 
L 117.122054 191.804899 
L 117.735913 191.405819 
L 118.145153 191.529094 
L 118.759012 191.916922 
L 119.98673 193.19143 
L 120.19135 193.226187 
L 120.39597 193.019645 
L 121.009829 191.542846 
L 121.419068 190.673921 
L 121.828308 190.235832 
L 123.056026 189.921769 
L 123.465265 189.968278 
L 123.874505 190.267339 
L 124.283744 190.577901 
L 124.692984 190.537143 
L 125.102223 190.403616 
L 125.511463 190.652667 
L 125.920702 190.903967 
L 126.329942 190.741184 
L 126.739181 190.628662 
L 127.148421 190.937724 
L 127.76228 191.694877 
L 127.966899 191.754389 
L 128.785378 191.389565 
L 129.194618 191.581854 
L 129.603857 192.098459 
L 130.217716 192.885118 
L 130.626956 192.969885 
L 131.036195 192.716084 
L 131.650054 192.234236 
L 132.263914 192.023694 
L 132.877773 191.543347 
L 133.696252 191.236034 
L 134.105491 190.645915 
L 134.514731 189.796994 
L 134.71935 189.595703 
L 135.33321 189.508435 
L 135.947069 188.893061 
L 136.151688 188.83705 
L 136.356308 188.928818 
L 137.584027 190.200075 
L 138.402505 190.043793 
L 138.607125 190.296845 
L 139.220984 191.650118 
L 139.425604 191.792647 
L 139.630224 191.691376 
L 140.039463 190.986234 
L 140.857942 188.811044 
L 141.471801 188.513234 
L 141.881041 187.762082 
L 142.085661 187.612802 
L 142.29028 187.706571 
L 143.927238 189.658966 
L 144.745717 191.198277 
L 144.950337 191.341556 
L 145.154956 191.321552 
L 145.973435 190.606407 
L 146.382675 190.821201 
L 147.610393 192.108461 
L 147.815013 192.050199 
L 148.224252 191.443326 
L 148.838112 190.243584 
L 149.042731 190.105306 
L 149.247351 190.165068 
L 149.86121 190.804697 
L 150.06583 190.785943 
L 150.475069 190.288593 
L 151.088929 189.590202 
L 151.498168 189.378159 
L 151.702788 189.43042 
L 152.521267 190.230831 
L 152.930506 190.0773 
L 153.544365 189.323648 
L 154.158224 188.667015 
L 154.567464 188.682518 
L 154.976703 189.109105 
L 155.590563 189.913517 
L 155.999802 189.972029 
L 156.409041 190.072049 
L 157.022901 190.507137 
L 157.43214 190.387863 
L 158.455239 189.664967 
L 159.273718 189.692973 
L 160.092197 189.006584 
L 160.501436 189.308895 
L 160.910675 189.643213 
L 161.319915 189.772489 
L 161.729154 189.703475 
L 162.343014 189.347153 
L 162.547633 189.361406 
L 162.956873 189.867758 
L 163.979971 191.380064 
L 164.184591 191.404068 
L 164.593831 190.847956 
L 164.79845 190.543394 
L 165.00307 190.475131 
L 165.821549 191.184774 
L 166.230788 191.079503 
L 167.458507 191.415321 
L 167.867746 191.497587 
L 168.686225 191.790897 
L 169.095464 191.468331 
L 169.709324 190.933723 
L 170.118563 190.841455 
L 170.527803 190.833703 
L 170.937042 190.597905 
L 171.346281 190.292344 
L 171.550901 190.283842 
L 172.36938 190.728182 
L 174.006338 189.355404 
L 174.210958 189.326899 
L 175.847915 190.12531 
L 176.257155 190.277841 
L 177.280254 190.953227 
L 177.689493 191.190525 
L 178.098732 191.628614 
L 178.917211 192.984638 
L 179.121831 193.04715 
L 179.531071 192.812353 
L 180.758789 191.891417 
L 181.168028 191.842657 
L 181.577268 191.888416 
L 181.781888 191.788896 
L 182.191127 191.117761 
L 182.804986 190.021539 
L 183.828085 189.161615 
L 184.237324 189.089351 
L 184.851183 189.129109 
L 185.260423 189.128609 
L 186.078902 189.672218 
L 186.488141 190.244084 
L 186.897381 190.827202 
L 187.102 190.877712 
L 187.51124 190.488633 
L 187.920479 190.212828 
L 188.329719 190.52164 
L 188.738958 190.821201 
L 189.966677 191.316051 
L 190.580536 191.365811 
L 190.989775 191.520842 
L 191.399015 191.332804 
L 191.808254 190.805697 
L 192.626733 189.347153 
L 192.831353 189.298393 
L 193.035973 189.43417 
L 193.854451 190.47388 
L 194.67293 190.781693 
L 194.87755 190.760438 
L 195.08217 190.562898 
L 195.491409 189.621708 
L 195.900649 188.616255 
L 196.309888 188.152161 
L 196.719128 188.011883 
L 197.128367 188.218925 
L 197.537607 188.569746 
L 197.946846 188.578747 
L 198.969945 188.322446 
L 199.379184 187.680816 
L 199.993043 186.652858 
L 200.197663 186.547337 
L 200.402283 186.605599 
L 201.425381 187.471023 
L 201.834621 187.533536 
L 202.24386 187.426514 
L 202.6531 187.116952 
L 203.062339 186.567591 
L 203.880818 185.186812 
L 204.085438 185.07704 
L 204.494677 185.093543 
L 204.903917 184.73247 
L 205.722396 183.883798 
L 206.131635 183.64475 
L 206.336255 183.659253 
L 206.745494 184.023077 
L 207.154734 184.432659 
L 207.359353 184.462916 
L 207.563973 184.331389 
L 207.973213 183.662004 
L 209.61017 179.940501 
L 210.01941 178.606982 
L 210.633269 175.641133 
L 211.656368 169.038298 
L 212.270227 163.80124 
L 212.884086 156.434501 
L 213.702565 144.248038 
L 214.930283 124.572061 
L 215.544142 115.730774 
L 215.953382 107.021014 
L 216.362621 94.092151 
L 216.976481 64.787978 
L 217.999579 5.986344 
L 218.204199 3.00024 
L 218.408819 5.847816 
L 218.818058 26.741788 
L 220.045776 110.642246 
L 220.659636 133.841934 
L 221.273495 147.411177 
L 221.887354 155.791371 
L 222.501213 161.668058 
L 223.115072 165.369557 
L 223.933551 168.775995 
L 224.54741 169.982989 
L 225.365889 171.279001 
L 225.570509 171.361768 
L 225.775129 171.179981 
L 226.184368 169.93848 
L 228.435185 160.274777 
L 228.844425 157.081882 
L 229.253664 151.946094 
L 229.867523 140.338247 
L 230.481383 123.621119 
L 230.890622 108.263765 
L 231.504481 74.628467 
L 232.32296 23.107804 
L 232.52758 15.990615 
L 232.7322 14.049973 
L 232.936819 17.787229 
L 233.346059 38.72321 
L 234.369157 103.772357 
L 234.983017 128.77166 
L 235.596876 145.045199 
L 236.210735 156.023418 
L 236.619974 160.748373 
L 237.233834 165.094001 
L 239.484651 178.204401 
L 239.89389 179.401393 
L 240.303129 180.057275 
L 240.916989 180.521869 
L 241.530848 181.294525 
L 241.735468 181.382793 
L 241.940087 181.252767 
L 242.553946 180.238062 
L 242.758566 180.166297 
L 242.963186 180.347084 
L 244.600144 183.004871 
L 245.009383 183.113143 
L 245.418623 182.843838 
L 246.237101 181.820882 
L 246.646341 180.936453 
L 247.2602 178.759513 
L 247.874059 175.783161 
L 248.283299 172.999599 
L 248.897158 166.495034 
L 249.306397 162.16891 
L 249.511017 161.009925 
L 249.715637 160.93441 
L 249.920257 161.993624 
L 250.329496 166.543794 
L 251.147975 176.141984 
L 251.761834 180.172798 
L 252.784933 184.526928 
L 253.398792 186.581844 
L 254.421891 188.271185 
L 254.62651 188.478227 
L 254.83113 188.506733 
L 255.649609 188.076646 
L 256.468088 188.803793 
L 257.286567 188.697771 
L 257.695806 189.118356 
L 258.309665 189.810496 
L 258.514285 189.845003 
L 258.923525 189.48318 
L 259.332764 189.150613 
L 259.742003 189.200123 
L 260.355863 189.542692 
L 261.174342 190.161067 
L 261.788201 190.162067 
L 262.19744 190.663419 
L 262.60668 191.244036 
L 262.811299 191.310049 
L 263.220539 190.992735 
L 263.834398 190.436373 
L 264.243637 190.287343 
L 265.266736 190.315598 
L 266.289835 189.669968 
L 266.699074 190.159817 
L 267.312933 191.001487 
L 267.517553 191.090005 
L 267.722173 190.976732 
L 268.131412 190.214828 
L 268.540652 189.38541 
L 268.949891 189.181869 
L 269.97299 189.182869 
L 270.996088 188.998832 
L 271.405328 189.465177 
L 272.428427 191.409319 
L 272.633046 191.471332 
L 272.837666 191.379563 
L 273.246905 190.808198 
L 273.860765 189.893013 
L 274.065384 189.860006 
L 275.497722 190.351106 
L 275.702342 190.195324 
L 276.111582 189.413916 
L 276.520821 188.473726 
L 276.930061 188.124656 
L 277.3393 188.003131 
L 278.362399 187.25598 
L 278.976258 187.370003 
L 279.180878 187.198718 
L 279.794737 185.979222 
L 281.022455 183.274675 
L 281.636314 180.196553 
L 282.045554 177.138685 
L 283.477892 163.742728 
L 283.682511 163.032834 
L 283.887131 162.940566 
L 284.091751 163.399908 
L 284.50099 165.589101 
L 285.11485 171.487293 
L 285.728709 177.238705 
L 286.342568 180.656146 
L 286.956427 183.034377 
L 287.365667 183.614494 
L 287.774906 184.181859 
L 288.798005 186.120751 
L 289.411864 186.969422 
L 289.821103 187.140207 
L 290.230343 186.939416 
L 290.639582 186.668361 
L 290.844202 186.671112 
L 291.253441 187.120703 
L 292.27654 188.833799 
L 292.685779 188.898062 
L 293.095019 188.959824 
L 293.504258 189.397163 
L 293.913498 190.059547 
L 294.118118 190.209327 
L 294.322737 190.167318 
L 294.731977 189.693723 
L 295.345836 188.680768 
L 295.755075 188.508483 
L 296.164315 188.773537 
L 296.982794 189.570698 
L 297.596653 190.135312 
L 298.415132 190.96548 
L 299.028991 191.334304 
L 300.05209 191.578854 
L 301.075188 192.738088 
L 301.484428 192.334006 
L 302.098287 191.777144 
L 302.507526 191.740386 
L 302.916766 191.728384 
L 303.735245 191.452828 
L 304.144484 191.964432 
L 304.758343 193.125166 
L 304.962963 193.179427 
L 305.372203 192.730336 
L 306.599921 190.848956 
L 307.00916 191.152268 
L 308.236879 192.781847 
L 308.646118 192.589308 
L 309.055358 192.024194 
L 309.669217 191.103258 
L 309.873837 190.980483 
L 310.283076 191.140015 
L 310.896935 191.541846 
L 311.101555 191.549098 
L 311.920034 191.088255 
L 312.329273 191.424322 
L 313.352372 192.784597 
L 313.556992 192.585807 
L 314.375471 191.107508 
L 314.58009 191.187775 
L 314.98933 191.580854 
L 315.398569 191.65937 
L 315.807809 191.436325 
L 316.217048 191.21503 
L 316.830907 191.249537 
L 317.240147 190.853707 
L 317.854006 190.121809 
L 318.263245 190.065298 
L 318.877105 190.245334 
L 319.286344 189.860506 
L 319.695583 189.094602 
L 320.309443 187.497029 
L 320.718682 187.041437 
L 321.332541 186.729374 
L 321.537161 186.787385 
L 321.9464 187.301489 
L 322.35564 188.44297 
L 322.969499 190.554147 
L 323.378738 191.147517 
L 324.197217 191.3123 
L 325.015696 192.60006 
L 325.424936 192.540798 
L 325.834175 192.259741 
L 326.243415 191.557599 
L 327.061894 189.605955 
L 327.471133 189.529189 
L 327.880372 189.749484 
L 328.289612 190.084052 
L 328.698851 190.095554 
L 329.51733 189.604455 
L 329.72195 189.724229 
L 330.335809 190.359107 
L 330.949668 190.299845 
L 331.563528 190.904467 
L 331.972767 190.874961 
L 332.382006 190.756938 
L 333.200485 190.069049 
L 333.814345 189.338401 
L 334.837443 187.984877 
L 335.246683 187.806841 
L 335.860542 187.921865 
L 336.269781 187.994379 
L 336.679021 187.661562 
L 337.4975 186.529833 
L 337.702119 186.56509 
L 338.315979 187.15921 
L 338.520598 187.147458 
L 338.929838 186.526583 
L 339.339077 185.977222 
L 339.543697 186.006477 
L 340.566796 186.66036 
L 340.976035 186.686865 
L 342.203753 186.398307 
L 342.612993 186.114999 
L 343.226852 185.369099 
L 343.636091 185.454616 
L 343.840711 185.489623 
L 344.045331 185.360597 
L 344.65919 184.229118 
L 345.06843 183.687509 
L 345.682289 182.932356 
L 346.091528 182.424754 
L 346.705387 182.081934 
L 347.319247 181.028221 
L 348.137725 179.374887 
L 348.956204 178.4497 
L 349.365444 177.181194 
L 350.797782 171.316508 
L 351.411641 168.132365 
L 352.639359 160.055983 
L 353.048599 158.633445 
L 353.457838 158.019071 
L 353.867078 157.362188 
L 354.276317 156.050173 
L 355.094796 152.17489 
L 355.913275 148.015549 
L 357.140993 143.452627 
L 357.550233 140.014682 
L 358.164092 132.297872 
L 358.982571 121.834258 
L 359.39181 119.76584 
L 359.59643 119.824851 
L 359.80105 120.493737 
L 360.210289 123.492843 
L 360.824148 131.667745 
L 362.665726 159.781427 
L 363.279585 165.415566 
L 363.688825 167.700028 
L 365.735022 175.063516 
L 366.144261 175.409586 
L 366.96274 175.960197 
L 367.781219 175.761157 
L 367.985839 175.837422 
L 368.190459 175.793663 
L 368.599698 175.128529 
L 369.008938 174.480648 
L 369.418177 174.332368 
L 369.827416 174.122826 
L 370.850515 172.626523 
L 371.055135 172.569762 
L 371.464374 172.815311 
L 372.078233 173.338167 
L 372.692093 173.559212 
L 372.896712 173.489948 
L 373.101332 173.189137 
L 373.510572 171.86737 
L 374.53367 167.938326 
L 374.94291 166.193973 
L 375.556769 161.885602 
L 376.170628 155.678848 
L 376.989107 143.702177 
L 378.012206 126.578466 
L 379.035304 104.288962 
L 380.467642 70.154313 
L 380.672262 68.156159 
L 380.876882 67.487524 
L 381.081501 68.109899 
L 381.490741 72.693076 
L 383.536938 105.294665 
L 384.150797 112.139298 
L 384.764657 116.691218 
L 385.787755 122.851713 
L 385.992375 123.447584 
L 386.196995 123.607866 
L 386.401614 123.296553 
L 386.606234 122.48814 
L 387.015474 119.450526 
L 387.629333 112.370595 
L 388.447812 100.488443 
L 389.266291 84.511714 
L 391.107868 48.296145 
L 391.517108 42.526729 
L 391.721727 41.180707 
L 391.926347 41.335738 
L 392.130967 43.172359 
L 392.540206 51.365265 
L 393.358685 77.009948 
L 394.177164 99.660026 
L 394.791023 110.66525 
L 397.04184 143.905468 
L 398.064939 158.274873 
L 398.678798 164.233327 
L 399.497277 169.910224 
L 400.929615 177.476503 
L 401.338854 178.807272 
L 402.361953 180.660147 
L 403.180432 182.959112 
L 403.589671 183.262923 
L 403.998911 183.164403 
L 405.022009 182.462261 
L 405.431249 182.828335 
L 406.045108 183.625246 
L 406.454348 184.488921 
L 407.068207 186.035733 
L 407.477446 186.475822 
L 407.682066 186.473322 
L 408.705165 185.988224 
L 409.319024 186.320041 
L 409.932883 186.084493 
L 410.342122 186.402558 
L 410.751362 186.6106 
L 411.160601 186.378053 
L 411.77446 185.809438 
L 412.1837 185.752926 
L 412.592939 185.739173 
L 413.002179 185.333842 
L 413.616038 184.540181 
L 413.820658 184.472918 
L 414.229897 184.692712 
L 414.639137 184.915757 
L 415.048376 184.78173 
L 415.457616 184.399403 
L 415.866855 183.402951 
L 417.708433 177.514761 
L 418.731531 172.406729 
L 419.140771 169.560404 
L 420.368489 158.654699 
L 420.573109 158.167851 
L 420.777728 158.128843 
L 421.186968 158.821233 
L 421.596207 159.604641 
L 421.800827 159.665654 
L 422.005447 159.366093 
L 422.210067 158.662951 
L 422.619306 156.092432 
L 423.233165 152.07487 
L 423.437785 151.656535 
L 423.642405 151.926089 
L 423.847024 152.877282 
L 424.256264 156.311476 
L 425.279362 166.106706 
L 425.688602 167.90907 
L 426.507081 170.134019 
L 427.12094 172.727294 
L 427.734799 175.268307 
L 428.144039 175.971199 
L 428.553278 175.992454 
L 428.962518 176.037963 
L 429.371757 176.151986 
L 429.576377 176.061217 
L 429.985616 175.394083 
L 430.599475 173.632727 
L 431.213335 171.81786 
L 431.622574 171.234992 
L 431.827194 171.280751 
L 432.236433 171.996396 
L 433.054912 174.074566 
L 433.259532 174.329617 
L 433.464152 174.387379 
L 433.668771 174.227097 
L 434.078011 173.412182 
L 434.48725 172.524503 
L 434.69187 172.283704 
L 434.89649 172.278203 
L 435.101109 172.574513 
L 435.510349 174.107573 
L 436.124208 178.24941 
L 436.942687 184.280129 
L 437.351926 186.025731 
L 437.761166 186.801388 
L 438.170405 187.147208 
L 438.988884 187.436517 
L 439.602743 188.275436 
L 440.216602 189.202623 
L 440.421222 189.270637 
L 441.444321 188.845301 
L 441.85356 189.097102 
L 442.2628 189.633461 
L 443.081279 190.827452 
L 443.490518 191.242036 
L 443.899758 191.321302 
L 444.308997 191.002237 
L 444.922856 189.974029 
L 445.127476 189.92927 
L 445.536715 190.452126 
L 445.945955 191.091255 
L 446.150575 191.218031 
L 446.559814 191.075502 
L 447.173673 190.742185 
L 447.787532 190.538393 
L 448.810631 189.818748 
L 449.21987 189.354154 
L 449.62911 188.800292 
L 449.83373 188.781788 
L 450.038349 189.042591 
L 451.266068 191.753889 
L 451.470687 191.90692 
L 451.675307 191.916672 
L 452.493786 191.421822 
L 453.107645 191.564101 
L 453.312265 191.328553 
L 454.539983 188.872057 
L 454.949223 188.64276 
L 455.358462 188.844051 
L 455.972321 189.53019 
L 456.381561 190.288593 
L 457.609279 192.94638 
L 458.018519 193.38897 
L 458.223138 193.405723 
L 459.041617 192.939629 
L 459.450857 192.15497 
L 459.860096 191.200527 
L 460.269336 190.790944 
L 460.883195 190.501636 
L 461.292434 190.646665 
L 461.701674 190.924471 
L 462.110913 190.944476 
L 463.338632 190.926722 
L 464.77097 191.588606 
L 465.180209 191.846158 
L 465.589449 191.536095 
L 467.021787 189.537691 
L 467.431026 188.932319 
L 467.840266 188.720776 
L 468.454125 188.699022 
L 469.067984 188.832299 
L 469.272604 188.766535 
L 470.295702 187.990128 
L 470.704942 188.29294 
L 471.114181 188.769036 
L 471.318801 188.830048 
L 471.523421 188.644511 
L 471.93266 187.624054 
L 472.751139 185.492874 
L 473.364998 184.245872 
L 473.774238 183.758023 
L 474.592717 183.221415 
L 475.615815 181.993166 
L 476.229674 181.930654 
L 476.434294 181.770621 
L 476.843534 181.02197 
L 477.252773 179.708705 
L 477.662012 177.465251 
L 479.29897 165.766887 
L 479.912829 159.672655 
L 480.935928 146.369216 
L 481.549787 136.500222 
L 482.163646 123.033 
L 482.777506 103.930389 
L 484.005224 58.608479 
L 484.209844 54.80371 
L 484.414463 53.330662 
L 484.619083 54.236595 
L 485.028323 61.758866 
L 486.8699 108.774118 
L 488.506858 142.405165 
L 489.120717 148.883475 
L 489.529957 151.064915 
L 489.939196 151.981601 
L 490.143816 152.041863 
L 490.348436 151.77806 
L 490.553055 151.124678 
L 490.962295 148.482644 
L 491.576154 141.729779 
L 492.394633 130.116181 
L 493.417731 110.399697 
L 495.054689 78.021903 
L 495.259309 76.747395 
L 495.463929 77.034203 
L 495.668548 79.086368 
L 496.077788 88.339238 
L 497.714746 138.957968 
L 498.328605 148.929234 
L 499.147084 158.330134 
L 500.170182 168.126864 
L 501.602521 178.610733 
L 502.01176 180.285321 
L 502.420999 181.080982 
L 502.830239 181.756118 
L 503.853338 184.382149 
L 504.671816 185.504626 
L 506.104155 188.323696 
L 506.513394 188.566745 
L 506.718014 188.856554 
L 507.536493 190.625411 
L 507.741112 190.5704 
L 508.764211 189.471928 
L 508.968831 189.655465 
L 509.991929 191.730634 
L 511.015028 192.346509 
L 511.628887 193.14517 
L 511.833507 193.034148 
L 512.651986 191.486835 
L 513.470465 190.828702 
L 513.879704 190.111057 
L 514.084324 189.944023 
L 514.288944 189.944773 
L 514.698183 190.251335 
L 515.312042 190.836454 
L 515.721282 190.878462 
L 516.130521 190.776442 
L 516.335141 190.852457 
L 517.15362 191.597107 
L 517.562859 191.445327 
L 517.972099 191.380064 
L 518.381338 191.777144 
L 519.199817 192.872615 
L 520.018296 194.651725 
L 520.222916 194.656976 
L 520.632155 194.18238 
L 521.246014 193.356213 
L 521.655254 193.239189 
L 522.473733 193.407223 
L 523.496831 192.667074 
L 523.906071 192.180475 
L 524.72455 191.006488 
L 525.133789 190.744935 
L 525.338409 190.732183 
L 525.543029 190.877212 
L 525.952268 191.685375 
L 526.770747 193.5415 
L 527.179986 194.23314 
L 527.589226 194.520448 
L 527.998465 194.38167 
L 528.407705 194.23114 
L 528.816944 194.070607 
L 529.226184 193.214184 
L 529.840043 191.468331 
L 530.249282 191.070751 
L 531.477001 191.112259 
L 533.523198 192.905372 
L 533.932437 192.89562 
L 534.546297 193.321956 
L 534.750916 193.228437 
L 535.364775 192.413272 
L 535.774015 191.85891 
L 536.183254 191.649118 
L 537.206353 191.554349 
L 538.229452 191.506339 
L 538.638691 191.36081 
L 540.071029 191.5601 
L 540.684888 191.526593 
L 541.094128 191.500838 
L 541.503367 191.385815 
L 541.707987 191.45933 
L 542.321846 191.989687 
L 542.935705 192.0557 
L 543.344945 192.092708 
L 544.163424 192.557051 
L 544.368043 192.428025 
L 544.777283 191.767642 
L 545.800382 189.988532 
L 546.209621 189.589452 
L 546.414241 189.700724 
L 546.82348 190.567899 
L 547.23272 191.347807 
L 547.846579 191.874664 
L 548.665058 193.14342 
L 549.278917 193.668276 
L 549.483537 193.575757 
L 550.506635 192.411522 
L 551.120494 192.596059 
L 551.734354 192.315003 
L 552.143593 192.739588 
L 552.552833 193.125916 
L 552.757452 193.156423 
L 553.166692 192.879117 
L 553.985171 191.76039 
L 554.18979 191.846908 
L 554.59903 192.733337 
L 555.417509 194.744744 
L 555.622128 194.945034 
L 555.826748 194.920279 
L 556.235988 194.37992 
L 556.849847 193.604013 
L 557.054466 193.511494 
L 557.259086 193.555503 
L 558.282185 194.394173 
L 558.691424 194.362166 
L 559.100664 194.144122 
L 560.123762 193.349462 
L 560.328382 193.2932 
L 560.533002 193.39097 
L 560.942241 193.953834 
L 561.5561 194.883522 
L 561.96534 195.158327 
L 562.374579 195.211588 
L 562.783819 195.010547 
L 563.193058 194.799005 
L 563.397678 194.854016 
L 564.011537 195.485643 
L 564.216157 195.344615 
L 565.034636 193.88407 
L 565.443875 193.641521 
L 565.648495 193.708284 
L 567.080833 195.039053 
L 567.490073 195.018549 
L 567.899312 194.997795 
L 568.308551 195.068309 
L 568.513171 194.928781 
L 569.53627 193.659524 
L 569.945509 193.14317 
L 570.354749 192.407021 
L 570.763988 192.158471 
L 571.173228 191.961431 
L 571.787087 191.423572 
L 572.810185 191.255288 
L 573.014805 191.357809 
L 573.424045 191.924924 
L 574.242524 193.387969 
L 574.447143 193.541 
L 574.651763 193.500492 
L 575.061002 193.09266 
L 575.674862 191.931425 
L 576.084101 191.427323 
L 576.493341 191.440826 
L 577.1072 191.890417 
L 577.721059 192.561302 
L 578.130298 193.014644 
L 578.334918 193.013394 
L 578.744158 192.516793 
L 579.153397 191.964432 
L 579.358017 191.918172 
L 579.767256 192.20573 
L 580.381115 192.74584 
L 580.790355 192.808102 
L 582.018073 192.364763 
L 582.222693 192.573555 
L 582.631932 193.789801 
L 583.245792 195.858719 
L 583.450411 196.042006 
L 584.26889 195.887224 
L 585.087369 196.698138 
L 586.928947 197.240748 
L 587.952045 196.547108 
L 588.975144 196.438836 
L 590.202862 196.80741 
L 590.612102 197.081466 
L 591.430581 196.896929 
L 591.83982 197.486048 
L 592.24906 197.969895 
L 592.453679 197.876377 
L 592.862919 197.146729 
L 594.090637 194.614467 
L 594.295257 194.448684 
L 594.499876 194.503695 
L 595.522975 195.729693 
L 595.932215 195.902478 
L 596.750693 196.554359 
L 597.159933 196.354319 
L 598.183032 195.399626 
L 598.796891 194.909777 
L 599.00151 194.914778 
L 599.61537 195.227341 
L 600.024609 195.080311 
L 600.433849 194.565957 
L 601.047708 193.509744 
L 601.456947 193.480988 
L 601.866187 193.474737 
L 602.889285 192.826606 
L 603.093905 192.933878 
L 603.503144 193.574257 
L 604.730863 195.838965 
L 605.140102 196.152028 
L 605.549342 196.01575 
L 605.958581 195.496896 
L 606.57244 193.724537 
L 606.98168 192.64757 
L 607.390919 192.161972 
L 607.800159 192.240237 
L 608.209398 192.725335 
L 608.823257 193.595011 
L 609.232497 193.669026 
L 609.641736 193.714535 
L 610.255595 194.016846 
L 610.460215 193.839811 
L 610.869455 192.691079 
L 611.278694 191.272792 
L 611.483314 190.902967 
L 611.687934 190.800947 
L 612.097173 190.990735 
L 612.915652 191.619612 
L 613.324891 191.11326 
L 613.734131 190.597905 
L 613.938751 190.561898 
L 614.14337 190.701426 
L 614.961849 191.666872 
L 615.780328 191.652619 
L 616.189568 191.680874 
L 616.598807 191.981435 
L 617.621906 193.189429 
L 618.235765 193.202682 
L 618.440385 193.359714 
L 618.849624 194.113116 
L 619.258863 194.834762 
L 619.463483 194.920029 
L 620.486582 194.643973 
L 620.895821 195.097315 
L 621.50968 195.959239 
L 621.7143 196.057759 
L 621.91892 195.972242 
L 622.328159 195.361868 
L 623.146638 194.021347 
L 623.555878 193.582259 
L 624.578976 193.028897 
L 624.988216 192.754591 
L 626.011314 192.565303 
L 626.829793 191.80615 
L 627.852892 190.532142 
L 628.262131 190.614409 
L 628.671371 191.142766 
L 629.69447 193.04415 
L 630.308329 193.669276 
L 630.512948 193.770297 
L 630.717568 193.73954 
L 631.331427 193.394971 
L 631.740667 193.760545 
L 632.149906 194.158375 
L 632.559146 194.094862 
L 633.377625 193.526997 
L 635.423822 191.70913 
L 635.833061 191.496337 
L 636.44692 191.01649 
L 636.65154 191.089755 
L 637.265399 191.771893 
L 637.674639 192.453781 
L 638.288498 193.565005 
L 638.493118 193.704783 
L 638.697737 193.650022 
L 639.516216 192.767594 
L 639.925456 192.879867 
L 640.334695 192.933878 
L 640.743935 192.475535 
L 641.153174 192.052699 
L 641.767033 191.845658 
L 642.176273 191.748638 
L 642.585512 191.493336 
L 642.994752 190.913219 
L 643.608611 189.652464 
L 643.813231 189.53069 
L 644.22247 189.674719 
L 644.63171 190.089553 
L 645.040949 190.591654 
L 645.450188 190.826202 
L 645.859428 190.796696 
L 646.268667 190.37436 
L 646.882527 189.749734 
L 647.291766 189.621208 
L 647.701005 189.743983 
L 648.314865 190.197575 
L 648.724104 190.033041 
L 649.337963 189.832251 
L 649.747203 189.888012 
L 650.156442 190.216578 
L 650.565682 190.775941 
L 651.179541 191.638616 
L 651.58878 191.723633 
L 651.99802 191.448077 
L 653.021118 190.12656 
L 653.430358 189.771238 
L 653.634978 189.761987 
L 654.248837 190.082801 
L 655.067316 189.360155 
L 655.271935 189.496433 
L 656.090414 190.8187 
L 656.704273 191.951179 
L 656.908893 192.066952 
L 657.727372 191.752889 
L 659.36433 192.539048 
L 659.773569 192.863113 
L 659.978189 192.861863 
L 660.387429 192.387017 
L 661.410527 190.997236 
L 661.615147 190.934724 
L 662.024386 191.176772 
L 662.638246 191.468581 
L 663.047485 191.481084 
L 663.456724 191.232784 
L 664.070584 190.481382 
L 664.684443 189.696723 
L 665.093682 189.447423 
L 665.707541 189.226378 
L 666.116781 188.684269 
L 666.93526 187.361251 
L 667.344499 187.228474 
L 667.753739 187.395508 
L 668.162978 187.824595 
L 668.776837 188.571246 
L 669.186077 188.635509 
L 669.595316 188.682268 
L 670.004556 189.059094 
L 670.413795 189.494182 
L 670.618415 189.520688 
L 671.232274 189.272638 
L 671.846133 189.260635 
L 672.255373 189.058844 
L 673.073852 188.471226 
L 673.483091 188.428967 
L 673.687711 188.276686 
L 674.50619 187.095698 
L 674.915429 187.05694 
L 675.324669 186.974673 
L 675.733908 186.897658 
L 676.143147 187.220223 
L 676.552387 187.598799 
L 676.757007 187.644559 
L 676.961626 187.483526 
L 677.370866 186.500577 
L 678.393964 183.119644 
L 679.007824 181.46831 
L 679.621683 179.680449 
L 680.030922 179.125837 
L 680.440162 178.629987 
L 681.054021 177.488756 
L 681.258641 177.538766 
L 681.66788 178.318924 
L 682.690979 181.647096 
L 683.100218 181.979414 
L 683.509458 182.350739 
L 684.327937 183.311683 
L 684.532556 183.267924 
L 684.737176 182.987867 
L 686.169514 179.619687 
L 687.601852 177.948849 
L 688.011092 176.848627 
L 688.624951 174.226097 
L 689.852669 167.90832 
L 690.466528 165.013485 
L 690.671148 164.566894 
L 690.875768 164.436368 
L 691.080388 164.600651 
L 691.489627 165.773888 
L 692.103486 168.297398 
L 692.512726 169.093059 
L 692.717345 169.121065 
L 693.126585 168.631216 
L 693.945064 167.108658 
L 694.354303 165.897163 
L 694.968162 163.221622 
L 695.582022 158.960261 
L 696.4005 151.513756 
L 697.01436 142.952276 
L 698.037458 123.750145 
L 698.855937 104.697544 
L 699.879036 80.900985 
L 700.288275 74.959284 
L 700.492895 73.379214 
L 700.697515 72.723332 
L 700.902134 72.959379 
L 701.106754 74.0506 
L 701.515994 78.632026 
L 702.129853 90.610197 
L 704.38067 140.100949 
L 704.994529 149.867423 
L 705.608388 155.918896 
L 706.631487 162.587494 
L 707.040726 164.256832 
L 707.449966 164.982478 
L 708.063825 165.522337 
L 708.677684 166.285492 
L 708.882304 166.274489 
L 709.291543 165.886411 
L 709.700783 165.564346 
L 709.905402 165.753884 
L 710.314642 167.035393 
L 711.54236 172.553008 
L 711.9516 173.141127 
L 712.156219 173.248399 
L 712.565459 173.071363 
L 713.179318 172.407479 
L 713.793177 171.731342 
L 713.997797 171.663829 
L 714.407036 171.894375 
L 714.816276 172.170681 
L 715.225515 172.107418 
L 716.043994 171.787604 
L 716.657853 171.987894 
L 716.862473 171.847116 
L 717.067093 171.494795 
L 717.476332 170.08676 
L 718.294811 165.543342 
L 718.704051 162.082392 
L 720.545628 143.250836 
L 720.954868 141.922568 
L 721.159487 141.853304 
L 721.364107 142.224129 
L 721.568727 143.113058 
L 721.977966 146.605514 
L 723.614924 166.112457 
L 724.228783 169.985489 
L 725.047262 173.611972 
L 725.661121 175.805916 
L 726.070361 176.544315 
L 727.502699 178.058371 
L 727.707319 178.068623 
L 727.911938 177.829325 
L 728.321178 176.649086 
L 728.730417 175.474349 
L 728.935037 175.2318 
L 729.139657 175.223298 
L 730.571995 176.120479 
L 730.981234 176.397035 
L 731.390474 176.32252 
L 732.208953 175.534111 
L 732.618192 175.408085 
L 732.822812 175.122278 
L 733.436671 173.355421 
L 733.84591 172.297957 
L 734.25515 171.846866 
L 735.073629 172.007648 
L 735.482868 171.184732 
L 737.529066 164.735178 
L 739.166023 155.675347 
L 739.370643 155.39279 
L 739.575263 155.34128 
L 739.779883 155.544821 
L 739.984502 156.049923 
L 740.393742 157.958309 
L 741.62146 164.576896 
L 742.235319 167.272441 
L 742.644559 168.365162 
L 743.258418 169.187078 
L 743.667657 169.515144 
L 744.690756 169.725937 
L 745.099995 170.176028 
L 745.918474 171.341263 
L 746.123094 171.436033 
L 746.327714 171.337513 
L 746.736953 170.513346 
L 747.350812 169.216584 
L 747.760052 168.856261 
L 748.373911 168.779246 
L 748.578531 168.89952 
L 748.98777 169.73844 
L 749.39701 170.558355 
L 749.806249 170.613616 
L 750.215489 170.657625 
L 750.829348 170.951685 
L 751.238587 170.667877 
L 752.466306 169.391369 
L 752.670925 169.336608 
L 753.080165 169.531648 
L 753.489404 169.779698 
L 753.898644 169.785449 
L 754.512503 169.671676 
L 754.921742 169.722686 
L 755.330982 169.438129 
L 756.35408 168.15962 
L 756.76332 167.834805 
L 756.96794 167.796797 
L 757.377179 168.05835 
L 758.400278 169.094559 
L 759.014137 169.814205 
L 759.423376 169.854713 
L 759.832616 169.816455 
L 760.241855 170.03775 
L 761.264954 170.990943 
L 762.492672 170.802655 
L 763.106531 170.410075 
L 763.515771 170.410825 
L 764.12963 171.004695 
L 765.561968 172.11317 
L 766.789686 171.706087 
L 768.631264 172.541006 
L 769.040503 172.996348 
L 769.654363 173.987798 
L 769.858982 174.075066 
L 770.677461 173.640228 
L 771.90518 172.509 
L 772.723659 171.505797 
L 772.928278 171.71784 
L 774.155997 173.920285 
L 775.792954 174.449392 
L 776.202194 174.69019 
L 776.406814 174.669936 
L 776.816053 174.159333 
L 777.225293 173.591468 
L 777.429912 173.568714 
L 778.043771 174.04731 
L 778.453011 174.677938 
L 778.86225 175.28456 
L 779.27149 175.323318 
L 779.680729 175.2348 
L 780.089969 175.393833 
L 780.703828 175.928441 
L 781.726927 176.212998 
L 782.750025 176.213998 
L 783.568504 177.216701 
L 784.182363 177.401738 
L 785.410082 178.593479 
L 785.819321 178.39844 
L 786.22856 178.027865 
L 786.84242 177.31247 
L 787.251659 177.199698 
L 787.660899 177.349728 
L 788.070138 177.741557 
L 788.479377 178.609232 
L 789.502476 181.210258 
L 789.911716 181.520821 
L 790.934814 181.750117 
L 791.344054 182.297728 
L 791.753293 182.892098 
L 791.957913 182.938107 
L 792.571772 182.50352 
L 792.981011 182.888597 
L 793.79949 183.587989 
L 794.20873 183.894051 
L 794.617969 183.863544 
L 796.050307 183.507472 
L 796.459547 183.846541 
L 796.868786 184.670708 
L 797.687265 186.500827 
L 798.505744 187.746829 
L 799.528843 189.063095 
L 800.756561 190.164568 
L 801.165801 190.428621 
L 801.57504 191.061749 
L 802.188899 192.271994 
L 802.393519 192.45103 
L 803.416618 192.571054 
L 803.825857 192.794849 
L 804.644336 192.925876 
L 806.281294 194.471688 
L 807.509012 196.363071 
L 808.73673 197.39803 
L 809.555209 197.59857 
L 810.169069 198.057913 
L 810.782928 198.119176 
L 812.010646 197.988899 
L 812.624505 197.229246 
L 812.829125 197.302511 
L 813.647604 198.379478 
L 814.056843 198.774558 
L 816.92152 203.230459 
L 817.535379 204.928802 
L 817.944618 205.359389 
L 818.558477 205.285624 
L 818.967717 205.931254 
L 819.786196 208.096442 
L 820.400055 209.648256 
L 820.809294 209.904057 
L 821.218534 210.073592 
L 822.037013 211.019283 
L 823.060111 212.531338 
L 824.28783 214.935574 
L 824.901689 215.158619 
L 825.310928 215.047347 
L 826.743266 214.109657 
L 827.152506 213.62531 
L 827.357126 213.667318 
L 827.561745 214.006387 
L 828.584844 216.882468 
L 829.403323 217.532099 
L 829.812562 217.641371 
L 830.221802 217.720637 
L 830.835661 218.153475 
L 831.44952 218.807107 
L 831.85876 219.16843 
L 832.063379 219.153677 
L 832.472619 218.780601 
L 833.086478 218.176229 
L 833.291098 218.23074 
L 834.109577 218.999646 
L 834.723436 218.835113 
L 835.746534 219.232693 
L 835.951154 219.06816 
L 836.360394 218.045453 
L 837.178872 214.372961 
L 837.588112 211.657412 
L 838.201971 205.620692 
L 839.02045 197.616074 
L 839.429689 195.957239 
L 839.634309 196.053508 
L 840.043549 197.640829 
L 842.294366 209.726772 
L 842.498985 210.1166 
L 842.703605 210.226623 
L 842.908225 210.130853 
L 843.317464 209.565489 
L 843.931323 208.300983 
L 844.545183 206.840938 
L 844.749802 206.582636 
L 844.954422 206.518123 
L 845.772901 206.752921 
L 846.18214 206.327585 
L 847.000619 205.16485 
L 847.409859 203.745313 
L 848.023718 201.422093 
L 848.228338 201.201048 
L 848.842197 201.136785 
L 849.046817 200.888735 
L 849.456056 199.721249 
L 850.069915 197.610073 
L 851.093014 195.274101 
L 852.116113 193.0439 
L 852.525352 190.594655 
L 853.139211 184.457164 
L 853.75307 178.060872 
L 854.16231 176.337523 
L 854.36693 176.131232 
L 854.571549 176.186743 
L 854.980789 176.889635 
L 855.390028 177.713301 
L 855.799268 178.013862 
L 856.208507 178.107131 
L 856.822366 178.561473 
L 857.231606 179.137339 
L 857.845465 180.051774 
L 858.868564 181.100986 
L 859.687042 181.757869 
L 860.710141 182.843838 
L 861.119381 183.689509 
L 861.73324 185.101044 
L 861.937859 185.241573 
L 862.347099 185.293583 
L 862.551719 185.57314 
L 862.960958 186.974673 
L 863.984057 191.406319 
L 864.597916 193.349462 
L 865.211775 196.783906 
L 866.234874 204.052375 
L 867.462592 213.670069 
L 868.69031 223.307766 
L 870.736508 243.526603 
L 871.619057 253 
M 930.158625 253 
L 930.690088 115.382454 
L 931.3152 -1 
M 935.157728 -1 
L 936.62406 119.613809 
L 937.442539 165.162265 
L 938.056398 188.546991 
L 938.465637 198.316966 
L 938.874877 203.896843 
L 939.079496 205.392896 
L 939.284116 206.066782 
L 939.488736 205.983265 
L 939.897975 204.479711 
L 941.330313 198.599023 
L 941.739553 197.604822 
L 941.944173 197.442039 
L 942.148792 197.469794 
L 942.353412 197.689589 
L 942.762651 198.706544 
L 943.171891 200.591675 
L 943.78575 204.788524 
L 944.399609 210.60795 
L 945.627328 224.645787 
L 947.468905 250.072176 
L 948.013435 253 
M 950.910184 253 
L 951.35668 252.384143 
L 951.970539 251.672749 
L 952.379779 250.650293 
L 953.198258 247.298615 
L 954.221356 242.408877 
L 955.653694 235.870556 
L 957.086032 231.04558 
L 957.699892 228.71711 
L 958.92761 225.574225 
L 959.336849 225.224154 
L 959.746089 225.409191 
L 959.950709 225.50096 
L 960.155328 225.4527 
L 960.564568 224.875833 
L 961.178427 223.237252 
L 962.406145 219.520751 
L 962.815385 219.099416 
L 963.224624 218.925381 
L 963.838483 218.469289 
L 964.247723 218.211486 
L 964.656962 217.426578 
L 965.475441 215.318652 
L 965.884681 214.76429 
L 966.29392 214.628262 
L 966.70316 214.51999 
L 967.112399 214.026891 
L 967.521638 213.227229 
L 968.340117 211.161562 
L 968.953977 210.747478 
L 969.363216 209.789284 
L 970.181695 206.853941 
L 970.386315 206.472864 
L 970.590934 206.350089 
L 971.000174 206.692908 
L 971.409413 206.988968 
L 972.023272 207.016974 
L 972.432512 206.737167 
L 972.841751 206.047028 
L 973.66023 204.385942 
L 975.297188 202.307772 
L 975.501808 202.317774 
L 976.115667 202.649341 
L 976.320287 202.465804 
L 977.548005 200.490155 
L 978.161864 200.137083 
L 978.980343 199.87478 
L 979.389583 200.116829 
L 979.798822 200.599927 
L 980.412681 201.421593 
L 980.617301 201.416342 
L 980.821921 201.232555 
L 981.23116 200.386634 
L 981.6404 199.629731 
L 982.458878 199.209646 
L 983.072738 198.544011 
L 983.481977 198.469246 
L 983.891217 198.719047 
L 984.914315 199.555966 
L 985.323555 199.962548 
L 985.732794 200.806969 
L 986.960512 203.883591 
L 987.165132 203.874089 
L 987.369752 203.489511 
L 987.574372 202.639839 
L 987.983611 199.552715 
L 988.59747 194.328659 
L 989.00671 192.297249 
L 989.415949 191.335305 
L 989.825189 190.5689 
L 990.643668 188.279187 
L 990.848287 188.070645 
L 991.666766 187.821344 
L 992.280625 187.30424 
L 992.689865 187.310491 
L 993.099104 187.814343 
L 994.326823 190.039793 
L 994.736062 190.119809 
L 995.145302 189.819998 
L 995.554541 188.948072 
L 996.1684 187.471774 
L 996.57764 187.170713 
L 996.782259 187.201969 
L 997.191499 187.6008 
L 997.805358 188.39521 
L 998.214597 188.554993 
L 998.623837 188.287939 
L 1000.465414 186.454818 
L 1000.874654 185.219318 
L 1001.897753 181.363789 
L 1002.102372 181.094235 
L 1002.306992 181.099486 
L 1002.511612 181.357038 
L 1003.53471 183.730517 
L 1003.73933 183.848541 
L 1004.14857 183.674006 
L 1004.557809 183.531977 
L 1004.762429 183.601241 
L 1005.171668 184.208114 
L 1005.990147 186.408559 
L 1006.399387 187.418513 
L 1006.808626 187.961123 
L 1007.013246 188.016384 
L 1007.422485 187.686817 
L 1007.831725 187.274234 
L 1008.650204 186.81214 
L 1009.059443 186.002977 
L 1009.673302 184.522678 
L 1009.877922 184.263125 
L 1010.082542 184.251373 
L 1010.901021 185.12905 
L 1011.31026 184.884501 
L 1012.537978 183.707763 
L 1012.742598 183.763524 
L 1013.151838 184.246372 
L 1013.765697 185.002275 
L 1014.379556 185.237072 
L 1015.198035 185.430861 
L 1015.811894 185.736173 
L 1016.221133 185.760928 
L 1016.425753 185.943215 
L 1017.039612 187.06019 
L 1017.448852 187.217722 
L 1017.858091 187.241977 
L 1018.267331 187.337246 
L 1018.47195 187.220223 
L 1018.88119 186.400557 
L 1019.495049 184.786731 
L 1020.108908 184.248122 
L 1021.336627 183.162153 
L 1021.541246 183.125645 
L 1021.745866 183.227916 
L 1022.155105 183.84204 
L 1023.178204 186.054737 
L 1023.587444 186.253527 
L 1023.996683 186.304038 
L 1025.429021 187.032935 
L 1025.838261 186.848398 
L 1026.2475 186.422312 
L 1027.270599 184.784481 
L 1027.475218 184.82974 
L 1028.089078 185.6214 
L 1029.316796 187.053439 
L 1029.726035 187.180465 
L 1029.930655 186.981425 
L 1030.953754 185.043783 
L 1031.362993 185.188812 
L 1031.772233 185.350345 
L 1032.181472 185.281331 
L 1032.999951 184.668207 
L 1033.40919 184.522928 
L 1034.02305 184.095341 
L 1034.636909 184.034829 
L 1035.046148 184.28788 
L 1036.069247 185.156306 
L 1036.478486 185.058286 
L 1036.887726 184.808485 
L 1037.296965 184.208364 
L 1037.910824 183.127146 
L 1038.115444 183.036627 
L 1038.524684 183.217164 
L 1039.343163 183.931558 
L 1039.547782 183.874797 
L 1040.366261 183.214163 
L 1040.775501 183.243919 
L 1041.18474 183.369945 
L 1041.59398 183.209162 
L 1041.798599 183.259422 
L 1042.207839 183.901802 
L 1042.821698 185.104295 
L 1043.026318 185.208066 
L 1043.230937 185.141053 
L 1044.049416 184.444412 
L 1044.663275 184.101092 
L 1045.277135 183.769525 
L 1045.890994 183.720015 
L 1046.504853 184.028828 
L 1047.118712 184.508925 
L 1047.323332 184.48717 
L 1047.732571 184.024327 
L 1048.141811 183.515724 
L 1048.346431 183.439209 
L 1048.55105 183.509473 
L 1048.96029 184.000322 
L 1049.574149 184.955515 
L 1049.983388 185.156306 
L 1050.597248 185.337592 
L 1051.006487 185.361347 
L 1052.643445 184.58569 
L 1053.461924 185.300585 
L 1053.666543 185.288832 
L 1054.075783 184.876499 
L 1054.689642 184.272127 
L 1055.098882 183.751022 
L 1055.91736 182.156449 
L 1056.53122 181.693356 
L 1056.940459 181.636094 
L 1057.349698 181.920402 
L 1058.168177 183.090138 
L 1058.372797 182.984617 
L 1059.191276 181.907899 
L 1059.395896 182.028924 
L 1060.009755 182.993118 
L 1060.623614 183.866545 
L 1061.237473 184.360645 
L 1061.646713 184.428158 
L 1062.055952 184.114345 
L 1062.874431 183.202661 
L 1063.079051 183.215413 
L 1063.48829 183.778027 
L 1063.89753 184.476918 
L 1064.102149 184.621948 
L 1064.306769 184.570687 
L 1065.125248 183.800532 
L 1065.534488 183.753522 
L 1066.148347 183.781778 
L 1066.966826 183.318934 
L 1067.785305 183.714014 
L 1068.399164 183.182407 
L 1068.603783 183.192909 
L 1069.013023 183.638499 
L 1069.831502 185.02878 
L 1070.036122 185.106546 
L 1070.649981 184.913507 
L 1070.8546 185.143303 
L 1071.46846 186.323041 
L 1071.673079 186.485074 
L 1071.877699 186.430813 
L 1073.105417 184.894003 
L 1073.923896 183.126145 
L 1074.537756 182.732566 
L 1075.151615 182.672804 
L 1075.356234 182.826835 
L 1075.765474 183.666755 
L 1076.379333 185.092543 
L 1076.583953 185.308836 
L 1076.788573 185.230571 
L 1077.607051 183.929058 
L 1078.016291 183.885299 
L 1080.267108 184.991772 
L 1080.676347 185.17706 
L 1081.699446 186.455068 
L 1081.904066 186.441565 
L 1082.108685 186.21777 
L 1083.336404 183.987819 
L 1083.541024 184.064835 
L 1084.154883 184.746223 
L 1084.564122 184.677959 
L 1084.768742 184.644702 
L 1085.382601 184.969018 
L 1085.587221 184.839492 
L 1086.4057 183.621996 
L 1086.610319 183.64375 
L 1087.428798 184.207864 
L 1087.838038 184.083089 
L 1088.247277 183.6445 
L 1088.861136 182.925355 
L 1089.270376 182.762322 
L 1089.679615 182.90085 
L 1090.088855 183.045879 
L 1090.293475 182.984617 
L 1090.702714 182.502769 
L 1091.111953 181.96366 
L 1091.316573 181.916151 
L 1092.135052 182.550029 
L 1093.36277 182.167702 
L 1093.97663 181.96241 
L 1095.204348 182.221462 
L 1095.613587 182.421503 
L 1095.818207 182.403749 
L 1096.227447 181.993166 
L 1097.659785 179.760215 
L 1098.069024 179.411145 
L 1098.478264 179.283119 
L 1098.682883 179.358134 
L 1099.092123 179.845482 
L 1099.705982 180.640393 
L 1100.524461 181.241764 
L 1101.34294 182.087435 
L 1101.956799 182.228964 
L 1102.366038 182.192707 
L 1102.979898 182.053929 
L 1103.798376 182.016671 
L 1104.002996 181.729863 
L 1104.821475 179.775218 
L 1105.026095 179.622937 
L 1105.435334 179.692701 
L 1105.844574 179.679449 
L 1106.458433 179.348882 
L 1107.276912 179.394641 
L 1107.890771 179.117585 
L 1108.70925 179.203102 
L 1109.527729 178.752511 
L 1109.936968 178.687498 
L 1110.346208 178.875786 
L 1110.550827 178.838529 
L 1110.755447 178.601231 
L 1111.164687 177.599028 
L 1113.824743 168.955781 
L 1114.438602 164.965475 
L 1116.07556 152.207396 
L 1116.689419 149.60312 
L 1117.507898 146.115915 
L 1118.735617 139.209019 
L 1119.144856 135.049679 
L 1119.554095 128.849926 
L 1119.963335 120.123162 
L 1120.372574 107.781917 
L 1120.781814 90.493673 
L 1121.395673 52.52975 
L 1122.052965 -1 
M 1123.584021 -1 
L 1124.669589 84.497711 
L 1125.283448 110.531223 
L 1125.897307 124.535804 
L 1127.534265 147.642474 
L 1128.352744 157.673501 
L 1129.375842 166.619809 
L 1130.194321 172.913331 
L 1130.603561 174.951743 
L 1131.0128 175.82567 
L 1131.626659 176.513559 
L 1133.058997 178.757512 
L 1133.877476 179.589431 
L 1134.286716 179.986261 
L 1134.695955 180.071278 
L 1135.105195 180.184051 
L 1135.719054 180.813678 
L 1136.128293 180.795424 
L 1136.332913 180.72316 
L 1136.537533 180.769669 
L 1136.946772 181.362789 
L 1137.356012 182.006669 
L 1137.560631 182.070432 
L 1138.174491 181.640095 
L 1138.37911 181.710859 
L 1138.78835 182.288726 
L 1139.197589 182.814082 
L 1139.811448 182.95211 
L 1140.220688 182.842588 
L 1140.629927 182.561781 
L 1141.857646 181.27052 
L 1142.266885 181.601837 
L 1142.880744 182.241967 
L 1143.903843 182.920604 
L 1144.313082 183.402451 
L 1144.722322 183.580237 
L 1145.336181 183.69476 
L 1145.74542 184.054083 
L 1146.35928 184.999274 
L 1146.768519 185.647155 
L 1146.973139 185.788183 
L 1147.177759 185.729421 
L 1147.586998 185.051284 
L 1148.200857 183.89155 
L 1148.405477 183.717015 
L 1148.610097 183.699261 
L 1150.042435 184.363395 
L 1150.451674 185.12605 
L 1150.860914 185.892704 
L 1151.065533 185.894705 
L 1151.474773 185.263827 
L 1151.884012 184.645953 
L 1152.293252 184.373147 
L 1152.702491 184.367396 
L 1153.72559 184.729969 
L 1154.544069 185.158056 
L 1154.953308 184.850994 
L 1155.157928 184.686711 
L 1155.362548 184.724468 
L 1155.771787 185.397854 
L 1156.181027 186.041985 
L 1156.794886 186.41231 
L 1157.408745 186.528583 
L 1157.817984 186.601348 
L 1158.841083 187.212971 
L 1159.045703 187.216472 
L 1159.454942 186.845647 
L 1160.478041 185.200065 
L 1161.501139 182.768823 
L 1161.910379 182.400999 
L 1162.114999 182.513021 
L 1162.728858 183.650501 
L 1163.547337 185.041032 
L 1163.956576 185.286082 
L 1164.365816 185.102295 
L 1164.979675 184.408655 
L 1165.593534 183.672756 
L 1166.002773 183.622496 
L 1166.821252 183.954563 
L 1167.230492 183.586238 
L 1167.844351 182.80458 
L 1168.048971 182.865343 
L 1168.45821 183.515474 
L 1169.072069 185.095293 
L 1169.481309 186.261529 
L 1169.890548 186.771132 
L 1170.299788 186.687365 
L 1171.118267 186.377052 
L 1171.527506 186.474072 
L 1172.141365 186.927414 
L 1172.550605 186.826393 
L 1173.778323 185.860698 
L 1174.187562 185.810938 
L 1174.801422 185.898956 
L 1176.23376 185.211567 
L 1176.642999 185.070788 
L 1177.666098 185.065787 
L 1178.075337 185.141053 
L 1178.689196 185.050284 
L 1179.098436 185.364848 
L 1179.916915 186.125001 
L 1180.735394 186.606599 
L 1181.144633 186.95717 
L 1181.349253 186.916661 
L 1182.167732 186.31379 
L 1182.986211 186.233273 
L 1183.39545 186.158008 
L 1183.80469 185.907207 
L 1184.213929 185.360847 
L 1184.827788 184.499923 
L 1184.827788 184.499923 
" clip-path="url(#p8dcf15ed66)" style="fill: none; stroke: #000000; stroke-width: 2; stroke-linecap: square"/>
   </g>
   <g id="patch_3">
    <path d="M 3.00024 198.907885 
L 1184.99976 198.907885 
" style="fill: none; stroke: #000000; stroke-width: 2; stroke-linejoin: miter; stroke-linecap: square"/>
   </g>
  </g>
 </g>
 <defs>
  <clipPath id="p8dcf15ed66">
   <rect x="3.00024" y="3.00024" width="1181.99952" height="195.907645"/>
  </clipPath>
 </defs>
</svg>
