<?xml version="1.0" encoding="utf-8" standalone="no"?>
<!DOCTYPE svg PUBLIC "-//W3C//DTD SVG 1.1//EN"
  "http://www.w3.org/Graphics/SVG/1.1/DTD/svg11.dtd">
<svg xmlns:xlink="http://www.w3.org/1999/xlink" width="1188pt" height="252pt" viewBox="0 0 1188 252" xmlns="http://www.w3.org/2000/svg" version="1.1">
 <metadata>
  <rdf:RDF xmlns:dc="http://purl.org/dc/elements/1.1/" xmlns:cc="http://creativecommons.org/ns#" xmlns:rdf="http://www.w3.org/1999/02/22-rdf-syntax-ns#">
   <cc:Work>
    <dc:type rdf:resource="http://purl.org/dc/dcmitype/StillImage"/>
    <dc:date>2024-07-23T21:48:00.020050</dc:date>
    <dc:format>image/svg+xml</dc:format>
    <dc:creator>
     <cc:Agent>
      <dc:title>Matplotlib v3.8.4, https://matplotlib.org/</dc:title>
     </cc:Agent>
    </dc:creator>
   </cc:Work>
  </rdf:RDF>
 </metadata>
 <defs>
  <style type="text/css">*{stroke-linejoin: round; stroke-linecap: butt}</style>
 </defs>
 <g id="figure_1">
  <g id="patch_1">
   <path d="M 0 252 
L 1188 252 
L 1188 0 
L 0 0 
z
" style="fill: #ffffff"/>
  </g>
  <g id="axes_1">
   <g id="patch_2">
    <path d="M 3.00024 198.907885 
L 1184.99976 198.907885 
L 1184.99976 3.00024 
L 3.00024 3.00024 
z
" style="fill: #ffffff"/>
   </g>
   <g id="matplotlib.axis_1">
    <g id="xtick_1">
     <g id="line2d_1">
      <defs>
       <path id="me9053b3d82" d="M 0 0 
L 0 8 
" style="stroke: #000000; stroke-width: 2"/>
      </defs>
      <g>
       <use xlink:href="#me9053b3d82" x="1131.272509" y="198.907885" style="stroke: #000000; stroke-width: 2"/>
      </g>
     </g>
     <g id="text_1">
      <!-- 0 -->
      <g transform="translate(1126.267665 224.791947) scale(0.18 -0.18)">
       <defs>
        <path id="Arial-BoldMT-30" d="M 1756 4600 
Q 2422 4600 2797 4125 
Q 3244 3563 3244 2259 
Q 3244 959 2794 391 
Q 2422 -78 1756 -78 
Q 1088 -78 678 436 
Q 269 950 269 2269 
Q 269 3563 719 4131 
Q 1091 4600 1756 4600 
z
M 1756 3872 
Q 1597 3872 1472 3770 
Q 1347 3669 1278 3406 
Q 1188 3066 1188 2259 
Q 1188 1453 1269 1151 
Q 1350 850 1473 750 
Q 1597 650 1756 650 
Q 1916 650 2041 751 
Q 2166 853 2234 1116 
Q 2325 1453 2325 2259 
Q 2325 3066 2244 3367 
Q 2163 3669 2039 3770 
Q 1916 3872 1756 3872 
z
" transform="scale(0.015625)"/>
       </defs>
       <use xlink:href="#Arial-BoldMT-30"/>
      </g>
     </g>
    </g>
    <g id="xtick_2">
     <g id="line2d_2">
      <g>
       <use xlink:href="#me9053b3d82" x="1023.818007" y="198.907885" style="stroke: #000000; stroke-width: 2"/>
      </g>
     </g>
     <g id="text_2">
      <!-- 1 -->
      <g transform="translate(1018.813164 224.791947) scale(0.18 -0.18)">
       <defs>
        <path id="Arial-BoldMT-31" d="M 2519 0 
L 1641 0 
L 1641 3309 
Q 1159 2859 506 2644 
L 506 3441 
Q 850 3553 1253 3867 
Q 1656 4181 1806 4600 
L 2519 4600 
L 2519 0 
z
" transform="scale(0.015625)"/>
       </defs>
       <use xlink:href="#Arial-BoldMT-31"/>
      </g>
     </g>
    </g>
    <g id="xtick_3">
     <g id="line2d_3">
      <g>
       <use xlink:href="#me9053b3d82" x="916.363505" y="198.907885" style="stroke: #000000; stroke-width: 2"/>
      </g>
     </g>
     <g id="text_3">
      <!-- 2 -->
      <g transform="translate(911.358662 224.791947) scale(0.18 -0.18)">
       <defs>
        <path id="Arial-BoldMT-32" d="M 3238 816 
L 3238 0 
L 159 0 
Q 209 463 459 877 
Q 709 1291 1447 1975 
Q 2041 2528 2175 2725 
Q 2356 2997 2356 3263 
Q 2356 3556 2198 3714 
Q 2041 3872 1763 3872 
Q 1488 3872 1325 3706 
Q 1163 3541 1138 3156 
L 263 3244 
Q 341 3969 753 4284 
Q 1166 4600 1784 4600 
Q 2463 4600 2850 4234 
Q 3238 3869 3238 3325 
Q 3238 3016 3127 2736 
Q 3016 2456 2775 2150 
Q 2616 1947 2200 1565 
Q 1784 1184 1673 1059 
Q 1563 934 1494 816 
L 3238 816 
z
" transform="scale(0.015625)"/>
       </defs>
       <use xlink:href="#Arial-BoldMT-32"/>
      </g>
     </g>
    </g>
    <g id="xtick_4">
     <g id="line2d_4">
      <g>
       <use xlink:href="#me9053b3d82" x="808.909004" y="198.907885" style="stroke: #000000; stroke-width: 2"/>
      </g>
     </g>
     <g id="text_4">
      <!-- 3 -->
      <g transform="translate(803.90416 224.791947) scale(0.18 -0.18)">
       <defs>
        <path id="Arial-BoldMT-33" d="M 241 1216 
L 1091 1319 
Q 1131 994 1309 822 
Q 1488 650 1741 650 
Q 2013 650 2198 856 
Q 2384 1063 2384 1413 
Q 2384 1744 2206 1937 
Q 2028 2131 1772 2131 
Q 1603 2131 1369 2066 
L 1466 2781 
Q 1822 2772 2009 2936 
Q 2197 3100 2197 3372 
Q 2197 3603 2059 3740 
Q 1922 3878 1694 3878 
Q 1469 3878 1309 3722 
Q 1150 3566 1116 3266 
L 306 3403 
Q 391 3819 561 4067 
Q 731 4316 1036 4458 
Q 1341 4600 1719 4600 
Q 2366 4600 2756 4188 
Q 3078 3850 3078 3425 
Q 3078 2822 2419 2463 
Q 2813 2378 3048 2084 
Q 3284 1791 3284 1375 
Q 3284 772 2843 347 
Q 2403 -78 1747 -78 
Q 1125 -78 715 280 
Q 306 638 241 1216 
z
" transform="scale(0.015625)"/>
       </defs>
       <use xlink:href="#Arial-BoldMT-33"/>
      </g>
     </g>
    </g>
    <g id="xtick_5">
     <g id="line2d_5">
      <g>
       <use xlink:href="#me9053b3d82" x="701.454502" y="198.907885" style="stroke: #000000; stroke-width: 2"/>
      </g>
     </g>
     <g id="text_5">
      <!-- 4 -->
      <g transform="translate(696.449658 224.791947) scale(0.18 -0.18)">
       <defs>
        <path id="Arial-BoldMT-34" d="M 1994 0 
L 1994 922 
L 119 922 
L 119 1691 
L 2106 4600 
L 2844 4600 
L 2844 1694 
L 3413 1694 
L 3413 922 
L 2844 922 
L 2844 0 
L 1994 0 
z
M 1994 1694 
L 1994 3259 
L 941 1694 
L 1994 1694 
z
" transform="scale(0.015625)"/>
       </defs>
       <use xlink:href="#Arial-BoldMT-34"/>
      </g>
     </g>
    </g>
    <g id="xtick_6">
     <g id="line2d_6">
      <g>
       <use xlink:href="#me9053b3d82" x="594" y="198.907885" style="stroke: #000000; stroke-width: 2"/>
      </g>
     </g>
     <g id="text_6">
      <!-- 5 -->
      <g transform="translate(588.995156 224.791947) scale(0.18 -0.18)">
       <defs>
        <path id="Arial-BoldMT-35" d="M 284 1178 
L 1159 1269 
Q 1197 972 1381 798 
Q 1566 625 1806 625 
Q 2081 625 2272 848 
Q 2463 1072 2463 1522 
Q 2463 1944 2273 2155 
Q 2084 2366 1781 2366 
Q 1403 2366 1103 2031 
L 391 2134 
L 841 4519 
L 3163 4519 
L 3163 3697 
L 1506 3697 
L 1369 2919 
Q 1663 3066 1969 3066 
Q 2553 3066 2959 2641 
Q 3366 2216 3366 1538 
Q 3366 972 3038 528 
Q 2591 -78 1797 -78 
Q 1163 -78 763 262 
Q 363 603 284 1178 
z
" transform="scale(0.015625)"/>
       </defs>
       <use xlink:href="#Arial-BoldMT-35"/>
      </g>
     </g>
    </g>
    <g id="xtick_7">
     <g id="line2d_7">
      <g>
       <use xlink:href="#me9053b3d82" x="486.545498" y="198.907885" style="stroke: #000000; stroke-width: 2"/>
      </g>
     </g>
     <g id="text_7">
      <!-- 6 -->
      <g transform="translate(481.540654 224.791947) scale(0.18 -0.18)">
       <defs>
        <path id="Arial-BoldMT-36" d="M 3247 3459 
L 2397 3366 
Q 2366 3628 2234 3753 
Q 2103 3878 1894 3878 
Q 1616 3878 1423 3628 
Q 1231 3378 1181 2588 
Q 1509 2975 1997 2975 
Q 2547 2975 2939 2556 
Q 3331 2138 3331 1475 
Q 3331 772 2918 347 
Q 2506 -78 1859 -78 
Q 1166 -78 719 461 
Q 272 1000 272 2228 
Q 272 3488 737 4044 
Q 1203 4600 1947 4600 
Q 2469 4600 2811 4308 
Q 3153 4016 3247 3459 
z
M 1256 1544 
Q 1256 1116 1453 883 
Q 1650 650 1903 650 
Q 2147 650 2309 840 
Q 2472 1031 2472 1466 
Q 2472 1913 2297 2120 
Q 2122 2328 1859 2328 
Q 1606 2328 1431 2129 
Q 1256 1931 1256 1544 
z
" transform="scale(0.015625)"/>
       </defs>
       <use xlink:href="#Arial-BoldMT-36"/>
      </g>
     </g>
    </g>
    <g id="xtick_8">
     <g id="line2d_8">
      <g>
       <use xlink:href="#me9053b3d82" x="379.090996" y="198.907885" style="stroke: #000000; stroke-width: 2"/>
      </g>
     </g>
     <g id="text_8">
      <!-- 7 -->
      <g transform="translate(374.086153 224.791947) scale(0.18 -0.18)">
       <defs>
        <path id="Arial-BoldMT-37" d="M 272 3703 
L 272 4519 
L 3275 4519 
L 3275 3881 
Q 2903 3516 2518 2831 
Q 2134 2147 1932 1376 
Q 1731 606 1734 0 
L 888 0 
Q 909 950 1279 1937 
Q 1650 2925 2269 3703 
L 272 3703 
z
" transform="scale(0.015625)"/>
       </defs>
       <use xlink:href="#Arial-BoldMT-37"/>
      </g>
     </g>
    </g>
    <g id="xtick_9">
     <g id="line2d_9">
      <g>
       <use xlink:href="#me9053b3d82" x="271.636495" y="198.907885" style="stroke: #000000; stroke-width: 2"/>
      </g>
     </g>
     <g id="text_9">
      <!-- 8 -->
      <g transform="translate(266.631651 224.791947) scale(0.18 -0.18)">
       <defs>
        <path id="Arial-BoldMT-38" d="M 1025 2472 
Q 684 2616 529 2867 
Q 375 3119 375 3419 
Q 375 3931 733 4265 
Q 1091 4600 1750 4600 
Q 2403 4600 2764 4265 
Q 3125 3931 3125 3419 
Q 3125 3100 2959 2851 
Q 2794 2603 2494 2472 
Q 2875 2319 3073 2025 
Q 3272 1731 3272 1347 
Q 3272 713 2867 316 
Q 2463 -81 1791 -81 
Q 1166 -81 750 247 
Q 259 634 259 1309 
Q 259 1681 443 1992 
Q 628 2303 1025 2472 
z
M 1206 3356 
Q 1206 3094 1354 2947 
Q 1503 2800 1750 2800 
Q 2000 2800 2150 2948 
Q 2300 3097 2300 3359 
Q 2300 3606 2151 3754 
Q 2003 3903 1759 3903 
Q 1506 3903 1356 3753 
Q 1206 3603 1206 3356 
z
M 1125 1394 
Q 1125 1031 1311 828 
Q 1497 625 1775 625 
Q 2047 625 2225 820 
Q 2403 1016 2403 1384 
Q 2403 1706 2222 1901 
Q 2041 2097 1763 2097 
Q 1441 2097 1283 1875 
Q 1125 1653 1125 1394 
z
" transform="scale(0.015625)"/>
       </defs>
       <use xlink:href="#Arial-BoldMT-38"/>
      </g>
     </g>
    </g>
    <g id="xtick_10">
     <g id="line2d_10">
      <g>
       <use xlink:href="#me9053b3d82" x="164.181993" y="198.907885" style="stroke: #000000; stroke-width: 2"/>
      </g>
     </g>
     <g id="text_10">
      <!-- 9 -->
      <g transform="translate(159.177149 224.791947) scale(0.18 -0.18)">
       <defs>
        <path id="Arial-BoldMT-39" d="M 291 1059 
L 1141 1153 
Q 1172 894 1303 769 
Q 1434 644 1650 644 
Q 1922 644 2112 894 
Q 2303 1144 2356 1931 
Q 2025 1547 1528 1547 
Q 988 1547 595 1964 
Q 203 2381 203 3050 
Q 203 3747 617 4173 
Q 1031 4600 1672 4600 
Q 2369 4600 2816 4061 
Q 3263 3522 3263 2288 
Q 3263 1031 2797 475 
Q 2331 -81 1584 -81 
Q 1047 -81 715 205 
Q 384 491 291 1059 
z
M 2278 2978 
Q 2278 3403 2083 3637 
Q 1888 3872 1631 3872 
Q 1388 3872 1227 3680 
Q 1066 3488 1066 3050 
Q 1066 2606 1241 2398 
Q 1416 2191 1678 2191 
Q 1931 2191 2104 2391 
Q 2278 2591 2278 2978 
z
" transform="scale(0.015625)"/>
       </defs>
       <use xlink:href="#Arial-BoldMT-39"/>
      </g>
     </g>
    </g>
    <g id="xtick_11">
     <g id="line2d_11">
      <g>
       <use xlink:href="#me9053b3d82" x="56.727491" y="198.907885" style="stroke: #000000; stroke-width: 2"/>
      </g>
     </g>
     <g id="text_11">
      <!-- 10 -->
      <g transform="translate(46.717803 224.791947) scale(0.18 -0.18)">
       <use xlink:href="#Arial-BoldMT-31"/>
       <use xlink:href="#Arial-BoldMT-30" x="55.615234"/>
      </g>
     </g>
    </g>
    <g id="text_12">
     <!-- Chemical Shift / ppm -->
     <g transform="translate(504.992813 245.447573) scale(0.18 -0.18)">
      <defs>
       <path id="Arial-BoldMT-43" d="M 3397 1684 
L 4294 1400 
Q 4088 650 3608 286 
Q 3128 -78 2391 -78 
Q 1478 -78 890 545 
Q 303 1169 303 2250 
Q 303 3394 893 4026 
Q 1484 4659 2447 4659 
Q 3288 4659 3813 4163 
Q 4125 3869 4281 3319 
L 3366 3100 
Q 3284 3456 3026 3662 
Q 2769 3869 2400 3869 
Q 1891 3869 1573 3503 
Q 1256 3138 1256 2319 
Q 1256 1450 1568 1081 
Q 1881 713 2381 713 
Q 2750 713 3015 947 
Q 3281 1181 3397 1684 
z
" transform="scale(0.015625)"/>
       <path id="Arial-BoldMT-68" d="M 1334 4581 
L 1334 2897 
Q 1759 3394 2350 3394 
Q 2653 3394 2897 3281 
Q 3141 3169 3264 2994 
Q 3388 2819 3433 2606 
Q 3478 2394 3478 1947 
L 3478 0 
L 2600 0 
L 2600 1753 
Q 2600 2275 2550 2415 
Q 2500 2556 2373 2639 
Q 2247 2722 2056 2722 
Q 1838 2722 1666 2615 
Q 1494 2509 1414 2295 
Q 1334 2081 1334 1663 
L 1334 0 
L 456 0 
L 456 4581 
L 1334 4581 
z
" transform="scale(0.015625)"/>
       <path id="Arial-BoldMT-65" d="M 2381 1056 
L 3256 909 
Q 3088 428 2723 176 
Q 2359 -75 1813 -75 
Q 947 -75 531 491 
Q 203 944 203 1634 
Q 203 2459 634 2926 
Q 1066 3394 1725 3394 
Q 2466 3394 2894 2905 
Q 3322 2416 3303 1406 
L 1103 1406 
Q 1113 1016 1316 798 
Q 1519 581 1822 581 
Q 2028 581 2168 693 
Q 2309 806 2381 1056 
z
M 2431 1944 
Q 2422 2325 2234 2523 
Q 2047 2722 1778 2722 
Q 1491 2722 1303 2513 
Q 1116 2303 1119 1944 
L 2431 1944 
z
" transform="scale(0.015625)"/>
       <path id="Arial-BoldMT-6d" d="M 394 3319 
L 1203 3319 
L 1203 2866 
Q 1638 3394 2238 3394 
Q 2556 3394 2790 3262 
Q 3025 3131 3175 2866 
Q 3394 3131 3647 3262 
Q 3900 3394 4188 3394 
Q 4553 3394 4806 3245 
Q 5059 3097 5184 2809 
Q 5275 2597 5275 2122 
L 5275 0 
L 4397 0 
L 4397 1897 
Q 4397 2391 4306 2534 
Q 4184 2722 3931 2722 
Q 3747 2722 3584 2609 
Q 3422 2497 3350 2280 
Q 3278 2063 3278 1594 
L 3278 0 
L 2400 0 
L 2400 1819 
Q 2400 2303 2353 2443 
Q 2306 2584 2207 2653 
Q 2109 2722 1941 2722 
Q 1738 2722 1575 2612 
Q 1413 2503 1342 2297 
Q 1272 2091 1272 1613 
L 1272 0 
L 394 0 
L 394 3319 
z
" transform="scale(0.015625)"/>
       <path id="Arial-BoldMT-69" d="M 459 3769 
L 459 4581 
L 1338 4581 
L 1338 3769 
L 459 3769 
z
M 459 0 
L 459 3319 
L 1338 3319 
L 1338 0 
L 459 0 
z
" transform="scale(0.015625)"/>
       <path id="Arial-BoldMT-63" d="M 3353 2338 
L 2488 2181 
Q 2444 2441 2289 2572 
Q 2134 2703 1888 2703 
Q 1559 2703 1364 2476 
Q 1169 2250 1169 1719 
Q 1169 1128 1367 884 
Q 1566 641 1900 641 
Q 2150 641 2309 783 
Q 2469 925 2534 1272 
L 3397 1125 
Q 3263 531 2881 228 
Q 2500 -75 1859 -75 
Q 1131 -75 698 384 
Q 266 844 266 1656 
Q 266 2478 700 2936 
Q 1134 3394 1875 3394 
Q 2481 3394 2839 3133 
Q 3197 2872 3353 2338 
z
" transform="scale(0.015625)"/>
       <path id="Arial-BoldMT-61" d="M 1116 2306 
L 319 2450 
Q 453 2931 781 3162 
Q 1109 3394 1756 3394 
Q 2344 3394 2631 3255 
Q 2919 3116 3036 2902 
Q 3153 2688 3153 2116 
L 3144 1091 
Q 3144 653 3186 445 
Q 3228 238 3344 0 
L 2475 0 
Q 2441 88 2391 259 
Q 2369 338 2359 363 
Q 2134 144 1878 34 
Q 1622 -75 1331 -75 
Q 819 -75 523 203 
Q 228 481 228 906 
Q 228 1188 362 1408 
Q 497 1628 739 1745 
Q 981 1863 1438 1950 
Q 2053 2066 2291 2166 
L 2291 2253 
Q 2291 2506 2166 2614 
Q 2041 2722 1694 2722 
Q 1459 2722 1328 2630 
Q 1197 2538 1116 2306 
z
M 2291 1594 
Q 2122 1538 1756 1459 
Q 1391 1381 1278 1306 
Q 1106 1184 1106 997 
Q 1106 813 1243 678 
Q 1381 544 1594 544 
Q 1831 544 2047 700 
Q 2206 819 2256 991 
Q 2291 1103 2291 1419 
L 2291 1594 
z
" transform="scale(0.015625)"/>
       <path id="Arial-BoldMT-6c" d="M 459 0 
L 459 4581 
L 1338 4581 
L 1338 0 
L 459 0 
z
" transform="scale(0.015625)"/>
       <path id="Arial-BoldMT-20" transform="scale(0.015625)"/>
       <path id="Arial-BoldMT-53" d="M 231 1491 
L 1131 1578 
Q 1213 1125 1461 912 
Q 1709 700 2131 700 
Q 2578 700 2804 889 
Q 3031 1078 3031 1331 
Q 3031 1494 2936 1608 
Q 2841 1722 2603 1806 
Q 2441 1863 1863 2006 
Q 1119 2191 819 2459 
Q 397 2838 397 3381 
Q 397 3731 595 4036 
Q 794 4341 1167 4500 
Q 1541 4659 2069 4659 
Q 2931 4659 3367 4281 
Q 3803 3903 3825 3272 
L 2900 3231 
Q 2841 3584 2645 3739 
Q 2450 3894 2059 3894 
Q 1656 3894 1428 3728 
Q 1281 3622 1281 3444 
Q 1281 3281 1419 3166 
Q 1594 3019 2269 2859 
Q 2944 2700 3267 2529 
Q 3591 2359 3773 2064 
Q 3956 1769 3956 1334 
Q 3956 941 3737 597 
Q 3519 253 3119 86 
Q 2719 -81 2122 -81 
Q 1253 -81 787 320 
Q 322 722 231 1491 
z
" transform="scale(0.015625)"/>
       <path id="Arial-BoldMT-66" d="M 75 3319 
L 563 3319 
L 563 3569 
Q 563 3988 652 4194 
Q 741 4400 980 4529 
Q 1219 4659 1584 4659 
Q 1959 4659 2319 4547 
L 2200 3934 
Q 1991 3984 1797 3984 
Q 1606 3984 1523 3895 
Q 1441 3806 1441 3553 
L 1441 3319 
L 2097 3319 
L 2097 2628 
L 1441 2628 
L 1441 0 
L 563 0 
L 563 2628 
L 75 2628 
L 75 3319 
z
" transform="scale(0.015625)"/>
       <path id="Arial-BoldMT-74" d="M 1981 3319 
L 1981 2619 
L 1381 2619 
L 1381 1281 
Q 1381 875 1398 808 
Q 1416 741 1477 697 
Q 1538 653 1625 653 
Q 1747 653 1978 738 
L 2053 56 
Q 1747 -75 1359 -75 
Q 1122 -75 931 4 
Q 741 84 652 211 
Q 563 338 528 553 
Q 500 706 500 1172 
L 500 2619 
L 97 2619 
L 97 3319 
L 500 3319 
L 500 3978 
L 1381 4491 
L 1381 3319 
L 1981 3319 
z
" transform="scale(0.015625)"/>
       <path id="Arial-BoldMT-2f" d="M -9 -78 
L 1125 4659 
L 1784 4659 
L 638 -78 
L -9 -78 
z
" transform="scale(0.015625)"/>
       <path id="Arial-BoldMT-70" d="M 434 3319 
L 1253 3319 
L 1253 2831 
Q 1413 3081 1684 3237 
Q 1956 3394 2288 3394 
Q 2866 3394 3269 2941 
Q 3672 2488 3672 1678 
Q 3672 847 3265 386 
Q 2859 -75 2281 -75 
Q 2006 -75 1782 34 
Q 1559 144 1313 409 
L 1313 -1263 
L 434 -1263 
L 434 3319 
z
M 1303 1716 
Q 1303 1156 1525 889 
Q 1747 622 2066 622 
Q 2372 622 2575 867 
Q 2778 1113 2778 1672 
Q 2778 2194 2568 2447 
Q 2359 2700 2050 2700 
Q 1728 2700 1515 2451 
Q 1303 2203 1303 1716 
z
" transform="scale(0.015625)"/>
      </defs>
      <use xlink:href="#Arial-BoldMT-43"/>
      <use xlink:href="#Arial-BoldMT-68" x="72.216797"/>
      <use xlink:href="#Arial-BoldMT-65" x="133.300781"/>
      <use xlink:href="#Arial-BoldMT-6d" x="188.916016"/>
      <use xlink:href="#Arial-BoldMT-69" x="277.832031"/>
      <use xlink:href="#Arial-BoldMT-63" x="305.615234"/>
      <use xlink:href="#Arial-BoldMT-61" x="361.230469"/>
      <use xlink:href="#Arial-BoldMT-6c" x="416.845703"/>
      <use xlink:href="#Arial-BoldMT-20" x="444.628906"/>
      <use xlink:href="#Arial-BoldMT-53" x="472.412109"/>
      <use xlink:href="#Arial-BoldMT-68" x="539.111328"/>
      <use xlink:href="#Arial-BoldMT-69" x="600.195312"/>
      <use xlink:href="#Arial-BoldMT-66" x="627.978516"/>
      <use xlink:href="#Arial-BoldMT-74" x="661.279297"/>
      <use xlink:href="#Arial-BoldMT-20" x="694.580078"/>
      <use xlink:href="#Arial-BoldMT-2f" x="722.363281"/>
      <use xlink:href="#Arial-BoldMT-20" x="750.146484"/>
      <use xlink:href="#Arial-BoldMT-70" x="777.929688"/>
      <use xlink:href="#Arial-BoldMT-70" x="839.013672"/>
      <use xlink:href="#Arial-BoldMT-6d" x="900.097656"/>
     </g>
    </g>
   </g>
   <g id="matplotlib.axis_2"/>
   <g id="line2d_12">
    <path d="M 3.026037 188.539011 
L 3.639896 188.343381 
L 4.049136 188.508958 
L 5.276854 189.487436 
L 5.686094 189.47219 
L 6.709192 189.001207 
L 7.118432 189.138979 
L 7.732291 189.456819 
L 8.34615 189.44103 
L 9.164629 189.456051 
L 11.210826 189.873592 
L 11.824685 190.145726 
L 13.257023 190.225493 
L 13.870883 190.235432 
L 14.893981 189.972547 
L 15.50784 190.397576 
L 16.1217 190.702868 
L 17.144798 190.887498 
L 18.372517 190.544169 
L 18.781756 190.609277 
L 20.009474 191.061196 
L 20.623334 190.568631 
L 21.237193 190.082277 
L 21.646432 189.987342 
L 22.260291 190.1304 
L 22.874151 190.285824 
L 25.124968 190.127193 
L 25.738827 190.065156 
L 26.966545 190.182464 
L 27.989644 190.364034 
L 28.603503 190.223777 
L 29.217362 190.014955 
L 29.831221 190.078076 
L 30.240461 190.247414 
L 31.05894 190.835841 
L 31.468179 190.762138 
L 32.286658 190.139774 
L 33.309757 189.742031 
L 33.923616 189.796331 
L 34.946714 189.705168 
L 36.788292 190.237374 
L 38.01601 191.149445 
L 38.42525 191.108776 
L 38.834489 190.799034 
L 39.652968 190.069572 
L 40.266827 189.921726 
L 41.494546 189.786935 
L 42.313025 189.673783 
L 43.540743 189.770875 
L 44.563842 189.308984 
L 44.973081 189.547067 
L 45.58694 190.000206 
L 46.200799 190.001087 
L 47.019278 189.964732 
L 48.042377 189.65848 
L 49.270095 189.472066 
L 50.497814 189.00804 
L 50.907053 189.056185 
L 51.520912 189.458626 
L 51.930152 189.65246 
L 52.544011 189.606698 
L 53.771729 189.269354 
L 54.180969 189.334372 
L 54.999448 189.854076 
L 55.613307 190.075433 
L 57.250265 190.229536 
L 57.864124 189.922482 
L 58.887223 189.106352 
L 59.705701 189.008819 
L 60.114941 189.190343 
L 60.93342 189.799087 
L 61.342659 189.870192 
L 63.184237 189.664127 
L 63.798096 189.811262 
L 64.821195 189.619844 
L 65.435054 189.842206 
L 65.844293 189.824362 
L 66.662772 189.583309 
L 67.685871 189.694112 
L 68.50435 189.501474 
L 70.141307 189.701701 
L 70.755167 189.806868 
L 71.369026 189.970549 
L 72.187505 190.067991 
L 73.005984 190.405448 
L 74.029082 190.883873 
L 74.642941 190.880914 
L 75.052181 190.680145 
L 76.07528 190.025538 
L 76.484519 189.934047 
L 77.507618 190.015193 
L 78.530716 189.991882 
L 79.349195 189.681497 
L 80.781533 189.685404 
L 81.600012 189.992763 
L 82.418491 189.870734 
L 83.44159 189.660874 
L 85.283167 188.938956 
L 86.101646 188.272535 
L 87.533984 186.869492 
L 87.943224 186.48302 
L 88.352463 186.418296 
L 88.761703 186.517941 
L 89.170942 186.845527 
L 91.421759 189.274403 
L 91.830999 189.316472 
L 93.058717 188.894007 
L 93.672576 189.051916 
L 94.286435 189.528365 
L 94.900294 189.98418 
L 95.514154 189.944065 
L 96.741872 189.960418 
L 97.96959 190.072825 
L 98.58345 190.149396 
L 102.471224 189.150318 
L 103.289703 188.966648 
L 104.517422 188.975356 
L 105.131281 189.05841 
L 106.154379 189.049206 
L 106.972858 188.906204 
L 107.382098 189.068868 
L 108.609816 190.289721 
L 109.223675 190.300631 
L 110.656013 190.308446 
L 111.269873 190.553497 
L 112.088351 190.453333 
L 112.90683 190.295142 
L 113.929929 190.049379 
L 114.953028 190.05917 
L 116.794605 189.487685 
L 117.408464 189.720573 
L 118.226943 190.177822 
L 119.045422 190.722982 
L 119.454662 190.690863 
L 120.887 189.86397 
L 121.910098 189.814966 
L 122.933197 190.073638 
L 123.751676 190.291788 
L 124.774775 190.568371 
L 125.593253 190.301805 
L 126.207113 190.288614 
L 126.616352 190.05864 
L 128.04869 188.677642 
L 128.45793 188.529073 
L 128.867169 188.701607 
L 129.481028 189.038477 
L 131.527226 189.338675 
L 132.754944 189.057755 
L 135.005761 190.047256 
L 135.61962 190.387084 
L 136.233479 190.241982 
L 137.256578 190.132173 
L 138.688916 189.944257 
L 140.735113 189.116799 
L 141.758212 189.198701 
L 143.599789 189.623865 
L 144.622888 189.705993 
L 145.032127 189.462105 
L 146.055226 188.688574 
L 146.464466 188.709998 
L 147.078325 189.188119 
L 147.896804 189.724571 
L 148.510663 189.830506 
L 148.919902 189.808145 
L 150.147621 189.355492 
L 150.55686 189.610775 
L 151.784578 190.894681 
L 152.193818 190.959868 
L 153.421536 190.338476 
L 154.240015 190.369263 
L 155.058494 190.324415 
L 155.876973 190.003549 
L 156.695452 189.783942 
L 157.309311 189.900629 
L 158.12779 190.211274 
L 158.946269 190.130761 
L 160.787846 189.403196 
L 161.401706 189.568379 
L 162.220185 190.019992 
L 162.834044 190.000759 
L 163.652523 189.954094 
L 166.312579 190.451436 
L 167.540297 189.659903 
L 167.949537 189.728964 
L 168.768016 190.080064 
L 169.995734 190.308005 
L 171.223453 189.696698 
L 171.632692 189.794603 
L 172.86041 190.474622 
L 173.26965 190.381652 
L 173.883509 190.112206 
L 174.906608 190.042038 
L 176.134326 189.691119 
L 177.771284 189.838841 
L 178.385143 189.740258 
L 178.999002 189.951733 
L 179.612861 190.19945 
L 180.022101 190.140926 
L 180.43134 189.979979 
L 180.84058 190.103464 
L 181.454439 190.388699 
L 182.068298 190.393759 
L 183.296016 189.830111 
L 184.523735 190.021653 
L 185.342214 190.086445 
L 186.365312 190.341548 
L 186.774552 190.044342 
L 187.388411 189.533052 
L 187.79765 189.421526 
L 189.229988 189.453962 
L 189.843848 189.478842 
L 190.253087 189.47359 
L 191.480805 188.98255 
L 192.503904 189.226664 
L 193.322383 189.004031 
L 193.731622 189.2502 
L 194.345482 189.691232 
L 194.754721 189.72919 
L 195.982439 189.523847 
L 196.800918 189.737525 
L 197.210158 189.43762 
L 197.824017 188.815177 
L 198.642496 188.397602 
L 199.256355 188.212916 
L 200.688693 188.005924 
L 201.097933 187.670941 
L 202.93951 185.393231 
L 203.553369 184.194322 
L 204.371848 182.045588 
L 205.190327 178.969468 
L 205.804186 175.495503 
L 206.418046 170.608433 
L 207.441144 159.999663 
L 208.055003 154.151586 
L 208.464243 152.120227 
L 208.668863 151.934693 
L 208.873482 152.337631 
L 209.282722 154.787254 
L 209.896581 161.009707 
L 210.91968 171.717839 
L 211.533539 176.075188 
L 212.352018 179.962898 
L 212.965877 182.0388 
L 214.398215 185.688845 
L 215.012074 186.266712 
L 215.625933 186.558395 
L 216.239792 186.699939 
L 217.262891 187.322495 
L 217.87675 187.482652 
L 218.695229 187.778344 
L 219.309088 187.868163 
L 219.922947 188.311838 
L 220.741426 188.94222 
L 221.355286 189.112157 
L 221.969145 189.167033 
L 223.196863 188.913669 
L 224.015342 189.171664 
L 226.470779 188.549718 
L 227.289258 188.628841 
L 228.107737 188.899134 
L 228.721596 188.78448 
L 229.335455 188.694413 
L 229.949314 188.853993 
L 230.563173 189.300988 
L 231.177032 189.695399 
L 231.790892 189.827242 
L 232.404751 189.949994 
L 233.01861 190.082356 
L 234.450948 190.135686 
L 234.860188 189.86598 
L 235.474047 189.406302 
L 235.883286 189.358733 
L 236.497145 189.627467 
L 237.315624 189.969927 
L 238.747962 190.175948 
L 239.361822 190.233478 
L 242.021878 189.860164 
L 244.272695 189.780678 
L 245.091174 189.446655 
L 245.705033 189.422362 
L 246.523512 189.581524 
L 247.137371 189.296832 
L 247.75123 189.086678 
L 248.16047 189.125653 
L 248.978949 189.289762 
L 249.797428 189.349822 
L 250.615907 189.511232 
L 253.685202 189.493309 
L 255.11754 189.283449 
L 256.345259 189.933663 
L 258.391456 190.054721 
L 259.619174 189.868815 
L 262.074611 189.111773 
L 262.483851 189.275035 
L 263.30233 189.757108 
L 265.348527 189.262499 
L 266.167006 188.32932 
L 266.780865 187.848467 
L 267.599344 187.621068 
L 268.213203 187.850387 
L 268.827062 188.001373 
L 270.2594 187.901457 
L 271.077879 188.002186 
L 271.691738 187.788949 
L 272.510217 187.167703 
L 273.124076 186.513141 
L 273.737936 185.477404 
L 274.556415 184.036651 
L 275.579513 182.841502 
L 275.988753 182.605362 
L 276.807232 182.3528 
L 277.421091 181.666954 
L 278.03495 180.603705 
L 278.648809 178.98494 
L 280.695006 172.161209 
L 281.104246 171.688893 
L 281.718105 171.234287 
L 282.127344 170.57672 
L 283.355063 167.919632 
L 283.764302 167.78719 
L 284.582781 168.077902 
L 284.992021 167.897327 
L 285.60588 167.322871 
L 286.628978 166.092181 
L 287.038218 166.066691 
L 287.652077 166.574378 
L 288.061317 166.859523 
L 288.265936 166.868219 
L 288.470556 166.726042 
L 288.879795 166.017801 
L 289.698274 164.386861 
L 290.107514 164.01445 
L 290.516753 163.918928 
L 290.925993 164.151082 
L 291.744472 164.908564 
L 291.949091 164.915182 
L 292.358331 164.584016 
L 292.76757 164.231629 
L 292.97219 164.252488 
L 293.17681 164.445927 
L 293.586049 165.322479 
L 294.199908 167.627847 
L 295.427627 172.953442 
L 296.041486 174.368897 
L 296.655345 175.673944 
L 297.473824 177.501101 
L 298.087683 178.143704 
L 298.906162 178.794528 
L 299.315401 179.507806 
L 301.156979 184.031218 
L 302.384697 185.934563 
L 302.793937 185.977919 
L 303.612416 185.688935 
L 304.430895 185.684508 
L 305.453993 185.199262 
L 306.681712 185.939487 
L 308.11405 186.241018 
L 309.341768 186.670259 
L 310.364867 186.411147 
L 310.774106 186.043208 
L 311.387965 185.353726 
L 312.001825 185.202356 
L 313.024923 185.036541 
L 313.638782 184.93247 
L 314.866501 184.340554 
L 316.298839 182.811438 
L 317.321937 181.70804 
L 318.345036 180.170963 
L 319.572754 178.533417 
L 320.595853 176.523041 
L 321.414332 174.437924 
L 322.232811 171.521419 
L 323.665149 166.142788 
L 324.688248 163.195857 
L 325.097487 161.097267 
L 325.711346 156.596736 
L 326.529825 148.231703 
L 327.143684 139.689133 
L 327.757544 126.969993 
L 328.371403 108.446934 
L 329.599121 66.390769 
L 329.803741 63.657741 
L 330.008361 63.213491 
L 330.21298 64.933199 
L 330.62222 73.097214 
L 331.645318 98.392392 
L 332.259177 107.323196 
L 332.668417 110.460901 
L 332.873037 111.286111 
L 333.077656 111.641536 
L 333.282276 111.559182 
L 333.486896 111.082971 
L 333.896135 109.079632 
L 334.509994 103.991657 
L 335.328473 97.239245 
L 335.942333 93.334086 
L 336.351572 91.799392 
L 336.556192 91.571665 
L 336.760811 91.700978 
L 337.57929 93.071654 
L 337.78391 93.055154 
L 337.98853 92.774945 
L 338.397769 91.400667 
L 339.011628 89.008552 
L 339.216248 88.69392 
L 339.420868 88.642556 
L 339.830107 88.684896 
L 340.034727 88.383376 
L 340.239347 87.657516 
L 340.648586 84.624911 
L 341.057826 79.375549 
L 341.876305 64.553594 
L 342.694784 51.119187 
L 343.922502 33.17875 
L 344.127122 31.67823 
L 344.331741 31.004796 
L 344.536361 31.010974 
L 345.15022 32.2597 
L 345.35484 31.913976 
L 345.55946 30.666041 
L 345.968699 24.995897 
L 346.991798 3.857175 
L 347.196418 3.00024 
L 347.401037 4.578189 
L 347.605657 8.670124 
L 348.014896 23.168457 
L 349.651854 95.284797 
L 350.470333 117.507672 
L 351.084192 129.068312 
L 351.902671 140.359202 
L 352.72115 148.925715 
L 353.539629 154.895493 
L 354.153488 158.066356 
L 354.971967 161.10428 
L 355.585826 162.575391 
L 356.813545 164.733319 
L 357.222784 165.399807 
L 357.836643 166.980603 
L 358.655122 169.962488 
L 359.268981 171.801627 
L 361.519798 176.309352 
L 362.338277 177.624214 
L 362.952137 178.167703 
L 363.770615 178.862121 
L 364.589094 179.519755 
L 366.021432 180.529573 
L 367.453771 180.933313 
L 367.86301 181.331598 
L 368.476869 182.026343 
L 368.886109 182.225711 
L 369.295348 182.200684 
L 370.318447 181.83662 
L 372.160024 182.28838 
L 372.978503 182.718005 
L 373.592362 183.103765 
L 374.206221 183.438478 
L 375.0247 183.674641 
L 375.63856 183.481642 
L 377.275517 182.546476 
L 377.889377 182.269079 
L 379.321715 182.016721 
L 379.935574 181.649437 
L 380.344813 181.200748 
L 380.958672 180.09682 
L 381.572532 178.384023 
L 382.186391 175.87608 
L 382.80025 172.526798 
L 384.232588 163.379866 
L 384.641828 162.197401 
L 385.051067 161.811347 
L 385.255687 161.847657 
L 385.664926 162.25527 
L 386.074166 163.097681 
L 386.688025 165.240148 
L 388.120363 170.964118 
L 389.348081 174.943951 
L 389.757321 175.576152 
L 389.96194 175.631491 
L 390.37118 175.367139 
L 390.985039 174.454142 
L 391.394279 173.499426 
L 392.008138 171.373617 
L 393.031236 166.705092 
L 393.645096 163.033171 
L 394.258955 157.793883 
L 395.691293 144.307955 
L 395.895913 143.590848 
L 396.100532 143.350133 
L 396.305152 143.52461 
L 396.714391 144.844881 
L 397.123631 147.251283 
L 397.73749 152.87309 
L 398.965208 164.943473 
L 399.783687 170.588138 
L 400.602166 174.718336 
L 401.829885 179.327807 
L 402.443744 180.895264 
L 404.080702 184.058752 
L 404.489941 184.587694 
L 404.899181 184.805754 
L 405.30842 184.736738 
L 406.126899 184.36217 
L 406.536138 184.606826 
L 406.945378 184.910989 
L 407.559237 185.001056 
L 408.377716 185.200944 
L 409.605434 185.529795 
L 411.037772 186.150284 
L 411.447012 185.966761 
L 412.47011 185.239908 
L 412.87935 185.269396 
L 413.902448 185.647013 
L 414.516308 185.541394 
L 415.539406 185.226287 
L 416.357885 185.18703 
L 416.767125 184.672431 
L 417.380984 183.362279 
L 418.199463 181.189556 
L 419.836421 175.624896 
L 420.45028 172.484865 
L 421.064139 167.828909 
L 421.677998 161.381383 
L 422.905716 146.770237 
L 423.314956 144.711254 
L 423.519576 144.467592 
L 423.724195 144.635857 
L 424.133435 145.949352 
L 424.542674 148.281271 
L 425.361153 154.683882 
L 426.384252 162.87568 
L 427.202731 167.72015 
L 428.430449 173.743167 
L 429.044308 175.650849 
L 429.453548 176.323684 
L 429.862787 176.583497 
L 430.272027 176.507625 
L 430.681266 176.010893 
L 431.295125 174.537354 
L 432.522844 170.642438 
L 433.341323 167.040889 
L 434.159801 163.353111 
L 434.569041 162.446292 
L 434.773661 162.392624 
L 434.97828 162.631668 
L 435.38752 163.845767 
L 436.001379 166.794922 
L 437.842957 177.039583 
L 438.866055 180.204923 
L 439.684534 182.110843 
L 441.321492 184.956345 
L 441.935351 185.7005 
L 443.776929 187.288862 
L 444.186168 187.492601 
L 446.027746 188.979004 
L 446.436985 189.046823 
L 446.846224 188.866575 
L 447.460084 188.419681 
L 448.073943 188.349672 
L 450.938619 188.730383 
L 452.166337 188.681628 
L 452.984816 188.919192 
L 453.598675 189.118459 
L 454.417154 189.593157 
L 455.644873 190.538138 
L 456.054112 190.639646 
L 457.281831 190.482279 
L 457.89569 190.598503 
L 458.304929 190.475966 
L 459.328028 189.977618 
L 461.783465 189.670711 
L 462.601943 189.419595 
L 463.215803 189.496133 
L 464.238901 189.991205 
L 465.46662 190.393905 
L 466.080479 190.592562 
L 466.694338 190.491608 
L 467.308197 190.352232 
L 467.922056 190.249944 
L 468.740535 189.918812 
L 469.354394 189.699544 
L 470.172873 189.361556 
L 470.786733 189.537377 
L 472.219071 190.219429 
L 472.83293 190.313957 
L 473.446789 190.143569 
L 474.674507 189.765375 
L 475.902226 190.01988 
L 476.925324 189.909551 
L 477.948423 189.957662 
L 479.176141 190.13197 
L 479.585381 190.135392 
L 480.608479 189.767882 
L 481.222339 190.177156 
L 481.836198 190.644909 
L 482.245437 190.709114 
L 483.473156 190.573081 
L 484.087015 190.752798 
L 485.314733 190.55946 
L 486.133212 190.26684 
L 487.36093 190.273345 
L 487.97479 190.050045 
L 489.611747 190.187501 
L 490.430226 190.452588 
L 491.248705 190.599011 
L 492.681043 190.384893 
L 493.499522 190.434122 
L 494.93186 191.122329 
L 495.3411 190.990926 
L 496.159579 190.602094 
L 496.978058 190.547749 
L 497.591917 190.53685 
L 498.615015 190.155472 
L 500.865832 190.372301 
L 502.70741 189.885913 
L 503.730509 190.132828 
L 504.344368 190.431909 
L 504.958227 190.735665 
L 505.572086 190.770608 
L 506.390565 190.599327 
L 507.004424 190.481059 
L 507.822903 190.570483 
L 508.436762 190.388654 
L 508.846002 190.325386 
L 509.255241 190.454519 
L 509.664481 190.768078 
L 510.27834 191.322849 
L 510.687579 191.408038 
L 511.301438 191.155657 
L 512.324537 190.707126 
L 512.938396 190.745988 
L 514.984594 191.241252 
L 515.393833 191.069576 
L 516.007692 190.667846 
L 517.64465 190.548347 
L 518.463129 190.867373 
L 519.076988 190.872308 
L 520.100087 190.519503 
L 521.327805 190.536828 
L 522.555523 190.389162 
L 523.783242 190.668998 
L 525.01096 190.550166 
L 526.238678 191.540988 
L 526.443298 191.495383 
L 526.852538 191.070728 
L 527.261777 190.599327 
L 527.671017 190.44135 
L 529.512594 190.531746 
L 531.149552 190.383583 
L 532.58189 190.410959 
L 533.604989 190.201076 
L 534.832707 190.175835 
L 535.446566 190.289958 
L 536.469665 190.076698 
L 537.083524 190.006033 
L 537.492763 189.921342 
L 538.720482 190.012923 
L 539.538961 189.784529 
L 540.562059 189.428054 
L 541.380538 189.464872 
L 542.812876 189.028922 
L 544.654454 189.114099 
L 545.268313 189.301191 
L 546.496031 189.524457 
L 547.109891 189.623492 
L 547.72375 189.642782 
L 548.542229 189.48005 
L 549.565327 189.575697 
L 550.383806 189.283641 
L 551.202285 189.382834 
L 551.816144 189.282421 
L 552.225384 189.464171 
L 553.248482 190.135279 
L 554.476201 190.296949 
L 555.29468 190.197101 
L 556.317778 190.058899 
L 556.727018 190.059679 
L 557.340877 190.131394 
L 558.773215 189.746086 
L 559.387074 189.633148 
L 560.205553 189.617676 
L 561.637891 189.178688 
L 562.047131 189.306398 
L 562.86561 189.741523 
L 563.479469 189.685958 
L 564.297948 189.590051 
L 564.911807 189.538507 
L 566.139525 189.257157 
L 566.958004 189.242408 
L 567.571863 189.60104 
L 568.390342 190.111539 
L 569.004201 190.161232 
L 569.413441 190.052112 
L 570.23192 189.473071 
L 570.845779 189.112371 
L 572.482737 189.019221 
L 574.119695 189.390118 
L 574.528934 189.53094 
L 574.938173 189.319024 
L 575.552033 188.859087 
L 576.165892 188.781273 
L 578.212089 189.201502 
L 579.235188 190.060887 
L 580.258286 190.041676 
L 581.690624 189.447389 
L 584.146061 188.341224 
L 585.37378 188.6558 
L 586.192258 188.741959 
L 587.010737 188.903799 
L 587.829216 188.976282 
L 588.852315 188.703064 
L 589.261554 188.938109 
L 589.875414 189.338506 
L 590.284653 189.2378 
L 590.898512 188.868043 
L 591.921611 188.882917 
L 592.53547 189.041243 
L 593.763188 189.71452 
L 594.377048 189.588549 
L 596.014005 189.07657 
L 596.627865 188.957162 
L 597.037104 188.631631 
L 597.650963 188.05669 
L 598.060203 187.890581 
L 598.469442 187.976854 
L 599.287921 188.340569 
L 599.69716 188.250919 
L 600.31102 188.10689 
L 602.152597 188.521901 
L 602.971076 188.573355 
L 603.789555 188.763598 
L 604.812654 188.433098 
L 605.221893 188.654456 
L 605.835752 189.072527 
L 606.244992 189.074232 
L 606.654231 188.853655 
L 607.47271 188.276748 
L 608.905048 188.178696 
L 609.723527 188.355364 
L 610.337386 188.554755 
L 610.746626 188.434804 
L 611.565105 187.764746 
L 613.611302 185.71028 
L 614.429781 184.235443 
L 614.83902 183.073893 
L 615.452879 180.439641 
L 616.271358 176.843862 
L 616.475978 176.384941 
L 616.680598 176.234373 
L 616.885217 176.385438 
L 617.294457 177.362572 
L 619.136034 182.939746 
L 619.749894 183.912713 
L 621.182232 185.374631 
L 623.023809 186.319679 
L 623.842288 186.319329 
L 624.456147 186.210548 
L 624.865387 186.429759 
L 625.479246 186.993938 
L 625.888485 187.127283 
L 626.911584 187.140305 
L 628.343922 187.476779 
L 630.1855 187.189805 
L 631.208598 186.785399 
L 631.617838 186.886421 
L 632.436317 187.245201 
L 633.050176 187.224601 
L 633.664035 186.974095 
L 634.277894 186.783558 
L 635.914852 186.820398 
L 636.937951 187.27924 
L 638.370289 187.439837 
L 638.984148 187.301048 
L 640.211866 187.035645 
L 641.234965 187.087653 
L 642.462683 186.970571 
L 643.281162 186.735887 
L 643.895021 186.634797 
L 644.91812 186.743205 
L 645.327359 186.756046 
L 646.964317 186.256547 
L 648.396655 186.178225 
L 649.010515 186.003511 
L 650.442853 185.714222 
L 650.852092 185.614419 
L 651.261332 185.848166 
L 651.875191 186.415281 
L 652.28443 186.533526 
L 653.716768 186.568774 
L 654.535247 186.248946 
L 657.195304 185.584355 
L 658.423022 186.040475 
L 659.85536 185.578166 
L 660.469219 185.425701 
L 660.878459 185.656183 
L 661.287698 185.975966 
L 661.696938 186.003861 
L 663.333895 185.410782 
L 663.743135 185.353941 
L 664.152374 185.568002 
L 664.970853 186.279677 
L 665.380093 186.363612 
L 665.789332 186.153063 
L 666.812431 185.224898 
L 667.835529 185.08934 
L 668.858628 185.111995 
L 669.677107 184.592562 
L 671.109445 184.574244 
L 672.132544 184.89808 
L 673.564882 184.800514 
L 674.178741 184.89406 
L 674.58798 184.685295 
L 675.611079 183.762348 
L 676.838797 183.54177 
L 677.452657 183.304184 
L 677.861896 183.362765 
L 678.475755 183.534316 
L 678.884995 183.337862 
L 679.498854 182.487511 
L 680.112713 181.743977 
L 680.726572 180.979832 
L 681.340431 180.264475 
L 681.749671 180.180834 
L 682.15891 180.42715 
L 682.772769 180.930433 
L 683.182009 180.915559 
L 684.409727 180.477272 
L 685.228206 180.419662 
L 686.046685 180.056343 
L 686.660544 179.505581 
L 687.683643 177.965985 
L 688.297502 176.795006 
L 688.911361 174.971666 
L 690.957559 168.144976 
L 691.366798 167.784367 
L 691.776037 167.491938 
L 692.185277 166.968665 
L 692.594516 166.131483 
L 693.003756 164.815232 
L 693.412995 162.906128 
L 693.822235 160.214458 
L 694.436094 154.30928 
L 695.049953 145.534206 
L 695.663812 132.670314 
L 696.277671 114.542987 
L 697.50539 74.440469 
L 697.914629 66.101863 
L 698.119249 63.750395 
L 698.323869 62.978332 
L 698.528488 64.025454 
L 698.733108 66.965089 
L 699.142348 77.572696 
L 700.574686 122.270206 
L 701.393165 139.289425 
L 702.007024 147.956305 
L 702.620883 153.608696 
L 703.439362 158.960029 
L 704.053221 161.487928 
L 704.462461 162.437291 
L 704.8717 162.948615 
L 705.07632 163.028349 
L 705.280939 162.95957 
L 705.485559 162.701655 
L 705.894799 161.554516 
L 706.713278 158.807191 
L 706.917897 158.68471 
L 707.122517 158.958595 
L 707.531756 160.541096 
L 708.759475 166.485564 
L 709.168714 167.574653 
L 709.782573 168.498052 
L 710.191813 169.145849 
L 711.624151 172.426928 
L 712.23801 172.885498 
L 713.874968 173.99155 
L 714.488827 174.57442 
L 714.898067 174.642216 
L 716.125785 174.320921 
L 716.535024 174.182336 
L 717.762743 173.357193 
L 719.195081 173.591843 
L 719.80894 174.011123 
L 720.832039 174.861462 
L 721.241278 174.828563 
L 722.059757 174.553527 
L 723.082856 174.781773 
L 724.105954 174.936407 
L 724.515194 174.723791 
L 725.333673 174.046099 
L 725.742912 173.994509 
L 726.356771 174.05344 
L 726.766011 173.830186 
L 727.37987 173.087464 
L 728.198349 171.790469 
L 729.221447 169.844073 
L 729.835307 168.056772 
L 730.449166 165.412648 
L 730.858405 162.869593 
L 731.267645 159.028492 
L 731.881504 150.221659 
L 732.904603 133.21492 
L 733.109222 132.097382 
L 733.313842 132.3994 
L 733.518462 134.019079 
L 733.927701 139.844908 
L 734.9508 155.456904 
L 735.564659 161.46149 
L 735.973898 163.949771 
L 736.587758 166.217587 
L 738.224715 170.921608 
L 738.838575 171.962269 
L 740.066293 173.663558 
L 740.475532 173.868731 
L 741.294011 174.056365 
L 741.907871 174.217414 
L 742.726349 174.169212 
L 744.363307 173.633686 
L 744.772547 173.31579 
L 745.591026 172.200714 
L 746.614124 170.334142 
L 746.818744 170.290966 
L 747.023364 170.451247 
L 747.432603 171.245705 
L 748.046462 172.617961 
L 748.660322 173.308855 
L 749.274181 173.729163 
L 751.115758 174.38307 
L 752.343477 174.475769 
L 752.752716 174.459732 
L 753.366575 173.957251 
L 754.389674 172.829007 
L 754.798913 171.982722 
L 755.617392 169.861544 
L 756.026632 169.434336 
L 756.231251 169.417701 
L 756.435871 169.553259 
L 756.845111 170.213254 
L 758.072829 172.703918 
L 758.686688 173.201746 
L 761.142125 174.298424 
L 761.551364 174.356643 
L 762.369843 174.149347 
L 762.983702 174.128848 
L 763.597562 173.939961 
L 764.211421 174.078546 
L 764.62066 173.704825 
L 765.0299 173.185336 
L 765.439139 173.064628 
L 765.848379 173.277391 
L 766.462238 173.934732 
L 766.871477 174.288237 
L 767.280717 174.310745 
L 768.508435 174.047138 
L 769.531534 174.108768 
L 770.759252 174.020937 
L 774.033168 175.225199 
L 775.056266 175.007603 
L 775.670125 175.239011 
L 776.283985 175.483679 
L 776.693224 175.364869 
L 777.511703 174.962654 
L 777.920942 175.239813 
L 778.330182 175.48194 
L 779.5579 175.486242 
L 780.785619 176.002118 
L 781.399478 175.964623 
L 782.217957 175.821181 
L 783.036436 175.884652 
L 783.445675 175.945604 
L 784.264154 175.910921 
L 784.673393 176.282654 
L 785.491872 177.20795 
L 786.92421 177.858842 
L 787.53807 177.89392 
L 788.970408 177.986325 
L 789.993506 178.334127 
L 791.016605 178.137221 
L 794.90438 180.028255 
L 795.518239 179.889704 
L 795.927478 179.854659 
L 796.541338 180.159827 
L 797.973676 180.993983 
L 798.587535 180.906388 
L 798.996774 180.889177 
L 799.815253 181.308886 
L 800.224493 181.435974 
L 801.247591 181.318881 
L 802.884549 181.814574 
L 804.112267 182.802934 
L 804.930746 183.109435 
L 805.544606 183.321204 
L 806.363084 183.857024 
L 807.795423 184.351531 
L 809.023141 184.89738 
L 809.637 184.901965 
L 810.455479 184.813942 
L 811.069338 184.692737 
L 811.478578 184.621169 
L 811.887817 184.773273 
L 813.524775 185.718547 
L 813.934014 185.872639 
L 816.798691 186.154915 
L 817.617169 186.387611 
L 818.435648 186.43815 
L 819.049508 186.539207 
L 819.458747 186.641031 
L 820.686465 187.501015 
L 822.118803 187.746575 
L 822.937282 187.333281 
L 824.165001 187.532367 
L 825.597339 187.271944 
L 826.825057 187.776571 
L 827.643536 187.528606 
L 828.257395 187.179516 
L 829.075874 186.594173 
L 830.098973 186.373731 
L 830.712832 186.52981 
L 831.122071 186.594467 
L 831.531311 186.449614 
L 833.168269 185.361575 
L 834.395987 184.140779 
L 835.623705 182.956518 
L 836.237565 182.810682 
L 836.646804 182.420427 
L 837.465283 181.255083 
L 838.283762 180.117047 
L 838.693001 179.520929 
L 839.92072 176.796203 
L 843.194635 169.24206 
L 845.445452 161.829474 
L 847.28703 154.02269 
L 849.333227 143.006736 
L 850.151706 137.644041 
L 851.174805 129.005203 
L 852.607143 114.538876 
L 853.834861 100.59807 
L 855.062579 86.891891 
L 855.881058 79.713096 
L 856.699537 74.33695 
L 857.108777 72.558899 
L 857.518016 71.514522 
L 857.927256 70.934532 
L 858.336495 70.65019 
L 858.745735 70.571529 
L 859.154974 70.909155 
L 859.768833 72.066288 
L 860.791932 74.068984 
L 861.201171 74.552232 
L 861.610411 74.689767 
L 862.01965 74.60547 
L 862.633509 74.211127 
L 863.861228 73.125833 
L 864.475087 71.898509 
L 865.088946 70.05676 
L 866.521284 64.357828 
L 868.362862 55.432604 
L 869.99982 45.763224 
L 871.636777 34.900073 
L 875.115313 10.535194 
L 876.507194 -1 
M 948.10611 -1 
L 949.187654 25.484667 
L 950.824612 59.980173 
L 952.25695 84.860329 
L 953.484668 102.260474 
L 955.735485 129.509784 
L 957.167823 144.937275 
L 958.190922 154.087392 
L 958.804781 157.967073 
L 959.82788 162.469975 
L 960.646358 165.477644 
L 962.487936 169.806533 
L 963.306415 171.288271 
L 964.124894 172.286445 
L 964.534133 172.506458 
L 965.147992 172.781314 
L 965.761852 173.47336 
L 966.78495 174.663912 
L 968.421908 176.132798 
L 969.240387 176.384332 
L 970.468105 177.427139 
L 970.877345 177.385804 
L 971.900443 176.998056 
L 972.309683 177.146501 
L 972.923542 177.606664 
L 974.5605 178.205672 
L 974.969739 178.627708 
L 975.583599 179.392757 
L 975.992838 179.620574 
L 976.606697 179.598371 
L 977.015937 179.571853 
L 978.243655 179.93515 
L 978.652894 179.92415 
L 979.266754 180.238725 
L 979.880613 180.530454 
L 980.699092 180.666939 
L 981.312951 180.550184 
L 981.92681 180.885552 
L 983.154528 181.407887 
L 984.177627 181.7069 
L 984.791486 182.208308 
L 985.200726 182.295699 
L 985.814585 182.36118 
L 986.428444 182.424233 
L 987.042303 182.081931 
L 988.065402 181.364067 
L 988.474641 181.39089 
L 989.29312 181.676181 
L 989.906979 181.632711 
L 992.157796 180.719138 
L 992.976275 180.597663 
L 993.385515 180.803932 
L 994.613233 181.631469 
L 996.250191 182.293474 
L 996.86405 182.708699 
L 997.477909 183.072007 
L 999.524107 183.857385 
L 1000.547205 183.428404 
L 1001.365684 182.77828 
L 1001.979543 182.088492 
L 1002.388783 181.674125 
L 1002.798022 181.700643 
L 1003.207262 182.042482 
L 1005.253459 184.334015 
L 1006.071938 184.678485 
L 1007.095036 185.526486 
L 1007.504276 185.173083 
L 1007.913515 184.77604 
L 1008.322755 184.634586 
L 1008.936614 184.463689 
L 1009.345853 184.317074 
L 1010.368952 184.322495 
L 1011.392051 183.884061 
L 1012.21053 183.858232 
L 1012.619769 184.053444 
L 1013.438248 184.562837 
L 1013.847487 184.59237 
L 1014.870586 184.458901 
L 1015.279826 184.699751 
L 1016.302924 185.614385 
L 1016.916783 185.855044 
L 1017.939882 185.901337 
L 1018.553741 185.851328 
L 1019.986079 186.270585 
L 1021.213798 185.964491 
L 1021.827657 185.908824 
L 1022.850755 185.664744 
L 1023.464615 185.704555 
L 1024.078474 186.062193 
L 1025.101572 186.632301 
L 1025.510812 186.774817 
L 1026.124671 186.714982 
L 1028.170868 186.041006 
L 1028.784727 186.277407 
L 1029.807826 186.751168 
L 1030.217066 186.648801 
L 1031.444784 186.150883 
L 1032.877122 186.384008 
L 1033.900221 186.791351 
L 1035.332559 186.649151 
L 1036.151038 186.446022 
L 1037.174136 185.745596 
L 1038.811094 185.354516 
L 1039.220334 185.647171 
L 1039.834193 186.151527 
L 1040.243432 186.298933 
L 1040.857291 186.216725 
L 1041.471151 185.820349 
L 1041.88039 185.575704 
L 1042.289629 185.574349 
L 1042.698869 185.816012 
L 1043.721968 186.587781 
L 1044.335827 186.657034 
L 1045.154306 186.670112 
L 1045.972785 186.86712 
L 1046.995883 187.20748 
L 1047.609742 187.233997 
L 1048.018982 186.952083 
L 1048.632841 186.375865 
L 1049.04208 186.313761 
L 1049.65594 186.388887 
L 1050.269799 186.231577 
L 1050.883658 185.968241 
L 1051.497517 186.128103 
L 1052.111376 186.588323 
L 1052.929855 187.205469 
L 1053.339095 187.314194 
L 1053.952954 187.395825 
L 1054.566813 187.512219 
L 1055.589912 187.271538 
L 1057.431489 188.321618 
L 1057.840729 188.289024 
L 1059.068447 187.87599 
L 1059.886926 187.901514 
L 1060.500785 188.134221 
L 1061.114644 188.564648 
L 1061.523884 188.481436 
L 1062.342363 187.980988 
L 1062.956222 187.987436 
L 1064.38856 188.292932 
L 1064.797799 188.207596 
L 1065.411659 187.972303 
L 1067.662476 188.21583 
L 1068.480954 188.355974 
L 1071.141011 187.869959 
L 1072.777969 187.502303 
L 1075.438025 187.860585 
L 1075.847265 187.652588 
L 1076.256504 187.414358 
L 1076.870363 187.441407 
L 1079.939659 187.625834 
L 1080.758138 187.406554 
L 1081.985856 187.936908 
L 1083.008955 187.686921 
L 1084.032054 187.525139 
L 1084.645913 187.655118 
L 1085.464392 188.053629 
L 1085.873631 188.134774 
L 1086.48749 188.422234 
L 1087.10135 188.323741 
L 1087.919829 188.281841 
L 1088.738307 188.372474 
L 1089.147547 188.185596 
L 1089.761406 187.90113 
L 1091.193744 187.754582 
L 1091.807603 187.671099 
L 1092.830702 187.373227 
L 1093.239941 187.545953 
L 1094.05842 188.173015 
L 1094.46766 188.179644 
L 1095.081519 188.023023 
L 1096.309237 188.261332 
L 1096.923097 188.012565 
L 1097.332336 187.893326 
L 1097.741575 187.979147 
L 1098.969294 188.582379 
L 1099.992392 188.338694 
L 1101.83397 188.441241 
L 1102.652449 188.591809 
L 1103.061688 188.41565 
L 1103.675547 188.138603 
L 1104.698646 187.943876 
L 1105.312505 187.672691 
L 1107.767942 187.3826 
L 1108.586421 187.012584 
L 1110.427998 186.52352 
L 1112.064956 185.650412 
L 1112.474196 185.10628 
L 1114.315773 181.918996 
L 1114.929632 179.869522 
L 1115.952731 176.518061 
L 1116.77121 174.518855 
L 1117.998928 171.836051 
L 1118.612788 170.771334 
L 1119.022027 169.637025 
L 1119.431266 167.713126 
L 1119.840506 164.689093 
L 1120.249745 160.068238 
L 1120.658985 153.146556 
L 1121.068224 143.224592 
L 1121.682083 120.958202 
L 1122.705182 79.709606 
L 1122.909802 76.72762 
L 1123.114422 76.817055 
L 1123.319041 79.893581 
L 1123.728281 92.841047 
L 1124.751379 131.279287 
L 1125.365239 145.330783 
L 1125.979098 154.070034 
L 1126.592957 159.588006 
L 1128.229915 171.430504 
L 1129.253013 176.612883 
L 1130.071492 179.634296 
L 1130.685351 181.142484 
L 1131.70845 183.078919 
L 1132.322309 183.721804 
L 1133.345408 184.439317 
L 1134.368507 185.040189 
L 1136.210084 186.301971 
L 1136.823943 186.736158 
L 1139.27938 187.511191 
L 1140.507098 187.207514 
L 1141.325577 187.59656 
L 1141.734817 187.402116 
L 1142.348676 186.969453 
L 1143.371774 186.798443 
L 1143.781014 186.900414 
L 1145.622591 188.0704 
L 1146.44107 188.338818 
L 1147.05493 188.391492 
L 1148.487268 188.900535 
L 1149.919606 188.955253 
L 1151.351944 189.499453 
L 1152.579662 189.181116 
L 1153.398141 189.271048 
L 1153.807381 189.28119 
L 1154.21662 189.113377 
L 1154.830479 188.698558 
L 1155.239719 188.706091 
L 1156.672057 189.253961 
L 1157.285916 189.102139 
L 1157.899775 189.073069 
L 1158.309015 188.725561 
L 1158.718254 188.374134 
L 1158.922874 188.35481 
L 1159.332113 188.616102 
L 1159.945972 189.01529 
L 1160.969071 189.282274 
L 1161.37831 189.384844 
L 1161.78755 189.252425 
L 1163.833747 188.149603 
L 1164.242987 188.332223 
L 1164.856846 188.637368 
L 1165.675325 188.962345 
L 1166.493804 189.236828 
L 1167.312283 189.228629 
L 1167.926142 189.033372 
L 1169.15386 188.471847 
L 1169.767719 188.634601 
L 1170.790818 188.905357 
L 1174.064734 189.08434 
L 1174.883212 188.788128 
L 1175.497072 188.970296 
L 1175.906311 188.960911 
L 1176.52017 188.52521 
L 1177.134029 188.099086 
L 1177.543269 188.12531 
L 1178.157128 188.602425 
L 1179.180227 189.356113 
L 1179.589466 189.479858 
L 1180.203325 189.492315 
L 1180.612565 189.264295 
L 1181.021804 188.996577 
L 1181.431044 189.025071 
L 1182.454142 189.589024 
L 1183.681861 189.622351 
L 1184.29572 189.180281 
L 1184.704959 188.880161 
L 1184.704959 188.880161 
" clip-path="url(#pcc82841762)" style="fill: none; stroke: #000000; stroke-width: 2; stroke-linecap: square"/>
   </g>
   <g id="patch_3">
    <path d="M 3.00024 198.907885 
L 1184.99976 198.907885 
" style="fill: none; stroke: #000000; stroke-width: 2; stroke-linejoin: miter; stroke-linecap: square"/>
   </g>
  </g>
 </g>
 <defs>
  <clipPath id="pcc82841762">
   <rect x="3.00024" y="3.00024" width="1181.99952" height="195.907645"/>
  </clipPath>
 </defs>
</svg>
