<?xml version="1.0" encoding="utf-8" standalone="no"?>
<!DOCTYPE svg PUBLIC "-//W3C//DTD SVG 1.1//EN"
  "http://www.w3.org/Graphics/SVG/1.1/DTD/svg11.dtd">
<svg xmlns:xlink="http://www.w3.org/1999/xlink" width="1188pt" height="252pt" viewBox="0 0 1188 252" xmlns="http://www.w3.org/2000/svg" version="1.1">
 <metadata>
  <rdf:RDF xmlns:dc="http://purl.org/dc/elements/1.1/" xmlns:cc="http://creativecommons.org/ns#" xmlns:rdf="http://www.w3.org/1999/02/22-rdf-syntax-ns#">
   <cc:Work>
    <dc:type rdf:resource="http://purl.org/dc/dcmitype/StillImage"/>
    <dc:date>2024-07-23T21:48:21.462595</dc:date>
    <dc:format>image/svg+xml</dc:format>
    <dc:creator>
     <cc:Agent>
      <dc:title>Matplotlib v3.8.4, https://matplotlib.org/</dc:title>
     </cc:Agent>
    </dc:creator>
   </cc:Work>
  </rdf:RDF>
 </metadata>
 <defs>
  <style type="text/css">*{stroke-linejoin: round; stroke-linecap: butt}</style>
 </defs>
 <g id="figure_1">
  <g id="patch_1">
   <path d="M 0 252 
L 1188 252 
L 1188 0 
L 0 0 
z
" style="fill: #ffffff"/>
  </g>
  <g id="axes_1">
   <g id="patch_2">
    <path d="M 3.00024 198.907885 
L 1184.99976 198.907885 
L 1184.99976 3.00024 
L 3.00024 3.00024 
z
" style="fill: #ffffff"/>
   </g>
   <g id="matplotlib.axis_1">
    <g id="xtick_1">
     <g id="line2d_1">
      <defs>
       <path id="mc4206ec0c8" d="M 0 0 
L 0 8 
" style="stroke: #000000; stroke-width: 2"/>
      </defs>
      <g>
       <use xlink:href="#mc4206ec0c8" x="1131.272509" y="198.907885" style="stroke: #000000; stroke-width: 2"/>
      </g>
     </g>
     <g id="text_1">
      <!-- 0 -->
      <g transform="translate(1126.267665 224.791947) scale(0.18 -0.18)">
       <defs>
        <path id="Arial-BoldMT-30" d="M 1756 4600 
Q 2422 4600 2797 4125 
Q 3244 3563 3244 2259 
Q 3244 959 2794 391 
Q 2422 -78 1756 -78 
Q 1088 -78 678 436 
Q 269 950 269 2269 
Q 269 3563 719 4131 
Q 1091 4600 1756 4600 
z
M 1756 3872 
Q 1597 3872 1472 3770 
Q 1347 3669 1278 3406 
Q 1188 3066 1188 2259 
Q 1188 1453 1269 1151 
Q 1350 850 1473 750 
Q 1597 650 1756 650 
Q 1916 650 2041 751 
Q 2166 853 2234 1116 
Q 2325 1453 2325 2259 
Q 2325 3066 2244 3367 
Q 2163 3669 2039 3770 
Q 1916 3872 1756 3872 
z
" transform="scale(0.015625)"/>
       </defs>
       <use xlink:href="#Arial-BoldMT-30"/>
      </g>
     </g>
    </g>
    <g id="xtick_2">
     <g id="line2d_2">
      <g>
       <use xlink:href="#mc4206ec0c8" x="1023.818007" y="198.907885" style="stroke: #000000; stroke-width: 2"/>
      </g>
     </g>
     <g id="text_2">
      <!-- 1 -->
      <g transform="translate(1018.813164 224.791947) scale(0.18 -0.18)">
       <defs>
        <path id="Arial-BoldMT-31" d="M 2519 0 
L 1641 0 
L 1641 3309 
Q 1159 2859 506 2644 
L 506 3441 
Q 850 3553 1253 3867 
Q 1656 4181 1806 4600 
L 2519 4600 
L 2519 0 
z
" transform="scale(0.015625)"/>
       </defs>
       <use xlink:href="#Arial-BoldMT-31"/>
      </g>
     </g>
    </g>
    <g id="xtick_3">
     <g id="line2d_3">
      <g>
       <use xlink:href="#mc4206ec0c8" x="916.363505" y="198.907885" style="stroke: #000000; stroke-width: 2"/>
      </g>
     </g>
     <g id="text_3">
      <!-- 2 -->
      <g transform="translate(911.358662 224.791947) scale(0.18 -0.18)">
       <defs>
        <path id="Arial-BoldMT-32" d="M 3238 816 
L 3238 0 
L 159 0 
Q 209 463 459 877 
Q 709 1291 1447 1975 
Q 2041 2528 2175 2725 
Q 2356 2997 2356 3263 
Q 2356 3556 2198 3714 
Q 2041 3872 1763 3872 
Q 1488 3872 1325 3706 
Q 1163 3541 1138 3156 
L 263 3244 
Q 341 3969 753 4284 
Q 1166 4600 1784 4600 
Q 2463 4600 2850 4234 
Q 3238 3869 3238 3325 
Q 3238 3016 3127 2736 
Q 3016 2456 2775 2150 
Q 2616 1947 2200 1565 
Q 1784 1184 1673 1059 
Q 1563 934 1494 816 
L 3238 816 
z
" transform="scale(0.015625)"/>
       </defs>
       <use xlink:href="#Arial-BoldMT-32"/>
      </g>
     </g>
    </g>
    <g id="xtick_4">
     <g id="line2d_4">
      <g>
       <use xlink:href="#mc4206ec0c8" x="808.909004" y="198.907885" style="stroke: #000000; stroke-width: 2"/>
      </g>
     </g>
     <g id="text_4">
      <!-- 3 -->
      <g transform="translate(803.90416 224.791947) scale(0.18 -0.18)">
       <defs>
        <path id="Arial-BoldMT-33" d="M 241 1216 
L 1091 1319 
Q 1131 994 1309 822 
Q 1488 650 1741 650 
Q 2013 650 2198 856 
Q 2384 1063 2384 1413 
Q 2384 1744 2206 1937 
Q 2028 2131 1772 2131 
Q 1603 2131 1369 2066 
L 1466 2781 
Q 1822 2772 2009 2936 
Q 2197 3100 2197 3372 
Q 2197 3603 2059 3740 
Q 1922 3878 1694 3878 
Q 1469 3878 1309 3722 
Q 1150 3566 1116 3266 
L 306 3403 
Q 391 3819 561 4067 
Q 731 4316 1036 4458 
Q 1341 4600 1719 4600 
Q 2366 4600 2756 4188 
Q 3078 3850 3078 3425 
Q 3078 2822 2419 2463 
Q 2813 2378 3048 2084 
Q 3284 1791 3284 1375 
Q 3284 772 2843 347 
Q 2403 -78 1747 -78 
Q 1125 -78 715 280 
Q 306 638 241 1216 
z
" transform="scale(0.015625)"/>
       </defs>
       <use xlink:href="#Arial-BoldMT-33"/>
      </g>
     </g>
    </g>
    <g id="xtick_5">
     <g id="line2d_5">
      <g>
       <use xlink:href="#mc4206ec0c8" x="701.454502" y="198.907885" style="stroke: #000000; stroke-width: 2"/>
      </g>
     </g>
     <g id="text_5">
      <!-- 4 -->
      <g transform="translate(696.449658 224.791947) scale(0.18 -0.18)">
       <defs>
        <path id="Arial-BoldMT-34" d="M 1994 0 
L 1994 922 
L 119 922 
L 119 1691 
L 2106 4600 
L 2844 4600 
L 2844 1694 
L 3413 1694 
L 3413 922 
L 2844 922 
L 2844 0 
L 1994 0 
z
M 1994 1694 
L 1994 3259 
L 941 1694 
L 1994 1694 
z
" transform="scale(0.015625)"/>
       </defs>
       <use xlink:href="#Arial-BoldMT-34"/>
      </g>
     </g>
    </g>
    <g id="xtick_6">
     <g id="line2d_6">
      <g>
       <use xlink:href="#mc4206ec0c8" x="594" y="198.907885" style="stroke: #000000; stroke-width: 2"/>
      </g>
     </g>
     <g id="text_6">
      <!-- 5 -->
      <g transform="translate(588.995156 224.791947) scale(0.18 -0.18)">
       <defs>
        <path id="Arial-BoldMT-35" d="M 284 1178 
L 1159 1269 
Q 1197 972 1381 798 
Q 1566 625 1806 625 
Q 2081 625 2272 848 
Q 2463 1072 2463 1522 
Q 2463 1944 2273 2155 
Q 2084 2366 1781 2366 
Q 1403 2366 1103 2031 
L 391 2134 
L 841 4519 
L 3163 4519 
L 3163 3697 
L 1506 3697 
L 1369 2919 
Q 1663 3066 1969 3066 
Q 2553 3066 2959 2641 
Q 3366 2216 3366 1538 
Q 3366 972 3038 528 
Q 2591 -78 1797 -78 
Q 1163 -78 763 262 
Q 363 603 284 1178 
z
" transform="scale(0.015625)"/>
       </defs>
       <use xlink:href="#Arial-BoldMT-35"/>
      </g>
     </g>
    </g>
    <g id="xtick_7">
     <g id="line2d_7">
      <g>
       <use xlink:href="#mc4206ec0c8" x="486.545498" y="198.907885" style="stroke: #000000; stroke-width: 2"/>
      </g>
     </g>
     <g id="text_7">
      <!-- 6 -->
      <g transform="translate(481.540654 224.791947) scale(0.18 -0.18)">
       <defs>
        <path id="Arial-BoldMT-36" d="M 3247 3459 
L 2397 3366 
Q 2366 3628 2234 3753 
Q 2103 3878 1894 3878 
Q 1616 3878 1423 3628 
Q 1231 3378 1181 2588 
Q 1509 2975 1997 2975 
Q 2547 2975 2939 2556 
Q 3331 2138 3331 1475 
Q 3331 772 2918 347 
Q 2506 -78 1859 -78 
Q 1166 -78 719 461 
Q 272 1000 272 2228 
Q 272 3488 737 4044 
Q 1203 4600 1947 4600 
Q 2469 4600 2811 4308 
Q 3153 4016 3247 3459 
z
M 1256 1544 
Q 1256 1116 1453 883 
Q 1650 650 1903 650 
Q 2147 650 2309 840 
Q 2472 1031 2472 1466 
Q 2472 1913 2297 2120 
Q 2122 2328 1859 2328 
Q 1606 2328 1431 2129 
Q 1256 1931 1256 1544 
z
" transform="scale(0.015625)"/>
       </defs>
       <use xlink:href="#Arial-BoldMT-36"/>
      </g>
     </g>
    </g>
    <g id="xtick_8">
     <g id="line2d_8">
      <g>
       <use xlink:href="#mc4206ec0c8" x="379.090996" y="198.907885" style="stroke: #000000; stroke-width: 2"/>
      </g>
     </g>
     <g id="text_8">
      <!-- 7 -->
      <g transform="translate(374.086153 224.791947) scale(0.18 -0.18)">
       <defs>
        <path id="Arial-BoldMT-37" d="M 272 3703 
L 272 4519 
L 3275 4519 
L 3275 3881 
Q 2903 3516 2518 2831 
Q 2134 2147 1932 1376 
Q 1731 606 1734 0 
L 888 0 
Q 909 950 1279 1937 
Q 1650 2925 2269 3703 
L 272 3703 
z
" transform="scale(0.015625)"/>
       </defs>
       <use xlink:href="#Arial-BoldMT-37"/>
      </g>
     </g>
    </g>
    <g id="xtick_9">
     <g id="line2d_9">
      <g>
       <use xlink:href="#mc4206ec0c8" x="271.636495" y="198.907885" style="stroke: #000000; stroke-width: 2"/>
      </g>
     </g>
     <g id="text_9">
      <!-- 8 -->
      <g transform="translate(266.631651 224.791947) scale(0.18 -0.18)">
       <defs>
        <path id="Arial-BoldMT-38" d="M 1025 2472 
Q 684 2616 529 2867 
Q 375 3119 375 3419 
Q 375 3931 733 4265 
Q 1091 4600 1750 4600 
Q 2403 4600 2764 4265 
Q 3125 3931 3125 3419 
Q 3125 3100 2959 2851 
Q 2794 2603 2494 2472 
Q 2875 2319 3073 2025 
Q 3272 1731 3272 1347 
Q 3272 713 2867 316 
Q 2463 -81 1791 -81 
Q 1166 -81 750 247 
Q 259 634 259 1309 
Q 259 1681 443 1992 
Q 628 2303 1025 2472 
z
M 1206 3356 
Q 1206 3094 1354 2947 
Q 1503 2800 1750 2800 
Q 2000 2800 2150 2948 
Q 2300 3097 2300 3359 
Q 2300 3606 2151 3754 
Q 2003 3903 1759 3903 
Q 1506 3903 1356 3753 
Q 1206 3603 1206 3356 
z
M 1125 1394 
Q 1125 1031 1311 828 
Q 1497 625 1775 625 
Q 2047 625 2225 820 
Q 2403 1016 2403 1384 
Q 2403 1706 2222 1901 
Q 2041 2097 1763 2097 
Q 1441 2097 1283 1875 
Q 1125 1653 1125 1394 
z
" transform="scale(0.015625)"/>
       </defs>
       <use xlink:href="#Arial-BoldMT-38"/>
      </g>
     </g>
    </g>
    <g id="xtick_10">
     <g id="line2d_10">
      <g>
       <use xlink:href="#mc4206ec0c8" x="164.181993" y="198.907885" style="stroke: #000000; stroke-width: 2"/>
      </g>
     </g>
     <g id="text_10">
      <!-- 9 -->
      <g transform="translate(159.177149 224.791947) scale(0.18 -0.18)">
       <defs>
        <path id="Arial-BoldMT-39" d="M 291 1059 
L 1141 1153 
Q 1172 894 1303 769 
Q 1434 644 1650 644 
Q 1922 644 2112 894 
Q 2303 1144 2356 1931 
Q 2025 1547 1528 1547 
Q 988 1547 595 1964 
Q 203 2381 203 3050 
Q 203 3747 617 4173 
Q 1031 4600 1672 4600 
Q 2369 4600 2816 4061 
Q 3263 3522 3263 2288 
Q 3263 1031 2797 475 
Q 2331 -81 1584 -81 
Q 1047 -81 715 205 
Q 384 491 291 1059 
z
M 2278 2978 
Q 2278 3403 2083 3637 
Q 1888 3872 1631 3872 
Q 1388 3872 1227 3680 
Q 1066 3488 1066 3050 
Q 1066 2606 1241 2398 
Q 1416 2191 1678 2191 
Q 1931 2191 2104 2391 
Q 2278 2591 2278 2978 
z
" transform="scale(0.015625)"/>
       </defs>
       <use xlink:href="#Arial-BoldMT-39"/>
      </g>
     </g>
    </g>
    <g id="xtick_11">
     <g id="line2d_11">
      <g>
       <use xlink:href="#mc4206ec0c8" x="56.727491" y="198.907885" style="stroke: #000000; stroke-width: 2"/>
      </g>
     </g>
     <g id="text_11">
      <!-- 10 -->
      <g transform="translate(46.717803 224.791947) scale(0.18 -0.18)">
       <use xlink:href="#Arial-BoldMT-31"/>
       <use xlink:href="#Arial-BoldMT-30" x="55.615234"/>
      </g>
     </g>
    </g>
    <g id="text_12">
     <!-- Chemical Shift / ppm -->
     <g transform="translate(504.992813 245.447573) scale(0.18 -0.18)">
      <defs>
       <path id="Arial-BoldMT-43" d="M 3397 1684 
L 4294 1400 
Q 4088 650 3608 286 
Q 3128 -78 2391 -78 
Q 1478 -78 890 545 
Q 303 1169 303 2250 
Q 303 3394 893 4026 
Q 1484 4659 2447 4659 
Q 3288 4659 3813 4163 
Q 4125 3869 4281 3319 
L 3366 3100 
Q 3284 3456 3026 3662 
Q 2769 3869 2400 3869 
Q 1891 3869 1573 3503 
Q 1256 3138 1256 2319 
Q 1256 1450 1568 1081 
Q 1881 713 2381 713 
Q 2750 713 3015 947 
Q 3281 1181 3397 1684 
z
" transform="scale(0.015625)"/>
       <path id="Arial-BoldMT-68" d="M 1334 4581 
L 1334 2897 
Q 1759 3394 2350 3394 
Q 2653 3394 2897 3281 
Q 3141 3169 3264 2994 
Q 3388 2819 3433 2606 
Q 3478 2394 3478 1947 
L 3478 0 
L 2600 0 
L 2600 1753 
Q 2600 2275 2550 2415 
Q 2500 2556 2373 2639 
Q 2247 2722 2056 2722 
Q 1838 2722 1666 2615 
Q 1494 2509 1414 2295 
Q 1334 2081 1334 1663 
L 1334 0 
L 456 0 
L 456 4581 
L 1334 4581 
z
" transform="scale(0.015625)"/>
       <path id="Arial-BoldMT-65" d="M 2381 1056 
L 3256 909 
Q 3088 428 2723 176 
Q 2359 -75 1813 -75 
Q 947 -75 531 491 
Q 203 944 203 1634 
Q 203 2459 634 2926 
Q 1066 3394 1725 3394 
Q 2466 3394 2894 2905 
Q 3322 2416 3303 1406 
L 1103 1406 
Q 1113 1016 1316 798 
Q 1519 581 1822 581 
Q 2028 581 2168 693 
Q 2309 806 2381 1056 
z
M 2431 1944 
Q 2422 2325 2234 2523 
Q 2047 2722 1778 2722 
Q 1491 2722 1303 2513 
Q 1116 2303 1119 1944 
L 2431 1944 
z
" transform="scale(0.015625)"/>
       <path id="Arial-BoldMT-6d" d="M 394 3319 
L 1203 3319 
L 1203 2866 
Q 1638 3394 2238 3394 
Q 2556 3394 2790 3262 
Q 3025 3131 3175 2866 
Q 3394 3131 3647 3262 
Q 3900 3394 4188 3394 
Q 4553 3394 4806 3245 
Q 5059 3097 5184 2809 
Q 5275 2597 5275 2122 
L 5275 0 
L 4397 0 
L 4397 1897 
Q 4397 2391 4306 2534 
Q 4184 2722 3931 2722 
Q 3747 2722 3584 2609 
Q 3422 2497 3350 2280 
Q 3278 2063 3278 1594 
L 3278 0 
L 2400 0 
L 2400 1819 
Q 2400 2303 2353 2443 
Q 2306 2584 2207 2653 
Q 2109 2722 1941 2722 
Q 1738 2722 1575 2612 
Q 1413 2503 1342 2297 
Q 1272 2091 1272 1613 
L 1272 0 
L 394 0 
L 394 3319 
z
" transform="scale(0.015625)"/>
       <path id="Arial-BoldMT-69" d="M 459 3769 
L 459 4581 
L 1338 4581 
L 1338 3769 
L 459 3769 
z
M 459 0 
L 459 3319 
L 1338 3319 
L 1338 0 
L 459 0 
z
" transform="scale(0.015625)"/>
       <path id="Arial-BoldMT-63" d="M 3353 2338 
L 2488 2181 
Q 2444 2441 2289 2572 
Q 2134 2703 1888 2703 
Q 1559 2703 1364 2476 
Q 1169 2250 1169 1719 
Q 1169 1128 1367 884 
Q 1566 641 1900 641 
Q 2150 641 2309 783 
Q 2469 925 2534 1272 
L 3397 1125 
Q 3263 531 2881 228 
Q 2500 -75 1859 -75 
Q 1131 -75 698 384 
Q 266 844 266 1656 
Q 266 2478 700 2936 
Q 1134 3394 1875 3394 
Q 2481 3394 2839 3133 
Q 3197 2872 3353 2338 
z
" transform="scale(0.015625)"/>
       <path id="Arial-BoldMT-61" d="M 1116 2306 
L 319 2450 
Q 453 2931 781 3162 
Q 1109 3394 1756 3394 
Q 2344 3394 2631 3255 
Q 2919 3116 3036 2902 
Q 3153 2688 3153 2116 
L 3144 1091 
Q 3144 653 3186 445 
Q 3228 238 3344 0 
L 2475 0 
Q 2441 88 2391 259 
Q 2369 338 2359 363 
Q 2134 144 1878 34 
Q 1622 -75 1331 -75 
Q 819 -75 523 203 
Q 228 481 228 906 
Q 228 1188 362 1408 
Q 497 1628 739 1745 
Q 981 1863 1438 1950 
Q 2053 2066 2291 2166 
L 2291 2253 
Q 2291 2506 2166 2614 
Q 2041 2722 1694 2722 
Q 1459 2722 1328 2630 
Q 1197 2538 1116 2306 
z
M 2291 1594 
Q 2122 1538 1756 1459 
Q 1391 1381 1278 1306 
Q 1106 1184 1106 997 
Q 1106 813 1243 678 
Q 1381 544 1594 544 
Q 1831 544 2047 700 
Q 2206 819 2256 991 
Q 2291 1103 2291 1419 
L 2291 1594 
z
" transform="scale(0.015625)"/>
       <path id="Arial-BoldMT-6c" d="M 459 0 
L 459 4581 
L 1338 4581 
L 1338 0 
L 459 0 
z
" transform="scale(0.015625)"/>
       <path id="Arial-BoldMT-20" transform="scale(0.015625)"/>
       <path id="Arial-BoldMT-53" d="M 231 1491 
L 1131 1578 
Q 1213 1125 1461 912 
Q 1709 700 2131 700 
Q 2578 700 2804 889 
Q 3031 1078 3031 1331 
Q 3031 1494 2936 1608 
Q 2841 1722 2603 1806 
Q 2441 1863 1863 2006 
Q 1119 2191 819 2459 
Q 397 2838 397 3381 
Q 397 3731 595 4036 
Q 794 4341 1167 4500 
Q 1541 4659 2069 4659 
Q 2931 4659 3367 4281 
Q 3803 3903 3825 3272 
L 2900 3231 
Q 2841 3584 2645 3739 
Q 2450 3894 2059 3894 
Q 1656 3894 1428 3728 
Q 1281 3622 1281 3444 
Q 1281 3281 1419 3166 
Q 1594 3019 2269 2859 
Q 2944 2700 3267 2529 
Q 3591 2359 3773 2064 
Q 3956 1769 3956 1334 
Q 3956 941 3737 597 
Q 3519 253 3119 86 
Q 2719 -81 2122 -81 
Q 1253 -81 787 320 
Q 322 722 231 1491 
z
" transform="scale(0.015625)"/>
       <path id="Arial-BoldMT-66" d="M 75 3319 
L 563 3319 
L 563 3569 
Q 563 3988 652 4194 
Q 741 4400 980 4529 
Q 1219 4659 1584 4659 
Q 1959 4659 2319 4547 
L 2200 3934 
Q 1991 3984 1797 3984 
Q 1606 3984 1523 3895 
Q 1441 3806 1441 3553 
L 1441 3319 
L 2097 3319 
L 2097 2628 
L 1441 2628 
L 1441 0 
L 563 0 
L 563 2628 
L 75 2628 
L 75 3319 
z
" transform="scale(0.015625)"/>
       <path id="Arial-BoldMT-74" d="M 1981 3319 
L 1981 2619 
L 1381 2619 
L 1381 1281 
Q 1381 875 1398 808 
Q 1416 741 1477 697 
Q 1538 653 1625 653 
Q 1747 653 1978 738 
L 2053 56 
Q 1747 -75 1359 -75 
Q 1122 -75 931 4 
Q 741 84 652 211 
Q 563 338 528 553 
Q 500 706 500 1172 
L 500 2619 
L 97 2619 
L 97 3319 
L 500 3319 
L 500 3978 
L 1381 4491 
L 1381 3319 
L 1981 3319 
z
" transform="scale(0.015625)"/>
       <path id="Arial-BoldMT-2f" d="M -9 -78 
L 1125 4659 
L 1784 4659 
L 638 -78 
L -9 -78 
z
" transform="scale(0.015625)"/>
       <path id="Arial-BoldMT-70" d="M 434 3319 
L 1253 3319 
L 1253 2831 
Q 1413 3081 1684 3237 
Q 1956 3394 2288 3394 
Q 2866 3394 3269 2941 
Q 3672 2488 3672 1678 
Q 3672 847 3265 386 
Q 2859 -75 2281 -75 
Q 2006 -75 1782 34 
Q 1559 144 1313 409 
L 1313 -1263 
L 434 -1263 
L 434 3319 
z
M 1303 1716 
Q 1303 1156 1525 889 
Q 1747 622 2066 622 
Q 2372 622 2575 867 
Q 2778 1113 2778 1672 
Q 2778 2194 2568 2447 
Q 2359 2700 2050 2700 
Q 1728 2700 1515 2451 
Q 1303 2203 1303 1716 
z
" transform="scale(0.015625)"/>
      </defs>
      <use xlink:href="#Arial-BoldMT-43"/>
      <use xlink:href="#Arial-BoldMT-68" x="72.216797"/>
      <use xlink:href="#Arial-BoldMT-65" x="133.300781"/>
      <use xlink:href="#Arial-BoldMT-6d" x="188.916016"/>
      <use xlink:href="#Arial-BoldMT-69" x="277.832031"/>
      <use xlink:href="#Arial-BoldMT-63" x="305.615234"/>
      <use xlink:href="#Arial-BoldMT-61" x="361.230469"/>
      <use xlink:href="#Arial-BoldMT-6c" x="416.845703"/>
      <use xlink:href="#Arial-BoldMT-20" x="444.628906"/>
      <use xlink:href="#Arial-BoldMT-53" x="472.412109"/>
      <use xlink:href="#Arial-BoldMT-68" x="539.111328"/>
      <use xlink:href="#Arial-BoldMT-69" x="600.195312"/>
      <use xlink:href="#Arial-BoldMT-66" x="627.978516"/>
      <use xlink:href="#Arial-BoldMT-74" x="661.279297"/>
      <use xlink:href="#Arial-BoldMT-20" x="694.580078"/>
      <use xlink:href="#Arial-BoldMT-2f" x="722.363281"/>
      <use xlink:href="#Arial-BoldMT-20" x="750.146484"/>
      <use xlink:href="#Arial-BoldMT-70" x="777.929688"/>
      <use xlink:href="#Arial-BoldMT-70" x="839.013672"/>
      <use xlink:href="#Arial-BoldMT-6d" x="900.097656"/>
     </g>
    </g>
   </g>
   <g id="matplotlib.axis_2"/>
   <g id="line2d_12">
    <path d="M 2.955871 189.947271 
L 3.569731 190.133952 
L 3.97897 190.031876 
L 4.797449 189.412718 
L 6.025167 188.642823 
L 6.639026 188.831365 
L 7.252886 189.026753 
L 8.071365 189.038525 
L 9.299083 189.556896 
L 10.117562 189.170015 
L 10.526801 189.218905 
L 10.936041 189.531033 
L 11.5499 190.084003 
L 11.959139 190.231589 
L 12.368379 190.66925 
L 12.982238 191.498461 
L 13.186858 191.621273 
L 13.391477 191.602341 
L 13.800717 191.138474 
L 14.414576 190.333379 
L 14.823816 190.127909 
L 16.051534 190.202977 
L 16.870013 189.773736 
L 17.688492 188.82747 
L 18.097731 188.808854 
L 19.325449 189.36758 
L 19.530069 189.348476 
L 19.939309 188.94464 
L 20.348548 188.517605 
L 20.553168 188.545988 
L 21.371647 189.146071 
L 21.985506 189.291968 
L 23.213224 188.763945 
L 23.417844 188.875444 
L 24.236323 189.839266 
L 24.440943 189.81896 
L 24.850182 189.472377 
L 25.873281 188.380329 
L 26.896379 187.977953 
L 27.510239 187.594653 
L 27.919478 187.573372 
L 28.737957 187.692662 
L 29.351816 187.696643 
L 29.761056 187.739604 
L 30.579534 187.661013 
L 30.988774 187.579874 
L 31.602633 187.271813 
L 32.011873 187.317753 
L 32.421112 187.613842 
L 32.830351 188.474128 
L 33.64883 190.697691 
L 34.26269 191.696341 
L 35.081168 192.510515 
L 35.285788 192.364847 
L 36.308887 190.797103 
L 36.718126 190.687666 
L 37.127366 190.193955 
L 37.536605 189.729457 
L 37.945845 189.826693 
L 38.559704 190.058827 
L 39.173563 190.328137 
L 39.992042 190.886663 
L 41.015141 191.388079 
L 41.42438 191.190571 
L 42.038239 190.645163 
L 43.061338 189.273437 
L 43.265958 189.364945 
L 43.675197 189.936703 
L 44.084436 190.682253 
L 44.493676 191.001341 
L 44.902915 191.155773 
L 45.516775 191.714871 
L 45.926014 191.71258 
L 46.539873 191.355199 
L 47.562972 190.28953 
L 48.79069 188.305863 
L 49.404549 187.787921 
L 49.609169 187.680088 
L 49.813789 187.709245 
L 50.427648 188.406936 
L 51.041507 188.873525 
L 52.064606 189.079768 
L 52.473845 189.43586 
L 52.883085 189.459231 
L 53.496944 189.398856 
L 56.56624 190.089444 
L 57.180099 190.654013 
L 57.793958 191.470708 
L 58.203198 191.606093 
L 58.817057 191.579543 
L 59.226296 191.784898 
L 60.044775 192.562527 
L 60.249395 192.401679 
L 60.658634 191.480732 
L 61.477113 189.001406 
L 61.886353 188.342895 
L 62.090972 188.268343 
L 62.500212 188.476849 
L 63.52331 189.091081 
L 63.72793 189.07235 
L 64.13717 188.657487 
L 64.955649 187.382595 
L 66.183367 184.233761 
L 66.592606 183.899493 
L 66.797226 184.035881 
L 67.206466 184.99787 
L 68.434184 189.412145 
L 68.638804 189.627095 
L 68.843423 189.609653 
L 69.661902 189.187744 
L 70.071142 189.360133 
L 70.480381 189.538251 
L 70.685001 189.350481 
L 71.09424 188.701479 
L 71.29886 188.560136 
L 71.50348 188.597828 
L 71.912719 189.05379 
L 72.321959 189.546385 
L 72.731198 189.6824 
L 73.345057 189.555836 
L 74.368156 189.106576 
L 74.777395 189.424661 
L 76.209734 191.00031 
L 77.437452 190.798908 
L 77.846691 190.832016 
L 78.460551 190.647655 
L 78.86979 190.796043 
L 79.483649 191.268675 
L 79.892889 191.913524 
L 80.302128 192.648077 
L 80.711368 192.882646 
L 81.120607 192.681644 
L 81.529846 192.201337 
L 82.552945 190.563709 
L 82.962185 190.390775 
L 83.780663 190.465184 
L 84.394523 190.112443 
L 84.599142 190.172274 
L 85.622241 191.312066 
L 86.03148 191.256073 
L 86.44072 191.202257 
L 86.849959 191.516104 
L 87.668438 192.605717 
L 87.873058 192.659075 
L 88.077678 192.48955 
L 89.100776 190.672974 
L 89.510016 190.902272 
L 90.328495 191.622018 
L 90.533114 191.643813 
L 90.737734 191.537011 
L 91.146974 190.933376 
L 91.760833 190.011885 
L 92.170072 189.640699 
L 92.579312 189.588516 
L 93.397791 189.792038 
L 93.60241 189.91843 
L 94.01165 190.562935 
L 94.625509 191.710461 
L 95.034748 191.962357 
L 95.239368 191.889753 
L 95.648608 191.422305 
L 96.671706 189.951023 
L 96.876326 189.967463 
L 97.490185 190.453527 
L 97.694805 190.385706 
L 98.308664 189.574854 
L 98.717903 189.196393 
L 98.922523 189.172392 
L 99.127143 189.29993 
L 100.150242 190.426719 
L 101.17334 190.302905 
L 101.787199 190.160989 
L 102.196439 190.331002 
L 102.605678 190.606326 
L 102.810298 190.643073 
L 103.219537 190.346324 
L 103.628777 189.918888 
L 103.833397 189.849233 
L 104.242636 190.05181 
L 105.061115 190.728651 
L 105.674974 191.062948 
L 106.084214 191.283425 
L 106.493453 191.195355 
L 107.107312 190.754772 
L 108.130411 189.89377 
L 108.53965 190.127394 
L 109.15351 190.590832 
L 109.562749 190.726303 
L 109.767369 190.667074 
L 110.790467 189.927079 
L 112.222805 189.692883 
L 112.632045 189.786481 
L 113.041284 190.138535 
L 113.450524 190.444763 
L 113.859763 190.254874 
L 114.269003 189.784419 
L 115.087482 188.524221 
L 115.496721 188.358476 
L 117.133679 189.146272 
L 117.542918 189.036835 
L 118.156778 188.451759 
L 118.770637 187.852821 
L 119.179876 187.609574 
L 119.384496 187.600237 
L 119.589116 187.807139 
L 119.998355 188.849867 
L 120.407595 189.854876 
L 120.612214 190.063582 
L 120.816834 190.074637 
L 121.635313 189.601318 
L 122.249172 190.129714 
L 122.658412 190.133036 
L 123.067651 190.115107 
L 123.47689 190.365457 
L 124.295369 191.058652 
L 124.909229 191.324754 
L 125.113848 191.279043 
L 125.523088 190.698235 
L 126.341567 189.009254 
L 126.546186 188.864446 
L 126.750806 188.917918 
L 127.364665 189.425692 
L 128.592384 189.749277 
L 129.410863 189.360592 
L 131.04782 189.840297 
L 131.45706 189.650409 
L 132.070919 188.824492 
L 133.094018 187.33846 
L 133.298637 187.310678 
L 133.503257 187.504319 
L 133.912497 188.411977 
L 134.730975 190.380665 
L 135.344835 191.295855 
L 135.549454 191.407984 
L 135.958694 191.211537 
L 137.800271 189.835457 
L 138.41413 189.573221 
L 138.82337 189.466162 
L 139.641849 189.628756 
L 140.255708 189.39814 
L 140.664947 189.797193 
L 140.869567 190.001889 
L 141.074187 190.047686 
L 141.892666 189.737906 
L 142.506525 189.947758 
L 142.915764 189.81495 
L 143.325004 189.690047 
L 143.734243 190.02062 
L 144.552722 190.828923 
L 144.961962 191.074347 
L 145.575821 191.100983 
L 145.98506 190.774849 
L 147.008159 189.459775 
L 147.622018 188.845113 
L 148.031258 188.539773 
L 148.235877 188.618907 
L 149.054356 189.617471 
L 149.463596 189.580811 
L 149.872835 189.217301 
L 150.486694 188.50907 
L 150.895934 188.415214 
L 151.100554 188.463674 
L 151.509793 188.923131 
L 152.532892 190.37001 
L 152.942131 190.861488 
L 153.146751 190.897318 
L 153.55599 190.536844 
L 153.96523 190.175911 
L 154.169849 190.21956 
L 154.579089 190.658968 
L 154.988328 191.119027 
L 155.192948 191.194094 
L 155.602188 190.978113 
L 156.625286 189.923012 
L 157.239145 189.875239 
L 159.285343 188.86983 
L 159.489962 188.987573 
L 160.103822 189.691107 
L 160.513061 189.699384 
L 162.763878 188.443425 
L 162.968498 188.556929 
L 163.377737 189.152573 
L 163.786977 189.814062 
L 164.196216 190.076041 
L 164.810075 190.092051 
L 165.423934 189.949219 
L 165.628554 190.061033 
L 166.037794 190.760357 
L 166.651653 192.110488 
L 166.856273 192.265463 
L 168.083991 192.259907 
L 169.10709 191.606752 
L 170.130188 191.532773 
L 171.153287 192.151215 
L 171.562526 192.11633 
L 171.971766 191.721659 
L 173.404104 189.657884 
L 173.608723 189.629443 
L 174.017963 189.965659 
L 174.427202 190.293081 
L 174.836442 190.234969 
L 175.245681 190.118945 
L 175.450301 190.153457 
L 175.85954 190.609219 
L 176.4734 191.71742 
L 176.678019 191.855068 
L 177.087259 191.752276 
L 177.701118 191.451461 
L 178.519597 191.495511 
L 179.133456 191.164365 
L 179.542696 191.424224 
L 179.951935 192.050857 
L 180.565794 193.336174 
L 180.770414 193.447472 
L 180.975034 193.277231 
L 181.588893 192.077207 
L 183.225851 188.57397 
L 183.63509 188.344642 
L 184.04433 188.320154 
L 184.453569 188.530522 
L 185.067428 189.177662 
L 185.476668 189.248778 
L 185.885907 189.077562 
L 186.295147 188.778867 
L 186.499766 188.746531 
L 186.909006 189.109583 
L 187.318245 189.363542 
L 187.727485 189.087043 
L 188.136724 188.781015 
L 188.341344 188.809942 
L 188.750583 189.309067 
L 189.159823 189.815351 
L 189.364442 189.799112 
L 190.592161 188.72147 
L 191.41064 187.30664 
L 191.615259 187.206225 
L 191.819879 187.251105 
L 192.842978 188.182707 
L 193.866076 189.224776 
L 194.275316 189.156325 
L 194.479936 189.243422 
L 195.298415 190.074838 
L 195.503034 189.882571 
L 196.730753 187.668403 
L 197.139992 187.484414 
L 197.549232 187.519699 
L 197.958471 187.788609 
L 198.98157 188.690653 
L 199.595429 189.076274 
L 200.004668 189.208824 
L 200.823147 189.760962 
L 201.232387 189.670973 
L 201.641626 189.192699 
L 202.664725 187.225414 
L 203.073964 186.582312 
L 203.483204 186.488714 
L 203.892443 186.773805 
L 205.324781 188.025841 
L 205.734021 187.974688 
L 206.14326 187.664966 
L 206.961739 186.651108 
L 207.780218 186.241199 
L 208.189457 185.914264 
L 208.598697 185.859302 
L 209.007936 185.906874 
L 209.417176 186.252197 
L 209.826415 187.006168 
L 211.463373 190.697261 
L 211.872612 190.843272 
L 212.281852 190.657593 
L 213.30495 189.776944 
L 213.71419 189.699957 
L 214.123429 190.022081 
L 214.532669 190.351423 
L 214.941908 190.417297 
L 215.351148 190.245995 
L 215.965007 189.841644 
L 216.374246 190.066303 
L 216.783486 190.395214 
L 218.420444 190.807242 
L 218.829683 190.289616 
L 219.852782 188.230652 
L 222.103599 187.481779 
L 223.126697 186.40746 
L 223.945176 186.13709 
L 224.354416 185.824303 
L 224.559035 185.867522 
L 225.377514 186.844405 
L 225.582134 186.720275 
L 225.991374 185.908478 
L 226.605233 184.634733 
L 227.832951 182.853986 
L 228.44681 181.165693 
L 229.060669 179.957764 
L 229.879148 177.631896 
L 230.288388 175.662406 
L 230.902247 171.315695 
L 231.516106 164.621378 
L 232.129965 155.525982 
L 232.743825 141.798726 
L 233.766923 115.435518 
L 233.971543 113.397433 
L 234.176163 113.490315 
L 234.380782 115.755694 
L 234.790022 125.266154 
L 235.81312 153.629011 
L 236.42698 164.999552 
L 237.040839 171.641142 
L 237.654698 175.459371 
L 238.473177 179.103063 
L 239.087036 180.828704 
L 239.496276 181.344584 
L 239.700895 181.39187 
L 240.110135 181.062099 
L 240.519374 180.353552 
L 241.337853 178.339698 
L 241.747093 177.32266 
L 242.156332 176.913039 
L 242.770191 176.911062 
L 242.974811 176.678499 
L 243.38405 175.645594 
L 243.79329 174.055338 
L 244.407149 170.436421 
L 245.021008 165.445977 
L 245.430248 160.169355 
L 246.044107 147.989709 
L 246.862586 129.029049 
L 247.067205 126.10473 
L 247.271825 124.821533 
L 247.476445 125.426056 
L 247.681065 127.85443 
L 248.090304 136.576807 
L 249.113403 159.954605 
L 249.727262 169.403717 
L 250.341121 175.698551 
L 250.95498 179.29447 
L 252.182699 184.623563 
L 252.591938 186.262422 
L 252.796558 186.649332 
L 253.001177 186.783257 
L 253.819656 186.819029 
L 254.638135 187.119243 
L 255.661234 187.518411 
L 256.070473 188.008456 
L 256.888952 189.327941 
L 257.298192 189.338338 
L 258.116671 188.971849 
L 258.73053 188.18222 
L 259.139769 187.702314 
L 259.549009 187.570737 
L 260.367488 187.798719 
L 261.390586 187.538402 
L 262.004445 187.817135 
L 263.027544 187.643571 
L 263.641403 187.474676 
L 263.846023 187.590385 
L 264.459882 188.249841 
L 264.664502 188.189065 
L 265.073741 187.580962 
L 265.482981 186.984688 
L 265.687601 186.893266 
L 265.89222 186.963751 
L 266.30146 187.541982 
L 267.529178 189.953057 
L 267.938418 190.304595 
L 268.143037 190.366631 
L 268.347657 190.277873 
L 268.756896 189.512073 
L 269.370756 188.197171 
L 269.779995 187.966211 
L 270.189235 188.244457 
L 270.803094 189.227354 
L 271.212333 189.922096 
L 271.416953 190.067219 
L 271.621573 189.954546 
L 272.030812 189.061753 
L 272.440052 188.285728 
L 273.66777 187.741208 
L 274.281629 187.612868 
L 274.690869 187.085131 
L 275.304728 186.228884 
L 275.713967 185.939754 
L 276.123207 186.123371 
L 277.146305 186.824958 
L 277.760164 187.238303 
L 278.169404 187.516348 
L 278.783263 187.536655 
L 279.192503 188.175575 
L 279.601742 188.660723 
L 279.806362 188.555611 
L 280.420221 187.544015 
L 281.852559 185.278952 
L 282.466418 184.655039 
L 283.489517 182.977142 
L 283.898756 183.156291 
L 284.307996 183.239808 
L 285.126475 182.733179 
L 285.535714 182.563539 
L 285.944954 182.356724 
L 286.149573 182.460919 
L 286.558813 183.249746 
L 286.968052 184.015345 
L 287.377292 184.277552 
L 288.40039 184.446247 
L 288.60501 184.35852 
L 289.014249 183.732832 
L 289.423489 182.984732 
L 289.832728 182.650464 
L 290.446587 182.312674 
L 290.855827 181.645972 
L 291.265066 180.944328 
L 291.674306 180.707038 
L 292.083545 180.59889 
L 293.106644 179.42301 
L 293.515883 179.282956 
L 293.925123 178.88903 
L 294.334362 177.962154 
L 294.948221 175.697148 
L 296.17594 170.287746 
L 296.789799 165.896871 
L 297.403658 159.858888 
L 298.222137 148.626882 
L 299.245236 134.770256 
L 300.677574 120.467232 
L 301.291433 111.895105 
L 301.496053 110.079016 
L 301.700672 109.294084 
L 301.905292 109.616007 
L 302.314532 112.661391 
L 302.928391 118.327186 
L 303.33763 120.125604 
L 303.54225 120.065945 
L 303.74687 119.319936 
L 304.156109 115.925105 
L 304.565349 110.153969 
L 305.179208 96.89608 
L 306.202306 71.44156 
L 306.816166 62.449185 
L 307.225405 56.967064 
L 307.634645 47.576953 
L 308.248504 24.11939 
L 308.657743 8.922571 
L 308.862363 4.373541 
L 309.066983 3.00024 
L 309.271602 5.131293 
L 309.680842 18.599922 
L 310.90856 74.317333 
L 311.3178 84.605049 
L 311.727039 89.901463 
L 312.136279 91.908586 
L 312.954757 93.357185 
L 313.363997 93.847287 
L 313.773236 93.844366 
L 314.182476 93.521411 
L 314.591715 92.670462 
L 315.000955 91.938316 
L 315.205574 92.307153 
L 315.410194 93.507062 
L 315.819434 98.796516 
L 317.047152 120.136144 
L 317.456391 122.956754 
L 317.661011 123.325448 
L 317.865631 123.111071 
L 318.47949 120.949201 
L 318.68411 120.820947 
L 318.88873 121.310047 
L 319.297969 123.868737 
L 320.321068 132.196587 
L 320.525687 132.724037 
L 320.730307 132.838515 
L 320.934927 132.620758 
L 321.344166 131.351652 
L 321.958025 127.947226 
L 322.571885 123.243679 
L 322.981124 118.591398 
L 323.594983 107.797799 
L 325.027321 77.70446 
L 325.231941 76.451107 
L 325.436561 76.261705 
L 325.641181 77.113943 
L 326.05042 81.693704 
L 327.278138 100.512878 
L 327.891997 105.274137 
L 328.915096 113.074736 
L 330.142814 124.467532 
L 330.552054 125.952303 
L 330.756674 126.058847 
L 330.961293 125.88895 
L 331.165913 125.484827 
L 331.575153 123.814835 
L 333.007491 115.057143 
L 333.41673 114.299993 
L 333.62135 114.334792 
L 333.82597 114.691943 
L 334.235209 116.483086 
L 334.644448 119.580282 
L 335.258308 126.217919 
L 336.076787 135.486106 
L 336.486026 138.463754 
L 336.895265 140.215373 
L 337.304505 141.126381 
L 337.918364 142.231547 
L 338.327604 142.949946 
L 338.532223 143.055487 
L 338.736843 142.877255 
L 339.146082 141.767794 
L 339.759942 138.912327 
L 341.19228 130.718775 
L 341.396899 130.174283 
L 341.601519 130.008853 
L 341.806139 130.267452 
L 342.215378 131.766086 
L 342.829238 133.989706 
L 343.238477 134.381055 
L 343.443097 134.459044 
L 343.647716 134.721022 
L 343.852336 135.36126 
L 344.261576 138.088072 
L 345.693914 151.084097 
L 345.898533 151.815012 
L 346.103153 152.074527 
L 346.307773 151.89197 
L 346.512393 151.303343 
L 346.921632 149.152786 
L 348.76321 137.524562 
L 350.195548 130.971702 
L 350.400167 130.765517 
L 350.604787 131.02317 
L 351.014027 132.518625 
L 351.832506 136.495181 
L 352.241745 137.244168 
L 352.446365 137.236865 
L 352.855604 137.055282 
L 353.060224 137.231137 
L 353.469463 138.452097 
L 354.083323 141.782658 
L 354.492562 143.887476 
L 354.901801 144.787802 
L 355.106421 144.783076 
L 355.311041 144.470232 
L 355.515661 143.794222 
L 355.9249 141.229918 
L 356.33414 136.910216 
L 356.743379 130.516656 
L 358.175717 103.679556 
L 358.380337 102.286006 
L 358.584957 101.940969 
L 358.789576 102.504249 
L 359.198816 105.347199 
L 360.017295 113.785059 
L 361.040393 126.168284 
L 362.268112 143.085159 
L 362.881971 147.848767 
L 363.49583 151.175863 
L 363.905069 152.682544 
L 364.314309 153.395845 
L 364.518929 153.327508 
L 364.723548 152.863583 
L 365.132788 150.70071 
L 366.360506 141.603051 
L 366.565126 140.923031 
L 366.769746 140.699776 
L 366.974365 140.858904 
L 367.383605 141.877546 
L 368.611323 145.245626 
L 369.225182 146.553111 
L 369.634422 147.044044 
L 370.248281 147.513325 
L 370.65752 148.465519 
L 371.475999 151.34788 
L 372.703718 156.438136 
L 373.726816 158.231427 
L 374.340675 158.443599 
L 374.749915 159.063015 
L 376.182253 162.208299 
L 376.796112 162.167858 
L 377.000732 162.428174 
L 377.409971 163.541216 
L 378.842309 168.515821 
L 379.251549 169.160928 
L 379.456169 169.285401 
L 379.660788 169.212453 
L 379.865408 168.916163 
L 380.274648 167.743978 
L 381.093126 164.918928 
L 381.502366 164.336602 
L 381.706986 164.392824 
L 382.116225 165.156934 
L 382.525465 166.091428 
L 382.730084 166.328202 
L 382.934704 166.367899 
L 383.139324 166.203013 
L 383.343943 165.773686 
L 383.753183 163.964872 
L 384.776282 158.472297 
L 385.185521 157.183544 
L 386.004 155.833012 
L 386.617859 155.043927 
L 386.822479 154.999534 
L 387.027099 155.264634 
L 387.231718 155.970001 
L 387.640958 158.907638 
L 388.664056 168.892792 
L 389.277916 172.181079 
L 389.891775 174.136134 
L 390.301014 174.767723 
L 390.710254 175.153401 
L 391.119493 176.019472 
L 391.733352 177.764618 
L 392.142592 178.339784 
L 392.961071 178.918072 
L 393.16569 178.847157 
L 393.37031 178.507648 
L 393.984169 176.380433 
L 394.393409 175.069082 
L 394.802648 174.356927 
L 395.416507 173.441135 
L 395.825747 172.545305 
L 396.439606 170.230922 
L 397.053465 168.060546 
L 397.462705 167.312618 
L 397.667324 167.26473 
L 397.871944 167.55933 
L 398.281184 168.991861 
L 398.690423 170.478838 
L 399.099662 171.149006 
L 399.713522 171.441887 
L 400.122761 171.467034 
L 400.73662 171.288859 
L 401.350479 171.10255 
L 401.964339 171.302177 
L 402.373578 171.471817 
L 402.578198 171.408864 
L 402.987437 170.886942 
L 403.601296 169.52123 
L 404.419775 166.98319 
L 404.829015 165.107041 
L 405.238254 162.226342 
L 405.852113 155.868784 
L 406.465973 147.814255 
L 407.079832 136.065424 
L 408.10293 114.333073 
L 408.30755 112.305672 
L 408.51217 111.509312 
L 408.71679 111.721942 
L 409.739888 115.763227 
L 410.149128 116.412859 
L 410.353747 117.015148 
L 410.762987 119.763812 
L 411.376846 127.281526 
L 412.809184 148.41514 
L 413.218424 151.426442 
L 413.627663 152.774968 
L 413.832283 152.763942 
L 414.036902 152.251471 
L 414.446142 149.765013 
L 414.855381 145.285867 
L 415.67386 134.471818 
L 416.0831 131.506771 
L 416.492339 130.253819 
L 416.696959 130.114166 
L 416.901579 130.299415 
L 417.106198 130.83182 
L 417.515438 133.087805 
L 418.129297 139.379259 
L 419.357015 155.715556 
L 420.175494 167.164143 
L 420.789353 172.634436 
L 421.403213 175.677214 
L 422.017072 177.428546 
L 422.630931 178.586582 
L 422.835551 178.748804 
L 423.04017 178.675197 
L 423.24479 178.350295 
L 423.65403 177.00804 
L 424.677128 171.843003 
L 425.495607 166.528459 
L 426.314086 161.253498 
L 426.927945 159.131753 
L 427.132565 158.738457 
L 427.337185 158.767814 
L 427.541804 159.372623 
L 427.951044 162.13747 
L 429.383382 173.965492 
L 430.406481 180.975918 
L 431.02034 183.610764 
L 432.043438 186.952954 
L 432.657298 188.019855 
L 433.066537 188.305605 
L 433.475777 188.298702 
L 433.885016 188.180015 
L 434.089636 188.293375 
L 434.498875 188.971591 
L 435.112734 189.93908 
L 435.931213 190.463322 
L 436.340453 191.323036 
L 436.749692 192.351873 
L 436.954312 192.64063 
L 437.158932 192.736033 
L 437.568171 192.493101 
L 438.59127 191.432043 
L 439.409749 190.959526 
L 439.614368 191.002229 
L 439.818988 191.21463 
L 440.228228 192.109657 
L 440.842087 193.537261 
L 441.046706 193.722282 
L 441.251326 193.711971 
L 441.660566 193.362695 
L 443.092904 191.625598 
L 443.297523 191.652692 
L 443.706763 192.195952 
L 444.116002 192.871562 
L 444.525242 193.176186 
L 445.54834 193.551181 
L 445.95758 193.634039 
L 446.366819 193.308306 
L 446.980678 192.637795 
L 447.389918 192.513436 
L 448.617636 193.182687 
L 449.026876 193.080898 
L 450.254594 192.153506 
L 450.663834 191.735149 
L 451.073073 191.698288 
L 451.482312 191.652463 
L 452.096172 191.335093 
L 452.505411 191.450545 
L 453.32389 192.049168 
L 453.937749 192.162929 
L 454.346989 192.571778 
L 454.756228 193.08906 
L 454.960848 193.19907 
L 455.165468 193.107047 
L 455.574707 192.408754 
L 456.393186 190.779947 
L 456.597806 190.588798 
L 456.802425 190.618842 
L 457.211665 191.213456 
L 457.825524 192.347949 
L 458.439383 192.914408 
L 459.053242 193.265145 
L 459.462482 193.132136 
L 460.89482 192.020441 
L 461.304059 192.057617 
L 461.713299 192.349782 
L 462.531778 193.021497 
L 463.145637 193.107963 
L 463.350257 193.051312 
L 463.554876 192.875113 
L 463.964116 192.018894 
L 464.373355 191.261859 
L 464.577975 191.268561 
L 465.396454 192.256757 
L 465.601074 192.246818 
L 466.010313 191.732056 
L 466.419553 191.086949 
L 466.624172 190.960299 
L 468.26113 191.030813 
L 468.67037 190.626633 
L 469.284229 189.744293 
L 469.488848 189.664844 
L 469.693468 189.708034 
L 470.102708 190.142172 
L 470.716567 190.880076 
L 471.739665 191.449657 
L 472.148905 191.711549 
L 472.558144 191.582379 
L 473.172004 191.383496 
L 473.581243 191.599907 
L 473.990482 192.195179 
L 474.808961 193.51412 
L 475.013581 193.670556 
L 475.218201 193.663453 
L 475.422821 193.473478 
L 476.445919 191.840948 
L 477.264398 192.447763 
L 478.082877 191.959178 
L 478.492116 192.0683 
L 479.310595 192.421499 
L 480.129074 193.326264 
L 480.538314 193.374409 
L 481.356793 193.731217 
L 482.584511 192.355854 
L 483.40299 191.531255 
L 484.016849 190.866529 
L 484.426088 190.757407 
L 486.267666 191.184671 
L 486.881525 191.685829 
L 487.495384 191.793605 
L 488.518483 191.656501 
L 489.336962 191.006239 
L 489.746201 191.108 
L 490.360061 191.468331 
L 490.7693 191.783867 
L 490.97392 191.763733 
L 491.383159 191.245619 
L 491.792399 190.694941 
L 491.997018 190.651178 
L 492.610878 191.035395 
L 493.224737 191.436024 
L 493.633976 191.214544 
L 494.043216 190.960671 
L 494.452455 191.112812 
L 495.884793 191.74715 
L 496.294033 191.343285 
L 496.907892 190.780835 
L 497.317131 190.683972 
L 497.726371 191.074977 
L 498.54485 192.073341 
L 499.567948 193.088745 
L 499.977188 193.186783 
L 500.795667 192.785123 
L 501.204906 193.039626 
L 501.614146 193.449649 
L 502.023385 193.559057 
L 502.637244 193.550179 
L 503.251103 193.66457 
L 503.864963 193.31455 
L 504.478822 193.033211 
L 504.888061 192.848105 
L 505.70654 192.076863 
L 506.320399 191.319026 
L 506.934258 191.00475 
L 508.775836 190.708746 
L 510.208174 191.106797 
L 510.617414 191.002086 
L 511.231273 190.602889 
L 511.640512 190.263753 
L 511.845132 190.258913 
L 512.254371 190.572874 
L 512.868231 191.450831 
L 513.48209 192.22528 
L 513.686709 192.342049 
L 514.095949 192.143253 
L 514.505188 191.947349 
L 515.119048 192.108511 
L 516.960625 192.582862 
L 517.779104 192.27039 
L 518.392963 192.364733 
L 519.211442 192.49313 
L 519.416062 192.250742 
L 519.825301 191.139734 
L 520.43916 189.569613 
L 520.8484 189.177977 
L 521.462259 188.985281 
L 521.871498 189.21627 
L 522.485358 189.581814 
L 522.894597 189.645683 
L 523.099217 189.550996 
L 523.508456 188.960163 
L 523.917696 188.303772 
L 524.122315 188.1976 
L 524.326935 188.302397 
L 525.145414 189.20089 
L 525.350034 189.197482 
L 526.168513 188.603556 
L 526.577752 188.879052 
L 527.396231 189.872604 
L 527.600851 189.953314 
L 527.805471 189.903766 
L 528.21471 189.458629 
L 528.828569 188.810286 
L 529.237809 188.738111 
L 529.647048 188.748994 
L 530.465527 188.221573 
L 530.874766 188.451129 
L 531.693245 189.466104 
L 531.897865 189.402207 
L 532.511724 188.967496 
L 533.125583 189.090451 
L 534.148682 188.505919 
L 534.557922 188.937623 
L 535.171781 189.909179 
L 535.78564 191.075292 
L 536.194879 191.201455 
L 536.808739 191.000625 
L 537.422598 190.355518 
L 538.445696 189.139599 
L 538.650316 189.211315 
L 539.468795 190.076413 
L 539.878034 189.870943 
L 540.491894 189.344553 
L 540.696513 189.305973 
L 541.105753 189.546986 
L 541.514992 189.838751 
L 541.719612 189.855849 
L 542.128851 189.567665 
L 543.15195 188.512363 
L 543.56119 188.316632 
L 543.765809 188.459149 
L 544.788908 189.741687 
L 544.993528 189.806072 
L 545.402767 189.536733 
L 545.812007 189.213778 
L 546.221246 189.073266 
L 546.425866 189.138453 
L 547.244345 189.861979 
L 547.448964 189.797451 
L 547.858204 189.31637 
L 548.676683 188.13396 
L 549.085922 187.964062 
L 549.699781 187.853251 
L 550.313641 187.445319 
L 550.72288 187.293809 
L 551.336739 187.501856 
L 551.745979 187.182625 
L 552.359838 186.486824 
L 552.769077 186.446469 
L 553.587556 186.434468 
L 553.996796 186.422611 
L 554.406035 186.758368 
L 555.224514 187.85769 
L 556.042993 187.982364 
L 556.247613 187.973772 
L 556.452232 187.801898 
L 557.270711 186.449046 
L 557.679951 186.467262 
L 558.08919 186.622724 
L 558.49843 186.524257 
L 559.521528 185.898597 
L 559.930768 186.066605 
L 560.544627 186.418429 
L 560.953866 186.531646 
L 562.386204 187.67837 
L 562.795444 187.437701 
L 563.204683 187.135282 
L 563.409303 187.145678 
L 563.818542 187.506095 
L 564.227782 187.919182 
L 564.637021 187.805077 
L 565.046261 187.652192 
L 566.069359 187.561945 
L 566.478599 187.852564 
L 567.297078 188.7809 
L 567.910937 188.956268 
L 568.320176 188.747104 
L 569.343275 187.835264 
L 569.957134 187.622835 
L 570.366374 187.076711 
L 571.594092 184.822731 
L 571.798712 184.740532 
L 572.207951 185.058389 
L 572.82181 185.662654 
L 573.02643 185.683905 
L 573.43567 185.399501 
L 573.844909 185.043438 
L 574.254149 184.999646 
L 574.663388 185.252087 
L 575.481867 186.341013 
L 575.686487 186.410295 
L 575.891106 186.353672 
L 576.095726 186.108993 
L 577.118825 184.008385 
L 577.323444 183.939476 
L 577.528064 184.001798 
L 577.937304 184.488177 
L 578.346543 185.039972 
L 578.551163 185.120339 
L 578.960402 184.852403 
L 579.369642 184.695108 
L 580.188121 185.115814 
L 580.59736 185.066809 
L 581.211219 184.6744 
L 582.438938 183.858966 
L 582.848177 183.996442 
L 583.257417 184.480702 
L 584.280515 186.120965 
L 584.485135 186.060275 
L 584.894374 185.361094 
L 585.712853 183.485575 
L 586.122093 183.280592 
L 586.531332 183.107974 
L 587.145191 182.168038 
L 587.554431 181.739484 
L 588.16829 181.388805 
L 588.37291 181.041334 
L 588.782149 179.72583 
L 589.396008 177.844468 
L 590.009868 176.609646 
L 590.419107 175.157611 
L 591.237586 171.33036 
L 591.646825 168.755745 
L 592.056065 165.04406 
L 592.669924 156.602048 
L 593.283783 143.994994 
L 594.102262 126.262226 
L 594.306882 123.818787 
L 594.511502 122.90248 
L 594.716121 123.633309 
L 595.125361 129.35756 
L 596.557699 156.909851 
L 597.376178 165.837584 
L 598.194657 173.427988 
L 598.603896 175.831416 
L 599.013135 177.006666 
L 599.422375 177.302698 
L 600.240854 177.362357 
L 600.854713 177.981229 
L 602.082431 179.419058 
L 602.491671 180.171855 
L 603.10553 181.49787 
L 603.31015 181.493029 
L 603.924009 180.903142 
L 604.537868 180.777008 
L 605.151727 180.466569 
L 605.560967 180.599348 
L 605.970206 180.849927 
L 606.584065 180.801352 
L 606.993305 180.558249 
L 607.811784 179.702774 
L 608.016403 179.67316 
L 609.039502 180.037672 
L 609.448742 180.165983 
L 609.857981 180.398948 
L 610.062601 180.371023 
L 610.47184 179.876109 
L 611.085699 178.988442 
L 611.494939 178.834841 
L 612.108798 178.750207 
L 612.927277 179.031976 
L 613.336516 178.97733 
L 613.745756 178.816511 
L 613.950376 178.853086 
L 614.359615 179.356048 
L 614.973474 180.351805 
L 615.587333 180.794221 
L 615.996573 180.947621 
L 616.610432 180.840447 
L 617.019671 181.216158 
L 617.428911 181.60808 
L 617.633531 181.65465 
L 617.83815 181.537681 
L 618.04277 181.210774 
L 618.45201 179.883155 
L 619.065869 177.551644 
L 619.475108 176.647738 
L 619.884348 176.190974 
L 620.088967 176.150991 
L 620.293587 176.320201 
L 620.702827 177.122031 
L 622.135165 180.567242 
L 622.749024 181.200635 
L 623.362883 181.551629 
L 623.772122 181.842763 
L 624.795221 181.886555 
L 624.999841 181.626725 
L 625.81832 179.643946 
L 626.227559 178.172693 
L 626.841418 175.877814 
L 627.250658 175.23033 
L 627.455278 175.174881 
L 627.659897 175.292338 
L 628.069137 176.068018 
L 628.682996 178.245097 
L 629.296855 180.2379 
L 629.910714 181.325251 
L 630.524573 181.942519 
L 630.729193 181.975685 
L 631.547672 181.677677 
L 631.956912 182.006073 
L 632.77539 182.988398 
L 632.98001 182.920147 
L 633.593869 182.202034 
L 634.003109 181.836691 
L 634.412348 181.804298 
L 635.435447 182.000947 
L 635.844686 181.73347 
L 636.867785 180.751804 
L 637.686264 180.25583 
L 638.095503 179.991274 
L 638.709362 179.874133 
L 639.118602 180.05815 
L 639.527841 180.168246 
L 639.732461 180.017251 
L 642.392518 176.187565 
L 642.597137 176.158924 
L 643.210996 176.557835 
L 643.620236 177.100951 
L 644.234095 178.13039 
L 644.438715 178.237622 
L 645.461813 178.124318 
L 645.666433 178.317301 
L 646.484912 179.69444 
L 646.689532 179.582483 
L 647.508011 178.50149 
L 647.91725 178.581312 
L 648.940349 179.065286 
L 649.349588 179.080294 
L 649.963447 178.754532 
L 650.577307 178.138152 
L 650.986546 177.471335 
L 651.600405 176.210335 
L 651.805025 176.103189 
L 653.032743 176.479187 
L 653.441983 176.768259 
L 653.646603 176.752421 
L 654.055842 176.37923 
L 654.465081 175.689243 
L 655.48818 173.32385 
L 656.306659 173.293176 
L 657.943617 171.694099 
L 658.148237 171.426793 
L 658.557476 170.181803 
L 659.171335 167.551397 
L 659.580575 166.734015 
L 659.785194 166.611546 
L 660.194434 166.709097 
L 660.808293 167.128887 
L 661.422152 167.978575 
L 662.240631 169.336897 
L 662.445251 169.309603 
L 662.85449 168.718226 
L 663.468349 167.405987 
L 665.309927 164.947913 
L 665.719166 164.086195 
L 666.128406 162.57347 
L 667.151505 157.213817 
L 667.765364 152.861407 
L 668.379223 148.388475 
L 668.583843 147.556601 
L 668.788462 147.261801 
L 668.993082 147.436882 
L 670.42542 150.559511 
L 670.83466 150.770136 
L 671.039279 150.595914 
L 671.243899 150.157021 
L 671.653139 148.455381 
L 672.880857 141.553617 
L 673.494716 136.138401 
L 674.313195 126.136751 
L 675.131674 113.519014 
L 675.745533 99.893376 
L 676.359392 79.338451 
L 676.973251 49.307693 
L 677.587111 5.3406 
L 677.656006 -1 
M 681.963605 -1 
L 682.497984 37.438657 
L 683.111843 65.060202 
L 683.725702 81.614484 
L 684.339562 90.824472 
L 685.15804 101.111415 
L 686.385759 119.712688 
L 686.999618 125.400508 
L 687.818097 130.735873 
L 688.431956 135.082412 
L 689.659674 145.132094 
L 690.068914 146.850346 
L 690.478153 147.663489 
L 691.910491 149.808118 
L 692.319731 150.27273 
L 693.13821 152.137509 
L 694.161308 154.223137 
L 694.775168 155.014255 
L 694.979787 155.142251 
L 695.184407 155.04493 
L 695.593647 154.11791 
L 696.002886 153.033395 
L 696.616745 152.283863 
L 697.435224 151.423549 
L 697.844464 151.267055 
L 698.458323 151.258291 
L 698.867562 150.746278 
L 699.481421 149.877429 
L 699.686041 149.747542 
L 699.890661 149.767419 
L 700.095281 149.977385 
L 700.913759 151.394564 
L 701.118379 151.385686 
L 701.322999 151.136052 
L 702.550717 148.508395 
L 702.959957 148.426768 
L 703.369196 148.625078 
L 703.778436 148.968625 
L 703.983055 149.013247 
L 704.801534 148.693959 
L 705.210774 148.891782 
L 705.415393 148.736605 
L 705.824633 147.781117 
L 706.643112 145.285523 
L 707.052351 143.024699 
L 707.66621 137.729402 
L 708.484689 128.244833 
L 708.893929 122.400148 
L 709.303168 113.945047 
L 709.917027 95.31708 
L 710.735506 69.590128 
L 710.940126 67.216974 
L 711.144746 67.500347 
L 711.349366 70.379156 
L 711.758605 81.857788 
L 712.781704 113.567044 
L 713.395563 124.556175 
L 714.009422 130.93676 
L 715.032521 137.841731 
L 716.669478 146.56852 
L 717.692577 150.838731 
L 718.101816 151.595652 
L 718.715676 152.138683 
L 719.124915 152.274698 
L 719.738774 152.240329 
L 720.557253 152.606216 
L 720.966493 152.503224 
L 721.375732 152.173367 
L 721.784972 151.593819 
L 722.398831 149.993023 
L 723.01269 147.938098 
L 723.831169 143.953923 
L 724.445028 141.024563 
L 724.649648 140.630178 
L 724.854267 140.722803 
L 725.058887 141.271791 
L 725.672746 144.272467 
L 726.695845 149.32718 
L 727.309704 150.72159 
L 728.128183 152.364516 
L 728.537423 152.732007 
L 729.355901 153.021022 
L 729.560521 152.857683 
L 729.969761 152.049066 
L 732.220578 146.718884 
L 732.629817 144.564146 
L 733.857535 136.569962 
L 734.062155 136.208829 
L 734.266775 136.460353 
L 734.676014 138.282457 
L 735.699113 144.152834 
L 736.108352 145.342433 
L 737.336071 147.619926 
L 738.15455 148.605459 
L 739.177648 150.822921 
L 739.586888 150.952034 
L 739.996127 150.710277 
L 740.405367 150.028967 
L 741.019226 148.609268 
L 741.428465 148.13887 
L 742.246944 147.665923 
L 742.656184 146.631014 
L 743.065423 145.235889 
L 743.270043 144.861466 
L 743.474663 144.868627 
L 743.883902 145.816668 
L 744.497761 147.483109 
L 744.907001 148.101379 
L 745.52086 148.819377 
L 746.339339 150.044777 
L 747.362437 150.735652 
L 747.771677 150.601584 
L 748.590156 149.997778 
L 748.794776 150.099854 
L 749.408635 150.858436 
L 749.613254 150.896328 
L 750.431733 150.486677 
L 750.840973 150.475679 
L 752.068691 149.948343 
L 752.477931 149.549691 
L 752.88717 149.480752 
L 753.501029 149.622725 
L 753.910269 149.513604 
L 754.933367 148.91836 
L 755.751846 149.540383 
L 756.570325 150.019201 
L 756.979565 149.812127 
L 757.593424 149.288057 
L 758.207283 148.872306 
L 758.616522 148.260594 
L 759.230382 146.704306 
L 759.844241 144.914538 
L 760.4581 143.892832 
L 761.071959 143.276967 
L 761.276579 143.233834 
L 762.299677 143.557791 
L 763.322776 142.625302 
L 763.732016 142.601644 
L 764.345875 142.982339 
L 764.755114 143.356761 
L 764.959734 143.417508 
L 765.368973 143.108444 
L 766.187452 141.986868 
L 766.596692 140.663688 
L 767.005931 138.58479 
L 767.61979 133.99572 
L 768.23365 127.593912 
L 769.052128 115.650496 
L 769.665988 103.177396 
L 770.484467 78.942634 
L 771.098326 62.122049 
L 771.507565 57.314363 
L 771.712185 57.721894 
L 771.916805 59.977736 
L 772.326044 68.8066 
L 774.167622 118.241779 
L 774.986101 131.701873 
L 775.59996 138.605412 
L 776.213819 143.395942 
L 777.441537 150.688108 
L 777.646157 151.036582 
L 777.850777 150.876365 
L 778.260016 149.680666 
L 779.078495 146.602116 
L 779.692354 143.916518 
L 779.896974 143.399235 
L 780.101594 143.274361 
L 780.306213 143.566555 
L 780.715453 145.10984 
L 781.329312 148.703525 
L 783.375509 164.041372 
L 784.398608 169.285802 
L 784.807847 170.512519 
L 785.626326 171.803392 
L 786.240186 174.369758 
L 786.649425 175.839665 
L 787.058664 176.448942 
L 787.672524 176.639404 
L 788.081763 177.215257 
L 788.491003 177.855438 
L 789.104862 178.287972 
L 789.514101 178.392254 
L 789.923341 177.988876 
L 790.33258 177.525581 
L 790.5372 177.531109 
L 790.741819 177.756598 
L 791.764918 179.74459 
L 794.220355 181.531666 
L 794.834214 181.517317 
L 795.038834 181.531408 
L 795.243453 181.662526 
L 795.652693 182.361335 
L 796.266552 183.69872 
L 796.471172 183.783154 
L 796.675792 183.576882 
L 797.085031 182.564169 
L 798.926609 177.246017 
L 799.335848 176.390314 
L 799.745087 176.016579 
L 799.949707 176.049087 
L 800.358947 176.49176 
L 800.768186 177.211792 
L 801.177426 178.533768 
L 801.995904 181.645456 
L 803.019003 184.081448 
L 803.837482 186.717125 
L 804.246721 187.44993 
L 804.655961 187.531528 
L 805.0652 187.571081 
L 805.47444 187.691631 
L 805.883679 187.447381 
L 807.111398 186.309021 
L 807.316017 186.402447 
L 808.134496 187.384543 
L 808.339116 187.161832 
L 809.976074 184.119999 
L 810.385313 183.898319 
L 810.589933 183.806553 
L 810.999172 183.222022 
L 811.613032 181.501249 
L 813.249989 176.081737 
L 814.273088 171.218975 
L 815.091567 168.257251 
L 815.500806 167.316742 
L 816.114666 166.282835 
L 817.137764 163.908392 
L 817.751623 161.210995 
L 818.774722 155.536321 
L 819.388581 151.282979 
L 820.6163 141.7175 
L 821.639398 134.854145 
L 822.457877 127.257955 
L 823.276356 116.730629 
L 825.936413 78.537623 
L 826.754891 62.389899 
L 827.77799 37.819666 
L 828.596469 11.377037 
L 828.925178 -1 
M 930.546389 -1 
L 932.54329 60.380197 
L 933.157149 74.431267 
L 933.975628 87.675609 
L 934.794107 98.547856 
L 935.407966 104.227656 
L 935.817206 106.835608 
L 936.635685 110.793863 
L 938.477262 121.556674 
L 939.091121 124.204523 
L 939.704981 126.619263 
L 940.932699 132.338416 
L 941.751178 134.626622 
L 942.569657 136.924164 
L 943.388136 138.781381 
L 943.797375 139.649543 
L 945.638953 144.806447 
L 946.048192 145.243736 
L 947.071291 145.785736 
L 947.48053 146.782553 
L 948.912868 151.242825 
L 949.117488 151.504287 
L 949.322108 151.506493 
L 949.731347 151.004934 
L 950.140587 150.605823 
L 950.345206 150.66405 
L 950.549826 150.939719 
L 951.572925 153.194844 
L 951.982164 153.085808 
L 952.186784 153.02761 
L 952.391404 153.094543 
L 952.800643 153.671285 
L 953.823742 155.802423 
L 954.437601 156.4821 
L 954.84684 156.850937 
L 955.25608 157.59285 
L 956.074559 159.599172 
L 956.483798 159.983275 
L 956.893038 160.064472 
L 957.302277 160.087299 
L 957.711517 160.48386 
L 958.529995 161.718053 
L 959.348474 163.903666 
L 959.553094 163.93119 
L 959.962334 163.423645 
L 960.576193 162.618464 
L 960.985432 162.516961 
L 961.394672 162.826483 
L 962.008531 163.348234 
L 962.213151 163.406604 
L 962.41777 163.289262 
L 962.82701 162.617118 
L 963.236249 161.947323 
L 963.440869 161.852292 
L 963.645489 161.974245 
L 964.054728 162.750499 
L 964.668587 163.981913 
L 965.487066 165.093981 
L 965.896306 165.232059 
L 966.714785 165.027305 
L 967.942503 165.217481 
L 968.147123 165.090802 
L 968.556362 164.387525 
L 968.965602 162.978853 
L 969.579461 160.663553 
L 969.9887 159.881686 
L 970.19332 159.766177 
L 970.602559 159.910126 
L 971.216419 160.465358 
L 971.830278 161.536298 
L 972.648757 163.035046 
L 974.490334 165.218139 
L 975.308813 166.998141 
L 975.513433 167.15074 
L 975.922672 167.069457 
L 976.331912 166.991725 
L 977.35501 167.436003 
L 977.76425 166.930319 
L 978.378109 165.851761 
L 978.991968 165.22719 
L 979.401208 164.103637 
L 980.219687 160.861662 
L 980.424306 160.634425 
L 980.628926 160.86908 
L 981.038165 162.388077 
L 982.470504 169.074289 
L 983.084363 170.697196 
L 983.698222 171.827594 
L 984.516701 172.811293 
L 984.92594 172.976351 
L 986.153659 172.859954 
L 986.767518 172.32437 
L 987.176757 172.05801 
L 987.995236 172.007716 
L 989.018335 172.087166 
L 989.427574 171.700571 
L 990.041433 170.860019 
L 990.246053 170.926838 
L 991.473771 172.419114 
L 992.087631 172.597117 
L 993.315349 173.549254 
L 994.133828 173.734446 
L 994.952307 173.791126 
L 995.975405 174.007279 
L 996.384645 174.512733 
L 996.793884 175.404266 
L 997.407744 176.841608 
L 997.612363 176.960582 
L 997.816983 176.882422 
L 998.226222 176.366055 
L 998.840082 175.516424 
L 999.044701 175.402032 
L 999.249321 175.448745 
L 999.658561 176.011854 
L 1000.0678 176.590657 
L 1000.681659 176.860254 
L 1001.295518 176.9619 
L 1001.909378 176.969891 
L 1002.523237 177.230408 
L 1002.932476 177.383408 
L 1003.341716 177.305533 
L 1003.750955 177.160696 
L 1004.569434 177.345974 
L 1004.978673 177.57155 
L 1005.797152 178.718359 
L 1006.001772 178.563526 
L 1006.615631 177.497227 
L 1006.820251 177.438685 
L 1008.047969 177.845872 
L 1008.457209 177.894733 
L 1009.275688 178.613533 
L 1009.889547 178.394173 
L 1010.503406 178.298913 
L 1011.731124 178.833782 
L 1012.754223 179.540123 
L 1012.958843 179.425387 
L 1014.186561 177.937036 
L 1014.80042 177.250399 
L 1015.20966 177.158119 
L 1015.823519 177.290926 
L 1016.641998 177.100636 
L 1017.460477 177.606491 
L 1017.869716 177.399504 
L 1018.892815 176.223596 
L 1019.097435 176.272972 
L 1019.711294 176.940276 
L 1020.939012 178.588387 
L 1021.348252 178.467092 
L 1021.757491 177.888003 
L 1022.37135 176.913296 
L 1022.78059 176.745461 
L 1022.985209 176.754368 
L 1023.189829 176.890241 
L 1023.599069 177.641777 
L 1024.212928 178.976299 
L 1025.031407 180.101112 
L 1025.440646 180.148484 
L 1026.259125 180.005652 
L 1026.872984 180.154212 
L 1027.282224 180.47519 
L 1028.714562 182.049693 
L 1029.123801 182.047746 
L 1029.73766 181.618591 
L 1029.94228 181.653647 
L 1030.760759 182.431219 
L 1030.965379 182.372419 
L 1031.374618 181.879738 
L 1031.988477 181.148165 
L 1032.397717 180.63492 
L 1033.420815 178.86122 
L 1034.034675 178.542074 
L 1034.239294 178.624417 
L 1034.648534 179.437732 
L 1035.467013 181.528143 
L 1035.876252 181.878564 
L 1036.899351 182.057455 
L 1037.30859 182.225491 
L 1037.71783 182.061322 
L 1038.127069 181.848119 
L 1038.536309 182.028986 
L 1039.354788 182.713446 
L 1041.810224 182.537276 
L 1044.470281 183.221162 
L 1045.08414 182.988684 
L 1045.493379 183.120919 
L 1045.902619 183.301156 
L 1046.107239 183.209248 
L 1046.925717 182.462924 
L 1047.334957 182.515967 
L 1047.948816 182.91207 
L 1048.358056 183.304593 
L 1049.176534 184.366196 
L 1049.381154 184.316361 
L 1050.404253 183.422279 
L 1051.018112 183.088011 
L 1051.427351 183.231616 
L 1051.836591 183.50001 
L 1052.041211 183.521548 
L 1052.24583 183.428064 
L 1052.65507 182.883057 
L 1053.473549 181.556469 
L 1053.678168 181.45339 
L 1053.882788 181.616042 
L 1054.701267 183.294225 
L 1055.110507 183.502559 
L 1055.724366 183.558581 
L 1057.361324 183.068678 
L 1058.179802 182.266333 
L 1058.384422 182.307633 
L 1058.793662 182.783874 
L 1059.407521 183.663406 
L 1059.81676 183.897545 
L 1060.226 184.032558 
L 1060.635239 184.630122 
L 1061.044479 185.375042 
L 1061.249098 185.53818 
L 1061.453718 185.494818 
L 1063.090676 184.014629 
L 1063.499915 184.062545 
L 1064.523014 184.760466 
L 1064.727634 184.680587 
L 1065.136873 184.185014 
L 1065.750732 183.439148 
L 1065.955352 183.434967 
L 1067.18307 184.15391 
L 1067.79693 183.78281 
L 1068.410789 183.3664 
L 1069.024648 182.830501 
L 1069.843127 182.657796 
L 1070.456986 182.280396 
L 1070.866225 182.469569 
L 1071.480085 183.232332 
L 1072.298564 184.289324 
L 1072.912423 184.682391 
L 1073.526282 184.874256 
L 1074.344761 185.679208 
L 1074.754 185.777675 
L 1075.16324 185.676029 
L 1075.572479 185.553074 
L 1075.777099 185.62943 
L 1076.186338 186.141271 
L 1076.595578 186.637245 
L 1077.004817 186.694728 
L 1077.823296 186.565758 
L 1078.437155 186.784631 
L 1078.641775 186.615335 
L 1079.051015 185.75144 
L 1079.664874 184.420986 
L 1080.074113 184.131541 
L 1080.687972 184.258248 
L 1081.506451 183.553568 
L 1081.915691 183.699952 
L 1082.32493 184.004318 
L 1082.52955 184.018839 
L 1082.73417 183.869219 
L 1083.757268 182.567921 
L 1084.166508 182.475497 
L 1085.394226 182.544837 
L 1086.008085 183.159355 
L 1086.212705 183.047599 
L 1086.826564 181.951999 
L 1087.849663 180.326859 
L 1088.872761 179.171142 
L 1089.69124 178.753959 
L 1090.10048 178.2579 
L 1090.509719 177.30665 
L 1091.123578 175.088586 
L 1092.555917 168.566143 
L 1093.374395 164.39838 
L 1094.806734 155.828945 
L 1095.420593 153.343375 
L 1097.26217 141.783919 
L 1097.67141 136.164493 
L 1098.080649 127.674422 
L 1098.489889 115.415498 
L 1098.899128 97.800558 
L 1099.512987 57.951537 
L 1100.224921 -1 
M 1101.50194 -1 
L 1102.173044 51.270423 
L 1102.786903 89.564073 
L 1103.400762 111.955308 
L 1104.014621 123.651381 
L 1106.265438 155.538584 
L 1107.083917 162.722316 
L 1107.902396 168.038406 
L 1109.539354 176.488094 
L 1110.357833 178.420608 
L 1110.767072 179.023699 
L 1110.971692 179.087196 
L 1111.380931 178.775182 
L 1111.790171 178.474711 
L 1111.994791 178.68041 
L 1112.40403 179.85606 
L 1113.017889 181.581014 
L 1113.222509 181.82787 
L 1113.427129 181.875843 
L 1113.836368 181.583592 
L 1114.245608 181.341433 
L 1114.654847 181.523933 
L 1115.677946 182.666016 
L 1116.291805 183.62603 
L 1116.905664 183.937614 
L 1117.928763 184.261227 
L 1118.338002 184.386961 
L 1119.361101 184.509057 
L 1119.97496 184.688148 
L 1120.17958 184.593805 
L 1120.793439 183.975849 
L 1121.202678 183.924439 
L 1122.021157 183.968976 
L 1123.044256 184.706593 
L 1123.862735 184.506336 
L 1124.681214 184.145432 
L 1126.318171 184.773183 
L 1127.75051 184.420528 
L 1128.568988 183.80598 
L 1128.773608 183.828464 
L 1129.182848 184.169118 
L 1130.001327 184.998185 
L 1130.410566 184.94099 
L 1131.229045 184.591743 
L 1131.842904 184.021503 
L 1132.252144 184.176565 
L 1132.661383 184.36359 
L 1133.275242 184.340505 
L 1133.684482 184.138071 
L 1134.298341 183.58072 
L 1134.502961 183.649114 
L 1134.9122 184.386932 
L 1136.139918 187.421604 
L 1136.549158 187.796055 
L 1136.958397 187.711221 
L 1137.572256 187.450303 
L 1137.981496 187.67479 
L 1138.390735 187.958048 
L 1138.799975 187.927689 
L 1139.209214 187.679258 
L 1139.823073 186.908417 
L 1140.232313 186.52884 
L 1140.436933 186.602819 
L 1141.050792 187.290229 
L 1141.255411 187.300425 
L 1141.664651 186.811382 
L 1142.07389 186.242202 
L 1142.48313 186.058957 
L 1143.096989 186.014736 
L 1144.120088 186.80405 
L 1144.529327 186.684073 
L 1144.938567 186.190161 
L 1145.757045 185.020182 
L 1145.961665 185.011733 
L 1146.370905 185.457814 
L 1146.984764 186.052513 
L 1147.394003 186.237075 
L 1147.803243 186.159315 
L 1148.417102 185.968796 
L 1149.440201 186.181798 
L 1149.84944 185.759317 
L 1150.258679 185.274455 
L 1150.463299 185.259362 
L 1151.077158 185.777905 
L 1151.281778 185.673079 
L 1151.895637 184.970604 
L 1152.509496 184.614913 
L 1153.123356 184.088924 
L 1153.327975 184.036826 
L 1153.737215 184.362358 
L 1154.146454 184.771207 
L 1155.169553 185.140101 
L 1155.578792 185.178193 
L 1156.806511 186.061621 
L 1157.21575 186.216769 
L 1157.62499 186.385492 
L 1158.852708 186.327609 
L 1159.261947 186.249247 
L 1159.671187 186.232435 
L 1161.512764 187.79259 
L 1161.922004 187.787749 
L 1162.331243 187.767271 
L 1163.354342 188.212522 
L 1163.968201 187.894522 
L 1164.377441 187.384658 
L 1164.78668 186.389989 
L 1165.400539 184.853291 
L 1165.605159 184.724952 
L 1165.809779 184.797327 
L 1166.423638 185.574927 
L 1166.832877 185.896478 
L 1167.446737 186.104439 
L 1168.265215 187.023067 
L 1168.879075 186.52884 
L 1169.697554 186.006573 
L 1170.106793 185.847788 
L 1170.925272 185.076203 
L 1171.334511 185.175444 
L 1171.743751 185.468096 
L 1172.15299 186.076944 
L 1172.971469 187.917521 
L 1173.585328 188.769788 
L 1173.994568 188.889564 
L 1175.017666 188.478367 
L 1176.450004 187.852821 
L 1176.859244 187.849299 
L 1177.677723 188.440647 
L 1178.086962 188.369531 
L 1179.5193 187.455487 
L 1179.72392 187.28135 
L 1180.13316 186.486193 
L 1180.951638 184.80191 
L 1181.360878 184.327645 
L 1181.770117 184.231383 
L 1182.793216 184.617949 
L 1182.997836 184.737926 
L 1183.816315 185.572521 
L 1184.430174 185.449823 
L 1184.839413 185.551699 
L 1184.839413 185.551699 
" clip-path="url(#p70ba14304f)" style="fill: none; stroke: #000000; stroke-width: 2; stroke-linecap: square"/>
   </g>
   <g id="patch_3">
    <path d="M 3.00024 198.907885 
L 1184.99976 198.907885 
" style="fill: none; stroke: #000000; stroke-width: 2; stroke-linejoin: miter; stroke-linecap: square"/>
   </g>
  </g>
 </g>
 <defs>
  <clipPath id="p70ba14304f">
   <rect x="3.00024" y="3.00024" width="1181.99952" height="195.907645"/>
  </clipPath>
 </defs>
</svg>
