<?xml version="1.0" encoding="utf-8" standalone="no"?>
<!DOCTYPE svg PUBLIC "-//W3C//DTD SVG 1.1//EN"
  "http://www.w3.org/Graphics/SVG/1.1/DTD/svg11.dtd">
<svg xmlns:xlink="http://www.w3.org/1999/xlink" width="1188pt" height="252pt" viewBox="0 0 1188 252" xmlns="http://www.w3.org/2000/svg" version="1.1">
 <metadata>
  <rdf:RDF xmlns:dc="http://purl.org/dc/elements/1.1/" xmlns:cc="http://creativecommons.org/ns#" xmlns:rdf="http://www.w3.org/1999/02/22-rdf-syntax-ns#">
   <cc:Work>
    <dc:type rdf:resource="http://purl.org/dc/dcmitype/StillImage"/>
    <dc:date>2024-07-23T21:48:10.573664</dc:date>
    <dc:format>image/svg+xml</dc:format>
    <dc:creator>
     <cc:Agent>
      <dc:title>Matplotlib v3.8.4, https://matplotlib.org/</dc:title>
     </cc:Agent>
    </dc:creator>
   </cc:Work>
  </rdf:RDF>
 </metadata>
 <defs>
  <style type="text/css">*{stroke-linejoin: round; stroke-linecap: butt}</style>
 </defs>
 <g id="figure_1">
  <g id="patch_1">
   <path d="M 0 252 
L 1188 252 
L 1188 0 
L 0 0 
z
" style="fill: #ffffff"/>
  </g>
  <g id="axes_1">
   <g id="patch_2">
    <path d="M 3.00024 198.907885 
L 1184.99976 198.907885 
L 1184.99976 3.00024 
L 3.00024 3.00024 
z
" style="fill: #ffffff"/>
   </g>
   <g id="matplotlib.axis_1">
    <g id="xtick_1">
     <g id="line2d_1">
      <defs>
       <path id="m8d7db3627b" d="M 0 0 
L 0 8 
" style="stroke: #000000; stroke-width: 2"/>
      </defs>
      <g>
       <use xlink:href="#m8d7db3627b" x="1131.272509" y="198.907885" style="stroke: #000000; stroke-width: 2"/>
      </g>
     </g>
     <g id="text_1">
      <!-- 0 -->
      <g transform="translate(1126.267665 224.791947) scale(0.18 -0.18)">
       <defs>
        <path id="Arial-BoldMT-30" d="M 1756 4600 
Q 2422 4600 2797 4125 
Q 3244 3563 3244 2259 
Q 3244 959 2794 391 
Q 2422 -78 1756 -78 
Q 1088 -78 678 436 
Q 269 950 269 2269 
Q 269 3563 719 4131 
Q 1091 4600 1756 4600 
z
M 1756 3872 
Q 1597 3872 1472 3770 
Q 1347 3669 1278 3406 
Q 1188 3066 1188 2259 
Q 1188 1453 1269 1151 
Q 1350 850 1473 750 
Q 1597 650 1756 650 
Q 1916 650 2041 751 
Q 2166 853 2234 1116 
Q 2325 1453 2325 2259 
Q 2325 3066 2244 3367 
Q 2163 3669 2039 3770 
Q 1916 3872 1756 3872 
z
" transform="scale(0.015625)"/>
       </defs>
       <use xlink:href="#Arial-BoldMT-30"/>
      </g>
     </g>
    </g>
    <g id="xtick_2">
     <g id="line2d_2">
      <g>
       <use xlink:href="#m8d7db3627b" x="1023.818007" y="198.907885" style="stroke: #000000; stroke-width: 2"/>
      </g>
     </g>
     <g id="text_2">
      <!-- 1 -->
      <g transform="translate(1018.813164 224.791947) scale(0.18 -0.18)">
       <defs>
        <path id="Arial-BoldMT-31" d="M 2519 0 
L 1641 0 
L 1641 3309 
Q 1159 2859 506 2644 
L 506 3441 
Q 850 3553 1253 3867 
Q 1656 4181 1806 4600 
L 2519 4600 
L 2519 0 
z
" transform="scale(0.015625)"/>
       </defs>
       <use xlink:href="#Arial-BoldMT-31"/>
      </g>
     </g>
    </g>
    <g id="xtick_3">
     <g id="line2d_3">
      <g>
       <use xlink:href="#m8d7db3627b" x="916.363505" y="198.907885" style="stroke: #000000; stroke-width: 2"/>
      </g>
     </g>
     <g id="text_3">
      <!-- 2 -->
      <g transform="translate(911.358662 224.791947) scale(0.18 -0.18)">
       <defs>
        <path id="Arial-BoldMT-32" d="M 3238 816 
L 3238 0 
L 159 0 
Q 209 463 459 877 
Q 709 1291 1447 1975 
Q 2041 2528 2175 2725 
Q 2356 2997 2356 3263 
Q 2356 3556 2198 3714 
Q 2041 3872 1763 3872 
Q 1488 3872 1325 3706 
Q 1163 3541 1138 3156 
L 263 3244 
Q 341 3969 753 4284 
Q 1166 4600 1784 4600 
Q 2463 4600 2850 4234 
Q 3238 3869 3238 3325 
Q 3238 3016 3127 2736 
Q 3016 2456 2775 2150 
Q 2616 1947 2200 1565 
Q 1784 1184 1673 1059 
Q 1563 934 1494 816 
L 3238 816 
z
" transform="scale(0.015625)"/>
       </defs>
       <use xlink:href="#Arial-BoldMT-32"/>
      </g>
     </g>
    </g>
    <g id="xtick_4">
     <g id="line2d_4">
      <g>
       <use xlink:href="#m8d7db3627b" x="808.909004" y="198.907885" style="stroke: #000000; stroke-width: 2"/>
      </g>
     </g>
     <g id="text_4">
      <!-- 3 -->
      <g transform="translate(803.90416 224.791947) scale(0.18 -0.18)">
       <defs>
        <path id="Arial-BoldMT-33" d="M 241 1216 
L 1091 1319 
Q 1131 994 1309 822 
Q 1488 650 1741 650 
Q 2013 650 2198 856 
Q 2384 1063 2384 1413 
Q 2384 1744 2206 1937 
Q 2028 2131 1772 2131 
Q 1603 2131 1369 2066 
L 1466 2781 
Q 1822 2772 2009 2936 
Q 2197 3100 2197 3372 
Q 2197 3603 2059 3740 
Q 1922 3878 1694 3878 
Q 1469 3878 1309 3722 
Q 1150 3566 1116 3266 
L 306 3403 
Q 391 3819 561 4067 
Q 731 4316 1036 4458 
Q 1341 4600 1719 4600 
Q 2366 4600 2756 4188 
Q 3078 3850 3078 3425 
Q 3078 2822 2419 2463 
Q 2813 2378 3048 2084 
Q 3284 1791 3284 1375 
Q 3284 772 2843 347 
Q 2403 -78 1747 -78 
Q 1125 -78 715 280 
Q 306 638 241 1216 
z
" transform="scale(0.015625)"/>
       </defs>
       <use xlink:href="#Arial-BoldMT-33"/>
      </g>
     </g>
    </g>
    <g id="xtick_5">
     <g id="line2d_5">
      <g>
       <use xlink:href="#m8d7db3627b" x="701.454502" y="198.907885" style="stroke: #000000; stroke-width: 2"/>
      </g>
     </g>
     <g id="text_5">
      <!-- 4 -->
      <g transform="translate(696.449658 224.791947) scale(0.18 -0.18)">
       <defs>
        <path id="Arial-BoldMT-34" d="M 1994 0 
L 1994 922 
L 119 922 
L 119 1691 
L 2106 4600 
L 2844 4600 
L 2844 1694 
L 3413 1694 
L 3413 922 
L 2844 922 
L 2844 0 
L 1994 0 
z
M 1994 1694 
L 1994 3259 
L 941 1694 
L 1994 1694 
z
" transform="scale(0.015625)"/>
       </defs>
       <use xlink:href="#Arial-BoldMT-34"/>
      </g>
     </g>
    </g>
    <g id="xtick_6">
     <g id="line2d_6">
      <g>
       <use xlink:href="#m8d7db3627b" x="594" y="198.907885" style="stroke: #000000; stroke-width: 2"/>
      </g>
     </g>
     <g id="text_6">
      <!-- 5 -->
      <g transform="translate(588.995156 224.791947) scale(0.18 -0.18)">
       <defs>
        <path id="Arial-BoldMT-35" d="M 284 1178 
L 1159 1269 
Q 1197 972 1381 798 
Q 1566 625 1806 625 
Q 2081 625 2272 848 
Q 2463 1072 2463 1522 
Q 2463 1944 2273 2155 
Q 2084 2366 1781 2366 
Q 1403 2366 1103 2031 
L 391 2134 
L 841 4519 
L 3163 4519 
L 3163 3697 
L 1506 3697 
L 1369 2919 
Q 1663 3066 1969 3066 
Q 2553 3066 2959 2641 
Q 3366 2216 3366 1538 
Q 3366 972 3038 528 
Q 2591 -78 1797 -78 
Q 1163 -78 763 262 
Q 363 603 284 1178 
z
" transform="scale(0.015625)"/>
       </defs>
       <use xlink:href="#Arial-BoldMT-35"/>
      </g>
     </g>
    </g>
    <g id="xtick_7">
     <g id="line2d_7">
      <g>
       <use xlink:href="#m8d7db3627b" x="486.545498" y="198.907885" style="stroke: #000000; stroke-width: 2"/>
      </g>
     </g>
     <g id="text_7">
      <!-- 6 -->
      <g transform="translate(481.540654 224.791947) scale(0.18 -0.18)">
       <defs>
        <path id="Arial-BoldMT-36" d="M 3247 3459 
L 2397 3366 
Q 2366 3628 2234 3753 
Q 2103 3878 1894 3878 
Q 1616 3878 1423 3628 
Q 1231 3378 1181 2588 
Q 1509 2975 1997 2975 
Q 2547 2975 2939 2556 
Q 3331 2138 3331 1475 
Q 3331 772 2918 347 
Q 2506 -78 1859 -78 
Q 1166 -78 719 461 
Q 272 1000 272 2228 
Q 272 3488 737 4044 
Q 1203 4600 1947 4600 
Q 2469 4600 2811 4308 
Q 3153 4016 3247 3459 
z
M 1256 1544 
Q 1256 1116 1453 883 
Q 1650 650 1903 650 
Q 2147 650 2309 840 
Q 2472 1031 2472 1466 
Q 2472 1913 2297 2120 
Q 2122 2328 1859 2328 
Q 1606 2328 1431 2129 
Q 1256 1931 1256 1544 
z
" transform="scale(0.015625)"/>
       </defs>
       <use xlink:href="#Arial-BoldMT-36"/>
      </g>
     </g>
    </g>
    <g id="xtick_8">
     <g id="line2d_8">
      <g>
       <use xlink:href="#m8d7db3627b" x="379.090996" y="198.907885" style="stroke: #000000; stroke-width: 2"/>
      </g>
     </g>
     <g id="text_8">
      <!-- 7 -->
      <g transform="translate(374.086153 224.791947) scale(0.18 -0.18)">
       <defs>
        <path id="Arial-BoldMT-37" d="M 272 3703 
L 272 4519 
L 3275 4519 
L 3275 3881 
Q 2903 3516 2518 2831 
Q 2134 2147 1932 1376 
Q 1731 606 1734 0 
L 888 0 
Q 909 950 1279 1937 
Q 1650 2925 2269 3703 
L 272 3703 
z
" transform="scale(0.015625)"/>
       </defs>
       <use xlink:href="#Arial-BoldMT-37"/>
      </g>
     </g>
    </g>
    <g id="xtick_9">
     <g id="line2d_9">
      <g>
       <use xlink:href="#m8d7db3627b" x="271.636495" y="198.907885" style="stroke: #000000; stroke-width: 2"/>
      </g>
     </g>
     <g id="text_9">
      <!-- 8 -->
      <g transform="translate(266.631651 224.791947) scale(0.18 -0.18)">
       <defs>
        <path id="Arial-BoldMT-38" d="M 1025 2472 
Q 684 2616 529 2867 
Q 375 3119 375 3419 
Q 375 3931 733 4265 
Q 1091 4600 1750 4600 
Q 2403 4600 2764 4265 
Q 3125 3931 3125 3419 
Q 3125 3100 2959 2851 
Q 2794 2603 2494 2472 
Q 2875 2319 3073 2025 
Q 3272 1731 3272 1347 
Q 3272 713 2867 316 
Q 2463 -81 1791 -81 
Q 1166 -81 750 247 
Q 259 634 259 1309 
Q 259 1681 443 1992 
Q 628 2303 1025 2472 
z
M 1206 3356 
Q 1206 3094 1354 2947 
Q 1503 2800 1750 2800 
Q 2000 2800 2150 2948 
Q 2300 3097 2300 3359 
Q 2300 3606 2151 3754 
Q 2003 3903 1759 3903 
Q 1506 3903 1356 3753 
Q 1206 3603 1206 3356 
z
M 1125 1394 
Q 1125 1031 1311 828 
Q 1497 625 1775 625 
Q 2047 625 2225 820 
Q 2403 1016 2403 1384 
Q 2403 1706 2222 1901 
Q 2041 2097 1763 2097 
Q 1441 2097 1283 1875 
Q 1125 1653 1125 1394 
z
" transform="scale(0.015625)"/>
       </defs>
       <use xlink:href="#Arial-BoldMT-38"/>
      </g>
     </g>
    </g>
    <g id="xtick_10">
     <g id="line2d_10">
      <g>
       <use xlink:href="#m8d7db3627b" x="164.181993" y="198.907885" style="stroke: #000000; stroke-width: 2"/>
      </g>
     </g>
     <g id="text_10">
      <!-- 9 -->
      <g transform="translate(159.177149 224.791947) scale(0.18 -0.18)">
       <defs>
        <path id="Arial-BoldMT-39" d="M 291 1059 
L 1141 1153 
Q 1172 894 1303 769 
Q 1434 644 1650 644 
Q 1922 644 2112 894 
Q 2303 1144 2356 1931 
Q 2025 1547 1528 1547 
Q 988 1547 595 1964 
Q 203 2381 203 3050 
Q 203 3747 617 4173 
Q 1031 4600 1672 4600 
Q 2369 4600 2816 4061 
Q 3263 3522 3263 2288 
Q 3263 1031 2797 475 
Q 2331 -81 1584 -81 
Q 1047 -81 715 205 
Q 384 491 291 1059 
z
M 2278 2978 
Q 2278 3403 2083 3637 
Q 1888 3872 1631 3872 
Q 1388 3872 1227 3680 
Q 1066 3488 1066 3050 
Q 1066 2606 1241 2398 
Q 1416 2191 1678 2191 
Q 1931 2191 2104 2391 
Q 2278 2591 2278 2978 
z
" transform="scale(0.015625)"/>
       </defs>
       <use xlink:href="#Arial-BoldMT-39"/>
      </g>
     </g>
    </g>
    <g id="xtick_11">
     <g id="line2d_11">
      <g>
       <use xlink:href="#m8d7db3627b" x="56.727491" y="198.907885" style="stroke: #000000; stroke-width: 2"/>
      </g>
     </g>
     <g id="text_11">
      <!-- 10 -->
      <g transform="translate(46.717803 224.791947) scale(0.18 -0.18)">
       <use xlink:href="#Arial-BoldMT-31"/>
       <use xlink:href="#Arial-BoldMT-30" x="55.615234"/>
      </g>
     </g>
    </g>
    <g id="text_12">
     <!-- Chemical Shift / ppm -->
     <g transform="translate(504.992813 245.447573) scale(0.18 -0.18)">
      <defs>
       <path id="Arial-BoldMT-43" d="M 3397 1684 
L 4294 1400 
Q 4088 650 3608 286 
Q 3128 -78 2391 -78 
Q 1478 -78 890 545 
Q 303 1169 303 2250 
Q 303 3394 893 4026 
Q 1484 4659 2447 4659 
Q 3288 4659 3813 4163 
Q 4125 3869 4281 3319 
L 3366 3100 
Q 3284 3456 3026 3662 
Q 2769 3869 2400 3869 
Q 1891 3869 1573 3503 
Q 1256 3138 1256 2319 
Q 1256 1450 1568 1081 
Q 1881 713 2381 713 
Q 2750 713 3015 947 
Q 3281 1181 3397 1684 
z
" transform="scale(0.015625)"/>
       <path id="Arial-BoldMT-68" d="M 1334 4581 
L 1334 2897 
Q 1759 3394 2350 3394 
Q 2653 3394 2897 3281 
Q 3141 3169 3264 2994 
Q 3388 2819 3433 2606 
Q 3478 2394 3478 1947 
L 3478 0 
L 2600 0 
L 2600 1753 
Q 2600 2275 2550 2415 
Q 2500 2556 2373 2639 
Q 2247 2722 2056 2722 
Q 1838 2722 1666 2615 
Q 1494 2509 1414 2295 
Q 1334 2081 1334 1663 
L 1334 0 
L 456 0 
L 456 4581 
L 1334 4581 
z
" transform="scale(0.015625)"/>
       <path id="Arial-BoldMT-65" d="M 2381 1056 
L 3256 909 
Q 3088 428 2723 176 
Q 2359 -75 1813 -75 
Q 947 -75 531 491 
Q 203 944 203 1634 
Q 203 2459 634 2926 
Q 1066 3394 1725 3394 
Q 2466 3394 2894 2905 
Q 3322 2416 3303 1406 
L 1103 1406 
Q 1113 1016 1316 798 
Q 1519 581 1822 581 
Q 2028 581 2168 693 
Q 2309 806 2381 1056 
z
M 2431 1944 
Q 2422 2325 2234 2523 
Q 2047 2722 1778 2722 
Q 1491 2722 1303 2513 
Q 1116 2303 1119 1944 
L 2431 1944 
z
" transform="scale(0.015625)"/>
       <path id="Arial-BoldMT-6d" d="M 394 3319 
L 1203 3319 
L 1203 2866 
Q 1638 3394 2238 3394 
Q 2556 3394 2790 3262 
Q 3025 3131 3175 2866 
Q 3394 3131 3647 3262 
Q 3900 3394 4188 3394 
Q 4553 3394 4806 3245 
Q 5059 3097 5184 2809 
Q 5275 2597 5275 2122 
L 5275 0 
L 4397 0 
L 4397 1897 
Q 4397 2391 4306 2534 
Q 4184 2722 3931 2722 
Q 3747 2722 3584 2609 
Q 3422 2497 3350 2280 
Q 3278 2063 3278 1594 
L 3278 0 
L 2400 0 
L 2400 1819 
Q 2400 2303 2353 2443 
Q 2306 2584 2207 2653 
Q 2109 2722 1941 2722 
Q 1738 2722 1575 2612 
Q 1413 2503 1342 2297 
Q 1272 2091 1272 1613 
L 1272 0 
L 394 0 
L 394 3319 
z
" transform="scale(0.015625)"/>
       <path id="Arial-BoldMT-69" d="M 459 3769 
L 459 4581 
L 1338 4581 
L 1338 3769 
L 459 3769 
z
M 459 0 
L 459 3319 
L 1338 3319 
L 1338 0 
L 459 0 
z
" transform="scale(0.015625)"/>
       <path id="Arial-BoldMT-63" d="M 3353 2338 
L 2488 2181 
Q 2444 2441 2289 2572 
Q 2134 2703 1888 2703 
Q 1559 2703 1364 2476 
Q 1169 2250 1169 1719 
Q 1169 1128 1367 884 
Q 1566 641 1900 641 
Q 2150 641 2309 783 
Q 2469 925 2534 1272 
L 3397 1125 
Q 3263 531 2881 228 
Q 2500 -75 1859 -75 
Q 1131 -75 698 384 
Q 266 844 266 1656 
Q 266 2478 700 2936 
Q 1134 3394 1875 3394 
Q 2481 3394 2839 3133 
Q 3197 2872 3353 2338 
z
" transform="scale(0.015625)"/>
       <path id="Arial-BoldMT-61" d="M 1116 2306 
L 319 2450 
Q 453 2931 781 3162 
Q 1109 3394 1756 3394 
Q 2344 3394 2631 3255 
Q 2919 3116 3036 2902 
Q 3153 2688 3153 2116 
L 3144 1091 
Q 3144 653 3186 445 
Q 3228 238 3344 0 
L 2475 0 
Q 2441 88 2391 259 
Q 2369 338 2359 363 
Q 2134 144 1878 34 
Q 1622 -75 1331 -75 
Q 819 -75 523 203 
Q 228 481 228 906 
Q 228 1188 362 1408 
Q 497 1628 739 1745 
Q 981 1863 1438 1950 
Q 2053 2066 2291 2166 
L 2291 2253 
Q 2291 2506 2166 2614 
Q 2041 2722 1694 2722 
Q 1459 2722 1328 2630 
Q 1197 2538 1116 2306 
z
M 2291 1594 
Q 2122 1538 1756 1459 
Q 1391 1381 1278 1306 
Q 1106 1184 1106 997 
Q 1106 813 1243 678 
Q 1381 544 1594 544 
Q 1831 544 2047 700 
Q 2206 819 2256 991 
Q 2291 1103 2291 1419 
L 2291 1594 
z
" transform="scale(0.015625)"/>
       <path id="Arial-BoldMT-6c" d="M 459 0 
L 459 4581 
L 1338 4581 
L 1338 0 
L 459 0 
z
" transform="scale(0.015625)"/>
       <path id="Arial-BoldMT-20" transform="scale(0.015625)"/>
       <path id="Arial-BoldMT-53" d="M 231 1491 
L 1131 1578 
Q 1213 1125 1461 912 
Q 1709 700 2131 700 
Q 2578 700 2804 889 
Q 3031 1078 3031 1331 
Q 3031 1494 2936 1608 
Q 2841 1722 2603 1806 
Q 2441 1863 1863 2006 
Q 1119 2191 819 2459 
Q 397 2838 397 3381 
Q 397 3731 595 4036 
Q 794 4341 1167 4500 
Q 1541 4659 2069 4659 
Q 2931 4659 3367 4281 
Q 3803 3903 3825 3272 
L 2900 3231 
Q 2841 3584 2645 3739 
Q 2450 3894 2059 3894 
Q 1656 3894 1428 3728 
Q 1281 3622 1281 3444 
Q 1281 3281 1419 3166 
Q 1594 3019 2269 2859 
Q 2944 2700 3267 2529 
Q 3591 2359 3773 2064 
Q 3956 1769 3956 1334 
Q 3956 941 3737 597 
Q 3519 253 3119 86 
Q 2719 -81 2122 -81 
Q 1253 -81 787 320 
Q 322 722 231 1491 
z
" transform="scale(0.015625)"/>
       <path id="Arial-BoldMT-66" d="M 75 3319 
L 563 3319 
L 563 3569 
Q 563 3988 652 4194 
Q 741 4400 980 4529 
Q 1219 4659 1584 4659 
Q 1959 4659 2319 4547 
L 2200 3934 
Q 1991 3984 1797 3984 
Q 1606 3984 1523 3895 
Q 1441 3806 1441 3553 
L 1441 3319 
L 2097 3319 
L 2097 2628 
L 1441 2628 
L 1441 0 
L 563 0 
L 563 2628 
L 75 2628 
L 75 3319 
z
" transform="scale(0.015625)"/>
       <path id="Arial-BoldMT-74" d="M 1981 3319 
L 1981 2619 
L 1381 2619 
L 1381 1281 
Q 1381 875 1398 808 
Q 1416 741 1477 697 
Q 1538 653 1625 653 
Q 1747 653 1978 738 
L 2053 56 
Q 1747 -75 1359 -75 
Q 1122 -75 931 4 
Q 741 84 652 211 
Q 563 338 528 553 
Q 500 706 500 1172 
L 500 2619 
L 97 2619 
L 97 3319 
L 500 3319 
L 500 3978 
L 1381 4491 
L 1381 3319 
L 1981 3319 
z
" transform="scale(0.015625)"/>
       <path id="Arial-BoldMT-2f" d="M -9 -78 
L 1125 4659 
L 1784 4659 
L 638 -78 
L -9 -78 
z
" transform="scale(0.015625)"/>
       <path id="Arial-BoldMT-70" d="M 434 3319 
L 1253 3319 
L 1253 2831 
Q 1413 3081 1684 3237 
Q 1956 3394 2288 3394 
Q 2866 3394 3269 2941 
Q 3672 2488 3672 1678 
Q 3672 847 3265 386 
Q 2859 -75 2281 -75 
Q 2006 -75 1782 34 
Q 1559 144 1313 409 
L 1313 -1263 
L 434 -1263 
L 434 3319 
z
M 1303 1716 
Q 1303 1156 1525 889 
Q 1747 622 2066 622 
Q 2372 622 2575 867 
Q 2778 1113 2778 1672 
Q 2778 2194 2568 2447 
Q 2359 2700 2050 2700 
Q 1728 2700 1515 2451 
Q 1303 2203 1303 1716 
z
" transform="scale(0.015625)"/>
      </defs>
      <use xlink:href="#Arial-BoldMT-43"/>
      <use xlink:href="#Arial-BoldMT-68" x="72.216797"/>
      <use xlink:href="#Arial-BoldMT-65" x="133.300781"/>
      <use xlink:href="#Arial-BoldMT-6d" x="188.916016"/>
      <use xlink:href="#Arial-BoldMT-69" x="277.832031"/>
      <use xlink:href="#Arial-BoldMT-63" x="305.615234"/>
      <use xlink:href="#Arial-BoldMT-61" x="361.230469"/>
      <use xlink:href="#Arial-BoldMT-6c" x="416.845703"/>
      <use xlink:href="#Arial-BoldMT-20" x="444.628906"/>
      <use xlink:href="#Arial-BoldMT-53" x="472.412109"/>
      <use xlink:href="#Arial-BoldMT-68" x="539.111328"/>
      <use xlink:href="#Arial-BoldMT-69" x="600.195312"/>
      <use xlink:href="#Arial-BoldMT-66" x="627.978516"/>
      <use xlink:href="#Arial-BoldMT-74" x="661.279297"/>
      <use xlink:href="#Arial-BoldMT-20" x="694.580078"/>
      <use xlink:href="#Arial-BoldMT-2f" x="722.363281"/>
      <use xlink:href="#Arial-BoldMT-20" x="750.146484"/>
      <use xlink:href="#Arial-BoldMT-70" x="777.929688"/>
      <use xlink:href="#Arial-BoldMT-70" x="839.013672"/>
      <use xlink:href="#Arial-BoldMT-6d" x="900.097656"/>
     </g>
    </g>
   </g>
   <g id="matplotlib.axis_2"/>
   <g id="line2d_12">
    <path d="M 2.955871 191.157945 
L 3.365111 190.750862 
L 3.77435 189.753942 
L 4.592829 186.70724 
L 4.797449 186.312211 
L 5.002069 186.281432 
L 5.206688 186.620619 
L 6.434407 189.985141 
L 6.843646 190.231498 
L 7.048266 190.164889 
L 7.457505 189.412477 
L 7.866745 188.7914 
L 8.071365 188.855499 
L 8.480604 189.858429 
L 8.889843 190.664967 
L 9.094463 190.487729 
L 10.322182 187.379141 
L 10.526801 187.228321 
L 10.731421 187.338588 
L 12.982238 190.767506 
L 13.186858 190.792076 
L 14.619196 189.60659 
L 15.642294 187.96191 
L 16.051534 187.633225 
L 16.665393 187.27221 
L 17.279252 186.8786 
L 17.688492 185.95572 
L 18.506971 183.164819 
L 18.71159 182.901026 
L 18.91621 182.928733 
L 19.939309 183.842829 
L 20.348548 184.996711 
L 21.167027 188.095722 
L 21.780886 188.704118 
L 22.394745 189.461715 
L 22.803985 189.929232 
L 23.008605 189.838417 
L 23.417844 189.261228 
L 23.827083 187.739496 
L 24.236323 185.922002 
L 24.645562 185.055691 
L 24.850182 185.056087 
L 25.054802 185.328335 
L 25.464041 186.429247 
L 25.873281 187.642241 
L 26.0779 187.889192 
L 26.896379 187.714464 
L 27.100999 187.864986 
L 27.919478 188.969299 
L 28.124098 188.625159 
L 29.351816 183.938664 
L 29.556436 183.90815 
L 29.761056 184.23525 
L 30.374915 186.088079 
L 30.579534 186.134048 
L 30.784154 185.667654 
L 31.398013 183.706507 
L 31.602633 183.731572 
L 31.807253 184.335972 
L 33.034971 190.221855 
L 33.239591 190.53317 
L 33.64883 190.576134 
L 33.85345 190.551795 
L 34.05807 190.647201 
L 34.467309 191.362164 
L 35.899647 194.189919 
L 36.513507 194.997051 
L 37.127366 196.679808 
L 37.331985 196.811374 
L 37.536605 196.549232 
L 38.150464 195.144899 
L 38.968943 194.394996 
L 39.787422 192.432925 
L 40.401281 191.926837 
L 40.810521 190.998276 
L 41.21976 189.792778 
L 41.42438 189.640374 
L 42.038239 190.271127 
L 42.447479 190.11859 
L 42.652098 190.42898 
L 43.265958 192.547815 
L 43.470577 192.565416 
L 43.879817 191.46216 
L 44.698296 188.961505 
L 44.902915 188.807284 
L 45.107535 189.069394 
L 45.926014 191.247803 
L 46.335253 191.062672 
L 46.744493 190.900394 
L 47.153732 190.945405 
L 47.767592 191.631406 
L 47.972211 191.29255 
L 48.79069 187.817795 
L 48.99531 187.941964 
L 49.404549 188.382632 
L 50.427648 188.417538 
L 50.836887 188.628527 
L 51.859986 189.523635 
L 52.678465 190.84422 
L 52.883085 190.54628 
L 53.292324 188.884923 
L 53.701564 187.071657 
L 53.906183 186.600309 
L 54.110803 186.458836 
L 54.315423 186.639277 
L 54.724662 187.661626 
L 55.338521 189.479779 
L 55.543141 189.889372 
L 55.747761 190.03045 
L 55.952381 189.712597 
L 56.36162 187.707132 
L 56.77086 186.021073 
L 56.975479 185.88069 
L 57.180099 186.086593 
L 57.589338 187.064359 
L 58.407817 189.692287 
L 59.021676 190.654796 
L 59.430916 191.000554 
L 59.840155 191.140146 
L 60.454015 191.53544 
L 60.658634 191.419229 
L 61.477113 190.06136 
L 62.090972 190.343812 
L 62.500212 190.122949 
L 62.909451 189.538396 
L 63.52331 188.417175 
L 63.72793 188.342542 
L 63.93255 188.632919 
L 64.341789 190.052906 
L 64.955649 192.275138 
L 65.364888 192.865007 
L 65.774127 193.093829 
L 66.797226 194.39133 
L 67.001846 194.432181 
L 67.411085 194.189126 
L 67.820325 193.893465 
L 68.229564 193.673989 
L 69.048043 192.28587 
L 69.661902 192.372227 
L 70.071142 191.872182 
L 71.912719 188.813922 
L 72.117339 188.644378 
L 73.140438 188.556601 
L 73.345057 188.658876 
L 73.754297 189.42245 
L 74.163536 190.929487 
L 74.572776 192.508582 
L 74.777395 192.959554 
L 74.982015 193.061069 
L 75.186635 192.687769 
L 75.800494 189.755858 
L 76.209734 188.069303 
L 76.414353 187.634282 
L 76.618973 187.566451 
L 77.028212 188.098001 
L 77.437452 188.915602 
L 78.255931 191.36015 
L 78.66517 191.691939 
L 79.07441 191.852632 
L 79.483649 192.18528 
L 79.688269 192.060847 
L 80.097508 190.679663 
L 80.711368 188.483619 
L 80.915987 188.260643 
L 81.120607 188.378835 
L 81.529846 188.779875 
L 81.734466 188.73559 
L 81.939086 188.534244 
L 82.348325 187.616746 
L 82.962185 185.781585 
L 83.166804 185.617656 
L 83.371424 185.833202 
L 83.780663 187.125353 
L 84.599142 189.892939 
L 84.803762 190.347676 
L 85.008382 190.484724 
L 85.213002 190.186817 
L 85.622241 188.421931 
L 86.03148 186.818398 
L 86.64534 185.60722 
L 87.463819 184.440955 
L 88.077678 183.434392 
L 88.282297 183.36174 
L 88.486917 183.466722 
L 88.896157 184.272666 
L 89.714636 186.359732 
L 89.919255 186.445428 
L 90.123875 186.218159 
L 90.737734 185.011241 
L 90.942354 185.057739 
L 91.146974 185.444479 
L 92.170072 188.592465 
L 92.374692 188.785852 
L 92.579312 188.71495 
L 93.193171 188.064746 
L 93.397791 187.935194 
L 93.80703 187.256425 
L 94.21627 186.442489 
L 94.420889 186.290382 
L 94.830129 186.421915 
L 95.239368 186.60272 
L 95.443988 186.588784 
L 95.648608 186.77626 
L 96.057847 188.107281 
L 96.467086 189.314661 
L 96.876326 189.771775 
L 97.285565 190.281166 
L 97.694805 190.86803 
L 98.513284 191.475733 
L 98.922523 191.773111 
L 99.331763 191.803031 
L 100.354861 191.739955 
L 100.764101 191.967885 
L 101.37796 192.600025 
L 101.787199 192.588698 
L 101.991819 192.407299 
L 102.196439 191.927629 
L 102.605678 189.766755 
L 103.219537 186.166081 
L 103.628777 185.232071 
L 104.038016 184.521863 
L 104.447256 183.636926 
L 104.651876 183.584287 
L 104.856495 184.058408 
L 105.265735 186.48684 
L 105.674974 189.003181 
L 106.084214 190.394602 
L 106.902693 192.235873 
L 107.311932 193.232132 
L 107.516552 193.475187 
L 107.721171 193.452598 
L 108.130411 192.622877 
L 109.15351 190.103366 
L 109.767369 189.026166 
L 109.971988 188.946644 
L 110.176608 189.188906 
L 110.995087 191.199853 
L 111.199707 191.241363 
L 111.813566 190.885896 
L 112.222805 190.459164 
L 113.041284 188.83585 
L 113.245904 188.79173 
L 113.655144 189.1363 
L 113.859763 189.125237 
L 114.678242 188.432762 
L 114.882862 188.673307 
L 115.292101 189.523404 
L 115.496721 189.709195 
L 115.701341 189.576671 
L 116.3152 188.489101 
L 116.51982 188.514496 
L 117.133679 189.333319 
L 118.156778 190.656513 
L 118.361397 190.760802 
L 118.770637 191.410808 
L 119.179876 192.051435 
L 119.589116 192.104636 
L 119.998355 191.80422 
L 120.612214 190.793033 
L 121.226073 189.139239 
L 121.839933 187.521572 
L 122.453792 186.576136 
L 123.067651 185.167708 
L 123.272271 185.180719 
L 123.47689 185.560194 
L 123.88613 187.325477 
L 124.499989 190.351837 
L 125.318468 191.772418 
L 126.136947 194.394501 
L 126.546186 195.251895 
L 126.750806 195.492605 
L 126.955426 195.494224 
L 127.160046 195.151999 
L 127.569285 193.452301 
L 127.978524 191.676484 
L 128.183144 191.325607 
L 128.387764 191.27442 
L 129.001623 191.609512 
L 129.206243 191.531543 
L 129.820102 190.929619 
L 130.024722 191.089785 
L 130.433961 192.140302 
L 131.45706 195.601154 
L 132.275539 197.82616 
L 132.684778 199.137697 
L 132.889398 199.477115 
L 133.094018 199.509544 
L 133.298637 199.29413 
L 133.503257 198.836025 
L 133.912497 197.053504 
L 134.526356 193.967801 
L 134.730975 193.527727 
L 134.935595 193.533903 
L 135.344835 194.357085 
L 136.163313 196.410301 
L 136.572553 197.554573 
L 136.777173 197.853339 
L 136.981792 197.716819 
L 137.186412 197.040823 
L 138.004891 192.234684 
L 138.209511 192.204533 
L 138.61875 192.582225 
L 138.82337 192.253177 
L 139.641849 189.648035 
L 140.255708 188.724824 
L 140.664947 187.986645 
L 140.869567 188.257869 
L 141.278807 190.22387 
L 141.688046 192.581664 
L 141.892666 193.176652 
L 142.097286 193.184083 
L 142.506525 192.124847 
L 142.915764 191.102168 
L 143.325004 190.746338 
L 143.529624 190.769025 
L 143.734243 190.945669 
L 143.938863 191.37151 
L 144.757342 194.002773 
L 144.961962 193.980548 
L 145.575821 193.075038 
L 145.98506 192.201462 
L 146.803539 189.501674 
L 148.645117 181.024883 
L 149.054356 179.528248 
L 149.258976 179.356723 
L 149.463596 179.780714 
L 150.077455 181.778451 
L 150.282075 182.036663 
L 150.486694 182.052415 
L 150.691314 181.795095 
L 151.100554 180.541547 
L 152.532892 174.813914 
L 153.146751 169.881393 
L 153.96523 162.634041 
L 154.374469 160.885733 
L 154.579089 160.580627 
L 154.783709 160.848548 
L 154.988328 161.79864 
L 155.806807 167.263174 
L 156.216047 168.313955 
L 157.034526 169.664955 
L 157.443765 170.33897 
L 158.466864 172.870568 
L 159.285343 174.714909 
L 159.489962 174.868304 
L 159.694582 174.799945 
L 160.513061 173.751145 
L 160.717681 174.200234 
L 161.740779 178.247324 
L 162.354639 179.611732 
L 162.763878 179.939459 
L 163.173117 180.197539 
L 163.786977 181.334051 
L 163.991596 181.235937 
L 165.219315 179.355336 
L 165.423934 179.375909 
L 165.833174 179.630819 
L 166.037794 179.544231 
L 166.447033 178.664083 
L 166.856273 177.664686 
L 167.060892 177.62202 
L 167.265512 178.02405 
L 168.288611 181.652961 
L 168.49323 181.846876 
L 168.69785 181.720395 
L 169.311709 180.711124 
L 169.720949 180.479892 
L 170.130188 180.528998 
L 170.539428 180.63124 
L 170.948667 180.453077 
L 171.357907 180.215537 
L 171.562526 180.425172 
L 173.199484 183.588712 
L 173.608723 183.194177 
L 174.017963 182.838017 
L 174.222583 182.929591 
L 174.631822 183.492348 
L 174.836442 183.546706 
L 175.041062 183.301637 
L 176.26878 180.761089 
L 176.678019 180.5253 
L 177.087259 180.562782 
L 177.701118 181.081518 
L 177.905738 181.01765 
L 178.110357 180.64719 
L 178.519597 178.927381 
L 179.133456 176.109864 
L 179.747315 173.974187 
L 181.384273 166.593684 
L 182.202752 164.746965 
L 182.611991 162.580477 
L 183.225851 157.121822 
L 183.83971 151.989144 
L 184.248949 150.406482 
L 184.658189 149.174367 
L 185.272048 146.212239 
L 185.681287 143.275143 
L 186.090527 137.87177 
L 186.704386 124.48739 
L 188.341344 85.288437 
L 189.364442 62.384938 
L 190.182921 44.921535 
L 190.592161 40.352341 
L 190.796781 39.561522 
L 191.0014 39.454195 
L 191.20602 39.755503 
L 191.41064 40.369381 
L 191.615259 41.411643 
L 192.024499 45.489576 
L 192.638358 56.384463 
L 194.889175 102.49452 
L 195.707654 118.241945 
L 197.753851 153.091145 
L 198.36771 158.440921 
L 199.390809 163.730693 
L 199.800049 164.504835 
L 200.413908 165.037639 
L 200.823147 165.885028 
L 202.050866 169.617434 
L 202.255485 169.611754 
L 202.869344 168.853398 
L 203.483204 169.06934 
L 203.892443 169.010425 
L 204.301683 169.420217 
L 204.710922 169.957017 
L 205.324781 170.340423 
L 205.529401 170.383089 
L 205.734021 170.215923 
L 205.93864 169.613868 
L 206.34788 167.01401 
L 209.212556 146.453874 
L 210.440274 140.547516 
L 210.644894 140.041197 
L 210.849514 139.94021 
L 211.054134 140.140334 
L 211.463373 141.198381 
L 211.872612 142.943849 
L 212.281852 145.448632 
L 212.895711 151.043146 
L 214.532669 169.898631 
L 214.941908 172.331389 
L 215.351148 173.443793 
L 215.760387 173.894567 
L 215.965007 173.818282 
L 216.169627 173.408722 
L 216.578866 171.567716 
L 217.192725 168.729757 
L 217.806584 166.369288 
L 218.215824 163.651106 
L 219.238923 154.583718 
L 219.443542 153.853002 
L 219.648162 153.668036 
L 220.262021 154.183372 
L 220.466641 153.956036 
L 220.671261 153.223372 
L 221.0805 150.285748 
L 221.48974 147.119896 
L 221.898979 145.689804 
L 222.308218 145.276842 
L 222.512838 145.430601 
L 222.717458 145.997222 
L 223.126697 148.764708 
L 223.740557 154.622785 
L 224.149796 156.458838 
L 224.763655 158.879014 
L 225.377514 161.374418 
L 226.400613 164.262903 
L 226.605233 164.46088 
L 226.809852 164.453318 
L 227.014472 164.234437 
L 227.423712 163.312514 
L 228.242191 160.591458 
L 228.65143 158.185218 
L 230.083768 145.917106 
L 230.493008 144.57674 
L 231.106867 143.558222 
L 231.311486 143.481079 
L 231.720726 143.871419 
L 232.129965 144.699852 
L 232.539205 146.149791 
L 233.766923 151.472224 
L 233.971543 151.754874 
L 234.176163 151.62727 
L 234.585402 150.22221 
L 234.994642 148.896803 
L 235.199261 148.598203 
L 235.403881 148.642157 
L 235.608501 149.078665 
L 236.01774 150.965144 
L 237.450078 160.80357 
L 238.063937 165.667765 
L 238.473177 167.102315 
L 238.882416 168.044019 
L 239.905515 171.944649 
L 240.314754 172.609515 
L 240.519374 172.805016 
L 240.928614 172.752376 
L 241.747093 172.652083 
L 242.156332 172.966039 
L 242.565571 173.195719 
L 242.974811 172.899992 
L 243.38405 172.459488 
L 243.58867 172.425606 
L 243.79329 172.606972 
L 244.407149 173.485667 
L 244.611769 173.331744 
L 245.021008 172.628867 
L 245.225628 172.610836 
L 246.044107 173.684767 
L 246.453346 173.408326 
L 247.067205 173.466745 
L 247.271825 173.235843 
L 248.090304 171.69773 
L 248.294924 171.745912 
L 248.908783 172.459092 
L 249.727262 173.529193 
L 250.136501 173.948759 
L 250.341121 173.992515 
L 250.95498 173.381775 
L 251.36422 172.884966 
L 251.978079 171.249532 
L 252.387318 170.323349 
L 253.205797 169.521798 
L 253.410417 169.444621 
L 253.615037 169.613571 
L 254.024276 170.238214 
L 254.228896 170.344121 
L 254.842755 170.188778 
L 255.047375 169.854148 
L 255.456614 168.020308 
L 256.479713 162.13819 
L 256.888952 161.225217 
L 257.912051 159.806848 
L 258.116671 159.971075 
L 258.52591 160.636668 
L 258.73053 160.666323 
L 258.93515 160.386414 
L 259.344389 159.118865 
L 259.753628 157.586631 
L 259.958248 157.250548 
L 260.162868 157.382841 
L 261.390586 160.04026 
L 262.209065 161.905175 
L 262.618305 163.174507 
L 263.846023 168.999197 
L 264.050643 169.02882 
L 264.459882 168.541456 
L 264.869122 168.136288 
L 265.89222 168.21462 
L 266.30146 167.776593 
L 266.710699 166.958431 
L 267.119939 165.330494 
L 268.143037 159.647013 
L 269.166136 152.337214 
L 269.370756 151.689421 
L 269.575375 151.441578 
L 269.779995 151.588698 
L 269.984615 152.135802 
L 271.007713 156.523069 
L 271.212333 156.581025 
L 271.621573 156.149075 
L 272.644671 154.649336 
L 272.849291 154.613869 
L 273.053911 154.823635 
L 273.46315 155.989439 
L 273.87239 158.464005 
L 274.690869 164.98566 
L 274.895488 165.834304 
L 275.100108 166.187888 
L 275.304728 166.034262 
L 275.713967 164.711101 
L 276.327826 162.192184 
L 277.146305 157.547299 
L 277.555545 153.937939 
L 277.964784 148.712729 
L 278.783263 134.174798 
L 279.806362 115.516762 
L 280.215601 110.767984 
L 280.624841 108.290743 
L 280.82946 107.705167 
L 281.03408 107.633571 
L 281.2387 108.240085 
L 281.647939 111.620095 
L 282.466418 122.412906 
L 283.489517 136.029112 
L 284.103376 142.496906 
L 284.512615 144.323481 
L 285.126475 145.133652 
L 285.535714 145.763381 
L 286.149573 146.117923 
L 286.354193 146.752177 
L 287.377292 151.866163 
L 287.581911 151.942911 
L 287.786531 151.720892 
L 288.195771 150.469954 
L 288.80963 147.301857 
L 289.218869 144.180224 
L 289.832728 137.139964 
L 290.446587 127.189621 
L 291.060447 113.186806 
L 293.106644 58.084326 
L 293.515883 52.823285 
L 293.925123 49.954746 
L 294.129743 49.301867 
L 294.334362 49.113302 
L 294.538982 49.350115 
L 294.743602 50.057549 
L 294.948221 51.414922 
L 295.357461 56.407943 
L 296.38056 72.336866 
L 296.789799 75.209038 
L 297.199038 76.490226 
L 297.403658 76.400038 
L 297.608278 75.560179 
L 297.812898 73.746682 
L 298.222137 66.802224 
L 299.654475 34.183907 
L 299.859095 31.862175 
L 300.063715 30.860467 
L 300.268334 31.202856 
L 300.472954 32.729279 
L 300.882194 38.417548 
L 301.700672 52.000697 
L 301.905292 53.743623 
L 302.109912 54.426586 
L 302.314532 53.948271 
L 302.519151 52.260627 
L 302.928391 45.515071 
L 303.54225 28.738098 
L 304.360729 6.205159 
L 304.565349 3.466766 
L 304.769968 3.00024 
L 304.974588 4.901448 
L 305.383828 14.251882 
L 306.611546 50.198527 
L 307.020785 56.709152 
L 307.634645 62.74602 
L 308.657743 71.408999 
L 309.066983 72.320751 
L 309.885462 72.874592 
L 310.090081 73.542925 
L 310.294701 74.890656 
L 310.70394 80.164114 
L 312.545518 112.066213 
L 312.954757 114.17481 
L 313.568617 116.225781 
L 313.977856 116.746862 
L 314.182476 116.994441 
L 314.591715 118.209515 
L 315.205574 120.837344 
L 315.410194 120.874496 
L 315.614814 120.152135 
L 316.024053 116.986053 
L 316.433293 112.152537 
L 317.047152 100.983355 
L 317.865631 83.331419 
L 318.070251 81.205022 
L 318.27487 80.622715 
L 318.47949 81.310995 
L 319.297969 87.672552 
L 319.502589 87.375701 
L 319.707208 85.55626 
L 320.116448 78.23543 
L 321.958025 36.285636 
L 322.162645 34.608889 
L 322.367265 34.151313 
L 322.571885 35.043581 
L 322.981124 40.218661 
L 323.799603 56.146792 
L 324.413462 66.838814 
L 325.027321 74.458376 
L 325.436561 76.900315 
L 325.641181 76.856492 
L 325.8458 75.740092 
L 326.25504 70.263803 
L 327.073519 56.14164 
L 327.278138 54.35258 
L 327.482758 53.613873 
L 327.687378 53.59429 
L 328.096617 53.943813 
L 328.505857 53.969406 
L 328.710476 54.205955 
L 329.119716 55.448901 
L 329.528955 58.099814 
L 330.142814 64.222774 
L 330.552054 69.94978 
L 331.165913 82.467585 
L 332.189012 104.121334 
L 332.802871 113.586988 
L 333.21211 117.681367 
L 333.62135 120.168845 
L 334.030589 121.45862 
L 334.235209 121.599069 
L 334.439829 121.342739 
L 334.644448 120.577019 
L 335.053688 117.038693 
L 335.462927 110.785388 
L 336.076787 96.51835 
L 336.690646 75.627515 
L 337.509125 46.635136 
L 337.918364 37.887616 
L 338.122984 35.625029 
L 338.327604 35.118412 
L 338.532223 36.693379 
L 338.941463 45.693894 
L 340.169181 81.97814 
L 340.578421 87.058046 
L 340.98766 89.553351 
L 341.396899 91.333164 
L 341.806139 94.144969 
L 343.443097 108.258974 
L 344.670815 122.118466 
L 345.489294 125.900706 
L 345.693914 126.455669 
L 345.898533 126.655132 
L 346.103153 126.573993 
L 346.512393 125.892086 
L 347.944731 122.276023 
L 348.35397 121.847144 
L 349.172449 120.462162 
L 349.786308 118.060215 
L 350.400167 115.010673 
L 351.014027 111.524425 
L 351.832506 108.325517 
L 352.241745 104.440145 
L 352.650984 97.685144 
L 353.060224 87.739656 
L 353.878703 59.016718 
L 354.492562 40.433051 
L 354.901801 34.344039 
L 355.106421 33.315218 
L 355.311041 33.742743 
L 355.515661 35.600195 
L 355.9249 42.25137 
L 356.947999 59.990356 
L 357.357238 63.598164 
L 357.766478 64.786258 
L 357.971097 64.901214 
L 358.175717 64.88807 
L 358.380337 64.710303 
L 358.994196 63.566263 
L 359.198816 63.461941 
L 359.812675 63.831707 
L 360.221914 64.210721 
L 360.631154 65.491248 
L 361.449633 68.920959 
L 362.063492 69.927984 
L 362.472731 70.912917 
L 362.677351 71.074172 
L 362.881971 70.789408 
L 363.086591 69.982209 
L 363.49583 66.736474 
L 363.905069 61.247998 
L 364.518929 48.53575 
L 365.132788 33.859879 
L 365.542027 28.922569 
L 365.746647 28.891427 
L 365.951267 30.51702 
L 366.360506 37.62729 
L 367.588224 64.583757 
L 368.202084 72.003063 
L 370.043661 88.185179 
L 370.452901 90.169442 
L 370.65752 90.176938 
L 370.86214 89.561739 
L 371.475999 86.139657 
L 371.885239 83.171452 
L 372.294478 77.806683 
L 373.317577 61.77324 
L 373.522197 60.099598 
L 373.726816 59.504643 
L 373.931436 59.770319 
L 374.340675 60.811524 
L 374.545295 60.889228 
L 374.749915 60.619953 
L 375.773014 58.087893 
L 375.977633 58.424602 
L 376.386873 60.290607 
L 376.796112 63.558733 
L 377.205352 69.339502 
L 378.63769 96.024216 
L 380.479267 110.375332 
L 381.502366 116.663972 
L 382.934704 126.952907 
L 383.548563 128.645472 
L 383.957803 129.530904 
L 384.162422 129.600551 
L 384.571662 129.46664 
L 384.776282 129.773892 
L 385.185521 131.425309 
L 387.231718 141.306434 
L 387.436338 141.92837 
L 387.640958 142.17291 
L 387.845577 142.135131 
L 388.254817 141.843862 
L 388.459437 141.83587 
L 388.664056 142.000527 
L 388.868676 142.378813 
L 389.277916 143.974783 
L 389.891775 146.615723 
L 390.301014 147.844899 
L 390.914873 150.084336 
L 391.119493 150.469987 
L 391.324113 150.603205 
L 391.937972 150.400109 
L 392.551831 150.072117 
L 392.756451 150.178354 
L 392.961071 150.517409 
L 393.37031 151.815901 
L 394.393409 155.824419 
L 395.007268 156.929095 
L 395.621127 158.695501 
L 395.825747 158.831427 
L 396.030367 158.706035 
L 397.258085 156.759915 
L 397.667324 155.763457 
L 398.076564 154.368007 
L 398.485803 152.252409 
L 399.099662 146.98014 
L 399.508902 143.981751 
L 399.918141 142.8389 
L 400.327381 142.832526 
L 400.532001 142.517315 
L 400.73662 141.566166 
L 401.14586 137.953239 
L 402.373578 123.580492 
L 402.782818 115.895279 
L 403.601296 94.343705 
L 404.419775 75.416559 
L 404.624395 72.992816 
L 404.829015 71.987674 
L 405.033634 72.119901 
L 405.238254 72.974092 
L 405.647494 76.134329 
L 406.261353 84.167183 
L 406.875212 91.53943 
L 407.079832 92.664714 
L 407.284451 92.786076 
L 407.489071 91.808937 
L 407.693691 89.723721 
L 408.10293 81.930487 
L 408.51217 68.525071 
L 409.535268 27.713075 
L 409.944508 19.823743 
L 410.149128 18.991545 
L 410.353747 20.20193 
L 410.762987 27.48792 
L 411.376846 45.480627 
L 411.990705 63.114961 
L 412.399945 69.564162 
L 412.604564 71.059542 
L 412.809184 71.628871 
L 413.013804 71.493507 
L 413.218424 70.841586 
L 414.241522 66.113745 
L 414.446142 67.197848 
L 414.855381 72.920825 
L 415.67386 88.683176 
L 416.287719 95.349476 
L 417.924677 112.081866 
L 418.743156 123.98992 
L 419.152396 126.959545 
L 419.561635 129.492695 
L 419.970875 133.801134 
L 421.607832 156.177344 
L 423.04017 169.607824 
L 423.44941 171.235431 
L 423.65403 171.241409 
L 424.063269 170.545401 
L 424.267889 170.449962 
L 424.472509 170.684926 
L 425.700227 173.204867 
L 425.904847 173.35813 
L 426.314086 174.117807 
L 426.723326 175.431788 
L 427.132565 176.866602 
L 427.951044 178.255712 
L 428.155664 178.296562 
L 428.360283 177.887696 
L 429.178762 174.999871 
L 429.588002 174.390418 
L 429.792621 174.375789 
L 430.406481 174.86302 
L 430.81572 175.62567 
L 432.452678 180.433725 
L 432.861917 183.1989 
L 433.475777 187.439409 
L 433.680396 187.83074 
L 433.885016 187.726451 
L 434.908115 186.307422 
L 435.521974 185.633606 
L 435.931213 185.10308 
L 436.954312 183.597628 
L 437.158932 183.596373 
L 437.363551 184.047147 
L 437.772791 186.083554 
L 438.795889 191.888364 
L 439.409749 193.43503 
L 439.818988 193.835806 
L 440.228228 193.745783 
L 440.432847 193.533242 
L 440.842087 192.570634 
L 441.660566 190.050792 
L 441.865185 189.941484 
L 442.274425 190.192002 
L 442.479045 190.120274 
L 443.297523 189.144886 
L 443.502143 189.206211 
L 444.116002 189.930784 
L 444.320622 189.771742 
L 444.729861 188.627867 
L 445.139101 187.236544 
L 445.343721 187.072251 
L 445.54834 187.40447 
L 445.95758 188.366781 
L 446.1622 188.470707 
L 446.980678 187.973766 
L 447.594538 187.110658 
L 448.003777 186.072954 
L 448.413017 185.069891 
L 448.617636 185.124975 
L 449.026876 186.279979 
L 449.436115 187.671896 
L 449.640735 187.959136 
L 449.845355 187.842001 
L 450.254594 186.642184 
L 451.073073 183.632633 
L 451.277693 183.53987 
L 451.482312 183.787581 
L 451.891552 184.850218 
L 452.300791 186.684157 
L 452.914651 190.169083 
L 453.11927 190.708063 
L 453.32389 190.873743 
L 453.733129 190.8037 
L 454.142369 190.253756 
L 454.551608 189.3851 
L 454.756228 189.233654 
L 454.960848 189.448803 
L 455.370087 190.333971 
L 455.574707 190.423663 
L 455.779327 190.116444 
L 456.393186 188.513142 
L 456.597806 188.415293 
L 456.802425 188.758475 
L 457.620904 191.178916 
L 458.848623 192.667294 
L 459.053242 192.690147 
L 459.257862 192.834064 
L 459.871721 193.882831 
L 460.076341 193.892672 
L 460.280961 193.577758 
L 460.89482 191.970197 
L 461.09944 191.83688 
L 461.304059 191.980071 
L 461.917919 192.773003 
L 462.327158 192.820756 
L 462.531778 192.83205 
L 463.350257 193.36142 
L 463.554876 193.17008 
L 463.964116 192.355881 
L 464.373355 191.41804 
L 464.577975 191.310746 
L 464.782595 191.640026 
L 465.191834 193.49827 
L 465.601074 195.60832 
L 465.805693 196.144031 
L 466.010313 196.302215 
L 466.214933 196.180291 
L 466.624172 195.35417 
L 467.033412 194.466393 
L 467.851891 193.577758 
L 468.05651 193.384569 
L 468.26113 193.402402 
L 468.46575 193.745882 
L 469.284229 196.248287 
L 469.488848 196.47724 
L 469.693468 196.483746 
L 469.898088 196.298747 
L 470.716567 194.894282 
L 471.125806 194.704329 
L 471.330426 194.365242 
L 472.148905 192.036079 
L 472.558144 191.73061 
L 472.967384 191.71532 
L 473.172004 191.847283 
L 473.376623 192.135018 
L 473.785863 193.433544 
L 474.195102 195.196449 
L 474.399722 195.685167 
L 474.604342 195.831164 
L 475.013581 195.786549 
L 475.218201 196.016824 
L 476.03668 197.915027 
L 476.445919 198.260224 
L 476.650539 198.259795 
L 477.059778 197.885405 
L 478.082877 196.057542 
L 478.287497 195.927462 
L 478.492116 195.664131 
L 479.310595 193.505601 
L 480.129074 191.355031 
L 480.742933 190.758028 
L 480.947553 190.715956 
L 481.152173 190.820344 
L 481.970652 191.769479 
L 483.40299 191.291559 
L 483.60761 191.712249 
L 484.426088 194.562889 
L 484.835328 194.772457 
L 485.244567 194.799801 
L 485.858427 195.045695 
L 486.267666 194.785402 
L 487.086145 194.00459 
L 487.290765 193.788119 
L 487.495384 193.764937 
L 487.700004 194.032396 
L 488.518483 196.237455 
L 488.927722 196.419911 
L 489.132342 196.311594 
L 489.541582 195.586987 
L 490.155441 194.331558 
L 490.360061 194.221655 
L 490.56468 194.333506 
L 491.178539 195.382174 
L 491.383159 195.309753 
L 491.587779 194.79237 
L 492.610878 190.045707 
L 493.429356 186.391269 
L 493.633976 186.208846 
L 493.838596 186.608499 
L 495.066314 192.235113 
L 495.884793 195.812011 
L 496.089413 196.162789 
L 496.294033 196.106285 
L 496.703272 195.120329 
L 497.112512 194.139227 
L 497.521751 193.719661 
L 497.726371 193.685052 
L 498.13561 193.999636 
L 498.34023 194.189457 
L 498.54485 194.215347 
L 498.749469 194.021993 
L 499.363329 192.670498 
L 499.772568 191.354106 
L 500.591047 187.637386 
L 500.795667 187.464936 
L 501.000286 187.56655 
L 501.409526 188.16811 
L 501.818765 189.517294 
L 502.637244 192.476582 
L 503.046484 193.433379 
L 503.251103 193.449131 
L 503.455723 193.082898 
L 504.274202 190.378388 
L 504.478822 190.40834 
L 504.683441 190.951944 
L 505.70654 195.144767 
L 505.91116 195.302686 
L 506.320399 195.20269 
L 506.729639 194.9172 
L 507.343498 194.104024 
L 507.548118 194.171393 
L 507.957357 194.946426 
L 508.366597 196.036044 
L 509.185075 198.911419 
L 509.389695 198.99553 
L 510.003554 198.405462 
L 510.617414 198.458399 
L 510.822033 198.290639 
L 511.026653 197.913343 
L 511.435892 196.409707 
L 511.845132 194.765423 
L 512.254371 194.044945 
L 513.07285 193.396623 
L 513.48209 192.569676 
L 514.505188 189.997492 
L 514.709808 189.751003 
L 514.914428 189.829368 
L 515.119048 190.317426 
L 515.937526 193.358018 
L 516.142146 193.614514 
L 516.346766 193.510093 
L 516.551386 193.042972 
L 517.369865 190.158384 
L 517.574484 189.92375 
L 517.779104 190.14207 
L 519.006822 193.626468 
L 519.416062 193.665998 
L 519.825301 193.441833 
L 521.257639 192.315229 
L 521.666879 191.373095 
L 521.871498 191.200678 
L 522.076118 191.427353 
L 522.485358 192.10358 
L 522.689977 191.902432 
L 523.508456 189.957236 
L 524.326935 188.97772 
L 524.531555 189.150467 
L 524.940794 190.369504 
L 525.554654 192.85794 
L 525.759273 193.023455 
L 525.963893 192.710159 
L 526.373132 191.114684 
L 526.782372 189.278203 
L 526.986992 188.832052 
L 527.191611 188.810785 
L 527.600851 189.288935 
L 528.01009 190.058817 
L 528.41933 191.297372 
L 529.442428 195.139483 
L 529.647048 195.508919 
L 529.851668 195.631206 
L 530.056288 195.5785 
L 530.260907 195.354665 
L 531.284006 193.263736 
L 531.488626 193.334208 
L 531.897865 193.885704 
L 532.307105 194.453481 
L 532.716344 194.708523 
L 533.125583 195.54868 
L 533.739443 197.137252 
L 534.148682 197.334734 
L 534.353302 197.440542 
L 535.171781 198.34602 
L 535.3764 198.067597 
L 536.194879 196.019268 
L 536.399499 195.988556 
L 536.604119 196.306673 
L 537.627217 198.759906 
L 537.831837 198.72959 
L 538.241077 198.488187 
L 538.854936 198.703898 
L 539.059556 198.447931 
L 539.673415 196.570929 
L 540.287274 195.058343 
L 540.696513 194.042039 
L 541.310373 192.229433 
L 541.514992 192.056884 
L 541.924232 192.284583 
L 542.128851 192.218601 
L 542.742711 191.485706 
L 543.970429 189.895647 
L 544.379668 191.238854 
L 544.788908 192.362353 
L 544.993528 192.214275 
L 545.402767 190.207127 
L 545.812007 188.069336 
L 546.016626 187.642373 
L 547.448964 186.999269 
L 547.858204 187.428313 
L 548.472063 188.45644 
L 550.313641 192.458981 
L 550.51826 192.429788 
L 550.9275 192.206977 
L 551.336739 192.501383 
L 551.745979 193.207166 
L 552.155218 194.016908 
L 552.359838 193.984346 
L 552.769077 193.068136 
L 553.587556 190.379444 
L 553.996796 189.229096 
L 554.201415 189.351119 
L 554.406035 189.977216 
L 555.019894 193.005754 
L 555.224514 193.347121 
L 555.429134 193.152446 
L 555.838373 192.525524 
L 556.042993 192.672479 
L 556.452232 193.98887 
L 556.861472 195.19635 
L 557.066092 195.406149 
L 557.270711 195.336106 
L 558.08919 194.237308 
L 558.29381 194.401403 
L 558.703049 195.580878 
L 559.316908 197.47809 
L 559.521528 197.725999 
L 559.726148 197.715828 
L 560.135387 197.420266 
L 560.340007 197.405405 
L 561.158486 197.985962 
L 561.772345 198.757231 
L 561.976965 198.724636 
L 562.181585 198.256228 
L 562.795444 196.034921 
L 563.204683 195.697749 
L 563.613923 195.445877 
L 564.023162 194.803103 
L 564.637021 193.091055 
L 565.046261 192.049982 
L 565.250881 191.800752 
L 565.4555 191.760959 
L 565.66012 191.900352 
L 566.273979 192.738262 
L 566.478599 192.687076 
L 566.887838 192.393495 
L 567.092458 192.416149 
L 567.297078 192.628425 
L 568.115557 194.1848 
L 568.320176 193.885308 
L 568.934036 191.662977 
L 569.547895 188.757749 
L 572.207951 172.693461 
L 572.617191 171.57409 
L 572.82181 171.581025 
L 573.02643 171.923282 
L 573.43567 173.441647 
L 573.844909 175.73128 
L 574.458768 181.370839 
L 574.868008 184.768187 
L 575.277247 186.397907 
L 575.481867 186.540999 
L 575.891106 186.000467 
L 576.095726 185.764479 
L 576.504966 185.794068 
L 576.914205 186.012718 
L 577.528064 186.704664 
L 577.732684 186.659389 
L 578.141923 185.914869 
L 579.165022 183.611432 
L 579.574261 184.103386 
L 579.778881 184.325603 
L 579.983501 184.376393 
L 580.39274 184.189842 
L 580.59736 184.25873 
L 581.211219 185.210671 
L 581.415839 184.899885 
L 581.620459 183.962474 
L 582.234318 178.676665 
L 582.643557 175.778867 
L 583.052797 174.197725 
L 583.462036 173.146084 
L 583.666656 172.2129 
L 584.075895 168.379937 
L 584.485135 161.477518 
L 585.098994 146.20755 
L 587.145191 84.77122 
L 587.349811 81.919061 
L 587.554431 80.735656 
L 587.759051 81.236427 
L 587.96367 83.314181 
L 588.37291 91.053321 
L 589.191389 112.474749 
L 590.419107 144.998618 
L 591.032966 155.741794 
L 591.646825 161.979875 
L 592.465304 168.458731 
L 592.669924 169.111709 
L 593.079163 169.44865 
L 593.488403 169.46995 
L 593.693023 169.241426 
L 595.125361 166.294357 
L 595.5346 164.560711 
L 595.94384 162.183499 
L 596.353079 158.348257 
L 596.966938 151.040604 
L 597.171558 149.74832 
L 597.376178 149.470194 
L 597.580797 150.134037 
L 597.990037 153.729692 
L 599.422375 171.011431 
L 599.831614 173.177061 
L 600.036234 173.632821 
L 600.240854 173.71865 
L 601.468572 172.952995 
L 601.877812 172.352525 
L 602.287051 170.830098 
L 602.90091 168.206199 
L 603.924009 165.367183 
L 604.128629 165.782687 
L 604.537868 167.93088 
L 605.560967 174.229758 
L 605.765586 174.745819 
L 606.379446 175.179652 
L 606.788685 176.301633 
L 607.402544 178.557053 
L 607.811784 179.120471 
L 608.221023 179.608627 
L 609.857981 182.200494 
L 610.47184 183.278652 
L 610.67646 183.286512 
L 611.085699 183.078231 
L 611.290319 183.372406 
L 611.904178 185.172001 
L 612.108798 185.397123 
L 612.313418 185.356471 
L 613.336516 184.301033 
L 613.745756 184.745929 
L 614.359615 185.79714 
L 614.564235 185.91695 
L 614.768854 185.853709 
L 615.382714 185.309875 
L 615.791953 185.625714 
L 617.019671 187.072416 
L 617.428911 187.692932 
L 617.83815 188.79424 
L 618.24739 190.088803 
L 618.45201 190.142037 
L 618.861249 188.906422 
L 619.270488 187.975912 
L 619.679728 187.411834 
L 620.088967 186.775137 
L 620.293587 186.79406 
L 620.702827 187.067265 
L 620.907446 186.947686 
L 621.316686 185.90166 
L 621.725925 184.686057 
L 621.930545 184.399048 
L 622.135165 184.326561 
L 622.339784 184.430453 
L 622.544404 184.736913 
L 623.362883 186.586968 
L 623.976742 186.941874 
L 624.181362 187.249192 
L 624.999841 189.102252 
L 625.204461 188.617497 
L 626.022939 185.721416 
L 626.636799 184.494618 
L 627.046038 183.916241 
L 627.250658 183.924959 
L 627.864517 184.531209 
L 628.682996 185.712335 
L 629.092235 185.741032 
L 629.706095 185.620496 
L 630.524573 186.330671 
L 630.729193 186.095047 
L 631.138433 184.989049 
L 631.752292 183.406256 
L 631.956912 183.210854 
L 632.161531 183.289583 
L 632.570771 183.668167 
L 632.77539 183.537624 
L 632.98001 183.112609 
L 633.38925 181.550191 
L 634.207729 178.402766 
L 635.026207 174.779536 
L 635.640067 172.034044 
L 636.049306 171.182329 
L 636.253926 171.308414 
L 636.663165 172.424087 
L 637.277024 174.27216 
L 638.300123 176.686095 
L 638.709362 177.283857 
L 638.913982 177.430647 
L 639.118602 177.333525 
L 639.527841 176.248299 
L 640.141701 174.300693 
L 640.34632 173.980197 
L 640.55094 173.99988 
L 640.75556 174.412907 
L 641.164799 176.258933 
L 641.574039 178.146602 
L 641.778658 178.661474 
L 641.983278 178.833132 
L 642.392518 178.809156 
L 642.801757 179.389086 
L 643.210996 179.916805 
L 643.620236 180.134563 
L 644.029475 180.098468 
L 644.643335 179.790456 
L 644.847954 179.561932 
L 645.052574 179.075327 
L 645.461813 177.265925 
L 646.280292 173.357469 
L 646.484912 173.311566 
L 646.689532 173.933007 
L 648.32649 182.575874 
L 648.531109 182.903668 
L 648.735729 182.887123 
L 649.144969 182.042013 
L 649.963447 180.285779 
L 650.781926 177.499172 
L 650.986546 177.341021 
L 651.395786 177.5744 
L 651.600405 177.477805 
L 651.805025 176.993446 
L 652.623504 173.921712 
L 653.237363 173.112202 
L 653.851222 170.668744 
L 654.465081 167.516466 
L 655.6928 157.928921 
L 656.102039 156.736336 
L 656.306659 156.502759 
L 656.511279 156.706945 
L 656.920518 158.39089 
L 657.738997 162.374607 
L 658.148237 164.480893 
L 658.762096 168.219144 
L 659.171335 169.213587 
L 659.580575 169.371969 
L 659.989814 169.543924 
L 660.399054 170.264138 
L 661.831392 173.591013 
L 662.036011 173.679748 
L 662.240631 173.491215 
L 662.649871 172.372009 
L 663.672969 168.241501 
L 664.082209 167.652622 
L 664.900688 165.83754 
L 665.719166 164.278424 
L 666.128406 162.692592 
L 666.742265 160.0324 
L 666.946885 159.621288 
L 667.151505 159.557486 
L 667.356124 159.930059 
L 667.765364 161.816539 
L 668.583843 166.380384 
L 669.197702 169.148134 
L 669.811561 172.945102 
L 670.016181 173.46156 
L 670.2208 173.358757 
L 670.42542 172.647261 
L 671.039279 168.603144 
L 671.448519 166.382629 
L 671.857758 165.612153 
L 672.676237 164.802114 
L 673.290096 163.569075 
L 674.108575 161.370422 
L 674.517815 160.728012 
L 674.722434 160.133056 
L 675.131674 157.861784 
L 675.745533 152.808528 
L 676.768632 141.643672 
L 676.973251 141.472444 
L 677.177871 142.337798 
L 677.587111 146.49654 
L 678.814829 161.81393 
L 679.224068 164.392323 
L 679.428688 165.006201 
L 679.633308 165.136876 
L 679.837928 164.905611 
L 681.065646 162.498677 
L 681.884125 161.932849 
L 682.293364 161.003859 
L 682.702604 159.92821 
L 682.907223 159.651438 
L 683.111843 159.735054 
L 683.521083 160.408441 
L 683.725702 160.39784 
L 683.930322 159.951228 
L 684.339562 157.799832 
L 684.748801 154.055867 
L 685.36266 145.654072 
L 686.181139 133.930951 
L 686.385759 132.651876 
L 686.590379 132.693585 
L 686.794998 134.087681 
L 687.408857 142.512427 
L 688.022717 150.219964 
L 688.431956 153.000495 
L 690.068914 159.000277 
L 690.273534 159.139967 
L 690.478153 158.989016 
L 691.296632 157.042202 
L 691.705872 156.750041 
L 691.910491 156.384369 
L 692.319731 154.605448 
L 692.93359 151.126267 
L 693.34283 149.578908 
L 693.547449 149.184539 
L 693.752069 149.202603 
L 694.570548 150.599671 
L 694.775168 150.311572 
L 695.184407 149.310987 
L 695.389027 149.129356 
L 695.593647 149.315114 
L 696.412125 150.973334 
L 698.458323 157.117628 
L 698.867562 157.798775 
L 699.276802 158.0307 
L 699.686041 158.112401 
L 700.2999 158.604488 
L 700.913759 159.14142 
L 701.527619 159.075802 
L 701.732238 158.887336 
L 701.936858 158.424343 
L 702.959957 154.790612 
L 703.778436 154.082682 
L 704.596915 152.228764 
L 704.801534 152.365317 
L 705.210774 152.856974 
L 706.847732 153.248074 
L 707.461591 154.417477 
L 707.87083 156.036729 
L 708.484689 158.572455 
L 708.689309 158.828785 
L 708.893929 158.650985 
L 709.303168 157.355332 
L 710.326267 153.454604 
L 710.530887 153.080313 
L 710.735506 153.020045 
L 711.144746 153.450806 
L 711.758605 154.323491 
L 712.167844 154.371243 
L 712.372464 154.394195 
L 712.577084 154.585931 
L 713.395563 156.015593 
L 713.804802 156.163606 
L 714.623281 157.264881 
L 715.032521 156.77395 
L 715.44176 156.208452 
L 715.64638 156.11265 
L 715.850999 156.212151 
L 716.260239 156.899308 
L 716.669478 157.559056 
L 716.874098 157.374717 
L 717.283338 155.726669 
L 718.306436 150.008811 
L 718.715676 149.19045 
L 718.920295 149.043825 
L 719.124915 149.079391 
L 719.534155 149.280572 
L 719.738774 149.036163 
L 720.352633 147.095326 
L 721.375732 144.317669 
L 721.784972 143.156522 
L 723.831169 134.968589 
L 724.035789 135.277691 
L 724.445028 137.237978 
L 725.058887 140.346336 
L 725.468127 141.024048 
L 726.081986 141.660349 
L 726.695845 141.49784 
L 727.105084 142.464279 
L 727.718944 144.094296 
L 728.128183 144.757545 
L 728.332803 144.865664 
L 728.537423 144.751831 
L 728.742042 144.393722 
L 729.151282 142.771531 
L 730.379 135.082289 
L 730.992859 132.859925 
L 731.402099 129.825376 
L 731.811338 124.791604 
L 732.834437 109.047911 
L 733.039057 108.252535 
L 733.243676 108.841381 
L 733.652916 112.771368 
L 734.676014 124.568529 
L 735.085254 126.826526 
L 735.494493 127.633592 
L 735.903733 128.019507 
L 736.108352 128.429365 
L 736.517592 129.950602 
L 737.336071 133.246666 
L 737.74531 133.759888 
L 737.94993 133.772734 
L 738.15455 133.635124 
L 738.359169 133.30885 
L 738.768409 131.872913 
L 739.791508 126.788218 
L 740.200747 125.083038 
L 740.609986 122.01573 
L 741.019226 116.069017 
L 741.837705 101.545418 
L 742.246944 98.198002 
L 742.451564 98.586724 
L 742.860803 103.215791 
L 743.679282 114.98257 
L 744.907001 126.866748 
L 745.31624 128.886314 
L 745.72548 130.554276 
L 746.339339 133.877914 
L 746.543959 134.445097 
L 746.748578 134.440837 
L 746.953198 133.862261 
L 747.771677 129.923291 
L 747.976297 129.648435 
L 748.180916 129.774652 
L 748.590156 130.347085 
L 749.204015 130.615237 
L 749.408635 130.625508 
L 749.613254 130.383873 
L 750.022494 129.031849 
L 750.636353 125.749358 
L 751.659452 118.236165 
L 751.864071 118.114077 
L 752.068691 118.694469 
L 752.477931 121.714818 
L 753.09179 127.07886 
L 753.501029 128.608617 
L 753.705649 129.051102 
L 753.910269 129.204332 
L 754.728748 128.719478 
L 754.933367 128.425468 
L 755.342607 127.027343 
L 756.161086 123.390738 
L 756.570325 122.554578 
L 756.774945 122.454549 
L 756.979565 122.516699 
L 757.798043 123.433306 
L 758.411903 123.478482 
L 758.821142 124.158903 
L 759.844241 126.17969 
L 760.25348 126.86447 
L 760.4581 126.968263 
L 761.276579 126.497279 
L 761.685818 126.721147 
L 762.299677 127.184503 
L 762.708917 127.842302 
L 763.936635 130.232426 
L 764.141255 130.515275 
L 764.345875 130.554441 
L 764.755114 130.307588 
L 765.164354 130.566362 
L 765.573593 130.703774 
L 766.392072 130.641095 
L 767.005931 130.820711 
L 767.415171 130.951419 
L 767.82441 131.038965 
L 768.02903 130.803208 
L 768.642889 129.214834 
L 769.256748 127.470488 
L 769.461368 127.206298 
L 769.665988 127.220928 
L 769.870607 127.499087 
L 770.279847 128.608915 
L 770.689086 130.516463 
L 771.302945 133.712036 
L 771.712185 134.784382 
L 772.121424 135.089852 
L 772.326044 135.074331 
L 772.530664 134.886062 
L 773.553762 133.298744 
L 773.758382 133.793308 
L 774.167622 136.060551 
L 774.576861 138.712685 
L 774.781481 139.49974 
L 774.986101 139.647917 
L 775.19072 139.094308 
L 776.418439 132.605577 
L 776.623058 132.151534 
L 776.827678 132.027662 
L 777.032298 132.174023 
L 777.646157 132.962365 
L 778.260016 132.601218 
L 778.464636 132.935748 
L 780.920073 140.370641 
L 781.329312 140.753782 
L 781.738552 141.642186 
L 782.55703 143.805537 
L 782.96627 144.258688 
L 783.17089 144.259316 
L 783.989369 143.584773 
L 784.398608 144.422189 
L 784.807847 145.035703 
L 785.217087 144.919196 
L 785.626326 144.637801 
L 786.035566 144.097004 
L 786.240186 144.210705 
L 786.649425 145.450019 
L 787.058664 146.598319 
L 787.672524 147.375367 
L 788.081763 147.544845 
L 788.286383 147.891429 
L 788.695622 149.637657 
L 789.309481 152.190324 
L 789.718721 153.220895 
L 790.12796 153.640098 
L 790.5372 153.981828 
L 790.946439 154.80141 
L 792.174158 158.46559 
L 792.788017 159.998253 
L 793.197256 160.637791 
L 793.606496 161.814921 
L 794.015735 163.016522 
L 794.220355 163.159052 
L 794.424975 163.157236 
L 794.629594 163.38117 
L 795.448073 165.708054 
L 795.652693 165.73695 
L 795.857313 165.573383 
L 796.061932 165.183406 
L 796.675792 163.319217 
L 796.880411 163.251155 
L 797.085031 163.583341 
L 797.49427 164.808059 
L 797.90351 166.713131 
L 799.131228 173.865473 
L 799.335848 174.216779 
L 799.540468 174.078806 
L 800.358947 172.008715 
L 801.382045 168.627912 
L 801.995904 168.057163 
L 802.200524 168.013539 
L 803.019003 168.484688 
L 803.837482 167.397613 
L 804.246721 167.438232 
L 804.655961 166.765077 
L 805.0652 165.576256 
L 806.292919 160.40002 
L 806.702158 159.947826 
L 806.906778 160.030716 
L 807.111398 160.495921 
L 807.520637 162.500493 
L 808.134496 167.364325 
L 808.952975 173.651017 
L 810.589933 182.418219 
L 810.794553 182.749315 
L 811.203792 182.846603 
L 811.613032 182.651994 
L 812.431511 181.929534 
L 812.63613 182.076093 
L 813.04537 183.090054 
L 813.454609 184.38389 
L 813.659229 184.492703 
L 814.068468 183.661925 
L 814.477708 182.976617 
L 814.682328 183.179515 
L 815.296187 184.61565 
L 815.500806 184.608814 
L 815.910046 183.879948 
L 816.319285 182.447445 
L 817.137764 178.875534 
L 818.160863 176.295589 
L 819.388581 171.981602 
L 819.797821 171.618605 
L 820.20706 170.713888 
L 820.820919 168.902471 
L 821.434779 167.72544 
L 821.844018 165.581804 
L 823.276356 154.741869 
L 824.299455 140.241155 
L 824.913314 132.443034 
L 825.936413 120.927235 
L 826.550272 112.283707 
L 827.57337 96.935671 
L 829.619568 70.505536 
L 830.438046 54.145092 
L 831.665765 28.406111 
L 832.688863 5.476193 
L 832.923192 -1 
M 937.262033 -1 
L 937.863403 11.975822 
L 938.681882 23.521969 
L 941.341938 57.001049 
L 942.160417 66.359178 
L 942.569657 69.233529 
L 943.183516 72.6355 
L 944.615854 86.225617 
L 946.457432 95.451816 
L 947.27591 96.938478 
L 947.88977 98.493003 
L 948.503629 100.638686 
L 949.322108 104.400087 
L 950.140587 109.822416 
L 950.754446 114.277547 
L 951.368305 116.561037 
L 951.982164 118.524363 
L 952.391404 119.286419 
L 952.800643 120.786026 
L 953.414502 123.330503 
L 953.823742 123.921462 
L 954.232981 124.49274 
L 954.84684 125.602171 
L 955.05146 125.636516 
L 955.869939 124.935323 
L 956.279178 125.560528 
L 958.529995 130.183948 
L 959.553094 133.557122 
L 959.757714 133.618612 
L 960.166953 133.527137 
L 960.576193 133.667917 
L 960.780812 133.832111 
L 961.190052 134.856242 
L 961.803911 136.773434 
L 962.41777 137.910077 
L 962.62239 138.063142 
L 962.82701 137.9325 
L 963.645489 136.269558 
L 963.850108 136.292311 
L 964.259348 136.961768 
L 965.077827 138.940483 
L 966.305545 140.112131 
L 966.714785 141.547573 
L 968.351742 148.548997 
L 968.556362 149.095474 
L 968.760982 149.258016 
L 968.965602 149.041909 
L 969.579461 147.805435 
L 969.78408 147.609175 
L 970.19332 147.713861 
L 970.602559 147.691603 
L 970.807179 147.683215 
L 971.216419 148.074579 
L 971.625658 148.583177 
L 971.830278 148.658636 
L 972.034897 148.519375 
L 972.648757 147.597386 
L 972.853376 148.040696 
L 973.262616 150.569124 
L 973.671855 153.250286 
L 973.876475 154.063628 
L 974.081095 154.386071 
L 974.285714 154.291954 
L 974.490334 154.062967 
L 974.694954 154.000883 
L 975.513433 154.73959 
L 975.922672 155.148787 
L 976.127292 155.114872 
L 976.741151 154.51777 
L 977.150391 153.710769 
L 977.76425 152.156079 
L 978.173489 151.565383 
L 978.582729 150.243973 
L 979.196588 147.651842 
L 979.401208 147.245485 
L 979.605827 147.338843 
L 980.015067 148.648861 
L 980.628926 151.894399 
L 981.038165 153.979681 
L 981.447405 155.100077 
L 981.652025 155.355548 
L 981.856644 155.380778 
L 982.470504 154.795697 
L 982.879743 154.75947 
L 983.288982 154.140474 
L 983.493602 153.828135 
L 983.698222 153.736528 
L 985.33518 154.313914 
L 985.539799 153.985626 
L 985.949039 152.348772 
L 988.404476 139.546898 
L 988.609095 139.381416 
L 988.813715 139.927298 
L 989.222954 142.821694 
L 990.450673 153.726588 
L 990.859912 155.706756 
L 992.90611 161.339082 
L 993.315349 161.7212 
L 993.724588 161.719912 
L 993.929208 161.665489 
L 994.133828 161.750261 
L 994.338448 162.095524 
L 994.747687 163.384208 
L 995.361546 165.350737 
L 995.566166 165.271348 
L 995.975405 164.001091 
L 996.589265 162.202686 
L 997.203124 160.322216 
L 997.612363 158.204537 
L 998.226222 154.706665 
L 998.430842 154.316721 
L 998.635462 154.417477 
L 999.249321 155.475788 
L 999.453941 155.589984 
L 999.658561 155.875309 
L 1000.0678 157.38687 
L 1000.681659 159.744268 
L 1001.500138 161.889555 
L 1002.318617 163.090363 
L 1003.750955 167.015562 
L 1004.774054 170.32226 
L 1005.183293 170.384806 
L 1005.387913 170.630074 
L 1005.797152 171.609986 
L 1006.001772 171.800566 
L 1006.206392 171.578713 
L 1006.820251 170.347655 
L 1007.43411 170.001731 
L 1008.252589 169.469323 
L 1008.457209 169.531507 
L 1008.661829 169.790512 
L 1009.071068 170.955324 
L 1009.684927 172.857391 
L 1009.889547 172.967855 
L 1010.094167 172.70218 
L 1010.503406 171.466168 
L 1011.321885 168.810797 
L 1011.935744 167.637002 
L 1012.549603 166.175868 
L 1012.754223 166.143207 
L 1012.958843 166.579054 
L 1014.391181 172.333041 
L 1014.595801 172.334328 
L 1015.41428 170.302412 
L 1015.823519 170.221471 
L 1016.232758 170.042945 
L 1016.437378 170.270941 
L 1017.051237 171.331861 
L 1017.460477 171.330507 
L 1017.665097 171.535782 
L 1018.074336 172.620644 
L 1018.688195 174.2892 
L 1019.097435 174.755925 
L 1019.302054 174.809753 
L 1019.506674 174.631359 
L 1019.915914 173.36949 
L 1020.325153 172.2165 
L 1020.529773 172.252661 
L 1020.939012 173.166691 
L 1021.757491 175.254252 
L 1021.962111 175.556353 
L 1022.16673 175.572304 
L 1022.57597 174.91315 
L 1023.189829 173.467108 
L 1023.599069 171.471881 
L 1024.212928 168.459359 
L 1024.622167 167.786732 
L 1025.236026 167.688684 
L 1025.440646 167.696478 
L 1025.645266 167.870579 
L 1027.486843 170.843902 
L 1027.896083 171.521945 
L 1029.328421 174.937489 
L 1029.533041 174.902253 
L 1030.1469 174.115958 
L 1030.35152 174.168631 
L 1030.760759 175.099867 
L 1031.169998 175.798615 
L 1031.374618 175.761992 
L 1031.579238 175.51154 
L 1031.988477 174.444181 
L 1032.806956 171.673722 
L 1033.625435 170.073162 
L 1033.830055 170.127089 
L 1034.034675 170.582321 
L 1035.057773 174.425192 
L 1035.262393 174.64622 
L 1036.080872 174.878409 
L 1037.103971 175.383276 
L 1037.71783 175.316172 
L 1037.922449 175.49952 
L 1038.331689 176.47537 
L 1038.945548 178.320273 
L 1039.150168 178.460591 
L 1039.559407 177.992975 
L 1039.968647 177.552472 
L 1040.173266 177.593124 
L 1040.582506 178.269681 
L 1041.196365 179.7893 
L 1041.400985 179.81387 
L 1041.810224 179.483335 
L 1042.014844 179.530064 
L 1042.424083 180.005044 
L 1042.833323 181.197167 
L 1043.242562 182.180151 
L 1043.447182 182.007767 
L 1044.265661 179.960132 
L 1044.6749 180.103554 
L 1045.28876 180.548945 
L 1045.697999 181.361989 
L 1047.130337 185.835876 
L 1047.334957 186.010539 
L 1047.539577 185.884256 
L 1047.948816 184.767163 
L 1048.358056 182.70536 
L 1049.176534 177.54874 
L 1049.381154 177.065306 
L 1049.585774 177.027461 
L 1049.995013 177.540748 
L 1050.813492 179.093953 
L 1051.018112 179.134869 
L 1051.427351 178.979261 
L 1051.836591 179.020079 
L 1052.041211 178.840529 
L 1052.45045 177.786511 
L 1052.85969 176.808282 
L 1053.268929 176.605121 
L 1054.087408 176.436931 
L 1054.292028 176.802107 
L 1054.701267 178.295109 
L 1055.315126 180.603929 
L 1055.724366 181.128709 
L 1056.133605 181.302084 
L 1056.338225 181.23597 
L 1056.542845 180.980565 
L 1057.156704 179.907855 
L 1057.361324 179.982951 
L 1057.770563 180.534745 
L 1058.179802 181.674723 
L 1058.589042 182.700803 
L 1058.793662 182.659457 
L 1059.407521 181.416181 
L 1059.81676 180.314741 
L 1060.839859 176.333798 
L 1061.044479 175.902838 
L 1061.249098 175.734946 
L 1061.453718 175.862813 
L 1061.862957 176.778099 
L 1062.681436 179.357251 
L 1062.886056 179.339583 
L 1063.295296 178.457322 
L 1063.909155 176.970891 
L 1064.318394 176.355428 
L 1064.523014 176.278186 
L 1064.932253 176.503308 
L 1065.750732 177.128678 
L 1066.364591 177.113884 
L 1066.569211 177.331246 
L 1067.18307 178.610287 
L 1067.38769 178.579774 
L 1068.001549 177.437813 
L 1068.820028 176.068914 
L 1069.229268 176.283238 
L 1069.638507 176.407011 
L 1070.047747 176.04276 
L 1070.456986 175.559623 
L 1070.866225 175.43126 
L 1071.070845 175.586273 
L 1071.480085 176.499081 
L 1072.093944 178.010148 
L 1072.503183 178.289363 
L 1073.321662 179.324359 
L 1073.526282 179.144314 
L 1073.935521 178.453656 
L 1074.140141 178.405078 
L 1074.344761 178.841487 
L 1075.16324 182.324432 
L 1075.367859 182.224139 
L 1076.186338 180.439405 
L 1077.004817 180.860656 
L 1077.823296 180.410443 
L 1078.027916 180.508623 
L 1078.232536 180.828656 
L 1078.846395 182.534925 
L 1079.051015 182.73812 
L 1079.664874 182.651234 
L 1080.074113 183.294569 
L 1080.483353 184.09305 
L 1080.687972 184.26081 
L 1080.892592 184.166032 
L 1081.301832 183.145798 
L 1081.711071 182.062884 
L 1082.73417 181.116688 
L 1083.348029 180.541184 
L 1083.961888 179.478349 
L 1084.166508 179.503876 
L 1084.780367 179.983017 
L 1085.189606 179.878993 
L 1085.803466 180.318208 
L 1086.212705 179.877738 
L 1086.826564 179.151051 
L 1087.235804 177.521132 
L 1087.645043 175.739008 
L 1087.849663 175.583961 
L 1088.258902 176.51632 
L 1089.282001 179.210328 
L 1089.486621 179.428483 
L 1089.69124 179.059872 
L 1090.714339 175.113637 
L 1091.532818 172.897317 
L 1091.942057 171.45669 
L 1092.146677 171.077545 
L 1092.351297 171.16093 
L 1092.760536 172.457408 
L 1093.374395 174.509469 
L 1093.579015 174.805592 
L 1093.783635 174.857307 
L 1093.988255 174.588891 
L 1094.397494 172.880343 
L 1095.011353 169.719643 
L 1095.215973 169.396869 
L 1095.829832 169.598347 
L 1096.239072 169.116696 
L 1097.057551 167.826889 
L 1098.285269 165.013598 
L 1098.489889 164.557739 
L 1098.694508 163.827254 
L 1099.103748 161.057621 
L 1100.126846 150.959927 
L 1101.149945 137.60048 
L 1101.763804 126.682509 
L 1102.377663 116.292885 
L 1102.991523 108.603907 
L 1104.014621 92.574295 
L 1104.62848 87.608419 
L 1105.03772 84.372723 
L 1105.446959 78.334964 
L 1105.856199 67.026455 
L 1106.265438 48.801227 
L 1106.674678 22.48836 
L 1106.944568 -1 
M 1111.567126 -1 
L 1111.994791 25.087954 
L 1112.60865 47.937294 
L 1115.268706 124.136083 
L 1115.882565 135.576985 
L 1116.701044 144.761871 
L 1117.314903 150.43627 
L 1118.951861 161.136251 
L 1119.56572 163.613624 
L 1119.97496 165.600364 
L 1120.588819 169.334322 
L 1120.793439 169.913591 
L 1120.998059 170.130293 
L 1121.202678 170.078214 
L 1122.021157 169.112931 
L 1122.430397 168.678438 
L 1122.635016 168.939623 
L 1123.862735 172.473457 
L 1124.476594 172.837841 
L 1125.090453 173.733973 
L 1125.499693 173.931554 
L 1125.704312 174.329654 
L 1126.522791 176.906528 
L 1126.727411 176.865612 
L 1126.932031 176.662516 
L 1127.13665 176.623581 
L 1127.34127 176.906957 
L 1127.955129 178.181243 
L 1128.159749 178.270176 
L 1128.568988 178.083031 
L 1128.773608 177.79513 
L 1130.001327 174.795223 
L 1130.205946 174.906876 
L 1130.615186 175.63845 
L 1130.819805 175.775796 
L 1131.433665 175.769819 
L 1132.252144 176.297472 
L 1132.456763 176.177728 
L 1133.070622 175.290545 
L 1133.275242 175.267462 
L 1133.889101 175.597534 
L 1134.298341 174.935144 
L 1134.70758 174.202414 
L 1134.9122 174.253138 
L 1135.11682 174.698827 
L 1135.730679 176.830474 
L 1135.935299 177.028782 
L 1136.139918 176.803098 
L 1136.958397 175.104721 
L 1137.163017 175.310954 
L 1137.572256 177.095589 
L 1138.186116 179.576594 
L 1138.595355 180.295058 
L 1138.799975 180.264115 
L 1139.413834 179.720182 
L 1140.027693 180.120198 
L 1140.232313 179.981069 
L 1140.641552 179.440273 
L 1140.846172 179.342787 
L 1141.255411 179.466725 
L 1141.664651 179.633164 
L 1142.07389 179.466526 
L 1142.68775 179.143455 
L 1143.096989 179.11096 
L 1143.506228 179.32535 
L 1143.915468 179.503711 
L 1144.529327 179.293779 
L 1144.938567 179.417255 
L 1145.347806 179.912314 
L 1146.780144 182.671082 
L 1146.984764 182.716489 
L 1147.189384 182.49807 
L 1148.212482 180.364408 
L 1148.417102 180.423521 
L 1148.621722 180.733878 
L 1149.235581 182.060374 
L 1149.440201 181.916027 
L 1150.258679 180.629192 
L 1150.667919 180.404466 
L 1150.872539 180.382968 
L 1151.077158 180.515624 
L 1151.895637 181.551545 
L 1152.100257 181.510496 
L 1152.918736 180.629324 
L 1153.737215 180.28743 
L 1154.146454 179.823678 
L 1154.964933 178.706089 
L 1155.169553 178.731385 
L 1155.374173 179.047852 
L 1156.192652 181.157209 
L 1156.601891 181.396102 
L 1157.01113 181.173555 
L 1157.42037 180.704949 
L 1158.034229 179.874006 
L 1158.443469 179.546807 
L 1159.057328 178.474263 
L 1159.261947 178.545429 
L 1160.080426 179.880314 
L 1160.694286 179.676557 
L 1161.103525 179.998538 
L 1161.308145 180.190505 
L 1161.512764 180.140309 
L 1162.331243 178.789804 
L 1162.535863 178.859517 
L 1162.740483 179.088669 
L 1162.945103 179.56606 
L 1163.558962 181.91999 
L 1163.763581 182.153798 
L 1163.968201 181.99436 
L 1164.377441 181.323945 
L 1164.58206 181.204532 
L 1164.9913 181.376915 
L 1165.19592 181.225601 
L 1165.605159 180.132879 
L 1166.014398 179.037449 
L 1166.219018 179.049074 
L 1166.423638 179.574382 
L 1167.446737 184.102363 
L 1167.651356 184.084992 
L 1168.469835 183.052605 
L 1168.674455 183.0247 
L 1169.083694 183.651292 
L 1169.697554 184.694577 
L 1170.720652 186.146068 
L 1171.539131 188.55571 
L 1171.743751 188.351161 
L 1172.15299 186.647798 
L 1172.766849 183.596373 
L 1172.971469 183.193484 
L 1173.176089 183.319965 
L 1173.585328 184.934791 
L 1174.199188 187.529432 
L 1174.403807 187.962241 
L 1174.608427 188.016135 
L 1175.222286 187.167228 
L 1175.426906 187.440565 
L 1176.040765 188.999416 
L 1176.245385 188.935615 
L 1176.450004 188.510632 
L 1176.859244 186.768763 
L 1177.473103 183.835267 
L 1177.882343 182.614446 
L 1178.086962 182.579705 
L 1178.496202 183.587226 
L 1179.110061 185.067051 
L 1179.92854 185.976293 
L 1180.13316 186.022229 
L 1180.337779 185.83482 
L 1180.747019 184.892257 
L 1181.565498 181.921014 
L 1181.770117 181.600189 
L 1181.974737 181.581761 
L 1182.383977 181.821646 
L 1182.588596 181.716762 
L 1183.407075 180.462951 
L 1183.611695 180.588276 
L 1183.816315 181.148953 
L 1184.634794 184.821322 
L 1184.839413 185.149181 
L 1184.839413 185.149181 
" clip-path="url(#pb734986282)" style="fill: none; stroke: #000000; stroke-width: 2; stroke-linecap: square"/>
   </g>
   <g id="patch_3">
    <path d="M 3.00024 198.907885 
L 1184.99976 198.907885 
" style="fill: none; stroke: #000000; stroke-width: 2; stroke-linejoin: miter; stroke-linecap: square"/>
   </g>
  </g>
 </g>
 <defs>
  <clipPath id="pb734986282">
   <rect x="3.00024" y="3.00024" width="1181.99952" height="195.907645"/>
  </clipPath>
 </defs>
</svg>
