<?xml version="1.0" encoding="utf-8" standalone="no"?>
<!DOCTYPE svg PUBLIC "-//W3C//DTD SVG 1.1//EN"
  "http://www.w3.org/Graphics/SVG/1.1/DTD/svg11.dtd">
<svg xmlns:xlink="http://www.w3.org/1999/xlink" width="1188pt" height="252pt" viewBox="0 0 1188 252" xmlns="http://www.w3.org/2000/svg" version="1.1">
 <metadata>
  <rdf:RDF xmlns:dc="http://purl.org/dc/elements/1.1/" xmlns:cc="http://creativecommons.org/ns#" xmlns:rdf="http://www.w3.org/1999/02/22-rdf-syntax-ns#">
   <cc:Work>
    <dc:type rdf:resource="http://purl.org/dc/dcmitype/StillImage"/>
    <dc:date>2024-07-23T21:48:39.081927</dc:date>
    <dc:format>image/svg+xml</dc:format>
    <dc:creator>
     <cc:Agent>
      <dc:title>Matplotlib v3.8.4, https://matplotlib.org/</dc:title>
     </cc:Agent>
    </dc:creator>
   </cc:Work>
  </rdf:RDF>
 </metadata>
 <defs>
  <style type="text/css">*{stroke-linejoin: round; stroke-linecap: butt}</style>
 </defs>
 <g id="figure_1">
  <g id="patch_1">
   <path d="M 0 252 
L 1188 252 
L 1188 0 
L 0 0 
z
" style="fill: #ffffff"/>
  </g>
  <g id="axes_1">
   <g id="patch_2">
    <path d="M 3.00024 198.907885 
L 1184.99976 198.907885 
L 1184.99976 3.00024 
L 3.00024 3.00024 
z
" style="fill: #ffffff"/>
   </g>
   <g id="matplotlib.axis_1">
    <g id="xtick_1">
     <g id="line2d_1">
      <defs>
       <path id="mbb0ddaedb7" d="M 0 0 
L 0 8 
" style="stroke: #000000; stroke-width: 2"/>
      </defs>
      <g>
       <use xlink:href="#mbb0ddaedb7" x="1131.272509" y="198.907885" style="stroke: #000000; stroke-width: 2"/>
      </g>
     </g>
     <g id="text_1">
      <!-- 0 -->
      <g transform="translate(1126.267665 224.791947) scale(0.18 -0.18)">
       <defs>
        <path id="Arial-BoldMT-30" d="M 1756 4600 
Q 2422 4600 2797 4125 
Q 3244 3563 3244 2259 
Q 3244 959 2794 391 
Q 2422 -78 1756 -78 
Q 1088 -78 678 436 
Q 269 950 269 2269 
Q 269 3563 719 4131 
Q 1091 4600 1756 4600 
z
M 1756 3872 
Q 1597 3872 1472 3770 
Q 1347 3669 1278 3406 
Q 1188 3066 1188 2259 
Q 1188 1453 1269 1151 
Q 1350 850 1473 750 
Q 1597 650 1756 650 
Q 1916 650 2041 751 
Q 2166 853 2234 1116 
Q 2325 1453 2325 2259 
Q 2325 3066 2244 3367 
Q 2163 3669 2039 3770 
Q 1916 3872 1756 3872 
z
" transform="scale(0.015625)"/>
       </defs>
       <use xlink:href="#Arial-BoldMT-30"/>
      </g>
     </g>
    </g>
    <g id="xtick_2">
     <g id="line2d_2">
      <g>
       <use xlink:href="#mbb0ddaedb7" x="1023.818007" y="198.907885" style="stroke: #000000; stroke-width: 2"/>
      </g>
     </g>
     <g id="text_2">
      <!-- 1 -->
      <g transform="translate(1018.813164 224.791947) scale(0.18 -0.18)">
       <defs>
        <path id="Arial-BoldMT-31" d="M 2519 0 
L 1641 0 
L 1641 3309 
Q 1159 2859 506 2644 
L 506 3441 
Q 850 3553 1253 3867 
Q 1656 4181 1806 4600 
L 2519 4600 
L 2519 0 
z
" transform="scale(0.015625)"/>
       </defs>
       <use xlink:href="#Arial-BoldMT-31"/>
      </g>
     </g>
    </g>
    <g id="xtick_3">
     <g id="line2d_3">
      <g>
       <use xlink:href="#mbb0ddaedb7" x="916.363505" y="198.907885" style="stroke: #000000; stroke-width: 2"/>
      </g>
     </g>
     <g id="text_3">
      <!-- 2 -->
      <g transform="translate(911.358662 224.791947) scale(0.18 -0.18)">
       <defs>
        <path id="Arial-BoldMT-32" d="M 3238 816 
L 3238 0 
L 159 0 
Q 209 463 459 877 
Q 709 1291 1447 1975 
Q 2041 2528 2175 2725 
Q 2356 2997 2356 3263 
Q 2356 3556 2198 3714 
Q 2041 3872 1763 3872 
Q 1488 3872 1325 3706 
Q 1163 3541 1138 3156 
L 263 3244 
Q 341 3969 753 4284 
Q 1166 4600 1784 4600 
Q 2463 4600 2850 4234 
Q 3238 3869 3238 3325 
Q 3238 3016 3127 2736 
Q 3016 2456 2775 2150 
Q 2616 1947 2200 1565 
Q 1784 1184 1673 1059 
Q 1563 934 1494 816 
L 3238 816 
z
" transform="scale(0.015625)"/>
       </defs>
       <use xlink:href="#Arial-BoldMT-32"/>
      </g>
     </g>
    </g>
    <g id="xtick_4">
     <g id="line2d_4">
      <g>
       <use xlink:href="#mbb0ddaedb7" x="808.909004" y="198.907885" style="stroke: #000000; stroke-width: 2"/>
      </g>
     </g>
     <g id="text_4">
      <!-- 3 -->
      <g transform="translate(803.90416 224.791947) scale(0.18 -0.18)">
       <defs>
        <path id="Arial-BoldMT-33" d="M 241 1216 
L 1091 1319 
Q 1131 994 1309 822 
Q 1488 650 1741 650 
Q 2013 650 2198 856 
Q 2384 1063 2384 1413 
Q 2384 1744 2206 1937 
Q 2028 2131 1772 2131 
Q 1603 2131 1369 2066 
L 1466 2781 
Q 1822 2772 2009 2936 
Q 2197 3100 2197 3372 
Q 2197 3603 2059 3740 
Q 1922 3878 1694 3878 
Q 1469 3878 1309 3722 
Q 1150 3566 1116 3266 
L 306 3403 
Q 391 3819 561 4067 
Q 731 4316 1036 4458 
Q 1341 4600 1719 4600 
Q 2366 4600 2756 4188 
Q 3078 3850 3078 3425 
Q 3078 2822 2419 2463 
Q 2813 2378 3048 2084 
Q 3284 1791 3284 1375 
Q 3284 772 2843 347 
Q 2403 -78 1747 -78 
Q 1125 -78 715 280 
Q 306 638 241 1216 
z
" transform="scale(0.015625)"/>
       </defs>
       <use xlink:href="#Arial-BoldMT-33"/>
      </g>
     </g>
    </g>
    <g id="xtick_5">
     <g id="line2d_5">
      <g>
       <use xlink:href="#mbb0ddaedb7" x="701.454502" y="198.907885" style="stroke: #000000; stroke-width: 2"/>
      </g>
     </g>
     <g id="text_5">
      <!-- 4 -->
      <g transform="translate(696.449658 224.791947) scale(0.18 -0.18)">
       <defs>
        <path id="Arial-BoldMT-34" d="M 1994 0 
L 1994 922 
L 119 922 
L 119 1691 
L 2106 4600 
L 2844 4600 
L 2844 1694 
L 3413 1694 
L 3413 922 
L 2844 922 
L 2844 0 
L 1994 0 
z
M 1994 1694 
L 1994 3259 
L 941 1694 
L 1994 1694 
z
" transform="scale(0.015625)"/>
       </defs>
       <use xlink:href="#Arial-BoldMT-34"/>
      </g>
     </g>
    </g>
    <g id="xtick_6">
     <g id="line2d_6">
      <g>
       <use xlink:href="#mbb0ddaedb7" x="594" y="198.907885" style="stroke: #000000; stroke-width: 2"/>
      </g>
     </g>
     <g id="text_6">
      <!-- 5 -->
      <g transform="translate(588.995156 224.791947) scale(0.18 -0.18)">
       <defs>
        <path id="Arial-BoldMT-35" d="M 284 1178 
L 1159 1269 
Q 1197 972 1381 798 
Q 1566 625 1806 625 
Q 2081 625 2272 848 
Q 2463 1072 2463 1522 
Q 2463 1944 2273 2155 
Q 2084 2366 1781 2366 
Q 1403 2366 1103 2031 
L 391 2134 
L 841 4519 
L 3163 4519 
L 3163 3697 
L 1506 3697 
L 1369 2919 
Q 1663 3066 1969 3066 
Q 2553 3066 2959 2641 
Q 3366 2216 3366 1538 
Q 3366 972 3038 528 
Q 2591 -78 1797 -78 
Q 1163 -78 763 262 
Q 363 603 284 1178 
z
" transform="scale(0.015625)"/>
       </defs>
       <use xlink:href="#Arial-BoldMT-35"/>
      </g>
     </g>
    </g>
    <g id="xtick_7">
     <g id="line2d_7">
      <g>
       <use xlink:href="#mbb0ddaedb7" x="486.545498" y="198.907885" style="stroke: #000000; stroke-width: 2"/>
      </g>
     </g>
     <g id="text_7">
      <!-- 6 -->
      <g transform="translate(481.540654 224.791947) scale(0.18 -0.18)">
       <defs>
        <path id="Arial-BoldMT-36" d="M 3247 3459 
L 2397 3366 
Q 2366 3628 2234 3753 
Q 2103 3878 1894 3878 
Q 1616 3878 1423 3628 
Q 1231 3378 1181 2588 
Q 1509 2975 1997 2975 
Q 2547 2975 2939 2556 
Q 3331 2138 3331 1475 
Q 3331 772 2918 347 
Q 2506 -78 1859 -78 
Q 1166 -78 719 461 
Q 272 1000 272 2228 
Q 272 3488 737 4044 
Q 1203 4600 1947 4600 
Q 2469 4600 2811 4308 
Q 3153 4016 3247 3459 
z
M 1256 1544 
Q 1256 1116 1453 883 
Q 1650 650 1903 650 
Q 2147 650 2309 840 
Q 2472 1031 2472 1466 
Q 2472 1913 2297 2120 
Q 2122 2328 1859 2328 
Q 1606 2328 1431 2129 
Q 1256 1931 1256 1544 
z
" transform="scale(0.015625)"/>
       </defs>
       <use xlink:href="#Arial-BoldMT-36"/>
      </g>
     </g>
    </g>
    <g id="xtick_8">
     <g id="line2d_8">
      <g>
       <use xlink:href="#mbb0ddaedb7" x="379.090996" y="198.907885" style="stroke: #000000; stroke-width: 2"/>
      </g>
     </g>
     <g id="text_8">
      <!-- 7 -->
      <g transform="translate(374.086153 224.791947) scale(0.18 -0.18)">
       <defs>
        <path id="Arial-BoldMT-37" d="M 272 3703 
L 272 4519 
L 3275 4519 
L 3275 3881 
Q 2903 3516 2518 2831 
Q 2134 2147 1932 1376 
Q 1731 606 1734 0 
L 888 0 
Q 909 950 1279 1937 
Q 1650 2925 2269 3703 
L 272 3703 
z
" transform="scale(0.015625)"/>
       </defs>
       <use xlink:href="#Arial-BoldMT-37"/>
      </g>
     </g>
    </g>
    <g id="xtick_9">
     <g id="line2d_9">
      <g>
       <use xlink:href="#mbb0ddaedb7" x="271.636495" y="198.907885" style="stroke: #000000; stroke-width: 2"/>
      </g>
     </g>
     <g id="text_9">
      <!-- 8 -->
      <g transform="translate(266.631651 224.791947) scale(0.18 -0.18)">
       <defs>
        <path id="Arial-BoldMT-38" d="M 1025 2472 
Q 684 2616 529 2867 
Q 375 3119 375 3419 
Q 375 3931 733 4265 
Q 1091 4600 1750 4600 
Q 2403 4600 2764 4265 
Q 3125 3931 3125 3419 
Q 3125 3100 2959 2851 
Q 2794 2603 2494 2472 
Q 2875 2319 3073 2025 
Q 3272 1731 3272 1347 
Q 3272 713 2867 316 
Q 2463 -81 1791 -81 
Q 1166 -81 750 247 
Q 259 634 259 1309 
Q 259 1681 443 1992 
Q 628 2303 1025 2472 
z
M 1206 3356 
Q 1206 3094 1354 2947 
Q 1503 2800 1750 2800 
Q 2000 2800 2150 2948 
Q 2300 3097 2300 3359 
Q 2300 3606 2151 3754 
Q 2003 3903 1759 3903 
Q 1506 3903 1356 3753 
Q 1206 3603 1206 3356 
z
M 1125 1394 
Q 1125 1031 1311 828 
Q 1497 625 1775 625 
Q 2047 625 2225 820 
Q 2403 1016 2403 1384 
Q 2403 1706 2222 1901 
Q 2041 2097 1763 2097 
Q 1441 2097 1283 1875 
Q 1125 1653 1125 1394 
z
" transform="scale(0.015625)"/>
       </defs>
       <use xlink:href="#Arial-BoldMT-38"/>
      </g>
     </g>
    </g>
    <g id="xtick_10">
     <g id="line2d_10">
      <g>
       <use xlink:href="#mbb0ddaedb7" x="164.181993" y="198.907885" style="stroke: #000000; stroke-width: 2"/>
      </g>
     </g>
     <g id="text_10">
      <!-- 9 -->
      <g transform="translate(159.177149 224.791947) scale(0.18 -0.18)">
       <defs>
        <path id="Arial-BoldMT-39" d="M 291 1059 
L 1141 1153 
Q 1172 894 1303 769 
Q 1434 644 1650 644 
Q 1922 644 2112 894 
Q 2303 1144 2356 1931 
Q 2025 1547 1528 1547 
Q 988 1547 595 1964 
Q 203 2381 203 3050 
Q 203 3747 617 4173 
Q 1031 4600 1672 4600 
Q 2369 4600 2816 4061 
Q 3263 3522 3263 2288 
Q 3263 1031 2797 475 
Q 2331 -81 1584 -81 
Q 1047 -81 715 205 
Q 384 491 291 1059 
z
M 2278 2978 
Q 2278 3403 2083 3637 
Q 1888 3872 1631 3872 
Q 1388 3872 1227 3680 
Q 1066 3488 1066 3050 
Q 1066 2606 1241 2398 
Q 1416 2191 1678 2191 
Q 1931 2191 2104 2391 
Q 2278 2591 2278 2978 
z
" transform="scale(0.015625)"/>
       </defs>
       <use xlink:href="#Arial-BoldMT-39"/>
      </g>
     </g>
    </g>
    <g id="xtick_11">
     <g id="line2d_11">
      <g>
       <use xlink:href="#mbb0ddaedb7" x="56.727491" y="198.907885" style="stroke: #000000; stroke-width: 2"/>
      </g>
     </g>
     <g id="text_11">
      <!-- 10 -->
      <g transform="translate(46.717803 224.791947) scale(0.18 -0.18)">
       <use xlink:href="#Arial-BoldMT-31"/>
       <use xlink:href="#Arial-BoldMT-30" x="55.615234"/>
      </g>
     </g>
    </g>
    <g id="text_12">
     <!-- Chemical Shift / ppm -->
     <g transform="translate(504.992813 245.447573) scale(0.18 -0.18)">
      <defs>
       <path id="Arial-BoldMT-43" d="M 3397 1684 
L 4294 1400 
Q 4088 650 3608 286 
Q 3128 -78 2391 -78 
Q 1478 -78 890 545 
Q 303 1169 303 2250 
Q 303 3394 893 4026 
Q 1484 4659 2447 4659 
Q 3288 4659 3813 4163 
Q 4125 3869 4281 3319 
L 3366 3100 
Q 3284 3456 3026 3662 
Q 2769 3869 2400 3869 
Q 1891 3869 1573 3503 
Q 1256 3138 1256 2319 
Q 1256 1450 1568 1081 
Q 1881 713 2381 713 
Q 2750 713 3015 947 
Q 3281 1181 3397 1684 
z
" transform="scale(0.015625)"/>
       <path id="Arial-BoldMT-68" d="M 1334 4581 
L 1334 2897 
Q 1759 3394 2350 3394 
Q 2653 3394 2897 3281 
Q 3141 3169 3264 2994 
Q 3388 2819 3433 2606 
Q 3478 2394 3478 1947 
L 3478 0 
L 2600 0 
L 2600 1753 
Q 2600 2275 2550 2415 
Q 2500 2556 2373 2639 
Q 2247 2722 2056 2722 
Q 1838 2722 1666 2615 
Q 1494 2509 1414 2295 
Q 1334 2081 1334 1663 
L 1334 0 
L 456 0 
L 456 4581 
L 1334 4581 
z
" transform="scale(0.015625)"/>
       <path id="Arial-BoldMT-65" d="M 2381 1056 
L 3256 909 
Q 3088 428 2723 176 
Q 2359 -75 1813 -75 
Q 947 -75 531 491 
Q 203 944 203 1634 
Q 203 2459 634 2926 
Q 1066 3394 1725 3394 
Q 2466 3394 2894 2905 
Q 3322 2416 3303 1406 
L 1103 1406 
Q 1113 1016 1316 798 
Q 1519 581 1822 581 
Q 2028 581 2168 693 
Q 2309 806 2381 1056 
z
M 2431 1944 
Q 2422 2325 2234 2523 
Q 2047 2722 1778 2722 
Q 1491 2722 1303 2513 
Q 1116 2303 1119 1944 
L 2431 1944 
z
" transform="scale(0.015625)"/>
       <path id="Arial-BoldMT-6d" d="M 394 3319 
L 1203 3319 
L 1203 2866 
Q 1638 3394 2238 3394 
Q 2556 3394 2790 3262 
Q 3025 3131 3175 2866 
Q 3394 3131 3647 3262 
Q 3900 3394 4188 3394 
Q 4553 3394 4806 3245 
Q 5059 3097 5184 2809 
Q 5275 2597 5275 2122 
L 5275 0 
L 4397 0 
L 4397 1897 
Q 4397 2391 4306 2534 
Q 4184 2722 3931 2722 
Q 3747 2722 3584 2609 
Q 3422 2497 3350 2280 
Q 3278 2063 3278 1594 
L 3278 0 
L 2400 0 
L 2400 1819 
Q 2400 2303 2353 2443 
Q 2306 2584 2207 2653 
Q 2109 2722 1941 2722 
Q 1738 2722 1575 2612 
Q 1413 2503 1342 2297 
Q 1272 2091 1272 1613 
L 1272 0 
L 394 0 
L 394 3319 
z
" transform="scale(0.015625)"/>
       <path id="Arial-BoldMT-69" d="M 459 3769 
L 459 4581 
L 1338 4581 
L 1338 3769 
L 459 3769 
z
M 459 0 
L 459 3319 
L 1338 3319 
L 1338 0 
L 459 0 
z
" transform="scale(0.015625)"/>
       <path id="Arial-BoldMT-63" d="M 3353 2338 
L 2488 2181 
Q 2444 2441 2289 2572 
Q 2134 2703 1888 2703 
Q 1559 2703 1364 2476 
Q 1169 2250 1169 1719 
Q 1169 1128 1367 884 
Q 1566 641 1900 641 
Q 2150 641 2309 783 
Q 2469 925 2534 1272 
L 3397 1125 
Q 3263 531 2881 228 
Q 2500 -75 1859 -75 
Q 1131 -75 698 384 
Q 266 844 266 1656 
Q 266 2478 700 2936 
Q 1134 3394 1875 3394 
Q 2481 3394 2839 3133 
Q 3197 2872 3353 2338 
z
" transform="scale(0.015625)"/>
       <path id="Arial-BoldMT-61" d="M 1116 2306 
L 319 2450 
Q 453 2931 781 3162 
Q 1109 3394 1756 3394 
Q 2344 3394 2631 3255 
Q 2919 3116 3036 2902 
Q 3153 2688 3153 2116 
L 3144 1091 
Q 3144 653 3186 445 
Q 3228 238 3344 0 
L 2475 0 
Q 2441 88 2391 259 
Q 2369 338 2359 363 
Q 2134 144 1878 34 
Q 1622 -75 1331 -75 
Q 819 -75 523 203 
Q 228 481 228 906 
Q 228 1188 362 1408 
Q 497 1628 739 1745 
Q 981 1863 1438 1950 
Q 2053 2066 2291 2166 
L 2291 2253 
Q 2291 2506 2166 2614 
Q 2041 2722 1694 2722 
Q 1459 2722 1328 2630 
Q 1197 2538 1116 2306 
z
M 2291 1594 
Q 2122 1538 1756 1459 
Q 1391 1381 1278 1306 
Q 1106 1184 1106 997 
Q 1106 813 1243 678 
Q 1381 544 1594 544 
Q 1831 544 2047 700 
Q 2206 819 2256 991 
Q 2291 1103 2291 1419 
L 2291 1594 
z
" transform="scale(0.015625)"/>
       <path id="Arial-BoldMT-6c" d="M 459 0 
L 459 4581 
L 1338 4581 
L 1338 0 
L 459 0 
z
" transform="scale(0.015625)"/>
       <path id="Arial-BoldMT-20" transform="scale(0.015625)"/>
       <path id="Arial-BoldMT-53" d="M 231 1491 
L 1131 1578 
Q 1213 1125 1461 912 
Q 1709 700 2131 700 
Q 2578 700 2804 889 
Q 3031 1078 3031 1331 
Q 3031 1494 2936 1608 
Q 2841 1722 2603 1806 
Q 2441 1863 1863 2006 
Q 1119 2191 819 2459 
Q 397 2838 397 3381 
Q 397 3731 595 4036 
Q 794 4341 1167 4500 
Q 1541 4659 2069 4659 
Q 2931 4659 3367 4281 
Q 3803 3903 3825 3272 
L 2900 3231 
Q 2841 3584 2645 3739 
Q 2450 3894 2059 3894 
Q 1656 3894 1428 3728 
Q 1281 3622 1281 3444 
Q 1281 3281 1419 3166 
Q 1594 3019 2269 2859 
Q 2944 2700 3267 2529 
Q 3591 2359 3773 2064 
Q 3956 1769 3956 1334 
Q 3956 941 3737 597 
Q 3519 253 3119 86 
Q 2719 -81 2122 -81 
Q 1253 -81 787 320 
Q 322 722 231 1491 
z
" transform="scale(0.015625)"/>
       <path id="Arial-BoldMT-66" d="M 75 3319 
L 563 3319 
L 563 3569 
Q 563 3988 652 4194 
Q 741 4400 980 4529 
Q 1219 4659 1584 4659 
Q 1959 4659 2319 4547 
L 2200 3934 
Q 1991 3984 1797 3984 
Q 1606 3984 1523 3895 
Q 1441 3806 1441 3553 
L 1441 3319 
L 2097 3319 
L 2097 2628 
L 1441 2628 
L 1441 0 
L 563 0 
L 563 2628 
L 75 2628 
L 75 3319 
z
" transform="scale(0.015625)"/>
       <path id="Arial-BoldMT-74" d="M 1981 3319 
L 1981 2619 
L 1381 2619 
L 1381 1281 
Q 1381 875 1398 808 
Q 1416 741 1477 697 
Q 1538 653 1625 653 
Q 1747 653 1978 738 
L 2053 56 
Q 1747 -75 1359 -75 
Q 1122 -75 931 4 
Q 741 84 652 211 
Q 563 338 528 553 
Q 500 706 500 1172 
L 500 2619 
L 97 2619 
L 97 3319 
L 500 3319 
L 500 3978 
L 1381 4491 
L 1381 3319 
L 1981 3319 
z
" transform="scale(0.015625)"/>
       <path id="Arial-BoldMT-2f" d="M -9 -78 
L 1125 4659 
L 1784 4659 
L 638 -78 
L -9 -78 
z
" transform="scale(0.015625)"/>
       <path id="Arial-BoldMT-70" d="M 434 3319 
L 1253 3319 
L 1253 2831 
Q 1413 3081 1684 3237 
Q 1956 3394 2288 3394 
Q 2866 3394 3269 2941 
Q 3672 2488 3672 1678 
Q 3672 847 3265 386 
Q 2859 -75 2281 -75 
Q 2006 -75 1782 34 
Q 1559 144 1313 409 
L 1313 -1263 
L 434 -1263 
L 434 3319 
z
M 1303 1716 
Q 1303 1156 1525 889 
Q 1747 622 2066 622 
Q 2372 622 2575 867 
Q 2778 1113 2778 1672 
Q 2778 2194 2568 2447 
Q 2359 2700 2050 2700 
Q 1728 2700 1515 2451 
Q 1303 2203 1303 1716 
z
" transform="scale(0.015625)"/>
      </defs>
      <use xlink:href="#Arial-BoldMT-43"/>
      <use xlink:href="#Arial-BoldMT-68" x="72.216797"/>
      <use xlink:href="#Arial-BoldMT-65" x="133.300781"/>
      <use xlink:href="#Arial-BoldMT-6d" x="188.916016"/>
      <use xlink:href="#Arial-BoldMT-69" x="277.832031"/>
      <use xlink:href="#Arial-BoldMT-63" x="305.615234"/>
      <use xlink:href="#Arial-BoldMT-61" x="361.230469"/>
      <use xlink:href="#Arial-BoldMT-6c" x="416.845703"/>
      <use xlink:href="#Arial-BoldMT-20" x="444.628906"/>
      <use xlink:href="#Arial-BoldMT-53" x="472.412109"/>
      <use xlink:href="#Arial-BoldMT-68" x="539.111328"/>
      <use xlink:href="#Arial-BoldMT-69" x="600.195312"/>
      <use xlink:href="#Arial-BoldMT-66" x="627.978516"/>
      <use xlink:href="#Arial-BoldMT-74" x="661.279297"/>
      <use xlink:href="#Arial-BoldMT-20" x="694.580078"/>
      <use xlink:href="#Arial-BoldMT-2f" x="722.363281"/>
      <use xlink:href="#Arial-BoldMT-20" x="750.146484"/>
      <use xlink:href="#Arial-BoldMT-70" x="777.929688"/>
      <use xlink:href="#Arial-BoldMT-70" x="839.013672"/>
      <use xlink:href="#Arial-BoldMT-6d" x="900.097656"/>
     </g>
    </g>
   </g>
   <g id="matplotlib.axis_2"/>
   <g id="line2d_12">
    <path d="M 2.96407 189.176378 
L 3.37331 190.807404 
L 3.577929 191.199734 
L 3.782549 191.266496 
L 4.191789 190.714591 
L 4.396408 190.459823 
L 4.601028 190.503764 
L 5.419507 191.733663 
L 5.624127 191.782789 
L 6.237986 191.427984 
L 6.442606 191.58076 
L 6.851845 192.330615 
L 7.056465 192.408257 
L 7.670324 191.368403 
L 7.874944 191.47473 
L 8.284183 192.465798 
L 8.693423 193.731606 
L 8.898042 193.880133 
L 9.102662 193.445433 
L 9.716521 191.102841 
L 9.921141 190.928859 
L 10.125761 191.01534 
L 10.535 191.626911 
L 11.148859 193.224917 
L 11.353479 192.983876 
L 11.762718 191.862853 
L 11.967338 191.820229 
L 12.785817 193.049873 
L 12.990437 192.595413 
L 14.013535 188.578788 
L 14.218155 188.545301 
L 15.036634 189.557319 
L 15.855113 191.847427 
L 16.264352 192.01172 
L 16.468972 191.834466 
L 17.287451 190.535212 
L 17.492071 190.581108 
L 18.10593 191.527979 
L 18.31055 191.319192 
L 18.719789 190.628917 
L 18.924409 190.561305 
L 19.129029 190.741109 
L 19.742888 191.7496 
L 19.947508 191.505626 
L 20.561367 189.424091 
L 21.379846 186.569158 
L 21.584465 186.271638 
L 21.789085 186.276441 
L 22.198325 186.755634 
L 22.607564 187.168703 
L 23.016803 186.785424 
L 23.630663 186.202071 
L 23.835282 186.276738 
L 24.039902 186.885929 
L 24.449142 189.743072 
L 25.063001 194.107873 
L 25.26762 194.57725 
L 25.47224 194.198773 
L 25.88148 191.277418 
L 26.495339 186.040626 
L 26.699959 185.441039 
L 27.313818 184.809792 
L 27.927677 183.520143 
L 28.132297 183.329205 
L 28.336916 183.309189 
L 28.541536 183.457757 
L 28.746156 183.833216 
L 29.155395 185.371854 
L 29.564635 186.934673 
L 30.178494 188.134059 
L 31.201593 192.893018 
L 31.406212 193.281481 
L 31.610832 193.358995 
L 32.020071 192.889873 
L 32.224691 192.909294 
L 32.633931 194.006093 
L 33.04317 195.074164 
L 33.24779 195.351583 
L 33.452409 195.407721 
L 33.657029 195.19596 
L 34.066269 194.244755 
L 34.680128 191.882657 
L 35.089367 190.678468 
L 35.498607 190.201485 
L 35.907846 190.048666 
L 36.112466 189.994908 
L 36.317086 189.777324 
L 36.930945 188.694677 
L 37.135565 188.618438 
L 37.340184 188.727442 
L 37.544804 189.028829 
L 37.954043 190.321071 
L 38.567903 192.524868 
L 38.772522 192.435157 
L 39.181762 190.743489 
L 39.591001 189.190699 
L 39.795621 189.048887 
L 40.000241 189.364553 
L 40.40948 190.396885 
L 40.6141 190.187121 
L 41.023339 187.719631 
L 41.432579 185.465135 
L 41.637199 185.149469 
L 41.841818 185.236332 
L 42.455677 186.297901 
L 42.660297 186.206873 
L 43.274156 184.922663 
L 43.478776 184.877659 
L 43.683396 185.32821 
L 44.297255 187.607907 
L 45.115734 188.541901 
L 45.524973 188.636711 
L 45.729593 188.435574 
L 46.343452 187.042615 
L 46.548072 186.958131 
L 47.161931 187.783716 
L 47.366551 187.541442 
L 47.77579 185.991075 
L 48.18503 184.439008 
L 48.38965 184.143825 
L 49.003509 183.98459 
L 49.208128 184.096186 
L 49.412748 184.480102 
L 50.845086 189.028871 
L 51.458945 190.16889 
L 52.277424 191.033656 
L 52.686664 190.971101 
L 52.891284 190.901874 
L 53.095903 191.040668 
L 53.505143 191.700983 
L 53.709762 191.654832 
L 54.323622 190.631934 
L 54.732861 190.992095 
L 55.142101 191.314645 
L 55.55134 192.239545 
L 56.165199 193.847028 
L 56.779058 194.944549 
L 56.983678 195.053638 
L 57.188298 194.983094 
L 57.392918 194.722121 
L 57.802157 193.72179 
L 59.234495 189.545632 
L 59.439115 189.413892 
L 60.052974 189.688761 
L 60.666833 188.887102 
L 60.871453 188.97847 
L 61.485312 189.83223 
L 61.689932 189.828533 
L 62.099171 189.385207 
L 62.508411 188.834534 
L 62.91765 187.855918 
L 63.12227 187.708412 
L 63.32689 188.126962 
L 63.736129 189.419204 
L 63.940749 189.509 
L 64.554608 188.502081 
L 64.759228 188.643426 
L 65.577707 189.954748 
L 65.986946 190.249889 
L 66.396186 189.836225 
L 66.600805 189.512017 
L 66.805425 188.970736 
L 67.214664 186.753764 
L 68.442383 178.576748 
L 68.851622 175.720795 
L 70.079341 169.966308 
L 70.28396 169.57912 
L 70.48858 169.675248 
L 70.6932 170.284864 
L 72.739397 180.995962 
L 73.148636 184.355077 
L 73.967115 192.343874 
L 74.171735 193.104227 
L 74.376355 193.249565 
L 74.785594 192.598345 
L 74.990214 191.994041 
L 75.194834 190.771111 
L 76.013313 183.504504 
L 76.217932 183.325592 
L 76.422552 183.779373 
L 77.241031 186.449487 
L 77.65027 187.62584 
L 78.05951 188.902401 
L 78.26413 189.085095 
L 78.468749 188.931129 
L 79.696468 187.050689 
L 80.310327 186.278565 
L 81.128806 186.233051 
L 81.333426 186.519097 
L 82.765764 190.357575 
L 83.175003 190.824742 
L 83.379623 190.733757 
L 83.993482 190.021128 
L 84.607341 189.965883 
L 84.811961 189.429616 
L 85.2212 187.486791 
L 85.63044 185.415201 
L 85.83506 185.03052 
L 86.039679 185.32515 
L 86.448919 187.795913 
L 86.858158 190.764014 
L 87.062778 191.474433 
L 87.267398 191.520882 
L 87.472017 191.010071 
L 88.085877 188.503696 
L 88.290496 188.582018 
L 88.904355 190.172162 
L 89.313595 190.820833 
L 89.927454 192.46992 
L 90.336694 192.879164 
L 90.745933 192.85902 
L 91.359792 192.442934 
L 91.564412 192.760683 
L 92.178271 194.289376 
L 92.382891 194.416739 
L 92.587511 194.2108 
L 92.99675 192.775344 
L 93.610609 190.03171 
L 93.815229 189.57674 
L 94.429088 189.170131 
L 95.042947 187.76081 
L 95.247567 187.868497 
L 95.861426 188.976048 
L 96.066046 188.910518 
L 96.884525 187.813549 
L 97.089145 187.915796 
L 97.703004 189.094529 
L 98.112243 189.701978 
L 98.521483 190.047519 
L 98.726102 190.033792 
L 99.135342 189.660161 
L 99.749201 188.898534 
L 99.953821 188.938141 
L 100.15844 189.389669 
L 100.56768 191.87318 
L 100.976919 194.70202 
L 101.386159 196.059749 
L 101.590779 196.106666 
L 102.000018 195.43152 
L 102.409257 194.720549 
L 102.613877 194.771672 
L 103.227736 195.642856 
L 103.432356 195.381713 
L 104.046215 193.579638 
L 104.455455 191.790906 
L 105.273934 186.918099 
L 105.478553 187.005983 
L 106.092413 189.320102 
L 107.115511 192.640714 
L 107.320131 192.891318 
L 107.524751 192.816013 
L 107.93399 191.762179 
L 108.34323 190.880456 
L 108.752469 190.474654 
L 108.957089 190.014754 
L 109.366328 188.282586 
L 109.980187 185.157416 
L 110.184807 184.83529 
L 110.389427 185.083981 
L 110.798666 186.81326 
L 111.412525 189.17693 
L 112.231004 191.059537 
L 112.435624 190.982533 
L 112.844863 189.459831 
L 113.254103 187.910356 
L 113.867962 186.822184 
L 114.277202 186.194379 
L 114.481821 186.094937 
L 114.891061 186.429981 
L 115.3003 187.04219 
L 115.914159 188.184631 
L 116.323399 187.953278 
L 116.732638 187.632258 
L 117.346497 186.807565 
L 117.551117 186.888479 
L 118.164976 188.214166 
L 118.574216 189.157339 
L 119.597314 192.368607 
L 119.801934 192.60132 
L 120.006554 192.486663 
L 120.825033 190.834219 
L 121.234272 189.139023 
L 122.461991 183.600801 
L 122.66661 183.664249 
L 122.87123 184.199368 
L 123.894329 188.983825 
L 125.122047 196.338571 
L 125.326667 196.383022 
L 125.735906 195.49603 
L 126.554385 193.270729 
L 127.372864 189.684851 
L 127.577484 189.464718 
L 127.782104 189.689994 
L 128.191343 190.5602 
L 128.395963 190.638649 
L 128.600582 190.245639 
L 129.009822 188.385938 
L 129.623681 185.624073 
L 129.828301 185.232125 
L 130.032921 185.141947 
L 130.23754 185.384731 
L 130.64678 186.618115 
L 131.260639 188.601481 
L 131.669878 189.301956 
L 132.079118 189.233748 
L 132.283738 189.198561 
L 132.488357 189.300681 
L 132.692977 189.638785 
L 133.102216 191.321785 
L 133.716076 193.974008 
L 134.125315 194.744857 
L 134.739174 195.482346 
L 134.943794 195.435557 
L 135.148414 195.114961 
L 135.557653 193.45457 
L 135.966893 191.09056 
L 136.171512 190.443461 
L 136.376132 190.345251 
L 136.785372 190.797672 
L 136.989991 190.801837 
L 137.399231 190.002217 
L 137.80847 189.098184 
L 138.01309 188.879665 
L 138.21771 188.845923 
L 138.422329 189.058959 
L 138.831569 190.374999 
L 140.263907 195.958097 
L 141.082386 196.702428 
L 141.491625 197.160458 
L 141.696245 197.126418 
L 141.900865 196.891114 
L 142.310104 195.680423 
L 143.128583 192.498733 
L 143.537823 191.707358 
L 143.742442 191.641998 
L 144.151682 192.051837 
L 144.356301 192.283911 
L 144.560921 192.280639 
L 145.3794 191.302491 
L 146.197879 192.999684 
L 147.016358 192.285271 
L 147.425597 190.55629 
L 147.630217 189.604278 
L 147.834837 189.254784 
L 148.039457 189.649069 
L 148.653316 191.683007 
L 148.857935 191.818232 
L 149.267175 191.676845 
L 149.676414 191.270576 
L 150.290273 189.954791 
L 150.699513 188.333327 
L 151.108752 186.427177 
L 151.517992 185.571334 
L 151.927231 185.629895 
L 152.336471 185.927627 
L 152.54109 186.448298 
L 152.95033 188.906438 
L 153.564189 193.558814 
L 153.973429 195.040209 
L 154.178048 195.194048 
L 154.382668 195.118701 
L 154.791907 194.498503 
L 155.201147 193.667734 
L 155.405767 193.436254 
L 155.610386 193.38292 
L 156.019626 193.633779 
L 156.428865 194.320527 
L 156.633485 194.698918 
L 156.838105 194.842302 
L 157.042724 194.579332 
L 157.861203 191.950397 
L 158.065823 192.309197 
L 159.088922 196.005269 
L 159.293541 195.881178 
L 159.702781 195.284396 
L 160.11202 194.973702 
L 160.52126 194.11327 
L 160.930499 193.402596 
L 161.135119 193.646443 
L 161.953598 196.404696 
L 162.158218 196.563039 
L 162.362837 196.4463 
L 162.772077 195.470957 
L 163.181316 194.399528 
L 163.795175 193.623707 
L 164.204415 192.901559 
L 164.409035 192.898032 
L 165.432133 194.107235 
L 166.045992 196.284982 
L 166.455232 197.56915 
L 166.659852 197.964285 
L 166.864471 198.087483 
L 167.069091 197.838409 
L 167.478331 196.207468 
L 167.88757 194.721994 
L 168.706049 193.621115 
L 169.319908 191.281328 
L 169.729148 189.527273 
L 169.933767 189.060149 
L 170.138387 189.239358 
L 170.752246 191.565206 
L 170.956866 191.789844 
L 171.161486 191.564526 
L 171.570725 190.780503 
L 171.775345 190.668312 
L 171.979965 190.831372 
L 172.389204 191.834338 
L 173.003063 193.720175 
L 173.207683 194.004096 
L 173.412303 193.962619 
L 173.616922 193.634926 
L 174.026162 192.191353 
L 174.844641 187.815971 
L 175.04926 187.43282 
L 175.25388 187.554913 
L 176.481599 189.941999 
L 176.686218 190.088826 
L 176.890838 189.951179 
L 177.300077 188.860924 
L 178.527796 184.231666 
L 178.937035 182.991993 
L 179.550894 180.027843 
L 179.755514 179.830701 
L 180.164754 180.610261 
L 180.369373 180.973311 
L 180.573993 181.023925 
L 180.983233 180.498452 
L 181.187852 180.559308 
L 181.392472 181.189535 
L 182.210951 185.59509 
L 182.62019 186.4211 
L 183.02943 186.641403 
L 183.847909 187.948391 
L 184.052528 187.589421 
L 184.461768 186.316643 
L 184.666388 186.069736 
L 184.871007 186.228547 
L 185.484867 187.657756 
L 185.689486 187.691286 
L 186.098726 187.200788 
L 186.303345 187.252421 
L 186.712585 188.297332 
L 187.531064 191.592191 
L 188.144923 193.990582 
L 188.758782 195.645193 
L 189.781881 199.811364 
L 189.9865 199.953431 
L 190.19112 199.262221 
L 191.009599 194.17149 
L 191.214219 193.805211 
L 191.418839 193.71805 
L 191.828078 193.976303 
L 192.032698 193.848005 
L 192.237317 193.263717 
L 193.055796 189.941489 
L 193.260416 189.736145 
L 193.465036 189.917734 
L 193.669656 190.605204 
L 194.283515 193.962916 
L 194.488134 194.491959 
L 194.692754 194.667513 
L 195.101994 194.584772 
L 195.715853 194.260436 
L 196.125092 193.940096 
L 196.329712 194.021817 
L 196.534332 194.476362 
L 196.943571 196.066719 
L 197.148191 196.406056 
L 197.352811 196.003994 
L 197.76205 193.416195 
L 198.580529 187.679089 
L 198.989768 185.995239 
L 199.399008 184.96975 
L 199.808247 184.517457 
L 200.012867 184.473218 
L 200.217487 184.593271 
L 200.422107 184.993761 
L 200.831346 186.54298 
L 201.445205 189.587151 
L 202.059064 193.288068 
L 202.263684 193.479983 
L 202.468304 192.784141 
L 203.491402 186.954944 
L 203.696022 187.024936 
L 204.719121 189.226481 
L 204.923741 189.492129 
L 205.12836 189.51274 
L 205.5376 189.171023 
L 205.742219 189.337228 
L 206.356079 190.58625 
L 206.560698 190.517788 
L 206.765318 190.215254 
L 207.174558 188.940818 
L 207.788417 186.466146 
L 207.993036 186.18826 
L 208.197656 186.374183 
L 208.402276 186.990599 
L 208.811515 189.37964 
L 209.425375 194.224824 
L 209.629994 194.553154 
L 209.834614 193.918167 
L 210.653093 189.820374 
L 210.857713 189.455411 
L 211.062332 189.426301 
L 211.471572 189.589574 
L 212.085431 189.310327 
L 212.290051 189.601303 
L 212.69929 190.998129 
L 213.313149 193.933933 
L 213.722389 195.579451 
L 213.927009 195.689688 
L 214.131628 195.437597 
L 214.540868 194.377047 
L 215.359347 191.952139 
L 216.382445 190.334925 
L 216.791685 189.089982 
L 217.200924 186.549057 
L 217.610164 183.935931 
L 217.814783 183.478878 
L 218.019403 183.651075 
L 218.428643 184.56756 
L 218.633262 184.668618 
L 219.042502 184.126019 
L 219.451741 183.297969 
L 219.860981 181.827199 
L 220.47484 178.568546 
L 220.67946 178.462007 
L 220.884079 179.274545 
L 221.702558 184.422349 
L 222.316417 186.028259 
L 222.521037 186.172961 
L 222.725657 185.946581 
L 223.134896 184.391326 
L 223.544136 182.707859 
L 223.748755 182.221484 
L 223.953375 182.025914 
L 224.157995 182.140357 
L 224.567234 183.216333 
L 225.385713 185.874421 
L 225.590333 186.170029 
L 225.999572 186.250518 
L 226.408812 186.299601 
L 226.613432 186.506646 
L 227.227291 187.705012 
L 227.43191 187.782271 
L 227.84115 187.494865 
L 228.04577 187.557803 
L 228.659629 188.317433 
L 229.273488 189.325286 
L 229.682727 189.661436 
L 230.091967 190.243641 
L 230.296587 190.283588 
L 230.501206 190.052109 
L 230.910446 188.867511 
L 231.319685 187.753798 
L 231.524305 187.638802 
L 231.933544 188.005379 
L 232.342784 188.745545 
L 232.752023 190.23357 
L 233.775122 195.00481 
L 233.979742 195.621565 
L 234.184361 195.876928 
L 234.388981 195.631509 
L 234.798221 193.836531 
L 235.41208 190.915813 
L 235.821319 190.279126 
L 236.025939 190.283078 
L 236.230559 190.534489 
L 236.844418 192.03539 
L 237.049038 192.050179 
L 237.458277 191.21108 
L 237.867517 190.58999 
L 238.072136 190.585401 
L 238.685995 190.926522 
L 239.095235 190.65722 
L 239.299855 190.873741 
L 239.709094 192.576417 
L 240.322953 195.230297 
L 240.732193 196.048573 
L 240.936812 196.056222 
L 241.141432 195.737029 
L 241.959911 193.304216 
L 242.369151 192.874192 
L 242.57377 192.43809 
L 243.392249 189.614392 
L 243.596869 189.628543 
L 243.801489 190.107269 
L 244.210728 191.590109 
L 244.415348 191.895321 
L 244.619968 191.651644 
L 245.438446 189.209525 
L 246.256925 185.760785 
L 246.666165 185.303435 
L 247.280024 183.811713 
L 247.484644 183.115233 
L 247.689263 182.023661 
L 248.098503 177.812486 
L 248.712362 166.684452 
L 249.121602 159.767508 
L 249.530841 156.585223 
L 249.735461 156.78432 
L 249.94008 158.088758 
L 250.55394 165.288348 
L 251.372419 175.207944 
L 251.986278 180.144709 
L 252.395517 182.216172 
L 253.009376 183.87805 
L 253.827855 187.776492 
L 254.032475 187.870324 
L 254.646334 187.005643 
L 255.260193 187.240905 
L 255.464813 187.136448 
L 255.874053 186.408138 
L 256.487912 185.157033 
L 257.51101 183.332434 
L 257.71563 183.416705 
L 258.329489 184.50237 
L 258.534109 184.447465 
L 259.352588 183.440079 
L 259.761827 183.546533 
L 260.375687 183.88417 
L 260.989546 184.716342 
L 261.603405 185.977646 
L 262.421884 188.178681 
L 262.831123 188.620435 
L 263.035743 188.680355 
L 263.240363 188.439101 
L 263.854222 186.858264 
L 264.468081 186.318937 
L 265.08194 184.997458 
L 265.695799 183.928027 
L 266.105039 183.358697 
L 266.718898 182.891785 
L 267.128137 182.473107 
L 267.332757 182.797655 
L 267.946616 184.719869 
L 268.151236 184.686849 
L 268.560476 184.46952 
L 268.765095 184.675332 
L 269.174335 185.853598 
L 269.583574 187.307837 
L 269.788194 187.654228 
L 269.992814 187.610202 
L 270.402053 186.776713 
L 271.425152 184.14017 
L 272.44825 181.234114 
L 272.65287 180.958565 
L 273.266729 181.146443 
L 273.471349 180.733204 
L 274.289828 177.906192 
L 274.903687 177.113797 
L 275.312927 175.692918 
L 275.722166 174.163884 
L 275.926786 173.834321 
L 276.131405 173.840016 
L 276.540645 174.305823 
L 276.745265 174.309903 
L 276.949884 174.009493 
L 277.359124 173.052593 
L 277.563744 172.860635 
L 277.768363 173.040609 
L 278.177603 174.421372 
L 278.586842 176.111256 
L 278.791462 176.314263 
L 278.996082 175.872679 
L 279.405321 173.640961 
L 281.042279 161.460707 
L 282.883856 146.852612 
L 283.702335 141.743608 
L 284.316195 137.219232 
L 284.725434 132.982772 
L 285.748533 118.092754 
L 286.567012 102.415738 
L 289.840927 29.469438 
L 290.864026 10.668442 
L 291.273265 5.710132 
L 291.682505 3.49146 
L 291.887124 3.12841 
L 292.091744 3.00024 
L 292.296364 3.155523 
L 292.500984 3.75256 
L 292.910223 6.578723 
L 293.524082 14.288699 
L 294.342561 29.207318 
L 296.184139 62.500605 
L 296.797998 71.3421 
L 297.821097 90.916834 
L 298.434956 100.731633 
L 299.458054 110.589779 
L 300.071914 115.01994 
L 301.095012 121.224468 
L 301.708871 126.753935 
L 303.141209 140.295573 
L 303.959688 146.74671 
L 304.573547 150.676004 
L 305.392026 154.260054 
L 306.415125 161.156558 
L 306.619745 161.921924 
L 306.824364 162.221612 
L 307.233604 161.908708 
L 307.438224 162.055449 
L 307.847463 163.512408 
L 308.256703 165.015604 
L 308.461322 165.422978 
L 308.665942 165.487701 
L 308.870562 165.245724 
L 309.689041 163.633609 
L 310.712139 162.685804 
L 311.121379 162.436135 
L 311.325998 162.841724 
L 311.530618 163.898704 
L 312.553717 171.275761 
L 312.758337 171.754062 
L 312.962956 171.81428 
L 313.167576 171.324845 
L 314.190675 167.109888 
L 314.395294 166.997441 
L 314.599914 167.207205 
L 315.009154 168.2624 
L 315.418393 170.36293 
L 316.236872 175.777401 
L 316.646111 176.773313 
L 316.850731 176.820272 
L 317.055351 176.6182 
L 317.66921 175.273092 
L 318.692309 172.751759 
L 319.101548 172.192756 
L 319.306168 172.257989 
L 319.715407 172.508337 
L 320.124647 172.092761 
L 320.329266 172.10466 
L 320.533886 172.475402 
L 320.943126 174.238041 
L 321.966224 179.988151 
L 322.170844 180.872594 
L 322.375464 181.141683 
L 322.580083 180.708769 
L 323.193943 178.884128 
L 323.603182 178.468637 
L 324.012422 178.418065 
L 324.217041 178.406974 
L 324.421661 178.138394 
L 324.8309 177.036878 
L 325.03552 176.816575 
L 325.24014 177.027529 
L 326.263239 179.551582 
L 326.467858 179.219427 
L 326.672478 178.201884 
L 327.490957 171.835996 
L 327.900196 170.336497 
L 328.309436 169.508703 
L 328.718675 169.139066 
L 329.332534 169.156574 
L 329.741774 169.470158 
L 329.946394 169.634026 
L 330.151013 169.477298 
L 330.355633 168.756382 
L 331.378732 162.283487 
L 331.787971 162.036666 
L 331.992591 161.891284 
L 332.60645 161.039776 
L 333.220309 160.984658 
L 333.629549 160.238202 
L 334.243408 158.735899 
L 334.448028 158.477859 
L 334.652647 158.445179 
L 334.857267 158.78647 
L 335.266507 160.505847 
L 337.312704 169.826961 
L 337.517324 170.248316 
L 337.721943 170.315036 
L 338.131183 170.248231 
L 338.335802 170.482601 
L 338.745042 171.791374 
L 339.358901 174.459916 
L 339.563521 174.650684 
L 340.17738 173.976643 
L 340.382 174.249727 
L 340.791239 175.644301 
L 341.200479 177.117579 
L 341.405098 177.536725 
L 341.609718 177.675859 
L 341.814338 177.615131 
L 342.428197 177.121192 
L 342.632817 177.424661 
L 343.246676 179.056069 
L 343.451296 178.885105 
L 343.655915 178.562894 
L 343.860535 178.463452 
L 344.065155 178.71992 
L 344.883634 180.796567 
L 345.292873 181.789632 
L 346.315972 183.264312 
L 346.725211 185.063413 
L 347.134451 187.041722 
L 347.33907 187.358281 
L 347.54369 187.218636 
L 348.157549 186.104286 
L 348.771408 183.965934 
L 349.180648 181.830259 
L 349.794507 178.062155 
L 349.999127 177.596305 
L 350.203747 177.458573 
L 350.817606 177.401585 
L 351.022225 177.133388 
L 351.226845 176.637706 
L 351.431465 175.82895 
L 351.840704 172.689628 
L 352.454564 165.230298 
L 353.068423 157.156422 
L 353.477662 154.029849 
L 354.296141 149.062869 
L 355.11462 143.776016 
L 355.31924 143.308127 
L 355.523859 143.677211 
L 355.933099 146.532782 
L 357.365437 158.551761 
L 357.979296 160.758873 
L 359.207015 167.060846 
L 359.411634 167.478547 
L 359.616254 167.523041 
L 359.820874 167.180475 
L 360.230113 165.385156 
L 360.843972 160.618888 
L 361.457832 156.5256 
L 362.27631 150.973354 
L 362.89017 145.892483 
L 363.504029 138.955608 
L 364.322508 126.371592 
L 364.936367 112.487982 
L 365.754846 93.523034 
L 366.164085 86.778924 
L 366.368705 85.046841 
L 366.573325 84.811324 
L 366.777944 86.10756 
L 367.187184 92.58683 
L 367.801043 109.725267 
L 368.414902 126.974026 
L 368.824142 133.809036 
L 370.25648 149.424814 
L 371.074959 156.334322 
L 372.098057 168.050936 
L 372.302677 168.578023 
L 372.507297 168.184163 
L 373.939635 160.547324 
L 374.553494 156.423777 
L 375.371973 147.897056 
L 375.985832 140.770815 
L 376.395072 133.660808 
L 377.008931 118.388914 
L 377.82741 99.005542 
L 378.236649 94.909193 
L 378.441269 94.919563 
L 378.645889 96.187836 
L 379.055128 102.08745 
L 380.282846 127.286717 
L 381.305945 139.734446 
L 381.919804 144.45282 
L 383.966001 155.100428 
L 384.170621 155.510139 
L 384.9891 155.706602 
L 385.19372 155.831925 
L 385.39834 155.680509 
L 385.602959 155.114537 
L 386.216818 152.154254 
L 386.421438 151.914785 
L 386.830678 152.645347 
L 387.035297 152.64352 
L 387.239917 152.013845 
L 389.286114 141.674466 
L 389.490734 141.792012 
L 389.695354 142.685592 
L 390.309213 147.727238 
L 392.150791 162.396868 
L 392.56003 164.327029 
L 393.378509 166.340951 
L 393.787748 169.470583 
L 394.606227 176.417997 
L 394.810847 177.221271 
L 395.015467 177.567025 
L 395.424706 177.648236 
L 395.629326 177.56507 
L 395.833946 177.306435 
L 396.447805 175.896732 
L 397.061664 175.322431 
L 397.266284 175.342744 
L 397.470903 175.684163 
L 397.880143 177.498393 
L 398.698622 181.928681 
L 398.903242 182.557038 
L 399.107861 182.588613 
L 399.517101 181.156345 
L 399.92634 179.954111 
L 400.33558 179.627141 
L 401.563298 178.852042 
L 402.381777 177.946011 
L 402.586397 178.117613 
L 402.995636 179.591146 
L 403.404876 181.392754 
L 405.451073 185.699759 
L 405.860312 186.017848 
L 406.269552 186.068079 
L 406.678791 185.796312 
L 407.088031 185.246701 
L 408.111129 183.335282 
L 408.315749 183.281991 
L 408.520369 183.568844 
L 408.929608 184.546525 
L 409.134228 184.576612 
L 409.543467 183.646443 
L 409.952707 182.934962 
L 410.157327 183.007504 
L 410.566566 183.835299 
L 410.975805 184.955641 
L 411.180425 185.179259 
L 411.998904 185.226898 
L 412.203524 185.423233 
L 413.022003 186.840883 
L 413.431242 187.058126 
L 413.635862 187.394488 
L 414.045101 188.62001 
L 414.86358 191.352042 
L 415.27282 191.661971 
L 415.682059 191.793711 
L 416.295918 191.523177 
L 416.500538 191.697371 
L 417.114397 193.302984 
L 417.319017 193.025523 
L 418.342116 188.23006 
L 418.546735 187.96284 
L 418.751355 188.072949 
L 419.160594 189.004903 
L 419.569834 189.901543 
L 419.979073 189.964268 
L 420.183693 190.03443 
L 421.002172 190.744253 
L 421.206792 190.540736 
L 421.411411 189.873622 
L 422.22989 185.809231 
L 422.63913 185.220438 
L 423.457609 184.742307 
L 423.866848 184.866313 
L 424.480707 185.26642 
L 424.889947 185.278276 
L 425.094567 185.444056 
L 425.503806 186.505711 
L 426.731524 190.400922 
L 426.936144 190.633167 
L 427.140764 190.435047 
L 427.754623 188.570289 
L 427.959243 188.598932 
L 428.573102 190.094138 
L 428.777722 190.145134 
L 428.982341 190.037277 
L 429.186961 190.161325 
L 429.391581 190.748886 
L 430.00544 193.400174 
L 430.21006 193.648823 
L 430.414679 193.465704 
L 430.619299 192.970277 
L 431.028539 191.027664 
L 431.437778 188.642151 
L 431.642398 188.064492 
L 431.847018 188.005592 
L 432.256257 188.720855 
L 432.665496 190.03307 
L 433.279356 192.071173 
L 433.688595 192.938829 
L 433.893215 192.979669 
L 434.916313 191.971688 
L 435.530173 192.278684 
L 435.939412 191.943597 
L 436.144032 191.997823 
L 436.553271 192.337245 
L 436.757891 192.196411 
L 437.37175 191.081593 
L 437.57637 191.060557 
L 437.985609 191.404866 
L 438.599469 191.112743 
L 439.008708 191.535543 
L 439.213328 191.723634 
L 439.417947 191.658061 
L 440.031807 190.833114 
L 440.236426 191.025497 
L 440.645666 192.384756 
L 441.259525 194.579927 
L 441.464145 194.9049 
L 441.668764 194.985686 
L 441.873384 194.787609 
L 442.282624 193.680398 
L 442.691863 192.621973 
L 443.101103 192.466817 
L 443.305722 192.038068 
L 443.919581 189.732873 
L 444.328821 189.484649 
L 444.94268 189.057557 
L 446.375018 190.122993 
L 446.784258 190.759085 
L 447.602737 192.394021 
L 447.807356 192.315317 
L 448.216596 191.697966 
L 448.421215 191.635538 
L 448.625835 191.852484 
L 449.648934 193.685922 
L 450.262793 194.120877 
L 450.672032 193.882555 
L 451.081272 193.547893 
L 451.695131 192.653463 
L 451.899751 192.624523 
L 452.30899 192.691583 
L 452.71823 191.996676 
L 453.332089 190.724875 
L 453.536709 190.552041 
L 453.741328 190.577199 
L 454.150568 191.076493 
L 454.355188 191.54383 
L 454.764427 193.607133 
L 455.173666 196.005821 
L 455.378286 196.64799 
L 455.582906 196.888649 
L 455.787526 196.775437 
L 456.196765 196.235261 
L 456.810624 196.112615 
L 457.219864 195.104167 
L 457.629103 193.770406 
L 457.833723 193.399494 
L 458.038343 193.474968 
L 458.447582 194.230688 
L 458.652202 194.116627 
L 458.856821 193.445093 
L 459.6753 188.943198 
L 459.87992 188.975198 
L 460.493779 190.893672 
L 460.698399 191.04887 
L 460.903019 190.907059 
L 461.312258 190.025846 
L 461.721498 188.847623 
L 461.926117 188.693742 
L 462.130737 189.01166 
L 462.539977 190.705921 
L 462.949216 192.439152 
L 463.358455 193.118505 
L 463.563075 193.323467 
L 463.767695 193.756 
L 464.790794 197.032968 
L 464.995413 197.235083 
L 465.200033 197.211497 
L 465.404653 196.908112 
L 465.813892 195.500747 
L 466.427751 191.88066 
L 467.45085 185.543541 
L 467.65547 185.295488 
L 467.860089 185.576136 
L 468.269329 187.160926 
L 468.678568 188.519123 
L 468.883188 188.433959 
L 469.497047 186.817764 
L 470.110906 186.879767 
L 470.724766 186.483357 
L 470.929385 186.631756 
L 471.338625 187.177372 
L 471.543245 187.146732 
L 471.952484 186.819379 
L 472.157104 187.11231 
L 472.975583 189.489409 
L 473.384822 190.371472 
L 473.998681 192.068453 
L 474.407921 192.474382 
L 474.81716 192.822473 
L 475.635639 193.993386 
L 476.044879 194.300893 
L 476.249498 194.18169 
L 476.658738 192.979074 
L 477.067977 191.765153 
L 477.272597 191.565164 
L 477.477217 191.661461 
L 477.886456 192.478589 
L 478.500315 193.968398 
L 478.704935 193.956244 
L 479.318794 193.075711 
L 479.932653 193.673768 
L 480.137273 193.569779 
L 480.546513 192.618786 
L 481.160372 191.070969 
L 481.978851 189.988236 
L 482.59271 188.604711 
L 482.79733 188.596552 
L 483.206569 189.388819 
L 483.820428 191.159489 
L 484.229668 192.567365 
L 484.434287 192.895992 
L 484.638907 192.778064 
L 485.048147 191.419017 
L 485.866625 187.232405 
L 486.071245 186.97904 
L 486.275865 187.181622 
L 486.685104 188.574538 
L 487.094344 190.009399 
L 487.503583 190.552848 
L 488.322062 191.163442 
L 489.345161 189.894701 
L 489.549781 189.863805 
L 490.572879 190.23391 
L 490.777499 190.5534 
L 491.186738 191.882062 
L 492.209837 196.780792 
L 492.414457 197.194923 
L 492.619076 197.270312 
L 492.823696 196.966418 
L 493.437555 194.986451 
L 494.051415 192.980561 
L 494.256034 192.839174 
L 494.460654 193.050808 
L 494.869893 194.433568 
L 495.483753 197.466562 
L 495.688372 197.902197 
L 495.892992 197.911121 
L 496.097612 197.554871 
L 496.302231 196.788356 
L 497.32533 190.616083 
L 497.52995 190.29519 
L 497.73457 190.204459 
L 497.939189 190.32294 
L 498.553048 191.185667 
L 498.962288 192.162753 
L 499.576147 193.790762 
L 500.394626 194.754844 
L 500.803865 196.54842 
L 501.213105 198.424355 
L 501.417725 199.001886 
L 501.622344 199.240675 
L 501.826964 199.033928 
L 502.440823 197.208012 
L 502.645443 197.358706 
L 503.259302 199.221127 
L 503.463922 199.169153 
L 503.873161 197.876911 
L 504.487021 195.599169 
L 505.714739 192.231725 
L 506.123978 192.176225 
L 506.328598 192.273287 
L 506.533218 192.600852 
L 507.351697 195.204289 
L 507.556316 194.962993 
L 508.170176 193.831474 
L 508.579415 193.276253 
L 508.988655 192.151151 
L 509.397894 191.041986 
L 509.602514 191.011303 
L 510.625612 192.904832 
L 511.034852 193.723065 
L 511.239472 193.81864 
L 511.444091 193.776483 
L 511.648711 193.859734 
L 511.853331 194.254954 
L 512.46719 196.134459 
L 512.67181 196.258422 
L 514.308767 194.884884 
L 514.513387 194.697048 
L 514.718007 194.812767 
L 515.127246 196.164419 
L 515.536486 197.435625 
L 516.150345 198.416578 
L 516.354965 198.573391 
L 516.559584 198.555287 
L 516.764204 198.300519 
L 516.968824 197.780401 
L 517.378063 195.729634 
L 518.196542 190.291238 
L 518.401162 189.69964 
L 518.605782 189.666025 
L 518.810401 190.283673 
L 519.219641 193.31841 
L 519.62888 196.001019 
L 519.8335 196.466273 
L 520.03812 196.627294 
L 520.24274 196.621259 
L 520.651979 196.115845 
L 521.470458 194.976677 
L 521.879697 194.227969 
L 522.493557 192.667572 
L 522.698176 192.435327 
L 523.107416 192.421686 
L 524.335134 192.654143 
L 524.539754 192.92608 
L 524.948993 194.282492 
L 525.972092 198.45032 
L 526.381331 199.171958 
L 526.585951 199.070433 
L 526.790571 198.587627 
L 528.018289 194.038816 
L 528.222909 193.802363 
L 528.427529 193.874183 
L 528.836768 194.811789 
L 529.450627 196.597036 
L 529.655247 196.738083 
L 530.064486 196.404441 
L 530.678346 195.800732 
L 531.292205 195.355833 
L 532.519923 193.794927 
L 533.133782 192.285144 
L 533.952261 190.863414 
L 534.156881 190.843101 
L 534.361501 191.01602 
L 534.97536 191.977595 
L 535.17998 191.898211 
L 535.589219 191.428876 
L 535.793839 191.412855 
L 536.612318 191.96799 
L 536.816937 192.446377 
L 537.226177 194.277605 
L 537.840036 197.290966 
L 538.249275 198.566591 
L 538.863135 199.494296 
L 539.067754 199.477042 
L 540.704712 197.046567 
L 540.909332 197.050222 
L 542.13705 198.078643 
L 542.34167 197.875041 
L 542.750909 196.162464 
L 543.160149 194.74201 
L 543.364769 194.771077 
L 543.569388 195.340024 
L 544.183248 197.740327 
L 544.387867 197.66294 
L 544.592487 196.997356 
L 545.615586 191.227314 
L 546.434065 186.224127 
L 546.638684 185.73006 
L 546.843304 185.650931 
L 547.047924 185.917895 
L 547.457163 187.258371 
L 547.866403 190.212661 
L 548.480262 195.304412 
L 548.684882 195.736689 
L 548.889501 195.504104 
L 550.321839 191.573153 
L 550.526459 191.593339 
L 550.731079 192.010275 
L 551.140318 194.020669 
L 551.549558 196.072116 
L 551.754177 196.539283 
L 551.958797 196.570476 
L 552.572656 195.546346 
L 552.777276 195.563345 
L 553.186516 195.934001 
L 553.391135 195.876971 
L 553.800375 195.045819 
L 554.209614 193.604074 
L 555.028093 189.444872 
L 555.437333 188.491415 
L 555.641952 188.369619 
L 555.846572 188.712908 
L 556.255811 190.995069 
L 556.665051 193.15161 
L 556.869671 193.500296 
L 557.07429 193.471356 
L 557.27891 193.158537 
L 557.68815 191.711182 
L 558.097389 190.057378 
L 558.302009 189.654041 
L 558.506628 189.727646 
L 558.711248 190.293405 
L 559.120488 192.505872 
L 559.529727 194.897675 
L 559.734347 195.601294 
L 559.938967 195.861247 
L 560.143586 195.922357 
L 560.348206 196.152732 
L 560.757445 197.542462 
L 561.166685 199.072345 
L 561.575924 199.86848 
L 561.985164 200.465177 
L 562.189784 200.511031 
L 562.394403 200.209346 
L 563.008262 198.560174 
L 563.212882 198.414623 
L 563.417502 198.682268 
L 564.031361 200.253246 
L 564.235981 200.32889 
L 564.440601 199.950881 
L 565.05446 198.044264 
L 565.259079 198.18293 
L 565.668319 199.508362 
L 566.077558 200.810463 
L 566.282178 201.029024 
L 566.691418 201.097741 
L 567.305277 201.70519 
L 567.509896 201.661546 
L 567.714516 201.376393 
L 568.123756 200.279636 
L 568.737615 198.398644 
L 569.146854 197.703227 
L 569.351474 197.654696 
L 569.760713 197.790175 
L 569.965333 197.696767 
L 570.169953 197.294706 
L 570.783812 194.765043 
L 570.988432 194.596458 
L 571.193052 194.950881 
L 572.01153 197.471705 
L 572.21615 197.178222 
L 572.62539 195.169357 
L 573.034629 193.121693 
L 573.239249 192.664682 
L 573.443868 192.63417 
L 573.853108 192.899137 
L 574.262347 193.018893 
L 574.671587 193.169757 
L 575.080826 192.820646 
L 575.694685 192.043125 
L 576.513164 190.578261 
L 576.717784 190.59713 
L 576.922404 190.895542 
L 578.150122 194.317467 
L 578.559362 195.672264 
L 578.763981 196.009943 
L 578.968601 195.88326 
L 579.377841 194.526041 
L 579.78708 193.337194 
L 580.196319 192.763317 
L 580.605559 191.558662 
L 581.014798 190.270967 
L 581.219418 190.102467 
L 581.424038 190.284863 
L 581.833277 191.35013 
L 582.651756 193.941498 
L 582.856376 193.844393 
L 583.265615 192.157016 
L 584.084094 187.942951 
L 584.288714 187.793065 
L 584.493334 188.223218 
L 585.516432 192.11129 
L 586.130292 192.191013 
L 586.539531 192.665532 
L 587.15339 192.912311 
L 587.56263 193.715288 
L 588.176489 195.02814 
L 588.585728 195.784625 
L 589.199587 197.879759 
L 589.404207 198.048811 
L 589.608827 197.716358 
L 590.427306 194.981139 
L 590.631926 194.758796 
L 590.836545 194.79955 
L 591.655024 195.827802 
L 591.859644 195.692237 
L 592.678123 194.149902 
L 592.882743 193.439781 
L 593.701221 188.226065 
L 593.905841 187.884051 
L 594.315081 187.871429 
L 594.72432 188.119058 
L 594.92894 188.592047 
L 595.338179 190.743191 
L 595.952038 194.068563 
L 596.975137 198.48844 
L 597.588996 201.08818 
L 597.793616 201.174618 
L 597.998236 200.688073 
L 599.225954 195.750118 
L 600.044433 194.157551 
L 600.453672 192.47111 
L 601.067532 189.726158 
L 601.476771 188.658724 
L 601.681391 188.594214 
L 601.886011 189.038051 
L 602.909109 193.290065 
L 603.932208 193.453762 
L 604.136828 193.519887 
L 604.341447 193.410458 
L 604.750687 192.987573 
L 604.955306 192.964115 
L 605.159926 193.123478 
L 605.364546 193.572286 
L 605.978405 196.478938 
L 606.796884 199.72994 
L 607.001504 200.209771 
L 607.206123 200.341299 
L 607.410743 199.910977 
L 608.024602 196.387824 
L 608.433842 193.589285 
L 609.047701 188.150761 
L 609.252321 187.522021 
L 609.45694 187.851031 
L 610.0708 190.352858 
L 611.093898 192.808832 
L 611.503138 193.121353 
L 611.912377 193.805508 
L 612.321617 194.604405 
L 612.526236 194.644904 
L 613.140095 193.742103 
L 613.344715 193.966868 
L 613.958574 195.669757 
L 614.163194 195.870894 
L 614.367814 195.646383 
L 614.777053 193.779543 
L 615.595532 189.121174 
L 615.800152 188.580275 
L 616.004772 188.566082 
L 616.618631 189.697048 
L 617.23249 189.69947 
L 617.641729 190.127498 
L 617.846349 190.001835 
L 619.074068 187.887578 
L 619.278687 187.810616 
L 619.483307 187.968577 
L 619.892546 189.260351 
L 620.301786 190.484641 
L 620.506406 190.494245 
L 621.120265 189.715322 
L 621.734124 190.510394 
L 622.143363 190.309214 
L 622.347983 190.467047 
L 622.757223 191.703066 
L 623.166462 193.036614 
L 623.575702 193.5807 
L 624.189561 193.826289 
L 624.39418 193.630762 
L 624.80342 192.938702 
L 625.00804 193.049406 
L 625.417279 194.60874 
L 625.826519 196.256722 
L 626.031138 196.28069 
L 626.235758 195.537422 
L 627.258857 189.831508 
L 627.463476 189.51274 
L 628.691195 189.212967 
L 629.100434 188.854847 
L 629.509674 188.179956 
L 629.918913 187.241457 
L 630.328153 186.886312 
L 630.532772 186.756782 
L 630.737392 186.365216 
L 631.555871 183.839123 
L 631.760491 184.31615 
L 632.57897 188.435489 
L 632.783589 188.647888 
L 632.988209 188.338596 
L 633.397448 187.304692 
L 633.602068 187.134875 
L 633.806688 187.114179 
L 634.011308 186.939093 
L 635.034406 184.823901 
L 635.239026 184.77588 
L 635.443646 185.086956 
L 635.852885 186.094002 
L 636.057505 186.14827 
L 636.262125 185.642856 
L 637.899082 178.349858 
L 638.103702 178.432217 
L 638.308322 178.939076 
L 639.126801 182.061441 
L 639.331421 182.266318 
L 639.53604 182.159099 
L 640.968378 180.174032 
L 641.172998 180.305559 
L 641.582238 180.923207 
L 641.786857 181.014108 
L 641.991477 180.646596 
L 643.014576 176.442093 
L 643.219195 176.332409 
L 643.423815 176.737998 
L 643.833055 179.145228 
L 644.242294 181.942705 
L 644.446914 182.692688 
L 644.651533 182.955913 
L 645.060773 183.006017 
L 645.470012 183.382113 
L 645.879252 184.47751 
L 646.288491 185.388683 
L 646.493111 185.353793 
L 646.697731 185.030775 
L 647.10697 183.637009 
L 647.51621 182.055704 
L 647.720829 181.677015 
L 647.925449 181.584032 
L 648.130069 181.661164 
L 648.334689 181.888777 
L 648.743928 182.889066 
L 649.562407 185.345379 
L 649.767027 185.526585 
L 649.971646 185.33382 
L 650.585505 183.919697 
L 650.994745 182.672035 
L 651.813224 179.477 
L 652.222463 179.178375 
L 652.427083 179.021265 
L 653.040942 178.034617 
L 653.245562 178.008652 
L 653.654801 178.179021 
L 654.064041 177.631025 
L 654.47328 177.190504 
L 654.88252 177.214769 
L 655.087139 177.384162 
L 655.291759 177.773899 
L 656.314858 180.662022 
L 656.724097 181.291357 
L 657.542576 183.109156 
L 657.747196 183.040482 
L 657.951816 182.849714 
L 658.156435 182.82685 
L 658.565675 183.217141 
L 658.770295 183.111536 
L 659.384154 182.297723 
L 659.588773 182.243837 
L 659.793393 182.3072 
L 660.202633 182.838069 
L 660.611872 183.538884 
L 661.021112 183.993302 
L 661.83959 185.59322 
L 662.04421 185.56683 
L 662.24883 185.29332 
L 662.658069 184.165839 
L 663.271929 181.871693 
L 663.476548 181.45446 
L 663.681168 181.332281 
L 664.090407 181.398151 
L 664.295027 181.219665 
L 664.499647 180.750798 
L 665.318126 177.664768 
L 665.522746 177.50294 
L 665.727365 177.569235 
L 666.341224 178.138394 
L 666.750464 178.314501 
L 667.159703 179.156447 
L 667.568943 180.041527 
L 667.773563 180.218229 
L 667.978182 180.040422 
L 668.387422 178.566124 
L 668.592041 177.762085 
L 668.796661 177.465713 
L 669.001281 177.760385 
L 669.41052 178.517083 
L 669.61514 178.225513 
L 670.638239 174.887901 
L 671.047478 174.155342 
L 671.252098 174.266386 
L 671.661337 175.338325 
L 672.684436 178.871251 
L 672.889056 179.131161 
L 673.093675 179.04621 
L 673.502915 178.690045 
L 673.912154 178.52282 
L 674.321394 177.919451 
L 674.730633 176.668176 
L 675.958352 170.935192 
L 676.367591 170.386898 
L 676.776831 169.961633 
L 677.39069 168.963937 
L 677.799929 168.390103 
L 678.413788 166.801531 
L 679.027648 165.015732 
L 679.232267 164.832061 
L 679.641507 164.741755 
L 680.050746 164.022157 
L 680.664605 162.579264 
L 681.483084 159.373266 
L 681.687704 159.27803 
L 682.096943 160.119381 
L 683.120042 162.914734 
L 683.324662 162.992588 
L 683.733901 162.714107 
L 683.938521 162.766845 
L 684.55238 163.530767 
L 684.757 163.540244 
L 684.96162 163.246591 
L 685.984718 160.303945 
L 686.598577 159.376283 
L 687.417056 157.471323 
L 687.621676 157.591249 
L 688.235535 158.769684 
L 688.440155 158.726975 
L 688.644775 157.912397 
L 689.054014 153.326655 
L 690.281732 134.200304 
L 690.690972 129.970261 
L 690.895592 129.523535 
L 691.100211 130.391276 
L 691.714071 136.205132 
L 692.32793 141.896597 
L 692.737169 144.119348 
L 693.351028 146.243081 
L 693.555648 146.671236 
L 693.760268 146.766896 
L 694.374127 146.200329 
L 694.578747 146.456203 
L 694.987986 148.210427 
L 695.601845 151.765281 
L 695.806465 152.313022 
L 696.011085 152.344427 
L 696.624944 151.45599 
L 697.648043 149.35393 
L 698.057282 146.875221 
L 698.466522 142.438643 
L 698.875761 136.000765 
L 700.103479 113.289471 
L 700.308099 112.41578 
L 700.512719 112.597539 
L 700.921958 114.342286 
L 701.535817 118.507862 
L 702.354296 124.321675 
L 703.582015 128.534677 
L 704.605113 133.385259 
L 705.218973 134.887902 
L 705.832832 136.823375 
L 706.242071 137.14856 
L 706.446691 137.294027 
L 706.85593 138.069635 
L 707.674409 139.961549 
L 707.879029 140.047392 
L 708.083649 139.610185 
L 708.492888 137.12251 
L 709.106747 131.858052 
L 709.925226 123.737515 
L 710.334466 121.395178 
L 710.539085 120.907527 
L 710.743705 120.851984 
L 711.152945 121.126853 
L 711.357564 120.911947 
L 711.562184 120.137741 
L 711.971424 116.638727 
L 712.380663 110.984404 
L 713.608381 89.670362 
L 713.813001 88.620861 
L 714.017621 88.486954 
L 714.222241 89.238552 
L 714.63148 93.219692 
L 716.063818 114.054753 
L 716.677677 124.055135 
L 717.496156 132.331551 
L 717.905396 135.601338 
L 718.110015 136.124005 
L 718.314635 135.893333 
L 718.723875 134.816762 
L 719.337734 134.104814 
L 719.542353 134.068479 
L 719.746973 134.405309 
L 720.360832 136.450381 
L 720.770072 136.957835 
L 720.974692 137.652827 
L 721.383931 140.708132 
L 722.20241 148.276934 
L 722.611649 150.189246 
L 722.816269 150.362718 
L 723.020889 150.096306 
L 723.634748 148.420743 
L 724.248607 146.552075 
L 725.271706 144.690504 
L 725.476326 144.734658 
L 725.885565 145.656328 
L 726.294804 146.306911 
L 726.908664 146.15898 
L 727.113283 145.845439 
L 727.522523 144.339566 
L 727.931762 142.891361 
L 728.136382 142.647897 
L 728.341002 142.848652 
L 728.750241 144.317595 
L 729.3641 147.117665 
L 729.56872 147.500731 
L 729.77334 147.459551 
L 730.591819 146.420973 
L 731.205678 145.304838 
L 732.024157 144.623104 
L 733.047255 142.195476 
L 733.456495 141.38706 
L 734.274974 139.144293 
L 734.684213 138.859862 
L 734.888833 138.463028 
L 735.093453 137.533496 
L 735.911932 131.805101 
L 736.321171 130.347165 
L 736.93503 127.339413 
L 737.34427 126.670472 
L 737.548889 126.644889 
L 737.753509 126.822483 
L 738.776608 128.786598 
L 739.799706 133.599782 
L 740.004326 133.672367 
L 740.413566 133.412712 
L 740.618185 133.019064 
L 742.050523 128.573987 
L 742.459763 127.687632 
L 742.869002 127.483732 
L 743.073622 127.490447 
L 743.278242 127.370436 
L 743.482861 126.888353 
L 743.892101 124.366552 
L 744.50596 119.806733 
L 745.324439 115.429141 
L 745.733678 111.101398 
L 746.552157 101.540984 
L 746.961397 99.552008 
L 747.166017 99.703084 
L 747.370636 100.617445 
L 747.779876 104.124958 
L 748.598355 111.85665 
L 749.007594 113.955098 
L 749.212214 114.209569 
L 749.621453 113.917743 
L 749.826073 114.138429 
L 750.030693 114.904986 
L 750.849172 120.174628 
L 751.258411 120.616382 
L 751.667651 121.018869 
L 752.28151 121.841521 
L 752.486129 121.707146 
L 752.690749 121.087373 
L 753.099989 118.339107 
L 754.736946 103.994238 
L 755.964665 87.677263 
L 756.169285 87.005347 
L 756.373904 87.380891 
L 756.783144 90.672223 
L 758.010862 104.162355 
L 758.420102 105.966768 
L 758.829341 107.000757 
L 759.23858 108.56519 
L 760.057059 112.779383 
L 760.261679 112.857704 
L 761.898637 110.187675 
L 762.307876 109.441729 
L 762.921736 108.957691 
L 763.330975 107.848397 
L 763.740214 106.635455 
L 763.944834 106.640937 
L 764.354074 107.403329 
L 764.558693 107.358707 
L 764.967933 106.240022 
L 765.581792 103.814222 
L 765.991031 102.159355 
L 766.195651 101.650456 
L 766.400271 101.46279 
L 766.604891 101.697032 
L 767.01413 103.314714 
L 767.423369 104.696964 
L 767.627989 104.804864 
L 768.037229 104.412321 
L 768.241848 104.564035 
L 768.651088 106.051039 
L 769.060327 107.692987 
L 769.264947 108.007505 
L 770.083426 107.911803 
L 770.492665 108.498428 
L 770.697285 108.583464 
L 771.106525 108.17422 
L 771.720384 106.964635 
L 773.152722 103.99275 
L 773.357342 103.938865 
L 773.561961 104.176889 
L 774.38044 106.26909 
L 774.78968 107.189485 
L 774.994299 107.25391 
L 775.812778 106.584926 
L 776.017398 106.682371 
L 776.222018 106.593638 
L 776.631257 105.935915 
L 776.835877 105.948834 
L 777.040497 106.411709 
L 778.063595 110.458761 
L 778.268215 110.493354 
L 778.677454 109.445001 
L 779.291314 107.583515 
L 779.495933 107.352205 
L 779.700553 107.553087 
L 780.109793 109.017271 
L 780.519032 110.493014 
L 780.723652 110.637035 
L 781.132891 110.584637 
L 781.337511 110.930901 
L 781.74675 112.580795 
L 782.15599 114.115396 
L 782.565229 114.773926 
L 782.974469 115.172333 
L 783.179088 115.17552 
L 783.383708 114.933714 
L 785.020666 110.687267 
L 785.429905 109.448358 
L 785.839145 109.03631 
L 786.862244 108.269498 
L 787.066863 108.412457 
L 787.476103 109.505304 
L 788.703821 114.383636 
L 789.5223 118.602162 
L 789.72692 119.072049 
L 790.136159 119.411768 
L 790.340779 120.035323 
L 791.363878 126.239767 
L 791.568497 126.408989 
L 791.977737 125.968212 
L 792.591596 125.304285 
L 792.796216 125.291494 
L 793.205455 126.103352 
L 794.433173 128.587713 
L 795.047033 128.575687 
L 795.251652 129.106514 
L 795.660892 131.049126 
L 796.274751 135.746379 
L 796.68399 138.947916 
L 796.88861 139.922069 
L 797.09323 140.319074 
L 797.29785 140.224306 
L 797.707089 139.220363 
L 798.320948 137.80573 
L 798.730188 137.156507 
L 799.548667 136.386338 
L 799.753286 136.129105 
L 799.957906 136.077769 
L 800.162526 136.222555 
L 800.367146 136.557558 
L 800.776385 138.038272 
L 801.185624 139.974978 
L 801.390244 140.537932 
L 801.594864 140.668355 
L 802.208723 140.24394 
L 802.413343 140.4693 
L 803.845681 143.702114 
L 804.050301 143.774784 
L 804.45954 143.407569 
L 804.66416 143.582061 
L 805.073399 145.220269 
L 805.687258 147.755626 
L 806.914977 151.535374 
L 807.324216 151.588452 
L 807.528836 151.826349 
L 808.347315 153.340254 
L 808.551935 153.315521 
L 808.961174 152.67841 
L 809.575033 151.412771 
L 809.779653 151.611061 
L 809.984273 152.441703 
L 810.393512 155.666655 
L 811.211991 163.294528 
L 811.62123 165.137272 
L 811.82585 165.490591 
L 812.03047 165.560965 
L 812.23509 165.458633 
L 812.644329 164.807965 
L 812.848949 164.430339 
L 813.053569 164.347683 
L 813.258188 164.648942 
L 814.281287 167.314 
L 814.690526 167.813294 
L 815.099766 167.885964 
L 815.509005 167.753076 
L 815.713625 168.040142 
L 816.122864 169.859514 
L 816.532104 171.408138 
L 816.736724 171.596909 
L 816.941343 171.525684 
L 817.350583 170.844929 
L 817.759822 170.242579 
L 817.964442 170.423913 
L 818.373681 171.834976 
L 819.39678 176.220387 
L 819.80602 177.376215 
L 820.010639 177.520066 
L 820.419879 177.161988 
L 821.033738 176.725674 
L 821.442977 176.546125 
L 821.647597 176.594062 
L 822.056837 177.060209 
L 822.466076 177.597368 
L 822.670696 177.599535 
L 823.079935 176.81394 
L 823.284555 176.423097 
L 823.489175 176.363857 
L 823.693794 176.850402 
L 824.103034 179.383592 
L 824.716893 183.208599 
L 825.535372 185.178367 
L 825.739992 185.347546 
L 825.944611 184.944209 
L 826.353851 182.870197 
L 826.96771 179.463401 
L 827.17233 178.762459 
L 827.376949 178.568929 
L 827.990809 179.164266 
L 828.400048 178.132615 
L 829.218527 176.176573 
L 829.832386 175.846628 
L 830.241626 174.407858 
L 830.650865 173.033682 
L 830.855485 172.912609 
L 831.060105 173.085868 
L 832.083203 174.618854 
L 832.287823 174.637723 
L 832.492443 174.490132 
L 832.697062 174.030784 
L 833.106302 171.927151 
L 835.152499 156.545786 
L 835.970978 149.066099 
L 836.380217 147.584662 
L 836.994077 146.865914 
L 837.198696 146.264627 
L 837.607936 143.89624 
L 838.017175 139.41266 
L 839.449513 119.406796 
L 840.677232 109.26201 
L 841.495711 102.610628 
L 841.90495 97.693582 
L 842.723429 84.052544 
L 843.337288 74.735 
L 844.565006 59.20804 
L 845.178866 48.694169 
L 846.611204 19.896361 
L 847.787276 -1 
M 953.112583 -1 
L 954.4458 18.055571 
L 955.264279 27.672759 
L 956.491997 48.14868 
L 957.105856 54.756928 
L 957.719715 58.916894 
L 959.152053 67.618575 
L 960.993631 81.138753 
L 962.221349 84.947313 
L 962.630589 86.949124 
L 963.244448 91.583736 
L 965.290645 108.872272 
L 965.495265 110.027759 
L 965.699885 110.5452 
L 965.904504 110.540398 
L 966.518364 110.019387 
L 966.722983 110.102384 
L 967.132223 110.798183 
L 967.746082 112.252508 
L 967.950702 112.380508 
L 968.155321 112.258967 
L 968.769181 111.531507 
L 968.9738 111.570179 
L 969.17842 111.798642 
L 969.58766 112.900626 
L 969.996899 114.783275 
L 971.019998 121.387061 
L 971.633857 122.81491 
L 971.838477 123.200865 
L 972.043096 123.318539 
L 972.247716 122.973465 
L 972.656955 120.986699 
L 973.066195 118.938524 
L 973.475434 117.97338 
L 973.884674 117.486325 
L 974.089294 117.772413 
L 974.293913 118.535952 
L 974.703153 121.43334 
L 975.521632 130.154782 
L 975.930871 132.160884 
L 976.74935 134.864486 
L 977.158589 135.409082 
L 977.567829 135.552934 
L 977.772449 135.859251 
L 978.181688 137.277963 
L 979.614026 143.978471 
L 980.227885 144.430297 
L 980.637125 145.508355 
L 981.250984 147.317697 
L 981.455604 147.418499 
L 982.274083 146.867784 
L 982.478702 146.960087 
L 982.683322 146.906328 
L 983.501801 146.016106 
L 983.91104 146.324973 
L 984.5249 147.172996 
L 984.729519 147.253017 
L 984.934139 147.100539 
L 985.343379 146.272022 
L 985.957238 144.966861 
L 986.161857 144.752422 
L 986.571097 144.77724 
L 986.775717 144.794749 
L 986.980336 144.656549 
L 987.184956 144.279561 
L 987.594196 142.765528 
L 988.003435 141.110024 
L 988.208055 140.691771 
L 988.412674 140.67439 
L 989.026534 141.526195 
L 989.435773 142.324752 
L 990.049632 144.1519 
L 990.254252 144.368081 
L 990.663491 144.367486 
L 990.868111 144.165117 
L 991.277351 143.043159 
L 992.709689 138.673599 
L 992.914308 138.378757 
L 993.118928 138.340679 
L 993.323548 138.547384 
L 994.755886 141.774333 
L 995.165125 143.837637 
L 995.574365 145.987633 
L 995.778985 146.434317 
L 996.392844 146.663417 
L 996.802083 147.232619 
L 997.006703 147.219785 
L 998.029802 146.594572 
L 998.439041 146.95163 
L 998.84828 147.954511 
L 999.666759 151.209509 
L 1000.280619 154.009111 
L 1000.485238 154.385165 
L 1000.689858 154.164904 
L 1000.894478 153.324105 
L 1001.303717 150.333225 
L 1002.531436 139.586217 
L 1002.736055 139.579885 
L 1003.145295 141.675826 
L 1003.759154 145.468493 
L 1005.191492 157.094206 
L 1005.600731 158.381986 
L 1005.805351 158.503399 
L 1006.41921 157.828763 
L 1006.62383 158.217396 
L 1007.851548 163.036657 
L 1008.056168 163.156073 
L 1008.260788 162.955021 
L 1008.670027 162.086599 
L 1009.283887 160.542394 
L 1009.897746 159.976805 
L 1010.306985 158.865812 
L 1011.125464 156.713095 
L 1011.534704 155.916833 
L 1012.148563 155.764737 
L 1012.557802 155.809614 
L 1013.171661 155.966597 
L 1013.376281 156.434104 
L 1013.785521 158.327973 
L 1014.603999 162.962075 
L 1015.217859 164.489239 
L 1015.831718 165.683908 
L 1016.036338 165.701672 
L 1016.445577 165.406999 
L 1016.650197 165.519063 
L 1017.059436 166.526279 
L 1017.673295 168.354703 
L 1018.082535 169.010088 
L 1018.287155 169.152962 
L 1018.491774 169.078678 
L 1019.105633 167.881629 
L 1019.310253 167.955361 
L 1019.924112 169.40858 
L 1020.128732 169.379003 
L 1020.333352 168.690172 
L 1021.35645 162.697448 
L 1021.76569 161.996804 
L 1021.97031 162.035773 
L 1022.379549 162.975674 
L 1022.584169 163.408121 
L 1022.788789 163.486145 
L 1022.993408 163.207239 
L 1023.402648 161.918397 
L 1023.811887 160.368667 
L 1024.016507 159.934096 
L 1024.221127 159.851014 
L 1024.834986 160.080624 
L 1025.448845 160.180959 
L 1025.653465 160.352264 
L 1025.858084 160.749991 
L 1026.471944 162.544417 
L 1026.676563 162.63723 
L 1027.085803 162.365038 
L 1028.313521 162.292539 
L 1028.518141 162.1152 
L 1029.745859 159.483757 
L 1029.950479 159.832528 
L 1030.359718 162.018562 
L 1030.768958 164.629011 
L 1031.382817 166.733494 
L 1031.792057 167.777299 
L 1032.201296 168.096705 
L 1032.815155 168.201927 
L 1033.019775 168.222113 
L 1033.224395 168.370512 
L 1033.838254 169.361196 
L 1034.247493 169.453924 
L 1034.656733 169.771545 
L 1034.861352 169.450227 
L 1035.475212 167.206865 
L 1035.884451 166.849042 
L 1036.70293 166.500781 
L 1037.316789 167.10772 
L 1037.930648 168.06717 
L 1039.362986 168.530385 
L 1039.567606 169.088622 
L 1040.181465 171.849297 
L 1040.386085 172.047672 
L 1040.999944 171.675655 
L 1041.409184 171.337169 
L 1041.613803 171.293525 
L 1041.818423 171.102119 
L 1042.023043 170.465857 
L 1042.432282 168.500977 
L 1042.636902 168.065172 
L 1042.841522 168.334857 
L 1043.660001 171.338486 
L 1044.47848 172.715891 
L 1045.092339 174.977357 
L 1045.706198 176.240403 
L 1046.115437 177.23368 
L 1046.320057 177.292581 
L 1046.729297 176.45463 
L 1047.547775 174.657271 
L 1048.570874 170.8989 
L 1048.980114 170.368285 
L 1049.184733 170.340789 
L 1049.389353 170.449326 
L 1049.593973 170.817731 
L 1050.003212 172.445527 
L 1050.412452 174.3725 
L 1050.617071 174.886031 
L 1050.821691 174.925511 
L 1051.43555 174.274843 
L 1051.64017 174.197924 
L 1051.84479 174.305611 
L 1052.254029 175.337092 
L 1052.867888 177.015587 
L 1053.277128 177.485601 
L 1053.686367 177.649256 
L 1053.890987 178.086208 
L 1054.504846 180.65637 
L 1054.709466 180.785135 
L 1054.914086 180.314356 
L 1055.732565 177.30346 
L 1055.937184 177.084942 
L 1056.141804 177.106148 
L 1056.346424 177.36678 
L 1056.755663 178.553715 
L 1057.164903 179.743327 
L 1057.369522 179.790499 
L 1057.574142 179.403948 
L 1058.597241 176.067867 
L 1059.00648 176.225657 
L 1059.41572 176.431299 
L 1059.824959 177.216512 
L 1060.643438 179.477212 
L 1060.848058 179.286614 
L 1061.666537 176.770423 
L 1061.871156 176.961276 
L 1062.689635 179.699598 
L 1062.894255 179.760793 
L 1063.712734 179.113568 
L 1064.326593 177.93594 
L 1065.145072 177.117239 
L 1065.554311 176.279713 
L 1065.758931 176.239596 
L 1065.963551 176.68475 
L 1066.78203 180.073485 
L 1067.395889 180.781268 
L 1067.805128 181.942663 
L 1068.214368 184.34135 
L 1068.623607 187.33495 
L 1068.828227 188.076986 
L 1069.032847 187.759578 
L 1069.442086 184.137536 
L 1069.851326 180.173607 
L 1070.055945 179.377218 
L 1070.260565 179.390731 
L 1071.079044 181.410815 
L 1071.283664 181.016785 
L 1071.692903 178.860712 
L 1072.102143 176.514933 
L 1072.306762 175.875441 
L 1072.511382 175.72836 
L 1072.716002 176.067017 
L 1074.35296 180.869237 
L 1074.557579 181.036589 
L 1074.762199 180.872721 
L 1075.376058 179.874557 
L 1076.399157 179.489069 
L 1076.603777 179.239698 
L 1077.626875 177.135258 
L 1077.831495 177.195008 
L 1078.445354 177.890086 
L 1078.854594 179.038986 
L 1079.468453 180.927755 
L 1079.673073 181.119628 
L 1079.877692 180.979091 
L 1080.286932 179.990828 
L 1081.31003 176.101737 
L 1081.51465 176.073434 
L 1082.333129 176.930339 
L 1082.742368 176.573323 
L 1082.946988 176.594869 
L 1083.356228 177.091954 
L 1083.765467 177.863398 
L 1084.174707 179.015528 
L 1084.993185 181.978785 
L 1085.197805 182.264576 
L 1085.402425 182.145245 
L 1086.220904 180.151679 
L 1086.425524 180.485066 
L 1087.039383 182.196411 
L 1087.244002 182.225266 
L 1087.448622 181.793414 
L 1088.267101 178.206644 
L 1088.471721 177.901815 
L 1088.676341 177.878399 
L 1089.08558 178.201459 
L 1089.494819 178.971841 
L 1089.904059 180.181681 
L 1090.517918 182.394446 
L 1090.722538 182.469622 
L 1090.927158 181.800043 
L 1091.950256 175.470065 
L 1092.154876 175.130813 
L 1092.359496 175.176752 
L 1093.382594 176.737956 
L 1093.587214 176.683857 
L 1094.201073 175.548769 
L 1094.405693 175.850666 
L 1095.428792 179.763343 
L 1095.838031 181.670641 
L 1096.042651 182.011847 
L 1096.24727 181.635071 
L 1097.065749 178.018341 
L 1097.679609 176.74467 
L 1098.088848 175.966597 
L 1098.498087 175.116534 
L 1098.702707 175.140587 
L 1099.316566 176.028727 
L 1099.521186 175.59322 
L 1101.158144 168.070824 
L 1101.362764 167.807684 
L 1101.567383 167.900327 
L 1102.385862 169.338376 
L 1102.590482 169.4821 
L 1102.795102 169.83512 
L 1102.999721 170.676429 
L 1103.8182 175.680764 
L 1104.22744 176.972028 
L 1105.045919 178.677253 
L 1105.250538 178.797562 
L 1105.455158 178.637349 
L 1105.659778 178.15909 
L 1106.069017 176.333386 
L 1107.092116 170.374107 
L 1107.501355 169.414785 
L 1107.910595 168.626555 
L 1108.524454 166.208404 
L 1108.933694 163.678061 
L 1109.342933 160.865072 
L 1109.752172 159.424729 
L 1110.775271 156.900464 
L 1111.184511 154.501139 
L 1111.79837 149.010726 
L 1112.002989 148.164828 
L 1112.616849 147.448715 
L 1112.821468 146.557387 
L 1113.230708 142.996796 
L 1113.844567 134.506068 
L 1114.663046 118.886211 
L 1115.481525 99.163843 
L 1116.504623 73.388744 
L 1117.323102 60.038087 
L 1118.346201 44.610867 
L 1118.96006 29.301151 
L 1119.3693 14.895681 
L 1119.693351 -1 
M 1126.15483 -1 
L 1126.940229 37.991273 
L 1128.372568 98.957096 
L 1129.191046 123.768792 
L 1129.804906 135.519021 
L 1130.623385 146.191788 
L 1131.032624 148.709169 
L 1131.441863 149.417675 
L 1131.646483 149.828874 
L 1131.851103 150.851048 
L 1132.260342 154.732406 
L 1132.874202 160.92529 
L 1133.283441 163.544281 
L 1133.8973 165.760998 
L 1134.920399 168.822422 
L 1135.738878 173.548021 
L 1135.943497 173.695442 
L 1136.352737 173.072567 
L 1136.761976 172.550239 
L 1136.966596 172.524528 
L 1137.171216 172.753416 
L 1138.398934 175.26506 
L 1138.808174 175.415244 
L 1139.012793 175.404365 
L 1139.422033 174.956746 
L 1139.831272 174.299534 
L 1140.035892 174.165796 
L 1140.240512 174.386864 
L 1140.445131 175.086999 
L 1141.67285 181.605196 
L 1141.87747 181.646842 
L 1142.082089 181.15745 
L 1142.900568 178.419468 
L 1143.514427 177.234148 
L 1143.719047 177.134068 
L 1143.923667 177.601532 
L 1144.332906 180.07153 
L 1145.151385 185.568487 
L 1145.356005 186.102416 
L 1145.560625 186.097827 
L 1146.174484 184.801463 
L 1146.379104 184.730621 
L 1147.197582 184.915184 
L 1147.402202 184.531906 
L 1147.811442 182.824343 
L 1148.629921 178.537864 
L 1148.83454 178.323 
L 1149.24378 178.382836 
L 1149.653019 177.663535 
L 1149.857639 177.340857 
L 1150.062259 177.313064 
L 1150.880738 178.015791 
L 1151.494597 177.130796 
L 1151.699216 177.319609 
L 1152.108456 178.896367 
L 1152.517695 180.307004 
L 1152.722315 180.142414 
L 1153.131554 179.153217 
L 1153.336174 179.075278 
L 1153.745414 179.681494 
L 1153.950033 180.049304 
L 1154.154653 180.65671 
L 1154.563893 183.143196 
L 1154.973132 185.413289 
L 1155.177752 185.758575 
L 1155.382371 185.578389 
L 1156.40547 182.949963 
L 1156.61009 183.072992 
L 1157.019329 183.881493 
L 1157.428569 184.608442 
L 1157.633188 184.324606 
L 1158.656287 181.042283 
L 1158.860907 180.944753 
L 1159.065527 181.078193 
L 1159.679386 182.527843 
L 1159.884005 182.376087 
L 1160.293245 180.615063 
L 1160.907104 177.810107 
L 1161.111724 177.489384 
L 1161.316344 177.520364 
L 1161.520963 177.874489 
L 1161.930203 179.498248 
L 1163.567161 187.899137 
L 1164.18102 188.567611 
L 1164.999499 190.695467 
L 1165.204118 190.122568 
L 1165.817978 187.244899 
L 1166.841076 184.772182 
L 1167.250316 184.183475 
L 1167.659555 183.908436 
L 1167.864175 183.999421 
L 1168.273414 184.383932 
L 1168.478034 184.302168 
L 1169.091893 183.312546 
L 1169.296513 183.463664 
L 1169.705752 184.375645 
L 1169.910372 184.529738 
L 1170.114992 184.274418 
L 1170.524231 183.472419 
L 1170.728851 183.337279 
L 1171.34271 183.269709 
L 1172.161189 182.424066 
L 1172.365809 182.499073 
L 1172.570429 182.930457 
L 1172.979668 184.731938 
L 1173.593527 187.598005 
L 1173.798147 187.929947 
L 1174.002767 187.809682 
L 1174.616626 186.744203 
L 1174.821246 186.925366 
L 1175.230485 188.286113 
L 1175.844344 190.258388 
L 1176.253584 190.877948 
L 1176.662823 190.933152 
L 1176.867443 191.133396 
L 1177.685922 192.842744 
L 1177.890541 192.390791 
L 1178.299781 190.154951 
L 1179.11826 184.399231 
L 1179.32288 183.558007 
L 1179.527499 183.216418 
L 1179.732119 183.557455 
L 1180.550598 187.105468 
L 1180.755218 187.03794 
L 1181.164457 186.128382 
L 1182.187556 182.880354 
L 1183.210654 180.976881 
L 1183.415274 181.492792 
L 1184.438373 186.726311 
L 1184.642992 187.050817 
L 1184.847612 187.144182 
L 1184.847612 187.144182 
" clip-path="url(#p3677935cb7)" style="fill: none; stroke: #000000; stroke-width: 2; stroke-linecap: square"/>
   </g>
   <g id="patch_3">
    <path d="M 3.00024 198.907885 
L 1184.99976 198.907885 
" style="fill: none; stroke: #000000; stroke-width: 2; stroke-linejoin: miter; stroke-linecap: square"/>
   </g>
  </g>
 </g>
 <defs>
  <clipPath id="p3677935cb7">
   <rect x="3.00024" y="3.00024" width="1181.99952" height="195.907645"/>
  </clipPath>
 </defs>
</svg>
