<?xml version="1.0" encoding="utf-8" standalone="no"?>
<!DOCTYPE svg PUBLIC "-//W3C//DTD SVG 1.1//EN"
  "http://www.w3.org/Graphics/SVG/1.1/DTD/svg11.dtd">
<svg xmlns:xlink="http://www.w3.org/1999/xlink" width="1188pt" height="252pt" viewBox="0 0 1188 252" xmlns="http://www.w3.org/2000/svg" version="1.1">
 <metadata>
  <rdf:RDF xmlns:dc="http://purl.org/dc/elements/1.1/" xmlns:cc="http://creativecommons.org/ns#" xmlns:rdf="http://www.w3.org/1999/02/22-rdf-syntax-ns#">
   <cc:Work>
    <dc:type rdf:resource="http://purl.org/dc/dcmitype/StillImage"/>
    <dc:date>2024-07-23T21:48:05.550347</dc:date>
    <dc:format>image/svg+xml</dc:format>
    <dc:creator>
     <cc:Agent>
      <dc:title>Matplotlib v3.8.4, https://matplotlib.org/</dc:title>
     </cc:Agent>
    </dc:creator>
   </cc:Work>
  </rdf:RDF>
 </metadata>
 <defs>
  <style type="text/css">*{stroke-linejoin: round; stroke-linecap: butt}</style>
 </defs>
 <g id="figure_1">
  <g id="patch_1">
   <path d="M 0 252 
L 1188 252 
L 1188 0 
L 0 0 
z
" style="fill: #ffffff"/>
  </g>
  <g id="axes_1">
   <g id="patch_2">
    <path d="M 3.00024 198.907885 
L 1184.99976 198.907885 
L 1184.99976 3.00024 
L 3.00024 3.00024 
z
" style="fill: #ffffff"/>
   </g>
   <g id="matplotlib.axis_1">
    <g id="xtick_1">
     <g id="line2d_1">
      <defs>
       <path id="m077fffa176" d="M 0 0 
L 0 8 
" style="stroke: #000000; stroke-width: 2"/>
      </defs>
      <g>
       <use xlink:href="#m077fffa176" x="1131.272509" y="198.907885" style="stroke: #000000; stroke-width: 2"/>
      </g>
     </g>
     <g id="text_1">
      <!-- 0 -->
      <g transform="translate(1126.267665 224.791947) scale(0.18 -0.18)">
       <defs>
        <path id="Arial-BoldMT-30" d="M 1756 4600 
Q 2422 4600 2797 4125 
Q 3244 3563 3244 2259 
Q 3244 959 2794 391 
Q 2422 -78 1756 -78 
Q 1088 -78 678 436 
Q 269 950 269 2269 
Q 269 3563 719 4131 
Q 1091 4600 1756 4600 
z
M 1756 3872 
Q 1597 3872 1472 3770 
Q 1347 3669 1278 3406 
Q 1188 3066 1188 2259 
Q 1188 1453 1269 1151 
Q 1350 850 1473 750 
Q 1597 650 1756 650 
Q 1916 650 2041 751 
Q 2166 853 2234 1116 
Q 2325 1453 2325 2259 
Q 2325 3066 2244 3367 
Q 2163 3669 2039 3770 
Q 1916 3872 1756 3872 
z
" transform="scale(0.015625)"/>
       </defs>
       <use xlink:href="#Arial-BoldMT-30"/>
      </g>
     </g>
    </g>
    <g id="xtick_2">
     <g id="line2d_2">
      <g>
       <use xlink:href="#m077fffa176" x="1023.818007" y="198.907885" style="stroke: #000000; stroke-width: 2"/>
      </g>
     </g>
     <g id="text_2">
      <!-- 1 -->
      <g transform="translate(1018.813164 224.791947) scale(0.18 -0.18)">
       <defs>
        <path id="Arial-BoldMT-31" d="M 2519 0 
L 1641 0 
L 1641 3309 
Q 1159 2859 506 2644 
L 506 3441 
Q 850 3553 1253 3867 
Q 1656 4181 1806 4600 
L 2519 4600 
L 2519 0 
z
" transform="scale(0.015625)"/>
       </defs>
       <use xlink:href="#Arial-BoldMT-31"/>
      </g>
     </g>
    </g>
    <g id="xtick_3">
     <g id="line2d_3">
      <g>
       <use xlink:href="#m077fffa176" x="916.363505" y="198.907885" style="stroke: #000000; stroke-width: 2"/>
      </g>
     </g>
     <g id="text_3">
      <!-- 2 -->
      <g transform="translate(911.358662 224.791947) scale(0.18 -0.18)">
       <defs>
        <path id="Arial-BoldMT-32" d="M 3238 816 
L 3238 0 
L 159 0 
Q 209 463 459 877 
Q 709 1291 1447 1975 
Q 2041 2528 2175 2725 
Q 2356 2997 2356 3263 
Q 2356 3556 2198 3714 
Q 2041 3872 1763 3872 
Q 1488 3872 1325 3706 
Q 1163 3541 1138 3156 
L 263 3244 
Q 341 3969 753 4284 
Q 1166 4600 1784 4600 
Q 2463 4600 2850 4234 
Q 3238 3869 3238 3325 
Q 3238 3016 3127 2736 
Q 3016 2456 2775 2150 
Q 2616 1947 2200 1565 
Q 1784 1184 1673 1059 
Q 1563 934 1494 816 
L 3238 816 
z
" transform="scale(0.015625)"/>
       </defs>
       <use xlink:href="#Arial-BoldMT-32"/>
      </g>
     </g>
    </g>
    <g id="xtick_4">
     <g id="line2d_4">
      <g>
       <use xlink:href="#m077fffa176" x="808.909004" y="198.907885" style="stroke: #000000; stroke-width: 2"/>
      </g>
     </g>
     <g id="text_4">
      <!-- 3 -->
      <g transform="translate(803.90416 224.791947) scale(0.18 -0.18)">
       <defs>
        <path id="Arial-BoldMT-33" d="M 241 1216 
L 1091 1319 
Q 1131 994 1309 822 
Q 1488 650 1741 650 
Q 2013 650 2198 856 
Q 2384 1063 2384 1413 
Q 2384 1744 2206 1937 
Q 2028 2131 1772 2131 
Q 1603 2131 1369 2066 
L 1466 2781 
Q 1822 2772 2009 2936 
Q 2197 3100 2197 3372 
Q 2197 3603 2059 3740 
Q 1922 3878 1694 3878 
Q 1469 3878 1309 3722 
Q 1150 3566 1116 3266 
L 306 3403 
Q 391 3819 561 4067 
Q 731 4316 1036 4458 
Q 1341 4600 1719 4600 
Q 2366 4600 2756 4188 
Q 3078 3850 3078 3425 
Q 3078 2822 2419 2463 
Q 2813 2378 3048 2084 
Q 3284 1791 3284 1375 
Q 3284 772 2843 347 
Q 2403 -78 1747 -78 
Q 1125 -78 715 280 
Q 306 638 241 1216 
z
" transform="scale(0.015625)"/>
       </defs>
       <use xlink:href="#Arial-BoldMT-33"/>
      </g>
     </g>
    </g>
    <g id="xtick_5">
     <g id="line2d_5">
      <g>
       <use xlink:href="#m077fffa176" x="701.454502" y="198.907885" style="stroke: #000000; stroke-width: 2"/>
      </g>
     </g>
     <g id="text_5">
      <!-- 4 -->
      <g transform="translate(696.449658 224.791947) scale(0.18 -0.18)">
       <defs>
        <path id="Arial-BoldMT-34" d="M 1994 0 
L 1994 922 
L 119 922 
L 119 1691 
L 2106 4600 
L 2844 4600 
L 2844 1694 
L 3413 1694 
L 3413 922 
L 2844 922 
L 2844 0 
L 1994 0 
z
M 1994 1694 
L 1994 3259 
L 941 1694 
L 1994 1694 
z
" transform="scale(0.015625)"/>
       </defs>
       <use xlink:href="#Arial-BoldMT-34"/>
      </g>
     </g>
    </g>
    <g id="xtick_6">
     <g id="line2d_6">
      <g>
       <use xlink:href="#m077fffa176" x="594" y="198.907885" style="stroke: #000000; stroke-width: 2"/>
      </g>
     </g>
     <g id="text_6">
      <!-- 5 -->
      <g transform="translate(588.995156 224.791947) scale(0.18 -0.18)">
       <defs>
        <path id="Arial-BoldMT-35" d="M 284 1178 
L 1159 1269 
Q 1197 972 1381 798 
Q 1566 625 1806 625 
Q 2081 625 2272 848 
Q 2463 1072 2463 1522 
Q 2463 1944 2273 2155 
Q 2084 2366 1781 2366 
Q 1403 2366 1103 2031 
L 391 2134 
L 841 4519 
L 3163 4519 
L 3163 3697 
L 1506 3697 
L 1369 2919 
Q 1663 3066 1969 3066 
Q 2553 3066 2959 2641 
Q 3366 2216 3366 1538 
Q 3366 972 3038 528 
Q 2591 -78 1797 -78 
Q 1163 -78 763 262 
Q 363 603 284 1178 
z
" transform="scale(0.015625)"/>
       </defs>
       <use xlink:href="#Arial-BoldMT-35"/>
      </g>
     </g>
    </g>
    <g id="xtick_7">
     <g id="line2d_7">
      <g>
       <use xlink:href="#m077fffa176" x="486.545498" y="198.907885" style="stroke: #000000; stroke-width: 2"/>
      </g>
     </g>
     <g id="text_7">
      <!-- 6 -->
      <g transform="translate(481.540654 224.791947) scale(0.18 -0.18)">
       <defs>
        <path id="Arial-BoldMT-36" d="M 3247 3459 
L 2397 3366 
Q 2366 3628 2234 3753 
Q 2103 3878 1894 3878 
Q 1616 3878 1423 3628 
Q 1231 3378 1181 2588 
Q 1509 2975 1997 2975 
Q 2547 2975 2939 2556 
Q 3331 2138 3331 1475 
Q 3331 772 2918 347 
Q 2506 -78 1859 -78 
Q 1166 -78 719 461 
Q 272 1000 272 2228 
Q 272 3488 737 4044 
Q 1203 4600 1947 4600 
Q 2469 4600 2811 4308 
Q 3153 4016 3247 3459 
z
M 1256 1544 
Q 1256 1116 1453 883 
Q 1650 650 1903 650 
Q 2147 650 2309 840 
Q 2472 1031 2472 1466 
Q 2472 1913 2297 2120 
Q 2122 2328 1859 2328 
Q 1606 2328 1431 2129 
Q 1256 1931 1256 1544 
z
" transform="scale(0.015625)"/>
       </defs>
       <use xlink:href="#Arial-BoldMT-36"/>
      </g>
     </g>
    </g>
    <g id="xtick_8">
     <g id="line2d_8">
      <g>
       <use xlink:href="#m077fffa176" x="379.090996" y="198.907885" style="stroke: #000000; stroke-width: 2"/>
      </g>
     </g>
     <g id="text_8">
      <!-- 7 -->
      <g transform="translate(374.086153 224.791947) scale(0.18 -0.18)">
       <defs>
        <path id="Arial-BoldMT-37" d="M 272 3703 
L 272 4519 
L 3275 4519 
L 3275 3881 
Q 2903 3516 2518 2831 
Q 2134 2147 1932 1376 
Q 1731 606 1734 0 
L 888 0 
Q 909 950 1279 1937 
Q 1650 2925 2269 3703 
L 272 3703 
z
" transform="scale(0.015625)"/>
       </defs>
       <use xlink:href="#Arial-BoldMT-37"/>
      </g>
     </g>
    </g>
    <g id="xtick_9">
     <g id="line2d_9">
      <g>
       <use xlink:href="#m077fffa176" x="271.636495" y="198.907885" style="stroke: #000000; stroke-width: 2"/>
      </g>
     </g>
     <g id="text_9">
      <!-- 8 -->
      <g transform="translate(266.631651 224.791947) scale(0.18 -0.18)">
       <defs>
        <path id="Arial-BoldMT-38" d="M 1025 2472 
Q 684 2616 529 2867 
Q 375 3119 375 3419 
Q 375 3931 733 4265 
Q 1091 4600 1750 4600 
Q 2403 4600 2764 4265 
Q 3125 3931 3125 3419 
Q 3125 3100 2959 2851 
Q 2794 2603 2494 2472 
Q 2875 2319 3073 2025 
Q 3272 1731 3272 1347 
Q 3272 713 2867 316 
Q 2463 -81 1791 -81 
Q 1166 -81 750 247 
Q 259 634 259 1309 
Q 259 1681 443 1992 
Q 628 2303 1025 2472 
z
M 1206 3356 
Q 1206 3094 1354 2947 
Q 1503 2800 1750 2800 
Q 2000 2800 2150 2948 
Q 2300 3097 2300 3359 
Q 2300 3606 2151 3754 
Q 2003 3903 1759 3903 
Q 1506 3903 1356 3753 
Q 1206 3603 1206 3356 
z
M 1125 1394 
Q 1125 1031 1311 828 
Q 1497 625 1775 625 
Q 2047 625 2225 820 
Q 2403 1016 2403 1384 
Q 2403 1706 2222 1901 
Q 2041 2097 1763 2097 
Q 1441 2097 1283 1875 
Q 1125 1653 1125 1394 
z
" transform="scale(0.015625)"/>
       </defs>
       <use xlink:href="#Arial-BoldMT-38"/>
      </g>
     </g>
    </g>
    <g id="xtick_10">
     <g id="line2d_10">
      <g>
       <use xlink:href="#m077fffa176" x="164.181993" y="198.907885" style="stroke: #000000; stroke-width: 2"/>
      </g>
     </g>
     <g id="text_10">
      <!-- 9 -->
      <g transform="translate(159.177149 224.791947) scale(0.18 -0.18)">
       <defs>
        <path id="Arial-BoldMT-39" d="M 291 1059 
L 1141 1153 
Q 1172 894 1303 769 
Q 1434 644 1650 644 
Q 1922 644 2112 894 
Q 2303 1144 2356 1931 
Q 2025 1547 1528 1547 
Q 988 1547 595 1964 
Q 203 2381 203 3050 
Q 203 3747 617 4173 
Q 1031 4600 1672 4600 
Q 2369 4600 2816 4061 
Q 3263 3522 3263 2288 
Q 3263 1031 2797 475 
Q 2331 -81 1584 -81 
Q 1047 -81 715 205 
Q 384 491 291 1059 
z
M 2278 2978 
Q 2278 3403 2083 3637 
Q 1888 3872 1631 3872 
Q 1388 3872 1227 3680 
Q 1066 3488 1066 3050 
Q 1066 2606 1241 2398 
Q 1416 2191 1678 2191 
Q 1931 2191 2104 2391 
Q 2278 2591 2278 2978 
z
" transform="scale(0.015625)"/>
       </defs>
       <use xlink:href="#Arial-BoldMT-39"/>
      </g>
     </g>
    </g>
    <g id="xtick_11">
     <g id="line2d_11">
      <g>
       <use xlink:href="#m077fffa176" x="56.727491" y="198.907885" style="stroke: #000000; stroke-width: 2"/>
      </g>
     </g>
     <g id="text_11">
      <!-- 10 -->
      <g transform="translate(46.717803 224.791947) scale(0.18 -0.18)">
       <use xlink:href="#Arial-BoldMT-31"/>
       <use xlink:href="#Arial-BoldMT-30" x="55.615234"/>
      </g>
     </g>
    </g>
    <g id="text_12">
     <!-- Chemical Shift / ppm -->
     <g transform="translate(504.992813 245.447573) scale(0.18 -0.18)">
      <defs>
       <path id="Arial-BoldMT-43" d="M 3397 1684 
L 4294 1400 
Q 4088 650 3608 286 
Q 3128 -78 2391 -78 
Q 1478 -78 890 545 
Q 303 1169 303 2250 
Q 303 3394 893 4026 
Q 1484 4659 2447 4659 
Q 3288 4659 3813 4163 
Q 4125 3869 4281 3319 
L 3366 3100 
Q 3284 3456 3026 3662 
Q 2769 3869 2400 3869 
Q 1891 3869 1573 3503 
Q 1256 3138 1256 2319 
Q 1256 1450 1568 1081 
Q 1881 713 2381 713 
Q 2750 713 3015 947 
Q 3281 1181 3397 1684 
z
" transform="scale(0.015625)"/>
       <path id="Arial-BoldMT-68" d="M 1334 4581 
L 1334 2897 
Q 1759 3394 2350 3394 
Q 2653 3394 2897 3281 
Q 3141 3169 3264 2994 
Q 3388 2819 3433 2606 
Q 3478 2394 3478 1947 
L 3478 0 
L 2600 0 
L 2600 1753 
Q 2600 2275 2550 2415 
Q 2500 2556 2373 2639 
Q 2247 2722 2056 2722 
Q 1838 2722 1666 2615 
Q 1494 2509 1414 2295 
Q 1334 2081 1334 1663 
L 1334 0 
L 456 0 
L 456 4581 
L 1334 4581 
z
" transform="scale(0.015625)"/>
       <path id="Arial-BoldMT-65" d="M 2381 1056 
L 3256 909 
Q 3088 428 2723 176 
Q 2359 -75 1813 -75 
Q 947 -75 531 491 
Q 203 944 203 1634 
Q 203 2459 634 2926 
Q 1066 3394 1725 3394 
Q 2466 3394 2894 2905 
Q 3322 2416 3303 1406 
L 1103 1406 
Q 1113 1016 1316 798 
Q 1519 581 1822 581 
Q 2028 581 2168 693 
Q 2309 806 2381 1056 
z
M 2431 1944 
Q 2422 2325 2234 2523 
Q 2047 2722 1778 2722 
Q 1491 2722 1303 2513 
Q 1116 2303 1119 1944 
L 2431 1944 
z
" transform="scale(0.015625)"/>
       <path id="Arial-BoldMT-6d" d="M 394 3319 
L 1203 3319 
L 1203 2866 
Q 1638 3394 2238 3394 
Q 2556 3394 2790 3262 
Q 3025 3131 3175 2866 
Q 3394 3131 3647 3262 
Q 3900 3394 4188 3394 
Q 4553 3394 4806 3245 
Q 5059 3097 5184 2809 
Q 5275 2597 5275 2122 
L 5275 0 
L 4397 0 
L 4397 1897 
Q 4397 2391 4306 2534 
Q 4184 2722 3931 2722 
Q 3747 2722 3584 2609 
Q 3422 2497 3350 2280 
Q 3278 2063 3278 1594 
L 3278 0 
L 2400 0 
L 2400 1819 
Q 2400 2303 2353 2443 
Q 2306 2584 2207 2653 
Q 2109 2722 1941 2722 
Q 1738 2722 1575 2612 
Q 1413 2503 1342 2297 
Q 1272 2091 1272 1613 
L 1272 0 
L 394 0 
L 394 3319 
z
" transform="scale(0.015625)"/>
       <path id="Arial-BoldMT-69" d="M 459 3769 
L 459 4581 
L 1338 4581 
L 1338 3769 
L 459 3769 
z
M 459 0 
L 459 3319 
L 1338 3319 
L 1338 0 
L 459 0 
z
" transform="scale(0.015625)"/>
       <path id="Arial-BoldMT-63" d="M 3353 2338 
L 2488 2181 
Q 2444 2441 2289 2572 
Q 2134 2703 1888 2703 
Q 1559 2703 1364 2476 
Q 1169 2250 1169 1719 
Q 1169 1128 1367 884 
Q 1566 641 1900 641 
Q 2150 641 2309 783 
Q 2469 925 2534 1272 
L 3397 1125 
Q 3263 531 2881 228 
Q 2500 -75 1859 -75 
Q 1131 -75 698 384 
Q 266 844 266 1656 
Q 266 2478 700 2936 
Q 1134 3394 1875 3394 
Q 2481 3394 2839 3133 
Q 3197 2872 3353 2338 
z
" transform="scale(0.015625)"/>
       <path id="Arial-BoldMT-61" d="M 1116 2306 
L 319 2450 
Q 453 2931 781 3162 
Q 1109 3394 1756 3394 
Q 2344 3394 2631 3255 
Q 2919 3116 3036 2902 
Q 3153 2688 3153 2116 
L 3144 1091 
Q 3144 653 3186 445 
Q 3228 238 3344 0 
L 2475 0 
Q 2441 88 2391 259 
Q 2369 338 2359 363 
Q 2134 144 1878 34 
Q 1622 -75 1331 -75 
Q 819 -75 523 203 
Q 228 481 228 906 
Q 228 1188 362 1408 
Q 497 1628 739 1745 
Q 981 1863 1438 1950 
Q 2053 2066 2291 2166 
L 2291 2253 
Q 2291 2506 2166 2614 
Q 2041 2722 1694 2722 
Q 1459 2722 1328 2630 
Q 1197 2538 1116 2306 
z
M 2291 1594 
Q 2122 1538 1756 1459 
Q 1391 1381 1278 1306 
Q 1106 1184 1106 997 
Q 1106 813 1243 678 
Q 1381 544 1594 544 
Q 1831 544 2047 700 
Q 2206 819 2256 991 
Q 2291 1103 2291 1419 
L 2291 1594 
z
" transform="scale(0.015625)"/>
       <path id="Arial-BoldMT-6c" d="M 459 0 
L 459 4581 
L 1338 4581 
L 1338 0 
L 459 0 
z
" transform="scale(0.015625)"/>
       <path id="Arial-BoldMT-20" transform="scale(0.015625)"/>
       <path id="Arial-BoldMT-53" d="M 231 1491 
L 1131 1578 
Q 1213 1125 1461 912 
Q 1709 700 2131 700 
Q 2578 700 2804 889 
Q 3031 1078 3031 1331 
Q 3031 1494 2936 1608 
Q 2841 1722 2603 1806 
Q 2441 1863 1863 2006 
Q 1119 2191 819 2459 
Q 397 2838 397 3381 
Q 397 3731 595 4036 
Q 794 4341 1167 4500 
Q 1541 4659 2069 4659 
Q 2931 4659 3367 4281 
Q 3803 3903 3825 3272 
L 2900 3231 
Q 2841 3584 2645 3739 
Q 2450 3894 2059 3894 
Q 1656 3894 1428 3728 
Q 1281 3622 1281 3444 
Q 1281 3281 1419 3166 
Q 1594 3019 2269 2859 
Q 2944 2700 3267 2529 
Q 3591 2359 3773 2064 
Q 3956 1769 3956 1334 
Q 3956 941 3737 597 
Q 3519 253 3119 86 
Q 2719 -81 2122 -81 
Q 1253 -81 787 320 
Q 322 722 231 1491 
z
" transform="scale(0.015625)"/>
       <path id="Arial-BoldMT-66" d="M 75 3319 
L 563 3319 
L 563 3569 
Q 563 3988 652 4194 
Q 741 4400 980 4529 
Q 1219 4659 1584 4659 
Q 1959 4659 2319 4547 
L 2200 3934 
Q 1991 3984 1797 3984 
Q 1606 3984 1523 3895 
Q 1441 3806 1441 3553 
L 1441 3319 
L 2097 3319 
L 2097 2628 
L 1441 2628 
L 1441 0 
L 563 0 
L 563 2628 
L 75 2628 
L 75 3319 
z
" transform="scale(0.015625)"/>
       <path id="Arial-BoldMT-74" d="M 1981 3319 
L 1981 2619 
L 1381 2619 
L 1381 1281 
Q 1381 875 1398 808 
Q 1416 741 1477 697 
Q 1538 653 1625 653 
Q 1747 653 1978 738 
L 2053 56 
Q 1747 -75 1359 -75 
Q 1122 -75 931 4 
Q 741 84 652 211 
Q 563 338 528 553 
Q 500 706 500 1172 
L 500 2619 
L 97 2619 
L 97 3319 
L 500 3319 
L 500 3978 
L 1381 4491 
L 1381 3319 
L 1981 3319 
z
" transform="scale(0.015625)"/>
       <path id="Arial-BoldMT-2f" d="M -9 -78 
L 1125 4659 
L 1784 4659 
L 638 -78 
L -9 -78 
z
" transform="scale(0.015625)"/>
       <path id="Arial-BoldMT-70" d="M 434 3319 
L 1253 3319 
L 1253 2831 
Q 1413 3081 1684 3237 
Q 1956 3394 2288 3394 
Q 2866 3394 3269 2941 
Q 3672 2488 3672 1678 
Q 3672 847 3265 386 
Q 2859 -75 2281 -75 
Q 2006 -75 1782 34 
Q 1559 144 1313 409 
L 1313 -1263 
L 434 -1263 
L 434 3319 
z
M 1303 1716 
Q 1303 1156 1525 889 
Q 1747 622 2066 622 
Q 2372 622 2575 867 
Q 2778 1113 2778 1672 
Q 2778 2194 2568 2447 
Q 2359 2700 2050 2700 
Q 1728 2700 1515 2451 
Q 1303 2203 1303 1716 
z
" transform="scale(0.015625)"/>
      </defs>
      <use xlink:href="#Arial-BoldMT-43"/>
      <use xlink:href="#Arial-BoldMT-68" x="72.216797"/>
      <use xlink:href="#Arial-BoldMT-65" x="133.300781"/>
      <use xlink:href="#Arial-BoldMT-6d" x="188.916016"/>
      <use xlink:href="#Arial-BoldMT-69" x="277.832031"/>
      <use xlink:href="#Arial-BoldMT-63" x="305.615234"/>
      <use xlink:href="#Arial-BoldMT-61" x="361.230469"/>
      <use xlink:href="#Arial-BoldMT-6c" x="416.845703"/>
      <use xlink:href="#Arial-BoldMT-20" x="444.628906"/>
      <use xlink:href="#Arial-BoldMT-53" x="472.412109"/>
      <use xlink:href="#Arial-BoldMT-68" x="539.111328"/>
      <use xlink:href="#Arial-BoldMT-69" x="600.195312"/>
      <use xlink:href="#Arial-BoldMT-66" x="627.978516"/>
      <use xlink:href="#Arial-BoldMT-74" x="661.279297"/>
      <use xlink:href="#Arial-BoldMT-20" x="694.580078"/>
      <use xlink:href="#Arial-BoldMT-2f" x="722.363281"/>
      <use xlink:href="#Arial-BoldMT-20" x="750.146484"/>
      <use xlink:href="#Arial-BoldMT-70" x="777.929688"/>
      <use xlink:href="#Arial-BoldMT-70" x="839.013672"/>
      <use xlink:href="#Arial-BoldMT-6d" x="900.097656"/>
     </g>
    </g>
   </g>
   <g id="matplotlib.axis_2"/>
   <g id="line2d_12">
    <path d="M 3.064137 191.461249 
L 3.882616 190.087237 
L 4.701094 189.950224 
L 5.110334 189.955105 
L 5.928813 190.575955 
L 6.133433 190.516797 
L 6.542672 190.021227 
L 6.951911 189.485846 
L 7.156531 189.503781 
L 7.565771 190.27517 
L 8.17963 191.853482 
L 8.38425 192.096162 
L 8.588869 191.999341 
L 8.998109 190.928443 
L 9.407348 189.538757 
L 9.611968 189.145651 
L 9.816588 189.112735 
L 10.430447 189.804074 
L 10.635067 189.753581 
L 11.044306 189.2506 
L 12.272024 187.23198 
L 12.476644 187.130838 
L 12.885884 186.499486 
L 13.295123 185.785084 
L 13.499743 185.839428 
L 13.704362 186.278974 
L 14.522841 188.796813 
L 14.727461 188.809196 
L 15.136701 188.575406 
L 15.54594 188.752164 
L 15.955179 189.014548 
L 16.364419 188.98526 
L 16.773658 188.579033 
L 17.182898 188.158945 
L 18.001377 187.874953 
L 18.410616 188.025335 
L 18.819856 188.745604 
L 19.229095 189.416253 
L 19.433715 189.428389 
L 20.047574 189.04883 
L 20.252194 189.05445 
L 20.661433 189.454587 
L 21.070673 190.065204 
L 21.275292 190.18623 
L 21.479912 190.024989 
L 22.093771 188.550215 
L 23.11687 186.196506 
L 23.32149 186.088713 
L 23.730729 186.501322 
L 24.139969 186.918163 
L 24.549208 187.225173 
L 25.163067 187.959705 
L 25.367687 187.950928 
L 25.776926 187.361851 
L 26.186166 186.693061 
L 26.595405 186.594807 
L 27.209264 186.741494 
L 27.413884 187.037375 
L 28.232363 188.880154 
L 28.436983 188.968332 
L 28.641603 188.828699 
L 29.050842 187.938836 
L 29.460081 187.023963 
L 29.869321 186.795077 
L 30.6878 186.515339 
L 31.097039 187.027434 
L 31.710898 188.197526 
L 31.915518 188.375986 
L 32.324758 188.278292 
L 32.733997 188.184987 
L 33.143236 188.493229 
L 34.370955 190.207301 
L 35.189434 190.263168 
L 35.803293 189.842408 
L 36.007913 189.863053 
L 36.417152 190.288224 
L 36.826392 190.711066 
L 37.84949 191.232721 
L 38.25873 191.922672 
L 38.667969 192.752323 
L 38.872589 192.972925 
L 39.077209 193.006087 
L 39.486448 192.655435 
L 39.895687 191.906729 
L 40.509547 190.552063 
L 40.714166 190.577747 
L 40.918786 191.028623 
L 41.532645 193.095003 
L 41.737265 193.371808 
L 41.941885 193.401454 
L 42.964983 192.788799 
L 43.169603 193.030157 
L 43.988082 194.932184 
L 44.192702 194.870384 
L 44.601941 193.991583 
L 45.62504 191.193559 
L 46.238899 189.744736 
L 46.443519 189.475881 
L 46.648138 189.483875 
L 47.057378 190.350293 
L 47.671237 191.647099 
L 48.694336 193.057699 
L 49.103575 193.023731 
L 49.512815 193.021447 
L 49.922054 193.491759 
L 50.740533 194.881087 
L 51.149772 195.220028 
L 51.354392 195.130014 
L 52.172871 193.99745 
L 52.78673 193.151923 
L 52.99135 193.102505 
L 53.400589 193.237257 
L 53.605209 193.08065 
L 54.014449 192.354538 
L 54.219068 192.244349 
L 54.628308 192.666832 
L 54.832928 192.868244 
L 55.037547 192.868759 
L 55.446787 192.221241 
L 55.856026 191.586687 
L 56.060646 191.553861 
L 56.265266 191.746383 
L 56.674505 192.551068 
L 57.492984 194.887491 
L 57.902223 195.829996 
L 58.311463 196.239761 
L 58.925322 196.627201 
L 59.129942 196.600802 
L 59.334562 196.401271 
L 59.743801 195.517746 
L 60.35766 194.188158 
L 60.971519 193.304745 
L 61.380759 192.125942 
L 61.994618 190.264063 
L 62.403857 189.82145 
L 62.813097 189.714687 
L 63.426956 189.667799 
L 63.836196 189.335486 
L 64.654674 188.189129 
L 65.063914 186.983815 
L 65.677773 183.746222 
L 67.519351 172.350608 
L 67.72397 172.19221 
L 67.92859 172.447116 
L 68.13321 173.129184 
L 68.542449 175.966887 
L 69.156308 181.42572 
L 69.565548 183.191091 
L 70.588646 185.857431 
L 70.793266 185.874359 
L 71.202506 185.668805 
L 71.407125 185.73786 
L 71.611745 186.024897 
L 72.020985 187.109431 
L 73.453323 191.649361 
L 73.862562 192.027935 
L 74.271802 191.981562 
L 74.681041 191.647435 
L 75.908759 189.877406 
L 76.727238 189.481546 
L 77.136478 189.058794 
L 77.341097 189.039582 
L 77.750337 189.411662 
L 77.954957 189.607163 
L 78.159576 189.628189 
L 78.568816 189.120953 
L 78.978055 188.654761 
L 79.182675 188.72151 
L 80.001154 189.5871 
L 80.410393 189.3976 
L 81.024253 188.805008 
L 81.433492 188.759083 
L 81.842731 188.740991 
L 82.251971 188.199564 
L 82.66121 187.519085 
L 82.86583 187.46586 
L 83.27507 188.028559 
L 83.684309 188.683646 
L 83.888929 188.767279 
L 84.093548 188.590274 
L 84.912027 187.128554 
L 85.116647 187.087913 
L 85.321267 187.212612 
L 86.344365 188.680041 
L 86.548985 188.619427 
L 87.162844 188.042688 
L 87.367464 188.276993 
L 88.185943 190.081908 
L 88.595182 190.95576 
L 88.799802 191.128959 
L 89.004422 191.093133 
L 89.618281 190.652019 
L 89.822901 190.692951 
L 90.23214 191.17634 
L 90.64138 191.664721 
L 91.050619 191.664072 
L 91.459859 191.607421 
L 91.664478 191.815237 
L 92.073718 192.972499 
L 92.482957 194.273896 
L 92.687577 194.554014 
L 92.892197 194.487623 
L 93.301436 193.610054 
L 93.915295 192.233802 
L 94.529155 191.476431 
L 95.552253 190.34586 
L 95.961493 190.138245 
L 96.166112 190.271251 
L 96.984591 191.687382 
L 97.189211 191.504331 
L 98.416929 189.073819 
L 98.826169 188.552477 
L 100.053887 187.668145 
L 100.667746 186.910393 
L 101.076986 186.829716 
L 102.304704 187.418435 
L 102.713944 187.87558 
L 102.918563 187.827282 
L 103.327803 187.299177 
L 103.737042 186.771566 
L 104.146282 186.524363 
L 104.350901 186.534865 
L 104.555521 186.741449 
L 105.374 188.319224 
L 105.78324 188.429637 
L 106.192479 188.554805 
L 106.397099 188.858435 
L 106.806338 190.205375 
L 107.215578 191.460645 
L 107.420197 191.654108 
L 107.624817 191.530977 
L 108.034056 190.547854 
L 108.443296 189.421134 
L 108.647916 189.25725 
L 108.852535 189.473082 
L 110.489493 192.998899 
L 110.694113 193.166208 
L 110.898733 193.185331 
L 111.103352 192.998921 
L 111.512592 192.095311 
L 112.126451 190.238716 
L 112.331071 189.980318 
L 112.53569 189.991917 
L 113.354169 190.761715 
L 113.763409 189.857724 
L 114.172648 189.070169 
L 114.377268 188.913831 
L 114.786507 189.040388 
L 114.991127 189.116564 
L 115.195747 188.98423 
L 115.604986 187.993337 
L 116.423465 185.597017 
L 116.628085 185.458123 
L 116.832705 185.641375 
L 117.651184 187.206588 
L 118.060423 187.433012 
L 118.674282 187.315792 
L 119.288141 187.702942 
L 119.697381 188.306282 
L 120.31124 189.342853 
L 121.129719 190.399599 
L 121.334339 190.285671 
L 121.538958 189.797894 
L 122.152818 187.417763 
L 122.357437 187.065947 
L 122.766677 187.014111 
L 123.175916 187.156006 
L 123.585156 187.361515 
L 124.199015 186.913483 
L 124.403635 187.074299 
L 124.812874 188.114812 
L 125.222114 189.111638 
L 125.426733 189.283874 
L 125.631353 189.221401 
L 126.654452 188.001242 
L 126.859071 187.98297 
L 127.063691 188.227351 
L 127.472931 189.588108 
L 127.88217 191.187804 
L 128.08679 191.650234 
L 128.291409 191.824821 
L 128.700649 191.73259 
L 129.109888 191.424035 
L 130.132987 190.106673 
L 130.746846 189.668784 
L 131.565325 188.815891 
L 131.974565 188.961727 
L 132.997663 189.846036 
L 133.611522 190.43706 
L 134.020762 190.815209 
L 134.430001 190.665768 
L 134.839241 190.504772 
L 135.24848 190.586972 
L 136.680818 191.904938 
L 137.499297 194.244383 
L 137.908537 194.632541 
L 138.317776 194.822152 
L 138.522396 194.731377 
L 138.931635 193.998838 
L 140.159354 190.506631 
L 140.363973 190.397315 
L 140.568593 190.59519 
L 141.796311 192.553554 
L 142.61479 193.425256 
L 142.81941 193.393169 
L 143.433269 192.670594 
L 143.842509 192.067411 
L 144.251748 191.309121 
L 144.456368 191.187535 
L 144.660988 191.336349 
L 145.274847 192.5229 
L 145.684086 193.038711 
L 146.093326 192.781253 
L 146.297945 192.662175 
L 146.502565 192.717146 
L 146.911805 193.262335 
L 147.321044 193.776512 
L 147.525664 193.792209 
L 147.934903 193.418539 
L 148.344143 192.816453 
L 148.753382 191.486731 
L 149.571861 187.830663 
L 149.9811 187.130435 
L 150.18572 187.020224 
L 150.39034 187.048235 
L 150.799579 187.562099 
L 152.436537 191.084937 
L 152.845777 191.214293 
L 153.255016 191.328535 
L 153.868875 191.833374 
L 154.073495 191.805295 
L 154.482734 191.314876 
L 154.891974 190.805446 
L 155.096594 190.752804 
L 155.505833 190.983705 
L 157.142791 192.652972 
L 157.96127 193.763391 
L 158.16589 193.74765 
L 158.370509 193.506963 
L 159.393608 191.4767 
L 160.007467 191.500479 
L 160.212087 191.193648 
L 160.621326 189.847581 
L 161.235185 187.640738 
L 161.439805 187.36839 
L 161.644425 187.477414 
L 162.667524 189.490346 
L 163.281383 189.92463 
L 163.486002 189.911912 
L 163.895242 189.423888 
L 164.509101 188.65962 
L 164.713721 188.700865 
L 165.12296 189.055659 
L 165.32758 189.083693 
L 165.736819 188.913159 
L 165.941439 188.974647 
L 166.759918 189.75385 
L 167.169158 189.878033 
L 167.578397 190.222303 
L 167.987636 190.197135 
L 168.396876 190.246285 
L 169.419975 191.241118 
L 170.033834 190.867829 
L 170.238453 190.887444 
L 170.647693 191.330774 
L 171.261552 192.364144 
L 171.466172 192.517414 
L 171.670792 192.460584 
L 172.284651 191.628761 
L 172.48927 191.781538 
L 173.307749 193.303066 
L 173.512369 193.419949 
L 175.149327 192.876171 
L 175.558566 193.156625 
L 175.763186 193.301834 
L 175.967806 193.269657 
L 176.377045 192.693187 
L 176.990904 191.932233 
L 177.400144 191.759124 
L 177.604764 191.822291 
L 178.218623 192.513428 
L 178.627862 192.875298 
L 179.037102 192.902391 
L 179.241721 192.9036 
L 179.650961 193.303849 
L 179.855581 193.56545 
L 180.0602 193.617667 
L 180.26482 193.319098 
L 180.878679 191.70169 
L 181.083299 191.453614 
L 181.287919 191.408786 
L 181.492538 191.560892 
L 181.901778 192.288684 
L 183.334116 195.209884 
L 183.538736 195.127416 
L 183.743355 194.859479 
L 184.152595 193.763794 
L 184.766454 191.833352 
L 185.175693 191.22569 
L 185.584933 191.149447 
L 186.812651 191.668103 
L 187.221891 191.884181 
L 187.63113 192.445358 
L 188.449609 193.706494 
L 189.063468 194.202959 
L 189.268088 194.383211 
L 189.472708 194.397385 
L 189.677327 194.195503 
L 190.086567 193.3135 
L 190.700426 191.952677 
L 191.109666 191.407465 
L 191.314285 191.283797 
L 191.518905 191.290223 
L 192.337384 191.778851 
L 192.542004 191.573946 
L 193.565102 189.348921 
L 194.178961 188.082904 
L 194.383581 188.001085 
L 194.588201 188.110042 
L 194.792821 188.409081 
L 195.20206 189.63972 
L 195.815919 191.915843 
L 196.020539 192.066448 
L 196.429778 191.740002 
L 196.839018 191.247701 
L 197.862117 189.373395 
L 198.066736 189.420238 
L 198.475976 190.163973 
L 199.294455 192.265039 
L 199.499074 192.357359 
L 199.908314 192.146834 
L 200.317553 191.557891 
L 200.726793 190.831599 
L 200.931412 190.662476 
L 201.136032 190.672396 
L 201.545272 191.194544 
L 202.97761 193.9292 
L 203.182229 194.008533 
L 204.000708 193.703673 
L 204.409948 194.370627 
L 205.023807 195.605677 
L 205.228427 195.496384 
L 205.637666 194.034575 
L 206.046906 192.478878 
L 206.251525 192.222562 
L 206.660765 192.322428 
L 206.865385 192.19343 
L 207.274624 191.234602 
L 207.888483 189.57427 
L 208.297723 188.970034 
L 208.706962 188.676615 
L 209.730061 188.324777 
L 209.93468 188.459238 
L 210.1393 188.864391 
L 210.957779 191.760423 
L 211.162399 191.839375 
L 212.185497 191.052134 
L 212.799357 190.319908 
L 213.208596 189.665896 
L 213.413216 189.601923 
L 213.822455 189.821316 
L 214.436314 190.228058 
L 214.640934 190.123355 
L 215.254793 189.565358 
L 215.459413 189.631391 
L 215.868653 190.150762 
L 216.277892 190.836682 
L 216.482512 190.872867 
L 216.687131 190.581284 
L 217.300991 189.180492 
L 217.71023 188.843768 
L 218.11947 188.827378 
L 218.324089 188.930177 
L 218.733329 189.647266 
L 219.142568 190.58321 
L 219.551808 190.959298 
L 220.370287 191.142999 
L 220.984146 191.839196 
L 221.188765 191.734852 
L 221.598005 190.844004 
L 222.007244 189.863479 
L 222.211864 189.63813 
L 222.416484 189.660141 
L 222.825723 189.925145 
L 223.030343 189.738982 
L 223.439582 188.565665 
L 224.258061 185.563385 
L 224.462681 185.212264 
L 224.667301 185.16457 
L 224.87192 185.251762 
L 225.07654 185.21766 
L 225.48578 184.452608 
L 225.895019 183.74405 
L 226.508878 183.413282 
L 226.713498 183.027185 
L 227.122737 181.559151 
L 227.941216 178.58701 
L 228.555076 177.39999 
L 228.964315 176.925334 
L 229.373554 176.883731 
L 230.601273 177.417769 
L 230.805893 177.601178 
L 231.010512 177.959734 
L 232.44285 182.420262 
L 232.85209 183.587914 
L 233.261329 184.239844 
L 233.465949 184.370431 
L 233.875188 184.221416 
L 234.489048 183.7183 
L 234.898287 183.206653 
L 235.102907 183.137396 
L 235.307527 183.270895 
L 235.716766 183.998911 
L 237.353724 188.411387 
L 237.558344 188.551559 
L 238.376822 188.61374 
L 238.990682 188.679392 
L 239.809161 188.677533 
L 240.42302 188.355655 
L 240.832259 188.529369 
L 241.650738 189.429038 
L 243.083076 188.906576 
L 244.106175 189.460677 
L 244.924654 189.054271 
L 245.333893 189.68728 
L 245.947752 190.516685 
L 246.561612 191.293492 
L 246.970851 191.523543 
L 247.38009 192.148715 
L 247.78933 192.920148 
L 248.198569 193.252483 
L 248.403189 193.14619 
L 248.812429 192.271375 
L 249.426288 190.397696 
L 249.630907 190.20495 
L 249.835527 190.41037 
L 250.449386 191.73324 
L 250.858626 192.135033 
L 251.267865 192.194796 
L 252.086344 192.059507 
L 252.495584 192.40877 
L 253.109443 193.163969 
L 254.132541 193.713458 
L 254.337161 193.63081 
L 254.746401 193.105483 
L 255.36026 192.018575 
L 256.178739 191.454241 
L 256.587978 190.990647 
L 256.997218 190.914179 
L 257.406457 191.389709 
L 257.815697 191.853124 
L 258.224936 191.962775 
L 258.429556 191.858722 
L 260.475753 189.238979 
L 261.089612 187.860041 
L 262.112711 186.377362 
L 262.72657 185.482552 
L 262.93119 185.413272 
L 263.135809 185.590837 
L 264.158908 187.496492 
L 264.363528 187.257932 
L 264.772767 185.557541 
L 265.182007 183.852963 
L 265.386626 183.550117 
L 265.591246 183.627771 
L 266.000486 184.56105 
L 266.409725 185.529372 
L 266.614345 185.707228 
L 266.818964 185.613386 
L 267.023584 185.245739 
L 267.432824 183.846872 
L 267.842063 182.280248 
L 268.046683 181.894487 
L 268.455922 181.862512 
L 268.660542 181.801584 
L 269.069781 181.234429 
L 269.479021 180.245126 
L 269.88826 178.818628 
L 270.2975 176.592103 
L 271.320598 169.912505 
L 271.729838 168.550271 
L 271.934458 168.309092 
L 272.139077 168.470983 
L 272.343697 169.056499 
L 272.752937 171.28551 
L 273.571415 176.747366 
L 273.980655 178.224536 
L 274.594514 179.371901 
L 275.003754 179.885831 
L 275.617613 180.14929 
L 276.231472 180.293536 
L 276.640711 180.413466 
L 276.845331 180.197992 
L 277.254571 179.106203 
L 277.86843 177.285636 
L 278.073049 176.998241 
L 278.277669 177.008563 
L 278.891528 177.595893 
L 279.505388 177.8289 
L 279.914627 178.293569 
L 280.528486 179.36525 
L 281.142345 180.476968 
L 281.551585 181.063335 
L 282.165444 182.161394 
L 282.574683 182.350334 
L 283.802402 182.763368 
L 284.416261 184.249293 
L 284.8255 184.990677 
L 285.03012 185.151336 
L 285.23474 185.030444 
L 285.43936 184.531628 
L 285.848599 182.336429 
L 287.076317 173.130909 
L 287.485557 171.981215 
L 287.894796 171.779982 
L 288.099416 171.909987 
L 288.508656 172.705245 
L 288.917895 173.627307 
L 289.327134 173.940833 
L 289.940994 173.976503 
L 290.145613 174.259509 
L 291.987191 178.454228 
L 292.39643 178.717284 
L 292.80567 178.650042 
L 293.214909 178.359131 
L 293.419529 178.029819 
L 293.828768 176.585722 
L 294.442628 172.797073 
L 296.079585 161.934758 
L 296.284205 161.484912 
L 296.488825 161.3172 
L 297.102684 161.228059 
L 297.307304 161.173625 
L 297.511924 161.346376 
L 297.716543 161.849558 
L 298.125783 163.698294 
L 299.558121 171.827833 
L 299.96736 172.488786 
L 301.195079 173.347681 
L 301.604318 173.253413 
L 302.013557 172.745707 
L 302.422797 171.604029 
L 303.036656 168.512519 
L 303.650515 164.018537 
L 304.468994 156.009935 
L 305.696713 141.752413 
L 307.33367 131.195295 
L 307.53829 131.047265 
L 307.94753 131.286675 
L 308.152149 131.240571 
L 308.561389 130.807003 
L 308.766008 130.832485 
L 309.175248 131.721317 
L 309.584487 132.453095 
L 310.402966 132.744095 
L 310.812206 133.511879 
L 311.426065 135.650831 
L 311.835304 138.14995 
L 312.449164 142.612539 
L 312.858403 144.025065 
L 313.063023 144.19018 
L 313.267642 144.122378 
L 313.472262 143.840447 
L 313.676882 143.227456 
L 314.086121 140.502293 
L 315.927699 123.392224 
L 316.541558 119.118194 
L 316.746178 118.263621 
L 316.950798 117.954484 
L 317.155417 118.278445 
L 317.973896 121.649222 
L 318.178516 121.606835 
L 318.587755 120.372927 
L 318.996995 119.322047 
L 320.020093 118.359995 
L 320.429333 118.342619 
L 320.633953 118.099066 
L 321.043192 116.891804 
L 321.452432 115.31329 
L 321.861671 112.953647 
L 322.88477 106.022324 
L 323.089389 105.591488 
L 323.294009 105.604789 
L 323.907868 106.549555 
L 324.112488 106.426827 
L 324.317108 105.919748 
L 324.726347 103.748888 
L 325.544826 97.109976 
L 326.158685 91.951906 
L 326.363305 90.966163 
L 326.567925 90.689135 
L 326.772544 91.279354 
L 326.977164 92.785767 
L 327.386404 98.075454 
L 328.409502 113.802264 
L 328.818742 117.367937 
L 329.227981 119.166068 
L 329.432601 119.426951 
L 329.637221 119.288213 
L 329.84184 118.809102 
L 330.04646 117.987758 
L 330.25108 116.6489 
L 330.660319 111.512751 
L 331.274178 98.163587 
L 331.683418 90.031383 
L 331.888038 88.197919 
L 332.092657 88.464715 
L 332.297277 90.679148 
L 333.729615 115.233733 
L 333.934235 116.488174 
L 334.138855 116.883832 
L 334.343474 116.597736 
L 334.752714 114.843627 
L 335.161953 111.808051 
L 335.571193 106.999647 
L 336.389672 96.116777 
L 336.798911 94.233783 
L 337.208151 93.068303 
L 337.61739 89.895422 
L 338.640489 78.03899 
L 338.845108 76.87772 
L 339.049728 76.381389 
L 339.254348 76.526486 
L 339.663587 78.376654 
L 340.891306 86.660315 
L 341.709784 92.784155 
L 342.119024 94.393233 
L 342.323644 94.796348 
L 342.528263 94.879823 
L 342.732883 94.555863 
L 342.937503 93.716717 
L 343.346742 90.259912 
L 343.960601 81.288002 
L 344.77908 68.786157 
L 345.18832 65.873734 
L 345.39294 66.048276 
L 345.597559 67.218144 
L 346.006799 71.552161 
L 346.620658 78.331491 
L 346.825278 79.618512 
L 347.029897 80.178905 
L 347.234517 79.967909 
L 347.643757 77.937265 
L 348.052996 75.912354 
L 348.462235 75.04654 
L 348.871475 74.682588 
L 349.076095 74.289437 
L 349.485334 72.68992 
L 350.099193 69.964982 
L 350.303813 69.706807 
L 350.508433 69.87752 
L 351.531531 72.03911 
L 351.736151 71.60393 
L 351.940771 70.321634 
L 352.35001 64.701 
L 352.75925 54.67006 
L 353.373109 30.734065 
L 353.986968 7.481369 
L 354.191588 3.724785 
L 354.396208 3.00024 
L 354.600827 5.313756 
L 355.010067 17.269831 
L 356.237785 64.229658 
L 356.851644 78.295127 
L 357.465503 86.190249 
L 357.874743 88.595548 
L 358.079363 88.676404 
L 358.283982 88.125237 
L 358.693222 85.795397 
L 359.102461 81.909704 
L 359.92094 73.044244 
L 360.12556 72.059822 
L 360.33018 71.809933 
L 360.534799 72.12328 
L 361.967137 75.880199 
L 362.171757 76.158459 
L 362.376377 75.991149 
L 362.580997 75.278763 
L 362.990236 72.453465 
L 363.604095 67.652048 
L 363.808715 66.920673 
L 364.013335 66.81241 
L 364.217954 67.176832 
L 364.831814 69.280651 
L 365.854912 74.355291 
L 366.468771 77.097023 
L 366.673391 77.562856 
L 366.878011 77.682674 
L 367.082631 77.439166 
L 367.28725 76.778257 
L 367.69649 74.113955 
L 368.924208 62.831888 
L 369.538067 57.668466 
L 369.947307 55.642816 
L 370.151927 55.29812 
L 370.356546 55.374274 
L 370.561166 55.824254 
L 370.970405 57.469719 
L 371.584265 60.845871 
L 372.607363 67.516153 
L 372.811983 68.045646 
L 373.016603 68.177152 
L 373.221222 68.027464 
L 373.630462 67.325825 
L 374.653561 65.324626 
L 375.472039 63.823251 
L 376.085899 61.990257 
L 376.495138 60.398241 
L 377.927476 53.219693 
L 379.155194 50.556645 
L 379.359814 50.418489 
L 379.564434 50.472274 
L 379.769054 50.806602 
L 380.178293 52.627862 
L 380.996772 57.627691 
L 381.815251 61.672656 
L 383.247589 70.157168 
L 384.066068 73.994093 
L 384.475307 74.97894 
L 384.679927 74.950659 
L 385.089167 74.097251 
L 385.498406 73.114173 
L 385.703026 72.955305 
L 385.907645 73.169771 
L 386.112265 73.815722 
L 386.521505 76.346951 
L 387.544603 84.28146 
L 388.158462 87.742543 
L 389.386181 92.266462 
L 389.590801 92.479338 
L 389.79542 92.213372 
L 390.20466 90.45062 
L 391.432378 83.013584 
L 391.636998 83.224132 
L 392.046237 85.037869 
L 392.455477 88.432493 
L 393.683195 100.811678 
L 394.092435 102.296998 
L 395.115533 104.998157 
L 395.320153 105.180312 
L 395.524773 105.082775 
L 396.343252 103.949091 
L 396.752491 104.67592 
L 397.36635 105.931481 
L 397.77559 107.397366 
L 398.389449 110.449959 
L 399.207928 114.782431 
L 399.821787 116.52203 
L 400.231026 117.283029 
L 400.435646 117.475372 
L 400.640266 117.473155 
L 400.844886 117.206472 
L 401.254125 115.856531 
L 401.867984 112.668715 
L 402.481843 108.681744 
L 402.686463 108.129972 
L 402.891083 108.151625 
L 403.095703 108.658435 
L 403.504942 111.022981 
L 404.528041 119.065171 
L 404.93728 120.465225 
L 405.1419 120.616815 
L 405.34652 120.593528 
L 405.551139 120.43316 
L 405.960379 119.483557 
L 406.369618 117.737734 
L 406.983477 113.494246 
L 407.801956 105.780808 
L 408.620435 96.905899 
L 409.029675 94.813052 
L 409.234294 94.878883 
L 409.438914 95.709788 
L 409.848154 99.512073 
L 411.280492 117.614088 
L 411.689731 120.348856 
L 412.098971 121.699222 
L 412.50821 122.167295 
L 412.71283 122.206592 
L 412.917449 122.078916 
L 413.122069 121.659253 
L 413.531309 119.545022 
L 413.940548 115.798514 
L 414.554407 107.075487 
L 415.372886 95.169727 
L 415.986745 90.489447 
L 417.009844 84.250582 
L 418.237562 79.770953 
L 418.442182 79.723819 
L 418.646802 80.362829 
L 419.056041 83.524335 
L 419.6699 91.798457 
L 421.306858 119.889784 
L 422.125337 127.343413 
L 422.534577 129.699249 
L 422.943816 130.989091 
L 423.148436 131.272188 
L 423.353055 131.279778 
L 423.557675 130.967976 
L 423.966915 129.281154 
L 424.580774 124.314688 
L 425.399253 117.743466 
L 425.808492 115.785639 
L 426.217732 115.097525 
L 426.422351 115.07997 
L 426.626971 115.422829 
L 426.831591 116.25716 
L 427.44545 120.921676 
L 428.059309 125.362904 
L 428.468549 127.000195 
L 429.082408 128.069167 
L 429.696267 128.984175 
L 430.105506 130.093071 
L 431.537845 135.102171 
L 431.742464 135.397179 
L 431.947084 135.493329 
L 432.356323 135.367555 
L 432.560943 135.543642 
L 432.970183 136.867945 
L 434.197901 142.836589 
L 434.60714 143.302288 
L 434.81176 143.367985 
L 435.01638 143.287756 
L 435.425619 142.737775 
L 436.653338 140.318593 
L 436.857957 140.294321 
L 437.062577 140.663087 
L 437.267197 141.470683 
L 437.676436 144.403527 
L 438.494915 151.398733 
L 439.108774 154.749985 
L 439.518014 155.650215 
L 439.722634 155.755567 
L 440.131873 155.634988 
L 440.541113 155.530106 
L 440.745732 155.719584 
L 441.154972 156.822344 
L 441.768831 159.775094 
L 442.996549 166.650797 
L 443.405789 167.758081 
L 443.610408 167.968136 
L 443.815028 167.980138 
L 444.633507 167.628076 
L 444.838127 167.564641 
L 445.042747 167.348047 
L 445.451986 166.467119 
L 445.861225 165.534892 
L 446.065845 165.409992 
L 446.270465 165.638386 
L 446.679704 166.862957 
L 447.293564 168.789771 
L 447.702803 169.486977 
L 447.907423 169.619266 
L 448.112042 169.607018 
L 448.521282 169.206747 
L 449.135141 168.439433 
L 449.339761 168.56814 
L 449.544381 169.038922 
L 449.95362 170.920483 
L 450.567479 174.133467 
L 450.976719 175.131055 
L 451.590578 175.227764 
L 452.204437 176.232047 
L 452.613676 176.850703 
L 452.818296 176.99739 
L 453.022916 176.933529 
L 453.636775 176.140309 
L 453.841395 176.21747 
L 454.046014 176.622511 
L 454.455254 178.189224 
L 455.069113 180.8147 
L 455.478353 181.315822 
L 455.887592 181.606845 
L 456.501451 182.097511 
L 456.910691 181.95875 
L 457.31993 181.549971 
L 457.72917 180.651129 
L 458.138409 179.748258 
L 458.547648 179.392389 
L 458.956888 179.461489 
L 459.366127 179.71364 
L 459.775367 180.558809 
L 460.184606 181.485505 
L 460.389226 181.521959 
L 460.798465 180.737964 
L 461.207705 179.861469 
L 461.616944 179.406943 
L 462.026184 179.272818 
L 462.230804 179.360884 
L 462.435423 179.575149 
L 462.844663 180.496874 
L 463.458522 182.236853 
L 463.867761 182.665965 
L 464.277001 182.509202 
L 464.68624 182.389944 
L 465.09548 182.484616 
L 465.300099 182.411127 
L 465.504719 182.077336 
L 465.913959 180.499919 
L 466.323198 179.015181 
L 466.527818 178.906739 
L 466.732438 179.280073 
L 467.960156 182.995703 
L 468.574015 183.687579 
L 468.983255 183.901888 
L 469.187874 183.830101 
L 469.597114 183.220223 
L 470.415593 181.338527 
L 470.620212 181.182189 
L 470.824832 181.314971 
L 471.438691 182.456559 
L 471.847931 183.555984 
L 472.871029 187.209298 
L 473.075649 187.237914 
L 473.484889 186.425683 
L 473.894128 185.711393 
L 474.303367 185.139491 
L 474.917227 183.084821 
L 475.326466 181.97279 
L 475.531086 181.822408 
L 475.735706 181.942852 
L 476.349565 182.88838 
L 476.554184 183.185561 
L 476.758804 183.271947 
L 477.372663 182.656471 
L 477.577283 182.926199 
L 478.191142 184.651378 
L 479.8281 186.909341 
L 480.03272 186.745882 
L 480.441959 185.754855 
L 481.055818 184.405698 
L 481.465058 184.012435 
L 482.283537 183.78066 
L 483.306635 183.263729 
L 483.920495 182.904726 
L 484.329734 182.748903 
L 484.534354 182.861891 
L 484.738974 183.176201 
L 485.762072 185.865671 
L 485.966692 185.919702 
L 486.171312 185.724 
L 487.19441 184.012794 
L 487.39903 183.937289 
L 487.60365 184.052404 
L 488.217509 184.918352 
L 489.035988 186.267554 
L 489.445227 186.43408 
L 489.854467 186.585895 
L 490.468326 186.968096 
L 490.672946 186.897675 
L 491.082185 186.357098 
L 491.286805 186.069882 
L 491.491425 185.991422 
L 491.900664 186.498165 
L 492.309903 186.792255 
L 492.923763 186.819416 
L 493.742241 186.12042 
L 494.151481 185.38338 
L 494.56072 184.454399 
L 495.993058 182.562202 
L 496.402298 182.627004 
L 496.811537 182.97358 
L 497.630016 183.863643 
L 498.448495 183.534824 
L 498.857735 184.239015 
L 499.880833 186.404322 
L 501.927031 189.342204 
L 502.13165 189.359468 
L 502.33627 189.157093 
L 502.745509 188.089666 
L 503.154749 186.870245 
L 503.563988 186.260568 
L 503.973228 186.042318 
L 504.177848 186.035578 
L 504.587087 186.376467 
L 505.200946 187.118522 
L 505.610186 187.122754 
L 506.224045 186.834463 
L 506.633284 186.524049 
L 506.837904 186.553875 
L 507.247143 186.860326 
L 507.451763 186.809385 
L 507.861003 185.996773 
L 508.270242 185.081542 
L 508.474862 184.876704 
L 508.884101 184.958926 
L 510.11182 185.473237 
L 510.725679 185.195336 
L 510.930299 185.311189 
L 511.339538 185.940839 
L 511.953397 187.568816 
L 512.362637 188.48051 
L 512.976496 189.231903 
L 513.181116 189.293637 
L 513.385735 189.114997 
L 513.999594 188.123186 
L 514.613454 187.768728 
L 515.227313 186.824387 
L 515.636552 186.343663 
L 515.841172 186.272391 
L 516.045792 186.415898 
L 516.455031 187.363128 
L 516.864271 188.297034 
L 517.47813 188.931118 
L 517.68275 189.076909 
L 517.887369 189.076886 
L 518.705848 188.214387 
L 518.910468 188.325561 
L 519.524327 189.304183 
L 519.728947 189.29919 
L 520.138186 188.490004 
L 520.956665 186.462025 
L 521.161285 186.250671 
L 522.184384 185.973688 
L 523.002862 185.525118 
L 523.412102 184.995804 
L 523.616722 184.911097 
L 524.025961 185.035751 
L 524.435201 185.399457 
L 524.84444 186.314599 
L 525.662919 188.910853 
L 525.867539 189.052569 
L 526.276778 188.5952 
L 526.481398 188.363425 
L 526.686018 188.373367 
L 527.504496 189.516455 
L 527.913736 189.229843 
L 528.732215 188.14822 
L 529.346074 187.832163 
L 529.755313 187.583886 
L 529.959933 187.660823 
L 530.369173 188.270455 
L 530.983032 189.641847 
L 531.187651 189.737056 
L 531.596891 189.168692 
L 532.21075 188.37209 
L 532.61999 188.048197 
L 533.029229 188.039531 
L 533.643088 188.354401 
L 533.847708 188.295243 
L 534.052328 188.024171 
L 535.075426 185.825366 
L 535.484666 185.988824 
L 535.689285 185.860476 
L 536.507764 184.716336 
L 536.917004 184.771553 
L 537.326243 185.15371 
L 537.940102 185.959917 
L 538.144722 185.954319 
L 538.553962 185.571939 
L 539.167821 184.576321 
L 539.372441 184.432075 
L 539.57706 184.456751 
L 539.9863 184.886982 
L 540.395539 185.711102 
L 541.214018 187.514897 
L 542.646356 189.151338 
L 542.850976 188.974691 
L 543.260215 188.223007 
L 543.669455 187.433101 
L 543.874075 187.394991 
L 544.078694 187.677482 
L 544.692553 188.909465 
L 544.897173 188.901673 
L 545.306413 188.382771 
L 545.715652 187.395618 
L 546.94337 182.976827 
L 547.14799 182.824072 
L 547.35261 182.967333 
L 547.966469 183.724547 
L 548.171089 183.613642 
L 548.989568 182.258976 
L 549.398807 182.498118 
L 549.808047 182.955084 
L 551.035765 185.045402 
L 551.240385 185.095984 
L 551.445004 184.932526 
L 552.468103 183.190643 
L 552.672723 183.359811 
L 553.081962 184.419782 
L 553.491202 185.831255 
L 553.695821 186.144558 
L 553.900441 186.022165 
L 554.5143 184.867098 
L 554.71892 184.850998 
L 554.92354 185.094193 
L 555.946638 187.069575 
L 556.151258 187.189347 
L 556.355878 187.109991 
L 556.560498 186.775238 
L 557.378977 184.75682 
L 557.583596 184.644683 
L 557.992836 184.870524 
L 558.811315 185.468915 
L 559.220554 185.567975 
L 560.039033 185.191865 
L 560.448272 185.206106 
L 560.857512 185.533045 
L 561.471371 186.483543 
L 561.675991 186.534215 
L 562.49447 186.010746 
L 562.903709 186.650763 
L 563.517568 187.891568 
L 563.722188 187.952383 
L 564.336047 187.370114 
L 565.359146 186.090303 
L 565.768385 185.310361 
L 566.382245 183.851866 
L 566.791484 183.560417 
L 566.996104 183.427635 
L 568.019202 182.171448 
L 568.223822 182.302841 
L 568.633062 183.005846 
L 569.246921 184.148397 
L 569.65616 184.60908 
L 570.0654 185.554653 
L 570.474639 186.767759 
L 571.906977 188.964414 
L 572.111597 188.81766 
L 572.520836 187.949987 
L 573.339315 185.988153 
L 573.953174 185.709983 
L 575.180893 184.251219 
L 575.590132 184.1679 
L 576.203991 184.380149 
L 576.817851 184.871666 
L 577.22709 185.574133 
L 577.636329 186.307478 
L 577.840949 186.404792 
L 578.250189 186.259225 
L 579.273287 185.727717 
L 579.682527 185.558101 
L 580.091766 185.031631 
L 580.501006 184.399227 
L 580.705625 184.368797 
L 580.910245 184.673322 
L 581.319485 186.049058 
L 581.728724 187.456187 
L 581.933344 187.820654 
L 582.342583 187.97014 
L 582.751823 187.910332 
L 582.956442 188.017744 
L 583.570302 188.617143 
L 583.979541 188.537362 
L 584.184161 188.671913 
L 585.207259 189.939588 
L 586.230358 189.714082 
L 586.639597 189.86583 
L 586.844217 189.813658 
L 587.048837 189.608596 
L 587.458076 188.559843 
L 588.071936 185.487299 
L 588.481175 183.597207 
L 588.685795 183.170401 
L 588.890414 183.151189 
L 589.299654 183.961002 
L 591.141231 188.246496 
L 591.550471 188.319313 
L 591.95971 188.340697 
L 592.57357 188.519136 
L 592.982809 189.014078 
L 593.392048 189.469656 
L 593.596668 189.393548 
L 594.415147 188.239085 
L 594.824387 188.228493 
L 595.438246 188.747104 
L 595.642865 188.683266 
L 596.052105 187.887224 
L 596.665964 186.38661 
L 597.689063 184.745713 
L 597.893682 184.793945 
L 598.302922 185.372206 
L 599.121401 186.596956 
L 599.53064 186.746465 
L 600.144499 186.631462 
L 600.553739 186.30141 
L 600.962978 185.833338 
L 601.167598 185.750959 
L 601.576838 185.915895 
L 602.395316 186.527946 
L 602.804556 186.897496 
L 603.418415 187.683797 
L 603.623035 187.794232 
L 603.827655 187.748844 
L 604.032274 187.51698 
L 604.441514 186.336498 
L 605.669232 181.255835 
L 606.89695 179.451212 
L 607.30619 177.707157 
L 607.920049 173.52032 
L 608.329288 169.129787 
L 608.738528 162.192059 
L 609.352387 148.072739 
L 609.761627 135.333699 
L 610.375486 106.524006 
L 611.193965 60.999477 
L 611.398584 55.597406 
L 611.603204 55.07266 
L 611.807824 59.431531 
L 612.217063 78.193223 
L 613.035542 118.247768 
L 613.649401 137.277957 
L 614.263261 149.73737 
L 615.286359 164.623109 
L 615.900218 170.643276 
L 616.514078 175.324227 
L 617.537176 180.0859 
L 617.946416 181.412733 
L 618.151035 181.658144 
L 618.355655 181.496029 
L 618.969514 180.065188 
L 619.174134 180.105694 
L 621.015712 183.453878 
L 622.44805 186.644829 
L 622.652669 186.671453 
L 623.266529 186.05891 
L 623.471148 186.17557 
L 623.880388 186.921589 
L 625.108106 190.126355 
L 625.312726 189.834773 
L 626.540444 186.320555 
L 626.745064 186.460189 
L 627.972782 188.495602 
L 628.177402 188.744283 
L 628.382022 188.767704 
L 628.791261 188.358476 
L 629.200501 187.710779 
L 630.428219 184.867008 
L 631.655937 182.484952 
L 632.065177 181.763474 
L 632.269797 181.651785 
L 632.474416 181.687947 
L 633.088275 182.277696 
L 633.292895 182.524876 
L 633.497515 182.97826 
L 634.520614 186.514533 
L 634.725233 186.494448 
L 635.134473 186.06921 
L 635.543712 185.600286 
L 635.952952 185.442628 
L 636.566811 185.532731 
L 636.97605 185.523752 
L 637.38529 185.302166 
L 637.589909 185.375319 
L 637.999149 185.810789 
L 638.203769 185.789808 
L 638.613008 184.951424 
L 639.226867 183.511604 
L 639.636107 183.044494 
L 640.249966 182.812428 
L 641.068445 181.727737 
L 641.273065 181.781656 
L 641.477684 182.125008 
L 642.705403 185.893526 
L 642.910022 185.949483 
L 644.137741 185.006687 
L 644.54698 184.832078 
L 644.95622 185.014389 
L 645.570079 185.583694 
L 646.183938 185.460317 
L 646.593177 185.124847 
L 647.207037 183.852425 
L 648.025515 182.263678 
L 648.230135 182.113095 
L 648.434755 182.349237 
L 648.843994 183.871369 
L 649.253234 185.285103 
L 649.457854 185.549547 
L 649.867093 185.525723 
L 650.276332 185.501719 
L 650.685572 185.874516 
L 651.094811 186.273958 
L 651.504051 186.306605 
L 651.708671 186.082063 
L 652.11791 184.77995 
L 652.527149 183.429539 
L 653.754868 181.609734 
L 653.959488 181.659196 
L 654.573347 182.222142 
L 654.777966 182.214104 
L 655.187206 181.771378 
L 656.210305 180.053701 
L 656.414924 180.028488 
L 656.619544 180.211203 
L 657.028783 181.122718 
L 657.642643 182.443147 
L 658.256502 183.595102 
L 658.665741 184.976234 
L 659.2796 187.270136 
L 659.68884 187.786619 
L 659.89346 187.758316 
L 660.098079 187.545059 
L 660.507319 186.546978 
L 661.530417 182.890507 
L 661.735037 182.642364 
L 661.939657 182.705732 
L 662.348896 183.263774 
L 662.553516 183.356229 
L 662.962756 183.290331 
L 663.985854 184.21537 
L 664.395094 184.875719 
L 665.008953 186.172368 
L 665.213573 186.108261 
L 666.441291 183.823518 
L 666.85053 182.39964 
L 667.46439 179.802311 
L 667.873629 178.813859 
L 668.078249 178.585487 
L 668.282868 178.576173 
L 668.692108 179.138447 
L 668.896728 179.398009 
L 669.101347 179.406943 
L 669.510587 179.059852 
L 669.919826 179.091066 
L 670.329066 179.149575 
L 671.352164 179.057815 
L 671.556784 179.242343 
L 671.966024 180.185318 
L 672.579883 182.059109 
L 672.989122 182.627026 
L 675.035319 183.729585 
L 675.239939 183.658313 
L 675.444559 183.380949 
L 675.853798 182.090995 
L 676.672277 179.051209 
L 677.899996 175.96767 
L 678.513855 173.819784 
L 678.923094 173.285298 
L 679.332334 173.232589 
L 679.536953 173.028736 
L 679.946193 172.024856 
L 680.969292 168.148836 
L 681.173911 168.037147 
L 681.378531 168.347382 
L 681.78777 169.823454 
L 682.606249 173.102359 
L 682.810869 173.355137 
L 683.015489 173.349383 
L 683.220109 173.077997 
L 684.243207 170.611681 
L 684.447827 170.742448 
L 685.061686 171.714106 
L 685.266306 171.804546 
L 685.470925 171.697178 
L 685.880165 171.066476 
L 686.903264 169.215009 
L 687.312503 168.829225 
L 688.130982 167.562804 
L 688.540221 166.174977 
L 688.949461 163.320123 
L 689.56332 156.279574 
L 690.381799 146.318272 
L 690.586419 145.164637 
L 690.791038 144.87816 
L 690.995658 145.357742 
L 691.404898 147.712257 
L 692.223376 152.907564 
L 692.427996 153.368203 
L 692.632616 153.379892 
L 692.837236 153.023082 
L 693.451095 150.899021 
L 694.064954 149.013206 
L 694.474193 147.866132 
L 694.883433 145.011367 
L 695.497292 137.692782 
L 696.520391 121.98402 
L 698.566588 87.574517 
L 699.385067 79.502367 
L 699.794306 76.97013 
L 700.203546 75.682482 
L 700.408166 75.72534 
L 700.612785 76.295898 
L 701.431264 79.885195 
L 701.635884 79.261277 
L 701.840504 77.397696 
L 702.249743 69.467106 
L 703.477461 36.460857 
L 703.682081 37.758873 
L 704.29594 46.122874 
L 704.50056 47.481839 
L 704.70518 47.511687 
L 704.9098 46.269023 
L 705.728278 38.458451 
L 705.932898 39.432864 
L 706.137518 42.581204 
L 706.546757 54.08273 
L 707.569856 87.124312 
L 708.183715 99.866912 
L 708.797574 106.886167 
L 710.025293 116.574471 
L 711.253011 129.78568 
L 711.86687 133.229656 
L 712.27611 134.736763 
L 712.685349 135.584641 
L 712.889969 135.75616 
L 713.094589 135.634754 
L 713.503828 134.578612 
L 714.936166 130.162261 
L 715.550025 126.760091 
L 716.368504 120.884058 
L 716.982363 114.885007 
L 717.596223 105.843751 
L 718.210082 93.213244 
L 718.619321 80.318874 
L 719.23318 51.361509 
L 719.95258 -1 
M 722.317582 -1 
L 723.120955 34.087713 
L 723.734814 52.269105 
L 724.348674 64.668666 
L 724.757913 69.345117 
L 724.962533 70.400385 
L 725.167152 70.741946 
L 725.371772 70.641788 
L 725.576392 70.272933 
L 725.781012 69.596484 
L 726.190251 66.799781 
L 726.599491 61.565602 
L 727.622589 44.257591 
L 727.827209 43.440435 
L 728.031829 44.254949 
L 728.236448 46.57787 
L 728.645688 54.796326 
L 730.078026 91.022702 
L 730.691885 98.738244 
L 731.510364 106.659878 
L 731.919603 109.575816 
L 732.124223 110.472888 
L 732.328843 110.861113 
L 732.533463 110.843155 
L 732.738082 110.707529 
L 732.942702 110.743065 
L 733.147322 111.070787 
L 733.761181 113.070038 
L 734.57966 115.939492 
L 734.78428 116.05792 
L 734.988899 115.77872 
L 735.398139 114.333637 
L 735.807378 111.849744 
L 736.421237 106.218675 
L 736.830477 100.461586 
L 737.444336 88.014063 
L 738.058195 70.287263 
L 738.672054 41.823071 
L 739.506434 -1 
M 740.003501 -1 
L 740.104393 1.611136 
L 740.718252 31.282948 
L 741.332111 59.315364 
L 741.94597 76.904388 
L 742.35521 83.666633 
L 742.764449 87.678637 
L 743.173688 89.406055 
L 743.582928 89.827061 
L 743.992167 89.799519 
L 744.196787 89.585747 
L 744.401407 89.09835 
L 744.606027 88.157301 
L 745.015266 84.416929 
L 745.424505 78.086863 
L 746.038365 63.021589 
L 746.447604 52.47148 
L 746.652224 49.163175 
L 746.856844 48.190128 
L 747.061463 49.885638 
L 747.470703 59.796558 
L 748.493801 90.578454 
L 748.903041 97.805166 
L 749.5169 104.531181 
L 750.130759 109.1931 
L 750.744618 111.64616 
L 752.381576 117.286298 
L 752.995435 118.666087 
L 753.404675 119.082749 
L 753.609295 118.962058 
L 753.813914 118.593023 
L 754.223154 117.128124 
L 754.632393 114.85639 
L 755.246252 109.606739 
L 755.655492 105.853805 
L 755.860112 104.77095 
L 756.064731 104.626099 
L 756.269351 105.562625 
L 756.67859 110.224074 
L 757.29245 118.463264 
L 757.906309 123.244552 
L 758.315548 124.977478 
L 758.724788 125.867094 
L 759.338647 126.387764 
L 759.747886 127.778122 
L 760.361746 130.256328 
L 760.566365 130.506218 
L 760.975605 130.282997 
L 761.180224 130.19137 
L 761.384844 130.315666 
L 761.794084 131.343393 
L 762.407943 133.373633 
L 762.817182 134.021869 
L 763.021802 133.970681 
L 763.226422 133.651109 
L 763.635661 132.4009 
L 764.044901 130.222495 
L 764.863379 125.432049 
L 765.067999 124.78809 
L 765.272619 124.525706 
L 765.477239 124.75204 
L 765.886478 126.484317 
L 766.500337 129.089953 
L 767.114196 131.328457 
L 768.751154 138.33421 
L 768.955774 138.751701 
L 769.160394 138.813636 
L 769.569633 138.059153 
L 769.978873 137.285077 
L 771.001971 136.300633 
L 771.411211 136.22654 
L 771.82045 136.201573 
L 772.22969 135.921656 
L 772.638929 135.211755 
L 773.048169 134.367683 
L 773.252788 134.144664 
L 773.457408 134.162375 
L 773.866647 134.883047 
L 774.275887 135.56384 
L 774.480507 135.541829 
L 774.889746 135.253202 
L 775.094366 135.375079 
L 776.322084 137.322538 
L 776.935943 138.101809 
L 777.140563 138.014347 
L 777.959042 136.956996 
L 778.982141 136.42195 
L 779.39138 136.561741 
L 780.209859 137.257267 
L 780.823718 138.081477 
L 781.437577 138.291241 
L 781.642197 138.204429 
L 782.051437 137.525114 
L 782.460676 136.875715 
L 782.665296 136.819288 
L 782.869915 136.971349 
L 783.279155 137.570883 
L 783.483775 137.68096 
L 784.302254 137.383578 
L 784.711493 136.974484 
L 784.916113 137.001108 
L 785.120732 137.322717 
L 785.939211 139.336165 
L 786.96231 140.418415 
L 787.16693 140.524976 
L 787.371549 140.377393 
L 788.190028 139.015742 
L 788.394648 139.089902 
L 788.803888 140.018883 
L 790.236226 143.896313 
L 790.440845 144.070005 
L 790.645465 143.91622 
L 791.054705 143.347922 
L 791.259324 143.278195 
L 791.668564 143.528062 
L 792.077803 143.937581 
L 793.100902 144.483711 
L 793.510141 145.322901 
L 794.124 146.70878 
L 795.147099 148.435011 
L 795.556339 149.268693 
L 795.965578 149.72875 
L 796.784057 150.138537 
L 798.216395 152.691934 
L 798.625634 152.945585 
L 799.034874 152.755056 
L 799.444113 152.586918 
L 799.853353 152.831165 
L 800.262592 153.150087 
L 800.876451 153.291266 
L 801.285691 153.440774 
L 801.69493 153.155372 
L 802.10417 152.829911 
L 802.513409 152.636604 
L 803.127268 152.141192 
L 803.331888 152.197014 
L 804.150367 153.070441 
L 805.173466 154.880685 
L 805.787325 155.153772 
L 806.605804 156.55593 
L 806.810423 156.618805 
L 807.219663 156.423193 
L 807.424283 156.172676 
L 807.833522 155.164766 
L 808.447381 153.362829 
L 808.652001 153.030248 
L 808.856621 153.010946 
L 809.6751 153.897181 
L 810.084339 153.39673 
L 810.493579 152.854295 
L 810.902818 152.819342 
L 811.312057 152.845988 
L 811.721297 152.359173 
L 812.130536 151.502025 
L 812.744396 150.018765 
L 812.949015 150.049419 
L 813.767494 151.269623 
L 814.381353 151.266287 
L 814.790593 151.713133 
L 816.018311 153.563995 
L 816.427551 155.880086 
L 817.04141 159.378182 
L 817.450649 160.393302 
L 818.473748 162.462437 
L 819.701466 165.915616 
L 820.110706 166.900933 
L 820.724565 168.815432 
L 820.929185 168.919732 
L 821.543044 168.626268 
L 821.952283 168.924143 
L 822.566142 169.614698 
L 822.975382 170.933672 
L 823.793861 174.607854 
L 823.998481 175.040437 
L 824.2031 175.198185 
L 824.816959 175.119703 
L 825.226199 175.320801 
L 825.430819 175.179555 
L 825.840058 174.175944 
L 826.453917 172.552378 
L 826.863157 172.147674 
L 827.272396 171.937641 
L 827.477016 172.022662 
L 828.090875 172.660619 
L 828.295495 172.570157 
L 828.704734 171.552036 
L 829.113974 170.671534 
L 829.318593 170.698269 
L 829.727833 171.01502 
L 829.932453 170.973797 
L 830.750932 170.450328 
L 831.160171 170.301782 
L 831.364791 170.087227 
L 831.77403 169.082227 
L 834.638706 158.206701 
L 835.661805 152.808258 
L 836.275664 150.042746 
L 837.912622 138.718225 
L 838.321861 137.094503 
L 838.731101 135.767401 
L 839.14034 133.485636 
L 842.618876 107.703839 
L 843.846594 93.294413 
L 844.460453 85.05764 
L 846.71127 49.383395 
L 847.529749 34.363711 
L 848.757467 5.733217 
L 849.008565 -1 
M 947.595264 -1 
L 948.407274 31.582234 
L 949.021134 50.091438 
L 949.634993 62.497381 
L 950.658091 77.136074 
L 952.499669 100.831741 
L 952.908908 103.629026 
L 953.932007 108.863273 
L 955.568965 119.557315 
L 956.182824 121.980393 
L 956.592063 123.520214 
L 957.819782 129.595442 
L 958.638261 131.89577 
L 960.684458 138.770397 
L 961.707557 140.105135 
L 962.730655 141.37516 
L 963.139895 142.712786 
L 964.981472 150.534576 
L 965.390712 151.050455 
L 965.799951 151.145373 
L 966.209191 151.187379 
L 966.41381 151.465885 
L 966.82305 152.727133 
L 967.232289 154.005802 
L 968.050768 155.423097 
L 968.460008 155.828384 
L 968.869247 155.864614 
L 969.278487 155.751245 
L 969.483106 155.846118 
L 969.892346 156.440054 
L 970.710825 158.360845 
L 970.915444 158.345484 
L 971.529304 157.596465 
L 971.733923 157.70381 
L 972.143163 158.56922 
L 972.961642 161.233343 
L 973.370881 161.857172 
L 973.780121 162.179207 
L 973.98474 162.169623 
L 974.598599 161.687847 
L 975.007839 161.328575 
L 975.212459 161.260773 
L 975.417078 161.330075 
L 975.826318 161.792259 
L 976.849416 163.152209 
L 977.258656 163.62944 
L 977.667895 164.690798 
L 978.281755 166.485816 
L 979.304853 167.892184 
L 979.509473 167.973062 
L 979.918712 167.756379 
L 980.327952 167.387009 
L 980.737191 167.314706 
L 981.146431 167.353152 
L 981.35105 167.534434 
L 982.169529 168.973382 
L 982.374149 169.048326 
L 982.578769 168.973919 
L 982.988008 168.451502 
L 983.397248 167.814463 
L 983.601867 167.662424 
L 983.806487 167.703916 
L 984.215727 168.327923 
L 984.624966 168.817156 
L 985.238825 168.881129 
L 985.648065 169.691568 
L 986.261924 171.043704 
L 986.466544 171.235532 
L 986.671163 171.18739 
L 987.080403 170.499858 
L 987.694262 169.548531 
L 988.308121 169.02907 
L 988.512741 169.002961 
L 988.717361 169.228332 
L 989.740459 171.436742 
L 990.149699 171.318358 
L 990.558938 170.981836 
L 990.968178 170.314366 
L 991.582037 168.86897 
L 993.014375 164.630409 
L 993.218995 164.305462 
L 993.423614 164.258485 
L 993.628234 164.51245 
L 994.037473 165.782565 
L 994.446713 167.040455 
L 994.855952 167.765224 
L 995.060572 167.878122 
L 995.674431 167.670105 
L 995.879051 168.047313 
L 996.28829 169.799495 
L 996.69753 171.660949 
L 996.90215 172.107906 
L 997.106769 172.193957 
L 997.925248 171.728952 
L 999.357586 169.649539 
L 999.971446 168.808446 
L 1000.380685 167.727293 
L 1001.199164 165.339034 
L 1001.608403 164.433049 
L 1002.631502 161.148569 
L 1002.836122 161.638317 
L 1003.245361 164.300895 
L 1003.85922 168.429088 
L 1004.47308 170.575385 
L 1004.882319 171.5472 
L 1005.291558 171.971049 
L 1005.905418 172.457013 
L 1006.314657 173.339799 
L 1006.928516 174.990168 
L 1007.337756 175.321876 
L 1007.746995 175.3721 
L 1008.156235 175.619818 
L 1008.770094 176.129158 
L 1009.179333 175.950227 
L 1009.997812 175.161911 
L 1010.407052 174.175854 
L 1012.453249 168.485202 
L 1012.657869 168.488269 
L 1012.862488 168.732203 
L 1013.271728 169.886509 
L 1014.090207 172.497743 
L 1014.294826 172.697587 
L 1014.704066 172.793535 
L 1015.113305 173.367789 
L 1015.727165 174.515221 
L 1016.136404 174.799325 
L 1016.545643 174.964305 
L 1016.954883 175.767669 
L 1017.773362 177.805523 
L 1018.182601 178.383426 
L 1018.387221 178.525814 
L 1018.591841 178.467395 
L 1019.41032 177.586713 
L 1019.614939 177.830198 
L 1020.024179 179.259473 
L 1020.433418 180.625603 
L 1020.638038 180.884024 
L 1020.842658 180.840181 
L 1021.251897 180.100096 
L 1022.070376 178.183156 
L 1022.888855 177.040762 
L 1023.298094 177.008519 
L 1023.502714 177.04177 
L 1023.707334 176.939306 
L 1024.321193 176.366441 
L 1024.525813 176.446692 
L 1024.730433 176.733416 
L 1025.753531 179.248322 
L 1025.958151 179.165742 
L 1026.36739 178.171893 
L 1026.77663 177.065662 
L 1026.98125 176.897367 
L 1028.004348 177.103056 
L 1028.618207 178.175028 
L 1029.436686 178.645833 
L 1029.845926 179.129064 
L 1030.050545 179.115921 
L 1030.459785 178.343636 
L 1030.869024 177.509529 
L 1031.278264 177.301915 
L 1032.301362 177.515866 
L 1032.915222 178.294554 
L 1033.324461 178.57053 
L 1033.529081 178.493122 
L 1033.7337 178.289091 
L 1034.14294 177.351378 
L 1034.552179 176.348953 
L 1034.961419 175.871969 
L 1035.166039 175.809474 
L 1035.575278 176.055176 
L 1035.984517 176.594118 
L 1037.416856 179.528664 
L 1038.439954 180.887965 
L 1038.849194 180.494792 
L 1039.258433 179.66523 
L 1040.076912 177.460178 
L 1040.281532 177.566964 
L 1041.100011 178.923398 
L 1041.50925 179.16451 
L 1041.91849 179.162629 
L 1042.327729 178.629688 
L 1042.736968 178.168826 
L 1043.146208 177.821488 
L 1043.760067 176.57372 
L 1044.373926 175.624901 
L 1044.987785 175.004968 
L 1045.192405 175.028233 
L 1045.601645 175.721341 
L 1046.010884 176.259499 
L 1046.624743 176.412232 
L 1047.033983 176.7533 
L 1047.647842 177.475696 
L 1047.852462 177.448221 
L 1048.261701 177.118886 
L 1048.466321 177.116916 
L 1048.670941 177.301534 
L 1049.08018 178.089425 
L 1050.512518 181.538797 
L 1050.921758 181.791934 
L 1051.330997 181.600351 
L 1051.740236 181.153036 
L 1052.354096 180.199447 
L 1052.558715 180.098864 
L 1052.763335 180.188834 
L 1053.377194 180.783374 
L 1053.786434 180.840584 
L 1054.195673 180.569311 
L 1055.218772 179.399106 
L 1055.628011 179.45822 
L 1056.037251 179.881711 
L 1057.060349 181.53667 
L 1057.469589 181.600351 
L 1057.674209 181.488259 
L 1057.878828 181.180913 
L 1058.901927 178.59581 
L 1059.311166 178.595967 
L 1059.720406 178.573396 
L 1059.925026 178.543727 
L 1060.129645 178.629061 
L 1060.538885 179.246172 
L 1061.766603 181.454471 
L 1062.175843 181.886179 
L 1062.994321 182.312626 
L 1063.8128 183.220335 
L 1064.22204 183.249757 
L 1064.631279 182.908622 
L 1065.040519 182.041263 
L 1065.449758 181.078449 
L 1065.654378 180.865909 
L 1065.858998 180.853392 
L 1066.268237 181.152252 
L 1066.882096 181.604404 
L 1067.291336 181.760227 
L 1067.700575 182.260253 
L 1068.928294 184.402406 
L 1069.132913 184.448309 
L 1069.951392 183.941499 
L 1070.565251 184.061204 
L 1070.974491 183.716218 
L 1071.58835 183.161266 
L 1071.79297 183.238225 
L 1072.202209 184.195912 
L 1072.816068 185.829218 
L 1073.225308 186.55177 
L 1073.429927 186.751301 
L 1073.634547 186.715945 
L 1074.043787 185.94028 
L 1074.453026 185.038102 
L 1074.862266 184.73257 
L 1075.680744 184.789578 
L 1076.294604 185.268354 
L 1076.499223 185.21925 
L 1076.908463 184.598086 
L 1077.931561 182.23074 
L 1078.95466 179.759633 
L 1079.568519 178.890371 
L 1079.773139 178.808194 
L 1079.977759 178.94982 
L 1080.796238 180.393761 
L 1081.000857 180.477304 
L 1081.205477 180.374056 
L 1081.614717 179.654975 
L 1082.023956 178.772188 
L 1082.228576 178.582039 
L 1082.433195 178.712559 
L 1083.660914 180.988032 
L 1084.274773 181.530759 
L 1084.888632 181.934411 
L 1085.502491 182.722996 
L 1085.707111 182.614128 
L 1086.32097 181.874782 
L 1086.73021 181.848987 
L 1087.139449 182.002772 
L 1087.344069 181.971715 
L 1087.753308 181.459128 
L 1088.162548 180.924194 
L 1088.571787 180.807893 
L 1090.004125 181.720191 
L 1090.617985 182.356223 
L 1092.254942 183.296219 
L 1092.664182 183.271007 
L 1093.073421 183.035537 
L 1093.278041 183.109653 
L 1093.8919 183.655559 
L 1094.09652 183.577009 
L 1094.505759 182.950225 
L 1094.914999 182.089629 
L 1095.119619 181.844464 
L 1095.324238 181.785082 
L 1095.733478 182.134188 
L 1096.142717 182.887014 
L 1096.756576 184.109256 
L 1097.165816 184.363355 
L 1097.575055 184.423499 
L 1097.779675 184.418864 
L 1097.984295 184.555788 
L 1098.393534 185.58047 
L 1098.802774 186.806093 
L 1099.007393 187.069418 
L 1099.212013 186.93021 
L 1099.621253 185.44218 
L 1100.235112 182.710524 
L 1100.644351 181.959154 
L 1100.848971 182.012333 
L 1101.25821 182.844717 
L 1102.281309 185.58871 
L 1102.485929 185.667304 
L 1102.690548 185.554809 
L 1103.099788 184.871688 
L 1103.918267 183.066729 
L 1104.736746 182.081322 
L 1105.555225 180.382431 
L 1105.964464 180.291723 
L 1106.373704 180.198619 
L 1106.578323 179.914246 
L 1108.419901 175.276354 
L 1109.03376 174.468624 
L 1109.442999 173.711163 
L 1110.466098 171.314798 
L 1110.875337 170.907585 
L 1111.284577 170.125494 
L 1111.693816 169.029898 
L 1112.103056 167.204047 
L 1112.921535 162.306279 
L 1113.535394 160.648745 
L 1113.944633 158.037287 
L 1116.40007 136.265411 
L 1118.855507 113.874544 
L 1119.264746 107.094386 
L 1119.673986 96.826521 
L 1120.083225 81.796111 
L 1120.492465 60.545555 
L 1120.901704 30.753321 
L 1121.216773 -1 
M 1124.692262 -1 
L 1125.198718 43.275521 
L 1125.812578 73.612071 
L 1126.426437 91.108909 
L 1127.858775 125.6636 
L 1129.700352 157.695749 
L 1130.314212 162.489934 
L 1131.54193 170.508411 
L 1131.951169 171.703537 
L 1133.178888 174.334946 
L 1133.588127 174.486336 
L 1133.792747 174.530156 
L 1133.997367 174.733538 
L 1134.406606 175.789501 
L 1135.429705 178.76359 
L 1135.838944 179.38959 
L 1136.248184 179.553205 
L 1136.657423 180.114583 
L 1137.680522 181.898875 
L 1137.885141 181.965916 
L 1138.089761 181.791866 
L 1138.90824 180.542262 
L 1139.11286 180.691188 
L 1139.726719 181.590947 
L 1141.363677 181.841061 
L 1142.182156 182.552955 
L 1143.000635 182.245295 
L 1144.637592 183.856881 
L 1144.842212 183.781534 
L 1145.456071 182.839208 
L 1145.660691 182.842052 
L 1146.68379 184.135544 
L 1147.297649 184.386307 
L 1147.502269 184.338187 
L 1147.911508 183.74208 
L 1148.320747 183.131888 
L 1148.525367 183.10007 
L 1149.343846 183.571904 
L 1149.753086 183.374366 
L 1150.162325 183.115833 
L 1150.571564 183.097181 
L 1150.776184 183.270648 
L 1151.185424 184.197904 
L 1152.413142 187.622556 
L 1152.617762 187.596358 
L 1153.436241 186.500717 
L 1153.84548 186.298544 
L 1154.663959 185.217391 
L 1155.891677 183.858381 
L 1156.710156 183.328463 
L 1157.528635 183.795058 
L 1157.937875 183.699446 
L 1158.142494 183.514291 
L 1158.551734 182.602037 
L 1158.960973 181.7302 
L 1159.165593 181.670639 
L 1159.574832 182.154811 
L 1160.188692 183.182672 
L 1161.007171 183.832855 
L 1161.62103 185.021667 
L 1162.439509 186.888964 
L 1162.644128 186.926515 
L 1163.053368 186.721565 
L 1163.257988 186.855153 
L 1163.871847 188.107333 
L 1164.076466 188.167745 
L 1164.281086 187.90254 
L 1165.508805 185.048514 
L 1165.918044 185.212174 
L 1166.327283 185.331028 
L 1166.736523 185.336984 
L 1167.145762 185.837144 
L 1167.759622 186.827097 
L 1168.168861 187.054751 
L 1168.373481 186.956161 
L 1168.78272 186.228481 
L 1169.19196 185.364817 
L 1170.419678 183.855896 
L 1171.033537 183.492257 
L 1171.442777 183.4406 
L 1171.852016 183.827123 
L 1172.465875 185.162039 
L 1172.875115 185.917821 
L 1173.898213 187.365994 
L 1174.716692 189.493279 
L 1174.921312 189.651901 
L 1175.125932 189.617284 
L 1175.330551 189.407721 
L 1175.739791 188.537071 
L 1176.14903 187.574705 
L 1176.35365 187.412165 
L 1176.55827 187.598104 
L 1176.967509 188.252766 
L 1177.172129 188.307021 
L 1177.581368 188.01602 
L 1177.990608 187.155961 
L 1178.604467 185.614057 
L 1179.013707 185.056239 
L 1179.218326 184.94923 
L 1179.422946 185.034923 
L 1179.832185 185.765626 
L 1180.650664 187.640715 
L 1180.855284 187.835858 
L 1181.059904 187.858428 
L 1181.264524 187.71669 
L 1181.673763 186.851033 
L 1182.492242 184.098844 
L 1182.696862 183.833348 
L 1182.901481 183.884333 
L 1183.310721 184.554602 
L 1183.71996 185.291507 
L 1183.92458 185.425946 
L 1184.1292 185.334566 
L 1184.538439 184.914635 
L 1184.743059 184.890833 
L 1184.743059 184.890833 
" clip-path="url(#p79ff7a02d2)" style="fill: none; stroke: #000000; stroke-width: 2; stroke-linecap: square"/>
   </g>
   <g id="patch_3">
    <path d="M 3.00024 198.907885 
L 1184.99976 198.907885 
" style="fill: none; stroke: #000000; stroke-width: 2; stroke-linejoin: miter; stroke-linecap: square"/>
   </g>
  </g>
 </g>
 <defs>
  <clipPath id="p79ff7a02d2">
   <rect x="3.00024" y="3.00024" width="1181.99952" height="195.907645"/>
  </clipPath>
 </defs>
</svg>
