<?xml version="1.0" encoding="utf-8" standalone="no"?>
<!DOCTYPE svg PUBLIC "-//W3C//DTD SVG 1.1//EN"
  "http://www.w3.org/Graphics/SVG/1.1/DTD/svg11.dtd">
<svg xmlns:xlink="http://www.w3.org/1999/xlink" width="1188pt" height="252pt" viewBox="0 0 1188 252" xmlns="http://www.w3.org/2000/svg" version="1.1">
 <metadata>
  <rdf:RDF xmlns:dc="http://purl.org/dc/elements/1.1/" xmlns:cc="http://creativecommons.org/ns#" xmlns:rdf="http://www.w3.org/1999/02/22-rdf-syntax-ns#">
   <cc:Work>
    <dc:type rdf:resource="http://purl.org/dc/dcmitype/StillImage"/>
    <dc:date>2024-07-23T21:49:02.905861</dc:date>
    <dc:format>image/svg+xml</dc:format>
    <dc:creator>
     <cc:Agent>
      <dc:title>Matplotlib v3.8.4, https://matplotlib.org/</dc:title>
     </cc:Agent>
    </dc:creator>
   </cc:Work>
  </rdf:RDF>
 </metadata>
 <defs>
  <style type="text/css">*{stroke-linejoin: round; stroke-linecap: butt}</style>
 </defs>
 <g id="figure_1">
  <g id="patch_1">
   <path d="M 0 252 
L 1188 252 
L 1188 0 
L 0 0 
z
" style="fill: #ffffff"/>
  </g>
  <g id="axes_1">
   <g id="patch_2">
    <path d="M 3.00024 198.907885 
L 1184.99976 198.907885 
L 1184.99976 3.00024 
L 3.00024 3.00024 
z
" style="fill: #ffffff"/>
   </g>
   <g id="matplotlib.axis_1">
    <g id="xtick_1">
     <g id="line2d_1">
      <defs>
       <path id="m041274040c" d="M 0 0 
L 0 8 
" style="stroke: #000000; stroke-width: 2"/>
      </defs>
      <g>
       <use xlink:href="#m041274040c" x="1131.272509" y="198.907885" style="stroke: #000000; stroke-width: 2"/>
      </g>
     </g>
     <g id="text_1">
      <!-- 0 -->
      <g transform="translate(1126.267665 224.791947) scale(0.18 -0.18)">
       <defs>
        <path id="Arial-BoldMT-30" d="M 1756 4600 
Q 2422 4600 2797 4125 
Q 3244 3563 3244 2259 
Q 3244 959 2794 391 
Q 2422 -78 1756 -78 
Q 1088 -78 678 436 
Q 269 950 269 2269 
Q 269 3563 719 4131 
Q 1091 4600 1756 4600 
z
M 1756 3872 
Q 1597 3872 1472 3770 
Q 1347 3669 1278 3406 
Q 1188 3066 1188 2259 
Q 1188 1453 1269 1151 
Q 1350 850 1473 750 
Q 1597 650 1756 650 
Q 1916 650 2041 751 
Q 2166 853 2234 1116 
Q 2325 1453 2325 2259 
Q 2325 3066 2244 3367 
Q 2163 3669 2039 3770 
Q 1916 3872 1756 3872 
z
" transform="scale(0.015625)"/>
       </defs>
       <use xlink:href="#Arial-BoldMT-30"/>
      </g>
     </g>
    </g>
    <g id="xtick_2">
     <g id="line2d_2">
      <g>
       <use xlink:href="#m041274040c" x="1023.818007" y="198.907885" style="stroke: #000000; stroke-width: 2"/>
      </g>
     </g>
     <g id="text_2">
      <!-- 1 -->
      <g transform="translate(1018.813164 224.791947) scale(0.18 -0.18)">
       <defs>
        <path id="Arial-BoldMT-31" d="M 2519 0 
L 1641 0 
L 1641 3309 
Q 1159 2859 506 2644 
L 506 3441 
Q 850 3553 1253 3867 
Q 1656 4181 1806 4600 
L 2519 4600 
L 2519 0 
z
" transform="scale(0.015625)"/>
       </defs>
       <use xlink:href="#Arial-BoldMT-31"/>
      </g>
     </g>
    </g>
    <g id="xtick_3">
     <g id="line2d_3">
      <g>
       <use xlink:href="#m041274040c" x="916.363505" y="198.907885" style="stroke: #000000; stroke-width: 2"/>
      </g>
     </g>
     <g id="text_3">
      <!-- 2 -->
      <g transform="translate(911.358662 224.791947) scale(0.18 -0.18)">
       <defs>
        <path id="Arial-BoldMT-32" d="M 3238 816 
L 3238 0 
L 159 0 
Q 209 463 459 877 
Q 709 1291 1447 1975 
Q 2041 2528 2175 2725 
Q 2356 2997 2356 3263 
Q 2356 3556 2198 3714 
Q 2041 3872 1763 3872 
Q 1488 3872 1325 3706 
Q 1163 3541 1138 3156 
L 263 3244 
Q 341 3969 753 4284 
Q 1166 4600 1784 4600 
Q 2463 4600 2850 4234 
Q 3238 3869 3238 3325 
Q 3238 3016 3127 2736 
Q 3016 2456 2775 2150 
Q 2616 1947 2200 1565 
Q 1784 1184 1673 1059 
Q 1563 934 1494 816 
L 3238 816 
z
" transform="scale(0.015625)"/>
       </defs>
       <use xlink:href="#Arial-BoldMT-32"/>
      </g>
     </g>
    </g>
    <g id="xtick_4">
     <g id="line2d_4">
      <g>
       <use xlink:href="#m041274040c" x="808.909004" y="198.907885" style="stroke: #000000; stroke-width: 2"/>
      </g>
     </g>
     <g id="text_4">
      <!-- 3 -->
      <g transform="translate(803.90416 224.791947) scale(0.18 -0.18)">
       <defs>
        <path id="Arial-BoldMT-33" d="M 241 1216 
L 1091 1319 
Q 1131 994 1309 822 
Q 1488 650 1741 650 
Q 2013 650 2198 856 
Q 2384 1063 2384 1413 
Q 2384 1744 2206 1937 
Q 2028 2131 1772 2131 
Q 1603 2131 1369 2066 
L 1466 2781 
Q 1822 2772 2009 2936 
Q 2197 3100 2197 3372 
Q 2197 3603 2059 3740 
Q 1922 3878 1694 3878 
Q 1469 3878 1309 3722 
Q 1150 3566 1116 3266 
L 306 3403 
Q 391 3819 561 4067 
Q 731 4316 1036 4458 
Q 1341 4600 1719 4600 
Q 2366 4600 2756 4188 
Q 3078 3850 3078 3425 
Q 3078 2822 2419 2463 
Q 2813 2378 3048 2084 
Q 3284 1791 3284 1375 
Q 3284 772 2843 347 
Q 2403 -78 1747 -78 
Q 1125 -78 715 280 
Q 306 638 241 1216 
z
" transform="scale(0.015625)"/>
       </defs>
       <use xlink:href="#Arial-BoldMT-33"/>
      </g>
     </g>
    </g>
    <g id="xtick_5">
     <g id="line2d_5">
      <g>
       <use xlink:href="#m041274040c" x="701.454502" y="198.907885" style="stroke: #000000; stroke-width: 2"/>
      </g>
     </g>
     <g id="text_5">
      <!-- 4 -->
      <g transform="translate(696.449658 224.791947) scale(0.18 -0.18)">
       <defs>
        <path id="Arial-BoldMT-34" d="M 1994 0 
L 1994 922 
L 119 922 
L 119 1691 
L 2106 4600 
L 2844 4600 
L 2844 1694 
L 3413 1694 
L 3413 922 
L 2844 922 
L 2844 0 
L 1994 0 
z
M 1994 1694 
L 1994 3259 
L 941 1694 
L 1994 1694 
z
" transform="scale(0.015625)"/>
       </defs>
       <use xlink:href="#Arial-BoldMT-34"/>
      </g>
     </g>
    </g>
    <g id="xtick_6">
     <g id="line2d_6">
      <g>
       <use xlink:href="#m041274040c" x="594" y="198.907885" style="stroke: #000000; stroke-width: 2"/>
      </g>
     </g>
     <g id="text_6">
      <!-- 5 -->
      <g transform="translate(588.995156 224.791947) scale(0.18 -0.18)">
       <defs>
        <path id="Arial-BoldMT-35" d="M 284 1178 
L 1159 1269 
Q 1197 972 1381 798 
Q 1566 625 1806 625 
Q 2081 625 2272 848 
Q 2463 1072 2463 1522 
Q 2463 1944 2273 2155 
Q 2084 2366 1781 2366 
Q 1403 2366 1103 2031 
L 391 2134 
L 841 4519 
L 3163 4519 
L 3163 3697 
L 1506 3697 
L 1369 2919 
Q 1663 3066 1969 3066 
Q 2553 3066 2959 2641 
Q 3366 2216 3366 1538 
Q 3366 972 3038 528 
Q 2591 -78 1797 -78 
Q 1163 -78 763 262 
Q 363 603 284 1178 
z
" transform="scale(0.015625)"/>
       </defs>
       <use xlink:href="#Arial-BoldMT-35"/>
      </g>
     </g>
    </g>
    <g id="xtick_7">
     <g id="line2d_7">
      <g>
       <use xlink:href="#m041274040c" x="486.545498" y="198.907885" style="stroke: #000000; stroke-width: 2"/>
      </g>
     </g>
     <g id="text_7">
      <!-- 6 -->
      <g transform="translate(481.540654 224.791947) scale(0.18 -0.18)">
       <defs>
        <path id="Arial-BoldMT-36" d="M 3247 3459 
L 2397 3366 
Q 2366 3628 2234 3753 
Q 2103 3878 1894 3878 
Q 1616 3878 1423 3628 
Q 1231 3378 1181 2588 
Q 1509 2975 1997 2975 
Q 2547 2975 2939 2556 
Q 3331 2138 3331 1475 
Q 3331 772 2918 347 
Q 2506 -78 1859 -78 
Q 1166 -78 719 461 
Q 272 1000 272 2228 
Q 272 3488 737 4044 
Q 1203 4600 1947 4600 
Q 2469 4600 2811 4308 
Q 3153 4016 3247 3459 
z
M 1256 1544 
Q 1256 1116 1453 883 
Q 1650 650 1903 650 
Q 2147 650 2309 840 
Q 2472 1031 2472 1466 
Q 2472 1913 2297 2120 
Q 2122 2328 1859 2328 
Q 1606 2328 1431 2129 
Q 1256 1931 1256 1544 
z
" transform="scale(0.015625)"/>
       </defs>
       <use xlink:href="#Arial-BoldMT-36"/>
      </g>
     </g>
    </g>
    <g id="xtick_8">
     <g id="line2d_8">
      <g>
       <use xlink:href="#m041274040c" x="379.090996" y="198.907885" style="stroke: #000000; stroke-width: 2"/>
      </g>
     </g>
     <g id="text_8">
      <!-- 7 -->
      <g transform="translate(374.086153 224.791947) scale(0.18 -0.18)">
       <defs>
        <path id="Arial-BoldMT-37" d="M 272 3703 
L 272 4519 
L 3275 4519 
L 3275 3881 
Q 2903 3516 2518 2831 
Q 2134 2147 1932 1376 
Q 1731 606 1734 0 
L 888 0 
Q 909 950 1279 1937 
Q 1650 2925 2269 3703 
L 272 3703 
z
" transform="scale(0.015625)"/>
       </defs>
       <use xlink:href="#Arial-BoldMT-37"/>
      </g>
     </g>
    </g>
    <g id="xtick_9">
     <g id="line2d_9">
      <g>
       <use xlink:href="#m041274040c" x="271.636495" y="198.907885" style="stroke: #000000; stroke-width: 2"/>
      </g>
     </g>
     <g id="text_9">
      <!-- 8 -->
      <g transform="translate(266.631651 224.791947) scale(0.18 -0.18)">
       <defs>
        <path id="Arial-BoldMT-38" d="M 1025 2472 
Q 684 2616 529 2867 
Q 375 3119 375 3419 
Q 375 3931 733 4265 
Q 1091 4600 1750 4600 
Q 2403 4600 2764 4265 
Q 3125 3931 3125 3419 
Q 3125 3100 2959 2851 
Q 2794 2603 2494 2472 
Q 2875 2319 3073 2025 
Q 3272 1731 3272 1347 
Q 3272 713 2867 316 
Q 2463 -81 1791 -81 
Q 1166 -81 750 247 
Q 259 634 259 1309 
Q 259 1681 443 1992 
Q 628 2303 1025 2472 
z
M 1206 3356 
Q 1206 3094 1354 2947 
Q 1503 2800 1750 2800 
Q 2000 2800 2150 2948 
Q 2300 3097 2300 3359 
Q 2300 3606 2151 3754 
Q 2003 3903 1759 3903 
Q 1506 3903 1356 3753 
Q 1206 3603 1206 3356 
z
M 1125 1394 
Q 1125 1031 1311 828 
Q 1497 625 1775 625 
Q 2047 625 2225 820 
Q 2403 1016 2403 1384 
Q 2403 1706 2222 1901 
Q 2041 2097 1763 2097 
Q 1441 2097 1283 1875 
Q 1125 1653 1125 1394 
z
" transform="scale(0.015625)"/>
       </defs>
       <use xlink:href="#Arial-BoldMT-38"/>
      </g>
     </g>
    </g>
    <g id="xtick_10">
     <g id="line2d_10">
      <g>
       <use xlink:href="#m041274040c" x="164.181993" y="198.907885" style="stroke: #000000; stroke-width: 2"/>
      </g>
     </g>
     <g id="text_10">
      <!-- 9 -->
      <g transform="translate(159.177149 224.791947) scale(0.18 -0.18)">
       <defs>
        <path id="Arial-BoldMT-39" d="M 291 1059 
L 1141 1153 
Q 1172 894 1303 769 
Q 1434 644 1650 644 
Q 1922 644 2112 894 
Q 2303 1144 2356 1931 
Q 2025 1547 1528 1547 
Q 988 1547 595 1964 
Q 203 2381 203 3050 
Q 203 3747 617 4173 
Q 1031 4600 1672 4600 
Q 2369 4600 2816 4061 
Q 3263 3522 3263 2288 
Q 3263 1031 2797 475 
Q 2331 -81 1584 -81 
Q 1047 -81 715 205 
Q 384 491 291 1059 
z
M 2278 2978 
Q 2278 3403 2083 3637 
Q 1888 3872 1631 3872 
Q 1388 3872 1227 3680 
Q 1066 3488 1066 3050 
Q 1066 2606 1241 2398 
Q 1416 2191 1678 2191 
Q 1931 2191 2104 2391 
Q 2278 2591 2278 2978 
z
" transform="scale(0.015625)"/>
       </defs>
       <use xlink:href="#Arial-BoldMT-39"/>
      </g>
     </g>
    </g>
    <g id="xtick_11">
     <g id="line2d_11">
      <g>
       <use xlink:href="#m041274040c" x="56.727491" y="198.907885" style="stroke: #000000; stroke-width: 2"/>
      </g>
     </g>
     <g id="text_11">
      <!-- 10 -->
      <g transform="translate(46.717803 224.791947) scale(0.18 -0.18)">
       <use xlink:href="#Arial-BoldMT-31"/>
       <use xlink:href="#Arial-BoldMT-30" x="55.615234"/>
      </g>
     </g>
    </g>
    <g id="text_12">
     <!-- Chemical Shift / ppm -->
     <g transform="translate(504.992813 245.447573) scale(0.18 -0.18)">
      <defs>
       <path id="Arial-BoldMT-43" d="M 3397 1684 
L 4294 1400 
Q 4088 650 3608 286 
Q 3128 -78 2391 -78 
Q 1478 -78 890 545 
Q 303 1169 303 2250 
Q 303 3394 893 4026 
Q 1484 4659 2447 4659 
Q 3288 4659 3813 4163 
Q 4125 3869 4281 3319 
L 3366 3100 
Q 3284 3456 3026 3662 
Q 2769 3869 2400 3869 
Q 1891 3869 1573 3503 
Q 1256 3138 1256 2319 
Q 1256 1450 1568 1081 
Q 1881 713 2381 713 
Q 2750 713 3015 947 
Q 3281 1181 3397 1684 
z
" transform="scale(0.015625)"/>
       <path id="Arial-BoldMT-68" d="M 1334 4581 
L 1334 2897 
Q 1759 3394 2350 3394 
Q 2653 3394 2897 3281 
Q 3141 3169 3264 2994 
Q 3388 2819 3433 2606 
Q 3478 2394 3478 1947 
L 3478 0 
L 2600 0 
L 2600 1753 
Q 2600 2275 2550 2415 
Q 2500 2556 2373 2639 
Q 2247 2722 2056 2722 
Q 1838 2722 1666 2615 
Q 1494 2509 1414 2295 
Q 1334 2081 1334 1663 
L 1334 0 
L 456 0 
L 456 4581 
L 1334 4581 
z
" transform="scale(0.015625)"/>
       <path id="Arial-BoldMT-65" d="M 2381 1056 
L 3256 909 
Q 3088 428 2723 176 
Q 2359 -75 1813 -75 
Q 947 -75 531 491 
Q 203 944 203 1634 
Q 203 2459 634 2926 
Q 1066 3394 1725 3394 
Q 2466 3394 2894 2905 
Q 3322 2416 3303 1406 
L 1103 1406 
Q 1113 1016 1316 798 
Q 1519 581 1822 581 
Q 2028 581 2168 693 
Q 2309 806 2381 1056 
z
M 2431 1944 
Q 2422 2325 2234 2523 
Q 2047 2722 1778 2722 
Q 1491 2722 1303 2513 
Q 1116 2303 1119 1944 
L 2431 1944 
z
" transform="scale(0.015625)"/>
       <path id="Arial-BoldMT-6d" d="M 394 3319 
L 1203 3319 
L 1203 2866 
Q 1638 3394 2238 3394 
Q 2556 3394 2790 3262 
Q 3025 3131 3175 2866 
Q 3394 3131 3647 3262 
Q 3900 3394 4188 3394 
Q 4553 3394 4806 3245 
Q 5059 3097 5184 2809 
Q 5275 2597 5275 2122 
L 5275 0 
L 4397 0 
L 4397 1897 
Q 4397 2391 4306 2534 
Q 4184 2722 3931 2722 
Q 3747 2722 3584 2609 
Q 3422 2497 3350 2280 
Q 3278 2063 3278 1594 
L 3278 0 
L 2400 0 
L 2400 1819 
Q 2400 2303 2353 2443 
Q 2306 2584 2207 2653 
Q 2109 2722 1941 2722 
Q 1738 2722 1575 2612 
Q 1413 2503 1342 2297 
Q 1272 2091 1272 1613 
L 1272 0 
L 394 0 
L 394 3319 
z
" transform="scale(0.015625)"/>
       <path id="Arial-BoldMT-69" d="M 459 3769 
L 459 4581 
L 1338 4581 
L 1338 3769 
L 459 3769 
z
M 459 0 
L 459 3319 
L 1338 3319 
L 1338 0 
L 459 0 
z
" transform="scale(0.015625)"/>
       <path id="Arial-BoldMT-63" d="M 3353 2338 
L 2488 2181 
Q 2444 2441 2289 2572 
Q 2134 2703 1888 2703 
Q 1559 2703 1364 2476 
Q 1169 2250 1169 1719 
Q 1169 1128 1367 884 
Q 1566 641 1900 641 
Q 2150 641 2309 783 
Q 2469 925 2534 1272 
L 3397 1125 
Q 3263 531 2881 228 
Q 2500 -75 1859 -75 
Q 1131 -75 698 384 
Q 266 844 266 1656 
Q 266 2478 700 2936 
Q 1134 3394 1875 3394 
Q 2481 3394 2839 3133 
Q 3197 2872 3353 2338 
z
" transform="scale(0.015625)"/>
       <path id="Arial-BoldMT-61" d="M 1116 2306 
L 319 2450 
Q 453 2931 781 3162 
Q 1109 3394 1756 3394 
Q 2344 3394 2631 3255 
Q 2919 3116 3036 2902 
Q 3153 2688 3153 2116 
L 3144 1091 
Q 3144 653 3186 445 
Q 3228 238 3344 0 
L 2475 0 
Q 2441 88 2391 259 
Q 2369 338 2359 363 
Q 2134 144 1878 34 
Q 1622 -75 1331 -75 
Q 819 -75 523 203 
Q 228 481 228 906 
Q 228 1188 362 1408 
Q 497 1628 739 1745 
Q 981 1863 1438 1950 
Q 2053 2066 2291 2166 
L 2291 2253 
Q 2291 2506 2166 2614 
Q 2041 2722 1694 2722 
Q 1459 2722 1328 2630 
Q 1197 2538 1116 2306 
z
M 2291 1594 
Q 2122 1538 1756 1459 
Q 1391 1381 1278 1306 
Q 1106 1184 1106 997 
Q 1106 813 1243 678 
Q 1381 544 1594 544 
Q 1831 544 2047 700 
Q 2206 819 2256 991 
Q 2291 1103 2291 1419 
L 2291 1594 
z
" transform="scale(0.015625)"/>
       <path id="Arial-BoldMT-6c" d="M 459 0 
L 459 4581 
L 1338 4581 
L 1338 0 
L 459 0 
z
" transform="scale(0.015625)"/>
       <path id="Arial-BoldMT-20" transform="scale(0.015625)"/>
       <path id="Arial-BoldMT-53" d="M 231 1491 
L 1131 1578 
Q 1213 1125 1461 912 
Q 1709 700 2131 700 
Q 2578 700 2804 889 
Q 3031 1078 3031 1331 
Q 3031 1494 2936 1608 
Q 2841 1722 2603 1806 
Q 2441 1863 1863 2006 
Q 1119 2191 819 2459 
Q 397 2838 397 3381 
Q 397 3731 595 4036 
Q 794 4341 1167 4500 
Q 1541 4659 2069 4659 
Q 2931 4659 3367 4281 
Q 3803 3903 3825 3272 
L 2900 3231 
Q 2841 3584 2645 3739 
Q 2450 3894 2059 3894 
Q 1656 3894 1428 3728 
Q 1281 3622 1281 3444 
Q 1281 3281 1419 3166 
Q 1594 3019 2269 2859 
Q 2944 2700 3267 2529 
Q 3591 2359 3773 2064 
Q 3956 1769 3956 1334 
Q 3956 941 3737 597 
Q 3519 253 3119 86 
Q 2719 -81 2122 -81 
Q 1253 -81 787 320 
Q 322 722 231 1491 
z
" transform="scale(0.015625)"/>
       <path id="Arial-BoldMT-66" d="M 75 3319 
L 563 3319 
L 563 3569 
Q 563 3988 652 4194 
Q 741 4400 980 4529 
Q 1219 4659 1584 4659 
Q 1959 4659 2319 4547 
L 2200 3934 
Q 1991 3984 1797 3984 
Q 1606 3984 1523 3895 
Q 1441 3806 1441 3553 
L 1441 3319 
L 2097 3319 
L 2097 2628 
L 1441 2628 
L 1441 0 
L 563 0 
L 563 2628 
L 75 2628 
L 75 3319 
z
" transform="scale(0.015625)"/>
       <path id="Arial-BoldMT-74" d="M 1981 3319 
L 1981 2619 
L 1381 2619 
L 1381 1281 
Q 1381 875 1398 808 
Q 1416 741 1477 697 
Q 1538 653 1625 653 
Q 1747 653 1978 738 
L 2053 56 
Q 1747 -75 1359 -75 
Q 1122 -75 931 4 
Q 741 84 652 211 
Q 563 338 528 553 
Q 500 706 500 1172 
L 500 2619 
L 97 2619 
L 97 3319 
L 500 3319 
L 500 3978 
L 1381 4491 
L 1381 3319 
L 1981 3319 
z
" transform="scale(0.015625)"/>
       <path id="Arial-BoldMT-2f" d="M -9 -78 
L 1125 4659 
L 1784 4659 
L 638 -78 
L -9 -78 
z
" transform="scale(0.015625)"/>
       <path id="Arial-BoldMT-70" d="M 434 3319 
L 1253 3319 
L 1253 2831 
Q 1413 3081 1684 3237 
Q 1956 3394 2288 3394 
Q 2866 3394 3269 2941 
Q 3672 2488 3672 1678 
Q 3672 847 3265 386 
Q 2859 -75 2281 -75 
Q 2006 -75 1782 34 
Q 1559 144 1313 409 
L 1313 -1263 
L 434 -1263 
L 434 3319 
z
M 1303 1716 
Q 1303 1156 1525 889 
Q 1747 622 2066 622 
Q 2372 622 2575 867 
Q 2778 1113 2778 1672 
Q 2778 2194 2568 2447 
Q 2359 2700 2050 2700 
Q 1728 2700 1515 2451 
Q 1303 2203 1303 1716 
z
" transform="scale(0.015625)"/>
      </defs>
      <use xlink:href="#Arial-BoldMT-43"/>
      <use xlink:href="#Arial-BoldMT-68" x="72.216797"/>
      <use xlink:href="#Arial-BoldMT-65" x="133.300781"/>
      <use xlink:href="#Arial-BoldMT-6d" x="188.916016"/>
      <use xlink:href="#Arial-BoldMT-69" x="277.832031"/>
      <use xlink:href="#Arial-BoldMT-63" x="305.615234"/>
      <use xlink:href="#Arial-BoldMT-61" x="361.230469"/>
      <use xlink:href="#Arial-BoldMT-6c" x="416.845703"/>
      <use xlink:href="#Arial-BoldMT-20" x="444.628906"/>
      <use xlink:href="#Arial-BoldMT-53" x="472.412109"/>
      <use xlink:href="#Arial-BoldMT-68" x="539.111328"/>
      <use xlink:href="#Arial-BoldMT-69" x="600.195312"/>
      <use xlink:href="#Arial-BoldMT-66" x="627.978516"/>
      <use xlink:href="#Arial-BoldMT-74" x="661.279297"/>
      <use xlink:href="#Arial-BoldMT-20" x="694.580078"/>
      <use xlink:href="#Arial-BoldMT-2f" x="722.363281"/>
      <use xlink:href="#Arial-BoldMT-20" x="750.146484"/>
      <use xlink:href="#Arial-BoldMT-70" x="777.929688"/>
      <use xlink:href="#Arial-BoldMT-70" x="839.013672"/>
      <use xlink:href="#Arial-BoldMT-6d" x="900.097656"/>
     </g>
    </g>
   </g>
   <g id="matplotlib.axis_2"/>
   <g id="line2d_12">
    <path d="M 2.976982 188.248654 
L 3.590841 189.002883 
L 4.40932 190.027256 
L 5.432419 190.640235 
L 5.637039 190.672283 
L 5.841658 190.54479 
L 6.250898 189.543603 
L 6.660137 188.310318 
L 6.864757 187.982541 
L 7.069377 187.886797 
L 7.478616 188.105836 
L 8.297095 188.805531 
L 8.501715 188.820256 
L 8.910954 188.372249 
L 9.320194 188.024983 
L 10.547912 187.868907 
L 11.366391 188.027715 
L 11.98025 187.854382 
L 12.798729 188.374481 
L 13.617208 188.43238 
L 14.026447 187.917212 
L 14.640307 186.99408 
L 15.049546 186.684093 
L 15.458786 186.708246 
L 17.095743 187.122139 
L 18.118842 186.382701 
L 18.528081 186.184683 
L 19.141941 185.559078 
L 19.55118 185.556447 
L 19.96042 185.829555 
L 20.574279 186.608837 
L 21.597377 188.447638 
L 21.801997 188.471358 
L 22.211237 188.161104 
L 23.234335 187.009505 
L 24.052814 187.114377 
L 24.462054 186.670601 
L 25.280532 185.249091 
L 25.485152 185.195256 
L 25.894392 185.451141 
L 26.712871 186.019512 
L 27.12211 186.01125 
L 27.531349 185.813198 
L 27.735969 185.815263 
L 28.145209 186.12615 
L 28.759068 186.740127 
L 28.963688 186.68406 
L 29.577547 186.178719 
L 29.986786 186.210234 
L 31.009885 186.730999 
L 32.442223 187.915746 
L 33.056082 187.911116 
L 33.669941 187.607492 
L 34.2838 187.383588 
L 34.89766 187.285545 
L 35.102279 187.435458 
L 35.920758 188.513633 
L 36.329998 188.659182 
L 36.739237 188.48405 
L 37.148477 188.185357 
L 37.557716 188.245822 
L 37.966956 188.322377 
L 38.376195 188.095276 
L 38.990054 187.671188 
L 39.194674 187.670722 
L 39.399294 187.786788 
L 40.627012 189.136939 
L 41.036251 189.303176 
L 41.445491 189.085102 
L 41.85473 188.879888 
L 42.26397 188.988592 
L 42.673209 189.143502 
L 42.877829 189.076807 
L 43.287068 188.610377 
L 44.514787 186.960733 
L 44.924026 186.988517 
L 45.333266 187.255129 
L 45.947125 187.710032 
L 46.356364 187.675252 
L 46.970223 187.269388 
L 47.379463 187.142927 
L 47.788702 187.410306 
L 48.811801 188.599484 
L 49.22104 188.539852 
L 50.244139 188.245589 
L 50.653379 187.413271 
L 51.267238 186.124784 
L 51.471857 185.998724 
L 51.676477 186.084008 
L 52.085717 186.704615 
L 52.494956 187.328753 
L 52.699576 187.439489 
L 53.313435 187.314661 
L 53.722674 187.071935 
L 54.745773 186.085906 
L 55.155013 185.895883 
L 55.768872 185.846745 
L 56.587351 185.973671 
L 56.99659 185.725748 
L 57.40583 185.146151 
L 58.019689 183.590652 
L 58.428928 182.508646 
L 58.633548 182.191663 
L 58.838168 182.10328 
L 59.247407 182.38525 
L 59.861266 182.784652 
L 60.679745 182.891824 
L 61.088985 183.605743 
L 61.498224 184.430399 
L 61.702844 184.579246 
L 62.112083 184.344682 
L 62.316703 184.209927 
L 62.521323 184.251969 
L 62.725942 184.544333 
L 63.135182 185.785747 
L 63.749041 188.083716 
L 64.158281 188.785009 
L 64.3629 188.88192 
L 64.77214 188.724311 
L 65.590619 188.378712 
L 65.999858 188.117729 
L 66.204478 187.784856 
L 66.613717 186.414416 
L 69.069154 173.809152 
L 70.501492 163.008343 
L 70.706112 162.359985 
L 70.910732 162.207207 
L 71.115351 162.581024 
L 71.524591 164.616711 
L 73.161549 175.629431 
L 73.775408 178.030007 
L 74.389267 179.435259 
L 75.003126 180.265012 
L 77.049323 182.380153 
L 77.458563 182.937031 
L 78.072422 183.962237 
L 78.686281 184.855253 
L 80.118619 187.933469 
L 80.527859 188.216739 
L 81.550957 188.561106 
L 81.960197 188.337036 
L 82.778676 187.541263 
L 83.187915 187.072668 
L 83.392535 186.992415 
L 83.801774 187.244835 
L 84.211014 187.526638 
L 84.620253 187.413304 
L 85.234112 186.983087 
L 85.643352 187.217318 
L 86.461831 187.912582 
L 86.66645 187.867708 
L 87.07569 187.370662 
L 87.484929 186.878947 
L 87.894169 186.686658 
L 88.917267 186.59781 
L 89.940366 186.846899 
L 90.758845 186.431706 
L 91.168084 187.057011 
L 91.781944 188.050568 
L 92.395803 188.847273 
L 92.805042 189.471712 
L 93.009662 189.611797 
L 93.418901 189.527279 
L 93.828141 189.155628 
L 94.23738 188.517131 
L 94.64662 187.354405 
L 95.055859 186.045663 
L 95.260479 185.650525 
L 95.465099 185.526697 
L 95.669718 185.661686 
L 96.488197 186.746124 
L 96.897437 186.769677 
L 97.920535 186.627459 
L 98.329775 186.888208 
L 98.534395 186.876648 
L 98.943634 186.402989 
L 99.557493 185.587862 
L 99.966733 185.281639 
L 100.171352 185.293199 
L 100.580592 185.763793 
L 100.989831 186.332297 
L 101.194451 186.374206 
L 101.603691 185.856439 
L 102.01293 185.372353 
L 102.422169 185.496781 
L 103.240648 186.014481 
L 103.854508 186.875116 
L 104.672986 187.28751 
L 105.286846 188.211842 
L 105.696085 188.21404 
L 106.105325 188.19765 
L 106.719184 188.308619 
L 107.333043 188.215439 
L 107.946902 188.416923 
L 108.356142 188.203879 
L 109.78848 186.871351 
L 109.993099 186.860691 
L 110.402339 187.302635 
L 110.606959 187.51308 
L 110.811578 187.478899 
L 111.016198 187.078498 
L 112.039297 183.569065 
L 112.243916 183.549076 
L 112.653156 184.230281 
L 113.267015 185.965376 
L 113.880874 187.620684 
L 114.085494 187.788853 
L 114.699353 187.785988 
L 114.903973 187.935968 
L 115.313212 188.64076 
L 115.927071 190.101513 
L 116.131691 190.352601 
L 116.336311 190.396376 
L 116.74555 190.047511 
L 117.768649 188.682369 
L 118.177888 188.392603 
L 118.791748 188.317813 
L 119.200987 188.459531 
L 119.814846 188.733573 
L 120.224086 188.516665 
L 120.633325 188.313616 
L 121.042565 188.455234 
L 121.451804 188.699392 
L 122.270283 189.583547 
L 123.293382 189.546702 
L 123.907241 189.104324 
L 124.5211 188.454534 
L 125.339579 187.525572 
L 125.953438 187.130568 
L 126.567297 187.228611 
L 126.976537 187.381822 
L 127.590396 188.181059 
L 127.999635 188.611743 
L 128.613494 188.794337 
L 129.431973 188.984694 
L 129.636593 188.775382 
L 130.045833 187.747944 
L 130.659692 185.907943 
L 131.068931 185.570039 
L 131.478171 185.311022 
L 131.88741 185.022689 
L 132.09203 185.039513 
L 132.501269 185.430886 
L 133.319748 186.793796 
L 133.728988 187.555888 
L 133.933607 187.763135 
L 134.138227 187.738549 
L 134.342847 187.44342 
L 134.956706 185.942856 
L 135.161326 185.769656 
L 135.365945 185.852775 
L 135.979805 186.572191 
L 136.593664 186.912961 
L 137.002903 187.183471 
L 137.412143 186.990716 
L 139.45834 185.715255 
L 139.867579 186.065818 
L 141.299918 187.470771 
L 141.504537 187.627114 
L 141.709157 187.603128 
L 142.118396 186.997012 
L 142.936875 185.389643 
L 143.141495 185.216843 
L 143.346115 185.241496 
L 144.369213 185.915205 
L 144.778453 186.067584 
L 145.801552 185.778251 
L 146.210791 185.875662 
L 147.02927 185.665217 
L 147.438509 186.075946 
L 148.256988 187.459144 
L 148.666228 188.178561 
L 148.870847 188.350794 
L 149.484707 188.310884 
L 150.917045 188.038409 
L 151.530904 187.663159 
L 153.167862 187.479266 
L 153.577101 187.27172 
L 154.19096 186.863789 
L 154.6002 186.902367 
L 155.009439 186.981854 
L 155.827918 186.875949 
L 156.237158 186.888575 
L 156.646397 186.561797 
L 157.669496 185.247825 
L 158.283355 185.21681 
L 158.487975 185.309856 
L 158.897214 186.002988 
L 159.306454 186.946974 
L 159.511073 187.172144 
L 159.715693 187.181072 
L 160.738792 186.482543 
L 161.55727 185.680741 
L 161.76189 185.765159 
L 162.580369 186.599176 
L 162.989609 186.501932 
L 163.398848 186.43677 
L 163.808087 186.512526 
L 164.217327 186.010617 
L 164.831186 185.224172 
L 165.854285 184.509386 
L 166.877383 184.198467 
L 167.286623 184.150794 
L 167.900482 184.368002 
L 168.105102 184.225318 
L 168.923581 183.079282 
L 169.74206 183.424582 
L 169.946679 183.474886 
L 170.151299 183.713781 
L 170.560538 184.682886 
L 171.379017 187.004474 
L 171.583637 187.21825 
L 172.402116 187.160251 
L 173.220595 187.641738 
L 173.834454 187.819336 
L 174.448313 187.92171 
L 175.062172 187.964685 
L 175.471412 187.497589 
L 176.085271 186.455259 
L 176.289891 186.413483 
L 176.69913 186.826744 
L 177.312989 187.673653 
L 177.722229 187.929772 
L 177.926849 187.893892 
L 178.745328 187.371728 
L 179.154567 187.421033 
L 179.563806 187.240937 
L 179.973046 187.035956 
L 180.177666 187.199361 
L 180.791525 188.176695 
L 180.996145 188.145647 
L 181.610004 187.618985 
L 181.814623 187.758904 
L 182.428483 188.522928 
L 182.633102 188.500274 
L 183.042342 187.855648 
L 184.06544 185.755764 
L 185.088539 183.675936 
L 185.293159 183.708051 
L 185.702398 184.510319 
L 186.111638 185.304259 
L 186.930117 186.000289 
L 187.339356 186.722604 
L 187.543976 186.892039 
L 187.748596 186.858392 
L 188.157835 186.352252 
L 188.771694 185.472995 
L 189.180934 185.461035 
L 189.794793 185.516237 
L 190.408652 185.661686 
L 191.431751 186.112191 
L 191.84099 185.884523 
L 192.25023 185.549884 
L 192.454849 185.601354 
L 192.864089 186.227325 
L 193.273328 186.795495 
L 193.682568 186.861724 
L 194.091807 186.630391 
L 194.501047 186.188047 
L 194.705666 186.134412 
L 195.114906 186.37987 
L 195.728765 186.935614 
L 195.933385 186.974925 
L 196.342624 186.679929 
L 196.956483 185.722384 
L 197.365723 185.148949 
L 197.979582 184.69388 
L 198.388821 184.574615 
L 198.593441 184.701942 
L 199.41192 185.89002 
L 199.61654 185.785947 
L 200.230399 185.001735 
L 200.639638 184.988276 
L 201.048878 185.023322 
L 201.458117 184.58321 
L 202.071976 183.391168 
L 203.299695 180.168035 
L 203.504314 179.925908 
L 203.708934 179.905154 
L 203.913554 180.142583 
L 204.322793 181.275293 
L 204.936653 183.263675 
L 205.345892 183.976062 
L 205.550512 184.128874 
L 205.755131 184.125709 
L 206.164371 183.756756 
L 206.77823 183.103434 
L 207.801329 182.719157 
L 208.415188 182.699535 
L 208.824427 182.958951 
L 209.438287 183.758955 
L 209.847526 183.803729 
L 210.461385 183.437874 
L 211.075244 183.104867 
L 211.484484 182.309294 
L 211.893723 181.335159 
L 212.302963 180.963108 
L 212.916822 180.510137 
L 213.530681 179.754608 
L 214.55378 179.256396 
L 215.167639 178.17942 
L 215.781498 176.691815 
L 218.441555 167.921996 
L 218.646174 167.646989 
L 218.850794 167.610343 
L 219.464653 167.945649 
L 220.283132 167.622436 
L 220.487752 167.739368 
L 221.51085 169.203254 
L 222.329329 169.377553 
L 222.738569 169.829891 
L 223.352428 170.52149 
L 223.557048 170.523622 
L 223.761667 170.292323 
L 224.170907 169.116737 
L 224.989386 166.36753 
L 225.603245 165.140641 
L 226.012484 163.184107 
L 226.421724 159.406096 
L 227.240203 148.757565 
L 227.854062 138.879854 
L 228.467921 124.997763 
L 229.08178 103.068301 
L 229.900259 60.048657 
L 230.514118 28.295053 
L 230.923358 16.908549 
L 231.127978 15.369874 
L 231.332597 16.520041 
L 231.537217 20.082311 
L 231.946457 32.873767 
L 233.788034 102.035266 
L 234.811133 134.597802 
L 235.424992 148.632238 
L 236.038851 158.209223 
L 236.85733 167.39167 
L 237.471189 171.597633 
L 238.085048 174.131465 
L 238.494288 175.123524 
L 238.698907 175.330404 
L 239.108147 175.308583 
L 239.517386 175.218136 
L 239.926626 175.522426 
L 240.335865 175.929857 
L 240.745105 176.093562 
L 240.949724 176.037161 
L 241.768203 175.434444 
L 242.177443 175.494009 
L 242.586682 175.187087 
L 243.200541 174.527003 
L 243.814401 174.270551 
L 244.22364 173.604204 
L 244.63288 172.191189 
L 245.246739 168.721966 
L 246.065218 162.179323 
L 246.679077 155.423603 
L 247.292936 146.042272 
L 247.906795 133.111196 
L 248.520654 114.713055 
L 249.134514 89.223155 
L 250.771471 11.244897 
L 250.976091 7.969961 
L 251.180711 7.345822 
L 251.385331 9.242024 
L 251.79457 19.291802 
L 252.613049 52.450026 
L 253.840767 100.17088 
L 254.659246 127.487521 
L 255.273105 142.026531 
L 255.886965 152.618862 
L 256.705443 162.144743 
L 257.523922 169.26092 
L 258.751641 176.823706 
L 259.3655 179.606593 
L 259.774739 180.555444 
L 261.820937 183.987655 
L 262.025556 184.108485 
L 262.230176 184.030331 
L 262.844035 183.107465 
L 263.253275 182.637871 
L 263.662514 182.622613 
L 263.867134 182.663756 
L 264.071754 182.575074 
L 264.890233 181.495433 
L 265.299472 181.747686 
L 265.708711 181.94294 
L 266.322571 181.85106 
L 266.73181 181.480808 
L 267.14105 181.075009 
L 267.345669 181.069313 
L 268.164148 181.519052 
L 268.573388 181.320834 
L 268.778007 181.15453 
L 268.982627 181.152398 
L 269.801106 181.968625 
L 270.210345 181.647111 
L 270.619585 181.038997 
L 271.438064 179.281049 
L 272.051923 177.884924 
L 272.256543 177.708726 
L 272.870402 177.895918 
L 273.075022 177.728382 
L 273.688881 176.655636 
L 274.30274 175.265908 
L 274.916599 173.23222 
L 275.530458 169.846948 
L 276.962796 160.454755 
L 277.781275 151.796471 
L 278.804374 141.502602 
L 279.418233 137.220616 
L 280.441332 132.457875 
L 280.850571 130.299758 
L 281.46443 124.886628 
L 282.07829 120.098502 
L 282.487529 118.395755 
L 283.306008 115.941343 
L 283.715247 114.030217 
L 284.942966 106.944222 
L 285.352205 105.819607 
L 285.761445 105.411577 
L 286.579924 105.547998 
L 286.784543 105.339152 
L 287.193783 104.303752 
L 287.603022 102.249742 
L 288.830741 94.193942 
L 289.4446 92.159554 
L 289.649219 91.956572 
L 289.853839 92.166983 
L 290.058459 92.775797 
L 290.467698 95.019797 
L 291.081558 100.258262 
L 293.127755 121.733121 
L 294.150853 132.510045 
L 294.764713 137.124804 
L 295.787811 142.227815 
L 296.40167 145.289508 
L 297.629389 153.080361 
L 298.447868 156.701463 
L 299.266347 160.189476 
L 300.084826 164.41193 
L 300.698685 166.155419 
L 301.721783 168.822841 
L 302.335643 171.308801 
L 302.949502 173.706911 
L 303.563361 175.156105 
L 304.791079 177.243596 
L 305.200319 177.725883 
L 306.018798 179.170746 
L 306.223417 179.139198 
L 307.041896 178.100266 
L 307.451136 178.446466 
L 307.860375 178.733299 
L 308.064995 178.624129 
L 308.474234 177.93886 
L 311.338911 170.447899 
L 312.157389 167.567635 
L 313.385108 161.431789 
L 314.203587 160.198837 
L 314.612826 159.817458 
L 315.022066 159.136686 
L 316.249784 156.497615 
L 316.863643 154.352157 
L 317.477502 151.158674 
L 318.295981 145.495888 
L 318.90984 139.727863 
L 319.5237 131.89117 
L 320.342178 120.929553 
L 320.956038 115.506229 
L 322.592995 104.14511 
L 323.206855 96.854834 
L 323.820714 86.44753 
L 324.434573 71.069539 
L 326.68539 8.908051 
L 327.094629 4.201977 
L 327.299249 3.219313 
L 327.503869 3.00024 
L 327.708489 3.346873 
L 328.117728 5.084932 
L 329.754686 14.025186 
L 330.777785 19.718954 
L 332.005503 28.340993 
L 332.210123 28.828877 
L 332.414742 28.767646 
L 332.619362 28.117322 
L 333.028602 25.246719 
L 333.84708 18.382462 
L 334.25632 16.929337 
L 334.46094 17.055631 
L 334.665559 17.831514 
L 335.074799 21.186937 
L 336.097897 33.890977 
L 337.325616 47.997638 
L 338.144095 56.515237 
L 338.553334 59.02535 
L 338.962574 60.556962 
L 339.371813 61.2977 
L 339.576433 61.381252 
L 339.781053 61.270349 
L 340.804151 59.930026 
L 341.62263 60.007847 
L 341.82725 60.035864 
L 342.03187 60.207365 
L 342.441109 61.153017 
L 342.850348 62.090108 
L 343.259588 62.308248 
L 343.668827 62.435841 
L 343.873447 62.607574 
L 344.078067 62.951109 
L 344.487306 64.435949 
L 345.101165 68.267196 
L 346.328884 77.445478 
L 346.533504 77.783816 
L 346.738123 77.604053 
L 346.942743 76.923881 
L 347.351982 74.27758 
L 348.375081 64.416327 
L 349.19356 56.962811 
L 349.807419 52.883641 
L 350.216659 51.365321 
L 350.421278 50.957557 
L 350.625898 50.838926 
L 350.830518 51.126826 
L 351.035138 51.888118 
L 351.444377 54.720577 
L 352.058236 61.081325 
L 353.081335 73.921453 
L 354.309053 90.407669 
L 355.741391 105.540336 
L 356.35525 109.375347 
L 356.76449 110.851092 
L 357.173729 111.506479 
L 357.378349 111.318455 
L 357.582969 110.678192 
L 357.992208 108.137897 
L 358.606067 102.334493 
L 359.424546 92.926776 
L 360.038405 82.867504 
L 362.084603 44.232686 
L 362.493842 40.994662 
L 362.903082 39.520416 
L 363.107701 39.570087 
L 363.312321 40.213548 
L 363.721561 43.326045 
L 364.33542 51.58496 
L 365.153899 66.070935 
L 368.427814 132.407804 
L 369.450913 148.539558 
L 370.064772 155.321996 
L 370.678631 159.944851 
L 371.29249 162.901738 
L 371.90635 165.610402 
L 374.157167 177.956916 
L 374.566406 178.879415 
L 374.975646 179.316528 
L 375.384885 179.383956 
L 376.407984 178.820482 
L 377.431082 178.886544 
L 377.840322 179.50372 
L 378.658801 181.433602 
L 378.86342 181.697082 
L 379.06804 181.777569 
L 379.27266 181.653008 
L 379.681899 180.986694 
L 380.909618 178.322704 
L 381.318857 178.507897 
L 381.932716 178.828478 
L 382.341956 178.812187 
L 382.751195 178.378905 
L 383.160435 177.438749 
L 384.388153 173.109457 
L 386.229731 165.659074 
L 387.048209 163.429232 
L 387.457449 161.438186 
L 388.275928 156.476493 
L 388.685167 155.420405 
L 388.889787 155.189272 
L 389.094407 155.194736 
L 389.299026 155.488799 
L 389.912886 157.46079 
L 390.526745 159.714951 
L 391.959083 165.538977 
L 393.186801 169.767593 
L 393.391421 169.758998 
L 393.80066 169.207551 
L 394.2099 168.532576 
L 394.823759 168.081604 
L 395.232998 167.035876 
L 395.846858 164.297063 
L 396.256097 161.423861 
L 397.688435 149.677699 
L 398.097675 148.278976 
L 398.711534 146.94888 
L 399.120773 145.019564 
L 399.939252 140.676847 
L 400.348492 139.658437 
L 400.553111 139.742688 
L 400.757731 140.311158 
L 401.166971 142.984143 
L 403.213168 161.135228 
L 405.054745 173.694319 
L 405.873224 177.626008 
L 406.487083 180.541285 
L 407.100943 182.159448 
L 407.510182 182.860575 
L 409.14714 184.357874 
L 409.760999 185.504743 
L 410.170239 186.031072 
L 410.579478 186.01718 
L 410.988717 185.604152 
L 412.011816 183.737267 
L 412.625675 184.214657 
L 412.830295 184.120645 
L 413.239534 183.465425 
L 414.467253 181.196706 
L 414.671873 180.963507 
L 414.876492 180.966572 
L 415.081112 181.218626 
L 415.490351 182.200857 
L 416.104211 183.811924 
L 416.51345 184.260331 
L 416.92269 184.369734 
L 417.945788 183.781008 
L 418.355028 183.107932 
L 418.968887 181.810417 
L 419.787366 180.609712 
L 419.991985 180.476756 
L 420.196605 180.506206 
L 420.605845 181.04456 
L 421.015084 181.774704 
L 421.219704 181.907894 
L 421.424324 181.822876 
L 421.833563 181.2063 
L 422.242802 180.1135 
L 423.061281 176.870712 
L 424.08438 172.300493 
L 424.698239 167.706854 
L 425.721338 158.848553 
L 426.335197 155.424036 
L 427.972155 149.41142 
L 428.586014 144.210666 
L 429.199873 139.110421 
L 429.609113 137.312096 
L 429.813732 137.101218 
L 430.018352 137.383355 
L 430.222972 138.167833 
L 430.632211 141.042035 
L 431.65531 149.073615 
L 432.883028 156.480991 
L 433.701507 162.132683 
L 434.315366 165.135544 
L 434.724606 166.418367 
L 435.133845 167.139916 
L 435.338465 167.256182 
L 435.543085 167.181325 
L 436.361564 166.187734 
L 436.770803 165.628625 
L 437.180042 164.547018 
L 438.203141 161.02186 
L 439.22624 159.009093 
L 439.635479 158.024064 
L 440.453958 156.912374 
L 440.863198 156.70746 
L 441.067817 156.832254 
L 441.272437 157.200674 
L 441.681676 158.780692 
L 442.295536 162.623399 
L 443.727874 172.961976 
L 444.546353 176.327027 
L 445.569451 180.125493 
L 446.38793 183.503136 
L 448.024888 187.279282 
L 448.434127 187.543928 
L 448.843367 187.550425 
L 449.252606 187.895058 
L 449.661846 188.572333 
L 450.275705 189.734759 
L 450.684944 189.990211 
L 450.889564 189.822209 
L 451.298804 188.806397 
L 451.708043 187.81254 
L 451.912663 187.606859 
L 452.321902 187.632577 
L 452.731142 188.031846 
L 453.140381 188.455201 
L 453.345001 188.446972 
L 453.75424 187.930938 
L 454.16348 187.323456 
L 454.572719 187.084461 
L 454.981959 187.364599 
L 455.800438 188.181193 
L 456.209677 188.200082 
L 456.618917 187.938133 
L 457.028156 187.290775 
L 457.437395 186.572458 
L 457.642015 186.486841 
L 457.846635 186.656676 
L 458.460494 187.68005 
L 458.869734 187.861278 
L 459.278973 188.029247 
L 459.688212 188.388406 
L 460.097452 189.029734 
L 460.711311 189.982382 
L 461.120551 190.094318 
L 461.73441 190.018228 
L 462.143649 190.060737 
L 462.348269 189.88234 
L 462.757508 189.084036 
L 463.166748 188.255583 
L 463.371368 188.136685 
L 464.189846 188.475822 
L 465.417565 187.914314 
L 466.031424 187.280681 
L 466.645283 186.624295 
L 467.054523 186.456892 
L 467.463762 186.752687 
L 468.077621 187.58124 
L 468.69148 188.725777 
L 468.8961 188.827352 
L 469.10072 188.656384 
L 469.509959 188.021985 
L 469.714579 187.905786 
L 470.123818 188.190887 
L 470.328438 188.331772 
L 470.737678 188.20831 
L 471.146917 188.141815 
L 471.556157 188.498076 
L 471.965396 188.84784 
L 472.170016 188.694562 
L 472.579255 187.690077 
L 472.988495 186.729467 
L 473.193114 186.616866 
L 473.806974 187.085427 
L 474.625452 187.504984 
L 475.034692 187.703236 
L 475.853171 188.228565 
L 476.67165 187.933336 
L 477.694748 188.641393 
L 477.899368 188.579562 
L 478.513227 188.039142 
L 479.331706 188.067392 
L 479.740946 188.37065 
L 480.354805 188.946316 
L 480.559425 188.989225 
L 480.968664 188.720414 
L 481.377903 188.309718 
L 481.991763 187.902821 
L 482.401002 187.544895 
L 482.810242 187.670822 
L 483.014861 187.756838 
L 483.219481 187.684147 
L 484.03796 186.870485 
L 484.856439 186.820081 
L 485.265678 186.892539 
L 486.084157 187.399679 
L 486.698016 187.427596 
L 487.107256 187.118308 
L 487.721115 186.688324 
L 488.334974 186.502932 
L 488.948833 186.533914 
L 489.358073 186.12032 
L 489.971932 185.274377 
L 490.381171 185.03305 
L 490.790411 185.251423 
L 491.40427 185.901946 
L 491.60889 185.957781 
L 492.018129 185.722184 
L 492.427369 185.462568 
L 493.041228 185.492417 
L 493.245848 185.302893 
L 493.655087 184.392154 
L 494.064327 183.493608 
L 494.268946 183.315045 
L 494.473566 183.360286 
L 495.087425 184.061046 
L 495.905904 185.144552 
L 496.315144 185.158144 
L 497.133622 184.872243 
L 497.542862 184.245706 
L 498.361341 182.396111 
L 498.9752 182.215948 
L 500.612158 180.661149 
L 501.021397 179.385955 
L 501.635256 177.283573 
L 502.249116 176.291247 
L 503.476834 174.782388 
L 504.295313 172.890351 
L 504.704552 171.267458 
L 505.113792 168.76081 
L 505.932271 161.708629 
L 506.75075 152.433469 
L 507.569228 139.705243 
L 508.387707 122.893882 
L 509.410806 95.114342 
L 510.229285 73.42051 
L 510.638524 66.027327 
L 511.047764 62.371311 
L 511.252384 61.820963 
L 511.457003 61.982437 
L 511.661623 62.826847 
L 512.070862 66.594765 
L 512.889341 79.118876 
L 513.91244 97.213759 
L 514.935539 114.901213 
L 515.754018 125.683333 
L 516.367877 131.18851 
L 516.777116 133.334767 
L 516.981736 133.785672 
L 517.186356 133.743563 
L 517.390975 133.220166 
L 517.800215 130.943319 
L 518.618694 123.757948 
L 519.232553 116.923341 
L 520.255652 101.169235 
L 521.68799 78.117289 
L 522.097229 75.490344 
L 522.301849 75.425415 
L 522.506469 76.208961 
L 522.915708 80.093578 
L 523.529567 89.828671 
L 524.552666 112.623699 
L 525.575764 133.862361 
L 526.394243 146.513865 
L 527.826581 163.861715 
L 528.64506 171.033927 
L 529.668159 177.808402 
L 530.077398 179.84309 
L 530.486638 180.916834 
L 531.714356 183.412056 
L 532.328215 184.784727 
L 532.737455 185.175234 
L 532.942075 185.201286 
L 533.146694 185.091316 
L 533.965173 184.137302 
L 534.169793 184.335487 
L 534.783652 185.315986 
L 535.192892 185.455305 
L 535.602131 185.576768 
L 536.011371 185.996592 
L 537.443709 187.844288 
L 538.262188 187.96725 
L 540.717624 190.107443 
L 541.126864 190.323385 
L 541.331483 190.274813 
L 541.740723 189.752982 
L 542.149962 189.269062 
L 542.559202 189.290317 
L 542.968441 189.382563 
L 543.377681 189.116251 
L 544.19616 188.460631 
L 544.810019 188.066792 
L 545.219258 187.872805 
L 546.037737 187.11531 
L 546.651596 186.87888 
L 547.060836 186.997945 
L 548.902413 187.92764 
L 549.516272 187.543362 
L 550.334751 186.685859 
L 550.948611 186.069882 
L 551.15323 186.092969 
L 551.56247 186.584451 
L 551.971709 186.968429 
L 552.176329 186.915226 
L 552.585568 186.350453 
L 553.199428 185.384646 
L 553.404047 185.316286 
L 553.608667 185.486787 
L 554.631766 187.28881 
L 555.245625 187.391683 
L 556.473343 188.925328 
L 557.087202 189.976286 
L 557.496442 190.12973 
L 557.905681 190.155682 
L 558.314921 190.53906 
L 558.72416 191.020381 
L 559.1334 191.091307 
L 559.542639 190.926402 
L 560.565738 189.974254 
L 561.179597 189.632385 
L 561.588836 189.159526 
L 562.611935 186.938646 
L 563.430414 186.836105 
L 563.635034 186.903466 
L 564.044273 187.569181 
L 564.658132 188.916267 
L 564.862752 189.091265 
L 565.067372 189.031966 
L 566.09047 187.85818 
L 567.113569 187.479366 
L 567.522808 187.789986 
L 567.932048 188.61784 
L 568.545907 189.924749 
L 568.955147 190.32665 
L 569.159766 190.342574 
L 569.364386 190.151385 
L 569.978245 189.241512 
L 570.796724 188.982495 
L 571.205964 188.963806 
L 571.615203 189.012811 
L 572.638302 188.325776 
L 573.047541 188.073222 
L 573.456781 188.133454 
L 573.86602 188.335203 
L 574.684499 189.000918 
L 574.889119 188.81829 
L 575.502978 187.54686 
L 576.526076 184.985744 
L 576.730696 184.904624 
L 576.935316 185.07819 
L 577.549175 186.258073 
L 578.163034 187.862444 
L 578.776893 189.423739 
L 578.981513 189.644645 
L 579.186133 189.671696 
L 579.390753 189.478441 
L 580.209232 187.798248 
L 580.413851 187.875936 
L 580.823091 188.73264 
L 581.23233 189.712139 
L 581.64157 190.22804 
L 582.050809 190.514208 
L 582.255429 190.491321 
L 582.664668 190.037317 
L 583.278527 189.021006 
L 583.687767 188.368451 
L 584.301626 187.679117 
L 584.710865 187.235407 
L 584.915485 187.325388 
L 585.733964 188.448305 
L 585.938584 188.355891 
L 586.757063 187.622216 
L 587.780161 186.924021 
L 588.394021 187.097687 
L 588.80326 186.885077 
L 589.417119 186.497268 
L 590.030978 186.042165 
L 590.644838 185.669548 
L 591.258697 185.795775 
L 591.872556 185.99336 
L 592.281795 186.333496 
L 592.691035 186.946674 
L 593.100274 187.635442 
L 593.509514 187.878435 
L 593.918753 187.778992 
L 594.327993 187.631977 
L 595.760331 187.702437 
L 596.37419 187.325055 
L 596.57881 187.534667 
L 597.397289 189.055719 
L 597.601908 189.043793 
L 598.420387 188.468326 
L 600.261965 188.723212 
L 600.875824 188.274539 
L 601.285063 188.224268 
L 602.308162 188.56497 
L 602.717401 189.099727 
L 603.126641 189.748251 
L 603.53588 189.972855 
L 604.14974 190.267451 
L 605.172838 190.797544 
L 605.377458 190.738611 
L 605.786697 190.17607 
L 606.400557 189.107589 
L 606.605176 189.04356 
L 607.628275 189.446526 
L 607.832895 189.46858 
L 608.446754 189.91229 
L 608.651374 189.808517 
L 609.674472 188.404763 
L 611.925289 187.824033 
L 612.129909 187.954924 
L 612.539148 188.769485 
L 612.948388 189.657138 
L 613.153008 189.754148 
L 613.562247 189.448125 
L 613.971486 189.095097 
L 614.176106 189.111154 
L 614.789965 189.590243 
L 614.994585 189.500761 
L 615.403825 188.894846 
L 616.426923 186.827977 
L 616.631543 186.842568 
L 617.450022 187.619118 
L 618.268501 187.745678 
L 619.291599 188.136185 
L 619.905459 188.638861 
L 620.314698 188.82945 
L 620.928557 189.231251 
L 621.747036 189.115951 
L 622.156276 189.441029 
L 622.974754 190.224409 
L 623.179374 190.324551 
L 623.383994 190.259522 
L 623.793233 189.53221 
L 624.611712 187.654498 
L 625.020952 187.252564 
L 625.430191 187.267689 
L 626.45329 188.087247 
L 626.862529 188.109534 
L 627.271769 188.349595 
L 628.090248 189.086801 
L 628.704107 188.990357 
L 629.317966 188.546981 
L 629.727205 187.991969 
L 630.136445 187.405875 
L 630.545684 187.256728 
L 631.159543 187.338281 
L 631.568783 187.848819 
L 632.387262 189.252572 
L 632.796501 189.454721 
L 633.205741 189.419242 
L 633.41036 189.500761 
L 634.228839 190.341808 
L 634.638079 189.976453 
L 635.251938 189.137139 
L 636.275037 187.229777 
L 636.684276 186.712144 
L 637.298135 185.711956 
L 637.502755 185.63107 
L 637.707375 185.696332 
L 638.116614 186.2121 
L 639.139713 188.190387 
L 639.958192 189.756713 
L 640.162811 189.87228 
L 640.572051 189.706109 
L 641.59515 188.696827 
L 642.004389 188.967304 
L 642.618248 189.527279 
L 643.641347 189.760977 
L 644.459826 190.282142 
L 644.869065 190.172539 
L 645.278305 189.660369 
L 645.892164 188.474556 
L 646.301403 188.136685 
L 646.506023 188.134353 
L 647.119882 188.480952 
L 647.529122 188.206345 
L 648.347601 187.483497 
L 648.75684 187.430761 
L 649.166079 187.653165 
L 649.779939 188.24982 
L 650.189178 189.101793 
L 650.598418 190.150552 
L 650.803037 190.390046 
L 651.007657 190.346438 
L 651.416896 189.991944 
L 652.235375 189.905494 
L 653.258474 188.193652 
L 653.667713 188.233096 
L 654.076953 188.260214 
L 654.486192 188.050868 
L 654.690812 188.070423 
L 655.304671 188.450803 
L 655.713911 188.085715 
L 656.53239 187.101685 
L 656.737009 186.9607 
L 656.941629 187.009238 
L 657.350869 187.715396 
L 657.964728 188.892514 
L 658.169347 189.015976 
L 658.578587 188.84804 
L 658.987826 188.717349 
L 659.397066 188.811527 
L 660.010925 189.046125 
L 660.420164 189.016908 
L 660.829404 188.770818 
L 661.443263 188.341566 
L 661.852502 188.333105 
L 662.261742 188.581627 
L 662.670981 189.072643 
L 663.284841 189.800321 
L 663.8987 190.041548 
L 664.512559 190.613983 
L 664.717179 190.664321 
L 665.126418 190.388947 
L 665.740277 190.0666 
L 666.558756 189.769906 
L 666.967996 189.587045 
L 668.400334 188.2836 
L 668.809573 188.077453 
L 669.218813 188.121327 
L 670.241911 188.578096 
L 670.651151 188.314749 
L 671.26501 187.255562 
L 671.674249 186.524219 
L 671.878869 186.327533 
L 672.083489 186.345623 
L 672.492728 186.977024 
L 673.106587 188.380011 
L 673.311207 188.578396 
L 673.515827 188.546781 
L 674.129686 187.800013 
L 674.538926 187.393449 
L 674.743545 187.384954 
L 675.562024 187.735851 
L 675.971264 187.777093 
L 676.380503 188.09874 
L 676.994362 188.661348 
L 677.198982 188.65112 
L 677.608221 188.25475 
L 678.222081 187.433659 
L 678.63132 187.521775 
L 679.245179 187.732119 
L 679.654419 187.525206 
L 680.063658 187.063407 
L 681.086757 185.464466 
L 681.700616 185.773954 
L 682.109855 185.548385 
L 682.723715 185.078224 
L 683.132954 185.142786 
L 684.769912 185.904278 
L 685.179151 186.024842 
L 685.99763 186.655743 
L 687.225349 186.674199 
L 687.429968 186.405688 
L 687.839208 185.358661 
L 688.453067 183.670639 
L 689.066926 182.775724 
L 689.476166 182.055008 
L 689.885405 180.647557 
L 690.908504 175.919263 
L 691.113123 175.696725 
L 691.317743 175.742299 
L 691.726983 176.26956 
L 692.340842 177.89302 
L 693.36394 180.130823 
L 693.9778 181.014245 
L 694.387039 181.675995 
L 695.000898 182.743609 
L 695.205518 182.730184 
L 695.614757 182.392679 
L 695.819377 182.4155 
L 696.228617 183.015052 
L 696.637856 183.530087 
L 696.842476 183.566733 
L 697.047096 183.446802 
L 697.456335 182.700967 
L 699.093293 177.938726 
L 699.707152 175.504103 
L 700.116391 174.603259 
L 700.525631 174.081827 
L 700.730251 173.941142 
L 700.93487 173.986882 
L 701.13949 174.27798 
L 701.753349 176.107454 
L 703.594927 181.673929 
L 704.413406 183.227263 
L 705.845744 184.706905 
L 706.254983 184.657567 
L 707.482702 184.048387 
L 708.30118 183.978327 
L 708.91504 183.229928 
L 709.119659 183.182988 
L 709.324279 183.295723 
L 710.756617 184.879639 
L 711.165857 185.198887 
L 711.779716 185.859837 
L 712.393575 186.276962 
L 713.212054 187.180272 
L 714.030533 187.913448 
L 714.439772 187.929572 
L 715.258251 187.712198 
L 715.462871 187.805677 
L 715.667491 188.073921 
L 716.48597 189.793892 
L 718.532167 191.957538 
L 718.736787 191.97173 
L 718.941406 191.584854 
L 719.964505 188.314449 
L 720.782984 187.643138 
L 720.987604 187.664525 
L 721.396843 188.225767 
L 721.806082 188.670742 
L 722.215322 188.552078 
L 722.829181 188.058297 
L 723.44304 187.113378 
L 723.85228 186.392562 
L 724.261519 186.095068 
L 724.670759 186.219196 
L 725.079998 186.779538 
L 726.307716 188.951846 
L 726.716956 189.226587 
L 727.535435 189.378899 
L 729.172393 188.967837 
L 729.581632 188.274605 
L 730.195491 186.60917 
L 730.400111 186.364645 
L 730.80935 186.341492 
L 731.21859 186.478279 
L 732.241689 187.589502 
L 732.650928 187.37426 
L 733.060167 186.692455 
L 733.878646 184.952863 
L 734.083266 184.91152 
L 734.492506 185.391442 
L 734.901745 185.800005 
L 736.538703 185.967209 
L 736.947942 186.019545 
L 737.766421 185.408033 
L 738.175661 185.664084 
L 738.78952 186.250311 
L 738.994139 186.256075 
L 740.017238 185.733944 
L 740.426478 185.106974 
L 741.244956 183.740998 
L 741.654196 183.339031 
L 742.063435 183.165765 
L 742.268055 183.170695 
L 742.677295 183.544845 
L 743.086534 183.969299 
L 743.291154 183.915431 
L 744.723492 182.206987 
L 745.132731 182.097617 
L 746.36045 182.071499 
L 746.769689 181.646278 
L 747.383548 180.727577 
L 749.838985 178.889042 
L 750.452844 178.114258 
L 750.862084 178.053093 
L 751.271323 178.144807 
L 751.680563 177.793577 
L 752.089802 177.394608 
L 752.499041 177.330612 
L 752.908281 177.504911 
L 753.31752 178.062755 
L 753.93138 178.951007 
L 754.340619 179.493592 
L 755.772957 182.094652 
L 756.182197 182.038218 
L 757.000675 181.567991 
L 757.819154 181.295881 
L 758.228394 180.906874 
L 758.637633 180.184425 
L 759.456112 178.324969 
L 759.660732 178.140943 
L 759.865352 178.185317 
L 760.274591 178.808922 
L 761.29769 181.213929 
L 762.320788 182.492288 
L 762.730028 182.700368 
L 763.548507 183.664976 
L 763.957746 183.696024 
L 764.366986 183.383805 
L 764.776225 182.640236 
L 765.185465 181.938043 
L 765.390084 181.936444 
L 765.799324 182.616516 
L 766.822422 184.809846 
L 767.231662 185.143019 
L 767.436282 185.077557 
L 768.25476 184.419239 
L 768.664 184.30164 
L 769.277859 183.837209 
L 769.687099 183.53615 
L 769.891718 183.624866 
L 770.096338 183.961337 
L 770.710197 185.949652 
L 771.119437 186.95427 
L 771.324056 187.144527 
L 771.733296 187.110446 
L 772.142535 187.146392 
L 772.551775 187.308432 
L 772.961014 187.167213 
L 773.779493 186.68466 
L 773.984113 186.794096 
L 774.393352 187.461476 
L 775.007211 188.705189 
L 775.211831 188.839045 
L 775.416451 188.778113 
L 776.644169 187.4212 
L 777.053409 186.888142 
L 777.462648 186.767745 
L 777.871888 186.584384 
L 778.281127 186.278128 
L 778.485747 186.30921 
L 778.894986 186.778505 
L 780.736564 189.697714 
L 781.145803 189.784797 
L 781.555043 189.781565 
L 782.578141 190.13133 
L 783.192 189.930912 
L 784.624339 188.953345 
L 785.238198 188.097041 
L 785.647437 188.092311 
L 786.261296 188.144814 
L 786.670536 187.965618 
L 787.489015 187.400845 
L 787.898254 187.593333 
L 788.307494 187.9385 
L 788.512113 187.957622 
L 788.921353 187.769864 
L 789.125973 187.85778 
L 789.739832 188.535654 
L 790.353691 188.37558 
L 791.581409 188.855935 
L 792.195268 188.732906 
L 793.218367 188.223735 
L 793.627607 187.940565 
L 794.036846 187.338281 
L 794.855325 185.949419 
L 795.469184 185.396473 
L 796.083043 184.525277 
L 796.492283 184.378962 
L 796.696902 184.461548 
L 797.106142 185.07276 
L 797.515381 185.772788 
L 799.561579 187.921776 
L 799.970818 188.172997 
L 800.380058 188.126857 
L 800.789297 187.672554 
L 801.403156 186.682228 
L 801.812396 186.694654 
L 802.426255 186.871518 
L 803.040114 186.795162 
L 803.653973 187.208856 
L 804.472452 187.962219 
L 805.495551 189.282221 
L 805.70017 189.102592 
L 807.337128 186.58002 
L 807.541748 186.62636 
L 808.360227 187.73192 
L 808.564847 187.634276 
L 809.587945 186.508495 
L 809.792565 186.4991 
L 809.997185 186.621563 
L 810.815664 187.790652 
L 811.224903 187.78872 
L 812.248002 187.252364 
L 813.2711 186.677364 
L 813.68034 186.337527 
L 814.089579 186.293919 
L 814.908058 186.4416 
L 815.726537 186.384467 
L 815.931157 186.55227 
L 816.340396 187.386187 
L 817.158875 189.222922 
L 817.568115 189.781266 
L 817.977354 190.031021 
L 818.181974 189.977852 
L 818.591213 189.515386 
L 819.000453 188.791606 
L 819.818932 187.08746 
L 820.228171 186.541076 
L 820.84203 185.534526 
L 821.04665 185.442446 
L 821.660509 185.681941 
L 821.865129 185.555181 
L 822.478988 184.890066 
L 823.297467 184.934107 
L 823.911326 184.426201 
L 824.320566 184.41051 
L 825.343664 184.684585 
L 825.548284 184.698477 
L 825.752904 184.874941 
L 826.162143 185.789778 
L 826.571383 186.722438 
L 826.776002 186.754119 
L 827.185242 186.06805 
L 827.594481 185.486221 
L 827.799101 185.513838 
L 828.41296 186.076778 
L 828.8222 185.916838 
L 829.231439 185.72968 
L 829.845298 185.746436 
L 830.049918 185.548684 
L 830.663777 184.624886 
L 830.868397 184.608529 
L 831.482256 184.888334 
L 831.891495 184.736255 
L 832.300735 184.243174 
L 832.709974 183.210539 
L 833.528453 180.765222 
L 834.551552 178.671002 
L 835.370031 176.909423 
L 835.77927 175.18742 
L 836.393129 171.117978 
L 837.006989 165.68236 
L 837.620848 157.789733 
L 838.234707 147.518083 
L 839.462425 124.644235 
L 839.871665 121.485998 
L 840.280904 120.440537 
L 840.485524 120.394797 
L 840.690144 120.64232 
L 841.099383 122.06303 
L 841.508623 124.741378 
L 842.122482 130.874892 
L 844.168679 155.284917 
L 844.782538 159.46343 
L 845.601017 164.724249 
L 846.214876 168.27809 
L 846.624116 169.335244 
L 847.033355 169.637869 
L 847.442595 169.901882 
L 847.851834 170.87312 
L 848.670313 173.534211 
L 849.488792 174.709997 
L 850.511891 177.567075 
L 850.92113 177.877329 
L 851.534989 177.934329 
L 851.944229 178.132514 
L 852.353468 177.919004 
L 852.558088 177.793877 
L 852.762708 177.820428 
L 853.376567 178.509029 
L 853.785806 179.173178 
L 854.604285 180.828452 
L 855.218144 181.283622 
L 855.832003 181.406284 
L 856.241243 181.48254 
L 857.264342 182.703266 
L 857.878201 183.163833 
L 858.49206 183.773713 
L 858.901299 183.845105 
L 859.719778 183.395932 
L 860.129018 183.741631 
L 860.947497 184.977349 
L 861.561356 185.385879 
L 861.970595 186.342058 
L 862.379835 187.283146 
L 862.584454 187.4201 
L 862.789074 187.27725 
L 863.607553 185.848411 
L 865.449131 181.474378 
L 865.65375 181.453557 
L 866.06299 181.814714 
L 866.676849 182.522438 
L 867.086088 182.678714 
L 867.699948 182.736014 
L 868.109187 183.000061 
L 868.313807 182.97914 
L 868.927666 182.356933 
L 869.336905 182.476997 
L 870.769244 183.082147 
L 871.792342 183.60511 
L 872.610821 183.609908 
L 873.020061 183.552607 
L 873.4293 183.275734 
L 874.247779 182.430991 
L 874.861638 182.427493 
L 875.475497 182.469668 
L 876.293976 182.735614 
L 876.703216 182.723255 
L 877.726314 182.181468 
L 878.135554 182.362863 
L 879.363272 183.335433 
L 879.772512 183.290692 
L 879.977131 183.110863 
L 880.79561 181.78793 
L 881.20485 181.437733 
L 882.023329 180.391639 
L 882.227948 180.358325 
L 883.251047 180.876691 
L 884.478765 181.647511 
L 884.888005 181.373803 
L 885.297244 180.496211 
L 885.911103 178.807556 
L 886.115723 178.59368 
L 886.524963 178.627994 
L 887.548061 178.744426 
L 887.957301 178.557035 
L 888.77578 177.580167 
L 889.389639 177.309158 
L 889.798878 177.142488 
L 890.208118 177.430821 
L 890.617357 177.874164 
L 891.026597 178.675833 
L 891.435836 180.261481 
L 892.663554 186.33333 
L 893.072794 187.756872 
L 893.277413 188.183858 
L 893.482033 188.309751 
L 893.686653 188.103638 
L 894.095892 186.9032 
L 897.369808 173.022774 
L 898.597526 165.246446 
L 899.211386 158.526906 
L 900.234484 147.469711 
L 900.848343 143.55991 
L 901.871442 139.128977 
L 902.485301 135.625839 
L 904.122259 123.436934 
L 905.145358 111.318022 
L 905.759217 102.051323 
L 906.577696 85.572837 
L 909.033132 25.481449 
L 909.973712 -1 
M 922.722902 -1 
L 922.780136 253 
M 930.403374 253 
L 930.927443 176.75258 
L 931.336683 139.000851 
L 931.745922 115.473248 
L 932.155162 102.148734 
L 932.564401 95.437788 
L 932.97364 92.544997 
L 933.17826 91.933252 
L 933.38288 91.76365 
L 933.5875 92.04612 
L 933.996739 93.586261 
L 934.610598 96.94145 
L 935.429077 104.046601 
L 937.884514 125.915099 
L 939.316852 136.345423 
L 940.74919 146.401563 
L 942.795387 155.352278 
L 944.227725 163.502223 
L 944.636965 164.909874 
L 946.683162 169.447212 
L 947.092402 169.965312 
L 947.501641 170.13075 
L 947.910881 169.954685 
L 948.32012 169.697434 
L 948.52474 169.674647 
L 948.729359 169.83722 
L 949.138599 170.818585 
L 949.957078 173.098397 
L 951.184796 175.668642 
L 951.594036 175.85037 
L 952.003275 175.810992 
L 952.412515 176.164921 
L 953.026374 177.252457 
L 953.435613 177.942891 
L 953.640233 178.008253 
L 954.867951 177.554549 
L 955.277191 177.93746 
L 955.89105 178.665905 
L 956.09567 178.709713 
L 956.504909 178.393596 
L 956.914149 178.067652 
L 957.118768 178.143108 
L 957.528008 178.957436 
L 958.755726 182.525336 
L 959.164966 182.820565 
L 959.778825 182.724554 
L 960.188064 182.691673 
L 961.415783 182.855112 
L 962.029642 182.812436 
L 962.438881 182.892656 
L 962.643501 183.040304 
L 963.05274 183.893077 
L 963.46198 184.824904 
L 963.6666 184.976982 
L 964.075839 184.822239 
L 964.485078 184.570484 
L 964.894318 184.650838 
L 965.303557 184.679954 
L 966.122036 184.145464 
L 966.531276 184.564921 
L 966.940515 185.001235 
L 967.349755 185.032683 
L 967.758994 184.875508 
L 968.577473 184.189872 
L 968.986712 184.234446 
L 969.395952 184.282318 
L 970.41905 184.064944 
L 970.82829 183.64562 
L 971.442149 182.944227 
L 971.851389 183.002559 
L 972.260628 183.211805 
L 973.079107 184.021203 
L 974.306825 185.363025 
L 974.716065 185.354164 
L 975.943783 185.971506 
L 976.353023 186.627393 
L 977.171501 188.572966 
L 977.98998 189.392358 
L 978.60384 190.572041 
L 978.808459 190.641367 
L 979.626938 190.14742 
L 980.240797 190.082591 
L 981.263896 189.649309 
L 981.468516 189.312371 
L 982.491614 186.658441 
L 982.900854 186.586417 
L 984.128572 186.442333 
L 984.947051 185.985365 
L 985.76553 184.963323 
L 986.379389 184.827669 
L 986.993248 184.7169 
L 987.402488 184.354909 
L 988.220967 183.406825 
L 988.630206 182.988468 
L 989.857925 180.78691 
L 990.471784 179.053114 
L 990.676403 178.799428 
L 991.085643 178.788434 
L 991.290263 178.783304 
L 991.494882 178.600476 
L 991.904122 177.496216 
L 993.13184 172.330575 
L 993.33646 172.102274 
L 993.54108 172.146116 
L 993.950319 172.93306 
L 994.973418 175.450468 
L 995.791897 176.951065 
L 996.405756 177.969342 
L 997.019615 178.402558 
L 997.224235 178.395528 
L 997.633474 178.051927 
L 998.247333 177.435618 
L 999.065812 177.128562 
L 999.475052 176.359408 
L 999.884291 175.004126 
L 1000.293531 173.054289 
L 1000.90739 168.862551 
L 1001.316629 165.226358 
L 1001.930488 157.01668 
L 1002.748967 145.960952 
L 1002.953587 144.58928 
L 1003.158207 144.135543 
L 1003.362827 144.601306 
L 1003.772066 147.434665 
L 1005.409024 161.518139 
L 1006.841362 171.405844 
L 1007.659841 173.528082 
L 1008.06908 174.387617 
L 1008.2737 174.636806 
L 1008.47832 174.698737 
L 1008.682939 174.501951 
L 1009.092179 173.334194 
L 1009.910658 169.931832 
L 1010.319897 167.502106 
L 1010.729137 163.925844 
L 1011.342996 155.861816 
L 1011.956855 147.685919 
L 1012.366094 144.812884 
L 1012.570714 144.535678 
L 1012.775334 145.031657 
L 1013.184573 147.746418 
L 1014.412292 158.373961 
L 1015.026151 163.761306 
L 1017.276968 177.987098 
L 1017.686207 179.128437 
L 1018.300067 180.09088 
L 1018.709306 180.20015 
L 1019.118545 180.097776 
L 1019.937024 180.323012 
L 1020.141644 180.21714 
L 1020.550884 179.54323 
L 1021.983222 175.823085 
L 1022.187841 175.934554 
L 1022.597081 177.069963 
L 1023.00632 178.220963 
L 1023.21094 178.412285 
L 1023.824799 178.51356 
L 1024.029419 178.76085 
L 1024.438658 179.822169 
L 1025.461757 183.390335 
L 1026.280236 184.597136 
L 1026.894095 185.657355 
L 1027.303335 185.849743 
L 1027.917194 185.96551 
L 1028.326433 186.277995 
L 1029.144912 187.143993 
L 1029.758771 187.140629 
L 1030.168011 187.550491 
L 1030.57725 187.92594 
L 1030.98649 187.810174 
L 1031.395729 187.599163 
L 1031.804969 187.784123 
L 1032.009588 187.892127 
L 1032.214208 187.851184 
L 1032.623447 187.551124 
L 1033.032687 187.717461 
L 1033.441926 187.815504 
L 1035.283504 186.647581 
L 1035.897363 187.013203 
L 1036.306603 186.958401 
L 1036.715842 186.654044 
L 1037.125081 186.247246 
L 1037.534321 186.222627 
L 1038.14818 186.461556 
L 1038.55742 186.256574 
L 1038.966659 185.783382 
L 1039.580518 185.023222 
L 1039.785138 185.001002 
L 1039.989758 185.173935 
L 1041.012856 186.811353 
L 1041.422096 186.737396 
L 1041.831335 186.606705 
L 1042.649814 186.716641 
L 1043.059054 187.055878 
L 1043.672913 188.141316 
L 1044.286772 189.296013 
L 1044.696011 189.533509 
L 1045.105251 189.24974 
L 1046.128349 187.94413 
L 1046.332969 187.907451 
L 1046.946828 188.260347 
L 1047.356068 188.575797 
L 1047.765307 189.194039 
L 1048.788406 191.045766 
L 1048.993026 191.073883 
L 1050.220744 190.367992 
L 1050.834603 189.640381 
L 1051.039223 189.562992 
L 1051.243843 189.651941 
L 1052.471561 190.85591 
L 1052.8808 190.754235 
L 1053.49466 190.453543 
L 1054.313138 190.501515 
L 1054.517758 190.303796 
L 1055.745477 188.138284 
L 1055.950096 187.979576 
L 1056.154716 187.967083 
L 1056.359336 188.167734 
L 1056.973195 189.339955 
L 1057.177815 189.440297 
L 1057.382434 189.258102 
L 1058.610153 186.946108 
L 1059.019392 186.835939 
L 1059.428632 187.071735 
L 1060.86097 188.535787 
L 1061.270209 188.54808 
L 1061.679449 188.595086 
L 1062.088688 189.119682 
L 1062.497928 189.739923 
L 1062.702547 189.913156 
L 1063.111787 189.856722 
L 1063.521026 189.714504 
L 1064.339505 189.785197 
L 1064.748745 189.996508 
L 1064.953364 189.971189 
L 1065.771843 189.525947 
L 1066.181083 189.551832 
L 1066.590322 189.914422 
L 1067.204181 191.318142 
L 1067.613421 192.126307 
L 1068.02266 192.498991 
L 1068.636519 192.653835 
L 1069.045759 192.560556 
L 1069.454998 192.077868 
L 1070.273477 190.56851 
L 1070.887336 189.821309 
L 1071.296576 189.333558 
L 1071.501196 189.336223 
L 1072.115055 189.603669 
L 1072.524294 189.40515 
L 1072.933534 189.164923 
L 1074.570491 188.888483 
L 1074.979731 189.015742 
L 1075.38897 189.422407 
L 1076.207449 190.533197 
L 1076.616689 190.758566 
L 1077.025928 190.714059 
L 1077.844407 190.023092 
L 1078.662886 190.117871 
L 1079.072125 189.979351 
L 1079.481365 190.370624 
L 1080.095224 191.647185 
L 1080.504464 192.619022 
L 1080.709083 192.870376 
L 1080.913703 192.868177 
L 1081.322942 192.301172 
L 1081.936802 191.366647 
L 1082.550661 190.85571 
L 1083.16452 190.609319 
L 1083.573759 190.082158 
L 1084.801478 187.6506 
L 1085.210717 187.341213 
L 1085.415337 187.427862 
L 1085.824576 188.057398 
L 1086.438436 189.12971 
L 1086.847675 189.286785 
L 1087.256914 189.19324 
L 1087.666154 188.898977 
L 1088.280013 188.435579 
L 1088.689253 188.475022 
L 1089.098492 188.571833 
L 1089.303112 188.409827 
L 1090.121591 187.139863 
L 1090.32621 187.077599 
L 1090.73545 187.31606 
L 1091.553929 187.968249 
L 1092.167788 188.378578 
L 1092.577027 188.221569 
L 1093.600126 187.346376 
L 1094.009365 187.752774 
L 1094.418605 188.306753 
L 1094.623225 188.387307 
L 1095.032464 188.080018 
L 1095.237084 187.913314 
L 1095.441704 187.906852 
L 1095.850943 188.337635 
L 1096.464802 189.007647 
L 1096.669422 189.003383 
L 1097.283281 188.594853 
L 1098.10176 188.645057 
L 1099.124859 187.47307 
L 1099.329478 187.551657 
L 1099.534098 187.802245 
L 1100.352577 189.380831 
L 1100.557197 189.458319 
L 1100.761816 189.402319 
L 1101.171056 188.925595 
L 1101.580295 188.071989 
L 1102.194155 186.617232 
L 1103.012633 185.64223 
L 1103.421873 184.954295 
L 1103.626493 184.823538 
L 1103.831112 185.006965 
L 1104.854211 187.486895 
L 1105.26345 187.719227 
L 1106.286549 187.579841 
L 1106.695789 187.842689 
L 1107.105028 188.424652 
L 1107.514267 189.105157 
L 1107.718887 189.237814 
L 1108.128127 189.004249 
L 1108.537366 188.492612 
L 1108.946606 187.445086 
L 1109.560465 185.754498 
L 1109.969704 185.16514 
L 1110.788183 184.398884 
L 1112.425141 180.681271 
L 1113.039 180.311152 
L 1113.24362 179.904021 
L 1113.652859 178.256076 
L 1114.471338 172.82802 
L 1115.699057 164.782881 
L 1117.131395 152.596275 
L 1118.154493 145.633042 
L 1118.972972 138.76562 
L 1119.382212 133.678468 
L 1119.791451 126.643676 
L 1120.40531 110.985981 
L 1121.019169 86.808854 
L 1121.633029 51.035079 
L 1122.350419 -1 
M 1124.826655 -1 
L 1125.930043 52.775304 
L 1126.953141 94.584249 
L 1127.77162 118.652939 
L 1128.794719 141.262008 
L 1129.408578 150.662795 
L 1130.636297 165.394827 
L 1131.250156 169.853977 
L 1131.864015 172.768089 
L 1134.319452 181.497864 
L 1134.728691 182.320888 
L 1135.34255 183.288061 
L 1135.75179 183.916064 
L 1135.956409 184.000215 
L 1136.161029 183.924159 
L 1136.979508 183.171562 
L 1137.388748 183.824317 
L 1137.797987 184.517249 
L 1138.207226 184.700975 
L 1138.616466 184.716566 
L 1139.230325 185.170104 
L 1139.639565 185.610049 
L 1140.048804 186.384034 
L 1140.458043 187.171178 
L 1140.867283 187.275451 
L 1141.276522 187.382222 
L 1141.685762 187.886563 
L 1142.299621 188.895845 
L 1142.70886 189.148932 
L 1142.91348 189.128077 
L 1143.1181 188.945783 
L 1143.936579 187.59933 
L 1144.345818 187.601162 
L 1144.755058 187.70297 
L 1145.573537 187.40864 
L 1145.778156 187.551891 
L 1146.187396 188.277537 
L 1147.210494 190.335944 
L 1147.415114 190.586166 
L 1147.619734 190.615882 
L 1148.028973 190.130896 
L 1149.461311 187.389151 
L 1150.075171 186.10253 
L 1150.48441 185.794875 
L 1150.68903 185.848211 
L 1150.89365 186.056457 
L 1151.302889 186.949906 
L 1151.712128 187.867608 
L 1152.121368 188.305221 
L 1152.530607 188.548147 
L 1152.735227 188.540884 
L 1153.144467 188.127923 
L 1153.553706 187.704202 
L 1153.758326 187.777393 
L 1154.576805 188.509802 
L 1154.986044 188.599017 
L 1155.395284 188.44404 
L 1156.213762 187.744412 
L 1156.623002 188.149844 
L 1156.827622 188.349995 
L 1157.032241 188.385008 
L 1157.646101 187.978743 
L 1158.05534 188.128123 
L 1158.873819 188.618106 
L 1159.487678 188.505671 
L 1159.896918 189.061749 
L 1160.306157 189.595906 
L 1160.510777 189.637715 
L 1160.920016 189.23868 
L 1161.533875 188.459531 
L 1161.943115 188.421054 
L 1162.352354 188.550878 
L 1162.556974 188.508603 
L 1162.966213 188.055332 
L 1163.580073 187.093623 
L 1163.784692 186.94794 
L 1163.989312 187.018766 
L 1164.398551 187.792185 
L 1164.807791 188.595886 
L 1165.012411 188.750929 
L 1165.42165 188.639827 
L 1166.240129 188.416623 
L 1166.649368 187.762502 
L 1167.058608 187.061208 
L 1167.263228 186.948107 
L 1167.467847 187.084461 
L 1168.695566 188.985227 
L 1168.900185 188.866895 
L 1169.309425 188.178028 
L 1169.718664 187.414104 
L 1169.923284 187.263624 
L 1170.127904 187.336882 
L 1170.946383 188.398667 
L 1171.151002 188.402364 
L 1171.355622 188.215972 
L 1172.174101 186.89144 
L 1172.583341 187.12747 
L 1172.99258 187.263358 
L 1173.401819 187.2483 
L 1174.834158 188.241824 
L 1175.652636 189.385562 
L 1176.266496 189.527579 
L 1176.675735 189.695082 
L 1177.084975 189.477808 
L 1178.312693 188.508969 
L 1178.517313 188.542283 
L 1178.926552 189.232117 
L 1179.540411 190.550953 
L 1180.15427 191.389134 
L 1180.35889 191.501236 
L 1180.56351 191.392865 
L 1181.586609 189.933011 
L 1181.995848 189.876311 
L 1182.405087 189.522949 
L 1182.814327 189.025137 
L 1183.018947 188.905306 
L 1183.223566 188.914401 
L 1183.632806 189.230585 
L 1184.246665 190.068166 
L 1184.860524 191.059592 
L 1184.860524 191.059592 
" clip-path="url(#p937920c777)" style="fill: none; stroke: #000000; stroke-width: 2; stroke-linecap: square"/>
   </g>
   <g id="patch_3">
    <path d="M 3.00024 198.907885 
L 1184.99976 198.907885 
" style="fill: none; stroke: #000000; stroke-width: 2; stroke-linejoin: miter; stroke-linecap: square"/>
   </g>
  </g>
 </g>
 <defs>
  <clipPath id="p937920c777">
   <rect x="3.00024" y="3.00024" width="1181.99952" height="195.907645"/>
  </clipPath>
 </defs>
</svg>
