<?xml version="1.0" encoding="utf-8" standalone="no"?>
<!DOCTYPE svg PUBLIC "-//W3C//DTD SVG 1.1//EN"
  "http://www.w3.org/Graphics/SVG/1.1/DTD/svg11.dtd">
<svg xmlns:xlink="http://www.w3.org/1999/xlink" width="1188pt" height="252pt" viewBox="0 0 1188 252" xmlns="http://www.w3.org/2000/svg" version="1.1">
 <metadata>
  <rdf:RDF xmlns:dc="http://purl.org/dc/elements/1.1/" xmlns:cc="http://creativecommons.org/ns#" xmlns:rdf="http://www.w3.org/1999/02/22-rdf-syntax-ns#">
   <cc:Work>
    <dc:type rdf:resource="http://purl.org/dc/dcmitype/StillImage"/>
    <dc:date>2024-07-23T21:49:15.939902</dc:date>
    <dc:format>image/svg+xml</dc:format>
    <dc:creator>
     <cc:Agent>
      <dc:title>Matplotlib v3.8.4, https://matplotlib.org/</dc:title>
     </cc:Agent>
    </dc:creator>
   </cc:Work>
  </rdf:RDF>
 </metadata>
 <defs>
  <style type="text/css">*{stroke-linejoin: round; stroke-linecap: butt}</style>
 </defs>
 <g id="figure_1">
  <g id="patch_1">
   <path d="M 0 252 
L 1188 252 
L 1188 0 
L 0 0 
z
" style="fill: #ffffff"/>
  </g>
  <g id="axes_1">
   <g id="patch_2">
    <path d="M 3.00024 198.907885 
L 1184.99976 198.907885 
L 1184.99976 3.00024 
L 3.00024 3.00024 
z
" style="fill: #ffffff"/>
   </g>
   <g id="matplotlib.axis_1">
    <g id="xtick_1">
     <g id="line2d_1">
      <defs>
       <path id="mb66b15d2a5" d="M 0 0 
L 0 8 
" style="stroke: #000000; stroke-width: 2"/>
      </defs>
      <g>
       <use xlink:href="#mb66b15d2a5" x="1131.272509" y="198.907885" style="stroke: #000000; stroke-width: 2"/>
      </g>
     </g>
     <g id="text_1">
      <!-- 0 -->
      <g transform="translate(1126.267665 224.791947) scale(0.18 -0.18)">
       <defs>
        <path id="Arial-BoldMT-30" d="M 1756 4600 
Q 2422 4600 2797 4125 
Q 3244 3563 3244 2259 
Q 3244 959 2794 391 
Q 2422 -78 1756 -78 
Q 1088 -78 678 436 
Q 269 950 269 2269 
Q 269 3563 719 4131 
Q 1091 4600 1756 4600 
z
M 1756 3872 
Q 1597 3872 1472 3770 
Q 1347 3669 1278 3406 
Q 1188 3066 1188 2259 
Q 1188 1453 1269 1151 
Q 1350 850 1473 750 
Q 1597 650 1756 650 
Q 1916 650 2041 751 
Q 2166 853 2234 1116 
Q 2325 1453 2325 2259 
Q 2325 3066 2244 3367 
Q 2163 3669 2039 3770 
Q 1916 3872 1756 3872 
z
" transform="scale(0.015625)"/>
       </defs>
       <use xlink:href="#Arial-BoldMT-30"/>
      </g>
     </g>
    </g>
    <g id="xtick_2">
     <g id="line2d_2">
      <g>
       <use xlink:href="#mb66b15d2a5" x="1023.818007" y="198.907885" style="stroke: #000000; stroke-width: 2"/>
      </g>
     </g>
     <g id="text_2">
      <!-- 1 -->
      <g transform="translate(1018.813164 224.791947) scale(0.18 -0.18)">
       <defs>
        <path id="Arial-BoldMT-31" d="M 2519 0 
L 1641 0 
L 1641 3309 
Q 1159 2859 506 2644 
L 506 3441 
Q 850 3553 1253 3867 
Q 1656 4181 1806 4600 
L 2519 4600 
L 2519 0 
z
" transform="scale(0.015625)"/>
       </defs>
       <use xlink:href="#Arial-BoldMT-31"/>
      </g>
     </g>
    </g>
    <g id="xtick_3">
     <g id="line2d_3">
      <g>
       <use xlink:href="#mb66b15d2a5" x="916.363505" y="198.907885" style="stroke: #000000; stroke-width: 2"/>
      </g>
     </g>
     <g id="text_3">
      <!-- 2 -->
      <g transform="translate(911.358662 224.791947) scale(0.18 -0.18)">
       <defs>
        <path id="Arial-BoldMT-32" d="M 3238 816 
L 3238 0 
L 159 0 
Q 209 463 459 877 
Q 709 1291 1447 1975 
Q 2041 2528 2175 2725 
Q 2356 2997 2356 3263 
Q 2356 3556 2198 3714 
Q 2041 3872 1763 3872 
Q 1488 3872 1325 3706 
Q 1163 3541 1138 3156 
L 263 3244 
Q 341 3969 753 4284 
Q 1166 4600 1784 4600 
Q 2463 4600 2850 4234 
Q 3238 3869 3238 3325 
Q 3238 3016 3127 2736 
Q 3016 2456 2775 2150 
Q 2616 1947 2200 1565 
Q 1784 1184 1673 1059 
Q 1563 934 1494 816 
L 3238 816 
z
" transform="scale(0.015625)"/>
       </defs>
       <use xlink:href="#Arial-BoldMT-32"/>
      </g>
     </g>
    </g>
    <g id="xtick_4">
     <g id="line2d_4">
      <g>
       <use xlink:href="#mb66b15d2a5" x="808.909004" y="198.907885" style="stroke: #000000; stroke-width: 2"/>
      </g>
     </g>
     <g id="text_4">
      <!-- 3 -->
      <g transform="translate(803.90416 224.791947) scale(0.18 -0.18)">
       <defs>
        <path id="Arial-BoldMT-33" d="M 241 1216 
L 1091 1319 
Q 1131 994 1309 822 
Q 1488 650 1741 650 
Q 2013 650 2198 856 
Q 2384 1063 2384 1413 
Q 2384 1744 2206 1937 
Q 2028 2131 1772 2131 
Q 1603 2131 1369 2066 
L 1466 2781 
Q 1822 2772 2009 2936 
Q 2197 3100 2197 3372 
Q 2197 3603 2059 3740 
Q 1922 3878 1694 3878 
Q 1469 3878 1309 3722 
Q 1150 3566 1116 3266 
L 306 3403 
Q 391 3819 561 4067 
Q 731 4316 1036 4458 
Q 1341 4600 1719 4600 
Q 2366 4600 2756 4188 
Q 3078 3850 3078 3425 
Q 3078 2822 2419 2463 
Q 2813 2378 3048 2084 
Q 3284 1791 3284 1375 
Q 3284 772 2843 347 
Q 2403 -78 1747 -78 
Q 1125 -78 715 280 
Q 306 638 241 1216 
z
" transform="scale(0.015625)"/>
       </defs>
       <use xlink:href="#Arial-BoldMT-33"/>
      </g>
     </g>
    </g>
    <g id="xtick_5">
     <g id="line2d_5">
      <g>
       <use xlink:href="#mb66b15d2a5" x="701.454502" y="198.907885" style="stroke: #000000; stroke-width: 2"/>
      </g>
     </g>
     <g id="text_5">
      <!-- 4 -->
      <g transform="translate(696.449658 224.791947) scale(0.18 -0.18)">
       <defs>
        <path id="Arial-BoldMT-34" d="M 1994 0 
L 1994 922 
L 119 922 
L 119 1691 
L 2106 4600 
L 2844 4600 
L 2844 1694 
L 3413 1694 
L 3413 922 
L 2844 922 
L 2844 0 
L 1994 0 
z
M 1994 1694 
L 1994 3259 
L 941 1694 
L 1994 1694 
z
" transform="scale(0.015625)"/>
       </defs>
       <use xlink:href="#Arial-BoldMT-34"/>
      </g>
     </g>
    </g>
    <g id="xtick_6">
     <g id="line2d_6">
      <g>
       <use xlink:href="#mb66b15d2a5" x="594" y="198.907885" style="stroke: #000000; stroke-width: 2"/>
      </g>
     </g>
     <g id="text_6">
      <!-- 5 -->
      <g transform="translate(588.995156 224.791947) scale(0.18 -0.18)">
       <defs>
        <path id="Arial-BoldMT-35" d="M 284 1178 
L 1159 1269 
Q 1197 972 1381 798 
Q 1566 625 1806 625 
Q 2081 625 2272 848 
Q 2463 1072 2463 1522 
Q 2463 1944 2273 2155 
Q 2084 2366 1781 2366 
Q 1403 2366 1103 2031 
L 391 2134 
L 841 4519 
L 3163 4519 
L 3163 3697 
L 1506 3697 
L 1369 2919 
Q 1663 3066 1969 3066 
Q 2553 3066 2959 2641 
Q 3366 2216 3366 1538 
Q 3366 972 3038 528 
Q 2591 -78 1797 -78 
Q 1163 -78 763 262 
Q 363 603 284 1178 
z
" transform="scale(0.015625)"/>
       </defs>
       <use xlink:href="#Arial-BoldMT-35"/>
      </g>
     </g>
    </g>
    <g id="xtick_7">
     <g id="line2d_7">
      <g>
       <use xlink:href="#mb66b15d2a5" x="486.545498" y="198.907885" style="stroke: #000000; stroke-width: 2"/>
      </g>
     </g>
     <g id="text_7">
      <!-- 6 -->
      <g transform="translate(481.540654 224.791947) scale(0.18 -0.18)">
       <defs>
        <path id="Arial-BoldMT-36" d="M 3247 3459 
L 2397 3366 
Q 2366 3628 2234 3753 
Q 2103 3878 1894 3878 
Q 1616 3878 1423 3628 
Q 1231 3378 1181 2588 
Q 1509 2975 1997 2975 
Q 2547 2975 2939 2556 
Q 3331 2138 3331 1475 
Q 3331 772 2918 347 
Q 2506 -78 1859 -78 
Q 1166 -78 719 461 
Q 272 1000 272 2228 
Q 272 3488 737 4044 
Q 1203 4600 1947 4600 
Q 2469 4600 2811 4308 
Q 3153 4016 3247 3459 
z
M 1256 1544 
Q 1256 1116 1453 883 
Q 1650 650 1903 650 
Q 2147 650 2309 840 
Q 2472 1031 2472 1466 
Q 2472 1913 2297 2120 
Q 2122 2328 1859 2328 
Q 1606 2328 1431 2129 
Q 1256 1931 1256 1544 
z
" transform="scale(0.015625)"/>
       </defs>
       <use xlink:href="#Arial-BoldMT-36"/>
      </g>
     </g>
    </g>
    <g id="xtick_8">
     <g id="line2d_8">
      <g>
       <use xlink:href="#mb66b15d2a5" x="379.090996" y="198.907885" style="stroke: #000000; stroke-width: 2"/>
      </g>
     </g>
     <g id="text_8">
      <!-- 7 -->
      <g transform="translate(374.086153 224.791947) scale(0.18 -0.18)">
       <defs>
        <path id="Arial-BoldMT-37" d="M 272 3703 
L 272 4519 
L 3275 4519 
L 3275 3881 
Q 2903 3516 2518 2831 
Q 2134 2147 1932 1376 
Q 1731 606 1734 0 
L 888 0 
Q 909 950 1279 1937 
Q 1650 2925 2269 3703 
L 272 3703 
z
" transform="scale(0.015625)"/>
       </defs>
       <use xlink:href="#Arial-BoldMT-37"/>
      </g>
     </g>
    </g>
    <g id="xtick_9">
     <g id="line2d_9">
      <g>
       <use xlink:href="#mb66b15d2a5" x="271.636495" y="198.907885" style="stroke: #000000; stroke-width: 2"/>
      </g>
     </g>
     <g id="text_9">
      <!-- 8 -->
      <g transform="translate(266.631651 224.791947) scale(0.18 -0.18)">
       <defs>
        <path id="Arial-BoldMT-38" d="M 1025 2472 
Q 684 2616 529 2867 
Q 375 3119 375 3419 
Q 375 3931 733 4265 
Q 1091 4600 1750 4600 
Q 2403 4600 2764 4265 
Q 3125 3931 3125 3419 
Q 3125 3100 2959 2851 
Q 2794 2603 2494 2472 
Q 2875 2319 3073 2025 
Q 3272 1731 3272 1347 
Q 3272 713 2867 316 
Q 2463 -81 1791 -81 
Q 1166 -81 750 247 
Q 259 634 259 1309 
Q 259 1681 443 1992 
Q 628 2303 1025 2472 
z
M 1206 3356 
Q 1206 3094 1354 2947 
Q 1503 2800 1750 2800 
Q 2000 2800 2150 2948 
Q 2300 3097 2300 3359 
Q 2300 3606 2151 3754 
Q 2003 3903 1759 3903 
Q 1506 3903 1356 3753 
Q 1206 3603 1206 3356 
z
M 1125 1394 
Q 1125 1031 1311 828 
Q 1497 625 1775 625 
Q 2047 625 2225 820 
Q 2403 1016 2403 1384 
Q 2403 1706 2222 1901 
Q 2041 2097 1763 2097 
Q 1441 2097 1283 1875 
Q 1125 1653 1125 1394 
z
" transform="scale(0.015625)"/>
       </defs>
       <use xlink:href="#Arial-BoldMT-38"/>
      </g>
     </g>
    </g>
    <g id="xtick_10">
     <g id="line2d_10">
      <g>
       <use xlink:href="#mb66b15d2a5" x="164.181993" y="198.907885" style="stroke: #000000; stroke-width: 2"/>
      </g>
     </g>
     <g id="text_10">
      <!-- 9 -->
      <g transform="translate(159.177149 224.791947) scale(0.18 -0.18)">
       <defs>
        <path id="Arial-BoldMT-39" d="M 291 1059 
L 1141 1153 
Q 1172 894 1303 769 
Q 1434 644 1650 644 
Q 1922 644 2112 894 
Q 2303 1144 2356 1931 
Q 2025 1547 1528 1547 
Q 988 1547 595 1964 
Q 203 2381 203 3050 
Q 203 3747 617 4173 
Q 1031 4600 1672 4600 
Q 2369 4600 2816 4061 
Q 3263 3522 3263 2288 
Q 3263 1031 2797 475 
Q 2331 -81 1584 -81 
Q 1047 -81 715 205 
Q 384 491 291 1059 
z
M 2278 2978 
Q 2278 3403 2083 3637 
Q 1888 3872 1631 3872 
Q 1388 3872 1227 3680 
Q 1066 3488 1066 3050 
Q 1066 2606 1241 2398 
Q 1416 2191 1678 2191 
Q 1931 2191 2104 2391 
Q 2278 2591 2278 2978 
z
" transform="scale(0.015625)"/>
       </defs>
       <use xlink:href="#Arial-BoldMT-39"/>
      </g>
     </g>
    </g>
    <g id="xtick_11">
     <g id="line2d_11">
      <g>
       <use xlink:href="#mb66b15d2a5" x="56.727491" y="198.907885" style="stroke: #000000; stroke-width: 2"/>
      </g>
     </g>
     <g id="text_11">
      <!-- 10 -->
      <g transform="translate(46.717803 224.791947) scale(0.18 -0.18)">
       <use xlink:href="#Arial-BoldMT-31"/>
       <use xlink:href="#Arial-BoldMT-30" x="55.615234"/>
      </g>
     </g>
    </g>
    <g id="text_12">
     <!-- Chemical Shift / ppm -->
     <g transform="translate(504.992813 245.447573) scale(0.18 -0.18)">
      <defs>
       <path id="Arial-BoldMT-43" d="M 3397 1684 
L 4294 1400 
Q 4088 650 3608 286 
Q 3128 -78 2391 -78 
Q 1478 -78 890 545 
Q 303 1169 303 2250 
Q 303 3394 893 4026 
Q 1484 4659 2447 4659 
Q 3288 4659 3813 4163 
Q 4125 3869 4281 3319 
L 3366 3100 
Q 3284 3456 3026 3662 
Q 2769 3869 2400 3869 
Q 1891 3869 1573 3503 
Q 1256 3138 1256 2319 
Q 1256 1450 1568 1081 
Q 1881 713 2381 713 
Q 2750 713 3015 947 
Q 3281 1181 3397 1684 
z
" transform="scale(0.015625)"/>
       <path id="Arial-BoldMT-68" d="M 1334 4581 
L 1334 2897 
Q 1759 3394 2350 3394 
Q 2653 3394 2897 3281 
Q 3141 3169 3264 2994 
Q 3388 2819 3433 2606 
Q 3478 2394 3478 1947 
L 3478 0 
L 2600 0 
L 2600 1753 
Q 2600 2275 2550 2415 
Q 2500 2556 2373 2639 
Q 2247 2722 2056 2722 
Q 1838 2722 1666 2615 
Q 1494 2509 1414 2295 
Q 1334 2081 1334 1663 
L 1334 0 
L 456 0 
L 456 4581 
L 1334 4581 
z
" transform="scale(0.015625)"/>
       <path id="Arial-BoldMT-65" d="M 2381 1056 
L 3256 909 
Q 3088 428 2723 176 
Q 2359 -75 1813 -75 
Q 947 -75 531 491 
Q 203 944 203 1634 
Q 203 2459 634 2926 
Q 1066 3394 1725 3394 
Q 2466 3394 2894 2905 
Q 3322 2416 3303 1406 
L 1103 1406 
Q 1113 1016 1316 798 
Q 1519 581 1822 581 
Q 2028 581 2168 693 
Q 2309 806 2381 1056 
z
M 2431 1944 
Q 2422 2325 2234 2523 
Q 2047 2722 1778 2722 
Q 1491 2722 1303 2513 
Q 1116 2303 1119 1944 
L 2431 1944 
z
" transform="scale(0.015625)"/>
       <path id="Arial-BoldMT-6d" d="M 394 3319 
L 1203 3319 
L 1203 2866 
Q 1638 3394 2238 3394 
Q 2556 3394 2790 3262 
Q 3025 3131 3175 2866 
Q 3394 3131 3647 3262 
Q 3900 3394 4188 3394 
Q 4553 3394 4806 3245 
Q 5059 3097 5184 2809 
Q 5275 2597 5275 2122 
L 5275 0 
L 4397 0 
L 4397 1897 
Q 4397 2391 4306 2534 
Q 4184 2722 3931 2722 
Q 3747 2722 3584 2609 
Q 3422 2497 3350 2280 
Q 3278 2063 3278 1594 
L 3278 0 
L 2400 0 
L 2400 1819 
Q 2400 2303 2353 2443 
Q 2306 2584 2207 2653 
Q 2109 2722 1941 2722 
Q 1738 2722 1575 2612 
Q 1413 2503 1342 2297 
Q 1272 2091 1272 1613 
L 1272 0 
L 394 0 
L 394 3319 
z
" transform="scale(0.015625)"/>
       <path id="Arial-BoldMT-69" d="M 459 3769 
L 459 4581 
L 1338 4581 
L 1338 3769 
L 459 3769 
z
M 459 0 
L 459 3319 
L 1338 3319 
L 1338 0 
L 459 0 
z
" transform="scale(0.015625)"/>
       <path id="Arial-BoldMT-63" d="M 3353 2338 
L 2488 2181 
Q 2444 2441 2289 2572 
Q 2134 2703 1888 2703 
Q 1559 2703 1364 2476 
Q 1169 2250 1169 1719 
Q 1169 1128 1367 884 
Q 1566 641 1900 641 
Q 2150 641 2309 783 
Q 2469 925 2534 1272 
L 3397 1125 
Q 3263 531 2881 228 
Q 2500 -75 1859 -75 
Q 1131 -75 698 384 
Q 266 844 266 1656 
Q 266 2478 700 2936 
Q 1134 3394 1875 3394 
Q 2481 3394 2839 3133 
Q 3197 2872 3353 2338 
z
" transform="scale(0.015625)"/>
       <path id="Arial-BoldMT-61" d="M 1116 2306 
L 319 2450 
Q 453 2931 781 3162 
Q 1109 3394 1756 3394 
Q 2344 3394 2631 3255 
Q 2919 3116 3036 2902 
Q 3153 2688 3153 2116 
L 3144 1091 
Q 3144 653 3186 445 
Q 3228 238 3344 0 
L 2475 0 
Q 2441 88 2391 259 
Q 2369 338 2359 363 
Q 2134 144 1878 34 
Q 1622 -75 1331 -75 
Q 819 -75 523 203 
Q 228 481 228 906 
Q 228 1188 362 1408 
Q 497 1628 739 1745 
Q 981 1863 1438 1950 
Q 2053 2066 2291 2166 
L 2291 2253 
Q 2291 2506 2166 2614 
Q 2041 2722 1694 2722 
Q 1459 2722 1328 2630 
Q 1197 2538 1116 2306 
z
M 2291 1594 
Q 2122 1538 1756 1459 
Q 1391 1381 1278 1306 
Q 1106 1184 1106 997 
Q 1106 813 1243 678 
Q 1381 544 1594 544 
Q 1831 544 2047 700 
Q 2206 819 2256 991 
Q 2291 1103 2291 1419 
L 2291 1594 
z
" transform="scale(0.015625)"/>
       <path id="Arial-BoldMT-6c" d="M 459 0 
L 459 4581 
L 1338 4581 
L 1338 0 
L 459 0 
z
" transform="scale(0.015625)"/>
       <path id="Arial-BoldMT-20" transform="scale(0.015625)"/>
       <path id="Arial-BoldMT-53" d="M 231 1491 
L 1131 1578 
Q 1213 1125 1461 912 
Q 1709 700 2131 700 
Q 2578 700 2804 889 
Q 3031 1078 3031 1331 
Q 3031 1494 2936 1608 
Q 2841 1722 2603 1806 
Q 2441 1863 1863 2006 
Q 1119 2191 819 2459 
Q 397 2838 397 3381 
Q 397 3731 595 4036 
Q 794 4341 1167 4500 
Q 1541 4659 2069 4659 
Q 2931 4659 3367 4281 
Q 3803 3903 3825 3272 
L 2900 3231 
Q 2841 3584 2645 3739 
Q 2450 3894 2059 3894 
Q 1656 3894 1428 3728 
Q 1281 3622 1281 3444 
Q 1281 3281 1419 3166 
Q 1594 3019 2269 2859 
Q 2944 2700 3267 2529 
Q 3591 2359 3773 2064 
Q 3956 1769 3956 1334 
Q 3956 941 3737 597 
Q 3519 253 3119 86 
Q 2719 -81 2122 -81 
Q 1253 -81 787 320 
Q 322 722 231 1491 
z
" transform="scale(0.015625)"/>
       <path id="Arial-BoldMT-66" d="M 75 3319 
L 563 3319 
L 563 3569 
Q 563 3988 652 4194 
Q 741 4400 980 4529 
Q 1219 4659 1584 4659 
Q 1959 4659 2319 4547 
L 2200 3934 
Q 1991 3984 1797 3984 
Q 1606 3984 1523 3895 
Q 1441 3806 1441 3553 
L 1441 3319 
L 2097 3319 
L 2097 2628 
L 1441 2628 
L 1441 0 
L 563 0 
L 563 2628 
L 75 2628 
L 75 3319 
z
" transform="scale(0.015625)"/>
       <path id="Arial-BoldMT-74" d="M 1981 3319 
L 1981 2619 
L 1381 2619 
L 1381 1281 
Q 1381 875 1398 808 
Q 1416 741 1477 697 
Q 1538 653 1625 653 
Q 1747 653 1978 738 
L 2053 56 
Q 1747 -75 1359 -75 
Q 1122 -75 931 4 
Q 741 84 652 211 
Q 563 338 528 553 
Q 500 706 500 1172 
L 500 2619 
L 97 2619 
L 97 3319 
L 500 3319 
L 500 3978 
L 1381 4491 
L 1381 3319 
L 1981 3319 
z
" transform="scale(0.015625)"/>
       <path id="Arial-BoldMT-2f" d="M -9 -78 
L 1125 4659 
L 1784 4659 
L 638 -78 
L -9 -78 
z
" transform="scale(0.015625)"/>
       <path id="Arial-BoldMT-70" d="M 434 3319 
L 1253 3319 
L 1253 2831 
Q 1413 3081 1684 3237 
Q 1956 3394 2288 3394 
Q 2866 3394 3269 2941 
Q 3672 2488 3672 1678 
Q 3672 847 3265 386 
Q 2859 -75 2281 -75 
Q 2006 -75 1782 34 
Q 1559 144 1313 409 
L 1313 -1263 
L 434 -1263 
L 434 3319 
z
M 1303 1716 
Q 1303 1156 1525 889 
Q 1747 622 2066 622 
Q 2372 622 2575 867 
Q 2778 1113 2778 1672 
Q 2778 2194 2568 2447 
Q 2359 2700 2050 2700 
Q 1728 2700 1515 2451 
Q 1303 2203 1303 1716 
z
" transform="scale(0.015625)"/>
      </defs>
      <use xlink:href="#Arial-BoldMT-43"/>
      <use xlink:href="#Arial-BoldMT-68" x="72.216797"/>
      <use xlink:href="#Arial-BoldMT-65" x="133.300781"/>
      <use xlink:href="#Arial-BoldMT-6d" x="188.916016"/>
      <use xlink:href="#Arial-BoldMT-69" x="277.832031"/>
      <use xlink:href="#Arial-BoldMT-63" x="305.615234"/>
      <use xlink:href="#Arial-BoldMT-61" x="361.230469"/>
      <use xlink:href="#Arial-BoldMT-6c" x="416.845703"/>
      <use xlink:href="#Arial-BoldMT-20" x="444.628906"/>
      <use xlink:href="#Arial-BoldMT-53" x="472.412109"/>
      <use xlink:href="#Arial-BoldMT-68" x="539.111328"/>
      <use xlink:href="#Arial-BoldMT-69" x="600.195312"/>
      <use xlink:href="#Arial-BoldMT-66" x="627.978516"/>
      <use xlink:href="#Arial-BoldMT-74" x="661.279297"/>
      <use xlink:href="#Arial-BoldMT-20" x="694.580078"/>
      <use xlink:href="#Arial-BoldMT-2f" x="722.363281"/>
      <use xlink:href="#Arial-BoldMT-20" x="750.146484"/>
      <use xlink:href="#Arial-BoldMT-70" x="777.929688"/>
      <use xlink:href="#Arial-BoldMT-70" x="839.013672"/>
      <use xlink:href="#Arial-BoldMT-6d" x="900.097656"/>
     </g>
    </g>
   </g>
   <g id="matplotlib.axis_2"/>
   <g id="line2d_12">
    <path d="M 3.013383 189.607018 
L 3.831861 189.032923 
L 4.036481 189.164184 
L 4.445721 190.165565 
L 5.05958 191.975992 
L 5.2642 192.145137 
L 5.468819 191.89887 
L 5.878059 190.416211 
L 6.491918 188.00174 
L 6.901157 187.203392 
L 7.105777 187.218235 
L 7.515017 188.078039 
L 8.742735 191.739277 
L 8.947355 191.375034 
L 9.561214 189.744009 
L 9.765834 189.709005 
L 9.970453 189.989219 
L 10.584312 191.656688 
L 10.993552 192.74971 
L 11.198172 192.977284 
L 11.402791 192.887083 
L 11.812031 191.976168 
L 12.22127 190.889524 
L 12.42589 190.690076 
L 12.63051 190.841087 
L 13.039749 191.491981 
L 13.244369 191.520137 
L 13.653608 190.918709 
L 14.267468 189.896725 
L 14.676707 189.566106 
L 14.881327 189.735398 
L 15.495186 191.075187 
L 16.109045 192.451832 
L 16.313665 192.653484 
L 16.518285 192.62712 
L 16.927524 192.136996 
L 17.746003 190.557876 
L 18.155242 190.507764 
L 18.564482 190.499682 
L 18.769102 190.65131 
L 19.58758 192.108839 
L 19.99682 192.165152 
L 20.20144 191.964941 
L 20.610679 190.824188 
L 21.224538 189.051734 
L 21.838397 187.623831 
L 24.089214 184.42509 
L 24.498454 184.242954 
L 25.316933 184.605198 
L 25.521553 184.813962 
L 25.930792 185.854521 
L 26.340031 187.778692 
L 26.953891 191.523664 
L 27.15851 192.201097 
L 27.36313 192.418708 
L 27.56775 192.248593 
L 28.181609 190.875299 
L 28.795468 189.226169 
L 29.000088 189.345585 
L 30.023187 191.830741 
L 31.046285 192.019784 
L 31.455525 192.226432 
L 31.660144 192.093614 
L 32.274003 191.135585 
L 32.887863 190.199188 
L 33.297102 190.160921 
L 33.501722 190.44087 
L 33.910961 192.103431 
L 34.320201 193.97846 
L 34.52482 194.407098 
L 34.72944 194.532274 
L 34.93406 194.430023 
L 35.343299 193.591674 
L 36.161778 191.566898 
L 36.775637 190.657129 
L 37.184877 190.490629 
L 37.389497 190.466205 
L 37.594116 190.232576 
L 38.003356 188.808553 
L 38.617215 186.634706 
L 38.821835 186.299619 
L 39.026454 186.378446 
L 39.231074 186.963385 
L 39.844933 190.197013 
L 40.254173 192.321365 
L 40.663412 193.473816 
L 41.686511 195.596552 
L 41.891131 195.653453 
L 42.50499 194.912124 
L 42.70961 195.146194 
L 43.528088 197.077183 
L 43.732708 196.799114 
L 44.141948 195.221758 
L 45.165046 190.538801 
L 45.778905 189.315959 
L 46.188145 189.045003 
L 46.392765 189.154014 
L 46.802004 189.974376 
L 47.415863 191.408334 
L 47.620483 191.312578 
L 48.029722 189.946455 
L 48.643582 187.88303 
L 49.052821 186.863221 
L 49.257441 186.576071 
L 49.462061 186.5515 
L 49.8713 187.127387 
L 50.689779 189.067164 
L 51.303638 190.442016 
L 51.917497 191.19666 
L 52.122117 191.173441 
L 52.326737 190.889377 
L 52.735976 189.584887 
L 53.349835 187.224818 
L 53.554455 186.911157 
L 53.759075 187.047444 
L 54.986793 189.947571 
L 56.214512 191.882146 
L 56.419131 191.740276 
L 57.03299 190.399105 
L 57.851469 188.691576 
L 58.056089 188.58424 
L 58.260709 188.809405 
L 58.874568 190.112308 
L 59.079188 190.0075 
L 59.693047 188.864513 
L 59.897667 188.78454 
L 60.511526 189.100699 
L 61.534624 188.144492 
L 61.943864 186.657866 
L 62.353103 184.978258 
L 62.557723 184.659219 
L 62.762343 184.819517 
L 63.171582 186.399431 
L 63.580822 187.903692 
L 63.785441 187.823219 
L 64.194681 186.320545 
L 64.60392 185.005327 
L 64.80854 184.870217 
L 65.01316 185.082802 
L 65.627019 186.140907 
L 66.036258 186.433906 
L 66.240878 186.210417 
L 66.650118 184.855492 
L 67.263977 182.271229 
L 67.673216 180.903401 
L 68.082456 178.441228 
L 68.696315 172.047686 
L 69.310174 165.994667 
L 69.719413 163.62778 
L 70.128653 162.475506 
L 70.333273 162.452757 
L 70.537892 162.822467 
L 70.947132 164.474124 
L 71.765611 168.317879 
L 72.993329 173.296157 
L 73.607188 176.72065 
L 74.425667 181.390498 
L 75.039526 183.552353 
L 75.448766 184.293565 
L 75.653386 184.290273 
L 76.471864 183.179499 
L 76.676484 183.273286 
L 76.881104 183.584889 
L 77.290343 184.90819 
L 77.904203 186.878269 
L 79.336541 190.874534 
L 79.54116 190.919062 
L 80.973498 190.331418 
L 81.587358 190.943251 
L 81.791977 190.855224 
L 81.996597 190.431818 
L 83.019696 186.847085 
L 83.224315 186.705479 
L 83.428935 186.935023 
L 83.633555 187.566577 
L 84.042794 189.893404 
L 84.861273 195.521311 
L 85.270513 196.676377 
L 85.475132 196.518871 
L 85.884372 195.146341 
L 86.907471 191.706359 
L 87.11209 191.119508 
L 87.31671 190.89646 
L 87.52133 191.091469 
L 88.135189 192.326861 
L 88.749048 192.916504 
L 89.158288 193.069072 
L 89.567527 192.939429 
L 89.976766 192.392492 
L 90.590626 191.101786 
L 91.204485 189.375623 
L 91.409105 189.372507 
L 91.818344 190.458064 
L 92.636823 192.993832 
L 93.046062 193.65072 
L 93.250682 193.630294 
L 94.069161 192.709532 
L 94.68302 193.152954 
L 95.09226 192.748828 
L 95.296879 192.539182 
L 95.501499 192.604313 
L 96.524598 194.515139 
L 96.729217 194.686871 
L 97.138457 195.477665 
L 97.547696 196.143724 
L 97.752316 196.015109 
L 98.366175 194.72552 
L 99.389274 191.574275 
L 99.798513 191.32598 
L 100.003133 191.200128 
L 100.412373 190.403161 
L 100.821612 189.593763 
L 101.026232 189.449012 
L 101.230851 189.470115 
L 101.640091 189.847848 
L 102.04933 190.76035 
L 102.867809 193.187489 
L 103.277049 193.58221 
L 103.686288 193.585825 
L 104.300147 193.506087 
L 105.323246 193.880617 
L 105.527866 194.037153 
L 105.732485 193.986689 
L 106.141725 193.599286 
L 106.755584 193.568455 
L 107.164824 193.025192 
L 107.574063 192.398605 
L 107.778683 192.354166 
L 108.392542 192.703448 
L 108.597162 192.511995 
L 109.41564 191.009586 
L 109.62026 190.939812 
L 109.82488 191.028161 
L 110.234119 191.582711 
L 111.052598 193.14593 
L 111.257218 193.092556 
L 111.461838 192.809991 
L 111.871077 191.727873 
L 113.098796 187.914272 
L 113.303415 187.755855 
L 113.508035 187.99545 
L 114.121894 189.395344 
L 114.531134 189.58133 
L 114.735753 189.654925 
L 115.554232 190.425704 
L 115.963472 189.962708 
L 116.372711 189.037626 
L 116.781951 187.925852 
L 116.98657 187.633647 
L 117.19119 187.55197 
L 117.39581 187.632354 
L 117.60043 187.871538 
L 118.009669 188.933023 
L 119.237387 193.694778 
L 119.646627 194.017932 
L 119.851247 194.007028 
L 120.260486 193.685079 
L 120.669725 193.149428 
L 121.283585 192.179172 
L 121.692824 191.87909 
L 121.897444 191.965675 
L 122.306683 192.609897 
L 122.715923 193.505529 
L 123.329782 194.979811 
L 123.534402 194.979223 
L 124.352881 194.05179 
L 124.76212 194.592555 
L 125.785219 196.429934 
L 126.194458 197.615978 
L 126.399078 197.887257 
L 126.603698 197.668912 
L 127.012937 196.050437 
L 127.422176 194.373886 
L 127.626796 193.921706 
L 127.831416 193.790122 
L 128.036036 193.958503 
L 128.445275 194.484396 
L 128.649895 194.442514 
L 129.059134 193.807404 
L 129.877613 192.074393 
L 130.082233 191.987572 
L 130.491472 192.465029 
L 130.900712 192.921853 
L 131.309951 192.972259 
L 132.742289 192.499592 
L 133.765388 191.586238 
L 134.174627 191.324863 
L 134.583867 191.227226 
L 134.993106 190.815929 
L 135.811585 189.689225 
L 136.016205 189.601522 
L 136.220825 189.780131 
L 137.039304 191.345408 
L 137.243923 191.465147 
L 137.653163 191.424176 
L 138.062402 191.814018 
L 138.471642 192.128119 
L 138.676261 192.066016 
L 138.880881 191.715822 
L 139.69936 188.811932 
L 139.90398 188.72179 
L 140.1086 189.031013 
L 140.722459 190.468204 
L 140.927078 190.571807 
L 141.336318 190.326627 
L 142.359417 189.516435 
L 142.564036 189.494891 
L 142.768656 189.325305 
L 143.177895 188.228639 
L 143.587135 187.244863 
L 143.791755 187.164185 
L 143.996374 187.371068 
L 144.405614 188.543299 
L 145.019473 191.975698 
L 145.428712 193.853401 
L 145.633332 194.291268 
L 145.837952 194.359867 
L 146.042572 194.11742 
L 146.656431 193.037242 
L 146.86105 193.019696 
L 147.27029 193.155864 
L 147.47491 192.924439 
L 149.111867 189.123477 
L 149.316487 188.81593 
L 149.521107 188.736309 
L 149.725727 188.939989 
L 150.339586 190.297207 
L 150.953445 191.516434 
L 151.158065 191.515611 
L 151.567304 191.024105 
L 151.771924 190.97514 
L 152.181163 191.104607 
L 152.385783 190.923412 
L 152.795023 190.126768 
L 153.408882 188.727757 
L 153.818121 188.507853 
L 154.227361 188.430437 
L 154.43198 187.997478 
L 154.84122 185.995393 
L 155.250459 184.04674 
L 155.659699 183.295917 
L 156.068938 182.715709 
L 156.887417 180.766086 
L 157.092037 180.725527 
L 157.296657 181.113312 
L 157.705896 183.020553 
L 158.319755 186.071427 
L 158.728995 186.963033 
L 159.138234 187.554673 
L 159.956713 189.536186 
L 160.161333 189.658834 
L 160.365952 189.483752 
L 160.979812 188.118687 
L 161.184431 188.230755 
L 161.798291 189.421619 
L 162.20753 189.282688 
L 162.41215 189.221085 
L 162.616769 189.283717 
L 163.026009 189.850787 
L 163.435248 190.267052 
L 163.639868 190.111426 
L 164.253727 188.705302 
L 164.458347 188.71503 
L 164.867586 189.643933 
L 165.276826 190.666593 
L 165.686065 191.132911 
L 166.095305 191.451597 
L 166.504544 191.832652 
L 166.709164 191.816105 
L 167.527643 191.080448 
L 168.346122 191.065017 
L 168.755361 190.507117 
L 169.164601 190.047148 
L 169.57384 190.015024 
L 169.98308 190.047383 
L 170.392319 189.674823 
L 171.415418 188.057054 
L 171.620037 187.895991 
L 171.824657 187.582507 
L 172.233897 186.319134 
L 173.052376 182.310848 
L 173.461615 180.237518 
L 173.666235 179.624981 
L 173.870854 179.48117 
L 174.280094 180.122982 
L 175.303193 181.936407 
L 176.326291 182.961918 
L 176.735531 183.000449 
L 176.94015 183.225731 
L 177.55401 184.560171 
L 177.963249 186.027458 
L 178.781728 189.690694 
L 179.190967 190.179996 
L 179.600207 190.201862 
L 180.009446 189.953714 
L 180.418686 189.113425 
L 180.827925 188.283717 
L 181.032545 188.191959 
L 181.646404 188.487808 
L 182.464883 189.122801 
L 182.669503 188.965207 
L 183.078742 187.816312 
L 183.487982 186.652987 
L 183.692601 186.602552 
L 183.897221 187.047914 
L 184.7157 189.878091 
L 184.92032 190.112484 
L 185.124939 190.083211 
L 185.738799 189.364513 
L 185.943418 189.449159 
L 186.148038 189.786626 
L 186.557277 191.097641 
L 187.375756 194.016697 
L 187.580376 194.322775 
L 187.784996 194.297146 
L 188.194235 193.548704 
L 188.603475 192.889729 
L 189.012714 192.622888 
L 189.421954 191.893521 
L 190.035813 190.600404 
L 190.240433 190.586414 
L 190.445052 190.957593 
L 190.854292 192.013994 
L 191.058911 191.971407 
L 191.468151 190.874182 
L 191.87739 189.758264 
L 192.08201 189.423118 
L 192.28663 189.320015 
L 192.49125 189.425734 
L 192.900489 190.17253 
L 193.514348 191.871154 
L 193.718968 192.174058 
L 193.923588 192.202302 
L 194.128207 191.921442 
L 194.742067 190.637996 
L 195.151306 190.383234 
L 195.560545 190.090735 
L 197.197503 187.942341 
L 197.606743 187.637703 
L 197.811362 187.68755 
L 198.015982 187.866365 
L 198.425222 188.683464 
L 199.243701 190.743274 
L 199.44832 190.646813 
L 199.85756 189.515876 
L 200.266799 188.591911 
L 200.471419 188.539537 
L 200.880658 188.725758 
L 201.085278 188.563167 
L 201.289898 188.076011 
L 202.108377 185.254739 
L 202.312996 185.471439 
L 203.131475 187.869304 
L 203.336095 187.609253 
L 204.359194 183.874156 
L 204.768433 183.271669 
L 205.382292 181.641145 
L 205.996152 180.286954 
L 206.81463 178.309439 
L 207.01925 178.247365 
L 207.22387 178.512796 
L 207.633109 179.673241 
L 209.270067 185.676735 
L 209.883926 188.331096 
L 210.088546 188.59823 
L 210.293166 188.444486 
L 210.702405 187.286863 
L 211.316264 185.334301 
L 211.725504 184.634912 
L 212.339363 184.390379 
L 212.543983 184.443283 
L 212.748603 184.695105 
L 213.157842 185.89805 
L 214.38556 190.488836 
L 214.59018 190.300352 
L 215.204039 188.918152 
L 215.613279 187.43758 
L 216.227138 185.009177 
L 216.840997 183.774461 
L 217.454856 182.706098 
L 217.659476 182.597792 
L 217.864096 182.66598 
L 218.477955 183.26056 
L 218.682575 183.256445 
L 219.091814 183.085801 
L 219.296434 183.38265 
L 220.114913 185.843441 
L 221.138011 185.793212 
L 221.547251 185.473232 
L 221.95649 184.810053 
L 222.774969 182.674268 
L 223.184209 180.625627 
L 224.207307 174.221709 
L 224.616547 172.952458 
L 225.025786 171.939909 
L 225.435026 170.059061 
L 226.048885 166.219303 
L 226.458124 162.467276 
L 227.071983 153.952702 
L 227.685843 142.06457 
L 228.504321 121.722557 
L 230.345899 73.869152 
L 230.755138 68.891492 
L 230.959758 67.927761 
L 231.164378 67.935667 
L 231.368998 68.712471 
L 231.778237 71.837117 
L 232.187477 76.909798 
L 233.005955 91.66132 
L 234.438294 118.360872 
L 235.052153 126.42209 
L 235.461392 128.677673 
L 235.666012 128.868303 
L 235.870632 128.65995 
L 236.279871 127.583564 
L 236.689111 125.485134 
L 237.09835 121.600496 
L 237.712209 112.500453 
L 238.326068 100.028527 
L 239.144547 77.656683 
L 239.963026 54.832569 
L 240.372266 47.698109 
L 240.781505 43.756716 
L 240.986125 43.172335 
L 241.190745 43.578401 
L 241.395364 44.980705 
L 241.804604 50.589184 
L 242.418463 63.862691 
L 243.236942 86.222779 
L 244.26004 114.349941 
L 244.8739 125.028163 
L 246.101618 143.419907 
L 246.510857 148.882666 
L 246.920097 152.009164 
L 247.329336 153.263983 
L 247.533956 153.500639 
L 247.738576 153.4977 
L 247.943196 153.144714 
L 248.352435 151.394186 
L 249.170914 146.474455 
L 249.375534 146.210201 
L 249.580153 146.572151 
L 249.784773 147.505286 
L 250.194013 150.935363 
L 251.421731 163.424718 
L 252.03559 167.071936 
L 252.44483 169.382774 
L 253.877168 179.108052 
L 254.081787 179.623041 
L 254.286407 179.781223 
L 254.695647 179.710303 
L 254.900266 179.987136 
L 256.332604 184.294565 
L 256.741844 185.460829 
L 257.151083 185.98878 
L 257.560323 186.031661 
L 257.969562 185.862104 
L 258.174182 186.057231 
L 258.583421 187.206743 
L 259.197281 188.822748 
L 259.4019 189.130355 
L 259.60652 189.184111 
L 259.81114 188.879767 
L 260.424999 186.737868 
L 261.038858 184.660571 
L 261.448098 183.86672 
L 261.652717 183.805469 
L 262.061957 184.41639 
L 262.880436 186.141407 
L 263.494295 187.523607 
L 263.903534 187.924412 
L 264.312774 188.372214 
L 264.926633 189.260087 
L 265.131253 189.192546 
L 265.745112 188.156689 
L 265.949731 188.108312 
L 266.154351 188.288214 
L 266.563591 189.063637 
L 267.38207 190.904748 
L 267.995929 191.269256 
L 268.200548 191.349934 
L 268.405168 191.171266 
L 268.609788 190.551762 
L 269.223647 187.776958 
L 269.428267 187.47761 
L 269.632887 187.541888 
L 270.042126 187.958124 
L 270.246746 188.03119 
L 270.655985 187.794034 
L 271.065225 187.227522 
L 271.679084 186.054086 
L 272.702182 185.132767 
L 272.906802 185.383589 
L 273.316042 186.80147 
L 273.929901 188.694898 
L 274.134521 189.04321 
L 274.33914 189.097202 
L 274.54376 188.736251 
L 275.771478 184.479258 
L 276.180718 183.465415 
L 276.999197 180.59071 
L 277.408436 180.04874 
L 278.022295 179.789688 
L 278.431535 179.687642 
L 278.840774 179.796154 
L 279.045394 179.531194 
L 279.454633 178.046566 
L 280.477732 173.56676 
L 281.091591 171.722709 
L 281.296211 171.494694 
L 281.500831 171.536899 
L 281.91007 171.877776 
L 282.11469 171.750484 
L 282.523929 170.692114 
L 283.137789 169.011771 
L 284.570127 166.228473 
L 285.183986 164.669162 
L 285.388606 164.441176 
L 285.593225 164.501692 
L 286.002465 165.503602 
L 286.207084 165.975534 
L 286.411704 166.14606 
L 286.616324 166.065441 
L 287.230183 165.254484 
L 287.639423 164.315471 
L 288.048662 163.373195 
L 288.253282 163.299512 
L 288.457901 163.556331 
L 289.071761 164.746931 
L 289.27638 164.816205 
L 289.68562 164.608705 
L 290.299479 164.218921 
L 290.504099 164.352915 
L 291.117958 165.259863 
L 291.322578 165.202638 
L 292.141057 164.238996 
L 292.550296 163.664284 
L 292.754916 163.779614 
L 292.959535 164.448906 
L 293.778014 168.982527 
L 294.187254 170.584425 
L 294.801113 175.00398 
L 295.210352 177.470355 
L 295.619592 178.770349 
L 296.438071 180.36919 
L 296.84731 181.284132 
L 297.25655 182.316374 
L 297.461169 182.360343 
L 297.870409 181.579424 
L 298.484268 179.464124 
L 298.893508 177.993868 
L 299.098127 177.669685 
L 299.302747 177.746601 
L 299.711986 178.257182 
L 299.916606 178.163013 
L 300.325846 177.671096 
L 300.530465 177.780724 
L 300.939705 178.802326 
L 302.372043 183.011618 
L 302.781282 183.991925 
L 302.985902 184.081156 
L 303.395141 183.556116 
L 303.804381 183.031457 
L 304.009001 182.956098 
L 305.032099 183.118278 
L 305.441339 182.647258 
L 306.259818 181.406369 
L 306.464437 181.547946 
L 306.873677 182.278694 
L 307.078297 182.353494 
L 307.487536 181.835801 
L 308.101395 180.583157 
L 308.510635 179.210832 
L 309.329114 175.28775 
L 309.738353 174.001453 
L 310.147592 173.407696 
L 310.352212 173.482026 
L 310.761452 174.196403 
L 311.170691 174.738315 
L 311.375311 174.684147 
L 311.78455 174.13045 
L 312.19379 172.886329 
L 312.603029 170.721005 
L 313.216888 165.544515 
L 315.058466 146.32947 
L 316.695424 124.12051 
L 317.718522 113.634622 
L 317.923142 112.7414 
L 318.127762 112.404433 
L 318.332382 112.412721 
L 318.741621 113.024994 
L 319.5601 115.043039 
L 320.378579 117.583069 
L 320.787818 120.464974 
L 321.401677 125.751916 
L 321.606297 126.835034 
L 321.810917 127.222466 
L 322.015537 126.889172 
L 322.424776 124.650959 
L 323.038635 119.151461 
L 324.061734 106.42739 
L 324.470973 99.264273 
L 325.084833 83.915791 
L 326.92641 33.384161 
L 327.33565 26.899858 
L 327.540269 25.097631 
L 327.744889 24.403122 
L 327.949509 24.751435 
L 328.358748 27.642863 
L 329.177227 37.101829 
L 330.200326 48.472356 
L 331.223424 58.422063 
L 332.246523 69.134555 
L 332.655762 71.06672 
L 332.860382 71.538387 
L 333.065002 71.641343 
L 333.269622 71.239451 
L 333.474241 70.215027 
L 333.883481 65.984457 
L 336.338918 26.097278 
L 337.157396 11.015284 
L 337.771256 4.638289 
L 337.975875 3.493362 
L 338.180495 3.00024 
L 338.385115 3.308052 
L 338.794354 6.089176 
L 339.408213 12.654626 
L 341.454411 39.497813 
L 342.477509 59.872774 
L 343.500608 80.065746 
L 344.728326 99.92657 
L 345.342185 107.029641 
L 346.979143 120.128888 
L 347.593002 123.278458 
L 347.797622 123.790949 
L 348.002242 123.991865 
L 348.411481 123.951247 
L 349.43458 122.886264 
L 349.6392 122.47288 
L 349.843819 121.58098 
L 350.253059 118.224322 
L 351.276158 106.8381 
L 352.503876 91.068356 
L 353.117735 84.033473 
L 353.526975 81.076061 
L 353.936214 79.927902 
L 354.345453 79.743679 
L 354.550073 79.910796 
L 354.754693 80.400186 
L 355.163932 82.327648 
L 355.777792 86.464167 
L 356.59627 93.109562 
L 357.00551 94.386718 
L 357.414749 94.605622 
L 357.823989 94.928659 
L 358.233228 95.320853 
L 358.437848 95.130399 
L 358.642468 94.434508 
L 359.256327 90.255107 
L 359.870186 84.273773 
L 360.688665 72.8683 
L 361.507144 56.982022 
L 362.121003 46.209719 
L 363.144102 33.074879 
L 363.553341 29.603831 
L 363.757961 28.795343 
L 363.962581 28.753079 
L 364.1672 29.565828 
L 364.57644 33.618818 
L 365.190299 43.795894 
L 367.236496 82.760195 
L 368.464215 98.161376 
L 368.873454 101.199612 
L 369.078074 101.799688 
L 369.282694 101.827227 
L 369.487313 101.404526 
L 370.715032 97.144741 
L 371.124271 93.803865 
L 372.556609 78.864888 
L 373.170468 70.896693 
L 373.579708 68.01176 
L 373.784328 67.748711 
L 373.988947 68.2632 
L 374.398187 71.335648 
L 374.807426 77.083352 
L 375.625905 89.752257 
L 377.058243 109.186294 
L 378.490581 127.41098 
L 379.10444 132.460266 
L 379.51368 134.610894 
L 379.7183 135.113157 
L 379.922919 135.283154 
L 380.127539 135.243153 
L 380.536778 134.798879 
L 380.946018 133.822216 
L 381.355257 132.014522 
L 381.969117 127.480196 
L 382.582976 122.938639 
L 382.992215 121.102495 
L 383.196835 120.839004 
L 383.401455 121.236077 
L 383.810694 124.015613 
L 384.629173 130.72846 
L 386.061511 139.682194 
L 387.08461 145.923668 
L 388.516948 151.270715 
L 389.130807 154.554013 
L 389.949286 159.045546 
L 390.563145 161.023473 
L 391.177004 162.049513 
L 391.790863 162.86429 
L 393.018582 165.018269 
L 393.223202 164.912255 
L 393.427821 164.529261 
L 393.837061 162.989966 
L 394.45092 160.448585 
L 394.65554 160.306332 
L 394.860159 160.59263 
L 395.269399 161.446556 
L 395.474019 161.55013 
L 395.883258 161.142389 
L 396.292497 160.788198 
L 396.497117 160.984441 
L 396.906357 162.370639 
L 397.929455 166.857528 
L 399.566413 172.697315 
L 399.975653 173.159283 
L 400.180272 173.080104 
L 400.589512 172.141649 
L 400.998751 171.152377 
L 401.407991 170.912635 
L 401.61261 170.968301 
L 401.81723 171.204458 
L 402.22647 172.41716 
L 402.635709 173.512181 
L 403.249568 174.372161 
L 403.863427 175.849236 
L 404.477287 177.528667 
L 404.681906 177.741958 
L 404.886526 177.662484 
L 405.295765 176.901875 
L 405.909625 175.049595 
L 406.114244 174.476411 
L 406.318864 174.275289 
L 406.523484 174.685881 
L 406.932723 177.456248 
L 407.341963 180.850821 
L 407.751202 182.340004 
L 407.955822 182.344971 
L 408.774301 181.280135 
L 408.978921 181.35614 
L 409.38816 181.825221 
L 409.59278 181.882445 
L 409.797399 181.693578 
L 410.411259 180.731082 
L 410.615878 180.941962 
L 411.025118 182.009296 
L 411.638977 183.825249 
L 411.843597 184.041008 
L 412.252836 183.836653 
L 412.457456 183.749802 
L 412.866695 183.975878 
L 413.275935 184.231727 
L 413.480555 184.187669 
L 414.299033 183.364956 
L 414.503653 183.372598 
L 414.708273 183.237047 
L 415.117512 182.265233 
L 415.526752 181.3624 
L 415.731372 181.295007 
L 415.935991 181.436642 
L 417.16371 183.036806 
L 417.777569 183.581803 
L 417.982188 183.552971 
L 418.596048 182.870894 
L 419.005287 183.051707 
L 419.209907 183.119894 
L 420.233005 182.611224 
L 420.642245 182.568401 
L 420.846865 182.713475 
L 421.256104 183.553412 
L 421.869963 185.288568 
L 422.074583 185.37389 
L 422.688442 184.63309 
L 422.893062 184.815843 
L 423.916161 187.017817 
L 424.3254 186.861516 
L 424.734639 186.504856 
L 425.553118 185.331861 
L 425.962358 185.474055 
L 426.576217 186.011293 
L 427.599316 187.167565 
L 427.803935 186.775489 
L 428.417795 185.087269 
L 428.827034 184.542595 
L 429.645513 182.61237 
L 429.850133 182.632356 
L 430.054752 182.913834 
L 430.463992 184.089768 
L 430.873231 185.277929 
L 431.077851 185.577423 
L 431.282471 185.663392 
L 431.48709 185.520258 
L 432.10095 184.720558 
L 432.714809 184.174943 
L 433.124048 183.490779 
L 433.328668 183.416508 
L 433.533288 183.717149 
L 434.556386 186.519375 
L 434.965626 185.563903 
L 435.374865 184.521992 
L 435.784105 184.127359 
L 435.988724 184.284601 
L 436.397964 185.493923 
L 436.807203 186.474642 
L 437.011823 186.412245 
L 437.421063 185.675677 
L 438.239541 183.50042 
L 438.648781 182.390057 
L 438.853401 182.074662 
L 439.05802 182.032633 
L 439.26264 182.278518 
L 440.081119 184.236282 
L 440.694978 184.553323 
L 441.513457 185.523667 
L 441.922697 185.563815 
L 442.127316 185.495069 
L 442.331936 185.602141 
L 442.536556 186.049472 
L 443.150415 188.117159 
L 443.355035 188.352933 
L 443.559654 188.23728 
L 444.378133 186.758471 
L 444.582753 186.789596 
L 445.196612 187.908394 
L 445.401232 187.903868 
L 446.015091 187.346762 
L 446.219711 187.509176 
L 447.447429 189.262114 
L 447.856669 189.633617 
L 449.493626 192.050586 
L 449.902866 192.355312 
L 450.107486 192.17782 
L 450.721345 190.936608 
L 450.925965 190.898165 
L 451.130584 191.136849 
L 451.949063 193.116039 
L 452.153683 193.110955 
L 452.358303 192.698452 
L 452.767542 190.717822 
L 453.381401 187.751652 
L 453.790641 186.471909 
L 453.99526 186.15719 
L 454.19988 186.159835 
L 454.4045 186.449689 
L 455.427598 188.805584 
L 456.246077 188.595673 
L 456.859937 189.143757 
L 457.064556 188.999418 
L 457.473796 187.835416 
L 458.087655 186.153869 
L 458.701514 184.748979 
L 458.906134 184.771816 
L 459.110754 185.284894 
L 460.133852 189.06593 
L 460.543092 189.742716 
L 460.747711 189.824306 
L 460.952331 189.707124 
L 461.361571 188.872537 
L 461.97543 187.77493 
L 462.180049 187.602258 
L 462.384669 187.620833 
L 463.203148 188.323395 
L 464.635486 187.964737 
L 465.249345 188.851963 
L 465.658585 189.228344 
L 466.067824 190.259204 
L 466.477064 191.227667 
L 466.886303 191.56102 
L 467.090923 191.499211 
L 467.704782 190.991364 
L 467.909402 191.108428 
L 468.318641 191.644314 
L 468.523261 191.679819 
L 468.727881 191.386878 
L 469.13712 190.45827 
L 469.34174 190.349347 
L 469.54636 190.716205 
L 470.160219 192.653249 
L 470.364839 192.481634 
L 471.592557 189.46794 
L 471.797177 189.373977 
L 472.615656 189.623154 
L 473.024895 188.750064 
L 473.638754 187.422032 
L 473.843374 187.213797 
L 474.047994 187.194428 
L 474.252613 187.369157 
L 475.275712 188.970056 
L 475.684951 189.229373 
L 476.094191 189.94187 
L 477.526529 193.769166 
L 478.345008 197.501794 
L 478.549628 197.676259 
L 478.754247 197.51843 
L 478.958867 197.043148 
L 479.368107 195.273721 
L 479.981966 192.669531 
L 480.391205 191.952273 
L 480.800445 191.431494 
L 481.209684 190.335856 
L 481.823543 188.242305 
L 482.028163 188.160305 
L 482.437402 188.790712 
L 483.460501 191.141993 
L 483.665121 190.649987 
L 484.27898 188.089678 
L 484.4836 187.888203 
L 484.892839 188.138114 
L 485.506698 188.043505 
L 485.711318 188.316194 
L 486.120558 189.529279 
L 486.939036 192.608956 
L 487.143656 192.536478 
L 487.348276 191.965734 
L 488.166755 188.526722 
L 488.371375 188.424265 
L 489.189853 189.370362 
L 489.599093 189.329655 
L 490.008332 188.950981 
L 490.826811 187.577569 
L 491.031431 187.574777 
L 491.236051 187.841941 
L 491.64529 189.077686 
L 492.259149 191.12668 
L 492.668389 191.896107 
L 493.077628 192.449451 
L 493.896107 193.816133 
L 494.100727 193.816721 
L 494.509966 193.315193 
L 495.533065 191.27387 
L 495.942304 191.167298 
L 496.965403 191.318045 
L 497.579262 191.787008 
L 497.988502 191.689312 
L 498.602361 191.171589 
L 498.806981 191.356253 
L 499.21622 191.989835 
L 499.625459 192.121183 
L 500.034699 191.860838 
L 500.443938 191.270108 
L 501.057798 190.208711 
L 501.467037 189.997272 
L 502.080896 190.128796 
L 502.285516 190.088883 
L 502.490136 189.898606 
L 503.308615 188.347466 
L 503.717854 188.984281 
L 503.922474 189.271167 
L 504.127093 189.259881 
L 504.536333 188.708535 
L 504.740953 188.638555 
L 505.354812 189.01473 
L 505.559432 188.793592 
L 506.37791 187.281043 
L 506.58253 187.462974 
L 506.99177 188.55288 
L 508.219488 192.544002 
L 508.628727 193.477108 
L 508.833347 193.711913 
L 509.037967 193.731781 
L 509.242587 193.508879 
L 509.651826 192.441692 
L 510.674925 188.922972 
L 510.879544 188.9081 
L 511.698023 189.886879 
L 511.902643 189.675381 
L 512.311883 188.615454 
L 512.721122 187.444545 
L 512.925742 187.213179 
L 513.130361 187.369951 
L 513.539601 188.54274 
L 514.35808 191.42782 
L 514.5627 191.755647 
L 514.767319 191.635409 
L 515.176559 190.348847 
L 515.585798 189.321837 
L 515.790418 189.429026 
L 516.199657 190.611103 
L 516.608897 191.744244 
L 516.813517 191.911684 
L 517.018136 191.782922 
L 518.245855 190.139818 
L 518.450474 190.096378 
L 519.473573 190.488689 
L 519.882812 191.216734 
L 520.905911 193.400779 
L 521.110531 193.326979 
L 521.51977 192.765405 
L 521.92901 192.284421 
L 522.133629 192.37662 
L 522.542869 193.202096 
L 522.952108 193.930405 
L 523.156728 193.734955 
L 523.565968 192.28448 
L 524.384446 188.764701 
L 524.589066 188.464619 
L 524.793686 188.443516 
L 525.202925 188.546796 
L 525.407545 188.338091 
L 526.021404 187.38932 
L 526.226024 187.445603 
L 526.635263 188.050617 
L 527.658362 190.338384 
L 527.862982 190.486544 
L 528.067602 190.433199 
L 528.272221 190.173941 
L 529.0907 188.426969 
L 529.29532 188.505237 
L 530.113799 189.706389 
L 530.318419 189.609575 
L 530.523038 189.263702 
L 530.932278 187.87045 
L 531.546137 185.494129 
L 531.955376 184.529105 
L 532.159996 184.291126 
L 532.364616 184.307438 
L 532.569235 184.654692 
L 533.592334 187.751534 
L 534.001574 187.722702 
L 534.410813 187.767993 
L 534.820052 187.83477 
L 535.229292 187.223819 
L 535.433912 186.906896 
L 535.638531 186.911716 
L 536.047771 187.930937 
L 536.45701 188.847231 
L 536.86625 188.971673 
L 537.070869 189.003062 
L 538.093968 189.705595 
L 538.298588 189.670179 
L 538.503208 189.763819 
L 539.117067 190.688871 
L 539.321686 190.611191 
L 540.140165 189.369098 
L 540.549405 189.209181 
L 540.958644 188.738396 
L 541.777123 187.3589 
L 541.981743 187.479785 
L 542.390982 188.054908 
L 542.595602 188.145168 
L 543.209461 188.054879 
L 543.82332 188.638761 
L 544.23256 188.579597 
L 544.846419 188.249154 
L 545.255659 188.244392 
L 545.664898 187.515437 
L 546.278757 186.116248 
L 546.892616 184.237752 
L 547.097236 184.193342 
L 547.506476 184.835506 
L 548.120335 186.202981 
L 548.734194 188.501093 
L 549.143433 190.093674 
L 549.348053 190.561432 
L 549.552673 190.691428 
L 549.757293 190.558581 
L 550.371152 189.85402 
L 550.780391 189.686109 
L 551.189631 189.227756 
L 551.59887 188.814754 
L 551.80349 188.970644 
L 552.212729 190.011791 
L 552.621969 190.974699 
L 554.054307 192.660861 
L 554.258927 192.806552 
L 554.463546 192.679024 
L 554.872786 191.791416 
L 555.895884 189.257588 
L 556.305124 188.616982 
L 556.509744 188.581713 
L 556.918983 188.936521 
L 557.328222 189.344556 
L 557.737462 189.402045 
L 558.760561 188.955155 
L 559.37442 188.914595 
L 559.579039 189.165624 
L 559.988279 190.465147 
L 560.397518 191.602314 
L 560.602138 191.693456 
L 560.806758 191.385644 
L 561.215997 189.800881 
L 561.625237 188.171414 
L 562.034476 187.342853 
L 562.443716 186.733988 
L 563.057575 185.247803 
L 563.262195 185.151753 
L 563.466814 185.306879 
L 563.876054 186.087857 
L 564.285293 187.107871 
L 564.489913 187.360987 
L 564.694533 187.338826 
L 566.126871 186.129269 
L 566.94535 186.018082 
L 567.354589 186.742747 
L 567.763829 187.331655 
L 567.968448 187.209711 
L 568.786927 185.234695 
L 569.196167 185.431879 
L 570.014646 185.944252 
L 570.628505 185.626095 
L 571.037744 185.243189 
L 571.446984 184.729052 
L 571.651603 184.856403 
L 572.060843 186.12486 
L 572.470082 187.546033 
L 573.493181 189.789125 
L 573.697801 189.737955 
L 574.925519 188.215677 
L 575.334758 188.27396 
L 575.539378 188.037244 
L 576.357857 185.77884 
L 576.562477 185.989955 
L 576.971716 187.788685 
L 577.585575 190.970996 
L 577.994815 191.707975 
L 578.404054 191.661096 
L 578.813294 191.672412 
L 579.222533 191.712207 
L 580.041012 191.233163 
L 580.245632 191.600228 
L 580.654871 192.747388 
L 580.859491 192.930847 
L 581.064111 192.735308 
L 581.88259 191.296325 
L 582.087209 191.305495 
L 582.496449 191.86989 
L 582.905688 192.570954 
L 583.110308 192.618126 
L 583.519547 192.199393 
L 583.928787 191.585855 
L 584.747266 190.085268 
L 585.361125 189.529308 
L 585.565745 189.569897 
L 585.770364 189.812314 
L 586.179604 190.84867 
L 587.202703 194.908215 
L 587.407322 194.986571 
L 587.611942 194.470406 
L 588.430421 190.733575 
L 588.635041 190.431641 
L 588.83966 190.545385 
L 589.2489 191.733398 
L 589.862759 193.521224 
L 590.271998 194.000444 
L 590.476618 193.91665 
L 590.681238 193.588823 
L 591.090477 191.970143 
L 591.704337 188.64749 
L 591.908956 188.265848 
L 592.113576 188.217823 
L 592.727435 188.461944 
L 593.341294 188.319927 
L 593.545914 188.49833 
L 594.159773 189.922677 
L 594.569013 190.611073 
L 594.978252 190.642345 
L 595.387492 190.736984 
L 595.796731 191.109662 
L 596.41059 191.948364 
L 597.638309 191.870978 
L 599.070647 189.795796 
L 599.275266 189.884851 
L 599.684506 190.695396 
L 600.093745 191.463383 
L 600.298365 191.409539 
L 601.321464 189.642816 
L 601.730703 189.692751 
L 602.753802 189.091676 
L 603.163041 189.111397 
L 603.367661 189.303909 
L 603.572281 189.757676 
L 603.98152 191.51129 
L 604.39076 193.348875 
L 604.595379 193.919002 
L 604.799999 194.156745 
L 605.823098 193.942191 
L 606.027717 193.755999 
L 606.436957 192.761319 
L 607.869295 187.342794 
L 608.073915 187.402546 
L 609.097013 189.242863 
L 609.506253 189.565312 
L 609.915492 189.60402 
L 610.324732 189.788449 
L 610.529351 189.623624 
L 611.34783 188.004767 
L 611.55245 188.039684 
L 612.166309 188.701716 
L 612.575549 188.963384 
L 613.189408 188.710298 
L 613.394028 188.902663 
L 613.803267 190.136791 
L 614.212506 191.329213 
L 614.417126 191.301938 
L 614.826366 190.145344 
L 615.235605 188.921767 
L 615.644845 188.322396 
L 615.849464 188.280014 
L 616.258704 188.58571 
L 617.281802 190.038155 
L 617.691042 190.888407 
L 617.895662 190.949981 
L 618.100281 190.605548 
L 619.12338 187.562492 
L 619.328 187.524195 
L 619.941859 187.779015 
L 620.146479 187.715472 
L 620.351098 187.479109 
L 620.760338 186.434288 
L 621.169577 185.384501 
L 621.374197 185.174355 
L 621.578817 185.205186 
L 621.988056 185.782131 
L 622.397296 186.932407 
L 622.806535 188.514025 
L 623.011155 188.948189 
L 623.215774 189.088414 
L 623.625014 189.034305 
L 624.034253 188.957359 
L 624.238873 189.207712 
L 624.648113 190.494479 
L 625.057352 191.819132 
L 626.080451 194.117802 
L 626.48969 194.982809 
L 626.69431 195.006175 
L 626.89893 194.69031 
L 627.512789 192.819984 
L 628.331268 190.222524 
L 628.535887 190.157129 
L 628.945127 190.557405 
L 629.558986 191.332799 
L 629.968225 191.582622 
L 630.172845 191.441928 
L 630.582085 190.298383 
L 630.991324 189.180172 
L 631.195944 189.012203 
L 631.809803 188.952686 
L 632.628282 188.274636 
L 632.832902 188.383617 
L 633.446761 189.25753 
L 634.26524 188.841265 
L 634.469859 188.993628 
L 634.674479 188.933141 
L 634.879099 188.559581 
L 635.492958 186.799354 
L 635.697578 186.73152 
L 635.902198 187.10696 
L 637.129916 190.966381 
L 637.334536 191.123741 
L 637.539155 190.883851 
L 638.153015 189.282953 
L 638.357634 189.115718 
L 638.971493 189.414566 
L 639.176113 189.178938 
L 639.994592 187.681025 
L 640.199212 187.621509 
L 640.403832 187.754856 
L 640.608451 188.143699 
L 641.017691 189.890553 
L 641.63155 192.839117 
L 642.040789 193.869948 
L 642.245409 193.900133 
L 642.450029 193.530394 
L 643.063888 191.302585 
L 643.268508 191.084592 
L 643.677747 191.285039 
L 643.882367 191.195043 
L 646.133184 188.758647 
L 646.337804 189.03213 
L 646.747043 190.205478 
L 647.156283 191.554025 
L 647.360902 191.791886 
L 647.565522 191.548176 
L 647.974761 189.969438 
L 648.384001 188.268199 
L 649.20248 186.766348 
L 649.407099 186.420093 
L 649.611719 186.356931 
L 650.020959 186.809141 
L 650.430198 187.569457 
L 651.248677 189.513731 
L 651.453297 189.711826 
L 651.657916 189.745273 
L 652.067156 189.410039 
L 652.271776 189.205331 
L 652.476395 189.188372 
L 652.681015 189.49642 
L 653.294874 191.344173 
L 653.499494 191.542504 
L 653.704114 191.4558 
L 654.113353 190.636262 
L 654.727212 188.560551 
L 655.341072 186.482196 
L 655.545691 186.277605 
L 655.750311 186.510029 
L 656.15955 188.036627 
L 656.56879 189.583946 
L 656.77341 190.020344 
L 656.978029 190.174382 
L 657.182649 190.066311 
L 657.796508 189.104108 
L 658.205748 188.409452 
L 658.614987 188.225112 
L 659.024227 188.294857 
L 659.433466 188.093205 
L 659.842706 187.649224 
L 660.456565 186.721674 
L 660.661184 186.760999 
L 660.865804 187.08142 
L 661.479663 189.020814 
L 661.888903 189.879326 
L 662.093523 189.72517 
L 663.525861 186.46994 
L 663.9351 186.078011 
L 664.13972 186.162275 
L 664.548959 187.097732 
L 664.958199 187.823454 
L 665.162818 187.823895 
L 665.367438 187.573131 
L 665.776678 186.756326 
L 665.981297 186.632619 
L 666.185917 186.847467 
L 666.390537 187.36372 
L 666.799776 189.281366 
L 667.209016 191.285685 
L 667.413635 191.771078 
L 667.618255 191.885614 
L 667.822875 191.69084 
L 668.845974 189.58424 
L 669.050593 189.569074 
L 669.255213 189.808581 
L 670.482931 192.136202 
L 670.687551 192.052438 
L 671.50603 190.916034 
L 671.915269 191.13488 
L 672.324509 191.498946 
L 672.938368 192.197512 
L 673.347608 192.364423 
L 673.552227 192.333798 
L 673.756847 192.106723 
L 674.370706 190.603344 
L 674.984565 189.21168 
L 675.393805 188.679732 
L 675.598425 188.714766 
L 676.007664 189.459887 
L 676.416903 190.188254 
L 676.621523 190.246037 
L 676.826143 190.101522 
L 677.235382 189.268639 
L 677.849242 187.40137 
L 678.87234 183.54527 
L 679.28158 182.831745 
L 679.690819 182.587594 
L 680.100059 181.870159 
L 681.123157 179.37645 
L 681.327777 179.183645 
L 681.532397 179.359874 
L 682.555495 181.433556 
L 682.964735 181.710625 
L 683.169354 181.636089 
L 683.578594 180.890087 
L 683.987833 180.172741 
L 684.192453 179.980582 
L 684.397073 179.966798 
L 684.601693 180.248863 
L 685.010932 181.77073 
L 685.624791 184.317666 
L 686.034031 185.080862 
L 686.44327 185.33915 
L 686.64789 185.353904 
L 686.852509 185.189726 
L 687.261749 184.014762 
L 687.875608 181.434585 
L 688.489467 177.460686 
L 689.307946 172.348209 
L 689.921805 169.668807 
L 690.331045 168.988053 
L 690.535665 168.977002 
L 690.944904 169.284726 
L 691.558763 169.838041 
L 691.968003 169.864493 
L 692.172622 169.856851 
L 692.377242 170.022646 
L 692.991101 171.111553 
L 693.400341 171.165515 
L 693.60496 171.221299 
L 693.80958 171.552506 
L 694.21882 173.302652 
L 694.832679 175.995045 
L 695.446538 177.321931 
L 696.060397 178.679619 
L 696.265017 178.769996 
L 696.469637 178.470179 
L 696.878876 177.252509 
L 697.288116 175.409311 
L 698.311214 169.979529 
L 699.129693 166.143004 
L 700.357411 158.944529 
L 700.562031 158.441179 
L 700.766651 158.442707 
L 700.971271 158.901354 
L 701.38051 160.788668 
L 702.608228 168.311942 
L 703.222088 170.244019 
L 703.835947 173.415719 
L 704.449806 176.840447 
L 704.654426 177.517058 
L 704.859045 177.77323 
L 705.268285 177.676416 
L 705.472905 177.817933 
L 705.882144 178.801709 
L 706.291384 179.769996 
L 706.700623 180.356111 
L 707.109862 181.671564 
L 707.519102 182.655693 
L 707.723722 182.551413 
L 708.337581 181.493073 
L 709.15606 179.639588 
L 709.769919 178.771142 
L 709.974539 178.584568 
L 710.179158 178.584274 
L 710.997637 179.31905 
L 711.406877 179.460508 
L 711.611496 179.782546 
L 712.020736 181.37398 
L 712.429975 183.301795 
L 712.839215 184.225995 
L 713.248454 184.513234 
L 713.657694 184.392966 
L 714.066933 184.125596 
L 714.476173 183.185613 
L 714.680792 182.619483 
L 714.885412 182.433379 
L 715.090032 182.833303 
L 716.31775 187.944457 
L 716.72699 189.20874 
L 717.750088 194.289945 
L 718.159328 194.977401 
L 718.363947 194.923116 
L 719.182426 194.244389 
L 719.591666 194.160684 
L 720.000905 193.618302 
L 720.614764 192.464999 
L 720.819384 192.563224 
L 721.433243 193.809197 
L 721.637863 193.649486 
L 722.047103 192.572041 
L 722.865581 189.611838 
L 723.070201 189.637438 
L 723.274821 189.835004 
L 723.479441 189.846143 
L 723.88868 188.943281 
L 724.29792 188.26429 
L 724.502539 188.320926 
L 725.116398 188.853344 
L 725.525638 188.811521 
L 725.934877 188.326334 
L 726.344117 187.730402 
L 726.548736 187.669769 
L 727.981075 188.375241 
L 728.594934 188.157806 
L 729.004173 188.42791 
L 729.618032 189.047707 
L 729.822652 189.105108 
L 730.027272 188.993481 
L 730.436511 188.27152 
L 730.845751 187.491365 
L 731.05037 187.387909 
L 731.45961 187.69916 
L 731.868849 187.927851 
L 732.073469 187.784423 
L 732.482709 187.114279 
L 732.687328 187.013908 
L 732.891948 187.238368 
L 733.301187 188.011145 
L 733.505807 188.166006 
L 733.915047 188.004238 
L 734.528906 187.622625 
L 734.938145 187.609605 
L 735.142765 187.368099 
L 735.552004 186.184906 
L 736.165864 184.444135 
L 737.188962 182.214739 
L 737.598202 182.015998 
L 737.802821 182.12686 
L 738.007441 182.533955 
L 738.82592 185.403517 
L 739.03054 185.403076 
L 739.849019 184.250449 
L 741.076737 181.969854 
L 741.690596 181.251302 
L 742.099836 180.740957 
L 742.304455 180.669978 
L 742.713695 181.002537 
L 742.918315 181.176355 
L 743.122934 181.121894 
L 743.532174 180.309438 
L 743.941413 178.937407 
L 744.759892 174.973854 
L 745.373751 170.680475 
L 746.806089 158.703788 
L 747.010709 158.167666 
L 747.215329 158.27415 
L 747.419949 158.956139 
L 749.875385 172.163692 
L 750.693864 177.207835 
L 750.898484 177.752744 
L 751.103104 177.891852 
L 751.307723 177.673918 
L 752.126202 175.587891 
L 752.330822 175.54645 
L 752.740062 176.213008 
L 752.944681 176.566288 
L 753.149301 176.571902 
L 753.353921 176.128715 
L 753.76316 174.378539 
L 754.377019 170.557268 
L 755.195498 163.761421 
L 756.013977 157.965133 
L 756.423217 155.799633 
L 756.627836 155.205347 
L 756.832456 155.20426 
L 757.037076 155.933686 
L 757.446315 159.185036 
L 758.060174 164.206136 
L 758.469414 165.724887 
L 758.878653 166.941851 
L 759.287893 169.11464 
L 760.106372 174.542982 
L 761.33409 178.991634 
L 761.53871 179.168391 
L 761.74333 179.055618 
L 762.357189 178.332335 
L 763.175668 178.391176 
L 763.584907 177.812555 
L 764.198766 176.58407 
L 764.403386 176.372866 
L 764.608006 176.343857 
L 764.812625 176.505713 
L 765.426485 177.604143 
L 765.631104 177.634916 
L 766.654203 176.439525 
L 766.858823 176.530578 
L 767.472682 177.130625 
L 768.086541 176.673095 
L 768.291161 176.74957 
L 768.7004 177.391441 
L 770.746597 182.713622 
L 771.360457 182.965151 
L 771.769696 183.434613 
L 771.974316 183.476701 
L 772.178936 183.27646 
L 772.588175 182.23499 
L 773.202034 180.585096 
L 773.611274 180.21089 
L 774.225133 180.161043 
L 774.634372 179.596001 
L 775.043612 178.997541 
L 775.248231 179.043597 
L 775.862091 179.98793 
L 776.47595 180.029342 
L 776.885189 180.864429 
L 777.294429 181.703924 
L 777.499048 181.721 
L 777.703668 181.386031 
L 778.522147 179.196959 
L 778.726767 179.110726 
L 779.136006 179.610403 
L 780.159105 181.330952 
L 780.363725 181.043126 
L 780.977584 179.705306 
L 781.591443 179.132681 
L 782.000682 177.795684 
L 782.819161 174.598649 
L 783.228401 173.58557 
L 783.433021 173.316672 
L 783.63764 173.355821 
L 784.04688 173.877628 
L 784.251499 173.864667 
L 784.660739 173.039985 
L 785.069978 172.248338 
L 785.683838 172.050331 
L 786.297697 171.573726 
L 786.706936 171.189057 
L 786.911556 170.690027 
L 787.116176 169.741785 
L 787.525415 166.314588 
L 788.548514 157.339722 
L 789.776232 145.187658 
L 790.390091 137.109247 
L 791.822429 114.875863 
L 792.845528 98.839838 
L 793.459387 92.138718 
L 794.073246 87.746879 
L 794.482486 86.248437 
L 794.687106 86.190919 
L 794.891725 86.736034 
L 795.300965 89.249847 
L 796.119444 95.876636 
L 796.733303 103.768474 
L 797.347162 111.12995 
L 797.756401 113.499424 
L 798.165641 114.486521 
L 798.7795 115.290629 
L 798.98412 115.421419 
L 799.18874 115.34706 
L 800.416458 113.631742 
L 800.825697 111.801417 
L 801.439557 108.848826 
L 801.848796 107.370459 
L 802.258035 104.562678 
L 803.894993 88.335963 
L 804.099613 87.526505 
L 804.304233 87.361004 
L 804.508852 87.697767 
L 804.918092 89.403091 
L 805.327331 92.220925 
L 805.94119 98.553246 
L 806.964289 111.567729 
L 808.805867 134.184519 
L 810.647444 149.991177 
L 811.465923 153.827791 
L 812.489022 158.196234 
L 812.898261 159.334636 
L 813.307501 161.392771 
L 814.330599 168.052037 
L 814.535219 168.465657 
L 814.739839 168.580899 
L 814.944458 168.491345 
L 815.558318 167.651703 
L 815.967557 167.192409 
L 816.172177 167.147676 
L 816.376797 167.363553 
L 816.786036 168.615933 
L 817.399895 170.752365 
L 817.809135 171.416044 
L 818.013754 171.567878 
L 818.218374 171.563675 
L 818.422994 171.321787 
L 819.036853 170.063528 
L 819.241473 169.934943 
L 819.446092 169.988993 
L 819.855332 170.56491 
L 820.264571 171.159254 
L 820.469191 170.920688 
L 820.878431 169.200932 
L 821.49229 166.712983 
L 821.901529 165.736497 
L 822.310769 165.219979 
L 822.924628 164.641388 
L 823.129248 164.71366 
L 823.538487 165.856265 
L 823.947726 166.741316 
L 824.152346 166.781699 
L 824.561586 166.561531 
L 824.970825 166.290076 
L 825.175445 166.231265 
L 825.380065 166.01674 
L 825.789304 164.568821 
L 826.812403 158.879899 
L 827.221642 156.967867 
L 828.040121 154.185685 
L 828.65398 149.885869 
L 831.518656 128.425675 
L 831.723276 127.886967 
L 831.927896 127.802468 
L 832.132516 128.2401 
L 832.541755 130.301996 
L 833.155614 133.363481 
L 833.564854 134.273926 
L 833.974093 134.753852 
L 834.178713 134.723873 
L 834.383333 134.336441 
L 834.792572 132.654482 
L 835.611051 128.141258 
L 836.42953 123.710623 
L 836.838769 121.019112 
L 837.248009 115.808675 
L 837.657248 107.359437 
L 838.271107 89.744497 
L 839.089586 64.448277 
L 839.294206 60.954627 
L 839.498826 59.45551 
L 839.703445 59.765232 
L 840.112685 63.903809 
L 840.726544 73.430844 
L 842.363502 101.580431 
L 844.205079 124.585035 
L 844.818939 130.199334 
L 845.432798 133.892931 
L 846.251277 138.544968 
L 846.660516 140.405213 
L 847.274375 141.783504 
L 847.683615 142.363624 
L 848.502094 142.805282 
L 848.911333 143.825444 
L 850.139051 148.315332 
L 850.548291 148.709406 
L 851.36677 150.349659 
L 851.57139 150.192888 
L 851.980629 149.179721 
L 852.594488 146.848544 
L 853.208347 144.565833 
L 853.617587 143.877172 
L 853.822207 143.730129 
L 854.026826 143.869619 
L 854.436066 145.18228 
L 854.845305 146.736153 
L 855.254545 147.314245 
L 855.663784 147.63972 
L 856.277643 148.636428 
L 856.482263 148.710405 
L 856.686883 148.557719 
L 857.096122 147.591255 
L 857.505362 146.664586 
L 858.119221 145.491326 
L 858.73308 144.32659 
L 859.142319 143.777889 
L 859.551559 142.626908 
L 859.960798 141.10754 
L 860.370038 140.49703 
L 860.983897 140.356042 
L 861.393136 140.495473 
L 861.597756 140.392369 
L 862.416235 139.224194 
L 862.825475 139.632729 
L 863.030094 139.586585 
L 863.234714 139.15877 
L 863.643953 137.36971 
L 864.053193 135.444864 
L 864.257813 134.85916 
L 864.462432 134.6859 
L 865.076292 135.207208 
L 865.280911 135.053111 
L 865.690151 134.330269 
L 866.713249 131.963176 
L 867.531728 132.536007 
L 867.736348 132.400132 
L 868.145587 131.43308 
L 869.782545 125.58909 
L 870.396404 123.243688 
L 870.805644 121.615191 
L 871.828743 115.524317 
L 872.442602 113.995191 
L 872.851841 111.518117 
L 876.125757 81.971076 
L 877.148855 68.914652 
L 879.808912 34.697615 
L 880.422771 22.974631 
L 881.03663 7.867567 
L 881.346901 -1 
M 939.076317 -1 
L 940.171731 31.851684 
L 941.19483 56.613547 
L 942.013309 72.592818 
L 943.036407 87.88246 
L 943.854886 98.54049 
L 944.673365 109.196052 
L 947.742661 135.812986 
L 948.151901 137.828856 
L 948.56114 139.252468 
L 948.97038 141.531682 
L 949.788858 148.603981 
L 950.607337 155.021065 
L 951.016577 156.816738 
L 951.425816 157.274062 
L 951.835056 157.32097 
L 952.039675 157.186859 
L 952.858154 156.15065 
L 953.062774 156.569237 
L 953.472014 158.443383 
L 954.904352 165.961544 
L 955.518211 167.102444 
L 955.722831 167.337983 
L 955.92745 167.288812 
L 956.541309 166.176921 
L 956.745929 166.308798 
L 957.359788 167.358821 
L 957.769028 167.482263 
L 957.973647 167.690028 
L 958.382887 168.563176 
L 959.201366 170.454105 
L 960.019845 172.47988 
L 960.224464 172.39835 
L 960.838324 171.450108 
L 961.042943 171.483761 
L 961.656803 172.182355 
L 962.066042 172.757008 
L 963.089141 174.509976 
L 963.49838 174.925594 
L 963.90762 175.180003 
L 964.521479 175.943375 
L 964.726098 175.841036 
L 965.339958 175.022761 
L 965.544577 174.981848 
L 965.953817 175.30221 
L 966.363056 176.058353 
L 967.181535 178.475851 
L 967.590775 178.695872 
L 968.204634 178.785133 
L 968.613873 178.57484 
L 968.818493 178.387678 
L 969.023113 178.353438 
L 969.227732 178.659751 
L 970.250831 181.516997 
L 970.455451 181.681675 
L 970.660071 181.641321 
L 971.27393 181.117573 
L 971.683169 180.925826 
L 971.887789 180.507769 
L 972.706268 177.49331 
L 972.910888 177.251569 
L 973.115507 177.340212 
L 973.524747 177.77949 
L 973.933986 177.882741 
L 974.343226 177.931471 
L 974.547845 178.101557 
L 974.752465 178.434439 
L 975.161705 179.787395 
L 975.570944 181.633944 
L 975.775564 182.140351 
L 975.980183 182.190139 
L 976.389423 181.594384 
L 977.003282 180.417538 
L 977.207902 180.336684 
L 977.412522 180.535396 
L 978.231 182.021141 
L 978.43562 181.86628 
L 979.049479 180.75627 
L 979.663339 180.671888 
L 980.277198 179.565816 
L 980.686437 179.380389 
L 981.504916 179.368074 
L 981.914156 179.433087 
L 982.732634 178.970237 
L 984.164973 180.404312 
L 984.778832 180.671183 
L 985.188071 180.935232 
L 985.597311 181.273875 
L 985.80193 181.279988 
L 986.21117 180.812671 
L 986.620409 179.706688 
L 987.438888 176.665013 
L 987.848128 176.27999 
L 988.257367 176.249747 
L 988.461987 176.243369 
L 988.666607 176.081395 
L 989.075846 175.286192 
L 989.485085 174.004891 
L 990.303564 171.233437 
L 990.712804 170.072081 
L 991.122043 168.18994 
L 991.735902 163.700053 
L 992.963621 153.486091 
L 993.168241 152.752727 
L 993.37286 152.574029 
L 993.7821 153.13819 
L 994.600579 154.401944 
L 995.009818 155.019684 
L 995.623677 155.220248 
L 995.828297 155.597364 
L 996.237536 157.074174 
L 997.465255 161.937004 
L 998.079114 163.629309 
L 998.283734 163.831724 
L 998.488353 163.607148 
L 998.897593 162.236381 
L 999.306832 160.368377 
L 999.716072 157.362706 
L 1000.125311 152.590665 
L 1000.73917 142.026891 
L 1001.35303 127.816664 
L 1002.376128 101.71657 
L 1002.785368 96.786993 
L 1002.989987 96.515156 
L 1003.194607 97.664432 
L 1003.603847 103.280848 
L 1005.445424 136.23654 
L 1006.673142 155.448881 
L 1007.287002 161.906702 
L 1007.696241 164.564472 
L 1007.900861 165.242493 
L 1008.105481 165.498224 
L 1008.3101 165.276322 
L 1008.71934 163.664666 
L 1009.128579 160.955903 
L 1009.537819 156.913376 
L 1010.151678 147.74156 
L 1010.765537 134.695452 
L 1011.993255 105.312736 
L 1012.197875 103.719038 
L 1012.402495 103.533111 
L 1012.607115 104.647735 
L 1013.016354 109.668953 
L 1016.08565 158.026384 
L 1016.904129 166.147089 
L 1017.722608 172.176624 
L 1018.336467 175.011357 
L 1018.541087 175.548507 
L 1018.745706 175.715624 
L 1018.950326 175.374101 
L 1019.154946 174.432119 
L 1021.610383 157.126666 
L 1021.815002 156.913229 
L 1022.019622 157.223892 
L 1023.45196 161.652734 
L 1023.8612 163.858794 
L 1024.475059 168.782169 
L 1025.293538 175.621573 
L 1025.702777 177.846355 
L 1026.316636 180.00098 
L 1026.930495 183.57472 
L 1027.135115 184.140262 
L 1027.339735 184.29286 
L 1027.544355 184.152077 
L 1027.953594 183.351877 
L 1028.567453 182.207362 
L 1028.772073 182.087036 
L 1028.976693 182.09841 
L 1029.385932 182.441168 
L 1029.795172 182.804176 
L 1029.999791 182.765468 
L 1030.409031 182.096323 
L 1030.81827 181.38027 
L 1031.02289 181.241868 
L 1031.636749 181.408045 
L 1031.841369 181.455394 
L 1032.045989 181.709538 
L 1032.659848 183.224585 
L 1033.273707 183.575572 
L 1034.092186 185.71415 
L 1034.296806 185.677352 
L 1034.706045 184.859313 
L 1035.319904 183.337593 
L 1035.729144 182.863781 
L 1036.138383 182.773316 
L 1036.547623 182.87877 
L 1037.161482 183.252007 
L 1037.775341 183.124244 
L 1037.979961 182.986724 
L 1038.3892 182.200485 
L 1038.79844 181.33007 
L 1039.003059 181.138588 
L 1039.207679 181.159044 
L 1039.616918 181.6626 
L 1041.458496 185.267671 
L 1041.663116 185.227406 
L 1041.867735 184.887793 
L 1043.095454 181.847528 
L 1043.300074 182.026872 
L 1043.913933 183.505857 
L 1044.937031 185.971762 
L 1045.141651 186.118129 
L 1045.346271 185.892642 
L 1045.75551 185.059642 
L 1045.96013 184.884031 
L 1046.16475 184.954157 
L 1046.778609 185.577247 
L 1046.983229 185.369041 
L 1047.392468 184.653576 
L 1047.597088 184.602641 
L 1048.006327 185.006973 
L 1048.415567 185.505738 
L 1048.620186 185.543476 
L 1049.029426 185.393435 
L 1049.234046 185.578158 
L 1049.643285 186.96653 
L 1050.052525 188.453127 
L 1050.257144 188.707271 
L 1050.666384 188.814607 
L 1051.280243 189.118422 
L 1051.689482 189.055819 
L 1052.507961 188.143052 
L 1052.917201 188.209388 
L 1053.12182 188.01861 
L 1053.940299 186.555321 
L 1054.144919 186.659982 
L 1054.554159 187.47038 
L 1054.963398 189.074306 
L 1055.372637 190.825157 
L 1055.781877 191.64981 
L 1055.986497 191.69569 
L 1056.804976 191.237396 
L 1057.214215 191.489306 
L 1057.623454 192.023429 
L 1057.828074 192.077538 
L 1058.032694 191.807611 
L 1058.441933 190.594115 
L 1059.055793 188.624388 
L 1059.465032 187.754914 
L 1059.669652 187.631325 
L 1059.874271 187.853139 
L 1060.488131 188.959358 
L 1061.511229 189.762908 
L 1062.329708 189.667975 
L 1062.738948 189.531836 
L 1062.943567 189.758382 
L 1063.352807 190.910685 
L 1063.966666 193.044031 
L 1064.171286 193.208562 
L 1064.375905 192.907833 
L 1064.785145 191.23575 
L 1065.399004 188.327745 
L 1066.217483 186.017348 
L 1066.422103 185.846939 
L 1066.626722 186.007267 
L 1067.035962 186.831684 
L 1068.059061 189.455008 
L 1068.26368 189.619832 
L 1068.4683 189.607429 
L 1068.877539 189.244891 
L 1069.286779 188.93173 
L 1069.696018 189.087032 
L 1069.900638 189.225787 
L 1070.105258 189.203039 
L 1070.309878 188.869774 
L 1070.719117 187.732019 
L 1070.923737 187.550206 
L 1071.128356 187.842794 
L 1071.742216 189.226669 
L 1071.946835 189.308258 
L 1072.151455 189.223554 
L 1072.765314 188.464707 
L 1072.969934 188.469909 
L 1073.788413 189.335181 
L 1074.402272 190.145549 
L 1075.425371 190.740364 
L 1076.03923 192.150016 
L 1076.24385 191.988659 
L 1077.062328 189.232723 
L 1077.266948 189.324659 
L 1078.494667 190.846231 
L 1078.903906 191.193192 
L 1079.108526 191.084298 
L 1079.313145 190.628061 
L 1079.927005 188.44334 
L 1080.131624 188.261733 
L 1080.336244 188.431907 
L 1081.154723 189.900517 
L 1081.563962 190.212414 
L 1081.973202 190.945837 
L 1082.382441 191.706711 
L 1082.791681 192.051909 
L 1083.20092 192.07983 
L 1083.61016 191.957681 
L 1083.814779 192.108663 
L 1084.224019 193.151338 
L 1084.633258 194.21494 
L 1084.837878 194.281657 
L 1085.042498 193.934197 
L 1085.860977 191.071454 
L 1086.679456 188.243951 
L 1086.884075 188.117423 
L 1087.293315 188.194957 
L 1087.497935 188.017729 
L 1088.111794 187.224524 
L 1088.316413 187.424618 
L 1088.725653 188.656483 
L 1089.339512 190.778837 
L 1089.544132 191.089471 
L 1089.748752 191.136261 
L 1090.56723 190.86172 
L 1091.18109 189.952127 
L 1091.999569 188.011028 
L 1092.204188 188.173325 
L 1092.818047 189.067017 
L 1093.227287 189.378679 
L 1093.636526 189.257471 
L 1094.864245 188.316077 
L 1095.273484 188.42594 
L 1095.478104 188.303057 
L 1095.887343 187.494451 
L 1096.705822 185.30491 
L 1096.910442 185.259001 
L 1097.319681 185.595087 
L 1097.728921 186.208389 
L 1098.13816 187.21412 
L 1099.161259 190.553467 
L 1099.365879 190.323923 
L 1099.979738 189.116482 
L 1100.184358 188.905278 
L 1100.388977 188.523695 
L 1101.207456 185.777987 
L 1101.412076 185.704363 
L 1102.844414 186.905603 
L 1103.049034 187.143993 
L 1103.253654 187.21168 
L 1103.662893 187.056878 
L 1103.867513 187.169269 
L 1104.276752 188.156925 
L 1104.890611 189.744832 
L 1105.095231 189.782806 
L 1105.299851 189.467881 
L 1105.91371 187.651752 
L 1106.732189 184.976553 
L 1107.755288 182.478641 
L 1108.573766 179.358522 
L 1108.778386 179.253478 
L 1109.187626 179.862724 
L 1109.392245 180.130476 
L 1109.596865 180.104759 
L 1109.801485 179.765675 
L 1110.210724 178.413189 
L 1112.256921 170.167837 
L 1113.28002 163.57179 
L 1113.68926 160.534642 
L 1114.303119 153.983093 
L 1115.530837 136.897749 
L 1116.963175 115.227674 
L 1117.781654 106.487876 
L 1118.395513 97.226213 
L 1119.009372 85.161852 
L 1119.623232 68.440075 
L 1120.237091 42.606058 
L 1120.85095 3.427174 
L 1120.903675 -1 
M 1126.827912 -1 
L 1127.808021 56.342297 
L 1128.6265 92.219896 
L 1129.240359 111.452282 
L 1129.854218 125.566224 
L 1130.672697 139.615947 
L 1131.900415 153.75349 
L 1133.332753 170.35012 
L 1133.741993 172.149849 
L 1134.355852 172.961276 
L 1135.378951 175.672802 
L 1135.78819 176.155519 
L 1136.19743 176.393498 
L 1136.402049 176.81955 
L 1137.425148 180.339446 
L 1137.629768 180.186554 
L 1138.448247 178.69308 
L 1138.652866 178.662601 
L 1139.062106 179.004478 
L 1139.471345 179.815963 
L 1139.880585 181.213535 
L 1140.494444 183.629035 
L 1140.699064 184.112958 
L 1140.903683 184.278017 
L 1141.108303 184.116631 
L 1141.517542 183.50474 
L 1141.722162 183.426207 
L 1142.131402 183.499773 
L 1142.336021 183.361988 
L 1142.949881 182.536571 
L 1143.1545 182.556645 
L 1143.35912 182.838887 
L 1144.177599 184.527136 
L 1144.382219 184.385882 
L 1144.791458 183.394965 
L 1145.200698 182.354082 
L 1145.405317 182.355728 
L 1145.814557 182.953806 
L 1146.019176 182.976525 
L 1146.428416 182.219442 
L 1146.633036 181.835184 
L 1146.837655 181.795212 
L 1147.042275 182.325103 
L 1147.451515 185.005239 
L 1147.860754 187.684905 
L 1148.269993 188.916388 
L 1148.474613 189.034393 
L 1148.679233 188.800646 
L 1149.702331 186.573543 
L 1150.52081 185.140878 
L 1150.72543 185.385147 
L 1151.13467 186.857666 
L 1151.543909 188.482783 
L 1151.748529 188.926646 
L 1151.953148 189.085592 
L 1152.157768 189.003621 
L 1152.362388 188.646197 
L 1152.771627 187.091736 
L 1153.590106 183.732315 
L 1153.794726 183.189639 
L 1153.999346 183.128623 
L 1154.203965 183.678088 
L 1155.022444 187.481314 
L 1155.431684 188.137703 
L 1156.045543 188.620039 
L 1156.659402 188.736398 
L 1157.068642 188.652398 
L 1157.887121 188.239366 
L 1158.09174 188.466911 
L 1158.29636 188.984223 
L 1158.705599 191.160773 
L 1159.319459 194.823216 
L 1159.524078 195.152601 
L 1159.728698 194.831445 
L 1160.137938 192.651808 
L 1160.751797 189.055731 
L 1161.161036 187.797208 
L 1162.184135 185.618864 
L 1162.388755 185.572574 
L 1162.797994 185.966148 
L 1163.207233 186.67312 
L 1164.230332 188.908776 
L 1164.639572 189.639348 
L 1165.048811 190.482605 
L 1165.253431 190.475816 
L 1165.45805 189.963884 
L 1166.07191 187.800647 
L 1166.276529 187.886851 
L 1166.685769 188.985751 
L 1167.504248 191.475463 
L 1167.913487 192.145813 
L 1168.322727 192.324157 
L 1168.731966 192.429554 
L 1169.550445 192.830653 
L 1169.755065 192.734956 
L 1170.164304 191.955359 
L 1170.573544 191.260938 
L 1170.982783 190.767316 
L 1171.392023 189.022255 
L 1171.801262 186.802587 
L 1172.210501 185.711887 
L 1172.415121 185.634706 
L 1173.02898 186.069722 
L 1173.847459 185.72526 
L 1174.052079 185.814873 
L 1174.256699 186.114132 
L 1175.279797 188.479608 
L 1175.689037 188.350582 
L 1176.712135 187.941547 
L 1177.121375 188.063344 
L 1177.325995 188.252269 
L 1177.735234 189.26088 
L 1178.553713 191.576186 
L 1178.962952 192.153719 
L 1179.167572 192.072894 
L 1179.781431 191.403308 
L 1179.986051 191.629325 
L 1180.395291 192.436872 
L 1180.59991 192.527543 
L 1180.80453 192.300909 
L 1181.418389 190.755236 
L 1182.236868 188.610839 
L 1182.646108 187.971556 
L 1182.850727 187.938255 
L 1183.055347 188.158482 
L 1184.283065 190.713677 
L 1184.692305 191.025839 
L 1184.896925 191.045384 
L 1184.896925 191.045384 
" clip-path="url(#p974af9b2f4)" style="fill: none; stroke: #000000; stroke-width: 2; stroke-linecap: square"/>
   </g>
   <g id="patch_3">
    <path d="M 3.00024 198.907885 
L 1184.99976 198.907885 
" style="fill: none; stroke: #000000; stroke-width: 2; stroke-linejoin: miter; stroke-linecap: square"/>
   </g>
  </g>
 </g>
 <defs>
  <clipPath id="p974af9b2f4">
   <rect x="3.00024" y="3.00024" width="1181.99952" height="195.907645"/>
  </clipPath>
 </defs>
</svg>
