<?xml version="1.0" encoding="utf-8" standalone="no"?>
<!DOCTYPE svg PUBLIC "-//W3C//DTD SVG 1.1//EN"
  "http://www.w3.org/Graphics/SVG/1.1/DTD/svg11.dtd">
<svg xmlns:xlink="http://www.w3.org/1999/xlink" width="1188pt" height="252pt" viewBox="0 0 1188 252" xmlns="http://www.w3.org/2000/svg" version="1.1">
 <metadata>
  <rdf:RDF xmlns:dc="http://purl.org/dc/elements/1.1/" xmlns:cc="http://creativecommons.org/ns#" xmlns:rdf="http://www.w3.org/1999/02/22-rdf-syntax-ns#">
   <cc:Work>
    <dc:type rdf:resource="http://purl.org/dc/dcmitype/StillImage"/>
    <dc:date>2024-07-23T22:01:38.167938</dc:date>
    <dc:format>image/svg+xml</dc:format>
    <dc:creator>
     <cc:Agent>
      <dc:title>Matplotlib v3.8.4, https://matplotlib.org/</dc:title>
     </cc:Agent>
    </dc:creator>
   </cc:Work>
  </rdf:RDF>
 </metadata>
 <defs>
  <style type="text/css">*{stroke-linejoin: round; stroke-linecap: butt}</style>
 </defs>
 <g id="figure_1">
  <g id="patch_1">
   <path d="M 0 252 
L 1188 252 
L 1188 0 
L 0 0 
z
" style="fill: #ffffff"/>
  </g>
  <g id="axes_1">
   <g id="patch_2">
    <path d="M 3.00024 198.907885 
L 1184.99976 198.907885 
L 1184.99976 3.00024 
L 3.00024 3.00024 
z
" style="fill: #ffffff"/>
   </g>
   <g id="matplotlib.axis_1">
    <g id="xtick_1">
     <g id="line2d_1">
      <defs>
       <path id="mc4458c64b1" d="M 0 0 
L 0 8 
" style="stroke: #000000; stroke-width: 2"/>
      </defs>
      <g>
       <use xlink:href="#mc4458c64b1" x="1131.272509" y="198.907885" style="stroke: #000000; stroke-width: 2"/>
      </g>
     </g>
     <g id="text_1">
      <!-- 0 -->
      <g transform="translate(1126.267665 224.791947) scale(0.18 -0.18)">
       <defs>
        <path id="Arial-BoldMT-30" d="M 1756 4600 
Q 2422 4600 2797 4125 
Q 3244 3563 3244 2259 
Q 3244 959 2794 391 
Q 2422 -78 1756 -78 
Q 1088 -78 678 436 
Q 269 950 269 2269 
Q 269 3563 719 4131 
Q 1091 4600 1756 4600 
z
M 1756 3872 
Q 1597 3872 1472 3770 
Q 1347 3669 1278 3406 
Q 1188 3066 1188 2259 
Q 1188 1453 1269 1151 
Q 1350 850 1473 750 
Q 1597 650 1756 650 
Q 1916 650 2041 751 
Q 2166 853 2234 1116 
Q 2325 1453 2325 2259 
Q 2325 3066 2244 3367 
Q 2163 3669 2039 3770 
Q 1916 3872 1756 3872 
z
" transform="scale(0.015625)"/>
       </defs>
       <use xlink:href="#Arial-BoldMT-30"/>
      </g>
     </g>
    </g>
    <g id="xtick_2">
     <g id="line2d_2">
      <g>
       <use xlink:href="#mc4458c64b1" x="1023.818007" y="198.907885" style="stroke: #000000; stroke-width: 2"/>
      </g>
     </g>
     <g id="text_2">
      <!-- 1 -->
      <g transform="translate(1018.813164 224.791947) scale(0.18 -0.18)">
       <defs>
        <path id="Arial-BoldMT-31" d="M 2519 0 
L 1641 0 
L 1641 3309 
Q 1159 2859 506 2644 
L 506 3441 
Q 850 3553 1253 3867 
Q 1656 4181 1806 4600 
L 2519 4600 
L 2519 0 
z
" transform="scale(0.015625)"/>
       </defs>
       <use xlink:href="#Arial-BoldMT-31"/>
      </g>
     </g>
    </g>
    <g id="xtick_3">
     <g id="line2d_3">
      <g>
       <use xlink:href="#mc4458c64b1" x="916.363505" y="198.907885" style="stroke: #000000; stroke-width: 2"/>
      </g>
     </g>
     <g id="text_3">
      <!-- 2 -->
      <g transform="translate(911.358662 224.791947) scale(0.18 -0.18)">
       <defs>
        <path id="Arial-BoldMT-32" d="M 3238 816 
L 3238 0 
L 159 0 
Q 209 463 459 877 
Q 709 1291 1447 1975 
Q 2041 2528 2175 2725 
Q 2356 2997 2356 3263 
Q 2356 3556 2198 3714 
Q 2041 3872 1763 3872 
Q 1488 3872 1325 3706 
Q 1163 3541 1138 3156 
L 263 3244 
Q 341 3969 753 4284 
Q 1166 4600 1784 4600 
Q 2463 4600 2850 4234 
Q 3238 3869 3238 3325 
Q 3238 3016 3127 2736 
Q 3016 2456 2775 2150 
Q 2616 1947 2200 1565 
Q 1784 1184 1673 1059 
Q 1563 934 1494 816 
L 3238 816 
z
" transform="scale(0.015625)"/>
       </defs>
       <use xlink:href="#Arial-BoldMT-32"/>
      </g>
     </g>
    </g>
    <g id="xtick_4">
     <g id="line2d_4">
      <g>
       <use xlink:href="#mc4458c64b1" x="808.909004" y="198.907885" style="stroke: #000000; stroke-width: 2"/>
      </g>
     </g>
     <g id="text_4">
      <!-- 3 -->
      <g transform="translate(803.90416 224.791947) scale(0.18 -0.18)">
       <defs>
        <path id="Arial-BoldMT-33" d="M 241 1216 
L 1091 1319 
Q 1131 994 1309 822 
Q 1488 650 1741 650 
Q 2013 650 2198 856 
Q 2384 1063 2384 1413 
Q 2384 1744 2206 1937 
Q 2028 2131 1772 2131 
Q 1603 2131 1369 2066 
L 1466 2781 
Q 1822 2772 2009 2936 
Q 2197 3100 2197 3372 
Q 2197 3603 2059 3740 
Q 1922 3878 1694 3878 
Q 1469 3878 1309 3722 
Q 1150 3566 1116 3266 
L 306 3403 
Q 391 3819 561 4067 
Q 731 4316 1036 4458 
Q 1341 4600 1719 4600 
Q 2366 4600 2756 4188 
Q 3078 3850 3078 3425 
Q 3078 2822 2419 2463 
Q 2813 2378 3048 2084 
Q 3284 1791 3284 1375 
Q 3284 772 2843 347 
Q 2403 -78 1747 -78 
Q 1125 -78 715 280 
Q 306 638 241 1216 
z
" transform="scale(0.015625)"/>
       </defs>
       <use xlink:href="#Arial-BoldMT-33"/>
      </g>
     </g>
    </g>
    <g id="xtick_5">
     <g id="line2d_5">
      <g>
       <use xlink:href="#mc4458c64b1" x="701.454502" y="198.907885" style="stroke: #000000; stroke-width: 2"/>
      </g>
     </g>
     <g id="text_5">
      <!-- 4 -->
      <g transform="translate(696.449658 224.791947) scale(0.18 -0.18)">
       <defs>
        <path id="Arial-BoldMT-34" d="M 1994 0 
L 1994 922 
L 119 922 
L 119 1691 
L 2106 4600 
L 2844 4600 
L 2844 1694 
L 3413 1694 
L 3413 922 
L 2844 922 
L 2844 0 
L 1994 0 
z
M 1994 1694 
L 1994 3259 
L 941 1694 
L 1994 1694 
z
" transform="scale(0.015625)"/>
       </defs>
       <use xlink:href="#Arial-BoldMT-34"/>
      </g>
     </g>
    </g>
    <g id="xtick_6">
     <g id="line2d_6">
      <g>
       <use xlink:href="#mc4458c64b1" x="594" y="198.907885" style="stroke: #000000; stroke-width: 2"/>
      </g>
     </g>
     <g id="text_6">
      <!-- 5 -->
      <g transform="translate(588.995156 224.791947) scale(0.18 -0.18)">
       <defs>
        <path id="Arial-BoldMT-35" d="M 284 1178 
L 1159 1269 
Q 1197 972 1381 798 
Q 1566 625 1806 625 
Q 2081 625 2272 848 
Q 2463 1072 2463 1522 
Q 2463 1944 2273 2155 
Q 2084 2366 1781 2366 
Q 1403 2366 1103 2031 
L 391 2134 
L 841 4519 
L 3163 4519 
L 3163 3697 
L 1506 3697 
L 1369 2919 
Q 1663 3066 1969 3066 
Q 2553 3066 2959 2641 
Q 3366 2216 3366 1538 
Q 3366 972 3038 528 
Q 2591 -78 1797 -78 
Q 1163 -78 763 262 
Q 363 603 284 1178 
z
" transform="scale(0.015625)"/>
       </defs>
       <use xlink:href="#Arial-BoldMT-35"/>
      </g>
     </g>
    </g>
    <g id="xtick_7">
     <g id="line2d_7">
      <g>
       <use xlink:href="#mc4458c64b1" x="486.545498" y="198.907885" style="stroke: #000000; stroke-width: 2"/>
      </g>
     </g>
     <g id="text_7">
      <!-- 6 -->
      <g transform="translate(481.540654 224.791947) scale(0.18 -0.18)">
       <defs>
        <path id="Arial-BoldMT-36" d="M 3247 3459 
L 2397 3366 
Q 2366 3628 2234 3753 
Q 2103 3878 1894 3878 
Q 1616 3878 1423 3628 
Q 1231 3378 1181 2588 
Q 1509 2975 1997 2975 
Q 2547 2975 2939 2556 
Q 3331 2138 3331 1475 
Q 3331 772 2918 347 
Q 2506 -78 1859 -78 
Q 1166 -78 719 461 
Q 272 1000 272 2228 
Q 272 3488 737 4044 
Q 1203 4600 1947 4600 
Q 2469 4600 2811 4308 
Q 3153 4016 3247 3459 
z
M 1256 1544 
Q 1256 1116 1453 883 
Q 1650 650 1903 650 
Q 2147 650 2309 840 
Q 2472 1031 2472 1466 
Q 2472 1913 2297 2120 
Q 2122 2328 1859 2328 
Q 1606 2328 1431 2129 
Q 1256 1931 1256 1544 
z
" transform="scale(0.015625)"/>
       </defs>
       <use xlink:href="#Arial-BoldMT-36"/>
      </g>
     </g>
    </g>
    <g id="xtick_8">
     <g id="line2d_8">
      <g>
       <use xlink:href="#mc4458c64b1" x="379.090996" y="198.907885" style="stroke: #000000; stroke-width: 2"/>
      </g>
     </g>
     <g id="text_8">
      <!-- 7 -->
      <g transform="translate(374.086153 224.791947) scale(0.18 -0.18)">
       <defs>
        <path id="Arial-BoldMT-37" d="M 272 3703 
L 272 4519 
L 3275 4519 
L 3275 3881 
Q 2903 3516 2518 2831 
Q 2134 2147 1932 1376 
Q 1731 606 1734 0 
L 888 0 
Q 909 950 1279 1937 
Q 1650 2925 2269 3703 
L 272 3703 
z
" transform="scale(0.015625)"/>
       </defs>
       <use xlink:href="#Arial-BoldMT-37"/>
      </g>
     </g>
    </g>
    <g id="xtick_9">
     <g id="line2d_9">
      <g>
       <use xlink:href="#mc4458c64b1" x="271.636495" y="198.907885" style="stroke: #000000; stroke-width: 2"/>
      </g>
     </g>
     <g id="text_9">
      <!-- 8 -->
      <g transform="translate(266.631651 224.791947) scale(0.18 -0.18)">
       <defs>
        <path id="Arial-BoldMT-38" d="M 1025 2472 
Q 684 2616 529 2867 
Q 375 3119 375 3419 
Q 375 3931 733 4265 
Q 1091 4600 1750 4600 
Q 2403 4600 2764 4265 
Q 3125 3931 3125 3419 
Q 3125 3100 2959 2851 
Q 2794 2603 2494 2472 
Q 2875 2319 3073 2025 
Q 3272 1731 3272 1347 
Q 3272 713 2867 316 
Q 2463 -81 1791 -81 
Q 1166 -81 750 247 
Q 259 634 259 1309 
Q 259 1681 443 1992 
Q 628 2303 1025 2472 
z
M 1206 3356 
Q 1206 3094 1354 2947 
Q 1503 2800 1750 2800 
Q 2000 2800 2150 2948 
Q 2300 3097 2300 3359 
Q 2300 3606 2151 3754 
Q 2003 3903 1759 3903 
Q 1506 3903 1356 3753 
Q 1206 3603 1206 3356 
z
M 1125 1394 
Q 1125 1031 1311 828 
Q 1497 625 1775 625 
Q 2047 625 2225 820 
Q 2403 1016 2403 1384 
Q 2403 1706 2222 1901 
Q 2041 2097 1763 2097 
Q 1441 2097 1283 1875 
Q 1125 1653 1125 1394 
z
" transform="scale(0.015625)"/>
       </defs>
       <use xlink:href="#Arial-BoldMT-38"/>
      </g>
     </g>
    </g>
    <g id="xtick_10">
     <g id="line2d_10">
      <g>
       <use xlink:href="#mc4458c64b1" x="164.181993" y="198.907885" style="stroke: #000000; stroke-width: 2"/>
      </g>
     </g>
     <g id="text_10">
      <!-- 9 -->
      <g transform="translate(159.177149 224.791947) scale(0.18 -0.18)">
       <defs>
        <path id="Arial-BoldMT-39" d="M 291 1059 
L 1141 1153 
Q 1172 894 1303 769 
Q 1434 644 1650 644 
Q 1922 644 2112 894 
Q 2303 1144 2356 1931 
Q 2025 1547 1528 1547 
Q 988 1547 595 1964 
Q 203 2381 203 3050 
Q 203 3747 617 4173 
Q 1031 4600 1672 4600 
Q 2369 4600 2816 4061 
Q 3263 3522 3263 2288 
Q 3263 1031 2797 475 
Q 2331 -81 1584 -81 
Q 1047 -81 715 205 
Q 384 491 291 1059 
z
M 2278 2978 
Q 2278 3403 2083 3637 
Q 1888 3872 1631 3872 
Q 1388 3872 1227 3680 
Q 1066 3488 1066 3050 
Q 1066 2606 1241 2398 
Q 1416 2191 1678 2191 
Q 1931 2191 2104 2391 
Q 2278 2591 2278 2978 
z
" transform="scale(0.015625)"/>
       </defs>
       <use xlink:href="#Arial-BoldMT-39"/>
      </g>
     </g>
    </g>
    <g id="xtick_11">
     <g id="line2d_11">
      <g>
       <use xlink:href="#mc4458c64b1" x="56.727491" y="198.907885" style="stroke: #000000; stroke-width: 2"/>
      </g>
     </g>
     <g id="text_11">
      <!-- 10 -->
      <g transform="translate(46.717803 224.791947) scale(0.18 -0.18)">
       <use xlink:href="#Arial-BoldMT-31"/>
       <use xlink:href="#Arial-BoldMT-30" x="55.615234"/>
      </g>
     </g>
    </g>
    <g id="text_12">
     <!-- Chemical Shift / ppm -->
     <g transform="translate(504.992813 245.447573) scale(0.18 -0.18)">
      <defs>
       <path id="Arial-BoldMT-43" d="M 3397 1684 
L 4294 1400 
Q 4088 650 3608 286 
Q 3128 -78 2391 -78 
Q 1478 -78 890 545 
Q 303 1169 303 2250 
Q 303 3394 893 4026 
Q 1484 4659 2447 4659 
Q 3288 4659 3813 4163 
Q 4125 3869 4281 3319 
L 3366 3100 
Q 3284 3456 3026 3662 
Q 2769 3869 2400 3869 
Q 1891 3869 1573 3503 
Q 1256 3138 1256 2319 
Q 1256 1450 1568 1081 
Q 1881 713 2381 713 
Q 2750 713 3015 947 
Q 3281 1181 3397 1684 
z
" transform="scale(0.015625)"/>
       <path id="Arial-BoldMT-68" d="M 1334 4581 
L 1334 2897 
Q 1759 3394 2350 3394 
Q 2653 3394 2897 3281 
Q 3141 3169 3264 2994 
Q 3388 2819 3433 2606 
Q 3478 2394 3478 1947 
L 3478 0 
L 2600 0 
L 2600 1753 
Q 2600 2275 2550 2415 
Q 2500 2556 2373 2639 
Q 2247 2722 2056 2722 
Q 1838 2722 1666 2615 
Q 1494 2509 1414 2295 
Q 1334 2081 1334 1663 
L 1334 0 
L 456 0 
L 456 4581 
L 1334 4581 
z
" transform="scale(0.015625)"/>
       <path id="Arial-BoldMT-65" d="M 2381 1056 
L 3256 909 
Q 3088 428 2723 176 
Q 2359 -75 1813 -75 
Q 947 -75 531 491 
Q 203 944 203 1634 
Q 203 2459 634 2926 
Q 1066 3394 1725 3394 
Q 2466 3394 2894 2905 
Q 3322 2416 3303 1406 
L 1103 1406 
Q 1113 1016 1316 798 
Q 1519 581 1822 581 
Q 2028 581 2168 693 
Q 2309 806 2381 1056 
z
M 2431 1944 
Q 2422 2325 2234 2523 
Q 2047 2722 1778 2722 
Q 1491 2722 1303 2513 
Q 1116 2303 1119 1944 
L 2431 1944 
z
" transform="scale(0.015625)"/>
       <path id="Arial-BoldMT-6d" d="M 394 3319 
L 1203 3319 
L 1203 2866 
Q 1638 3394 2238 3394 
Q 2556 3394 2790 3262 
Q 3025 3131 3175 2866 
Q 3394 3131 3647 3262 
Q 3900 3394 4188 3394 
Q 4553 3394 4806 3245 
Q 5059 3097 5184 2809 
Q 5275 2597 5275 2122 
L 5275 0 
L 4397 0 
L 4397 1897 
Q 4397 2391 4306 2534 
Q 4184 2722 3931 2722 
Q 3747 2722 3584 2609 
Q 3422 2497 3350 2280 
Q 3278 2063 3278 1594 
L 3278 0 
L 2400 0 
L 2400 1819 
Q 2400 2303 2353 2443 
Q 2306 2584 2207 2653 
Q 2109 2722 1941 2722 
Q 1738 2722 1575 2612 
Q 1413 2503 1342 2297 
Q 1272 2091 1272 1613 
L 1272 0 
L 394 0 
L 394 3319 
z
" transform="scale(0.015625)"/>
       <path id="Arial-BoldMT-69" d="M 459 3769 
L 459 4581 
L 1338 4581 
L 1338 3769 
L 459 3769 
z
M 459 0 
L 459 3319 
L 1338 3319 
L 1338 0 
L 459 0 
z
" transform="scale(0.015625)"/>
       <path id="Arial-BoldMT-63" d="M 3353 2338 
L 2488 2181 
Q 2444 2441 2289 2572 
Q 2134 2703 1888 2703 
Q 1559 2703 1364 2476 
Q 1169 2250 1169 1719 
Q 1169 1128 1367 884 
Q 1566 641 1900 641 
Q 2150 641 2309 783 
Q 2469 925 2534 1272 
L 3397 1125 
Q 3263 531 2881 228 
Q 2500 -75 1859 -75 
Q 1131 -75 698 384 
Q 266 844 266 1656 
Q 266 2478 700 2936 
Q 1134 3394 1875 3394 
Q 2481 3394 2839 3133 
Q 3197 2872 3353 2338 
z
" transform="scale(0.015625)"/>
       <path id="Arial-BoldMT-61" d="M 1116 2306 
L 319 2450 
Q 453 2931 781 3162 
Q 1109 3394 1756 3394 
Q 2344 3394 2631 3255 
Q 2919 3116 3036 2902 
Q 3153 2688 3153 2116 
L 3144 1091 
Q 3144 653 3186 445 
Q 3228 238 3344 0 
L 2475 0 
Q 2441 88 2391 259 
Q 2369 338 2359 363 
Q 2134 144 1878 34 
Q 1622 -75 1331 -75 
Q 819 -75 523 203 
Q 228 481 228 906 
Q 228 1188 362 1408 
Q 497 1628 739 1745 
Q 981 1863 1438 1950 
Q 2053 2066 2291 2166 
L 2291 2253 
Q 2291 2506 2166 2614 
Q 2041 2722 1694 2722 
Q 1459 2722 1328 2630 
Q 1197 2538 1116 2306 
z
M 2291 1594 
Q 2122 1538 1756 1459 
Q 1391 1381 1278 1306 
Q 1106 1184 1106 997 
Q 1106 813 1243 678 
Q 1381 544 1594 544 
Q 1831 544 2047 700 
Q 2206 819 2256 991 
Q 2291 1103 2291 1419 
L 2291 1594 
z
" transform="scale(0.015625)"/>
       <path id="Arial-BoldMT-6c" d="M 459 0 
L 459 4581 
L 1338 4581 
L 1338 0 
L 459 0 
z
" transform="scale(0.015625)"/>
       <path id="Arial-BoldMT-20" transform="scale(0.015625)"/>
       <path id="Arial-BoldMT-53" d="M 231 1491 
L 1131 1578 
Q 1213 1125 1461 912 
Q 1709 700 2131 700 
Q 2578 700 2804 889 
Q 3031 1078 3031 1331 
Q 3031 1494 2936 1608 
Q 2841 1722 2603 1806 
Q 2441 1863 1863 2006 
Q 1119 2191 819 2459 
Q 397 2838 397 3381 
Q 397 3731 595 4036 
Q 794 4341 1167 4500 
Q 1541 4659 2069 4659 
Q 2931 4659 3367 4281 
Q 3803 3903 3825 3272 
L 2900 3231 
Q 2841 3584 2645 3739 
Q 2450 3894 2059 3894 
Q 1656 3894 1428 3728 
Q 1281 3622 1281 3444 
Q 1281 3281 1419 3166 
Q 1594 3019 2269 2859 
Q 2944 2700 3267 2529 
Q 3591 2359 3773 2064 
Q 3956 1769 3956 1334 
Q 3956 941 3737 597 
Q 3519 253 3119 86 
Q 2719 -81 2122 -81 
Q 1253 -81 787 320 
Q 322 722 231 1491 
z
" transform="scale(0.015625)"/>
       <path id="Arial-BoldMT-66" d="M 75 3319 
L 563 3319 
L 563 3569 
Q 563 3988 652 4194 
Q 741 4400 980 4529 
Q 1219 4659 1584 4659 
Q 1959 4659 2319 4547 
L 2200 3934 
Q 1991 3984 1797 3984 
Q 1606 3984 1523 3895 
Q 1441 3806 1441 3553 
L 1441 3319 
L 2097 3319 
L 2097 2628 
L 1441 2628 
L 1441 0 
L 563 0 
L 563 2628 
L 75 2628 
L 75 3319 
z
" transform="scale(0.015625)"/>
       <path id="Arial-BoldMT-74" d="M 1981 3319 
L 1981 2619 
L 1381 2619 
L 1381 1281 
Q 1381 875 1398 808 
Q 1416 741 1477 697 
Q 1538 653 1625 653 
Q 1747 653 1978 738 
L 2053 56 
Q 1747 -75 1359 -75 
Q 1122 -75 931 4 
Q 741 84 652 211 
Q 563 338 528 553 
Q 500 706 500 1172 
L 500 2619 
L 97 2619 
L 97 3319 
L 500 3319 
L 500 3978 
L 1381 4491 
L 1381 3319 
L 1981 3319 
z
" transform="scale(0.015625)"/>
       <path id="Arial-BoldMT-2f" d="M -9 -78 
L 1125 4659 
L 1784 4659 
L 638 -78 
L -9 -78 
z
" transform="scale(0.015625)"/>
       <path id="Arial-BoldMT-70" d="M 434 3319 
L 1253 3319 
L 1253 2831 
Q 1413 3081 1684 3237 
Q 1956 3394 2288 3394 
Q 2866 3394 3269 2941 
Q 3672 2488 3672 1678 
Q 3672 847 3265 386 
Q 2859 -75 2281 -75 
Q 2006 -75 1782 34 
Q 1559 144 1313 409 
L 1313 -1263 
L 434 -1263 
L 434 3319 
z
M 1303 1716 
Q 1303 1156 1525 889 
Q 1747 622 2066 622 
Q 2372 622 2575 867 
Q 2778 1113 2778 1672 
Q 2778 2194 2568 2447 
Q 2359 2700 2050 2700 
Q 1728 2700 1515 2451 
Q 1303 2203 1303 1716 
z
" transform="scale(0.015625)"/>
      </defs>
      <use xlink:href="#Arial-BoldMT-43"/>
      <use xlink:href="#Arial-BoldMT-68" x="72.216797"/>
      <use xlink:href="#Arial-BoldMT-65" x="133.300781"/>
      <use xlink:href="#Arial-BoldMT-6d" x="188.916016"/>
      <use xlink:href="#Arial-BoldMT-69" x="277.832031"/>
      <use xlink:href="#Arial-BoldMT-63" x="305.615234"/>
      <use xlink:href="#Arial-BoldMT-61" x="361.230469"/>
      <use xlink:href="#Arial-BoldMT-6c" x="416.845703"/>
      <use xlink:href="#Arial-BoldMT-20" x="444.628906"/>
      <use xlink:href="#Arial-BoldMT-53" x="472.412109"/>
      <use xlink:href="#Arial-BoldMT-68" x="539.111328"/>
      <use xlink:href="#Arial-BoldMT-69" x="600.195312"/>
      <use xlink:href="#Arial-BoldMT-66" x="627.978516"/>
      <use xlink:href="#Arial-BoldMT-74" x="661.279297"/>
      <use xlink:href="#Arial-BoldMT-20" x="694.580078"/>
      <use xlink:href="#Arial-BoldMT-2f" x="722.363281"/>
      <use xlink:href="#Arial-BoldMT-20" x="750.146484"/>
      <use xlink:href="#Arial-BoldMT-70" x="777.929688"/>
      <use xlink:href="#Arial-BoldMT-70" x="839.013672"/>
      <use xlink:href="#Arial-BoldMT-6d" x="900.097656"/>
     </g>
    </g>
   </g>
   <g id="matplotlib.axis_2"/>
   <g id="line2d_12">
    <path d="M 3.007027 183.5725 
L 3.058181 183.605193 
L 3.160491 184.774241 
L 3.365111 194.104078 
L 3.672041 218.23359 
L 4.122356 253 
M 7.499559 253 
L 7.81559 234.345484 
L 7.969055 230.996167 
L 8.02021 231.30393 
L 8.173675 236.808715 
L 8.378294 244.949212 
L 8.429449 244.347214 
L 8.582914 234.920426 
L 8.838689 221.046295 
L 8.889844 220.709221 
L 8.940999 220.717113 
L 9.043308 220.761079 
L 9.145618 220.499537 
L 9.196773 220.52772 
L 9.299083 221.589671 
L 9.503703 227.996325 
L 9.964097 243.06656 
L 10.066407 244.954849 
L 10.18403 253 
M 11.530233 253 
L 11.95914 195.922472 
L 12.010295 195.394879 
L 12.112604 200.087981 
L 12.521844 229.695221 
L 12.624154 226.972703 
L 12.828773 221.056441 
L 12.931083 225.714596 
L 13.130806 253 
M 13.860243 253 
L 14.209957 215.593368 
L 14.261111 215.794034 
L 14.414576 223.731611 
L 14.823816 250.11805 
L 14.926126 247.587179 
L 15.233055 235.080508 
L 15.335365 235.988014 
L 15.69345 243.449854 
L 15.90674 253 
M 17.709479 253 
L 17.995422 222.355133 
L 18.148886 219.397001 
L 18.302351 221.607708 
L 18.404661 222.772247 
L 18.455816 222.547907 
L 18.762745 216.293444 
L 18.865055 216.613607 
L 18.91621 216.869513 
L 18.967365 216.797363 
L 19.069675 214.615967 
L 19.22314 203.307654 
L 19.785844 144.89922 
L 19.888154 143.449465 
L 19.939309 143.734681 
L 20.041619 147.741235 
L 20.297393 175.304614 
L 20.553168 192.800877 
L 20.655478 193.628342 
L 20.706633 193.584376 
L 20.757788 193.582122 
L 20.860098 194.279943 
L 21.115872 199.213168 
L 21.320492 208.009775 
L 21.627422 219.797206 
L 21.678577 219.814116 
L 21.780886 219.293286 
L 21.832041 219.341762 
L 21.934351 221.713678 
L 22.087816 234.204567 
L 22.256432 253 
M 22.477559 253 
L 22.75283 239.318166 
L 22.85514 242.367611 
L 23.030759 253 
M 23.36879 253 
L 23.827084 209.654559 
L 23.878239 209.762783 
L 24.185168 213.919273 
L 24.236323 213.709589 
L 24.389788 210.507953 
L 24.594408 200.370942 
L 24.850182 174.621448 
L 25.157112 147.384997 
L 25.259422 146.094197 
L 25.310577 146.159582 
L 25.412887 147.702906 
L 25.566351 157.294285 
L 25.975591 216.017246 
L 26.203939 253 
M 27.921272 253 
L 28.482183 196.001386 
L 28.635647 192.319505 
L 28.686802 192.460422 
L 28.737957 192.420965 
L 28.840267 189.645462 
L 29.044887 170.771594 
L 29.300661 155.258315 
L 29.402971 159.733842 
L 29.709901 178.137611 
L 29.812211 174.836769 
L 30.170295 158.720366 
L 30.272605 158.307761 
L 30.32376 158.319034 
L 30.42607 158.766587 
L 30.52838 160.9322 
L 30.681845 171.411921 
L 31.346859 234.315046 
L 31.551478 236.867336 
L 31.653788 236.223627 
L 31.807253 234.724269 
L 31.909563 236.336361 
L 32.216493 245.127331 
L 32.421112 241.900894 
L 32.574577 236.870718 
L 32.779197 215.57984 
L 33.034971 195.185194 
L 33.137281 194.334055 
L 33.239591 195.887525 
L 33.444211 206.746031 
L 33.648831 215.374665 
L 33.75114 213.73439 
L 34.109225 198.434178 
L 34.927704 153.318169 
L 34.978859 154.133233 
L 35.132324 163.6581 
L 35.643873 198.691211 
L 35.899648 205.93773 
L 36.104267 208.635447 
L 36.257732 215.214583 
L 36.615817 239.766846 
L 36.666972 239.317038 
L 36.820436 230.815793 
L 37.178521 192.409692 
L 37.638915 146.162964 
L 37.945845 133.515375 
L 37.997 133.137717 
L 38.048155 133.58527 
L 38.20162 139.560154 
L 38.457394 162.209473 
L 38.764324 185.319872 
L 38.866634 182.816058 
L 39.020098 179.12403 
L 39.122408 181.51962 
L 39.480493 194.671129 
L 39.838577 195.719552 
L 39.889732 195.601181 
L 39.992042 194.220194 
L 40.298972 186.342366 
L 40.350127 186.963529 
L 40.503591 195.442227 
L 41.135585 253 
M 41.603679 253 
L 41.93593 239.665385 
L 42.038239 239.239252 
L 42.140549 239.503049 
L 42.242859 238.176174 
L 42.447479 227.137294 
L 42.703254 216.098415 
L 43.061338 209.016486 
L 43.419423 190.507875 
L 43.675197 171.983481 
L 44.033282 144.326533 
L 44.135592 142.558869 
L 44.186747 143.018822 
L 44.289056 147.45151 
L 45.005225 196.346351 
L 45.209845 203.198302 
L 45.721394 222.899636 
L 45.926014 225.064122 
L 46.079479 233.044538 
L 46.386409 250.483307 
L 46.437564 250.601677 
L 46.591028 248.114773 
L 46.744493 246.615415 
L 46.949113 248.456356 
L 47.051423 245.161151 
L 47.409507 219.672072 
L 47.460662 219.878374 
L 47.562972 220.508555 
L 47.665282 216.68463 
L 48.023366 187.685024 
L 48.074521 188.795451 
L 48.330296 207.209366 
L 48.841845 249.642314 
L 48.873403 253 
M 49.72363 253 
L 50.120719 240.487214 
L 50.325338 234.991448 
L 50.529958 218.438765 
L 50.990352 179.998843 
L 51.246127 168.457172 
L 51.348437 167.654508 
L 51.450747 170.046716 
L 51.655367 185.703166 
L 52.399086 253 
M 53.011878 253 
L 53.855029 189.728885 
L 53.957338 193.879738 
L 54.520043 236.498697 
L 54.673508 232.776232 
L 54.878127 229.012055 
L 54.980437 230.566652 
L 55.185057 239.143429 
L 55.440832 252.705287 
L 55.491986 252.34003 
L 55.645451 241.006916 
L 55.850071 227.856535 
L 55.952381 233.884404 
L 56.175003 253 
M 56.231701 253 
L 56.310465 248.845287 
L 56.719705 215.509945 
L 56.822015 218.778094 
L 57.282409 239.52785 
L 57.538184 242.331536 
L 57.640494 240.448884 
L 57.793958 228.388638 
L 58.305508 176.129824 
L 58.356663 175.506407 
L 58.407818 175.694672 
L 58.561282 180.298715 
L 58.765902 187.47083 
L 58.817057 187.418973 
L 58.919367 183.657051 
L 59.175142 157.702381 
L 59.533226 129.127781 
L 59.635536 127.166216 
L 59.686691 127.701701 
L 59.840156 135.910965 
L 60.812099 220.352983 
L 60.863254 220.174864 
L 60.965564 219.683345 
L 61.067874 222.277346 
L 61.669906 253 
M 62.066209 253 
L 62.295592 221.348421 
L 62.858297 153.165979 
L 63.114071 140.89492 
L 63.216381 143.388589 
L 63.421001 160.469992 
L 64.23948 241.217728 
L 64.392945 235.627266 
L 64.751029 219.8547 
L 64.802184 219.942632 
L 64.904494 223.710191 
L 65.365711 253 
M 66.435949 253 
L 66.950691 183.888155 
L 67.001846 183.141858 
L 67.104156 186.992839 
L 67.615705 218.744274 
L 67.66686 218.571791 
L 67.820325 213.815558 
L 68.0761 204.634529 
L 68.127255 204.917491 
L 68.229564 208.966884 
L 68.434184 230.47872 
L 68.585286 253 
M 75.594622 253 
L 75.902804 241.018189 
L 75.953959 242.143271 
L 76.107424 246.773242 
L 76.158579 246.366274 
L 76.260889 240.27302 
L 76.618973 208.160838 
L 76.670128 208.289354 
L 76.823593 216.044303 
L 77.130523 230.810157 
L 77.232832 229.605034 
L 77.437452 221.790337 
L 77.795537 204.737117 
L 77.897847 207.784308 
L 78.714248 253 
M 80.413041 253 
L 80.609058 244.122874 
L 80.660213 244.542243 
L 80.813678 252.425708 
L 80.819959 253 
M 81.863457 253 
L 82.143706 236.168387 
L 82.348326 232.826962 
L 82.50179 222.793667 
L 82.962185 178.522033 
L 83.01334 179.16236 
L 83.217959 190.146 
L 84.212362 253 
M 85.81538 253 
L 86.287255 231.16414 
L 86.54303 227.221844 
L 86.594185 227.261301 
L 86.696495 228.92525 
L 87.054579 243.365304 
L 87.238568 253 
M 88.722293 253 
L 89.049622 204.318875 
L 89.151932 200.981959 
L 89.203086 201.583957 
L 89.356551 209.457275 
L 90.021565 252.639902 
L 90.068791 253 
M 90.690322 253 
L 91.095819 232.281331 
L 91.351594 220.845629 
L 91.402749 221.038403 
L 91.658523 225.117107 
L 91.709678 224.529765 
L 91.863143 218.757802 
L 92.118918 207.729068 
L 92.221227 211.391785 
L 92.477002 243.239042 
L 92.55217 253 
M 94.172386 253 
L 94.676664 154.60897 
L 94.727819 153.926931 
L 94.778974 154.139998 
L 94.932439 157.823006 
L 95.290523 174.233644 
L 95.392833 172.557295 
L 95.597453 166.983743 
L 95.699763 168.69053 
L 95.904382 172.748942 
L 96.006692 172.852657 
L 96.109002 174.837897 
L 96.313622 188.407647 
L 96.774016 219.50748 
L 96.825171 219.504098 
L 96.927481 214.764776 
L 97.490185 176.344018 
L 97.592495 175.188498 
L 97.694805 177.754316 
L 97.84827 188.69399 
L 98.308664 236.686962 
L 98.359819 235.367978 
L 98.564439 227.605139 
L 98.615594 227.942213 
L 98.769059 236.642996 
L 98.94078 253 
M 100.378487 253 
L 100.712946 231.808977 
L 100.815256 235.839205 
L 101.026809 253 
M 101.181741 253 
L 101.37796 244.537734 
L 101.429115 245.037144 
L 101.56415 253 
M 102.082822 253 
L 102.247594 250.260094 
L 102.392471 253 
M 102.704074 253 
L 102.810298 251.982665 
L 102.851812 253 
M 106.414696 253 
L 106.800383 239.540251 
L 106.851538 239.737535 
L 106.953848 242.992156 
L 107.107618 253 
M 111.099243 253 
L 112.273961 166.03678 
L 112.325116 166.522662 
L 112.427425 172.858294 
L 112.99013 224.901786 
L 113.143594 223.925512 
L 113.245904 225.498147 
L 114.100603 253 
M 114.988178 253 
L 115.343257 207.503601 
L 115.394411 207.394249 
L 115.547876 215.408485 
L 115.803651 226.841932 
L 116.059426 232.166343 
L 116.3152 244.621157 
L 116.442046 253 
M 117.915805 253 
L 118.668327 195.587653 
L 118.770637 198.307916 
L 118.975257 214.177433 
L 119.257221 253 
M 119.862155 253 
L 120.100665 232.596985 
L 120.202975 231.390735 
L 120.305285 232.5316 
L 120.816834 241.768995 
L 120.867989 241.331589 
L 121.123764 236.433312 
L 121.174919 236.705 
L 121.277229 240.307967 
L 121.413895 253 
M 122.948125 253 
L 123.323426 211.302725 
L 123.425736 209.845079 
L 123.476891 210.142696 
L 123.68151 214.268747 
L 123.98844 219.991108 
L 124.09075 221.677603 
L 124.244215 231.819123 
L 124.42754 253 
M 125.127947 253 
L 125.523088 216.806382 
L 125.625398 219.762258 
L 125.830018 227.211698 
L 125.932327 225.004373 
L 126.188102 216.699285 
L 126.290412 220.334945 
L 126.546187 243.852313 
L 126.636466 253 
M 127.695013 253 
L 127.978525 232.034444 
L 128.490074 177.854649 
L 128.541229 179.391209 
L 128.745849 195.793956 
L 129.001623 212.725424 
L 129.103933 209.619611 
L 129.410863 197.277531 
L 129.564328 198.38683 
L 129.615482 198.127543 
L 129.717792 195.119809 
L 129.973567 182.409089 
L 130.024722 183.130584 
L 130.178187 195.257344 
L 130.485116 216.760161 
L 130.894356 240.725082 
L 130.996666 239.647348 
L 131.303595 231.377207 
L 131.35475 231.910437 
L 131.45706 237.308125 
L 131.600796 253 
M 132.16261 253 
L 132.480159 233.00959 
L 132.531314 233.448124 
L 132.684778 242.75767 
L 132.80715 253 
M 133.74635 253 
L 134.372891 172.939462 
L 134.577511 165.971395 
L 134.679821 169.976821 
L 135.037905 194.23034 
L 135.08906 193.517863 
L 135.242525 183.864481 
L 135.651764 153.084811 
L 135.754074 157.759875 
L 136.572553 217.705997 
L 136.623708 217.588754 
L 136.777173 214.16165 
L 137.186412 204.014494 
L 137.237567 204.129482 
L 137.339877 206.321025 
L 137.595652 216.43887 
L 137.646807 216.294571 
L 137.749117 211.918251 
L 138.362976 172.584351 
L 138.567596 169.719789 
L 138.874525 160.562434 
L 139.079145 154.410558 
L 139.1303 154.882912 
L 139.23261 160.38206 
L 139.897624 214.325114 
L 140.153398 219.314706 
L 140.255708 219.589776 
L 140.306863 219.492825 
L 140.460328 218.342942 
L 140.818413 215.180763 
L 141.074187 213.71748 
L 141.125342 214.071464 
L 141.278807 219.006943 
L 141.432272 224.439578 
L 141.483427 224.307679 
L 141.636891 217.311429 
L 141.841511 210.937468 
L 142.046131 215.091703 
L 142.148441 214.360062 
L 142.506525 207.120306 
L 142.55768 207.208239 
L 142.65999 208.958992 
L 142.915765 217.817603 
L 142.96692 217.42529 
L 143.120384 207.734705 
L 143.427314 187.31864 
L 143.478469 187.409954 
L 143.631934 190.977974 
L 143.990018 206.569039 
L 144.399258 232.196781 
L 144.648994 253 
M 145.836606 253 
L 146.138525 236.019579 
L 146.18968 235.533697 
L 146.240835 235.604719 
L 146.343145 237.107459 
L 146.547765 245.205117 
L 146.682273 253 
M 148.155105 253 
L 148.440497 219.950524 
L 148.491652 218.401563 
L 148.542807 218.464694 
L 148.696272 226.369578 
L 148.952047 238.813119 
L 149.207821 245.423821 
L 149.412441 249.526198 
L 149.668216 250.497962 
L 149.719371 250.46076 
L 149.82168 249.464195 
L 150.0263 243.562588 
L 150.384385 224.587259 
L 150.895934 180.054083 
L 150.998244 181.498201 
L 151.202864 194.292344 
L 151.458638 206.777596 
L 151.560948 204.308729 
L 152.481737 170.015151 
L 152.635202 168.982511 
L 152.788667 164.788819 
L 153.044441 157.420547 
L 153.146751 159.360693 
L 153.402526 173.656448 
L 153.914075 202.747368 
L 154.016385 199.550241 
L 154.374469 171.143615 
L 154.732554 139.405709 
L 154.834864 144.34457 
L 155.704498 219.358672 
L 155.806808 220.945962 
L 155.857962 220.862539 
L 156.011427 217.161493 
L 156.164892 213.194396 
L 156.216047 213.603619 
L 156.318357 218.667615 
L 156.649788 253 
M 156.822623 253 
L 156.932216 242.350701 
L 157.546075 172.641845 
L 157.80185 166.887919 
L 157.853005 166.892429 
L 157.955315 169.298165 
L 158.569174 194.585451 
L 158.773794 201.570428 
L 159.387653 242.61788 
L 159.487738 253 
M 159.969652 253 
L 160.257287 227.619794 
L 160.308441 228.082002 
L 160.666526 237.126623 
L 160.717681 237.347581 
L 160.819991 239.524468 
L 161.075765 246.08444 
L 161.33154 241.25493 
L 161.382695 241.735175 
L 161.53616 249.380772 
L 161.578302 253 
M 162.210952 253 
L 162.610413 201.048472 
L 162.661568 201.019161 
L 162.815033 207.089868 
L 163.531202 248.13281 
L 163.582357 247.651438 
L 163.735822 239.393697 
L 164.196216 198.400358 
L 164.247371 198.590878 
L 164.400836 204.013367 
L 164.605456 218.702562 
L 164.873456 253 
M 165.6864 253 
L 166.037794 196.035206 
L 166.140104 193.551684 
L 166.191259 194.175101 
L 166.498188 200.00794 
L 166.600498 199.753162 
L 166.702808 199.432998 
L 166.753963 199.496129 
L 166.856273 200.357414 
L 167.060892 205.573601 
L 167.265512 209.597065 
L 167.367822 207.814746 
L 167.521287 204.268145 
L 167.572442 204.296328 
L 167.725907 208.500166 
L 167.879371 211.153917 
L 167.981681 207.894787 
L 168.442076 178.136483 
L 168.493231 179.807196 
L 168.646695 194.735387 
L 169.125304 253 
M 169.30047 253 
L 169.414019 245.58052 
L 169.720949 224.323462 
L 169.823259 226.805857 
L 170.232498 245.497097 
L 170.283653 245.228791 
L 170.385963 241.677681 
L 170.641738 217.716143 
L 170.999822 189.547384 
L 171.204442 175.965233 
L 172.022921 87.570774 
L 172.43216 58.644445 
L 172.63678 54.609708 
L 172.687935 54.717932 
L 172.892555 57.023335 
L 173.046019 60.99156 
L 173.250639 75.962589 
L 173.762189 119.245549 
L 173.813343 119.921951 
L 173.864498 119.866712 
L 174.017963 116.721443 
L 174.171428 113.852371 
L 174.222583 114.359672 
L 174.324893 119.1734 
L 175.194527 186.481029 
L 175.399146 191.517968 
L 175.501456 194.500901 
L 175.961851 221.989876 
L 176.013006 220.980909 
L 176.16647 211.33429 
L 176.882639 143.490049 
L 176.984949 144.309623 
L 177.138414 149.720838 
L 177.394189 173.916863 
L 177.649963 189.043465 
L 177.905738 197.5402 
L 178.110358 202.918723 
L 178.212668 201.075528 
L 178.570752 190.303827 
L 178.621907 190.377104 
L 178.775372 192.59232 
L 179.133456 198.412759 
L 179.184611 198.589751 
L 179.286921 200.774529 
L 179.491541 216.237077 
L 179.747316 229.500192 
L 179.849625 227.677288 
L 180.1054 213.257527 
L 180.463485 196.876199 
L 180.975034 178.516396 
L 181.026189 179.047371 
L 181.435428 191.528114 
L 181.640048 199.153419 
L 182.202752 230.041313 
L 182.305062 229.775262 
L 182.356217 229.906033 
L 182.458527 232.020916 
L 182.714302 238.786063 
L 182.816611 236.73431 
L 183.277006 217.525623 
L 183.328161 218.11071 
L 183.53278 228.526173 
L 183.686245 232.658989 
L 183.788555 229.431424 
L 184.04433 208.301755 
L 184.504724 167.318562 
L 184.607034 170.91702 
L 185.118583 202.631252 
L 185.220893 199.563769 
L 185.630133 178.763283 
L 185.681288 179.723773 
L 185.988217 188.604931 
L 186.039372 188.372699 
L 186.346302 184.015544 
L 186.397457 184.587103 
L 186.550921 191.09409 
L 187.062471 230.542978 
L 187.113626 228.653562 
L 187.57402 200.921083 
L 187.67633 201.037198 
L 187.77864 199.819675 
L 187.932105 193.964289 
L 188.494809 166.129222 
L 188.545964 166.181079 
L 188.648274 167.355764 
L 188.852893 173.230315 
L 189.159823 190.253097 
L 189.722527 229.010928 
L 189.824837 224.648135 
L 190.029457 196.358752 
L 190.541006 116.917599 
L 190.847936 94.794746 
L 190.899091 94.760926 
L 191.052555 99.746009 
L 191.61526 128.77267 
L 192.280274 199.234587 
L 192.382584 197.613477 
L 192.740668 176.514246 
L 192.996443 153.702591 
L 193.354527 120.625409 
L 193.405682 120.677266 
L 193.507992 124.237395 
L 194.224161 160.527486 
L 194.428781 170.117739 
L 194.991485 203.187029 
L 195.04264 202.762023 
L 195.14495 197.965206 
L 195.34957 172.284479 
L 195.758809 114.972944 
L 195.809964 113.700181 
L 195.861119 113.950449 
L 196.065739 118.701046 
L 196.116894 118.114831 
L 196.270358 110.725139 
L 196.474978 101.44716 
L 196.526133 101.556511 
L 196.628443 106.4965 
L 196.833063 136.543401 
L 197.139992 173.605718 
L 197.191147 173.700414 
L 197.549232 169.427809 
L 197.651542 168.90247 
L 197.805006 166.813515 
L 197.958471 161.070863 
L 198.67464 115.520829 
L 198.725795 115.969509 
L 198.87926 122.526098 
L 200.055823 199.703559 
L 200.106978 199.367613 
L 200.362753 193.755731 
L 200.413908 194.012764 
L 200.567373 197.942659 
L 200.874302 204.376369 
L 200.976612 206.651334 
L 201.130077 216.653064 
L 201.539316 250.832781 
L 201.590471 250.157507 
L 201.743936 239.373405 
L 201.999711 195.570743 
L 202.30664 148.612666 
L 202.71588 129.638465 
L 203.022809 103.357995 
L 203.073964 104.416564 
L 203.227429 120.505911 
L 203.687824 178.527669 
L 203.841288 183.080982 
L 203.892443 182.71347 
L 204.045908 176.748732 
L 204.352838 153.099466 
L 204.813232 114.177044 
L 205.069007 109.795087 
L 205.120162 109.606822 
L 205.171317 109.978843 
L 205.273626 113.444275 
L 205.529401 137.443016 
L 205.836331 158.461079 
L 206.04095 162.475524 
L 206.092105 162.343626 
L 206.296725 160.580471 
L 206.399035 162.397738 
L 207.064049 188.221636 
L 207.115204 187.557635 
L 207.370979 180.639171 
L 207.422134 181.280625 
L 207.984838 194.833465 
L 208.035993 194.881941 
L 208.138303 192.932776 
L 208.342922 180.165689 
L 208.752162 151.990167 
L 209.059091 134.913273 
L 209.366021 103.929555 
L 209.672951 74.494797 
L 209.97988 63.276671 
L 210.235655 30.104793 
L 210.491429 5.098213 
L 210.593739 3.00024 
L 210.644894 3.460193 
L 210.747204 7.5885 
L 210.951824 29.464466 
L 211.872613 158.689928 
L 212.026077 161.565763 
L 212.230697 173.265262 
L 212.537627 201.40471 
L 212.875178 253 
M 255.694673 253 
L 255.917009 235.567517 
L 255.968164 235.211279 
L 256.070474 239.191904 
L 256.220219 253 
M 388.304855 253 
L 388.612902 221.476937 
L 388.715212 219.152369 
L 388.766366 219.669817 
L 388.868676 224.585004 
L 389.097251 253 
M 405.911007 253 
L 406.210198 222.092463 
L 406.312508 220.113988 
L 406.363663 220.71824 
L 406.517128 228.137242 
L 406.748244 253 
M 409.267244 253 
L 409.432959 249.921893 
L 409.688734 244.978523 
L 409.791043 246.484644 
L 409.95643 253 
M 419.082243 253 
L 419.408171 234.231623 
L 419.561635 231.211489 
L 419.61279 231.554199 
L 419.766255 237.365619 
L 420.006371 253 
M 420.219471 253 
L 420.431269 241.154597 
L 421.352058 183.561227 
L 421.658988 154.667591 
L 421.761297 159.475681 
L 421.965917 188.275748 
L 422.288205 253 
M 430.301541 253 
L 430.559946 241.726157 
L 430.662256 244.609884 
L 430.792383 253 
M 434.635235 253 
L 434.908115 231.567727 
L 434.95927 232.291477 
L 435.112735 244.833096 
L 435.184192 253 
M 438.982965 253 
L 439.358594 212.3038 
L 439.409749 211.908105 
L 439.512059 215.670027 
L 439.767833 241.535637 
L 439.850435 253 
M 466.59208 253 
L 466.931102 229.225122 
L 467.033412 231.374952 
L 467.289187 246.908523 
L 467.355685 253 
M 468.126625 253 
L 468.46575 229.73806 
L 468.619215 225.137399 
L 468.67037 225.481237 
L 468.77268 230.293837 
L 469.01798 253 
M 474.709952 253 
L 475.269356 201.201789 
L 475.473976 193.823372 
L 475.576286 196.658623 
L 475.780905 213.720862 
L 476.115213 253 
M 480.149796 253 
L 480.231384 250.630988 
L 480.282539 250.635497 
L 480.370073 253 
M 483.653702 253 
L 483.81223 238.828902 
L 484.119159 215.229238 
L 484.374934 210.169752 
L 484.477244 209.75151 
L 484.579554 211.347818 
L 484.784173 215.859419 
L 484.835328 215.626061 
L 485.039948 211.780716 
L 485.091103 212.406387 
L 485.244568 222.480267 
L 485.487639 253 
M 496.34139 253 
L 496.549808 227.20268 
L 496.600962 226.66945 
L 496.703272 231.755992 
L 496.973243 253 
M 502.63414 253 
L 502.893019 226.731453 
L 502.995329 223.095793 
L 503.046484 223.24911 
L 503.199949 230.668112 
L 503.494708 253 
M 514.816323 253 
L 515.170203 245.063073 
L 515.221358 245.196099 
L 515.323667 248.68746 
L 515.382433 253 
M 517.113683 253 
L 517.472175 200.606556 
L 517.881414 185.514901 
L 517.932569 185.9726 
L 518.137189 190.070468 
L 518.188344 189.975772 
L 518.392963 185.963581 
L 518.597583 183.570246 
L 518.699893 185.875649 
L 518.853358 200.622338 
L 519.123751 253 
M 519.8379 253 
L 520.081076 241.109504 
L 520.132231 240.39139 
L 520.183386 240.456776 
L 520.336851 244.747419 
L 520.541471 249.585947 
L 520.74609 247.646928 
L 520.797245 248.304165 
L 520.921093 253 
M 527.503241 253 
L 527.856626 236.42542 
L 527.907781 236.906793 
L 528.061245 247.17232 
L 528.111606 253 
M 529.182747 253 
L 529.237809 251.466344 
L 529.288964 251.657992 
L 529.332869 253 
M 541.754523 253 
L 542.026542 242.542348 
L 542.077697 242.895205 
L 542.231162 248.622074 
L 542.307037 253 
M 543.214181 253 
L 543.45888 231.434701 
L 543.510035 231.618457 
L 543.76581 239.728516 
L 543.868119 238.30469 
L 544.226204 218.083654 
L 544.328514 220.312399 
L 545.044683 248.768628 
L 545.222973 253 
M 545.456044 253 
L 545.965472 239.696951 
L 546.170091 239.025058 
L 546.272401 240.947167 
L 546.451163 253 
M 549.759923 253 
L 550.109021 222.977422 
L 551.13212 134.171485 
L 551.183275 134.403716 
L 551.285584 138.937864 
L 551.490204 164.686231 
L 551.899444 216.587679 
L 552.199028 253 
M 553.739639 253 
L 553.996796 234.325192 
L 554.047951 234.089579 
L 554.099106 234.32181 
L 554.150261 234.520221 
L 554.201416 234.34323 
L 554.35488 232.224964 
L 554.406035 232.246384 
L 554.508345 235.632903 
L 554.704509 253 
M 557.400183 253 
L 557.679951 218.646195 
L 557.782261 216.654192 
L 557.833416 217.242661 
L 557.986881 225.300863 
L 558.246627 253 
M 571.972572 253 
L 572.207952 232.75143 
L 572.259106 231.719917 
L 572.310261 232.031062 
L 572.463726 239.801793 
L 572.645738 253 
M 574.027413 253 
L 574.202994 244.75531 
L 574.254149 244.773347 
L 574.407614 249.715591 
L 574.473649 253 
M 577.227661 253 
L 577.681529 239.68455 
L 577.783839 239.984422 
L 577.937304 240.345169 
L 578.039614 240.020496 
L 578.193079 237.990163 
L 578.397698 234.405233 
L 578.448853 234.884351 
L 578.551163 239.429772 
L 578.687689 253 
M 579.156233 253 
L 579.420797 227.537499 
L 579.471952 226.987358 
L 579.523107 227.535244 
L 579.778881 232.954351 
L 579.830036 232.821325 
L 580.034656 229.405495 
L 580.239276 221.825284 
L 580.59736 203.488028 
L 580.69967 205.360534 
L 580.955445 219.451114 
L 581.32025 253 
M 584.416971 253 
L 584.792065 222.217598 
L 585.201304 203.740551 
L 585.457079 198.002408 
L 585.508234 197.906585 
L 585.610544 198.966281 
L 585.917473 205.98846 
L 585.968628 205.598402 
L 586.122093 198.309044 
L 586.582487 160.988567 
L 586.633642 161.484595 
L 586.787107 172.955245 
L 587.503276 250.367191 
L 587.605586 248.269218 
L 587.861361 234.569824 
L 588.321755 209.66245 
L 588.37291 209.703034 
L 588.47522 212.448099 
L 588.67984 228.215028 
L 588.986769 250.776415 
L 589.140234 251.918406 
L 589.242544 252.345667 
L 589.307289 253 
M 589.433421 253 
L 589.498318 251.069522 
L 589.702938 234.178638 
L 589.958713 218.952831 
L 590.163333 211.138134 
L 590.419107 197.435358 
L 590.470262 197.648425 
L 590.623727 206.17898 
L 591.032966 234.725397 
L 591.237586 240.815269 
L 591.370679 253 
M 596.968246 253 
L 597.171558 239.069024 
L 597.222713 238.644018 
L 597.325023 240.61573 
L 597.580798 245.970579 
L 597.683108 244.360742 
L 597.887727 235.729853 
L 598.092347 227.676161 
L 598.143502 228.038036 
L 598.245812 233.20011 
L 598.43388 253 
M 599.212726 253 
L 599.422375 243.895152 
L 599.524685 248.859942 
L 599.571994 253 
M 602.644539 253 
L 603.00322 187.703061 
L 603.054375 186.987203 
L 603.156685 192.712945 
L 603.41246 231.917201 
L 603.530464 253 
M 604.725462 253 
L 604.895953 242.361974 
L 604.998263 245.472296 
L 605.104853 253 
M 606.126983 253 
L 606.379446 224.457615 
L 606.430601 223.583929 
L 606.481756 224.311062 
L 606.635221 233.399649 
L 606.94215 252.32763 
L 606.993305 252.402034 
L 607.14677 250.428068 
L 607.197925 250.619715 
L 607.271158 253 
M 608.566461 253 
L 608.630263 252.140492 
L 608.681418 252.881152 
L 608.684548 253 
M 611.33946 253 
L 611.546094 244.980777 
L 611.648404 250.053792 
L 611.677074 253 
M 616.519129 253 
L 616.866207 226.394379 
L 616.968517 231.008568 
L 617.191468 253 
M 618.470579 253 
L 618.810094 222.774502 
L 618.912404 228.642289 
L 619.113956 253 
M 623.38298 253 
L 623.414038 252.690632 
L 623.441297 253 
M 624.654582 253 
L 624.897531 225.932171 
L 625.255616 187.814668 
L 625.306771 188.190071 
L 625.562545 199.39016 
L 625.869475 213.769337 
L 626.381024 251.415614 
L 626.432179 251.075159 
L 626.534489 247.971601 
L 626.739109 231.170904 
L 626.994883 216.23144 
L 627.097193 217.255062 
L 627.301813 218.948322 
L 627.404123 219.243684 
L 627.557588 219.913322 
L 627.659897 218.854753 
L 627.915672 213.876434 
L 628.017982 216.401668 
L 628.324912 231.497832 
L 628.376067 231.037879 
L 628.580686 221.294309 
L 628.836461 214.193216 
L 628.887616 213.950839 
L 628.938771 214.052299 
L 629.041081 215.602387 
L 629.2457 225.325664 
L 629.545168 253 
M 631.390515 253 
L 631.701137 237.078148 
L 631.905757 218.888573 
L 632.110377 204.330148 
L 632.161531 204.520668 
L 632.314996 212.215868 
L 632.621926 227.686307 
L 632.673081 227.863299 
L 632.826546 225.690921 
L 632.928855 224.821745 
L 633.031165 226.680723 
L 633.18463 237.240484 
L 633.305296 253 
M 633.947003 253 
L 634.156574 239.775864 
L 634.207729 240.11632 
L 634.361194 245.77555 
L 634.489923 253 
M 638.243571 253 
L 638.607053 204.687514 
L 638.658208 204.060715 
L 638.709363 204.778828 
L 638.862828 213.912509 
L 639.215232 253 
M 646.5217 253 
L 646.945307 219.986598 
L 646.996462 220.288725 
L 647.149926 231.771775 
L 647.333346 253 
M 648.812224 253 
L 648.991504 247.928762 
L 649.042659 248.42479 
L 649.13871 253 
M 652.82662 253 
L 653.032744 229.350256 
L 653.186208 226.101272 
L 653.288518 228.830554 
L 653.544293 247.43048 
L 653.608083 253 
M 659.206577 253 
L 659.42711 224.730431 
L 659.52942 222.756464 
L 660.143279 229.523866 
L 660.245589 226.795711 
L 660.859448 195.293419 
L 660.961758 196.417373 
L 661.268688 205.812596 
L 661.319843 205.310931 
L 661.473307 196.752192 
L 661.677927 185.431478 
L 661.780237 189.254277 
L 662.087167 210.439185 
L 662.189476 206.743776 
L 662.85449 167.661272 
L 662.905645 167.165244 
L 662.9568 167.537265 
L 663.621814 182.046087 
L 663.826434 204.640166 
L 664.068318 253 
M 666.184139 253 
L 666.435336 224.077703 
L 666.742265 193.127805 
L 666.844575 197.208763 
L 667.20266 221.562615 
L 667.458434 217.241534 
L 667.509589 217.355395 
L 667.663054 219.332743 
L 667.816519 223.895074 
L 668.021139 238.262979 
L 668.175696 253 
M 671.453817 253 
L 671.806604 214.02637 
L 671.857758 212.508975 
L 671.908913 212.517994 
L 672.011223 217.473765 
L 672.375617 253 
M 673.548849 253 
L 673.852801 216.897696 
L 673.903956 216.521166 
L 674.006266 219.639379 
L 674.415505 235.278919 
L 674.620125 242.49951 
L 674.781224 253 
M 681.59663 253 
L 681.986435 221.53105 
L 682.395674 202.6662 
L 682.497984 203.862304 
L 683.316463 231.865344 
L 683.418773 232.006261 
L 683.623393 230.940928 
L 683.725703 234.824602 
L 683.86159 253 
M 688.207571 253 
L 688.380801 240.064463 
L 688.431956 240.619112 
L 688.599148 253 
M 854.430186 253 
L 854.634329 243.818493 
L 854.736639 247.130608 
L 854.808067 253 
M 858.19934 253 
L 858.26633 251.748179 
L 858.317485 252.216023 
L 858.337436 253 
M 863.693734 253 
L 864.251457 220.673146 
L 864.404921 218.695798 
L 864.456076 219.028362 
L 864.609541 224.73494 
L 865.06447 253 
M 867.739709 253 
L 867.934612 250.75274 
L 868.036922 247.73486 
L 868.241541 227.850898 
L 868.497316 203.455335 
L 868.548471 203.135172 
L 868.650781 207.38523 
L 869.008865 242.37212 
L 869.082438 253 
M 874.509835 253 
L 874.635908 250.99399 
L 874.729397 253 
M 887.145762 253 
L 887.987345 161.223053 
L 888.498894 150.010564 
L 888.703514 133.754371 
L 889.061598 104.666833 
L 889.573148 89.725114 
L 889.675458 87.784968 
L 889.828922 76.792309 
L 890.135852 55.560052 
L 890.238162 58.387412 
L 891.210106 108.453556 
L 891.312415 106.593451 
L 891.56819 98.889233 
L 891.6705 101.956716 
L 891.926275 125.060351 
L 892.233204 146.737906 
L 892.540134 154.00359 
L 892.744754 169.747972 
L 893.307458 222.033842 
L 893.563232 229.511465 
L 893.665542 226.635629 
L 894.228247 200.264973 
L 894.279401 200.217625 
L 894.381711 198.826491 
L 894.535176 191.370287 
L 895.046725 147.445873 
L 895.251345 138.269353 
L 895.353655 139.405709 
L 895.865204 151.570798 
L 895.916359 151.444536 
L 896.018669 147.078361 
L 896.479064 104.377107 
L 896.530218 105.656634 
L 896.734838 121.809112 
L 896.939458 134.125264 
L 896.990613 134.365387 
L 897.195233 132.10395 
L 897.246388 132.682273 
L 897.399852 135.46454 
L 897.451007 135.25711 
L 897.706782 127.738903 
L 897.809092 128.486327 
L 897.962557 130.542589 
L 898.064866 128.375848 
L 898.525261 104.258737 
L 898.781035 87.111948 
L 899.34374 28.358549 
L 899.394895 30.084501 
L 899.599514 50.43518 
L 900.008754 89.340692 
L 900.162219 93.783526 
L 900.213374 93.511837 
L 900.315683 90.301183 
L 900.469148 77.346959 
L 901.025218 -1 
M 912.106334 -1 
L 913.002106 71.417168 
L 913.462501 129.296882 
L 913.564811 132.168208 
L 913.615966 131.730801 
L 913.87174 126.446975 
L 913.922895 126.94864 
L 914.07636 132.615761 
L 914.4856 165.216079 
L 914.690219 183.944521 
L 915.25591 253 
M 923.073219 253 
L 923.488867 6.156782 
L 923.498005 -1 
M 933.397064 -1 
L 933.403739 253 
M 973.307717 253 
L 973.569546 239.890853 
L 973.876475 228.769678 
L 973.92763 229.008673 
L 974.081095 233.236185 
L 974.285715 247.889306 
L 974.3287 253 
M 975.556738 253 
L 975.769208 236.241664 
L 976.280757 215.683555 
L 976.331912 216.492982 
L 976.536532 229.624199 
L 976.792306 243.505094 
L 976.843461 243.609936 
L 976.945771 239.575198 
L 977.252701 218.640559 
L 977.303856 219.108403 
L 977.508475 228.82379 
L 977.815405 239.448937 
L 977.86656 239.234743 
L 978.020025 234.048995 
L 978.275799 214.539308 
L 978.940813 151.613636 
L 979.247743 144.765067 
L 979.298898 145.367064 
L 979.401208 150.765879 
L 979.656982 184.335707 
L 979.963912 215.186399 
L 980.066222 217.225751 
L 980.117377 216.710558 
L 980.270842 210.92394 
L 980.680081 194.730878 
L 980.884701 191.063652 
L 981.038166 179.952623 
L 981.39625 146.869804 
L 981.447405 147.071597 
L 981.60087 155.035103 
L 981.907799 172.285607 
L 982.010109 167.901395 
L 982.521659 133.176047 
L 982.930898 121.010958 
L 982.982053 121.169913 
L 983.135518 124.72215 
L 983.391293 137.653828 
L 983.698222 164.230787 
L 984.312081 236.609176 
L 984.363236 235.939538 
L 984.721321 223.055209 
L 984.823631 223.397919 
L 984.92594 223.618877 
L 985.079405 222.002276 
L 985.33518 219.655162 
L 985.386335 219.639379 
L 985.488645 220.540121 
L 985.64211 226.902808 
L 985.902711 253 
M 986.624614 253 
L 986.920983 205.167759 
L 987.330222 148.228245 
L 987.739462 119.238785 
L 987.841772 117.807068 
L 987.944081 120.018902 
L 988.148701 136.128541 
L 988.609096 174.542535 
L 989.325265 216.311481 
L 989.427574 215.532492 
L 989.529884 214.691499 
L 989.632194 216.914606 
L 989.887969 228.048182 
L 989.939124 227.628813 
L 990.092589 219.248193 
L 990.348363 205.013314 
L 990.399518 205.42592 
L 990.552983 213.879816 
L 991.013377 243.875987 
L 991.064532 244.573809 
L 991.115687 243.903044 
L 991.269152 233.205747 
L 992.087631 141.041474 
L 992.138786 141.502555 
L 992.343406 150.735441 
L 992.548025 156.912118 
L 992.59918 156.942556 
L 992.70149 156.426236 
L 992.752645 156.508532 
L 992.854955 158.517445 
L 993.213039 169.450355 
L 993.264194 169.446973 
L 993.315349 169.699497 
L 993.417659 172.332955 
L 993.622279 186.707623 
L 994.309471 253 
M 994.733171 253 
L 995.054617 234.573206 
L 995.105772 235.502132 
L 995.361547 251.328809 
L 995.392051 253 
M 996.305906 253 
L 996.53811 239.33733 
L 996.589265 239.385806 
L 996.74273 241.778014 
L 996.947349 248.716771 
L 997.026987 253 
M 999.386975 253 
L 999.914335 184.693073 
L 1000.27242 179.084574 
L 1000.425885 175.897593 
L 1000.47704 175.996799 
L 1000.57935 178.965076 
L 1001.193209 216.708304 
L 1001.448983 229.529502 
L 1001.704758 236.896647 
L 1001.858223 240.58191 
L 1001.909378 240.329387 
L 1002.216307 234.047867 
L 1002.267462 234.320683 
L 1002.420927 238.28778 
L 1002.727857 250.996245 
L 1002.779012 250.837291 
L 1002.932476 245.0642 
L 1003.290561 221.055314 
L 1003.495181 206.805779 
L 1003.546336 206.845236 
L 1003.648645 213.258654 
L 1003.904328 253 
M 1004.909321 253 
L 1005.132138 233.155017 
L 1005.387913 219.860337 
L 1005.541378 210.211463 
L 1006.001772 165.653486 
L 1006.052927 165.324304 
L 1006.104082 165.342341 
L 1006.206392 166.422329 
L 1006.359857 172.858294 
L 1006.615632 185.138371 
L 1006.666786 184.708856 
L 1006.871406 176.077967 
L 1007.076026 169.82914 
L 1007.127181 169.649894 
L 1007.229491 170.648714 
L 1007.43411 175.577429 
L 1007.587575 185.131607 
L 1007.894505 211.041183 
L 1007.94566 210.999471 
L 1008.099125 203.050621 
L 1008.406054 185.043675 
L 1008.457209 185.240958 
L 1008.559519 189.970135 
L 1009.122223 228.550974 
L 1009.224533 229.071804 
L 1009.275688 228.936523 
L 1009.377998 227.618667 
L 1009.531463 219.170407 
L 1010.043012 160.180267 
L 1010.145322 162.937732 
L 1010.759181 197.215527 
L 1011.117265 200.480294 
L 1011.16842 200.328104 
L 1011.27073 198.017064 
L 1011.628815 180.251367 
L 1011.67997 181.440707 
L 1011.884589 196.76572 
L 1012.293829 225.51393 
L 1012.600759 237.303615 
L 1012.727951 253 
M 1014.720339 253 
L 1014.953885 239.47712 
L 1015.10735 237.612506 
L 1015.20966 239.459083 
L 1015.51659 249.673879 
L 1015.567745 249.421356 
L 1015.721209 247.591689 
L 1015.772364 247.843085 
L 1015.905593 253 
M 1017.349947 253 
L 1017.460477 250.715538 
L 1017.545662 253 
M 1020.664227 253 
L 1020.785548 243.533277 
L 1021.194787 203.818338 
L 1021.297097 208.390815 
L 1021.655181 230.395297 
L 1021.706336 230.385151 
L 1021.808646 229.927452 
L 1021.859801 230.044695 
L 1021.962111 232.134777 
L 1022.115576 242.68552 
L 1022.205488 253 
M 1025.552685 253 
L 1025.849886 237.28896 
L 1025.952196 236.356653 
L 1026.054506 232.185507 
L 1026.463745 199.934663 
L 1026.5149 201.463332 
L 1026.668365 216.665465 
L 1026.912467 253 
M 1034.236076 253 
L 1034.546224 211.768315 
L 1034.699689 208.500166 
L 1034.801999 207.99061 
L 1034.904309 205.59502 
L 1035.108928 190.994884 
L 1035.518168 158.266049 
L 1035.569323 158.728257 
L 1035.722788 167.212592 
L 1036.234337 204.725844 
L 1036.285492 204.454155 
L 1036.490112 199.12749 
L 1036.694731 195.030749 
L 1036.745886 195.141228 
L 1036.899351 198.461234 
L 1037.308591 209.355815 
L 1037.4109 207.239804 
L 1037.82014 189.856274 
L 1037.871295 190.347793 
L 1037.973605 195.518886 
L 1038.280534 233.819018 
L 1038.45042 253 
M 1040.581346 253 
L 1040.889436 197.276404 
L 1040.991746 194.380276 
L 1041.042901 194.877431 
L 1041.196365 196.692443 
L 1041.34983 194.052221 
L 1041.45214 193.109768 
L 1041.65676 196.107356 
L 1041.707915 195.878506 
L 1041.810225 192.510025 
L 1042.321774 169.421045 
L 1042.424084 172.354374 
L 1042.577548 188.070573 
L 1042.889018 253 
M 1043.280799 253 
L 1043.498337 239.80292 
L 1043.549492 239.305765 
L 1043.651802 242.08465 
L 1043.77984 253 
M 1045.436438 253 
L 1045.851464 217.400488 
L 1045.902619 218.601102 
L 1046.260704 236.269848 
L 1046.311859 235.749018 
L 1046.618788 228.862119 
L 1046.721098 231.606056 
L 1046.925718 249.678389 
L 1046.952686 253 
M 1048.000754 253 
L 1048.61383 226.207242 
L 1048.767295 225.565787 
L 1048.869605 225.559023 
L 1048.971915 224.750723 
L 1049.176535 221.621236 
L 1049.22769 221.807247 
L 1049.329999 225.069759 
L 1049.534619 244.34045 
L 1049.598086 253 
M 1050.761839 253 
L 1050.762338 252.993886 
L 1050.762638 253 
M 1055.108593 253 
L 1055.417436 197.289932 
L 1055.468591 195.090498 
L 1055.519746 195.099517 
L 1055.622056 200.5919 
L 1056.192362 253 
M 1061.29823 253 
L 1061.402563 247.711186 
L 1061.453718 247.964837 
L 1061.562392 253 
M 1062.027602 253 
L 1062.169887 250.576876 
L 1062.272197 251.522711 
L 1062.323352 251.461835 
L 1062.425662 247.283926 
L 1062.630282 218.683397 
L 1062.937211 182.915263 
L 1062.988366 182.307629 
L 1063.039521 182.931046 
L 1063.192986 190.067086 
L 1063.602225 224.899531 
L 1063.833099 253 
M 1064.634143 253 
L 1064.932254 237.798516 
L 1064.983409 237.63167 
L 1065.085718 241.739685 
L 1065.19884 253 
M 1065.693414 253 
L 1065.904197 238.470409 
L 1065.955352 238.159264 
L 1066.057662 240.623621 
L 1066.364592 250.022226 
L 1066.466902 250.429195 
L 1066.569211 249.610749 
L 1066.876141 243.101507 
L 1067.183071 237.854883 
L 1067.38769 240.346297 
L 1067.438845 239.933692 
L 1067.59231 233.226039 
L 1067.79693 224.946879 
L 1067.89924 227.430402 
L 1068.103859 244.305503 
L 1068.181691 253 
M 1069.20815 253 
L 1069.382733 247.748389 
L 1069.485043 249.647951 
L 1069.552061 253 
M 1072.541619 253 
L 1072.758958 231.5666 
L 1072.810113 231.434701 
L 1072.963578 239.846887 
L 1073.147293 253 
M 1073.889304 253 
L 1074.191296 238.190829 
L 1074.242451 238.70264 
L 1074.395916 247.224177 
L 1074.460328 253 
M 1075.720815 253 
L 1076.237494 221.138736 
L 1076.339803 222.262691 
L 1076.493268 224.054029 
L 1076.595578 222.695588 
L 1076.800198 217.710506 
L 1076.851353 218.035179 
L 1077.004818 224.268223 
L 1077.158282 228.5149 
L 1077.260592 224.980699 
L 1077.465212 214.893292 
L 1077.516367 214.998134 
L 1077.669832 222.912037 
L 1078.079071 247.385386 
L 1078.39508 253 
M 1078.501821 253 
L 1078.59062 251.125889 
L 1078.846395 236.845917 
L 1079.10217 227.141804 
L 1079.153325 226.792329 
L 1079.20448 227.003141 
L 1079.357944 230.426862 
L 1079.562564 234.069287 
L 1079.767184 231.992733 
L 1079.818339 232.320788 
L 1079.971804 237.9958 
L 1080.138571 253 
M 1084.956579 253 
L 1085.240762 240.506378 
L 1085.343071 244.015777 
L 1085.454218 253 
M 1094.409404 253 
L 1094.653269 234.605899 
L 1094.806734 233.265496 
L 1094.909044 228.326634 
L 1095.471748 176.60556 
L 1095.522903 177.436407 
L 1096.187917 204.836322 
L 1096.678503 253 
M 1104.062273 253 
L 1104.270396 244.192769 
L 1104.321551 244.423873 
L 1104.423861 247.873523 
L 1104.491963 253 
M 1106.950472 253 
L 1107.544312 235.112073 
L 1108.107016 198.771252 
L 1108.209326 199.971865 
L 1108.465101 203.290744 
L 1108.56741 205.570219 
L 1108.720875 219.633742 
L 1108.910672 253 
M 1141.17016 253 
L 1141.511186 214.657679 
L 1141.562341 214.266493 
L 1141.664651 216.907842 
L 1141.869271 235.01174 
L 1142.00221 253 
M 1143.672472 253 
L 1144.120088 213.626166 
L 1144.631637 173.191985 
L 1145.040877 155.058777 
L 1145.296651 150.874104 
L 1145.398961 152.615838 
L 1145.654736 164.88577 
L 1146.01282 178.031641 
L 1146.21744 181.293026 
L 1146.31975 180.456542 
L 1146.473215 178.67535 
L 1146.575525 180.185981 
L 1146.728989 184.380801 
L 1146.780144 184.215082 
L 1146.882454 178.647167 
L 1147.291694 133.367694 
L 1147.342849 133.803973 
L 1147.445158 140.230919 
L 1147.649778 173.123218 
L 1148.029579 253 
M 1148.128983 253 
L 1148.365947 239.329439 
L 1148.417102 239.620292 
L 1148.570567 247.670602 
L 1148.64568 253 
M 1149.307254 253 
L 1149.593666 196.95624 
L 1149.900595 156.299974 
L 1150.15637 144.760557 
L 1150.25868 149.116586 
L 1150.514454 176.753242 
L 1150.989638 253 
M 1151.442779 253 
L 1151.997947 189.227221 
L 1152.202567 171.835799 
L 1152.509497 139.145294 
L 1152.560652 139.367379 
L 1152.714116 150.18981 
L 1152.969891 164.320974 
L 1153.021046 164.359303 
L 1153.174511 163.817055 
L 1153.276821 165.028941 
L 1153.634905 174.184042 
L 1153.68606 173.046559 
L 1153.839525 160.537632 
L 1154.146455 130.648558 
L 1154.197609 131.412893 
L 1154.351074 144.411083 
L 1154.811469 189.587968 
L 1154.862624 190.07385 
L 1154.964933 187.448283 
L 1155.323018 162.234274 
L 1155.578793 148.268829 
L 1155.629948 148.295885 
L 1155.732257 152.08599 
L 1156.192652 177.325928 
L 1156.243807 177.522085 
L 1156.346117 174.816477 
L 1156.499581 160.217469 
L 1157.011131 96.649215 
L 1157.113441 101.837218 
L 1157.31806 130.131111 
L 1157.983074 238.416297 
L 1158.187694 242.403686 
L 1158.545779 244.559153 
L 1158.596934 244.418236 
L 1158.699243 242.597588 
L 1158.852708 231.813486 
L 1159.210793 195.846941 
L 1159.261948 196.204306 
L 1159.415412 204.320002 
L 1159.671187 214.993625 
L 1159.773497 212.90467 
L 1160.080427 201.396819 
L 1160.131582 201.448676 
L 1160.285046 205.761866 
L 1160.489666 210.575593 
L 1160.591976 206.849746 
L 1160.847751 180.406939 
L 1161.103525 161.087773 
L 1161.15468 160.342603 
L 1161.205835 160.41588 
L 1161.615075 165.951103 
L 1161.768539 179.666279 
L 1162.280089 235.831314 
L 1162.4821 253 
M 1162.979348 253 
L 1163.507807 236.406255 
L 1163.558962 236.336361 
L 1163.814737 240.076863 
L 1163.865892 239.870561 
L 1164.070511 238.768026 
L 1164.121666 238.810864 
L 1164.172821 238.711659 
L 1164.275131 237.399439 
L 1164.530906 232.804415 
L 1164.633216 235.211279 
L 1164.837835 248.12041 
L 1164.896311 253 
M 1165.727952 253 
L 1165.963244 235.140256 
L 1166.014399 234.411997 
L 1166.065554 234.999339 
L 1166.219018 242.647191 
L 1166.386674 253 
M 1167.496372 253 
L 1167.804821 212.384968 
L 1168.009441 196.535743 
L 1168.060596 195.878506 
L 1168.111751 196.189651 
L 1168.469835 204.893817 
L 1168.82792 213.269927 
L 1168.879075 212.841539 
L 1169.186004 204.310984 
L 1169.237159 204.874652 
L 1169.390624 212.250815 
L 1169.646399 224.40463 
L 1169.697554 224.658281 
L 1169.799864 223.502761 
L 1170.311413 211.272287 
L 1170.567188 189.355737 
L 1170.720652 180.597459 
L 1170.771807 180.913113 
L 1170.925272 190.109925 
L 1171.436821 225.825075 
L 1171.487976 225.969374 
L 1171.590286 224.162253 
L 1171.846061 219.336125 
L 1171.948371 221.599817 
L 1172.613385 245.99989 
L 1172.66454 245.990871 
L 1172.76685 243.702378 
L 1172.971469 237.387038 
L 1173.022624 237.491881 
L 1173.278399 243.382214 
L 1173.329554 242.585187 
L 1173.483019 232.426757 
L 1173.841103 205.05728 
L 1173.892258 205.365043 
L 1174.045723 212.383841 
L 1174.659582 250.585895 
L 1174.710737 250.009826 
L 1174.864202 239.940456 
L 1175.375751 195.798465 
L 1175.478061 198.765615 
L 1175.733836 208.353613 
L 1175.836146 205.38759 
L 1176.040765 186.566706 
L 1176.39885 157.626849 
L 1176.450005 157.039507 
L 1176.50116 157.338251 
L 1176.654624 162.664917 
L 1177.063864 180.223183 
L 1177.166174 179.215345 
L 1177.319639 177.700204 
L 1177.421948 178.879398 
L 1177.626568 187.329913 
L 1178.291582 228.385256 
L 1178.342737 228.004216 
L 1178.496202 225.985156 
L 1178.547357 226.18695 
L 1178.649667 229.557686 
L 1178.948784 253 
M 1179.082423 253 
L 1179.212371 241.420648 
L 1179.570456 207.417923 
L 1179.621611 207.1654 
L 1179.72392 209.956685 
L 1179.92854 226.431582 
L 1180.152857 253 
M 1184.143785 253 
L 1184.839414 163.119233 
L 1184.890568 163.452925 
L 1184.941723 164.921844 
L 1184.941723 164.921844 
" clip-path="url(#pc54434e52c)" style="fill: none; stroke: #000000; stroke-width: 2; stroke-linecap: square"/>
   </g>
   <g id="patch_3">
    <path d="M 3.00024 198.907885 
L 1184.99976 198.907885 
" style="fill: none; stroke: #000000; stroke-width: 2; stroke-linejoin: miter; stroke-linecap: square"/>
   </g>
  </g>
 </g>
 <defs>
  <clipPath id="pc54434e52c">
   <rect x="3.00024" y="3.00024" width="1181.99952" height="195.907645"/>
  </clipPath>
 </defs>
</svg>
