<?xml version="1.0" standalone="no" ?>
<!DOCTYPE svg PUBLIC "-//W3C//DTD SVG 1.1//EN" "http://www.w3.org/Graphics/SVG/1.1/DTD/svg11.dtd">
<svg width="228px" height="165px" viewBox="0 0 228 165" style="background-color: #ffffff00" xmlns="http://www.w3.org/2000/svg" xmlns:xlink="http://www.w3.org/1999/xlink" version="1.1" >
<text x="0" y="0" stroke="none" fill="#ff0000" transform="matrix(0.0833333 0 0 0.0833333 127.907 111.5)" font-style="normal" font-weight="normal" font-size="200px" font-family="Arial" >
N</text>
<path stroke="none" fill="#ff0000" transform="matrix(0.0833333 0 0 0.0833333 -153.175 -706)" d="M 2915.4,8826.11 L 2935.41,8837.66 L 2935.41,9426.39 L 2925.6,9432 L 2915.79,9426.38 L 2915.4,8826.11 Z " />
<path stroke="none" fill="#ff0000" transform="matrix(0.0833333 0 0 0.0833333 -153.175 -706)" d="M 2987.6,8873.57 L 3007.6,8873.57 L 3007.6,9390.43 L 2987.6,9390.43 L 2987.6,8873.57 Z " />
<path stroke="none" fill="#ff0000" transform="matrix(0.0833333 0 0 0.0833333 -153.175 -706)" d="M 2925.61,9443.28 L 2925.6,9432 L 2935.41,9426.39 L 3346.26,9663.33 L 3336.26,9680.65 L 2925.61,9443.28 Z " />
<path stroke="none" fill="#ff0000" transform="matrix(0.0833333 0 0 0.0833333 -153.175 -706)" d="M 3553.81,9680.84 L 3543.81,9663.52 L 3954.99,9426.39 L 3964.8,9432 L 3964.75,9443.3 L 3553.81,9680.84 Z " />
<path stroke="none" fill="#ff0000" transform="matrix(0.0833333 0 0 0.0833333 -153.175 -706)" d="M 3517.81,9618.49 L 3507.81,9601.16 L 3887.8,9381.77 L 3897.8,9399.09 L 3517.81,9618.49 Z " />
<path stroke="none" fill="#ff0000" transform="matrix(0.0833333 0 0 0.0833333 -153.175 -706)" d="M 3974.61,9426.34 L 3964.8,9432 L 3954.99,9426.39 L 3954.99,8837.66 L 3975,8826.11 L 3974.61,9426.34 Z " />
<path stroke="none" fill="#ff0000" transform="matrix(0.0833333 0 0 0.0833333 -153.175 -706)" d="M 3975,8826.11 L 3954.99,8837.66 L 3445.2,8543.33 L 3445.2,8520.23 L 3975,8826.11 Z " />
<path stroke="none" fill="#ff0000" transform="matrix(0.0833333 0 0 0.0833333 -153.175 -706)" d="M 3897.8,8864.91 L 3887.8,8882.23 L 3440.2,8623.8 L 3450.2,8606.48 L 3897.8,8864.91 Z " />
<path stroke="none" fill="#ff0000" transform="matrix(0.0833333 0 0 0.0833333 -153.175 -706)" d="M 3445.2,8520.23 L 3445.2,8543.33 L 2935.41,8837.66 L 2915.4,8826.11 L 3445.2,8520.23 Z " />
<text x="0" y="0" stroke="none" fill="#000000" transform="matrix(0.0833333 0 0 0.0833333 40.843 111.5)" font-style="normal" font-weight="normal" font-size="200px" font-family="Arial" >
O</text>
<path stroke="none" fill="#000000" transform="matrix(0.0833333 0 0 0.0833333 -153.175 -706)" d="M 2915.79,9426.38 L 2925.6,9432 L 2925.61,9443.28 L 2503.78,9687.09 L 2493.78,9669.77 L 2915.79,9426.38 Z " />
<path stroke="none" fill="#000000" transform="matrix(0.0833333 0 0 0.0833333 -153.175 -706)" d="M 3964.75,9443.3 L 3964.8,9432 L 3974.61,9426.34 L 4494.64,9726.13 L 4474.63,9737.69 L 3964.75,9443.3 Z " />
<text x="0" y="0" stroke="none" fill="#000000" transform="matrix(0.0833333 0 0 0.0833333 211.043 161.5)" font-style="normal" font-weight="normal" font-size="200px" font-family="Arial" >
O</text>
<path stroke="none" fill="#000000" transform="matrix(0.0833333 0 0 0.0833333 -153.175 -706)" d="M 4474.63,9737.69 L 4494.64,9726.13 L 4494.4,10226.8 L 4474.4,10226.8 L 4474.63,9737.69 Z " />
<path stroke="none" fill="#000000" transform="matrix(0.0833333 0 0 0.0833333 -153.175 -706)" d="M 4402.4,9773.57 L 4422.4,9773.57 L 4422.4,10226.8 L 4402.4,10226.8 L 4402.4,9773.57 Z " />
<path stroke="none" fill="#000000" transform="matrix(0.0833333 0 0 0.0833333 -153.175 -706)" d="M 2318.54,9669.96 L 2308.54,9687.28 L 1881.4,9440.66 L 1891.4,9423.34 L 2318.54,9669.96 Z " />
</svg>
