<?xml version="1.0" standalone="no" ?>
<!DOCTYPE svg PUBLIC "-//W3C//DTD SVG 1.1//EN" "http://www.w3.org/Graphics/SVG/1.1/DTD/svg11.dtd">
<svg width="95px" height="108px" viewBox="0 0 95 108" style="background-color: #ffffff00" xmlns="http://www.w3.org/2000/svg" xmlns:xlink="http://www.w3.org/1999/xlink" version="1.1" >
<path stroke="none" fill="#ff0000" transform="matrix(0.0833333 0 0 0.0833333 -415.175 -202.167)" d="M 5562.33,3060.54 L 5552.88,3076.92 L 5543.43,3060.54 L 5542.88,2476.92 L 5562.88,2476.92 L 5562.33,3060.54 Z " />
<path stroke="none" fill="#ff0000" transform="matrix(0.0833333 0 0 0.0833333 -415.175 -202.167)" d="M 5543.43,3093.3 L 5552.88,3076.92 L 5562.33,3093.3 L 5562.88,3676.92 L 5542.88,3676.92 L 5543.43,3093.3 Z " />
<path stroke="none" fill="#ff0000" transform="matrix(0.0833333 0 0 0.0833333 -415.175 -202.167)" d="M 5571.79,3076.92 L 5552.88,3076.92 L 5562.33,3060.54 L 6067.5,2768.26 L 6077.5,2785.58 L 5571.79,3076.92 Z " />
<path stroke="none" fill="#ff0000" transform="matrix(0.0833333 0 0 0.0833333 -415.175 -202.167)" d="M 5533.97,3076.92 L 5552.88,3076.92 L 5543.43,3093.3 L 5038.26,3385.58 L 5028.26,3368.26 L 5533.97,3076.92 Z " />
<path stroke="none" fill="#ff0000" transform="matrix(0.0833333 0 0 0.0833333 -415.175 -202.167)" d="M 5543.43,3060.54 L 5552.88,3076.92 L 5533.97,3076.92 L 5028.26,2785.58 L 5038.26,2768.26 L 5543.43,3060.54 Z " />
<path stroke="none" fill="#ff0000" transform="matrix(0.0833333 0 0 0.0833333 -415.175 -202.167)" d="M 5562.33,3093.3 L 5552.88,3076.92 L 5571.79,3076.92 L 6077.5,3368.26 L 6067.5,3385.58 L 5562.33,3093.3 Z " />
<path stroke="none" fill="#808080" transform="matrix(0.0833333 0 0 0.0833333 -415.175 -202.167)" d="M 5192.88,3076.92 A 360,360 0 1 0 5912.88,3076.92A 360,360 0 1 0 5192.88,3076.92Z " />
<path stroke="none" fill="#878787" transform="matrix(0.0833333 0 0 0.0833333 -415.175 -202.167)" d="M 5197.1,3071.3 A 350.156,350.156 0 1 0 5897.41,3071.3A 350.156,350.156 0 1 0 5197.1,3071.3Z " />
<path stroke="none" fill="#8f8f8f" transform="matrix(0.0833333 0 0 0.0833333 -415.175 -202.167)" d="M 5201.32,3065.67 A 340.312,340.312 0 1 0 5881.94,3065.67A 340.312,340.312 0 1 0 5201.32,3065.67Z " />
<path stroke="none" fill="#969696" transform="matrix(0.0833333 0 0 0.0833333 -415.175 -202.167)" d="M 5205.54,3060.05 A 330.469,330.469 0 1 0 5866.47,3060.05A 330.469,330.469 0 1 0 5205.54,3060.05Z " />
<path stroke="none" fill="#9d9d9d" transform="matrix(0.0833333 0 0 0.0833333 -415.175 -202.167)" d="M 5209.76,3054.42 A 320.625,320.625 0 1 0 5851.01,3054.42A 320.625,320.625 0 1 0 5209.76,3054.42Z " />
<path stroke="none" fill="#a4a4a4" transform="matrix(0.0833333 0 0 0.0833333 -415.175 -202.167)" d="M 5213.97,3048.8 A 310.781,310.781 0 1 0 5835.54,3048.8A 310.781,310.781 0 1 0 5213.97,3048.8Z " />
<path stroke="none" fill="#ababab" transform="matrix(0.0833333 0 0 0.0833333 -415.175 -202.167)" d="M 5218.19,3043.17 A 300.938,300.938 0 1 0 5820.07,3043.17A 300.938,300.938 0 1 0 5218.19,3043.17Z " />
<path stroke="none" fill="#b1b1b1" transform="matrix(0.0833333 0 0 0.0833333 -415.175 -202.167)" d="M 5222.41,3037.55 A 291.094,291.094 0 1 0 5804.6,3037.55A 291.094,291.094 0 1 0 5222.41,3037.55Z " />
<path stroke="none" fill="#b7b7b7" transform="matrix(0.0833333 0 0 0.0833333 -415.175 -202.167)" d="M 5226.63,3031.92 A 281.25,281.25 0 1 0 5789.13,3031.92A 281.25,281.25 0 1 0 5226.63,3031.92Z " />
<path stroke="none" fill="#bdbdbd" transform="matrix(0.0833333 0 0 0.0833333 -415.175 -202.167)" d="M 5230.85,3026.3 A 271.406,271.406 0 1 0 5773.66,3026.3A 271.406,271.406 0 1 0 5230.85,3026.3Z " />
<path stroke="none" fill="#c2c2c2" transform="matrix(0.0833333 0 0 0.0833333 -415.175 -202.167)" d="M 5235.07,3020.67 A 261.562,261.562 0 1 0 5758.19,3020.67A 261.562,261.562 0 1 0 5235.07,3020.67Z " />
<path stroke="none" fill="#c8c8c8" transform="matrix(0.0833333 0 0 0.0833333 -415.175 -202.167)" d="M 5239.29,3015.05 A 251.719,251.719 0 1 0 5742.72,3015.05A 251.719,251.719 0 1 0 5239.29,3015.05Z " />
<path stroke="none" fill="#cdcdcd" transform="matrix(0.0833333 0 0 0.0833333 -415.175 -202.167)" d="M 5243.51,3009.42 A 241.875,241.875 0 1 0 5727.26,3009.42A 241.875,241.875 0 1 0 5243.51,3009.42Z " />
<path stroke="none" fill="#d2d2d2" transform="matrix(0.0833333 0 0 0.0833333 -415.175 -202.167)" d="M 5247.72,3003.8 A 232.031,232.031 0 1 0 5711.79,3003.8A 232.031,232.031 0 1 0 5247.72,3003.8Z " />
<path stroke="none" fill="#d6d6d6" transform="matrix(0.0833333 0 0 0.0833333 -415.175 -202.167)" d="M 5251.94,2998.17 A 222.188,222.188 0 1 0 5696.32,2998.17A 222.188,222.188 0 1 0 5251.94,2998.17Z " />
<path stroke="none" fill="#dbdbdb" transform="matrix(0.0833333 0 0 0.0833333 -415.175 -202.167)" d="M 5256.16,2992.55 A 212.344,212.344 0 1 0 5680.85,2992.55A 212.344,212.344 0 1 0 5256.16,2992.55Z " />
<path stroke="none" fill="#dfdfdf" transform="matrix(0.0833333 0 0 0.0833333 -415.175 -202.167)" d="M 5260.38,2986.92 A 202.5,202.5 0 1 0 5665.38,2986.92A 202.5,202.5 0 1 0 5260.38,2986.92Z " />
<path stroke="none" fill="#e3e3e3" transform="matrix(0.0833333 0 0 0.0833333 -415.175 -202.167)" d="M 5264.6,2981.3 A 192.656,192.656 0 1 0 5649.91,2981.3A 192.656,192.656 0 1 0 5264.6,2981.3Z " />
<path stroke="none" fill="#e6e6e6" transform="matrix(0.0833333 0 0 0.0833333 -415.175 -202.167)" d="M 5268.82,2975.67 A 182.812,182.812 0 1 0 5634.44,2975.67A 182.812,182.812 0 1 0 5268.82,2975.67Z " />
<path stroke="none" fill="#eaeaea" transform="matrix(0.0833333 0 0 0.0833333 -415.175 -202.167)" d="M 5273.04,2970.05 A 172.969,172.969 0 1 0 5618.97,2970.05A 172.969,172.969 0 1 0 5273.04,2970.05Z " />
<path stroke="none" fill="#ededed" transform="matrix(0.0833333 0 0 0.0833333 -415.175 -202.167)" d="M 5277.26,2964.42 A 163.125,163.125 0 1 0 5603.51,2964.42A 163.125,163.125 0 1 0 5277.26,2964.42Z " />
<path stroke="none" fill="#efefef" transform="matrix(0.0833333 0 0 0.0833333 -415.175 -202.167)" d="M 5281.47,2958.8 A 153.281,153.281 0 1 0 5588.04,2958.8A 153.281,153.281 0 1 0 5281.47,2958.8Z " />
<path stroke="none" fill="#f2f2f2" transform="matrix(0.0833333 0 0 0.0833333 -415.175 -202.167)" d="M 5285.69,2953.17 A 143.438,143.438 0 1 0 5572.57,2953.17A 143.438,143.438 0 1 0 5285.69,2953.17Z " />
<path stroke="none" fill="#f4f4f4" transform="matrix(0.0833333 0 0 0.0833333 -415.175 -202.167)" d="M 5289.91,2947.55 A 133.594,133.594 0 1 0 5557.1,2947.55A 133.594,133.594 0 1 0 5289.91,2947.55Z " />
<path stroke="none" fill="#f7f7f7" transform="matrix(0.0833333 0 0 0.0833333 -415.175 -202.167)" d="M 5294.13,2941.92 A 123.75,123.75 0 1 0 5541.63,2941.92A 123.75,123.75 0 1 0 5294.13,2941.92Z " />
<path stroke="none" fill="#f8f8f8" transform="matrix(0.0833333 0 0 0.0833333 -415.175 -202.167)" d="M 5298.35,2936.3 A 113.906,113.906 0 1 0 5526.16,2936.3A 113.906,113.906 0 1 0 5298.35,2936.3Z " />
<path stroke="none" fill="#fafafa" transform="matrix(0.0833333 0 0 0.0833333 -415.175 -202.167)" d="M 5302.57,2930.67 A 104.062,104.062 0 1 0 5510.69,2930.67A 104.062,104.062 0 1 0 5302.57,2930.67Z " />
<path stroke="none" fill="#fbfbfb" transform="matrix(0.0833333 0 0 0.0833333 -415.175 -202.167)" d="M 5306.79,2925.05 A 94.2188,94.2188 0 1 0 5495.22,2925.05A 94.2188,94.2188 0 1 0 5306.79,2925.05Z " />
<path stroke="none" fill="#fdfdfd" transform="matrix(0.0833333 0 0 0.0833333 -415.175 -202.167)" d="M 5311.01,2919.42 A 84.375,84.375 0 1 0 5479.76,2919.42A 84.375,84.375 0 1 0 5311.01,2919.42Z " />
<path stroke="none" fill="#fdfdfd" transform="matrix(0.0833333 0 0 0.0833333 -415.175 -202.167)" d="M 5315.22,2913.8 A 74.5312,74.5312 0 1 0 5464.29,2913.8A 74.5312,74.5312 0 1 0 5315.22,2913.8Z " />
<path stroke="none" fill="#fefefe" transform="matrix(0.0833333 0 0 0.0833333 -415.175 -202.167)" d="M 5319.44,2908.17 A 64.6875,64.6875 0 1 0 5448.82,2908.17A 64.6875,64.6875 0 1 0 5319.44,2908.17Z " />
<path stroke="none" fill="#fefefe" transform="matrix(0.0833333 0 0 0.0833333 -415.175 -202.167)" d="M 5323.66,2902.55 A 54.8438,54.8438 0 1 0 5433.35,2902.55A 54.8438,54.8438 0 1 0 5323.66,2902.55Z " />
<path stroke="#808080" stroke-width="20" fill="none" transform="matrix(0.0833333 0 0 0.0833333 -415.175 -202.167)" d="M 5192.88,3076.92 A 360,360 0 1 0 5912.88,3076.92A 360,360 0 1 0 5192.88,3076.92Z " />
<text x="0" y="0" stroke="none" fill="#000000" transform="matrix(0.0833333 0 0 0.0833333 31.825 58.8333)" font-style="normal" font-weight="normal" font-size="240px" font-family="Times New Roman" >
Ag</text>
<text x="0" y="0" stroke="none" fill="#000000" transform="matrix(0.0833333 0 0 0.0833333 56.2684 51.0833)" font-style="normal" font-weight="normal" font-size="180px" font-family="Times New Roman" >
+</text>
</svg>
