<?xml version="1.0" standalone="no" ?>
<!DOCTYPE svg PUBLIC "-//W3C//DTD SVG 1.1//EN" "http://www.w3.org/Graphics/SVG/1.1/DTD/svg11.dtd">
<svg width="95px" height="108px" viewBox="0 0 95 108" style="background-color: #ffffff00" xmlns="http://www.w3.org/2000/svg" xmlns:xlink="http://www.w3.org/1999/xlink" version="1.1" >
<path stroke="none" fill="#ff0000" transform="matrix(0.0833333 0 0 0.0833333 -179.346 -102.167)" d="M 2735.01,1877.66 L 2725.2,1872 L 2734.65,1855.62 L 3239.82,1563.34 L 3249.82,1580.66 L 2735.01,1877.66 Z " />
<path stroke="none" fill="#ff0000" transform="matrix(0.0833333 0 0 0.0833333 -179.346 -102.167)" d="M 2715.75,1855.62 L 2725.2,1872 L 2715.39,1877.66 L 2200.58,1580.66 L 2210.58,1563.34 L 2715.75,1855.62 Z " />
<path stroke="none" fill="#ff0000" transform="matrix(0.0833333 0 0 0.0833333 -179.346 -102.167)" d="M 2715.39,1877.66 L 2725.2,1872 L 2735.01,1877.66 L 2735.2,2472 L 2715.2,2472 L 2715.39,1877.66 Z " />
<path stroke="none" fill="#ff0000" transform="matrix(0.0833333 0 0 0.0833333 -179.346 -102.167)" d="M 2734.65,1855.62 L 2725.2,1872 L 2715.75,1855.62 L 2715.2,1272 L 2735.2,1272 L 2734.65,1855.62 Z " />
<path stroke="none" fill="#808080" transform="matrix(0.0833333 0 0 0.0833333 -179.346 -102.167)" d="M 2365.2,1872 A 360,360 0 1 0 3085.2,1872A 360,360 0 1 0 2365.2,1872Z " />
<path stroke="none" fill="#878787" transform="matrix(0.0833333 0 0 0.0833333 -179.346 -102.167)" d="M 2369.42,1866.38 A 350.156,350.156 0 1 0 3069.73,1866.38A 350.156,350.156 0 1 0 2369.42,1866.38Z " />
<path stroke="none" fill="#8f8f8f" transform="matrix(0.0833333 0 0 0.0833333 -179.346 -102.167)" d="M 2373.64,1860.75 A 340.312,340.312 0 1 0 3054.26,1860.75A 340.312,340.312 0 1 0 2373.64,1860.75Z " />
<path stroke="none" fill="#969696" transform="matrix(0.0833333 0 0 0.0833333 -179.346 -102.167)" d="M 2377.86,1855.12 A 330.469,330.469 0 1 0 3038.79,1855.12A 330.469,330.469 0 1 0 2377.86,1855.12Z " />
<path stroke="none" fill="#9d9d9d" transform="matrix(0.0833333 0 0 0.0833333 -179.346 -102.167)" d="M 2382.07,1849.5 A 320.625,320.625 0 1 0 3023.32,1849.5A 320.625,320.625 0 1 0 2382.07,1849.5Z " />
<path stroke="none" fill="#a4a4a4" transform="matrix(0.0833333 0 0 0.0833333 -179.346 -102.167)" d="M 2386.29,1843.88 A 310.781,310.781 0 1 0 3007.86,1843.88A 310.781,310.781 0 1 0 2386.29,1843.88Z " />
<path stroke="none" fill="#ababab" transform="matrix(0.0833333 0 0 0.0833333 -179.346 -102.167)" d="M 2390.51,1838.25 A 300.938,300.938 0 1 0 2992.39,1838.25A 300.938,300.938 0 1 0 2390.51,1838.25Z " />
<path stroke="none" fill="#b1b1b1" transform="matrix(0.0833333 0 0 0.0833333 -179.346 -102.167)" d="M 2394.73,1832.62 A 291.094,291.094 0 1 0 2976.92,1832.62A 291.094,291.094 0 1 0 2394.73,1832.62Z " />
<path stroke="none" fill="#b7b7b7" transform="matrix(0.0833333 0 0 0.0833333 -179.346 -102.167)" d="M 2398.95,1827 A 281.25,281.25 0 1 0 2961.45,1827A 281.25,281.25 0 1 0 2398.95,1827Z " />
<path stroke="none" fill="#bdbdbd" transform="matrix(0.0833333 0 0 0.0833333 -179.346 -102.167)" d="M 2403.17,1821.38 A 271.406,271.406 0 1 0 2945.98,1821.38A 271.406,271.406 0 1 0 2403.17,1821.38Z " />
<path stroke="none" fill="#c2c2c2" transform="matrix(0.0833333 0 0 0.0833333 -179.346 -102.167)" d="M 2407.39,1815.75 A 261.562,261.562 0 1 0 2930.51,1815.75A 261.562,261.562 0 1 0 2407.39,1815.75Z " />
<path stroke="none" fill="#c8c8c8" transform="matrix(0.0833333 0 0 0.0833333 -179.346 -102.167)" d="M 2411.61,1810.12 A 251.719,251.719 0 1 0 2915.04,1810.12A 251.719,251.719 0 1 0 2411.61,1810.12Z " />
<path stroke="none" fill="#cdcdcd" transform="matrix(0.0833333 0 0 0.0833333 -179.346 -102.167)" d="M 2415.82,1804.5 A 241.875,241.875 0 1 0 2899.57,1804.5A 241.875,241.875 0 1 0 2415.82,1804.5Z " />
<path stroke="none" fill="#d2d2d2" transform="matrix(0.0833333 0 0 0.0833333 -179.346 -102.167)" d="M 2420.04,1798.88 A 232.031,232.031 0 1 0 2884.11,1798.88A 232.031,232.031 0 1 0 2420.04,1798.88Z " />
<path stroke="none" fill="#d6d6d6" transform="matrix(0.0833333 0 0 0.0833333 -179.346 -102.167)" d="M 2424.26,1793.25 A 222.188,222.188 0 1 0 2868.64,1793.25A 222.188,222.188 0 1 0 2424.26,1793.25Z " />
<path stroke="none" fill="#dbdbdb" transform="matrix(0.0833333 0 0 0.0833333 -179.346 -102.167)" d="M 2428.48,1787.62 A 212.344,212.344 0 1 0 2853.17,1787.62A 212.344,212.344 0 1 0 2428.48,1787.62Z " />
<path stroke="none" fill="#dfdfdf" transform="matrix(0.0833333 0 0 0.0833333 -179.346 -102.167)" d="M 2432.7,1782 A 202.5,202.5 0 1 0 2837.7,1782A 202.5,202.5 0 1 0 2432.7,1782Z " />
<path stroke="none" fill="#e3e3e3" transform="matrix(0.0833333 0 0 0.0833333 -179.346 -102.167)" d="M 2436.92,1776.38 A 192.656,192.656 0 1 0 2822.23,1776.38A 192.656,192.656 0 1 0 2436.92,1776.38Z " />
<path stroke="none" fill="#e6e6e6" transform="matrix(0.0833333 0 0 0.0833333 -179.346 -102.167)" d="M 2441.14,1770.75 A 182.812,182.812 0 1 0 2806.76,1770.75A 182.812,182.812 0 1 0 2441.14,1770.75Z " />
<path stroke="none" fill="#eaeaea" transform="matrix(0.0833333 0 0 0.0833333 -179.346 -102.167)" d="M 2445.36,1765.12 A 172.969,172.969 0 1 0 2791.29,1765.12A 172.969,172.969 0 1 0 2445.36,1765.12Z " />
<path stroke="none" fill="#ededed" transform="matrix(0.0833333 0 0 0.0833333 -179.346 -102.167)" d="M 2449.57,1759.5 A 163.125,163.125 0 1 0 2775.82,1759.5A 163.125,163.125 0 1 0 2449.57,1759.5Z " />
<path stroke="none" fill="#efefef" transform="matrix(0.0833333 0 0 0.0833333 -179.346 -102.167)" d="M 2453.79,1753.88 A 153.281,153.281 0 1 0 2760.36,1753.88A 153.281,153.281 0 1 0 2453.79,1753.88Z " />
<path stroke="none" fill="#f2f2f2" transform="matrix(0.0833333 0 0 0.0833333 -179.346 -102.167)" d="M 2458.01,1748.25 A 143.438,143.438 0 1 0 2744.89,1748.25A 143.438,143.438 0 1 0 2458.01,1748.25Z " />
<path stroke="none" fill="#f4f4f4" transform="matrix(0.0833333 0 0 0.0833333 -179.346 -102.167)" d="M 2462.23,1742.62 A 133.594,133.594 0 1 0 2729.42,1742.62A 133.594,133.594 0 1 0 2462.23,1742.62Z " />
<path stroke="none" fill="#f7f7f7" transform="matrix(0.0833333 0 0 0.0833333 -179.346 -102.167)" d="M 2466.45,1737 A 123.75,123.75 0 1 0 2713.95,1737A 123.75,123.75 0 1 0 2466.45,1737Z " />
<path stroke="none" fill="#f8f8f8" transform="matrix(0.0833333 0 0 0.0833333 -179.346 -102.167)" d="M 2470.67,1731.38 A 113.906,113.906 0 1 0 2698.48,1731.38A 113.906,113.906 0 1 0 2470.67,1731.38Z " />
<path stroke="none" fill="#fafafa" transform="matrix(0.0833333 0 0 0.0833333 -179.346 -102.167)" d="M 2474.89,1725.75 A 104.062,104.062 0 1 0 2683.01,1725.75A 104.062,104.062 0 1 0 2474.89,1725.75Z " />
<path stroke="none" fill="#fbfbfb" transform="matrix(0.0833333 0 0 0.0833333 -179.346 -102.167)" d="M 2479.11,1720.12 A 94.2188,94.2188 0 1 0 2667.54,1720.12A 94.2188,94.2188 0 1 0 2479.11,1720.12Z " />
<path stroke="none" fill="#fdfdfd" transform="matrix(0.0833333 0 0 0.0833333 -179.346 -102.167)" d="M 2483.32,1714.5 A 84.375,84.375 0 1 0 2652.07,1714.5A 84.375,84.375 0 1 0 2483.32,1714.5Z " />
<path stroke="none" fill="#fdfdfd" transform="matrix(0.0833333 0 0 0.0833333 -179.346 -102.167)" d="M 2487.54,1708.88 A 74.5312,74.5312 0 1 0 2636.61,1708.88A 74.5312,74.5312 0 1 0 2487.54,1708.88Z " />
<path stroke="none" fill="#fefefe" transform="matrix(0.0833333 0 0 0.0833333 -179.346 -102.167)" d="M 2491.76,1703.25 A 64.6875,64.6875 0 1 0 2621.14,1703.25A 64.6875,64.6875 0 1 0 2491.76,1703.25Z " />
<path stroke="none" fill="#fefefe" transform="matrix(0.0833333 0 0 0.0833333 -179.346 -102.167)" d="M 2495.98,1697.62 A 54.8438,54.8438 0 1 0 2605.67,1697.62A 54.8438,54.8438 0 1 0 2495.98,1697.62Z " />
<path stroke="#808080" stroke-width="20" fill="none" transform="matrix(0.0833333 0 0 0.0833333 -179.346 -102.167)" d="M 2365.2,1872 A 360,360 0 1 0 3085.2,1872A 360,360 0 1 0 2365.2,1872Z " />
<text x="0" y="0" stroke="none" fill="#000000" transform="matrix(0.0833333 0 0 0.0833333 32.0875 59.1667)" font-style="normal" font-weight="normal" font-size="240px" font-family="Times New Roman" >
Ag</text>
<text x="0" y="0" stroke="none" fill="#000000" transform="matrix(0.0833333 0 0 0.0833333 56.5309 51.4167)" font-style="normal" font-weight="normal" font-size="180px" font-family="Times New Roman" >
+</text>
</svg>
