<?xml version="1.0" standalone="no" ?>
<!DOCTYPE svg PUBLIC "-//W3C//DTD SVG 1.1//EN" "http://www.w3.org/Graphics/SVG/1.1/DTD/svg11.dtd">
<svg width="296px" height="172px" viewBox="0 0 296 172" style="background-color: #ffffff00" xmlns="http://www.w3.org/2000/svg" xmlns:xlink="http://www.w3.org/1999/xlink" version="1.1" >
<text x="0" y="0" stroke="none" fill="#ff0000" transform="matrix(0.0833333 0 0 0.0833333 118.207 40.225)" font-style="normal" font-weight="normal" font-size="63px" font-family="Arial" >
1</text>
<text x="0" y="0" stroke="none" fill="#ff0000" transform="matrix(0.0833333 0 0 0.0833333 118.207 56.025)" font-style="normal" font-weight="normal" font-size="63px" font-family="Arial" >
2</text>
<text x="0" y="0" stroke="none" fill="#ff0000" transform="matrix(0.0833333 0 0 0.0833333 131.89 63.925)" font-style="normal" font-weight="normal" font-size="63px" font-family="Arial" >
3</text>
<text x="0" y="0" stroke="none" fill="#ff0000" transform="matrix(0.0833333 0 0 0.0833333 145.573 56.025)" font-style="normal" font-weight="normal" font-size="63px" font-family="Arial" >
4</text>
<text x="0" y="0" stroke="none" fill="#ff0000" transform="matrix(0.0833333 0 0 0.0833333 145.573 40.225)" font-style="normal" font-weight="normal" font-size="63px" font-family="Arial" >
5</text>
<text x="0" y="0" stroke="none" fill="#ff0000" transform="matrix(0.0833333 0 0 0.0833333 131.89 32.325)" font-style="normal" font-weight="normal" font-size="63px" font-family="Arial" >
6</text>
<path stroke="none" fill="#000000" transform="matrix(0.0833333 0 0 0.0833333 -135.75 -537.917)" d="M 3061.8,6949.8 L 3068.2,6949.8 L 3068.2,7070.2 L 3061.8,7070.2 L 3061.8,6949.8 Z " />
<path stroke="none" fill="#000000" transform="matrix(0.0833333 0 0 0.0833333 -135.75 -537.917)" d="M 3084.55,6949.8 L 3090.95,6949.8 L 3090.95,7070.2 L 3084.55,7070.2 L 3084.55,6949.8 Z " />
<path stroke="none" fill="#000000" transform="matrix(0.0833333 0 0 0.0833333 -135.75 -537.917)" d="M 3095.57,7124.14 L 3098.76,7118.6 L 3203.69,7179.18 L 3200.49,7184.72 L 3095.57,7124.14 Z " />
<path stroke="none" fill="#000000" transform="matrix(0.0833333 0 0 0.0833333 -135.75 -537.917)" d="M 3256.38,7185.6 L 3253.18,7180.06 L 3362.12,7117.16 L 3365.32,7122.71 L 3256.38,7185.6 Z " />
<path stroke="none" fill="#000000" transform="matrix(0.0833333 0 0 0.0833333 -135.75 -537.917)" d="M 3245.01,7165.9 L 3241.81,7160.35 L 3350.74,7097.46 L 3353.94,7103 L 3245.01,7165.9 Z " />
<path stroke="none" fill="#000000" transform="matrix(0.0833333 0 0 0.0833333 -135.75 -537.917)" d="M 3396.6,7071.2 L 3390.2,7071.2 L 3390.2,6949.97 L 3396.6,6949.97 L 3396.6,7071.2 Z " />
<path stroke="none" fill="#000000" transform="matrix(0.0833333 0 0 0.0833333 -135.75 -537.917)" d="M 3367.61,6894.62 L 3364.41,6900.16 L 3255.98,6837.56 L 3259.18,6832.02 L 3367.61,6894.62 Z " />
<path stroke="none" fill="#000000" transform="matrix(0.0833333 0 0 0.0833333 -135.75 -537.917)" d="M 3356.23,6914.32 L 3353.04,6919.86 L 3244.61,6857.26 L 3247.81,6851.72 L 3356.23,6914.32 Z " />
<path stroke="none" fill="#000000" transform="matrix(0.0833333 0 0 0.0833333 -135.75 -537.917)" d="M 3198.75,6832.28 L 3201.95,6837.82 L 3090.28,6902.3 L 3087.08,6896.76 L 3198.75,6832.28 Z " />
<text x="0" y="0" stroke="none" fill="#ff0000" transform="matrix(0.0833333 0 0 0.0833333 159.257 63.925)" font-style="normal" font-weight="normal" font-size="63px" font-family="Arial" >
7</text>
<path stroke="none" fill="#000000" transform="matrix(0.0833333 0 0 0.0833333 -135.75 -537.917)" d="M 3419.2,7121.39 L 3422.4,7115.85 L 3528.42,7177.06 L 3525.22,7182.6 L 3419.2,7121.39 Z " />
<text x="0" y="0" stroke="none" fill="#ff0000" transform="matrix(0.0833333 0 0 0.0833333 172.94 56.025)" font-style="normal" font-weight="normal" font-size="63px" font-family="Arial" >
8</text>
<path stroke="none" fill="#000000" transform="matrix(0.0833333 0 0 0.0833333 -135.75 -537.917)" d="M 3589.2,7183.05 L 3586,7177.51 L 3690.6,7117.12 L 3693.8,7122.66 L 3589.2,7183.05 Z " />
<text x="0" y="0" stroke="none" fill="#ff0000" transform="matrix(0.0833333 0 0 0.0833333 186.623 63.925)" font-style="normal" font-weight="normal" font-size="63px" font-family="Arial" >
9</text>
<text x="0" y="0" stroke="none" fill="#ff0000" transform="matrix(0.0833333 0 0 0.0833333 197.387 56.025)" font-style="normal" font-weight="normal" font-size="63px" font-family="Arial" >
10</text>
<text x="0" y="0" stroke="none" fill="#ff0000" transform="matrix(0.0833333 0 0 0.0833333 197.387 40.225)" font-style="normal" font-weight="normal" font-size="63px" font-family="Arial" >
11</text>
<text x="0" y="0" stroke="none" fill="#ff0000" transform="matrix(0.0833333 0 0 0.0833333 186.623 32.325)" font-style="normal" font-weight="normal" font-size="63px" font-family="Arial" >
12</text>
<text x="0" y="0" stroke="none" fill="#ff0000" transform="matrix(0.0833333 0 0 0.0833333 172.94 40.225)" font-style="normal" font-weight="normal" font-size="63px" font-family="Arial" >
13</text>
<path stroke="none" fill="#000000" transform="matrix(0.0833333 0 0 0.0833333 -135.75 -537.917)" d="M 3749.02,7122.21 L 3752.22,7116.67 L 3860.49,7179.18 L 3857.29,7184.72 L 3749.02,7122.21 Z " />
<path stroke="none" fill="#000000" transform="matrix(0.0833333 0 0 0.0833333 -135.75 -537.917)" d="M 3760.39,7102.5 L 3763.59,7096.96 L 3871.86,7159.47 L 3868.66,7165.01 L 3760.39,7102.5 Z " />
<path stroke="none" fill="#000000" transform="matrix(0.0833333 0 0 0.0833333 -135.75 -537.917)" d="M 3913.18,7185.6 L 3909.98,7180.06 L 4000.63,7127.72 L 4003.83,7133.27 L 3913.18,7185.6 Z " />
<path stroke="none" fill="#000000" transform="matrix(0.0833333 0 0 0.0833333 -135.75 -537.917)" d="M 4053.4,7070.2 L 4047,7070.2 L 4047,6949.8 L 4053.4,6949.8 L 4053.4,7070.2 Z " />
<path stroke="none" fill="#000000" transform="matrix(0.0833333 0 0 0.0833333 -135.75 -537.917)" d="M 4030.65,7070.2 L 4024.25,7070.2 L 4024.25,6949.8 L 4030.65,6949.8 L 4030.65,7070.2 Z " />
<path stroke="none" fill="#000000" transform="matrix(0.0833333 0 0 0.0833333 -135.75 -537.917)" d="M 4002.07,6881.72 L 3998.87,6887.26 L 3942.81,6854.9 L 3946.01,6849.35 L 4002.07,6881.72 Z " />
<path stroke="none" fill="#000000" transform="matrix(0.0833333 0 0 0.0833333 -135.75 -537.917)" d="M 3865.3,6826.65 L 3868.5,6832.2 L 3775.23,6886.04 L 3772.03,6880.5 L 3865.3,6826.65 Z " />
<path stroke="none" fill="#000000" transform="matrix(0.0833333 0 0 0.0833333 -135.75 -537.917)" d="M 3876.68,6846.36 L 3879.88,6851.9 L 3786.61,6905.75 L 3783.41,6900.21 L 3876.68,6846.36 Z " />
<path stroke="none" fill="#000000" transform="matrix(0.0833333 0 0 0.0833333 -135.75 -537.917)" d="M 3718.6,6950.8 L 3725,6950.8 L 3725,7070.2 L 3718.6,7070.2 L 3718.6,6950.8 Z " />
<text x="0" y="0" stroke="none" fill="#000000" transform="matrix(0.0833333 0 0 0.0833333 213.554 32.325)" font-style="normal" font-weight="normal" font-size="63px" font-family="Arial" >
N</text>
<path stroke="none" fill="#000000" transform="matrix(0.0833333 0 0 0.0833333 -135.75 -537.917)" d="M 4075.45,6902.31 L 4072.25,6896.77 L 4177.43,6836.05 L 4180.63,6841.59 L 4075.45,6902.31 Z " />
<text x="0" y="0" stroke="none" fill="#000000" transform="matrix(0.0833333 0 0 0.0833333 104.088 32.325)" font-style="normal" font-weight="normal" font-size="63px" font-family="Arial" >
N</text>
<path stroke="none" fill="#000000" transform="matrix(0.0833333 0 0 0.0833333 -135.75 -537.917)" d="M 3043.15,6896.89 L 3039.95,6902.43 L 2933.44,6840.94 L 2936.64,6835.4 L 3043.15,6896.89 Z " />
<text x="0" y="0" stroke="none" fill="#ff0000" transform="matrix(0.0833333 0 0 0.0833333 90.8401 40.225)" font-style="normal" font-weight="normal" font-size="63px" font-family="Arial" >
16</text>
<path stroke="none" fill="#000000" transform="matrix(0.0833333 0 0 0.0833333 -135.75 -537.917)" d="M 2869.52,6845.9 L 2872.72,6851.44 L 2796.47,6895.46 L 2793.27,6889.92 L 2869.52,6845.9 Z " />
<path stroke="none" fill="#000000" transform="matrix(0.0833333 0 0 0.0833333 -135.75 -537.917)" d="M 2858.15,6826.19 L 2861.35,6831.74 L 2785.1,6875.76 L 2781.9,6870.22 L 2858.15,6826.19 Z " />
<text x="0" y="0" stroke="none" fill="#ff0000" transform="matrix(0.0833333 0 0 0.0833333 227.673 40.225)" font-style="normal" font-weight="normal" font-size="63px" font-family="Arial" >
17</text>
<path stroke="none" fill="#000000" transform="matrix(0.0833333 0 0 0.0833333 -135.75 -537.917)" d="M 4252.73,6831.09 L 4255.93,6825.55 L 4362.44,6887.04 L 4359.24,6892.58 L 4252.73,6831.09 Z " />
<path stroke="none" fill="#000000" transform="matrix(0.0833333 0 0 0.0833333 -135.75 -537.917)" d="M 4241.35,6850.79 L 4244.55,6845.25 L 4351.06,6906.74 L 4347.86,6912.29 L 4241.35,6850.79 Z " />
<text x="0" y="0" stroke="none" fill="#ff0000" transform="matrix(0.0833333 0 0 0.0833333 238.437 32.325)" font-style="normal" font-weight="normal" font-size="63px" font-family="Arial" >
18</text>
<path stroke="none" fill="#000000" transform="matrix(0.0833333 0 0 0.0833333 -135.75 -537.917)" d="M 4436.45,6883.5 L 4433.25,6877.95 L 4493.23,6843.32 L 4496.43,6848.87 L 4436.45,6883.5 Z " />
<text x="0" y="0" stroke="none" fill="#ff0000" transform="matrix(0.0833333 0 0 0.0833333 74.237 32.325)" font-style="normal" font-weight="normal" font-size="63px" font-family="Arial" >
19</text>
<path stroke="none" fill="#000000" transform="matrix(0.0833333 0 0 0.0833333 -135.75 -537.917)" d="M 2714.75,6896.89 L 2711.55,6902.43 L 2598.2,6836.99 L 2601.4,6831.45 L 2714.75,6896.89 Z " />
<text x="0" y="0" stroke="none" fill="#000000" transform="matrix(0.0833333 0 0 0.0833333 76.721 16.525)" font-style="normal" font-weight="normal" font-size="63px" font-family="Arial" >
N</text>
<text x="0" y="0" stroke="none" fill="#ff0000" transform="matrix(0.0833333 0 0 0.0833333 63.4734 8.62499)" font-style="normal" font-weight="normal" font-size="63px" font-family="Arial" >
21</text>
<text x="0" y="0" stroke="none" fill="#ff0000" transform="matrix(0.0833333 0 0 0.0833333 46.8703 16.525)" font-style="normal" font-weight="normal" font-size="63px" font-family="Arial" >
22</text>
<text x="0" y="0" stroke="none" fill="#ff0000" transform="matrix(0.0833333 0 0 0.0833333 49.7901 32.325)" font-style="normal" font-weight="normal" font-size="63px" font-family="Arial" >
23</text>
<text x="0" y="0" stroke="none" fill="#ff0000" transform="matrix(0.0833333 0 0 0.0833333 63.4734 40.225)" font-style="normal" font-weight="normal" font-size="63px" font-family="Arial" >
24</text>
<path stroke="none" fill="#000000" transform="matrix(0.0833333 0 0 0.0833333 -135.75 -537.917)" d="M 2575.6,6785.8 L 2569.2,6785.8 L 2569.2,6665.4 L 2575.6,6665.4 L 2575.6,6785.8 Z " />
<path stroke="none" fill="#000000" transform="matrix(0.0833333 0 0 0.0833333 -135.75 -537.917)" d="M 2552.85,6785.8 L 2546.45,6785.8 L 2546.45,6665.4 L 2552.85,6665.4 L 2552.85,6785.8 Z " />
<path stroke="none" fill="#000000" transform="matrix(0.0833333 0 0 0.0833333 -135.75 -537.917)" d="M 2540.37,6606.61 L 2537.17,6612.15 L 2458.26,6566.6 L 2461.46,6561.06 L 2540.37,6606.61 Z " />
<path stroke="none" fill="#000000" transform="matrix(0.0833333 0 0 0.0833333 -135.75 -537.917)" d="M 2372.91,6550.68 L 2376.11,6556.22 L 2272.22,6616.2 L 2269.02,6610.66 L 2372.91,6550.68 Z " />
<path stroke="none" fill="#000000" transform="matrix(0.0833333 0 0 0.0833333 -135.75 -537.917)" d="M 2384.28,6570.39 L 2387.48,6575.93 L 2283.6,6635.9 L 2280.4,6630.36 L 2384.28,6570.39 Z " />
<path stroke="none" fill="#000000" transform="matrix(0.0833333 0 0 0.0833333 -135.75 -537.917)" d="M 2240.8,6665.4 L 2247.2,6665.4 L 2247.2,6785.8 L 2240.8,6785.8 L 2240.8,6665.4 Z " />
<path stroke="none" fill="#000000" transform="matrix(0.0833333 0 0 0.0833333 -135.75 -537.917)" d="M 2297.15,6852.78 L 2300.35,6847.24 L 2382.69,6894.77 L 2379.49,6900.32 L 2297.15,6852.78 Z " />
<path stroke="none" fill="#000000" transform="matrix(0.0833333 0 0 0.0833333 -135.75 -537.917)" d="M 2308.53,6833.08 L 2311.73,6827.53 L 2394.06,6875.07 L 2390.86,6880.61 L 2308.53,6833.08 Z " />
<path stroke="none" fill="#000000" transform="matrix(0.0833333 0 0 0.0833333 -135.75 -537.917)" d="M 2461.55,6886.09 L 2458.35,6880.55 L 2522.83,6843.32 L 2526.03,6848.87 L 2461.55,6886.09 Z " />
<text x="0" y="0" stroke="none" fill="#ff0000" transform="matrix(0.0833333 0 0 0.0833333 255.04 40.225)" font-style="normal" font-weight="normal" font-size="63px" font-family="Arial" >
25</text>
<text x="0" y="0" stroke="none" fill="#ff0000" transform="matrix(0.0833333 0 0 0.0833333 265.804 32.325)" font-style="normal" font-weight="normal" font-size="63px" font-family="Arial" >
26</text>
<text x="0" y="0" stroke="none" fill="#ff0000" transform="matrix(0.0833333 0 0 0.0833333 265.804 16.525)" font-style="normal" font-weight="normal" font-size="63px" font-family="Arial" >
27</text>
<text x="0" y="0" stroke="none" fill="#ff0000" transform="matrix(0.0833333 0 0 0.0833333 255.04 8.62499)" font-style="normal" font-weight="normal" font-size="63px" font-family="Arial" >
28</text>
<text x="0" y="0" stroke="none" fill="#000000" transform="matrix(0.0833333 0 0 0.0833333 240.921 16.525)" font-style="normal" font-weight="normal" font-size="63px" font-family="Arial" >
N</text>
<path stroke="none" fill="#000000" transform="matrix(0.0833333 0 0 0.0833333 -135.75 -537.917)" d="M 4569.99,6837.79 L 4573.19,6832.25 L 4681.49,6894.77 L 4678.29,6900.32 L 4569.99,6837.79 Z " />
<path stroke="none" fill="#000000" transform="matrix(0.0833333 0 0 0.0833333 -135.75 -537.917)" d="M 4581.36,6818.09 L 4584.56,6812.55 L 4692.86,6875.07 L 4689.66,6880.61 L 4581.36,6818.09 Z " />
<path stroke="none" fill="#000000" transform="matrix(0.0833333 0 0 0.0833333 -135.75 -537.917)" d="M 4763.35,6884.36 L 4760.15,6878.82 L 4809.63,6850.25 L 4812.83,6855.8 L 4763.35,6884.36 Z " />
<path stroke="none" fill="#000000" transform="matrix(0.0833333 0 0 0.0833333 -135.75 -537.917)" d="M 4874.4,6785.8 L 4868,6785.8 L 4868,6665.4 L 4874.4,6665.4 L 4874.4,6785.8 Z " />
<path stroke="none" fill="#000000" transform="matrix(0.0833333 0 0 0.0833333 -135.75 -537.917)" d="M 4851.65,6785.8 L 4845.25,6785.8 L 4845.25,6665.4 L 4851.65,6665.4 L 4851.65,6785.8 Z " />
<path stroke="none" fill="#000000" transform="matrix(0.0833333 0 0 0.0833333 -135.75 -537.917)" d="M 4819.41,6595.2 L 4816.21,6600.75 L 4760.47,6568.56 L 4763.67,6563.02 L 4819.41,6595.2 Z " />
<path stroke="none" fill="#000000" transform="matrix(0.0833333 0 0 0.0833333 -135.75 -537.917)" d="M 4671.71,6550.68 L 4674.91,6556.22 L 4576.91,6612.8 L 4573.71,6607.26 L 4671.71,6550.68 Z " />
<path stroke="none" fill="#000000" transform="matrix(0.0833333 0 0 0.0833333 -135.75 -537.917)" d="M 4683.08,6570.39 L 4686.28,6575.93 L 4588.29,6632.51 L 4585.09,6626.96 L 4683.08,6570.39 Z " />
<path stroke="none" fill="#000000" transform="matrix(0.0833333 0 0 0.0833333 -135.75 -537.917)" d="M 4539.6,6665.4 L 4546,6665.4 L 4546,6785.8 L 4539.6,6785.8 L 4539.6,6665.4 Z " />
<text x="0" y="0" stroke="none" fill="#000000" transform="matrix(0.0833333 0 0 0.0833333 29.6897 8.62499)" font-style="normal" font-weight="normal" font-size="63px" font-family="Arial" >
H</text>
<text x="0" y="0" stroke="none" fill="#000000" transform="matrix(0.0833333 0 0 0.0833333 33.4811 9.79166)" font-style="normal" font-weight="normal" font-size="47.25px" font-family="Arial" >
3</text>
<text x="0" y="0" stroke="none" fill="#000000" transform="matrix(0.0833333 0 0 0.0833333 35.671 8.62499)" font-style="normal" font-weight="normal" font-size="63px" font-family="Arial" >
C</text>
<path stroke="none" fill="#000000" transform="matrix(0.0833333 0 0 0.0833333 -135.75 -537.917)" d="M 2192.21,6595.2 L 2189.01,6600.75 L 2109.83,6555.03 L 2113.03,6549.49 L 2192.21,6595.2 Z " />
<text x="0" y="0" stroke="none" fill="#000000" transform="matrix(0.0833333 0 0 0.0833333 281.971 8.62499)" font-style="normal" font-weight="normal" font-size="63px" font-family="Arial" >
CH</text>
<text x="0" y="0" stroke="none" fill="#000000" transform="matrix(0.0833333 0 0 0.0833333 289.554 9.79166)" font-style="normal" font-weight="normal" font-size="47.25px" font-family="Arial" >
3</text>
<path stroke="none" fill="#000000" transform="matrix(0.0833333 0 0 0.0833333 -135.75 -537.917)" d="M 4902.77,6614.27 L 4899.57,6608.72 L 5003.04,6548.99 L 5006.24,6554.53 L 4902.77,6614.27 Z " />
<text x="0" y="0" stroke="none" fill="#ff0000" transform="matrix(0.0833333 0 0 0.0833333 33.3666 16.3333)" font-style="normal" font-weight="normal" font-size="63px" font-family="Arial" >
30</text>
<text x="0" y="0" stroke="none" fill="#ff0000" transform="matrix(0.0833333 0 0 0.0833333 82.6166 14.0833)" font-style="normal" font-weight="normal" font-size="63px" font-family="Arial" >
22</text>
<text x="0" y="0" stroke="none" fill="#ff0000" transform="matrix(0.0833333 0 0 0.0833333 103.617 25.7)" font-style="normal" font-weight="normal" font-size="63px" font-family="Arial" >
15</text>
<text x="0" y="0" stroke="none" fill="#ff0000" transform="matrix(0.0833333 0 0 0.0833333 212 25.95)" font-style="normal" font-weight="normal" font-size="63px" font-family="Arial" >
14</text>
<text x="0" y="0" stroke="none" fill="#ff0000" transform="matrix(0.0833333 0 0 0.0833333 234.367 13.45)" font-style="normal" font-weight="normal" font-size="63px" font-family="Arial" >
29</text>
<text x="0" y="0" stroke="none" fill="#ff0000" transform="matrix(0.0833333 0 0 0.0833333 283.617 16.7)" font-style="normal" font-weight="normal" font-size="63px" font-family="Arial" >
31</text>
<text x="0" y="0" stroke="none" fill="#000000" transform="matrix(0.0833333 0 0 0.0833333 91.9401 143.892)" font-style="normal" font-weight="normal" font-size="63px" font-family="Arial" >
5</text>
<text x="0" y="0" stroke="none" fill="#000000" transform="matrix(0.0833333 0 0 0.0833333 91.9401 159.692)" font-style="normal" font-weight="normal" font-size="63px" font-family="Arial" >
4</text>
<text x="0" y="0" stroke="none" fill="#000000" transform="matrix(0.0833333 0 0 0.0833333 105.623 167.592)" font-style="normal" font-weight="normal" font-size="63px" font-family="Arial" >
3</text>
<text x="0" y="0" stroke="none" fill="#000000" transform="matrix(0.0833333 0 0 0.0833333 119.307 159.692)" font-style="normal" font-weight="normal" font-size="63px" font-family="Arial" >
2</text>
<text x="0" y="0" stroke="none" fill="#000000" transform="matrix(0.0833333 0 0 0.0833333 119.307 143.892)" font-style="normal" font-weight="normal" font-size="63px" font-family="Arial" >
3</text>
<text x="0" y="0" stroke="none" fill="#000000" transform="matrix(0.0833333 0 0 0.0833333 105.623 135.992)" font-style="normal" font-weight="normal" font-size="63px" font-family="Arial" >
4</text>
<path stroke="none" fill="#000000" transform="matrix(0.0833333 0 0 0.0833333 -135.75 -537.917)" d="M 2746.6,8193.97 L 2753,8193.97 L 2753,8315.2 L 2746.6,8315.2 L 2746.6,8193.97 Z " />
<path stroke="none" fill="#000000" transform="matrix(0.0833333 0 0 0.0833333 -135.75 -537.917)" d="M 2769.35,8193.97 L 2775.75,8193.97 L 2775.75,8315.2 L 2769.35,8315.2 L 2769.35,8193.97 Z " />
<path stroke="none" fill="#000000" transform="matrix(0.0833333 0 0 0.0833333 -135.75 -537.917)" d="M 2775.6,8365.39 L 2778.8,8359.85 L 2888.49,8423.17 L 2885.29,8428.72 L 2775.6,8365.39 Z " />
<path stroke="none" fill="#000000" transform="matrix(0.0833333 0 0 0.0833333 -135.75 -537.917)" d="M 2941.18,8429.6 L 2937.98,8424.06 L 3042.91,8363.48 L 3046.11,8369.02 L 2941.18,8429.6 Z " />
<path stroke="none" fill="#000000" transform="matrix(0.0833333 0 0 0.0833333 -135.75 -537.917)" d="M 2929.81,8409.9 L 2926.61,8404.35 L 3031.53,8343.78 L 3034.73,8349.32 L 2929.81,8409.9 Z " />
<path stroke="none" fill="#000000" transform="matrix(0.0833333 0 0 0.0833333 -135.75 -537.917)" d="M 3081.4,8314.2 L 3075,8314.2 L 3075,8194.8 L 3081.4,8194.8 L 3081.4,8314.2 Z " />
<path stroke="none" fill="#000000" transform="matrix(0.0833333 0 0 0.0833333 -135.75 -537.917)" d="M 3052.69,8138.77 L 3049.49,8144.32 L 2939.8,8080.99 L 2943,8075.45 L 3052.69,8138.77 Z " />
<path stroke="none" fill="#000000" transform="matrix(0.0833333 0 0 0.0833333 -135.75 -537.917)" d="M 3041.31,8158.48 L 3038.11,8164.02 L 2928.43,8100.7 L 2931.63,8095.15 L 3041.31,8158.48 Z " />
<path stroke="none" fill="#000000" transform="matrix(0.0833333 0 0 0.0833333 -135.75 -537.917)" d="M 2882.72,8076.76 L 2885.92,8082.31 L 2780.26,8143.31 L 2777.06,8137.77 L 2882.72,8076.76 Z " />
<text x="0" y="0" stroke="none" fill="#000000" transform="matrix(0.0833333 0 0 0.0833333 132.99 167.592)" font-style="normal" font-weight="normal" font-size="63px" font-family="Arial" >
1</text>
<path stroke="none" fill="#000000" transform="matrix(0.0833333 0 0 0.0833333 -135.75 -537.917)" d="M 3108.76,8368.14 L 3111.96,8362.6 L 3220.55,8425.29 L 3217.35,8430.83 L 3108.76,8368.14 Z " />
<path stroke="none" fill="#000000" transform="matrix(0.0833333 0 0 0.0833333 -135.75 -537.917)" d="M 3267.68,8430.7 L 3264.48,8425.16 L 3403.46,8345 L 3406.6,8346.8 L 3406.59,8350.42 L 3267.68,8430.7 Z " />
<text x="0" y="0" stroke="none" fill="#000000" transform="matrix(0.0833333 0 0 0.0833333 77.821 135.992)" font-style="normal" font-weight="normal" font-size="63px" font-family="Arial" >
N</text>
<path stroke="none" fill="#000000" transform="matrix(0.0833333 0 0 0.0833333 -135.75 -537.917)" d="M 2724.01,8138.62 L 2720.81,8144.16 L 2618.24,8084.94 L 2621.44,8079.4 L 2724.01,8138.62 Z " />
<text x="0" y="0" stroke="none" fill="#000000" transform="matrix(0.0833333 0 0 0.0833333 64.5734 143.892)" font-style="normal" font-weight="normal" font-size="63px" font-family="Arial" >
7</text>
<path stroke="none" fill="#000000" transform="matrix(0.0833333 0 0 0.0833333 -135.75 -537.917)" d="M 2554.32,8089.9 L 2557.52,8095.44 L 2458.69,8152.5 L 2455.49,8146.96 L 2554.32,8089.9 Z " />
<path stroke="none" fill="#000000" transform="matrix(0.0833333 0 0 0.0833333 -135.75 -537.917)" d="M 2542.95,8070.19 L 2546.15,8075.74 L 2447.31,8132.8 L 2444.11,8127.26 L 2542.95,8070.19 Z " />
<text x="0" y="0" stroke="none" fill="#000000" transform="matrix(0.0833333 0 0 0.0833333 50.8901 135.992)" font-style="normal" font-weight="normal" font-size="63px" font-family="Arial" >
8</text>
<path stroke="none" fill="#000000" transform="matrix(0.0833333 0 0 0.0833333 -135.75 -537.917)" d="M 2392.22,8136.66 L 2389.02,8142.2 L 2284.42,8081.81 L 2287.62,8076.27 L 2392.22,8136.66 Z " />
<text x="0" y="0" stroke="none" fill="#000000" transform="matrix(0.0833333 0 0 0.0833333 50.4543 120.192)" font-style="normal" font-weight="normal" font-size="63px" font-family="Arial" >
N</text>
<text x="0" y="0" stroke="none" fill="#000000" transform="matrix(0.0833333 0 0 0.0833333 37.2068 112.292)" font-style="normal" font-weight="normal" font-size="63px" font-family="Arial" >
12</text>
<text x="0" y="0" stroke="none" fill="#000000" transform="matrix(0.0833333 0 0 0.0833333 20.6036 120.192)" font-style="normal" font-weight="normal" font-size="63px" font-family="Arial" >
11</text>
<text x="0" y="0" stroke="none" fill="#000000" transform="matrix(0.0833333 0 0 0.0833333 23.5234 135.992)" font-style="normal" font-weight="normal" font-size="63px" font-family="Arial" >
10</text>
<text x="0" y="0" stroke="none" fill="#000000" transform="matrix(0.0833333 0 0 0.0833333 37.2068 143.892)" font-style="normal" font-weight="normal" font-size="63px" font-family="Arial" >
9</text>
<path stroke="none" fill="#000000" transform="matrix(0.0833333 0 0 0.0833333 -135.75 -537.917)" d="M 2260.4,8029.8 L 2254,8029.8 L 2254,7909.4 L 2260.4,7909.4 L 2260.4,8029.8 Z " />
<path stroke="none" fill="#000000" transform="matrix(0.0833333 0 0 0.0833333 -135.75 -537.917)" d="M 2237.65,8029.8 L 2231.25,8029.8 L 2231.25,7909.4 L 2237.65,7909.4 L 2237.65,8029.8 Z " />
<path stroke="none" fill="#000000" transform="matrix(0.0833333 0 0 0.0833333 -135.75 -537.917)" d="M 2225.17,7850.61 L 2221.97,7856.15 L 2149.81,7814.5 L 2153.01,7808.95 L 2225.17,7850.61 Z " />
<path stroke="none" fill="#000000" transform="matrix(0.0833333 0 0 0.0833333 -135.75 -537.917)" d="M 2072.3,7786.25 L 2075.5,7791.8 L 1954.05,7861.91 L 1950.85,7856.37 L 2072.3,7786.25 Z " />
<path stroke="none" fill="#000000" transform="matrix(0.0833333 0 0 0.0833333 -135.75 -537.917)" d="M 2083.68,7805.96 L 2086.88,7811.5 L 1965.43,7881.62 L 1962.23,7876.08 L 2083.68,7805.96 Z " />
<path stroke="none" fill="#000000" transform="matrix(0.0833333 0 0 0.0833333 -135.75 -537.917)" d="M 1925.6,7909.4 L 1932,7909.4 L 1932,8029.8 L 1925.6,8029.8 L 1925.6,7909.4 Z " />
<path stroke="none" fill="#000000" transform="matrix(0.0833333 0 0 0.0833333 -135.75 -537.917)" d="M 1980.88,8096.16 L 1984.08,8090.62 L 2067.49,8138.77 L 2064.29,8144.32 L 1980.88,8096.16 Z " />
<path stroke="none" fill="#000000" transform="matrix(0.0833333 0 0 0.0833333 -135.75 -537.917)" d="M 1992.26,8076.46 L 1995.46,8070.92 L 2078.86,8119.07 L 2075.66,8124.61 L 1992.26,8076.46 Z " />
<path stroke="none" fill="#000000" transform="matrix(0.0833333 0 0 0.0833333 -135.75 -537.917)" d="M 2120.18,8145.2 L 2116.98,8139.66 L 2226,8076.72 L 2229.2,8082.26 L 2120.18,8145.2 Z " />
<text x="0" y="0" stroke="none" fill="#000000" transform="matrix(0.0833333 0 0 0.0833333 3.42307 112.292)" font-style="normal" font-weight="normal" font-size="63px" font-family="Arial" >
H</text>
<text x="0" y="0" stroke="none" fill="#000000" transform="matrix(0.0833333 0 0 0.0833333 7.21445 113.458)" font-style="normal" font-weight="normal" font-size="47.25px" font-family="Arial" >
3</text>
<text x="0" y="0" stroke="none" fill="#000000" transform="matrix(0.0833333 0 0 0.0833333 9.4043 112.292)" font-style="normal" font-weight="normal" font-size="63px" font-family="Arial" >
C</text>
<path stroke="none" fill="#000000" transform="matrix(0.0833333 0 0 0.0833333 -135.75 -537.917)" d="M 1880.67,7841.32 L 1877.47,7846.86 L 1794.63,7799.03 L 1797.83,7793.49 L 1880.67,7841.32 Z " />
<path stroke="none" fill="#000000" transform="matrix(0.0833333 0 0 0.0833333 -135.75 -537.917)" d="M 3406.59,8350.42 L 3406.6,8346.8 L 3409.74,8344.99 L 3570.8,8437.98 L 3570.8,8445.37 L 3406.59,8350.42 Z " />
<path stroke="none" fill="#000000" transform="matrix(0.0833333 0 0 0.0833333 -135.75 -537.917)" d="M 3427.75,8336.44 L 3430.95,8330.89 L 3572.4,8412.56 L 3569.2,8418.1 L 3427.75,8336.44 Z " />
<path stroke="none" fill="#000000" transform="matrix(0.0833333 0 0 0.0833333 -135.75 -537.917)" d="M 3570.8,8445.37 L 3570.8,8437.98 L 3731.86,8344.99 L 3738.26,8348.68 L 3570.8,8445.37 Z " />
<path stroke="none" fill="#000000" transform="matrix(0.0833333 0 0 0.0833333 -135.75 -537.917)" d="M 3738.26,8348.68 L 3731.86,8344.99 L 3731.86,8159.01 L 3735,8157.2 L 3738.14,8158.99 L 3738.26,8348.68 Z " />
<path stroke="none" fill="#000000" transform="matrix(0.0833333 0 0 0.0833333 -135.75 -537.917)" d="M 3715.45,8333.66 L 3709.05,8333.66 L 3709.05,8170.34 L 3715.45,8170.34 L 3715.45,8333.66 Z " />
<path stroke="none" fill="#000000" transform="matrix(0.0833333 0 0 0.0833333 -135.75 -537.917)" d="M 3735.02,8153.58 L 3735,8157.2 L 3731.86,8159.01 L 3570.8,8066.02 L 3570.8,8058.63 L 3735.02,8153.58 Z " />
<path stroke="none" fill="#000000" transform="matrix(0.0833333 0 0 0.0833333 -135.75 -537.917)" d="M 3570.8,8058.63 L 3570.8,8066.02 L 3409.74,8159.01 L 3403.34,8155.32 L 3570.8,8058.63 Z " />
<path stroke="none" fill="#000000" transform="matrix(0.0833333 0 0 0.0833333 -135.75 -537.917)" d="M 3569.2,8085.9 L 3572.4,8091.44 L 3430.95,8173.11 L 3427.75,8167.56 L 3569.2,8085.9 Z " />
<path stroke="none" fill="#000000" transform="matrix(0.0833333 0 0 0.0833333 -135.75 -537.917)" d="M 3403.34,8155.32 L 3409.74,8159.01 L 3409.74,8344.99 L 3406.6,8346.8 L 3403.46,8345 L 3403.34,8155.32 Z " />
<text x="0" y="0" stroke="none" fill="#000000" transform="matrix(0.0833333 0 0 0.0833333 187.288 135.992)" font-style="normal" font-weight="normal" font-size="63px" font-family="Arial" >
N</text>
<path stroke="none" fill="#000000" transform="matrix(0.0833333 0 0 0.0833333 -135.75 -537.917)" d="M 3738.14,8158.99 L 3735,8157.2 L 3735.02,8153.58 L 3862.23,8080.05 L 3865.43,8085.59 L 3738.14,8158.99 Z " />
<path stroke="none" fill="#000000" transform="matrix(0.0833333 0 0 0.0833333 -135.75 -537.917)" d="M 3931.84,8084.94 L 3935.04,8079.4 L 4063.38,8153.58 L 4063.38,8160.98 L 3931.84,8084.94 Z " />
<path stroke="none" fill="#000000" transform="matrix(0.0833333 0 0 0.0833333 -135.75 -537.917)" d="M 3943.22,8065.24 L 3946.42,8059.69 L 4065,8128.16 L 4061.8,8133.7 L 3943.22,8065.24 Z " />
<path stroke="none" fill="#000000" transform="matrix(0.0833333 0 0 0.0833333 -135.75 -537.917)" d="M 4063.38,8160.98 L 4063.38,8153.58 L 4224.48,8060.58 L 4227.6,8062.4 L 4227.6,8066.02 L 4063.38,8160.98 Z " />
<text x="0" y="0" stroke="none" fill="#000000" transform="matrix(0.0833333 0 0 0.0833333 214.654 120.192)" font-style="normal" font-weight="normal" font-size="63px" font-family="Arial" >
N</text>
<path stroke="none" fill="#000000" transform="matrix(0.0833333 0 0 0.0833333 -135.75 -537.917)" d="M 4227.6,8066.02 L 4227.6,8062.4 L 4230.72,8060.58 L 4391.8,8153.58 L 4391.8,8160.97 L 4227.6,8066.02 Z " />
<path stroke="none" fill="#000000" transform="matrix(0.0833333 0 0 0.0833333 -135.75 -537.917)" d="M 4248.75,8052.04 L 4251.95,8046.49 L 4393.4,8128.16 L 4390.2,8133.7 L 4248.75,8052.04 Z " />
<path stroke="none" fill="#000000" transform="matrix(0.0833333 0 0 0.0833333 -135.75 -537.917)" d="M 4391.8,8160.97 L 4391.8,8153.58 L 4552.86,8060.59 L 4559.26,8064.28 L 4391.8,8160.97 Z " />
<path stroke="none" fill="#000000" transform="matrix(0.0833333 0 0 0.0833333 -135.75 -537.917)" d="M 4559.26,8064.28 L 4552.86,8060.59 L 4552.86,7874.61 L 4556,7872.8 L 4559.14,7874.6 L 4559.26,8064.28 Z " />
<path stroke="none" fill="#000000" transform="matrix(0.0833333 0 0 0.0833333 -135.75 -537.917)" d="M 4536.45,8049.26 L 4530.05,8049.26 L 4530.05,7885.94 L 4536.45,7885.94 L 4536.45,8049.26 Z " />
<path stroke="none" fill="#000000" transform="matrix(0.0833333 0 0 0.0833333 -135.75 -537.917)" d="M 4556.01,7869.18 L 4556,7872.8 L 4552.86,7874.61 L 4391.78,7781.62 L 4391.79,7774.22 L 4556.01,7869.18 Z " />
<path stroke="none" fill="#000000" transform="matrix(0.0833333 0 0 0.0833333 -135.75 -537.917)" d="M 4391.79,7774.22 L 4391.78,7781.62 L 4261.71,7856.8 L 4258.51,7851.26 L 4391.79,7774.22 Z " />
<path stroke="none" fill="#000000" transform="matrix(0.0833333 0 0 0.0833333 -135.75 -537.917)" d="M 4390.2,7801.5 L 4393.4,7807.04 L 4273.09,7876.51 L 4269.89,7870.96 L 4390.2,7801.5 Z " />
<path stroke="none" fill="#000000" transform="matrix(0.0833333 0 0 0.0833333 -135.75 -537.917)" d="M 4224.4,7909.4 L 4230.8,7909.4 L 4230.72,8060.58 L 4227.6,8062.4 L 4224.48,8060.58 L 4224.4,7909.4 Z " />
<text x="0" y="0" stroke="none" fill="#000000" transform="matrix(0.0833333 0 0 0.0833333 255.704 112.292)" font-style="normal" font-weight="normal" font-size="63px" font-family="Arial" >
CH</text>
<text x="0" y="0" stroke="none" fill="#000000" transform="matrix(0.0833333 0 0 0.0833333 263.287 113.458)" font-style="normal" font-weight="normal" font-size="47.25px" font-family="Arial" >
3</text>
<path stroke="none" fill="#000000" transform="matrix(0.0833333 0 0 0.0833333 -135.75 -537.917)" d="M 4559.14,7874.6 L 4556,7872.8 L 4556.01,7869.18 L 4687.84,7792.99 L 4691.04,7798.53 L 4559.14,7874.6 Z " />
<text x="0" y="0" stroke="none" fill="#000000" transform="matrix(0.0833333 0 0 0.0833333 56.7068 117.792)" font-style="normal" font-weight="normal" font-size="63px" font-family="Arial" >
13</text>
<text x="0" y="0" stroke="none" fill="#000000" transform="matrix(0.0833333 0 0 0.0833333 8.45676 105.792)" font-style="normal" font-weight="normal" font-size="63px" font-family="Arial" >
14</text>
<text x="0" y="0" stroke="none" fill="#000000" transform="matrix(0.0833333 0 0 0.0833333 78.4568 129.792)" font-style="normal" font-weight="normal" font-size="63px" font-family="Arial" >
6</text>
</svg>
