<?xml version="1.0" standalone="no" ?>
<!DOCTYPE svg PUBLIC "-//W3C//DTD SVG 1.1//EN" "http://www.w3.org/Graphics/SVG/1.1/DTD/svg11.dtd">
<svg width="251px" height="177px" viewBox="0 0 251 177" style="background-color: #ffffff00" xmlns="http://www.w3.org/2000/svg" xmlns:xlink="http://www.w3.org/1999/xlink" version="1.1" >
<path stroke="none" fill="#000000" transform="matrix(0.0833333 0 0 0.0833333 -346.175 -695)" d="M 4199.4,9138.11 L 4219.41,9149.66 L 4219.41,9738.34 L 4199.4,9749.89 L 4199.4,9138.11 Z " />
<path stroke="none" fill="#000000" transform="matrix(0.0833333 0 0 0.0833333 -346.175 -695)" d="M 4271.6,9185.57 L 4291.6,9185.57 L 4291.6,9702.43 L 4271.6,9702.43 L 4271.6,9185.57 Z " />
<path stroke="none" fill="#000000" transform="matrix(0.0833333 0 0 0.0833333 -346.175 -695)" d="M 4199.4,9749.89 L 4219.41,9738.34 L 4729.2,10032.7 L 4729.2,10055.8 L 4199.4,9749.89 Z " />
<path stroke="none" fill="#000000" transform="matrix(0.0833333 0 0 0.0833333 -346.175 -695)" d="M 4729.2,10055.8 L 4729.2,10032.7 L 5238.99,9738.34 L 5248.8,9744 L 5249.97,9754.7 L 4729.2,10055.8 Z " />
<path stroke="none" fill="#000000" transform="matrix(0.0833333 0 0 0.0833333 -346.175 -695)" d="M 4734.2,9969.52 L 4724.2,9952.2 L 5171.8,9693.77 L 5181.8,9711.09 L 4734.2,9969.52 Z " />
<path stroke="none" fill="#000000" transform="matrix(0.0833333 0 0 0.0833333 -346.175 -695)" d="M 5258.57,9736.97 L 5248.8,9744 L 5238.99,9738.34 L 5238.99,9149.66 L 5248.8,9144 L 5258.57,9151.03 L 5258.57,9736.97 Z " />
<path stroke="none" fill="#000000" transform="matrix(0.0833333 0 0 0.0833333 -346.175 -695)" d="M 5249.97,9133.3 L 5248.8,9144 L 5238.99,9149.66 L 4729.2,8855.33 L 4729.2,8832.23 L 5249.97,9133.3 Z " />
<path stroke="none" fill="#000000" transform="matrix(0.0833333 0 0 0.0833333 -346.175 -695)" d="M 5181.8,9176.91 L 5171.8,9194.23 L 4724.2,8935.8 L 4734.2,8918.48 L 5181.8,9176.91 Z " />
<path stroke="none" fill="#000000" transform="matrix(0.0833333 0 0 0.0833333 -346.175 -695)" d="M 4729.2,8832.23 L 4729.2,8855.33 L 4219.41,9149.66 L 4199.4,9138.11 L 4729.2,8832.23 Z " />
<text x="0" y="0" stroke="none" fill="#000000" transform="matrix(0.0833333 0 0 0.0833333 132.757 138.95)" font-style="normal" font-weight="normal" font-size="200px" font-family="Arial" >
N</text>
<text x="0" y="0" stroke="none" fill="#000000" transform="matrix(0.0833333 0 0 0.0833333 132.757 58.05)" font-style="normal" font-weight="normal" font-size="200px" font-family="Arial" >
N</text>
<path stroke="none" fill="#000000" transform="matrix(0.0833333 0 0 0.0833333 -346.175 -695)" d="M 5249.97,9754.7 L 5248.8,9744 L 5258.57,9736.97 L 5715.18,9885.02 L 5709,9904.04 L 5249.97,9754.7 Z " />
<path stroke="none" fill="#000000" transform="matrix(0.0833333 0 0 0.0833333 -346.175 -695)" d="M 5900.09,9835.39 L 5883.91,9823.63 L 6160.21,9443.99 L 6172.2,9444 L 6177.15,9453.83 L 5900.09,9835.39 Z " />
<path stroke="none" fill="#000000" transform="matrix(0.0833333 0 0 0.0833333 -346.175 -695)" d="M 5841.84,9793.05 L 5825.67,9781.29 L 6075.09,9438.12 L 6091.27,9449.88 L 5841.84,9793.05 Z " />
<path stroke="none" fill="#000000" transform="matrix(0.0833333 0 0 0.0833333 -346.175 -695)" d="M 6177.15,9434.16 L 6172.2,9444 L 6160.21,9443.99 L 5890.89,9073.97 L 5907.07,9062.21 L 6177.15,9434.16 Z " />
<path stroke="none" fill="#000000" transform="matrix(0.0833333 0 0 0.0833333 -346.175 -695)" d="M 5706.75,8984.69 L 5712.93,9003.71 L 5258.57,9151.03 L 5248.8,9144 L 5249.97,9133.3 L 5706.75,8984.69 Z " />
<path stroke="none" fill="#000000" transform="matrix(0.0833333 0 0 0.0833333 -346.175 -695)" d="M 6177.15,9453.83 L 6172.2,9444 L 6177.15,9434.16 L 6778.13,9433.8 L 6766.58,9453.81 L 6177.15,9453.83 Z " />
<text x="0" y="0" stroke="none" fill="#000000" transform="matrix(0.0833333 0 0 0.0833333 234.095 143.3)" font-style="normal" font-weight="normal" font-size="200px" font-family="Arial" >
O</text>
<path stroke="none" fill="#000000" transform="matrix(0.0833333 0 0 0.0833333 -346.175 -695)" d="M 6766.58,9453.81 L 6778.13,9433.8 L 7027.66,9866.46 L 7010.34,9876.46 L 6766.58,9453.81 Z " />
<path stroke="none" fill="#000000" transform="matrix(0.0833333 0 0 0.0833333 -346.175 -695)" d="M 6721.97,9521 L 6739.29,9511 L 6965.31,9902.46 L 6947.99,9912.46 L 6721.97,9521 Z " />
<path stroke="none" fill="#000000" transform="matrix(0.0833333 0 0 0.0833333 -346.175 -695)" d="M 5865.02,8850.57 L 5845.99,8844.39 L 5995.29,8384.91 L 6014.31,8391.09 L 5865.02,8850.57 Z " />
<text x="0" y="0" stroke="none" fill="#000000" transform="matrix(0.0833333 0 0 0.0833333 176.925 164)" font-style="normal" font-weight="bold" font-size="440px" font-family="Arial" >
5</text>
</svg>
