<?xml version="1.0" standalone="no" ?>
<!DOCTYPE svg PUBLIC "-//W3C//DTD SVG 1.1//EN" "http://www.w3.org/Graphics/SVG/1.1/DTD/svg11.dtd">
<svg width="312px" height="200px" viewBox="0 0 312 200" style="background-color: #ffffff00" xmlns="http://www.w3.org/2000/svg" xmlns:xlink="http://www.w3.org/1999/xlink" version="1.1" >
<path stroke="none" fill="#000000" transform="matrix(0.0833333 0 0 0.0833333 -230.175 -611)" d="M 2807.4,8658.11 L 2827.41,8669.66 L 2827.41,9258.34 L 2807.4,9269.89 L 2807.4,8658.11 Z " />
<path stroke="none" fill="#000000" transform="matrix(0.0833333 0 0 0.0833333 -230.175 -611)" d="M 2879.6,8705.57 L 2899.6,8705.57 L 2899.6,9222.43 L 2879.6,9222.43 L 2879.6,8705.57 Z " />
<path stroke="none" fill="#000000" transform="matrix(0.0833333 0 0 0.0833333 -230.175 -611)" d="M 2807.4,9269.89 L 2827.41,9258.34 L 3337.2,9552.67 L 3337.2,9575.77 L 2807.4,9269.89 Z " />
<path stroke="none" fill="#000000" transform="matrix(0.0833333 0 0 0.0833333 -230.175 -611)" d="M 3337.2,9575.77 L 3337.2,9552.67 L 3846.99,9258.34 L 3856.8,9264 L 3856.85,9275.3 L 3337.2,9575.77 Z " />
<path stroke="none" fill="#000000" transform="matrix(0.0833333 0 0 0.0833333 -230.175 -611)" d="M 3342.2,9489.52 L 3332.2,9472.2 L 3779.8,9213.77 L 3789.8,9231.09 L 3342.2,9489.52 Z " />
<path stroke="none" fill="#000000" transform="matrix(0.0833333 0 0 0.0833333 -230.175 -611)" d="M 3866.61,9258.39 L 3856.8,9264 L 3846.99,9258.34 L 3846.99,8669.66 L 3856.8,8664 L 3866.61,8669.66 L 3866.61,9258.39 Z " />
<path stroke="none" fill="#000000" transform="matrix(0.0833333 0 0 0.0833333 -230.175 -611)" d="M 3856.8,8652.67 L 3856.8,8664 L 3846.99,8669.66 L 3337.2,8375.33 L 3337.2,8352.23 L 3856.8,8652.67 Z " />
<path stroke="none" fill="#000000" transform="matrix(0.0833333 0 0 0.0833333 -230.175 -611)" d="M 3789.8,8696.91 L 3779.8,8714.23 L 3332.2,8455.8 L 3342.2,8438.48 L 3789.8,8696.91 Z " />
<path stroke="none" fill="#000000" transform="matrix(0.0833333 0 0 0.0833333 -230.175 -611)" d="M 3337.2,8352.23 L 3337.2,8375.33 L 2827.41,8669.66 L 2807.4,8658.11 L 3337.2,8352.23 Z " />
<text x="0" y="0" stroke="none" fill="#000000" transform="matrix(0.0833333 0 0 0.0833333 128.507 192.5)" font-style="normal" font-weight="normal" font-size="200px" font-family="Arial" >
NH</text>
<text x="0" y="0" stroke="none" fill="#000000" transform="matrix(0.0833333 0 0 0.0833333 152.579 196.167)" font-style="normal" font-weight="normal" font-size="150px" font-family="Arial" >
2</text>
<path stroke="none" fill="#000000" transform="matrix(0.0833333 0 0 0.0833333 -230.175 -611)" d="M 3856.85,9275.3 L 3856.8,9264 L 3866.61,9258.39 L 4277.46,9495.33 L 4267.46,9512.65 L 3856.85,9275.3 Z " />
<path stroke="none" fill="#000000" transform="matrix(0.0833333 0 0 0.0833333 -230.175 -611)" d="M 3866.61,8669.66 L 3856.8,8664 L 3856.8,8652.67 L 4376.4,8352.23 L 4376.4,8375.33 L 3866.61,8669.66 Z " />
<path stroke="none" fill="#000000" transform="matrix(0.0833333 0 0 0.0833333 -230.175 -611)" d="M 4376.4,8375.33 L 4376.4,8352.23 L 4896,8652.67 L 4896,8675.77 L 4376.4,8375.33 Z " />
<path stroke="none" fill="#000000" transform="matrix(0.0833333 0 0 0.0833333 -230.175 -611)" d="M 4896,8675.77 L 4896,8652.67 L 5405.79,8358.34 L 5415.6,8364 L 5415.6,8375.33 L 4896,8675.77 Z " />
<path stroke="none" fill="#000000" transform="matrix(0.0833333 0 0 0.0833333 -230.175 -611)" d="M 5415.6,8375.33 L 5415.6,8364 L 5425.41,8358.34 L 5935.2,8652.67 L 5935.2,8675.77 L 5415.6,8375.33 Z " />
<path stroke="none" fill="#000000" transform="matrix(0.0833333 0 0 0.0833333 -230.175 -611)" d="M 5482.6,8331.09 L 5492.6,8313.77 L 5940.2,8572.2 L 5930.2,8589.52 L 5482.6,8331.09 Z " />
<path stroke="none" fill="#000000" transform="matrix(0.0833333 0 0 0.0833333 -230.175 -611)" d="M 5935.2,8675.77 L 5935.2,8652.67 L 6444.99,8358.34 L 6465,8369.89 L 5935.2,8675.77 Z " />
<path stroke="none" fill="#000000" transform="matrix(0.0833333 0 0 0.0833333 -230.175 -611)" d="M 6465,8369.89 L 6444.99,8358.34 L 6444.99,7769.66 L 6465,7758.11 L 6465,8369.89 Z " />
<path stroke="none" fill="#000000" transform="matrix(0.0833333 0 0 0.0833333 -230.175 -611)" d="M 6392.8,8322.43 L 6372.8,8322.43 L 6372.8,7805.57 L 6392.8,7805.57 L 6392.8,8322.43 Z " />
<path stroke="none" fill="#000000" transform="matrix(0.0833333 0 0 0.0833333 -230.175 -611)" d="M 6465,7758.11 L 6444.99,7769.66 L 5935.2,7475.33 L 5935.2,7452.23 L 6465,7758.11 Z " />
<path stroke="none" fill="#000000" transform="matrix(0.0833333 0 0 0.0833333 -230.175 -611)" d="M 5935.2,7452.23 L 5935.2,7475.33 L 5425.41,7769.66 L 5415.6,7764 L 5415.55,7752.7 L 5935.2,7452.23 Z " />
<path stroke="none" fill="#000000" transform="matrix(0.0833333 0 0 0.0833333 -230.175 -611)" d="M 5930.2,7538.48 L 5940.2,7555.8 L 5492.6,7814.23 L 5482.6,7796.91 L 5930.2,7538.48 Z " />
<path stroke="none" fill="#000000" transform="matrix(0.0833333 0 0 0.0833333 -230.175 -611)" d="M 5405.79,7769.6 L 5415.6,7764 L 5425.41,7769.66 L 5425.41,8358.34 L 5415.6,8364 L 5405.79,8358.34 L 5405.79,7769.6 Z " />
<text x="0" y="0" stroke="none" fill="#000000" transform="matrix(0.0833333 0 0 0.0833333 152.819 17.5)" font-style="normal" font-weight="normal" font-size="200px" font-family="Arial" >
H</text>
<text x="0" y="0" stroke="none" fill="#000000" transform="matrix(0.0833333 0 0 0.0833333 164.855 21.1667)" font-style="normal" font-weight="normal" font-size="150px" font-family="Arial" >
2</text>
<text x="0" y="0" stroke="none" fill="#000000" transform="matrix(0.0833333 0 0 0.0833333 171.807 17.5)" font-style="normal" font-weight="normal" font-size="200px" font-family="Arial" >
N</text>
<path stroke="none" fill="#000000" transform="matrix(0.0833333 0 0 0.0833333 -230.175 -611)" d="M 5415.55,7752.7 L 5415.6,7764 L 5405.79,7769.6 L 5001.19,7536.28 L 5011.19,7518.96 L 5415.55,7752.7 Z " />
<text x="0" y="0" stroke="none" fill="#000000" transform="matrix(0.0833333 0 0 0.0833333 116.925 151)" font-style="normal" font-weight="bold" font-size="440px" font-family="Arial" >
20</text>
</svg>
