<?xml version="1.0" standalone="no" ?>
<!DOCTYPE svg PUBLIC "-//W3C//DTD SVG 1.1//EN" "http://www.w3.org/Graphics/SVG/1.1/DTD/svg11.dtd">
<svg width="225px" height="106px" viewBox="0 0 225 106" style="background-color: #ffffff00" xmlns="http://www.w3.org/2000/svg" xmlns:xlink="http://www.w3.org/1999/xlink" version="1.1" >
<text x="0" y="0" stroke="none" fill="#000000" transform="matrix(0.0833333 0 0 0.0833333 86.2736 17.25)" font-style="normal" font-weight="normal" font-size="200px" font-family="Arial" >
N</text>
<text x="0" y="0" stroke="none" fill="#000000" transform="matrix(0.0833333 0 0 0.0833333 61.2001 94.0166)" font-style="normal" font-weight="normal" font-size="200px" font-family="Arial" >
S</text>
<path stroke="none" fill="#000000" transform="matrix(0.0833333 0 0 0.0833333 -113.175 -632.333)" d="M 1988.99,8070.17 L 1977.6,8066.4 L 1976.01,8055.51 L 2353.49,7784.97 L 2365.13,7801.23 L 1988.99,8070.17 Z " />
<path stroke="none" fill="#000000" transform="matrix(0.0833333 0 0 0.0833333 -113.175 -632.333)" d="M 2067.91,8102.62 L 2056.27,8086.36 L 2395.41,7843.53 L 2407.06,7859.79 L 2067.91,8102.62 Z " />
<path stroke="none" fill="#000000" transform="matrix(0.0833333 0 0 0.0833333 -113.175 -632.333)" d="M 2564.93,7802.67 L 2576.8,7786.57 L 2950.14,8062.13 L 2948.4,8073 L 2936.92,8076.58 L 2564.93,7802.67 Z " />
<path stroke="none" fill="#000000" transform="matrix(0.0833333 0 0 0.0833333 -113.175 -632.333)" d="M 2936.92,8076.58 L 2948.4,8073 L 2956.15,8080.86 L 2766.56,8652.75 L 2752.16,8632.63 L 2936.92,8076.58 Z " />
<path stroke="none" fill="#000000" transform="matrix(0.0833333 0 0 0.0833333 -113.175 -632.333)" d="M 2854.09,8096.76 L 2873.07,8103.07 L 2716.86,8573.19 L 2697.88,8566.88 L 2854.09,8096.76 Z " />
<path stroke="none" fill="#000000" transform="matrix(0.0833333 0 0 0.0833333 -113.175 -632.333)" d="M 2752.16,8632.63 L 2766.56,8652.75 L 2254.43,8648.87 L 2254.57,8628.87 L 2752.16,8632.63 Z " />
<path stroke="none" fill="#000000" transform="matrix(0.0833333 0 0 0.0833333 -113.175 -632.333)" d="M 2136.52,8533.74 L 2117.46,8539.8 L 1969.79,8074.17 L 1977.6,8066.4 L 1988.99,8070.17 L 2136.52,8533.74 Z " />
<path stroke="none" fill="#000000" transform="matrix(0.0833333 0 0 0.0833333 -113.175 -632.333)" d="M 2956.15,8080.86 L 2948.4,8073 L 2950.14,8062.13 L 3522.97,7880.09 L 3518.01,7902.65 L 2956.15,8080.86 Z " />
<text x="0" y="0" stroke="none" fill="#000000" transform="matrix(0.0833333 0 0 0.0833333 208.603 67.7317)" font-style="normal" font-weight="normal" font-size="200px" font-family="Arial" >
O</text>
<path stroke="none" fill="#000000" transform="matrix(0.0833333 0 0 0.0833333 -113.175 -632.333)" d="M 3518.01,7902.65 L 3522.97,7880.09 L 3891.43,8216.92 L 3877.94,8231.69 L 3518.01,7902.65 Z " />
<path stroke="none" fill="#000000" transform="matrix(0.0833333 0 0 0.0833333 -113.175 -632.333)" d="M 3495.8,7980.18 L 3509.28,7965.41 L 3842.87,8270.08 L 3829.39,8284.85 L 3495.8,7980.18 Z " />
<path stroke="none" fill="#000000" transform="matrix(0.0833333 0 0 0.0833333 -113.175 -632.333)" d="M 1976.01,8055.51 L 1977.6,8066.4 L 1969.79,8074.17 L 1405.24,7886.49 L 1411.56,7867.51 L 1976.01,8055.51 Z " />
<text x="0" y="0" stroke="none" fill="#000000" transform="matrix(0.0833333 0 0 0.0833333 157.925 93.6667)" font-style="normal" font-weight="bold" font-size="440px" font-family="Arial" >
1</text>
</svg>
