<?xml version="1.0" standalone="no" ?>
<!DOCTYPE svg PUBLIC "-//W3C//DTD SVG 1.1//EN" "http://www.w3.org/Graphics/SVG/1.1/DTD/svg11.dtd">
<svg width="165px" height="167px" viewBox="0 0 165 167" style="background-color: #ffffff00" xmlns="http://www.w3.org/2000/svg" xmlns:xlink="http://www.w3.org/1999/xlink" version="1.1" >
<text x="0" y="0" stroke="none" fill="#000000" transform="matrix(0.0833333 0 0 0.0833333 78.0403 50.8167)" font-style="normal" font-weight="normal" font-size="200px" font-family="Arial" >
N</text>
<text x="0" y="0" stroke="none" fill="#000000" transform="matrix(0.0833333 0 0 0.0833333 53.4667 127.75)" font-style="normal" font-weight="normal" font-size="200px" font-family="Arial" >
S</text>
<path stroke="none" fill="#000000" transform="matrix(0.0833333 0 0 0.0833333 -426.175 -632)" d="M 6315.75,8678.78 L 6308,8686.6 L 6296.59,8682.87 L 6153.65,8243.28 L 6172.67,8237.1 L 6315.75,8678.78 Z " />
<path stroke="none" fill="#000000" transform="matrix(0.0833333 0 0 0.0833333 -426.175 -632)" d="M 6232.87,8655.97 L 6213.84,8662.14 L 6085.15,8265.5 L 6104.18,8259.33 L 6232.87,8655.97 Z " />
<path stroke="none" fill="#000000" transform="matrix(0.0833333 0 0 0.0833333 -426.175 -632)" d="M 6026.59,8105.77 L 6026.58,8125.77 L 5529.91,8125.32 L 5522.8,8115.6 L 5527.84,8105.8 L 6026.59,8105.77 Z " />
<path stroke="none" fill="#000000" transform="matrix(0.0833333 0 0 0.0833333 -426.175 -632)" d="M 5511.9,8117.32 L 5522.8,8115.6 L 5529.91,8125.32 L 5348.66,8682.33 L 5325.13,8689.96 L 5511.9,8117.32 Z " />
<path stroke="none" fill="#000000" transform="matrix(0.0833333 0 0 0.0833333 -426.175 -632)" d="M 5565.56,8184.5 L 5584.58,8190.69 L 5431.33,8661.65 L 5412.32,8655.46 L 5565.56,8184.5 Z " />
<path stroke="none" fill="#000000" transform="matrix(0.0833333 0 0 0.0833333 -426.175 -632)" d="M 5325.13,8689.96 L 5348.66,8682.33 L 5743.91,8969.53 L 5732.15,8985.71 L 5325.13,8689.96 Z " />
<path stroke="none" fill="#000000" transform="matrix(0.0833333 0 0 0.0833333 -426.175 -632)" d="M 5911.43,8986.75 L 5899.68,8970.56 L 6296.59,8682.87 L 6308,8686.6 L 6309.68,8697.49 L 5911.43,8986.75 Z " />
<path stroke="none" fill="#000000" transform="matrix(0.0833333 0 0 0.0833333 -426.175 -632)" d="M 5527.84,8105.8 L 5522.8,8115.6 L 5511.9,8117.32 L 5162.31,7635.87 L 5178.49,7624.13 L 5527.84,8105.8 Z " />
<path stroke="none" fill="#000000" transform="matrix(0.0833333 0 0 0.0833333 -426.175 -632)" d="M 6309.68,8697.49 L 6308,8686.6 L 6315.75,8678.78 L 6887.4,8864.34 L 6870.22,8879.79 L 6309.68,8697.49 Z " />
<text x="0" y="0" stroke="none" fill="#000000" transform="matrix(0.0833333 0 0 0.0833333 147.991 163.389)" font-style="normal" font-weight="normal" font-size="200px" font-family="Arial" >
O</text>
<path stroke="none" fill="#000000" transform="matrix(0.0833333 0 0 0.0833333 -426.175 -632)" d="M 6870.22,8879.79 L 6887.4,8864.34 L 6990.87,9353.73 L 6971.31,9357.88 L 6870.22,8879.79 Z " />
<path stroke="none" fill="#000000" transform="matrix(0.0833333 0 0 0.0833333 -426.175 -632)" d="M 6807,8929.88 L 6826.56,8925.74 L 6920.43,9368.66 L 6900.87,9372.81 L 6807,8929.88 Z " />
<text x="0" y="0" stroke="none" fill="#000000" transform="matrix(0.0833333 0 0 0.0833333 118.925 70)" font-style="normal" font-weight="bold" font-size="440px" font-family="Arial" >
10</text>
</svg>
