<?xml version="1.0" standalone="no" ?>
<!DOCTYPE svg PUBLIC "-//W3C//DTD SVG 1.1//EN" "http://www.w3.org/Graphics/SVG/1.1/DTD/svg11.dtd">
<svg width="315px" height="143px" viewBox="0 0 315 143" style="background-color: #ffffff00" xmlns="http://www.w3.org/2000/svg" xmlns:xlink="http://www.w3.org/1999/xlink" version="1.1" >
<path stroke="none" fill="#000000" transform="matrix(0.0833333 0 0 0.0833333 -336.175 -434)" d="M 4388.71,6875.6 L 4400.26,6855.59 L 4988.94,6855.59 L 5000.49,6875.6 L 4388.71,6875.6 Z " />
<path stroke="none" fill="#000000" transform="matrix(0.0833333 0 0 0.0833333 -336.175 -434)" d="M 4436.17,6803.4 L 4436.17,6783.4 L 4953.03,6783.4 L 4953.03,6803.4 L 4436.17,6803.4 Z " />
<path stroke="none" fill="#000000" transform="matrix(0.0833333 0 0 0.0833333 -336.175 -434)" d="M 5000.49,6875.6 L 4988.94,6855.59 L 5283.27,6345.8 L 5294.6,6345.8 L 5300.26,6355.61 L 5000.49,6875.6 Z " />
<path stroke="none" fill="#000000" transform="matrix(0.0833333 0 0 0.0833333 -336.175 -434)" d="M 5300.26,6335.99 L 5294.6,6345.8 L 5283.27,6345.8 L 4988.94,5836.01 L 5000.49,5816 L 5300.26,6335.99 Z " />
<path stroke="none" fill="#000000" transform="matrix(0.0833333 0 0 0.0833333 -336.175 -434)" d="M 5220.12,6340.8 L 5202.8,6350.8 L 4944.37,5903.2 L 4961.69,5893.2 L 5220.12,6340.8 Z " />
<path stroke="none" fill="#000000" transform="matrix(0.0833333 0 0 0.0833333 -336.175 -434)" d="M 5000.49,5816 L 4988.94,5836.01 L 4400.26,5836.01 L 4388.71,5816 L 5000.49,5816 Z " />
<path stroke="none" fill="#000000" transform="matrix(0.0833333 0 0 0.0833333 -336.175 -434)" d="M 4388.71,5816 L 4400.26,5836.01 L 4105.93,6345.8 L 4082.83,6345.8 L 4388.71,5816 Z " />
<path stroke="none" fill="#000000" transform="matrix(0.0833333 0 0 0.0833333 -336.175 -434)" d="M 4427.51,5893.2 L 4444.83,5903.2 L 4186.4,6350.8 L 4169.08,6340.8 L 4427.51,5893.2 Z " />
<path stroke="none" fill="#000000" transform="matrix(0.0833333 0 0 0.0833333 -336.175 -434)" d="M 4082.83,6345.8 L 4105.93,6345.8 L 4400.26,6855.59 L 4388.71,6875.6 L 4082.83,6345.8 Z " />
<path stroke="none" fill="#000000" transform="matrix(0.0833333 0 0 0.0833333 -336.175 -434)" d="M 5300.26,6355.61 L 5294.6,6345.8 L 5300.26,6335.99 L 5889,6335.99 L 5894.6,6345.8 L 5888.94,6355.61 L 5300.26,6355.61 Z " />
<text x="0" y="0" stroke="none" fill="#000000" transform="matrix(0.0833333 0 0 0.0833333 174.024 58.0167)" font-style="normal" font-weight="normal" font-size="200px" font-family="Arial" >
N</text>
<path stroke="none" fill="#000000" transform="matrix(0.0833333 0 0 0.0833333 -336.175 -434)" d="M 5888.94,6355.61 L 5894.6,6345.8 L 5905.9,6345.74 L 6200.26,6855.59 L 6188.71,6875.6 L 5888.94,6355.61 Z " />
<path stroke="none" fill="#000000" transform="matrix(0.0833333 0 0 0.0833333 -336.175 -434)" d="M 5969.08,6350.8 L 5986.4,6340.8 L 6244.83,6788.4 L 6227.51,6798.4 L 5969.08,6350.8 Z " />
<path stroke="none" fill="#000000" transform="matrix(0.0833333 0 0 0.0833333 -336.175 -434)" d="M 6188.71,6875.6 L 6200.26,6855.59 L 6788.94,6855.59 L 6800.49,6875.6 L 6188.71,6875.6 Z " />
<path stroke="none" fill="#000000" transform="matrix(0.0833333 0 0 0.0833333 -336.175 -434)" d="M 6800.49,6875.6 L 6788.94,6855.59 L 7083.27,6345.8 L 7106.37,6345.8 L 6800.49,6875.6 Z " />
<path stroke="none" fill="#000000" transform="matrix(0.0833333 0 0 0.0833333 -336.175 -434)" d="M 6761.69,6798.4 L 6744.37,6788.4 L 7002.8,6340.8 L 7020.12,6350.8 L 6761.69,6798.4 Z " />
<path stroke="none" fill="#000000" transform="matrix(0.0833333 0 0 0.0833333 -336.175 -434)" d="M 7106.37,6345.8 L 7083.27,6345.8 L 6788.91,5835.97 L 6794.6,5826.2 L 6805.93,5826.2 L 7106.37,6345.8 Z " />
<path stroke="none" fill="#000000" transform="matrix(0.0833333 0 0 0.0833333 -336.175 -434)" d="M 6788.91,5816.43 L 6794.6,5826.2 L 6788.91,5835.97 L 6290.38,5836.2 L 6290.38,5816.2 L 6788.91,5816.43 Z " />
<path stroke="none" fill="#000000" transform="matrix(0.0833333 0 0 0.0833333 -336.175 -434)" d="M 6753.03,5888.2 L 6753.03,5908.2 L 6290.38,5908.2 L 6290.38,5888.2 L 6753.03,5888.2 Z " />
<path stroke="none" fill="#000000" transform="matrix(0.0833333 0 0 0.0833333 -336.175 -434)" d="M 6118.4,5938.18 L 6135.72,5948.18 L 5905.9,6345.74 L 5894.6,6345.8 L 5889,6335.99 L 6118.4,5938.18 Z " />
<path stroke="none" fill="#000000" transform="matrix(0.0833333 0 0 0.0833333 -336.175 -434)" d="M 6805.93,5826.2 L 6794.6,5826.2 L 6788.91,5816.43 L 7088.74,5296.36 L 7100.29,5316.37 L 6805.93,5826.2 Z " />
<text x="0" y="0" stroke="none" fill="#000000" transform="matrix(0.0833333 0 0 0.0833333 298.56 17.7166)" font-style="normal" font-weight="normal" font-size="200px" font-family="Arial" >
O</text>
<path stroke="none" fill="#000000" transform="matrix(0.0833333 0 0 0.0833333 -336.175 -434)" d="M 7100.29,5316.37 L 7088.74,5296.36 L 7586.82,5296.6 L 7586.82,5316.6 L 7100.29,5316.37 Z " />
<path stroke="none" fill="#000000" transform="matrix(0.0833333 0 0 0.0833333 -336.175 -434)" d="M 7136.17,5388.6 L 7136.17,5368.6 L 7586.82,5368.6 L 7586.82,5388.6 L 7136.17,5388.6 Z " />
<text x="0" y="0" stroke="none" fill="#000000" transform="matrix(0.0833333 0 0 0.0833333 267.925 66)" font-style="normal" font-weight="bold" font-size="440px" font-family="Arial" >
2</text>
</svg>
