<?xml version="1.0" standalone="no" ?>
<!DOCTYPE svg PUBLIC "-//W3C//DTD SVG 1.1//EN" "http://www.w3.org/Graphics/SVG/1.1/DTD/svg11.dtd">
<svg width="307px" height="199px" viewBox="0 0 307 199" style="background-color: #ffffff00" xmlns="http://www.w3.org/2000/svg" xmlns:xlink="http://www.w3.org/1999/xlink" version="1.1" >
<text x="0" y="0" stroke="none" fill="#000000" transform="matrix(0.0833333 0 0 0.0833333 97.523 61.4471)" font-style="normal" font-weight="normal" font-size="200px" font-family="Arial" >
N</text>
<path stroke="none" fill="#000000" transform="matrix(0.0833333 0 0 0.0833333 -207.175 -589.5)" d="M 3122.71,7723.83 L 3134.29,7743.82 L 2840.52,8254 L 2817.42,8254.03 L 3122.71,7723.83 Z " />
<path stroke="none" fill="#000000" transform="matrix(0.0833333 0 0 0.0833333 -207.175 -589.5)" d="M 3161.58,7801.02 L 3178.91,7811 L 2920.99,8258.91 L 2903.66,8248.93 L 3161.58,7801.02 Z " />
<path stroke="none" fill="#000000" transform="matrix(0.0833333 0 0 0.0833333 -207.175 -589.5)" d="M 2817.42,8254.03 L 2840.52,8254 L 3135.44,8763.47 L 3129.79,8773.28 L 3118.49,8773.35 L 2817.42,8254.03 Z " />
<path stroke="none" fill="#000000" transform="matrix(0.0833333 0 0 0.0833333 -207.175 -589.5)" d="M 3135.4,8783.09 L 3129.79,8773.28 L 3135.44,8763.47 L 3724.11,8762.79 L 3735.69,8782.78 L 3135.4,8783.09 Z " />
<path stroke="none" fill="#000000" transform="matrix(0.0833333 0 0 0.0833333 -207.175 -589.5)" d="M 3171.29,8711.24 L 3171.26,8691.24 L 3688.12,8690.64 L 3688.15,8710.64 L 3171.29,8711.24 Z " />
<path stroke="none" fill="#000000" transform="matrix(0.0833333 0 0 0.0833333 -207.175 -589.5)" d="M 3735.69,8782.78 L 3724.11,8762.79 L 4017.89,8252.59 L 4029.19,8252.63 L 4034.87,8262.44 L 3735.69,8782.78 Z " />
<path stroke="none" fill="#000000" transform="matrix(0.0833333 0 0 0.0833333 -207.175 -589.5)" d="M 4034.78,8242.82 L 4029.19,8252.63 L 4017.89,8252.59 L 3787.51,7855.1 L 3804.82,7845.08 L 4034.78,8242.82 Z " />
<path stroke="none" fill="#000000" transform="matrix(0.0833333 0 0 0.0833333 -207.175 -589.5)" d="M 3954.71,8247.72 L 3937.4,8257.74 L 3725.2,7891.17 L 3742.51,7881.15 L 3954.71,8247.72 Z " />
<path stroke="none" fill="#000000" transform="matrix(0.0833333 0 0 0.0833333 -207.175 -589.5)" d="M 3632.36,7723.48 L 3632.39,7743.48 L 3134.29,7743.82 L 3122.71,7723.83 L 3632.36,7723.48 Z " />
<path stroke="none" fill="#000000" transform="matrix(0.0833333 0 0 0.0833333 -207.175 -589.5)" d="M 4034.87,8262.44 L 4029.19,8252.63 L 4034.78,8242.82 L 4623.51,8242.14 L 4629.19,8251.95 L 4623.59,8261.76 L 4034.87,8262.44 Z " />
<text x="0" y="0" stroke="none" fill="#000000" transform="matrix(0.0833333 0 0 0.0833333 197.622 147.935)" font-style="normal" font-weight="normal" font-size="200px" font-family="Arial" >
N</text>
<path stroke="none" fill="#000000" transform="matrix(0.0833333 0 0 0.0833333 -207.175 -589.5)" d="M 4623.59,8261.76 L 4629.19,8251.95 L 4640.49,8251.98 L 4877.12,8660.28 L 4859.81,8670.29 L 4623.59,8261.76 Z " />
<path stroke="none" fill="#000000" transform="matrix(0.0833333 0 0 0.0833333 -207.175 -589.5)" d="M 4703.67,8256.86 L 4720.98,8246.84 L 4939.43,8624.2 L 4922.12,8634.22 L 4703.67,8256.86 Z " />
<path stroke="none" fill="#000000" transform="matrix(0.0833333 0 0 0.0833333 -207.175 -589.5)" d="M 5025.58,8781.11 L 5025.56,8761.11 L 5524.09,8760.76 L 5535.66,8780.75 L 5025.58,8781.11 Z " />
<path stroke="none" fill="#000000" transform="matrix(0.0833333 0 0 0.0833333 -207.175 -589.5)" d="M 5535.66,8780.75 L 5524.09,8760.76 L 5817.86,8250.58 L 5840.96,8250.55 L 5535.66,8780.75 Z " />
<path stroke="none" fill="#000000" transform="matrix(0.0833333 0 0 0.0833333 -207.175 -589.5)" d="M 5496.8,8703.56 L 5479.47,8693.58 L 5737.38,8245.67 L 5754.72,8255.65 L 5496.8,8703.56 Z " />
<path stroke="none" fill="#000000" transform="matrix(0.0833333 0 0 0.0833333 -207.175 -589.5)" d="M 5840.96,8250.55 L 5817.86,8250.58 L 5522.94,7741.11 L 5528.59,7731.3 L 5539.89,7731.22 L 5840.96,8250.55 Z " />
<path stroke="none" fill="#000000" transform="matrix(0.0833333 0 0 0.0833333 -207.175 -589.5)" d="M 5522.98,7721.49 L 5528.59,7731.3 L 5522.94,7741.11 L 4934.27,7741.79 L 4922.69,7721.8 L 5522.98,7721.49 Z " />
<path stroke="none" fill="#000000" transform="matrix(0.0833333 0 0 0.0833333 -207.175 -589.5)" d="M 5487.09,7793.34 L 5487.12,7813.34 L 4970.25,7813.94 L 4970.23,7793.94 L 5487.09,7793.34 Z " />
<path stroke="none" fill="#000000" transform="matrix(0.0833333 0 0 0.0833333 -207.175 -589.5)" d="M 4922.69,7721.8 L 4934.27,7741.79 L 4640.49,8251.98 L 4629.19,8251.95 L 4623.51,8242.14 L 4922.69,7721.8 Z " />
<text x="0" y="0" stroke="none" fill="#000000" transform="matrix(0.0833333 0 0 0.0833333 3.68427 191.437)" font-style="normal" font-weight="normal" font-size="200px" font-family="Arial" >
H</text>
<text x="0" y="0" stroke="none" fill="#000000" transform="matrix(0.0833333 0 0 0.0833333 15.7204 195.104)" font-style="normal" font-weight="normal" font-size="150px" font-family="Arial" >
2</text>
<text x="0" y="0" stroke="none" fill="#000000" transform="matrix(0.0833333 0 0 0.0833333 22.6723 191.437)" font-style="normal" font-weight="normal" font-size="200px" font-family="Arial" >
N</text>
<path stroke="none" fill="#000000" transform="matrix(0.0833333 0 0 0.0833333 -207.175 -589.5)" d="M 3118.49,8773.35 L 3129.79,8773.28 L 3135.4,8783.09 L 2899.79,9192.76 L 2882.46,9182.78 L 3118.49,8773.35 Z " />
<text x="0" y="0" stroke="none" fill="#000000" transform="matrix(0.0833333 0 0 0.0833333 272.473 17.9447)" font-style="normal" font-weight="normal" font-size="200px" font-family="Arial" >
NH</text>
<text x="0" y="0" stroke="none" fill="#000000" transform="matrix(0.0833333 0 0 0.0833333 296.545 21.6114)" font-style="normal" font-weight="normal" font-size="150px" font-family="Arial" >
2</text>
<path stroke="none" fill="#000000" transform="matrix(0.0833333 0 0 0.0833333 -207.175 -589.5)" d="M 5539.89,7731.22 L 5528.59,7731.3 L 5522.98,7721.49 L 5751.06,7324.9 L 5768.39,7334.88 L 5539.89,7731.22 Z " />
<text x="0" y="0" stroke="none" fill="#000000" transform="matrix(0.0833333 0 0 0.0833333 133.925 61.5)" font-style="normal" font-weight="bold" font-size="440px" font-family="Arial" >
21</text>
</svg>
