<?xml version="1.0" standalone="no" ?>
<!DOCTYPE svg PUBLIC "-//W3C//DTD SVG 1.1//EN" "http://www.w3.org/Graphics/SVG/1.1/DTD/svg11.dtd">
<svg width="315px" height="143px" viewBox="0 0 315 143" style="background-color: #ffffff00" xmlns="http://www.w3.org/2000/svg" xmlns:xlink="http://www.w3.org/1999/xlink" version="1.1" >
<text x="0" y="0" stroke="none" fill="#000000" transform="matrix(0.0833333 0 0 0.0833333 74.0236 58.2667)" font-style="normal" font-weight="normal" font-size="200px" font-family="Arial" >
N</text>
<path stroke="none" fill="#000000" transform="matrix(0.0833333 0 0 0.0833333 -190.175 -518.75)" d="M 2636.71,7895.6 L 2648.26,7875.59 L 3236.94,7875.59 L 3248.49,7895.6 L 2636.71,7895.6 Z " />
<path stroke="none" fill="#000000" transform="matrix(0.0833333 0 0 0.0833333 -190.175 -518.75)" d="M 2684.17,7823.4 L 2684.17,7803.4 L 3201.03,7803.4 L 3201.03,7823.4 L 2684.17,7823.4 Z " />
<path stroke="none" fill="#000000" transform="matrix(0.0833333 0 0 0.0833333 -190.175 -518.75)" d="M 3248.49,7895.6 L 3236.94,7875.59 L 3531.3,7365.74 L 3542.6,7365.8 L 3548.26,7375.61 L 3248.49,7895.6 Z " />
<path stroke="none" fill="#000000" transform="matrix(0.0833333 0 0 0.0833333 -190.175 -518.75)" d="M 3548.2,7355.99 L 3542.6,7365.8 L 3531.3,7365.74 L 3301.37,6968 L 3318.69,6957.99 L 3548.2,7355.99 Z " />
<path stroke="none" fill="#000000" transform="matrix(0.0833333 0 0 0.0833333 -190.175 -518.75)" d="M 3468.12,7360.8 L 3450.8,7370.8 L 3239.02,7004 L 3256.34,6993.99 L 3468.12,7360.8 Z " />
<path stroke="none" fill="#000000" transform="matrix(0.0833333 0 0 0.0833333 -190.175 -518.75)" d="M 3146.38,6836.2 L 3146.38,6856.2 L 2648.29,6855.97 L 2636.73,6835.97 L 3146.38,6836.2 Z " />
<path stroke="none" fill="#000000" transform="matrix(0.0833333 0 0 0.0833333 -190.175 -518.75)" d="M 2636.73,6835.97 L 2648.29,6855.97 L 2353.93,7365.8 L 2330.83,7365.8 L 2636.73,6835.97 Z " />
<path stroke="none" fill="#000000" transform="matrix(0.0833333 0 0 0.0833333 -190.175 -518.75)" d="M 2675.51,6913.2 L 2692.83,6923.2 L 2434.4,7370.8 L 2417.08,7360.8 L 2675.51,6913.2 Z " />
<path stroke="none" fill="#000000" transform="matrix(0.0833333 0 0 0.0833333 -190.175 -518.75)" d="M 2330.83,7365.8 L 2353.93,7365.8 L 2648.26,7875.59 L 2636.71,7895.6 L 2330.83,7365.8 Z " />
<path stroke="none" fill="#000000" transform="matrix(0.0833333 0 0 0.0833333 -190.175 -518.75)" d="M 3548.26,7375.61 L 3542.6,7365.8 L 3548.2,7355.99 L 4137,7355.99 L 4142.6,7365.8 L 4136.94,7375.61 L 3548.26,7375.61 Z " />
<text x="0" y="0" stroke="none" fill="#000000" transform="matrix(0.0833333 0 0 0.0833333 174.024 58.2667)" font-style="normal" font-weight="normal" font-size="200px" font-family="Arial" >
N</text>
<path stroke="none" fill="#000000" transform="matrix(0.0833333 0 0 0.0833333 -190.175 -518.75)" d="M 4136.94,7375.61 L 4142.6,7365.8 L 4153.9,7365.74 L 4448.26,7875.59 L 4436.71,7895.6 L 4136.94,7375.61 Z " />
<path stroke="none" fill="#000000" transform="matrix(0.0833333 0 0 0.0833333 -190.175 -518.75)" d="M 4217.08,7370.8 L 4234.4,7360.8 L 4492.83,7808.4 L 4475.51,7818.4 L 4217.08,7370.8 Z " />
<path stroke="none" fill="#000000" transform="matrix(0.0833333 0 0 0.0833333 -190.175 -518.75)" d="M 4436.71,7895.6 L 4448.26,7875.59 L 5036.94,7875.59 L 5048.49,7895.6 L 4436.71,7895.6 Z " />
<path stroke="none" fill="#000000" transform="matrix(0.0833333 0 0 0.0833333 -190.175 -518.75)" d="M 5048.49,7895.6 L 5036.94,7875.59 L 5331.27,7365.8 L 5354.37,7365.8 L 5048.49,7895.6 Z " />
<path stroke="none" fill="#000000" transform="matrix(0.0833333 0 0 0.0833333 -190.175 -518.75)" d="M 5009.69,7818.4 L 4992.37,7808.4 L 5250.8,7360.8 L 5268.12,7370.8 L 5009.69,7818.4 Z " />
<path stroke="none" fill="#000000" transform="matrix(0.0833333 0 0 0.0833333 -190.175 -518.75)" d="M 5354.37,7365.8 L 5331.27,7365.8 L 5036.91,6855.97 L 5042.6,6846.2 L 5053.93,6846.2 L 5354.37,7365.8 Z " />
<path stroke="none" fill="#000000" transform="matrix(0.0833333 0 0 0.0833333 -190.175 -518.75)" d="M 5036.91,6836.43 L 5042.6,6846.2 L 5036.91,6855.97 L 4538.38,6856.2 L 4538.38,6836.2 L 5036.91,6836.43 Z " />
<path stroke="none" fill="#000000" transform="matrix(0.0833333 0 0 0.0833333 -190.175 -518.75)" d="M 5001.03,6908.2 L 5001.03,6928.2 L 4538.38,6928.2 L 4538.38,6908.2 L 5001.03,6908.2 Z " />
<path stroke="none" fill="#000000" transform="matrix(0.0833333 0 0 0.0833333 -190.175 -518.75)" d="M 4366.4,6958.18 L 4383.72,6968.18 L 4153.9,7365.74 L 4142.6,7365.8 L 4137,7355.99 L 4366.4,6958.18 Z " />
<path stroke="none" fill="#000000" transform="matrix(0.0833333 0 0 0.0833333 -190.175 -518.75)" d="M 5053.93,6846.2 L 5042.6,6846.2 L 5036.91,6836.43 L 5336.74,6316.36 L 5348.29,6336.37 L 5053.93,6846.2 Z " />
<text x="0" y="0" stroke="none" fill="#000000" transform="matrix(0.0833333 0 0 0.0833333 298.56 17.9666)" font-style="normal" font-weight="normal" font-size="200px" font-family="Arial" >
O</text>
<path stroke="none" fill="#000000" transform="matrix(0.0833333 0 0 0.0833333 -190.175 -518.75)" d="M 5348.29,6336.37 L 5336.74,6316.36 L 5834.82,6316.6 L 5834.82,6336.6 L 5348.29,6336.37 Z " />
<path stroke="none" fill="#000000" transform="matrix(0.0833333 0 0 0.0833333 -190.175 -518.75)" d="M 5384.17,6408.6 L 5384.17,6388.6 L 5834.82,6388.6 L 5834.82,6408.6 L 5384.17,6408.6 Z " />
<text x="0" y="0" stroke="none" fill="#000000" transform="matrix(0.0833333 0 0 0.0833333 266.925 71.25)" font-style="normal" font-weight="bold" font-size="440px" font-family="Arial" >
9</text>
</svg>
