<?xml version="1.0" standalone="no" ?>
<!DOCTYPE svg PUBLIC "-//W3C//DTD SVG 1.1//EN" "http://www.w3.org/Graphics/SVG/1.1/DTD/svg11.dtd">
<svg width="183px" height="165px" viewBox="0 0 183 165" style="background-color: #ffffff00" xmlns="http://www.w3.org/2000/svg" xmlns:xlink="http://www.w3.org/1999/xlink" version="1.1" >
<path stroke="none" fill="#000000" transform="matrix(0.0833333 0 0 0.0833333 -162.175 -611.333)" d="M 1991.4,8358.11 L 2011.41,8369.66 L 2011.41,8958.34 L 1991.4,8969.89 L 1991.4,8358.11 Z " />
<path stroke="none" fill="#000000" transform="matrix(0.0833333 0 0 0.0833333 -162.175 -611.333)" d="M 2063.6,8405.57 L 2083.6,8405.57 L 2083.6,8922.43 L 2063.6,8922.43 L 2063.6,8405.57 Z " />
<path stroke="none" fill="#000000" transform="matrix(0.0833333 0 0 0.0833333 -162.175 -611.333)" d="M 1991.4,8969.89 L 2011.41,8958.34 L 2521.2,9252.67 L 2521.2,9275.77 L 1991.4,8969.89 Z " />
<path stroke="none" fill="#000000" transform="matrix(0.0833333 0 0 0.0833333 -162.175 -611.333)" d="M 2521.2,9275.77 L 2521.2,9252.67 L 3030.99,8958.34 L 3040.8,8964 L 3040.8,8975.33 L 2521.2,9275.77 Z " />
<path stroke="none" fill="#000000" transform="matrix(0.0833333 0 0 0.0833333 -162.175 -611.333)" d="M 2526.2,9189.52 L 2516.2,9172.2 L 2963.8,8913.77 L 2973.8,8931.09 L 2526.2,9189.52 Z " />
<path stroke="none" fill="#000000" transform="matrix(0.0833333 0 0 0.0833333 -162.175 -611.333)" d="M 3050.61,8958.34 L 3040.8,8964 L 3030.99,8958.34 L 3030.99,8369.66 L 3040.8,8364 L 3050.61,8369.66 L 3050.61,8958.34 Z " />
<path stroke="none" fill="#000000" transform="matrix(0.0833333 0 0 0.0833333 -162.175 -611.333)" d="M 3040.8,8352.67 L 3040.8,8364 L 3030.99,8369.66 L 2521.2,8075.33 L 2521.2,8064 L 2530.96,8058.31 L 3040.8,8352.67 Z " />
<path stroke="none" fill="#000000" transform="matrix(0.0833333 0 0 0.0833333 -162.175 -611.333)" d="M 2973.8,8396.91 L 2963.8,8414.23 L 2516.2,8155.8 L 2526.2,8138.48 L 2973.8,8396.91 Z " />
<path stroke="none" fill="#000000" transform="matrix(0.0833333 0 0 0.0833333 -162.175 -611.333)" d="M 2511.44,8058.31 L 2521.2,8064 L 2521.2,8075.33 L 2011.41,8369.66 L 1991.4,8358.11 L 2511.44,8058.31 Z " />
<path stroke="none" fill="#000000" transform="matrix(0.0833333 0 0 0.0833333 -162.175 -611.333)" d="M 3040.8,8975.33 L 3040.8,8964 L 3050.61,8958.34 L 3560.4,9252.67 L 3560.4,9275.77 L 3040.8,8975.33 Z " />
<path stroke="none" fill="#000000" transform="matrix(0.0833333 0 0 0.0833333 -162.175 -611.333)" d="M 3560.4,9275.77 L 3560.4,9252.67 L 4070.19,8958.34 L 4090.2,8969.89 L 3560.4,9275.77 Z " />
<path stroke="none" fill="#000000" transform="matrix(0.0833333 0 0 0.0833333 -162.175 -611.333)" d="M 3565.4,9189.52 L 3555.4,9172.2 L 4003,8913.77 L 4013,8931.09 L 3565.4,9189.52 Z " />
<path stroke="none" fill="#000000" transform="matrix(0.0833333 0 0 0.0833333 -162.175 -611.333)" d="M 4090.2,8969.89 L 4070.19,8958.34 L 4070.19,8369.66 L 4090.2,8358.11 L 4090.2,8969.89 Z " />
<path stroke="none" fill="#000000" transform="matrix(0.0833333 0 0 0.0833333 -162.175 -611.333)" d="M 4090.2,8358.11 L 4070.19,8369.66 L 3560.4,8075.33 L 3560.4,8064 L 3570.16,8058.31 L 4090.2,8358.11 Z " />
<path stroke="none" fill="#000000" transform="matrix(0.0833333 0 0 0.0833333 -162.175 -611.333)" d="M 4013,8396.91 L 4003,8414.23 L 3555.4,8155.8 L 3565.4,8138.48 L 4013,8396.91 Z " />
<path stroke="none" fill="#000000" transform="matrix(0.0833333 0 0 0.0833333 -162.175 -611.333)" d="M 3550.64,8058.31 L 3560.4,8064 L 3560.4,8075.33 L 3050.61,8369.66 L 3040.8,8364 L 3040.8,8352.67 L 3550.64,8058.31 Z " />
<text x="0" y="0" stroke="none" fill="#000000" transform="matrix(0.0833333 0 0 0.0833333 41.9069 17.1667)" font-style="normal" font-weight="normal" font-size="200px" font-family="Arial" >
NH</text>
<text x="0" y="0" stroke="none" fill="#000000" transform="matrix(0.0833333 0 0 0.0833333 65.9792 20.8333)" font-style="normal" font-weight="normal" font-size="150px" font-family="Arial" >
2</text>
<path stroke="none" fill="#000000" transform="matrix(0.0833333 0 0 0.0833333 -162.175 -611.333)" d="M 2530.96,8058.31 L 2521.2,8064 L 2511.44,8058.31 L 2511.2,7583.33 L 2531.2,7583.33 L 2530.96,8058.31 Z " />
<text x="0" y="0" stroke="none" fill="#000000" transform="matrix(0.0833333 0 0 0.0833333 128.507 17.1667)" font-style="normal" font-weight="normal" font-size="200px" font-family="Arial" >
NH</text>
<text x="0" y="0" stroke="none" fill="#000000" transform="matrix(0.0833333 0 0 0.0833333 152.579 20.8333)" font-style="normal" font-weight="normal" font-size="150px" font-family="Arial" >
2</text>
<path stroke="none" fill="#000000" transform="matrix(0.0833333 0 0 0.0833333 -162.175 -611.333)" d="M 3570.16,8058.31 L 3560.4,8064 L 3550.64,8058.31 L 3550.4,7583.33 L 3570.4,7583.33 L 3570.16,8058.31 Z " />
<text x="0" y="0" stroke="none" fill="#000000" transform="matrix(0.0833333 0 0 0.0833333 76.925 54.6667)" font-style="normal" font-weight="bold" font-size="440px" font-family="Arial" >
23</text>
</svg>
