<?xml version="1.0" standalone="no" ?>
<!DOCTYPE svg PUBLIC "-//W3C//DTD SVG 1.1//EN" "http://www.w3.org/Graphics/SVG/1.1/DTD/svg11.dtd">
<svg width="70px" height="70px" viewBox="0 0 70 70" style="background-color: #ffffff00" xmlns="http://www.w3.org/2000/svg" xmlns:xlink="http://www.w3.org/1999/xlink" version="1.1" >
<path stroke="none" fill="#80ffff" transform="matrix(0.0833333 0 0 0.0833333 -312.175 -355)" d="M 3805.2,4680 A 360,360 0 1 0 4525.2,4680A 360,360 0 1 0 3805.2,4680Z " />
<path stroke="none" fill="#87ffff" transform="matrix(0.0833333 0 0 0.0833333 -312.175 -355)" d="M 3809.42,4674.38 A 350.156,350.156 0 1 0 4509.73,4674.38A 350.156,350.156 0 1 0 3809.42,4674.38Z " />
<path stroke="none" fill="#8fffff" transform="matrix(0.0833333 0 0 0.0833333 -312.175 -355)" d="M 3813.64,4668.75 A 340.312,340.312 0 1 0 4494.26,4668.75A 340.312,340.312 0 1 0 3813.64,4668.75Z " />
<path stroke="none" fill="#96ffff" transform="matrix(0.0833333 0 0 0.0833333 -312.175 -355)" d="M 3817.86,4663.12 A 330.469,330.469 0 1 0 4478.79,4663.12A 330.469,330.469 0 1 0 3817.86,4663.12Z " />
<path stroke="none" fill="#9dffff" transform="matrix(0.0833333 0 0 0.0833333 -312.175 -355)" d="M 3822.07,4657.5 A 320.625,320.625 0 1 0 4463.32,4657.5A 320.625,320.625 0 1 0 3822.07,4657.5Z " />
<path stroke="none" fill="#a4ffff" transform="matrix(0.0833333 0 0 0.0833333 -312.175 -355)" d="M 3826.29,4651.88 A 310.781,310.781 0 1 0 4447.86,4651.88A 310.781,310.781 0 1 0 3826.29,4651.88Z " />
<path stroke="none" fill="#abffff" transform="matrix(0.0833333 0 0 0.0833333 -312.175 -355)" d="M 3830.51,4646.25 A 300.938,300.938 0 1 0 4432.39,4646.25A 300.938,300.938 0 1 0 3830.51,4646.25Z " />
<path stroke="none" fill="#b1ffff" transform="matrix(0.0833333 0 0 0.0833333 -312.175 -355)" d="M 3834.73,4640.62 A 291.094,291.094 0 1 0 4416.92,4640.62A 291.094,291.094 0 1 0 3834.73,4640.62Z " />
<path stroke="none" fill="#b7ffff" transform="matrix(0.0833333 0 0 0.0833333 -312.175 -355)" d="M 3838.95,4635 A 281.25,281.25 0 1 0 4401.45,4635A 281.25,281.25 0 1 0 3838.95,4635Z " />
<path stroke="none" fill="#bdffff" transform="matrix(0.0833333 0 0 0.0833333 -312.175 -355)" d="M 3843.17,4629.38 A 271.406,271.406 0 1 0 4385.98,4629.38A 271.406,271.406 0 1 0 3843.17,4629.38Z " />
<path stroke="none" fill="#c2ffff" transform="matrix(0.0833333 0 0 0.0833333 -312.175 -355)" d="M 3847.39,4623.75 A 261.562,261.562 0 1 0 4370.51,4623.75A 261.562,261.562 0 1 0 3847.39,4623.75Z " />
<path stroke="none" fill="#c8ffff" transform="matrix(0.0833333 0 0 0.0833333 -312.175 -355)" d="M 3851.61,4618.12 A 251.719,251.719 0 1 0 4355.04,4618.12A 251.719,251.719 0 1 0 3851.61,4618.12Z " />
<path stroke="none" fill="#cdffff" transform="matrix(0.0833333 0 0 0.0833333 -312.175 -355)" d="M 3855.82,4612.5 A 241.875,241.875 0 1 0 4339.57,4612.5A 241.875,241.875 0 1 0 3855.82,4612.5Z " />
<path stroke="none" fill="#d2ffff" transform="matrix(0.0833333 0 0 0.0833333 -312.175 -355)" d="M 3860.04,4606.88 A 232.031,232.031 0 1 0 4324.11,4606.88A 232.031,232.031 0 1 0 3860.04,4606.88Z " />
<path stroke="none" fill="#d6ffff" transform="matrix(0.0833333 0 0 0.0833333 -312.175 -355)" d="M 3864.26,4601.25 A 222.188,222.188 0 1 0 4308.64,4601.25A 222.188,222.188 0 1 0 3864.26,4601.25Z " />
<path stroke="none" fill="#dbffff" transform="matrix(0.0833333 0 0 0.0833333 -312.175 -355)" d="M 3868.48,4595.62 A 212.344,212.344 0 1 0 4293.17,4595.62A 212.344,212.344 0 1 0 3868.48,4595.62Z " />
<path stroke="none" fill="#dfffff" transform="matrix(0.0833333 0 0 0.0833333 -312.175 -355)" d="M 3872.7,4590 A 202.5,202.5 0 1 0 4277.7,4590A 202.5,202.5 0 1 0 3872.7,4590Z " />
<path stroke="none" fill="#e3ffff" transform="matrix(0.0833333 0 0 0.0833333 -312.175 -355)" d="M 3876.92,4584.38 A 192.656,192.656 0 1 0 4262.23,4584.38A 192.656,192.656 0 1 0 3876.92,4584.38Z " />
<path stroke="none" fill="#e6ffff" transform="matrix(0.0833333 0 0 0.0833333 -312.175 -355)" d="M 3881.14,4578.75 A 182.812,182.812 0 1 0 4246.76,4578.75A 182.812,182.812 0 1 0 3881.14,4578.75Z " />
<path stroke="none" fill="#eaffff" transform="matrix(0.0833333 0 0 0.0833333 -312.175 -355)" d="M 3885.36,4573.12 A 172.969,172.969 0 1 0 4231.29,4573.12A 172.969,172.969 0 1 0 3885.36,4573.12Z " />
<path stroke="none" fill="#edffff" transform="matrix(0.0833333 0 0 0.0833333 -312.175 -355)" d="M 3889.57,4567.5 A 163.125,163.125 0 1 0 4215.82,4567.5A 163.125,163.125 0 1 0 3889.57,4567.5Z " />
<path stroke="none" fill="#efffff" transform="matrix(0.0833333 0 0 0.0833333 -312.175 -355)" d="M 3893.79,4561.88 A 153.281,153.281 0 1 0 4200.36,4561.88A 153.281,153.281 0 1 0 3893.79,4561.88Z " />
<path stroke="none" fill="#f2ffff" transform="matrix(0.0833333 0 0 0.0833333 -312.175 -355)" d="M 3898.01,4556.25 A 143.438,143.438 0 1 0 4184.89,4556.25A 143.438,143.438 0 1 0 3898.01,4556.25Z " />
<path stroke="none" fill="#f4ffff" transform="matrix(0.0833333 0 0 0.0833333 -312.175 -355)" d="M 3902.23,4550.62 A 133.594,133.594 0 1 0 4169.42,4550.62A 133.594,133.594 0 1 0 3902.23,4550.62Z " />
<path stroke="none" fill="#f7ffff" transform="matrix(0.0833333 0 0 0.0833333 -312.175 -355)" d="M 3906.45,4545 A 123.75,123.75 0 1 0 4153.95,4545A 123.75,123.75 0 1 0 3906.45,4545Z " />
<path stroke="none" fill="#f8ffff" transform="matrix(0.0833333 0 0 0.0833333 -312.175 -355)" d="M 3910.67,4539.38 A 113.906,113.906 0 1 0 4138.48,4539.38A 113.906,113.906 0 1 0 3910.67,4539.38Z " />
<path stroke="none" fill="#faffff" transform="matrix(0.0833333 0 0 0.0833333 -312.175 -355)" d="M 3914.89,4533.75 A 104.062,104.062 0 1 0 4123.01,4533.75A 104.062,104.062 0 1 0 3914.89,4533.75Z " />
<path stroke="none" fill="#fbffff" transform="matrix(0.0833333 0 0 0.0833333 -312.175 -355)" d="M 3919.11,4528.12 A 94.2188,94.2188 0 1 0 4107.54,4528.12A 94.2188,94.2188 0 1 0 3919.11,4528.12Z " />
<path stroke="none" fill="#fdffff" transform="matrix(0.0833333 0 0 0.0833333 -312.175 -355)" d="M 3923.32,4522.5 A 84.375,84.375 0 1 0 4092.07,4522.5A 84.375,84.375 0 1 0 3923.32,4522.5Z " />
<path stroke="none" fill="#fdffff" transform="matrix(0.0833333 0 0 0.0833333 -312.175 -355)" d="M 3927.54,4516.88 A 74.5312,74.5312 0 1 0 4076.61,4516.88A 74.5312,74.5312 0 1 0 3927.54,4516.88Z " />
<path stroke="none" fill="#feffff" transform="matrix(0.0833333 0 0 0.0833333 -312.175 -355)" d="M 3931.76,4511.25 A 64.6875,64.6875 0 1 0 4061.14,4511.25A 64.6875,64.6875 0 1 0 3931.76,4511.25Z " />
<path stroke="none" fill="#feffff" transform="matrix(0.0833333 0 0 0.0833333 -312.175 -355)" d="M 3935.98,4505.62 A 54.8438,54.8438 0 1 0 4045.67,4505.62A 54.8438,54.8438 0 1 0 3935.98,4505.62Z " />
<path stroke="#80ffff" stroke-width="20" fill="none" transform="matrix(0.0833333 0 0 0.0833333 -312.175 -355)" d="M 3805.2,4680 A 360,360 0 1 0 4525.2,4680A 360,360 0 1 0 3805.2,4680Z " />
<text x="0" y="0" stroke="none" fill="#000000" transform="matrix(0.0833333 0 0 0.0833333 19.0333 44)" font-style="normal" font-weight="normal" font-size="240px" font-family="Times New Roman" >
Zn</text>
<text x="0" y="0" stroke="none" fill="#000000" transform="matrix(0.0833333 0 0 0.0833333 41.2501 36.25)" font-style="normal" font-weight="normal" font-size="180px" font-family="Times New Roman" >
2+</text>
</svg>
