<?xml version="1.0" standalone="no" ?>
<!DOCTYPE svg PUBLIC "-//W3C//DTD SVG 1.1//EN" "http://www.w3.org/Graphics/SVG/1.1/DTD/svg11.dtd">
<svg width="153px" height="143px" viewBox="0 0 153 143" style="background-color: #ffffff00" xmlns="http://www.w3.org/2000/svg" xmlns:xlink="http://www.w3.org/1999/xlink" version="1.1" >
<text x="0" y="0" stroke="none" fill="#000000" transform="matrix(0.0833333 0 0 0.0833333 63.0069 17.6667)" font-style="normal" font-weight="normal" font-size="200px" font-family="Arial" >
N</text>
<text x="0" y="0" stroke="none" fill="#000000" transform="matrix(0.0833333 0 0 0.0833333 40.1902 95.2833)" font-style="normal" font-weight="normal" font-size="200px" font-family="Arial" >
N</text>
<path stroke="none" fill="#000000" transform="matrix(0.0833333 0 0 0.0833333 -390.175 -585.333)" d="M 5719.32,7715.16 L 5711.8,7723.2 L 5700.3,7719.81 L 5545.14,7285.29 L 5563.98,7278.58 L 5719.32,7715.16 Z " />
<path stroke="none" fill="#000000" transform="matrix(0.0833333 0 0 0.0833333 -390.175 -585.333)" d="M 5635.84,7694.74 L 5617,7701.45 L 5477.32,7309.46 L 5496.16,7302.75 L 5635.84,7694.74 Z " />
<path stroke="none" fill="#000000" transform="matrix(0.0833333 0 0 0.0833333 -390.175 -585.333)" d="M 5413.96,7150.73 L 5414.53,7170.72 L 4917.98,7184.51 L 4902.88,7164.92 L 5413.96,7150.73 Z " />
<path stroke="none" fill="#000000" transform="matrix(0.0833333 0 0 0.0833333 -390.175 -585.333)" d="M 4902.88,7164.92 L 4917.98,7184.51 L 4752.75,7746.61 L 4729.45,7754.92 L 4902.88,7164.92 Z " />
<path stroke="none" fill="#000000" transform="matrix(0.0833333 0 0 0.0833333 -390.175 -585.333)" d="M 4955.33,7242.66 L 4974.52,7248.3 L 4834.82,7723.54 L 4815.63,7717.9 L 4955.33,7242.66 Z " />
<path stroke="none" fill="#000000" transform="matrix(0.0833333 0 0 0.0833333 -390.175 -585.333)" d="M 4729.45,7754.92 L 4752.75,7746.61 L 5141.74,8012.38 L 5130.44,8028.89 L 4729.45,7754.92 Z " />
<path stroke="none" fill="#000000" transform="matrix(0.0833333 0 0 0.0833333 -390.175 -585.333)" d="M 5339.69,8022.58 L 5327.48,8006.74 L 5700.3,7719.81 L 5711.8,7723.2 L 5713.78,7734.03 L 5339.69,8022.58 Z " />
<path stroke="none" fill="#000000" transform="matrix(0.0833333 0 0 0.0833333 -390.175 -585.333)" d="M 5229.93,8206.94 L 5249.92,8206.37 L 5263.6,8688.92 L 5243.6,8689.48 L 5229.93,8206.94 Z " />
<path stroke="none" fill="#000000" transform="matrix(0.0833333 0 0 0.0833333 -390.175 -585.333)" d="M 5713.78,7734.03 L 5711.8,7723.2 L 5719.32,7715.16 L 6296.17,7884.29 L 6279.44,7900.23 L 5713.78,7734.03 Z " />
<text x="0" y="0" stroke="none" fill="#000000" transform="matrix(0.0833333 0 0 0.0833333 136.16 128.173)" font-style="normal" font-weight="normal" font-size="200px" font-family="Arial" >
O</text>
<path stroke="none" fill="#000000" transform="matrix(0.0833333 0 0 0.0833333 -390.175 -585.333)" d="M 6279.44,7900.23 L 6296.17,7884.29 L 6413.62,8370.41 L 6394.18,8375.11 L 6279.44,7900.23 Z " />
<path stroke="none" fill="#000000" transform="matrix(0.0833333 0 0 0.0833333 -390.175 -585.333)" d="M 6217.68,7952.11 L 6237.12,7947.41 L 6343.64,8387.35 L 6324.2,8392.06 L 6217.68,7952.11 Z " />
</svg>
