<?xml version="1.0" standalone="no" ?>
<!DOCTYPE svg PUBLIC "-//W3C//DTD SVG 1.1//EN" "http://www.w3.org/Graphics/SVG/1.1/DTD/svg11.dtd">
<svg width="447px" height="50px" viewBox="0 0 447 50" style="background-color: #ffffff00" xmlns="http://www.w3.org/2000/svg" xmlns:xlink="http://www.w3.org/1999/xlink" version="1.1" >
<path stroke="none" fill="#000000" transform="matrix(0.0833333 0 0 0.0833333 -291.175 -385)" d="M 4357.15,5063.8 L 4357.15,5040.7 L 4876.84,4740.2 L 4876.84,4763.31 L 4357.15,5063.8 Z " />
<text x="0" y="0" stroke="none" fill="#000000" transform="matrix(0.0833333 0 0 0.0833333 3.61888 17.5)" font-style="normal" font-weight="normal" font-size="200px" font-family="Arial" >
H</text>
<text x="0" y="0" stroke="none" fill="#000000" transform="matrix(0.0833333 0 0 0.0833333 15.655 21.1667)" font-style="normal" font-weight="normal" font-size="150px" font-family="Arial" >
2</text>
<text x="0" y="0" stroke="none" fill="#000000" transform="matrix(0.0833333 0 0 0.0833333 22.6069 17.5)" font-style="normal" font-weight="normal" font-size="200px" font-family="Arial" >
N</text>
<path stroke="none" fill="#000000" transform="matrix(0.0833333 0 0 0.0833333 -291.175 -385)" d="M 4357.15,5040.7 L 4357.15,5063.8 L 3942.79,4824.28 L 3952.79,4806.96 L 4357.15,5040.7 Z " />
<text x="0" y="0" stroke="none" fill="#000000" transform="matrix(0.0833333 0 0 0.0833333 152.043 42.5)" font-style="normal" font-weight="normal" font-size="200px" font-family="Arial" >
O</text>
<path stroke="none" fill="#000000" transform="matrix(0.0833333 0 0 0.0833333 -291.175 -385)" d="M 4876.84,4763.31 L 4876.84,4740.2 L 5308.94,4989.96 L 5298.94,5007.28 L 4876.84,4763.31 Z " />
<path stroke="none" fill="#000000" transform="matrix(0.0833333 0 0 0.0833333 -291.175 -385)" d="M 5494.18,5007.09 L 5484.18,4989.77 L 5915.96,4740.2 L 5915.96,4763.31 L 5494.18,5007.09 Z " />
<path stroke="none" fill="#000000" transform="matrix(0.0833333 0 0 0.0833333 -291.175 -385)" d="M 5915.96,4763.31 L 5915.96,4740.2 L 6435.65,5040.7 L 6435.64,5063.8 L 5915.96,4763.31 Z " />
<text x="0" y="0" stroke="none" fill="#000000" transform="matrix(0.0833333 0 0 0.0833333 281.943 17.5)" font-style="normal" font-weight="normal" font-size="200px" font-family="Arial" >
O</text>
<path stroke="none" fill="#000000" transform="matrix(0.0833333 0 0 0.0833333 -291.175 -385)" d="M 6435.64,5063.8 L 6435.65,5040.7 L 6850.76,4800.75 L 6860.76,4818.07 L 6435.64,5063.8 Z " />
<path stroke="none" fill="#000000" transform="matrix(0.0833333 0 0 0.0833333 -291.175 -385)" d="M 7050.4,4818.51 L 7060.4,4801.19 L 7474.75,5040.7 L 7474.75,5063.8 L 7050.4,4818.51 Z " />
<path stroke="none" fill="#000000" transform="matrix(0.0833333 0 0 0.0833333 -291.175 -385)" d="M 7474.75,5063.8 L 7474.75,5040.7 L 7994.65,4740.2 L 7994.65,4763.3 L 7474.75,5063.8 Z " />
<text x="0" y="0" stroke="none" fill="#000000" transform="matrix(0.0833333 0 0 0.0833333 412.324 42.5)" font-style="normal" font-weight="normal" font-size="200px" font-family="Arial" >
NH</text>
<text x="0" y="0" stroke="none" fill="#000000" transform="matrix(0.0833333 0 0 0.0833333 436.396 46.1667)" font-style="normal" font-weight="normal" font-size="150px" font-family="Arial" >
2</text>
<path stroke="none" fill="#000000" transform="matrix(0.0833333 0 0 0.0833333 -291.175 -385)" d="M 7994.65,4763.3 L 7994.65,4740.2 L 8415.26,4983.33 L 8405.26,5000.65 L 7994.65,4763.3 Z " />
</svg>
