<?xml version="1.0" standalone="no" ?>
<!DOCTYPE svg PUBLIC "-//W3C//DTD SVG 1.1//EN" "http://www.w3.org/Graphics/SVG/1.1/DTD/svg11.dtd">
<svg width="273px" height="116px" viewBox="0 0 273 116" style="background-color: #ffffff00" xmlns="http://www.w3.org/2000/svg" xmlns:xlink="http://www.w3.org/1999/xlink" version="1.1" >
<path stroke="none" fill="#000000" transform="matrix(0.0833333 0 0 0.0833333 -248.175 -482.583)" d="M 4592.4,7118.48 L 4592.4,7141.58 L 4072.8,6841.14 L 4072.8,6829.81 L 4082.61,6824.14 L 4592.4,7118.48 Z " />
<path stroke="none" fill="#000000" transform="matrix(0.0833333 0 0 0.0833333 -248.175 -482.583)" d="M 5102.19,6824.14 L 5122.2,6835.7 L 4592.4,7141.58 L 4592.4,7118.48 L 5102.19,6824.14 Z " />
<path stroke="none" fill="#000000" transform="matrix(0.0833333 0 0 0.0833333 -248.175 -482.583)" d="M 5035,6779.58 L 5045,6796.9 L 4597.4,7055.33 L 4587.4,7038.01 L 5035,6779.58 Z " />
<path stroke="none" fill="#000000" transform="matrix(0.0833333 0 0 0.0833333 -248.175 -482.583)" d="M 5102.19,6235.41 L 5112,6229.81 L 5121.81,6235.47 L 5122.2,6835.7 L 5102.19,6824.14 L 5102.19,6235.41 Z " />
<path stroke="none" fill="#000000" transform="matrix(0.0833333 0 0 0.0833333 -248.175 -482.583)" d="M 4697.36,6001.96 L 4707.36,5984.64 L 5111.95,6218.51 L 5112,6229.81 L 5102.19,6235.41 L 4697.36,6001.96 Z " />
<path stroke="none" fill="#000000" transform="matrix(0.0833333 0 0 0.0833333 -248.175 -482.583)" d="M 4661.36,6064.31 L 4671.36,6046.99 L 5045,6262.72 L 5035,6280.04 L 4661.36,6064.31 Z " />
<path stroke="none" fill="#000000" transform="matrix(0.0833333 0 0 0.0833333 -248.175 -482.583)" d="M 4082.61,6235.41 L 4072.8,6229.81 L 4072.85,6218.51 L 4477.11,5984.83 L 4487.11,6002.15 L 4082.61,6235.41 Z " />
<text x="0" y="0" stroke="none" fill="#000000" transform="matrix(0.0833333 0 0 0.0833333 128.507 18.0675)" font-style="normal" font-weight="normal" font-size="200px" font-family="Arial" >
N</text>
<path stroke="none" fill="#000000" transform="matrix(0.0833333 0 0 0.0833333 -248.175 -482.583)" d="M 3553.2,7118.48 L 3553.2,7141.58 L 3023.4,6835.7 L 3043.41,6824.14 L 3553.2,7118.48 Z " />
<path stroke="none" fill="#000000" transform="matrix(0.0833333 0 0 0.0833333 -248.175 -482.583)" d="M 4062.99,6824.14 L 4072.8,6829.81 L 4072.8,6841.14 L 3553.2,7141.58 L 3553.2,7118.48 L 4062.99,6824.14 Z " />
<path stroke="none" fill="#000000" transform="matrix(0.0833333 0 0 0.0833333 -248.175 -482.583)" d="M 3995.8,6779.58 L 4005.8,6796.9 L 3558.2,7055.33 L 3548.2,7038.01 L 3995.8,6779.58 Z " />
<path stroke="none" fill="#000000" transform="matrix(0.0833333 0 0 0.0833333 -248.175 -482.583)" d="M 4062.99,6235.47 L 4072.8,6229.81 L 4082.61,6235.41 L 4082.61,6824.14 L 4072.8,6829.81 L 4062.99,6824.14 L 4062.99,6235.47 Z " />
<path stroke="none" fill="#000000" transform="matrix(0.0833333 0 0 0.0833333 -248.175 -482.583)" d="M 3553.2,5941.14 L 3553.2,5918.04 L 4072.85,6218.51 L 4072.8,6229.81 L 4062.99,6235.47 L 3553.2,5941.14 Z " />
<path stroke="none" fill="#000000" transform="matrix(0.0833333 0 0 0.0833333 -248.175 -482.583)" d="M 3548.2,6021.61 L 3558.2,6004.29 L 4005.8,6262.72 L 3995.8,6280.04 L 3548.2,6021.61 Z " />
<path stroke="none" fill="#000000" transform="matrix(0.0833333 0 0 0.0833333 -248.175 -482.583)" d="M 3043.41,6235.47 L 3023.4,6223.92 L 3553.2,5918.04 L 3553.2,5941.14 L 3043.41,6235.47 Z " />
<path stroke="none" fill="#000000" transform="matrix(0.0833333 0 0 0.0833333 -248.175 -482.583)" d="M 3043.41,6824.14 L 3023.4,6835.7 L 3023.4,6223.92 L 3043.41,6235.47 L 3043.41,6824.14 Z " />
<path stroke="none" fill="#000000" transform="matrix(0.0833333 0 0 0.0833333 -248.175 -482.583)" d="M 3115.6,6788.24 L 3095.6,6788.24 L 3095.6,6271.38 L 3115.6,6271.38 L 3115.6,6788.24 Z " />
<path stroke="none" fill="#000000" transform="matrix(0.0833333 0 0 0.0833333 -248.175 -482.583)" d="M 5121.81,6235.47 L 5112,6229.81 L 5111.95,6218.51 L 5631.66,5918.01 L 5631.66,5941.12 L 5121.81,6235.47 Z " />
<text x="0" y="0" stroke="none" fill="#000000" transform="matrix(0.0833333 0 0 0.0833333 256.446 45.6661)" font-style="normal" font-weight="normal" font-size="200px" font-family="Arial" >
O</text>
<path stroke="none" fill="#000000" transform="matrix(0.0833333 0 0 0.0833333 -248.175 -482.583)" d="M 5631.66,5941.12 L 5631.66,5918.01 L 6063.77,6167.78 L 6053.77,6185.1 L 5631.66,5941.12 Z " />
<path stroke="none" fill="#000000" transform="matrix(0.0833333 0 0 0.0833333 -248.175 -482.583)" d="M 5626.62,6021.61 L 5636.62,6004.29 L 6027.77,6230.13 L 6017.77,6247.45 L 5626.62,6021.61 Z " />
</svg>
