<?xml version="1.0" standalone="no" ?>
<!DOCTYPE svg PUBLIC "-//W3C//DTD SVG 1.1//EN" "http://www.w3.org/Graphics/SVG/1.1/DTD/svg11.dtd">
<svg width="405px" height="238px" viewBox="0 0 405 238" style="background-color: #ffffff00" xmlns="http://www.w3.org/2000/svg" xmlns:xlink="http://www.w3.org/1999/xlink" version="1.1" >
<path stroke="none" fill="#000000" transform="matrix(0.0833333 0 0 0.0833333 -95.175 -260)" d="M 2003.4,4902.11 L 2023.41,4913.66 L 2023.41,5502.34 L 2013.6,5508 L 2003.79,5502.39 L 2003.4,4902.11 Z " />
<path stroke="none" fill="#000000" transform="matrix(0.0833333 0 0 0.0833333 -95.175 -260)" d="M 2075.6,4949.57 L 2095.6,4949.57 L 2095.6,5466.43 L 2075.6,5466.43 L 2075.6,4949.57 Z " />
<path stroke="none" fill="#000000" transform="matrix(0.0833333 0 0 0.0833333 -95.175 -260)" d="M 2013.55,5519.3 L 2013.6,5508 L 2023.41,5502.34 L 2533.2,5796.67 L 2533.2,5819.77 L 2013.55,5519.3 Z " />
<path stroke="none" fill="#000000" transform="matrix(0.0833333 0 0 0.0833333 -95.175 -260)" d="M 2533.2,5819.77 L 2533.2,5796.67 L 3042.99,5502.34 L 3063,5513.89 L 2533.2,5819.77 Z " />
<path stroke="none" fill="#000000" transform="matrix(0.0833333 0 0 0.0833333 -95.175 -260)" d="M 2538.2,5733.52 L 2528.2,5716.2 L 2975.8,5457.77 L 2985.8,5475.09 L 2538.2,5733.52 Z " />
<path stroke="none" fill="#000000" transform="matrix(0.0833333 0 0 0.0833333 -95.175 -260)" d="M 3063,5513.89 L 3042.99,5502.34 L 3042.99,4913.66 L 3052.8,4908 L 3062.61,4913.66 L 3063,5513.89 Z " />
<path stroke="none" fill="#000000" transform="matrix(0.0833333 0 0 0.0833333 -95.175 -260)" d="M 3052.8,4896.67 L 3052.8,4908 L 3042.99,4913.66 L 2533.2,4619.33 L 2533.2,4596.23 L 3052.8,4896.67 Z " />
<path stroke="none" fill="#000000" transform="matrix(0.0833333 0 0 0.0833333 -95.175 -260)" d="M 2985.8,4940.91 L 2975.8,4958.23 L 2528.2,4699.8 L 2538.2,4682.48 L 2985.8,4940.91 Z " />
<path stroke="none" fill="#000000" transform="matrix(0.0833333 0 0 0.0833333 -95.175 -260)" d="M 2533.2,4596.23 L 2533.2,4619.33 L 2023.41,4913.66 L 2003.4,4902.11 L 2533.2,4596.23 Z " />
<path stroke="none" fill="#000000" transform="matrix(0.0833333 0 0 0.0833333 -95.175 -260)" d="M 3062.61,4913.66 L 3052.8,4908 L 3052.8,4896.67 L 3556.79,4605.95 L 3572.4,4608 L 3572.4,4619.33 L 3062.61,4913.66 Z " />
<path stroke="none" fill="#000000" transform="matrix(0.0833333 0 0 0.0833333 -95.175 -260)" d="M 3572.4,4619.33 L 3572.4,4608 L 3588.01,4605.95 L 4092,4896.67 L 4092,4908 L 4082.19,4913.66 L 3572.4,4619.33 Z " />
<path stroke="none" fill="#000000" transform="matrix(0.0833333 0 0 0.0833333 -95.175 -260)" d="M 4082.19,4913.66 L 4092,4908 L 4101.81,4913.66 L 4101.81,5502.34 L 4081.8,5513.89 L 4082.19,4913.66 Z " />
<path stroke="none" fill="#000000" transform="matrix(0.0833333 0 0 0.0833333 -95.175 -260)" d="M 4154,4949.57 L 4174,4949.57 L 4174,5466.43 L 4154,5466.43 L 4154,4949.57 Z " />
<path stroke="none" fill="#000000" transform="matrix(0.0833333 0 0 0.0833333 -95.175 -260)" d="M 4081.8,5513.89 L 4101.81,5502.34 L 4611.6,5796.67 L 4611.6,5819.77 L 4081.8,5513.89 Z " />
<path stroke="none" fill="#000000" transform="matrix(0.0833333 0 0 0.0833333 -95.175 -260)" d="M 4611.6,5819.77 L 4611.6,5796.67 L 5121.39,5502.34 L 5131.2,5508 L 5131.25,5519.3 L 4611.6,5819.77 Z " />
<path stroke="none" fill="#000000" transform="matrix(0.0833333 0 0 0.0833333 -95.175 -260)" d="M 4616.6,5733.52 L 4606.6,5716.2 L 5054.2,5457.77 L 5064.2,5475.09 L 4616.6,5733.52 Z " />
<path stroke="none" fill="#000000" transform="matrix(0.0833333 0 0 0.0833333 -95.175 -260)" d="M 5141.01,5502.39 L 5131.2,5508 L 5121.39,5502.34 L 5121.39,4913.66 L 5141.4,4902.11 L 5141.01,5502.39 Z " />
<path stroke="none" fill="#000000" transform="matrix(0.0833333 0 0 0.0833333 -95.175 -260)" d="M 5141.4,4902.11 L 5121.39,4913.66 L 4611.6,4619.33 L 4611.6,4596.23 L 5141.4,4902.11 Z " />
<path stroke="none" fill="#000000" transform="matrix(0.0833333 0 0 0.0833333 -95.175 -260)" d="M 5064.2,4940.91 L 5054.2,4958.23 L 4606.6,4699.8 L 4616.6,4682.48 L 5064.2,4940.91 Z " />
<path stroke="none" fill="#000000" transform="matrix(0.0833333 0 0 0.0833333 -95.175 -260)" d="M 4611.6,4596.23 L 4611.6,4619.33 L 4101.81,4913.66 L 4092,4908 L 4092,4896.67 L 4611.6,4596.23 Z " />
<text x="0" y="0" stroke="none" fill="#000000" transform="matrix(0.0833333 0 0 0.0833333 4.31889 230.5)" font-style="normal" font-weight="normal" font-size="200px" font-family="Arial" >
H</text>
<text x="0" y="0" stroke="none" fill="#000000" transform="matrix(0.0833333 0 0 0.0833333 16.355 234.167)" font-style="normal" font-weight="normal" font-size="150px" font-family="Arial" >
2</text>
<text x="0" y="0" stroke="none" fill="#000000" transform="matrix(0.0833333 0 0 0.0833333 23.3069 230.5)" font-style="normal" font-weight="normal" font-size="200px" font-family="Arial" >
N</text>
<path stroke="none" fill="#000000" transform="matrix(0.0833333 0 0 0.0833333 -95.175 -260)" d="M 2003.79,5502.39 L 2013.6,5508 L 2013.55,5519.3 L 1601.97,5757.21 L 1591.97,5739.89 L 2003.79,5502.39 Z " />
<text x="0" y="0" stroke="none" fill="#000000" transform="matrix(0.0833333 0 0 0.0833333 369.707 230.5)" font-style="normal" font-weight="normal" font-size="200px" font-family="Arial" >
NH</text>
<text x="0" y="0" stroke="none" fill="#000000" transform="matrix(0.0833333 0 0 0.0833333 393.779 234.167)" font-style="normal" font-weight="normal" font-size="150px" font-family="Arial" >
2</text>
<path stroke="none" fill="#000000" transform="matrix(0.0833333 0 0 0.0833333 -95.175 -260)" d="M 5131.25,5519.3 L 5131.2,5508 L 5141.01,5502.39 L 5551.86,5739.33 L 5541.86,5756.65 L 5131.25,5519.3 Z " />
<path stroke="none" fill="#000000" transform="matrix(0.0833333 0 0 0.0833333 -95.175 -260)" d="M 3572.4,4594.31 L 3572.4,4608 L 3556.79,4605.95 L 3145.27,4194.74 L 3148.2,4183.8 L 3159.14,4180.87 L 3572.4,4594.31 Z " />
<path stroke="none" fill="#000000" transform="matrix(0.0833333 0 0 0.0833333 -95.175 -260)" d="M 3588.01,4605.95 L 3572.4,4608 L 3572.4,4594.31 L 3985.66,4180.87 L 3996.6,4183.8 L 3999.53,4194.74 L 3588.01,4605.95 Z " />
<path stroke="none" fill="#000000" transform="matrix(0.0833333 0 0 0.0833333 -95.175 -260)" d="M 3159.14,4180.87 L 3148.2,4183.8 L 3140.19,4175.79 L 3292.46,3607.13 L 3303.4,3604.2 L 3310.89,3613.92 L 3159.14,4180.87 Z " />
<path stroke="none" fill="#000000" transform="matrix(0.0833333 0 0 0.0833333 -95.175 -260)" d="M 3099.06,4127.59 L 3079.74,4122.42 L 3213.44,3623.14 L 3232.76,3628.31 L 3099.06,4127.59 Z " />
<path stroke="none" fill="#000000" transform="matrix(0.0833333 0 0 0.0833333 -95.175 -260)" d="M 3307.5,3594.35 L 3303.4,3604.2 L 3292.46,3607.13 L 2876.27,3190.94 L 2882.25,3168.63 L 3307.5,3594.35 Z " />
<path stroke="none" fill="#000000" transform="matrix(0.0833333 0 0 0.0833333 -95.175 -260)" d="M 2882.25,3168.63 L 2876.27,3190.94 L 2307.61,3343.21 L 2291.27,3326.87 L 2882.25,3168.63 Z " />
<path stroke="none" fill="#000000" transform="matrix(0.0833333 0 0 0.0833333 -95.175 -260)" d="M 2855.09,3250.64 L 2860.26,3269.96 L 2360.98,3403.65 L 2355.81,3384.34 L 2855.09,3250.64 Z " />
<path stroke="none" fill="#000000" transform="matrix(0.0833333 0 0 0.0833333 -95.175 -260)" d="M 2291.27,3326.87 L 2307.61,3343.21 L 2155.34,3911.87 L 2133.03,3917.85 L 2291.27,3326.87 Z " />
<path stroke="none" fill="#000000" transform="matrix(0.0833333 0 0 0.0833333 -95.175 -260)" d="M 2133.03,3917.85 L 2155.34,3911.87 L 2571.53,4328.06 L 2565.55,4350.37 L 2133.03,3917.85 Z " />
<path stroke="none" fill="#000000" transform="matrix(0.0833333 0 0 0.0833333 -95.175 -260)" d="M 2217.62,3900.35 L 2231.76,3886.21 L 2597.19,4251.64 L 2583.05,4265.78 L 2217.62,3900.35 Z " />
<path stroke="none" fill="#000000" transform="matrix(0.0833333 0 0 0.0833333 -95.175 -260)" d="M 2565.55,4350.37 L 2571.53,4328.06 L 3140.19,4175.79 L 3148.2,4183.8 L 3145.27,4194.74 L 2565.55,4350.37 Z " />
<path stroke="none" fill="#000000" transform="matrix(0.0833333 0 0 0.0833333 -95.175 -260)" d="M 3999.53,4194.74 L 3996.6,4183.8 L 4004.61,4175.79 L 4573.27,4328.06 L 4579.25,4350.37 L 3999.53,4194.74 Z " />
<path stroke="none" fill="#000000" transform="matrix(0.0833333 0 0 0.0833333 -95.175 -260)" d="M 4052.81,4134.66 L 4057.98,4115.34 L 4557.27,4249.04 L 4552.1,4268.36 L 4052.81,4134.66 Z " />
<path stroke="none" fill="#000000" transform="matrix(0.0833333 0 0 0.0833333 -95.175 -260)" d="M 4579.25,4350.37 L 4573.27,4328.06 L 4989.66,3911.87 L 5011.97,3917.85 L 4579.25,4350.37 Z " />
<path stroke="none" fill="#000000" transform="matrix(0.0833333 0 0 0.0833333 -95.175 -260)" d="M 5011.97,3917.85 L 4989.66,3911.87 L 4837.19,3343.21 L 4853.52,3326.87 L 5011.97,3917.85 Z " />
<path stroke="none" fill="#000000" transform="matrix(0.0833333 0 0 0.0833333 -95.175 -260)" d="M 4929.94,3890.68 L 4910.62,3895.86 L 4776.76,3396.59 L 4796.07,3391.41 L 4929.94,3890.68 Z " />
<path stroke="none" fill="#000000" transform="matrix(0.0833333 0 0 0.0833333 -95.175 -260)" d="M 4853.52,3326.87 L 4837.19,3343.21 L 4268.53,3190.94 L 4262.55,3168.63 L 4853.52,3326.87 Z " />
<path stroke="none" fill="#000000" transform="matrix(0.0833333 0 0 0.0833333 -95.175 -260)" d="M 4262.55,3168.63 L 4268.53,3190.94 L 3852.34,3607.13 L 3841.4,3604.2 L 3837.3,3594.35 L 4262.55,3168.63 Z " />
<path stroke="none" fill="#000000" transform="matrix(0.0833333 0 0 0.0833333 -95.175 -260)" d="M 4280.05,3253.22 L 4294.19,3267.36 L 3928.76,3632.79 L 3914.62,3618.65 L 4280.05,3253.22 Z " />
<path stroke="none" fill="#000000" transform="matrix(0.0833333 0 0 0.0833333 -95.175 -260)" d="M 3833.91,3613.92 L 3841.4,3604.2 L 3852.34,3607.13 L 4004.61,4175.79 L 3996.6,4183.8 L 3985.66,4180.87 L 3833.91,3613.92 Z " />
<path stroke="none" fill="#000000" transform="matrix(0.0833333 0 0 0.0833333 -95.175 -260)" d="M 3837.3,3594.35 L 3841.4,3604.2 L 3833.91,3613.92 L 3310.89,3613.92 L 3303.4,3604.2 L 3307.5,3594.35 L 3837.3,3594.35 Z " />
</svg>
