<?xml version="1.0" standalone="no" ?>
<!DOCTYPE svg PUBLIC "-//W3C//DTD SVG 1.1//EN" "http://www.w3.org/Graphics/SVG/1.1/DTD/svg11.dtd">
<svg width="404px" height="116px" viewBox="0 0 404 116" style="background-color: #ffffff00" xmlns="http://www.w3.org/2000/svg" xmlns:xlink="http://www.w3.org/1999/xlink" version="1.1" >
<path stroke="none" fill="#000000" transform="matrix(0.0833333 0 0 0.0833333 -225.175 -241)" d="M 5125.2,4235.77 L 5125.2,4212.67 L 5634.99,3918.34 L 5644.8,3924 L 5644.8,3935.33 L 5125.2,4235.77 Z " />
<path stroke="none" fill="#000000" transform="matrix(0.0833333 0 0 0.0833333 -225.175 -241)" d="M 5125.2,4212.67 L 5125.2,4235.77 L 4605.6,3935.33 L 4605.6,3924 L 4615.41,3918.34 L 5125.2,4212.67 Z " />
<path stroke="none" fill="#000000" transform="matrix(0.0833333 0 0 0.0833333 -225.175 -241)" d="M 4615.41,3918.34 L 4605.6,3924 L 4595.79,3918.34 L 4595.79,3329.66 L 4615.8,3318.11 L 4615.41,3918.34 Z " />
<path stroke="none" fill="#000000" transform="matrix(0.0833333 0 0 0.0833333 -225.175 -241)" d="M 4543.6,3882.43 L 4523.6,3882.43 L 4523.6,3365.57 L 4543.6,3365.57 L 4543.6,3882.43 Z " />
<path stroke="none" fill="#000000" transform="matrix(0.0833333 0 0 0.0833333 -225.175 -241)" d="M 4615.8,3318.11 L 4595.79,3329.66 L 4086,3035.33 L 4086,3012.23 L 4615.8,3318.11 Z " />
<path stroke="none" fill="#000000" transform="matrix(0.0833333 0 0 0.0833333 -225.175 -241)" d="M 4086,3012.23 L 4086,3035.33 L 3576.21,3329.66 L 3566.4,3324 L 3566.35,3312.7 L 4086,3012.23 Z " />
<path stroke="none" fill="#000000" transform="matrix(0.0833333 0 0 0.0833333 -225.175 -241)" d="M 4081,3098.48 L 4091,3115.8 L 3643.4,3374.23 L 3633.4,3356.91 L 4081,3098.48 Z " />
<path stroke="none" fill="#000000" transform="matrix(0.0833333 0 0 0.0833333 -225.175 -241)" d="M 3556.59,3329.6 L 3566.4,3324 L 3576.21,3329.66 L 3576.21,3918.34 L 3556.2,3929.89 L 3556.59,3329.6 Z " />
<path stroke="none" fill="#000000" transform="matrix(0.0833333 0 0 0.0833333 -225.175 -241)" d="M 3556.2,3929.89 L 3576.21,3918.34 L 4086,4212.67 L 4086,4235.77 L 3556.2,3929.89 Z " />
<path stroke="none" fill="#000000" transform="matrix(0.0833333 0 0 0.0833333 -225.175 -241)" d="M 3633.4,3891.09 L 3643.4,3873.77 L 4091,4132.2 L 4081,4149.52 L 3633.4,3891.09 Z " />
<path stroke="none" fill="#000000" transform="matrix(0.0833333 0 0 0.0833333 -225.175 -241)" d="M 4086,4235.77 L 4086,4212.67 L 4595.79,3918.34 L 4605.6,3924 L 4605.6,3935.33 L 4086,4235.77 Z " />
<path stroke="none" fill="#000000" transform="matrix(0.0833333 0 0 0.0833333 -225.175 -241)" d="M 5644.8,3935.33 L 5644.8,3924 L 5654.61,3918.34 L 6164.4,4212.67 L 6164.4,4235.77 L 5644.8,3935.33 Z " />
<path stroke="none" fill="#000000" transform="matrix(0.0833333 0 0 0.0833333 -225.175 -241)" d="M 5711.8,3891.09 L 5721.8,3873.77 L 6169.4,4132.2 L 6159.4,4149.52 L 5711.8,3891.09 Z " />
<path stroke="none" fill="#000000" transform="matrix(0.0833333 0 0 0.0833333 -225.175 -241)" d="M 6164.4,4235.77 L 6164.4,4212.67 L 6674.19,3918.34 L 6694.2,3929.89 L 6164.4,4235.77 Z " />
<path stroke="none" fill="#000000" transform="matrix(0.0833333 0 0 0.0833333 -225.175 -241)" d="M 6694.2,3929.89 L 6674.19,3918.34 L 6674.19,3329.66 L 6684,3324 L 6693.81,3329.6 L 6694.2,3929.89 Z " />
<path stroke="none" fill="#000000" transform="matrix(0.0833333 0 0 0.0833333 -225.175 -241)" d="M 6622,3882.43 L 6602,3882.43 L 6602,3365.57 L 6622,3365.57 L 6622,3882.43 Z " />
<path stroke="none" fill="#000000" transform="matrix(0.0833333 0 0 0.0833333 -225.175 -241)" d="M 6684.05,3312.7 L 6684,3324 L 6674.19,3329.66 L 6164.4,3035.33 L 6164.4,3012.23 L 6684.05,3312.7 Z " />
<path stroke="none" fill="#000000" transform="matrix(0.0833333 0 0 0.0833333 -225.175 -241)" d="M 6164.4,3012.23 L 6164.4,3035.33 L 5654.61,3329.66 L 5634.6,3318.11 L 6164.4,3012.23 Z " />
<path stroke="none" fill="#000000" transform="matrix(0.0833333 0 0 0.0833333 -225.175 -241)" d="M 6159.4,3098.48 L 6169.4,3115.8 L 5721.8,3374.23 L 5711.8,3356.91 L 6159.4,3098.48 Z " />
<path stroke="none" fill="#000000" transform="matrix(0.0833333 0 0 0.0833333 -225.175 -241)" d="M 5634.6,3318.11 L 5654.61,3329.66 L 5654.61,3918.34 L 5644.8,3924 L 5634.99,3918.34 L 5634.6,3318.11 Z " />
<text x="0" y="0" stroke="none" fill="#000000" transform="matrix(0.0833333 0 0 0.0833333 369.107 17.5)" font-style="normal" font-weight="normal" font-size="200px" font-family="Arial" >
NH</text>
<text x="0" y="0" stroke="none" fill="#000000" transform="matrix(0.0833333 0 0 0.0833333 393.179 21.1667)" font-style="normal" font-weight="normal" font-size="150px" font-family="Arial" >
2</text>
<path stroke="none" fill="#000000" transform="matrix(0.0833333 0 0 0.0833333 -225.175 -241)" d="M 6693.81,3329.6 L 6684,3324 L 6684.05,3312.7 L 7087.44,3079.52 L 7097.44,3096.84 L 6693.81,3329.6 Z " />
<text x="0" y="0" stroke="none" fill="#000000" transform="matrix(0.0833333 0 0 0.0833333 3.71889 17.5)" font-style="normal" font-weight="normal" font-size="200px" font-family="Arial" >
H</text>
<text x="0" y="0" stroke="none" fill="#000000" transform="matrix(0.0833333 0 0 0.0833333 15.755 21.1667)" font-style="normal" font-weight="normal" font-size="150px" font-family="Arial" >
2</text>
<text x="0" y="0" stroke="none" fill="#000000" transform="matrix(0.0833333 0 0 0.0833333 22.7069 17.5)" font-style="normal" font-weight="normal" font-size="200px" font-family="Arial" >
N</text>
<path stroke="none" fill="#000000" transform="matrix(0.0833333 0 0 0.0833333 -225.175 -241)" d="M 3566.35,3312.7 L 3566.4,3324 L 3556.59,3329.6 L 3151.99,3096.28 L 3161.99,3078.96 L 3566.35,3312.7 Z " />
</svg>
