<?xml version="1.0" standalone="no" ?>
<!DOCTYPE svg PUBLIC "-//W3C//DTD SVG 1.1//EN" "http://www.w3.org/Graphics/SVG/1.1/DTD/svg11.dtd">
<svg width="225px" height="98px" viewBox="0 0 225 98" style="background-color: #ffffff00" xmlns="http://www.w3.org/2000/svg" xmlns:xlink="http://www.w3.org/1999/xlink" version="1.1" >
<text x="0" y="0" stroke="none" fill="#000000" transform="matrix(0.0833333 0 0 0.0833333 86.2778 17.25)" font-style="normal" font-weight="normal" font-size="200px" font-family="Arial" >
N</text>
<text x="0" y="0" stroke="none" fill="#000000" transform="matrix(0.0833333 0 0 0.0833333 61.2042 94.0166)" font-style="normal" font-weight="normal" font-size="200px" font-family="Arial" >
S</text>
<path stroke="none" fill="#000000" transform="matrix(0.0833333 0 0 0.0833333 -113.175 -632.333)" d="M 1989.04,8070.17 L 1977.65,8066.4 L 1976.06,8055.51 L 2353.54,7784.97 L 2365.18,7801.23 L 1989.04,8070.17 Z " />
<path stroke="none" fill="#000000" transform="matrix(0.0833333 0 0 0.0833333 -113.175 -632.333)" d="M 2067.96,8102.62 L 2056.32,8086.36 L 2395.46,7843.53 L 2407.11,7859.79 L 2067.96,8102.62 Z " />
<path stroke="none" fill="#000000" transform="matrix(0.0833333 0 0 0.0833333 -113.175 -632.333)" d="M 2564.98,7802.67 L 2576.85,7786.57 L 2950.19,8062.13 L 2948.45,8073 L 2936.97,8076.58 L 2564.98,7802.67 Z " />
<path stroke="none" fill="#000000" transform="matrix(0.0833333 0 0 0.0833333 -113.175 -632.333)" d="M 2936.97,8076.58 L 2948.45,8073 L 2956.2,8080.86 L 2766.61,8652.75 L 2752.21,8632.63 L 2936.97,8076.58 Z " />
<path stroke="none" fill="#000000" transform="matrix(0.0833333 0 0 0.0833333 -113.175 -632.333)" d="M 2854.14,8096.76 L 2873.12,8103.07 L 2716.91,8573.19 L 2697.93,8566.88 L 2854.14,8096.76 Z " />
<path stroke="none" fill="#000000" transform="matrix(0.0833333 0 0 0.0833333 -113.175 -632.333)" d="M 2752.21,8632.63 L 2766.61,8652.75 L 2254.48,8648.87 L 2254.62,8628.87 L 2752.21,8632.63 Z " />
<path stroke="none" fill="#000000" transform="matrix(0.0833333 0 0 0.0833333 -113.175 -632.333)" d="M 2136.57,8533.74 L 2117.5,8539.8 L 1969.84,8074.17 L 1977.65,8066.4 L 1989.04,8070.17 L 2136.57,8533.74 Z " />
<path stroke="none" fill="#000000" transform="matrix(0.0833333 0 0 0.0833333 -113.175 -632.333)" d="M 2956.2,8080.86 L 2948.45,8073 L 2950.19,8062.13 L 3523.02,7880.09 L 3518.06,7902.65 L 2956.2,8080.86 Z " />
<text x="0" y="0" stroke="none" fill="#000000" transform="matrix(0.0833333 0 0 0.0833333 208.608 67.7317)" font-style="normal" font-weight="normal" font-size="200px" font-family="Arial" >
O</text>
<path stroke="none" fill="#000000" transform="matrix(0.0833333 0 0 0.0833333 -113.175 -632.333)" d="M 3518.06,7902.65 L 3523.02,7880.09 L 3891.48,8216.92 L 3877.99,8231.69 L 3518.06,7902.65 Z " />
<path stroke="none" fill="#000000" transform="matrix(0.0833333 0 0 0.0833333 -113.175 -632.333)" d="M 3495.85,7980.18 L 3509.33,7965.41 L 3842.92,8270.08 L 3829.44,8284.85 L 3495.85,7980.18 Z " />
<path stroke="none" fill="#000000" transform="matrix(0.0833333 0 0 0.0833333 -113.175 -632.333)" d="M 1976.06,8055.51 L 1977.65,8066.4 L 1969.84,8074.17 L 1405.29,7886.49 L 1411.61,7867.51 L 1976.06,8055.51 Z " />
</svg>
