<?xml version="1.0" standalone="no" ?>
<!DOCTYPE svg PUBLIC "-//W3C//DTD SVG 1.1//EN" "http://www.w3.org/Graphics/SVG/1.1/DTD/svg11.dtd">
<svg width="237px" height="110px" viewBox="0 0 237 110" style="background-color: #ffffff00" xmlns="http://www.w3.org/2000/svg" xmlns:xlink="http://www.w3.org/1999/xlink" version="1.1" >
<text x="0" y="0" stroke="none" fill="#000000" transform="matrix(0.0833333 0 0 0.0833333 122.889 17.6351)" font-style="normal" font-weight="normal" font-size="200px" font-family="Arial" >
N</text>
<path stroke="none" fill="#000000" transform="matrix(0.0833333 0 0 0.0833333 -191.175 -544.583)" d="M 3744.77,6658.62 L 3744.77,6678.62 L 3246.68,6678.4 L 3235.12,6658.39 L 3744.77,6658.62 Z " />
<path stroke="none" fill="#000000" transform="matrix(0.0833333 0 0 0.0833333 -191.175 -544.583)" d="M 3744.77,6730.62 L 3744.77,6750.62 L 3282.56,6750.62 L 3282.56,6730.62 L 3744.77,6730.62 Z " />
<path stroke="none" fill="#000000" transform="matrix(0.0833333 0 0 0.0833333 -191.175 -544.583)" d="M 3235.12,6658.39 L 3246.68,6678.4 L 2952.32,7188.22 L 2940.99,7188.22 L 2935.32,7178.41 L 3235.12,6658.39 Z " />
<path stroke="none" fill="#000000" transform="matrix(0.0833333 0 0 0.0833333 -191.175 -544.583)" d="M 2935.32,7198.03 L 2940.99,7188.22 L 2952.32,7188.22 L 3246.65,7698.01 L 3235.1,7718.02 L 2935.32,7198.03 Z " />
<path stroke="none" fill="#000000" transform="matrix(0.0833333 0 0 0.0833333 -191.175 -544.583)" d="M 3015.46,7193.22 L 3032.79,7183.22 L 3291.22,7630.82 L 3273.9,7640.82 L 3015.46,7193.22 Z " />
<path stroke="none" fill="#000000" transform="matrix(0.0833333 0 0 0.0833333 -191.175 -544.583)" d="M 3235.1,7718.02 L 3246.65,7698.01 L 3835.32,7698.01 L 3846.87,7718.02 L 3235.1,7718.02 Z " />
<path stroke="none" fill="#000000" transform="matrix(0.0833333 0 0 0.0833333 -191.175 -544.583)" d="M 3846.87,7718.02 L 3835.32,7698.01 L 4129.69,7188.16 L 4140.99,7188.22 L 4146.65,7198.03 L 3846.87,7718.02 Z " />
<path stroke="none" fill="#000000" transform="matrix(0.0833333 0 0 0.0833333 -191.175 -544.583)" d="M 3808.08,7640.82 L 3790.76,7630.82 L 4049.19,7183.22 L 4066.51,7193.22 L 3808.08,7640.82 Z " />
<path stroke="none" fill="#000000" transform="matrix(0.0833333 0 0 0.0833333 -191.175 -544.583)" d="M 4146.59,7178.41 L 4140.99,7188.22 L 4129.69,7188.16 L 3899.76,6790.42 L 3917.08,6780.42 L 4146.59,7178.41 Z " />
<path stroke="none" fill="#000000" transform="matrix(0.0833333 0 0 0.0833333 -191.175 -544.583)" d="M 2935.32,7178.41 L 2940.99,7188.22 L 2935.32,7198.03 L 2340.99,7198.22 L 2340.99,7178.22 L 2935.32,7178.41 Z " />
<path stroke="none" fill="#000000" transform="matrix(0.0833333 0 0 0.0833333 -191.175 -544.583)" d="M 4146.65,7198.03 L 4140.99,7188.22 L 4146.59,7178.41 L 4746.92,7178.02 L 4735.37,7198.03 L 4146.65,7198.03 Z " />
<text x="0" y="0" stroke="none" fill="#000000" transform="matrix(0.0833333 0 0 0.0833333 219.827 105.735)" font-style="normal" font-weight="normal" font-size="200px" font-family="Arial" >
O</text>
<path stroke="none" fill="#000000" transform="matrix(0.0833333 0 0 0.0833333 -191.175 -544.583)" d="M 4735.37,7198.03 L 4746.92,7178.02 L 4996.45,7610.68 L 4979.13,7620.68 L 4735.37,7198.03 Z " />
<path stroke="none" fill="#000000" transform="matrix(0.0833333 0 0 0.0833333 -191.175 -544.583)" d="M 4690.76,7265.22 L 4708.08,7255.22 L 4934.1,7646.68 L 4916.77,7656.68 L 4690.76,7265.22 Z " />
</svg>
