<?xml version="1.0" standalone="no" ?>
<!DOCTYPE svg PUBLIC "-//W3C//DTD SVG 1.1//EN" "http://www.w3.org/Graphics/SVG/1.1/DTD/svg11.dtd">
<svg width="315px" height="143px" viewBox="0 0 315 143" style="background-color: #ffffff00" xmlns="http://www.w3.org/2000/svg" xmlns:xlink="http://www.w3.org/1999/xlink" version="1.1" >
<path stroke="none" fill="#000000" transform="matrix(0.0833333 0 0 0.0833333 -336.175 -433.75)" d="M 4388.79,6875.5 L 4400.34,6855.5 L 4989.02,6855.5 L 5000.57,6875.5 L 4388.79,6875.5 Z " />
<path stroke="none" fill="#000000" transform="matrix(0.0833333 0 0 0.0833333 -336.175 -433.75)" d="M 4436.25,6803.31 L 4436.25,6783.31 L 4953.11,6783.31 L 4953.11,6803.31 L 4436.25,6803.31 Z " />
<path stroke="none" fill="#000000" transform="matrix(0.0833333 0 0 0.0833333 -336.175 -433.75)" d="M 5000.57,6875.5 L 4989.02,6855.5 L 5283.35,6345.71 L 5294.68,6345.71 L 5300.34,6355.52 L 5000.57,6875.5 Z " />
<path stroke="none" fill="#000000" transform="matrix(0.0833333 0 0 0.0833333 -336.175 -433.75)" d="M 5300.34,6335.9 L 5294.68,6345.71 L 5283.35,6345.71 L 4989.02,5835.92 L 5000.57,5815.91 L 5300.34,6335.9 Z " />
<path stroke="none" fill="#000000" transform="matrix(0.0833333 0 0 0.0833333 -336.175 -433.75)" d="M 5220.2,6340.71 L 5202.88,6350.71 L 4944.45,5903.1 L 4961.77,5893.1 L 5220.2,6340.71 Z " />
<path stroke="none" fill="#000000" transform="matrix(0.0833333 0 0 0.0833333 -336.175 -433.75)" d="M 5000.57,5815.91 L 4989.02,5835.92 L 4400.34,5835.92 L 4388.79,5815.91 L 5000.57,5815.91 Z " />
<path stroke="none" fill="#000000" transform="matrix(0.0833333 0 0 0.0833333 -336.175 -433.75)" d="M 4388.79,5815.91 L 4400.34,5835.92 L 4106.01,6345.71 L 4082.91,6345.71 L 4388.79,5815.91 Z " />
<path stroke="none" fill="#000000" transform="matrix(0.0833333 0 0 0.0833333 -336.175 -433.75)" d="M 4427.59,5893.1 L 4444.91,5903.1 L 4186.48,6350.71 L 4169.16,6340.71 L 4427.59,5893.1 Z " />
<path stroke="none" fill="#000000" transform="matrix(0.0833333 0 0 0.0833333 -336.175 -433.75)" d="M 4082.91,6345.71 L 4106.01,6345.71 L 4400.34,6855.5 L 4388.79,6875.5 L 4082.91,6345.71 Z " />
<path stroke="none" fill="#000000" transform="matrix(0.0833333 0 0 0.0833333 -336.175 -433.75)" d="M 5300.34,6355.52 L 5294.68,6345.71 L 5300.34,6335.9 L 5889.08,6335.89 L 5894.68,6345.71 L 5889.02,6355.52 L 5300.34,6355.52 Z " />
<text x="0" y="0" stroke="none" fill="#000000" transform="matrix(0.0833333 0 0 0.0833333 174.03 58.2589)" font-style="normal" font-weight="normal" font-size="200px" font-family="Arial" >
N</text>
<path stroke="none" fill="#000000" transform="matrix(0.0833333 0 0 0.0833333 -336.175 -433.75)" d="M 5889.02,6355.52 L 5894.68,6345.71 L 5905.98,6345.65 L 6200.34,6855.5 L 6188.79,6875.5 L 5889.02,6355.52 Z " />
<path stroke="none" fill="#000000" transform="matrix(0.0833333 0 0 0.0833333 -336.175 -433.75)" d="M 5969.16,6350.71 L 5986.48,6340.71 L 6244.91,6788.31 L 6227.59,6798.31 L 5969.16,6350.71 Z " />
<path stroke="none" fill="#000000" transform="matrix(0.0833333 0 0 0.0833333 -336.175 -433.75)" d="M 6188.79,6875.5 L 6200.34,6855.5 L 6789.02,6855.5 L 6800.57,6875.5 L 6188.79,6875.5 Z " />
<path stroke="none" fill="#000000" transform="matrix(0.0833333 0 0 0.0833333 -336.175 -433.75)" d="M 6800.57,6875.5 L 6789.02,6855.5 L 7083.35,6345.71 L 7106.45,6345.71 L 6800.57,6875.5 Z " />
<path stroke="none" fill="#000000" transform="matrix(0.0833333 0 0 0.0833333 -336.175 -433.75)" d="M 6761.77,6798.31 L 6744.45,6788.31 L 7002.88,6340.71 L 7020.2,6350.71 L 6761.77,6798.31 Z " />
<path stroke="none" fill="#000000" transform="matrix(0.0833333 0 0 0.0833333 -336.175 -433.75)" d="M 7106.45,6345.71 L 7083.35,6345.71 L 6788.99,5835.88 L 6794.68,5826.11 L 6806.01,5826.11 L 7106.45,6345.71 Z " />
<path stroke="none" fill="#000000" transform="matrix(0.0833333 0 0 0.0833333 -336.175 -433.75)" d="M 6788.99,5816.33 L 6794.68,5826.11 L 6788.99,5835.88 L 6290.46,5836.11 L 6290.46,5816.11 L 6788.99,5816.33 Z " />
<path stroke="none" fill="#000000" transform="matrix(0.0833333 0 0 0.0833333 -336.175 -433.75)" d="M 6753.11,5888.11 L 6753.11,5908.11 L 6290.46,5908.11 L 6290.46,5888.11 L 6753.11,5888.11 Z " />
<path stroke="none" fill="#000000" transform="matrix(0.0833333 0 0 0.0833333 -336.175 -433.75)" d="M 6118.48,5938.09 L 6135.8,5948.09 L 5905.98,6345.65 L 5894.68,6345.71 L 5889.08,6335.89 L 6118.48,5938.09 Z " />
<path stroke="none" fill="#000000" transform="matrix(0.0833333 0 0 0.0833333 -336.175 -433.75)" d="M 6806.01,5826.11 L 6794.68,5826.11 L 6788.99,5816.33 L 7088.82,5296.27 L 7100.37,5316.28 L 6806.01,5826.11 Z " />
<text x="0" y="0" stroke="none" fill="#000000" transform="matrix(0.0833333 0 0 0.0833333 298.566 17.9589)" font-style="normal" font-weight="normal" font-size="200px" font-family="Arial" >
O</text>
<path stroke="none" fill="#000000" transform="matrix(0.0833333 0 0 0.0833333 -336.175 -433.75)" d="M 7100.37,5316.28 L 7088.82,5296.27 L 7586.9,5296.51 L 7586.9,5316.51 L 7100.37,5316.28 Z " />
<path stroke="none" fill="#000000" transform="matrix(0.0833333 0 0 0.0833333 -336.175 -433.75)" d="M 7136.25,5388.51 L 7136.25,5368.51 L 7586.9,5368.51 L 7586.9,5388.51 L 7136.25,5388.51 Z " />
</svg>
