<?xml version="1.0" standalone="no" ?>
<!DOCTYPE svg PUBLIC "-//W3C//DTD SVG 1.1//EN" "http://www.w3.org/Graphics/SVG/1.1/DTD/svg11.dtd">
<svg width="273px" height="184px" viewBox="0 0 273 184" style="background-color: #ffffff00" xmlns="http://www.w3.org/2000/svg" xmlns:xlink="http://www.w3.org/1999/xlink" version="1.1" >
<path stroke="none" fill="#000000" transform="matrix(0.0833333 0 0 0.0833333 -297.175 -704.25)" d="M 6219.64,9416.19 L 6219.64,9393.09 L 6651.74,9642.85 L 6641.74,9660.17 L 6219.64,9416.19 Z " />
<path stroke="none" fill="#000000" transform="matrix(0.0833333 0 0 0.0833333 -297.175 -704.25)" d="M 6214.6,9496.68 L 6224.6,9479.36 L 6615.74,9705.2 L 6605.74,9722.52 L 6214.6,9496.68 Z " />
<text x="0" y="0" stroke="none" fill="#000000" transform="matrix(0.0833333 0 0 0.0833333 256.443 113.589)" font-style="normal" font-weight="normal" font-size="200px" font-family="Arial" >
O</text>
<path stroke="none" fill="#000000" transform="matrix(0.0833333 0 0 0.0833333 -297.175 -704.25)" d="M 5709.81,9710.55 L 5700,9704.89 L 5699.95,9693.59 L 6219.64,9393.09 L 6219.64,9416.19 L 5709.81,9710.55 Z " />
<path stroke="none" fill="#000000" transform="matrix(0.0833333 0 0 0.0833333 -297.175 -704.25)" d="M 4053.74,8742.85 L 4043.74,8760.17 L 3616.6,8513.55 L 3626.6,8496.23 L 4053.74,8742.85 Z " />
<path stroke="none" fill="#000000" transform="matrix(0.0833333 0 0 0.0833333 -297.175 -704.25)" d="M 4150.96,9399.19 L 4141.2,9404.89 L 4131.44,9399.19 L 4131.2,8924.72 L 4151.2,8924.72 L 4150.96,9399.19 Z " />
<text x="0" y="0" stroke="none" fill="#000000" transform="matrix(0.0833333 0 0 0.0833333 41.4431 35.9905)" font-style="normal" font-weight="normal" font-size="200px" font-family="Arial" >
O</text>
<path stroke="none" fill="#000000" transform="matrix(0.0833333 0 0 0.0833333 -297.175 -704.25)" d="M 5180.4,10593.6 L 5180.4,10616.7 L 4660.8,10316.2 L 4660.8,10304.9 L 4670.61,10299.2 L 5180.4,10593.6 Z " />
<path stroke="none" fill="#000000" transform="matrix(0.0833333 0 0 0.0833333 -297.175 -704.25)" d="M 5690.19,10299.2 L 5710.2,10310.8 L 5180.4,10616.7 L 5180.4,10593.6 L 5690.19,10299.2 Z " />
<path stroke="none" fill="#000000" transform="matrix(0.0833333 0 0 0.0833333 -297.175 -704.25)" d="M 5623,10254.7 L 5633,10272 L 5185.4,10530.4 L 5175.4,10513.1 L 5623,10254.7 Z " />
<path stroke="none" fill="#000000" transform="matrix(0.0833333 0 0 0.0833333 -297.175 -704.25)" d="M 5690.19,9710.49 L 5700,9704.89 L 5709.81,9710.55 L 5710.2,10310.8 L 5690.19,10299.2 L 5690.19,9710.49 Z " />
<path stroke="none" fill="#000000" transform="matrix(0.0833333 0 0 0.0833333 -297.175 -704.25)" d="M 5285.36,9477.04 L 5295.36,9459.72 L 5699.95,9693.59 L 5700,9704.89 L 5690.19,9710.49 L 5285.36,9477.04 Z " />
<path stroke="none" fill="#000000" transform="matrix(0.0833333 0 0 0.0833333 -297.175 -704.25)" d="M 5249.36,9539.39 L 5259.36,9522.07 L 5633,9737.79 L 5623,9755.11 L 5249.36,9539.39 Z " />
<path stroke="none" fill="#000000" transform="matrix(0.0833333 0 0 0.0833333 -297.175 -704.25)" d="M 4670.61,9710.49 L 4660.8,9704.89 L 4660.85,9693.59 L 5065.11,9459.9 L 5075.11,9477.22 L 4670.61,9710.49 Z " />
<text x="0" y="0" stroke="none" fill="#000000" transform="matrix(0.0833333 0 0 0.0833333 128.507 85.9905)" font-style="normal" font-weight="normal" font-size="200px" font-family="Arial" >
N</text>
<path stroke="none" fill="#000000" transform="matrix(0.0833333 0 0 0.0833333 -297.175 -704.25)" d="M 4141.2,10593.6 L 4141.2,10616.7 L 3611.4,10310.8 L 3631.41,10299.2 L 4141.2,10593.6 Z " />
<path stroke="none" fill="#000000" transform="matrix(0.0833333 0 0 0.0833333 -297.175 -704.25)" d="M 4650.99,10299.2 L 4660.8,10304.9 L 4660.8,10316.2 L 4141.2,10616.7 L 4141.2,10593.6 L 4650.99,10299.2 Z " />
<path stroke="none" fill="#000000" transform="matrix(0.0833333 0 0 0.0833333 -297.175 -704.25)" d="M 4583.8,10254.7 L 4593.8,10272 L 4146.2,10530.4 L 4136.2,10513.1 L 4583.8,10254.7 Z " />
<path stroke="none" fill="#000000" transform="matrix(0.0833333 0 0 0.0833333 -297.175 -704.25)" d="M 4650.99,9710.55 L 4660.8,9704.89 L 4670.61,9710.49 L 4670.61,10299.2 L 4660.8,10304.9 L 4650.99,10299.2 L 4650.99,9710.55 Z " />
<path stroke="none" fill="#000000" transform="matrix(0.0833333 0 0 0.0833333 -297.175 -704.25)" d="M 4141.2,9416.22 L 4141.2,9404.89 L 4150.96,9399.19 L 4660.85,9693.59 L 4660.8,9704.89 L 4650.99,9710.55 L 4141.2,9416.22 Z " />
<path stroke="none" fill="#000000" transform="matrix(0.0833333 0 0 0.0833333 -297.175 -704.25)" d="M 4136.2,9496.68 L 4146.2,9479.36 L 4593.8,9737.79 L 4583.8,9755.11 L 4136.2,9496.68 Z " />
<path stroke="none" fill="#000000" transform="matrix(0.0833333 0 0 0.0833333 -297.175 -704.25)" d="M 3631.41,9710.55 L 3611.4,9699 L 4131.44,9399.19 L 4141.2,9404.89 L 4141.2,9416.22 L 3631.41,9710.55 Z " />
<path stroke="none" fill="#000000" transform="matrix(0.0833333 0 0 0.0833333 -297.175 -704.25)" d="M 3631.41,10299.2 L 3611.4,10310.8 L 3611.4,9699 L 3631.41,9710.55 L 3631.41,10299.2 Z " />
<path stroke="none" fill="#000000" transform="matrix(0.0833333 0 0 0.0833333 -297.175 -704.25)" d="M 3703.6,10263.3 L 3683.6,10263.3 L 3683.6,9746.46 L 3703.6,9746.46 L 3703.6,10263.3 Z " />
</svg>
