<?xml version="1.0" standalone="no" ?>
<!DOCTYPE svg PUBLIC "-//W3C//DTD SVG 1.1//EN" "http://www.w3.org/Graphics/SVG/1.1/DTD/svg11.dtd">
<svg width="315px" height="143px" viewBox="0 0 315 143" style="background-color: #ffffff00" xmlns="http://www.w3.org/2000/svg" xmlns:xlink="http://www.w3.org/1999/xlink" version="1.1" >
<text x="0" y="0" stroke="none" fill="#000000" transform="matrix(0.0833333 0 0 0.0833333 74.0303 57.7589)" font-style="normal" font-weight="normal" font-size="200px" font-family="Arial" >
N</text>
<path stroke="none" fill="#000000" transform="matrix(0.0833333 0 0 0.0833333 -190.175 -519.25)" d="M 2636.79,7895.5 L 2648.34,7875.5 L 3237.02,7875.5 L 3248.57,7895.5 L 2636.79,7895.5 Z " />
<path stroke="none" fill="#000000" transform="matrix(0.0833333 0 0 0.0833333 -190.175 -519.25)" d="M 2684.25,7823.31 L 2684.25,7803.31 L 3201.11,7803.31 L 3201.11,7823.31 L 2684.25,7823.31 Z " />
<path stroke="none" fill="#000000" transform="matrix(0.0833333 0 0 0.0833333 -190.175 -519.25)" d="M 3248.57,7895.5 L 3237.02,7875.5 L 3531.38,7365.65 L 3542.68,7365.71 L 3548.34,7375.52 L 3248.57,7895.5 Z " />
<path stroke="none" fill="#000000" transform="matrix(0.0833333 0 0 0.0833333 -190.175 -519.25)" d="M 3548.28,7355.89 L 3542.68,7365.71 L 3531.38,7365.65 L 3301.45,6967.9 L 3318.77,6957.9 L 3548.28,7355.89 Z " />
<path stroke="none" fill="#000000" transform="matrix(0.0833333 0 0 0.0833333 -190.175 -519.25)" d="M 3468.2,7360.71 L 3450.88,7370.71 L 3239.1,7003.9 L 3256.42,6993.9 L 3468.2,7360.71 Z " />
<path stroke="none" fill="#000000" transform="matrix(0.0833333 0 0 0.0833333 -190.175 -519.25)" d="M 3146.46,6836.11 L 3146.46,6856.11 L 2648.37,6855.88 L 2636.81,6835.87 L 3146.46,6836.11 Z " />
<path stroke="none" fill="#000000" transform="matrix(0.0833333 0 0 0.0833333 -190.175 -519.25)" d="M 2636.81,6835.87 L 2648.37,6855.88 L 2354.01,7365.71 L 2330.91,7365.71 L 2636.81,6835.87 Z " />
<path stroke="none" fill="#000000" transform="matrix(0.0833333 0 0 0.0833333 -190.175 -519.25)" d="M 2675.59,6913.1 L 2692.91,6923.11 L 2434.48,7370.71 L 2417.16,7360.71 L 2675.59,6913.1 Z " />
<path stroke="none" fill="#000000" transform="matrix(0.0833333 0 0 0.0833333 -190.175 -519.25)" d="M 2330.91,7365.71 L 2354.01,7365.71 L 2648.34,7875.5 L 2636.79,7895.5 L 2330.91,7365.71 Z " />
<path stroke="none" fill="#000000" transform="matrix(0.0833333 0 0 0.0833333 -190.175 -519.25)" d="M 3548.34,7375.52 L 3542.68,7365.71 L 3548.28,7355.89 L 4137.08,7355.89 L 4142.68,7365.71 L 4137.02,7375.52 L 3548.34,7375.52 Z " />
<text x="0" y="0" stroke="none" fill="#000000" transform="matrix(0.0833333 0 0 0.0833333 174.03 57.7589)" font-style="normal" font-weight="normal" font-size="200px" font-family="Arial" >
N</text>
<path stroke="none" fill="#000000" transform="matrix(0.0833333 0 0 0.0833333 -190.175 -519.25)" d="M 4137.02,7375.52 L 4142.68,7365.71 L 4153.98,7365.65 L 4448.34,7875.5 L 4436.79,7895.5 L 4137.02,7375.52 Z " />
<path stroke="none" fill="#000000" transform="matrix(0.0833333 0 0 0.0833333 -190.175 -519.25)" d="M 4217.16,7370.71 L 4234.48,7360.71 L 4492.91,7808.31 L 4475.59,7818.31 L 4217.16,7370.71 Z " />
<path stroke="none" fill="#000000" transform="matrix(0.0833333 0 0 0.0833333 -190.175 -519.25)" d="M 4436.79,7895.5 L 4448.34,7875.5 L 5037.02,7875.5 L 5048.57,7895.5 L 4436.79,7895.5 Z " />
<path stroke="none" fill="#000000" transform="matrix(0.0833333 0 0 0.0833333 -190.175 -519.25)" d="M 5048.57,7895.5 L 5037.02,7875.5 L 5331.35,7365.71 L 5354.45,7365.71 L 5048.57,7895.5 Z " />
<path stroke="none" fill="#000000" transform="matrix(0.0833333 0 0 0.0833333 -190.175 -519.25)" d="M 5009.77,7818.31 L 4992.45,7808.31 L 5250.88,7360.71 L 5268.2,7370.71 L 5009.77,7818.31 Z " />
<path stroke="none" fill="#000000" transform="matrix(0.0833333 0 0 0.0833333 -190.175 -519.25)" d="M 5354.45,7365.71 L 5331.35,7365.71 L 5036.99,6855.88 L 5042.68,6846.11 L 5054.01,6846.11 L 5354.45,7365.71 Z " />
<path stroke="none" fill="#000000" transform="matrix(0.0833333 0 0 0.0833333 -190.175 -519.25)" d="M 5036.99,6836.33 L 5042.68,6846.11 L 5036.99,6855.88 L 4538.46,6856.11 L 4538.46,6836.11 L 5036.99,6836.33 Z " />
<path stroke="none" fill="#000000" transform="matrix(0.0833333 0 0 0.0833333 -190.175 -519.25)" d="M 5001.11,6908.11 L 5001.11,6928.11 L 4538.46,6928.11 L 4538.46,6908.11 L 5001.11,6908.11 Z " />
<path stroke="none" fill="#000000" transform="matrix(0.0833333 0 0 0.0833333 -190.175 -519.25)" d="M 4366.48,6958.09 L 4383.8,6968.09 L 4153.98,7365.65 L 4142.68,7365.71 L 4137.08,7355.89 L 4366.48,6958.09 Z " />
<path stroke="none" fill="#000000" transform="matrix(0.0833333 0 0 0.0833333 -190.175 -519.25)" d="M 5054.01,6846.11 L 5042.68,6846.11 L 5036.99,6836.33 L 5336.82,6316.27 L 5348.37,6336.28 L 5054.01,6846.11 Z " />
<text x="0" y="0" stroke="none" fill="#000000" transform="matrix(0.0833333 0 0 0.0833333 298.566 17.4589)" font-style="normal" font-weight="normal" font-size="200px" font-family="Arial" >
O</text>
<path stroke="none" fill="#000000" transform="matrix(0.0833333 0 0 0.0833333 -190.175 -519.25)" d="M 5348.37,6336.28 L 5336.82,6316.27 L 5834.9,6316.51 L 5834.9,6336.51 L 5348.37,6336.28 Z " />
<path stroke="none" fill="#000000" transform="matrix(0.0833333 0 0 0.0833333 -190.175 -519.25)" d="M 5384.25,6408.51 L 5384.25,6388.51 L 5834.9,6388.51 L 5834.9,6408.51 L 5384.25,6408.51 Z " />
</svg>
