<?xml version="1.0" standalone="no" ?>
<!DOCTYPE svg PUBLIC "-//W3C//DTD SVG 1.1//EN" "http://www.w3.org/Graphics/SVG/1.1/DTD/svg11.dtd">
<svg width="307px" height="198px" viewBox="0 0 307 198" style="background-color: #ffffff00" xmlns="http://www.w3.org/2000/svg" xmlns:xlink="http://www.w3.org/1999/xlink" version="1.1" >
<text x="0" y="0" stroke="none" fill="#000000" transform="matrix(0.0833333 0 0 0.0833333 97.5236 60.95)" font-style="normal" font-weight="normal" font-size="200px" font-family="Arial" >
N</text>
<path stroke="none" fill="#000000" transform="matrix(0.0833333 0 0 0.0833333 -207.175 -590)" d="M 3122.72,7723.77 L 3134.3,7743.77 L 2840.53,8253.99 L 2817.43,8254.01 L 3122.72,7723.77 Z " />
<path stroke="none" fill="#000000" transform="matrix(0.0833333 0 0 0.0833333 -207.175 -590)" d="M 3161.59,7800.97 L 3178.92,7810.95 L 2921.01,8258.89 L 2903.68,8248.91 L 3161.59,7800.97 Z " />
<path stroke="none" fill="#000000" transform="matrix(0.0833333 0 0 0.0833333 -207.175 -590)" d="M 2817.43,8254.01 L 2840.53,8253.99 L 3135.45,8763.38 L 3129.8,8773.2 L 3118.5,8773.26 L 2817.43,8254.01 Z " />
<path stroke="none" fill="#000000" transform="matrix(0.0833333 0 0 0.0833333 -207.175 -590)" d="M 3135.42,8783.01 L 3129.8,8773.2 L 3135.45,8763.38 L 3724.12,8762.79 L 3735.7,8782.79 L 3135.42,8783.01 Z " />
<path stroke="none" fill="#000000" transform="matrix(0.0833333 0 0 0.0833333 -207.175 -590)" d="M 3171.3,8711.16 L 3171.28,8691.16 L 3688.14,8690.64 L 3688.16,8710.64 L 3171.3,8711.16 Z " />
<path stroke="none" fill="#000000" transform="matrix(0.0833333 0 0 0.0833333 -207.175 -590)" d="M 3735.7,8782.79 L 3724.12,8762.79 L 4017.9,8252.55 L 4029.2,8252.6 L 4034.88,8262.41 L 3735.7,8782.79 Z " />
<path stroke="none" fill="#000000" transform="matrix(0.0833333 0 0 0.0833333 -207.175 -590)" d="M 4034.79,8242.78 L 4029.2,8252.6 L 4017.9,8252.55 L 3787.53,7855.13 L 3804.83,7845.11 L 4034.79,8242.78 Z " />
<path stroke="none" fill="#000000" transform="matrix(0.0833333 0 0 0.0833333 -207.175 -590)" d="M 3954.72,8247.69 L 3937.41,8257.71 L 3725.22,7891.21 L 3742.53,7881.19 L 3954.72,8247.69 Z " />
<path stroke="none" fill="#000000" transform="matrix(0.0833333 0 0 0.0833333 -207.175 -590)" d="M 3632.37,7723.5 L 3632.39,7743.5 L 3134.3,7743.77 L 3122.72,7723.77 L 3632.37,7723.5 Z " />
<path stroke="none" fill="#000000" transform="matrix(0.0833333 0 0 0.0833333 -207.175 -590)" d="M 4034.88,8262.41 L 4029.2,8252.6 L 4034.79,8242.78 L 4623.52,8242.19 L 4629.2,8252 L 4623.61,8261.82 L 4034.88,8262.41 Z " />
<text x="0" y="0" stroke="none" fill="#000000" transform="matrix(0.0833333 0 0 0.0833333 197.624 147.433)" font-style="normal" font-weight="normal" font-size="200px" font-family="Arial" >
N</text>
<path stroke="none" fill="#000000" transform="matrix(0.0833333 0 0 0.0833333 -207.175 -590)" d="M 4623.61,8261.82 L 4629.2,8252 L 4640.5,8252.04 L 4877.13,8660.26 L 4859.82,8670.28 L 4623.61,8261.82 Z " />
<path stroke="none" fill="#000000" transform="matrix(0.0833333 0 0 0.0833333 -207.175 -590)" d="M 4703.68,8256.91 L 4720.98,8246.89 L 4939.43,8624.19 L 4922.12,8634.21 L 4703.68,8256.91 Z " />
<path stroke="none" fill="#000000" transform="matrix(0.0833333 0 0 0.0833333 -207.175 -590)" d="M 5025.59,8781.1 L 5025.57,8761.1 L 5524.1,8760.83 L 5535.68,8780.83 L 5025.59,8781.1 Z " />
<path stroke="none" fill="#000000" transform="matrix(0.0833333 0 0 0.0833333 -207.175 -590)" d="M 5535.68,8780.83 L 5524.1,8760.83 L 5817.87,8250.61 L 5840.97,8250.59 L 5535.68,8780.83 Z " />
<path stroke="none" fill="#000000" transform="matrix(0.0833333 0 0 0.0833333 -207.175 -590)" d="M 5496.81,8703.63 L 5479.48,8693.65 L 5737.39,8245.7 L 5754.73,8255.68 L 5496.81,8703.63 Z " />
<path stroke="none" fill="#000000" transform="matrix(0.0833333 0 0 0.0833333 -207.175 -590)" d="M 5840.97,8250.59 L 5817.87,8250.61 L 5522.95,7741.02 L 5528.6,7731.2 L 5539.9,7731.13 L 5840.97,8250.59 Z " />
<path stroke="none" fill="#000000" transform="matrix(0.0833333 0 0 0.0833333 -207.175 -590)" d="M 5522.99,7721.39 L 5528.6,7731.2 L 5522.95,7741.02 L 4934.28,7741.8 L 4922.7,7721.81 L 5522.99,7721.39 Z " />
<path stroke="none" fill="#000000" transform="matrix(0.0833333 0 0 0.0833333 -207.175 -590)" d="M 5487.1,7793.26 L 5487.13,7813.26 L 4970.27,7813.94 L 4970.24,7793.94 L 5487.1,7793.26 Z " />
<path stroke="none" fill="#000000" transform="matrix(0.0833333 0 0 0.0833333 -207.175 -590)" d="M 4922.7,7721.81 L 4934.28,7741.8 L 4640.5,8252.04 L 4629.2,8252 L 4623.52,8242.19 L 4922.7,7721.81 Z " />
<text x="0" y="0" stroke="none" fill="#000000" transform="matrix(0.0833333 0 0 0.0833333 3.68554 190.933)" font-style="normal" font-weight="normal" font-size="200px" font-family="Arial" >
H</text>
<text x="0" y="0" stroke="none" fill="#000000" transform="matrix(0.0833333 0 0 0.0833333 15.7217 194.6)" font-style="normal" font-weight="normal" font-size="150px" font-family="Arial" >
2</text>
<text x="0" y="0" stroke="none" fill="#000000" transform="matrix(0.0833333 0 0 0.0833333 22.6736 190.933)" font-style="normal" font-weight="normal" font-size="200px" font-family="Arial" >
N</text>
<path stroke="none" fill="#000000" transform="matrix(0.0833333 0 0 0.0833333 -207.175 -590)" d="M 3118.5,8773.26 L 3129.8,8773.2 L 3135.42,8783.01 L 2899.8,9192.71 L 2882.47,9182.73 L 3118.5,8773.26 Z " />
<text x="0" y="0" stroke="none" fill="#000000" transform="matrix(0.0833333 0 0 0.0833333 272.474 17.45)" font-style="normal" font-weight="normal" font-size="200px" font-family="Arial" >
NH</text>
<text x="0" y="0" stroke="none" fill="#000000" transform="matrix(0.0833333 0 0 0.0833333 296.546 21.1167)" font-style="normal" font-weight="normal" font-size="150px" font-family="Arial" >
2</text>
<path stroke="none" fill="#000000" transform="matrix(0.0833333 0 0 0.0833333 -207.175 -590)" d="M 5539.9,7731.13 L 5528.6,7731.2 L 5522.99,7721.39 L 5751.05,7324.95 L 5768.38,7334.94 L 5539.9,7731.13 Z " />
<text x="0" y="0" stroke="none" fill="#000000" transform="matrix(0.0833333 0 0 0.0833333 133.925 61)" font-style="normal" font-weight="bold" font-size="440px" font-family="Arial" >
21</text>
</svg>
