<?xml version="1.0" standalone="no" ?>
<!DOCTYPE svg PUBLIC "-//W3C//DTD SVG 1.1//EN" "http://www.w3.org/Graphics/SVG/1.1/DTD/svg11.dtd">
<svg width="830px" height="386px" viewBox="0 0 830 386" style="background-color: #ffffff00" xmlns="http://www.w3.org/2000/svg" xmlns:xlink="http://www.w3.org/1999/xlink" version="1.1" >
<text x="0" y="0" stroke="none" fill="#000000" transform="matrix(0.0833333 0 0 0.0833333 3.33821 93.1667)" font-style="normal" font-weight="normal" font-size="200px" font-family="Arial" >
R</text>
<text x="0" y="0" stroke="none" fill="#000000" transform="matrix(0.0833333 0 0 0.0833333 15.3743 96.8333)" font-style="normal" font-weight="normal" font-size="150px" font-family="Arial" >
1</text>
<path stroke="none" fill="#000000" transform="matrix(0.0833333 0 0 0.0833333 -28.175 -319)" d="M 604.22,4848.47 L 594.22,4831.15 L 1060.24,4562.33 L 1070,4568 L 1070.03,4579.29 L 604.22,4848.47 Z " />
<text x="0" y="0" stroke="none" fill="#000000" transform="matrix(0.0833333 0 0 0.0833333 98.2736 93.1667)" font-style="normal" font-weight="normal" font-size="200px" font-family="Arial" >
R</text>
<text x="0" y="0" stroke="none" fill="#000000" transform="matrix(0.0833333 0 0 0.0833333 110.31 96.8333)" font-style="normal" font-weight="normal" font-size="150px" font-family="Arial" >
2</text>
<path stroke="none" fill="#000000" transform="matrix(0.0833333 0 0 0.0833333 -28.175 -319)" d="M 1070.03,4579.29 L 1070,4568 L 1079.77,4562.36 L 1490.66,4799.33 L 1480.66,4816.65 L 1070.03,4579.29 Z " />
<text x="0" y="0" stroke="none" fill="#000000" transform="matrix(0.0833333 0 0 0.0833333 54.9736 18.1667)" font-style="normal" font-weight="normal" font-size="200px" font-family="Arial" >
NH</text>
<text x="0" y="0" stroke="none" fill="#000000" transform="matrix(0.0833333 0 0 0.0833333 79.0459 21.8333)" font-style="normal" font-weight="normal" font-size="150px" font-family="Arial" >
2</text>
<path stroke="none" fill="#000000" transform="matrix(0.0833333 0 0 0.0833333 -28.175 -319)" d="M 1079.77,4562.36 L 1070,4568 L 1060.24,4562.33 L 1060,4087.33 L 1080,4087.33 L 1079.77,4562.36 Z " />
<text x="0" y="0" stroke="none" fill="#000000" transform="matrix(0.0833333 0 0 0.0833333 156.592 57.1667)" font-style="normal" font-weight="normal" font-size="240px" font-family="Times New Roman" >
+</text>
<text x="0" y="0" stroke="none" fill="#000000" transform="matrix(0.0833333 0 0 0.0833333 364.425 57)" font-style="normal" font-weight="normal" font-size="240px" font-family="Times New Roman" >
+</text>
<text x="0" y="0" stroke="none" fill="#000000" transform="matrix(0.0833333 0 0 0.0833333 455.258 56)" font-style="normal" font-weight="normal" font-size="240px" font-family="Times New Roman" >
Metal</text>
<text x="0" y="0" stroke="none" fill="#000000" transform="matrix(0.0833333 0 0 0.0833333 675.592 44.3333)" font-style="normal" font-weight="normal" font-size="240px" font-family="Times New Roman" >
Imine-based </text>
<text x="0" y="0" stroke="none" fill="#000000" transform="matrix(0.0833333 0 0 0.0833333 779.439 44.3333)" font-style="normal" font-weight="normal" font-size="240px" font-family="Times New Roman" >
metal </text>
<text x="0" y="0" stroke="none" fill="#000000" transform="matrix(0.0833333 0 0 0.0833333 675.592 67.5833)" font-style="normal" font-weight="normal" font-size="240px" font-family="Times New Roman" >
organic </text>
<text x="0" y="0" stroke="none" fill="#000000" transform="matrix(0.0833333 0 0 0.0833333 740.562 67.5833)" font-style="normal" font-weight="normal" font-size="240px" font-family="Times New Roman" >
complexes</text>
<text x="0" y="0" stroke="none" fill="#000000" transform="matrix(0.0833333 0 0 0.0833333 211.238 93.1667)" font-style="normal" font-weight="normal" font-size="200px" font-family="Arial" >
R</text>
<text x="0" y="0" stroke="none" fill="#000000" transform="matrix(0.0833333 0 0 0.0833333 223.274 96.8333)" font-style="normal" font-weight="normal" font-size="150px" font-family="Arial" >
4</text>
<path stroke="none" fill="#000000" transform="matrix(0.0833333 0 0 0.0833333 -28.175 -319)" d="M 3103.09,4846.12 L 3093.09,4828.8 L 3564.78,4556.21 L 3564.78,4579.32 L 3103.09,4846.12 Z " />
<path stroke="none" fill="#000000" transform="matrix(0.0833333 0 0 0.0833333 -28.175 -319)" d="M 3564.78,4579.32 L 3564.78,4556.21 L 4089.4,4859.34 L 4079.4,4876.66 L 3564.78,4579.32 Z " />
<text x="0" y="0" stroke="none" fill="#000000" transform="matrix(0.0833333 0 0 0.0833333 262.41 18.1667)" font-style="normal" font-weight="normal" font-size="200px" font-family="Arial" >
O</text>
<path stroke="none" fill="#000000" transform="matrix(0.0833333 0 0 0.0833333 -28.175 -319)" d="M 3538.8,4588.79 L 3518.8,4588.79 L 3518.8,4087.83 L 3538.8,4087.83 L 3538.8,4588.79 Z " />
<path stroke="none" fill="#000000" transform="matrix(0.0833333 0 0 0.0833333 -28.175 -319)" d="M 3610.8,4588.79 L 3590.8,4588.79 L 3590.8,4087.83 L 3610.8,4087.83 L 3610.8,4588.79 Z " />
<path stroke="none" fill="#000000" transform="matrix(0.0833333 0 0 0.0833333 -28.175 -319)" d="M 7607.6,4404 L 6969.2,4404 L 6969.2,4384 L 7607.6,4384 Z " />
<path stroke="none" fill="#000000" transform="matrix(0.0833333 0 0 0.0833333 -28.175 -319)" d="M 7113.2,4444 L 7751.6,4444 L 7751.6,4464 L 7113.2,4464 Z " />
<path stroke="none" fill="#000000" transform="matrix(0.0833333 0 0 0.0833333 -28.175 -319)" d="M 7781.6,4404 C 7781.6,4404 7606.6,4404 7606.6,4404 C 7606.6,4371.25 7581.6,4342 7581.6,4342 C 7581.6,4342 7781.6,4404 7781.6,4404 C 7781.6,4404 7781.6,4404 7781.6,4404 " />
<path stroke="#000000" stroke-width="1" fill="none" transform="matrix(0.0833333 0 0 0.0833333 -28.175 -319)" d="M 7781.6,4404 C 7781.6,4404 7606.6,4404 7606.6,4404 C 7606.6,4371.25 7581.6,4342 7581.6,4342 C 7581.6,4342 7781.6,4404 7781.6,4404 C 7781.6,4404 7781.6,4404 7781.6,4404 " />
<path stroke="none" fill="#000000" transform="matrix(0.0833333 0 0 0.0833333 -28.175 -319)" d="M 6939.2,4444 C 6939.2,4444 7139.2,4506 7139.2,4506 C 7139.2,4506 7114.2,4456.75 7114.2,4444 C 7114.2,4444 6939.2,4444 6939.2,4444 C 6939.2,4444 6939.2,4444 6939.2,4444 " />
<path stroke="#000000" stroke-width="1" fill="none" transform="matrix(0.0833333 0 0 0.0833333 -28.175 -319)" d="M 6939.2,4444 C 6939.2,4444 7139.2,4506 7139.2,4506 C 7139.2,4506 7114.2,4456.75 7114.2,4444 C 7114.2,4444 6939.2,4444 6939.2,4444 C 6939.2,4444 6939.2,4444 6939.2,4444 " />
<text x="0" y="0" stroke="none" fill="#000000" transform="matrix(0.0833333 0 0 0.0833333 567.587 28.6667)" font-style="normal" font-weight="normal" font-size="240px" font-family="Times New Roman" >
H</text>
<text x="0" y="0" stroke="none" fill="#000000" transform="matrix(0.0833333 0 0 0.0833333 582.03 33.1667)" font-style="normal" font-weight="normal" font-size="180px" font-family="Times New Roman" >
2</text>
<text x="0" y="0" stroke="none" fill="#000000" transform="matrix(0.0833333 0 0 0.0833333 589.53 28.6667)" font-style="normal" font-weight="normal" font-size="240px" font-family="Times New Roman" >
O</text>
<text x="0" y="0" stroke="none" fill="#000000" transform="matrix(0.0833333 0 0 0.0833333 13.8382 377.667)" font-style="normal" font-weight="normal" font-size="200px" font-family="Arial" >
R</text>
<text x="0" y="0" stroke="none" fill="#000000" transform="matrix(0.0833333 0 0 0.0833333 25.8744 381.333)" font-style="normal" font-weight="normal" font-size="150px" font-family="Arial" >
1</text>
<path stroke="none" fill="#000000" transform="matrix(0.0833333 0 0 0.0833333 -28.175 -319)" d="M 730.22,8262.47 L 720.22,8245.15 L 1186.24,7976.33 L 1196,7982 L 1196.03,7993.29 L 730.22,8262.47 Z " />
<text x="0" y="0" stroke="none" fill="#000000" transform="matrix(0.0833333 0 0 0.0833333 108.774 377.667)" font-style="normal" font-weight="normal" font-size="200px" font-family="Arial" >
R</text>
<text x="0" y="0" stroke="none" fill="#000000" transform="matrix(0.0833333 0 0 0.0833333 120.81 381.333)" font-style="normal" font-weight="normal" font-size="150px" font-family="Arial" >
2</text>
<path stroke="none" fill="#000000" transform="matrix(0.0833333 0 0 0.0833333 -28.175 -319)" d="M 1196.03,7993.29 L 1196,7982 L 1205.77,7976.36 L 1616.66,8213.33 L 1606.66,8230.65 L 1196.03,7993.29 Z " />
<text x="0" y="0" stroke="none" fill="#000000" transform="matrix(0.0833333 0 0 0.0833333 65.4736 302.667)" font-style="normal" font-weight="normal" font-size="200px" font-family="Arial" >
NH</text>
<text x="0" y="0" stroke="none" fill="#000000" transform="matrix(0.0833333 0 0 0.0833333 89.5458 306.333)" font-style="normal" font-weight="normal" font-size="150px" font-family="Arial" >
2</text>
<path stroke="none" fill="#000000" transform="matrix(0.0833333 0 0 0.0833333 -28.175 -319)" d="M 1205.77,7976.36 L 1196,7982 L 1186.24,7976.33 L 1186,7501.33 L 1206,7501.33 L 1205.77,7976.36 Z " />
<text x="0" y="0" stroke="none" fill="#000000" transform="matrix(0.0833333 0 0 0.0833333 151.738 378.167)" font-style="normal" font-weight="normal" font-size="200px" font-family="Arial" >
R</text>
<text x="0" y="0" stroke="none" fill="#000000" transform="matrix(0.0833333 0 0 0.0833333 163.774 381.833)" font-style="normal" font-weight="normal" font-size="150px" font-family="Arial" >
4</text>
<path stroke="none" fill="#000000" transform="matrix(0.0833333 0 0 0.0833333 -28.175 -319)" d="M 2389.09,8266.12 L 2379.09,8248.8 L 2850.78,7976.21 L 2850.78,7999.32 L 2389.09,8266.12 Z " />
<path stroke="none" fill="#000000" transform="matrix(0.0833333 0 0 0.0833333 -28.175 -319)" d="M 2850.78,7999.32 L 2850.78,7976.21 L 3375.4,8279.34 L 3365.4,8296.66 L 2850.78,7999.32 Z " />
<text x="0" y="0" stroke="none" fill="#000000" transform="matrix(0.0833333 0 0 0.0833333 202.91 303.167)" font-style="normal" font-weight="normal" font-size="200px" font-family="Arial" >
O</text>
<path stroke="none" fill="#000000" transform="matrix(0.0833333 0 0 0.0833333 -28.175 -319)" d="M 2824.8,8008.79 L 2804.8,8008.79 L 2804.8,7507.83 L 2824.8,7507.83 L 2824.8,8008.79 Z " />
<path stroke="none" fill="#000000" transform="matrix(0.0833333 0 0 0.0833333 -28.175 -319)" d="M 2896.8,8008.79 L 2876.8,8008.79 L 2876.8,7507.83 L 2896.8,7507.83 L 2896.8,8008.79 Z " />
<text x="0" y="0" stroke="none" fill="#000000" transform="matrix(0.0833333 0 0 0.0833333 302.758 353)" font-style="normal" font-weight="normal" font-size="240px" font-family="Times New Roman" >
Metal</text>
<text x="0" y="0" stroke="none" fill="#000000" transform="matrix(0.0833333 0 0 0.0833333 453.092 341.833)" font-style="normal" font-weight="normal" font-size="240px" font-family="Times New Roman" >
Supramolecular</text>
<text x="0" y="0" stroke="none" fill="#000000" transform="matrix(0.0833333 0 0 0.0833333 453.092 365.083)" font-style="normal" font-weight="normal" font-size="240px" font-family="Times New Roman" >
Structure</text>
<path stroke="none" fill="#000000" transform="matrix(0.0833333 0 0 0.0833333 -28.175 -319)" d="M 5399.6,8106 L 4761.2,8106 L 4761.2,8086 L 5399.6,8086 Z " />
<path stroke="none" fill="#000000" transform="matrix(0.0833333 0 0 0.0833333 -28.175 -319)" d="M 4905.2,8146 L 5543.6,8146 L 5543.6,8166 L 4905.2,8166 Z " />
<path stroke="none" fill="#000000" transform="matrix(0.0833333 0 0 0.0833333 -28.175 -319)" d="M 5573.6,8106 C 5573.6,8106 5398.6,8106 5398.6,8106 C 5398.6,8073.25 5373.6,8044 5373.6,8044 C 5373.6,8044 5573.6,8106 5573.6,8106 C 5573.6,8106 5573.6,8106 5573.6,8106 " />
<path stroke="#000000" stroke-width="1" fill="none" transform="matrix(0.0833333 0 0 0.0833333 -28.175 -319)" d="M 5573.6,8106 C 5573.6,8106 5398.6,8106 5398.6,8106 C 5398.6,8073.25 5373.6,8044 5373.6,8044 C 5373.6,8044 5573.6,8106 5573.6,8106 C 5573.6,8106 5573.6,8106 5573.6,8106 " />
<path stroke="none" fill="#000000" transform="matrix(0.0833333 0 0 0.0833333 -28.175 -319)" d="M 4731.2,8146 C 4731.2,8146 4931.2,8208 4931.2,8208 C 4931.2,8208 4906.2,8158.75 4906.2,8146 C 4906.2,8146 4731.2,8146 4731.2,8146 C 4731.2,8146 4731.2,8146 4731.2,8146 " />
<path stroke="#000000" stroke-width="1" fill="none" transform="matrix(0.0833333 0 0 0.0833333 -28.175 -319)" d="M 4731.2,8146 C 4731.2,8146 4931.2,8208 4931.2,8208 C 4931.2,8208 4906.2,8158.75 4906.2,8146 C 4906.2,8146 4731.2,8146 4731.2,8146 C 4731.2,8146 4731.2,8146 4731.2,8146 " />
<text x="0" y="0" stroke="none" fill="#000000" transform="matrix(0.0833333 0 0 0.0833333 383.587 337.167)" font-style="normal" font-weight="normal" font-size="240px" font-family="Times New Roman" >
H</text>
<text x="0" y="0" stroke="none" fill="#000000" transform="matrix(0.0833333 0 0 0.0833333 398.03 341.667)" font-style="normal" font-weight="normal" font-size="180px" font-family="Times New Roman" >
2</text>
<text x="0" y="0" stroke="none" fill="#000000" transform="matrix(0.0833333 0 0 0.0833333 405.53 337.167)" font-style="normal" font-weight="normal" font-size="240px" font-family="Times New Roman" >
O</text>
<text x="0" y="0" stroke="none" fill="#000000" transform="matrix(0.0833333 0 0 0.0833333 134.592 353.667)" font-style="normal" font-weight="normal" font-size="240px" font-family="Times New Roman" >
+</text>
<text x="0" y="0" stroke="none" fill="#000000" transform="matrix(0.0833333 0 0 0.0833333 268.592 354.667)" font-style="normal" font-weight="normal" font-size="240px" font-family="Times New Roman" >
+</text>
</svg>
