<?xml version="1.0" standalone="no" ?>
<!DOCTYPE svg PUBLIC "-//W3C//DTD SVG 1.1//EN" "http://www.w3.org/Graphics/SVG/1.1/DTD/svg11.dtd">
<svg width="70px" height="69px" viewBox="0 0 70 69" style="background-color: #ffffff00" xmlns="http://www.w3.org/2000/svg" xmlns:xlink="http://www.w3.org/1999/xlink" version="1.1" >
<path stroke="none" fill="#c0c0c0" transform="matrix(0.0833333 0 0 0.0833333 -325.175 -450)" d="M 3963.8,5811 A 360,360 0 1 0 4683.8,5811A 360,360 0 1 0 3963.8,5811Z " />
<path stroke="none" fill="#c3c3c3" transform="matrix(0.0833333 0 0 0.0833333 -325.175 -450)" d="M 3968.02,5805.37 A 350.156,350.156 0 1 0 4668.33,5805.37A 350.156,350.156 0 1 0 3968.02,5805.37Z " />
<path stroke="none" fill="#c7c7c7" transform="matrix(0.0833333 0 0 0.0833333 -325.175 -450)" d="M 3972.24,5799.75 A 340.312,340.312 0 1 0 4652.86,5799.75A 340.312,340.312 0 1 0 3972.24,5799.75Z " />
<path stroke="none" fill="#cbcbcb" transform="matrix(0.0833333 0 0 0.0833333 -325.175 -450)" d="M 3976.46,5794.12 A 330.469,330.469 0 1 0 4637.39,5794.12A 330.469,330.469 0 1 0 3976.46,5794.12Z " />
<path stroke="none" fill="#cecece" transform="matrix(0.0833333 0 0 0.0833333 -325.175 -450)" d="M 3980.67,5788.5 A 320.625,320.625 0 1 0 4621.92,5788.5A 320.625,320.625 0 1 0 3980.67,5788.5Z " />
<path stroke="none" fill="#d2d2d2" transform="matrix(0.0833333 0 0 0.0833333 -325.175 -450)" d="M 3984.89,5782.87 A 310.781,310.781 0 1 0 4606.46,5782.87A 310.781,310.781 0 1 0 3984.89,5782.87Z " />
<path stroke="none" fill="#d5d5d5" transform="matrix(0.0833333 0 0 0.0833333 -325.175 -450)" d="M 3989.11,5777.25 A 300.938,300.938 0 1 0 4590.99,5777.25A 300.938,300.938 0 1 0 3989.11,5777.25Z " />
<path stroke="none" fill="#d8d8d8" transform="matrix(0.0833333 0 0 0.0833333 -325.175 -450)" d="M 3993.33,5771.62 A 291.094,291.094 0 1 0 4575.52,5771.62A 291.094,291.094 0 1 0 3993.33,5771.62Z " />
<path stroke="none" fill="#dbdbdb" transform="matrix(0.0833333 0 0 0.0833333 -325.175 -450)" d="M 3997.55,5766 A 281.25,281.25 0 1 0 4560.05,5766A 281.25,281.25 0 1 0 3997.55,5766Z " />
<path stroke="none" fill="#dedede" transform="matrix(0.0833333 0 0 0.0833333 -325.175 -450)" d="M 4001.77,5760.37 A 271.406,271.406 0 1 0 4544.58,5760.37A 271.406,271.406 0 1 0 4001.77,5760.37Z " />
<path stroke="none" fill="#e1e1e1" transform="matrix(0.0833333 0 0 0.0833333 -325.175 -450)" d="M 4005.99,5754.75 A 261.562,261.562 0 1 0 4529.11,5754.75A 261.562,261.562 0 1 0 4005.99,5754.75Z " />
<path stroke="none" fill="#e3e3e3" transform="matrix(0.0833333 0 0 0.0833333 -325.175 -450)" d="M 4010.21,5749.12 A 251.719,251.719 0 1 0 4513.64,5749.12A 251.719,251.719 0 1 0 4010.21,5749.12Z " />
<path stroke="none" fill="#e6e6e6" transform="matrix(0.0833333 0 0 0.0833333 -325.175 -450)" d="M 4014.42,5743.5 A 241.875,241.875 0 1 0 4498.17,5743.5A 241.875,241.875 0 1 0 4014.42,5743.5Z " />
<path stroke="none" fill="#e8e8e8" transform="matrix(0.0833333 0 0 0.0833333 -325.175 -450)" d="M 4018.64,5737.87 A 232.031,232.031 0 1 0 4482.71,5737.87A 232.031,232.031 0 1 0 4018.64,5737.87Z " />
<path stroke="none" fill="#ebebeb" transform="matrix(0.0833333 0 0 0.0833333 -325.175 -450)" d="M 4022.86,5732.25 A 222.188,222.188 0 1 0 4467.24,5732.25A 222.188,222.188 0 1 0 4022.86,5732.25Z " />
<path stroke="none" fill="#ededed" transform="matrix(0.0833333 0 0 0.0833333 -325.175 -450)" d="M 4027.08,5726.62 A 212.344,212.344 0 1 0 4451.77,5726.62A 212.344,212.344 0 1 0 4027.08,5726.62Z " />
<path stroke="none" fill="#efefef" transform="matrix(0.0833333 0 0 0.0833333 -325.175 -450)" d="M 4031.3,5721 A 202.5,202.5 0 1 0 4436.3,5721A 202.5,202.5 0 1 0 4031.3,5721Z " />
<path stroke="none" fill="#f1f1f1" transform="matrix(0.0833333 0 0 0.0833333 -325.175 -450)" d="M 4035.52,5715.37 A 192.656,192.656 0 1 0 4420.83,5715.37A 192.656,192.656 0 1 0 4035.52,5715.37Z " />
<path stroke="none" fill="#f2f2f2" transform="matrix(0.0833333 0 0 0.0833333 -325.175 -450)" d="M 4039.74,5709.75 A 182.812,182.812 0 1 0 4405.36,5709.75A 182.812,182.812 0 1 0 4039.74,5709.75Z " />
<path stroke="none" fill="#f4f4f4" transform="matrix(0.0833333 0 0 0.0833333 -325.175 -450)" d="M 4043.96,5704.12 A 172.969,172.969 0 1 0 4389.89,5704.12A 172.969,172.969 0 1 0 4043.96,5704.12Z " />
<path stroke="none" fill="#f6f6f6" transform="matrix(0.0833333 0 0 0.0833333 -325.175 -450)" d="M 4048.17,5698.5 A 163.125,163.125 0 1 0 4374.42,5698.5A 163.125,163.125 0 1 0 4048.17,5698.5Z " />
<path stroke="none" fill="#f7f7f7" transform="matrix(0.0833333 0 0 0.0833333 -325.175 -450)" d="M 4052.39,5692.87 A 153.281,153.281 0 1 0 4358.96,5692.87A 153.281,153.281 0 1 0 4052.39,5692.87Z " />
<path stroke="none" fill="#f8f8f8" transform="matrix(0.0833333 0 0 0.0833333 -325.175 -450)" d="M 4056.61,5687.25 A 143.438,143.438 0 1 0 4343.49,5687.25A 143.438,143.438 0 1 0 4056.61,5687.25Z " />
<path stroke="none" fill="#fafafa" transform="matrix(0.0833333 0 0 0.0833333 -325.175 -450)" d="M 4060.83,5681.62 A 133.594,133.594 0 1 0 4328.02,5681.62A 133.594,133.594 0 1 0 4060.83,5681.62Z " />
<path stroke="none" fill="#fbfbfb" transform="matrix(0.0833333 0 0 0.0833333 -325.175 -450)" d="M 4065.05,5676 A 123.75,123.75 0 1 0 4312.55,5676A 123.75,123.75 0 1 0 4065.05,5676Z " />
<path stroke="none" fill="#fbfbfb" transform="matrix(0.0833333 0 0 0.0833333 -325.175 -450)" d="M 4069.27,5670.37 A 113.906,113.906 0 1 0 4297.08,5670.37A 113.906,113.906 0 1 0 4069.27,5670.37Z " />
<path stroke="none" fill="#fcfcfc" transform="matrix(0.0833333 0 0 0.0833333 -325.175 -450)" d="M 4073.49,5664.75 A 104.062,104.062 0 1 0 4281.61,5664.75A 104.062,104.062 0 1 0 4073.49,5664.75Z " />
<path stroke="none" fill="#fdfdfd" transform="matrix(0.0833333 0 0 0.0833333 -325.175 -450)" d="M 4077.71,5659.12 A 94.2188,94.2188 0 1 0 4266.14,5659.12A 94.2188,94.2188 0 1 0 4077.71,5659.12Z " />
<path stroke="none" fill="#fefefe" transform="matrix(0.0833333 0 0 0.0833333 -325.175 -450)" d="M 4081.92,5653.5 A 84.375,84.375 0 1 0 4250.67,5653.5A 84.375,84.375 0 1 0 4081.92,5653.5Z " />
<path stroke="none" fill="#fefefe" transform="matrix(0.0833333 0 0 0.0833333 -325.175 -450)" d="M 4086.14,5647.87 A 74.5312,74.5312 0 1 0 4235.21,5647.87A 74.5312,74.5312 0 1 0 4086.14,5647.87Z " />
<path stroke="none" fill="#fefefe" transform="matrix(0.0833333 0 0 0.0833333 -325.175 -450)" d="M 4090.36,5642.25 A 64.6875,64.6875 0 1 0 4219.74,5642.25A 64.6875,64.6875 0 1 0 4090.36,5642.25Z " />
<path stroke="none" fill="#fefefe" transform="matrix(0.0833333 0 0 0.0833333 -325.175 -450)" d="M 4094.58,5636.62 A 54.8438,54.8438 0 1 0 4204.27,5636.62A 54.8438,54.8438 0 1 0 4094.58,5636.62Z " />
<path stroke="#c0c0c0" stroke-width="20" fill="none" transform="matrix(0.0833333 0 0 0.0833333 -325.175 -450)" d="M 3963.8,5811 A 360,360 0 1 0 4683.8,5811A 360,360 0 1 0 3963.8,5811Z " />
<text x="0" y="0" stroke="none" fill="#000000" transform="matrix(0.0833333 0 0 0.0833333 19.5801 41)" font-style="normal" font-weight="normal" font-size="240px" font-family="Times New Roman" >
Fe</text>
<text x="0" y="0" stroke="none" fill="#000000" transform="matrix(0.0833333 0 0 0.0833333 39.5801 33.25)" font-style="normal" font-weight="normal" font-size="180px" font-family="Times New Roman" >
2+</text>
</svg>
