<?xml version="1.0" standalone="no" ?>
<!DOCTYPE svg PUBLIC "-//W3C//DTD SVG 1.1//EN" "http://www.w3.org/Graphics/SVG/1.1/DTD/svg11.dtd">
<svg width="70px" height="69px" viewBox="0 0 70 69" style="background-color: #ffffff00" xmlns="http://www.w3.org/2000/svg" xmlns:xlink="http://www.w3.org/1999/xlink" version="1.1" >
<path stroke="none" fill="#808080" transform="matrix(0.0833333 0 0 0.0833333 -281.175 -379)" d="M 3435.8,4959 A 360,360 0 1 0 4155.8,4959A 360,360 0 1 0 3435.8,4959Z " />
<path stroke="none" fill="#878787" transform="matrix(0.0833333 0 0 0.0833333 -281.175 -379)" d="M 3440.02,4953.37 A 350.156,350.156 0 1 0 4140.33,4953.37A 350.156,350.156 0 1 0 3440.02,4953.37Z " />
<path stroke="none" fill="#8f8f8f" transform="matrix(0.0833333 0 0 0.0833333 -281.175 -379)" d="M 3444.24,4947.75 A 340.312,340.312 0 1 0 4124.86,4947.75A 340.312,340.312 0 1 0 3444.24,4947.75Z " />
<path stroke="none" fill="#969696" transform="matrix(0.0833333 0 0 0.0833333 -281.175 -379)" d="M 3448.46,4942.12 A 330.469,330.469 0 1 0 4109.39,4942.12A 330.469,330.469 0 1 0 3448.46,4942.12Z " />
<path stroke="none" fill="#9d9d9d" transform="matrix(0.0833333 0 0 0.0833333 -281.175 -379)" d="M 3452.67,4936.5 A 320.625,320.625 0 1 0 4093.92,4936.5A 320.625,320.625 0 1 0 3452.67,4936.5Z " />
<path stroke="none" fill="#a4a4a4" transform="matrix(0.0833333 0 0 0.0833333 -281.175 -379)" d="M 3456.89,4930.87 A 310.781,310.781 0 1 0 4078.46,4930.87A 310.781,310.781 0 1 0 3456.89,4930.87Z " />
<path stroke="none" fill="#ababab" transform="matrix(0.0833333 0 0 0.0833333 -281.175 -379)" d="M 3461.11,4925.25 A 300.938,300.938 0 1 0 4062.99,4925.25A 300.938,300.938 0 1 0 3461.11,4925.25Z " />
<path stroke="none" fill="#b1b1b1" transform="matrix(0.0833333 0 0 0.0833333 -281.175 -379)" d="M 3465.33,4919.62 A 291.094,291.094 0 1 0 4047.52,4919.62A 291.094,291.094 0 1 0 3465.33,4919.62Z " />
<path stroke="none" fill="#b7b7b7" transform="matrix(0.0833333 0 0 0.0833333 -281.175 -379)" d="M 3469.55,4914 A 281.25,281.25 0 1 0 4032.05,4914A 281.25,281.25 0 1 0 3469.55,4914Z " />
<path stroke="none" fill="#bdbdbd" transform="matrix(0.0833333 0 0 0.0833333 -281.175 -379)" d="M 3473.77,4908.37 A 271.406,271.406 0 1 0 4016.58,4908.37A 271.406,271.406 0 1 0 3473.77,4908.37Z " />
<path stroke="none" fill="#c2c2c2" transform="matrix(0.0833333 0 0 0.0833333 -281.175 -379)" d="M 3477.99,4902.75 A 261.562,261.562 0 1 0 4001.11,4902.75A 261.562,261.562 0 1 0 3477.99,4902.75Z " />
<path stroke="none" fill="#c8c8c8" transform="matrix(0.0833333 0 0 0.0833333 -281.175 -379)" d="M 3482.21,4897.12 A 251.719,251.719 0 1 0 3985.64,4897.12A 251.719,251.719 0 1 0 3482.21,4897.12Z " />
<path stroke="none" fill="#cdcdcd" transform="matrix(0.0833333 0 0 0.0833333 -281.175 -379)" d="M 3486.42,4891.5 A 241.875,241.875 0 1 0 3970.17,4891.5A 241.875,241.875 0 1 0 3486.42,4891.5Z " />
<path stroke="none" fill="#d2d2d2" transform="matrix(0.0833333 0 0 0.0833333 -281.175 -379)" d="M 3490.64,4885.87 A 232.031,232.031 0 1 0 3954.71,4885.87A 232.031,232.031 0 1 0 3490.64,4885.87Z " />
<path stroke="none" fill="#d6d6d6" transform="matrix(0.0833333 0 0 0.0833333 -281.175 -379)" d="M 3494.86,4880.25 A 222.188,222.188 0 1 0 3939.24,4880.25A 222.188,222.188 0 1 0 3494.86,4880.25Z " />
<path stroke="none" fill="#dbdbdb" transform="matrix(0.0833333 0 0 0.0833333 -281.175 -379)" d="M 3499.08,4874.62 A 212.344,212.344 0 1 0 3923.77,4874.62A 212.344,212.344 0 1 0 3499.08,4874.62Z " />
<path stroke="none" fill="#dfdfdf" transform="matrix(0.0833333 0 0 0.0833333 -281.175 -379)" d="M 3503.3,4869 A 202.5,202.5 0 1 0 3908.3,4869A 202.5,202.5 0 1 0 3503.3,4869Z " />
<path stroke="none" fill="#e3e3e3" transform="matrix(0.0833333 0 0 0.0833333 -281.175 -379)" d="M 3507.52,4863.37 A 192.656,192.656 0 1 0 3892.83,4863.37A 192.656,192.656 0 1 0 3507.52,4863.37Z " />
<path stroke="none" fill="#e6e6e6" transform="matrix(0.0833333 0 0 0.0833333 -281.175 -379)" d="M 3511.74,4857.75 A 182.812,182.812 0 1 0 3877.36,4857.75A 182.812,182.812 0 1 0 3511.74,4857.75Z " />
<path stroke="none" fill="#eaeaea" transform="matrix(0.0833333 0 0 0.0833333 -281.175 -379)" d="M 3515.96,4852.12 A 172.969,172.969 0 1 0 3861.89,4852.12A 172.969,172.969 0 1 0 3515.96,4852.12Z " />
<path stroke="none" fill="#ededed" transform="matrix(0.0833333 0 0 0.0833333 -281.175 -379)" d="M 3520.17,4846.5 A 163.125,163.125 0 1 0 3846.42,4846.5A 163.125,163.125 0 1 0 3520.17,4846.5Z " />
<path stroke="none" fill="#efefef" transform="matrix(0.0833333 0 0 0.0833333 -281.175 -379)" d="M 3524.39,4840.87 A 153.281,153.281 0 1 0 3830.96,4840.87A 153.281,153.281 0 1 0 3524.39,4840.87Z " />
<path stroke="none" fill="#f2f2f2" transform="matrix(0.0833333 0 0 0.0833333 -281.175 -379)" d="M 3528.61,4835.25 A 143.438,143.438 0 1 0 3815.49,4835.25A 143.438,143.438 0 1 0 3528.61,4835.25Z " />
<path stroke="none" fill="#f4f4f4" transform="matrix(0.0833333 0 0 0.0833333 -281.175 -379)" d="M 3532.83,4829.62 A 133.594,133.594 0 1 0 3800.02,4829.62A 133.594,133.594 0 1 0 3532.83,4829.62Z " />
<path stroke="none" fill="#f7f7f7" transform="matrix(0.0833333 0 0 0.0833333 -281.175 -379)" d="M 3537.05,4824 A 123.75,123.75 0 1 0 3784.55,4824A 123.75,123.75 0 1 0 3537.05,4824Z " />
<path stroke="none" fill="#f8f8f8" transform="matrix(0.0833333 0 0 0.0833333 -281.175 -379)" d="M 3541.27,4818.37 A 113.906,113.906 0 1 0 3769.08,4818.37A 113.906,113.906 0 1 0 3541.27,4818.37Z " />
<path stroke="none" fill="#fafafa" transform="matrix(0.0833333 0 0 0.0833333 -281.175 -379)" d="M 3545.49,4812.75 A 104.062,104.062 0 1 0 3753.61,4812.75A 104.062,104.062 0 1 0 3545.49,4812.75Z " />
<path stroke="none" fill="#fbfbfb" transform="matrix(0.0833333 0 0 0.0833333 -281.175 -379)" d="M 3549.71,4807.12 A 94.2188,94.2188 0 1 0 3738.14,4807.12A 94.2188,94.2188 0 1 0 3549.71,4807.12Z " />
<path stroke="none" fill="#fdfdfd" transform="matrix(0.0833333 0 0 0.0833333 -281.175 -379)" d="M 3553.92,4801.5 A 84.375,84.375 0 1 0 3722.67,4801.5A 84.375,84.375 0 1 0 3553.92,4801.5Z " />
<path stroke="none" fill="#fdfdfd" transform="matrix(0.0833333 0 0 0.0833333 -281.175 -379)" d="M 3558.14,4795.87 A 74.5312,74.5312 0 1 0 3707.21,4795.87A 74.5312,74.5312 0 1 0 3558.14,4795.87Z " />
<path stroke="none" fill="#fefefe" transform="matrix(0.0833333 0 0 0.0833333 -281.175 -379)" d="M 3562.36,4790.25 A 64.6875,64.6875 0 1 0 3691.74,4790.25A 64.6875,64.6875 0 1 0 3562.36,4790.25Z " />
<path stroke="none" fill="#fefefe" transform="matrix(0.0833333 0 0 0.0833333 -281.175 -379)" d="M 3566.58,4784.62 A 54.8438,54.8438 0 1 0 3676.27,4784.62A 54.8438,54.8438 0 1 0 3566.58,4784.62Z " />
<path stroke="#808080" stroke-width="20" fill="none" transform="matrix(0.0833333 0 0 0.0833333 -281.175 -379)" d="M 3435.8,4959 A 360,360 0 1 0 4155.8,4959A 360,360 0 1 0 3435.8,4959Z " />
<text x="0" y="0" stroke="none" fill="#000000" transform="matrix(0.0833333 0 0 0.0833333 19.92 39)" font-style="normal" font-weight="normal" font-size="240px" font-family="Times New Roman" >
Ag</text>
<text x="0" y="0" stroke="none" fill="#000000" transform="matrix(0.0833333 0 0 0.0833333 44.3633 31.25)" font-style="normal" font-weight="normal" font-size="180px" font-family="Times New Roman" >
+</text>
</svg>
