<?xml version="1.0" standalone="no" ?>
<!DOCTYPE svg PUBLIC "-//W3C//DTD SVG 1.1//EN" "http://www.w3.org/Graphics/SVG/1.1/DTD/svg11.dtd">
<svg width="509px" height="165px" viewBox="0 0 509 165" style="background-color: #ffffff00" xmlns="http://www.w3.org/2000/svg" xmlns:xlink="http://www.w3.org/1999/xlink" version="1.1" >
<text x="0" y="0" stroke="none" fill="#000000" transform="matrix(0.0833333 0 0 0.0833333 84.6815 110.833)" font-style="normal" font-weight="normal" font-size="200px" font-family="Arial" >
N</text>
<path stroke="none" fill="#000000" transform="matrix(0.0833333 0 0 0.0833333 -111.4 -549.667)" d="M 1895.4,6942.11 L 1915.41,6953.66 L 1915.41,7542.39 L 1905.6,7548 L 1895.79,7542.34 L 1895.4,6942.11 Z " />
<path stroke="none" fill="#000000" transform="matrix(0.0833333 0 0 0.0833333 -111.4 -549.667)" d="M 1967.6,6989.57 L 1987.6,6989.57 L 1987.6,7506.43 L 1967.6,7506.43 L 1967.6,6989.57 Z " />
<path stroke="none" fill="#000000" transform="matrix(0.0833333 0 0 0.0833333 -111.4 -549.667)" d="M 1905.65,7559.3 L 1905.6,7548 L 1915.41,7542.39 L 2326.26,7779.33 L 2316.26,7796.65 L 1905.65,7559.3 Z " />
<path stroke="none" fill="#000000" transform="matrix(0.0833333 0 0 0.0833333 -111.4 -549.667)" d="M 2533.81,7796.84 L 2523.81,7779.52 L 2934.99,7542.39 L 2944.8,7548 L 2944.75,7559.3 L 2533.81,7796.84 Z " />
<path stroke="none" fill="#000000" transform="matrix(0.0833333 0 0 0.0833333 -111.4 -549.667)" d="M 2497.81,7734.49 L 2487.81,7717.16 L 2867.8,7497.77 L 2877.8,7515.09 L 2497.81,7734.49 Z " />
<path stroke="none" fill="#000000" transform="matrix(0.0833333 0 0 0.0833333 -111.4 -549.667)" d="M 2954.61,7542.34 L 2944.8,7548 L 2934.99,7542.39 L 2934.99,6953.66 L 2955,6942.11 L 2954.61,7542.34 Z " />
<path stroke="none" fill="#000000" transform="matrix(0.0833333 0 0 0.0833333 -111.4 -549.667)" d="M 2955,6942.11 L 2934.99,6953.66 L 2425.2,6659.33 L 2425.2,6636.23 L 2955,6942.11 Z " />
<path stroke="none" fill="#000000" transform="matrix(0.0833333 0 0 0.0833333 -111.4 -549.667)" d="M 2877.8,6980.91 L 2867.8,6998.23 L 2420.2,6739.8 L 2430.2,6722.48 L 2877.8,6980.91 Z " />
<path stroke="none" fill="#000000" transform="matrix(0.0833333 0 0 0.0833333 -111.4 -549.667)" d="M 2425.2,6636.23 L 2425.2,6659.33 L 1915.41,6953.66 L 1895.4,6942.11 L 2425.2,6636.23 Z " />
<path stroke="none" fill="#000000" transform="matrix(0.0833333 0 0 0.0833333 -111.4 -549.667)" d="M 1895.79,7542.34 L 1905.6,7548 L 1905.65,7559.3 L 1391,7856.66 L 1381,7839.34 L 1895.79,7542.34 Z " />
<path stroke="none" fill="#000000" transform="matrix(0.0833333 0 0 0.0833333 -111.4 -549.667)" d="M 2944.75,7559.3 L 2944.8,7548 L 2954.61,7542.34 L 3474.64,7842.13 L 3454.63,7853.69 L 2944.75,7559.3 Z " />
<text x="0" y="0" stroke="none" fill="#000000" transform="matrix(0.0833333 0 0 0.0833333 167.818 160.833)" font-style="normal" font-weight="normal" font-size="200px" font-family="Arial" >
O</text>
<path stroke="none" fill="#000000" transform="matrix(0.0833333 0 0 0.0833333 -111.4 -549.667)" d="M 3454.63,7853.69 L 3474.64,7842.13 L 3474.4,8342.83 L 3454.4,8342.83 L 3454.63,7853.69 Z " />
<path stroke="none" fill="#000000" transform="matrix(0.0833333 0 0 0.0833333 -111.4 -549.667)" d="M 3382.4,7889.57 L 3402.4,7889.57 L 3402.4,8342.83 L 3382.4,8342.83 L 3382.4,7889.57 Z " />
<path stroke="none" fill="#000000" transform="matrix(0.0833333 0 0 0.0833333 -111.4 -549.667)" d="M 6644.31,7477.44 L 6642.4,7466.6 L 6649.98,7458.61 L 7225.62,7631.34 L 7208.79,7647.18 L 6644.31,7477.44 Z " />
<path stroke="none" fill="#000000" transform="matrix(0.0833333 0 0 0.0833333 -111.4 -549.667)" d="M 5663.63,7480.37 L 5671.6,7488 L 5670.17,7498.92 L 5108.7,7695.44 L 5102.1,7676.56 L 5663.63,7480.37 Z " />
<path stroke="none" fill="#000000" transform="matrix(0.0833333 0 0 0.0833333 -111.4 -549.667)" d="M 6475.49,7019.43 L 6494.37,7012.83 L 6649.98,7458.61 L 6642.4,7466.6 L 6630.91,7463.15 L 6475.49,7019.43 Z " />
<path stroke="none" fill="#000000" transform="matrix(0.0833333 0 0 0.0833333 -111.4 -549.667)" d="M 5851.72,6923.16 L 5836.74,6903.47 L 6347.52,6892.36 L 6347.96,6912.36 L 5851.72,6923.16 Z " />
<path stroke="none" fill="#000000" transform="matrix(0.0833333 0 0 0.0833333 -111.4 -549.667)" d="M 5682.98,7484.08 L 5671.6,7488 L 5663.63,7480.37 L 5836.74,6903.47 L 5851.72,6923.16 L 5682.98,7484.08 Z " />
<path stroke="none" fill="#000000" transform="matrix(0.0833333 0 0 0.0833333 -111.4 -549.667)" d="M 5765.17,7461.53 L 5746.02,7455.77 L 5888.69,6981.51 L 5907.84,6987.28 L 5765.17,7461.53 Z " />
<path stroke="none" fill="#000000" transform="matrix(0.0833333 0 0 0.0833333 -111.4 -549.667)" d="M 6070.32,7752.32 L 6058.92,7768.75 L 5670.17,7498.92 L 5671.6,7488 L 5682.98,7484.08 L 6070.32,7752.32 Z " />
<path stroke="none" fill="#000000" transform="matrix(0.0833333 0 0 0.0833333 -111.4 -549.667)" d="M 6630.91,7463.15 L 6642.4,7466.6 L 6644.31,7477.44 L 6268.22,7763.88 L 6256.11,7747.96 L 6630.91,7463.15 Z " />
<path stroke="none" fill="#000000" transform="matrix(0.0833333 0 0 0.0833333 -111.4 -549.667)" d="M 6551.1,7433.01 L 6563.21,7448.93 L 6224.61,7706.57 L 6212.5,7690.65 L 6551.1,7433.01 Z " />
<text x="0" y="0" stroke="none" fill="#000000" transform="matrix(0.0833333 0 0 0.0833333 420.075 31.85)" font-style="normal" font-weight="normal" font-size="200px" font-family="Arial" >
S</text>
<text x="0" y="0" stroke="none" fill="#000000" transform="matrix(0.0833333 0 0 0.0833333 396.315 109.333)" font-style="normal" font-weight="normal" font-size="200px" font-family="Arial" >
N</text>
<text x="0" y="0" stroke="none" fill="#000000" transform="matrix(0.0833333 0 0 0.0833333 492.064 142.804)" font-style="normal" font-weight="normal" font-size="200px" font-family="Arial" >
O</text>
<path stroke="none" fill="#000000" transform="matrix(0.0833333 0 0 0.0833333 -111.4 -549.667)" d="M 7208.79,7647.18 L 7225.62,7631.34 L 7339.91,8118.13 L 7320.44,8122.71 L 7208.79,7647.18 Z " />
<path stroke="none" fill="#000000" transform="matrix(0.0833333 0 0 0.0833333 -111.4 -549.667)" d="M 7146.71,7698.66 L 7166.18,7694.08 L 7269.83,8134.62 L 7250.36,8139.2 L 7146.71,7698.66 Z " />
<path stroke="none" fill="#000000" transform="matrix(0.0833333 0 0 0.0833333 -111.4 -549.667)" d="M 2415.2,7965.33 L 2435.2,7965.33 L 2435.2,8448 L 2415.2,8448 L 2415.2,7965.33 Z " />
<path stroke="none" fill="#000000" transform="matrix(0.0833333 0 0 0.0833333 -111.4 -549.667)" d="M 6154.8,7947.33 L 6174.8,7947.33 L 6174.8,8430 L 6154.8,8430 L 6154.8,7947.33 Z " />
<path stroke="#000000" stroke-width="20" fill="none" transform="matrix(0.0833333 0 0 0.0833333 -111.4 -549.667)" d="M 2756.4,8456 C 2756.4,8433.92 2739.52,8416 2718.71,8416 C 2697.91,8416 2681.03,8433.92 2681.03,8456 C 2681.03,8478.08 2664.15,8496 2643.34,8496 C 2622.54,8496 2605.66,8478.08 2605.66,8456 C 2605.66,8433.92 2588.78,8416 2567.97,8416 C 2547.17,8416 2530.29,8433.92 2530.29,8456 C 2530.29,8478.08 2513.4,8496 2492.6,8496 C 2471.8,8496 2454.92,8478.08 2454.92,8456 C 2454.92,8433.92 2438.03,8416 2417.23,8416 C 2396.43,8416 2379.55,8433.92 2379.55,8456 C 2379.55,8478.08 2362.66,8496 2341.86,8496 C 2321.06,8496 2304.18,8478.08 2304.18,8456 C 2304.18,8433.92 2287.29,8416 2266.49,8416 C 2245.69,8416 2228.81,8433.92 2228.81,8456 C 2228.81,8478.08 2211.92,8496 2191.12,8496 C 2170.32,8496 2153.44,8478.08 2153.44,8456 C 2153.44,8433.92 2136.55,8416 2115.75,8416 " />
<path stroke="#000000" stroke-width="20" fill="none" transform="matrix(0.0833333 0 0 0.0833333 -111.4 -549.667)" d="M 6460.4,8448 C 6460.4,8425.92 6443.52,8408 6422.71,8408 C 6401.91,8408 6385.03,8425.92 6385.03,8448 C 6385.03,8470.08 6368.15,8488 6347.34,8488 C 6326.54,8488 6309.66,8470.08 6309.66,8448 C 6309.66,8425.92 6292.77,8408 6271.97,8408 C 6251.17,8408 6234.29,8425.92 6234.29,8448 C 6234.29,8470.08 6217.4,8488 6196.6,8488 C 6175.8,8488 6158.92,8470.08 6158.92,8448 C 6158.92,8425.92 6142.03,8408 6121.23,8408 C 6100.43,8408 6083.55,8425.92 6083.55,8448 C 6083.55,8470.08 6066.66,8488 6045.86,8488 C 6025.06,8488 6008.18,8470.08 6008.18,8448 C 6008.18,8425.92 5991.29,8408 5970.49,8408 C 5949.69,8408 5932.81,8425.92 5932.81,8448 C 5932.81,8470.08 5915.92,8488 5895.12,8488 C 5874.32,8488 5857.44,8470.08 5857.44,8448 C 5857.44,8425.92 5840.55,8408 5819.75,8408 " />
</svg>
