<?xml version="1.0" standalone="no" ?>
<!DOCTYPE svg PUBLIC "-//W3C//DTD SVG 1.1//EN" "http://www.w3.org/Graphics/SVG/1.1/DTD/svg11.dtd">
<svg width="230px" height="227px" viewBox="0 0 230 227" style="background-color: #ffffff00" xmlns="http://www.w3.org/2000/svg" xmlns:xlink="http://www.w3.org/1999/xlink" version="1.1" >
<text x="0" y="0" stroke="none" fill="#000000" transform="matrix(0.0833333 0 0 0.0833333 83.5583 213.3)" font-style="normal" font-weight="normal" font-size="440px" font-family="Times New Roman" >
Aldehyde</text>
<path stroke="none" fill="#000000" transform="matrix(0.0833333 0 0 0.0833333 -396.175 -891)" d="M 6138.2,11846.7 L 6128.2,11829.3 L 6652.9,11526.2 L 6652.91,11549.3 L 6138.2,11846.7 Z " />
<text x="0" y="0" stroke="none" fill="#000000" transform="matrix(0.0833333 0 0 0.0833333 188.285 109.958)" font-style="normal" font-weight="normal" font-size="440px" font-family="Arial" >
H</text>
<path stroke="none" fill="#000000" transform="matrix(0.0833333 0 0 0.0833333 -396.175 -891)" d="M 6652.91,11549.3 L 6652.9,11526.2 L 6994.89,11724 L 6984.89,11741.3 L 6652.91,11549.3 Z " />
<text x="0" y="0" stroke="none" fill="#000000" transform="matrix(0.0833333 0 0 0.0833333 143.965 34.9583)" font-style="normal" font-weight="normal" font-size="440px" font-family="Arial" >
O</text>
<path stroke="none" fill="#000000" transform="matrix(0.0833333 0 0 0.0833333 -396.175 -891)" d="M 6626.8,11558.8 L 6606.8,11558.8 L 6606.8,11156.3 L 6626.8,11156.3 L 6626.8,11558.8 Z " />
<path stroke="none" fill="#000000" transform="matrix(0.0833333 0 0 0.0833333 -396.175 -891)" d="M 6698.8,11558.8 L 6678.8,11558.8 L 6678.8,11156.3 L 6698.8,11156.3 L 6698.8,11558.8 Z " />
<path stroke="none" fill="#00ff00" transform="matrix(0.0833333 0 0 0.0833333 -396.175 -891)" d="M 5773.2,11838 A 360,360 0 1 0 6493.2,11838A 360,360 0 1 0 5773.2,11838Z " />
<path stroke="none" fill="#0fff0f" transform="matrix(0.0833333 0 0 0.0833333 -396.175 -891)" d="M 5777.42,11832.4 A 350.156,350.156 0 1 0 6477.73,11832.4A 350.156,350.156 0 1 0 5777.42,11832.4Z " />
<path stroke="none" fill="#1eff1e" transform="matrix(0.0833333 0 0 0.0833333 -396.175 -891)" d="M 5781.64,11826.7 A 340.312,340.312 0 1 0 6462.26,11826.7A 340.312,340.312 0 1 0 5781.64,11826.7Z " />
<path stroke="none" fill="#2dff2d" transform="matrix(0.0833333 0 0 0.0833333 -396.175 -891)" d="M 5785.86,11821.1 A 330.469,330.469 0 1 0 6446.79,11821.1A 330.469,330.469 0 1 0 5785.86,11821.1Z " />
<path stroke="none" fill="#3bff3b" transform="matrix(0.0833333 0 0 0.0833333 -396.175 -891)" d="M 5790.07,11815.5 A 320.625,320.625 0 1 0 6431.32,11815.5A 320.625,320.625 0 1 0 5790.07,11815.5Z " />
<path stroke="none" fill="#49ff49" transform="matrix(0.0833333 0 0 0.0833333 -396.175 -891)" d="M 5794.29,11809.9 A 310.781,310.781 0 1 0 6415.86,11809.9A 310.781,310.781 0 1 0 5794.29,11809.9Z " />
<path stroke="none" fill="#56ff56" transform="matrix(0.0833333 0 0 0.0833333 -396.175 -891)" d="M 5798.51,11804.2 A 300.938,300.938 0 1 0 6400.39,11804.2A 300.938,300.938 0 1 0 5798.51,11804.2Z " />
<path stroke="none" fill="#63ff63" transform="matrix(0.0833333 0 0 0.0833333 -396.175 -891)" d="M 5802.73,11798.6 A 291.094,291.094 0 1 0 6384.92,11798.6A 291.094,291.094 0 1 0 5802.73,11798.6Z " />
<path stroke="none" fill="#6fff6f" transform="matrix(0.0833333 0 0 0.0833333 -396.175 -891)" d="M 5806.95,11793 A 281.25,281.25 0 1 0 6369.45,11793A 281.25,281.25 0 1 0 5806.95,11793Z " />
<path stroke="none" fill="#7bff7b" transform="matrix(0.0833333 0 0 0.0833333 -396.175 -891)" d="M 5811.17,11787.4 A 271.406,271.406 0 1 0 6353.98,11787.4A 271.406,271.406 0 1 0 5811.17,11787.4Z " />
<path stroke="none" fill="#86ff86" transform="matrix(0.0833333 0 0 0.0833333 -396.175 -891)" d="M 5815.39,11781.7 A 261.562,261.562 0 1 0 6338.51,11781.7A 261.562,261.562 0 1 0 5815.39,11781.7Z " />
<path stroke="none" fill="#91ff91" transform="matrix(0.0833333 0 0 0.0833333 -396.175 -891)" d="M 5819.61,11776.1 A 251.719,251.719 0 1 0 6323.04,11776.1A 251.719,251.719 0 1 0 5819.61,11776.1Z " />
<path stroke="none" fill="#9bff9b" transform="matrix(0.0833333 0 0 0.0833333 -396.175 -891)" d="M 5823.82,11770.5 A 241.875,241.875 0 1 0 6307.57,11770.5A 241.875,241.875 0 1 0 5823.82,11770.5Z " />
<path stroke="none" fill="#a5ffa5" transform="matrix(0.0833333 0 0 0.0833333 -396.175 -891)" d="M 5828.04,11764.9 A 232.031,232.031 0 1 0 6292.11,11764.9A 232.031,232.031 0 1 0 5828.04,11764.9Z " />
<path stroke="none" fill="#aeffae" transform="matrix(0.0833333 0 0 0.0833333 -396.175 -891)" d="M 5832.26,11759.2 A 222.188,222.188 0 1 0 6276.64,11759.2A 222.188,222.188 0 1 0 5832.26,11759.2Z " />
<path stroke="none" fill="#b7ffb7" transform="matrix(0.0833333 0 0 0.0833333 -396.175 -891)" d="M 5836.48,11753.6 A 212.344,212.344 0 1 0 6261.17,11753.6A 212.344,212.344 0 1 0 5836.48,11753.6Z " />
<path stroke="none" fill="#bfffbf" transform="matrix(0.0833333 0 0 0.0833333 -396.175 -891)" d="M 5840.7,11748 A 202.5,202.5 0 1 0 6245.7,11748A 202.5,202.5 0 1 0 5840.7,11748Z " />
<path stroke="none" fill="#c6ffc6" transform="matrix(0.0833333 0 0 0.0833333 -396.175 -891)" d="M 5844.92,11742.4 A 192.656,192.656 0 1 0 6230.23,11742.4A 192.656,192.656 0 1 0 5844.92,11742.4Z " />
<path stroke="none" fill="#ceffce" transform="matrix(0.0833333 0 0 0.0833333 -396.175 -891)" d="M 5849.14,11736.7 A 182.812,182.812 0 1 0 6214.76,11736.7A 182.812,182.812 0 1 0 5849.14,11736.7Z " />
<path stroke="none" fill="#d4ffd4" transform="matrix(0.0833333 0 0 0.0833333 -396.175 -891)" d="M 5853.36,11731.1 A 172.969,172.969 0 1 0 6199.29,11731.1A 172.969,172.969 0 1 0 5853.36,11731.1Z " />
<path stroke="none" fill="#dbffdb" transform="matrix(0.0833333 0 0 0.0833333 -396.175 -891)" d="M 5857.57,11725.5 A 163.125,163.125 0 1 0 6183.82,11725.5A 163.125,163.125 0 1 0 5857.57,11725.5Z " />
<path stroke="none" fill="#e0ffe0" transform="matrix(0.0833333 0 0 0.0833333 -396.175 -891)" d="M 5861.79,11719.9 A 153.281,153.281 0 1 0 6168.36,11719.9A 153.281,153.281 0 1 0 5861.79,11719.9Z " />
<path stroke="none" fill="#e6ffe6" transform="matrix(0.0833333 0 0 0.0833333 -396.175 -891)" d="M 5866.01,11714.2 A 143.438,143.438 0 1 0 6152.89,11714.2A 143.438,143.438 0 1 0 5866.01,11714.2Z " />
<path stroke="none" fill="#eaffea" transform="matrix(0.0833333 0 0 0.0833333 -396.175 -891)" d="M 5870.23,11708.6 A 133.594,133.594 0 1 0 6137.42,11708.6A 133.594,133.594 0 1 0 5870.23,11708.6Z " />
<path stroke="none" fill="#efffef" transform="matrix(0.0833333 0 0 0.0833333 -396.175 -891)" d="M 5874.45,11703 A 123.75,123.75 0 1 0 6121.95,11703A 123.75,123.75 0 1 0 5874.45,11703Z " />
<path stroke="none" fill="#f2fff2" transform="matrix(0.0833333 0 0 0.0833333 -396.175 -891)" d="M 5878.67,11697.4 A 113.906,113.906 0 1 0 6106.48,11697.4A 113.906,113.906 0 1 0 5878.67,11697.4Z " />
<path stroke="none" fill="#f6fff6" transform="matrix(0.0833333 0 0 0.0833333 -396.175 -891)" d="M 5882.89,11691.7 A 104.062,104.062 0 1 0 6091.01,11691.7A 104.062,104.062 0 1 0 5882.89,11691.7Z " />
<path stroke="none" fill="#f8fff8" transform="matrix(0.0833333 0 0 0.0833333 -396.175 -891)" d="M 5887.11,11686.1 A 94.2188,94.2188 0 1 0 6075.54,11686.1A 94.2188,94.2188 0 1 0 5887.11,11686.1Z " />
<path stroke="none" fill="#fbfffb" transform="matrix(0.0833333 0 0 0.0833333 -396.175 -891)" d="M 5891.32,11680.5 A 84.375,84.375 0 1 0 6060.07,11680.5A 84.375,84.375 0 1 0 5891.32,11680.5Z " />
<path stroke="none" fill="#fcfffc" transform="matrix(0.0833333 0 0 0.0833333 -396.175 -891)" d="M 5895.54,11674.9 A 74.5312,74.5312 0 1 0 6044.61,11674.9A 74.5312,74.5312 0 1 0 5895.54,11674.9Z " />
<path stroke="none" fill="#fefffe" transform="matrix(0.0833333 0 0 0.0833333 -396.175 -891)" d="M 5899.76,11669.2 A 64.6875,64.6875 0 1 0 6029.14,11669.2A 64.6875,64.6875 0 1 0 5899.76,11669.2Z " />
<path stroke="none" fill="#fefffe" transform="matrix(0.0833333 0 0 0.0833333 -396.175 -891)" d="M 5903.98,11663.6 A 54.8438,54.8438 0 1 0 6013.67,11663.6A 54.8438,54.8438 0 1 0 5903.98,11663.6Z " />
<path stroke="#00ff00" stroke-width="20" fill="none" transform="matrix(0.0833333 0 0 0.0833333 -396.175 -891)" d="M 5773.2,11838 A 360,360 0 1 0 6493.2,11838A 360,360 0 1 0 5773.2,11838Z " />
<text x="0" y="0" stroke="none" fill="#000000" transform="matrix(0.0833333 0 0 0.0833333 3.92499 111)" font-style="normal" font-weight="normal" font-size="440px" font-family="Times New Roman" >
2</text>
</svg>
