<?xml version="1.0" standalone="no" ?>
<!DOCTYPE svg PUBLIC "-//W3C//DTD SVG 1.1//EN" "http://www.w3.org/Graphics/SVG/1.1/DTD/svg11.dtd">
<svg width="347px" height="198px" viewBox="0 0 347 198" style="background-color: #ffffff00" xmlns="http://www.w3.org/2000/svg" xmlns:xlink="http://www.w3.org/1999/xlink" version="1.1" >
<text x="0" y="0" stroke="none" fill="#000000" transform="matrix(0.0833333 0 0 0.0833333 155.942 185.117)" font-style="normal" font-weight="normal" font-size="440px" font-family="Times New Roman" >
Diamine</text>
<path stroke="none" fill="#000000" transform="matrix(0.0833333 0 0 0.0833333 -65.175 -940)" d="M 2731.56,12047.8 L 2743.1,12027.8 L 3337.6,12027.6 L 3337.6,12047.6 L 2731.56,12047.8 Z " />
<path stroke="none" fill="#000000" transform="matrix(0.0833333 0 0 0.0833333 -65.175 -940)" d="M 3337.6,12047.6 L 3337.6,12027.6 L 3932.1,12027.8 L 3943.64,12047.8 L 3337.6,12047.6 Z " />
<text x="0" y="0" stroke="none" fill="#000000" transform="matrix(0.0833333 0 0 0.0833333 274.719 34.2917)" font-style="normal" font-weight="normal" font-size="440px" font-family="Arial" >
NH</text>
<text x="0" y="0" stroke="none" fill="#000000" transform="matrix(0.0833333 0 0 0.0833333 327.678 42.0417)" font-style="normal" font-weight="normal" font-size="330px" font-family="Arial" >
2</text>
<path stroke="none" fill="#000000" transform="matrix(0.0833333 0 0 0.0833333 -65.175 -940)" d="M 3943.64,12047.8 L 3932.1,12027.8 L 4102.66,11731.7 L 4119.98,11741.7 L 3943.64,12047.8 Z " />
<text x="0" y="0" stroke="none" fill="#000000" transform="matrix(0.0833333 0 0 0.0833333 82.9449 34.2917)" font-style="normal" font-weight="normal" font-size="440px" font-family="Arial" >
H</text>
<text x="0" y="0" stroke="none" fill="#000000" transform="matrix(0.0833333 0 0 0.0833333 109.424 42.0417)" font-style="normal" font-weight="normal" font-size="330px" font-family="Arial" >
2</text>
<text x="0" y="0" stroke="none" fill="#000000" transform="matrix(0.0833333 0 0 0.0833333 124.719 34.2917)" font-style="normal" font-weight="normal" font-size="440px" font-family="Arial" >
N</text>
<path stroke="none" fill="#000000" transform="matrix(0.0833333 0 0 0.0833333 -65.175 -940)" d="M 2743.1,12027.8 L 2731.56,12047.8 L 2554.46,11740.4 L 2571.78,11730.4 L 2743.1,12027.8 Z " />
<path stroke="none" fill="#ff0000" transform="matrix(0.0833333 0 0 0.0833333 -65.175 -940)" d="M 2977.6,12037.6 A 360,360 0 1 0 3697.6,12037.6A 360,360 0 1 0 2977.6,12037.6Z " />
<path stroke="none" fill="#ff0f0f" transform="matrix(0.0833333 0 0 0.0833333 -65.175 -940)" d="M 2981.82,12032 A 350.156,350.156 0 1 0 3682.13,12032A 350.156,350.156 0 1 0 2981.82,12032Z " />
<path stroke="none" fill="#ff1e1e" transform="matrix(0.0833333 0 0 0.0833333 -65.175 -940)" d="M 2986.04,12026.3 A 340.312,340.312 0 1 0 3666.66,12026.3A 340.312,340.312 0 1 0 2986.04,12026.3Z " />
<path stroke="none" fill="#ff2d2d" transform="matrix(0.0833333 0 0 0.0833333 -65.175 -940)" d="M 2990.26,12020.7 A 330.469,330.469 0 1 0 3651.19,12020.7A 330.469,330.469 0 1 0 2990.26,12020.7Z " />
<path stroke="none" fill="#ff3b3b" transform="matrix(0.0833333 0 0 0.0833333 -65.175 -940)" d="M 2994.47,12015.1 A 320.625,320.625 0 1 0 3635.72,12015.1A 320.625,320.625 0 1 0 2994.47,12015.1Z " />
<path stroke="none" fill="#ff4949" transform="matrix(0.0833333 0 0 0.0833333 -65.175 -940)" d="M 2998.69,12009.5 A 310.781,310.781 0 1 0 3620.26,12009.5A 310.781,310.781 0 1 0 2998.69,12009.5Z " />
<path stroke="none" fill="#ff5656" transform="matrix(0.0833333 0 0 0.0833333 -65.175 -940)" d="M 3002.91,12003.8 A 300.938,300.938 0 1 0 3604.79,12003.8A 300.938,300.938 0 1 0 3002.91,12003.8Z " />
<path stroke="none" fill="#ff6363" transform="matrix(0.0833333 0 0 0.0833333 -65.175 -940)" d="M 3007.13,11998.2 A 291.094,291.094 0 1 0 3589.32,11998.2A 291.094,291.094 0 1 0 3007.13,11998.2Z " />
<path stroke="none" fill="#ff6f6f" transform="matrix(0.0833333 0 0 0.0833333 -65.175 -940)" d="M 3011.35,11992.6 A 281.25,281.25 0 1 0 3573.85,11992.6A 281.25,281.25 0 1 0 3011.35,11992.6Z " />
<path stroke="none" fill="#ff7b7b" transform="matrix(0.0833333 0 0 0.0833333 -65.175 -940)" d="M 3015.57,11987 A 271.406,271.406 0 1 0 3558.38,11987A 271.406,271.406 0 1 0 3015.57,11987Z " />
<path stroke="none" fill="#ff8686" transform="matrix(0.0833333 0 0 0.0833333 -65.175 -940)" d="M 3019.79,11981.3 A 261.562,261.562 0 1 0 3542.91,11981.3A 261.562,261.562 0 1 0 3019.79,11981.3Z " />
<path stroke="none" fill="#ff9191" transform="matrix(0.0833333 0 0 0.0833333 -65.175 -940)" d="M 3024.01,11975.7 A 251.719,251.719 0 1 0 3527.44,11975.7A 251.719,251.719 0 1 0 3024.01,11975.7Z " />
<path stroke="none" fill="#ff9b9b" transform="matrix(0.0833333 0 0 0.0833333 -65.175 -940)" d="M 3028.22,11970.1 A 241.875,241.875 0 1 0 3511.97,11970.1A 241.875,241.875 0 1 0 3028.22,11970.1Z " />
<path stroke="none" fill="#ffa5a5" transform="matrix(0.0833333 0 0 0.0833333 -65.175 -940)" d="M 3032.44,11964.5 A 232.031,232.031 0 1 0 3496.51,11964.5A 232.031,232.031 0 1 0 3032.44,11964.5Z " />
<path stroke="none" fill="#ffaeae" transform="matrix(0.0833333 0 0 0.0833333 -65.175 -940)" d="M 3036.66,11958.8 A 222.188,222.188 0 1 0 3481.04,11958.8A 222.188,222.188 0 1 0 3036.66,11958.8Z " />
<path stroke="none" fill="#ffb7b7" transform="matrix(0.0833333 0 0 0.0833333 -65.175 -940)" d="M 3040.88,11953.2 A 212.344,212.344 0 1 0 3465.57,11953.2A 212.344,212.344 0 1 0 3040.88,11953.2Z " />
<path stroke="none" fill="#ffbfbf" transform="matrix(0.0833333 0 0 0.0833333 -65.175 -940)" d="M 3045.1,11947.6 A 202.5,202.5 0 1 0 3450.1,11947.6A 202.5,202.5 0 1 0 3045.1,11947.6Z " />
<path stroke="none" fill="#ffc6c6" transform="matrix(0.0833333 0 0 0.0833333 -65.175 -940)" d="M 3049.32,11942 A 192.656,192.656 0 1 0 3434.63,11942A 192.656,192.656 0 1 0 3049.32,11942Z " />
<path stroke="none" fill="#ffcece" transform="matrix(0.0833333 0 0 0.0833333 -65.175 -940)" d="M 3053.54,11936.3 A 182.812,182.812 0 1 0 3419.16,11936.3A 182.812,182.812 0 1 0 3053.54,11936.3Z " />
<path stroke="none" fill="#ffd4d4" transform="matrix(0.0833333 0 0 0.0833333 -65.175 -940)" d="M 3057.76,11930.7 A 172.969,172.969 0 1 0 3403.69,11930.7A 172.969,172.969 0 1 0 3057.76,11930.7Z " />
<path stroke="none" fill="#ffdbdb" transform="matrix(0.0833333 0 0 0.0833333 -65.175 -940)" d="M 3061.97,11925.1 A 163.125,163.125 0 1 0 3388.22,11925.1A 163.125,163.125 0 1 0 3061.97,11925.1Z " />
<path stroke="none" fill="#ffe0e0" transform="matrix(0.0833333 0 0 0.0833333 -65.175 -940)" d="M 3066.19,11919.5 A 153.281,153.281 0 1 0 3372.76,11919.5A 153.281,153.281 0 1 0 3066.19,11919.5Z " />
<path stroke="none" fill="#ffe6e6" transform="matrix(0.0833333 0 0 0.0833333 -65.175 -940)" d="M 3070.41,11913.8 A 143.438,143.438 0 1 0 3357.29,11913.8A 143.438,143.438 0 1 0 3070.41,11913.8Z " />
<path stroke="none" fill="#ffeaea" transform="matrix(0.0833333 0 0 0.0833333 -65.175 -940)" d="M 3074.63,11908.2 A 133.594,133.594 0 1 0 3341.82,11908.2A 133.594,133.594 0 1 0 3074.63,11908.2Z " />
<path stroke="none" fill="#ffefef" transform="matrix(0.0833333 0 0 0.0833333 -65.175 -940)" d="M 3078.85,11902.6 A 123.75,123.75 0 1 0 3326.35,11902.6A 123.75,123.75 0 1 0 3078.85,11902.6Z " />
<path stroke="none" fill="#fff2f2" transform="matrix(0.0833333 0 0 0.0833333 -65.175 -940)" d="M 3083.07,11897 A 113.906,113.906 0 1 0 3310.88,11897A 113.906,113.906 0 1 0 3083.07,11897Z " />
<path stroke="none" fill="#fff6f6" transform="matrix(0.0833333 0 0 0.0833333 -65.175 -940)" d="M 3087.29,11891.3 A 104.062,104.062 0 1 0 3295.41,11891.3A 104.062,104.062 0 1 0 3087.29,11891.3Z " />
<path stroke="none" fill="#fff8f8" transform="matrix(0.0833333 0 0 0.0833333 -65.175 -940)" d="M 3091.51,11885.7 A 94.2188,94.2188 0 1 0 3279.94,11885.7A 94.2188,94.2188 0 1 0 3091.51,11885.7Z " />
<path stroke="none" fill="#fffbfb" transform="matrix(0.0833333 0 0 0.0833333 -65.175 -940)" d="M 3095.72,11880.1 A 84.375,84.375 0 1 0 3264.47,11880.1A 84.375,84.375 0 1 0 3095.72,11880.1Z " />
<path stroke="none" fill="#fffcfc" transform="matrix(0.0833333 0 0 0.0833333 -65.175 -940)" d="M 3099.94,11874.5 A 74.5312,74.5312 0 1 0 3249.01,11874.5A 74.5312,74.5312 0 1 0 3099.94,11874.5Z " />
<path stroke="none" fill="#fffefe" transform="matrix(0.0833333 0 0 0.0833333 -65.175 -940)" d="M 3104.16,11868.8 A 64.6875,64.6875 0 1 0 3233.54,11868.8A 64.6875,64.6875 0 1 0 3104.16,11868.8Z " />
<path stroke="none" fill="#fffefe" transform="matrix(0.0833333 0 0 0.0833333 -65.175 -940)" d="M 3108.38,11863.2 A 54.8438,54.8438 0 1 0 3218.07,11863.2A 54.8438,54.8438 0 1 0 3108.38,11863.2Z " />
<path stroke="#ff0000" stroke-width="20" fill="none" transform="matrix(0.0833333 0 0 0.0833333 -65.175 -940)" d="M 2977.6,12037.6 A 360,360 0 1 0 3697.6,12037.6A 360,360 0 1 0 2977.6,12037.6Z " />
<text x="0" y="0" stroke="none" fill="#000000" transform="matrix(0.0833333 0 0 0.0833333 3.92498 75)" font-style="normal" font-weight="normal" font-size="440px" font-family="Times New Roman" >
1</text>
</svg>
