<?xml version="1.0" standalone="no" ?>
<!DOCTYPE svg PUBLIC "-//W3C//DTD SVG 1.1//EN" "http://www.w3.org/Graphics/SVG/1.1/DTD/svg11.dtd">
<svg width="745px" height="135px" viewBox="0 0 745 135" style="background-color: #ffffff00" xmlns="http://www.w3.org/2000/svg" xmlns:xlink="http://www.w3.org/1999/xlink" version="1.1" >
<text x="0" y="0" stroke="none" fill="#000000" transform="matrix(0.0833333 0 0 0.0833333 66.0162 62.2)" font-style="normal" font-weight="normal" font-size="240px" font-family="Times New Roman" >
1 </text>
<text x="0" y="0" stroke="none" fill="#000000" transform="matrix(0.0833333 0 0 0.0833333 81.0162 62.2)" font-style="normal" font-weight="normal" font-size="240px" font-family="Times New Roman" >
Metal</text>
<path stroke="none" fill="#000000" transform="matrix(0.0833333 0 0 0.0833333 -19.0964 -332)" d="M 2306.87,4637.4 L 2393.53,4637.4 L 2393.53,4653.4 L 2306.87,4653.4 Z " />
<path stroke="none" fill="#000000" transform="matrix(0.0833333 0 0 0.0833333 -19.0964 -332)" d="M 2358.2,4602.07 L 2358.2,4688.73 L 2342.2,4688.73 L 2342.2,4602.07 Z " />
<text x="0" y="0" stroke="none" fill="#000000" transform="matrix(0.0833333 0 0 0.0833333 200.587 61)" font-style="normal" font-weight="normal" font-size="240px" font-family="Times New Roman" >
1</text>
<text x="0" y="0" stroke="none" fill="#000000" transform="matrix(0.0833333 0 0 0.0833333 321.986 83.5)" font-style="normal" font-weight="normal" font-size="200px" font-family="Arial" >
R</text>
<text x="0" y="0" stroke="none" fill="#000000" transform="matrix(0.0833333 0 0 0.0833333 334.022 87.1667)" font-style="normal" font-weight="normal" font-size="150px" font-family="Arial" >
1</text>
<path stroke="none" fill="#000000" transform="matrix(0.0833333 0 0 0.0833333 -19.0964 -332)" d="M 3559.27,4918.24 L 3570.82,4898.22 L 4068.98,4898 L 4068.98,4918 L 3559.27,4918.24 Z " />
<path stroke="none" fill="#000000" transform="matrix(0.0833333 0 0 0.0833333 -19.0964 -332)" d="M 4332.98,4918 L 4332.98,4898 L 4759.56,4898.26 L 4771.11,4918.27 L 4332.98,4918 Z " />
<text x="0" y="0" stroke="none" fill="#000000" transform="matrix(0.0833333 0 0 0.0833333 227.997 40.2)" font-style="normal" font-weight="normal" font-size="200px" font-family="Arial" >
H</text>
<text x="0" y="0" stroke="none" fill="#000000" transform="matrix(0.0833333 0 0 0.0833333 240.034 43.8667)" font-style="normal" font-weight="normal" font-size="150px" font-family="Arial" >
2</text>
<text x="0" y="0" stroke="none" fill="#000000" transform="matrix(0.0833333 0 0 0.0833333 246.986 40.2)" font-style="normal" font-weight="normal" font-size="200px" font-family="Arial" >
N</text>
<path stroke="none" fill="#000000" transform="matrix(0.0833333 0 0 0.0833333 -19.0964 -332)" d="M 3570.82,4898.22 L 3559.27,4918.24 L 3324.63,4511.32 L 3341.95,4501.32 L 3570.82,4898.22 Z " />
<text x="0" y="0" stroke="none" fill="#000000" transform="matrix(0.0833333 0 0 0.0833333 396.986 40.2)" font-style="normal" font-weight="normal" font-size="200px" font-family="Arial" >
NH</text>
<text x="0" y="0" stroke="none" fill="#000000" transform="matrix(0.0833333 0 0 0.0833333 421.058 43.8667)" font-style="normal" font-weight="normal" font-size="150px" font-family="Arial" >
2</text>
<path stroke="none" fill="#000000" transform="matrix(0.0833333 0 0 0.0833333 -19.0964 -332)" d="M 4771.11,4918.27 L 4759.56,4898.26 L 4988.13,4501.88 L 5005.45,4511.88 L 4771.11,4918.27 Z " />
<path stroke="none" fill="#000000" transform="matrix(0.0833333 0 0 0.0833333 -19.0964 -332)" d="M 5762.87,4634.4 L 5849.53,4634.4 L 5849.53,4650.4 L 5762.87,4650.4 Z " />
<path stroke="none" fill="#000000" transform="matrix(0.0833333 0 0 0.0833333 -19.0964 -332)" d="M 5814.2,4599.07 L 5814.2,4685.73 L 5798.2,4685.73 L 5798.2,4599.07 Z " />
<text x="0" y="0" stroke="none" fill="#000000" transform="matrix(0.0833333 0 0 0.0833333 498.754 60.75)" font-style="normal" font-weight="normal" font-size="240px" font-family="Times New Roman" >
2</text>
<text x="0" y="0" stroke="none" fill="#000000" transform="matrix(0.0833333 0 0 0.0833333 520.492 92.5)" font-style="normal" font-weight="normal" font-size="200px" font-family="Arial" >
R</text>
<text x="0" y="0" stroke="none" fill="#000000" transform="matrix(0.0833333 0 0 0.0833333 532.528 96.1666)" font-style="normal" font-weight="normal" font-size="150px" font-family="Arial" >
2</text>
<path stroke="none" fill="#000000" transform="matrix(0.0833333 0 0 0.0833333 -19.0964 -332)" d="M 6709.98,4999.38 L 6699.98,4982.06 L 7180.83,4704.19 L 7180.83,4727.29 L 6709.98,4999.38 Z " />
<text x="0" y="0" stroke="none" fill="#000000" transform="matrix(0.0833333 0 0 0.0833333 572.822 17.5)" font-style="normal" font-weight="normal" font-size="200px" font-family="Arial" >
O</text>
<path stroke="none" fill="#000000" transform="matrix(0.0833333 0 0 0.0833333 -19.0964 -332)" d="M 7154.8,4736.78 L 7134.8,4736.78 L 7134.8,4235.83 L 7154.8,4235.83 L 7154.8,4736.78 Z " />
<path stroke="none" fill="#000000" transform="matrix(0.0833333 0 0 0.0833333 -19.0964 -332)" d="M 7226.8,4736.78 L 7206.8,4736.78 L 7206.8,4235.83 L 7226.8,4235.83 L 7226.8,4736.78 Z " />
<text x="0" y="0" stroke="none" fill="#000000" transform="matrix(0.0833333 0 0 0.0833333 616.586 92.5)" font-style="normal" font-weight="normal" font-size="200px" font-family="Arial" >
H</text>
<path stroke="none" fill="#000000" transform="matrix(0.0833333 0 0 0.0833333 -19.0964 -332)" d="M 7180.83,4727.29 L 7180.83,4704.19 L 7602.21,4947.76 L 7592.21,4965.08 L 7180.83,4727.29 Z " />
<path stroke="none" fill="#000000" transform="matrix(0.0833333 0 0 0.0833333 -19.0964 -332)" d="M 8893.95,5502.2 L 276.4,5502.2 L 276.4,5476.2 L 8893.95,5476.2 Z " />
<path stroke="none" fill="#000000" transform="matrix(0.0833333 0 0 0.0833333 -19.0964 -332)" d="M 9122.2,5489.2 C 9122.2,5489.2 8860.2,5555.7 8860.2,5555.7 C 8860.2,5555.7 8892.95,5518.29 8892.95,5489.2 C 8892.95,5459.67 8860.2,5421.7 8860.2,5421.7 C 8860.2,5421.7 9122.2,5489.2 9122.2,5489.2 C 9122.2,5489.2 9122.2,5489.2 9122.2,5489.2 " />
<path stroke="#000000" stroke-width="1" fill="none" transform="matrix(0.0833333 0 0 0.0833333 -19.0964 -332)" d="M 9122.2,5489.2 C 9122.2,5489.2 8860.2,5555.7 8860.2,5555.7 C 8860.2,5555.7 8892.95,5518.29 8892.95,5489.2 C 8892.95,5459.67 8860.2,5421.7 8860.2,5421.7 C 8860.2,5421.7 9122.2,5489.2 9122.2,5489.2 C 9122.2,5489.2 9122.2,5489.2 9122.2,5489.2 " />
</svg>
