<?xml version="1.0" standalone="no" ?>
<!DOCTYPE svg PUBLIC "-//W3C//DTD SVG 1.1//EN" "http://www.w3.org/Graphics/SVG/1.1/DTD/svg11.dtd">
<svg width="160px" height="168px" viewBox="0 0 160 168" style="background-color: #ffffff00" xmlns="http://www.w3.org/2000/svg" xmlns:xlink="http://www.w3.org/1999/xlink" version="1.1" >
<path stroke="none" fill="#ffff00" transform="matrix(0.0833333 0 0 0.0833333 -191.517 -900.583)" d="M 3270,11221.8 A 360,360 0 1 0 3990,11221.8A 360,360 0 1 0 3270,11221.8Z " />
<path stroke="none" fill="#ffff0f" transform="matrix(0.0833333 0 0 0.0833333 -191.517 -900.583)" d="M 3274.22,11216.2 A 350.156,350.156 0 1 0 3974.53,11216.2A 350.156,350.156 0 1 0 3274.22,11216.2Z " />
<path stroke="none" fill="#ffff1e" transform="matrix(0.0833333 0 0 0.0833333 -191.517 -900.583)" d="M 3278.44,11210.5 A 340.312,340.312 0 1 0 3959.06,11210.5A 340.312,340.312 0 1 0 3278.44,11210.5Z " />
<path stroke="none" fill="#ffff2d" transform="matrix(0.0833333 0 0 0.0833333 -191.517 -900.583)" d="M 3282.66,11204.9 A 330.469,330.469 0 1 0 3943.59,11204.9A 330.469,330.469 0 1 0 3282.66,11204.9Z " />
<path stroke="none" fill="#ffff3b" transform="matrix(0.0833333 0 0 0.0833333 -191.517 -900.583)" d="M 3286.88,11199.3 A 320.625,320.625 0 1 0 3928.12,11199.3A 320.625,320.625 0 1 0 3286.88,11199.3Z " />
<path stroke="none" fill="#ffff49" transform="matrix(0.0833333 0 0 0.0833333 -191.517 -900.583)" d="M 3291.09,11193.7 A 310.781,310.781 0 1 0 3912.66,11193.7A 310.781,310.781 0 1 0 3291.09,11193.7Z " />
<path stroke="none" fill="#ffff56" transform="matrix(0.0833333 0 0 0.0833333 -191.517 -900.583)" d="M 3295.31,11188 A 300.938,300.938 0 1 0 3897.19,11188A 300.938,300.938 0 1 0 3295.31,11188Z " />
<path stroke="none" fill="#ffff63" transform="matrix(0.0833333 0 0 0.0833333 -191.517 -900.583)" d="M 3299.53,11182.4 A 291.094,291.094 0 1 0 3881.72,11182.4A 291.094,291.094 0 1 0 3299.53,11182.4Z " />
<path stroke="none" fill="#ffff6f" transform="matrix(0.0833333 0 0 0.0833333 -191.517 -900.583)" d="M 3303.75,11176.8 A 281.25,281.25 0 1 0 3866.25,11176.8A 281.25,281.25 0 1 0 3303.75,11176.8Z " />
<path stroke="none" fill="#ffff7b" transform="matrix(0.0833333 0 0 0.0833333 -191.517 -900.583)" d="M 3307.97,11171.2 A 271.406,271.406 0 1 0 3850.78,11171.2A 271.406,271.406 0 1 0 3307.97,11171.2Z " />
<path stroke="none" fill="#ffff86" transform="matrix(0.0833333 0 0 0.0833333 -191.517 -900.583)" d="M 3312.19,11165.5 A 261.562,261.562 0 1 0 3835.31,11165.5A 261.562,261.562 0 1 0 3312.19,11165.5Z " />
<path stroke="none" fill="#ffff91" transform="matrix(0.0833333 0 0 0.0833333 -191.517 -900.583)" d="M 3316.41,11159.9 A 251.719,251.719 0 1 0 3819.84,11159.9A 251.719,251.719 0 1 0 3316.41,11159.9Z " />
<path stroke="none" fill="#ffff9b" transform="matrix(0.0833333 0 0 0.0833333 -191.517 -900.583)" d="M 3320.62,11154.3 A 241.875,241.875 0 1 0 3804.38,11154.3A 241.875,241.875 0 1 0 3320.62,11154.3Z " />
<path stroke="none" fill="#ffffa5" transform="matrix(0.0833333 0 0 0.0833333 -191.517 -900.583)" d="M 3324.84,11148.7 A 232.031,232.031 0 1 0 3788.91,11148.7A 232.031,232.031 0 1 0 3324.84,11148.7Z " />
<path stroke="none" fill="#ffffae" transform="matrix(0.0833333 0 0 0.0833333 -191.517 -900.583)" d="M 3329.06,11143 A 222.188,222.188 0 1 0 3773.44,11143A 222.188,222.188 0 1 0 3329.06,11143Z " />
<path stroke="none" fill="#ffffb7" transform="matrix(0.0833333 0 0 0.0833333 -191.517 -900.583)" d="M 3333.28,11137.4 A 212.344,212.344 0 1 0 3757.97,11137.4A 212.344,212.344 0 1 0 3333.28,11137.4Z " />
<path stroke="none" fill="#ffffbf" transform="matrix(0.0833333 0 0 0.0833333 -191.517 -900.583)" d="M 3337.5,11131.8 A 202.5,202.5 0 1 0 3742.5,11131.8A 202.5,202.5 0 1 0 3337.5,11131.8Z " />
<path stroke="none" fill="#ffffc6" transform="matrix(0.0833333 0 0 0.0833333 -191.517 -900.583)" d="M 3341.72,11126.2 A 192.656,192.656 0 1 0 3727.03,11126.2A 192.656,192.656 0 1 0 3341.72,11126.2Z " />
<path stroke="none" fill="#ffffce" transform="matrix(0.0833333 0 0 0.0833333 -191.517 -900.583)" d="M 3345.94,11120.5 A 182.812,182.812 0 1 0 3711.56,11120.5A 182.812,182.812 0 1 0 3345.94,11120.5Z " />
<path stroke="none" fill="#ffffd4" transform="matrix(0.0833333 0 0 0.0833333 -191.517 -900.583)" d="M 3350.16,11114.9 A 172.969,172.969 0 1 0 3696.09,11114.9A 172.969,172.969 0 1 0 3350.16,11114.9Z " />
<path stroke="none" fill="#ffffdb" transform="matrix(0.0833333 0 0 0.0833333 -191.517 -900.583)" d="M 3354.38,11109.3 A 163.125,163.125 0 1 0 3680.62,11109.3A 163.125,163.125 0 1 0 3354.38,11109.3Z " />
<path stroke="none" fill="#ffffe0" transform="matrix(0.0833333 0 0 0.0833333 -191.517 -900.583)" d="M 3358.59,11103.7 A 153.281,153.281 0 1 0 3665.16,11103.7A 153.281,153.281 0 1 0 3358.59,11103.7Z " />
<path stroke="none" fill="#ffffe6" transform="matrix(0.0833333 0 0 0.0833333 -191.517 -900.583)" d="M 3362.81,11098 A 143.438,143.438 0 1 0 3649.69,11098A 143.438,143.438 0 1 0 3362.81,11098Z " />
<path stroke="none" fill="#ffffea" transform="matrix(0.0833333 0 0 0.0833333 -191.517 -900.583)" d="M 3367.03,11092.4 A 133.594,133.594 0 1 0 3634.22,11092.4A 133.594,133.594 0 1 0 3367.03,11092.4Z " />
<path stroke="none" fill="#ffffef" transform="matrix(0.0833333 0 0 0.0833333 -191.517 -900.583)" d="M 3371.25,11086.8 A 123.75,123.75 0 1 0 3618.75,11086.8A 123.75,123.75 0 1 0 3371.25,11086.8Z " />
<path stroke="none" fill="#fffff2" transform="matrix(0.0833333 0 0 0.0833333 -191.517 -900.583)" d="M 3375.47,11081.2 A 113.906,113.906 0 1 0 3603.28,11081.2A 113.906,113.906 0 1 0 3375.47,11081.2Z " />
<path stroke="none" fill="#fffff6" transform="matrix(0.0833333 0 0 0.0833333 -191.517 -900.583)" d="M 3379.69,11075.5 A 104.062,104.062 0 1 0 3587.81,11075.5A 104.062,104.062 0 1 0 3379.69,11075.5Z " />
<path stroke="none" fill="#fffff8" transform="matrix(0.0833333 0 0 0.0833333 -191.517 -900.583)" d="M 3383.91,11069.9 A 94.2188,94.2188 0 1 0 3572.34,11069.9A 94.2188,94.2188 0 1 0 3383.91,11069.9Z " />
<path stroke="none" fill="#fffffb" transform="matrix(0.0833333 0 0 0.0833333 -191.517 -900.583)" d="M 3388.12,11064.3 A 84.375,84.375 0 1 0 3556.88,11064.3A 84.375,84.375 0 1 0 3388.12,11064.3Z " />
<path stroke="none" fill="#fffffc" transform="matrix(0.0833333 0 0 0.0833333 -191.517 -900.583)" d="M 3392.34,11058.7 A 74.5312,74.5312 0 1 0 3541.41,11058.7A 74.5312,74.5312 0 1 0 3392.34,11058.7Z " />
<path stroke="none" fill="#fffffe" transform="matrix(0.0833333 0 0 0.0833333 -191.517 -900.583)" d="M 3396.56,11053 A 64.6875,64.6875 0 1 0 3525.94,11053A 64.6875,64.6875 0 1 0 3396.56,11053Z " />
<path stroke="none" fill="#fffffe" transform="matrix(0.0833333 0 0 0.0833333 -191.517 -900.583)" d="M 3400.78,11047.4 A 54.8438,54.8438 0 1 0 3510.47,11047.4A 54.8438,54.8438 0 1 0 3400.78,11047.4Z " />
<path stroke="#ffff00" stroke-width="20" fill="none" transform="matrix(0.0833333 0 0 0.0833333 -191.517 -900.583)" d="M 3270,11221.8 A 360,360 0 1 0 3990,11221.8A 360,360 0 1 0 3270,11221.8Z " />
<text x="0" y="0" stroke="none" fill="#000000" transform="matrix(0.0833333 0 0 0.0833333 70.3333 154.55)" font-style="normal" font-weight="normal" font-size="440px" font-family="Times New Roman" >
Metal</text>
<text x="0" y="0" stroke="none" fill="#000000" transform="matrix(0.0833333 0 0 0.0833333 95.4154 44.8416)" font-style="normal" font-weight="normal" font-size="440px" font-family="Times New Roman" >
M</text>
<text x="0" y="0" stroke="none" fill="#000000" transform="matrix(0.0833333 0 0 0.0833333 3.58331 48.4167)" font-style="normal" font-weight="normal" font-size="440px" font-family="Times New Roman" >
1</text>
</svg>
