<?xml version="1.0" standalone="no" ?>
<!DOCTYPE svg PUBLIC "-//W3C//DTD SVG 1.1//EN" "http://www.w3.org/Graphics/SVG/1.1/DTD/svg11.dtd">
<svg width="132px" height="78px" viewBox="0 0 132 78" style="background-color: #ffffff00" xmlns="http://www.w3.org/2000/svg" xmlns:xlink="http://www.w3.org/1999/xlink" version="1.1" >
<path stroke="none" fill="#000000" transform="matrix(0.0833333 0 0 0.0833333 -264.175 -347)" d="M 4537.2,4948 L 3241.2,4948 L 3241.2,4928 L 4537.2,4928 Z " />
<path stroke="none" fill="#000000" transform="matrix(0.0833333 0 0 0.0833333 -264.175 -347)" d="M 3385.2,4988 L 4681.2,4988 L 4681.2,5008 L 3385.2,5008 Z " />
<path stroke="none" fill="#000000" transform="matrix(0.0833333 0 0 0.0833333 -264.175 -347)" d="M 4711.2,4948 C 4711.2,4948 4536.2,4948 4536.2,4948 C 4536.2,4915.25 4511.2,4886 4511.2,4886 C 4511.2,4886 4711.2,4948 4711.2,4948 C 4711.2,4948 4711.2,4948 4711.2,4948 " />
<path stroke="#000000" stroke-width="1" fill="none" transform="matrix(0.0833333 0 0 0.0833333 -264.175 -347)" d="M 4711.2,4948 C 4711.2,4948 4536.2,4948 4536.2,4948 C 4536.2,4915.25 4511.2,4886 4511.2,4886 C 4511.2,4886 4711.2,4948 4711.2,4948 C 4711.2,4948 4711.2,4948 4711.2,4948 " />
<path stroke="none" fill="#000000" transform="matrix(0.0833333 0 0 0.0833333 -264.175 -347)" d="M 3211.2,4988 C 3211.2,4988 3411.2,5050 3411.2,5050 C 3411.2,5050 3386.2,5000.75 3386.2,4988 C 3386.2,4988 3211.2,4988 3211.2,4988 C 3211.2,4988 3211.2,4988 3211.2,4988 " />
<path stroke="#000000" stroke-width="1" fill="none" transform="matrix(0.0833333 0 0 0.0833333 -264.175 -347)" d="M 3211.2,4988 C 3211.2,4988 3411.2,5050 3411.2,5050 C 3411.2,5050 3386.2,5000.75 3386.2,4988 C 3386.2,4988 3211.2,4988 3211.2,4988 C 3211.2,4988 3211.2,4988 3211.2,4988 " />
<text x="0" y="0" stroke="none" fill="#000000" transform="matrix(0.0833333 0 0 0.0833333 33.9019 36.625)" font-style="normal" font-weight="normal" font-size="440px" font-family="Times New Roman" >
H</text>
<text x="0" y="0" stroke="none" fill="#000000" transform="matrix(0.0833333 0 0 0.0833333 60.3814 44.5417)" font-style="normal" font-weight="normal" font-size="330px" font-family="Times New Roman" >
2</text>
<text x="0" y="0" stroke="none" fill="#000000" transform="matrix(0.0833333 0 0 0.0833333 74.1314 36.625)" font-style="normal" font-weight="normal" font-size="440px" font-family="Times New Roman" >
O</text>
</svg>
